<svg xmlns="http://www.w3.org/2000/svg" xmlns:xlink="http://www.w3.org/1999/xlink" version="1.1" id="Layer_1" x="0px" y="0px" width="100px" height="100px" viewBox="0 0 100 100" enable-background="new 0 0 100 100" xml:space="preserve">
<path d="M53.426,55.349l-8.423-7.938l-0.03-0.025L5.85,86.502l-5.834-5.839l39.122-39.123v0.01l-7.504-7.514l-0.062,0.041  c-1.271,1.286-3.583,1.041-5.176-0.562l0,0c-1.587-1.582-1.848-3.9-0.562-5.176l17.208-17.203c1.261-1.276,3.589-1.026,5.176,0.566  l0,0c1.598,1.588,1.843,3.905,0.556,5.176l-0.684,0.684l0.01,0.005c0,0,21.792,21.307,21.79,21.307l0.472-0.475  c1.262-1.276,3.592-1.031,5.182,0.562l0,0c1.593,1.583,1.838,3.911,0.551,5.181L58.908,61.352c-1.271,1.281-3.584,1.042-5.177-0.562  l0,0c-1.587-1.583-1.853-3.905-0.566-5.187l0.255-0.255H53.426z"/>
<path d="M46.488,77.742l0.005-4.44h46.799v4.44h3.369c1.802-0.004,3.262,1.817,3.257,4.068l0,0c0.015,2.251-1.455,4.069-3.262,4.048  H43.134c-1.807,0.011-3.271-1.797-3.262-4.053l0,0c0-2.246,1.455-4.067,3.262-4.063H46.488"/>
</svg>