<svg xmlns="http://www.w3.org/2000/svg" xmlns:xlink="http://www.w3.org/1999/xlink" version="1.1" id="Layer_1" x="0px" y="0px" width="100px" height="100px" viewBox="0 0 100 100" enable-background="new 0 0 100 100" xml:space="preserve">
<g>
	<path d="M50.175,99.854c13.593,0.42,21.428-11.871,22.221-14.706c1.467-5.399,0.773-11.531,0.773-11.531   c-3.662-0.448-4.679,8.879-4.679,8.879H50.175H31.861c0,0-1.017-9.327-4.68-8.879c0,0-0.692,6.132,0.793,11.531   C28.768,87.983,36.582,100.274,50.175,99.854z"/>
	<path d="M35.646,76.168c0,0,0.407-6.573-9.95-7.203c-10.378-0.632-8.039-6.975-8.039-15.649c0,0-6.349-11.009-6.125-19.261   c0.203-8.251,9.808-34.481,38.643-34.064c28.836-0.417,38.44,25.812,38.664,34.064c0.203,8.252-6.146,19.261-6.146,19.261   c0,8.675,2.341,15.018-8.036,15.649c-10.359,0.63-9.932,7.203-9.932,7.203h-14.55H35.646z M41.893,65.396   c1.058,4.518,5.515,0.679,8.282,0.679c2.768,0,7.225,3.839,8.282-0.679c1.079-4.53-6.125-10.289-8.282-10.289   C48.018,55.106,40.835,60.865,41.893,65.396z M35.117,53.854c9.91,0.233,8.079-10.226,8.079-10.226   c-5.393-4.772-16.178-1.516-16.178-1.516S25.187,53.621,35.117,53.854z M73.333,42.113c0,0-10.785-3.256-16.178,1.516   c0,0-1.832,10.459,8.099,10.226C75.164,53.621,73.333,42.113,73.333,42.113z"/>
</g>
</svg>