<svg xmlns="http://www.w3.org/2000/svg" xmlns:xlink="http://www.w3.org/1999/xlink" version="1.1" id="Layer_1" x="0px" y="0px" width="100px" height="100px" viewBox="0 0 100 100" enable-background="new 0 0 100 100" xml:space="preserve">
<path d="M8.771,75.001c1.807-0.595,3.116-2.298,3.116-4.303V13.819h78.94c5.057,0,9.173,4.116,9.173,9.173V68.89  c0,5.055-4.116,9.171-9.173,9.171H7.361C3.302,78.061,0,74.757,0,70.698V13.819h2.836v56.879c0,2.004,1.308,3.708,3.115,4.303  l-0.008,0.027V13.819h2.836v61.209L8.771,75.001z M92.125,27.764H20.023v5.671h72.102V27.764z M92.125,39H72.743v2.835h19.382V39z   M92.125,47.485H72.743v2.836h19.382V47.485z M92.125,55.971H72.743v2.836h19.382V55.971z M65.86,39H46.481v2.835H65.86V39z   M65.86,47.485H46.481v2.836H65.86V47.485z M65.86,55.971H46.481v2.836H65.86V55.971z M38.875,39H20.023v25.456h18.852V39z"/>
</svg>