<svg xmlns="http://www.w3.org/2000/svg" xmlns:xlink="http://www.w3.org/1999/xlink" version="1.1" id="Layer_1" x="0px" y="0px" width="100px" height="100px" viewBox="0 0 100 100" enable-background="new 0 0 100 100" xml:space="preserve">
<g>
	<g>
		<polygon points="45.5,62.693 -0.009,62.688 -0.006,55.898 45.506,55.898 45.5,55.906 45.506,47.17 64.665,47.168 64.665,72.215     45.504,72.258 45.504,62.727   "/>
		<path d="M68.144,42.387c0.008,1.852-1.199,3.343-2.688,3.335l-20.009-0.005c-1.487,0.011-2.691-1.476-2.684-3.335l0,0    c-0.003-1.843,1.192-3.343,2.684-3.334h20.017C66.94,39.039,68.146,40.539,68.144,42.387L68.144,42.387z"/>
		<path d="M68.181,77.191c0.004,1.854-1.199,3.344-2.688,3.334l-20.011-0.002c-1.488,0.008-2.691-1.479-2.685-3.338l0,0    c-0.002-1.844,1.194-3.344,2.685-3.338l20.015,0.006C66.974,73.842,68.183,75.342,68.181,77.191L68.181,77.191z"/>
		<path d="M36.826,85.195l0.004-3.654h38.498v3.654h2.771c1.482-0.006,2.684,1.494,2.68,3.346l0,0    c0.014,1.854-1.197,3.346-2.684,3.33H34.067c-1.485,0.01-2.691-1.477-2.683-3.336l0,0c0-1.846,1.198-3.346,2.683-3.34H36.826"/>
	</g>
	<polygon points="75.114,73.863 94.064,57.28 95.757,61.342  "/>
	<polygon points="76.088,75.332 100,67.434 99.978,71.832  "/>
	<polygon points="75.667,76.68 99.242,78.377 99.057,82.576  "/>
</g>
</svg>