<svg xmlns="http://www.w3.org/2000/svg" xmlns:xlink="http://www.w3.org/1999/xlink" version="1.1" id="Layer_1" x="0px" y="0px" width="51.724137931px" height="100px" viewBox="0 0 60.999 116.667" enable-background="new 0 0 60.999 116.667" xml:space="preserve">
<g>
	<g>
		<g>
			<path d="M48.106,22.028c0,0-28.016,0.2-38.15,10.074c0,0-10.065-16.122-0.816-26.204c0.385-0.42,14.277,3.421,21.441,1.362     c0,0,10.162-2.828,19.176-1.631"/>
		</g>
	</g>
	<g>
		<g>
			<path fill="#000000" d="M14.282,27.843C4.428,16.062,14.453,7.665,14.453,7.665l-4.327-0.74c0,0-8.697,6.952,0.354,23.585     L14.282,27.843z"/>
		</g>
	</g>
	<g>
		<g>
			<path d="M42.282,104.105c0,0-7.811,2.505-12.02,0.36c0,0,3.365-77.13,0-80.669c0,0,2.336-0.771,14.588-1.615     C44.851,22.181,34.175,61.378,42.282,104.105z"/>
		</g>
		<g>
			<path fill="none" stroke="#000000" d="M42.282,104.105c0,0-7.811,2.505-12.02,0.36c0,0,3.365-77.13,0-80.669     c0,0,2.336-0.771,14.588-1.615C44.851,22.181,34.175,61.378,42.282,104.105z"/>
		</g>
	</g>
</g>
</svg>