<svg xmlns="http://www.w3.org/2000/svg" xmlns:xlink="http://www.w3.org/1999/xlink" version="1.1" x="0px" y="0px" width="100px" height="100px" viewBox="0 0 100 100" enable-background="new 0 0 100 100" xml:space="preserve">
<g id="Background">
</g>
<g id="Guides">
</g>
<g id="Foreground">
	<path fill-rule="evenodd" clip-rule="evenodd" d="M9.169,44.657c-0.422-0.555-1.816-2.842-1.816-6.75   c0-7.607,5.119-12.77,10.329-12.77c2.459,0,3.684,0.422,4.185,0.532c1.176-1.423,15.371-19.675,38.69-19.675   c19.395,0,39.436,8.007,39.436,35.917c0,15.043-9.376,25.207-15.837,27.644c-2.795,1.055-3.2,3.028-3.202,4.602   c-0.001,1.603,0.212,5.215,0.588,7.998c0.186,1.375,2.323,2.196,3.695,4.14c1.373,1.945,2.118,3.231,2.359,5.223   c0.186,1.53,0,1.944-1.101,0.496c-1.111-1.46-3.385-5.06-8.49-5.06c-0.415,0-1.462-0.316-2.835,1.057   c-1.373,1.372-3.318,3.656-4.003,3.889c-0.94,0.319-2.975,2.173-3.775,3.431c-0.8,1.258-1.258,1.972-1.258,0.343   c0-1.605,0.066-2.833,1.944-5.262c1.891-2.444,3.083-3.866,3.431-4.232c-2.969,0.908-5.248,0.8-8.921,2.974   c-1.284,0.759-1.567,0.523-0.497-0.934c1.197-1.631,2.382-2.666,5.3-3.87c2.749-1.134,6.483-1.593,7.351-1.727   c0.806-0.124,1.673-1.157,1.876-3.117c0.154-1.479,0.518-6.142-0.19-7.854c-0.445-1.076-3.453-1.588-6.177-7.435   c-1.177,0.725-3.833,1.814-6.114,2.405c-1.059,0.273-1.312,3.834-1.436,6.403c-0.125,2.63,0.344,6.406,0.458,7.435   c0.114,1.03,0.334,1.61-0.867,2.189c-3.242,1.563-3.074,2.555-5.022,4.526c-1.638,1.657-2.214,2.941-2.481,3.587   c-0.429,1.037-0.664,0.439-0.653-0.504c0.017-1.581,0.259-3.623,1.145-5.238c-2.09,0.906-4.571,1.973-6.287,2.431   c-1.716,0.458-3.67,0.162-5.802,0.924c-1.777,0.635-1.845,0.803-2.76,1.146c-0.915,0.342-0.489-0.423,0.62-1.488   c0.994-0.956,4.578-2.759,6.522-3.331c1.944-0.572,4.306-1.916,4.737-2.169c-0.632-0.736-2.559-1.139-4.279-1.139   c-1.012,0-2.123,0.104-3.153,0.22c-0.876,0.097-1-0.212,0.442-1.165c1.561-1.03,4.815-1.005,6.418-1.005   c1.601,0,3.23,0.096,4.398,0.096c0.888,0,1.778-0.827,2.108-2.998c0.271-1.779,0.623-6.604,0.631-9.012   c-1.965-1.297-7.749-3.644-7.749-14.233c-2.602-5.093-5.935-6.019-9.397-6.019c-5.114,0-7.254,4.294-18.529,0.592   c-2.155-0.708-4.29-0.328-7.179,2.13C11.417,53.92,5.66,63.335,3.376,71.609c-1.359,4.921-2.075,9.82-2.703,9.82   c-0.917,0-0.736-4.134-0.438-6.264C1.832,63.77,5.756,52.03,9.169,44.657z"/>
</g>
<g id="frame">
</g>
</svg>