<svg xmlns="http://www.w3.org/2000/svg" xmlns:xlink="http://www.w3.org/1999/xlink" version="1.1" id="Layer_1" x="0px" y="0px" width="70.956px" height="100px" viewBox="0 0 70.956 100" enable-background="new 0 0 70.956 100" xml:space="preserve">
<path d="M70.956,35.477C70.956,15.915,55.04,0,35.478,0S0,15.915,0,35.477v17.049h2.706v36.952C2.706,95.378,17.101,100,35.479,100  c18.377,0,32.771-4.622,32.771-10.521V52.526h2.706V35.477z M35.509,45.829c-19.055,0-30.755-4.95-30.755-8.499H4.722  c0-3.55,11.701-8.5,30.757-8.5s30.756,4.95,30.756,8.5h0.031C66.266,40.878,54.564,45.829,35.509,45.829z M35.478,3.024  c17.362,0,31.582,13.704,32.413,30.863c-4.399-5.272-18.759-8.082-32.412-8.082c-13.654,0-28.015,2.81-32.414,8.083  C3.896,16.729,18.116,3.024,35.478,3.024z"/>
</svg>