<svg xmlns="http://www.w3.org/2000/svg" xmlns:xlink="http://www.w3.org/1999/xlink" version="1.1" id="Layer_1" x="0px" y="0px" width="100.0px" height="100px" viewBox="0 0 141.73 141.73" enable-background="new 0 0 141.73 141.73" xml:space="preserve">
<path fill="#000000" d="M55.75,14.125c-0.261,1.625-0.261,1.625-0.297,4.625c-0.586,0.586,22.104,4.475,31.297,23  c3.348,3.348-4.473,3.818-1.125,7.164c-3.303,3.193-9.684,9.125-12.605,11.941c-2.961,2.851-13.037,12.552-15.998,15.401  c-3.564,3.434-7.13,6.864-10.694,10.297c-6.169,5.942-12.338,11.883-18.507,17.822c-0.289,0.277-0.577,0.557-0.865,0.834  c-0.795,0.766-0.802,2.059-0.071,2.789c1.163,1.163,1.693,1.691,2.856,2.855c1.164,1.164,1.693,1.693,2.857,2.856  c0.729,0.729,2.024,0.724,2.789-0.071c0.278-0.287,0.555-0.576,0.833-0.863c5.94-6.17,11.881-12.34,17.821-18.51  c3.385-3.515,6.77-7.029,10.154-10.545c2.803-2.914,12.743-13.234,15.546-16.146c2.813-2.923,9.064-9.147,12.259-12.45  c0.965,0.964,0.535,0.285,1.5,1.25c2.395-0.593,3.056-3.347,5.625-2.375c4.31,1.626,9.5,7.375,14,13.375  c0.663,0.251,11.188,19.029,11.5,18.625c-5.292-32.001-21.797-42.274-21.797-42.274c-0.001,0-0.002-0.002-0.004-0.004  c0.873-0.896,1.746-1.793,2.619-2.69c0.404-0.413,0.432-1.067,0.039-1.461c-1.485-1.484-2.971-2.969-4.457-4.455  c-0.393-0.392-1.047-0.365-1.461,0.037c-0.896,0.872-1.795,1.747-2.69,2.621c-0.001-0.001-0.001-0.002-0.002-0.003  C89.577,26.542,55.75,14.125,55.75,14.125z"/>
</svg>