<?xml version="1.0" encoding="utf-8"?>
<!-- Generator: Adobe Illustrator 15.1.0, SVG Export Plug-In . SVG Version: 6.00 Build 0)  -->
<!DOCTYPE svg PUBLIC "-//W3C//DTD SVG 1.1//EN" "http://www.w3.org/Graphics/SVG/1.1/DTD/svg11.dtd">
<svg version="1.1" id="Layer_1" xmlns="http://www.w3.org/2000/svg" xmlns:xlink="http://www.w3.org/1999/xlink" x="0px" y="0px"
	 width="100px" height="78.84px" viewBox="0 0 100 78.84" enable-background="new 0 0 100 78.84" xml:space="preserve">
<path d="M71.703,48.742C66.127,43.211,58.457,39.787,50,39.787c-8.457,0-16.127,3.424-21.703,8.955
	c-0.059,0.059-0.118,0.117-0.176,0.176l7.032,7.033c0.058-0.059,0.117-0.119,0.176-0.176c3.775-3.732,8.957-6.041,14.671-6.041
	c5.715,0,10.896,2.309,14.672,6.041c0.059,0.057,0.117,0.117,0.176,0.176l7.031-7.033C71.82,48.859,71.762,48.801,71.703,48.742z"/>
<path d="M85.764,34.683C76.586,25.548,63.941,19.894,50,19.894s-26.585,5.655-35.764,14.789c-0.059,0.058-0.118,0.117-0.176,0.176
	l7.03,7.03c0.058-0.059,0.117-0.117,0.176-0.176C28.644,34.379,38.801,29.84,50,29.84c11.199,0,21.355,4.539,28.733,11.873
	c0.059,0.059,0.118,0.117,0.176,0.176l7.03-7.03C85.881,34.8,85.822,34.741,85.764,34.683z"/>
<path d="M99.824,20.622C87.043,7.886,69.426,0,50,0S12.957,7.886,0.176,20.622C0.118,20.681,0.059,20.74,0,20.798l7.03,7.03
	c0.059-0.059,0.117-0.117,0.176-0.176C18.186,16.717,33.316,9.947,50,9.947s31.814,6.771,42.794,17.706
	c0.059,0.059,0.117,0.117,0.176,0.176l7.03-7.03C99.941,20.74,99.883,20.681,99.824,20.622z"/>
<circle cx="50.059" cy="70.84" r="8"/>
</svg>
