<svg xmlns="http://www.w3.org/2000/svg" xmlns:xlink="http://www.w3.org/1999/xlink" version="1.1" id="Layer_1" x="0px" y="0px" width="99.999px" height="37.964px" viewBox="0 0 99.999 37.964" enable-background="new 0 0 99.999 37.964" xml:space="preserve">
<path fill-rule="evenodd" clip-rule="evenodd" d="M98.007,25.92c0.026-0.401,0.134-0.964-0.348-1.285  c-0.295-0.106-0.67,0.055-1.071,0.269c-0.106-0.107-0.294-0.269-0.294-0.269s0.188-0.749-0.188-1.123  c-0.375-0.375-1.018-0.055-1.124,0.16c-0.16,0-0.295-0.215-0.295-0.215s0.188-0.535-0.24-1.017s-1.124,0.054-1.124,0.054  l-0.295-0.214c0,0,0.045-0.717-0.24-0.99c-0.223-0.214-0.695-0.349-1.07,0.053c-0.188-0.187-0.429-0.294-0.429-0.294  s0.268-0.642-0.241-1.07c-0.508-0.428-1.098,0.134-1.098,0.134l-0.32-0.294c0,0,0.348-0.723-0.268-1.124  c-0.616-0.401-1.07,0.161-1.07,0.161l-0.295-0.188c0,0,0.295-0.749-0.188-1.07c-0.481-0.321-1.124,0.134-1.124,0.134l-1.07-0.83  c0,0-0.214,0.027-0.268,0.188c-0.054,0.161-1.005,2.026-2.871,1.827c-0.077-0.092-0.092,0.019-0.092,0.019h-0.44v-0.159  l-38.815-0.643c0,0-1.614,0.046-2.348-2.952c-0.092-0.275-0.501-2.049-2.428-1.805c-1.928,0.245-8.242,1.208-9.343,1.193  s-1.834-0.397-3.716-1.438C23.413,12.091,1.009,0.056,1.009,0.056S0.138-0.251,0,0.575c0,0,0.214,16.325,12.043,35.755  c0.321,0.415,0.642,0.724,1.686,0.375c1.044-0.348,11.214-3.987,14.051-4.978c0.214-0.08,1.044-0.161,1.874,0.08  s18.921,6.156,18.921,6.156s2.167,0.401,1.686-1.928c-0.696-1.659-7.52-7.788-7.949-8.966c-0.08-0.91,0.562-2.087,1.552-2.408  c0.348-0.054,1.178-0.455,1.392-0.643c0.214-0.214,1.07-0.321,1.231-0.321s36.077-0.455,36.077-0.455s0.535-0.026,0.884,0.161  c0.347,0.188,1.525,0.642,2.782,0.99c1.259,0.348,4.711,1.525,6.264,2.409c1.552,0.882,4.067,2.302,5.727,3.772  c0.295,0.188,1.07,0.509,1.739-0.642C100.067,29.693,100.094,27.74,98.007,25.92z M12.327,27.92c-0.692,0-1.254-0.562-1.254-1.255  c0-0.692,0.562-1.254,1.254-1.254s1.254,0.562,1.254,1.254C13.581,27.358,13.019,27.92,12.327,27.92z M16.823,29.525  c-0.693,0-1.254-0.562-1.254-1.255c0-0.691,0.562-1.253,1.254-1.253s1.254,0.562,1.254,1.253  C18.077,28.964,17.516,29.525,16.823,29.525z M21.212,31.024c-0.693,0-1.254-0.562-1.254-1.255c0-0.692,0.561-1.254,1.254-1.254  c0.692,0,1.254,0.562,1.254,1.254C22.466,30.463,21.904,31.024,21.212,31.024z M86.516,19.686c-0.266-0.004-0.478-0.224-0.474-0.49  c0.005-0.266,0.225-0.478,0.49-0.473s0.478,0.224,0.474,0.49C87.001,19.479,86.781,19.69,86.516,19.686z M88.208,20.893  c-0.266-0.004-0.478-0.225-0.474-0.49c0.005-0.266,0.225-0.478,0.49-0.473s0.478,0.224,0.474,0.49  C88.693,20.685,88.474,20.897,88.208,20.893z M89.795,21.991c-0.267-0.005-0.478-0.225-0.474-0.49  c0.005-0.266,0.225-0.479,0.49-0.474s0.478,0.225,0.473,0.49C90.28,21.784,90.061,21.996,89.795,21.991z M91.486,23.198  c-0.266-0.005-0.477-0.225-0.473-0.49c0.005-0.266,0.224-0.478,0.489-0.474c0.267,0.005,0.479,0.225,0.474,0.49  C91.973,22.99,91.753,23.202,91.486,23.198z M93.179,24.405c-0.266-0.005-0.477-0.224-0.473-0.49  c0.005-0.266,0.224-0.479,0.489-0.474c0.267,0.005,0.479,0.225,0.474,0.49C93.665,24.197,93.445,24.41,93.179,24.405z   M94.871,25.612c-0.267-0.005-0.478-0.225-0.474-0.49c0.006-0.266,0.225-0.478,0.49-0.474c0.267,0.005,0.479,0.225,0.474,0.49  C95.357,25.404,95.138,25.616,94.871,25.612z M96.563,26.819c-0.267-0.005-0.478-0.224-0.474-0.49  c0.005-0.266,0.224-0.479,0.49-0.474c0.266,0.005,0.478,0.225,0.473,0.49C97.049,26.612,96.829,26.824,96.563,26.819z"/>
</svg>