<svg xmlns="http://www.w3.org/2000/svg" xmlns:xlink="http://www.w3.org/1999/xlink" version="1.1" id="Layer_1" x="0px" y="0px" width="100px" height="100px" viewBox="0 0 100 100" enable-background="new 0 0 100 100" xml:space="preserve">
<path d="M84.942,45.42c-0.364-0.234-0.776-0.33-1.18-0.302c-2.7,3.311-10.007,10.592-22.025,10.592  c-0.691,0-1.252-0.561-1.252-1.253c0-0.693,0.561-1.254,1.252-1.254c11.282,0,18.156-7.273,20.34-10.005  c0.044-0.625,0.188-1.132-0.517-1.889c-1.041-1.117-2.955-0.951-2.955-0.951c-0.002,0.003-0.021-7.771-0.021-7.771  c0-9.742-5.186-18.27-12.945-22.982v16.438c0,0.693-0.561,1.253-1.251,1.253s-1.251-0.561-1.251-1.253V7.56  c0-0.615-0.499-1.114-1.112-1.114c-0.54,0-0.991,0.385-1.092,0.898c-0.009-0.004-0.028,23.191-0.028,23.191l3.886,3.884  c0.488,0.489,0.488,1.282,0,1.77c-0.49,0.491-1.283,0.491-1.771,0l-4.251-4.249c-0.234-0.234-0.366-0.553-0.366-0.885V19.819  c0-0.009,0.002-0.017,0.002-0.024V4.457c0-0.614-0.498-1.112-1.111-1.112H45.584c-0.616,0-1.114,0.498-1.114,1.112v15.339  c0,0.007,0.004,0.015,0.004,0.024v11.237c0,0.332-0.132,0.65-0.367,0.885l-4.25,4.249c-0.489,0.491-1.282,0.491-1.771,0  c-0.489-0.488-0.489-1.281,0-1.77l3.882-3.884c0,0-0.019-23.195-0.025-23.191c-0.101-0.513-0.55-0.898-1.092-0.898  c-0.615,0-1.114,0.499-1.114,1.114l0.003,18.483c0,0.693-0.561,1.253-1.253,1.253c-0.69,0-1.251-0.561-1.251-1.253V9.605  c-7.759,4.712-12.944,13.24-12.944,22.982c0,0-0.018,7.774-0.021,7.771c0,0-1.915-0.167-2.958,0.951  c-0.702,0.757-0.561,1.265-0.517,1.889c2.186,2.732,9.06,10.005,20.34,10.005c0.693,0,1.253,0.561,1.253,1.254  c0,0.692-0.561,1.253-1.253,1.253c-12.019,0-19.326-7.281-22.026-10.592c-0.399-0.027-0.813,0.068-1.178,0.302  c-0.905,0.579-1.169,1.785-0.588,2.69c0.174,0.273,2.486,3.8,6.966,7.038c-0.029,0.13-0.048,0.266-0.048,0.404v10.124  c0,0.489,0.194,0.959,0.541,1.303c0.347,0.344,0.815,0.538,1.303,0.538h2.624v3.911c-0.002,6.598,2.367,12.53,6.668,16.704  c4.146,4.023,9.843,6.238,16.038,6.238c6.199,0,11.896-2.215,16.042-6.238c4.301-4.174,6.671-10.106,6.671-16.704v-3.911h2.621  c0.489,0,0.958-0.194,1.303-0.538s0.538-0.813,0.538-1.303V55.552c0-0.139-0.014-0.274-0.045-0.404  c4.479-3.237,6.792-6.765,6.966-7.038C86.112,47.205,85.849,45.999,84.942,45.42z M72.305,63.834c-0.489,0-0.959,0.194-1.305,0.539  c-0.345,0.345-0.538,0.813-0.538,1.303v5.754c0.002,5.672-1.919,10.532-5.552,14.057c-3.454,3.353-8.238,5.199-13.475,5.199  c-5.232,0-10.018-1.847-13.473-5.199c-3.631-3.524-5.552-8.385-5.552-14.057l0.002-5.754c0-0.489-0.194-0.958-0.541-1.303  c-0.345-0.345-0.813-0.539-1.301-0.539h-2.624v-6.435c3.517,1.837,7.908,3.211,13.188,3.211h20.602c5.28,0,9.673-1.374,13.188-3.211  l0.002,6.435H72.305z"/>
</svg>