<svg xmlns="http://www.w3.org/2000/svg" xmlns:xlink="http://www.w3.org/1999/xlink" version="1.1" id="Layer_1" x="0px" y="0px" width="100px" height="100px" viewBox="0 0 100 100" enable-background="new 0 0 100 100" xml:space="preserve">
<g>
	<path fill="#000000" d="M75.132,54.237c1.607-9.476-2.288-19.452-10.776-25.174c-8.488-5.722-19.197-5.591-27.378-0.548   c-14.621-6.995-26.376-9.164-29.453-4.599C3.7,29.589,14.542,43.79,32.487,57.548c0.028,0.021,0.055,0.042,0.083,0.063   c0.593,0.454,1.195,0.907,1.803,1.36c0.083,0.062,0.166,0.125,0.25,0.188c0.546,0.404,1.1,0.808,1.658,1.211   c0.148,0.107,0.293,0.215,0.442,0.322c0.528,0.379,1.064,0.756,1.602,1.133c0.177,0.124,0.35,0.249,0.528,0.373   c0.713,0.497,1.435,0.991,2.165,1.483c0.732,0.493,1.463,0.978,2.192,1.454c0.144,0.094,0.286,0.183,0.429,0.276   c0.592,0.384,1.183,0.765,1.773,1.138c0.118,0.074,0.234,0.146,0.352,0.219c0.618,0.389,1.235,0.772,1.85,1.148   c0.078,0.047,0.155,0.093,0.233,0.14c0.657,0.4,1.313,0.794,1.966,1.18c0.031,0.018,0.062,0.035,0.092,0.053   c19.483,11.476,36.713,16.199,40.538,10.526C93.52,75.25,87.1,65.167,75.132,54.237z M21.145,31.439   c1.19-1.766,5.329-1.304,11.088,0.865c-1.063,1.085-2.048,2.275-2.928,3.581c-1.248,1.852-2.209,3.81-2.91,5.824   C22.021,37.038,19.927,33.246,21.145,31.439z M78.359,70.012c-1.218,1.807-5.519,1.286-11.488-1.015   c1.604-1.405,3.059-3.031,4.307-4.883c0.88-1.305,1.614-2.664,2.221-4.058C77.569,64.582,79.55,68.246,78.359,70.012z"/>
	<path fill="#000000" d="M25.25,53.613c0.985,6.802,4.728,13.179,10.876,17.323c6.148,4.145,13.463,5.223,20.138,3.585   c-5.164-2.679-10.601-5.899-16.086-9.597C34.694,61.228,29.67,57.395,25.25,53.613z"/>
</g>
</svg>