<svg xmlns="http://www.w3.org/2000/svg" xmlns:xlink="http://www.w3.org/1999/xlink" version="1.1" id="Layer_1" x="0px" y="0px" width="100px" height="100px" viewBox="0 0 100 100" enable-background="new 0 0 100 100" xml:space="preserve">
<path d="M45.847,77.692c2.001-6.346,3.451-6.851,7.231-9.594c3.78-2.741,3.83-4.952,4.058-8.127  c0.229-3.175-4.732-8.845-4.732-8.845s22.795-25.514,23.598-26.469c0.806-0.956,3.61-0.785,3.61-0.785s0.338-1.027,1.233-2.514  l0.231,0.211c-0.119,0.286-0.033,0.653,0.243,0.905c0.339,0.312,0.828,0.327,1.094,0.039c0.266-0.29,0.205-0.776-0.134-1.086  c-0.275-0.252-0.651-0.307-0.924-0.163L81.065,21c0.367-0.581,0.815-1.219,1.354-1.887c0.129-0.161,0.26-0.314,0.395-0.463  l0.509,0.468c-0.119,0.284-0.031,0.651,0.244,0.905c0.34,0.31,0.828,0.327,1.095,0.037c0.264-0.29,0.203-0.776-0.135-1.086  c-0.275-0.252-0.65-0.307-0.924-0.164l-0.504-0.462c0.736-0.76,1.515-1.37,2.208-1.833l0.395,0.363  c-0.119,0.284-0.031,0.652,0.245,0.905c0.339,0.31,0.828,0.327,1.094,0.037c0.264-0.29,0.203-0.776-0.136-1.086  c-0.275-0.252-0.649-0.307-0.922-0.164l-0.314-0.289c0.999-0.627,1.736-0.922,1.736-0.922l-0.021-3.826l-1.578-0.74L84.93,9.287  l-3.813,0.314c0,0-0.229,0.762-0.767,1.813l-0.499-0.458c0.119-0.284,0.031-0.653-0.245-0.905c-0.339-0.31-0.828-0.327-1.094-0.037  c-0.264,0.29-0.203,0.776,0.135,1.086c0.276,0.252,0.648,0.307,0.923,0.164l0.58,0.531c-0.399,0.73-0.938,1.56-1.632,2.36  l-0.484-0.443c0.12-0.286,0.033-0.653-0.244-0.905c-0.339-0.31-0.829-0.327-1.093-0.037c-0.265,0.288-0.204,0.774,0.135,1.086  c0.275,0.252,0.648,0.307,0.922,0.164l0.489,0.448c-0.136,0.146-0.278,0.291-0.425,0.433c-0.618,0.595-1.215,1.096-1.762,1.514  l-0.27-0.247c0.119-0.285,0.031-0.653-0.244-0.905c-0.338-0.311-0.829-0.327-1.093-0.037c-0.266,0.289-0.205,0.775,0.134,1.084  c0.276,0.252,0.649,0.309,0.922,0.164l0.213,0.194c-1.403,1.021-2.396,1.45-2.396,1.45s0.417,2.778-0.464,3.663  c-0.881,0.885-24.29,25.838-24.29,25.838s-6.084-4.441-9.226-3.935c-3.143,0.506-5.34,0.75-7.739,4.757s-2.775,5.496-8.918,8.049  c-6.144,2.552-12.146,4.95-13.754,8.555c-1.607,3.604-4.855,10.076,7.57,21.452c12.425,11.375,18.586,7.57,22.035,5.65  C41.984,90.227,43.845,84.036,45.847,77.692z M44.186,56.255c1.727,1.582,1.846,4.265,0.264,5.993  c-1.583,1.729-4.265,1.847-5.994,0.265c-1.728-1.581-1.847-4.266-0.264-5.994C39.774,54.791,42.457,54.672,44.186,56.255z   M33.566,77.093l-3.987-3.651l-1.228-1.123l-3.988-3.651l1.685-1.841l2.515,1.95l0.651-0.25l1.419,1.3l1.228,1.122l1.419,1.3  l-0.192,0.671l2.164,2.333L33.566,77.093z"/>
</svg>