<svg xmlns="http://www.w3.org/2000/svg" xmlns:xlink="http://www.w3.org/1999/xlink" version="1.1" id="Layer_1" x="0px" y="0px" width="100px" height="100px" viewBox="0 0 100 100" enable-background="new 0 0 100 100" xml:space="preserve">
<g>
	<path fill-rule="evenodd" clip-rule="evenodd" d="M93.549,1.782c0.315,1.533-2.35,4.704-5.86,7.475   c-1.684,1.328-4.138,3.168-6.952,5.24c0.143-1.099,0.3-2.376,0.386-3.299c0.026-0.282,0.047-0.542,0.062-0.782   c1.895-0.94,3.662-1.945,5.036-3.029c4.938-3.896,4.592-6.83,5.03-7.176C91.689-0.136,93.234,0.248,93.549,1.782z M78.159,22.433   l-6.948-2.362c0.644-1.699,1.236-3.349,1.768-4.939c1.863-5.567,2.836-9.231,5.109-8.847c2.468,0.417,2.086,4.284,1.081,10.524   C78.884,18.581,78.555,20.453,78.159,22.433z M77.09,13.52c-0.887-0.474-1.989-0.137-2.462,0.752   c-0.474,0.89-0.138,1.996,0.75,2.47c0.888,0.475,1.99,0.138,2.463-0.752C78.314,15.1,77.979,13.994,77.09,13.52z M68.488,23.368   c-6.963,4.988-12.919,9.189-12.919,9.189s0.671,0.855,1.175,1.498c1.08,1.375,0.101,4.608-1.687,6.279   c-2.038,1.905-14.56,11.771-23.127,18.519c-8.71,6.858-17.807,13.727-17.807,13.727s-3.382-4.311-4.677-5.961   c-1.295-1.65-0.951-3.854,0.97-5.368c1.28-1.01,39.782-31.385,41.794-32.972c5.854-4.618,14.078-10.514,18.133-12.82   c0.421-0.24,0.889-0.485,1.393-0.733c-0.148,0.429-0.312,0.891-0.488,1.38C70.364,18.544,69.187,21.584,68.488,23.368z    M51.416,31.005c0,0-38.812,30.619-40.121,31.652c-1.308,1.032-1.405,2.258-0.632,3.243c-0.024-1.044,0.353-2.138,1.007-2.654   c0.654-0.516,37.503-29.587,38.43-30.318c1.526-1.204,3.16,0.427,3.16,0.427L51.416,31.005z M35.219,88.263   c0.251-0.364,0.52-0.759,0.799-1.178l9.363,6.229c-0.639,0.865-1.242,1.64-1.802,2.311c-4.194,5.021-8.132,5.307-10.315,3.322   C30.807,96.712,31.532,93.607,35.219,88.263z M36.136,96.521c0.887,0.474,1.99,0.137,2.463-0.752   c0.473-0.891,0.137-1.996-0.75-2.471s-1.99-0.138-2.463,0.753C34.912,94.94,35.249,96.046,36.136,96.521z M37.631,84.625   l9.456,6.291c-0.436,0.633-0.859,1.232-1.269,1.8l-9.39-6.247C36.809,85.895,37.21,85.278,37.631,84.625z M39.229,82.112   l9.516,6.33c-0.421,0.645-0.836,1.268-1.24,1.861l-9.473-6.303C38.417,83.399,38.817,82.769,39.229,82.112z M54.403,55.902   c5.443-10.239,10.475-20.468,14.328-29.636l7.954,2.704c-2.434,9.66-6.575,21.496-14.304,36.034   c-4.429,8.332-9.186,16.584-13.231,22.818l-9.527-6.338C44.012,74.46,49.698,64.754,54.403,55.902z M69.854,23.54l7.521,2.557   c-0.161,0.705-0.331,1.422-0.511,2.152l-7.847-2.667C69.305,24.894,69.583,24.214,69.854,23.54z M70.948,20.765l7.063,2.401   c-0.147,0.72-0.305,1.455-0.471,2.203l-7.409-2.518C70.411,22.147,70.685,21.452,70.948,20.765z"/>
</g>
</svg>