<svg xmlns="http://www.w3.org/2000/svg" xmlns:xlink="http://www.w3.org/1999/xlink" version="1.1" id="Layer_1" x="0px" y="0px" width="100px" height="100px" viewBox="0 0 100 100" enable-background="new 0 0 100 100" xml:space="preserve">
<path d="M73.165,20.854C73.165,7.164,63.968,0,50.278,0S27.39,7.164,27.39,20.854h0l-4.069,46.008  c0,12.684,20.555,33.139,27.09,33.139s26.823-20.54,26.823-33.224L73.165,20.854z M50.278,58.491c-3.596,0-6.482-0.612-8.753-1.806  c0.933-2.486,4.621-4.465,8.753-4.465c4.133,0,7.82,1.979,8.753,4.465C56.761,57.879,53.873,58.491,50.278,58.491z M66,21  c0,2,0,13.629,0,19.69c0,4.829-0.739,8.725-2.455,11.636c-2.551-3.693-7.537-6.209-13.278-6.209c-5.74,0-10.49,2.517-13.04,6.209  C35.511,49.415,35,45.519,35,40.69C35,30.731,35,23,35,21h-4.559c0-12,8.404-17.802,19.836-17.802C61.709,3.198,70.113,9,70.113,21  H66z"/>
</svg>