<svg xmlns="http://www.w3.org/2000/svg" xmlns:xlink="http://www.w3.org/1999/xlink" version="1.1" id="Layer_1" x="0px" y="0px" width="100px" height="100px" viewBox="0 0 100 100" enable-background="new 0 0 100 100" xml:space="preserve">
<g>
	<path fill="#000000" d="M38.799,82.146C9.552,82.146,0,57.992,0,49.672c0-6.721,6.399-31.817,37.713-31.817l1.146,0.013   C57.307,18.228,57.52,30.062,57.52,30.18v38.75C57.52,74.24,52.529,82.146,38.799,82.146L38.799,82.146z M37.713,23.78   c-29.922,0-31.791,25.634-31.791,25.892c0,3.48,6.13,26.553,32.877,26.553c10.443,0,12.795-5.402,12.795-7.295v-38.75   c0-0.052-0.545-6.149-12.852-6.388L37.713,23.78L37.713,23.78z"/>
</g>
<g>
	<path fill="#000000" d="M97.037,34.453H72.635c-1.635,0-2.963-1.326-2.963-2.962c0-1.636,1.328-2.959,2.963-2.959h24.402   c1.635,0,2.963,1.323,2.963,2.959C100,33.127,98.672,34.453,97.037,34.453L97.037,34.453z"/>
</g>
<g>
	<path fill="#000000" d="M97.037,71.471H72.635c-1.635,0-2.963-1.326-2.963-2.963c0-1.635,1.328-2.961,2.963-2.961h24.402   c1.635,0,2.963,1.326,2.963,2.961C100,70.145,98.672,71.471,97.037,71.471L97.037,71.471z"/>
</g>
<g>
	<path fill="#000000" d="M97.037,52.961H72.635c-1.635,0-2.963-1.326-2.963-2.961c0-1.638,1.328-2.963,2.963-2.963h24.402   c1.635,0,2.963,1.325,2.963,2.963C100,51.635,98.672,52.961,97.037,52.961L97.037,52.961z"/>
</g>
</svg>