<svg xmlns="http://www.w3.org/2000/svg" xmlns:xlink="http://www.w3.org/1999/xlink" version="1.1" id="Layer_1" x="0px" y="0px" width="100px" height="100px" viewBox="0 0 100 100" enable-background="new 0 0 100 100" xml:space="preserve">
<path fill="#000000" d="M80.075,23.807c2.954,0,6.146,2.523,6.833,5.389L97.16,72.062c0.278,1.166,0.105,2.219-0.485,2.968  c-0.593,0.752-1.578,1.162-2.772,1.162H7.68c-2.741,0-4.972-2.227-4.972-4.969V28.779c0-2.741,2.23-4.972,4.972-4.972H80.075   M80.075,21.097H7.68c-4.223,0-7.68,3.455-7.68,7.682v42.444c0,4.224,3.457,7.681,7.68,7.681h86.222c4.223,0,6.875-3.363,5.894-7.47  L89.544,28.57C88.562,24.458,84.301,21.097,80.075,21.097L80.075,21.097z"/>
<polygon fill="#000000" points="52.374,39.388 45.025,31.79 37.677,39.388 41.752,39.388 41.752,45.485 48.299,45.485   48.299,39.388 "/>
<path fill="#000000" d="M83.563,57.469c-0.982-4.104-5.242-7.468-9.466-7.468H4.966v21.222c0,1.494,1.219,2.711,2.714,2.711h79.823  L83.563,57.469z M45.025,69.113l-7.349-7.595h4.075v-6.101h6.547v6.101h4.075L45.025,69.113z"/>
</svg>