<svg xmlns="http://www.w3.org/2000/svg" xmlns:xlink="http://www.w3.org/1999/xlink" version="1.1" id="Layer_1" x="0px" y="0px" width="100px" height="100px" viewBox="0 0 100 100" enable-background="new 0 0 100 100" xml:space="preserve">
<g>
	<path d="M2.874,80.053C1.846,81.555,1.323,83.07,1.323,85.1c2.86,3.219,8.729,5.209,14.633,5.158h0.002   c6.825,0.029,11.772-1.738,14.633-4.958c0-2.022-0.52-3.664-1.541-5.211c-2.312,1.968-5.992,4.3-12.04,4.3   C10.161,84.389,5.361,81.818,2.874,80.053z"/>
	<path d="M9.264,47.025L9.268,38.9c-0.005-0.238-0.008-0.439-0.008-0.641c0-0.002,0-0.002,0-0.003   c0.001-5.146,1.718-9.347,4.712-11.524c0.005-0.004,0.011-0.008,0.016-0.012c5.504-3.99,16.807-7.314,25.323-9.401   c0.001-0.001,0.004-0.001,0.005-0.001c3.189-0.783,6.525-1.525,9.914-2.205c0.521-0.104,1.037-0.207,1.55-0.307   c0.678-0.747,1.559-1.568,2.412-2.365c0.83-0.774,1.682-1.569,2.307-2.263c-0.457-0.157-1.066-0.196-1.83-0.196l-0.697,0.006   c-0.262,0.003-0.531,0.007-0.809,0.007c-2.606,0-17.996,3.249-24.323,4.915c-4.799,1.264-13.524,3.886-18.043,7.265   c-3.275,2.451-6.189,7.891-6.632,12.384c-0.2,2.021-0.721,7.305-0.073,9.016C4.379,44.612,6.456,46.008,9.264,47.025z"/>
	<path d="M30.899,24.846c0.324-0.62,0.918-1.039,1.867-1.32c1.168-0.342,3.035-0.859,4.979-1.398   c1.663-0.461,3.381-0.937,4.764-1.332c0.318-0.092,0.653,0.072,0.779,0.378c0.837,2.031,3.433,4.206,5.963,4.206   c0.287,0,0.57-0.029,0.838-0.086c2.758-0.59,4.581-2.234,6.139-3.923c1.387-1.504,0.969-4.927,0.631-7.678   c-0.064-0.532-0.127-1.046-0.176-1.526c-0.043-0.438-0.125-0.799-0.244-1.09c-0.664,0.732-1.523,1.535-2.363,2.316   c-0.895,0.836-1.818,1.699-2.469,2.44c-0.094,0.108-0.223,0.183-0.365,0.21c-0.578,0.111-1.165,0.227-1.757,0.346   c-3.396,0.684-6.712,1.422-9.861,2.192c0,0.001-0.002,0.001-0.004,0.001c-8.416,2.066-19.562,5.338-24.876,9.197   c-0.003,0.002-0.005,0.004-0.008,0.006c-2.654,1.93-4.176,5.746-4.176,10.472c0,0.19,0.002,0.381,0.008,0.571l-0.004,8.623   c1.875,0.551,4.029,0.914,6.447,0.914c6.68,0,10.143-1.341,12.629-2.676c1.569-2.156,2.113-5.282,2.535-8.305   c0.399-2.863-0.25-6.633-1.07-9.099C30.55,26.627,30.491,25.629,30.899,24.846z M29.745,33.138   c-0.125,0.04-0.256,0.061-0.389,0.061c-1.09,0-1.942-1.378-2.107-2.653c-0.141-1.094,0.287-1.91,1.12-2.129   c0.054-0.014,0.201-0.033,0.257-0.033c1.098,0,1.653,1.688,1.809,2.684C30.675,32.6,30.105,33.022,29.745,33.138z"/>
	<path d="M32.175,37.385c-0.422,3.022-0.966,6.148-2.535,8.305c-2.486,1.335-5.949,2.676-12.629,2.676   c-2.418,0-4.571-0.363-6.447-0.914l0.004-8.623c-0.005-0.19-0.008-0.381-0.008-0.571c0-4.726,1.522-8.542,4.176-10.472   c0.002-0.002,0.005-0.004,0.008-0.006c5.315-3.859,16.46-7.131,24.876-9.197c0.002,0,0.004,0,0.004-0.001   c3.148-0.771,6.465-1.509,9.861-2.192c0.593-0.119,1.179-0.234,1.757-0.346c0.143-0.027,0.271-0.102,0.365-0.21   c0.65-0.741,1.574-1.604,2.469-2.44c0.84-0.781,1.699-1.584,2.363-2.316c0.119,0.291,0.201,0.652,0.244,1.09   c0.049,0.48,0.111,0.994,0.176,1.526c0.338,2.751,0.756,6.174-0.631,7.678c-1.559,1.688-3.381,3.333-6.139,3.923   c-0.269,0.057-0.551,0.086-0.838,0.086c-2.53,0-5.126-2.175-5.963-4.206c-0.126-0.306-0.461-0.47-0.779-0.378   c-1.383,0.396-3.101,0.871-4.764,1.332c-1.943,0.539-3.811,1.057-4.979,1.398c-0.949,0.281-1.543,0.7-1.867,1.32   c-0.408,0.783-0.35,1.781,0.205,3.44C31.925,30.752,32.574,34.521,32.175,37.385z"/>
	<path d="M3.164,34.559c0.443-4.493,3.357-9.933,6.632-12.384c4.519-3.379,13.244-6.001,18.043-7.265   c6.327-1.666,21.717-4.915,24.323-4.915c0.277,0,0.547-0.003,0.809-0.007l0.697-0.006c0.764,0,1.373,0.039,1.83,0.196   c-0.625,0.694-1.477,1.489-2.307,2.263c-0.854,0.797-1.734,1.618-2.412,2.365c-0.513,0.1-1.029,0.202-1.55,0.307   c-3.389,0.68-6.725,1.422-9.914,2.205c-0.001,0-0.004,0-0.005,0.001c-8.517,2.087-19.819,5.411-25.323,9.401   c-0.005,0.004-0.011,0.008-0.016,0.012C10.978,28.91,9.26,33.11,9.259,38.257c0,0.001,0,0.001,0,0.003   c0,0.201,0.003,0.402,0.008,0.641l-0.004,8.125c-2.808-1.018-4.884-2.413-6.173-3.451C2.442,41.863,2.964,36.58,3.164,34.559z"/>
	<path d="M20.508,58.825c1.443,0,3.058-0.478,4.481-1.317c0.107-0.063,0.215-0.129,0.32-0.197   c2.201-1.423,34.214-16.019,38.509-17.859c0.236-0.1,0.447-0.18,0.666-0.253c0.002,0,0-0.001,0.004-0.001   c1.488-0.502,3.436-0.768,5.631-0.768c4.938,0,10.059,1.273,13.363,3.323c0.016,0.011,0.031,0.021,0.047,0.031   c0.002,0.001,0.004,0.003,0.006,0.005c0.988,0.648,2.131,0.963,3.445,0.963c1.619,0,3.404-0.48,5.027-1.353   c0.32-0.17,0.744-0.069,0.912,0.245c0.059,0.107,0.088,0.222,0.088,0.333c0,0.214-0.105,0.415-0.312,0.528   c-0.002,0.001-0.004,0.002-0.006,0.003c-1.879,1.009-3.881,1.543-5.709,1.544l0,0c-1.541,0-2.902-0.371-4.047-1.104   c-0.002-0.002-0.006-0.004-0.006-0.005c-0.043-0.026-0.084-0.054-0.125-0.082c-3.705-1.892-8.754-3.079-13.137-3.079   c-1.861,0-3.508,0.223-4.762,0.646c-0.002,0.001-0.004,0.001-0.008,0.003c-0.176,0.059-0.346,0.123-0.508,0.189   c-0.002,0.002-0.004,0.002-0.006,0.003c-0.008,0.003-0.016,0.007-0.023,0.011c-3.266,1.398-23.338,10.531-33.097,15.162   c-0.045,0.021-0.089,0.042-0.134,0.062c-0.487,0.232-0.949,0.453-1.38,0.659c-0.219,0.104-0.429,0.206-0.631,0.304   c-0.279,0.135-0.541,0.262-0.788,0.383c-0.339,0.165-0.647,0.316-0.921,0.453c-0.024,0.013-0.049,0.025-0.073,0.037   c-0.136,0.068-0.263,0.133-0.38,0.192c-0.061,0.031-0.119,0.062-0.174,0.09c-0.355,0.184-0.605,0.32-0.734,0.404   c-0.004,0.002-0.006,0.003-0.01,0.005c-1.736,1.113-3.738,1.738-5.529,1.738c0,0,0,0,0,0c-0.291,0-0.576-0.017-0.851-0.049   c-0.023,0.067-0.048,0.133-0.07,0.201c-0.047,0.142-0.093,0.284-0.138,0.428c-0.048,0.154-0.095,0.311-0.141,0.468   c-0.042,0.146-0.083,0.292-0.123,0.438c-0.043,0.16-0.084,0.321-0.124,0.482c-0.036,0.145-0.072,0.289-0.105,0.434   c-0.038,0.165-0.073,0.328-0.107,0.491c-0.029,0.14-0.059,0.278-0.085,0.416c-0.032,0.167-0.06,0.331-0.087,0.494   c-0.021,0.128-0.045,0.258-0.063,0.384c-0.025,0.168-0.044,0.33-0.064,0.491c-0.014,0.112-0.03,0.228-0.041,0.335   c-0.018,0.176-0.027,0.34-0.037,0.504c-0.005,0.082-0.014,0.172-0.017,0.252c-0.009,0.236-0.01,0.46,0,0.662   c0.09,1.816,0.628,1.816,0.984,1.816c0.334,0,0.777-0.1,1.354-0.303c1.775-0.627,6.165-2.592,8.512-3.76   c1.8-0.952,26.933-14.396,30.729-16.561c4.316-2.457,9.051-2.457,10.607-2.457c2.477,0,7.699,1.119,9.324,1.768   c1.701,0.683,2.629,2.154,2.734,3.351c1.238,0.979,3.803,2.435,8.174,2.435c3.746,0,5.6-1.061,6.99-2.254v-8.408   c0-2.508-0.568-3.002-4.678-4.068l-1.578-0.413c-4.645-1.224-13.291-3.499-17.541-3.637c-4.588-0.159-9.902,1.88-13.457,3.394   c-3.338,1.421-18.071,8.256-25.984,11.929c-2.249,1.044-3.917,1.817-4.562,2.114c-0.585,0.271-1.149,0.545-1.691,0.815   c-0.253,0.126-0.484,0.25-0.727,0.376c-0.279,0.145-0.57,0.289-0.836,0.433c-1.773,0.952-3.217,1.866-4.28,2.688   c-0.428,0.331-0.814,0.651-1.105,0.947c-0.203,0.206-0.37,0.401-0.501,0.587c-0.115,0.162-0.231,0.36-0.349,0.573   c-0.032,0.058-0.064,0.119-0.096,0.181c-0.099,0.19-0.198,0.396-0.297,0.619c-0.015,0.031-0.029,0.061-0.043,0.094   C20.261,58.822,20.384,58.825,20.508,58.825L20.508,58.825z"/>
	<path fill="#000000" d="M20.577,57.921c0.117-0.213,0.234-0.411,0.349-0.573C20.811,57.51,20.694,57.708,20.577,57.921z"/>
	<path fill="#000000" d="M19.186,61.611c0.04-0.146,0.081-0.293,0.123-0.438C19.267,61.318,19.225,61.464,19.186,61.611z"/>
	<path fill="#000000" d="M18.455,65.895c0.003-0.08,0.012-0.17,0.017-0.252C18.467,65.726,18.458,65.814,18.455,65.895z"/>
	<path fill="#000000" d="M21.427,56.761c0.291-0.296,0.677-0.616,1.105-0.947C22.104,56.145,21.717,56.465,21.427,56.761z"/>
	<path fill="#000000" d="M26.812,53.126c0.266-0.144,0.557-0.288,0.836-0.433C27.368,52.838,27.077,52.982,26.812,53.126z"/>
	<path fill="#000000" d="M20.184,58.721c0.099-0.223,0.198-0.429,0.297-0.619C20.382,58.293,20.283,58.498,20.184,58.721z"/>
	<path fill="#000000" d="M19.449,60.705c0.045-0.144,0.091-0.286,0.138-0.428C19.54,60.42,19.494,60.561,19.449,60.705z"/>
	<path fill="#000000" d="M18.509,65.139c0.011-0.107,0.027-0.223,0.041-0.335C18.536,64.916,18.52,65.031,18.509,65.139z"/>
	<path fill="#000000" d="M18.764,63.435c0.026-0.138,0.056-0.276,0.085-0.416C18.82,63.158,18.791,63.297,18.764,63.435z"/>
	<path fill="#000000" d="M18.614,64.312c0.019-0.126,0.042-0.256,0.063-0.384C18.656,64.058,18.633,64.187,18.614,64.312z"/>
	<path fill="#000000" d="M18.956,62.527c0.033-0.145,0.069-0.289,0.105-0.434C19.025,62.238,18.989,62.383,18.956,62.527z"/>
	<path d="M90.91,58.42c4.551,0,6.955-1.621,6.955-4.689v-1.246c-1.473,1.038-3.535,1.908-6.99,1.908   c-3.951,0-6.578-1.121-8.152-2.129v1.936C82.723,57.688,87.176,58.42,90.91,58.42z"/>
	<path d="M29.304,47.6c-2.551,1.23-6.104,2.346-12.293,2.346c-6.371,0-11.017-2.402-13.672-4.275L3.39,57.494   c0.041,9.095,0.086,19.179,0.09,21.395c0.055,0.04,0.118,0.083,0.176,0.124c0.004-0.005,0.008-0.011,0.013-0.017   c0.045,0.041,0.095,0.083,0.141,0.125c2.395,1.66,6.863,3.969,13.2,3.969c4.75,0,7.913-1.544,10.083-3.125   c0.412-0.324,0.797-0.648,1.15-0.969c0.012,0.014,0.02,0.026,0.031,0.039c0.068-0.059,0.148-0.121,0.215-0.179   c0.02-2.585,0.282-9.55,0.414-12.903c-0.047,0.022-0.101,0.047-0.148,0.07c-0.216,0.103-0.439,0.208-0.668,0.315   c-0.084,0.039-0.165,0.077-0.25,0.117c-0.269,0.125-0.543,0.252-0.822,0.38c-0.087,0.039-0.173,0.078-0.26,0.119   c-0.291,0.131-0.582,0.264-0.875,0.395c-0.066,0.029-0.131,0.059-0.197,0.088c-0.312,0.14-0.624,0.277-0.93,0.412   c-0.014,0.006-0.027,0.012-0.041,0.018c-0.312,0.137-0.615,0.268-0.912,0.395c-0.049,0.021-0.098,0.041-0.146,0.062   c-0.288,0.122-0.564,0.238-0.828,0.347c-0.047,0.02-0.093,0.038-0.139,0.058c-0.261,0.106-0.507,0.205-0.733,0.294   c-0.035,0.014-0.065,0.025-0.099,0.038c-0.23,0.09-0.445,0.171-0.627,0.234c-0.728,0.258-1.296,0.378-1.787,0.378   c-2.131,0-2.246-2.298-2.283-3.052c-0.092-1.854,0.521-5.01,1.458-7.503c0-0.001,0-0.001,0-0.001   c0.054-0.144,0.109-0.272,0.163-0.408c0.128-0.316,0.257-0.615,0.388-0.888c0.229-0.476,0.461-0.89,0.697-1.224   c0.1-0.141,0.213-0.283,0.338-0.427c0.042-0.048,0.092-0.097,0.137-0.146c0.088-0.096,0.174-0.191,0.272-0.287   c0.059-0.058,0.125-0.115,0.188-0.174c0.093-0.087,0.184-0.174,0.284-0.261c0.072-0.062,0.15-0.125,0.225-0.188   c0.099-0.083,0.197-0.165,0.302-0.247c0.083-0.065,0.17-0.131,0.255-0.195c0.105-0.08,0.209-0.159,0.318-0.238   c0.09-0.066,0.185-0.131,0.278-0.196c0.111-0.079,0.222-0.157,0.337-0.234c0.097-0.065,0.195-0.13,0.294-0.194   c0.116-0.077,0.232-0.153,0.351-0.229c0.102-0.065,0.205-0.129,0.308-0.193c0.12-0.075,0.239-0.149,0.36-0.223   c0.106-0.064,0.212-0.127,0.319-0.19c0.121-0.072,0.243-0.145,0.366-0.216c0.106-0.062,0.214-0.123,0.321-0.184   c0.123-0.07,0.246-0.139,0.369-0.208c0.109-0.062,0.219-0.121,0.328-0.181c0.121-0.066,0.242-0.132,0.362-0.196   c0.109-0.06,0.218-0.116,0.327-0.175c0.119-0.062,0.236-0.124,0.354-0.186c0.111-0.057,0.221-0.113,0.33-0.17   c0.111-0.057,0.223-0.113,0.332-0.169c0.11-0.056,0.219-0.109,0.326-0.163c0.105-0.053,0.208-0.104,0.311-0.154   c0.112-0.055,0.223-0.108,0.332-0.162c0.087-0.042,0.172-0.082,0.257-0.123c0.118-0.057,0.233-0.112,0.346-0.166   c0.024-0.012,0.051-0.023,0.075-0.035C29.202,49.773,29.255,48.712,29.304,47.6z"/>
	<path d="M27.093,79.965c0.43-0.313,0.826-0.625,1.182-0.93c-0.012-0.013-0.02-0.025-0.031-0.039   C27.89,79.316,27.505,79.641,27.093,79.965z"/>
	<path d="M3.657,79.013c0.051,0.036,0.102,0.071,0.154,0.108c-0.046-0.042-0.096-0.084-0.141-0.125   C3.665,79.002,3.661,79.008,3.657,79.013z"/>
	<path d="M21.953,69.022c0.226-0.089,0.473-0.188,0.733-0.294C22.425,68.835,22.179,68.934,21.953,69.022z"/>
	<path d="M27.845,51.129c-0.107,0.054-0.216,0.107-0.326,0.163C27.629,51.236,27.737,51.182,27.845,51.129z"/>
	<path d="M21.227,69.295c0.182-0.063,0.396-0.145,0.627-0.234C21.624,69.15,21.409,69.231,21.227,69.295z"/>
	<path d="M27.187,51.461c-0.109,0.057-0.219,0.113-0.33,0.17C26.967,51.574,27.077,51.518,27.187,51.461z"/>
	<path d="M22.825,68.671c0.264-0.108,0.54-0.225,0.828-0.347C23.365,68.446,23.089,68.562,22.825,68.671z"/>
	<path d="M20.338,56.025c-0.045,0.049-0.095,0.098-0.137,0.146C20.243,56.123,20.293,56.074,20.338,56.025z"/>
	<path d="M22.46,54.239c-0.093,0.065-0.188,0.13-0.278,0.196C22.272,54.369,22.367,54.305,22.46,54.239z"/>
	<path d="M29.09,50.523c-0.112,0.054-0.228,0.109-0.346,0.166C28.861,50.633,28.978,50.577,29.09,50.523z"/>
	<path d="M19.863,56.598c-0.235,0.334-0.468,0.748-0.697,1.224C19.395,57.346,19.628,56.932,19.863,56.598z"/>
	<path d="M21.864,54.674c-0.085,0.064-0.173,0.13-0.255,0.195C21.691,54.804,21.779,54.738,21.864,54.674z"/>
	<path d="M23.8,68.262c0.297-0.127,0.6-0.258,0.912-0.395C24.399,68.004,24.097,68.135,23.8,68.262z"/>
	<path d="M28.487,50.812c-0.109,0.054-0.22,0.107-0.332,0.162C28.267,50.92,28.378,50.865,28.487,50.812z"/>
	<path d="M20.61,55.738c0.059-0.058,0.125-0.115,0.188-0.174C20.735,55.623,20.669,55.681,20.61,55.738z"/>
	<path d="M18.615,59.118c0.054-0.144,0.109-0.272,0.164-0.409C18.724,58.845,18.669,58.974,18.615,59.118   C18.615,59.117,18.615,59.117,18.615,59.118z"/>
	<path d="M25.116,52.576c-0.107,0.061-0.215,0.122-0.321,0.184C24.901,52.698,25.009,52.637,25.116,52.576z"/>
	<path d="M28.087,66.339c0.229-0.107,0.452-0.213,0.668-0.315C28.539,66.126,28.316,66.231,28.087,66.339z"/>
	<path d="M25.813,52.188c-0.109,0.06-0.219,0.119-0.328,0.181C25.595,52.307,25.704,52.247,25.813,52.188z"/>
	<path d="M26.503,51.816c-0.109,0.059-0.218,0.115-0.327,0.175C26.285,51.932,26.394,51.875,26.503,51.816z"/>
	<path d="M23.749,53.389c-0.103,0.064-0.206,0.128-0.308,0.193C23.543,53.517,23.646,53.452,23.749,53.389z"/>
	<path d="M24.429,52.976c-0.107,0.063-0.213,0.126-0.319,0.19C24.216,53.102,24.321,53.039,24.429,52.976z"/>
	<path d="M24.753,67.85c0.306-0.135,0.617-0.272,0.93-0.412C25.37,67.576,25.059,67.715,24.753,67.85z"/>
	<path d="M23.091,53.811c-0.099,0.064-0.197,0.129-0.294,0.194C22.894,53.939,22.993,53.875,23.091,53.811z"/>
	<path d="M25.88,67.35c0.293-0.131,0.584-0.264,0.875-0.395C26.465,67.086,26.173,67.219,25.88,67.35z"/>
	<path d="M21.307,55.116c-0.075,0.062-0.153,0.125-0.225,0.188C21.154,55.241,21.232,55.179,21.307,55.116z"/>
	<path d="M27.015,66.836c0.279-0.128,0.554-0.255,0.822-0.38C27.569,66.58,27.294,66.708,27.015,66.836z"/>
	<path fill="#000000" d="M19.652,60.076c-0.023,0.065-0.043,0.135-0.065,0.201c0.022-0.068,0.047-0.134,0.07-0.201   C19.655,60.076,19.653,60.076,19.652,60.076z"/>
	<path fill="#000000" d="M20.139,58.814c0.001,0,0.001,0,0.002,0c0.015-0.033,0.029-0.062,0.043-0.094   C20.169,58.754,20.154,58.779,20.139,58.814z"/>
	<path fill="#000000" d="M18.456,66.557c-0.01-0.202-0.009-0.426,0-0.662C18.446,66.131,18.445,66.354,18.456,66.557z"/>
	<path fill="#000000" d="M19.062,62.094c0.04-0.161,0.081-0.322,0.124-0.482C19.142,61.772,19.102,61.932,19.062,62.094z"/>
	<path fill="#000000" d="M18.849,63.019c0.034-0.163,0.069-0.326,0.107-0.491C18.918,62.692,18.884,62.855,18.849,63.019z"/>
	<path fill="#000000" d="M18.472,65.643c0.01-0.164,0.02-0.328,0.037-0.504C18.492,65.314,18.482,65.479,18.472,65.643z"/>
	<path fill="#000000" d="M20.481,58.102c0.032-0.062,0.064-0.123,0.096-0.181C20.545,57.979,20.513,58.04,20.481,58.102z"/>
	<path fill="#000000" d="M18.677,63.929c0.027-0.163,0.055-0.327,0.087-0.494C18.732,63.602,18.705,63.766,18.677,63.929z"/>
	<path fill="#000000" d="M18.55,64.804c0.02-0.161,0.039-0.323,0.064-0.491C18.589,64.48,18.569,64.642,18.55,64.804z"/>
	<path fill="#000000" d="M27.647,52.693c0.242-0.126,0.474-0.25,0.727-0.376C28.121,52.443,27.89,52.567,27.647,52.693z"/>
	<path fill="#000000" d="M22.532,55.813c1.063-0.821,2.506-1.735,4.28-2.688C25.038,54.078,23.595,54.992,22.532,55.813z"/>
	<path fill="#000000" d="M19.309,61.173c0.045-0.157,0.092-0.313,0.141-0.468C19.401,60.86,19.354,61.016,19.309,61.173z"/>
	<path fill="#000000" d="M26.755,66.955c0.087-0.041,0.173-0.08,0.26-0.119C26.929,66.875,26.841,66.914,26.755,66.955z"/>
	<path fill="#000000" d="M22.686,68.729c0.046-0.02,0.092-0.038,0.139-0.058C22.778,68.69,22.732,68.709,22.686,68.729z"/>
	<path fill="#000000" d="M23.653,68.324c0.049-0.021,0.098-0.042,0.146-0.062C23.751,68.281,23.702,68.303,23.653,68.324z"/>
	<path fill="#000000" d="M25.683,67.438c0.066-0.029,0.131-0.059,0.197-0.088C25.814,67.379,25.749,67.408,25.683,67.438z"/>
	<path fill="#000000" d="M28.744,50.689c-0.085,0.041-0.17,0.081-0.257,0.123C28.574,50.771,28.659,50.73,28.744,50.689z"/>
	<path fill="#000000" d="M19.167,57.821c-0.131,0.272-0.26,0.571-0.388,0.888C18.906,58.393,19.035,58.094,19.167,57.821z"/>
	<path fill="#000000" d="M20.201,56.171c-0.125,0.144-0.238,0.286-0.338,0.427C19.963,56.457,20.077,56.314,20.201,56.171z"/>
	<path fill="#000000" d="M21.854,69.061c0.034-0.013,0.064-0.024,0.099-0.038C21.918,69.036,21.887,69.048,21.854,69.061z"/>
	<path fill="#000000" d="M27.837,66.456c0.085-0.04,0.166-0.078,0.25-0.117C28.004,66.378,27.922,66.416,27.837,66.456z"/>
	<path fill="#000000" d="M20.338,56.025c0.088-0.096,0.174-0.191,0.272-0.287C20.513,55.834,20.426,55.93,20.338,56.025z"/>
	<path fill="#000000" d="M24.712,67.867c0.014-0.006,0.027-0.012,0.041-0.018C24.739,67.855,24.726,67.861,24.712,67.867z"/>
	<path fill="#000000" d="M26.176,51.991c-0.12,0.064-0.241,0.13-0.362,0.196C25.935,52.121,26.056,52.056,26.176,51.991z"/>
	<path fill="#000000" d="M25.485,52.368c-0.123,0.069-0.246,0.138-0.369,0.208C25.239,52.506,25.362,52.438,25.485,52.368z"/>
	<path fill="#000000" d="M24.795,52.76c-0.123,0.071-0.245,0.144-0.366,0.216C24.55,52.903,24.672,52.831,24.795,52.76z"/>
	<path fill="#000000" d="M26.856,51.631c-0.117,0.062-0.234,0.123-0.354,0.186C26.622,51.754,26.739,51.692,26.856,51.631z"/>
	<path fill="#000000" d="M27.519,51.292c-0.109,0.056-0.221,0.112-0.332,0.169C27.298,51.404,27.409,51.348,27.519,51.292z"/>
	<path fill="#000000" d="M28.155,50.975c-0.103,0.051-0.205,0.102-0.311,0.154C27.95,51.076,28.054,51.025,28.155,50.975z"/>
	<path fill="#000000" d="M22.182,54.436c-0.109,0.079-0.213,0.158-0.318,0.238C21.969,54.594,22.073,54.515,22.182,54.436z"/>
	<path fill="#000000" d="M21.082,55.304c-0.1,0.087-0.191,0.174-0.284,0.261C20.891,55.478,20.982,55.391,21.082,55.304z"/>
	<path fill="#000000" d="M22.797,54.005c-0.115,0.077-0.226,0.155-0.337,0.234C22.571,54.16,22.682,54.082,22.797,54.005z"/>
	<path fill="#000000" d="M21.609,54.869c-0.105,0.082-0.203,0.164-0.302,0.247C21.406,55.033,21.504,54.951,21.609,54.869z"/>
	<path fill="#000000" d="M24.109,53.166c-0.121,0.073-0.24,0.147-0.36,0.223C23.869,53.313,23.988,53.239,24.109,53.166z"/>
	<path fill="#000000" d="M23.441,53.582c-0.118,0.075-0.234,0.151-0.351,0.229C23.207,53.733,23.323,53.657,23.441,53.582z"/>
</g>
</svg>