<svg xmlns="http://www.w3.org/2000/svg" xmlns:xlink="http://www.w3.org/1999/xlink" version="1.1" id="Layer_1" x="0px" y="0px" width="100px" height="100px" viewBox="0 0 100 100" enable-background="new 0 0 100 100" xml:space="preserve">
<path d="M99.518,43.136c-0.245-1.773-0.578-3.517-1.004-5.227c-1.222-4.899-3.161-9.517-5.711-13.728  c-1.104-1.824-2.331-3.564-3.651-5.227C79.983,7.418,65.847,0,50,0C34.154,0,20.016,7.418,10.849,18.955  c-1.321,1.662-2.547,3.403-3.65,5.227c-2.55,4.211-4.491,8.829-5.712,13.728c-0.426,1.709-0.759,3.454-1.003,5.227  C0.173,45.381,0,47.67,0,50s0.173,4.619,0.483,6.864c0.245,1.773,0.578,3.518,1.003,5.227c1.222,4.9,3.162,9.517,5.712,13.729  c1.104,1.824,2.33,3.564,3.65,5.227C20.016,92.582,34.154,100,50,100c15.846,0,29.984-7.418,39.152-18.955  c1.32-1.662,2.547-3.402,3.651-5.227c2.549-4.212,4.489-8.828,5.711-13.729c0.426-1.709,0.759-3.453,1.004-5.227  C99.827,54.618,100,52.329,100,50S99.827,45.381,99.518,43.136z M35.97,7.49c-2.588,3.048-4.86,6.931-6.727,11.465h-11.46  C22.773,13.778,28.993,9.799,35.97,7.49z M13.455,24.181h13.906c-1.308,4.198-2.298,8.811-2.918,13.728H6.898  C8.297,32.929,10.536,28.3,13.455,24.181z M5.227,50c0-2.333,0.181-4.625,0.526-6.864h18.183c-0.155,2.241-0.242,4.529-0.242,6.864  c0,2.335,0.087,4.623,0.242,6.864H5.753C5.407,54.625,5.227,52.334,5.227,50z M13.455,75.818c-2.918-4.119-5.158-8.748-6.557-13.729  h17.544c0.62,4.918,1.611,9.53,2.918,13.729H13.455z M17.784,81.045h11.46c1.866,4.534,4.139,8.416,6.727,11.465  C28.993,90.2,22.774,86.223,17.784,81.045z M47.387,94.399c-4.792-1.324-9.14-6.221-12.411-13.354h12.411  C47.387,86.966,47.387,91.604,47.387,94.399z M47.387,75.818H32.91c-1.404-4.134-2.487-8.769-3.168-13.729h17.646  C47.387,67.028,47.387,71.648,47.387,75.818z M47.387,50c0,2.332,0,4.623,0,6.864H29.181C29.01,54.62,28.919,52.327,28.919,50  c0-2.328,0.09-4.62,0.262-6.864h18.206C47.387,45.377,47.387,47.667,47.387,50z M47.387,37.909H29.741  c0.681-4.96,1.765-9.595,3.168-13.728h14.478C47.387,28.35,47.387,32.97,47.387,37.909z M47.387,18.955H34.976  C38.248,11.82,42.595,6.925,47.387,5.6C47.387,8.395,47.387,13.034,47.387,18.955z M86.545,24.181  c2.919,4.119,5.157,8.748,6.557,13.728H75.558c-0.621-4.917-1.611-9.53-2.919-13.728H86.545z M82.217,18.955h-11.46  c-1.866-4.534-4.14-8.417-6.727-11.464C71.007,9.799,77.227,13.778,82.217,18.955z M52.613,5.6c4.793,1.325,9.14,6.22,12.411,13.354  H52.613V5.6z M52.613,24.181H67.09c1.405,4.133,2.488,8.768,3.169,13.728H52.613V24.181z M52.613,43.136h18.206  c0.17,2.244,0.261,4.536,0.261,6.864c0,2.328-0.091,4.621-0.261,6.864H52.613V43.136z M52.613,62.09h17.646  c-0.681,4.96-1.764,9.595-3.169,13.729H52.613V62.09z M52.613,94.399V81.045h12.411C61.753,88.179,57.406,93.074,52.613,94.399z   M64.03,92.51c2.587-3.049,4.86-6.932,6.726-11.465h11.46C77.226,86.222,71.007,90.2,64.03,92.51z M86.545,75.818H72.638  c1.309-4.198,2.299-8.811,2.92-13.729h17.544C91.702,67.07,89.464,71.699,86.545,75.818z M94.247,56.863H76.063  c0.156-2.241,0.243-4.528,0.243-6.864c0-2.334-0.087-4.623-0.243-6.864h18.184c0.346,2.238,0.526,4.53,0.526,6.864  C94.773,52.334,94.593,54.625,94.247,56.863z"/>
</svg>