<svg xmlns="http://www.w3.org/2000/svg" xmlns:xlink="http://www.w3.org/1999/xlink" version="1.1" baseProfile="basic" id="Layer_1" x="0px" y="0px" width="100px" height="100px" viewBox="0 0 100 100" xml:space="preserve">
<path d="M88.281,60.808c0.002-0.876-0.504-1.754-1.661-2.421L57.938,41.768V4.676C57.938,2.094,54.314,0,50.01,0  s-7.929,2.094-7.929,4.676V48.47c0,0.376-0.242,0.589-0.425,0.696c-0.067,0.029-0.131,0.06-0.195,0.089  c-0.004,0.001-0.007,0.002-0.007,0.002l0.001,0c-1.649,0.773-2.476,1.741-2.476,2.796v1.5c0,0.606-0.627,0.788-0.627,0.788l0,0  c-2.451,0.764-3.337,1.731-3.337,2.788v5.495c0,2.025-1.212,0.907-1.212,0.907c-0.547-0.58-0.856-1.143-0.856-1.643v-6.76  c0-1.058,0.887-2.025,3.478-2.789h0c0,0,0.659-0.195,0.659-0.802v-1.485c0-1.058,0.694-2.029,2.325-2.803l-0.002-0.001  c0,0,0.579-0.23,0.607-0.734V43.14L13.608,58.387c-1.139,0.662-1.789,1.529-1.787,2.396c0-0.004-0.043-0.006-0.043-0.009  c-0.022,7.649-0.065,9.434-0.086,17.084c-0.001,0.11,0.026,0.223,0.044,0.333c0.004,0.027,0.002,0.055,0.008,0.084  c0.03,0.145,0.071,0.286,0.134,0.427c0.047,0.11,0.1,0.219,0.166,0.326c0.046,0.072,0.092,0.143,0.146,0.214  c0.118,0.157,0.254,0.311,0.416,0.457c0.039,0.035,0.083,0.069,0.125,0.104c0.194,0.163,0.408,0.32,0.659,0.465  c0.004,0.003,0.008,0.008,0.012,0.01l32.45,18.735c0.645,0.373,1.407,0.629,2.212,0.793c2.065,0.419,4.446,0.162,6.091-0.793  l32.355-18.735c1.138-0.662,1.82-1.529,1.82-2.396C88.332,70.235,88.259,68.453,88.281,60.808z M79.64,61.229  c0,1.906-2.953,3.453-6.619,3.453s-6.619-1.547-6.619-3.453v-2.165c0-1.896,3.091-3.238,6.619-3.238s6.456,1.342,6.619,3.238V61.229  z"/>
</svg>