<svg xmlns="http://www.w3.org/2000/svg" xmlns:xlink="http://www.w3.org/1999/xlink" version="1.1" id="Layer_1" x="0px" y="0px" width="100px" height="100px" viewBox="0 0 100 100" enable-background="new 0 0 100 100" xml:space="preserve">
<g>
	<path d="M73.224,30.032c-0.015,0-0.028,0.002-0.043,0.002C72.74,18.611,63.366,9.48,51.836,9.48   c-11.811,0-21.386,9.575-21.386,21.386v6.096l-14.603-8.431H6L30.45,52.98V100h42.773V72.085h0.001   c11.594,0,21.026-9.433,21.026-21.026C94.25,39.464,84.817,30.032,73.224,30.032z M73.224,65.395L73.224,65.395l-0.001-28.671   h0.001c7.904,0,14.335,6.431,14.335,14.335C87.559,58.963,81.128,65.395,73.224,65.395z"/>
	<circle cx="51.836" cy="4.74" r="4.74"/>
</g>
</svg>