<svg xmlns="http://www.w3.org/2000/svg" xmlns:xlink="http://www.w3.org/1999/xlink" version="1.1" id="Layer_1" x="0px" y="0px" width="100px" height="100px" viewBox="0 -8 100 100" enable-background="new 0 -8 100 100" xml:space="preserve">
<path d="M44.021,53.015c-2.685-2.499-3.958-4.594-3.943-6.483l-12.586-0.042C13.461,46.544,1.187,69.854,0.723,84.597  c4.291,0.001,22.51,0.011,42.708,0.015l-3.446-4.077L44.021,53.015z"/>
<path d="M85.318,53.255c-4.383-4.389-8.955-6.615-13.59-6.615l-12.337-0.042c-0.016,1.871-1.29,3.944-3.944,6.417l4.035,27.521  l-3.447,4.078c17.021,0.001,33.712-0.003,43.241-0.017C98.934,75.731,93.667,61.617,85.318,53.255z"/>
<path d="M49.622,38.711l0.106,0l0.119,0c10.948,0,19.895-9.19,19.94-20.487C69.74,6.982,60.742-2.208,49.729-2.251  c-5.344,0.021-10.375,2.137-14.155,5.958c-3.836,3.876-5.929,9.03-5.894,14.513c-0.036,5.566,2.067,10.761,5.922,14.64  C39.35,36.634,44.33,38.711,49.622,38.711z"/>
<path d="M52.207,50.882c3.057-2.678,3.392-3.976,3.423-4.297c0.006-0.054,0.003-0.082,0.003-0.084  c-0.056-0.283-0.267-0.574-0.576-0.857c-0.372-0.338-0.895-0.663-1.507-0.943c-1.133-0.52-2.554-0.88-3.817-0.88  c-1.239,0-2.634,0.35-3.757,0.855c-0.613,0.274-1.143,0.596-1.525,0.932c-0.334,0.293-0.558,0.598-0.616,0.894  c0,0-0.001,0.018,0,0.044c0.009,0.235,0.22,1.528,3.427,4.337l0.77,0.674l-4.085,27.847l4.403,5.211l0.794,0.938l0.591,0.701  l0.592-0.7l0.793-0.938l4.404-5.21l-4.084-27.849L52.207,50.882z"/>
</svg>