<svg xmlns="http://www.w3.org/2000/svg" xmlns:xlink="http://www.w3.org/1999/xlink" version="1.1" id="Layer_1" x="0px" y="0px" width="68px" height="31.001px" viewBox="0 0 68 31.001" enable-background="new 0 0 68 31.001" xml:space="preserve">
<path d="M68,22.001c0-0.427-0.196-0.845-0.552-1.251C64.583,24.019,50.704,26.5,34,26.5c-16.704,0-30.583-2.481-33.449-5.75  C0.196,21.156,0,21.574,0,22.001c0,1.86,3.531,3.55,9.281,4.803c4.172,2.469,13.656,4.197,24.72,4.197  c11.077,0,20.588-1.73,24.751-4.204C64.482,25.544,68,23.857,68,22.001z"/>
<path d="M34,21.25c-16.704,0-30.583-2.481-33.449-5.75C0.196,15.906,0,16.324,0,16.751c0,3.865,15.223,7,34,7  c18.777,0,34-3.135,34-7c0-0.427-0.196-0.845-0.552-1.251C64.583,18.769,50.704,21.25,34,21.25z"/>
<path d="M34,16.25c-16.704,0-30.584-2.481-33.449-5.75C0.196,10.906,0,11.324,0,11.751c0,3.865,15.223,7,34,7  c18.777,0,34-3.135,34-7c0-0.427-0.196-0.845-0.552-1.251C64.583,13.769,50.704,16.25,34,16.25z"/>
<path d="M34,0C15.223,0,0,3.134,0,7s15.223,7,34,7c18.777,0,34-3.134,34-7S52.778,0,34,0z M34,12.25C19.917,12.25,8.5,9.899,8.5,7  S19.917,1.75,34,1.75c14.083,0,25.5,2.351,25.5,5.25S48.083,12.25,34,12.25z"/>
<ellipse cx="323.167" cy="31.001" rx="15.3" ry="3.15"/>
</svg>