<svg xmlns="http://www.w3.org/2000/svg" xmlns:xlink="http://www.w3.org/1999/xlink" version="1.1" id="Layer_1" x="0px" y="0px" width="79.559px" height="20px" viewBox="0 0 79.559 20" enable-background="new 0 0 79.559 20" xml:space="preserve">
<path d="M79.559,8.19C79.559,3.667,61.749,0,39.78,0C17.81,0,0,3.667,0,8.19c0,0.019,0.007,0.036,0.007,0.055  c0,0.019-0.006,0.037-0.006,0.055c0,2.176,4.131,4.153,10.858,5.619C15.74,16.808,26.836,20,39.78,20  c12.96,0,24.087-3.195,28.958-6.089c6.705-1.466,10.82-3.439,10.82-5.611c0-0.02-0.006-0.039-0.007-0.057  C79.553,8.225,79.559,8.208,79.559,8.19z M39.78,2.047c16.477,0,29.834,2.75,29.834,6.143s-13.357,6.142-29.834,6.142  S9.944,11.582,9.944,8.19S23.303,2.047,39.78,2.047z"/>
</svg>