<svg xmlns="http://www.w3.org/2000/svg" xmlns:xlink="http://www.w3.org/1999/xlink" version="1.1" id="Layer_1" x="0px" y="0px" width="100px" height="100px" viewBox="0 0 100 100" enable-background="new 0 0 100 100" xml:space="preserve">
<g>
	<path d="M19.08,100c7.015,0,12.646,0,19.618,0c30.422,0,14.867-42.84,33.46-52.073c0,9.542,0,52.073,0,52.073h6.91   c0,0-0.168-22.268,6.287-43.701c5.516-18.313,11.42-22.158,11.42-30.102C96.775,4.966,69.646,0,69.646,0   s-9.938,29.822-16.396,46.418c-9.622,24.729-15.293,30.465-20.569,30.465c-2.638,0-5.436-1.256-5.436-1.256   s-22.021,3.01-22.021,13.75C5.225,96.346,12.065,100,19.08,100z"/>
</g>
</svg>