<svg xmlns="http://www.w3.org/2000/svg" xmlns:xlink="http://www.w3.org/1999/xlink" version="1.1" id="Layer_1" x="0px" y="0px" width="100px" height="66.6666666667px" viewBox="0 0 219.5 146.25" enable-background="new 0 0 219.5 146.25" xml:space="preserve">
<g id="Layer_3">
</g>
<g id="Layer_2">
</g>
<g>
	<path d="M192.25,75.043l-4.125-4.345L184,75.043l-4.125-4.345l-4.125,4.345l-4.125-4.345l-4.125,4.345l-4.125-4.345l-2.154,2.269   v-46.58c0-0.79-0.783-1.431-1.75-1.431c-0.965,0-1.75,0.641-1.75,1.431v47.045l-2.596-2.732L151,75.043l-4.125-4.345l-4.125,4.345   l-4.125-4.345l-4.125,4.345l-4.125-4.345l-4.125,4.345l-4.125-4.345L118,75.043V44.188L84.975,24.042L52,44.188v30.854   l-4.125-4.345l-4.125,4.345l-4.125-4.345L35.5,75.043l-4.125-4.345l-4.125,4.345l-4.125-4.345L19,75.043v48.75h181.5v-48.75   l-4.125-4.345L192.25,75.043z"/>
	<path d="M200.579,25.947c-5.293,2.308-8.352,1.137-12.187-0.348c-2.639-1.021-5.626-2.177-9.727-2.177   c-6.917,0-12.074,3.343-14.357,5.147v23.137c1.116-1.012,6.611-5.616,14.357-5.616c3.819-0.001,6.547,1.054,9.183,2.075   c3.685,1.428,7.185,2.776,12.674,0.602l-11.204-11.204l11.261-11.261V25.947z"/>
</g>
</svg>