<svg xmlns="http://www.w3.org/2000/svg" xmlns:xlink="http://www.w3.org/1999/xlink" version="1.0" id="Ebene_2" x="0px" y="0px" width="100px" height="100px" viewBox="0 0 100 100" enable-background="new 0 0 100 100" xml:space="preserve">
<g>
	<g>
		<path fill="#000000" d="M70.023,93.988c0.67-0.223,1.729-0.569,2.947-1.1l0,0l0.924,2.124c-1.328,0.576-2.474,0.952-3.139,1.173    l0,0v0.002L70.023,93.988L70.023,93.988z M75.705,91.475c0.838-0.518,1.66-1.121,2.397-1.813l0,0l1.587,1.687    c-0.874,0.822-1.821,1.514-2.767,2.098l0,0L75.705,91.475L75.705,91.475z M79.942,87.405c0.475-0.794,0.835-1.666,1.044-2.646l0,0    l2.266,0.481c-0.264,1.24-0.728,2.359-1.32,3.353l0,0L79.942,87.405L79.942,87.405z M81.093,81.414    c-0.116-0.895-0.329-1.647-0.616-2.298l0,0l2.122-0.933c0.379,0.866,0.649,1.841,0.792,2.936l0,0    c0.024,0.187,0.044,0.373,0.06,0.557l0,0l-2.308,0.203C81.13,81.726,81.114,81.571,81.093,81.414L81.093,81.414z M76.494,75.135    l1.147-2.013c0.992,0.566,1.975,1.221,2.851,2.063l0,0l-1.606,1.669C78.203,76.198,77.39,75.644,76.494,75.135L76.494,75.135z     M70.699,71.973l1.349-1.885c0.761,0.546,1.672,1.031,2.653,1.521l0,0l0,0l-1.036,2.071    C72.654,73.174,71.639,72.643,70.699,71.973L70.699,71.973z M67.19,66.093c-0.012-0.134-0.024-0.269-0.034-0.4l0,0l2.311-0.162    c0.008,0.109,0.018,0.222,0.029,0.335l0,0c0.092,0.925,0.335,1.642,0.682,2.256l0,0l-2.011,1.146    C67.651,68.368,67.31,67.307,67.19,66.093L67.19,66.093z M67.468,62.104c0.35-1.271,0.966-2.362,1.76-3.268l0,0l1.742,1.527    c-0.582,0.666-1.009,1.422-1.269,2.355l0,0L67.468,62.104L67.468,62.104z M72.056,56.598c0.981-0.554,2.041-1.005,3.144-1.397l0,0    l0.777,2.181c-1.016,0.362-1.955,0.768-2.779,1.233l0,0L72.056,56.598L72.056,56.598z M78.998,56.45l-0.615-2.234    c1.055-0.29,2.115-0.562,3.147-0.838l0,0l0.6,2.236C81.08,55.896,80.024,56.165,78.998,56.45L78.998,56.45L78.998,56.45    L78.998,56.45z M84.579,52.481c1.034-0.345,1.992-0.726,2.829-1.162l0,0l1.071,2.054c-0.989,0.516-2.058,0.936-3.167,1.306l0,0    L84.579,52.481L84.579,52.481z M91.387,51.236l-1.691-1.58c0.6-0.647,1.024-1.374,1.268-2.291l0,0l2.239,0.586    c-0.336,1.292-0.978,2.391-1.813,3.284l0,0H91.387L91.387,51.236z M90.283,41.949l2.039-1.101    c0.561,1.038,0.942,2.199,1.092,3.472l0,0l-2.301,0.269C90.996,43.605,90.712,42.744,90.283,41.949L90.283,41.949z M86.13,37.869    l1.246-1.953c0.994,0.636,1.922,1.327,2.743,2.108l0,0l-1.598,1.679C87.838,39.05,87.029,38.443,86.13,37.869L86.13,37.869z     M80.514,34.979l0.944-2.114c1.012,0.451,2.015,0.915,2.987,1.404l0,0l-1.042,2.068C82.479,35.873,81.507,35.424,80.514,34.979    L80.514,34.979z M74.558,32.296l1.013-2.083c0.941,0.457,1.921,0.899,2.913,1.339l0,0l-0.938,2.118    C76.542,33.227,75.539,32.773,74.558,32.296L74.558,32.296z M68.802,28.768l1.48-1.78c0.745,0.619,1.591,1.197,2.511,1.745l0,0    l-1.185,1.99C70.609,30.129,69.663,29.485,68.802,28.768L68.802,28.768z M64.82,22.947l2.231-0.622    c0.259,0.931,0.67,1.762,1.218,2.534l0,0h0.001L66.38,26.2C65.694,25.233,65.153,24.15,64.82,22.947L64.82,22.947z M64.438,19.391    c0.047-1.081,0.23-2.226,0.56-3.444l0,0l2.236,0.603c-0.289,1.075-0.443,2.053-0.482,2.943l0,0L64.438,19.391L64.438,19.391z"/>
	</g>
</g>
<g>
	<path fill="#000000" d="M75.82,11.157c-0.09-0.15-0.286-0.224-0.559-0.233c-0.638-0.365-1.899-0.614-3.353-0.614   c-2.098,0-3.798,0.518-3.798,1.156c0,0.569,1.354,1.041,3.133,1.137c-1.374,0.968-2.21,2.005-1.927,2.473   c0.329,0.547,2.052,0.112,3.849-0.97C74.961,13.024,76.15,11.703,75.82,11.157z"/>
</g>
<g>
	<path d="M60.731,65.373h-44.18c-1.048,2.114-2,4.428-2.837,6.947H63.62C62.767,69.806,61.799,67.488,60.731,65.373z M64.355,74.638   H12.993c-0.631,2.177-1.179,4.495-1.637,6.949h54.673C65.562,79.135,65.002,76.817,64.355,74.638z M54.335,56.106H22.853   c-1.83,1.938-3.541,4.249-5.08,6.949h41.709C57.921,60.363,56.189,58.045,54.335,56.106z M66.436,83.902H10.959   c-0.35,2.216-0.635,4.523-0.833,6.949h20.688c0.245-0.433,0.503-0.852,0.787-1.241c1.731-2.379,4.246-3.969,7.101-3.969   c2.854,0,5.37,1.59,7.101,3.969c0.284,0.39,0.542,0.809,0.787,1.241h20.692C67.082,88.43,66.793,86.119,66.436,83.902z    M67.64,99.746c0-2.271-0.07-4.458-0.197-6.577H47.638c0.6,1.695,0.938,3.575,0.939,5.562c0,0.371-0.019,0.735-0.041,1.1   L67.64,99.746z M25.307,53.79h26.547C43.598,46.973,33.528,46.935,25.307,53.79z M9.967,93.169   c-0.13,2.197-0.205,4.469-0.205,6.831l19.106-0.084c-0.027-0.392-0.044-0.785-0.045-1.186c0.002-1.986,0.341-3.866,0.94-5.562   H9.967z"/>
	<path fill="#000000" d="M9.531,100.232V100c0-2.249,0.069-4.552,0.205-6.845l0.013-0.218h20.342l-0.109,0.309   c-0.613,1.734-0.925,3.58-0.927,5.484c0.001,0.395,0.019,0.783,0.045,1.17l0.017,0.246L9.531,100.232z M10.186,93.4   c-0.122,2.133-0.187,4.272-0.191,6.367l18.627-0.082c-0.02-0.336-0.029-0.65-0.03-0.954c0.002-1.847,0.287-3.638,0.848-5.331   H10.186z M48.29,100.062l0.016-0.247c0.022-0.359,0.041-0.719,0.041-1.085c-0.001-1.904-0.312-3.749-0.926-5.484l-0.109-0.309   h20.35l0.014,0.218c0.131,2.189,0.197,4.407,0.197,6.591v0.23L48.29,100.062z M47.962,93.4c0.561,1.694,0.846,3.485,0.847,5.33   c0,0.292-0.011,0.58-0.027,0.867l18.626-0.082c-0.005-2.027-0.066-4.082-0.185-6.115H47.962z M67.533,91.083H46.454l-0.067-0.117   c-0.276-0.487-0.521-0.875-0.772-1.219c-1.791-2.462-4.311-3.874-6.914-3.874c-2.603,0-5.122,1.412-6.913,3.874   c-0.251,0.344-0.497,0.731-0.773,1.219l-0.067,0.117H9.875l0.021-0.25c0.191-2.344,0.465-4.622,0.835-6.967l0.031-0.195h55.872   l0.031,0.194c0.372,2.309,0.657,4.653,0.848,6.968L67.533,91.083z M46.723,90.62h20.306c-0.184-2.156-0.449-4.336-0.791-6.486   H11.157c-0.34,2.181-0.596,4.308-0.78,6.486h20.302c0.258-0.449,0.493-0.815,0.734-1.146c1.879-2.582,4.535-4.063,7.288-4.063   c2.753,0,5.409,1.481,7.288,4.063C46.23,89.805,46.465,90.171,46.723,90.62z M66.31,81.818H11.077l0.051-0.274   c0.456-2.439,1.008-4.785,1.642-6.971l0.049-0.167h51.709l0.049,0.166c0.65,2.19,1.215,4.535,1.68,6.972L66.31,81.818z    M11.635,81.355h54.114c-0.439-2.261-0.966-4.44-1.566-6.486H13.167C12.582,76.911,12.066,79.091,11.635,81.355z M63.943,72.552   h-50.55l0.101-0.305c0.821-2.473,1.78-4.819,2.85-6.977l0.064-0.129h44.466l0.064,0.127c1.08,2.142,2.057,4.488,2.901,6.978   L63.943,72.552z M14.036,72.089h49.26c-0.796-2.306-1.706-4.485-2.707-6.484H16.696C15.705,67.618,14.811,69.797,14.036,72.089z    M59.884,63.287h-42.51l0.197-0.346c1.506-2.643,3.226-4.995,5.113-6.994l0.068-0.072h31.681l0.068,0.071   c1.896,1.981,3.639,4.335,5.18,6.993L59.884,63.287z M18.173,62.824h40.904c-1.453-2.453-3.08-4.633-4.842-6.486H22.953   C21.201,58.206,19.594,60.386,18.173,62.824z M52.499,54.021H24.667l0.491-0.409c4.065-3.389,8.695-5.181,13.39-5.181   c4.697,0,9.349,1.791,13.454,5.18L52.499,54.021z M25.959,53.559h25.238c-3.894-3.054-8.254-4.664-12.649-4.664   C34.156,48.895,29.816,50.505,25.959,53.559z"/>
</g>
</svg>