<svg xmlns="http://www.w3.org/2000/svg" xmlns:xlink="http://www.w3.org/1999/xlink" version="1.0" id="Ebene_1" x="0px" y="0px" width="100px" height="100px" viewBox="0 0 100 100" enable-background="new 0 0 100 100" xml:space="preserve">
<g>
	<path d="M57.582,78.748V8.583C57.582,4.401,54.181,1,50,1s-7.582,3.401-7.582,7.583v70.166c-2.119,2.012-3.449,4.847-3.449,7.992   c0,6.083,4.949,11.031,11.031,11.031c6.083,0,11.031-4.948,11.031-11.031C61.031,83.595,59.701,80.76,57.582,78.748z M50,93.771   c-3.877,0-7.031-3.154-7.031-7.031c0-2.567,1.388-4.812,3.449-6.039v-4.384v-1.279V8.583C46.418,6.607,48.025,5,50,5   c1.976,0,3.582,1.607,3.582,3.583v3.666H51c-0.966,0-1.75,0.784-1.75,1.75s0.784,1.75,1.75,1.75h2.582v3.477v0.523H51   c-0.966,0-1.75,0.784-1.75,1.75s0.784,1.75,1.75,1.75h2.582v1.927v2v0.074H51c-0.966,0-1.75,0.784-1.75,1.75s0.784,1.75,1.75,1.75   h2.582v0.377v2v1.624H51c-0.966,0-1.75,0.784-1.75,1.75s0.784,1.75,1.75,1.75h2.582v0.827v3.173H51c-0.966,0-1.75,0.784-1.75,1.75   s0.784,1.75,1.75,1.75h2.582v29.288v1.279v4.384c2.061,1.227,3.449,3.472,3.449,6.039C57.031,90.617,53.877,93.771,50,93.771z"/>
	<path d="M52.387,81.652V52.073h-4.755v29.569c-1.97,0.9-3.341,2.883-3.341,5.19c0,3.153,2.556,5.709,5.709,5.709   s5.709-2.556,5.709-5.709C55.709,84.533,54.347,82.557,52.387,81.652z"/>
</g>
</svg>