<svg xmlns="http://www.w3.org/2000/svg" xmlns:xlink="http://www.w3.org/1999/xlink" version="1.0" id="Ebene_2" x="0px" y="0px" width="100px" height="100px" viewBox="0 0 100 100" enable-background="new 0 0 100 100" xml:space="preserve">
<path fill="#000000" d="M96.31,12.827l-4.455-3.278l2.917-4.7l-5.34,1.439l-1.856-5.212l-2.204,5.074l-5.23-1.799l2.591,4.888  l-1.914,1.217c-6.295,1.604-15.072,5.767-22.568,19.075l-6.354-4.241l-7.518,11.263c-3.197-1.073-6.617-1.663-10.177-1.663  c-17.672,0-31.999,14.326-31.999,31.998c0,17.673,14.326,31.998,31.999,31.998s31.999-14.325,31.999-31.998  c0-7.112-2.323-13.68-6.25-18.993l7.956-11.918l-7.247-4.838c7.375-13.222,15.794-16.777,21.789-18.109l1.053,0.198l-0.591,5.5  l4.188-3.615l3.935,3.891l-0.217-5.527L96.31,12.827z M42.145,43.113c-0.235,0.5-0.832,0.715-1.329,0.482  c-10.109-4.726-22.18-0.346-26.907,9.765c-0.17,0.363-0.53,0.576-0.906,0.576c-0.142,0-0.286-0.03-0.423-0.094  c-0.5-0.234-0.716-0.829-0.482-1.33c5.194-11.109,18.459-15.922,29.565-10.729C42.163,42.018,42.379,42.613,42.145,43.113z   M54.728,29.846l-7.519,11.263c-0.192,0.289-0.51,0.445-0.833,0.445c-0.191,0-0.384-0.054-0.554-0.168  c-0.459-0.307-0.583-0.927-0.276-1.387l7.518-11.263c0.307-0.459,0.928-0.584,1.387-0.276C54.91,28.766,55.034,29.386,54.728,29.846  z M87.165,13.15l-2.429,2.096l0.29-2.702c0.381-0.062,0.747-0.118,1.094-0.171c0.432-0.066,0.834-0.127,1.207-0.191l-0.479-2.846  c-0.359,0.06-0.747,0.12-1.162,0.183c-0.341,0.052-0.703,0.108-1.082,0.168l-1.475-2.782l3.035,1.043l1.278-2.942l1.075,3.022  l3.1-0.834l-1.693,2.726l2.585,1.902L89.321,12.2l0.126,3.207L87.165,13.15z"/>
</svg>