<svg xmlns="http://www.w3.org/2000/svg" xmlns:xlink="http://www.w3.org/1999/xlink" version="1.0" id="Ebene_2" x="0px" y="0px" width="100px" height="100px" viewBox="0 0 100 100" enable-background="new 0 0 100 100" xml:space="preserve">
<rect x="34.464" y="94.908" fill="#000000" stroke="#1D1D1B" stroke-width="1.4551" stroke-miterlimit="10" width="0" height="0"/>
<path fill="#000000" d="M67.756,7.302l-5.435-1.027l0.596-5.499l-4.191,3.608l-3.928-3.896l0.207,5.529l-5.494,0.641l4.452,3.285  l-1.199,1.925c-4.083,3.419-8.92,9.123-11.083,19.463c-4.061,0.12-7.217,1.027-7.217,2.129v61.448c0,1.184,3.641,2.143,8.134,2.143  c4.492,0,8.135-0.959,8.135-2.143h0.001V33.46h-0.001c0-1-2.601-1.837-6.114-2.075c2.155-9.77,6.833-14.841,10.727-17.901  l1.034-0.277l1.848,5.213l2.211-5.071l5.232,1.805l-2.587-4.889L67.756,7.302z M39.25,92.131c0,0.534-0.448,0.967-1,0.967  s-1-0.433-1-0.967V38.598c0-0.534,0.448-0.966,1-0.966s1,0.432,1,0.966V92.131z M49.562,33.46c-0.751,0.468-3.152,1.144-6.963,1.144  s-6.212-0.676-6.962-1.144c0.674-0.42,2.689-1.004,5.853-1.12c-0.055,0.291-0.116,0.57-0.166,0.869c0,0.284,0.66,0.515,1.474,0.515  s1.474-0.231,1.474-0.515c0-0.013-0.008-0.024-0.011-0.037c0.049-0.273,0.107-0.528,0.16-0.795  C47.169,32.548,48.939,33.073,49.562,33.46z M59.651,11.55l-1.283,2.941l-0.906-2.562c0.316-0.22,0.621-0.429,0.912-0.627  c0.36-0.247,0.696-0.476,1.006-0.695L57.715,8.25c-0.298,0.21-0.621,0.431-0.969,0.668c-0.283,0.194-0.587,0.401-0.902,0.62  l-2.533-1.87l3.188-0.373l-0.119-3.207l2.275,2.26l2.434-2.093l-0.347,3.19l3.154,0.596l-2.711,1.719l1.5,2.836L59.651,11.55z"/>
</svg>