<svg xmlns="http://www.w3.org/2000/svg" xmlns:xlink="http://www.w3.org/1999/xlink" version="1.1" id="Layer_1" x="0px" y="0px" width="100.0px" height="100px" viewBox="0 0 576 576" enable-background="new 0 0 576 576" xml:space="preserve">
<path d="M288.447,174.158c0-9.135-7.406-16.541-16.547-16.541c-9.135,0-16.541,7.406-16.541,16.541s7.406,16.541,16.541,16.541  C281.041,190.699,288.447,183.293,288.447,174.158z"/>
<path d="M150.588,194.877c36.926-1.271,66.375,23.32,86.801,49.43c20.977,26.812,36.398,60.117,46.629,92.156  c10.711,33.533,16.805,66.768,17.273,102.094c0.428,32.092-4.23,71.174-24.68,98.947c-1.588,2.15-3.258,4.219-5.039,6.211  c-0.879,0.979-1.781,1.934-2.707,2.871c-0.117,0.117-0.99,1.102-1.236,1.09c-0.217-0.018-0.439-0.029-0.656-0.047  c-1.775-0.111-3.545-0.281-5.309-0.521c-3.686-0.492-7.283-1.242-10.863-2.256c-7.734-2.197-14.713-5.402-21.422-9.826  c-13.875-9.158-24.428-22.553-30.076-38.186c-3.199-8.842-4.682-17.555-4.594-26.953c0.07-8.092,1.541-15.973,2.379-23.959  c1.834-17.385,2.836-34.752,2.93-52.23c0.182-34.951-3.141-68.848-11.051-102.961c-5.754-24.826-13.541-48.492-24.656-71.514  c-3-6.217-6.205-12.299-9.773-18.211c-0.938-1.547-1.898-3.082-2.895-4.594c-0.258-0.387-0.516-0.773-0.785-1.154  C150.77,195.135,150.588,194.566,150.588,194.877z"/>
<path d="M318.295,290.115c10.84,1.506,17.25,12.932,12.896,22.969c-0.264,0.609-0.562,1.201-0.896,1.77  c-0.082,0.141-0.164,0.275-0.246,0.41c-0.094,0.146-0.164-0.059-0.205-0.158c-0.117-0.287-0.234-0.574-0.357-0.867  c-0.469-1.148-0.955-2.309-1.441-3.457c-0.996-2.332-2.021-4.652-3.07-6.967C322.865,299.191,320.645,294.621,318.295,290.115z"/>
<path d="M311.803,278.385c8.637,2.273,17.52-2.719,20.068-11.279c2.549-8.555-2.15-17.584-10.617-20.414  c-8.467-2.824-17.654,1.582-20.748,9.949c-0.199,0.521-1.107,2.736-0.633,3.398c0.258,0.357,0.516,0.709,0.762,1.066  c0.51,0.715,1.008,1.43,1.512,2.145c0.99,1.43,1.963,2.871,2.924,4.324C307.408,271.125,309.652,274.723,311.803,278.385z"/>
<path d="M277.52,233.836c8.057-2.912,12.557-11.484,10.383-19.77c-2.174-8.279-10.318-13.535-18.756-12.105  c-4.453,0.75-7.512,2.578-10.289,6.141c-0.955,1.225-1.699,2.52-2.285,3.949c-0.176,0.434-1.365,3.135-0.697,3.609  c1.025,0.727,2.045,1.465,3.059,2.221C265.514,222.773,271.672,228.082,277.52,233.836z"/>
<path d="M244.332,174.158c0-9.135-7.406-16.541-16.541-16.541c-9.141,0-16.547,7.406-16.547,16.541s7.406,16.541,16.547,16.541  C236.926,190.699,244.332,183.293,244.332,174.158z"/>
<path d="M332.557,85.934c0-9.141-7.406-16.547-16.541-16.547s-16.541,7.406-16.541,16.547c0,9.135,7.406,16.541,16.541,16.541  S332.557,95.068,332.557,85.934z"/>
<path d="M288.447,130.043c0-9.135-7.406-16.541-16.547-16.541c-9.135,0-16.541,7.406-16.541,16.541  c0,9.141,7.406,16.547,16.541,16.547C281.041,146.59,288.447,139.184,288.447,130.043z"/>
<path d="M194.902,199.945c74.947,18.176,114.639,82.477,134.982,148.664c10.441,33.955,16.248,68.004,18.516,103.383  c1.148,17.83,1.898,31.488-5.438,48.762c-7.336,17.297-20.73,31.312-37.67,39.445c-8.701,4.172-17.432,6.539-27.041,7.33  c-0.551,0.041-1.102,0.088-1.652,0.117c-0.275,0.018-0.551,0.029-0.82,0.047c-0.117,0.006-0.492,0.135-0.34-0.035  c0.27-0.299,0.539-0.598,0.797-0.896c2.139-2.438,4.125-4.969,5.988-7.617c3.861-5.49,7.078-11.25,9.861-17.344  c6.105-13.371,9.674-27.047,11.941-41.484c5.361-34.09,2.566-71.297-4.166-104.713C288.23,317.859,254.791,231.211,194.902,199.945z  "/>
<path d="M332.557,130.043c0-9.135-7.406-16.541-16.541-16.541s-16.541,7.406-16.541,16.541c0,9.141,7.406,16.547,16.541,16.547  S332.557,139.184,332.557,130.043z"/>
<path d="M356.439,420.211c0.363-45.375,11.848-109.031,70.043-128.426c0,0-31.195-31.195-93.586,31.195  c2.508,6.598,4.781,13.201,6.844,19.752c2.508,7.957,4.699,15.838,6.621,23.549c1.922,7.699,3.574,15.234,4.992,22.488  C353.562,400.031,355.209,410.631,356.439,420.211z"/>
<path d="M288.447,41.812c0-9.129-7.406-16.535-16.547-16.535c-9.135,0-16.541,7.406-16.541,16.535  c0,9.141,7.406,16.547,16.541,16.547C281.041,58.359,288.447,50.953,288.447,41.812z"/>
<path d="M288.447,85.934c0-9.141-7.406-16.547-16.547-16.547c-9.135,0-16.541,7.406-16.541,16.547  c0,9.135,7.406,16.541,16.541,16.541C281.041,102.475,288.447,95.068,288.447,85.934z"/>
<path d="M244.332,85.934c0-9.141-7.406-16.547-16.541-16.547c-9.141,0-16.547,7.406-16.547,16.547  c0,9.135,7.406,16.541,16.547,16.541C236.926,102.475,244.332,95.068,244.332,85.934z"/>
<path d="M244.332,130.043c0-9.135-7.406-16.541-16.541-16.541c-9.141,0-16.547,7.406-16.547,16.541  c0,9.141,7.406,16.547,16.547,16.547C236.926,146.59,244.332,139.184,244.332,130.043z"/>
<path d="M332.557,218.273c0-9.141-7.406-16.547-16.541-16.547s-16.541,7.406-16.541,16.547c0,9.135,7.406,16.541,16.541,16.541  S332.557,227.408,332.557,218.273z"/>
<circle cx="316.016" cy="174.158" r="16.541"/>
</svg>