<svg xmlns="http://www.w3.org/2000/svg" xmlns:xlink="http://www.w3.org/1999/xlink" version="1.1" id="Livello_1" x="0px" y="0px" width="100px" height="100px" viewBox="0 0 100 100" enable-background="new 0 0 100 100" xml:space="preserve">
<path d="M51.461,8.552h-0.914v-6.6V1.95c0-1.077-0.873-1.95-1.948-1.95c-1.078,0-1.951,0.873-1.951,1.95l0,0v6.602h-0.914  c-1.263,0-2.289,0.937-2.289,2.095v78.707c0,1.156,1.026,2.094,2.289,2.094h0.914v6.602c0,1.079,0.873,1.951,1.951,1.951  c1.075,0,1.948-0.872,1.948-1.951v-6.602h0.914c1.262,0,2.289-0.938,2.289-2.094V10.646C53.75,9.489,52.723,8.552,51.461,8.552z"/>
</svg>