<svg xmlns="http://www.w3.org/2000/svg" xmlns:xlink="http://www.w3.org/1999/xlink" version="1.1" id="Layer_1" x="0px" y="0px" width="100px" height="100px" viewBox="0 0 100 100" enable-background="new 0 0 100 100" xml:space="preserve">
<path d="M65,50c0,8.28-6.72,15-15,15c-8.28,0-15-6.72-15-15c0-3.42,1.15-6.57,3.08-9.09l2.81,2.11l0.34,0.25  c0.41,0.15,1-0.07,1.49-0.55c0.49-0.49,0.7-1.12,0.54-1.53l-0.23-0.31l-2.11-2.81C43.44,36.14,46.59,35,50,35  C58.28,35,65,41.72,65,50z"/>
<path d="M42.29,41.14l-0.13-0.17L12.69,1.73l-0.05,0.05c-0.11-0.18-0.25-0.35-0.41-0.51c-1.92-1.93-5.94-1.03-8.97,1.99  c-3.02,3.03-3.92,7.05-1.99,8.97c0.16,0.16,0.33,0.3,0.51,0.41l-0.05,0.05l39.24,29.47l0.19,0.14c0.23,0.08,0.56-0.04,0.83-0.31  C42.26,41.72,42.38,41.37,42.29,41.14z M9.54,9.54c-2.42,2.42-5.63,3.14-7.18,1.59c-1.54-1.54-0.82-4.75,1.6-7.17  s5.63-3.14,7.17-1.6C12.68,3.91,11.96,7.12,9.54,9.54z"/>
<path d="M96.74,96.74c-3.03,3.02-7.05,3.92-8.971,1.99c-0.159-0.16-0.3-0.33-0.409-0.511l-0.051,0.05L60.17,62.13  c0.71-0.59,1.37-1.25,1.96-1.96l36.14,27.14l-0.05,0.051c0.181,0.109,0.351,0.25,0.511,0.409C100.66,89.69,99.76,93.71,96.74,96.74z  "/>
<line fill="none" x1="40.331" y1="38.534" x2="42.197" y2="41.02"/>
<line fill="none" x1="42.197" y1="41.02" x2="41.019" y2="42.198"/>
<line fill="none" x1="41.019" y1="42.198" x2="38.534" y2="40.33"/>
<path d="M40.97,42.16l0.19,0.14c-0.06-0.01-0.11-0.04-0.16-0.09C40.98,42.19,40.97,42.18,40.97,42.16z"/>
<path d="M42.29,41.14l-0.13-0.17c0.02,0,0.04,0.02,0.05,0.03C42.24,41.04,42.27,41.08,42.29,41.14z"/>
</svg>