<svg xmlns="http://www.w3.org/2000/svg" xmlns:xlink="http://www.w3.org/1999/xlink" version="1.1" id="Layer_1" x="0px" y="0px" width="100px" height="100px" viewBox="0 0 100 100" enable-background="new 0 0 100 100" xml:space="preserve">
<g>
	<g id="XMLID_4_">
		<path fill="#000000" d="M95.681,61c0.393,0.225,0.79,0.43,1.194,0.609c-2.213,8.977-6.943,16.965-13.392,23.176    c-2.098-1.529-4.675-2.428-7.468-2.428c-7.012,0-12.699,5.688-12.699,12.701c0,0.451,0.021,0.898,0.066,1.34    c-4.247,1.225-8.739,1.883-13.383,1.883c-4.644,0-9.135-0.658-13.384-1.883c0.276-2.58-0.235-5.271-1.63-7.691    c-3.508-6.072-11.276-8.154-17.352-4.646c-0.387,0.225-0.759,0.465-1.113,0.725C10.068,78.576,5.342,70.586,3.125,61.609    c2.375-1.053,4.447-2.84,5.844-5.26C12.479,50.274,10.396,42.506,4.32,39c-0.393-0.225-0.79-0.429-1.195-0.61    c2.214-8.977,6.943-16.963,13.392-23.174c2.097,1.528,4.676,2.426,7.466,2.426c7.015,0,12.703-5.686,12.703-12.7    c0-0.452-0.024-0.9-0.07-1.34C40.865,2.376,45.356,1.719,50,1.719c4.644,0,9.136,0.657,13.383,1.882    c-0.276,2.58,0.236,5.27,1.631,7.69c3.508,6.074,11.276,8.154,17.353,4.648c0.388-0.225,0.76-0.467,1.113-0.724    c6.452,6.208,11.178,14.197,13.396,23.174c-2.373,1.054-4.447,2.841-5.843,5.259C87.523,49.726,89.604,57.494,95.681,61z     M81.339,46.315c5.968-3.445,8.014-11.079,4.568-17.046c-3.446-5.969-11.079-8.015-17.047-4.568    c-5.97,3.445-8.014,11.078-4.568,17.047C67.739,47.716,75.369,49.763,81.339,46.315z M85.907,70.73    c3.445-5.967,1.399-13.602-4.568-17.047c-5.97-3.447-13.6-1.4-17.047,4.566c-3.445,5.971-1.401,13.604,4.568,17.047    C74.828,78.742,82.461,76.699,85.907,70.73z M62.479,21.017c0-6.892-5.586-12.479-12.479-12.479    c-6.892,0-12.479,5.587-12.479,12.479c0,6.893,5.587,12.479,12.479,12.479C56.893,33.496,62.479,27.91,62.479,21.017z     M62.479,78.982c0-6.893-5.586-12.479-12.479-12.479c-6.892,0-12.479,5.586-12.479,12.479S43.108,91.461,50,91.461    C56.893,91.461,62.479,85.875,62.479,78.982z M58.083,50c0-4.464-3.619-8.083-8.083-8.083c-4.464,0-8.083,3.618-8.083,8.083    c0,4.465,3.619,8.082,8.083,8.082C54.464,58.082,58.083,54.465,58.083,50z M35.708,41.749c3.447-5.97,1.401-13.603-4.568-17.047    c-5.968-3.447-13.601-1.401-17.046,4.568c-3.447,5.967-1.402,13.601,4.566,17.046C24.63,49.763,32.263,47.716,35.708,41.749z     M31.14,75.297c5.969-3.443,8.015-11.076,4.568-17.047c-3.446-5.967-11.078-8.013-17.048-4.566    c-5.968,3.445-8.013,11.08-4.566,17.047C17.54,76.699,25.172,78.742,31.14,75.297z"/>
	</g>
</g>
</svg>