<svg xmlns:dc="http://purl.org/dc/elements/1.1/" xmlns:cc="http://creativecommons.org/ns#" xmlns:rdf="http://www.w3.org/1999/02/22-rdf-syntax-ns#" xmlns:svg="http://www.w3.org/2000/svg" xmlns="http://www.w3.org/2000/svg" xmlns:sodipodi="http://sodipodi.sourceforge.net/DTD/sodipodi-0.dtd" xmlns:inkscape="http://www.inkscape.org/namespaces/inkscape" xml:space="preserve" width="100" height="100" style="fill-rule:evenodd" viewBox="0 0 51.749733 51.749734" id="svg2" version="1.1" inkscape:version="0.47 r22583" sodipodi:docname="fish_can.svg"><metadata id="metadata16"><rdf:RDF><cc:Work rdf:about=""><dc:format>image/svg+xml</dc:format><dc:type rdf:resource="http://purl.org/dc/dcmitype/StillImage"/><dc:title/></cc:Work></rdf:RDF></metadata><sodipodi:namedview pagecolor="#ffffff" bordercolor="#666666" borderopacity="1" objecttolerance="10" gridtolerance="10" guidetolerance="10" inkscape:pageopacity="0" inkscape:pageshadow="2" inkscape:window-width="1280" inkscape:window-height="738" id="namedview14" showgrid="false" showborder="true" inkscape:showpageshadow="true" borderlayer="false" inkscape:zoom="2.6641777" inkscape:cx="-0.56302551" inkscape:cy="14.263313" inkscape:window-x="-8" inkscape:window-y="-8" inkscape:window-maximized="1" inkscape:current-layer="svg2"/>
 <defs id="defs4"><inkscape:perspective sodipodi:type="inkscape:persp3d" inkscape:vp_x="0 : 44.29134 : 1" inkscape:vp_y="0 : 1000 : 0" inkscape:vp_z="88.58268 : 44.29134 : 1" inkscape:persp3d-origin="44.29134 : 29.52756 : 1" id="perspective18"/>
  <style type="text/css" id="style6">
   
    .fil0 {fill:white}
    .fil1 {fill:black}
   
  </style>
 
  
  
  
 
 <style id="style2830" type="text/css">
   
    .fil1 {fill:black}
    .fil0 {fill:white}
   
  </style>
  <inkscape:perspective id="perspective2842" inkscape:persp3d-origin="44.29134 : 29.52756 : 1" inkscape:vp_z="88.58268 : 44.29134 : 1" inkscape:vp_y="0 : 1000 : 0" inkscape:vp_x="0 : 44.29134 : 1" sodipodi:type="inkscape:persp3d"/>
  
  
  
 
 <style id="style2856" type="text/css">
   
    .fil1 {fill:black}
    .fil0 {fill:white}
   
  </style>
  <inkscape:perspective id="perspective2867" inkscape:persp3d-origin="44.29134 : 29.52756 : 1" inkscape:vp_z="88.58268 : 44.29134 : 1" inkscape:vp_y="0 : 1000 : 0" inkscape:vp_x="0 : 44.29134 : 1" sodipodi:type="inkscape:persp3d"/>
  
  
  
 
 
  
  
  
 <style id="style6-4" type="text/css">
   
    .fil0 {fill:white}
    .fil1 {fill:black}
   
  </style>
  <inkscape:perspective id="perspective18-9" inkscape:persp3d-origin="44.29134 : 29.52756 : 1" inkscape:vp_z="88.58268 : 44.29134 : 1" inkscape:vp_y="0 : 1000 : 0" inkscape:vp_x="0 : 44.29134 : 1" sodipodi:type="inkscape:persp3d"/></defs>
 
<path style="fill:#000000" d="M 15.217986,44.54507 C 17.368699,43.606123 18.372643,43.73322 20.135662,44.65954 21.917297,45.587102 23.688591,45.587102 25.789217,44.521058 27.868111,43.4546 29.569426,44.062763 30.52328,44.636356 30.609392,44.688934 30.69571,44.7382 30.782443,44.783946 L 32.406552,40.99421 C 31.241979,40.841238 30.730074,40.43138 30.730074,40.43138 28.890889,39.301994 27.203437,39.528037 24.893121,40.729872 23.565015,41.42042 21.470396,41.238882 19.975036,40.476919 17.941478,39.399697 16.784356,39.660722 14.643159,40.614988 14.27139,40.779759 13.907899,40.907684 13.54917,40.998557 L 15.095658,44.60696 15.217993,44.545068 15.217993,44.545068 z" id="path2915"/><path style="fill:#000000" d="M 59.59375 10 L 59.59375 24.40625 L 66 30.8125 L 66 36.15625 L 32.90625 51.0625 L 29.1875 49.0625 L 26.15625 54.71875 L 66 75.90625 L 66 78.8125 L 61.1875 90 L 91.59375 90 L 91.59375 10 L 85.1875 10 L 85.1875 16.40625 L 78.8125 16.40625 L 78.8125 10 L 72.40625 10 L 72.40625 16.40625 L 66 16.40625 L 66 10 L 59.59375 10 z M 78.8125 34 C 80.579694 34 82 35.420301 82 37.1875 L 82 43.59375 L 75.59375 43.59375 L 75.59375 37.1875 C 75.59375 35.420304 77.045299 34 78.8125 34 z M 66 37.90625 L 66 68.65625 L 34.6875 52 L 66 37.90625 z " transform="scale(0.51749734,0.51749734)" id="path2911"/><path style="fill:#000000" d="M 4.3470135,39.12278 4.3470135,46.574733 14.282961,46.574733 11.798976,40.778769 11.798976,39.12278 4.3470245,39.12278 z" id="path2909"/></svg>