<?xml version="1.0" encoding="utf-8"?>
<!-- Generator: Adobe Illustrator 15.1.0, SVG Export Plug-In . SVG Version: 6.00 Build 0)  -->
<!DOCTYPE svg PUBLIC "-//W3C//DTD SVG 1.1//EN" "http://www.w3.org/Graphics/SVG/1.1/DTD/svg11.dtd">
<svg version="1.1" id="Layer_1" xmlns="http://www.w3.org/2000/svg" xmlns:xlink="http://www.w3.org/1999/xlink" x="0px" y="0px"
	 width="100px" height="100px" viewBox="0 0 100 100" enable-background="new 0 0 100 100" xml:space="preserve">
<rect x="75" y="45" width="4" height="19"/>
<polygon points="21,0 21,19 25,19 25,4 75,4 75,19 79,19 79,0 "/>
<polygon points="75,45 75,96 44,96 44,77 25,77 25,45 21,45 21,80 41,100 79,100 79,45 "/>
<rect x="31" y="45" width="38" height="3"/>
<rect x="31" y="56" width="38" height="3"/>
<rect x="31" y="67" width="38" height="3"/>
<path d="M0,21v48h19V59h-9V31h80v28h-9v10h19V21H0z M97,28h-4v-4h4V28z"/>
</svg>
