<svg xmlns="http://www.w3.org/2000/svg" xmlns:xlink="http://www.w3.org/1999/xlink" version="1.1" id="Layer_1" x="0px" y="0px" width="100px" height="100px" viewBox="0 0 100 100" enable-background="new 0 0 100 100" xml:space="preserve">
<polygon points="77.991,31.496 71.363,33.172 28.637,33.172 22.009,31.496 35.155,27.205 26.034,14.268 44.585,20.588 49.979,3.89   55.415,20.588 73.967,14.268 64.845,27.205 "/>
<g id="XMLID_1_">
	<path d="M30.049,64.494c1.003,2.492,1.808,3.408,2.382,5.978c0.584-2.569,1.378-3.485,2.394-5.978   c0.971-2.427-0.475-4.863-2.394-4.863C30.522,59.631,29.078,62.067,30.049,64.494z M65.176,64.494   c1.015,2.492,1.81,3.408,2.394,5.978c0.573-2.569,1.378-3.485,2.382-5.978c0.971-2.427-0.474-4.863-2.382-4.863   C65.65,59.631,64.205,62.067,65.176,64.494z M51.787,46.131c0.97-2.416-0.475-4.853-2.383-4.853c-1.918,0-3.364,2.438-2.393,4.853   c1.015,2.503,1.809,3.408,2.393,5.989C49.978,49.539,50.783,48.635,51.787,46.131z M56.927,55.318   c1.015,2.493,1.809,3.408,2.393,5.979c0.573-2.57,1.379-3.485,2.383-5.979c0.971-2.426-0.475-4.864-2.383-4.864   C57.4,50.455,55.956,52.893,56.927,55.318z M52.261,64.562c0.971-2.427-0.474-4.854-2.393-4.854c-1.908,0-3.353,2.427-2.382,4.854   c1.003,2.492,1.808,3.407,2.382,5.988C50.452,67.969,51.257,67.054,52.261,64.562z M73.117,46.131   c0.98-2.416-0.464-4.853-2.383-4.853s-3.363,2.438-2.383,4.853c1.004,2.503,1.798,3.408,2.383,5.989   C71.319,49.539,72.113,48.635,73.117,46.131z M47.618,82.913c1.004,2.492,1.798,3.408,2.382,5.988   c0.584-2.58,1.379-3.496,2.383-5.988c0.98-2.416-0.464-4.854-2.383-4.854C48.081,78.06,46.636,80.497,47.618,82.913z M42.28,73.736   c0.97-2.414-0.475-4.852-2.382-4.852c-1.919,0-3.364,2.438-2.394,4.852c1.015,2.494,1.809,3.408,2.394,5.99   C40.471,77.145,41.276,76.23,42.28,73.736z M38.298,55.318c1.003,2.493,1.809,3.408,2.382,5.979   c0.585-2.57,1.379-3.485,2.394-5.979c0.97-2.426-0.475-4.864-2.394-4.864C38.772,50.455,37.327,52.893,38.298,55.318z    M57.721,73.736c1.004,2.494,1.808,3.408,2.382,5.99c0.585-2.582,1.39-3.496,2.394-5.99c0.971-2.414-0.474-4.852-2.394-4.852   C58.194,68.885,56.75,71.322,57.721,73.736z M26.883,46.131c1.003,2.503,1.797,3.408,2.382,5.989   c0.584-2.581,1.378-3.485,2.382-5.989c0.982-2.416-0.463-4.853-2.382-4.853C27.346,41.278,25.901,43.716,26.883,46.131z    M71.904,35.676c1.951,1.147,8.535,5.757,8.426,15.529C80.197,62.687,63.19,94.99,50,94.99c-13.191,0-30.197-32.304-30.33-43.785   c-0.11-9.772,6.475-14.382,8.427-15.529c0.342-0.199,0.54-0.298,0.54-0.298H50h21.363C71.363,35.378,71.562,35.477,71.904,35.676z"/>
</g>
</svg>