<svg xmlns="http://www.w3.org/2000/svg" xmlns:xlink="http://www.w3.org/1999/xlink" version="1.1" id="Layer_1" x="0px" y="0px" width="100px" height="100px" viewBox="0 0 100 100" enable-background="new 0 0 100 100" xml:space="preserve">
<path d="M87.633,39.052H73.711C69.565,30.097,60.495,23.874,50,23.874s-19.565,6.223-23.71,15.178H12.367  C17.103,22.735,32.154,10.816,50,10.816C67.846,10.816,82.897,22.735,87.633,39.052z"/>
<path d="M73.711,60.948h13.922C82.897,77.265,67.846,89.184,50,89.184c-17.846,0-32.897-11.919-37.633-28.235H26.29  C30.435,69.903,39.505,76.125,50,76.125S69.565,69.903,73.711,60.948z"/>
<polygon points="88.182,41.162 74.575,41.162 25.425,41.162 11.818,41.162 1.83,41.162 1.83,58.839 11.818,58.839 25.425,58.839   74.575,58.839 88.182,58.839 98.17,58.839 98.17,41.162 "/>
</svg>