<svg xmlns="http://www.w3.org/2000/svg" xmlns:xlink="http://www.w3.org/1999/xlink" version="1.1" id="Layer_1" x="0px" y="0px" width="100px" height="100px" viewBox="0 0 100 100" enable-background="new 0 0 100 100" xml:space="preserve">
<path fill="#000000" d="M90.835,7.925c-0.962-0.371-2.19-0.119-3.062,0.425c-0.617-0.953-0.189-1.389-0.189-1.389  c0.457-0.315,0.571-0.941,0.257-1.397c-0.315-0.456-0.941-0.57-1.396-0.255c-0.316-0.457-0.94-0.57-1.396-0.256  c-0.456,0.315-0.57,0.94-0.257,1.396c-0.455,0.315-0.568,0.94-0.255,1.396c0.316,0.456,0.94,0.571,1.396,0.255  c0,0,0.555-0.245,1.226,0.659c-0.632,0.423-1.781,1.192-3.135,2.1c-0.659-0.983-0.218-1.433-0.218-1.433  c0.455-0.315,0.57-0.94,0.256-1.396c-0.315-0.457-0.94-0.571-1.397-0.256c-0.314-0.456-0.939-0.571-1.396-0.256  c-0.455,0.315-0.57,0.94-0.255,1.396c-0.456,0.315-0.57,0.94-0.255,1.396c0.314,0.456,0.939,0.57,1.396,0.256  c0,0,0.572-0.253,1.257,0.703c-1.013,0.679-2.105,1.411-3.164,2.122c-0.638-0.968-0.202-1.411-0.202-1.411  c0.455-0.315,0.569-0.94,0.255-1.396c-0.315-0.456-0.94-0.57-1.396-0.256c-0.315-0.455-0.941-0.569-1.396-0.255  c-0.456,0.314-0.572,0.94-0.256,1.396c-0.456,0.314-0.571,0.94-0.257,1.395c0.315,0.457,0.941,0.572,1.396,0.256  c0,0,0.565-0.248,1.242,0.682c-1.224,0.821-2.364,1.589-3.238,2.177c-0.689-1.004-0.237-1.463-0.237-1.463  c0.456-0.315,0.571-0.94,0.255-1.396c-0.314-0.457-0.939-0.57-1.395-0.255c-0.316-0.457-0.941-0.571-1.396-0.256  c-0.457,0.314-0.57,0.94-0.256,1.396c-0.456,0.315-0.571,0.94-0.255,1.396c0.313,0.456,0.938,0.571,1.396,0.255  c0,0,0.585-0.257,1.278,0.736c-0.453,0.306-0.781,0.529-0.94,0.639c-1.23,0.852-1.018,1.229-0.59,2.648  c0.424,1.42,0.04,2.101,0.04,2.101L39.02,55.425c-1.423,0.107-2.318-0.622-2.329-2.108c-0.014-1.87,1.754-3.286,2.902-4.542  c0.856-0.938,1.852-2.487,1.023-3.74c-0.629-0.95-2.138-1.138-3.14-0.735c-4.044,1.628-6.847,4.979-8.991,8.66  c-0.865,1.485-1.424,3.1-2.522,4.448c-1.15,1.409-3.273,2.438-4.958,2.996c-3.239,1.072-6.336,1.688-9.099,3.832  c-1.047,0.813-2.162,1.724-2.89,2.846c-1.181,1.821-1.941,3.917-1.983,6.094c-0.074,3.794,1.231,7.307,3.208,10.485  c2.146,3.452,4.574,6.664,7.843,9.015c0.599,0.431,1.226,0.832,1.885,1.202c2.041,1.143,4.447,1.736,6.669,0.741  c2.458-1.103,4.245-3.576,5.205-6.026c1.241-3.171,1.035-6.79,3.516-9.402c1.773-1.867,4.609-2.558,6.772-3.862  c2.096-1.266,4.113-2.854,5.454-4.93c0.73-1.132,1.722-3.152,1.302-4.508c-0.696-2.242-2.923-0.642-4.046,0.141  c-1.369,0.952-4.22,1.158-5.027-0.64c-0.287-0.643-0.215-2.205,0.325-2.769c0.11-0.115,37.061-38.763,37.061-38.763  c3.312-3.312,4.589-1.183,5.002-1.526c0.191-0.159,0.367-0.336,0.538-0.515c0.568-0.596,1.105-1.233,1.576-1.908  c0.313-0.451,0.569-0.94,0.8-1.439c0.376-0.811,0.739-1.624,1.207-2.387c0.444-0.725,0.886-1.64,1.765-1.908  c0.339-0.104,0.688-0.015,1.031,0.012c0.383,0.031,0.769,0,1.147-0.065c1.276-0.222,2.29-1.167,2.567-2.442  c0.087-0.389,0.176-0.896,0.12-1.293c-0.092-0.651-0.409-1.257-0.889-1.704C91.728,8.368,91.264,8.09,90.835,7.925z M36.072,55.988  c0.854,1.376,0.633,3.231,0.73,4.778c0.145,2.331,0.474,5.043,2.457,6.58c1.258,0.975,2.841,1.368,4.401,1.022  c0.883-0.196,1.708-0.618,2.429-1.156c0.37-0.275,1.065-0.95,1.33-0.187c0.485,1.398-1.319,3.275-2.142,4.198  c-1.534,1.721-3.491,2.966-5.567,3.929c-2.047,0.952-4.216,1.773-5.762,3.494c-1.473,1.642-2.098,3.801-2.612,5.896  c-0.417,1.691-0.78,7.199-3.53,6.981c-2.458-0.194-1.642-4.267-1.354-5.713c0.413-2.07,0.902-4.14,0.551-6.259  c-0.075-0.448-0.18-0.89-0.312-1.324c-0.415-1.357-1.093-2.641-1.89-3.806c-1.215-1.776-3.493-3.456-3.923-5.646  c-0.215-1.092,0.3-2.073,0.961-2.907c2.313-2.92,6.427-2.916,9.211-5.192c0.825-0.674,1.523-1.487,2.111-2.374  C33.562,57.701,35.149,54.504,36.072,55.988z"/>
<circle fill="#000000" cx="29.35" cy="82.542" r="1.171"/>
<circle fill="#000000" cx="28.641" cy="85.807" r="0.875"/>
<circle fill="#000000" cx="29.942" cy="79.16" r="1.171"/>
</svg>