<?xml version="1.0" encoding="utf-8"?>
<!-- Generator: Adobe Illustrator 14.0.0, SVG Export Plug-In . SVG Version: 6.00 Build 43363)  -->
<!DOCTYPE svg PUBLIC "-//W3C//DTD SVG 1.0//EN" "http://www.w3.org/TR/2001/REC-SVG-20010904/DTD/svg10.dtd">
<svg version="1.0" id="Layer_1" xmlns="http://www.w3.org/2000/svg" xmlns:xlink="http://www.w3.org/1999/xlink" x="0px" y="0px"
	 width="64.17px" height="100px" viewBox="0 0 64.17 100" enable-background="new 0 0 64.17 100" xml:space="preserve">
<path d="M35.933,36.066V19.393h5.424L32.086,0l-9.272,19.394h5.425v16.673C12.355,37.974,0,51.523,0,67.914
	C0,85.605,14.394,100,32.085,100S64.17,85.605,64.17,67.914C64.17,51.523,51.815,37.974,35.933,36.066z M32.085,92.308
	c-13.45,0-24.393-10.942-24.393-24.394c0-13.452,10.943-24.395,24.393-24.395c13.45,0,24.392,10.942,24.392,24.395
	C56.478,81.365,45.535,92.308,32.085,92.308z"/>
<circle cx="32.085" cy="67.913" r="6.624"/>
</svg>
