<svg xmlns="http://www.w3.org/2000/svg" xmlns:xlink="http://www.w3.org/1999/xlink" version="1.1" id="Layer_1" x="0px" y="0px" width="100.0px" height="100px" viewBox="0 0 102 102" enable-background="new 0 0 102 102" xml:space="preserve">
<g>
	<path fill-rule="evenodd" clip-rule="evenodd" d="M12.069,20.108c0.014-0.003,20.887-5.226,38.927-5.226   c18.025,0,38.915,5.222,38.933,5.227c7.684,1.774,12.475,9.441,10.701,17.125c-1.299,5.626-5.759,9.697-11.069,10.78L72.646,36.463   c-0.317-1.823-0.283-3.737,0.159-5.653c0.259-1.12,0.646-2.177,1.137-3.163c-6.372-0.682-14.532-1.311-22.945-1.311   c-8.411,0-16.568,0.629-22.939,1.311c0.491,0.986,0.879,2.042,1.137,3.163c0.442,1.916,0.477,3.83,0.16,5.653l-25.65,5.921   c-1.085-1.499-1.894-3.234-2.335-5.15C-0.405,29.55,4.386,21.883,12.069,20.108z M68.16,28.664   c3.552,14.234,11.938,26.555,23.321,35.106v23.347H10.511V63.771c11.385-8.552,19.771-20.872,23.321-35.106   c1.835-0.153,3.758-0.293,5.741-0.409v5.947H62.42v-5.947C64.403,28.371,66.325,28.511,68.16,28.664z M68.635,57.72   c0-9.741-7.896-17.639-17.638-17.639S33.357,47.979,33.357,57.72s7.897,17.639,17.639,17.639S68.635,67.461,68.635,57.72z    M62.42,57.72c0,6.309-5.115,11.423-11.423,11.423c-6.309,0-11.423-5.114-11.423-11.423c0-6.309,5.114-11.423,11.423-11.423   C57.305,46.296,62.42,51.411,62.42,57.72z"/>
</g>
</svg>