<svg xmlns="http://www.w3.org/2000/svg" xmlns:xlink="http://www.w3.org/1999/xlink" version="1.1" id="Layer_1" x="0px" y="0px" width="100.0px" height="100px" viewBox="0 0 102 102" enable-background="new 0 0 102 102" xml:space="preserve">
<path d="M99.591,34.772c0,5.864-12.735,12.143-31.695,12.143H62.62H49.768v-2.468H46.95v2.468h-2.701v-2.468h-2.818v2.468h-2.7  v-2.468h-2.818v2.468H21.438H5.519C4.58,46.157,2.91,45.649,1,45.649v5.35c1.91,0,3.58-0.507,4.519-1.266h9.43  c-1.504,1.598-2.433,3.742-2.433,6.104c0,4.92,4.002,8.923,8.922,8.923h14.474v2.468h2.818V64.76h2.7v2.468h2.818V64.76h2.701v2.468  h2.817V64.76H62.62c4.92,0,8.923-4.003,8.923-8.923c0-2.355-0.925-4.495-2.421-6.09c18.278,0.264,30.469,6.393,30.469,12.13H101  V34.772H99.591z M21.438,61.941c-3.366,0-6.104-2.738-6.104-6.104c0-3.365,2.738-6.104,6.104-6.104h14.474v12.208H21.438z   M38.73,61.941V49.733h2.7v12.208H38.73z M44.249,61.941V49.733h2.701v12.208H44.249z M62.62,61.941H49.768V49.733H62.62  c3.366,0,6.104,2.738,6.104,6.104C68.725,59.203,65.986,61.941,62.62,61.941z"/>
</svg>