<svg xmlns="http://www.w3.org/2000/svg" xmlns:xlink="http://www.w3.org/1999/xlink" version="1.1" id="Layer_1" x="0px" y="0px" width="100px" height="100px" viewBox="0 0 100 100" enable-background="new 0 0 100 100" xml:space="preserve">
<g>
	<path fill="#000000" d="M57.701,19.769H23.842c-1.238,0-2.242-1.004-2.242-2.242c0-1.238,1.004-2.243,2.242-2.243h33.859   c1.238,0,2.242,1.004,2.242,2.243C59.943,18.766,58.939,19.769,57.701,19.769z"/>
</g>
<g>
	<path fill="#000000" d="M39.818,27.869h-16.93c-0.619,0-1.12-0.501-1.12-1.121s0.501-1.121,1.12-1.121h16.93   c0.619,0,1.121,0.501,1.121,1.121S40.438,27.869,39.818,27.869z"/>
</g>
<g>
	<path fill="#000000" d="M39.818,46.313h-16.93c-0.619,0-1.12-0.502-1.12-1.121c0-0.619,0.501-1.121,1.12-1.121h16.93   c0.619,0,1.121,0.501,1.121,1.121C40.939,45.812,40.438,46.313,39.818,46.313z"/>
</g>
<g>
	<path fill="#000000" d="M47.593,73.979H22.889c-0.619,0-1.12-0.504-1.12-1.121c0-0.616,0.501-1.121,1.12-1.121h24.704   c0.619,0,1.121,0.505,1.121,1.121C48.714,73.475,48.212,73.979,47.593,73.979z"/>
</g>
<g>
	<path fill="#000000" d="M39.818,64.756h-16.93c-0.619,0-1.12-0.502-1.12-1.121s0.501-1.121,1.12-1.121h16.93   c0.619,0,1.121,0.502,1.121,1.121S40.438,64.756,39.818,64.756z"/>
</g>
<g>
	<path fill="#000000" d="M47.593,37.09H22.889c-0.619,0-1.12-0.501-1.12-1.121c0-0.62,0.501-1.121,1.12-1.121h24.704   c0.619,0,1.121,0.501,1.121,1.121C48.714,36.589,48.212,37.09,47.593,37.09z"/>
</g>
<g>
	<path fill="#000000" d="M39.818,83.199h-16.93c-0.619,0-1.12-0.502-1.12-1.121s0.501-1.119,1.12-1.119h16.93   c0.619,0,1.121,0.5,1.121,1.119S40.438,83.199,39.818,83.199z"/>
</g>
<g>
	<path fill="#000000" d="M57.926,56.656h-33.86c-1.238,0-2.243-1.004-2.243-2.242s1.005-2.242,2.243-2.242h33.859   c1.239,0,2.242,1.004,2.242,2.242S59.165,56.656,57.926,56.656z"/>
</g>
<path fill="#000000" d="M90.279,1.941H7.03H6.975c0,0-1.454,0-6.975,0c0,6.728,6.975,6.783,6.975,13.51c0,6.728,0,72.189,0,72.189  c0,5.743,4.672,10.418,10.417,10.418h53.941c5.744,0,10.417-4.675,10.417-10.418V8.668h8.529c1.65,0,2.992,1.342,2.992,2.993v56.796  c0,1.857,1.506,3.363,3.365,3.363c1.854,0,3.36-1.506,3.36-3.363V11.661C100,6.301,95.641,1.941,90.279,1.941z M75.021,87.641  c0,2.035-1.653,3.691-3.688,3.691H17.392c-2.035,0-3.691-1.656-3.691-3.691V8.668h61.322v78.973H75.021z"/>
</svg>