<svg xmlns="http://www.w3.org/2000/svg" xmlns:xlink="http://www.w3.org/1999/xlink" version="1.1" id="Layer_1" x="0px" y="0px" width="100px" height="100px" viewBox="0 0 100 100" enable-background="new 0 0 100 100" xml:space="preserve">
<path fill="#000000" d="M50,11.167c-21.413,0-38.833,17.42-38.833,38.833c0,21.413,17.42,38.833,38.833,38.833  c21.413,0,38.833-17.42,38.833-38.833C88.833,28.587,71.413,11.167,50,11.167z M37,70.494c-4.139,0-7.494-3.355-7.494-7.494  s3.355-7.494,7.494-7.494c4.139,0,7.494,3.355,7.494,7.494S41.139,70.494,37,70.494z M37,45.494c-4.139,0-7.494-3.355-7.494-7.494  c0-4.139,3.355-7.494,7.494-7.494c4.139,0,7.494,3.355,7.494,7.494C44.494,42.139,41.139,45.494,37,45.494z M62,70.494  c-4.139,0-7.494-3.355-7.494-7.494s3.355-7.494,7.494-7.494s7.494,3.355,7.494,7.494S66.139,70.494,62,70.494z M62,45.494  c-4.139,0-7.494-3.355-7.494-7.494c0-4.139,3.355-7.494,7.494-7.494s7.494,3.355,7.494,7.494C69.494,42.139,66.139,45.494,62,45.494  z"/>
<path fill="#000000" d="M50,0C22.386,0,0,22.386,0,50s22.386,50,50,50s50-22.386,50-50S77.614,0,50,0z M50,92.833  C26.382,92.833,7.167,73.618,7.167,50S26.382,7.167,50,7.167S92.833,26.382,92.833,50S73.618,92.833,50,92.833z"/>
</svg>