<svg xmlns="http://www.w3.org/2000/svg" xmlns:xlink="http://www.w3.org/1999/xlink" version="1.1" id="Layer_1" x="0px" y="0px" width="100px" height="100px" viewBox="0 0 100 100" enable-background="new 0 0 100 100" xml:space="preserve">
<path fill="#000000" d="M54.535,25.722l15.606-13.515L60.071,0H39.929l-10.07,12.207l15.606,13.515  c-18.45,2.239-32.747,17.943-32.747,36.997C12.718,83.309,29.41,100,50,100c20.589,0,37.281-16.691,37.281-37.281  C87.281,43.665,72.983,27.961,54.535,25.722z M65.266,12.674l-10.782,8.5l3.317-8.5H65.266z M58.397,3.084l-1.072,7.688  l-5.103-2.391L58.397,3.084z M47.778,8.381l-5.104,2.391l-1.071-7.688L47.778,8.381z M34.734,12.674h7.464l3.318,8.5L34.734,12.674z   M50,90.526c-15.333,0-27.808-12.475-27.808-27.808S34.667,34.911,50,34.911s27.808,12.475,27.808,27.808S65.333,90.526,50,90.526z"/>
</svg>