<svg xmlns="http://www.w3.org/2000/svg" xmlns:xlink="http://www.w3.org/1999/xlink" version="1.1" id="Layer_1" x="0px" y="0px" width="80.011px" height="100px" viewBox="0 0 80.011 100" enable-background="new 0 0 80.011 100" xml:space="preserve">
<path d="M73.144,14.856c-3.605-3.634-8.613-5.868-14.135-5.868c-2.58,0-5.035,0.513-7.297,1.401l-7.046-7.046l0,0  c-1.442-1.457-3.454-2.345-5.66-2.345c-1.471,0-2.872,0.417-4.051,1.11L33.43,0.583C33.07,0.222,32.557,0,32.016,0  c-1.11,0-1.998,0.888-1.998,1.998c0,0.555,0.208,1.054,0.583,1.415l1.526,1.526c-0.583,0.999-0.957,2.122-1.068,3.343  c-11.277,2.733-18.782,7.712-22.833,15.148C0,38.521,8.989,58.746,16.923,76.599c1.942,4.355,3.829,8.586,5.271,12.4  c-5.507,0-12.387,0-15.175,0C2.011,89,0,100,0,100h60.008c0,0-1.997-11.001-7.005-11.001c-3.76,0-14.898,0-20.169,0  c-1.665-4.979-4.12-10.5-6.77-16.465c-7.005-15.73-14.926-33.556-9.058-44.32c2.857-5.271,9.294-8.878,19.087-10.806l4.3,4.3  c-0.888,2.261-1.387,4.716-1.387,7.296c0,5.521,2.247,10.501,5.854,14.135l9.904-9.904c1.082,1.082,2.594,1.762,4.244,1.762  c3.315,0,5.992-2.691,5.992-5.993c0-1.665-0.666-3.163-1.747-4.245L73.144,14.856z"/>
<g>
	<path d="M57.011,47.996c0,1.11,0.889,1.998,1.998,1.998s1.998-0.888,1.998-1.998V37.994h-3.996V47.996z"/>
	<path d="M78.013,26.994H68.012v4.009h10.001c1.096,0,1.998-0.902,1.998-1.998C80.011,27.896,79.109,26.994,78.013,26.994z"/>
	<path d="M74.421,41.573l-7.075-7.047l-2.829,2.816l7.088,7.061c0.777,0.791,2.025,0.791,2.816,0c0.776-0.777,0.776-2.039,0-2.816   V41.573z"/>
</g>
</svg>