<svg xmlns="http://www.w3.org/2000/svg" xmlns:xlink="http://www.w3.org/1999/xlink" version="1.1" id="Layer_1" x="0px" y="0px" width="100.001px" height="74.65px" viewBox="0 0 100.001 74.65" enable-background="new 0 0 100.001 74.65" xml:space="preserve">
<g>
	<path d="M32.13,63.808c2.649-1.998,6.436-1.471,8.434,1.192c1.997,2.678,1.457,6.45-1.207,8.434   c-2.663,2.012-6.45,1.471-8.434-1.192C28.926,69.578,29.467,65.791,32.13,63.808z"/>
	<path d="M35.348,61.394c1.831-1.387,7.421-1.816,7.421-1.816l3.62,4.827c0,0-1.97,5.243-3.814,6.63   c-1.623,1.207-3.218,2.399-3.218,2.399l-7.227-9.626C32.13,63.808,33.739,62.601,35.348,61.394z"/>
</g>
<polygon points="96.382,19.42 100.001,24.247 47.985,63.197 44.378,58.384 "/>
<path d="M30.715,74.641c-8.031-8.031-1.47-19.059,8.794-33.291C49.747,27.118,46.084,4.037,19.383,0  c3.287,6.229,9.89,16.84-11.999,34.761c-9.848,9.099-8.835,19.808-2.857,27.839C9.839,69.758,22.684,73.643,30.715,74.641z"/>
</svg>