<svg xmlns="http://www.w3.org/2000/svg" xmlns:xlink="http://www.w3.org/1999/xlink" version="1.1" id="Noun_Project" x="0px" y="0px" width="100px" height="53.7102473498px" viewBox="104.179 63.571 283.465 152.001" enable-background="new 104.179 63.571 283.465 152.001" xml:space="preserve">
<path id="Egg" d="M347.563,116.246c-4.078-23.449-24.113-33.259-48.753-36.761c-12.562-9.229-29.128-14.851-47.264-14.851  c-19.575,0-37.325,6.546-50.182,17.114c-0.229,0.002-0.466,0.006-0.691,0.006c-93.056,0-57.033,29.654-57.033,46.611  c0,16.957-35.305,34.169-37.373,53.194c-2.067,19.023,25.258,44.491,112.483,27.214c84.371-16.713,166.911,15.723,166.911-32.656  C385.662,155.941,352.487,144.558,347.563,116.246z M213.677,81.217c10.633-6.241,23.724-9.931,37.869-9.931  c11.579,0,22.453,2.472,31.85,6.792c19.397,8.916,32.499,25.711,32.499,44.919c0,6.889-6.521,13.857-17.892,19.116  c-12.354,5.715-28.854,8.862-46.457,8.862c-17.604,0-34.103-3.147-46.456-8.862c-11.371-5.259-17.892-12.227-17.892-19.116  C187.198,105.851,197.639,90.63,213.677,81.217z"/>
</svg>