<svg xmlns="http://www.w3.org/2000/svg" xmlns:xlink="http://www.w3.org/1999/xlink" version="1.1" id="Capa_1" x="0px" y="0px" width="100px" height="100px" viewBox="0 0 100 100" enable-background="new 0 0 100 100" xml:space="preserve">
<g>
	<path d="M41.439,25.125L23.668,42.91c-6.455,6.455-6.455,16.914,0,23.369c0.562,0.57,1.188,1.012,1.803,1.473l-7.537,21.33   c-0.654,1.838,0.306,3.871,2.158,4.523c0.387,0.127,0.784,0.192,1.178,0.192c1.459,0,2.827-0.905,3.333-2.36l7.218-20.386V94.65   c0,1.955,1.586,3.537,3.537,3.537c1.961,0,3.543-1.582,3.543-3.537V71.13l7.176,20.281c0.514,1.453,1.881,2.354,3.336,2.354   c0.397,0,0.795-0.065,1.192-0.197c1.838-0.651,2.806-2.682,2.154-4.522l-7.534-21.282c0.626-0.457,1.259-0.914,1.821-1.484   l17.771-17.775c6.457-6.455,6.457-16.924,0-23.379C58.363,18.67,47.897,18.67,41.439,25.125z M35.357,66.533   c-6.592,0-11.936-5.344-11.936-11.939c0-6.589,5.344-11.933,11.936-11.933c6.599,0,11.942,5.344,11.942,11.933   C47.3,61.189,41.956,66.533,35.357,66.533z"/>
	<path d="M82.213,8.158c-0.141-0.425-0.523-0.738-0.975-0.805l-4.695-0.689L74.439,2.4c-0.222-0.426-0.699-0.588-1.082-0.588   S72.496,1.975,72.285,2.4l-2.109,4.264l-4.699,0.689c-0.451,0.066-0.83,0.38-0.975,0.819c-0.141,0.437-0.021,0.903,0.309,1.22   l3.4,3.315l-0.799,4.696c-0.084,0.451,0.105,0.908,0.479,1.168c0.365,0.273,0.865,0.316,1.256,0.092l4.211-2.205l4.213,2.205   c0.4,0.225,0.902,0.168,1.266-0.092c0.365-0.26,0.553-0.717,0.479-1.168l-0.81-4.696l3.399-3.315   C82.234,9.076,82.354,8.609,82.213,8.158z"/>
	<path d="M37.449,52.213l-1.386-2.801c-0.141-0.289-0.457-0.385-0.706-0.385c-0.246,0-0.566,0.096-0.703,0.385l-1.379,2.801   l-3.083,0.436c-0.288,0.054-0.538,0.263-0.636,0.545c-0.088,0.298-0.011,0.593,0.203,0.81l2.226,2.166l-0.521,3.076   c-0.053,0.295,0.07,0.603,0.303,0.772c0.246,0.176,0.576,0.207,0.83,0.062l2.76-1.453l2.76,1.453   c0.26,0.146,0.598,0.104,0.829-0.065c0.239-0.166,0.362-0.474,0.313-0.769l-0.527-3.076l2.229-2.166   c0.222-0.217,0.295-0.512,0.197-0.81c-0.088-0.282-0.338-0.491-0.633-0.545L37.449,52.213z"/>
</g>
</svg>