<svg xmlns="http://www.w3.org/2000/svg" xmlns:xlink="http://www.w3.org/1999/xlink" version="1.1" id="Capa_1" x="0px" y="0px" width="100px" height="100px" viewBox="0 0 100 100" enable-background="new 0 0 100 100" xml:space="preserve">
<path d="M50.028,20.785c-22.3-0.018-40.44,13.067-40.44,29.18C9.57,66.066,27.704,79.197,49.982,79.215  c22.29,0.024,40.43-13.066,40.43-29.169C90.43,33.923,72.307,20.803,50.028,20.785z M35.126,36.711  c0.653-0.608,1.662-0.573,2.271,0.085c1.628,1.761,3.843,2.738,6.255,2.738c2.081,0,4-0.714,5.547-2.096l1.065-0.938l1.054,0.938  c1.568,1.382,3.514,2.103,5.63,2.103c2.208,0.007,4.25-0.776,5.747-2.2c0.63-0.612,1.646-0.595,2.254,0.042  c0.623,0.646,0.598,1.666-0.045,2.271c-2.086,2.001-4.915,3.104-7.956,3.104c-2.415,0-4.739-0.734-6.684-2.074  c-1.93,1.357-4.197,2.061-6.612,2.061c-3.319,0-6.378-1.34-8.621-3.769C34.44,38.317,34.479,37.298,35.126,36.711z M71.839,56.177  c-2.108,2.109-4.995,3.263-8.131,3.257c-2.511,0-4.888-0.768-6.858-2.19c-1.935,1.424-4.317,2.184-6.855,2.184  c-2.422-0.007-4.742-0.737-6.68-2.077c-1.93,1.356-4.205,2.061-6.62,2.061c-3.315,0-6.366-1.348-8.616-3.77  c-0.598-0.649-0.556-1.666,0.098-2.274c0.654-0.599,1.66-0.552,2.275,0.103c1.624,1.754,3.85,2.731,6.254,2.731  c2.074,0,4.001-0.726,5.541-2.097l1.068-0.949l1.068,0.949c1.547,1.371,3.48,2.104,5.618,2.109c2.215,0,4.251-0.783,5.73-2.207  l1.094-1.062l1.113,1.049c1.559,1.456,3.556,2.229,5.771,2.229c2.239,0,4.392-0.83,5.867-2.32c0.64-0.629,1.651-0.618,2.278,0  C72.479,54.535,72.469,55.552,71.839,56.177z"/>
</svg>