<?xml version="1.0" encoding="utf-8"?>
<!-- Generator: Adobe Illustrator 14.0.0, SVG Export Plug-In . SVG Version: 6.00 Build 43363)  -->
<!DOCTYPE svg PUBLIC "-//W3C//DTD SVG 1.0//EN" "http://www.w3.org/TR/2001/REC-SVG-20010904/DTD/svg10.dtd">
<svg version="1.0" id="Layer_1" xmlns="http://www.w3.org/2000/svg" xmlns:xlink="http://www.w3.org/1999/xlink" x="0px" y="0px"
	 width="100px" height="61.995px" viewBox="0 0 100 61.995" enable-background="new 0 0 100 61.995" xml:space="preserve">
<g>
	<path d="M0,27.466L48.484,8.207v7.605L8.835,30.977l39.649,15.202v7.611L0,34.487V27.466z"/>
</g>
<g>
	<path d="M62.688,56.125c-3.213-3.917-4.818-8.677-4.818-14.29h7.912c0.336,3.898,1.066,6.733,2.188,8.502
		c1.963,3.171,5.514,4.755,10.648,4.755c3.983,0,7.182-1.066,9.597-3.198c2.412-2.131,3.618-4.883,3.618-8.248
		c0-4.152-1.271-7.056-3.809-8.712c-2.54-1.658-6.067-2.484-10.584-2.484c-0.506,0-1.018,0.008-1.537,0.021
		c-0.519,0.013-1.047,0.035-1.578,0.063v-6.693c0.785,0.083,1.444,0.141,1.979,0.169c0.532,0.026,1.108,0.042,1.726,0.042
		c2.832,0,5.162-0.448,6.985-1.346c3.2-1.573,4.799-4.377,4.799-8.417c0-3.004-1.067-5.318-3.199-6.944
		c-2.133-1.627-4.616-2.442-7.449-2.442c-5.05,0-8.542,1.683-10.479,5.052c-1.067,1.851-1.67,4.489-1.812,7.912h-7.49
		c0-4.489,0.896-8.307,2.692-11.448C65.165,2.805,70.593,0,78.365,0c6.146,0,10.903,1.367,14.269,4.104
		c3.368,2.734,5.051,6.698,5.051,11.889c0,3.704-0.997,6.708-2.988,9.006c-1.235,1.433-2.834,2.553-4.798,3.366
		c3.17,0.871,5.646,2.547,7.429,5.032c1.782,2.479,2.673,5.519,2.673,9.11c0,5.752-1.895,10.438-5.682,14.057
		c-3.788,3.621-9.162,5.43-16.119,5.43C71.07,61.995,65.9,60.038,62.688,56.125z"/>
</g>
</svg>
