<svg xmlns="http://www.w3.org/2000/svg" xmlns:xlink="http://www.w3.org/1999/xlink" version="1.1" id="Capa_1" x="0px" y="0px" width="100px" height="100px" viewBox="0 0 100 100" enable-background="new 0 0 100 100" xml:space="preserve">
<path d="M70.523,28.466l4.451-4.44c1.325-1.336,3.656-1.346,4.992,0c1.379,1.382,1.379,3.611,0,4.992l-4.451,4.447  c-0.656,0.661-1.547,1.037-2.496,1.037c-0.955,0-1.877-0.397-2.53-1.072c-0.64-0.64-1.009-1.529-1.009-2.479  C69.491,30.013,69.855,29.123,70.523,28.466z M46.471,15.148c0-1.951,1.582-3.533,3.522-3.533c1.955,0,3.536,1.582,3.536,3.533  v6.286c0,1.948-1.581,3.53-3.536,3.53c-1.94,0-3.522-1.582-3.522-3.53V15.148z M49.723,29.345c13.552,0,24.539,10.993,24.539,24.539  c0,0.657-0.046,1.308-0.088,1.958h-6.497c0.081-0.643,0.128-1.301,0.128-1.958c0-9.96-8.107-18.07-18.082-18.07  c-9.967,0-18.06,8.11-18.06,18.07c0,0.657,0.042,1.315,0.112,1.958h-6.497c-0.042-0.65-0.077-1.301-0.077-1.958  C25.201,40.338,36.188,29.345,49.723,29.345z M20.033,24.025c1.336-1.354,3.674-1.336,4.999,0.011l4.44,4.454  c0.657,0.633,1.03,1.512,1.037,2.451c0.007,0.959-0.358,1.856-1.037,2.531c-0.65,0.661-1.536,1.03-2.496,1.03  c-0.938,0-1.828-0.362-2.496-1.03l-4.447-4.455c-0.661-0.65-1.026-1.529-1.026-2.479C18.996,25.597,19.365,24.704,20.033,24.025z   M7.623,53.989c0-1.944,1.582-3.526,3.522-3.526h6.293c1.955,0,3.537,1.582,3.537,3.526c0,1.948-1.582,3.54-3.537,3.54h-6.293  C9.205,57.529,7.623,55.938,7.623,53.989z M28.886,86.438H13.424c-0.51,0-0.984-0.267-1.259-0.695  c-0.253-0.422-0.281-0.967-0.049-1.413l11.731-23.724c0.246-0.5,0.763-0.815,1.318-0.815h15.462c0.506,0,0.984,0.253,1.244,0.692  c0.274,0.433,0.303,0.967,0.063,1.416L30.209,85.619C29.965,86.122,29.448,86.438,28.886,86.438z M49.712,86.438H34.236  c-0.499,0-0.978-0.267-1.237-0.695c-0.274-0.422-0.292-0.977-0.07-1.413l11.742-23.724c0.246-0.5,0.752-0.815,1.314-0.815h15.462  c0.521,0,0.984,0.253,1.259,0.692c0.26,0.433,0.288,0.967,0.06,1.416L51.023,85.619C50.788,86.122,50.274,86.438,49.712,86.438z   M83.589,61.898L71.848,85.619c-0.246,0.503-0.761,0.818-1.322,0.818H55.066c-0.518,0-0.984-0.267-1.256-0.695  c-0.268-0.422-0.291-0.977-0.062-1.413l11.734-23.724c0.254-0.5,0.752-0.815,1.326-0.815h15.457c0.514,0,0.979,0.253,1.252,0.692  C83.777,60.915,83.807,61.449,83.589,61.898z M88.852,57.529h-6.304c-1.94,0-3.528-1.592-3.528-3.54  c0-1.944,1.588-3.526,3.528-3.526h6.304c1.944,0,3.526,1.582,3.526,3.526C92.378,55.938,90.796,57.529,88.852,57.529z"/>
</svg>