<svg xmlns="http://www.w3.org/2000/svg" xmlns:xlink="http://www.w3.org/1999/xlink" version="1.1" id="Capa_1" x="0px" y="0px" width="100px" height="100px" viewBox="0 0 100 100" enable-background="new 0 0 100 100" xml:space="preserve">
<g>
	<path d="M19.101,25.929c1.406-1.919,2.978-3.719,4.7-5.354c7.066-6.67,16.956-10.688,26.729-10.354   c10.256,0.352,20.029,4.38,27.177,11.865l-4.915,4.661c-6.335-6.658-15.546-10.279-24.722-9.717   c-8.947,0.562-17.325,4.939-22.834,12.002l2.837,1.441L16.77,37.844L16.042,24.39L19.101,25.929z M73.775,49.188   c0,13.244-10.801,24.012-24.071,24.012c-13.265,0-24.047-10.769-24.047-24.012c0-2.369,0.358-4.753,1.044-7.06   c0.123-0.407,0.527-0.661,0.942-0.611c0.281,0.046,0.499,0.218,0.622,0.457c1.382,1.417,3.228,2.19,5.214,2.19   c1.74,0,3.329-0.573,4.623-1.652c0.306-0.415,1.009-0.45,1.354-0.053c1.308,1.125,2.942,1.705,4.711,1.705   c1.881,0,3.61-0.679,4.922-1.916c0.246-0.246,0.604-0.316,0.921-0.187c0.151,0.073,0.274,0.187,0.362,0.316   c1.308,1.153,3.013,1.786,4.815,1.786c1.905,0,3.728-0.731,5.027-2.015c0.246-0.253,0.615-0.323,0.932-0.193   c0.158,0.07,0.289,0.179,0.377,0.312c1.312,1.228,3.059,1.896,4.914,1.896c1.854,0,3.656-0.714,4.976-1.966   c0.334-0.302,0.844-0.302,1.167-0.014c0.115,0.105,0.238,0.288,0.292,0.439C73.471,44.77,73.775,46.984,73.775,49.188z    M46.582,89.798l-0.218-3.421c-16.218-1.554-29.9-13.454-33.574-29.443c-1.54-6.65-1.266-13.612,0.798-20.099l6.444,2.053   c-1.688,5.337-1.927,11.05-0.668,16.53c2.953,12.797,13.683,22.416,26.561,24.098l-0.222-3.18l12.111,5.975L46.582,89.798z    M58.57,85.568l-1.52-6.596c16.883-3.886,27.465-20.781,23.572-37.656c-0.422-1.804-0.995-3.579-1.723-5.264l-2.631,1.79l-1-13.45   l12.164,5.86l-2.848,1.927c1.125,2.43,2.021,4.985,2.63,7.622C91.934,60.302,79.096,80.84,58.57,85.568z"/>
</g>
</svg>