<svg xmlns="http://www.w3.org/2000/svg" xmlns:xlink="http://www.w3.org/1999/xlink" version="1.1" id="Layer_1" x="0px" y="0px" width="100px" height="100px" viewBox="0 0 100 100" enable-background="new 0 0 100 100" xml:space="preserve">
<g>
	<path d="M1.127,44.212c0-1.445,1.15-2.655,2.686-2.954v5.909C2.278,46.867,1.127,45.66,1.127,44.212L1.127,44.212z M18.374,45.977   c7.667,0.019,14.99,0.617,21.624,1.696c-14.856-6.044-22.021-5.295-22.021-5.295c-1.711,0.05-2.371,0.876-2.272,1.871   C15.805,45.242,16.662,46.029,18.374,45.977L18.374,45.977z M22.93,61.876c-1.711,0.053-2.569-0.736-2.669-1.73   c-0.047-0.477,0.082-0.917,0.418-1.252c-7.77-1.114-13.431-3.26-16.158-4.862V41.509c0-1.201,0.448-1.944,1.308-1.944h10.04h4.395   l-3.276-11.701c-1.22-0.032-2.449-0.051-3.689-0.053c-1.709,0.048-2.566-0.737-2.667-1.73c-0.1-0.992,0.561-1.819,2.27-1.872   c0,0,7.165-0.749,22.023,5.296c-4.594-0.747-9.515-1.263-14.652-1.516l3.242,11.576h8.013c0.907,1.681,3.042,2.914,5.309,2.914   c2.27,0,3.96-1.233,4.242-2.914h0.585l49.678,5.356c-3.037-0.8-5.744-3.874-6.406-7.544c-0.764-4.257,1.498-7.711,5.098-7.748   c3.889,0.141,7.732,4.27,8.645,9.35c0.814,4.511-0.992,8.282-4.066,9.167C75.42,53.256,57.586,59.399,32.729,59.63   c3.182,0.791,7.116,2.024,11.826,3.939C37.919,62.491,30.598,61.894,22.93,61.876L22.93,61.876z M13.144,70.903   c0-3.742,3.033-6.773,6.771-6.773c3.742,0,6.773,3.031,6.773,6.773c0,3.738-3.031,6.771-6.773,6.771   C16.176,77.675,13.144,74.642,13.144,70.903L13.144,70.903z"/>
</g>
</svg>