<svg xmlns="http://www.w3.org/2000/svg" xmlns:xlink="http://www.w3.org/1999/xlink" version="1.1" id="Layer_1" x="0px" y="0px" width="100px" height="100px" viewBox="0 0 100 100" enable-background="new 0 0 100 100" xml:space="preserve">
<path d="M78.145,94.255L64.9,30.442c4.664-5.837,12.566-10.411,12.566-10.411l3.015-10.451L57.823,8.736l-1.462-8.018L34.34,53.39  L22.478,90.057c-2.164-1.028-6.174-3.531-10.188-9.166c0,0-1.592,9.185,2.641,14.404C16.625,97.386,19.961,99,19.961,99h11.696  H50.27h24.481c0-5.626-14.593-6.731-14.593-6.731c0-0.888-0.061-2.269-0.167-2.269h-0.163c0,0,0.033-1.654-0.617-3.688  c-0.02-0.062-0.037-0.264-0.059-0.324c-0.034-0.104-0.074-0.284-0.114-0.393c-0.388-1.052-0.86-2.067-1.403-2.976  c-2.237-3.713-6.753-8.108-15.88-10.865l1.422-2.558c0,0,10.452,2.241,16.018,9.799l3.149-10.657L70.141,92c0.01,0,0.021,0,0.031,0  c0.101,0,7.585,2.08,7.585,7h4.709C82.466,99,81.57,95.521,78.145,94.255z"/>
</svg>