<svg xmlns="http://www.w3.org/2000/svg" xmlns:xlink="http://www.w3.org/1999/xlink" version="1.2" baseProfile="tiny" id="Layer_1" x="0px" y="0px" width="100.0px" height="100px" viewBox="0 0 120 120" xml:space="preserve">
<path fill="#000000" d="M81.287,59.17l-0.04-22.556c2.385-2.786,3.836-6.394,3.836-10.34c0-8.784-7.146-15.93-15.931-15.93  c-8.784,0-15.93,7.146-15.93,15.93c0,4.371,1.772,8.335,4.633,11.217L57.83,51.82h-0.214l-6.841-3.95v3.95H37.874  c-0.874-1.836-2.74-3.108-4.909-3.108c-3.004,0-5.439,2.435-5.439,5.439c0,3.004,2.436,5.439,5.439,5.439  c2.169,0,4.035-1.272,4.909-3.108h12.901v3.95l6.841-3.95h0.206l-0.004,2.688c0,13.21-13.224,18.001-13.224,32.506  c0,13.341,11.315,18.667,22.617,18.667v-1.958c-10.372,0-16.548-7.253-16.548-16.709c0-12.433,15.375-17.483,15.375-31.211  l0.005-3.983h7.02l0.005,3.983c0,13.728,15.375,18.779,15.375,31.211c0,9.456-6.176,16.709-16.548,16.709v1.958  c11.302,0,22.617-5.326,22.617-18.667C94.511,77.172,81.287,72.381,81.287,59.17z M69.152,15.783  c5.785,0,10.491,4.706,10.491,10.491c0,5.784-4.706,10.49-10.491,10.49c-5.784,0-10.49-4.706-10.49-10.49  C58.662,20.489,63.368,15.783,69.152,15.783z M66.048,51.82l0.013-9.923c1.001,0.198,2.034,0.307,3.092,0.307  c1.345,0,2.643-0.186,3.891-0.5l0.013,10.117H66.048z"/>
</svg>