<svg xmlns="http://www.w3.org/2000/svg" xmlns:xlink="http://www.w3.org/1999/xlink" version="1.2" baseProfile="tiny" id="Layer_1" x="0px" y="0px" width="100.0px" height="100px" viewBox="0 0 120 120" xml:space="preserve">
<path d="M82.034,31.784C82.034,19.615,72.169,9.75,60,9.75s-22.034,9.865-22.034,22.034c-2.809,0-5.085,2.277-5.085,5.085  s2.276,5.085,5.085,5.085c0.798,0,1.551-0.189,2.224-0.518c3.578,7.331,36.042,7.331,39.621,0c0.672,0.328,1.425,0.518,2.224,0.518  c2.808,0,5.084-2.277,5.084-5.085S84.842,31.784,82.034,31.784z"/>
<g>
	<path d="M46.818,66.792c3.379,5.036,7.924,9.031,13.182,11.713c5.258-2.682,9.803-6.677,13.182-11.713   c-4.521-0.135-8.979-1.014-13.182-2.59C55.797,65.778,51.34,66.657,46.818,66.792z"/>
	<path d="M41.107,49.699l3.937,14.146c0.128,0.236,0.256,0.473,0.388,0.705c0.054,0.001,0.107,0.003,0.161,0.003   c3.908,0,7.71-0.574,11.315-1.664c-0.996-0.47-1.974-0.976-2.93-1.527C48.91,58.44,44.512,54.442,41.107,49.699z"/>
	<path d="M55.928,78.738c-3.413-2.176-6.431-4.875-8.959-7.979l2.591,9.309c0.232,0.578,0.478,1.148,0.738,1.707   c2.485-0.449,4.889-1.159,7.18-2.106C56.956,79.37,56.438,79.063,55.928,78.738z"/>
	<path d="M66.021,61.361c-0.955,0.552-1.935,1.058-2.93,1.527c3.604,1.09,7.407,1.664,11.315,1.664c0.054,0,0.106-0.002,0.16-0.003   c0.078-0.136,0.151-0.275,0.228-0.413l3.969-14.258C75.376,54.543,71.025,58.477,66.021,61.361z"/>
	<path d="M64.071,78.738c-0.509,0.325-1.026,0.632-1.549,0.931c2.291,0.947,4.694,1.657,7.179,2.106   c0.171-0.364,0.334-0.733,0.492-1.104l2.717-9.762C70.406,73.951,67.43,76.598,64.071,78.738z"/>
	<path d="M60,61.807c6.929-2.76,12.956-7.516,17.352-13.842C71.749,50.355,63.989,50.701,60,50.701   c-3.991,0-11.752-0.347-17.355-2.741C47.041,54.289,53.07,59.046,60,61.807z"/>
	<path d="M67.845,89.11c-1.717,2.221-3.703,4.234-5.938,5.989c1.185,0.762,2.423,1.441,3.703,2.04L67.845,89.11z"/>
	<path d="M52.033,88.956l2.287,8.218c1.305-0.606,2.566-1.299,3.773-2.074C55.807,93.304,53.777,91.239,52.033,88.956z"/>
	<path d="M60,96.496c-1.618,1.103-3.317,2.051-5.075,2.852l2.199,7.9c0.587,1.995,1.863,2.502,2.837,2.502   c0.972,0,2.25-0.507,2.836-2.502l2.208-7.933C63.271,98.521,61.597,97.584,60,96.496z"/>
	<path d="M68.636,83.859c-2.985-0.603-5.883-1.566-8.636-2.874c-2.753,1.308-5.65,2.271-8.635,2.874   c2.195,3.934,5.147,7.289,8.635,9.914C63.488,91.148,66.439,87.793,68.636,83.859z"/>
</g>
</svg>