<svg xmlns="http://www.w3.org/2000/svg" xmlns:xlink="http://www.w3.org/1999/xlink" version="1.1" id="Layer_1" x="0px" y="0px" width="100px" height="100px" viewBox="0 0 100 100" enable-background="new 0 0 100 100" xml:space="preserve">
<path d="M2.452,24.172l73.911,73.911c0.359,0.358,0.941,0.357,1.301-0.001c0.359-0.359,0.359-0.943,0.002-1.302l-6.286-6.286  c0.297-0.076,0.578-0.229,0.812-0.463l18.121-18.12c0.235-0.236,0.39-0.524,0.465-0.829l6.072,6.069  c0.359,0.359,0.941,0.358,1.301,0c0.36-0.359,0.36-0.941,0-1.301L24.238,1.939c-0.358-0.359-0.94-0.358-1.3,0  c-0.358,0.36-0.359,0.942,0,1.301l6.069,6.07c-0.304,0.077-0.592,0.23-0.829,0.467l-18.12,18.12  c-0.233,0.233-0.386,0.516-0.463,0.813l-5.84-5.841c-0.358-0.359-0.942-0.358-1.302,0C2.094,23.229,2.093,23.813,2.452,24.172z   M22.54,38.356c1.631,1.63,2.488,3.743,2.581,5.878l-8.461-8.461C18.795,35.867,20.907,36.722,22.54,38.356z M41.808,57.624  c1.633,1.633,2.49,3.744,2.583,5.881l-8.462-8.463C38.065,55.137,40.176,55.991,41.808,57.624z M77.244,61.236  c-1.734-1.733-2.595-4.008-2.591-6.279l8.871,8.869C81.251,63.83,78.979,62.97,77.244,61.236z M57.318,41.311  c-1.734-1.734-2.595-4.008-2.591-6.28l8.869,8.867C61.324,43.904,59.051,43.043,57.318,41.311z M38.047,22.04  c-1.733-1.734-2.594-4.008-2.588-6.279l8.868,8.868C42.056,24.635,39.78,23.772,38.047,22.04z M64.315,83.43l-8.46-8.46  c2.136,0.092,4.247,0.95,5.879,2.58C63.367,79.183,64.224,81.295,64.315,83.43z"/>
</svg>