<svg xmlns="http://www.w3.org/2000/svg" xmlns:xlink="http://www.w3.org/1999/xlink" version="1.1" id="Layer_1" x="0px" y="0px" width="100px" height="100px" viewBox="0 0 100 100" enable-background="new 0 0 100 100" xml:space="preserve">
<path fill="none" d="M69.959,77.528c3.512-0.48,6.502-5.446,7.09-9.786c0.282-2.077-0.078-3.711-0.897-4.062  c-0.404-0.173-3.716-1.098-13.275,9.182C65.255,76.214,67.673,77.836,69.959,77.528z"/>
<path fill="none" d="M59.591,52.82c-0.873,3.432-2.564,5.852-4.999,6.893c-0.866,0.375-1.788,0.557-2.747,0.557  c-2.177,0-4.569-0.944-7.063-2.764c4.612,5.954,8.984,8.252,11.487,7.259C58.381,63.924,60.043,60.27,59.591,52.82z"/>
<path d="M75.196,82.813c-4.158,0-7.527,3.372-7.527,7.527c0,0.604,0.072,1.19,0.206,1.751c-6.564,3.023-12.551,3.082-14.914,0.687  c-2.227-2.26-0.968-6.845,3.37-12.267c1.499-1.88,2.897-3.549,4.195-5.039c3.751,4.937,7.282,5.84,9.897,5.484  c5.311-0.723,9.282-7.05,10.056-12.747c0.523-3.868-0.558-6.679-2.964-7.709c-3.629-1.554-9.17,1.579-16.526,9.32  c-0.563-1.021-1.116-2.141-1.666-3.351c4.187-3.758,4.588-13.63,1.013-27.769c-2.54-10.043-5.204-18.498-7.923-25.128  c-0.612-1.495-1.914-3.807-2.959-5.664c-0.531-0.947-0.992-1.765-1.233-2.245c-1.166-2.328-2.601-3.553-4.263-3.644  c-0.797-0.042-1.495,0.192-2.077,0.526c-0.375-0.205-0.806-0.322-1.265-0.322c-1.456,0-2.637,1.18-2.637,2.639  c0,1.456,1.182,2.636,2.637,2.636c1.272,0,2.335-0.901,2.583-2.1c0.204-0.16,0.418-0.279,0.591-0.268  c0.323,0.018,0.948,0.533,1.646,1.927c0.275,0.549,0.751,1.396,1.305,2.378c1.002,1.782,2.249,4,2.79,5.319  c2.663,6.494,5.283,14.808,7.787,24.709c0.682,2.698,1.194,5.148,1.565,7.373c-0.026,5.977-1.729,10.273-4.836,11.604  c-3.342,1.431-7.869-0.724-12.583-5.826c-0.319-0.534-0.639-1.081-0.958-1.65c-2.669-4.776-6.675-10.733-11.904-17.706  c-1.027-1.369-2.931-3.542-4.611-5.459c-1.226-1.398-2.382-2.718-2.976-3.471c-0.761-0.966-0.634-1.565-0.593-1.762  c0.145-0.68,0.756-1.307,1.3-1.734c0.194,0.049,0.398,0.077,0.607,0.077c1.402,0,2.538-1.136,2.538-2.538  c0-1.403-1.136-2.539-2.538-2.539c-1.401,0-2.537,1.136-2.537,2.539c0,0.004,0,0.007,0,0.012c-0.921,0.722-2.062,1.903-2.413,3.517  c-0.221,1.019-0.194,2.603,1.189,4.356c0.644,0.817,1.827,2.166,3.079,3.596c1.644,1.875,3.507,4.001,4.463,5.274  c5.145,6.862,9.073,12.703,11.675,17.357c5.501,9.845,11.984,15.627,17.218,15.627c0.413,0,0.818-0.038,1.213-0.11  c0.775,1.698,1.551,3.189,2.321,4.492c-1.564,1.768-3.203,3.718-4.913,5.855c-7.981,9.984-4.847,15.114-3.129,16.858  c1.849,1.875,4.61,2.776,7.857,2.776c3.342,0,7.195-0.961,11.09-2.788c1.381,1.633,3.444,2.675,5.752,2.675  c4.157,0,7.527-3.371,7.527-7.53C82.724,86.185,79.354,82.813,75.196,82.813z M76.151,63.681c0.819,0.351,1.18,1.984,0.897,4.062  c-0.588,4.34-3.578,9.306-7.09,9.786c-2.286,0.308-4.704-1.314-7.083-4.666C72.436,62.583,75.747,63.508,76.151,63.681z   M44.782,57.506c2.494,1.819,4.886,2.764,7.063,2.764c0.959,0,1.881-0.182,2.747-0.557c2.435-1.041,4.126-3.461,4.999-6.893  c0.452,7.449-1.21,11.104-3.321,11.944C53.767,65.758,49.395,63.46,44.782,57.506z"/>
</svg>