<svg xmlns="http://www.w3.org/2000/svg" xmlns:xlink="http://www.w3.org/1999/xlink" version="1.2" baseProfile="tiny" id="Layer_2" x="0px" y="0px" width="100.0px" height="100px" viewBox="0 0 120 120" xml:space="preserve">
<g>
	<path d="M46.018,20.248c2.695,2.094,9.5,2.837,14.508,2.837c1.586,0,3.166-0.068,4.696-0.202c6.921-0.604,10.89-2.31,10.891-4.68   c0-0.017,0.009-0.031,0.01-0.047c-0.087-0.684-0.433-1.514-1.434-2.292c-1.736-1.349-4.981-2.142-8.429-2.541l-0.003,4.21   c-0.038,1.197-1.439,1.909-4.166,2.146c-0.522,0.046-1.065,0.069-1.612,0.069c-1.843,0-4.174-0.281-5.189-1.069   c-0.519-0.404-0.628-0.858-0.628-1.167V13.32c-4.236,0.487-8.904,1.643-9.708,4.37c-0.046,0.155-0.083,0.39-0.098,0.653   C44.911,19.039,45.29,19.681,46.018,20.248z"/>
	<path d="M54.699,13.316c0.001,0.005,0.005,0.01,0.006,0.015c0.031,0.149,0.087,0.293,0.171,0.431   c0.013,0.023,0.023,0.046,0.038,0.069c0.099,0.146,0.218,0.286,0.374,0.407c1.015,0.79,3.348,1.071,5.192,1.071   c0.545,0,1.087-0.023,1.61-0.069c2.444-0.213,3.829-0.815,4.116-1.788c0.014-0.044,0.01-0.088,0.017-0.133   c0.096-0.512-0.108-1.028-0.592-1.402c-1.014-0.789-3.347-1.069-5.193-1.069c-0.545,0-1.086,0.023-1.609,0.069   c-2.444,0.213-3.828,0.815-4.115,1.787c-0.06,0.206-0.053,0.411-0.013,0.612C54.701,13.316,54.7,13.316,54.699,13.316z"/>
	<path d="M65.39,24.807c-1.586,0.139-3.224,0.209-4.864,0.209c-2.702,0-11.817-0.234-15.692-3.244l-0.012,38.172   c0.047,0.71,0.431,1.364,1.171,1.943c2.707,2.102,9.542,2.849,14.573,2.849c1.594,0,3.182-0.068,4.718-0.203   c6.414-0.561,10.298-2.062,10.862-4.164l0.013-38.597C74.154,23.338,70.56,24.356,65.39,24.807z M71.605,32.452l-1.492,0.223v1.481   c0,0.532-0.431,0.963-0.964,0.963c-0.532,0-0.963-0.432-0.963-0.963v-1.194l-1.206,0.18c-0.048,0.007-0.096,0.01-0.143,0.01   c-0.47,0-0.881-0.343-0.952-0.821c-0.078-0.526,0.285-1.017,0.811-1.095l1.49-0.223v-1.481c0-0.532,0.431-0.963,0.963-0.963   c0.533,0,0.964,0.431,0.964,0.963v1.194l1.208-0.18c0.528-0.075,1.016,0.285,1.095,0.811   C72.494,31.883,72.131,32.374,71.605,32.452z"/>
	<path d="M60.565,66.676c-2.709,0-11.844-0.235-15.745-3.246l-0.013,41.87c-0.002,0.699,0.251,1.731,1.468,2.68   c2.721,2.114,9.142,2.868,14.243,2.868c1.529,0,3.046-0.064,4.509-0.193c5.064-0.442,11.102-1.725,11.104-5.321l0.014-41.827   c-2.036,1.521-5.602,2.517-10.692,2.959C63.859,66.605,62.215,66.676,60.565,66.676z M67.943,97.08   c0-0.532,0.432-0.963,0.964-0.963s0.963,0.431,0.963,0.963v4.979c0,0.532-0.431,0.964-0.963,0.964s-0.964-0.432-0.964-0.964V97.08z   "/>
</g>
</svg>