<svg xmlns="http://www.w3.org/2000/svg" xmlns:xlink="http://www.w3.org/1999/xlink" version="1.0" x="0px" y="0px" width="100px" height="100px" viewBox="0 0 100 100" enable-background="new 0 0 100 100" xml:space="preserve">
<g id="BG">
</g>
<g id="B001">
</g>
<g id="B002">
	<rect x="398.563" y="5.065" fill="#000000" width="99.947" height="89.953"/>
	<rect x="257.333" y="-590.677" fill="#000000" width="99.948" height="89.953"/>
	<path d="M-58.875-422.853c0,1.829-1.267,3.31-2.83,3.31h-49.341c-1.563,0-2.83-1.481-2.83-3.31l0,0c0-1.827,1.267-3.309,2.83-3.309   h49.341C-60.142-426.161-58.875-424.68-58.875-422.853L-58.875-422.853z"/>
	<g>
		<path d="M-84.147-421.443c-2.061,0-3.74-1.222-5.364-2.404c-1.479-1.077-2.877-2.094-4.423-2.094c-0.826,0-1.648,0.29-2.513,0.887    l-0.292,0.202c-1.351,0.94-3.201,2.227-5.025,2.227c-0.213,0-0.426-0.017-0.636-0.054c-0.019-0.003-1.5-0.576-2.273-1.116    c-1.958,1.072-3.964,1.637-5.817,1.637l0,0c-1.344,0-2.614-0.292-3.774-0.87c-1.318-0.655-2.195-1.554-2.536-2.599    c-0.535-1.646,0.305-3.416,2.248-4.736c1.241-0.844,2.931-1.418,5.165-1.756c6.095-0.917,14.179-1.423,22.763-1.423    c8.584,0,16.668,0.505,22.762,1.423c2.234,0.338,3.924,0.912,5.165,1.756c1.942,1.32,2.783,3.091,2.248,4.736    c-0.341,1.045-1.218,1.943-2.536,2.599c-1.161,0.577-2.43,0.87-3.774,0.87c-1.854,0-3.86-0.565-5.819-1.638    c-0.773,0.54-2.25,1.113-2.27,1.117c-0.266,0.047-0.538,0.071-0.809,0.071c-1.196,0-2.25-0.456-3.269-0.896    c-0.838-0.363-1.63-0.705-2.481-0.801c-0.151-0.017-0.294-0.025-0.429-0.025c-1.094,0-1.68,0.524-2.42,1.187    c-0.579,0.518-1.235,1.105-2.204,1.423C-83.021-421.536-83.588-421.443-84.147-421.443L-84.147-421.443z"/>
		<g>
			<path fill="#000000" d="M-86.625-433.042c8.207,0,16.413,0.472,22.688,1.417c1.668,0.252,3.546,0.715,4.958,1.675     c1.776,1.207,2.508,2.769,2.053,4.168c-0.285,0.875-1.034,1.685-2.283,2.306c-1.147,0.571-2.348,0.817-3.551,0.817     c-2.028,0-4.063-0.701-5.86-1.734c0.141,0.081-2.127,1.187-2.316,1.221c-0.246,0.043-0.486,0.063-0.721,0.063     c-2.026,0-3.688-1.467-5.694-1.694c-0.171-0.019-0.332-0.028-0.485-0.028c-2.254,0-2.757,1.971-4.78,2.635     c-0.534,0.175-1.042,0.252-1.532,0.252c-3.731,0-6.309-4.499-9.787-4.499c-0.866,0-1.788,0.279-2.797,0.976     c-1.363,0.941-3.241,2.341-5.033,2.341c-0.185,0-0.368-0.015-0.55-0.046c-0.187-0.033-2.457-1.14-2.316-1.221     c-1.798,1.033-3.833,1.734-5.86,1.734c-1.203,0-2.404-0.247-3.551-0.817c-1.249-0.621-1.998-1.431-2.283-2.306     c-0.455-1.399,0.277-2.961,2.053-4.168c1.412-0.96,3.29-1.423,4.958-1.675C-103.037-432.569-94.831-433.042-86.625-433.042      M-86.625-434.042c-8.608,0-16.719,0.507-22.837,1.429c-2.31,0.349-4.067,0.95-5.372,1.836c-2.137,1.453-3.05,3.436-2.442,5.305     c0.384,1.176,1.348,2.175,2.789,2.892c1.23,0.612,2.575,0.922,3.997,0.922c1.848,0,3.833-0.533,5.777-1.548     c0.921,0.591,2.208,1.017,2.227,1.02c0.235,0.041,0.478,0.062,0.723,0.062c1.981,0,3.906-1.339,5.311-2.317l0.29-0.201     c0.778-0.537,1.507-0.798,2.229-0.798c1.383,0,2.717,0.971,4.129,1.999c1.609,1.172,3.434,2.5,5.658,2.5     c0.612,0,1.232-0.102,1.843-0.302c1.069-0.351,1.767-0.975,2.382-1.526c0.778-0.696,1.224-1.06,2.087-1.06     c0.118,0,0.242,0.007,0.373,0.022c0.777,0.088,1.536,0.416,2.339,0.764c1.065,0.46,2.167,0.937,3.467,0.937     c0.3,0,0.601-0.026,0.896-0.079c0.02-0.004,1.302-0.432,2.222-1.021c1.944,1.016,3.931,1.549,5.78,1.549     c1.422,0,2.766-0.31,3.997-0.922c1.441-0.716,2.405-1.716,2.788-2.891c0.608-1.87-0.305-3.853-2.442-5.305     c-1.304-0.887-3.061-1.487-5.371-1.836C-69.906-433.534-78.016-434.042-86.625-434.042L-86.625-434.042z"/>
		</g>
	</g>
	<g>
		<g>
			<g>
				<path d="M-86.331-400.761c-14.074,0-25.524-7.214-25.524-16.082c0-0.276,0.224-0.5,0.5-0.5h50.049c0.276,0,0.5,0.224,0.5,0.5      C-60.806-407.975-72.256-400.761-86.331-400.761L-86.331-400.761z"/>
				<path d="M-61.306-416.843c0,8.605-11.204,15.582-25.024,15.582s-25.024-6.977-25.024-15.582H-61.306 M-61.306-417.843h-50.049      c-0.552,0-1,0.448-1,1c0,9.144,11.674,16.582,26.024,16.582s26.024-7.438,26.024-16.582      C-60.306-417.395-60.754-417.843-61.306-417.843L-61.306-417.843z"/>
			</g>
		</g>
		<g>
			<ellipse fill="#000000" cx="-77.203" cy="-408.162" rx="1.146" ry="1.81"/>
			<ellipse fill="#000000" cx="-86.237" cy="-408.162" rx="1.146" ry="1.81"/>
			<ellipse fill="#000000" cx="-72.687" cy="-411.443" rx="1.146" ry="1.81"/>
			<ellipse fill="#000000" cx="-90.753" cy="-411.443" rx="1.146" ry="1.81"/>
			<ellipse fill="#000000" cx="-81.72" cy="-411.443" rx="1.146" ry="1.81"/>
			<ellipse fill="#000000" cx="-95.27" cy="-408.161" rx="1.146" ry="1.81"/>
			<ellipse fill="#000000" cx="-99.786" cy="-411.443" rx="1.146" ry="1.81"/>
		</g>
	</g>
	<g>
		<g>
			<g>
				<path d="M-111.356-437.761c-0.276,0-0.5-0.224-0.5-0.5c0-8.868,11.45-16.082,25.524-16.082s25.524,7.214,25.524,16.082      c0,0.276-0.224,0.5-0.5,0.5H-111.356z"/>
				<path d="M-86.332-453.843c13.82,0,25.024,6.977,25.024,15.582h-50.049C-111.356-446.866-100.152-453.843-86.332-453.843       M-86.332-454.843c-14.35,0-26.024,7.438-26.024,16.582c0,0.552,0.448,1,1,1h50.049c0.552,0,1-0.448,1-1      C-60.307-447.404-71.981-454.843-86.332-454.843L-86.332-454.843z"/>
			</g>
		</g>
		<g>
			<ellipse fill="#000000" cx="-95.458" cy="-446.942" rx="1.146" ry="1.81"/>
			<ellipse fill="#000000" cx="-86.425" cy="-446.942" rx="1.146" ry="1.81"/>
			<ellipse fill="#000000" cx="-99.975" cy="-443.66" rx="1.146" ry="1.81"/>
			<ellipse fill="#000000" cx="-81.909" cy="-443.66" rx="1.146" ry="1.81"/>
			<ellipse fill="#000000" cx="-90.942" cy="-443.66" rx="1.146" ry="1.81"/>
			<ellipse fill="#000000" cx="-77.392" cy="-446.942" rx="1.146" ry="1.81"/>
			<ellipse fill="#000000" cx="-72.875" cy="-443.66" rx="1.146" ry="1.81"/>
		</g>
	</g>
	<g>
		<path fill="#000000" d="M-79.968-426.68c-6.717,0-14.725-0.506-14.725-2.92s8.008-2.92,14.725-2.92s14.725,0.506,14.725,2.92    S-73.251-426.68-79.968-426.68L-79.968-426.68z"/>
		<path d="M-79.968-431.52c7.58,0,13.725,0.86,13.725,1.92s-6.145,1.92-13.725,1.92s-13.725-0.86-13.725-1.92    S-87.548-431.52-79.968-431.52 M-79.968-433.52c-15.725,0-15.725,2.647-15.725,3.92s0,3.92,15.725,3.92s15.725-2.647,15.725-3.92    S-64.243-433.52-79.968-433.52L-79.968-433.52z"/>
	</g>
	<g>
		<path fill="#000000" d="M-100.741-427.054c-3.561,0-5.082-0.497-5.252-1.714c-0.351-2.517,7.807-4.039,12.701-4.723    c3.017-0.421,5.95-0.654,8.256-0.654c3.561,0,5.082,0.497,5.252,1.714c0.351,2.517-7.807,4.039-12.701,4.723    C-95.501-427.287-98.434-427.054-100.741-427.054L-100.741-427.054z"/>
		<path d="M-85.036-433.145c2.542,0,4.183,0.288,4.262,0.853c0.146,1.05-5.158,2.659-11.849,3.594    c-3.09,0.432-5.937,0.644-8.118,0.644c-2.542,0-4.183-0.288-4.262-0.853c-0.146-1.05,5.158-2.659,11.849-3.594    C-90.063-432.933-87.217-433.145-85.036-433.145 M-85.035-435.145L-85.035-435.145c-2.353,0-5.334,0.236-8.396,0.663    c-14.095,1.969-13.715,4.689-13.553,5.851c0.333,2.377,3.397,2.577,6.243,2.577c2.352,0,5.333-0.236,8.395-0.663    c14.095-1.969,13.715-4.689,13.553-5.851C-79.125-434.946-82.189-435.145-85.035-435.145L-85.035-435.145z"/>
	</g>
	<path d="M-49.104,57.315c-1.54,0.987-3.687,1.704-3.72,1.709c-0.493,0.088-0.998,0.133-1.499,0.133   c-2.176,0-4.021-0.798-5.805-1.569c-1.345-0.582-2.616-1.131-3.917-1.278c-0.22-0.024-0.427-0.037-0.625-0.037   c-1.444,0-2.192,0.608-3.494,1.774c-1.031,0.923-2.198,1.967-3.988,2.555c-1.023,0.336-2.062,0.506-3.086,0.506   c-3.723,0-6.778-2.223-9.473-4.186c-2.365-1.721-4.597-3.346-6.913-3.346c-1.209,0-2.429,0.438-3.731,1.337l-0.485,0.336   c-2.354,1.637-5.576,3.879-8.893,3.879c-0.411,0-0.817-0.034-1.21-0.103c-0.032-0.005-2.186-0.718-3.729-1.708   c-3.254,1.7-6.578,2.593-9.672,2.593c-1.965,0-3.834-0.374-5.586-1.073c0.378,2.618,2.313,4.615,4.657,4.615h82.614   c2.454,0,4.448-2.189,4.689-4.985c-1.997,0.95-4.164,1.443-6.457,1.443C-42.522,59.91-45.848,59.017-49.104,57.315z"/>
	<path d="M-36.993,66.298h-83.799c-0.925,0-1.675,0.75-1.675,1.674c0,15.31,19.547,27.764,43.574,27.764   s43.574-12.455,43.574-27.764C-35.318,67.048-36.068,66.298-36.993,66.298z M-78.735,85.537c-1.06,0-1.919-1.355-1.919-3.029   c0-1.673,0.859-3.031,1.919-3.031s1.918,1.357,1.918,3.031C-76.816,84.182-77.675,85.537-78.735,85.537z M-73.093,77.013   c0-1.674,0.86-3.03,1.92-3.03c1.06,0,1.918,1.356,1.918,3.03c0,1.673-0.859,3.03-1.918,3.03   C-72.233,80.043-73.093,78.687-73.093,77.013z M-65.53,82.508c0-1.673,0.86-3.031,1.92-3.031c1.059,0,1.919,1.357,1.919,3.031   c0,1.674-0.86,3.029-1.919,3.029C-64.67,85.537-65.53,84.182-65.53,82.508z M-56.048,80.043c-1.06,0-1.919-1.356-1.919-3.03   c0-1.674,0.859-3.03,1.919-3.03s1.919,1.356,1.919,3.03C-54.129,78.687-54.988,80.043-56.048,80.043z M-84.378,77.013   c0,1.674-0.86,3.03-1.92,3.03c-1.06,0-1.919-1.355-1.919-3.03c0-1.674,0.859-3.03,1.919-3.03   C-85.238,73.983-84.378,75.339-84.378,77.013z M-91.941,82.508c0,1.673-0.859,3.028-1.918,3.028c-1.059,0-1.919-1.355-1.919-3.028   c0-1.674,0.86-3.03,1.919-3.03C-92.8,79.478-91.941,80.834-91.941,82.508z M-99.503,77.013c0,1.673-0.859,3.03-1.919,3.03   s-1.92-1.356-1.92-3.03c0-1.674,0.86-3.03,1.92-3.03S-99.503,75.339-99.503,77.013z"/>
	<path d="M-120.793,33.786h83.799c0.924,0,1.674-0.749,1.674-1.674c0-15.31-19.546-27.764-43.574-27.764   c-24.027,0-43.573,12.455-43.573,27.764C-122.468,33.037-121.718,33.786-120.793,33.786z M-79.051,14.547   c1.06,0,1.92,1.355,1.92,3.029c0,1.673-0.86,3.031-1.92,3.031c-1.06,0-1.918-1.357-1.918-3.031   C-80.969,15.902-80.111,14.547-79.051,14.547z M-84.694,23.071c0,1.674-0.86,3.03-1.919,3.03c-1.06,0-1.92-1.356-1.92-3.03   c0-1.673,0.86-3.03,1.92-3.03C-85.554,20.041-84.694,21.397-84.694,23.071z M-92.256,17.576c0,1.673-0.86,3.031-1.92,3.031   c-1.059,0-1.919-1.357-1.919-3.031c0-1.674,0.86-3.029,1.919-3.029C-93.116,14.547-92.256,15.902-92.256,17.576z M-101.738,20.041   c1.06,0,1.919,1.356,1.919,3.03c0,1.674-0.859,3.03-1.919,3.03c-1.06,0-1.92-1.356-1.92-3.03   C-103.658,21.397-102.798,20.041-101.738,20.041z M-73.408,23.071c0-1.674,0.86-3.03,1.919-3.03c1.06,0,1.92,1.356,1.92,3.03   s-0.86,3.03-1.92,3.03C-72.548,26.101-73.408,24.745-73.408,23.071z M-65.846,17.576c0-1.673,0.86-3.028,1.92-3.028   s1.919,1.355,1.919,3.028c0,1.674-0.86,3.03-1.919,3.03S-65.846,19.25-65.846,17.576z M-58.283,23.071   c0-1.673,0.859-3.03,1.919-3.03c1.06,0,1.92,1.356,1.92,3.03c0,1.674-0.86,3.03-1.92,3.03   C-57.424,26.101-58.283,24.745-58.283,23.071z"/>
	<path d="M-107.275,42.038c-3.584,0.33-6.995,0.72-10.098,1.186c-2.792,0.421-5.938,1.197-8.301,2.804   c-2.974,2.021-4.2,4.636-3.438,6.979c0.478,1.464,1.732,2.821,3.822,3.86c1.921,0.956,3.931,1.369,5.946,1.369   c3.395,0,6.801-1.174,9.812-2.904c-0.236,0.135,3.564,1.99,3.878,2.044c0.304,0.054,0.612,0.078,0.921,0.078   c3,0,6.144-2.343,8.426-3.919c1.689-1.166,3.233-1.633,4.683-1.633c5.823,0,10.139,7.532,16.386,7.532   c0.819,0,1.671-0.13,2.564-0.422c3.388-1.112,4.229-4.413,8.004-4.413c0.257,0,0.527,0.015,0.813,0.048   c3.359,0.38,6.141,2.836,9.534,2.836c0.393,0,0.794-0.033,1.206-0.106c0.316-0.056,4.114-1.909,3.878-2.044   c3.011,1.729,6.417,2.904,9.812,2.904c2.015,0,4.025-0.413,5.946-1.369c2.09-1.039,3.345-2.396,3.822-3.86   c0.762-2.342-0.464-4.958-3.438-6.979c-2.363-1.607-5.509-2.383-8.301-2.804c-1.045-0.158-2.146-0.301-3.252-0.442   c-2.978-1.437-9.215-2.642-22.199-2.724c-0.154-0.244-0.33-0.469-0.533-0.672c-1.869-1.858-5.708-2.057-9.341-2.057   c-3.939,0-8.932,0.395-14.058,1.111c-2.903,0.405-5.436,0.83-7.65,1.266C-102.261,40.459-105.128,41.249-107.275,42.038z    M-76.725,40.677c4.257,0,7.004,0.483,7.137,1.429c0.245,1.758-8.637,4.452-19.839,6.017c-5.174,0.723-9.94,1.078-13.593,1.078   c-4.257,0-7.004-0.482-7.136-1.428c-0.245-1.758,8.637-4.453,19.839-6.017C-85.143,41.033-80.377,40.677-76.725,40.677z    M-45.259,46.613c0,1.775-10.289,3.215-22.981,3.215c-3.578,0-6.95-0.118-9.97-0.321c8.955-2.1,11.322-4.38,11.862-6.094   C-54.543,43.547-45.259,44.928-45.259,46.613z"/>
	<g>
		<path fill="#000000" d="M89.96-437.75c-3.098,0-6.443-0.932-9.714-2.702c-0.341,0.206-0.817,0.459-1.485,0.796    c-0.708,0.357-1.951,0.967-2.317,1.032c-0.454,0.081-0.919,0.122-1.381,0.122c-2.035,0-3.815-0.77-5.536-1.514    c-1.393-0.604-2.708-1.171-4.11-1.33c-0.242-0.027-0.478-0.041-0.7-0.041c-1.77,0-2.731,0.859-3.946,1.946    c-0.98,0.878-2.092,1.873-3.748,2.417c-0.955,0.313-1.923,0.472-2.876,0.472c-3.503,0-6.335-2.062-9.075-4.056    c-2.456-1.788-4.776-3.476-7.311-3.476c-1.349,0-2.695,0.476-4.115,1.455l-0.489,0.34c-2.278,1.586-5.401,3.758-8.504,3.758    c-0.373,0-0.741-0.031-1.094-0.093c-0.032-0.006-2.435-0.898-3.795-1.836c-3.273,1.774-6.623,2.709-9.724,2.709    c-1.999,0-3.893-0.405-5.659-1.161c0.076,2.986,2.162,5.38,4.73,5.38h82.614c2.616,0,4.737-2.48,4.737-5.542    c0-0.07-0.007-0.137-0.009-0.206c-0.036,0.019-0.068,0.039-0.104,0.058C94.384-438.246,92.235-437.75,89.96-437.75z"/>
		<path fill="#000000" d="M92.392-430.01H8.593c-0.552,0-0.999,0.448-0.999,0.999c0,14.937,19.244,27.088,42.898,27.088    s42.898-12.151,42.898-27.088C93.391-429.562,92.944-430.01,92.392-430.01z M50.651-411.448c-1.061,0-1.919-1.355-1.919-3.029    c0-1.673,0.859-3.03,1.919-3.03c1.06,0,1.917,1.357,1.917,3.03C52.568-412.803,51.71-411.448,50.651-411.448z M56.292-419.97    c0-1.675,0.861-3.03,1.921-3.03c1.059,0,1.918,1.355,1.918,3.03c0,1.673-0.859,3.028-1.918,3.028    C57.153-416.942,56.292-418.297,56.292-419.97z M63.855-414.477c0-1.673,0.859-3.03,1.92-3.03c1.058,0,1.918,1.357,1.918,3.03    c0,1.674-0.86,3.029-1.918,3.029C64.714-411.448,63.855-412.803,63.855-414.477z M73.337-416.942c-1.06,0-1.919-1.355-1.919-3.028    c0-1.675,0.859-3.03,1.919-3.03s1.919,1.355,1.919,3.03C75.256-418.297,74.397-416.942,73.337-416.942z M45.007-419.97    c0,1.673-0.86,3.028-1.92,3.028c-1.061,0-1.919-1.355-1.919-3.028c0-1.675,0.859-3.03,1.919-3.03    C44.147-423,45.007-421.645,45.007-419.97z M37.445-414.476c0,1.673-0.859,3.028-1.919,3.028s-1.919-1.355-1.919-3.028    c0-1.674,0.86-3.03,1.919-3.03S37.445-416.15,37.445-414.476z M29.882-419.97c0,1.673-0.859,3.028-1.919,3.028    c-1.061,0-1.919-1.355-1.919-3.028c0-1.675,0.858-3.03,1.919-3.03C29.023-423,29.882-421.645,29.882-419.97z"/>
		<path fill="#000000" d="M8.592-463.874H92.39c0.552,0,0.999-0.448,0.999-0.999c0-14.937-19.244-27.088-42.898-27.088    S7.594-479.809,7.594-464.873C7.594-464.322,8.041-463.874,8.592-463.874z M50.333-482.436c1.06,0,1.92,1.354,1.92,3.028    s-0.86,3.031-1.92,3.031c-1.059,0-1.918-1.357-1.918-3.031S49.275-482.436,50.333-482.436z M44.691-473.914    c0,1.675-0.86,3.03-1.919,3.03c-1.06,0-1.92-1.355-1.92-3.03c0-1.673,0.86-3.028,1.92-3.028    C43.831-476.942,44.691-475.586,44.691-473.914z M37.129-479.408c0,1.674-0.86,3.031-1.919,3.031c-1.06,0-1.919-1.357-1.919-3.031    s0.859-3.028,1.919-3.028C36.269-482.436,37.129-481.082,37.129-479.408z M27.647-476.942c1.06,0,1.919,1.355,1.919,3.028    c0,1.675-0.859,3.03-1.919,3.03c-1.06,0-1.92-1.355-1.92-3.03C25.727-475.586,26.587-476.942,27.647-476.942z M55.977-473.914    c0-1.673,0.86-3.028,1.919-3.028c1.06,0,1.92,1.355,1.92,3.028c0,1.675-0.86,3.03-1.92,3.03    C56.837-470.883,55.977-472.239,55.977-473.914z M63.54-479.409c0-1.673,0.86-3.027,1.919-3.027c1.061,0,1.92,1.354,1.92,3.027    c0,1.675-0.859,3.031-1.92,3.031C64.399-476.377,63.54-477.734,63.54-479.409z M71.101-473.914c0-1.673,0.861-3.028,1.92-3.028    c1.06,0,1.92,1.355,1.92,3.028c0,1.675-0.86,3.03-1.92,3.03C71.962-470.883,71.101-472.239,71.101-473.914z"/>
		<path fill="#000000" d="M29.317-455.509c-6.286,0.396-12.181,0.978-17.305,1.749c-2.792,0.422-5.938,1.196-8.301,2.804    c-2.974,2.021-4.2,4.637-3.438,6.979c0.478,1.465,1.732,2.822,3.822,3.861c1.921,0.956,3.932,1.368,5.946,1.368    c3.396,0,6.802-1.174,9.813-2.903c-0.236,0.135,3.564,1.989,3.877,2.044c0.305,0.053,0.614,0.078,0.923,0.078    c2.999,0,6.142-2.343,8.425-3.919c1.69-1.167,3.233-1.634,4.683-1.634c5.823,0,10.14,7.531,16.386,7.531    c0.819,0,1.671-0.13,2.564-0.422c3.388-1.113,4.23-4.413,8.005-4.413c0.256,0,0.526,0.016,0.812,0.048    c3.36,0.381,6.141,2.837,9.534,2.837c0.394,0,0.794-0.033,1.207-0.106c0.315-0.057,4.113-1.909,3.877-2.044    c3.011,1.729,6.417,2.903,9.813,2.903c2.014,0,4.023-0.412,5.946-1.368c2.089-1.039,3.344-2.396,3.822-3.861    c0.761-2.342-0.464-4.957-3.438-6.979c-2.364-1.607-5.509-2.382-8.301-2.804c-7.545-1.137-16.76-1.861-26.441-2.183    c-0.187-0.399-0.485-0.74-0.894-1.031c-1.313-0.934-3.829-1.329-7.99-1.329c-3.878,0-8.803,0.389-13.87,1.097    c-0.745,0.104-1.481,0.214-2.209,0.328C34.015-456.475,31.561-456.012,29.317-455.509z M61.146-447.156    c-5.601,0-10.731-0.281-14.718-0.746c3.119-0.595,5.969-1.271,8.323-1.984c3.021-0.916,5.826-2.005,6.737-3.697    c12.534,0.025,22.639,1.453,22.639,3.213C84.125-448.596,73.837-447.156,61.146-447.156z M59.798-454.879    c0.245,1.759-8.637,4.453-19.84,6.018c-5.175,0.723-9.94,1.078-13.593,1.078c-4.257,0-7.004-0.481-7.136-1.428    c-0.245-1.758,8.637-4.452,19.839-6.018c5.174-0.723,9.94-1.077,13.593-1.077C56.917-456.307,59.665-455.825,59.798-454.879z"/>
	</g>
	<polygon fill="#000000" points="99.948,-542.342 0,-504.616 0,-509.081 99.948,-557.591  "/>
	<polygon fill="#000000" points="99.948,-557.591 48.625,-594.569 0,-509.081  "/>
	<g>
		<path fill="#000000" d="M153.585-472.411c-0.301,0-0.599-0.09-0.853-0.266c-0.405-0.28-0.647-0.741-0.647-1.234v-4.154    c0-0.575,0.328-1.099,0.845-1.35l92.979-45.127c0.207-0.101,0.431-0.15,0.655-0.15c0.277,0,0.554,0.077,0.796,0.229    c0.438,0.274,0.704,0.755,0.704,1.271v14.186c0,0.624-0.386,1.183-0.97,1.403l-92.979,35.096    C153.943-472.442,153.764-472.411,153.585-472.411L153.585-472.411z"/>
		<path fill="#000000" d="M246.563-523.192v14.186l-92.979,35.096v-4.154L246.563-523.192 M246.563-526.192    c-0.447,0-0.895,0.1-1.31,0.301l-92.979,45.127c-1.034,0.501-1.69,1.55-1.69,2.699v4.154c0,0.985,0.483,1.907,1.294,2.468    c0.508,0.352,1.105,0.532,1.706,0.532c0.357,0,0.716-0.064,1.06-0.193l92.979-35.096c1.167-0.441,1.94-1.559,1.94-2.807v-14.186    c0-1.033-0.532-1.994-1.408-2.542C247.67-526.039,247.118-526.192,246.563-526.192L246.563-526.192z"/>
	</g>
	<g>
		<path fill="#000000" d="M153.585-476.564c-0.406,0-0.805-0.165-1.095-0.475c-0.449-0.479-0.534-1.196-0.209-1.767l45.235-79.527    c0.21-0.37,0.568-0.633,0.984-0.724c0.105-0.023,0.213-0.034,0.319-0.034c0.312,0,0.619,0.098,0.877,0.283l47.744,34.399    c0.428,0.309,0.663,0.82,0.618,1.346c-0.046,0.526-0.365,0.989-0.84,1.22l-92.979,45.127    C154.031-476.614,153.807-476.564,153.585-476.564L153.585-476.564z"/>
		<path fill="#000000" d="M198.82-557.591l47.744,34.399l-92.979,45.127L198.82-557.591 M198.82-560.591    c-0.213,0-0.427,0.023-0.639,0.069c-0.832,0.181-1.547,0.708-1.969,1.448l-45.234,79.527c-0.65,1.143-0.48,2.575,0.418,3.534    c0.581,0.62,1.379,0.949,2.19,0.949c0.443,0,0.891-0.098,1.309-0.301l92.979-45.127c0.95-0.461,1.588-1.388,1.679-2.44    c0.091-1.052-0.378-2.075-1.235-2.692l-47.744-34.399C200.059-560.396,199.444-560.591,198.82-560.591L198.82-560.591z"/>
	</g>
	<path fill="#000000" stroke="#FF0000" stroke-width="3" stroke-linecap="round" stroke-linejoin="round" d="M195.226-552.501   c0,0,4.167,5.5,11.667,8.667c0,0,2.5,9,13.667,12.167c0,0,5.995,11.667,17.667,14.25c0,0,5.265,4.856,1.327,12.058"/>
	
		<ellipse transform="matrix(0.9972 -0.075 0.075 0.9972 40.5896 13.2971)" fill="#000000" cx="197.435" cy="-534.076" rx="8.514" ry="9.318"/>
	
		<ellipse transform="matrix(0.9972 -0.075 0.075 0.9972 39.0653 13.6545)" fill="#000000" cx="201.425" cy="-513.561" rx="8.513" ry="9.318"/>
	
		<ellipse transform="matrix(0.9972 -0.075 0.075 0.9972 38.5223 12.2098)" fill="#000000" cx="181.917" cy="-507.08" rx="8.514" ry="9.318"/>
	<path d="M3.365,91.801c1.503-1.059,3.933-2.239,3.933-2.239s3.72-2.033,5.937-2.985c14.556-6.249,29-12.782,43.483-19.197   c9.381-4.155,18.763-8.309,28.148-12.457c-0.879-1.176-1.38-2.09-1.58-2.49c-0.078-0.037-0.16-0.069-0.236-0.106   C75.48,48.64,70.97,41.83,69.798,39.781c-9.643-2.981-14.396-11.847-15.25-14.125c-4.085-1.833-8.429-5.913-11.078-8.655   l1.038-1.825c1.55,1.735,7.08,6.943,12.665,9.448c0.854,2.278,5.607,11.144,15.25,14.125c1.203,2.102,5.348,8.734,13.236,12.311   c0.014,0.006,0.028,0.012,0.042,0.019l0.339,0.151l0.199,0.362c0.878,1.537,3.684,5.65,9.864,8.443   c4.095,1.851,3.989-6.102,3.996-8.25c0.014-4.478-0.356-9.286-3.394-12.839c-2.995-3.504-7.67-5.222-11.368-7.828   c-5.147-3.627-10.22-7.389-15.307-11.103c-6.567-4.793-13.204-9.498-19.8-14.249c-0.515-0.371-1.13-0.566-1.754-0.566   c-0.213,0-0.427,0.022-0.639,0.069c-0.832,0.181-1.547,0.708-1.969,1.448c-1.513,2.66-3.031,5.316-4.54,7.981   c-0.144,0.254-0.29,0.508-0.434,0.762c-7.428,13.15-14.901,26.277-22.417,39.377c-3.669,6.396-7.385,12.785-10.935,19.248   c-2.55,4.643-6.144,9.359-7.304,14.79c-0.195,0.913-0.294,1.897-0.207,2.889c0.087,0.981,0.692,2.024,1.502,2.584   c0.508,0.352,1.105,0.532,1.707,0.532c0.357,0,0.716-0.063,1.059-0.193l88.043-33.233c-1.012-0.587-1.928-1.199-2.749-1.821   c-0.832-0.631-8.964,3.348-9.833,3.673c-14.962,5.588-29.922,11.179-44.886,16.761C24.375,83.985,13.915,88.023,3.365,91.801z    M30.967,54.385c3.831-0.288,7.192,2.878,7.508,7.07c0.315,4.193-2.536,7.825-6.367,8.113c-3.831,0.288-7.192-2.877-7.507-7.07   C24.286,58.306,27.136,54.673,30.967,54.385z M54.414,56.16c0.315,4.193-2.535,7.825-6.366,8.113   c-3.831,0.288-7.191-2.877-7.507-7.07c-0.315-4.193,2.535-7.826,6.366-8.114S54.098,51.967,54.414,56.16z M51.154,39.397   c0.315,4.193-2.535,7.825-6.366,8.113s-7.193-2.878-7.508-7.07c-0.315-4.193,2.536-7.825,6.366-8.113   C47.478,32.039,50.839,35.205,51.154,39.397z"/>
	<g>
		<path d="M-33.298-543.621c1.452,2.146,2.646,5.597,1.41,9.672l4.588-1.732v-10.851L-33.298-543.621z"/>
		<path fill="#000000" d="M-34.355-533.035c2.546-4.656-0.609-7.832-1.69-9.253l-82.923,40.247    c-0.418,0.203-0.866,0.301-1.309,0.301c0,0,0,0-0.001,0v1.154l84.542-31.912C-35.708-532.584-34.401-532.951-34.355-533.035z"/>
		<path d="M-24.334-550.136c-0.011-0.124-0.021-0.245-0.047-0.365c-0.028-0.13-0.073-0.253-0.118-0.377    c-0.041-0.113-0.079-0.226-0.133-0.333c-0.06-0.119-0.135-0.227-0.21-0.337c-0.067-0.099-0.131-0.198-0.211-0.289    c-0.089-0.102-0.193-0.189-0.296-0.279c-0.068-0.06-0.122-0.131-0.196-0.185L-73.29-586.7c-0.515-0.371-1.13-0.566-1.754-0.566    c-0.213,0-0.427,0.022-0.639,0.069c-0.832,0.181-1.547,0.708-1.969,1.448c-1.658,2.915-3.324,5.824-4.973,8.744    c-7.428,13.15-14.901,26.277-22.417,39.377c-3.669,6.396-7.385,12.785-10.935,19.248c-2.55,4.643-6.144,9.359-7.304,14.79    c-0.195,0.913,0.002,2.064,0.002,3.005c0,0.985,0.483,1.907,1.294,2.468c0.508,0.352,1.105,0.532,1.707,0.532    c0.357,0,0.716-0.063,1.059-0.193l92.979-35.096c1.167-0.441,1.94-1.559,1.94-2.807v-14.186    C-24.3-549.959-24.326-550.045-24.334-550.136z M-79.011-577.291c1.55,1.735,7.08,6.943,12.665,9.448    c0.854,2.278,5.607,11.144,15.25,14.125c1.248,2.181,5.65,9.247,14.125,12.708l-83.307,36.27L-79.011-577.291z M-27.3-549.867    l-8.585,4.167c-10.45-2.647-16.029-13.222-16.085-13.33c-0.19-0.368-0.525-0.643-0.924-0.756    c-10.164-2.882-12.537-10.795-12.631-11.125c-0.123-0.441-0.44-0.802-0.862-0.98c-6.895-2.911-10.875-7.96-11.043-8.177    l2.388-4.198L-27.3-549.867z M-120.278-501.739C-120.278-501.739-120.278-501.739-120.278-501.739c0.444,0,0.892-0.098,1.31-0.301    l82.923-36.657c1.081,1.421,2.345,4.135,2.345,4.135s0.342,1.44,0.314,1.527l-86.892,32.449V-501.739z M-31.888-533.949    c1.236-4.075,0.042-7.526-1.41-9.672l5.998-2.911v10.851L-31.888-533.949z"/>
		<path d="M-77.431-580.068c0.168,0.216,4.149,5.266,11.043,8.177c0.422,0.178,0.739,0.539,0.862,0.98    c0.094,0.33,2.467,8.243,12.631,11.125c0.399,0.113,0.734,0.388,0.924,0.756c0.056,0.108,5.635,10.683,16.085,13.33l8.585-4.167    l-47.744-34.399L-77.431-580.068z"/>
	</g>
	<path d="M-82.189-577.771c1.55,1.735,7.633,8.454,13.218,10.959c0.854,2.278,5.607,11.144,15.25,14.125   c1.248,2.181,6.275,9.757,14.75,13.219l-81.307,34.729L-82.189-577.771z"/>
	<g>
		
			<ellipse transform="matrix(0.075 0.9972 -0.9972 0.075 -624.3497 -432.043)" fill="#000000" cx="-79.302" cy="-552.549" rx="7.613" ry="6.956"/>
		
			<ellipse transform="matrix(-0.0749 -0.9972 0.9972 -0.0749 452.5393 -651.7675)" fill="#000000" cx="-76.042" cy="-535.787" rx="7.613" ry="6.956"/>
		
			<ellipse transform="matrix(0.0749 0.9972 -0.9972 0.0749 -614.0872 -399.0111)" fill="#000000" cx="-91.982" cy="-530.491" rx="7.613" ry="6.957"/>
	</g>
	<path fill="#000000" stroke="#FFFFFF" stroke-width="3" d="M-38.971-540.868c0,0,3.509,7.859,14.671,11.192"/>
	<g>
		<path d="M342.608-542.804c-0.002-0.06-0.014-0.117-0.019-0.177c-0.014-0.143-0.034-0.284-0.067-0.422    c-0.016-0.067-0.037-0.132-0.058-0.198c-0.041-0.129-0.089-0.253-0.146-0.375c-0.029-0.063-0.059-0.125-0.092-0.185    c-0.074-0.131-0.158-0.254-0.251-0.374c-0.024-0.032-0.041-0.069-0.067-0.101c-0.007-0.008-0.017-0.014-0.023-0.022    c-0.132-0.152-0.276-0.292-0.438-0.417c-0.032-0.025-0.068-0.042-0.101-0.066c-0.13-0.092-0.265-0.176-0.409-0.247    c-0.065-0.032-0.134-0.056-0.201-0.083c-0.077-0.031-0.148-0.07-0.229-0.096l-2.686-0.837v-13.007c0-1.378-1.121-2.5-2.5-2.5h-7    c-0.184,0-0.362,0.023-0.535,0.061v-3.303c0-1.378-1.121-2.5-2.5-2.5h-7c-0.184,0-0.362,0.023-0.535,0.061v-3.302    c0-1.378-1.121-2.5-2.5-2.5h-7c-0.184,0-0.361,0.023-0.534,0.061v-3.302c0-1.378-1.121-2.5-2.5-2.5h-7    c-0.185,0-0.362,0.023-0.535,0.061v-3.302c0-1.378-1.121-2.5-2.5-2.5h-7c-0.185,0-0.362,0.023-0.535,0.061v-3.303    c0-1.378-1.121-2.5-2.5-2.5h-7c-1.378,0-2.5,1.122-2.5,2.5v0.551c0.162-0.033,0.329-0.051,0.5-0.051h7c1.379,0,2.5,1.122,2.5,2.5    v3.303c0.173-0.038,0.351-0.061,0.535-0.061h7c1.379,0,2.5,1.122,2.5,2.5v3.302c0.173-0.038,0.351-0.061,0.535-0.061h7    c1.379,0,2.5,1.122,2.5,2.5v3.302c0.173-0.038,0.351-0.061,0.534-0.061h7c1.379,0,2.5,1.122,2.5,2.5v3.302    c0.173-0.038,0.352-0.061,0.535-0.061h7c1.379,0,2.5,1.122,2.5,2.5v3.303c0.173-0.038,0.352-0.061,0.535-0.061h7    c1.379,0,2.5,1.122,2.5,2.5v10.708h-2v-10.708c0-0.276-0.224-0.5-0.5-0.5h-7c-0.276,0-0.5,0.224-0.5,0.5v10.708h-2.035v-16.45    c0-0.276-0.224-0.5-0.5-0.5h-7c-0.276,0-0.5,0.224-0.5,0.5v16.45h-2.035v-22.192c0-0.276-0.224-0.5-0.5-0.5h-7    c-0.276,0-0.5,0.224-0.5,0.5v22.192h-2.034v-27.934c0-0.276-0.224-0.5-0.5-0.5h-7c-0.276,0-0.5,0.224-0.5,0.5v27.934h-1.619    l-0.416-0.13v-33.545c0-0.276-0.224-0.5-0.5-0.5h-7c-0.276,0-0.5,0.224-0.5,0.5v31.051l-2.035-0.634v-36.159    c0-0.276-0.224-0.5-0.5-0.5h-7c-0.276,0-0.5,0.224-0.5,0.5v33.664l-1.1-0.343c-0.293-0.092-0.594-0.136-0.893-0.136    c-0.002,0-0.005,0-0.007,0c-0.2,0-0.397,0.025-0.592,0.065c-0.063,0.013-0.124,0.034-0.187,0.051    c-0.131,0.036-0.26,0.077-0.385,0.13c-0.068,0.029-0.133,0.062-0.199,0.096c-0.115,0.059-0.225,0.126-0.333,0.201    c-0.061,0.042-0.122,0.083-0.179,0.13c-0.031,0.025-0.065,0.043-0.095,0.069c-0.045,0.04-0.075,0.092-0.118,0.134    c-0.065,0.064-0.139,0.119-0.199,0.189c-0.04,0.047-0.065,0.102-0.101,0.15c-0.057,0.077-0.108,0.154-0.158,0.235    c-0.077,0.127-0.142,0.258-0.198,0.393c-0.035,0.083-0.071,0.165-0.099,0.251c-0.048,0.152-0.078,0.308-0.101,0.466    c-0.012,0.077-0.031,0.15-0.036,0.228c-0.017,0.238-0.012,0.478,0.029,0.717l6,34.977c0.036,0.21,0.101,0.409,0.177,0.601    c0.02,0.05,0.042,0.098,0.064,0.146c0.075,0.162,0.162,0.316,0.263,0.46c0.018,0.026,0.032,0.053,0.051,0.079    c0.122,0.163,0.262,0.31,0.414,0.445c0.038,0.033,0.078,0.063,0.117,0.094c0.135,0.108,0.279,0.205,0.432,0.289    c0.025,0.014,0.046,0.035,0.072,0.048l19.987,10.232c0.033,0.017,0.069,0.022,0.103,0.038c0.149,0.07,0.305,0.127,0.466,0.172    c0.055,0.015,0.106,0.033,0.161,0.044c0.207,0.045,0.417,0.076,0.635,0.076c0.116,0,0.234-0.007,0.354-0.021l33.974-4    c0.032-0.004,0.063-0.014,0.095-0.019c0.077-0.012,0.153-0.029,0.229-0.046c0.09-0.021,0.178-0.043,0.265-0.072    c0.071-0.023,0.142-0.051,0.212-0.08c0.086-0.036,0.169-0.075,0.25-0.118c0.064-0.034,0.128-0.07,0.19-0.109    c0.079-0.05,0.155-0.104,0.229-0.161c0.057-0.044,0.113-0.087,0.167-0.135c0.071-0.063,0.137-0.131,0.201-0.2    c0.049-0.052,0.098-0.103,0.143-0.158c0.062-0.076,0.115-0.157,0.169-0.239c0.038-0.058,0.078-0.113,0.112-0.173    c0.054-0.096,0.097-0.197,0.14-0.299c0.023-0.054,0.051-0.104,0.071-0.16c0.057-0.161,0.104-0.328,0.133-0.501l6-34.977    C342.606-542.398,342.615-542.603,342.608-542.804z M339.614-542.7l-6,34.977l-31,3.65c-0.004-0.036-0.003-0.071-0.009-0.106    l-5.93-38.52H339.614z"/>
		<path fill="#000000" d="M273.654-551.932c0.298,0,0.6,0.044,0.893,0.136l1.1,0.343v-33.664c0-0.276,0.224-0.5,0.5-0.5h7    c0.276,0,0.5,0.224,0.5,0.5v36.159l2.035,0.634v-31.051c0-0.276,0.224-0.5,0.5-0.5h7c0.276,0,0.5,0.224,0.5,0.5v33.545l0.416,0.13    h1.619v-27.934c0-0.276,0.224-0.5,0.5-0.5h7c0.276,0,0.5,0.224,0.5,0.5v27.934h2.034v-22.192c0-0.276,0.224-0.5,0.5-0.5h7    c0.276,0,0.5,0.224,0.5,0.5v22.192h2.035v-16.45c0-0.276,0.224-0.5,0.5-0.5h7c0.276,0,0.5,0.224,0.5,0.5v16.45h2.035v-10.708    c0-0.276,0.224-0.5,0.5-0.5h7c0.276,0,0.5,0.224,0.5,0.5v10.708h2v-10.708c0-1.378-1.121-2.5-2.5-2.5h-7    c-0.184,0-0.362,0.023-0.535,0.061v-3.303c0-1.378-1.121-2.5-2.5-2.5h-7c-0.184,0-0.362,0.023-0.535,0.061v-3.302    c0-1.378-1.121-2.5-2.5-2.5h-7c-0.184,0-0.361,0.023-0.534,0.061v-3.302c0-1.378-1.121-2.5-2.5-2.5h-7    c-0.185,0-0.362,0.023-0.535,0.061v-3.302c0-1.378-1.121-2.5-2.5-2.5h-7c-0.185,0-0.362,0.023-0.535,0.061v-3.303    c0-1.378-1.121-2.5-2.5-2.5h-7c-0.171,0-0.338,0.018-0.5,0.051c-1.14,0.232-2,1.242-2,2.449v33.186    C273.649-551.932,273.651-551.932,273.654-551.932z"/>
		<path fill="#000000" d="M296.676-542.7l5.93,38.52c0.006,0.036,0.005,0.071,0.009,0.106l31-3.65l6-34.977H296.676z"/>
	</g>
	<path d="M230.651,52.938c-0.002-0.06-0.018-0.117-0.025-0.177c-0.018-0.143-0.047-0.284-0.092-0.422   c-0.021-0.067-0.053-0.132-0.08-0.198c-0.057-0.129-0.123-0.253-0.203-0.375c-0.041-0.063-0.08-0.125-0.127-0.185   c-0.102-0.131-0.219-0.254-0.348-0.374c-0.033-0.032-0.057-0.069-0.092-0.101c-0.01-0.008-0.023-0.014-0.033-0.022   c-0.182-0.152-0.383-0.292-0.605-0.417c-0.045-0.025-0.094-0.042-0.139-0.066c-0.18-0.092-0.365-0.176-0.566-0.247   c-0.09-0.032-0.184-0.056-0.277-0.083c-0.107-0.031-0.205-0.07-0.318-0.096l-3.713-0.837V36.333c0-1.378-1.551-2.5-3.457-2.5   h-9.682c-0.254,0-0.5,0.023-0.74,0.061v-3.303c0-1.378-1.549-2.5-3.457-2.5h-9.68c-0.254,0-0.502,0.023-0.74,0.061V24.85   c0-1.378-1.551-2.5-3.457-2.5h-9.682c-0.254,0-0.5,0.023-0.738,0.061v-3.302c0-1.378-1.551-2.5-3.457-2.5h-9.681   c-0.255,0-0.501,0.023-0.74,0.061v-3.302c0-1.378-1.55-2.5-3.457-2.5h-9.681c-0.256,0-0.501,0.023-0.74,0.061V7.625   c0-1.378-1.55-2.5-3.457-2.5h-9.681c-1.906,0-3.458,1.122-3.458,2.5v0.551c0.224-0.033,0.455-0.051,0.691-0.051h9.681   c1.908,0,3.458,1.122,3.458,2.5v3.303c0.239-0.038,0.485-0.061,0.74-0.061h9.68c1.908,0,3.458,1.122,3.458,2.5v3.302   c0.239-0.038,0.485-0.061,0.74-0.061h9.681c1.906,0,3.457,1.122,3.457,2.5v3.302c0.238-0.038,0.484-0.061,0.738-0.061h9.682   c1.906,0,3.457,1.122,3.457,2.5v3.302c0.238-0.038,0.484-0.061,0.738-0.061h9.682c1.906,0,3.457,1.122,3.457,2.5v3.303   c0.24-0.038,0.486-0.061,0.74-0.061h9.682c1.906,0,3.457,1.122,3.457,2.5v10.708H218.5V39.333c0-0.276-0.311-0.5-0.691-0.5h-9.682   c-0.383,0-0.691,0.224-0.691,0.5v10.708h-2.814v-16.45c0-0.276-0.309-0.5-0.691-0.5h-9.682c-0.381,0-0.689,0.224-0.689,0.5v16.45   h-2.814V27.85c0-0.276-0.311-0.5-0.691-0.5h-9.682c-0.383,0-0.691,0.224-0.691,0.5v22.192h-2.813V22.108   c0-0.276-0.31-0.5-0.691-0.5h-9.681c-0.382,0-0.692,0.224-0.692,0.5v27.934h-2.238l-0.576-0.13V16.367c0-0.276-0.309-0.5-0.691-0.5   h-9.68c-0.382,0-0.691,0.224-0.691,0.5v31.051l-2.815-0.634V10.625c0-0.276-0.309-0.5-0.691-0.5h-9.681   c-0.382,0-0.691,0.224-0.691,0.5c0,0,0,33.151,0,33.152c-0.004-0.256-3.314,0.059-3.584,0.099   c-0.905,0.134-1.823,0.509-2.484,1.151c-0.078,0.077-0.15,0.154-0.218,0.235c-0.106,0.127-0.196,0.258-0.274,0.393   c-0.048,0.083-0.099,0.165-0.136,0.251c-0.067,0.152-0.107,0.308-0.14,0.466c-0.017,0.077-0.043,0.15-0.05,0.228   c-0.023,0.238-0.016,0.478,0.041,0.717l8.298,34.977c0.05,0.21,0.139,0.409,0.245,0.601c0.027,0.05,0.058,0.098,0.089,0.146   c0.104,0.162,0.224,0.316,0.363,0.46c0.025,0.026,0.045,0.053,0.07,0.079c0.169,0.163,0.363,0.31,0.573,0.445   c0.052,0.033,0.107,0.063,0.161,0.094c0.187,0.108,0.386,0.205,0.598,0.289c0.035,0.014,0.063,0.035,0.099,0.048l27.642,10.232   c0.045,0.017,0.096,0.022,0.141,0.038c0.207,0.07,0.422,0.127,0.645,0.172c0.076,0.015,0.147,0.033,0.223,0.044   c0.287,0.045,0.577,0.076,0.878,0.076c0.161,0,0.324-0.007,0.489-0.021l46.982-4c0.045-0.004,0.088-0.014,0.131-0.019   c0.107-0.012,0.213-0.029,0.318-0.046c0.123-0.021,0.246-0.043,0.365-0.072c0.1-0.023,0.197-0.051,0.293-0.08   c0.119-0.036,0.234-0.075,0.346-0.118c0.09-0.034,0.178-0.07,0.264-0.109c0.109-0.05,0.215-0.104,0.318-0.161   c0.078-0.044,0.156-0.087,0.23-0.135c0.098-0.063,0.189-0.131,0.277-0.2c0.068-0.052,0.135-0.103,0.197-0.158   c0.086-0.076,0.16-0.157,0.234-0.239c0.053-0.058,0.107-0.113,0.154-0.173c0.074-0.096,0.135-0.197,0.193-0.299   c0.033-0.054,0.07-0.104,0.1-0.16c0.078-0.161,0.143-0.328,0.184-0.501l8.297-34.977C230.649,53.344,230.661,53.14,230.651,52.938z    M226.51,53.042l-8.297,34.977l-42.871,3.65c-0.005-0.036-0.004-0.071-0.012-0.106l-8.2-38.52H226.51z"/>
	<g>
		<path d="M313.629-357.39c-0.059,0-0.118-0.003-0.178-0.01l-33.974-4c-0.66-0.078-1.19-0.581-1.303-1.236l-6-34.977    c-0.075-0.436,0.047-0.882,0.332-1.22c0.285-0.338,0.705-0.533,1.147-0.533h45.974c0.438,0,0.854,0.191,1.139,0.523    c0.285,0.332,0.41,0.772,0.344,1.205l-6,38.977C314.996-357.922,314.359-357.39,313.629-357.39L313.629-357.39z"/>
		<path d="M319.627-397.866l-6,38.977l-33.974-4l-6-34.977H319.627 M319.627-400.866h-45.974c-0.884,0-1.724,0.39-2.293,1.066    c-0.57,0.676-0.813,1.569-0.664,2.441l6,34.977c0.225,1.311,1.286,2.316,2.606,2.472l33.974,4    c0.119,0.014,0.237,0.021,0.354,0.021c1.461,0,2.734-1.065,2.962-2.543l6-38.977c0.134-0.865-0.118-1.746-0.688-2.41    C321.334-400.484,320.502-400.866,319.627-400.866L319.627-400.866z"/>
	</g>
	<g>
		<path d="M333.616-355.158c-0.056,0-0.112-0.003-0.168-0.009l-19.987-2.232c-0.406-0.045-0.776-0.254-1.025-0.579    c-0.248-0.324-0.354-0.736-0.291-1.14l6-38.977c0.066-0.432,0.317-0.813,0.688-1.044c0.24-0.15,0.517-0.228,0.794-0.228    c0.15,0,0.301,0.022,0.446,0.068l19.987,6.232c0.718,0.224,1.159,0.945,1.032,1.686l-6,34.977    C334.968-355.677,334.337-355.158,333.616-355.158L333.616-355.158z"/>
		<path d="M319.627-397.866l19.987,6.232l-6,34.977l-19.987-2.232L319.627-397.866 M319.627-400.866    c-0.556,0-1.106,0.154-1.588,0.455c-0.741,0.462-1.244,1.225-1.377,2.088l-6,38.977c-0.125,0.808,0.086,1.631,0.583,2.28    s1.236,1.067,2.049,1.158l19.987,2.232c0.113,0.013,0.226,0.019,0.336,0.019c1.443,0,2.704-1.04,2.954-2.493l6-34.977    c0.254-1.482-0.628-2.924-2.064-3.371l-19.987-6.232C320.228-400.821,319.927-400.866,319.627-400.866L319.627-400.866z"/>
	</g>
	<g>
		<g>
			<path d="M288.182-390.393c-0.827,0-1.5-0.673-1.5-1.5v-39.417c0-0.827,0.673-1.5,1.5-1.5h7c0.827,0,1.5,0.673,1.5,1.5v39.417     c0,0.827-0.673,1.5-1.5,1.5H288.182z"/>
			<path d="M295.182-431.81c0.276,0,0.5,0.224,0.5,0.5v39.417c0,0.276-0.224,0.5-0.5,0.5h-7c-0.276,0-0.5-0.224-0.5-0.5v-39.417     c0-0.276,0.224-0.5,0.5-0.5H295.182 M295.182-433.81h-7c-1.379,0-2.5,1.122-2.5,2.5v39.417c0,1.378,1.121,2.5,2.5,2.5h7     c1.379,0,2.5-1.122,2.5-2.5v-39.417C297.682-432.688,296.561-433.81,295.182-433.81L295.182-433.81z"/>
		</g>
		<g>
			<path d="M318.286-373.167c-0.827,0-1.5-0.673-1.5-1.5v-39.417c0-0.827,0.673-1.5,1.5-1.5h7c0.827,0,1.5,0.673,1.5,1.5v39.417     c0,0.827-0.673,1.5-1.5,1.5H318.286z"/>
			<path d="M325.286-414.584c0.276,0,0.5,0.224,0.5,0.5v39.417c0,0.276-0.224,0.5-0.5,0.5h-7c-0.276,0-0.5-0.224-0.5-0.5v-39.417     c0-0.276,0.224-0.5,0.5-0.5H325.286 M325.286-416.584h-7c-1.379,0-2.5,1.122-2.5,2.5v39.417c0,1.378,1.121,2.5,2.5,2.5h7     c1.379,0,2.5-1.122,2.5-2.5v-39.417C327.786-415.463,326.665-416.584,325.286-416.584L325.286-416.584z"/>
		</g>
		<g>
			<path d="M328.321-367.426c-0.827,0-1.5-0.673-1.5-1.5v-39.417c0-0.827,0.673-1.5,1.5-1.5h7c0.827,0,1.5,0.673,1.5,1.5v39.417     c0,0.827-0.673,1.5-1.5,1.5H328.321z"/>
			<path d="M335.321-408.843c0.276,0,0.5,0.224,0.5,0.5v39.417c0,0.276-0.224,0.5-0.5,0.5h-7c-0.276,0-0.5-0.224-0.5-0.5v-39.417     c0-0.276,0.224-0.5,0.5-0.5H335.321 M335.321-410.843h-7c-1.379,0-2.5,1.122-2.5,2.5v39.417c0,1.378,1.121,2.5,2.5,2.5h7     c1.379,0,2.5-1.122,2.5-2.5v-39.417C337.821-409.721,336.7-410.843,335.321-410.843L335.321-410.843z"/>
		</g>
		<g>
			<path d="M308.251-378.909c-0.827,0-1.5-0.673-1.5-1.5v-39.417c0-0.827,0.673-1.5,1.5-1.5h7c0.827,0,1.5,0.673,1.5,1.5v39.417     c0,0.827-0.673,1.5-1.5,1.5H308.251z"/>
			<path d="M315.251-420.326c0.276,0,0.5,0.224,0.5,0.5v39.417c0,0.276-0.224,0.5-0.5,0.5h-7c-0.276,0-0.5-0.224-0.5-0.5v-39.417     c0-0.276,0.224-0.5,0.5-0.5H315.251 M315.251-422.326h-7c-1.379,0-2.5,1.122-2.5,2.5v39.417c0,1.378,1.121,2.5,2.5,2.5h7     c1.379,0,2.5-1.122,2.5-2.5v-39.417C317.751-421.205,316.63-422.326,315.251-422.326L315.251-422.326z"/>
		</g>
		<g>
			<path d="M298.217-384.651c-0.827,0-1.5-0.673-1.5-1.5v-39.417c0-0.827,0.673-1.5,1.5-1.5h7c0.827,0,1.5,0.673,1.5,1.5v39.417     c0,0.827-0.673,1.5-1.5,1.5H298.217z"/>
			<path d="M305.217-426.068c0.276,0,0.5,0.224,0.5,0.5v39.417c0,0.276-0.224,0.5-0.5,0.5h-7c-0.276,0-0.5-0.224-0.5-0.5v-39.417     c0-0.276,0.224-0.5,0.5-0.5H305.217 M305.217-428.068h-7c-1.379,0-2.5,1.122-2.5,2.5v39.417c0,1.378,1.121,2.5,2.5,2.5h7     c1.379,0,2.5-1.122,2.5-2.5v-39.417C307.717-426.946,306.596-428.068,305.217-428.068L305.217-428.068z"/>
		</g>
		<g>
			<path d="M278.146-396.134c-0.827,0-1.5-0.673-1.5-1.5v-39.417c0-0.827,0.673-1.5,1.5-1.5h7c0.827,0,1.5,0.673,1.5,1.5v39.417     c0,0.827-0.673,1.5-1.5,1.5H278.146z"/>
			<path d="M285.146-437.551c0.276,0,0.5,0.224,0.5,0.5v39.417c0,0.276-0.224,0.5-0.5,0.5h-7c-0.276,0-0.5-0.224-0.5-0.5v-39.417     c0-0.276,0.224-0.5,0.5-0.5H285.146 M285.146-439.551h-7c-1.378,0-2.5,1.122-2.5,2.5v39.417c0,1.378,1.122,2.5,2.5,2.5h7     c1.379,0,2.5-1.122,2.5-2.5v-39.417C287.646-438.43,286.525-439.551,285.146-439.551L285.146-439.551z"/>
		</g>
	</g>
	<g>
		<g>
			<path d="M286.182-387.393c-0.827,0-1.5-0.673-1.5-1.5v-39.417c0-0.827,0.673-1.5,1.5-1.5h7c0.827,0,1.5,0.673,1.5,1.5v39.417     c0,0.827-0.673,1.5-1.5,1.5H286.182z"/>
			<path fill="#000000" d="M293.182-428.81c0.276,0,0.5,0.224,0.5,0.5v39.417c0,0.276-0.224,0.5-0.5,0.5h-7     c-0.276,0-0.5-0.224-0.5-0.5v-39.417c0-0.276,0.224-0.5,0.5-0.5H293.182 M293.182-430.81h-7c-1.379,0-2.5,1.122-2.5,2.5v39.417     c0,1.378,1.121,2.5,2.5,2.5h7c1.379,0,2.5-1.122,2.5-2.5v-39.417C295.682-429.688,294.561-430.81,293.182-430.81L293.182-430.81z     "/>
		</g>
		<g>
			<path d="M316.286-370.167c-0.827,0-1.5-0.673-1.5-1.5v-39.417c0-0.827,0.673-1.5,1.5-1.5h7c0.827,0,1.5,0.673,1.5,1.5v39.417     c0,0.827-0.673,1.5-1.5,1.5H316.286z"/>
			<path fill="#000000" d="M323.286-411.584c0.276,0,0.5,0.224,0.5,0.5v39.417c0,0.276-0.224,0.5-0.5,0.5h-7     c-0.276,0-0.5-0.224-0.5-0.5v-39.417c0-0.276,0.224-0.5,0.5-0.5H323.286 M323.286-413.584h-7c-1.379,0-2.5,1.122-2.5,2.5v39.417     c0,1.378,1.121,2.5,2.5,2.5h7c1.379,0,2.5-1.122,2.5-2.5v-39.417C325.786-412.463,324.665-413.584,323.286-413.584     L323.286-413.584z"/>
		</g>
		<g>
			<path d="M326.321-364.426c-0.827,0-1.5-0.673-1.5-1.5v-39.417c0-0.827,0.673-1.5,1.5-1.5h7c0.827,0,1.5,0.673,1.5,1.5v39.417     c0,0.827-0.673,1.5-1.5,1.5H326.321z"/>
			<path fill="#000000" d="M333.321-405.843c0.276,0,0.5,0.224,0.5,0.5v39.417c0,0.276-0.224,0.5-0.5,0.5h-7     c-0.276,0-0.5-0.224-0.5-0.5v-39.417c0-0.276,0.224-0.5,0.5-0.5H333.321 M333.321-407.843h-7c-1.379,0-2.5,1.122-2.5,2.5v39.417     c0,1.378,1.121,2.5,2.5,2.5h7c1.379,0,2.5-1.122,2.5-2.5v-39.417C335.821-406.721,334.7-407.843,333.321-407.843L333.321-407.843     z"/>
		</g>
		<g>
			<path d="M306.251-375.909c-0.827,0-1.5-0.673-1.5-1.5v-39.417c0-0.827,0.673-1.5,1.5-1.5h7c0.827,0,1.5,0.673,1.5,1.5v39.417     c0,0.827-0.673,1.5-1.5,1.5H306.251z"/>
			<path fill="#000000" d="M313.251-417.326c0.276,0,0.5,0.224,0.5,0.5v39.417c0,0.276-0.224,0.5-0.5,0.5h-7     c-0.276,0-0.5-0.224-0.5-0.5v-39.417c0-0.276,0.224-0.5,0.5-0.5H313.251 M313.251-419.326h-7c-1.379,0-2.5,1.122-2.5,2.5v39.417     c0,1.378,1.121,2.5,2.5,2.5h7c1.379,0,2.5-1.122,2.5-2.5v-39.417C315.751-418.205,314.63-419.326,313.251-419.326     L313.251-419.326z"/>
		</g>
		<g>
			<path d="M296.217-381.651c-0.827,0-1.5-0.673-1.5-1.5v-39.417c0-0.827,0.673-1.5,1.5-1.5h7c0.827,0,1.5,0.673,1.5,1.5v39.417     c0,0.827-0.673,1.5-1.5,1.5H296.217z"/>
			<path fill="#000000" d="M303.217-423.068c0.276,0,0.5,0.224,0.5,0.5v39.417c0,0.276-0.224,0.5-0.5,0.5h-7     c-0.276,0-0.5-0.224-0.5-0.5v-39.417c0-0.276,0.224-0.5,0.5-0.5H303.217 M303.217-425.068h-7c-1.379,0-2.5,1.122-2.5,2.5v39.417     c0,1.378,1.121,2.5,2.5,2.5h7c1.379,0,2.5-1.122,2.5-2.5v-39.417C305.717-423.946,304.596-425.068,303.217-425.068     L303.217-425.068z"/>
		</g>
		<g>
			<path d="M276.146-393.134c-0.827,0-1.5-0.673-1.5-1.5v-39.417c0-0.827,0.673-1.5,1.5-1.5h7c0.827,0,1.5,0.673,1.5,1.5v39.417     c0,0.827-0.673,1.5-1.5,1.5H276.146z"/>
			<path fill="#000000" d="M283.146-434.551c0.276,0,0.5,0.224,0.5,0.5v39.417c0,0.276-0.224,0.5-0.5,0.5h-7     c-0.276,0-0.5-0.224-0.5-0.5v-39.417c0-0.276,0.224-0.5,0.5-0.5H283.146 M283.146-436.551h-7c-1.378,0-2.5,1.122-2.5,2.5v39.417     c0,1.378,1.122,2.5,2.5,2.5h7c1.379,0,2.5-1.122,2.5-2.5v-39.417C285.646-435.43,284.525-436.551,283.146-436.551     L283.146-436.551z"/>
		</g>
	</g>
	<g>
		<path fill="#000000" d="M299.639-351.158c-0.73,0-1.367-0.533-1.48-1.272l-6-38.977c-0.066-0.433,0.059-0.873,0.344-1.205    c0.285-0.333,0.701-0.523,1.139-0.523h45.974c0.442,0,0.862,0.195,1.146,0.533c0.285,0.338,0.406,0.785,0.332,1.22l-6,34.977    c-0.112,0.655-0.643,1.159-1.303,1.236l-33.974,4C299.757-351.161,299.697-351.158,299.639-351.158L299.639-351.158z"/>
		<path d="M339.614-391.634l-6,34.977l-33.974,4l-6-38.977H339.614 M339.614-394.634h-45.974c-0.875,0-1.707,0.382-2.277,1.047    c-0.569,0.664-0.821,1.544-0.688,2.41l6,38.977c0.228,1.478,1.501,2.544,2.962,2.544c0.116,0,0.234-0.007,0.354-0.021l33.974-4    c1.32-0.156,2.382-1.162,2.606-2.472l6-34.977c0.149-0.872-0.094-1.765-0.663-2.441    C341.338-394.244,340.499-394.634,339.614-394.634L339.614-394.634z"/>
	</g>
	<g>
		<path d="M299.641-351.158c-0.233,0-0.468-0.054-0.684-0.165l-19.987-10.232c-0.42-0.215-0.715-0.616-0.795-1.082l-6-34.977    c-0.088-0.515,0.098-1.038,0.49-1.382c0.277-0.243,0.63-0.372,0.988-0.372c0.149,0,0.3,0.022,0.446,0.068l19.987,6.232    c0.547,0.17,0.949,0.638,1.036,1.204l6,38.977c0.086,0.557-0.147,1.115-0.604,1.444    C300.258-351.253,299.95-351.158,299.641-351.158L299.641-351.158z"/>
		<path d="M273.653-397.866l19.987,6.232l6,38.977l-19.987-10.232L273.653-397.866 M273.654-400.866    c-0.717,0-1.422,0.257-1.977,0.743c-0.786,0.688-1.157,1.735-0.98,2.764l6,34.977c0.16,0.931,0.749,1.732,1.59,2.163    l19.987,10.232c0.432,0.221,0.9,0.33,1.367,0.33c0.619,0,1.235-0.191,1.756-0.567c0.913-0.66,1.381-1.775,1.209-2.889l-6-38.977    c-0.174-1.132-0.979-2.066-2.072-2.407l-19.987-6.232C274.253-400.822,273.952-400.866,273.654-400.866L273.654-400.866z"/>
	</g>
	<path d="M206.875,56.424c-5.811-0.769-14.533,6.464-14.936,6.411c-7.646-1.012-14.566,3.611-15.455,10.326   c-0.888,6.714,4.592,12.978,12.238,13.989c5.643,0.747,14.389-5.387,14.793-5.333c7.461,0.987,14.26-3.896,15.188-10.909   S214.336,57.411,206.875,56.424z"/>
	<path fill="#000000" d="M324.638,50.208c-4.576,0.68-10.617,1.054-17.012,1.054s-12.436-0.375-17.012-1.054   c-1.555-0.231-3.532-0.531-5.335-1.128l2.94,33.663c1.849-0.889,3.981-1.281,5.271-1.516c0.568-0.104,1.172-0.197,1.792-0.287   c3.18,3.754,7.882,6.012,13.001,6.012c2.213,0,4.382-0.428,6.447-1.271c1.776-0.727,3.423-1.76,4.895-3.071   c0.298-0.266,0.493-0.61,0.591-0.979c0.29-0.152,0.565-0.327,0.826-0.523c0.239,0.04,0.488,0.077,0.718,0.119   c1.29,0.235,3.423,0.626,5.271,1.516l2.94-33.663C328.17,49.677,326.192,49.977,324.638,50.208z M308.284,84.96   c-5.939,0-11.569-3.536-13.954-9.374c-3.148-7.704,0.546-16.501,8.25-19.648c1.635-0.668,3.317-1.011,4.986-1.089   c-0.671,0.598-1.273,1.256-1.819,1.953c-0.645,0.659-1.17,1.473-1.559,2.429c-1.933,3.77-2.277,8.321-0.549,12.552   c1.403,3.436,3.935,6.061,6.988,7.645c1.961,1.685,4.098,2.714,6.152,2.875c-0.863,0.596-1.792,1.121-2.803,1.534   C312.112,84.599,310.183,84.96,308.284,84.96z M319.174,79.941c-0.558,0.267-1.174,0.402-1.834,0.402   c-3.467,0-7.589-3.542-10.023-8.614c-1.486-3.097-2.159-6.34-1.896-9.131c0.245-2.606,1.279-4.473,2.911-5.256   c0.557-0.267,1.173-0.402,1.833-0.402c3.467,0,7.587,3.542,10.022,8.615c1.486,3.098,2.16,6.34,1.897,9.131   C321.838,77.292,320.805,79.159,319.174,79.941z"/>
	<path d="M334.838,39.846c0-4.863-6.386-5.812-10.2-6.379c-3.61-0.537-8.141-0.879-13.03-1.001V9.02   c0-2.199-1.782-3.982-3.981-3.982h-14.972c-2.198,0-3.981,1.783-3.981,3.982s1.783,3.982,3.981,3.982h10.99v19.464   c-4.89,0.122-9.42,0.464-13.03,1.001c-3.814,0.567-10.2,1.516-10.2,6.379c0,0.757,0,3.225,0,3.982c0,0.912,0.225,1.687,0.615,2.347   l3.647,41.756c0.004,0.044,0.019,0.085,0.023,0.129c0.406,4.346,6.24,5.42,8.791,5.883c3.813,0.694,8.833,1.076,14.135,1.076   s10.322-0.382,14.135-1.076c2.551-0.463,8.385-1.538,8.791-5.883c0.005-0.044,0.02-0.085,0.023-0.129l3.647-41.756   c0.391-0.66,0.615-1.435,0.615-2.347C334.838,43.07,334.838,40.603,334.838,39.846z M303.645,36.446v1.907   c0,2.199,1.782,3.982,3.981,3.982s3.981-1.783,3.981-3.982v-1.907c10.932,0.281,19.249,1.696,19.249,3.4   c0,1.907-10.4,3.453-23.23,3.453s-23.23-1.546-23.23-3.453C284.396,38.142,292.713,36.727,303.645,36.446z M321.761,81.227   c-0.229-0.042-0.479-0.079-0.718-0.119c-0.261,0.196-1.119,1.235-1.417,1.501c-1.472,1.311-3.118,2.344-4.895,3.071   c-2.065,0.843-4.234,1.271-6.447,1.271c-5.119,0-9.821-2.257-13.001-6.012c-0.62,0.09-1.224,0.184-1.792,0.287   c-1.29,0.235-3.423,0.626-5.271,1.516l-2.94-33.663c1.803,0.598,3.78,0.897,5.335,1.128c4.576,0.68,10.617,1.054,17.012,1.054   s12.436-0.375,17.012-1.054c1.555-0.231,3.532-0.531,5.335-1.128l-2.94,33.663C325.184,81.853,323.051,81.461,321.761,81.227z"/>
	<path fill="#000000" d="M284.396,39.846c0,1.907,10.4,3.453,23.23,3.453s23.23-1.546,23.23-3.453c0-1.704-8.317-3.119-19.249-3.4   v1.907c0,2.199-1.782,3.982-3.981,3.982s-3.981-1.783-3.981-3.982v-1.907C292.713,36.727,284.396,38.142,284.396,39.846z"/>
	<path d="M316.78,82.303c-5.821,0.155-11.737-7.083-13.141-10.519c-1.729-4.231-1.384-8.783,0.549-12.552   c0.389-0.956,0.914-1.77,1.559-2.429c0.546-0.697,1.148-1.355,1.819-1.953c-1.669,0.079-3.352,0.421-4.986,1.089   c-7.704,3.147-11.398,11.944-8.25,19.648c2.385,5.838,8.015,9.374,13.954,9.374c1.898,0,3.828-0.361,5.693-1.124   C314.988,83.424,315.917,82.899,316.78,82.303z"/>
	<path d="M322.084,74.686c0.263-2.791-0.411-6.033-1.897-9.131c-2.436-5.072-6.556-8.615-10.022-8.615   c-0.66,0-1.276,0.136-1.833,0.402c-1.632,0.783-2.666,2.65-2.911,5.256c-0.263,2.791,0.41,6.034,1.896,9.131   c2.435,5.072,6.557,8.614,10.023,8.614c0.66,0,1.276-0.136,1.834-0.402C320.805,79.159,321.838,77.292,322.084,74.686z"/>
	<g>
		<g>
			<g>
				<path fill="#000000" d="M387.014-401.586c-1.037,0-1.902-0.793-1.992-1.826l-3.84-43.958c-0.049-0.559,0.139-1.112,0.518-1.525      c0.379-0.414,0.914-0.649,1.475-0.649h45.82c0.561,0,1.096,0.235,1.475,0.649c0.379,0.413,0.566,0.966,0.518,1.525l-3.84,43.958      c-0.09,1.033-0.955,1.826-1.992,1.826H387.014z"/>
				<path d="M428.994-447.544l-3.84,43.958h-38.141l-3.84-43.958H428.994 M428.994-451.544h-45.82c-1.121,0-2.191,0.471-2.949,1.297      s-1.133,1.934-1.035,3.051l3.84,43.958c0.18,2.066,1.91,3.652,3.984,3.652h38.141c2.074,0,3.805-1.585,3.984-3.652l3.84-43.958      c0.098-1.117-0.277-2.224-1.035-3.051S430.115-451.544,428.994-451.544L428.994-451.544z"/>
			</g>
			<g>
				<path d="M406.084-442.076c-6.329,0-12.294-0.369-16.796-1.038c-6.146-0.914-8.541-2.156-8.541-4.431      c0-2.274,2.395-3.517,8.541-4.43c4.503-0.669,10.468-1.038,16.796-1.038s12.293,0.369,16.796,1.038      c6.146,0.913,8.541,2.155,8.541,4.43c0,2.275-2.395,3.517-8.541,4.431C418.378-442.444,412.413-442.076,406.084-442.076      L406.084-442.076z"/>
				<path d="M406.084-451.011c12.889,0,23.337,1.553,23.337,3.467c0,1.916-10.448,3.468-23.337,3.468s-23.337-1.553-23.337-3.468      C382.747-449.458,393.195-451.011,406.084-451.011 M406.084-455.011c-6.424,0-12.493,0.376-17.09,1.059      c-3.832,0.569-10.247,1.522-10.247,6.408c0,4.886,6.415,5.839,10.247,6.409c4.597,0.683,10.666,1.059,17.09,1.059      s12.493-0.376,17.09-1.059c3.832-0.57,10.247-1.523,10.247-6.409c0-4.886-6.415-5.839-10.247-6.408      C418.577-454.635,412.508-455.011,406.084-455.011L406.084-455.011z"/>
			</g>
			<g>
				<path fill="#000000" d="M406.084-446.076c-6.329,0-12.294-0.369-16.796-1.038c-6.146-0.914-8.541-2.156-8.541-4.431      c0-2.274,2.395-3.517,8.541-4.43c4.503-0.669,10.468-1.038,16.796-1.038s12.293,0.369,16.796,1.038      c6.146,0.913,8.541,2.155,8.541,4.43c0,2.275-2.395,3.517-8.541,4.431C418.378-446.444,412.413-446.076,406.084-446.076      L406.084-446.076z"/>
				<path d="M406.084-455.011c12.889,0,23.337,1.553,23.337,3.467c0,1.916-10.448,3.468-23.337,3.468s-23.337-1.553-23.337-3.468      C382.747-453.458,393.195-455.011,406.084-455.011 M406.084-459.011c-6.424,0-12.493,0.376-17.09,1.059      c-3.832,0.569-10.247,1.522-10.247,6.408c0,4.886,6.415,5.839,10.247,6.409c4.597,0.683,10.666,1.059,17.09,1.059      s12.493-0.376,17.09-1.059c3.832-0.57,10.247-1.523,10.247-6.409c0-4.886-6.415-5.839-10.247-6.408      C418.577-458.635,412.508-459.011,406.084-459.011L406.084-459.011z"/>
			</g>
			<g>
				<path d="M406.084-398.118c-7.869,0-21.07-0.71-21.07-5.468c0-4.757,13.201-5.467,21.07-5.467s21.07,0.71,21.07,5.467      C427.154-398.828,413.953-398.118,406.084-398.118L406.084-398.118z"/>
				<path d="M406.084-407.053c10.532,0,19.07,1.553,19.07,3.467c0,1.916-8.538,3.468-19.07,3.468s-19.07-1.553-19.07-3.468      C387.014-405.5,395.552-407.053,406.084-407.053 M406.084-411.053c-5.326,0-10.369,0.384-14.2,1.08      c-2.654,0.483-8.87,1.613-8.87,6.387c0,4.775,6.216,5.905,8.87,6.388c3.83,0.697,8.874,1.081,14.2,1.081s10.37-0.384,14.2-1.081      c2.654-0.482,8.87-1.613,8.87-6.388c0-4.774-6.216-5.904-8.87-6.387C416.453-410.669,411.41-411.053,406.084-411.053      L406.084-411.053z"/>
			</g>
		</g>
		<polyline fill="none" stroke="#000000" stroke-width="8" stroke-linecap="round" stroke-linejoin="round" points="    406.084,-453.043 406.084,-482.511 391.044,-482.511   "/>
		<g>
			<path d="M406.745-405.222c-6.587,0-12.453-3.94-14.944-10.038c-1.63-3.991-1.609-8.377,0.06-12.352     c1.669-3.974,4.786-7.061,8.776-8.691c1.68-0.687,3.477-1.08,5.341-1.167c0.016,0,0.031-0.001,0.047-0.001     c0.405,0,0.771,0.245,0.926,0.622c0.16,0.392,0.056,0.842-0.26,1.124c-4.461,3.98-5.942,10.365-3.686,15.888     c2.178,5.332,7.316,8.777,13.091,8.777c0.221,0,0.443-0.005,0.665-0.016c0.016,0,0.031-0.001,0.047-0.001     c0.405,0,0.771,0.245,0.926,0.622c0.16,0.392,0.056,0.842-0.261,1.125c-1.392,1.241-2.949,2.218-4.63,2.905     C410.89-405.627,408.838-405.222,406.745-405.222L406.745-405.222z"/>
			<path fill="#000000" d="M406.024-436.471c-4.649,4.148-6.437,10.915-3.945,17.012c2.396,5.864,8.049,9.399,14.017,9.399     c0.236,0,0.475-0.005,0.712-0.017c-1.253,1.117-2.701,2.055-4.343,2.726c-1.874,0.766-3.813,1.128-5.72,1.128     c-5.967,0-11.622-3.552-14.019-9.417c-3.162-7.739,0.549-16.577,8.288-19.738C402.657-436.048,404.348-436.392,406.024-436.471      M406.025-438.471c-0.032,0-0.063,0-0.095,0.002c-1.979,0.093-3.887,0.511-5.673,1.24c-4.237,1.731-7.547,5.009-9.319,9.23     s-1.795,8.879-0.063,13.116c2.646,6.476,8.875,10.66,15.87,10.66c2.224,0,4.402-0.43,6.477-1.277     c1.785-0.73,3.439-1.768,4.917-3.085c0.632-0.563,0.841-1.464,0.521-2.249c-0.309-0.754-1.042-1.244-1.851-1.244     c-0.032,0-0.063,0-0.096,0.002c-0.206,0.01-0.412,0.014-0.617,0.014c-5.366,0-10.142-3.201-12.165-8.155     c-2.097-5.132-0.721-11.065,3.425-14.764c0.633-0.563,0.841-1.464,0.521-2.249C407.567-437.982,406.834-438.471,406.025-438.471     L406.025-438.471z"/>
		</g>
		
			<ellipse transform="matrix(0.9016 -0.4326 0.4326 0.9016 223.3903 136.7418)" stroke="#FFFFFF" stroke-width="2" stroke-linecap="round" stroke-linejoin="round" cx="412.238" cy="-422.615" rx="8.17" ry="13.59" fill="#000000"/>
	</g>
</g>
<g id="B003">
</g>
<g id="TEXT_and_line">
</g>
</svg>