<svg xmlns="http://www.w3.org/2000/svg" xmlns:xlink="http://www.w3.org/1999/xlink" version="1.0" x="0px" y="0px" width="100px" height="100px" viewBox="0 0 100 100" enable-background="new 0 0 100 100" xml:space="preserve">
<g id="BG">
</g>
<g id="B001">
</g>
<g id="B002">
	<rect x="141.896" y="5.065" fill="#000000" width="99.947" height="89.953"/>
	<path d="M-315.542-422.853c0,1.829-1.267,3.31-2.83,3.31h-49.341c-1.563,0-2.83-1.481-2.83-3.31l0,0   c0-1.827,1.267-3.309,2.83-3.309h49.341C-316.809-426.161-315.542-424.68-315.542-422.853L-315.542-422.853z"/>
	<g>
		<path d="M-340.814-421.443c-2.061,0-3.74-1.222-5.364-2.404c-1.479-1.077-2.877-2.094-4.423-2.094    c-0.826,0-1.648,0.29-2.513,0.887l-0.292,0.202c-1.351,0.94-3.201,2.227-5.025,2.227c-0.213,0-0.426-0.017-0.636-0.054    c-0.019-0.003-1.5-0.576-2.273-1.116c-1.958,1.072-3.964,1.637-5.817,1.637l0,0c-1.344,0-2.614-0.292-3.774-0.87    c-1.318-0.655-2.195-1.554-2.536-2.599c-0.535-1.646,0.305-3.416,2.248-4.736c1.241-0.844,2.931-1.418,5.165-1.756    c6.095-0.917,14.179-1.423,22.763-1.423c8.584,0,16.668,0.505,22.762,1.423c2.234,0.338,3.924,0.912,5.165,1.756    c1.942,1.32,2.783,3.091,2.248,4.736c-0.341,1.045-1.218,1.943-2.536,2.599c-1.161,0.577-2.43,0.87-3.774,0.87    c-1.854,0-3.86-0.565-5.819-1.638c-0.773,0.54-2.25,1.113-2.27,1.117c-0.266,0.047-0.538,0.071-0.809,0.071    c-1.196,0-2.25-0.456-3.269-0.896c-0.838-0.363-1.63-0.705-2.481-0.801c-0.151-0.017-0.294-0.025-0.429-0.025    c-1.094,0-1.68,0.524-2.42,1.187c-0.579,0.518-1.235,1.105-2.204,1.423C-339.688-421.536-340.255-421.443-340.814-421.443    L-340.814-421.443z"/>
		<g>
			<path fill="#000000" d="M-343.292-433.042c8.207,0,16.413,0.472,22.688,1.417c1.668,0.252,3.546,0.715,4.958,1.675     c1.776,1.207,2.508,2.769,2.053,4.168c-0.285,0.875-1.034,1.685-2.283,2.306c-1.147,0.571-2.348,0.817-3.551,0.817     c-2.028,0-4.063-0.701-5.86-1.734c0.141,0.081-2.127,1.187-2.316,1.221c-0.246,0.043-0.486,0.063-0.721,0.063     c-2.026,0-3.688-1.467-5.694-1.694c-0.171-0.019-0.332-0.028-0.485-0.028c-2.254,0-2.757,1.971-4.78,2.635     c-0.534,0.175-1.042,0.252-1.532,0.252c-3.731,0-6.309-4.499-9.787-4.499c-0.866,0-1.788,0.279-2.797,0.976     c-1.363,0.941-3.241,2.341-5.033,2.341c-0.185,0-0.368-0.015-0.55-0.046c-0.187-0.033-2.457-1.14-2.316-1.221     c-1.798,1.033-3.833,1.734-5.86,1.734c-1.203,0-2.404-0.247-3.551-0.817c-1.249-0.621-1.998-1.431-2.283-2.306     c-0.455-1.399,0.277-2.961,2.053-4.168c1.412-0.96,3.29-1.423,4.958-1.675C-359.704-432.569-351.498-433.042-343.292-433.042      M-343.292-434.042c-8.608,0-16.719,0.507-22.837,1.429c-2.31,0.349-4.067,0.95-5.372,1.836c-2.137,1.453-3.05,3.436-2.442,5.305     c0.384,1.176,1.348,2.175,2.789,2.892c1.23,0.612,2.575,0.922,3.997,0.922c1.848,0,3.833-0.533,5.777-1.548     c0.921,0.591,2.208,1.017,2.227,1.02c0.235,0.041,0.478,0.062,0.723,0.062c1.981,0,3.906-1.339,5.311-2.317l0.29-0.201     c0.778-0.537,1.507-0.798,2.229-0.798c1.383,0,2.717,0.971,4.129,1.999c1.609,1.172,3.434,2.5,5.658,2.5     c0.612,0,1.232-0.102,1.843-0.302c1.069-0.351,1.767-0.975,2.382-1.526c0.778-0.696,1.224-1.06,2.087-1.06     c0.118,0,0.242,0.007,0.373,0.022c0.777,0.088,1.536,0.416,2.339,0.764c1.065,0.46,2.167,0.937,3.467,0.937     c0.3,0,0.601-0.026,0.896-0.079c0.02-0.004,1.302-0.432,2.222-1.021c1.944,1.016,3.931,1.549,5.78,1.549     c1.422,0,2.766-0.31,3.997-0.922c1.441-0.716,2.405-1.716,2.788-2.891c0.608-1.87-0.305-3.853-2.442-5.305     c-1.304-0.887-3.061-1.487-5.371-1.836C-326.573-433.534-334.683-434.042-343.292-434.042L-343.292-434.042z"/>
		</g>
	</g>
	<g>
		<g>
			<g>
				<path d="M-342.998-400.761c-14.074,0-25.524-7.214-25.524-16.082c0-0.276,0.224-0.5,0.5-0.5h50.049c0.276,0,0.5,0.224,0.5,0.5      C-317.473-407.975-328.923-400.761-342.998-400.761L-342.998-400.761z"/>
				<path d="M-317.973-416.843c0,8.605-11.204,15.582-25.024,15.582s-25.024-6.977-25.024-15.582H-317.973 M-317.973-417.843      h-50.049c-0.552,0-1,0.448-1,1c0,9.144,11.674,16.582,26.024,16.582s26.024-7.438,26.024-16.582      C-316.973-417.395-317.421-417.843-317.973-417.843L-317.973-417.843z"/>
			</g>
		</g>
	</g>
	<g>
		<g>
			<g>
				<path d="M-368.023-437.761c-0.276,0-0.5-0.224-0.5-0.5c0-8.868,11.45-16.082,25.524-16.082s25.524,7.214,25.524,16.082      c0,0.276-0.224,0.5-0.5,0.5H-368.023z"/>
				<path d="M-342.999-453.843c13.82,0,25.024,6.977,25.024,15.582h-50.049C-368.023-446.866-356.819-453.843-342.999-453.843       M-342.999-454.843c-14.35,0-26.024,7.438-26.024,16.582c0,0.552,0.448,1,1,1h50.049c0.552,0,1-0.448,1-1      C-316.974-447.404-328.648-454.843-342.999-454.843L-342.999-454.843z"/>
			</g>
		</g>
	</g>
	<path d="M-305.771,57.315c-1.54,0.987-3.687,1.704-3.72,1.709c-0.493,0.088-0.998,0.133-1.499,0.133   c-2.176,0-4.021-0.798-5.805-1.569c-1.345-0.582-2.616-1.131-3.917-1.278c-0.22-0.024-0.427-0.037-0.625-0.037   c-1.444,0-2.192,0.608-3.494,1.774c-1.031,0.923-2.198,1.967-3.988,2.555c-1.023,0.336-2.062,0.506-3.086,0.506   c-3.723,0-6.778-2.223-9.473-4.186c-2.365-1.721-4.597-3.346-6.913-3.346c-1.209,0-2.429,0.438-3.731,1.337l-0.485,0.336   c-2.354,1.637-5.576,3.879-8.893,3.879c-0.411,0-0.817-0.034-1.21-0.103c-0.032-0.005-2.186-0.718-3.729-1.708   c-3.254,1.7-6.578,2.593-9.672,2.593c-1.965,0-3.834-0.374-5.586-1.073c0.378,2.618,2.313,4.615,4.657,4.615h82.614   c2.454,0,4.448-2.189,4.689-4.985c-1.997,0.95-4.164,1.443-6.457,1.443C-299.189,59.91-302.515,59.017-305.771,57.315z"/>
	<path d="M-293.66,66.298h-83.799c-0.925,0-1.675,0.75-1.675,1.674c0,15.31,19.547,27.764,43.574,27.764   s43.574-12.455,43.574-27.764C-291.985,67.048-292.735,66.298-293.66,66.298z M-335.402,85.537c-1.06,0-1.919-1.355-1.919-3.029   c0-1.673,0.859-3.031,1.919-3.031s1.918,1.357,1.918,3.031C-333.483,84.182-334.342,85.537-335.402,85.537z M-329.76,77.013   c0-1.674,0.86-3.03,1.92-3.03c1.06,0,1.918,1.356,1.918,3.03c0,1.673-0.859,3.03-1.918,3.03   C-328.9,80.043-329.76,78.687-329.76,77.013z M-322.197,82.508c0-1.673,0.86-3.031,1.92-3.031c1.059,0,1.919,1.357,1.919,3.031   c0,1.674-0.86,3.029-1.919,3.029C-321.337,85.537-322.197,84.182-322.197,82.508z M-312.715,80.043c-1.06,0-1.919-1.356-1.919-3.03   c0-1.674,0.859-3.03,1.919-3.03s1.919,1.356,1.919,3.03C-310.796,78.687-311.655,80.043-312.715,80.043z M-341.045,77.013   c0,1.674-0.86,3.03-1.92,3.03c-1.06,0-1.919-1.355-1.919-3.03c0-1.674,0.859-3.03,1.919-3.03   C-341.905,73.983-341.045,75.339-341.045,77.013z M-348.608,82.508c0,1.673-0.859,3.028-1.918,3.028   c-1.059,0-1.919-1.355-1.919-3.028c0-1.674,0.86-3.03,1.919-3.03C-349.467,79.478-348.608,80.834-348.608,82.508z M-356.17,77.013   c0,1.673-0.859,3.03-1.919,3.03s-1.92-1.356-1.92-3.03c0-1.674,0.86-3.03,1.92-3.03S-356.17,75.339-356.17,77.013z"/>
	<path d="M-377.46,33.786h83.799c0.924,0,1.674-0.749,1.674-1.674c0-15.31-19.546-27.764-43.574-27.764   c-24.027,0-43.573,12.455-43.573,27.764C-379.135,33.037-378.385,33.786-377.46,33.786z M-335.718,14.547   c1.06,0,1.92,1.355,1.92,3.029c0,1.673-0.86,3.031-1.92,3.031c-1.06,0-1.918-1.357-1.918-3.031   C-337.636,15.902-336.778,14.547-335.718,14.547z M-341.361,23.071c0,1.674-0.86,3.03-1.919,3.03c-1.06,0-1.92-1.356-1.92-3.03   c0-1.673,0.86-3.03,1.92-3.03C-342.221,20.041-341.361,21.397-341.361,23.071z M-348.923,17.576c0,1.673-0.86,3.031-1.92,3.031   c-1.059,0-1.919-1.357-1.919-3.031c0-1.674,0.86-3.029,1.919-3.029C-349.783,14.547-348.923,15.902-348.923,17.576z    M-358.405,20.041c1.06,0,1.919,1.356,1.919,3.03c0,1.674-0.859,3.03-1.919,3.03c-1.06,0-1.92-1.356-1.92-3.03   C-360.325,21.397-359.465,20.041-358.405,20.041z M-330.075,23.071c0-1.674,0.86-3.03,1.919-3.03c1.06,0,1.92,1.356,1.92,3.03   s-0.86,3.03-1.92,3.03C-329.215,26.101-330.075,24.745-330.075,23.071z M-322.513,17.576c0-1.673,0.86-3.028,1.92-3.028   s1.919,1.355,1.919,3.028c0,1.674-0.86,3.03-1.919,3.03S-322.513,19.25-322.513,17.576z M-314.95,23.071   c0-1.673,0.859-3.03,1.919-3.03c1.06,0,1.92,1.356,1.92,3.03c0,1.674-0.86,3.03-1.92,3.03   C-314.091,26.101-314.95,24.745-314.95,23.071z"/>
	<path d="M-363.942,42.038c-3.584,0.33-6.995,0.72-10.098,1.186c-2.792,0.421-5.938,1.197-8.301,2.804   c-2.974,2.021-4.2,4.636-3.438,6.979c0.478,1.464,1.732,2.821,3.822,3.86c1.921,0.956,3.931,1.369,5.946,1.369   c3.395,0,6.801-1.174,9.812-2.904c-0.236,0.135,3.564,1.99,3.878,2.044c0.304,0.054,0.612,0.078,0.921,0.078   c3,0,6.144-2.343,8.426-3.919c1.689-1.166,3.233-1.633,4.683-1.633c5.823,0,10.139,7.532,16.386,7.532   c0.819,0,1.671-0.13,2.564-0.422c3.388-1.112,4.229-4.413,8.004-4.413c0.257,0,0.527,0.015,0.813,0.048   c3.359,0.38,6.141,2.836,9.534,2.836c0.393,0,0.794-0.033,1.206-0.106c0.316-0.056,4.114-1.909,3.878-2.044   c3.011,1.729,6.417,2.904,9.812,2.904c2.015,0,4.025-0.413,5.946-1.369c2.09-1.039,3.345-2.396,3.822-3.86   c0.762-2.342-0.464-4.958-3.438-6.979c-2.363-1.607-5.509-2.383-8.301-2.804c-1.045-0.158-2.146-0.301-3.252-0.442   c-2.978-1.437-9.215-2.642-22.199-2.724c-0.154-0.244-0.33-0.469-0.533-0.672c-1.869-1.858-5.708-2.057-9.341-2.057   c-3.939,0-8.932,0.395-14.058,1.111c-2.903,0.405-5.436,0.83-7.65,1.266C-358.928,40.459-361.795,41.249-363.942,42.038z    M-333.392,40.677c4.257,0,7.004,0.483,7.137,1.429c0.245,1.758-8.637,4.452-19.839,6.017c-5.174,0.723-9.94,1.078-13.593,1.078   c-4.257,0-7.004-0.482-7.136-1.428c-0.245-1.758,8.637-4.453,19.839-6.017C-341.81,41.033-337.044,40.677-333.392,40.677z    M-301.926,46.613c0,1.775-10.289,3.215-22.981,3.215c-3.578,0-6.95-0.118-9.97-0.321c8.955-2.1,11.322-4.38,11.862-6.094   C-311.21,43.547-301.926,44.928-301.926,46.613z"/>
	<polygon fill="#000000" points="-156.719,-542.342 -256.667,-504.616 -256.667,-509.081 -156.719,-557.591  "/>
	<polygon fill="#000000" points="-156.719,-557.591 -208.042,-594.569 -256.667,-509.081  "/>
	<path fill="#000000" stroke="#FF0000" stroke-width="3" stroke-linecap="round" stroke-linejoin="round" d="M-61.441-552.501   c0,0,4.167,5.5,11.667,8.667c0,0,2.5,9,13.667,12.167c0,0,5.995,11.667,17.667,14.25c0,0,5.265,4.856,1.327,12.058"/>
	
		<ellipse transform="matrix(0.9972 -0.075 0.075 0.9972 39.8675 -5.9426)" fill="#000000" cx="-59.232" cy="-534.076" rx="8.514" ry="9.318"/>
	
		<ellipse transform="matrix(0.9972 -0.075 0.075 0.9972 38.3431 -5.5862)" fill="#000000" cx="-55.242" cy="-513.561" rx="8.513" ry="9.318"/>
	
		<ellipse transform="matrix(0.9972 -0.075 0.075 0.9972 37.8002 -7.0299)" fill="#000000" cx="-74.75" cy="-507.08" rx="8.514" ry="9.318"/>
	<path d="M-253.302,91.801c1.503-1.059,3.933-2.239,3.933-2.239s3.72-2.033,5.937-2.985c14.556-6.249,29-12.782,43.483-19.197   c9.381-4.155,18.763-8.309,28.148-12.457c-0.879-1.176-1.38-2.09-1.58-2.49c-0.078-0.037-0.16-0.069-0.236-0.106   c-7.569-3.688-12.079-10.498-13.251-12.546c-9.643-2.981-14.396-11.847-15.25-14.125c-4.085-1.833-8.429-5.913-11.078-8.655   l1.038-1.825c1.55,1.735,7.08,6.943,12.665,9.448c0.854,2.278,5.607,11.144,15.25,14.125c1.203,2.102,5.348,8.734,13.236,12.311   c0.014,0.006,0.028,0.012,0.042,0.019l0.339,0.151l0.199,0.362c0.878,1.537,3.684,5.65,9.864,8.443   c4.095,1.851,3.989-6.102,3.996-8.25c0.014-4.478-0.356-9.286-3.394-12.839c-2.995-3.504-7.67-5.222-11.368-7.828   c-5.147-3.627-10.22-7.389-15.307-11.103c-6.567-4.793-13.204-9.498-19.8-14.249c-0.515-0.371-1.13-0.566-1.754-0.566   c-0.213,0-0.427,0.022-0.639,0.069c-0.832,0.181-1.547,0.708-1.969,1.448c-1.513,2.66-3.031,5.316-4.54,7.981   c-0.144,0.254-0.29,0.508-0.434,0.762c-7.428,13.15-14.901,26.277-22.417,39.377c-3.669,6.396-7.385,12.785-10.935,19.248   c-2.55,4.643-6.144,9.359-7.304,14.79c-0.195,0.913-0.294,1.897-0.207,2.889c0.087,0.981,0.692,2.024,1.502,2.584   c0.508,0.352,1.105,0.532,1.707,0.532c0.357,0,0.716-0.063,1.059-0.193l88.043-33.233c-1.012-0.587-1.928-1.199-2.749-1.821   c-0.832-0.631-8.964,3.348-9.833,3.673c-14.962,5.588-29.922,11.179-44.886,16.761C-232.292,83.985-242.752,88.023-253.302,91.801z    M-225.7,54.385c3.831-0.288,7.192,2.878,7.508,7.07c0.315,4.193-2.536,7.825-6.367,8.113c-3.831,0.288-7.192-2.877-7.507-7.07   C-232.381,58.306-229.531,54.673-225.7,54.385z M-202.253,56.16c0.315,4.193-2.535,7.825-6.366,8.113   c-3.831,0.288-7.191-2.877-7.507-7.07c-0.315-4.193,2.535-7.826,6.366-8.114S-202.569,51.967-202.253,56.16z M-205.513,39.397   c0.315,4.193-2.535,7.825-6.366,8.113s-7.193-2.878-7.508-7.07c-0.315-4.193,2.536-7.825,6.366-8.113   C-209.189,32.039-205.828,35.205-205.513,39.397z"/>
	<g>
		<path d="M-289.965-543.621c1.452,2.146,2.646,5.597,1.41,9.672l4.588-1.732v-10.851L-289.965-543.621z"/>
		<path d="M-281.001-550.136c-0.011-0.124-0.021-0.245-0.047-0.365c-0.028-0.13-0.073-0.253-0.118-0.377    c-0.041-0.113-0.079-0.226-0.133-0.333c-0.06-0.119-0.135-0.227-0.21-0.337c-0.067-0.099-0.131-0.198-0.211-0.289    c-0.089-0.102-0.193-0.189-0.296-0.279c-0.068-0.06-0.122-0.131-0.196-0.185l-47.744-34.399c-0.515-0.371-1.13-0.566-1.754-0.566    c-0.213,0-0.427,0.022-0.639,0.069c-0.832,0.181-1.547,0.708-1.969,1.448c-1.658,2.915-3.324,5.824-4.973,8.744    c-7.428,13.15-14.901,26.277-22.417,39.377c-3.669,6.396-7.385,12.785-10.935,19.248c-2.55,4.643-6.144,9.359-7.304,14.79    c-0.195,0.913,0.002,2.064,0.002,3.005c0,0.985,0.483,1.907,1.294,2.468c0.508,0.352,1.105,0.532,1.707,0.532    c0.357,0,0.716-0.063,1.059-0.193l92.979-35.096c1.167-0.441,1.94-1.559,1.94-2.807v-14.186    C-280.967-549.959-280.993-550.045-281.001-550.136z M-335.678-577.291c1.55,1.735,7.08,6.943,12.665,9.448    c0.854,2.278,5.607,11.144,15.25,14.125c1.248,2.181,5.65,9.247,14.125,12.708l-83.307,36.27L-335.678-577.291z M-283.967-549.867    l-8.585,4.167c-10.45-2.647-16.029-13.222-16.085-13.33c-0.19-0.368-0.525-0.643-0.924-0.756    c-10.164-2.882-12.537-10.795-12.631-11.125c-0.123-0.441-0.44-0.802-0.862-0.98c-6.895-2.911-10.875-7.96-11.043-8.177    l2.388-4.198L-283.967-549.867z M-376.945-501.739C-376.945-501.739-376.945-501.739-376.945-501.739    c0.444,0,0.892-0.098,1.31-0.301l82.923-36.657c1.081,1.421,2.345,4.135,2.345,4.135s0.342,1.44,0.314,1.527l-86.892,32.449    V-501.739z M-288.555-533.949c1.236-4.075,0.042-7.526-1.41-9.672l5.998-2.911v10.851L-288.555-533.949z"/>
		<path d="M-334.098-580.068c0.168,0.216,4.149,5.266,11.043,8.177c0.422,0.178,0.739,0.539,0.862,0.98    c0.094,0.33,2.467,8.243,12.631,11.125c0.399,0.113,0.734,0.388,0.924,0.756c0.056,0.108,5.635,10.683,16.085,13.33l8.585-4.167    l-47.744-34.399L-334.098-580.068z"/>
	</g>
	<path d="M-338.856-577.771c1.55,1.735,7.633,8.454,13.218,10.959c0.854,2.278,5.607,11.144,15.25,14.125   c1.248,2.181,6.275,9.757,14.75,13.219l-81.307,34.729L-338.856-577.771z"/>
	<path fill="#000000" stroke="#FFFFFF" stroke-width="3" d="M-295.638-540.868c0,0,3.509,7.859,14.671,11.192"/>
	<g>
		<path d="M85.941-542.804c-0.002-0.06-0.014-0.117-0.019-0.177c-0.014-0.143-0.034-0.284-0.067-0.422    c-0.016-0.067-0.037-0.132-0.058-0.198c-0.041-0.129-0.089-0.253-0.146-0.375c-0.029-0.063-0.059-0.125-0.092-0.185    c-0.074-0.131-0.158-0.254-0.251-0.374c-0.024-0.032-0.041-0.069-0.067-0.101c-0.007-0.008-0.017-0.014-0.023-0.022    c-0.132-0.152-0.276-0.292-0.438-0.417c-0.032-0.025-0.068-0.042-0.101-0.066c-0.13-0.092-0.265-0.176-0.409-0.247    c-0.065-0.032-0.134-0.056-0.201-0.083c-0.077-0.031-0.148-0.07-0.229-0.096l-2.686-0.837v-13.007c0-1.378-1.121-2.5-2.5-2.5h-7    c-0.184,0-0.362,0.023-0.535,0.061v-3.303c0-1.378-1.121-2.5-2.5-2.5h-7c-0.184,0-0.362,0.023-0.535,0.061v-3.302    c0-1.378-1.121-2.5-2.5-2.5h-7c-0.184,0-0.361,0.023-0.534,0.061v-3.302c0-1.378-1.121-2.5-2.5-2.5h-7    c-0.185,0-0.362,0.023-0.535,0.061v-3.302c0-1.378-1.121-2.5-2.5-2.5h-7c-0.185,0-0.362,0.023-0.535,0.061v-3.303    c0-1.378-1.121-2.5-2.5-2.5h-7c-1.378,0-2.5,1.122-2.5,2.5v0.551c0.162-0.033,0.329-0.051,0.5-0.051h7c1.379,0,2.5,1.122,2.5,2.5    v3.303c0.173-0.038,0.351-0.061,0.535-0.061h7c1.379,0,2.5,1.122,2.5,2.5v3.302c0.173-0.038,0.351-0.061,0.535-0.061h7    c1.379,0,2.5,1.122,2.5,2.5v3.302c0.173-0.038,0.351-0.061,0.534-0.061h7c1.379,0,2.5,1.122,2.5,2.5v3.302    c0.173-0.038,0.352-0.061,0.535-0.061h7c1.379,0,2.5,1.122,2.5,2.5v3.303c0.173-0.038,0.352-0.061,0.535-0.061h7    c1.379,0,2.5,1.122,2.5,2.5v10.708h-2v-10.708c0-0.276-0.224-0.5-0.5-0.5h-7c-0.276,0-0.5,0.224-0.5,0.5v10.708h-2.035v-16.45    c0-0.276-0.224-0.5-0.5-0.5h-7c-0.276,0-0.5,0.224-0.5,0.5v16.45h-2.035v-22.192c0-0.276-0.224-0.5-0.5-0.5h-7    c-0.276,0-0.5,0.224-0.5,0.5v22.192H47.05v-27.934c0-0.276-0.224-0.5-0.5-0.5h-7c-0.276,0-0.5,0.224-0.5,0.5v27.934h-1.619    l-0.416-0.13v-33.545c0-0.276-0.224-0.5-0.5-0.5h-7c-0.276,0-0.5,0.224-0.5,0.5v31.051l-2.035-0.634v-36.159    c0-0.276-0.224-0.5-0.5-0.5h-7c-0.276,0-0.5,0.224-0.5,0.5v33.664l-1.1-0.343c-0.293-0.092-0.594-0.136-0.893-0.136    c-0.002,0-0.005,0-0.007,0c-0.2,0-0.397,0.025-0.592,0.065c-0.063,0.013-0.124,0.034-0.187,0.051    c-0.131,0.036-0.26,0.077-0.385,0.13c-0.068,0.029-0.133,0.062-0.199,0.096c-0.115,0.059-0.225,0.126-0.333,0.201    c-0.061,0.042-0.122,0.083-0.179,0.13c-0.031,0.025-0.065,0.043-0.095,0.069c-0.045,0.04-0.075,0.092-0.118,0.134    c-0.065,0.064-0.139,0.119-0.199,0.189c-0.04,0.047-0.065,0.102-0.101,0.15c-0.057,0.077-0.108,0.154-0.158,0.235    c-0.077,0.127-0.142,0.258-0.198,0.393c-0.035,0.083-0.071,0.165-0.099,0.251c-0.048,0.152-0.078,0.308-0.101,0.466    c-0.012,0.077-0.031,0.15-0.036,0.228c-0.017,0.238-0.012,0.478,0.029,0.717l6,34.977c0.036,0.21,0.101,0.409,0.177,0.601    c0.02,0.05,0.042,0.098,0.064,0.146c0.075,0.162,0.162,0.316,0.263,0.46c0.018,0.026,0.032,0.053,0.051,0.079    c0.122,0.163,0.262,0.31,0.414,0.445c0.038,0.033,0.078,0.063,0.117,0.094c0.135,0.108,0.279,0.205,0.432,0.289    c0.025,0.014,0.046,0.035,0.072,0.048l19.987,10.232c0.033,0.017,0.069,0.022,0.103,0.038c0.149,0.07,0.305,0.127,0.466,0.172    c0.055,0.015,0.106,0.033,0.161,0.044c0.207,0.045,0.417,0.076,0.635,0.076c0.116,0,0.234-0.007,0.354-0.021l33.974-4    c0.032-0.004,0.063-0.014,0.095-0.019c0.077-0.012,0.153-0.029,0.229-0.046c0.09-0.021,0.178-0.043,0.265-0.072    c0.071-0.023,0.142-0.051,0.212-0.08c0.086-0.036,0.169-0.075,0.25-0.118c0.064-0.034,0.128-0.07,0.19-0.109    c0.079-0.05,0.155-0.104,0.229-0.161c0.057-0.044,0.113-0.087,0.167-0.135c0.071-0.063,0.137-0.131,0.201-0.2    c0.049-0.052,0.098-0.103,0.143-0.158c0.062-0.076,0.115-0.157,0.169-0.239c0.038-0.058,0.078-0.113,0.112-0.173    c0.054-0.096,0.097-0.197,0.14-0.299c0.023-0.054,0.051-0.104,0.071-0.16c0.057-0.161,0.104-0.328,0.133-0.501l6-34.977    C85.939-542.398,85.948-542.603,85.941-542.804z M82.947-542.7l-6,34.977l-31,3.65c-0.004-0.036-0.003-0.071-0.009-0.106    l-5.93-38.52H82.947z"/>
	</g>
	<path d="M-26.016,52.938c-0.002-0.06-0.018-0.117-0.025-0.177c-0.018-0.143-0.047-0.284-0.092-0.422   c-0.021-0.067-0.053-0.132-0.08-0.198c-0.057-0.129-0.123-0.253-0.203-0.375c-0.041-0.063-0.08-0.125-0.127-0.185   c-0.102-0.131-0.219-0.254-0.348-0.374c-0.033-0.032-0.057-0.069-0.092-0.101c-0.01-0.008-0.023-0.014-0.033-0.022   c-0.182-0.152-0.383-0.292-0.605-0.417c-0.045-0.025-0.094-0.042-0.139-0.066c-0.18-0.092-0.365-0.176-0.566-0.247   c-0.09-0.032-0.184-0.056-0.277-0.083c-0.107-0.031-0.205-0.07-0.318-0.096l-3.713-0.837V36.333c0-1.378-1.551-2.5-3.457-2.5   h-9.682c-0.254,0-0.5,0.023-0.74,0.061v-3.303c0-1.378-1.549-2.5-3.457-2.5h-9.68c-0.254,0-0.502,0.023-0.74,0.061V24.85   c0-1.378-1.551-2.5-3.457-2.5h-9.682c-0.254,0-0.5,0.023-0.738,0.061v-3.302c0-1.378-1.551-2.5-3.457-2.5h-9.681   c-0.255,0-0.501,0.023-0.74,0.061v-3.302c0-1.378-1.55-2.5-3.457-2.5h-9.681c-0.256,0-0.501,0.023-0.74,0.061V7.625   c0-1.378-1.55-2.5-3.457-2.5h-9.681c-1.906,0-3.458,1.122-3.458,2.5v0.551c0.224-0.033,0.455-0.051,0.691-0.051h9.681   c1.908,0,3.458,1.122,3.458,2.5v3.303c0.239-0.038,0.485-0.061,0.74-0.061h9.68c1.908,0,3.458,1.122,3.458,2.5v3.302   c0.239-0.038,0.485-0.061,0.74-0.061h9.681c1.906,0,3.457,1.122,3.457,2.5v3.302c0.238-0.038,0.484-0.061,0.738-0.061h9.682   c1.906,0,3.457,1.122,3.457,2.5v3.302c0.238-0.038,0.484-0.061,0.738-0.061h9.682c1.906,0,3.457,1.122,3.457,2.5v3.303   c0.24-0.038,0.486-0.061,0.74-0.061h9.682c1.906,0,3.457,1.122,3.457,2.5v10.708h-2.766V39.333c0-0.276-0.311-0.5-0.691-0.5h-9.682   c-0.383,0-0.691,0.224-0.691,0.5v10.708h-2.814v-16.45c0-0.276-0.309-0.5-0.691-0.5h-9.682c-0.381,0-0.689,0.224-0.689,0.5v16.45   h-2.814V27.85c0-0.276-0.311-0.5-0.691-0.5h-9.682c-0.383,0-0.691,0.224-0.691,0.5v22.192h-2.813V22.108   c0-0.276-0.31-0.5-0.691-0.5h-9.681c-0.382,0-0.692,0.224-0.692,0.5v27.934h-2.238l-0.576-0.13V16.367c0-0.276-0.309-0.5-0.691-0.5   h-9.68c-0.382,0-0.691,0.224-0.691,0.5v31.051l-2.815-0.634V10.625c0-0.276-0.309-0.5-0.691-0.5h-9.681   c-0.382,0-0.691,0.224-0.691,0.5c0,0,0,33.151,0,33.152c-0.004-0.256-3.314,0.059-3.584,0.099   c-0.905,0.134-1.823,0.509-2.484,1.151c-0.078,0.077-0.15,0.154-0.218,0.235c-0.106,0.127-0.196,0.258-0.274,0.393   c-0.048,0.083-0.099,0.165-0.136,0.251c-0.067,0.152-0.107,0.308-0.14,0.466c-0.017,0.077-0.043,0.15-0.05,0.228   c-0.023,0.238-0.016,0.478,0.041,0.717l8.298,34.977c0.05,0.21,0.139,0.409,0.245,0.601c0.027,0.05,0.058,0.098,0.089,0.146   c0.104,0.162,0.224,0.316,0.363,0.46c0.025,0.026,0.045,0.053,0.07,0.079c0.169,0.163,0.363,0.31,0.573,0.445   c0.052,0.033,0.107,0.063,0.161,0.094c0.187,0.108,0.386,0.205,0.598,0.289c0.035,0.014,0.063,0.035,0.099,0.048l27.642,10.232   c0.045,0.017,0.096,0.022,0.141,0.038c0.207,0.07,0.422,0.127,0.645,0.172c0.076,0.015,0.147,0.033,0.223,0.044   c0.287,0.045,0.577,0.076,0.878,0.076c0.161,0,0.324-0.007,0.489-0.021l46.982-4c0.045-0.004,0.088-0.014,0.131-0.019   c0.107-0.012,0.213-0.029,0.318-0.046c0.123-0.021,0.246-0.043,0.365-0.072c0.1-0.023,0.197-0.051,0.293-0.08   c0.119-0.036,0.234-0.075,0.346-0.118c0.09-0.034,0.178-0.07,0.264-0.109c0.109-0.05,0.215-0.104,0.318-0.161   c0.078-0.044,0.156-0.087,0.23-0.135c0.098-0.063,0.189-0.131,0.277-0.2c0.068-0.052,0.135-0.103,0.197-0.158   c0.086-0.076,0.16-0.157,0.234-0.239c0.053-0.058,0.107-0.113,0.154-0.173c0.074-0.096,0.135-0.197,0.193-0.299   c0.033-0.054,0.07-0.104,0.1-0.16c0.078-0.161,0.143-0.328,0.184-0.501l8.297-34.977C-26.018,53.344-26.006,53.14-26.016,52.938z    M-30.157,53.042l-8.297,34.977l-42.871,3.65c-0.005-0.036-0.004-0.071-0.012-0.106l-8.2-38.52H-30.157z"/>
	<g>
		<path d="M56.962-357.39c-0.059,0-0.118-0.003-0.178-0.01l-33.974-4c-0.66-0.078-1.19-0.581-1.303-1.236l-6-34.977    c-0.075-0.436,0.047-0.882,0.332-1.22c0.285-0.338,0.705-0.533,1.147-0.533H62.96c0.438,0,0.854,0.191,1.139,0.523    c0.285,0.332,0.41,0.772,0.344,1.205l-6,38.977C58.329-357.922,57.692-357.39,56.962-357.39L56.962-357.39z"/>
		<path d="M62.96-397.866l-6,38.977l-33.974-4l-6-34.977H62.96 M62.96-400.866H16.986c-0.884,0-1.724,0.39-2.293,1.066    c-0.57,0.676-0.813,1.569-0.664,2.441l6,34.977c0.225,1.311,1.286,2.316,2.606,2.472l33.974,4    c0.119,0.014,0.237,0.021,0.354,0.021c1.461,0,2.734-1.065,2.962-2.543l6-38.977c0.134-0.865-0.118-1.746-0.688-2.41    C64.667-400.484,63.835-400.866,62.96-400.866L62.96-400.866z"/>
	</g>
	<g>
		<path d="M76.949-355.158c-0.056,0-0.112-0.003-0.168-0.009l-19.987-2.232c-0.406-0.045-0.776-0.254-1.025-0.579    c-0.248-0.324-0.354-0.736-0.291-1.14l6-38.977c0.066-0.432,0.317-0.813,0.688-1.044c0.24-0.15,0.517-0.228,0.794-0.228    c0.15,0,0.301,0.022,0.446,0.068l19.987,6.232c0.718,0.224,1.159,0.945,1.032,1.686l-6,34.977    C78.301-355.677,77.67-355.158,76.949-355.158L76.949-355.158z"/>
		<path d="M62.96-397.866l19.987,6.232l-6,34.977L56.96-358.89L62.96-397.866 M62.96-400.866c-0.556,0-1.106,0.154-1.588,0.455    c-0.741,0.462-1.244,1.225-1.377,2.088l-6,38.977c-0.125,0.808,0.086,1.631,0.583,2.28s1.236,1.067,2.049,1.158l19.987,2.232    c0.113,0.013,0.226,0.019,0.336,0.019c1.443,0,2.704-1.04,2.954-2.493l6-34.977c0.254-1.482-0.628-2.924-2.064-3.371    l-19.987-6.232C63.561-400.821,63.26-400.866,62.96-400.866L62.96-400.866z"/>
	</g>
	<g>
		<g>
			<path d="M31.515-390.393c-0.827,0-1.5-0.673-1.5-1.5v-39.417c0-0.827,0.673-1.5,1.5-1.5h7c0.827,0,1.5,0.673,1.5,1.5v39.417     c0,0.827-0.673,1.5-1.5,1.5H31.515z"/>
			<path d="M38.515-431.81c0.276,0,0.5,0.224,0.5,0.5v39.417c0,0.276-0.224,0.5-0.5,0.5h-7c-0.276,0-0.5-0.224-0.5-0.5v-39.417     c0-0.276,0.224-0.5,0.5-0.5H38.515 M38.515-433.81h-7c-1.379,0-2.5,1.122-2.5,2.5v39.417c0,1.378,1.121,2.5,2.5,2.5h7     c1.379,0,2.5-1.122,2.5-2.5v-39.417C41.015-432.688,39.894-433.81,38.515-433.81L38.515-433.81z"/>
		</g>
		<g>
			<path d="M61.619-373.167c-0.827,0-1.5-0.673-1.5-1.5v-39.417c0-0.827,0.673-1.5,1.5-1.5h7c0.827,0,1.5,0.673,1.5,1.5v39.417     c0,0.827-0.673,1.5-1.5,1.5H61.619z"/>
			<path d="M68.619-414.584c0.276,0,0.5,0.224,0.5,0.5v39.417c0,0.276-0.224,0.5-0.5,0.5h-7c-0.276,0-0.5-0.224-0.5-0.5v-39.417     c0-0.276,0.224-0.5,0.5-0.5H68.619 M68.619-416.584h-7c-1.379,0-2.5,1.122-2.5,2.5v39.417c0,1.378,1.121,2.5,2.5,2.5h7     c1.379,0,2.5-1.122,2.5-2.5v-39.417C71.119-415.463,69.998-416.584,68.619-416.584L68.619-416.584z"/>
		</g>
		<g>
			<path d="M71.654-367.426c-0.827,0-1.5-0.673-1.5-1.5v-39.417c0-0.827,0.673-1.5,1.5-1.5h7c0.827,0,1.5,0.673,1.5,1.5v39.417     c0,0.827-0.673,1.5-1.5,1.5H71.654z"/>
			<path d="M78.654-408.843c0.276,0,0.5,0.224,0.5,0.5v39.417c0,0.276-0.224,0.5-0.5,0.5h-7c-0.276,0-0.5-0.224-0.5-0.5v-39.417     c0-0.276,0.224-0.5,0.5-0.5H78.654 M78.654-410.843h-7c-1.379,0-2.5,1.122-2.5,2.5v39.417c0,1.378,1.121,2.5,2.5,2.5h7     c1.379,0,2.5-1.122,2.5-2.5v-39.417C81.154-409.721,80.033-410.843,78.654-410.843L78.654-410.843z"/>
		</g>
		<g>
			<path d="M51.584-378.909c-0.827,0-1.5-0.673-1.5-1.5v-39.417c0-0.827,0.673-1.5,1.5-1.5h7c0.827,0,1.5,0.673,1.5,1.5v39.417     c0,0.827-0.673,1.5-1.5,1.5H51.584z"/>
			<path d="M58.584-420.326c0.276,0,0.5,0.224,0.5,0.5v39.417c0,0.276-0.224,0.5-0.5,0.5h-7c-0.276,0-0.5-0.224-0.5-0.5v-39.417     c0-0.276,0.224-0.5,0.5-0.5H58.584 M58.584-422.326h-7c-1.379,0-2.5,1.122-2.5,2.5v39.417c0,1.378,1.121,2.5,2.5,2.5h7     c1.379,0,2.5-1.122,2.5-2.5v-39.417C61.084-421.205,59.963-422.326,58.584-422.326L58.584-422.326z"/>
		</g>
		<g>
			<path d="M41.55-384.651c-0.827,0-1.5-0.673-1.5-1.5v-39.417c0-0.827,0.673-1.5,1.5-1.5h7c0.827,0,1.5,0.673,1.5,1.5v39.417     c0,0.827-0.673,1.5-1.5,1.5H41.55z"/>
			<path d="M48.55-426.068c0.276,0,0.5,0.224,0.5,0.5v39.417c0,0.276-0.224,0.5-0.5,0.5h-7c-0.276,0-0.5-0.224-0.5-0.5v-39.417     c0-0.276,0.224-0.5,0.5-0.5H48.55 M48.55-428.068h-7c-1.379,0-2.5,1.122-2.5,2.5v39.417c0,1.378,1.121,2.5,2.5,2.5h7     c1.379,0,2.5-1.122,2.5-2.5v-39.417C51.05-426.946,49.929-428.068,48.55-428.068L48.55-428.068z"/>
		</g>
		<g>
			<path d="M21.479-396.134c-0.827,0-1.5-0.673-1.5-1.5v-39.417c0-0.827,0.673-1.5,1.5-1.5h7c0.827,0,1.5,0.673,1.5,1.5v39.417     c0,0.827-0.673,1.5-1.5,1.5H21.479z"/>
			<path d="M28.479-437.551c0.276,0,0.5,0.224,0.5,0.5v39.417c0,0.276-0.224,0.5-0.5,0.5h-7c-0.276,0-0.5-0.224-0.5-0.5v-39.417     c0-0.276,0.224-0.5,0.5-0.5H28.479 M28.479-439.551h-7c-1.378,0-2.5,1.122-2.5,2.5v39.417c0,1.378,1.122,2.5,2.5,2.5h7     c1.379,0,2.5-1.122,2.5-2.5v-39.417C30.979-438.43,29.858-439.551,28.479-439.551L28.479-439.551z"/>
		</g>
	</g>
	<g>
		<g>
			<path d="M29.515-387.393c-0.827,0-1.5-0.673-1.5-1.5v-39.417c0-0.827,0.673-1.5,1.5-1.5h7c0.827,0,1.5,0.673,1.5,1.5v39.417     c0,0.827-0.673,1.5-1.5,1.5H29.515z"/>
			<path fill="#000000" d="M36.515-428.81c0.276,0,0.5,0.224,0.5,0.5v39.417c0,0.276-0.224,0.5-0.5,0.5h-7     c-0.276,0-0.5-0.224-0.5-0.5v-39.417c0-0.276,0.224-0.5,0.5-0.5H36.515 M36.515-430.81h-7c-1.379,0-2.5,1.122-2.5,2.5v39.417     c0,1.378,1.121,2.5,2.5,2.5h7c1.379,0,2.5-1.122,2.5-2.5v-39.417C39.015-429.688,37.894-430.81,36.515-430.81L36.515-430.81z"/>
		</g>
		<g>
			<path d="M59.619-370.167c-0.827,0-1.5-0.673-1.5-1.5v-39.417c0-0.827,0.673-1.5,1.5-1.5h7c0.827,0,1.5,0.673,1.5,1.5v39.417     c0,0.827-0.673,1.5-1.5,1.5H59.619z"/>
			<path fill="#000000" d="M66.619-411.584c0.276,0,0.5,0.224,0.5,0.5v39.417c0,0.276-0.224,0.5-0.5,0.5h-7     c-0.276,0-0.5-0.224-0.5-0.5v-39.417c0-0.276,0.224-0.5,0.5-0.5H66.619 M66.619-413.584h-7c-1.379,0-2.5,1.122-2.5,2.5v39.417     c0,1.378,1.121,2.5,2.5,2.5h7c1.379,0,2.5-1.122,2.5-2.5v-39.417C69.119-412.463,67.998-413.584,66.619-413.584L66.619-413.584z"/>
		</g>
		<g>
			<path d="M69.654-364.426c-0.827,0-1.5-0.673-1.5-1.5v-39.417c0-0.827,0.673-1.5,1.5-1.5h7c0.827,0,1.5,0.673,1.5,1.5v39.417     c0,0.827-0.673,1.5-1.5,1.5H69.654z"/>
			<path fill="#000000" d="M76.654-405.843c0.276,0,0.5,0.224,0.5,0.5v39.417c0,0.276-0.224,0.5-0.5,0.5h-7     c-0.276,0-0.5-0.224-0.5-0.5v-39.417c0-0.276,0.224-0.5,0.5-0.5H76.654 M76.654-407.843h-7c-1.379,0-2.5,1.122-2.5,2.5v39.417     c0,1.378,1.121,2.5,2.5,2.5h7c1.379,0,2.5-1.122,2.5-2.5v-39.417C79.154-406.721,78.033-407.843,76.654-407.843L76.654-407.843z"/>
		</g>
		<g>
			<path d="M49.584-375.909c-0.827,0-1.5-0.673-1.5-1.5v-39.417c0-0.827,0.673-1.5,1.5-1.5h7c0.827,0,1.5,0.673,1.5,1.5v39.417     c0,0.827-0.673,1.5-1.5,1.5H49.584z"/>
			<path fill="#000000" d="M56.584-417.326c0.276,0,0.5,0.224,0.5,0.5v39.417c0,0.276-0.224,0.5-0.5,0.5h-7     c-0.276,0-0.5-0.224-0.5-0.5v-39.417c0-0.276,0.224-0.5,0.5-0.5H56.584 M56.584-419.326h-7c-1.379,0-2.5,1.122-2.5,2.5v39.417     c0,1.378,1.121,2.5,2.5,2.5h7c1.379,0,2.5-1.122,2.5-2.5v-39.417C59.084-418.205,57.963-419.326,56.584-419.326L56.584-419.326z"/>
		</g>
		<g>
			<path d="M39.55-381.651c-0.827,0-1.5-0.673-1.5-1.5v-39.417c0-0.827,0.673-1.5,1.5-1.5h7c0.827,0,1.5,0.673,1.5,1.5v39.417     c0,0.827-0.673,1.5-1.5,1.5H39.55z"/>
			<path fill="#000000" d="M46.55-423.068c0.276,0,0.5,0.224,0.5,0.5v39.417c0,0.276-0.224,0.5-0.5,0.5h-7     c-0.276,0-0.5-0.224-0.5-0.5v-39.417c0-0.276,0.224-0.5,0.5-0.5H46.55 M46.55-425.068h-7c-1.379,0-2.5,1.122-2.5,2.5v39.417     c0,1.378,1.121,2.5,2.5,2.5h7c1.379,0,2.5-1.122,2.5-2.5v-39.417C49.05-423.946,47.929-425.068,46.55-425.068L46.55-425.068z"/>
		</g>
		<g>
			<path d="M19.479-393.134c-0.827,0-1.5-0.673-1.5-1.5v-39.417c0-0.827,0.673-1.5,1.5-1.5h7c0.827,0,1.5,0.673,1.5,1.5v39.417     c0,0.827-0.673,1.5-1.5,1.5H19.479z"/>
			<path fill="#000000" d="M26.479-434.551c0.276,0,0.5,0.224,0.5,0.5v39.417c0,0.276-0.224,0.5-0.5,0.5h-7     c-0.276,0-0.5-0.224-0.5-0.5v-39.417c0-0.276,0.224-0.5,0.5-0.5H26.479 M26.479-436.551h-7c-1.378,0-2.5,1.122-2.5,2.5v39.417     c0,1.378,1.122,2.5,2.5,2.5h7c1.379,0,2.5-1.122,2.5-2.5v-39.417C28.979-435.43,27.858-436.551,26.479-436.551L26.479-436.551z"/>
		</g>
	</g>
	<g>
		<path d="M42.974-351.158c-0.233,0-0.468-0.054-0.684-0.165l-19.987-10.232c-0.42-0.215-0.715-0.616-0.795-1.082l-6-34.977    c-0.088-0.515,0.098-1.038,0.49-1.382c0.277-0.243,0.63-0.372,0.988-0.372c0.149,0,0.3,0.022,0.446,0.068l19.987,6.232    c0.547,0.17,0.949,0.638,1.036,1.204l6,38.977c0.086,0.557-0.147,1.115-0.604,1.444C43.591-351.253,43.283-351.158,42.974-351.158    L42.974-351.158z"/>
		<path d="M16.986-397.866l19.987,6.232l6,38.977L22.986-362.89L16.986-397.866 M16.987-400.866c-0.717,0-1.422,0.257-1.977,0.743    c-0.786,0.688-1.157,1.735-0.98,2.764l6,34.977c0.16,0.931,0.749,1.732,1.59,2.163l19.987,10.232c0.432,0.221,0.9,0.33,1.367,0.33    c0.619,0,1.235-0.191,1.756-0.567c0.913-0.66,1.381-1.775,1.209-2.889l-6-38.977c-0.174-1.132-0.979-2.066-2.072-2.407    l-19.987-6.232C17.586-400.822,17.285-400.866,16.987-400.866L16.987-400.866z"/>
	</g>
	<path d="M-49.792,56.424c-5.811-0.769-14.533,6.464-14.936,6.411c-7.646-1.012-14.566,3.611-15.455,10.326   c-0.888,6.714,4.592,12.978,12.238,13.989c5.643,0.747,14.389-5.387,14.793-5.333c7.461,0.987,14.26-3.896,15.188-10.909   S-42.331,57.411-49.792,56.424z"/>
	<path d="M78.171,39.846c0-4.863-6.386-5.812-10.2-6.379c-3.61-0.537-8.141-0.879-13.03-1.001V9.02c0-2.199-1.782-3.982-3.981-3.982   H35.987c-2.198,0-3.981,1.783-3.981,3.982s1.783,3.982,3.981,3.982h10.99v19.464c-4.89,0.122-9.42,0.464-13.03,1.001   c-3.814,0.567-10.2,1.516-10.2,6.379c0,0.757,0,3.225,0,3.982c0,0.912,0.225,1.687,0.615,2.347l3.647,41.756   c0.004,0.044,0.019,0.085,0.023,0.129c0.406,4.346,6.24,5.42,8.791,5.883c3.813,0.694,8.833,1.076,14.135,1.076   s10.322-0.382,14.135-1.076c2.551-0.463,8.385-1.538,8.791-5.883c0.005-0.044,0.02-0.085,0.023-0.129l3.647-41.756   c0.391-0.66,0.615-1.435,0.615-2.347C78.171,43.07,78.171,40.603,78.171,39.846z M46.978,36.446v1.907   c0,2.199,1.782,3.982,3.981,3.982s3.981-1.783,3.981-3.982v-1.907c10.932,0.281,19.249,1.696,19.249,3.4   c0,1.907-10.4,3.453-23.23,3.453s-23.23-1.546-23.23-3.453C27.729,38.142,36.046,36.727,46.978,36.446z M65.094,81.227   c-0.229-0.042-0.479-0.079-0.718-0.119c-0.261,0.196-1.119,1.235-1.417,1.501c-1.472,1.311-3.118,2.344-4.895,3.071   c-2.065,0.843-4.234,1.271-6.447,1.271c-5.119,0-9.821-2.257-13.001-6.012c-0.62,0.09-1.224,0.184-1.792,0.287   c-1.29,0.235-3.423,0.626-5.271,1.516l-2.94-33.663c1.803,0.598,3.78,0.897,5.335,1.128c4.576,0.68,10.617,1.054,17.012,1.054   s12.436-0.375,17.012-1.054c1.555-0.231,3.532-0.531,5.335-1.128l-2.94,33.663C68.517,81.853,66.384,81.461,65.094,81.227z"/>
	<path d="M60.113,82.303c-5.821,0.155-11.737-7.083-13.141-10.519c-1.729-4.231-1.384-8.783,0.549-12.552   c0.389-0.956,0.914-1.77,1.559-2.429c0.546-0.697,1.148-1.355,1.819-1.953c-1.669,0.079-3.352,0.421-4.986,1.089   c-7.704,3.147-11.398,11.944-8.25,19.648c2.385,5.838,8.015,9.374,13.954,9.374c1.898,0,3.828-0.361,5.693-1.124   C58.321,83.424,59.25,82.899,60.113,82.303z"/>
	<path d="M65.417,74.686c0.263-2.791-0.411-6.033-1.897-9.131c-2.436-5.072-6.556-8.615-10.022-8.615   c-0.66,0-1.276,0.136-1.833,0.402c-1.632,0.783-2.666,2.65-2.911,5.256c-0.263,2.791,0.41,6.034,1.896,9.131   c2.435,5.072,6.557,8.614,10.023,8.614c0.66,0,1.276-0.136,1.834-0.402C64.138,79.159,65.171,77.292,65.417,74.686z"/>
	<g>
		<g>
			<g>
				<path d="M149.417-442.076c-6.329,0-12.294-0.369-16.796-1.038c-6.146-0.914-8.541-2.156-8.541-4.431      c0-2.274,2.395-3.517,8.541-4.43c4.503-0.669,10.468-1.038,16.796-1.038s12.293,0.369,16.796,1.038      c6.146,0.913,8.541,2.155,8.541,4.43c0,2.275-2.395,3.517-8.541,4.431C161.711-442.444,155.746-442.076,149.417-442.076      L149.417-442.076z"/>
				<path d="M149.417-451.011c12.889,0,23.337,1.553,23.337,3.467c0,1.916-10.448,3.468-23.337,3.468s-23.337-1.553-23.337-3.468      C126.08-449.458,136.528-451.011,149.417-451.011 M149.417-455.011c-6.424,0-12.493,0.376-17.09,1.059      c-3.832,0.569-10.247,1.522-10.247,6.408c0,4.886,6.415,5.839,10.247,6.409c4.597,0.683,10.666,1.059,17.09,1.059      s12.493-0.376,17.09-1.059c3.832-0.57,10.247-1.523,10.247-6.409c0-4.886-6.415-5.839-10.247-6.408      C161.91-454.635,155.841-455.011,149.417-455.011L149.417-455.011z"/>
			</g>
			<g>
				<path d="M149.417-398.118c-7.869,0-21.07-0.71-21.07-5.468c0-4.757,13.201-5.467,21.07-5.467s21.07,0.71,21.07,5.467      C170.487-398.828,157.286-398.118,149.417-398.118L149.417-398.118z"/>
				<path d="M149.417-407.053c10.532,0,19.07,1.553,19.07,3.467c0,1.916-8.538,3.468-19.07,3.468s-19.07-1.553-19.07-3.468      C130.347-405.5,138.885-407.053,149.417-407.053 M149.417-411.053c-5.326,0-10.369,0.384-14.2,1.08      c-2.654,0.483-8.87,1.613-8.87,6.387c0,4.775,6.216,5.905,8.87,6.388c3.83,0.697,8.874,1.081,14.2,1.081s10.37-0.384,14.2-1.081      c2.654-0.482,8.87-1.613,8.87-6.388c0-4.774-6.216-5.904-8.87-6.387C159.786-410.669,154.743-411.053,149.417-411.053      L149.417-411.053z"/>
			</g>
		</g>
		<polyline fill="none" stroke="#000000" stroke-width="8" stroke-linecap="round" stroke-linejoin="round" points="    149.417,-453.043 149.417,-482.511 134.377,-482.511   "/>
		<g>
			<path d="M150.078-405.222c-6.587,0-12.453-3.94-14.944-10.038c-1.63-3.991-1.609-8.377,0.06-12.352     c1.669-3.974,4.786-7.061,8.776-8.691c1.68-0.687,3.477-1.08,5.341-1.167c0.016,0,0.031-0.001,0.047-0.001     c0.405,0,0.771,0.245,0.926,0.622c0.16,0.392,0.056,0.842-0.26,1.124c-4.461,3.98-5.942,10.365-3.686,15.888     c2.178,5.332,7.316,8.777,13.091,8.777c0.221,0,0.443-0.005,0.665-0.016c0.016,0,0.031-0.001,0.047-0.001     c0.405,0,0.771,0.245,0.926,0.622c0.16,0.392,0.056,0.842-0.261,1.125c-1.392,1.241-2.949,2.218-4.63,2.905     C154.223-405.627,152.171-405.222,150.078-405.222L150.078-405.222z"/>
			<path fill="#000000" d="M149.357-436.471c-4.649,4.148-6.437,10.915-3.945,17.012c2.396,5.864,8.049,9.399,14.017,9.399     c0.236,0,0.475-0.005,0.712-0.017c-1.253,1.117-2.701,2.055-4.343,2.726c-1.874,0.766-3.813,1.128-5.72,1.128     c-5.967,0-11.622-3.552-14.019-9.417c-3.162-7.739,0.549-16.577,8.288-19.738C145.99-436.048,147.681-436.392,149.357-436.471      M149.358-438.471c-0.032,0-0.063,0-0.095,0.002c-1.979,0.093-3.887,0.511-5.673,1.24c-4.237,1.731-7.547,5.009-9.319,9.23     s-1.795,8.879-0.063,13.116c2.646,6.476,8.875,10.66,15.87,10.66c2.224,0,4.402-0.43,6.477-1.277     c1.785-0.73,3.439-1.768,4.917-3.085c0.632-0.563,0.841-1.464,0.521-2.249c-0.309-0.754-1.042-1.244-1.851-1.244     c-0.032,0-0.063,0-0.096,0.002c-0.206,0.01-0.412,0.014-0.617,0.014c-5.366,0-10.142-3.201-12.165-8.155     c-2.097-5.132-0.721-11.065,3.425-14.764c0.633-0.563,0.841-1.464,0.521-2.249C150.9-437.982,150.167-438.471,149.358-438.471     L149.358-438.471z"/>
		</g>
		
			<ellipse transform="matrix(0.9016 -0.4326 0.4326 0.9016 198.1312 25.7089)" stroke="#FFFFFF" stroke-width="2" stroke-linecap="round" stroke-linejoin="round" cx="155.571" cy="-422.615" rx="8.17" ry="13.59" fill="#000000"/>
	</g>
</g>
<g id="B003">
</g>
<g id="TEXT_and_line">
</g>
</svg>