<svg xmlns="http://www.w3.org/2000/svg" xmlns:xlink="http://www.w3.org/1999/xlink" version="1.1" id="Layer_1" x="0px" y="0px" width="100px" height="100px" viewBox="0 0 100 100" enable-background="new 0 0 100 100" xml:space="preserve">
<path fill="#000000" d="M77.806,12.728C67.152,12.728,56.381,8.48,50,0c-6.38,8.479-17.154,12.727-27.807,12.727  c-5.508,0-10.983-1.135-15.802-3.409c0.54,14.316,1.604,28.825,3.999,42.962c1.222,7.749,2.422,16.888,6.666,23.668  c3.729,6.528,9.515,11.869,15.722,16.006c4.715,3.137,9.846,5.717,15.187,7.612c0.853,0.303,1.502,0.434,2.1,0.434  c1.036,0,1.917-0.394,3.434-0.974c12.28-4.715,25.46-13.388,30.882-25.855c4.878-11.093,5.954-24.273,7.206-36.19  c0.968-9.189,1.671-18.426,2.022-27.663C88.79,11.592,83.312,12.728,77.806,12.728z M81.641,35.937l-0.267,2.568  c-0.396,3.824-0.797,7.694-1.326,11.496H50v39.658c-0.001,0-0.002,0.001-0.003,0.001c-4.081-1.561-8.003-3.585-11.673-6.026  c-5.664-3.775-10.016-8.147-12.584-12.645l-0.1-0.175l-0.107-0.171c-2.877-4.597-4.016-11.91-5.021-18.363l-0.244-1.557  l-0.009-0.056l-0.01-0.056c-0.034-0.201-0.065-0.408-0.099-0.609H50V13.899l0,0c7.62,5.639,17.418,8.829,27.806,8.829  c1.693,0,3.378-0.086,5.046-0.257C82.525,26.877,82.121,31.375,81.641,35.937z"/>
</svg>