<svg xmlns="http://www.w3.org/2000/svg" xmlns:xlink="http://www.w3.org/1999/xlink" version="1.1" id="Layer_1" x="0px" y="0px" width="100px" height="100px" viewBox="0 0 100 100" enable-background="new 0 0 100 100" xml:space="preserve">
<path d="M89.625,22.223c-4.984-3.2-6.377-3.464-15.598-1.125v-7.402c0-0.464-0.375-0.84-0.84-0.84h-16.02v0.043h-9.505H37.89h-9.267  v-0.043H15.45h-1.63H12.12c-0.463,0-0.839,0.376-0.839,0.84v57.762c0,8.662,7.023,15.688,15.687,15.688h30.201h1.172  c8.664,0,15.688-7.025,15.688-15.688v-2.338c4.666-2.59,11.523-7.436,16.395-15.418C98.484,40.489,95.848,26.217,89.625,22.223z   M89.039,40.137c-1.961,8.004-6.164,15.482-12.131,19.099c-0.92,0.559-1.879,1.023-2.881,1.385V33.2  c0.729-1.865,3.027-6.828,7.027-7.343c2.08-0.268,4.27,0.405,5.922,2.034C89.244,30.125,90.5,34.165,89.039,40.137z"/>
</svg>