<svg xmlns="http://www.w3.org/2000/svg" xmlns:xlink="http://www.w3.org/1999/xlink" version="1.1" id="Layer_1" x="0px" y="0px" width="100px" height="100px" viewBox="0 0 100 100" enable-background="new 0 0 100 100" xml:space="preserve">
<path fill="#000000" stroke="#FFFFFF" stroke-width="3.2572" stroke-linecap="round" stroke-miterlimit="10" d="M20.121,34.738"/>
<path fill="#000000" stroke="#FFFFFF" stroke-width="3.2572" stroke-linecap="round" stroke-miterlimit="10" d="M13.279,34.738"/>
<path d="M98.627,34.708h0.563v-6.636c0-1.602-1.311-2.912-2.912-2.912H83.317c-4.692-6.039-12.02-9.93-20.258-9.93  c-8.239,0-15.566,3.891-20.258,9.93H3.723c-1.602,0-2.912,1.311-2.912,2.912v6.636h26.344c1.093,0,1.978,0.886,1.978,1.978  s-0.885,1.978-1.978,1.978H0.811v7.083h26.344c1.093,0,1.978,0.886,1.978,1.978s-0.885,1.978-1.978,1.978H0.811v7.085h26.344  c1.093,0,1.978,0.886,1.978,1.979s-0.885,1.978-1.978,1.978H0.811v6.638c0,1.602,1.311,2.912,2.912,2.912h92.556  c1.602,0,2.912-1.311,2.912-2.912v-6.638h-0.563c-1.094,0-1.979-0.885-1.979-1.978s0.885-1.979,1.979-1.979h0.563v-7.085h-0.563  c-1.094,0-1.979-0.886-1.979-1.978s0.885-1.978,1.979-1.978h0.563v-7.083h-0.563c-1.094,0-1.979-0.886-1.979-1.978  S97.533,34.708,98.627,34.708z M63.06,56.833c-8.814,0-15.959-7.145-15.959-15.958c0-8.815,7.145-15.959,15.959-15.959  c8.813,0,15.958,7.144,15.958,15.959C79.018,49.688,71.873,56.833,63.06,56.833z"/>
<g>
	<path d="M63.587,33.633c2.612,0,4.896,1.392,6.17,3.468l4.996-3.055c-2.302-3.759-6.436-6.274-11.166-6.274V33.633z"/>
</g>
<rect x="8.626" y="74.356" width="82.749" height="5.857"/>
</svg>