<svg xmlns="http://www.w3.org/2000/svg" xmlns:xlink="http://www.w3.org/1999/xlink" version="1.1" id="Layer_1" x="0px" y="0px" width="100px" height="100px" viewBox="0 0 100 100" enable-background="new 0 0 100 100" xml:space="preserve">
<path fill-rule="evenodd" clip-rule="evenodd" fill="none" d="M51.992-75.492"/>
<g>
	<path d="M47.79,29.494H5.152c-1.209,0-2.199,0.99-2.199,2.199v37.452c0,1.209,0.99,2.199,2.199,2.199H47.79h20.121V29.494H47.79z    M30.911,63.978H11.378c-1.123,0-2.032-0.908-2.032-2.031s0.91-2.033,2.032-2.033h19.533c1.122,0,2.032,0.91,2.032,2.033   S32.033,63.978,30.911,63.978z M30.911,52.452H11.378c-1.123,0-2.032-0.91-2.032-2.032s0.91-2.032,2.032-2.032h19.533   c1.122,0,2.032,0.91,2.032,2.032S32.033,52.452,30.911,52.452z M30.911,40.927H11.378c-1.123,0-2.032-0.91-2.032-2.032   s0.91-2.032,2.032-2.032h19.533c1.122,0,2.032,0.91,2.032,2.032S32.033,40.927,30.911,40.927z"/>
	<polygon points="96.904,82.599 73.741,71.405 73.741,29.433 96.904,18.241  "/>
	<g>
		<rect x="83.13" y="-2.444" transform="matrix(0.6917 0.7222 -0.7222 0.6917 35.0785 -57.7378)" width="4.065" height="29.319"/>
	</g>
	<g>
		<rect x="70.502" y="85.754" transform="matrix(0.7223 0.6915 -0.6915 0.7223 84.3529 -34.5181)" width="29.319" height="4.065"/>
	</g>
</g>
</svg>