<svg xmlns="http://www.w3.org/2000/svg" xmlns:xlink="http://www.w3.org/1999/xlink" version="1.1" id="Calque_1" x="0px" y="0px" width="100px" height="100px" viewBox="0 0 100 100" enable-background="new 0 0 100 100" xml:space="preserve">
<g>
	<circle cx="24.847" cy="33.192" r="3.63"/>
	<circle cx="78.966" cy="33.999" r="3.63"/>
	<polygon points="43.381,45.854 44.188,45.854 44.619,44.89 43.801,44.89  "/>
	<path d="M82.596,37.629l-2.419,0.806l-0.808,2.421l-0.806-2.42l-2.421,4.84l-5.647,1.614h-3.871l0.646-1.614   c-0.446,0-0.952,0.361-1.13,0.807l-0.323,0.807h-0.969c0,0.622,0.16,1.083,0.397,1.426l-0.397,0.994h-3.227   c-0.807-4.034-1.614-8.873-4.033-8.873l-4.034-0.27l-1.613,3.497l-1.613-3.497l-4.034,0.27c-1.946,0-2.849,3.13-3.547,6.454h1.054   l2.808-6.454c0.435,0.098,0.558,0.529,0.459,0.965l-2.45,5.489h5.546l-0.646-1.614c0.445,0,0.951,0.361,1.13,0.807l0.353,0.88   c1.741,0.403,1.746,2.346,1.746,2.346h-9.367c0.446,0,0.807-0.361,0.807-0.806h-5.189H35c0,0.445,0.36,0.806,0.806,0.806H32.58   l3.227-1.613l3.192,0.807c0-1.614-4.033-2.42-4.033-2.42l-7.227,0.807l-2.42-6.455l-0.668,3.007l-4.139-4.621   c0,0-5.68,2.427-5.68,16.948v0.801c0,1.338,1.083,2.42,2.42,2.42h1.613h7.227l4.875,12.912l5.647-0.004   c0-1.064-0.689-1.957-1.643-2.281l-1.585-4.173V52.957c0-0.892-0.721-1.613-1.613-1.613h-6.454l-0.807-1.614h52.437v1.614h-6.454   c-0.892,0-1.614,0.722-1.614,1.613l0.77,14.597c-1.052,0.259-1.798,1.206-1.515,2.345l5.584,0.004l1.617-12.912h7.259   c1.338,0,2.42-1.082,2.42-2.42V53.77C85.016,39.249,82.596,37.629,82.596,37.629z M65.655,47.309l0.174-0.433   c0.671,0.433,1.44,0.433,1.44,0.433H65.655z"/>
	<path d="M9.185,42.469l1.612,13.716l0,11.293c0,1.338,1.083,2.421,2.421,2.421V56.184L11.605,44.89   C11.605,43.552,10.522,42.469,9.185,42.469z"/>
	<path d="M88.243,44.89L86.63,56.184v13.715c1.338,0,2.421-1.083,2.421-2.421V56.185l1.612-13.716   C89.325,42.469,88.243,43.552,88.243,44.89z"/>
	<path d="M47.102,51.344c-1.337,0-2.42,1.083-2.42,2.42c0,0.222,0.04,0.433,0.096,0.637l2.004,13.367   c-0.766,0.406-1.294,1.202-1.294,2.131h6.454l-2.419-16.135C49.522,52.427,48.438,51.344,47.102,51.344z"/>
	<path d="M56.781,51.344c-1.336,0-2.42,1.083-2.42,2.42l-2.42,16.135h6.454c0-0.93-0.527-1.725-1.295-2.131L59.105,54.4   c0.057-0.204,0.097-0.415,0.097-0.637C59.202,52.427,58.118,51.344,56.781,51.344z"/>
	<circle cx="51.941" cy="33.193" r="3.63"/>
</g>
</svg>