<svg xmlns="http://www.w3.org/2000/svg" xmlns:xlink="http://www.w3.org/1999/xlink" version="1.1" id="Calque_1" x="0px" y="0px" width="100px" height="100px" viewBox="0 0 100 100" enable-background="new 0 0 100 100" xml:space="preserve">
<path d="M89.31,39.271h-3.42c-4.124-2.898-10.914-2.902-14.499-2.902c-3.492,0-10.029,0.002-14.179,2.684  c-1.991-2.032-4.597-2.297-7.367-2.297c-2.813,0-5.434,0.281-7.433,2.351c-4.143-2.738-10.75-2.738-14.268-2.738  c-3.584,0-10.374,0.004-14.497,2.902h-3.116c-0.925,0-1.672,0.75-1.672,1.673v3.106c0,0.814,0.583,1.492,1.355,1.64  c-0.006,0.143-0.018,0.281-0.018,0.428c0,8.323,7.715,12.057,17.947,12.057s17.949-3.734,17.949-12.057  c0-1.519-0.305-2.8-0.839-3.883c0,0,0.653-3.356,4.587-3.356c3.933,0,4.503,3.246,4.503,3.246c-0.572,1.104-0.903,2.421-0.903,3.994  c0,8.323,7.718,12.057,17.949,12.057c10.233,0,17.949-3.734,17.949-12.057c0-0.137-0.012-0.265-0.017-0.398  c0.917-0.008,1.659-0.752,1.659-1.67v-3.106C90.982,40.021,90.232,39.271,89.31,39.271z M65.401,40.081  c-8.089,3.404-6.322,7.962-7.264,11.735c-0.807-1.382-1.541-2.99-1.541-5.044c0-1.294,0.262-2.378,0.716-3.287  c0,0,0.806-1.558,2.273-2.526C61.558,39.638,67.311,39.276,65.401,40.081z"/>
</svg>