<svg xmlns="http://www.w3.org/2000/svg" xmlns:xlink="http://www.w3.org/1999/xlink" version="1.1" id="Calque_1" x="0px" y="0px" width="100px" height="100px" viewBox="0 0 100 100" enable-background="new 0 0 100 100" xml:space="preserve">
<path d="M73.11,84.44c1.24,0,2.266-0.965,2.342-2.202c0,0-1.229-6.859-0.715-15.059c0.346-5.505,0.99-11.613,1.307-16.654H25.529  c0.316,5.041,0.958,11.149,1.304,16.654c0.514,8.199-0.715,15.059-0.715,15.059c0.076,1.237,1.103,2.202,2.343,2.202H73.11z"/>
<g>
	<path d="M50.629,26.438c13.76,0,14.724-9.922,14.775-10.669c-1.117,0.116-2.014,1.008-2.102,2.147c0,0-1.833,7.207-12.674,7.207   c-10.843,0-11.963-7.207-11.963-7.207c-0.079-1.041-0.835-1.878-1.817-2.105c-0.007,0.516,0.047,4.058,2.74,6.88   C41.961,25.178,45.675,26.438,50.629,26.438z"/>
	<path d="M94.354,29.351L75.397,16.637c-0.333-0.168-0.696-0.26-1.07-0.26l-7.92-0.577l-0.01,0.052   c-0.02,0.414-0.843,11.586-15.769,11.586c-5.246,0-9.208-1.369-11.775-4.069c-3.035-3.191-3.02-7.089-3.004-7.591l-8.832,0.599   c-0.374,0-0.739,0.092-1.073,0.26L6.987,29.351c-1.023,0.522-1.516,1.713-1.166,2.808l4.388,10.677   c0.192,0.597,0.615,1.094,1.174,1.378c0.561,0.286,1.211,0.332,1.809,0.135c0,0,7.827-2.609,11.526-3.842   c0.063,0.984,0.193,3.049,0.362,5.756h51.184c0.167-2.707,0.297-4.771,0.36-5.756c3.698,1.232,11.527,3.842,11.527,3.842   c0.598,0.197,1.246,0.151,1.808-0.135c0.558-0.284,0.981-0.781,1.175-1.378l4.388-10.677C95.87,31.063,95.377,29.876,94.354,29.351   z"/>
</g>
</svg>