<svg xmlns="http://www.w3.org/2000/svg" xmlns:xlink="http://www.w3.org/1999/xlink" version="1.1" id="Calque_1" x="0px" y="0px" width="100px" height="100px" viewBox="0 0 100 100" enable-background="new 0 0 100 100" xml:space="preserve">
<path d="M92.486,46.756L65.92,40.815c0.066-4.741-3.061-9.003-7.711-10.044c-5.361-1.199-10.713,2.334-11.957,7.892  c-0.102,0.454-0.162,0.907-0.203,1.358c-1.325,0.579-2.561,1.436-3.604,2.584c-3.827,4.217-3.632,10.626,0.435,14.319  c3.644,3.307,9.158,3.307,13.018,0.24l16.873,15.314l-1.91,2.104c-0.252,0.277-0.24,0.701,0.029,0.943l1.298,1.18  c0.269,0.244,0.69,0.216,0.942-0.062l1.909-2.104l0.954,0.866c0.537,0.488,1.383,0.429,1.891-0.131l0.805-0.887  c0.508-0.559,0.484-1.406-0.051-1.893L58.479,54.197c0.728-1.238,1.174-2.584,1.351-3.947c2.347-1.063,4.288-3.034,5.313-5.581  l17.585,3.933l-0.953,4.258c-0.082,0.367,0.139,0.728,0.492,0.807l1.711,0.384c0.355,0.079,0.707-0.154,0.789-0.521l0.951-4.258  l1.66,0.372l-0.619,2.772c-0.082,0.367,0.138,0.728,0.492,0.807l1.712,0.384c0.353,0.079,0.705-0.155,0.787-0.521l0.62-2.772  l1.258,0.282c0.707,0.158,1.414-0.312,1.578-1.048l0.262-1.168C93.633,47.64,93.193,46.915,92.486,46.756z M54.971,53.974  c-2.682,2.955-7.167,3.253-10.017,0.666s-2.986-7.08-0.305-10.035c0.482-0.532,1.025-0.974,1.604-1.333  c0.824,3.706,3.615,6.764,7.455,7.622c0.97,0.217,1.938,0.271,2.884,0.194C56.285,52.123,55.751,53.115,54.971,53.974z   M54.382,47.884c-2.792-0.625-4.798-2.905-5.289-5.633c1.972-0.272,4.016,0.274,5.575,1.688c1.201,1.091,1.914,2.522,2.144,4.033  C56.021,48.085,55.203,48.068,54.382,47.884z M62.76,42.354c-0.43,1.924-1.565,3.5-3.055,4.503c-0.408-1.95-1.396-3.779-2.965-5.203  c-2.117-1.921-4.865-2.717-7.554-2.454c0.918-3.829,4.628-6.251,8.349-5.419C61.292,34.621,63.631,38.459,62.76,42.354z   M44.782,34.13l-1.124-5.446c-0.689-3.343-3.958-5.493-7.3-4.804l-24.556,5.127C8.46,29.697,6.31,32.965,7,36.308l1.123,5.447  c0.69,3.342,3.958,5.493,7.301,4.803l24.555-5.127C43.321,40.741,45.472,37.473,44.782,34.13z"/>
</svg>