<svg xmlns="http://www.w3.org/2000/svg" xmlns:xlink="http://www.w3.org/1999/xlink" version="1.1" id="Layer_1" x="0px" y="0px" width="100px" height="100px" viewBox="0 0 100 100" enable-background="new 0 0 100 100" xml:space="preserve">
<path d="M62.938,58.875c1.965-1.619,3.919-3.386,5.829-5.296c13.763-13.763,20.281-29.731,15.089-36.443  C91.645,9.237,97.342,3.01,97.021,2.69c-0.319-0.32-6.546,5.376-14.446,13.165c-6.71-5.198-22.682,1.321-36.446,15.086  c-1.911,1.911-3.678,3.865-5.298,5.83c-6.008-3.644-17.688,0.569-27.321,10.204C3.06,57.426-1.021,70.288,4.395,75.704  C20.54,59.558,22.915,57.195,29.355,62.942c0.03,0.257,0.065,0.512,0.111,0.759c-1.333-1.23-2.487-2.14-3.605-2.679l-5.523,1.98  l2.442,2.441l-3.929,1.409l2.397,2.396l-3.679,1.318l11.566,11.567l1.32-3.679l2.396,2.395l1.409-3.922l2.442,2.441l1.981-5.522  c-0.541-1.118-1.451-2.272-2.681-3.607c0.25,0.046,0.506,0.082,0.766,0.112c5.747,6.442,3.385,8.817-12.761,24.962  c5.417,5.416,18.279,1.335,28.729-9.114C62.369,76.566,66.584,64.885,62.938,58.875z M71.464,28.934  c2.213,2.212,2.213,5.801,0,8.013c-2.213,2.213-5.802,2.213-8.014,0.001c-2.213-2.213-2.213-5.801,0-8.015  C65.663,26.721,69.251,26.721,71.464,28.934z M42.708,57.69c-2.213-2.213-2.213-5.802,0-8.015c2.212-2.213,5.801-2.213,8.014,0  c2.213,2.213,2.213,5.802,0,8.014C48.51,59.903,44.921,59.903,42.708,57.69z M53.079,47.319c-0.691-0.691-1.167-1.518-1.427-2.394  c-0.57-1.928-0.095-4.099,1.427-5.621l0,0l0,0c1.521-1.521,3.692-1.997,5.62-1.426c0.877,0.259,1.702,0.735,2.394,1.426  c2.214,2.213,2.214,5.801,0.001,8.014C58.881,49.532,55.292,49.532,53.079,47.319z"/>
</svg>