<svg xmlns="http://www.w3.org/2000/svg" xmlns:xlink="http://www.w3.org/1999/xlink" version="1.1" id="Calque_1" x="0px" y="0px" width="100px" height="100px" viewBox="0 0 100 100" enable-background="new 0 0 100 100" xml:space="preserve">
<g>
	<path d="M17.47,50.36l-7.187-9.581c-1.474-1.964-4.258-2.36-6.22-0.888c-1.963,1.472-2.36,4.257-0.888,6.22L17.47,65.167V50.36z"/>
	<path d="M56.464,23.188c-0.538-0.435-1.071-0.865-1.603-1.294v25.296l17.497,14.132c0,0,14.135,11.416,25.023,7.562   C75.306,38.407,61.175,26.991,56.464,23.188z"/>
	<path d="M50.419,20.567c0-7.859-6.394-14.253-14.253-14.253s-14.253,6.394-14.253,14.253v58.874   c0,7.859,6.394,14.253,14.253,14.253s14.253-6.394,14.253-14.253V20.567z M36.244,17.21c1.81,0,3.279,1.47,3.279,3.28   c0,1.81-1.47,3.279-3.279,3.279c-1.811,0-3.28-1.47-3.28-3.279C32.964,18.68,34.434,17.21,36.244,17.21z M42.081,74.902h-4.122   v3.891h-3.658v-3.891H30.41v-3.887h3.891v-3.893h3.658v3.893h4.122V74.902z"/>
</g>
</svg>