<svg xmlns="http://www.w3.org/2000/svg" xmlns:xlink="http://www.w3.org/1999/xlink" version="1.1" x="0px" y="0px" width="100px" height="100px" viewBox="0 0 100 100" enable-background="new 0 0 100 100" xml:space="preserve">
<g id="Layer_1" display="none">
	<g id="r3UvDo_1_" display="inline">
		
			</g>
</g>
<g id="Layer_2">
	<path d="M92.822,7.128c-4.668-4.762-12.036-7.28-21.305-7.28c-17.377,0-37.522,8.833-50.13,21.978   C12.789,30.79,5.311,44.705,1.87,58.141c-3.936,15.367-2.289,27.722,4.636,34.788C11.039,97.555,18.072,100,26.848,100   c0.002,0,0.002,0,0.004,0c17.139,0,38.616-9.146,51.066-21.745c12.8-12.956,21.763-33.832,21.796-50.767   C99.732,18.788,97.348,11.748,92.822,7.128z M24.689,70.869c0,0-6.133,2.859-8.677,2.086c-2.08-0.63-3.281-6.995-1.499-15.471   c1.839-8.753,4.985-20.62,15.312-32.19c0.006-0.006,0.012-0.014,0.02-0.02c5.566-5.805,12.829-10.708,21.001-14.179   c7.637-3.243,15.687-5.029,22.672-5.029c5.188,0,9.519,0.972,12.56,2.77c1.201,0.831,1.275,5.351-1.554,10.576   c-2.829,5.225-11.363,16.8-21.543,25.805C52.802,54.224,30.185,68.874,24.689,70.869z M73.555,69.708   c-6.915,7-17.34,12.885-27.825,16.195c-0.322,0.065-0.642,0.127-0.955,0.187c-4.043,0.728-8.893,1.009-10.888,0.526   c-2.673-0.644-2.044-3.011,0.062-4.41c2.106-1.399,18.908-14.76,27.941-23.977c8.305-8.473,25.33-26.514,30.12-36.37   c0.138-0.284,0.461-0.282,0.49-0.003c0.133,1.266,0.182,2.493,0.179,3.613C92.651,39.917,84.609,58.522,73.555,69.708z"/>
</g>
</svg>