<svg xmlns="http://www.w3.org/2000/svg" xmlns:xlink="http://www.w3.org/1999/xlink" version="1.1" id="Ebene_2" x="0px" y="0px" width="100px" height="100px" viewBox="0 0 100 100" enable-background="new 0 0 100 100" xml:space="preserve">
<path d="M75.361,0c0,0,0.108,32.192,0.001,48.005c-0.002,0.386-0.076,0.647-0.415,0.647c-0.076-0.026-0.159-0.087-0.254-0.224  c-3.356-4.649-6.68-9.309-10.003-13.988c-0.437-0.651-1.159-0.655-1.605-0.009c-3.396,4.64-6.794,9.239-10.191,13.829  c-0.272,0.382-0.709,0.376-0.974-0.013c-3.307-4.676-6.614-9.355-9.953-14.039c-0.438-0.652-1.162-0.66-1.608-0.019  c-3.391,4.604-6.794,9.199-10.208,13.824c-0.271,0.385-0.712,0.383-0.979-0.005c-3.346-4.658-6.726-9.309-10.146-13.961  c-0.449-0.648-1.191-0.65-1.647-0.003c-3.29,4.47-6.603,8.976-9.923,13.536c-0.96,1.485-0.933,1.969-0.933,2.75  c0,16.556,0,49.668,0,49.668h86.953V0H75.361z"/>
</svg>