<?xml version="1.0" encoding="utf-8"?>
<!-- Generator: Adobe Illustrator 15.1.0, SVG Export Plug-In . SVG Version: 6.00 Build 0)  -->
<!DOCTYPE svg PUBLIC "-//W3C//DTD SVG 1.1//EN" "http://www.w3.org/Graphics/SVG/1.1/DTD/svg11.dtd">
<svg version="1.1" id="Layer_1" xmlns="http://www.w3.org/2000/svg" xmlns:xlink="http://www.w3.org/1999/xlink" x="0px" y="0px"
	 width="80.001px" height="100px" viewBox="0 0 80.001 100" enable-background="new 0 0 80.001 100" xml:space="preserve">
<path d="M64.001,40v2H64h-7v-8h-3.714C60.104,31.608,65,25.134,65,17.5C65,7.835,57.165,0,47.5,0c-6.378,0-11.941,3.423-15,8.52
	C29.441,3.423,23.878,0,17.5,0C7.835,0,0,7.835,0,17.5C0,25.134,4.896,31.608,11.714,34H8v11H2v6h6v11h20v2h-5v4h3.14l-22.6,32
	h4.908l22.588-32h3.104l-22.6,32h4.908l22.588-32H42v-4h-5v-2h20v-8h7h0.001v2h16V40H64.001z M23.286,34
	c3.882-1.361,7.129-4.046,9.214-7.52c2.085,3.474,5.332,6.158,9.214,7.52H23.286z"/>
</svg>
