<svg xmlns="http://www.w3.org/2000/svg" xmlns:xlink="http://www.w3.org/1999/xlink" version="1.1" id="Layer_1" x="0px" y="0px" width="100px" height="100px" viewBox="0 0 100 100" enable-background="new 0 0 100 100" xml:space="preserve">
<path fill="#000000" d="M97.2,38.974c-2.078-1.023-9.527-1.351-18.55-1.351C60.505,37.622,36,39,36,39H7.533H0v11.023V53h5.515  l0.919-1.865C22.061,53,21.302,54.646,36,50.023V52h5.306c0.984-1,2.691-2.525,4.636-2.525c1.944,0,3.648,1.525,4.633,2.525h0.04  c0.984-1,2.689-2.525,4.633-2.525c1.945,0,3.649,1.525,4.634,2.525h0.039c0.984-1,2.688-2.525,4.633-2.525S68.203,51,69.188,52  h0.041c0.984-1,2.688-2.525,4.633-2.525S77.51,51,78.495,52h0.039c0.985-1,2.688-2.525,4.634-2.525c1.944,0,3.648,1.525,4.634,2.525  h0.039c0.985-1,2.688-2.525,4.634-2.525c1.944,0,3.651,1.525,4.636,2.525h0.088C97.198,52,103.455,42.057,97.2,38.974z   M96.648,48.774c-1.217-0.812-2.66-1.262-4.174-1.262c-1.717,0-3.346,0.58-4.653,1.614c-1.308-1.034-2.937-1.614-4.653-1.614  s-3.346,0.58-4.653,1.614c-1.308-1.034-2.936-1.614-4.652-1.614c-1.718,0-3.347,0.581-4.653,1.614  c-1.309-1.034-2.937-1.614-4.654-1.614c-1.717,0-3.346,0.58-4.652,1.613c-1.308-1.033-2.936-1.613-4.653-1.613  s-3.347,0.58-4.654,1.614c-1.307-1.034-2.936-1.632-4.653-1.632c-2.173,0-4.204,0.507-5.621,2.507H38v-9.095  c6-0.318,25.662-1.277,40.65-1.277c13.822,0,16.958,0.811,17.666,1.159c0.807,0.397,1.285,0.95,1.51,1.739  C98.33,44.294,97.504,46.86,96.648,48.774z"/>
</svg>