<svg xmlns="http://www.w3.org/2000/svg" xmlns:xlink="http://www.w3.org/1999/xlink" version="1.1" id="Capa_1" x="0px" y="0px" width="100px" height="100px" viewBox="0 0 100 100" enable-background="new 0 0 100 100" xml:space="preserve">
<g>
	<path d="M78.672,70.396c0-1.537-1.719-2.785-3.835-2.785c-2.12,0-3.851,1.248-3.851,2.785c0,1.528,1.729,2.783,3.851,2.783   C76.953,73.18,78.672,71.925,78.672,70.396z"/>
	<path d="M64.785,76.611c-1.006,1.166-0.51,3.236,1.094,4.607c1.613,1.389,3.732,1.562,4.729,0.391   c1.017-1.159,0.518-3.228-1.101-4.604C67.9,75.619,65.784,75.443,64.785,76.611z"/>
	<path d="M47,72.663c-1.814,1.09-2.651,3.052-1.853,4.37c0.791,1.308,2.907,1.482,4.718,0.394c1.824-1.097,2.65-3.059,1.863-4.374   C50.932,71.749,48.813,71.562,47,72.663z"/>
	<path d="M62.65,71.239c0-1.529-1.719-2.781-3.846-2.781c-2.109,0-3.84,1.252-3.84,2.781c0,1.543,1.73,2.788,3.84,2.788   C60.934,74.027,62.65,72.782,62.65,71.239z"/>
	<path d="M61.379,84.65c-2.02-0.656-4.036-0.01-4.521,1.453c-0.475,1.461,0.777,3.182,2.781,3.838   c2.021,0.662,4.047,0.015,4.524-1.447C64.645,87.042,63.395,85.318,61.379,84.65z"/>
	<path d="M84.301,58.137L40.18,11.452c-0.437-0.464-1.905-1.209-2.089-1.272c-6.588-2.489-16.445,7.517-22.032,22.335   c-5.579,14.818-4.043,28.838,2.549,31.317c0.689,0.264,1.413,0.361,2.173,0.352L81.7,64.159c1.424,0,2.718-0.836,3.286-2.158   C85.545,60.688,85.271,59.166,84.301,58.137z M22.411,35.443c1.23-3.709,3.551-6.293,5.196-5.763   c1.639,0.517,1.983,3.952,0.753,7.653c-1.23,3.713-3.551,6.293-5.189,5.766C21.525,42.583,21.181,39.152,22.411,35.443z    M39.171,41.058c-3.305,9.154-8.463,17.086-13.807,21.234c-0.326,0.265-0.728,0.388-1.117,0.388   c-0.573,0.01-1.133-0.232-1.498-0.711c-0.633-0.822-0.492-1.994,0.323-2.637c4.799-3.725,9.496-11.036,12.579-19.544   c2.978-8.205,4.092-16.622,2.992-22.521c-0.193-1.017,0.481-1.997,1.501-2.188c1.03-0.176,1.982,0.482,2.165,1.491   C43.551,23.201,42.412,32.128,39.171,41.058z"/>
	<path d="M81.775,76.479c-2.004-0.684-4.035-0.058-4.527,1.398c-0.495,1.455,0.73,3.191,2.742,3.867   c2.004,0.688,4.035,0.056,4.531-1.393C85.016,78.896,83.787,77.159,81.775,76.479z"/>
</g>
</svg>