<svg xmlns="http://www.w3.org/2000/svg" xmlns:xlink="http://www.w3.org/1999/xlink" version="1.1" id="Capa_1" x="0px" y="0px" width="100px" height="100px" viewBox="0 0 100 100" enable-background="new 0 0 100 100" xml:space="preserve">
<g>
	<path d="M40.339,78.273c-1.118,0-2.011,0.899-2.011,2.016c0,1.113,0.893,2.014,2.011,2.014c1.111,0,2.011-0.9,2.011-2.014   C42.35,79.174,41.45,78.273,40.339,78.273z"/>
	<path d="M36.891,76.867c1.114,0,2.014-0.898,2.014-2.01c0-1.119-0.899-2.019-2.014-2.019c-1.115,0-2.015,0.897-2.015,2.019   C34.876,75.969,35.775,76.867,36.891,76.867z"/>
	<path d="M33.234,78.273c-1.122,0-2.021,0.899-2.021,2.016c0,1.113,0.899,2.014,2.021,2.014c1.11,0,2.011-0.9,2.011-2.014   C35.245,79.174,34.345,78.273,33.234,78.273z"/>
	<path d="M31.838,74.857c0-1.119-0.893-2.019-2.014-2.019c-1.118,0-2.015,0.897-2.015,2.019c0,1.11,0.896,2.01,2.015,2.01   C30.945,76.867,31.838,75.969,31.838,74.857z"/>
	<path d="M43.999,76.867c1.118,0,2.018-0.898,2.018-2.01c0-1.119-0.899-2.019-2.018-2.019c-1.111,0-2.015,0.897-2.015,2.019   C41.984,75.969,42.888,76.867,43.999,76.867z"/>
	<circle cx="36.891" cy="86.077" r="2.017"/>
	<path d="M86.729,37.141H54.404C53.41,23.079,47.666,12.25,40.659,11.934l-0.039-0.027H25.784v0.035   c-7.699,0.379-13.883,13.447-13.883,29.545c0,16.337,6.366,29.578,14.228,29.578h14.225c7.091,0,12.955-10.805,14.03-24.922h32.345   c2.484,0,4.5-2.014,4.5-4.5S89.213,37.141,86.729,37.141z M21.91,48.954V34.322h5.351v14.632H21.91z M29.198,69.285   c-0.306,0.25-0.679,0.369-1.052,0.369c-0.495,0-0.984-0.215-1.314-0.633c-0.584-0.732-0.464-1.793,0.268-2.373   c4.904-3.914,8.198-14.133,8.198-25.437c0-10.962-3.03-20.784-7.724-25.027c-0.693-0.63-0.742-1.691-0.12-2.388   c0.622-0.692,1.688-0.745,2.388-0.115c5.364,4.854,8.831,15.662,8.831,27.53C38.673,53.676,34.957,64.697,29.198,69.285z"/>
	<path d="M51.111,84.061c-1.118,0-2.015,0.904-2.015,2.019s0.896,2.017,2.015,2.017c1.109,0,2.018-0.9,2.018-2.017   C53.129,84.965,52.223,84.061,51.111,84.061z"/>
	<path d="M43.999,84.061c-1.111,0-2.015,0.904-2.015,2.019s0.903,2.017,2.015,2.017c1.118,0,2.018-0.9,2.018-2.017   C46.017,84.965,45.117,84.061,43.999,84.061z"/>
	<path d="M47.444,78.273c-1.111,0-2.011,0.899-2.011,2.016c0,1.113,0.899,2.014,2.011,2.014c1.121,0,2.018-0.9,2.018-2.014   C49.462,79.174,48.565,78.273,47.444,78.273z"/>
</g>
</svg>