<svg xmlns="http://www.w3.org/2000/svg" xmlns:xlink="http://www.w3.org/1999/xlink" version="1.1" id="Layer_1" x="0px" y="0px" width="100px" height="100px" viewBox="0 0 100 100" enable-background="new 0 0 100 100" xml:space="preserve">
<g>
	<path d="M53.454,89.297V74.545h-6.935v14.752c0,1.955,1.569,3.51,3.467,3.51S53.454,91.252,53.454,89.297L53.454,89.297z    M69.111,62.557l-0.021-31.072C68.598,16.79,59.752,6.3,50.174,6.3h-0.422c-9.577,0-18.43,10.49-18.945,25.187v31.07   c0,2.441,2.135,4.646,5.055,4.646h28.197C66.977,67.203,69.111,64.998,69.111,62.557L69.111,62.557z M58.354,89.297   c0,4.627-3.729,8.408-8.367,8.408c-4.638,0-8.368-3.781-8.368-8.408V71.992H36.14c-5.571,0-10.345-4.312-10.345-9.943l0.001-30.553   C26.349,15.73,36.134,1.509,49.756,1.509h0.414c13.626,0,23.402,14.22,23.934,29.987l0.022,30.551   c0,5.631-4.772,9.945-10.345,9.945h-5.428V89.297L58.354,89.297z"/>
</g>
</svg>