<svg xmlns="http://www.w3.org/2000/svg" xmlns:xlink="http://www.w3.org/1999/xlink" version="1.1" id="Layer_1" x="0px" y="0px" width="98.682px" height="44.365px" viewBox="0 0 98.682 44.365" enable-background="new 0 0 98.682 44.365" xml:space="preserve">
<g>
	<path d="M38.926,13.2h6.856h-1.269v1.096l-5.588,0c-0.303,0-0.548-0.245-0.548-0.548C38.378,13.445,38.623,13.2,38.926,13.2   L38.926,13.2z M52.583,15.316l-1.53-4.175h-3.64l-1.531,4.175h3.395H52.583L52.583,15.316z M43.607,30.545   c-0.017-0.048-0.031-0.094-0.044-0.142H8.183c-0.605,0-1.096-0.306-1.096-0.679c0-0.374,0.49-0.677,1.096-0.677h7.562L12.24,11.142   H1.097C0.491,11.142,0,10.839,0,10.465c0-0.375,0.491-0.677,1.097-0.677h47.437l0.144-7.187c0-1.245,0.253-2.292,0.6-2.602   c0.346,0.31,0.6,1.357,0.6,2.602l0.142,7.187h47.568c0.604,0,1.096,0.303,1.096,0.677c0,0.374-0.492,0.676-1.096,0.676h-9.638   l-3.505,17.907h5.965c0.606,0,1.098,0.303,1.098,0.677c0,0.373-0.491,0.679-1.098,0.679H54.989   c-0.012,0.039-0.024,0.081-0.036,0.121c-0.174,0.656-0.779,1.183-1.561,1.359l5.168,8.094h0.893v-2.296   c0-0.454,0.369-0.824,0.822-0.824h0.24c0.455,0,0.823,0.37,0.823,0.824v5.858c0,0.456-0.368,0.824-0.823,0.824h-0.24   c-0.453,0-0.822-0.368-0.822-0.824v-2.465h-1.492l-5.828-9.127h-5.728l-5.828,9.127h-1.492v2.465c0,0.456-0.369,0.824-0.823,0.824   h-0.239c-0.455,0-0.823-0.368-0.823-0.824v-5.858c0-0.454,0.368-0.824,0.823-0.824h0.239c0.454,0,0.823,0.37,0.823,0.824v2.296   h0.891l5.172-8.096C44.382,31.704,43.786,31.189,43.607,30.545L43.607,30.545z M38.378,13.748c0-0.303,0.245-0.548,0.548-0.548   h6.856l0.756-2.058h-33.46l3.504,17.907h26.846l-0.548-6.912c1.678-0.084,3.109-0.24,4.088-0.447   c0.422,0.846,1.297,1.429,2.309,1.429c1.003,0,1.872-0.573,2.3-1.409c0.99,0.199,2.424,0.352,4.096,0.434l-0.547,6.906h28.482   l3.502-17.907H51.93l0.752,2.058h0.967h5.902c0.302,0,0.548,0.245,0.548,0.547c0,0.304-0.246,0.549-0.548,0.549l-6.468,0   l0.376,1.021h0.384c1.214,0,2.192,0.982,2.192,2.193l-0.115,1.485c-1.759,0.079-3.272,0.233-4.312,0.44   c-0.413-0.872-1.302-1.475-2.331-1.475c-1.038,0-1.932,0.611-2.34,1.494c-1.025-0.212-2.538-0.373-4.305-0.455l-0.118-1.49   c0-1.211,0.982-2.193,2.193-2.193h0.299l0.374-1.021h-0.866l-5.588,0C38.623,14.296,38.378,14.051,38.378,13.748L38.378,13.748z    M58.55,19.486c4.532,0,5.964,0.487,5.964,1.088c0,0.601-1.432,1.087-5.964,1.087c-3.19,0-5.956-0.241-7.313-0.593   c-0.231,0.864-1.022,1.5-1.96,1.5c-0.947,0-1.743-0.647-1.969-1.525c-1.32,0.366-4.141,0.619-7.407,0.619   c-4.533,0-5.964-0.487-5.964-1.087c0-0.601,1.431-1.088,5.964-1.088c3.253,0,6.063,0.251,7.392,0.614   c0.2-0.911,1.012-1.593,1.984-1.593c0.962,0,1.769,0.67,1.977,1.568C52.618,19.726,55.373,19.486,58.55,19.486L58.55,19.486z    M48.521,20.539c0,0.417,0.339,0.755,0.756,0.755c0.416,0,0.755-0.338,0.755-0.755c0-0.418-0.339-0.755-0.755-0.755   C48.859,19.783,48.521,20.121,48.521,20.539L48.521,20.539z"/>
</g>
</svg>