<?xml version="1.0" encoding="utf-8"?>
<!-- Generator: Adobe Illustrator 15.1.0, SVG Export Plug-In . SVG Version: 6.00 Build 0)  -->
<!DOCTYPE svg PUBLIC "-//W3C//DTD SVG 1.1//EN" "http://www.w3.org/Graphics/SVG/1.1/DTD/svg11.dtd">
<svg version="1.1" id="Layer_1" xmlns="http://www.w3.org/2000/svg" xmlns:xlink="http://www.w3.org/1999/xlink" x="0px" y="0px"
	 width="45.023px" height="99.802px" viewBox="0 0 45.023 99.802" enable-background="new 0 0 45.023 99.802" xml:space="preserve">
<path d="M5.086,27.635c12.474-4.078,24.947-8.153,37.423-12.233c4.42-1.443,2.526-8.44-1.928-6.986
	c-12.474,4.078-24.947,8.156-37.42,12.234C-1.259,22.094,0.633,29.092,5.086,27.635z"/>
<path d="M12.393,71.938l-0.289-0.192C12.197,71.815,12.293,71.878,12.393,71.938z"/>
<path d="M32.188,76.802h-20c-0.828,0-1.5,0.671-1.5,1.5v1c0,0.829,0.672,1.5,1.5,1.5h20c0.828,0,1.5-0.671,1.5-1.5v-1
	C33.688,77.473,33.016,76.802,32.188,76.802z"/>
<path d="M32.188,82.802h-20c-0.828,0-1.5,0.671-1.5,1.5v1c0,0.829,0.672,1.5,1.5,1.5h20c0.828,0,1.5-0.671,1.5-1.5v-1
	C33.688,83.473,33.016,82.802,32.188,82.802z"/>
<path d="M32.188,88.802h-20c-0.828,0-1.5,0.671-1.5,1.5v1c0,0.829,0.672,1.5,1.5,1.5h20c0.828,0,1.5-0.671,1.5-1.5v-1
	C33.688,89.473,33.016,88.802,32.188,88.802z"/>
<path d="M14.688,94.802h15c0,3-4,5-7.5,5S14.688,97.802,14.688,94.802z"/>
<path d="M5.023,15.514c8.696-2.842,17.392-5.685,26.086-8.526c4.42-1.445,2.527-8.443-1.927-6.987
	c-8.694,2.842-17.39,5.685-26.085,8.526C-1.323,9.973,0.57,16.97,5.023,15.514z"/>
<path d="M40.724,32.345c-4.631,0.023-9.802,0.85-13.225,4.271c-4.065,4.065-4.373,9.807-3.618,15.186h-3.327
	c0.673-5.244,0.271-10.775-3.678-14.725c-0.368-0.367-0.757-0.697-1.163-1.006c8.716-2.851,17.432-5.699,26.147-8.547
	c4.422-1.445,2.526-8.445-1.926-6.986C27.46,24.614,14.989,28.692,2.513,32.771c-3.522,1.152-3.033,5.825-0.436,6.94
	c0.049,0.022,0.098,0.043,0.147,0.063c0.002,0,0.002,0.002,0.004,0.002c0.414,0.172,0.887,0.272,1.421,0.275
	c0.822,0.004,1.643,0.034,2.46,0.096c0.226,0.019,0.449,0.04,0.673,0.066c0.021,0.003,0.036,0.005,0.06,0.009
	c0.438,0.065,0.871,0.159,1.302,0.259c0.42,0.096,0.834,0.219,1.244,0.35c0.174,0.058,0.347,0.121,0.519,0.187
	c0.022,0.011,0.045,0.021,0.071,0.032c0.372,0.172,0.726,0.381,1.074,0.593c0.113,0.073,0.221,0.15,0.33,0.228
	c0.037,0.031,0.083,0.07,0.146,0.123c0.23,0.201,0.439,0.425,0.647,0.647c0.041,0.05,0.072,0.087,0.101,0.119
	c0.093,0.135,0.185,0.267,0.27,0.403c0.063,0.101,0.479,0.947,0.438,0.805c0.148,0.391,0.263,0.797,0.369,1.201
	c0.48,1.816,0.33,4.288-0.053,6.513c-0.007,0.04-0.005,0.08-0.01,0.12H9.688c-1.933,0-3.5,1.566-3.5,3.5v13.646
	c0,1.149,0.562,2.16,1.417,2.798l4.583,3.056h20l4.584-3.056c0.854-0.638,1.416-1.648,1.416-2.798V55.302c0-1.934-1.567-3.5-3.5-3.5
	h-3.552c-0.009-0.193-0.027-0.388-0.06-0.582c-0.387-2.225-0.534-4.693-0.056-6.511c0.106-0.406,0.222-0.81,0.368-1.202
	c-0.039,0.145,0.376-0.704,0.438-0.803c0.086-0.139,0.178-0.271,0.27-0.404c0.028-0.033,0.061-0.071,0.103-0.118
	c0.207-0.224,0.417-0.448,0.646-0.649c0.062-0.051,0.108-0.092,0.146-0.123c0.111-0.077,0.218-0.153,0.332-0.226
	c0.349-0.213,0.701-0.421,1.071-0.594c0.027-0.013,0.05-0.022,0.073-0.033c0.171-0.063,0.344-0.128,0.518-0.187
	c0.411-0.129,0.824-0.256,1.244-0.352c0.431-0.097,0.863-0.189,1.304-0.257c0.021-0.004,0.039-0.006,0.059-0.009
	c0.224-0.025,0.449-0.049,0.672-0.066c0.82-0.062,1.638-0.092,2.46-0.097C45.394,39.567,45.399,32.319,40.724,32.345z"/>
</svg>
