<svg xmlns="http://www.w3.org/2000/svg" xmlns:xlink="http://www.w3.org/1999/xlink" version="1.1" id="Layer_1" x="0px" y="0px" width="100px" height="79.773px" viewBox="0 0 100 79.773" enable-background="new 0 0 100 79.773" xml:space="preserve">
<path d="M0,39.481c0,0,0,35.068,0,36.753c0,2.297,1,3.539,2.957,3.539c1.303,0,54.212,0,67.46,0c2.104,0,3.725-1.711,3.725-2.334  c0-0.418,0-37.958,0-37.958H0z"/>
<path d="M11.543,19.054h76.004c0,0,0,28.772,0,29.024s-0.053,0.583-0.188,0.875s-11.192,24.03-11.192,24.03V36.248l11.381-17.194  L100,0H23.995L11.543,19.054z"/>
<polyline points="11.543,37.781 11.543,19.371 0.976,37.781 "/>
</svg>