<svg xmlns="http://www.w3.org/2000/svg" xmlns:xlink="http://www.w3.org/1999/xlink" version="1.1" id="Calque_1" x="0px" y="0px" width="100px" height="100px" viewBox="0 0 100 100" enable-background="new 0 0 100 100" xml:space="preserve">
<path d="M87.135,16.799c-3.664-3.663-3.664-3.663-3.664-3.663s-3.658-3.659-7.322,0c-3.657,3.663-25.62,25.625-25.62,25.625  l-3.663,10.981L17.581,79.027c-3.66-3.659-7.322,7.322-7.322,7.322l3.662,3.659c0,0,10.981-3.659,7.319-7.318l29.288-29.284  l10.979-3.663l25.627-25.623C87.135,24.121,90.792,20.459,87.135,16.799z M54.187,43.575c-0.294,0-0.589-0.112-0.814-0.336  c-0.449-0.449-0.449-1.177,0-1.627l25.627-25.625c0.452-0.448,1.177-0.448,1.628,0c0.449,0.449,0.449,1.178,0,1.627L55,43.238  C54.774,43.462,54.481,43.575,54.187,43.575z M84.284,21.273L58.661,46.898c-0.226,0.225-0.52,0.337-0.814,0.337  s-0.587-0.112-0.812-0.337c-0.45-0.45-0.45-1.178,0-1.628l25.622-25.625c0.451-0.448,1.176-0.449,1.628,0  C84.733,20.095,84.733,20.824,84.284,21.273z"/>
</svg>