<svg xmlns="http://www.w3.org/2000/svg" xmlns:xlink="http://www.w3.org/1999/xlink" version="1.1" x="0px" y="0px" width="100px" height="100px" viewBox="0 0 100 100" enable-background="new 0 0 100 100" xml:space="preserve">
<g id="Layer_1" display="none">
	
		</g>
<g id="Layer_2">
	<g>
		<g id="XMLID_1_">
			<g>
				<path d="M59.175,86.579c1.998-2.391,7.729-9.873,9.48-18.96c0.655-3.521,1.425-7.188,1.425-11.642      c0-2.801-0.295-5.878-1.098-9.432c-1.031-4.601-2.439-8.04-3.209-9.709c0.181-0.016,0.394-0.049,0.573-0.065      c8.383-1.113,18.519-3.34,19.746-3.962c1.229-0.606,9.972,25.625,9.251,26.738c-0.72,1.13-32.566,27.77-35.153,27.294      C59.863,86.775,59.519,86.678,59.175,86.579z"/>
				<path d="M42.278,86.628C39.396,86.269,5.699,61.561,5.601,60.021s8.53-26.574,10.577-27.033      c0.639-0.147,5.567,2.882,16.881,4.388c1.342,0.18,2.668,0.311,3.995,0.426c-0.819,1.735-2.292,5.19-3.324,9.758      c-0.786,3.553-1.081,6.648-1.081,9.431c0,4.454,0.753,8.121,1.425,11.642c1.67,8.76,6.942,15.44,9.054,17.847      C42.769,86.596,42.474,86.661,42.278,86.628z"/>
				<path d="M45.552,86.317c-1.506-1.638-7.434-8.563-9.153-17.618c-0.671-3.521-1.392-7.057-1.392-11.33      c0-2.669,0.278-5.633,1.048-9.071c0.721-3.209,1.67-5.845,2.423-7.679c0.393-0.933,0.72-1.637,0.966-2.128      c0.033-0.065,0.066-0.131,0.099-0.18c8.694,0.589,16.979-0.016,23.643-0.819c0.655,1.327,2.227,4.879,3.324,9.841      c0.77,3.438,1.064,6.418,1.064,9.087c0,4.258-0.737,7.794-1.408,11.331c-0.982,5.206-3.423,9.971-5.633,13.426      c-1.097,1.72-2.129,3.111-2.882,4.077c-0.393,0.475-0.704,0.852-0.917,1.097l-0.065,0.099c-1.621-0.605-3.405-1.244-5.648-1.162      C48.762,85.367,46.928,85.875,45.552,86.317z"/>
				<path d="M85.192,31.007c-8.269,2.505-18.797,5.06-34.679,5.06c-0.049,0-0.098,0-0.147,0c-8.088,0-14.065-0.442-18.666-1.097      c-4.601-0.671-7.859-1.588-10.332-2.505c-1.654-0.589-2.947-1.179-3.979-1.604l3.176-7.548c1.179,0.491,2.276,0.982,3.602,1.474      c1.343,0.491,2.931,0.982,5.076,1.441c2.129,0.458,4.814,0.868,8.252,1.163c3.455,0.311,7.663,0.491,12.87,0.491      c15.129-0.017,24.511-2.342,32.469-4.716L85.192,31.007z"/>
			</g>
			<g>
			</g>
		</g>
	</g>
</g>
<g id="Layer_3">
</g>
</svg>