<svg xmlns="http://www.w3.org/2000/svg" xmlns:xlink="http://www.w3.org/1999/xlink" version="1.1" x="0px" y="0px" width="100.0px" height="100px" viewBox="0 0 102 102" enable-background="new 0 0 102 102" xml:space="preserve">
<g id="Layer_1">
</g>
<g id="Layer_2">
	<path d="M99.577,65.483c0-1.77-0.363-3.497-1.297-4.859c-1.688-2.466-5.081-3.967-8.728-4.456   C79.084,54.762,67.79,52.065,63.26,47.1c0.006-0.087,0.025-0.169,0.025-0.257c0-1.286-0.76-2.387-1.851-2.903l0.004-0.007   c0,0-0.168-0.081-0.469-0.229c0.082-0.163,0.138-0.34,0.138-0.534c0-0.671-0.544-1.215-1.215-1.215   c-0.481,0-0.89,0.286-1.085,0.692c-0.637-0.311-1.36-0.664-2.146-1.049c0.081-0.163,0.137-0.34,0.137-0.534   c0-0.671-0.544-1.215-1.215-1.215c-0.481,0-0.889,0.286-1.085,0.692c-0.699-0.342-1.418-0.693-2.146-1.049   c0.08-0.163,0.137-0.34,0.137-0.534c0-0.671-0.543-1.215-1.215-1.215c-0.481,0-0.888,0.286-1.084,0.691   c-0.73-0.357-1.45-0.709-2.145-1.049c0.081-0.163,0.136-0.34,0.136-0.533c0-0.671-0.543-1.215-1.215-1.215   c-0.48,0-0.886,0.285-1.083,0.689c-0.799-0.391-1.523-0.746-2.145-1.05c0.08-0.162,0.134-0.338,0.134-0.53   c0-0.671-0.543-1.214-1.215-1.214c-0.478,0-0.882,0.282-1.08,0.684c-0.992-0.492-1.858-0.886-2.953-0.886   c-0.639,0-1.242,0.13-1.813,0.327c-0.184,0.075-0.371,0.146-0.556,0.22c-8.911,3.522-18.612,5.479-28.776,5.479   c-1.358,0-2.708-0.035-4.05-0.104C1.878,42.486,1,46.127,1,49.98c0,3.82,0.862,7.433,2.39,10.644H1.769v8.044h30.224v-5.287   c8.643,0,18.132,5.236,32.854,5.236h34.209H101v-3.134H99.577z"/>
</g>
</svg>