<svg xmlns="http://www.w3.org/2000/svg" xmlns:xlink="http://www.w3.org/1999/xlink" version="1.1" id="Layer_1" x="0px" y="0px" width="100.0px" height="100px" viewBox="0 0 102 102" enable-background="new 0 0 102 102" xml:space="preserve">
<path d="M101,51l-34.657-7.632l13.645-21.356L58.631,35.656L51,1l-7.632,34.656L22.012,22.012l13.644,21.356L1,51l34.656,7.631  L22.012,79.987l21.356-13.645L51,101l7.631-34.657l21.356,13.645L66.343,58.631L101,51L101,51z M72.942,29.058L72.942,29.058  l-8.829,13.819l-4.09-0.901L72.942,29.058L72.942,29.058z M29.057,29.057l13.82,8.829l-0.901,4.09L29.057,29.057L29.057,29.057z   M29.058,72.942l8.828-13.82l4.09,0.901L29.058,72.942L29.058,72.942z M58.225,58.225L58.225,58.225L51,51v40.029l-7.225-32.805  L51,51H10.971l32.804-7.225L51,51V10.971l7.225,32.804L51,51h40.029 M72.943,72.943l-13.821-8.83l0.901-4.09L72.943,72.943  L72.943,72.943z"/>
</svg>