<svg xmlns="http://www.w3.org/2000/svg" xmlns:xlink="http://www.w3.org/1999/xlink" version="1.1" id="Calque_1" x="0px" y="0px" width="100px" height="100px" viewBox="0 0 100 100" enable-background="new 0 0 100 100" xml:space="preserve">
<path d="M96.841,53.233l-2.338-6.114c-0.244-0.639-0.83-1.084-1.511-1.147c-0.315-0.03-7.739-0.728-10.134-0.728H55.597  c-1.82,0-2.93,0.434-3.556,0.806H2.587c-0.23,0-0.43,0.156-0.485,0.38c-0.055,0.223,0.048,0.455,0.251,0.562  c1.293,0.684,2.744,1.339,4.311,1.947c0.368,0.144,0.7,0.438,1.053,0.751c0.448,0.397,0.912,0.809,1.539,1.013  c0.693,0.229,1.476,0.237,2.233,0.246c0.672,0.008,1.307,0.016,1.853,0.164c0.543,0.147,1.074,0.433,1.636,0.734  c0.646,0.348,1.315,0.706,2.058,0.878c0.962,0.22,1.966,0.235,2.938,0.25c0.863,0.014,1.679,0.026,2.466,0.17  c0.728,0.133,1.418,0.396,2.149,0.675c0.795,0.305,1.618,0.618,2.494,0.749c0.542,0.083,1.131,0.121,1.856,0.121  c0.46,0,0.921-0.016,1.38-0.031c0.958-0.031,1.922-0.046,2.634,0.036c0.858,0.102,1.736,0.357,2.585,0.605  c0.897,0.261,1.825,0.531,2.723,0.614c0.229,0.021,0.456,0.029,0.681,0.029c0.704,0,1.375-0.088,2.023-0.173  c0.727-0.096,1.389-0.186,2.054-0.138c1.524,0.104,2.909,0.187,4.121,0.251c1.86,0.102,3.302-0.26,4.256-0.616  c0.278,0.303,0.658,0.514,1.094,0.569c0.746,0.097,18.364,2.354,25.806,2.354c7.559,0,16.935-2.473,17.33-2.577  c0.492-0.132,0.906-0.466,1.139-0.919C96.994,54.241,97.023,53.71,96.841,53.233z M47.77,54.402c-0.179,0-0.362-0.005-0.55-0.016  c-1.207-0.063-2.584-0.146-4.1-0.249c-0.158-0.012-0.321-0.018-0.484-0.018c-0.625,0-1.236,0.081-1.827,0.159  c-0.668,0.087-1.262,0.165-1.868,0.165c-0.181,0-0.363-0.007-0.547-0.023c-0.746-0.069-1.599-0.316-2.424-0.557  c-0.876-0.256-1.856-0.542-2.842-0.658c-0.418-0.049-0.918-0.071-1.535-0.071c-0.426,0-0.876,0.011-1.324,0.025  c-0.444,0.015-0.889,0.03-1.332,0.03c-0.649,0-1.167-0.033-1.629-0.104c-0.726-0.108-1.467-0.393-2.184-0.667  c-0.774-0.295-1.558-0.594-2.417-0.75C21.8,51.504,20.885,51.49,20,51.476c-0.898-0.014-1.821-0.027-2.632-0.212  c-0.547-0.127-1.098-0.424-1.681-0.737c-0.614-0.329-1.245-0.668-1.953-0.86c-0.732-0.199-1.493-0.208-2.229-0.217  c-0.675-0.008-1.31-0.015-1.781-0.171c-0.335-0.108-0.649-0.387-1.012-0.709c-0.413-0.366-0.877-0.777-1.484-1.02H50.94  c-0.008,0.07-0.021,0.141-0.021,0.212v6.085C50.216,54.113,49.143,54.402,47.77,54.402z"/>
</svg>