<svg xmlns="http://www.w3.org/2000/svg" xmlns:xlink="http://www.w3.org/1999/xlink" version="1.1" id="Layer_1" x="0px" y="0px" width="77.2727272727px" height="100px" viewBox="0 0 612 792" enable-background="new 0 0 612 792" xml:space="preserve">
<g>
	<path d="M351.945,377.294c0,14-35.799,20.4-56.999,20.4s-56.799-6.4-56.799-20.4c0-2.2,0.8-4.2,2.4-6   c19.4-39.8,14.4-58.399,25-73.199c4.8-6.6,10.4-10.8,19.4-12.8c0.4-5.2,4.6-9.2,10-9.2c5.2,0,9.6,4,10,9.2   c9,2,14.601,6.2,19.399,12.8c10.6,14.8,5.601,33.399,25,73.199C350.945,373.095,351.945,375.095,351.945,377.294z M340.146,373.295   c-8.201-9.8-29.4-11.8-45.2-11.8c-15.6,0-37,2-45.2,11.8c8.2,9.8,29.6,12.2,45.2,12   C310.746,385.294,331.945,383.294,340.146,373.295z M285.947,368.495c0-1.2,6.2-1.4,9-1.4c7,0,9,0.6,9,1.4c0,5.6-4,10-9,10   C289.947,378.495,285.947,374.095,285.947,368.495z"/>
</g>
</svg>