<svg xmlns="http://www.w3.org/2000/svg" xmlns:xlink="http://www.w3.org/1999/xlink" version="1.1" id="Layer_1" x="0px" y="0px" width="77.2727272727px" height="100px" viewBox="0 0 612 792" enable-background="new 0 0 612 792" xml:space="preserve">
<g>
	<path d="M357.345,331.695c0,35.799-28.999,64.599-64.799,64.599c-35.599,0-64.599-28.8-64.599-64.599   c0-35.6,29-64.599,64.599-64.599C328.346,267.096,357.345,296.096,357.345,331.695z M250.746,373.695c3.8,3.8,8.2,7,12.8,9.6   l14.6-27.6c4.2,2.6,9.2,4,14.6,4c15.799,0,28-12.4,28-28c0-7.6-3-14.6-7.8-19.6l26.399-16.8c-1.399-2-3-3.8-4.8-5.4   c-4-4-8.199-7.2-13-10l-14.6,27.6c-4-2.4-9-3.8-14.2-3.8c-15.6,0-28,12.4-28,28c0,7.4,2.8,14.2,7.4,19.2l-26.6,16.8   C247.146,369.895,248.946,371.695,250.746,373.695z M280.746,331.695c0-6.8,5.4-12.2,12-12.2c6.8,0,12.2,5.4,12.2,12.2   c0,6.4-5.4,12-12.2,12C286.346,343.695,280.746,338.095,280.746,331.695z M286.746,331.695c0,3.6,2.4,6,6,6s6.2-2.4,6.2-6   s-2.6-6.2-6.2-6.2S286.746,328.095,286.746,331.695z"/>
</g>
</svg>