<svg xmlns="http://www.w3.org/2000/svg" xmlns:xlink="http://www.w3.org/1999/xlink" version="1.1" id="Layer_1" x="0px" y="0px" width="77.2727272727px" height="100px" viewBox="0 0 612 792" enable-background="new 0 0 612 792" xml:space="preserve">
<g>
	<path d="M360.545,264.296c5.801,0,10.601,4.8,10.601,10.6v17.6c0,5.8-4.8,10.6-10.601,10.6h-15.999c0,0.2,0,0.4,0,78.199   c0,7.4-3.399,11-11.2,11h-81.398c-7.2,0-11.2-3.6-11.2-11c0-77.799,0-77.999,0-78.199h-16c-5.8,0-10.6-4.8-10.6-10.6v-17.6   c0-5.8,4.8-10.6,10.6-10.6h35.6v-0.8c0-4.2,3.6-7.8,8-7.8h1.8c4.4,0,7.8,3.6,7.8,7.8v0.8h29.6v-0.8c0-4.2,3.399-7.8,7.6-7.8h2   c4.4,0,7.8,3.6,7.8,7.8v0.8H360.545z M280.547,317.696c0-4-3.2-7.2-7-7.2c-4.2,0-7.4,3.2-7.4,7.2c0,3.8,3.2,7,7.4,7   C277.347,324.695,280.547,321.496,280.547,317.696z M280.547,335.896c0-3.8-3.2-7-7-7c-4.2,0-7.4,3.2-7.4,7c0,4.2,3.2,7.2,7.4,7.2   C277.347,343.095,280.547,340.095,280.547,335.896z M280.547,354.295c0-3.8-3.2-7-7-7c-4.2,0-7.4,3.2-7.4,7c0,4,3.2,7.2,7.4,7.2   C277.347,361.495,280.547,358.295,280.547,354.295z M280.547,372.695c0-4-3.2-7.2-7-7.2c-4.2,0-7.4,3.2-7.4,7.2c0,3.8,3.2,7,7.4,7   C277.347,379.695,280.547,376.495,280.547,372.695z M299.747,317.696c0-4-3.2-7.2-7-7.2c-4,0-7.2,3.2-7.2,7.2c0,3.8,3.2,7,7.2,7   C296.546,324.695,299.747,321.496,299.747,317.696z M299.747,335.896c0-3.8-3.2-7-7-7c-4,0-7.2,3.2-7.2,7c0,4.2,3.2,7.2,7.2,7.2   C296.546,343.095,299.747,340.095,299.747,335.896z M299.747,354.295c0-3.8-3.2-7-7-7c-4,0-7.2,3.2-7.2,7c0,4,3.2,7.2,7.2,7.2   C296.546,361.495,299.747,358.295,299.747,354.295z M299.747,372.695c0-4-3.2-7.2-7-7.2c-4,0-7.2,3.2-7.2,7.2c0,3.8,3.2,7,7.2,7   C296.546,379.695,299.747,376.495,299.747,372.695z M319.146,317.696c0-4-3-7.2-7.2-7.2c-4,0-7.2,3.2-7.2,7.2c0,3.8,3.2,7,7.2,7   C316.146,324.695,319.146,321.496,319.146,317.696z M319.146,335.896c0-3.8-3-7-7.2-7c-4,0-7.2,3.2-7.2,7c0,4.2,3.2,7.2,7.2,7.2   C316.146,343.095,319.146,340.095,319.146,335.896z M319.146,354.295c0-3.8-3-7-7.2-7c-4,0-7.2,3.2-7.2,7c0,4,3.2,7.2,7.2,7.2   C316.146,361.495,319.146,358.295,319.146,354.295z M319.146,372.695c0-4-3-7.2-7.2-7.2c-4,0-7.2,3.2-7.2,7.2c0,3.8,3.2,7,7.2,7   C316.146,379.695,319.146,376.495,319.146,372.695z"/>
</g>
</svg>