<svg xmlns="http://www.w3.org/2000/svg" xmlns:xlink="http://www.w3.org/1999/xlink" version="1.1" id="Layer_1" x="0px" y="0px" width="77.2727272727px" height="100px" viewBox="0 0 612 792" enable-background="new 0 0 612 792" xml:space="preserve">
<g>
	<path d="M357.746,274.896c0,4-3.4,7.2-7.2,7.2h-1l-21.6,109.998h-69.999l-21.4-109.998h-1.8c-4,0-7.2-3.2-7.2-7.2   c0-4,3.2-7.2,7.2-7.2h115.798C354.346,267.696,357.746,270.896,357.746,274.896z M255.147,282.096h-7.6l1.2,6.4L255.147,282.096z    M250.347,296.896l2.8,13.6l4.2,4.2l12.4-12.4l-12.4-12.2L250.347,296.896z M260.147,346.695l9.6-9.6l-12.4-12.2l-1.2,1.2   L260.147,346.695z M284.147,282.096h-18.8l-3,2.8l12.4,12.4l12.399-12.4L284.147,282.096z M274.747,332.095l12.399-12.4   l-12.399-12.2l-12.4,12.2L274.747,332.095z M262.347,354.695l12.4,12.2l12.399-12.2l-12.399-12.399L262.347,354.695z    M266.947,381.294h12l-14.8-14.8L266.947,381.294z M304.546,302.296l-12.4-12.2l-12.2,12.2l12.2,12.4L304.546,302.296z    M279.947,337.095l12.2,12.4l12.4-12.4l-12.4-12.2L279.947,337.095z M279.947,372.095l9.2,9.2h6l9.4-9.2l-12.4-12.4   L279.947,372.095z M318.946,282.096h-18.8l-2.8,2.8l12.2,12.4l12.399-12.4L318.946,282.096z M309.547,332.095l12.399-12.4   l-12.399-12.2l-12.2,12.2L309.547,332.095z M321.946,354.695l-12.399-12.399l-12.2,12.399l12.2,12.2L321.946,354.695z    M305.347,381.294h13.6l3.399-16.8L305.347,381.294z M335.346,298.296l-8.399-8.2l-12.2,12.2l12.2,12.4l6.399-6.2L335.346,298.296z    M329.546,327.496l-2.6-2.6l-12.2,12.2l10.8,11L329.546,327.496z M338.546,282.096h-9.399l7.799,7.6L338.546,282.096z"/>
</g>
</svg>