<?xml version="1.0" encoding="utf-8"?>
<!-- Generator: Adobe Illustrator 14.0.0, SVG Export Plug-In . SVG Version: 6.00 Build 43363)  -->
<!DOCTYPE svg PUBLIC "-//W3C//DTD SVG 1.0//EN" "http://www.w3.org/TR/2001/REC-SVG-20010904/DTD/svg10.dtd">
<svg version="1.0" id="Layer_1" xmlns="http://www.w3.org/2000/svg" xmlns:xlink="http://www.w3.org/1999/xlink" x="0px" y="0px"
	 width="36.276px" height="99.625px" viewBox="0 0 36.276 99.625" enable-background="new 0 0 36.276 99.625" xml:space="preserve">
<path d="M29.166,21.998l0.04-22.3l5.263-0.021c0,0,1.629,0.679,1.635,1.683c0.003,1.005-0.053,18.067-0.053,18.067
	s-0.112,1.484-1.582,1.695C33.765,21.222,29.166,21.998,29.166,21.998L29.166,21.998L29.166,21.998z"/>
<path d="M7.243,84.66c7.421,16.188,13.177,14.997,13.177,14.997l7.275-0.031l-0.021-22.303c0,0-13.176-0.449-14.66-3.958
	l0.063-47.018c1.455-3.523,14.32-4.078,14.32-4.078L27.321-0.032L19.975,0c0,0-5.461-0.991-13.047,15.138
	C-6.407,43.478,2.831,75.026,7.243,84.66L7.243,84.66L7.243,84.66z"/>
<path d="M29.37,77.615l0.02,22.008l5.306-0.023c0,0,1.584-0.688,1.581-1.695c-0.003-1.003-0.005-17.05-0.005-17.05
	s-0.219-2.178-1.69-2.372C33.875,78.392,29.37,77.615,29.37,77.615L29.37,77.615L29.37,77.615z"/>
</svg>
