<svg xmlns="http://www.w3.org/2000/svg" xmlns:xlink="http://www.w3.org/1999/xlink" version="1.1" id="Xbox_360_Controller" x="0px" y="0px" width="100px" height="100px" viewBox="0 0 100 100" enable-background="new 0 0 100 100" xml:space="preserve">
<path id="Shape" fill-rule="evenodd" clip-rule="evenodd" fill="#000000" d="M86.203,20.964c0,0,0.289-1.155,0.289-1.829  c-1.829-1.732-12.71-3.562-15.984-3.37c0,0-0.096,0.385-0.191,0.771c-2.793,0.481-4.021,1.948-9.726,4.525  c-2.984,1.348-18.197,1.348-21.181,0c-5.705-2.577-6.933-4.043-9.725-4.525c-0.096-0.386-0.193-0.771-0.193-0.771  c-3.273-0.193-14.153,1.638-15.983,3.37c0,0.674,0.289,1.829,0.289,1.829C-0.097,41.409-3.863,80.299,4.169,83.645  c11.023,4.592,21.856-18.485,32.833-18.485c4.263,0,21.733,0,25.996,0c10.977,0,21.811,23.077,32.832,18.485  C103.862,80.299,100.097,41.409,86.203,20.964z M49.47,40.318c-3.483,0-6.306-2.823-6.306-6.307c0-3.482,2.823-6.307,6.306-6.307  c3.484,0,6.307,2.825,6.307,6.307C55.777,37.495,52.954,40.318,49.47,40.318z"/>
</svg>