<svg xmlns="http://www.w3.org/2000/svg" xmlns:xlink="http://www.w3.org/1999/xlink" version="1.1" id="Grafitti_Removal" x="0px" y="0px" width="100px" height="100px" viewBox="-3.014 2.571 100 100" enable-background="new -3.014 2.571 100 100" xml:space="preserve">
<path id="Piece_2_" d="M74.602,6.401c0.674-2.22-1.54-4.311-3.714-3.713c-0.07,0.019-0.135,0.048-0.203,0.068v9.985  C72.369,10.812,73.885,8.754,74.602,6.401z"/>
<path id="Piece_1_" d="M25.693,29.422c-1.691,1.946-3.346,3.922-5.001,5.898c1.22-1.756,2.448-3.505,3.638-5.264  c1.799-2.659,3.457-5.405,5.106-8.154V8.248c-1.66,1.504-3.344,2.981-5.017,4.446c-2.646,2.316-5.357,4.565-8.172,6.673  c-1.099,0.823-2.236,1.589-3.393,2.327c-1.457,0.931-2.633,0.701-1.614,1.42c-3.188-2.251-6.199,2.986-3.047,5.212  c3.963,2.798,10.403-2.961,13.729-5.73c-0.574,0.934-1.151,1.868-1.739,2.794c-5.564,8.776-12.162,16.739-15.59,26.69  c-0.601,1.746,1.013,4.004,2.911,3.821c3.106-0.299,5.148-2.453,7.199-4.646c3.694-3.95,7.229-8.022,10.704-12.167  c-1.138,3.168-1.448,6.433,0.015,9.484c0.454,0.945,1.608,1.482,2.606,1.495c0.472,0.006,0.941-0.022,1.408-0.067V25.256  C28.181,26.638,26.918,28.011,25.693,29.422z"/>
<path id="Piece" d="M85.058,38.004c-3.32,2.14-14.621,9.134-11.81,0.098c2.282-7.342,8.408-15.585,13.253-21.314  c2.179-2.577-0.767-6.175-3.247-5.056c1.214-2.521-1.705-5.497-4.232-3.91c-3.151,1.979-5.836,4.539-8.337,7.306v33.034  c5.011,2.355,12.854-2.002,17.42-4.944C91.365,41.116,88.341,35.889,85.058,38.004z"/>
<path id="Roll" d="M69.38,54.336H30.656c-2.01,0-3.646,1.876-3.646,4.182v2.108c-1.647,0-3.734,0-5.065,0  c-0.892,0-1.637,0.747-1.637,1.64c0,3.916,0,7.833,0,11.751c0,0.893,0.745,1.637,1.637,1.637c8.409,0,18.03,0,26.438,0  c0,2.251,0,4.506,0,6.756h-1.721v16.789c0,1.855,1.504,3.359,3.358,3.359c1.855,0,3.357-1.503,3.357-3.359V82.411h-1.72  c0-2.799,0-5.595,0-8.394c0-0.892-0.747-1.638-1.638-1.638c-8.409,0-18.029,0-26.437,0c0-2.825,0-5.65,0-8.477  c0.703,0,2.31,0,3.427,0v2.064c0,2.307,1.636,4.182,3.646,4.182H69.38c2.011,0,3.646-1.875,3.646-4.182v-7.45  C73.026,56.212,71.39,54.336,69.38,54.336z M70.6,65.968c0,0.952-0.559,1.756-1.221,1.756H30.656c-0.661,0-1.22-0.804-1.22-1.756  v-7.45c0-0.952,0.559-1.756,1.22-1.756H69.38c0.662,0,1.221,0.804,1.221,1.756V65.968z"/>
</svg>