<svg xmlns="http://www.w3.org/2000/svg" xmlns:xlink="http://www.w3.org/1999/xlink" version="1.1" id="Layer_1" x="0px" y="0px" width="100.0px" height="100px" viewBox="0 0 102 102" enable-background="new 0 0 102 102" xml:space="preserve">
<g>
	<path d="M36.583,62.57C40.066,66.902,45.365,69.5,51,69.5c5.621,0,10.911-2.587,14.394-6.903C60.721,62.864,55.894,63,51,63   C46.425,63,41.406,62.849,36.583,62.57z"/>
	<path d="M32.5,51c0,1.807,0.274,3.612,0.817,5.378C38.875,56.791,44.819,57,51,57c6.067,0,12.012-0.213,17.687-0.632   C69.227,54.605,69.5,52.804,69.5,51c0-2.116-0.377-4.231-1.12-6.287c-0.367-1.013-0.806-1.971-1.306-2.847   C63.782,36.089,57.624,32.5,51,32.5c-6.611,0-12.764,3.579-16.059,9.34c-0.509,0.891-0.955,1.86-1.324,2.881   C32.876,46.773,32.5,48.886,32.5,51z"/>
	<path d="M101,51c0-5.727-15.548-8.547-30.872-9.747c-0.584-0.046-1.168-0.09-1.751-0.131c0.558,0.978,1.025,2.008,1.413,3.08   c0.546,0.043,1.083,0.088,1.613,0.135C88.744,45.859,98,49.1,98,51c0,0.536-1.767,2.326-9.128,4.078l0.876-4.268l-8.33,5.68   c-3.071,0.464-6.444,0.849-10.011,1.158c-0.538,0.047-1.067,0.097-1.614,0.14C63.903,58.251,57.517,58.5,51,58.5   c-7.013,0-13.281-0.266-18.79-0.702c-0.546-0.043-1.083-0.089-1.614-0.135C13.257,56.141,4,52.9,4,51   c0-0.536,1.767-2.326,9.127-4.077l-0.876,4.267l8.329-5.679c3.072-0.464,6.445-0.85,10.012-1.159   c0.538-0.047,1.068-0.097,1.615-0.14c0.392-1.085,0.867-2.128,1.432-3.116c-0.594,0.042-1.17,0.092-1.756,0.139   c-3.983,0.315-7.757,0.722-11.182,1.224L10.053,40.3l2.517,3.671C4.8,45.794,1,48.101,1,51c0,5.721,15.512,8.54,30.82,9.742   c0.602,0.047,1.203,0.093,1.803,0.135C39.923,61.322,46.084,61.5,51,61.5c0,0,0,0,0,0c5.979,0,11.859-0.206,17.36-0.596   c0.612-0.043,1.206-0.095,1.809-0.143c3.965-0.314,7.721-0.721,11.131-1.219l10.647,2.158l-2.517-3.671   C97.2,56.205,101,53.898,101,51z"/>
</g>
</svg>