<svg xmlns="http://www.w3.org/2000/svg" xmlns:xlink="http://www.w3.org/1999/xlink" version="1.1" id="Layer_1" x="0px" y="0px" width="100px" height="100px" viewBox="0 0 100 100" enable-background="new 0 0 100 100" xml:space="preserve">
<path d="M8.74,70.191c-0.507,0-0.991-0.049-1.461-0.121c0.887,2.762,2.218,4.766,4.844,5.216  c3.637,0.623,13.893-10.069,21.129-18.174c-7.57,5.954-17.408,13.079-24.511,13.079C8.74,70.191,8.741,70.191,8.74,70.191z"/>
<path d="M66.746,57.109c7.235,8.107,17.495,18.8,21.132,18.177c2.626-0.45,3.957-2.454,4.844-5.216  c-0.47,0.072-0.954,0.121-1.459,0.121C84.156,70.191,74.316,63.064,66.746,57.109z"/>
<path d="M36.254,34.06c-9.121-3.234-25.575-8.461-29.812-9.299c-0.249-0.049-0.495-0.074-0.734-0.074  c-1.905,0-3.256,1.501-3.893,2.396c-1.64,2.307-2.262,5.618-1.479,7.872c1.521,4.373,3.442,11.216,2.588,20.109  c-0.041,0.427-0.235,0.991-0.504,1.771c-0.729,2.11-1.948,5.642-0.509,8.225c0.813,1.458,2.454,2.483,4.832,3.082  c0.118,0.029,0.213,0.071,0.334,0.099c0.514,0.115,1.073,0.174,1.663,0.174c0.001,0,0.001,0,0.001,0  c7.54,0,19.026-9.178,26.626-15.252c0.331-0.264,0.611-0.486,0.923-0.735C35.786,50.195,35.778,36.723,36.254,34.06z"/>
<path d="M98.184,27.082c-0.636-0.895-1.987-2.395-3.89-2.395c-0.24,0-0.484,0.024-0.734,0.074  c-4.238,0.837-20.693,6.065-29.814,9.299c0.478,2.663,0.468,16.136-0.034,18.369c0.311,0.248,0.592,0.469,0.922,0.733  c7.601,6.074,19.087,15.252,26.629,15.252c0.588,0,1.146-0.059,1.66-0.174c0.122-0.027,0.218-0.069,0.334-0.099  c2.379-0.599,4.02-1.624,4.834-3.084c1.438-2.583,0.219-6.115-0.511-8.226c-0.269-0.779-0.463-1.342-0.505-1.769  c-0.853-8.896,1.069-15.737,2.588-20.109C100.447,32.699,99.824,29.387,98.184,27.082z"/>
<path d="M62.055,34.666c-0.022-0.175-0.047-0.318-0.072-0.41c-0.446-1.026-6.538-2.811-11.982-2.811  c-5.446,0-11.537,1.784-11.985,2.82c-0.025,0.088-0.049,0.231-0.071,0.4c-0.327,2.483-0.338,13.06-0.038,16.481  c0.036,0.406,0.075,0.739,0.119,0.917c0.406,1.149,7.873,3.523,11.975,3.523c4.101,0,11.567-2.375,11.976-3.528  c0.043-0.177,0.083-0.508,0.117-0.912C62.392,47.738,62.381,37.175,62.055,34.666z"/>
</svg>