<svg xmlns="http://www.w3.org/2000/svg" xmlns:xlink="http://www.w3.org/1999/xlink" version="1.1" id="Layer_1" x="0px" y="0px" width="100px" height="100px" viewBox="0 0 100 100" enable-background="new 0 0 100 100" xml:space="preserve">
<g>
	<path d="M29.399,78.332l-0.002-29.049h2.812V21.005h8.399l-0.001,43.774c-3.864,1.011-6.857,4.178-7.616,8.138h-0.782v6.956   l-2.566,0.005L6.09,79.749c-2.75-0.03-4.924-0.309-4.922-0.646c-0.002-0.339,2.172-0.613,4.922-0.644L29.399,78.332L29.399,78.332z    M97.896,54.551v14.085h-8.891L88.66,68.63c-4.629,0-8.377,3.751-8.377,8.377c0,1.05,0.191,2.054,0.543,2.979H68.082h-6.551h-9.137   c0.842-1.505,1.32-3.24,1.32-5.088c0-5.775-4.681-10.456-10.456-10.456c-0.688,0-1.359,0.066-2.01,0.193l5.855-16.98l7.868-23.46   c1.004-2.755,3.994-5.009,6.877-5.009l22.766-0.002c2.262,0,4.094,1.834,4.094,4.096v3.494v24.365l5.094-0.378   C96.064,50.591,97.896,52.287,97.896,54.551L97.896,54.551z M52.459,40.267l3.182,2.966c0.17-0.563,0.6-1.058,1.352-1.299   l13.273-4.241c0.154-0.049,0.301-0.081,0.443-0.099c0.145-0.024,0.295-0.036,0.445-0.036h1.047c1.508,0,2.73,1.222,2.73,2.729   v11.876l11.047-0.82V26.773v-3.494c0-0.755-0.609-1.365-1.363-1.365L61.85,21.915c-1.643,0-3.662,1.43-4.307,3.198L52.459,40.267   L52.459,40.267z M53.631,44.279l2.725,2.542l-9.479,10.165l-0.592,1.696c3.066,2.321,8.579,3.887,14.897,3.943V57.28   c0-2.263,1.834-4.231,4.094-4.399l3.15-0.234V42.582l-10.045,3.206l2.627,2.45c0.377,0.352,0.48,0.855,0.227,1.127   c-0.252,0.27-0.762,0.204-1.139-0.149l-8.104-7.556l-2.289,6.83L53.631,44.279L53.631,44.279z M66.643,31.921   c0-2.558,2.074-4.63,4.631-4.63c2.555,0,4.629,2.072,4.629,4.63c0,2.557-2.074,4.63-4.629,4.63   C68.717,36.551,66.643,34.478,66.643,31.921L66.643,31.921z M38.774,74.897c0,2.477,2.008,4.485,4.485,4.485   c2.477,0,4.485-2.009,4.485-4.485c0-2.478-2.009-4.485-4.485-4.485C40.782,70.412,38.774,72.42,38.774,74.897L38.774,74.897z    M34.146,74.897c0-5.035,4.078-9.114,9.113-9.114c5.033,0,9.114,4.079,9.114,9.114c0,5.034-4.081,9.113-9.114,9.113   C38.224,84.011,34.146,79.932,34.146,74.897L34.146,74.897z M85.195,77.007c0,1.911,1.551,3.463,3.465,3.463   c1.908,0,3.459-1.552,3.459-3.463c0-1.912-1.551-3.463-3.459-3.463C86.746,73.544,85.195,75.095,85.195,77.007L85.195,77.007z    M81.621,77.007c0-3.887,3.15-7.035,7.039-7.035c3.881,0,7.031,3.148,7.031,7.035c0,3.884-3.15,7.034-7.031,7.034   C84.771,84.041,81.621,80.891,81.621,77.007L81.621,77.007z"/>
</g>
</svg>