<svg xmlns="http://www.w3.org/2000/svg" xmlns:xlink="http://www.w3.org/1999/xlink" version="1.1" id="Layer_1" x="0px" y="0px" width="100px" height="100px" viewBox="0 0 100 100" enable-background="new 0 0 100 100" xml:space="preserve">
<g>
	<path d="M66.633,14.192c0.004-0.093,0.043-0.163,0.043-0.252V5.233c0-2.077-2.215-3.758-4.252-3.758   c-2.047,0-4.428,1.681-4.428,3.758v8.352H36.894c-6.366,0-11.531,5.161-11.531,11.525V87c0,6.363,5.165,11.525,11.531,11.525   h26.214c6.363,0,11.529-5.162,11.529-11.525V25.11C74.637,19.977,71.264,15.686,66.633,14.192z M39.806,83h-4.25   c-1.249,0-2.26-1.013-2.26-2.264c0-1.256,1.011-2.271,2.26-2.271h4.25c1.253,0,2.269,1.015,2.269,2.271   C42.075,81.987,41.059,83,39.806,83z M35.556,69.467h4.25c1.253,0,2.269,1.013,2.269,2.265c0,1.25-1.016,2.26-2.269,2.26h-4.25   c-1.249,0-2.26-1.01-2.26-2.26C33.296,70.48,34.308,69.467,35.556,69.467z M33.296,62.851c0-1.255,1.011-2.264,2.26-2.264h4.25   c1.253,0,2.269,1.009,2.269,2.264c0,1.246-1.016,2.26-2.269,2.26h-4.25C34.308,65.111,33.296,64.097,33.296,62.851z M57.584,92.079   H43.786c-0.946,0-1.71-0.763-1.71-1.706c0-0.949,0.764-1.711,1.71-1.711h13.799c0.945,0,1.713,0.762,1.713,1.711   C59.297,91.316,58.53,92.079,57.584,92.079z M48.16,69.467h4.247c1.252,0,2.266,1.013,2.266,2.265c0,1.25-1.014,2.26-2.266,2.26   H48.16c-1.255,0-2.27-1.01-2.27-2.26C45.89,70.48,46.904,69.467,48.16,69.467z M45.89,62.851c0-1.255,1.015-2.264,2.27-2.264h4.247   c1.252,0,2.266,1.009,2.266,2.264c0,1.246-1.014,2.26-2.266,2.26H48.16C46.904,65.111,45.89,64.097,45.89,62.851z M48.16,78.465   h4.247c1.252,0,2.266,1.015,2.266,2.271c0,1.251-1.014,2.264-2.266,2.264H48.16c-1.255,0-2.27-1.013-2.27-2.264   C45.89,79.48,46.904,78.465,48.16,78.465z M65.11,83h-4.248c-1.252,0-2.262-1.013-2.262-2.264c0-1.256,1.01-2.271,2.262-2.271   h4.248c1.262,0,2.27,1.015,2.27,2.271C67.379,81.987,66.372,83,65.11,83z M65.11,73.992h-4.248c-1.252,0-2.262-1.01-2.262-2.26   c0-1.252,1.01-2.265,2.262-2.265h4.248c1.262,0,2.27,1.013,2.27,2.265C67.379,72.982,66.372,73.992,65.11,73.992z M65.11,65.111   h-4.248c-1.252,0-2.262-1.014-2.262-2.26c0-1.255,1.01-2.264,2.262-2.264h4.248c1.262,0,2.27,1.009,2.27,2.264   C67.379,64.097,66.372,65.111,65.11,65.111z M68.684,48.977c0,3.283-2.654,5.943-5.943,5.943H37.826   c-3.281,0-5.948-2.66-5.948-5.943V25.229c0-3.288,2.667-5.949,5.948-5.949h24.915c3.289,0,5.943,2.661,5.943,5.949V48.977z"/>
</g>
</svg>