<svg xmlns="http://www.w3.org/2000/svg" xmlns:xlink="http://www.w3.org/1999/xlink" version="1.1" id="Layer_1" x="0px" y="0px" width="100px" height="100px" viewBox="0 0 100 100" enable-background="new 0 0 100 100" xml:space="preserve">
<path d="M91.809,99.866l-26.22-6.759c0,0-22.675-38.909-25.981-44.642c-3.308-5.734-6.379-17.816-5.67-19.865  c0.708-2.047,6.614-23.754,6.614-23.754s-1.843,4.342,5.196,17.612C53.076,36.272,91.809,99.866,91.809,99.866z"/>
<polygon points="38.792,50.382 49.022,67.447 34.646,90.855 8.191,97.816 "/>
<path d="M51.345,29.423l10.694,17.601c0,0,7.2-12.058,6.148-18.423c-1.037-6.297-7.557-23.14-7.557-23.14s1.651,3.071-1.892,10.648  S51.345,29.423,51.345,29.423z"/>
<path d="M42.644,11.411c0,0-0.704-1.787-0.865-2.543c-0.229-1.054-0.396-3.88,0.03-4.784c0.669-1.426,1.443-4.035,8.774-3.948  c7.718,0.09,9.091,4.516,9.091,4.516c0.334,1.627,0.334,3.239-0.183,5.407c-0.582,2.423-1.528,4.228-1.528,4.228  s-3.041-2.861-7.815-3.239C45.372,10.673,42.644,11.411,42.644,11.411z"/>
</svg>