<svg xmlns="http://www.w3.org/2000/svg" xmlns:xlink="http://www.w3.org/1999/xlink" xml:space="preserve" width="96px" height="76px" style="shape-rendering:geometricPrecision; text-rendering:geometricPrecision; image-rendering:optimizeQuality; fill-rule:evenodd; clip-rule:evenodd" viewBox="0 0 6.59362 5.24975">
 <defs>
  <style type="text/css">
   
    .fil0 {fill:#1F1A17}
    .fil1 {fill:white}
   
  </style>
 </defs>
 <g id="Layer_x0020_1">
  <metadata id="CorelCorpID_0Corel-Layer"/>
  <path class="fil0" d="M2.45595 1.03022l0.596364 -0.952086c0.603186,-0.10493 1.2365,-0.104199 1.90003,0.00219281l0.588648 0.930646c0.599937,-0.00869003 1.02624,0.205231 1.05263,0.619185l0 3.41145 -5.18251 0c-0.488429,0.254691 -0.948919,0.296679 -1.40705,0.00804031l-0.00406076 -3.51963c0.180379,-0.330302 0.481444,-0.49452 0.903357,-0.492733l1.55259 -0.00706573z"/>
  <rect class="fil0" x="1.16964" y="0.673757" width="1.19983" height="0.294299" rx="0.296517" ry="0.296517"/>
  <circle class="fil1" cx="4.01877" cy="3.13193" r="1.66283"/>
  <circle class="fil0" cx="4.01877" cy="3.13193" r="1.57611"/>
  <circle class="fil1" cx="4.01877" cy="3.13193" r="1.45499"/>
  <circle class="fil0" cx="4.01877" cy="3.13193" r="1.33026"/>
  <circle class="fil1" cx="4.01877" cy="3.13193" r="1.24712"/>
  <path class="fil1" d="M5.74411 2.88883l0.389265 0.0556324c0.0571755,0.124016 0.0585562,0.297898 -0.00235524,0.426136l-0.394138 0.088281c0.0428004,-0.130594 0.0458866,-0.453993 0.00722816,-0.57005z"/>
  <ellipse class="fil1" cx="0.802885" cy="1.59575" rx="0.260561" ry="0.192586"/>
  <rect class="fil1" x="1.41113" y="1.89463" width="0.0970797" height="2.89558" rx="0.138391" ry="0.138391"/>
  <rect class="fil1" x="3.11555" y="0.963056" width="1.81266" height="0.102741" rx="0.530498" ry="0.530498"/>
 </g>
</svg>