<svg xmlns="http://www.w3.org/2000/svg" xmlns:xlink="http://www.w3.org/1999/xlink" version="1.1" id="Layer_1" x="0px" y="0px" width="100px" height="100px" viewBox="0 0 100 100" enable-background="new 0 0 100 100" xml:space="preserve">
<g>
	<path d="M79.754,31.431H67.555V14.087c0-0.374-0.305-0.677-0.678-0.677H13.982v-12.2h52.895c7.11,0,12.877,5.766,12.877,12.877   V31.431L79.754,31.431z M87.399,70.969c2.429,0,4.398,1.82,4.398,4.066c0,2.247-1.97,4.067-4.398,4.067H62.059   c-0.348,0.034-0.621,0.329-0.621,0.688c0,0.361,0.275,0.655,0.639,0.688h22.249c2.431,0,4.398,1.821,4.398,4.066   c0,2.247-1.968,4.067-4.398,4.067H60.561c-0.383,0-0.693,0.311-0.693,0.693c0,0.381,0.311,0.69,0.707,0.69h18.848   c2.43,0,4.398,1.82,4.398,4.067s-1.969,4.067-4.398,4.067H24.9c-0.999,0-1.92-0.308-2.659-0.827l-0.189-0.143   c-4.774-3.602-7.966-10.031-7.966-17.348c0-7.186,3.079-13.546,7.711-17.179c0.227-0.208,13.527-9.475,13.527-9.475   c0.944-0.764,1.743-1.21,3.125-1.231h18.024c2.431,0,4.399,1.82,4.399,4.066s-1.969,4.068-4.399,4.068h-8.957   c-0.277-0.005-0.554,0.156-0.619,0.521c-1.199,6.75-4.382,12.33-7.775,14.573c-0.699,0.462-0.006,1.511,0.693,1.05   c3.676-2.432,6.884-8.107,8.198-14.76h36.509c2.429,0,4.398,1.822,4.398,4.068s-1.97,4.068-4.398,4.068H63.699   c-0.383,0-0.691,0.309-0.691,0.691s0.309,0.691,0.705,0.691H87.399L87.399,70.969z M69.045,48.814   c-0.191,0-0.375-0.036-0.551-0.108c-0.174-0.073-0.331-0.177-0.469-0.315c-0.139-0.141-0.243-0.298-0.314-0.472   c-0.072-0.174-0.109-0.357-0.109-0.552c0-0.193,0.037-0.377,0.111-0.553c0.07-0.174,0.176-0.33,0.312-0.466   c0.138-0.138,0.295-0.243,0.469-0.315c0.176-0.072,0.359-0.109,0.551-0.109c0.195,0,0.379,0.037,0.556,0.109   c0.172,0.072,0.328,0.177,0.468,0.315c0.136,0.136,0.242,0.292,0.316,0.466c0.069,0.176,0.106,0.362,0.106,0.558   c0,0.193-0.037,0.377-0.106,0.552c-0.074,0.176-0.181,0.332-0.316,0.468c-0.14,0.139-0.296,0.243-0.468,0.315   C69.424,48.778,69.24,48.814,69.045,48.814L69.045,48.814z M69.045,44.413c-0.191,0-0.375-0.036-0.551-0.108   c-0.174-0.072-0.331-0.178-0.469-0.315c-0.139-0.141-0.243-0.298-0.314-0.473c-0.072-0.173-0.109-0.356-0.109-0.551   c0-0.193,0.037-0.377,0.111-0.554c0.07-0.174,0.176-0.33,0.312-0.466c0.138-0.138,0.295-0.243,0.469-0.315   c0.176-0.072,0.359-0.109,0.551-0.109c0.195,0,0.379,0.037,0.556,0.109c0.172,0.072,0.328,0.177,0.468,0.315   c0.136,0.137,0.242,0.292,0.316,0.466c0.069,0.177,0.106,0.362,0.106,0.558c0,0.192-0.037,0.376-0.106,0.551   c-0.074,0.176-0.181,0.333-0.316,0.469c-0.14,0.138-0.296,0.243-0.468,0.315C69.424,44.377,69.24,44.413,69.045,44.413   L69.045,44.413z M69.045,40.012c-0.191,0-0.375-0.037-0.551-0.108c-0.174-0.072-0.331-0.178-0.469-0.315   c-0.139-0.141-0.243-0.298-0.314-0.473c-0.072-0.174-0.109-0.357-0.109-0.551c0-0.193,0.037-0.377,0.111-0.554   c0.07-0.175,0.176-0.331,0.312-0.466c0.138-0.139,0.295-0.244,0.469-0.316c0.176-0.072,0.359-0.108,0.551-0.108   c0.195,0,0.379,0.037,0.556,0.108c0.172,0.072,0.328,0.177,0.468,0.316c0.136,0.136,0.242,0.292,0.316,0.466   c0.069,0.176,0.106,0.362,0.106,0.557c0,0.193-0.037,0.377-0.106,0.552c-0.074,0.176-0.181,0.333-0.316,0.469   c-0.14,0.137-0.296,0.243-0.468,0.315C69.424,39.975,69.24,40.012,69.045,40.012L69.045,40.012z M69.045,35.61   c-0.191,0-0.375-0.036-0.551-0.108c-0.174-0.072-0.331-0.177-0.469-0.315c-0.139-0.141-0.243-0.298-0.314-0.473   c-0.072-0.174-0.109-0.357-0.109-0.552c0-0.193,0.037-0.378,0.111-0.553c0.07-0.175,0.176-0.33,0.312-0.467   c0.138-0.138,0.295-0.243,0.469-0.315c0.176-0.073,0.359-0.109,0.551-0.109c0.195,0,0.379,0.036,0.556,0.109   c0.172,0.072,0.328,0.177,0.468,0.315c0.136,0.137,0.242,0.292,0.316,0.467c0.069,0.175,0.106,0.361,0.106,0.558   c0,0.193-0.037,0.376-0.106,0.552c-0.074,0.175-0.181,0.331-0.316,0.468c-0.14,0.138-0.296,0.243-0.468,0.315   C69.424,35.574,69.24,35.61,69.045,35.61L69.045,35.61z M78.25,48.814c-0.193,0-0.377-0.036-0.551-0.108   c-0.176-0.073-0.332-0.177-0.471-0.315c-0.137-0.141-0.242-0.298-0.314-0.472c-0.07-0.174-0.109-0.357-0.109-0.552   c0-0.193,0.039-0.377,0.111-0.553c0.072-0.174,0.178-0.33,0.312-0.466c0.139-0.138,0.295-0.243,0.471-0.315   c0.174-0.072,0.357-0.109,0.551-0.109c0.194,0,0.379,0.037,0.553,0.109c0.175,0.072,0.332,0.177,0.469,0.315   c0.137,0.136,0.242,0.292,0.316,0.466c0.072,0.176,0.107,0.362,0.107,0.558c0,0.193-0.035,0.377-0.107,0.552   c-0.074,0.176-0.18,0.332-0.316,0.468c-0.137,0.139-0.294,0.243-0.469,0.315C78.629,48.778,78.444,48.814,78.25,48.814   L78.25,48.814z M78.25,44.413c-0.193,0-0.377-0.036-0.551-0.108c-0.176-0.072-0.332-0.178-0.471-0.315   c-0.137-0.141-0.242-0.298-0.314-0.473c-0.07-0.173-0.109-0.356-0.109-0.551c0-0.193,0.039-0.377,0.111-0.554   c0.072-0.174,0.178-0.33,0.312-0.466c0.139-0.138,0.295-0.243,0.471-0.315c0.174-0.072,0.357-0.109,0.551-0.109   c0.194,0,0.379,0.037,0.553,0.109c0.175,0.072,0.332,0.177,0.469,0.315c0.137,0.137,0.242,0.292,0.316,0.466   c0.072,0.177,0.107,0.362,0.107,0.558c0,0.192-0.035,0.376-0.107,0.551c-0.074,0.176-0.18,0.333-0.316,0.469   c-0.137,0.138-0.294,0.243-0.469,0.315C78.629,44.377,78.444,44.413,78.25,44.413L78.25,44.413z M78.25,40.012   c-0.193,0-0.377-0.037-0.551-0.108c-0.176-0.072-0.332-0.178-0.471-0.315c-0.137-0.141-0.242-0.298-0.314-0.473   c-0.07-0.174-0.109-0.357-0.109-0.551c0-0.193,0.039-0.377,0.111-0.554c0.072-0.175,0.178-0.331,0.312-0.466   c0.139-0.139,0.295-0.244,0.471-0.316c0.174-0.072,0.357-0.108,0.551-0.108c0.194,0,0.379,0.037,0.553,0.108   c0.175,0.072,0.332,0.177,0.469,0.316c0.137,0.136,0.242,0.292,0.316,0.466c0.072,0.176,0.107,0.362,0.107,0.557   c0,0.193-0.035,0.377-0.107,0.552c-0.074,0.176-0.18,0.333-0.316,0.469c-0.137,0.137-0.294,0.243-0.469,0.315   C78.629,39.975,78.444,40.012,78.25,40.012L78.25,40.012z M78.25,35.61c-0.193,0-0.377-0.036-0.551-0.108   c-0.176-0.072-0.332-0.177-0.471-0.315c-0.137-0.141-0.242-0.298-0.314-0.473c-0.07-0.174-0.109-0.357-0.109-0.552   c0-0.193,0.039-0.378,0.111-0.553s0.178-0.33,0.312-0.467c0.139-0.138,0.295-0.243,0.471-0.315   c0.174-0.073,0.357-0.109,0.551-0.109c0.194,0,0.379,0.036,0.553,0.109c0.175,0.072,0.332,0.177,0.469,0.315   c0.137,0.137,0.242,0.292,0.316,0.467c0.072,0.175,0.107,0.361,0.107,0.558c0,0.193-0.035,0.376-0.107,0.552   c-0.074,0.175-0.18,0.331-0.316,0.468c-0.137,0.138-0.294,0.243-0.469,0.315C78.629,35.574,78.444,35.61,78.25,35.61L78.25,35.61z    M73.676,53.215c-0.193,0-0.377-0.037-0.552-0.107c-0.174-0.072-0.331-0.178-0.469-0.316s-0.242-0.298-0.313-0.473   c-0.073-0.174-0.109-0.357-0.109-0.552c0-0.192,0.036-0.376,0.111-0.554c0.071-0.174,0.176-0.33,0.312-0.466   c0.138-0.138,0.295-0.242,0.469-0.315c0.175-0.072,0.358-0.108,0.552-0.108s0.379,0.036,0.554,0.108   c0.173,0.073,0.329,0.177,0.469,0.315c0.136,0.137,0.242,0.292,0.315,0.466c0.071,0.178,0.109,0.363,0.109,0.559   c0,0.192-0.038,0.376-0.109,0.551c-0.073,0.177-0.18,0.332-0.315,0.469c-0.14,0.139-0.296,0.244-0.469,0.316   C74.055,53.178,73.869,53.215,73.676,53.215L73.676,53.215z M73.676,48.814c-0.193,0-0.377-0.036-0.552-0.108   c-0.174-0.073-0.331-0.177-0.469-0.315c-0.138-0.141-0.242-0.298-0.313-0.472c-0.073-0.174-0.109-0.357-0.109-0.552   c0-0.193,0.036-0.377,0.111-0.553c0.071-0.174,0.176-0.33,0.312-0.466c0.138-0.138,0.295-0.243,0.469-0.315   c0.175-0.072,0.358-0.109,0.552-0.109s0.379,0.037,0.554,0.109c0.173,0.072,0.329,0.177,0.469,0.315   c0.136,0.136,0.242,0.292,0.315,0.466c0.071,0.176,0.109,0.362,0.109,0.558c0,0.193-0.038,0.377-0.109,0.552   c-0.073,0.176-0.18,0.332-0.315,0.468c-0.14,0.139-0.296,0.243-0.469,0.315C74.055,48.778,73.869,48.814,73.676,48.814   L73.676,48.814z M73.676,44.413c-0.193,0-0.377-0.036-0.552-0.108c-0.174-0.072-0.331-0.178-0.469-0.315   c-0.138-0.141-0.242-0.298-0.313-0.473c-0.073-0.173-0.109-0.356-0.109-0.551c0-0.193,0.036-0.377,0.111-0.554   c0.071-0.174,0.176-0.33,0.312-0.466c0.138-0.138,0.295-0.243,0.469-0.315c0.175-0.072,0.358-0.109,0.552-0.109   s0.379,0.037,0.554,0.109c0.173,0.072,0.329,0.177,0.469,0.315c0.136,0.137,0.242,0.292,0.315,0.466   c0.071,0.177,0.109,0.362,0.109,0.558c0,0.192-0.038,0.376-0.109,0.551c-0.073,0.176-0.18,0.333-0.315,0.469   c-0.14,0.138-0.296,0.243-0.469,0.315C74.055,44.377,73.869,44.413,73.676,44.413L73.676,44.413z M73.676,40.012   c-0.193,0-0.377-0.037-0.552-0.108c-0.174-0.072-0.331-0.178-0.469-0.315c-0.138-0.141-0.242-0.298-0.313-0.473   c-0.073-0.174-0.109-0.357-0.109-0.551c0-0.193,0.036-0.377,0.111-0.554c0.071-0.175,0.176-0.331,0.312-0.466   c0.138-0.139,0.295-0.244,0.469-0.316c0.175-0.072,0.358-0.108,0.552-0.108s0.379,0.037,0.554,0.108   c0.173,0.072,0.329,0.177,0.469,0.316c0.136,0.136,0.242,0.292,0.315,0.466c0.071,0.176,0.109,0.362,0.109,0.557   c0,0.193-0.038,0.377-0.109,0.552c-0.073,0.176-0.18,0.333-0.315,0.469c-0.14,0.137-0.296,0.243-0.469,0.315   C74.055,39.975,73.869,40.012,73.676,40.012L73.676,40.012z M73.676,35.61c-0.193,0-0.377-0.036-0.552-0.108   c-0.174-0.072-0.331-0.177-0.469-0.315c-0.138-0.141-0.242-0.298-0.313-0.473c-0.073-0.174-0.109-0.357-0.109-0.552   c0-0.193,0.036-0.378,0.111-0.553c0.071-0.175,0.176-0.33,0.312-0.467c0.138-0.138,0.295-0.243,0.469-0.315   c0.175-0.073,0.358-0.109,0.552-0.109s0.379,0.036,0.554,0.109c0.173,0.072,0.329,0.177,0.469,0.315   c0.136,0.137,0.242,0.292,0.315,0.467c0.071,0.175,0.109,0.361,0.109,0.558c0,0.193-0.038,0.376-0.109,0.552   c-0.073,0.175-0.18,0.331-0.315,0.468c-0.14,0.138-0.296,0.243-0.469,0.315C74.055,35.574,73.869,35.61,73.676,35.61L73.676,35.61z    M69.045,57.617c-0.191,0-0.375-0.037-0.551-0.108c-0.174-0.073-0.331-0.179-0.469-0.317c-0.139-0.139-0.243-0.296-0.314-0.473   c-0.072-0.172-0.109-0.356-0.109-0.549c0-0.195,0.037-0.381,0.111-0.555c0.07-0.176,0.176-0.332,0.312-0.469   c0.138-0.137,0.295-0.24,0.469-0.314c0.176-0.072,0.359-0.107,0.551-0.107c0.195,0,0.379,0.035,0.556,0.107   c0.172,0.074,0.328,0.178,0.468,0.314c0.136,0.137,0.242,0.293,0.316,0.469c0.069,0.174,0.106,0.361,0.106,0.559   c0,0.192-0.037,0.375-0.106,0.551c-0.074,0.175-0.181,0.332-0.316,0.467c-0.14,0.139-0.296,0.244-0.468,0.317   C69.424,57.58,69.24,57.617,69.045,57.617L69.045,57.617z M69.045,53.215c-0.191,0-0.375-0.037-0.551-0.107   c-0.174-0.072-0.331-0.178-0.469-0.316c-0.139-0.139-0.243-0.298-0.314-0.473c-0.072-0.174-0.109-0.357-0.109-0.552   c0-0.192,0.037-0.376,0.111-0.554c0.07-0.174,0.176-0.33,0.312-0.466c0.138-0.138,0.295-0.242,0.469-0.315   c0.176-0.072,0.359-0.108,0.551-0.108c0.195,0,0.379,0.036,0.556,0.108c0.172,0.073,0.328,0.177,0.468,0.315   c0.136,0.137,0.242,0.292,0.316,0.466c0.069,0.178,0.106,0.363,0.106,0.559c0,0.192-0.037,0.376-0.106,0.551   c-0.074,0.177-0.181,0.332-0.316,0.469c-0.14,0.139-0.296,0.244-0.468,0.316C69.424,53.178,69.24,53.215,69.045,53.215   L69.045,53.215z"/>
</g>
</svg>