<svg xmlns="http://www.w3.org/2000/svg" xmlns:xlink="http://www.w3.org/1999/xlink" version="1.1" id="Layer_1" x="0px" y="0px" width="100px" height="50px" viewBox="0 0 100 50" enable-background="new 0 0 100 50" xml:space="preserve">
<circle cx="27.952" cy="15.972" r="7.639"/>
<path d="M90.277,20.833L84.723,4.167V0H2.777v36.109H0v6.25h17.535c0-5.752,4.663-10.416,10.417-10.416  c5.753,0,10.417,4.664,10.417,10.416h32.464c0-5.752,4.663-10.416,10.417-10.416c4.047,0,7.548,2.313,9.271,5.686  c0.619,1.212,1.006,2.563,1.106,3.992c0.017,0.245,0.038,0.49,0.038,0.738H100V25.001L90.277,20.833z M15.626,12.5L15.626,12.5   M72.223,20.833v-12.5h9.723l4.166,12.5H72.223z"/>
<path d="M27.952,34.723c-4.219,0-7.639,3.422-7.639,7.639c0,4.219,3.42,7.64,7.639,7.64c4.218,0,7.638-3.421,7.638-7.64  C35.59,38.145,32.169,34.723,27.952,34.723z M27.952,46.527c-2.301,0-4.167-1.864-4.167-4.168c0-2.301,1.866-4.166,4.167-4.166  c2.3,0,4.167,1.865,4.167,4.166C32.119,44.663,30.251,46.527,27.952,46.527z"/>
<path d="M81.25,34.723c-4.219,0-7.641,3.422-7.641,7.639c0,4.219,3.422,7.64,7.641,7.64s7.641-3.421,7.641-7.64  C88.891,38.145,85.469,34.723,81.25,34.723z M81.25,46.527c-2.301,0-4.167-1.864-4.167-4.168c0-2.301,1.866-4.166,4.167-4.166  s4.167,1.865,4.167,4.166C85.417,44.663,83.551,46.527,81.25,46.527z"/>
</svg>