<?xml version="1.0" encoding="utf-8"?>
<!-- Generator: Adobe Illustrator 14.0.0, SVG Export Plug-In . SVG Version: 6.00 Build 43363)  -->
<!DOCTYPE svg PUBLIC "-//W3C//DTD SVG 1.0//EN" "http://www.w3.org/TR/2001/REC-SVG-20010904/DTD/svg10.dtd">
<svg version="1.0" id="Layer_1" xmlns="http://www.w3.org/2000/svg" xmlns:xlink="http://www.w3.org/1999/xlink" x="0px" y="0px"
	 width="76.207px" height="100px" viewBox="0 0 76.207 100" enable-background="new 0 0 76.207 100" xml:space="preserve">
<path d="M50,100C22.43,100,0,77.57,0,50S22.43,0,50,0c4.801,0,9.575,0.691,14.188,2.054l12.019,3.552L64.188,9.158
	C46.228,14.465,33.684,31.26,33.684,50c0,18.739,12.544,35.533,30.503,40.84l12.015,3.549l-12.014,3.555
	C59.574,99.308,54.801,100,50,100L50,100z M50,7.407C26.514,7.407,7.408,26.515,7.408,50S26.514,92.593,50,92.593
	c0.043,0,0.086,0,0.13,0C35.642,83.635,26.277,67.543,26.277,50c0-17.542,9.365-33.633,23.851-42.593
	C50.084,7.407,50.042,7.407,50,7.407L50,7.407z"/>
</svg>
