<svg xmlns="http://www.w3.org/2000/svg" xmlns:xlink="http://www.w3.org/1999/xlink" version="1.1" id="Layer_1" x="0px" y="0px" width="100px" height="100px" viewBox="0 0 100 100" enable-background="new 0 0 100 100" xml:space="preserve">
<g>
	<path d="M98.027,54.766v8.236h-3.641c-1.959-5.635-7.318-9.68-13.621-9.68c-7.963,0-14.418,6.455-14.418,14.419v0.166H34.265   l0.001-0.166c0-7.964-6.456-14.419-14.419-14.419c-6.303,0-11.661,4.045-13.622,9.68H1.972v-7.979v-1.078v-5.226   c0-2.226,1.805-4.029,4.03-4.029h30.434l9.249-18.404c0.443-0.87,0.975-1.278,1.832-1.473l13.267-3.162l37.211,0.032v20.615H61.092   l-0.016,2.391h36.951v8.997V54.766L98.027,54.766z M58.572,42.331l0.084-13.526H47.237l-6.797,13.526H58.572L58.572,42.331z    M8.271,38.993c0-1.113,0.902-2.015,2.015-2.015h18.51c1.113,0,2.015,0.902,2.015,2.015v2.466c0,1.113-0.902,2.014-2.015,2.014   h-18.51c-1.112,0-2.015-0.901-2.015-2.014V38.993L8.271,38.993z M13.716,68.273c0,3.387,2.745,6.132,6.131,6.132   c3.386,0,6.131-2.745,6.131-6.132c0-3.385-2.745-6.129-6.131-6.129C16.46,62.145,13.716,64.889,13.716,68.273L13.716,68.273z    M8.411,68.273c0-6.315,5.12-11.436,11.436-11.436s11.436,5.12,11.436,11.436c0,6.316-5.12,11.438-11.436,11.438   S8.411,74.59,8.411,68.273L8.411,68.273z M74.635,68.273c0,3.387,2.746,6.132,6.131,6.132c3.387,0,6.131-2.745,6.131-6.132   c0-3.385-2.744-6.129-6.131-6.129C77.381,62.145,74.635,64.889,74.635,68.273L74.635,68.273z M69.33,68.273   c0-6.315,5.121-11.436,11.436-11.436c6.316,0,11.436,5.12,11.436,11.436c0,6.316-5.119,11.438-11.436,11.438   C74.451,79.711,69.33,74.59,69.33,68.273L69.33,68.273z"/>
</g>
</svg>