<svg xmlns="http://www.w3.org/2000/svg" xmlns:xlink="http://www.w3.org/1999/xlink" version="1.1" id="Layer_1" x="0px" y="0px" width="100px" height="100px" viewBox="0 0 100 100" enable-background="new 0 0 100 100" xml:space="preserve">
<g>
	<path d="M79.26,43.682c11.004,0,19.922,8.918,19.922,19.92c0,11.001-8.918,19.92-19.922,19.92c-11.001,0-19.918-8.919-19.918-19.92   c0-7.41,4.045-13.876,10.051-17.308l-0.424-1.208L50.853,63.2c0.456,0.735,0.72,1.603,0.72,2.529c0,2.663-2.159,4.82-4.821,4.82   l-0.143-0.002l-0.768,4.153h1.754v1.169h-2.157c-0.226,0.157-0.543,0.146-0.771,0h-2.032v-1.169h1.845l0.807-4.364l-5.431-1.11   c-2.428,8.262-10.066,14.295-19.116,14.295c-11.001,0-19.92-8.919-19.92-19.92c0-11.002,8.919-19.92,19.92-19.92   c3.685,0,7.135,1,10.095,2.743l5.157-8.349l-2.76-7.463l-6.411-2.212c0,0-1.149-1.685,7.01-0.12   c0.632,0.122,8.194,0.727,8.194,0.727c0.525-0.044,0.592,0.742,0.067,0.787c0,0-3.826,0.438-5.347,0.604l-1.54,0.171l2.584,6.986   l28.872,0.923l-1.602-4.593h7.359c0.282-0.108,0.629-0.041,0.811,0.318c0.823,1.629,2.541,4.347,7.975,2.486   c0.822-0.282,1.246,0.955,0.423,1.236c-5.685,1.947-8.101-0.587-9.245-2.546h-5.018l1.097,3.156l1.821,5.236l0.609,1.749   C73.436,44.34,76.271,43.682,79.26,43.682L79.26,43.682z M20.739,61.857c0.18,0,0.353,0.027,0.517,0.077l8.107-13.126   c-2.532-1.479-5.479-2.328-8.624-2.328c-9.454,0-17.119,7.666-17.119,17.121c0,9.456,7.665,17.12,17.119,17.12   c7.694,0,14.202-5.073,16.36-12.058l-16.259-3.32c-1.064,0.003-1.845-0.778-1.845-1.742C18.996,62.639,19.776,61.857,20.739,61.857   L20.739,61.857z M22.133,62.553c0.156,0.207,0.268,0.452,0.319,0.717l15.387,1.194c0.013-0.286,0.02-0.574,0.02-0.862   c0-0.598-0.03-1.19-0.09-1.774l-15.553,0.592L22.133,62.553L22.133,62.553z M22.269,64.442c-0.113,0.204-0.266,0.384-0.449,0.528   l15.436,3.154c0.213-0.784,0.374-1.588,0.475-2.413L22.269,64.442L22.269,64.442z M37.701,61.27   c-0.672-4.938-3.449-9.206-7.399-11.87l-7.729,12.444L37.701,61.27L37.701,61.27z M40.572,61.721   c0.058,0.619,0.088,1.246,0.088,1.881c0,0.362-0.01,0.721-0.029,1.078l1.394,0.109c0.27-1.365,1.117-2.523,2.277-3.209   L40.572,61.721L40.572,61.721z M40.523,65.941c-0.109,0.937-0.284,1.852-0.518,2.744l3.663,0.748   c-0.983-0.817-1.634-2.02-1.725-3.375L40.523,65.941L40.523,65.941z M45.051,66.313l-2.542-0.209   c0.149,1.712,1.311,3.134,2.882,3.663l0.459-2.482C45.479,67.069,45.193,66.725,45.051,66.313L45.051,66.313z M47.905,63.508   l1.277-1.276c-0.292-0.202-0.61-0.369-0.948-0.496L47.905,63.508L47.905,63.508z M46.64,61.479l0.187,0.501l0.094-0.506   l-0.168-0.005L46.64,61.479L46.64,61.479z M38.487,39.446l7.946,21.476c0.105-0.008,0.21-0.012,0.318-0.012l0.271,0.008l0.76-4.105   h-1.755v-1.17h2.157c0.227-0.155,0.543-0.145,0.771,0h2.032v1.17h-1.844l-0.809,4.365c0.45,0.158,0.869,0.378,1.248,0.653   l18.553-18.554l-1.009-2.917L38.487,39.446L38.487,39.446z M44.478,61.014l-7.985-21.581l-4.711,7.587   c4.713,3.145,8.01,8.245,8.73,14.144L44.478,61.014L44.478,61.014z M45.687,64.283l-0.869-2.35   c-1.124,0.574-1.958,1.631-2.23,2.898l2.51,0.195C45.225,64.729,45.43,64.473,45.687,64.283L45.687,64.283z M50.445,63.608   l-1.909,1.909c0.008,0.07,0.012,0.141,0.012,0.212c0,0.847-0.584,1.557-1.372,1.748l-0.464,2.513c2.392,0,4.3-1.908,4.3-4.261   C51.012,64.958,50.805,64.234,50.445,63.608L50.445,63.608z M79.26,61.805c0.993,0,1.798,0.805,1.798,1.797   s-0.805,1.797-1.798,1.797c-0.99,0-1.797-0.805-1.797-1.797c0-0.232,0.045-0.455,0.123-0.66c-2.341-2.525-4.445-6.781-5.634-9.473   c-0.118-0.268-0.762-2.07-1.612-4.482c-4.918,3.009-8.199,8.429-8.199,14.615c0,9.456,7.665,17.12,17.119,17.12   c9.457,0,17.121-7.664,17.121-17.12c0-9.455-7.664-17.121-17.121-17.121c-2.667,0-5.192,0.611-7.445,1.7   c0.861,2.463,1.523,4.349,1.65,4.628c0.73,1.664,3.033,6.72,5.174,9.107C78.832,61.843,79.041,61.805,79.26,61.805L79.26,61.805z"/>
</g>
</svg>