<svg xmlns="http://www.w3.org/2000/svg" xmlns:xlink="http://www.w3.org/1999/xlink" version="1.1" id="Layer_1" x="0px" y="0px" width="31.294px" height="100px" viewBox="0 0 31.294 100" enable-background="new 0 0 31.294 100" xml:space="preserve">
<path fill="#000000" d="M31.294,7.974c-0.012-1.36-0.036-6.064-0.036-6.064s-1.58-0.205-2.834-0.303  c-0.191-0.016-0.545-0.036-1.009-0.062c0.015-0.463,0.022-0.745,0.022-0.745s-3.594-0.242-5.01-0.339  c-1.417-0.096-5.062,0.043-5.062,0.043s-0.009,0.221-0.023,0.594c-1.736-0.025-6.723,0.104-9.551-0.184C4.85,0.612,0,0,0,0  s0.026,3.048,0.034,3.973s-0.041,1.633,0.55,7.071c0.591,5.437,2.083,9.967,2.083,9.967s4.327-3.194,6.482-5.662  c2.156-2.469,4.591-4.339,5.24-4.671c0.65-0.333,1.307-0.065,2.122-0.072c0.123-0.001,0.304-0.001,0.527-0.001  c-0.014,0.424-0.023,0.777-0.029,1.029c-0.039,1.852-0.366,12.543-0.23,21.958c0.076,5.362,0.495,13.406,0.855,19.95  c0.273,4.941,0.512,9.029,0.549,10.456c0.082,3.318,0.109,12.734-0.292,16.71c-0.214,2.121-1.469,6.002-2.111,7.803  c-0.64,1.803-1.49,3.933-1.481,4.967c0.009,1.032,6.315,6.531,7.294,6.522c0.98-0.011,1.568-1.157,1.998-1.867  c0.431-0.712,0.215-6.807,0.701-12.308c0.488-5.5,0.528-21.993,0.513-23.843c-0.008-0.893-0.222-4.55-0.447-8.417  c-0.243-4.165-0.499-8.57-0.526-10.02c-0.365-19.154,1.42-18.454,1.784-20.362c0.364-1.909,2.312-7.778,2.361-8.378  c0.05-0.598-0.677-2.879-0.737-3.613c-0.006-0.065-0.01-0.186-0.009-0.354c1.907,0.191,3.601,0.404,3.601,0.404  S31.306,9.335,31.294,7.974z"/>
</svg>