<svg xmlns:dc="http://purl.org/dc/elements/1.1/" xmlns:cc="http://creativecommons.org/ns#" xmlns:rdf="http://www.w3.org/1999/02/22-rdf-syntax-ns#" xmlns:svg="http://www.w3.org/2000/svg" xmlns="http://www.w3.org/2000/svg" xmlns:sodipodi="http://sodipodi.sourceforge.net/DTD/sodipodi-0.dtd" xmlns:inkscape="http://www.inkscape.org/namespaces/inkscape" width="100" height="100" id="svg3803" version="1.1" inkscape:version="0.48.2 r9819" inkscape:export-filename="C:\Temp\The Noun Project\test2.png" inkscape:export-xdpi="89.999992" inkscape:export-ydpi="89.999992" sodipodi:docname="lips.svg">
  <defs id="defs3805"/>
  <sodipodi:namedview id="base" pagecolor="#ffffff" bordercolor="#666666" borderopacity="1.0" inkscape:pageopacity="0.0" inkscape:pageshadow="2" inkscape:zoom="7.69" inkscape:cx="50" inkscape:cy="50" inkscape:document-units="px" inkscape:current-layer="layer2" showgrid="true" inkscape:window-width="1680" inkscape:window-height="988" inkscape:window-x="-8" inkscape:window-y="-8" inkscape:window-maximized="1" showguides="true" inkscape:guide-bbox="true">
    <inkscape:grid type="xygrid" id="grid3849" empspacing="5" visible="true" enabled="true" snapvisiblegridlinesonly="true"/>
  </sodipodi:namedview>
  <metadata id="metadata3808">
    <rdf:RDF>
      <cc:Work rdf:about="">
        <dc:format>image/svg+xml</dc:format>
        <dc:type rdf:resource="http://purl.org/dc/dcmitype/StillImage"/>
        <dc:title/>
      </cc:Work>
    </rdf:RDF>
  </metadata>
  <g inkscape:groupmode="layer" id="layer2" inkscape:label="Objet vectoriel" transform="translate(0,68)" style="display:inline">
    <g transform="matrix(-1,0,0,1,100.0625,-68)" style="font-size:72px;font-style:normal;font-variant:normal;font-weight:normal;font-stretch:normal;line-height:125%;letter-spacing:0px;word-spacing:0px;fill:#000000;fill-opacity:1;stroke:none;display:inline;font-family:'[S] CrazyWorld';-inkscape-font-specification:'[S] CrazyWorld'" id="text2991-5"/>
    <path style="font-size:72px;font-style:normal;font-variant:normal;font-weight:normal;font-stretch:normal;line-height:125%;letter-spacing:0px;word-spacing:0px;fill:#000000;fill-opacity:1;stroke:none;display:inline;font-family:'[S] CrazyWorld';-inkscape-font-specification:'[S] CrazyWorld'" d="m 36.045056,-38 c -4.005006,0 -7.611939,2.358547 -11.514393,4.306685 -5.941939,3.734761 -10.641484,7.163891 -19.1489358,6.329521 -1.3946814,0.189004 -3.0778874,0.142233 -4.0050063,0.391517 C 0.44985832,-26.72299 1.3016e-4,-26.569546 0,-25.667221 c 1.3016e-4,1.703707 1.3263419,2.544855 3.942428,2.544859 l 15.519399,0 c 4.147441,-4e-6 7.504579,0.436885 10.012516,1.239803 2.508137,0.80291 4.741459,1.673624 6.758448,2.675364 2.017171,1.001724 4.051432,1.939222 6.070088,2.740618 1.990814,0.790254 4.532063,1.163573 7.634543,1.174551 0.04366,1.54e-4 0.08127,0 0.125156,0 3.10248,-0.01098 5.643729,-0.384297 7.634543,-1.174551 2.018656,-0.801396 4.052917,-1.738894 6.070088,-2.740618 2.016989,-1.00174 4.250311,-1.872454 6.758448,-2.675364 2.507937,-0.802918 5.865075,-1.239807 10.012516,-1.239803 l 15.519399,0 c 2.616086,-4e-6 3.942298,-0.841152 3.942428,-2.544859 -1.3e-4,-0.902325 -0.449858,-1.055769 -1.376721,-1.305056 -0.927119,-0.249284 -2.610325,-0.202513 -4.005006,-0.391517 -8.507452,0.83437 -13.206997,-2.59476 -19.148936,-6.329521 C 71.566883,-35.641453 67.95995,-38 63.954944,-38 c -2.002503,0 -5.452192,0.337139 -8.010013,2.08809 -2.359715,1.722853 -0.0021,-0.01477 -3.066333,2.610112 -0.737239,1.112788 -1.674437,1.722884 -2.81602,1.761825 -0.04194,0 -0.08375,0.0015 -0.125156,0 -1.141583,-0.03894 -2.078781,-0.649037 -2.81602,-1.761825 -3.064267,-2.62488 -0.706618,-0.887259 -3.066333,-2.610112 C 41.497248,-37.662861 38.047559,-38 36.045056,-38 z M 6.5707134,-20.381745 c -1.8538593,-4e-6 -2.8158959,0.402726 -2.81602,1.305056 1.241e-4,0.501622 0.3473241,0.814126 1.0012515,0.913539 0.6541778,0.09941 3.2540676,1.044045 7.2590741,3.132134 6.007509,4.17618 7.596191,5.1242567 12.015019,8.352358 4.005006,2.0880895 6.796069,3.8152652 12.015018,6.26426838 4.756728,1.71390172 7.982577,2.40389422 13.892366,2.41435342 0.04577,8.15e-5 0.07906,0 0.125156,0 5.909789,-0.01046 9.135638,-0.7004517 13.892366,-2.41435342 5.218949,-2.44900318 8.010012,-4.17617888 12.015018,-6.26426838 4.418828,-3.2281013 6.00751,-4.176178 12.015019,-8.352358 4.005006,-2.088089 6.604896,-3.032732 7.259074,-3.132134 0.653927,-0.09941 1.001127,-0.411917 1.001252,-0.913539 -1.25e-4,-0.90233 -0.962161,-1.30506 -2.81602,-1.305056 l -9.449312,0 c -5.345708,-4e-6 -9.414222,0.402726 -12.140175,1.305056 -2.726154,0.902315 -4.967139,1.884166 -6.821027,2.936376 -1.854077,1.05219 -3.871355,2.034039 -5.944931,2.936376 -2.050721,0.892288 -5.043514,1.360385 -9.011264,1.370308 -0.0448,0 -0.0806,1.11e-4 -0.125156,0 -3.96775,-0.0099 -6.960543,-0.47802 -9.011264,-1.370308 -2.073576,-0.902337 -4.090854,-1.884186 -5.944931,-2.936376 -1.853888,-1.05221 -4.094873,-2.034061 -6.821027,-2.936376 -2.725953,-0.90233 -6.794467,-1.30506 -12.140175,-1.305056 l -9.4493116,0 z" id="path2996" inkscape:connector-curvature="0"/>
  </g>
</svg>