<svg xmlns="http://www.w3.org/2000/svg" xmlns:xlink="http://www.w3.org/1999/xlink" version="1.1" id="Layer_1" x="0px" y="0px" width="100px" height="100px" viewBox="0 0 100 100" enable-background="new 0 0 100 100" xml:space="preserve">
<path d="M62.663,36.873c-1.764-12.157-3.397-23.617-4.41-30.139c-0.018-0.15-0.035-0.305-0.057-0.447  C57.882,4.068,53.938,2.964,50,2.972c-3.939-0.008-7.88,1.096-8.196,3.314c-0.02,0.143-0.038,0.297-0.056,0.447  c-1.012,6.521-2.646,17.981-4.411,30.139H62.663z"/>
<path d="M34.94,53.176h30.12c-0.295-1.969-0.592-3.965-0.888-5.978H35.829C35.531,49.21,35.235,51.207,34.94,53.176z"/>
<path d="M87.675,90.52c-1.787-2.346-15.088-2.979-17.054-5.873c-0.688-1.014-2.211-9.717-3.989-21.146H33.37  c-1.78,11.43-3.301,20.133-3.99,21.146c-1.966,2.895-15.268,3.527-17.054,5.873c-1.361,1.787-2.303,6.508-2.303,6.508h39.971h0.015  h39.971C89.979,97.027,89.035,92.307,87.675,90.52z"/>
</svg>