<svg xmlns="http://www.w3.org/2000/svg" xmlns:xlink="http://www.w3.org/1999/xlink" version="1.1" id="Layer_1" x="0px" y="0px" width="100px" height="100px" viewBox="0 0 100 100" enable-background="new 0 0 100 100" xml:space="preserve">
<path d="M29.375,79.418l-5.632-10.283c0.024-0.036,0.048-0.072,0.07-0.109c0.691-1.138,0.472-2.575-0.449-3.463l5.999-9.871  c2.394-3.939,2.277-6.963,2.277-6.963l-3.704,6.098l-6.071,9.989c-1.086-0.172-2.219,0.311-2.825,1.308  C19.026,66.146,19,66.169,19,66.191v-0.023L7.129,65.899c-4.61-0.103-7.179,1.928-7.179,1.928l7.132,0.159l11.497,0.262  c0.1,0.401,0.421,0.78,0.421,1.106V100h4V73.311l4.219,7.108c2.216,4.046,5.42,5.255,5.42,5.255L29.375,79.418z"/>
<path d="M92.623,66.566L80.59,59.624c0.145-1.27-0.457-2.562-1.635-3.241c-0.018-0.01-0.035-0.019-0.053-0.028l-0.007-13.809  c-0.002-5.468-2.478-8.745-2.478-8.745l0.004,8.746l0.006,13.513c-0.812,0.222-1.54,0.751-1.994,1.538  c-0.438,0.76-0.541,1.62-0.355,2.412l-11.84,6.845c-4.732,2.733-6.087,6.374-6.087,6.374l7.262-4.23L75,62.264V100h4V61.73  c0-0.058,0.376-0.118,0.437-0.182l12.003,6.853c4.738,2.73,8.45,2.391,8.45,2.391L92.623,66.566z"/>
<path d="M73.644,23.989l-24.14,5.145c-0.058-0.071-0.118-0.141-0.18-0.21c-1.469-1.627-3.641-2.243-5.639-1.801L26.986,8.599  C20.489,1.39,13.075,0.922,13.075,0.922l10.053,11.156L39.627,30.38c-0.964,2.072-0.662,4.609,0.966,6.415  c0.035,0.039,0.07,0.077,0.106,0.114l-0.043-0.014l-7.715,23.783c-2.995,9.232-0.451,15.64-0.451,15.64l4.541-14.286L41,49.513V100  h7V37.27c0-0.014,0.454-0.028,0.47-0.042c1.156-1.043,2.013-2.441,2.133-3.879l23.851-5.059c9.492-2.025,13.825-7.429,13.825-7.429  L73.644,23.989z"/>
</svg>