<svg xmlns="http://www.w3.org/2000/svg" xmlns:xlink="http://www.w3.org/1999/xlink" version="1.1" id="Layer_1" x="0px" y="0px" width="77.2727272727px" height="100px" viewBox="0 0 612 792" enable-background="new 0 0 612 792" xml:space="preserve">
<g>
	<rect x="164.333" y="275" fill="none" width="275" height="305"/>
	<path fill="#000000" d="M366.832,349.6c0,35.799-29.199,65-64.999,65c-36,0-64.999-29.2-64.999-65   c0-36,28.999-64.999,64.999-64.999C337.633,284.601,366.832,313.601,366.832,349.6z M352.432,349.4c0-28-22.6-50.6-50.598-50.6   c-28,0-50.8,22.6-50.8,50.6c0,28,22.8,50.799,50.8,50.799C329.832,400.199,352.432,377.4,352.432,349.4z M263.434,345.4   c2,0,3.8,1.8,3.8,3.8s-1.8,3.8-3.8,3.8s-3.8-1.8-3.8-3.8S261.434,345.4,263.434,345.4z M321.033,343h-17.4l-20.8-22.799   c-6.399-6.4-16.6,3.2-10.399,9.8l22.999,25c1.2,1.6,3,2.4,5.2,2.4h20.4C329.832,357.4,330.832,343,321.033,343z M275.434,373.4   c2,0,3.8,1.8,3.8,3.8s-1.8,3.8-3.8,3.8s-3.801-1.8-3.801-3.8S273.434,373.4,275.434,373.4z M301.433,383.8c2,0,3.8,1.8,3.8,3.8   s-1.8,3.8-3.8,3.8s-3.8-1.8-3.8-3.8S299.433,383.8,301.433,383.8z M301.633,307.601c2,0,3.8,1.8,3.8,3.8s-1.8,3.8-3.8,3.8   s-3.8-1.8-3.8-3.8S299.633,307.601,301.633,307.601z M328.232,318c2,0,3.801,1.8,3.801,3.8s-1.801,3.8-3.801,3.8   s-3.799-1.8-3.799-3.8S326.232,318,328.232,318z M329.434,372.2c2,0,3.799,1.8,3.799,3.8c0,2-1.799,3.8-3.799,3.8   s-3.801-1.8-3.801-3.8C325.633,374,327.434,372.2,329.434,372.2z M340.033,345.4c2,0,3.799,1.8,3.799,3.8s-1.799,3.8-3.799,3.8   s-3.801-1.8-3.801-3.8S338.033,345.4,340.033,345.4z"/>
</g>
</svg>