<svg xmlns="http://www.w3.org/2000/svg" xmlns:xlink="http://www.w3.org/1999/xlink" version="1.1" id="Layer_1" x="0px" y="0px" width="77.2727272727px" height="100px" viewBox="0 0 612 792" enable-background="new 0 0 612 792" xml:space="preserve">
<g>
	<rect x="163" y="264" fill="none" width="275" height="305"/>
	<path fill="#000000" d="M355.599,377c11.6,36.2-66.799,16.6-72.999,10.8v9.2c0,2.601-2.2,4.8-4.6,4.8h-32.8   c-2.4,0-4.6-2.199-4.6-4.8V320c0-2.4,2.199-4.6,4.6-4.6H278c2.399,0,4.6,2.2,4.6,4.6v5.2c15.6-10.2,23.6-35.799,23.8-36.799   c2.399-10.4,8.399-16.4,17-16.4c8.999,0,19.6,8.8,19.6,27.4c0,4.6-1.8,11.8-4.601,17.2h2.801c11.8,0,25.199,5.6,20.799,22.6   c4.601,7.8,1.601,16.4-2,19.6C363.599,366,360.599,373.399,355.599,377z M342.398,356c11.4,0,11.8-12,1.4-12.4   c-2.2-0.2-2.2-2.4,0-2.4c10.399,0,8.6-13.2-2.6-13.2h-11.801c-4.199,0-6.199-2.6-6.199-5.2c0-4.8,8.399-15.2,8.399-23.2   c0-10.2-5-16.2-8.199-16.2c-3.4,0-5.2,2.8-5.601,6.2c-2.399,16-19.999,42.599-35.199,49.199V375   c21.399,10.6,40.199,11.4,49.199,11.8c13.6,0.4,20.399-10.4,6.4-13.4c-3-0.4-2.801-3-0.601-3c14.2,0,15.2-10.6,4.8-11.8   C339.799,358.2,339.799,356,342.398,356z"/>
</g>
</svg>