<?xml version="1.0" encoding="utf-8"?>
<!-- Generator: Adobe Illustrator 14.0.0, SVG Export Plug-In . SVG Version: 6.00 Build 43363)  -->
<!DOCTYPE svg PUBLIC "-//W3C//DTD SVG 1.0//EN" "http://www.w3.org/TR/2001/REC-SVG-20010904/DTD/svg10.dtd">
<svg version="1.0" id="Layer_1" xmlns="http://www.w3.org/2000/svg" xmlns:xlink="http://www.w3.org/1999/xlink" x="0px" y="0px"
	 width="68.928px" height="100px" viewBox="0 0 68.928 100" enable-background="new 0 0 68.928 100" xml:space="preserve">
<path d="M0.665,89.752c5.013-3.502,9.049-7.374,12.108-11.609c3.062-4.236,4.591-8.837,4.591-13.805c0-1.419-0.287-3.083-0.864-4.99
	c-0.355-1.198-0.955-2.84-1.795-4.924H0v-6.92h10.446c0,0.222-0.742-1.164-2.229-4.156c-1.485-2.994-2.474-5.179-2.96-6.553
	c-0.444-1.286-0.821-2.784-1.13-4.493c-0.312-1.707-0.467-3.535-0.467-5.488c0-6.92,2.817-13.118,8.45-18.595
	C17.743,2.74,25.814,0,36.326,0c9.893,0,17.377,2.705,22.455,8.117c5.079,5.411,7.685,13.062,7.819,22.954h-12.31
	c0-6.697-1.564-11.787-4.691-15.27c-3.126-3.48-7.885-5.22-14.271-5.22c-6.208,0-10.911,1.629-14.104,4.889
	c-3.195,3.258-4.791,7.218-4.791,11.877c0,2.305,0.499,4.678,1.496,7.117c0.999,2.44,3.116,6.786,6.354,13.04h21.824v6.92H27.279
	c0.443,2.04,0.764,3.638,0.966,4.791c0.197,1.152,0.298,2.35,0.298,3.592c0,4.436-1.33,8.817-3.993,13.14
	c-2.66,4.325-6.83,8.617-12.508,12.876c3.061-1.554,6.077-2.783,9.05-3.694c2.971-0.909,5.876-1.362,8.714-1.362
	c3.195,0,7.418,0.786,12.675,2.362c5.256,1.572,8.703,2.36,10.345,2.36c2.086,0,3.993-0.398,5.722-1.197
	c1.065-0.487,2.685-1.508,4.857-3.062l5.522,8.983c-2.484,1.996-4.702,3.48-6.653,4.457c-3.236,1.554-6.677,2.33-10.312,2.33
	c-2.66,0-7.129-1.021-13.407-3.062c-6.275-2.04-11.232-3.06-14.87-3.06c-3.37,0-6.563,0.576-9.58,1.729
	c-1.774,0.71-4.058,1.907-6.854,3.592L0.665,89.752z"/>
</svg>
