<svg xmlns="http://www.w3.org/2000/svg" xmlns:xlink="http://www.w3.org/1999/xlink" version="1.1" id="Layer_1" x="0px" y="0px" width="77.2727272727px" height="100px" viewBox="0 0 612 792" enable-background="new 0 0 612 792" xml:space="preserve">
<g>
	<rect x="163" y="264" fill="none" width="275" height="305"/>
	<path fill="#000000" d="M358.599,273.201c10.2,22.2,20.8,44.599,31.199,66.999c-59.799,0-84.998,64.399-148.997,69.399   c-10.4-22.4-20.8-44.6-31.2-67C269.399,342.6,298.8,273.401,358.599,273.201z M249.2,396.799c17-3.2,31.399-11.6,45.199-21.8   c-7.8-3-13.6-9.4-17-16.6c-3.8-8.4-4.399-17.6-3.199-26.8c-13.8,10-28.2,18.6-45.399,21.6C235.601,367.8,242.4,382.2,249.2,396.799   z M255.6,369.8c-0.199-0.6-0.399-0.8-0.399-1.4c-2.2,0.2-4.6,0.2-6.8,0.2c0.2,1.2,0.6,2.4,1.2,3.6   C251.8,371.399,253.601,370.8,255.6,369.8z M256.2,364.4c-1.601-1.2-3.2-2.6-5-4c-1,1-1.4,1.8-1.8,3.2c2,0.8,4.2,1.6,6,2.4   C255.8,365.6,256,365,256.2,364.4z M258.6,372.8c-0.6-0.2-1.199-0.6-1.399-0.8c-1.4,1.6-2.8,3-4.2,4.6c1,0.8,2.2,1.6,3.4,1.8   C257.2,376.399,257.8,374.6,258.6,372.8z M259,356c-1.2,0.2-2.4,0.6-3.6,1c0.6,1.2,0.8,1.8,1.399,3c-0.6-1.2-0.8-1.8-1.399-3   c1,2,1.8,4,2.8,6c0.6-0.4,1-0.4,1.6-0.6C259.6,360.2,259.2,358.2,259,356z M262.6,372.6c-0.399,0.2-1,0.4-1.6,0.4   c0.2,2.2,0.6,4.2,1,6.4c1.2-0.2,2.4-0.4,3.4-1C264.4,376.399,263.6,374.6,262.6,372.6z M267.4,358c-1-0.8-2-1.4-3-1.6   c-0.801,2-1.601,4-2.2,6.2c0.399,0.2,1,0.6,1.399,0.8C264.8,361.6,266.2,359.8,267.4,358z M271.6,371.399   c-2.2-0.6-4.199-1.2-6.199-2c-0.2,0.6-0.601,1.2-0.801,1.6c1.601,1.2,3.4,2.6,5.2,3.8C270.399,373.8,271,372.6,271.6,371.399z    M271,362c-0.2,0-0.2,0-0.2,0c-1.8,1.2-3.6,2.2-5.6,3.2c0,0.2,0,0.2,0,0.2c0.399,0.4,0.399,1,0.399,1.6c2.4-0.4,4.2-0.8,6.2-1.4   C271.6,364.4,271.399,363.2,271,362z M350.198,286.001c-16.999,3.2-31.599,11.6-45.398,22c7.999,2.8,13.6,9.4,16.999,16.4   c3.8,8.4,4.601,17.6,3.2,26.8c13.8-10.2,28.399-18.6,45.6-21.6C363.599,315,356.998,300.401,350.198,286.001z M329.599,309.601   c-1.199,0.6-2,1-3,1.8c2.4,5,4.4,10,6.8,15c1.2-0.8,1.801-1.2,3.2-1.8C334.398,319.4,331.999,314.601,329.599,309.601z    M336.398,306c-1.199,0.6-1.8,1-3,1.6c2.4,4.8,4.801,9.8,7,14.8c1.2-0.4,1.801-0.8,3.2-1.4C341.199,315.8,338.799,311,336.398,306z    M343.599,303c-1.2,0.4-1.8,0.8-3.2,1.4c2.4,4.8,4.8,9.8,7,14.6c1.4-0.4,2-0.6,3.2-1.2C348.398,313,345.799,308,343.599,303z"/>
</g>
</svg>