<svg xmlns="http://www.w3.org/2000/svg" xmlns:xlink="http://www.w3.org/1999/xlink" version="1.1" id="Layer_1" x="0px" y="0px" width="77.2727272727px" height="100px" viewBox="0 0 612 792" enable-background="new 0 0 612 792" xml:space="preserve">
<g>
	<rect x="164.333" y="275" fill="none" width="275" height="305"/>
	<path fill="#000000" d="M253.134,257.202c-7,6.8-10.6,16-10.6,25.799c0,9.6,3.6,18.8,10.6,25.8l-6,6.2   c-9-9-13.399-20.799-13.6-32.599c0.2-11,4-22.4,13.399-31.6L253.134,257.202z M349.533,413.999c-0.801,0.399-1.6,0.399-2.6,0.399   c-2.801,0-5.602-1.6-6.602-4.6l-2.199-5.6h-36.399h-37.2l-2.199,5.6c-1,3-3.801,4.6-6.601,4.6c-1,0-1.8,0-2.6-0.399   c-3.8-1.399-5.6-5.6-4.2-9.399l44.399-114.199l6.8-4.6h2.601l6.6,4.6L353.732,404.6C355.133,408.399,353.332,412.6,349.533,413.999   z M274.333,268.401c-4.199,4-6.399,9.8-6.399,15c0,5.2,2,10.399,5.8,14.2l-5.6,5.6c-5.4-5.4-8.8-13-8.8-20.399   c0-7,2.8-14.2,9.199-20.4L274.333,268.401z M294.534,397l-19.6-19.4l-7.6,19.4H294.534z M277.734,370.2l6.6,6.4l12.4-12.2l-12-12   L277.734,370.2z M288.133,345.8l13.601,13.4l13.6-13.4H288.133z M314.133,381.8l-12.399-12.4l-12.4,12.4l12.4,12.399L314.133,381.8   z M290.133,338.6h22.4l-11.2-29L290.133,338.6z M292.133,276.401c0-5,4.2-9.2,9.2-9.2c5.2,0,9.2,4.2,9.2,9.2s-4,9.2-9.2,9.2   C296.333,285.601,292.133,281.401,292.133,276.401z M318.133,353l-11.399,11.4l12.399,12.2l6-5.8L318.133,353z M335.332,397   l-7.398-19l-19,19H335.332z M329.334,298.001c4.199-4,6.398-9.8,6.398-15.2c0-4.8-2-10.2-5.799-14.2l5.6-5.6   c5.199,5.8,8.799,13,8.799,20.6c0,7-2.799,14.2-9,20.2L329.334,298.001z M350.533,309.201c7-6.8,10.6-16,10.398-25.799   c0.201-9.6-3.398-19-10.398-26l6-5.8c9,8.8,13.398,20.6,13.6,32.399c-0.201,11-4,22.4-13.4,31.4L350.533,309.201z"/>
</g>
</svg>