<svg xmlns="http://www.w3.org/2000/svg" xmlns:xlink="http://www.w3.org/1999/xlink" version="1.1" id="Layer_1" x="0px" y="0px" width="77.2727272727px" height="100px" viewBox="0 0 612 792" enable-background="new 0 0 612 792" xml:space="preserve">
<g>
	<rect x="163" y="264" fill="none" width="275" height="305"/>
	<path fill="#000000" d="M294.801,393l-24,9.2l-2.399-4.2l26.399-16.2v-9.2h-50.8c-4,0-7.199-3.2-7.199-7.2c0-3.8,2.8-6.8,6.6-7.2   v-66.199c-3.8-0.2-6.6-3.4-6.6-7c0-4,3.199-7.2,7.199-7.2H296.2l3-7.8h1.801l2.999,7.8h53c4,0,7.199,3.2,7.199,7.2   s-3.199,7.2-7.199,7.2V358.2c4,0,7.199,3.2,7.199,7.2S361,372.6,357,372.6h-52.399v9.2l26.6,16.2l-2.4,4.2l-24.199-9.2v18.399   c0,2.801-2.2,5.201-5,5.201c-3,0-4.8-2.4-4.8-5.201V393z M347.8,292.801h-95.198V357.6H347.8V292.801z"/>
</g>
</svg>