<svg xmlns="http://www.w3.org/2000/svg" xmlns:xlink="http://www.w3.org/1999/xlink" version="1.1" id="Layer_1" x="0px" y="0px" width="77.2727272727px" height="100px" viewBox="0 0 612 792" enable-background="new 0 0 612 792" xml:space="preserve">
<g>
	<rect x="163" y="264" fill="none" width="275" height="305"/>
	<path fill="#000000" d="M343.898,342.2l-38.8,67.198c-1.8,3.201-5.8,4.4-8.8,2.601l-53.799-31.2c-3.2-1.8-4.4-5.8-2.601-9   l38.8-67.199l31.6-19.8l15.199,8.6c1-2.8,0.801-3,1.4-5.8c1.4-6.2,2.8-17.2,15.2-26.6c4.199-3.6,10.6-3.6,16.399-0.6   c3.2,1.4,6,3.8,8,6.4c2,3,3,6.2,3.2,9.2c-0.2,3.8-2,9-10.4,13c-6.6,3-12.2,3.8-17.399,4.4c-4.601,0.6-8.2,1-11.2,3l14.8,8.6   L343.898,342.2z M328.299,322.4c3.199-5.4,2.199-12-1.601-16.4l-6.8-4.2c-6-2-12.8,0.6-16.199,6.4   c-3.801,6.8-1.601,15.4,5.199,19.399C315.698,331.4,324.498,329.2,328.299,322.4z M330.099,288.001c0,1-0.2,1.6-0.4,2.4   c-0.2,1,0,1.6-0.399,2.8c3.6-2.4,7.399-2.6,12.199-3c4.8-0.6,10.4-1.4,16.4-4.2c5.6-2.4,8.399-6,8.6-10c0-4.6-3.4-9.4-8.4-12.2   c-0.199-0.2-0.6-0.4-1-0.6c-4.8-2.4-9.6-2.4-13.199,0.4C332.698,272.201,331.099,282.001,330.099,288.001z"/>
</g>
</svg>