<svg xmlns="http://www.w3.org/2000/svg" xmlns:xlink="http://www.w3.org/1999/xlink" version="1.1" id="Layer_1" x="0px" y="0px" width="100px" height="100px" viewBox="0 0 100 100" enable-background="new 0 0 100 100" xml:space="preserve">
<rect x="21.492" y="36.119" transform="matrix(0.7071 0.7071 -0.7071 0.7071 44.7059 -26.5459)" width="65.808" height="9.145"/>
<g>
	<path d="M27.304,32.959c-0.825,0.409-1.825,0.072-2.233-0.753l0,0c-0.409-0.825-0.071-1.825,0.754-2.234l3.584-1.776   c0.825-0.409,1.824-0.071,2.233,0.754l0,0c0.409,0.825,0.071,1.825-0.753,2.233L27.304,32.959z"/>
	<path d="M16.922,39.164c-0.789,0.47-1.809,0.211-2.278-0.578l0,0c-0.47-0.789-0.211-1.809,0.579-2.278l3.427-2.04   c0.788-0.47,1.808-0.211,2.277,0.578l0,0c0.47,0.789,0.211,1.809-0.578,2.277L16.922,39.164z"/>
	<path d="M6.539,45.369c-0.753,0.531-1.792,0.35-2.323-0.402l0,0c-0.53-0.753-0.35-1.792,0.403-2.323l3.27-2.304   c0.752-0.53,1.792-0.35,2.322,0.403l0,0c0.53,0.752,0.35,1.792-0.403,2.322L6.539,45.369z"/>
</g>
<g>
	<path d="M65.089,70.024c-0.526,0.757-1.564,0.941-2.32,0.415l0,0c-0.755-0.526-0.94-1.565-0.414-2.321l2.286-3.28   c0.525-0.755,1.564-0.941,2.32-0.415l0,0c0.755,0.526,0.94,1.564,0.415,2.319L65.089,70.024z"/>
	<path d="M58.977,80.461c-0.465,0.793-1.484,1.057-2.274,0.592l0,0c-0.791-0.467-1.056-1.484-0.59-2.275l2.021-3.438   c0.465-0.791,1.483-1.056,2.274-0.59l0,0c0.791,0.465,1.055,1.482,0.59,2.274L58.977,80.461z"/>
	<path d="M52.865,90.898c-0.404,0.829-1.404,1.171-2.23,0.767l0,0c-0.827-0.405-1.17-1.402-0.766-2.229l1.757-3.594   c0.404-0.827,1.402-1.17,2.229-0.765l0,0c0.827,0.403,1.17,1.401,0.766,2.229L52.865,90.898z"/>
</g>
<path d="M59.759,64.613c-0.59,0.708-1.641,0.802-2.348,0.211l0,0c-0.706-0.59-0.8-1.642-0.21-2.349l2.564-3.067  c0.589-0.706,1.641-0.802,2.348-0.211l0,0c0.706,0.59,0.8,1.641,0.211,2.347L59.759,64.613z"/>
<path d="M52.76,74.477c-0.533,0.75-1.57,0.924-2.318,0.391l0,0c-0.748-0.533-0.922-1.57-0.389-2.318l2.314-3.247  c0.531-0.747,1.569-0.923,2.316-0.39l0,0c0.748,0.533,0.922,1.57,0.39,2.318L52.76,74.477z"/>
<path d="M45.759,84.341c-0.475,0.791-1.5,1.044-2.288,0.569l0,0c-0.789-0.477-1.043-1.499-0.567-2.288l2.064-3.427  c0.475-0.789,1.5-1.043,2.287-0.567l0,0c0.789,0.475,1.042,1.498,0.568,2.288L45.759,84.341z"/>
<path d="M54.202,59.292c-0.629,0.661-1.675,0.686-2.335,0.056l0,0c-0.66-0.629-0.685-1.676-0.056-2.337l2.736-2.867  c0.628-0.66,1.675-0.687,2.336-0.057l0,0c0.66,0.63,0.684,1.675,0.056,2.335L54.202,59.292z"/>
<path d="M46.638,68.593c-0.576,0.707-1.613,0.812-2.318,0.236l0,0c-0.705-0.576-0.81-1.613-0.234-2.319l2.5-3.061  c0.574-0.705,1.612-0.812,2.316-0.235l0,0c0.706,0.576,0.81,1.613,0.235,2.318L46.638,68.593z"/>
<path d="M39.073,77.896c-0.521,0.751-1.553,0.936-2.3,0.414l0,0c-0.749-0.522-0.935-1.551-0.413-2.3l2.264-3.256  c0.521-0.749,1.551-0.934,2.299-0.412l0,0c0.749,0.521,0.934,1.549,0.413,2.3L39.073,77.896z"/>
<path d="M48.646,53.97c-0.669,0.616-1.709,0.571-2.324-0.099l0,0c-0.614-0.668-0.569-1.71,0.1-2.325l2.908-2.667  c0.668-0.614,1.709-0.571,2.324,0.099l0,0c0.613,0.669,0.568,1.709-0.1,2.323L48.646,53.97z"/>
<path d="M40.517,62.709c-0.619,0.665-1.656,0.699-2.318,0.081l0,0c-0.662-0.618-0.698-1.655-0.079-2.318l2.686-2.876  c0.617-0.662,1.655-0.698,2.317-0.08l0,0c0.663,0.619,0.698,1.655,0.08,2.318L40.517,62.709z"/>
<path d="M32.387,71.449c-0.567,0.713-1.604,0.827-2.312,0.26l0,0c-0.709-0.568-0.826-1.602-0.258-2.312l2.465-3.083  c0.567-0.71,1.603-0.825,2.312-0.259l0,0c0.71,0.568,0.825,1.602,0.258,2.312L32.387,71.449z"/>
<path d="M43.09,48.648c-0.708,0.57-1.743,0.456-2.312-0.253l0,0c-0.568-0.708-0.454-1.744,0.255-2.313l3.079-2.467  c0.707-0.569,1.743-0.457,2.312,0.253l0,0c0.568,0.708,0.454,1.743-0.253,2.312L43.09,48.648z"/>
<path d="M34.396,56.826c-0.661,0.621-1.699,0.587-2.318-0.074l0,0c-0.619-0.662-0.585-1.699,0.076-2.319l2.872-2.689  c0.66-0.619,1.698-0.587,2.317,0.075l0,0c0.619,0.66,0.585,1.697-0.075,2.318L34.396,56.826z"/>
<path d="M25.701,65.004c-0.614,0.673-1.656,0.719-2.325,0.105l0,0c-0.67-0.615-0.716-1.654-0.103-2.324l2.665-2.913  c0.613-0.671,1.654-0.716,2.323-0.104l0,0c0.671,0.613,0.717,1.652,0.104,2.325L25.701,65.004z"/>
<path d="M37.534,43.326c-0.748,0.524-1.777,0.341-2.3-0.408l0,0c-0.522-0.748-0.338-1.778,0.41-2.301l3.251-2.267  c0.746-0.523,1.777-0.341,2.3,0.408l0,0c0.522,0.748,0.339,1.777-0.408,2.3L37.534,43.326z"/>
<path d="M28.275,50.942c-0.705,0.578-1.743,0.476-2.319-0.229l0,0c-0.576-0.705-0.474-1.743,0.23-2.319l3.058-2.504  c0.703-0.577,1.742-0.475,2.317,0.229l0,0c0.577,0.705,0.474,1.741-0.23,2.319L28.275,50.942z"/>
<path d="M19.015,58.559c-0.66,0.633-1.707,0.609-2.337-0.05l0,0c-0.63-0.661-0.608-1.706,0.052-2.337l2.865-2.74  c0.66-0.632,1.706-0.608,2.335,0.051l0,0c0.631,0.66,0.608,1.703-0.051,2.337L19.015,58.559z"/>
<path d="M31.978,38.004c-0.788,0.478-1.812,0.226-2.289-0.563l0,0c-0.476-0.787-0.223-1.812,0.565-2.29l3.422-2.067  c0.786-0.477,1.812-0.226,2.289,0.563l0,0c0.476,0.787,0.223,1.812-0.563,2.288L31.978,38.004z"/>
<path d="M22.153,45.059c-0.747,0.536-1.785,0.363-2.319-0.383l0,0c-0.533-0.747-0.361-1.785,0.386-2.319l3.244-2.318  c0.746-0.535,1.785-0.362,2.318,0.384l0,0c0.534,0.747,0.362,1.783-0.385,2.319L22.153,45.059z"/>
<path d="M12.329,52.113c-0.707,0.594-1.759,0.501-2.349-0.205l0,0c-0.591-0.707-0.499-1.757,0.207-2.348l3.065-2.57  c0.706-0.592,1.757-0.499,2.348,0.206l0,0c0.592,0.706,0.5,1.754-0.207,2.349L12.329,52.113z"/>
<g>
	<path d="M100,18.328v-8c-19.636,0-22.542,2.165-31.688,11.338l-0.925,0.926l2.828,2.829l-5.577-5.577   c-5.663-5.663-14.843-5.663-20.506,0l31.112,31.113c5.662-5.663,5.662-14.844,0-20.506l-2.201-2.201l0.934-0.935   C81.743,19.525,82.938,18.328,100,18.328z"/>
</g>
</svg>