<svg xmlns="http://www.w3.org/2000/svg" xmlns:xlink="http://www.w3.org/1999/xlink" version="1.1" id="Layer_1" x="0px" y="0px" width="100px" height="100px" viewBox="0 0 100 100" enable-background="new 0 0 100 100" xml:space="preserve">
<g>
	<path fill="#000000" d="M79.521,54.25l1.102,2.407h2.48l-1.113-2.406L79.521,54.25L79.521,54.25z M78.785,52.643l0.381,0.827h4.369   c-0.27-1.395-2-2.945-3.203-3.239L78.785,52.643L78.785,52.643z M82.973,54.25l1.941,3.893c1.314-0.598,1.822-1.047,1.822-1.879   C86.736,55.32,85.686,54.205,82.973,54.25L82.973,54.25z M72.969,53.44c0,0.681,0.551,1.23,1.23,1.23c0.682,0,1.23-0.55,1.23-1.23   c0-0.679-0.549-1.231-1.23-1.231C73.52,52.209,72.969,52.762,72.969,53.44L72.969,53.44z M37.012,53.44   c0,0.681,0.551,1.23,1.23,1.23c0.681,0,1.232-0.55,1.232-1.23c0-0.679-0.552-1.231-1.232-1.231   C37.563,52.209,37.012,52.762,37.012,53.44L37.012,53.44z M46.001,53.44c0,0.681,0.55,1.23,1.231,1.23   c0.681,0,1.232-0.55,1.232-1.23c0-0.679-0.552-1.231-1.232-1.231C46.55,52.209,46.001,52.762,46.001,53.44L46.001,53.44z    M54.988,53.44c0,0.681,0.553,1.23,1.232,1.23c0.682,0,1.232-0.55,1.232-1.23c0-0.679-0.551-1.231-1.232-1.231   C55.541,52.209,54.988,52.762,54.988,53.44L54.988,53.44z M63.977,53.44c0,0.681,0.553,1.23,1.234,1.23c0.68,0,1.23-0.55,1.23-1.23   c0-0.679-0.551-1.231-1.23-1.231C64.529,52.209,63.977,52.762,63.977,53.44L63.977,53.44z M59.6,43.596   c0-0.174,0.438-0.314,0.98-0.314h17.26l0.215-0.483c0.104-0.156,0.76-0.263,1.555-0.263s1.453,0.105,1.547,0.243l0.223,0.502   h17.219c0.539,0,0.979,0.141,0.979,0.314c0,0.173-0.439,0.313-0.979,0.313H80.371v1.158c1.525,0.364,2.029,1.577,2.029,2.155v3.456   c1.018,0.813,1.684,1.766,1.879,2.792c2.014,0.712,3.24,1.649,3.24,2.678c0,2.206-3.625,3.996-10.572,4.012l-45.075,0.006   c-3.987-2.345-8.297-4.893-12.409-7.326V39.863h7.344v-1.444H1.755c-0.736,0-1.332-0.141-1.332-0.314   c0-0.173,0.596-0.314,1.332-0.314h24.041l0.21-0.475c0.104-0.157,0.762-0.264,1.557-0.264c0.796,0,1.452,0.105,1.547,0.241   l0.219,0.496h24.15c0.738,0,1.334,0.142,1.334,0.314c0,0.174-0.596,0.314-1.334,0.314H28.324v1.444h1.165l5.442,1.364   c1.762,0.396,2.97,1.351,3.622,3.342l1.111,3.482l31.474-0.01v-0.207c0-0.736,0.596-1.45,1.332-1.594l6.383-1.248V43.91H60.58   C60.037,43.91,59.6,43.769,59.6,43.596L59.6,43.596z M60.049,61.846c0-0.679,0.551-1.23,1.23-1.23s1.232,0.552,1.232,1.23   c0,0.683-0.553,1.233-1.232,1.233C60.6,63.078,60.049,62.526,60.049,61.846L60.049,61.846z M30.603,61.846   c0-0.679,0.552-1.23,1.232-1.23c0.68,0,1.23,0.552,1.23,1.23c0,0.683-0.551,1.233-1.23,1.233   C31.155,63.078,30.603,62.526,30.603,61.846L30.603,61.846z"/>
</g>
</svg>