<svg xmlns="http://www.w3.org/2000/svg" xmlns:xlink="http://www.w3.org/1999/xlink" version="1.1" id="Layer_1" x="0px" y="0px" width="100px" height="100px" viewBox="0 0 100 100" enable-background="new 0 0 100 100" xml:space="preserve">
<path d="M87,13.11C87,7.526,82.475,3,76.891,3H21.109C15.526,3,11,7.526,11,13.11v74.781C11,93.475,15.526,98,21.109,98h55.782  C82.475,98,87,93.475,87,87.891V13.11z M42,77H17v-7h25V77z M49.239,90.991c-2.792,0-5.055-2.263-5.055-5.056  s2.263-5.056,5.055-5.056c2.792,0,5.055,2.263,5.055,5.056S52.031,90.991,49.239,90.991z M49.239,76.837  c-2.792,0-5.055-2.263-5.055-5.054c0-2.792,2.263-5.055,5.055-5.055c2.792,0,5.055,2.263,5.055,5.055  C54.294,74.574,52.031,76.837,49.239,76.837z M63.395,90.991c-2.793,0-5.057-2.263-5.057-5.056s2.264-5.056,5.057-5.056  c2.791,0,5.055,2.263,5.055,5.056C68.448,88.729,66.186,90.991,63.395,90.991z M63.395,76.837c-2.793,0-5.057-2.263-5.057-5.054  c0-2.792,2.264-5.055,5.057-5.055c2.791,0,5.055,2.263,5.055,5.055C68.448,74.574,66.186,76.837,63.395,76.837z M77.547,90.991  c-2.792,0-5.055-2.263-5.055-5.056s2.263-5.056,5.055-5.056s5.055,2.263,5.055,5.056S80.339,90.991,77.547,90.991z M77.547,76.837  c-2.792,0-5.055-2.263-5.055-5.054c0-2.792,2.263-5.055,5.055-5.055s5.055,2.263,5.055,5.055  C82.602,74.574,80.339,76.837,77.547,76.837z M82,49.891C82,55.475,77.475,60,71.891,60H27.109C21.526,60,17,55.475,17,49.891  V24.109C17,18.526,21.526,14,27.109,14h44.782C77.475,14,82,18.526,82,24.109V49.891z"/>
<g>
	<path d="M26.377,42.765V37.65c-1.595-0.456-2.765-1.146-3.509-2.069c-0.745-0.923-1.117-2.044-1.117-3.363   c0-1.334,0.421-2.456,1.264-3.363c0.842-0.908,1.963-1.43,3.363-1.569v-1.208h1.77v1.208c1.294,0.155,2.323,0.596,3.088,1.325   c0.765,0.728,1.253,1.703,1.465,2.923l-3.088,0.403c-0.188-0.96-0.676-1.611-1.465-1.953v4.773   c1.953,0.529,3.284,1.214,3.992,2.057c0.708,0.842,1.062,1.922,1.062,3.241c0,1.473-0.445,2.714-1.337,3.723   c-0.891,1.009-2.13,1.628-3.717,1.855v2.283h-1.77v-2.222c-1.408-0.171-2.551-0.696-3.43-1.575s-1.44-2.12-1.685-3.723l3.186-0.342   c0.13,0.651,0.374,1.213,0.732,1.685C25.539,42.212,25.938,42.554,26.377,42.765z M26.377,29.948   c-0.48,0.163-0.863,0.439-1.147,0.83c-0.285,0.391-0.427,0.822-0.427,1.294c0,0.432,0.13,0.832,0.391,1.203   c0.26,0.37,0.655,0.669,1.184,0.897V29.948z M28.147,42.936c0.61-0.114,1.106-0.397,1.489-0.848   c0.382-0.452,0.574-0.983,0.574-1.593c0-0.545-0.161-1.015-0.482-1.41c-0.322-0.395-0.849-0.698-1.581-0.91V42.936z"/>
	<path d="M54.381,27.958l-0.721,3.381c-0.691-0.691-1.701-1.038-3.027-1.038s-2.401,0.476-3.223,1.428   c-0.464,0.537-0.793,1.208-0.989,2.014h6.713l-0.391,1.892h-6.567c-0.008,0.188-0.012,0.427-0.012,0.72   c0,0.285,0.008,0.582,0.024,0.891h6.213l-0.391,1.892h-5.566c0.203,0.871,0.517,1.555,0.94,2.051c0.813,0.96,1.872,1.44,3.174,1.44   c1.562,0,2.808-0.48,3.735-1.44v3.735c-1.058,0.529-2.291,0.793-3.699,0.793c-2.376,0-4.329-0.813-5.859-2.441   c-1.042-1.106-1.729-2.486-2.063-4.138h-1.807l0.391-1.892h1.196c-0.008-0.195-0.012-0.403-0.012-0.623   c0-0.374,0.008-0.704,0.024-0.989h-1.599l0.391-1.892h1.453c0.342-1.619,1.021-2.974,2.039-4.065   c1.538-1.644,3.56-2.466,6.067-2.466C52.184,27.213,53.371,27.462,54.381,27.958z"/>
	<path d="M74.303,41.935l1.318,2.905c-0.465,0.252-1,0.458-1.605,0.617c-0.606,0.158-1.194,0.238-1.764,0.238   c-0.732,0-1.709-0.173-2.93-0.519c-1.221-0.346-2.125-0.519-2.711-0.519c-0.992,0-2.006,0.354-3.039,1.062l-1.307-2.954   c0.92-0.659,1.581-1.361,1.984-2.106c0.402-0.744,0.604-1.454,0.604-2.13c0-0.22-0.016-0.452-0.049-0.696h-2.539v-2.698h1.917   c-0.334-0.96-0.501-1.933-0.501-2.917c0-0.887,0.242-1.733,0.727-2.539s1.17-1.418,2.057-1.837   c0.888-0.419,1.855-0.628,2.906-0.628c1.603,0,2.881,0.405,3.832,1.214c0.953,0.81,1.534,1.972,1.746,3.485l-3.309,0.488   c-0.154-0.871-0.435-1.497-0.842-1.88c-0.407-0.382-0.916-0.574-1.525-0.574c-0.651,0-1.192,0.218-1.624,0.653   c-0.432,0.436-0.647,0.983-0.647,1.642c0,0.342,0.06,0.793,0.178,1.355c0.117,0.562,0.262,1.074,0.434,1.538h3.809v2.698h-3.248   c0.025,0.179,0.037,0.358,0.037,0.537c0,0.643-0.122,1.237-0.366,1.782c-0.244,0.545-0.745,1.262-1.501,2.148   c0.447-0.228,1.009-0.342,1.684-0.342c0.285,0,0.542,0.017,0.77,0.049c0.114,0.017,0.447,0.094,1.001,0.232   c0.984,0.252,1.656,0.378,2.015,0.378C72.447,42.619,73.277,42.391,74.303,41.935z"/>
</g>
</svg>