<svg xmlns="http://www.w3.org/2000/svg" xmlns:xlink="http://www.w3.org/1999/xlink" version="1.1" id="Calque_1" x="0px" y="0px" width="100px" height="100px" viewBox="0 0 100 100" enable-background="new 0 0 100 100" xml:space="preserve">
<path d="M91.908,54.207c-0.008-0.071-0.088-0.644-0.443-1.513c-0.226-0.694-0.548-1.623-0.976-2.721  c-0.094-0.243-0.277-0.434-0.515-0.537c-0.425-0.184-1.152-0.609-1.96-1.141h0.431c0.343,0,0.662-0.181,0.837-0.478  c0.174-0.297,0.178-0.664,0.011-0.965l-1.249-2.249c-0.138-0.246-0.377-0.424-0.652-0.479c-0.289-0.059-0.568-0.071-0.868-0.072  c-0.962,0.003-2.21,0.173-3.152,0.326c-0.049-0.043-0.122-0.097-0.244-0.173c-0.088-0.043-0.232-0.103-0.434-0.103l0,0  c-0.064,0-0.089-0.008-0.095-0.011c-0.002-0.002-0.003-0.001-0.003-0.001c-0.001,0-0.004,0-0.039-0.039  c-0.144-0.114-0.314-0.729-0.757-1.427c0.337-0.727,0.754-1.65,1.173-2.631c0.477-1.12,0.955-2.315,1.322-3.4  c0.361-1.097,0.628-2.032,0.64-2.854c-0.007-0.312-0.026-0.634-0.25-1.012c-0.325-0.555-0.961-0.969-1.613-0.954  c-0.888,0.02-1.528,0.562-1.974,1.226c-0.448,0.681-0.719,1.569-0.721,2.591c0,0.128,0.005,0.261,0.016,0.397  c0.052,0.733,0.134,1.228,0.294,1.646c0.083,0.208,0.188,0.411,0.388,0.604c0.105,0.107,0.254,0.202,0.418,0.264  c-0.331,0.801-0.676,1.592-0.991,2.291c-0.069,0.155-0.137,0.303-0.202,0.447c-0.255-0.141-0.509-0.264-0.743-0.368  c-0.309-0.132-0.585-0.232-0.783-0.299c-0.213-0.198-0.444-0.259-0.61-0.333c-0.887-0.282-2.146-0.311-3.649-0.322  c-2.967,0.002-6.546,0.273-6.558,0.274c-0.264,0.019-0.503,0.142-0.671,0.345c-0.164,0.195-0.243,0.441-0.225,0.695h-0.001  c0,0,0,0,0.001,0.001c0,0.003,0,0.007,0.001,0.01c0,0.001,0,0.001,0,0.001c-0.004,0.059-0.008,0.391-0.33,0.841  c-0.323,0.449-0.999,1.063-2.51,1.57c-0.227,0.075-0.552,0.122-0.945,0.122c-1.703,0.016-4.42-0.866-6.712-1.164  c-0.218-0.029-0.433-0.04-0.637-0.04c-1.458-0.001-2.574,0.641-3.285,1.246c-0.086,0.073-0.167,0.146-0.242,0.218  c-0.694-0.863-1.826-2.193-3.218-3.534c-2.354-2.234-5.382-4.604-8.652-4.647c-1.677,0.002-3.115,0.289-4.122,0.566  c-0.083-0.177-0.218-0.326-0.39-0.427l-1.109-0.644l1.429-3.829h1.052l3.663,2.066c0.15,0.085,0.314,0.126,0.476,0.126  c0.339,0,0.668-0.178,0.847-0.494c0.264-0.467,0.099-1.059-0.367-1.322l-0.779-0.44l2.236,1.004  c0.489,0.219,1.063,0.001,1.283-0.488c0.221-0.489,0.002-1.064-0.487-1.283l-4.886-2.192c-0.14-0.064-0.299-0.093-0.452-0.084  l-2.94,0.166c-0.383,0.021-0.721,0.27-0.855,0.63l-0.43,1.152c-0.018,0-0.036-0.002-0.053-0.002  c-1.453-0.011-2.131,1.021-2.626,1.801c-0.457,0.688-0.821,1.235-1.574,1.477l-1.178-0.737l-1.301,2.08  c-0.124-0.113-0.24-0.222-0.352-0.321c-0.833-0.75-1.833,0-1.833,0s-0.566,1.083-0.566,3.199c0,2.117,0.566,3.05,0.566,3.05  l0.59-0.05c-0.093,0.196-0.147,0.413-0.146,0.633c0,0.75,0,1.417,0,1.417c0,0.26,0.101,0.503,0.285,0.687  c0.183,0.183,0.427,0.284,0.687,0.284h0.657l-1.771,3.337c-0.457,0.068-0.877,0.34-1.109,0.78l-0.225,0.427  c-1.478-0.574-3.083-0.893-4.764-0.894c-0.807,0-1.6,0.074-2.37,0.214c-0.677,0.123-1.195,0.599-1.414,1.202  c-4.964,1.599-8.555,6.251-8.556,11.746c0.001,6.815,5.523,12.338,12.34,12.34c6.128-0.002,11.208-4.468,12.173-10.322  c0.56-0.304,0.954-0.88,0.98-1.562h-0.001c0.007-0.156,0.009-0.309,0.009-0.454c0-2.008-0.452-3.908-1.255-5.61  c0.159-0.867,0.235-1.662,0.234-2.39c-0.011-2.872-0.963-4.744-0.951-7.207c0.001-0.73,0.082-1.524,0.289-2.425l1.406,0.562  c0.116,0.463,0.311,1.196,0.57,2c0.431,1.281,0.931,2.693,1.765,3.652c0.108,0.25,0.357,0.836,0.696,1.705  c0.447,1.147,1.043,2.773,1.649,4.712c-0.008,0.155-0.01,0.309-0.01,0.458c0.003,2.129,0.629,4.315,1.662,6.123  c1.038,1.796,2.49,3.27,4.344,3.744c1.629,0.4,3.49,0.554,5.457,0.555c5.064-0.005,10.861-1.029,14.73-1.857  c1.669,4.838,6.258,8.314,11.665,8.316c6.814-0.002,12.337-5.524,12.338-12.34c-0.001-6.815-5.523-12.338-12.338-12.34  c-1.829,0-3.563,0.401-5.124,1.115l-0.35-0.501c-0.01-0.014-0.022-0.024-0.033-0.038c0.283-0.202,0.565-0.35,0.843-0.427  c1.791-0.563,4.37-0.876,6.828-0.873c2.609-0.011,5.14,0.372,6.373,0.987c1.491,0.724,2.377,1.034,2.911,1.287  c0.525,0.259,0.717,0.383,1.284,1.045c0.787,0.94,1.241,1.783,1.506,2.407c0.02,0.061,0.038,0.119,0.057,0.175  c0.217,0.679,0.312,1.043,0.312,1.043c0.13,0.492,0.622,0.802,1.122,0.706C91.629,55.183,91.971,54.712,91.908,54.207z   M67.398,59.519l-0.778,0.18c0.057-0.503,0.158-0.992,0.296-1.467l1.489,0.638C68.06,59.04,67.718,59.247,67.398,59.519z   M33.747,36.922l0.451,0.262l-1.563,2.66l-0.737,0.562L33.747,36.922z M71.962,57.13l-3.726-1.597  c0.43-0.596,0.927-1.139,1.488-1.609L71.962,57.13z M31.447,34.266c0.666-0.426,1.083-1.046,1.411-1.558  c0.128-0.191,0.243-0.363,0.355-0.519l1.057-0.682l-1.17,3.134c-0.001,0-0.002,0-0.003,0c-0.253,0.072-0.468,0.245-0.591,0.479  l-1.02,1.92c-0.315-0.1-0.606-0.207-0.874-0.319l1.339-2.14L31.447,34.266z M29.604,40.584l-0.296,0.557  c-0.041-0.083-0.079-0.17-0.128-0.249c-0.057-0.091-0.124-0.176-0.194-0.256L29.604,40.584z M22.457,60.766  c-0.002,1.362-1.106,2.466-2.47,2.468c-1.364-0.002-2.467-1.105-2.471-2.468c0.003-1.204,0.866-2.203,2.008-2.421l-0.869,1.648  c-0.385,0.732-0.104,1.641,0.63,2.026c0.223,0.118,0.462,0.174,0.697,0.174c0.538,0,1.06-0.292,1.328-0.802l0.892-1.693  C22.36,60.022,22.457,60.382,22.457,60.766z M19.985,69.531c-4.882-0.009-8.83-3.958-8.839-8.839  c0.009-4.882,3.957-8.831,8.839-8.84c0.953,0.002,1.868,0.158,2.728,0.438l-2.133,4.051c-0.194-0.026-0.391-0.044-0.593-0.044  c-2.467,0.001-4.47,1.999-4.47,4.469c0,2.469,2.003,4.468,4.47,4.468c2.468,0,4.469-1.999,4.471-4.468h-0.001  c0-1.181-0.462-2.252-1.21-3.05l2.117-4.021c2.097,1.615,3.454,4.144,3.459,6.997C28.815,65.573,24.867,69.522,19.985,69.531z   M27.404,49.822l0.225-0.427c0.193-0.367,0.219-0.778,0.104-1.146l2.676-5.04c-0.164,0.824-0.233,1.577-0.233,2.276  c0.014,2.738,0.964,4.597,0.951,7.207c0,0.298-0.015,0.609-0.041,0.932C30.126,52.123,28.873,50.827,27.404,49.822z M75.398,51.853  c4.881,0.009,8.829,3.958,8.838,8.84c-0.009,4.881-3.957,8.831-8.838,8.839c-3.742-0.006-6.928-2.331-8.22-5.612  c0.353-0.088,0.617-0.156,0.771-0.197c0.569,0.037,2.576,0.16,4.271,0.18c0.812,0.821,1.937,1.332,3.182,1.332  c1.725,0,3.218-0.978,3.964-2.407c1.448-0.304,2.541-0.553,2.544-0.554c0.52-0.119,0.848-0.637,0.732-1.156l-0.75-3.393  c-0.11-0.495-0.584-0.823-1.085-0.751l-2.542,0.363c-0.775-0.648-1.773-1.039-2.863-1.039c-0.118,0-0.235,0.009-0.352,0.018  l-2.721-3.899C73.287,52.06,74.317,51.854,75.398,51.853z"/>
</svg>