<?xml version="1.0" encoding="utf-8"?>
<!-- Generator: Adobe Illustrator 14.0.0, SVG Export Plug-In . SVG Version: 6.00 Build 43363)  -->
<!DOCTYPE svg PUBLIC "-//W3C//DTD SVG 1.0//EN" "http://www.w3.org/TR/2001/REC-SVG-20010904/DTD/svg10.dtd">
<svg version="1.0" id="Layer_1" xmlns="http://www.w3.org/2000/svg" xmlns:xlink="http://www.w3.org/1999/xlink" x="0px" y="0px"
	 width="62.815px" height="100px" viewBox="0 0 62.815 100" enable-background="new 0 0 62.815 100" xml:space="preserve">
<path d="M35.297,70.193c15.489-1.924,27.518-15.158,27.518-31.16c0-8.512-3.409-16.238-8.928-21.901
	c1.538-2.226,2.372-4.856,2.372-7.618c0-3.592-1.4-6.972-3.945-9.514l-5.498,5.503c1.072,1.072,1.663,2.498,1.663,4.011
	c0,0.969-0.266,1.89-0.72,2.717c-4.767-2.919-10.366-4.604-16.352-4.604c-5.986,0-11.585,1.686-16.352,4.604
	c-0.455-0.827-0.72-1.748-0.72-2.717C14.335,8,14.926,6.575,16,5.501l-5.501-5.5C7.956,2.543,6.555,5.922,6.555,9.514
	c0,2.762,0.834,5.393,2.372,7.618C3.409,22.795,0,30.521,0,39.033c0,16.002,12.03,29.236,27.517,31.16v9.191H7.015v7.78h20.502V100
	h7.78V87.165h20.502v-7.78H35.297V70.193z M7.78,39.033c0-13.028,10.599-23.627,23.627-23.627s23.627,10.599,23.627,23.627
	c0,13.029-10.6,23.63-23.627,23.63S7.78,52.062,7.78,39.033z"/>
</svg>
