<svg xmlns="http://www.w3.org/2000/svg" xmlns:xlink="http://www.w3.org/1999/xlink" version="1.1" id="Calque_1" x="0px" y="0px" width="100px" height="100px" viewBox="0 0 100 100" enable-background="new 0 0 100 100" xml:space="preserve">
<g>
	<path d="M82.944,57.575c0-0.176-0.003-0.351-0.01-0.524c-0.007-0.17-0.102-0.309-0.233-0.396c-0.019-0.247-0.044-0.493-0.076-0.737   c0.112-0.111,0.177-0.267,0.15-0.434c-0.028-0.174-0.061-0.346-0.096-0.517c-0.035-0.167-0.152-0.29-0.297-0.353   c-0.059-0.242-0.123-0.481-0.195-0.717c0.093-0.129,0.132-0.292,0.077-0.452c-0.057-0.167-0.117-0.331-0.181-0.495   c-0.062-0.16-0.199-0.262-0.354-0.299c-0.097-0.227-0.201-0.447-0.311-0.666c0.073-0.143,0.087-0.314,0.005-0.468   c-0.084-0.154-0.17-0.307-0.259-0.457c-0.09-0.151-0.246-0.229-0.409-0.238c-0.13-0.203-0.265-0.401-0.406-0.596   c0.054-0.155,0.039-0.331-0.069-0.471c-0.107-0.138-0.217-0.275-0.33-0.409c-0.114-0.137-0.284-0.188-0.449-0.168   c-0.159-0.175-0.323-0.345-0.492-0.512c0.031-0.165-0.012-0.34-0.143-0.462c-0.128-0.119-0.259-0.236-0.392-0.351   c-0.14-0.12-0.323-0.141-0.485-0.087c-0.181-0.143-0.365-0.281-0.554-0.414c0.01-0.172-0.062-0.346-0.216-0.449H77.22   c-0.145-0.097-0.292-0.191-0.442-0.282c-0.161-0.098-0.353-0.088-0.506-0.002c-0.197-0.108-0.396-0.213-0.6-0.312   c-0.015-0.177-0.115-0.341-0.288-0.419c-0.158-0.072-0.32-0.141-0.482-0.205c-0.181-0.072-0.375-0.027-0.514,0.091   c-0.205-0.072-0.412-0.139-0.622-0.2c-0.038-0.181-0.17-0.335-0.36-0.385c-0.168-0.045-0.34-0.086-0.511-0.124   c-0.197-0.043-0.39,0.038-0.505,0.188c-0.207-0.036-0.414-0.067-0.624-0.092c-0.063-0.181-0.225-0.318-0.428-0.337   c-0.173-0.017-0.348-0.03-0.523-0.038c-0.208-0.012-0.392,0.105-0.479,0.28c-0.036,0-0.072-0.003-0.108-0.003   c-0.168,0-0.335,0.006-0.502,0.013c-0.089-0.176-0.276-0.291-0.485-0.277c-0.176,0.012-0.351,0.028-0.522,0.047   c-0.212,0.023-0.377,0.174-0.431,0.368c-0.199,0.031-0.396,0.066-0.593,0.106c-0.115-0.166-0.322-0.255-0.53-0.205   c-0.17,0.041-0.34,0.085-0.509,0.132c-0.211,0.059-0.347,0.245-0.361,0.451c-0.188,0.062-0.375,0.129-0.56,0.2   c-0.14-0.154-0.363-0.216-0.567-0.13h0.002c-0.163,0.068-0.323,0.139-0.481,0.215c-0.203,0.095-0.306,0.307-0.28,0.518   c-0.118,0.062-0.235,0.126-0.351,0.192l-1.475-2.174c1.756-1.264,4.174-2.325,7.349-2.32c0.096,0,0.188,0,0.279,0.002   c0.392,0.011,0.719-0.299,0.729-0.691c0.011-0.392-0.3-0.719-0.691-0.729c-0.112-0.004-0.218-0.004-0.317-0.004   c-3.416-0.001-6.066,1.118-8.007,2.47l3.917-7.126c1.225,0.017,2.362-0.013,2.722-0.064c0.875-0.125,1.208-2.166,0.875-2.666   s-3.125,0.041-4.5,0.041s-7.25-0.375-6.875,0.625s3.875,1.125,4,1.625c0.041,0.167,0.682,0.277,1.547,0.347l-3.534,6.429   c-0.025,0.014-0.051,0.024-0.075,0.041c-0.301,0.204-0.451,0.544-0.433,0.883l-2.958,5.382c-0.021-0.014-0.04-0.03-0.062-0.042   l-17.526-9.155c0.214-0.763,0.342-1.226,0.342-1.228c0.088-0.315,0.013-0.656-0.197-0.908c0,0-0.141-0.167-0.367-0.47   c-0.341-0.452-0.855-1.187-1.268-1.964c-0.419-0.771-0.704-1.603-0.694-2.094c0.005-0.183,0.03-0.298,0.072-0.389   c0.418,0.084,0.966,0.214,1.53,0.354c0.003,0,0.007,0.001,0.01,0.002c0.113,0.227,0.29,0.603,0.652,0.938   c0.474,0.436,1.23,0.738,2.411,0.738c0.007,0,0.014,0,0.021,0c0.322,0,0.681-0.021,1.079-0.067c0.273-0.031,0.472-0.278,0.44-0.553   c-0.031-0.274-0.278-0.472-0.553-0.44c-0.367,0.041-0.688,0.06-0.967,0.06c-0.865-0.013-1.318-0.162-1.599-0.353   c0.562,0.104,1.128,0.178,1.674,0.18c0.258,0,0.514-0.017,0.771-0.062c0.544-0.097,0.907-0.615,0.811-1.159   c-0.097-0.543-0.614-0.908-1.158-0.81c-0.11,0.019-0.255,0.03-0.424,0.03c-0.689,0.005-1.727-0.212-2.702-0.448   c-1-0.232-1.876-0.491-2.666-0.505c-0.236,0.006-0.49,0.012-0.827,0.184c-0.35,0.146-0.69,0.687-0.655,1.095   c0,0.085,0.012,0.164,0.021,0.208c0.009,0.044,0.012,0.044,0.011,0.044c0.025,0.101,0.069,0.191,0.12,0.276   c-0.05,0.228-0.074,0.457-0.072,0.677c0.023,1.448,0.761,2.799,1.432,3.905c0.388,0.622,0.77,1.146,1.03,1.487   c-0.246,0.883-0.801,2.865-1.454,5.118c-1.646-0.772-3.633-1.304-5.986-1.302c-0.103,0-0.207,0-0.316,0.003   c-0.393,0.011-0.702,0.338-0.691,0.729c0.012,0.393,0.338,0.703,0.73,0.691c0.088-0.002,0.18-0.002,0.277-0.002   c2.23,0.001,4.075,0.518,5.584,1.26c-0.015,0.05-0.029,0.1-0.044,0.15c-0.141,0.477-0.283,0.957-0.426,1.434   c-0.045-0.022-0.088-0.046-0.133-0.068c-0.015-0.176-0.115-0.341-0.289-0.419c-0.158-0.071-0.319-0.139-0.481-0.205   c-0.181-0.072-0.375-0.028-0.514,0.091c-0.205-0.072-0.413-0.139-0.623-0.201c-0.039-0.18-0.169-0.334-0.36-0.384   c-0.168-0.044-0.339-0.085-0.511-0.124c-0.196-0.043-0.389,0.038-0.505,0.188c-0.206-0.036-0.414-0.067-0.624-0.093   c-0.063-0.18-0.224-0.317-0.427-0.337c-0.174-0.016-0.349-0.028-0.524-0.038c-0.207-0.01-0.391,0.105-0.478,0.28   c-0.036,0-0.071-0.003-0.107-0.003c-0.169,0-0.337,0.006-0.504,0.013c-0.089-0.176-0.276-0.291-0.484-0.275   c-0.177,0.012-0.351,0.027-0.524,0.047c-0.211,0.023-0.375,0.174-0.429,0.367c-0.199,0.031-0.397,0.066-0.593,0.107   c-0.115-0.166-0.321-0.255-0.529-0.205c-0.171,0.041-0.341,0.084-0.509,0.132c-0.21,0.059-0.347,0.244-0.362,0.451   c-0.189,0.062-0.375,0.129-0.56,0.2c-0.14-0.155-0.363-0.217-0.566-0.131h0.001c-0.163,0.069-0.323,0.141-0.481,0.215   c-0.203,0.095-0.306,0.307-0.28,0.518c-0.173,0.091-0.344,0.187-0.512,0.286c-0.164-0.137-0.399-0.166-0.589-0.046h-0.002   c-0.148,0.095-0.293,0.191-0.438,0.29c-0.187,0.13-0.252,0.362-0.187,0.568c-0.154,0.117-0.305,0.237-0.454,0.36   c-0.185-0.115-0.427-0.107-0.597,0.045c-0.131,0.116-0.26,0.235-0.386,0.357c-0.167,0.162-0.19,0.406-0.084,0.601   c-0.132,0.139-0.261,0.28-0.386,0.425c-0.203-0.091-0.447-0.046-0.595,0.135c-0.109,0.137-0.218,0.275-0.321,0.415   c-0.141,0.188-0.122,0.438,0.019,0.612c-0.106,0.157-0.209,0.317-0.309,0.478c-0.218-0.06-0.455,0.022-0.572,0.229h0.002   c-0.087,0.152-0.17,0.305-0.251,0.461c-0.108,0.212-0.046,0.459,0.127,0.607c-0.079,0.171-0.155,0.344-0.226,0.519   c-0.228-0.028-0.452,0.093-0.534,0.316c-0.061,0.165-0.117,0.33-0.171,0.497c-0.074,0.229,0.031,0.465,0.229,0.581   c-0.05,0.181-0.095,0.362-0.137,0.546c-0.231,0.007-0.437,0.164-0.481,0.4c-0.031,0.172-0.061,0.345-0.086,0.519   c-0.036,0.237,0.106,0.453,0.323,0.535c-0.02,0.185-0.034,0.371-0.045,0.558c-0.228,0.046-0.405,0.234-0.411,0.475h0.001   c-0.002,0.102-0.003,0.203-0.003,0.305c0,0.073,0,0.147,0.001,0.221c0.004,0.241,0.179,0.431,0.406,0.478   c0.01,0.187,0.023,0.374,0.042,0.559c-0.216,0.081-0.36,0.296-0.325,0.534c0.024,0.174,0.053,0.348,0.083,0.52   c0.043,0.236,0.248,0.402,0.479,0.41c0.041,0.182,0.084,0.361,0.132,0.539c-0.199,0.116-0.304,0.35-0.232,0.58   c0.052,0.168,0.108,0.334,0.168,0.499c0.073,0.205,0.267,0.334,0.475,0.334c0.02,0,0.039-0.009,0.06-0.011   c0.07,0.174,0.144,0.347,0.222,0.518c-0.176,0.146-0.239,0.395-0.132,0.606c0.08,0.157,0.162,0.312,0.248,0.464   c0.093,0.166,0.265,0.259,0.441,0.259c0.044,0,0.088-0.007,0.132-0.019c0.098,0.16,0.199,0.316,0.303,0.473   c-0.142,0.174-0.163,0.423-0.023,0.613v-0.001c0.104,0.142,0.21,0.28,0.32,0.417c0.1,0.125,0.246,0.189,0.395,0.189   c0.069,0,0.137-0.02,0.202-0.049c0.124,0.145,0.25,0.286,0.38,0.425c-0.108,0.194-0.086,0.439,0.08,0.603   c0.125,0.123,0.254,0.242,0.384,0.359c0.097,0.087,0.217,0.13,0.337,0.13c0.092,0,0.18-0.034,0.26-0.085   c0.148,0.125,0.299,0.246,0.453,0.365c-0.068,0.205-0.005,0.438,0.183,0.569v0.001c0.143,0.1,0.289,0.197,0.436,0.291   c0.085,0.055,0.18,0.08,0.272,0.08c0.117,0,0.231-0.042,0.322-0.119c0.166,0.1,0.334,0.195,0.505,0.286   c-0.027,0.21,0.074,0.424,0.277,0.521h-0.002c0.158,0.074,0.317,0.146,0.479,0.216c0.064,0.028,0.132,0.041,0.198,0.041   c0.142,0,0.277-0.062,0.374-0.167c0.182,0.07,0.366,0.139,0.552,0.201c0.012,0.207,0.147,0.395,0.359,0.455v0.001   c0.168,0.048,0.337,0.093,0.508,0.136c0.04,0.01,0.08,0.014,0.119,0.014c0.166,0,0.321-0.084,0.415-0.219   c0.195,0.041,0.391,0.077,0.589,0.109c0.051,0.195,0.215,0.349,0.427,0.373c0.174,0.021,0.348,0.038,0.523,0.051   c0.013,0.001,0.025,0.002,0.038,0.002c0.193,0,0.363-0.111,0.447-0.275c0.194,0.01,0.39,0.016,0.587,0.016   c0.009,0,0.018-0.001,0.027-0.001c0.083,0.167,0.253,0.282,0.451,0.282c0.008,0,0.016,0,0.023,0   c0.176-0.007,0.35-0.019,0.524-0.034c0.202-0.019,0.365-0.155,0.43-0.335c0.21-0.024,0.418-0.054,0.625-0.088   c0.095,0.123,0.239,0.203,0.398,0.203c0.035,0,0.07-0.004,0.105-0.012c0.172-0.037,0.341-0.077,0.511-0.12   c0.191-0.05,0.324-0.204,0.363-0.385c0.209-0.06,0.417-0.126,0.621-0.196c0.092,0.081,0.208,0.131,0.331,0.131   c0.062,0,0.125-0.012,0.186-0.035h-0.001c0.163-0.064,0.326-0.132,0.486-0.202c0.174-0.077,0.276-0.243,0.292-0.421   c0.202-0.096,0.4-0.195,0.595-0.302c0.078,0.045,0.165,0.069,0.254,0.069s0.178-0.023,0.259-0.071   c0.15-0.092,0.299-0.184,0.445-0.281c0.155-0.101,0.228-0.274,0.219-0.448c0.189-0.131,0.374-0.268,0.555-0.41   c0.053,0.018,0.106,0.035,0.161,0.035c0.116,0,0.232-0.039,0.327-0.12c0.135-0.113,0.264-0.229,0.394-0.347   c0.133-0.123,0.176-0.299,0.145-0.465c0.168-0.164,0.333-0.332,0.493-0.506c0.023,0.004,0.045,0.012,0.068,0.012   c0.144,0,0.285-0.061,0.385-0.178c0.114-0.133,0.224-0.27,0.332-0.407c0.108-0.139,0.124-0.313,0.071-0.468   c0.142-0.191,0.276-0.389,0.406-0.588c0.164-0.006,0.322-0.09,0.414-0.242h0.001c0.09-0.149,0.177-0.301,0.261-0.455   c0.083-0.151,0.07-0.324-0.003-0.467c0.109-0.215,0.213-0.434,0.311-0.656c0.157-0.035,0.295-0.141,0.358-0.302l0.002-0.001   c0.063-0.162,0.123-0.326,0.182-0.492c0.056-0.16,0.019-0.324-0.072-0.453c0.073-0.233,0.139-0.471,0.199-0.709   c0.146-0.062,0.262-0.188,0.298-0.355c0.036-0.171,0.07-0.343,0.1-0.516c0.028-0.166-0.035-0.322-0.146-0.434   c0.034-0.245,0.061-0.492,0.08-0.741c0.132-0.085,0.227-0.224,0.234-0.391c0.009-0.175,0.013-0.35,0.015-0.525   c0-0.013-0.001-0.025-0.002-0.038c0.002-0.016,0.003-0.031,0.003-0.047h-0.001c0-0.177-0.004-0.351-0.01-0.525   c-0.007-0.17-0.102-0.309-0.233-0.395c-0.018-0.248-0.043-0.494-0.076-0.739c0.111-0.11,0.175-0.266,0.148-0.433   c-0.028-0.174-0.061-0.346-0.096-0.517c-0.034-0.167-0.151-0.288-0.296-0.353c-0.059-0.242-0.122-0.481-0.195-0.718   c0.092-0.128,0.13-0.292,0.076-0.452c-0.057-0.166-0.117-0.331-0.181-0.494c-0.062-0.159-0.198-0.261-0.352-0.299   c-0.097-0.227-0.202-0.448-0.312-0.667c0.074-0.144,0.086-0.314,0.004-0.467v0.001c-0.083-0.155-0.169-0.308-0.258-0.458   c-0.09-0.151-0.246-0.23-0.409-0.239c-0.13-0.203-0.266-0.402-0.407-0.596c0.054-0.155,0.04-0.33-0.067-0.47h-0.002   c-0.106-0.138-0.216-0.275-0.329-0.409c-0.114-0.136-0.284-0.187-0.448-0.167c-0.16-0.176-0.325-0.347-0.494-0.513   c0.031-0.165-0.011-0.34-0.142-0.462c-0.129-0.119-0.26-0.235-0.392-0.35c-0.14-0.119-0.323-0.141-0.485-0.087   c-0.138-0.109-0.277-0.216-0.42-0.319c0.159-0.526,0.317-1.06,0.475-1.591c0.41,0.296,0.786,0.603,1.127,0.911   c0.896,0.81,1.55,1.625,1.976,2.231c0.213,0.303,0.368,0.554,0.469,0.726c0.103,0.172,0.141,0.252,0.141,0.252   c0.125,0.25,0.376,0.394,0.638,0.394c0.1,0,0.199-0.023,0.295-0.067l6.523,6.861c-0.415,0.648-0.659,1.417-0.659,2.244   c0,1.826,1.174,3.373,2.807,3.94l-0.069,0.302c-0.034,0.147,0.001,0.305,0.098,0.424c0.094,0.117,0.238,0.188,0.391,0.188h2.144   c0.275,0,0.499-0.224,0.499-0.499c0-0.19-0.11-0.351-0.268-0.435c0.295-0.107,0.574-0.246,0.833-0.413l4.189-0.722   c0.067,0.031,0.139,0.053,0.214,0.053c0.02,0,0.04-0.008,0.06-0.01c0.07,0.174,0.145,0.347,0.222,0.518   c-0.176,0.146-0.239,0.394-0.131,0.606c0.079,0.157,0.161,0.312,0.248,0.465c0.092,0.165,0.264,0.258,0.44,0.258   c0.044,0,0.089-0.007,0.133-0.019c0.097,0.16,0.198,0.316,0.302,0.472c-0.142,0.175-0.162,0.424-0.022,0.614   c0.104,0.141,0.211,0.279,0.319,0.416c0.1,0.125,0.247,0.189,0.395,0.189c0.069,0,0.137-0.02,0.202-0.048   c0.124,0.144,0.25,0.285,0.38,0.424c-0.107,0.194-0.086,0.44,0.08,0.604h0.001c0.125,0.121,0.253,0.241,0.383,0.358   c0.097,0.087,0.218,0.129,0.338,0.129c0.092,0,0.18-0.033,0.26-0.083c0.148,0.124,0.299,0.246,0.453,0.364   c-0.069,0.205-0.006,0.438,0.182,0.57c0.143,0.1,0.289,0.197,0.437,0.292c0.084,0.054,0.178,0.079,0.271,0.079   c0.117,0,0.23-0.043,0.322-0.119c0.166,0.1,0.334,0.195,0.506,0.286c-0.028,0.21,0.073,0.423,0.275,0.52   c0.158,0.075,0.317,0.148,0.478,0.217c0.064,0.028,0.133,0.041,0.199,0.041c0.142,0,0.277-0.062,0.373-0.167   c0.183,0.07,0.366,0.139,0.553,0.201c0.013,0.207,0.147,0.395,0.358,0.455c0.169,0.049,0.338,0.094,0.509,0.136   c0.04,0.011,0.08,0.015,0.119,0.015c0.167,0,0.321-0.084,0.414-0.219c0.195,0.041,0.392,0.077,0.589,0.109   c0.052,0.195,0.215,0.348,0.428,0.373c0.173,0.021,0.348,0.038,0.523,0.051c0.013,0.001,0.026,0.002,0.039,0.002   c0.192,0,0.362-0.111,0.446-0.275c0.194,0.009,0.389,0.015,0.585,0.015c0.01,0,0.019-0.001,0.028-0.001   c0.083,0.168,0.255,0.284,0.453,0.284c0.007,0,0.015,0,0.021-0.001c0.176-0.008,0.351-0.019,0.523-0.033   c0.204-0.019,0.366-0.156,0.431-0.336c0.21-0.025,0.419-0.055,0.625-0.089c0.094,0.124,0.238,0.203,0.398,0.203   c0.034,0,0.07-0.004,0.105-0.011c0.171-0.037,0.342-0.077,0.511-0.119c0.192-0.051,0.325-0.205,0.363-0.387   c0.21-0.06,0.416-0.125,0.621-0.195c0.092,0.081,0.207,0.131,0.331,0.131c0.062,0,0.125-0.011,0.186-0.035h-0.001   c0.164-0.063,0.326-0.132,0.487-0.203c0.174-0.078,0.276-0.242,0.291-0.42c0.201-0.096,0.4-0.195,0.596-0.303   c0.077,0.045,0.164,0.07,0.254,0.07c0.088,0,0.177-0.023,0.258-0.071c0.151-0.091,0.299-0.185,0.446-0.28   c0.154-0.102,0.227-0.275,0.218-0.449c0.189-0.131,0.374-0.268,0.555-0.41c0.053,0.018,0.106,0.035,0.162,0.035   c0.115,0,0.231-0.039,0.326-0.12c0.135-0.113,0.266-0.229,0.394-0.348c0.133-0.122,0.177-0.298,0.146-0.464   c0.169-0.164,0.333-0.332,0.492-0.505c0.023,0.003,0.046,0.012,0.068,0.012c0.144,0,0.285-0.061,0.385-0.178   c0.113-0.135,0.225-0.271,0.333-0.408c0.108-0.139,0.123-0.313,0.071-0.469c0.141-0.19,0.275-0.388,0.405-0.587   c0.165-0.006,0.324-0.09,0.415-0.242c0.09-0.149,0.177-0.301,0.261-0.455c0.083-0.151,0.07-0.324-0.003-0.467   c0.109-0.215,0.213-0.434,0.311-0.655c0.157-0.036,0.296-0.142,0.36-0.304s0.125-0.326,0.183-0.492   c0.056-0.16,0.019-0.325-0.073-0.453c0.073-0.234,0.139-0.471,0.198-0.709c0.146-0.062,0.264-0.188,0.3-0.355   c0.036-0.171,0.069-0.343,0.099-0.517c0.028-0.167-0.035-0.322-0.146-0.435c0.033-0.243,0.06-0.489,0.079-0.737   c0.132-0.085,0.228-0.224,0.236-0.393c0.008-0.175,0.013-0.35,0.014-0.525c0-0.015,0-0.029-0.001-0.044   C82.944,57.604,82.944,57.59,82.944,57.575z M39.47,57.575c-0.01,5.564-4.51,10.065-10.072,10.075   c-5.563-0.01-10.064-4.511-10.075-10.075c0.011-5.562,4.512-10.062,10.075-10.073c0.567,0.001,1.121,0.061,1.663,0.151   c0.131,0.251,0.405,0.41,0.705,0.379h-0.001c0,0,0.038-0.004,0.141-0.004c0.312-0.012,0.952,0.096,1.189,0.391   c0.141,0.152,0.332,0.229,0.524,0.229c0.098,0,0.194-0.026,0.285-0.066c0.115,0.058,0.232,0.111,0.345,0.172   c-0.157,0.504-0.311,0.988-0.457,1.439c-0.481,1.505-0.947,2.739-1.091,2.96c-0.662,1.126-1.527,1.983-2.284,2.583   c-0.325-0.195-0.702-0.315-1.109-0.315c-1.19,0-2.156,0.965-2.156,2.155s0.966,2.155,2.156,2.155s2.156-0.965,2.156-2.155   c0-0.038-0.009-0.074-0.011-0.111c0.947-0.719,2.079-1.793,2.973-3.299c0.359-0.635,0.75-1.777,1.269-3.354   c0.089-0.274,0.181-0.56,0.273-0.854C38.105,51.805,39.464,54.527,39.47,57.575z M80.302,57.576   C80.291,63.14,75.791,67.64,70.228,67.65c-4.08-0.008-7.581-2.436-9.165-5.924l9.129-1.572c0.014,0,0.026,0.004,0.039,0.004   c1.427,0,2.583-1.155,2.583-2.582c0-1.426-1.156-2.582-2.583-2.582c-0.174,0-0.344,0.019-0.509,0.051l-3.911-5.764   c0.111-0.052,0.211-0.132,0.286-0.241c0.139-0.214,0.438-0.385,0.74-0.474c0.148-0.046,0.288-0.072,0.387-0.087   c0.098-0.014,0.134-0.013,0.134-0.014c0.383-0.017,0.679-0.334,0.677-0.713c0.707-0.158,1.438-0.249,2.193-0.25   C75.791,47.513,80.291,52.014,80.302,57.576z M55.312,57.017l2.144-0.05c-0.07,0.084-0.119,0.188-0.122,0.306h0.001   c-0.003,0.101-0.004,0.201-0.004,0.303c0,0.074,0,0.148,0.001,0.222c0.005,0.241,0.18,0.431,0.406,0.477   c0.011,0.188,0.024,0.375,0.043,0.561c-0.217,0.081-0.359,0.295-0.326,0.533c0.024,0.174,0.052,0.348,0.084,0.519   c0.043,0.238,0.247,0.403,0.479,0.412c0.036,0.165,0.074,0.329,0.117,0.491l-2.479,0.426c0.264-0.547,0.415-1.156,0.416-1.805   C56.071,58.52,55.789,57.694,55.312,57.017z M63.779,49.848l3.707,5.464l-7.105,0.165C60.859,53.232,62.082,51.267,63.779,49.848z    M60.154,57.576c0.001-0.227,0.021-0.449,0.035-0.674l7.614-0.176c-0.094,0.268-0.155,0.551-0.155,0.85   c0,0.557,0.181,1.07,0.48,1.492l-7.569,1.303C60.303,59.482,60.156,58.547,60.154,57.576z M62.402,47.818   c-0.059,0.048-0.119,0.095-0.177,0.143c-0.186-0.115-0.428-0.108-0.598,0.044c-0.131,0.117-0.26,0.236-0.386,0.357   c-0.167,0.161-0.19,0.407-0.084,0.602c-0.132,0.139-0.26,0.28-0.385,0.424c-0.204-0.091-0.447-0.046-0.595,0.135   c-0.11,0.136-0.218,0.273-0.322,0.415c-0.14,0.188-0.122,0.437,0.02,0.612c-0.106,0.157-0.209,0.316-0.309,0.478   c-0.218-0.06-0.455,0.023-0.572,0.228h0.001c-0.087,0.152-0.169,0.306-0.25,0.463c-0.109,0.212-0.046,0.458,0.127,0.606   c-0.079,0.171-0.154,0.344-0.227,0.519c-0.227-0.028-0.451,0.093-0.533,0.317h-0.001c-0.061,0.164-0.117,0.329-0.171,0.496   c-0.073,0.229,0.031,0.465,0.23,0.581c-0.05,0.181-0.096,0.362-0.137,0.546c-0.231,0.007-0.436,0.163-0.481,0.4   c-0.022,0.118-0.041,0.238-0.06,0.357l-2.359,0.056l4.427-8.054c0.354-0.491,0.846-1.099,1.483-1.726L62.402,47.818z M55.62,50.494   c0.011,0.005,0.021,0.007,0.031,0.012l-2.354,4.281c-0.018-0.064-0.045-0.125-0.087-0.178c-0.095-0.117-0.237-0.186-0.389-0.186   h-1.741c-0.276,0-0.5,0.224-0.5,0.5c0,0.199,0.117,0.366,0.285,0.447c-0.367,0.094-0.714,0.232-1.034,0.416L38.12,43.471   c-0.052-0.055-0.109-0.101-0.169-0.141c0.183-0.635,0.356-1.24,0.515-1.797L55.62,50.494z M49.723,59.41   c0.003-1.199,0.974-2.172,2.175-2.172c1.2,0,2.172,0.973,2.174,2.172c-0.002,1.18-0.94,2.132-2.11,2.168l0.344-1.503   c0.189-0.125,0.316-0.339,0.316-0.583c0-0.384-0.312-0.696-0.696-0.696c-0.385,0-0.697,0.312-0.697,0.696   c0,0.133,0.039,0.254,0.103,0.359l-0.349,1.523C50.24,61.028,49.725,60.283,49.723,59.41z"/>
	<polygon points="41.943,55.483 41.943,55.484 41.943,55.484  "/>
</g>
</svg>