<svg xmlns="http://www.w3.org/2000/svg" xmlns:xlink="http://www.w3.org/1999/xlink" version="1.1" id="Calque_1" x="0px" y="0px" width="100px" height="100px" viewBox="0 0 100 100" enable-background="new 0 0 100 100" xml:space="preserve">
<path d="M83.889,53.123c-0.338-0.24-0.623-0.583-0.812-0.866c-0.094-0.141-0.165-0.265-0.212-0.352  c-0.046-0.085-0.06-0.119-0.06-0.119c-0.46-1.099-1.059-2.143-1.771-3.097c-0.117-0.156-0.253-0.296-0.376-0.448l-0.112-2.283  l-2.327-0.099c-2.478-1.913-5.57-3.069-8.94-3.069h-8.579l2.818-5.022c1.158,0.012,2.209-0.018,2.551-0.066  c0.875-0.125,1.208-2.166,0.875-2.666s-3.125,0.041-4.5,0.041s-7.25-0.375-6.875,0.625s3.875,1.125,4,1.625  c0.054,0.215,1.101,0.337,2.345,0.397l-2.679,4.774c-0.242,0.07-0.459,0.229-0.593,0.466l-3.518,6.221  c-2.176-0.125-11.23-1.206-18.822-10.899c-0.034-0.043-0.082-0.067-0.121-0.103c0.48-2.308,0.872-4.2,1.07-5.158  c0.424,0.083,1.001,0.222,1.613,0.368c0.113,0.227,0.29,0.602,0.653,0.938c0.473,0.435,1.227,0.738,2.405,0.738  c0.008,0,0.017,0,0.025,0c0.324,0,0.681-0.021,1.08-0.066c0.273-0.032,0.471-0.279,0.44-0.554c-0.032-0.273-0.279-0.472-0.553-0.439  c-0.367,0.041-0.688,0.059-0.968,0.059c-1.308-0.019-1.676-0.349-1.922-0.666c0.001-0.001,0.003-0.002,0.005-0.003  c0.672,0.138,1.353,0.245,1.993,0.246c0.246,0,0.489-0.017,0.729-0.059c0.407-0.072,0.679-0.461,0.607-0.869  s-0.462-0.68-0.869-0.609c-0.127,0.023-0.287,0.035-0.467,0.035c-0.463,0.001-1.056-0.085-1.675-0.21  c-0.137-0.18-0.325-0.323-0.562-0.377c-1.165-0.258-2.226-0.597-3.131-0.614c-0.236,0.006-0.489,0.011-0.827,0.183  c-0.35,0.146-0.69,0.688-0.655,1.095c-0.001,0-0.005,0.182,0.065,0.361c0.099,0.263,0.297,0.457,0.535,0.562  c-0.218,1.056-0.579,2.796-1.009,4.86c-0.211,0.141-0.37,0.36-0.425,0.628c-0.358,1.715-0.859,3.585-1.406,5.423  c-1.817-0.807-3.823-1.265-5.939-1.265c-1.864,0-3.321,0.248-4.43,0.492c-1.099,0.248-1.887,0.47-2.227,0.459  c-0.392,0-0.71,0.317-0.71,0.71c0,0.392,0.318,0.71,0.71,0.71c0.736-0.012,1.474-0.265,2.532-0.492  c1.05-0.23,2.383-0.458,4.124-0.458c1.973,0.003,3.838,0.449,5.519,1.223c-0.043,0.139-0.086,0.277-0.13,0.415  c-1.659-0.782-3.504-1.232-5.459-1.232c-7.089,0-12.833,5.746-12.834,12.833c0.001,7.089,5.744,12.833,12.834,12.834  c7.088-0.001,12.833-5.745,12.833-12.834c0-4.4-2.217-8.281-5.594-10.593c0.046-0.144,0.091-0.291,0.137-0.436  c3.565,2.367,5.919,6.409,5.935,11.009c-0.001,0.022-0.002,0.062-0.002,0.116c0.013,0.354-0.01,1.303,0.342,2.086  c0.121,0.255,0.376,0.403,0.642,0.403c0.103,0,0.207-0.022,0.306-0.069c0.355-0.17,0.504-0.595,0.334-0.949  c-0.147-0.257-0.215-1.214-0.202-1.471c0-0.047,0.002-0.057,0.001-0.057l0.001-0.04c0-5.252-2.771-9.846-6.922-12.435  c0.079-0.26,0.158-0.519,0.235-0.781l11.899,12.341c-0.369,0.72-0.438,1.603-0.391,2.521c0.09,1.746,1.282,3.113,2.865,3.609  l-0.093,0.404c-0.034,0.147,0.001,0.305,0.098,0.424c0.094,0.118,0.238,0.188,0.391,0.188h2.144c0.275,0,0.499-0.224,0.499-0.499  c0-0.214-0.136-0.394-0.324-0.465c1.217-0.169,3.114-0.456,5.225-0.784c1.831,4.853,6.504,8.31,11.997,8.311  c7.089-0.001,12.833-5.746,12.834-12.834c0-0.886-0.09-1.75-0.261-2.585l1.807-0.478c0.268-0.071,0.468-0.287,0.518-0.559  C84.225,53.557,84.114,53.283,83.889,53.123z M37.257,57.451c-0.011,5.706-4.626,10.323-10.333,10.335  c-5.707-0.012-10.323-4.629-10.333-10.335c0.01-5.706,4.626-10.322,10.333-10.333c0.092,0,0.181,0.012,0.271,0.014  c-0.005,0.048-0.019,0.093-0.014,0.143c0.041,0.391,0.392,0.674,0.781,0.633c0,0,0.038-0.004,0.141-0.004  c0.312-0.013,0.95,0.095,1.189,0.39c0.141,0.152,0.332,0.23,0.523,0.23c0.172,0,0.345-0.062,0.481-0.187  c0.162-0.149,0.229-0.355,0.22-0.559c0.372,0.139,0.733,0.295,1.083,0.473c-0.038,0.112-0.076,0.23-0.114,0.34  c-1.037,3.07-1.927,5.402-2.128,6.046c-0.085,0.356-0.541,0.796-1.096,1.138c-0.369-0.296-0.831-0.479-1.34-0.479  c-1.19,0-2.156,0.965-2.156,2.155s0.966,2.155,2.156,2.155c1.129,0,2.046-0.872,2.138-1.978c0.836-0.475,1.806-1.172,2.209-2.403  c0.138-0.455,1.043-2.851,2.065-5.86C35.718,51.257,37.25,54.171,37.257,57.451z M50.714,61.285c-0.007,0-0.013-0.002-0.02-0.002  l0.404-1.766c0.184-0.126,0.312-0.327,0.312-0.566c0-0.384-0.312-0.696-0.696-0.696c-0.385,0-0.697,0.312-0.697,0.696  c0,0.129,0.044,0.243,0.105,0.347l-0.402,1.757c-0.789-0.374-1.339-1.172-1.339-2.104c0-1.288,1.045-2.333,2.333-2.333  c1.289,0,2.333,1.045,2.333,2.333C53.047,60.24,52.003,61.285,50.714,61.285z M52.086,54.557l0.015-0.07  c0.031-0.146-0.006-0.301-0.101-0.418c-0.095-0.116-0.237-0.185-0.389-0.185H49.87c-0.276,0-0.5,0.223-0.5,0.499s0.224,0.5,0.5,0.5  h0.271c-0.718,0.047-1.296,0.179-1.77,0.372L35.59,41.997c0.098-0.37,0.19-0.736,0.28-1.101c6.981,8.058,14.857,9.825,18.171,10.204  L52.086,54.557z M56.705,54.865c-0.877-0.001-1.719-0.002-2.495-0.002l5.592-9.889l1.619,2.346  C59.047,49.164,57.33,51.812,56.705,54.865z M62.844,49.381l0.806,1.168l-0.008,0.004c-0.203,0.104-0.272,0.373-0.155,0.598  l0.956,1.854c0.116,0.226,0.376,0.324,0.578,0.22l0.351-0.182l1.264,1.831c-1.9-0.002-4.633-0.004-7.348-0.007  C59.856,52.669,61.122,50.756,62.844,49.381z M67.027,47.375c0.726-0.162,1.477-0.254,2.25-0.256  c4.545,0.008,8.389,2.941,9.775,7.016l-7.562,1.997c-0.476-0.792-1.353-1.31-2.34-1.259c-0.014,0.001-0.303,0.001-0.789,0.001  l-3.907-5.662c0.034,0.005,0.068,0.015,0.103,0.015c0.228,0,0.45-0.109,0.588-0.311c0.139-0.215,0.438-0.384,0.74-0.475  c0.146-0.046,0.287-0.072,0.386-0.086c0.098-0.013,0.135-0.013,0.135-0.014c0.392-0.018,0.695-0.351,0.678-0.743  C67.079,47.519,67.055,47.446,67.027,47.375z M69.277,67.785c-4.237-0.008-7.87-2.559-9.465-6.207  c4.853-0.764,9.821-1.57,9.821-1.57v-0.011c1.253-0.171,2.194-1.225,2.222-2.491l7.563-1.998c0.121,0.63,0.191,1.278,0.192,1.943  C79.6,63.158,74.983,67.774,69.277,67.785z M81.482,53.493c-1.67-5.148-6.499-8.874-12.205-8.875c-2.453,0-4.736,0.701-6.686,1.895  l-1.588-2.301h8.274c4.347,0,8.199,2.093,10.617,5.328c0.644,0.863,1.184,1.805,1.604,2.81c0.023,0.041,0.208,0.474,0.598,0.981  L81.482,53.493z"/>
</svg>