<svg xmlns="http://www.w3.org/2000/svg" xmlns:xlink="http://www.w3.org/1999/xlink" version="1.1" id="Calque_1" x="0px" y="0px" width="100px" height="100px" viewBox="0 0 100 100" enable-background="new 0 0 100 100" xml:space="preserve">
<path d="M84.582,53.688c-0.338-0.24-0.625-0.583-0.812-0.864c-0.094-0.142-0.166-0.267-0.212-0.352  c-0.046-0.086-0.06-0.121-0.06-0.121c-0.461-1.099-1.059-2.142-1.771-3.096c-0.147-0.197-0.317-0.375-0.475-0.565l-0.367-2.298  h-2.019c-1.514-1.16-3.252-2.038-5.149-2.54h4.918c0.393,0,0.711-0.319,0.711-0.71c0-0.393-0.318-0.711-0.711-0.711H62.699  l-0.155-0.287l2.58-3.81c0.763-0.007,1.388-0.032,1.636-0.067c0.875-0.125,1.209-2.166,0.875-2.666  c-0.332-0.5-3.125,0.041-4.5,0.041s-7.25-0.375-6.875,0.625s3.875,1.125,4,1.625c0.056,0.222,1.174,0.345,2.475,0.403l-6.783,10.02  c-0.019-0.005-0.032-0.019-0.051-0.023c-5.303-1.212-10.912-3.983-15.163-6.456c-2.126-1.236-3.917-2.395-5.174-3.243  c-0.761-0.515-1.317-0.909-1.641-1.142l1.447-4.465c0.398,0.083,0.882,0.198,1.389,0.324c0.003,0.001,0.007,0.002,0.011,0.002  c0.113,0.227,0.289,0.602,0.652,0.936c0.472,0.436,1.226,0.738,2.403,0.738c0.009,0,0.018,0,0.027,0  c0.323,0,0.681-0.021,1.079-0.065c0.274-0.032,0.471-0.28,0.441-0.553c-0.032-0.274-0.28-0.472-0.554-0.44  c-0.367,0.042-0.688,0.06-0.967,0.06c-0.865-0.013-1.318-0.162-1.599-0.353c0.562,0.104,1.128,0.178,1.675,0.18  c0.256,0,0.514-0.016,0.771-0.062c0.544-0.096,0.907-0.615,0.811-1.158c-0.096-0.544-0.615-0.907-1.158-0.812h-0.001  c-0.11,0.02-0.254,0.031-0.423,0.031c-0.69,0.004-1.728-0.211-2.703-0.448c-0.999-0.232-1.875-0.491-2.665-0.504  c-0.237,0.006-0.492,0.012-0.829,0.182c-0.35,0.147-0.689,0.686-0.654,1.094c-0.001,0.086,0.012,0.164,0.021,0.208  c0.009,0.046,0.011,0.044,0.01,0.046c0.039,0.157,0.121,0.288,0.22,0.402L31.63,38.04c-0.289-0.684-1.434-1.195-2.808-1.195  c0,0-0.425,0.003-0.425,1.544c0,1.54,0.425,1.519,0.425,1.519c0.915,0,1.72,0.117,2.248-0.137l-1.302,4.021  c-1.12-0.273-2.283-0.435-3.486-0.435c-1.865-0.001-3.321,0.246-4.43,0.491c-1.099,0.249-1.887,0.47-2.226,0.458  c-0.393,0-0.71,0.319-0.71,0.711c0,0.392,0.317,0.71,0.71,0.71c0.737-0.011,1.474-0.265,2.532-0.492  c1.049-0.231,2.383-0.458,4.124-0.458c1.05,0.002,2.067,0.138,3.046,0.371l-0.129,0.399c-0.96-0.229-1.958-0.364-2.988-0.364  c-7.088,0.001-12.832,5.746-12.833,12.834c0.001,7.088,5.744,12.833,12.833,12.834c7.088-0.001,12.832-5.746,12.833-12.834  c0-0.81-0.084-1.598-0.227-2.365l0.46-0.115c0.154,0.804,0.243,1.632,0.244,2.48c0-0.021-0.002,0.022-0.002,0.096  c0.014,0.354-0.013,1.302,0.341,2.088c0.123,0.254,0.377,0.402,0.642,0.402c0.104,0,0.208-0.022,0.308-0.07  c0.353-0.171,0.502-0.596,0.332-0.949c-0.149-0.257-0.214-1.213-0.202-1.471c0-0.05,0.001-0.066,0.001-0.066  c0-0.983-0.1-1.942-0.284-2.87c0.341-0.122,0.545-0.475,0.456-0.833c-0.089-0.355-0.435-0.57-0.792-0.517  c-1.289-4.32-4.504-7.79-8.647-9.433l0.632-1.952l14.101,14.304c-0.23,0.518-0.363,1.087-0.364,1.689  c0.001,2.306,1.87,4.173,4.175,4.174c0.292,0,0.576-0.031,0.851-0.088c0.021,0.002,0.041,0.012,0.063,0.012  c0.024,0,0.048-0.002,0.072-0.004l6.519-0.666c0.026,0.085,0.062,0.166,0.092,0.25l-2.845,7.841  c-0.075,0.207,0.026,0.438,0.229,0.522c0.052,0.021,0.104,0.031,0.157,0.031c0.155,0,0.306-0.09,0.375-0.238l2.9-6.242  c2.155,4.058,6.42,6.823,11.336,6.824c7.089-0.002,12.833-5.746,12.833-12.834S77.058,45.185,69.97,45.184  c-1.85,0-3.603,0.399-5.191,1.104l-0.188-0.35c1.646-0.734,3.461-1.156,5.38-1.159c4.348,0,8.2,2.092,10.618,5.327  c0.643,0.862,1.184,1.805,1.604,2.81c0.039,0.067,0.498,1.155,1.562,1.931c0.319,0.228,0.764,0.154,0.992-0.164  C84.975,54.361,84.901,53.917,84.582,53.688z M28.042,56.894c-0.085-0.138-0.181-0.268-0.293-0.383l2.579-7.962  c2.711,1.183,4.814,3.49,5.723,6.335L28.042,56.894z M36.542,58.018c-0.01,5.706-4.626,10.323-10.332,10.333  c-5.706-0.01-10.323-4.627-10.333-10.333c0.01-5.706,4.626-10.323,10.333-10.333c0.092,0,0.181,0.012,0.273,0.014  c-0.005,0.048-0.019,0.093-0.014,0.143c0.04,0.39,0.391,0.673,0.781,0.632c0,0,0.038-0.004,0.14-0.004  c0.202-0.007,0.534,0.042,0.812,0.153l-2.357,7.277c-1.016,0.174-1.791,1.053-1.791,2.118c0,1.19,0.966,2.155,2.156,2.155  c1.1,0,1.999-0.827,2.13-1.892l8.039-2.018C36.478,56.835,36.541,57.418,36.542,58.018z M38.939,54.159l-0.456,0.114  c-1.123-3.684-3.855-6.662-7.38-8.118l0.131-0.403C34.913,47.242,37.77,50.328,38.939,54.159z M61.279,44.013l0.873,1.617  c-3.179,2.011-5.524,5.204-6.426,8.967l-1.544-0.102L61.279,44.013z M33.278,39.444c2.853,2.006,12.25,8.294,21.485,10.627  l-2.892,4.271l-0.897-0.06c-0.08-0.005-0.156,0.012-0.229,0.031c-0.174-0.021-0.345-0.053-0.525-0.053  c-0.972,0-1.854,0.346-2.564,0.902L33.001,40.298L33.278,39.444z M48.044,58.436c0.002-1.201,0.974-2.173,2.175-2.174  c1.2,0.001,2.171,0.973,2.173,2.174c-0.002,1.199-0.974,2.172-2.173,2.174C49.019,60.607,48.047,59.635,48.044,58.436z   M53.609,60.854c0.489-0.683,0.784-1.514,0.784-2.418c0-0.971-0.346-1.852-0.9-2.561l1.97,0.13  c-0.091,0.659-0.154,1.327-0.154,2.012c0,0.392,0.314,0.708,0.705,0.712l1.159,0.01c0.033,0.587,0.095,1.167,0.204,1.73  L53.609,60.854z M64.943,50.804l-0.609,0.315c-0.203,0.104-0.273,0.373-0.156,0.599l0.957,1.854c0.115,0.226,0.375,0.324,0.578,0.22  l0.657-0.34l1.034,1.916l-7.277-0.48c0.715-2.243,2.171-4.153,4.083-5.441L64.943,50.804z M67.529,58.823  c0.068,0.206,0.154,0.401,0.27,0.581l-7.92,0.809c-0.103-0.473-0.168-0.959-0.203-1.454L67.529,58.823z M67.701,56.812  c-0.1,0.186-0.179,0.381-0.23,0.591l-7.799-0.065c0.024-0.354,0.064-0.703,0.123-1.047L67.701,56.812z M57.172,57.316l-0.422-0.004  c0.022-0.41,0.066-0.814,0.125-1.215l0.416,0.027C57.233,56.517,57.194,56.914,57.172,57.316z M80.303,58.018  c-0.01,5.706-4.627,10.323-10.333,10.333c-4.444-0.008-8.216-2.815-9.677-6.75l9.789-1.001c0.02-0.002,0.034-0.013,0.054-0.017  c1.347-0.087,2.417-1.195,2.417-2.565c0-1.426-1.156-2.582-2.582-2.582c-0.084,0-0.163,0.017-0.244,0.024l-3.423-6.345  c0.088-0.042,0.18-0.08,0.272-0.107c0.147-0.046,0.288-0.073,0.387-0.086c0.098-0.014,0.135-0.013,0.135-0.015  c0.391-0.018,0.695-0.351,0.678-0.742c-0.003-0.08-0.027-0.153-0.056-0.223c0.726-0.162,1.477-0.255,2.25-0.256  C75.676,47.695,80.293,52.311,80.303,58.018z M63.02,47.239c-2.644,1.708-4.61,4.359-5.439,7.479l-0.42-0.027  c0.848-3.264,2.904-6.036,5.666-7.812L63.02,47.239z M63.466,43.853h2.774c-0.806,0.212-1.584,0.486-2.329,0.825L63.466,43.853z"/>
</svg>