<svg xmlns="http://www.w3.org/2000/svg" xmlns:xlink="http://www.w3.org/1999/xlink" version="1.1" id="Calque_1" x="0px" y="0px" width="100px" height="100px" viewBox="0 0 100 100" enable-background="new 0 0 100 100" xml:space="preserve">
<g>
	<path d="M84.527,53.689c-0.338-0.24-0.624-0.584-0.812-0.867c-0.094-0.141-0.165-0.264-0.211-0.351   c-0.047-0.087-0.059-0.12-0.061-0.12c-0.46-1.1-1.059-2.143-1.771-3.097c-0.146-0.197-0.316-0.375-0.473-0.564l-0.368-2.299h-2.019   c-1.514-1.16-3.252-2.038-5.149-2.539h4.918c0.392,0,0.71-0.318,0.71-0.711s-0.318-0.711-0.71-0.711H62.645l-0.154-0.288   l2.579-3.81c0.764-0.007,1.389-0.031,1.637-0.067c0.875-0.125,1.208-2.166,0.876-2.666c-0.334-0.5-3.126,0.041-4.501,0.041   s-7.25-0.375-6.875,0.625s3.875,1.125,4,1.625c0.056,0.222,1.174,0.345,2.476,0.403l-1.845,2.725l-26.87-3.866l1.35-4.166   c0.399,0.084,0.882,0.198,1.389,0.324c0.003,0.001,0.007,0.001,0.01,0.002c0.113,0.227,0.289,0.602,0.654,0.937   c0.473,0.436,1.229,0.738,2.41,0.738c0.007,0,0.013,0,0.02,0c0.323,0,0.681-0.021,1.079-0.066c0.275-0.031,0.472-0.279,0.441-0.553   c-0.032-0.274-0.28-0.471-0.553-0.44c-0.367,0.041-0.687,0.06-0.967,0.06c-0.866-0.013-1.319-0.162-1.599-0.354   c0.562,0.104,1.129,0.178,1.675,0.18c0.257,0,0.514-0.016,0.771-0.062c0.544-0.095,0.907-0.615,0.811-1.158   c-0.096-0.544-0.615-0.907-1.158-0.81l-0.001-0.001c-0.11,0.021-0.253,0.032-0.423,0.032c-0.689,0.004-1.728-0.211-2.703-0.449   c-0.999-0.231-1.875-0.491-2.666-0.504c-0.237,0.005-0.491,0.012-0.828,0.183c-0.349,0.146-0.69,0.687-0.654,1.094   c0,0.086,0.013,0.164,0.021,0.208c0.01,0.045,0.011,0.045,0.01,0.045c0.039,0.157,0.121,0.288,0.22,0.402l-1.699,5.244   c-0.289-0.684-1.434-1.195-2.808-1.195c0,0-0.425,0.003-0.425,1.544c0,1.54,0.425,1.519,0.425,1.519   c0.915,0,1.72,0.117,2.248-0.137l-1.303,4.021c-1.119-0.273-2.282-0.435-3.486-0.435c-1.864-0.001-3.322,0.247-4.431,0.492   c-1.099,0.248-1.886,0.47-2.225,0.458c-0.393,0-0.71,0.319-0.71,0.711s0.318,0.712,0.71,0.712v-0.001   c0.736-0.011,1.474-0.265,2.532-0.492c1.049-0.23,2.383-0.458,4.124-0.458c1.05,0.002,2.067,0.138,3.046,0.371l-0.13,0.4   c-0.96-0.229-1.957-0.364-2.988-0.364c-7.088,0.001-12.832,5.747-12.833,12.832c0.001,7.09,5.745,12.834,12.833,12.836   c7.089-0.002,12.833-5.746,12.833-12.836c0-0.809-0.084-1.597-0.227-2.364l0.46-0.115c0.153,0.803,0.243,1.63,0.244,2.478   c0-0.012-0.001,0.031-0.001,0.1c0.013,0.354-0.012,1.303,0.341,2.086c0.123,0.256,0.376,0.404,0.64,0.404   c0.104,0,0.209-0.023,0.309-0.072c0.354-0.17,0.502-0.594,0.332-0.949c-0.149-0.256-0.214-1.211-0.202-1.469   c0-0.051,0.002-0.066,0.001-0.066c0-0.983-0.1-1.942-0.284-2.871c0.341-0.12,0.545-0.474,0.457-0.832   c-0.09-0.355-0.437-0.572-0.793-0.519c-1.29-4.319-4.504-7.789-8.646-9.431l0.543-1.679l14.167,14.071   c-0.218,0.505-0.341,1.062-0.341,1.647c0,2.191,1.692,3.966,3.838,4.142c0.091,0.042,0.188,0.07,0.293,0.07   c0.026,0,0.052-0.001,0.079-0.005l7.456-0.821c0.03,0.101,0.072,0.195,0.105,0.294l-2.845,7.842   c-0.075,0.205,0.026,0.437,0.231,0.521c0.051,0.021,0.104,0.031,0.156,0.031c0.156,0,0.305-0.09,0.375-0.238l2.899-6.243   c2.156,4.059,6.422,6.824,11.337,6.825c7.088-0.002,12.832-5.746,12.833-12.836c-0.001-7.085-5.745-12.832-12.833-12.833   c-1.85,0-3.603,0.399-5.191,1.104l-0.188-0.35c1.646-0.734,3.461-1.156,5.38-1.159c4.348,0,8.199,2.092,10.617,5.328   c0.643,0.861,1.185,1.805,1.604,2.809c0.039,0.067,0.499,1.156,1.564,1.932c0.318,0.228,0.762,0.154,0.991-0.166   C84.921,54.361,84.848,53.916,84.527,53.689z M27.989,56.893c-0.084-0.138-0.18-0.268-0.292-0.383l2.58-7.962   c2.711,1.183,4.814,3.489,5.722,6.335L27.989,56.893z M36.489,58.016c-0.01,5.707-4.627,10.324-10.333,10.335   c-5.707-0.011-10.322-4.628-10.333-10.335c0.011-5.705,4.626-10.321,10.333-10.332c0.092,0,0.181,0.012,0.273,0.014   c-0.005,0.048-0.019,0.093-0.014,0.143c0.041,0.391,0.39,0.673,0.781,0.633c0,0,0.039-0.005,0.141-0.005   c0.202-0.008,0.533,0.042,0.812,0.152l-2.357,7.277c-1.016,0.174-1.791,1.053-1.791,2.119c0,1.189,0.966,2.154,2.156,2.154   c1.101,0,1.999-0.828,2.13-1.892l8.04-2.018C36.425,56.833,36.488,57.417,36.489,58.016z M38.887,54.157l-0.456,0.114   c-1.123-3.682-3.856-6.66-7.38-8.116l0.131-0.405C34.861,47.241,37.717,50.326,38.887,54.157z M62.098,45.629   c-3.186,2.016-5.535,5.219-6.433,8.994l-1.558-0.1l7.118-10.512L62.098,45.629z M33.342,39.084L59.59,42.86l-7.795,11.516   l-1.369-0.088c-0.088-0.006-0.171-0.026-0.26-0.026c-0.989,0-1.885,0.357-2.6,0.932l-14.709-14.61L33.342,39.084z M47.991,58.434   c0.002-1.199,0.974-2.17,2.175-2.172c1.2,0.002,2.17,0.973,2.172,2.172c-0.002,1.201-0.973,2.173-2.172,2.176   C48.964,60.606,47.993,59.635,47.991,58.434z M53.566,60.841c0.482-0.682,0.772-1.509,0.773-2.407   c-0.001-0.954-0.334-1.823-0.873-2.526l1.938,0.124c-0.089,0.651-0.15,1.311-0.15,1.986c0,0.389,0.314,0.707,0.705,0.711   l1.159,0.01c0.032,0.573,0.094,1.139,0.198,1.689L53.566,60.841z M64.889,50.803l-0.609,0.316   c-0.203,0.104-0.271,0.373-0.154,0.598l0.955,1.854c0.117,0.227,0.376,0.324,0.578,0.221l0.658-0.341l1.036,1.922l-7.287-0.467   c0.713-2.251,2.172-4.169,4.09-5.461L64.889,50.803z M67.475,58.823c0.054,0.162,0.122,0.315,0.205,0.462l-7.869,0.867   c-0.097-0.453-0.154-0.92-0.188-1.394L67.475,58.823z M67.644,56.815c-0.098,0.184-0.176,0.378-0.227,0.585l-7.799-0.064   c0.023-0.348,0.063-0.689,0.12-1.027L67.644,56.815z M57.117,57.315l-0.421-0.004c0.021-0.402,0.065-0.798,0.122-1.189l0.415,0.026   C57.177,56.532,57.139,56.921,57.117,57.315z M80.249,58.016c-0.01,5.708-4.626,10.324-10.333,10.334   c-4.468-0.008-8.256-2.844-9.699-6.812l9.132-1.006c0.183,0.041,0.372,0.067,0.567,0.067c1.426,0,2.583-1.156,2.583-2.582   s-1.157-2.582-2.583-2.582c-0.083,0-0.161,0.017-0.242,0.024l-3.424-6.346c0.089-0.042,0.18-0.08,0.273-0.107   c0.146-0.045,0.287-0.071,0.385-0.086c0.098-0.013,0.135-0.013,0.135-0.015c0.393-0.018,0.695-0.35,0.68-0.742   c-0.004-0.08-0.028-0.153-0.057-0.224c0.726-0.162,1.477-0.255,2.25-0.256C75.623,47.694,80.239,52.311,80.249,58.016z    M62.966,47.239c-2.65,1.713-4.62,4.373-5.446,7.503l-0.421-0.027c0.844-3.274,2.904-6.056,5.673-7.836L62.966,47.239z    M63.412,43.853h2.774c-0.806,0.212-1.584,0.486-2.329,0.825L63.412,43.853z"/>
	<polygon points="27.197,48.474 27.197,48.474 27.196,48.474  "/>
</g>
</svg>