<svg xmlns="http://www.w3.org/2000/svg" xmlns:xlink="http://www.w3.org/1999/xlink" version="1.1" id="Layer_1" x="0px" y="0px" width="100px" height="59.564px" viewBox="0 0 100 59.564" enable-background="new 0 0 100 59.564" xml:space="preserve">
<path d="M18.807,9.592c2.646,0.206,4.958-1.775,5.173-4.411c0.211-2.646-1.764-4.962-4.412-5.166  c-2.645-0.209-4.968,1.759-5.17,4.407C14.196,7.071,16.165,9.384,18.807,9.592"/>
<path d="M93.395,21.682L87.313,7.07c-1.148-2.784-3.625-5.163-8.302-5.163h-8.687H55.688h-8.585c-4.675,0-7.154,2.379-8.3,5.163  l-6.085,14.611c-2.407,0.286-6.676,2.92-6.676,7.911v18.582h5.913v5.941c0,7.308,11.111,7.222,11.111,0v-5.941h19.982h0.012h19.984  v5.941c0,7.222,11.109,7.308,11.109,0v-5.941h5.917V29.593C100.07,24.602,95.803,21.968,93.395,21.682z M37.69,36.815  c-2.836,0-5.135-2.206-5.135-4.927c0-2.718,2.298-4.926,5.135-4.926c2.835,0,5.134,2.208,5.134,4.926  C42.824,34.609,40.525,36.815,37.69,36.815z M82.41,21.378l-7.099-2.733l-7.419,2.733l-4.832-0.043h-0.012H39.015l4.583-11.308  c0.571-1.612,1.428-2.779,3.432-2.796h16.019h0.012h0.012h16.01c2.006,0.017,2.862,1.184,3.438,2.796l4.578,11.308L82.41,21.378z   M88.423,36.815c-2.836,0-5.134-2.206-5.134-4.927c0-2.718,2.298-4.926,5.134-4.926s5.131,2.208,5.131,4.926  C93.554,34.609,91.259,36.815,88.423,36.815z"/>
<path d="M74.581,18.485c2.657,0.206,4.973-1.78,5.189-4.419c0.209-2.657-1.77-4.977-4.425-5.181  c-2.652-0.209-4.982,1.761-5.185,4.419C69.959,15.959,71.937,18.281,74.581,18.485"/>
<g>
	<path d="M28.529,21.377l0.003,0.022c0.06-0.014,0.104-0.022,0.104-0.022H28.529z"/>
	<path d="M18.85,22.146c-0.301,0.067-2.041,0.536-3.909,2.534c-1.948,2.086-1.919,3.739-1.917,3.809l0.002,0.035v19.446h10.481   c-0.019-3.5-0.079-15.885,0.082-18.309c0.063-0.916,0.085-1.646,0.103-2.23c0.039-1.211,0.064-2.012,0.383-2.993   c0.319-0.995,0.841-1.739,1.408-2.292H18.85z"/>
</g>
<path d="M11.41,28.468c-0.007-0.299,0.028-2.442,2.333-4.909c2.434-2.604,4.743-3,4.838-3.015l0.123-0.011h7.106l-3.879-8.329  c-0.809-1.254-2.172-2.269-3.823-2.412c-1.263-0.094-2.43,0.349-3.37,1L5.09,18.626c-0.326,0.27-0.557,0.619-0.672,1.048  l-2.121,9.483L2.25,29.443c-0.085,1.205,0.812,2.234,1.997,2.329c1.132,0.097,2.079-0.757,2.316-1.791l1.777-8.137l3.362-2.728  l-5.14,22.837l-6.19,10.374c-0.179,0.363-0.386,0.887-0.433,1.394c-0.142,1.791,1.199,3.361,2.991,3.503  c1.276,0.089,2.378-0.554,3.053-1.582l5.426-9.158V28.468z"/>
</svg>