<svg xmlns="http://www.w3.org/2000/svg" xmlns:xlink="http://www.w3.org/1999/xlink" version="1.1" id="Layer_1" x="0px" y="0px" width="100.0px" height="100px" viewBox="0 0 1000 1000" enable-background="new 0 0 1000 1000" xml:space="preserve">
<path fill="#000000" d="M997.753,106.92c4.418-13.051-3.072-13.821-19.966-10.754c-16.895,3.077-16.895-10.744-26.102-12.28  c-9.217-1.531-18.425,27.638-18.425,72.164c0,44.526,5.193,196.142,2.121,236.064c-2.287,29.811-0.497,46.885-0.497,46.885  S793.733,482.512,707.94,554.484c-72.688,60.986-115.31,152.407-141.629,168.126c-15.983,9.534-24.445,16.559-55.284,15.834  c-30.83,0.725-39.292-6.3-55.266-15.834c-26.318-15.72-68.951-107.141-141.638-168.126C228.33,482.512,87.179,439,87.179,439  s1.8-17.075-0.497-46.885c-3.062-39.922,2.11-191.539,2.11-236.064c0-44.526-9.197-73.695-18.414-72.164  c-9.207,1.536-9.207,15.357-26.111,12.28c-16.884-3.067-24.374-2.297-19.946,10.754c10.738,35.313,16.884,93.656,16.884,167.351  c0,73.705,15.601,152.133,12.291,187.447c-4.181,44.34-13.439,105.43-15.167,154.368c-1.324,37.341,1.18,120.864,28.978,171.013  c27.446,49.513,91.742,116.686,214.572,105.942c117.822-10.314,159.193-96.91,229.149-96.91c69.954,0,111.336,86.596,229.158,96.91  c122.83,10.744,187.137-56.429,214.572-105.942c27.789-50.149,30.302-133.672,28.978-171.013  c-1.728-48.938-10.997-110.028-15.155-154.368c-3.311-35.313,12.279-113.742,12.279-187.447  C980.859,200.576,986.994,142.233,997.753,106.92z"/>
</svg>