<svg xmlns="http://www.w3.org/2000/svg" xmlns:xlink="http://www.w3.org/1999/xlink" xml:space="preserve" width="99px" height="53px" style="shape-rendering:geometricPrecision; text-rendering:geometricPrecision; image-rendering:optimizeQuality; fill-rule:evenodd; clip-rule:evenodd" viewBox="0 0 12.0086 6.37655">
 <defs>
  <style type="text/css">
   
    .fil0 {fill:#0A0B0C}
   
  </style>
 </defs>
 <g id="Layer_x0020_1">
  <metadata id="CorelCorpID_0Corel-Layer"/>
  <path class="fil0" d="M3.09996 4.68453l-0.582553 0.0666304c-0.104868,0.276367 -0.372246,0.472976 -0.685423,0.472976 -0.404634,0 -0.732792,-0.328159 -0.732792,-0.732792 0,-0.404634 0.328159,-0.732792 0.732792,-0.732792 0.163794,0 0.314889,0.0537895 0.436879,0.144532l0.655604 -0.0836091c-0.225859,-0.366253 -0.630635,-0.610518 -1.09248,-0.610518 -0.708109,0 -1.28239,0.574277 -1.28239,1.28239 0,0.708252 0.574277,1.28253 1.28239,1.28253 0.64262,0 1.17481,-0.472834 1.26798,-1.08934zm5.33029 -2.49985l0.214159 0 -0.836519 0.807413 -0.207739 0.00199749 0.830098 -0.80941zm-7.99366 -1.48199l0.304474 -0.175493 1.36314 0.0272514c1.45089,0.449006 0.755763,1.17994 2.66607,1.22161 0.0672012,-1.13343 1.06138,-1.26912 2.95514,-0.627781 0.201889,0.0683426 0.293631,0.163794 0.268091,0.308469l-3.68237 2.38129 0.0569284 0.043374 4.00396 -2.60044 -0.0288209 -0.328444 0.167932 -0.124558 0.229854 0.297768 0.158372 -0.209879 -0.690417 -0.343282 -0.145674 -0.243979 0.14653 -0.107151c0.218582,0.056643 0.423467,0.115284 0.614655,0.175779 0.0359548,0.0114142 0.0400924,-0.399783 0.0767606,-0.397214 0.286354,0.0204029 0.513782,0.472691 0.457424,0.585549 0.835948,0.335578 1.32519,0.710963 1.48156,1.14014 0.141108,0.318314 0.0316744,0.484248 -0.147814,0.607379l-0.19447 0.0161226c-0.169216,0.14068 -0.437022,0.304331 -0.594395,0.467412 0.0161226,-0.111574 1.43206,0.0771886 1.28524,0.272372 -0.00370962,0.00499372 -0.0395217,0.0102728 -0.0933112,0.0156945 0.543744,0.294344 0.913137,0.869763 0.913137,1.5315 0,0.961076 -0.779448,1.74038 -1.74038,1.74038 -0.961076,0 -1.74052,-0.779305 -1.74052,-1.74038 0,-0.332724 0.0934538,-0.643619 0.255536,-0.908 -0.282074,0.266236 -0.459137,0.499514 -0.406203,0.649611 0.0243979,0.492666 0.222149,1.34302 0.0584978,1.2928l-3.9205 -0.00642049c-0.275082,-0.294344 -0.676435,-0.508503 -0.879607,-0.848646 -0.153093,0.857064 -0.902293,1.50796 -1.80345,1.50796 -1.01158,0 -1.83198,-0.820396 -1.83198,-1.83212 0,-1.01158 0.820396,-1.83198 1.83198,-1.83198 0.740925,0 1.37898,0.440018 1.66762,1.07279l-0.148527 -0.570282 -0.203458 -0.375956 -0.826959 -0.749485 -0.119849 0.114998 -1.07736 -0.354554c-0.256677,0.197751 -0.479254,0.415192 -0.652322,0.661881l-0.170214 -0.00542175c0.0693413,-0.288494 0.199606,-0.559582 0.463845,-0.792289l-0.555587 -0.254965 -0.0556443 -0.367538 0.281075 -0.00542175 0.0854639 -0.11457 -0.0834664 -0.215871zm10.0432 2.6685l0.0138397 0.329728c0.422326,0.101586 0.736359,0.48168 0.736359,0.935252 0,0.531046 -0.430744,0.96179 -0.96179,0.96179 -0.531189,0 -0.961932,-0.430744 -0.961932,-0.96179 0,-0.344566 0.181343,-0.6469 0.453715,-0.816687 -0.0519347,-0.101872 -0.102157,-0.199321 -0.147386,-0.285641 -0.375385,0.223718 -0.626925,0.633631 -0.626925,1.10233 0,0.708109 0.574277,1.28239 1.28253,1.28239 0.708109,0 1.28239,-0.574277 1.28239,-1.28239 0,-0.636057 -0.463417,-1.16411 -1.0708,-1.26498z"/>
 </g>
</svg>