<svg xmlns="http://www.w3.org/2000/svg" xmlns:xlink="http://www.w3.org/1999/xlink" xml:space="preserve" width="99px" height="43px" style="shape-rendering:geometricPrecision; text-rendering:geometricPrecision; image-rendering:optimizeQuality; fill-rule:evenodd; clip-rule:evenodd" viewBox="0 0 12.0351 5.21259">
 <defs>
  <style type="text/css">
   
    .fil0 {fill:#0A0B0C}
   
  </style>
 </defs>
 <g id="Layer_x0020_1">
  <metadata id="CorelCorpID_0Corel-Layer"/>
  <path class="fil0" d="M1.92978 2.28452c0.0454353,-0.283075 0.766667,-0.144619 1.14076,0.344707 0.45808,-0.204961 0.588653,-0.297838 1.20726,-0.278058 1.41323,-0.907417 2.08573,-2.23192 2.82573,-1.3483 0,0.0656447 0.0167695,-0.260716 0.0699446,-0.366063 0.176868,-0.35001 -0.882191,-0.345423 -1.30458,-0.176008 -0.369646,0.148489 -0.937659,-0.311168 -0.465246,-0.451773 0.0844208,-0.0252259 0.299271,0 0.55196,0.102337 0.384409,-0.0950272 1.26416,-0.0170562 1.64671,0.521431 0.33883,-0.257419 0.935652,-0.360759 0.938662,-0.23764 0.000286658,0.0156229 0.140033,0.714066 -0.431564,0.704749l1.52818 1.55168c0.253979,-0.21657 0.58335,-0.34743 0.943249,-0.34743 0.80293,0 1.45422,0.651288 1.45422,1.45422 0,0.803073 -0.651288,1.45422 -1.45422,1.45422 -0.803073,0 -1.45422,-0.651144 -1.45422,-1.45422 0,-0.343847 0.119393,-0.659887 0.319051,-0.90885l-1.47271 -1.43286c-0.751188,-0.135733 -1.10951,1.83189 -1.35546,2.24654 0.24108,0.164828 0.174575,0.559414 0.0101764,0.710482 -0.245093,0.225313 -0.309161,0.150782 -0.649424,0.484739 -2.1174,0 -1.06737,-0.00874308 -3.18477,-0.00874308 0.253119,-0.80852 0.663184,-2.06208 -0.863701,-2.56516zm8.04478 0.709192l0.421101 0.427551c0.0548951,-0.0302424 0.118103,-0.0474419 0.185181,-0.0474419 0.21227,0 0.384409,0.172282 0.384409,0.384552 0,0.21227 -0.172138,0.384409 -0.384409,0.384409 -0.21227,0 -0.384552,-0.172138 -0.384552,-0.384409 0,-0.0528884 0.0107497,-0.10334 0.0300991,-0.149206l-0.435434 -0.423681c-0.116957,0.160815 -0.185898,0.358896 -0.185898,0.572886 0,0.538774 0.43701,0.975785 0.975785,0.975785 0.538774,0 0.975641,-0.43701 0.975641,-0.975785 0,-0.538774 -0.436867,-0.975641 -0.975641,-0.975641 -0.22904,0 -0.439734,0.078831 -0.606282,0.21098zm-8.52034 -0.689556c0.80293,0 1.45422,0.651288 1.45422,1.45422 0,0.803073 -0.651288,1.45422 -1.45422,1.45422 -0.803073,0 -1.45422,-0.651144 -1.45422,-1.45422 0,-0.80293 0.651144,-1.45422 1.45422,-1.45422zm0 1.06967c0.21227,0 0.384409,0.172282 0.384409,0.384552 0,0.21227 -0.172138,0.384409 -0.384409,0.384409 -0.21227,0 -0.384552,-0.172138 -0.384552,-0.384409 0,-0.21227 0.172282,-0.384552 0.384552,-0.384552zm0 -0.443317c0.45722,0 0.828012,0.370792 0.828012,0.827869 0,0.457077 -0.370792,0.828012 -0.828012,0.828012 -0.457077,0 -0.827869,-0.370936 -0.827869,-0.828012 0,-0.457077 0.370792,-0.827869 0.827869,-0.827869zm5.46528 -0.742015c-0.21915,0.743448 -0.374089,0.972201 -0.588939,1.72009 -0.160099,0.0147629 -0.151356,0.0763944 -0.377242,0.0296691 0.544364,-0.689413 0.410781,-1.44605 -0.453923,-1.34815 -0.161962,0.0184895 0.139459,-0.401608 1.4201,-0.401608z"/>
 </g>
</svg>