<svg xmlns="http://www.w3.org/2000/svg" xmlns:xlink="http://www.w3.org/1999/xlink" xml:space="preserve" width="99px" height="61px" style="shape-rendering:geometricPrecision; text-rendering:geometricPrecision; image-rendering:optimizeQuality; fill-rule:evenodd; clip-rule:evenodd" viewBox="0 0 10.3246 6.41603">
 <defs>
  <style type="text/css">
   
    .fil0 {fill:#0A0B0C}
   
  </style>
 </defs>
 <g id="Layer_x0020_1">
  <metadata id="CorelCorpID_0Corel-Layer"/>
  <path class="fil0" d="M4.6161 0.0671402c0.00692422,-0.0440182 0.0341265,-0.0723334 0.106213,-0.0663983l1.21582 0.00272023c0.150107,0.000247294 0.26819,0.0351157 0.389735,0.123276l1.12234 0.955666 2.57803 0.215145c0.116352,0.0238638 0.150725,0.113879 0.129087,0.249148l-0.124018 0.00037094 -0.00309117 0.0616997c0.104852,0.000865527 0.119319,0.0136011 0.118825,0.0781447l-0.00148376 0.198948c-0.000494587,0.074559 -0.059845,0.0731989 -0.117464,0.0672638l-0.000123647 0.0591031 0.0746826 0 0.000494587 0.137742 0.0822251 0.0542809c-0.000123647,0.0968154 -0.0442655,0.418297 -0.163832,0.426458l-0.431774 0.0161977c0.226397,-1.11356 -1.8934,-1.44481 -1.94435,0.0344974l-3.11899 0c-0.0399379,-0.00111282 -0.0626889,-0.0272023 -0.0603396,-0.0898912 -0.0357339,-0.953811 -0.0312826,-1.8547 0.148005,-2.52437zm4.0519 3.10811c0.00432764,0 0.00853163,0 0.0128593,0l0.00247294 -0.0163214c0.00828433,-0.0571248 0.061947,-0.0970627 0.119195,-0.0887784l0.219844 0.0321482c0.0573721,0.00840798 0.0971863,0.0620707 0.088902,0.119195l-0.00247294 0.016816c0.0201544,0.00593504 0.0401852,0.012241 0.0599687,0.018918l0.00816069 -0.0158268c0.0265841,-0.0513134 0.0903858,-0.0714678 0.141699,-0.0448838l0.197217 0.102503c0.0514371,0.0267077 0.0715915,0.0903858 0.0448838,0.141699l-0.00544046 0.0106336c0.0170633,0.0118701 0.0340029,0.0241111 0.0506952,0.0365994l0.0194125 -0.0195362c0.0408034,-0.0409271 0.107696,-0.0410507 0.148623,-0.00037094l0.157526 0.156908c0.0409271,0.0408034 0.0410507,0.107696 0.000247294,0.148623l-0.0191652 0.0192889c0.0169396,0.0221328 0.033261,0.0447601 0.0489641,0.0678821l0.0169396 -0.00914986c0.0509425,-0.0274496 0.114991,-0.00828433 0.142441,0.0425345l0.105471 0.195609c0.0274496,0.0509425 0.00828433,0.114991 -0.0425345,0.142441l-0.0309117 0.0166923c0.00914986,0.0278205 0.0175578,0.0558883 0.0251003,0.0844507l0.012612 -0.00111282c0.0574957,-0.00506952 0.108809,0.0378359 0.113879,0.0954553l0.0196598 0.221328c0.00494587,0.0568775 -0.0367231,0.107573 -0.0932297,0.113755 -0.000494587,0.0359812 -0.00234929,0.0715915 -0.00519316,0.106831l0.00247294 0.000618234c0.0566302,0.0114991 0.0936006,0.0672638 0.0821014,0.123894l-0.0442655 0.217866c-0.0114991,0.0566302 -0.0672638,0.0936006 -0.123894,0.0821014l-0.0117464 -0.00247294c-0.0106336,0.0281915 -0.0220091,0.0558883 -0.0342502,0.0830906l0.00358576 0.00210199c0.049706,0.0294279 0.0662747,0.0942188 0.0368467,0.143925l-0.113137 0.191405c-0.0294279,0.049706 -0.0942188,0.0662747 -0.143925,0.0368467l-0.0124883 -0.00729516c-0.0186707,0.0222564 -0.0379596,0.0438946 -0.057743,0.0651618l0.00618234 0.00667692c0.0390724,0.0425345 0.0363521,0.109427 -0.00618234,0.1485l-0.163585 0.150602c-0.0425345,0.0390724 -0.109427,0.0363521 -0.148623,-0.00618234l-0.0247294 -0.0270786c-0.024853,0.0149613 -0.0502006,0.0291806 -0.0757955,0.0427818l0.00531681 0.0154558c0.0191652,0.0546519 -0.00976809,0.114868 -0.0642963,0.134033l-0.209705 0.0735698c-0.0546519,0.0191652 -0.114868,-0.00989174 -0.134033,-0.06442l-0.00420399 -0.0118701c-0.0264604,0.0055641 -0.0531681,0.0103863 -0.0799995,0.0145903l0.000123647 0.0255949c0.000247294,0.057743 -0.0467385,0.105347 -0.104605,0.105718l-0.222193 0.00123647c-0.0578667,0.00037094 -0.105347,-0.0467385 -0.105718,-0.104482l-0.000123647 -0.0211436c-0.0284388,-0.00346211 -0.0566302,-0.00778975 -0.0845744,-0.0127356l-0.00358576 0.0121174c-0.0163214,0.0555174 -0.0750536,0.0874183 -0.130571,0.0709732l-0.213167 -0.0628126c-0.0553937,-0.016445 -0.0874183,-0.0751772 -0.0710969,-0.130695l0.00717151 -0.0238638c-0.0276969,-0.0136011 -0.0548992,-0.0279442 -0.0817305,-0.0431527l-0.00111282 0.00148376c-0.0369704,0.0443892 -0.103616,0.0505715 -0.148005,0.0136011l-0.171003 -0.14207c-0.0403088,-0.0336319 -0.0490878,-0.0914986 -0.022751,-0.135146 -0.0264604,-0.0267077 -0.0519316,-0.0544046 -0.0764137,-0.082967 -0.0468621,0.0243584 -0.105965,0.0100154 -0.135888,-0.0348684l-0.123523 -0.184852c-0.0314063,-0.0471094 -0.0194125,-0.111035 0.0262131,-0.143801 -0.0133538,-0.0289333 -0.0258422,-0.0582376 -0.0373413,-0.0881601 -0.0521789,0.00754245 -0.103121,-0.0253476 -0.116723,-0.0775265l-0.056012 -0.215022c-0.0144667,-0.055641 0.0187943,-0.112889 0.0740644,-0.127974 -0.00284388,-0.0302935 -0.00469858,-0.0608342 -0.00568775,-0.0916222 -0.0548992,-0.00531681 -0.0970627,-0.0529208 -0.0948371,-0.108562l0.00840798 -0.222193c0.00222564,-0.057743 0.0511898,-0.103121 0.109056,-0.101019l0.0226274 0.000865527c0.00741881,-0.0300462 0.0158268,-0.0597214 0.0251003,-0.0890257l-0.00284388 -0.00136011c-0.0521789,-0.024853 -0.074559,-0.0879128 -0.049706,-0.140092l0.0955789 -0.200679c0.024853,-0.0523026 0.0879128,-0.074559 0.140092,-0.049706l0.00222564 0.000989174c0.00877892,-0.0134775 0.0179288,-0.0268313 0.0272023,-0.0400615l-0.00247294 -0.00222564c-0.0431527,-0.0384541 -0.0469858,-0.105223 -0.00853163,-0.148252l0.148005 -0.166058c0.0384541,-0.0431527 0.105223,-0.0469858 0.148376,-0.00853163l0.00976809 0.00890257c0.0226274,-0.0184234 0.0458729,-0.0362285 0.0694895,-0.0532918l-0.0039567 -0.00642963c-0.0302935,-0.0493351 -0.014714,-0.114373 0.0346211,-0.144543l0.18955 -0.116228c0.0492114,-0.0301698 0.11425,-0.0145903 0.144543,0.0347447l0.0181761 0.0296752c0.0190416,-0.00692422 0.0383305,-0.0134775 0.057743,-0.0196598l-0.00234929 -0.0165687c-0.00828433,-0.0572484 0.0317772,-0.110787 0.0890257,-0.119072l0.219968 -0.0317772c0.0572484,-0.00828433 0.110787,0.0317772 0.119072,0.0890257l0.000865527 0.0058114c0.0158268,-0.000494587 0.0316536,-0.000741881 0.0477276,-0.000741881zm0 1.08426c0.26448,0 0.479008,0.214651 0.479008,0.479131 0,0.264604 -0.214527,0.479131 -0.479008,0.479131 -0.264604,0 -0.479131,-0.214527 -0.479131,-0.479131 0,-0.26448 0.214527,-0.479131 0.479131,-0.479131zm-6.34728 -2.35522c0.0315299,0 0.0574957,0.0258422 0.0574957,0.0574957l0 0.724323c0,0.0316536 -0.0259658,0.0574957 -0.0574957,0.0574957l0 0.195486c-0.109551,-0.0190416 -0.22207,-0.0211436 -0.339287,0l0 -0.195486c-0.0316536,0 -0.0574957,-0.0258422 -0.0574957,-0.0574957l0 -0.724323c0,-0.0316536 0.0258422,-0.0574957 0.0574957,-0.0574957l0 -0.195486c0.121297,-0.0408034 0.233321,-0.0359812 0.339287,0l0 0.195486zm-0.426087 -0.142441l-0.110787 -0.0404325 -0.421264 1.1561 0.110787 0.0403088 0.421264 -1.15597zm0.500522 0l0.110787 -0.0404325 0.421264 1.1561 -0.110787 0.0403088 -0.421264 -1.15597zm-0.244079 1.41341c0.00432764,0 0.00865527,0 0.0129829,0l0.00234929 -0.0163214c0.00840798,-0.0571248 0.061947,-0.0970627 0.119195,-0.0887784l0.219968 0.0321482c0.0572484,0.00840798 0.0970627,0.0620707 0.0887784,0.119195l-0.00234929 0.016816c0.0200308,0.00593504 0.0400615,0.012241 0.059845,0.018918l0.00828433 -0.0158268c0.0265841,-0.0513134 0.0903858,-0.0714678 0.141576,-0.0448838l0.19734 0.102503c0.0513134,0.0267077 0.0714678,0.0903858 0.0448838,0.141699l-0.0055641 0.0106336c0.0171869,0.0118701 0.0340029,0.0241111 0.0506952,0.0365994l0.0194125 -0.0195362c0.0408034,-0.0409271 0.107696,-0.0410507 0.148623,-0.00037094l0.157526 0.156908c0.0409271,0.0408034 0.0410507,0.107696 0.00037094,0.148623l-0.0191652 0.0192889c0.016816,0.0221328 0.0331373,0.0447601 0.0488405,0.0678821l0.0169396 -0.00914986c0.0509425,-0.0274496 0.114991,-0.00828433 0.142441,0.0425345l0.105594 0.195609c0.0274496,0.0509425 0.00828433,0.114991 -0.0426581,0.142441l-0.0309117 0.0166923c0.00914986,0.0278205 0.0175578,0.0558883 0.0252239,0.0844507l0.0124883 -0.00111282c0.0576194,-0.00506952 0.108809,0.0378359 0.114002,0.0954553l0.0195362 0.221328c0.00506952,0.0568775 -0.0367231,0.107573 -0.093106,0.113755 -0.000618234,0.0359812 -0.00234929,0.0715915 -0.00531681,0.106831l0.00247294 0.000618234c0.0567539,0.0114991 0.0936006,0.0672638 0.0821014,0.123894l-0.0441419 0.217866c-0.0114991,0.0566302 -0.0672638,0.0936006 -0.124018,0.0821014l-0.0117464 -0.00247294c-0.0106336,0.0281915 -0.0220091,0.0558883 -0.0341265,0.0830906l0.00346211 0.00210199c0.0498296,0.0294279 0.0663983,0.0942188 0.0369704,0.143925l-0.11326 0.191405c-0.0294279,0.049706 -0.0942188,0.0662747 -0.143925,0.0368467l-0.0124883 -0.00729516c-0.0186707,0.0222564 -0.0379596,0.0438946 -0.057743,0.0651618l0.00618234 0.00667692c0.039196,0.0425345 0.0363521,0.109427 -0.00618234,0.1485l-0.163585 0.150602c-0.0425345,0.0390724 -0.109304,0.0363521 -0.1485,-0.00618234l-0.024853 -0.0270786c-0.024853,0.0149613 -0.0500769,0.0291806 -0.0757955,0.0427818l0.00544046 0.0154558c0.0191652,0.0546519 -0.00989174,0.114868 -0.06442,0.134033l-0.209705 0.0735698c-0.0545282,0.0191652 -0.114868,-0.00989174 -0.134033,-0.06442l-0.00420399 -0.0118701c-0.0264604,0.0055641 -0.0530445,0.0103863 -0.0799995,0.0145903l0.000123647 0.0255949c0.00037094,0.057743 -0.0467385,0.105347 -0.104482,0.105718l-0.222317 0.00123647c-0.0578667,0.00037094 -0.105347,-0.0467385 -0.105718,-0.104482l-0.000123647 -0.0210199c-0.0284388,-0.00346211 -0.0566302,-0.00778975 -0.0845744,-0.0127356l-0.00346211 0.0119937c-0.016445,0.0555174 -0.0751772,0.0874183 -0.130571,0.0709732l-0.213291 -0.0628126c-0.0553937,-0.016445 -0.0874183,-0.0751772 -0.0709732,-0.130695l0.00704787 -0.0238638c-0.0276969,-0.0134775 -0.0548992,-0.0279442 -0.0817305,-0.0430291l-0.00111282 0.00136011c-0.0369704,0.0443892 -0.103492,0.0505715 -0.148005,0.0136011l-0.17088 -0.14207c-0.0403088,-0.0335083 -0.0490878,-0.0914986 -0.0228746,-0.135146 -0.0264604,-0.0267077 -0.0519316,-0.0544046 -0.0764137,-0.082967 -0.0468621,0.0243584 -0.105965,0.0100154 -0.135888,-0.0348684l-0.123399 -0.184852c-0.0315299,-0.0471094 -0.0195362,-0.111035 0.0262131,-0.143801 -0.0133538,-0.0289333 -0.0258422,-0.0583613 -0.0373413,-0.0881601 -0.0523026,0.0076661 -0.103245,-0.0253476 -0.116846,-0.0775265l-0.056012 -0.215022c-0.0144667,-0.055641 0.018918,-0.113013 0.0741881,-0.127974 -0.00284388,-0.0302935 -0.00469858,-0.0608342 -0.00568775,-0.0916222 -0.0548992,-0.00531681 -0.0970627,-0.0529208 -0.0949607,-0.108562l0.00840798 -0.222193c0.00222564,-0.057743 0.0511898,-0.103121 0.109056,-0.101019l0.0226274 0.000865527c0.00754245,-0.0300462 0.0159504,-0.0597214 0.0251003,-0.0890257l-0.00284388 -0.00136011c-0.0521789,-0.024853 -0.074559,-0.0879128 -0.049706,-0.140092l0.0955789 -0.200679c0.024853,-0.0523026 0.0879128,-0.074559 0.140092,-0.049706l0.00222564 0.000989174c0.00890257,-0.0134775 0.0179288,-0.0268313 0.0273259,-0.0400615l-0.00247294 -0.00222564c-0.0432764,-0.0384541 -0.0469858,-0.105223 -0.00853163,-0.148252l0.147882 -0.166058c0.0384541,-0.0431527 0.105223,-0.0469858 0.148376,-0.00853163l0.00989174 0.00890257c0.0226274,-0.0184234 0.0457493,-0.0362285 0.0693658,-0.0532918l-0.0039567 -0.00642963c-0.0301698,-0.0493351 -0.0145903,-0.114373 0.0346211,-0.144543l0.18955 -0.116228c0.0493351,-0.0301698 0.114373,-0.0145903 0.144543,0.0347447l0.0181761 0.0296752c0.0191652,-0.00692422 0.0383305,-0.0134775 0.0578667,-0.0196598l-0.00247294 -0.0165687c-0.00828433,-0.0572484 0.0317772,-0.110787 0.0890257,-0.119072l0.220091 -0.0317772c0.0571248,-0.00828433 0.110664,0.0317772 0.118948,0.0890257l0.000865527 0.0058114c0.0158268,-0.000494587 0.0317772,-0.000741881 0.0477276,-0.000741881zm0 1.08426c0.264604,0 0.479131,0.214651 0.479131,0.479131 0,0.264604 -0.214527,0.479131 -0.479131,0.479131 -0.264604,0 -0.479131,-0.214527 -0.479131,-0.479131 0,-0.26448 0.214527,-0.479131 0.479131,-0.479131zm6.66345 -2.26892c0.0316536,0 0.0574957,0.0252239 0.0574957,0.056012l0 0.70627c0,0.030788 -0.0258422,0.056012 -0.0574957,0.056012l0 0.190663c-0.109427,-0.0186707 -0.22207,-0.020649 -0.339163,0l0 -0.190663c-0.0316536,0 -0.0574957,-0.0252239 -0.0574957,-0.056012l0 -0.70627c0,-0.030788 0.0258422,-0.056012 0.0574957,-0.056012l0 -0.19054c0.121174,-0.0396906 0.233321,-0.034992 0.339163,0l0 0.19054zm-0.426087 -0.136753l-0.110664 -0.0404325 -0.421264 1.1561 0.110787 0.0403088 0.421141 -1.15597zm0.500646 0l0.110787 -0.0404325 0.421141 1.1561 -0.110664 0.0403088 -0.421264 -1.15597zm-8.72155 -0.82831l4.14526 0c0.0427818,0 0.0776502,0.034992 0.0776502,0.0776502l0 1.42008c0,0.0865527 0.00234929,0.138484 -0.0401852,0.13799l-1.18911 -0.0128593c0.0197835,-1.39758 -1.98589,-1.42132 -1.90181,-0.135146l-1.09625 -0.112889c-0.130447,-0.0134775 -0.225161,-0.388251 -0.114002,-0.388251l0.0908804 0 -0.00111282 -0.752143 -0.0489641 0 0 -0.156784c0,-0.0426581 0.034992,-0.0776502 0.0776502,-0.0776502zm4.84473 -0.926609l0.956531 0.00210199c0.100525,0.000247294 0.181513,0.0281915 0.252981,0.0926114l0.611557 0.551712 -0.182255 -0.00037094c-0.0315299,-0.000123647 -0.00890257,0.191034 0.0102627,0.215269 0.0166923,0.0210199 0.134651,0.0113755 0.103492,0.0603396l-1.82824 -0.0037094c-0.0268313,0 -0.0472331,-0.0220091 -0.0488405,-0.0488405 -0.0171869,-0.283398 0.00729516,-0.52859 0.0756718,-0.820273 0.00618234,-0.0260895 0.0220091,-0.0488405 0.0488405,-0.0488405zm4.23416 1.13347c0.00828433,-0.117712 0.0848217,-0.232085 0.0942188,-0.357339l-1.20741 0c-0.0297989,0 -0.0541573,0.0244821 -0.0541573,0.0542809l-0.000494587 0.205501 1.16784 0.0975573z"/>
 </g>
</svg>