<svg xmlns="http://www.w3.org/2000/svg" xmlns:xlink="http://www.w3.org/1999/xlink" version="1.1" id="Layer_1" x="0px" y="0px" width="100px" height="100px" viewBox="0 0 100 100" enable-background="new 0 0 100 100" xml:space="preserve">
<path d="M94.729,68.103c-1.805-7.499-3.542-9.861-3.125-18.957c0.313-6.867,1.527-13.332,1.527-18.332  c0-2.776-2.291-20.761-10.624-20.136c-2.059,2.334-4.016,3.864-5.484,4.304c-1.749,0.523-3.325,0.383-4.238-0.416  c-2.427,0-6.861,1.724-12.532,4.97l1.146-1.495L12.655,9.718l11.341,14.813h-0.508v1.297H21.38L19.735,38.03  c-2.017,4.773-14.8,35.329-14.8,43.175c0,9.012,13.984,9.063,35.07,9.063c19.971,0,33.242,0.701,34.919-7.651  c0.159-0.464,0.252-0.934,0.252-1.411c0-8.07-13.527-40.172-14.948-43.522l-0.128-0.943c1.433-0.822,5.429-2.958,10.185-4.12  c0.768-3.333,4.205-7.105,6.46-8.054c4.86-2.047,7.491,0.771,6.872,5.971c-2.421,20.38,2.235,27.582,3.821,30.968  C90.639,68.346,96.534,75.603,94.729,68.103z M14.672,56.472c2.873-7.737,6.012-15.313,7.259-18.284h36.248  c1.255,2.99,4.427,10.645,7.316,18.433L14.672,56.472z"/>
</svg>