<svg xmlns="http://www.w3.org/2000/svg" xmlns:xlink="http://www.w3.org/1999/xlink" version="1.1" x="0px" y="0px" width="100px" height="100px" viewBox="0 0 100 100" enable-background="new 0 0 100 100" xml:space="preserve">
<g id="Layer_1" display="none">
	
		</g>
<g id="Layer_2">
	<path d="M57.803,35.792c0.877,0.88,2.248,0.941,3.053,0.135l1.844-1.844c0.808-0.807,0.746-2.175-0.135-3.055l-6.093-6.096   c-0.883-0.879-2.251-0.94-3.057-0.135l-1.845,1.845c-0.807,0.806-0.746,2.174,0.136,3.055L57.803,35.792z"/>
	<path d="M75.286,18.848l-1.912,1.912c0,0-5.684-5.683-6.306-6.306c-0.623-0.623-6.333-0.208-8.408,1.868   c-1.705,1.705-2.148,5.991-2.254,7.473c0.078,0.062,0.158,0.116,0.229,0.187l6.878,6.882c0.995,0.994,0.996,2.607,0,3.603   l-2.273,2.275c-0.992,0.994-2.61,0.994-3.602,0l-2.776-2.776c-0.338-0.116-0.604-0.042-0.718,0.368   c-0.364,1.296-0.091,6.365-1.161,8.54c-0.926,2.548-5.513,8.989-17.791,21.034S17.654,80.056,11.516,86.194   c-4.207,4.207,2.267,10.473,6.37,6.37c2.202-2.202,65.558-65.559,65.558-65.559L75.286,18.848z M19.129,86.839l-3.477,3.478   c-0.473,0.472-1.24,0.472-1.713,0c-0.473-0.474-0.473-1.238,0-1.712l3.478-3.478c0.473-0.475,1.24-0.475,1.712,0   C19.603,85.601,19.603,86.366,19.129,86.839z"/>
	<g>
		<path d="M56.634,35.955c0.035-0.037,0.072-0.072,0.109-0.109l-0.368-0.368L56.634,35.955z"/>
		<path d="M53.204,36.791c-0.047-0.991,0.188-3.546,0.625-3.858l-2.309-2.309c-6.357,6.357-11.773,11.774-12.739,12.739    c-2.492,2.492,2.491,7.786,5.138,5.139c0.833-0.834,4.493-4.445,9.119-9.006C53.13,38.575,53.231,37.368,53.204,36.791z"/>
	</g>
	<path d="M83.521,8.174c-2.804-2.699-7.059-2.492-8.615-0.934c-0.426,0.424-3.131,3.13-6.882,6.88l5.347,5.347   c2.759-2.716,4.586-4.517,4.685-4.615c0.414-0.416,1.21-0.035,1.678,0.432c0.467,0.467,7.717,7.717,7.717,7.717   s0.898-0.969,2.179-2.18C90.91,19.61,86.325,10.872,83.521,8.174z"/>
</g>
</svg>