<svg xmlns="http://www.w3.org/2000/svg" xmlns:xlink="http://www.w3.org/1999/xlink" version="1.0" x="0px" y="0px" width="66.51px" height="99.467px" viewBox="0 0 66.51 99.467" overflow="visible" enable-background="new 0 0 66.51 99.467" xml:space="preserve">
    <path d="M65.364,44.996h-4.21c-1.512-9.734-7.513-17.983-15.894-22.452V2.329C45.26,1.043,44.218,0,42.932,0H18.66 c-1.286,0-2.329,1.043-2.329,2.329c0,0,0,13.475,0,20.231c-0.061,0.032-0.126,0.057-0.187,0.089 C6.533,27.86,0,38.036,0,49.732c0,11.78,6.617,22.009,16.331,27.19v20.216c0,1.289,1.043,2.329,2.329,2.329h24.272 c1.286,0,2.328-1.04,2.328-2.329V76.922c8.489-4.527,14.577-12.917,15.987-22.819l4.12,0.004 c0.629-0.004,1.142-0.518,1.142-1.146V52.95v-6.808V46.14C66.514,45.51,65.998,44.996,65.364,44.996z M30.743,73.337 C17.734,73.34,7.188,62.794,7.189,49.791c0-13.013,10.546-23.558,23.553-23.558c13.008,0,23.557,10.548,23.552,23.558 C54.294,62.794,43.75,73.337,30.743,73.337z"/>
    <path d="M30.747,32.341c0.85-0.004,1.529-0.69,1.524-1.536c0-0.85-0.689-1.531-1.528-1.525 c-0.851,0.006-1.531,0.688-1.525,1.536C29.214,31.661,29.904,32.345,30.747,32.341z"/>
    <path d="M40.983,31.986c-0.729-0.42-1.663-0.168-2.083,0.567c-0.42,0.737-0.167,1.667,0.563,2.092 c0.732,0.418,1.667,0.165,2.089-0.57C41.974,33.34,41.714,32.41,40.983,31.986z"/>
    <path d="M46.411,38.903c-0.73,0.428-0.977,1.36-0.554,2.091c0.426,0.73,1.362,0.977,2.096,0.554 c0.723-0.428,0.97-1.362,0.553-2.092C48.078,38.724,47.143,38.477,46.411,38.903z"/>
    <path d="M49.752,51.218c0.849-0.004,1.534-0.694,1.528-1.533c-0.005-0.848-0.687-1.531-1.534-1.527 c-0.847,0.001-1.524,0.691-1.529,1.532C48.226,50.544,48.911,51.218,49.752,51.218z"/>
    <path d="M46.487,60.497c0.736,0.422,1.666,0.164,2.088-0.57c0.422-0.73,0.166-1.665-0.568-2.087 c-0.734-0.417-1.663-0.168-2.094,0.568C45.503,59.137,45.75,60.075,46.487,60.497z"/>
    <path d="M39.564,64.805c-0.726,0.422-0.975,1.362-0.551,2.089c0.426,0.729,1.362,0.977,2.098,0.554 c0.721-0.424,0.969-1.365,0.551-2.089C41.233,64.623,40.299,64.375,39.564,64.805z"/>
    <path d="M30.869,67.17c-0.843,0-1.522,0.681-1.521,1.529c0.003,0.848,0.684,1.526,1.531,1.526 c0.844-0.002,1.53-0.686,1.525-1.532C32.401,67.849,31.712,67.167,30.869,67.17z"/>
    <path d="M22.152,64.866c-0.731-0.417-1.667-0.164-2.082,0.568c-0.424,0.733-0.17,1.667,0.569,2.087 c0.726,0.416,1.664,0.156,2.082-0.573C23.144,66.212,22.889,65.286,22.152,64.866z"/>
    <path d="M13.666,57.96c-0.729,0.42-0.978,1.362-0.552,2.09c0.426,0.729,1.362,0.978,2.093,0.552 c0.728-0.422,0.976-1.363,0.552-2.09C15.334,57.779,14.398,57.532,13.666,57.96z"/>
    <path d="M11.862,48.29c-0.843,0.005-1.528,0.686-1.525,1.532c0.007,0.849,0.691,1.527,1.536,1.53 c0.847-0.005,1.528-0.696,1.526-1.536C13.394,48.965,12.709,48.287,11.862,48.29z"/>
    <path d="M22.085,32.152c-0.734-0.422-1.664-0.165-2.09,0.568c-0.42,0.73-0.161,1.667,0.569,2.089 c0.739,0.416,1.666,0.168,2.091-0.572C23.071,33.507,22.82,32.572,22.085,32.152z"/>
    <path d="M32.826,46.133c-0.228-0.124-17.756-7.099-17.756-7.099c-0.736-0.417-1.67-0.162-2.087,0.577 c-0.418,0.733-0.163,1.665,0.574,2.084c0,0,14.96,11.492,15.182,11.619c1.988,1.127,4.51,0.435,5.638-1.55 C35.494,49.782,34.799,47.261,32.826,46.133z"/>
</svg>