<svg xmlns="http://www.w3.org/2000/svg" xmlns:xlink="http://www.w3.org/1999/xlink" version="1.0" x="0px" y="0px" width="99.879px" height="64.706px" viewBox="0 0 99.879 64.706" overflow="visible" enable-background="new 0 0 99.879 64.706" xml:space="preserve">
    <path d="M98.252,0c-0.158,0-0.297,0.034-0.443,0.074L1.224,24.761C0.52,24.94,0,25.577,0,26.335 c0,0.575,0.317,1.071,0.766,1.358l13.09,8.514c0.555,0.357,0.964,0.996,0.964,1.708l0.175,16.729 c0,0.9,0.726,1.627,1.623,1.627c0.337,0,0.671-0.108,0.932-0.283l8.342-5.408l-3.921-4.857 c-0.254-0.327-0.193-0.794,0.132-1.052c0.328-0.253,0.795-0.189,1.047,0.136l14.439,19.265 c0.296,0.387,0.764,0.635,1.292,0.635c0.47,0,0.927-0.152,1.224-0.473L99.415,2.757c0.284-0.292,0.464-0.693,0.464-1.137 C99.879,0.723,99.151,0,98.252,0z M92.464,4.426L44.462,29.165c-0.71,0.372-1.211,1.078-1.302,1.911l-3.885,30.618 c0,0.245-0.198,0.441-0.442,0.441c-0.242,0-0.443-0.196-0.443-0.441l0.433-29.113c0-0.242-0.198-0.441-0.442-0.441 c-0.062,0-0.126,0.014-0.181,0.038l-18.555,8.471c-0.344,0.161-0.601,0.485-0.665,0.87l-0.799,5.851 c-0.039,0.203-0.218,0.357-0.436,0.357c-0.242,0-0.441-0.199-0.441-0.444v-7.913c0-0.942,0.574-1.747,1.386-2.09l15.202-6.874 c0.157-0.069,0.267-0.227,0.267-0.405c0-0.222-0.167-0.409-0.382-0.44L3.691,26.699c-0.213-0.032-0.379-0.213-0.379-0.437 c0-0.243,0.198-0.439,0.444-0.439l37.592,1.064c0.358,0,0.706-0.077,1.011-0.217L92.27,4.012 c0.028-0.014,0.059-0.02,0.091-0.02c0.129,0,0.229,0.104,0.229,0.228C92.59,4.312,92.537,4.39,92.464,4.426z"/>
</svg>