<svg xmlns="http://www.w3.org/2000/svg" xmlns:xlink="http://www.w3.org/1999/xlink" xml:space="preserve" width="100px" height="79px" style="shape-rendering:geometricPrecision; text-rendering:geometricPrecision; image-rendering:optimizeQuality; fill-rule:evenodd; clip-rule:evenodd" viewBox="0 0 18.6136 14.7701">
 <defs>
  <style type="text/css">
   
    .fil0 {fill:#0A0B0C}
   
  </style>
 </defs>
 <g id="Layer_x0020_1">
  <metadata id="CorelCorpID_0Corel-Layer"/>
  <path class="fil0" d="M1.95329 4.48399l4.7771 0c0.438776,0 0.738031,0.361655 0.796476,0.795377l1.1522 8.69488c0.0573463,0.433503 -0.359458,0.795817 -0.796036,0.795817l-7.08105 0c-0.436579,0 -0.853383,-0.362314 -0.796915,-0.795817l1.1522 -8.69488c0.0586646,-0.433722 0.358359,-0.795377 0.796036,-0.795377zm9.93079 0l4.77666 0c0.438117,0 0.737811,0.361655 0.796036,0.795377l1.15154 8.69488c0.0577857,0.433503 -0.359018,0.795817 -0.795817,0.795817l-7.07996 0c-0.437677,0 -0.854481,-0.362314 -0.796915,-0.795817l1.1522 -8.69488c0.0584448,-0.433722 0.3577,-0.795377 0.796256,-0.795377zm-0.54424 -0.692989l2.87061 0 2.86973 0 -0.125898 -1.8955 0 0c0,-0.685299 -0.370004,-1.28908 -0.918639,-1.62151 -0.0907433,0.156439 -0.328478,0.230923 -0.570826,0.166326 -0.2485,-0.067673 -0.418122,-0.256191 -0.41219,-0.440314l-0.324303 0c0,0.212467 -0.23312,0.384506 -0.517874,0.384506 -0.28783,0 -0.518973,-0.172039 -0.518973,-0.384506l-0.300134 0c0.00615209,0.184123 -0.164349,0.372641 -0.41175,0.440314 -0.24872,0.0663547 -0.491288,-0.0129633 -0.578077,-0.178191 -0.558741,0.329576 -0.935117,0.939512 -0.935117,1.63338l0 0 -0.126557 1.8955zm0.836904 1.45673l0.586865 0c0.219937,0 0.399446,0.17863 0.399446,0.398567l0 7.96036c0,0.220157 -0.179509,0.397469 -0.399446,0.397469l-1.42377 0c-0.218619,0 -0.421198,-0.17863 -0.397469,-0.397469l0.836904 -7.96036c0.0235098,-0.218399 0.180168,-0.398567 0.397469,-0.398567zm1.80344 0l0.585767 0c0.218839,0 0.397908,0.17863 0.397908,0.398567l0 7.96036c0,0.220157 -0.17907,0.397469 -0.397908,0.397469l-0.585767 0c-0.220157,0 -0.400105,-0.177312 -0.400105,-0.397469l0 -7.96036c0,-0.219937 0.179949,-0.398567 0.400105,-0.398567zm2.42898 0l-0.586426 0c-0.219717,0 -0.397689,0.17863 -0.397689,0.398567l0 7.96036c0,0.220157 0.177971,0.397469 0.397689,0.397469l1.42531 0c0.216861,0 0.420539,-0.17863 0.397689,-0.397469l-0.837783 -7.96036c-0.0230703,-0.218399 -0.17907,-0.398567 -0.398787,-0.398567zm-14.9999 -1.45673l2.87017 0 2.86995 0 -0.125678 -1.8955 0 0c0,-1.04278 -0.853822,-1.8955 -1.89528,-1.8955l-0.331114 0c0,0.212467 -0.232461,0.384506 -0.517874,0.384506 -0.286951,0 -0.518973,-0.172039 -0.518973,-0.384506l-0.329137 0c-1.04366,0 -1.8966,0.852723 -1.8966,1.8955l0 0 -0.125459 1.8955zm0.837563 1.45673l0.586426 0c0.218619,0 0.398128,0.17863 0.398128,0.398567l0 7.96036c0,0.220157 -0.179509,0.397469 -0.398128,0.397469l-1.42399 0c-0.219937,0 -0.421198,-0.17863 -0.398348,-0.397469l0.838222 -7.96036c0.0230703,-0.218399 0.179509,-0.398567 0.397689,-0.398567zm1.80124 0l0.586865 0c0.219498,0 0.399446,0.17863 0.399446,0.398567l0 7.96036c0,0.220157 -0.179949,0.397469 -0.399446,0.397469l-0.586865 0c-0.218399,0 -0.397469,-0.177312 -0.397469,-0.397469l0 -7.96036c0,-0.219937 0.17907,-0.398567 0.397469,-0.398567zm2.43007 0l-0.585767 0c-0.219058,0 -0.39681,0.17863 -0.39681,0.398567l0 7.96036c0,0.220157 0.177751,0.397469 0.39681,0.397469l1.42465 0c0.219717,0 0.420759,-0.17863 0.398348,-0.397469l-0.838661 -7.96036c-0.02329,-0.218399 -0.17863,-0.398567 -0.398567,-0.398567z"/>
 </g>
</svg>