<svg xmlns="http://www.w3.org/2000/svg" xmlns:xlink="http://www.w3.org/1999/xlink" xmlns:a="http://ns.adobe.com/AdobeSVGViewerExtensions/3.0/" version="1.1" x="0px" y="0px" width="100px" height="75.0px" viewBox="-24.346 -6.732 200 150" enable-background="new -24.346 -6.732 200 150" xml:space="preserve">
<defs>
</defs>
<path fill="#000000" d="M63.486,46.216c-0.052-0.859-0.078-1.725-0.078-2.597c0-0.872,0.026-1.738,0.078-2.599l10.088-3.548  c0.33-1.811,0.805-3.571,1.41-5.269l-6.967-8.119c0.779-1.552,1.646-3.05,2.6-4.489l10.513,1.981c1.18-1.384,2.47-2.673,3.853-3.853  l-1.98-10.514c1.439-0.951,2.938-1.82,4.488-2.598l8.12,6.965c1.697-0.604,3.457-1.08,5.27-1.41l3.549-10.088  C105.287,0.028,106.152,0,107.025,0s1.739,0.028,2.599,0.079l3.547,10.088c1.813,0.331,3.572,0.806,5.271,1.41l8.119-6.965  c1.55,0.778,3.049,1.647,4.489,2.598l-1.983,10.514c1.384,1.18,2.674,2.468,3.855,3.854l10.512-1.982  c0.952,1.439,1.821,2.937,2.599,4.489l-6.966,8.119c0.605,1.698,1.081,3.459,1.411,5.27l10.087,3.548  c0.051,0.861,0.08,1.727,0.08,2.599c0,0.873-0.029,1.738-0.08,2.597l-10.087,3.549c-0.33,1.811-0.806,3.572-1.411,5.27l6.966,8.119  c-0.777,1.552-1.646,3.05-2.599,4.489l-10.512-1.982c-1.182,1.386-2.472,2.673-3.855,3.854l1.979,10.514  c-1.437,0.951-2.936,1.82-4.485,2.598l-8.119-6.965c-1.699,0.605-3.459,1.081-5.271,1.41l-3.547,10.088  c-0.859,0.051-1.726,0.078-2.599,0.078s-1.738-0.027-2.597-0.078l-3.549-10.088c-1.813-0.329-3.572-0.805-5.27-1.41l-8.118,6.965  c-1.552-0.777-3.051-1.646-4.49-2.598l1.98-10.514c-1.383-1.18-2.673-2.467-3.853-3.853l-10.513,1.98  c-0.953-1.438-1.82-2.938-2.6-4.49l6.967-8.117c-0.605-1.699-1.08-3.459-1.41-5.27L63.486,46.216z M81.201,43.619  c0,14.262,11.563,25.824,25.824,25.824c14.263,0,25.827-11.562,25.827-25.824c0-14.262-11.564-25.825-25.827-25.825  C92.764,17.793,81.201,29.357,81.201,43.619z"/>
<circle fill="#000000" cx="107.026" cy="43.619" r="8.133"/>
<path fill="#000000" d="M0.079,94.075C0.026,93.213,0,92.348,0,91.476s0.026-1.737,0.079-2.599l10.086-3.547  c0.331-1.813,0.805-3.57,1.41-5.27l-6.966-8.12c0.778-1.552,1.647-3.049,2.597-4.487l10.516,1.98  c1.18-1.385,2.466-2.674,3.851-3.854l-1.98-10.513c1.438-0.952,2.938-1.821,4.49-2.598l8.118,6.965  c1.698-0.605,3.459-1.081,5.27-1.411l3.549-10.087c0.859-0.05,1.726-0.079,2.598-0.079c0.871,0,1.737,0.028,2.597,0.079  l3.549,10.088c1.812,0.33,3.57,0.805,5.27,1.41l8.118-6.965c1.552,0.777,3.049,1.646,4.488,2.598L65.659,65.58  c1.386,1.18,2.673,2.469,3.854,3.854l10.515-1.98c0.952,1.438,1.82,2.935,2.598,4.487l-6.967,8.12  c0.605,1.699,1.082,3.457,1.412,5.27l10.086,3.547c0.053,0.861,0.082,1.727,0.082,2.599s-0.029,1.737-0.082,2.599L77.07,97.623  c-0.33,1.812-0.807,3.572-1.412,5.271l6.967,8.119c-0.777,1.551-1.646,3.049-2.6,4.488l-10.513-1.982  c-1.181,1.386-2.468,2.676-3.854,3.854l1.981,10.514c-1.439,0.952-2.937,1.821-4.488,2.6l-8.118-6.967  c-1.699,0.605-3.458,1.08-5.27,1.412l-3.549,10.086c-0.86,0.052-1.726,0.08-2.597,0.08c-0.873,0-1.739-0.028-2.598-0.08  L37.47,124.93c-1.809-0.332-3.57-0.807-5.268-1.412l-8.118,6.967c-1.552-0.778-3.052-1.647-4.49-2.598l1.98-10.516  c-1.382-1.178-2.671-2.468-3.851-3.853l-10.516,1.979c-0.95-1.438-1.819-2.938-2.597-4.486l6.966-8.119  c-0.605-1.698-1.08-3.459-1.41-5.271L0.079,94.075z M17.792,91.476c0,14.263,11.563,25.825,25.826,25.825  c14.262,0,25.825-11.563,25.825-25.825c0-14.261-11.563-25.825-25.825-25.825C29.355,65.651,17.792,77.215,17.792,91.476z"/>
<circle fill="#000000" cx="43.618" cy="91.476" r="8.132"/>
</svg>