<svg xmlns="http://www.w3.org/2000/svg" xmlns:xlink="http://www.w3.org/1999/xlink" xmlns:a="http://ns.adobe.com/AdobeSVGViewerExtensions/3.0/" version="1.1" x="0px" y="0px" width="100px" height="75.0px" viewBox="-46.037 -22.253 200 150" enable-background="new -46.037 -22.253 200 150" xml:space="preserve">
<defs>
</defs>
<path fill="#000000" d="M106.323,88.815l-7.942-23.55L98.063,64.4c-0.896-2.885-1.756-5.079-2.647-6.702  c-0.028-0.051-0.058-0.102-0.085-0.151c-0.12-0.212-0.239-0.416-0.36-0.607c-0.184-0.284-0.373-0.563-0.575-0.822  c-0.019-0.024-0.037-0.049-0.056-0.072c-0.445-0.563-0.95-1.044-1.511-1.445c-0.402-0.267-0.82-0.464-1.258-0.587  c-10.72-3.05-30.016-8.552-30.016-8.552l0.606-2.123c0,0.001,17.856,5.092,28.757,8.193l-0.08-3.401  c0.001-0.041-0.002-0.076-0.002-0.116l-0.03-1.292c-0.013-0.181-0.041-0.343-0.063-0.512c-0.028-0.211-0.054-0.431-0.093-0.621  c-0.05-0.238-0.113-0.459-0.185-0.671c-0.02-0.062-0.033-0.133-0.055-0.193c-0.434-1.151-1.219-1.918-2.429-2.449  c-0.058-0.024-0.113-0.049-0.173-0.071c-0.288-0.117-0.591-0.226-0.926-0.32c-0.03-0.005-0.116-0.03-0.207-0.059l-0.669-0.203  c-10.822-3.079-29.42-8.381-29.42-8.381l0.605-2.123c0,0,17.688,5.042,28.6,8.148v-3.004c0-3.732-1.063-5.354-4.064-6.196  l-3.485-1.057c-10.944-3.116-26.639-7.59-26.639-7.59l0.605-2.123c0,0,15.126,4.313,26.034,7.418v-3.436  c0-3.812-1.064-5.434-4.068-6.277C69.261,15.606,13.861,0.385,13.302,0.231C12.751,0.078,12.202,0,11.664,0  C10.04,0,8.572,0.69,7.531,1.943c-0.109,0.122-7.538,8.461-7.52,23.873c-0.187,2.205,2.002,3.816,4.115,4.422l9.741,3.063  c0.33,0.072,10.168,2.421,16.035,12.982c2.037,3.662,5.217,9.509,8.898,16.279c6.422,11.812,14.416,26.511,18.985,34.42  c0.994,1.721,2.797,2.788,4.705,2.788c0.965,0,1.939-0.265,2.896-0.787c2.996-1.631,3.003-5.134,2.303-6.96  c-0.348-0.896-1.073-2.781-1.97-5.115c-1.532-3.986-3.565-9.275-5.076-13.163c-1.183-3.026-0.821-6.628,0.918-9.176  c1.963-2.872,5.438-4.135,9.581-3.448l0.215,0.036c4.683,0.785,8.066,1.354,10.101,2.134c1.014,0.391,2.081,1.077,3.002,2.079  c0.424,0.461,1.229,1.421,1.61,1.917c1.077,1.405,1.95,3.12,2.581,4.951c0.742,2.159,2.919,8.655,2.919,8.655l1.319,3.908  l2.573,7.63c0.809,2.278,2.954,3.798,5.392,3.798c3.153,0,5.72-2.564,5.72-5.718C106.575,89.91,106.49,89.339,106.323,88.815z"/>
<path fill="#000000" d="M80.666,65.349c-0.111-0.042-0.246-0.082-0.369-0.125v15.714c0,3.248,2.644,5.891,5.893,5.891  c1.68,0,3.28-0.733,4.392-1.976l-4.016-11.897C85.293,69.333,82.867,66.201,80.666,65.349z"/>
</svg>