<svg xmlns="http://www.w3.org/2000/svg" xmlns:xlink="http://www.w3.org/1999/xlink" version="1.1" id="Layer_1" x="0px" y="0px" width="100px" height="100px" viewBox="247.64 370.945 100 100" enable-background="new 247.64 370.945 100 100" xml:space="preserve">
<g>
	<path d="M297.64,470.945c-27.57,0-50-22.43-50-50s22.43-50,50-50s50,22.43,50,50S325.21,470.945,297.64,470.945z M297.64,382.945   c-20.953,0-38,17.047-38,38c0,20.954,17.047,38,38,38c20.955,0,38-17.046,38-38C335.64,399.992,318.595,382.945,297.64,382.945z"/>
</g>
<path d="M314.281,423.76h-16.376v-20.126c0-2.416-1.958-4.374-4.375-4.374c-2.416,0-4.375,1.958-4.375,4.374v24.563  c0,2.382,1.932,4.313,4.313,4.313h20.813c2.416,0,4.375-1.959,4.375-4.375S316.697,423.76,314.281,423.76z"/>
</svg>