<svg xmlns="http://www.w3.org/2000/svg" xmlns:xlink="http://www.w3.org/1999/xlink" version="1.1" id="Livello_1" x="0px" y="0px" width="100px" height="100px" viewBox="0 0 100 100" enable-background="new 0 0 100 100" xml:space="preserve">
<path fill="#000000" d="M94.04,50.244c-0.917-0.143-2.56-1.042-4.345-2.364c-2.716-1.99-5.878-4.854-8.876-7.252  c-1.507-1.202-2.971-2.284-4.363-3.104c-1.403-0.803-2.726-1.39-4.145-1.406c-0.097,0.003-0.192,0.005-0.286,0.012  c-0.712,0.042-1.381,0.229-2.028,0.456c-0.886-1.016-1.822-1.978-2.855-2.802c0.002-0.108-0.036-0.195-0.036-0.308  c1.367-1.631,2.715-3.532,3.669-5.724c1.527-3.504,2.386-7.988,3.37-11.846c0.479-1.928,0.986-3.694,1.562-5.046  c0.583-1.356,1.25-2.233,1.766-2.532c0.667-0.401,0.88-1.265,0.471-1.928c-0.4-0.657-1.261-0.871-1.927-0.471  c-1.369,0.847-2.189,2.233-2.881,3.822c-1.024,2.401-1.716,5.436-2.453,8.483c-0.719,3.054-1.476,6.108-2.479,8.395  c-0.482,1.104-1.104,2.148-1.778,3.129c-0.842-2.608-2.374-4.718-4.487-6.161c-0.806-0.553-1.684-1.025-2.604-1.419  c0-0.087,0.015-0.177,0.015-0.265c-0.006-1.07-0.417-1.997-1.04-2.787c1.489-1.496,2.881-3.291,4.199-4.837  c0.803-0.954,1.585-1.802,2.258-2.375c0.662-0.59,1.228-0.831,1.428-0.833c0.77-0.073,1.342-0.747,1.272-1.522  c-0.068-0.774-0.755-1.343-1.527-1.273c-1.198,0.128-2.118,0.756-3.007,1.497c-2.33,2.033-4.666,5.458-6.854,7.571  c-1.669-0.9-3.761-1.432-6.078-1.432c-2.312,0-4.412,0.532-6.089,1.436c-1.366-1.331-2.84-3.176-4.271-4.88  c-0.849-0.998-1.688-1.937-2.572-2.695c-0.875-0.741-1.801-1.369-3.004-1.493c-0.769-0.073-1.456,0.494-1.525,1.265  c-0.07,0.777,0.503,1.454,1.271,1.529c0.201-0.004,0.762,0.242,1.438,0.831c1.814,1.517,4.055,4.761,6.475,7.192  c-0.632,0.794-1.062,1.726-1.072,2.807c0,0.088,0.02,0.182,0.02,0.268c-0.924,0.391-1.797,0.866-2.604,1.412  c-2.104,1.447-3.643,3.557-4.485,6.158c-0.676-0.984-1.3-2.019-1.778-3.122c-1.341-3.059-2.228-7.463-3.216-11.412  c-0.499-1.987-1.022-3.861-1.717-5.466c-0.693-1.592-1.518-2.968-2.884-3.82C23.33,5.526,22.46,5.74,22.056,6.396  c-0.398,0.667-0.194,1.528,0.472,1.935c0.526,0.291,1.192,1.173,1.763,2.531c0.877,2.028,1.578,4.97,2.295,8.026  c0.74,3.063,1.503,6.229,2.649,8.863c0.942,2.181,2.286,4.07,3.652,5.703c0,0.062-0.016,0.114-0.028,0.178  c-1.078,0.843-2.062,1.839-2.998,2.899c-0.602-0.206-1.227-0.361-1.89-0.403c-0.087-0.013-0.187-0.012-0.282-0.009  c-1.887,0.033-3.627,1.019-5.555,2.302c-2.865,1.96-6.028,4.802-8.98,7.228c-2.91,2.433-5.766,4.396-7.186,4.595  c-0.773,0.137-1.278,0.87-1.14,1.629c0.124,0.682,0.718,1.158,1.382,1.158c0.08,0,0.17-0.009,0.248-0.024  c1.806-0.344,3.566-1.458,5.512-2.865c2.896-2.122,6.062-4.997,8.965-7.318c1.453-1.16,2.838-2.174,4.031-2.87  c1.189-0.709,2.209-1.045,2.727-1.028c0.023-0.002,0.062-0.002,0.092,0.005c0.072,0.003,0.135,0.047,0.205,0.054  c-3.172,4.741-5.051,11.087-5.031,19.173c-0.001,1.388,0.073,2.738,0.176,4.049c-1.131,1.378-2.094,3.006-2.486,5.004  c-0.162,0.818-0.238,1.595-0.24,2.326c0.002,2.462,0.816,4.395,1.507,6.078c0.703,1.707,1.285,3.158,1.285,4.917  c0,0.793-0.111,1.66-0.424,2.68c-0.921,3.051-3.11,5.131-5.165,6.466c-1.014,0.667-1.982,1.141-2.677,1.437  c-0.353,0.149-0.632,0.256-0.83,0.324c-0.189,0.063-0.267,0.092-0.267,0.092c-0.749,0.218-1.171,0.997-0.947,1.741  c0.186,0.613,0.746,1.006,1.35,1.004c0.131,0.005,0.262-0.013,0.392-0.057c0.09-0.027,2.144-0.631,4.522-2.193  c2.367-1.548,5.117-4.088,6.309-7.993c0.383-1.264,0.554-2.425,0.545-3.5c0-2.411-0.806-4.307-1.494-5.985  c-0.705-1.697-1.291-3.183-1.291-5.01c0-0.546,0.052-1.137,0.176-1.78c0.068-0.354,0.248-0.645,0.354-0.974  c1.171,6.289,3.615,11.478,7.039,15.379c4.121,4.697,9.61,7.503,15.669,8.271l2.956-42.859c-2.596-0.266-4.615-2.286-4.616-4.74  c0.006-2.632,2.336-4.769,5.205-4.769c2.871,0,5.192,2.137,5.192,4.769c0,2.454-2.016,4.479-4.616,4.74l2.912,42.841  c6.015-0.795,11.447-3.598,15.529-8.253c3.49-3.975,5.961-9.276,7.111-15.727c0.162,0.435,0.386,0.843,0.472,1.319  c0.13,0.646,0.183,1.236,0.183,1.782c0,1.828-0.595,3.31-1.297,5.01c-0.692,1.676-1.5,3.574-1.494,5.985  c-0.003,1.075,0.166,2.237,0.538,3.501c1.204,3.904,3.944,6.446,6.32,7.992c2.374,1.562,4.434,2.166,4.511,2.193  c0.136,0.038,0.274,0.062,0.404,0.057c0.604,0.002,1.164-0.397,1.338-1.004c0.224-0.743-0.197-1.523-0.945-1.745  c0,0-0.077-0.021-0.27-0.09c-1.386-0.462-7.106-2.906-8.669-8.222c-0.312-1.02-0.427-1.896-0.427-2.683  c0-1.759,0.583-3.21,1.289-4.919c0.7-1.68,1.506-3.613,1.506-6.079c-0.001-0.732-0.068-1.505-0.229-2.323  c-0.416-2.101-1.458-3.823-2.652-5.237c0.092-1.239,0.136-2.508,0.139-3.818c0.016-8.052-1.841-14.388-4.996-19.125  c0.123-0.019,0.248-0.092,0.359-0.099l0.041-0.007c0,0,0.026,0,0.058,0.002c0.701-0.04,2.248,0.618,3.978,1.819  c2.626,1.785,5.775,4.591,8.78,7.077c3.056,2.463,5.808,4.649,8.473,5.183c0.086,0.019,0.17,0.028,0.258,0.027  c0.661,0.001,1.25-0.477,1.372-1.156C95.31,51.111,94.803,50.38,94.04,50.244z M27.07,44.408c0.914-2.417,3.331-3.743,5.394-2.969  c2.082,0.78,3.026,3.373,2.119,5.788c-0.907,2.419-3.325,3.743-5.397,2.967C27.116,49.413,26.166,46.827,27.07,44.408z   M37.693,80.45c-1.986,1.255-4.771,0.408-6.227-1.891c-1.463-2.305-1.053-5.18,0.93-6.438c1.973-1.255,4.758-0.409,6.221,1.89  C40.072,76.311,39.664,79.198,37.693,80.45z M39.013,65.344c-3.166-0.001-5.713-2.56-5.714-5.713c0-3.154,2.546-5.713,5.712-5.713  c3.155,0,5.715,2.559,5.714,5.714C44.725,62.784,42.167,65.343,39.013,65.344z M55.283,59.631c0-3.154,2.56-5.713,5.713-5.713  c3.155,0,5.714,2.559,5.714,5.714c0,3.152-2.559,5.711-5.714,5.712C57.844,65.343,55.285,62.784,55.283,59.631z M68.544,78.56  c-1.47,2.3-4.251,3.149-6.229,1.891c-1.975-1.252-2.387-4.137-0.921-6.438c1.454-2.299,4.238-3.147,6.219-1.891  C69.584,73.381,70.005,76.255,68.544,78.56z M72.934,44.408c0.911,2.419-0.038,5.005-2.11,5.786  c-2.078,0.776-4.498-0.546-5.396-2.967c-0.916-2.418,0.03-5.008,2.107-5.788C69.61,40.665,72.025,41.991,72.934,44.408z"/>
</svg>