<svg xmlns="http://www.w3.org/2000/svg" xmlns:xlink="http://www.w3.org/1999/xlink" version="1.1" id="Layer_1" x="0px" y="0px" width="100.0px" height="100px" viewBox="0 0 102 102" enable-background="new 0 0 102 102" xml:space="preserve">
<path d="M28.19,32.438h-2.003V14.03c0-0.95-0.77-1.719-1.718-1.719h-2.646c-0.949,0-1.718,0.769-1.718,1.719v18.407H7.228  c-1.423,0-2.576,1.154-2.576,2.577v4.771H2.717C1.769,39.786,1,40.555,1,41.504v11.804c0,0.95,0.769,1.719,1.717,1.719h1.934V87.11  c0,1.426,1.153,2.578,2.576,2.578H28.19c1.423,0,2.577-1.152,2.577-2.578V35.015C30.767,33.592,29.613,32.438,28.19,32.438z   M17.708,44.354c1.686,0,3.053,1.365,3.053,3.052s-1.367,3.053-3.053,3.053c-1.686,0-3.053-1.366-3.053-3.053  S16.023,44.354,17.708,44.354z M26.46,84.964H8.958c-0.475,0-0.859-0.383-0.859-0.858c0-0.474,0.384-0.859,0.859-0.859H26.46  c0.474,0,0.859,0.386,0.859,0.859C27.319,84.581,26.934,84.964,26.46,84.964z M26.46,81.25H8.958c-0.475,0-0.859-0.384-0.859-0.857  c0-0.476,0.384-0.858,0.859-0.858H26.46c0.474,0,0.859,0.383,0.859,0.858C27.319,80.866,26.934,81.25,26.46,81.25z M26.46,77.536  H8.958c-0.475,0-0.859-0.386-0.859-0.86c0-0.474,0.384-0.858,0.859-0.858H26.46c0.474,0,0.859,0.385,0.859,0.858  C27.319,77.15,26.934,77.536,26.46,77.536z M26.46,73.822H8.958c-0.475,0-0.859-0.385-0.859-0.86c0-0.475,0.384-0.858,0.859-0.858  H26.46c0.474,0,0.859,0.384,0.859,0.858C27.319,73.438,26.934,73.822,26.46,73.822z M26.46,70.107H8.958  c-0.475,0-0.859-0.385-0.859-0.857c0-0.476,0.384-0.86,0.859-0.86H26.46c0.474,0,0.859,0.385,0.859,0.86  C27.319,69.723,26.934,70.107,26.46,70.107z"/>
<path d="M98.424,32.438h-2.005V14.031c0-0.949-0.768-1.718-1.718-1.718h-2.646c-0.946,0-1.716,0.769-1.716,1.718v18.407H77.461  c-1.425,0-2.578,1.154-2.578,2.577v4.771H72.95c-0.948,0-1.718,0.771-1.718,1.719v11.803c0,0.95,0.77,1.719,1.718,1.719h1.933V87.11  c0,1.426,1.153,2.576,2.578,2.576h20.963c1.422,0,2.576-1.15,2.576-2.576V35.016C101,33.593,99.846,32.438,98.424,32.438z   M87.941,44.354c1.687,0,3.053,1.366,3.053,3.053s-1.366,3.053-3.053,3.053s-3.053-1.366-3.053-3.053S86.255,44.354,87.941,44.354z   M96.693,84.964H79.19c-0.476,0-0.859-0.383-0.859-0.858c0-0.474,0.384-0.859,0.859-0.859h17.503c0.474,0,0.857,0.386,0.857,0.859  C97.551,84.581,97.167,84.964,96.693,84.964z M96.693,81.25H79.19c-0.476,0-0.859-0.384-0.859-0.857  c0-0.476,0.384-0.858,0.859-0.858h17.503c0.474,0,0.857,0.383,0.857,0.858C97.551,80.866,97.167,81.25,96.693,81.25z M96.693,77.536  H79.19c-0.476,0-0.859-0.386-0.859-0.86c0-0.474,0.384-0.858,0.859-0.858h17.503c0.474,0,0.857,0.385,0.857,0.858  C97.551,77.15,97.167,77.536,96.693,77.536z M96.693,73.822H79.19c-0.476,0-0.859-0.385-0.859-0.86c0-0.475,0.384-0.858,0.859-0.858  h17.503c0.474,0,0.857,0.384,0.857,0.858C97.551,73.438,97.167,73.822,96.693,73.822z M96.693,70.107H79.19  c-0.476,0-0.859-0.385-0.859-0.857c0-0.476,0.384-0.86,0.859-0.86h17.503c0.474,0,0.857,0.385,0.857,0.86  C97.551,69.723,97.167,70.107,96.693,70.107z"/>
<polygon points="50.786,53.59 37.833,61.069 50.786,68.547 50.786,64.11 64.167,64.11 64.167,58.11 50.786,58.11 "/>
<polygon points="51.214,48.41 64.167,40.931 51.214,33.453 51.214,37.89 37.833,37.89 37.833,43.89 51.214,43.89 "/>
</svg>