<svg xmlns="http://www.w3.org/2000/svg" xmlns:xlink="http://www.w3.org/1999/xlink" xml:space="preserve" width="95px" height="99px" style="shape-rendering:geometricPrecision; text-rendering:geometricPrecision; image-rendering:optimizeQuality; fill-rule:evenodd; clip-rule:evenodd" viewBox="0 0 16.8294 17.664">
 <defs>
  <style type="text/css">
   
    .fil0 {fill:#0A0B0C}
   
  </style>
 </defs>
 <g id="Layer_x0020_1">
  <metadata id="CorelCorpID_0Corel-Layer"/>
  <path class="fil0" d="M5.90093 17.3721c1.81725,0.382911 3.08321,0.395493 5.02754,0l0 -2.09259c-1.87974,0.238218 -3.1457,0.240944 -5.02754,0l0 2.09259zm-5.90093 -4.55928c3.75697,3.07104 14.0333,2.7848 16.8294,0l-3.03917 -2.15885c-3.40195,1.31041 -7.00856,1.33536 -10.7511,0l-3.03917 2.15885zm1.93154 -3.49631c3.06832,2.28237 9.95945,2.35702 12.9663,0l-2.5923 -2.35115c-2.52834,0.865219 -5.25632,0.918063 -7.78927,0.0220184l-2.58475 2.32913zm1.75392 -3.30612c2.21757,1.62014 7.10356,1.54716 9.45848,0l-3.03917 -2.4994 -0.00356489 1.35633 -1.73505 -0.936936 -1.95125 0.952244 0.281416 -1.35759 -3.01086 2.48535zm3.91047 -4.42696l0.841313 -1.58344 0.732269 1.58344 1.71848 0.00335519 -1.26386 1.09023 0.183696 1.66396 -1.44168 -0.738351 -1.4983 0.738351 0.301967 -1.66396 -1.22842 -1.09358 1.65453 0z"/>
 </g>
</svg>