<?xml version="1.0" encoding="utf-8"?>
<!-- Generator: Adobe Illustrator 15.1.0, SVG Export Plug-In . SVG Version: 6.00 Build 0)  -->
<!DOCTYPE svg PUBLIC "-//W3C//DTD SVG 1.1//EN" "http://www.w3.org/Graphics/SVG/1.1/DTD/svg11.dtd">
<svg version="1.1" id="Layer_1" xmlns="http://www.w3.org/2000/svg" xmlns:xlink="http://www.w3.org/1999/xlink" x="0px" y="0px"
	 width="100px" height="100px" viewBox="0 0 100 100" enable-background="new 0 0 100 100" xml:space="preserve">
<path d="M35.733,11.827c-1.79,1.79-3.582,3.581-5.371,5.372C24.792,11.628,19.22,6.058,13.649,0.487c-0.65-0.65-1.734-0.649-2.385,0
	C7.672,4.079,4.08,7.67,0.488,11.263c-0.65,0.65-0.65,1.735,0,2.385c5.571,5.571,11.142,11.143,16.713,16.712
	c-1.791,1.791-3.582,3.582-5.372,5.371c-1.019,1.02-0.295,2.92,1.192,2.879c7.756-0.211,15.514-0.422,23.27-0.635
	c0.938-0.024,1.662-0.748,1.687-1.686c0.213-7.756,0.424-15.514,0.635-23.271C38.651,11.532,36.751,10.808,35.733,11.827z"/>
<path d="M80.806,15.188L67.421,31.656c-0.683,0.86-1.192,2.494-0.033,3.545l3.384,3.38l17.2-21.16l-3.38-2.814
	C83.275,14.033,81.656,14.35,80.806,15.188z"/>
<path d="M63.215,63.223l-0.014-0.014c-5.872,5.744-11.282,9.994-13.174,11.438c-2.969,2.12-3.762,1.886-5.711,0.798
	c-1.34-0.749-1.969-1.17-2.811-1.896L20.174,90.887c1.705,1.65,4.635,3.812,7.781,5.555c3.402,1.844,7.109,3.318,9.668,3.559
	c9.199-3.617,25.605-12.718,37.627-24.74l0.008-0.008C87.281,63.23,96.381,46.823,100,37.624c-0.242-2.558-1.717-6.265-3.559-9.667
	c-1.744-3.146-3.904-6.077-5.557-7.781L73.548,41.507c0.725,0.844,1.146,1.47,1.896,2.811c1.087,1.951,1.322,2.741-0.798,5.711
	c-1.443,1.892-5.694,7.302-11.438,13.174l0.014,0.014L63.215,63.223z"/>
<path d="M15.186,80.808c-0.838,0.849-1.156,2.469-0.583,3.786l2.817,3.379l21.16-17.2l-3.383-3.384
	c-1.047-1.16-2.684-0.648-3.544,0.034L15.186,80.808z"/>
</svg>
