<svg xmlns="http://www.w3.org/2000/svg" xmlns:xlink="http://www.w3.org/1999/xlink" xml:space="preserve" width="100px" height="87px" style="shape-rendering:geometricPrecision; text-rendering:geometricPrecision; image-rendering:optimizeQuality; fill-rule:evenodd; clip-rule:evenodd" viewBox="0 0 18.2435 15.8181">
 <defs>
  <style type="text/css">
   
    .fil0 {fill:#0A0B0C}
   
  </style>
 </defs>
 <g id="Layer_x0020_1">
  <metadata id="CorelCorpID_0Corel-Layer"/>
  <path class="fil0" d="M7.87464 10.6961l1.47514 0c0.213275,0 0.387778,-0.174447 0.387778,-0.387778l0 -0.611802c0,-0.213332 -0.505558,-0.999636 -0.718777,-0.999636l-0.0522778 0 0 -3.23402c0.0422049,-0.0178386 0.0770942,-0.0396726 0.101348,-0.0660084 0.517601,-0.574718 2.04688,-1.24482 1.93788,-1.90535 -0.0271237,-0.60443 -0.937173,0.263583 -1.95859,0.191779 -1.31353,-0.0922317 -1.53592,-0.0466505 -1.52528,0.0612815 -0.183901,0.581302 -0.397626,1.01809 0.569541,1.67868 0.0404604,0.0263358 0.0978028,0.0479447 0.16488,0.0643765l0 3.20926 -0.0572298 0c-0.213219,0 -0.712193,0.786305 -0.712193,0.999636l0 0.611802c0,0.213275 0.174503,0.387778 0.387778,0.387778zm-7.11636 -1.12513c1.14966,-0.0709605 1.42534,0.804931 2.28542,1.83079l0.486088 -0.344448c-0.392843,-0.239499 2.14845,-1.87041 1.19097,-4.4 -0.590587,-1.12057 0.599591,-2.38626 -0.0499143,-3.64943 -0.425706,0.698575 -1.10177,0.484624 -1.58707,1.07442 -0.320082,0.389016 -0.979378,-0.109057 -0.878368,-0.96289l1.88932 -2.45053 0.0332574 -0.668863c0.313667,0.139276 0.613828,0.353227 0.730651,0.63071 1.51915,0.503645 2.39611,1.52455 2.49808,3.16992 -0.27315,0.650912 -0.40376,1.10312 0.770098,1.87986l0 2.40934c-0.264934,-0.0751247 -0.540898,-0.18452 -0.862105,-0.304775 -1.19367,0.768804 -0.949553,1.35123 -1.5434,1.86225 -0.90144,0.775782 -1.19867,2.09263 -1.54335,1.8623l-0.0339327 0.931827c3.58595,2.66397 7.10618,2.11857 10.2884,-0.164205 0.178105,-0.127796 0.352833,-0.296897 0.526154,-0.488113 -0.00748433,0.00489577 -0.0149124,0.00979153 -0.0225093,0.014631l-0.0370277 -1.20683c-0.24839,0.193411 -0.166569,-0.559749 -0.457219,-1.20728 -0.337189,-0.751134 -2.08987,-0.166287 -3.22687,-2.23433 -0.952592,0.650743 -1.58713,0.940099 -2.11891,1.01635l0 -2.51333c0.561043,-0.643484 2.15554,-1.40137 2.03737,-2.14108 0.66588,-0.207479 1.22985,-0.284123 2.11446,0.340396 0.98191,-0.594864 1.59895,-0.449791 2.00175,0.260939 0.171915,0.303425 0.221716,1.54222 0.696718,0.812753 0.152106,0.402578 0.0724236,0.70409 -0.474383,0.830367 0.170339,0.437918 0.447991,0.401678 0.785798,0.0994347 0.0740555,0.461327 -0.105681,0.77415 -0.622212,0.890073 0.145973,0.452324 0.55052,0.405223 1.10008,0.0779946 -0.286543,1.13441 -1.68549,1.24746 -2.24755,-0.0827778 -0.342028,-0.578544 0.738079,-3.22935 -0.76464,-2.32915 0.232971,0.650912 0.33505,1.30706 0.0756311,1.97783 -0.261952,0.586479 -0.131398,1.0836 0.472976,1.47289 0.714782,0.241637 0.533526,0.689234 0.879212,1.41696 0.106075,0.310121 0.696099,0.851075 0.455194,0.976227l0.340621 0.320813c0.466842,-0.556373 0.948034,-1.01438 1.47858,-1.01106 1.52061,-0.0750684 0.620187,2.00777 -0.265609,1.44678 -0.286205,-0.160266 0.00399539,-1.18641 -0.369152,-0.190203 -1.76124,4.70252 -10.7285,8.39849 -15.2944,-0.0902622 -0.324752,-0.687433 0,0 -0.354296,0.270336 -0.97437,0.613546 -1.80108,-1.44498 -0.383839,-1.43665zm7.40645 0.593232l0.876455 0c0.126783,0 0.230495,-0.0833406 0.230495,-0.185364l0 -0.292508c0,-0.101967 -0.300499,-0.477872 -0.42717,-0.477872l-0.486988 0c-0.126727,0 -0.423287,0.375905 -0.423287,0.477872l0 0.292508c0,0.102023 0.103711,0.185364 0.230495,0.185364z"/>
 </g>
</svg>