<svg xmlns="http://www.w3.org/2000/svg" xmlns:xlink="http://www.w3.org/1999/xlink" xml:space="preserve" width="100px" height="41px" style="shape-rendering:geometricPrecision; text-rendering:geometricPrecision; image-rendering:optimizeQuality; fill-rule:evenodd; clip-rule:evenodd" viewBox="0 0 44.8145 18.2851">
 <defs>
  <style type="text/css">
   
    .fil0 {fill:#0A0B0C}
   
  </style>
 </defs>
 <g id="Layer_x0020_1">
  <metadata id="CorelCorpID_0Corel-Layer"/>
  <path class="fil0" d="M19.7653 3.22156c1.8616,-1.58747 3.5971,-1.30419 5.25873,0.0769057 0.511981,-1.21793 1.48643,-2.00373 2.79858,-2.48858 -3.62051,-0.382306 -7.24117,-0.387526 -10.8617,-0.0142648 1.30388,0.473425 2.2789,1.23979 2.80437,2.42594zm-16.287 0.103936c0.16389,-0.173348 0.715409,-0.617209 1.30202,-0.950415 1.04588,-0.594055 2.23311,-1.04169 1.77214,-0.601859 -2.2513,1.86894 -5.09009,5.11666 -3.90482,9.47356 0.119028,0.274131 -2.07082,-4.85157 0.830664,-7.92128zm-3.17463 4.11626l0.692978 -0.0102851c0.381169,-3.89402 2.80416,-7.30997 7.71289,-7.18194 2.36356,-0.158928 4.54291,-0.196812 6.35433,0.0810404 4.87286,-0.444327 9.74821,-0.440812 14.6256,0.0107503 1.82506,-0.289585 4.0299,-0.252786 6.42369,-0.0917906 4.90935,-0.128021 7.33209,3.2887 7.71279,7.18339l0.667549 -0.00987163c0.169523,-0.00253251 0.310259,0.134068 0.312791,0.303643l0.00826943 0.557669c0.00253251,0.169575 -0.134068,0.310259 -0.303643,0.312791l-0.631371 0.00940647c-0.0246532,4.5301 -2.66632,9.28703 -7.2679,9.67854 -5.96551,-0.0885345 -10.1411,-8.32163 -11.187,-10.6455 -0.831904,-1.84837 -0.778463,-3.02708 -0.599947,-3.74843 -1.55067,-1.30243 -3.1582,-1.51491 -4.85074,-0.0912738 0.196037,0.711739 0.292014,1.91122 -0.575914,3.8397 -1.04593,2.32392 -5.22147,10.557 -11.187,10.6455 -4.60147,-0.391506 -7.24329,-5.14829 -7.26805,-9.67843l-0.621913 0.00925142c-0.169575,0.00248083 -0.310259,-0.13412 -0.312791,-0.303643l-0.00826943 -0.557721c-0.00253251,-0.169575 0.134068,-0.310259 0.303643,-0.312791z"/>
 </g>
</svg>