<svg xmlns="http://www.w3.org/2000/svg" xmlns:xlink="http://www.w3.org/1999/xlink" xml:space="preserve" width="100px" height="62px" style="shape-rendering:geometricPrecision; text-rendering:geometricPrecision; image-rendering:optimizeQuality; fill-rule:evenodd; clip-rule:evenodd" viewBox="0 0 14.8282 9.21469">
 <defs>
  <style type="text/css">
   
    .fil0 {fill:#0A0B0C}
   
  </style>
 </defs>
 <g id="Layer_x0020_1">
  <metadata id="CorelCorpID_0Corel-Layer"/>
  <path class="fil0" d="M3.08936 4.56031c0.00619141,0 0.0123828,0 0.0186263,5.20286e-005l0.00343389 -0.0234129c0.0120186,-0.0822053 0.089021,-0.139541 0.171226,-0.127574l0.315762 0.0462014c0.0823093,0.0120186 0.139541,0.089021 0.127678,0.171226l-0.00353795 0.0240893c0.0289279,0.00848067 0.0575957,0.0175337 0.0860554,0.027159l0.0118105 -0.0228406c0.038189,-0.0736726 0.129864,-0.1026 0.203484,-0.0643074l0.283296 0.147137c0.0737766,0.0382931 0.102653,0.129864 0.0644115,0.203588l-0.00790835 0.0152444c0.0246096,0.0170134 0.0489069,0.034495 0.0727881,0.0524969l0.0279394 -0.0280434c0.0585843,-0.0588444 0.154629,-0.0590005 0.213422,-0.000416229l0.226221 0.225284c0.0588444,0.0585843 0.0590525,0.154629 0.000468258,0.213474l-0.0275232 0.0275752c0.0242454,0.0318415 0.0476062,0.0643594 0.0701866,0.0975017l0.0244014 -0.0131632c0.0731003,-0.0394377 0.165139,-0.0118625 0.204525,0.0611857l0.151611 0.281007c0.0393857,0.0731003 0.0118625,0.165087 -0.0612377,0.204525l-0.0443284 0.0239332c0.0131632,0.039906 0.0252339,0.0803322 0.0362119,0.121227l0.0178979 -0.00156086c0.0827256,-0.00733604 0.156346,0.0543699 0.16363,0.137043l0.0281475 0.317999c0.00728401,0.081633 -0.052705,0.154369 -0.133766,0.16337 -0.00078043,0.0516124 -0.00332983,0.102757 -0.00754415,0.153432l0.00358998 0.000728401c0.0813728,0.0165451 0.134442,0.0966692 0.117897,0.17799l-0.063527 0.3129c-0.0164931,0.0813728 -0.0966172,0.13439 -0.17799,0.117897l-0.0169093 -0.00343389c-0.0152444,0.0403742 -0.0316334,0.0801241 -0.049115,0.119302l0.00504678 0.00301766c0.0715394,0.0422473 0.0953165,0.135274 0.0530692,0.20671l-0.16259 0.274815c-0.0422473,0.0714353 -0.135327,0.0953165 -0.206762,0.0530692l-0.0178979 -0.0106138c-0.0267948,0.0319976 -0.054474,0.0631628 -0.0829337,0.0935995l0.0088969 0.0096253c0.0561909,0.0611857 0.0521847,0.157127 -0.0088969,0.213265l-0.234961 0.216231c-0.0610816,0.0561909 -0.157022,0.0522368 -0.213317,-0.0088969l-0.0356396 -0.0387613c-0.0356396,0.0214358 -0.0719556,0.0418831 -0.108844,0.0613418l0.00775227 0.0222683c0.0275232,0.0784072 -0.0140998,0.164983 -0.0924549,0.192402l-0.301194 0.10567c-0.0784072,0.0275232 -0.164983,-0.0140998 -0.192506,-0.0924549l-0.00598329 -0.0170654c-0.0379809,0.00796038 -0.076274,0.0149843 -0.114931,0.0209675l0.000208115 0.0367843c0.000468258,0.0829857 -0.067117,0.151351 -0.150155,0.151768l-0.319248 0.001821c-0.0830377,0.000468258 -0.151299,-0.0670649 -0.151768,-0.150051l-0.000208115 -0.0302286c-0.0408425,-0.00499475 -0.0812687,-0.0111862 -0.121435,-0.0183141l-0.00509881 0.0172215c-0.0234649,0.0797079 -0.107855,0.125545 -0.187511,0.10208l-0.306189 -0.0903738c-0.0796559,-0.023569 -0.125545,-0.107907 -0.102028,-0.187615l0.0100936 -0.0342349c-0.0397499,-0.0194587 -0.0788234,-0.0401661 -0.117273,-0.0619141l-0.00161289 0.00197709c-0.0530692,0.0638392 -0.14875,0.072632 -0.212537,0.0195107l-0.245575 -0.204056c-0.0578559,-0.0481265 -0.0704988,-0.131268 -0.032778,-0.194015 -0.0379289,-0.0383451 -0.074505,-0.078095 -0.109624,-0.119094 -0.0673251,0.0350153 -0.152236,0.0143079 -0.195211,-0.0501036l-0.177314 -0.265502c-0.0451609,-0.0677413 -0.0279914,-0.15952 0.0376687,-0.206554 -0.0191465,-0.0415709 -0.0370444,-0.0837141 -0.0536415,-0.126586 -0.0750253,0.010926 -0.14823,-0.0364201 -0.16774,-0.111289l-0.0804363 -0.308946c-0.0208115,-0.079864 0.0270549,-0.162173 0.106503,-0.183765 -0.00400621,-0.043496 -0.00676372,-0.0873561 -0.00822053,-0.131528 -0.0787714,-0.00759618 -0.139385,-0.0759618 -0.136315,-0.155982l0.0120706 -0.318988c0.00317375,-0.0829857 0.0735685,-0.148282 0.156606,-0.145108l0.0325699 0.00119666c0.0107179,-0.0431318 0.0227885,-0.0857952 0.0359518,-0.127938l-0.00400621 -0.00187303c-0.0749733,-0.0357957 -0.107127,-0.126274 -0.0713833,-0.201247l0.137252 -0.288135c0.0356396,-0.0750773 0.126222,-0.107179 0.201195,-0.0714874l0.00317375 0.00150883c0.012747,-0.0194067 0.0258062,-0.0386053 0.0391255,-0.0575437l-0.00353795 -0.00317375c-0.0619661,-0.0552544 -0.0674812,-0.151143 -0.0122267,-0.213057l0.212485 -0.238395c0.0552544,-0.0619141 0.151143,-0.0674291 0.213109,-0.0121747l0.0141518 0.012643c0.0324659,-0.0264306 0.0657642,-0.0518726 0.0997389,-0.0764821l-0.00572315 -0.00931313c-0.043496,-0.070811 -0.0210196,-0.164202 0.0497394,-0.207594l0.272214 -0.166752c0.070759,-0.043496 0.16415,-0.0210716 0.207594,0.0497914l0.0260664 0.0425594c0.0274191,-0.00993747 0.0550983,-0.0193547 0.0829857,-0.0281995l-0.00343389 -0.0237771c-0.0118625,-0.0822053 0.0456812,-0.159156 0.127886,-0.170966l0.31597 -0.0456291c0.0822053,-0.0119146 0.159052,0.0455771 0.171018,0.127834l0.00119666 0.00832458c0.0227365,-0.000728401 0.0455251,-0.00104057 0.0684697,-0.00104057zm9.35949 0c0.00624344,0 0.0124348,0 0.0186263,5.20286e-005l0.00343389 -0.0234129c0.0120186,-0.0822053 0.089021,-0.139541 0.171226,-0.127574l0.315814 0.0462014c0.0822573,0.0120186 0.139541,0.089021 0.127626,0.171226l-0.00353795 0.0240893c0.0289279,0.00848067 0.0576477,0.0175337 0.0860554,0.027159l0.0118625 -0.0228406c0.038189,-0.0736726 0.129811,-0.1026 0.203432,-0.0643074l0.283296 0.147137c0.0737766,0.0382931 0.102705,0.129864 0.0644115,0.203588l-0.00790835 0.0152444c0.0246096,0.0170134 0.0489069,0.034547 0.0728401,0.0524969l0.0278874 -0.0280434c0.0585843,-0.0588444 0.154629,-0.0590005 0.213474,-0.000416229l0.226221 0.225284c0.0587924,0.0585843 0.0590005,0.154629 0.000416229,0.213474l-0.0274711 0.0275752c0.0242454,0.0318415 0.0477103,0.0643074 0.0702387,0.0974497l0.0243494 -0.0131112c0.0731003,-0.0394377 0.165087,-0.0118625 0.204473,0.0611857l0.151611 0.281007c0.0394377,0.0731003 0.0118625,0.165087 -0.0611857,0.204525l-0.0444325 0.0239332c0.0131632,0.039958 0.0252339,0.0803322 0.0362119,0.121227l0.0179499 -0.00156086c0.0827256,-0.00733604 0.156346,0.0543699 0.163682,0.137043l0.0281475 0.317999c0.00723198,0.081633 -0.0527571,0.154369 -0.133818,0.16337 -0.00078043,0.0516124 -0.00332983,0.102757 -0.00754415,0.153432l0.00358998 0.000728401c0.0814248,0.0165451 0.134442,0.0966692 0.117897,0.17799l-0.063527 0.3129c-0.0164931,0.0813728 -0.0965652,0.13439 -0.177938,0.117897l-0.0169613 -0.00343389c-0.0152444,0.0403742 -0.0316334,0.0801241 -0.049063,0.119302l0.00499475 0.00301766c0.0715394,0.0422473 0.0953165,0.135274 0.0530692,0.20671l-0.16259 0.274815c-0.0422473,0.0714353 -0.135274,0.0953165 -0.206762,0.0530692l-0.0178979 -0.0106138c-0.0267427,0.0319976 -0.054422,0.0631628 -0.0829337,0.0935995l0.0088969 0.0096253c0.056243,0.0611857 0.0522368,0.157127 -0.0088969,0.213265l-0.234909 0.216231c-0.0610816,0.0561909 -0.157074,0.0522368 -0.213317,-0.0088969l-0.0356917 -0.0387613c-0.0356396,0.0214358 -0.0719556,0.0418831 -0.108844,0.0613418l0.0078043 0.0222683c0.0274711,0.0784072 -0.0141518,0.164983 -0.0925069,0.192402l-0.301194 0.10567c-0.0783551,0.0275232 -0.164931,-0.0140998 -0.192454,-0.0924549l-0.00598329 -0.0170654c-0.0379809,0.00796038 -0.076326,0.0149843 -0.114983,0.0209675l0.000208115 0.0367843c0.000468258,0.0829857 -0.067117,0.151351 -0.150155,0.151768l-0.319196 0.001821c-0.0830377,0.000468258 -0.151299,-0.0670649 -0.15182,-0.150051l-0.000156086 -0.0302807c-0.0408425,-0.00499475 -0.0813208,-0.0111862 -0.121435,-0.0183141l-0.00509881 0.0172735c-0.0235169,0.0797079 -0.107907,0.125545 -0.187563,0.10208l-0.306189 -0.0903738c-0.0796038,-0.023569 -0.125545,-0.107907 -0.102028,-0.187615l0.0101456 -0.0343389c-0.0397499,-0.0194587 -0.0788234,-0.0401661 -0.117221,-0.0618621l-0.00166492 0.00202912c-0.0531213,0.0638392 -0.14875,0.072632 -0.212589,0.0195107l-0.245523 -0.204056c-0.0579079,-0.0481265 -0.0705508,-0.13132 -0.032778,-0.194067 -0.0379289,-0.0383451 -0.074505,-0.078095 -0.109624,-0.119094 -0.0673251,0.0350673 -0.152236,0.0143599 -0.195211,-0.0500516l-0.177314 -0.265502c-0.0452129,-0.0676893 -0.0280434,-0.159416 0.0375647,-0.206502 -0.0191465,-0.0415709 -0.0370444,-0.0837661 -0.0536936,-0.126638 -0.0749213,0.010874 -0.148074,-0.0364721 -0.167636,-0.111289l-0.0804363 -0.308946c-0.0207594,-0.0798119 0.0270029,-0.162069 0.106347,-0.183713 -0.00395418,-0.043496 -0.0067117,-0.0874081 -0.0081685,-0.13158 -0.0787193,-0.00770024 -0.139281,-0.0760139 -0.136159,-0.155982l0.0120706 -0.318988c0.00312172,-0.0829857 0.0735685,-0.148282 0.156554,-0.145108l0.0325699 0.00119666c0.0107179,-0.0431318 0.0227885,-0.0857952 0.0360038,-0.127938l-0.00405823 -0.00187303c-0.0749733,-0.0357957 -0.107075,-0.126274 -0.0713313,-0.201247l0.1372 -0.288135c0.0356917,-0.0750773 0.126222,-0.107179 0.201195,-0.0714874l0.00317375 0.00150883c0.012747,-0.0194067 0.0258062,-0.0386053 0.0391776,-0.0575437l-0.00353795 -0.00317375c-0.0620181,-0.0552544 -0.0674812,-0.151143 -0.0122267,-0.213057l0.212433 -0.238395c0.0553065,-0.0619141 0.151143,-0.0674291 0.213109,-0.0121747l0.0141518 0.012643c0.0325179,-0.0264306 0.0657642,-0.0518726 0.0997389,-0.0764821l-0.00572315 -0.00931313c-0.0434439,-0.070811 -0.0210196,-0.164202 0.0497394,-0.207594l0.272214 -0.166752c0.070759,-0.043496 0.16415,-0.0210716 0.207594,0.0497914l0.0261184 0.0425594c0.0274191,-0.00993747 0.0550463,-0.0193547 0.0829857,-0.0281995l-0.00343389 -0.0237771c-0.0118625,-0.0822053 0.0456812,-0.159156 0.127834,-0.170966l0.31597 -0.0456291c0.0822053,-0.0119146 0.159104,0.0455771 0.171018,0.127834l0.00119666 0.00832458c0.0227365,-0.000728401 0.0455771,-0.00104057 0.0684697,-0.00104057zm-12.2082 -3.08743l5.95343 0c0.0613418,0 0.111497,0.0502076 0.111497,0.111497l0 2.03952c0,0.124348 0.00343389,0.198853 -0.0578038,0.198177l-1.70774 -0.0184702c0.0284076,-2.00711 -2.85205,-2.04129 -2.73145,-0.194119l-1.57433 -0.162121c-0.187303,-0.0193026 -0.32341,-0.557539 -0.163734,-0.557539l0.13054 5.20286e-005 -0.0718516 -1.08032 0 -0.22518c0,-0.0612897 0.0501556,-0.111497 0.111445,-0.111497zm6.38901 -1.37652c0.00988544,-0.0631108 0.049063,-0.103849 0.152548,-0.0952124l1.74608 0.00379809c0.215659,0.000468258 0.385272,0.0505198 0.559724,0.177106l1.61195 1.37257 0.904102 0.0754415 0.000520286 -0.236886c5.20286e-005,-0.0428196 0.0350673,-0.0778869 0.0778869,-0.0778869l1.73401 0c-0.0119146,0.159416 -0.0996869,0.306397 -0.127782,0.455355l1.11378 0.0929752c0.167116,0.0342349 0.196148,0.146773 0.18543,0.357801l-0.000832458 0.945517 0.0440683 -0.00119666c-0.000364201,0.139125 -0.063579,0.600671 -0.235326,0.612481l-0.620181 0.0232048c0.325075,-1.5991 -2.71917,-2.07495 -2.79238,0.0495313l-4.47951 0c-0.0572835,-0.00156086 -0.0900096,-0.0390215 -0.0867318,-0.128927 -0.0513002,-1.37002 -0.0449007,-2.66376 0.212641,-3.62567zm0.568985 0.0457332l1.37382 0.00306969c0.144275,0.000312172 0.260507,0.0403742 0.363212,0.132985l0.8784 0.792396c0.346823,0.274503 0.235742,0.418623 -0.0983862,0.395262l-2.62568 -0.00530692c-0.0386053,-5.20286e-005 -0.0678454,-0.0316854 -0.0701866,-0.0701866 -0.0248177,-0.406916 0.0104057,-0.759098 0.108636,-1.17803 0.00884487,-0.0375127 0.0315814,-0.0702387 0.0701866,-0.0701866zm5.25021 5.97549c0.379965,0 0.688131,0.308114 0.688131,0.688079 0,0.379965 -0.308166,0.688131 -0.688131,0.688131 -0.379965,0 -0.688079,-0.308166 -0.688079,-0.688131 0,-0.379965 0.308114,-0.688079 0.688079,-0.688079zm-9.35949 0c0.379965,0 0.688079,0.308114 0.688079,0.688079 0,0.379965 -0.308114,0.688131 -0.688079,0.688131 -0.379965,0 -0.688131,-0.308166 -0.688131,-0.688131 0,-0.379965 0.308166,-0.688079 0.688131,-0.688079z"/>
 </g>
</svg>