<svg xmlns="http://www.w3.org/2000/svg" xmlns:xlink="http://www.w3.org/1999/xlink" xml:space="preserve" width="100px" height="55.0000283464px" style="shape-rendering:geometricPrecision; text-rendering:geometricPrecision; image-rendering:optimizeQuality; fill-rule:evenodd; clip-rule:evenodd" viewBox="0 0 87104 48184.4">
 <defs>
  <style type="text/css">
   
    .fil0 {fill:#0A0B0C}
   
  </style>
 </defs>
 <g id="Layer_x0020_1">
  <metadata id="CorelCorpID_0Corel-Layer"/>
  <path class="fil0" d="M2479.69 5690.07c15680,125.08 25203.5,8798.2 40438.6,-1413.31 766.914,-880.429 8966.8,302.2 12815.7,3148.61l180.468 -3319.94c372.501,-589.793 -5878.76,-3001.61 -5895.5,-3491.59 -129.645,-1985.76 8308.23,1436.44 9571.81,1948.93 11028,4474.27 12817.5,8281.14 16774.1,12434.3 461.365,484.19 819.563,3771.27 483.277,3956.3 -648.833,357.589 -3754.22,-5358.35 -6722.97,-2532.94 336.285,1132.72 649.442,2221.92 941.599,3267.6 569.403,-68.7788 1149.15,-104.69 1736.82,-104.69 7896.47,0 14300.5,6404.03 14300.5,14300.5 0,7896.47 -6404.03,14300.5 -14300.5,14300.5 -7896.47,0 -14300.5,-6404.03 -14300.5,-14300.5 0,-4665.39 2234.7,-8810.07 5692.51,-11420.3 -278.463,-657.354 -561.49,-1336.32 -849.996,-2037.19 -3394.2,2494.29 -7431.15,9767.8 -7366.02,13907l-6234.22 -134.514 -20064.8 -370.371 -1080.98 161.6c-57.5185,7847.47 -6438.12,14194.3 -14299,14194.3 -7896.47,0 -14300.5,-6404.03 -14300.5,-14300.5 0,-7896.47 6404.03,-14300.5 14300.5,-14300.5 2829.36,0 5466.39,821.693 7686.48,2239.87 1121.46,-1936.76 1516.78,-3743.88 156.73,-4631.61l-7589.7 -3.34764 -1643.99 -3765.79 6451.81 17.0425c-4158.68,-1007.94 -5809.07,-1795.55 -10780,-2018.32 -997.901,-44.7366 -6170.91,-4909.77 -6102.14,-5731.16zm70323.8 23592.9c2540.86,0 4600.87,2060.01 4600.87,4600.87 0,2540.86 -2060.01,4600.87 -4600.87,4600.87 -2540.86,0 -4600.87,-2060.01 -4600.87,-4600.87 0,-2540.86 2060.01,-4600.87 4600.87,-4600.87zm-58503 0c2540.86,0 4600.87,2060.01 4600.87,4600.87 0,2540.86 -2060.01,4600.87 -4600.87,4600.87 -2540.86,0 -4600.87,-2060.01 -4600.87,-4600.87 0,-2540.86 2060.01,-4600.87 4600.87,-4600.87zm11178.1 -4316.63c1168.02,1462.31 2055.45,3158.04 2580.12,5006.55 589.184,-96.1685 1115.07,-237.987 1880.16,-623.878 -1042.64,-3495.24 -1110.2,-3445.02 -3612.1,-6029.1 -353.328,647.616 -625.704,1186.59 -848.17,1646.43zm24825.5 7190.12l-20.0858 -1498.52c2786.45,-984.51 3835.48,-5929.58 5535.78,-6687.06l1088.59 378.587c-1050.55,1484.22 -1967.8,5831.59 -2437.69,7779.91l-4166.59 27.0854zm-6360.21 -19645.5c1338.45,423.324 5124.02,1181.41 5629.81,2113.88l-3748.14 1465.66c-1121.15,-1310.75 -1892.63,-1598.65 -1881.68,-3579.54z"/>
 </g>
</svg>