<svg xmlns="http://www.w3.org/2000/svg" xmlns:xlink="http://www.w3.org/1999/xlink" xml:space="preserve" width="100px" height="33px" style="shape-rendering:geometricPrecision; text-rendering:geometricPrecision; image-rendering:optimizeQuality; fill-rule:evenodd; clip-rule:evenodd" viewBox="0 0 54.948 18.4222">
 <defs>
  <style type="text/css">
   
    .fil0 {fill:#0A0B0C}
   
  </style>
 </defs>
 <g id="Layer_x0020_1">
  <metadata id="CorelCorpID_0Corel-Layer"/>
  <path class="fil0" d="M0 0l8.64123 2.04277c0.166598,0.0497694 0.813354,0.713197 0.85312,0.791371l-3.9119 0 7.417 7.19162c0.224395,-0.0368022 0.454594,-0.0561913 0.689362,-0.0561913 2.33373,0 4.22633,1.8926 4.22633,4.22633 0,2.33373 -1.8926,4.22633 -4.22633,4.22633 -2.33373,0 -4.22633,-1.8926 -4.22633,-4.22633 0,-0.43681 0.0666886,-0.858183 0.189692,-1.25461l-5.0319 -10.1071 -2.88082 0c0.0482875,-1.47382 -0.531533,-2.41857 -1.73946,-2.83414zm5.11415 2.83414l-0.0403836 0 4.77589 9.59315c0.523629,-1.13457 1.53532,-1.99769 2.76572,-2.32002l-7.50123 -7.27313zm19.5188 9.35159l-2.19158 -0.326527 0.000370492 -1.57632c0,-0.17549 -0.143627,-0.318994 -0.318994,-0.318994l-0.000123497 0c-0.175366,0 -0.318994,0.143627 -0.318994,0.318994l-0.000370492 1.48123 -0.122139 -0.0181541c0.0237115,-1.73353 -1.55397,-2.73028 -2.43734,-2.75831l-0.922896 -0.092376c-0.847192,-0.0847192 -1.88642,-0.616869 0.466079,-0.576856 0.147085,-0.157706 0.102626,-1.24461 -0.0528569,-1.40132 -4.60904,-0.0284044 -3.4315,0.574757 -3.86201,1.9762l-1.58003 0.00284044 0 0.769265c4.2945,-0.252552 6.57117,4.45751 3.6843,7.90309l29.5035 0.419026c-0.67516,-1.01268 -0.586489,-1.96336 -0.19846,-2.8907l-17.7357 -2.46167c-0.119175,-0.0263049 -1.93928,-2.50551 -1.93286,-1.64128l-0.0130907 1.48481 -0.170056 -0.025317 -0.319117 -0.0475465 -1.47765 -0.220072zm23.6586 2.25877c1.09814,0 1.9888,0.890663 1.9888,1.98892 0,1.09814 -0.890663,1.9888 -1.9888,1.9888 -1.09826,0 -1.98892,-0.890663 -1.98892,-1.9888 0,-1.09826 0.890663,-1.98892 1.98892,-1.98892zm6.4268 3.5713l-4.60559 0c0.401613,-0.548822 0.533879,-1.17631 0.481887,-1.85765 -0.00666886,-0.0878066 4.09715,0.86127 4.1237,0.880907 0.122756,0.0284044 0.229705,0.103367 0.229705,0.229829l0 0.517207c0,0.126338 -0.103367,0.229705 -0.229705,0.229705zm-6.4268 -2.3283c0.41174,0 0.7458,0.33406 0.7458,0.745924 0,0.41174 -0.33406,0.7458 -0.7458,0.7458 -0.411864,0 -0.745924,-0.33406 -0.745924,-0.7458 0,-0.411864 0.33406,-0.745924 0.745924,-0.745924zm-34.6027 -3.48053c1.09826,0 1.98892,0.890663 1.98892,1.98892 0,1.09826 -0.890663,1.9888 -1.98892,1.9888 -1.09826,0 -1.9888,-0.890539 -1.9888,-1.9888 0,-1.09826 0.890539,-1.98892 1.9888,-1.98892z"/>
 </g>
</svg>