<svg xmlns="http://www.w3.org/2000/svg" xmlns:xlink="http://www.w3.org/1999/xlink" version="1.1" id="Layer_1" x="0px" y="0px" width="100px" height="100px" viewBox="0 0 100 100" enable-background="new 0 0 100 100" xml:space="preserve">
<g>
	<path d="M46.766,38.269c0,1.843,1.494,3.337,3.337,3.337c1.842,0,3.337-1.494,3.337-3.337s-1.495-3.336-3.337-3.336   C48.26,34.933,46.766,36.425,46.766,38.269L46.766,38.269z M46.766,53.246c0,1.842,1.494,3.336,3.337,3.336   c1.842,0,3.337-1.494,3.337-3.336s-1.495-3.337-3.337-3.337C48.26,49.909,46.766,51.404,46.766,53.246L46.766,53.246z    M42.636,12.296c0,1.309,1.061,2.371,2.37,2.371c1.309,0,2.371-1.062,2.371-2.371c0-1.309-1.062-2.37-2.371-2.37   C43.697,9.926,42.636,10.987,42.636,12.296L42.636,12.296z M52.715,12.296c0,1.309,1.061,2.371,2.37,2.371   c1.308,0,2.369-1.062,2.369-2.371c0-1.309-1.062-2.37-2.369-2.37C53.775,9.926,52.715,10.987,52.715,12.296L52.715,12.296z    M46.369,17.474c-0.887,0.368-1.883,1.045-1.883,2.122c0,2.28,4.037,2.762,5.575,2.762c1.537,0,5.575-0.482,5.575-2.762   c0-2.28-4.038-2.763-5.575-2.763C48.658,16.833,47.353,17.066,46.369,17.474L46.369,17.474z M68.6,27.083   c-1.395,0.154-1.162,2.246,0.232,2.091c2.694-0.257,0.043,1.957,1.127,3.978c0.667,1.25,1.683,1.113,2.314,1.832   c0.184,1.046-1.401,2.743,0.34,4.257c2.5,2.175,4.457-1.028,2.23-1.316c-1.471-0.19-0.885-0.81-0.566-1.909   c0.853-2.943-2.039-3.062-2.466-3.857c-0.36-0.673,2.024-4.889-2.552-5.092C68.873,27.05,68.6,27.083,68.6,27.083L68.6,27.083z    M25.915,40.154c1.08,0.896,2.423-0.724,1.343-1.62c-2.057-1.761,1.377-1.391,2.08-3.573c0.434-1.351-0.368-1.984-0.291-2.939   c0.624-0.858,2.947-0.896,2.826-3.202c-0.172-3.31-3.836-2.491-2.497-0.689c0.884,1.188,0.031,1.199-0.979,1.732   c-2.709,1.432-0.787,3.593-1.062,4.453c-0.234,0.728-4.922,1.941-1.89,5.373C25.702,39.98,25.915,40.154,25.915,40.154   L25.915,40.154z M27.444,72.433c-1.003,0.979,0.466,2.485,1.47,1.505c1.966-1.861,1.24,1.516,3.336,2.441   c1.298,0.574,2.011-0.157,2.952,0.02c0.79,0.709,0.584,3.022,2.889,3.143c3.309,0.175,2.879-3.553,0.947-2.409   c-1.274,0.756-1.195-0.094-1.621-1.156c-1.14-2.843-3.491-1.157-4.318-1.521c-0.699-0.308-1.415-5.099-5.145-2.44   C27.64,72.239,27.444,72.433,27.444,72.433L27.444,72.433z M73.117,73.033c0,0-0.195-0.195-0.512-0.42   c-3.729-2.657-4.445,2.132-5.145,2.439c-0.824,0.366-3.178-1.32-4.316,1.523c-0.427,1.059-0.348,1.91-1.621,1.154   c-1.934-1.143-2.361,2.586,0.947,2.411c2.305-0.12,2.1-2.435,2.889-3.144c0.939-0.178,1.654,0.553,2.951-0.02   c2.098-0.926,1.371-4.303,3.338-2.441C72.652,75.518,74.12,74.012,73.117,73.033L73.117,73.033z M34.994,94.213   c-4.701,9.73-19.905,3.66-15.335-7.319c3.605-8.665,8.255-17.149,12.296-25.636c1.479-3.105,3.423-6.092,4.408-9.41   c0.808-2.727-0.548-6.219-3.09-7.696c-3.17-1.841-8.901-2.968-12.546-4.218c-10.701-3.668-5.309-19.679,5.437-16.101l14.692,4.959   c1.566,0.527,1.943-1.292,1.407-1.819c-0.127-0.084-0.254-0.171-0.379-0.26c-3.635-2.592-5.992-6.815-5.992-11.589   c0-7.843,6.358-14.2,14.2-14.2c7.843,0,14.199,6.357,14.199,14.2c0,5.043-2.627,9.471-6.587,11.99   c-0.423,0.614,0.184,2.133,1.537,1.677l14.693-4.959c10.751-3.582,16.128,12.435,5.435,16.102l-12.172,4.107   c-2.662,0.898-4.267,5.094-3.465,7.806c0.986,3.318,2.93,6.303,4.409,9.41c4.042,8.486,8.687,16.971,12.295,25.634   c4.573,10.976-10.631,17.056-15.335,7.32L54.143,71.401c-0.73-1.026-1.859-1.792-3.105-2.054c-0.432-0.051-0.799-0.076-0.99-0.076   c-0.164,0-0.455,0.019-0.804,0.055c-1.647,0.311-3.1,1.516-3.733,3.015L34.994,94.213L34.994,94.213z M46.96,18.902   c0.754-0.312,1.851-0.524,3.101-0.524s2.346,0.212,3.101,0.524c0.852,0.353,0.931,0.671,0.931,0.694s-0.079,0.341-0.931,0.694   c-0.755,0.312-1.851,0.524-3.101,0.524s-2.346-0.211-3.101-0.524c-0.852-0.353-0.93-0.671-0.93-0.694S46.108,19.254,46.96,18.902   L46.96,18.902z"/>
</g>
</svg>