<svg xmlns="http://www.w3.org/2000/svg" xmlns:xlink="http://www.w3.org/1999/xlink" version="1.1" id="Layer_1" x="0px" y="0px" width="100px" height="100px" viewBox="0 0 100 100" enable-background="new 0 0 100 100" xml:space="preserve">
<g>
	<path d="M16.151,47.758c1.541-0.759,2.748-2.133,3.065-3.861c-3.367-1.079-7.234-0.354-10.074,2.224   C10.968,48.623,13.88,48.876,16.151,47.758L16.151,47.758z M17.308,27.887c-3.001-1.737-6.852-1.895-10.158-0.073   c-0.553,0.302-1.068,0.65-1.544,1.034c-0.378,3.249-0.196,6.596,0.588,9.891C6.42,38.483,6.661,38.236,6.918,38   c2.833-2.627,6.72-3.382,10.108-2.315C16.51,33.057,16.625,30.387,17.308,27.887L17.308,27.887z M28.453,16.34   c-0.034-3.798-2.238-7.452-5.964-9.205C22.204,7,21.915,6.879,21.625,6.772c-0.446,0.203-0.893,0.42-1.333,0.652   c-5.043,2.625-8.931,6.589-11.463,11.241c4.166-1.524,8.839-0.226,11.525,3.2c1.403-1.766,3.194-3.273,5.328-4.386   C26.585,17.012,27.513,16.631,28.453,16.34L28.453,16.34z M44.913,19.956c2.488-2.11,3.932-5.411,3.57-8.947   c-0.094-0.925-0.305-1.809-0.617-2.637c-4.468-2.656-9.575-4.08-14.74-4.085c3.05,2.903,4.107,7.453,2.343,11.426   C38.925,16.127,42.236,17.598,44.913,19.956L44.913,19.956z M56.346,38.998c4.143-1.119,7.695-4.026,8.746-7.354l-6.63-12.413   c-0.379-0.673-0.783-1.327-1.206-1.959c-0.234,3.971-2.84,9.279-6.46,11.341L56.346,38.998L56.346,38.998z M67.999,60.812   c4.145-1.137,7.697-4.059,8.726-7.396l-6.609-12.367c-1.169,2.409-2.976,4.633-5.197,5.79c-1.176,0.614-2.401,1.088-3.627,1.425   L67.999,60.812L67.999,60.812z M79.838,82.979c4.167-1.179,7.707-4.16,8.654-7.535l-6.737-12.612   c-1.174,2.421-2.989,4.667-5.221,5.834c-1.164,0.604-2.377,1.076-3.587,1.413L79.838,82.979L79.838,82.979z M92.071,93.992   c2.504-1.303,4.067-4.24,2.267-7.604l-0.803-1.503c-1.167,2.479-3.01,4.789-5.286,5.978c-1.109,0.579-2.264,1.034-3.419,1.368   C86.698,94.959,89.746,95.205,92.071,93.992L92.071,93.992z M60.744,17.976l35.893,67.186c5.209,9.746-9.316,17.35-14.52,7.608   L46.326,25.774c-9.314-16.417-33.922-3.532-25.415,13.258c4.993,9.855-9.699,17.135-14.688,7.281   C-1.429,31.21,4.194,12.87,19.091,5.111C33.995-2.651,52.46,3.252,60.744,17.976L60.744,17.976z"/>
</g>
</svg>