<svg xmlns="http://www.w3.org/2000/svg" xmlns:xlink="http://www.w3.org/1999/xlink" version="1.1" id="Layer_1" x="0px" y="0px" width="100px" height="100px" viewBox="0 0 100 100" enable-background="new 0 0 100 100" xml:space="preserve">
<g>
	<path fill="#000000" d="M15.395,28.561c0.473,0.25,0.826,0.735,0.826,1.455v8.309c0,0.719-0.354,1.204-0.826,1.453v19.397   c0.473,0.25,0.826,0.732,0.826,1.453v8.307c0,0.721-0.354,1.205-0.826,1.453v0.717c0,1.492,1.275,3.359,2.863,4.033l26.397,11.156   c1.433,0.602,2.221-0.035,2.221-1.184v-43.83c0-1.494-1.274-3.361-2.864-4.032L17.615,26.092c-1.432-0.605-2.221,0.035-2.221,1.184   V28.561L15.395,28.561z M21.998,83.244l-4.674,1.975c-0.11,0.045-0.215,0.062-0.305,0.055c-0.092,0.008-0.195-0.01-0.305-0.055   L11.51,83.02c-0.265-0.111-0.492-0.361-0.599-0.629c-0.044-0.07-0.067-0.158-0.067-0.262v-8.643l0.006-0.129V20.646   c0-0.598,0.127-1.112,0.355-1.529c0.643-1.718,2.092-3.339,3.778-4.051L47.359,1.387c0.761-0.321,1.473-0.417,2.084-0.317   c0.521-0.017,1.1,0.095,1.709,0.353l32.375,13.679c1.662,0.702,3.094,2.287,3.752,3.978c0.24,0.423,0.373,0.95,0.373,1.566v0.099   l0.008,0.235v52.471l0.004,8.709c0,0.145-0.021,0.227-0.057,0.293c-0.104,0.275-0.336,0.537-0.607,0.652l-5.207,2.199   c-0.111,0.047-0.211,0.064-0.305,0.055c-0.09,0.01-0.193-0.008-0.303-0.055l-4.779-2.018l-20.83,8.797l-0.002,3.586   c0,0.143-0.02,0.225-0.055,0.293c-0.104,0.277-0.338,0.537-0.607,0.654l-5.205,2.197c-0.111,0.047-0.213,0.064-0.305,0.055   c-0.092,0.01-0.195-0.008-0.305-0.055l-5.205-2.197c-0.264-0.113-0.492-0.363-0.6-0.631c-0.043-0.07-0.066-0.156-0.066-0.264v-3.51   L21.998,83.244L21.998,83.244z M19.156,55.303c0.5,2.16,2.178,3.576,3.748,3.164c1.57-0.41,2.438-2.496,1.938-4.656   s-2.178-3.578-3.746-3.166C19.523,51.057,18.656,53.143,19.156,55.303L19.156,55.303z M20.93,48.917   c0.694-1.844,1.977-3.221,3.652-3.661c3.196-0.838,6.609,2.046,7.625,6.444c1.017,4.398-0.75,8.641-3.944,9.479   c-1.53,0.4-3.109-0.049-4.45-1.113c-0.152,0.068-0.31,0.123-0.473,0.166c-2.261,0.592-4.678-1.449-5.398-4.561   c-0.719-3.111,0.531-6.116,2.793-6.708L20.93,48.917L20.93,48.917z M34.339,65.76v-7.832c0-2.084,1.165-4.203,2.832-5.584   c0.009-1.666,0.815-3.08,2.079-3.411c1.571-0.412,3.248,1.006,3.748,3.167c0.5,2.16-0.368,4.246-1.938,4.66   c-0.684,0.178-1.387,0.012-2.006-0.412c-0.365,0.531-0.584,1.115-0.584,1.58v7.832C38.471,68.512,34.339,68.512,34.339,65.76   L34.339,65.76z"/>
</g>
</svg>