<svg xmlns="http://www.w3.org/2000/svg" xmlns:xlink="http://www.w3.org/1999/xlink" version="1.1" id="Layer_1" x="0px" y="0px" width="100px" height="100px" viewBox="0 0 100 100" enable-background="new 0 0 100 100" xml:space="preserve">
<g>
	<path d="M80.486,30.633h-60.75c-2.693,0-4.877,2.185-4.877,4.877v59.652c0,2.692,2.184,4.877,4.877,4.877h60.75   c2.692,0,4.877-2.185,4.877-4.877V35.511C85.363,32.818,83.179,30.633,80.486,30.633z M79.584,94.685H20.219V36.104h59.365V94.685z   "/>
</g>
<g>
	<path d="M69.429,48.862c0,0-12.286,0-12.271,0c-1.515,0-2.898,1.175-2.898,2.896v15.012c0,1.226,1.021,2.106,2.108,2.106   c0,0,0.475,0,1.226,0v19.749c0,3.576,5.277,3.576,5.277,0V68.877c0.269,0,0.534,0,0.803,0v19.749c0,3.602,5.273,3.602,5.273,0   V68.877c0.797,0,1.288,0,1.288,0c1.098,0,2.104-0.861,2.104-2.106V51.759C72.339,50.17,71.081,48.862,69.429,48.862z"/>
	<ellipse cx="63.349" cy="43.702" rx="3.961" ry="3.944"/>
</g>
<g>
	<path d="M43.249,48.862c0,0-12.289,0-12.276,0c-1.513,0-2.896,1.175-2.896,2.896v15.012c0,1.226,1.017,2.106,2.108,2.106   c0,0,0.476,0,1.227,0v19.749c0,3.576,5.275,3.576,5.275,0V68.877c0.266,0,0.53,0,0.799,0v19.749c0,3.602,5.28,3.602,5.28,0V68.877   c0.79,0,1.279,0,1.279,0c1.106,0,2.106-0.861,2.106-2.106V51.759C46.151,50.17,44.898,48.862,43.249,48.862z"/>
	<g>
		<path d="M37.164,47.646c2.191,0,3.958-1.767,3.958-3.946c0-2.178-1.767-3.942-3.958-3.942c-2.184,0-3.959,1.764-3.959,3.942    C33.205,45.879,34.979,47.646,37.164,47.646z"/>
	</g>
</g>
<g>
	<polygon points="23.898,11.922 34.778,1.04 45.658,11.922 45.658,19.1 37.385,10.822 37.382,27.088 32.116,27.088 32.116,10.878    23.886,19.113  "/>
	<polygon points="76.613,16.208 65.731,27.088 54.854,16.204 54.854,9.028 63.128,17.306 63.128,1.04 68.395,1.04 68.395,17.247    76.624,9.017  "/>
</g>
</svg>