<svg xmlns="http://www.w3.org/2000/svg" xmlns:xlink="http://www.w3.org/1999/xlink" version="1.1" id="Layer_1" x="0px" y="0px" width="100px" height="100px" viewBox="0 0 100 100" enable-background="new 0 0 100 100" xml:space="preserve">
<path fill="none" stroke="#000000" stroke-width="4" stroke-linecap="round" stroke-linejoin="round" stroke-miterlimit="10" d="  M70.752,21.002C77.739,28.246,82.166,38.998,82.166,51c0,9.232-2.62,17.727-7.01,24.452"/>
<path fill="none" stroke="#000000" stroke-width="4" stroke-linecap="round" stroke-linejoin="round" stroke-miterlimit="10" d="  M23.771,75.34c-4.347-6.708-6.938-15.158-6.938-24.34c0-12.007,4.43-22.763,11.422-30.008"/>
<path fill="none" stroke="#000000" stroke-width="8" stroke-linecap="round" stroke-linejoin="round" stroke-miterlimit="10" d="  M27.46,21.144c5.762-6.157,13.333-6.894,21.626-6.894c8.256,0,15.796,0.702,21.547,6.809"/>
<path d="M29.27,72.863c0.752,3.367-1.367,6.705-4.734,7.457l-2.395,0.535c-3.367,0.752-6.706-1.366-7.458-4.733l-4.037-18.069  c-0.752-3.367,1.367-6.705,4.734-7.458l2.395-0.535c3.367-0.752,6.706,1.367,7.458,4.734L29.27,72.863z"/>
<path d="M69.49,72.874c-0.754,3.366,1.365,6.706,4.732,7.458l2.395,0.535c3.367,0.752,6.707-1.367,7.459-4.734l4.037-18.068  c0.754-3.366-1.365-6.707-4.732-7.459l-2.395-0.535c-3.367-0.752-6.707,1.367-7.459,4.734L69.49,72.874z"/>
<circle cx="18.875" cy="36.875" r="3.625"/>
<circle cx="80" cy="36.875" r="3.625"/>
<path d="M26.446,82.432c0.233,0.867-0.281,1.758-1.147,1.991l0,0c-0.867,0.233-1.758-0.28-1.991-1.147l-0.779-2.896  c-0.233-0.864,0.281-1.758,1.147-1.989l0,0c0.867-0.232,1.758,0.279,1.991,1.146L26.446,82.432z"/>
<path d="M26.186,84.832c0.107,0.398-0.13,0.812-0.53,0.919l0,0c-0.4,0.106-0.812-0.13-0.919-0.53l-0.292-1.086  c-0.107-0.4,0.129-0.812,0.529-0.919l0,0c0.4-0.106,0.812,0.13,0.919,0.529L26.186,84.832z"/>
<g>
	<path d="M27.125,100h-1v-7.875c0-2.291-0.978-6.596-0.987-6.639l0.975-0.223c0.042,0.181,1.013,4.458,1.013,6.861V100z"/>
</g>
<circle fill="#000000" cx="18.938" cy="36.938" r="0.688"/>
<circle fill="#000000" cx="80.25" cy="36.938" r="0.688"/>
</svg>