<svg xmlns="http://www.w3.org/2000/svg" xmlns:xlink="http://www.w3.org/1999/xlink" version="1.1" id="Layer_1" x="0px" y="0px" width="100px" height="100px" viewBox="0 0 100 100" enable-background="new 0 0 100 100" xml:space="preserve">
<path d="M84.163,53.86c-0.012-3.981-0.506-7.891-1.429-11.63c0.548-0.635,0.891-1.451,0.891-2.355c0-1.697-1.171-3.11-2.745-3.505  c-1.604-4.095-3.77-7.872-6.429-11.174c0.392-1.32,0.106-2.804-0.906-3.879c-7.01-7.443-16.301-8.067-24.459-8.067  c-8.181,0-17.5,0.631-24.546,8.161c-1.19,1.272-1.375,3.108-0.615,4.571c-2.368,3.099-4.312,6.59-5.788,10.345  c-1.647,0.341-2.887,1.8-2.887,3.549c0,0.958,0.378,1.822,0.985,2.471c-0.896,3.667-1.376,7.498-1.396,11.399  c-3.048,0.972-4.903,4.125-4.193,7.308l4.037,18.069c0.752,3.367,4.091,5.485,7.458,4.733l2.395-0.535  c3.367-0.752,5.486-4.09,4.734-7.457l-4.037-18.069c-0.671-3.005-3.403-5.009-6.376-4.872c0.078-3.307,0.508-6.548,1.269-9.657  c1.383-0.511,2.375-1.83,2.375-3.39c0-0.769-0.243-1.479-0.652-2.066c1.385-3.53,3.218-6.801,5.463-9.678  c0.049,0.002,0.098,0.014,0.147,0.014c1.068,0,2.134-0.425,2.921-1.267c4.405-4.707,10.194-5.627,18.706-5.627  c8.491,0,14.263,0.908,18.635,5.551c1.011,1.073,2.47,1.448,3.81,1.14c2.293,2.896,4.168,6.196,5.579,9.768  c-0.455,0.606-0.734,1.351-0.734,2.167c0,1.61,1.057,2.959,2.509,3.432c0.758,3.113,1.186,6.36,1.26,9.671  c-3.054-0.244-5.898,1.783-6.585,4.858l-4.037,18.069c-0.754,3.366,1.365,6.706,4.732,7.458l2.395,0.535  c3.367,0.752,6.707-1.367,7.459-4.734l4.037-18.069C88.839,57.987,87.084,54.908,84.163,53.86z"/>
</svg>