<svg xmlns="http://www.w3.org/2000/svg" xmlns:xlink="http://www.w3.org/1999/xlink" version="1.1" id="Layer_1" x="0px" y="0px" width="100px" height="100px" viewBox="0 0 100 100" enable-background="new 0 0 100 100" xml:space="preserve">
<path d="M62.333,56.633h-7.612c0,0-6.708,0-6.708,5.291c0,5.537,6.522,5.537,6.522,5.537h2.942c0,0,2.146-6.443,4.855-9.459  C62.27,57.129,62.333,56.633,62.333,56.633z"/>
<g>
	<path fill="none" d="M80.587,54.949c0,0,0,1.557,2.413,1.557c2.288-0.004,2.52-1.439,2.439-1.93   c-0.271-2.532-0.465-4.52-0.558-5.492h-4.296L80.587,54.949L80.587,54.949z"/>
</g>
<path d="M98.62,47.285V1.098H0.5v47.986h45.232c0.236,5.171,6.888,5.186,6.888,5.186c4.979,0,9.713,0,9.713,0v-5.186h4.185  c0,3.41,0,6.902,0,9.975c-11.578,15.563-5.229,29.01-5.229,29.01v10.834H89.18v-12.08c0,0,7.221-15.437,10.209-25.398  C99.723,59.16,99.268,53.336,98.62,47.285z M83,56.506c-1.846,0-2.277-0.91-2.38-1.338v-6.083h4.263  c0.094,0.972,0.287,2.959,0.559,5.492C85.52,55.066,85.288,56.502,83,56.506z M94.48,30.293v14.651H84.463H80.62l-0.033-11.86  c0,0-0.334-7.342-6.95-7.262c-6.771,0.082-7.119,7.088-7.119,7.088s0,5.418,0,12.034h-4.185H47.541H4.64V5.238h89.84V30.293z"/>
<path d="M49.389,8.58c-9.066,0-16.419,7.353-16.419,16.419c0,9.064,7.353,16.415,16.419,16.415s16.417-7.351,16.417-16.415  C65.807,15.933,58.455,8.58,49.389,8.58z"/>
</svg>