<svg xmlns="http://www.w3.org/2000/svg" xmlns:xlink="http://www.w3.org/1999/xlink" xml:space="preserve" width="30.6929998372px" height="100px" style="shape-rendering:geometricPrecision; text-rendering:geometricPrecision; image-rendering:optimizeQuality; fill-rule:evenodd; clip-rule:evenodd" viewBox="0 0 6863.31 22201.2">
 <defs>
  <style type="text/css">
   
    .fil0 {fill:#0A0B0C}
   
  </style>
 </defs>
 <g id="Layer_x0020_1">
  <metadata id="CorelCorpID_0Corel-Layer"/>
  <path class="fil0" d="M1681.55 1727.95l3240.75 0c-0.592879,6166.24 1928.64,8877.18 1941.01,10697.2l-8.89318 8304.08c55.5083,1917.89 -6798.1,2007.27 -6849.46,0l0 -8299.64c-113.61,-1168.42 1749.22,-4281.55 1676.59,-10701.7zm-750.214 12328l377.96 -0.0741099 -119.613 -928.819c125.913,-948.977 4117.62,-1133.21 4555.31,0l-107.978 928.745 353.43 0c-84.8558,2414.35 -362.397,3299.67 -723.683,5646.28 -1666.29,0 -1913.15,0 -3579.43,0 -308.593,-2112.87 -579.391,-3231.71 -755.995,-5646.13zm2183.35 1388.37c157.558,103.606 696.188,355.727 878.943,246.045 111.165,-66.773 -121.021,-397.896 -318.08,-560.048 21.1213,-91.5998 429.393,-175.566 562.346,-206.618 577.464,146.589 945.864,523.66 1066.44,1069.11 182.384,825.806 -467.114,1672.21 -1450.63,1889.65 -983.586,217.068 -1929.6,-276.504 -2111.61,-1102.83 -105.458,-476.082 -42.0203,-821.211 301.701,-1197.39 87.9684,-39.4264 108.2,-22.233 478.676,-194.835 -169.489,110.127 -161.782,483.493 -45.9481,649.277 244.711,-0.815209 470.524,-548.339 638.16,-592.36zm-890.801 -60.8442c322.748,-274.429 338.682,-286.879 678.55,-401.231 75.2215,-25.2715 148.294,-225.294 77.0001,-400.045 18.5275,-21.6401 50.9876,-61.8076 99.5295,-59.9549 77.0001,2.74206 167.488,220.551 173.269,363.435 267.166,-76.3332 702.191,-80.7056 766,-17.6381 -250.047,20.3802 -567.459,137.177 -558.714,218.846 27.9394,250.862 257.976,214.696 403.454,477.342 -269.315,-33.4977 -603.921,-231.519 -756.365,-322.748 -143.773,27.3465 -313.559,276.874 -556.195,596.51 -54.1743,-245.155 228.11,-562.642 178.975,-620.003 -31.4967,-36.7585 -333.198,135.399 -505.503,165.487zm1648.72 2752.66c-1078.08,247.675 -2209.44,-340.979 -2406.72,-1302.85 -177.271,-864.195 478.453,-1733.95 1375.63,-2083.38 60.2513,-23.4187 53.285,-164.82 27.1983,-318.45 -16.3783,-95.5276 211.361,-158.595 255.827,-168.822 64.9202,-14.8961 163.264,362.99 227.591,354.023 1005.67,-141.031 2027.35,415.386 2212.77,1319.3 197.28,961.798 -614.148,1952.35 -1692.3,2200.17zm-3333.24 -4259.17l436.433 0 -138.067 -1015.45c145.404,-1037.46 4754.22,-1238.82 5259.58,0l-124.727 1015.31 408.049 0c-97.9732,2639.42 -418.424,3607.22 -835.515,6172.61 -1923.89,0 -2208.92,0 -4132.81,0 -356.32,-2309.86 -668.99,-3532.89 -872.94,-6172.46zm4575.77 -13221.1l0.22233 2.00097 0 0.296439c1.77864,16.5265 2.74206,34.8316 2.2233,54.3966 0,9.48606 -0.370549,18.8239 -0.741099,28.1617l-5.41002 207.878c-6.744,262.127 -20.9731,476.526 -46.6151,476.526l-659.8 0 -2208.92 0 -665.951 0c-53.7297,0 -46.6151,-504.54 -46.6151,-712.566l0.22233 -12.2281 0.14822 -6.22523 0.22233 -5.48413c12.6728,-380.999 328.084,-688.629 711.973,-688.629l2208.92 0c372.847,0 680.996,290.214 710.121,655.872z"/>
 </g>
</svg>