<svg xmlns="http://www.w3.org/2000/svg" xmlns:xlink="http://www.w3.org/1999/xlink" version="1.1" id="Layer_1" x="0px" y="0px" width="100px" height="100px" viewBox="0 0 100 100" enable-background="new 0 0 100 100" xml:space="preserve">
<rect x="51.014" y="43.149" fill="#000000" width="1.676" height="6.613"/>
<path fill="#000000" d="M54.335,44.755h16.401c0.604,0,0.882-0.444,0.609-0.987l-1.609-3.229c-0.271-0.543-0.986-0.955-1.594-0.916  l-13.811,0.895c-0.605,0.04-1.102,0.568-1.102,1.175v1.958C53.232,44.258,53.729,44.755,54.335,44.755z M55.85,41.227h10.901  c0.813,0,1.472,0.652,1.472,1.456c0,0.804-0.658,1.455-1.472,1.455H55.85c-0.812,0-1.47-0.651-1.47-1.455  C54.38,41.879,55.037,41.227,55.85,41.227z"/>
<path fill="#000000" d="M98.159,45.354H73.426h-1.41H53.232v4.937h0.97v3.118l0.325,0.069c-0.016,0.92-0.211,6.863-2.678,10.705  l5.711,2.086c0,0,3.379-5.479,3.385-11.422l0.136,0.029h6.302l4.012,6.934l3.475-0.666c0,0,0.613-0.102,0.256-0.92  c-0.355-0.817-3.109-5.348-3.109-5.348c-1.988-3.117-0.189-4.227,0.826-4.586h0.585l2.665,0.831l20.842,7.711  c0.568,0.21,1.08-0.11,1.137-0.715l1.092-11.666C99.217,45.847,98.768,45.354,98.159,45.354z M66.65,53.689  c0,0.406-0.33,0.735-0.735,0.735H62.37c-0.406,0-0.736-0.329-0.736-0.735v-1.271c0-0.402,0.33-0.734,0.736-0.734h2.198  c0.074,0.211,0.119,0.448,0.119,0.705c0,0.692-0.315,1.272-0.746,1.442c0.082,0.03,0.168,0.05,0.257,0.05  c0.555,0,1.004-0.669,1.004-1.492c0-0.257-0.045-0.494-0.12-0.705h0.833c0.405,0,0.735,0.332,0.735,0.734V53.689z M68.232,51.288  c-0.278,0-0.518-0.169-0.619-0.409h-1.437v-0.535h1.437c0.103-0.24,0.341-0.408,0.619-0.408c0.371,0,0.676,0.303,0.676,0.675  C68.908,50.984,68.604,51.288,68.232,51.288z"/>
<path fill="#000000" d="M17.184,40.154c-0.279-0.293-0.717-0.533-0.976-0.533c-0.258,0-0.468,0.331-0.468,0.735v4.997H6.298v-0.618  H1.096v2.381h5.203v-0.618H20.07V48.2l30.417,1.296V43.5H20.366L17.184,40.154z M16.621,44.471v-3.628l3.448,3.628H16.621z   M20.651,45.821h29.133v0.716H20.651V45.821z"/>
</svg>