<svg xmlns="http://www.w3.org/2000/svg" xmlns:xlink="http://www.w3.org/1999/xlink" version="1.1" id="Layer_1" x="0px" y="0px" width="100px" height="100px" viewBox="0 0 100 100" enable-background="new 0 0 100 100" xml:space="preserve">
<path d="M62.454,15.74c0-7.401-5.896-13.399-13.167-13.399c-7.273,0-13.168,5.998-13.168,13.399c0,3.587-28.228,41.12-28.228,41.12  l41.165,41.165L90.22,56.86C90.22,56.86,62.454,19.447,62.454,15.74z M58.515,18.664c0,0.751-0.613,1.366-1.365,1.366H40.96  c-0.751,0-1.366-0.614-1.366-1.366v-1.115c0-0.751,0.615-1.366,1.366-1.366h16.189c0.752,0,1.365,0.614,1.365,1.366V18.664z"/>
<path d="M41.501,18.233c0,0,1.035,0.626,2.311,0.626c1.276,0,2.311-0.626,2.311-0.626s-1.034-0.627-2.311-0.627  C42.536,17.606,41.501,18.233,41.501,18.233z"/>
<path d="M51.986,18.233c0,0,1.035,0.626,2.312,0.626s2.311-0.626,2.311-0.626s-1.034-0.627-2.311-0.627S51.986,18.233,51.986,18.233  z"/>
<path fill="none" stroke="#000000" d="M57.63,27.421"/>
<path fill="none" stroke="#000000" d="M57.63,27.421"/>
</svg>