<svg xmlns="http://www.w3.org/2000/svg" xmlns:xlink="http://www.w3.org/1999/xlink" version="1.1" id="Layer_1" x="0px" y="0px" width="100px" height="100px" viewBox="0 0 100 100" enable-background="new 0 0 100 100" xml:space="preserve">
<path d="M78.157,64.078c0,15.549-12.614,28.158-28.159,28.158c-15.549,0-28.155-12.609-28.155-28.158  c0-4.427,0.946-8.646,2.845-12.347c1.841-3.617,2.076-3.513,4.661-7.354c2.982-4.448,7.011-10.231,10.325-15.964  C45.792,17.839,49.998,7.764,49.998,7.764s4.166,10.015,10.324,20.649c3.3,5.701,7.329,11.495,10.325,15.964  c2.614,3.888,2.823,3.737,4.715,7.476C77.24,55.512,78.157,59.699,78.157,64.078z"/>
</svg>