<svg xmlns="http://www.w3.org/2000/svg" xmlns:xlink="http://www.w3.org/1999/xlink" version="1.1" id="Layer_1" x="0px" y="0px" width="100px" height="100px" viewBox="0 0 100 100" enable-background="new 0 0 100 100" xml:space="preserve">
<g>
	<path d="M75.104,34.144c-1.549,0-2.805,1.256-2.805,2.804s1.256,2.804,2.805,2.804c1.548,0,2.803-1.255,2.803-2.804   S76.651,34.144,75.104,34.144L75.104,34.144z M58.653,33.301c0,1.145,0.928,2.072,2.071,2.072c1.146,0,2.073-0.928,2.073-2.072   s-0.928-2.072-2.073-2.072C59.581,31.229,58.653,32.156,58.653,33.301L58.653,33.301z M64.665,39.314   c0,1.144,0.929,2.072,2.073,2.072s2.072-0.928,2.072-2.072c0-1.145-0.928-2.073-2.072-2.073S64.665,38.17,64.665,39.314   L64.665,39.314z M52.639,39.314c0,1.144,0.928,2.072,2.072,2.072s2.072-0.928,2.072-2.072c0-1.145-0.928-2.073-2.072-2.073   S52.639,38.17,52.639,39.314L52.639,39.314z M58.653,45.328c0,1.145,0.928,2.072,2.071,2.072c1.146,0,2.073-0.928,2.073-2.072   c0-1.145-0.928-2.073-2.073-2.073C59.581,43.255,58.653,44.183,58.653,45.328L58.653,45.328z M70.545,33.301   c0,1.043,0.771,1.907,1.773,2.051v-4.103C71.315,31.395,70.545,32.257,70.545,33.301L70.545,33.301z M86.053,61.562v34.473   c0,1.552-1.26,2.811-2.809,2.811H38.122c-1.551,0-2.809-1.259-2.809-2.811V75.102V53.086v-1.091H15.923   c-0.609,0-1.172-0.192-1.633-0.522c-0.16-0.1-0.318-0.244-0.474-0.428c-0.125-0.143-0.236-0.297-0.331-0.462   c-1.933-3.103-3.341-12.659-3.341-23.966c0-13.087,1.886-23.827,4.29-24.933c0.431-0.271,0.942-0.428,1.489-0.428h20.284v40.393   c0.259-0.188,0.552-0.35,0.876-0.474c0.438-0.168,0.826-0.25,1.203-0.269c1.69-0.13,3.459,0.7,4.39,2.151l0.118,0.201l0.081,0.152   l2.203,3.898h4.255c0.848-0.259,1.465-1.048,1.465-1.981c0-1.021-0.736-1.869-1.707-2.041v-7.946   c0.971-0.173,1.707-1.02,1.707-2.041s-0.736-1.868-1.707-2.041V28.45c0-0.931,0.754-1.686,1.686-1.686h19.846   c0.549,0,1.035,0.261,1.344,0.666l2.412,2.558c0.239-0.024,0.48-0.037,0.727-0.037c3.863,0,6.994,3.132,6.994,6.996   s-3.131,6.996-6.994,6.996c-1.048,0-2.039-0.229-2.932-0.641c-0.931,0.203-1.627,1.033-1.627,2.025   c0,0.933,0.616,1.722,1.465,1.981h11.234c1.551,0,2.809,1.258,2.809,2.808V61.562L86.053,61.562z"/>
</g>
</svg>