<?xml version="1.0" encoding="utf-8"?>
<!-- Generator: Adobe Illustrator 14.0.0, SVG Export Plug-In . SVG Version: 6.00 Build 43363)  -->
<!DOCTYPE svg PUBLIC "-//W3C//DTD SVG 1.0//EN" "http://www.w3.org/TR/2001/REC-SVG-20010904/DTD/svg10.dtd">
<svg version="1.0" id="Layer_1" xmlns="http://www.w3.org/2000/svg" xmlns:xlink="http://www.w3.org/1999/xlink" x="0px" y="0px"
	 width="100px" height="93.962px" viewBox="0 0 100 93.962" enable-background="new 0 0 100 93.962" xml:space="preserve">
<path fill-rule="evenodd" clip-rule="evenodd" d="M50.467,75.79c6.271,4.254,18.051,9.863,33.954,9.347
	c0,0-8.673-8.548-22.039-11.989C83.86,73.284,100,61.132,100,61.132c-16.856-2.823-30.554,0.313-39.611,3.813
	c22.667-15.339,29.899-40.475,29.899-40.475c-16.624,8.36-27.274,19.611-33.862,29.063C58.171,39.618,57.709,20.93,49.72,0
	c0,0-11.814,23.842-7.982,52.74c-6.626-9.282-17.144-20.142-33.304-28.269c0,0,6.931,24.095,28.497,39.5
	C27.945,60.91,15.27,58.575,0,61.132c0,0,15.671,11.799,36.682,12.012C23.31,76.583,14.633,85.136,14.633,85.136
	c16.064,0.523,27.635-5.241,33.697-9.273c0,0-1.233,11.032,2.362,18.1l1.673-0.312C52.365,93.651,48.897,83.37,50.467,75.79z"/>
</svg>
