<svg xmlns="http://www.w3.org/2000/svg" xmlns:xlink="http://www.w3.org/1999/xlink" xml:space="preserve" width="95px" height="100px" style="shape-rendering:geometricPrecision; text-rendering:geometricPrecision; image-rendering:optimizeQuality; fill-rule:evenodd; clip-rule:evenodd" viewBox="0 0 9.27283 9.75495">
 <defs>
  <style type="text/css">
   
    .fil0 {fill:#0A0B0C}
   
  </style>
 </defs>
 <g id="Layer_x0020_1">
  <metadata id="CorelCorpID_0Corel-Layer"/>
  <path class="fil0" d="M0.899071 7.75731c0.419642,0.613184 2.12818,1.48203 2.12818,1.99764 -0.576675,0 -2.45058,0 -3.02725,0 0,-0.574879 0.899071,-1.42276 0.899071,-1.99764zm7.47469 0c-0.49579,0.724457 -2.12818,1.33738 -2.12818,1.99764 0.576675,0 2.45058,0 3.02725,0 0,-0.574879 -0.899071,-1.42276 -0.899071,-1.99764zm-6.14851 -6.01463l-0.0947419 0.0547003c-0.0453169,0.0261622 -0.127761,-0.030997 -0.183211,-0.127042l-0.115915 -0.200769c-0.0554497,-0.0960409 -0.0637336,-0.196017 -0.0184129,-0.222183l0.0947419 -0.0547003c0.0453207,-0.0261659 0.127761,0.030997 0.183207,0.127038l0.115919 0.200769c0.0554497,0.0960409 0.0637374,0.196017 0.0184129,0.222186zm5.69284 -1.37673l-0.0947419 -0.0547003c-0.0453207,-0.0261659 -0.0577277,-0.0903024 -0.0275704,-0.142536l0.0630445 -0.109194c0.0301573,-0.052234 0.0919027,-0.0735613 0.137223,-0.0473954l0.0947456 0.0547003c0.0453207,0.0261659 0.0577277,0.0903062 0.0275704,0.14254l-0.0630445 0.109194c-0.0301573,0.052234 -0.0919065,0.0735576 -0.137227,0.0473916zm-3.31362 0.837468c2.22478,0 4.02901,1.80422 4.02901,4.02901 0,2.22478 -1.80422,4.02901 -4.02901,4.02901 -2.22478,0 -4.02901,-1.80422 -4.02901,-4.02901 0,-2.22478 1.80422,-4.02901 4.02901,-4.02901zm2.0729 4.02901l0 0c0,0.0989215 -0.0809378,0.179848 -0.179852,0.179848l-1.6514 0c-0.0549225,0.0736592 -0.142728,0.121378 -0.24165,0.121378 -0.166338,0 -0.301234,-0.134893 -0.301234,-0.301234 0,-0.098929 0.0477305,-0.186739 0.121397,-0.241661l0 -2.56758c3.76543e-006,-0.0989215 0.0809303,-0.179852 0.179856,-0.179856l0 0c0.098929,3.76543e-006 0.179856,0.0809378 0.179856,0.179856l3.76543e-006 2.56761c0.0234511,0.0174904 0.0442739,0.0383283 0.0617643,0.0617831l1.65141 0c0.0989215,0 0.179852,0.0809303 0.179852,0.179856zm-2.0729 -3.4642c1.91289,0 3.46419,1.5513 3.46419,3.46419 0,1.91289 -1.5513,3.46419 -3.46419,3.46419 -1.91289,0 -3.46419,-1.5513 -3.46419,-3.46419 0,-1.91289 1.5513,-3.46419 3.46419,-3.46419zm3.23807 -1.38271c0.78636,0.454005 1.19204,1.22408 0.905924,1.71965 0.214136,-0.121763 -2.61921,-1.7877 -2.84815,-1.64438 0.28612,-0.495568 1.15586,-0.529276 1.94222,-0.0752709zm-0.751432 1.41281l-0.0947419 -0.0547003c-0.0453207,-0.0261659 -0.0370367,-0.126142 0.0184129,-0.222186l0.115915 -0.200769c0.0554497,-0.0960409 0.13789,-0.153204 0.183211,-0.127038l0.0947419 0.0547003c0.0453207,0.0261659 0.0370367,0.126142 -0.0184129,0.222183l-0.115915 0.200769c-0.0554497,0.0960447 -0.13789,0.153208 -0.183211,0.127042zm-5.71366 -1.4128c0.78636,-0.454005 1.6561,-0.420297 1.94222,0.0752671 0.00161913,-0.246327 -2.85779,1.37446 -2.84814,1.64438 -0.28612,-0.495571 0.119564,-1.26564 0.905924,-1.71965zm0.0208266 -0.0752144l-0.0947419 0.0547003c-0.0453207,0.0261659 -0.10707,0.00484234 -0.137227,-0.0473916l-0.0630407 -0.109194c-0.0301573,-0.052234 -0.0177502,-0.116374 0.0275667,-0.14254l0.0947456 -0.0547003c0.0453244,-0.0261659 0.107066,-0.00483857 0.137227,0.0473954l0.0630407 0.10919c0.0301573,0.0522377 0.0177502,0.116374 -0.0275704,0.14254z"/>
 </g>
</svg>