<svg xmlns="http://www.w3.org/2000/svg" xmlns:xlink="http://www.w3.org/1999/xlink" xml:space="preserve" width="100px" height="68px" style="shape-rendering:geometricPrecision; text-rendering:geometricPrecision; image-rendering:optimizeQuality; fill-rule:evenodd; clip-rule:evenodd" viewBox="0 0 7.20365 4.90585">
 <defs>
  <style type="text/css">
   
    .str0 {stroke:#1F1A17;stroke-width:0.0032312}
    .fil0 {fill:#0A0B0C}
   
  </style>
 </defs>
 <g id="Layer_x0020_1">
  <metadata id="CorelCorpID_0Corel-Layer"/>
  <path class="fil0 str0" d="M6.97219 1.92783c0.00115763,-0.123345 -0.0251754,-0.18646 -0.0725706,-0.300205 -0.185743,-0.445706 -0.551547,-1.07184 -0.590097,-1.12962 -0.521915,-0.812227 -4.03815,-0.451299 -4.97363,-0.155229 -0.0727444,0.0230212 -0.859262,0.166699 -0.901242,0.333717 -0.0947904,0.216164 -0.197095,0.498839 -0.238977,0.776315l2.26135 0.13231c0.971803,0.0568598 1.70568,0.40555 2.3112,0.767041 0.579839,0.34615 1.04991,0.91443 1.23047,1.53572 0.143996,-0.651999 0.666106,-1.57546 0.97349,-1.96005zm-5.98079 1.54465c-0.0068398,0.119152 -0.0327276,0.244558 -0.0558718,0.308686 -0.0325325,0.0901429 -0.327102,0.0724561 -0.392141,0.078134 -0.0230679,0.00200996 -0.0704927,0.000169617 -0.0930518,-0.00460086 -0.160521,-0.033953 -0.216355,-0.206347 -0.241144,-0.520249 -0.00492313,-0.0623257 -0.00499097,-0.121891 -0.000661506,-0.177046 -0.0166903,0.0212318 -0.0442742,0.0341311 -0.0896722,0.0285507 -0.13948,-0.0076582 -0.179175,-0.258793 0.0180642,-0.2489 -0.0394147,-0.537308 -0.000381638,-0.899648 0.0464877,-1.38556l1.8832 0.125296c1.22687,0.0816281 3.25352,0.487899 3.86735,2.4315l0.0912326 -0.00625462c0.210906,-0.748023 0.618732,-1.60131 0.935123,-2.03576 0.0042489,0.59153 0.0129545,1.28423 0.0499861,1.77666 0.254993,0.100969 0.23204,0.432158 0.0690171,0.532436 -0.152799,0.0939847 -0.275649,0.0831631 -0.685464,0.205139 -0.926265,0.176817 -2.67795,0.0808139 -3.19835,-0.0583821 -0.0074801,0.0901598 -0.0199724,0.169083 -0.0394444,0.22425 -0.0559523,0.158498 -0.569497,0.128578 -0.664402,0.154326 -0.0310484,0.00841723 -0.10462,0.000296829 -0.137691,-0.00809072 -0.235301,-0.0597009 -0.303483,-0.362827 -0.313562,-0.914773 -0.000576697,-0.0315445 -0.000559735,-0.0626692 -4.24042e-006,-0.0933401 -0.35271,-0.133361 -0.69986,-0.265404 -1.049,-0.412016zm-0.758514 -0.460391c0.0296405,-0.10749 0.0821497,-0.180896 0.152011,-0.197922 -0.0299331,-0.0111438 -0.0588104,-0.0216728 -0.0833158,-0.0298653 -0.0423745,-0.014163 -0.0545657,-0.00382486 -0.0609815,0.0239117 -0.0111608,0.0482602 -0.00920171,0.137988 -0.00771332,0.203875zm2.13554 0.420891c0.0984159,0.0726299 0.135617,0.275462 0.130974,0.615132 -0.00464326,0.33967 -0.0708277,0.615132 -0.147796,0.615132 -0.0769679,0 -0.118931,-0.218967 -0.130974,-0.615132 -0.0120428,-0.396166 0.0493797,-0.687758 0.147796,-0.615132zm-1.95594 -0.45018c0.0686906,0.0433668 0.100375,0.164482 0.108322,0.367305 0.00794655,0.202824 -0.0276772,0.367305 -0.0795418,0.367305 -0.0518646,0 -0.128239,-0.116298 -0.137228,-0.367305 -0.00898969,-0.251007 0.0397539,-0.410672 0.108449,-0.367305zm5.13281 -2.55976l0.600668 0.0657562c0.0630084,0.00689492 0.0855081,0.0569361 0.115713,0.11193l0.430856 0.784546c0.0917203,0.167009 -0.0112583,0.170092 -0.0747671,0.168739l-0.744787 -0.0158846c-0.0635215,-0.00135269 -0.0938235,-0.0528823 -0.115713,-0.111926l-0.327683 -0.883665c-0.021889,-0.0590436 -0.034288,-0.13591 0.115713,-0.119495zm-1.67819 -0.0417893l1.38378 0.0318286c0.0635469,0.0014587 0.0940652,0.0527975 0.115713,0.111926l0.325274 0.888559c0.0216473,0.0591284 -0.052136,0.120042 -0.115713,0.119495l-1.57405 -0.0135609c-0.0635766,-0.000542774 -0.106388,-0.0492737 -0.115713,-0.111926l-0.134998 -0.906822c-0.00932468,-0.0626522 0.0521657,-0.120954 0.115713,-0.119499zm-1.3962 0.119296l1.06531 -0.0686439c0.0269818,-0.00173857 0.0454276,0.0224361 0.049155,0.049155l0.122836 0.880239c0.011305,0.0810047 -0.0679358,0.140659 -0.0949176,0.14068l-1.35916 0.00120428c-0.0269903,2.12021e-005 -0.0554562,-0.0228643 -0.049155,-0.049155l0.21677 -0.904325c0.00630126,-0.0262906 0.0221732,-0.0474164 0.049155,-0.049155zm-0.616646 0.0669266l0.376465 -0.0397412c0.0268885,-0.00283684 0.0552569,0.0228559 0.049155,0.049155l-0.19991 0.860971c-0.00610196,0.0262991 -0.0221604,0.0497656 -0.049155,0.049155l-0.371647 -0.00842996c-0.0269988,-0.000610621 -0.0554647,-0.0228643 -0.049155,-0.049155l0.195093 -0.8128c0.00630975,-0.0262906 0.0222664,-0.0463181 0.049155,-0.049155zm-0.512972 0.0661718l0.282531 -0.0373327c0.0268037,-0.00354075 0.0554053,0.0228813 0.049155,0.049155l-0.185459 0.77908c-0.00625038,0.0262736 -0.0221647,0.0502066 -0.049155,0.049155l-0.277714 -0.0108385c-0.0269945,-0.00105162 -0.0556428,-0.0229068 -0.049155,-0.049155l0.180642 -0.730909c0.00648784,-0.0262482 0.0223513,-0.0456142 0.049155,-0.049155zm-0.438014 0.0457626l0.231951 -0.0276984c0.0268461,-0.00320576 0.0555156,0.0228855 0.049155,0.049155l-0.168599 0.695984c-0.00636063,0.0262694 -0.0221265,0.049155 -0.049155,0.049155l-0.229542 0c-0.0270327,0 -0.055681,-0.0229152 -0.049155,-0.049155l0.166191 -0.668286c0.00652601,-0.0262397 0.0223089,-0.0459492 0.049155,-0.049155z"/>
 </g>
</svg>