<svg xmlns="http://www.w3.org/2000/svg" xmlns:xlink="http://www.w3.org/1999/xlink" xml:space="preserve" width="42px" height="100px" style="shape-rendering:geometricPrecision; text-rendering:geometricPrecision; image-rendering:optimizeQuality; fill-rule:evenodd; clip-rule:evenodd" viewBox="0 0 1.54599 3.64292">
 <defs>
  <style type="text/css">
   
    .fil0 {fill:#0A0B0C}
   
  </style>
 </defs>
 <g id="Layer_x0020_1">
  <metadata id="CorelCorpID_0Corel-Layer"/>
  <path class="fil0" d="M1.25403 2.725l-0.260496 0.000488092 -0.0527236 -0.543541 0.180802 -0.000289956 0.132418 0.543343zm-0.589857 -2.71344l-0.115209 -0.0115547 0.0518875 0.384641 -0.0990488 -0.00993098 0.00421885 0.0428119 -0.506026 -0.0458033 0.186818 1.76378 0.183692 -0.000753884 0.00371626 0.0481036 0.0769155 -0.000125647 -0.193743 1.27419 0.0952262 -1.44978e-005 0.16931 -1.0936 0.00692027 1.27962 0.0952262 -1.44978e-005 -0.00251778 -0.841862 0.650332 -0.00275458 0.178874 0.733955 0.0952214 -1.44978e-005 -0.325659 -1.35073 0.11084 -0.000178806 -0.00389024 -0.0505103 0.200229 -0.000826373 -0.252749 -1.64288 -0.457129 -0.0413767 -0.00331033 -0.0396901 -0.0982563 -0.00984882 -0.0518875 -0.384636zm-0.0428361 2.71462l-0.00162858 -0.543715 0.222439 -0.000357612 0.0561161 0.543555 -0.276927 0.000517087zm0.604929 -2.16633l-1.15379 -0.104437 0.169088 1.5964 1.21347 -0.00499207 -0.228765 -1.48697z"/>
 </g>
</svg>