<svg xmlns="http://www.w3.org/2000/svg" xmlns:xlink="http://www.w3.org/1999/xlink" xml:space="preserve" width="95px" height="100px" style="shape-rendering:geometricPrecision; text-rendering:geometricPrecision; image-rendering:optimizeQuality; fill-rule:evenodd; clip-rule:evenodd" viewBox="0 0 7.93102 8.3191">
 <defs>
  <style type="text/css">
   
    .fil0 {fill:#0A0B0C}
   
  </style>
 </defs>
 <g id="Layer_x0020_1">
  <metadata id="CorelCorpID_0Corel-Layer"/>
  <path class="fil0" d="M3.96551 2.8203l0 0c0.0864129,0 0.157113,0.0706997 0.157113,0.157113l0 4.4491 0 0.070142 0 0.0504955c0.013226,0.227171 0.136158,0.471876 0.36552,0.480211 0.327273,0.0118984 0.479081,-0.351036 0.481583,-0.584696 0.00143117,-0.133567 0.244577,-0.167871 0.244577,-0.00172234 0.0164831,0.503105 -0.292565,0.884042 -0.742988,0.878155 -0.27589,-0.00360259 -0.6714,-0.309863 -0.663928,-0.796573 0.000108571,-0.00725947 0.000458961,-0.0138478 0.00101169,-0.0198192l0 -4.52529c0,-0.0864129 0.0706997,-0.157113 0.157113,-0.157113zm0.0829139 -2.37631c2.14913,0.0285888 3.87805,1.13574 3.87805,2.49699 0.300229,-0.512215 -7.62134,-0.575043 -7.92648,0 0,-1.36124 1.72893,-2.4684 3.87805,-2.49699l0 -0.000676103 0 0c0,-0.243831 0.0383257,-0.443316 0.0851841,-0.443316l0 0c0.0468683,0 0.0851939,0.199485 0.0851939,0.443316l0 0 0 0.000676103z"/>
 </g>
</svg>