<svg xmlns="http://www.w3.org/2000/svg" xmlns:xlink="http://www.w3.org/1999/xlink" version="1.1" id="Layer_1" x="0px" y="0px" width="100px" height="100px" viewBox="0 0 100 100" enable-background="new 0 0 100 100" xml:space="preserve">
<g>
	<path d="M63.554,66.319c0.379,0.969,1.495,1.443,2.492,1.062l1.319-0.504c0.997-0.382,1.5-1.474,1.121-2.44   c-0.379-0.969-1.494-1.443-2.492-1.064l-1.318,0.505C63.676,64.26,63.175,65.354,63.554,66.319L63.554,66.319z M69.211,63.939   c0.279,0.891,1.232,1.39,2.129,1.118c0.896-0.274,1.398-1.216,1.12-2.104s-1.231-1.39-2.129-1.117   C69.434,62.109,68.934,63.051,69.211,63.939L69.211,63.939z M48.962,53.703h1.322c9.937,0,19.321-5.765,11.628-5.765h-12.29H37.335   C29.64,47.938,39.026,53.703,48.962,53.703L48.962,53.703z M50.108,38.272c3.054-4.95,12.455-9.169,33.044-2.829   c9.258,2.852,15.875-0.683,15.677-0.472C96.482,37,85.559,45.188,85.559,45.188l-0.072,2.789c0,13.431-15.703,24.33-35.38,24.405   c-19.676-0.075-35.592-10.974-35.592-24.405l-0.071-2.789c0,0-10.926-8.188-13.272-10.217c-0.197-0.211,6.419,3.323,15.677,0.472   C37.437,29.103,47.052,33.322,50.108,38.272L50.108,38.272z"/>
</g>
</svg>