<svg xmlns="http://www.w3.org/2000/svg" xmlns:xlink="http://www.w3.org/1999/xlink" version="1.1" id="Livello_1" x="0px" y="0px" width="48px" height="48px" viewBox="0 0 48 48" enable-background="new 0 0 48 48" xml:space="preserve">
<path d="M27.031,41.684h0.022c-1.809-0.924-2.211-7.16-2.211-7.16V22.903L37.507,2.419c-0.531-1.595-13.501-1.63-13.501-1.63h-0.009  c0,0-12.971,0.035-13.503,1.63l12.643,20.484v11.621c0,0-0.38,6.236-2.188,7.16h0.021c-4.02,0.363-6.932,1.434-6.932,2.697  c0,1.564,4.46,2.83,9.962,2.83s9.962-1.266,9.962-2.83C33.963,43.117,31.051,42.047,27.031,41.684z"/>
</svg>