<?xml version="1.0" encoding="utf-8"?>
<!-- Generator: Adobe Illustrator 14.0.0, SVG Export Plug-In . SVG Version: 6.00 Build 43363)  -->
<!DOCTYPE svg PUBLIC "-//W3C//DTD SVG 1.0//EN" "http://www.w3.org/TR/2001/REC-SVG-20010904/DTD/svg10.dtd">
<svg version="1.0" id="Layer_1" xmlns="http://www.w3.org/2000/svg" xmlns:xlink="http://www.w3.org/1999/xlink" x="0px" y="0px"
	 width="65.092px" height="100px" viewBox="0 0 65.092 100" enable-background="new 0 0 65.092 100" xml:space="preserve">
<path d="M36.391,64.856C52.53,62.947,65.092,49.19,65.092,32.546C65.092,14.6,50.492,0,32.546,0S0,14.6,0,32.546
	c0,16.644,12.562,30.401,28.7,32.311v11.92H6.93v7.692H28.7V100h7.691V84.469h21.771v-7.692H36.391V64.856z M7.692,32.546
	c0-13.705,11.149-24.854,24.854-24.854S57.4,18.841,57.4,32.546c0,13.704-11.149,24.854-24.854,24.854S7.692,46.25,7.692,32.546z"/>
</svg>
