<svg xmlns="http://www.w3.org/2000/svg" xmlns:xlink="http://www.w3.org/1999/xlink" version="1.1" id="Livello_1" x="0px" y="0px" width="48px" height="48px" viewBox="0 0 48 48" enable-background="new 0 0 48 48" xml:space="preserve">
<path d="M23.999,47.123c-7.92,0-7.601-2.709-7.601-2.709c-0.213-2.233,4.571-3.455,4.571-3.455c2.073-2.021,1.01-5.316,1.01-5.316  c-2.393-1.011-2.658-4.04-2.658-4.04L16.079,2.102c0.319-1.17,7.92-1.223,7.92-1.223H24c0,0,7.602,0.053,7.921,1.223l-3.243,29.501  c0,0-0.266,3.029-2.658,4.04c0,0-1.062,3.296,1.01,5.316c0,0,4.785,1.222,4.572,3.455C31.602,44.414,31.921,47.123,23.999,47.123  L23.999,47.123z"/>
</svg>