<svg xmlns:dc="http://purl.org/dc/elements/1.1/" xmlns:cc="http://creativecommons.org/ns#" xmlns:rdf="http://www.w3.org/1999/02/22-rdf-syntax-ns#" xmlns:svg="http://www.w3.org/2000/svg" xmlns="http://www.w3.org/2000/svg" xmlns:sodipodi="http://sodipodi.sourceforge.net/DTD/sodipodi-0.dtd" xmlns:inkscape="http://www.inkscape.org/namespaces/inkscape" width="99.999992" height="69.569054" id="svg2" version="1.1" inkscape:version="0.48.1 " sodipodi:docname="rotate.svg">
  <defs id="defs4">
    <marker inkscape:stockid="TriangleOutS" orient="auto" refY="0" refX="0" id="TriangleOutS" style="overflow:visible">
      <path id="path3801" d="m 5.77,0 -8.65,5 0,-10 8.65,5 z" style="fill-rule:evenodd;stroke:#000000;stroke-width:1pt;marker-start:none" transform="scale(0.2,0.2)" inkscape:connector-curvature="0"/>
    </marker>
    <marker inkscape:stockid="TriangleInS" orient="auto" refY="0" refX="0" id="TriangleInS" style="overflow:visible">
      <path id="path3792" d="m 5.77,0 -8.65,5 0,-10 8.65,5 z" style="fill-rule:evenodd;stroke:#000000;stroke-width:1pt;marker-start:none" transform="scale(-0.2,-0.2)" inkscape:connector-curvature="0"/>
    </marker>
    <marker inkscape:stockid="TriangleInL" orient="auto" refY="0" refX="0" id="TriangleInL" style="overflow:visible">
      <path id="path3786" d="m 5.77,0 -8.65,5 0,-10 8.65,5 z" style="fill-rule:evenodd;stroke:#000000;stroke-width:1pt;marker-start:none" transform="scale(-0.8,-0.8)" inkscape:connector-curvature="0"/>
    </marker>
    <marker inkscape:stockid="Arrow1Send" orient="auto" refY="0" refX="0" id="Arrow1Send" style="overflow:visible">
      <path id="path3667" d="M 0,0 5,-5 -12.5,0 5,5 0,0 z" style="fill-rule:evenodd;stroke:#000000;stroke-width:1pt;marker-start:none" transform="matrix(-0.2,0,0,-0.2,-1.2,0)" inkscape:connector-curvature="0"/>
    </marker>
    <marker inkscape:stockid="Arrow2Sstart" orient="auto" refY="0" refX="0" id="Arrow2Sstart" style="overflow:visible">
      <path id="path3682" style="font-size:12px;fill-rule:evenodd;stroke-width:0.625;stroke-linejoin:round" d="M 8.7185878,4.0337352 -2.2072895,0.01601326 8.7185884,-4.0017078 c -1.7454984,2.3720609 -1.7354408,5.6174519 -6e-7,8.035443 z" transform="matrix(0.3,0,0,0.3,-0.69,0)" inkscape:connector-curvature="0"/>
    </marker>
    <marker inkscape:stockid="Arrow2Lstart" orient="auto" refY="0" refX="0" id="Arrow2Lstart" style="overflow:visible">
      <path id="path3670" style="font-size:12px;fill-rule:evenodd;stroke-width:0.625;stroke-linejoin:round" d="M 8.7185878,4.0337352 -2.2072895,0.01601326 8.7185884,-4.0017078 c -1.7454984,2.3720609 -1.7354408,5.6174519 -6e-7,8.035443 z" transform="matrix(1.1,0,0,1.1,1.1,0)" inkscape:connector-curvature="0"/>
    </marker>
    <marker inkscape:stockid="Arrow1Sstart" orient="auto" refY="0" refX="0" id="Arrow1Sstart" style="overflow:visible">
      <path id="path3664" d="M 0,0 5,-5 -12.5,0 5,5 0,0 z" style="fill-rule:evenodd;stroke:#000000;stroke-width:1pt;marker-start:none" transform="matrix(0.2,0,0,0.2,1.2,0)" inkscape:connector-curvature="0"/>
    </marker>
    <marker inkscape:stockid="Arrow2Mstart" orient="auto" refY="0" refX="0" id="Arrow2Mstart" style="overflow:visible">
      <path id="path3676" style="font-size:12px;fill-rule:evenodd;stroke-width:0.625;stroke-linejoin:round" d="M 8.7185878,4.0337352 -2.2072895,0.01601326 8.7185884,-4.0017078 c -1.7454984,2.3720609 -1.7354408,5.6174519 -6e-7,8.035443 z" transform="scale(0.6,0.6)" inkscape:connector-curvature="0"/>
    </marker>
    <inkscape:perspective sodipodi:type="inkscape:persp3d" inkscape:vp_x="0 : 526.18109 : 1" inkscape:vp_y="0 : 1000 : 0" inkscape:vp_z="744.09448 : 526.18109 : 1" inkscape:persp3d-origin="372.04724 : 350.78739 : 1" id="perspective10"/>
    <inkscape:perspective id="perspective3635" inkscape:persp3d-origin="0.5 : 0.33333333 : 1" inkscape:vp_z="1 : 0.5 : 1" inkscape:vp_y="0 : 1000 : 0" inkscape:vp_x="0 : 0.5 : 1" sodipodi:type="inkscape:persp3d"/>
  </defs>
  <sodipodi:namedview id="base" pagecolor="#ffffff" bordercolor="#666666" borderopacity="1.0" inkscape:pageopacity="0.0" inkscape:pageshadow="2" inkscape:zoom="7.9949406" inkscape:cx="70.673203" inkscape:cy="41.807081" inkscape:document-units="px" inkscape:current-layer="layer1" showgrid="false" inkscape:window-width="1400" inkscape:window-height="1032" inkscape:window-x="4" inkscape:window-y="0" inkscape:window-maximized="0" fit-margin-top="0" fit-margin-left="0" fit-margin-right="0" fit-margin-bottom="0"/>
  <metadata id="metadata7">
    <rdf:RDF>
      <cc:Work rdf:about="">
        <dc:format>image/svg+xml</dc:format>
        <dc:type rdf:resource="http://purl.org/dc/dcmitype/StillImage"/>
        <dc:title/>
      </cc:Work>
    </rdf:RDF>
  </metadata>
  <g inkscape:label="Layer 1" inkscape:groupmode="layer" id="layer1" transform="translate(-91.232201,-525.08173)">
    <path id="path5880" style="fill:#000000;fill-opacity:1;stroke:none" d="m 116.36234,532.43947 c 1.66585,-2.66125 4.76148,-1.60453 4.55877,1.97593 l -0.55819,55.30914 c -0.0276,2.73857 -1.50856,4.92855 -3.32043,4.91027 l -23.36299,0.0159 c -2.55558,-0.70206 -3.079567,-2.77557 -1.712888,-5.84215 l 24.395728,-56.36914 z" sodipodi:nodetypes="ccccccc" inkscape:export-filename="/Users/tomkinsc/Dropbox/TakeItApart/icons/rotate.png" inkscape:export-xdpi="103.18156" inkscape:export-ydpi="103.18156" inkscape:connector-curvature="0"/>
    <path style="font-size:medium;font-style:normal;font-variant:normal;font-weight:normal;font-stretch:normal;text-indent:0;text-align:start;text-decoration:none;line-height:normal;letter-spacing:normal;word-spacing:normal;text-transform:none;direction:ltr;block-progression:tb;writing-mode:lr-tb;text-anchor:start;color:#000000;fill:#000000;fill-opacity:1;stroke:none;stroke-width:13.55317307;marker:none;visibility:visible;display:inline;overflow:visible;enable-background:accumulate;font-family:Bitstream Vera Sans;-inkscape-font-specification:Bitstream Vera Sans" d="m 130.85382,564.35569 c -0.34806,0.0168 -0.6898,0.0678 -1.01821,0.16466 -1.31359,0.38741 -2.26938,1.53737 -2.6574,3.01546 l -0.0334,0.13455 1.9e-4,0.14411 0.27441,22.63054 c 1e-5,0.003 0,0.006 2e-5,0.01 0.006,1.29637 0.79941,2.39591 1.86793,3.10086 1.0712,0.70673 2.45719,1.09687 3.96938,1.09491 l 53.61078,-0.0697 -1e-5,-0.005 c 2.01793,0.076 3.63301,-0.80324 4.18125,-2.23441 0.55269,-1.44279 -0.17373,-3.15778 -1.77319,-4.1338 l -0.0674,-0.0432 -0.0769,-0.0287 -54.88978,-23.0159 c -0.003,-0.002 -0.006,-0.003 -0.01,-0.005 -1.2105,-0.52193 -2.33685,-0.81002 -3.37809,-0.75941 z m 0.0988,2.08954 c 0.60423,-0.0197 1.43912,0.14435 2.46513,0.58767 l 0.005,-1e-5 0.005,0.005 54.79846,22.97759 c 0.9527,0.5983 1.03472,1.17073 0.87637,1.58412 -0.16098,0.4202 -0.75795,0.96105 -2.18939,0.89635 l -0.024,3e-5 -0.024,4e-5 -53.61078,0.0697 c -1.14228,10e-4 -2.15362,-0.31351 -2.81603,-0.75053 -0.66239,-0.43702 -0.93792,-0.91707 -0.93852,-1.37267 l -1e-5,-0.005 -1e-5,-0.01 -0.26942,-22.47682 c 0.26173,-0.90734 0.62765,-1.25976 1.19911,-1.42829 0.14954,-0.0441 0.3221,-0.071 0.52351,-0.0776 z" id="path3643" inkscape:export-filename="/Users/tomkinsc/Dropbox/TakeItApart/icons/rotate.png" inkscape:export-xdpi="103.18156" inkscape:export-ydpi="103.18156" inkscape:connector-curvature="0"/>
    <path style="font-size:medium;font-style:normal;font-variant:normal;font-weight:normal;font-stretch:normal;text-indent:0;text-align:start;text-decoration:none;line-height:normal;letter-spacing:normal;word-spacing:normal;text-transform:none;direction:ltr;block-progression:tb;writing-mode:lr-tb;text-anchor:start;color:#000000;fill:#000000;fill-opacity:1;stroke:none;stroke-width:11.16800022;marker:none;visibility:visible;display:inline;overflow:visible;enable-background:accumulate;font-family:Bitstream Vera Sans;-inkscape-font-specification:Bitstream Vera Sans" d="m 141.25746,525.08184 -13.33385,7.81962 13.42731,7.63269 -0.0311,-4.26807 c 13.63462,-0.57786 25.32186,9.66946 26.44962,23.39654 0.0185,0.22422 0.017,0.46036 0.0311,0.68538 l -4.64193,0.0311 8.00654,13.73885 7.91308,-13.80116 -4.33038,0.0311 c -0.0145,-0.41579 -0.0282,-0.83125 -0.0623,-1.24615 -1.41866,-17.26804 -16.2589,-30.30333 -33.39693,-29.72078 l -0.0311,-4.29923 z" id="path3647" inkscape:export-filename="/Users/tomkinsc/Dropbox/TakeItApart/icons/rotate.png" inkscape:export-xdpi="103.18156" inkscape:export-ydpi="103.18156" inkscape:connector-curvature="0"/>
  </g>
</svg>