<svg xmlns="http://www.w3.org/2000/svg" xmlns:xlink="http://www.w3.org/1999/xlink" version="1.1" id="Layer_1" x="0px" y="0px" width="100px" height="96.8px" viewBox="0 0 375.525 363.704" enable-background="new 0 0 375.525 363.704" xml:space="preserve">
<path fill="#000000" d="M215.117,93.594c4.44-6.692,9.015-12.778,13.969-18.601c2.692-3.14,5.211-5.898,7.703-8.427  c3.043-3.089,5.796-5.623,7.75-7.142c0.552-0.435,1.136-0.96,1.622-1.486c2.462-2.653,3.741-6.105,3.607-9.721  c-0.132-3.618-1.673-6.963-4.325-9.424c-5.273-4.886-14.241-4.574-19.167,0.749c-3.509,3.782-5.844,6.882-8.764,10.86  c-2.438,3.374-4.825,6.939-7.289,10.902c-4.46,7.208-8.562,14.84-12.19,22.673c-3.8,8.152-6.804,16.055-9.201,24.173  c-1.93,6.664-4.231,15.603-4.911,25.638c-0.205,2.993,1.84,5.737,4.759,6.381c0.443,0.1,0.889,0.15,1.342,0.15  c2.838,0,5.344-2.014,6.019-5.062c1.427-6.402,4.009-13.639,7.684-21.506C206.896,106.979,210.728,100.197,215.117,93.594z"/>
<path fill="#000000" d="M256.873,118.538l-2.363,0.735c-8.578,2.636-16.456,5.691-24.107,9.35  c-6.242,3.031-14.42,7.308-22.317,13.506c-2.312,1.814-2.963,5.111-1.522,7.66c1.062,1.893,3.066,3.07,5.236,3.07  c1.021,0,2.039-0.267,3.18-0.896c5.673-3.193,12.795-6.101,21.154-8.642c7.042-2.125,14.659-3.794,22.633-4.959  c7.589-1.112,15.173-1.754,23.185-1.961c3.832-0.097,7.654,0.052,11.415,0.226c2.393,0.112,7.109,0.984,9.924,1.505  c1.498,0.278,2.567,0.447,3.076,0.454c8.106,0,13.618-4.635,13.713-11.532c0.109-7.776-7.085-11.64-13.28-12.584  c-4.636-0.708-14.393-2.203-25.671-1.236C271.213,114.066,263.924,116.339,256.873,118.538z"/>
<path fill="#000000" d="M307.588,196.213c-3.428-2.369-7.047-4.67-11.06-7.048c-7.266-4.27-14.987-8.206-22.947-11.687  c-8.234-3.609-16.199-6.445-24.377-8.67c-10.133-2.687-17.85-3.987-26.085-4.355c-3.01,0-5.611,2.146-6.187,5.099  c-0.66,3.41,1.569,6.729,5.278,7.456c6.438,1.26,13.727,3.656,21.652,7.103c6.824,2.981,13.694,6.638,20.428,10.86  c6.775,4.246,12.976,8.649,18.957,13.471c3.214,2.605,6.028,5.049,8.62,7.475c3.105,2.896,5.776,5.648,7.347,7.56  c0.432,0.519,0.983,1.094,1.507,1.56c2.477,2.188,5.658,3.386,8.953,3.386c3.895,0,7.598-1.674,10.166-4.584  c2.396-2.715,3.589-6.2,3.361-9.813c-0.229-3.608-1.849-6.913-4.561-9.301C314.777,201.3,311.629,199.041,307.588,196.213z"/>
<path fill="#000000" d="M245.728,302.538c6.818-0.865,11.45-7.284,10.809-14.949c-0.006-5.857-0.856-10.146-1.783-13.931  c-0.438-1.712-0.732-3.409-1.032-5.093c-0.433-2.439-0.88-4.959-1.717-7.489c-2.639-7.983-5.853-16.022-9.553-23.897  c-3.799-8.11-7.921-15.49-12.618-22.565c-3.881-5.763-9.258-13.266-16.49-20.198c-2.067-1.997-5.506-2.183-7.773-0.447  c-1.279,0.971-2.098,2.382-2.312,3.97c-0.213,1.584,0.204,3.158,1.341,4.637c3.971,5.207,7.851,11.854,11.521,19.751  c3.119,6.757,5.834,14.064,8.063,21.715c2.201,7.479,3.909,14.901,5.217,22.676c0.575,3.48,1.046,7.18,1.432,11.325  c0.336,3.586,0.208,12.059,0.204,12.425c-0.049,3.343,1.078,6.276,3.256,8.487c2.33,2.358,5.778,3.709,9.463,3.709  C244.406,302.662,245.067,302.624,245.728,302.538z"/>
<path fill="#000000" d="M77.57,111.812c1.018,0,1.931-0.09,2.721-0.271c3.476-0.799,8.411-1.486,10.146-1.588  c3.719-0.221,7.532-0.126,11.359,0.281c7.484,0.766,15.235,2.841,22.391,5.996c7.522,3.406,14.706,7.631,21.354,12.552  c7.403,5.525,13.295,11.404,17.256,17.346c1.088,1.626,2.904,2.596,4.863,2.596c0.875,0,1.721-0.188,2.511-0.563  c1.408-0.673,2.473-1.845,2.991-3.314c0.522-1.474,0.438-3.05-0.238-4.455c-4.726-9.917-11.354-17.312-17.24-23.282  c-6.667-6.595-14.132-12.524-22.215-17.719c-8.559-5.378-17.788-9.274-27.439-11.751c-4.945-1.27-10.004-1.578-15.044-2.027  c-2.469-0.214-4.95,0.395-7.799,0.395c-0.014,0-0.023,0-0.032,0c-2.782,0-9.001-0.728-12.435,0.457  c-3.433,1.184-6.058,3.694-7.517,7.025c-1.46,3.333-1.531,6.934-0.209,10.319C65.166,109.376,72.069,111.815,77.57,111.812z"/>
<path fill="#000000" d="M164.754,188.598c-0.176-3.377-2.957-5.591-6.681-5.591c-0.009,0-0.014,0-0.023,0  c-9.318,0-18.505,2.229-28.081,6.174c-8.982,3.732-17.493,8.883-24.606,15.511c-7.061,6.514-13.166,13.794-18.668,22.344  c-2.59,4.032-4.996,8.277-7.169,12.685c-2.012,4.193-3.971,8.417-5.772,14.128c-0.187,0.595-0.362,1.312-0.462,1.934  c-0.565,3.571,0.291,7.143,2.411,10.072c2.126,2.929,5.258,4.854,8.835,5.418c0.718,0.114,1.431,0.171,2.139,0.171  c6.686,0,12.306-4.793,13.356-11.402c0.442-2.725,1.493-6.714,2.805-10.665c1.303-3.865,2.772-7.545,4.38-10.969  c3.323-7.186,7.616-14.046,12.434-19.876c5.021-6.118,10.784-11.04,17.616-15.101c6.951-4.117,14.773-6.997,22.333-8.457  C162.719,194.373,164.935,191.755,164.754,188.598z"/>
<path fill="#000000" d="M183.787,197.771c-3.071-1.85-7.427-0.746-9.267,2.32c-5.168,8.625-8.297,16.965-10.679,23.997  c-2.668,8.036-4.718,16.257-6.263,25.13c-1.493,8.549-2.481,17.159-2.942,25.599c-0.248,4.675-0.328,8.958-0.258,13.123  c0.105,4.156,0.219,8.455,0.971,13.913c0.095,0.633,0.242,1.346,0.427,1.959c1.688,5.716,7.023,9.71,12.981,9.71  c1.293,0,2.587-0.19,3.837-0.562c7.155-2.111,11.26-9.662,9.153-16.827c-0.952-3.2-1.746-7.832-2.131-10.304  c-0.556-3.533-1.013-7.342-1.355-11.316c-0.637-7.684-0.812-15.286-0.532-23.232c0.276-7.926,1.104-15.652,2.449-22.955  c1.569-8.436,3.661-15.776,6.352-22.109C187.849,203.135,186.674,199.502,183.787,197.771z"/>
<path fill="#000000" d="M251.167,318.144c-1.383,0-2.767,0.181-4.117,0.547c-4.062,1.099-7.445,3.713-9.537,7.355  c-2.094,3.647-2.64,7.889-1.536,11.938c1.844,6.848,8.087,11.631,15.177,11.631c1.383,0,2.767-0.186,4.117-0.547  c8.368-2.263,13.337-10.922,11.074-19.295C264.495,322.927,258.252,318.144,251.167,318.144z"/>
<path fill="#000000" d="M339.169,221.061c-8.511,1.674-14.08,9.956-12.41,18.468c1.44,7.365,7.926,12.714,15.424,12.714  c1.004,0,2.021-0.1,3.043-0.3c4.123-0.812,7.685-3.176,10.029-6.666c2.338-3.485,3.185-7.679,2.372-11.802  C355.995,225.13,347.875,219.358,339.169,221.061z"/>
<path fill="#000000" d="M364.772,111.967c-2.753-3.174-6.579-5.085-10.773-5.382c-8.739-0.678-16.199,6.019-16.804,14.589  c-0.295,4.189,1.061,8.245,3.818,11.419c2.753,3.173,6.58,5.083,10.77,5.377c0.376,0.029,0.751,0.041,1.122,0.041  c8.216,0,15.101-6.426,15.677-14.624C368.881,119.197,367.526,115.141,364.772,111.967z"/>
<path fill="#000000" d="M269.007,38.156c0.994,0,2.002-0.093,3.016-0.29c8.506-1.657,14.083-9.931,12.434-18.442  c-1.617-8.361-9.848-14.124-18.435-12.448c-4.127,0.797-7.693,3.157-10.047,6.643c-2.349,3.483-3.205,7.674-2.406,11.801  C255.005,32.8,261.499,38.156,269.007,38.156z"/>
<path fill="#000000" d="M34.459,117.742c1.241,0,2.482-0.148,3.699-0.44c8.431-2.03,13.637-10.546,11.612-18.98  c-1.713-7.095-7.998-12.051-15.288-12.051c-1.24,0-2.481,0.15-3.694,0.439c-4.089,0.984-7.546,3.5-9.737,7.085  s-2.857,7.807-1.874,11.892C20.885,112.785,27.17,117.742,34.459,117.742z"/>
<path fill="#000000" d="M71.59,276.254c-2.431,0-4.77,0.552-6.961,1.636c-3.767,1.859-6.586,5.078-7.932,9.058  c-1.346,3.98-1.061,8.25,0.803,12.006c2.663,5.411,8.069,8.777,14.108,8.777c2.43,0,4.77-0.552,6.956-1.636  c3.771-1.854,6.591-5.073,7.936-9.053c1.351-3.98,1.065-8.245-0.794-12.016C83.039,279.621,77.628,276.254,71.59,276.254z"/>
<path fill="#000000" d="M164.203,325.542c-1.384,0-2.768,0.189-4.113,0.551c-8.373,2.264-13.342,10.918-11.078,19.285  c1.845,6.857,8.083,11.641,15.176,11.641c1.384,0,2.768-0.186,4.114-0.552c4.055-1.094,7.445-3.709,9.537-7.352  c2.093-3.641,2.64-7.882,1.541-11.943C177.525,330.325,171.282,325.542,164.203,325.542z"/>
<path fill="#000000" d="M65.303,186.855c0.301-0.467,1.589-1.912,2.968-3.267c1.278-1.269,2.662-2.477,4.085-3.651  c2.899-2.377,6.047-4.493,9.352-6.405c6.5-3.775,13.979-6.606,21.606-8.258c7.735-1.6,15.686-2.267,23.626-2.267h0.993  c9.215,0,17.408,1.25,24.112,3.72c2.748,1.02,6.024-0.383,7.422-2.981c1.578-2.939,0.475-6.599-2.468-8.18  c-9.709-5.211-19.466-7.27-27.759-8.608c-9.314-1.386-18.795-1.777-28.433-1.188c-10.08,0.718-19.89,2.969-29.157,6.688  c-4.749,1.904-9.343,4.196-13.66,6.81c-2.339,1.415-4.464,2.837-6.875,4.629c-2.039,1.547-3.804,2.886-6.271,5.349l-0.661,0.658  c-0.67,0.678-1.27,1.427-1.764,2.209c-4.065,6.307-2.24,14.743,4.064,18.813c2.202,1.417,4.75,2.168,7.36,2.168  C58.499,193.094,62.783,190.773,65.303,186.855z"/>
<path fill="#000000" d="M10.638,196.222c-5.615,6.609-4.807,16.556,1.807,22.186c2.849,2.406,6.462,3.732,10.18,3.732  c4.631,0,9.006-2.021,11.997-5.554c5.61-6.613,4.797-16.561-1.812-22.181C26.429,189.003,16.039,189.859,10.638,196.222z"/>
</svg>