<svg xmlns="http://www.w3.org/2000/svg" xmlns:xlink="http://www.w3.org/1999/xlink" version="1.1" id="Layer_1" x="0px" y="0px" width="100px" height="100px" viewBox="0 0 100 100" enable-background="new 0 0 100 100" xml:space="preserve">
<g>
	<path d="M70.795,74.785c0.414,0.865,0.805,1.637,1.131,2.251c2.014,3.782,3.219,5.698,10.387,5.698   c7.162,0,13.934-0.385,7.088-9.083c-0.098-0.123-0.197-0.246-0.301-0.369c-3.014,0.4-7.459,0.859-13.795,1.242   C73.76,74.618,72.254,74.706,70.795,74.785L70.795,74.785z M24.657,74.45c1.648,4.309,5.023,8.284,11.96,8.284h24.332   c0,0,5.414,0.177,4.691-5.459c-0.092-0.726-0.4-1.688-0.842-2.462c-7.377,0.133-13.336-0.299-17.634-3.19   c-7.73-5.196-15.331-4.896-15.331-4.896l-0.1,7.723H24.657L24.657,74.45z M92.633,72.739c2.168,2.971,3.975,6.131,5.365,9.43   c-1.941,1.668-4.236,3.215-6.824,4.609c-13.855,1.141-29.885,1.798-48.25,1.798c-14.458,0-28.166-0.634-41.024-1.397   c-0.267-0.248-0.359-0.953-0.204-1.525c0.918-3.389,4.026-3.304,4.026-3.304l9.678-0.564c2.76-0.1,5.427-1.79,4.254-4.99   c-0.184-0.503-1.074-2.345-1.074-2.345h-5.092c0,0-0.556-9.229-1.358-13.551c-1.997-10.748,2.049-16.843,3.969-25.013   c0.179-0.761,0.302-1.683,0.386-2.735c0.08-4.564-0.036-9.504-0.036-16.553l25.114-8.493c0,0,6.273-1.498,7.258,2.979l-7.267,2.489   c-0.95,0.327-0.93,1.293,0.033,1.579l6.591,1.948l-6.696,3.021c-0.893,0.402-0.812,1.316,0.137,1.556l7.021,1.778l-6.32,3.065   c-0.909,0.44-0.764,1.406,0.232,1.562l6.264,0.982l-5.312,3.013c-0.874,0.496-0.674,1.442,0.325,1.543l6.137,0.621l-4.661,3.021   c-0.847,0.548-0.584,1.489,0.424,1.521l6.017,0.189l-3.762,3.945c-0.691,0.725-0.233,1.569,0.751,1.385l5.55-1.034l-2.498,4.622   c-0.459,0.851,0.139,1.521,1.035,1.161l4.684-1.873c-1.719,7.602-2.203,7.219,4.547,3.281c-0.967,7.615-1.582,7.418,4.631,3.129   c0.545,6.732-0.117,6.847,4.748,2.42c1.311,6.129,0.949,5.579,5.188,1.092c2.424,0.709,4.938,1.273,7.5,1.704   c14.656,2.454,10.551,13.494,10.551,13.494S94.086,72.476,92.633,72.739L92.633,72.739z M73.123,55.962   c0.564,0.205,1.137,0.402,1.715,0.594l-1.311,1.35C73.369,57.155,73.236,56.51,73.123,55.962L73.123,55.962z M68.393,53.944   c0.613,0.303,1.238,0.592,1.871,0.871c-0.463,0.424-1.02,0.947-1.695,1.564C68.49,55.427,68.439,54.618,68.393,53.944   L68.393,53.944z M63.645,51.218c0.6,0.399,1.213,0.786,1.838,1.158c-0.592,0.416-1.314,0.943-2.203,1.554   C63.416,52.869,63.543,51.972,63.645,51.218L63.645,51.218z M59.133,47.638c0.57,0.537,1.162,1.057,1.773,1.555   c-0.682,0.402-1.504,0.901-2.494,1.478C58.693,49.438,58.943,48.435,59.133,47.638L59.133,47.638z M55.799,43.983   c0.42,0.536,0.852,1.058,1.301,1.564c-0.719,0.284-1.631,0.667-2.768,1.123C54.92,45.582,55.416,44.696,55.799,43.983   L55.799,43.983z M53.139,39.923c0.314,0.572,0.641,1.131,0.986,1.675c-0.83,0.155-1.883,0.372-3.176,0.613   C51.834,41.281,52.57,40.53,53.139,39.923L53.139,39.923z M51.137,35.458c0.227,0.627,0.469,1.241,0.725,1.841   c-0.903-0.025-2.044-0.039-3.438-0.082L51.137,35.458L51.137,35.458z M49.821,30.399c0.129,0.814,0.276,1.561,0.44,2.212   l-3.682-0.372L49.821,30.399L49.821,30.399z M49.253,24.998c0.06,0.845,0.126,1.685,0.206,2.496l-4.042-0.635L49.253,24.998   L49.253,24.998z M48.97,18.559c0.026,1.033,0.06,2.152,0.11,3.303l-4.758-1.206L48.97,18.559L48.97,18.559z M48.937,12.792   l-0.01,0.137c0,0-0.011,1.038,0,2.667L44.542,14.3L48.937,12.792L48.937,12.792z"/>
</g>
</svg>