<svg xmlns="http://www.w3.org/2000/svg" xmlns:xlink="http://www.w3.org/1999/xlink" version="1.1" id="Layer_1" x="0px" y="0px" width="100px" height="100px" viewBox="0 0 100 100" enable-background="new 0 0 100 100" xml:space="preserve">
<path d="M79.5,91.484c0,6.359-0.443,6.716-6.932,6.716H27.625c-6.485,0-6.852-0.278-6.852-6.638l0.001-82.688  c0-6.36,0.365-6.638,6.851-6.638h45.27c6.485,0,6.605,0.357,6.605,6.718V91.484z"/>
<line fill="#000000" stroke="#FFFFFF" stroke-width="1.5" stroke-linecap="round" stroke-miterlimit="10" x1="41.707" y1="1.605" x2="48.627" y2="8.526"/>
<line fill="#000000" stroke="#FFFFFF" stroke-width="1.5" stroke-linecap="round" stroke-miterlimit="10" x1="48.627" y1="8.526" x2="41.707" y2="15.447"/>
<line fill="#000000" stroke="#FFFFFF" stroke-width="1.5" stroke-linecap="round" stroke-miterlimit="10" x1="41.707" y1="15.447" x2="48.627" y2="22.368"/>
<line fill="#000000" stroke="#FFFFFF" stroke-width="1.5" stroke-linecap="round" stroke-miterlimit="10" x1="48.627" y1="22.368" x2="41.707" y2="29.29"/>
<line fill="#000000" stroke="#FFFFFF" stroke-width="1.5" stroke-linecap="round" stroke-miterlimit="10" x1="41.707" y1="29.29" x2="48.627" y2="36.21"/>
<line fill="#000000" stroke="#FFFFFF" stroke-width="1.5" stroke-linecap="round" stroke-miterlimit="10" x1="48.627" y1="36.21" x2="41.707" y2="43.133"/>
<line fill="#000000" stroke="#FFFFFF" stroke-width="1.5" stroke-linecap="round" stroke-miterlimit="10" x1="41.707" y1="43.133" x2="48.627" y2="50.053"/>
<line fill="#000000" stroke="#FFFFFF" stroke-width="1.5" stroke-linecap="round" stroke-miterlimit="10" x1="48.627" y1="50.053" x2="41.707" y2="56.977"/>
<line fill="#000000" stroke="#FFFFFF" stroke-width="1.5" stroke-linecap="round" stroke-miterlimit="10" x1="41.707" y1="56.977" x2="48.627" y2="63.895"/>
<line fill="#000000" stroke="#FFFFFF" stroke-width="1.5" stroke-linecap="round" stroke-miterlimit="10" x1="48.627" y1="63.895" x2="41.707" y2="70.816"/>
<line fill="#000000" stroke="#FFFFFF" stroke-width="1.5" stroke-linecap="round" stroke-miterlimit="10" x1="41.707" y1="70.816" x2="48.627" y2="77.738"/>
<line fill="#000000" stroke="#FFFFFF" stroke-width="1.5" stroke-linecap="round" stroke-miterlimit="10" x1="48.627" y1="77.738" x2="41.707" y2="84.658"/>
<line fill="#000000" stroke="#FFFFFF" stroke-width="1.5" stroke-linecap="round" stroke-miterlimit="10" x1="41.707" y1="84.658" x2="48.627" y2="91.58"/>
<line fill="#000000" stroke="#FFFFFF" stroke-width="1.5" stroke-linecap="round" stroke-miterlimit="10" x1="48.627" y1="91.58" x2="41.707" y2="98.5"/>
<line fill="#000000" stroke="#FFFFFF" stroke-width="1.5" stroke-linecap="round" stroke-miterlimit="10" x1="51.494" y1="1.604" x2="58.416" y2="8.526"/>
<line fill="#000000" stroke="#FFFFFF" stroke-width="1.5" stroke-linecap="round" stroke-miterlimit="10" x1="58.416" y1="8.526" x2="51.494" y2="15.447"/>
<line fill="#000000" stroke="#FFFFFF" stroke-width="1.5" stroke-linecap="round" stroke-miterlimit="10" x1="51.494" y1="15.447" x2="58.416" y2="22.367"/>
<line fill="#000000" stroke="#FFFFFF" stroke-width="1.5" stroke-linecap="round" stroke-miterlimit="10" x1="58.416" y1="22.367" x2="51.494" y2="29.289"/>
<line fill="#000000" stroke="#FFFFFF" stroke-width="1.5" stroke-linecap="round" stroke-miterlimit="10" x1="51.494" y1="29.289" x2="58.416" y2="36.21"/>
<line fill="#000000" stroke="#FFFFFF" stroke-width="1.5" stroke-linecap="round" stroke-miterlimit="10" x1="58.416" y1="36.21" x2="51.494" y2="43.131"/>
<line fill="#000000" stroke="#FFFFFF" stroke-width="1.5" stroke-linecap="round" stroke-miterlimit="10" x1="51.494" y1="43.131" x2="58.416" y2="50.052"/>
<line fill="#000000" stroke="#FFFFFF" stroke-width="1.5" stroke-linecap="round" stroke-miterlimit="10" x1="58.416" y1="50.052" x2="51.494" y2="56.977"/>
<line fill="#000000" stroke="#FFFFFF" stroke-width="1.5" stroke-linecap="round" stroke-miterlimit="10" x1="51.494" y1="56.977" x2="58.416" y2="63.895"/>
<line fill="#000000" stroke="#FFFFFF" stroke-width="1.5" stroke-linecap="round" stroke-miterlimit="10" x1="58.416" y1="63.895" x2="51.494" y2="70.816"/>
<line fill="#000000" stroke="#FFFFFF" stroke-width="1.5" stroke-linecap="round" stroke-miterlimit="10" x1="51.494" y1="70.816" x2="58.416" y2="77.738"/>
<line fill="#000000" stroke="#FFFFFF" stroke-width="1.5" stroke-linecap="round" stroke-miterlimit="10" x1="58.416" y1="77.738" x2="51.494" y2="84.658"/>
<line fill="#000000" stroke="#FFFFFF" stroke-width="1.5" stroke-linecap="round" stroke-miterlimit="10" x1="51.494" y1="84.658" x2="58.416" y2="91.577"/>
<line fill="#000000" stroke="#FFFFFF" stroke-width="1.5" stroke-linecap="round" stroke-miterlimit="10" x1="58.416" y1="91.577" x2="51.494" y2="98.5"/>
<line fill="#000000" stroke="#FFFFFF" stroke-width="1.5" stroke-linecap="round" stroke-miterlimit="10" x1="61.282" y1="1.605" x2="68.205" y2="8.526"/>
<line fill="#000000" stroke="#FFFFFF" stroke-width="1.5" stroke-linecap="round" stroke-miterlimit="10" x1="68.205" y1="8.526" x2="61.282" y2="15.447"/>
<line fill="#000000" stroke="#FFFFFF" stroke-width="1.5" stroke-linecap="round" stroke-miterlimit="10" x1="61.282" y1="15.447" x2="68.205" y2="22.368"/>
<line fill="#000000" stroke="#FFFFFF" stroke-width="1.5" stroke-linecap="round" stroke-miterlimit="10" x1="68.205" y1="22.368" x2="61.282" y2="29.29"/>
<line fill="#000000" stroke="#FFFFFF" stroke-width="1.5" stroke-linecap="round" stroke-miterlimit="10" x1="61.282" y1="29.29" x2="68.205" y2="36.21"/>
<line fill="#000000" stroke="#FFFFFF" stroke-width="1.5" stroke-linecap="round" stroke-miterlimit="10" x1="68.205" y1="36.21" x2="61.282" y2="43.133"/>
<line fill="#000000" stroke="#FFFFFF" stroke-width="1.5" stroke-linecap="round" stroke-miterlimit="10" x1="61.282" y1="43.133" x2="68.205" y2="50.053"/>
<line fill="#000000" stroke="#FFFFFF" stroke-width="1.5" stroke-linecap="round" stroke-miterlimit="10" x1="68.205" y1="50.053" x2="61.282" y2="56.977"/>
<line fill="#000000" stroke="#FFFFFF" stroke-width="1.5" stroke-linecap="round" stroke-miterlimit="10" x1="61.282" y1="56.977" x2="68.205" y2="63.895"/>
<line fill="#000000" stroke="#FFFFFF" stroke-width="1.5" stroke-linecap="round" stroke-miterlimit="10" x1="68.205" y1="63.895" x2="61.282" y2="70.816"/>
<line fill="#000000" stroke="#FFFFFF" stroke-width="1.5" stroke-linecap="round" stroke-miterlimit="10" x1="61.282" y1="70.816" x2="68.205" y2="77.738"/>
<line fill="#000000" stroke="#FFFFFF" stroke-width="1.5" stroke-linecap="round" stroke-miterlimit="10" x1="68.205" y1="77.738" x2="61.282" y2="84.658"/>
<line fill="#000000" stroke="#FFFFFF" stroke-width="1.5" stroke-linecap="round" stroke-miterlimit="10" x1="61.282" y1="84.658" x2="68.205" y2="91.58"/>
<line fill="#000000" stroke="#FFFFFF" stroke-width="1.5" stroke-linecap="round" stroke-miterlimit="10" x1="68.205" y1="91.58" x2="61.282" y2="98.5"/>
<line fill="#000000" stroke="#FFFFFF" stroke-width="1.5" stroke-linecap="round" stroke-miterlimit="10" x1="31.919" y1="1.605" x2="38.841" y2="8.526"/>
<line fill="#000000" stroke="#FFFFFF" stroke-width="1.5" stroke-linecap="round" stroke-miterlimit="10" x1="38.841" y1="8.526" x2="31.919" y2="15.447"/>
<line fill="#000000" stroke="#FFFFFF" stroke-width="1.5" stroke-linecap="round" stroke-miterlimit="10" x1="31.919" y1="15.447" x2="38.841" y2="22.368"/>
<line fill="#000000" stroke="#FFFFFF" stroke-width="1.5" stroke-linecap="round" stroke-miterlimit="10" x1="38.841" y1="22.368" x2="31.919" y2="29.29"/>
<line fill="#000000" stroke="#FFFFFF" stroke-width="1.5" stroke-linecap="round" stroke-miterlimit="10" x1="31.919" y1="29.29" x2="38.841" y2="36.21"/>
<line fill="#000000" stroke="#FFFFFF" stroke-width="1.5" stroke-linecap="round" stroke-miterlimit="10" x1="38.841" y1="36.21" x2="31.919" y2="43.133"/>
<line fill="#000000" stroke="#FFFFFF" stroke-width="1.5" stroke-linecap="round" stroke-miterlimit="10" x1="31.919" y1="43.133" x2="38.841" y2="50.053"/>
<line fill="#000000" stroke="#FFFFFF" stroke-width="1.5" stroke-linecap="round" stroke-miterlimit="10" x1="38.841" y1="50.053" x2="31.919" y2="56.977"/>
<line fill="#000000" stroke="#FFFFFF" stroke-width="1.5" stroke-linecap="round" stroke-miterlimit="10" x1="31.919" y1="56.977" x2="38.841" y2="63.895"/>
<line fill="#000000" stroke="#FFFFFF" stroke-width="1.5" stroke-linecap="round" stroke-miterlimit="10" x1="38.841" y1="63.895" x2="31.919" y2="70.816"/>
<line fill="#000000" stroke="#FFFFFF" stroke-width="1.5" stroke-linecap="round" stroke-miterlimit="10" x1="31.919" y1="70.816" x2="38.841" y2="77.738"/>
<line fill="#000000" stroke="#FFFFFF" stroke-width="1.5" stroke-linecap="round" stroke-miterlimit="10" x1="38.841" y1="77.738" x2="31.919" y2="84.658"/>
<line fill="#000000" stroke="#FFFFFF" stroke-width="1.5" stroke-linecap="round" stroke-miterlimit="10" x1="31.919" y1="84.658" x2="38.841" y2="91.58"/>
<line fill="#000000" stroke="#FFFFFF" stroke-width="1.5" stroke-linecap="round" stroke-miterlimit="10" x1="38.841" y1="91.58" x2="31.919" y2="98.5"/>
<rect x="20.773" y="2.236" fill="none" width="58.727" height="95.964"/>
</svg>