<svg xmlns="http://www.w3.org/2000/svg" xmlns:xlink="http://www.w3.org/1999/xlink" version="1.1" id="Layer_1" x="0px" y="0px" width="100px" height="100px" viewBox="0 0 100 100" enable-background="new 0 0 100 100" xml:space="preserve">
<path d="M9.058,28.689c12.345,12.345,69.954,12.345,82.298,0c0,0,2.059-2.057,2.059-6.172c0-4.115-2.059-6.172-2.059-6.172  c-12.344,12.345-69.953,12.345-82.298,0c0,0-2.058,2.058-2.058,6.172C7,26.632,9.058,28.689,9.058,28.689z"/>
<path d="M9.058,47.207c12.345,12.345,69.954,12.345,82.298,0c0,0,2.059-2.058,2.059-6.172c0-4.115-2.059-6.172-2.059-6.172  c-12.344,12.345-69.953,12.345-82.298,0c0,0-2.058,2.057-2.058,6.172C7,45.149,9.058,47.207,9.058,47.207z"/>
<path d="M9.058,65.725c12.345,12.345,69.954,12.345,82.298,0c0,0,2.059-2.058,2.059-6.173s-2.059-6.173-2.059-6.173  c-12.344,12.346-69.953,12.346-82.298,0c0,0-2.058,2.058-2.058,6.173S9.058,65.725,9.058,65.725z"/>
<path d="M9.058,84.241c12.345,12.345,69.954,12.345,82.298,0c0,0,2.059-2.058,2.059-6.172c0-4.115-2.059-6.173-2.059-6.173  c-12.344,12.345-69.953,12.345-82.298,0c0,0-2.058,2.058-2.058,6.173C7,82.184,9.058,84.241,9.058,84.241z"/>
<ellipse cx="50.207" cy="13.259" rx="39.092" ry="9.258"/>
</svg>