<svg xmlns="http://www.w3.org/2000/svg" xmlns:xlink="http://www.w3.org/1999/xlink" version="1.1" id="Layer_1" x="0px" y="0px" width="50.0px" height="100px" viewBox="0 0 100 200" enable-background="new 0 0 100 200" xml:space="preserve">
<path d="M70.727,86.845c0.173,0.06,0.338,0.133,0.509,0.2c0.275,0.111,0.552,0.229,0.818,0.361c0.143,0.07,0.288,0.141,0.427,0.217  c0.39,0.213,0.776,0.439,1.141,0.697c0.008,0.005,0.017,0.009,0.022,0.014v-2.318l0,0V69.826c0-5.673-4.644-10.315-10.318-10.315  c-5.673,0-10.316,4.643-10.316,10.315v15.121l14.812,1.284C68.824,86.309,69.797,86.522,70.727,86.845z"/>
<path d="M34.528,83.435l0.186-0.005c0.373-0.007,0.741,0.001,1.113,0.028l0.749,0.065c0.164,0.005,0.265,0.009,0.369,0.021  c0.045,0.005,0.089,0.013,0.135,0.021l12.542,1.087V60.542c0-5.674-4.644-10.316-10.317-10.316s-10.316,4.643-10.316,10.316v23.994  c1.436-0.527,2.939-0.887,4.486-1.018C33.774,83.477,34.15,83.448,34.528,83.435z"/>
<path d="M21.4,89.985c1.186-1.495,2.616-2.757,4.201-3.773V10.315C25.602,4.643,20.958,0,15.284,0S4.967,4.643,4.967,10.315V116.54  l14.334-23.172C19.865,92.171,20.571,91.033,21.4,89.985z"/>
<path d="M5.602,148.698c0.014,0.005,0.125,0.097,0.288,0.229l18.54,17.945L14.877,200h77.003l-3.344-35.308l10.574-43.843  c0.578-1.85,0.889-3.817,0.889-5.857c0-1.709-0.24-3.358-0.648-4.939v-0.084c-0.611-2.754-1.204-5.515-1.823-8.268  c-1.115-4.938-2.107-9.912-3.347-14.818c-0.643-2.551-1.053-5.104-1.312-7.662c-0.568-5.646-0.355-11.319-0.353-17.062  c0-7.528,0-25.946,0-27.629c0-4.272-3.497-7.769-7.768-7.769c-4.273,0-7.771,3.496-7.771,7.769c0,0,0,52.324-0.02,57.343  c0.898,1.471,1.441,3.108,1.632,4.81c0.012,0.126,0.043,0.248,0.055,0.375c0.045,0.597,0.051,1.2,0.002,1.807  c-0.235,3.124-1.686,5.976-4.077,8.028c-0.583,0.499-1.202,0.933-1.851,1.305c-0.114,0.064-0.23,0.12-0.347,0.18  c-0.205,0.109-0.41,0.216-0.62,0.312c-0.134,0.062-0.273,0.114-0.407,0.171c-0.198,0.081-0.397,0.159-0.6,0.23  c-0.142,0.05-0.287,0.094-0.432,0.139c-0.202,0.062-0.407,0.117-0.611,0.168c-0.146,0.036-0.293,0.069-0.438,0.1  c-0.213,0.044-0.43,0.08-0.646,0.111c-0.142,0.021-0.281,0.044-0.424,0.06c-0.238,0.025-0.48,0.039-0.725,0.051  c-0.119,0.006-0.239,0.018-0.358,0.021c-0.364,0.005-0.73-0.003-1.098-0.032l-22.25-1.779l-6.828,9.33  c2.009-0.468,13.147-2.749,24.003,0.927c0.489,0.167,0.979,0.346,1.464,0.536c0.052,0.019,0.1,0.039,0.148,0.059  c0.432,0.172,0.861,0.354,1.291,0.545c0.094,0.042,0.188,0.086,0.281,0.129c0.381,0.175,0.762,0.359,1.14,0.553  c0.126,0.064,0.251,0.128,0.379,0.195c0.344,0.182,0.688,0.374,1.029,0.571c0.145,0.085,0.29,0.168,0.435,0.255  c0.318,0.191,0.635,0.395,0.95,0.601c0.159,0.104,0.318,0.205,0.475,0.313c0.302,0.206,0.6,0.425,0.896,0.646  c0.162,0.119,0.324,0.232,0.48,0.355c0.308,0.237,0.608,0.488,0.907,0.742c0.143,0.119,0.284,0.229,0.424,0.353  c0.435,0.381,0.864,0.775,1.282,1.192c0.571,0.565,0.574,1.487,0.009,2.059c-0.003,0.004-0.009,0.004-0.012,0.009  c-0.284,0.28-0.654,0.421-1.023,0.421c-0.003,0-0.006-0.003-0.009-0.003c-0.182,0-0.361-0.034-0.531-0.103  c-0.177-0.069-0.342-0.175-0.483-0.315c-0.598-0.595-1.22-1.136-1.852-1.65c-0.1-0.081-0.196-0.165-0.299-0.245  c-0.616-0.489-1.248-0.942-1.891-1.363c-0.094-0.062-0.19-0.121-0.284-0.181c-12.178-7.76-28.036-3.896-28.787-3.706l-3.622,0.912  c-0.593,0.149-1.22-0.089-1.562-0.598c-0.343-0.51-0.33-1.178,0.033-1.674l7.711-10.537l1.978-2.703  c0.297-0.408,0.777-0.63,1.291-0.591l3.425,0.274l6.397,0.512l13.233,1.058c2.346,0.176,4.629-0.574,6.432-2.121  c0.353-0.303,0.671-0.636,0.967-0.981c0.003-0.001,0.003-0.001,0.003-0.002c1.217-1.42,1.959-3.17,2.102-5.057  c0.025-0.336,0.028-0.67,0.017-1.002c-0.006-0.092-0.014-0.181-0.02-0.271c-0.003-0.064-0.009-0.128-0.015-0.191  c-0.017-0.18-0.037-0.36-0.065-0.538c-0.017-0.112-0.034-0.223-0.057-0.334c-0.022-0.122-0.046-0.244-0.074-0.365  c0-0.001,0-0.003,0-0.006c-0.025-0.105-0.06-0.209-0.088-0.313c-0.025-0.094-0.048-0.188-0.077-0.28  c-0.353-1.126-0.93-2.184-1.723-3.112c-0.006-0.007-0.012-0.016-0.017-0.023c-1.547-1.803-3.694-2.894-6.043-3.073l-14.575-1.264  L36.71,86.457c-0.053-0.005-0.104-0.012-0.154-0.021c-0.097-0.003-0.171-0.006-0.245-0.014l-0.718-0.062  c-0.269-0.02-0.549-0.023-0.827-0.02c-0.419,0.014-0.701,0.035-0.979,0.071c-0.451,0.038-0.898,0.103-1.339,0.184  c-0.249,0.044-0.492,0.105-0.736,0.162c-0.169,0.04-0.34,0.076-0.508,0.123c-0.324,0.087-0.641,0.19-0.957,0.299  c-0.064,0.023-0.132,0.046-0.197,0.069c-0.359,0.131-0.712,0.273-1.059,0.431c-0.002,0-0.002,0-0.003,0.001  c-1.641,0.744-3.134,1.776-4.388,3.071c-0.322,0.33-0.63,0.677-0.918,1.041c-0.706,0.892-1.304,1.862-1.78,2.884  c-0.024,0.052-0.052,0.104-0.081,0.151L2.286,126.412c-0.426,0.783-0.813,1.718-1.113,2.71C0.385,131.263,0,133.385,0,135.511  c0,4.894,1.918,9.488,5.399,12.939C5.475,148.525,5.543,148.609,5.602,148.698z"/>
</svg>