<svg xmlns="http://www.w3.org/2000/svg" xmlns:xlink="http://www.w3.org/1999/xlink" version="1.1" id="Layer_1" x="0px" y="0px" width="100px" height="100px" viewBox="0 0 100 100" enable-background="new 0 0 100 100" xml:space="preserve">
<path d="M91.68,53.359V21.808H43.64l1.476-0.98l-5.359-8.072l-13.636,9.052H9.699v10.9l-8.224,5.459l5.36,8.072l2.864-1.901V84.46  h24.515l-5.146,2.785h33.801h33.799V68.952V50.661L91.68,53.359z M89.811,23.677v30.694l-10.262,5.554v-6.013h7.863V52.51h-7.863  v-7.944h7.863v-1.401h-7.863v-7.944h7.863v-1.402h-7.863v-7.79h-1.401v7.79h-7.944v-7.79h-1.401v7.79h-7.943v-7.79h-1.402v7.79  h-7.943v-7.79H50.11v7.79h-7.944v-7.79h-1.402v7.79h-7.943V28.99l8.003-5.312H89.811z M60.858,79.347l7.943-4.299v4.472h-7.943  V79.347z M70.203,74.289l3.116-1.687h4.828v6.917h-3.61h-4.334V74.289z M75.909,71.201l2.238-1.211v1.211H75.909z M79.549,72.603  h7.863v-1.401h-7.863v-1.97l8.988-4.864v7.576v7.576h-8.988V72.603z M78.147,43.165h-7.944v-7.944h7.944V43.165z M78.147,44.566  v7.944h-7.944v-7.944H78.147z M78.147,53.912v6.771l-2.167,1.172h-5.777v-7.943H78.147z M73.391,63.257l-3.188,1.726v-1.726H73.391z   M68.802,43.165h-7.943v-7.944h7.943V43.165z M68.802,44.566v7.944h-7.943v-7.944H68.802z M68.802,53.912v7.943h-7.943v-7.943  H68.802z M68.802,63.257v2.483l-5.934,3.212l-2.01,1.088v-6.783H68.802z M59.456,43.165h-7.943v-7.944h7.943V43.165z M59.456,44.566  v7.944h-7.943v-7.944H59.456z M59.456,53.912v7.943h-7.943v-7.943H59.456z M59.456,63.257v7.541l-0.743,0.403h-7.2v-7.944H59.456z   M56.121,72.603l-4.608,2.495v-2.495H56.121z M50.11,43.165h-7.944v-7.944h7.944V43.165z M50.11,44.566v7.944h-7.944v-7.944H50.11z   M50.11,53.912v7.943h-7.944v-7.943H50.11z M50.11,63.257v7.944h-7.944v-7.944H50.11z M50.11,72.603v3.254l-7.944,4.299v-7.553  H50.11z M23.476,63.257h7.944v7.944h-7.944V63.257z M23.476,61.855v-7.943h7.944v7.943H23.476z M23.476,52.51v-7.944h7.944v7.944  H23.476z M23.476,43.165v-7.944h7.944v7.944H23.476z M25.547,33.819l5.873-3.898v3.898H25.547z M32.821,63.257h7.943v7.944h-7.943  V63.257z M32.821,61.855v-7.943h7.943v7.943H32.821z M32.821,52.51v-7.944h7.943v7.944H32.821z M32.821,43.165v-7.944h7.943v7.944  H32.821z M11.568,23.677h11.736l-11.736,7.791V23.677z M11.568,82.591V43.099l10.505-6.975v7.041H14.21v1.401h7.864v7.944H14.21  v1.402h7.864v7.943H14.21v1.401h7.864v7.944H14.21v1.401h7.864v7.788h1.402v-7.788h7.944v7.788h1.402v-7.788h7.943v7.788h0.967  l-4.064,2.2H11.568z"/>
</svg>