<?xml version="1.0" encoding="utf-8"?>
<!-- Generator: Adobe Illustrator 14.0.0, SVG Export Plug-In . SVG Version: 6.00 Build 43363)  -->
<!DOCTYPE svg PUBLIC "-//W3C//DTD SVG 1.0//EN" "http://www.w3.org/TR/2001/REC-SVG-20010904/DTD/svg10.dtd">
<svg version="1.0" id="Layer_1" xmlns="http://www.w3.org/2000/svg" xmlns:xlink="http://www.w3.org/1999/xlink" x="0px" y="0px"
	 width="86.04px" height="100px" viewBox="0 0 86.04 100" enable-background="new 0 0 86.04 100" xml:space="preserve">
<path d="M0,63.673l2.714-9.18h12.67c-0.086-1.769-0.129-3.577-0.129-5.432c0-1.593,0.043-3.189,0.129-4.782H0l2.714-9.181h13.704
	c1.467-7.885,4.203-14.715,8.21-20.491C31.352,4.868,40.638,0,52.49,0c10.083,0,17.916,3.166,23.498,9.5
	c5.581,6.337,8.673,13.534,9.276,21.593H74.727c-1.164-6.12-3.534-10.968-7.111-14.544c-3.576-3.578-8.574-5.366-14.997-5.366
	c-7.886,0-14.242,3.298-19.068,9.891c-2.673,3.62-4.591,8.295-5.754,14.026h36.071l-2.716,9.181H26.503
	c-0.129,2.197-0.194,4.523-0.194,6.981c0,1.12,0.022,2.196,0.065,3.232h37.493l-2.716,9.18H27.343
	c1.036,5.645,2.867,10.536,5.496,14.673c4.353,6.897,10.86,10.344,19.521,10.344c7.973,0,14.05-3.642,18.229-10.925
	c2.197-3.837,3.836-8.88,4.913-15.126H86.04c-0.947,9.997-4.073,18.38-9.374,25.145C70.331,95.931,61.798,100,51.068,100
	c-9.266,0-17.043-3.337-23.337-10.019c-5.947-6.29-9.76-15.063-11.442-26.309H0z"/>
</svg>
