<svg xmlns="http://www.w3.org/2000/svg" xmlns:xlink="http://www.w3.org/1999/xlink" version="1.1" id="Layer_1" x="0px" y="0px" width="100px" height="100px" viewBox="0 0 100 100" enable-background="new 0 0 100 100" xml:space="preserve">
<path fill="#000000" d="M50.374,32.663h8.393h28.818l-0.101,22.264v3.683c-1.448,0-3.328,2.302-3.328,5.604  c0,3.301,1.613,5.602,3.062,5.602h0.268c1.45,0,3.063-2.301,3.063-5.602c0-3.303-1.614-5.604-3.063-5.604v-2.25  c2.813,0.252,5.313,3.618,5.313,7.854c0,4.403-2.334,7.854-5.313,7.854l0.101,26.318H58.576H40.67h-29.01l0.101-26.318  c-2.979,0-5.312-3.45-5.312-7.854c0-4.324,2.411-7.731,5.312-7.854l0.053,2.251c-1.418,0.11-3.116,2.382-3.116,5.604  c0,3.301,1.613,5.602,3.061,5.602h0.271c1.447,0,3.06-2.301,3.06-5.602c0-3.303-1.612-5.604-3.06-5.604l-0.215,0.001l-0.053-2.251  l-0.101-23.696h28.82H50.374l0.044,7.29L28.664,61.416V86.21H40.22l0,0h7.459l0,0h24.503V61.416L50.418,39.953L50.374,32.663z"/>
<polygon fill="#000000" points="69.932,83.96 69.932,83.96 69.932,62.357 50.424,43.129 30.915,62.357 30.915,83.96 30.915,83.96   30.915,83.96 69.932,83.96 "/>
<path fill="#000000" d="M57.669,27.817c2.229-0.063,4.154-1.917,4.154-4.16c0-2.285-1.858-4.145-4.142-4.145  s-4.144,1.859-4.144,4.145C53.538,25.911,55.426,27.771,57.669,27.817l0.013,2.231c-3.17,0-5.806-2.316-6.31-5.345l-0.973,0.011  h-0.634c-0.498,2.968-3.219,5.253-6.307,5.333l-0.02-2.25c2.24-0.051,4.163-1.89,4.163-4.144c0-2.284-1.858-4.142-4.144-4.142  c-2.283,0-4.143,1.857-4.143,4.141c0,2.251,1.888,4.088,4.123,4.145l0.02,2.25c-3.098,0-5.688-2.215-6.271-5.145l-0.021-0.124  h-2.542c-0.622,0-1.126-0.503-1.126-1.126c0-0.621,0.504-1.125,1.126-1.125h2.542l0.02-0.111c0.577-2.936,3.171-5.155,6.272-5.155  c3.169,0,5.807,2.316,6.309,5.345h0.632l0.975-0.011c0.508-3.021,3.144-5.334,6.308-5.334c3.097,0,5.689,2.216,6.271,5.146  l0.021,0.124h2.543c0.622,0,1.125,0.503,1.125,1.126c0,0.621-0.503,1.125-1.125,1.125h-2.543l-0.019,0.111  c-0.569,2.89-3.234,5.087-6.272,5.155L57.669,27.817z"/>
<path fill="#000000" stroke="#020202" stroke-width="0.0883" stroke-miterlimit="10" d="M11.975,62.096"/>
<path fill="#000000" stroke="#020202" stroke-width="0.0883" stroke-miterlimit="10" d="M87.484,56.359"/>
<path fill="#000000" d="M64.038,15.443c-0.749,0-1.357-0.607-1.357-1.357c0-5.5-5.498-9.974-12.257-9.974  s-12.258,4.475-12.258,9.974c0,0.75-0.607,1.357-1.357,1.357s-1.357-0.607-1.357-1.357c0-6.996,6.716-12.688,14.972-12.688  c8.255,0,14.972,5.692,14.972,12.688C65.396,14.835,64.787,15.443,64.038,15.443z"/>
</svg>