<svg xmlns="http://www.w3.org/2000/svg" xmlns:xlink="http://www.w3.org/1999/xlink" version="1.1" id="Layer_1" x="0px" y="0px" width="100px" height="95.152px" viewBox="0 0 100 95.152" enable-background="new 0 0 100 95.152" xml:space="preserve">
<path fill="none" stroke="#000000" stroke-width="0.1" stroke-miterlimit="10" d="M29.357,71.608"/>
<path fill="none" stroke="#000000" stroke-width="0.1" stroke-miterlimit="10" d="M59.027,88.614"/>
<path d="M51.313,71.603l-1.928-7.756c-8.535-2.211-11.361-3.276-16.514-6.024l-4.292,0.568c-1.939,0.287-1.496,1.347-1.725,2.829  l-0.155,0.768c-1.02,4.854-1.21,9.115-0.979,14.084l0.114,2.341c-0.055,2.397,1.308,2.568,3.194,3.139  c1.2,0.633,2.054,3.03-0.286,4.171l0,0l0,0c-9.762,1.541-8.165-3.769-8.276-9.826l-1.258-14.108l-1.934-0.077l-1.57,4.736  l-2.507,11.471c-0.457,2.178-1.032,4.173,2.053,5.77c2.173,1.887-0.278,4.572-2.618,4.228c-7.147,0.232-6.112-4.511-5.495-7.875  l0.402-4.859c0.289-3.309,0.917-5.37,1.086-9.995l-0.964-2.508l-0.15-0.405c-1.485-6.055-2.685-11.936,1.486-17.761l0.291-0.398  c-0.121-0.455-1.323-1.423-2.064-3.706c0,0-1.82-2.904,0.854-3.974c2.847-1.139,3.428,1.228,3.428,1.228  c0.546,1.452,1.278,2.37,2.405,2.114c0,0,26.229,0.535,29.012,0.288c2.782-0.248,5.082-1.376,5.082-1.376  c3.458-1.42,5.135-2.772,6.97-3.81c3.372-1.908,3.354-5.684,3.354-5.684s0.918-23.144,1.092-24.483s5.058-8.594,22.296,1.376  c17.237,9.97,14.146,17.31,12.169,18.353s-20.373,10.74-20.373,10.74c6.942,23.902-4.607,20.763-6.038,27.549l-0.576,2.744  c-1.021,4.854-1.365,9.883-1.134,14.851l0.113,2.341c-0.055,2.398,1.309,2.568,3.193,3.14c1.2,0.632,2.055,3.03-0.286,4.171l0,0l0,0  c-9.762,1.541-8.166-3.77-8.277-9.827l-0.576-11.873l0,0l-4.047,16.064c-0.457,2.177-1.032,4.172,2.053,5.77  c2.173,1.887-0.278,4.571-2.618,4.227c-7.148,0.232-6.113-4.511-5.495-7.875l0.402-4.859C50.515,78.291,51.144,76.229,51.313,71.603  "/>
</svg>