<svg xmlns="http://www.w3.org/2000/svg" xmlns:xlink="http://www.w3.org/1999/xlink" xml:space="preserve" width="100px" height="30px" style="shape-rendering:geometricPrecision; text-rendering:geometricPrecision; image-rendering:optimizeQuality; fill-rule:evenodd; clip-rule:evenodd" viewBox="0 0 28.0248 8.52411">
 <defs>
  <style type="text/css">
   
    .fil0 {fill:#0A0B0C}
   
  </style>
 </defs>
 <g id="Layer_x0020_1">
  <metadata id="CorelCorpID_0Corel-Layer"/>
  <path class="fil0" d="M0.470569 2.86219c2.13802,0.373005 4.74712,1.52899 5.95728,1.96987 0.462793,-0.146638 0.969003,-0.284306 1.51239,-0.413317 0.609297,-0.144668 0.302201,-0.742114 0.280783,-1.12258 -0.0212084,-0.376691 0.09149,-0.324663 0.437465,-0.182129 0.384691,0.158503 0.618953,0.46833 0.980032,0.612087 0.951018,0.107519 2.68679,-0.584133 5.40725,-0.762292 0.436331,-0.0285664 1.02554,-0.737323 1.09557,-1.0587 0.104669,-0.480345 0.084535,-1.10455 0.0492971,-1.51275 -0.0376407,-0.435913 0.229456,-0.465838 0.644758,-0.297499 0.62855,0.254754 1.56985,1.50279 1.97805,2.1973 0.212039,0.360751 0.095669,0.357259 0.486016,0.416839 3.72775,0.568999 6.65573,1.90799 7.83986,2.3912 1.37334,0.722308 0.932362,0.719025 0.135489,1.11072 -0.683115,0.19498 -1.27611,0.560611 -2.05958,0.59364 -0.871409,0.0367303 -1.73868,0.142026 -2.6083,0.144906 -1.45527,3.6056 -1.6596,-0.105952 -2.61323,-0.0568641 -2.09164,0.107669 -4.21509,-0.270978 -6.15911,-0.485031 -1.25437,0.830619 -1.49903,0.409511 -2.44865,-0.422839 -0.586103,-0.0194771 -0.810589,-0.122788 -1.3584,-0.00237307 -0.171846,0.0377751 -0.380243,0.129071 -0.490927,0.26853 -0.238874,0.300992 -0.512419,0.564596 -0.814425,0.795396 -0.16513,0.126205 -0.536687,0.288276 -0.350468,-0.251903 0.230665,-0.669056 -0.469465,-0.936452 -1.11645,-0.902124 -0.216636,0.0114922 -0.523224,-0.0568044 -0.706383,0.13219 -0.826485,0.852812 -0.961346,1.69904 -1.64061,2.19176 0,0 -1.56691,1.05709 -0.548209,-0.85723 0.88502,-1.66307 -1.35293,-0.957227 -3.25142,-3.1163 -0.363915,-0.413869 -0.187517,-0.332782 -0.824529,-0.926094 -0.382736,-0.356498 -0.432406,-0.573044 0.186443,-0.454405z"/>
 </g>
</svg>