<svg xmlns="http://www.w3.org/2000/svg" xmlns:xlink="http://www.w3.org/1999/xlink" xml:space="preserve" width="100px" height="46px" style="shape-rendering:geometricPrecision; text-rendering:geometricPrecision; image-rendering:optimizeQuality; fill-rule:evenodd; clip-rule:evenodd" viewBox="0 0 8.77482 4.00336">
 <defs>
  <style type="text/css">
   
    .fil0 {fill:#0A0B0C}
   
  </style>
 </defs>
 <g id="Layer_x0020_1">
  <metadata id="CorelCorpID_0Corel-Layer"/>
  <path class="fil0" d="M0.170926 0.228947c0.189108,-0.318157 2.14998,-0.292371 2.28753,0 0.168943,0.508768 0.179314,1.16557 0.100758,1.9054 -0.0193258,0.320815 0.206298,0.328125 0.599525,0.120944 0.170512,-0.0853321 0.604929,-0.349684 1.06245,-0.722354 0.9731,-0.79262 2.38968,-1.58557 4.08359,-1.32917 0.452131,-0.356013 0.697963,0.576768 0.17792,0.420168 -1.5808,-0.111336 -2.46598,0.851545 -3.46588,1.89307 -0.674388,0.702462 -2.02676,1.5336 -3.10084,1.48428 -0.79055,-0.0363095 -1.48876,-0.270387 -1.74505,-1.31979 -0.264156,-1.08158 -0.188726,-1.88668 0,-2.45255zm1.15378 -0.121228c0.423076,0 0.76617,0.0346318 0.76617,0.0773469 0,0.0427151 -0.343093,0.0773469 -0.76617,0.0773469 -0.423066,0 -0.766159,-0.0346318 -0.766159,-0.0773469 0,-0.0427151 0.343093,-0.0773469 0.766159,-0.0773469z"/>
 </g>
</svg>