<?xml version="1.0" encoding="utf-8"?>
<!-- Generator: Adobe Illustrator 14.0.0, SVG Export Plug-In . SVG Version: 6.00 Build 43363)  -->
<!DOCTYPE svg PUBLIC "-//W3C//DTD SVG 1.0//EN" "http://www.w3.org/TR/2001/REC-SVG-20010904/DTD/svg10.dtd">
<svg version="1.0" id="Layer_1" xmlns="http://www.w3.org/2000/svg" xmlns:xlink="http://www.w3.org/1999/xlink" x="0px" y="0px"
	 width="87.889px" height="100px" viewBox="0 0 87.889 100" enable-background="new 0 0 87.889 100" xml:space="preserve">
<path d="M87.889,21.63L77.549,0L67.206,21.63h6.341v16.882c0,14.967-11.166,27.368-25.604,29.328V21.63h6.341L43.944,0L33.604,21.63
	h6.34v46.21C25.506,65.88,14.34,53.479,14.34,38.512V21.63h6.341L10.342,0L0,21.63h6.34v16.882
	c0,19.384,14.743,35.387,33.604,37.391v7.585h-20.13v8h20.13V100h8v-8.513h20.131v-8H47.943v-7.585
	c18.86-2.004,33.604-18.007,33.604-37.391V21.63H87.889z"/>
</svg>
