<svg xmlns="http://www.w3.org/2000/svg" xmlns:xlink="http://www.w3.org/1999/xlink" version="1.1" id="Layer_1" x="0px" y="0px" width="100px" height="100px" viewBox="0 0 100 100" enable-background="new 0 0 100 100" xml:space="preserve">
<path d="M94.5,49.652c0-7.82-5.021-14.452-12.007-16.893C77.999,19.133,65.152,9.267,50.039,9.267  c-15.101,0-27.937,9.85-32.442,23.46C10.563,35.142,5.5,41.8,5.5,49.652c0,9.889,8.018,17.906,17.907,17.906V34.877  c3.625-11.252,14.19-19.417,26.632-19.417c12.356,0,22.861,8.055,26.557,19.187v30.689c-1.275,2.689-8.779,17.57-18.696,18.038  c-0.77-2.094-2.764-3.595-5.125-3.595c-3.023,0-5.477,2.451-5.477,5.477c0,3.024,2.453,5.478,5.477,5.478  c2.378,0,4.382-1.523,5.139-3.641c11.82-0.424,20.026-15.97,21.884-19.837C88.155,65.746,94.5,58.446,94.5,49.652z"/>
</svg>