<svg xmlns="http://www.w3.org/2000/svg" xmlns:xlink="http://www.w3.org/1999/xlink" version="1.1" x="0px" y="0px" width="100px" height="100px" viewBox="0 0 100 100" enable-background="new 0 0 100 100" xml:space="preserve">
<g id="Layer_1" display="none">
	<path display="inline" d="M94.5,49.652c0-7.82-5.021-14.452-12.007-16.893C77.999,19.133,65.152,9.267,50.039,9.267   c-15.101,0-27.937,9.85-32.442,23.46C10.563,35.142,5.5,41.8,5.5,49.652c0,9.889,8.018,17.906,17.907,17.906V34.877   c3.625-11.252,14.19-19.417,26.632-19.417c12.356,0,22.861,8.055,26.557,19.187v30.689c-1.275,2.689-8.779,17.57-18.696,18.038   c-0.77-2.094-2.764-3.595-5.125-3.595c-3.023,0-5.477,2.451-5.477,5.477c0,3.024,2.453,5.478,5.477,5.478   c2.378,0,4.382-1.523,5.139-3.641c11.82-0.424,20.026-15.97,21.884-19.837C88.155,65.746,94.5,58.446,94.5,49.652z"/>
</g>
<g id="Layer_2">
	<path d="M63.312,12.398V8.729c0-1.232-1.213-2.229-2.724-2.229c-1.501,0-2.715,0.998-2.715,2.229v1.9   c-0.761-0.106-1.514-0.232-2.304-0.232H44.424c-9.237,0-16.722,7.57-16.722,16.905v49.295c0,9.333,7.485,16.902,16.722,16.902   h11.145c9.237,0,16.729-7.569,16.729-16.902V27.302C72.298,20.804,68.629,15.232,63.312,12.398z M56.627,84.864H43.265v-4.181   h13.362V84.864z M65.229,67.351c-0.188,0.221-4.699,5.395-15.36,5.395c-10.496,0-16.426-4.981-16.676-5.194   c-0.744-0.641-0.834-1.763-0.194-2.508c0.645-0.75,1.77-0.84,2.521-0.207c0.047,0.042,5.247,4.333,14.349,4.333   c8.892,0,12.499-3.972,12.651-4.141c0.64-0.735,1.766-0.818,2.511-0.178C65.772,65.491,65.863,66.605,65.229,67.351z    M66.373,51.589c0,3.077-2.391,5.572-5.349,5.572H39.15c-2.957,0-5.344-2.495-5.344-5.572v-25.04c0-3.077,2.387-5.57,5.344-5.57   h21.875c2.958,0,5.349,2.493,5.349,5.57V51.589z"/>
</g>
</svg>