<svg xmlns="http://www.w3.org/2000/svg" xmlns:xlink="http://www.w3.org/1999/xlink" version="1.1" id="Layer_1" x="0px" y="0px" width="100px" height="100px" viewBox="0 0 100 100" enable-background="new 0 0 100 100" xml:space="preserve">
<g>
	<path d="M89.358,42.029c-0.434-0.361-0.99-0.521-1.554-0.429l-14.092,2.336V12.925h-9.405v32.57l-8.461,1.402V12.925h-9.405v35.531   l-8.461,1.403V12.925h-9.405v38.493l-17.819,2.953c-0.924,0.14-1.61,0.945-1.61,1.88v29.677c0,1.058,0.867,1.92,1.92,1.92h77.05   c1.058,0,1.915-0.862,1.915-1.92V43.495C90.03,42.933,89.792,42.4,89.358,42.029z M86.205,84.007H12.98v-26.13l73.225-12.126   V84.007z"/>
	<rect x="54.479" y="57.629" width="6.375" height="7.47"/>
	<rect x="65.164" y="57.629" width="6.359" height="7.47"/>
	<rect x="75.84" y="57.629" width="6.369" height="7.47"/>
	<rect x="65.164" y="69.104" width="6.359" height="7.479"/>
	<rect x="75.84" y="69.104" width="6.369" height="7.479"/>
</g>
</svg>