<svg xmlns="http://www.w3.org/2000/svg" xmlns:xlink="http://www.w3.org/1999/xlink" version="1.0" id="Layer_1" x="0px" y="0px" width="100px" height="100px" viewBox="0 0 100 100" enable-background="new 0 0 100 100" xml:space="preserve">
<path d="M92.781,22.563c0,0-2.897-0.35-7.225-0.839l0.382-3.157l-13.097-1.577l-0.402,3.329c-0.759-0.074-1.521-0.151-2.284-0.227  l-1.43-4.233c0-2.495-2.473-4.533-5.493-4.533H45.158c-3.02,0-5.492,2.038-5.492,4.533l-1.053,3.453  c-8.612,0.7-18.949,1.831-25.303,2.555l-0.085,0.01c-2.899,0.179-5.176,0.405-6.985,0.798c-0.281,0.048-0.553,0.118-0.824,0.193  c-0.093,0.026-0.174,0.056-0.264,0.085c-0.203,0.064-0.412,0.112-0.605,0.195C1.01,24.406,0,26.901,0,32.445V78.84  c0,1.146,0.07,2.225,0.227,3.223c0.077,0.9,0.311,1.75,0.69,2.527c0.781,1.848,2.159,3.17,4.421,3.748  c0.651,0.199,1.329,0.336,2.043,0.336h85.4c3.969,0,7.219-3.25,7.219-7.219V29.778C100,25.811,96.75,22.563,92.781,22.563z   M67.434,79.994c-13.571,0-24.577-11.006-24.577-24.58c0-13.573,11.006-24.578,24.577-24.578c13.576,0,24.58,11.005,24.58,24.578  C92.014,68.988,81.01,79.994,67.434,79.994z"/>
<path d="M83.367,55.621c0,8.801-7.134,15.934-15.934,15.934c-8.797,0-15.931-7.133-15.931-15.934  c0-8.797,7.134-15.929,15.931-15.929C76.233,39.692,83.367,46.824,83.367,55.621z"/>
</svg>