<svg xmlns="http://www.w3.org/2000/svg" xmlns:xlink="http://www.w3.org/1999/xlink" version="1.0" id="Layer_1" x="0px" y="0px" width="100px" height="100px" viewBox="0 0 100 100" enable-background="new 0 0 100 100" xml:space="preserve">
<path d="M99.894,60.338c-0.058-0.169-0.648-0.084-0.648-0.084l0.45-7.993c-1.043-2.854-2.627-20.886-3.261-23.173  c-0.636-2.288-52.713-1.737-55.029-1.737S9.633,28.056,8.079,28.226c-1.553,0.17-5.365,1.158-5.365,1.158  C0.073,41.57,0.566,57.345,0.566,57.345l-0.551,0.042c-0.126,2.754,0.595,3.518,0.595,3.518s0.549,0.211,1.271,0.211  c0.721,0,4.108,1.693,4.108,1.693l0.383,3.56h13.343c0.03-4.843,3.165-9.662,9.411-9.662s9.381,4.819,9.411,9.662h35.366  c-0.023-4.884,3.111-9.787,9.411-9.787c6.272,0,9.409,4.86,9.413,9.724C99.99,65.685,99.947,60.497,99.894,60.338z M17.512,62.938  H7.854V36.029h9.658V62.938z M36.659,43.85c0,1.118-0.915,2.034-2.033,2.034H21.324c-1.119,0-2.034-0.916-2.034-2.034V33.306  c0-1.119,0.915-2.035,2.034-2.035h13.302c1.118,0,2.033,0.916,2.033,2.035V43.85z M54.959,43.85c0,1.118-0.914,2.034-2.033,2.034  H39.625c-1.119,0-2.034-0.916-2.034-2.034V33.306c0-1.119,0.915-2.035,2.034-2.035h13.301c1.119,0,2.033,0.916,2.033,2.035V43.85z   M68.542,62.938h-10.81V35.145h10.81V62.938z M75.803,43.85c0,1.118-0.915,2.034-2.033,2.034h-1.271  c-1.118,0-2.032-0.916-2.032-2.034V33.306c0-1.119,0.914-2.035,2.032-2.035h1.271c1.118,0,2.033,0.916,2.033,2.035V43.85z   M94.104,43.85c0,1.118-0.864,2.034-1.921,2.034H78.656c-1.059,0-1.92-0.916-1.92-2.034V33.306c0-1.119,0.861-2.035,1.92-2.035  h13.526c1.057,0,1.921,0.916,1.921,2.035V43.85z M96.391,31.473l1.979,16.438C94.075,46.582,96.391,31.473,96.391,31.473z"/>
<circle cx="83.25" cy="65.938" r="7.456"/>
<circle cx="29.026" cy="65.938" r="7.457"/>
</svg>