<svg xmlns="http://www.w3.org/2000/svg" xmlns:xlink="http://www.w3.org/1999/xlink" version="1.0" id="Layer_1" x="0px" y="0px" width="100px" height="100px" viewBox="0 0 100 100" enable-background="new 0 0 100 100" xml:space="preserve">
<path d="M77.836,64.906c0,3.677,2.983,6.659,6.664,6.659c3.677,0,6.663-2.982,6.663-6.659c0-3.68-2.986-6.663-6.663-6.663  C80.819,58.243,77.836,61.227,77.836,64.906z"/>
<path d="M12.854,64.786c0,3.748,3.034,6.779,6.78,6.779c3.739,0,6.779-3.031,6.779-6.779c0-3.742-3.04-6.779-6.779-6.779  C15.888,58.007,12.854,61.044,12.854,64.786z"/>
<path d="M98.224,52.795c0,0-8.016-5.602-16.607-6.826c-1.646-0.238-19.311-10.955-25.433-11.661  c-6.123-0.704-44.744-4.828-47.217-0.117c-2.472,4.711-6.71,8.126-6.595,11.539c0.117,3.414,0,8.6,0,8.6s-2.238,0.348-2.238,1.881  c0,1.532-0.471,4.473,0.353,5.177c0.825,0.712,8.714,3.89,8.714,3.89h1.324c0,0,0.02,0,0.733,0  c-0.046-4.371,2.746-8.777,8.383-8.777s8.429,4.406,8.383,8.777h48.024c-0.097-4.407,2.692-8.891,8.378-8.891  c5.714,0,8.5,4.526,8.376,8.955c0.909,0.245,4.315,1.07,5.536,0.053C99.755,64.221,101.284,58.802,98.224,52.795z"/>
</svg>