<svg xmlns="http://www.w3.org/2000/svg" xmlns:xlink="http://www.w3.org/1999/xlink" version="1.0" id="Layer_1" x="0px" y="0px" width="100px" height="100px" viewBox="0 0 100 100" enable-background="new 0 0 100 100" xml:space="preserve">
<path d="M98.435,37.683c-1.656-1.879-4.352-2.602-7.19-1.936c-4.099,0.962-10.189,8.463-14.1,13.828  c-1.761-4.004-5.801-6.74-10.284-6.74c-5.155,0-9.523,3.438-10.826,8.252c-1.962-1.505-4.06-2.27-6.273-2.278  c-2.583,0-4.772,1.068-6.282,2.1c-1.375-4.704-5.739-8.074-10.771-8.074c-4.213,0-7.995,2.333-9.917,5.965  c-3.87-5.322-9.973-12.875-14.061-13.838c-2.818-0.664-5.51,0.057-7.165,1.928c-1.471,1.668-1.958,3.996-1.238,5.93  c0.199,0.532,0.786,0.806,1.323,0.606l1.124-0.416c0.533-0.197,0.804-0.789,0.607-1.322c-0.295-0.8-0.036-1.886,0.631-2.643  c0.435-0.493,1.241-1.08,2.615-1.08c0.424,0,0.881,0.056,1.357,0.169c3.074,0.725,9.711,8.979,13.581,14.56  c-0.054,0.452-0.083,0.908-0.083,1.365c0,6.188,5.036,11.223,11.225,11.223c5.897,0,10.834-4.72,11.199-10.565  c0.846-0.8,3.13-2.716,5.884-2.716c0,0,0,0,0.002,0c2.028,0,4.015,1.1,5.907,3.172c0.579,5.679,5.872,10.092,11.618,10.092  C73.506,65.264,79,60.246,79,54.059c0-0.061,0-0.121,0-0.182c4-5.507,10.273-14.212,13.449-14.958  c0.479-0.112,0.711-0.17,1.137-0.17c1.383,0,2.081,0.593,2.518,1.088c0.665,0.756,0.867,1.838,0.57,2.631  c-0.095,0.256-0.115,0.54-0.002,0.788c0.114,0.25,0.311,0.442,0.565,0.537l1.12,0.418c0.534,0.202,1.119-0.074,1.318-0.606  C100.392,41.675,99.904,39.351,98.435,37.683z M66.86,62.021c-4.392,0-7.964-3.572-7.964-7.962c0-4.393,3.572-7.966,7.964-7.966  c4.393,0,7.967,3.573,7.967,7.966C74.827,58.448,71.253,62.021,66.86,62.021z M32.709,62.021c-4.393,0-7.967-3.572-7.967-7.962  c0-0.438,0.037-0.881,0.111-1.317c0.078-0.16,0.115-0.346,0.108-0.53c0.849-3.556,4.079-6.118,7.748-6.118  c4.392,0,7.964,3.573,7.964,7.966C40.673,58.448,37.101,62.021,32.709,62.021z"/>
</svg>