<svg xmlns="http://www.w3.org/2000/svg" xmlns:xlink="http://www.w3.org/1999/xlink" version="1.0" id="Layer_1" x="0px" y="0px" width="100px" height="100px" viewBox="0 0 100 100" enable-background="new 0 0 100 100" xml:space="preserve">
<path fill="#000000" d="M544.249,249.471l-0.001-5.384c-0.009-0.222-0.125-2.206-1.713-3.684c-1.068-0.995-2.517-1.499-4.304-1.499  l-0.422,0.006c-1.947-0.055-3.493,0.447-4.616,1.492c-1.578,1.47-1.704,3.475-1.714,3.719v5.35  c-0.813,0.979-1.289,2.152-1.289,3.414v7.363h15.348v-7.363C545.538,251.623,545.062,250.449,544.249,249.471z M539.271,253.504  v2.289c0,0.775-0.631,1.406-1.406,1.406s-1.406-0.631-1.406-1.406v-2.289c-0.352-0.361-0.549-0.846-0.549-1.357  c0-1.078,0.877-1.955,1.955-1.955s1.955,0.877,1.955,1.955C539.819,252.66,539.622,253.143,539.271,253.504z M542.249,247.832  c-1.244-0.699-2.755-1.113-4.385-1.113s-3.141,0.414-4.385,1.113v-3.672c0.014-0.33,0.243-3.188,3.923-3.257l0.001,0.022  l0.461-0.018l0.461,0.018l0.001-0.022c3.75,0.071,3.918,3.106,3.923,3.218V247.832z"/>
<path d="M79.914,49.502L79.91,24.28c-0.041-1.039-0.586-10.339-8.025-17.259C66.879,2.361,60.094,0,51.721,0l-1.977,0.023  C40.62-0.233,33.377,2.121,28.115,7.02c-7.394,6.883-7.984,16.274-8.03,17.418v25.067c-3.812,4.582-6.04,10.084-6.04,15.996V100  h71.908V65.501C85.954,59.589,83.722,54.087,79.914,49.502z M56.589,68.402v10.725c0,3.633-2.956,6.589-6.589,6.589  s-6.589-2.956-6.589-6.589V68.402c-1.647-1.693-2.571-3.963-2.571-6.36c0-5.051,4.109-9.16,9.16-9.16c5.051,0,9.16,4.109,9.16,9.16  C59.16,64.448,58.235,66.709,56.589,68.402z M70.544,41.825C64.715,38.549,57.637,36.611,50,36.611  c-7.636,0-14.715,1.938-20.544,5.216V24.621c0.064-1.545,1.139-14.938,18.38-15.257l0.004,0.104L50,9.389l2.159,0.08l0.005-0.104  c17.57,0.334,18.357,14.557,18.38,15.073V41.825z"/>
</svg>