<svg xmlns="http://www.w3.org/2000/svg" xmlns:xlink="http://www.w3.org/1999/xlink" version="1.0" id="Layer_1" x="0px" y="0px" width="100px" height="100px" viewBox="0 0 100 100" enable-background="new 0 0 100 100" xml:space="preserve">
<polygon points="99.992,7.299 82.056,7.324 81.996,7.299 81.988,7.324 81.93,7.324 81.93,7.455 72.29,29.917 0,29.917   10.114,72.193 66.484,72.193 81.313,30.885 87.703,15.99 100,15.972 "/>
<path d="M59.918,75.841c-3.766,0-6.957,2.476-8.036,5.89H29.361c-1.084-3.414-4.276-5.89-8.042-5.89  c-4.663,0-8.428,3.774-8.428,8.429c0,4.657,3.766,8.432,8.428,8.432c3.766,0,6.958-2.475,8.042-5.893h22.521  c1.079,3.418,4.271,5.893,8.036,5.893c4.655,0,8.429-3.774,8.429-8.432C68.347,79.615,64.573,75.841,59.918,75.841z"/>
</svg>