<svg xmlns="http://www.w3.org/2000/svg" xmlns:xlink="http://www.w3.org/1999/xlink" version="1.0" id="Layer_1" x="0px" y="0px" width="100px" height="100px" viewBox="0 0 100 100" enable-background="new 0 0 100 100" xml:space="preserve">
<path d="M99.736,49.871L86.12,36.25v8.144H59.511c-0.454-0.764-0.968-1.497-1.626-2.152c-0.649-0.658-1.389-1.174-2.148-1.624  V13.621h8.147L50.264,0L36.645,13.621h8.144v26.996c-0.762,0.45-1.494,0.966-2.15,1.624c-0.658,0.656-1.174,1.388-1.626,2.152H13.88  V36.25L0.264,49.866l13.621,13.623l-0.005-8.147h27.136c0.448,0.76,0.964,1.49,1.622,2.148c0.656,0.653,1.389,1.172,2.15,1.621  v27.268h-8.144L50.264,100l13.62-13.621h-8.147V59.111c0.76-0.449,1.499-0.968,2.148-1.621c0.649-0.658,1.172-1.389,1.622-2.148  H86.12v8.147L99.736,49.871z"/>
</svg>