<svg xmlns="http://www.w3.org/2000/svg" xmlns:xlink="http://www.w3.org/1999/xlink" version="1.0" id="Layer_1" x="0px" y="0px" width="100px" height="100px" viewBox="0 0 100 100" enable-background="new 0 0 100 100" xml:space="preserve">
<path fill-rule="evenodd" clip-rule="evenodd" d="M28.894,5.14c-0.341,0.341-0.682,0.682-1.023,1.023  c0.949,7.628,3.442,15.256,7.287,22.882c4.347,0.632,8.693-0.459,13.039-3.067c0.765,0.585,0.638,1.754,0.768,2.558  c2.315,14.431,4.862,29.829,6.774,44.357c-4.388-1.505-8.78-0.666-13.164,0.637c-1.875,8.1-1.587,16.196-0.259,24.294  c0.084,0.083,0.169,0.168,0.256,0.257c8.182,3.326,16.362,2.401,24.545-3.327c0.683-0.682,1.367-1.363,2.046-2.045  c2.749-4.146,2.597-8.295,2.811-13.039c0.818-18.211-1.604-35.166-6.517-53.051c-1.904-6.931-4.112-15.783-8.693-22.245  c-0.128-0.128-0.257-0.256-0.385-0.383C47.215-1.843,38.055-1.128,28.894,5.14z"/>
</svg>