<?xml version="1.0" encoding="utf-8"?>
<!-- Generator: Adobe Illustrator 15.1.0, SVG Export Plug-In . SVG Version: 6.00 Build 0)  -->
<!DOCTYPE svg PUBLIC "-//W3C//DTD SVG 1.1//EN" "http://www.w3.org/Graphics/SVG/1.1/DTD/svg11.dtd">
<svg version="1.1" id="Layer_1" xmlns="http://www.w3.org/2000/svg" xmlns:xlink="http://www.w3.org/1999/xlink" x="0px" y="0px"
	 width="100px" height="68px" viewBox="0 0 100 68" enable-background="new 0 0 100 68" xml:space="preserve">
<path d="M50,0C36.24,0,6,3,6,25h88C94,3,63.759,0,50,0z"/>
<path d="M50,68c13.76,0,44,0,44-16H6C6,68,36.241,68,50,68z"/>
<path d="M94,36h-3c-2.643,0-6.155,2.165-9.552,4.26C77.494,42.697,73.759,45,70,45c-3.198,0-6.915-1.705-11.22-3.68
	C53.345,38.826,47.184,36,41,36H6c-3.313,0-6,2.687-6,6s2.687,6,6,6h88c3.313,0,6-2.687,6-6S97.313,36,94,36z"/>
<path d="M2,33c0,0,20,0,39,0c4.547,0,9,1.35,13.109,3l0,0c0.81,0.325,1.605,0.662,2.387,1.003c0.015,0.007,0.028,0.013,0.043,0.02
	c2.899,1.267,5.58,2.58,7.948,3.542c0.043,0.018,0.086,0.034,0.129,0.052c0.494,0.198,0.976,0.384,1.44,0.547
	c0.02,0.007,0.038,0.013,0.058,0.02c0.428,0.148,0.84,0.276,1.241,0.388c0.065,0.019,0.133,0.039,0.197,0.057
	c0.396,0.105,0.778,0.188,1.146,0.25c0.075,0.012,0.147,0.021,0.221,0.032C69.294,41.963,69.657,42,70,42
	c0.338,0,0.685-0.037,1.036-0.091c0.069-0.011,0.138-0.021,0.208-0.032c0.342-0.062,0.689-0.145,1.043-0.249
	c0.062-0.019,0.123-0.04,0.184-0.06c0.349-0.109,0.7-0.234,1.058-0.379c0.026-0.011,0.053-0.02,0.079-0.03
	c0.384-0.157,0.773-0.336,1.166-0.526c0.061-0.029,0.12-0.059,0.181-0.089c2.414-1.195,4.985-2.927,7.559-4.433
	C85.416,34.41,88.32,33,91,33c6,0,7,0,7,0c1.104,0,2-0.896,2-2s-0.896-2-2-2H2c-1.104,0-2,0.896-2,2S0.896,33,2,33z"/>
</svg>
