<svg xmlns="http://www.w3.org/2000/svg" xmlns:xlink="http://www.w3.org/1999/xlink" xml:space="preserve" width="38px" height="100px" style="shape-rendering:geometricPrecision; text-rendering:geometricPrecision; image-rendering:optimizeQuality; fill-rule:evenodd; clip-rule:evenodd" viewBox="0 0 3.74949 9.8932">
 <defs>
  <style type="text/css">
   
    .fil0 {fill:#0A0B0C}
   
  </style>
 </defs>
 <g id="Layer_x0020_1">
  <metadata id="CorelCorpID_0Corel-Layer"/>
  <path class="fil0" d="M1.87474 9.89209c-0.403784,0.0130331 -1.22463,-0.0825426 -1.333,-0.516977 0,-0.472086 0.148486,-0.122621 0.150658,-0.748931l0.537594 -0.399734c0.13003,0.24722 0.487825,0.247788 0.644747,0.249384 0.156923,-0.00159646 0.514718,-0.00216452 0.644748,-0.249384l0.537594 0.399734c0.00217233,0.626311 0.150658,0.276845 0.150658,0.748931 -0.108373,0.434435 -0.929215,0.53001 -1.333,0.516977zm-0.784345 -3.82858c-0.0195076,0.951036 0.249114,1.09066 0.712473,1.53138 -0.768919,0 -1.01437,-0.547388 -0.712473,-1.53138zm0.784345 1.81278c-0.172085,0 -0.383271,-0.0216981 -0.516261,-0.0825192 0,0.165085 0,0.282383 0,0.447468 0.104752,0.115125 0.344176,0.139019 0.516261,0.139019 0.172086,0 0.411509,-0.0238939 0.516262,-0.139019 0,-0.165085 0,-0.282383 0,-0.447468 -0.13299,0.060821 -0.344176,0.0825192 -0.516262,0.0825192zm-0.833399 -2.00272c0.271416,0.0560646 0.549123,0.0731037 0.830503,0.067391l0 -0.000114653 0.00289587 5.73267e-005 0.00289673 -5.73267e-005 0 0.000114653c0.281377,0.00571269 0.559092,-0.0113298 0.830503,-0.067391 0.0842381,-0.0174004 0.131005,0.0729968 0.152052,0.156397 0.0967336,0.383263 0.266941,1.20015 -0.134675,1.49446 -0.267948,0.196346 -0.554354,0.25262 -0.84788,0.264617l0 0.00023973 -0.00289673 -0.000121602 -0.00289587 0.000121602 0 -0.00023973c-0.293526,-0.0119969 -0.579929,-0.0682717 -0.84788,-0.264617 -0.401616,-0.294303 -0.23141,-1.11119 -0.134675,-1.49446 0.0210476,-0.0833999 0.067814,-0.173797 0.152052,-0.156397zm0.833399 -0.0347547c-0.255528,0.0177435 -0.572063,0.00325807 -0.781266,-0.0564763 -0.011699,-0.0977828 0.0373231,-0.105362 0.075679,-0.14347 0.0733973,-0.0729239 0.126616,-0.125776 0.126166,-0.19481l-0.0020047 -0.304684 -0.408235 -0.000941547c-0.00875709,-0.0179832 -0.00986974,-0.0359629 0.000198038,-0.053954 0.220766,-0.162783 0.192058,-0.236866 0.199265,-0.371625l0.0340269 -0.636375c0.00508731,-0.0951684 0.100465,-0.158325 0.201746,-0.158295l-6.5144e-005 -0.0430054c-0.107527,-0.0041918 0.00742033,-0.140669 0.0190655,-0.174712 -0.434515,-0.00124555 -0.52495,-0.0992264 -0.093697,-0.289593 0.126387,-0.0646471 0.368546,-0.121401 0.629123,-0.156035 0.260578,0.0346331 0.502737,0.0913874 0.629123,0.156035 0.431253,0.190366 0.340818,0.288347 -0.093697,0.289593 0.011646,0.0340425 0.126592,0.17052 0.0190663,0.174712l-6.5144e-005 0.0430054c0.101281,-3.04005e-005 0.196658,0.0631262 0.201746,0.158295l0.0340269 0.636375c0.00720666,0.134759 -0.021501,0.208841 0.199265,0.371625 0.0100678,0.017991 0.00895512,0.0359708 0.000198038,0.053954l-0.408235 0.000941547 -0.0020047 0.304684c-0.000449928,0.0690335 0.0527683,0.121886 0.126166,0.19481 0.0383559,0.0381083 0.087378,0.0456876 0.075679,0.14347 -0.209203,0.0597344 -0.525739,0.0742198 -0.781267,0.0564763zm-1.53434 -1.10174c0.0925765,-0.450411 0.617474,-0.498053 0.699041,-0.480302l-0.0177435 0.481075c-0.0982241,-0.0165275 -0.178428,0.053306 -0.194826,0.143421l-0.308174 2.9814c-0.0170078,0.224717 0.218303,0.30532 0.549423,0.392993l-0.406738 0.314679c-0.336892,-0.0770019 -0.696319,-0.273629 -0.658916,-0.588796l0.317797 -3.07449 -1.91089e-005 0.000171111 -0.119398 -0.0220569c-0.14012,-0.0258717 -0.176259,-0.0847532 -0.166602,-0.16659l0.537141 -4.55197c0.0107314,-0.0909757 0.0900811,-0.166606 0.196762,-0.166606l1.1066 0 1.56346e-005 0.166019 -1.03316 0c-0.142068,0 -0.121138,0.0503302 -0.135605,0.181179l-0.472136 4.27005c-0.00805961,0.0729048 0.0189743,0.111024 0.106662,0.118757l-0.000125945 0.00105968zm3.06876 0.000338749c-0.0923785,-0.450722 -0.617523,-0.498396 -0.699109,-0.480641l0.0177435 0.481075c0.0982241,-0.0165275 0.178427,0.053306 0.194825,0.143421l0.308175 2.9814c0.0170078,0.224717 -0.218304,0.30532 -0.549423,0.392993l0.406738 0.314679c0.336892,-0.0770019 0.696319,-0.273629 0.658916,-0.588796l-0.318006 -3.07651 0.000258839 0.00219144 0.119397 -0.0220569c0.140121,-0.025883 0.176259,-0.0847497 0.166603,-0.166602l-0.537141 -4.55196c-0.0107305,-0.0909835 -0.0900802,-0.166603 -0.196761,-0.166603l-1.1066 0 -1.56346e-005 0.166027 1.03316 0c0.142068,0 0.121138,0.0503181 0.135605,0.181152l0.472136 4.27007c0.00805961,0.0729091 -0.0189743,0.111044 -0.106662,0.118769l0.000164163 0.00139061z"/>
 </g>
</svg>