<?xml version="1.0" encoding="utf-8"?>
<!-- Generator: Adobe Illustrator 14.0.0, SVG Export Plug-In . SVG Version: 6.00 Build 43363)  -->
<!DOCTYPE svg PUBLIC "-//W3C//DTD SVG 1.0//EN" "http://www.w3.org/TR/2001/REC-SVG-20010904/DTD/svg10.dtd">
<svg version="1.0" id="Layer_1" xmlns="http://www.w3.org/2000/svg" xmlns:xlink="http://www.w3.org/1999/xlink" x="0px" y="0px"
	 width="99.252px" height="98.77px" viewBox="0 0 99.252 98.77" enable-background="new 0 0 99.252 98.77" xml:space="preserve">
<path d="M74.207,84.682c-0.302-0.303-0.423-0.728,0.06-1.15c0.484-0.425,1.755-0.79,2.299-1.094c0.544-0.303,0.485-0.183,1.151,0.18
	s2.149,1.051,2.906,0.117c0.785-0.97,3.022-1.821,4.053-1.823c1.029-0.001,2.602-0.547,3.631-1.156
	c1.028-0.606,3.268-1.337,4.719-2.247s0.664-1.211-0.787-1.087c-1.454,0.121-6.356,0.917-10.05,1.407
	c-4.333,0.573-5.091-0.238-7.024-1.685c-0.971-0.726-1.213-0.967-2.484-0.722c-8.872,1.703-17.419,1.173-28.335-1.471
	c-2.841,3.396-11.817,5.862-19.181,7.416c-4.076,0.86-4.504,1.844-7.015,4.249c-1.33,1.273-5.621,6.607-6.797,8.061
	c-0.527,0.65-1.633,1.396-2.299,1.578c-0.667,0.183-1.876,0.699-2.269,1.155c-0.381,0.439-3.267,1.729-3.991,2.155
	c-0.602,0.35-1.095,0.226-1.395-0.181c-0.424-0.573,0.542-2.302,1.086-2.938c0.448-0.525,1.724-1.184,2.813-1.154
	c1.089,0.029,1.724-0.336,1.907-1.093c0.177-0.758,0.601-1.183,1.873-1.608c1.271-0.426,4.745-4.033,5.138-5.396
	c-1.029,0.699-5.352,4.43-5.743,5.247c-0.392,0.816-1.632,1.456-2.663,1.607c-0.827,0.123-3.932,1.49-4.749,2.036
	C0.566,95.415,0,95.233,0,94.513c-0.001-0.908,0.34-1.649,1.328-2.726c0.694-0.759,2.531-1.323,3.055-0.975
	c0.701,0.465,0.82,0.369,1.241-0.638c0.633-1.515,2.904-2.031,3.296-2.366c2.983-2.532,5.29-4.761,6.557-7.003
	c0.327-0.574,0.514-1.151,0.815-1.515c0.302-0.363,0.456-0.272,0.695-0.969c0.415-1.199,0.773-1.425,2.057-1.427
	c8.052-0.012,10.847-2.805,11.433-5.769c1.237-6.239,2.587-10.658,5.55-12.602c0.635-0.415,0.666-0.546-0.001-0.907
	c-3.883-2.11-4.063-4.537-1.467-9.079c0.667-1.163,1.271-1.032,1.15-0.123c-0.119,0.909-0.055,3.511,0.371,4.841
	c0.426,1.331,1.7,3.148,3.697,2.961c1.998-0.185,6.84-0.554,9.384-0.315c2.543,0.237,12.17,0.525,15.983,0.035
	c6.758-0.87,10.951-3.105,9.854-8.854c-0.535-2.799-1.831-9.623-1.533-12.589c0.078-0.788-0.061-0.789-0.456-1.393
	c-0.608-0.934-1.071-0.721-1.454-1.087c-0.727-0.695-1.91-2.176-2.578-3.326c-0.613-1.054,0.209-1.67,0.542-1.513
	c0.516,0.24,0.636,0.18,0.636-0.183c-2.546-2.447-4.039-5.319-5.249-8.074c-0.851-1.937-3.882-5.08-4.46-5.866
	c-0.575-0.786-0.848-1.299-0.88-1.966c-0.031-0.665,0.847-0.727,0.878-0.121c0.031,0.604,0.456,1.179,1.123,1.814
	c0.667,0.634,3.184,2.841,3.485,3.325c0.229,0.363,0.37,0.32,0.545-0.091c0.687-1.608,2.711-3.74,4.171-5.124
	c0.544-0.515,0.604-0.998,0.662-1.454c0.277-2.095-0.065-3.208-1.339-4.932c-0.275-0.372-0.092-1.059,0.636-0.425
	c1.414,1.233,2.224,3.01,2.156,5.052c-0.015,0.418,0.131,0.807,0.575,0.573c0.696-0.364,2.239-1.396,2.844-1.911
	c0.452-0.385,0.498-0.532,0.514-0.909c0.027-0.758-0.002-1.074-0.246-1.574c-0.152-0.314,0.016-0.5,0.242-0.288
	c0.227,0.21,0.652,1.013,0.834,1.272c0.183,0.254,0.305,0.194,0.529-0.049c1.073-1.147,2.114-2.999,2.25-3.802
	c0.157-0.927,0.77-0.893,0.682,0.044c-0.491,5.164-8.158,8.852-11.182,12.186c-1.666,1.84-1.507,4.333-0.838,6.117
	c0.471,1.255,2.487,3.871,4.276,5.049c0.196,0.128,0.241,0.15,0.272-0.062c0.106-0.764,0.182-1.486-0.337-2.391
	c-0.121-0.21-0.219-0.737-0.122-1.119c0.12-0.485,0.12-0.576-0.033-1.18c-0.904-3.599-0.265-6.005,0.832-9.052
	c0.696-1.928,0.446-5.935,0.082-7.145c-0.207-0.682,0.3-0.968,0.635-0.122c0.526,1.336,0.943,3.298,0.978,5.567
	c0.006,0.406,0.34,0.382,0.878,0.06c1.408-0.848,2.995-2.054,3.627-2.791C80.111,6.514,80.11,5,79.837,4.199
	c-0.124-0.358-0.139-0.621,0.393-0.228c0.53,0.394,0.789,1.708,0.713,2.178c-0.061,0.388,0.037,0.438,0.364,0.212
	c1.92-1.334,2.825-3.515,3.124-5.665c0.143-1.024,0.694-0.759,0.786-0.214c0.551,3.269-2.854,7.522-5.434,9.091
	c-3.312,2.012-5.685,4.155-5.923,6.94c-0.169,1.98,0.485,5.318,1.483,6.765c0.101,0.194,0.259,0.309,0.33,0.055
	c0.381-0.886,0.559-2.184,0.251-3.1c-0.191-0.571-0.152-0.726,0.394-0.364c0.545,0.363,0.903,1.506,0.521,4.024
	c-0.119,0.789,0.062,1.091,0.668,1.695c0.608,0.604,0.97,0.484,1.333,0.24c0.362-0.243,0.726-0.365,1.15,0.422
	c0.426,0.787,0.788,1.231,1.637,1.268c1.332,0.059,2.604,0.117,3.088,0.601c0.819,0.817,0.85,0.727,2,0.843
	c1.15,0.12,2.361,0.18,3.027,0.18c0.664-0.002,0.79,0.481,1.516,0.542c0.726,0.06,1.635,0.057,2.241,0.601
	c0.604,0.543,1.059,1.21,1.062,1.876c0,0.503,0,0.589-0.24,0.682c-0.174,0.065-0.165,0.229-0.136,0.378
	c0.121,0.635-0.646,1.262-1.739,1.455c-1.211,0.214-3.723,0.732-4.268,1.066c-0.545,0.334-1.875,1.274-2.69,1.52
	c-0.817,0.241-0.725,1.271-0.331,2.3c2.151,5.595,2.927,10.473,3.172,14.463c0.186,3.027,0.373,6.659-0.107,9.506
	c-0.224,1.325-0.604,1.271-0.207,2.725c0.294,1.076,0.038,2.289-0.358,3.088c-0.151,0.304,0.241,0.454,0.575,0.454
	c1.515-0.003,8.235,0.651,9.839,0.802c0.812,0.074,1.075,0.233,1.183,0.663c0.121,0.484,0.609,1.392,0.73,2.178
	c0.121,0.788-0.421,1.15-0.602,2.364c-0.129,0.872-1.209,2.24-3.566,3.454c-1.121,0.577-2.299,1.578-3.146,2.125
	c-0.848,0.546-2.722,1.579-3.206,2.062c-0.483,0.485-1.451,1.274-2.056,1.517c-0.605,0.243-0.788,0.123-1.634,0.912
	c-0.847,0.788-3.683,1.185-5.024,1.098c-1.815-0.119-5.749,0.008-6.781,0.01c-1.027,0.002-0.907-0.726-0.605-1.331
	C73.3,85.197,73.936,84.953,74.207,84.682z"/>
</svg>
