<svg xmlns="http://www.w3.org/2000/svg" xmlns:xlink="http://www.w3.org/1999/xlink" version="1.1" id="Layer_1" x="0px" y="0px" width="100px" height="100px" viewBox="0 0 100 100" enable-background="new 0 0 100 100" xml:space="preserve">
<g>
	<path d="M38.892,6.928l6.307,6.31c3.003-2.006,6.057-3.545,8.992-4.554l-4.723-4.721C45.884,4.257,42.285,5.248,38.892,6.928   L38.892,6.928z M45.861,13.895l5.913,5.916c2.684-2.303,5.273-4.31,7.635-5.913L54.92,9.409C52,10.357,48.921,11.863,45.861,13.895   L45.861,13.895z M52.426,20.464l7.561,7.559c2.362-2.759,4.348-5.349,5.902-7.644l-5.818-5.816   C57.775,16.117,55.185,18.103,52.426,20.464L52.426,20.464z M60.641,28.678l5.916,5.913c2.029-3.062,3.536-6.14,4.485-9.059   l-4.491-4.487C64.949,23.404,62.941,25.994,60.641,28.678L60.641,28.678z M67.215,35.248l6.307,6.311   c1.682-3.393,2.674-6.992,2.969-10.578l-4.723-4.724C70.757,29.193,69.219,32.247,67.215,35.248L67.215,35.248z M73.376,41.847   l-6.337-6.339c-1.723,2.543-3.781,5.046-6.135,7.409l6.777,6.777C70.05,47.311,71.951,44.652,73.376,41.847L73.376,41.847z    M66.382,34.851l-5.94-5.941c-1.987,2.304-4.188,4.671-6.528,7.016l6.339,6.34C62.635,39.873,64.686,37.371,66.382,34.851   L66.382,34.851z M59.785,28.254l-7.592-7.59c-2.253,1.938-4.615,4.125-7.018,6.524l8.086,8.087   C55.66,32.872,57.848,30.507,59.785,28.254L59.785,28.254z M51.539,20.01l-5.938-5.94c-2.521,1.695-5.025,3.744-7.417,6.128   l6.34,6.339C46.869,24.194,49.234,21.996,51.539,20.01L51.539,20.01z M44.942,13.41l-6.338-6.337   c-2.805,1.426-5.462,3.325-7.847,5.696l6.776,6.778C39.896,17.191,42.398,15.134,44.942,13.41L44.942,13.41z M24.582,21.442   l6.265,6.267c1.685-2.569,3.707-5.105,6.04-7.507l-6.773-6.774C27.786,15.875,25.943,18.587,24.582,21.442L24.582,21.442z    M31.509,28.371l5.875,5.875c1.966-2.309,4.153-4.689,6.491-7.055l-6.337-6.336C35.178,23.284,33.162,25.824,31.509,28.371   L31.509,28.371z M38.039,34.899l7.512,7.512c2.258-1.918,4.633-4.093,7.059-6.487l-8.083-8.084   C42.131,30.265,39.958,32.641,38.039,34.899L38.039,34.899z M46.205,43.067l5.876,5.875c2.546-1.655,5.085-3.671,7.517-6.029   l-6.337-6.335C50.896,38.914,48.514,41.101,46.205,43.067L46.205,43.067z M52.74,49.6l6.27,6.267   c2.852-1.361,5.566-3.207,8.012-5.529l-6.771-6.772C57.848,45.893,55.311,47.919,52.74,49.6L52.74,49.6z M58.713,56.008   l-6.236-6.236c-3.066,1.98-6.173,3.466-9.145,4.401l4.532,4.53C51.522,58.527,55.217,57.628,58.713,56.008L58.713,56.008z    M51.817,49.113l-5.845-5.847c-2.718,2.302-5.335,4.29-7.694,5.851l4.318,4.315C45.55,52.568,48.685,51.113,51.817,49.113   L51.817,49.113z M45.315,42.609l-7.476-7.474c-2.362,2.797-4.329,5.411-5.838,7.703l5.611,5.61   C39.903,46.941,42.518,44.973,45.315,42.609L45.315,42.609z M37.185,34.479l-5.847-5.848c-2.001,3.132-3.456,6.269-4.319,9.223   l4.315,4.318C32.892,39.812,34.882,37.198,37.185,34.479L37.185,34.479z M30.676,27.974l-6.232-6.236   c-1.625,3.494-2.527,7.188-2.698,10.848l4.528,4.53C27.209,34.146,28.696,31.039,30.676,27.974L30.676,27.974z M72.74,15.127   c0.746,2.927,0.486,6.427-0.654,10.147l4.479,4.478C76.76,24.569,75.49,19.471,72.74,15.127L72.74,15.127z M55.175,8.365   c3.722-1.139,7.22-1.399,10.147-0.653c-4.344-2.752-9.441-4.021-14.621-3.823L55.175,8.365L55.175,8.365z M70.64,12.515   c-0.205,1.877-1.489,4.579-3.566,7.746l4.272,4.273C72.699,19.777,72.516,15.509,70.64,12.515L70.64,12.515z M60.188,13.378   c3.167-2.075,5.872-3.361,7.745-3.567c-2.992-1.877-7.262-2.058-12.016-0.706L60.188,13.378L60.188,13.378z M66.408,19.597   c2.872-4.397,4.034-7.585,3.031-8.587c-1.003-1.003-4.188,0.159-8.586,3.032L66.408,19.597L66.408,19.597z M25.979,38.122   l-4.266-4.265c-0.006,4.833,1.271,9.555,3.844,13.618C24.864,44.757,25.041,41.545,25.979,38.122L25.979,38.122z M30.821,42.964   l-4.084-4.087c-1.111,4.432-0.849,8.387,0.922,11.21C27.851,48.335,28.984,45.863,30.821,42.964L30.821,42.964z M36.819,48.96   l-5.332-5.33c-2.578,4.075-3.582,7.01-2.63,7.961C29.81,52.547,32.746,51.541,36.819,48.96L36.819,48.96z M41.57,53.715   l-4.084-4.088c-2.9,1.836-5.372,2.972-7.123,3.164C33.186,54.56,37.14,54.822,41.57,53.715L41.57,53.715z M46.59,58.732   l-4.264-4.264c-3.422,0.938-6.631,1.115-9.349,0.42C37.037,57.464,41.762,58.74,46.59,58.732L46.59,58.732z M22.402,19.699   c-1.486,3.419-2.338,7.179-2.411,11.13l0.885,0.887c0.277-3.614,1.239-7.242,2.876-10.669L22.402,19.699L22.402,19.699z    M27.956,11.273c-2.229,2.372-4.071,5.114-5.421,8.125l1.356,1.356c1.393-2.842,3.252-5.542,5.568-7.978L27.956,11.273   L27.956,11.273z M36.511,4.979c-2.95,1.434-5.617,3.344-7.911,5.634l1.507,1.506c2.374-2.362,5.019-4.274,7.812-5.729L36.511,4.979   L36.511,4.979z M47.598,2.091c-3.843,0.223-7.487,1.186-10.794,2.748l1.403,1.403c3.334-1.692,6.875-2.738,10.419-3.125   L47.598,2.091L47.598,2.091z M62.6,5.209c-3.986-2.025-8.496-3.167-13.273-3.167c-0.158,0-0.313,0.001-0.469,0.003l0.967,0.967   C54.238,2.713,58.627,3.439,62.6,5.209L62.6,5.209z M78.659,31.849c0.004-0.155,0.004-0.312,0.004-0.47   c0-5.609-1.577-10.854-4.308-15.311c2.416,4.434,3.427,9.479,3.083,14.559L78.659,31.849L78.659,31.849z M75.864,43.902   c1.565-3.307,2.527-6.952,2.749-10.796l-1.277-1.28c-0.392,3.544-1.436,7.083-3.129,10.417L75.864,43.902L75.864,43.902z    M70.093,52.105c2.289-2.295,4.2-4.965,5.63-7.911l-1.662-1.665c-1.455,2.795-3.367,5.438-5.729,7.814L70.093,52.105L70.093,52.105   z M61.307,58.17c3.014-1.35,5.754-3.191,8.123-5.422l-1.756-1.758c-2.435,2.314-5.136,4.174-7.979,5.566L61.307,58.17L61.307,58.17   z M49.876,60.715c3.951-0.074,7.708-0.927,11.131-2.412l-1.603-1.606c-3.43,1.634-7.055,2.599-10.67,2.875L49.876,60.715   L49.876,60.715z M35.98,57.516c3.795,1.941,8.063,3.08,12.59,3.195l-1.072-1.072C43.519,59.772,39.584,59.07,35.98,57.516   L35.98,57.516z M19.993,32.136c0.096,3.737,0.888,7.301,2.254,10.566c-1.076-3.11-1.551-6.414-1.438-9.752L19.993,32.136   L19.993,32.136z M44.957,74.807c0,0.57,1.664,1.032,3.717,1.032c2.054,0,3.717-0.462,3.717-1.032c0-0.445-1.012-0.824-2.433-0.969   v0.918c-0.069,0.18-0.616,0.32-1.284,0.32c-0.669,0-1.216-0.142-1.278-0.32v-0.918C45.973,73.982,44.957,74.361,44.957,74.807   L44.957,74.807z M47.516,86.303v-9.611c-0.772-0.061-1.456-0.178-1.985-0.34v9.623C46.084,86.145,46.86,86.247,47.516,86.303   L47.516,86.303z M27.524,84.935c-1.63,0.85-2.53,1.78-2.53,2.716c0,3.113,10.041,6.23,23.68,6.23c13.639,0,23.68-3.117,23.68-6.23   c0-0.936-0.902-1.866-2.531-2.716c0.109,0.239,0.16,0.485,0.16,0.734c0,3.269-9.537,5.917-21.309,5.917s-21.31-2.648-21.31-5.917   C27.364,85.42,27.416,85.174,27.524,84.935L27.524,84.935z M28.325,54.205l-1.929,1.93c13.176,12.233,33.776,11.941,46.597-0.878   c12.823-12.824,13.113-33.435,0.87-46.608l-1.912,1.911c5.07,5.505,8.168,12.855,8.168,20.934c0,17.06-13.821,30.889-30.871,30.889   C41.175,62.383,33.826,59.283,28.325,54.205L28.325,54.205z M23.905,87.711l-0.002-0.071c0-1.54,1.817-2.958,4.888-4.106   c2.528-1.814,8.189-3.195,15.14-3.636V74.84c0-1.134,2.02-1.514,3.463-1.638l-0.008-5.578c-8.238-0.422-16.358-3.644-22.811-9.667   L23.12,59.41c-1.21,1.215-3.03-0.605-1.817-1.818l5.205-5.207c-5.048-5.501-8.127-12.834-8.127-20.89   c0-17.061,13.819-30.891,30.87-30.891c8.052,0,15.387,3.084,20.883,8.142l5.217-5.22c1.214-1.215,3.031,0.604,1.82,1.817   L75.685,6.83c13.245,14.181,12.956,36.419-0.872,50.25c-6.878,6.877-15.838,10.407-24.854,10.585V73.2   c1.442,0.124,3.457,0.5,3.457,1.624v5.075c6.951,0.44,12.612,1.821,15.143,3.637c3.071,1.147,4.887,2.565,4.887,4.104l-0.002,0.075   v4.717l0.002,0.085c0,3.8-11.089,6.879-24.77,6.879c-13.68,0-24.771-3.079-24.771-6.879l0.002-0.073v-4.733H23.905z"/>
</g>
</svg>