<svg xmlns="http://www.w3.org/2000/svg" xmlns:xlink="http://www.w3.org/1999/xlink" version="1.1" id="Layer_1" x="0px" y="0px" width="100px" height="100px" viewBox="0 0 100 100" enable-background="new 0 0 100 100" xml:space="preserve">
<path fill="#000000" d="M81.678,24.327l6.851,12.619L54.275,57.586l-3.334-2.613c0,0,5.948-6.761,10.096-9.826  c4.144-3.063,12.889-5.679,12.889-5.679s6.308-1.803,9.105-5.138l-5.68-11.447L81.678,24.327z"/>
<path fill="#000000" d="M22.727,22.883l-5.68,11.447c2.794,3.334,9.103,5.138,9.103,5.138s8.745,2.616,12.892,5.679  c4.146,3.064,9.962,9.78,9.962,9.78l-3.202,2.659L11.55,36.945l6.849-12.619L22.727,22.883z"/>
<path fill="#000000" d="M17.587,84.449l-1.169-1.893l3.243-6.762c0,0,17.308-8.924,16.227-13.25c0,0-1.172-2.886-3.606-1.444  L24.98,65.52l2.794-5.229l5.86-3.334l14.602,8.922L17.587,84.449z"/>
<path fill="#000000" d="M25.341,66.589l7.753-4.417c0.989-0.451,2.434,0.992,2.434,0.992l-8.925,5.5L25.341,66.589z"/>
<polygon fill="#000000" points="49.317,65.249 3.797,36.945 11.01,22.433 14.073,20.54 6.591,36.133 49.409,62.094 "/>
<path fill="#000000" d="M40.551,43.453c-2.426-1.708-8.285-4.313-12.821-5.643c-6.411-1.88-8.208-4.446-8.208-4.446l5.641-11.112  c6.411,3.504,9.061,2.992,16.925,7.353c7.866,4.359,7.95,9.658,7.95,9.658s0.085-5.299,7.953-9.658  c7.86-4.36,10.513-3.848,16.925-7.353l5.641,11.112c0,0-1.797,2.565-8.208,4.446c-4.536,1.33-10.395,3.935-12.822,5.643  c-2.307,1.624-8.119,5.811-9.488,9.317C48.671,49.264,42.858,45.076,40.551,43.453z"/>
<path fill="#000000" d="M82.488,84.449l-30.646-18.57l14.602-8.922l5.86,3.334l2.794,5.229l-7.302-4.419  c-2.437-1.441-3.605,1.444-3.605,1.444c-1.082,4.326,16.223,13.25,16.223,13.25l3.247,6.762L82.488,84.449z"/>
<path fill="#000000" d="M74.737,66.589l-1.263,2.075l-8.924-5.5c0,0,1.441-1.443,2.434-0.992L74.737,66.589z"/>
<polygon fill="#000000" points="50.758,65.249 50.67,62.094 93.486,36.133 86.003,20.54 89.068,22.433 96.281,36.945 "/>
</svg>