<svg xmlns:dc="http://purl.org/dc/elements/1.1/" xmlns:cc="http://creativecommons.org/ns#" xmlns:rdf="http://www.w3.org/1999/02/22-rdf-syntax-ns#" xmlns:svg="http://www.w3.org/2000/svg" xmlns="http://www.w3.org/2000/svg" xmlns:sodipodi="http://sodipodi.sourceforge.net/DTD/sodipodi-0.dtd" xmlns:inkscape="http://www.inkscape.org/namespaces/inkscape" width="98.352325" height="99.999992" id="svg2" version="1.1" inkscape:version="0.48.2 r9819" sodipodi:docname="theatre.svg" inkscape:export-filename="/home/jcd/Pictures/theatre.png" inkscape:export-xdpi="353.09" inkscape:export-ydpi="353.09">
  <defs id="defs4"/>
  <sodipodi:namedview id="base" pagecolor="#ffffff" bordercolor="#666666" borderopacity="1.0" inkscape:pageopacity="0.0" inkscape:pageshadow="2" inkscape:zoom="5.6" inkscape:cx="39.156228" inkscape:cy="43.023917" inkscape:document-units="px" inkscape:current-layer="layer1" showgrid="false" inkscape:window-width="960" inkscape:window-height="1026" inkscape:window-x="958" inkscape:window-y="24" inkscape:window-maximized="0" fit-margin-top="0" fit-margin-left="0" fit-margin-right="0" fit-margin-bottom="0"/>
  <metadata id="metadata7">
    <rdf:RDF>
      <cc:Work rdf:about="">
        <dc:format>image/svg+xml</dc:format>
        <dc:type rdf:resource="http://purl.org/dc/dcmitype/StillImage"/>
        <dc:title/>
      </cc:Work>
    </rdf:RDF>
  </metadata>
  <g inkscape:label="Layer 1" inkscape:groupmode="layer" id="layer1" transform="translate(-4.187503,21.6875)">
    <path inkscape:connector-curvature="0" d="m 73.731674,-9.7835732 c 0,-0.7688258 -0.76693,-1.3907118 -1.714927,-1.3907118 -0.853197,0 -1.559455,0.510023 -1.686487,1.1745685 l -1.569883,6.694756 -9.318811,-3.8507644 -17.072479,1.1328568 -21.543234,21.4986761 9.48e-4,0.0028 c -0.237,0.238894 -0.380147,0.542253 -0.380147,0.871209 0,0.767878 0.76693,1.390712 1.71303,1.390712 0.467363,0 0.892065,-0.153576 1.201113,-0.401951 l 0.0028,0.0019 19.006394,-14.675942 2.497023,12.67472 h -9.48e-4 l -7.688241,37.497058 c 0,0 -0.410483,1.280744 1.157504,1.552819 1.381231,0.24174 1.865658,-0.939464 1.865658,-0.939464 L 52.421648,25.315071 h 0.0037 0.0019 l 12.221579,28.134657 c 0,0 0.483479,1.181204 1.866606,0.939464 1.56612,-0.272075 1.155636,-1.552819 1.155636,-1.552819 L 59.985717,15.349726 62.494116,0.97808921 70.841231,3.6969448 c 0,0 1.386919,0.6237828 2.193665,-0.9375689 0.773566,-1.5006789 0.703414,-11.6831155 0.695829,-12.5031332 -0.0028,-0.015168 9.49e-4,-0.027492 9.49e-4,-0.039816 z" id="path2990" style="fill:#000000"/>
    <path inkscape:connector-curvature="0" d="m 51.00807,-21.262092 c -3.537925,-0.01138 -6.41723,2.861055 -6.428605,6.39898 -0.01327,3.536977 2.832378,6.4153337 6.369355,6.4286045 3.536977,0.012347 6.418178,-2.8610545 6.428606,-6.3989795 0.01327,-3.537925 -2.831431,-6.416281 -6.369356,-6.428605 z" id="path2992" style="fill:#000000"/>
    <path inkscape:connector-curvature="0" d="m 71.108886,-21.682206 c -2.124413,-0.103398 -4.072844,1.316857 -4.622198,3.456601 -0.04864,0.189305 -0.103254,0.375301 -0.120579,0.562702 -0.0012,0.01338 0.0011,0.02681 0,0.04019 l -1.205791,1.768493 0.763668,0.442123 -0.884247,3.496793 3.898724,0.964633 0.482316,-1.848879 c 0.119923,0.04171 0.196314,0.08836 0.321544,0.120579 2.4446,0.628314 4.959655,-0.850242 5.58683,-3.295828 0.629135,-2.445093 -0.850573,-4.918153 -3.295828,-5.546637 -0.305681,-0.0785 -0.620946,-0.146003 -0.924439,-0.160773 z m -1.929265,2.411582 c 0.758283,0.0028 1.369406,0.608269 1.366563,1.366563 -0.0019,0.758284 -0.608479,1.369407 -1.366563,1.366563 -0.758086,-0.0028 -1.369407,-0.608478 -1.366563,-1.366563 0.0028,-0.758294 0.608269,-1.369407 1.366563,-1.366563 z" id="path3831" style="fill:#000000"/>
    <circle id="circle3908" r="6.335" cy="20.149" cx="16.422001" sodipodi:cx="16.422001" sodipodi:cy="20.149" sodipodi:rx="6.335" sodipodi:ry="6.335" style="fill:#000000" d="m 22.757001,20.149 c 0,3.498724 -2.836276,6.335 -6.335,6.335 -3.498724,0 -6.335,-2.836276 -6.335,-6.335 0,-3.498724 2.836276,-6.335 6.335,-6.335 3.498724,0 6.335,2.836276 6.335,6.335 z" transform="matrix(1.0390879,0,0,1.0390879,1.4270465,42.620114)"/>
    <path style="fill:#000000" d="m 14.718072,71.278721 -1.688107,0.200965 -0.241158,0 c -0.08427,0.0096 -0.158535,0.02989 -0.241158,0.04019 l -0.361737,0.04019 -0.04019,0 C 4.9156805,72.58127 4.267889,76.021492 4.267889,76.021492 l -0.080386,0.643088 0,1.647914 28.617433,0 0,-1.647914 -0.08039,-0.643088 c 0,0 -0.761919,-4.180126 -10.450186,-4.662391 l -0.04019,-0.08039 -0.241158,0 -1.607721,0 -3.778144,0 -1.607721,0 -0.281352,0 z m 34.887546,0 -1.688107,0.200965 -0.241158,0 c -0.08427,0.0096 -0.158536,0.02989 -0.241159,0.04019 l -0.361737,0.04019 -0.04019,0 c -7.230041,1.021204 -7.877833,4.461426 -7.877833,4.461426 l -0.08039,0.643088 0,1.647914 28.617434,0 0,-1.647914 -0.08039,-0.643088 c 0,0 -0.762025,-4.180126 -10.450187,-4.662391 l -0.04019,-0.08039 -0.241158,0 -1.607721,0 -3.778144,0 -1.607721,0 -0.281351,0 z m 34.887545,0 -1.688107,0.200965 -0.281351,0 c -0.08639,0.0099 -0.156498,0.02961 -0.241158,0.04019 l -0.361737,0.04019 -0.04019,0 c -7.215495,1.023939 -7.837639,4.461426 -7.837639,4.461426 l -0.08039,0.643088 0,1.647914 28.577239,0 0,-1.647914 -0.0804,-0.643088 c 0,0 -0.75545,-4.171696 -10.409998,-4.662391 l -0.04019,-0.08039 -0.281351,0 -1.567528,0 -3.818338,0 -1.607721,0 -0.241158,0 z" id="path3914" inkscape:connector-curvature="0"/>
    <circle id="circle3926" r="6.335" cy="20.149" cx="49.999001" sodipodi:cx="49.999001" sodipodi:cy="20.149" sodipodi:rx="6.335" sodipodi:ry="6.335" style="fill:#000000" d="m 56.334001,20.149 c 0,3.498724 -2.836277,6.335 -6.335,6.335 -3.498724,0 -6.335,-2.836276 -6.335,-6.335 0,-3.498724 2.836276,-6.335 6.335,-6.335 3.498723,0 6.335,2.836276 6.335,6.335 z" transform="matrix(1.0390879,0,0,1.0390879,1.4270465,42.620114)"/>
    <circle id="circle3942" r="6.335" cy="20.149" cx="83.552002" sodipodi:cx="83.552002" sodipodi:cy="20.149" sodipodi:rx="6.335" sodipodi:ry="6.335" style="fill:#000000" d="m 89.887002,20.149 c 0,3.498724 -2.836276,6.335 -6.335,6.335 -3.498724,0 -6.335,-2.836276 -6.335,-6.335 0,-3.498724 2.836276,-6.335 6.335,-6.335 3.498724,0 6.335,2.836276 6.335,6.335 z" transform="matrix(1.0390879,0,0,1.0390879,1.4270465,42.620114)"/>
    <path style="fill:#000000" inkscape:connector-curvature="0" d="M 45.903124,62.031314" id="path3956"/>
  </g>
</svg>