<svg xmlns="http://www.w3.org/2000/svg" xmlns:xlink="http://www.w3.org/1999/xlink" version="1.1" id="Layer_1" x="0px" y="0px" width="77.2727272727px" height="100px" viewBox="0 0 612 792" enable-background="new 0 0 612 792" xml:space="preserve">
<path d="M309.091,432.838c-24.825-5.555-40.981-24.801-38.289-54.388c2.643-29.05,25.658-42.907,48.257-42.145  c18.057,0.609,37.068,13.587,38.586,38.291c0.709,11.561-3.343,22.324-9.893,28.959c-8.499,8.607-19.365,10.305-28.297,9.062  c-13.614-1.891-27.146-11.055-26.405-30.781c0.264-7.016,3.647-14.516,9.096-19.48c3.533-3.216,9.389-5.841,15.236-5.653  c6.308,0.203,11.263,3.105,14.519,7.346c5.783,7.543,5.625,19.609,5.409,20.794c0,0-0.037,0.296-0.097,0.7  c-0.144,0.983-0.974,1.716-1.932,1.709l-29.779-0.176c-0.136-0.007-0.274,0.063-0.369,0.181c-0.094,0.115-0.138,0.269-0.113,0.405  c2.05,11.58,13.028,13.504,15.599,13.844c3.115,0.416,11.54,1.234,18.535-5.692c4.787-4.735,7.002-9.676,7.363-20.696  c0.348-10.541-8.063-28.128-30.855-28.209c-11.904-0.042-31.36,9.93-33.277,32.707c-1.883,22.384,10.472,39.369,30.286,42.804  c27.131,4.701,37.91-7.293,37.91-7.293c0.503-0.297,1.089-0.143,1.327,0.346l4.279,8.377c0.111,0.229,0.197,0.539,0.107,0.812  c-0.093,0.271-0.169,0.352-0.457,0.596C355.841,425.26,340.113,439.779,309.091,432.838z M306.469,375.139  c-0.083,0.198-0.123,0.408-0.042,0.585c0.079,0.175,0.243,0.285,0.436,0.288l18.987,0.138c0.145,0.005,0.294-0.066,0.398-0.189  c0.102-0.127,0.146-0.289,0.125-0.439c-0.291-1.772-0.855-3.552-1.949-4.948c-1.497-1.934-4.498-3.238-7.879-3.138  c-2.979,0.089-5.043,1.127-6.967,2.925C307.973,371.86,306.799,374.342,306.469,375.139z"/>
</svg>