<svg xmlns:dc="http://purl.org/dc/elements/1.1/" xmlns:cc="http://creativecommons.org/ns#" xmlns:rdf="http://www.w3.org/1999/02/22-rdf-syntax-ns#" xmlns:svg="http://www.w3.org/2000/svg" xmlns="http://www.w3.org/2000/svg" xmlns:sodipodi="http://sodipodi.sourceforge.net/DTD/sodipodi-0.dtd" xmlns:inkscape="http://www.inkscape.org/namespaces/inkscape" width="100.00006" height="80.277046" id="svg4428" version="1.1" inkscape:version="0.48.2 r9819" sodipodi:docname="New document 4">
  <defs id="defs4430"/>
  <sodipodi:namedview id="base" pagecolor="#ffffff" bordercolor="#666666" borderopacity="1.0" inkscape:pageopacity="0.0" inkscape:pageshadow="2" inkscape:zoom="1.4" inkscape:cx="121.02745" inkscape:cy="86.117262" inkscape:document-units="px" inkscape:current-layer="layer1" showgrid="false" fit-margin-top="0" fit-margin-left="0" fit-margin-right="0" fit-margin-bottom="0" inkscape:window-width="960" inkscape:window-height="1027" inkscape:window-x="961" inkscape:window-y="24" inkscape:window-maximized="0"/>
  <metadata id="metadata4433">
    <rdf:RDF>
      <cc:Work rdf:about="">
        <dc:format>image/svg+xml</dc:format>
        <dc:type rdf:resource="http://purl.org/dc/dcmitype/StillImage"/>
        <dc:title/>
      </cc:Work>
    </rdf:RDF>
  </metadata>
  <g inkscape:label="Layer 1" inkscape:groupmode="layer" id="layer1" transform="translate(-152.78125,-550.9018)">
    <path style="fill:#000000;stroke:none" d="m 173.39349,605.14925 -18.16326,16.32653 0.0638,0 -0.0638,0.0127 c 0,0 6.91146,11.74286 47.85714,9.375 40.08662,2.18576 47.0937,-9.2422 47.18112,-9.38775 l 0.0638,0 -18.15051,-16.32653 -29.38775,0.625 -29.40052,-0.625 z" id="path4438" inkscape:connector-curvature="0"/>
    <path style="fill:#000000;stroke:none" d="m 152.78125,550.9018 0,40.40816 7.46173,2.41072 c 10.35727,-7.20162 18.71625,-24.96636 22.46174,-35.26786 -0.76649,-0.62088 -1.5433,-1.3615 -2.34694,-2.2449 -0.21407,0.24887 -0.82224,0.93322 -1.81122,1.77296 -2.98086,9.77529 -8.87252,18.57801 -14.68113,27.41071 5.2277,-8.85987 10.22698,-16.18063 13.07398,-26.18622 -0.49425,0.33705 -1.03811,0.65822 -1.61989,0.96939 -2.95379,9.88364 -8.89547,18.77715 -14.75766,27.69132 5.24345,-8.88656 10.48205,-16.93552 13.32908,-27.00255 -0.62249,0.25643 -1.28598,0.47815 -1.97704,0.65051 -2.91978,10.01254 -8.9341,18.98686 -14.85969,27.99745 5.27278,-8.93628 10.83455,-17.6032 13.67347,-27.7551 -4.84332,0.73999 -11.04164,-1.16818 -17.53827,-10.57398 1.34581,1.84347 11.32502,14.74664 22.3597,8.07398 l 0.0638,-0.0383 c 1.40063,-0.85609 2.81591,-2.0334 4.2347,-3.58418 -1.08018,-1.25711 -2.19744,-2.7621 -3.32909,-4.56633 0.59068,0.8683 3.06798,4.3041 6.42858,6.74745 0.001,-0.004 -0.001,-0.009 0,-0.0127 0.12867,0.10092 0.25429,0.19481 0.38265,0.29337 7.04762,5.41103 13.62475,7.27515 19.45153,7.14285 5.82678,0.1323 12.40391,-1.73182 19.45153,-7.14285 0.12836,-0.0986 0.25398,-0.19245 0.38265,-0.29337 10e-4,0.004 -0.001,0.009 0,0.0127 3.3606,-2.44335 5.8379,-5.87915 6.42858,-6.74745 -1.13165,1.80423 -2.24891,3.30922 -3.32909,4.56633 1.41879,1.55078 2.83407,2.72809 4.2347,3.58418 l 0.0638,0.0383 c 11.03468,6.67266 21.01389,-6.23051 22.3597,-8.07398 -6.49663,9.4058 -12.69495,11.31397 -17.53827,10.57398 2.83892,10.1519 8.40069,18.81882 13.67347,27.7551 -5.92559,-9.01059 -11.93991,-17.98491 -14.85969,-27.99745 -0.69106,-0.17236 -1.35455,-0.39408 -1.97704,-0.65051 2.84703,10.06703 8.08563,18.11599 13.32908,27.00255 -5.86219,-8.91417 -11.80387,-17.80768 -14.75766,-27.69132 -0.58178,-0.31117 -1.12564,-0.63234 -1.61989,-0.96939 2.847,10.00559 7.84628,17.32635 13.07398,26.18622 -5.80861,-8.8327 -11.70027,-17.63542 -14.68113,-27.41071 -0.98898,-0.83974 -1.59715,-1.52409 -1.81122,-1.77296 -0.80364,0.8834 -1.58045,1.62402 -2.34694,2.2449 3.74549,10.3015 12.10447,28.06624 22.46174,35.26786 l 7.46173,-2.41072 0,-40.40816 -22.84439,0 -9.22194,0 -10.79081,0 -14.28572,0 -10.79081,0 -9.22194,0 -22.84439,0 z m 0,41.77296 0,23.82653 c 4.08163,-1.74927 9.32033,-5.53936 10.77806,-8.16327 0.46295,-4.62945 -2.16217,-10.84695 -3.27806,-13.23979 l -7.5,-2.42347 z m 100,0 -7.5,2.42347 c -1.11589,2.39284 -3.74101,8.61034 -3.27806,13.23979 1.45773,2.62391 6.69643,6.414 10.77806,8.16327 l 0,-23.82653 z" id="path4442" inkscape:connector-curvature="0"/>
  </g>
</svg>