<svg xmlns="http://www.w3.org/2000/svg" xmlns:xlink="http://www.w3.org/1999/xlink" version="1.1" id="Layer_1" x="0px" y="0px" width="100px" height="100px" viewBox="0 0 100 100" enable-background="new 0 0 100 100" xml:space="preserve">
<g>
	<path fill="#000000" d="M87.905,12.212c-0.601-4.941-0.748-6.949-3.514-7.755c-2.766-0.808-5.876-1.91-15.737-1.068   C58.854,4.225,64.366,4.546,50,4.695c-14.366-0.149-8.853-0.471-18.654-1.307c-9.859-0.842-12.97,0.26-15.737,1.068   c-2.764,0.806-2.912,2.814-3.515,7.755c-0.602,4.941,2.561,20.078,4.616,37.116s3.271,17.495,11.5,29.096   C36.438,90.022,39.379,96.913,50,96.913c10.622,0,13.365-6.891,21.593-18.489c8.228-11.601,9.643-12.058,11.698-29.096   C85.348,32.29,88.509,17.153,87.905,12.212z M50.91,71.799c-6.064,0-16.525,8.035-17.282-3.032   c-0.758-9.702,11.369-3.184,17.13-3.184s17.131-7.124,17.282,2.427S56.974,71.799,50.91,71.799z M59.6,35.52   c2.274-1.516,10.435-4.877,14.402-0.91c2.729,2.729,2.426,5.459-0.455,6.52C70.667,42.189,64.604,38.4,59.6,35.52z M27.917,41.129   c-2.881-1.061-3.184-3.791-0.455-6.52c3.968-3.967,12.128-0.605,14.402,0.91C36.861,38.4,30.797,42.189,27.917,41.129z"/>
</g>
</svg>