<svg xmlns="http://www.w3.org/2000/svg" xmlns:xlink="http://www.w3.org/1999/xlink" version="1.1" id="Calque_1" x="0px" y="0px" width="100px" height="100px" viewBox="0 0 100 100" enable-background="new 0 0 100 100" xml:space="preserve">
<path d="M49.393,89.866l-11.49-47.821c-0.431-1.766,0.645-3.547,2.403-3.982c1.76-0.435,3.539,0.645,3.974,2.41l11.862,49.393"/>
<polygon points="24.49,53.461 27.097,61.509 35.534,61.509 28.707,66.482 31.317,74.53 24.49,69.557 17.661,74.53 20.268,66.482   13.443,61.509 21.881,61.509 "/>
<polygon points="11.047,27.563 13.656,35.613 22.097,35.613 15.266,40.586 17.875,48.632 11.047,43.659 4.22,48.632 6.827,40.586   0,35.613 8.442,35.613 "/>
<polygon points="30.65,6.75 33.257,14.801 41.698,14.801 34.871,19.775 37.478,27.82 30.65,22.847 23.823,27.82 26.43,19.775   19.603,14.801 28.043,14.801 "/>
<polygon points="57.23,11.609 59.838,19.656 68.28,19.656 61.451,24.63 64.06,32.676 57.23,27.704 50.405,32.676 53.014,24.63   46.187,19.656 54.624,19.656 "/>
<path d="M74.749,82.429h25.165L90.689,65.13l4.195-14.339h-21.78l-1.596-4.825c-0.639-2.521-2.728-4.829-4.813-4.829h-18.8  l9.985,32.975h19.665c1.762,0.028,2.01,1.479,1.547,2.368L74.749,82.429z"/>
</svg>