<svg xmlns="http://www.w3.org/2000/svg" xmlns:xlink="http://www.w3.org/1999/xlink" version="1.1" id="Calque_1" x="0px" y="0px" width="100px" height="100px" viewBox="0 0 100 100" enable-background="new 0 0 100 100" xml:space="preserve">
<path d="M51.246,89.629c-5.208-0.948-8.671-5.945-7.731-11.141c0.644-3.527,3.149-6.303,6.389-7.389l3.046-5.668l-4.454-4.653  c-0.399-0.021-0.807-0.068-1.21-0.144c-2.501-0.45-4.689-1.857-6.148-3.969c-1.463-2.102-2.017-4.646-1.562-7.165  c0.833-4.569,4.797-7.882,9.426-7.882c0.566,0,1.133,0.049,1.712,0.154c2.416,0.436,4.548,1.802,5.986,3.725l6.354,1.149  l3.103-5.775c-0.356-1.343-0.425-2.765-0.176-4.149c0.832-4.569,4.792-7.882,9.422-7.882c0.562,0,1.133,0.052,1.712,0.152  c0.167,0.032,0.326,0.101,0.493,0.14c0-5.454,0-8.985,0-8.985c0-9.057-17.372-16.398-38.804-16.398C17.373,3.75,0,11.092,0,20.149  c0,0,0,14.155,0,29.614s16.252,37.379,38.804,46.732c4.441-1.84,8.628-4.188,12.512-6.86C51.294,89.631,51.272,89.633,51.246,89.629  z"/>
<path d="M99.22,56.969c-0.699-1.011-1.755-1.688-2.961-1.907c-1.845-0.339-3.591,0.472-4.569,1.836l-12.1-2.192l-1.686-12.43  c1.051-0.665,1.811-1.742,2.042-3.024c0.219-1.212-0.047-2.438-0.751-3.448c-0.699-1.01-1.751-1.688-2.961-1.905  c-2.553-0.457-4.903,1.246-5.354,3.709c-0.223,1.251,0.091,2.506,0.812,3.49l-5.964,11.098l-12.284-2.227  c-0.459-1.644-1.823-2.971-3.617-3.295c-2.527-0.455-4.899,1.249-5.346,3.711c-0.455,2.502,1.214,4.902,3.707,5.351  c0.768,0.142,1.515,0.075,2.222-0.163l8.641,9.031l-5.908,10.988c-2.304-0.099-4.316,1.523-4.728,3.782  c-0.45,2.495,1.214,4.897,3.711,5.353c2.549,0.455,4.904-1.253,5.351-3.711c0.052-0.271,0.073-0.539,0.068-0.81l11.25-5.421  l8.74,9.137c-0.211,0.403-0.36,0.843-0.446,1.305c-0.219,1.212,0.043,2.435,0.751,3.447c0.694,1.008,1.75,1.687,2.96,1.905  c0.279,0.051,0.554,0.077,0.824,0.077c2.23,0,4.136-1.592,4.53-3.784c0.219-1.21-0.047-2.433-0.751-3.445  c-0.536-0.772-1.278-1.352-2.141-1.678l-1.776-13.082l11.211-5.397c0.559,0.429,1.215,0.725,1.918,0.854  c0.279,0.052,0.55,0.075,0.82,0.075c2.227,0,4.132-1.594,4.526-3.784C100.185,59.202,99.923,57.979,99.22,56.969z"/>
</svg>