<?xml version="1.0" encoding="utf-8"?>
<!-- Generator: Adobe Illustrator 14.0.0, SVG Export Plug-In . SVG Version: 6.00 Build 43363)  -->
<!DOCTYPE svg PUBLIC "-//W3C//DTD SVG 1.0//EN" "http://www.w3.org/TR/2001/REC-SVG-20010904/DTD/svg10.dtd">
<svg version="1.0" id="Layer_1" xmlns="http://www.w3.org/2000/svg" xmlns:xlink="http://www.w3.org/1999/xlink" x="0px" y="0px"
	 width="98.64px" height="100px" viewBox="0 0 98.64 100" enable-background="new 0 0 98.64 100" xml:space="preserve">
<path fill-rule="evenodd" clip-rule="evenodd" d="M12.172,6.948h49.258c1.982,0,3.434,1.407,3.434,3.382v23.596
	c0,1.975-1.451,3.382-3.434,3.382H12.172c-1.994,0-3.505-1.407-3.505-3.382V10.331C8.667,8.355,10.179,6.948,12.172,6.948
	L12.172,6.948z M98.64,87.561L85.916,16.576c0,0,0-5.925-9.556-5.355v6.442h2.402l12.651,70.033c0,3.06-2.678,5.604-6.051,5.604
	c-3.371,0-6.12-2.545-6.12-5.604l0.062-24.62c0-6.762,1.174-15.758-12.715-15.758v-2.1h6.94V0H0v45.467h6.746v54.027h59.703V54.017
	c4.886-0.319,5.569,0.57,5.569,4.788v28.891c0,6.753,5.98,12.305,13.346,12.305C92.73,100,98.64,94.449,98.64,87.561"/>
</svg>
