<svg xmlns="http://www.w3.org/2000/svg" xmlns:xlink="http://www.w3.org/1999/xlink" version="1.1" id="Calque_1" x="0px" y="0px" width="100px" height="100px" viewBox="0 0 100 100" enable-background="new 0 0 100 100" xml:space="preserve">
<path d="M89.46,31.547c-10.349-10.349-27.126-10.349-37.476,0L40.938,42.592c-0.759,0.759-0.759,1.994,0,2.753l0.005,0.004  c2.219,2.217,6.568,1.244,9.009-1.198l0,0l7.317-7.317c0.759-0.761,1.996-0.761,2.758,0c0.759,0.759,0.759,1.994,0,2.753  L33.642,65.969l-2.667-2.655l13.237-13.292c-5.806-0.856-10.796-6.258-5.361-11.692l7.774-7.51  c-10.395-9.615-26.623-9.374-36.721,0.728c-10.352,10.347-10.352,27.125,0,37.476l28.572,28.628c1.458,1.462,3.828,1.462,5.289,0  c1.459-1.46,1.459-3.827,0-5.287l-17.65-17.702l-2.24-2.226c-0.759-0.762-0.759-1.991,0.002-2.753c0.759-0.761,1.993-0.761,2.752,0  l4.292,4.292c0,0,0.001,0.002,0.002,0.002c0,0,0.001,0.002,0.002,0.002l16.114,16.112c1.458,1.459,3.828,1.459,5.287,0l20.41-20.408  c0.76-0.761,1.989-0.761,2.753,0c0.762,0.762,0.762,1.991,0,2.753l-2.239,2.226l-18.69,18.689c-1.46,1.462-1.46,3.829,0,5.289  c1.461,1.46,3.825,1.46,5.284,0L89.46,69.023C99.81,58.673,99.81,41.894,89.46,31.547z M56.65,53.6  c0.759-0.762,1.993-0.762,2.755,0.002c0.759,0.759,0.759,1.994,0,2.753L41.64,74.117l-2.787-2.786l17.763-17.764L56.65,53.6z   M67.447,64.396L49.681,82.159l-2.755-2.755L64.69,61.642c0.761-0.759,1.994-0.759,2.757,0C68.207,62.4,68.207,63.633,67.447,64.396  z"/>
<path d="M94.366,16.905L49.394,0.214c-0.071-0.027-0.143-0.036-0.215-0.059c-0.122-0.036-0.243-0.072-0.369-0.094  c-0.112-0.023-0.221-0.032-0.331-0.041C48.361,0.009,48.244-0.002,48.125,0c-0.118,0.002-0.234,0.011-0.351,0.025  c-0.112,0.013-0.221,0.024-0.333,0.049c-0.126,0.025-0.247,0.063-0.368,0.102c-0.071,0.025-0.142,0.034-0.212,0.061L21.125,10.32  V2.773H10.576v11.678l-6.319,2.476c-1.826,0.714-2.728,2.777-2.011,4.602c0.548,1.399,1.89,2.257,3.308,2.257  c0.432,0,0.867-0.081,1.294-0.248l12.666-4.961c8.313-2.577,18.623-4.017,29.428-4.017c11.116,0,21.658,1.516,30.067,4.22  l4.672,1.734c0.672,0.284,1.371,0.554,2.002,0.856c0.377,0.178,0.777,0.271,1.183,0.325l5.025,1.865  c0.406,0.153,0.825,0.225,1.235,0.225c1.441,0,2.798-0.888,3.329-2.316C97.142,19.631,96.2,17.587,94.366,16.905z"/>
</svg>