<svg xmlns="http://www.w3.org/2000/svg" xmlns:xlink="http://www.w3.org/1999/xlink" version="1.1" id="Layer_1" x="0px" y="0px" width="77.2727272727px" height="100px" viewBox="0 0 612 792" enable-background="new 0 0 612 792" xml:space="preserve">
<ellipse fill="#000000" cx="309.93" cy="351.762" rx="6.948" ry="6.527"/>
<path fill="#000000" d="M298.037,360.369c0,0,50.997-1.743,53.128,5.998c1.187,4.305-18.349,3.868-30.577,3.743l-0.24,19.65  l-6.487,30.381c0,0-13.662,26.574-20.337,22.645c0,0-5.676-3.492,9.545-25.451l2.246-14.66c0,0-10.543,14.66-15.596,12.227  c0,0-10.105-3.556,7.486-24.891l0.25-18.216c0,0-22.342,20.399-25.578,18.714c0,0-11.791-0.873,25.949-29.916"/>
<path fill="#000000" d="M287.401,402.799c0,0-2.992,6.458-1.058,10.076c0,0-10.443,0.188-8.634-6.146  C277.709,406.729,278.355,403.359,287.401,402.799z"/>
<ellipse fill="#000000" cx="271.503" cy="434.552" rx="8.609" ry="8.921"/>
</svg>