<svg xmlns="http://www.w3.org/2000/svg" xmlns:xlink="http://www.w3.org/1999/xlink" version="1.1" x="0px" y="0px" width="100px" height="100px" viewBox="0 0 100 100" enable-background="new 0 0 100 100" xml:space="preserve">
<g id="Layer_1" display="none">
	<path display="inline" fill="none" stroke="#000000" stroke-miterlimit="10" d="M13.219,59.926c1.653-0.592,1.653-1.559,0-2.149   c0,0,0,0,0-0.729s0-0.729,0-0.729c1.653-0.591,1.653-1.558,0-2.148c0,0,0,0,0-0.729c0-0.728,0-0.728,0-0.728   c1.653-0.592,1.653-1.559,0-2.149c0,0,0,0,0-0.729c0-0.727,0-0.727,0-0.727c1.653-0.592,1.653-1.559,0-2.15c0,0,0,0,0-0.727   c0-0.728,0-0.728,0-0.728c1.652-0.591,1.652-1.56,0-2.15c0,0,0,0,0-0.728c0-0.728,0-0.728,0-0.728c1.652-0.591,1.652-1.56,0-2.15   c0,0,0,0,0-0.727c0-0.729,0-0.729,0-0.729c1.652-0.592,1.652-1.56,0-2.15l0,0c1.652,0.591,1.652,1.559,0,2.15c0,0,0,0,0,0.729   c0,0.727,0,0.727,0,0.727c1.652,0.59,1.652,1.559,0,2.15c0,0,0,0,0,0.728c0,0.728,0,0.728,0,0.728c1.652,0.591,1.652,1.559,0,2.15   c0,0,0,0,0,0.728c0,0.727,0,0.727,0,0.727c1.653,0.591,1.653,1.559,0,2.15c0,0,0,0,0,0.727c0,0.729,0,0.729,0,0.729   c1.653,0.591,1.653,1.558,0,2.149c0,0,0,0,0,0.728c0,0.729,0,0.729,0,0.729c1.653,0.591,1.653,1.558,0,2.148c0,0,0,0,0,0.729   s0,0.729,0,0.729C14.872,58.367,14.872,59.334,13.219,59.926l0.016,1.66c4.727,0,8.802,3.793,8.802,8.52   c0,0.055-0.007,0.108-0.008,0.163H77.79c-0.001-0.055-0.008-0.108-0.008-0.163c0-4.727,3.831-8.559,8.558-8.559   c0.055,0,0.107,0.007,0.162,0.008V34.482c-0.055,0.001-0.107,0.008-0.162,0.008c-4.727,0-8.558-3.832-8.558-8.558H21.874   c0,4.726-3.832,8.558-8.558,8.558h-0.097V36"/>
	<path display="inline" fill="none" stroke="#000000" stroke-miterlimit="10" d="M13.219,59.926c1.653-0.592,1.653-1.559,0-2.149   c0,0,0,0,0-0.729s0-0.729,0-0.729c1.653-0.591,1.653-1.558,0-2.148c0,0,0,0,0-0.729c0-0.728,0-0.728,0-0.728   c1.653-0.592,1.653-1.559,0-2.149c0,0,0,0,0-0.729c0-0.727,0-0.727,0-0.727c1.653-0.592,1.653-1.559,0-2.15c0,0,0,0,0-0.727   c0-0.728,0-0.728,0-0.728c1.652-0.591,1.652-1.56,0-2.15c0,0,0,0,0-0.728c0-0.728,0-0.728,0-0.728c1.652-0.591,1.652-1.56,0-2.15   c0,0,0,0,0-0.727c0-0.729,0-0.729,0-0.729c1.652-0.592,1.652-1.56,0-2.15l0,0c1.652,0.591,1.652,1.559,0,2.15c0,0,0,0,0,0.729   c0,0.727,0,0.727,0,0.727c1.652,0.59,1.652,1.559,0,2.15c0,0,0,0,0,0.728c0,0.728,0,0.728,0,0.728c1.652,0.591,1.652,1.559,0,2.15   c0,0,0,0,0,0.728c0,0.727,0,0.727,0,0.727c1.653,0.591,1.653,1.559,0,2.15c0,0,0,0,0,0.727c0,0.729,0,0.729,0,0.729   c1.653,0.591,1.653,1.558,0,2.149c0,0,0,0,0,0.728c0,0.729,0,0.729,0,0.729c1.653,0.591,1.653,1.558,0,2.148c0,0,0,0,0,0.729   s0,0.729,0,0.729C14.872,58.367,14.872,59.334,13.219,59.926l0.016,1.66c4.727,0,8.802,3.793,8.802,8.52   c0,0.055-0.007,0.108-0.008,0.163H77.79c-0.001-0.055-0.008-0.108-0.008-0.163c0-4.727,3.831-8.559,8.558-8.559   c0.055,0,0.107,0.007,0.162,0.008V34.482c-0.055,0.001-0.107,0.008-0.162,0.008c-4.727,0-8.558-3.832-8.558-8.558H21.874   c0,4.726-3.832,8.558-8.558,8.558h-0.097V36"/>
</g>
<g id="Layer_2">
	<g>
		<path d="M78.164,31.247H21.838c-1.608,3.433-4.29,6.258-7.639,8.045l-0.003,21.24c3.485,1.813,6.256,4.702,7.889,8.221h55.829    c1.631-3.519,4.402-6.406,7.889-8.221L85.795,39.27C82.451,37.483,79.771,34.666,78.164,31.247z"/>
		<path d="M97.068,35.331c0.182-0.065,0.305-0.239,0.305-0.433v-2.088c0-0.254-0.207-0.46-0.461-0.46h-0.123    c-5.705,0-10.348-4.642-10.348-10.348c0-0.254-0.205-0.459-0.461-0.459H14.019c-0.254,0-0.46,0.206-0.46,0.459    c0,5.707-4.642,10.348-10.348,10.348H3.087c-0.254,0-0.459,0.206-0.459,0.46v2.088c0,0.194,0.122,0.367,0.305,0.433    c0.542,0.194,0.866,0.54,0.866,0.924c0,0.38-0.332,0.735-0.866,0.927c-0.183,0.065-0.304,0.253-0.304,0.447v1.821    c0,0.194,0.122,0.369,0.305,0.435c0.534,0.191,0.866,0.546,0.866,0.925c0,0.385-0.323,0.731-0.866,0.925    c-0.183,0.065-0.304,0.253-0.304,0.447v1.822c0,0.194,0.122,0.369,0.305,0.435c0.534,0.191,0.865,0.545,0.865,0.924    c0,0.38-0.332,0.734-0.865,0.926c-0.183,0.065-0.305,0.253-0.305,0.447v1.821c0,0.194,0.122,0.369,0.304,0.434    c0.535,0.191,0.867,0.548,0.867,0.927c0,0.385-0.324,0.73-0.867,0.925c-0.182,0.065-0.304,0.253-0.304,0.447v1.821    c0,0.194,0.122,0.369,0.304,0.435c0.536,0.192,0.868,0.55,0.867,0.931c0,0.382-0.324,0.726-0.865,0.919    c-0.183,0.064-0.305,0.252-0.305,0.446v1.822c0,0.194,0.122,0.37,0.305,0.435c0.535,0.191,0.867,0.545,0.867,0.925    c0,0.379-0.332,0.732-0.867,0.924C2.75,60.012,2.627,60.2,2.627,60.395v1.824c0,0.193,0.122,0.369,0.304,0.435    c0.536,0.191,0.868,0.549,0.867,0.931c0,0.382-0.324,0.726-0.865,0.918c-0.185,0.065-0.307,0.242-0.305,0.438l0.02,2.096    c0.002,0.253,0.208,0.456,0.46,0.456c5.777,0,10.658,4.717,10.654,10.37c-0.004,0.045-0.006,0.09-0.006,0.136    c0,0.254,0.206,0.46,0.459,0.46h71.571c0.254,0,0.459-0.206,0.459-0.46l-0.008-0.205c0-5.584,4.881-10.301,10.656-10.301    c0.252,0,0.457-0.203,0.461-0.456l0.02-2.096c0.002-0.195-0.121-0.372-0.307-0.438c-0.541-0.192-0.863-0.536-0.865-0.919    c0-0.381,0.332-0.738,0.867-0.93c0.184-0.065,0.305-0.253,0.305-0.447v-1.824c0-0.194-0.123-0.37-0.307-0.435    c-0.535-0.191-0.867-0.545-0.867-0.924c0-0.38,0.332-0.733,0.867-0.925c0.184-0.064,0.307-0.253,0.307-0.446V55.83    c0-0.194-0.123-0.37-0.307-0.435c-0.541-0.193-0.863-0.537-0.865-0.92c0-0.38,0.332-0.737,0.867-0.93    c0.184-0.065,0.305-0.253,0.305-0.447v-1.821c0-0.193-0.123-0.369-0.305-0.435c-0.543-0.194-0.867-0.54-0.867-0.924    c0-0.38,0.332-0.736,0.867-0.928c0.182-0.065,0.305-0.253,0.305-0.447v-1.821c0-0.194-0.123-0.369-0.305-0.435    c-0.535-0.191-0.867-0.546-0.867-0.926c0.002-0.379,0.332-0.733,0.867-0.924c0.182-0.066,0.305-0.253,0.305-0.447v-1.822    c0-0.194-0.123-0.369-0.305-0.435c-0.543-0.195-0.867-0.541-0.867-0.925c0-0.379,0.332-0.733,0.867-0.925    c0.182-0.065,0.305-0.253,0.305-0.447v-1.821c0-0.194-0.123-0.369-0.305-0.435c-0.535-0.191-0.867-0.547-0.867-0.927    C96.201,35.87,96.525,35.525,97.068,35.331z M87.121,61.929c-3.516,1.688-6.271,4.563-7.76,8.1l-0.238,0.563H20.877l-0.237-0.562    c-1.491-3.537-4.248-6.414-7.76-8.101l-0.522-0.251l0.003-23.519l0.513-0.252c3.377-1.663,6.049-4.482,7.523-7.939l0.238-0.559    h58.73l0.238,0.558c1.475,3.442,4.143,6.254,7.518,7.917l0.514,0.252l0.008,23.542L87.121,61.929z"/>
	</g>
</g>
</svg>