<svg xmlns="http://www.w3.org/2000/svg" xmlns:xlink="http://www.w3.org/1999/xlink" version="1.1" x="0px" y="0px" width="100px" height="100px" viewBox="0 0 100 100" enable-background="new 0 0 100 100" xml:space="preserve">
<g id="Layer_1">
</g>
<g id="Layer_2">
	<path d="M9.315,57.676c0,9.381,7.633,17.014,17.014,17.014c9.382,0,17.015-7.633,17.015-17.014c0-6.972-4.217-12.975-10.232-15.6   l0.838-2.391l19.734,20.438c0.022,0.022,0.048,0.039,0.071,0.06c0.027,0.024,0.055,0.05,0.085,0.072   c0.042,0.03,0.086,0.056,0.131,0.081c0.029,0.016,0.058,0.033,0.088,0.047c0.052,0.023,0.106,0.04,0.161,0.056   c0.026,0.008,0.052,0.019,0.078,0.024c0.084,0.018,0.168,0.027,0.253,0.027c0.029,0,0.06-0.002,0.089-0.004l3.395-0.253   c1.194,8.222,8.287,14.555,16.834,14.555c9.381,0,17.014-7.637,17.014-17.019c0-9.381-7.633-17.022-17.014-17.022   c-2.487,0-4.85,0.522-6.981,1.486L63.3,33.697L64.956,28h2.72c0.666,0,1.205-0.834,1.205-1.5S68.342,25,67.676,25h-9.173   c-0.666,0-1.205,0.834-1.205,1.5s0.539,1.5,1.205,1.5h3.941l-1.347,4H35.73l0.475-1.827c0.078-0.356-0.01-0.505-0.238-0.789   S35.393,29,35.028,29h-7.537c-0.666,0-1.206,0.334-1.206,1c0,0.665,0.54,1,1.206,1h6.04l-0.478,2.417   c-0.001,0.002-0.001,0.122-0.002,0.124l-0.755,3.513l-1.459,4.19c-1.437-0.396-2.947-0.597-4.509-0.597   C16.948,40.647,9.315,48.294,9.315,57.676z M60.391,35l-6.412,21.827L34.773,37.07l0.43-2.07H60.391z M60.846,60.027l14.111-1.047   c0.407-0.029,0.771-0.264,0.968-0.622s0.197-0.791,0.004-1.15l-6.706-12.457c1.731-0.753,3.64-1.174,5.646-1.174   c7.831,0,14.201,6.371,14.201,14.202S82.699,71.98,74.868,71.98C67.803,71.98,61.927,66.794,60.846,60.027z M72.926,56.715   L60.67,57.623c0.053-4.901,2.602-9.213,6.432-11.726L72.926,56.715z M56.27,57.955l6.1-20.914l3.487,6.375   C61.106,46.437,58,51.744,58,57.779c0,0.018,0,0.035,0,0.053L56.27,57.955z M12.128,57.676c0-7.831,6.37-14.202,14.201-14.202   c1.235,0,2.435,0.16,3.577,0.457l-4.714,13.45c-0.22,0.628,0.11,1.315,0.738,1.535c0.132,0.047,0.267,0.068,0.398,0.068   c0.498,0,0.964-0.311,1.138-0.807l4.711-13.438c4.921,2.233,8.354,7.189,8.354,12.937c0,7.831-6.371,14.201-14.202,14.201   S12.128,65.507,12.128,57.676z"/>
</g>
</svg>