<svg xmlns="http://www.w3.org/2000/svg" xmlns:xlink="http://www.w3.org/1999/xlink" xmlns:a="http://ns.adobe.com/AdobeSVGViewerExtensions/3.0/" version="1.1" x="0px" y="0px" width="100px" height="100px" viewBox="-8.879 -1.585 100 100" overflow="visible" enable-background="new -8.879 -1.585 100 100" xml:space="preserve">
<defs>
</defs>
<path d="M27.222,76.97c2.254,8.703,7.626,10.748,13.899,10.748c6.273,0,11.645-2.045,13.9-10.748c-3.472,0.926-8.404,1.51-13.9,1.51  C35.626,78.48,30.691,77.896,27.222,76.97z"/>
<path d="M65.099,45.09c0-13.242-10.736-23.979-23.978-23.979c-13.242,0-23.978,10.737-23.978,23.979  c0,7.644,3.587,14.436,9.157,18.825c-0.13,1.273-0.217,2.573-0.217,3.909c0,1.013,0.053,2.008,0.129,2.987  c3.481-1.098,8.859-1.804,14.909-1.804s11.428,0.706,14.908,1.804c0.077-0.979,0.129-1.975,0.129-2.987  c0-1.336-0.087-2.636-0.217-3.909C61.511,59.526,65.099,52.734,65.099,45.09z M29.952,54.447c-3.025,0-5.606-2.456-5.763-5.478  c-0.159-3.023,2.165-5.48,5.189-5.48c3.025,0,5.605,2.457,5.763,5.48C35.3,51.991,32.977,54.447,29.952,54.447z M35.397,60.938  l5.724-9.91l5.724,9.91H35.397z M52.291,54.447c-3.026,0-5.35-2.456-5.19-5.478c0.158-3.023,2.739-5.48,5.763-5.48  c3.026,0,5.35,2.457,5.189,5.48C57.896,51.991,55.316,54.447,52.291,54.447z"/>
<ellipse cx="41.122" cy="73.678" rx="14.248" ry="0.724"/>
<polygon points="9.511,82.389 6.199,78.736 0,96.83 8.522,85.919 10.877,88.729 21.393,73.892 17.783,68.288 "/>
<polygon points="72.731,82.389 64.459,68.288 60.85,73.892 71.364,88.729 73.72,85.919 82.242,96.83 76.043,78.736 "/>
<polygon points="9.511,14.439 17.783,28.542 21.393,22.938 10.877,8.101 8.522,10.909 0,0 6.199,18.093 "/>
<polygon points="72.731,14.439 76.043,18.093 82.242,0 73.72,10.909 71.364,8.101 60.85,22.938 64.459,28.542 "/>
</svg>