<svg xmlns="http://www.w3.org/2000/svg" xmlns:xlink="http://www.w3.org/1999/xlink" version="1.1" id="Layer_1" x="0px" y="0px" width="100px" height="100px" viewBox="0 0 100 100" enable-background="new 0 0 100 100" xml:space="preserve">
<path fill="#000000" d="M50.153,0.257c-27.57,0-50,22.43-50,50c0,27.571,22.431,50,50,50c27.569,0,49.999-22.429,49.999-50  C100.152,22.687,77.723,0.257,50.153,0.257z M89.742,50.257c0,6.69-1.675,12.995-4.617,18.525L65.194,55.803  c0.638-1.729,0.986-3.596,0.986-5.545c0-7.627-5.33-14.005-12.466-15.625V10.837C73.88,12.645,89.742,29.63,89.742,50.257z   M46.591,10.837v23.795c-7.136,1.621-12.466,7.999-12.466,15.625c0,1.95,0.351,3.817,0.987,5.545L15.181,68.782  c-2.941-5.53-4.615-11.835-4.615-18.525C10.565,29.63,26.426,12.645,46.591,10.837z M50.153,89.846  c-12.59,0-23.816-5.914-31.072-15.103l19.925-12.976c2.885,2.793,6.813,4.517,11.147,4.517c4.332,0,8.262-1.724,11.147-4.517  l19.925,12.976C73.971,83.932,62.741,89.846,50.153,89.846z"/>
</svg>