<svg xmlns="http://www.w3.org/2000/svg" xmlns:xlink="http://www.w3.org/1999/xlink" version="1.1" x="0px" y="0px" width="100px" height="83px" viewBox="0 0 100 83" enable-background="new 0 0 100 83" xml:space="preserve">
<g id="Layer_1">
	<path d="M66,81c-4-1-5-4-5-8v-1H50H39v1c0,4-1,7-5,8c-0.97,0.242-1,2,0,2h16h16C67,83,66.971,81.242,66,81z"/>
</g>
<g id="Layer_2">
	<path d="M2.5,0C1.184,0,0.116,1.021,0.019,2.312L0,66.5C0,67.881,1.119,69,2.5,69h95c1.381,0,2.5-1.119,2.5-2.5L99.98,2.312   C99.884,1.021,98.816,0,97.5,0 M96,57H4V4h38.603l-8.054,17.995l11.539,4.438l-9.404,25.634l28.499-31.326l-10.95-5.836L64.949,4   H96V57z"/>
</g>
</svg>