<svg xmlns="http://www.w3.org/2000/svg" xmlns:xlink="http://www.w3.org/1999/xlink" version="1.1" id="Capa_1" x="0px" y="0px" width="70.7491082045px" height="100px" viewBox="0 0 595.28 841.89" enable-background="new 0 0 595.28 841.89" xml:space="preserve">
<path d="M525.764,320.58c0,0-101.348-27.166-167.067-28.325c0,0-38.013-40.172-51.145-44.797c0,0-8.381-3.783-11.808-2.019  c0,0-2.51,27.07,0.461,45.111c0,0-63.695,2.753-80.337,7.192c0,0-9.421-5.29-21.22-7.545c0,0-1.471-0.042-2.867,0.865  c0,0,1.312,4.865,4.496,9.951c0,0-18.892,3.951-21.501,4.727c0,0-68.326-28.064-131.61-18.186c0,0-1.166,1.689,0,7.03  c0,0,63.491,14.666,90.564,33.714c0,0-8.501,22.522-8.474,24.638c0,0-1.15,4.721,7.747,6.835c0,0,31.767-14.977,45.081-34.028  c0,0,9.049-5.916,30.194-0.857c0,0,4.669,5.521,3.687,11.113c0,0,4.685,0.989,21.792-6.859c0,0,16.565,2.588,28.409,6.272  c0,0,3.993,11.167,16.463,17.397c0,0,7.219-2.75,12.338-8.411c0,0,36.152,11.041,78.322,14.797c0,0-29.146,31.614-44.764,43.859  c0,0-1.253,0.521,1.533,2.289c0,0,35.562-7.656,70.453-33.567c0,0-8.896,26.576-16.739,38.078c0,0,0.923,1.217,4.021,1.492  c0,0,23.035-14.558,40.307-48.562c0,0,71.663-6.32,105.984-36.637C530.083,326.148,528.273,321.035,525.764,320.58z"/>
</svg>