<svg xmlns="http://www.w3.org/2000/svg" xmlns:xlink="http://www.w3.org/1999/xlink" version="1.1" id="Layer_1" x="0px" y="0px" width="100px" height="100px" viewBox="0 0 100 100" enable-background="new 0 0 100 100" xml:space="preserve">
<g>
	<path fill="#000000" d="M75.984,64.604H23.601c1.72,3.613,12.79,6.4,26.192,6.4C63.193,71.004,74.265,68.217,75.984,64.604   L75.984,64.604z M6.639,54.232c-0.164,3.265,3.689,6.716,8.606,7.704c4.916,0.989,9.033-0.854,9.197-4.12   c0.164-3.267-3.689-6.717-8.605-7.705C10.92,49.121,6.803,50.967,6.639,54.232L6.639,54.232z M49.791,8.024   C38.698,8.095,25.766,8.495,15.15,11.048c-0.942,0.18-1.053,1.171-1.053,1.171l-0.909,24.142c-0.078,4.187,4.705,6.09,36.602,6.191   c31.899-0.101,36.68-2.004,36.604-6.191l-0.909-24.142c0,0-0.11-0.991-1.053-1.171C73.815,8.495,60.884,8.095,49.791,8.024   L49.791,8.024z M92.942,54.232c-0.164-3.266-4.28-5.112-9.196-4.121c-4.916,0.988-8.769,4.438-8.605,7.705   c0.164,3.266,4.28,5.109,9.196,4.12C89.255,60.948,93.105,57.497,92.942,54.232L92.942,54.232z M49.966,88.538l-2.916-0.002   c-10.834-0.041-21.461-0.251-30.302-0.9v4.933c0,2.705-2.192,4.895-4.896,4.895H7.826c-2.704,0-4.896-2.189-4.896-4.895V82.268   c-0.105-0.916-0.216-1.97-0.324-3.148c-0.832-4.317-1.312-9.418-1.312-14.885c0-6.932,0.774-13.281,2.056-18.184   c0.254-1.117,0.562-2.114,0.911-3.003c0.107-0.305,0.218-0.602,0.33-0.891L9.462,8.825c0,0,0.196-1.388,1.439-1.698   c11.178-3.042,38.13-3.345,39.065-3.343c0.933-0.002,27.887,0.301,39.064,3.343c1.242,0.31,1.44,1.698,1.44,1.698l4.869,33.332   c0.111,0.289,0.224,0.586,0.33,0.891c0.349,0.889,0.656,1.886,0.912,3.003c1.28,4.903,2.056,11.252,2.056,18.184   c0,5.467-0.481,10.567-1.313,14.885c-0.108,1.179-0.219,2.232-0.325,3.148v10.301c0,2.705-2.19,4.895-4.894,4.895h-4.027   c-2.703,0-4.896-2.189-4.896-4.895v-4.933c-8.841,0.649-19.467,0.859-30.302,0.9L49.966,88.538L49.966,88.538z"/>
</g>
</svg>