<svg xmlns="http://www.w3.org/2000/svg" xmlns:xlink="http://www.w3.org/1999/xlink" version="1.1" id="Layer_1" x="0px" y="0px" width="100px" height="100px" viewBox="0 0 100 100" enable-background="new 0 0 100 100" xml:space="preserve">
<path d="M48.632,93.125h-1.99c-7.402-0.029-14.663-0.17-20.7-0.615v3.371c0,1.846-1.498,3.344-3.346,3.344h-2.748  c-1.85,0-3.346-1.498-3.346-3.344v-7.039c-0.073-0.623-0.147-1.346-0.222-2.15c-0.569-2.947-0.897-6.434-0.897-10.168  c0-4.736,0.528-9.072,1.404-12.424c0.174-0.764,0.385-1.441,0.625-2.049c0.072-0.209,0.146-0.41,0.225-0.607l2.621-17.945  c-0.568,0.129-1.158,0.197-1.764,0.197c-4.369,0-7.912-3.543-7.912-7.912c0-4.371,3.543-7.912,7.912-7.912  c0.573,0,1.135,0.061,1.675,0.178c0.722-0.789,1.559-1.469,2.486-2.012c0.471-3.922,3.808-6.975,7.854-6.975  c0.719,0,1.414,0.096,2.078,0.277c1.377-1.355,3.268-2.195,5.355-2.195c2.275,0,4.316,0.996,5.715,2.572  c1.539-0.768,3.284-1.195,5.117-1.195l0.241,0.002l0.198-0.002c2.91,0,5.576,1.082,7.601,2.865c0.852-0.256,1.751-0.393,2.681-0.393  c0.848,0,1.669,0.113,2.45,0.326c1.427-1.395,3.379-2.258,5.533-2.258c3.515,0,6.489,2.289,7.525,5.457  c1.944,0.48,3.595,1.705,4.631,3.354c4.306,0.074,7.773,3.586,7.773,7.91c0,4.369-3.544,7.912-7.912,7.912  c-0.88,0-1.727-0.145-2.52-0.41l2.654,18.158c0.074,0.197,0.149,0.398,0.223,0.607c0.239,0.607,0.45,1.285,0.623,2.049  c0.876,3.352,1.407,7.688,1.407,12.424c0,3.734-0.329,7.221-0.899,10.168c-0.071,0.805-0.148,1.527-0.221,2.15v7.039  c0,1.846-1.497,3.344-3.345,3.344h-2.751c-1.848,0-3.343-1.498-3.343-3.344V92.51c-6.04,0.445-13.3,0.586-20.702,0.615H48.632z   M19.035,69.691c-0.111,2.23,2.521,4.588,5.879,5.262c3.357,0.678,6.17-0.584,6.281-2.812c0.113-2.23-2.519-4.588-5.878-5.264  C21.959,66.201,19.146,67.461,19.035,69.691z M66.368,76.852H30.562c1.176,2.469,8.743,4.375,17.904,4.375  C57.626,81.227,65.193,79.32,66.368,76.852z M77.992,69.691c-0.11-2.23-2.924-3.49-6.282-2.814s-5.991,3.033-5.878,5.264  c0.111,2.229,2.925,3.49,6.283,2.812C75.474,74.279,78.105,71.922,77.992,69.691z M23.976,45.088L23.51,57.484  c-0.054,2.859,3.213,4.16,25.005,4.229c21.789-0.068,25.055-1.369,25.004-4.229l-0.452-12.059c-0.985,0.299-2.029,0.463-3.112,0.463  c-3.291,0-6.232-1.494-8.186-3.834c-0.668,0.17-1.367,0.26-2.086,0.26c-2.07,0-3.966-0.744-5.437-1.979  c-1.517,0.74-3.232,1.154-5.031,1.154l-0.242-0.004l-0.197,0.004c-2.688,0-5.171-0.926-7.13-2.473  c-0.985,0.355-2.048,0.549-3.151,0.549c-0.239,0-0.477-0.01-0.71-0.027c-1.654,3.738-5.394,6.35-9.748,6.35  C26.6,45.889,25.227,45.604,23.976,45.088z M37.943,19.924c-1.668,0-3.14,0.84-4.016,2.125l-0.451,0.66l-0.721-0.35  c-0.678-0.332-1.438-0.516-2.246-0.516c-2.829,0-5.124,2.287-5.133,5.115l0.016,0.83l-0.562,0.248  c-1.309,0.586-2.433,1.518-3.248,2.684l-0.426,0.609l-0.689-0.287c-0.605-0.254-1.271-0.393-1.973-0.393  c-2.835,0-5.133,2.297-5.133,5.133s2.298,5.133,5.133,5.133c0.912,0,1.766-0.236,2.504-0.65l0.65-0.365l0.496,0.559  c1.443,1.627,3.547,2.65,5.892,2.65c3.661,0,6.739-2.5,7.622-5.885l0.234-0.904l0.902,0.244c0.541,0.145,1.109,0.223,1.699,0.223  c1.105,0,2.145-0.275,3.053-0.76l0.604-0.32l0.486,0.48c1.57,1.559,3.73,2.521,6.117,2.523l0.242-0.002l0.229,0.002  c1.785,0,3.441-0.535,4.82-1.455l0.702-0.467l0.53,0.652c1.044,1.279,2.628,2.094,4.405,2.094c0.855,0,1.663-0.188,2.389-0.523  l0.743-0.348l0.434,0.699c1.389,2.25,3.873,3.746,6.706,3.746c2.343,0,4.448-1.023,5.892-2.65l0.495-0.559l0.65,0.365  c0.74,0.414,1.594,0.65,2.506,0.65c2.834,0,5.132-2.297,5.132-5.133s-2.298-5.133-5.132-5.133c-0.274,0-0.545,0.021-0.807,0.062  l-0.731,0.115l-0.273-0.688c-0.685-1.717-2.32-2.953-4.251-3.057l-0.766-0.039l-0.101-0.762c-0.339-2.508-2.487-4.439-5.089-4.439  c-1.733,0-3.268,0.857-4.198,2.178l-0.439,0.623l-0.695-0.311c-0.809-0.361-1.705-0.561-2.65-0.561  c-0.981,0-1.909,0.217-2.743,0.604l-0.618,0.287l-0.458-0.504c-1.594-1.76-3.889-2.861-6.446-2.861l-0.234,0.004l-0.237-0.004  c-1.907,0-3.661,0.611-5.095,1.65l-0.883,0.641l-0.49-0.977C41.494,21.018,39.847,19.924,37.943,19.924z M58.488,7.656  c0,1.28,0.964,2.335,2.156,2.542c5.692,0.971,9.718,2.599,10.86,4.507H25.474c1.127-1.882,5.101-3.491,10.632-4.467  c1.202-0.186,2.146-1.273,2.146-2.562l0.007-6.9h20.229V7.656z"/>
</svg>