<svg xmlns="http://www.w3.org/2000/svg" xmlns:xlink="http://www.w3.org/1999/xlink" version="1.1" id="Layer_1" x="0px" y="0px" width="100px" height="100px" viewBox="0 0 100 100" enable-background="new 0 0 100 100" xml:space="preserve">
<path d="M45.244,20.864v-1.499h6.836v1.499H45.244z M45.244,18.433v-0.671h6.836v0.671H45.244z M24.656,20.864v-1.499h6.837v1.499  H24.656z M24.656,18.433v-0.671h6.837v0.671H24.656z M65.832,20.864v-1.499h6.836v1.499H65.832z M65.832,18.433v-0.671h6.836v0.671  H65.832z M57.527,29.46l-8.865,4.486l-8.867-4.486h5.448v-4.22h6.836v4.22H57.527z M45.244,24.249v-2.48h6.836v2.48H45.244z   M36.94,29.46l-8.865,4.486l-8.866-4.486h5.448v-4.22h6.837v4.22H36.94z M24.656,24.249v-2.48h6.837v2.48H24.656z M78.115,29.46  l-8.865,4.486l-8.865-4.486h5.447v-4.22h6.836v4.22H78.115z M65.832,24.249v-2.48h6.836v2.48H65.832z M58.609,7.655  c0,1.279,0.965,2.335,2.154,2.542c5.695,0.971,9.723,2.599,10.865,4.506H25.594c1.126-1.882,5.1-3.491,10.633-4.466  c1.201-0.187,2.146-1.273,2.146-2.562l0.006-6.9h20.229V7.655z M78.115,69.689c-0.111-2.23-2.924-3.49-6.283-2.814  c-3.359,0.678-5.99,3.033-5.879,5.264c0.111,2.232,2.926,3.49,6.283,2.814S78.227,71.922,78.115,69.689z M66.49,76.852H30.682  c1.175,2.471,8.743,4.375,17.904,4.375C57.748,81.227,65.314,79.322,66.49,76.852z M48.635,38.124  c-7.579,0.048-16.413,0.322-23.666,2.065c-0.644,0.123-0.719,0.8-0.719,0.8L23.63,57.48c-0.053,2.861,3.213,4.162,25.005,4.23  c21.792-0.068,25.058-1.369,25.005-4.23L73.02,40.988c0,0-0.074-0.677-0.719-0.8C65.049,38.445,56.213,38.171,48.635,38.124z   M19.155,69.689c-0.112,2.232,2.521,4.588,5.879,5.264c3.358,0.676,6.172-0.582,6.283-2.814c0.112-2.23-2.521-4.586-5.879-5.264  C22.079,66.199,19.267,67.459,19.155,69.689z M48.754,93.129l-1.992-0.002c-7.401-0.031-14.662-0.17-20.702-0.617v3.371  c0,1.848-1.497,3.344-3.344,3.344h-2.75c-1.847,0-3.344-1.496-3.344-3.344v-7.037c-0.071-0.627-0.147-1.348-0.222-2.15  c-0.567-2.951-0.896-6.436-0.896-10.17c0-4.736,0.528-9.072,1.404-12.424c0.173-0.762,0.385-1.443,0.623-2.049  c0.073-0.209,0.149-0.412,0.225-0.609l3.328-22.771c0,0,0.135-0.949,0.983-1.161c7.637-2.078,26.05-2.284,26.688-2.283  c0.639-0.001,19.052,0.205,26.687,2.283c0.85,0.212,0.984,1.161,0.984,1.161l3.326,22.771c0.076,0.197,0.152,0.4,0.227,0.609  c0.238,0.605,0.449,1.287,0.621,2.049c0.877,3.352,1.404,7.688,1.404,12.424c0,3.734-0.326,7.219-0.896,10.17  c-0.072,0.803-0.148,1.523-0.221,2.15v7.037c0,1.848-1.496,3.344-3.344,3.344h-2.752c-1.846,0-3.344-1.496-3.344-3.344V92.51  c-6.041,0.447-13.301,0.586-20.701,0.617L48.754,93.129z"/>
</svg>