<svg xmlns="http://www.w3.org/2000/svg" xmlns:xlink="http://www.w3.org/1999/xlink" version="1.1" id="Layer_1" x="0px" y="0px" width="100px" height="100px" viewBox="0 0 100 100" enable-background="new 0 0 100 100" xml:space="preserve">
<g>
	<path d="M38.97,21.595c-13.713,0-24.869,11.157-24.869,24.87c0,13.713,11.156,24.869,24.869,24.869   c13.712,0,24.869-11.156,24.869-24.869C63.839,32.751,52.683,21.595,38.97,21.595z"/>
	<path d="M38.97,14.283c-17.745,0-32.183,14.437-32.183,32.182c0,17.746,14.438,32.182,32.183,32.182   c17.746,0,32.183-14.436,32.183-32.182C71.153,28.72,56.716,14.283,38.97,14.283z M38.97,72.334   c-14.264,0-25.869-11.604-25.869-25.869c0-14.265,11.605-25.87,25.869-25.87c14.265,0,25.869,11.605,25.869,25.87   C64.839,60.73,53.235,72.334,38.97,72.334z"/>
</g>
<path fill="#000000" stroke="#FFFFFF" stroke-width="0.6" stroke-miterlimit="10" d="M55.425,40.708l-0.32,0.319  c1.137,1.137,1.148,2.969,0.037,4.123l-0.018,0.023l-1.975,1.955l-0.01,0.005c-1.15,1.149-3.013,1.149-4.161,0l-0.011-0.011  c-1.151-1.149-1.163-3.008-0.012-4.159l0.032-0.034c1.281-1.328,1.245-3.414-0.065-4.726l-0.011-0.01  c-0.692-0.694-1.611-1.021-2.519-0.989c0.032-0.909-0.295-1.828-0.988-2.521l-0.003,0.002l-0.964-0.965l-0.018-0.014  c-1.307-1.311-3.415-1.326-4.743-0.05c-1.33-1.255-3.425-1.235-4.728,0.065l-0.023,0.02c-1.319,1.328-1.289,3.457,0.034,4.779  l-0.005,0.005l2.083,2.083l-1.261,1.261l-4.359-4.358l0.001-0.001c-0.008-0.009-0.018-0.016-0.027-0.025l-0.012-0.012l-0.001,0  c-1.322-1.281-3.43-1.274-4.743,0.023l-0.022,0.021c-1.285,1.285-1.323,3.293-0.119,4.626L24.5,44.14l0.006,0.006  c-1.313,1.326-1.309,3.463,0.012,4.784l0.011,0.01c1.325,1.326,3.429,1.329,4.755,0.004l0.022-0.025  c1.311-1.322,1.339-3.481,0.028-4.804l-2.16-1.988c1.292-0.911,2.874-0.724,3.896,0.3l0.015,0.014  c1.294,1.278,3.346,1.286,4.673,0.06l0.924,0.924l0.018,0.012c1.036,1.034,2.573,1.245,3.846,0.657l0.044,0.057  c0.995,1.164,1.031,2.853-0.074,3.957l-0.029,0.033c-1.15,1.136-2.936,1.16-4.081,0.014l-0.043-0.039  c-1.333-1.176-3.364-1.13-4.639,0.145l-0.015,0.017c-1.326,1.323-1.352,3.453-0.025,4.777l0.009,0.012  c1.307,1.307,3.408,1.355,4.737,0.084l0.016-0.023l2.076-2.078c1.15-1.149,3.011-1.168,4.16-0.02l0.014,0.008  c0.146,0.137,0.314,0.293,0.424,0.396l2.122,2.078l0.021,0.027c1.105,1.154,1.088,2.943-0.047,4.078l-0.039,0.043  c-1.151,1.148-3.263,1.305-4.412,0.158l-0.019-0.016c-1.315-1.256-3.387-1.25-4.696,0.016l0,0l-0.004,0.004  c-0.013,0.012-0.037,0.037-0.037,0.037l-2.036,2.039l0.324,0.322l2.07-2.084c1.152-1.109,2.984-1.1,4.121,0.037l0.02,0.016  c1.331,1.268,3.685,1.1,4.991-0.205l0.035-0.037c1.322-1.322,1.344-3.443,0.021-4.77l-0.03-0.033l-1.263-1.262  c1.095,0.242,2.283-0.035,3.135-0.888l0.035-0.034c1.323-1.324,1.323-3.473,0-4.798l-0.012-0.012  c-1.321-1.321-3.462-1.324-4.788-0.01l-0.021,0.018c-1.055,1.055-1.257,2.603-0.632,3.871c-1.245-0.552-2.754-0.322-3.775,0.7  l-0.042,0.046l-1.987,1.972h-0.002c-1.148,1.148-3.011,1.148-4.16,0l-0.01-0.012c-1.15-1.148-1.127-2.988,0.024-4.134l0.017-0.024  c1.15-1.148,2.99-1.185,4.139-0.037l0.037,0.024c1.333,1.174,3.325,1.159,4.599-0.114l0.047-0.046  c1.247-1.262,1.217-3.245,0.082-4.574l4.561-4.469l0.053-0.05c0.422-0.483,0.684-1.056,0.786-1.653  c0.807-0.046,1.631,0.237,2.248,0.854l0.007,0.012c1.151,1.149,1.151,3.012,0,4.161l-0.031,0.026  c-1.281,1.33-1.233,3.421,0.078,4.732l0.008,0.01c1.298,1.297,3.38,1.353,4.71,0.111l0.018-0.014l2.078-2.079l-0.004-0.002  C56.747,44.139,56.737,42.019,55.425,40.708z M29,44.428l0.014,0.018c1.15,1.147,1.112,3.018-0.038,4.168l-0.017,0.014  c-1.15,1.139-2.966,1.141-4.111-0.005l-0.01-0.011c-1.15-1.15-1.15-3.012,0-4.16l-0.001-0.001l2.024-2.017L29,44.428z   M31.379,42.091l-0.004,0.004c-1.241-1.229-3.196-1.349-4.525-0.269c-1.066-1.152-1.031-2.865,0.078-3.989l0.012-0.01  c1.137-1.136,2.969-1.147,4.121-0.038l-0.005,0.005l4.386,4.386C34.285,43.236,32.496,43.208,31.379,42.091z M42.924,46.486  l0.018-0.017c1.15-1.149,3.012-1.149,4.162,0l0.011,0.009c1.15,1.151,1.15,3.014,0,4.164l-0.025,0.029  c-0.984,0.987-2.739,1.122-3.63,0.403c0,0-0.255-0.255-0.475-0.476C42.129,49.741,41.787,47.636,42.924,46.486z M39.694,34.343  c0.792,1.032,0.807,2.465,0.047,3.513C38.947,36.824,38.933,35.392,39.694,34.343z M35.279,38.203  c-1.15-1.15-1.172-3.003-0.021-4.152l0.017-0.016c1.136-1.128,2.961-1.141,4.112-0.034c-0.956,1.238-0.94,2.984,0.052,4.206  l-2.078,2.078L35.279,38.203z M37.03,43.118l-0.023-0.019l-0.908-0.908l1.261-1.261l2.828,2.829  C39.13,44.177,37.886,43.974,37.03,43.118z M45.182,39.056l-4.566,4.461l-2.932-2.91l2.069-2.069  c1.331,1.261,3.43,1.242,4.731-0.061l-0.007-0.007c0.402-0.386,0.888-0.636,1.398-0.749C45.768,38.206,45.536,38.667,45.182,39.056z   M45.939,37.25c-0.668,0.114-1.311,0.427-1.827,0.943l0.007,0.007c-1.137,1.091-2.933,1.09-4.072,0  c0.957-1.242,0.94-2.992-0.056-4.21c0.001-0.001,0.002-0.002,0.003-0.003l-0.006-0.006c1.154-1.104,2.979-1.091,4.113,0.043  l0.012,0.006l1.044,1.049l0.021,0.026C45.729,35.709,45.983,36.485,45.939,37.25z"/>
<polygon points="84.546,36.944 58.894,87.158 58.487,86.959 82.513,35.947 "/>
<polygon points="94.878,43.31 61.153,88.502 60.786,88.236 93.04,41.985 "/>
</svg>