<svg xmlns="http://www.w3.org/2000/svg" xmlns:xlink="http://www.w3.org/1999/xlink" version="1.1" id="Layer_1" x="0px" y="0px" width="64.7058823529px" height="100px" viewBox="0 0 792 1224" enable-background="new 0 0 792 1224" xml:space="preserve">
<g>
	<path fill-rule="evenodd" clip-rule="evenodd" fill="#000000" d="M281.571,233.042c2.999-0.524,6.969-0.076,10.342-0.225   c-1.422,2.026-2.652,4.243-4.272,6.071c-0.506-0.081-0.888,0.108-1.349,0C284.633,238.494,283.002,234.076,281.571,233.042z"/>
	<path fill-rule="evenodd" clip-rule="evenodd" fill="#000000" d="M285.393,239.336c-1.301,0.466-1.867-1.312-2.473-2.248   c-0.686-1.058-1.424-2.258-2.023-3.147c-0.119-0.181-0.235-0.365-0.225-0.675c0.819-0.022,2.013,1.733,2.698,2.698   C284.228,237.174,284.979,238.521,285.393,239.336z"/>
	<path fill-rule="evenodd" clip-rule="evenodd" fill="#000000" d="M292.361,233.042c0.22,0.006,0.176,0.275,0.226,0.45   c-0.102,1.251-1.174,2.185-1.799,3.147c-0.594,0.915-0.875,2.555-2.473,2.473C289.461,236.885,290.962,235.014,292.361,233.042z"/>
	<path fill-rule="evenodd" clip-rule="evenodd" fill="#000000" d="M280.897,234.84c0.956,1.667,2.322,2.923,2.922,4.946   c-1.249,0.092-1.965,0.315-2.922-0.225C280.897,237.988,280.897,236.414,280.897,234.84z"/>
	<path fill-rule="evenodd" clip-rule="evenodd" fill="#000000" d="M292.361,235.064c0.491,1.4,0.076,3.531,0.45,4.497   c-0.73,0.39-2.059-0.255-3.147-0.225C290.531,237.88,291.646,236.672,292.361,235.064z"/>
	<path fill-rule="evenodd" clip-rule="evenodd" fill="#000000" d="M287.866,239.561c0.2,0.175,0.508,0.242,0.899,0.225   C288.724,240.438,287.697,240.328,287.866,239.561z"/>
	<path fill-rule="evenodd" clip-rule="evenodd" fill="#000000" d="M287.866,240.91c-0.652-0.247-1.595-0.204-2.248-0.45   C286.18,239.585,287.837,239.647,287.866,240.91z"/>
	<path fill-rule="evenodd" clip-rule="evenodd" fill="#000000" d="M290.788,240.46c-0.925-0.177-1.153,0.345-2.023,0.225   C288.679,240.021,290.721,239.523,290.788,240.46z"/>
	<path fill-rule="evenodd" clip-rule="evenodd" fill="#000000" d="M286.067,241.809c-5.467,6.823-11.33,13.25-16.637,20.234   c-0.593-0.605,0.423-1.787,0.899-2.698c0.513-0.983,1.091-2.173,1.574-2.922c0.597-0.002,1.284,0.084,1.574-0.225   c0.023-0.697-0.707-0.641-0.45-1.573c3.949-4.444,7.852-8.935,11.69-13.489C285.514,241.013,285.271,241.931,286.067,241.809z"/>
	<path fill-rule="evenodd" clip-rule="evenodd" fill="#000000" d="M279.548,235.964c0.871,0.777,0.376,2.921,0.899,4.047   c-1.348,1.135-2.06,2.906-2.922,4.497c-0.854,1.574-1.68,3.151-2.473,4.721C275.739,245.963,278.341,240.45,279.548,235.964z"/>
	<path fill-rule="evenodd" clip-rule="evenodd" fill="#000000" d="M293.261,239.561c0.125-1.075,0.139-2.259,0.45-3.147   c1.811,3.51,2.869,7.773,4.722,11.241c-0.043,0.255-0.226,0.125-0.226,0C296.442,245.073,295.319,241.85,293.261,239.561z"/>
	<path fill-rule="evenodd" clip-rule="evenodd" fill="#000000" d="M280.222,240.91c1.774,0.002,2.433-0.22,4.046,0   c-3.373,4.121-6.991,7.997-10.341,12.14C275.552,249.429,278.381,245.064,280.222,240.91z"/>
	<path fill-rule="evenodd" clip-rule="evenodd" fill="#000000" d="M289.439,241.359c1.413-0.161,2.601-0.546,4.047-0.674   c2.225,4.22,4.341,8.548,6.969,12.365c-1.11-0.392-2.025-1.539-2.922-2.473C294.863,247.798,291.98,244.439,289.439,241.359z"/>
	<path fill-rule="evenodd" clip-rule="evenodd" fill="#000000" d="M288.315,241.585c1.277,0.519,2.051,1.748,2.922,2.697   c2.545,2.772,5.324,5.701,7.869,8.768c0.702,0.124,0.968,0.682,1.574,0.899c0.461,0.838-0.02,1.473-0.45,2.024   c0.741,0.379,1.437,0.133,2.248,0c0.491,2.206,2.084,3.311,2.473,5.62C299.264,255.067,293.598,248.517,288.315,241.585z"/>
	<path fill-rule="evenodd" clip-rule="evenodd" fill="#000000" d="M298.433,245.856c-0.278-0.922,0.43,0.801,0.674,1.349   c0.937,2.099,1.931,5.087,2.923,6.969c0.151,0.824-0.727-0.788-0.899-1.125C300.064,250.975,299.167,247.981,298.433,245.856z"/>
	<path fill-rule="evenodd" clip-rule="evenodd" fill="#000000" d="M273.927,249.228c-0.488,2.436-1.699,6.094-3.147,8.318   C271.483,255.326,272.942,251.916,273.927,249.228z"/>
	<path fill-rule="evenodd" clip-rule="evenodd" d="M315.466,202.717c-1.612,7.254,0.385,18.931-2.435,24.35   c-3.044,5.853-10.429,5.307-19.175,6.391c4.67,10.721,9.023,21.905,13.697,32.872c1.54,3.617,3.461,6.938,4.261,10.652   c-0.711,0.095-1.257,0.597-1.826,0c-1.433-0.497,1.139-1.628,0-3.043c-8.915-8.739-16.033-19.275-24.655-28.306   c-2.805,1.265-4.179,4.197-6.087,6.392c-4.639,5.341-9.232,11.042-14,16.74c-1.661,1.984-3.271,3.883-5.479,5.479   c-0.944,1.612,1.034,2.148,0.305,3.348c-0.711,0-1.421,0-2.132,0c-0.894-1.044,1.042-1.212,0.913-2.435   c4.809-14.366,10.761-27.59,16.132-41.394c-7.27-1.515-14.675-0.481-18.261-5.479c-4.283-5.966-0.745-17.466-3.653-25.567   c3.138-1.104,5.832-1.102,8.217-2.131c8.131-3.503,9.503-11.476,19.785-12.479c9.757-0.952,14.851,3.073,19.48,7.609   C304.464,199.549,308.263,201.637,315.466,202.717z M283.812,241.677c0.624,0.147,1.142-0.109,1.827,0   c2.192-2.475,3.857-5.477,5.784-8.219c-4.567,0.202-9.943-0.404-14.002,0.305C279.358,235.163,281.566,241.145,283.812,241.677z    M279.856,237.72c-0.927-1.307-2.543-3.683-3.652-3.653c-0.013,0.419,0.144,0.668,0.305,0.914c0.809,1.204,1.811,2.829,2.738,4.261   c0.821,1.267,1.588,3.675,3.349,3.043C282.035,241.181,281.017,239.357,279.856,237.72z M286.551,241.98   c2.163,0.111,2.544-2.109,3.348-3.348c0.846-1.304,2.298-2.567,2.436-4.261c-0.068-0.236-0.008-0.601-0.306-0.609   C290.135,236.434,288.104,238.967,286.551,241.98z M276.508,242.589c1.296,0.73,2.265,0.428,3.956,0.304   c-0.813-2.739-2.663-4.439-3.956-6.696C276.508,238.329,276.508,240.459,276.508,242.589z M288.379,242.285   c1.473-0.042,3.271,0.832,4.259,0.304c-0.507-1.308,0.056-4.192-0.609-6.088C291.061,238.678,289.55,240.313,288.379,242.285z    M268.594,255.677c1.074-2.125,2.192-4.26,3.348-6.391c1.167-2.153,2.132-4.551,3.956-6.087c-0.707-1.524-0.038-4.427-1.217-5.479   C273.048,243.792,269.525,251.256,268.594,255.677z M299.943,253.547c0,0.169,0.248,0.346,0.306,0   c-2.51-4.694-3.942-10.467-6.393-15.218c-0.421,1.201-0.441,2.806-0.61,4.26C296.034,245.688,297.555,250.052,299.943,253.547z    M287.16,242.894c-0.529,0.023-0.947-0.067-1.217-0.304C285.713,243.628,287.104,243.776,287.16,242.894z M282.9,243.807   c0.883,0.333,2.161,0.275,3.043,0.609C285.903,242.706,283.66,242.622,282.9,243.807z M287.16,244.111   c1.178,0.163,1.486-0.544,2.739-0.304C289.809,242.538,287.043,243.211,287.16,244.111z M267.071,260.851   c4.537-5.609,9.435-10.855,14.001-16.435c-2.185-0.298-3.077,0.002-5.479,0C273.102,250.039,269.271,255.949,267.071,260.851z    M299.031,257.503c1.215,1.264,2.452,2.818,3.957,3.348c-3.56-5.167-6.424-11.027-9.436-16.74c-1.959,0.174-3.566,0.695-5.48,0.913   C291.514,249.194,295.416,253.741,299.031,257.503z M281.681,244.72c-5.196,6.166-10.48,12.245-15.827,18.262   c-0.348,1.263,0.641,1.187,0.608,2.131c-0.392,0.418-1.322,0.302-2.131,0.305c-0.653,1.014-1.436,2.625-2.13,3.956   c-0.645,1.234-2.02,2.833-1.218,3.653c7.185-9.456,15.123-18.157,22.524-27.394C282.429,245.798,282.76,244.555,281.681,244.72z    M309.075,272.418c-0.526-3.127-2.684-4.623-3.348-7.609c-1.099,0.18-2.041,0.513-3.043,0c0.581-0.747,1.232-1.606,0.607-2.741   c-0.821-0.293-1.182-1.049-2.131-1.217c-3.445-4.152-7.208-8.117-10.654-11.87c-1.179-1.286-2.226-2.949-3.956-3.651   C293.704,254.714,301.374,263.582,309.075,272.418z M303.9,260.851c0.234,0.456,1.423,2.638,1.219,1.523   c-1.344-2.548-2.689-6.594-3.958-9.436c-0.331-0.742-1.288-3.075-0.912-1.826C301.243,253.989,302.458,258.042,303.9,260.851z    M262.812,266.939c1.958-3.012,3.6-7.964,4.259-11.262C265.739,259.315,263.763,263.933,262.812,266.939z"/>
</g>
</svg>