<svg xmlns="http://www.w3.org/2000/svg" xmlns:xlink="http://www.w3.org/1999/xlink" version="1.1" id="Layer_1" x="0px" y="0px" width="100px" height="100px" viewBox="0 0 100 100" enable-background="new 0 0 100 100" xml:space="preserve">
<path fill="#000000" d="M49.846,3.53C24.049,3.53,3.137,24.443,3.137,50.24c0,25.797,20.913,46.709,46.709,46.709  c25.798,0,46.71-20.912,46.71-46.709C96.556,24.443,75.644,3.53,49.846,3.53z M73.171,18.963l0.646-1.024  c1.571,1.17,3.063,2.458,4.467,3.862c1.364,1.364,2.62,2.812,3.763,4.335l-1.066,0.667l0.098,0.157L59.332,40.557l13.682-21.692  L73.171,18.963z M62.368,13.32l0.466-1.156c0.897,0.307,1.786,0.644,2.664,1.015c2.625,1.11,5.103,2.485,7.414,4.108l-0.683,1.083  l0.157,0.099L57.884,41.462l-5.444,3.404l-0.422-6.408l10.178-25.208L62.368,13.32z M44.788,49.831  c-0.011,0.135-0.018,0.271-0.018,0.409c0,0.588,0.101,1.153,0.286,1.678l-0.065,0.103l-5.269-0.366l4.905-1.958L44.788,49.831z   M40.717,45.449l5.119,1.299l0.072,0.289c-0.408,0.501-0.723,1.082-0.916,1.714l-0.229,0.091L40.717,45.449z M45.381,52.792  l0.082,0.006c0.39,0.668,0.928,1.239,1.57,1.667l-4.469,2.794L45.381,52.792z M46.754,46.216l-0.305-0.078l-1.279-5.125l3.378,4.061  l-0.118,0.292C47.815,45.544,47.248,45.835,46.754,46.216z M49.846,55.316c0.085,0,0.171-0.003,0.255-0.007l-1.943,4.813  l-0.343-5.231C48.436,55.164,49.123,55.316,49.846,55.316z M49.878,51.369c-0.604,0-1.093-0.49-1.093-1.093  c0-0.603,0.489-1.092,1.093-1.092c0.603,0,1.092,0.489,1.092,1.092C50.971,50.879,50.481,51.369,49.878,51.369z M49.846,45.164  c-0.084,0-0.169,0.002-0.253,0.006l-0.191-0.23l1.978-4.897l0.347,5.27l-0.212,0.132C50.991,45.264,50.43,45.164,49.846,45.164z   M53.111,54.125l1.255,5.027l-3.312-3.982C51.823,54.982,52.523,54.619,53.111,54.125z M54.501,48.215l0.044-0.07l5.269,0.367  l-4.897,1.955c0.004-0.076,0.007-0.151,0.007-0.228C54.923,49.52,54.771,48.836,54.501,48.215z M58.818,54.718l-5.033-1.277  c0.488-0.601,0.841-1.313,1.014-2.094L58.818,54.718z M54.155,47.375l-0.126-0.009c-0.4-0.582-0.919-1.076-1.521-1.448l-0.014-0.211  l4.478-2.799L54.155,47.375z M50.336,10.028c3.921,0.046,7.752,0.645,11.438,1.79l-0.438,1.086l0.172,0.07l-9.603,23.781  l-1.681-25.592l0.186-0.012L50.336,10.028z M49.221,10.029l0.079,1.194l0.185-0.012l1.782,27.127l-2.404,5.955l-4.107-4.937  L38.173,12.98l0.18-0.044l-0.291-1.163C41.663,10.67,45.399,10.087,49.221,10.029z M34.193,13.179  c0.925-0.391,1.861-0.746,2.807-1.065l0.272,1.09l0.18-0.045l6.21,24.884L27.261,18.328l0.143-0.119l-0.715-0.859  C29.027,15.699,31.535,14.304,34.193,13.179z M21.407,21.801c1.377-1.377,2.839-2.644,4.379-3.796l0.762,0.916l0.143-0.119  l17.387,20.898l1.555,6.23l-6.224-1.58L18.579,26.882l0.119-0.142l-0.923-0.773C18.884,24.505,20.095,23.114,21.407,21.801z   M12.786,34.587c1.16-2.742,2.608-5.324,4.327-7.724l0.87,0.73l0.119-0.142l19.651,16.48l-24.859-6.31l0.045-0.179l-1.135-0.289  C12.102,36.29,12.427,35.434,12.786,34.587z M11.455,38.213l1.21,0.308l0.046-0.18l26.35,6.688l4.92,4.126l-5.963,2.38l-27.12-1.89  l0.013-0.185l-1.272-0.088C9.718,45.549,10.328,41.812,11.455,38.213z M9.631,50.487l1.203,0.083l0.013-0.185l25.585,1.783  l-23.82,9.507l-0.069-0.172l-1.178,0.47C10.236,58.271,9.654,54.423,9.631,50.487z M12.786,65.893  c-0.45-1.064-0.849-2.144-1.204-3.234l0.078,0.196l0.069,0.172l1.226-0.489l-0.068-0.172l25.249-10.078l6.406,0.446l-3.425,5.431  L18.064,72.576l-0.099-0.157l-1.12,0.7l0.295,0.472l0.197,0.314l0.09,0.144C15.57,71.527,14.016,68.8,12.786,65.893z M78.284,78.678  c-3.695,3.696-7.997,6.597-12.786,8.622c-4.953,2.095-10.22,3.158-15.652,3.158c-5.432,0-10.698-1.063-15.652-3.158  c-4.789-2.025-9.09-4.926-12.786-8.622c-1.447-1.447-2.771-2.989-3.97-4.615l1.119-0.7l-0.098-0.157l21.747-13.596L26.522,81.302  l-0.157-0.099l-0.705,1.116l0.471,0.297l0.314,0.198l0.156,0.099l0.705-1.117l-0.157-0.099l14.504-22.994l5.444-3.403l0.421,6.407  L37.34,86.915l-0.172-0.069l-0.494,1.225l0.516,0.208l0.345,0.14l0.171,0.069l0.495-1.225l-0.172-0.07l9.602-23.781l1.681,25.592  l-0.185,0.012l0.087,1.318l0.185-0.013l0.37-0.024l0.556-0.035l-0.087-1.318l-0.185,0.013l-1.782-27.128l2.404-5.954l4.107,4.937  l6.583,26.377l-0.18,0.045l0.319,1.28l0.18-0.044l0.72-0.18l0.181-0.046l-0.319-1.281l-0.18,0.046l-6.212-24.885l16.403,19.717  l-0.143,0.118l0.845,1.015l0.427-0.355l0.285-0.236l0.143-0.12l-0.845-1.015l-0.142,0.119L55.459,60.465l-1.556-6.229l6.224,1.579  l20.83,17.47l-0.119,0.143l1.012,0.848l0.357-0.426l0.239-0.284l0.118-0.142l-1.011-0.849l-0.12,0.142l-19.651-16.48l24.86,6.31  l-0.047,0.18l1.28,0.324l0.137-0.539l0.091-0.36l0.047-0.18l-1.28-0.324l-0.046,0.18l-26.35-6.688l-4.92-4.126l5.964-2.38  l27.12,1.889l-0.014,0.186l1.317,0.091l0.038-0.555l0.026-0.37l0.013-0.186l-1.317-0.091l-0.013,0.185l-25.585-1.783l23.82-9.507  l0.068,0.172l1.227-0.489l-0.068-0.172l-0.276-0.688l-0.068-0.173l-1.227,0.49l0.068,0.172L61.4,47.879l-6.405-0.447l3.426-5.431  L81.472,27.59l0.099,0.157l1.119-0.7l-0.146-0.233c1.734,2.415,3.194,5.012,4.362,7.773c2.095,4.954,3.158,10.221,3.158,15.653  c0,5.433-1.063,10.699-3.158,15.653C84.881,70.681,81.98,74.982,78.284,78.678z"/>
<path fill="#000000" d="M49.846,0.778c-27.316,0-49.461,22.145-49.461,49.461s22.145,49.461,49.461,49.461  S99.307,77.557,99.307,50.24S77.162,0.778,49.846,0.778z M83.377,83.771c-4.355,4.355-9.427,7.775-15.073,10.164  c-5.845,2.472-12.055,3.725-18.458,3.725c-6.402,0-12.613-1.253-18.458-3.725c-5.646-2.389-10.718-5.809-15.074-10.164  c-4.356-4.356-7.776-9.427-10.164-15.074C3.678,62.853,2.425,56.643,2.425,50.24c0-6.402,1.253-12.613,3.726-18.458  c2.388-5.646,5.808-10.718,10.164-15.074c4.355-4.356,9.427-7.775,15.074-10.164c5.845-2.473,12.055-3.726,18.458-3.726  c6.403,0,12.613,1.253,18.458,3.726c5.646,2.388,10.718,5.808,15.073,10.164c4.356,4.355,7.775,9.428,10.164,15.074  c2.472,5.845,3.726,12.056,3.726,18.458c0,6.403-1.254,12.613-3.726,18.458C91.152,74.345,87.733,79.415,83.377,83.771z"/>
</svg>