<svg xmlns="http://www.w3.org/2000/svg" xmlns:xlink="http://www.w3.org/1999/xlink" version="1.1" id="Layer_1" x="0px" y="0px" width="81.525px" height="100px" viewBox="0 0 81.525 100" style="enable-background:new 0 0 81.525 100;" xml:space="preserve">
<path style="fill:#231F20;" d="M45.493,37.024H19.749v2.699h25.744V37.024z M45.493,45.581H19.749v2.699h25.744V45.581z   M45.493,53.833H19.749v2.704h25.744V53.833z M45.493,71.245H19.749v2.699h25.744V71.245z M45.493,62.39H19.749v2.703h25.744V62.39z   M65.169,10.851h-4.973L63.189,0h-5.415l-2.993,10.851H44.97L47.965,0H42.55l-2.995,10.851h-9.812L32.738,0h-5.412L24.33,10.851  h-9.814L17.511,0h-5.412L9.103,10.851H0V100h65.616v-14.71h15.909L65.169,10.851z M57.513,91.896H8.103v-72.94h49.41V91.896z"/>
</svg>