<svg xmlns="http://www.w3.org/2000/svg" xmlns:xlink="http://www.w3.org/1999/xlink" version="1.1" id="Layer_1" x="0px" y="0px" width="100px" height="100px" viewBox="0 0 100 100" enable-background="new 0 0 100 100" xml:space="preserve">
<g>
	<g>
		<path d="M1.229,54.863l7.505,1.085c0.444-4.16,3.964-7.401,8.243-7.401c4.297,0,7.83,3.27,8.248,7.458h51.792    c0.416-4.188,3.948-7.458,8.246-7.458c4.299,0,7.831,3.27,8.248,7.458h6.095l-2.106-11.142L70.83,43.459l-6.36-8.422h-43.24    l-3.86,7.632L0.701,44.074C-1.082,46.2,1.227,54.864,1.229,54.863z M51.772,36.64H63.64l5.764,7.632H51.772V36.64z M37.962,36.64    l12.209-0.001v7.631h-9.394l-2.816,0.001V36.64z M21.361,44.27l3.861-7.631h11.14v7.631H21.361z"/>
	</g>
	<g>
		<path d="M10,56.837c0,3.852,3.122,6.974,6.975,6.974c3.852,0,6.974-3.122,6.974-6.974c0-3.853-3.123-6.974-6.974-6.974    C13.123,49.863,10,52.984,10,56.837z M12.369,56.837c0-2.543,2.062-4.605,4.606-4.605c2.542,0,4.605,2.062,4.605,4.605    c0,2.545-2.063,4.606-4.605,4.606C14.431,61.443,12.369,59.382,12.369,56.837z"/>
	</g>
	<g>
		<path d="M78.287,56.837c0,3.852,3.122,6.974,6.974,6.974c3.853,0,6.975-3.122,6.975-6.974c0-3.853-3.122-6.974-6.975-6.974    C81.409,49.863,78.287,52.984,78.287,56.837z M80.656,56.837c0-2.543,2.061-4.605,4.604-4.605s4.605,2.062,4.605,4.605    c0,2.545-2.062,4.606-4.605,4.606S80.656,59.382,80.656,56.837z"/>
	</g>
</g>
</svg>