<svg xmlns="http://www.w3.org/2000/svg" xmlns:xlink="http://www.w3.org/1999/xlink" version="1.1" id="_x30_" x="0px" y="0px" width="100px" height="100px" viewBox="0 0 100 100" enable-background="new 0 0 100 100" xml:space="preserve">
<g id="HATCH">
</g>
<g id="HATCH_2_">
	<polygon fill-rule="evenodd" clip-rule="evenodd" points="0.562,65.007 0.5,65.007 0.5,69.335 0.562,69.335 0.624,69.335    0.685,69.335 0.747,69.335 0.81,69.335 0.87,69.335 0.932,69.335 0.995,69.335 1.057,69.335 1.118,69.335 1.18,69.335    1.242,69.335 1.303,69.335 1.365,69.335 1.428,69.214 1.489,69.214 1.551,69.214 1.613,69.214 1.675,69.214 1.737,69.214    1.798,69.214 1.861,69.214 1.922,69.214 1.983,69.214 2.045,69.214 2.107,69.089 2.169,69.089 2.169,69.089 2.23,69.089    2.293,69.089 2.355,69.089 2.416,69.089 2.478,69.089 2.54,68.966 2.54,68.966 2.603,68.966 2.664,68.966 2.726,68.966    2.788,68.966 2.849,68.842 2.849,68.842 2.911,68.842 2.974,68.842 3.035,68.842 3.097,68.718 3.097,68.718 3.158,68.718    3.22,68.718 3.282,68.595 3.344,68.595 3.406,68.595 3.468,68.595 3.53,68.471 3.592,68.471 3.653,68.471 3.715,68.348    3.777,68.348 3.839,68.348 3.962,68.348 4.025,68.224 4.087,68.224 4.21,68.224 4.271,68.224 4.333,68.1 4.458,68.1 4.52,68.1    4.643,68.1 4.706,68.1 4.828,67.976 4.89,67.976 5.014,67.976 5.076,67.976 5.199,67.976 5.323,67.976 5.385,67.976 5.508,67.976    5.632,67.976 5.756,67.976 5.818,67.976 5.941,67.976 6.065,67.976 6.188,67.976 6.312,67.976 6.436,67.976 6.499,67.976    6.621,67.976 6.745,67.976 6.869,68.1 6.994,68.1 7.116,68.1 7.239,68.224 7.364,68.224 7.488,68.224 7.611,68.348 7.734,68.348    7.858,68.471 8.044,68.471 8.167,68.595 8.292,68.595 8.415,68.718 8.539,68.718 8.662,68.842 8.786,68.842 8.91,68.842    9.034,68.966 9.157,68.966 9.279,68.966 9.404,69.089 9.528,69.089 9.652,69.089 9.774,69.214 9.899,69.214 10.023,69.214    10.146,69.214 10.27,69.335 10.394,69.335 10.517,69.335 10.641,69.335 10.765,69.335 10.889,69.335 11.012,69.335 11.073,69.335    11.197,69.335 11.321,69.335 11.444,69.335 11.569,69.335 11.692,69.335 11.815,69.335 11.878,69.335 12.002,69.335 12.125,69.335    12.249,69.214 12.372,69.214 12.496,69.214 12.558,69.214 12.681,69.214 12.805,69.089 12.929,69.089 13.053,69.089 13.114,68.966    13.238,68.966 13.361,68.966 13.486,68.842 13.608,68.842 13.671,68.718 13.795,68.718 13.917,68.718 14.042,68.595 14.104,68.595    14.228,68.471 14.351,68.471 14.475,68.348 14.537,68.348 14.661,68.348 14.723,68.224 14.846,68.224 14.97,68.224 15.031,68.1    15.155,68.1 15.216,68.1 15.341,68.1 15.403,67.976 15.526,67.976 15.588,67.976 15.711,67.976 15.774,67.976 15.896,67.976    15.958,67.853 16.083,67.853 16.144,67.853 16.207,67.853 16.329,67.853 16.392,67.853 16.515,67.853 16.639,67.853 16.702,67.853    16.824,67.853 16.887,67.853 17.01,67.976 17.072,67.976 17.196,67.976 17.319,67.976 17.38,67.976 17.504,67.976 17.629,68.1    17.752,68.1 17.875,68.1 17.937,68.1 18.062,68.224 18.186,68.224 18.309,68.224 18.433,68.348 18.557,68.348 18.68,68.471    18.804,68.471 18.989,68.595 19.113,68.595 19.236,68.718 19.36,68.718 19.484,68.842 19.608,68.842 19.73,68.842 19.854,68.966    19.978,68.966 20.163,68.966 20.288,69.089 20.411,69.089 20.535,69.089 20.658,69.089 20.782,69.214 20.906,69.214 21.029,69.214    21.153,69.214 21.276,69.214 21.4,69.214 21.525,69.335 21.648,69.335 21.833,69.335 21.958,69.335 22.081,69.335 22.205,69.335    22.328,69.335 22.452,69.335 22.575,69.214 22.7,69.214 22.823,69.214 22.946,69.214 23.07,69.214 23.193,69.214 23.318,69.214    23.379,69.089 23.503,69.089 23.626,69.089 23.751,69.089 23.874,68.966 23.998,68.966 24.121,68.966 24.244,68.842 24.368,68.842    24.493,68.842 24.554,68.718 24.677,68.718 24.801,68.595 24.926,68.595 24.926,68.595 25.049,68.471 25.234,68.471 25.358,68.348    25.482,68.348 25.605,68.348 25.729,68.224 25.791,68.224 25.916,68.224 26.039,68.1 26.162,68.1 26.286,68.1 26.348,68.1    26.472,67.976 26.594,67.976 26.719,67.976 26.781,67.976 26.904,67.976 26.966,67.976 27.089,67.976 27.214,67.853 27.275,67.853    27.399,67.853 27.46,67.853 27.584,67.853 27.646,67.853 27.77,67.853 27.832,67.976 27.955,67.976 28.017,67.976 28.141,67.976    28.203,67.976 28.327,67.976 28.389,67.976 28.512,68.1 28.573,68.1 28.698,68.1 28.759,68.1 28.883,68.224 28.944,68.224    29.068,68.224 29.13,68.224 29.254,68.348 29.377,68.348 29.439,68.471 29.562,68.471 29.687,68.471 29.749,68.595 29.872,68.595    29.995,68.718 30.12,68.718 30.182,68.842 30.305,68.842 30.429,68.842 30.552,68.966 30.676,68.966 30.738,69.089 30.862,69.089    30.985,69.089 31.108,69.089 31.233,69.214 31.356,69.214 31.418,69.214 31.541,69.214 31.666,69.335 31.79,69.335 31.913,69.335    32.036,69.335 32.098,69.335 32.222,69.335 32.346,69.335 32.469,69.335 32.593,69.335 32.717,69.335 32.841,69.335 32.903,69.335    33.026,69.335 33.149,69.335 33.273,69.335 33.396,69.335 33.521,69.335 33.644,69.214 33.768,69.214 33.891,69.214 34.016,69.214    34.139,69.214 34.263,69.089 34.386,69.089 34.509,69.089 34.634,68.966 34.757,68.966 34.881,68.966 35.004,68.842 35.128,68.842    35.252,68.718 35.375,68.718 35.499,68.595 35.623,68.595 35.809,68.471 35.932,68.471 36.056,68.348 36.179,68.348 36.304,68.224    36.426,68.224 36.551,68.224 36.674,68.1 36.798,68.1 36.921,68.1 37.045,68.1 37.169,67.976 37.292,67.976 37.354,67.976    37.478,67.976 37.602,67.976 37.725,67.976 37.85,67.976 37.972,67.976 38.034,67.976 38.158,67.976 38.282,67.976 38.343,67.976    38.467,67.976 38.591,67.976 38.653,67.976 38.776,67.976 38.9,67.976 38.963,67.976 39.086,68.1 39.147,68.1 39.271,68.1    39.333,68.1 39.396,68.1 39.519,68.224 39.58,68.224 39.642,68.224 39.766,68.224 39.828,68.348 39.89,68.348 40.014,68.348    40.076,68.348 40.137,68.471 40.198,68.471 40.26,68.471 40.322,68.471 40.385,68.595 40.447,68.595 40.508,68.595 40.57,68.718    40.632,68.718 40.693,68.718 40.755,68.718 40.755,68.842 40.817,68.842 40.879,68.842 40.94,68.842 41.003,68.842 41.003,68.966    41.064,68.966 41.125,68.966 41.188,68.966 41.25,68.966 41.25,68.966 41.312,69.089 41.374,69.089 41.436,69.089 41.498,69.089    41.559,69.089 41.621,69.089 41.621,69.089 41.683,69.089 41.745,69.214 41.806,69.214 41.869,69.214 41.931,69.214 41.992,69.214    42.054,69.214 42.116,69.214 42.177,69.214 42.239,69.214 42.301,69.214 42.363,69.214 42.426,69.335 42.488,69.335 42.548,69.335    42.61,69.335 42.671,69.335 42.734,69.335 42.796,69.335 42.858,69.335 42.92,69.335 42.981,69.335 43.043,69.335 43.167,69.335    43.229,69.335 43.291,69.335 43.353,69.335 43.353,69.335 43.353,69.335 43.415,69.335 43.476,69.335 43.538,69.335 43.6,69.335    43.662,69.335 43.723,69.335 43.785,69.335 43.848,69.335 43.909,69.335 43.971,69.335 44.034,69.335 44.094,69.335 44.156,69.335    44.218,69.335 44.281,69.214 44.341,69.214 44.404,69.214 44.465,69.214 44.528,69.214 44.589,69.214 44.651,69.214 44.713,69.214    44.774,69.214 44.836,69.214 44.898,69.214 44.961,69.089 45.022,69.089 45.084,69.089 45.084,69.089 45.146,69.089 45.208,69.089    45.269,69.089 45.332,69.089 45.394,68.966 45.455,68.966 45.455,68.966 45.517,68.966 45.579,68.966 45.64,68.966 45.702,68.842    45.702,68.842 45.765,68.842 45.826,68.842 45.889,68.842 45.95,68.718 45.95,68.718 46.011,68.718 46.072,68.718 46.135,68.595    46.197,68.595 46.259,68.595 46.322,68.595 46.381,68.471 46.444,68.471 46.506,68.471 46.567,68.348 46.629,68.348 46.754,68.348    46.815,68.348 46.877,68.224 46.939,68.224 47.063,68.224 47.124,68.224 47.186,68.1 47.311,68.1 47.372,68.1 47.494,68.1    47.557,68.1 47.681,67.976 47.743,67.976 47.867,67.976 47.99,67.976 48.052,67.976 48.176,67.976 48.3,67.976 48.361,67.976    48.485,67.976 48.608,67.976 48.733,67.976 48.794,67.976 48.918,67.976 49.041,67.976 49.164,67.976 49.29,67.976 49.413,67.976    49.535,67.976 49.598,67.976 49.721,68.1 49.846,68.1 49.968,68.1 50.093,68.224 50.216,68.224 50.34,68.224 50.463,68.348    50.587,68.348 50.773,68.471 50.897,68.471 51.021,68.595 51.146,68.595 51.267,68.718 51.392,68.718 51.517,68.842 51.638,68.842    51.764,68.842 51.887,68.966 52.009,68.966 52.133,68.966 52.256,69.089 52.381,69.089 52.505,69.089 52.628,69.214 52.751,69.214    52.875,69.214 52.999,69.214 53.122,69.335 53.247,69.335 53.371,69.335 53.493,69.335 53.617,69.335 53.741,69.335 53.863,69.335    53.989,69.335 54.051,69.335 54.175,69.335 54.298,69.335 54.42,69.335 54.546,69.335 54.668,69.335 54.792,69.335 54.854,69.335    54.979,69.335 55.101,69.214 55.225,69.214 55.35,69.214 55.41,69.214 55.534,69.214 55.658,69.089 55.781,69.089 55.905,69.089    55.967,68.966 56.091,68.966 56.215,68.966 56.339,68.842 56.463,68.842 56.524,68.718 56.647,68.718 56.771,68.718 56.895,68.595    57.02,68.595 57.079,68.471 57.205,68.471 57.326,68.348 57.39,68.348 57.512,68.348 57.636,68.224 57.7,68.224 57.821,68.224    57.886,68.1 58.007,68.1 58.068,68.1 58.192,68.1 58.254,67.976 58.379,67.976 58.439,67.976 58.564,67.976 58.626,67.976    58.75,67.976 58.811,67.853 58.935,67.853 58.997,67.853 59.12,67.853 59.183,67.853 59.307,67.853 59.368,67.853 59.492,67.853    59.555,67.853 59.677,67.853 59.737,67.853 59.861,67.976 59.986,67.976 60.047,67.976 60.171,67.976 60.296,67.976 60.357,67.976    60.479,68.1 60.605,68.1 60.728,68.1 60.852,68.1 60.914,68.224 61.037,68.224 61.16,68.224 61.284,68.348 61.408,68.348    61.533,68.471 61.718,68.471 61.843,68.595 61.965,68.595 62.089,68.718 62.212,68.718 62.337,68.842 62.461,68.842 62.584,68.842    62.77,68.966 62.893,68.966 63.018,68.966 63.141,69.089 63.263,69.089 63.39,69.089 63.512,69.089 63.634,69.214 63.759,69.214    63.882,69.214 64.006,69.214 64.128,69.214 64.314,69.214 64.438,69.335 64.563,69.335 64.686,69.335 64.81,69.335 64.934,69.335    65.057,69.335 65.181,69.335 65.304,69.335 65.429,69.214 65.553,69.214 65.675,69.214 65.799,69.214 65.923,69.214 66.047,69.214    66.171,69.214 66.295,69.089 66.419,69.089 66.48,69.089 66.604,69.089 66.728,68.966 66.85,68.966 66.976,68.966 67.098,68.842    67.22,68.842 67.344,68.842 67.406,68.718 67.529,68.718 67.654,68.595 67.778,68.595 67.778,68.595 67.963,68.471 68.087,68.471    68.21,68.348 68.335,68.348 68.458,68.348 68.582,68.224 68.707,68.224 68.767,68.224 68.891,68.1 69.016,68.1 69.139,68.1    69.263,68.1 69.325,67.976 69.446,67.976 69.572,67.976 69.632,67.976 69.757,67.976 69.88,67.976 69.943,67.976 70.065,67.853    70.129,67.853 70.251,67.853 70.312,67.853 70.436,67.853 70.498,67.853 70.621,67.853 70.684,67.976 70.808,67.976 70.87,67.976    70.993,67.976 71.055,67.976 71.179,67.976 71.24,67.976 71.364,68.1 71.427,68.1 71.55,68.1 71.612,68.1 71.736,68.224    71.799,68.224 71.921,68.224 71.982,68.224 72.107,68.348 72.23,68.348 72.293,68.471 72.417,68.471 72.54,68.471 72.602,68.595    72.726,68.595 72.847,68.718 72.974,68.718 73.097,68.842 73.159,68.842 73.281,68.842 73.404,68.966 73.527,68.966 73.654,69.089    73.714,69.089 73.838,69.089 73.962,69.089 74.084,69.214 74.209,69.214 74.271,69.214 74.394,69.214 74.519,69.335 74.642,69.335    74.766,69.335 74.89,69.335 75.013,69.335 75.074,69.335 75.199,69.335 75.322,69.335 75.446,69.335 75.57,69.335 75.693,69.335    75.817,69.335 75.94,69.335 76.003,69.335 76.127,69.335 76.249,69.335 76.375,69.335 76.496,69.214 76.619,69.214 76.746,69.214    76.867,69.214 76.991,69.214 77.116,69.089 77.238,69.089 77.362,69.089 77.485,68.966 77.61,68.966 77.734,68.966 77.857,68.842    77.981,68.842 78.104,68.718 78.229,68.718 78.353,68.595 78.538,68.595 78.66,68.471 78.785,68.471 78.907,68.348 79.03,68.348    79.157,68.224 79.281,68.224 79.401,68.224 79.528,68.1 79.649,68.1 79.775,68.1 79.897,68.1 80.021,67.976 80.146,67.976    80.268,67.976 80.33,67.976 80.454,67.976 80.577,67.976 80.702,67.976 80.826,67.976 80.888,67.976 81.011,67.976 81.135,67.976    81.258,67.976 81.32,67.976 81.444,67.976 81.506,67.976 81.63,67.976 81.754,67.976 81.814,67.976 81.939,68.1 82.001,68.1    82.123,68.1 82.187,68.1 82.309,68.1 82.373,68.224 82.434,68.224 82.556,68.224 82.618,68.224 82.68,68.348 82.743,68.348    82.865,68.348 82.93,68.348 82.989,68.471 83.052,68.471 83.113,68.471 83.175,68.471 83.236,68.595 83.299,68.595 83.36,68.595    83.422,68.718 83.484,68.718 83.546,68.718 83.608,68.718 83.67,68.842 83.67,68.842 83.731,68.842 83.794,68.842 83.855,68.842    83.918,68.966 83.918,68.966 83.98,68.966 84.04,68.966 84.103,68.966 84.165,68.966 84.165,69.089 84.227,69.089 84.289,69.089    84.35,69.089 84.412,69.089 84.475,69.089 84.536,69.089 84.536,69.089 84.599,69.214 84.658,69.214 84.722,69.214 84.784,69.214    84.844,69.214 84.907,69.214 84.969,69.214 85.028,69.214 85.091,69.214 85.155,69.214 85.217,69.214 85.276,69.335 85.341,69.335    85.402,69.335 85.463,69.335 85.525,69.335 85.587,69.335 85.647,69.335 85.71,69.335 85.773,69.335 85.834,69.335 85.896,69.335    86.02,69.335 86.081,69.335 86.146,69.335 86.205,69.335 86.205,69.335 86.205,69.335 86.267,69.335 86.331,69.335 86.391,69.335    86.452,69.335 86.514,69.335 86.576,69.335 86.638,69.335 86.7,69.335 86.823,69.335 86.886,69.335 86.947,69.335 87.01,69.335    87.072,69.335 87.132,69.335 87.194,69.214 87.257,69.214 87.318,69.214 87.318,69.214 87.381,69.214 87.441,69.214 87.504,69.214    87.566,69.214 87.628,69.214 87.69,69.214 87.752,69.214 87.813,69.089 87.875,69.089 87.938,69.089 87.999,69.089 87.999,69.089    88.06,69.089 88.123,69.089 88.185,69.089 88.245,68.966 88.309,68.966 88.37,68.966 88.37,68.966 88.431,68.966 88.492,68.966    88.557,68.842 88.616,68.842 88.616,68.842 88.678,68.842 88.739,68.842 88.802,68.718 88.863,68.718 88.863,68.718 88.926,68.718    88.987,68.595 89.049,68.595 89.111,68.595 89.173,68.595 89.235,68.471 89.298,68.471 89.357,68.471 89.42,68.348 89.482,68.348    89.606,68.348 89.667,68.348 89.729,68.224 89.792,68.224 89.916,68.224 89.978,68.224 90.102,68.1 90.163,68.1 90.225,68.1    90.349,68.1 90.41,68.1 90.534,67.976 90.658,67.976 90.72,67.976 90.845,67.976 90.904,67.976 91.029,67.976 91.153,67.976    91.215,67.976 91.339,67.976 91.461,67.976 91.586,67.976 91.646,67.976 91.771,67.976 91.894,67.976 92.018,67.976 92.141,67.976    92.265,67.976 92.39,67.976 92.512,67.976 92.574,68.1 92.698,68.1 92.821,68.1 92.945,68.224 93.069,68.224 93.192,68.224    93.378,68.348 93.502,68.348 93.626,68.471 93.75,68.471 93.874,68.595 93.996,68.595 94.121,68.718 94.243,68.718 94.368,68.842    94.492,68.842 94.616,68.842 94.739,68.966 94.861,68.966 95.049,68.966 95.173,69.089 95.295,69.089 95.419,69.089 95.48,69.214    95.604,69.214 95.728,69.214 95.851,69.214 95.976,69.335 96.1,69.335 96.223,69.335 96.347,69.335 96.47,69.335 96.594,69.335    96.718,69.335 96.842,69.335 96.966,69.335 97.028,69.335 97.15,69.335 97.274,69.335 97.397,69.335 97.522,69.335 97.645,69.335    97.708,69.335 97.829,69.335 97.955,69.214 98.077,69.214 98.201,69.214 98.325,69.214 98.387,69.214 98.511,69.089 98.634,69.089    98.758,69.089 98.882,68.966 98.943,68.966 99.067,68.966 99.191,68.842 99.312,68.842 99.438,68.718 99.5,68.718 99.5,64.514    99.438,64.514 99.312,64.638 99.254,64.638 99.129,64.638 99.005,64.761 98.943,64.761 98.819,64.761 98.695,64.885 98.572,64.885    98.511,64.885 98.387,64.885 98.263,64.885 98.141,65.007 98.077,65.007 97.955,65.007 97.829,65.007 97.708,65.007 97.584,65.007    97.522,65.007 97.397,65.132 97.274,65.132 97.15,65.132 97.087,65.132 96.966,65.132 96.842,65.132 96.718,65.132 96.594,65.132    96.532,65.132 96.408,65.132 96.284,65.132 96.223,65.132 96.1,65.007 95.976,65.007 95.913,65.007 95.79,65.007 95.666,65.007    95.604,65.007 95.48,64.885 95.419,64.885 95.295,64.885 95.173,64.885 95.109,64.885 95.049,64.761 94.925,64.761 94.861,64.761    94.739,64.638 94.616,64.638 94.492,64.514 94.368,64.514 94.183,64.389 94.059,64.389 93.937,64.267 93.812,64.267 93.626,64.142    93.502,64.142 93.378,64.017 93.255,64.017 93.131,63.896 93.008,63.896 92.884,63.896 92.759,63.896 92.636,63.772 92.512,63.772    92.39,63.772 92.265,63.772 92.141,63.647 92.018,63.647 91.894,63.647 91.771,63.647 91.646,63.647 91.524,63.647 91.4,63.647    91.339,63.647 91.215,63.647 91.091,63.647 90.967,63.647 90.845,63.647 90.72,63.647 90.596,63.647 90.534,63.647 90.41,63.647    90.284,63.772 90.163,63.772 90.039,63.772 89.978,63.772 89.854,63.896 89.729,63.896 89.606,63.896 89.482,64.017 89.357,64.017    89.298,64.142 89.173,64.142 89.049,64.267 88.926,64.267 88.802,64.389 88.802,64.389 88.802,64.389 88.802,64.389 88.802,64.389    88.802,64.389 88.802,64.389 88.739,64.389 88.739,64.389 88.739,64.389 88.739,64.389 88.678,64.389 88.678,64.514 88.616,64.514    88.616,64.514 88.557,64.514 88.557,64.514 88.492,64.514 88.492,64.514 88.431,64.514 88.37,64.638 88.37,64.638 88.309,64.638    88.245,64.638 88.185,64.638 88.185,64.638 88.123,64.761 88.06,64.761 87.999,64.761 87.938,64.761 87.875,64.761 87.813,64.761    87.69,64.761 87.628,64.885 87.566,64.885 87.504,64.885 87.441,64.885 87.318,64.885 87.257,64.885 87.194,64.885 87.072,64.885    87.01,65.007 86.886,65.007 86.823,65.007 86.7,65.007 86.576,65.007 86.514,65.007 86.391,65.007 86.267,65.007 86.205,65.007    86.205,65.007 86.205,65.007 86.081,65.007 85.957,65.007 85.896,65.007 85.773,65.007 85.647,65.007 85.587,65.007 85.463,65.007    85.402,64.885 85.276,64.885 85.217,64.885 85.155,64.885 85.028,64.885 84.969,64.885 84.907,64.885 84.784,64.885 84.722,64.885    84.658,64.761 84.599,64.761 84.536,64.761 84.475,64.761 84.412,64.761 84.35,64.761 84.289,64.638 84.227,64.638 84.165,64.638    84.165,64.638 84.103,64.638 84.04,64.638 84.04,64.638 83.98,64.514 83.918,64.514 83.918,64.514 83.855,64.514 83.855,64.514    83.794,64.514 83.794,64.514 83.731,64.389 83.731,64.389 83.731,64.389 83.67,64.389 83.67,64.389 83.67,64.389 83.67,64.389    83.67,64.389 83.608,64.389 83.608,64.389 83.608,64.389 83.608,64.389 83.546,64.389 83.484,64.267 83.36,64.142 83.236,64.142    83.113,64.142 82.989,64.017 82.865,64.017 82.743,63.896 82.68,63.896 82.556,63.896 82.434,63.772 82.309,63.772 82.187,63.772    82.062,63.772 82.001,63.647 81.875,63.647 81.754,63.647 81.63,63.647 81.506,63.647 81.383,63.647 81.258,63.647 81.196,63.647    81.073,63.647 80.949,63.647 80.826,63.647 80.702,63.647 80.577,63.647 80.454,63.647 80.33,63.647 80.207,63.647 80.083,63.772    79.961,63.772 79.836,63.772 79.713,63.772 79.588,63.896 79.464,63.896 79.343,63.896 79.217,64.017 79.095,64.017 78.972,64.017    78.848,64.142 78.66,64.142 78.538,64.267 78.414,64.267 78.291,64.389 78.166,64.389 77.981,64.514 77.857,64.514 77.734,64.638    77.61,64.638 77.548,64.761 77.425,64.761 77.362,64.761 77.238,64.885 77.176,64.885 77.054,64.885 76.991,64.885 76.867,65.007    76.806,65.007 76.682,65.007 76.56,65.007 76.496,65.007 76.375,65.007 76.249,65.007 76.188,65.132 76.063,65.132 75.94,65.132    75.817,65.132 75.756,65.132 75.631,65.132 75.507,65.132 75.385,65.132 75.322,65.132 75.199,65.132 75.074,65.132 74.95,65.132    74.89,65.007 74.766,65.007 74.642,65.007 74.519,65.007 74.394,65.007 74.333,65.007 74.209,65.007 74.084,64.885 73.962,64.885    73.899,64.885 73.775,64.885 73.654,64.761 73.59,64.761 73.466,64.761 73.346,64.761 73.221,64.638 73.159,64.638 73.033,64.638    72.974,64.514 72.847,64.514 72.787,64.514 72.664,64.389 72.54,64.389 72.417,64.267 72.293,64.267 72.168,64.142 72.045,64.142    71.921,64.017 71.799,64.017 71.736,64.017 71.612,63.896 71.488,63.896 71.364,63.896 71.24,63.896 71.179,63.772 71.055,63.772    70.932,63.772 70.87,63.772 70.746,63.772 70.621,63.772 70.563,63.647 70.436,63.647 70.312,63.647 70.251,63.647 70.129,63.647    70.003,63.647 69.943,63.647 69.817,63.772 69.695,63.772 69.632,63.772 69.51,63.772 69.387,63.772 69.325,63.772 69.201,63.772    69.076,63.896 69.016,63.896 68.891,63.896 68.767,63.896 68.645,64.017 68.521,64.017 68.458,64.017 68.335,64.142 68.21,64.142    68.087,64.142 67.963,64.267 67.84,64.267 67.716,64.389 67.592,64.389 67.469,64.389 67.344,64.514 67.22,64.514 67.098,64.638    66.976,64.638 66.911,64.638 66.79,64.761 66.663,64.761 66.604,64.761 66.48,64.885 66.356,64.885 66.295,64.885 66.171,64.885    66.047,64.885 65.984,65.007 65.861,65.007 65.799,65.007 65.675,65.007 65.553,65.007 65.492,65.007 65.366,65.132 65.304,65.132    65.181,65.132 65.057,65.132 64.994,65.132 64.872,65.132 64.81,65.132 64.686,65.132 64.563,65.132 64.502,65.132 64.376,65.132    64.314,65.132 64.19,65.132 64.067,65.007 64.006,65.007 63.882,65.007 63.819,65.007 63.696,65.007 63.573,65.007 63.512,65.007    63.39,64.885 63.327,64.885 63.203,64.885 63.079,64.885 63.018,64.761 62.893,64.761 62.77,64.761 62.707,64.761 62.584,64.638    62.461,64.638 62.398,64.638 62.274,64.514 62.151,64.514 62.026,64.389 61.902,64.389 61.78,64.267 61.656,64.267 61.533,64.142    61.408,64.142 61.284,64.142 61.16,64.017 61.037,64.017 60.914,64.017 60.792,63.896 60.728,63.896 60.605,63.896 60.479,63.896    60.418,63.772 60.296,63.772 60.171,63.772 60.111,63.772 59.986,63.772 59.861,63.772 59.801,63.772 59.677,63.647 59.555,63.647    59.492,63.647 59.368,63.647 59.245,63.647 59.183,63.647 59.059,63.647 58.997,63.772 58.873,63.772 58.75,63.772 58.688,63.772    58.564,63.772 58.439,63.772 58.316,63.772 58.254,63.896 58.132,63.896 58.007,63.896 57.886,64.017 57.821,64.017 57.7,64.017    57.575,64.142 57.452,64.142 57.326,64.142 57.205,64.267 57.079,64.267 56.957,64.389 56.834,64.389 56.771,64.514 56.647,64.514    56.585,64.514 56.463,64.638 56.339,64.638 56.276,64.638 56.153,64.761 56.028,64.761 55.967,64.761 55.843,64.885 55.719,64.885    55.658,64.885 55.534,64.885 55.41,64.885 55.287,65.007 55.225,65.007 55.101,65.007 54.979,65.007 54.854,65.007 54.731,65.007    54.668,65.007 54.546,65.132 54.42,65.132 54.298,65.132 54.175,65.132 54.111,65.132 53.989,65.132 53.863,65.132 53.741,65.132    53.678,65.132 53.556,65.132 53.432,65.132 53.309,65.132 53.247,65.007 53.122,65.007 52.999,65.007 52.937,65.007 52.813,65.007    52.751,65.007 52.628,64.885 52.505,64.885 52.442,64.885 52.318,64.885 52.256,64.885 52.133,64.761 52.07,64.761 52.009,64.761    51.887,64.638 51.764,64.638 51.638,64.514 51.452,64.514 51.33,64.389 51.206,64.389 51.083,64.267 50.959,64.267 50.773,64.142    50.649,64.142 50.526,64.017 50.402,64.017 50.279,63.896 50.154,63.896 50.031,63.896 49.907,63.896 49.783,63.772 49.66,63.772    49.535,63.772 49.413,63.772 49.29,63.647 49.164,63.647 49.041,63.647 48.918,63.647 48.794,63.647 48.67,63.647 48.547,63.647    48.422,63.647 48.361,63.647 48.237,63.647 48.114,63.647 47.99,63.647 47.867,63.647 47.743,63.647 47.681,63.647 47.557,63.647    47.435,63.772 47.311,63.772 47.186,63.772 47.063,63.772 47,63.896 46.877,63.896 46.754,63.896 46.629,64.017 46.506,64.017    46.381,64.142 46.322,64.142 46.197,64.267 46.072,64.267 45.95,64.389 45.95,64.389 45.95,64.389 45.95,64.389 45.95,64.389    45.95,64.389 45.95,64.389 45.889,64.389 45.889,64.389 45.889,64.389 45.826,64.389 45.826,64.389 45.826,64.514 45.765,64.514    45.765,64.514 45.702,64.514 45.702,64.514 45.64,64.514 45.64,64.514 45.579,64.514 45.517,64.638 45.517,64.638 45.455,64.638    45.394,64.638 45.332,64.638 45.269,64.638 45.208,64.761 45.208,64.761 45.146,64.761 45.084,64.761 45.022,64.761 44.898,64.761    44.836,64.761 44.774,64.885 44.713,64.885 44.651,64.885 44.589,64.885 44.465,64.885 44.404,64.885 44.281,64.885 44.218,64.885    44.156,65.007 44.034,65.007 43.971,65.007 43.848,65.007 43.723,65.007 43.662,65.007 43.538,65.007 43.415,65.007 43.353,65.007    43.353,65.007 43.353,65.007 43.229,65.007 43.105,65.007 43.043,65.007 42.92,65.007 42.796,65.007 42.734,65.007 42.61,65.007    42.548,64.885 42.426,64.885 42.363,64.885 42.239,64.885 42.177,64.885 42.116,64.885 42.054,64.885 41.931,64.885 41.869,64.885    41.806,64.761 41.745,64.761 41.683,64.761 41.621,64.761 41.559,64.761 41.498,64.761 41.436,64.638 41.374,64.638 41.312,64.638    41.312,64.638 41.25,64.638 41.188,64.638 41.125,64.638 41.125,64.514 41.064,64.514 41.064,64.514 41.003,64.514 41.003,64.514    40.94,64.514 40.94,64.514 40.879,64.389 40.879,64.389 40.879,64.389 40.817,64.389 40.817,64.389 40.817,64.389 40.817,64.389    40.755,64.389 40.755,64.389 40.755,64.389 40.755,64.389 40.755,64.389 40.693,64.389 40.57,64.267 40.508,64.142 40.385,64.142    40.26,64.142 40.137,64.017 40.014,64.017 39.89,63.896 39.766,63.896 39.705,63.896 39.58,63.772 39.458,63.772 39.333,63.772    39.209,63.772 39.086,63.647 39.024,63.647 38.9,63.647 38.776,63.647 38.653,63.647 38.53,63.647 38.405,63.647 38.282,63.647    38.22,63.647 38.097,63.647 37.972,63.647 37.85,63.647 37.725,63.647 37.602,63.647 37.478,63.647 37.354,63.647 37.231,63.772    37.107,63.772 36.984,63.772 36.859,63.772 36.736,63.896 36.612,63.896 36.489,63.896 36.365,64.017 36.241,64.017 36.118,64.017    35.932,64.142 35.809,64.142 35.685,64.267 35.562,64.267 35.437,64.389 35.252,64.389 35.128,64.514 35.004,64.514 34.881,64.638    34.757,64.638 34.695,64.761 34.571,64.761 34.509,64.761 34.386,64.885 34.325,64.885 34.2,64.885 34.139,64.885 34.016,65.007    33.891,65.007 33.83,65.007 33.706,65.007 33.644,65.007 33.521,65.007 33.396,65.007 33.336,65.132 33.212,65.132 33.087,65.132    32.963,65.132 32.903,65.132 32.778,65.132 32.655,65.132 32.531,65.132 32.469,65.132 32.346,65.132 32.222,65.132 32.098,65.132    31.974,65.007 31.913,65.007 31.79,65.007 31.666,65.007 31.541,65.007 31.48,65.007 31.356,65.007 31.233,64.885 31.108,64.885    31.048,64.885 30.923,64.885 30.8,64.761 30.676,64.761 30.614,64.761 30.49,64.761 30.367,64.638 30.305,64.638 30.182,64.638    30.12,64.514 29.995,64.514 29.872,64.514 29.811,64.389 29.687,64.389 29.562,64.267 29.439,64.267 29.316,64.142 29.191,64.142    29.068,64.017 28.944,64.017 28.822,64.017 28.759,63.896 28.635,63.896 28.512,63.896 28.389,63.896 28.327,63.772 28.203,63.772    28.079,63.772 27.955,63.772 27.894,63.772 27.77,63.772 27.646,63.647 27.584,63.647 27.46,63.647 27.336,63.647 27.275,63.647    27.152,63.647 27.089,63.647 26.966,63.772 26.842,63.772 26.781,63.772 26.656,63.772 26.533,63.772 26.472,63.772 26.348,63.772    26.224,63.896 26.1,63.896 26.039,63.896 25.916,63.896 25.791,64.017 25.667,64.017 25.543,64.017 25.482,64.142 25.358,64.142    25.234,64.142 25.111,64.267 24.987,64.267 24.864,64.389 24.739,64.389 24.616,64.389 24.493,64.514 24.368,64.514 24.244,64.638    24.121,64.638 24.059,64.638 23.936,64.761 23.812,64.761 23.751,64.761 23.626,64.885 23.503,64.885 23.44,64.885 23.318,64.885    23.193,64.885 23.132,65.007 23.008,65.007 22.885,65.007 22.823,65.007 22.7,65.007 22.638,65.007 22.513,65.132 22.39,65.132    22.328,65.132 22.205,65.132 22.143,65.132 22.019,65.132 21.895,65.132 21.833,65.132 21.709,65.132 21.648,65.132 21.525,65.132    21.4,65.132 21.338,65.132 21.215,65.007 21.153,65.007 21.029,65.007 20.906,65.007 20.843,65.007 20.721,65.007 20.658,65.007    20.535,64.885 20.411,64.885 20.35,64.885 20.226,64.885 20.102,64.761 20.04,64.761 19.917,64.761 19.854,64.761 19.73,64.638    19.608,64.638 19.545,64.638 19.422,64.514 19.298,64.514 19.175,64.389 18.989,64.389 18.865,64.267 18.742,64.267 18.618,64.142    18.557,64.142 18.433,64.142 18.309,64.017 18.186,64.017 18.062,64.017 17.937,63.896 17.875,63.896 17.752,63.896 17.629,63.896    17.504,63.772 17.442,63.772 17.319,63.772 17.196,63.772 17.134,63.772 17.01,63.772 16.887,63.772 16.824,63.647 16.702,63.647    16.639,63.647 16.515,63.647 16.392,63.647 16.329,63.647 16.207,63.647 16.083,63.772 16.021,63.772 15.896,63.772 15.774,63.772    15.711,63.772 15.588,63.772 15.464,63.772 15.403,63.896 15.279,63.896 15.155,63.896 15.031,64.017 14.908,64.017 14.846,64.017    14.723,64.142 14.599,64.142 14.475,64.142 14.351,64.267 14.228,64.267 14.104,64.389 13.979,64.389 13.917,64.514 13.795,64.514    13.671,64.514 13.608,64.638 13.486,64.638 13.423,64.638 13.3,64.761 13.176,64.761 13.114,64.761 12.991,64.885 12.867,64.885    12.743,64.885 12.681,64.885 12.558,64.885 12.435,65.007 12.311,65.007 12.249,65.007 12.125,65.007 12.002,65.007 11.878,65.007    11.754,65.007 11.692,65.132 11.569,65.132 11.444,65.132 11.321,65.132 11.259,65.132 11.136,65.132 11.012,65.132 10.889,65.132    10.765,65.132 10.703,65.132 10.579,65.132 10.456,65.132 10.394,65.007 10.27,65.007 10.146,65.007 10.084,65.007 9.96,65.007    9.837,65.007 9.774,64.885 9.652,64.885 9.59,64.885 9.467,64.885 9.404,64.885 9.279,64.761 9.219,64.761 9.094,64.761    9.034,64.638 8.91,64.638 8.786,64.514 8.601,64.514 8.477,64.389 8.353,64.389 8.229,64.267 8.044,64.267 7.92,64.142    7.796,64.142 7.672,64.017 7.549,64.017 7.426,63.896 7.302,63.896 7.178,63.896 7.054,63.896 6.932,63.772 6.807,63.772    6.683,63.772 6.56,63.772 6.436,63.647 6.312,63.647 6.188,63.647 6.065,63.647 5.941,63.647 5.818,63.647 5.694,63.647    5.57,63.647 5.447,63.647 5.385,63.647 5.261,63.647 5.138,63.647 5.014,63.647 4.89,63.647 4.766,63.647 4.706,63.647    4.581,63.772 4.458,63.772 4.333,63.772 4.21,63.772 4.087,63.896 4.025,63.896 3.901,63.896 3.777,64.017 3.653,64.017    3.53,64.142 3.406,64.142 3.344,64.267 3.22,64.267 3.097,64.389 3.097,64.389 3.097,64.389 3.097,64.389 3.097,64.389    3.097,64.389 3.035,64.389 3.035,64.389 3.035,64.389 3.035,64.389 2.974,64.389 2.974,64.389 2.974,64.514 2.911,64.514    2.911,64.514 2.849,64.514 2.849,64.514 2.788,64.514 2.788,64.514 2.726,64.514 2.664,64.638 2.603,64.638 2.603,64.638    2.54,64.638 2.478,64.638 2.416,64.638 2.355,64.761 2.293,64.761 2.23,64.761 2.169,64.761 2.107,64.761 2.045,64.761    1.983,64.761 1.922,64.885 1.861,64.885 1.798,64.885 1.675,64.885 1.613,64.885 1.551,64.885 1.428,64.885 1.365,64.885    1.242,65.007 1.18,65.007 1.057,65.007 0.995,65.007 0.87,65.007 0.81,65.007 0.685,65.007  "/>
</g>
<path fill-rule="evenodd" clip-rule="evenodd" d="M0.5,51.405l1.05,1.73l5.009,6.553l2.474,2.475h0.061h0.125l0.06,0.123h0.125  h0.063H9.59l0.063,0.126h0.122h0.063H9.96h0.124l0.061,0.122h0.125h0.124h0.062h0.123h0.124h0.063h0.124h0.124h0.124h0.124h0.062  h0.123h0.125h0.124h0.062h0.124h0.125h0.123l0.124-0.122h0.062h0.124h0.124h0.123l0.062-0.126h0.124h0.124h0.124l0.062-0.123H13.3  h0.124h0.063l0.123-0.123h0.063h0.124l0.123-0.124h0.062l0.125-0.124h0.125l0.123-0.123h0.124l0.124-0.122h0.124h0.123l0.063-0.126  h0.123h0.125l0.124-0.123h0.124h0.062h0.124l0.123-0.124h0.063h0.123h0.125h0.061h0.124h0.123h0.063h0.124h0.124h0.063h0.123h0.063  h0.123h0.125h0.062l0.124,0.124h0.123h0.062h0.125h0.123l0.123,0.123h0.062h0.125l0.124,0.126h0.123h0.124l0.124,0.122h0.062h0.124  l0.123,0.123h0.124l0.186,0.124h0.123l0.124,0.124h0.124h0.063l0.123,0.123h0.124h0.062l0.123,0.123h0.063h0.124h0.124l0.061,0.126  h0.124h0.124h0.063h0.123l0.063,0.122h0.124h0.124h0.062h0.124H21.4h0.125h0.123h0.062h0.124h0.061h0.125h0.124h0.062h0.123h0.063  h0.123h0.125H22.7h0.123l0.063-0.122h0.123h0.124h0.062h0.125h0.123l0.063-0.126h0.124h0.125l0.061-0.123h0.124h0.124l0.062-0.123  h0.123h0.124l0.125-0.124h0.123l0.123-0.124h0.125h0.123l0.124-0.123h0.124l0.124-0.122h0.125h0.061l0.124-0.126h0.124h0.125h0.123  l0.062-0.123h0.124h0.124h0.124l0.062-0.124h0.123h0.125h0.062h0.124h0.124h0.063h0.123h0.062h0.124h0.125h0.061h0.125h0.124h0.062  h0.124l0.124,0.124h0.124h0.063h0.123l0.123,0.123h0.125h0.063h0.123l0.124,0.126h0.124l0.125,0.122h0.123l0.123,0.123h0.125  l0.124,0.124h0.062h0.123l0.125,0.124h0.062h0.124l0.062,0.123h0.123h0.124l0.062,0.123H30.8h0.123h0.125l0.06,0.126h0.125h0.123  h0.124h0.061h0.125l0.125,0.122h0.123h0.061h0.124h0.124h0.124h0.123h0.062h0.124h0.124h0.125h0.061h0.124h0.125h0.124h0.061h0.124  h0.123h0.063l0.124-0.122h0.061h0.125h0.123H34.2l0.125-0.126h0.062h0.123h0.063l0.124-0.123h0.062l0.124-0.123h0.123l0.124-0.124  h0.124l0.185-0.124h0.125l0.124-0.123h0.124l0.124-0.122h0.186l0.123-0.126h0.125h0.124l0.123-0.123h0.124h0.124h0.125l0.123-0.124  h0.124h0.124h0.123h0.124l0.124-0.124h0.125h0.123h0.125h0.123h0.062h0.123h0.125h0.123h0.123H38.9l0.125,0.124h0.062h0.123h0.124  h0.125l0.123,0.124h0.125h0.061l0.125,0.123h0.124l0.124,0.126h0.123h0.125l0.124,0.122h0.062l0.123,0.123h0.062l0,0l0,0l0,0l0,0  h0.063l0,0v0.124l0,0h0.062l0,0l0,0h0.061l0,0h0.063l0,0l0.061,0.124l0,0h0.061l0,0h0.063h0.062h0.062v0.123h0.062h0.062h0.063  h0.061h0.063l0.062,0.123h0.062h0.061h0.063h0.062h0.123h0.063l0.061,0.126h0.062h0.125h0.063h0.123h0.062h0.124h0.062h0.125h0.123  h0.062h0.124h0.124l0,0l0,0h0.062h0.124h0.124h0.062h0.125h0.124h0.063h0.123h0.062h0.063h0.123h0.062l0.124-0.126h0.062h0.063  h0.061h0.062h0.062h0.124l0.062-0.123h0.063h0.062l0,0h0.061h0.063h0.062l0.061-0.123h0.062l0,0h0.063h0.061l0,0h0.062v-0.124h0.063  l0,0h0.062l0,0l0,0h0.063l0,0l0,0l0.061-0.124l0,0l0,0l0,0l0,0l0,0l0,0h0.123l0.125-0.123h0.125l0.059-0.122h0.125l0.123-0.126  h0.125h0.123L47,61.298h0.062h0.124l0.125-0.124h0.124h0.123h0.124h0.062l0.125-0.124h0.123h0.124h0.123h0.124h0.061h0.125h0.123  h0.124h0.124h0.123l0.123,0.124h0.125h0.124h0.122h0.125l0.123,0.124h0.124h0.124l0.124,0.123h0.125h0.124l0.124,0.126h0.124  l0.124,0.122h0.186h0.124l0.123,0.123h0.124l0.122,0.124l0.186,0.124h0.126l0.123,0.123h0.122h0.062l0.063,0.123h0.123h0.063h0.124  l0.063,0.126h0.123h0.123h0.062h0.124l0.063,0.122h0.123h0.125h0.062h0.123h0.124h0.122h0.063h0.122h0.126h0.122h0.063h0.123h0.122  h0.126h0.122h0.063h0.122h0.126l0.121-0.122h0.124h0.063h0.123h0.124l0.124-0.126h0.061h0.124h0.124l0.062-0.123h0.125h0.123h0.063  l0.124-0.123h0.122h0.063l0.124-0.124h0.063l0.123-0.124h0.122l0.126-0.123h0.121l0.126-0.122h0.123H57.7l0.121-0.126h0.064h0.121  l0.125-0.123h0.122h0.063h0.123l0.125-0.124h0.124h0.062h0.123h0.124h0.062h0.124h0.063h0.123h0.124h0.063h0.122h0.124h0.061h0.125  h0.125l0.06,0.124h0.125h0.122h0.062h0.126l0.122,0.123h0.064h0.122l0.123,0.126h0.123h0.124l0.124,0.122h0.125h0.123l0.124,0.123  h0.122l0.124,0.124h0.125l0.123,0.124h0.124h0.063l0.123,0.123h0.123h0.063l0.123,0.123h0.125h0.062h0.124l0.124,0.126h0.063h0.122  h0.062h0.123l0.123,0.122h0.063h0.124h0.062h0.123h0.124h0.062h0.126h0.061h0.123h0.124h0.063h0.122h0.063h0.124h0.123h0.063h0.126  h0.061h0.122l0.124-0.122h0.063h0.123h0.063h0.124h0.124l0.062-0.126h0.124h0.123l0.06-0.123h0.127h0.121l0.064-0.123h0.122h0.122  l0.124-0.124h0.125l0.123-0.124h0.124h0.124l0.123-0.123h0.124l0.123-0.122h0.125h0.123l0.063-0.126h0.124h0.122h0.124l0.125-0.123  h0.061h0.125h0.124l0.062-0.124h0.123h0.122h0.063h0.122h0.126h0.06h0.126h0.122h0.061h0.124h0.127h0.059h0.125h0.124h0.062  l0.123,0.124h0.124h0.062h0.124l0.124,0.123h0.124h0.124h0.063l0.122,0.126h0.124l0.123,0.122h0.125l0.124,0.123h0.123l0.124,0.124  h0.123h0.06l0.127,0.124h0.06h0.126l0.062,0.123h0.125h0.12l0.124,0.123h0.064h0.121h0.124l0.063,0.126h0.122h0.125h0.124h0.061  h0.125l0.123,0.122h0.124h0.124h0.061h0.124h0.125h0.123h0.063h0.122h0.124h0.125h0.062h0.123h0.123h0.125h0.061h0.126h0.121h0.063  l0.122-0.122h0.124h0.062h0.124h0.063l0.122-0.126h0.063h0.124h0.063l0.123-0.123h0.063l0.124-0.123h0.123l0.124-0.124h0.185  l0.125-0.124h0.123l0.124-0.123h0.122l0.188-0.122h0.124l0.123-0.126h0.122h0.126l0.121-0.123h0.124h0.125h0.123l0.125-0.124h0.122  h0.124h0.123h0.124l0.123-0.124h0.125h0.124h0.123h0.124h0.123h0.062h0.125h0.123h0.124h0.124l0.121,0.124h0.126h0.061h0.125h0.122  l0.125,0.124h0.122h0.124l0.063,0.123h0.122l0.124,0.126h0.124h0.123l0.124,0.122h0.124l0.062,0.123h0.063l0,0l0,0l0,0h0.062l0,0  l0,0v0.124l0,0h0.062l0,0l0,0h0.063l0,0h0.062l0,0l0.063,0.124l0,0h0.063h0.06l0,0h0.063h0.063v0.123h0.062h0.063h0.061h0.063h0.063  l0.062,0.123h0.063h0.06h0.063h0.063h0.123h0.062l0.06,0.126h0.127h0.062h0.06h0.126h0.061h0.124h0.061h0.126h0.123h0.061h0.124  h0.124l0,0l0,0h0.062h0.124h0.123h0.063H86.7h0.123h0.063h0.124h0.063h0.122h0.063h0.062l0.123-0.126h0.063h0.063h0.062h0.063h0.123  h0.062l0.063-0.123h0.062h0.061h0.063h0.062l0,0h0.061l0.063-0.123h0.062l0,0h0.061h0.062l0,0h0.064v-0.124h0.06l0,0h0.062l0,0  h0.062l0,0l0,0l0,0l0.063-0.124l0,0l0,0l0,0l0,0l0,0l0,0h0.124l0.123-0.123h0.124l0.125-0.122h0.06l0.125-0.126h0.124h0.123  l0.124-0.123h0.124h0.062l0.124-0.124h0.121h0.126h0.124h0.062l0.124-0.124h0.125h0.122h0.124h0.124h0.124H91.4h0.124h0.121h0.126  h0.122l0.124,0.124h0.123h0.124h0.125h0.122l0.124,0.124h0.123h0.125l0.124,0.123h0.123h0.124l0.123,0.126h0.124l0.124,0.122h0.186  h0.125l0.122,0.123h0.124l0.186,0.124l0.124,0.124h0.124l0.123,0.123h0.122h0.063l0.124,0.123h0.061h0.063h0.122l0.062,0.126  l4.144-2.598v-2.6h-9.216l-1.111-2.843l-11.748-1.236l-1.422-0.866l-5.071-6.308h11.069V43.86l-5.505-3.958l8.595-9.646H61.102  h-7.854v0.865l20.28,2.474l-7.171,4.327l-3.153,0.867l-3.835,0.247l-14.222-1.237l-16.82,8.287L9.528,49.424L0.5,51.405z   M14.661,52.27l36.237-1.731l7.604,0.867l5.194,1.482l-0.185,1.114l-48.851-0.248V52.27z M40.198,43.983l-4.637-0.371l7.482-3.834  l5.812,0.99l-1.174,0.866L40.198,43.983z"/>
</svg>