<svg xmlns="http://www.w3.org/2000/svg" xmlns:xlink="http://www.w3.org/1999/xlink" version="1.1" id="Layer_1" x="0px" y="0px" width="100px" height="100px" viewBox="0 0 100 100" enable-background="new 0 0 100 100" xml:space="preserve">
<g>
	<g>
		<path fill="#000000" d="M0.002,40.794c0.004-0.008,0.008-0.016,0.012-0.025C0.001,40.771-0.003,40.779,0.002,40.794z"/>
		<path fill="#000000" d="M55.875,20.312l3.717,0.297l5.559-6.066l-0.602-1.742c0,0-16.993-5.608-35.718,1.083    c-0.113,0.048-1.636-1.04-1.636-1.04l-0.671,1.879c0,0-17.1,6.408-26.51,26.045c0.19-0.03,2.17,1.102,2.17,1.102    s13.298-3.476,16.789-3.083c-0.209-0.177,1.628-3.08,1.628-3.08l2.776,1.223l11.034-4.747l22.282,52.886    c0.172,0.404,0.639,0.594,1.043,0.424c0.406-0.17,0.596-0.637,0.426-1.043L35.875,31.553l17.111-7.364L55.875,20.312z"/>
	</g>
	<g>
		<path fill="#000000" d="M65.369,71.002c0,0.655-0.533,1.186-1.188,1.186H41.465c-0.656,0-1.187-0.53-1.187-1.186l0,0    c0-0.656,0.531-1.188,1.187-1.188h22.717C64.836,69.814,65.369,70.346,65.369,71.002L65.369,71.002z"/>
		<path fill="#000000" d="M99.102,53.824c0.463,0.464,0.463,1.214,0,1.679L83.039,71.565c-0.463,0.462-1.215,0.462-1.68,0l0,0    c-0.461-0.462-0.461-1.216,0-1.677l16.064-16.064C97.887,53.36,98.637,53.36,99.102,53.824L99.102,53.824z"/>
		<path fill="#000000" d="M82.941,71.002c0,0.655-0.398,1.186-0.889,1.186H65.014c-0.49,0-0.891-0.53-0.891-1.186l0,0    c0-0.656,0.4-1.188,0.891-1.188h17.039C82.543,69.814,82.941,70.346,82.941,71.002L82.941,71.002z"/>
		<path fill="#000000" d="M76.67,61.678c0,0.655-0.4,1.186-0.891,1.186H58.744c-0.494,0-0.893-0.53-0.893-1.186l0,0    c0-0.655,0.398-1.188,0.893-1.188h17.035C76.27,60.49,76.67,61.022,76.67,61.678L76.67,61.678z"/>
		<path fill="#000000" d="M81.912,83.77c-0.631,0.183-1.283-0.159-1.455-0.76l-6.031-20.842c-0.172-0.602,0.197-1.236,0.826-1.418    l0,0c0.629-0.183,1.281,0.157,1.455,0.759l6.029,20.843C82.91,82.952,82.541,83.587,81.912,83.77L81.912,83.77z"/>
		<path fill="#000000" d="M41.873,70.113c0.464,0.462,0.558,1.12,0.209,1.468L30.036,83.628c-0.348,0.348-1.005,0.254-1.468-0.211    l0,0c-0.465-0.462-0.558-1.118-0.21-1.467l12.047-12.048C40.752,69.557,41.41,69.649,41.873,70.113L41.873,70.113z"/>
		<path fill="#000000" d="M59.029,67.657c0-0.624,0.506-1.13,1.131-1.13h18.986c0.625,0,1.131,0.506,1.131,1.13l0,0    c0,0.624-0.506,1.131-1.131,1.131H60.16C59.535,68.788,59.029,68.281,59.029,67.657L59.029,67.657z"/>
		<path fill="#000000" d="M41.171,67.657c0-0.624,0.404-1.13,0.901-1.13h15.15c0.498,0,0.9,0.506,0.9,1.13l0,0    c0,0.624-0.402,1.131-0.9,1.131h-15.15C41.575,68.788,41.171,68.281,41.171,67.657L41.171,67.657z"/>
		<path fill="#000000" d="M27.378,79.077c-0.442-0.441-0.514-1.086-0.161-1.437l10.712-10.714c0.352-0.352,0.995-0.28,1.437,0.162    l0,0c0.442,0.441,0.514,1.084,0.162,1.437L28.814,79.239C28.463,79.59,27.82,79.519,27.378,79.077L27.378,79.077z"/>
		<path fill="#000000" d="M81.354,66.808c-0.441-0.441-0.441-1.157,0-1.599l13.428-13.428c0.439-0.441,1.156-0.441,1.598,0l0,0    c0.441,0.441,0.441,1.157,0,1.598L82.953,66.808C82.512,67.247,81.797,67.247,81.354,66.808L81.354,66.808z"/>
	</g>
</g>
</svg>