<svg xmlns="http://www.w3.org/2000/svg" xmlns:xlink="http://www.w3.org/1999/xlink" version="1.1" id="Layer_1" x="0px" y="0px" width="53.86px" height="53.86px" viewBox="0 0 53.86 53.86" enable-background="new 0 0 53.86 53.86" xml:space="preserve">
<polygon fill-rule="evenodd" clip-rule="evenodd" points="33.037,10.073 33.037,22 53.268,22 53.268,53.055 43.959,53.055   43.959,31.316 33.037,31.316 33.037,53.055 1.894,53.055 1.894,43.832 22,43.832 22,31.316 1.717,31.316 1.717,0.572 10.999,0.572   10.999,22 22,22 22,0.446 22.029,0.446 22.029,0.439 53.297,0.439 53.297,10.073 "/>
<circle fill-rule="evenodd" clip-rule="evenodd" cx="12.817" cy="37.844" r="1.996"/>
<circle fill-rule="evenodd" clip-rule="evenodd" cx="38.283" cy="40.594" r="1.996"/>
<circle fill-rule="evenodd" clip-rule="evenodd" cx="43.293" cy="15.885" r="1.997"/>
<circle fill-rule="evenodd" clip-rule="evenodd" cx="16.677" cy="11.892" r="1.996"/>
</svg>