<svg xmlns="http://www.w3.org/2000/svg" xmlns:xlink="http://www.w3.org/1999/xlink" version="1.1" id="Layer_1" x="0px" y="0px" width="100px" height="100px" viewBox="0 0 100 100" enable-background="new 0 0 100 100" xml:space="preserve">
<g>
	<path d="M28.428,60.969c-0.558-3.519-2.608-6.43-5.403-8.191l-5.732,12.474l-2.903-1.335l5.728-12.462   c-1.657-0.499-3.448-0.643-5.271-0.354c-6.476,1.025-10.894,7.105-9.868,13.583c1.026,6.474,7.106,10.892,13.582,9.867   C25.036,73.525,29.454,67.444,28.428,60.969L28.428,60.969z M23.257,37.517l-8.374,6.536l6.624-1.785L23.257,37.517L23.257,37.517z    M93.701,62.84c0-5.774-4.682-10.458-10.457-10.458c-4.246,0-7.904,2.533-9.541,6.172l9.766,0.481   c5.051,0.249,4.676,7.828-0.375,7.579l-9.779-0.485c1.379,4.164,5.305,7.169,9.93,7.169C89.02,73.298,93.701,68.616,93.701,62.84   L93.701,62.84z M21.504,47.559l-0.926-1.988H11.03l5.865-6.555l21.431-16.098h1.357L29.079,35.955L50.9,31.926l5.51,10.979   l16.951-2.861l2.732-5.026l22.475-2.261l-36.965,20.2l2.678,5.13l3.629,0.181C69.877,51.66,76,46.843,83.244,46.843   c8.836,0,15.996,7.161,15.996,15.997c0,8.835-7.16,15.997-15.996,15.997c-5.895,0-11.045-3.187-13.818-7.933l-35.113,0.398   l-2.177-4.037c-1.919,6.683-8.078,11.571-15.378,11.571c-8.835,0-15.998-7.162-15.998-15.997c0-8.836,7.163-15.997,15.998-15.997   C18.41,46.843,20.005,47.093,21.504,47.559L21.504,47.559z"/>
</g>
</svg>