<svg xmlns="http://www.w3.org/2000/svg" xmlns:xlink="http://www.w3.org/1999/xlink" version="1.0" id="Layer_1" x="0px" y="0px" width="100.0px" height="100px" viewBox="0 0 150 150" enable-background="new 0 0 150 150" xml:space="preserve">
<path d="M112.436,60.857c-4.098-4.011-8.196-6.017-12.98-6.017l-4.781-7.688c-2.399-2.45-3.416-5.349-7.514-5.349  c-8.881,0-8.366,10.697-8.366,10.697c0,0.155,0,0.314,0,0.469h-7.587c0-0.155,0-0.314,0-0.469c0,0,0.517-10.697-8.364-10.697  c-4.1,0-5.115,2.899-7.515,5.349l-4.782,7.688c-4.781,0-8.881,2.006-12.979,6.017c0,0-11.715,12.369-11.715,25.226  c0,12.194,10.137,22.114,22.596,22.114c10.456,0,19.274-6.988,21.839-16.441h9.429c2.565,9.453,11.383,16.441,21.838,16.441  c12.462,0,22.597-9.92,22.597-22.114C124.149,73.226,112.436,60.857,112.436,60.857z M48.447,101.514  c-8.692,0-15.765-6.924-15.765-15.431c0-8.508,7.072-15.428,15.765-15.428c8.693,0,15.766,6.92,15.766,15.428  C64.213,94.59,57.141,101.514,48.447,101.514z M101.553,101.514c-8.691,0-15.763-6.924-15.763-15.431  c0-8.508,7.071-15.428,15.763-15.428c8.694,0,15.766,6.92,15.766,15.428C117.318,94.59,110.247,101.514,101.553,101.514z"/>
<circle cx="74.928" cy="69.833" r="5.151"/>
</svg>