<svg xmlns="http://www.w3.org/2000/svg" xmlns:xlink="http://www.w3.org/1999/xlink" version="1.1" id="Layer_1" x="0px" y="0px" width="100px" height="100px" viewBox="0 0 100 100" enable-background="new 0 0 100 100" xml:space="preserve">
<path fill="#000000" d="M95.602,28.983c-1.98-6.183-3.125-7.702-3.312-7.688c-2.104,0.167-11.188,4.375-16.5,13.562  c-3.723,6.439-8.816,10.798-11.719,12.938c-9.385,6.917-26.76,0.271-37.635,4.334c-7.915,2.957-22.951,8.197-24.333,10.229  c-2,2.938,3.875,4.625,13.312,6.562s26.562,4.688,34.062,3.188c7.5-1.5,10.125-7.688,16.312-12.5s12.812-7.688,13.5-7.562  s-0.562,14.688-0.562,14.688l0.875,0.375c0,0,1.938,0.312,2.312-0.75s0.438-12.562,3.188-14.75s8.375-4.312,9.875-7  S98.164,36.983,95.602,28.983z M82.477,33.608c-9.375,10.938-17.113,19.639-30.705,26.211c-6.25,3.021-13.736,3.025-20.24,0.771  c-1.843-0.639-6.143-2.815-5.179-5.449c0.12-0.327,0.295-0.631,0.531-0.89c0.256-0.28,0.573-0.499,0.908-0.676  c0.388-0.204,0.803-0.354,1.222-0.48c0.482-0.146,0.974-0.259,1.468-0.356c0.563-0.112,1.132-0.201,1.702-0.272  c0.636-0.08,1.274-0.136,1.914-0.171c0.689-0.037,1.379-0.051,2.069-0.053c0.73-0.003,1.461,0.007,2.192,0.012  c0.775,0.005,1.549,0.005,2.324,0c0.81-0.004,1.619-0.013,2.428-0.015c0.811-0.001,1.623,0.007,2.434,0.023  c0.795,0.017,1.591,0.04,2.386,0.049c3.876,0.043,7.766-0.142,11.465-1.402c3.54-1.207,6.664-3.277,9.347-5.863  c2.167-2.089,4.11-4.298,5.807-6.786c1.564-2.294,2.981-4.692,4.804-6.798c3.43-3.962,6.971-6.544,11.084-8.5  C93.826,21.351,85.127,30.518,82.477,33.608z"/>
</svg>