<svg xmlns="http://www.w3.org/2000/svg" xmlns:xlink="http://www.w3.org/1999/xlink" version="1.1" id="Layer_1" x="0px" y="0px" width="100px" height="100px" viewBox="0 0 100 100" enable-background="new 0 0 100 100" xml:space="preserve">
<path fill="#000000" d="M-65.731,48.817c-1.98-6.183-3.125-7.702-3.312-7.688c-2.104,0.167-11.188,4.375-16.5,13.562  c-3.723,6.439-8.816,10.799-11.719,12.938c-9.385,6.918-26.76,0.271-37.635,4.334c-7.915,2.957-22.951,8.197-24.333,10.229  c-2,2.938,3.875,4.625,13.312,6.562s26.562,4.688,34.062,3.188c7.5-1.5,10.125-7.688,16.312-12.5s12.812-7.688,13.5-7.562  s-0.562,14.688-0.562,14.688l0.875,0.375c0,0,1.938,0.312,2.312-0.75s0.438-12.562,3.188-14.75s8.375-4.312,9.875-7  S-63.169,56.816-65.731,48.817z M-78.856,53.441c-9.375,10.938-17.113,19.639-30.705,26.211c-6.25,3.021-13.736,3.025-20.24,0.771  c-1.843-0.639-6.143-2.816-5.179-5.449c0.12-0.328,0.295-0.631,0.531-0.891c0.256-0.279,0.573-0.498,0.908-0.676  c0.388-0.203,0.803-0.354,1.222-0.48c0.482-0.145,0.974-0.258,1.468-0.355c0.563-0.113,1.132-0.201,1.702-0.273  c0.636-0.08,1.274-0.135,1.914-0.17c0.689-0.037,1.379-0.051,2.069-0.053c0.73-0.004,1.461,0.006,2.192,0.012  c0.775,0.004,1.549,0.004,2.324,0c0.81-0.004,1.619-0.014,2.428-0.016c0.811,0,1.623,0.008,2.434,0.023  c0.795,0.018,1.591,0.041,2.386,0.049c3.876,0.043,7.766-0.141,11.465-1.401c3.54-1.206,6.664-3.277,9.347-5.863  c2.167-2.089,4.11-4.298,5.807-6.786c1.564-2.293,2.981-4.691,4.804-6.798c3.43-3.962,6.971-6.544,11.084-8.5  C-67.507,41.185-76.206,50.352-78.856,53.441z"/>
<path fill="#000000" d="M62.141,91.806c0,0-1.347-11.385,1.809-23.645c4.326-16.815,8.541-21.653,8.541-21.653  C58.699,34.265,51.94,10.959,51.94,10.959s2.237-1.241,1.387-3.104c-0.476-1.045-1.854-1.356-2.756-1.448v40.1  c2.026,0.281,3.593,2.002,3.593,4.105c0,2.299-1.865,4.163-4.164,4.163s-4.163-1.864-4.163-4.163c0-2.103,1.565-3.825,3.592-4.105  v-40.1c-0.902,0.092-2.279,0.404-2.756,1.448c-0.851,1.864,1.387,3.104,1.387,3.104s-6.758,23.306-20.55,35.549  c0,0,4.215,4.838,8.542,21.653c3.153,12.26,1.808,23.645,1.808,23.645s5.022,2.013,12.45,1.768  C55.857,93.391,58.721,93.002,62.141,91.806z"/>
</svg>