<svg xmlns="http://www.w3.org/2000/svg" xmlns:xlink="http://www.w3.org/1999/xlink" version="1.1" id="Layer_1" x="0px" y="0px" width="100px" height="100px" viewBox="0 0 100 100" enable-background="new 0 0 100 100" xml:space="preserve">
<g>
	<g>
		<g>
			<defs>
				<rect id="SVGID_13_" width="100" height="100"/>
			</defs>
			<clipPath id="SVGID_1_">
				<use xlink:href="#SVGID_13_" overflow="visible"/>
			</clipPath>
			<g clip-path="url(#SVGID_1_)">
				<g>
					<defs>
						<rect id="SVGID_15_" width="100" height="100"/>
					</defs>
					<defs>
						<rect id="SVGID_16_" width="100" height="100"/>
					</defs>
					<defs>
						<rect id="SVGID_17_" width="100" height="100"/>
					</defs>
					<defs>
						<rect id="SVGID_18_" width="100" height="100"/>
					</defs>
					<defs>
						<rect id="SVGID_19_" width="100" height="100"/>
					</defs>
					<clipPath id="SVGID_2_">
						<use xlink:href="#SVGID_15_" overflow="visible"/>
					</clipPath>
					<clipPath id="SVGID_3_" clip-path="url(#SVGID_2_)">
						<use xlink:href="#SVGID_16_" overflow="visible"/>
					</clipPath>
					<clipPath id="SVGID_4_" clip-path="url(#SVGID_3_)">
						<use xlink:href="#SVGID_17_" overflow="visible"/>
					</clipPath>
					<clipPath id="SVGID_5_" clip-path="url(#SVGID_4_)">
						<use xlink:href="#SVGID_18_" overflow="visible"/>
					</clipPath>
					<clipPath id="SVGID_6_" clip-path="url(#SVGID_5_)">
						<use xlink:href="#SVGID_19_" overflow="visible"/>
					</clipPath>
					<path clip-path="url(#SVGID_6_)" fill="#000000" d="M49.008,3.984c-0.875,0.139-1.622,0.678-2.042,1.429L1.375,86.211       c-0.5,0.889-0.501,2.029,0,2.914c0.508,0.896,1.448,1.484,2.472,1.484h91.182c1.021,0,1.965-0.588,2.473-1.484       c0.5-0.885,0.5-2.025,0-2.914L51.912,5.413C51.326,4.371,50.194,3.794,49.008,3.984 M49.438,13.278L88.147,83.02H10.675       L49.438,13.278z"/>
				</g>
			</g>
		</g>
	</g>
</g>
<g id="imagebot_35" transform="translate(87.13029,195.4545)">
	<path id="imagebot_39" d="M-37.83-137.42c-0.824,0.627-1.008,0.837-1.463,1.53c-0.165,0.269-0.473,0.894-0.557,1.313   c-0.084,0.42-0.147,1.029-0.147,1.351c0.001,1.093,0.349,1.777,0.729,1.755c0.339-0.039,0.771-0.394,1.425-1.197"/>
	<path id="imagebot_38" d="M-37.236-137.402c0.824,0.626,1.008,0.837,1.462,1.529c0.165,0.269,0.473,0.894,0.557,1.313   c0.084,0.419,0.147,1.028,0.147,1.35c-0.002,1.094-0.35,1.778-0.729,1.755c-0.339-0.039-0.77-0.394-1.425-1.197"/>
	<path id="imagebot_37" stroke="#000000" stroke-width="0.25" stroke-opacity="1.0" d="M-43.834-142.193   c1.144-0.199,2.252-0.33,3.397-0.459c1.497-0.377,2.252,1.333,1.839,2.618c-0.518,1.144-1.25,2.146-2.087,3.113   c-0.648,0.731-1.421,0.85-2.158,0.602c-0.595-0.165-1.144-0.53-1.733-1.38c-0.26-0.73-0.483-1.108-0.814-2.017   C-45.65-140.552-45.247-141.806-43.834-142.193z"/>
	<path id="imagebot_36" stroke="#000000" stroke-width="0.25" stroke-opacity="1.0" d="M-31.21-142.193   c-1.144-0.199-2.251-0.33-3.395-0.459c-1.498-0.377-2.253,1.333-1.84,2.618c0.518,1.144,1.25,2.146,2.087,3.113   c0.648,0.731,1.42,0.85,2.157,0.602c0.597-0.165,1.144-0.53,1.733-1.38c0.261-0.73,0.483-1.108,0.815-2.017   C-29.393-140.552-29.797-141.806-31.21-142.193z"/>
</g>
<g id="imagebot_17">
	<path id="imagebot_34" fill="none" stroke="#000000" stroke-width="0.5" stroke-opacity="1.0" d="M41.942,62.596   c0.484,1.134,0.966,2.003,1.315,3.133c0.297,1.045-0.179,1.989,0.621,3.154"/>
	<path id="imagebot_33" fill="none" stroke="#000000" stroke-width="0.5" stroke-opacity="1.0" d="M56.761,62.779   c-0.593,1.134-0.613,1.796-0.862,2.888c-0.343,1.395-0.14,2.333-0.6,3.09"/>
	<g id="imagebot_18">
		<path id="imagebot_32" fill="none" stroke="#000000" stroke-width="0.5" stroke-opacity="1.0" d="M44.723,65.705    c2.169,0.625,3.025,0.866,4.967,0.831c2.158-0.011,3.736-0.253,4.986-0.824"/>
		<path id="imagebot_31_2_" fill="#000000" stroke="#000000" stroke-miterlimit="10" d="M54.408,67.661"/>
		<path id="imagebot_31_4_" fill="#000000" stroke="#000000" stroke-miterlimit="10" d="M49.648,68.782"/>
		<path id="imagebot_31_3_" fill="#000000" stroke="#000000" stroke-miterlimit="10" d="M44.777,67.687"/>
		<g id="imagebot_19">
			<path id="imagebot_30" fill="none" stroke="#000000" stroke-width="0.5" stroke-opacity="1.0" d="M43.776,68.737     c1.31,1.772,3.536,2.089,5.879,2.151c2.508,0.092,5.079-1.027,5.729-2.275"/>
			<g id="imagebot_20">
				<path id="imagebot_29" fill="none" stroke="#000000" stroke-width="0.5" stroke-opacity="1.0" d="M44.742,65.863l-0.02,3.709      "/>
				<path id="imagebot_28" fill="none" stroke="#000000" stroke-width="0.5" stroke-opacity="1.0" d="M45.908,66.196L45.89,70.19      "/>
				<path id="imagebot_27" fill="none" stroke="#000000" stroke-width="0.5" stroke-opacity="1.0" d="M47.66,66.596l-0.035,4.036      "/>
				<path id="imagebot_26_2_" fill="none" stroke="#000000" stroke-width="2" stroke-opacity="1.0" d="M48.313,70.669"/>
				<path id="imagebot_26_1_" fill="none" stroke="#000000" stroke-width="2" stroke-opacity="1.0" d="M48.331,66.688"/>
				<path id="imagebot_25" fill="#000000" stroke="#000000" stroke-width="0.5" stroke-miterlimit="10" d="M49.623,66.725v3.979"/>
				<path id="imagebot_24_2_" fill="none" stroke="#000000" stroke-width="0.5" stroke-opacity="1.0" d="M50.879,70.687"/>
				<path id="imagebot_24_1_" fill="none" stroke="#000000" stroke-width="0.5" stroke-opacity="1.0" d="M50.859,66.707"/>
				<path id="imagebot_23_2_" fill="none" stroke="#000000" stroke-width="2" stroke-opacity="1.0" d="M52.01,70.51"/>
				<path id="imagebot_23_1_" fill="none" stroke="#000000" stroke-width="2" stroke-opacity="1.0" d="M51.975,66.6"/>
				<path id="imagebot_22" fill="none" stroke="#000000" stroke-width="0.5" stroke-opacity="1.0" d="M53.267,66.388l0.018,3.75"/>
				<path id="imagebot_21" fill="none" stroke="#000000" stroke-width="0.5" stroke-opacity="1.0" d="M54.532,65.641l0.023,3.823      "/>
			</g>
		</g>
	</g>
</g>
<g id="imagebot_11">
	<path id="imagebot_16" fill="none" stroke="#000000" stroke-opacity="1.0" d="M38.813,55.981   c-1.626-1.58-2.316-4.271-2.475-7.234c-0.171-3.265,1.103-6.561,3.679-8.409c2.884-2.03,7.717-2.595,10.715-2.441   c2.033,0.001,6.563,1.055,8.161,2.246c2.804,2.039,3.833,4.68,3.938,7.979c0.154,3.312-0.767,6.088-2.476,7.663"/>
	<path id="imagebot_15" fill="none" stroke="#000000" stroke-width="0.5" stroke-opacity="1.0" d="M39.232,46.314   c-1.38,0.613-0.442,6.76-0.777,3.116c0.093,0.982,0.72,1.949,0.753,2.847c0.231,1.894-0.329,3.788-0.592,5.336   c-0.182,1.779,0.33,3.311,0.988,3.903c0.658,0.585,1.509,0.827,2.402,1.1c1.375,0.355,1.877,0.923,1.931,0.994   c0.787,0.831,0.709,1.521,0.805,2.254"/>
	<path id="imagebot_14" fill="none" stroke="#000000" stroke-width="0.5" stroke-opacity="1.0" d="M60.364,46.644   c1.197,0.69,0.125,6.386,0.457,2.736c-0.095,0.983-0.723,1.949-0.756,2.847c-0.229,1.894,0.332,3.788,0.595,5.336   c0.181,1.778-0.331,3.311-0.989,3.902c-0.658,0.585-1.864,0.898-2.403,1.1c-0.624,0.22-1.268,0.617-1.846,1.074   c-0.868,0.839-0.805,1.148-0.89,2.174"/>
	<path id="imagebot_13" fill="none" stroke="#000000" stroke-opacity="1.0" d="M40.795,62.547   c0.59,1.428,1.215,2.662,1.274,4.124c-0.271,1.179-0.189,2.57,0.106,3.679c0.377,1.521,1.852,3.325,3.326,3.928   c1.509,0.549,2.453,0.689,4.139,0.689"/>
	<path id="imagebot_12" fill="none" stroke="#000000" stroke-opacity="1.0" d="M58.396,62.39   c-0.59,1.428-1.215,2.819-1.274,4.281c0.271,1.179,0.19,2.57-0.105,3.679c-0.378,1.521-1.868,3.272-3.344,3.874   c-1.476,0.603-2.417,0.743-4.104,0.743"/>
</g>
<path id="imagebot_9" fill="none" stroke="#000000" stroke-linejoin="round" stroke-opacity="1.0" d="M57.495,69.076l5.802,2.688  c0.708,0.296,1.273,0.201,1.804,0.036c0.837-0.248,1.497-0.106,2.192,0.178c0.837,0.424,0.861,1.024,0.32,1.626  c-0.496,0.578-1.381,0.784-1.981,1.362c-0.13,0.932,0.341,1.881-0.072,2.742c-0.519,0.754-1.073,0.624-1.945-0.177  c-0.886-0.685-0.565-1.439-1.839-2.548l-5.377-2.795l0,0"/>
<path id="imagebot_8" fill="none" stroke="#000000" stroke-linejoin="round" stroke-opacity="1.0" d="M41.645,69.041  c-1.934,1.026-3.691,1.981-5.908,2.83c-3.535,0.879-2.341-0.458-3.927,0.07c-0.624,0.496-0.613,1.204-0.106,1.733  c0.59,0.579,1.56,0.785,2.079,1.292c0.165,0.731-0.369,1.515-0.274,2.389c0.354,1.073,1.132,1.014,1.804,0.494  c0.295-0.365,0.66-0.695,0.884-1.096c0.307-0.53,0.649-1.132,1.062-1.628l5.342-2.83"/>
<path id="imagebot_7" fill="none" stroke="#000000" stroke-linecap="square" stroke-linejoin="round" stroke-opacity="1.0" d="  M58.396,62.938c2.192-1.085,3.943-1.621,5.925-2.6c1.217-1.014,0.909-1.992,1.877-2.725c0.954-0.907,1.592-0.684,1.945-0.177  c0.343,0.861,0.269,2.126,0.222,3.022c0.908,0.837,1.629,0.917,2.15,1.684c0.437,1.051-0.78,1.368-1.807,1.379  c-1.345,0.248-1.557-0.601-3.078,0l-8.029,3.786l0,0"/>
<path id="imagebot_6" fill="none" stroke="#000000" stroke-linejoin="round" stroke-opacity="1.0" d="M40.996,63.024  c-2.218-1.084-4.057-1.559-6.25-2.769c-1.192-0.949-0.808-2.026-2.251-2.901c-0.633-0.316-1.092-0.459-1.601,0.4  c-0.325,0.768-0.299,1.583-0.35,2.376c-0.567,0.609-1.209,0.968-1.676,1.727c-0.223,1.336,0.35,1.442,0.9,1.576  c1.568,0.392,2.135-0.317,3.578-0.024c2.81,1.309,5.645,2.667,8.355,4.001"/>
<title>imagebot_2</title>
<path id="imagebot_25_5_" fill="#000000" stroke="#000000" stroke-width="0.5" stroke-miterlimit="10" d="M47.623,70.704"/>
<path id="imagebot_25_3_" fill="#000000" stroke="#000000" stroke-width="0.5" stroke-miterlimit="10" d="M47.623,66.725"/>
<path id="imagebot_25_6_" fill="#000000" stroke="#000000" stroke-width="0.5" stroke-miterlimit="10" d="M48.623,70.704"/>
<path id="imagebot_25_1_" fill="#000000" stroke="#000000" stroke-width="0.5" stroke-miterlimit="10" d="M48.623,66.725"/>
<path id="imagebot_25_2_" fill="#000000" stroke="#000000" stroke-width="0.5" stroke-miterlimit="10" d="M51.573,66.596v3.979"/>
</svg>