<svg xmlns="http://www.w3.org/2000/svg" xmlns:xlink="http://www.w3.org/1999/xlink" version="1.1" id="Layer_1" x="0px" y="0px" width="100px" height="100px" viewBox="0 0 100 100" enable-background="new 0 0 100 100" xml:space="preserve">
<path d="M97.146,83.371L82.23,68.455c4.386-6.904,6.966-15.07,6.966-23.857C89.19,19.963,69.233,0.003,44.598,0  C19.963,0.003,0.003,19.963,0,44.598C0.003,69.233,19.963,89.19,44.598,89.196c8.787,0,16.953-2.58,23.857-6.966l14.916,14.916  c3.805,3.805,9.971,3.805,13.775,0S100.951,87.176,97.146,83.371z M23.594,65.602c-5.385-5.399-8.695-12.779-8.7-21.003  c0.005-8.225,3.315-15.604,8.7-21.004c5.399-5.385,12.779-8.695,21.004-8.7c8.224,0.005,15.604,3.315,21.003,8.7  c5.383,5.399,8.695,12.779,8.7,21.004c-0.005,8.224-3.317,15.604-8.7,21.003c-5.399,5.383-12.779,8.695-21.003,8.7  C36.374,74.297,28.994,70.984,23.594,65.602z"/>
</svg>