<svg xmlns="http://www.w3.org/2000/svg" xmlns:xlink="http://www.w3.org/1999/xlink" version="1.1" id="Layer_1" x="0px" y="0px" width="100px" height="100px" viewBox="0 0 100 100" enable-background="new 0 0 100 100" xml:space="preserve">
<path fill="#000000" d="M50,93.355c-0.071,0-0.144-0.016-0.212-0.047c-0.25-0.117-0.358-0.415-0.241-0.665  c0.053-0.115,5.303-11.576,0.018-20.856c-5.55-9.744-0.066-20.707-0.011-20.816c0.125-0.246,0.423-0.344,0.673-0.218  c0.246,0.126,0.343,0.427,0.218,0.673c-0.054,0.104-5.29,10.599-0.011,19.867c5.545,9.735,0.246,21.288,0.018,21.774  C50.368,93.249,50.188,93.355,50,93.355z"/>
<path fill="#000000" d="M52.08,45.823c-0.675,0.141-1.366,0.223-2.08,0.223c-0.694,0-1.368-0.078-2.024-0.211l-0.782,2.63  c-0.09,0.303-0.032,0.63,0.157,0.883s0.486,0.402,0.802,0.402h3.695c0.312,0,0.606-0.146,0.797-0.394  c0.188-0.248,0.25-0.571,0.168-0.872L52.08,45.823z"/>
<path fill="#000000" d="M50,7.937c-8.783,0-14.578,7.121-14.578,15.904c0,8.784,5.795,21.205,14.578,21.205  s14.578-12.421,14.578-21.205C64.578,15.058,58.783,7.937,50,7.937z M50,11.34c-2.968,0-5.555,1.097-7.482,3.173  c-2.179,2.349-3.272,5.795-2.999,9.457c0.021,0.275-0.186,0.515-0.461,0.536c-0.013,0.001-0.025,0.001-0.038,0.001  c-0.259,0-0.479-0.2-0.498-0.463c-0.294-3.938,0.895-7.659,3.263-10.211c2.091-2.252,5.008-3.493,8.215-3.493  c0.276,0,0.5,0.224,0.5,0.5S50.276,11.34,50,11.34z"/>
</svg>