<svg xmlns="http://www.w3.org/2000/svg" xmlns:xlink="http://www.w3.org/1999/xlink" version="1.1" id="Capa_1" x="0px" y="0px" width="70.136307311px" height="100px" viewBox="0 0 566.93 807.87" enable-background="new 0 0 566.93 807.87" xml:space="preserve">
<g>
	<rect x="246.465" y="356.837" width="12.463" height="47.962"/>
	<rect x="264.216" y="356.837" width="12.463" height="47.962"/>
	<rect x="288.764" y="356.837" width="12.465" height="47.962"/>
	<rect x="241.177" y="406.313" width="84.215" height="4.91"/>
	<rect x="233.289" y="413.217" width="100" height="5.823"/>
	<rect x="306.515" y="356.837" width="12.461" height="47.962"/>
	<path d="M327.038,349.014v-4.171l-43.183-18.881l-44.322,18.881v4.171h-6.244v5.829h100v-5.829H327.038z M283.287,332.097   c3.234,0,5.856,2.625,5.856,5.856c0,3.234-2.622,5.856-5.856,5.856c-3.233,0-5.852-2.622-5.852-5.856   C277.435,334.722,280.054,332.097,283.287,332.097z"/>
</g>
</svg>