<svg xmlns="http://www.w3.org/2000/svg" xmlns:xlink="http://www.w3.org/1999/xlink" version="1.1" id="Ebene_1" x="0px" y="0px" width="100px" height="100px" viewBox="0 0 100 100" enable-background="new 0 0 100 100" xml:space="preserve">
<path fill-rule="evenodd" clip-rule="evenodd" d="M66.946,48.706c13.203-0.952,20.68,16.865,12.429,27.064  c-5.266,6.497-20.773,7.83-26.721,1.36c-1.86,2.951-2.993,5.317-5.619,6.978c-7.908,4.992-19.775,3.399-25.362-3.061  c-3.054-3.539-4.926-9.19-4.42-14.981c0.765-8.769,9.359-14.919,20.594-12.934c4.686-13.674,12.957-24.137,24.505-31.147  c1.562-0.945,3.662-1.581,5.104-2.72c1.928-1.53,2.685-4.712,4.939-6.128c1.694-1.063,7.079,2.737,6.293,5.618  c-0.294,1.078-4.231,3.083-5.101,3.915C68.068,27.941,65.789,38.262,66.946,48.706z M42.439,53.814  c2.62,0.169,4.306,2.152,5.956,2.723c1.953-5.14,5.969-8.215,13.279-8.001c-1.417-9.441,1.526-17.999,4.424-23.656  C55.446,31.758,46.808,40.648,42.439,53.814z"/>
</svg>