<svg xmlns:dc="http://purl.org/dc/elements/1.1/" xmlns:cc="http://creativecommons.org/ns#" xmlns:rdf="http://www.w3.org/1999/02/22-rdf-syntax-ns#" xmlns:svg="http://www.w3.org/2000/svg" xmlns="http://www.w3.org/2000/svg" xmlns:sodipodi="http://sodipodi.sourceforge.net/DTD/sodipodi-0.dtd" xmlns:inkscape="http://www.inkscape.org/namespaces/inkscape" xml:space="preserve" width="100" height="100" style="fill-rule:evenodd" viewBox="0 0 51.749733 51.749733" id="svg2876" version="1.1" inkscape:version="0.47 r22583" sodipodi:docname="saxophone.svg"><metadata id="metadata2890"><rdf:RDF><cc:Work rdf:about=""><dc:format>image/svg+xml</dc:format><dc:type rdf:resource="http://purl.org/dc/dcmitype/StillImage"/><dc:title/></cc:Work></rdf:RDF></metadata><sodipodi:namedview pagecolor="#ffffff" bordercolor="#666666" borderopacity="1" objecttolerance="10" gridtolerance="10" guidetolerance="10" inkscape:pageopacity="0" inkscape:pageshadow="2" inkscape:window-width="1280" inkscape:window-height="738" id="namedview2888" showgrid="false" inkscape:zoom="2.6641777" inkscape:cx="-14.263313" inkscape:cy="44.29134" inkscape:window-x="-8" inkscape:window-y="-8" inkscape:window-maximized="1" inkscape:current-layer="svg2876"/>
 <defs id="defs2878"><inkscape:perspective sodipodi:type="inkscape:persp3d" inkscape:vp_x="0 : 44.29134 : 1" inkscape:vp_y="0 : 1000 : 0" inkscape:vp_z="88.58268 : 44.29134 : 1" inkscape:persp3d-origin="44.29134 : 29.52756 : 1" id="perspective2892"/>
  <style type="text/css" id="style2880">
   
    .fil1 {fill:black}
    .fil0 {fill:white}
   
  </style>
 
  
  
  
 
 <style id="style3672" type="text/css">
   
    .fil0 {fill:#0A0B0C}
   
  </style>
  <inkscape:perspective id="perspective3682" inkscape:persp3d-origin="45 : 33.333333 : 1" inkscape:vp_z="90 : 50 : 1" inkscape:vp_y="0 : 1000 : 0" inkscape:vp_x="0 : 50 : 1" sodipodi:type="inkscape:persp3d"/>
  
  
 
 <style id="style3731" type="text/css">
   
    .fil1 {fill:black}
    .fil0 {fill:white}
   
  </style>
  <inkscape:perspective id="perspective3743" inkscape:persp3d-origin="44.29134 : 29.52756 : 1" inkscape:vp_z="88.58268 : 44.29134 : 1" inkscape:vp_y="0 : 1000 : 0" inkscape:vp_x="0 : 44.29134 : 1" sodipodi:type="inkscape:persp3d"/>
  
  
  
 
 <style id="style3757" type="text/css">
   
    .fil1 {fill:black}
    .fil0 {fill:white}
   
  </style>
  <inkscape:perspective id="perspective3769" inkscape:persp3d-origin="44.29134 : 29.52756 : 1" inkscape:vp_z="88.58268 : 44.29134 : 1" inkscape:vp_y="0 : 1000 : 0" inkscape:vp_x="0 : 44.29134 : 1" sodipodi:type="inkscape:persp3d"/>
  
  
  
 
 <style id="style3783" type="text/css">
   
    .fil1 {fill:black}
    .fil0 {fill:white}
   
  </style>
  <inkscape:perspective id="perspective3795" inkscape:persp3d-origin="44.29134 : 29.52756 : 1" inkscape:vp_z="88.58268 : 44.29134 : 1" inkscape:vp_y="0 : 1000 : 0" inkscape:vp_x="0 : 44.29134 : 1" sodipodi:type="inkscape:persp3d"/>
  
  
  
 </defs>
 
<path style="fill:#000000" d="M 39.75 6.1875 C 36.368748 6.1325003 32.676199 8.2150012 31.5 12 C 31.4452 12.17759 30.57565 14.7479 30.53125 14.9375 L 23.40625 14.9375 C 26.261469 16.841104 27.209299 17.34375 30.0625 17.34375 C 30.538487 17.34375 32.461899 17.333451 32.9375 15.90625 C 33.081501 15.47465 34.055999 12.640801 34.25 12.25 C 35.096393 10.545999 36.396799 9.28125 38 9.28125 C 39.972801 9.28125 40.063849 11.17335 39.90625 13.09375 L 34.6875 76.875 C 33.9699 85.61581 40.86689 94 51.8125 94 C 58.030101 94 61.999599 91.999596 64 86 C 66.000401 80.000008 62.974606 68.882659 70.375 66.40625 L 54.65625 50.6875 C 49.075841 56.031875 49.75535 67.421194 50.84375 74.5 C 51.062149 75.920411 50.871952 80.1875 48.96875 80.1875 C 47.065144 80.1875 46.28645 76.710551 46.28125 75.09375 L 46.09375 13.09375 C 46.194141 8.4199492 43.131252 6.2424997 39.75 6.1875 z M 42 40.46875 C 43.18241 40.46875 44.15625 41.41135 44.15625 42.59375 C 44.15625 43.77656 43.182402 44.75 42 44.75 C 40.81759 44.75 39.875 43.776552 39.875 42.59375 C 39.875 41.41134 40.817598 40.46875 42 40.46875 z M 41.6875 48.78125 C 42.86991 48.78125 43.8125 49.755098 43.8125 50.9375 C 43.8125 52.119908 42.869902 53.0625 41.6875 53.0625 C 40.505107 53.0625 39.53125 52.1199 39.53125 50.9375 C 39.53125 49.755105 40.5051 48.78125 41.6875 48.78125 z M 41.34375 57.125 C 42.526143 57.125 43.46875 58.0672 43.46875 59.25 C 43.46875 60.432393 42.526152 61.40625 41.34375 61.40625 C 40.160946 61.40625 39.1875 60.432402 39.1875 59.25 C 39.1875 58.06719 40.16095 57.125 41.34375 57.125 z " transform="scale(0.51749733,0.51749733)" id="path2953"/><path style="fill:#000000" d="M 38.841343,34.48365 39.050412,34.274581 C 39.280182,34.044812 39.280182,33.668694 39.050412,33.438926 L 28.915325,23.303838 C 28.685555,23.073862 28.309231,23.073862 28.079463,23.303838 L 27.870394,23.5127 C 27.640624,23.742676 27.640624,24.118793 27.870394,24.348769 L 38.005481,34.483652 C 38.235251,34.713628 38.611575,34.713628 38.841343,34.483652 z" id="path2951"/></svg>