<?xml version="1.0" encoding="utf-8"?>
<!-- Generator: Adobe Illustrator 15.1.0, SVG Export Plug-In . SVG Version: 6.00 Build 0)  -->
<!DOCTYPE svg PUBLIC "-//W3C//DTD SVG 1.1//EN" "http://www.w3.org/Graphics/SVG/1.1/DTD/svg11.dtd">
<svg version="1.1" id="Layer_1" xmlns="http://www.w3.org/2000/svg" xmlns:xlink="http://www.w3.org/1999/xlink" x="0px" y="0px"
	 width="100px" height="35.94px" viewBox="0 0 100 35.94" enable-background="new 0 0 100 35.94" xml:space="preserve">
<path d="M100,17.94h-0.002C99.952,9.458,90.134,0,77,0c-6.203,0-10.941,1.471-15.354,4.766L50,13.014v-0.028L38.352,4.764
	C33.939,1.47,29.202,0,23,0C9.866,0,0.048,9.458,0.002,17.94H0c0,0.01,0.001,0.02,0.001,0.029C0.001,17.98,0,17.99,0,18h0.002
	C0.048,26.482,9.866,35.94,23,35.94c6.203,0,10.941-1.471,15.354-4.766L50,22.927v0.028l11.648,8.222
	C66.061,34.471,70.798,35.94,77,35.94c13.134,0,22.952-9.458,22.998-17.94H100c0-0.01-0.001-0.02-0.001-0.029
	C99.999,17.96,100,17.95,100,17.94z M33.688,24.677L33.6,24.74c-3.03,2.273-6.102,3.2-10.6,3.2c-9.133,0-14.965-6.529-14.997-9.971
	C8.035,14.529,13.867,8,23,8c4.498,0,7.569,0.927,10.6,3.2l9.573,6.758L33.688,24.677z M77,27.94c-4.498,0-7.569-0.927-10.6-3.2
	l-9.573-6.758l9.485-6.719L66.4,11.2C69.431,8.927,72.502,8,77,8c9.133,0,14.965,6.529,14.997,9.971
	C91.965,21.411,86.133,27.94,77,27.94z"/>
</svg>
