<svg xmlns="http://www.w3.org/2000/svg" xmlns:xlink="http://www.w3.org/1999/xlink" version="1.1" id="Layer_1" x="0px" y="0px" width="100px" height="100px" viewBox="0 0 100 100" enable-background="new 0 0 100 100" xml:space="preserve">
<g>
	<polygon points="0,26.716 2.312,37.865 19.361,34.331 7.485,25.163  "/>
	<polygon points="17.841,23.017 29.716,32.185 40.549,29.939 28.675,20.771  "/>
	<polygon points="39.027,18.625 50.904,27.793 61.736,25.546 49.861,16.378  "/>
	<polygon points="60.217,14.231 72.092,23.399 82.925,21.153 71.05,11.985  "/>
	<polygon points="95.585,6.899 81.404,9.838 93.279,19.007 97.896,18.05  "/>
</g>
<g>
	<path d="M99.93,49.261V37.873h-4.715l-9.768,11.388H74.872l9.769-11.388H73.576l-9.766,11.388H53.232l9.77-11.388H51.938   L42.17,49.261H31.596l9.767-11.388H30.3l-9.769,11.388H9.957l9.767-11.388H2.312v11.388v39.891c0,2.182,1.768,3.949,3.948,3.949   h89.791c2.182,0,3.949-1.77,3.949-3.949V49.261H99.93z"/>
</g>
</svg>