<svg xmlns:dc="http://purl.org/dc/elements/1.1/" xmlns:cc="http://creativecommons.org/ns#" xmlns:rdf="http://www.w3.org/1999/02/22-rdf-syntax-ns#" xmlns:svg="http://www.w3.org/2000/svg" xmlns="http://www.w3.org/2000/svg" version="1.0" width="100" height="100" viewBox="0 0 100 100" id="Layer_1" xml:space="preserve"><metadata id="metadata9"><rdf:RDF><cc:Work rdf:about=""><dc:format>image/svg+xml</dc:format><dc:type rdf:resource="http://purl.org/dc/dcmitype/StillImage"/><dc:title/></cc:Work></rdf:RDF></metadata><defs id="defs7"/>

<path d="M 49.511721,0 45.3125,17.285159 C 28.764306,20.128345 19.108579,31.410786 17.089844,47.460927 L 26.5625,46.093749 c 2.106423,-9.851849 8.000269,-15.779016 16.406249,-18.75 L 38.867188,44.238275 49.511721,50 l 0,-50 z m 0,50 9.375,0 40.624993,0 -16.796875,-2.441402 C 81.376139,31.186988 69.309837,19.266047 53.710937,17.285159 l 2.343751,10.05859 c 9.081863,2.788635 14.864977,8.660714 17.1875,18.75 L 60.253908,44.238275 49.511721,50 z m 0,0 0,50 2.246091,-17.1875 c 16.573615,-0.91 29.880315,-14.135063 30.957027,-30.664063 l -9.375,1.269534 C 71.842312,63.889965 63.450202,72.0875 52.929688,73.4375 L 55.273437,55.761721 49.511721,50 z m 0,0 L 1.5625,50 0,50.097649 17.089844,52.246096 c 1.101898,16.217994 14.005144,29.195749 30.175781,30.468743 l -1.171876,-9.375 C 35.982512,71.692841 27.961327,63.676625 26.464843,53.515625 L 43.75,55.761721 49.511721,50 z m 2.832028,-23.632812 0,18.164051 4.296876,-2.148427 -4.296876,-16.015624 z m -5.957028,0.09763 0,17.871098 -3.710937,-1.953124 3.710937,-15.917974 z" id="path3"/></svg>