<svg xmlns="http://www.w3.org/2000/svg" xmlns:xlink="http://www.w3.org/1999/xlink" version="1.1" id="Layer_1" x="0px" y="0px" width="100.0px" height="100px" viewBox="0 0 250 250" enable-background="new 0 0 250 250" xml:space="preserve">
<g>
	<path d="M86.149,82.523l9.737-9.737l-5.612-5.611c0,0-10.396-11.553-0.741-21.208c0,0,10.479-11.8,38.123-7.427l5.693-5.528   c0,0-42.909-22.61-72.203,6.684c0,0-9.696,8.045-9.695,14.399c0,0-1.402,15.266-15.844,15.267c0,0-2.396-2.392-4.086-0.702   L20.877,79.304c-2.097,2.097,1.284,8.876,7.551,15.142c6.266,6.266,13.045,9.647,15.142,7.55l10.644-10.644   c0,0,1.073-1.567,0-2.641c0,0-2.888-2.887,0.413-6.188c3.301-3.3,9.573-9.572,9.573-9.572s6.023-6.354,18.154,5.776   C83.437,79.81,84.721,81.094,86.149,82.523z"/>
	<path d="M224.7,197.969c-8.17-8.17-78.807-78.807-78.807-78.807s-4.374-5.198-6.602-2.97L97.626,74.527l-9.737,9.736   c15.114,15.114,43.149,43.15,43.149,43.15s-6.023,5.694,14.194,25.912c20.217,20.217,20.217,20.217,20.217,20.217l41.094,41.094   c0,0,5.033,14.442,9.738,9.737c5.383-5.383,12.377-12.378,12.377-12.378S232.868,206.137,224.7,197.969z"/>
</g>
</svg>