<svg xmlns="http://www.w3.org/2000/svg" xmlns:xlink="http://www.w3.org/1999/xlink" version="1.1" id="Layer_1" x="0px" y="0px" width="100px" height="60.214px" viewBox="0 0 100 60.214" enable-background="new 0 0 100 60.214" xml:space="preserve">
<path fill="#000000" d="M61.027,25.011v32.143h34.975V25.011H61.027z M70.501,41.205h-7.505v-7.389h7.505V41.205z M82.174,41.205  h-7.505v-7.389h7.505V41.205z M93.846,41.205h-7.504v-7.389h7.504V41.205z"/>
<path fill="#000000" d="M4.008,25.011v32.143h20.813V25.011H4.008z M12.75,41.205H6.1v-7.389h6.65V41.205z M22.171,41.205h-6.65  v-7.389h6.65V41.205z"/>
<path fill="#000000" d="M42.307,7.153V2.227h-10.53v4.926h-5.478v50.001h11.946V47.24h9.358v9.914H59.55V7.153H42.307z   M35.657,41.205h-6.65v-7.389h6.65V41.205z M35.657,29.198h-6.65v-7.389h6.65V29.198z M46.001,41.205h-6.65v-7.389h6.65V41.205z   M46.001,29.198h-6.65v-7.389h6.65V29.198z M46.264,15.248h-2.357v2.355h-1.965v-2.357h-2.357v-1.965h2.357v-2.357h1.965v2.358  h2.357V15.248z M56.348,41.205h-6.652v-7.389h6.652V41.205z M56.348,29.198h-6.652v-7.389h6.652V29.198z"/>
</svg>