<svg xmlns="http://www.w3.org/2000/svg" xmlns:xlink="http://www.w3.org/1999/xlink" version="1.1" id="Layer_1" x="0px" y="0px" width="100.0px" height="100px" viewBox="0 0 250 250" enable-background="new 0 0 250 250" xml:space="preserve">
<path d="M90.076,103.584H25.374c-10.975,0-19.872,6.538-19.872,14.602s8.897,14.602,19.872,14.602h64.702  c10.975,0,19.872-6.538,19.872-14.602S101.051,103.584,90.076,103.584z"/>
<path d="M224.627,103.583h-64.701c-10.977,0-19.873,6.538-19.873,14.602s8.896,14.602,19.873,14.602h64.701  c10.975,0,19.871-6.538,19.871-14.602S235.602,103.583,224.627,103.583z"/>
<g>
	<path d="M92.187,100.564c3.24-2.066,7.085-3.269,11.213-3.269H146.6c4.129,0,7.973,1.203,11.213,3.269h26.127   c-6.656-14.326-21.162-24.263-37.998-24.263h-41.883c-16.835,0-31.342,9.938-37.997,24.263H92.187z"/>
	<path d="M157.812,135.807c-3.24,2.065-7.084,3.269-11.213,3.269H103.4c-4.127,0-7.972-1.203-11.212-3.269H66.062   c6.655,14.325,21.162,24.263,37.997,24.263h41.883c16.836,0,31.342-9.938,37.998-24.263H157.812z"/>
</g>
</svg>