<svg xmlns="http://www.w3.org/2000/svg" xmlns:xlink="http://www.w3.org/1999/xlink" version="1.1" id="Layer_1" x="0px" y="0px" width="70.7491082045px" height="100px" viewBox="0 0 595.279 841.89" enable-background="new 0 0 595.279 841.89" xml:space="preserve">
<polygon fill="#000000" points="296.625,393.799 291.343,393.799 291.343,393.502 287.264,393.502 287.264,429.443 291.343,429.443   291.343,395.731 296.625,395.731 "/>
<polygon fill="#000000" points="283.814,414.143 283.814,443.724 247.492,443.724 247.492,444.363 263.373,445.41 283.814,445.41   285.687,445.41 285.687,443.724 285.687,414.143 "/>
<path fill="#000000" d="M339.815,433.562c-4.239,0-7.676,3.438-7.676,7.676c0,4.24,3.437,7.678,7.676,7.678  c4.24,0,7.677-3.438,7.677-7.678C347.491,437,344.056,433.562,339.815,433.562z M339.815,445.671c-2.449,0-4.434-1.984-4.434-4.434  c0-2.447,1.982-4.436,4.434-4.436s4.434,1.984,4.434,4.436C344.249,443.687,342.265,445.671,339.815,445.671z"/>
<path fill="#000000" d="M296.463,430.378c-5.118,0-9.269,4.15-9.269,9.27c0,5.117,4.148,9.268,9.269,9.268  c5.118,0,9.269-4.148,9.269-9.268S301.581,430.378,296.463,430.378z M296.463,444.695c-2.788,0-5.048-2.26-5.048-5.047  c0-2.789,2.26-5.049,5.048-5.049s5.049,2.26,5.049,5.049C301.511,442.435,299.251,444.695,296.463,444.695z"/>
<path fill="#000000" d="M326.223,420.171c0,0-0.562-8.051-0.562-10.11c0-2.059-2.246-0.937-2.246-0.937l-3.558,8.613  c0,0-3.745-0.938-5.991-0.375c-2.246,0.562-0.749,3.744-0.749,3.744l0.517,0.561h12.497L326.223,420.171z"/>
<rect x="308.033" y="441.496" fill="#000000" width="21.318" height="4.795"/>
<path fill="#000000" d="M346.101,424.718c0.186-5.429-5.431-5.803-5.431-5.803l-6.244,0.15l0.162-0.65l-1.222-23.451  c0,0-0.936-2.894-2.995-2.701c-2.059,0.193-20.596,0-20.596,0s-1.949,0.94-3.355,2.258c-0.19,0.178-0.372,0.362-0.537,0.553  c-0.022,0.082-0.052,0.174-0.08,0.274c-1.011,3.354-5.1,16.928-6.757,22.11l-0.128-0.043l-2.81,6.366v3.932l-4.306,0.189v1.498  c15.352-1.498,16.289,11.605,16.289,11.605h0.252h21.277l0.075-0.312c0,0,1.142-9.111,10.412-8.785h6.086L346.101,424.718z   M307.719,430.335l-4.119-2.434l0.75-4.867l1.497-0.75l-0.188-2.622l-4.956-1.652l6.481-22.681l22.812-0.317v27.273h-1.688H315.81  h-3.51c-2.128,1.045-1.792,5.215-1.256,8.154l-1.056-0.033L307.719,430.335z"/>
</svg>