<svg xmlns:x="http://ns.adobe.com/Extensibility/1.0/" xmlns:i="http://ns.adobe.com/AdobeIllustrator/10.0/" xmlns:graph="http://ns.adobe.com/Graphs/1.0/" xmlns="http://www.w3.org/2000/svg" xmlns:xlink="http://www.w3.org/1999/xlink" xmlns:a="http://ns.adobe.com/AdobeSVGViewerExtensions/3.0/" version="1.0" id="Layer_1" x="0px" y="0px" width="100px" height="100px" viewBox="0 0 100 100" enable-background="new 0 0 100 100" xml:space="preserve">
<g>
	<path d="M12.605,18.607c1.902,3.184,7.109,5.762,10.005,5.957c0.617,0.042,0.554,0.969-0.062,0.926   c-3.046-0.206-8.382-2.773-10.585-6.162c-1.951,0.183-4.701,1.504-2.526,3.074c2.324,1.677,5.394,2.957,9.59,5.758   c1.097,0.732,1.179,0.732,1.751,1.183c1.718,1.104,4.113-0.086,4.951-0.696c2.717-1.977,3.724-6.751-0.583-8.932   c-2.232-1.129-1.034-5.334-0.012-7.983c-0.485,0.146-1.052,0.245-1.744,0.287c-7.855,0.475-12.308-4.555-13.387-2.347   c-0.476,0.975,0.579,5.16,1.644,7.198c0.288,0.551,0.535,0.98,0.725,1.315l0.141,0.261l0.086,0.149L12.605,18.607L12.605,18.607z    M29.045,15.748c0.887,1.222,3.305,0.978,5.399-0.544c2.094-1.521,3.072-3.745,2.185-4.966c-0.888-1.222-3.305-0.978-5.399,0.544   C29.136,12.303,28.158,14.526,29.045,15.748L29.045,15.748z M51.254,50.764c6.467,0.26,11.432,1.041,17.635,2.154   c3.885,0.697,8.996,1.627,11.303-2.672c1.834-3.42,4.703-10.432,9.438-10.015c7.191,0.633,9.273,15.21,5.68,27.683   c-2.445,8.48-5.363,15.27-10.391,19.869c-12.516,10.34-25.436,10.857-41.03,10.539C17.859,97.789,3.123,88.557,2.967,69.385   C2.895,60.529,8.101,52.352,16.28,46.778c4.176-2.623,6.246-6.15,6.246-11.07c0-3.3-1.065-4.721-4.029-6.786   c-4.146-2.889-7.276-4.088-9.603-5.768c-3.172-2.289,0.455-4.369,2.568-4.697c-1.592-2.79-5.452-12.508,1.521-9.75   c3.687,1.458,10.201,4.165,13.653,1.093c1.914-1.702,3.852-3.019,6.231-4.031c0.377-0.161,0.719-0.441,0.926-0.797   c1.053-1.902,3.635-3.358,6.583-3.358c0.787,0,1.581,0.092,2.284,0.247c13.496,2.721,24.451,14.547,24.451,26.89   C67.111,38.334,60.783,46.272,51.254,50.764L51.254,50.764z M31.356,13.311c0.15,0.332,0.659,0.377,1.137,0.099   s0.745-0.772,0.595-1.105c-0.15-0.332-0.659-0.376-1.137-0.099S31.207,12.977,31.356,13.311L31.356,13.311z M29.346,15.153   c-0.429-0.954,0.334-2.374,1.707-3.17c1.372-0.796,2.832-0.669,3.261,0.286c0.429,0.954-0.334,2.374-1.707,3.169   C31.235,16.235,29.775,16.108,29.346,15.153L29.346,15.153z"/>
</g>
</svg>