<?xml version="1.0" encoding="utf-8"?>
<!-- Generator: Adobe Illustrator 15.1.0, SVG Export Plug-In . SVG Version: 6.00 Build 0)  -->
<!DOCTYPE svg PUBLIC "-//W3C//DTD SVG 1.1//EN" "http://www.w3.org/Graphics/SVG/1.1/DTD/svg11.dtd">
<svg version="1.1" id="Layer_1" xmlns="http://www.w3.org/2000/svg" xmlns:xlink="http://www.w3.org/1999/xlink" x="0px" y="0px"
	 width="46px" height="100px" viewBox="0 0 46 100" enable-background="new 0 0 46 100" xml:space="preserve">
<path d="M0,2.486c0,0,0-1.243,1.243-1.243c2.78,0,5.569,1.243,7.46,1.243C11.189,2.486,14.919,0,18.648,0
	C27.352,0,32.324,0,46,16.162h-3.729C31.081,7.459,28.486,3.567,26,16H14c0,0-1-10-9-6c-0.877,0.438-1.271,1.189-3.757,1.189
	C0,11.189,0,9.946,0,9.946C0,8.703,0,2.486,0,2.486z"/>
<path d="M26,22c0-1-1-2-2-2c-0.859,0-2.457,0-4,0s-3.141,0-4,0c-1,0-2,1-2,2c0,4.54,1,11.753,1,20c0,20.893-1,48.428-1,56
	c0,1,1,2,2,2c0.743,0,2.317,0,4,0s3.257,0,4,0c1,0,2-1,2-2c0-7.572-1-35.107-1-56C25,33.753,26,26.54,26,22z"/>
</svg>
