<svg xmlns="http://www.w3.org/2000/svg" xmlns:xlink="http://www.w3.org/1999/xlink" version="1.1" id="Layer_1" x="0px" y="0px" width="100.0px" height="100px" viewBox="0 0 102 102" enable-background="new 0 0 102 102" xml:space="preserve">
<g>
	<path d="M47.687,61.421c-9.783-4.153-18.271-9.339-24.81-15.123c-0.864,1.574-1.665,3.216-2.39,4.922   c-8.033,18.922-4.08,38.959,8.662,46.509c-0.029,0.059,0.334,2.492,1.801,3.114c1.466,0.623,3.469-0.807,3.491-0.867   c14.281,3.923,31.441-7.15,39.476-26.073c0.725-1.706,1.35-3.423,1.882-5.138C67.096,68.079,57.47,65.573,47.687,61.421z"/>
	<path d="M84.634,58.192c-0.043,0.243-0.05,0.279,0.003-0.003c2.194-12.078,0.292-1.612,0-0.002   c2.531-13.935-5.867-27.897-18.566-34.295c0.97-2.988,3.646-11.116,5.329-15.079c0.698-1.643,1.243-3.715,0.476-5.431   c-0.736-1.646-2.498-2.319-4.199-2.376c-5.288-0.175-4.396,3.459-3.568,8.446c0.664,4.003-1.478,10.123-2.438,12.589   c-13.372-4.561-29.106-0.877-37.321,10.553c-1.27,1.769-2.346,3.703-3.187,5.756c-0.473,1.153-0.245,2.377,0.619,3.251   c6.518,6.595,15.917,12.68,26.949,17.365c11.035,4.685,21.939,7.22,31.209,7.328c1.229,0.014,2.269-0.673,2.771-1.813   C83.601,62.45,84.246,60.333,84.634,58.192z"/>
</g>
</svg>