<svg xmlns:x="http://ns.adobe.com/Extensibility/1.0/" xmlns:i="http://ns.adobe.com/AdobeIllustrator/10.0/" xmlns:graph="http://ns.adobe.com/Graphs/1.0/" xmlns="http://www.w3.org/2000/svg" xmlns:xlink="http://www.w3.org/1999/xlink" xmlns:a="http://ns.adobe.com/AdobeSVGViewerExtensions/3.0/" version="1.0" id="Layer_1" x="0px" y="0px" width="100px" height="100px" viewBox="0 0 100 100" enable-background="new 0 0 100 100" xml:space="preserve">
<g>
	<path d="M32.86,15.852c-0.204-0.21-0.512-0.356-0.782-0.219c-0.083,0.043-0.154,0.109-0.204,0.195   c-0.105,0.176-0.111,0.404-0.063,0.603c0.097,0.403,0.439,0.803,0.824,0.834c0.092,0.007,0.182-0.008,0.267-0.05   c0.084-0.042,0.154-0.108,0.206-0.194c0.104-0.177,0.111-0.404,0.063-0.604c-0.025-0.105-0.065-0.207-0.119-0.303   C32.997,16.015,32.933,15.928,32.86,15.852L32.86,15.852z M35.115,15.027c0.044-0.325-0.106-0.666-0.309-0.887   c-0.198-0.216-0.502-0.379-0.778-0.26c-0.087,0.037-0.158,0.098-0.215,0.181c-0.244,0.362-0.049,0.886,0.207,1.167   c0.072,0.08,0.152,0.146,0.237,0.198c0.164,0.095,0.363,0.138,0.541,0.063c0.086-0.037,0.16-0.099,0.215-0.183   C35.068,15.225,35.102,15.129,35.115,15.027L35.115,15.027z M37.241,17.995c0.29,0.072,0.562-0.078,0.641-0.41   c0.072-0.32-0.054-0.664-0.244-0.902c-0.238-0.297-0.702-0.53-1-0.195c-0.064,0.074-0.108,0.164-0.132,0.263   c-0.023,0.1-0.026,0.205-0.014,0.311c0.029,0.219,0.125,0.427,0.257,0.592c0.068,0.084,0.144,0.157,0.229,0.216   C37.062,17.93,37.15,17.973,37.241,17.995L37.241,17.995z M36.341,20.61c0.116,0.298,0.354,0.563,0.638,0.654   c0.092,0.028,0.184,0.038,0.274,0.022c0.187-0.033,0.336-0.175,0.396-0.374c0.158-0.512-0.245-1.133-0.68-1.273   c-0.091-0.029-0.183-0.039-0.274-0.024c-0.187,0.034-0.336,0.174-0.398,0.374c-0.029,0.098-0.038,0.201-0.029,0.308   C36.277,20.404,36.302,20.509,36.341,20.61L36.341,20.61z M33.558,19.227c-0.262,0.174-0.291,0.538-0.202,0.833   c0.096,0.312,0.316,0.593,0.591,0.715c0.386,0.173,0.772-0.047,0.782-0.537c0.001-0.104-0.016-0.21-0.046-0.315   c-0.032-0.105-0.077-0.204-0.135-0.298c-0.113-0.18-0.271-0.334-0.456-0.417c-0.09-0.04-0.182-0.062-0.274-0.06   C33.726,19.15,33.637,19.175,33.558,19.227L33.558,19.227z M42.027,78.395c-0.202,0.096-0.339,0.305-0.341,0.529   c0,0.227,0.139,0.43,0.358,0.5c0.372,0.121,0.764-0.176,0.769-0.561c0-0.074-0.014-0.148-0.042-0.215   c-0.059-0.137-0.175-0.242-0.315-0.289c-0.07-0.023-0.144-0.029-0.218-0.023C42.164,78.342,42.093,78.361,42.027,78.395   L42.027,78.395z M36.749,79.164c-0.216-0.07-0.453,0.002-0.606,0.166c-0.153,0.166-0.211,0.4-0.12,0.611   c0.162,0.381,0.653,0.404,0.92,0.125c0.051-0.055,0.092-0.117,0.12-0.184c0.056-0.137,0.059-0.295,0.001-0.432   c-0.029-0.066-0.072-0.129-0.127-0.178C36.882,79.225,36.818,79.189,36.749,79.164L36.749,79.164z M37.279,76.922   c-0.185-0.135-0.431-0.129-0.624-0.016c-0.19,0.119-0.312,0.332-0.291,0.559c0.038,0.414,0.49,0.59,0.831,0.387   c0.064-0.037,0.119-0.086,0.166-0.145c0.091-0.113,0.14-0.264,0.126-0.412c-0.007-0.072-0.029-0.143-0.064-0.209   C37.387,77.021,37.338,76.969,37.279,76.922L37.279,76.922z M38.432,74.879c-0.132-0.188-0.368-0.258-0.586-0.199   c-0.216,0.062-0.388,0.236-0.435,0.457c-0.084,0.406,0.276,0.725,0.669,0.619c0.071-0.02,0.138-0.051,0.198-0.096   c0.119-0.086,0.206-0.217,0.237-0.361c0.016-0.072,0.017-0.146,0.002-0.219S38.474,74.939,38.432,74.879L38.432,74.879z    M40.223,73.283c-0.046-0.227-0.229-0.387-0.458-0.41c-0.225-0.023-0.443,0.084-0.565,0.275c-0.218,0.34-0.038,0.783,0.373,0.834   c0.073,0.008,0.147,0.002,0.218-0.018c0.142-0.041,0.269-0.135,0.349-0.26c0.04-0.061,0.068-0.131,0.083-0.203   S40.238,73.355,40.223,73.283L40.223,73.283z M42.465,72.461c0.054-0.223-0.03-0.453-0.224-0.574   c-0.194-0.123-0.438-0.107-0.624,0.02c-0.322,0.219-0.371,0.705-0.025,0.93c0.062,0.039,0.131,0.064,0.203,0.076   c0.147,0.021,0.3-0.014,0.421-0.1c0.061-0.041,0.114-0.092,0.157-0.154C42.416,72.6,42.447,72.533,42.465,72.461L42.465,72.461z    M44.771,72.746c0.148-0.168,0.193-0.412,0.094-0.617c-0.103-0.205-0.32-0.314-0.546-0.287c-0.382,0.049-0.646,0.463-0.475,0.82   c0.032,0.066,0.077,0.125,0.133,0.174c0.116,0.092,0.267,0.133,0.414,0.115c0.073-0.01,0.144-0.033,0.209-0.066   C44.664,72.85,44.723,72.803,44.771,72.746L44.771,72.746z M46.61,74.029c0.201-0.1,0.338-0.307,0.34-0.529   c0-0.23-0.138-0.43-0.358-0.502c-0.372-0.121-0.764,0.176-0.769,0.561c0,0.076,0.013,0.146,0.042,0.215   c0.059,0.135,0.176,0.242,0.316,0.287c0.07,0.023,0.144,0.031,0.218,0.025C46.472,74.08,46.543,74.061,46.61,74.029L46.61,74.029z    M47.706,75.945c0.225-0.02,0.422-0.17,0.505-0.377c0.027-0.07,0.043-0.143,0.043-0.217c0-0.146-0.064-0.289-0.174-0.389   c-0.3-0.268-0.767-0.109-0.912,0.246c-0.027,0.068-0.042,0.139-0.043,0.215c0.001,0.148,0.063,0.293,0.173,0.391   c0.055,0.049,0.12,0.086,0.19,0.107C47.56,75.945,47.632,75.951,47.706,75.945L47.706,75.945z M48.053,78.152   c0.22,0.053,0.451-0.033,0.595-0.205c0.142-0.174,0.184-0.416,0.077-0.619c-0.189-0.363-0.681-0.355-0.93-0.057   c-0.047,0.055-0.083,0.117-0.107,0.189c-0.046,0.141-0.04,0.297,0.029,0.428c0.035,0.066,0.083,0.123,0.14,0.166   C47.916,78.102,47.98,78.133,48.053,78.152L48.053,78.152z M47.764,80.396c0.198,0.115,0.443,0.086,0.624-0.049   c0.179-0.135,0.278-0.357,0.233-0.582c-0.083-0.406-0.555-0.529-0.872-0.297c-0.06,0.045-0.11,0.1-0.151,0.16   c-0.079,0.125-0.112,0.277-0.083,0.424c0.015,0.072,0.045,0.139,0.088,0.197C47.646,80.311,47.701,80.361,47.764,80.396   L47.764,80.396z M46.827,82.533c0.153,0.17,0.395,0.213,0.606,0.135c0.209-0.084,0.364-0.271,0.387-0.5   c0.043-0.412-0.356-0.684-0.733-0.541c-0.069,0.025-0.132,0.064-0.188,0.113c-0.11,0.098-0.185,0.236-0.2,0.383   c-0.007,0.074,0,0.148,0.021,0.219C46.742,82.412,46.778,82.475,46.827,82.533L46.827,82.533z M45.232,84.309   c0.075,0.217,0.28,0.352,0.508,0.35c0.225-0.006,0.432-0.137,0.531-0.34c0.18-0.363-0.062-0.781-0.475-0.777   c-0.074,0-0.147,0.016-0.215,0.043c-0.137,0.059-0.252,0.162-0.317,0.295c-0.033,0.068-0.053,0.139-0.059,0.213   C45.201,84.166,45.209,84.238,45.232,84.309L45.232,84.309z M43.113,85.438c-0.019,0.23,0.104,0.441,0.316,0.529   c0.068,0.029,0.141,0.045,0.214,0.045c0.147,0,0.292-0.062,0.401-0.16c0.29-0.268,0.258-0.752-0.122-0.916   c-0.068-0.027-0.141-0.043-0.214-0.043c-0.148,0.002-0.293,0.059-0.403,0.16c-0.054,0.051-0.099,0.109-0.132,0.176   C43.141,85.295,43.119,85.367,43.113,85.438L43.113,85.438z M40.758,85.537c-0.119,0.191-0.122,0.436,0.016,0.621   c0.14,0.182,0.374,0.248,0.591,0.184c0.369-0.111,0.568-0.561,0.329-0.883c-0.044-0.061-0.1-0.111-0.165-0.145   c-0.129-0.07-0.286-0.084-0.427-0.041c-0.071,0.021-0.137,0.053-0.196,0.1C40.848,85.418,40.798,85.473,40.758,85.537   L40.758,85.537z M38.735,84.551c-0.188,0.121-0.304,0.342-0.276,0.564c0.03,0.229,0.194,0.408,0.42,0.451   c0.382,0.072,0.743-0.264,0.699-0.648c-0.009-0.074-0.032-0.143-0.069-0.207c-0.076-0.127-0.206-0.215-0.351-0.244   c-0.073-0.014-0.147-0.012-0.219,0.002C38.866,84.484,38.798,84.512,38.735,84.551L38.735,84.551z M37.388,82.797   c-0.221,0.045-0.403,0.209-0.466,0.426c-0.063,0.219,0.006,0.453,0.196,0.588c0.326,0.229,0.776,0.027,0.884-0.34   c0.021-0.072,0.028-0.145,0.021-0.217c-0.018-0.148-0.096-0.285-0.217-0.369c-0.06-0.043-0.128-0.072-0.201-0.088   C37.534,82.783,37.46,82.783,37.388,82.797L37.388,82.797z M38.616,78.488c-0.209-0.088-0.451-0.037-0.617,0.113   c-0.166,0.152-0.243,0.383-0.172,0.602c0.127,0.395,0.611,0.463,0.902,0.203c0.055-0.049,0.1-0.109,0.134-0.174   c0.067-0.131,0.084-0.289,0.039-0.43c-0.022-0.068-0.06-0.133-0.11-0.186C38.742,78.562,38.683,78.518,38.616,78.488L38.616,78.488   z M39.489,76.459c-0.149-0.174-0.391-0.223-0.603-0.145c-0.21,0.078-0.369,0.266-0.395,0.492c-0.05,0.41,0.343,0.689,0.723,0.555   c0.07-0.025,0.134-0.062,0.191-0.111c0.111-0.096,0.188-0.232,0.206-0.379c0.008-0.074,0.003-0.148-0.018-0.219   S39.538,76.518,39.489,76.459L39.489,76.459z M41.2,74.955c-0.034-0.229-0.207-0.4-0.435-0.438   c-0.223-0.033-0.447,0.066-0.578,0.25c-0.233,0.326-0.081,0.785,0.329,0.854c0.073,0.012,0.146,0.008,0.218-0.006   c0.144-0.035,0.274-0.123,0.36-0.242c0.043-0.061,0.074-0.127,0.093-0.199C41.206,75.104,41.21,75.027,41.2,74.955L41.2,74.955z    M43.443,74.584c0.106-0.201,0.091-0.445-0.061-0.617c-0.153-0.172-0.392-0.223-0.604-0.141c-0.361,0.133-0.531,0.594-0.267,0.898   c0.048,0.057,0.107,0.102,0.175,0.133c0.134,0.061,0.292,0.062,0.43,0.01c0.07-0.025,0.133-0.062,0.189-0.111   C43.362,74.705,43.408,74.648,43.443,74.584L43.443,74.584z M45.294,75.666c0.2-0.102,0.333-0.311,0.332-0.535   c-0.004-0.229-0.146-0.428-0.368-0.494c-0.374-0.115-0.761,0.188-0.759,0.574c0.001,0.072,0.017,0.145,0.046,0.215   c0.061,0.133,0.18,0.236,0.321,0.279c0.07,0.023,0.144,0.029,0.218,0.021S45.229,75.699,45.294,75.666L45.294,75.666z    M46.192,77.564c0.226,0.002,0.435-0.127,0.54-0.328c0.102-0.201,0.088-0.443-0.066-0.615c-0.27-0.303-0.749-0.188-0.928,0.15   c-0.035,0.066-0.057,0.135-0.065,0.211c-0.015,0.146,0.03,0.297,0.128,0.406c0.049,0.057,0.11,0.1,0.177,0.129   S46.119,77.562,46.192,77.564L46.192,77.564z M46.133,79.709c0.204,0.104,0.447,0.061,0.621-0.08   c0.172-0.145,0.262-0.373,0.204-0.594c-0.105-0.4-0.584-0.496-0.888-0.25c-0.058,0.047-0.106,0.104-0.144,0.166   c-0.073,0.129-0.098,0.283-0.061,0.428c0.019,0.07,0.052,0.137,0.099,0.193C46.01,79.631,46.067,79.678,46.133,79.709   L46.133,79.709z M45.21,81.709c0.144,0.18,0.382,0.236,0.598,0.168c0.213-0.072,0.376-0.254,0.411-0.477   c0.064-0.412-0.316-0.707-0.702-0.582c-0.07,0.021-0.136,0.057-0.194,0.104c-0.115,0.092-0.196,0.227-0.218,0.373   c-0.012,0.072-0.008,0.146,0.01,0.219S45.165,81.65,45.21,81.709L45.21,81.709z M43.481,83.172c0.029,0.229,0.2,0.404,0.425,0.445   c0.073,0.014,0.147,0.012,0.219-0.002c0.583-0.123,0.666-0.982,0.05-1.098c-0.072-0.012-0.146-0.01-0.219,0.004   c-0.145,0.031-0.276,0.115-0.364,0.234c-0.044,0.061-0.077,0.127-0.096,0.197C43.479,83.025,43.472,83.098,43.481,83.172   L43.481,83.172z M41.23,83.465c-0.113,0.195-0.106,0.441,0.038,0.621c0.146,0.176,0.383,0.232,0.598,0.16   c0.365-0.121,0.55-0.578,0.297-0.893c-0.046-0.057-0.103-0.104-0.169-0.137c-0.132-0.064-0.29-0.074-0.43-0.027   c-0.07,0.023-0.134,0.061-0.192,0.107C41.315,83.346,41.267,83.4,41.23,83.465L41.23,83.465z M39.409,82.316   c-0.202,0.1-0.339,0.305-0.34,0.531c0,0.229,0.139,0.43,0.358,0.502c0.372,0.121,0.764-0.178,0.769-0.564   c0-0.072-0.014-0.146-0.042-0.213c-0.059-0.137-0.176-0.244-0.316-0.289c-0.07-0.021-0.144-0.029-0.217-0.023   C39.546,82.266,39.476,82.285,39.409,82.316L39.409,82.316z M40.468,78.955c-0.22-0.057-0.452,0.031-0.594,0.203   c-0.143,0.178-0.183,0.416-0.075,0.619c0.19,0.367,0.681,0.357,0.929,0.059c0.047-0.057,0.083-0.121,0.107-0.189   c0.047-0.141,0.038-0.297-0.03-0.43c-0.035-0.066-0.083-0.121-0.14-0.166C40.605,79.004,40.539,78.973,40.468,78.955L40.468,78.955   z M41.922,76.963c-0.047-0.229-0.231-0.389-0.458-0.414c-0.225-0.021-0.445,0.086-0.565,0.277   c-0.217,0.338-0.035,0.785,0.375,0.832c0.074,0.008,0.148,0.002,0.219-0.016c0.142-0.041,0.269-0.135,0.348-0.26   c0.04-0.062,0.068-0.131,0.082-0.205C41.936,77.105,41.937,77.033,41.922,76.963L41.922,76.963z M44.163,77.887   c0.213-0.066,0.377-0.252,0.414-0.477c0.035-0.225-0.065-0.445-0.271-0.553c-0.351-0.184-0.777,0.062-0.841,0.441   c-0.011,0.072-0.009,0.148,0.007,0.219c0.036,0.143,0.133,0.268,0.263,0.336c0.065,0.033,0.137,0.055,0.21,0.061   S44.092,77.91,44.163,77.887L44.163,77.887z M43.878,80.266c0.168,0.158,0.413,0.182,0.617,0.082   c0.202-0.098,0.342-0.301,0.344-0.525c0.006-0.416-0.421-0.646-0.782-0.475c-0.067,0.031-0.127,0.074-0.179,0.127   c-0.102,0.107-0.165,0.252-0.167,0.398c-0.001,0.074,0.014,0.148,0.042,0.215C43.783,80.156,43.824,80.217,43.878,80.266   L43.878,80.266z M41.528,81.123c-0.119,0.193-0.12,0.441,0.018,0.623c0.14,0.184,0.375,0.248,0.593,0.184   c0.369-0.111,0.565-0.562,0.325-0.885c-0.043-0.061-0.1-0.107-0.165-0.145c-0.13-0.07-0.286-0.082-0.428-0.041   c-0.071,0.021-0.136,0.057-0.196,0.102C41.617,81.006,41.566,81.061,41.528,81.123L41.528,81.123z M36.962,81.107   c-0.215-0.072-0.452,0.002-0.606,0.164c-0.152,0.164-0.211,0.402-0.12,0.613c0.163,0.379,0.652,0.402,0.919,0.121   c0.051-0.053,0.092-0.113,0.121-0.184c0.056-0.135,0.06-0.293,0.001-0.428c-0.03-0.068-0.072-0.129-0.127-0.178   C37.096,81.168,37.033,81.131,36.962,81.107L36.962,81.107z M38.382,80.609c-0.202,0.096-0.339,0.305-0.34,0.529   c0,0.229,0.138,0.43,0.358,0.5c0.373,0.123,0.765-0.174,0.77-0.561c0-0.074-0.014-0.146-0.042-0.215   c-0.058-0.137-0.175-0.24-0.315-0.289c-0.07-0.021-0.144-0.029-0.218-0.023C38.52,80.557,38.449,80.576,38.382,80.609   L38.382,80.609z M31.719,90.982l-0.233-0.156c-0.945-0.635-0.666-1.846-0.658-2.848c0.083-11.646,3.256-19.803,13.982-24.65   c3.411-1.543,8.26-1.982,6.523-7.26c-0.021-0.064-0.034-0.123-0.043-0.182l0,0c-0.815-0.408-1.437-1.043-1.562-2.035   c-0.448-6.144-0.757-12.114-2.359-18.121c-0.753-2.823-3.597-4.284-6.312-4.191c-0.052,0.002-0.103,0.001-0.151-0.004   c-0.107,0.007-0.216,0.009-0.327,0.008c-8.714-0.103-14.22-15.808-15.96-22.313c-0.551-2.059-0.693-3.397-0.18-4.234   c-0.01-0.081-0.01-0.167,0.001-0.26c0,0,0.009-0.093,0.054-0.253c0.797-2.814,5.026-3.255,7.296-3.215   c9.759,0.17,28.606,11.792,32.059,33.515c1.69,10.635,2.576,17.375,3.46,21.834c1.995,10.076,4.956,7.104,9.13,14.072   c1.971,3.293,3.553,8.18,3.836,15.996l0.019,1.977c0,0,0.024,0.604-0.219,0.785c-0.091,0.066-0.393,0.238-0.681,0.398   c-0.004,0.66-0.014,1.227-0.014,1.242c-0.011,0.58,0.031,0.699-0.221,0.814l-1.228,0.553c-1.679,0.746-3.259,1.4-4.753,1.969   c-6.536,2.57-13.483,4.619-20.467,4.426c-7.329-0.207-14.705-1.867-20.905-5.936c-0.016-0.033-0.035-0.061-0.056-0.098   c-0.049-0.09-0.041-0.344-0.041-0.344"/>
</g>
</svg>