<svg xmlns="http://www.w3.org/2000/svg" xmlns:xlink="http://www.w3.org/1999/xlink" version="1.1" id="Layer_1" x="0px" y="0px" width="37.207px" height="100px" viewBox="0 0 37.207 100" enable-background="new 0 0 37.207 100" xml:space="preserve">
<path fill="#000000" d="M3.687,12.894c0.627-0.633,1.468-0.98,2.37-0.98c0.901,0,1.742,0.348,2.368,0.98  c0.48,0.483,1.05,1.36,1.05,2.791v0.244h0.789V4.089h-8.69v11.84h1.063v-0.244C2.637,14.254,3.208,13.377,3.687,12.894z"/>
<path fill="#000000" d="M20.475,25.706c0.62-0.621,1.449-0.964,2.336-0.964c1.326,0,2.652,0.812,3.168,2.359  c1.924-1.158,3.215-3.26,3.215-5.667c0-3.655-2.963-6.616-6.617-6.616c-3.654,0-6.616,2.961-6.616,6.616  c0,2.57,1.468,4.793,3.61,5.888C19.772,26.563,20.143,26.04,20.475,25.706z"/>
<g>
	<path fill="#000000" d="M19.324,41.917l0.007-0.817l0.077-11.674l-3.903-0.001c-1.727,0-6.86-1.766-6.86-1.766V15.685   c0-3.948-5.217-3.948-5.217,0v17.108l11.333,2.893l-0.006,56.516c0,2.047,1.662,3.71,3.708,3.71c2.05,0,3.71-1.663,3.71-3.71   l0.004-31.117h1.651l-0.011,31.117c0,2.047,1.659,3.71,3.71,3.71c2.048,0,3.708-1.663,3.708-3.71l0.014-50.284H20.142H19.324z"/>
</g>
<g>
	<path fill="#000000" d="M30.334,29.431l-4.12-0.002v6.676h5.035v0.811h-5.846v-7.486v-0.894c0-1.987-1.298-2.982-2.593-2.982   c-1.296,0-2.592,0.995-2.586,2.982l-0.006,0.891l0,0l-0.077,11.68H31.25h4.29l-0.025-0.025h0.025   C35.546,36.684,36.744,29.431,30.334,29.431z"/>
</g>
</svg>