<svg xmlns="http://www.w3.org/2000/svg" xmlns:xlink="http://www.w3.org/1999/xlink" version="1.1" id="Layer_1" x="0px" y="0px" width="100px" height="100px" viewBox="0 0 100 100" enable-background="new 0 0 100 100" xml:space="preserve">
<g>
	<path d="M65.807,57.845c0.2,3.842,0.419,8.468,0.598,12.755c0.271-1.552,0.425-3.261,0.425-5.09   C66.829,62.602,66.442,60.001,65.807,57.845L65.807,57.845z M45.052,37.003c1.115-0.134,2.279-0.205,3.477-0.205   c2.521,0,4.896,0.314,6.969,0.865L54.91,9.925c-0.684-0.041-0.696-0.103-0.696-0.103s0.012-0.696-0.022-1.591   c-0.025-0.721,0.003-2.225-0.428-2.823c-0.834-1.258-7.859-1.244-8.69,0.427c-0.427,0.933-0.409,3.198-0.346,4.163   c0,0,0.006,0.116-0.54,0.19L45.052,37.003L45.052,37.003z M53.841,93.878c0-0.338,0.035-0.665,0.101-0.97   c-2.239-0.331-5.035-0.838-7.177-1.104c-2.894-0.36-9.897-0.529-13.18-0.593l0.039,0.167c0.021,0.094,0.041,0.188,0.058,0.281   c1.022,0.21,1.795,1.177,1.795,2.342c0,1.316-0.99,2.383-2.211,2.383c-1.009,0-1.86-0.729-2.125-1.723   c-0.92-0.555-1.728-1.619-1.728-2.779c0-0.407,0.053-0.794,0.15-1.147c-0.54-0.453-0.992-1.147-1.219-1.96   c-0.056-0.199-0.095-0.396-0.12-0.588c-0.534-1.113-0.323-2.509-0.285-4.013c0.047-1.958,0.047-29.164,0.525-35.216   c0.478-6.052,1.443-7.247,6.243-8.881c0.637-0.217,1.438-0.408,2.362-0.57c1.688-1.035,3.94-1.835,6.524-2.29l-0.868-26.965   c-0.823-0.003-0.919-0.06-0.919-0.06s-0.079-1.177-0.005-2.492c0.195-3.509,1.475-4.966,4.069-5.542   c0.135-0.108,0.344-0.191,0.586-0.221c0.195-0.024,0.377-0.009,0.521,0.035l0.187-0.021c0.13-0.137,0.4-0.231,0.713-0.231   c0.231,0,0.438,0.05,0.583,0.133l0.127-0.006c0.106-0.164,0.403-0.281,0.752-0.281c0.327,0,0.606,0.103,0.729,0.25l0.128,0.001   c0.145-0.085,0.356-0.138,0.592-0.138c0.277,0,0.521,0.074,0.664,0.187l0.284,0.023c0.157-0.049,0.366-0.059,0.589-0.017   c0.153,0.03,0.291,0.081,0.403,0.144c1.851,0.313,3.62,1.082,4.039,2.9c0.365,1.582,0.401,3.339,0.373,4.96   c0,0,0.049,0.071-0.767,0.081l0.596,28.157c1.709,0.592,3.15,1.36,4.22,2.25c4.329,1.919,3.812,6.32,4.113,9.275   c0.062,0.597,0.155,1.981,0.266,3.869c1.723,2.972,2.724,7.397,2.724,12.002c0,3.601-0.612,7.093-1.704,9.865   c0.142,3.96,0.215,7.104,0.159,8.215c-0.124,2.451-0.929,4.575-1.469,5.752c0.067,0.313,0.104,0.647,0.104,0.993l-0.002,0.106   c1.128,0.215,1.983,1.276,1.983,2.555c0,1.432-1.075,2.595-2.402,2.595c-1.185,0-2.171-0.93-2.364-2.152   c-0.606-0.251-1.107-0.876-1.377-1.695c-1.18,0.468-2.373,0.939-3.089,1.216c0.052,0.255,0.082,0.525,0.089,0.804   c1.043,0.283,1.814,1.302,1.814,2.517c0,1.433-1.075,2.594-2.4,2.594c-1.121,0-2.062-0.829-2.327-1.951   C54.454,96.482,53.841,95.285,53.841,93.878L53.841,93.878z"/>
</g>
</svg>