<svg xmlns="http://www.w3.org/2000/svg" xmlns:xlink="http://www.w3.org/1999/xlink" version="1.1" id="Livello_1" x="0px" y="0px" width="100px" height="100px" viewBox="0 0 100 100" enable-background="new 0 0 100 100" xml:space="preserve">
<path d="M10.573,26.26h79.188c1.822,0,3.3-1.478,3.3-3.3s-1.478-3.299-3.3-3.299h-1.709c-4.614-4.352-18.112-7.594-34.446-7.998  c0.605-0.756,0.983-1.704,0.983-2.749c0-2.442-1.979-4.422-4.422-4.422s-4.422,1.979-4.422,4.422c0,1.045,0.377,1.993,0.983,2.749  c-16.335,0.403-29.833,3.646-34.446,7.998h-1.709c-1.822,0-3.299,1.477-3.299,3.299S8.751,26.26,10.573,26.26z"/>
<path d="M95.076,30.56H5.258c-2.43,0-4.399,1.97-4.399,4.399c0,2.429,1.97,4.399,4.399,4.399h5.315v44.358  c0,6.049,4.95,10.998,10.999,10.998h57.19c6.05,0,10.999-4.949,10.999-10.998V39.359h5.315c2.43,0,4.399-1.97,4.399-4.399  C99.476,32.53,97.506,30.56,95.076,30.56z"/>
</svg>