<svg xmlns="http://www.w3.org/2000/svg" xmlns:xlink="http://www.w3.org/1999/xlink" version="1.1" id="Layer_1" x="0px" y="0px" width="100px" height="100px" viewBox="0 0 100 100" enable-background="new 0 0 100 100" xml:space="preserve">
<g id="Layer_1_1_">
</g>
<path d="M96.161,94.444c0,0-0.888-0.984-1.894-2.022l0.516-0.515l-3.356-3.356c-1.558-7.711-12.785-19.178-12.785-19.178l0.64-0.64  L40.291,30.694l0.676-0.676c-9.11-9.109-27.328-24.69-30.445-24.69c-2.075,0-7.062,3.118-7.192,7.431  c-0.12,3.956,24.931,29.966,24.931,29.966l0.519-0.519l38.196,38.833l0.64-0.639c8.63,9.589,19.497,12.466,19.497,12.466  l3.356,3.355l0.619-0.619l2.916,2.917l3.477-1.438C97.48,97.081,96.792,95.39,96.161,94.444z M13.683,12.382  c-2.917,0.266-3.175,2.801-3.185,2.91c-0.024,0.274-0.264,0.483-0.54,0.455c-0.274-0.023-0.479-0.263-0.457-0.537  c0.003-0.035,0.329-3.556,4.213-3.833c0.275-0.032,1.106-0.082,20.805,19.435c0.196,0.194,0.197,0.511,0.003,0.707  c-0.098,0.099-0.226,0.148-0.355,0.148c-0.127,0-0.254-0.048-0.352-0.145C26.707,24.479,15.088,13.188,13.683,12.382z   M67.296,79.121L30.377,40.926l8.87-8.869l37.877,37.236L67.296,79.121z"/>
</svg>