<svg xmlns="http://www.w3.org/2000/svg" xmlns:xlink="http://www.w3.org/1999/xlink" version="1.1" id="Layer_1" x="0px" y="0px" width="100px" height="100px" viewBox="0 0 100 100" enable-background="new 0 0 100 100" xml:space="preserve">
<g>
	<path d="M50.141,32.255c-0.966,0-1.929-0.003-2.888-0.011v13.941c-4.651,4.979-10.414,9.598-16.229,13.678   c1.708,1.062,3.356,2.236,4.886,3.535c4.915-3.568,10.11-7.74,14.226-11.918c4.119,4.178,9.316,8.352,14.232,11.92   c1.53-1.297,3.177-2.471,4.885-3.535c-5.818-4.078-11.581-8.699-16.234-13.68V32.244C52.064,32.252,51.104,32.255,50.141,32.255   L50.141,32.255z M50.141,82.053c-2.229-0.031-6.926-0.152-9.938-7.463C33.236,57.686,1.281,53.156,1.281,53.156   c0.867-2.857,3.338-17.564,4.977-27.597c11.184,2.04,26.985,3.241,43.883,3.241c16.896,0,32.699-1.201,43.882-3.241   c1.639,10.033,4.111,24.74,4.978,27.597c0,0-31.956,4.529-38.921,21.434C57.065,81.9,52.368,82.021,50.141,82.053L50.141,82.053z"/>
</g>
</svg>