<svg xmlns="http://www.w3.org/2000/svg" xmlns:xlink="http://www.w3.org/1999/xlink" version="1.1" id="Layer_1" x="0px" y="0px" width="77.2727272727px" height="100px" viewBox="0 0 612 792" enable-background="new 0 0 612 792" xml:space="preserve">
<path d="M336.105,359.164c0,0-8.792-3.993-26.705-4.456V346.5h-6.802v8.208c-17.912,0.463-26.705,4.456-26.705,4.456  c-1.961,0.892-3.567,3.385-3.567,5.54v65.633c0,2.155,1.763,3.918,3.919,3.918h5.265v3.061l-3.062,9.185h6.123l2.041-6.122h38.775  l2.041,6.122h6.122l-3.061-9.185v-3.061h5.265c2.155,0,3.918-1.763,3.918-3.918v-65.633  C339.673,362.549,338.068,360.056,336.105,359.164z M290.694,360.786h30.612c1.69,0,3.062,1.371,3.062,3.062  c0,1.69-1.371,3.061-3.062,3.061h-30.612c-1.69,0-3.061-1.37-3.061-3.061C287.633,362.156,289.003,360.786,290.694,360.786z   M283.959,397.521c-1.347,0-2.449-1.102-2.449-2.449v-15.919c0-3.381,2.741-6.122,6.123-6.122h12.857  c1.347,0,2.449,1.102,2.449,2.448v19.593c0,1.347-1.103,2.449-2.449,2.449H283.959z M306,428.133c-2.536,0-4.592-2.056-4.592-4.592  c0-2.537,2.056-4.592,4.592-4.592s4.591,2.055,4.591,4.592C310.591,426.077,308.536,428.133,306,428.133z M306,412.827  c-2.536,0-4.592-2.056-4.592-4.593c0-2.536,2.056-4.592,4.592-4.592s4.591,2.056,4.591,4.592  C310.591,410.771,308.536,412.827,306,412.827z M330.49,395.072c0,1.347-1.103,2.449-2.449,2.449h-16.53  c-1.348,0-2.449-1.102-2.449-2.449v-19.593c0-1.346,1.102-2.448,2.449-2.448h12.856c3.382,0,6.123,2.741,6.123,6.122V395.072z"/>
</svg>