<svg xmlns="http://www.w3.org/2000/svg" xmlns:xlink="http://www.w3.org/1999/xlink" version="1.1" id="Layer_1" x="0px" y="0px" width="77.2727272727px" height="100px" viewBox="0 0 612 792" enable-background="new 0 0 612 792" xml:space="preserve">
<path d="M353.391,393.234l-4.781-33.468c-0.52-3.629-3.625-7.941-6.905-9.581c0,0-7.371-3.685-34.037-3.685  c-26.667,0-37.37,3.685-37.37,3.685c-3.279,1.64-6.387,5.952-6.905,9.581l-4.782,33.468c-0.519,3.629-0.942,9.598-0.942,13.266  c0,3.666,1.342,9.351,2.981,12.63l0.703,1.407c1.641,3.28,5.893,6.69,9.45,7.58l3.531,0.884v7.499l-3.333,10h6.667l2.223-6.666  h52.221l2.223,6.666H341l-3.333-10v-7.499l3.532-0.884c3.557-0.89,7.81-4.3,9.449-7.58l0.703-1.407  c1.64-3.279,2.981-8.964,2.981-12.63C354.333,402.832,353.909,396.864,353.391,393.234z M272.667,419.833  c-2.762,0-5.001-2.237-5.001-4.999c0-2.763,2.239-5,5.001-5c2.761,0,5,2.237,5,5C277.667,417.596,275.428,419.833,272.667,419.833z   M309.89,397.168c0,1.465-1.201,2.665-2.667,2.665h-37.26c-1.467,0-2.519-1.19-2.337-2.646l4.314-34.708  c0.181-1.456,1.529-2.646,2.995-2.646h32.287c1.466,0,2.667,1.2,2.667,2.667V397.168z M339.333,419.833c-2.761,0-5-2.237-5-4.999  c0-2.763,2.239-5,5-5c2.762,0,5.001,2.237,5.001,5C344.334,417.596,342.095,419.833,339.333,419.833z"/>
</svg>