<svg xmlns="http://www.w3.org/2000/svg" xmlns:xlink="http://www.w3.org/1999/xlink" version="1.1" id="Layer_1" x="0px" y="0px" width="70.7491082045px" height="100px" viewBox="0 0 595.28 841.89" enable-background="new 0 0 595.28 841.89" xml:space="preserve">
<path d="M136.76,231.546c-15.206,55.684-28.331,113.35-34.517,170.784c-9.875,91.719-43.919,213.426,16.815,294.705  c13.44,17.975,31.764,31.805,52.791,42.203c-0.622-8.392-1.418-16.799-1.874-25.189c-1.808-33.828-2.396-67.566-2.206-101.229  c0.979-67.309,4.486-134.318,10.895-200.988c6.401-66.654,14.535-133.025,23.929-199.173c7.586-47.327,15.248-94.579,24.276-141.632  C178.391,107.045,151.602,177.189,136.76,231.546z M435.387,425.223c-3.449-79.978-7.346-160.005-13.084-239.908l-3.83-52.484  c-5.521-9.535-11.326-18.912-17.76-27.941c-10.265-14.402-24.045-27.287-39.666-37.311l4.677,44.789l9.153,96.867  c5.672,64.63,10.514,129.344,14.162,194.165c3.615,64.829,6.102,129.758,6.318,194.836c0.348,50.096-0.166,100.291-4.479,150.686  c18.971-7.098,36.101-16.832,51.092-28.837c0.148-18.323,0.182-36.664,0-55.029C440.926,585.211,438.82,505.208,435.387,425.223z   M477.341,304.725c-10.049-54.374-25.354-108.715-51.058-157.799l3.93,37.725c7.729,79.771,15.986,159.533,22.569,239.486  c6.55,79.943,12.553,160.004,15.04,240.363c0.315,9.825,0.48,19.667,0.746,29.5c23.812-28.978,38.638-65.476,42.137-106.137  C518.682,495.234,494.105,395.481,477.341,304.725z M362.971,210.147l-6.998-96.9l-3.996-48.421  c-0.133-0.929-0.199-1.857-0.299-2.786c-16.963-9.096-35.652-14.742-54.672-14.742c-16.989,0-32.286,3.557-46.191,9.635  c-5.787,53.155-11.5,106.344-15.812,159.607c-6.409,66.056-11.549,132.212-14.941,198.344  c-3.308,66.123-6.193,132.187-5.555,198.037c0.066,32.908,0.887,65.758,2.885,98.409c0.937,15.124,2.181,30.196,3.698,45.188  c47.932,11.21,100.755,9.899,142.129,0.581c7.081-52.285,9.966-105.73,11.558-159.027c1.228-64.556,0.184-129.261-1.989-193.941  C370.582,339.449,367.199,274.777,362.971,210.147z"/>
</svg>