<svg xmlns:x="http://ns.adobe.com/Extensibility/1.0/" xmlns:i="http://ns.adobe.com/AdobeIllustrator/10.0/" xmlns:graph="http://ns.adobe.com/Graphs/1.0/" xmlns="http://www.w3.org/2000/svg" xmlns:xlink="http://www.w3.org/1999/xlink" xmlns:a="http://ns.adobe.com/AdobeSVGViewerExtensions/3.0/" version="1.0" id="Layer_1" x="0px" y="0px" width="100px" height="100px" viewBox="0 0 100 100" enable-background="new 0 0 100 100" xml:space="preserve">
<g>
	<path d="M29.115,93.079h1.631h1.503c2.434,0,4.405-1.975,4.405-4.405l-0.006-6.932c0-1.753,1.421-3.173,3.174-3.173h3.066   l17.872,0.003c8.327-0.048,15.063-6.812,15.063-15.149c0-8.409-6.786-15.107-15.15-15.149l-29.928,0.001h-1.631H14.863   c-6.098,0-11.04,4.943-11.04,11.041v22.722c0,6.099,4.942,11.042,11.04,11.042H29.115L29.115,93.079z M0.648,59.315   c0-7.851,6.364-14.216,14.215-14.216l63.292,0.001v51.152H14.863c-7.851,0-14.215-6.364-14.215-14.216V59.315L0.648,59.315z    M48.479,63.329c0,6.732,5.457,12.19,12.19,12.19s12.191-5.458,12.191-12.19s-5.458-12.191-12.191-12.191   S48.479,56.597,48.479,63.329L48.479,63.329z M6.853,68.007c0,4.247,3.441,7.688,7.688,7.688c4.246,0,7.688-3.441,7.688-7.688   c0-4.246-3.441-7.688-7.688-7.688C10.294,60.318,6.853,63.761,6.853,68.007L6.853,68.007z M14.863,49.507h15.883l29.925-0.001   c7.691,0.038,13.922,6.192,13.922,13.917c0,7.659-6.186,13.875-13.836,13.92l-17.868-0.005h-3.066   c-2.434,0-4.406,1.972-4.406,4.404l0.007,6.932c0,1.753-1.422,3.172-3.174,3.172h-1.503H14.863c-5.417,0-9.808-4.391-9.808-9.809   V59.315C5.056,53.898,9.446,49.507,14.863,49.507L14.863,49.507z M51.353,63.329c0-5.146,4.172-9.317,9.316-9.317   c5.146,0,9.316,4.172,9.316,9.317c0,5.145-4.171,9.314-9.316,9.314C55.524,72.644,51.353,68.474,51.353,63.329L51.353,63.329z    M10.03,68.007c0-2.491,2.019-4.511,4.511-4.511c2.491,0,4.511,2.02,4.511,4.511s-2.02,4.511-4.511,4.511   C12.049,72.518,10.03,70.498,10.03,68.007L10.03,68.007z M61.513,5.747h4.673c3.077,8.684,5.351,20.466,6.253,33.693   c2.752,1.09,3,3.19,3,3.19v1.193H26.843v-1.101c0,0,0.094-1.25,2.536-1.434c0.446-0.035,1.981-0.149,4.218-0.311l1.502-26.043   h26.96L61.513,5.747L61.513,5.747z M87.481,49.909h1.314l2.258,1.982l8.098,0.006v35.674h-8.098l-2.258,1.983h-1.314l-2.51,2.202   h-5.577v-44.05h5.577L87.481,49.909L87.481,49.909z"/>
</g>
</svg>