<svg xmlns:x="http://ns.adobe.com/Extensibility/1.0/" xmlns:i="http://ns.adobe.com/AdobeIllustrator/10.0/" xmlns:graph="http://ns.adobe.com/Graphs/1.0/" xmlns="http://www.w3.org/2000/svg" xmlns:xlink="http://www.w3.org/1999/xlink" xmlns:a="http://ns.adobe.com/AdobeSVGViewerExtensions/3.0/" version="1.0" id="Layer_1" x="0px" y="0px" width="100px" height="100px" viewBox="0 0 100 100" enable-background="new 0 0 100 100" xml:space="preserve">
<g>
	<polygon points="42.829,25.546 44.167,25.546 44.167,24.701 42.829,24.879  "/>
	<polygon points="44.695,25.546 45.936,25.546 45.936,24.465 44.695,24.63  "/>
	<path d="M38.404,23.456c-1.84,0-3.333,1.493-3.333,3.333s1.492,3.333,3.333,3.333c1.841,0,3.333-1.492,3.333-3.333   S40.245,23.456,38.404,23.456z M36.985,26.693c-0.552,0-0.999-0.447-0.999-0.999c0-0.551,0.447-0.999,0.999-0.999   s0.999,0.447,0.999,0.999C37.983,26.246,37.537,26.693,36.985,26.693z"/>
	<path d="M86.615,90.035H55.062c-15.78,0-21-22.504-20.845-40.86c0.026-3.004,0.275-5.948,0.757-8.79c0,0,0.184-0.808-0.255-1.189   l-0.169-0.14c-2.085-1.628-4.491-2.556-7.05-2.556c-2.583,0-5.022,0.944-7.107,2.6c-0.08,0.062-0.115,0.128-0.132,0.208   c-0.487,2.417-7.986,39.6-8.719,42.106c-1.109,3.783-3.621,6.85-7.425,9.752c-1.797,1.205-2.98,3.254-2.98,5.58v0.275h92.193   v-0.275C93.328,93.039,90.324,90.035,86.615,90.035z"/>
	<polygon points="53.543,25.546 54.783,25.546 54.783,23.285 53.543,23.45  "/>
	<path d="M98.234,44.934H69.859v-2.279h1.635v-0.826c0-0.9,0.709-1.634,1.6-1.676h2.953c1.389,0,2.516-1.126,2.516-2.517v-0.954   h3.186V17.92v-1.157h-0.051c-0.662-7.711-7.9-13.785-16.729-13.785H20.696c-9.267,0-16.779,6.69-16.779,14.942   c0,2.855,0.899,5.523,2.46,7.792v4.489c0,1.701,2.156,2.367,2.156,2.367l8.113,2.175c1.874,0.511,3.296,1.825,3.583,3.425   c2.136-1.59,4.624-2.507,7.271-2.507c2.772,0,5.363,1.014,7.576,2.74l0.186,0.154c0.097,0.083,0.181,0.177,0.252,0.278   c1.562-3.339,5.9-5.929,10.249-5.972h8.514v3.82h3.52v0.954c0,1.39,1.125,2.517,2.516,2.517h3.023   c0.891,0.042,1.598,0.776,1.598,1.676v0.826h1.674v2.279H38.062c-0.839,0-0.839,1.258,0,1.258h0.679l-0.003,0.612   c0,17.15,3.873,31.77,16.467,37.367v5.006h26.17v-5.092c12.441-5.66,16.275-20.217,16.275-37.281l-0.004-0.612h0.588   C99.074,46.192,99.074,44.934,98.234,44.934z M54.824,27.604v-1.06H42.522c0.005,0.082,0.007,0.163,0.007,0.245   c0,2.278-1.848,4.125-4.125,4.125c-1.999,0-3.667-1.421-4.044-3.31H15.551v-5.409h65.107v5.409H54.824z"/>
	<polygon points="51.773,25.546 53.014,25.546 53.014,23.52 51.773,23.686  "/>
	<polygon points="48.233,25.546 49.475,25.546 49.475,23.993 48.233,24.158  "/>
	<polygon points="50.004,25.546 51.244,25.546 51.244,23.757 50.004,23.923  "/>
	<polygon points="46.464,25.546 47.706,25.546 47.706,24.229 46.464,24.395  "/>
</g>
</svg>