<svg xmlns="http://www.w3.org/2000/svg" xmlns:xlink="http://www.w3.org/1999/xlink" version="1.1" id="Layer_1" x="0px" y="0px" width="100px" height="100px" viewBox="0 0 100 100" enable-background="new 0 0 100 100" xml:space="preserve">
<path fill="#000000" d="M74.441,35.605c-0.06,0.018-0.115,0.036-0.178,0.053c-0.074,0.071-0.146,0.147-0.217,0.224  c0.043,0.008,0.074,0.014,0.102,0.019c0.058-0.062,0.117-0.123,0.176-0.181L74.441,35.605z"/>
<g>
	<path d="M78.26,60.329c-0.041-0.539-0.498-0.901-0.683-1.024c-0.099-0.548-0.534-0.812-1.132-0.812   c-0.17,0-0.314,0.025-0.396,0.043c-0.236-0.11-0.471-0.165-0.693-0.165c-1.107,0-1.59,1.315-1.614,1.386   c-0.22,0.82-0.15,1.483,0.204,1.969c0.453,0.613,1.207,0.849,1.449,0.756c0.183,0.164,0.336,0.336,0.467,0.51   c0.055-0.022,0.111-0.045,0.166-0.069c-0.152-0.209-0.338-0.415-0.562-0.612c0,0-2.204-0.086-1.556-2.509   c0,0,0.648-1.817,2.119-1.081c0,0,1.213-0.347,1.343,0.734c0,0,1.515,0.865,0,2.076c0,0,0.178,0.185,0.394,0.554   c0.049-0.028,0.104-0.06,0.153-0.09c-0.114-0.197-0.077-0.357-0.153-0.456C78.191,61.156,78.292,60.729,78.26,60.329z"/>
	<path d="M24.887,62.664c0.23-0.021,0.995-0.141,1.447-0.755c0.356-0.485,0.427-1.146,0.203-1.982   c-0.021-0.056-0.549-1.519-1.712-1.474c-0.223,0.009-0.457,0.055-0.694,0.165c-0.081-0.017-0.228-0.042-0.397-0.042   c-0.596,0-0.987,0.312-1.085,0.859c-0.185,0.123-0.642,0.485-0.684,1.025c-0.031,0.398,0.169,0.793,0.597,1.176   c-0.054,0.068-0.123,0.161-0.199,0.278c0.054,0.024,0.108,0.049,0.163,0.075c0.162-0.249,0.284-0.375,0.284-0.375   c-1.515-1.211,0-2.076,0-2.076c0.129-1.082,1.341-0.737,1.341-0.737c1.471-0.733,2.12,1.083,2.12,1.083   c0.649,2.422-1.557,2.51-1.557,2.51c-0.128,0.113-0.242,0.229-0.346,0.348c0.06,0.021,0.221,0.083,0.282,0.104   C24.724,62.762,24.8,62.744,24.887,62.664z"/>
	<path fill="#000000" d="M8.752,35.658c0,0-0.037,0.002-0.1,0.001l0.024,0.042c0.003,0.007,0.045,0.081,0.115,0.217   c0.03-0.003,0.063-0.006,0.094-0.009C8.8,35.742,8.752,35.658,8.752,35.658z"/>
	<path fill="#000000" d="M67.314,38.481l-0.004,0.001c0.032-0.011,0.069-0.021,0.104-0.031   C67.381,38.462,67.348,38.471,67.314,38.481z"/>
	<path fill="#000000" d="M60.984,40.504c-2.555,0.71-5.488,1.388-8.019,1.614c4.62-0.399,7.53-1.442,7.53-1.442   C60.66,40.618,60.82,40.562,60.984,40.504z"/>
	<path fill="#000000" d="M35.719,39.964c0,0-3.361-0.99-7.894-2.036c3.49,0.824,6.447,1.63,7.903,2.039   C35.726,39.966,35.722,39.965,35.719,39.964z"/>
	<path fill="#000000" d="M52.537,42.153l-0.002,0.001c0.057-0.005,0.113-0.009,0.17-0.014C52.648,42.146,52.592,42.15,52.537,42.153   z"/>
	<path fill="#000000" d="M67.779,38.349c15.568-4.358,24.215-2.691,24.215-2.691S83.88,33.816,67.779,38.349z"/>
	<path fill="#000000" d="M8.883,35.717c0.259-0.06,0.545-0.107,0.856-0.146c-0.339,0.021-0.67,0.049-0.987,0.087   c0,0,0.048,0.084,0.133,0.25c0.03-0.003,0.062-0.006,0.092-0.009C8.939,35.824,8.907,35.762,8.883,35.717z"/>
	<path fill="#000000" d="M65.738,39.035c-1.004,0.305-2.033,0.633-3.09,0.987C63.866,39.657,64.934,39.308,65.738,39.035z"/>
	<path fill="#000000" d="M52.705,42.141c0.087-0.006,0.174-0.015,0.262-0.022C52.881,42.126,52.794,42.134,52.705,42.141z"/>
	<path fill="#000000" d="M67.416,38.452c0.121-0.035,0.244-0.068,0.363-0.103C67.66,38.382,67.537,38.418,67.416,38.452z"/>
	<path fill="#000000" d="M65.738,39.035c0.938-0.319,1.521-0.534,1.572-0.552c-1.998,0.57-4.107,1.238-6.326,2.021   c0.578-0.161,1.135-0.323,1.664-0.482C63.705,39.668,64.734,39.34,65.738,39.035z"/>
	<path fill="none" d="M21.905,33.245c-0.01-0.001-0.021-0.003-0.032-0.005C21.883,33.242,21.894,33.244,21.905,33.245z"/>
	<path fill="none" d="M80.047,31.931c0.018-0.091,0.042-0.18,0.073-0.264c0.006-0.017,0.014-0.035,0.021-0.052   c-1.506-1.705-3.949-0.865-4.349-0.713c-0.293,0.549-0.871,0.926-1.536,0.926c-0.445,0-0.848-0.167-1.152-0.442   c0.032,0.118,0.054,0.242,0.054,0.371c0,0.482-0.261,0.903-0.646,1.136c-0.199,0.12-0.434,0.19-0.684,0.19   c-0.036,0-0.071-0.002-0.104-0.005c-0.686-0.054-1.223-0.625-1.223-1.321c0-0.078,0.007-0.152,0.021-0.227   c-1.365-1.521-3.183-0.618-3.199-0.608l-0.082,0.042l-0.084-0.044c-0.457-0.253-0.876-0.315-1.252-0.184   c-0.657,0.23-0.975,0.977-0.977,0.984l-0.048-0.02c0.039,0.143,0.062,0.292,0.062,0.446c0,0.96-0.779,1.741-1.74,1.741   c-0.838,0-1.538-0.593-1.703-1.381c-0.244,0.29-0.607,0.475-1.018,0.475c-0.599,0-1.105-0.399-1.271-0.946   c-0.937-0.894-1.812-0.176-1.847-0.144l-0.129,0.108l-0.111-0.123c-0.327-0.355-0.686-0.529-1.061-0.517   c-0.754,0.023-1.366,0.767-1.373,0.774l-0.096,0.118l-0.131-0.078c-0.701-0.419-1.316-0.527-1.826-0.321   c-0.852,0.345-1.16,1.462-1.164,1.473l-0.063,0.24l-0.205-0.142c-0.481-0.333-0.967-0.458-1.438-0.369   c-0.852,0.159-1.405,0.962-1.409,0.971v-0.001c-0.147,0.812-0.858,1.43-1.711,1.43c-0.935,0-1.696-0.74-1.738-1.663   c-1.406-1.352-2.696-0.189-2.751-0.138l-0.155,0.144l-0.112-0.18c-0.328-0.526-0.668-0.803-0.987-0.803c-0.002,0-0.005,0-0.007,0   c-0.448,0.005-0.778,0.547-0.782,0.552l-0.128,0.22l-0.159-0.198c-1.25-1.558-2.875-0.798-3.248-0.592   c-0.054,0.911-0.811,1.636-1.735,1.636c-0.603,0-1.135-0.309-1.448-0.775c-0.164,0.548-0.671,0.949-1.271,0.949   c-0.732,0-1.327-0.596-1.327-1.328c0-0.289,0.094-0.556,0.252-0.774c-2.016-1.33-3.91-0.219-3.93-0.207l-0.104,0.063l-0.095-0.077   c-1.651-1.32-3.229-0.135-3.386-0.01c0.033,0.134,0.052,0.274,0.052,0.419c0,0.132-0.011,0.253-0.026,0.369   c-0.013,0.091-0.031,0.178-0.055,0.259c-0.024,0.088-0.056,0.169-0.092,0.246c2.688,0.582,5.655,1.308,8.895,2.177   c0.355,0.129,8.341,3.019,14.359,3.019c0.328,0,0.647-0.008,0.954-0.026c0.027,0.001,0.116,0.002,0.256,0.002   c1.302,0,7.974-0.079,11.479-1.605c0.502-0.161,14.902-4.78,20.673-4.938c-0.002-0.016-0.005-0.032-0.005-0.047   C80.027,32.073,80.036,32,80.047,31.931z M42.042,36.833c-0.732,0-1.327-0.597-1.327-1.327c0-0.733,0.594-1.329,1.327-1.329   c0.731,0,1.327,0.595,1.327,1.329C43.369,36.236,42.773,36.833,42.042,36.833z M53.857,37.66c-0.961,0-1.741-0.781-1.741-1.741   s0.78-1.742,1.741-1.742c0.959,0,1.74,0.781,1.74,1.742C55.598,36.879,54.816,37.66,53.857,37.66z"/>
	<path d="M21.905,33.245c0.379,0.079,0.765,0.159,1.157,0.243c0.002-0.004,0.004-0.009,0.007-0.013   C22.619,33.37,22.122,33.29,21.905,33.245z"/>
	<path d="M20.583,32.976c0.001,0.003,0.003,0.006,0.005,0.009c0.42,0.081,0.849,0.166,1.284,0.255   c-0.008-0.002-0.017-0.003-0.023-0.005C21.118,33.071,20.81,33.013,20.583,32.976z"/>
	<path d="M82.314,31.969c0.125-0.011,0.246-0.025,0.35-0.037c-0.012-0.071-0.027-0.14-0.051-0.207   c-0.125,0.008-0.246,0.017-0.363,0.026C82.281,31.82,82.302,31.894,82.314,31.969z"/>
	<path d="M82.323,32.009c0.112-0.009,0.229-0.017,0.351-0.024c-0.002-0.019-0.008-0.036-0.01-0.053   c-0.104,0.012-0.225,0.026-0.35,0.037C82.316,31.982,82.32,31.996,82.323,32.009z"/>
	<circle fill="none" cx="32.128" cy="33.278" r="0.978"/>
	<circle fill="none" cx="42.042" cy="35.505" r="0.978"/>
	<circle fill="none" cx="53.857" cy="35.919" r="1.391"/>
	<circle fill="none" cx="46.649" cy="33.712" r="1.392"/>
	<path fill="#000000" d="M20.114,32.571c-0.331-0.152-1.416-0.587-2.575-0.382c0.8,0.125,1.655,0.271,2.572,0.442   C20.113,32.611,20.113,32.59,20.114,32.571z"/>
	<path fill="#000000" d="M20.111,32.631c-0.917-0.171-1.772-0.317-2.572-0.442c-0.199,0.035-0.401,0.09-0.601,0.168   c1.011,0.151,2.083,0.333,3.216,0.545c-0.041-0.116-0.046-0.196-0.047-0.206C20.108,32.674,20.111,32.652,20.111,32.631z"/>
	<path d="M20.459,32.697c-0.001-0.004-0.001-0.006-0.001-0.006c0-0.089,0.01-0.175,0.026-0.26c-0.05-0.009-0.099-0.019-0.148-0.028   L20.22,32.62c-0.003-0.001-0.041-0.02-0.105-0.05c-0.001,0.02-0.001,0.041-0.003,0.061C20.226,32.652,20.343,32.675,20.459,32.697z   "/>
	<path d="M23.509,33.319c0.024-0.081,0.042-0.168,0.055-0.259c-0.114-0.025-0.229-0.049-0.343-0.074   c-0.012,0.093-0.031,0.18-0.055,0.259C23.28,33.27,23.395,33.293,23.509,33.319z"/>
	<path d="M20.459,32.697c-0.116-0.022-0.233-0.045-0.348-0.066c0,0.021-0.003,0.042-0.003,0.065c0.001,0.01,0.006,0.09,0.047,0.206   c0.169,0.032,0.282,0.049,0.429,0.073C20.485,32.832,20.462,32.722,20.459,32.697z"/>
	<path d="M20.155,32.902c0.143,0.027,0.288,0.055,0.434,0.083c-0.001-0.003-0.003-0.006-0.005-0.009   C20.437,32.952,20.324,32.934,20.155,32.902z"/>
	<path d="M23.166,33.245c-0.025,0.086-0.059,0.162-0.097,0.229c0.122,0.028,0.24,0.059,0.348,0.09   c0.037-0.076,0.068-0.158,0.092-0.246C23.395,33.293,23.28,33.27,23.166,33.245z"/>
	<path d="M23.062,33.488c0.118,0.025,0.236,0.05,0.354,0.077c-0.107-0.031-0.226-0.062-0.348-0.09   C23.066,33.479,23.064,33.483,23.062,33.488z"/>
	<path d="M33.399,33.657c0.037-0.12,0.056-0.248,0.056-0.379c0-0.331-0.123-0.634-0.325-0.867c-0.015,0.091-0.024,0.186-0.024,0.281   C33.106,33.048,33.214,33.38,33.399,33.657z"/>
	<path d="M72.514,32.893c-0.263,0.061-0.525,0.123-0.789,0.186c0.033,0.002,0.068,0.005,0.104,0.005   C72.079,33.083,72.312,33.013,72.514,32.893z"/>
	<path d="M23.526,32.28c0.003-0.001,0.006-0.004,0.011-0.008c-0.03-0.118-0.072-0.233-0.124-0.341   c-0.069,0.048-0.107,0.079-0.11,0.08L23.526,32.28z"/>
	<path d="M31.053,32.503c0.051,0.034,0.103,0.068,0.154,0.106l0.205-0.284c-0.039-0.027-0.078-0.053-0.116-0.079   C31.204,32.32,31.123,32.407,31.053,32.503z"/>
	<path d="M44.912,33.791c0.015,0.015,0.031,0.029,0.047,0.044l0.247-0.246c-0.088-0.087-0.174-0.167-0.261-0.237   c-0.025,0.116-0.038,0.237-0.038,0.36C44.907,33.738,44.911,33.766,44.912,33.791z"/>
	<path d="M36.507,32.838c0.008-0.004,0.034-0.021,0.076-0.043c0.002-0.036,0.005-0.07,0.005-0.104c0-0.094-0.008-0.185-0.023-0.274   c-0.15,0.068-0.239,0.123-0.244,0.126L36.507,32.838z"/>
	<path d="M48.36,34.024c0.018-0.101,0.029-0.205,0.029-0.312c0-0.082-0.007-0.162-0.019-0.241c-0.186,0.189-0.291,0.343-0.302,0.358   L48.36,34.024z"/>
	<path d="M20.114,32.571c0.004-0.069,0.014-0.138,0.025-0.204c-0.995-0.186-1.943-0.348-2.845-0.485   c-0.189,0.043-0.38,0.103-0.571,0.183c0.265,0.039,0.538,0.08,0.816,0.125C18.699,31.983,19.783,32.418,20.114,32.571z"/>
	<path d="M17.54,32.189c-0.278-0.044-0.551-0.086-0.816-0.125c-0.135,0.057-0.269,0.125-0.402,0.203   c0.296,0.043,0.296,0.043,0.617,0.089C17.139,32.279,17.341,32.224,17.54,32.189z"/>
	<path d="M16.322,32.268c0.204,0.029,0.409,0.058,0.617,0.089C16.618,32.311,16.618,32.311,16.322,32.268z"/>
	<path d="M20.335,32.403l0.05-0.09c-0.005-0.002-0.08-0.042-0.208-0.098c-0.015,0.049-0.026,0.1-0.037,0.151   C20.206,32.379,20.27,32.39,20.335,32.403z"/>
	<path d="M20.335,32.403c-0.065-0.013-0.129-0.024-0.195-0.036c-0.012,0.066-0.021,0.134-0.025,0.204   c0.064,0.03,0.102,0.048,0.105,0.05L20.335,32.403z"/>
	<path d="M80.323,31.927c0,0,0.03-0.003,0.084-0.009c0.022-0.098,0.062-0.191,0.114-0.276c-0.109,0.011-0.184,0.02-0.213,0.022   c-0.062,0-0.125,0.002-0.188,0.002c-0.031,0.084-0.056,0.173-0.073,0.264C80.145,31.927,80.234,31.927,80.323,31.927z"/>
	<path d="M80.407,31.918c-0.054,0.006-0.084,0.009-0.084,0.009c-0.089,0-0.181,0-0.276,0.004c-0.011,0.07-0.02,0.142-0.02,0.215   c0,0.016,0.002,0.031,0.005,0.047c0.116-0.015,0.233-0.027,0.348-0.04c0-0.002-0.002-0.005-0.002-0.008   C80.378,32.068,80.391,31.992,80.407,31.918z"/>
	<path d="M80.323,32.189l0.03-0.001c0.002-0.001,0.012-0.001,0.025-0.003c0-0.011,0-0.021,0-0.031   c-0.113,0.012-0.23,0.025-0.348,0.04C80.132,32.191,80.229,32.189,80.323,32.189z"/>
	<g>
		<path d="M82.25,31.751c0.117-0.009,0.238-0.018,0.363-0.026c-0.03-0.089-0.067-0.174-0.116-0.254    c-0.14,0.01-0.276,0.02-0.409,0.029C82.154,31.575,82.209,31.66,82.25,31.751z"/>
		<path d="M82.193,31.844l-0.023-0.057c-0.038-0.082-0.087-0.159-0.146-0.228l-0.116-0.133l0.177-0.014    c0.13-0.01,0.268-0.02,0.408-0.03l0.055-0.003l0.028,0.047c0.051,0.086,0.094,0.177,0.124,0.271l0.037,0.109l-0.114,0.008    c-0.126,0.008-0.246,0.016-0.365,0.025L82.193,31.844z M82.258,31.577c0.016,0.026,0.032,0.053,0.047,0.081    c0.059-0.004,0.12-0.009,0.184-0.014c-0.012-0.028-0.024-0.054-0.04-0.081C82.384,31.568,82.318,31.573,82.258,31.577z"/>
	</g>
	<g>
		<path d="M61.5,32.505c0.193-0.231,0.311-0.529,0.311-0.853c0-0.154-0.025-0.302-0.076-0.439c-0.172,0.27-0.272,0.589-0.272,0.933    C61.461,32.27,61.473,32.389,61.5,32.505z"/>
		<path d="M61.451,32.702l-0.038-0.178c-0.026-0.125-0.04-0.252-0.04-0.378c0-0.347,0.098-0.686,0.287-0.98l0.098-0.154l0.062,0.172    c0.052,0.153,0.078,0.312,0.078,0.469c0,0.332-0.116,0.655-0.332,0.91L61.451,32.702z M61.705,31.45    c-0.102,0.219-0.154,0.456-0.154,0.696c0,0.043,0.002,0.083,0.004,0.126c0.11-0.187,0.168-0.401,0.168-0.619    C61.723,31.585,61.717,31.518,61.705,31.45z"/>
	</g>
	<g>
		<path d="M72.629,30.7c0.102,0.266,0.266,0.501,0.475,0.686C73.021,31.109,72.854,30.87,72.629,30.7z"/>
		<path d="M73.271,31.657l-0.229-0.204c-0.223-0.196-0.395-0.446-0.498-0.721l-0.109-0.289l0.246,0.186    c0.241,0.184,0.424,0.444,0.506,0.733L73.271,31.657z"/>
	</g>
	<g>
		<path d="M59.213,32.034c0.012,0.01,0.021,0.018,0.031,0.028l0.248-0.248c-0.111-0.108-0.221-0.199-0.33-0.272    c-0.002,0.036-0.006,0.072-0.006,0.11C59.156,31.785,59.177,31.913,59.213,32.034z"/>
		<path d="M59.244,32.189l-0.109-0.107l-0.006-0.023c-0.041-0.132-0.061-0.269-0.061-0.406c0-0.04,0.002-0.079,0.006-0.119    l0.012-0.15l0.125,0.085c0.123,0.083,0.234,0.176,0.344,0.283l0.062,0.062L59.244,32.189z M59.246,31.715    c0.002,0.065,0.014,0.131,0.027,0.195l0.09-0.093C59.325,31.781,59.287,31.747,59.246,31.715z"/>
	</g>
	<g>
		<path d="M64.883,31.7c-0.033-0.13-0.081-0.253-0.143-0.37c-0.084,0.141-0.129,0.243-0.135,0.255L64.883,31.7z"/>
		<path d="M65.016,31.85l-0.524-0.217l0.034-0.082c0.008-0.02,0.054-0.123,0.14-0.267l0.08-0.135l0.073,0.138    c0.064,0.12,0.113,0.25,0.15,0.388L65.016,31.85z"/>
	</g>
	<g>
		<path d="M70.577,31.592l0.269-0.227c-0.066-0.077-0.133-0.146-0.197-0.212c-0.062,0.117-0.103,0.243-0.125,0.376    C70.541,31.551,70.559,31.57,70.577,31.592z"/>
		<path d="M70.568,31.717l-0.057-0.068c-0.014-0.013-0.025-0.026-0.037-0.037l-0.048-0.055l0.007-0.042    c0.024-0.141,0.07-0.276,0.135-0.401l0.057-0.108l0.086,0.086c0.075,0.077,0.143,0.146,0.201,0.216l0.059,0.067L70.568,31.717z     M70.675,31.309c-0.014,0.038-0.026,0.077-0.038,0.117l0.082-0.07C70.704,31.34,70.689,31.325,70.675,31.309z"/>
	</g>
	<g>
		<path d="M75.736,30.924c0.002-0.001,0.022-0.009,0.057-0.022c0.072-0.131,0.122-0.274,0.158-0.422    c-0.217,0.066-0.346,0.121-0.352,0.124L75.736,30.924z"/>
		<path d="M75.689,31.039l-0.207-0.482l0.078-0.035c0.002-0.001,0.135-0.057,0.363-0.127l0.148-0.046L76.036,30.5    c-0.037,0.157-0.093,0.307-0.165,0.444l-0.016,0.029l-0.031,0.012c-0.032,0.012-0.053,0.021-0.055,0.021L75.689,31.039z     M75.716,30.652l0.046,0.109c0.022-0.047,0.043-0.097,0.059-0.146C75.777,30.629,75.744,30.641,75.716,30.652z"/>
	</g>
	<g>
		<path d="M67.406,38.738c-0.342,0.126-8.92,3.27-14.842,3.685c-0.031,0.005-1.147,0.148-3.05,0.148    c-3.223,0-8.246-0.408-13.87-2.352c-0.139-0.041-15.122-4.426-24.335-4.426c-0.846,0-1.623,0.04-2.321,0.113    c0.597,1.176,2.827,6.002,4.014,14.456c0.006,0.036,0.556,3.503,3.368,6.925c1.241,1.51,3.057,3.154,5.662,4.464l-0.063,0.108    c-0.28,0.474-1.111,2.24-0.26,5.265c-0.548,0.255-1.338,0.729-1.46,1.388c-0.046,0.254-0.011,0.637,0.423,1.024l0.056,0.049    l0.072,0.022c0.032,0.011,0.815,0.256,1.716,0.256c1.109,0,1.929-0.381,2.368-1.102l0.036-0.057l0.011-0.068    c0.016-0.098,0.13-0.953-0.582-1.656c-0.105-0.225-0.968-2.217,0.4-3.871l0.153-0.186c2.396,0.785,5.29,1.283,8.777,1.283    c1.43,0,2.943-0.083,4.494-0.247l29.95,0.247c0.016,0.001,0.469,0.055,1.217,0.055c1.232,0,3.592-0.16,6.194-1.137l0.08,0.122    c0.972,1.478,0.427,3.235,0.219,3.647c-0.733,0.725-0.589,1.621-0.584,1.657l0.013,0.067l0.035,0.061    c0.439,0.719,1.26,1.102,2.368,1.102c0.899,0,1.683-0.247,1.717-0.258l0.069-0.022l0.058-0.049    c0.437-0.386,0.47-0.771,0.425-1.024c-0.123-0.66-0.914-1.134-1.463-1.387c0.801-2.85,0.049-4.635-0.205-5.12l-0.047-0.09    c3.278-1.974,6.483-5.519,7.99-11.871c0.02-0.102,2.023-10.295,5.479-14.088c-0.574-0.099-2.104-0.315-4.565-0.315    C83.193,35.557,76.584,36.108,67.406,38.738z M26.242,61.814c-0.452,0.615-1.217,0.732-1.447,0.754    c-0.08,0.076-0.153,0.149-0.224,0.225l-0.192-0.068L24.3,62.825c-1.589,1.995-0.407,4.425-0.396,4.448l0.014,0.028l0.024,0.022    c0.504,0.471,0.483,1.051,0.469,1.191c-0.348,0.543-0.986,0.816-1.897,0.816c-0.712,0-1.363-0.175-1.52-0.221    c-0.183-0.17-0.257-0.338-0.226-0.504c0.093-0.508,1.063-0.979,1.43-1.118l0.156-0.06l-0.051-0.16    c-0.743-2.375-0.419-4.223,0.132-5.158l0.098-0.168l-0.137-0.062c0.065-0.099,0.125-0.181,0.173-0.242    c-0.427-0.381-0.628-0.775-0.597-1.175c0.042-0.539,0.501-0.901,0.684-1.026c0.098-0.545,0.49-0.858,1.085-0.858    c0.169,0,0.315,0.026,0.397,0.043c0.237-0.108,0.47-0.165,0.693-0.165c1.108,0,1.591,1.316,1.611,1.373    C26.67,60.668,26.6,61.33,26.242,61.814z M77.628,61.557c0.069,0.086,0.157,0.209,0.254,0.369    c-0.006,0.004-0.013,0.006-0.017,0.01l-0.151,0.084l0.079,0.152c0.497,0.961,0.781,2.783,0.082,5.018l-0.05,0.158l0.155,0.06    c0.367,0.14,1.338,0.612,1.431,1.118c0.03,0.168-0.045,0.334-0.228,0.506c-0.156,0.046-0.805,0.221-1.52,0.221    c-0.91,0-1.548-0.275-1.896-0.816c-0.013-0.145-0.033-0.724,0.469-1.193l0.025-0.024l0.014-0.03    c0.045-0.092,1.035-2.268-0.198-4.197l-0.08-0.127l-0.177,0.07c-0.117-0.15-0.258-0.302-0.414-0.447    c-0.229-0.021-0.998-0.141-1.449-0.754c-0.357-0.485-0.428-1.147-0.205-1.969c0.021-0.07,0.506-1.388,1.614-1.388    c0.222,0,0.457,0.056,0.694,0.166c0.08-0.019,0.228-0.043,0.396-0.043c0.596,0,0.984,0.312,1.083,0.858    c0.185,0.125,0.642,0.486,0.687,1.025C78.256,60.781,78.057,61.175,77.628,61.557z"/>
		<path d="M93.311,33.038c-1.104-0.777-3.506-1.188-6.947-1.188c-1.344,0-2.643,0.009-3.688,0.081c-0.004,0-0.008,0-0.01,0.001    c0.002,0.017,0.008,0.035,0.01,0.053c-0.12,0.007-0.237,0.016-0.351,0.024c-0.002-0.014-0.006-0.027-0.01-0.041    c-0.502,0.05-1.168,0.099-1.935,0.185c0,0.01,0,0.02,0,0.031c-0.015,0.002-0.024,0.002-0.026,0.003l-0.029,0.001    c-0.094,0-0.191,0.001-0.291,0.004c-5.771,0.157-20.172,4.776-20.674,4.938c-3.504,1.527-10.176,1.605-11.479,1.605    c-0.141,0-0.229-0.001-0.256-0.002c-0.306,0.018-0.626,0.026-0.954,0.026c-6.018,0-14.004-2.89-14.359-3.019    c-3.24-0.869-6.208-1.595-8.895-2.177c-0.118-0.026-0.237-0.052-0.354-0.077c-0.392-0.083-0.778-0.164-1.157-0.243    c-0.011-0.001-0.021-0.003-0.032-0.005c-0.436-0.089-0.864-0.174-1.284-0.255c-0.146-0.028-0.291-0.055-0.434-0.083    c-1.133-0.213-2.205-0.395-3.216-0.545c-0.208-0.031-0.413-0.06-0.617-0.089c-2.175-0.304-4.052-0.458-5.619-0.458    c-3.192,0-3.977,0.661-4.119,0.818C6.566,33.6,6.79,34.332,7.247,34.805c0.533,0.549,1.236,0.592,1.439,0.592    c0.028,0,0.045-0.001,0.048-0.001c0.753-0.089,1.62-0.134,2.564-0.134c9.29,0,24.345,4.406,24.496,4.45    c5.567,1.923,10.528,2.327,13.711,2.327c1.864,0,2.985-0.144,2.997-0.145c5.953-0.417,14.633-3.627,14.719-3.659l0.021-0.006    c9.24-2.648,15.904-3.204,19.867-3.204c2.925,0,4.537,0.293,4.877,0.363c0.934-0.262,1.504-0.652,1.65-1.129    C93.807,33.711,93.398,33.153,93.311,33.038z"/>
		<path d="M52.027,35.919c0,1.008,0.82,1.83,1.83,1.83c1.008,0,1.828-0.821,1.828-1.83c0-1.009-0.82-1.83-1.828-1.83    C52.848,34.089,52.027,34.91,52.027,35.919z M53.857,37.222c-0.719,0-1.303-0.584-1.303-1.303c0-0.718,0.584-1.302,1.303-1.302    c0.718,0,1.303,0.584,1.303,1.302C55.16,36.638,54.575,37.222,53.857,37.222z"/>
		<path d="M40.626,35.506c0,0.78,0.635,1.415,1.416,1.415c0.781,0,1.416-0.635,1.416-1.415c0-0.782-0.635-1.417-1.416-1.417    C41.261,34.089,40.626,34.724,40.626,35.506z M42.042,36.394c-0.491,0-0.89-0.399-0.89-0.888c0-0.491,0.399-0.889,0.89-0.889    c0.49,0,0.889,0.398,0.889,0.889C42.931,35.995,42.532,36.394,42.042,36.394z"/>
		<path d="M20.124,32.454l0.087,0.017V32.47l0.342,0.065l0.018-0.087c0.116-0.614,0.653-1.059,1.278-1.059    c0.718,0,1.303,0.583,1.303,1.302c0,0.09-0.006,0.184-0.019,0.284l-0.011,0.081l0.515,0.112l0.013-0.094    c0.02-0.137,0.029-0.259,0.029-0.382c0-0.124-0.017-0.252-0.045-0.38c0.175-0.13,0.816-0.558,1.635-0.558    c0.565,0,1.102,0.202,1.6,0.6l0.143,0.114l0.158-0.096c0.007-0.003,0.734-0.433,1.765-0.433c0.704,0,1.374,0.201,1.997,0.595    c-0.142,0.224-0.219,0.479-0.219,0.744c0,0.781,0.635,1.417,1.416,1.417c0.565,0,1.075-0.347,1.297-0.859    c0.347,0.431,0.866,0.687,1.422,0.687c0.948,0,1.735-0.73,1.818-1.67c0.218-0.115,0.708-0.334,1.296-0.334    c0.702,0,1.307,0.312,1.8,0.924L40,33.741l0.194-0.331c0.002-0.004,0.31-0.503,0.711-0.509c0.286,0,0.601,0.264,0.913,0.763    l0.168,0.271l0.234-0.217c0.022-0.02,0.536-0.49,1.253-0.49c0.471,0,0.926,0.204,1.352,0.605c0.063,0.96,0.856,1.708,1.824,1.708    c0.875,0,1.626-0.621,1.793-1.48c0.069-0.097,0.581-0.777,1.344-0.921c0.445-0.084,0.909,0.036,1.371,0.355l0.308,0.212    l0.098-0.36c0.013-0.044,0.313-1.091,1.111-1.414c0.48-0.195,1.073-0.087,1.747,0.315l0.196,0.118l0.145-0.178    c0.006-0.007,0.596-0.721,1.309-0.743l0.031-0.001c0.338,0,0.66,0.166,0.957,0.49l0.174,0.186l0.189-0.164    c0.035-0.029,0.352-0.282,0.793-0.282c0.324,0,0.635,0.138,0.924,0.41c0.188,0.58,0.735,0.982,1.346,0.982    c0.363,0,0.709-0.139,0.972-0.387c0.229,0.758,0.94,1.293,1.748,1.293c1.008,0,1.828-0.82,1.828-1.83    c0-0.114-0.017-0.23-0.038-0.348l0.02-0.046c0.002-0.007,0.311-0.719,0.924-0.933c0.351-0.123,0.748-0.062,1.181,0.177    l0.124,0.069L67.363,31c0.007-0.002,0.535-0.264,1.227-0.264c0.717,0,1.335,0.278,1.84,0.824c-0.01,0.068-0.016,0.133-0.016,0.196    c0,0.732,0.572,1.353,1.304,1.41l0.013,0.001l0.017-0.003c0.262-0.062,0.524-0.125,0.786-0.186l0.025-0.011    c0.43-0.259,0.688-0.712,0.688-1.211c0-0.053-0.006-0.106-0.014-0.158c0.304,0.205,0.66,0.317,1.024,0.317    c0.663,0,1.272-0.359,1.597-0.941c0.235-0.088,0.948-0.325,1.785-0.325c0.995,0,1.803,0.333,2.399,0.986l-0.05,0.124l0.154-0.003    c0.002,0,0.004,0,0.004,0l0.004,0.004l0.022,0.027l0.036-0.032c0.034-0.001,0.07-0.001,0.109-0.002l0.254-0.027l0.023-0.038    c0.161-0.27,0.444-0.431,0.76-0.431c0.254,0,0.496,0.111,0.666,0.303l0.028,0.034l0.044-0.004c0.133-0.009,0.268-0.021,0.407-0.03    l0.146-0.01l-0.073-0.123c-0.257-0.43-0.724-0.697-1.218-0.697c-0.394,0-0.763,0.163-1.029,0.448    c-0.688-0.696-1.59-1.052-2.686-1.052c-0.625,0-1.185,0.116-1.578,0.229c0.012-0.09,0.021-0.18,0.021-0.267    c0-1.009-0.82-1.831-1.828-1.831c-1.01,0-1.832,0.821-1.832,1.831c0,0.139,0.02,0.277,0.053,0.413    c-0.199-0.104-0.418-0.159-0.647-0.159c-0.495,0-0.944,0.258-1.2,0.676c-0.572-0.533-1.253-0.806-2.029-0.806    c-0.617,0-1.121,0.173-1.345,0.264c-0.524-0.263-1.03-0.313-1.491-0.153c-0.5,0.174-0.836,0.564-1.022,0.843    c-0.337-0.525-0.91-0.849-1.537-0.849c-0.574,0-1.104,0.269-1.449,0.721c-0.235-0.483-0.728-0.801-1.271-0.801    c-0.686,0-1.271,0.5-1.393,1.162c-0.273-0.16-0.562-0.246-0.861-0.246c-0.408,0-0.748,0.152-0.942,0.266    c-0.361-0.331-0.761-0.499-1.187-0.499h-0.049c-0.712,0.022-1.291,0.513-1.547,0.771c-0.751-0.402-1.439-0.484-2.031-0.244    c-0.729,0.295-1.121,0.991-1.307,1.437c-0.488-0.265-0.99-0.352-1.482-0.261c-0.54,0.102-0.967,0.4-1.258,0.669    c-0.193-0.814-0.929-1.41-1.778-1.41c-0.814,0-1.532,0.547-1.757,1.319c-0.441-0.329-0.912-0.499-1.402-0.499    c-0.608,0-1.107,0.259-1.386,0.444c-0.372-0.513-0.776-0.773-1.211-0.773l0,0c-0.426,0.006-0.754,0.281-0.941,0.488    c-0.552-0.571-1.215-0.86-1.974-0.86c-0.543,0-1.019,0.149-1.349,0.29c-0.186-0.835-0.916-1.431-1.782-1.431    c-0.844,0-1.562,0.567-1.769,1.37c-0.26-0.236-0.598-0.369-0.95-0.369c-0.3,0-0.593,0.099-0.837,0.277    c-0.727-0.479-1.516-0.725-2.349-0.725c-0.887,0-1.582,0.277-1.882,0.421c-0.549-0.401-1.146-0.603-1.772-0.603    c-0.842,0-1.526,0.366-1.844,0.573c-0.324-0.584-0.925-0.945-1.594-0.945c-0.779,0-1.475,0.505-1.727,1.237    c-0.402-0.165-1.122-0.401-1.957-0.401c-0.307,0-0.607,0.033-0.891,0.098l-0.452,0.104l0.459,0.07    C18.178,32.106,19.135,32.27,20.124,32.454z M34.847,31.389c0.718,0,1.303,0.583,1.303,1.302c0,0.718-0.585,1.303-1.303,1.303    c-0.718,0-1.303-0.585-1.303-1.303C33.544,31.972,34.129,31.389,34.847,31.389z M36.498,32.658l-0.053-0.083    c0.014-0.007,0.03-0.016,0.047-0.025C36.495,32.588,36.497,32.624,36.498,32.658z M33.367,33.277c0,0.042-0.005,0.084-0.009,0.126    c-0.107-0.221-0.164-0.463-0.164-0.712c0-0.012,0.001-0.025,0.001-0.038C33.307,32.843,33.367,33.058,33.367,33.277z     M32.128,34.167c-0.489,0-0.889-0.398-0.889-0.889c0-0.491,0.399-0.889,0.889-0.889c0.491,0,0.89,0.398,0.89,0.889    C33.018,33.769,32.619,34.167,32.128,34.167z M31.186,32.485c-0.001,0-0.001,0-0.003-0.001c0.013-0.016,0.026-0.033,0.04-0.048    L31.186,32.485z M46.649,32.41c0.717,0,1.301,0.584,1.301,1.303c0,0.718-0.584,1.303-1.301,1.303    c-0.719,0-1.304-0.585-1.304-1.303C45.346,32.994,45.93,32.41,46.649,32.41z M48.3,33.712c0,0.052-0.003,0.105-0.008,0.159    l-0.096-0.064c0.026-0.034,0.061-0.077,0.103-0.127C48.3,33.691,48.3,33.703,48.3,33.712z M44.998,33.67    c0.001-0.048,0.003-0.097,0.009-0.145c0.023,0.022,0.048,0.042,0.072,0.064L44.998,33.67z M61.723,31.653    c0,0.217-0.058,0.43-0.166,0.617c-0.002-0.042-0.006-0.083-0.006-0.124c0-0.24,0.055-0.475,0.154-0.693    C61.717,31.52,61.723,31.585,61.723,31.653z M64.732,31.528c0.002,0.005,0.004,0.011,0.008,0.017l-0.014-0.005    C64.729,31.536,64.73,31.532,64.732,31.528z M63.203,30.843c0.719,0,1.301,0.584,1.301,1.303c0,0.718-0.582,1.304-1.301,1.304    c-0.721,0-1.305-0.586-1.305-1.304C61.898,31.428,62.482,30.843,63.203,30.843z M60.482,32.542c-0.433,0-0.793-0.31-0.871-0.72    l0.006-0.007l-0.01-0.009c-0.008-0.049-0.015-0.1-0.015-0.152c0-0.491,0.398-0.89,0.89-0.89c0.492,0,0.891,0.399,0.891,0.89    C61.373,32.142,60.975,32.542,60.482,32.542z M59.275,31.907c-0.014-0.063-0.021-0.126-0.027-0.189    c0.041,0.032,0.078,0.064,0.115,0.099L59.275,31.907z M74.257,28.783c0.718,0,1.302,0.584,1.302,1.303    c0,0.717-0.584,1.303-1.302,1.303c-0.72,0-1.303-0.585-1.303-1.303C72.954,29.368,73.537,28.783,74.257,28.783z M75.762,30.757    l-0.046-0.105c0.028-0.01,0.062-0.022,0.103-0.037C75.801,30.664,75.782,30.711,75.762,30.757z M71.829,30.867    c0.487,0,0.888,0.4,0.888,0.89c0,0.491-0.398,0.889-0.888,0.889c-0.491,0-0.892-0.398-0.892-0.889    C70.938,31.267,71.338,30.867,71.829,30.867z M70.643,31.423c0.01-0.038,0.022-0.074,0.034-0.109    c0.015,0.014,0.027,0.027,0.042,0.042L70.643,31.423z M20.218,32.436l0.009-0.053c0.003-0.013,0.007-0.027,0.011-0.042    c0.009,0.003,0.019,0.008,0.024,0.012L20.218,32.436z"/>
	</g>
	<g>
		<path d="M80.186,31.661l0.265-0.227c-0.037-0.046-0.078-0.088-0.118-0.13c-0.077,0.093-0.141,0.198-0.189,0.31    C80.154,31.63,80.17,31.645,80.186,31.661z"/>
		<path d="M80.174,31.786l-0.138-0.156l0.024-0.051c0.051-0.12,0.119-0.231,0.201-0.331l0.062-0.079l0.085,0.09    c0.034,0.039,0.071,0.077,0.106,0.119l0.057,0.067L80.174,31.786z"/>
	</g>
</g>
</svg>