<svg xmlns="http://www.w3.org/2000/svg" xmlns:xlink="http://www.w3.org/1999/xlink" version="1.1" id="Layer_1" x="0px" y="0px" width="100px" height="100px" viewBox="0 0 100 100" enable-background="new 0 0 100 100" xml:space="preserve">
<path fill="#000000" d="M-469.146-302.19c0.086-0.069,2.832-2.292,3.472-2.749C-466.986-304.06-468.145-303.112-469.146-302.19z"/>
<path fill="#000000" d="M-465.564-305.013c-0.022,0.013-0.06,0.038-0.11,0.074c0.039-0.026,0.077-0.052,0.116-0.077  C-465.56-305.015-465.564-305.013-465.564-305.013z"/>
<path fill="#000000" d="M-469.15-302.187c-0.004,0.004-0.011,0.011-0.018,0.018c0.007-0.007,0.014-0.015,0.021-0.021  C-469.147-302.189-469.15-302.187-469.15-302.187z"/>
<g>
	<path d="M51.093,37.802c-14.028,2.279-15.788,9.658-15.788,9.658c-3.217,5.029-4.425,1.41-4.425,1.41   c-1.246-1.8-2.997-3.004-4.96-3.797c-0.074,0.016-6.955,1.439-12.94,20.69c12.873-0.806,18.102-10.258,18.102-10.258   c2.615-3.421,4.426,0.602,4.426,0.602c0.113,0.134,0.229,0.264,0.346,0.39C37.023,57.467,41.312,58.582,51.093,37.802z"/>
	<path d="M21.481,43.946c-0.013-0.002-0.026-0.003-0.038-0.005C21.455,43.943,21.467,43.944,21.481,43.946z"/>
	<path d="M21.396,43.934c-0.004,0-0.006,0-0.01,0C21.39,43.934,21.394,43.934,21.396,43.934z"/>
	<path d="M21.443,43.941c-0.021-0.003-0.036-0.006-0.048-0.008C21.409,43.936,21.424,43.938,21.443,43.941z"/>
	<path d="M21.743,43.984c-0.017-0.003-0.035-0.007-0.055-0.008C21.706,43.978,21.725,43.981,21.743,43.984z"/>
	<path d="M21.688,43.977c-0.041-0.006-0.079-0.011-0.111-0.016C21.613,43.966,21.651,43.971,21.688,43.977z"/>
	<path d="M21.554,43.957c-0.026-0.004-0.051-0.007-0.072-0.011C21.505,43.95,21.527,43.953,21.554,43.957z"/>
	<path d="M21.577,43.961c-0.007-0.002-0.016-0.004-0.023-0.004C21.562,43.957,21.568,43.959,21.577,43.961z"/>
	<path d="M21.785,43.989c-0.013-0.002-0.028-0.003-0.042-0.005C21.759,43.986,21.772,43.987,21.785,43.989z"/>
	<path d="M21.891,44.005c-0.006-0.001-0.012-0.001-0.018-0.002C21.879,44.004,21.885,44.004,21.891,44.005z"/>
	<path d="M21.386,43.934c-0.002-0.001-0.006-0.001-0.006-0.001S21.384,43.933,21.386,43.934z"/>
	<path d="M21.873,44.003c-0.021-0.004-0.043-0.007-0.064-0.009C21.834,43.998,21.854,44.001,21.873,44.003z"/>
	<path d="M21.934,44.011c-0.016-0.003-0.028-0.005-0.043-0.006C21.916,44.008,21.934,44.011,21.934,44.011z"/>
	<path d="M21.809,43.994c-0.007-0.001-0.014-0.003-0.023-0.005C21.795,43.991,21.8,43.993,21.809,43.994z"/>
	<path d="M21.38,43.933C21.377,43.933,21.377,43.933,21.38,43.933L21.38,43.933z"/>
	<path d="M21.934,44.011c-6.715-0.96-11.567,0.434-11.567,0.434c0.105,5.728,0.826,11.343,1.484,15.374v-0.002   C11.851,59.816,15.503,45.087,21.934,44.011z"/>
	<path d="M67.885,38.955c-5.214-2.435-13.675-1.551-13.675-1.551s-7.001,21.032-15.198,21.477   c6.061,2.624,16.205,0.994,16.205,0.994c0.344-0.018,0.678-0.038,1.01-0.061c6.973-4.004,11.656-20.859,11.656-20.859   C67.885,38.955,67.885,38.955,67.885,38.955z"/>
	<path d="M80.398,50.939L80.398,50.939c-0.01-0.006-0.021-0.008-0.03-0.012C80.378,50.932,80.389,50.938,80.398,50.939z"/>
	<path d="M91.823,33.581c-0.767,0.063-1.515,0.161-2.249,0.285c-5.053,15.73-9.157,17.065-9.176,17.071   c6.36,2.336,13.836,0.713,13.836,0.713C95.241,41.962,91.823,33.581,91.823,33.581z"/>
	<path d="M61.479,59.001C61.252,59.1,61.802,58.921,61.479,59.001L61.479,59.001z"/>
	<path d="M74.122,41.226c-1.407,4.626-3.017,0.402-3.017,0.402c-0.272-0.45-0.487-0.609-0.487-0.609   c-2.882,10.314-9.14,17.982-9.14,17.982c11.455-2.774,11.639-9.932,11.639-9.932c0.804-3.62,3.218-0.402,3.218-0.402   c0.313,0.257,0.638,0.496,0.97,0.717c3.688-0.989,8.541-14.612,8.541-14.612C76.922,36.295,74.122,41.226,74.122,41.226z"/>
</g>
<polygon fill="#000000" points="51.093,37.802 51.093,37.802 51.096,37.802 "/>
<polygon fill="#000000" points="39.012,58.881 39.012,58.881 39.009,58.879 "/>
<path fill="#000000" d="M35.566,56.2c-0.019-0.03-0.041-0.062-0.06-0.093C35.507,56.107,35.527,56.145,35.566,56.2z"/>
<path fill="#000000" d="M35.853,56.497c-0.116-0.126-0.232-0.256-0.346-0.39c0.019,0.031,0.041,0.062,0.06,0.093  C35.623,56.271,35.716,56.384,35.853,56.497z"/>
<path fill="#000000" d="M67.885,38.955c0.842,0.394,1.598,0.871,2.221,1.454C69.646,39.936,68.896,39.299,67.885,38.955z"/>
<path fill="#000000" d="M56.225,59.816c0,0,2.715-0.135,4.418-0.549c-1.328,0.248-2.793,0.435-4.416,0.547  C56.227,59.816,56.227,59.816,56.225,59.816z"/>
<path fill="#000000" d="M25.922,45.073c-0.116-0.055-0.276-0.115-0.461-0.176c0.157,0.057,0.309,0.116,0.459,0.176  C25.922,45.073,25.922,45.073,25.922,45.073z"/>
<path fill="#000000" d="M80.368,50.93c-0.015-0.006-0.026-0.012-0.038-0.017C80.344,50.918,80.355,50.924,80.368,50.93z"/>
<polygon fill="#000000" points="77.305,49.384 77.305,49.386 77.305,49.386 "/>
<path fill="#000000" d="M80.545,33.808h-0.002H80.545z"/>
</svg>