<svg xmlns="http://www.w3.org/2000/svg" xmlns:xlink="http://www.w3.org/1999/xlink" version="1.1" id="Layer_1" x="0px" y="0px" width="100px" height="100px" viewBox="0 0 100 100" enable-background="new 0 0 100 100" xml:space="preserve">
<g>
	<path d="M63.993,31.902l-0.017-0.02L4.316,70.652c-0.993,0.645,0,3.479,0,3.479c0.747,2.619,4.676,5.612,4.676,5.612   c2.057,1.308,2.994,1.122,2.994,1.122l58.715-38.923l-0.004-0.086C70.596,38.841,64.059,31.972,63.993,31.902z"/>
	<path d="M95.773,21.204c0-1.497-3.181-4.676-3.181-4.676c-1.683-1.122-3.553-0.935-3.553-0.935L73.307,25.818   c0.838,0.887,6.5,6.989,6.682,9.97l14.664-9.721C97.082,24.384,95.773,21.204,95.773,21.204z"/>
	<path d="M76.95,37.621c-1.134-3.637-5.903-8.989-6.628-9.787c-0.018-0.019-0.031-0.035-0.043-0.048   c-0.032-0.036-0.053-0.057-0.053-0.057l-1.271,0.845c0.016,0.015,0.027,0.03,0.043,0.044c0.02,0.019,0.037,0.038,0.059,0.057   c4.629,4.619,6.271,9.018,6.549,9.839c0.03,0.09,0.045,0.138,0.045,0.138l0,0l1.347-0.893c0,0-0.002,0-0.002-0.001   C76.98,37.714,76.966,37.667,76.95,37.621z"/>
	<path d="M74.216,39.44c-1.139-3.642-5.916-8.998-6.633-9.786c-0.028-0.031-0.051-0.057-0.065-0.074   c-0.016-0.017-0.025-0.029-0.025-0.029l-1.271,0.846c0.006,0.005,0.01,0.011,0.016,0.016c0.027,0.028,0.055,0.055,0.082,0.082   c4.623,4.613,6.27,9.007,6.552,9.838c0.028,0.084,0.043,0.131,0.045,0.139c0.002,0.001,0.002,0.003,0.002,0.003v0.001l0.589-0.392   l0.756-0.503c0-0.001,0-0.002-0.002-0.004C74.246,39.533,74.229,39.486,74.216,39.44z"/>
</g>
</svg>