<svg xmlns="http://www.w3.org/2000/svg" xmlns:xlink="http://www.w3.org/1999/xlink" version="1.1" id="Layer_1" x="0px" y="0px" width="100px" height="100px" viewBox="0 0 100 100" enable-background="new 0 0 100 100" xml:space="preserve">
<path fill="none" d="M26.499,18.3c1.587,2.066,6.308,4.479,19.77,4.242c0.241-0.004,23.877-0.317,27.11-4.805  c0.309-0.428,0.389-0.871,0.251-1.351c-4.06-5.424-19.675-5.711-22.888-5.711c-0.627,0-0.985,0.008-0.988,0.008  c-20.928,0.628-23.706,4.89-23.915,5.282l-0.053,0.429C25.785,16.818,25.898,17.517,26.499,18.3z M30.843,19.194  c0.045-0.765,0.934-1.137,2.714-1.137c0.218,0,0.443,0.006,0.669,0.02c1.233,0.073,3.293,0.366,3.226,1.51  c-0.046,0.763-0.932,1.136-2.711,1.136c-0.219,0-0.444-0.007-0.671-0.019C32.836,20.631,30.776,20.336,30.843,19.194z"/>
<path fill="none" d="M46.28,23.356c-0.608,0.012-1.201,0.016-1.775,0.016c-12.509,0-17.072-2.479-18.681-4.613  c-0.107-0.142-0.197-0.282-0.281-0.42l-0.438,3.494l-0.003,0.005c-0.069,0.594-0.151,3.677,5.243,5.694  c1.633,0.61,7.817,2.212,16.682,2.283c6.167,0.048,13.713-0.634,17.948-1.622c2.269-0.533,8.353-2.286,9.836-4.078l-0.64-6.103  c-0.041,0.065-0.082,0.136-0.13,0.2C70.57,23.032,47.271,23.345,46.28,23.356z"/>
<path fill="none" d="M47.65,30.634c-0.212,0-0.422-0.002-0.63-0.003c-8.034-0.062-14.545-1.431-16.961-2.333  c-4.429-1.657-5.51-4.064-5.735-5.507c-1.15,1.545-1.632,2.97-1.429,4.243c0.268,1.68,1.653,2.515,1.666,2.522  c7.086,4.373,21.635,4.713,25.924,4.713c0.849,0,1.335-0.014,1.339-0.014c20.812-1.094,23.363-4.229,23.387-4.261l0.035-0.056  l0.042-0.027c0.844-0.702,1.276-1.479,1.282-2.314c0.01-1.207-0.846-2.274-1.312-2.764c-2.247,2.286-9.764,4.073-10.099,4.153  C61.014,29.955,53.749,30.634,47.65,30.634z"/>
<path d="M25.896,30.997l0.032,0.216c7.667,3.575,20.545,3.872,24.557,3.872c0.867,0,1.361-0.015,1.373-0.015  c14.1-0.74,19.971-2.376,22.393-3.499l0.068-0.574C74.318,30.997,50.107,39.34,25.896,30.997z"/>
<path d="M25.103,21.838c0.005-0.051,0.012-0.087,0.015-0.099l-0.4-0.08l0.399,0.084l-0.799-0.169  c-0.012,0.057-0.101,0.526,0.007,1.217c0.211-0.283,0.442-0.57,0.699-0.864L25.103,21.838z"/>
<path d="M74.968,24.548c0.005,0.005,0.124,0.107,0.292,0.286c0.116-0.117,0.219-0.237,0.305-0.358L74.9,24.001  c-0.027,0.038-0.06,0.077-0.092,0.114l0.035,0.328L74.968,24.548z"/>
<g>
	<path d="M50.485,35.085c-4.012,0-16.891-0.297-24.557-3.872l8.31,54.732c0,0,3.52,5.623,19.17,5.08c0,0,12.021-0.727,14.562-6.166   l6.279-53.289c-2.421,1.123-8.292,2.759-22.393,3.499C51.846,35.07,51.352,35.085,50.485,35.085z"/>
	<path d="M75.623,24.042l-0.754-7.194l-0.033-0.066c-3.236-6.424-19.26-6.923-24.094-6.923c-0.643,0-1.008,0.01-1.011,0.01   c-22.693,0.679-24.606,5.646-24.677,5.856l-0.001,0.012l0.779,0.236l-0.39-0.118l0.391,0.116v0.002   c-0.007,0.025-0.046,0.177-0.047,0.422l0.053-0.429c0.209-0.393,2.987-4.654,23.915-5.282c0.003,0,0.361-0.008,0.988-0.008   c3.213,0,18.828,0.287,22.888,5.711c-0.005-0.021-0.009-0.041-0.015-0.06l0.775-0.249c0.219,0.681,0.145,1.33-0.22,1.935   l0.64,6.103c0.031-0.037,0.063-0.076,0.092-0.114l0.664,0.475c-0.086,0.121-0.189,0.241-0.305,0.358   c0.463,0.489,1.319,1.557,1.311,2.764c-0.006,0.835-0.438,1.612-1.282,2.314l-0.042,0.027l-0.035,0.056   c-0.023,0.032-2.572,3.167-23.387,4.261c-0.003,0-0.49,0.014-1.339,0.014c-4.29,0-18.838-0.34-25.924-4.713   c-0.013-0.008-1.398-0.843-1.666-2.522c-0.203-1.273,0.279-2.698,1.429-4.243c-0.108-0.69-0.019-1.16-0.007-1.217l0.799,0.169   l-0.399-0.084l0.4,0.08c-0.002,0.012-0.009,0.048-0.015,0.099l0.003-0.005l0.438-3.494c-0.47-0.784-0.574-1.488-0.569-1.968   l-0.646,5.113c-1.762,2.037-2.515,3.945-2.238,5.679c0.327,2.054,1.987,3.055,2.05,3.094c0.555,0.342,1.154,0.659,1.789,0.956   l-0.032-0.216c24.211,8.343,48.421,0,48.421,0l-0.067,0.574c1.065-0.494,1.465-0.891,1.601-1.064   c1.012-0.854,1.528-1.83,1.537-2.902C77.4,25.863,76.05,24.444,75.623,24.042z"/>
	<path d="M34.069,20.704c0.227,0.012,0.452,0.019,0.671,0.019c1.779,0,2.666-0.373,2.711-1.136c0.068-1.144-1.992-1.437-3.226-1.51   c-0.226-0.014-0.451-0.02-0.669-0.02c-1.78,0-2.668,0.372-2.714,1.137C30.776,20.336,32.836,20.631,34.069,20.704z"/>
	<path d="M64.975,28.193c-4.234,0.988-11.781,1.67-17.948,1.622c-8.865-0.071-15.048-1.673-16.682-2.283   c-5.394-2.018-5.312-5.101-5.243-5.694l-0.079,0.089c-0.257,0.294-0.488,0.581-0.699,0.864c0.225,1.442,1.306,3.85,5.735,5.507   c2.417,0.902,8.928,2.271,16.961,2.333c0.208,0.001,0.418,0.003,0.63,0.003c6.098,0,13.364-0.679,17.511-1.646   c0.334-0.08,7.851-1.867,10.099-4.153c-0.169-0.179-0.287-0.281-0.292-0.286l-0.122-0.104l-0.035-0.328   C73.327,25.907,67.243,27.66,64.975,28.193z"/>
	<path d="M44.505,23.372c0.574,0,1.167-0.004,1.775-0.016c0.991-0.012,24.291-0.324,27.761-5.144c0.048-0.064,0.089-0.135,0.13-0.2   l-0.097-0.931c-0.127-0.241-0.276-0.472-0.444-0.695c0.138,0.479,0.058,0.923-0.251,1.351c-3.232,4.487-26.87,4.801-27.11,4.805   c-13.462,0.237-18.182-2.176-19.77-4.242c-0.601-0.783-0.714-1.481-0.713-1.905l-0.243,1.944c0.083,0.138,0.173,0.278,0.281,0.42   C27.433,20.894,31.996,23.372,44.505,23.372z"/>
</g>
<path d="M25.052,15.736c-0.007,0.021-0.074,0.26-0.078,0.635l0.08-0.635H25.052z"/>
<polygon points="25.442,15.854 25.833,15.973 25.833,15.971 "/>
<path d="M25.833,15.973L25.833,15.973L25.833,15.973z"/>
<path d="M25.543,18.339l0.243-1.944c0.001-0.245,0.04-0.396,0.046-0.422l-0.779-0.236l-0.08,0.635  C24.969,16.851,25.073,17.555,25.543,18.339z"/>
<path d="M74.171,18.013c0.363-0.604,0.438-1.254,0.22-1.935l-0.775,0.249c0.005,0.019,0.009,0.039,0.015,0.06  c0.168,0.224,0.317,0.454,0.444,0.695L74.171,18.013z"/>
</svg>