<svg xmlns="http://www.w3.org/2000/svg" xmlns:xlink="http://www.w3.org/1999/xlink" version="1.1" id="Layer_1" x="0px" y="0px" width="100px" height="100px" viewBox="0 0 100 100" enable-background="new 0 0 100 100" xml:space="preserve">
<g>
	<circle cx="63.322" cy="34.112" r="0.675"/>
	<circle cx="60.729" cy="37.055" r="0.675"/>
	<path d="M93.995,66.35c-0.001-0.013-0.002-0.023-0.004-0.037c-0.007-0.059-0.015-0.117-0.025-0.174   c-0.001-0.004-0.001-0.009-0.002-0.012c-0.011-0.059-0.026-0.116-0.041-0.173c-0.003-0.011-0.006-0.022-0.01-0.035   c-0.017-0.054-0.033-0.106-0.05-0.157c-0.004-0.011-0.008-0.021-0.012-0.031c-0.02-0.049-0.039-0.097-0.058-0.143   c-0.002-0.005-0.004-0.01-0.006-0.015c-0.022-0.048-0.044-0.095-0.067-0.138c-0.006-0.012-0.011-0.021-0.016-0.031   c-0.023-0.043-0.046-0.084-0.068-0.123c-0.006-0.008-0.011-0.016-0.016-0.024c-0.023-0.038-0.045-0.073-0.068-0.108   c-0.002-0.002-0.005-0.008-0.007-0.01c-0.024-0.037-0.049-0.072-0.073-0.104c-0.005-0.008-0.009-0.014-0.015-0.021   c-0.022-0.031-0.046-0.06-0.067-0.087c-0.004-0.007-0.009-0.01-0.013-0.016c-0.021-0.026-0.042-0.05-0.06-0.072   c-0.002-0.001-0.004-0.005-0.006-0.006c-0.017-0.019-0.029-0.034-0.043-0.049c0.312-0.952,0.443-2.681,0.481-4.54   c0.117-2.358,0.038-4.773-0.164-7.137c-0.005-0.088-0.008-0.164-0.013-0.223l0.004-0.003l-0.014-0.159l0,0l-0.02-0.283h-0.007   c-0.122-1.321-0.298-2.673-0.506-4.007c-0.829-5.538-2.104-10.221-2.691-12.221c-0.024-0.087-0.042-0.146-0.05-0.174   c-0.057-0.417-0.167-0.734-0.309-0.979c-0.188-0.492-0.615-0.765-1.225-0.765c-0.062,0-0.125,0.003-0.186,0.008   c-0.391,0.017-0.723,0.142-0.836,0.19c-0.467,0.059-0.963,0.09-1.477,0.09c-1.861,0-3.816-0.39-5.572-0.896   c-2.758-0.814-5.086-1.913-5.692-2.209c0.356-5.019-9.104-9.69-9.651-9.956c-0.416-0.251-0.802-0.378-1.148-0.378   c-0.297,0-0.475,0.094-0.533,0.132c-2.771,1.55-3.928,4.937-4.12,5.562c-1.319,0.857-1.22,2.267-1.125,2.799   c-2.565,1.356-3.54,5.892-3.716,6.831c-0.578,0.159-1.035,0.415-1.373,0.758c-0.412,0.33-0.578,0.776-0.622,1.214   c-0.132,0.702,0.026,1.388,0.144,1.756c-0.502,0.193-1.019,0.695-1.211,0.897c-1.413,0.121-2.179,1.791-2.33,2.153l-1.705,1.37   c-1.779-0.063-2.459,1.201-2.633,1.613l-2.98,1.034c-0.032-0.006-0.064-0.008-0.097-0.013l-0.006-0.01l-0.042-0.005   c-0.027-0.002-0.06-0.003-0.094-0.004c-0.116-0.012-0.231-0.021-0.345-0.021c-1.274,0-2.002,0.75-2.197,0.98l-2.861,1.002   c-0.177-0.037-0.352-0.056-0.521-0.056c-1.162,0-1.773,0.855-1.945,1.143l-2.937,1.096c-0.23-0.07-0.458-0.107-0.68-0.107   c-1.217,0-1.906,1.049-2.069,1.33c-0.721,0.456-0.82,1.41-0.826,1.838c-5.321,1.371-17.588,1.955-17.712,1.959L9.626,56.4   c-3.411,0.58-3.879,4.646-3.943,5.627c0,0,0,0-0.001,0c-0.064,0.018-0.124,0.039-0.18,0.066c-0.005,0.004-0.011,0.006-0.015,0.008   c-0.054,0.027-0.105,0.058-0.153,0.092c-0.006,0.006-0.012,0.01-0.018,0.014c-0.046,0.035-0.089,0.072-0.129,0.113   c-0.006,0.008-0.013,0.014-0.019,0.02c-0.04,0.042-0.076,0.086-0.109,0.133c-0.006,0.008-0.012,0.014-0.017,0.021   c-0.033,0.047-0.064,0.095-0.093,0.146c-0.004,0.008-0.009,0.017-0.013,0.024c-0.028,0.053-0.055,0.104-0.079,0.159   c-0.003,0.008-0.006,0.017-0.009,0.023c-0.023,0.057-0.046,0.113-0.066,0.17c-0.002,0.006-0.003,0.014-0.005,0.018   c-0.02,0.059-0.038,0.115-0.053,0.175c-0.001,0.005-0.002,0.008-0.003,0.013c-0.016,0.06-0.03,0.118-0.042,0.176   c-0.002,0.009-0.004,0.018-0.005,0.024c-0.011,0.056-0.022,0.111-0.031,0.166C4.64,63.6,4.638,63.611,4.636,63.622   c-0.008,0.053-0.015,0.104-0.021,0.153c-0.001,0.011-0.002,0.022-0.004,0.035c-0.006,0.047-0.011,0.094-0.014,0.138   c-0.001,0.012-0.002,0.024-0.003,0.034c-0.003,0.043-0.006,0.084-0.009,0.123c0,0.011-0.001,0.021-0.001,0.033   c-0.002,0.035-0.003,0.071-0.004,0.104c0,0.008,0,0.016,0,0.025c0,0.03-0.001,0.061-0.001,0.086c0,0.004,0,0.01,0,0.015   c0,0.024,0,0.049,0,0.065c-0.521,1.659-0.303,3.192,0.65,4.555c4.269,6.109,21.88,6.986,23.177,7.044   c0.782,0.36,1.56,0.541,2.312,0.541c0.511,0,0.877-0.087,1.051-0.14c0.523,0.254,1.105,0.383,1.735,0.383   c0.838,0,1.527-0.228,1.798-0.332c0.537,0.299,1.162,0.451,1.859,0.451c0.957,0,1.782-0.285,2.09-0.406   c0.713,0.432,1.618,0.65,2.692,0.65c0.8,0,1.438-0.125,1.625-0.166c0.651,0.125,1.242,0.187,1.755,0.187   c1.181,0,1.718-0.329,1.941-0.541c0.805,0.231,1.533,0.35,2.165,0.35c0.836,0,1.299-0.204,1.499-0.323   c0.741,0.186,1.404,0.28,1.973,0.278c1.014,0,1.517-0.294,1.742-0.496c0.543,0.24,1.141,0.361,1.782,0.361   c0.873,0,1.573-0.224,1.819-0.315c0.479,0.162,1.027,0.245,1.633,0.245c0.914,0,1.689-0.186,1.934-0.251   c0.513,0.162,1.08,0.244,1.687,0.244c0.812,0,1.458-0.145,1.676-0.2c0.388,0.122,0.834,0.185,1.333,0.185   c0.799,0,1.503-0.158,1.758-0.221c0.323,0.152,0.786,0.23,1.375,0.23c0.723,0,1.428-0.115,1.655-0.154   c0.343,0.131,0.767,0.195,1.265,0.195c0.744,0,1.438-0.145,1.655-0.195c0.591,0.174,1.19,0.26,1.782,0.26   c0.798,0,1.359-0.16,1.561-0.228c0.438,0.104,0.879,0.159,1.312,0.159c0.846,0,1.433-0.205,1.646-0.292   c0.37,0.081,0.758,0.122,1.152,0.122c0.982,0,1.749-0.252,1.993-0.342c0.565,0.137,1.108,0.207,1.614,0.207   c0.933,0,1.508-0.234,1.728-0.345c0.376,0.083,0.753,0.126,1.123,0.126c1.376,0,2.3-0.576,2.601-0.793   c0.178,0.038,0.357,0.057,0.532,0.057c1.017,0,1.658-0.627,1.858-0.855c0.107-0.032,0.203-0.095,0.285-0.189   c0.517-0.588,0.408-2.468,0.377-2.869l0.035-4.102c0.033-0.076,0.059-0.152,0.082-0.226c0.004-0.015,0.008-0.029,0.013-0.043   c0.021-0.072,0.038-0.142,0.053-0.21c0.002-0.014,0.004-0.027,0.007-0.043c0.012-0.066,0.022-0.137,0.029-0.204   c0-0.003,0-0.005,0.001-0.007c0.006-0.069,0.009-0.135,0.009-0.201c0-0.014,0-0.028,0-0.04   C94.005,66.473,94.001,66.41,93.995,66.35z M92.846,74.191l-0.07,0.096c-0.006,0.006-0.553,0.73-1.52,0.73   c-0.172,0-0.352-0.021-0.529-0.067l-0.125-0.032l-0.101,0.083c-0.009,0.008-0.911,0.753-2.378,0.755   c-0.361,0-0.73-0.046-1.102-0.135l-0.104-0.023l-0.089,0.057c-0.005,0.003-0.524,0.318-1.556,0.318   c-0.489,0-1.018-0.07-1.571-0.209l-0.081-0.019l-0.078,0.032c-0.008,0.002-0.812,0.332-1.878,0.332   c-0.386,0-0.763-0.043-1.12-0.127l-0.088-0.021L80.376,76c-0.005,0.003-0.583,0.279-1.508,0.279c-0.415,0-0.839-0.055-1.261-0.163   l-0.08-0.019l-0.076,0.029c-0.001,0-0.021,0.007-0.061,0.02c-0.027,0.008-0.061,0.021-0.102,0.031   c-0.027,0.01-0.061,0.018-0.096,0.026c-0.25,0.063-0.664,0.142-1.196,0.144c-0.423,0-0.851-0.05-1.276-0.146   c-0.142-0.033-0.283-0.07-0.425-0.113l-0.067-0.02l-0.068,0.017c-0.001,0-0.021,0.005-0.057,0.013   c-0.191,0.045-0.854,0.186-1.545,0.186c-0.465,0-0.849-0.062-1.14-0.186l-0.071-0.031l-0.076,0.016   c-0.008,0.001-0.824,0.16-1.633,0.16c-0.553,0-0.975-0.075-1.221-0.215l-0.093-0.053l-0.103,0.029   c-0.008,0.001-0.811,0.229-1.717,0.229c-0.475,0-0.895-0.062-1.244-0.183l-0.076-0.026l-0.076,0.023   c-0.008,0.002-0.707,0.201-1.613,0.201c-0.582,0-1.121-0.081-1.602-0.241L61.82,75.98l-0.076,0.021   c-0.01,0.003-0.859,0.251-1.866,0.251c-0.585,0-1.106-0.082-1.55-0.244l-0.094-0.036l-0.09,0.039   c-0.008,0.002-0.756,0.312-1.719,0.312c-0.632,0-1.215-0.131-1.73-0.389l-0.201-0.092l-0.124,0.182   c-0.002,0.002-0.147,0.209-0.616,0.334c-0.212,0.06-0.492,0.101-0.854,0.101c-0.555,0-1.211-0.097-1.955-0.291l-0.127-0.028   l-0.098,0.077c-0.004,0.003-0.366,0.285-1.291,0.285c-0.624,0-1.356-0.126-2.176-0.374l-0.19-0.066l-0.099,0.179   c-0.003,0.004-0.316,0.454-1.642,0.454c-0.496,0-1.071-0.063-1.711-0.188l-0.054-0.009l-0.053,0.012   c-0.008,0.003-0.689,0.164-1.562,0.164c-1.033,0-1.884-0.215-2.53-0.641l-0.116-0.076l-0.127,0.058   c-0.008,0.004-0.926,0.414-2.01,0.414c-0.653,0-1.228-0.147-1.708-0.44l-0.114-0.07l-0.121,0.056   c-0.007,0.004-0.763,0.338-1.714,0.338c-0.586,0-1.124-0.125-1.598-0.375l-0.104-0.052l-0.107,0.041   c-0.004,0.003-0.367,0.144-0.978,0.144c-0.693,0-1.414-0.174-2.145-0.516l-0.046-0.021l-0.051-0.002   c-0.183-0.01-18.637-0.825-22.831-6.831c-0.865-1.239-1.057-2.636-0.569-4.152l0.013-0.043L5.084,64.46c0,0,0-0.008,0-0.019   c0,0,0-0.002,0-0.004c0-0.011,0-0.027,0-0.045c0-0.004,0-0.009,0-0.014c0-0.02,0-0.044,0.001-0.07c0-0.004,0-0.01,0-0.017   c0-0.028,0.001-0.06,0.003-0.093c0-0.006,0-0.012,0.001-0.018c0.001-0.035,0.003-0.074,0.006-0.115   c0-0.006,0.001-0.012,0.001-0.017c0.003-0.043,0.007-0.086,0.011-0.132c0-0.005,0.001-0.009,0.002-0.014   c0.004-0.049,0.011-0.098,0.017-0.148c0-0.001,0.001-0.003,0.001-0.005c0.007-0.051,0.015-0.104,0.026-0.159c0,0,0-0.001,0-0.003   c0.01-0.052,0.021-0.104,0.033-0.157c0.001-0.005,0.002-0.01,0.003-0.015c0.012-0.051,0.025-0.101,0.04-0.151   c0.002-0.007,0.004-0.013,0.007-0.02c0.015-0.047,0.031-0.096,0.049-0.141c0.003-0.01,0.005-0.016,0.008-0.021   c0.019-0.046,0.038-0.091,0.06-0.133c0.002-0.008,0.006-0.014,0.01-0.018c0.022-0.043,0.046-0.082,0.072-0.121   c0.002-0.004,0.006-0.01,0.01-0.015c0.027-0.038,0.056-0.075,0.087-0.106c0.003-0.002,0.006-0.004,0.009-0.008   c0.032-0.033,0.067-0.062,0.105-0.088h0.001c0.037-0.025,0.077-0.047,0.12-0.062c0.003-0.001,0.005-0.003,0.008-0.003   c0.298,0.555,1.478,1.979,6.047,3.522c2.776,0.939,6.192,1.553,9.964,2.026c1.862,0.258,3.953,0.485,6.292,0.666   c1.115,0.104,2.246,0.204,3.385,0.305c3.071,0.271,6.203,0.406,9.574,0.406l0,0c6.611,0,12.844-0.515,18.871-1.013   c3.82-0.315,7.427-0.614,10.93-0.764c0.012,0,0.021,0,0.032,0l6.224-0.225c0.709-0.023,1.396-0.043,2.059-0.062   c1.916-0.058,3.629-0.108,5.146-0.174c5.109-0.096,8.151-0.709,8.82-1.783c0.003-0.008,0.006-0.012,0.009-0.018   c0.005,0.006,0.01,0.014,0.014,0.021c0.022,0.033,0.045,0.067,0.066,0.104c0.002,0.007,0.005,0.01,0.009,0.016   c0.022,0.041,0.048,0.084,0.069,0.129c0.005,0.012,0.01,0.022,0.016,0.033c0.02,0.041,0.036,0.08,0.053,0.121   c0.004,0.01,0.01,0.02,0.014,0.031c0.019,0.049,0.037,0.102,0.053,0.156c0.003,0.011,0.007,0.023,0.012,0.035   c0.012,0.045,0.021,0.092,0.031,0.14c0.003,0.014,0.006,0.026,0.008,0.042c0.012,0.059,0.018,0.117,0.023,0.178   c0.001,0.012,0.001,0.023,0.002,0.037c0.003,0.051,0.003,0.104,0.002,0.159c0,0.017-0.001,0.032-0.002,0.049   c-0.003,0.067-0.01,0.132-0.021,0.2c0,0.007-0.002,0.018-0.004,0.025c-0.012,0.061-0.025,0.123-0.044,0.187   c-0.006,0.019-0.011,0.038-0.017,0.056c-0.023,0.073-0.049,0.146-0.081,0.219l-0.021,0.049l-0.037,4.227l0.002,0.01   c0.062,0.85,0.027,2.189-0.254,2.51c-0.031,0.035-0.049,0.037-0.057,0.037L92.846,74.191z M28.347,53.115   c0.104,0.671,0.486,2.275,1.785,2.275c0.019,0,0.038,0,0.056,0l0,0c0.02,0,0.405-0.006,0.719-0.401   c0.454-0.576,0.514-1.626,0.181-3.128l2.893-1.079c0.065,0.487,0.446,2.981,1.446,2.981l0,0c0.034,0,0.07-0.003,0.105-0.009   c0.017,0.001,0.049,0.003,0.093,0.003c0.192,0,0.676-0.05,1.003-0.509c0.469-0.66,0.432-1.864-0.11-3.581l2.924-1.023l0.023-0.009   l0.002,0.014c0.024,0.123,0.591,3.03,1.992,3.03c0.087,0,0.175-0.011,0.265-0.033c0.073-0.004,0.477-0.045,0.749-0.463   c0.418-0.644,0.302-1.795-0.348-3.434l3.048-1.057v0.001c0.042,0.126,1.029,3.097,2.103,3.097c0.054,0,0.106-0.006,0.159-0.021   h0.008c0.105,0,0.646-0.027,0.983-0.542c0.496-0.761,0.312-2.172-0.542-4.189l1.78-1.431c0.385,0.848,1.699,3.531,2.923,3.531   c0.09,0,0.179-0.014,0.263-0.042c0.021-0.006,0.492-0.164,0.7-0.786c0.24-0.714,0.136-2.113-1.661-4.745l0.051-0.057   c0.299-0.328,0.903-0.859,1.26-0.885l0.143-0.011c2.27,3.507,3.877,4.269,4.844,4.269c0.488,0,0.765-0.198,0.824-0.249   c0.102-0.043,0.17-0.126,0.198-0.241c0.267-1.086-3.211-5.424-4.508-6.881c-0.144-0.159-0.284-0.271-0.412-0.352   c0.188-0.091,0.397-0.167,0.633-0.226l0.113,0.031c1.003,0.271,2.14,0.577,2.799,1.349c0,0,0.001,0.001,0.001,0.002   c0.091,0.135,0.316,0.392,0.889,0.928c1.336,1.303,3.234,2.873,3.635,3.202c0.724,3.924-1.969,4.508-2.084,4.531l-0.017,0.003   l-26.167,8.88c-3.109,0.896-5.033,0.836-5.178,0.832c-0.028-0.004-0.055-0.01-0.082-0.017c-0.219-0.062-0.832-0.373-0.937-1.856   h0.003l-0.016-0.209C27.877,54.6,27.806,53.594,28.347,53.115z M58.809,30.005l0.199-0.091l-0.062-0.211   c-0.02-0.065-0.465-1.636,0.941-2.487l0.084-0.052l0.028-0.095c0.011-0.039,1.103-3.79,3.917-5.358l0.018-0.011   c0.004-0.002,0.088-0.052,0.262-0.052c0.176,0,0.475,0.053,0.896,0.31l0.022,0.012c0.094,0.046,9.063,4.435,9.377,8.986   c-2.628-2.945-5.607-3.429-5.734-3.449c-0.243-0.042-0.491-0.063-0.739-0.063c-3.738,0-6.564,4.764-6.889,5.334   c-0.562,0.453-0.925,0.886-0.998,0.975c-1.783,1.711-2.244,3.073-2.346,3.819c-0.732-0.58-1.697-0.847-2.573-1.084   C55.416,35.455,56.417,31.096,58.809,30.005z M83.27,66.729l-6.14,0.221c-1.817,0.056-3.792,0.123-5.924,0.212   c0.378-1.026,1.338-4.081,1.11-8.111c-0.254-4.507-2.121-11.103-9.566-16.933c-1.334-1.136-2.762-2.384-3.645-3.2   c-0.324-0.316-0.615-0.613-0.842-0.873c-0.02-0.31,0.012-1.816,2.227-3.936l0.023-0.025c0.008-0.01,0.381-0.477,0.986-0.952   c0.846-0.657,1.689-0.992,2.516-0.992c0.111,0,0.217,0.006,0.318,0.018c0.02,0.002,0.037,0.003,0.055,0.006   s0.033,0.005,0.049,0.008c0.416,0.068,0.818,0.228,1.207,0.48c8.289,5.548,13.896,10.448,16.846,13.241   c0.341,0.355,1.322,1.365,2.478,2.477c2.05,2.207,3.712,3.439,5.021,4.102c0.363,0.244,0.931,0.522,1.72,0.613   c0.278,0.055,0.532,0.075,0.756,0.075c0.259,0,0.46-0.031,0.615-0.067c0.06,1.032,0.226,4.318,0.163,7.225   c-0.079,1.521-0.241,3.018-0.508,4.451l-0.058,0.075l0.024,0.039c-0.449,1.246-3.301,1.618-8.375,1.834   C83.986,66.721,83.637,66.727,83.27,66.729z M66.523,30.325c0-0.28,0.228-0.507,0.506-0.507c0.279,0,0.508,0.227,0.508,0.507   c0,0.279-0.229,0.506-0.508,0.506C66.751,30.831,66.523,30.604,66.523,30.325z M27.387,54.952c0.048,0.636,0.279,1.987,1.346,2.22   c2.873,4.598,2.246,5.852,2.245,5.854l-0.014,0.023c-0.393,0.734-0.906,1.15-1.528,1.235c-1.552,0.215-3.366-1.599-3.498-1.731   c-1.961-2.463-7.455-2.818-7.694-2.832c-7.286-0.271-8.442-2.199-8.625-2.803c0.026-0.006,0.051-0.014,0.078-0.018   C10.202,56.875,22.046,56.294,27.387,54.952z"/>
</g>
</svg>