<?xml version="1.0" encoding="utf-8"?>
<!-- Generator: Adobe Illustrator 15.1.0, SVG Export Plug-In . SVG Version: 6.00 Build 0)  -->
<!DOCTYPE svg PUBLIC "-//W3C//DTD SVG 1.1//EN" "http://www.w3.org/Graphics/SVG/1.1/DTD/svg11.dtd">
<svg version="1.1" id="Layer_1" xmlns="http://www.w3.org/2000/svg" xmlns:xlink="http://www.w3.org/1999/xlink" x="0px" y="0px"
	 width="67.492px" height="100px" viewBox="0 0 67.492 100" enable-background="new 0 0 67.492 100" xml:space="preserve">
<path d="M67.339,82.301l-14.521-24.42c-0.159-0.27-0.376-1.013,0.462-1.148l3.616-0.37c0.539-0.007,0.943-0.573,0.943-1.135
	c0-0.201-0.056-0.396-0.152-0.563L46.012,34.632c-0.236-0.363-0.128-0.9,0.369-0.976l2.113-0.358
	c0.533-0.089,0.844-0.723,0.75-1.278c-0.023-0.126-0.067-0.253-0.125-0.358l-8.424-14.594c-0.164-0.312,0.031-0.678,0.311-0.763
	l1.102-0.333c0.518-0.156,0.75-0.825,0.586-1.366c-0.023-0.085-0.061-0.168-0.104-0.241L34.564,0.47C34.392,0.187,34.1,0,33.746,0
	c-0.354,0-0.646,0.187-0.817,0.47l-8.025,13.896c-0.042,0.072-0.075,0.155-0.104,0.24c-0.163,0.541,0.069,1.209,0.585,1.366
	l1.103,0.333c0.28,0.085,0.477,0.451,0.312,0.763l-8.425,14.595c-0.058,0.104-0.101,0.232-0.124,0.356
	c-0.094,0.557,0.22,1.189,0.749,1.28l2.113,0.356c0.497,0.076,0.604,0.613,0.369,0.977L9.805,54.664
	c-0.096,0.166-0.153,0.361-0.153,0.563c0,0.561,0.405,1.128,0.942,1.135l3.618,0.37c0.836,0.136,0.62,0.879,0.463,1.148
	L0.153,82.301C0.056,82.467,0,82.662,0,82.864c0,0.561,0.413,1.13,0.948,1.136h28.798v16h8V84h28.797
	c0.538-0.006,0.949-0.574,0.949-1.134C67.492,82.663,67.437,82.468,67.339,82.301z"/>
</svg>
