<svg xmlns:dc="http://purl.org/dc/elements/1.1/" xmlns:cc="http://creativecommons.org/ns#" xmlns:rdf="http://www.w3.org/1999/02/22-rdf-syntax-ns#" xmlns:svg="http://www.w3.org/2000/svg" xmlns="http://www.w3.org/2000/svg" xmlns:sodipodi="http://sodipodi.sourceforge.net/DTD/sodipodi-0.dtd" xmlns:inkscape="http://www.inkscape.org/namespaces/inkscape" width="98" height="51.936691" id="svg5063" version="1.1" inkscape:version="0.48.2 r9819" sodipodi:docname="boardgame.svg">
  <defs id="defs5065">
    <inkscape:perspective sodipodi:type="inkscape:persp3d" inkscape:vp_x="0 : 526.18109 : 1" inkscape:vp_y="0 : 1000 : 0" inkscape:vp_z="744.09448 : 526.18109 : 1" inkscape:persp3d-origin="372.04724 : 350.78739 : 1" id="perspective5655"/>
  </defs>
  <sodipodi:namedview id="base" pagecolor="#ffffff" bordercolor="#666666" borderopacity="1.0" inkscape:pageopacity="0.0" inkscape:pageshadow="2" inkscape:zoom="2.8" inkscape:cx="45.422075" inkscape:cy="33.140948" inkscape:document-units="px" inkscape:current-layer="layer1" showgrid="false" fit-margin-top="0" fit-margin-left="0" fit-margin-right="0" fit-margin-bottom="0" inkscape:window-width="960" inkscape:window-height="1026" inkscape:window-x="958" inkscape:window-y="24" inkscape:window-maximized="0"/>
  <metadata id="metadata5068">
    <rdf:RDF>
      <cc:Work rdf:about="">
        <dc:format>image/svg+xml</dc:format>
        <dc:type rdf:resource="http://purl.org/dc/dcmitype/StillImage"/>
        <dc:title/>
      </cc:Work>
    </rdf:RDF>
  </metadata>
  <g inkscape:label="Layer 1" inkscape:groupmode="layer" id="layer1" transform="translate(-214.57254,-766.12581)">
    <path style="fill:#000000;stroke:none" d="m 233.86306,769.67529 -5.00314,14.43783 1.45366,0 0.20464,5.96284 c 0.11959,0.0842 -2.46275,2.82265 -2.46275,2.82265 l -2.24401,0 -8.72198,25.16389 95.48306,0 -18.70708,-48.38721 -60.0024,0 z m 5.44065,3.60593 49.45981,0 15.42576,39.89105 -78.71653,0 13.83096,-39.89105 z" id="rect5071" inkscape:connector-curvature="0" inkscape:export-filename="/home/jcd/Pictures/boardgame.png" inkscape:export-xdpi="317.56" inkscape:export-ydpi="317.56"/>
    <path style="fill:#000000;stroke:none" d="m 257.53958,792.78305 c -1.21144,0 -2.19053,0.98325 -2.19053,2.19469 0,0.69217 0.32116,1.30868 0.82197,1.7107 l -0.28373,0.004 -0.025,0.121 c 0,0 0.12464,0.0621 0.25452,0.24617 0.12902,0.18284 0.25664,0.48339 0.23366,0.96801 -1.3e-4,0.003 1.3e-4,0.005 0,0.008 -0.29054,1.5804 -1.22418,3.05172 -2.01528,4.10984 -0.13808,0.12267 -0.21697,0.25381 -0.21697,0.39222 0,0.62753 1.55062,1.13489 3.46312,1.13489 1.91249,0 3.46311,-0.50736 3.46311,-1.13489 0,-0.0708 -0.0207,-0.14149 -0.0584,-0.20862 l 0.0584,0 -0.0959,-0.10432 c -1.11461,-1.30689 -1.61955,-2.60456 -2.06952,-4.21415 -6.8e-4,-9.8e-4 6.7e-4,-0.003 0,-0.004 -0.0177,-0.47358 0.11029,-0.77188 0.23783,-0.95132 0.12883,-0.18126 0.25034,-0.242 0.25034,-0.242 l -0.025,-0.121 -0.42558,-0.004 c 0.4993,-0.40207 0.81779,-1.01973 0.81779,-1.7107 0,-1.21144 -0.98325,-2.1947 -2.1947,-2.1947 z" id="path5614" inkscape:connector-curvature="0" inkscape:export-filename="/home/jcd/Pictures/boardgame.png" inkscape:export-xdpi="317.56" inkscape:export-ydpi="317.56"/>
    <path style="fill:#000000;stroke:none" d="m 243.74937,775.94863 -11.66458,33.64593 66.39569,0 -13.0124,-33.64593 -2.7309,0 c 0.84236,0.37788 1.43248,1.21265 1.43248,2.1946 0,0.4969 -0.15911,0.95435 -0.41633,1.34076 l 0.77623,2.01819 -1.05145,0 c 0.21139,0.69638 0.44981,1.32626 0.76212,1.92645 l 1.03732,0 2.07465,5.37009 -10.47907,0 -0.76917,-5.37009 3.24604,0 c 0.34143,-0.60058 0.64413,-1.25222 0.82562,-1.92645 l -4.35393,0 -0.56453,-3.9517 4.12107,0 c 0.17899,-0.70653 0.66735,-1.29274 1.31253,-1.60185 l -36.94139,0 z m 37.98576,0.38105 c -0.79858,0 -1.47098,0.50753 -1.71475,1.2208 l 2.98494,0 0.45163,1.16433 c 0.0591,-0.17969 0.0917,-0.37184 0.0917,-0.57158 0,-1.00596 -0.80758,-1.81355 -1.81354,-1.81355 z m -35.3607,1.2208 7.09191,0 -0.56454,3.9517 -7.89635,0 1.36898,-3.9517 z m 9.28651,0 7.23303,0 0,3.9517 -7.80461,0 0.57158,-3.9517 z m 9.39942,0 8.0022,0 0.57158,3.9517 -8.57378,0 0,-3.9517 z m 15.75742,3.9517 c -0.16433,0.68387 -0.43817,1.32868 -0.75506,1.92645 l 3.49302,0 c -0.29235,-0.60806 -0.5186,-1.24694 -0.71977,-1.92645 l -2.01819,0 z m -36.47565,1.92645 8.27741,0 -0.76917,5.37009 -9.37118,0 1.86294,-5.37009 z m 10.47201,0 8.07983,0 0,5.37009 -8.85605,0 0.77622,-5.37009 z m 10.24622,0 8.84898,0 0.77623,5.37009 -9.62521,0 0,-5.37009 z m -23.32918,7.52941 9.80869,0 -1.00909,7.03545 -11.24119,0 2.44159,-7.03545 z m 11.99625,0 9.16654,0 0,7.03545 -3.40834,0 c 0.25659,0.90461 0.53245,1.71448 0.89619,2.47687 l 2.51215,0 0,6.6191 -11.48111,0 0.95265,-6.6191 2.48392,0 c 0.41209,-0.77691 0.75152,-1.61788 0.91736,-2.47687 l -3.04846,0 1.0091,-7.03545 z m 11.33293,0 9.93571,0 1.01615,7.03545 -10.95186,0 0,-7.03545 z m 12.12325,0 11.00832,0 2.7168,7.03545 -12.70896,0 -1.01616,-7.03545 z m -20.66176,7.03545 c -1.9e-4,0.005 2.2e-4,0.009 0,0.0141 -1.3e-4,0.003 1.3e-4,0.004 0,0.007 4e-5,9.8e-4 6.8e-4,-0.008 0,0.007 l 0,0.0212 -0.007,0.0282 c -0.15553,0.84602 -0.45817,1.65153 -0.82563,2.39925 l 3.88114,0 c -0.33716,-0.75349 -0.60109,-1.53853 -0.83974,-2.3922 l -0.007,-0.0212 0,-0.0282 c 0.002,0.0159 0.007,0.028 0.0141,0.0494 l 0.007,-0.007 c -0.006,-0.029 -0.005,-0.053 -0.007,-0.0776 l -2.21577,0 z m -18.09316,2.47687 11.7422,0 -0.95264,6.6191 -13.08297,0 2.29341,-6.6191 z m 26.63167,0 11.30469,0 0.95265,6.6191 -12.25734,0 0,-6.6191 z m 13.49224,0 13.31583,0 2.56156,6.6191 -14.91769,0 -0.9597,-6.6191 z" id="path5076" inkscape:connector-curvature="0" inkscape:export-filename="/home/jcd/Pictures/boardgame.png" inkscape:export-xdpi="317.56" inkscape:export-ydpi="317.56"/>
    <path style="fill:#000000;stroke:none" d="m 221.60572,766.12581 c -3.56963,0 -6.49219,0.85634 -6.75318,1.94057 l -0.0212,0 0,13.8098 0.0353,0 c -0.0244,0.0724 -0.0353,0.1443 -0.0353,0.21875 0,1.15805 3.03298,2.09582 6.77435,2.09582 3.74137,0 6.77434,-0.93777 6.77434,-2.09582 0,-0.0745 -0.0108,-0.14629 -0.0353,-0.21875 l 0.0353,0 0,-13.8098 -0.0212,0 c -0.26099,-1.08423 -3.18354,-1.94057 -6.75318,-1.94057 z m 0,0.45868 c 2.92735,0 5.29951,0.73811 5.29951,1.6442 0,0.90608 -2.37216,1.63713 -5.29951,1.63713 -2.92735,0 -5.29952,-0.73105 -5.29952,-1.63713 0,-0.90609 2.37217,-1.6442 5.29952,-1.6442 z" id="path5606" inkscape:connector-curvature="0" inkscape:export-filename="/home/jcd/Pictures/boardgame.png" inkscape:export-xdpi="317.56" inkscape:export-ydpi="317.56"/>
    <path inkscape:connector-curvature="0" id="path5651" d="m 281.73924,776.34297 c -1.05038,0 -1.89931,0.85253 -1.89931,1.90291 0,0.60016 0.27847,1.1347 0.7127,1.48326 l -0.24601,0.004 -0.0217,0.10491 c 0,0 0.10806,0.0539 0.22069,0.21345 0.11186,0.15853 0.22251,0.41912 0.20258,0.83931 -1.1e-4,0.003 1.1e-4,0.005 0,0.007 -0.25192,1.37029 -1.06142,2.646 -1.74735,3.56344 -0.11972,0.10635 -0.18813,0.22006 -0.18813,0.34007 0,0.54411 1.34448,0.98401 3.00271,0.98401 1.65823,0 3.0027,-0.4399 3.0027,-0.98401 0,-0.0613 -0.018,-0.12268 -0.0507,-0.18088 l 0.0507,0 -0.0832,-0.0905 c -0.96643,-1.13314 -1.40424,-2.25829 -1.79439,-3.65389 -4.5e-4,-9.8e-4 4.5e-4,-0.003 0,-0.004 -0.0154,-0.41062 0.0956,-0.66926 0.20621,-0.82485 0.11171,-0.15715 0.21707,-0.20982 0.21707,-0.20982 l -0.0217,-0.10491 -0.36901,-0.004 c 0.43293,-0.34862 0.70907,-0.88417 0.70907,-1.48327 0,-1.05039 -0.85254,-1.90292 -1.90291,-1.90292 z" style="fill:#000000;stroke:none" inkscape:export-filename="/home/jcd/Pictures/boardgame.png" inkscape:export-xdpi="317.56" inkscape:export-ydpi="317.56"/>
    <rect style="fill:#000000;stroke:none" id="rect5671" width="4.7901893" height="5.0182934" x="222.63684" y="787.42389" inkscape:export-filename="/home/jcd/Pictures/boardgame.png" inkscape:export-xdpi="317.56" inkscape:export-ydpi="317.56"/>
    <rect y="1044.7894" x="343.66101" height="4.7230997" width="3.4409513" id="rect5673" style="fill:#000000;stroke:none" transform="matrix(0.66291037,-0.74869876,0,1,0,0)" inkscape:export-filename="/home/jcd/Pictures/boardgame.png" inkscape:export-xdpi="317.56" inkscape:export-ydpi="317.56"/>
    <path style="fill:#000000;stroke:none" inkscape:transform-center-x="1.7762971" inkscape:transform-center-y="-1.7058134e-05" d="m 225.64402,784.60595 4.25876,-0.11406 -2.24221,2.3951 -4.65794,-0.057 z" id="rect5675" inkscape:connector-curvature="0" sodipodi:nodetypes="ccccc" inkscape:export-filename="/home/jcd/Pictures/boardgame.png" inkscape:export-xdpi="317.56" inkscape:export-ydpi="317.56"/>
    <rect y="792.47552" x="214.57254" height="5.0182934" width="4.7901893" id="rect5678" style="fill:#000000;stroke:none" inkscape:export-filename="/home/jcd/Pictures/boardgame.png" inkscape:export-xdpi="317.56" inkscape:export-ydpi="317.56"/>
    <rect transform="matrix(0.66291037,-0.74869876,0,1,0,0)" style="fill:#000000;stroke:none" id="rect5680" width="3.4409513" height="4.7230997" x="331.496" y="1040.7333" inkscape:export-filename="/home/jcd/Pictures/boardgame.png" inkscape:export-xdpi="317.56" inkscape:export-ydpi="317.56"/>
    <path sodipodi:nodetypes="ccccc" inkscape:connector-curvature="0" id="path5682" d="m 217.57973,789.65765 4.25875,-0.11405 -2.24221,2.39509 -4.65794,-0.057 z" inkscape:transform-center-y="-1.0552818e-05" inkscape:transform-center-x="1.7763022" style="fill:#000000;stroke:none" inkscape:export-filename="/home/jcd/Pictures/boardgame.png" inkscape:export-xdpi="317.56" inkscape:export-ydpi="317.56"/>
  </g>
</svg>