<?xml version="1.0" encoding="utf-8"?>
<!-- Generator: Adobe Illustrator 14.0.0, SVG Export Plug-In . SVG Version: 6.00 Build 43363)  -->
<!DOCTYPE svg PUBLIC "-//W3C//DTD SVG 1.0//EN" "http://www.w3.org/TR/2001/REC-SVG-20010904/DTD/svg10.dtd">
<svg version="1.0" id="Layer_1" xmlns="http://www.w3.org/2000/svg" xmlns:xlink="http://www.w3.org/1999/xlink" x="0px" y="0px"
	 width="100px" height="62.377px" viewBox="0 0 100 62.377" enable-background="new 0 0 100 62.377" xml:space="preserve">
<path d="M100,23.705c0-0.628-0.363-1.139-1.183-1.139c-0.7,0-1.601,0.198-2.017,1.051c-1.115,2.301-7.629,3.133-20.682,3.133
	c-6.31,0-7.626,0-12.27,0c-48.652,0-59.287-11.444-59.287-25.449C4.563,0.583,3.979,0,3.261,0h-1.96C0.582,0,0,0.583,0,1.301
	c0,6.409,0,54.655,0,59.52c0,0.719,0.582,1.301,1.301,1.301h1.96c0.718,0,1.302-0.582,1.302-1.301
	c0-8.839,4.206-16.762,19.593-21.223c0.74-0.215,1.051,0.105,0.53,1.068c-0.784,1.452-1.182,2.994-1.182,4.582
	c0,9.458,14.639,17.128,32.696,17.128c18.06,0,32.699-7.67,32.699-17.128c0-3.122-1.614-6.027-4.379-8.571
	c-0.663-0.607-0.52-1.164,0.277-1.136c7.33,0.271,11.168,1.246,12.002,2.965c0.416,0.851,1.316,1.052,2.017,1.052
	c0.819,0,1.183-0.513,1.183-1.141C100,34.529,100,29.709,100,23.705z M56.182,55.948c-13.76,0-24.892-4.646-24.892-10.699
	c0-4.09,3.786-8.59,19.961-9.67c1.971-0.131,8.176-0.234,9.991-0.261c8.939-0.131,19.829,3.272,19.829,9.931
	C81.071,51.303,69.94,55.948,56.182,55.948z"/>
</svg>
