<svg xmlns="http://www.w3.org/2000/svg" xmlns:xlink="http://www.w3.org/1999/xlink" version="1.1" id="Layer_1" x="0px" y="0px" width="100px" height="81.9607843137px" viewBox="-69.5 -65.393 255 209" enable-background="new -69.5 -65.393 255 209" xml:space="preserve">
<g id="EYWOue.tif" display="none">
	
		</g>
<path d="M60.032,41.026c0.002-10.599,8.595-19.191,19.191-19.194l0,0c10.599,0.003,19.188,8.596,19.19,19.194l0,0  c-0.002,10.596-8.593,19.188-19.19,19.189l0,0C68.627,60.211,60.034,51.622,60.032,41.026L60.032,41.026z M68.939,41.025  c0.01,5.68,4.605,10.273,10.284,10.283l0,0c5.678-0.01,10.275-4.604,10.284-10.283l0,0c-0.01-5.682-4.606-10.275-10.284-10.285l0,0  C73.545,30.75,68.949,35.343,68.939,41.025L68.939,41.025z"/>
<path d="M52.917,41.026L52.917,41.026c0.003,1.455,0.161,2.873,0.459,4.239"/>
<path d="M60.897-3.065c0,0-1.642,0.18-1.728,1.146c-0.085,0.966,0.469,0.56,0.962,0.548c0.228-0.005,6.9-0.557,9.421,0.316  c2.523,0.874,3.77,0.473,4.688-0.745c0.921-1.219,1.237-1.948-2.161-2.09C68.678-4.026,60.897-3.065,60.897-3.065z"/>
<path d="M65.917,22.773"/>
<path d="M2.362,41.025c0.001-10.601,8.592-19.191,19.192-19.192l0,0c10.599,0.001,19.188,8.592,19.191,19.192l0,0  c-0.002,10.596-8.592,19.188-19.191,19.189l0,0C10.954,60.21,2.363,51.621,2.362,41.025L2.362,41.025z M7.686,41.025  c0.014,7.656,6.21,13.852,13.868,13.868l0,0c7.657-0.017,13.853-6.212,13.865-13.868l0,0c-0.013-7.66-6.208-13.855-13.865-13.867  l0,0C13.895,27.169,7.699,33.365,7.686,41.025L7.686,41.025z"/>
<circle cx="21.554" cy="40.607" r="2.667"/>
<circle cx="79.223" cy="40.774" r="2.667"/>
<path d="M14.75,10.919"/>
<path d="M79.167,38.357l-9.917-16.5L69.083-0.727H64.75v13.584l-37.156-0.628v-0.56c0.432,0,0.781-0.35,0.781-0.781  s-0.35-0.781-0.781-0.781h-3.562c-0.432,0-0.781,0.35-0.781,0.781s0.35,0.781,0.781,0.781v0.5l-6.156-0.104  c-1.094,0-2.375-1.875-3.875-1.875l-9.125-0.021c-0.414,0-0.75,0.336-0.75,0.75s0.336,0.75,0.75,0.75H14  c1.5,0,2.125,1.875,3.875,1.875h8.397l-0.09,0.74c-0.02-0.001-0.037-0.011-0.057-0.011H14.292c-0.621,0-1.125,0.504-1.125,1.125  s0.504,1.125,1.125,1.125h10.433l-0.058,4.667l3.332,1.11l-7.297,17.783l1.621,0.659l8.87-18.154l2.85-0.023l19.917,24.042  l25.458-4.667v-1.083L79.167,38.357z M37.333,18.94v-2.575l27.417-1.759v8.15c-5.02,4.142-8.303,10.304-8.601,17.247L37.333,18.94z   M59.295,42.833c-0.059-0.596-0.103-1.195-0.104-1.806c0.013-6.998,3.501-13.166,8.826-16.892L78.5,40.857L59.295,42.833z"/>
<path d="M58.103,39.159c-3.364-1.121-6.996,0.695-8.117,4.057c-1.018,3.054,0.39,6.321,3.174,7.738l-1.409,4.226  c-0.168,0.502,0.104,1.045,0.606,1.212c0.502,0.168,1.046-0.104,1.213-0.605l1.409-4.225c3.076,0.536,6.165-1.233,7.184-4.286  C63.282,43.914,61.465,40.281,58.103,39.159z M52.672,55.832c-0.23,0-0.417-0.187-0.417-0.417s0.187-0.417,0.417-0.417  s0.417,0.187,0.417,0.417S52.902,55.832,52.672,55.832z"/>
</svg>