<svg xmlns="http://www.w3.org/2000/svg" xmlns:xlink="http://www.w3.org/1999/xlink" version="1.1" id="Layer_1" x="0px" y="0px" width="100px" height="100px" viewBox="0 0 100 100" enable-background="new 0 0 100 100" xml:space="preserve">
<polygon points="4.841,82.896 6.283,83.567 6.858,77.795 4.884,77.339 "/>
<path d="M13.67,56.708c0,0-4.015-7.183-6.339,2.536c0,0-5.283-0.635-6.551,1.48c-1.267,2.112,0.846,9.931,0.846,9.931l2.747,5.704  l0.511,0.118l0.016-2.033l2.185,0.218l-0.227,2.271l0.262,0.061L13.67,56.708z"/>
<path d="M85.816,20.444L41.103,6.287c-4.676-1.48-9.812,1.565-11.471,6.802c-1.658,5.237,0.789,10.685,5.465,12.165l44.714,14.158  c4.677,1.482,9.812-1.564,11.47-6.801C92.94,27.373,90.494,21.925,85.816,20.444z M39.751,23.533c-4.02,0-7.279-3.259-7.279-7.279  c0-4.02,3.26-7.279,7.279-7.279c4.02,0,7.28,3.259,7.28,7.279C47.031,20.273,43.771,23.533,39.751,23.533z"/>
<path d="M28.927,21.335l-17.56,23.436c-2.207,2.945-2.148,6.718,0.13,8.426c2.279,1.708,5.916,0.703,8.123-2.242l17.524-23.388  l-2.852-0.902C31.729,25.853,29.842,23.844,28.927,21.335z"/>
<path d="M92.241,33.52c-3.812,9.762-11.473,7.738-11.473,7.738l-7.438-2.575c-0.831,5.295-1.271,10.913-1.507,15.291  c-0.775,14.281-6.206,13.541-16.615,19.664l-4.592,10.846l-5.189-0.009c-0.728,4.212,1.702,7.312,1.702,7.312l50.411-0.069  c0-1.26,0.32-3.808,0.681-7.238l-4.059-0.007l4.949-11.692C99.582,60.994,98.7,45.966,92.241,33.52z M56.193,84.472l6.08-14.358  l7.076,0.013l-6.077,14.357L56.193,84.472z M68.85,84.472l6.078-14.358l7.076,0.013l-6.078,14.357L68.85,84.472z M88.583,84.484  l-7.077-0.012l6.079-14.358l7.076,0.013L88.583,84.484z"/>
<rect x="45.129" y="93.221" width="55.247" height="2.084"/>
</svg>