<svg xmlns:x="http://ns.adobe.com/Extensibility/1.0/" xmlns:i="http://ns.adobe.com/AdobeIllustrator/10.0/" xmlns:graph="http://ns.adobe.com/Graphs/1.0/" xmlns="http://www.w3.org/2000/svg" xmlns:xlink="http://www.w3.org/1999/xlink" xmlns:a="http://ns.adobe.com/AdobeSVGViewerExtensions/3.0/" version="1.0" id="Layer_1" x="0px" y="0px" width="100px" height="100px" viewBox="0 0 100 100" enable-background="new 0 0 100 100" xml:space="preserve">
<g>
	<path d="M80.325,65.044c1.273,3.295,3.078,7.167,5.285,9.768c0.658,0.774-0.505,1.764-1.163,0.988   c-2.095-2.465-4.008-6.261-5.49-10.019c-3.154,1.994-5.25,5.515-5.25,9.523c0,6.219,5.039,11.258,11.259,11.258   c6.217,0,11.257-5.039,11.257-11.258c0-6.218-5.04-11.258-11.257-11.258C83.312,64.047,81.741,64.404,80.325,65.044L80.325,65.044z    M79.726,63.425l0.124,0.347c1.562-0.694,3.293-1.081,5.116-1.081c6.967,0,12.614,5.648,12.614,12.614   c0,6.968-5.647,12.615-12.614,12.615c-6.97,0-12.616-5.647-12.616-12.615c0-4.59,2.452-8.608,6.117-10.813l-0.128-0.351   c-3.807,2.262-6.356,6.415-6.356,11.164c0,7.17,5.812,12.982,12.983,12.982c7.168,0,12.979-5.812,12.979-12.982   c0-7.168-5.812-12.979-12.979-12.979C83.102,62.325,81.327,62.717,79.726,63.425L79.726,63.425z M39.233,48.558l3.736,13.358h1.418   c0.179,0,0.342,0.078,0.454,0.203l30.49-8.633l-0.735-2.917L39.233,48.558L39.233,48.558z M36.948,47.204l-2.955-10.575   L17.108,37.46l2.389,8.753l0.048,0.001L36.948,47.204L36.948,47.204z M39.598,56.69l-2.303-8.243L28.1,47.925   C32.741,49.669,36.729,52.747,39.598,56.69L39.598,56.69z M36.851,63.789l2.852-0.812l-0.001-0.45l0.003-0.043   C36.381,54.926,28.989,49.56,20.302,49.16l0.833,3.051C28.269,52.819,34.26,57.431,36.851,63.789L36.851,63.789z M34.815,64.371   l0.356-0.101c-2.31-5.491-7.423-9.509-13.547-10.264l0.104,0.381C27.64,55.173,32.568,59.064,34.815,64.371L34.815,64.371z    M24.182,67.968c0.648-0.513,1.128-0.887,1.128-0.887l7.77-2.215c-1.944-4.405-5.972-7.681-10.833-8.582l1.66,6.084   c0.487,1.672-0.047,4.026-1.405,6.076L24.182,67.968L24.182,67.968z M42.43,66.823l-1.859,0.539   c-0.756,0.895-1.209,2.053-1.209,3.314c0,2.841,2.302,5.144,5.145,5.144c0.246,0,0.49-0.016,0.728-0.051l-0.923-3.439   c-0.828-0.098-1.471-0.801-1.471-1.653c0-0.397,0.141-0.763,0.372-1.05L42.43,66.823L42.43,66.823z M46.063,65.772L44.2,66.31   l0.772,2.769c0.69,0.203,1.196,0.843,1.196,1.599c0,0.549-0.265,1.037-0.676,1.34l0.921,3.438c1.896-0.759,3.236-2.612,3.236-4.778   C49.65,68.378,48.143,66.432,46.063,65.772L46.063,65.772z M37.719,75.191l3.175,0.353c-1.486-1.104-2.45-2.873-2.45-4.867   c0-1.057,0.271-2.051,0.747-2.917l-1.163,0.338c0.131,0.896,0.199,1.812,0.199,2.745C38.227,72.34,38.051,73.796,37.719,75.191   L37.719,75.191z M35.612,74.958L35.979,75c0.336-1.329,0.514-2.724,0.514-4.157c0-0.842-0.062-1.672-0.18-2.48l-0.376-0.033   c0.124,0.82,0.189,1.659,0.189,2.514C36.126,72.265,35.946,73.644,35.612,74.958L35.612,74.958z M33.572,75.55L19.51,73.979   c0.703-0.004,1.337-0.224,1.852-0.597l12.451,1.377c0.341-1.247,0.523-2.562,0.523-3.916c0-0.856-0.073-1.697-0.213-2.514   L22.568,71.6c-0.182,0.729-0.616,1.356-1.207,1.782c-0.515,0.373-1.148,0.593-1.834,0.593c-1.739-0.008-3.132-1.406-3.132-3.132   c0-1.731,1.402-3.132,3.132-3.132c0.611,0,1.182,0.175,1.664,0.475c1.418-1.907,1.936-4.141,1.538-5.489l-1.8-6.597   c-0.462-0.045-0.93-0.065-1.402-0.065c-8.178,0-14.808,6.63-14.808,14.809c0,8.178,6.63,14.808,14.808,14.808   C26.061,85.65,31.604,81.42,33.572,75.55L33.572,75.55z M35.758,75.796l-0.371-0.043c-2.094,6.77-8.401,11.687-15.859,11.687   c-9.166,0-16.597-7.431-16.597-16.597c0-9.168,7.431-16.6,16.597-16.6c0.304,0,0.604,0.011,0.902,0.026l-0.102-0.372   c-0.266-0.014-0.533-0.02-0.801-0.02c-9.369,0-16.965,7.595-16.965,16.965c0,9.369,7.596,16.965,16.965,16.965   C27.174,87.808,33.64,82.748,35.758,75.796L35.758,75.796z M43.951,76.711l-0.255-0.028C43.78,76.695,43.865,76.704,43.951,76.711   L43.951,76.711z M43.987,76.717l-0.036-0.006c-0.086-0.007-0.171-0.016-0.255-0.028l-6.187-0.691   c-2.236,7.824-9.44,13.551-17.982,13.551c-10.327,0-18.699-8.37-18.699-18.699c0-10.328,8.372-18.699,18.699-18.699l0.323,0.004   l-0.821-3.01c-1.534,0.016-3.032,0.187-4.479,0.496c-0.904-0.733-1.771-1.479-2.593-2.229c2.008-0.609,4.124-0.974,6.309-1.06   L9.792,15.286l-4.613-3.73c-0.633-0.512,0.135-1.463,0.769-0.949l4.766,3.854c0.027,0.022,0.195,0.279,0.204,0.314l1.745,6.39   c0.585-0.116,3.599-0.564,4.935,2.019c3.232,6.25,3.718,8.352,13.361,8.404c9.646,0.056,11.199,0.545,12.178,0.863   c1.066,0.348,1.218,1.61,1.24,2.19c0.053,1.313-1.031,1.527-1.031,1.527l-7.474,0.368l3.014,10.777l17.644,1.004l0.13-0.839   l9.594-0.048l0.011-0.76l-0.558-1.952l-0.558,0.16c0,0-0.561-0.929-0.565-0.948l-0.284-0.979c-0.008-0.077,0.039-0.151,0.114-0.173   l1.913-0.548c0.084-0.024,0.17,0.023,0.192,0.106l0.274,0.949c0.007,0.029,0.013,1.117,0.013,1.117l-0.514,0.147l0.583,2.038   l-0.011,0.838l2.449-0.012l4.252-0.914L71.418,38l1.774,0.002l1.746-22.443c0,0,0.059-0.318,0.072-0.694   c0.069-2.025-0.908-2.138-2.918-1.065c-0.332,0.178-0.666,0.359-1.002,0.544c-0.062,0.247-0.227,0.478-0.52,0.644   c-2.391,1.36-4.498,2.707-4.498,2.707c-1.198,0.77-2.352-1.031-1.151-1.8c0,0,2.149-1.377,4.593-2.766   c0.297-0.168,0.582-0.19,0.83-0.115c0.342-0.191,0.687-0.38,1.03-0.562c3.78-2.016,5.649-0.05,5.08,3.304l-1.85,23.776   l-1.228-0.001l4.851,19.174c0.016,0.066,0.162,0.62,0.431,1.497c1.812-0.766,3.79-1.214,5.864-1.277   c-0.188,0.629-0.456,1.216-0.804,1.752c-1.603,0.142-3.129,0.541-4.544,1.154l0.146,0.432c1.729-0.75,3.637-1.164,5.644-1.164   c7.844,0,14.206,6.359,14.206,14.207c0,7.849-6.362,14.208-14.206,14.208c-7.849,0-14.21-6.359-14.21-14.208   c0-5.286,2.886-9.896,7.167-12.344l-0.145-0.432c-2.486,1.414-4.521,3.535-5.828,6.088c-0.598-0.082-1.187-0.171-1.765-0.265   c1.495-3.185,3.983-5.812,7.068-7.478c-0.187-0.619-0.356-1.222-0.506-1.791l-0.667-2.636L50.228,63.77l-0.06,0.814l-2.728,0.789   c1.863,1.033,3.125,3.021,3.125,5.304c0,2.591-1.625,4.801-3.915,5.668l0.874,3.26h1.677c0.339,0,0.612,0.272,0.612,0.611v0.875   c0,0.337-0.273,0.609-0.61,0.609h-4.076c-0.336,0-0.609-0.272-0.609-0.611v-0.873c-0.001-0.339,0.273-0.611,0.609-0.611h1.135   l-0.789-2.943c-0.316,0.05-0.639,0.076-0.967,0.076C44.331,76.737,44.157,76.73,43.987,76.717L43.987,76.717z"/>
</g>
</svg>