<svg xmlns:x="http://ns.adobe.com/Extensibility/1.0/" xmlns:i="http://ns.adobe.com/AdobeIllustrator/10.0/" xmlns:graph="http://ns.adobe.com/Graphs/1.0/" xmlns="http://www.w3.org/2000/svg" xmlns:xlink="http://www.w3.org/1999/xlink" xmlns:a="http://ns.adobe.com/AdobeSVGViewerExtensions/3.0/" version="1.0" id="Layer_1" x="0px" y="0px" width="100px" height="100px" viewBox="0 0 100 100" enable-background="new 0 0 100 100" xml:space="preserve">
<g>
	<path d="M22.752,2.522c-0.627,0-1.135,0.508-1.135,1.135v92.284c0,0.627,0.508,1.136,1.135,1.136h43.688   c6.143,0,11.121-4.979,11.121-11.123V3.657c0-0.627-0.508-1.135-1.135-1.135H22.752L22.752,2.522z M76.426,0.3   c1.854,0,3.357,1.503,3.357,3.357v82.297c0,7.371-5.975,13.346-13.346,13.346H22.752c-1.854,0-3.357-1.504-3.357-3.356V3.657   c0-1.854,1.503-3.357,3.357-3.357H76.426L76.426,0.3z M56.755,87.874c-0.114-0.207-0.04-0.467,0.167-0.582l0.098-0.056   c0.207-0.114,0.469-0.038,0.582,0.168l4.328,7.808c0.113,0.207,0.039,0.465-0.168,0.58l-0.098,0.056   c-0.207,0.114-0.467,0.041-0.582-0.166L56.755,87.874L56.755,87.874z M59.6,86.298c-0.115-0.207-0.039-0.469,0.166-0.582   l0.101-0.055c0.207-0.115,0.467-0.039,0.581,0.166l4.326,7.807c0.115,0.207,0.041,0.47-0.166,0.582l-0.1,0.056   c-0.207,0.112-0.467,0.039-0.58-0.166L59.6,86.298L59.6,86.298z M62.443,84.721c-0.114-0.207-0.039-0.466,0.168-0.58l0.098-0.056   c0.207-0.114,0.468-0.041,0.582,0.166l4.328,7.81c0.113,0.205,0.039,0.465-0.168,0.58l-0.1,0.055   c-0.205,0.115-0.467,0.039-0.58-0.166L62.443,84.721L62.443,84.721z M65.288,83.145c-0.114-0.205-0.04-0.468,0.167-0.582l0.1-0.056   c0.207-0.112,0.467-0.039,0.582,0.166l4.326,7.81c0.115,0.207,0.04,0.467-0.166,0.58l-0.1,0.055   c-0.207,0.115-0.467,0.041-0.581-0.166L65.288,83.145L65.288,83.145z M68.133,81.566c-0.113-0.207-0.039-0.467,0.166-0.582   l0.1-0.055c0.207-0.115,0.468-0.039,0.582,0.168l4.326,7.807c0.115,0.207,0.041,0.468-0.166,0.58l-0.099,0.056   c-0.207,0.114-0.468,0.041-0.581-0.166L68.133,81.566L68.133,81.566z M70.979,79.991c-0.115-0.207-0.041-0.468,0.166-0.582   l0.1-0.056c0.206-0.114,0.467-0.041,0.581,0.166l4.327,7.808c0.113,0.207,0.039,0.467-0.166,0.582l-0.1,0.055   c-0.207,0.113-0.468,0.039-0.58-0.166L70.979,79.991L70.979,79.991z M67.217,64.409c0-1.974,1.6-3.57,3.57-3.57   s3.568,1.599,3.568,3.57c0,1.971-1.599,3.567-3.568,3.567C68.814,67.979,67.217,66.38,67.217,64.409L67.217,64.409z M38.573,83.12   c-0.207-0.44-0.005-0.974,0.45-1.187l5.068-2.36c0.455-0.214,0.99-0.025,1.196,0.416c0.207,0.44,0.005,0.973-0.449,1.184   l-5.069,2.363C39.314,83.749,38.779,83.562,38.573,83.12L38.573,83.12z M48.48,83.12c-0.206-0.44-0.005-0.974,0.45-1.187   l5.067-2.36c0.455-0.214,0.989-0.025,1.196,0.416c0.207,0.44,0.005,0.973-0.449,1.184l-5.068,2.363   C49.221,83.749,48.686,83.562,48.48,83.12L48.48,83.12z M30.01,61.062c0-0.502,0.407-0.908,0.908-0.908h3.447   c0.501,0,0.908,0.406,0.908,0.908v3.78h3.781c0.501,0,0.908,0.408,0.908,0.908v3.447c0,0.502-0.407,0.907-0.908,0.907h-3.781v3.781   c0,0.502-0.407,0.908-0.908,0.908h-3.447c-0.501,0-0.908-0.406-0.908-0.908v-3.781h-3.783c-0.501,0-0.908-0.405-0.908-0.907v-3.447   c0-0.5,0.407-0.908,0.908-0.908h3.783V61.062L30.01,61.062z M57.379,68.73c0-1.971,1.598-3.569,3.569-3.569   c1.971,0,3.569,1.6,3.569,3.569c0,1.971-1.599,3.57-3.569,3.57C58.977,72.301,57.379,70.702,57.379,68.73L57.379,68.73z    M33.74,14.021v28.258h31.607V14.021H33.74L33.74,14.021z M27.475,23.766c0,0.513,0.416,0.929,0.928,0.929   c0.513,0,0.929-0.416,0.929-0.929c0-0.513-0.416-0.929-0.929-0.929C27.891,22.837,27.475,23.253,27.475,23.766L27.475,23.766z    M72.277,9.271c1.004,0,1.815,0.812,1.815,1.815v27.269c0,5.015-4.063,9.079-9.079,9.079H26.669c-1.002,0-1.816-0.813-1.816-1.816   V11.087c0-1.003,0.813-1.815,1.816-1.815L72.277,9.271L72.277,9.271z"/>
</g>
</svg>