<svg xmlns="http://www.w3.org/2000/svg" xmlns:xlink="http://www.w3.org/1999/xlink" version="1.1" id="Layer_1" x="0px" y="0px" width="100px" height="100px" viewBox="0 0 100 100" enable-background="new 0 0 100 100" xml:space="preserve">
<path fill="#000000" d="M99.703,77.64l0.014,0.025L72.229,11.272c-0.043-0.118-0.088-0.234-0.14-0.349l-0.011-0.029h-0.002  c-0.781-1.741-2.528-2.955-4.561-2.955c-2.521,0-4.603,1.865-4.948,4.289h-0.002l-9.81,55.719l0,0  c-0.011,0.099-0.017,0.197-0.017,0.298c0,1.5,1.146,2.735,2.611,2.878h0.001c0.013,0,0.024,0.003,0.038,0.003  c0.08,0.005,0.162,0.011,0.243,0.011c0.017,0,0.033,0,0.05-0.003c14.12,0.418,28.031,4.276,39.688,10.63l0.022,0.008  c0.435,0.227,0.926,0.355,1.451,0.355c1.743,0,3.154-1.413,3.154-3.153C100,78.495,99.892,78.047,99.703,77.64z M64.835,13.208  c0.328-1.296,1.426-2.205,2.825-2.205c1.104,0,2.113,0.501,2.641,1.631l4.695,12.411l-0.007,0c0.015,0.296-2.584,0.859-5.882,1.254  c-3.311,0.395-6.015,0.426-6.049,0.132c0-0.003,0-0.006,0-0.008l-0.007,0.001L64.835,13.208z M90.909,74.7  c-9.776-4.58-20.706-7.742-31.555-7.742c-2.315,0-1.619-2.188-1.619-2.188l4.971-33.604c0.224-0.709,1.006-0.868,1.347-0.812  c1.099,0.179,0.965,1.261,0.965,1.261l-4.671,23.534C67.5,54.81,74.654,51.1,81.808,49.566l-8.269-18.468  c0,0-0.428-1.011,0.647-1.519c0.896-0.421,1.51,0.209,1.755,0.752l8.725,22.346L92.693,72C92.693,72,94.608,76.433,90.909,74.7z"/>
<path fill="#000000" d="M0.202,78.974c0,1.74,1.41,3.153,3.153,3.153c0.525,0,1.017-0.129,1.451-0.355l0.021-0.008  c11.657-6.354,25.569-10.212,39.69-10.63c0.017,0.003,0.033,0.003,0.049,0.003c0.082,0,0.164-0.006,0.243-0.011  c0.014,0,0.024-0.003,0.038-0.003l0,0c1.465-0.143,2.612-1.378,2.612-2.878c0-0.101-0.005-0.199-0.016-0.298l0,0l-9.81-55.719  h-0.002c-0.344-2.424-2.427-4.289-4.949-4.289c-2.031,0-3.778,1.214-4.56,2.955h-0.001l-0.011,0.029  c-0.052,0.114-0.097,0.23-0.14,0.349L0.483,77.665l0.014-0.025C0.308,78.047,0.202,78.495,0.202,78.974z M37.148,26.424  l-0.005-0.001c0,0.002,0,0.005,0,0.008c-0.036,0.294-2.738,0.263-6.05-0.132c-3.297-0.395-5.896-0.958-5.881-1.254l-0.007,0  L29.9,12.634c0.527-1.13,1.538-1.631,2.642-1.631c1.399,0,2.498,0.909,2.825,2.205L37.148,26.424z M7.508,72l8.026-19.322  l8.726-22.346c0.245-0.543,0.858-1.174,1.754-0.752c1.075,0.508,0.647,1.519,0.647,1.519l-8.269,18.468  c7.154,1.533,14.307,5.243,21.46,5.582l-4.67-23.534c0,0-0.134-1.082,0.965-1.261c0.341-0.056,1.123,0.104,1.347,0.812l4.97,33.604  c0,0,0.697,2.188-1.62,2.188c-10.848,0-21.778,3.162-31.553,7.742C5.593,76.433,7.508,72,7.508,72z"/>
</svg>