<svg xmlns="http://www.w3.org/2000/svg" xmlns:xlink="http://www.w3.org/1999/xlink" version="1.1" id="Layer_1" x="0px" y="0px" width="100.0px" height="100px" viewBox="0 0 113.39 113.39" enable-background="new 0 0 113.39 113.39" xml:space="preserve">
<g>
	<defs>
		<rect id="SVGID_1_" x="0.111" width="113.385" height="113.387"/>
	</defs>
	<clipPath id="SVGID_2_">
		<use xlink:href="#SVGID_1_" overflow="visible"/>
	</clipPath>
	<path clip-path="url(#SVGID_2_)" d="M108.812,104.713h-5.795L61.285,23.899l8.812-17.064c1.097-2.126,0.241-4.727-1.913-5.81   c-2.154-1.083-4.791-0.238-5.89,1.888l-5.924,11.47l-5.923-11.47c-1.098-2.126-3.736-2.968-5.889-1.888   c-2.155,1.083-3.011,3.685-1.914,5.811l8.812,17.064L9.724,104.713H4.795c-2.418,0-4.378,1.933-4.378,4.319   c0,2.386,1.96,4.319,4.378,4.319h104.017c2.418,0,4.378-1.934,4.378-4.319C113.19,106.646,111.23,104.713,108.812,104.713z    M40.385,104.713L49.3,87.447l7.49-13.462l7.515,13.599l8.844,17.129H40.385z M82.674,104.123L72.08,83.609   c-0.02-0.036-0.038-0.072-0.058-0.107L60.646,62.916c-0.766-1.385-2.236-2.25-3.837-2.252c-0.002,0-0.004,0-0.006,0   c-1.598,0-3.069,0.859-3.838,2.241L41.591,83.348c-0.021,0.039-0.042,0.078-0.063,0.117L30.934,103.98   c-0.123,0.238-0.213,0.484-0.288,0.732H19.552L56.37,33.416l36.818,71.297H82.905C82.838,104.515,82.771,104.316,82.674,104.123z"/>
</g>
</svg>