<svg xmlns="http://www.w3.org/2000/svg" xmlns:xlink="http://www.w3.org/1999/xlink" version="1.0" id="Layer_1" x="0px" y="0px" width="100px" height="100px" viewBox="0 0 100 100" enable-background="new 0 0 100 100" xml:space="preserve">
<g>
	<path fill="#000000" d="M41.147,88.239c0.339,1.202,0.682,2.349,1.021,3.439h15.662c0.34-1.091,0.682-2.237,1.021-3.439H41.147z"/>
</g>
<g>
	<path fill="#000000" d="M64.127,66.783c2.916-15.222,3.853-32.365-3.376-47.637H39.247c-7.227,15.271-6.292,32.415-3.375,47.637   c-1.549,2.142-8.492,9.81-8.492,9.81l1.27,20.205h4.146l3.206-13.114l3.49-1.507c0.395,1.473,0.782,2.892,1.164,4.277h18.687   c0.382-1.386,0.771-2.805,1.165-4.277l3.489,1.507l3.206,13.114h4.146l1.271-20.205C72.62,76.593,65.675,68.925,64.127,66.783z    M50,31.15c2.494,0.048,4.5,2.038,4.5,4.499c0,2.458-2.006,4.453-4.5,4.501c-2.495-0.048-4.5-2.043-4.5-4.501   C45.5,33.188,47.505,31.198,50,31.15z"/>
</g>
<g id="_x3C_Path_x3E_">
	<path fill="#000000" d="M49.975,17.359h0.051h9.812c-2.488-4.672-9.622-14.157-9.862-14.157s-7.324,9.485-9.812,14.157H49.975z"/>
</g>
</svg>