<svg xmlns="http://www.w3.org/2000/svg" xmlns:xlink="http://www.w3.org/1999/xlink" version="1.1" id="Layer_1" x="0px" y="0px" width="85.666px" height="100px" viewBox="-8.282 4.834 85.666 100" style="enable-background:new -8.282 4.834 85.666 100;" xml:space="preserve">
<path style="fill:#231F20;" d="M16.611,67.838h27.052v-2.839H16.611V67.838z M16.611,58.848h27.052v-2.841H16.611V58.848z   M16.611,77.139h27.052v-2.836H16.611V77.139z M64.338,8.74h-4.174l1.744-6.323h-5.69L54.474,8.74h-9.259l1.744-6.323H41.27  L39.525,8.74h-10.31l1.746-6.323h-5.688L23.527,8.74H13.215l1.746-6.323H9.273L7.527,8.74H-4.141v93.677h68.949V86.96h16.717  L64.338,8.74z M56.294,93.9H4.374V23.451h4.804l1.668-6.194h10.337l-1.668,6.194h5.688l1.668-6.194h10.337l-1.668,6.194h5.688  l1.667-6.194h9.286l-1.668,6.194h5.779V93.9H56.294z M16.611,41.18h27.052v-2.836H16.611V41.18z M16.611,50.172h27.052v-2.836  H16.611V50.172z"/>
</svg>