<svg xmlns="http://www.w3.org/2000/svg" xmlns:xlink="http://www.w3.org/1999/xlink" version="1.1" id="Layer_1" x="0px" y="0px" width="50px" height="50px" viewBox="0 0 50 50" enable-background="new 0 0 50 50" xml:space="preserve">
<g>
	<circle cx="34.042" cy="9.263" r="5.153"/>
	<path d="M27.382,9.497c1.834,1.504,1.875,4.489,0.088,6.667L15.976,30.194c-1.785,2.179-4.719,2.727-6.555,1.223l0,0   c-1.834-1.504-1.874-4.487-0.089-6.668l11.495-14.028C22.613,8.542,25.546,7.995,27.382,9.497L27.382,9.497z"/>
	<path d="M31.506,20.54c0.705,0.837,0.363,2.285-0.763,3.233l0,0c-1.127,0.946-2.612,1.038-3.316,0.201l-7.75-9.205   c-0.704-0.836-0.362-2.284,0.764-3.233l0,0c1.126-0.948,2.611-1.038,3.315-0.202L31.506,20.54z"/>
	<path d="M31.109,23.93c-0.506,0.817-1.66,1.019-2.573,0.45l0,0c-0.914-0.568-1.242-1.692-0.734-2.507l5.76-9.268   c0.508-0.815,1.661-1.016,2.575-0.449l0,0c0.913,0.566,1.242,1.691,0.733,2.507L31.109,23.93z"/>
	<path d="M33.196,29.132c0,1.741-1.179,3.153-2.633,3.153H12.32c-1.455,0-2.633-1.412-2.633-3.153l0,0   c0-1.741,1.179-3.153,2.633-3.153h18.243C32.017,25.979,33.196,27.391,33.196,29.132L33.196,29.132z"/>
	<path d="M34.997,41.15c0.328,2.216-0.487,4.176-1.823,4.374l0,0c-1.335,0.198-2.685-1.441-3.015-3.658l-1.696-11.452   c-0.33-2.219,0.486-4.177,1.82-4.374l0,0c1.336-0.199,2.687,1.439,3.015,3.657L34.997,41.15z"/>
</g>
</svg>