<svg xmlns="http://www.w3.org/2000/svg" xmlns:xlink="http://www.w3.org/1999/xlink" version="1.1" id="Layer_2" x="0px" y="0px" width="77.2727272727px" height="100px" viewBox="0 0 612 792" enable-background="new 0 0 612 792" xml:space="preserve">
<g>
	<polygon points="-912.965,425 -912.965,430 -915.965,432 -913.298,435.333 -913.298,491.666 -820.965,491.666 -820.965,424.666     "/>
	<polygon points="-527.966,425 -527.966,430 -524.966,432 -527.633,435.333 -527.633,491.666 -619.966,491.666 -619.966,424.666     "/>
	<polygon points="-720.965,491.666 -619.632,491.666 -619.632,424.334 -615.299,420 -619.299,418.667 -619.965,412 -647.298,412    -646.632,410 -677.632,410 -674.632,405 -720.632,405 -720.298,405 -766.298,405 -763.298,410 -794.298,410 -793.631,412    -820.965,412 -821.631,418.667 -825.631,420 -821.298,424.334 -821.298,491.666 -719.965,491.666  "/>
	<path d="M-720.298,394.167c48.014,0,64.833,7.333,64.833,7.333l-0.5-23c0,0,1.334-3,0.5-5.167c0,0,3.834-3,1.667-6.167   l-2.833-1.833l0.166-3.5c0,0-15.667-10.833-64-11h0.167c-48.333,0.167-64,11-64,11l0.167,3.5l-2.833,1.833   c-2.167,3.167,1.667,6.167,1.667,6.167c-0.833,2.167,0.5,5.167,0.5,5.167l-0.5,23c0,0,16.819-7.333,64.833-7.333H-720.298z"/>
	<path d="M-720.381,318c30.582,0,46.084,5.5,46.084,5.5s-0.002-4-1.168-4.667s-5.666-41-44.916-41s-43.75,40.333-44.917,41   s-1.167,4.667-1.167,4.667S-750.964,318-720.381,318z"/>
	<path d="M-720.381,352.375c40.916,0,54.084,6.25,54.084,6.25c1.379-1,0-7.792,0-7.792V344c0,0,0.726-1.5,0.613-2.167   c-0.113-0.667,4.72-5,0.72-7.667s-18.501-9.333-55.417-9.333s-51.417,6.667-55.417,9.333s0.833,7,0.72,7.667   s0.613,2.167,0.613,2.167v6.833c0,0-1.379,6.791,0,7.792C-774.465,358.625-761.297,352.375-720.381,352.375z"/>
	<path d="M-720.381,272.625c3.916,0,11.084,1.625,11.084,1.625v-3.583c1.334-0.833,0-2.5,0-2.5s-0.834-1.333-1.5-1.833v-12.5   c0,0,0.334-1.833,0-2.833s4.5-3.167,0-5.5s-6.335-2.667-9.584-2.667s-5.084,0.333-9.584,2.667s0.333,4.5,0,5.5s0,2.833,0,2.833   v12.5c-0.667,0.5-1.5,1.833-1.5,1.833s-1.333,1.667,0,2.5v3.583C-731.465,274.25-724.297,272.625-720.381,272.625z"/>
	<path d="M-722.465,227.667l-1.667,3.583c0,1.833,0.584,2.25,0.584,2.25c0.084,3.167-1.834,5.583-1.834,5.583   c-1.5,0.167-2.333,4.667-2.333,4.667v2.667h15.037v-2.667c0,0-0.833-4.5-2.333-4.667c0,0-1.918-2.417-1.834-5.583   c0,0,0.584-0.417,0.584-2.25l-1.667-3.583H-722.465z"/>
	<path d="M-720.381,211.084c0,0-1-0.083-1,1.083c0,0-1.418,0.583-1.584,3.167c0,0-0.582,1.917-0.916,2.667   c0,0,0.082,1.334,0.416,1.917c0,0-0.582,1.416-0.416,2.833c0,0,0.666-1.25,0.833,0s1.055,4,0.902,5.667h3.515   c0,0,0.416-1.584,0.416-1.917s0.001-1.833,0.334-2.667c0,0,0.666,1.167,0.666,1.583c0,0.388,0.072-0.308,0.015-1.75   c-0.004-0.107-0.009-0.218-0.015-0.333c-0.083-1.667,0.001-1.917,0.584-2.5c0,0,0.833-1.75-0.667-5.417   c0,0-1.251-2.583-1.917-2.583c0,0,0.168-1,0.084-1.417c0,0,0.749,0.333,0.916,0.667c0,0,0.535-2.25-1.94-2.75   c0,0-0.31-0.083-0.643,0.333C-720.798,209.668-720.214,209.751-720.381,211.084z"/>
	<path d="M-720.382,282.667c0,0,18.352,1.333,18.352,0s-0.5-2.333-0.75-4.25s0-2.667,0-2.667s-3.584-4.083-17.417-4.083h-0.184   c-13.833,0-17.417,4.083-17.417,4.083s0.25,0.75,0,2.667s-0.75,2.917-0.75,4.25s18.352,0,18.352,0H-720.382z"/>
	<path d="M-668.85,326c-2.125-0.75-6.75-7.125-37-8.625l-9.884-0.75V316l-4.111,0.312l-4.111-0.312v0.625l-9.884,0.75   c-30.25,1.5-34.875,7.875-37,8.625s-1.75,8-1.75,8l52.745-2.551L-667.1,334C-667.1,334-666.725,326.75-668.85,326z"/>
	<path d="M-719.845,410.875h64.245c0,0,6.125-7,0-11s-64.245-8.25-64.245-8.25s-58.12,4.25-64.245,8.25s0,11,0,11H-719.845z"/>
</g>
<path d="M365.128,374.461v-1.059l-19.403-0.07v-0.071l0.917-0.917l-0.847-0.282l-0.141-1.411h-5.786l0.142-0.423h-1.757  c0.295-0.42,0.866-1.462-0.12-2.127l-0.1-4.54c0,0,0.284-0.635,0.106-1.093c0,0,0.812-0.635,0.354-1.306l-0.6-0.388l0.035-0.741  c0,0-0.577-0.397-1.985-0.863c0.109-0.449-0.096-1.465-0.096-1.465v-1.447c0,0,0.152-0.317,0.129-0.458s1-1.059,0.153-1.623  c-0.11-0.073-0.258-0.16-0.448-0.257c0.003-0.43-0.031-1.35-0.374-1.471c-0.185-0.065-0.458-0.33-1.157-0.642  c-0.009-0.235-0.053-0.766-0.244-0.875c-0.201-0.116-0.876-5.841-5.653-7.927c-0.035-0.175-0.093-0.358-0.129-0.627  c-0.053-0.406,0-0.564,0-0.564s-0.325-0.373-1.379-0.628v-0.448c0.282-0.177,0-0.529,0-0.529s-0.176-0.282-0.316-0.388v-2.646  c0,0,0.07-0.388,0-0.6c-0.071-0.212,0.951-0.67,0-1.164c-0.146-0.076-0.277-0.14-0.399-0.197v-0.174c0,0-0.176-0.953-0.494-0.988  c0,0-0.405-0.511-0.388-1.182c0,0,0.124-0.088,0.124-0.477l-0.354-0.758h-0.108c0.022-0.097,0.049-0.209,0.049-0.247  c0-0.07,0-0.388,0.07-0.564c0,0,0.141,0.247,0.141,0.335c0,0.082,0.016-0.065,0.003-0.37c0-0.023-0.001-0.047-0.003-0.071  c-0.018-0.353,0-0.405,0.123-0.529c0,0,0.178-0.371-0.141-1.147c0,0-0.265-0.546-0.405-0.546c0,0,0.036-0.211,0.018-0.3  c0,0,0.158,0.071,0.194,0.141c0,0,0.112-0.476-0.411-0.582c0,0-0.065-0.018-0.136,0.07c0,0,0.123,0.018,0.087,0.3  c0,0-0.212-0.018-0.212,0.229c0,0-0.3,0.123-0.334,0.67c0,0-0.124,0.405-0.194,0.564c0,0,0.019,0.282,0.089,0.405  c0,0-0.123,0.3-0.089,0.6c0,0,0.142-0.265,0.176,0c0.031,0.228,0.175,0.69,0.192,1.04h-0.067l-0.354,0.758  c0,0.389,0.123,0.477,0.123,0.477c0.019,0.67-0.389,1.182-0.389,1.182c-0.316,0.035-0.493,0.988-0.493,0.988v0.138  c-0.143,0.064-0.299,0.141-0.477,0.233c-0.952,0.494,0.071,0.952,0,1.164c-0.07,0.212,0,0.6,0,0.6v2.646  c-0.141,0.106-0.316,0.388-0.316,0.388s-0.282,0.353,0,0.529v0.458c-1.021,0.255-1.341,0.618-1.341,0.618s0.053,0.159,0,0.564  c-0.035,0.259-0.09,0.439-0.125,0.609c-4.815,2.071-5.494,7.83-5.695,7.945c-0.241,0.138-0.248,0.941-0.248,0.984  c-0.53,0.263-0.764,0.476-0.926,0.533c-0.316,0.111-0.37,0.901-0.376,1.362c-0.303,0.14-0.523,0.267-0.674,0.367  c-0.847,0.564,0.177,1.482,0.152,1.623c-0.023,0.141,0.13,0.458,0.13,0.458v1.447c0,0-0.205,1.016-0.097,1.464  c-1.407,0.466-1.985,0.863-1.985,0.863l0.036,0.741l-0.601,0.388c-0.458,0.67,0.354,1.306,0.354,1.306  c-0.177,0.458,0.105,1.093,0.105,1.093l-0.103,4.73c-0.652,0.659-0.156,1.556,0.111,1.937h-2.019l0.141,0.423h-5.786l-0.141,1.411  l-0.847,0.282l0.917,0.917v0.071l-19.403,0.07v1.059L283,374.884l0.564,0.706v11.924h19.474h0.07h21.167h0.212h21.167h0.07h19.474  V375.59l0.564-0.706L365.128,374.461z M326.006,365.258c-0.039,0.056-0.1,0.026-0.136,0.008c-0.096-0.049-0.351-0.176-0.639-0.146  c-0.164,0.017-0.307,0.026-0.421,0.033c-0.085,0.006-0.171,0.011-0.218,0.018v4.368h-0.159v-6.615h0.159v0.229  c0.321,0.188,0.685,0.38,0.761,0.39c0.194,0.024,0.231,0.177,0.26,0.289c0.108,0.429,0.326,1.236,0.381,1.317  C326.043,365.197,326.017,365.245,326.006,365.258z"/>
</svg>