<svg xmlns="http://www.w3.org/2000/svg" xmlns:xlink="http://www.w3.org/1999/xlink" version="1.1" id="Layer_2" x="0px" y="0px" width="77.2727272727px" height="100px" viewBox="0 0 612 792" enable-background="new 0 0 612 792" xml:space="preserve">
<g>
	<rect x="329.723" y="328.765" stroke="#000000" stroke-width="0.0564" stroke-miterlimit="10" width="14.558" height="7.609"/>
	<path stroke="#000000" stroke-width="0.0564" stroke-miterlimit="10" d="M350.781,310.334c-0.338-0.339,0-7.562,0-7.562l2.068-3.95   h-2.218l-1.317-0.79c0,0,0.113-0.79,0-1.354c-0.113-0.565-0.791-0.903-1.016-0.565c-0.227,0.339-1.355,0-1.017,0.903h-35.441   h-10.045h-35.442c0.339-0.903-0.79-0.564-1.016-0.903c-0.226-0.338-0.903,0-1.016,0.565c-0.112,0.564,0,1.354,0,1.354l-1.316,0.79   h-2.22l2.069,3.95c0,0,0.339,7.224,0,7.562c-0.338,0.338-4.289,0-4.289,0l0.564,0.79v1.128l3.724,6.434v2.398h-1.213l1.213,1.213   v19.979h-1.467l1.467,2.37v27.88h-0.451v1.467h0.451v6.659l-0.902,0.79v2.596h31.603v-2.031l-1.241-1.129v-34.2v-2.145l1.354-0.902   l0.451-1.468h-1.241c0,0,0.226-13.883,13.883-13.883h0.113c13.657,0,13.883,13.883,13.883,13.883h-1.241l0.451,1.468l1.354,0.902   v2.145v34.2l-1.241,1.129v2.031h31.604v-2.596l-0.903-0.79v-6.659h0.451v-1.467h-0.451v-27.88l1.468-2.37h-1.468v-19.979   l1.214-1.213h-1.214v-2.398l3.726-6.434v-1.128l0.564-0.79C355.071,310.334,351.12,310.673,350.781,310.334z M284.181,302.829   c0.717,0,1.299,0.581,1.299,1.298s-0.582,1.298-1.299,1.298s-1.298-0.582-1.298-1.298S283.464,302.829,284.181,302.829z    M276.635,302.829c0.717,0,1.298,0.581,1.298,1.298s-0.581,1.298-1.298,1.298s-1.298-0.582-1.298-1.298   S275.918,302.829,276.635,302.829z M269.09,302.829c0.717,0,1.298,0.581,1.298,1.298s-0.581,1.298-1.298,1.298   s-1.298-0.582-1.298-1.298S268.373,302.829,269.09,302.829z M286.445,337.762H266.58v-10.385h19.865V337.762z M291.727,305.425   c-0.717,0-1.298-0.582-1.298-1.298s0.581-1.298,1.298-1.298s1.299,0.581,1.299,1.298S292.443,305.425,291.727,305.425z    M299.272,305.425c-0.717,0-1.299-0.582-1.299-1.298s0.582-1.298,1.299-1.298s1.298,0.581,1.298,1.298   S299.989,305.425,299.272,305.425z M306.817,305.425c-0.717,0-1.298-0.582-1.298-1.298s0.581-1.298,1.298-1.298   s1.299,0.581,1.299,1.298S307.534,305.425,306.817,305.425z M314.363,305.425c-0.717,0-1.299-0.582-1.299-1.298   s0.582-1.298,1.299-1.298s1.297,0.581,1.297,1.298S315.08,305.425,314.363,305.425z M344.547,302.829   c0.717,0,1.298,0.581,1.298,1.298s-0.581,1.298-1.298,1.298s-1.299-0.582-1.299-1.298S343.83,302.829,344.547,302.829z    M337.001,302.829c0.717,0,1.299,0.581,1.299,1.298s-0.582,1.298-1.299,1.298s-1.298-0.582-1.298-1.298   S336.284,302.829,337.001,302.829z M329.454,302.829c0.717,0,1.299,0.581,1.299,1.298s-0.582,1.298-1.299,1.298   s-1.298-0.582-1.298-1.298S328.737,302.829,329.454,302.829z M321.909,305.425c-0.717,0-1.299-0.582-1.299-1.298   s0.582-1.298,1.299-1.298s1.297,0.581,1.297,1.298S322.626,305.425,321.909,305.425z M346.934,337.762h-19.864v-10.385h19.864   V337.762z"/>
	<rect x="269.234" y="328.765" stroke="#000000" stroke-width="0.0564" stroke-miterlimit="10" width="14.558" height="7.609"/>
</g>
</svg>