<svg xmlns="http://www.w3.org/2000/svg" xmlns:xlink="http://www.w3.org/1999/xlink" version="1.1" id="Layer_2" x="0px" y="0px" width="77.2727272727px" height="100px" viewBox="0 0 612 792" enable-background="new 0 0 612 792" xml:space="preserve">
<g>
	<polygon stroke="#000000" stroke-width="0.0771" stroke-miterlimit="10" points="336.44,427.347 334.897,426.981 338.63,430.441     "/>
	<polygon stroke="#000000" stroke-width="0.0771" stroke-miterlimit="10" points="356.031,443.891 354.026,443.891 352.291,441.037    350.131,440.768 348.435,437.76 346.391,437.412 344.732,434.327 342.495,433.749 340.722,430.972 338.63,430.441 356.764,447.255    357.883,447.255  "/>
	<polygon stroke="#000000" stroke-width="0.0771" stroke-miterlimit="10" points="324.273,416.163 322.075,415.314 325.245,418.199     "/>
	<polygon stroke="#000000" stroke-width="0.0771" stroke-miterlimit="10" points="328.478,419.846 326.537,419.375 329.386,421.966     "/>
	<polygon stroke="#000000" stroke-width="0.0771" stroke-miterlimit="10" points="330.9,423.345 329.386,421.966 329.402,422.006     "/>
	<polygon stroke="#000000" stroke-width="0.0771" stroke-miterlimit="10" points="333.746,425.934 332.488,423.51 330.9,423.345    334.897,426.981  "/>
	<path stroke="#000000" stroke-width="0.0771" stroke-miterlimit="10" d="M307.948,412.417l-27.567,35.056l7.713-0.548h0.515   l34.141,0.411c0,0,2.469,0.309,5.039,0c2.079-0.25,10.038-0.634,13.011-0.771l10.488,0.69l-36.452-34.535l6.269,2.247v-0.616   l-0.18-0.205v-1.363l0.36-0.154v-1.131l-0.181-0.154v-1.62l0.36,0.026v-1.466l-9.153-4.062l-15.554,3.215v1.542l0.412-0.103v1.8   h-0.412v1.131h0.412l-0.015,2.366l-2.092,0.382"/>
	<polygon stroke="#000000" stroke-width="0.0771" stroke-miterlimit="10" points="291.86,414.968 290.896,418.169 287.811,418.593    286.23,421.948 283.261,422.334 281.603,425.457 278.864,425.766 276.936,429.159 274.198,429.507 272.385,432.823    269.532,432.823 267.912,436.409 264.981,436.718 263.053,440.034 260.175,440.034 259.003,443.467 255.301,443.467    254.145,447.052 266.205,447.052 267.336,446.741 267.526,446.752 295.062,414.554  "/>
</g>
<polygon stroke="#000000" stroke-width="0.25" stroke-miterlimit="10" points="-525.792,339.333 -525.792,344.333 -524.459,344   -524.459,349.834 -525.792,349.834 -525.792,353.5 -524.459,353.5 -525.125,360.5 -475.542,355.482 -446.875,363.75   -446.875,361.75 -447.458,361.084 -447.458,356.667 -446.292,356.167 -446.292,352.5 -446.875,352 -446.875,346.75   -445.709,346.833 -445.709,342.083 -475.376,328.917 "/>
<path stroke="#000000" stroke-width="0.25" stroke-miterlimit="10" d="M-488.375,354.082h19.917l4.5,10.833l5.916,2.667l3,9.918  l5,1.583l4.332,10.25l6.751,2.083l3.667,10.667l6.583,1.25l5,11.833l5.417,1.5l5.5,12.167l4.583,1.25l6.833,11.916h5.417  l5.083,12.084l6.501,0.417l5,11.498c0,0-37.501,1.667-45.834,2.667s-16.333,0-16.333,0l-110.662-1.331h-1.671l5.667-13.835h2.667  l5.417-12.667h4l4.25-13l5-0.833l3.917-12.083l3.333-1.25l5.75-12.167l2.583-0.75l4.75-11.75l2.583-0.167l5.5-11.083h2.333  l3.833-12.083h3.167L-488.375,354.082z"/>
<polygon stroke="#000000" stroke-width="0.25" stroke-miterlimit="10" points="-624.826,467.746 -663.917,467.746 -660.167,456.125   -648.167,456.125 -644.371,445 -635.042,445 -628.792,434.25 -619.292,433.25 -614.042,421.625 -604.792,421.625 -598.917,410.875   -590.042,409.75 -583.792,398.75 -574.917,397.75 -569.542,387.625 -559.917,386.375 -554.792,375.5 -544.792,374.125   -541.667,363.75 -531.287,362.408 -621.157,466.739 "/>
<polygon stroke="#000000" stroke-width="0.25" stroke-miterlimit="10" points="-331.292,468.404 -331.292,468.404 -327.667,468.404   -333.667,457.5 -340.167,457.5 -345.792,448.25 -352.792,447.375 -358.292,437.625 -364.917,436.5 -370.292,426.5 -377.542,424.625   -383.292,415.625 -390.071,413.906 -397.167,403.875 -402.168,402.689 "/>
<polygon stroke="#000000" stroke-width="0.25" stroke-miterlimit="10" points="-443.729,364.875 -436.604,367.625 -433.455,374.223   -429.266,378.034 -422.979,379.562 -419.979,386.562 -415.124,390.902 -409.979,391.438 -405.9,399.294 -402.168,402.689 "/>
<polygon stroke="#000000" stroke-width="0.25" stroke-miterlimit="10" points="-349.042,468.404 -383.042,466.166 -438.542,404.333   -471.208,356.464 -463.875,354.082 -347.875,465.667 "/>
<polygon stroke="#000000" stroke-width="0.25" stroke-miterlimit="10" points="-578.875,469.11 -553.875,467.335 -480.542,377.833   -482.542,356.464 -484.875,348 -503.708,366.5 -578.875,461.667 "/>
<polygon fill="#000000" points="-467.194,356.464 -349.042,468.404 -331.292,468.404 -443.729,364.875 "/>
<polygon fill="#000000" points="-578.875,469.11 -489.521,355.482 -531.287,362.408 -621.375,467.746 "/>
</svg>