<svg xmlns="http://www.w3.org/2000/svg" xmlns:xlink="http://www.w3.org/1999/xlink" version="1.1" id="Layer_2" x="0px" y="0px" width="77.2727272727px" height="100px" viewBox="0 0 612 792" enable-background="new 0 0 612 792" xml:space="preserve">
<polygon points="316.779,383.169 312.755,382.44 304.747,382.44 303.288,382.44 295.28,382.44 290.807,383.238 289.942,394.681   317.816,394.681 "/>
<path fill="none" d="M315.342,382.44"/>
<path d="M335.224,328.777c-0.161-0.219-0.356-0.242-0.563-0.253c0,0,0.161-0.334-0.449-0.299l-2.038,0.057  c0,0-0.23,0.046,0.069-0.184c0.299-0.23,0.046-0.311,0.046-0.311s-0.139-0.184-2.107,0.046c-1.969,0.23-2.279,0.587-2.532,0.806  l-0.807,0.046c0,0-0.149-0.127-0.806-0.046s-1.543,0.357-1.704,0.392s-1.646-0.023-1.865-0.046s-3.27-0.058-4.029,0.011  c-0.76,0.069-4.087-0.702-4.767-0.944c-0.679-0.242-3.097-1.232-4.328-1.37c-1.232-0.138-2.223-0.449-2.671-0.472  c-0.193-0.01-0.278-0.011-0.311-0.009c-0.002-0.145-0.035-2.047-0.046-2.812c-0.012-0.794,0.368-4.49-0.185-5.204  c-0.552-0.714-1.301-1.462-2.958-1.278c-1.658,0.184-2.21,2.222-2.337,2.636c-0.126,0.415-0.415,2.844-0.483,3.166  c-0.069,0.322-0.483,3.04-0.483,3.132c0,0.092-3.224,0.046-4.698,0.265s-2.59,0.403-2.97,0.426c-0.38,0.023-1.957-0.034-2.901,0.38  c-0.944,0.414-0.863-0.035-1.117,0.437c0,0-3.327-0.092-4.294-0.034s-2.452,0.138-3.753-0.058c-1.301-0.196-1.301-0.265-1.381-0.126  c0,0-0.472,0.023-0.599,0.023c-0.127,0-0.276-0.219-0.933-0.599s-1.001-0.553-1.98-0.553c-0.979,0-2.199-0.115-2.21,0.126  c-0.011,0.242,0.265,0.483,0.415,0.495h-2.452c0,0-0.369,0-0.38,0.276c0,0-0.472,0.012-0.472,0.322c0,0.311,0.345,0.311,0.345,0.311  s-0.092,0.449,0.311,0.449s0.449,0.15,0.449,0.196c0,0.046,0.038,0.114,0.133,0.138c0,0,3.782,0.967,5.042,0.881  s2.418,0.173,2.418,0.173s2.815,6.044,5.112,5.682c0,0,4.559-0.311,5.215,0.104s4.957,2.107,5.25,2.072s-0.604,10.155-0.604,10.155  h0.933c0,0-0.345,1.606,0.604,2.038c0,0-0.363,4.818,0,5.423s0.432,1.123,0.432,1.123l-0.506,16.377l-0.092,3.983  c0,0-0.207,3.04-0.345,3.569c-0.017,0.062-0.029,0.113-0.039,0.155l-2.656,0.413v1.838l3.8-0.591h7.347h1.009h7.347l3.801,0.591  v-1.838l-3.481-0.541c-0.056-0.788-0.599-8.624-0.687-14.326c0,0,0.76,0.184,0.69-0.507c-0.068-0.69-0.161-5.688-0.161-5.688  s0.139-0.023,0.069-0.691c-0.069-0.667,0.783-0.092,0.783-1.704s-0.76-14.299-0.76-14.299l-0.322-5.02c0,0,1.611-0.276,2.303-0.599  c0.69-0.322,0.874-0.276,0.874-0.276s0.646-0.069,0.968-0.253c0.322-0.185,7.897-0.461,7.897-0.461s1.451-0.345,2.947-5.042  c0,0,0.323-0.184,0.484-0.253c0.161-0.069,0.921,0,1.243,0.069c0.321,0.069,3.576-0.24,5.547-0.905  c0.005-0.001,0.009-0.003,0.014-0.005c0,0,0.265-0.081,0.265-0.322l0.668-0.104c0,0,0.149-0.138,0-0.357l0.438-0.092  C335.224,329.088,335.385,328.996,335.224,328.777z"/>
</svg>