<svg xmlns="http://www.w3.org/2000/svg" xmlns:xlink="http://www.w3.org/1999/xlink" version="1.1" x="0px" y="0px" width="77.2727272727px" height="100px" viewBox="0 0 612 792" enable-background="new 0 0 612 792" xml:space="preserve">
<g id="Layer_1">
	<path fill="none" stroke="#000000" stroke-width="0.25" stroke-miterlimit="10" d="M1452.387,13.246"/>
	<g>
		<path d="M270.472,555.528c0,0,0.118-0.855-0.22-0.855l-0.273-5.062c0,0,0.315-0.422-0.191-0.422c-0.505,0-0.126,0.422-0.126,0.422    l-0.337,5.062c-0.338,0-0.22,0.855-0.22,0.855"/>
		<path d="M287.458,633.43c-0.844-1.237-0.506-4.386-0.506-4.386v-2.589h-2.925l-5.848-15.296l0.674-4.555l-0.225-0.675    l-1.855-0.788c-2.532-6.468-5.286-42.514-5.286-42.514s0.709-1.073,1.191-1.178l0.102-3.059l-0.73-0.695    c0,0,0.428-2.428-2.254-2.428c0,0-2.557-0.191-2.267,2.428l-0.731,0.695l0.101,3.059c0,0,0.38,0.022,1.192,1.178    c0,0-2.783,36.925-5.286,42.514l-1.855,0.788l-0.225,0.675l0.674,4.555l-5.848,15.296h-2.925v2.778c0,0,0.46,3.586-1.218,5.224    l-15.485,22.199h13.171c0,0,4.422-19.627,20.695-19.627c0,0,14.743-1.217,20.696,19.627h13.17    C303.654,656.656,288.301,634.666,287.458,633.43z M263.696,625.863l3.459-13.834h5.265l3.458,13.834H263.696z"/>
	</g>
</g>
<g id="Layer_2">
</g>
</svg>