<svg xmlns="http://www.w3.org/2000/svg" xmlns:xlink="http://www.w3.org/1999/xlink" version="1.1" id="Layer_2" x="0px" y="0px" width="77.2727272727px" height="100px" viewBox="0 0 612 792" enable-background="new 0 0 612 792" xml:space="preserve">
<path fill="none" d="M227.083,606.732"/>
<polygon points="179.641,377.38 179.641,383.106 179.866,383.106 180.053,384.679 180.277,384.903 180.54,387.111 181.063,387.111   181.063,387.822 182.485,387.822 182.485,389.432 183.721,389.432 183.721,391.565 184.245,391.565 184.245,395.869   185.292,395.869 185.292,404.178 186.042,404.178 186.042,442.541 187.576,442.541 187.576,447.893 188.212,447.893   188.212,460.655 168.488,460.655 168.488,447.893 169.125,447.893 169.125,442.541 170.658,442.541 170.658,404.178   171.407,404.178 171.407,395.869 172.456,395.869 172.456,391.565 172.979,391.565 172.979,389.432 174.214,389.432   174.214,387.822 175.636,387.822 175.636,387.111 176.16,387.111 176.422,384.903 176.646,384.679 176.834,383.106 177.059,383.106   177.059,377.38 "/>
<polygon points="179.669,376.913 179.669,376.407 180.035,376.407 180.035,376.042 179.473,376.042 179.473,375.032   179.754,375.032 179.754,374.723 179.36,374.723 178.855,374.189 178.35,358.639 177.845,374.189 177.34,374.723 176.946,374.723   176.946,375.032 177.227,375.032 177.227,376.042 176.666,376.042 176.666,376.407 177.031,376.407 177.031,376.913 "/>
</svg>