<svg xmlns="http://www.w3.org/2000/svg" xmlns:xlink="http://www.w3.org/1999/xlink" version="1.1" id="Layer_2" x="0px" y="0px" width="77.2727272727px" height="100px" viewBox="0 0 612 792" enable-background="new 0 0 612 792" xml:space="preserve">
<path d="M322.461,339.528l-0.481-13.614c0.096-0.324,0.146-0.51,0.148-0.524l-0.168-0.043l-0.066-1.855l-0.075-0.038l-0.003-0.08  c0,0,0.021-0.239-0.042-0.239h-0.058c0,0,0.018-0.144-0.046-0.144h-0.062c-0.063,0-0.047,0.144-0.047,0.144h-0.058  c-0.035,0-0.044,0.073-0.045,0.139l-0.063-0.032c-0.824,0.401-1.858,0.483-2.368,0.498v0c0,0,0.018-0.194-0.034-0.194h-0.047  c0,0,0.015-0.117-0.037-0.117h-0.051c-0.052,0-0.037,0.117-0.037,0.117h-0.047c-0.052,0-0.034,0.194-0.034,0.194l-0.001,0.003  c-0.016,0-0.025,0-0.025,0l-0.17-0.034c-2.343,11.793-7.188,16.495-9.782,18.224c-0.898,0.316-1.768,0.622-2.607,0.918  c-0.077-0.01-0.155-0.023-0.232-0.033c-21.947-8.19-54.183-52.843-54.522-53.316l-0.141,0.102l-0.461-0.231l-0.004-0.142  c0,0,0.197-2.224-0.393-2.224h-0.536c0,0,0.161-1.339-0.429-1.339h-0.583c-0.589,0-0.429,1.339-0.429,1.339h-0.536  c-0.44,0-0.442,1.241-0.415,1.869c-3.146,1.254-6.668,1.731-9.155,1.908c0.025-0.374,0.085-1.701-0.325-1.701h-0.434  c0,0,0.13-1.084-0.347-1.084h-0.472c-0.477,0-0.347,1.084-0.347,1.084h-0.434c-0.477,0-0.318,1.799-0.318,1.8  c-0.37,0-0.579-0.007-0.579-0.007l1.263,78.087l-11.714,4.568l19.271,4.612l10.444-5.572c24.608-13.285,61.139-32.486,67.414-32.873  v-0.021L322.461,339.528z M318.872,333.5l0.079,4.852c-1.644,0.577-3.199,1.124-4.682,1.644  C316.169,338.056,317.691,335.726,318.872,333.5z M319.94,330.308c0,0-0.251-0.022-0.228-0.295c0.021-0.249,0.022-0.25-0.002-1.795  c0,0,0.004-0.318,0.616-0.318h0.612c0,0,0.009,0,0.02,0.002c-0.254,0.705-0.568,1.518-0.945,2.399  C319.971,330.305,319.94,330.308,319.94,330.308z M319.83,331.564c0.1-0.054,0.254-0.091,0.497-0.075c0,0,0.843-0.182,0.843,0.341  c0,0.522,0,2.431,0,2.431s0.02,0.228-0.321,0.228s-1.091,0-1.091,0l-0.104-2.551C319.714,331.813,319.773,331.688,319.83,331.564z   M320.065,338.468l-0.125-2.297c0,0-0.023-0.295,0.295-0.341h0.659c0,0,0.341,0.045,0.386,0.75v1.75l-0.782,0.222L320.065,338.468z   M321.17,329.831c0,0-0.026,0.363-0.299,0.386c-0.112,0.009-0.292,0.027-0.464,0.043c0.294-0.694,0.546-1.34,0.762-1.926  C321.167,328.79,321.17,329.831,321.17,329.831z M321.076,324.627l0.091,1.75c0,0,0.067,0.387-0.455,0.432s-1.136,0.02-1.136,0.02  l-0.092-2.018C319.484,324.811,320.395,324.514,321.076,324.627z M318.726,324.539l0.135,8.233c-1.305,2.565-3.072,5.33-5.358,7.493  c-1.264,0.443-2.469,0.867-3.626,1.274C312.568,339.389,316.574,334.625,318.726,324.539z M271.714,315.127  c9.277,10.324,21.925,22.751,32.628,27.417c-16.183-3.383-39.699-24.762-52.583-37.538l-0.491-15.095  C252.476,291.576,260.971,303.171,271.714,315.127z M247.571,321.874c0,0-0.131,1.851-1.519,1.966  c-1.388,0.116-4.743,0.463-4.743,0.463s-1.272-0.116-1.157-1.504c0.106-1.27,0.118-1.273-0.007-9.138c0,0,0.02-1.619,3.137-1.619  h3.117c0,0,1.187,0,1.172,1.388C247.556,314.818,247.571,321.874,247.571,321.874z M243.283,330.318c0,0,4.289-0.925,4.289,1.735  c0,2.66,0,12.376,0,12.376s0.101,1.157-1.634,1.157s-5.554,0-5.554,0l-0.553-13.646C239.83,331.941,239.839,330.087,243.283,330.318  z M247.094,295.385l0.27,5.185c-2.721-2.795-4.453-4.671-4.822-5.074C243.978,295.269,245.637,295.143,247.094,295.385z   M242.336,295.529l-0.128,0.117c0.044,0.048,1.972,2.162,5.183,5.46l0.166,3.186c0,0,0.347,1.966-2.313,2.198  c-2.66,0.231-5.783,0.103-5.783,0.103l-0.465-10.273C238.994,296.319,240.448,295.844,242.336,295.529z M241.998,366.75  l-0.688-12.604c0,0-0.116-1.504,1.504-1.735h3.354c0,0,1.735,0.231,1.966,3.817v8.128L241.998,366.75z M253.962,362.084l-0.34,0.133  l-1.845-56.686c3.833,3.801,8.564,8.322,13.729,12.875c11.681,10.295,27.959,22.795,39.942,24.692  C286.276,349.854,281.631,351.619,253.962,362.084z"/>
<line fill="none" stroke="#000000" stroke-width="0.0491" stroke-miterlimit="10" x1="-485.264" y1="351.877" x2="-484.792" y2="359.234"/>
<path stroke="#000000" stroke-width="0.25" stroke-miterlimit="10" d="M-678.334,446.75v11.625l16.876-8.998L-669.25,210  l-7.333-3.667c-16.667,8.12-39.333,7.333-39.333,7.333l3.667,226.787l16.273,2.633l0.06-10.419l-2-36.667c0,0-0.333-4.333,4.333-5  h9.667c0,0,5,0.667,5.667,11v25.667 M-679.875,303c0,0-0.376,5.333-4.376,5.667S-697.917,310-697.917,310s-3.667-0.333-3.333-4.333  c0.305-3.658,0.339-3.668-0.021-26.333c0,0,0.058-4.667,9.04-4.667h8.982c0,0,3.418,0,3.376,4S-679.875,303-679.875,303z   M-704.591,229.356c0,0,13.34-4.357,23.34-2.69l1.333,25.667c0,0,1,5.666-6.667,6.333s-16.667,0.296-16.667,0.296L-704.591,229.356z   M-702.182,332.011c0,0,0.026-5.342,9.949-4.677c0,0,12.358-2.667,12.358,5s0,35.667,0,35.667s0.291,3.333-4.709,3.333  s-16.006,0-16.006,0L-702.182,332.011z"/>
<path stroke="#000000" stroke-width="0.0491" stroke-miterlimit="10" d="M-464.06,353.875l-1.635-46.214l-1.44-0.72  c-3.274,1.595-7.727,1.441-7.727,1.441l0.721,44.264l7.53,1.44v0.317L-464.06,353.875z M-467.782,325.93  c0,0-0.074,1.047-0.859,1.113c-0.786,0.066-2.685,0.262-2.685,0.262s-0.721-0.065-0.655-0.851c0.061-0.719,0.066-0.721-0.004-5.173  c0,0,0.011-0.917,1.775-0.917h1.765c0,0,0.672,0,0.663,0.786S-467.782,325.93-467.782,325.93z M-472.637,311.464  c0,0,2.621-0.856,4.585-0.529l0.262,5.042c0,0,0.196,1.113-1.31,1.244s-3.273,0.058-3.273,0.058L-472.637,311.464z   M-472.164,331.629c0,0,0.005-1.049,1.954-0.919c0,0,2.428-0.524,2.428,0.982c0,1.506,0,7.006,0,7.006s0.057,0.655-0.925,0.655  c-0.982,0-3.145,0-3.145,0L-472.164,331.629z M-467.462,350.419l-3.471,0.982l-0.393-7.203c0,0-0.065-0.851,0.851-0.982h1.899  c0,0,0.982,0.131,1.113,2.161V350.419z"/>
<g>
	<path d="M-502.783,367.032c-33.143-6.982-76.762-49.248-107.518-83.475c-33.288-37.045-59.099-72.908-59.356-73.266l0.812-0.583   c1.025,1.429,103.284,143.078,166.269,156.346L-502.783,367.032z"/>
</g>
<g>
	<path d="M-492.524,359.625l-0.621-0.783c19.063-15.146,27.077-45.652,27.156-45.959l0.969,0.249   C-465.099,313.442-473.194,344.269-492.524,359.625z"/>
</g>
<g>
	<path d="M-510.566,364.525c-34.738-4.042-83.139-41.124-117.625-71.52c-37.327-32.901-66.847-65.267-67.141-65.59l0.74-0.673   c1.173,1.29,118.093,129.105,184.141,136.79L-510.566,364.525z"/>
</g>
<g>
	<path d="M-508.232,364.385l-0.287-0.958c0.236-0.071,23.737-7.675,33.167-55.143l0.98,0.195   C-483.931,356.601-507.991,364.313-508.232,364.385z"/>
</g>
<path stroke="#000000" stroke-width="0.25" stroke-miterlimit="10" d="M-714.25,213.687c0,0-0.459-5.187,0.916-5.187h1.25  c0,0-0.375-3.125,1-3.125h1.359c1.375,0,1,3.125,1,3.125h1.25c1.375,0,0.916,5.187,0.916,5.187l0.073,2.563h-8.473L-714.25,213.687z  "/>
<path stroke="#000000" stroke-width="0.25" stroke-miterlimit="10" d="M-680.095,208.927c0,0-0.567-6.409,1.132-6.409h1.544  c0,0-0.463-3.861,1.235-3.861h1.679c1.699,0,1.235,3.861,1.235,3.861h1.544c1.699,0,1.132,6.409,1.132,6.409l0.09,3.167h-10.469  L-680.095,208.927z"/>
<path stroke="#000000" stroke-width="0.25" stroke-miterlimit="10" d="M-474.786,308.375c0,0-0.05-0.558,0.099-0.558h0.134  c0,0-0.04-0.336,0.107-0.336h0.146c0.148,0,0.107,0.336,0.107,0.336h0.135c0.148,0,0.099,0.558,0.099,0.558l0.008,0.275h-0.911  L-474.786,308.375z"/>
<g>
	<path stroke="#000000" stroke-width="0.0491" stroke-miterlimit="10" d="M-466.132,351.743l-7.53-1.44   c-91.985,32.3-91.974,32.33-187.796,68.572l1.058,30.219c70.915-38.284,176.188-93.617,194.269-94.731V351.743z"/>
</g>
<polygon stroke="#000000" stroke-width="0.0491" stroke-miterlimit="10" points="-746.035,451.859 -690.5,465.151 -660.401,449.094   -661.458,418.875 "/>
</svg>