<svg xmlns="http://www.w3.org/2000/svg" xmlns:xlink="http://www.w3.org/1999/xlink" version="1.1" id="Layer_2" x="0px" y="0px" width="77.2727272727px" height="100px" viewBox="0 0 612 792" enable-background="new 0 0 612 792" xml:space="preserve">
<g>
	<path d="M337.406,256.333l0.408,1.021l2.962-0.205c0,0,1.736-8.885,0-10.52l-2.859-0.307c0,0,0.511-17.26-0.919-18.69   c-1.43-1.43-19.916,0-19.916,0l0.217,0.076l-5.639,16.254l-0.434-0.151l5.639-16.254l0.217,0.075l-5.209-2.553H306h-5.873   l-4.773,2.34l0.217-0.077l5.835,16.468l-0.434,0.154l-5.826-16.443l-0.228,0.111c0,0-18.486-1.43-19.916,0   c-1.43,1.43-0.919,18.69-0.919,18.69l-2.859,0.307c-1.736,1.634,0,10.52,0,10.52l2.962,0.205l0.408-1.021l3.779,0.204l4.8,0.205   c-0.51,0.102,0.715,0.919,1.941,0.919s1.328-1.328,1.328-1.328c-0.103-2.145,0.919-2.145,0.919-3.881s1.226-1.838,1.226-1.838   s0.103-1.328,1.634-1.634c1.532-0.307,1.532-3.269,1.532-3.269l4.902-1.021c2.757,5.924-0.307,8.272-0.307,8.272   s-2.655-0.102-4.494,1.736s-4.494-0.511-4.596,3.881c0,0-1.021,24.614-5.107,30.027s-6.537,6.843-6.537,6.843   s-2.86,2.655-3.473,5.924c-0.613,3.268,13.073,6.536,27.065,7.047c0,0,5.719,1.124,4.902-3.881s-2.553-2.86-2.655-7.456   c-0.103-4.596-3.575-4.698-3.167-9.805c0.409-5.106,0.511-13.073,0.715-13.583c0,0,0.893,9.997,0.307,13.482   c-0.586,3.484,1.124,4.901,1.736,5.923s1.226,6.128,2.145,7.149c0.919,1.021,2.145,8.284,4.596,8.278   c2.451-0.005,5.005-0.107,5.005-0.107c13.992-0.511,27.679-3.779,27.065-7.047c-0.612-3.269-3.473-5.924-3.473-5.924   s-2.451-1.43-6.536-6.843c-4.086-5.413-5.106-30.027-5.106-30.027c-0.103-4.392-2.758-2.043-4.597-3.881   c-1.838-1.838-4.493-1.736-4.493-1.736s-3.064-2.349-0.307-8.272l4.902,1.021c0,0,0,2.962,1.532,3.269s1.634,1.634,1.634,1.634   s1.226,0.102,1.226,1.838s1.021,1.736,0.919,3.881c0,0,0.103,1.328,1.328,1.328s2.451-0.817,1.94-0.919l4.8-0.205L337.406,256.333z   "/>
</g>
</svg>