<svg xmlns="http://www.w3.org/2000/svg" xmlns:xlink="http://www.w3.org/1999/xlink" version="1.1" id="Layer_2" x="0px" y="0px" width="77.2727272727px" height="100px" viewBox="0 0 612 792" enable-background="new 0 0 612 792" xml:space="preserve">
<path fill="none" stroke="#000000" stroke-width="0.25" stroke-miterlimit="10" d="M-1201.765,372.333h292c0,0-94-94.667-96-97.667  s-10.333-8.333-14.666-11.333s-30.334-29-30.334-29l-3.333-2.333c0,0-2-2.667-3.667-4s-1.666-6-1.666-6s-34.334-33.667-38.667-38  s-9.666-3.667-9.666-3.667s-30,32.667-39.334,41.333s-18,23.333-18,23.333l-54.667,57.333l38.627,31.883L-1193.431,360  L-1201.765,372.333z"/>
<path fill="none" stroke="#000000" stroke-width="0.25" stroke-miterlimit="10" d="M-891.666,352.667c-1.667-1.333-3.333-5-3.333-5  s-16.333-12-19-15.333s-20.333-17.667-21.666-19S-946.332,303-947.999,302s-30.333-28.333-30.333-28.333l-2.667-3l-25.666-21.333  h-6.334h-4L-1079.666,311l39.093,16.006l-16.092,45.327h8.333h170.667C-879.998,361.333-889.999,354-891.666,352.667z"/>
<path fill="none" stroke="#000000" stroke-width="0.25" stroke-miterlimit="10" d="M-1139.395,374.333  c-11.667-15.333-149.667-145.667-149.667-145.667l-8.333-12l-10.333,2.667l-3,1.667c0,0-20,23-20.333,24.333s-15.667,13.667-21,18  S-1395.395,313-1395.395,313l-57.667,62.333l42,18.333l0.378-0.637l0.956,0.637  C-1409.728,393.667-1127.729,389.667-1139.395,374.333z"/>
<line fill="none" stroke="#000000" stroke-width="0.25" stroke-miterlimit="10" x1="-1290.395" y1="191.666" x2="-1432.395" y2="426"/>
<line fill="#000000" stroke="#FFFFFF" stroke-width="2" stroke-miterlimit="10" x1="-1095.763" y1="151.668" x2="-1241.763" y2="479.001"/>
<line fill="none" stroke="#000000" stroke-width="0.25" stroke-miterlimit="10" x1="-1002.666" y1="219" x2="-1057.999" y2="396"/>
<path d="M206.079,519.534l-0.387,0.143c0,0-3.198,3.677-3.251,3.891c-0.054,0.212-2.505,2.185-3.358,2.878  c-0.853,0.693-6.929,7.941-6.929,7.941l-9.221,9.968l6.716,2.931l0.06-0.103l0.031,0.021l16.498-27.711L206.079,519.534z"/>
<path d="M268.748,542.968h16.146c-0.373-1.759-1.973-2.932-2.239-3.145c-0.267-0.214-0.533-0.8-0.533-0.8s-2.612-1.919-3.038-2.452  c-0.427-0.533-3.252-2.825-3.465-3.038s-1.706-1.652-1.972-1.812c-0.267-0.16-4.851-4.53-4.851-4.53l-0.426-0.48l-4.104-3.41h-0.877  l-3.387,10.831c-0.122-0.124-0.243-0.248-0.364-0.37l3.271-10.461h-0.136h-0.64l-6.491,6.388c-1-1.028-1.652-1.709-1.716-1.805  c-0.32-0.479-1.652-1.333-2.345-1.812c-0.693-0.48-4.851-4.637-4.851-4.637l-0.533-0.374c0,0-0.32-0.426-0.586-0.639  c-0.267-0.214-0.267-0.96-0.267-0.96s-5.49-5.383-6.183-6.076c-0.693-0.692-1.544-0.587-1.544-0.587s-0.09,0.099-0.245,0.265  l-10.746,24.093c-0.111-0.108-0.222-0.217-0.335-0.325l10.601-23.768c-0.99,1.076-4.754,5.146-6.046,6.346  c-1.492,1.386-2.878,3.73-2.878,3.73l-7.604,7.974c-5.551-5.321-10.73-10.213-10.73-10.213l-1.332-1.918l-1.493,0.385l-16.59,27.836  l0.122,0.081l43.226-3.093c-0.121-0.157-0.325-0.393-0.602-0.692h36.311C269.276,543.5,269.085,543.309,268.748,542.968z"/>
</svg>