<svg xmlns="http://www.w3.org/2000/svg" xmlns:xlink="http://www.w3.org/1999/xlink" version="1.1" id="Layer_2" x="0px" y="0px" width="77.2727272727px" height="100px" viewBox="0 0 612 792" enable-background="new 0 0 612 792" xml:space="preserve">
<path d="M369.102,244.259v-19.136h-3.036v-14.423h-2.403v-0.886h-0.324v-8.741c0-0.095-0.07-0.172-0.155-0.172h-0.057  c-0.085,0-0.155,0.077-0.155,0.172v-7.393c0-0.171-0.068-0.31-0.154-0.31h-0.057c-0.086,0-0.154,0.139-0.154,0.31v16.134h-0.408  v-8.221c0-0.09-0.053-0.162-0.117-0.162h-0.043c-0.064,0-0.117,0.072-0.117,0.162v8.221h-2.418v-8.221  c0-0.09-0.053-0.162-0.117-0.162h-0.043c-0.064,0-0.117,0.072-0.117,0.162v8.221h-0.529V193.68c0-0.171-0.116-0.31-0.26-0.31h-0.096  c-0.145,0-0.261,0.139-0.261,0.31v16.134h-0.87v0.759h-1.771v33.686h-1.771v50.704H371v-50.704H369.102z"/>
</svg>