<svg xmlns="http://www.w3.org/2000/svg" xmlns:xlink="http://www.w3.org/1999/xlink" version="1.1" id="Layer_2" x="0px" y="0px" width="77.2727272727px" height="100px" viewBox="0 0 612 792" enable-background="new 0 0 612 792" xml:space="preserve">
<path d="M236.693,403.002c0,0-3.059-0.517-6.673-0.636h-5.489c-3.615,0.119-6.674,0.636-6.674,0.636v-0.873h18.836V403.002z"/>
<path d="M227.395,394.66c0,0,2.066,0,3.06,0c0.993,0,0.874,0.556,0.318,1.112c-0.556,0.556,0.199,1.033,0.199,1.033  s4.37,1.152,4.489,1.152h-8.065h-0.241h-8.064c0.12,0,4.489-1.152,4.489-1.152s0.754-0.477,0.199-1.033  c-0.557-0.556-0.676-1.112,0.318-1.112c0.993,0,3.059,0,3.059,0H227.395z"/>
<path d="M227.274,398.514h8.342c0,0,1.907,0.039,1.907,2.025c0,0-9.495-0.317-10.25-0.238c-0.754-0.079-10.249,0.238-10.249,0.238  c0-1.986,1.907-2.025,1.907-2.025H227.274z"/>
<path d="M227.395,400.817c1.39-0.04,10.489,0.238,10.489,0.238s2.781,0.715,0.438,0.715c-2.345,0-11.048-0.357-11.048-0.357  s-8.703,0.357-11.047,0.357s0.437-0.715,0.437-0.715s9.101-0.278,10.489-0.238H227.395z"/>
<path d="M228.388,393.627h-0.317v-0.953h-0.496l-0.118-7.765c0-0.166-0.388-0.166-0.388,0l-0.094,7.765h-0.496v0.953h-0.318  c-2.264,0-1.986,0.676-1.986,0.676h3.019h0.161h3.019C230.375,394.303,230.652,393.627,228.388,393.627z"/>
<path d="M228.712,405.187h1.308c3.615,0,6.118-0.437,6.118-0.437c2.821-0.874,0.556-1.112,0.556-1.112s-3.058-0.517-6.673-0.636  h-5.489c-3.615,0.119-6.674,0.636-6.674,0.636s-2.265,0.238,0.556,1.112c0,0,2.502,0.437,6.118,0.437h1.321v15.335h-1.246  l-1.506-15.335h-1.549c0,0,2.622,17.399,2.622,22.286s-1.072,16.686-1.311,20.26c-0.238,3.575-4.647,40.52-4.647,40.52h1.43  l1.912-17.667c0.417,0.233,0.91,0.474,1.173,0.474c0.105,0,0.507,0,1.077,0c0.559,0,1.281,0,2.046,0v16.858  c0,0.184,0.147,0.332,0.328,0.332h2.204c0.182,0,0.328-0.148,0.328-0.332v-16.858c1.172,0,2.046,0,2.046,0c0.571,0,0.972,0,1.078,0  c0.261,0,0.745-0.235,1.159-0.466l1.912,17.659h1.43c0,0-4.409-36.944-4.648-40.52c-0.238-3.574-1.311-15.373-1.311-20.26  S233,405.187,233,405.187h-1.549l-1.507,15.335h-1.231V405.187z M225.852,421.276v25.265h-1.646l0.919-8.223v-12.515l-0.445-4.527  H225.852z M223.647,467.622l-1.838,0.613l0.813-7.513l1.464-13.108h1.766v20.008H223.647z M231.928,460.723l0.812,7.507  l-1.823-0.607h-2.205v-20.008h1.751L231.928,460.723z M229.869,421.276l-0.445,4.527v12.515l0.919,8.223h-1.631v-25.265H229.869z"/>
</svg>