<?xml version="1.0" encoding="utf-8"?>
<!-- Generator: Adobe Illustrator 14.0.0, SVG Export Plug-In . SVG Version: 6.00 Build 43363)  -->
<!DOCTYPE svg PUBLIC "-//W3C//DTD SVG 1.0//EN" "http://www.w3.org/TR/2001/REC-SVG-20010904/DTD/svg10.dtd">
<svg version="1.0" id="Layer_1" xmlns="http://www.w3.org/2000/svg" xmlns:xlink="http://www.w3.org/1999/xlink" x="0px" y="0px"
	 width="88.421px" height="100px" viewBox="0 0 88.421 100" enable-background="new 0 0 88.421 100" xml:space="preserve">
<path d="M80.339,0.695c-6.391-2.339-14.008,1.462-16.283,7.897c-3.294,7.356-4.984,17.072-15.635,25.413l-4.474,3.504l-3.995-3.143
	C29.321,26.004,27.654,16.283,24.375,8.919C22.115,2.479,14.505-1.34,8.109,0.985c-6.463,1.905-9.367,9.668-7.6,15.855
	c1.323,6.312,7.748,11.555,14.051,10.113c6.564-1.5,5.376-3.651,7.861-4.359c3.177-0.906,5.182,8.649,14.531,21.74l0.276,0.383
	L11.96,80.778C8.797,85.997,6.899,92.941,11,99.552l33.031-45.436L77.23,100c4.116-6.603,2.232-13.551-0.92-18.778l-25.451-36.5
	l0.542-0.746c9.378-13.067,11.405-22.622,14.58-21.708c2.482,0.715,1.289,2.862,7.851,4.378c6.3,1.456,12.735-3.773,14.072-10.082
	C89.685,10.383,86.798,2.612,80.339,0.695z M21.739,14.741c0.001,7.334-9.644,10.664-15.081,5.158
	c-3.721-3.771-3.74-11.542,1.342-14.23C14.041,1.831,22.14,7.993,21.739,14.741z M81.748,19.61
	c-5.446,5.494-15.086,2.143-15.067-5.191c-0.387-6.746,7.726-12.894,13.757-9.042C85.514,8.077,85.478,15.848,81.748,19.61z"/>
</svg>
