<svg xmlns="http://www.w3.org/2000/svg" xmlns:xlink="http://www.w3.org/1999/xlink" version="1.1" id="Layer_1" x="0px" y="0px" width="100px" height="100px" viewBox="0 0 100 100" enable-background="new 0 0 100 100" xml:space="preserve">
<path d="M19.432,73.208l0.022,0.021l-3.641,3.7L2.92,96.063l19.032-12.995l3.712-3.628l59.062-59.062l-0.058-0.058  c0.046-0.035,0.091-0.074,0.138-0.11l-3.968-3.968l0.265-0.265l3.997,3.998c0.094-0.081,0.186-0.169,0.275-0.257L81.37,15.71  l0.265-0.265l4.013,4.011l0.247-0.249l-4.011-4.013l0.266-0.265l4.012,4.011l2.315-2.314l-4.012-4.013l0.266-0.266l4.013,4.012  l0.265-0.266l-4.013-4.011l0.266-0.266l4.011,4.013l0.251-0.25L85.51,11.57l0.266-0.266l4.012,4.013l2.159-2.158l-4.014-4.013  l0.266-0.265l4.012,4.012l0.267-0.267l-4.012-4.012l0.265-0.265l4.013,4.013l0.248-0.25l-4.012-4.011l0.266-0.266l4.005,4.007  c2.168-2.297,2.587-5.447,0.907-7.127c-1.702-1.701-4.909-1.254-7.213,0.987l0.436,0.435l-0.267,0.266l-0.438-0.438l-0.247,0.248  l0.438,0.438l-0.267,0.266l-0.438-0.438l-0.265,0.263l0.438,0.438l-0.267,0.267L85.629,7.01l-2.155,2.158l0.438,0.437l-0.267,0.266  l-0.438-0.438l-0.248,0.249l0.438,0.438l-0.267,0.265l-0.436-0.437l-0.266,0.265l0.438,0.438L82.6,10.916l-0.438-0.437l-2.241,2.24  l0.438,0.437l-0.266,0.266l-0.438-0.438l-0.249,0.249l0.437,0.437l-0.264,0.266l-0.432-0.433c-0.087,0.092-0.177,0.182-0.256,0.275  l0.422,0.421l-0.265,0.267l-0.395-0.393c-0.032,0.042-0.07,0.085-0.103,0.127l-0.059-0.057L19.432,73.208z M83.396,19.049  l-62.32,62.322c0.205,0.304,0.376,0.612,0.473,0.939L10.568,90.01c-0.76-2.056,0.325-0.828-1.729-1.588l7.649-11.054  c0.6,0.2,1.327,0.676,1.899,1.109l2.068,2.06c0.083,0.107,0.165,0.211,0.246,0.317l62.25-62.251L83.396,19.049z"/>
</svg>