<svg xmlns="http://www.w3.org/2000/svg" xmlns:xlink="http://www.w3.org/1999/xlink" version="1.1" id="Livello_1" x="0px" y="0px" width="100px" height="100px" viewBox="0 0 100 100" enable-background="new 0 0 100 100" xml:space="preserve">
<g>
	<path d="M77.287,77.053c0,0-29.229-36.887-40.377-47.28c-0.263-0.244-0.625-0.544-1.038-0.868c-0.19,0.178-0.382,0.357-0.583,0.543   c-1.945,1.803-3.555,3.226-3.6,3.179c-0.043-0.048,1.496-1.547,3.441-3.351c0.264-0.246,0.521-0.482,0.771-0.71   c-0.009-0.065-0.021-0.127-0.06-0.168c-0.113-0.121-0.347-0.114-0.654-0.02c-0.166-0.125-0.335-0.251-0.509-0.38   c0.001-0.005,0.001-0.011,0.002-0.017c-1.731,1.595-3.102,2.8-3.142,2.755c-0.043-0.044,1.339-1.393,3.134-3.065   c-0.014-0.039-0.019-0.083-0.045-0.112c-0.112-0.12-0.332-0.124-0.617-0.047c-2.046-1.481-3.698-2.58-3.698-2.58l-7.56-6.15   l-4.815-3.976c-0.255,0.102-0.393,0.085-0.674,0.278c0.094,0.213,0.122,0.36,0.061,0.414c-0.063,0.058-0.215,0.009-0.424-0.116   c-0.003,0.003-0.006,0.004-0.009,0.006c-0.192,0.179-0.402,0.424-0.57,0.671l12.485,15.646l0.085-0.002l0.848,0.402l0.062,0.845   l0.558,0.601l-0.259,0.707l-0.326-0.604l-0.99-1.613l-0.001,0.001L16.2,16.273c-0.109,0.194-0.193,0.383-0.196,0.532l3.705,4.654   l6.173,7.99c0,0,1.128,1.615,2.445,3.445c-0.048,0.205-0.044,0.37,0.046,0.467c0.074,0.079,0.202,0.097,0.355,0.088   c0.136,0.187,0.271,0.373,0.407,0.559c-0.109,0.288-0.125,0.508-0.016,0.626c0.096,0.104,0.278,0.118,0.52,0.062   c0.842,1.144,1.641,2.191,2.162,2.797c10.36,12.062,44.483,44.411,44.483,44.411s10.696,10.248,14.458,13.542   C98.727,102.434,77.287,77.053,77.287,77.053z M76.962,81.405c0,0-32.946-31.931-43.983-43.44c-0.277-0.29-0.467-0.849-0.895-1.28   l-0.499-0.923c11.374,10.986,43.673,43.275,43.673,43.275s3.368,3.34,7.145,7.101l-0.262,0.269   C79.298,83.658,76.962,81.405,76.962,81.405z M82.143,86.859c0.312-0.16,0.609-0.349,0.877-0.596   c0.27-0.25,0.481-0.537,0.665-0.837C88.738,91,92.231,95.817,92.01,96.022C91.789,96.228,87.331,92.354,82.143,86.859z"/>
	<path d="M16.545,15.267c0.417-0.387,0.846-0.625,1.146-0.678c-0.164-1.729-1.556-4.308-3.816-6.745   C10.696,4.416,6.54,2.029,3.11,6.816C3.042,6.912,2.995,6.973,2.965,7.009c0.349-0.376,3.244-3.017,6.216,5.188   c1.224,3.381,4.568,4.634,6.647,4.494c-0.006-0.003-0.018,0-0.023-0.006C15.604,16.468,15.936,15.832,16.545,15.267z M8.624,6.33   C5.49,4.98,2.522,7.193,4.06,6.006c0.978-0.755,2.37-2.046,4.147-1.231c0.418,0.192,0.658,0.278,0.768,0.312   C8.737,5.034,7.951,4.929,7.117,5.413C7.086,5.431,10.542,7.156,8.624,6.33z"/>
</g>
</svg>