<svg xmlns="http://www.w3.org/2000/svg" xmlns:xlink="http://www.w3.org/1999/xlink" version="1.1" x="0px" y="0px" width="100px" height="45.1612903226px" viewBox="0 0 124 56" enable-background="new 0 0 124 56" xml:space="preserve">
<g id="bridge_pics">
</g>
<g id="bridge_thin" display="none">
	<g display="inline">
		
			<g>
			<line fill="none" stroke="#000000" x1="-1220.096" y1="819.545" x2="-1270.667" y2="864.364"/>
		</g>
	</g>
	<g display="inline">
		
			<g>
			<line fill="none" stroke="#000000" x1="-1220.096" y1="819.545" x2="-1163.627" y2="858.405"/>
		</g>
	</g>
	<g display="inline">
		
			<g>
			<line fill="none" stroke="#000000" x1="-1163.627" y1="858.405" x2="-1104.812" y2="810.896"/>
		</g>
	</g>
	<g display="inline">
		
			<g>
			<line fill="none" stroke="#000000" x1="-1104.812" y1="810.896" x2="-1056.864" y2="854.816"/>
		</g>
	</g>
	<g display="inline">
		
			<g>
			<line fill="none" stroke="#000000" x1="-1056.864" y1="854.816" x2="-997.806" y2="791.902"/>
		</g>
	</g>
	<g display="inline">
		
			<g>
			<line fill="none" stroke="#000000" x1="-997.806" y1="791.902" x2="-942.616" y2="854.816"/>
		</g>
	</g>
	<g display="inline">
		
			<g>
			<line fill="none" stroke="#000000" x1="-942.616" y1="854.816" x2="-887.081" y2="751.291"/>
		</g>
	</g>
	<g display="inline">
		
			<g>
			<line fill="none" stroke="#000000" x1="-887.081" y1="751.291" x2="-829.526" y2="812.649"/>
		</g>
	</g>
	<g display="inline">
		
			<g>
			<line fill="none" stroke="#000000" x1="-829.526" y1="812.649" x2="-774.957" y2="696.782"/>
		</g>
	</g>
	<g display="inline">
		
			<g>
			<line fill="none" stroke="#000000" x1="-774.957" y1="696.782" x2="-719.534" y2="745.873"/>
		</g>
	</g>
	<g display="inline">
		
			<g>
			<line fill="none" stroke="#000000" x1="-719.534" y1="745.873" x2="-661.933" y2="657.394"/>
		</g>
	</g>
	<g display="inline">
		
			<g>
			<line fill="none" stroke="#000000" x1="-661.933" y1="657.394" x2="-607.914" y2="712.915"/>
		</g>
	</g>
	<g display="inline">
		
			<g>
			<line fill="none" stroke="#000000" x1="-607.914" y1="712.915" x2="-553.636" y2="640.638"/>
		</g>
	</g>
	<g display="inline">
		
			<g>
			<line fill="none" stroke="#000000" x1="-553.636" y1="640.638" x2="-497.366" y2="703.476"/>
		</g>
	</g>
	<g display="inline">
		
			<g>
			<line fill="none" stroke="#000000" x1="-497.366" y1="703.476" x2="-442.326" y2="641.73"/>
		</g>
	</g>
	<g display="inline">
		
			<g>
			<line fill="none" stroke="#000000" x1="-442.326" y1="641.73" x2="-387.967" y2="715.619"/>
		</g>
	</g>
	<g display="inline">
		
			<g>
			<line fill="none" stroke="#000000" x1="-387.967" y1="715.619" x2="-335.583" y2="659.788"/>
		</g>
	</g>
	<g display="inline">
		
			<g>
			<line fill="none" stroke="#000000" x1="-335.583" y1="659.788" x2="-279.917" y2="753.277"/>
		</g>
	</g>
	<g display="inline">
		
			<g>
			<line fill="none" stroke="#000000" x1="-279.917" y1="753.277" x2="-225.184" y2="697.953"/>
		</g>
	</g>
	<g display="inline">
		
			<g>
			<line fill="none" stroke="#000000" x1="-225.184" y1="697.953" x2="-174.315" y2="817.922"/>
		</g>
	</g>
	<g display="inline">
		
			<g>
			<line fill="none" stroke="#000000" x1="-174.315" y1="817.922" x2="-113.754" y2="751.935"/>
		</g>
	</g>
	<g display="inline">
		
			<g>
			<line fill="none" stroke="#000000" x1="-113.754" y1="751.935" x2="-60.866" y2="858.101"/>
		</g>
	</g>
	<g display="inline">
		<g>
			<line fill="none" stroke="#000000" x1="-60.866" y1="858.101" x2="-12.564" y2="794.998"/>
		</g>
	</g>
	<g display="inline">
		<g>
			<line fill="none" stroke="#000000" x1="-12.564" y1="794.998" x2="45.634" y2="858.101"/>
		</g>
	</g>
	<g display="inline">
		<g>
			<line fill="none" stroke="#000000" x1="45.634" y1="858.101" x2="101.119" y2="813.9"/>
		</g>
	</g>
	<g display="inline">
		<g>
			<line fill="none" stroke="#000000" x1="101.119" y1="813.9" x2="149.134" y2="858.533"/>
		</g>
	</g>
	<g display="inline">
		<g>
			<line fill="none" stroke="#000000" x1="149.134" y1="858.533" x2="202.859" y2="821.024"/>
		</g>
	</g>
	<g display="inline">
		<g>
			<line fill="none" stroke="#000000" x1="202.859" y1="821.024" x2="239.635" y2="858.681"/>
		</g>
	</g>
	<g display="inline">
		<g>
			<line fill="none" stroke="#000000" x1="239.635" y1="858.681" x2="284.634" y2="826.549"/>
		</g>
	</g>
	<g display="inline">
		
			<g>
			<line fill="none" stroke="#000000" x1="-1270.667" y1="864.364" x2="-1305.213" y2="823.359"/>
		</g>
	</g>
	<g display="inline">
		
			<g>
			<line fill="none" stroke="#000000" x1="-1260.883" y1="877.833" x2="-1207.722" y2="825.534"/>
		</g>
	</g>
	<g display="inline">
		
			<g>
			<line fill="none" stroke="#000000" x1="-1207.722" y1="825.534" x2="-1165.387" y2="872.364"/>
		</g>
	</g>
	<g display="inline">
		
			<g>
			<line fill="none" stroke="#000000" x1="-1165.387" y1="872.364" x2="-1093.103" y2="816.426"/>
		</g>
	</g>
	<g display="inline">
		
			<g>
			<line fill="none" stroke="#000000" x1="-1093.103" y1="816.426" x2="-1053.719" y2="868.671"/>
		</g>
	</g>
	<g display="inline">
		
			<g>
			<line fill="none" stroke="#000000" x1="-1053.719" y1="868.671" x2="-996.017" y2="800.026"/>
		</g>
	</g>
	<g display="inline">
		
			<g>
			<line fill="none" stroke="#000000" x1="-996.017" y1="800.026" x2="-939.456" y2="868.889"/>
		</g>
	</g>
	<g display="inline">
		
			<g>
			<line fill="none" stroke="#000000" x1="-939.456" y1="868.889" x2="-879.988" y2="758.853"/>
		</g>
	</g>
	<g display="inline">
		
			<g>
			<line fill="none" stroke="#000000" x1="-879.988" y1="758.853" x2="-824.985" y2="820.545"/>
		</g>
	</g>
	<g display="inline">
		
			<g>
			<line fill="none" stroke="#000000" x1="-824.985" y1="820.545" x2="-773.061" y2="706.856"/>
		</g>
	</g>
	<g display="inline">
		
			<g>
			<line fill="none" stroke="#000000" x1="-773.061" y1="706.856" x2="-715.838" y2="754.716"/>
		</g>
	</g>
	<g display="inline">
		
			<g>
			<line fill="none" stroke="#000000" x1="-715.838" y1="754.716" x2="-663.646" y2="667.818"/>
		</g>
	</g>
	<g display="inline">
		
			<g>
			<line fill="none" stroke="#000000" x1="-663.646" y1="667.818" x2="-609.495" y2="725.537"/>
		</g>
	</g>
	<g display="inline">
		
			<g>
			<line fill="none" stroke="#000000" x1="-609.495" y1="725.537" x2="-556.252" y2="650.526"/>
		</g>
	</g>
	<g display="inline">
		
			<g>
			<line fill="none" stroke="#000000" x1="-556.252" y1="650.526" x2="-502.213" y2="715.619"/>
		</g>
	</g>
	<g display="inline">
		
			<g>
			<line fill="none" stroke="#000000" x1="-502.213" y1="715.619" x2="-448.661" y2="650.964"/>
		</g>
	</g>
	<g display="inline">
		
			<g>
			<line fill="none" stroke="#000000" x1="-448.661" y1="650.964" x2="-398.297" y2="725.051"/>
		</g>
	</g>
	<g display="inline">
		
			<g>
			<line fill="none" stroke="#000000" x1="-398.297" y1="725.051" x2="-341.627" y2="668.534"/>
		</g>
	</g>
	<g display="inline">
		
			<g>
			<line fill="none" stroke="#000000" x1="-341.627" y1="668.534" x2="-292.881" y2="757.938"/>
		</g>
	</g>
	<g display="inline">
		
			<g>
			<line fill="none" stroke="#000000" x1="-292.881" y1="757.938" x2="-236.745" y2="704.104"/>
		</g>
	</g>
	<g display="inline">
		
			<g>
			<line fill="none" stroke="#000000" x1="-236.745" y1="704.104" x2="-187.442" y2="817.922"/>
		</g>
	</g>
	<g display="inline">
		
			<g>
			<line fill="none" stroke="#000000" x1="-187.442" y1="817.922" x2="-129.188" y2="756.04"/>
		</g>
	</g>
	<g display="inline">
		
			<g>
			<line fill="none" stroke="#000000" x1="-129.188" y1="756.04" x2="-80.507" y2="872.11"/>
		</g>
	</g>
	<g display="inline">
		<g>
			<line fill="none" stroke="#000000" x1="-80.507" y1="872.11" x2="-26.321" y2="800.375"/>
		</g>
	</g>
	<g display="inline">
		<g>
			<line fill="none" stroke="#000000" x1="-26.321" y1="800.375" x2="25.13" y2="871.987"/>
		</g>
	</g>
	<g display="inline">
		<g>
			<line fill="none" stroke="#000000" x1="25.13" y1="871.987" x2="77.942" y2="819.134"/>
		</g>
	</g>
	<g display="inline">
		<g>
			<line fill="none" stroke="#000000" x1="77.942" y1="819.134" x2="125.126" y2="871.87"/>
		</g>
	</g>
	<g display="inline">
		<g>
			<line fill="none" stroke="#000000" x1="125.126" y1="871.87" x2="175.997" y2="825.42"/>
		</g>
	</g>
	<g display="inline">
		<g>
			<line fill="none" stroke="#000000" x1="175.997" y1="825.42" x2="218.425" y2="871.761"/>
		</g>
	</g>
	<g display="inline">
		<g>
			<line fill="none" stroke="#000000" x1="218.425" y1="871.761" x2="260.369" y2="830.82"/>
		</g>
	</g>
	<g display="inline">
		
			<g>
			<line fill="none" stroke="#000000" x1="-1220.096" y1="1538.181" x2="-1270.667" y2="1583"/>
		</g>
	</g>
	<g display="inline">
		
			<g>
			<line fill="none" stroke="#000000" x1="-1220.096" y1="1538.181" x2="-1163.627" y2="1577.041"/>
		</g>
	</g>
	<g display="inline">
		
			<g>
			<line fill="none" stroke="#000000" x1="-1163.627" y1="1577.041" x2="-1104.812" y2="1529.532"/>
		</g>
	</g>
	<g display="inline">
		
			<g>
			<line fill="none" stroke="#000000" x1="-1104.812" y1="1529.532" x2="-1056.864" y2="1573.452"/>
		</g>
	</g>
	<g display="inline">
		
			<g>
			<line fill="none" stroke="#000000" x1="-1056.864" y1="1573.452" x2="-997.806" y2="1510.538"/>
		</g>
	</g>
	<g display="inline">
		
			<g>
			<line fill="none" stroke="#000000" x1="-997.806" y1="1510.538" x2="-942.616" y2="1573.452"/>
		</g>
	</g>
	<g display="inline">
		
			<g>
			<line fill="none" stroke="#000000" x1="-942.616" y1="1573.452" x2="-887.081" y2="1469.927"/>
		</g>
	</g>
	<g display="inline">
		
			<g>
			<line fill="none" stroke="#000000" x1="-887.081" y1="1469.927" x2="-829.526" y2="1531.285"/>
		</g>
	</g>
	<g display="inline">
		
			<g>
			<line fill="none" stroke="#000000" x1="-829.526" y1="1531.285" x2="-774.957" y2="1415.418"/>
		</g>
	</g>
	<g display="inline">
		
			<g>
			<line fill="none" stroke="#000000" x1="-774.957" y1="1415.418" x2="-719.534" y2="1464.509"/>
		</g>
	</g>
	<g display="inline">
		
			<g>
			<line fill="none" stroke="#000000" x1="-719.534" y1="1464.509" x2="-661.933" y2="1376.029"/>
		</g>
	</g>
	<g display="inline">
		
			<g>
			<line fill="none" stroke="#000000" x1="-661.933" y1="1376.029" x2="-607.914" y2="1431.551"/>
		</g>
	</g>
	<g display="inline">
		
			<g>
			<line fill="none" stroke="#000000" x1="-607.914" y1="1431.551" x2="-553.636" y2="1359.273"/>
		</g>
	</g>
	<g display="inline">
		
			<g>
			<line fill="none" stroke="#000000" x1="-553.636" y1="1359.273" x2="-497.366" y2="1422.111"/>
		</g>
	</g>
	<g display="inline">
		
			<g>
			<line fill="none" stroke="#000000" x1="-497.366" y1="1422.111" x2="-442.326" y2="1360.366"/>
		</g>
	</g>
	<g display="inline">
		
			<g>
			<line fill="none" stroke="#000000" x1="-442.326" y1="1360.366" x2="-387.967" y2="1434.255"/>
		</g>
	</g>
	<g display="inline">
		
			<g>
			<line fill="none" stroke="#000000" x1="-387.967" y1="1434.255" x2="-335.583" y2="1378.424"/>
		</g>
	</g>
	<g display="inline">
		
			<g>
			<line fill="none" stroke="#000000" x1="-335.583" y1="1378.424" x2="-279.917" y2="1471.913"/>
		</g>
	</g>
	<g display="inline">
		
			<g>
			<line fill="none" stroke="#000000" x1="-279.917" y1="1471.913" x2="-225.184" y2="1416.589"/>
		</g>
	</g>
	<g display="inline">
		
			<g>
			<line fill="none" stroke="#000000" x1="-225.184" y1="1416.589" x2="-174.315" y2="1536.558"/>
		</g>
	</g>
	<g display="inline">
		
			<g>
			<line fill="none" stroke="#000000" x1="-174.315" y1="1536.558" x2="-113.754" y2="1470.57"/>
		</g>
	</g>
	<g display="inline">
		
			<g>
			<line fill="none" stroke="#000000" x1="-113.754" y1="1470.57" x2="-60.866" y2="1576.736"/>
		</g>
	</g>
	<g display="inline">
		
			<g>
			<line fill="none" stroke="#000000" x1="-60.866" y1="1576.736" x2="-12.564" y2="1513.634"/>
		</g>
	</g>
	<g display="inline">
		
			<g>
			<line fill="none" stroke="#000000" x1="-12.564" y1="1513.634" x2="45.634" y2="1576.736"/>
		</g>
	</g>
	<g display="inline">
		<g>
			<line fill="none" stroke="#000000" x1="45.634" y1="1576.736" x2="101.119" y2="1532.536"/>
		</g>
	</g>
	<g display="inline">
		<g>
			<line fill="none" stroke="#000000" x1="101.119" y1="1532.536" x2="149.134" y2="1577.169"/>
		</g>
	</g>
	<g display="inline">
		
			<g>
			<line fill="none" stroke="#000000" x1="149.134" y1="1577.169" x2="202.859" y2="1539.66"/>
		</g>
	</g>
	<g display="inline">
		
			<g>
			<line fill="none" stroke="#000000" x1="202.859" y1="1539.66" x2="239.635" y2="1577.316"/>
		</g>
	</g>
	<g display="inline">
		
			<g>
			<line fill="none" stroke="#000000" x1="239.635" y1="1577.316" x2="284.634" y2="1545.185"/>
		</g>
	</g>
	<g display="inline">
		
			<g>
			<line fill="none" stroke="#000000" x1="-1270.667" y1="1583" x2="-1305.213" y2="1541.995"/>
		</g>
	</g>
	<g display="inline">
		
			<g>
			<line fill="none" stroke="#000000" x1="-1260.883" y1="1596.469" x2="-1207.722" y2="1544.17"/>
		</g>
	</g>
	<g display="inline">
		
			<g>
			<line fill="none" stroke="#000000" x1="-1207.722" y1="1544.17" x2="-1165.387" y2="1591"/>
		</g>
	</g>
	<g display="inline">
		
			<g>
			<line fill="none" stroke="#000000" x1="-1165.387" y1="1591" x2="-1093.103" y2="1535.062"/>
		</g>
	</g>
	<g display="inline">
		
			<g>
			<line fill="none" stroke="#000000" x1="-1093.103" y1="1535.062" x2="-1053.719" y2="1587.307"/>
		</g>
	</g>
	<g display="inline">
		
			<g>
			<line fill="none" stroke="#000000" x1="-1053.719" y1="1587.307" x2="-996.017" y2="1518.662"/>
		</g>
	</g>
	<g display="inline">
		
			<g>
			<line fill="none" stroke="#000000" x1="-996.017" y1="1518.662" x2="-939.456" y2="1587.524"/>
		</g>
	</g>
	<g display="inline">
		
			<g>
			<line fill="none" stroke="#000000" x1="-939.456" y1="1587.524" x2="-879.988" y2="1477.488"/>
		</g>
	</g>
	<g display="inline">
		
			<g>
			<line fill="none" stroke="#000000" x1="-879.988" y1="1477.488" x2="-824.985" y2="1539.181"/>
		</g>
	</g>
	<g display="inline">
		
			<g>
			<line fill="none" stroke="#000000" x1="-824.985" y1="1539.181" x2="-773.061" y2="1425.492"/>
		</g>
	</g>
	<g display="inline">
		
			<g>
			<line fill="none" stroke="#000000" x1="-773.061" y1="1425.492" x2="-715.838" y2="1473.352"/>
		</g>
	</g>
	<g display="inline">
		
			<g>
			<line fill="none" stroke="#000000" x1="-715.838" y1="1473.352" x2="-663.646" y2="1386.454"/>
		</g>
	</g>
	<g display="inline">
		
			<g>
			<line fill="none" stroke="#000000" x1="-663.646" y1="1386.454" x2="-609.495" y2="1444.173"/>
		</g>
	</g>
	<g display="inline">
		
			<g>
			<line fill="none" stroke="#000000" x1="-609.495" y1="1444.173" x2="-556.252" y2="1369.162"/>
		</g>
	</g>
	<g display="inline">
		
			<g>
			<line fill="none" stroke="#000000" x1="-556.252" y1="1369.162" x2="-502.213" y2="1434.255"/>
		</g>
	</g>
	<g display="inline">
		
			<g>
			<line fill="none" stroke="#000000" x1="-502.213" y1="1434.255" x2="-448.661" y2="1369.6"/>
		</g>
	</g>
	<g display="inline">
		
			<g>
			<line fill="none" stroke="#000000" x1="-448.661" y1="1369.6" x2="-398.297" y2="1443.687"/>
		</g>
	</g>
	<g display="inline">
		
			<g>
			<line fill="none" stroke="#000000" x1="-398.297" y1="1443.687" x2="-341.627" y2="1387.17"/>
		</g>
	</g>
	<g display="inline">
		
			<g>
			<line fill="none" stroke="#000000" x1="-341.627" y1="1387.17" x2="-292.881" y2="1476.573"/>
		</g>
	</g>
	<g display="inline">
		
			<g>
			<line fill="none" stroke="#000000" x1="-292.881" y1="1476.573" x2="-236.745" y2="1422.739"/>
		</g>
	</g>
	<g display="inline">
		
			<g>
			<line fill="none" stroke="#000000" x1="-236.745" y1="1422.739" x2="-187.442" y2="1536.558"/>
		</g>
	</g>
	<g display="inline">
		
			<g>
			<line fill="none" stroke="#000000" x1="-187.442" y1="1536.558" x2="-129.188" y2="1474.676"/>
		</g>
	</g>
	<g display="inline">
		
			<g>
			<line fill="none" stroke="#000000" x1="-129.188" y1="1474.676" x2="-80.507" y2="1590.746"/>
		</g>
	</g>
	<g display="inline">
		
			<g>
			<line fill="none" stroke="#000000" x1="-80.507" y1="1590.746" x2="-26.321" y2="1519.011"/>
		</g>
	</g>
	<g display="inline">
		
			<g>
			<line fill="none" stroke="#000000" x1="-26.321" y1="1519.011" x2="25.13" y2="1590.623"/>
		</g>
	</g>
	<g display="inline">
		<g>
			<line fill="none" stroke="#000000" x1="25.13" y1="1590.623" x2="77.942" y2="1537.77"/>
		</g>
	</g>
	<g display="inline">
		<g>
			<line fill="none" stroke="#000000" x1="77.942" y1="1537.77" x2="125.126" y2="1590.506"/>
		</g>
	</g>
	<g display="inline">
		
			<g>
			<line fill="none" stroke="#000000" x1="125.126" y1="1590.506" x2="175.997" y2="1544.056"/>
		</g>
	</g>
	<g display="inline">
		
			<g>
			<line fill="none" stroke="#000000" x1="175.997" y1="1544.056" x2="218.425" y2="1590.396"/>
		</g>
	</g>
	<g display="inline">
		
			<g>
			<line fill="none" stroke="#000000" x1="218.425" y1="1590.396" x2="260.369" y2="1549.456"/>
		</g>
	</g>
	<g display="inline">
		
			<g>
			<line fill="none" stroke="#000000" x1="-1220.096" y1="2319.87" x2="-1270.667" y2="2364.689"/>
		</g>
	</g>
	<g display="inline">
		
			<g>
			<line fill="none" stroke="#000000" x1="-1220.096" y1="2319.87" x2="-1163.627" y2="2358.73"/>
		</g>
	</g>
	<g display="inline">
		
			<g>
			<line fill="none" stroke="#000000" x1="-1163.627" y1="2358.73" x2="-1104.812" y2="2311.222"/>
		</g>
	</g>
	<g display="inline">
		
			<g>
			<line fill="none" stroke="#000000" x1="-1104.812" y1="2311.222" x2="-1056.864" y2="2355.142"/>
		</g>
	</g>
	<g display="inline">
		
			<g>
			<line fill="none" stroke="#000000" x1="-1056.864" y1="2355.142" x2="-997.806" y2="2292.228"/>
		</g>
	</g>
	<g display="inline">
		
			<g>
			<line fill="none" stroke="#000000" x1="-997.806" y1="2292.228" x2="-942.616" y2="2355.142"/>
		</g>
	</g>
	<g display="inline">
		
			<g>
			<line fill="none" stroke="#000000" x1="-942.616" y1="2355.142" x2="-887.081" y2="2251.616"/>
		</g>
	</g>
	<g display="inline">
		
			<g>
			<line fill="none" stroke="#000000" x1="-887.081" y1="2251.616" x2="-829.526" y2="2312.975"/>
		</g>
	</g>
	<g display="inline">
		
			<g>
			<line fill="none" stroke="#000000" x1="-829.526" y1="2312.975" x2="-774.957" y2="2197.107"/>
		</g>
	</g>
	<g display="inline">
		
			<g>
			<line fill="none" stroke="#000000" x1="-774.957" y1="2197.107" x2="-719.534" y2="2246.198"/>
		</g>
	</g>
	<g display="inline">
		
			<g>
			<line fill="none" stroke="#000000" x1="-719.534" y1="2246.198" x2="-661.933" y2="2157.719"/>
		</g>
	</g>
	<g display="inline">
		
			<g>
			<line fill="none" stroke="#000000" x1="-661.933" y1="2157.719" x2="-607.914" y2="2213.24"/>
		</g>
	</g>
	<g display="inline">
		
			<g>
			<line fill="none" stroke="#000000" x1="-607.914" y1="2213.24" x2="-553.636" y2="2140.963"/>
		</g>
	</g>
	<g display="inline">
		
			<g>
			<line fill="none" stroke="#000000" x1="-553.636" y1="2140.963" x2="-497.366" y2="2203.801"/>
		</g>
	</g>
	<g display="inline">
		
			<g>
			<line fill="none" stroke="#000000" x1="-497.366" y1="2203.801" x2="-442.326" y2="2142.056"/>
		</g>
	</g>
	<g display="inline">
		
			<g>
			<line fill="none" stroke="#000000" x1="-442.326" y1="2142.056" x2="-387.967" y2="2215.944"/>
		</g>
	</g>
	<g display="inline">
		
			<g>
			<line fill="none" stroke="#000000" x1="-387.967" y1="2215.944" x2="-335.583" y2="2160.113"/>
		</g>
	</g>
	<g display="inline">
		
			<g>
			<line fill="none" stroke="#000000" x1="-335.583" y1="2160.113" x2="-279.917" y2="2253.603"/>
		</g>
	</g>
	<g display="inline">
		
			<g>
			<line fill="none" stroke="#000000" x1="-279.917" y1="2253.603" x2="-225.184" y2="2198.278"/>
		</g>
	</g>
	<g display="inline">
		
			<g>
			<line fill="none" stroke="#000000" x1="-225.184" y1="2198.278" x2="-174.315" y2="2318.247"/>
		</g>
	</g>
	<g display="inline">
		
			<g>
			<line fill="none" stroke="#000000" x1="-174.315" y1="2318.247" x2="-113.754" y2="2252.26"/>
		</g>
	</g>
	<g display="inline">
		
			<g>
			<line fill="none" stroke="#000000" x1="-113.754" y1="2252.26" x2="-60.866" y2="2358.426"/>
		</g>
	</g>
	<g display="inline">
		
			<g>
			<line fill="none" stroke="#000000" x1="-60.866" y1="2358.426" x2="-12.564" y2="2295.323"/>
		</g>
	</g>
	<g display="inline">
		
			<g>
			<line fill="none" stroke="#000000" x1="-12.564" y1="2295.323" x2="45.634" y2="2358.426"/>
		</g>
	</g>
	<g display="inline">
		<g>
			<line fill="none" stroke="#000000" x1="45.634" y1="2358.426" x2="101.119" y2="2314.226"/>
		</g>
	</g>
	<g display="inline">
		<g>
			<line fill="none" stroke="#000000" x1="101.119" y1="2314.226" x2="149.134" y2="2358.858"/>
		</g>
	</g>
	<g display="inline">
		
			<g>
			<line fill="none" stroke="#000000" x1="149.134" y1="2358.858" x2="202.859" y2="2321.35"/>
		</g>
	</g>
	<g display="inline">
		
			<g>
			<line fill="none" stroke="#000000" x1="202.859" y1="2321.35" x2="239.635" y2="2359.006"/>
		</g>
	</g>
	<g display="inline">
		
			<g>
			<line fill="none" stroke="#000000" x1="239.635" y1="2359.006" x2="284.634" y2="2326.874"/>
		</g>
	</g>
	<g display="inline">
		
			<g>
			<line fill="none" stroke="#000000" x1="-1270.667" y1="2364.689" x2="-1305.213" y2="2323.685"/>
		</g>
	</g>
	<g display="inline">
		
			<g>
			<line fill="none" stroke="#000000" x1="-1260.883" y1="2378.158" x2="-1207.722" y2="2325.859"/>
		</g>
	</g>
	<g display="inline">
		
			<g>
			<line fill="none" stroke="#000000" x1="-1207.722" y1="2325.859" x2="-1165.387" y2="2372.689"/>
		</g>
	</g>
	<g display="inline">
		
			<g>
			<line fill="none" stroke="#000000" x1="-1165.387" y1="2372.689" x2="-1093.103" y2="2316.751"/>
		</g>
	</g>
	<g display="inline">
		
			<g>
			<line fill="none" stroke="#000000" x1="-1093.103" y1="2316.751" x2="-1053.719" y2="2368.996"/>
		</g>
	</g>
	<g display="inline">
		
			<g>
			<line fill="none" stroke="#000000" x1="-1053.719" y1="2368.996" x2="-996.017" y2="2300.352"/>
		</g>
	</g>
	<g display="inline">
		
			<g>
			<line fill="none" stroke="#000000" x1="-996.017" y1="2300.352" x2="-939.456" y2="2369.214"/>
		</g>
	</g>
	<g display="inline">
		
			<g>
			<line fill="none" stroke="#000000" x1="-939.456" y1="2369.214" x2="-879.988" y2="2259.178"/>
		</g>
	</g>
	<g display="inline">
		
			<g>
			<line fill="none" stroke="#000000" x1="-879.988" y1="2259.178" x2="-824.985" y2="2320.87"/>
		</g>
	</g>
	<g display="inline">
		
			<g>
			<line fill="none" stroke="#000000" x1="-824.985" y1="2320.87" x2="-773.061" y2="2207.182"/>
		</g>
	</g>
	<g display="inline">
		
			<g>
			<line fill="none" stroke="#000000" x1="-773.061" y1="2207.182" x2="-715.838" y2="2255.041"/>
		</g>
	</g>
	<g display="inline">
		
			<g>
			<line fill="none" stroke="#000000" x1="-715.838" y1="2255.041" x2="-663.646" y2="2168.144"/>
		</g>
	</g>
	<g display="inline">
		
			<g>
			<line fill="none" stroke="#000000" x1="-663.646" y1="2168.144" x2="-609.495" y2="2225.862"/>
		</g>
	</g>
	<g display="inline">
		
			<g>
			<line fill="none" stroke="#000000" x1="-609.495" y1="2225.862" x2="-556.252" y2="2150.852"/>
		</g>
	</g>
	<g display="inline">
		
			<g>
			<line fill="none" stroke="#000000" x1="-556.252" y1="2150.852" x2="-502.213" y2="2215.944"/>
		</g>
	</g>
	<g display="inline">
		
			<g>
			<line fill="none" stroke="#000000" x1="-502.213" y1="2215.944" x2="-448.661" y2="2151.289"/>
		</g>
	</g>
	<g display="inline">
		
			<g>
			<line fill="none" stroke="#000000" x1="-448.661" y1="2151.289" x2="-398.297" y2="2225.376"/>
		</g>
	</g>
	<g display="inline">
		
			<g>
			<line fill="none" stroke="#000000" x1="-398.297" y1="2225.376" x2="-341.627" y2="2168.859"/>
		</g>
	</g>
	<g display="inline">
		
			<g>
			<line fill="none" stroke="#000000" x1="-341.627" y1="2168.859" x2="-292.881" y2="2258.263"/>
		</g>
	</g>
	<g display="inline">
		
			<g>
			<line fill="none" stroke="#000000" x1="-292.881" y1="2258.263" x2="-236.745" y2="2204.429"/>
		</g>
	</g>
	<g display="inline">
		
			<g>
			<line fill="none" stroke="#000000" x1="-236.745" y1="2204.429" x2="-187.442" y2="2318.247"/>
		</g>
	</g>
	<g display="inline">
		
			<g>
			<line fill="none" stroke="#000000" x1="-187.442" y1="2318.247" x2="-129.188" y2="2256.365"/>
		</g>
	</g>
	<g display="inline">
		
			<g>
			<line fill="none" stroke="#000000" x1="-129.188" y1="2256.365" x2="-80.507" y2="2372.436"/>
		</g>
	</g>
	<g display="inline">
		
			<g>
			<line fill="none" stroke="#000000" x1="-80.507" y1="2372.436" x2="-26.321" y2="2300.7"/>
		</g>
	</g>
	<g display="inline">
		
			<g>
			<line fill="none" stroke="#000000" x1="-26.321" y1="2300.7" x2="25.13" y2="2372.313"/>
		</g>
	</g>
	<g display="inline">
		<g>
			<line fill="none" stroke="#000000" x1="25.13" y1="2372.313" x2="77.942" y2="2319.459"/>
		</g>
	</g>
	<g display="inline">
		<g>
			<line fill="none" stroke="#000000" x1="77.942" y1="2319.459" x2="125.126" y2="2372.195"/>
		</g>
	</g>
	<g display="inline">
		
			<g>
			<line fill="none" stroke="#000000" x1="125.126" y1="2372.195" x2="175.997" y2="2325.745"/>
		</g>
	</g>
	<g display="inline">
		
			<g>
			<line fill="none" stroke="#000000" x1="175.997" y1="2325.745" x2="218.425" y2="2372.086"/>
		</g>
	</g>
	<g display="inline">
		
			<g>
			<line fill="none" stroke="#000000" x1="218.425" y1="2372.086" x2="260.369" y2="2331.146"/>
		</g>
	</g>
	<g display="inline">
		
			<g>
			<line fill="none" stroke="#000000" x1="-1220.096" y1="123.104" x2="-1270.667" y2="179.823"/>
		</g>
	</g>
	<g display="inline">
		
			<g>
			<line fill="none" stroke="#000000" x1="-1220.096" y1="123.104" x2="-1163.627" y2="172.282"/>
		</g>
	</g>
	<g display="inline">
		
			<g>
			<line fill="none" stroke="#000000" x1="-1163.627" y1="172.282" x2="-1104.812" y2="112.16"/>
		</g>
	</g>
	<g display="inline">
		
			<g>
			<line fill="none" stroke="#000000" x1="-1104.812" y1="112.16" x2="-1056.864" y2="167.74"/>
		</g>
	</g>
	<g display="inline">
		
			<g>
			<line fill="none" stroke="#000000" x1="-1056.864" y1="167.74" x2="-997.806" y2="88.123"/>
		</g>
	</g>
	<g display="inline">
		
			<g>
			<line fill="none" stroke="#000000" x1="-997.806" y1="88.123" x2="-942.616" y2="167.74"/>
		</g>
	</g>
	<g display="inline">
		
			<g>
			<line fill="none" stroke="#000000" x1="-942.616" y1="167.74" x2="-887.081" y2="36.73"/>
		</g>
	</g>
	<g display="inline">
		
			<g>
			<line fill="none" stroke="#000000" x1="-887.081" y1="36.73" x2="-829.526" y2="114.378"/>
		</g>
	</g>
	<g display="inline">
		
			<g>
			<line fill="none" stroke="#000000" x1="-829.526" y1="114.378" x2="-774.957" y2="-32.25"/>
		</g>
	</g>
	<g display="inline">
		
			<g>
			<line fill="none" stroke="#000000" x1="-774.957" y1="-32.25" x2="-719.534" y2="29.874"/>
		</g>
	</g>
	<g display="inline">
		
			<g>
			<line fill="none" stroke="#000000" x1="-719.534" y1="29.874" x2="-661.933" y2="-82.096"/>
		</g>
	</g>
	<g display="inline">
		
			<g>
			<line fill="none" stroke="#000000" x1="-661.933" y1="-82.096" x2="-607.914" y2="-11.834"/>
		</g>
	</g>
	<g display="inline">
		
			<g>
			<line fill="none" stroke="#000000" x1="-607.914" y1="-11.834" x2="-553.636" y2="-103.3"/>
		</g>
	</g>
	<g display="inline">
		
			<g>
			<line fill="none" stroke="#000000" x1="-553.636" y1="-103.3" x2="-497.366" y2="-23.78"/>
		</g>
	</g>
	<g display="inline">
		
			<g>
			<line fill="none" stroke="#000000" x1="-497.366" y1="-23.78" x2="-442.326" y2="-101.917"/>
		</g>
	</g>
	<g display="inline">
		
			<g>
			<line fill="none" stroke="#000000" x1="-442.326" y1="-101.917" x2="-387.967" y2="-8.413"/>
		</g>
	</g>
	<g display="inline">
		
			<g>
			<line fill="none" stroke="#000000" x1="-387.967" y1="-8.413" x2="-335.583" y2="-79.066"/>
		</g>
	</g>
	<g display="inline">
		
			<g>
			<line fill="none" stroke="#000000" x1="-335.583" y1="-79.066" x2="-279.917" y2="39.243"/>
		</g>
	</g>
	<g display="inline">
		
			<g>
			<line fill="none" stroke="#000000" x1="-279.917" y1="39.243" x2="-225.184" y2="-30.769"/>
		</g>
	</g>
	<g display="inline">
		
			<g>
			<line fill="none" stroke="#000000" x1="-225.184" y1="-30.769" x2="-174.315" y2="121.051"/>
		</g>
	</g>
	<g display="inline">
		
			<g>
			<line fill="none" stroke="#000000" x1="-174.315" y1="121.051" x2="-113.754" y2="37.545"/>
		</g>
	</g>
	<g display="inline">
		
			<g>
			<line fill="none" stroke="#000000" x1="-113.754" y1="37.545" x2="-60.866" y2="171.896"/>
		</g>
	</g>
	<g display="inline">
		<g>
			<line fill="none" stroke="#000000" x1="-60.866" y1="171.896" x2="-12.564" y2="92.041"/>
		</g>
	</g>
	<g display="inline">
		<g>
			<line fill="none" stroke="#000000" x1="-12.564" y1="92.041" x2="45.634" y2="171.896"/>
		</g>
	</g>
	<g display="inline">
		<g>
			<line fill="none" stroke="#000000" x1="45.634" y1="171.896" x2="101.119" y2="115.961"/>
		</g>
	</g>
	<g display="inline">
		<g>
			<line fill="none" stroke="#000000" x1="101.119" y1="115.961" x2="149.134" y2="172.444"/>
		</g>
	</g>
	<g display="inline">
		<g>
			<line fill="none" stroke="#000000" x1="149.134" y1="172.444" x2="202.859" y2="124.977"/>
		</g>
	</g>
	<g display="inline">
		<g>
			<line fill="none" stroke="#000000" x1="202.859" y1="124.977" x2="239.635" y2="172.63"/>
		</g>
	</g>
	<g display="inline">
		<g>
			<line fill="none" stroke="#000000" x1="239.635" y1="172.63" x2="284.634" y2="131.968"/>
		</g>
	</g>
	<g display="inline">
		
			<g>
			<line fill="none" stroke="#000000" x1="-1270.667" y1="179.823" x2="-1305.213" y2="127.932"/>
		</g>
	</g>
	<g display="inline">
		
			<g>
			<line fill="none" stroke="#000000" x1="-1260.883" y1="196.867" x2="-1207.722" y2="130.684"/>
		</g>
	</g>
	<g display="inline">
		
			<g>
			<line fill="none" stroke="#000000" x1="-1207.722" y1="130.684" x2="-1165.387" y2="189.947"/>
		</g>
	</g>
	<g display="inline">
		
			<g>
			<line fill="none" stroke="#000000" x1="-1165.387" y1="189.947" x2="-1093.103" y2="119.157"/>
		</g>
	</g>
	<g display="inline">
		
			<g>
			<line fill="none" stroke="#000000" x1="-1093.103" y1="119.157" x2="-1053.719" y2="185.273"/>
		</g>
	</g>
	<g display="inline">
		
			<g>
			<line fill="none" stroke="#000000" x1="-1053.719" y1="185.273" x2="-996.017" y2="98.404"/>
		</g>
	</g>
	<g display="inline">
		
			<g>
			<line fill="none" stroke="#000000" x1="-996.017" y1="98.404" x2="-939.456" y2="185.549"/>
		</g>
	</g>
	<g display="inline">
		
			<g>
			<line fill="none" stroke="#000000" x1="-939.456" y1="185.549" x2="-879.988" y2="46.299"/>
		</g>
	</g>
	<g display="inline">
		
			<g>
			<line fill="none" stroke="#000000" x1="-879.988" y1="46.299" x2="-824.985" y2="124.37"/>
		</g>
	</g>
	<g display="inline">
		
			<g>
			<line fill="none" stroke="#000000" x1="-824.985" y1="124.37" x2="-773.061" y2="-19.501"/>
		</g>
	</g>
	<g display="inline">
		
			<g>
			<line fill="none" stroke="#000000" x1="-773.061" y1="-19.501" x2="-715.838" y2="41.064"/>
		</g>
	</g>
	<g display="inline">
		
			<g>
			<line fill="none" stroke="#000000" x1="-715.838" y1="41.064" x2="-663.646" y2="-68.904"/>
		</g>
	</g>
	<g display="inline">
		
			<g>
			<line fill="none" stroke="#000000" x1="-663.646" y1="-68.904" x2="-609.495" y2="4.139"/>
		</g>
	</g>
	<g display="inline">
		
			<g>
			<line fill="none" stroke="#000000" x1="-609.495" y1="4.139" x2="-556.252" y2="-90.787"/>
		</g>
	</g>
	<g display="inline">
		
			<g>
			<line fill="none" stroke="#000000" x1="-556.252" y1="-90.787" x2="-502.213" y2="-8.413"/>
		</g>
	</g>
	<g display="inline">
		
			<g>
			<line fill="none" stroke="#000000" x1="-502.213" y1="-8.413" x2="-448.661" y2="-90.233"/>
		</g>
	</g>
	<g display="inline">
		
			<g>
			<line fill="none" stroke="#000000" x1="-448.661" y1="-90.233" x2="-398.297" y2="3.523"/>
		</g>
	</g>
	<g display="inline">
		
			<g>
			<line fill="none" stroke="#000000" x1="-398.297" y1="3.523" x2="-341.627" y2="-67.998"/>
		</g>
	</g>
	<g display="inline">
		
			<g>
			<line fill="none" stroke="#000000" x1="-341.627" y1="-67.998" x2="-292.881" y2="45.141"/>
		</g>
	</g>
	<g display="inline">
		
			<g>
			<line fill="none" stroke="#000000" x1="-292.881" y1="45.141" x2="-236.745" y2="-22.985"/>
		</g>
	</g>
	<g display="inline">
		
			<g>
			<line fill="none" stroke="#000000" x1="-236.745" y1="-22.985" x2="-187.442" y2="121.051"/>
		</g>
	</g>
	<g display="inline">
		
			<g>
			<line fill="none" stroke="#000000" x1="-187.442" y1="121.051" x2="-129.188" y2="42.74"/>
		</g>
	</g>
	<g display="inline">
		
			<g>
			<line fill="none" stroke="#000000" x1="-129.188" y1="42.74" x2="-80.507" y2="189.625"/>
		</g>
	</g>
	<g display="inline">
		<g>
			<line fill="none" stroke="#000000" x1="-80.507" y1="189.625" x2="-26.321" y2="98.845"/>
		</g>
	</g>
	<g display="inline">
		<g>
			<line fill="none" stroke="#000000" x1="-26.321" y1="98.845" x2="25.13" y2="189.47"/>
		</g>
	</g>
	<g display="inline">
		<g>
			<line fill="none" stroke="#000000" x1="25.13" y1="189.47" x2="77.942" y2="122.584"/>
		</g>
	</g>
	<g display="inline">
		<g>
			<line fill="none" stroke="#000000" x1="77.942" y1="122.584" x2="125.126" y2="189.321"/>
		</g>
	</g>
	<g display="inline">
		<g>
			<line fill="none" stroke="#000000" x1="125.126" y1="189.321" x2="175.997" y2="130.54"/>
		</g>
	</g>
	<g display="inline">
		<g>
			<line fill="none" stroke="#000000" x1="175.997" y1="130.54" x2="218.425" y2="189.183"/>
		</g>
	</g>
	<g display="inline">
		<g>
			<line fill="none" stroke="#000000" x1="218.425" y1="189.183" x2="260.369" y2="137.374"/>
		</g>
	</g>
	<g display="inline">
		
			<g>
			<line fill="#000000" stroke="#666666" x1="-1220.096" y1="3069.527" x2="-1270.667" y2="3114.347"/>
		</g>
	</g>
	<g display="inline">
		
			<g>
			<line fill="#000000" stroke="#666666" x1="-1220.096" y1="3069.527" x2="-1163.627" y2="3108.388"/>
		</g>
	</g>
	<g display="inline">
		
			<g>
			<line fill="#000000" stroke="#666666" x1="-1163.627" y1="3108.388" x2="-1104.812" y2="3060.879"/>
		</g>
	</g>
	<g display="inline">
		
			<g>
			<line fill="#000000" stroke="#666666" x1="-1104.812" y1="3060.879" x2="-1056.864" y2="3104.799"/>
		</g>
	</g>
	<g display="inline">
		
			<g>
			<line fill="#000000" stroke="#666666" x1="-1056.864" y1="3104.799" x2="-997.806" y2="3041.885"/>
		</g>
	</g>
	<g display="inline">
		
			<g>
			<line fill="#000000" stroke="#666666" x1="-997.806" y1="3041.885" x2="-942.616" y2="3104.799"/>
		</g>
	</g>
	<g display="inline">
		
			<g>
			<line fill="#000000" stroke="#666666" x1="-942.616" y1="3104.799" x2="-887.081" y2="3001.273"/>
		</g>
	</g>
	<g display="inline">
		
			<g>
			<line fill="#000000" stroke="#666666" x1="-887.081" y1="3001.273" x2="-829.526" y2="3062.632"/>
		</g>
	</g>
	<g display="inline">
		
			<g>
			<line fill="#000000" stroke="#666666" x1="-829.526" y1="3062.632" x2="-774.957" y2="2946.765"/>
		</g>
	</g>
	<g display="inline">
		
			<g>
			<line fill="#000000" stroke="#666666" x1="-774.957" y1="2946.765" x2="-719.534" y2="2995.855"/>
		</g>
	</g>
	<g display="inline">
		
			<g>
			<line fill="#000000" stroke="#666666" x1="-719.534" y1="2995.855" x2="-661.933" y2="2907.376"/>
		</g>
	</g>
	<g display="inline">
		
			<g>
			<line fill="#000000" stroke="#666666" x1="-661.933" y1="2907.376" x2="-607.914" y2="2962.897"/>
		</g>
	</g>
	<g display="inline">
		
			<g>
			<line fill="#000000" stroke="#666666" x1="-607.914" y1="2962.897" x2="-553.636" y2="2890.62"/>
		</g>
	</g>
	<g display="inline">
		
			<g>
			<line fill="#000000" stroke="#666666" x1="-553.636" y1="2890.62" x2="-497.366" y2="2953.458"/>
		</g>
	</g>
	<g display="inline">
		
			<g>
			<line fill="#000000" stroke="#666666" x1="-497.366" y1="2953.458" x2="-442.326" y2="2891.713"/>
		</g>
	</g>
	<g display="inline">
		
			<g>
			<line fill="#000000" stroke="#666666" x1="-442.326" y1="2891.713" x2="-387.967" y2="2965.602"/>
		</g>
	</g>
	<g display="inline">
		
			<g>
			<line fill="#000000" stroke="#666666" x1="-387.967" y1="2965.602" x2="-335.583" y2="2909.771"/>
		</g>
	</g>
	<g display="inline">
		
			<g>
			<line fill="#000000" stroke="#666666" x1="-335.583" y1="2909.771" x2="-279.917" y2="3003.26"/>
		</g>
	</g>
	<g display="inline">
		
			<g>
			<line fill="#000000" stroke="#666666" x1="-279.917" y1="3003.26" x2="-225.184" y2="2947.936"/>
		</g>
	</g>
	<g display="inline">
		
			<g>
			<line fill="#000000" stroke="#666666" x1="-225.184" y1="2947.936" x2="-174.315" y2="3067.904"/>
		</g>
	</g>
	<g display="inline">
		
			<g>
			<line fill="#000000" stroke="#666666" x1="-174.315" y1="3067.904" x2="-113.754" y2="3001.917"/>
		</g>
	</g>
	<g display="inline">
		
			<g>
			<line fill="#000000" stroke="#666666" x1="-113.754" y1="3001.917" x2="-60.866" y2="3108.083"/>
		</g>
	</g>
	<g display="inline">
		
			<g>
			<line fill="#000000" stroke="#666666" x1="-60.866" y1="3108.083" x2="-12.564" y2="3044.98"/>
		</g>
	</g>
	<g display="inline">
		
			<g>
			<line fill="#000000" stroke="#666666" x1="-12.564" y1="3044.98" x2="45.634" y2="3108.083"/>
		</g>
	</g>
	<g display="inline">
		<g>
			<line fill="#000000" stroke="#666666" x1="45.634" y1="3108.083" x2="101.119" y2="3063.883"/>
		</g>
	</g>
	<g display="inline">
		<g>
			<line fill="#000000" stroke="#666666" x1="101.119" y1="3063.883" x2="149.134" y2="3108.516"/>
		</g>
	</g>
	<g display="inline">
		
			<g>
			<line fill="#000000" stroke="#666666" x1="149.134" y1="3108.516" x2="202.859" y2="3071.007"/>
		</g>
	</g>
	<g display="inline">
		
			<g>
			<line fill="#000000" stroke="#666666" x1="202.859" y1="3071.007" x2="239.635" y2="3108.663"/>
		</g>
	</g>
	<g display="inline">
		
			<g>
			<line fill="#000000" stroke="#666666" x1="239.635" y1="3108.663" x2="284.634" y2="3076.531"/>
		</g>
	</g>
	<g display="inline">
		
			<g>
			<line fill="#000000" stroke="#666666" x1="-1270.667" y1="3114.347" x2="-1305.213" y2="3073.342"/>
		</g>
	</g>
	<g display="inline">
		
			<g>
			<line fill="#000000" stroke="#666666" x1="-1260.883" y1="3127.815" x2="-1207.722" y2="3075.517"/>
		</g>
	</g>
	<g display="inline">
		
			<g>
			<line fill="#000000" stroke="#666666" x1="-1207.722" y1="3075.517" x2="-1165.387" y2="3122.347"/>
		</g>
	</g>
	<g display="inline">
		
			<g>
			<line fill="#000000" stroke="#666666" x1="-1165.387" y1="3122.347" x2="-1093.103" y2="3066.408"/>
		</g>
	</g>
	<g display="inline">
		
			<g>
			<line fill="#000000" stroke="#666666" x1="-1093.103" y1="3066.408" x2="-1053.719" y2="3118.653"/>
		</g>
	</g>
	<g display="inline">
		
			<g>
			<line fill="#000000" stroke="#666666" x1="-1053.719" y1="3118.653" x2="-996.017" y2="3050.009"/>
		</g>
	</g>
	<g display="inline">
		
			<g>
			<line fill="#000000" stroke="#666666" x1="-996.017" y1="3050.009" x2="-939.456" y2="3118.871"/>
		</g>
	</g>
	<g display="inline">
		
			<g>
			<line fill="#000000" stroke="#666666" x1="-939.456" y1="3118.871" x2="-879.988" y2="3008.835"/>
		</g>
	</g>
	<g display="inline">
		
			<g>
			<line fill="#000000" stroke="#666666" x1="-879.988" y1="3008.835" x2="-824.985" y2="3070.527"/>
		</g>
	</g>
	<g display="inline">
		
			<g>
			<line fill="#000000" stroke="#666666" x1="-824.985" y1="3070.527" x2="-773.061" y2="2956.839"/>
		</g>
	</g>
	<g display="inline">
		
			<g>
			<line fill="#000000" stroke="#666666" x1="-773.061" y1="2956.839" x2="-715.838" y2="3004.698"/>
		</g>
	</g>
	<g display="inline">
		
			<g>
			<line fill="#000000" stroke="#666666" x1="-715.838" y1="3004.698" x2="-663.646" y2="2917.801"/>
		</g>
	</g>
	<g display="inline">
		
			<g>
			<line fill="#000000" stroke="#666666" x1="-663.646" y1="2917.801" x2="-609.495" y2="2975.52"/>
		</g>
	</g>
	<g display="inline">
		
			<g>
			<line fill="#000000" stroke="#666666" x1="-609.495" y1="2975.52" x2="-556.252" y2="2900.509"/>
		</g>
	</g>
	<g display="inline">
		
			<g>
			<line fill="#000000" stroke="#666666" x1="-556.252" y1="2900.509" x2="-502.213" y2="2965.602"/>
		</g>
	</g>
	<g display="inline">
		
			<g>
			<line fill="#000000" stroke="#666666" x1="-502.213" y1="2965.602" x2="-448.661" y2="2900.946"/>
		</g>
	</g>
	<g display="inline">
		
			<g>
			<line fill="#000000" stroke="#666666" x1="-448.661" y1="2900.946" x2="-398.297" y2="2975.033"/>
		</g>
	</g>
	<g display="inline">
		
			<g>
			<line fill="#000000" stroke="#666666" x1="-398.297" y1="2975.033" x2="-341.627" y2="2918.517"/>
		</g>
	</g>
	<g display="inline">
		
			<g>
			<line fill="#000000" stroke="#666666" x1="-341.627" y1="2918.517" x2="-292.881" y2="3007.92"/>
		</g>
	</g>
	<g display="inline">
		
			<g>
			<line fill="#000000" stroke="#666666" x1="-292.881" y1="3007.92" x2="-236.745" y2="2954.086"/>
		</g>
	</g>
	<g display="inline">
		
			<g>
			<line fill="#000000" stroke="#666666" x1="-236.745" y1="2954.086" x2="-187.442" y2="3067.904"/>
		</g>
	</g>
	<g display="inline">
		
			<g>
			<line fill="#000000" stroke="#666666" x1="-187.442" y1="3067.904" x2="-129.188" y2="3006.022"/>
		</g>
	</g>
	<g display="inline">
		
			<g>
			<line fill="#000000" stroke="#666666" x1="-129.188" y1="3006.022" x2="-80.507" y2="3122.093"/>
		</g>
	</g>
	<g display="inline">
		
			<g>
			<line fill="#000000" stroke="#666666" x1="-80.507" y1="3122.093" x2="-26.321" y2="3050.357"/>
		</g>
	</g>
	<g display="inline">
		
			<g>
			<line fill="#000000" stroke="#666666" x1="-26.321" y1="3050.357" x2="25.13" y2="3121.97"/>
		</g>
	</g>
	<g display="inline">
		<g>
			<line fill="#000000" stroke="#666666" x1="25.13" y1="3121.97" x2="77.942" y2="3069.116"/>
		</g>
	</g>
	<g display="inline">
		<g>
			<line fill="#000000" stroke="#666666" x1="77.942" y1="3069.116" x2="125.126" y2="3121.853"/>
		</g>
	</g>
	<g display="inline">
		
			<g>
			<line fill="#000000" stroke="#666666" x1="125.126" y1="3121.853" x2="175.997" y2="3075.402"/>
		</g>
	</g>
	<g display="inline">
		
			<g>
			<line fill="#000000" stroke="#666666" x1="175.997" y1="3075.402" x2="218.425" y2="3121.743"/>
		</g>
	</g>
	<g display="inline">
		
			<g>
			<line fill="#000000" stroke="#666666" x1="218.425" y1="3121.743" x2="260.369" y2="3080.803"/>
		</g>
	</g>
</g>
<g id="new_thin_bridge">
</g>
<g id="bridge_posts">
</g>
<g id="bridge_bold_1_">
	<path d="M113.737,28.922c-3.381-0.424-7.649-0.923-12.495-1.409c-2.237-0.679-4.457-2.002-6.62-3.293   c-0.636-0.379-1.293-0.771-1.928-1.131c-1.505-0.855-3.006-1.802-4.458-2.718c-2.264-1.429-4.605-2.906-7.038-4.081   c-5.466-2.641-11.501-4.037-17.455-4.037c-0.002,0-0.005,0-0.007,0h0c-0.002,0-0.004,0-0.007,0c-5.953,0-11.989,1.396-17.455,4.037   c-2.433,1.175-4.773,2.652-7.038,4.081c-1.452,0.916-2.953,1.863-4.458,2.718c-0.634,0.36-1.292,0.752-1.928,1.131   c-2.111,1.26-4.276,2.55-6.458,3.243c-4.985,0.489-9.325,0.987-12.656,1.397v2.119c6.232-0.771,16.169-1.872,27.287-2.625   c-0.474,0.41-0.939,0.824-1.404,1.251c-10.512,0.743-19.863,1.778-25.882,2.52v1.06c5.755-0.711,14.63-1.699,24.667-2.438   c-0.112,0.108-0.224,0.216-0.337,0.326c-1.025,0.998-1.742,1.644-2.019,1.891c-8.857,0.706-16.766,1.547-22.312,2.21v1.059   c4.004-0.479,9.267-1.056,15.242-1.606v13.011h7.707V33.803c0.233-0.205,0.981-0.875,2.115-1.978   c0.424-0.413,0.843-0.811,1.261-1.198c7.575-0.529,15.736-0.903,23.675-0.903c7.95,0,16.103,0.378,23.69,0.917   c0.413,0.383,0.826,0.776,1.246,1.184c1.134,1.103,1.883,1.772,2.115,1.978v13.833h7.707V34.625   c5.975,0.55,11.238,1.126,15.243,1.606v-1.059c-5.547-0.663-13.455-1.504-22.312-2.21c-0.277-0.247-0.994-0.893-2.019-1.891   c-0.107-0.104-0.213-0.207-0.32-0.309c9.886,0.74,18.691,1.733,24.651,2.483v-1.06c-6.231-0.782-15.508-1.822-25.867-2.567   c-0.465-0.427-0.931-0.842-1.405-1.252c10.954,0.754,20.805,1.86,27.272,2.674V28.922z M63.737,28.673   c-7.5,0-15.197,0.333-22.413,0.814c0.479-0.421,0.964-0.836,1.464-1.25c6.786-0.431,13.953-0.722,20.948-0.722   c7.004,0,14.167,0.294,20.961,0.733c0.5,0.414,0.986,0.829,1.465,1.251C78.938,29.009,71.248,28.673,63.737,28.673z M45.696,25.957   c1.5-1.095,3.305-2.166,4.809-2.849c1.971-0.894,3.903-1.733,5.866-2.174c2.498-0.561,4.976-0.85,7.366-0.859   c2.39,0.009,4.868,0.298,7.366,0.859c1.963,0.441,3.895,1.28,5.866,2.174c1.507,0.684,3.317,1.759,4.82,2.856   c-5.913-0.337-12.04-0.553-18.052-0.553C57.734,25.412,51.604,25.625,45.696,25.957z M83.672,26.077   c-0.286-0.223-0.578-0.447-0.877-0.675c-1.65-1.253-3.666-2.468-5.391-3.251c-2.023-0.918-4.009-1.78-6.07-2.243   c-2.573-0.578-5.128-0.876-7.595-0.885c0,0,0,0-0.001,0h0c-0.001,0-0.001,0-0.002,0c-2.467,0.009-5.022,0.307-7.595,0.885   c-2.061,0.463-4.047,1.325-6.07,2.243c-1.725,0.783-3.74,1.998-5.391,3.251c-0.295,0.224-0.583,0.446-0.865,0.666   c-4.903,0.298-9.626,0.672-13.964,1.068c1.197-0.615,2.377-1.318,3.541-2.013c0.66-0.394,1.284-0.766,1.908-1.12   c1.526-0.867,3.038-1.821,4.5-2.743c2.24-1.413,4.555-2.875,6.935-4.024c5.324-2.573,11.201-3.932,16.997-3.932   c0.002,0,0.005,0,0.007,0l0-0.701v0.701c0.002,0,0.004,0,0.007,0c5.796,0,11.673,1.36,16.997,3.932   c2.379,1.149,4.694,2.611,6.934,4.024c1.462,0.922,2.974,1.876,4.5,2.743c0.625,0.354,1.248,0.727,1.908,1.12   c1.185,0.707,2.387,1.423,3.607,2.047C93.322,26.763,88.585,26.38,83.672,26.077z"/>
</g>
<g id="coverup" display="none">
	<rect x="-1347.435" y="31.831" display="inline" fill="#000000" width="30.437" height="188.828"/>
	<rect x="294.002" y="10.545" display="inline" fill="#000000" width="45.009" height="210.113"/>
</g>
<g id="text">
</g>
</svg>