<?xml version="1.0" encoding="utf-8"?>
<!-- Generator: Adobe Illustrator 15.1.0, SVG Export Plug-In . SVG Version: 6.00 Build 0)  -->
<!DOCTYPE svg PUBLIC "-//W3C//DTD SVG 1.1//EN" "http://www.w3.org/Graphics/SVG/1.1/DTD/svg11.dtd">
<svg version="1.1" id="Layer_1" xmlns="http://www.w3.org/2000/svg" xmlns:xlink="http://www.w3.org/1999/xlink" x="0px" y="0px"
	 width="97.017px" height="100px" viewBox="0 0 97.017 100" enable-background="new 0 0 97.017 100" xml:space="preserve">
<path d="M65.979,99.993c17.125,0,31.037-13.883,31.037-31.008c0-4.951,0-18.108,0-20.805c0-2.845-2.18-3.679-4.068-1.597
	c-1.123,1.231-26.41,26.692-39.057,40.485c0-11.103,0-26.342,0-30.11c0-0.748,0.32-1.328,1.217-1.328
	c12.979,0,24.711-13.978,24.711-27.405c0-9.934-2.094-17.139-6.701-26.355C72.517,0.668,72.431,0,70.747,0
	c-0.787,0-1.541,0.354-1.906,0.984c-1.197,2.08-7.672,13.27-8.086,14.008c-0.504,0.902-1.59,0.994-2.096,0
	c-0.383-0.754-6.887-11.928-8.088-14.008C50.206,0.354,49.456,0,48.669,0c-0.786,0-1.538,0.354-1.902,0.984
	c-1.203,2.08-7.705,13.254-8.087,14.008c-0.506,0.994-1.591,0.902-2.096,0c-0.414-0.739-6.888-11.928-8.087-14.008
	C28.132,0.354,27.379,0,26.592,0c-1.684,0-1.771,0.668-2.371,1.869c-4.61,9.217-6.702,16.421-6.702,26.356
	c0,13.428,11.732,27.404,24.71,27.404c0.898,0,1.216,0.58,1.216,1.328c0,6.16,0,43.043,0,43.043L65.979,99.993z"/>
<path d="M4.093,46.584C2.202,44.501,0,45.336,0,48.18c0,2.696,0.053,15.854,0.053,20.807c0,17.125,13.884,31.008,31.009,31.008
	c1.855,0,6.256,0,8.363,0V82.591C33.046,76.112,5.417,48.041,4.093,46.584z"/>
</svg>
