<svg xmlns="http://www.w3.org/2000/svg" xmlns:xlink="http://www.w3.org/1999/xlink" version="1.0" id="Layer_1" x="0px" y="0px" width="100px" height="100px" viewBox="0 0 100 100" enable-background="new 0 0 100 100" xml:space="preserve">
<polygon fill="#000000" points="89.357,67.1 96.389,67.519 96.389,70.823 89.357,70.793 "/>
<polygon fill="#000000" points="75.304,66.344 3.611,68.286 3.611,70.723 75.304,70.823 75.304,70.736 85.386,70.778 85.386,66.862   75.304,66.264 "/>
<polygon fill="#000000" points="87.471,29.177 75.304,30.914 75.304,30.956 3.611,49.028 3.611,51.465 75.304,35.435 75.304,35.389   96.389,44.709 96.389,41.402 "/>
<path fill="#000000" d="M75.304,37.353l21.085,8.807v19.989l-7.031-0.58v-3.784l-3.972-0.554v4.01l-10.082-0.83v0.078L3.611,67.276  v-14.74l71.692-15.135V37.353z M5.721,61.104l-1.188,0.129v2.283l1.188-0.099V61.104z M5.721,57.326l-1.188,0.183v2.281l1.188-0.147  V57.326z M5.721,53.552l-1.188,0.23v2.282l1.188-0.199V53.552z M7.919,60.864l-1.251,0.137v2.339l1.251-0.103V60.864z M7.919,56.995  l-1.251,0.188v2.341l1.251-0.158V56.995z M7.919,53.123l-1.251,0.243v2.34l1.251-0.21V53.123z M10.229,60.616l-1.313,0.141v2.399  l1.313-0.106V60.616z M10.229,56.645l-1.313,0.199v2.396l1.313-0.163V56.645z M10.229,52.674L8.916,52.93v2.399l1.313-0.222V52.674z   M12.663,60.352l-1.384,0.151v2.46l1.384-0.114V60.352z M12.663,56.276l-1.384,0.209v2.464l1.384-0.175V56.276z M12.663,52.202  l-1.384,0.27v2.459l1.384-0.23V52.202z M15.229,60.074l-1.461,0.157v2.526l1.461-0.117V60.074z M15.229,55.888l-1.461,0.222v2.524  l1.461-0.182V55.888z M15.229,51.702l-1.461,0.284v2.528l1.461-0.247V51.702z M17.935,59.78l-1.542,0.167v2.597l1.542-0.127V59.78z   M17.935,55.477l-1.542,0.235v2.597l1.542-0.193V55.477z M17.935,51.175l-1.542,0.302v2.594l1.542-0.258V51.175z M20.798,59.47  l-1.632,0.177v2.67l1.632-0.135V59.47z M20.798,55.045l-1.632,0.246v2.669l1.632-0.203V55.045z M20.798,50.62l-1.632,0.316v2.668  l1.632-0.272V50.62z M23.794,59.146l-1.729,0.188v2.746l1.729-0.144V59.146z M23.794,54.59l-1.729,0.262V57.6l1.729-0.216V54.59z   M23.794,50.038l-1.729,0.336v2.745l1.729-0.292V50.038z M26.967,58.801l-1.831,0.201v2.823l1.831-0.147V58.801z M26.967,54.112  l-1.831,0.276v2.826l1.831-0.229V54.112z M26.967,49.42l-1.831,0.356v2.827l1.831-0.309V49.42z M30.336,58.438l-1.944,0.212v2.911  l1.944-0.159V58.438z M30.336,53.601l-1.944,0.296v2.911l1.944-0.243V53.601z M30.336,48.765l-1.944,0.379v2.911l1.944-0.326V48.765  z M33.922,58.049l-2.069,0.226v3.002l2.069-0.169V58.049z M33.922,53.059l-2.069,0.312v3.004l2.069-0.258V53.059z M33.922,48.067  l-2.069,0.403v3.004l2.069-0.349V48.067z M37.742,57.634l-2.206,0.238v3.103l2.206-0.18V57.634z M37.742,52.479l-2.206,0.334v3.103  l2.206-0.277V52.479z M37.742,47.324l-2.206,0.429v3.102l2.206-0.369V47.324z M41.764,57.197l-2.357,0.258v3.203l2.357-0.193V57.197  z M41.764,51.87l-2.357,0.358v3.203l2.357-0.296V51.87z M41.764,46.544l-2.357,0.458v3.203l2.357-0.396V46.544z M46.064,56.733  l-2.522,0.272v3.313l2.522-0.207V56.733z M46.064,51.221l-2.522,0.381v3.312l2.522-0.316V51.221z M46.064,45.706l-2.522,0.492v3.313  l2.522-0.425V45.706z M50.675,56.235l-2.707,0.291v3.431l2.707-0.224V56.235z M50.675,50.523l-2.707,0.409v3.428l2.707-0.339V50.523  z M50.675,44.812l-2.707,0.526v3.429l2.707-0.455V44.812z M55.627,55.696l-2.909,0.315v3.555l2.909-0.238V55.696z M55.627,49.772  l-2.909,0.44v3.555l2.909-0.364V49.772z M55.627,43.849l-2.909,0.564v3.556l2.909-0.489V43.849z M60.965,55.121l-3.136,0.337v3.689  l3.136-0.256V55.121z M60.965,48.964l-3.136,0.476v3.689l3.136-0.393V48.964z M60.965,42.811l-3.136,0.609v3.688l3.136-0.527V42.811  z M66.733,54.495l-3.392,0.368v3.831l3.392-0.276V54.495z M66.733,48.09l-3.392,0.516v3.834l3.392-0.425V48.09z M66.733,41.688  l-3.392,0.659v3.836l3.392-0.572V41.688z M72.987,53.816l-3.678,0.398v3.993l3.678-0.302V53.816z M72.987,47.145l-3.678,0.557v3.993  l3.678-0.463V47.145z M72.987,40.472l-3.678,0.716v3.991l3.678-0.617V40.472z M94.592,50.558l1.13,0.375v-3.097l-1.13-0.436V50.558z   M94.592,55.704l1.13,0.282V52.89l-1.13-0.341V55.704z M94.592,60.852l1.13,0.189v-3.097l-1.13-0.246V60.852z M92.532,49.867  l1.207,0.406v-3.199l-1.207-0.466V49.867z M92.532,55.188l1.207,0.304v-3.199l-1.207-0.365V55.188z M92.532,60.511l1.207,0.2v-3.198  l-1.207-0.264V60.511z M90.328,49.132l1.292,0.433v-3.309l-1.292-0.497V49.132z M90.328,54.64l1.292,0.321v-3.309l-1.292-0.389  V54.64z M90.328,60.143l1.292,0.216V57.05l-1.292-0.28V60.143z M87.967,48.344l1.387,0.463v-3.423l-1.387-0.534V48.344z   M87.967,54.048l1.387,0.345v-3.422l-1.387-0.417V54.048z M87.967,59.75l1.387,0.229v-3.423l-1.387-0.301V59.75z M85.431,47.499  l1.49,0.496v-3.548l-1.49-0.576V47.499z M85.431,53.415l1.49,0.371v-3.549l-1.49-0.449V53.415z M85.431,59.328l1.49,0.25v-3.552  l-1.49-0.322V59.328z M82.696,46.585l1.605,0.535v-3.681l-1.605-0.622V46.585z M82.696,52.729l1.605,0.402v-3.684l-1.605-0.483  V52.729z M82.696,58.873l1.605,0.269v-3.684l-1.605-0.349V58.873z M79.742,45.6l1.735,0.58v-3.83l-1.735-0.669V45.6z M79.742,51.99  l1.735,0.436v-3.83l-1.735-0.522V51.99z M79.742,58.384l1.735,0.288v-3.828l-1.735-0.379V58.384z M76.539,44.531l1.884,0.627v-3.985  l-1.884-0.724V44.531z M76.539,51.19l1.884,0.47v-3.983l-1.884-0.568V51.19z M76.539,57.85l1.884,0.314v-3.985l-1.884-0.411V57.85z"/>
</svg>