<svg xmlns="http://www.w3.org/2000/svg" xmlns:xlink="http://www.w3.org/1999/xlink" version="1.0" id="Layer_1" x="0px" y="0px" width="100px" height="100px" viewBox="0 0 100 100" enable-background="new 0 0 100 100" xml:space="preserve">
<polygon fill="#000000" points="94.938,46.021 85.172,46.021 85.172,43.973 89.941,42.292 94.938,43.973 "/>
<path fill="#000000" d="M85.172,46.86v12.076h3.464v-5.407h0.005c0.016-0.769,0.641-1.387,1.413-1.387s1.399,0.618,1.414,1.387  h0.005v5.407h3.465V46.86H85.172z"/>
<polygon fill="#000000" points="14.829,46.021 5.062,46.021 5.062,43.973 9.833,42.292 14.829,43.973 "/>
<path fill="#000000" d="M5.062,46.86v12.076h3.466v-5.407h0.004c0.015-0.769,0.641-1.387,1.413-1.387  c0.772,0,1.399,0.618,1.414,1.387h0.004v5.407h3.466V46.86H5.062z"/>
<path fill="#000000" d="M15.154,46.86v12.076h28.444V46.86H15.154z M18.725,57.229H16.97v-3.533h1.755V57.229z M18.725,52.112H16.97  V48.58h1.755V52.112z M22.615,57.229H20.86v-3.533h1.755V57.229z M22.615,52.112H20.86V48.58h1.755V52.112z M26.506,57.229h-1.755  v-3.533h1.755V57.229z M26.506,52.112h-1.755V48.58h1.755V52.112z M30.397,57.229h-1.755v-3.533h1.755V57.229z M30.397,52.112  h-1.755V48.58h1.755V52.112z M34.288,57.229h-1.754v-3.533h1.754V57.229z M34.288,52.112h-1.754V48.58h1.754V52.112z M38.179,57.229  h-1.755v-3.533h1.755V57.229z M38.179,52.112h-1.755V48.58h1.755V52.112z M42.07,57.229h-1.755v-3.533h1.755V57.229z M42.07,52.112  h-1.755V48.58h1.755V52.112z"/>
<rect x="15.154" y="44.789" fill="#000000" width="28.444" height="1.232"/>
<path fill="#000000" d="M56.401,46.86v12.076h28.444V46.86H56.401z M59.973,57.229h-1.755v-3.533h1.755V57.229z M59.973,52.112  h-1.755V48.58h1.755V52.112z M63.863,57.229h-1.754v-3.533h1.754V57.229z M63.863,52.112h-1.754V48.58h1.754V52.112z M67.755,57.229  H66v-3.533h1.755V57.229z M67.755,52.112H66V48.58h1.755V52.112z M71.646,57.229h-1.755v-3.533h1.755V57.229z M71.646,52.112h-1.755  V48.58h1.755V52.112z M75.535,57.229h-1.753v-3.533h1.753V57.229z M75.535,52.112h-1.753V48.58h1.753V52.112z M79.428,57.229h-1.755  v-3.533h1.755V57.229z M79.428,52.112h-1.755V48.58h1.755V52.112z M83.317,57.229h-1.754v-3.533h1.754V57.229z M83.317,52.112  h-1.754V48.58h1.754V52.112z"/>
<rect x="56.401" y="44.789" fill="#000000" width="28.444" height="1.232"/>
<path fill="#000000" d="M43.923,58.937h4.312v-6.73h0.005c0.019-0.956,0.798-1.725,1.759-1.725s1.741,0.769,1.759,1.725h0.006v6.73  h4.312v-15.03H43.923V58.937z M50,45.738c0.655,0,1.187,0.531,1.187,1.186c0,0.656-0.532,1.188-1.187,1.188  s-1.186-0.532-1.186-1.188C48.814,46.269,49.345,45.738,50,45.738z"/>
<polygon fill="#000000" points="49.859,38.221 43.923,40.312 43.923,42.861 56.077,42.861 56.077,40.312 "/>
<rect x="5.062" y="59.911" fill="#000000" width="89.875" height="1.868"/>
</svg>