<svg xmlns="http://www.w3.org/2000/svg" xmlns:xlink="http://www.w3.org/1999/xlink" version="1.1" id="Layer_1" x="0px" y="0px" width="100px" height="100px" viewBox="0 0 100 100" enable-background="new 0 0 100 100" xml:space="preserve">
<path d="M71.111,25.584c-1.553-3.104-4.378-1.201-5.923-1.128c-0.279,0.014-0.538-0.002-0.806-0.031v-6.809  c0-4.57-3.101-8.098-8.277-8.842c0,0-1.812-0.417-5.62-0.417c-3.809,0-5.622,0.417-5.622,0.417  c-5.176,0.745-8.276,4.272-8.276,8.842v5.654c0.974,0.265,1.95,0.521,2.777,0.746c1.178,0.32,3.035,0.864,2.984,1.15  c-0.066,0.372-0.368,0.538-0.734,0.538c-0.046,0-0.092-0.004-0.139-0.013c-0.252-0.045-5.214-0.952-8.175-1.797  c-1.245-0.223-2.553-0.089-3.441,1.689c-0.809,1.616,0.44,3.821,1.314,4.614c1.149,1.042,2.63,1.93,4.27,2.308l0.108-2.188  c3.81,0.792,8.615,1.264,13.837,1.264c6.271,0,11.938-0.68,16.004-1.778l0.134,2.702c1.64-0.378,3.121-1.266,4.271-2.308  C70.671,29.405,71.918,27.2,71.111,25.584z"/>
<path d="M51.427,67.468c0,0,0.574-2.354,1.952-3.408c-0.229-0.051-2.894-4.058-2.894-4.058l-2.913,4.058  c0.858,0.405,2.456,3.016,2.121,6.46c-0.038,0.387-0.143,0.662-0.297,0.673c-0.046,0.003-0.092-0.018-0.138-0.065  c-0.195-0.191-0.279-0.733-0.21-1.155c0.11-0.658,0.153-1.437,0.167-1.951c-0.784,1.282-2.626,4.772-3.066,9.933  c-0.055,0.646,4.327,7.42,4.327,7.42s4.431-6.773,4.376-7.42C54.307,71.354,51.427,67.468,51.427,67.468z"/>
<path d="M94.726,79.998c-4.559-14.444-31.388-15.534-31.388-15.534L50.501,89.089L37.664,64.464c0,0-26.828,1.09-31.387,15.534  c0,0-2.241,12.124-2.83,17.283H50h1.003h46.552C96.968,92.122,94.726,79.998,94.726,79.998z"/>
</svg>