<svg xmlns="http://www.w3.org/2000/svg" xmlns:xlink="http://www.w3.org/1999/xlink" version="1.1" x="0px" y="0px" width="100px" height="100px" viewBox="0 0 100 100" enable-background="new 0 0 100 100" xml:space="preserve">
<g id="Layer_1">
	<g>
		<path d="M86.389,66.025c-6.401,0-11.61-5.209-11.61-11.61c0-6.403,5.209-11.611,11.61-11.611C92.792,42.804,98,48.012,98,54.415    C98,60.816,92.792,66.025,86.389,66.025z M86.389,46.838c-4.177,0-7.576,3.399-7.576,7.577c0,4.177,3.399,7.577,7.576,7.577    c4.179,0,7.578-3.4,7.578-7.577C93.967,50.237,90.567,46.838,86.389,46.838z"/>
	</g>
	<circle cx="86.389" cy="54.415" r="2.171"/>
	<g>
		<path d="M91.887,42.458c-3.252-6.556-13.311-9.477-19.661-8.726c-1.619-3.373-4.79-5.545-9.144-5.514c0,0-15.1,0.916-22.399,2.072    l-3.287,0.383c-0.553,0.064-0.949,0.565-0.885,1.119l0.018,0.156c0.064,0.553,0.565,0.95,1.119,0.885l0.312-0.036l-3.224,4.685    c-9.077,0.592-16.144,1.053-16.246,1.058c-4.509,0.207-5.171,3.029-5.171,3.029L12.128,44.5c0.554,0.024,1.097,0.088,1.627,0.188    l-0.001-0.001c5.91-1.193,16.877-8.976,25.934-4.249c-13.485-4.139-9.151,10.369-0.201,3.207    c3.201-2.561,6.614-4.211,11.643-1.595c-12.623-3.6-8.187,10.631,2.084,2.878c-3.95,5.254-8.662,3.458-12.619,2.553    c-14.923-3.412-12.131,9.713-3.286,4.119c3.301-2.087,5.954-2.105,8.718-0.558c-10.134-2.819-10.631,8.908-3.574,4.151    c-0.848,1.061-1.754,1.776-2.691,2.234h34.009c-0.219-0.941-0.338-1.92-0.338-2.928c0-7.144,5.812-12.955,12.955-12.955    c1.896,0,3.695,0.412,5.318,1.146C91.898,42.779,91.981,42.651,91.887,42.458z M62.221,35.686l-17.981,0.971l-5.593,0.348    l2.067-2.987c0.799-1.371,1.714-1.628,2.828-1.718l15.019-1.203c2.057-0.165,4.733,0.178,5.169,4.49    C63.237,35.619,62.734,35.652,62.221,35.686z"/>
		<path d="M32.852,57.429c-1.339-0.426-2.606-0.967-3.724-1.369c-2.578-0.931-4.126-0.961-6.024-0.237    c0.001,0.051,0.004,0.101,0.004,0.149c0,0.494-0.035,0.98-0.095,1.457H32.852z"/>
	</g>
	<circle cx="11.584" cy="55.886" r="2.171"/>
	<g>
		<path d="M11.584,66.025c-5.591,0-10.141-4.549-10.141-10.14c0-5.591,4.549-10.141,10.141-10.141c5.592,0,10.14,4.549,10.14,10.141    C21.724,61.477,17.176,66.025,11.584,66.025z M11.584,49.778c-3.367,0-6.106,2.739-6.106,6.107c0,3.367,2.739,6.106,6.106,6.106    s6.106-2.739,6.106-6.106C17.69,52.518,14.951,49.778,11.584,49.778z"/>
	</g>
</g>
<g id="Layer_2" display="none">
	<path display="inline" d="M72.31,69.335c2.334,1.65,5.198,2.62,7.919,2.62h3.181c6.231,0,11.3-5.069,11.3-11.301   c0-6.23-5.068-11.299-11.3-11.299h-7.983v-0.729H15.713v4.289c0,0.244,0.011,0.486,0.026,0.728   c-0.016,0.431-0.026,0.861-0.026,1.296c0,11.43,5.473,21.475,13.734,27.227H7.85c-1.413,0-2.559,1.146-2.559,2.559   c0,1.414,1.146,2.559,2.559,2.559h8.99c0,1.016,0.823,1.84,1.838,1.84H72.46c1.016,0,1.839-0.824,1.839-1.84h8.989   c1.413,0,2.559-1.145,2.559-2.559c0-1.412-1.146-2.559-2.559-2.559H61.685C66.209,79.015,69.897,74.581,72.31,69.335z    M75.421,55.27h7.988c2.97,0,5.386,2.416,5.386,5.385c0,2.97-2.416,5.386-5.386,5.386h-3.181c-2.038,0-4.438-1.12-5.821-2.709   C75.045,60.757,75.396,58.055,75.421,55.27z"/>
	<path display="inline" d="M35.887,24.743c1.127-2.535,1.409-5.352,0.563-8.168c-0.563-2.253-3.098-3.943-5.352-2.817   c0,0-0.281,0.282-0.281,0.564c0.281,2.253,1.408,4.225,0.845,6.478c-0.845,2.816-2.816,4.788-3.662,7.604   c-0.845,2.535-0.563,5.352,0.563,7.605c0.776,1.294,1.612,2.38,4.359,2.38c0.677,0,1.226-0.548,1.226-1.226   c0-0.189-2.074-4.941-0.797-7.633C34.197,27.841,35.324,26.433,35.887,24.743z"/>
	<path display="inline" d="M64.738,24.743c1.126-2.535,1.407-5.352,0.562-8.168c-0.562-2.253-3.099-3.943-5.352-2.817   c0,0-0.281,0.282-0.281,0.564c0.281,2.253,1.408,4.225,0.845,6.478c-0.845,2.816-2.816,4.788-3.661,7.604   c-0.845,2.535-0.563,5.352,0.562,7.605c0.777,1.294,1.612,2.38,4.359,2.38c0.677,0,1.227-0.548,1.227-1.226   c0-0.189-2.074-4.941-0.798-7.633C63.048,27.841,64.175,26.433,64.738,24.743z"/>
	<path display="inline" d="M51.66,23.053c0.563-1.69,0.281-3.38,0.281-5.07c0-1.126-0.281-1.972-0.562-3.098   c-0.027-0.109-0.102-0.224-0.148-0.326c-0.051-0.108-0.102-0.216-0.156-0.322c-0.107-0.213-0.224-0.422-0.354-0.623   c-0.268-0.41-0.592-0.78-0.953-1.111c-0.363-0.333-0.763-0.638-1.196-0.875c-0.416-0.226-0.878-0.381-1.353-0.401   c-0.379-0.016-0.762,0.034-1.132,0.113c-0.365,0.078-0.755,0.151-1.049,0.399c-0.072,0.061-0.138,0.135-0.188,0.215   c-0.109,0.176-0.079,0.345-0.019,0.533c0.038,0.117,0.052,0.24,0.083,0.359c0.038,0.148,0.077,0.295,0.116,0.442   c0.08,0.298,0.161,0.597,0.244,0.895c0.168,0.604,0.341,1.207,0.501,1.813c0.156,0.59,0.304,1.185,0.409,1.787   c0.104,0.591,0.158,1.193,0.101,1.793c-0.061,0.635-0.248,1.244-0.459,1.844c-0.026,0.073-0.047,0.152-0.079,0.223   c-1.408,3.099-3.38,5.633-4.225,9.013c-0.845,3.38-0.845,7.323,1.409,10.14c1.126,1.127,3.098,2.253,4.788,1.127   c0.282-0.282,0.563-0.563,0.563-0.845c0-0.564,0-0.845-0.281-1.409c-1.127-2.535-1.409-5.352-0.563-7.887   C48.843,28.687,50.815,26.151,51.66,23.053z"/>
</g>
</svg>