<svg xmlns="http://www.w3.org/2000/svg" xmlns:xlink="http://www.w3.org/1999/xlink" version="1.1" x="0px" y="0px" width="100px" height="100px" viewBox="0 0 100 100" enable-background="new 0 0 100 100" xml:space="preserve">
<g id="Layer_7">
	<g>
		<circle cx="14.681" cy="63.599" r="2.586"/>
		<path d="M96.024,60.472c0.089-1.027-1.209-11.416-16.612-17.352c0.029-0.148,0.046-0.301,0.046-0.458    c0-1.229-0.966-2.227-2.159-2.227h-1.907l-1.127-2.231c1.432-0.015,2.784-0.052,3.605-0.129c2.2-0.209,4.598-3.965,6.141-5.944    c0.464-0.594-0.438-0.468-0.438-0.468l-16.479,1.465c0,0-0.812,0.415-0.562,2.022c0.25,1.607,1.819,3.025,1.819,3.025    s1.089,0.02,2.557,0.03l0.285,2.229H54.984l-0.778-1.542c1.755-0.007,3.536-0.041,4.533-0.136c2.2-0.208,4.598-3.965,6.141-5.943    c0.463-0.594-0.438-0.468-0.438-0.468l-16.48,1.465c0,0-0.812,0.415-0.562,2.022s1.82,3.026,1.82,3.026s0.41,0.007,1.062,0.016    l-0.164,1.641c-0.696,0.197-1.249,0.742-1.476,1.443c-5.543,2.313-1.439,6.993,1.138,12.697c-0.178,1.925-1.053,2.889-2.662,3.103    c-0.945,0.126-1.197,0.604-1.244,0.996h-9.67c-2.734,0-4.814-1.112-6.362-3.397c-2.754-4.073-3.001-10.81-1.503-14.547    c0.659-1.644,1.528-3.852,2.326-5.916c0.96-2.481-0.189-5.235-0.999-6.561c-0.014,0.04-14.209,19.638-2.051,30.95    c0.202,0.188,0.917,0.652,0.729,0.854c-0.099,0.105-1.092-0.579-1.189-0.669c-12.789-11.9,1.312-31.376,1.451-31.578    c0.104-0.149,0.273-0.217,0.442-0.207c-0.009-0.013-0.022-0.031-0.03-0.042c1.475-0.178,2.754-0.337,3.233-0.397    c0.063,0.008,0.128,0.014,0.193,0.014h3.208c0.848,0,1.534-0.687,1.534-1.533s-0.687-1.533-1.534-1.533h-2.141l-5.083-3.324    c-1.918-1.177-5.401-0.681-7.149-0.492c-1.151,0.124-1.229,1.456-1.229,1.456c0.008,0.146-0.006,0.351,0.002,0.6    c0.065,1.998,0.475,5.883,2.682,5.883c0.376,0,1.791-0.148,3.429-0.335c-0.956,2.341-5.21,13.032-6.288,14.209    c-1.234,1.349-3.438,1.312-4.514,5.832c-0.002,0.011-0.003,0.022-0.004,0.034c-6.315,0.088-11.44,3.113-12.035,5.031    c-0.303,0.977,1.689,1.613,4.064,2.118C5.039,57.245,3.55,60.25,3.55,63.599c0,6.138,4.994,11.131,11.131,11.131    c5.93,0,10.792-4.662,11.113-10.514h5.933c0.26,0.93,1.089,1.609,2.073,1.609h35.396c1.035,5.074,5.532,8.904,10.907,8.904    c6.138,0,11.131-4.993,11.131-11.131c0-0.254-0.012-0.504-0.029-0.755l0.779-0.015h1.887c0.185,0,0.363-0.026,0.535-0.071    c0.466-0.079,1.318-0.363,1.498-1.388c0.003-0.016,0.006-0.032,0.008-0.049c0.076-0.225,0.118-0.467,0.118-0.719    C96.031,60.558,96.026,60.515,96.024,60.472z M14.681,70.862c-4.005,0-7.264-3.258-7.264-7.264c0-3.603,2.636-6.599,6.081-7.166    c0.081,0.024,0.157,0.05,0.229,0.074c2.345,0.823,5.127,7.709,6.883,7.709h1.307C21.602,67.933,18.478,70.862,14.681,70.862z     M72.289,44.988c-6.73-1.615-24.872-3.988-19.712,8.587c0.106,0.259-0.06,0.548-0.337,0.636c-0.062,0.019-0.125,0.027-0.187,0.024    c-0.214-0.008-0.416-0.14-0.482-0.347c-1.91-5.972-2.231-8.014,1.346-9.889c8.041-4.214,28.97,0.132,37.331,9.721    c0.189,0.215,0.388,0.457,0.142,0.604c-0.112,0.067-0.147,0.139-0.332-0.074C86.369,50.023,79.498,46.718,72.289,44.988z     M80.104,70.862c-3.229,0-5.972-2.118-6.914-5.037h1.265c1.192,0,2.159-0.997,2.159-2.227c0-0.163-0.019-0.322-0.052-0.477    l0.832-0.016c-0.031,0.159-0.05,0.323-0.05,0.492c0,1.43,1.158,2.587,2.587,2.587c1.428,0,2.586-1.157,2.586-2.587    c0-0.203-0.029-0.398-0.073-0.588l4.891-0.093c0.021,0.224,0.033,0.451,0.033,0.681C87.368,67.604,84.109,70.862,80.104,70.862z     M86.293,58.41c-0.562-0.051-0.998-0.544-0.972-1.09c0.009-0.192,0.074-0.367,0.18-0.507c0.193-0.267,0.525-0.426,0.894-0.391    c1.019,0.096,5.92,0.595,5.947,1.148C92.366,58.122,87.376,58.512,86.293,58.41z"/>
	</g>
</g>
<g id="Layer_8">
</g>
<g id="Layer_9">
</g>
</svg>