<svg xmlns="http://www.w3.org/2000/svg" xmlns:xlink="http://www.w3.org/1999/xlink" version="1.1" id="Layer_1" x="0px" y="0px" width="100px" height="100px" viewBox="0 0 100 100" enable-background="new 0 0 100 100" xml:space="preserve">
<g>
	<path d="M2.845,98.008c0.358,0.182,0.457-0.624,1.088-1.068c0.631-0.444,3.254-2.126,4.514-2.471   c1.26-0.348,1.443-0.525,1.805-1.062c0.366-0.537,0.929-3.048,0.929-3.048s0.17,1.265,0.39,1.848   c0.215,0.586,0.934,0.593,1.833,0.601c0.899,0.009,4.676-0.674,4.676-0.674s0.625,0.274,1.161,0.818   c0.536,0.546,0.884,1.627,1.604,1.454c0.718-0.175,0.288-1.884,0.288-1.884s-0.591-4.045-1.824-6.574   c-1.232-2.526-3.692-3.764-4.125-5.294c-0.433-1.532,5.547-11.939,6.187-13.282c0.646-1.341,3.843-6.97,6.565-9.816   c2.721-2.85,12.032-9.136,16.992-11.335c4.963-2.2,14.014-9.119,15.373-10.631c1.36-1.514,2.675-2.446,3.494-3.605   c0.165-0.233,0.312-0.531,0.444-0.854l-0.593,2.245c0,0-1.003,1.697-2.004,2.854c-0.996,1.158-2.357,2.312-2.542,2.851   c-0.185,0.537-0.095,0.628,0.532,0.725c0.628,0.095,4.042-0.053,5.668-0.756c1.625-0.702,3.89-3.105,5.529-5.426   c1.638-2.32,3.142-8.952,3.24-9.759c0.008-0.102,0.016-0.222,0.019-0.353l0.024,0.308c0,0,5.105-3.23,6.285-4.207   c1.173-0.976,2.576-2.085,3.302-2.618c0.726-0.532,4.024-2.971,4.66-3.593c0.634-0.623,9.479-5.028,9.479-5.028   s0.542-0.176,1.002-1.159c0.459-0.983-0.163-1.798-0.875-2.343c-0.714-0.546-1.972-0.74-3.319-0.48   c-1.353,0.256-3.33,0.596-4.763,0.043c-1.434-0.554-6.076-3.471-8.409-3.496c0,0-4.883,0.146-6.243,0.532   c-0.848,0.24-1.413,0.875-1.413,0.875L72.883,1.94c0,0-8.586,1.257-11.288,1.95c-2.702,0.694-9.822,3.23-9.822,3.23   s-10.017,4.846-11.193,5.641c-1.177,0.799-6.235,3.803-6.235,3.803s-2.792,0.962-4.232,1.128c-1.441,0.166-8.093,0.819-9.625,1.256   c-1.531,0.434-4.144,1.397-5.23,2.286c-1.087,0.887-4.07,2.746-3.899,3.823c0.168,1.081,0.167,1.26,1.421,1.451   c1.257,0.19,6.938,0.906,6.938,0.906s0.781,0.066,1.399,1.062c0.618,0.993-0.377,1.97-0.478,2.959   c-0.099,0.985-9.307,15.182-10.415,18.225c0,0-2.554,5.016-3.556,10.706c-1.002,5.689-0.444,13.147-0.03,16.658   c0.414,3.507,1.035,4.5,1.208,5.399c0.171,0.9-3.088,3.387-3.825,5.353c-0.739,1.97-1.525,9.148-1.525,9.148   S2.485,97.823,2.845,98.008z M77.161,10.853c-0.317-0.325-0.187-1.053,0.188-1.421c0.376-0.368,1.926-0.344,2.246-0.018   c0.321,0.327-0.312,1.235-0.688,1.604C78.533,11.385,77.48,11.179,77.161,10.853z"/>
</g>
</svg>