<svg xmlns="http://www.w3.org/2000/svg" xmlns:xlink="http://www.w3.org/1999/xlink" version="1.1" id="Layer_1" x="0px" y="0px" width="100px" height="100px" viewBox="0 0 100 100" enable-background="new 0 0 100 100" xml:space="preserve">
<g>
	<g>
		<path d="M94.445,13.185c0.007-0.2-79.815,20.211-52.331,60.886l2.481-2.875l0.038-0.079l5.274-29.741l-2.689,26.78l8.461-9.795    l4.155-23.435l-2.116,21.074l9.406-10.889L69.396,32.3l-1.157,11.521L87.147,21.93L69.312,44.583l11.424-3.428l-12.509,4.807    h-0.001l-8.871,11.266l20.62-6.186l-22.568,8.673l-0.004-0.009l-7.985,10.142l26.115-7.834L47.337,72.848l-0.179-0.136    l-2.662,3.381C90.14,95.858,94.642,13.14,94.445,13.185z"/>
		<path d="M43.097,75.435c-0.06-0.027-0.191-0.223-0.191-0.223c-0.275-0.382-0.537-0.763-0.792-1.141L33.586,84.2l2.614,2.156    l8.296-10.264c-0.378-0.164-0.76-0.334-1.143-0.512C43.354,75.581,43.136,75.488,43.097,75.435z"/>
	</g>
	<g>
		<path d="M12.03,26.37C11.914,26.31,1.468,78.645,32.922,73.99l-0.983-2.254l-0.036-0.044L16.013,60.279l14.887,9.073l-3.351-7.685    l-12.521-8.993l11.713,7.141l-3.723-8.544l-6.846-4.917l6.403,3.903l-7.485-17.177l8.23,16.764l1.2-7.632l-0.698,8.652h-0.001    l4.094,8.337l2.166-13.794L28.824,61h-0.006l3.685,7.521l2.742-17.436l-1.573,19.506l-0.129,0.069l1.228,2.503    C59.104,52.048,12.058,26.243,12.03,26.37z"/>
		<path d="M33.995,73.798c-0.033,0.028-0.184,0.05-0.184,0.05c-0.3,0.054-0.595,0.101-0.889,0.143l3.526,7.817l1.993-0.922    l-3.67-7.722c-0.202,0.176-0.408,0.352-0.619,0.525C34.152,73.689,34.037,73.791,33.995,73.798z"/>
	</g>
</g>
</svg>