<svg xmlns="http://www.w3.org/2000/svg" xmlns:xlink="http://www.w3.org/1999/xlink" version="1.1" id="Layer_1" x="0px" y="0px" width="100px" height="100px" viewBox="0 0 100 100" enable-background="new 0 0 100 100" xml:space="preserve">
<path fill="#000000" d="M22.562,58.482c0-2-1.289-3.682-3.076-4.307c-0.233-2.288-0.445-4.688-0.622-7.166l46.646,16.055L96.722,33  l-51.54-13.743L3.951,41.876l12.396,4.266c0.073,1.705,0.168,4.572,0.17,8.02c-1.808,0.613-3.117,2.306-3.117,4.32  c0,1.938,1.207,3.585,2.906,4.255c-0.227,4.321-0.668,8.788-1.475,12.639c5.154,0.287,7.731,0,7.731,0s-1.058-5.188-2.112-13.045  C21.717,61.517,22.562,60.102,22.562,58.482z"/>
<path fill="#000000" d="M73.242,59.056l-7.521,7.079L32.297,53.901c0,0-2.864,2.862-3.15,7.444c-0.286,4.582,0,10.881,0,10.881  s7.731-2.005,12.026,0S59.211,82.82,60.357,85.397c3.723-3.148,14.316-13.743,14.316-13.743s2.303-7.708,0-11.453  C73.242,59.056,73.242,59.056,73.242,59.056z"/>
</svg>