<svg xmlns:x="http://ns.adobe.com/Extensibility/1.0/" xmlns:i="http://ns.adobe.com/AdobeIllustrator/10.0/" xmlns:graph="http://ns.adobe.com/Graphs/1.0/" xmlns="http://www.w3.org/2000/svg" xmlns:xlink="http://www.w3.org/1999/xlink" xmlns:a="http://ns.adobe.com/AdobeSVGViewerExtensions/3.0/" version="1.0" id="Layer_1" x="0px" y="0px" width="100px" height="100px" viewBox="0 0 100 100" enable-background="new 0 0 100 100" xml:space="preserve">
<g>
	<path d="M45.548,7.862c1.26,0.118,2.382,0.22,3.634,0.345c0.355,0.182,0.63,0.382,0.979,0.669c0.293-0.287,0.568-0.487,0.979-0.669   c1.2-0.124,2.324-0.227,3.645-0.345c-1.32-0.125-2.436-0.227-3.615-0.344C50.765,7.3,50.476,7.072,50.16,6.771   c-0.369,0.301-0.658,0.528-1.007,0.747C47.92,7.636,46.808,7.737,45.548,7.862L45.548,7.862z M50.146,54.556h-0.896l-0.037-0.047   c-0.312,5.033-0.716,11.941-0.864,16.252c-0.115,3.419-0.373,8.172-0.385,12.612c0.162,0.223,0.261,0.494,0.271,0.789l0.098,2.787   c0.012,0.333-0.091,0.643-0.272,0.893c0.019,0.37,0.042,0.734,0.067,1.086c0.023,1.096,0.539,1.669,0.539,3.731   c-0.055,1.616-0.746,3.985-0.944,4.598c-0.928,2.868-2.419,2.117-5.455,2.032c-3.035-0.083-1.848-2.722-1.933-4.578   c-0.085-1.854,1.251-3.492,1.673-5.011c0.099-0.355,0.165-0.842,0.195-1.538c-0.26-0.25-0.427-0.596-0.439-0.983l-0.097-2.788   c-0.014-0.393,0.133-0.754,0.38-1.022c-0.182-2.642-0.515-6.304-1.037-11.426c-1.134-11.106-1.16-25.888-1.153-28.845   c-0.072-0.081-0.123-0.14-0.154-0.169c-0.567-0.575,0.312-1.556,0.622-2.383c0.31-0.828,0.884-0.574,0.884-0.574   s-0.216-0.44-0.31-0.938c-0.333-1.751-0.412-3.114-0.523-4.101c-0.205-1.822-0.576-4.118-0.98-6.375l-1.014,16.446   c0.183,0.074,0.308,0.274,0.299,0.506l-0.165,4.279c-0.01,0.253-0.214,0.454-0.455,0.45c-0.085,1.59-0.117,3.155-0.002,3.761   c0.116,0.605,0.81,3.369,0.81,3.369c0.006,0.029,0.009,0.059,0.009,0.091c0,0.229-0.178,0.414-0.396,0.414   c-0.109,0-0.208-0.047-0.279-0.122l-1.625-2.065c0,0-0.184,1.349,0.414,3.621c0.139,0.528,0.528,1.08,0.528,1.269   c0,0.408-0.33,0.738-0.735,0.738c-0.265,0-0.497-0.14-0.627-0.35c-3.184-3.37-2.036-10.295-2.036-10.295l0.001-0.513   c-0.193-0.051-0.343-0.235-0.351-0.451l-0.147-4.285c-0.01-0.276,0.172-0.501,0.413-0.521c-0.099-3.15-0.25-5.92-0.283-9.845   c-0.052-6.075,0.729-11.157,0.884-12.713c0.155-1.556,0.466-1.814,0.781-1.971c0.297-0.145,4.767-1.328,5.995-1.604   c4.747-1.069,4.84-2.831,4.84-2.831l0.018-1.274c-0.672-0.12-1.173-0.39-1.339-0.946c-0.127-0.257-0.286-2.102-0.414-3.853h-0.408   V9.295H43.5l-0.002-0.526h-0.402V6.763h0.402L43.5,6.237h0.608V5.67h0.226c0.295-4.153,2.562-5.448,5.57-5.448h0.242h0.243   c3.008,0,5.274,1.295,5.568,5.448h0.228v0.567h0.607l0.004,0.525h0.4v2.006h-0.4l-0.004,0.526h-0.607v0.568h-0.409   c-0.126,1.751-0.287,3.596-0.414,3.853c-0.165,0.557-0.667,0.826-1.339,0.946l0.019,1.274c0,0,0.093,1.762,4.841,2.831   c1.227,0.276,5.698,1.46,5.993,1.604c0.316,0.156,0.627,0.415,0.781,1.971c0.155,1.556,0.936,6.638,0.885,12.713   c-0.034,3.925-0.186,6.694-0.283,9.845c0.24,0.021,0.422,0.245,0.414,0.521l-0.147,4.285c-0.008,0.216-0.157,0.4-0.351,0.451v0.513   c0,0,1.147,6.925-2.036,10.295c-0.132,0.21-0.362,0.35-0.628,0.35c-0.406,0-0.735-0.33-0.735-0.738c0-0.188,0.391-0.74,0.528-1.269   c0.598-2.272,0.415-3.621,0.415-3.621l-1.627,2.065c-0.068,0.075-0.168,0.122-0.276,0.122c-0.222,0-0.398-0.186-0.398-0.414   c0-0.032,0.004-0.062,0.011-0.091c0,0,0.693-2.764,0.809-3.369s0.084-2.171-0.002-3.761c-0.242,0.004-0.447-0.197-0.455-0.45   l-0.165-4.279c-0.011-0.231,0.116-0.432,0.299-0.506l-1.015-16.446c-0.404,2.257-0.775,4.553-0.98,6.375   c-0.111,0.986-0.191,2.35-0.521,4.101c-0.096,0.497-0.311,0.938-0.311,0.938s0.574-0.254,0.883,0.574   c0.311,0.827,1.189,1.808,0.621,2.383c-0.029,0.029-0.082,0.088-0.152,0.169c0.006,2.957-0.021,17.738-1.154,28.845   c-0.521,5.122-0.855,8.784-1.036,11.426c0.247,0.269,0.393,0.63,0.38,1.022l-0.098,2.788c-0.014,0.388-0.181,0.733-0.438,0.983   c0.027,0.696,0.096,1.183,0.195,1.538c0.42,1.519,1.758,3.156,1.672,5.011c-0.084,1.856,1.104,4.495-1.934,4.578   c-3.036,0.085-4.526,0.836-5.454-2.032c-0.198-0.612-0.89-2.981-0.945-4.598c0-2.062,0.517-2.636,0.541-3.731   c0.025-0.352,0.047-0.716,0.065-1.086c-0.181-0.25-0.283-0.56-0.271-0.893l0.098-2.787c0.009-0.295,0.107-0.566,0.268-0.789   c-0.012-4.44-0.267-9.193-0.384-12.612c-0.147-4.311-0.551-11.219-0.863-16.252l-0.039,0.047H50.146L50.146,54.556z"/>
</g>
</svg>