<svg xmlns:dc="http://purl.org/dc/elements/1.1/" xmlns:cc="http://creativecommons.org/ns#" xmlns:rdf="http://www.w3.org/1999/02/22-rdf-syntax-ns#" xmlns:svg="http://www.w3.org/2000/svg" xmlns="http://www.w3.org/2000/svg" xmlns:sodipodi="http://sodipodi.sourceforge.net/DTD/sodipodi-0.dtd" xmlns:inkscape="http://www.inkscape.org/namespaces/inkscape" xml:space="preserve" width="100" height="100" style="fill-rule:evenodd" viewBox="0 0 51.749733 51.749733" id="svg2876" version="1.1" inkscape:version="0.48.2 r9819" sodipodi:docname="tuning_fork2.svg"><metadata id="metadata2890"><rdf:RDF><cc:Work rdf:about=""><dc:format>image/svg+xml</dc:format><dc:type rdf:resource="http://purl.org/dc/dcmitype/StillImage"/><dc:title/></cc:Work></rdf:RDF></metadata><sodipodi:namedview pagecolor="#ffffff" bordercolor="#666666" borderopacity="1" objecttolerance="10" gridtolerance="10" guidetolerance="10" inkscape:pageopacity="0" inkscape:pageshadow="2" inkscape:window-width="1280" inkscape:window-height="738" id="namedview2888" showgrid="false" inkscape:zoom="2.6641777" inkscape:cx="49.296839" inkscape:cy="44.29134" inkscape:window-x="-8" inkscape:window-y="-8" inkscape:window-maximized="1" inkscape:current-layer="g3015"/>
 <defs id="defs2878"><inkscape:perspective sodipodi:type="inkscape:persp3d" inkscape:vp_x="0 : 44.29134 : 1" inkscape:vp_y="0 : 1000 : 0" inkscape:vp_z="88.58268 : 44.29134 : 1" inkscape:persp3d-origin="44.29134 : 29.52756 : 1" id="perspective2892"/>
  <style type="text/css" id="style2880">
   
    .fil1 {fill:black}
    .fil0 {fill:white}
   
  </style>
 
  
  
  
 
 <style id="style3672" type="text/css">
   
    .fil0 {fill:#0A0B0C}
   
  </style>
  <inkscape:perspective id="perspective3682" inkscape:persp3d-origin="45 : 33.333333 : 1" inkscape:vp_z="90 : 50 : 1" inkscape:vp_y="0 : 1000 : 0" inkscape:vp_x="0 : 50 : 1" sodipodi:type="inkscape:persp3d"/>
  
  
 
 <style id="style3731" type="text/css">
   
    .fil1 {fill:black}
    .fil0 {fill:white}
   
  </style>
  <inkscape:perspective id="perspective3743" inkscape:persp3d-origin="44.29134 : 29.52756 : 1" inkscape:vp_z="88.58268 : 44.29134 : 1" inkscape:vp_y="0 : 1000 : 0" inkscape:vp_x="0 : 44.29134 : 1" sodipodi:type="inkscape:persp3d"/>
  
  
  
 
 <style id="style3757" type="text/css">
   
    .fil1 {fill:black}
    .fil0 {fill:white}
   
  </style>
  <inkscape:perspective id="perspective3769" inkscape:persp3d-origin="44.29134 : 29.52756 : 1" inkscape:vp_z="88.58268 : 44.29134 : 1" inkscape:vp_y="0 : 1000 : 0" inkscape:vp_x="0 : 44.29134 : 1" sodipodi:type="inkscape:persp3d"/>
  
  
  
 
 <style id="style3002" type="text/css">
   
    .fil0 {fill:white}
    .fil1 {fill:black}
   
  </style>
  
  
  
  
 </defs>
 
<g style="fill-rule:evenodd" id="g3015" transform="matrix(1.0293389,0,0,1.0293389,-61.574911,3.3832216)"><path style="fill:#000000" inkscape:connector-curvature="0" class="fil1" d="M 67.609888,8.0579172 91.356291,31.804321 c 7.109856,7.109855 8.531827,9.442806 8.531827,11.375926 1.421972,-1.422174 4.265912,-4.266116 5.688082,-5.688087 -2.49563,0 -4.2663,-1.422174 -11.375921,-8.531826 l -1.421971,-1.421971 c -0.785292,0.78509 -2.058857,0.78509 -2.843943,0 -0.785291,-0.785292 -0.785291,-2.058857 0,-2.843942 L 89.22328,23.983335 c -0.785091,0.785291 -2.058654,0.785291 -2.843943,0 -0.785291,-0.785292 -0.785291,-2.058653 0,-2.843942 l -0.710885,-0.711086 c -0.785291,0.785291 -2.058856,0.785291 -2.844145,0 -0.78509,-0.785091 -0.78509,-2.058653 0,-2.843942 l -0.710885,-0.710886 c -0.785291,0.785091 -2.058856,0.785091 -2.843942,0 -0.785291,-0.785291 -0.785291,-2.058856 0,-2.843942 L 73.581596,8.3414501 72.87051,9.0525361 70.737452,6.9194779 71.448538,6.2085929 65.760654,0.52070871 64.338683,1.9426797 c 2.166236,2.1662362 3.416062,4.6033606 3.271271,6.1152138 z" id="path3008"/></g></svg>