<svg xmlns:dc="http://purl.org/dc/elements/1.1/" xmlns:cc="http://creativecommons.org/ns#" xmlns:rdf="http://www.w3.org/1999/02/22-rdf-syntax-ns#" xmlns:svg="http://www.w3.org/2000/svg" xmlns="http://www.w3.org/2000/svg" xmlns:sodipodi="http://sodipodi.sourceforge.net/DTD/sodipodi-0.dtd" xmlns:inkscape="http://www.inkscape.org/namespaces/inkscape" xml:space="preserve" width="100" height="100" style="fill-rule:evenodd" viewBox="0 0 51.749733 51.749733" id="svg2876" version="1.1" inkscape:version="0.48.2 r9819" sodipodi:docname="steamboat.svg"><metadata id="metadata2890"><rdf:RDF><cc:Work rdf:about=""><dc:format>image/svg+xml</dc:format><dc:type rdf:resource="http://purl.org/dc/dcmitype/StillImage"/><dc:title/></cc:Work></rdf:RDF></metadata><sodipodi:namedview pagecolor="#ffffff" bordercolor="#666666" borderopacity="1" objecttolerance="10" gridtolerance="10" guidetolerance="10" inkscape:pageopacity="0" inkscape:pageshadow="2" inkscape:window-width="1280" inkscape:window-height="738" id="namedview2888" showgrid="false" inkscape:zoom="2.6641777" inkscape:cx="61.286872" inkscape:cy="46.023245" inkscape:window-x="-8" inkscape:window-y="-8" inkscape:window-maximized="1" inkscape:current-layer="g3015"/>
 <defs id="defs2878"><inkscape:perspective sodipodi:type="inkscape:persp3d" inkscape:vp_x="0 : 44.29134 : 1" inkscape:vp_y="0 : 1000 : 0" inkscape:vp_z="88.58268 : 44.29134 : 1" inkscape:persp3d-origin="44.29134 : 29.52756 : 1" id="perspective2892"/>
  <style type="text/css" id="style2880">
   
    .fil1 {fill:black}
    .fil0 {fill:white}
   
  </style>
 
  
  
  
 
 <style id="style3672" type="text/css">
   
    .fil0 {fill:#0A0B0C}
   
  </style>
  <inkscape:perspective id="perspective3682" inkscape:persp3d-origin="45 : 33.333333 : 1" inkscape:vp_z="90 : 50 : 1" inkscape:vp_y="0 : 1000 : 0" inkscape:vp_x="0 : 50 : 1" sodipodi:type="inkscape:persp3d"/>
  
  
 
 <style id="style3731" type="text/css">
   
    .fil1 {fill:black}
    .fil0 {fill:white}
   
  </style>
  <inkscape:perspective id="perspective3743" inkscape:persp3d-origin="44.29134 : 29.52756 : 1" inkscape:vp_z="88.58268 : 44.29134 : 1" inkscape:vp_y="0 : 1000 : 0" inkscape:vp_x="0 : 44.29134 : 1" sodipodi:type="inkscape:persp3d"/>
  
  
  
 
 <style id="style3757" type="text/css">
   
    .fil1 {fill:black}
    .fil0 {fill:white}
   
  </style>
  <inkscape:perspective id="perspective3769" inkscape:persp3d-origin="44.29134 : 29.52756 : 1" inkscape:vp_z="88.58268 : 44.29134 : 1" inkscape:vp_y="0 : 1000 : 0" inkscape:vp_x="0 : 44.29134 : 1" sodipodi:type="inkscape:persp3d"/>
  
  
  
 
 <style id="style3002" type="text/css">
   
    .fil0 {fill:white}
    .fil1 {fill:black}
   
  </style>
  
  
  
  
 
 <style id="style3027" type="text/css">
   
    .fil1 {fill:black}
    .fil0 {fill:white}
   
  </style>
  
  
  
  
 
 <style id="style3076" type="text/css">
   
    .fil1 {fill:black}
    .fil0 {fill:white}
   
  </style>
  
  
  
  
 
 <style id="style3133" type="text/css">
   
    .fil1 {fill:black}
    .fil0 {fill:white}
   
  </style>
  
  
  
  
 
 <style id="style3182" type="text/css">
   
    .fil1 {fill:black}
    .fil0 {fill:white}
   
  </style>
  
  
  
  
 </defs>
 
<g style="fill-rule:evenodd" id="g3015" transform="matrix(1.0293389,0,0,1.0293389,-61.574911,3.3832216)"><path style="fill:#000000;fill-rule:evenodd" d="m 97.903047,28.348957 4.745903,-0.006 c 0.78617,-0.428645 0.57439,-1.458759 0.57196,-2.197154 -0.16864,-2.197155 -0.16181,-4.40335 -0.33265,-6.598079 -0.26551,-3.558168 -0.0852,-6.034485 -0.4467,-9.353557 0.99136,-0.6177582 1.91668,-1.5133514 2.13551,-2.7101173 -0.29633,-1.3354456 -1.59766,-2.0555798 -2.75548,-2.550269 C 98.785864,3.7031086 95.471851,3.4045805 92.228732,3.3224564 l -0.0061,0 -0.0061,0 c -3.243398,0.082097 -6.557199,0.3806288 -9.593148,1.6113033 -1.157801,0.4946904 -2.459146,1.2148234 -2.755477,2.5502876 0.0061,0.033246 0.01278,0.066047 0.02003,0.098633 1.65426,-0.2375486 3.332939,-0.3377195 5.009219,-0.3802103 l 0.0383,-8.812e-4 0.0218,0 0.02179,0 0.03832,8.812e-4 c 3.518752,0.088943 7.048525,0.4326064 10.340078,1.7669761 l 0.01827,0.00734 0.01806,0.00788 c 1.853277,0.7914624 3.53615,1.9604959 3.99936,4.0491119 l 0.0934,0.420939 -0.0775,0.424242 c -0.24701,1.35088 -1.00391,2.456937 -2.001222,3.324583 0.204084,2.73126 0.137156,5.458331 0.341023,8.193554 0.07661,0.982777 0.117338,1.967315 0.154329,2.951855 z" id="path3217"/><path style="fill:#000000;fill-rule:evenodd" d="m 77.691767,40.37869 10.42638,-0.0132 c 0.786398,-0.428425 0.574387,-1.458759 0.572186,-2.197154 -0.16864,-2.196939 -0.161814,-4.40335 -0.332657,-6.598079 -0.265507,-3.557941 -0.08543,-6.034485 -0.446916,-9.353557 0.991583,-0.617759 1.916899,-1.513351 2.135729,-2.709901 -0.296329,-1.335464 -1.597672,-2.055815 -2.755478,-2.550288 -3.035948,-1.230888 -6.34975,-1.529428 -9.593085,-1.61154 l -0.0061,2.2e-4 -0.0061,-2.2e-4 c -3.243119,0.08213 -6.557137,0.380649 -9.59287,1.61154 -1.157801,0.494471 -2.459147,1.214824 -2.755478,2.550288 0.218836,1.196549 1.144152,2.092146 2.135514,2.709901 -0.361498,3.319072 -0.181189,5.795616 -0.446698,9.353557 -0.17084,2.194741 -0.164016,4.40114 -0.332656,6.598079 -0.0024,0.738404 -0.214211,1.76874 0.571967,2.197154 l 10.42638,0.0132 z" id="path3215"/><path style="fill:#000000;fill-rule:evenodd" d="m 90.63783,34.360282 4.74569,-0.0061 c 0.786398,-0.428424 0.574388,-1.458531 0.572186,-2.196938 -0.16864,-2.197155 -0.161815,-4.40335 -0.332877,-6.598079 -0.265288,-3.558168 -0.08519,-6.034485 -0.446696,-9.353773 0.991362,-0.617538 1.916899,-1.513351 2.135512,-2.709901 C 97.015316,12.159996 95.713973,11.439645 94.556168,10.945172 91.520435,9.7145002 88.206647,9.4157439 84.963299,9.3338478 l -0.0061,0 -0.0061,0 c -3.243335,0.081899 -6.557137,0.3806502 -9.592869,1.6113242 -1.157801,0.494471 -2.459147,1.214824 -2.755478,2.550288 0.0059,0.03302 0.01276,0.06583 0.01981,0.09863 1.654259,-0.237549 3.33294,-0.337939 5.009219,-0.38021 l 0.03832,-0.0011 0.0218,2.21e-4 0.02202,-2.21e-4 0.03809,0.0011 c 3.51898,0.08894 7.048741,0.432387 10.340078,1.766759 l 0.01827,0.0074 0.01827,0.0077 c 1.853278,0.791681 3.535932,1.960711 3.999357,4.049112 l 0.09335,0.421157 -0.07749,0.424021 c -0.247016,1.350881 -1.004133,2.456938 -2.001437,3.3248 0.204084,2.731032 0.137377,5.458115 0.341241,8.193337 0.07639,0.982998 0.11734,1.967316 0.15433,2.952072 z" id="path3188"/></g></svg>