<svg xmlns:dc="http://purl.org/dc/elements/1.1/" xmlns:cc="http://creativecommons.org/ns#" xmlns:rdf="http://www.w3.org/1999/02/22-rdf-syntax-ns#" xmlns:svg="http://www.w3.org/2000/svg" xmlns="http://www.w3.org/2000/svg" xmlns:sodipodi="http://sodipodi.sourceforge.net/DTD/sodipodi-0.dtd" xmlns:inkscape="http://www.inkscape.org/namespaces/inkscape" xml:space="preserve" width="100" height="100" style="fill-rule:evenodd" viewBox="0 0 51.749733 51.749733" id="svg2876" version="1.1" inkscape:version="0.48.2 r9819" sodipodi:docname="slide_rule.svg"><metadata id="metadata2890"><rdf:RDF><cc:Work rdf:about=""><dc:format>image/svg+xml</dc:format><dc:type rdf:resource="http://purl.org/dc/dcmitype/StillImage"/><dc:title/></cc:Work></rdf:RDF></metadata><sodipodi:namedview pagecolor="#ffffff" bordercolor="#666666" borderopacity="1" objecttolerance="10" gridtolerance="10" guidetolerance="10" inkscape:pageopacity="0" inkscape:pageshadow="2" inkscape:window-width="1280" inkscape:window-height="738" id="namedview2888" showgrid="false" inkscape:zoom="2.6641777" inkscape:cx="61.286872" inkscape:cy="46.023245" inkscape:window-x="-8" inkscape:window-y="-8" inkscape:window-maximized="1" inkscape:current-layer="g3015"/>
 <defs id="defs2878"><inkscape:perspective sodipodi:type="inkscape:persp3d" inkscape:vp_x="0 : 44.29134 : 1" inkscape:vp_y="0 : 1000 : 0" inkscape:vp_z="88.58268 : 44.29134 : 1" inkscape:persp3d-origin="44.29134 : 29.52756 : 1" id="perspective2892"/>
  <style type="text/css" id="style2880">
   
    .fil1 {fill:black}
    .fil0 {fill:white}
   
  </style>
 
  
  
  
 
 <style id="style3672" type="text/css">
   
    .fil0 {fill:#0A0B0C}
   
  </style>
  <inkscape:perspective id="perspective3682" inkscape:persp3d-origin="45 : 33.333333 : 1" inkscape:vp_z="90 : 50 : 1" inkscape:vp_y="0 : 1000 : 0" inkscape:vp_x="0 : 50 : 1" sodipodi:type="inkscape:persp3d"/>
  
  
 
 <style id="style3731" type="text/css">
   
    .fil1 {fill:black}
    .fil0 {fill:white}
   
  </style>
  <inkscape:perspective id="perspective3743" inkscape:persp3d-origin="44.29134 : 29.52756 : 1" inkscape:vp_z="88.58268 : 44.29134 : 1" inkscape:vp_y="0 : 1000 : 0" inkscape:vp_x="0 : 44.29134 : 1" sodipodi:type="inkscape:persp3d"/>
  
  
  
 
 <style id="style3757" type="text/css">
   
    .fil1 {fill:black}
    .fil0 {fill:white}
   
  </style>
  <inkscape:perspective id="perspective3769" inkscape:persp3d-origin="44.29134 : 29.52756 : 1" inkscape:vp_z="88.58268 : 44.29134 : 1" inkscape:vp_y="0 : 1000 : 0" inkscape:vp_x="0 : 44.29134 : 1" sodipodi:type="inkscape:persp3d"/>
  
  
  
 
 <style id="style3002" type="text/css">
   
    .fil0 {fill:white}
    .fil1 {fill:black}
   
  </style>
  
  
  
  
 
 <style id="style3027" type="text/css">
   
    .fil1 {fill:black}
    .fil0 {fill:white}
   
  </style>
  
  
  
  
 
 <style id="style3076" type="text/css">
   
    .fil1 {fill:black}
    .fil0 {fill:white}
   
  </style>
  
  
  
  
 
 <style id="style3133" type="text/css">
   
    .fil1 {fill:black}
    .fil0 {fill:white}
   
  </style>
  
  
  
  
 </defs>
 
<g style="fill-rule:evenodd" id="g3015" transform="matrix(1.0293389,0,0,1.0293389,-61.574911,3.3832216)"><path style="fill:#000000;fill-rule:evenodd" d="m 105.82465,36.228974 c -0.90455,0 -1.78576,-0.209537 -2.56723,-0.56187 -0.79816,-0.375852 -1.7027,-0.592035 -2.64706,-0.592035 -0.937925,0 -1.842267,0.216177 -2.640428,0.592035 -0.791324,0.352526 -1.662684,0.56187 -2.57748,0.56187 -0.904342,0 -1.788974,-0.209537 -2.567026,-0.56187 -0.801581,-0.375852 -1.706122,-0.592035 -2.650683,-0.592035 -0.934504,0 -1.838846,0.216177 -2.640427,0.592035 -0.788305,0.352526 -1.662684,0.56187 -2.577282,0.56187 -0.914797,0 -1.785556,-0.209537 -2.567026,-0.56187 -0.80158,-0.375852 -1.706121,-0.592035 -2.647263,-0.592035 -0.944359,0 -1.849102,0.216177 -2.647061,0.592035 -0.781469,0.352526 -1.659065,0.56187 -2.573862,0.56187 -0.907961,0 -1.785557,-0.209537 -2.570443,-0.56187 -0.80158,-0.375852 -1.706121,-0.592035 -2.647263,-0.592035 -0.937722,0 -1.842064,0.216177 -2.643644,0.592035 -0.784889,0.352526 -1.656249,0.56187 -2.570645,0.56187 l 0,-3.857485 c 0.914396,0 1.785756,-0.206114 2.570645,-0.56187 0.80158,-0.36258 1.705919,-0.578561 2.643644,-0.578561 0.941142,0 1.845683,0.216381 2.647263,0.578561 0.784889,0.355946 1.662684,0.56187 2.570443,0.56187 0.914194,0 1.792595,-0.206114 2.573862,-0.56187 0.798161,-0.36258 1.702702,-0.578561 2.647061,-0.578561 0.941142,0 1.845683,0.216381 2.647263,0.578561 0.78147,0.355946 1.652832,0.56187 2.567026,0.56187 0.914195,0 1.788775,-0.206114 2.577282,-0.56187 0.801581,-0.36258 1.70592,-0.578561 2.640427,-0.578561 0.944561,0 1.849102,0.216381 2.650683,0.578561 0.778049,0.355946 1.662684,0.56187 2.567026,0.56187 0.914396,0 1.785556,-0.206114 2.57748,-0.56187 0.798161,-0.36258 1.702503,-0.578561 2.640428,-0.578561 0.94436,0 1.8491,0.216381 2.64706,0.578561 0.78147,0.355946 1.66268,0.56187 2.56723,0.56187 l 0,3.857485 z" id="path3174" inkscape:connector-curvature="0"/><path style="fill:#000000;fill-rule:evenodd" d="m 86.235011,12.499333 3.246954,0 0,-7.0384442 -1.623471,1.5619351 -1.623471,-1.5619351 0,7.0384442 z" id="path3172" inkscape:connector-curvature="0"/><path style="fill:#000000;fill-rule:evenodd" d="m 76.36339,19.603921 -1.382555,0.581302 0.392771,0.958362 c -1.851114,0.941745 -3.274097,2.418034 -4.163376,4.163376 l -0.958362,-0.392772 -0.581301,1.382555 0.958362,0.408483 c -0.268265,0.825509 -0.435529,1.683275 -0.471326,2.560869 0.508177,0.0535 1.017965,0.154121 1.508242,0.298506 0.0085,-0.780463 0.134307,-1.558367 0.361349,-2.293785 l 5.451666,2.262363 c 0.736625,-0.207723 1.495169,-0.314217 2.262363,-0.314217 0.753316,0 1.505777,0.113304 2.230941,0.314217 l 5.420244,-2.262363 c 0.235688,0.762166 0.355719,1.542908 0.36135,2.309496 0.490078,-0.148603 0.999462,-0.256698 1.508242,-0.314217 -0.03338,-0.858291 -0.194605,-1.710823 -0.471326,-2.560869 l 0.958362,-0.408483 -0.565591,-1.382555 -0.958362,0.392772 c -0.941945,-1.850913 -2.433538,-3.27392 -4.179086,-4.163376 l 0.408482,-0.958362 -1.398266,-0.581302 -0.392771,0.958362 c -1.86298,-0.605307 -3.932495,-0.642918 -5.907281,0 L 76.36339,19.603921 z m 3.377833,1.995279 c 0.797659,0.0036 1.589607,0.129385 2.340917,0.361349 l -2.372339,5.71875 -2.372338,-5.71875 c 0.793938,-0.245542 1.606101,-0.364994 2.40376,-0.361349 z m -3.786315,0.942651 2.356627,5.703039 -5.703039,-2.356628 c 0.734413,-1.390597 1.876367,-2.570962 3.346412,-3.346411 z m 7.509787,0 c 1.390398,0.734613 2.586679,1.876593 3.362122,3.346411 l -5.71875,2.356628 2.356628,-5.703039 z" id="path3170" inkscape:connector-curvature="0"/><path style="fill:#000000;fill-rule:evenodd" d="m 103.05877,29.589105 4.5221,-6.029346 -16.786908,0 1.586669,3.831128 -1.236959,0.512401 c 0.07038,0.461121 0.112622,0.925456 0.126693,1.390196 0.822695,0.110194 1.629102,0.342873 2.389454,0.68655 0.538342,0.246161 1.140633,0.38048 1.732665,0.38048 0.607518,0 1.198146,-0.135937 1.747747,-0.382691 1.087543,-0.494101 2.27503,-0.75774 3.470149,-0.75774 0.82994,0 1.65605,0.126693 2.44838,0.369016 z" id="path3162" inkscape:connector-curvature="0"/><path style="fill:#000000;fill-rule:evenodd" d="m 68.627845,23.559759 -6.294199,0 4.523099,6.030545 c 0.423312,-0.129706 0.856277,-0.226444 1.294473,-0.288577 0.01407,-0.467354 0.05671,-0.934103 0.127898,-1.397836 l -1.238767,-0.513004 1.587473,-3.831128 z" id="path3160" inkscape:connector-curvature="0"/><path style="fill:#000000;fill-rule:evenodd" d="m 97.525927,21.548773 -9.557827,0 c -0.434372,-0.442619 -0.904341,-0.850044 -1.405881,-1.218255 l 0.512802,-1.237962 -4.63151,-1.918885 0,-2.663352 15.08239,0 0,7.038445 z" id="path3139" inkscape:connector-curvature="0"/></g></svg>