<svg xmlns="http://www.w3.org/2000/svg" xmlns:xlink="http://www.w3.org/1999/xlink" version="1.1" id="Ebene_1" x="0px" y="0px" width="90px" height="90px" viewBox="0 0 90 90" enable-background="new 0 0 90 90" xml:space="preserve">
<path d="M73.845,51.579c-0.034-0.025-0.068-0.05-0.104-0.073L52.972,37.732c-0.013-0.009-0.075-0.053-0.089-0.062  c-1.706-1.152-3.622-1.902-5.633-2.225v-3.522c1.381-1.464,4-4.631,4-7.575c0-3.463-2.793-7.2-7.306-7.2  c-5.276,0-7.65,3.75-7.65,6.413c0,1.243,1.008,2.25,2.25,2.25s2.25-1.007,2.25-2.25c0-0.314,0.548-1.913,3.15-1.913  c1.914,0,2.806,1.611,2.806,2.7c0,1.103-1.711,3.491-3.307,5.028C43,29.8,42.75,30.387,42.75,31v4.446  c-2.012,0.324-3.936,1.079-5.667,2.249L16.26,51.506c-0.036,0.023-0.07,0.048-0.104,0.073c-8.679,6.492-9.328,9.234-9.328,12.677  c0,3.584,1.831,9.597,14.097,9.597h48.152c12.266,0,14.097-6.013,14.097-9.597C83.173,60.813,82.523,58.071,73.845,51.579z   M69.076,69.353H20.924c-9.597,0-9.597-3.836-9.597-5.097c0-1.768,0-3.438,7.473-9.035L39.635,41.4  c1.588-1.072,3.443-1.638,5.365-1.638c1.923,0,3.778,0.566,5.326,1.611c0.018,0.013,0.086,0.06,0.104,0.072L71.2,55.221  c7.473,5.597,7.473,7.268,7.473,9.035C78.673,65.517,78.673,69.353,69.076,69.353z"/>
</svg>