<svg xmlns="http://www.w3.org/2000/svg" xmlns:xlink="http://www.w3.org/1999/xlink" version="1.1" id="Ebene_1" x="0px" y="0px" width="90px" height="90px" viewBox="0 0 90 90" enable-background="new 0 0 90 90" xml:space="preserve">
<path d="M55.472,29.573c-0.332-0.397-0.823-0.626-1.341-0.626h-7.318V15.104c0-4.852-2.788-8.653-6.347-8.653  s-6.347,3.801-6.347,8.653c0,0.966,0.783,1.75,1.75,1.75s1.75-0.784,1.75-1.75c0-2.949,1.503-5.153,2.847-5.153  s2.847,2.204,2.847,5.153v13.842h-7.32c-0.518,0-1.009,0.229-1.341,0.626c-0.333,0.396-0.473,0.92-0.382,1.43l9.07,51.101  c0.147,0.836,0.874,1.444,1.723,1.444s1.575-0.608,1.723-1.444l9.068-51.101C55.944,30.493,55.805,29.969,55.472,29.573z   M45.063,71.783L38.08,32.447h13.963L45.063,71.783z"/>
</svg>