<svg xmlns="http://www.w3.org/2000/svg" xmlns:xlink="http://www.w3.org/1999/xlink" version="1.1" id="Ebene_1" x="0px" y="0px" width="90px" height="90px" viewBox="0 0 90 90" enable-background="new 0 0 90 90" xml:space="preserve">
<path d="M42.562,4.325v6.927h4.876V4.325H42.562z M44.999,8.825c-0.671,0-1.214-0.543-1.214-1.215c0-0.67,0.543-1.214,1.214-1.214  c0.67,0,1.216,0.543,1.216,1.214C46.215,8.282,45.669,8.825,44.999,8.825z"/>
<path d="M57.85,22.96c0-0.009,0-0.019-0.001-0.028c-0.338-3.289-2.208-6.112-4.831-7.374v-2.184H36.98v2.184  c-2.623,1.262-4.492,4.085-4.829,7.374c-0.001,0.009-0.001,0.019-0.001,0.028H57.85z"/>
<rect x="30.896" y="25.315" width="28.208" height="60.635"/>
</svg>