<svg xmlns="http://www.w3.org/2000/svg" xmlns:xlink="http://www.w3.org/1999/xlink" version="1.1" id="Ebene_1" x="0px" y="0px" width="90px" height="90px" viewBox="0 0 90 90" enable-background="new 0 0 90 90" xml:space="preserve">
<path d="M68.477,10.859V4.292c0-0.911-0.739-1.65-1.65-1.65s-1.65,0.739-1.65,1.65v6.567H68.477z"/>
<path d="M47.412,63.96l21.582-20.543c0.665-0.633,0.691-1.686,0.059-2.351c-0.168-0.176-0.365-0.304-0.576-0.39v-7.732h-3.301v7.417  H24.822v-7.417h-3.301v7.732c-0.211,0.086-0.408,0.214-0.575,0.39c-0.633,0.665-0.606,1.718,0.059,2.351L42.587,63.96L21.005,84.503  c-0.665,0.634-0.691,1.687-0.059,2.352c0.327,0.344,0.766,0.517,1.205,0.517c0.412,0,0.825-0.152,1.146-0.458L45,66.256  l21.701,20.657c0.321,0.306,0.734,0.458,1.146,0.458c0.439,0,0.878-0.173,1.205-0.517c0.633-0.665,0.606-1.718-0.059-2.352  L47.412,63.96z M26.084,43.66h37.83L45,61.664L26.084,43.66z"/>
<path d="M24.822,10.859V4.292c0-0.911-0.739-1.65-1.65-1.65s-1.65,0.739-1.65,1.65v6.567H24.822z"/>
<rect x="17.845" y="12.509" width="54.311" height="18.785"/>
</svg>