<svg xmlns="http://www.w3.org/2000/svg" xmlns:xlink="http://www.w3.org/1999/xlink" version="1.1" id="Layer_1" x="0px" y="0px" width="81.0606060606px" height="100px" viewBox="0 0 321.984 396.113" enable-background="new 0 0 321.984 396.113" xml:space="preserve">
<path d="M321.984,159.5c0-11.982-9.68-21.702-21.645-21.774c0.074-0.672,0.121-1.353,0.121-2.045  c0-10.057-8.082-18.215-18.105-18.361c0.045-0.452,0.07-0.911,0.07-1.375c0-7.517-6.094-13.611-13.611-13.611  c-5.543,0-10.305,3.32-12.428,8.075c-0.941-0.149-1.9-0.249-2.885-0.249c-10.148,0-18.375,8.227-18.375,18.375  c0,1.402,0.17,2.763,0.469,4.075l-28.648,0.84c-4.225-7.105-10.055-13.138-16.988-17.614l-0.118-25.599  c8.79-0.133,15.878-7.29,15.878-16.112c0-1.709-0.271-3.354-0.763-4.899c6.134-2.282,10.513-8.172,10.513-15.101  c0-8.906-7.22-16.125-16.125-16.125c-0.326,0-0.645,0.03-0.966,0.049c0.128-0.875,0.216-1.763,0.216-2.674  c0-10.148-8.228-18.375-18.375-18.375c-0.57,0-1.133,0.034-1.69,0.085C177.864,7.541,169.931,0,160.219,0  c-0.021,0-0.041,0.003-0.062,0.003S160.115,0,160.094,0c-9.712,0-17.646,7.541-18.31,17.085c-0.558-0.051-1.12-0.085-1.69-0.085  c-10.147,0-18.375,8.227-18.375,18.375c0,0.911,0.088,1.799,0.216,2.674c-0.321-0.019-0.64-0.049-0.966-0.049  c-8.905,0-16.125,7.219-16.125,16.125c0,6.929,4.379,12.819,10.513,15.101c-0.492,1.545-0.763,3.19-0.763,4.899  c0,8.906,7.22,16.125,16.125,16.125c0.368,0,0.729-0.031,1.091-0.055l-0.226,26.042c-1.758,1.169-3.438,2.443-5.04,3.807  c-1.116,0.895-2.308,1.928-3.46,3.081c-0.719,0.719-1.404,1.516-2.047,2.337c-2.18,2.478-4.135,5.155-5.83,8.008l-28.591-1.445  c0.296-1.296,0.468-2.64,0.468-4.025c0-9.941-8.059-18-18-18c-1.204,0-2.379,0.123-3.517,0.349  c-2.136-4.723-6.878-8.016-12.398-8.016c-7.517,0-13.611,6.094-13.611,13.611c0,0.464,0.024,0.923,0.069,1.375  c-10.021,0.146-18.104,8.305-18.104,18.361c0,0.692,0.045,1.373,0.119,2.045C9.678,137.798,0,147.518,0,159.5  c0,12.025,9.746,21.774,21.771,21.778c-0.074,0.671-0.12,1.351-0.12,2.042c0,10.056,8.082,18.215,18.104,18.361  c-0.045,0.452-0.068,0.911-0.068,1.375c0,7.518,6.094,13.611,13.611,13.611c5.543,0,10.305-3.319,12.427-8.075  c0.942,0.148,1.901,0.248,2.886,0.248c10.147,0,18.375-8.227,18.375-18.374c0-0.642-0.034-1.274-0.099-1.899l29.007,0.413  c4.301,6.848,10.11,12.648,16.969,16.935c0.137,4.012,0.777,22.734,1.223,36.835c0.5,15.875,0.25,38.75-0.625,43  s-3.375,12.125-3.375,13.25s-1.129,1.497-6.879,10.247s-3.788,16.754-3.788,16.754s-6.167,3.166-7.175,9.977  c-1.48,10.011,6.467,14.272,12.842,15.397s6.583,2.209,8.833,4.459s1.667,2.166,2.042,4.416s-0.25,3.25-2.625,7.125  s-1.625,11.25,2,13.5s7.375,2.625,8.375,2.625s1.186,6.048,4.208,9.292c3.448,3.703,10.973,3.389,12.854,3.246  c1.881,0.143,9.404,0.457,12.854-3.246c3.021-3.244,3.209-9.292,4.209-9.292s4.75-0.375,8.375-2.625s4.375-9.625,2-13.5  s-3-4.875-2.625-7.125s-0.209-2.166,2.041-4.416s2.459-3.334,8.834-4.459s14.32-5.387,12.84-15.397  c-1.006-6.811-7.174-9.977-7.174-9.977s1.963-8.004-3.787-16.754s-6.879-9.122-6.879-10.247s-2.5-9-3.375-13.25  s-1.125-27.125-0.625-43c0.43-13.673,1.045-31.69,1.209-36.43c7.141-4.324,13.176-10.281,17.609-17.346l28.789,0.165  c-0.031,0.439-0.066,0.879-0.066,1.326c0,10.147,8.227,18.374,18.375,18.374c0.984,0,1.943-0.1,2.885-0.248  c2.121,4.756,6.883,8.075,12.428,8.075c7.518,0,13.611-6.094,13.611-13.611c0-0.464-0.025-0.923-0.07-1.375  c10.021-0.146,18.104-8.306,18.104-18.361c0-0.691-0.045-1.371-0.119-2.042C312.236,181.274,321.984,171.525,321.984,159.5z   M42.926,165.196c0.115-0.424,0.221-0.852,0.311-1.287l0.219,1.367C43.281,165.243,43.102,165.224,42.926,165.196z M153.084,190.028  c-9.971-2.951-17.886-10.675-21.104-20.528h21.104V190.028z M153.084,150.833h-21.41c2.996-10.329,11.104-18.478,21.41-21.528  V150.833z M171.75,189.825V169.5h20.436C189.041,179.133,181.406,186.732,171.75,189.825z M171.75,150.833v-21.325  c9.988,3.199,17.812,11.22,20.742,21.325H171.75z"/>
</svg>