<svg xmlns="http://www.w3.org/2000/svg" xmlns:xlink="http://www.w3.org/1999/xlink" version="1.1" id="Layer_1" x="0px" y="0px" width="100px" height="100px" viewBox="0 0 100 100" enable-background="new 0 0 100 100" xml:space="preserve">
<g>
	<g>
		<path d="M26.119,56.011c0.527-0.077,4.032-0.566,7.743-1.084c2.908-0.406,5.991-0.856,7.956-1.132    c-0.319-0.482-0.629-0.853-1.835-1.515c0-6.397,0-11.21,0-11.21c0-1.093-0.805-1.881-1.878-2.446c0-9.684,0-30.978,0-34.276    c0-7.357-8.634-2.173-12.889,2.516c-4.256,4.688-6.021,7.564-6.021,11.026c0,0,0.016,13.006,0.019,20.563    c-1.239,0.561-2.036,1.378-2.036,2.566c0,0.961,0,4.625,0,9.437c-0.268,0.015-0.268,0.029-0.362,0.04    c-0.534,0.062-0.994,0.201-1.261,0.614c2.436,1.354,7.396,4.075,7.971,4.373C24.433,55.953,25.084,56.164,26.119,56.011z     M25.61,7.243c4.129-4.306,8.623-6.699,9.899-5.475c1.277,1.224-1.036,5.708-5.166,10.015c-4.13,4.306-8.513,6.806-9.79,5.581    C19.278,16.14,21.48,11.551,25.61,7.243z M17.683,40.488c0-0.283,0.229-0.513,0.513-0.513c0.283,0,0.512,0.229,0.512,0.513    c0,0.72,3.45,2.119,9.776,2.119c6.325,0,9.775-1.4,9.775-2.119c0-0.283,0.229-0.513,0.513-0.513c0.283,0,0.513,0.229,0.513,0.513    c0,0.987-1.144,1.781-3.399,2.357c-1.984,0.508-4.612,0.788-7.402,0.788s-5.418-0.279-7.402-0.788    C18.826,42.27,17.683,41.476,17.683,40.488z"/>
		<path d="M34.003,55.942c-3.708,0.519-7.212,1.007-7.735,1.084c-0.276,0.041-0.533,0.06-0.776,0.06    c-0.898,0-1.61-0.264-2.439-0.693c-0.635-0.328-5.278-2.878-7.75-4.251c-0.004,0.071-0.004,0.13-0.004,0.207    c0,1.436,0,38.043,0,38.043s-0.26,2.495,1.175,3.314c1.435,0.82,6.284,3.476,7.031,3.862c0.991,0.513,1.738,0.753,2.899,0.581    c1.163-0.171,13.112-1.846,14.001-1.982c0.889-0.137,1.455-0.308,1.455-2.051c0-3.575,0-3.985,0-39.308L34.003,55.942z"/>
	</g>
	<path d="M84.328,65.012c-1.205-0.691-6.664-3.614-7.458-4.05c-0.795-0.436-1.102-0.615-3.076-0.333   c-1.973,0.281-26.951,3.793-27.745,3.922c-0.795,0.128-1.506,0.564-1.506,1.436v17.021c0,0.437,0.071,0.666,0.404,0.846   c0.333,0.181,7.706,4.179,8.446,4.563c0.744,0.384,1.133,0.5,2.876,0.257c2.644-0.37,25.551-3.59,26.807-3.77   c1.257-0.179,2.506-0.308,2.506-1.947c0-1.642,0-15.638,0-15.638C85.581,66.243,85.532,65.705,84.328,65.012z M53.653,86.584   l-0.022-0.012v0.012l-2.987-1.573l-4.018-2.093l7.027-0.882V86.584z M53.653,81.004l-0.022,0.002v0.04l-7.747,0.961v-0.029V67.137   l7.77,4.052V81.004z"/>
</g>
</svg>