<svg xmlns="http://www.w3.org/2000/svg" xmlns:xlink="http://www.w3.org/1999/xlink" version="1.1" id="Layer_1" x="0px" y="0px" width="100px" height="100px" viewBox="0 0 100 100" enable-background="new 0 0 100 100" xml:space="preserve">
<g>
	<path d="M96.999,60.866c-0.235-0.459-0.5-0.973-0.788-1.52c0.243-0.255,0.394-0.6,0.394-0.98c0-0.788-0.638-1.426-1.426-1.426   h-0.286c-0.104-0.18-0.207-0.36-0.313-0.541c-1.85-3.159-4.159-6.265-7.489-10.07c-5.049-5.771-9.328-9.349-13.875-11.602   c-4.686-2.321-9.854-3.355-16.759-3.355c-3.51,0-7.34,0.186-11.568,1.537c-5.507,1.76-10.142,5.105-13.773,9.942   c-0.061,0.081-0.11,0.194-0.228,0.257c0,0-0.33,0.019-0.351,0.019c-8.828,0.061-17.493,3.139-20.777,6.118l-0.005,0.002   l-1.539,1.387c-0.339,0.163-2.532,0.106-2.532,1.53v2.611c0,0.043,0.003,0.084,0.007,0.126c0,0.197,0,0.396,0.001,0.587   c-0.186,0.469-0.36,0.954-0.526,1.452H4.637c-0.787,0-1.426,0.638-1.426,1.426c0,0.756,0.589,1.373,1.333,1.42   c-0.054,0.909,0.039,1.546,0.039,1.546c1,0.085,1.597-0.331,1.711-1.174c0.599-4.393,5.149-7.393,9.798-7.393   c5.081,0,9.305,3.738,10.068,8.608c0.081,0.517,0.906,2.523,4.25,2.523c4.376,0,33.578,0,33.578,0c2.656,0,2.963-1.972,3.037-2.471   c0.741-4.896,4.978-8.661,10.077-8.661c4.74,0,8.736,3.255,9.868,7.646c0.21,0.813,0.889,2.546,4.9,2.546   c2.105,0,3.573-0.233,4.121-0.336c0.163-0.01,0.326-0.051,0.481-0.13C97.067,62.188,97.303,61.461,96.999,60.866z M54.784,44.303   h-0.5h-3.011H34.615c-0.432,0-0.782-0.344-0.782-0.769c0-0.115,0.026-0.223,0.071-0.32c6.951-8.392,15.852-9.313,20.879-9.414   V44.303z M80.072,44.303H57.2V33.792c9.835,0.112,16.252,2.497,23.301,9.131C80.586,43.004,81.814,44.303,80.072,44.303z"/>
	<circle cx="77.103" cy="62.957" r="1.625"/>
	<path d="M77.103,55.368c-4.186,0-7.589,3.404-7.589,7.589c0,4.184,3.403,7.589,7.589,7.589c4.184,0,7.587-3.405,7.587-7.589   C84.689,58.772,81.286,55.368,77.103,55.368z M77.103,67.526c-2.521,0-4.571-2.051-4.571-4.569c0-2.521,2.051-4.57,4.571-4.57   c2.519,0,4.569,2.05,4.569,4.57C81.672,65.476,79.621,67.526,77.103,67.526z"/>
	<circle cx="16.092" cy="62.957" r="1.625"/>
	<path d="M16.092,55.368c-0.654,0-1.289,0.083-1.895,0.239c-3.271,0.843-5.694,3.818-5.694,7.35c0,3.53,2.423,6.505,5.694,7.349   c0.606,0.156,1.241,0.24,1.895,0.24c4.184,0,7.589-3.405,7.589-7.589C23.681,58.772,20.276,55.368,16.092,55.368z M11.523,62.957   c0-2.521,2.05-4.57,4.569-4.57c2.52,0,4.57,2.05,4.57,4.57c0,2.519-2.05,4.569-4.57,4.569   C13.573,67.526,11.523,65.476,11.523,62.957z"/>
</g>
</svg>