<svg xmlns="http://www.w3.org/2000/svg" xmlns:xlink="http://www.w3.org/1999/xlink" version="1.1" id="Livello_1" x="0px" y="0px" width="100px" height="100px" viewBox="0 0 100 100" enable-background="new 0 0 100 100" xml:space="preserve">
<circle fill="#000000" stroke="#FFFFFF" stroke-width="0.2755" stroke-miterlimit="10" cx="23.488" cy="44.471" r="10.088"/>
<circle fill="#000000" stroke="#FFFFFF" stroke-width="0.2755" stroke-miterlimit="10" cx="50" cy="44.471" r="10.087"/>
<circle fill="#000000" stroke="#FFFFFF" stroke-width="0.2755" stroke-miterlimit="10" cx="76.512" cy="44.471" r="10.087"/>
<circle fill="#000000" stroke="#FFFFFF" stroke-width="0.2755" stroke-miterlimit="10" cx="36.744" cy="66.557" r="10.087"/>
<circle fill="#000000" stroke="#FFFFFF" stroke-width="0.2755" stroke-miterlimit="10" cx="63.256" cy="66.557" r="10.087"/>
<circle fill="#000000" stroke="#FFFFFF" stroke-width="0.2755" stroke-miterlimit="10" cx="50" cy="88.643" r="10.087"/>
<path fill="#000000" d="M76.513,21.02h-24.37v-7.092l7.455-7.456c0.837-0.837,0.837-2.193,0-3.03c-0.836-0.836-2.193-0.836-3.029,0  l-8.083,8.083c-0.402,0.402-0.627,0.947-0.627,1.515v7.979H23.488c-1.775,0-3.214,1.439-3.214,3.214s1.439,3.214,3.214,3.214h53.024  c1.775,0,3.214-1.439,3.214-3.214S78.288,21.02,76.513,21.02z"/>
</svg>