<svg xmlns="http://www.w3.org/2000/svg" xmlns:xlink="http://www.w3.org/1999/xlink" version="1.1" x="0px" y="0px" width="48px" height="48px" viewBox="0 0 48 48" enable-background="new 0 0 48 48" xml:space="preserve">
<g id="Livello_1" display="none">
	<path display="inline" d="M23.997,47.021c-8.019,0-7.425-1.902-7.425-1.902c0-1.191,4.248-1.803,4.248-1.803   c2.311-0.305,2.412-3.635,2.412-3.635l-0.278-11.545c0-1.531-0.546-1.601-0.546-1.601c-7.191-1.874-6.951-8.726-6.951-8.726   c0-4.907,2.283-16.258,2.283-16.258s-0.605-0.575,6.258-0.575H24c6.866,0,6.26,0.575,6.26,0.575s2.284,11.351,2.284,16.258   c0,0,0.239,6.852-6.954,8.726c0,0-0.545,0.069-0.545,1.601l-0.277,11.545c0,0,0.102,3.33,2.412,3.635c0,0,4.246,0.611,4.246,1.803   c0,0,0.596,1.902-7.426,1.902H23.997z"/>
</g>
<g id="Livello_2">
	<path d="M29.202,44.673l-0.911-0.19c-0.451-0.096-0.816-0.167-1.114-0.225c-1.044-0.202-1.044-0.202-1.263-0.707   c-0.069-0.161-0.153-0.356-0.267-0.594c-0.491-1.025-0.432-2.352-0.301-5.259c0.053-1.174,0.117-2.592,0.159-4.338l0.004-0.186   c0.119-4.934,0.119-4.934,2.361-5.858c0.34-0.141,0.725-0.3,1.16-0.491c3.921-1.726,4.483-5.822,4.124-11.442   c-0.331-5.149-2.274-13.694-2.294-13.78c-0.055-0.235-0.264-0.402-0.505-0.402H17.645c-0.241,0-0.451,0.167-0.504,0.402   c-0.02,0.085-1.965,8.631-2.294,13.78c-0.36,5.621,0.203,9.717,4.123,11.442c0.436,0.191,0.82,0.351,1.161,0.491   c2.243,0.925,2.243,0.925,2.361,5.855l0.005,0.188c0.042,1.747,0.106,3.167,0.159,4.34c0.131,2.906,0.19,4.232-0.3,5.257   c-0.113,0.237-0.198,0.433-0.268,0.594c-0.218,0.505-0.218,0.505-1.262,0.707c-0.298,0.058-0.663,0.129-1.114,0.225l-0.912,0.19   c-2.175,0.452-2.76,0.574-2.899,1.535c-0.021,0.148,0.023,0.3,0.121,0.413s0.241,0.179,0.391,0.179H31.59   c0.15,0,0.293-0.065,0.392-0.179c0.098-0.114,0.142-0.265,0.12-0.413C31.962,45.247,31.377,45.125,29.202,44.673z"/>
</g>
</svg>