<svg xmlns="http://www.w3.org/2000/svg" xmlns:xlink="http://www.w3.org/1999/xlink" version="1.1" id="Layer_1" x="0px" y="0px" width="100px" height="100px" viewBox="0.5 -0.5 100 100" enable-background="new 0.5 -0.5 100 100" xml:space="preserve">
<g id="Spark_Plug_x2C__tiny">
	<rect x="49.5" y="93.5" width="3" height="2"/>
	<path d="M42.5,85.5l-1,3h1v3c0,1,1,2,2,2h2c0,1,0,2.675,0,3c0,2,1.021,3,3,3c0.49,0,3,0,3,0v-2h-3c-1,0-1,0-1-1v-3l7.938-0.016   C57.5,93.5,58.5,92.5,58.5,91.5c0-0.186,0-5,0-5l1-3L42.5,85.5z"/>
	<polygon points="42.5,80.5 41.5,83.5 58.5,81.5 59.5,78.5  "/>
	<polygon points="42.5,75.5 41.5,78.5 58.5,76.5 59.5,73.5  "/>
	<path d="M64.5,53.5v-4l-2.994-3c0,0,0.004-2-3.006-2H42.51c-3.01,0-3.01,2-3.01,2l-3,3v4l3,3v2c0,0-1,0-1,1c0,1.201,0,9,0,9   s1,2,2,2h2v3l16-2v-1h2c1,0,2-2,2-2s0-7.799,0-9c0-1-1-1-1-1v-2L64.5,53.5z"/>
	<path d="M58.5,43.5V28c0-0.828-0.672-1.5-1.5-1.5h-0.5c-0.553,0-1-0.447-1-1s0.447-1,1-1c0,0-0.328,0,0.5,0s1.5-0.672,1.5-1.5   s-0.672-1.5-1.5-1.5h-0.5c-0.553,0-1-0.447-1-1s0.447-1,1-1H57c0.828,0,1.5-0.672,1.5-1.5s-0.672-1.5-1.5-1.5h-0.5v-1   c0-0.553-0.447-2-1-2h-10c-0.553,0-1,1.447-1,2v1H44c-0.828,0-1.5,0.672-1.5,1.5s0.672,1.5,1.5,1.5h0.5c0.553,0,1,0.447,1,1   s-0.447,1-1,1H44c-0.828,0-1.5,0.672-1.5,1.5s0.672,1.5,1.5,1.5s0.5,0,0.5,0c0.553,0,1,0.447,1,1s-0.447,1-1,1H44   c-0.828,0-1.5,0.672-1.5,1.5v15.5H58.5z"/>
	<polygon points="54.5,12.5 54.5,9.5 53.5,5.5 54.5,2.5 52.5,-0.5 48.5,-0.5 46.5,2.5 47.5,5.5 46.5,9.5 46.5,12.5  "/>
</g>
</svg>