<svg xmlns="http://www.w3.org/2000/svg" xmlns:xlink="http://www.w3.org/1999/xlink" version="1.1" id="Layer_1" x="0px" y="0px" width="100px" height="100px" viewBox="0 0 100 100" enable-background="new 0 0 100 100" xml:space="preserve">
<path fill="#000000" d="M88.164,9.816c0.49-2.253,0-3.429-2.154-3.527c-1.333-0.061-2.104,1.303-2.497,2.353  c-2.9-0.839-9.27-2.505-15.429-2.94C62.369,5.298,55.548,5.68,51.83,5.958c0.161-3.777-3.885-2.365-4.676,0.919  c-0.508,2.107-4.334,19.768-7.335,33.648c-5.298-0.208-25.966-1.016-26.393-0.931c-0.489,0.098-0.489,0.49-0.489,1.763  c0,0.89,2.577,1.109,4.133,1.162l-4.517,39.826c-0.721,0.103-1.182,0.208-1.282,0.349c-0.49,0.686-0.311,3.255,3.428,3.723  c6.753,0.844,25.531-4.871,33.136-14.988l3.691,0.945l-2.351,20.602c-1.073,0.245-1.966,0.852-1.596,3.302  c0.118,0.78,2.155,2.09,4.963,2.024s13.257-3.853,17.109-6.922c3.854-3.068,13.536-10.743,15.542-15.934  c0.219-0.564,0-2.416,0-2.416s-1.632-0.653-2.22-0.588c-0.279,0.03-3.107,3.067-6.815,6.619l0.164-16.624  C79.26,49.4,87.76,11.678,88.164,9.816z M37.453,74.333c-3.125,1.991-6.517,3.878-9.856,5.161  c-3.298,1.268-7.057,1.896-10.139,2.284l1.981-17.624l18.117,4.641L37.453,74.333z M36.595,55.461  c-2.139,1.221-5.424,2.231-8.477,2.499c-2.445,0.214-5.538-0.507-7.852-1.174l1.603-14.254h17.515  C38.179,48.112,37.151,52.881,36.595,55.461z M61.991,49.548l2.343-0.105c-1.132,4.716-2.232,9.135-2.563,10.462l-1.97-0.457  C60.18,57.749,61.04,53.883,61.991,49.548z M67.64,49.294l2.213-0.1c-1.264,5.307-2.577,10.577-2.911,11.914l-1.819-0.423  C65.486,59.052,66.525,54.384,67.64,49.294z M73.131,49.046l1.124-0.05l-2.984,13.117l-0.976-0.227  C70.672,60.195,71.889,54.736,73.131,49.046z M82.591,12.356L74.706,47.01c-0.334-0.007-0.714-0.014-1.129-0.021  c1.01-4.646,1.97-9.165,2.441-11.634c0.956-5.011,3.929-17.642,5.227-23.107L82.591,12.356z M77.954,11.987  c-1.106,5.141-4.854,22.551-6.094,28.421c-0.382,1.809-0.906,4.109-1.472,6.52c-0.709-0.014-1.453-0.03-2.222-0.047  c1.086-4.992,2.154-9.997,2.66-12.644c0.917-4.81,3.692-16.638,5.061-22.414L77.954,11.987z M70.384,11.385l2.229,0.177  c-1.263,5.86-4.756,22.097-5.944,27.726c-0.435,2.057-1.054,4.75-1.707,7.518c-0.787-0.02-1.576-0.041-2.357-0.062  c1.146-5.251,2.303-10.654,2.835-13.443C66.331,28.625,68.978,17.319,70.384,11.385z M65.479,10.995l1.638,0.13  c-1.342,6.233-4.681,21.75-5.836,27.226c-0.475,2.249-1.17,5.257-1.891,8.294c-0.605-0.02-1.19-0.042-1.746-0.063  c1.133-5.2,2.271-10.522,2.799-13.282C61.354,28.52,64.102,16.809,65.479,10.995z M62.206,10.734  c-1.28,5.949-4.739,22.022-5.921,27.616c-0.466,2.208-1.144,5.147-1.85,8.127c-1.009-0.012-1.648,0.016-2.051,0.077  c1.179-5.387,2.443-11.26,2.995-14.155c0.903-4.73,3.71-16.654,4.936-21.816L62.206,10.734z M51.136,9.853l1.14,0.091  c-0.729,3.459-4.395,20.887-5.562,26.539c-1.203,5.828-3.989,17.264-4.39,18.905l-0.848-0.197  C43.592,45.362,49.217,19.205,51.136,9.853z M41.646,71.506l0.049-1.65l1.657,0.425C42.806,70.68,42.232,71.091,41.646,71.506z   M46.876,56.445l-1.569-0.365c0.604-2.764,4.098-18.813,5.1-24.187c0.892-4.79,3.765-17.237,4.807-21.715l1.994,0.159  c-1.047,4.858-4.585,21.292-5.755,26.834C50.246,42.89,47.533,53.813,46.876,56.445z M51.735,57.574l-1.7-0.395  c0.329-1.478,1.09-4.894,1.949-8.8c0.445,0.233,1.124,0.465,1.835,0.672C52.999,52.467,52.209,55.667,51.735,57.574z M71.282,83.506  c-2.872,2.463-5.84,4.688-8.356,5.849c-3.664,1.69-6.344,2.479-8.297,2.871l2.201-19.471l14.452-1.963V83.506z M73.111,65.021  l-0.009-0.071l0.039,0.033L73.111,65.021z"/>
</svg>