<svg xmlns="http://www.w3.org/2000/svg" xmlns:xlink="http://www.w3.org/1999/xlink" version="1.1" id="Layer_1" x="0px" y="0px" width="100px" height="100px" viewBox="0 0 100 100" enable-background="new 0 0 100 100" xml:space="preserve">
<path fill="#000000" d="M90.594,11.41c-2.75-2.961-10.084-9.37-11.297-8.181c-0.498,0.489-0.127,1.663,0.816,3.236  c0.793,3.945,1.101,9.03-7.097,17.164c-7.209,7.154-19.662,19.021-31.052,29.797L40.824,52.1l0.495-0.427  c0.328-0.28,0.365-0.774,0.083-1.101l-0.015-0.017c-0.281-0.327-0.774-0.364-1.101-0.083l-1.919,1.652  c-0.328,0.28-0.365,0.773-0.084,1.101l0.015,0.018c0.282,0.326,0.774,0.363,1.102,0.082l0.496-0.427l1.179,1.371  c-1.01,0.956-2.01,1.901-2.997,2.834l-1.306-1.517l0.496-0.427c0.327-0.283,0.364-0.775,0.083-1.103l-0.015-0.018  c-0.282-0.326-0.774-0.363-1.102-0.082l-1.919,1.651c-0.327,0.283-0.364,0.776-0.083,1.102l0.015,0.019  c0.281,0.325,0.774,0.363,1.102,0.083l0.496-0.428l1.343,1.56c-0.799,0.755-1.586,1.498-2.362,2.229  c-0.184,0.055-0.363,0.146-0.522,0.284l-0.224,0.191l-1.358-1.578l0.496-0.427c0.327-0.281,0.364-0.774,0.083-1.1l-0.014-0.018  c-0.282-0.326-0.775-0.363-1.102-0.083l-1.92,1.652c-0.327,0.282-0.364,0.774-0.083,1.101l0.014,0.017  c0.282,0.328,0.775,0.365,1.102,0.083l0.496-0.427l1.358,1.579l-0.225,0.193c-0.242,0.207-0.393,0.476-0.454,0.75  c-5.35,5.046-9.913,9.333-12.783,12.035c-1.831,1.721-2.811,4.029-2.828,6.335l-2.915,2.666l-0.027-0.033l-1.096,0.943  c-0.19,0.165-0.279,0.399-0.267,0.634L6.999,89.68c0,0-0.807-0.306-1.564,0.028c-0.758,0.334-1.386,1.136-2.15,0.776l-1.148,0.987  c0,0,0.013,1.017,1.293,2.505c1.28,1.489,2.284,1.652,2.284,1.652l1.149-0.989c-0.241-0.807,0.645-1.309,1.087-2.008  c0.443-0.7,0.263-1.543,0.263-1.543l5.483-4.791c0.229,0.046,0.476-0.008,0.665-0.171l1.097-0.941l-0.027-0.034l1.918-1.552  c0.324,0.883,0.81,1.723,1.466,2.486l1.701,1.977c2.979,3.461,8.197,3.853,11.659,0.875l1.869-1.607  c1.248,0.75,2.917,0.784,4.03-0.171l8.683-7.472l1.569,1.824c0.402,0.469,1.166,0.472,1.704,0.008l1.378-1.184  c0.538-0.465,0.647-1.218,0.244-1.688l-3.198-3.717l0.725-0.623l3.199,3.718c0.403,0.467,1.166,0.471,1.704,0.006l1.376-1.183  c0.538-0.462,0.647-1.219,0.246-1.687l-3.198-3.718l0.725-0.624l3.199,3.718c0.402,0.468,1.166,0.472,1.704,0.009l1.377-1.184  c0.538-0.464,0.649-1.22,0.245-1.688l-3.197-3.717l6.071-5.225l5.147-4.428l4.798-4.128c1.02-0.878,1.285-2.344,0.894-3.62  l0.489-0.422c0,0,0.224-0.374-0.081-0.726c-0.302-0.352-0.633-0.254-0.633-0.254c-0.266-0.578-1.631-1.221-1.836-1.632  c-0.128-0.254-0.249-0.643-0.355-0.657c-0.108-0.015-0.286,0.589,0.07,1.007c0.294,0.34,1.217,0.849,1.576,1.308  c-0.91-1.012-2.393-1.463-3.664-1.132c-0.016-0.019-0.027-0.037-0.044-0.056l-1.342-1.558c-2.979-3.462-6.916-3.317-10.378-0.339  l-0.789,0.677l-10.43,8.976l-0.49-0.572C57.338,45.01,70.486,33.681,77.209,27.973c8.801-7.476,13.668-6.828,17.547-5.748  c1.498,1.058,2.641,1.514,3.166,1.052C99.196,22.154,93.343,14.369,90.594,11.41z M38.194,61.542l0.477,0.556l-0.724,0.625  l-0.476-0.555C37.71,61.961,37.951,61.752,38.194,61.542z M22.015,75.537c0,0,5.015-4.342,12.136-10.499l0.47,0.547L20.784,77.489  l-0.152-0.177l-0.346,0.317C20.688,76.89,21.26,76.186,22.015,75.537z M22.013,85.544l-0.485-0.564  c-0.918-1.067-1.516-2.193-1.781-3.319l2.727-2.207l-0.151-0.176L36.16,67.373l5.856,6.806l-3.129,2.692l-0.184-0.214  c2.091-2.492-1.026-5.356-1.451-5.95c-0.453-0.633-0.32-1.023-0.458-1.059c-0.137-0.037-0.647,0.329-0.249,1.055  c0.397,0.726,3.473,3.825,1.111,5.857c-2.363,2.034-4.229-0.426-4.846-0.984c-0.617-0.56-1.396-0.327-1.39-0.19  c0.007,0.152,0.674,0.289,1.159,0.661c0.705,0.536,2.342,3.236,4.964,1.598l0.189,0.221l-4.398,3.785  c-1.088,0.936-1.317,2.541-0.807,3.87l-1.105,0.951C28.299,89.158,24.7,88.668,22.013,85.544z M43.358,75.74l0.229,0.265  l-8.956,7.706c0.063-0.343,0.236-0.667,0.521-0.91L43.358,75.74z M45.413,78.127l-8.206,7.061c-0.321,0.276-0.722,0.398-1.113,0.377  l9.031-7.771L45.413,78.127z M46.914,73.143l-7.427-8.632l0.724-0.624l7.428,8.632L46.914,73.143z M50.966,69.657l-7.429-8.633  l0.725-0.623l7.428,8.632L50.966,69.657z M55.018,66.171l-1.858-2.158l14.609-12.57c0.785,2.026-0.029,3.782-2.32,5.754  L55.018,66.171z M70.92,50.808c0.543,0.631,0.498,1.567-0.085,2.144c0.06-0.829-0.059-1.67-0.366-2.505  C70.637,50.536,70.789,50.656,70.92,50.808z M58.021,48.563c3.123-2.687,5.44-2.733,8.127,0.392l0.127,0.146  c0.156,0.183,0.3,0.359,0.437,0.537l-4.993,4.295l-0.137-0.159l3.828-3.293l-0.325-0.379l-3.829,3.294l-0.342-0.397l-0.627,0.542  l-0.424-0.259l-0.212,0.184l-0.3-0.349l0.422-0.361l-0.164-0.191l0.218-0.188l-0.533-0.619l-1.687,1.453l0.531,0.619l0.217-0.188  l0.165,0.189l0.422-0.361l0.3,0.348l-0.213,0.184l0.189,0.456l-0.627,0.54l0.341,0.396l-3.545,3.051  c0.192-0.799,0.014-1.673-0.563-2.343c-0.953-1.106-2.622-1.232-3.729-0.28c-1.104,0.953-1.229,2.621-0.277,3.727  c0.95,1.106,2.62,1.232,3.727,0.279l4.713-4.055l0.138,0.158l-7.578,6.521l-4.228-4.913L58.021,48.563z M54.219,59.449  c-0.896,0.771-2.251,0.67-3.022-0.227c-0.772-0.898-0.671-2.251,0.227-3.023c0.896-0.772,2.251-0.672,3.024,0.227  C55.218,57.324,55.117,58.676,54.219,59.449z M42.725,58.612l-0.726,0.624l-0.484-0.563c0.241-0.207,0.481-0.417,0.723-0.625  L42.725,58.612z"/>
</svg>