<svg xmlns="http://www.w3.org/2000/svg" xmlns:xlink="http://www.w3.org/1999/xlink" version="1.1" id="Layer_1" x="0px" y="0px" width="100px" height="100px" viewBox="0 0 100 100" enable-background="new 0 0 100 100" xml:space="preserve">
<g>
	<path fill="#000000" d="M76.603,11.869l-0.35-2.012c0-0.138-0.103-0.265-0.23-0.3l-5.224-1.43l-0.09,0.328   c-0.938,3.422,1.09,6.951,4.512,7.888c2.092,0.574,4.232,0.044,5.8-1.247l-1.965-0.539C77.764,14.203,76.845,13.129,76.603,11.869z   "/>
	<path fill="#000000" d="M77.876,9.578l0.33,2.007c0.114,0.656,0.605,1.222,1.277,1.406l4.243,1.162   c0.354-0.587,0.612-1.241,0.797-1.914c1.156-4.222-1.315-8.558-5.518-9.71c-3.551-0.973-7.217,0.626-8.956,3.692l6.406,1.754   C77.22,8.185,77.751,8.819,77.876,9.578z"/>
	<path fill="#000000" d="M90.188,42.253l-5.695-21.168c-0.836-3.108-4.034-4.95-7.143-4.114l-0.656,0.177   c-1.478,0.398-2.655,1.339-3.408,2.542l-26.231-0.594c-1.458-0.033-2.666,1.123-2.699,2.58l-0.003,0.159   c-0.022,0.989,0.509,1.853,1.304,2.323c0.346,2.146,1.435,4.062,1.486,4.149c0.014,0.024,0.034,0.042,0.051,0.064l-0.634,3.626   l-5.186,3.063c-0.118-0.283-0.335-0.515-0.613-0.65c-0.331-0.159-0.714-0.167-1.052-0.018l-1.229,0.54   c-0.772-1.323-1.743-2.546-2.906-3.619c-1.605-1.48-3.473-2.592-5.552-3.306c-8.188-2.808-17.134,1.57-19.941,9.758   c-2.018,5.885-0.368,12.414,4.205,16.634c1.605,1.479,3.472,2.593,5.553,3.306c8.188,2.808,17.133-1.569,19.941-9.758   c0.992-2.89,1.092-5.935,0.402-8.787l0.99-0.34c0.53-0.183,0.864-0.688,0.846-1.227l0.764-0.451l5.145,27.19   c0.045,0.238,0.158,0.458,0.326,0.634l2.526,2.645c-0.359,0.605-0.492,1.283-0.415,1.941c-0.756,1.12-1.393,2.343-1.852,3.681   c-2.019,5.886-0.368,12.414,4.205,16.635c1.604,1.481,3.473,2.593,5.553,3.307c8.188,2.807,17.134-1.57,19.939-9.759   c2.02-5.884,0.368-12.413-4.205-16.633c-1.603-1.481-3.472-2.594-5.552-3.307c-2.225-0.764-4.502-0.979-6.7-0.748l4.689-6.784   l19.13-6.414l0.504-0.135C89.182,48.559,91.024,45.362,90.188,42.253z M36.613,46.861c-2.209,6.443-9.247,9.886-15.689,7.677   c-1.637-0.561-3.108-1.436-4.368-2.6c-3.598-3.321-4.896-8.459-3.31-13.089c2.208-6.442,9.247-9.886,15.689-7.677   c1.637,0.562,3.107,1.436,4.368,2.6c0.816,0.753,1.498,1.61,2.07,2.523l-10.578,4.65c-0.504,0.222-0.79,0.735-0.746,1.255   c-0.308,0.335-0.423,0.826-0.258,1.282c0.071,0.195,0.185,0.361,0.328,0.493c0.328,0.303,0.809,0.42,1.26,0.266l11.6-3.983   C37.444,42.413,37.357,44.691,36.613,46.861z M47.005,24.534l12.401,0.281L52.41,26.77c-0.87,0.24-1.487,0.931-1.689,1.749   c-1.153-0.245-2.203-0.782-2.57-0.986C47.933,27.128,47.326,25.909,47.005,24.534z M46.176,41.578l8.679,20.096l-2.636,3.813   l-1.896-1.986L46.176,41.578z M57.786,68.464l2.249,5.206l-3.393-3.552L57.786,68.464z M67.366,66.642   c1.638,0.562,3.106,1.436,4.368,2.601c3.598,3.319,4.896,8.458,3.31,13.088c-2.21,6.442-9.247,9.887-15.689,7.677   c-1.639-0.561-3.107-1.436-4.368-2.6c-3.598-3.32-4.897-8.459-3.31-13.089c0.257-0.748,0.584-1.451,0.963-2.113   c0.772,0.216,1.589,0.124,2.29-0.246l7.031,7.361c0.019,0.021,0.035,0.037,0.057,0.057c0.342,0.316,0.835,0.417,1.277,0.257   l0.521-0.188c0.324-0.117,0.587-0.364,0.724-0.682c0.137-0.318,0.137-0.679,0-0.996L59.694,66.55   C62.116,65.792,64.787,65.757,67.366,66.642z M56.537,59.238L46.138,35.159l2.983-1.761c0.597-0.353,0.795-1.122,0.442-1.719   c-0.144-0.244-0.366-0.401-0.609-0.502l-0.557-2.122c0.621,0.28,1.454,0.588,2.351,0.743c0.37,1.264,1.684,2,2.956,1.648   l19.35-5.406l5.098,18.95l-13.902,4.66c-0.547,0.183-1.003,0.505-1.368,0.901c-0.366,0.222-0.697,0.517-0.956,0.893L56.537,59.238z   "/>
</g>
<ellipse fill="#000000" cx="62.426" cy="94.906" rx="18.246" ry="3.119"/>
</svg>