<svg xmlns="http://www.w3.org/2000/svg" xmlns:xlink="http://www.w3.org/1999/xlink" version="1.1" id="Calque_1" x="0px" y="0px" width="100px" height="76.4556962025px" viewBox="0 0 395.601 302.8" enable-background="new 0 0 395.601 302.8" xml:space="preserve">
<path d="M325.411,155.52c18.883-9.441,37.557,4.65,40.904,7.428c0.096,0.026,0.186,0.045,0.283,0.071  c4.26,1.525-17.504-27.44-39.832-15.589c2.029-5.538-1.23-9.616-3.807-10.186c-2.574-0.568-10.523,2.053-15.148,7.454  c0.203-3.854-3.207-7.541-10.486-9.546c-7.279-2.004-56.062-10.455-104.449-11.965c-0.005,0.239-0.001,0.476-0.013,0.716  c-0.811,15.421-18.327,27.039-39.128,25.946c-19.518-1.025-34.989-12.877-36.152-27.076c-36.746,2.99-70.853,11.334-80.709,20.504  c-13.692,12.739-2.889,46.73,18.62,50.466c2.564,0.445,7.802,1.08,15.137,1.829c-0.697-3.347-0.983-6.835-0.795-10.411  c1.174-22.355,20.248-39.525,42.603-38.35c22.355,1.173,39.526,20.247,38.351,42.602c-0.227,4.33-1.133,8.459-2.596,12.305  c71.179,1.342,116.513,2.643,156.071-1.163c-0.602-2.821-0.848-5.75-0.848-8.759C303.417,178.857,306.528,164.961,325.411,155.52z   M110.485,152.151c-18.8,0-34.042,15.241-34.042,34.043c0,18.801,15.242,34.042,34.042,34.042c18.802,0,34.043-15.241,34.043-34.042  C144.528,167.393,129.287,152.151,110.485,152.151z M110.485,206.236c-11.069,0-20.043-8.974-20.043-20.042  c0-11.07,8.974-20.043,20.043-20.043c11.07,0,20.043,8.973,20.043,20.043C130.528,197.263,121.555,206.236,110.485,206.236z   M340.054,157.81c-16.797,0-30.414,13.617-30.414,30.416c0,16.797,13.617,30.414,30.414,30.414  c16.799,0,30.418-13.617,30.418-30.414C370.472,171.427,356.853,157.81,340.054,157.81z M340.056,205.739  c-9.674,0-17.516-7.842-17.516-17.514c0-9.674,7.842-17.516,17.516-17.516c9.672,0,17.516,7.842,17.516,17.516  C357.571,197.897,349.728,205.739,340.056,205.739z M177.073,139.868c1.671,0.57,3.488-0.322,4.059-1.993l7.51-22.004  c0.569-1.671-0.322-3.487-1.993-4.059c-1.67-0.569-3.487,0.323-4.058,1.993l-7.511,22.005  C174.509,137.481,175.401,139.297,177.073,139.868z"/>
</svg>