<svg xmlns="http://www.w3.org/2000/svg" xmlns:xlink="http://www.w3.org/1999/xlink" version="1.1" id="Layer_1" x="0px" y="0px" width="100px" height="100px" viewBox="0 0 100 100" enable-background="new 0 0 100 100" xml:space="preserve">
<path d="M73.854,7.813V3.072l-42.788,8.963c-12.435-1.057-11.678,9.918-11.678,9.918v44.843  c0.139,11.492,11.678,10.379,11.678,10.379l3.992,0.904v19.506l5.559-6.844l5.468,6.852v-17.01l27.769,6.303V81.32h7.838V7.813  H73.854z M44.777,93.578l-4.175-5.49l-4.245,5.49V78.377l8.42,1.91V93.578z M72.461,84.754l-40.608-9.223  c0,0-10.833,1.508-10.833-10.025V23.123c0,0-0.729-11.253,10.833-9.414l40.608-8.503V84.754z M80.355,79.982h-6.502v-2.066h3.516  V11.247h-3.516V9.161h6.502V79.982z"/>
<path d="M30.46,17.136c0-0.297-0.241-0.538-0.538-0.538c-0.297,0-0.538,0.241-0.538,0.538h-0.002v56.116h0.002  c0,0.297,0.241,0.539,0.538,0.539c0.297,0,0.538-0.242,0.538-0.539h0.001V17.136H30.46z"/>
</svg>