<svg xmlns="http://www.w3.org/2000/svg" xmlns:xlink="http://www.w3.org/1999/xlink" version="1.1" id="Layer_1" x="0px" y="0px" width="100px" height="100px" viewBox="0 0 100 100" enable-background="new 0 0 100 100" xml:space="preserve">
<g>
	<path d="M57.913,66.773c-0.637,7.737,2.427,9.601,4.542,13.011c2.645,4.267,7.762,9.512,8.657,14.883   c0.408,2.443,0.552,3.936,0.588,4.836H13.551c0.049-3.289-1.729-14.421,11.406-28.273c4.422-4.664,16.654-14.777,8.795-25.569   c-2.759-3.787-4.611-8.16-5.421-12.743l-13.96,2.463c-0.497,0.087-0.7-0.421-0.28-0.701c6.986-4.646,5.465-7.621,7.743-14.775   C23.89,13.447,30.982,3.921,46.386,1.09c15.443-2.608,25.392,3.913,29.532,9.278c4.589,5.943,4.178,9.258,12.329,11.235   c0.49,0.119,0.474,0.667-0.023,0.754l-13.165,2.321c0.553,0.995,1.359,2.228,1.028,2.836c-0.961,1.771-1.401,2.692,0.293,5.093   c1.104,1.563,4.286,6.256,4.996,7.549c0.989,1.805-4.711,1.862-4.213,3.233c0.229,0.627,0.997,2.207,1.245,2.819   c0.298,0.739-1.475,1.21-1.486,1.726c0.002,0.197,1.094,0.302,0.922,1.591c-0.104,0.792-1.705,0.172-1.797,3.187   c-0.048,1.636,1.911,3.917-1.362,5.99c-1.919,1.215-6.428-0.182-10.298,0.306l0.146,0.396c-1.453,0.171-2.763,0.698-3.797,1.47   l-0.141-0.387C59.185,61.637,58.177,63.574,57.913,66.773L57.913,66.773z"/>
</g>
</svg>