<svg xmlns="http://www.w3.org/2000/svg" xmlns:xlink="http://www.w3.org/1999/xlink" version="1.2" baseProfile="tiny" id="Layer_2" x="0px" y="0px" width="77.2727272727px" height="100px" viewBox="0 0 612 792" overflow="inherit" xml:space="preserve">
<path stroke="#000000" stroke-linecap="round" stroke-miterlimit="10" d="M218.667,176.667c0,0,13.333,25.801,58.667-6.266H447  l0.667,302.267c0,0-12,4.333,0,14l-5,6.666c0,0-0.035,3.668,8.482,3.334V499c0,0-0.398,1.251-2.815,3.084s0.25,4.084,0.75,4.667  s0.167,1.5,0.167,1.5s-13.584-0.084-15.417,1.166s-12.833,8.583-17.25,9.75s-5.333-5.917-6.5-5c0,0-3.583-1.083-8.499,0.417  c-2.045,0.623-4.595-0.293-6.479,0.529c-2.198,0.96-2.341,3.966-1.938,5.985c0.315,1.585,0.722,3.16,0.895,4.771  c0.236,2.207,0.463,3.674,1.538,5.613c0.987,1.781,1.268,3.177,0.15,5.018l-4.5,4.125c-2.875,1.75-0.625,1.5-2.5,3.75  c-3,1.375-7,1.75-9.5,4.375c-0.898,0.943-1.549,1.723-2.062,2.989c-0.731,1.801-1.264,3.687-1.48,5.619  c-0.388,3.465-0.825,5.524-3.644,7.745c-1.241,0.977-2.515,2.406-4.108,2.787c-2.084,0.499-2.805-1.64-4.704-1.641  c-2.153-0.001-3.873,0.882-4.326,3.057c-0.293,1.409-0.244,2.879-1.55,3.818c0,0-3.125,3.25-4.25,6.25s1,7.625-0.625,12.75s-6,6-6,6  s-3.25,0.25-3.75,0.75s-0.375,3-1.875,3.125s-1.5-5.75-4.375-4.875c-7.125,0.25-12.625-1-13.25-3.5  c-0.293-1.173-1.329-2.393-1.721-3.601c-0.678-2.097-0.504-4.41-1.198-6.512c-0.748-2.267-2.425-3.905-4.137-5.485  c-0.661-0.611-1.301-1.342-2.072-1.815c-0.966-0.593-2.575-0.29-3.085,0.861c-1.369,3.1,3.425,3.302,4.673,4.566  c1.702,1.726-2.965,1.882-3.96,1.985c0,0-1.25,2.25-2.25,2.25s-2.625-1.875-3.5-2.25s-2.625,0.5-1.875,2s2.5,2.375,2,4  s-1.875,2.125-6.125,3.25c-2.125,1.25-0.25,5.375-0.875,5.75c0,0-1.125,2.75,0.5,4.25s-0.625,2.5-0.625,2.5s-1.5,2-5.375,1.125  c-1.625-0.5-1.875,3.25-1.875,3.25s0,5.125-2.375,5c-0.125,0.125-2.125,0.5-2.5-1.25c0,0-0.875-2.25,0.75-3.5s-1.625-3.75-2-2.75  c-0.355,0.946-1.672,1.712-2.498,2.152c-1.026,0.546-2.107,0.893-3.137,0.156c-0.666-0.477-1.021-1.209-1.383-1.918  c-0.919-1.798-1.65-3.674-2.501-5.503c-0.338-0.727-0.679-1.54-1.23-2.138c0,0-2.583-1.999-5.792-0.166s-3.25,5.376-8.125,5.417  c-1.371,0.012-2.903,0.153-4.178,0.684c-0.773,0.321-1.809,0.742-2.37,1.39c-1.086,1.254-1.566,3.395-1.536,5.01  c0.042,2.208-0.25,3.917-1.542,5.75c-0.93,1.32-1.931,2.895-3.613,3.311c-1.262,0.312-2.313-0.39-2.887-1.478  c-0.497-0.941-0.897-2.089-1.125-3.125c-0.355-0.863-0.956-1.82-1.875-2.167c-0.275-0.104-0.632-0.179-0.929-0.161  c-0.428,0.024-0.743,0.387-1.134,0.438c-0.702,0.09-1.854-0.445-2.5-0.698c-0.487-0.19-0.996-0.394-1.404-0.729  c-0.562-0.462-0.989-1.12-1.536-1.612c-0.482-0.434-0.973-0.86-1.467-1.281c-0.676-0.577-1.355-1.154-2.081-1.668  c-0.54-0.383-1.413-1.112-2.115-1.097c-0.716,0.016-1.067-0.063-1.654-0.473c-0.529-0.368-1.038-0.747-1.542-1.149  c-1.029-0.82-2.059-1.73-3.218-2.365c-0.661-0.364-0.954-0.274-1.669-0.234c-0.771,0.043-1.391-0.265-2.174-0.093  c-0.961,0.211-1.873,0.666-2.744,1.107c-0.869,0.44-1.71,0.927-2.542,1.434c0,0-0.443,0.537-2.875-1.625  c-0.791-0.703-1.541-1.496-2.191-2.332c-0.538-0.69-0.996-1.708-1.83-2.095c-0.473-0.22-0.379-0.021-0.847,0.01  c-1.846,0.116-2.951,2.37-3.492,3.882c-0.783,2.188,1.007,3.569,2.444,4.951c0,0,3.333,2.417,0.667,3.667  c-0.835,0.392-1.041,2.047-1.861,2.619c-1.183,0.824-3.081,0.568-4.451,0.625c-1.127,0.046-2.419-0.1-2.271-1.577  c0.233-2.328,0.833-1.834,1.583-4.167c0.736-2.288-1.155-2.461-1.667-2.333c-1,0.25-4.833,0.666-6.75,2c0,0-3.167,1.25-4.333,0.25  c-1.706-1.462-2.804-3.476-4.66-4.793c-2.414-1.712-3.932-0.793-5.757,1.293c-1.333,3.166,0.75,4.666,0.75,5.166  c0,0,2.5,4.001,1.917,4.584s-0.333,1.667-2.25,1.75s-1.667,1.916-1.667,1.916s-0.333,2.334-2.083,0.334s-4-2.334-4-2.334  s-4.75-0.75-5.583-0.75s-1.917-1.749-1.5-2.166s3.667,0.666,3.667,0.666s2,0.501,1.833-1.916c0,0-5.083-5.501-5.333-5.334  s-1.667-1.749,1.167-1.416s2.417,2.416,4.5,1.333s1.25-3.167,0.25-3.417s-1.333-1.082-3.667-0.666s-0.5-1.584-0.5-1.584  s1.833-2.083,3.75-2.333s2.167-2.417,2.167-2.417s-0.25-1.25-1.25-2.75c-0.333-0.916,0.75-1.749,0.833-2.416  c0,0-0.417-1.167-1.583-1.667s0.833-1,0.833-1s3-0.417,3.25-0.417s3-2.417,2.833-3.75s-0.584-1.084-0.917-1  s-3.416,0.418-3.583,0.084s-2.917-0.25,0.083-1.25s7-3.834,7-3.834s2.417-1.084-0.083-3S172,573.417,172,573.417  S171.334,569,172.167,569s2-1.417,2-1.917s0.333-4.749,1.333-4.416s0.584-0.168,1.167,0.916s0.75,1.333,1.75,1  s1.583-2.25,1.417-2.583s1.25-1.334,1.333-0.667s0.083,2,0.667,2.417s1.25,1.417,2.333-0.083s1.083-5.75,1.083-5.75  s0.75-2.417,2.833-3.667s1.583-0.749,2.917-2.333s1.583-2.417,1.583-2.667s0.667-2.333,1.25-2.333s0.083-1.584-0.417-1.584  s-1.667-0.416-1.667-0.416s-0.833-1.168,1-1.584s3.5-0.5,3.667-1.001c0.278-0.829,1.322-1.314,2.103-1.52  c0.776-0.203,2.25,0.422,2.814,0.021c0,0,1.833-0.25-1.5-5.833c0.209-0.941,0.73-1.79,1.303-2.553  c0.262-0.35,0.542-0.684,0.832-1.009c0.263-0.296,0.505-0.695,0.822-0.93c0.452-0.335,1.829-0.062,1.991-0.79  c0.072-0.322-0.017-0.666-0.162-0.956c-0.323-0.647-0.961-1.025-0.876-1.844c0.062-0.598,0.438-1.185,0.693-1.717  c0.544-1.135,1.215-2.195,1.908-3.244c0.673-1.02,1.49-1.203,2.624-1.445c0.84-0.18,2.787-0.437,3.157-1.388  c0.438-1.125,4.438-7.125,2.312-11.938c-2.119-4.798-2.001-5.496-2-5.5c0.209-1.192-1.387-2.049-1.598-3.034  c-0.119-0.565,0.516-1.738,0.696-2.279c0.258-0.775,0.507-1.563,0.839-2.312c0.168-0.72,0.307-1.445,0.437-2.173  c0.157-0.879,0.66-2.587,0.218-3.425c-0.166-0.314-0.557-0.483-0.788-0.753c-0.222-0.26-0.371-0.596-0.553-0.883  c-0.418-0.661-0.893-1.356-1.688-1.579c-1.562-0.438-1.357-1.789-1.062-2.438c0.312-0.688,0-6.188-0.438-6.438  c0,0-3.125-2.062-3.75-4.25s-1.812-1.062-2.188-1.562s-1.938,0.375-0.312-3.375s3.25-4.312,3.25-4.312s3.375-2,3.438-5.375  s-2.75-3.438-2.375-5.812c0.098-0.62,0.155-1.353-0.234-1.889c-0.315-0.434-0.617-0.49-0.506-1.098  c0.089-0.488,0.507-1.038,0.762-1.456c0.481-0.79,1.286-2.14,2.354-2.183c0,0,3.438-0.25,3.562-0.938  S218.667,176.667,218.667,176.667z"/>
</svg>