<svg xmlns="http://www.w3.org/2000/svg" xmlns:xlink="http://www.w3.org/1999/xlink" version="1.1" id="Layer_1" x="0px" y="0px" width="100px" height="100px" viewBox="0 0 100 100" enable-background="new 0 0 100 100" xml:space="preserve">
<g>
	<path fill-rule="evenodd" clip-rule="evenodd" d="M37.129,48.614c-5.702-1.706-11.507-3.31-17.817-4.409   C18,39.933,17.15,35.622,16.667,30.621c-0.151-1.59-0.508-3.665-0.176-5.117c0.471-2.057,5.136-6.457,6.703-7.938   c3.049-2.883,5.71-4.331,8.824-5.645c2.342-0.99,7.928-0.003,10.76,0.706c3.04,0.76,5.658,1.962,7.76,3.352   c0.834,4.055,1.35,8.297,1.942,12.877c0.179,1.4,0.738,3.29,0.527,4.411c-0.262,1.405-2.74,2.75-4.057,3.881   C44.776,40.73,40.573,44.757,37.129,48.614z"/>
	<path fill="#000000" d="M37.132,48.625l-0.006-0.001c-5.426-1.623-11.339-3.281-17.814-4.409   c-1.336-4.331-2.178-8.648-2.654-13.593c-0.029-0.308-0.067-0.636-0.105-0.972c-0.159-1.396-0.34-2.977-0.072-4.148   c0.471-2.045,5.139-6.461,6.672-7.911l0.033-0.031c3.046-2.881,5.731-4.34,8.826-5.648c0.658-0.276,1.62-0.417,2.856-0.417   c2.52,0,5.739,0.58,7.912,1.124c2.83,0.707,5.515,1.866,7.764,3.353c0.769,3.723,1.268,7.62,1.799,11.745l0.146,1.139   c0.057,0.443,0.149,0.926,0.249,1.437c0.208,1.086,0.425,2.209,0.281,2.976c-0.191,1.025-1.573,2.03-2.79,2.916   c-0.469,0.341-0.91,0.664-1.271,0.971c-4.44,3.812-8.527,7.777-11.82,11.467L37.132,48.625z M34.868,11.513   c-1.235,0-2.192,0.141-2.849,0.418c-3.092,1.305-5.776,2.764-8.82,5.643l-0.033,0.031c-1.533,1.45-6.2,5.862-6.667,7.903   c-0.268,1.167-0.086,2.747,0.073,4.14c0.038,0.337,0.075,0.664,0.105,0.972c0.476,4.945,1.317,9.261,2.646,13.583   c6.468,1.121,12.379,2.777,17.804,4.4c3.292-3.689,7.38-7.652,11.818-11.462c0.36-0.31,0.803-0.633,1.271-0.974   c1.214-0.885,2.591-1.886,2.784-2.902c0.143-0.765-0.073-1.886-0.281-2.969c-0.098-0.513-0.192-0.996-0.249-1.438l-0.146-1.139   c-0.53-4.125-1.03-8.022-1.796-11.738c-2.242-1.478-4.925-2.636-7.752-3.344C40.603,12.093,37.387,11.513,34.868,11.513z"/>
</g>
<g>
	<path fill-rule="evenodd" clip-rule="evenodd" d="M82.822,26.74c4.388,0.904,7.845,2.742,11.114,4.762   c1.155,2.908,2.214,6.13,3.176,9.528c0.937,3.304,2.188,7.222,1.765,10.936c-0.28,2.439-2.176,6.5-3.353,8.645   c-1.414,2.575-3.232,5.005-5.117,6.703c-3.801-1.964-7.78-3.743-11.994-5.291c-0.37-6.081-1.555-11.183-3.001-16.406   c-0.395-1.424-1.498-3.804-1.411-4.94c0.114-1.492,3.371-5.367,4.232-6.704C80.083,31.122,81.375,28.936,82.822,26.74z"/>
	<path fill="#000000" d="M90.41,67.327l-0.006-0.003c-3.941-2.036-7.977-3.816-11.994-5.291c-0.39-6.289-1.677-11.605-3.008-16.415   c-0.131-0.468-0.336-1.034-0.552-1.635c-0.43-1.192-0.917-2.542-0.857-3.308c0.084-1.094,1.846-3.458,3.132-5.184   c0.469-0.626,0.872-1.167,1.102-1.525c0.884-1.365,1.631-2.56,2.351-3.713c0.762-1.221,1.482-2.375,2.236-3.518   c4.501,0.921,8.007,2.832,11.129,4.759c1.101,2.766,2.169,5.971,3.179,9.533c0.076,0.264,0.15,0.531,0.229,0.803   c0.903,3.148,1.927,6.718,1.533,10.137c-0.288,2.536-2.317,6.767-3.351,8.649c-1.466,2.67-3.284,5.053-5.117,6.705L90.41,67.327z    M82.819,26.75c-0.741,1.139-1.463,2.293-2.224,3.513c-0.723,1.155-1.469,2.35-2.354,3.716c-0.229,0.358-0.633,0.899-1.1,1.525   c-1.285,1.723-3.05,4.084-3.131,5.174c-0.06,0.76,0.428,2.108,0.857,3.299c0.219,0.6,0.423,1.168,0.552,1.637   c1.334,4.811,2.616,10.128,3.001,16.409c4.01,1.467,8.044,3.246,11.985,5.28c1.831-1.652,3.646-4.03,5.108-6.697   c1.031-1.883,3.06-6.108,3.35-8.641c0.391-3.416-0.633-6.982-1.533-10.129c-0.079-0.272-0.155-0.54-0.229-0.804   c-1.01-3.561-2.078-6.765-3.177-9.525C90.812,29.584,87.311,27.675,82.819,26.75z"/>
</g>
<g>
	<path fill-rule="evenodd" clip-rule="evenodd" d="M53.362,34.325c7.509,1.254,13.784,3.739,19.933,6.352   c1.38,4.638,3.049,9.602,3.882,15.17c0.263,1.762,0.824,4.271,0.53,5.821c-0.262,1.372-2.167,2.873-3.354,4.058   c-3.812,3.814-7.431,7.441-11.994,10.233c-7.541-1.342-14.284-3.474-20.287-6.352c-1.241-4.845-2.283-9.846-3.351-15.17   c-0.312-1.545-1.228-3.61-1.061-4.94c0.146-1.145,2.182-3.064,3.354-4.235C44.952,41.325,49.543,37.659,53.362,34.325z"/>
	<path fill="#000000" d="M62.358,75.97h-0.002c-7.426-1.323-14.253-3.46-20.29-6.352c-1.31-5.097-2.418-10.506-3.357-15.181   c-0.105-0.526-0.279-1.104-0.463-1.715c-0.348-1.155-0.706-2.351-0.595-3.227c0.131-1.048,1.805-2.704,3.026-3.915   c0.115-0.113,0.226-0.223,0.329-0.326c2.827-2.827,5.947-5.476,8.964-8.038c1.186-1.007,2.307-1.96,3.386-2.899   c7.588,1.263,14.013,3.829,19.944,6.349c0.222,0.741,0.448,1.484,0.676,2.234c1.233,4.059,2.508,8.256,3.209,12.942   c0.052,0.35,0.116,0.724,0.181,1.118c0.275,1.623,0.587,3.462,0.349,4.709c-0.208,1.096-1.46,2.27-2.563,3.306   c-0.284,0.266-0.55,0.517-0.79,0.758l-0.041,0.037c-3.809,3.814-7.406,7.412-11.956,10.195L62.358,75.97z M53.359,34.334   c-1.068,0.938-2.19,1.891-3.377,2.898c-3.018,2.562-6.137,5.209-8.963,8.037c-0.103,0.104-0.214,0.212-0.327,0.327   c-1.152,1.139-2.891,2.861-3.021,3.902c-0.111,0.872,0.249,2.066,0.595,3.217c0.184,0.613,0.357,1.192,0.462,1.719   c0.939,4.672,2.048,10.082,3.352,15.17c6.029,2.887,12.854,5.023,20.276,6.344c4.547-2.781,8.145-6.379,11.95-10.189l0.041-0.041   c0.241-0.237,0.508-0.489,0.789-0.755c1.104-1.035,2.354-2.204,2.56-3.298c0.237-1.241-0.073-3.078-0.346-4.7   c-0.067-0.396-0.131-0.769-0.184-1.115c-0.702-4.688-1.976-8.884-3.209-12.941c-0.228-0.752-0.455-1.495-0.671-2.229   C67.363,38.166,60.938,35.601,53.359,34.334z"/>
</g>
<g>
	<path fill-rule="evenodd" clip-rule="evenodd" d="M41.539,70.138c6.246,2.754,12.822,5.172,20.642,6.351   c0.763,2.019,1.154,4.164,1.766,6.525c0.507,1.956,1.886,4.652,1.588,6.53c-0.303,1.888-4.73,4.498-6.881,5.469   c-6.476,2.919-13.487,2.77-20.639,0.352c-2.724-0.919-7.225-2.718-8.645-4.235c-1.248-1.331-2.064-4.14-2.648-6.174   c-0.706-2.47-0.979-4.827-1.233-7.584C31.167,75.288,36.498,72.856,41.539,70.138z"/>
	<path fill="#000000" d="M48.388,97.199c-3.301,0-6.792-0.612-10.377-1.823c-3.159-1.071-7.319-2.82-8.648-4.24   c-1.261-1.344-2.098-4.254-2.653-6.178c-0.729-2.55-0.998-5.044-1.23-7.587c5.472-2.013,10.872-4.447,16.056-7.241   c5.531,2.435,12.303,5.094,20.647,6.349c0.544,1.429,0.898,2.919,1.274,4.495c0.157,0.66,0.319,1.343,0.498,2.04   c0.157,0.595,0.39,1.252,0.636,1.947c0.57,1.612,1.16,3.276,0.952,4.583c-0.306,1.915-4.855,4.56-6.887,5.478   C55.448,96.468,51.993,97.199,48.388,97.199z M41.536,70.148c-5.177,2.792-10.576,5.226-16.044,7.23   c0.24,2.529,0.51,5.023,1.238,7.573c0.554,1.924,1.39,4.83,2.648,6.171c1.325,1.417,5.483,3.164,8.64,4.229   c3.582,1.212,7.071,1.829,10.371,1.829c3.603,0,7.055-0.735,10.261-2.18c2.025-0.914,6.572-3.555,6.875-5.458   c0.209-1.304-0.381-2.968-0.951-4.574c-0.246-0.695-0.482-1.355-0.637-1.95c-0.181-0.699-0.344-1.38-0.5-2.04   c-0.373-1.578-0.728-3.068-1.264-4.488C53.833,75.242,47.059,72.583,41.536,70.148z"/>
</g>
<g>
	<g>
		<path fill-rule="evenodd" clip-rule="evenodd" d="M68.887,3.806c0.124,2.597,0.323,5.241-0.176,7.584    c-6.715,0.521-12.814,1.656-17.643,4.058c-4.647-2.881-10.585-4.467-17.994-4.586c-0.108-2.539-0.095-5.198-0.352-7.586    C42.342-1.222,59.775-0.993,68.887,3.806z"/>
		<path fill="#000000" d="M51.066,15.459l-0.003-0.002c-4.721-2.927-10.772-4.469-17.989-4.585    c-0.043-0.797-0.066-1.609-0.087-2.396c-0.047-1.746-0.096-3.551-0.275-5.199C37.105,1.216,43.467,0.04,50.173,0.04    c7.36,0,14.182,1.37,18.715,3.758c0.02,0.253,0.03,0.498,0.044,0.743c0.118,2.325,0.24,4.728-0.214,6.853    c-7.672,0.602-13.276,1.891-17.647,4.063L51.066,15.459z M50.173,0.058c-6.704,0-13.062,1.177-17.447,3.227    c0.184,1.638,0.232,3.444,0.281,5.191c0.021,0.786,0.043,1.597,0.076,2.386c7.21,0.107,13.264,1.648,17.985,4.575    c4.371-2.173,9.976-3.462,17.643-4.056c0.442-2.114,0.318-4.516,0.202-6.839c-0.014-0.245-0.024-0.491-0.037-0.736    C64.35,1.427,57.53,0.058,50.173,0.058z"/>
	</g>
	<g>
		<path fill-rule="evenodd" clip-rule="evenodd" d="M69.768,4.159c11.855,4.963,20.377,13.259,25.579,24.875    c-0.481,0.518-0.812,1.186-1.233,1.763c-3.252-2.041-6.961-3.623-11.114-4.762c-4.069-5.282-7.902-10.797-13.583-14.467    C69.595,9.16,69.887,6.865,69.768,4.159z"/>
		<path fill="#000000" d="M94.116,30.81l-0.009-0.006c-3.216-2.019-6.955-3.62-11.111-4.76c-0.467-0.601-0.923-1.201-1.38-1.802    c-3.524-4.627-7.169-9.412-12.206-12.666c0.035-0.531,0.079-1.047,0.122-1.563c0.157-1.836,0.319-3.734,0.225-5.854V4.145    l0.014,0.005c11.794,4.937,20.401,13.307,25.583,24.879c-0.299,0.333-0.546,0.721-0.784,1.096    c-0.144,0.226-0.291,0.459-0.449,0.677L94.116,30.81z M69.776,4.174c0.092,2.114-0.068,4.009-0.225,5.84    c-0.044,0.517-0.087,1.034-0.128,1.556c5.037,3.246,8.684,8.032,12.208,12.661c0.457,0.601,0.915,1.201,1.374,1.799    c4.149,1.134,7.888,2.736,11.104,4.754c0.156-0.215,0.303-0.446,0.443-0.669c0.238-0.376,0.486-0.765,0.784-1.088    C90.157,17.475,81.559,9.109,69.776,4.174z"/>
	</g>
	<g>
		<path fill-rule="evenodd" clip-rule="evenodd" d="M15.784,25.504c0.347,6.89,1.006,13.462,3,18.702    c-3.154,4.727-6.073,9.686-7.057,16.582c-2.476,0.792-6.3,0.624-8.821,0c-3.192-4.174-2.96-12.652-1.94-18.876    c1.016-6.205,3.144-11.958,5.646-16.054C9.068,24.737,12.885,24.867,15.784,25.504z"/>
		<path fill="#000000" d="M7.612,61.33c-1.625,0-3.339-0.194-4.707-0.535C-0.949,55.764,0.44,45.068,0.958,41.91    c0.967-5.916,3.024-11.768,5.646-16.058c1.208-0.551,2.846-0.843,4.742-0.843c1.439,0,3.016,0.174,4.44,0.486    c0.318,6.172,0.916,13.211,3.006,18.707c-3.019,4.533-6.05,9.539-7.054,16.588C10.64,61.146,9.215,61.33,7.612,61.33z     M11.346,25.03c-1.894,0-3.529,0.289-4.731,0.837c-2.613,4.283-4.672,10.134-5.637,16.046c-0.517,3.157-1.906,13.842,1.936,18.869    c1.36,0.333,3.076,0.527,4.698,0.527c1.603,0,3.024-0.184,4.113-0.53c0.998-7.043,4.03-12.053,7.052-16.579    c-2.094-5.49-2.691-12.531-3.003-18.696C14.359,25.201,12.783,25.03,11.346,25.03z"/>
	</g>
	<g>
		<path fill-rule="evenodd" clip-rule="evenodd" d="M99.582,53.201c0.202-0.027,0.314,0.041,0.352,0.177    c-0.84,12.08-5.444,21.166-11.466,28.402c-0.752,0.903-1.413,2.451-2.821,2.47c-0.528-1.31,0.694-2.595,1.233-3.704    c1.714-3.542,3.396-7.868,4.058-12.702C94.789,63.933,97.387,58.766,99.582,53.201z"/>
		<path fill="#000000" d="M85.638,84.259v-0.006c-0.4-0.99,0.208-1.985,0.747-2.861c0.181-0.299,0.352-0.577,0.486-0.851    c2.17-4.482,3.499-8.638,4.058-12.697c4.239-4.312,6.847-10.09,8.646-14.645c0.038-0.011,0.064-0.014,0.092-0.014    c0.148,0,0.243,0.062,0.279,0.189c-0.75,10.744-4.502,20.035-11.472,28.41c-0.171,0.205-0.336,0.443-0.51,0.696    c-0.576,0.824-1.228,1.763-2.317,1.777H85.638z M99.666,53.204c-0.024,0-0.054,0.003-0.084,0.006    c-1.791,4.55-4.398,10.333-8.637,14.64c-0.557,4.06-1.885,8.215-4.059,12.699c-0.132,0.272-0.305,0.556-0.485,0.853    c-0.535,0.87-1.14,1.858-0.749,2.84c1.078-0.021,1.726-0.952,2.296-1.771c0.173-0.251,0.34-0.489,0.511-0.695    c6.968-8.375,10.718-17.66,11.466-28.396C99.891,53.264,99.807,53.204,99.666,53.204z"/>
	</g>
	<g>
		<path fill-rule="evenodd" clip-rule="evenodd" d="M11.551,61.492c3.284,6.536,7.742,11.896,13.408,16.055    c0.05,5.537,2.087,10.027,3.528,13.582c-2.25,0.502-4.904-0.003-6.88-0.352c-5.938-4.207-11.175-9.887-14.995-16.761    c-1.958-3.522-3.8-6.811-3.706-12.349C5.479,61.917,9.233,62.061,11.551,61.492z"/>
		<path fill="#000000" d="M26.371,91.35c-1.58,0-3.215-0.287-4.53-0.52l-0.235-0.043c-6.134-4.345-11.322-10.141-15.003-16.765    l-0.029-0.049c-1.939-3.495-3.773-6.792-3.676-12.306v-0.011l0.01,0.003c1.032,0.098,2.621,0.217,4.327,0.217    c1.796,0,3.249-0.131,4.314-0.396c3.294,6.541,7.804,11.939,13.417,16.057c0.048,5.103,1.782,9.322,3.176,12.714    c0.121,0.298,0.24,0.59,0.356,0.874l0.003,0.01l-0.011,0.003C27.862,91.279,27.148,91.35,26.371,91.35z M2.917,61.679    c-0.095,5.503,1.736,8.797,3.675,12.284l0.028,0.049c3.679,6.621,8.865,12.415,14.993,16.76l0.231,0.037    c1.314,0.232,2.948,0.522,4.527,0.522c0.772,0,1.479-0.07,2.104-0.208c-0.114-0.281-0.232-0.568-0.353-0.86    c-1.393-3.396-3.126-7.616-3.172-12.716c-5.61-4.109-10.122-9.514-13.408-16.049c-1.056,0.265-2.508,0.4-4.307,0.4    C5.533,61.898,3.951,61.779,2.917,61.679z"/>
	</g>
	<g>
		<path fill-rule="evenodd" clip-rule="evenodd" d="M49.48,99.422c-0.098-0.257,0.206-0.912-0.176-0.882    c6.89-1.579,13.119-3.813,16.933-8.467c7.629-0.314,13.904-1.977,18.173-5.648c2.143,0.734-1.012,2.638-2.294,3.706    C74.461,94.499,62.665,100.461,49.48,99.422z"/>
		<path fill="#000000" d="M52.497,99.551c-1.006,0-2.021-0.043-3.018-0.118c-0.044-0.103-0.026-0.254-0.006-0.403    c0.021-0.175,0.044-0.354-0.027-0.435c-0.029-0.036-0.073-0.043-0.141-0.043l-0.003-0.023c6.084-1.393,12.852-3.488,16.931-8.462    c8.202-0.339,14.145-2.184,18.172-5.646c0.449,0.146,0.692,0.356,0.735,0.623c0.114,0.709-1.19,1.697-2.235,2.486    c-0.29,0.222-0.564,0.427-0.783,0.609C77.999,91.569,66.857,99.551,52.497,99.551z M49.375,98.534    c0.035,0.006,0.064,0.021,0.087,0.046c0.075,0.091,0.052,0.274,0.029,0.452c-0.019,0.146-0.037,0.292-0.003,0.384    c0.989,0.076,2.003,0.113,3.009,0.113c14.354,0,25.491-7.976,29.613-11.407c0.217-0.181,0.492-0.386,0.782-0.607    c1.041-0.788,2.339-1.769,2.229-2.468c-0.043-0.259-0.283-0.465-0.714-0.61c-4.021,3.462-9.968,5.31-18.17,5.646    C62.181,95.037,55.445,97.139,49.375,98.534z"/>
	</g>
	<g>
		<path d="M50.111,99.666c-27.542,0-49.948-22.406-49.948-49.949c0-27.542,22.406-49.95,49.948-49.95    c27.542,0,49.948,22.408,49.948,49.95C100.059,77.26,77.653,99.666,50.111,99.666z M50.111,1.152    c-26.777,0-48.563,21.786-48.563,48.565c0,26.777,21.786,48.563,48.563,48.563c26.779,0,48.562-21.786,48.562-48.563    C98.673,22.938,76.89,1.152,50.111,1.152z"/>
	</g>
</g>
</svg>