<svg xmlns="http://www.w3.org/2000/svg" xmlns:xlink="http://www.w3.org/1999/xlink" version="1.1" id="Livello_1" x="0px" y="0px" width="100px" height="100px" viewBox="0 0 100 100" enable-background="new 0 0 100 100" xml:space="preserve">
<polygon points="71.421,50.175 62.64,33.619 67.742,33.59 56.676,17.041 61.774,17.014 49.922,0.466 37.879,17.134 42.978,17.111   32.082,33.776 37.179,33.746 28.573,50.4 47.26,50.306 47.298,57.751 53.024,57.718 52.987,50.272 "/>
<g>
	<path d="M8.603,25.314c1.104-1.18,2.339-1.775,3.698-1.775c1.347,0,2.622,0.596,3.813,1.775c1.193,1.194,1.796,2.974,1.796,5.347   v20.313c-1.426,0.155-2.773,0.752-4.039,1.776c-1.266,1.03-1.901,2.208-1.901,3.557c0,1.028,0.277,1.933,0.83,2.725l6.796,11.264   V69.11l-6.292-10.392c-0.553-0.714-0.83-1.453-0.83-2.248c0-0.706,0.193-1.353,0.589-1.941c0.4-0.594,0.911-1.124,1.547-1.602   c0.632-0.475,1.326-0.842,2.077-1.124c0.753-0.27,1.445-0.41,2.079-0.41c1.262,0,2.326,0.568,3.198,1.691l15.977,21.851   c1.101,1.579,1.904,3.484,2.417,5.698c0.518,2.214,0.771,4.241,0.771,6.058v12.843H21.286V88.822c0-1.109-0.256-2.131-0.765-3.092   c-0.509-0.941-0.882-1.572-1.112-1.894c-2.825-4.04-5.081-7.277-6.771-9.73c-1.686-2.466-2.939-4.46-3.765-5.997   c-0.823-1.546-1.356-2.816-1.591-3.805c-0.237-0.991-0.349-2.038-0.349-3.145V30.661C6.933,28.288,7.487,26.509,8.603,25.314   L8.603,25.314z"/>
	<path d="M93.067,61.16c0,1.106-0.117,2.153-0.349,3.145c-0.232,0.988-0.765,2.256-1.612,3.805c-0.84,1.537-2.075,3.531-3.688,5.997   c-1.61,2.453-3.799,5.69-6.558,9.73c-0.313,0.321-0.674,0.952-1.095,1.894c-0.419,0.961-0.635,1.982-0.635,3.092v10.712H59.288   V86.691c0-1.816,0.251-3.844,0.763-6.058c0.517-2.214,1.32-4.119,2.43-5.698l15.742-21.851c0.871-1.123,1.969-1.691,3.318-1.691   c1.346,0,2.711,0.53,4.098,1.595c1.389,1.063,2.079,2.344,2.079,3.842c0,0.792-0.2,1.418-0.593,1.889L80.709,69.11v1.186   l6.788-11.264c0.234-0.391,0.395-0.772,0.479-1.132c0.074-0.354,0.111-0.73,0.111-1.124c0-1.497-0.591-2.797-1.777-3.901   c-1.189-1.108-2.455-1.745-3.801-1.9V30.661c0-2.373,0.55-4.152,1.648-5.347c1.091-1.18,2.296-1.775,3.629-1.775   c1.327,0,2.54,0.596,3.639,1.775c1.09,1.194,1.641,2.974,1.641,5.347V61.16L93.067,61.16z"/>
</g>
</svg>