<svg xmlns="http://www.w3.org/2000/svg" xmlns:xlink="http://www.w3.org/1999/xlink" version="1.1" id="Livello_1" x="0px" y="0px" width="100px" height="100px" viewBox="0 0 100 100" enable-background="new 0 0 100 100" xml:space="preserve">
<g>
	<path d="M90.65,44.942c0.258-1.13,0.404-2.413,0.404-3.872H64.25l12.954-8.726c0,0,2.902-3.241,2.577-3.729L76.3,30.895   c-0.367-0.561,3.472-2.306,3.472-2.306c-0.326-0.486-4.445,0.909-4.445,0.909l-13.953,9.026c3.19-4.594,8.875-11.907,14.137-14.225   l-0.032-0.032c-0.569-0.578-5.62,0.335-5.62,0.335L59.575,34.7l5.244-12.977c0,0-1.776-0.96,0.652-4.28l-0.036-0.018   c-0.768-0.309-5.052,2.507-5.052,2.507l-5.263,12.529V20.396c0,0-1.553-4.22-2.37-4.22h-0.045c-0.817,0-2.37,4.22-2.37,4.22v15.195   c-8.208,0-27.352,0-27.352,0s-7.365,0-7.365,10.273c0,2.411,0.798,4.034,1.868,5.127l-0.001,0.337l-2.602,2.6   c0,0-17.217,17.22-14.48,19.958l0.056,0.045c2.733,2.737,19.944-14.475,19.944-14.475l3.117-3.117l0.313,0.021   c0,10.293,0,22.656,0,22.678c0,0.91,0.703,4.785,6.507,4.785c-0.096-0.587-1.937-0.188-1.937-4.28c0-0.876,1.946-0.913,1.946-2.663   c0-0.974-1.946-1.662-1.946-2.59c0-1.309,1.946-1.065,1.946-2.627c0-1.689-1.946-1.621-1.946-2.635   c0-1.984,1.946-0.947,1.946-2.774c0-1.479-1.946-0.891-1.946-2.489c0-1.037,1.946-1.336,1.946-2.658   c0-1.148-1.946-1.483-1.946-2.604c0-1.424,1.946-1.322,1.946-2.653c0-0.167-0.03-0.311-0.083-0.438l0.493-0.043   c7.818,7.817,18.078,18.078,18.087,18.092c3.867,3.862,7.684-1.915,3.215-6.397c-0.726-0.715-2.659,0.212-3.348-0.477   c-0.95-0.96,0.657-2.214-0.496-3.362c-1.254-1.258-2.636,0.23-3.384-0.522c-1.461-1.461,0.734-2.122-0.616-3.472   c-1.084-1.094-2.09,0.766-3.265-0.405c-0.768-0.766,0.437-2.42-0.537-3.397c-0.841-0.846-2.517,0.34-3.344-0.486   c-0.422-0.423-0.43-0.896-0.353-1.375l0.292-0.325h43.843c0,0,1.364,0,3.096-0.595l0.224-0.081c0.373,2.746,3.091,5.935,3.78,5.241   c0.813-0.809,0.115-1.612,0.115-1.612c-0.652-0.639-1.612-2.575-0.377-3.815c1.235-1.231,3.384-2.2,5.639,0.059   c3.104,3.118-0.335,5.562-0.335,5.562l1.139,6.09l4.35-4.35c3.815-3.816-1.347-8.105-1.347-8.105l-6.526-6.529L90.65,44.942z"/>
</g>
</svg>