<svg xmlns="http://www.w3.org/2000/svg" xmlns:xlink="http://www.w3.org/1999/xlink" version="1.1" id="Layer_1" x="0px" y="0px" width="83.334px" height="100px" viewBox="0 0 83.334 100" enable-background="new 0 0 83.334 100" xml:space="preserve">
<path fill="#000000" d="M41.666,10.666C20.864,10.666,4,27.53,4,48.333C4,69.135,20.864,86,41.666,86  c20.804,0,37.667-16.865,37.667-37.667C79.333,27.53,62.47,10.666,41.666,10.666z M41.666,81.689  c-18.455,0-33.417-14.934-33.417-33.356c0-8.473,3.172-16.204,8.387-22.087l9.588,9.577c0.307,8.02,6.508,14.525,14.405,15.285  v22.297c-8.1,0.061-14.433,0.603-14.433,1.263c0,0.7,7.154,1.268,15.979,1.268c8.825,0,15.979-0.569,15.979-1.268  c0-0.662-6.334-1.202-14.432-1.263V53.3l20.055,20.033C57.886,78.53,50.146,81.689,41.666,81.689z M31.32,40.914h-1.295  c-0.333-0.669-0.592-1.376-0.809-2.101L31.32,40.914z M28.996,32.38c0.457-2.009,1.377-3.85,2.66-5.399h21.037  c1.866,2.252,2.988,5.11,2.988,8.226c0,2.048-0.496,3.979-1.357,5.708H37.54L28.996,32.38z M66.875,70.217L47.048,50.411  c6.438-2.062,11.106-8.081,11.106-15.205c0-4.431-1.816-8.426-4.729-11.319h-22.5c-1.797,1.785-3.173,3.991-3.966,6.458l-7.197-7.19  c5.866-5.089,13.522-8.177,21.904-8.177c18.454,0,33.418,14.933,33.418,33.355C75.084,56.709,71.982,64.357,66.875,70.217z"/>
</svg>