<svg xmlns="http://www.w3.org/2000/svg" xmlns:xlink="http://www.w3.org/1999/xlink" version="1.1" id="Layer_1" x="0px" y="0px" width="100px" height="100px" viewBox="0 0 100 100" enable-background="new 0 0 100 100" xml:space="preserve">
<path d="M58.271,42.83L58.271,42.83l0.5-0.893l-8.749-7.894l-2.055,1.693l-8.562-7.838c0,0-2.861,2.7-2.797,3.11  c0.107,0.718,8.086,7.948,8.086,7.948l-1.527,2.059c0,0-7.209,10.184-16.847,2.388c0,0-7.679-7.345,3.886-17.75l1.176,0.913  l3.122-3.104l-1.579-1.635l-0.254-0.005l-2.825-2.843c0,0-0.538,0.103-0.767,0.389s-3.386,3.159-3.475,3.157  c-0.09-0.001-10.21,4.938-10.705,5.154c-0.495,0.214-3.274,5.775-3.39,8.566c-0.115,2.792-1.534,11.52,10.555,18.822  c0,0,12.4,6.533,22.513-2.706c0,0,2.377-2.334,5.527-1.802l1.673-0.874l0,0C53.601,47.059,55.698,44.683,58.271,42.83z"/>
<path d="M75.437,56.681H75.39l-9.768-8.895l-3.013-2.036l-0.375-0.062l-3.052-2.643c-2.541,1.897-4.288,3.977-6.065,6.638  l2.968,3.007v0.178l1.957,2.899l10.01,8.938l0,0l0,0C69.752,61.369,72.344,58.803,75.437,56.681z"/>
<path d="M86.56,67.23l0.53-0.34l-10.715-9.828l-0.563,0.303c-3.093,2.122-6.399,5.496-7.562,8.76l10.791,9.904  C79.932,71.67,83.458,68.868,86.56,67.23z"/>
<path d="M88.755,72.281c0.688-0.719,1.781-0.188,1.781-0.188l5.012,4.531c0.452,0.719-0.105,1.122-0.105,1.122  c-0.426,0.548-3.455,3.879-4,4.284c-0.797,0.594-1.903,0.069-1.903,0.069s-3.766-3.165-4.538-4.099  c-0.765-0.924,0.181-1.76,0.181-1.76l-1.49-1.16c-2.087,1.46-3.337,1.252-3.337,1.252l-0.088-0.08  c0.857-3.969,4.384-6.771,7.485-8.408l-0.01,0.027c0.895,0.893-0.388,3.21-0.388,3.21l-0.021-0.146L88.755,72.281z"/>
<path fill="none" d="M22.125,15.375"/>
<path fill="none" d="M16.475,18.647"/>
<path fill="none" d="M90.612,84.854"/>
</svg>