<svg xmlns="http://www.w3.org/2000/svg" xmlns:xlink="http://www.w3.org/1999/xlink" version="1.1" id="Layer_1" x="0px" y="0px" width="100px" height="100px" viewBox="0 0 100 100" enable-background="new 0 0 100 100" xml:space="preserve">
<path d="M25.646,73.027L3.777,95.574c0,0,0,3.365,3.45,2.551l21.492-21.998C28.719,76.127,26.583,75.166,25.646,73.027z"/>
<path d="M25.059,68.877c0,0-0.15,7.352,8.399,7.875C33.458,76.752,26.971,71.354,25.059,68.877z"/>
<path d="M26.214,65.373c0,0-2.664-0.508-1.698,1.432c0,0,7.44,8.697,11.177,9.777c0,0,4.58,1.412-0.88-3.896  C29.352,67.377,26.522,65.277,26.214,65.373z"/>
<path d="M73.922,29.677L51.034,56.203l-8.95,9.699l-6.95,5.4l-2.031-1.932"/>
<path d="M72.034,27.438"/>
<path d="M72.034,27.438c2.325,1.989,1.909,2.22,1.888,2.239L51.034,56.203l-8.95,9.699l-6.95,5.4l-2.031-1.932L72.034,27.438z"/>
<path d="M71.153,26.644c-2.319-2.018-2.363-1.729-2.38-1.705L44.126,49.836l-8.968,9.683l-4.838,7.354l2.084,1.873L71.153,26.644z"/>
<path d="M70.664,23.312l17.61-16.941l1.209,0.955L72.825,24.912C72.825,24.912,72.066,24.253,70.664,23.312z"/>
<polygon points="73.746,25.495 75.663,27.438 91.35,8.932 90.284,8.052 "/>
<path d="M88.685,5.052l4.2,3.324l2.975-3.524c0,0,0.725-1.1,0.125-1.85c-0.601-0.75-1.95-1.65-1.95-1.65s-1.1-0.756-2.2,0.45  C90.689,3.056,88.685,5.052,88.685,5.052z"/>
<path d="M4.24,94.373"/>
</svg>