<svg xmlns="http://www.w3.org/2000/svg" xmlns:xlink="http://www.w3.org/1999/xlink" version="1.1" id="Layer_4" x="0px" y="0px" width="100px" height="100px" viewBox="0 0 100 100" enable-background="new 0 0 100 100" xml:space="preserve">
<path opacity="0.54" d="M50.122,78.167c-0.021,0-0.04-0.002-0.061-0.002s-0.04,0.002-0.061,0.002H50.122z"/>
<path d="M85.682,66.366c-8.941-0.549-23.643-13.033-19.008-34.028S50.061,11.375,50.061,11.375s-21.248-0.031-16.613,20.963  S23.382,65.817,14.44,66.366c0,0-7.478,0.585-4.905,4.225l6.297,8.908c0,0,0.771,1.939,5.777-0.749c0,0,21.728-9.479,23.308-21.834  L43.25,75.25c0,0-0.168,2.897,6.811,2.915c6.979-0.018,6.811-2.915,6.811-2.915l-1.669-18.334  c1.58,12.355,23.309,21.834,23.309,21.834c5.006,2.688,5.777,0.749,5.777,0.749l6.297-8.908  C93.159,66.951,85.682,66.366,85.682,66.366z M43.125,52.75C35.5,39.312,35.32,28.125,35.32,28.125  C36.041,13.368,50,13.369,50,13.369s14.584,0.213,14.802,15.297c0,0,0.365,9.584-7.76,23.917c0,0-1.732,2.917-6.981,2.919  C44.56,55.504,43.125,52.75,43.125,52.75z"/>
<polygon points="49.477,15 50.523,15 50.523,19.703 60.186,19.703 60.186,20.766 50.531,20.766 50.531,25.703 63,25.703 63,26.734   50.531,26.734 50.547,31.469 62.25,31.469 62.25,32.484 50.516,32.484 50.516,37.594 61.498,37.594 61.498,38.656 50.5,38.656   50.5,43.859 59.532,43.859 59.532,44.875 50.5,44.875 50.5,49.5 56.373,49.5 56.373,50.5 50.5,50.5 50.5,53.334 49.477,53.334   49.477,50.5 43.749,50.484 43.749,49.5 49.484,49.469 49.516,44.859 40.218,44.891 40.218,43.875 49.5,43.859 49.484,38.594   38.623,38.625 38.623,37.625 49.484,37.609 49.5,32.484 37.5,32.438 37.5,31.516 49.5,31.484 49.484,26.75 36.875,26.75   36.875,25.766 49.5,25.734 49.469,20.75 39.936,20.672 39.936,19.734 49.484,19.75 "/>
</svg>