<?xml version="1.0" encoding="utf-8"?>
<!-- Generator: Adobe Illustrator 14.0.0, SVG Export Plug-In . SVG Version: 6.00 Build 43363)  -->
<!DOCTYPE svg PUBLIC "-//W3C//DTD SVG 1.0//EN" "http://www.w3.org/TR/2001/REC-SVG-20010904/DTD/svg10.dtd">
<svg version="1.0" id="Layer_1" xmlns="http://www.w3.org/2000/svg" xmlns:xlink="http://www.w3.org/1999/xlink" x="0px" y="0px"
	 width="99.379px" height="88.872px" viewBox="0 0 99.379 88.872" enable-background="new 0 0 99.379 88.872" xml:space="preserve">
<path fill-rule="evenodd" clip-rule="evenodd" d="M98.981,44.267c-0.426-4.137-0.426-3.542-1.985-8.021
	c-1.59-4.538-4.946-13.421-7.346-18.674c-2.458-5.311-5.062-9.849-6.962-12.647c-1.883-2.796-2.384-3.035-4.165-3.808
	c-1.84-0.79-4.194-0.656-6.55-0.804C69.634,0.103,67.19,0,64.585,0H34.913c-2.664,0-5.167,0.103-7.507,0.312
	c-2.369,0.148-4.783,0.014-6.564,0.804c-1.81,0.772-2.325,1.011-4.165,3.808c-1.943,2.798-4.504,7.336-6.948,12.647
	c-2.428,5.253-5.784,14.136-7.344,18.674c-1.575,4.479-1.633,3.884-2.001,8.021C-0.014,48.432-0.765,56.332,0,60.737
	c0.723,4.256,2.517,7.142,4.755,9.225c2.221,2.067,5.048,3.14,8.536,3.215c-0.192,4.389-0.192,7.781,0,10.236
	c0.103,2.427-0.073,3.497,1,4.419c1.089,0.879,3.872,0.923,5.563,0.997c1.664,0.104,3.459,0.06,4.371-0.596
	c0.854-0.743,0.604-1.31,0.781-3.825c0.147-2.587,0.235-6.338,0.206-11.425h48.644c0.118,5.087,0.267,8.838,0.501,11.425
	c0.192,2.516-0.073,3.082,0.794,3.825c0.899,0.655,2.637,0.7,4.357,0.596c1.648-0.074,4.429-0.118,5.563-0.997
	c1.03-0.922,0.855-1.992,1.001-4.419c0.162-2.455,0.162-5.848,0-10.236c3.474-0.075,6.3-1.147,8.538-3.215
	c2.222-2.083,4.003-4.969,4.768-9.225C100.056,56.332,99.395,48.432,98.981,44.267z M14.411,62.334
	c-5.151,0-9.332-4.227-9.332-9.433c0-5.208,4.18-9.434,9.332-9.434c5.15,0,9.33,4.226,9.33,9.434
	C23.741,58.107,19.561,62.334,14.411,62.334z M62.944,60.528H36.437c-2.769,0-5.013-1.529-5.013-3.415
	c0-1.885,2.244-3.414,5.013-3.414h26.507c2.769,0,5.013,1.529,5.013,3.414C67.957,58.999,65.712,60.528,62.944,60.528z
	 M62.944,51.288H36.437c-2.769,0-5.013-1.525-5.013-3.407s2.244-3.407,5.013-3.407h26.507c2.769,0,5.013,1.525,5.013,3.407
	S65.712,51.288,62.944,51.288z M67.19,33.433c-7.728,0.029-27.7,0.029-35.338,0c-7.581-0.06-6.918,0.061-9.935-0.208
	c-3.048-0.269-6.609-0.521-8.14-1.398c-1.531-0.954-1.354-2.026-1-4.019c0.367-2.04,1.648-5.058,2.987-8.034
	c1.295-3.035,3.194-7.5,4.563-9.836c1.295-2.35,1.928-3.154,3.37-4.017c1.428-0.878,3.209-1.011,5.167-1.205
	c1.914-0.253,4.033-0.298,6.358-0.195h28.923c2.31-0.103,4.431-0.058,6.357,0.195c1.913,0.193,3.694,0.326,5.167,1.205
	c1.429,0.863,2.001,1.667,3.371,4.017c1.369,2.336,3.237,6.801,4.576,9.836c1.251,2.976,2.62,5.994,2.973,8.034
	c0.324,1.993,0.501,3.065-1,4.019c-1.575,0.877-5.063,1.13-8.139,1.398C74.358,33.494,74.799,33.374,67.19,33.433z M84.96,62.334
	c-5.151,0-9.332-4.227-9.332-9.433c0-5.208,4.181-9.434,9.332-9.434c5.15,0,9.331,4.226,9.331,9.434
	C94.292,58.107,90.111,62.334,84.96,62.334z"/>
</svg>
