<svg xmlns="http://www.w3.org/2000/svg" xmlns:xlink="http://www.w3.org/1999/xlink" version="1.0" id="Layer_1" x="0px" y="0px" width="70.695px" height="100px" viewBox="0 0 70.695 100" enable-background="new 0 0 70.695 100" xml:space="preserve">
<path d="M64.951,55.486l-3.748-3.747l-4.998,4.997l-5.002-4.997l-3.748,3.747l4.998,5l-4.998,4.998l3.748,3.75l5.002-4.996  l4.998,4.996l3.748-3.75l-5-4.998L64.951,55.486z M39.098,60.486l5-5l-3.75-3.747l-5,4.997l-4.997-4.997l-3.752,3.747l5.002,5  l-5.002,4.998l3.752,3.75l4.997-4.996l5,4.996l3.75-3.75L39.098,60.486z M18.241,60.486l5-5l-3.751-3.747l-4.999,4.997l-4.998-4.997  l-3.751,3.747l5.001,5l-5.001,4.998l3.751,3.75l4.998-4.996l4.999,4.996l3.751-3.75L18.241,60.486z M70.695,74.893H0v18.039  C0,96.833,3.165,100,7.068,100l0,0h56.559c3.902,0,7.068-3.167,7.068-7.068l0,0V74.893z M54.791,14.713  c0-2.926,2.375-5.301,5.303-5.301c2.926,0,5.303,2.375,5.303,5.301l0,0c0,2.928-2.377,5.303-5.301,5.303  C57.166,20.016,54.791,17.641,54.791,14.713L54.791,14.713z M66.555,28.677l-3.719-3.719c4.635-1.243,7.857-5.445,7.857-10.245  c0-5.852-4.752-10.604-10.604-10.604c-4.803,0-9.002,3.225-10.243,7.86l0,0l-0.902-0.903c-0.665-0.663-1.035-1.562-1.035-2.498  c0-0.938,0.37-1.837,1.035-2.5l0,0c0.665-0.662,1.035-1.562,1.035-2.501l0,0c0-1.95-1.582-3.533-3.535-3.533l0,0h-22.2  c-1.948,0-3.533,1.583-3.533,3.533l0,0c0,0.939,0.372,1.839,1.035,2.501l0,0c0.663,0.663,1.034,1.563,1.034,2.5  s-0.371,1.835-1.034,2.498l0,0L4.141,28.677C1.487,31.328,0,34.924,0,38.675l0,0v7.408h70.695v-7.408  C70.695,34.924,69.205,31.328,66.555,28.677L66.555,28.677z"/>
</svg>