<svg xmlns="http://www.w3.org/2000/svg" xmlns:xlink="http://www.w3.org/1999/xlink" version="1.1" id="Layer_1" x="0px" y="0px" width="88.926px" height="100px" viewBox="0 0 88.926 100" enable-background="new 0 0 88.926 100" xml:space="preserve">
<g>
	<path d="M88.802,24.019c-0.576-2.373-2.972-3.83-5.337-3.256l-23.567,5.71c-0.233,0.056-0.463,0.132-0.684,0.227l-18.093,7.669   l-7.463-9.241l5.687,2.116c0.374,0.14,0.766,0.21,1.155,0.21c0.633,0,1.263-0.182,1.807-0.537l15.283-9.942   c1.533-0.998,1.969-3.051,0.97-4.585c-0.999-1.535-3.051-1.969-4.585-0.971l-13.883,9.034l-14.434-5.372   c-0.407-0.153-0.827-0.214-1.237-0.204c-0.52-0.179-1.071-0.274-1.637-0.274c-1.133,0-2.24,0.391-3.122,1.104l-9.455,7.632   c-0.524,0.425-0.948,0.939-1.258,1.516c-0.334,0.292-0.618,0.654-0.818,1.082L0.314,42.526c-0.52,1.107-0.388,2.414,0.345,3.396   c0.631,0.846,1.619,1.332,2.654,1.332c0.167,0,0.337-0.014,0.503-0.041l17.147-2.635l4.458,5.52c0.703,0.87,1.66,1.464,2.724,1.717   L31.06,70.02l-3.587,24.932c-0.348,2.413,1.329,4.651,3.744,5c0.214,0.032,0.425,0.049,0.635,0.049   c2.162-0.007,4.052-1.591,4.369-3.792l3.681-25.595c0.065-0.439,0.062-0.886-0.011-1.329l-3.469-21.678l4.294-3.465l21.613-9.164   l23.218-5.624C87.916,28.778,89.375,26.389,88.802,24.019z M8.967,39.715l2.973-6.315l4.208,5.211L8.967,39.715z"/>
	<circle cx="9.568" cy="8.672" r="8.672"/>
</g>
</svg>