<svg xmlns="http://www.w3.org/2000/svg" xmlns:xlink="http://www.w3.org/1999/xlink" version="1.1" id="Layer_1" x="0px" y="0px" width="100px" height="100px" viewBox="0 0 100 100" enable-background="new 0 0 100 100" xml:space="preserve">
<circle fill="#000000" cx="21.172" cy="49.464" r="7"/>
<circle fill="#000000" cx="78.828" cy="49.464" r="7"/>
<path fill="#000000" d="M99.457,48.606c-0.453-11.016-9.502-19.814-20.629-19.814c-2.979,0-5.804,0.643-8.362,1.777  c-0.008-0.001-0.016-0.003-0.023-0.004c-5.47,2.749-12.158,5.269-19.942,5.269c-7.762,0-15.113-1.989-20.699-5.241  c-0.052,0.01-0.103,0.021-0.154,0.03c-2.588-1.166-5.451-1.831-8.474-1.831c-11.133,0-20.186,8.808-20.63,19.832  C0.516,48.902,0.5,49.183,0.5,49.464c0,0.275,0.016,0.551,0.042,0.825c0.437,11.031,9.492,19.848,20.631,19.848  c2.647,0,5.17-0.517,7.497-1.424c0.012,0.003,0.023,0.006,0.035,0.008c0.059-0.028,0.119-0.057,0.178-0.085  c0.833-0.336,1.639-0.721,2.414-1.158c5.129-2.452,11.022-5.051,17.918-5.051c7.568,0,14.097,2.374,19.608,5.121  c0.263,0.146,0.536,0.273,0.805,0.407c0.232,0.119,0.466,0.238,0.694,0.358c0.012-0.002,0.023-0.005,0.035-0.007  c2.588,1.166,5.45,1.83,8.473,1.83c11.134,0,20.186-8.809,20.63-19.834c0.026-0.278,0.042-0.558,0.042-0.839  C99.5,49.177,99.483,48.891,99.457,48.606z M21.173,63.466c-7.733,0-14.001-6.27-14.001-14.003c0-7.73,6.269-14,14.001-14  c7.731,0,13.999,6.27,13.999,14C35.172,57.196,28.905,63.466,21.173,63.466z M78.828,63.464c-7.73,0-14-6.267-14-14  c0-7.729,6.27-14,14-14c7.733,0,14,6.271,14,14C92.828,57.197,86.562,63.464,78.828,63.464z"/>
</svg>