<svg xmlns="http://www.w3.org/2000/svg" xmlns:xlink="http://www.w3.org/1999/xlink" version="1.1" id="Layer_1" x="0px" y="0px" width="100px" height="100px" viewBox="0 0 100 100" enable-background="new 0 0 100 100" xml:space="preserve">
<path fill="#000000" d="M5.65,60.162c0,0-7.006,7.003-4.931,10.012c2.075,3.007,10.047-0.277,11.578-1.613  C13.091,67.869,6.475,61.244,5.65,60.162z"/>
<path fill="#000000" d="M6.488,58.703c1.065,1.17,6.974,8.143,7.833,9.45c0.557,0.849,8.083,0.321,9.621-0.647  c1.539-0.967,3.076-1.726,3.219-2.423c0.143-0.694-12.753-13.516-13.519-13.799c-0.765-0.284-5.036,0.948-7.153,7.14"/>
<path fill="#000000" d="M25.754,40.893c-4.187,0.954-9.647,5.595-10.988,8.794c-0.529,1.263,5.106,5.462,6.284,6.653  c1.363,1.379,6.782,7.019,7.717,8.195c0.26,0.327,5.994-0.248,8.02-1.144c2.026-0.896,3.007-1.936,3.007-1.936L25.754,40.893z"/>
<path fill="#000000" d="M94.469,60.07c0,0,6.932,7.076,4.825,10.061c-2.106,2.987-9.738-0.834-11.562-1.732  C86.688,67.882,93.632,61.135,94.469,60.07z"/>
<path fill="#000000" d="M93.645,58.602c-0.504,1.19-7.646,8.394-7.929,9.366c-0.284,0.976-8.087,0.239-9.614-0.745  c-1.528-0.984-3.058-1.759-3.193-2.456c-0.135-0.698,12.895-13.385,13.662-13.659c0.767-0.274,5.024,1.003,7.076,7.217"/>
<path fill="#000000" d="M74.568,40.591c4.176,0.997,9.587,5.696,10.896,8.908c0.516,1.269-5.559,5.364-6.706,6.585  c-1.143,1.219-7.447,7.697-7.449,8.115c-0.002,0.42-5.992-0.309-8.009-1.226s-2.987-1.967-2.987-1.967L74.568,40.591z"/>
<path fill="#000000" d="M72.613,40.548c-7.204,9.381-12.314,23.209-23.358,23.151c-9.473-0.05-16.178-15.056-21.528-22.55  c-4.78-6.696,8.693-12.344,22.087-12.273C63.209,28.946,77.626,34.023,72.613,40.548z"/>
</svg>