<svg xmlns="http://www.w3.org/2000/svg" xmlns:xlink="http://www.w3.org/1999/xlink" version="1.1" id="Layer_1" x="0px" y="0px" width="100px" height="100px" viewBox="0 0 100 100" enable-background="new 0 0 100 100" xml:space="preserve">
<polygon fill="#000000" points="26.723,9.984 18.751,12.063 12.183,1.667 23.33,1.667 "/>
<polygon fill="#000000" points="76.283,9.984 84.154,12.063 89.625,1.667 78.479,1.667 "/>
<g>
	<path fill="#000000" d="M75.332,12.286c-6.341-1.529-8.416,6.149-10.755,10.716c-1.495-4.815-8.595-5.759-12.775-5.579   c-4.562,0.197-11.334,1.83-13.269,6.611c-2.187-3.826-4.195-12.6-9.949-12.037c-2.897,0.283-5.9,1.588-8.695,2.369   c0.57,0.924,0.633,1.871,1.76,1.543c1.402-0.408,2.804-0.817,4.206-1.225c0.91-0.265,1.95-0.741,2.916-0.768   c2.107-0.059,3.753,2.182,4.69,3.79c1.239,2.126,1.414,4.668,2.716,6.73c0.797,1.262,1.792,1.653,2.304,2.981   c1.544,4.003,7.122,5.158,10.873,5.291c4.75,0.168,10.625-1.017,13.902-4.773c0.877-1.006,1.891-1.876,2.715-2.921   c1.474-1.868,1.591-4.342,2.743-6.383c1.809-3.205,4.257-5.203,7.854-4.155c1.458,0.425,2.916,0.85,4.374,1.274   c1.444,0.421,1.341-0.084,2.171-1.385C80.521,13.672,77.926,12.979,75.332,12.286 M42.313,27.745   c-2.45,0.207-2.769-3.591-0.319-3.798C44.443,23.74,44.762,27.54,42.313,27.745 M60.961,26.178   c-2.448,0.206-2.766-3.592-0.318-3.798C63.094,22.173,63.411,25.971,60.961,26.178"/>
	<path fill="#000000" d="M73.369,16.129C69,24.626,64.553,33.096,59.794,41.382c-1.955,3.406-3.909,6.896-6.298,10.025   c-1.22,1.598-1.949,2.445-3.443,0.742c-5.664-6.458-9.538-15.049-13.6-22.542c-2.189-4.038-4.34-8.098-6.462-12.171   c-0.868-1.666-1.362-0.976-3.109-0.467c-1.528,0.445-3.055,0.89-4.583,1.335c5.414,8.903,10.744,17.869,15.742,27.014   c2.198,4.023,4.424,8.085,6.168,12.333c1.13,2.753,0.906,4.651,0.791,7.571c-0.379,9.59-0.031,19.224,0.202,28.814   c0.024,1.007,0.059,2.014,0.067,3.021c0.012,1.49,3.309,1.565,4.238,1.609c1.858,0.086,3.964,0.039,5.717-0.655   c1.156-0.457,0.945-1.128,0.921-2.171c-0.167-6.996-0.032-14.007,0.004-21.004c0.019-3.504,0.04-7.008,0.051-10.512   c0.006-2.097,0.029-3.646,0.858-5.591c2.925-6.859,7.007-13.313,10.816-19.701c4.165-6.984,8.442-13.901,12.778-20.781   C78.226,17.544,75.797,16.837,73.369,16.129"/>
</g>
</svg>