<svg xmlns="http://www.w3.org/2000/svg" xmlns:xlink="http://www.w3.org/1999/xlink" version="1.1" id="Layer_1" x="0px" y="0px" width="100px" height="100px" viewBox="0 0 100 100" enable-background="new 0 0 100 100" xml:space="preserve">
<path d="M0,51.931c0,3.438,3.591,6.224,8.021,6.224h66.965C77.338,61.104,80.955,63,85.021,63h11.765V37.334H85.021  c-4.065,0-7.683,1.896-10.034,4.845H8.021C3.591,42.179,0,44.966,0,48.403V51.931z"/>
<g>
	<path d="M98.389,45.656v9.021c0.958-0.9,1.604-2.581,1.604-4.51C99.993,48.238,99.347,46.558,98.389,45.656z"/>
</g>
<g>
	<path d="M68.502,40.575l-0.459-0.714c0-0.473-0.638-0.856-1.424-0.856h-8.181c-0.786,0-1.424,0.383-1.424,0.856l-0.459,0.714   H68.502z"/>
</g>
</svg>