<svg xmlns="http://www.w3.org/2000/svg" xmlns:xlink="http://www.w3.org/1999/xlink" version="1.1" id="Layer_1" x="0px" y="0px" width="100px" height="100px" viewBox="0 0 100 100" enable-background="new 0 0 100 100" xml:space="preserve">
<path d="M65.487,61.505l-0.294-0.241H55.27l-0.301,0.238c-0.063,0.051-0.102,0.126-0.103,0.208l-0.444,33.325  c0,2.738,1.788,4.965,3.987,4.965h3.648c2.197,0,3.985-2.227,3.985-4.968L65.586,61.71C65.584,61.63,65.549,61.556,65.487,61.505z"/>
<path d="M79.076-0.319h-4.768c-1.439,0-2.277,0.7-2.409,1.97c-0.566,0.712-1.42,1.154-2.239,1.154c-0.814,0-1.591-0.429-2.185-1.206  c-0.051-0.066-0.13-0.105-0.214-0.106c-0.147,0-1.244-0.008-2.76-0.014c-0.025-0.115-0.071-0.222-0.146-0.317  C64.148,0.9,63.78,0.783,63.158,0.783h-5.851c-0.622,0-0.991,0.117-1.198,0.379c-0.075,0.096-0.12,0.203-0.146,0.319  c-1.285,0.011-2.224,0.032-2.453,0.064c-6.011,0.276-10.403,2.04-13.06,5.263c-3.697,4.487-2.659,10.097-2.613,10.333  c0.024,0.127,0.136,0.218,0.265,0.218h1.036c0.135,0,0.249-0.099,0.267-0.232c0.781-5.548,8.216-6.861,12.676-7.144  c0.019,0.058,0.038,0.127,0.052,0.178c0.092,0.32,0.163,0.574,0.434,0.574c0,0,0,0,0.001,0c0.399-0.021,0.763-0.033,1.081-0.041  v0.023l0.532-0.003l1.038,9.195c0.016,0.137,0.131,0.24,0.268,0.24h0.743l-0.527,39.674h9.074l-0.537-39.674h0.739  c0.138,0,0.253-0.103,0.269-0.24l1.046-9.262l0.805-0.004c0.071,0,0.14-0.029,0.189-0.08c0.519-0.521,1.603-0.843,2.311-0.843  c0.706,0,1.81,0.316,2.314,0.772c0.188,1.271,1.068,2.041,2.396,2.041h4.768c0.513,0,0.844-0.664,1.075-2.152  c0.176-1.13,0.272-2.648,0.272-4.274C80.424,4.176,80.292-0.319,79.076-0.319z"/>
</svg>