<svg xmlns="http://www.w3.org/2000/svg" xmlns:xlink="http://www.w3.org/1999/xlink" version="1.1" id="Layer_1" x="0px" y="0px" width="100px" height="100px" viewBox="0 0 100 100" enable-background="new 0 0 100 100" xml:space="preserve">
<path d="M56.714,28.827c0,1.192-0.513,2.215-1.254,2.727c3.032,1.262,3.519,4.273,3.281,6.2l0.801,0.367l0.187,0.085  c0.448-1.517,0.116-2.921,0.116-2.921s-0.123-4.039,0.185-5.318c0.308-1.28-4.928-29.728-4.928-29.728l-0.45,0.165l0.085,25.386  C55.853,26.005,56.714,27.275,56.714,28.827z"/>
<path d="M69.711,68.379l-5.309,0.727c0.544,2.689,1.022,5.637,1.396,8.88c1.218,11.171-2.594,17.3-2.832,18.559  c-0.16,0.844,0.126,2.765,1.459,3.302C64.685,99.95,64.951,100,65.219,100c1.121,0,2.286-0.868,3.084-2.298  c0,0,3.992-7.182,2.924-19.857C71.227,77.845,70.87,73.901,69.711,68.379z"/>
<path d="M48.51,35.285c0,0-0.511,2.154,0.585,4.008v0.001c0.001,0,0.001,0,0.001,0.001c0.085,0.144,0.183,0.286,0.29,0.426  c0.016,0.021,0.032,0.042,0.048,0.062c0.225,0.285,0.497,0.557,0.823,0.806c0.009,0.007,0.018,0.015,0.028,0.022  c0.168,0.126,0.353,0.247,0.551,0.359c0.004,0.003,0.009,0.005,0.013,0.008c0.406,0.228,0.878,0.424,1.423,0.579  c0.005,0.001,0.011,0.002,0.016,0.004c0.55,0.154,1.176,0.264,1.888,0.319h0.001c0.073,0.005,0.142,0.015,0.216,0.02l0.257,3.775  c0,0,5.931,5.871,9.462,22.04l5.299-0.726c-1.658-7.397-4.695-17.078-10.062-24.091l-0.089-3.603l0,0l-0.014-0.527l-1.294-0.594  c0,0,1.131-5.133-3.729-6.275c-0.017-0.004-0.028-0.01-0.045-0.013c-0.007-0.001-0.012-0.004-0.018-0.006  c-0.071,0.009-0.141,0.029-0.214,0.029c-1.273,0-2.305-1.379-2.305-3.081c0-1.551,0.861-2.821,1.978-3.037l0.085-25.386l-0.45-0.165  c0,0-5.236,28.447-4.928,29.728C48.633,31.246,48.51,35.285,48.51,35.285z"/>
<path d="M44.291,67.502c3.537-16.006,9.415-21.829,9.415-21.829l0.116-1.712l-0.096-1.407c-2.062-0.225-3.622-0.937-4.659-2.111  l-0.061,2.453c-5.317,6.946-8.347,16.51-10.015,23.88L44.291,67.502z"/>
<path d="M42.555,77.985c0.384-3.328,0.878-6.346,1.44-9.091l-5.309-0.727c-1.193,5.633-1.56,9.677-1.56,9.677  c-1.068,12.676,2.924,19.857,2.924,19.857c0.988,1.772,2.542,2.683,3.876,2.144c1.333-0.537,1.619-2.458,1.459-3.302  C45.149,95.285,41.338,89.156,42.555,77.985z"/>
</svg>