<svg xmlns="http://www.w3.org/2000/svg" xmlns:xlink="http://www.w3.org/1999/xlink" version="1.1" id="Layer_1" x="0px" y="0px" width="100px" height="100px" viewBox="0 0 100 100" enable-background="new 0 0 100 100" xml:space="preserve">
<path d="M49.361,15.298c0,0,0-5.124,0-5.596c0-0.944,0.7-1.757,1.738-1.757c0.709,0,13.037,0,13.037,0s0-1.408,0-2.979  c-0.236-1.027-6.4-3.648-10.798-4.546c-3.194-0.652-8.771-0.649-10.316,0.082c-1.873,0.886-1.957,1.932-2.146,2.722  c-0.31,1.298,0.204,12.074,0.204,12.074H49.361z"/>
<path d="M44.223,43.392v-4.978H41.08v21.664c0,0,0.086,3.233,4.167,3.233c4.082,0,4.114-3.233,4.114-3.233V46.562L44.223,43.392z"/>
<path d="M51.053,35.162c0,1.252-0.911,2.267-2.033,2.267h-7.742c-1.123,0-2.033-1.015-2.033-2.267v-4.157  c0-1.252,0.91-2.268,2.033-2.268h7.742c1.123,0,2.033,1.015,2.033,2.268V35.162z"/>
<path d="M64.137,16.956c0,0.417-0.338,0.756-0.756,0.756H51.714c-0.418,0-0.755-0.338-0.755-0.756v-2.899h13.178V16.956z"/>
<path d="M51.361,18.656c-1.662,0-1.512-1.254-1.512-1.945c0,0-8.443,0-9.087,0c-0.645,0-2.929,0.815-2.929,3.685v3.781  c0,2.87,2.369,3.685,2.929,3.685c0.411,0,6.299,0,9.399,0c0.969,0.066,1.748,0.883,1.88,1.939v6.675  c-0.134,1.062-0.919,1.881-1.893,1.94h-4.414v4.222l4.973,3.053l1.048,0.644l0.027,1.898l0.671,45.928  c0,3.226,1.501,5.841,4.538,5.841c3.039,0,4.539-2.615,4.539-5.841l1.215-67.929l0.527-7.574H51.361z M58.516,93.979  c0,0.835-0.678,1.513-1.512,1.513c-0.835,0-1.513-0.678-1.513-1.513v-4.312c0-0.834,0.678-1.512,1.513-1.512  c0.834,0,1.512,0.678,1.512,1.512V93.979z"/>
</svg>