<svg xmlns="http://www.w3.org/2000/svg" xmlns:xlink="http://www.w3.org/1999/xlink" version="1.1" id="Layer_1" x="0px" y="0px" width="100px" height="100px" viewBox="0 0 100 100" enable-background="new 0 0 100 100" xml:space="preserve">
<path d="M61.093,26.43c-0.496,0-0.973,0.167-1.379,0.48l-0.1,0.078h-0.44c0.274,0.512,0.445,1.087,0.445,1.708  c0,0.621-0.171,1.196-0.445,1.708h0.44l0.1,0.077c0.406,0.315,0.883,0.481,1.379,0.481c1.112,0,2.05-0.802,2.228-1.906  c0.026-0.126,0.038-0.242,0.038-0.36c0-0.118-0.012-0.234-0.035-0.345C63.143,27.231,62.205,26.43,61.093,26.43z"/>
<path d="M60.032,0.062c-0.328-0.078-0.898-0.036-1.335-0.014c0.028,0.029,0.056,0.059,0.085,0.096  c-0.062,0.082-0.124,0.133-0.187,0.201c0.062,0.067,0.124,0.119,0.187,0.2c-0.052,0.068-0.104,0.117-0.156,0.169  c0.053,0.053,0.104,0.102,0.156,0.169C58.73,0.952,58.679,1,58.626,1.053c0.053,0.053,0.104,0.102,0.156,0.17  c-0.052,0.068-0.104,0.117-0.156,0.17c0.053,0.053,0.104,0.101,0.156,0.169c-0.052,0.068-0.104,0.117-0.156,0.169  c0.053,0.053,0.104,0.102,0.156,0.169c-0.052,0.068-0.104,0.117-0.156,0.17c0.053,0.053,0.104,0.101,0.156,0.169  c-0.052,0.068-0.104,0.117-0.156,0.169c0.053,0.053,0.104,0.102,0.156,0.17c-0.052,0.068-0.104,0.117-0.156,0.169  c0.053,0.053,0.104,0.102,0.156,0.169c-0.052,0.068-0.104,0.117-0.156,0.169c0.053,0.053,0.104,0.102,0.156,0.17  c-0.052,0.068-0.104,0.117-0.156,0.17c0.053,0.053,0.104,0.101,0.156,0.169c-0.052,0.068-0.104,0.117-0.156,0.169  c0.053,0.053,0.104,0.102,0.156,0.169c-0.052,0.068-0.104,0.117-0.156,0.17c0.053,0.053,0.104,0.101,0.156,0.169  c-0.052,0.068-0.104,0.117-0.156,0.169c0.053,0.053,0.104,0.102,0.156,0.17c-0.052,0.068-0.104,0.117-0.156,0.169  c0.053,0.053,0.104,0.102,0.156,0.169c-0.052,0.068-0.104,0.117-0.156,0.169c0.053,0.053,0.104,0.102,0.156,0.17  c-0.052,0.068-0.104,0.117-0.156,0.17c0.053,0.053,0.104,0.101,0.156,0.169c-0.052,0.068-0.104,0.117-0.156,0.169  c0.053,0.053,0.104,0.102,0.156,0.169c-0.052,0.068-0.104,0.117-0.156,0.17c0.053,0.053,0.104,0.101,0.156,0.169  c-0.006,0.007-0.012,0.012-0.018,0.019c0.207,0.079,0.419,0.157,0.448,0.313c0.126,0.691,0.247,1.405,0.358,2.135h0.021  c0.174,0.113,0.347,0.2,0.521,0.336c-0.15,0.117-0.3,0.2-0.448,0.292c0.039,0.285,0.076,0.573,0.112,0.862  c0.174,0.099,0.348,0.196,0.522,0.326c-0.15,0.112-0.303,0.2-0.452,0.285c0.03,0.273,0.058,0.548,0.082,0.823h0.004  c0.211,0.113,0.422,0.223,0.633,0.372c-0.193,0.136-0.387,0.238-0.58,0.342c0.019,0.262,0.031,0.525,0.043,0.789  c0.198,0.105,0.397,0.209,0.597,0.348c-0.192,0.133-0.383,0.234-0.573,0.335c0.007,0.28,0.011,0.562,0.008,0.842  c0.17,0.09,0.337,0.183,0.506,0.302c-0.173,0.122-0.345,0.216-0.519,0.309c-0.009,0.294-0.024,0.586-0.043,0.878  c0.16,0.087,0.32,0.177,0.48,0.293c-0.176,0.125-0.353,0.222-0.528,0.318c-0.027,0.294-0.06,0.589-0.102,0.881  c0.149,0.083,0.297,0.17,0.444,0.28c-0.183,0.134-0.363,0.235-0.545,0.338c-0.25,1.439-0.663,2.833-1.312,4.128  c0.006,0.011,0.011,0.023,0.017,0.034h6.283c0.195,0,0.385,0.077,0.523,0.216c0.202,0.203,0.811,1.931,1.634,4.654  c0.972-1.962,1.973-4.673,2.403-8.093C70.288,11.44,65.48,1.345,60.032,0.062z"/>
<path d="M47.01,71.218c0-2.407,0.345-5.531,0.93-8.915l-5.753-0.787c-0.452,3.262-0.725,6.271-0.725,8.777  c0,14.68,5.54,28.174,6.126,28.76c0.585,0.586,1.394,0.947,2.289,0.947c0.893,0,0.675-1.714,0.462-2.312  C50.339,97.688,47.01,83.817,47.01,71.218z"/>
<path d="M48.206,60.847c1.304-6.907,3.516-14.6,5.825-19.431c0.73-1.53,2.021-2.958,3.452-4.261c-1.004-0.867-2.057-1.679-3.02-2.42  c-1.706-1.313-3.066-2.36-3.574-3.276c-0.198-0.229-0.792-0.954-1.506-2.144c-2.119,7.392-5.392,20.178-6.985,30.736L48.206,60.847z  "/>
<path d="M68.143,62.357c0.579,3.362,0.92,6.466,0.92,8.86c0,12.6-3.329,26.471-3.329,26.471C65.521,98.286,65.303,100,66.196,100  c0.895,0,1.703-0.361,2.288-0.947c0.587-0.586,6.127-14.08,6.127-28.76c0-2.492-0.269-5.48-0.716-8.724L68.143,62.357z"/>
<path d="M51.504,31.037c0.981,1.991,8.315,5.73,10.538,10.379c2.314,4.845,4.531,12.563,5.835,19.485l5.807-0.795  c-2.364-15.711-8.469-36.402-8.941-36.874h-6.713c-0.896-1.51-1.438-3.177-1.735-4.911c-0.174-0.097-0.348-0.195-0.521-0.329  c0.145-0.113,0.289-0.198,0.434-0.28c-0.04-0.293-0.075-0.587-0.103-0.883c-0.173-0.093-0.345-0.188-0.518-0.316  c0.155-0.116,0.311-0.204,0.466-0.289c-0.02-0.293-0.03-0.589-0.038-0.884c-0.169-0.09-0.338-0.183-0.508-0.307  c0.166-0.121,0.331-0.214,0.497-0.302c-0.001-0.281-0.001-0.562,0.006-0.844c-0.188-0.099-0.375-0.198-0.563-0.334  c0.197-0.143,0.395-0.247,0.591-0.349c0.012-0.263,0.028-0.525,0.047-0.787c-0.192-0.101-0.385-0.204-0.577-0.344  c0.211-0.155,0.422-0.265,0.632-0.374c0.024-0.274,0.052-0.547,0.082-0.819c-0.149-0.084-0.298-0.171-0.447-0.287  c0.174-0.135,0.348-0.232,0.521-0.33c0.036-0.286,0.073-0.571,0.112-0.854c-0.148-0.086-0.298-0.176-0.447-0.296  c0.173-0.14,0.346-0.24,0.519-0.339H56.5c0.111-0.728,0.233-1.442,0.36-2.132c0.028-0.156,0.241-0.234,0.446-0.312  c-0.006-0.007-0.011-0.013-0.017-0.021c0.05-0.07,0.103-0.118,0.152-0.169c-0.05-0.052-0.103-0.1-0.152-0.17  c0.05-0.069,0.103-0.118,0.152-0.169c-0.05-0.052-0.103-0.1-0.152-0.169c0.05-0.07,0.103-0.118,0.152-0.169  c-0.05-0.052-0.103-0.1-0.152-0.17c0.05-0.07,0.103-0.118,0.152-0.17c-0.05-0.051-0.103-0.1-0.152-0.169  c0.05-0.069,0.103-0.118,0.152-0.169c-0.05-0.052-0.103-0.1-0.152-0.169c0.05-0.07,0.103-0.118,0.152-0.17  c-0.05-0.052-0.103-0.1-0.152-0.169c0.05-0.07,0.103-0.118,0.152-0.169c-0.05-0.052-0.103-0.1-0.152-0.17  c0.05-0.069,0.103-0.118,0.152-0.169c-0.05-0.052-0.103-0.1-0.152-0.169c0.05-0.07,0.103-0.118,0.152-0.169  c-0.05-0.052-0.103-0.1-0.152-0.17c0.05-0.07,0.103-0.118,0.152-0.17c-0.05-0.051-0.103-0.1-0.152-0.169  c0.05-0.069,0.103-0.118,0.152-0.169c-0.05-0.052-0.103-0.1-0.152-0.169c0.05-0.07,0.103-0.118,0.152-0.17  c-0.05-0.052-0.103-0.1-0.152-0.169c0.05-0.07,0.103-0.118,0.152-0.169c-0.05-0.052-0.103-0.1-0.152-0.17  c0.05-0.069,0.103-0.118,0.152-0.169c-0.05-0.052-0.103-0.1-0.152-0.169c0.05-0.07,0.103-0.118,0.152-0.169  c-0.05-0.052-0.103-0.1-0.152-0.17c0.05-0.07,0.103-0.118,0.152-0.17c-0.05-0.051-0.103-0.1-0.152-0.169  c0.05-0.069,0.103-0.118,0.152-0.169c-0.05-0.052-0.103-0.1-0.152-0.169c0.061-0.083,0.122-0.135,0.184-0.2  c-0.062-0.066-0.123-0.117-0.184-0.201c0.027-0.037,0.053-0.066,0.08-0.094c-0.247-0.013-0.537-0.032-0.803-0.032  c-0.201,0-0.387,0.011-0.526,0.044c-5.45,1.283-10.256,11.378-9.271,19.208C47.727,26.87,51.504,31.037,51.504,31.037z   M55.981,25.058c1.062,0,2.009,0.463,2.674,1.19h0.711c0.515-0.365,1.108-0.558,1.727-0.558c1.479,0,2.722,1.063,2.958,2.527  c0.03,0.145,0.047,0.309,0.047,0.478c0,0.168-0.017,0.333-0.049,0.492c-0.234,1.45-1.478,2.513-2.956,2.513  c-0.618,0-1.212-0.193-1.727-0.558h-0.711c-0.665,0.726-1.611,1.189-2.674,1.189c-2.008,0-3.637-1.628-3.637-3.637  C52.345,26.687,53.974,25.058,55.981,25.058z"/>
</svg>