<svg xmlns="http://www.w3.org/2000/svg" xmlns:xlink="http://www.w3.org/1999/xlink" version="1.1" id="Layer_1" x="0px" y="0px" width="100px" height="100px" viewBox="0 0 100 100" enable-background="new 0 0 100 100" xml:space="preserve">
<path d="M97.719,20.143H78.387v2.615h19.332c0.58,0,1.848-0.729,1.848-1.307C99.566,20.873,98.299,20.143,97.719,20.143z"/>
<path d="M76.539,17.282h-2.338v8.336h2.338c0.137,0,0.246-0.109,0.246-0.246v-7.843C76.785,17.393,76.676,17.282,76.539,17.282z"/>
<path d="M36.433,73.517c0-1.544-1.298-2.797-2.896-2.797H6.116c-1.597,0-2.896,1.253-2.896,2.797l-0.004,0.09L1.373,89.971  c0.022,1.523,1.312,2.755,2.894,2.755h31.119c1.582,0,2.872-1.231,2.896-2.755L36.433,73.517z"/>
<path d="M34.154,34.776v6.876c0,0,6.114-2.176,6.114-2.678V35.68c0-0.327-0.009-0.624-0.022-0.904H34.154z"/>
<path d="M69.217,12.79h-5.742c0.234,0.713,0.363,1.402,0.363,1.972v15.324c0,0.008-0.002,0.016-0.002,0.025h5.381  c1.865,0,3.383-1.519,3.383-3.384V16.173C72.6,14.308,71.082,12.79,69.217,12.79z"/>
<path d="M58.686,9.726H8.438c-6.381,0-8.003,6.454-8.004,11.726c-0.001,7.136,2.541,11.724,6.424,11.724h51.828  c1.959,0,3.553-1.386,3.553-3.089V14.762C62.238,12.912,60.48,9.726,58.686,9.726z"/>
<path d="M32.537,34.776h-3.342H25.53h-0.804H12.949h-0.813H10.62H7.863c2.466,6.627,1.233,23.112-0.006,34.343h2.763h1.346h0.803  h13.561h0.877h1.989h2.212c-0.978-1.322-2.802-3.518-2.152-10.016c0.479-4.798,1.495-10.275,1.383-15.625l1.899-0.802V34.776z"/>
</svg>