<svg xmlns="http://www.w3.org/2000/svg" xmlns:xlink="http://www.w3.org/1999/xlink" version="1.1" id="Layer_1" x="0px" y="0px" width="100px" height="100px" viewBox="0 0 100 100" enable-background="new 0 0 100 100" xml:space="preserve">
<path d="M43.966,27.173l-0.687,0.375c-0.414-0.029-0.776,0.35-0.812,0.846l-0.222,3.145c-0.035,0.497,0.271,0.922,0.686,0.952  l0.606,0.452C43.663,30.844,43.808,28.925,43.966,27.173z"/>
<path d="M59.007,14.25V2.107l-8.841,7.37C52.561,10.113,56.188,12.34,59.007,14.25z"/>
<path d="M61.507,16.002V0.023l-1.75,1.459v13.282C60.414,15.22,61.005,15.639,61.507,16.002z"/>
<path d="M62.069,28.147l-0.469-10.218c0,0-9.626-7.141-12.6-7.141c-0.261,0-0.47,0.055-0.618,0.174c0,0-6.562,13.997-2.5,76.746  c0,0,0.094,2.154,1.094,3.904c0,0,6.803,8.388,10.999,8.388c0.745,0,1.409-0.265,1.938-0.889c1.814-2.142,1.031-7.405,1.031-7.405  S60.49,80.33,62.069,66.02C62.069,66.02,64.226,47.083,62.069,28.147z M57.07,97.33c-1.277,0-2.312-1.035-2.312-2.312  c0-1.276,1.035-2.312,2.312-2.312s2.312,1.036,2.312,2.312C59.383,96.295,58.348,97.33,57.07,97.33z"/>
</svg>