<svg xmlns="http://www.w3.org/2000/svg" xmlns:xlink="http://www.w3.org/1999/xlink" version="1.1" id="Layer_1" x="0px" y="0px" width="100px" height="100px" viewBox="0 0 100 100" enable-background="new 0 0 100 100" xml:space="preserve">
<path d="M61.426,53.667c0-0.9-0.886-1.633-1.973-1.633h-0.745h-1.687h-3.457h-1.001h-1.43c-1.088,0-1.973,0.732-1.973,1.633  c0,0.487,0.258,0.939,0.701,1.247c-0.18,0.481-0.271,0.976-0.271,1.474v37.144c0,1.172,0.464,2.254,1.278,2.992  c0.082,2.001,2.333,2.913,4.425,2.913c2.095,0,4.345-0.912,4.426-2.914c0.813-0.737,1.277-1.819,1.277-2.991V56.388  c0-0.498-0.091-0.992-0.271-1.474C61.167,54.606,61.426,54.154,61.426,53.667z M52.917,94.636c0,0.399-0.324,0.723-0.724,0.723  c-0.398,0-0.723-0.323-0.723-0.723v-38.16c0-0.399,0.324-0.723,0.723-0.723c0.399,0,0.724,0.323,0.724,0.723V94.636z M56.017,95.747  c0,0.399-0.324,0.723-0.724,0.723s-0.723-0.323-0.723-0.723V56.476c0-0.399,0.323-0.723,0.723-0.723s0.724,0.323,0.724,0.723V95.747  z M59.115,94.636c0,0.399-0.323,0.723-0.723,0.723s-0.723-0.323-0.723-0.723v-38.16c0-0.399,0.323-0.723,0.723-0.723  s0.723,0.323,0.723,0.723V94.636z"/>
<path d="M53.474,12.378l0.09,38.911h3.459l0.09-38.911l0.953-3.045c0.011-0.034,0.015-0.069,0.011-0.105l-0.82-9.147  c-0.013-0.14-0.13-0.247-0.27-0.247h-3.386c-0.141,0-0.257,0.107-0.27,0.247L52.51,9.228c-0.003,0.036,0.001,0.071,0.012,0.105  L53.474,12.378z"/>
</svg>