<svg xmlns="http://www.w3.org/2000/svg" xmlns:xlink="http://www.w3.org/1999/xlink" version="1.1" id="Layer_1" x="0px" y="0px" width="100px" height="100px" viewBox="0 0 100 100" enable-background="new 0 0 100 100" xml:space="preserve">
<path d="M35.848,4.016v1.967c-0.627,0.11-1.1,0.591-1.1,1.164v3.758c0,0.572,0.473,1.052,1.1,1.16v1.773  c0,0.672,1.022,1.216,2.286,1.216V2.797C36.87,2.797,35.848,3.342,35.848,4.016z"/>
<g>
	<path d="M49.056,58.512h-9.639c-0.074,0.12-0.144,0.237-0.22,0.362v34.605c0,4.454,2.184,6.521,4.878,6.521h0.32   c2.696,0,4.88-2.066,4.88-6.521V58.874C49.199,58.749,49.13,58.632,49.056,58.512z"/>
	<path d="M40.204,57.053h8.065l-0.344-38.687c0.674-0.924,1.098-2.146,1.098-3.114V2.491c0-1.796-1.456-2.478-3.25-2.478h-3.075   c-1.795,0-3.25,0.682-3.25,2.478v12.761c0,0.968,0.424,2.189,1.097,3.114L40.204,57.053z"/>
</g>
<path d="M66.801,13.673c0,0.875-0.654,1.579-1.462,1.579H50.556V2.797h14.783c0.808,0,1.462,0.708,1.462,1.578V13.673z"/>
</svg>