<svg xmlns="http://www.w3.org/2000/svg" xmlns:xlink="http://www.w3.org/1999/xlink" version="1.1" id="Layer_1" x="0px" y="0px" width="100px" height="100px" viewBox="0 0 100 100" enable-background="new 0 0 100 100" xml:space="preserve">
<path d="M51.076,100h6.514c0.928,0,2.002-2.099,2.002-3.467L58.2,66.437c-0.222,0.054-0.452,0.087-0.69,0.087h-6.354  c-0.239,0-0.469-0.033-0.691-0.087l-1.392,30.131C49.075,97.901,50.148,100,51.076,100z"/>
<path d="M64.043,17.062c-1.034-4.544-7.829-16.818-9.711-16.818c-1.881,0-8.634,12.083-9.71,16.818  c-1.495,4.365-4.609,22.425-4.002,24.428c0.365,1.207,5.413,4.822,9.372,7.508l2.915,2.334v9.959h-1.75  c-0.899,0-1.63,0.731-1.63,1.63v0.449c0,0.898,0.731,1.63,1.63,1.63h6.354c0.899,0,1.631-0.731,1.631-1.63v-0.449  c0-0.898-0.731-1.63-1.631-1.63h-1.75v-9.959l2.914-2.334c3.96-2.686,9.008-6.301,9.373-7.508  C68.653,39.487,65.537,21.428,64.043,17.062z"/>
</svg>