<svg xmlns="http://www.w3.org/2000/svg" xmlns:xlink="http://www.w3.org/1999/xlink" version="1.1" id="Ebene_1" x="0px" y="0px" width="100px" height="100px" viewBox="0 0 100 100" enable-background="new 0 0 100 100" xml:space="preserve">
<g>
	<path fill-rule="evenodd" clip-rule="evenodd" d="M55.563,58.025c0.443,6.42,4.273,10.049,8.951,12.425   c4.749,2.413,10.984,3.454,17.608,3.828c0.338-1.922,0.517-3.938,1.001-5.888c0.441-1.784,0.962-3.969,2.472-4.594   c1.047-0.433,2.919-0.236,4.536-0.236c1.594,0,3.446-0.208,4.476,0.236c1.427,0.613,2.091,3.273,2.473,4.947   c1.187,5.189,0.801,11.637-0.354,16.546c-0.479,2.045-0.55,4.087-2.709,4.478c-1.022,0.185-2.425,0.058-3.886,0.058   c-1.662,0-3.411,0.188-4.476-0.176c-1.535-0.526-1.673-1.827-2.062-3.476c-0.486-2.056-1.044-4.199-1.178-6.714   c-21.731,0-43.459,0-65.191,0c-0.249,2.336-0.821,4.808-1.354,7.067c-0.319,1.353-0.558,2.547-1.708,3.063   c-1.027,0.46-3.017,0.234-4.298,0.234c-1.493,0-3.153,0.196-4.417-0.058c-1.855-0.377-2.19-2.318-2.649-4.301   c-1.125-4.85-1.601-11.537-0.354-16.665c0.452-1.863,1.042-4.302,2.473-4.946c1.062-0.479,3.025-0.295,4.712-0.295   c2.011,0,4.218-0.247,5.24,0.59c1.123,0.916,1.48,2.831,1.826,4.475c0.377,1.798,0.586,3.639,0.708,5.535   c6.622-0.124,12.815-1.368,17.548-3.71c4.661-2.305,8.453-5.944,8.951-12.367c-11.243-0.106-24.378-0.058-36.157-0.058   c-1.764,0-3.559,0.181-5.125,0c-2.974-0.341-2.694-4.624-1.943-7.359c1.142-4.161,3.904-7.024,6.89-9.129   c1.836-3.58,3.608-6.766,5.536-10.305c0.27-0.497,0.602-0.966,0.765-1.473c0.324-1.004,0.353-2.014,0.589-2.886   C16.154,20.658,19.997,16.338,25,13.152c5.738-3.653,12.833-5.64,21.849-6.065c10.423-0.493,19.653,1.149,26.382,4.476   c3.515,1.738,6.462,4.128,8.598,6.831c1.996,2.526,3.569,5.37,4.24,9.244c0.088,0.506,0.126,1.071,0.294,1.591   c0.339,1.049,1.1,2.116,1.649,3.18c1.369,2.652,2.703,5.265,4.121,7.95c0.276,0.522,0.521,1.134,0.825,1.532   c0.344,0.447,0.934,0.821,1.413,1.237c2.271,1.964,4.239,4.432,5.183,7.89c0.466,1.714,0.821,4.865-0.295,6.186   c-1.027,1.212-4.124,0.822-6.536,0.822C80.357,58.025,67.75,58.025,55.563,58.025z M49.852,52.845c14.958,0,29.915,0,44.873,0   c-1.002-3.849-3.795-6.384-7.066-8.246c-3.247-1.849-7.099-3.118-11.248-4.122c-9.896-2.396-23.124-2.953-35.274-2.354   c-11.381,0.557-21.883,2.246-29.327,6.771c-3.002,1.825-5.579,4.248-6.478,7.951c14.78,0,29.563,0,44.343,0H49.852z M58.449,72.747   c-3.978-3.11-7.281-7.042-7.95-13.543c-0.085-0.831,0.08-0.658-0.236-1.031c-0.327-0.385-0.662-0.192-1-0.177   c-0.222,0.059-0.113,0.346-0.118,0.472c-0.028,0.646,0.059-0.783,0-0.266c-0.024,0.209-0.141,0.438-0.178,0.706   c-0.064,0.47-0.045,0.903-0.117,1.355c-0.885,5.561-3.706,9.179-7.244,12.014c-0.32,0.256-1.554,0.951-1.413,1.59   c0.119,0.536,1.228,0.411,2.12,0.411c6.089,0,12.136,0,18.02,0C59.741,73.687,59.077,73.238,58.449,72.747z M8.158,68.744   c-0.641,0.163-0.668,1.026-0.825,1.767c-0.952,4.5-0.425,10.289,0.531,14.133c1.08,0,2.159,0,3.238,0   c1.13-4.436,1.668-11.234,0.354-15.899C10.35,68.938,9.19,68.481,8.158,68.744z M88.718,68.744   c-0.627,0.159-0.673,1.042-0.825,1.767c-0.942,4.508-0.404,10.279,0.531,14.133c1.079,0,2.159,0,3.238,0   c1.162-4.51,1.561-11.392,0.118-15.899C90.781,68.939,89.738,68.483,88.718,68.744z"/>
</g>
</svg>