<svg xmlns="http://www.w3.org/2000/svg" xmlns:xlink="http://www.w3.org/1999/xlink" version="1.1" id="Layer_1" x="0px" y="0px" width="100px" height="100px" viewBox="0 0 100 100" enable-background="new 0 0 100 100" xml:space="preserve">
<g>
	<path fill="#000000" d="M43.582,43.728c-1.548,1.548,4.72,10.326,13.999,19.604c9.28,9.28,18.059,15.551,19.608,14.002   c1.548-1.548-4.722-10.327-14.002-19.607C53.908,48.448,45.129,42.179,43.582,43.728z"/>
	<path fill="#000000" d="M24.604,22.956c2.333-2.333,3.605-5.036,3.413-6.865l-0.043,0.044l-1.81-1.811   c-0.736-0.735-0.979-0.106-1.361,1.058L12.28,7.224l-3.084,3.084l7.859,12.797c-1.252,0.488-1.968,0.845-1.243,1.57l1.626,1.626   C19.262,26.689,22.134,25.426,24.604,22.956z M24.791,15.418c-0.002,0.009-0.006,0.019-0.01,0.029   c-0.004,0.001-0.009-0.002-0.014-0.004L24.791,15.418z M11.339,10.969l0.654-0.433l5.532,8.321l-0.653,0.433L11.339,10.969z    M17.219,22.99c0.004,0.014,0.01,0.032,0.012,0.046c-0.03,0.012-0.067,0.026-0.096,0.039L17.219,22.99z"/>
	<path fill="#000000" d="M28.373,15.737c0.061,0.086,0.104,0.188,0.153,0.285l-0.078-0.078c0.081,0.081,0.122,0.197,0.182,0.295   c0.189,0.499,0.232,1.095,0.117,1.768c0,0-0.002,0.003-0.006,0.018l-0.071,0.281c-0.02,0.078-0.041,0.165-0.071,0.29   c-0.434,1.597-1.542,3.46-3.218,5.136c-2.894,2.894-6.343,4.142-7.998,2.995L17.36,26.75l0.143,0.143l0.673,0.672l61.786,61.787   c0.461,0.151,1.019,0.156,1.645,0.039c0.008-0.004,0.015-0.011,0.026-0.014c0.076-0.009,0.162-0.039,0.239-0.049   c1.673-0.401,3.742-1.635,5.627-3.52c1.716-1.718,2.907-3.597,3.407-5.182c0.008-0.03,0.022-0.066,0.026-0.095l0.004,0.001   c0.249-0.831,0.287-1.561,0.128-2.153L28.397,15.712L28.373,15.737z M28.772,18.281l0.043-0.01   c-0.008,0.038-0.021,0.077-0.032,0.114L28.772,18.281z M89.258,78.518c-0.308,1.67-1.513,3.786-3.409,5.683   c-2.041,2.038-4.333,3.292-6.051,3.476l-2.842-2.843c1.767,0.167,4.255-0.972,6.373-3.089c1.999-2,3.107-4.32,3.093-6.062   L89.258,78.518z M85.646,74.907c0.017,1.742-1.089,4.065-3.089,6.065c-2.116,2.117-4.606,3.255-6.375,3.087l-0.927-0.926   c1.759,0.108,4.187-1.015,6.264-3.09c2.041-2.043,3.156-4.425,3.087-6.178L85.646,74.907z M83.829,73.09   c0.069,1.754-1.046,4.135-3.088,6.177c-2.074,2.073-4.5,3.2-6.263,3.09L25.208,33.086c1.768,0.194,4.294-0.952,6.434-3.093   c1.976-1.976,3.079-4.269,3.086-6.004L83.829,73.09z M33.954,23.215c-0.008,1.735-1.11,4.028-3.087,6.004   c-2.14,2.141-4.665,3.287-6.434,3.093l-0.928-0.928c1.764,0.138,4.222-0.995,6.319-3.092c2.019-2.02,3.131-4.371,3.088-6.119   L33.954,23.215z M32.139,21.4c0.042,1.748-1.07,4.098-3.089,6.118c-2.098,2.097-4.557,3.228-6.319,3.091l-2.614-2.613   c1.659-0.236,3.891-1.498,5.913-3.521c1.928-1.929,3.18-4.055,3.498-5.687L32.139,21.4z"/>
	<path fill="#000000" d="M91.749,80.683c-0.284,1.646-1.562,3.846-3.566,5.851c-2.013,2.013-4.218,3.292-5.862,3.571   c-0.316,0.261-0.389,0.53-0.038,0.883l1.598,1.597c1.335,1.336,4.721,0.108,7.575-2.734l0.042-0.043   c2.844-2.854,4.069-6.237,2.733-7.572l-1.598-1.6C92.235,80.238,91.982,80.312,91.749,80.683z"/>
</g>
</svg>