<svg xmlns="http://www.w3.org/2000/svg" xmlns:xlink="http://www.w3.org/1999/xlink" version="1.1" id="Layer_1" x="0px" y="0px" width="100px" height="100px" viewBox="0 0 100 100" enable-background="new 0 0 100 100" xml:space="preserve">
<g>
	<path d="M51.044,10.171c5.202,0,9.417-0.399,9.417-0.89c0.003-0.289-1.468-0.541-3.712-0.705h0.059l-0.337-1.556   c1.365-0.16,2.209-0.381,2.209-0.626c0-0.008-0.013-0.017-0.017-0.028h0.017V3.161c0-0.491-3.416-0.89-7.636-0.89   c-4.219,0-7.638,0.399-7.638,0.89v3.205h0.016c-0.002,0.009-0.016,0.018-0.016,0.028c0,0.245,0.845,0.465,2.21,0.626l-0.331,1.556   h0.055c-2.244,0.162-3.714,0.414-3.714,0.705C41.626,9.772,45.842,10.171,51.044,10.171z M52.35,4.039   c0.382-0.008,0.742-0.02,1.104-0.034v2.79c-0.359,0.015-0.724,0.027-1.104,0.035V4.039z M51.044,4.054   c0.369,0,0.721-0.007,1.075-0.012V6.83c-0.353,0.005-0.709,0.011-1.075,0.011V4.054z M49.675,4.039   c0.371,0.007,0.752,0.01,1.14,0.012v2.787c-0.387,0-0.769-0.003-1.14-0.012V4.039z M48.403,3.996   c0.339,0.014,0.683,0.028,1.044,0.037v2.786c-0.357-0.008-0.708-0.02-1.044-0.035V3.996z M47.075,3.921   c0.351,0.025,0.712,0.048,1.099,0.067v2.785c-0.383-0.019-0.75-0.041-1.099-0.065V3.921z M45.851,3.812   c0.311,0.035,0.637,0.066,0.995,0.093V6.69c-0.354-0.028-0.685-0.059-0.995-0.092V3.812z M44.447,6.387   c-0.33-0.067-0.604-0.138-0.774-0.217c-0.016,0.009-0.021,0.016-0.036,0.022V3.371c0.171,0.083,0.452,0.162,0.81,0.232V6.387z    M44.676,6.437V3.654c0.278,0.048,0.592,0.094,0.945,0.135v2.783C45.274,6.531,44.951,6.487,44.676,6.437z"/>
	<path d="M61.041,12.743c0.007,0.003,0.011,0.006,0.017,0.01l-0.274-2.862l-0.236,0.023c-0.501,0.4-3.782,0.716-7.992,0.774   l-2.312,0.222l-2.233-0.269c-3.272-0.112-5.661-0.392-6.077-0.73l-0.276-0.034l-0.354,2.951c1.407,0.501,5.216,0.865,9.746,0.865   C55.834,13.694,59.855,13.291,61.041,12.743z"/>
	<path d="M68.055,85.306L67.77,82.35c-1.703,0.697-8.843,1.219-17.395,1.219c-8.567,0-15.717-0.522-17.405-1.221l-0.357,2.979   c-0.683,0.186-1.071,0.381-1.071,0.587V96h37.67V85.913C69.209,85.698,68.788,85.494,68.055,85.306z"/>
	<path d="M67.744,81.875l-6.625-68.503c-1.079,0.566-5.174,0.99-10.073,0.99c-4.576,0-8.452-0.371-9.824-0.879l-8.217,68.391   c1.721,0.695,8.836,1.213,17.372,1.213C58.907,83.087,66.019,82.569,67.744,81.875z M50.777,28.891   c4.462,0,9.297-0.327,10.279-0.759l4.27,45.446c-2.42,0.43-8.183,0.732-14.953,0.732c-6.965,0-12.878-0.318-15.167-0.768   l5.529-45.411C41.986,28.524,46.607,28.891,50.777,28.891z M34.342,80.646l0.548-4.502c2.022,0.483,8.181,0.834,15.484,0.834   c6.999,0,12.933-0.322,15.198-0.773l0.418,4.445c-1.571,0.528-8.049,0.926-15.823,0.926S35.912,81.179,34.342,80.646z"/>
</g>
</svg>