<svg xmlns="http://www.w3.org/2000/svg" xmlns:xlink="http://www.w3.org/1999/xlink" xmlns:a="http://ns.adobe.com/AdobeSVGViewerExtensions/3.0/" version="1.1" x="0px" y="0px" width="100px" height="100px" viewBox="-0.208 -2.612 100 100" overflow="visible" enable-background="new -0.208 -2.612 100 100" xml:space="preserve">
<defs>
</defs>
<rect x="65.172" y="28.401" width="9.186" height="9.186"/>
<rect x="65.39" y="47.216" width="23.526" height="18.79"/>
<polygon points="89.438,47.216 89.438,66.054 99.584,70.926 99.584,66.054 99.584,47.216 99.584,42.343 "/>
<polygon points="22.626,20.26 42.545,20.26 46.248,27.945 53.625,27.945 47.924,16.109 17.248,16.109 11.547,27.945 18.925,27.945   "/>
<polygon points="62.344,7.806 60.074,0 50.222,5.557 55.635,11.618 "/>
<polygon points="65.172,28.202 74.266,28.202 62.79,8.283 56.097,12.108 "/>
<rect x="40.476" y="66.439" width="11.547" height="28.338"/>
<polyline points="0,59.689 5.512,66.053 64.957,66.054 64.957,28.377 0,28.377 "/>
</svg>