<svg xmlns="http://www.w3.org/2000/svg" xmlns:xlink="http://www.w3.org/1999/xlink" version="1.1" id="Layer_1" x="0px" y="0px" width="100px" height="100px" viewBox="0 0 100 100" enable-background="new 0 0 100 100" xml:space="preserve">
<g>
	<path d="M31.068,19.461c0-10.539,8.5-19.091,19.019-19.178C60.61,0.37,69.109,8.922,69.109,19.461c0,2.338-0.417,4.58-1.183,6.652   l-0.097,0.249c-0.363,1.042-1.477,5.324,1.745,12.035c3.729,7.769,13.932,21.181,2.771,46.609   c-1.202,2.736-2.825,5.312-4.779,7.738c0.638,0.518,0.941,1.08,0.941,1.662c0,2.857-8.243,5.178-18.416,5.178   c-10.179,0-18.425-2.32-18.425-5.178c0-0.582,0.305-1.145,0.94-1.662c-1.951-2.426-3.575-5.002-4.775-7.738   c-11.162-25.428-0.958-38.84,2.77-46.609c3.224-6.711,2.108-10.994,1.745-12.035l-0.095-0.249   C31.484,24.041,31.068,21.799,31.068,19.461L31.068,19.461z M67.577,19.461c0-9.689-7.815-17.556-17.484-17.646   c-9.675,0.083-17.491,7.951-17.491,17.646c0,2.149,0.38,4.202,1.08,6.1l0.104,0.272c0.484,1.387,1.613,6.116-1.8,13.227   c-0.932,1.941-2.269,4.234-3.575,6.979c-0.35,0.736-0.695,1.502-1.03,2.301c12.537-1.1,22.212-7.116,22.716-14.467   c0.537,7.341,10.188,13.35,22.698,14.462c-0.334-0.798-0.679-1.562-1.028-2.297c-1.305-2.746-2.644-5.038-3.573-6.979   c-3.413-7.11-2.284-11.84-1.801-13.227l0.097-0.251C67.192,23.678,67.577,21.616,67.577,19.461L67.577,19.461z M47.6,44.457   c0,1.404,1.139,2.542,2.542,2.542c1.404,0,2.543-1.138,2.543-2.542s-1.139-2.543-2.543-2.543   C48.738,41.914,47.6,43.052,47.6,44.457L47.6,44.457z M24.718,57.664c-0.115,0.752-0.21,1.527-0.278,2.326   c0.71,0.27,1.438,0.527,2.188,0.773c-0.809,0.676-1.228,1.764-0.992,2.867c0.244,1.152,1.135,2.002,2.211,2.25   c-0.709,0.85-0.908,2.064-0.411,3.131c0.498,1.066,1.556,1.695,2.661,1.695c-0.501,0.986-0.422,2.215,0.302,3.143   c0.725,0.928,1.897,1.301,2.976,1.051c-0.267,1.074,0.087,2.254,1.003,2.994c0.914,0.742,2.14,0.84,3.135,0.357   c-0.02,1.105,0.59,2.174,1.648,2.689c1.06,0.518,2.276,0.34,3.137-0.357c0.229,1.082,1.064,1.986,2.211,2.252   c1.149,0.266,2.294-0.182,2.975-1.053c0.469,1.002,1.483,1.693,2.661,1.693c1.179,0,2.193-0.691,2.663-1.693   c0.682,0.871,1.826,1.318,2.974,1.053c1.148-0.266,1.981-1.17,2.213-2.252c0.858,0.697,2.074,0.875,3.135,0.357   c1.059-0.516,1.668-1.584,1.65-2.689c0.993,0.482,2.219,0.385,3.135-0.355c0.916-0.742,1.268-1.922,1.001-2.996   c1.078,0.25,2.251-0.123,2.973-1.051c0.727-0.928,0.806-2.156,0.305-3.141c1.105-0.002,2.163-0.631,2.661-1.697   c0.497-1.066,0.298-2.281-0.413-3.129c1.078-0.248,1.969-1.098,2.213-2.25c0.239-1.117-0.193-2.221-1.024-2.895   c0.723-0.236,1.428-0.486,2.112-0.746c-0.069-0.799-0.164-1.574-0.278-2.328c-6.909,2.566-15.743,4.105-25.371,4.105   S31.627,60.23,24.718,57.664L24.718,57.664z M47.6,54.584c0,1.404,1.139,2.543,2.542,2.543c1.404,0,2.543-1.139,2.543-2.543   s-1.139-2.543-2.543-2.543C48.738,52.041,47.6,53.18,47.6,54.584L47.6,54.584z M50.085,11.125   c-2.188,4.393-6.509,7.536-11.608,8.078c0.475,5.997,5.492,10.716,11.612,10.716c6.119,0,11.138-4.719,11.609-10.716   C56.6,18.661,52.28,15.516,50.085,11.125L50.085,11.125z M36.909,18.272c0-0.174,0.002-0.348,0.01-0.521   c7.1-0.005,12.888-5.625,13.16-12.66c0.292,7.035,6.078,12.655,13.179,12.66c0.008,0.172,0.01,0.346,0.01,0.521   c0,7.278-5.9,13.179-13.179,13.179S36.909,25.55,36.909,18.272L36.909,18.272z M55.859,19.324c0,0.851-0.689,1.541-1.538,1.541   c-0.851,0-1.54-0.69-1.54-1.541c0-0.85,0.689-1.539,1.54-1.539C55.17,17.785,55.859,18.474,55.859,19.324L55.859,19.324z    M50.112,25.783c0.191-0.314,0.79-0.583,2.095-0.18c0.588,0.181,1.009-0.043,0.997-0.029c-0.15,0.128-0.843,0.648-0.843,0.648   l-0.004,0.177c0,0.852-0.997,1.544-2.245,1.548c-1.252-0.004-2.26-0.696-2.26-1.548l-0.005-0.177c0,0-0.694-0.52-0.843-0.648   c-0.012-0.014,0.407,0.21,0.995,0.029C49.307,25.201,49.917,25.469,50.112,25.783L50.112,25.783z M44.133,19.324   c0-0.85,0.689-1.539,1.54-1.539s1.54,0.689,1.54,1.539c0,0.851-0.689,1.541-1.54,1.541S44.133,20.174,44.133,19.324L44.133,19.324z    M27.835,61.418c0.153,1.143,0.391,2.258,0.706,3.34c-0.817,0.018-1.558-0.547-1.733-1.375   C26.632,62.553,27.08,61.734,27.835,61.418L27.835,61.418z M29.078,66.361c0.405,1.072,0.889,2.104,1.445,3.094   c-0.794,0.203-1.643-0.182-2.002-0.949C28.164,67.736,28.415,66.84,29.078,66.361L29.078,66.361z M31.407,70.895   c0.634,0.949,1.337,1.848,2.104,2.689c-0.729,0.377-1.645,0.195-2.167-0.475C30.821,72.441,30.867,71.508,31.407,70.895   L31.407,70.895z M34.694,74.789c0.825,0.779,1.714,1.498,2.651,2.148c-0.624,0.529-1.556,0.561-2.215,0.025   C34.47,76.428,34.304,75.51,34.694,74.789L34.694,74.789z M38.771,77.846c0.977,0.576,1.999,1.076,3.065,1.5   c-0.489,0.654-1.39,0.889-2.149,0.518C38.923,79.492,38.556,78.637,38.771,77.846L38.771,77.846z M43.432,79.91   c1.076,0.336,2.188,0.594,3.327,0.766c-0.328,0.75-1.155,1.184-1.98,0.992C43.951,81.477,43.4,80.727,43.432,79.91L43.432,79.91z    M48.438,80.865c0.435,0.031,0.872,0.051,1.314,0.059c0.707,0.014,1.406-0.008,2.099-0.059c-0.152,0.805-0.856,1.416-1.708,1.416   C49.293,82.281,48.589,81.67,48.438,80.865L48.438,80.865z M53.531,80.678c1.138-0.172,2.249-0.432,3.325-0.766   c0.031,0.814-0.52,1.564-1.347,1.756C54.685,81.859,53.859,81.426,53.531,80.678L53.531,80.678z M58.451,79.348   c1.063-0.426,2.089-0.926,3.065-1.502c0.216,0.793-0.151,1.646-0.916,2.018C59.841,80.236,58.94,80,58.451,79.348L58.451,79.348z    M62.942,76.938c0.938-0.648,1.826-1.367,2.651-2.148c0.391,0.721,0.225,1.641-0.437,2.174   C64.498,77.498,63.566,77.469,62.942,76.938L62.942,76.938z M66.778,73.584c0.766-0.838,1.471-1.738,2.102-2.688   c0.541,0.615,0.587,1.547,0.063,2.215S67.506,73.961,66.778,73.584L66.778,73.584z M69.767,69.457   c0.555-0.988,1.04-2.02,1.445-3.094c0.661,0.479,0.912,1.373,0.555,2.145C71.409,69.273,70.561,69.658,69.767,69.457L69.767,69.457   z M71.749,64.76c0.315-1.082,0.553-2.197,0.704-3.34c0.755,0.316,1.204,1.133,1.027,1.963   C73.305,64.213,72.564,64.775,71.749,64.76L71.749,64.76z"/>
</g>
</svg>