<svg xmlns:dc="http://purl.org/dc/elements/1.1/" xmlns:cc="http://creativecommons.org/ns#" xmlns:rdf="http://www.w3.org/1999/02/22-rdf-syntax-ns#" xmlns:svg="http://www.w3.org/2000/svg" xmlns="http://www.w3.org/2000/svg" xmlns:sodipodi="http://sodipodi.sourceforge.net/DTD/sodipodi-0.dtd" xmlns:inkscape="http://www.inkscape.org/namespaces/inkscape" version="1.0" id="Layer_1" x="0px" y="0px" width="80" height="100" viewBox="0 0 79.999999 100" enable-background="new 0 0 96.677 99.999" xml:space="preserve" inkscape:version="0.48.1 " sodipodi:docname="mind the gap.svg"><metadata id="metadata31"><rdf:RDF><cc:Work rdf:about=""><dc:format>image/svg+xml</dc:format><dc:type rdf:resource="http://purl.org/dc/dcmitype/StillImage"/><dc:title/></cc:Work></rdf:RDF></metadata><defs id="defs29"/><sodipodi:namedview pagecolor="#ffffff" bordercolor="#666666" borderopacity="1" objecttolerance="10" gridtolerance="10" guidetolerance="10" inkscape:pageopacity="0" inkscape:pageshadow="2" inkscape:window-width="1280" inkscape:window-height="778" id="namedview27" showgrid="false" fit-margin-top="0" fit-margin-left="0" fit-margin-right="0" fit-margin-bottom="0" inkscape:zoom="5.2200522" inkscape:cx="22.175819" inkscape:cy="53.00151" inkscape:window-x="-8" inkscape:window-y="1192" inkscape:window-maximized="1" inkscape:current-layer="Layer_1"/>

<g id="g3036" transform="matrix(0.64260254,0,0,0.59043792,16.169559,25.588185)"><path id="path3" d="m 50.512,12.147 c 3.362,0.278 6.279,-2.222 6.557,-5.579 0.255,-3.357 -2.245,-6.273 -5.607,-6.551 -3.334,-0.255 -6.274,2.245 -6.528,5.602 -0.279,3.334 2.221,6.274 5.578,6.528 z" inkscape:connector-curvature="0"/><path id="path5" d="m 45.349,14.648 c 1.204,-0.833 2.662,-1.389 4.283,-1.25 2.083,0.162 3.802,1.458 4.844,3.033 l 6.135,12.177 8.38,5.764 c 0.718,0.555 1.157,1.435 1.064,2.407 -0.115,1.505 -1.435,2.639 -2.939,2.5 -0.463,-0.023 -0.833,-0.208 -1.25,-0.394 l -9.145,-6.296 c -0.277,-0.231 -0.509,-0.509 -0.693,-0.81 l -2.292,-4.561 -2.761,12.13 10.793,12.755 c 0.255,0.393 0.417,0.856 0.51,1.319 l 2.916,15.394 c -0.022,0.348 0.023,0.557 0,0.834 -0.162,2.291 -2.152,3.959 -4.421,3.797 -1.875,-0.162 -3.265,-1.551 -3.704,-3.265 L 54.314,55.76 45.535,46.153 43.498,55.505 c -0.069,0.439 -0.648,1.366 -0.81,1.736 l -8.426,14.19 c -0.833,1.296 -2.246,2.13 -3.843,1.991 C 28.127,73.26 26.438,71.27 26.622,69 c 0.047,-0.648 0.324,-1.319 0.556,-1.782 L 35.003,54.092 41.531,25.179 37.27,28.63 35.001,38.931 c -0.301,1.32 -1.504,2.408 -2.917,2.292 -1.528,-0.116 -2.64,-1.436 -2.523,-2.963 0,-0.116 0.023,-0.231 0.046,-0.37 l 2.686,-12.015 c 0.162,-0.509 0.44,-0.972 0.833,-1.319 l 12.223,-9.908 z" inkscape:connector-curvature="0"/></g>

<path d="m 50.332176,69.497085 0,6.049562 0,0.182216 0,24.271137 7.35274,0 0,-24.271137 22.315084,0 0,-6.231778 z" id="rect9" inkscape:connector-curvature="0" sodipodi:nodetypes="ccccccccc"/>








<polygon id="polygon3009" points="83.642,69.339 51.867,37.562 51.867,100 31.609,100 31.609,37.786 0,69.339 0.054,41.737 0.054,41.737 41.849,0 83.642,41.737 " transform="matrix(0.11225292,0,0,0.10314054,39.296935,76.16275)" style="fill:#000000"/><path style="fill:#000000" inkscape:connector-curvature="0" d="M 8.6011189,8.1903305 C 11.058313,8.1821605 13.05859,6.3454314 13.05859,4.0958687 13.05859,1.8136542 11.058313,-0.02308169 8.6011189,2.4192864e-4 6.1261556,-0.02424786 4.1271472,1.8136542 4.1436469,4.0958687 c -0.0165,2.2495627 1.9825087,4.0862985 4.457472,4.0944618 l 0,0 z" id="path3021"/><path style="fill:#000000" d="m -5e-7,10.094752 0,3.024782 2.657412,0 7.8135855,0 c 1.417709,0.01866 2.657411,1.116911 2.657411,2.441691 l 0,4.154519 c 0,1.321282 -1.169895,2.409912 -2.657411,2.405248 l -7.8135855,0 -2.657412,0 0,2.879008 2.657412,0 19.3158165,0 c 5.264689,0.0082 8.026177,3.43761 8.051561,7.39796 l 0,9.511661 c 0.01396,4.597084 -3.592821,7.374636 -8.051561,7.397959 l -19.3158165,0 -2.657412,0 0,49.744897 2.657412,0 18.2052565,0 L 21.576599,100 32.52355,100 26.29648,91.399416 c 6.183599,-0.94344 12.349112,-6.896792 12.335151,-14.13994 l 0,-52.879009 C 38.646862,16.925072 31.829609,10.086589 22.56817,10.094752 l -19.8314328,0 -2.7367377,0 z M 22.687159,70.663266 c 3.921864,-0.01867 7.079346,2.905538 7.099653,6.48688 -0.02031,3.593003 -3.177789,6.495334 -7.099653,6.523323 -3.887595,-0.02799 -7.071413,-2.93032 -7.05999,-6.523323 -0.01142,-3.581342 3.172395,-6.504374 7.05999,-6.48688 z" id="path3023" inkscape:connector-curvature="0"/></svg>