<svg xmlns="http://www.w3.org/2000/svg" xmlns:xlink="http://www.w3.org/1999/xlink" version="1.1" id="Layer_1" x="0px" y="0px" width="100px" height="100px" viewBox="0 0 100 100" enable-background="new 0 0 100 100" xml:space="preserve">
<path d="M82.814,46.037c0,0,0.234-1.253,0.484-1.253s-1.351,0.4-1.351,0.4l-1.8-0.55l-1.583,1.617c0,0-1.167,1.05-1.434-1.117  l-1.633-0.333c0,0-2.284-2.017,0.3-2.133l1-0.75l0.184-0.983l1.583-1.367l1.3-1.367l1.15,0.217c0,0-1.134,4.933,0.133,3.5  c1.267-1.434,2.284-2.267,2.733-2.267c0.45,0,3.95-5.133,3.95-5.133l0.384,0.45c0,0,2.017,0.134,1.25-0.95s-0.05-0.617,0.25-0.617  s2.4-1.85,1.9-2.733c-0.5-0.883,0.816,0.483,0.816,0.483l0.767-0.78c0,0-1.2-3.37-1.066-3.77c0.133-0.4,0.783-0.934,0.783-1  c0-0.067,1.7,1.55,1.684-1.233c-0.018-2.783,0.85-6.033,0.416-6.434c-0.434-0.4-1.733,1.134-1.733,1.134l-0.767,0.1l-0.4,0.767  l-1.767,0.817l-0.85-0.683l-0.616-1.434l-1.917-0.5c0,0-1.017,0.017-1.017-0.05c0-0.067-0.75,0.333-0.75,0.333l-0.867-1.1  c0,0-3.55-5.233-3.967-5.267c-0.416-0.033-1.783,0.133-2.35-0.383c-0.566-0.517-1.917,0.333-2.066,0.517  c-0.15,0.183-1.417,0.85-1.784,0.767c-0.366-0.083-1.633,2.15-0.166,1.65s0.183,1.683-0.167,1.917s-0.867,2.367-0.816,2.55  c0.05,0.183,0.483,0.733-0.5,1.45s-2.117,0.733-2.634,0.5s-1.267,3.55-1.117,3.783c0.15,0.233,0.5,0.567,0.5,0.567  s0.501-0.5,0.817-0.3c0.316,0.2,0.967-0.217,1.166,0.116c0.2,0.333,0.084-1.8,2.167-0.35c2.083,1.45,2.116,1.867,0.3,1.883  s-0.066,0.216-1.899,0.75l-0.351,0.733l-0.3-0.366c0,0-0.65,0.783-0.8,0.783c-0.15,0-0.033,0.783-0.033,0.783s-1.117,1-2.233,0.95  c-1.117-0.05-0.434,2.066-3.434,1.116l-0.634,0.517c0,0-0.416,1.716,0.134,1.933s0.05,1-0.434,1s-0.95,2.067-1.717,2.034  c-0.767-0.034-3.616,0.75-3.616,0.75l-4.05,1.7c0,0-0.567-0.033-0.65-0.367s-2.666-0.383-2.933-0.383  c-0.268,0-1.384-1.867-4.684-1.033c-3.3,0.833-4.65-0.767-4.716-0.75c-0.067,0.017-1.4-2.967-1.4-2.967l-2.884-1.933  c0,0-4-0.134-3.784-1.317l0.55-1c0,0-0.05-0.8,0-0.95c0.05-0.15,0.233-0.633,0.233-0.633s-2.167-1.8-3.767-5.333l-0.479-0.283  c0,0-0.725,0.163-0.987,0.087c-0.263-0.075,0.112,0.65-1.825,1.113c-1.938,0.462-0.525,2.438-0.525,2.438s0.9,2.25-3.712-0.913  c0,0-0.825,2.562-1.613,2.913c-0.788,0.35,0.288,0.95,0.288,0.95l-3.587-0.1c0,0,0.812,0.738-0.062,1.2l0.05-0.028v1.128  l0.225,0.637c0,0-0.15,1.438-1.237,2.1v0.812l-0.825,0.337l-0.175,0.4l-0.875-0.175c0,0-1.925,0.925-1.925,0.988  s-1.862-0.088-1.862-0.225c0-0.138-0.913,0.812-0.913,0.812l-1.125-0.075l-0.225-0.525c0,0-0.938,0.062-1.125-0.138  c-0.188-0.2-0.262,0.525-1.337,0.525l0.05-0.001l-0.525,0.463v0.45l-0.725,0.8l0.075,1.4l0.65-0.138l0.837,0.812  c0,0,0.475,2.775-1.438,2.288c-1.912-0.487,2.038,2,2.038,2s0.325,0.55-0.438,1.062c-0.762,0.513,1.85,1.538,1.85,1.538  s1.025,0.425,1.95,0.075c0.925-0.35,3.987,0.587,2.05,2.637l-1.025,1h-1.062l0.125,0.55l-0.325,0.325l0.425,0.75l0.362,0.25  l0.013,1.112h-0.588l-0.412,0.462l-0.713-0.75c0,0-0.387,0.788,0.062,1.038c0.45,0.25,0.038,1.35-0.188,1.6  c-0.225,0.25,3.475,3.7,3.475,3.7l0.7-0.375c0,0,1.925,1.362,1.925,1.588c0,0.225,1.288,1.512,1.288,1.512l0.725-0.162  c0,0,0.6-0.025,0.15,0.862s1,0.875,1,0.875l2.062,1.713h1.1c0,0,1.725,1.149,2.9,0.5c1.175-0.65,1.425,0.138,0.825,0.962  c-0.6,0.825,1.4-0.537,1.438-0.875c0.037-0.337,1.312-0.737,1.938,0.163c0.625,0.899,0.862,0.388,1.087,0.35  c0.225-0.037,0.8,0.038,1.05,0.5c0.25,0.463,1.888-0.1,1.763-0.524c-0.125-0.426,1.175-0.875,1.175-0.875l1,0.024  c0,0,1.087-1.375,2.65-0.662l1.35-0.663l0.525,0.438l-0.325,0.363l0.737,0.524c0,0-2.3,1.388,1.375,1.163  c3.675-0.226,1.5,4.938,1,6.188s-1.038,1.55-1.038,1.55l0.113,1.2l2.075-0.188l-0.1,0.562c0,0,0.15,1.562,0.975,1.562  c0.825,0,0.488,1.175-0.087,1.987c0,0,1.275,0.237,1.35,0.612s1.225,1.162,1.812,0.575c0.588-0.588,0.75,0.212,0.725,0.85  c-0.024,0.638,0.963,0,0.963,0l-0.225-1.662c0,0-0.438-0.788,0.712-0.675c1.15,0.112,1.4-0.688,1.4-0.688l0.612,0.337l0.625-0.362  l0.275,0.075l0.337-0.138l0.425,0.375l0.312-0.4l0.601,0.15l0.675-0.263l0.225-0.774c0,0,0.888-0.801,1.325,0.175  c0.438,0.975,2.338,0.438,2.338,0.438l-0.413,0.662l1.575,1.788c0,0,0.55-0.638,1.476,0.05c0.925,0.688,1.074-0.088,1.074-0.088  v-0.587l1.5,0.8l1.138,0.013c0,0-0.737,1.975,0.638,2.175s0.675-0.612,0.675-0.612s-1.175-0.875,0.075-1.426  c1.25-0.55,4.463-1.912,4.463-1.912l1.087-0.912l-0.25-1.125l0.875,0.649c0,0,4.438-0.075,5.562-2.912l0.926-0.904l0.8-1  l-0.233-0.351l2.134-2.45c0,0,3.649-8.566,3.3-9.033c-0.351-0.467,1.133-1.566-2.983-1.399c-4.117,0.166,1.899-1.967,2.3-1.967  s-0.35-1.816-0.35-1.816l-2.4-1.8l-1.5-2.684c0,0-2.3-1-1.5-2.083s2.483-4.083,4.066-4.067"/>
<path d="M63.494,88.517v0.302c0,0,0.688,0.267,0.754,0.517c0.067,0.25,0.601-0.267,1.034,0.083c0.433,0.35,0.3-0.583,0.699-0.566  c0.4,0.017,0.367-0.684,0.75-0.684c0.384,0,0.317-1.934,1.101-2.35c0.783-0.417-1.167-1.101-1.017-0.634l-0.917,0.217h-1  l-0.333,0.434h-0.367v0.467c0,0-1.467,1.267-0.666,2.267L63.494,88.517z"/>
</svg>