<svg xmlns="http://www.w3.org/2000/svg" xmlns:xlink="http://www.w3.org/1999/xlink" version="1.1" id="Layer_1" x="0px" y="0px" width="77.2727272727px" height="100px" viewBox="0 0 612 792" enable-background="new 0 0 612 792" xml:space="preserve">
<g>
	<path fill="none" d="M360.714,339.29c-3.316,2.296-11.489,3.92-21.054,3.92c-8.992,0-16.762-1.436-20.414-3.517   c-0.715,0.696-1.393,1.439-2.031,2.232c-11.327,14.067-7.983,39.518-6.742,46.756h60.998c1.004-7.359,3.436-32.756-8.252-46.789   C362.438,340.955,361.598,340.093,360.714,339.29z"/>
	<path fill="none" d="M310.71,342.553c-2.356-1.694-4.328-2.256-5.861-1.631c-2.641,1.079-7.313,6.411-9.275,29.868   c2.177,0.566,5.512,1.107,8.426,1.481C303.963,362.761,305.358,351.485,310.71,342.553z"/>
	<polygon points="377.211,306.55 390.867,237.558 289.534,237.558 303.189,306.55  "/>
	<polygon points="390.867,399.182 288.995,399.182 278.753,440.12 400.568,439.581  "/>
	<polygon points="356.371,322.317 359.605,313.154 319.719,313.154 322.412,322.317  "/>
	<path d="M304.211,378.345c0.483,7.44,1.625,12.826,1.746,13.373l0.431,1.964h69.311l0.378-2.046   c0.229-1.241,4.861-27.261-4.475-45.915l3.635-15.447l-14.981,2.341c-5.484-3.573-12.194-5.38-20.056-5.38   c-11.094,0-19.812,3.525-25.95,10.468c-4.177-3.004-8.094-3.795-11.668-2.336c-9.527,3.89-12.036,22.555-13.093,36.256   l-0.246,3.007l1.816,0.908C293.95,376.985,300.777,377.938,304.211,378.345z M371.471,388.682h-60.998   c-1.241-7.238-4.584-32.689,6.742-46.756c0.639-0.792,1.316-1.536,2.031-2.232c3.652,2.081,11.422,3.517,20.414,3.517   c9.564,0,17.737-1.625,21.054-3.92c0.884,0.803,1.724,1.665,2.505,2.604C374.906,355.926,372.475,381.323,371.471,388.682z    M304.849,340.922c1.533-0.625,3.504-0.063,5.861,1.631c-5.352,8.932-6.747,20.208-6.709,29.718   c-2.915-0.374-6.249-0.915-8.426-1.481C297.536,347.333,302.208,342,304.849,340.922z"/>
</g>
</svg>