<svg xmlns="http://www.w3.org/2000/svg" xmlns:xlink="http://www.w3.org/1999/xlink" version="1.1" id="Layer_1" x="0px" y="0px" width="100px" height="100px" viewBox="0 0 100 100" enable-background="new 0 0 100 100" xml:space="preserve">
<path d="M17.026,37.525V61.82v10.413V100h65.947V72.233V61.82V37.525H17.026z M23.969,44.467h20.825V61.82H23.969V44.467z   M23.969,93.058V72.233h20.825v20.824H23.969z M76.032,93.058H55.207V72.233h20.825V93.058z M76.032,44.467V61.82H55.207V44.467  H76.032z"/>
<path d="M73.992,26.285c0.24-0.21,0.518-0.41,0.735-0.625c2.742-2.742,4.454-5.786,4.951-8.804c0.611-3.686-0.559-7.122-3.372-9.935  C71.195,1.806,63.65,2.418,57.565,8.5c-2.538,2.541-4.053,6.076-5.016,9.539c-1.269-4.9-3.746-10.11-6.644-13.01  c-6.088-6.081-13.63-6.698-18.741-1.579c-2.814,2.813-3.981,6.249-3.373,9.935c0.499,3.018,2.21,6.062,4.952,8.804  c1.539,1.539,3.73,2.93,6.146,4.096H17.026v6.942h65.947v-6.942H73.992z M62.474,13.409c1.983-1.981,4.027-3.073,5.753-3.073  c1.131,0,2.169,0.488,3.173,1.493c1.213,1.215,1.67,2.452,1.43,3.896c-0.258,1.556-1.325,3.34-3.01,5.026  c-2.309,2.309-7.749,4.506-11.769,5.261C58.552,22.162,59.638,16.249,62.474,13.409z M30.641,12.254  c-0.236-1.444,0.217-2.681,1.435-3.896c1.003-1.005,2.04-1.494,3.171-1.494c1.727,0,3.769,1.092,5.75,3.073  c2.854,2.856,4.974,9.101,5.456,12.769c-4.063-0.529-10.286-2.912-12.8-5.425C31.968,15.595,30.898,13.81,30.641,12.254z"/>
</svg>