<svg xmlns="http://www.w3.org/2000/svg" xmlns:xlink="http://www.w3.org/1999/xlink" xmlns:a="http://ns.adobe.com/AdobeSVGViewerExtensions/3.0/" version="1.1" x="0px" y="0px" width="100.0px" height="100px" viewBox="-44.962 0.537 250 250" enable-background="new -44.962 0.537 250 250" xml:space="preserve">
<defs>
</defs>
<path d="M126.795,249.872l-5.068-6.189l26.459-21.67l3.933-0.654c2.383,0.891,4.517,0.809,6.008-0.227  c1.556-1.08,2.412-3.164,2.412-5.869v-145c0-6.626-5.137-14.141-11.217-16.408l-0.146-0.059L39.823,8.012  c-8.66-0.255-17.459,3.097-23.702,9.031C10.884,22.02,8,28.378,8,34.947v4H0v-4c0-8.783,3.768-17.201,10.609-23.703  C18.576,3.673,29.911-0.513,40.907,0.05l1.342,0.305l109.947,46.033c9.17,3.467,16.342,13.936,16.342,23.875v145  c0,5.326-2.132,9.859-5.85,12.441c-3.078,2.135-7.019,2.771-11.074,1.84L126.795,249.872z"/>
<path d="M1.038,38.491v145c0,8.08,6.053,16.912,13.493,19.688l105.042,46.072c1.457,0.543,2.91,0.824,4.293,0.824  c5.277,0,8.823-4.104,8.823-10.209v-145c0-8.08-6.053-16.912-13.492-19.688l-9.267-4.064c-1.756,1.523-4.893,5.444-4.893,14.093v56  l-18-25.25l-13.25,11.25c0,0-0.169-34.875-0.044-50.25c-0.037-10.146,1.992-16.831,5.298-19.391L14.155,29.104  c-1.457-0.543-2.91-0.823-4.293-0.823C4.584,28.281,1.038,32.384,1.038,38.491z"/>
<path d="M4.475,29.498C2.76,30.81,1.495,32.787,0.91,35.272C1.715,33.491,3.003,31.483,4.475,29.498z"/>
</svg>