<svg xmlns="http://www.w3.org/2000/svg" xmlns:xlink="http://www.w3.org/1999/xlink" version="1.1" id="Layer_1" x="0px" y="0px" width="100.0px" height="100px" viewBox="0 0 144 144" enable-background="new 0 0 144 144" xml:space="preserve">
<g>
	<path fill="#000000" d="M27.116,87.964c2.076,7.08,9.496,11.141,16.586,9.062c7.08-2.076,11.135-9.5,9.057-16.58   c-0.848-2.904-2.619-5.291-4.881-6.971l1.473-2.832l14.691,13.818c-1.174,2.896,0.188,6.205,3.074,7.422   c0.549,0.229,1.107,0.369,1.672,0.424l7.426,1.861c-0.09,1.48,0.061,3,0.504,4.506c2.078,7.08,9.498,11.135,16.584,9.057   c7.076-2.07,11.135-9.5,9.061-16.574c-2.074-7.086-9.498-11.141-16.58-9.07c-0.209,0.061-0.408,0.148-0.613,0.217   c-0.01-0.35-0.053-0.688-0.109-1.01c-0.156-0.766-0.66-3.16-1.193-5.695l9.025,1.723l0.238,0.047   c0.623,0.113,1.229-0.289,1.342-0.914c0.107-0.539-0.186-1.062-0.68-1.266l-10.438-4.424l-0.467-0.201   c-0.035-0.014-0.07-0.02-0.105-0.033c-0.094-0.424-0.174-0.816-0.244-1.148c0.094,0.02,0.184,0.043,0.266,0.078l15.477,5.662   c8.389,3.389,20.184-7.289,5.252-22.828c-5.197-5.406-11.27-11.322-11.27-11.322c-2.162-1.379-10.111,2.652-13.547,4.311   c-2.193,0.771-3.551,3.391-8.301,3.391c-3.301,0-10.395-0.154-14.809-0.244l-3.961-0.168c-0.705-0.031-1.301,0.52-1.334,1.227   c0,0,0,7.971,0,11.17c0,1.785,0.693,2.375,1.25,2.848c0.605,0.508,2.371,1.988,3.006,2.469c0.625,0.471,1.514,0.352,1.984-0.273   c0.434-0.574,0.373-1.375-0.129-1.865c-0.564-0.559-1.148-1.086-1.727-1.623c-0.186-0.176-0.381-0.348-0.572-0.521   c1.184-1.262,2.346-2.541,3.492-3.836c0.018-0.004,0.027-0.004,0.033-0.004c1.049,0.693,2.566,1.137,4.529,0.67   c2.504-0.6,12.055-2.711,16.049-3.719c1.855-0.467,3.613-1.477,5.127-2.309c1.734,2.225,3.812,4.387,5.971,5.525   c0.654,0.344,5.092,3.809,6.131,4.115c1.225,0.354,1.322,0.285,1.182,1.059c-0.186,0.975-0.166,0.945-1.705,0.451l-17.047-6.828   c-1.672-0.578-3.377,0.357-3.793,2.078l-4.582,22.018c-0.875-0.027-1.73,0.148-2.518,0.498L50.214,65.624   c-0.854-0.807-2.201-0.768-3.002,0.09c-0.121,0.125-0.211,0.262-0.293,0.404c-0.016,0.023-0.037,0.047-0.049,0.076l-2.754,5.324   c-2.488-0.82-5.234-0.928-7.938-0.135C29.106,73.462,25.044,80.884,27.116,87.964z M65.144,53.175   c-6.758,1.549-9.322,2.428-11.867,4.992l-0.111-7.211c1.016,1.066,2.377,2.055,3.564,2.055   C58.034,53.011,61.503,53.091,65.144,53.175z M80.456,85.134c-0.328,0.303-0.631,0.611-0.92,0.934l-5.027-2.971   c0.25-0.404,0.434-0.814,0.568-1.225c0.359-1.062,1.408-4.658,2.205-7.395L80.456,85.134z M79.337,94.95l9.676,2.426l0.002-0.02   c1.158,0.25,2.361-0.342,2.838-1.473c0.471-1.123,0.057-2.4-0.932-3.059l0.012-0.014l-8.621-5.104   c0.072-0.066,0.143-0.135,0.213-0.201c1.133-1.082,2.535-1.924,4.145-2.395c5.41-1.58,11.084,1.514,12.668,6.926   c1.59,5.412-1.514,11.088-6.926,12.668c-5.412,1.586-11.08-1.506-12.67-6.926C79.462,96.839,79.337,95.892,79.337,94.95z    M37.065,74.409c1.887-0.559,3.811-0.523,5.574-0.041l-4.621,8.936c-0.543,1.043-0.135,2.32,0.904,2.857   c0.318,0.17,0.648,0.242,0.975,0.242c0.77,0,1.516-0.416,1.883-1.148l4.631-8.943c1.537,1.258,2.727,2.973,3.332,5.023   c1.58,5.412-1.52,11.08-6.928,12.666c-5.416,1.588-11.094-1.512-12.674-6.924C28.554,81.671,31.651,75.997,37.065,74.409z"/>
	<path fill="#000000" d="M72.833,45.255c-0.992-0.619-2.496-2.713-2.307-4.809c1.604,0.227,2.75,0.158,2.75,0.158l1.738-1.074   c-0.307-1.258-0.316-3.77-0.205-5.279c-0.867-0.389-1.672-0.746-1.672-0.746l0.744-1.801c0,0-5.295-0.576-5.789-2.93   c3.885,0.891,7.65-0.084,9.059-0.279c1.406-0.205,8.879-1.293,11.266,3.682c1.129,2.344-1.17,5.76-1.039,7.135L72.833,45.255z"/>
</g>
</svg>