<svg xmlns="http://www.w3.org/2000/svg" xmlns:xlink="http://www.w3.org/1999/xlink" version="1.1" id="Layer_1" x="0px" y="0px" width="100.0px" height="100px" viewBox="0 0 144 144" enable-background="new 0 0 144 144" xml:space="preserve">
<g>
	<path d="M117.599,66.142c-0.039-5.607-0.352-9.998-0.738-9.998c-0.383,0-0.695,4.271-0.74,9.766   c-0.084-0.004-0.158-0.02-0.242-0.02c-1.629-0.871-11.945-1.74-15.639-2.172c-1.738-3.148-5.973-3.91-5.973-3.91   s-0.291-2.992-3.146-2.715c-0.975,0.096-9.994,0.652-12.816,0.867c-2.822,0.219-10.688,6.201-10.688,6.201l1.287-1.873   c-2.473,0.986-5.043,2.623-5.043,2.623s-17.738,0.377-25.184-0.953c-2.662-0.477-10.082-9.25-11.617-10.771   c-1.541-1.52-2.055-1.629-3.498-1.629c-0.793,0-4.793,0-8.24,0c1.773,4.209,5.393,12.85,6.496,15.463l3.008,0.068l-3.477,1.012   c-0.406,0.291-0.754,0.701-0.359,1.133c4.191,4.604,48.275,7.646,60.639,8.719l0.369,4.271c-1.482,0.355-2.607,1.623-2.607,3.213   c0,1.859,1.508,3.363,3.367,3.363c1.857,0,3.365-1.504,3.365-3.363c0-1.506-1.008-2.736-2.377-3.166l0.08-4.141   c0.152,0.01,0.318,0.023,0.451,0.033c5.508,0.361,14.533-0.1,20.906-0.834l0.404,1.883c-0.809,0.252-1.402,0.975-1.402,1.865   c0,1.096,0.887,1.988,1.984,1.988c1.1,0,1.988-0.893,1.988-1.988c0-0.943-0.67-1.693-1.555-1.895l-0.539-1.959   c2.76-0.342,4.922-0.734,5.906-1.129c2.031-1.854,3.33-5.035,3.748-6.172c0.053,0,0.105,0.006,0.16,0.006   c0.082,0,0.156-0.018,0.236-0.02c0.018,5.887,0.344,10.586,0.746,10.586c0.406,0,0.732-4.82,0.744-10.822   c1.961-0.533,3.369-1.762,3.369-1.762S119.562,66.679,117.599,66.142z M79.706,65.981c0,0.734-0.488,0.957-1.01,0.973   c-0.486,0.014-6.949-0.084-8.035-0.191c-1.086-0.109-0.195-1.91,0.146-2.514c0.334-0.59,0.629-0.969,1.816-1.152   c1.414-0.217,5.043-0.201,6.018-0.311c0.975-0.107,1.104,0.258,1.143,1.045C79.8,64.163,79.706,65.194,79.706,65.981z    M84.089,85.437c0,0.738-0.6,1.334-1.332,1.334c-0.734,0-1.334-0.596-1.334-1.334c0-0.736,0.6-1.332,1.334-1.332   C83.489,84.104,84.089,84.7,84.089,85.437z M82.466,67.087c-0.811-0.037-1.035-0.639-1.035-1.152c0-0.516,0-1.605,0-2.34   s0.48-0.99,1.176-0.99l8.145-0.375l0.469,4.9C91.22,67.13,83.731,67.144,82.466,67.087z M99.567,64.938   c-1.844,2.254-5.16,2.145-6.137,2.145l-0.709-5.445c0.537-0.029,0.953-0.506,1.18-1.07l0.008,0.012l0.176,0.033   c0.037,0.008,4.035,0.764,5.643,3.674C99.728,64.286,99.841,64.604,99.567,64.938z M106.169,80.29c0.438,0,0.789,0.354,0.789,0.787   s-0.352,0.789-0.789,0.789c-0.432,0-0.787-0.355-0.787-0.789S105.737,80.29,106.169,80.29z"/>
</g>
</svg>