<svg xmlns="http://www.w3.org/2000/svg" xmlns:xlink="http://www.w3.org/1999/xlink" version="1.1" id="Layer_1" x="0px" y="0px" width="100px" height="100px" viewBox="0 0 100 100" enable-background="new 0 0 100 100" xml:space="preserve">
<g>
	<path d="M30.072,45.743l11.982,11.982l-3.924,3.928c-0.596,0.621-0.588,1.611,0.024,2.221c0.239,0.24,0.608,0.408,1.447,0.461   l11.1,0.008l11.178,0.002c0.699,0,1.35-0.301,1.814-0.777c0.477-0.465,0.779-1.115,0.779-1.812l-0.004-11.18l-0.01-11.167   c-0.01-0.691-0.186-1.109-0.459-1.381c-0.611-0.612-1.6-0.62-2.221-0.024l-3.836,3.833L45.962,29.854   c-0.865-0.865-2.267-0.865-3.131,0L30.072,42.612C29.208,43.477,29.208,44.878,30.072,45.743L30.072,45.743z M80.35,68.936   c0.623,2.574,0.178,5.395-1.463,7.736c-3.029,4.328-8.996,5.379-13.324,2.35c-0.119-0.084-0.234-0.17-0.35-0.258l-8.086,10.385   l-1.979,2.539c0.334,0.256,0.674,0.506,1.02,0.75c11.738,8.219,27.918,5.365,36.137-6.371c4.463-6.375,5.662-14.062,3.943-21.068   l-3.121,0.773L80.35,68.936L80.35,68.936z M66.422,62.807c3.098-1.707,7.025-1.625,10.117,0.539c0.523,0.367,1,0.777,1.426,1.223   l9.254-8.984l2.498-2.428c-1.135-1.172-2.396-2.256-3.785-3.227c-5.871-4.111-12.852-5.453-19.393-4.298   c0.004,6.62,0.006,16.12,0.006,16.12C66.545,62.115,66.504,62.469,66.422,62.807L66.422,62.807z M62.195,74.811   c-1.102-2.695-0.951-5.84,0.613-8.486c-0.301,0.061-0.611,0.094-0.93,0.094c0,0-9.711-0.002-16.338-0.006   c-0.911,4.885-0.391,9.924,1.451,14.492l3.233-1.295L62.195,74.811L62.195,74.811z M78.852,65.639   c0.123,0.174,0.24,0.352,0.352,0.533l11.131-6.979l2.75-1.725c-0.301-0.482-0.619-0.959-0.953-1.424l-2.816,2.037L78.852,65.639   L78.852,65.639z M63.232,76.541c-0.119-0.174-0.23-0.354-0.336-0.533l-14.248,8.277c0.286,0.49,0.591,0.975,0.912,1.447   L63.232,76.541L63.232,76.541z M75.191,65.27c-3.268-2.285-7.768-1.492-10.053,1.773c-2.289,3.266-1.494,7.768,1.771,10.055   c3.266,2.285,7.766,1.492,10.053-1.773S78.457,67.557,75.191,65.27L75.191,65.27z M32.187,37.566   c-2.825,1.013-6.082,0.686-8.727-1.167c-0.119-0.083-0.235-0.168-0.35-0.256l-8.086,10.384l-1.978,2.538   c0.333,0.257,0.672,0.507,1.019,0.751c6.381,4.469,14.074,5.664,21.088,3.939l-6.547-6.547c-1.674-1.674-1.674-4.389,0-6.063   L32.187,37.566L32.187,37.566z M38.248,26.313c0.432,1.791,0.349,3.701-0.293,5.485l3.411-3.411c1.674-1.674,4.388-1.674,6.062,0   l6.652,6.652c1.076-4.187,1.076-8.542,0.064-12.664l-3.121,0.773L38.248,26.313L38.248,26.313z M20.093,32.188   c-1.189-2.911-0.92-6.347,1.018-9.114c3.031-4.328,8.997-5.38,13.325-2.349c0.524,0.367,1,0.777,1.427,1.222l9.253-8.984l2.5-2.428   C46.48,9.362,45.217,8.28,43.83,7.309C32.091-0.911,15.913,1.942,7.694,13.68c-5.229,7.469-5.977,16.734-2.806,24.604l3.233-1.296   L20.093,32.188L20.093,32.188z M36.749,23.018c0.124,0.174,0.241,0.352,0.352,0.532l11.131-6.979l2.75-1.725   c-0.301-0.483-0.619-0.958-0.951-1.422L47.21,15.46L36.749,23.018L36.749,23.018z M21.13,33.919   c-0.119-0.174-0.231-0.353-0.338-0.534L6.545,41.664c0.287,0.491,0.591,0.974,0.912,1.449L21.13,33.919L21.13,33.919z    M44.985,5.658c10.157,7.113,14.142,19.759,10.728,31.015l2.23,2.23c1.479-1.477,2.398-2.397,2.4-2.398   c1.434-1.375,3.711-1.357,5.123,0.055c0.773,0.774,1.051,1.787,1.064,2.82c0.004,0.005,0.006,1.724,0.006,4.208   c6.947-1.137,14.328,0.333,20.551,4.69c12.65,8.857,15.725,26.293,6.867,38.941c-8.859,12.65-26.291,15.725-38.941,6.867   C45.849,87.67,41.71,76.752,43.495,66.41c-2.364,0-3.981-0.002-3.986-0.006c-1.053-0.061-2.046-0.291-2.82-1.064   c-1.411-1.41-1.43-3.688-0.054-5.123c0.001-0.002,0.959-0.961,2.489-2.492L36.797,55.4c-7.862,2.293-16.656,1.129-23.887-3.934   C0.261,42.608-2.813,25.175,6.043,12.525C14.901-0.125,32.335-3.199,44.985,5.658L44.985,5.658z M33.088,22.649   c-3.266-2.287-7.767-1.493-10.053,1.773c-2.287,3.266-1.493,7.767,1.772,10.053c3.266,2.287,7.767,1.493,10.053-1.772   C37.147,29.437,36.354,24.936,33.088,22.649L33.088,22.649z M73.555,67.607c1.975,1.383,2.455,4.105,1.072,6.08   s-4.105,2.455-6.08,1.072s-2.455-4.105-1.072-6.08S71.578,66.225,73.555,67.607L73.555,67.607z M31.452,24.987   c1.975,1.382,2.455,4.104,1.072,6.08c-1.383,1.975-4.105,2.455-6.081,1.072c-1.975-1.383-2.455-4.105-1.072-6.08   C26.755,24.083,29.477,23.604,31.452,24.987L31.452,24.987z"/>
</g>
</svg>