<svg xmlns="http://www.w3.org/2000/svg" xmlns:xlink="http://www.w3.org/1999/xlink" version="1.1" id="Layer_1" x="0px" y="0px" width="100px" height="100px" viewBox="0 0 100 100" enable-background="new 0 0 100 100" xml:space="preserve">
<g>
	<g>
		<circle fill="#000000" cx="12.547" cy="70.212" r="1.64"/>
		<path fill="#000000" d="M12.547,63.913c-0.543,0-1.07,0.068-1.572,0.198c-2.715,0.7-4.726,3.169-4.726,6.1    c0,2.932,2.011,5.401,4.726,6.102c0.502,0.129,1.029,0.197,1.572,0.197c3.473,0,6.298-2.825,6.298-6.299    C18.846,66.738,16.02,63.913,12.547,63.913z M12.547,74.005c-2.092,0-3.793-1.702-3.793-3.794c0-2.091,1.702-3.793,3.793-3.793    c2.091,0,3.793,1.702,3.793,3.793C16.341,72.303,14.639,74.005,12.547,74.005z"/>
		<circle fill="#000000" cx="75.077" cy="70.212" r="1.64"/>
		<path fill="#000000" d="M75.077,63.913c-0.542,0-1.069,0.068-1.571,0.198c-2.715,0.7-4.726,3.169-4.726,6.1    c0,2.932,2.011,5.401,4.726,6.102c0.502,0.129,1.029,0.197,1.571,0.197c3.474,0,6.3-2.825,6.3-6.299    C81.377,66.738,78.551,63.913,75.077,63.913z M75.077,74.005c-2.091,0-3.793-1.702-3.793-3.794c0-2.091,1.702-3.793,3.793-3.793    c2.092,0,3.794,1.702,3.794,3.793C78.871,72.303,77.169,74.005,75.077,74.005z"/>
		<path fill="#000000" d="M97.698,48.772h0.426c0.226,0,0.41-0.201,0.41-0.449v-1.7c0-0.248-0.185-0.449-0.41-0.449h-0.373V36.046    c-0.053-10.593-11.387-9.987-11.387-9.987H14.007c-5.249,0-6.132,3.855-6.132,3.855L4.581,46.153H4.334    c-0.276,0-0.5,0.225-0.5,0.501v1.649c0,0.277,0.225,0.501,0.5,0.501h3.364l-0.649,8.309c-1.776,0.325-4.381,1.698-4.381,3.398    v5.212c0,0.079,0.005,0.156,0.014,0.233l-0.015,1.368H1.939c-0.276,0-0.501,0.226-0.501,0.501v1.648    c0,0.277,0.225,0.501,0.501,0.501h1.156c0.209,0.456,0.499,0.867,0.851,1.214c0.212,0.208,0.648,0.249,0.581-0.296    c-0.042-0.341-0.01-1.321,0.027-1.634c0.386-3.264,3.386-7.097,7.993-7.097c4.438,0,8.049,3.61,8.049,8.049    c0,2.157,1.952,2.135,1.952,2.135h42.52c0,0,1.96,0,1.96-2.135c0-3.672,2.638-8.049,8.049-8.049c4.439,0,8.05,3.504,8.05,7.943    c0,2.442,2.462,2.24,2.462,2.24h9.143h3.302c0,0,0.501-0.017,0.501-0.501v-1.649c0-0.276-0.225-0.501-0.501-0.501h-1.531V48.772    H97.698z M20.413,56.103L8.778,56.839c-0.012-0.064-0.02-0.132-0.02-0.2l0.584-6.848c0-0.587,0.451-1.063,1.008-1.063h9.698    c0.557,0,1.009,0.476,1.009,1.063L20.413,56.103z M20.673,37.64c0,0.588-0.452,1.063-1.009,1.063H10.45    c-0.991,0-0.943-0.98-0.943-1.568l0.439-3.352c0.497-2.501,1.819-2.99,3.703-2.99h6.016c0.557,0,1.009,0.476,1.009,1.063V37.64z     M34.318,55.575c0,0.588-0.452,1.063-1.009,1.063h-8.711c-0.557,0-1.008-0.476-1.008-1.063l0.585-5.784    c0-0.587,0.451-1.064,1.009-1.064h8.125c0.557,0,1.009,0.477,1.009,1.064V55.575z M34.318,37.64c0,0.588-0.452,1.063-1.009,1.063    h-8.711c-0.557,0-1.008-0.475-1.008-1.063v-5.784c0-0.587,0.451-1.063,1.008-1.063h8.711c0.557,0,1.009,0.476,1.009,1.063V37.64z     M48.566,55.575c0,0.588-0.452,1.063-1.009,1.063h-8.71c-0.558,0-1.008-0.476-1.008-1.063v-5.784c0-0.587,0.451-1.064,1.008-1.064    h8.71c0.557,0,1.009,0.477,1.009,1.064V55.575z M48.566,37.64c0,0.588-0.452,1.063-1.009,1.063h-8.71    c-0.558,0-1.008-0.475-1.008-1.063v-5.784c0-0.587,0.451-1.063,1.008-1.063h8.71c0.557,0,1.009,0.476,1.009,1.063V37.64z     M62.814,55.575c0,0.588-0.452,1.063-1.01,1.063h-8.71c-0.558,0-1.009-0.476-1.009-1.063v-5.784c0-0.587,0.451-1.064,1.009-1.064    h8.71c0.558,0,1.01,0.477,1.01,1.064V55.575z M62.814,37.64c0,0.588-0.452,1.063-1.01,1.063h-8.71    c-0.558,0-1.009-0.475-1.009-1.063v-5.784c0-0.587,0.451-1.063,1.009-1.063h8.71c0.558,0,1.01,0.476,1.01,1.063V37.64z     M77.062,55.575c0,0.588-0.452,1.063-1.01,1.063h-8.71c-0.557,0-1.008-0.476-1.008-1.063v-5.784c0-0.587,0.451-1.064,1.008-1.064    h8.71c0.558,0,1.01,0.477,1.01,1.064V55.575z M77.062,37.64c0,0.588-0.452,1.063-1.01,1.063h-8.71    c-0.557,0-1.008-0.475-1.008-1.063v-5.784c0-0.587,0.451-1.063,1.008-1.063h8.71c0.558,0,1.01,0.476,1.01,1.063V37.64z     M81.592,38.703c-0.558,0-1.01-0.475-1.01-1.063v-5.784c0-0.587,0.452-1.063,1.01-1.063h6.016c1.103,0,3.703,0.645,3.703,2.99    v3.857c0,0.588-0.452,1.063-1.009,1.063H81.592z M94.755,69.594h-8.687V48.792h8.687V69.594z"/>
	</g>
</g>
</svg>