<svg xmlns="http://www.w3.org/2000/svg" xmlns:xlink="http://www.w3.org/1999/xlink" version="1.1" id="Layer_1" x="0px" y="0px" width="100px" height="100px" viewBox="0 0 100 100" enable-background="new 0 0 100 100" xml:space="preserve">
<path d="M59.538,54.001v17.528c0,2.84,0,3.917,1.469,3.917c1.958,0,2.154-1.37,2.35-2.938l1.959-12.633l3.427-3.916L59.538,54.001z   M25.46,40.292c0,0-1.959-2.938-7.932-1.958C11.653,39.312,7.344,44.307,0,44.111c1.175,0.979,4.504,2.938,8.715,2.938  c0,0,5.288,0.196,10.772-1.959C24.481,43.229,25.46,40.292,25.46,40.292L25.46,40.292z M36.428,58.897  c-1.175,1.664-2.057,3.623-2.253,5.875l-0.881,9.694c0,0,0.49,0.979,1.665,0.979c1.469,0,1.763-1.273,2.154-2.938l1.959-7.736  c2.057-2.84,4.7-5.19,5.875-8.715c0.686-1.958,0.686-3.721,0.881-5.484L36.428,58.897z M56.013,43.915  c-0.489,1.272-1.86,1.958-2.938,1.468c-1.272-0.49-1.762-1.762-1.371-3.035l2.155-5.777l-5.974,0.979  c-1.371,0.196-2.742-0.587-2.742-2.35V22.371c0-1.958,1.958-3.427,4.309-3.427c2.251,0,3.917,1.468,3.917,3.427v0.784l7.835,3.525  c1.174,0.489,1.958,1.273,1.468,2.154c0.979,0.685,3.917,2.546,7.443,4.7c0.587,0,1.076-0.098,1.076-0.098l18.606-6.757l4.896-2.938  l-1.665,3.133l6.562,13.416c0.196,0.392,0.294,0.784,0.294,1.273c0,1.665-1.273,2.84-3.134,2.84c-1.566,0-2.644-0.784-3.036-1.175  l-1.371-1.077c-0.979,1.077-2.545,2.35-4.7,2.35c-1.371,0-3.818-0.881-6.658-2.35l-5.777,3.917l-0.882,3.917l15.864,20.466  c0.489,0.686,0.979,1.566,0.979,2.35s-0.489,1.471-1.664,1.471c-0.882,0-1.567-0.784-1.567-0.784l-18.703-18.41l-23.306-6.072  l-9.792,8.912L23.795,64.87l-2.448,9.597c-0.294,1.176-0.979,2.645-2.644,2.645c-1.86,0-2.448-1.371-2.448-2.742  c0-0.685,0.098-1.272,0.293-1.86l2.938-10.674l8.911-10.87c0,0-7.442-7.05,0.196-14.591c3.036-3.036,8.323-3.231,13.219-2.938  c0.392,1.272,1.567,4.602,2.155,6.854c0.784,2.84,0.686,6.169,0.686,6.169c6.757-0.588,12.436-0.784,18.703-0.392  c0.686-3.819,0.49-8.226-0.588-12.241c1.273,0,2.352,0,3.429-0.098c-4.896-2.84-9.598-5.386-12.829-6.659v4.896l3.329-0.587  c0.979-0.196,1.567,0,2.057,0.392c0.979,0.587,1.078,1.861,0.687,3.036L56.013,43.915z M82.844,40.879  c2.154,0.979,3.818,1.665,4.798,1.665c1.567,0,2.547-0.783,3.231-1.566l-3.721-3.134L82.844,40.879z"/>
<path d="M44.967,11.831c0,2.361,1.672,4.428,4.428,4.428c2.559,0,4.328-1.968,4.525-4.231h0.787c0.787,0,0.787-0.983,0-0.983h-0.984  c-0.393-1.968-1.77-3.74-4.328-3.74C46.64,7.304,44.967,9.469,44.967,11.831L44.967,11.831z M51.56,12.027  c0.885,0,1.377,0.492,1.377,1.181c0,0.688-0.785,1.181-1.377,1.181c-0.787,0-1.574-0.394-1.574-1.377h-4.329  c-0.099-0.099-0.197-0.59-0.197-0.984H51.56z"/>
<path d="M79.088,26.668l0.8,1.7l-6.3,0.6l1.1,1.6l-5.5,0.4l1.801,1.6l18.403-6.558L79.088,26.668z"/>
</svg>