<svg xmlns="http://www.w3.org/2000/svg" xmlns:xlink="http://www.w3.org/1999/xlink" xmlns:a="http://ns.adobe.com/AdobeSVGViewerExtensions/3.0/" version="1.1" x="0px" y="0px" width="100.0px" height="100px" viewBox="-41.288 -2.458 250 250" enable-background="new -41.288 -2.458 250 250" xml:space="preserve">
<defs>
</defs>
<path d="M0.001,13.251C0.001,5.933,5.934,0,13.251,0l165.773,165.773c0,7.318-5.932,13.25-13.249,13.25H13.251  c-7.317,0-13.25-5.932-13.25-13.25V13.251z"/>
<path d="M148.477,34.173l0.576-1.718c0.718-2.138,0.103-4.497-1.564-6.014c-1.67-1.517-4.078-1.902-6.137-0.984l-1.399,0.623  C140.714,30.32,144.167,33.629,148.477,34.173z"/>
<path d="M133.237,29.073L59.727,61.836c-2.866,1.277-4.153,4.637-2.876,7.504c1.277,2.866,4.637,4.155,7.504,2.877l69.809-31.113  L108.65,117.14c-0.999,2.976,0.604,6.197,3.578,7.195c0.601,0.202,1.21,0.298,1.81,0.298c2.374-0.001,4.589-1.502,5.386-3.877  l26.724-79.644C139.944,39.792,134.981,35.111,133.237,29.073z"/>
<path d="M121.216,233.589l-31.986-31.986H74.095V183.44H49.986v18.162H34.851L2.864,233.589c-3.818,3.817-3.818,10.008,0,13.825  h118.352C125.034,243.597,125.034,237.406,121.216,233.589z"/>
<path d="M149.726,14.381c-5.479,0-9.938,4.459-9.938,9.939c0,5.481,4.459,9.94,9.938,9.94c5.481,0,9.94-4.459,9.94-9.94  C159.666,18.84,155.207,14.381,149.726,14.381z"/>
</svg>