<svg xmlns="http://www.w3.org/2000/svg" xmlns:xlink="http://www.w3.org/1999/xlink" version="1.1" id="Layer_1" x="0px" y="0px" width="100px" height="100px" viewBox="0 0 100 100" enable-background="new 0 0 100 100" xml:space="preserve">
<g>
	<path d="M23.091,54.031c-0.437-0.315-0.857-0.635-1.263-0.96c2.912-3.716,7.201-6.492,12.038-7.757   c0.033-0.011,0.115,0.063,0.115,0.063l0.889,5.245l-0.293-5.106c-6.341-1.836-11.797-4.872-15.814-8.519l7.309-7.309   c1.931,2.89,4.454,5.768,7.478,8.421c0.156-0.913,0.329-1.865,0.517-2.859c0.268-1.43,0.616-2.754,1.047-3.972   c-5.597-2.785-9.362-7.771-11.065-15.985C22.71,8.827,21.673,6.13,13.606,5.107c0,0,0.876-1.133,1.094-1.373   c4.232-4.639,9.773-4.684,14.324,0.431c2.959-2.631,6.381-2.304,9.184,0.342c0.386,0.365,1.963,2.295,1.963,2.295   c-2.138-0.54-4.209-1.203-6.32-0.029c-2.375,1.322-2.678,4.742-1.366,9.942c1.251,4.03,3.538,6.752,6.101,8.588h0.878V24.43   c1.188-1.08,2.547-1.939,4.074-2.582c0.282-2.968,3.658-5.309,7.781-5.309c4.14,0,7.528,2.364,7.783,5.352   c1.501,0.644,2.838,1.498,4.01,2.569v0.843h0.844c2.562-1.836,4.85-4.558,6.1-8.587c1.311-5.201,1.011-8.622-1.363-9.944   c-2.112-1.174-4.186-0.51-6.321,0.029c0,0,1.577-1.93,1.962-2.295c2.807-2.646,6.229-2.973,9.186-0.342   c5.524-6.208,11.294-4.388,15.42,0.942C77.169,6.6,80.23,12.612,77.15,20.221c-2.057,5.082-5.099,8.743-9.723,11.051   c0.431,1.22,0.781,2.543,1.052,3.978c0.186,0.994,0.357,1.946,0.515,2.859c3.024-2.653,5.548-5.531,7.478-8.421l7.309,7.309   c-4.019,3.647-9.472,6.683-15.814,8.519l-0.293,5.106l0.889-5.245c0,0,0.082-0.074,0.114-0.063   c4.84,1.266,9.126,4.041,12.037,7.757c-0.404,0.325-0.824,0.645-1.26,0.96c3.903,2.052,7.128,5.151,9.162,8.817   c-0.533,0.304-1.084,0.597-1.653,0.877c1.91,3.115,3.477,6.399,4.652,9.793c-0.745,0.27-1.501,0.526-2.272,0.775   c-1.163-3.298-2.695-6.488-4.559-9.518c0.572-0.281,1.122-0.576,1.656-0.881c-2.035-3.665-5.261-6.762-9.16-8.816   c0.432-0.314,0.853-0.635,1.259-0.961c-2.354-3.002-5.605-5.391-9.32-6.866l-0.231,1.367c3.156,1.485,5.915,3.649,7.979,6.286   c-0.403,0.325-0.826,0.646-1.262,0.96c3.902,2.054,7.128,5.153,9.165,8.816c-0.533,0.304-1.087,0.598-1.658,0.88   c1.814,2.946,3.313,6.046,4.46,9.246c-7.837,2.312-16.819,3.532-26.405,3.448c1.396-4.016,2.314-7.271,2.895-9.575   c-1.441,2.333-3.56,4.537-6.645,5.644c-0.686,1.132-3.221,1.971-6.244,1.973c-3.022-0.002-5.558-0.841-6.247-1.973   c-3.082-1.106-5.2-3.311-6.642-5.644c0.581,2.305,1.502,5.56,2.897,9.575c-9.591,0.084-18.57-1.137-26.411-3.448   c1.149-3.2,2.651-6.3,4.464-9.246c-0.571-0.282-1.125-0.576-1.658-0.88c2.037-3.663,5.26-6.763,9.163-8.816   c-0.434-0.313-0.855-0.635-1.262-0.96c2.066-2.637,4.823-4.801,7.979-6.286l-0.233-1.367c-3.713,1.475-6.963,3.864-9.318,6.866   c0.405,0.326,0.827,0.646,1.262,0.961c-3.902,2.055-7.128,5.151-9.163,8.816c0.533,0.305,1.084,0.6,1.656,0.881   c-1.863,3.029-3.396,6.22-4.558,9.518c-0.771-0.249-1.525-0.506-2.272-0.775c1.172-3.394,2.739-6.678,4.655-9.793   c-0.572-0.28-1.126-0.573-1.657-0.877C15.963,59.183,19.188,56.083,23.091,54.031L23.091,54.031z M78.841,36.354   c0-1.108-0.9-2.006-2.005-2.006c-1.107,0-2.008,0.898-2.008,2.006c0,1.107,0.9,2.004,2.008,2.004   C77.94,38.358,78.841,37.461,78.841,36.354L78.841,36.354z M23.704,36.354c0,1.107,0.897,2.004,2.006,2.004   c1.106,0,2.004-0.897,2.004-2.004c0-1.108-0.898-2.006-2.004-2.006C24.602,34.348,23.704,35.246,23.704,36.354L23.704,36.354z    M64.598,39.291v-1.487h-1.484v1.487H64.598L64.598,39.291z M64.598,35.794v-1.487h-1.484v1.487H64.598L64.598,35.794z    M56.22,42.785V41.3h-1.487v1.485H56.22L56.22,42.785z M56.22,39.291v-1.487h-1.487v1.487H56.22L56.22,39.291z M56.22,35.794   v-1.487h-1.487v1.487H56.22L56.22,35.794z M56.22,28.585v-1.272h-1.282l-0.205,0.077V28.8h0.324   C55.428,28.741,55.817,28.67,56.22,28.585L56.22,28.585z M47.843,42.785V41.3h-1.488v1.485H47.843L47.843,42.785z M47.843,39.291   v-1.487h-1.488v1.487H47.843L47.843,39.291z M47.843,35.794v-1.487h-1.488v1.487H47.843L47.843,35.794z M47.843,28.8v-1.434   l-0.141-0.054h-1.347v1.279c0.395,0.083,0.77,0.15,1.131,0.208H47.843L47.843,28.8z M39.465,42.785V41.3h-1.487v1.485H39.465   L39.465,42.785z M39.465,39.291v-1.487h-1.487v1.487H39.465L39.465,39.291z M39.465,35.794v-1.487h-1.487v1.487H39.465   L39.465,35.794z M64.598,42.785V41.3h-1.484v1.485H64.598L64.598,42.785z M36.771,46.11c-0.015,0.458-0.217,6.267,5.742,7.116   c5.847,0.834,7.25-2.648,7.833-3.85c0.306-0.724,0.926-0.689,0.926-0.689s0.619-0.034,0.924,0.689   c0.581,1.201,1.987,4.684,7.833,3.85c6.054-0.861,5.754-6.837,5.734-7.132c-1.882,0.439-3.935,0.752-6.021,0.967   c-1.938,0.764-3.751,1.782-5.153,2.84l0.619-2.025c0.28-0.185,0.578-0.365,0.889-0.537c-1.667,0.087-3.299,0.119-4.824,0.11   c-1.536,0.009-3.18-0.023-4.857-0.11c0.31,0.171,0.608,0.351,0.888,0.537l0.622,2.025c-1.403-1.058-3.215-2.076-5.155-2.841   c-2.073-0.211-4.115-0.52-5.986-0.946L36.771,46.11L36.771,46.11z M43.132,61.177c5.935-1.196,8.139-0.359,8.139-0.359   s2.201-0.837,8.136,0.359c3.895,0.787,5.593-1.77,5.593-1.77s-2.086,1.532-5.554,0.647c3.087,0.589,4.939-1.423,4.939-1.423   s-1.851,1.008-5.784-0.198c-3.157-0.971-5.223,0.307-6.188,1.182c-0.77,0.565-1.142,1.202-1.142,1.202s-0.373-0.637-1.141-1.202   c-0.972-0.875-3.032-2.152-6.191-1.184c-3.934,1.208-5.784,0.2-5.784,0.2s1.852,2.012,4.94,1.421   c-3.471,0.887-5.555-0.646-5.555-0.646S39.241,61.964,43.132,61.177L43.132,61.177z M42.248,64.801c0,1.313,1.012,2.396,2.31,2.537   c0.419,0.05,1.19,0.092,2.159-0.461c1.639-0.936,4.519-0.914,4.555-0.914s2.917-0.021,4.559,0.914   c0.964,0.553,1.734,0.511,2.155,0.461c1.3-0.141,2.31-1.224,2.31-2.537c0-1.359-1.084-2.473-2.451-2.549   c-1.476-0.147-2.562,0.352-4.353,0.716c0,0-0.983,0.208-2.22,0.218c-1.235-0.01-2.218-0.218-2.218-0.218   c-1.794-0.364-2.877-0.863-4.353-0.716C43.333,62.328,42.248,63.441,42.248,64.801L42.248,64.801z M33.333,5.841   c1.007-0.561,2.457-0.891,3.9-0.78c-1.082-0.948-3.208-2.339-5.544-1.303c-0.951,0.422-1.787,0.935-2.433,1.688l-0.274,0.322   L28.711,5.44c-6.11-7.454-11.564-2.746-13.084-1.14c4.92,0.79,7.054,3.113,8.208,6.026c0.295,0.743,0.526,1.523,0.724,2.327   c0.198,0.792,0.365,1.605,0.536,2.423c0.336,1.631,0.678,3.246,1.287,4.746c3.641,8.992,10.443,13.383,24.891,13.383   c14.447,0,21.249-4.391,24.889-13.383c0.609-1.5,0.95-3.115,1.29-4.746c0.169-0.818,0.338-1.631,0.531-2.423   c0.202-0.803,0.433-1.584,0.727-2.327c1.155-2.913,3.29-5.236,8.211-6.026c-1.521-1.606-6.978-6.314-13.087,1.14l-0.27,0.328   l-0.274-0.322c-0.646-0.752-1.486-1.265-2.437-1.688c-2.334-1.036-4.462,0.355-5.543,1.303c1.442-0.111,2.895,0.219,3.901,0.78   c3.158,1.758,3.162,6.065,1.873,11.162c-2.133,6.894-7.111,10.196-11.525,11.758c-2.769,0.979-5.326,1.283-6.851,1.372v-3.581   c2.956-0.418,5.182-2.227,5.182-4.395c0-2.477-2.903-4.486-6.484-4.486c-3.583,0-6.488,2.009-6.488,4.486   c0,2.102,2.091,3.866,4.913,4.353v3.623c-1.524-0.09-4.08-0.394-6.843-1.372c-4.417-1.562-9.395-4.864-11.527-11.758   C30.172,11.907,30.175,7.599,33.333,5.841L33.333,5.841z M40.468,48.926l7.297,1.986c-0.327,0.23-2.109,1.38-4.188,0.545   C41.72,50.711,40.769,49.406,40.468,48.926L40.468,48.926z M62.041,48.926c-0.3,0.479-1.252,1.785-3.107,2.531   c-2.079,0.835-3.861-0.314-4.192-0.545L62.041,48.926L62.041,48.926z M52.186,80.887c-0.406,0.659-1.488,0.641-1.856-0.052   c-0.249,0.468-0.823,0.629-1.291,0.48c0.011,5.715-0.729,12.106-2.582,17.345c-0.474,1.341-2.481,0.63-2.01-0.709   c1.919-5.428,2.747-13.125,2.406-18.942c-0.035-0.587,0.562-1.033,1.471-1.336c0.051-1.155,1.56-1.312,2.005-0.471   c0.368-0.691,1.45-0.709,1.856-0.052c0.439-0.722,1.701-0.631,1.939,0.271c1.221,0.25,2.099,0.714,2.093,1.405   c0,0.052-0.041,9.022,2.854,14.23c0.691,1.24-1.172,2.276-1.861,1.035c-2.078-3.733-2.877-9.099-3.078-13.507   C53.917,81.517,52.632,81.617,52.186,80.887L52.186,80.887z"/>
</g>
</svg>