<svg xmlns="http://www.w3.org/2000/svg" xmlns:xlink="http://www.w3.org/1999/xlink" version="1.1" id="Layer_1" x="0px" y="0px" width="50px" height="50px" viewBox="0 0 50 50" enable-background="new 0 0 50 50" xml:space="preserve">
<g>
	<path fill-rule="evenodd" clip-rule="evenodd" d="M28.127,4.943c0.506,0,1.015,0,1.52,0c4.026,0.508,6.542,2.199,7.688,4.966   c6.712-0.369,11.592,4.863,8.618,9.998c0.989,1.079,1.814,2.286,2.112,3.906c0,0.464,0,0.927,0,1.391   c-0.888,4.123-4.709,6.909-10.982,6.159c-1.614,2.117-4.486,4.237-8.955,3.973c-2.31-0.139-3.917-0.944-5.324-1.922   c-1.482,0.813-3.087,1.451-5.406,1.458c-5.365,0.012-8.954-3.12-9.041-7.416c-3.449-1.005-5.785-2.881-6.421-6.091   c0-0.464,0-0.929,0-1.391c0.702-3.181,2.911-5.179,6.589-6.026c-0.221-5.366,7.136-8.719,13.18-6.355   C23.144,6.424,25.18,5.149,28.127,4.943z"/>
</g>
<circle fill-rule="evenodd" clip-rule="evenodd" cx="10.343" cy="37.335" r="1.857"/>
<circle fill-rule="evenodd" clip-rule="evenodd" cx="6.759" cy="41.109" r="1.32"/>
<circle fill-rule="evenodd" clip-rule="evenodd" cx="3.682" cy="44.231" r="0.949"/>
</svg>