<svg xmlns="http://www.w3.org/2000/svg" xmlns:xlink="http://www.w3.org/1999/xlink" version="1.1" id="Layer_1" x="0px" y="0px" width="100px" height="77.2727272727px" viewBox="0 0 792 612" enable-background="new 0 0 792 612" xml:space="preserve">
<path d="M430.5,273h-70c-1.658,0-3,1.343-3,3v1v41c0,1.657,1.342,3,3,3h1h68h1c1.656,0,3-1.343,3-3v-41v-1  C433.5,274.343,432.157,273,430.5,273z M429.5,317h-68v-40h68V317z"/>
<path d="M433.6,323.016c-0.604-0.559-1.772-1.016-2.596-1.016h-71.007c-0.823,0-1.992,0.457-2.596,1.016L345.5,334v2c0,0,0,3,3,3h94  c3,0,3-3,3-3v-2L433.6,323.016z M382.361,329.367h26.279l2.027,3.266h-30.333L382.361,329.367z M402.5,335c0,0.553-0.447,1-1,1h-12  c-0.553,0-1-0.447-1-1v-1h14V335z"/>
</svg>