<svg xmlns="http://www.w3.org/2000/svg" xmlns:xlink="http://www.w3.org/1999/xlink" version="1.1" id="Layer_1" x="0px" y="0px" width="100px" height="100px" viewBox="0 0 100 100" enable-background="new 0 0 100 100" xml:space="preserve">
<g>
	<path d="M50,100C22.432,100,0,77.568,0,50C0,22.43,22.432,0,50,0c27.57,0,50,22.43,50,50C100,77.568,77.57,100,50,100z M50,1.475   C23.243,1.475,1.475,23.243,1.475,50S23.243,98.525,50,98.525S98.525,76.757,98.525,50S76.757,1.475,50,1.475z"/>
	<path d="M50,3.667C24.412,3.667,3.667,24.41,3.667,50c0,25.589,20.745,46.333,46.333,46.333S96.333,75.589,96.333,50   C96.333,24.41,75.588,3.667,50,3.667z M50,8.457c9.02,0,17.359,2.885,24.172,7.767l-8.57,14.381   c-3.758-3.025-8.406-4.986-13.492-5.415L50,11.748L47.891,25.19c-5.087,0.428-9.735,2.389-13.49,5.415l-8.572-14.381   C32.639,11.34,40.982,8.457,50,8.457z M34.562,81.957c-5.164,1.863-10.911-0.939-12.833-6.264L13.74,53.555   c-1.923-5.325,0.71-11.153,5.873-13.014c5.166-1.865,10.91,0.938,12.833,6.262l7.988,22.14   C42.355,74.27,39.727,80.096,34.562,81.957z M86.262,53.555l-7.99,22.141c-1.922,5.322-7.668,8.127-12.83,6.263   c-5.166-1.862-7.797-7.688-5.875-13.013l7.988-22.141c1.924-5.324,7.666-8.127,12.834-6.262   C85.551,42.403,88.182,48.23,86.262,53.555z"/>
</g>
</svg>