<svg xmlns="http://www.w3.org/2000/svg" xmlns:xlink="http://www.w3.org/1999/xlink" version="1.1" id="Layer_1" x="0px" y="0px" width="100px" height="100px" viewBox="0 0 100 100" enable-background="new 0 0 100 100" xml:space="preserve">
<circle fill="#000000" cx="50" cy="53.571" r="7.915"/>
<path fill="#000000" d="M50,0C22.386,0,0,22.386,0,50c0,27.613,22.386,50,50,50c27.613,0,50-22.387,50-50C100,22.386,77.613,0,50,0z   M50,8.163c17.871,0,33.115,11.209,39.11,26.977c-0.064,2.236-0.672,4.801-2.994,5.485c-9.949,3.827-18.259-4.401-36.626-4.656  c-18.368,0.255-26.595,8.483-36.543,4.656c-1.653-0.487-2.425-1.927-2.748-3.523C15.637,20.311,31.396,8.163,50,8.163z   M60.969,53.571c0,6.059-4.91,10.97-10.969,10.97s-10.969-4.911-10.969-10.97c0-6.058,4.911-10.969,10.969-10.969  S60.969,47.514,60.969,53.571z M20.902,76.531c-1.285,0.584-2.652,0.082-3.928-0.864c-4.667-5.997-7.744-13.291-8.578-21.258  c1.131-1.159,2.91-1.637,5.371-0.838C19.34,55.379,26.515,73.979,20.902,76.531z M64.898,88.777  c-0.338,0.225-0.583,0.425-0.749,0.601c-4.42,1.59-9.182,2.459-14.149,2.459c-5.637,0-11.011-1.123-15.918-3.143  c-5.617-3.789-3.066-7.098-0.281-11.909c2.806-4.847,15.689-3.315,15.689-3.315s12.965-1.531,15.771,3.315  C68.068,81.633,70.682,84.953,64.898,88.777z M85.326,72.402c-1.847,2.36-4.619,5.253-7.095,4.129  c-5.611-2.552,1.568-21.152,7.141-22.96c3.082-0.998,5.093,0,6.104,1.838C90.677,61.601,88.526,67.364,85.326,72.402z"/>
</svg>