<svg xmlns="http://www.w3.org/2000/svg" xmlns:xlink="http://www.w3.org/1999/xlink" version="1.1" id="Layer_1" x="0px" y="0px" width="100px" height="100px" viewBox="0 0 100 100" enable-background="new 0 0 100 100" xml:space="preserve">
<path d="M24.642,88.521c0,3.433-2.781,6.215-6.213,6.215l0,0c-3.433,0-6.214-2.782-6.214-6.215V19.312  c0-3.433,2.781-6.215,6.214-6.215l0,0c3.432,0,6.213,2.782,6.213,6.215V88.521z"/>
<path d="M55.182,88.522c0,3.432-2.78,6.214-6.212,6.214l0,0c-3.433,0-6.214-2.782-6.214-6.214V19.313  c0-3.432,2.781-6.214,6.214-6.214l0,0c3.432,0,6.212,2.782,6.212,6.214V88.522z"/>
<path d="M86.914,88.522c0,3.432-2.783,6.214-6.215,6.214l0,0c-3.432,0-6.213-2.782-6.213-6.214V19.313  c0-3.432,2.781-6.214,6.213-6.214l0,0c3.432,0,6.215,2.782,6.215,6.214V88.522z"/>
<path d="M9.302,40.596c-3.934,0.008-7.13-2.768-7.136-6.2l0,0c-0.009-3.432,3.176-6.22,7.109-6.228l79.359-0.166  c3.936-0.009,7.132,2.767,7.138,6.199l0,0c0.008,3.432-3.176,6.221-7.11,6.23L9.302,40.596z"/>
<path d="M9.302,75.946c-3.934,0.01-7.13-2.767-7.136-6.199l0,0c-0.009-3.432,3.176-6.221,7.109-6.229l79.359-0.166  c3.936-0.009,7.132,2.767,7.138,6.2l0,0c0.008,3.43-3.176,6.219-7.11,6.229L9.302,75.946z"/>
<g>
	<path d="M78.791,9.54c1.05-1.958,2.769-1.958,3.818,0c1.049,1.958,2.768,5.161,3.818,7.118s0.191,3.559-1.908,3.559   c-2.101,0-5.538,0-7.639,0c-2.1,0-2.959-1.602-1.909-3.559S77.74,11.498,78.791,9.54z"/>
</g>
<g>
	<path d="M47.061,9.54c1.05-1.958,2.769-1.958,3.818,0c1.049,1.958,2.768,5.161,3.818,7.118s0.191,3.559-1.908,3.559   c-2.101,0-5.538,0-7.639,0c-2.1,0-2.959-1.602-1.909-3.559S46.01,11.498,47.061,9.54z"/>
</g>
<g>
	<path d="M16.519,9.54c1.05-1.958,2.769-1.958,3.818,0c1.049,1.958,2.768,5.161,3.818,7.118s0.191,3.559-1.908,3.559   c-2.101,0-5.538,0-7.639,0c-2.1,0-2.959-1.602-1.909-3.559S15.468,11.498,16.519,9.54z"/>
</g>
</svg>