<svg xmlns="http://www.w3.org/2000/svg" xmlns:xlink="http://www.w3.org/1999/xlink" version="1.1" id="Layer_1" x="0px" y="0px" width="100px" height="100px" viewBox="0 0 100 100" enable-background="new 0 0 100 100" xml:space="preserve">
<path d="M84.217,27.754c-0.268-1.052,0.433-2.254,0-3.336c-0.307-0.77-1.409-1.346-2.293-2.085  c-1.752-1.464-2.955-2.518-5.005-3.337c-0.2-2.833,0.378-5.763-1.042-7.923c-4.134,2.053-3.531,8.841-9.385,9.174  c-2.946-1.644-4.215-6.944-8.757-5.63c-1.472,3.972,0.495,9.178,1.042,13.137c-0.906,1.374-1.85,2.575-2.889,3.567  c0.004,0.237-0.087,0.475-0.275,0.648c-0.1,0.092-0.163,0.197-0.149,0.413c0.106,1.666,3.952,5.07,5.89,6.439  c0.453,0.32,0.911,0.665,1.396,1.028c1.62,1.217,3.457,2.597,5.226,3.067c0.672,0.179,1.771,0.145,2.834,0.111  c1.965-0.061,3.988-0.12,5.05,0.966c3.286-1.194,7.123-0.729,9.193-3.312c1.61-2.011,2.401-4.864,2.502-8.549  C86.906,30.197,84.746,29.836,84.217,27.754z"/>
<path d="M70.375,45.988c0-0.473,0.232-0.902,0.604-1.244c-0.116,0.003-0.234,0.007-0.346,0.01c-1.242,0.038-2.415,0.074-3.332-0.17  c-2.092-0.557-4.071-2.043-5.816-3.354c-0.475-0.356-0.923-0.692-1.356-0.999c-0.062-0.043-5.868-4.181-6.551-7.316  c-0.149,0.088-0.297,0.182-0.451,0.262c-5.636,2.938-10.795-0.355-17.933-0.834c-6.185-0.415-10.559,0.943-13.554,3.754  c-3.404-0.4-2.768,2.434-3.336,5.004c-0.358,1.617-1.385,2.817-1.668,3.754c-1.492,4.932-1.933,14.828-2.919,20.852  c-0.429,2.617-1.188,4.806-1.251,6.465c-0.093,2.431,0.11,8.658,1.459,10.217c1.312,1.517,6.641,1.223,6.881-0.417  c0.234-1.602-2.615-1.576-3.336-3.127c-0.725-1.558-0.355-5.277,0.417-7.299c0.909-2.38,3.028-4.792,4.379-7.298  c1.411-2.618,3.101-4.819,4.587-7.09c2.2,1.777,3.26,0.065,4.796-0.626c2.026,1.701,0.185,4.709,0.208,7.507  c0.005,0.56,0.319,1.232,0.417,1.877c0.41,2.682,0.048,6.071,0.626,7.507c0.649,1.613,7.031,3.54,7.506,0.833  c0.247-1.405-2.616-2.038-3.127-3.335c-1.197-3.038,0.654-9.5,2.502-10.219c1.641,1.418,3.335,2.782,5.213,3.963  c2.422,7.741,1.176,16.659,3.128,23.354c1.956,0.785,6.103,1.581,8.132,0c-0.341-2.829-3.425-3.66-3.754-6.881  c-0.479-4.708,1.249-9.892,1.877-14.805c2.533-2.124,7.641-1.674,10.635-3.337c1.654,6.805-1.385,14.705,1.46,20.019  c2.253,1.055,5.97,1.373,7.298-0.626c-0.354-1.778-2.557-1.979-3.127-3.544c-1.666-4.565,1.965-9.347,2.502-13.972  c0.23-1.995-0.025-4.114,0.208-6.047c0.333-2.75,1.417-5.188,1.46-7.507c0.023-1.239-0.22-2.447-0.363-3.631  c-0.406,0.183-0.878,0.294-1.387,0.294C71.579,47.98,70.375,47.088,70.375,45.988z"/>
<path fill="#000000" d="M73.062,43.995c-0.846,0-1.591,0.296-2.084,0.749c-0.371,0.342-0.604,0.771-0.604,1.244  c0,1.101,1.204,1.993,2.688,1.993c0.509,0,0.98-0.111,1.387-0.294c0.776-0.349,1.301-0.976,1.301-1.699  C75.75,44.887,74.546,43.995,73.062,43.995z"/>
</svg>