<svg xmlns="http://www.w3.org/2000/svg" xmlns:xlink="http://www.w3.org/1999/xlink" version="1.1" id="Layer_1" x="0px" y="0px" width="100px" height="100px" viewBox="0 0 100 100" enable-background="new 0 0 100 100" xml:space="preserve">
<path d="M94.805-0.3H48.396C12.494-0.3,5.195,26.906,5.195,38.745l9.957,5.126c0-16.185,15.432-31.069,36.425-31.069  c10.659,0,20.896,6.041,27.451,12.083L94.805-0.3z"/>
<path d="M76.821,27.277L39.001,43.71l-0.421,5.649h46.042C84.622,45.598,84.719,35.448,76.821,27.277z"/>
<polygon points="38.287,52.816 35.754,83.654 43.02,88.384 50.275,83.654 47.742,52.816 "/>
<path d="M5.626,83.665h26.047l3.629-42.192l37.191-16.627c-5.48-5.172-13.16-8.348-21.792-8.348  c-19.936,0-32.274,15.937-32.274,30.699l-0.488,5.895L5.626,83.665z"/>
<path d="M59.572,99.7l4.277-10.223h9.836c4.193,0,4.014-4.008,4.014-4.008l-1.203-7.867h2.753l-1.204-6.931h4.439  c1.861,0,1.008-2.582,1.008-2.582c-0.428-2.174-3.146-10.237-4.824-15.417H51.291l2.666,32.423c0.041,0.549-0.215,1.079-0.675,1.378  L43.02,93.241l-8.706-5.699l-13.801,0.015L15.395,99.7H59.572z"/>
</svg>