<svg xmlns="http://www.w3.org/2000/svg" xmlns:xlink="http://www.w3.org/1999/xlink" version="1.1" id="Calque_1" x="0px" y="0px" width="100px" height="100px" viewBox="0 0 100 100" enable-background="new 0 0 100 100" xml:space="preserve">
<path fill="#000000" d="M50.038-0.037c-27.613,0-50,22.386-50,49.999c0,27.615,22.387,50,50,50s50-22.385,50-50  C100.038,22.349,77.651-0.037,50.038-0.037z M33.238,94.361C18.445,88.761,7.189,75.984,3.707,60.277  c3.848,2.537,20.694,11.195,61.695,2.352c0.96,3.436,3.514,6.16,6.774,7.23C64.291,96.958,43.658,96.516,33.238,94.361z   M75.259,48.889c-2.243,0-4.312,0.76-6.001,2.033C63.099,43.61,40.307,17.812,21.045,12.39c8.021-6.198,18.072-9.896,28.993-9.896  c10.676,0,20.527,3.525,28.456,9.474c9.018,12.455,0.777,37.458,0.686,37.734C77.971,49.18,76.648,48.889,75.259,48.889z   M81.659,68.006c2.356-1.966,3.871-4.988,3.871-8.385c0-1.104-0.159-2.166-0.456-3.168c4.099-1.594,10.458-5.015,12.422-6.087  c-0.079,9.482-2.938,18.296-7.802,25.677C84.486,77.133,82.375,71.044,81.659,68.006z"/>
</svg>