<svg xmlns="http://www.w3.org/2000/svg" xmlns:xlink="http://www.w3.org/1999/xlink" version="1.1" id="Calque_1" x="0px" y="0px" width="100px" height="85.1724137931px" viewBox="0 0 290.691 247.774" enable-background="new 0 0 290.691 247.774" xml:space="preserve">
<path d="M268.01,215.618c-5.92-7.52-12.646-16.064-26.072-16.064c-13.945,0-20.959,8.504-27.18,15.982  c-5.742,6.945-10.719,12.947-20.713,12.947c-10.719,0-15.969-6.043-22.066-13.029c-6.494-7.451-13.87-15.9-28.369-15.9  c-14.144,0-21.28,8.477-27.59,15.955c-5.879,6.959-10.938,12.975-21.205,12.975c-10.117,0-15.142-6.016-20.938-12.961  c-6.241-7.492-13.337-15.969-27.357-15.969v19.318c10.117,0,15.135,5.988,20.932,12.947c6.248,7.479,13.33,15.955,27.364,15.955  c14.137,0,21.287-8.477,27.59-15.928c5.879-6.973,10.958-12.975,21.205-12.975c10.705,0,15.969,6.029,22.066,13.016  c6.508,7.451,13.863,15.887,28.369,15.887c13.945,0,20.973-8.49,27.166-15.969c5.742-6.945,10.719-12.934,20.727-12.934  c9.365,0,14.055,5.947,19.51,12.852c5.92,7.533,12.646,16.051,26.059,16.051v-19.291  C278.141,228.483,273.438,222.522,268.01,215.618z M91.055,72.405c0-25.143-20.378-45.541-45.527-45.541S0,47.263,0,72.405  c0,25.156,20.378,45.527,45.527,45.527S91.055,97.562,91.055,72.405z M186.648,92.517c-6.836-5.441-7.957-15.408-2.516-22.244  l2.133-2.598c5.455-6.863,15.422-7.984,22.258-2.529l57.914,45.199l24.254-30.434L193.539,3.458  c-6.836-5.455-16.789-4.334-22.23,2.502L49.342,159.618c-3.281,4.129-4.143,9.393-2.823,14.109v-0.643  c24.145,0,24.145,28.93,48.296,28.93c24.384,0,24.384-28.93,48.795-28.93c25.211,0,25.211,28.93,50.436,28.93  c23.939,0,23.939-28.93,47.893-28.93c21.738,0,22.791,26.25,42.602,28.697c1.066-0.055,2.092-0.014,2.967,0.232l-0.123-30.297  L186.648,92.517z"/>
</svg>