<svg xmlns="http://www.w3.org/2000/svg" xmlns:xlink="http://www.w3.org/1999/xlink" version="1.1" id="Calque_1" x="0px" y="0px" width="100px" height="85.0533807829px" viewBox="0 0 281.951 239.045" enable-background="new 0 0 281.951 239.045" xml:space="preserve">
<path d="M198.569,42.794c-1.57-11.787-8.297-22.102-17.665-29.401C170.126,4.951,155.756,0.008,140.062,0  c-15.698,0.008-30.064,4.951-40.831,13.393c-9.372,7.299-16.098,17.614-17.669,29.401H0v92.77h116.42v20.009h49.112v-20.009h116.419  v-92.77H198.569z M99.136,42.794c1.373-5.834,5.018-11.272,10.756-15.827c7.403-5.819,18.143-9.71,30.169-9.703  c12.038-0.008,22.777,3.884,30.175,9.703c5.74,4.555,9.38,9.993,10.759,15.827H99.136z M180.084,173.36h-78.215v-17.178H0v82.863  h281.951v-82.863H180.084V173.36z"/>
</svg>