<svg xmlns="http://www.w3.org/2000/svg" xmlns:xlink="http://www.w3.org/1999/xlink" version="1.1" id="Calque_1" x="0px" y="0px" width="100px" height="86.8055555556px" viewBox="0 0 288.409 250.569" enable-background="new 0 0 288.409 250.569" xml:space="preserve">
<g>
	<path d="M285.815,98.711c-1.273-1.752-4.64,0.489-5.656-1.446c1.684-18.533-2.897-16.416-4.792-23.059   c-19.338-17.872-40.782-31.118-64.315-39.741c3.09-27.984-21.735-41.972-50.702-30.378c-3.208,4.832-3.983,12.571-0.677,23.834   c-4.713,1.668-9.432,3.332-14.154,5c-36.982-26.435-86.812,4.669-71.556,46.527c-18.958,4.324-36.735,6.268-50.342-0.292   c-12.739-5.784-23.854-9.328-23.617,2.809c6.52,15.285,11.283,31.183,9.688,49.244c4.412,6.229,10.917,7.838,19.52,4.817   c15.152-11.458,32.575-20.475,58.121-20.776c0.8,7.003,1.584,14.005,2.384,21.013c2.537,3.505,5.656,6.199,9.353,8.095   c13.005-0.05,25.566-2.902,37.436-9.891c2.078,1.796,4.156,3.593,6.238,5.39c2.547,26.651,45.402,30.758,54.76,7.601   c32.648-7.778,65.801-14.718,90.448-35.721C288.984,104.964,288.269,100.621,285.815,98.711z M237.719,80.228   c-4.64,0-8.405-3.055-8.405-6.821c0-3.766,3.766-6.821,8.405-6.821c4.63,0,8.391,3.055,8.391,6.821   C246.109,77.172,242.349,80.228,237.719,80.228z"/>
	<path d="M269.276,227.808c-4.797-5.331-11.361-12.615-23.839-12.615c-13.113,0-19.855,6.86-25.27,12.378   c-4.64,4.719-7.699,7.838-14.451,7.838c-6.707,0-9.758-3.119-14.372-7.838c-5.404-5.518-12.127-12.378-25.211-12.378   c-12.931,0-19.545,6.899-24.865,12.438c-4.896,5.113-7.744,7.778-13.918,7.778c-6.875,0-9.979-3.13-14.684-7.867   c-5.458-5.509-12.255-12.349-25.442-12.349c-13.227,0-20.058,6.83-25.536,12.328c-4.738,4.748-7.868,7.888-14.807,7.888   c-6.723,0-9.782-3.119-14.407-7.838c-5.404-5.518-12.136-12.378-25.23-12.378v15.162c6.728,0,9.777,3.109,14.407,7.827   c5.409,5.518,12.136,12.388,25.23,12.388c13.227,0,20.058-6.84,25.536-12.338c4.738-4.748,7.862-7.877,14.807-7.877   c6.875,0,9.979,3.129,14.683,7.867c5.458,5.498,12.255,12.348,25.443,12.348c12.931,0,19.545-6.899,24.865-12.447   c4.896-5.103,7.743-7.768,13.918-7.768c6.707,0,9.758,3.109,14.372,7.827c5.404,5.518,12.127,12.388,25.211,12.388   c13.108,0,19.851-6.87,25.27-12.378c4.64-4.718,7.7-7.837,14.451-7.837c5.474,0,8.075,2.605,12.571,7.601   c4.787,5.32,11.356,12.614,23.834,12.614v-15.161C276.374,235.408,273.772,232.802,269.276,227.808z"/>
	<path d="M269.276,190.741c-4.797-5.32-11.361-12.615-23.839-12.615c-13.113,0-19.855,6.86-25.27,12.379   c-4.64,4.718-7.699,7.837-14.451,7.837c-6.707,0-9.758-3.109-14.372-7.827c-5.404-5.519-12.127-12.389-25.211-12.389   c-12.931,0-19.545,6.9-24.865,12.447c-4.896,5.104-7.744,7.769-13.918,7.769c-6.875,0-9.979-3.129-14.684-7.867   c-5.458-5.498-12.255-12.349-25.442-12.349c-13.227,0-20.058,6.841-25.536,12.339c-4.738,4.748-7.868,7.877-14.807,7.877   c-6.723,0-9.782-3.109-14.407-7.827c-5.404-5.519-12.136-12.389-25.23-12.389v15.162c6.728,0,9.777,3.119,14.407,7.838   c5.409,5.508,12.136,12.378,25.23,12.378c13.227,0,20.058-6.841,25.536-12.339c4.738-4.738,7.862-7.877,14.807-7.877   c6.875,0,9.979,3.129,14.683,7.867c5.458,5.498,12.255,12.349,25.443,12.349c12.931,0,19.545-6.899,24.865-12.438   c4.896-5.113,7.743-7.778,13.918-7.778c6.707,0,9.758,3.119,14.372,7.838c5.404,5.508,12.127,12.378,25.211,12.378   c13.108,0,19.851-6.86,25.27-12.378c4.64-4.719,7.7-7.838,14.451-7.838c5.474,0,8.075,2.605,12.571,7.601   c4.787,5.331,11.356,12.615,23.834,12.615v-15.162C276.374,198.342,273.772,195.736,269.276,190.741z"/>
</g>
</svg>