<svg xmlns="http://www.w3.org/2000/svg" xmlns:xlink="http://www.w3.org/1999/xlink" version="1.1" id="Layer_1" x="0px" y="0px" width="100px" height="100px" viewBox="0 0 100 100" enable-background="new 0 0 100 100" xml:space="preserve">
<g>
	<path d="M33.42,69.395c-2.228-8.009-4.411-17.707-4.54-25.29c-0.036,0-0.064,0-0.102,0c-2.263,0-6,1.517-6,5.945   c0,1.29,0,12.888,0.759,19.92C26.366,69.763,29.658,69.555,33.42,69.395z"/>
	<path d="M98.647,26.41c-0.863-0.626-4.084-3.544-10.678-2.975l-0.854,5.43c1.744,0.295,4.198,0.078,4.198,0.078   s0.585,0.027,1.124-0.769c0.536-0.799,3.678-0.036,4.793,0.407C98.346,29.022,99.563,27.074,98.647,26.41z"/>
	<path d="M84.869,72.502c-1.991,0.013-4.679-0.209-8.068-0.486c-6.243-0.508-15.676-1.277-29.225-1.277   c-0.406-2.068-3.649-1.092-4.606-3.312c-1.384-3.908-1.733-6.881-2.001-9.021c-0.664-4.205-0.687-8.972,0.853-14.463   c0.523,0.145,1.244,0.321,1.819,0.512c-1.694,6.037-1.381,11.201-0.427,15.683c1.612,0.72,3.811,0.837,5.943,0.067   c1.145-0.412,4.113-1.251,7.262-2.718c1.242-0.579,2.338-0.33,2.649,1.132c0.207,0.967,1.826,6.881,2.9,10.776   c4.497,0.194,8.296,0.454,11.469,0.698c-1.948-6.399-5.78-20.269-6.42-22.489c-0.843-2.93-3.996-4.238-6.427-3.469   c-0.967,0.306-2.865,1.005-4.801,1.735c-1.007-4.292-0.954-9.729,4.225-12.78c0.539-0.284,1.112-0.542,1.728-0.765   c6.163-2.236,14.431-3.098,23.297-2.411l1.146-7.282c-10.016-0.583-18.592-0.312-25.729,0.559   c-0.522,0.063-1.001,0.082-1.461,0.082c-0.458-1.917-1.634-3.557-3.41-4.425c-2.05-1.002-4.418-0.747-6.397,0.455   c-0.656-0.296-1.364-0.575-2.154-0.823c-3.34-0.566-7.311,0.435-9.01,4.261c-1.656,3.728,0.02,5.188-0.389,7.472   c-1.52,1.033-2.693,2.11-3.509,3.194c-2.121,2.599-3.073,6.403-3.301,10.666c-0.018,0.002,0.017-0.001,0,0   c0.1,6.236,4.862,26.383,4.964,26.871c-7.476,0.263-13.195,0.729-17.436,1.073c-3.39,0.277-6.072,0.495-8.068,0.486   c-5.225-0.021-8.532-3.617-8.562-3.65L0.03,70.36c0.16,0.18,3.982,4.385,10.245,4.409c2.1-0.017,4.817-0.213,8.261-0.493   c4.549-0.37,10.264-0.836,17.806-1.088c0.266,0.789,0.587,1.268,1.121,1.508c1.214,0.545,5.825,0.545,6.809-0.138   c0.567-0.393,0.512-0.834,0.989-1.544c0.758-0.006,1.527-0.008,2.315-0.008c13.456,0,22.464,0.733,29.041,1.27   c3.381,0.275,6.064,0.493,8.146,0.493c0.039,0,0.076,0,0.114,0c6.263-0.024,10.085-4.229,10.245-4.409l-1.692-1.508   C93.398,68.888,90.132,72.482,84.869,72.502z M50.067,25.876c0.565,0.273,3.355,2.608,8.172,2.773   c-0.568,1.728-1.596,3.342-2.406,3.24c-0.81-0.102-0.198-2.106-1.249-2.519s-2.232,1.533-4.145,0.895   C48.528,29.628,49.125,27.114,50.067,25.876z"/>
</g>
</svg>