<svg xmlns="http://www.w3.org/2000/svg" xmlns:xlink="http://www.w3.org/1999/xlink" version="1.1" x="0px" y="0px" width="100px" height="100px" viewBox="0 0 100 100" enable-background="new 0 0 100 100" xml:space="preserve">
<g id="Layer_1">
	<g id="Layer_1_1_">
	</g>
	<g id="BACKGROUND">
	</g>
</g>
<g id="WATER">
	<g>
		
			<rect x="18.436" y="34.267" transform="matrix(0.8655 0.5009 -0.5009 0.8655 20.9451 -6.966)" fill="#000000" width="10.015" height="2.5"/>
	</g>
	<g>
		
			<rect x="29.531" y="23.192" transform="matrix(0.4994 0.8663 -0.8663 0.4994 38.4639 -17.6873)" fill="#000000" width="10.014" height="2.5"/>
	</g>
	<path fill="#000000" d="M49.672,7.636c-23.744,0-43.062,19.317-43.062,43.062c0,23.745,19.317,43.063,43.062,43.063   c23.746,0,43.064-19.317,43.064-43.063C92.736,26.954,73.418,7.636,49.672,7.636z M79.64,31.977l1.249,2.166l-8.675,5.003   l-1.249-2.166L79.64,31.977z M48.422,13.668v35.78h-35.78C13.292,30.006,28.98,14.317,48.422,13.668z M19.403,69.253l-1.243-2.17   l8.693-4.979l1.243,2.17L19.403,69.253z M33.033,81.869l-2.163-1.254l5.025-8.662l2.163,1.254L33.033,81.869z M50.922,86.011h-2.5   V75.996h2.5V86.011z M66.225,81.916l-5.001-8.677l2.166-1.248l5.001,8.677L66.225,81.916z M63.392,29.408l-2.165-1.249l5.003-8.676   l2.165,1.249L63.392,29.408z M79.621,69.45l-8.672-5.011l1.251-2.165l8.672,5.011L79.621,69.45z M74.97,51.948v-2.5h10.015v2.5   H74.97z"/>
</g>
</svg>