<svg xmlns="http://www.w3.org/2000/svg" xmlns:xlink="http://www.w3.org/1999/xlink" version="1.1" x="0px" y="0px" width="100px" height="100px" viewBox="0 0 100 100" enable-background="new 0 0 100 100" xml:space="preserve">
<g id="Layer_2" display="none">
	<g display="inline">
		<path fill="#000000" d="M91.426,38.088l0.412,0.33l-0.233-0.572C91.544,37.926,91.488,38.01,91.426,38.088z"/>
		<path fill="#000000" d="M85.823,24.372c0.103,0.013,0.201,0.042,0.303,0.058l-0.237-0.582L85.823,24.372z"/>
		<path fill="#000000" d="M93.818,29.44c-1.278-3.452-4.418-5.685-7.864-6.116l-0.065,0.524c3.267,0.409,6.231,2.523,7.435,5.775    c1.137,3.072,0.446,6.387-1.485,8.795l0.412,0.33c1.37-1.708,2.15-3.849,2.15-6.061C94.4,31.606,94.214,30.508,93.818,29.44z"/>
		<path fill="#000000" d="M93.323,29.623c-1.203-3.252-4.168-5.366-7.435-5.775l0.237,0.582c2.964,0.477,5.611,2.425,6.702,5.376    c0.352,0.949,0.517,1.921,0.517,2.881c0.001,1.862-0.631,3.674-1.74,5.159l0.233,0.572C93.77,36.01,94.46,32.695,93.323,29.623z"/>
		<path fill="#000000" d="M8.574,38.088c-0.063-0.078-0.118-0.162-0.178-0.242l-0.233,0.572L8.574,38.088z"/>
		<path fill="#000000" d="M14.177,24.372l-0.065-0.524l-0.238,0.582C13.976,24.414,14.074,24.385,14.177,24.372z"/>
		<path fill="#000000" d="M6.677,29.623c1.203-3.252,4.167-5.366,7.435-5.775l-0.065-0.524c-3.447,0.431-6.585,2.664-7.864,6.116    C5.787,30.508,5.6,31.606,5.6,32.687c0,2.212,0.78,4.353,2.151,6.061l0.412-0.33C6.23,36.01,5.54,32.695,6.677,29.623z"/>
		<path fill="#000000" d="M7.172,29.806c1.09-2.951,3.738-4.899,6.702-5.376l0.238-0.582c-3.267,0.409-6.231,2.523-7.435,5.775    C5.54,32.695,6.23,36.01,8.162,38.418l0.233-0.572c-1.109-1.484-1.741-3.297-1.74-5.159C6.655,31.727,6.821,30.755,7.172,29.806z"/>
		<path fill="#000000" d="M50,8.625c11.629,0,22.048,5.081,29.014,13.057c0.304-0.165,0.618-0.312,0.937-0.451    C72.801,12.924,62.03,7.625,50,7.625s-22.801,5.299-29.951,13.606c0.319,0.139,0.633,0.287,0.937,0.451    C27.952,13.706,38.371,8.625,50,8.625z"/>
		<path fill="#000000" d="M87.944,45.25c0,11.487-5.512,21.751-14.112,28.471c-0.166,0.566-0.348,1.127-0.554,1.676    c9.503-6.868,15.666-17.825,15.666-30.146c0-0.218-0.013-0.433-0.017-0.649c-0.325,0.108-0.657,0.199-0.993,0.281    C87.936,45.005,87.944,45.126,87.944,45.25z"/>
		<path fill="#000000" d="M12.056,45.25c0-0.124,0.008-0.245,0.01-0.369c-0.336-0.082-0.668-0.172-0.993-0.281    c-0.004,0.217-0.017,0.432-0.017,0.649c0,12.322,6.163,23.279,15.667,30.146c-0.206-0.549-0.388-1.108-0.555-1.675    C17.568,67.002,12.056,56.737,12.056,45.25z"/>
		<path fill="#000000" d="M79.014,21.682c5.49,6.287,8.83,14.373,8.921,23.199c0.336-0.082,0.668-0.172,0.993-0.281    c-0.157-8.871-3.499-17.004-8.978-23.37C79.632,21.37,79.317,21.518,79.014,21.682z"/>
		<path fill="#000000" d="M20.986,21.682c-0.304-0.164-0.618-0.312-0.937-0.451c-5.479,6.365-8.82,14.499-8.977,23.37    c0.325,0.108,0.657,0.199,0.993,0.281C12.156,36.055,15.496,27.969,20.986,21.682z"/>
		<path fill="#000000" d="M50,8.625c-11.629,0-22.048,5.081-29.014,13.057c0.294,0.159,0.576,0.336,0.856,0.517    C28.619,14.51,38.715,9.625,50,9.625c11.285,0,21.381,4.885,28.158,12.574c0.279-0.181,0.562-0.358,0.855-0.517    C72.048,13.706,61.629,8.625,50,8.625z"/>
		<path fill="#000000" d="M13.056,45.25c0-0.057,0.004-0.113,0.004-0.17c-0.336-0.053-0.668-0.119-0.995-0.198    c-0.001,0.124-0.01,0.245-0.01,0.369c0,11.487,5.512,21.752,14.113,28.472c-0.155-0.528-0.294-1.062-0.414-1.604    C17.978,65.586,13.056,55.975,13.056,45.25z"/>
		<path fill="#000000" d="M86.944,45.25c0,10.725-4.922,20.335-12.698,26.866c-0.119,0.542-0.258,1.077-0.414,1.604    c8.601-6.72,14.112-16.983,14.112-28.471c0-0.124-0.009-0.245-0.01-0.369c-0.327,0.08-0.658,0.145-0.995,0.198    C86.94,45.137,86.944,45.193,86.944,45.25z"/>
		<path fill="#000000" d="M86.939,45.08c0.337-0.053,0.668-0.119,0.995-0.198c-0.091-8.826-3.431-16.913-8.921-23.199    c-0.294,0.159-0.576,0.336-0.855,0.517C83.599,28.373,86.897,36.353,86.939,45.08z"/>
		<path fill="#000000" d="M21.842,22.199c-0.28-0.181-0.562-0.358-0.856-0.517c-5.49,6.287-8.83,14.373-8.921,23.199    c0.327,0.08,0.658,0.145,0.995,0.198C13.103,36.353,16.402,28.373,21.842,22.199z"/>
		<path fill="#000000" d="M22.111,47.052c0.24,3.82,1.582,9.565,3.593,14.822c1.003-4.753,3.401-9.004,6.751-12.305    c4.49-4.428,10.698-7.167,17.545-7.167c6.847,0,13.056,2.738,17.545,7.167c3.35,3.301,5.748,7.551,6.751,12.303    c2.011-5.257,3.353-11,3.593-14.82c0.082-1.306,0.098-2.629,0.055-3.953c-3.326-2.254-5.513-6.063-5.513-10.384    c0-2.037,0.496-3.955,1.358-5.655c-2.444-4.136-5.937-6.873-10.414-6.88C53.167,20.165,50,29.681,50,29.681    s-3.167-9.516-13.375-9.5c-4.478,0.007-7.97,2.745-10.414,6.88c0.862,1.701,1.358,3.618,1.358,5.655    c0,4.32-2.186,8.129-5.512,10.383C22.014,44.422,22.029,45.746,22.111,47.052z M63.723,29.681c2.623,0,4.75,3.426,4.75,7.653    c0,4.227-2.127,7.653-4.75,7.653c-2.624,0-4.75-3.426-4.75-7.653C58.973,33.106,61.099,29.681,63.723,29.681z M36.278,29.681    c2.624,0,4.75,3.426,4.75,7.653c0,4.227-2.126,7.653-4.75,7.653s-4.75-3.426-4.75-7.653    C31.528,33.106,33.654,29.681,36.278,29.681z"/>
		<path fill="#000000" d="M77.943,43.099c-0.191-5.86-1.598-11.714-4.154-16.039c-0.862,1.7-1.358,3.618-1.358,5.655    C72.431,37.036,74.617,40.845,77.943,43.099z"/>
		<path fill="#000000" d="M27.569,32.715c0-2.037-0.497-3.954-1.358-5.655c-2.556,4.325-3.962,10.179-4.154,16.038    C25.383,40.845,27.569,37.036,27.569,32.715z"/>
		<path fill="#000000" d="M50,90.375c-9.705,0-18.047-5.726-21.759-13.935c-0.515-0.337-1.021-0.685-1.518-1.044    c1.256,3.343,3.228,6.343,5.732,8.812c4.49,4.429,10.698,7.167,17.545,7.167s13.056-2.738,17.545-7.167    c2.505-2.469,4.478-5.469,5.733-8.812c-0.497,0.358-1.004,0.707-1.519,1.043C68.048,84.649,59.705,90.375,50,90.375z"/>
		<path fill="#000000" d="M73.819,67h1c0-2-0.182-3.452-0.523-5.072c-0.229,0.598-0.463,1.217-0.708,1.799    C73.736,64.787,73.819,66,73.819,67z"/>
		<path fill="#000000" d="M73.819,67c0,2-0.305,4.213-0.863,6.208c0.438-0.336,0.868-0.653,1.29-1.009    C74.618,70.514,74.819,69,74.819,67H73.819z"/>
		<path fill="#000000" d="M26.413,63.644c-0.245-0.581-0.48-1.173-0.709-1.77c-0.342,1.619-0.523,3.296-0.523,5.015    c0,1.795,0.201,3.543,0.573,5.229c0.422,0.354,0.852,0.699,1.29,1.035c-0.559-1.994-0.863-4.094-0.863-6.264    C26.181,65.787,26.264,64.705,26.413,63.644z"/>
		<path fill="#000000" d="M72.445,74.757c-0.206,0.571-0.437,1.132-0.686,1.683c0.515-0.336,1.021-0.685,1.519-1.043    c0.206-0.549,0.388-1.109,0.554-1.676C73.378,74.076,72.916,74.422,72.445,74.757z"/>
		<path fill="#000000" d="M27.555,74.757c-0.471-0.335-0.933-0.681-1.387-1.035c0.167,0.566,0.349,1.126,0.555,1.675    c0.497,0.359,1.003,0.707,1.518,1.044C27.992,75.89,27.762,75.329,27.555,74.757z"/>
		<path fill="#000000" d="M25.754,72.117c0.12,0.542,0.259,1.076,0.414,1.604c0.454,0.354,0.916,0.7,1.387,1.035    c-0.189-0.526-0.358-1.062-0.511-1.604C26.606,72.816,26.176,72.472,25.754,72.117z"/>
		<path fill="#000000" d="M72.956,73.152c-0.152,0.543-0.321,1.078-0.511,1.604c0.471-0.335,0.933-0.681,1.387-1.036    c0.156-0.527,0.295-1.062,0.414-1.604C73.824,72.471,73.395,72.816,72.956,73.152z"/>
		<path fill="#000000" d="M50,42.403c-6.847,0-13.055,2.738-17.545,7.167c-3.35,3.301-5.748,7.552-6.751,12.305    c0.229,0.597,0.464,1.188,0.709,1.77C28.017,52.209,37.962,43.403,50,43.403c12.037,0,21.983,8.805,23.588,20.24    c0.245-0.581,0.479-1.173,0.708-1.771c-1.003-4.752-3.401-9.002-6.751-12.303C63.056,45.141,56.847,42.402,50,42.403z"/>
		<path fill="#000000" d="M66.141,82.784C62.01,86.855,56.309,89.375,50,89.375s-12.01-2.52-16.141-6.591    c-1.593-1.572-2.948-3.375-4.015-5.351c-0.543-0.319-1.079-0.65-1.604-0.993C31.953,84.649,40.295,90.375,50,90.375    c9.705,0,18.048-5.726,21.76-13.936c-0.525,0.344-1.061,0.675-1.604,0.993C69.089,79.409,67.734,81.212,66.141,82.784z"/>
		<path fill="#000000" d="M72.77,65.53c0.029,0.468,0.05,0.47,0.05,1.47h1c0-1-0.083-2.213-0.231-3.273    C73.324,64.35,73.051,64.934,72.77,65.53z"/>
		<path fill="#000000" d="M27.23,65.476c-0.281-0.597-0.554-1.208-0.817-1.832c-0.149,1.062-0.232,2.144-0.232,3.245    c0,2.17,0.305,4.27,0.863,6.264c0.445,0.341,0.897,0.672,1.358,0.992c-0.788-2.276-1.221-4.715-1.221-7.256    C27.181,66.414,27.201,65.943,27.23,65.476z"/>
		<path fill="#000000" d="M72.819,67c0,2-0.434,4.924-1.222,7.2c0.461-0.32,0.914-0.624,1.358-0.964    C73.515,71.24,73.819,69,73.819,67H72.819z"/>
		<path fill="#000000" d="M29.024,75.751c-0.499-0.32-0.988-0.652-1.469-0.994c0.207,0.572,0.437,1.133,0.686,1.684    c0.525,0.343,1.061,0.674,1.604,0.993C29.549,76.885,29.274,76.324,29.024,75.751z"/>
		<path fill="#000000" d="M70.156,77.433c0.543-0.318,1.078-0.649,1.604-0.993c0.249-0.551,0.479-1.111,0.686-1.683    c-0.481,0.342-0.971,0.674-1.469,0.994C70.727,76.324,70.452,76.885,70.156,77.433z"/>
		<path fill="#000000" d="M28.402,74.145c-0.461-0.32-0.913-0.651-1.358-0.992c0.152,0.543,0.321,1.078,0.511,1.604    c0.481,0.342,0.971,0.674,1.469,0.994C28.795,75.226,28.59,74.689,28.402,74.145z"/>
		<path fill="#000000" d="M71.598,74.145c-0.188,0.545-0.393,1.081-0.621,1.606c0.498-0.32,0.987-0.652,1.469-0.994    c0.189-0.526,0.358-1.062,0.511-1.604C72.512,73.493,72.059,73.824,71.598,74.145z"/>
		<path fill="#000000" d="M50,43.403c-12.038,0-21.983,8.806-23.587,20.241c0.263,0.624,0.536,1.235,0.817,1.832    c0.355-5.645,2.815-10.72,6.629-14.482c4.131-4.072,9.832-6.59,16.141-6.591c6.309,0,12.01,2.519,16.141,6.591    c3.813,3.762,6.273,8.836,6.629,14.481c0.281-0.597,0.555-1.208,0.818-1.832C71.983,52.208,62.037,43.403,50,43.403z"/>
		<circle fill="#000000" cx="43.139" cy="58.799" r="2.639"/>
		<circle fill="#000000" cx="56.861" cy="58.799" r="2.639"/>
		<path fill="#000000" d="M61.974,76.694C59.535,77.987,55.7,79.274,50,79.276c-5.884-0.002-9.781-1.373-12.206-2.707    c-1.212-0.668-2.056-1.329-2.589-1.812c-0.125-0.113-0.23-0.215-0.322-0.307c-0.227-0.058-0.453-0.133-0.677-0.229l-1.324,0.991    c0.067,0.09,1.231,1.611,3.947,3.107c0.439,0.242,0.935,0.481,1.457,0.716c3.682,1.187,7.618,1.839,11.714,1.839    c4.096,0,8.031-0.652,11.714-1.839c0.521-0.234,1.018-0.474,1.457-0.716c2.715-1.496,3.879-3.018,3.946-3.108l-1.324-0.989    c-0.225,0.095-0.451,0.17-0.679,0.229C64.61,74.956,63.612,75.824,61.974,76.694z"/>
		<path fill="#000000" d="M38.286,79.036c2.703,1.214,6.521,2.242,11.714,2.24c5.192,0.002,9.011-1.026,11.714-2.24    c-3.683,1.187-7.618,1.839-11.714,1.839C45.904,80.875,41.968,80.223,38.286,79.036z"/>
		<polygon fill="#000000" points="34.483,74.014 34.483,74.014 34.483,74.014   "/>
		<polygon fill="#000000" points="34.483,74.014 34.482,74.013 34.483,74.014   "/>
		<polygon fill="#000000" points="65.56,74.047 65.517,74.014 65.516,74.015   "/>
		<polygon fill="#000000" points="65.517,74.014 65.516,74.015 65.516,74.015   "/>
		<polygon fill="#000000" points="34.482,74.013 34.452,74.037 34.483,74.014   "/>
		<polygon fill="#000000" points="65.516,74.015 65.516,74.015 65.516,74.015   "/>
		<polygon fill="#000000" points="34.483,74.014 34.483,74.014 34.452,74.037 34.44,74.047   "/>
		<path fill="#000000" d="M65.114,74.451c0.228-0.059,0.454-0.134,0.679-0.229l-0.277-0.208    C65.495,74.041,65.357,74.207,65.114,74.451z"/>
		<path fill="#000000" d="M34.631,74.188l-0.125-0.145l-0.023-0.029l-0.043,0.033l0.012-0.01l-0.246,0.185    c0.225,0.096,0.451,0.171,0.677,0.229C34.78,74.347,34.694,74.257,34.631,74.188z"/>
	</g>
</g>
<g id="Layer_3">
	<path d="M84.965,20.181c-1.784,0-3.479,0.378-5.015,1.05c5.479,6.365,8.82,14.499,8.978,23.37   c4.979-1.659,8.572-6.349,8.572-11.885C97.5,25.792,91.889,20.181,84.965,20.181z M92.25,38.748l-0.412-0.33l-0.412-0.33   c0.062-0.078,0.118-0.162,0.179-0.242c1.109-1.484,1.741-3.297,1.74-5.159c0-0.96-0.165-1.932-0.517-2.881   c-1.091-2.951-3.738-4.899-6.702-5.376c-0.102-0.016-0.2-0.045-0.303-0.058l0.065-0.524l0.065-0.524   c3.446,0.431,6.586,2.664,7.864,6.116c0.396,1.068,0.582,2.166,0.582,3.247C94.4,34.899,93.62,37.04,92.25,38.748z"/>
	<path d="M15.035,20.181C8.112,20.181,2.5,25.792,2.5,32.715c0,5.537,3.594,10.226,8.573,11.885   c0.157-8.871,3.498-17.004,8.977-23.37C18.513,20.559,16.819,20.181,15.035,20.181z M13.874,24.43   c-2.964,0.477-5.612,2.425-6.702,5.376c-0.351,0.949-0.517,1.921-0.517,2.881c0,1.862,0.631,3.674,1.74,5.159   c0.06,0.081,0.115,0.164,0.178,0.242l-0.412,0.33l-0.412,0.33C6.38,37.04,5.6,34.899,5.6,32.687c0-1.081,0.187-2.179,0.582-3.247   c1.279-3.452,4.417-5.685,7.864-6.116l0.065,0.524l0.065,0.524C14.074,24.385,13.976,24.414,13.874,24.43z"/>
	<path d="M86.939,45.08c-0.042-8.727-3.341-16.707-8.781-22.88C71.381,14.51,61.285,9.625,50,9.625   c-11.285,0-21.381,4.885-28.158,12.574c-5.44,6.173-8.74,14.154-8.782,22.88c0,0.057-0.004,0.113-0.004,0.17   c0,10.725,4.922,20.336,12.699,26.867c-0.372-1.686-0.573-3.434-0.573-5.229c0-1.719,0.181-3.396,0.523-5.015   c-2.011-5.257-3.353-11.002-3.593-14.822c-0.082-1.306-0.097-2.63-0.054-3.953c0.191-5.859,1.598-11.713,4.154-16.038   c2.444-4.135,5.936-6.873,10.414-6.88C46.833,20.165,50,29.681,50,29.681s3.167-9.516,13.375-9.5   c4.478,0.007,7.97,2.744,10.414,6.88c2.557,4.325,3.963,10.179,4.154,16.039c0.043,1.323,0.027,2.646-0.055,3.953   c-0.24,3.82-1.582,9.563-3.593,14.82c0.342,1.62,0.523,3.298,0.523,5.017c0,1.795-0.201,3.542-0.573,5.228   c7.776-6.531,12.698-16.142,12.698-26.866C86.944,45.193,86.94,45.137,86.939,45.08z"/>
	<path d="M72.77,65.475c-0.355-5.645-2.815-10.719-6.629-14.481c-4.131-4.072-9.832-6.59-16.141-6.591   c-6.309,0-12.01,2.519-16.141,6.591c-3.813,3.762-6.273,8.837-6.629,14.482c-0.029,0.468-0.049,0.938-0.049,1.413   c0,2.541,0.434,4.979,1.221,7.256c0.188,0.545,0.393,1.081,0.622,1.606c0.25,0.573,0.524,1.134,0.82,1.683   c1.067,1.976,2.421,3.778,4.015,5.351c4.131,4.071,9.832,6.591,16.141,6.591s12.01-2.52,16.141-6.591   c1.594-1.572,2.948-3.375,4.016-5.352c0.296-0.548,0.57-1.108,0.82-1.682c0.229-0.525,0.434-1.062,0.621-1.606   c0.788-2.276,1.222-4.715,1.222-7.256C72.819,66.413,72.799,65.942,72.77,65.475z M56.861,56.16c1.457,0,2.639,1.182,2.639,2.639   c0,1.458-1.182,2.639-2.639,2.639c-1.458,0-2.639-1.181-2.639-2.639C54.223,57.342,55.403,56.16,56.861,56.16z M43.139,56.16   c1.458,0,2.639,1.182,2.639,2.639c0,1.458-1.181,2.639-2.639,2.639c-1.458,0-2.639-1.181-2.639-2.639   C40.5,57.342,41.681,56.16,43.139,56.16z M50,81.276c-5.193,0.002-9.011-1.026-11.714-2.24c-0.522-0.234-1.017-0.474-1.457-0.716   c-2.716-1.496-3.88-3.018-3.947-3.107l1.324-0.991l0.246-0.185l0.031-0.024l0.001,0.001l0.023,0.029l0.125,0.145   c0.062,0.069,0.148,0.159,0.251,0.263c0.092,0.092,0.197,0.193,0.322,0.307c0.533,0.483,1.377,1.145,2.589,1.812   c2.425,1.334,6.322,2.705,12.206,2.707c5.7-0.002,9.535-1.289,11.974-2.582c1.639-0.87,2.637-1.738,3.141-2.243   c0.243-0.244,0.381-0.41,0.401-0.437l0.001-0.001l0.043,0.033l-0.044-0.032l0.277,0.208l1.324,0.989   c-0.067,0.091-1.231,1.612-3.946,3.108c-0.439,0.242-0.936,0.481-1.457,0.716C59.011,80.25,55.192,81.278,50,81.276z"/>
	<ellipse cx="36.278" cy="37.333" rx="4.75" ry="7.653"/>
	<ellipse cx="63.723" cy="37.333" rx="4.75" ry="7.653"/>
</g>
</svg>