<svg xmlns="http://www.w3.org/2000/svg" xmlns:xlink="http://www.w3.org/1999/xlink" version="1.1" id="Layer_1" x="0px" y="0px" width="100px" height="100px" viewBox="0 0 100 100" enable-background="new 0 0 100 100" xml:space="preserve">
<g>
	<path d="M45.877,14.452l1.983-1.794l-2.107-2.328c-0.495-0.548-1.34-0.591-1.889-0.096c-0.547,0.495-0.59,1.343-0.094,1.89   L45.877,14.452z"/>
	<path d="M80.891,28.211c-4.218-4.658-10.584-6.191-16.225-4.49L51.579,10.46c0,0-2.796,4.767-8.506,7.698   c0.987,1.192,8.568,10.337,11.018,13.293c1.469-1.858,3.48-3.396,3.48-3.396c-1.204,1.229-2.219,3.181-2.855,4.666   c-2.266,5.443-1.378,11.935,2.84,16.597c0,0,4.133,4.69,5.137,5.677c1.005,0.988,23.332-21.104,23.332-21.104L80.891,28.211z"/>
	<path d="M39.248,84.748l0.004-0.005c-2.057,0-2.707-2.222-2.707-3.547V45.968l14.213-16.294l-2.967-3.326L32.087,43.971v37.225   c0,1.325-0.734,3.55-2.791,3.55l0.004,0.006c-8.803,0.31-15.326,1.602-15.326,5.359h40.682   C54.657,86.34,48.094,85.053,39.248,84.748z"/>
</g>
</svg>