<svg xmlns="http://www.w3.org/2000/svg" xmlns:xlink="http://www.w3.org/1999/xlink" version="1.1" id="Layer_1" x="0px" y="0px" width="100px" height="100px" viewBox="0 0 100 100" enable-background="new 0 0 100 100" xml:space="preserve">
<path d="M85.311,55.058V15.451c0-3.006-2.437-5.443-5.441-5.443H20.132c-3.007,0-5.442,2.438-5.442,5.443v39.607L7.184,84.55  c0,0.59,0.095,1.156,0.268,1.688c0.711,2.18,2.758,3.754,5.174,3.754h74.75c2.416,0,4.463-1.574,5.174-3.754  c0.173-0.531,0.268-1.098,0.268-1.688L85.311,55.058z M19.839,19.216V14.92h4.654h51.013h4.654v4.296v31.509H19.839V19.216z   M76.411,78.249H23.589c-2.257,0-4.086-1.829-4.086-4.086l4.134-18.524h52.727l4.134,18.524  C80.497,76.419,78.667,78.249,76.411,78.249z"/>
</svg>