<svg xmlns="http://www.w3.org/2000/svg" xmlns:xlink="http://www.w3.org/1999/xlink" version="1.1" id="Layer_1" x="0px" y="0px" width="87.221px" height="100px" viewBox="0 0 87.221 100" enable-background="new 0 0 87.221 100" xml:space="preserve">
<g>
	<circle cx="46.647" cy="11.586" r="8.919"/>
	<path d="M63.613,67.726l-1.18-0.278c-2.579,10.545-11.988,17.909-22.86,17.909c-12.984,0-23.542-10.555-23.542-23.534   c0-7.992,4.007-15.275,10.568-19.615l-1.112-7.623l-0.771-1.477C13.942,38.687,7.252,49.688,7.252,61.822   c0,17.813,14.5,32.314,32.321,32.314c12.268,0,23.156-6.833,28.63-17.32L63.613,67.726L63.613,67.726L63.613,67.726z"/>
	<path d="M58.914,46.837l-19.282,0.026l9.577-20.625c0.668-1.45-1.331-3.804-4.47-5.262c-3.141-1.459-6.234-1.471-6.907-0.022   l-0.074,0.161L10.115,34.812c-1.432,0.71-1.887,2.707-1.018,4.461s2.733,2.603,4.165,1.893l19.723-9.772l-8.486,18.275   c-0.153,0.329-0.162,0.706-0.057,1.107c-0.046,0.354-0.074,0.719-0.074,1.097c0.004,2.754,1.3,4.985,2.897,4.983l31.472-0.041   l7.309,7.354l-7.309-7.354l9.779,9.841l0.01,0.01l0,0l2.725,2.607l10.122-10.572l-5.267-5.042l-4.176,4.363L58.914,46.837"/>
</g>
</svg>