<?xml version="1.0" encoding="utf-8"?>
<!-- Generator: Adobe Illustrator 15.1.0, SVG Export Plug-In . SVG Version: 6.00 Build 0)  -->
<!DOCTYPE svg PUBLIC "-//W3C//DTD SVG 1.1//EN" "http://www.w3.org/Graphics/SVG/1.1/DTD/svg11.dtd">
<svg version="1.1" id="Layer_1" xmlns="http://www.w3.org/2000/svg" xmlns:xlink="http://www.w3.org/1999/xlink" x="0px" y="0px"
	 width="99.992px" height="100px" viewBox="0 0 99.992 100" enable-background="new 0 0 99.992 100" xml:space="preserve">
<circle cx="24.998" cy="24.998" r="13.888"/>
<g>
	<path d="M8.333,24.998c0-0.469,0.032-0.931,0.07-1.389H0v2.777h8.403C8.365,25.928,8.333,25.467,8.333,24.998z"/>
	<path d="M14.243,12.279L7.926,5.962L5.962,7.926l6.317,6.317C12.877,13.535,13.535,12.877,14.243,12.279z"/>
	<path d="M24.998,8.333c0.469,0,0.931,0.033,1.389,0.071V0h-2.777v8.403C24.068,8.365,24.529,8.333,24.998,8.333z"/>
	<path d="M37.717,14.242l5.562-5.562l-1.964-1.964l-5.562,5.562C36.461,12.877,37.117,13.534,37.717,14.242z"/>
	<path d="M35.753,37.717l5.562,5.562l1.964-1.963l-5.562-5.562C37.119,36.461,36.461,37.119,35.753,37.717z"/>
	<path d="M41.593,23.609c0.038,0.458,0.071,0.919,0.071,1.389s-0.033,0.93-0.071,1.389h8.403v-2.777H41.593z"/>
	<path d="M24.998,41.663c-0.469,0-0.93-0.032-1.389-0.07v8.403h2.777v-8.403C25.929,41.631,25.467,41.663,24.998,41.663z"/>
	<path d="M12.279,35.753L5.962,42.07l1.964,1.964l6.317-6.317C13.535,37.119,12.877,36.461,12.279,35.753z"/>
</g>
<rect x="52.773" y="86.112" width="8.333" height="13.888"/>
<polygon points="59.718,80.549 59.718,83.326 76.383,83.326 87.493,72.217 87.493,69.438 70.828,69.438 "/>
<polygon points="83.327,56.939 73.605,66.661 90.271,66.661 90.271,69.438 99.992,59.718 99.992,56.939 "/>
<polygon points="69.438,66.661 79.16,56.939 62.495,56.939 52.773,66.661 "/>
<polygon points="49.996,69.438 38.886,80.549 38.886,83.326 55.551,83.326 55.551,80.549 55.551,80.549 66.661,69.438 "/>
<polygon points="58.329,56.939 41.664,56.939 31.942,66.661 48.607,66.661 "/>
<polygon points="29.165,69.438 18.054,80.549 18.054,83.326 34.72,83.326 34.72,80.549 45.83,69.438 "/>
</svg>
