<?xml version="1.0" encoding="utf-8"?>
<!-- Generator: Adobe Illustrator 15.1.0, SVG Export Plug-In . SVG Version: 6.00 Build 0)  -->
<!DOCTYPE svg PUBLIC "-//W3C//DTD SVG 1.1//EN" "http://www.w3.org/Graphics/SVG/1.1/DTD/svg11.dtd">
<svg version="1.1" id="Layer_1" xmlns="http://www.w3.org/2000/svg" xmlns:xlink="http://www.w3.org/1999/xlink" x="0px" y="0px"
	 width="100px" height="100px" viewBox="0 0 100 100" enable-background="new 0 0 100 100" xml:space="preserve">
<circle cx="25" cy="25" r="13.889"/>
<path d="M8.333,25c0-0.469,0.032-0.931,0.07-1.389H0v2.777h8.404C8.366,25.931,8.333,25.469,8.333,25z"/>
<path d="M14.244,12.28L7.926,5.962L5.962,7.926l6.318,6.318C12.878,13.536,13.536,12.878,14.244,12.28z"/>
<path d="M25,8.333c0.469,0,0.931,0.032,1.389,0.07V0h-2.777v8.404C24.069,8.366,24.531,8.333,25,8.333z"/>
<path d="M37.72,14.243l5.562-5.562l-1.964-1.964l-5.562,5.562C36.464,12.878,37.12,13.535,37.72,14.243z"/>
<path d="M35.756,37.72l5.562,5.562l1.964-1.964l-5.562-5.562C37.122,36.464,36.464,37.122,35.756,37.72z"/>
<path d="M41.596,23.611c0.038,0.458,0.07,0.919,0.07,1.389s-0.032,0.931-0.07,1.389H50v-2.777H41.596z"/>
<path d="M25,41.667c-0.469,0-0.931-0.032-1.389-0.07V50h2.777v-8.404C25.931,41.634,25.469,41.667,25,41.667z"/>
<path d="M12.28,35.756l-6.318,6.318l1.964,1.964l6.318-6.318C13.536,37.122,12.878,36.464,12.28,35.756z"/>
<polygon points="88.889,93.056 88.889,73.372 99.187,63.075 95.258,59.147 68.869,85.536 72.797,89.464 83.333,78.928 
	83.333,93.056 55.556,93.056 55.556,73.372 65.853,63.075 61.925,59.147 35.536,85.536 39.464,89.464 50,78.928 50,93.056 
	22.222,93.056 22.222,73.372 32.52,63.075 28.592,59.147 2.203,85.536 6.131,89.464 16.667,78.928 16.667,93.056 0,93.056 0,100 
	100,100 100,93.056 "/>
</svg>
