<?xml version="1.0" encoding="utf-8"?>
<!-- Generator: Adobe Illustrator 15.1.0, SVG Export Plug-In . SVG Version: 6.00 Build 0)  -->
<!DOCTYPE svg PUBLIC "-//W3C//DTD SVG 1.1//EN" "http://www.w3.org/Graphics/SVG/1.1/DTD/svg11.dtd">
<svg version="1.1" id="Layer_1" xmlns="http://www.w3.org/2000/svg" xmlns:xlink="http://www.w3.org/1999/xlink" x="0px" y="0px"
	 width="52px" height="72px" viewBox="0 0 52 72" enable-background="new 0 0 52 72" xml:space="preserve">
<g>
	<path d="M49,9h-8.142C40.412,7.278,38.86,6,37,6h-6.102C30.965,5.677,31,5.343,31,5c0-2.757-2.243-5-5-5s-5,2.243-5,5
		c0,0.343,0.035,0.677,0.102,1H15c-1.861,0-3.412,1.278-3.858,3H3c-1.657,0-3,1.343-3,3v57c0,1.657,1.343,3,3,3h46
		c1.657,0,3-1.343,3-3V12C52,10.343,50.657,9,49,9z M23,5c0-1.654,1.346-3,3-3s3,1.346,3,3c0,0.353-0.072,0.686-0.185,1
		C28.401,7.161,27.302,8,26,8s-2.401-0.839-2.815-2C23.072,5.686,23,5.353,23,5z M48,66H4V13h7v3h30v-3h7V66z"/>
	<polygon points="15,25 8,37 13,37 9,45 21,33 15,33 20,25 	"/>
	<rect x="28" y="25" width="17" height="2"/>
	<rect x="28" y="31" width="17" height="2"/>
	<rect x="28" y="37" width="17" height="2"/>
	<rect x="28" y="43" width="17" height="2"/>
	<rect x="28" y="49" width="17" height="2"/>
	<rect x="28" y="55" width="17" height="2"/>
</g>
</svg>
