<?xml version="1.0" encoding="utf-8"?>
<!-- Generator: Adobe Illustrator 15.1.0, SVG Export Plug-In . SVG Version: 6.00 Build 0)  -->
<!DOCTYPE svg PUBLIC "-//W3C//DTD SVG 1.1//EN" "http://www.w3.org/Graphics/SVG/1.1/DTD/svg11.dtd">
<svg version="1.1" id="Layer_1" xmlns="http://www.w3.org/2000/svg" xmlns:xlink="http://www.w3.org/1999/xlink" x="0px" y="0px"
	 width="100px" height="100px" viewBox="0 0 100 100" enable-background="new 0 0 100 100" xml:space="preserve">
<g>
	<path d="M88.547,85.192c-3.513,1.812-8.572,2.244-11.702,0.602c-5.525-2.859-9.468-3.396-13.832-0.71c0,0-1.903,1.45-6.071,1.474
		c-4.25-0.018-6.069-1.474-6.069-1.474c-4.377-2.687-8.39-2.149-13.887,0.71c-3.158,1.643-8.144,1.21-11.701-0.602
		c-4.838-2.562-7.591-1.94-12.684,0.327c-3.954,1.755-7.516,1.75-11.426,0C0.76,85.335,0.385,85.181,0,85.02v13.166
		c0.385,0.161,0.76,0.315,1.175,0.5c3.91,1.75,7.472,1.755,11.426,0c5.093-2.268,7.846-2.891,12.684-0.327
		c3.557,1.812,8.542,2.244,11.701,0.602c5.497-2.859,9.509-3.396,13.887-0.71c0,0,1.819,1.456,6.069,1.474
		c4.168-0.023,6.071-1.474,6.071-1.474c4.364-2.687,8.307-2.149,13.832,0.71c3.13,1.643,8.189,1.21,11.702-0.602
		c4.487-2.355,7.091-2.009,11.453-0.173V85.02C95.638,83.185,93.034,82.837,88.547,85.192z"/>
	<polygon points="49.466,22.222 37.5,42.738 46.048,42.738 39.21,56.413 59.723,35.897 49.466,35.897 58.012,22.222 	"/>
	<path d="M87.5,38.888c-0.946-8.518-6.403-11.872-9.787-13.147c-1.601-3.531-3.817-6.724-6.524-9.431l4.921-4.921
		c-6.687-5.348-12.915-3.87-16.211-2.38c-3.513-1.331-7.314-2.066-11.287-2.066V0c-8.519,0.947-11.872,6.403-13.147,9.787
		c-3.53,1.601-6.724,3.817-9.43,6.524l-4.921-4.921c-5.349,6.687-3.87,12.915-2.38,16.211c-1.331,3.511-2.066,7.314-2.066,11.287
		H9.722c0.947,8.518,6.403,11.872,9.787,13.147c1.601,3.53,3.817,6.723,6.524,9.431l-4.92,4.921
		c6.687,5.348,12.915,3.869,16.211,2.38c3.512,1.331,7.314,2.065,11.287,2.065v6.943c8.518-0.946,11.872-6.403,13.146-9.787
		c3.531-1.601,6.724-3.816,9.431-6.524l4.921,4.921c5.35-6.687,3.87-12.915,2.381-16.211c1.33-3.511,2.065-7.314,2.065-11.287H87.5z
		 M48.611,65.276L48.611,65.276c-14.551,0.001-26.389-11.837-26.389-26.388S34.061,12.5,48.611,12.5v-0.001
		C63.162,12.499,75,24.337,75,38.888S63.162,65.276,48.611,65.276z"/>
</g>
</svg>
