<?xml version="1.0" encoding="utf-8"?>
<!-- Generator: Adobe Illustrator 15.1.0, SVG Export Plug-In . SVG Version: 6.00 Build 0)  -->
<!DOCTYPE svg PUBLIC "-//W3C//DTD SVG 1.1//EN" "http://www.w3.org/Graphics/SVG/1.1/DTD/svg11.dtd">
<svg version="1.1" id="Layer_1" xmlns="http://www.w3.org/2000/svg" xmlns:xlink="http://www.w3.org/1999/xlink" x="0px" y="0px"
	 width="100px" height="100px" viewBox="0 0 100 100" enable-background="new 0 0 100 100" xml:space="preserve">
<g>
	<path d="M67.802,40.004L65.625,7.899h-4.861l-1.608,23.698h-3.253V23.09H29.167v17.316C19.071,41.866,9.307,44.347,0,47.781V100
		h22.222c0-6.944,6.944-11.111,6.944-19.444c0.001-8.333-5.555-12.5-5.555-19.444h-4.167L27.778,50l8.333,11.111h-4.167
		c0,6.944,5.556,11.111,5.556,19.444s-6.945,12.5-6.944,19.444h13.889c0-6.944,6.944-11.111,6.944-19.444s-5.555-12.5-5.555-19.444
		h-4.167L50,50l8.333,11.111h-4.166c0,6.944,5.556,11.111,5.556,19.444s-6.945,12.5-6.945,19.444h13.89
		c0-6.944,6.944-11.111,6.944-19.444s-5.556-12.5-5.556-19.444h-4.167L72.223,50l8.333,11.111h-4.167
		c0,6.944,5.556,11.111,5.556,19.444S75,93.056,75,100h25V47.781C89.765,44.003,78.977,41.378,67.802,40.004z"/>
	<path d="M40.712,4.861h12.152c2.105,0,8.507,0,8.507,1.215h3.646c0-4.861-6.738-4.861-12.153-4.861H40.712
		c-2.216,0-6.63-0.743-7.899-1.215C33.023,0.079,34.635,4.861,40.712,4.861z"/>
</g>
</svg>
