<?xml version="1.0" encoding="utf-8"?>
<!-- Generator: Adobe Illustrator 15.1.0, SVG Export Plug-In . SVG Version: 6.00 Build 0)  -->
<!DOCTYPE svg PUBLIC "-//W3C//DTD SVG 1.1//EN" "http://www.w3.org/Graphics/SVG/1.1/DTD/svg11.dtd">
<svg version="1.1" id="Layer_1" xmlns="http://www.w3.org/2000/svg" xmlns:xlink="http://www.w3.org/1999/xlink" x="0px" y="0px"
	 width="100px" height="84px" viewBox="0 0 100 84" enable-background="new 0 0 100 84" xml:space="preserve">
<path d="M82,32V8H68v10L50,0L0,50h12.001v34h75.998V50H100L82,32z M50,21.986v-4l10,8.001l-10,8v-4.001
	c-10.509,0-19.132,8.154-19.922,18.466l-7.975-0.516C23.161,33.456,35.251,21.986,50,21.986z M50,77.987
	c-10.361,0-19.404-5.67-24.246-14.057l-3.355,1.911l2-12.649l11.906,4.73l-3.605,2.053C36.163,65.95,42.611,69.987,50,69.987
	c3.149,0,6.12-0.751,8.772-2.055l3.542,7.164C58.591,76.929,54.422,77.987,50,77.987z M77.55,65.776l-11.894,4.746l-2.02-12.649
	l3.658,2.078c1.702-2.938,2.706-6.329,2.706-9.964c0-6.838-3.456-12.883-8.707-16.491l4.437-6.655C73.13,31.885,78,40.375,78,49.987
	c0,5.069-1.371,9.818-3.74,13.92L77.55,65.776z"/>
</svg>
