<svg xmlns="http://www.w3.org/2000/svg" xmlns:xlink="http://www.w3.org/1999/xlink" version="1.1" id="Layer_1" x="0px" y="0px" width="100px" height="100px" viewBox="0 0 100 100" enable-background="new 0 0 100 100" xml:space="preserve">
<g>
	<path d="M56.615,70.72c16.022-10.515-4.192-23.446-4.192-23.446s0,0-1.315-0.938c-1.314-0.938-0.799-1.253-0.799-1.253l7.408-5.007   c14.921-11.415-7.311-24.034-7.311-24.034c1.482-1.482,0.583-3.677-0.289-5.102c0.578,1.163,0.652,2.271,0.077,2.979   c-1.021,1.264-3.705,0.785-5.992-1.065c-2.29-1.853-3.316-4.378-2.297-5.642c0.351-0.433,0.902-0.658,1.56-0.695   c-1.924-0.115-3.074,0.812-3.074,0.812c-14.22,11.617,7.011,23.433,7.011,23.433c-27.816,13.042-3.354,26.913-3.354,26.913   s0,0,2.326,1.428c2.331,1.428-6.908,6.836-6.908,6.836c-12.016,9.839,6.008,20.952,6.008,20.952s0,0,3.082,2.104   c1.975,1.352,4.041,1.432,5.268,1.315c-1.158-0.119-1.962-0.498-2.089-1.091c-0.227-1.055,1.774-2.38,4.471-2.957   c2.697-0.583,5.067-0.196,5.294,0.855c0.09,0.413-0.168,0.869-0.673,1.305c5.574-3.697-5.838-11.242-5.838-11.242s0,0-2.279-1.478   C50.432,74.226,56.615,70.72,56.615,70.72z"/>
	<path d="M47.622,8.626c-1.941-1.571-4.218-1.976-5.087-0.905c-0.866,1.07,0.005,3.213,1.947,4.784   c1.944,1.57,4.221,1.978,5.087,0.905C50.432,12.34,49.563,10.198,47.622,8.626z M48.916,12.882   c-0.707,0.874-2.561,0.544-4.144-0.735c-1.583-1.281-2.292-3.026-1.588-3.898c0.709-0.874,2.563-0.544,4.146,0.737   C48.914,10.267,49.623,12.011,48.916,12.882z"/>
	<path d="M60.971,87.239c-0.199-0.92-2.267-1.256-4.623-0.75c-2.352,0.508-4.098,1.663-3.899,2.581   c0.196,0.92,2.267,1.258,4.618,0.75C59.421,89.315,61.169,88.16,60.971,87.239z M57.002,89.517   c-1.924,0.412-3.612,0.137-3.772-0.614c-0.162-0.75,1.264-1.693,3.185-2.106c1.924-0.412,3.61-0.142,3.775,0.611   C60.349,88.16,58.923,89.102,57.002,89.517z"/>
</g>
</svg>