<svg xmlns:x="http://ns.adobe.com/Extensibility/1.0/" xmlns:i="http://ns.adobe.com/AdobeIllustrator/10.0/" xmlns:graph="http://ns.adobe.com/Graphs/1.0/" xmlns="http://www.w3.org/2000/svg" xmlns:xlink="http://www.w3.org/1999/xlink" xmlns:a="http://ns.adobe.com/AdobeSVGViewerExtensions/3.0/" version="1.0" id="Layer_1" x="0px" y="0px" width="100px" height="100px" viewBox="0 0 100 100" enable-background="new 0 0 100 100" xml:space="preserve">
<g>
	<path d="M52.119,12.184c0.64,0.109,1.261,0.233,1.863,0.37c-0.038-1.236-0.193-2.395-0.434-3.419   c-0.17-1.356-5.711-2.448-12.562-2.451c-6.828,0.002-12.371,1.094-12.541,2.451c-0.281,1.195-0.442,2.576-0.442,4.047   c0,1.11,0.091,2.169,0.257,3.135c0.483-0.48,1.081-0.938,1.779-1.363V9.189h1.239v5.092c0.365-0.176,0.75-0.346,1.153-0.508V9.189   h1.152v4.156c0.372-0.127,0.756-0.248,1.151-0.362V9.189l1.153,0.001v3.485c0.375-0.092,0.76-0.179,1.151-0.26V9.19h1.152v3.006   c0.378-0.065,0.762-0.125,1.152-0.18V9.19h1.151v2.683c0.379-0.042,0.764-0.078,1.152-0.11V9.19H42.8v2.494   c0.38-0.021,0.765-0.036,1.152-0.046V9.19h1.152v2.431h0.088c0.357,0,0.712,0.003,1.064,0.012V9.19h1.151v2.485   c0.388,0.02,0.772,0.044,1.152,0.073V9.19h1.152v2.664c0.389,0.042,0.773,0.087,1.151,0.139V9.19h1.256V12.184L52.119,12.184z    M74.85,15.42c7.806,2.01,13.693,11.042,13.693,21.881c0,12.316-7.414,24.191-16.67,22.681c-8.029-1.312-1.629-8.922-1.578-15.624   c0.101-13.406-7.926-17.472-13.599-13.641c-2.512,1.697-4.041,2.712-6.607,2.712c-2.564,0-4.094-1.015-6.605-2.712   c-5.673-3.831-13.7,0.234-13.599,13.641c0.05,6.702,6.451,14.312-1.577,15.624c-9.257,1.51-16.671-10.365-16.671-22.681   c0-10.838,5.888-19.871,13.693-21.881c-0.072-0.413-0.108-0.83-0.108-1.252c0-7.338,11.05-13.286,24.682-13.286h0.186h0.188   c13.631,0,24.681,5.948,24.681,13.286C74.958,14.591,74.922,15.007,74.85,15.42L74.85,15.42z M49.888,99.338l-24.413-14.6   l6.521-7.355L49.888,93.67l17.894-16.287l6.521,7.355L49.888,99.338L49.888,99.338z M64.942,41.139   c-1.146-0.435-7.589-2.173-11.783,1.105l1.403-2.453c1.22-0.757,3.376-1.163,5.179-1.038C61.975,38.91,63.884,39.849,64.942,41.139   L64.942,41.139z M58.502,45.949c-2.271,0.475-4.001-0.709-3.987-0.699c1.634-2.282,5.017-2.41,7.373-1.195   C61.938,44,59.884,45.66,58.502,45.949L58.502,45.949z M35.249,41.139c1.058-1.291,2.968-2.229,5.201-2.385   c1.803-0.125,3.958,0.281,5.179,1.038l1.403,2.453C42.837,38.966,36.394,40.704,35.249,41.139L35.249,41.139z M41.689,45.949   c-1.383-0.29-3.436-1.949-3.385-1.895c2.355-1.214,5.739-1.087,7.372,1.195C45.69,45.24,43.961,46.424,41.689,45.949L41.689,45.949   z M50.089,66.121c-1.268,0-2.99-1.299-3.019-3.17c-0.043-2.707,3.019-1.465,3.015-0.268c0.004-1.197,3.065-2.439,3.024,0.268   C53.079,64.822,51.357,66.121,50.089,66.121L50.089,66.121z"/>
</g>
</svg>