<svg xmlns="http://www.w3.org/2000/svg" xmlns:xlink="http://www.w3.org/1999/xlink" version="1.1" id="Layer_1" x="0px" y="0px" width="48.596px" height="100px" viewBox="0 0 48.596 100" enable-background="new 0 0 48.596 100" xml:space="preserve">
<rect y="94.382" width="48.596" height="5.618"/>
<g>
	<path d="M0,0v92.697h48.596V0H0z M32.235,74.719H16.36V58.427h15.875V74.719z M30.098,37.101l1.98-16.254H16.517l2.152,17.669h7   c-10.274,2.522-19.845-0.324-22.335-7.079c-2.785-7.556,4.343-17.141,15.92-21.408c1.533-0.565,3.066-1.007,4.58-1.333   c0.564,0.423,0.907,0.898,1.019,1.417c0.168,0.771-0.17,1.65-1.004,2.611c-1.039,1.197-1.415,2.326-1.117,3.358   c0.415,1.44,1.996,2.107,2.062,2.135c0.075,0.031,0.154,0.045,0.231,0.045c0.197,0,0.386-0.094,0.478-0.256   c0.128-0.225,0.019-0.497-0.244-0.607c-0.012-0.005-1.207-0.52-1.497-1.542c-0.213-0.754,0.103-1.625,0.939-2.591   c1.019-1.172,1.421-2.289,1.197-3.319c-0.118-0.542-0.402-1.04-0.848-1.49c9.442-1.661,17.891,1.24,20.208,7.526   C47.985,23.373,41.227,32.702,30.098,37.101z M46.032,59.724c0,0.369-0.3,0.669-0.67,0.669h-1.925c-0.37,0-0.67-0.3-0.67-0.669   v-1.925c0-0.37,0.3-0.67,0.67-0.67h1.925c0.37,0,0.67,0.3,0.67,0.67V59.724z M46.032,54.922c0,0.37-0.3,0.67-0.67,0.67h-1.925   c-0.37,0-0.67-0.3-0.67-0.67v-1.925c0-0.37,0.3-0.67,0.67-0.67h1.925c0.37,0,0.67,0.3,0.67,0.67V54.922z M46.032,50.121   c0,0.37-0.3,0.669-0.67,0.669h-1.925c-0.37,0-0.67-0.3-0.67-0.669v-1.925c0-0.37,0.3-0.669,0.67-0.669h1.925   c0.37,0,0.67,0.299,0.67,0.669V50.121z M46.032,45.319c0,0.37-0.3,0.669-0.67,0.669h-1.925c-0.37,0-0.67-0.299-0.67-0.669v-1.925   c0-0.37,0.3-0.669,0.67-0.669h1.925c0.37,0,0.67,0.3,0.67,0.669V45.319z M46.032,40.518c0,0.37-0.3,0.67-0.67,0.67h-1.925   c-0.37,0-0.67-0.3-0.67-0.67v-1.925c0-0.37,0.3-0.669,0.67-0.669h1.925c0.37,0,0.67,0.3,0.67,0.669V40.518z"/>
</g>
<g>
	<path d="M28.491,9.974c-0.226-0.162-0.561-0.137-0.75,0.054c-0.188,0.192-0.16,0.479,0.064,0.642   c1.423,1.024,0.593,2.729-0.354,3.979c-1.406,1.856-0.279,3.26,0.513,3.743c0.094,0.057,0.201,0.084,0.308,0.084   c0.167,0,0.33-0.066,0.434-0.191c0.171-0.205,0.115-0.488-0.124-0.634c-0.06-0.036-1.448-0.91-0.237-2.508   C30.594,12.173,29.401,10.629,28.491,9.974z"/>
</g>
<g>
	<path d="M20.67,9.815c-0.225-0.162-0.56-0.137-0.749,0.055c-0.19,0.192-0.161,0.479,0.064,0.641   c1.422,1.024,0.593,2.729-0.354,3.979c-1.407,1.856-0.279,3.26,0.513,3.743c0.094,0.057,0.201,0.084,0.308,0.084   c0.167,0,0.33-0.066,0.434-0.191c0.17-0.204,0.115-0.488-0.125-0.634c-0.06-0.037-1.449-0.91-0.238-2.508   C22.773,12.015,21.581,10.471,20.67,9.815z"/>
</g>
</svg>