<svg xmlns="http://www.w3.org/2000/svg" xmlns:xlink="http://www.w3.org/1999/xlink" version="1.1" id="Layer_1" x="0px" y="0px" width="100.0px" height="100px" viewBox="0 0 144 144" enable-background="new 0 0 144 144" xml:space="preserve">
<g>
	<path d="M69.525,29.003c0.996,0.016,1.125,0.336,1.32,1.027c0,0.023,0.012,0.035,0.023,0.047c0.598,2.309,1.383,6.066,3.375,5.844   c1.766-0.195,3.066-3.254,3.66-5.352l2.02-0.02c0.473-0.004,0.855-0.387,0.848-0.859c-0.004-0.473-0.387-0.848-0.859-0.848   l-0.539,0.004c-0.152-0.527-0.52-1.875-0.75-2.719c-0.289-1.059-2.527-4.211-5.938-3.281c-3.418,0.93-4.27,3.684-4.145,5.148   C68.576,28.374,68.529,28.987,69.525,29.003z"/>
	<path d="M114.232,42.011c0,0-2.379,2.496-4.164,3.328c-1.781,0.832-4.633-2.02-11.535-2.02c-6.891,0-13.551,11.055-14.383,13.312   c-0.066,0.188-0.133,0.352-0.211,0.52l-3.863-2.359c0.148-0.812-0.203-1.668-0.957-2.109l-5.215-3.059v-8.215   c0-3.07-2.488-5.562-5.555-5.562c-3.07,0-5.559,2.492-5.559,5.562v18.555h-15.02c-1.703,0-3.238,0.473-4.574,1.246   c-4.164-0.637-10.371-0.34-12.785,1.965c-2.5,2.379-4.629,5.348-4.629,12.003c0,6.656,0,16.051,0,16.051   c4.629-3.805,6.77-9.633,6.77-15.691c0-6.065,2.262-14.03,8.438-12.722l0.219-0.125c-2.734,2.535-4.258,6.277-4.258,8.687   c0,3.925,1.195,6.542,4.996,11.652l0.059,0.801l-3.781,4.938c-0.164,0.219-0.297,0.473-0.375,0.738l-6.18,20.559   c-0.363,1.211,0.324,2.488,1.531,2.859c0.219,0.07,0.445,0.09,0.656,0.09c0.988,0,1.898-0.633,2.191-1.621l6.066-20.176l0.75-0.977   l8.426-4.07l-0.77,3.641c-0.059,0.297-0.059,0.609,0,0.91l4.043,20.684c0.207,1.094,1.164,1.852,2.242,1.852   c0.145,0,0.289-0.012,0.441-0.043c1.234-0.242,2.047-1.441,1.805-2.688L55.1,90.299l1.332-6.324   c0.023-0.098,0.023-0.215,0.035-0.316l0.816-0.395l32.098,1.316l-8.25,27.512c-0.363,1.211,0.328,2.492,1.531,2.848   c0.227,0.07,0.445,0.098,0.656,0.098c0.984,0,1.895-0.641,2.191-1.629L93.615,86.4l8.305,5.344l-0.32,12.988   c-0.035,1.254,0.969,2.309,2.234,2.336c0.012,0,0.039,0,0.059,0c1.234,0,2.258-0.988,2.281-2.223l0.355-14.27   c0.023-0.801-0.379-1.551-1.047-1.988l-11.637-7.484l0.414-0.812c0,0,2.285-7.062,4.25-13.108l7.93,1.234   c0.246,1.715,1.348,2.129,3.512,2.129c3.332,0,3.211-2.141,3.211-3.57C113.162,65.554,114.232,42.011,114.232,42.011z    M82.432,71.245c-0.961,1.96-1.551,3.019-1.809,3.472l-5.305-2.546l0.684-1.878l-0.23-0.141c-0.004-0.004-7.605-4.738-9.684-6.047   c-2.074-1.312-2.617-2.301-2.617-4.164c0-2.207,0-3.449,0-3.992h9.719c0,0-0.016,2.848-0.016,3.535c0,0.695,0.23,2.008,2.625,3.656   c2.293,1.59,4.992,3.262,5.578,3.734c0.469,0.371,1.5,1.238,1.5,2.652C82.877,70.019,82.756,70.589,82.432,71.245z M80.467,59.964   c-1.785,0-5.109,0-5.109,0s-0.535,0-1.453,0v-5.633l3.152,1.852c0.785,0.461,1.738,0.332,2.379-0.246l3.902,2.379   C82.623,59.421,81.725,59.964,80.467,59.964z M106.393,67.089l-7.465-1.168c1.18-3.637,2.172-6.668,2.348-7.148   c0.473-1.305,1.66-1.305,1.781,0c0.121,1.309,1.785,4.16,3.688,5.59C106.541,65.448,106.428,66.339,106.393,67.089z"/>
</g>
</svg>