<svg xmlns="http://www.w3.org/2000/svg" xmlns:xlink="http://www.w3.org/1999/xlink" version="1.1" id="Layer_1" x="0px" y="0px" width="100px" height="100px" viewBox="0 0 100 100" enable-background="new 0 0 100 100" xml:space="preserve">
<path d="M84.471,18.881c-2.116-0.17-8.377-1.112-11.903-3.4c-2.047-1.325-3.482-3.213-5.001-5.21  c-2.826-3.716-6.202-8.197-14.247-8.193l-5.213,0.001c-8.403-0.006-12.873,6.306-14.307,8.192c-0.006,0.008-0.012,0.015-0.018,0.023  l0.016-0.1c-1.52,1.998-2.954,3.885-5,5.209c-3.527,2.288-9.789,3.23-11.904,3.401c-1.581,0.126-2.82,1.411-2.887,2.996v2.318  c1.539,0.192,5.875,0.341,5.875,14.201h0.003c0,0.026,0,0.051,0,0.077c0,13.465,10.584,18.145,17.467,18.967L23.988,94.24  c-0.591,1.632,0.251,3.431,1.882,4.021c0.354,0.13,0.714,0.191,1.069,0.191c1.284,0,2.49-0.795,2.953-2.074l7.66-21.137  l13.217-8.392l13.212,8.392l7.661,21.137c0.462,1.279,1.668,2.074,2.952,2.074c0.355,0,0.716-0.062,1.069-0.191  c1.632-0.591,2.473-2.39,1.882-4.021L64.18,57.354c6.798-0.85,17.302-5.542,17.302-18.957c0-13.86,4.338-14.009,5.876-14.201v-2.318  C87.289,20.294,86.051,19.008,84.471,18.881z M39.887,68.801l2.611-7.203l4.364,2.771L39.887,68.801z M43.958,57.564l0.022-0.062  h8.431c0.002,0,0.004-0.002,0.007-0.002h5.137l0.022,0.063L50.77,61.89L43.958,57.564z M54.674,64.369l4.365-2.771l2.608,7.203  L54.674,64.369z M75.201,38.397c0,4.741-1.844,7.712-4.133,9.597c-0.224-3.907-9.256-7.051-20.386-7.051  c-11.106,0-20.118,3.13-20.38,7.024c-2.293-1.887-4.139-4.857-4.139-9.57c0-0.867-0.018-1.695-0.053-2.487  c-0.231-5.513-1.254-9.248-2.523-11.782c2.806-0.657,6.061-1.712,8.629-3.376c2.962-1.922,4.886-4.451,6.581-6.679  c2.655-3.497,4.422-5.868,9.249-5.714l5.333-0.001c4.775-0.049,6.528,2.22,9.188,5.715c1.697,2.229,3.619,4.757,6.581,6.679  c2.578,1.67,5.847,2.728,8.66,3.384C76.347,27.021,75.201,31.485,75.201,38.397z"/>
</svg>