<svg xmlns:dc="http://purl.org/dc/elements/1.1/" xmlns:cc="http://creativecommons.org/ns#" xmlns:rdf="http://www.w3.org/1999/02/22-rdf-syntax-ns#" xmlns:svg="http://www.w3.org/2000/svg" xmlns="http://www.w3.org/2000/svg" xmlns:sodipodi="http://sodipodi.sourceforge.net/DTD/sodipodi-0.dtd" xmlns:inkscape="http://www.inkscape.org/namespaces/inkscape" id="svg3039" version="1.1" inkscape:version="0.48.2 r9819" width="100.85" height="100" sodipodi:docname="play_ultimate.svg">
  <metadata id="metadata3045">
    <rdf:RDF>
      <cc:Work rdf:about="">
        <dc:format>image/svg+xml</dc:format>
        <dc:type rdf:resource="http://purl.org/dc/dcmitype/StillImage"/>
        <dc:title/>
      </cc:Work>
    </rdf:RDF>
  </metadata>
  <defs id="defs3043"/>
  <sodipodi:namedview pagecolor="#ffffff" bordercolor="#666666" borderopacity="1" objecttolerance="10" gridtolerance="10" guidetolerance="10" inkscape:pageopacity="0" inkscape:pageshadow="2" inkscape:window-width="1423" inkscape:window-height="945" id="namedview3041" showgrid="false" inkscape:snap-page="false" showguides="true" inkscape:guide-bbox="true" inkscape:zoom="2.4745293" inkscape:cx="157.80777" inkscape:cy="94.168354" inkscape:window-x="80" inkscape:window-y="2" inkscape:window-maximized="0" inkscape:current-layer="svg3039" fit-margin-top="0" fit-margin-left="0" fit-margin-right="0" fit-margin-bottom="0"/>
  <g id="g3862" transform="matrix(0.47167258,0,0,0.47167258,-26.123292,-29.04378)">
    <g id="g3867">
      <g id="g3872">
        <path sodipodi:nodetypes="scccsssscscsssssssscsscscccssscssscssscsccsscsssssssccscssscsscsscsssscssssscsccsssssssssscsssscccccccscc" inkscape:connector-curvature="0" id="path3049" d="m 233.70102,174.06305 -21.6617,-22.25416 -7.33556,7.60262 -7.33555,7.60262 -0.21735,12.72121 c -0.19273,11.28089 -0.37279,12.89777 -1.59022,14.28062 -1.88031,2.13578 -6.36639,2.12401 -8.45132,-0.0222 -1.50794,-1.55224 -1.52705,-1.88598 -1.03034,-17.98986 l 0.50608,-16.40828 10.91446,-11.29627 c 6.00296,-6.21294 11.83993,-11.62835 12.97105,-12.03426 2.43147,-0.87252 -0.93038,-4.04017 29.96079,28.23002 21.08591,22.02721 22.44382,23.60762 22.44382,26.12132 0,3.29745 -2.24848,5.70077 -5.33348,5.70077 -1.89505,0 -5.00169,-2.8999 -23.84068,-22.25415 z m -70.40613,20.54524 c -1.06093,-0.48816 -6.97947,-6.31408 -13.1523,-12.9465 -10.18908,-10.9477 -11.22333,-12.30236 -11.22333,-14.70031 0,-2.97914 0.99204,-5.27245 3.1061,-7.18038 1.29046,-1.16465 3.33672,-1.2972 19.88557,-1.28811 10.14589,0.006 19.15592,0.20581 20.02228,0.44498 1.46618,0.40475 1.59088,0.94822 1.80169,7.85233 0.12457,4.07961 -0.0461,7.58985 -0.37908,7.80053 -0.33305,0.21069 -1.81507,-0.83269 -3.29336,-2.31862 l -2.68779,-2.70168 -10.98178,0.2055 -10.98176,0.2055 7.75302,8.43608 c 6.73032,7.32325 7.75303,8.76885 7.75303,10.95877 0,4.23941 -3.92463,6.93327 -7.62229,5.23191 z m 39.40402,0.0929 c -3.66011,-2.10532 -3.96371,-3.03037 -3.96371,-12.07717 0,-4.70925 0.2526,-8.56229 0.56133,-8.56229 0.30872,0 2.63264,2.15131 5.16426,4.78068 l 4.60294,4.78068 14.71926,0.22681 c 14.47538,0.22304 14.74207,0.25583 16.09562,1.97815 1.91668,2.43889 1.75435,5.71642 -0.39258,7.92642 l -1.76892,1.82091 -16.78843,-0.0226 c -10.98982,-0.0148 -17.28626,-0.30891 -18.22977,-0.85163 z M 97.480722,156.86413 c -3.103694,-3.79691 -2.250287,-5.689 6.317268,-14.00598 l 7.37532,-7.15962 0.80238,1.93358 c 1.11512,2.6872 3.35127,4.56821 5.78553,4.86665 2.65092,0.32501 2.34031,1.63034 -1.06098,4.45872 -1.45433,1.20937 -4.93891,4.46423 -7.74351,7.23304 -6.08422,6.00655 -8.32487,6.52856 -11.476008,2.67361 z m 46.283758,-7.85848 c -2.66487,-2.76436 -5.45254,-5.71686 -5.34529,-5.99251 0.14288,-0.3672 6.30125,-0.10913 6.30125,-0.10913 l 6.94229,-0.24873 c 0,0 6.03775,-5.32322 6.27907,-5.57747 l 3.81379,-3.43129 6.99632,7.54565 c 8.48935,9.15591 8.66616,9.38677 7.64751,11.34606 -0.7358,1.41525 -1.48445,1.49353 -14.28311,1.49353 l -13.50661,0 z m 31.01611,-9.61112 -10.61604,-10.92798 -3.79439,3.7371 c -2.08692,2.05541 -5.17361,4.97 -6.85933,6.47688 l -3.06494,2.73978 -16.53951,0 c -11.10512,0 -17.14832,-0.28554 -18.39239,-0.86904 -2.06194,-0.96709 -2.7606,-2.88334 -2.41192,-6.61535 0.37198,-3.98153 1.91045,-4.36182 17.69596,-4.37428 l 13.85933,-0.0109 11.03711,-10.94229 C 167.2031,107.19867 191.933,82.863743 200.4025,74.614445 c 8.02323,-7.814639 11.16369,-8.819667 14.72803,-4.71337 3.29714,3.79845 2.48134,5.599496 -6.8464,15.11499 -4.65736,4.7511 -11.68223,11.722799 -15.61082,15.492665 l -7.1429,6.8543 10.5661,10.96404 c 6.2398,6.4748 10.56744,11.54875 10.56937,12.39208 0.004,1.89088 -17.87748,19.55391 -19.82486,19.5823 -0.91484,0.0134 -5.33652,-3.98543 -12.06043,-10.90692 z m -99.566392,5.33584 c -4.668641,-0.90349 -9.693325,-2.42436 -13.269415,-4.54757 -2.578851,-1.53113 -3.067636,-2.17386 -2.882696,-3.79063 0.387631,-3.38873 4.154223,-4.98684 11.753484,-4.98684 7.355339,0 10.24275,0.47409 15.564237,2.55551 4.739908,1.85394 7.136993,4.14484 7.136993,6.82083 0,2.11821 -1.410767,3.37317 -4.550982,4.04837 -3.493735,0.75121 -10.696572,0.49156 -13.751621,-0.0997 z m 15.845886,-2.68693 c 1.112507,-1.14691 1.043752,-1.31177 -1.001003,-2.40023 -6.237654,-3.32039 -16.720788,-5.3325 -23.859839,-4.57959 -5.470644,0.57696 -6.201462,0.92617 -5.015807,2.39678 1.432563,1.77685 7.852512,4.24318 13.158336,5.58901 6.242847,1.58352 14.875857,0.89346 16.718313,-1.00597 z m 28.021026,-14.13379 c 0.13212,-0.36158 3.12089,-3.19848 6.03051,-5.69302 l 5.29023,-4.53552 11.62628,0 11.62629,0 -5.00606,5.19295 -5.00606,5.19295 -12.15067,0 c -6.76048,0 -12.54419,0.20842 -12.41052,-0.15736 z" style="fill:#000000"/>
        <path transform="matrix(0.92851962,0,0,-0.9741803,66.915305,168.68534)" d="m 75.110454,66.83123 c 0,6.464783 -5.459107,11.705526 -12.193256,11.705526 -6.734149,0 -12.193255,-5.240743 -12.193255,-11.705526 0,-6.464783 5.459106,-11.705525 12.193255,-11.705525 6.734149,0 12.193256,5.240742 12.193256,11.705525 z" sodipodi:ry="11.705525" sodipodi:rx="12.193255" sodipodi:cy="66.83123" sodipodi:cx="62.917198" id="path3055" style="fill:#000000;fill-opacity:1;fill-rule:evenodd;stroke:none" sodipodi:type="arc"/>
        <path sodipodi:type="arc" style="fill:#000000;fill-opacity:1;fill-rule:evenodd;stroke:none" id="path3860" sodipodi:cx="62.917198" sodipodi:cy="66.83123" sodipodi:rx="12.193255" sodipodi:ry="11.705525" d="m 75.110454,66.83123 c 0,6.464783 -5.459107,11.705526 -12.193256,11.705526 -6.734149,0 -12.193255,-5.240743 -12.193255,-11.705526 0,-6.464783 5.459106,-11.705525 12.193255,-11.705525 6.734149,0 12.193256,5.240742 12.193256,11.705525 z" transform="matrix(0.97505495,0,0,-1.0230041,94.848868,165.0902)"/>
      </g>
    </g>
  </g>
</svg>