<svg xmlns="http://www.w3.org/2000/svg" xmlns:xlink="http://www.w3.org/1999/xlink" version="1.1" id="Layer_1" x="0px" y="0px" width="100.0px" height="100px" viewBox="0 0 120 120" enable-background="new 0 0 120 120" xml:space="preserve">
<path d="M30.602,67.798v8.694c8.648,3.896,19,6.004,29.897,6.004c12.353,0,24.006-2.706,33.268-7.659V66.24  c7.583-3.445,12.841-10.936,12.841-19.627c0-11.956-9.944-21.647-22.212-21.647c-3.231,0-6.299,0.678-9.069,1.888  c-3.921-3.663-9.184-5.908-14.974-5.908c-5.706,0-10.901,2.178-14.804,5.747c-2.801-1.297-5.919-2.026-9.209-2.026  c-12.122,0-21.947,9.826-21.947,21.947C14.392,56.75,21.264,65.275,30.602,67.798z"/>
<path d="M60.5,87.458c-10.751,0-21.044-1.949-29.897-5.57v3.501c0,3.653,5.667,6.615,12.659,6.615h37.846  c6.993,0,12.66-2.961,12.66-6.615v-4.992C84.208,84.976,72.645,87.458,60.5,87.458z"/>
</svg>