<?xml version="1.0" encoding="utf-8"?>
<!-- Generator: Adobe Illustrator 15.1.0, SVG Export Plug-In . SVG Version: 6.00 Build 0)  -->
<!DOCTYPE svg PUBLIC "-//W3C//DTD SVG 1.1//EN" "http://www.w3.org/Graphics/SVG/1.1/DTD/svg11.dtd">
<svg version="1.1" id="Layer_1" xmlns="http://www.w3.org/2000/svg" xmlns:xlink="http://www.w3.org/1999/xlink" x="0px" y="0px"
	 width="100px" height="77.117px" viewBox="0 0 100 77.117" enable-background="new 0 0 100 77.117" xml:space="preserve">
<path d="M94.357,57.402L81.703,46.539l-0.687-7.492c0.809-1.014,2.484-3.293,2.484-4.811c0-4-3.501-5.834-3.501-5.834v-2
	c0,0,0.224-3.33,0-4c-2-6-5.162-13.582-10-16c-4-2-8,4-8,4l-44-10c-8-2-8,4-6,6c0,0-10-2-10,4c0,4,4,8,10,8c8,0,22-2,22-2
	s-10,2-10,6c0,3.463,6.668,7.586,15.764,8.922L15.577,45.49l-5.739,2.913L0,49.681v0.723l12-0.723l6-3.001l28.352-14.922
	c0.84-0.01,1.689-0.047,2.547-0.111l3.727,23.033l-4.941,16.625l-4.439,5.812h1.645l4.001-3.99l6.117-18.459l-3.113-23.35
	c3.344-0.496,6.759-1.428,10.105-2.916c0,0,1.218,1.193,2.959,2.279v9.938l16.38,26.617l6.345,2.115l0.633-0.922l-5.655-2.861
	L67.584,40.184l0.823-7.984c0.011,0.002,0.021,0.008,0.033,0.01l2.635,8.729l9.329,7.633l1.762,10.447l0.084-6.504l-0.241-2.631
	l11.634,9.52H100v-1.305L94.357,57.402z M73.582,39.568l-1.73-7.555c0.773-0.24,1.614-0.555,2.338-0.844
	c0.491-0.197-0.106,3.289,1.229,5.398c0.942,1.488,2.289,2.258,3.408,2.646l0.957,5.678L73.582,39.568z"/>
</svg>
