<svg xmlns="http://www.w3.org/2000/svg" xmlns:xlink="http://www.w3.org/1999/xlink" version="1.1" id="Layer_1" x="0px" y="0px" width="100px" height="100px" viewBox="0 0 100 100" enable-background="new 0 0 100 100" xml:space="preserve">
<polygon points="18.723,81.489 18.723,67.408 25.07,64.278 31.329,67.408 37.59,64.278 43.849,67.408 49.983,64.278 56.255,67.408   62.489,64.278 68.724,67.408 74.958,64.278 81.277,67.408 81.277,81.489 61.992,98.548 38.629,98.548 "/>
<path d="M94.415,12.938l-13.736,3.208l-2.069,11.223l-10.004,2.719c-5.198-3.945-11.629-6.28-18.593-6.28  c-6.966,0-13.399,2.337-18.597,6.286l-10.025-2.725l-2.069-11.223L5.586,12.938L2.725,1.452v14.391l12.252,3.52l2.07,11.222  l8.965,4.736c-4.529,5.559-7.259,12.711-7.259,20.518v5.85l6.35-3.13l6.259,3.13l6.259-3.13l6.261,3.13l6.132-3.13l6.274,3.13  l6.234-3.13l6.233,3.13l6.234-3.13l6.284,3.13v-5.85c0-7.812-2.733-14.968-7.267-20.526l8.947-4.728l2.07-11.222l12.251-3.52V1.452  L94.415,12.938z M33.635,52.644c-4.024,0-7.289-3.263-7.289-7.289c0-4.025,3.265-7.289,7.289-7.289c4.026,0,7.289,3.264,7.289,7.289  C40.924,49.381,37.661,52.644,33.635,52.644z M66.394,52.644c-4.027,0-7.29-3.263-7.29-7.289c0-4.025,3.263-7.289,7.29-7.289  c4.025,0,7.287,3.264,7.287,7.289C73.681,49.381,70.419,52.644,66.394,52.644z"/>
</svg>