<svg xmlns="http://www.w3.org/2000/svg" xmlns:xlink="http://www.w3.org/1999/xlink" version="1.1" id="Calque_1" x="0px" y="0px" width="100px" height="100px" viewBox="0 0 100 100" enable-background="new 0 0 100 100" xml:space="preserve">
<rect x="13.54" y="36.306" transform="matrix(0.9294 -0.369 0.369 0.9294 -10.4446 20.8364)" width="71.429" height="2.838"/>
<rect x="15.771" y="53.413" transform="matrix(0.7068 -0.7074 0.7074 0.7068 -32.9339 27.3731)" width="1.568" height="0.007"/>
<g>
	<polygon fill="none" points="9.236,62.957 24.986,62.957 17.111,55.082  "/>
	<path d="M27.204,62.957h-2.218H9.236l-4.248,4.248L3.88,66.096l3.139-3.139H3.212c0,7.631,6.185,13.816,13.815,13.816   c7.629,0,13.815-6.186,13.815-13.816H27.204z"/>
	<polygon points="4.988,67.205 9.236,62.957 17.111,55.082 24.986,62.957 27.204,62.957 18.22,53.973 18.225,53.969 17.117,52.859    17.111,52.864 16.003,53.974 7.019,62.957 3.88,66.096  "/>
</g>
<g>
	<polygon fill="none" points="75.182,36.858 90.934,36.858 83.058,28.982  "/>
	<path d="M93.149,36.858l2.424,2.424l-1.107,1.108l-3.532-3.532H75.182l-4.249,4.249l-1.105-1.109l3.14-3.14h-3.81   c0,7.63,6.186,13.814,13.814,13.814c7.631,0,13.816-6.185,13.816-13.814H93.149z"/>
	<polygon points="70.933,41.106 75.182,36.858 83.058,28.982 90.934,36.858 94.466,40.39 95.573,39.282 93.149,36.858    84.166,27.873 84.171,27.869 83.062,26.76 83.059,26.765 83.054,26.76 81.944,27.869 81.949,27.874 72.967,36.858 69.827,39.998     "/>
</g>
</svg>