<svg xmlns="http://www.w3.org/2000/svg" xmlns:xlink="http://www.w3.org/1999/xlink" version="1.1" id="Layer_1" x="0px" y="0px" width="100px" height="100px" viewBox="0 0 100 100" enable-background="new 0 0 100 100" xml:space="preserve">
<path fill="#000000" d="M97.271,48.669l-7.327,3.845c-0.458,0-0.885,0.12-1.268,0.313c-0.383-0.193-0.81-0.313-1.269-0.313h-4.008  c-1.366,0-2.506,0.973-2.765,2.264H68.17v-1.982c0-0.814-0.351-1.543-0.903-2.059v-2.812H83.06c1.559,0,2.821-1.264,2.821-2.822  v-4.615c0-0.029-0.008-0.056-0.009-0.084c0.003-0.503-0.121-1.012-0.401-1.474l-8.904-14.672c0.318-0.595,0.331-1.335-0.045-1.954  l-1.454-2.396c-0.167-0.274-0.394-0.486-0.648-0.644c-0.022-0.299-0.105-0.598-0.271-0.872l-0.36-5.774c0,0-0.127-2.231-1.469-1.416  l-14.143,8.584c-1.342,0.814,0.577,1.957,0.577,1.957l4.956,2.984c0.167,0.274,0.393,0.486,0.648,0.644  c0.022,0.299,0.105,0.598,0.271,0.872l1.456,2.396c0.375,0.619,1.036,0.95,1.711,0.942l4.907,8.085h-5.751  c-0.434-0.809-1.276-1.365-2.26-1.365H27.983c-1.421,0-2.573,1.152-2.573,2.573c0,0.041,0.01,0.078,0.012,0.118  c-0.001,0.04-0.012,0.078-0.012,0.118v3.789l-5.72-1.243c-1.521-0.338-3.03,0.621-3.368,2.142l-0.474,2.127l-8.194-1.824  c-1.521-0.338-3.029,0.621-3.368,2.142L0.442,63.516c-0.339,1.521,0.62,3.029,2.141,3.368l6.334,1.41v8.499  c0,1.558,1.264,2.822,2.822,2.822h53.606c1.559,0,2.823-1.265,2.823-2.822v-9.081h12.465c0.259,1.292,1.398,2.264,2.765,2.264h4.008  c0.459,0,0.886-0.12,1.269-0.313c0.383,0.193,0.81,0.313,1.268,0.313l7.327,3.846c0,0,2.821,1.499,2.821-0.746v-23.66  C100.092,47.17,97.271,48.669,97.271,48.669z M30.556,41.447h29.031v3.656c0,1.459,1.111,2.646,2.533,2.793v2.078h-4.16  l-27.404-5.956V41.447z"/>
</svg>