<svg xmlns="http://www.w3.org/2000/svg" xmlns:xlink="http://www.w3.org/1999/xlink" version="1.1" id="Layer_1" x="0px" y="0px" width="100px" height="100px" viewBox="0 0 100 100" enable-background="new 0 0 100 100" xml:space="preserve">
<g>
	<path fill="#000000" d="M23.408,69.934c0,10.585,0.611,19.166-2.997,19.166c0,0-2.648-10.421-2.997-19.166   c-0.422-10.577-2.625-19.167,2.997-19.167C26.031,50.767,23.408,59.348,23.408,69.934z"/>
	<path fill="#000000" d="M75.174,69.934c0,10.584-0.612,19.165,2.996,19.165c0,0,2.647-10.421,2.997-19.165   c0.422-10.578,2.623-19.168-2.997-19.168S75.174,59.348,75.174,69.934z"/>
	<path fill="#000000" d="M81.723,56.436c0,4.48-2.588,8.112-5.78,8.112H22.416c-3.193,0-5.78-3.632-5.78-8.112l0,0   c0-4.481,2.587-8.113,5.78-8.113h53.527C79.135,48.322,81.723,51.955,81.723,56.436L81.723,56.436z"/>
	<g>
		<path fill="#000000" d="M29.005,86.842c0,1.241-0.47,2.257-1.044,2.257s-1.043-1.016-1.043-2.257V62.509    c0-1.242,0.469-2.257,1.043-2.257s1.044,1.015,1.044,2.257V86.842z"/>
	</g>
	<g>
		<path fill="#000000" d="M33.184,86.842c0,1.241-0.47,2.257-1.043,2.257c-0.574,0-1.043-1.016-1.043-2.257V62.509    c0-1.242,0.469-2.257,1.043-2.257c0.574,0,1.043,1.015,1.043,2.257V86.842z"/>
	</g>
	<g>
		<path fill="#000000" d="M37.132,86.842c0,1.241-0.469,2.257-1.043,2.257s-1.043-1.016-1.043-2.257V62.509    c0-1.242,0.469-2.257,1.043-2.257s1.043,1.015,1.043,2.257V86.842z"/>
	</g>
	<g>
		<path fill="#000000" d="M40.978,86.84c0,1.242-0.469,2.257-1.043,2.257c-0.575,0-1.044-1.015-1.044-2.257V62.509    c0-1.242,0.469-2.257,1.044-2.257c0.574,0,1.043,1.015,1.043,2.257V86.84z"/>
	</g>
	<g>
		<path fill="#000000" d="M44.653,86.84c0,1.242-0.469,2.257-1.043,2.257s-1.043-1.015-1.043-2.257V62.509    c0-1.242,0.469-2.257,1.043-2.257s1.043,1.015,1.043,2.257V86.84z"/>
	</g>
	<g>
		<path fill="#000000" d="M48.979,86.84c0,1.242-0.469,2.257-1.043,2.257s-1.043-1.015-1.043-2.257V62.509    c0-1.242,0.469-2.257,1.043-2.257s1.043,1.015,1.043,2.257V86.84z"/>
	</g>
	<g>
		<path fill="#000000" d="M53.492,86.84c0,1.242-0.469,2.257-1.044,2.257c-0.574,0-1.044-1.015-1.044-2.257V62.509    c0-1.242,0.47-2.257,1.044-2.257c0.575,0,1.044,1.015,1.044,2.257V86.84z"/>
	</g>
	<g>
		<path fill="#000000" d="M57.816,86.84c0,1.242-0.47,2.257-1.043,2.257c-0.575,0-1.044-1.015-1.044-2.257V62.509    c0-1.242,0.469-2.257,1.044-2.257c0.573,0,1.043,1.015,1.043,2.257V86.84z"/>
	</g>
	<g>
		<path fill="#000000" d="M62.415,86.84c0,1.242-0.47,2.257-1.045,2.257c-0.574,0-1.044-1.015-1.044-2.257V62.509    c0-1.242,0.47-2.257,1.044-2.257c0.575,0,1.045,1.015,1.045,2.257V86.84z"/>
	</g>
	<g>
		<path fill="#000000" d="M66.928,86.84c0,1.242-0.469,2.257-1.044,2.257c-0.573,0-1.043-1.015-1.043-2.257V62.509    c0-1.242,0.47-2.257,1.043-2.257c0.575,0,1.044,1.015,1.044,2.257V86.84z"/>
	</g>
	<g>
		<path fill="#000000" d="M71.441,86.84c0,1.242-0.47,2.257-1.045,2.257c-0.573,0-1.042-1.015-1.042-2.257V62.51    c0-1.241,0.469-2.257,1.042-2.257c0.575,0,1.045,1.016,1.045,2.257V86.84z"/>
	</g>
	<path fill="#000000" d="M57.404,49.187c0,5.899-4.019,10.682-8.975,10.682l0,0c-4.957,0-8.974-4.782-8.974-10.682V23.231   c0-5.9,4.018-10.682,8.974-10.682l0,0c4.956,0,8.975,4.782,8.975,10.682V49.187z"/>
</g>
</svg>