<svg xmlns="http://www.w3.org/2000/svg" xmlns:xlink="http://www.w3.org/1999/xlink" version="1.1" id="Layer_1" x="0px" y="0px" width="100px" height="100px" viewBox="0 0 100 100" enable-background="new 0 0 100 100" xml:space="preserve">
<g>
	<path fill-rule="evenodd" clip-rule="evenodd" d="M27.106,19.931c-0.858,15.751,3.476,38.437,6.593,49.558   c2.057,7.339,4.103,14.298,6.011,21.944c4.479,0,8.957,0,13.435,0c-1.194-16.291,2.849-25.95,15.558-24.632   c-0.237-11.196-0.44-36.737-1.266-47.188C53.767,19.614,40.778,19.931,27.106,19.931z"/>
	<g>
		<path fill="#000000" d="M67.438,92.917c-6.705,0-12.16-5.458-12.16-12.165c0-6.709,5.455-12.164,12.16-12.164    c6.712,0,12.168,5.455,12.168,12.164C79.605,87.459,74.149,92.917,67.438,92.917z M67.438,72.812c-4.373,0-7.936,3.562-7.936,7.94    c0,4.376,3.562,7.939,7.936,7.939c4.383,0,7.943-3.563,7.943-7.939C75.381,76.373,71.817,72.812,67.438,72.812z"/>
	</g>
	<circle fill="#000000" cx="67.438" cy="80.753" r="2.274"/>
	<rect x="20.395" y="13.145" fill-rule="evenodd" clip-rule="evenodd" width="47.044" height="4.555"/>
</g>
</svg>