<svg xmlns="http://www.w3.org/2000/svg" xmlns:xlink="http://www.w3.org/1999/xlink" version="1.1" id="Layer_1" x="0px" y="0px" width="100px" height="100px" viewBox="0 0 100 100" enable-background="new 0 0 100 100" xml:space="preserve">
<path fill-rule="evenodd" clip-rule="evenodd" d="M29.808,37.532c-0.689,12.667,2.796,30.911,5.303,39.854  c1.654,5.9,3.299,11.496,4.834,17.647c3.602,0,7.203,0,10.805,0c-0.96-13.103,2.291-20.87,12.511-19.809  c-0.191-9.005-0.354-29.544-1.019-37.948C51.249,37.277,40.803,37.532,29.808,37.532z"/>
<g>
	<path fill="#000000" d="M62.242,96.226c-5.393,0-9.778-4.389-9.778-9.783s4.386-9.78,9.778-9.78c5.398,0,9.785,4.386,9.785,9.78   S67.641,96.226,62.242,96.226z M62.242,80.058c-3.517,0-6.381,2.864-6.381,6.385s2.864,6.385,6.381,6.385   c3.525,0,6.389-2.864,6.389-6.385S65.765,80.058,62.242,80.058z"/>
</g>
<circle fill="#000000" cx="62.242" cy="86.444" r="1.829"/>
<rect x="30.738" y="20.528" transform="matrix(0.6923 0.7216 -0.7216 0.6923 31.4119 -28.9504)" fill-rule="evenodd" clip-rule="evenodd" width="37.832" height="3.663"/>
</svg>