<svg xmlns="http://www.w3.org/2000/svg" xmlns:xlink="http://www.w3.org/1999/xlink" version="1.1" id="Layer_1" x="0px" y="0px" width="100px" height="100px" viewBox="0 0 100 100" enable-background="new 0 0 100 100" xml:space="preserve">
<path fill-rule="evenodd" clip-rule="evenodd" d="M53.724,4.247c0,0-0.899,2.851,0.45,3.9s1.05,2.25,1.05,2.25s13.351,6.45,15.15,9  s7.8,27.15,7.8,27.15c8.25,20.25,2.25,39.75-1.35,44.4c-3.601,4.65-20.4,5.4-21,4.5c-0.601-0.9-3.45-4.2-4.65-3.3  c-1.2,0.899-4.8,4.5-4.8,4.5l-22.65-4.8c-18.15-16.95-2.25-67.05-1.8-67.351c0.45-0.3,18.15-12.6,18.6-13.649  c-1.2-1.351,0-2.55,0-2.55v-4.05C49.974,1.697,53.724,4.247,53.724,4.247z M65.724,23.297c-2.399-1.8-5.399-1.5-5.55,2.1  c-0.15,3.6,1.8,18.45,4.2,19.95c2.399,1.5,4.05,0.6,4.649-2.4C69.624,39.947,65.724,23.297,65.724,23.297z"/>
</svg>