<svg xmlns="http://www.w3.org/2000/svg" xmlns:xlink="http://www.w3.org/1999/xlink" version="1.1" id="Layer_1" x="0px" y="0px" width="100px" height="100px" viewBox="0 0 100 100" enable-background="new 0 0 100 100" xml:space="preserve">
<path fill-rule="evenodd" clip-rule="evenodd" d="M67.319,40.878c-6.815,2.46-10.651,1.303-17.262,4.031  c-5.839,2.041-7.566,4.993-12.826,6.466c-2.652,0.743-5.437,0.915-8.274,1.056c3.009-1.142,5.262-2.692,6.603-3.872  c3.322-2.926,11.545-5.518,13.039-6.256c3.802-2.017,19.653-8.73,23.892-17.053c3.437-6.746,5.905-17.428,5.235-20.944  c-0.229-1.209-14.784,8.798-19.729,12.067c-6.045,3.997-10.044,3.776-15.827,7.983c-5.193,3.358-6.176,6.634-10.942,9.306  c-7.12,3.991-16.53,3.377-23.021,11.35c-0.472,0.578,1.084,7.053,6.448,8.286c1.237,0.284,2.43,0.465,3.583,0.568  c-2.047,0.646-4.075,1.615-6.055,3.119c-0.595,0.45-0.609,7.111,4.318,9.57c9.56,4.776,17.902,2.172,21.43,0.315  c3.917-2.059,12.521-2.642,14.143-3.006c0.706-0.18,1.785-0.411,3.11-0.703c-2.301,1.523-4.539,3.046-5.834,3.904  c-4.228,2.804-7.026,2.654-11.071,5.603c-3.632,2.357-4.316,4.652-7.65,6.528c-4.979,2.798-11.568,2.381-16.102,7.966  c-0.33,0.405,0.766,4.937,4.521,5.795c7.294,1.663,12.541-1.493,14.627-3.34c2.324-2.051,8.075-3.873,9.123-4.391  c2.658-1.416,13.748-6.133,16.707-11.963c1.81-3.567,3.23-8.7,3.616-12.062c6.05-1.727,12.809-4.34,16.192-8.285  c4.93-5.747,9.845-15.548,10.021-19.123C89.396,32.567,72.895,38.866,67.319,40.878z M30.182,65.258  c-2.939,0.525-11.878,0.12-12.508-3.795c-0.742-4.623,8.771-7.348,17.987-3.823C39.735,60.254,33.343,64.696,30.182,65.258z   M43.235,59.896c-4.208-2.597,5.085-10.284,8.441-11.023c3.142-0.691,8.433-0.339,8.428,4.345  C60.096,58.744,45.8,62.381,43.235,59.896z M74.991,52.314c-2.891,1.413-9.487,3.221-10.586-1.333  c-1.295-5.373,11.532-12.338,14.612-10.527C83.719,41.985,78.078,50.807,74.991,52.314z"/>
</svg>