<svg xmlns="http://www.w3.org/2000/svg" xmlns:xlink="http://www.w3.org/1999/xlink" version="1.1" id="Layer_1" x="0px" y="0px" width="100px" height="100px" viewBox="0 0 100 100" enable-background="new 0 0 100 100" xml:space="preserve">
<path fill-rule="evenodd" clip-rule="evenodd" d="M83.014,28.799c3.161-0.201,8.312-3.893,10.248-6.654c0,0-8.112,3.89-10.137,2.215  c4.801-2.304,4.928-5.011,4.953-6.653c-2.238,1.278-4.688,0.416-4.688,0.416c1.604-2.601,4.902-3.368,4.472-7.234  c-3.992,3.136-5.583,4.917-7.966,5.042c-2.401-3.735-2.692-3.801-1.556-6.584c-2.384,1.346-4.229,3.656-5.056,6.496  c-0.916-1.597,1.098-4.191-0.908-7.099c0,0,0.725,5.76-4.585,9.122c-0.215-0.168-0.431-0.336-0.649-0.504  C34.625-7.564,18.158,29.857,16.983,41.416C15.806,52.977,7.975,69.582,6.958,76.563c-1.944,13.353,9.509,16.004,13.316,14.181  c3.809-1.828,26.162-7.864,30.697-9.021c30.032-5.851,43.964-29.694,28.383-51.948c6.262,2.756,9.678,4.782,13.083,2.54  C92.438,32.314,84.802,32.53,83.014,28.799z"/>
</svg>