<?xml version="1.0" encoding="utf-8"?>
<!-- Generator: Adobe Illustrator 14.0.0, SVG Export Plug-In . SVG Version: 6.00 Build 43363)  -->
<!DOCTYPE svg PUBLIC "-//W3C//DTD SVG 1.0//EN" "http://www.w3.org/TR/2001/REC-SVG-20010904/DTD/svg10.dtd">
<svg version="1.0" id="Layer_1" xmlns="http://www.w3.org/2000/svg" xmlns:xlink="http://www.w3.org/1999/xlink" x="0px" y="0px"
	 width="93.69px" height="100px" viewBox="0 0 93.69 100" enable-background="new 0 0 93.69 100" xml:space="preserve">
<path d="M31.503,66.849c-1.155-0.423-2.428,0.176-2.848,1.343s0.174,2.456,1.329,2.879c1.153,0.425,2.428-0.176,2.848-1.343
	C33.25,68.562,32.658,67.272,31.503,66.849z"/>
<path d="M12.478,40.991c1.153,0.426,2.428-0.176,2.847-1.342c0.421-1.166-0.174-2.455-1.328-2.879
	c-1.153-0.425-2.428,0.174-2.848,1.341S11.324,40.568,12.478,40.991z"/>
<path d="M14.648,49.712c-0.419,1.165,0.176,2.456,1.33,2.879c1.153,0.426,2.428-0.177,2.848-1.344
	c0.42-1.165-0.175-2.454-1.328-2.878C16.344,47.945,15.068,48.544,14.648,49.712z"/>
<path d="M22.559,42.47c-1.155-0.423-2.43,0.178-2.848,1.343c-0.421,1.167,0.174,2.456,1.328,2.88
	c1.153,0.425,2.428-0.177,2.848-1.343S23.713,42.895,22.559,42.47z"/>
<path d="M21.197,36.573c-1.155-0.423-2.43,0.176-2.848,1.343c-0.42,1.166,0.174,2.456,1.329,2.879
	c1.151,0.424,2.427-0.178,2.847-1.341C22.945,38.288,22.35,36.998,21.197,36.573z"/>
<path d="M14.034,46.89c1.152,0.424,2.428-0.178,2.847-1.343c0.421-1.166-0.174-2.455-1.328-2.879s-2.428,0.176-2.848,1.341
	C12.285,45.176,12.879,46.465,14.034,46.89z"/>
<path d="M31.503,54.659c-1.155-0.425-2.428,0.176-2.848,1.343s0.174,2.455,1.329,2.879c1.153,0.425,2.428-0.177,2.848-1.343
	C33.25,56.373,32.658,55.082,31.503,54.659z"/>
<path d="M31.503,42.47c-1.155-0.423-2.428,0.178-2.848,1.343c-0.42,1.167,0.174,2.456,1.329,2.88
	c1.153,0.425,2.428-0.177,2.848-1.343C33.25,44.185,32.658,42.895,31.503,42.47z"/>
<path d="M31.503,60.755c-1.155-0.424-2.428,0.177-2.848,1.342c-0.42,1.166,0.174,2.455,1.329,2.879
	c1.153,0.426,2.428-0.176,2.848-1.341C33.25,62.469,32.658,61.179,31.503,60.755z"/>
<path d="M48.237,72.463c-3.142,0-17.404,0-17.404,0s-14.262,0-17.405,0s-3.143,1.061-2.357,3.706
	c0.786,2.647,4.452,6.621,8.906,6.621c4.452,0,7.452,2.118,7.452,2.118V100h6.811V84.908c0,0,3-2.118,7.453-2.118
	c4.451,0,8.118-3.974,8.904-6.621C51.382,73.523,51.382,72.463,48.237,72.463z"/>
<path d="M13.71,53.934c0.42-1.164-0.174-2.454-1.329-2.879c-1.153-0.425-2.428,0.178-2.848,1.345
	c-0.42,1.165,0.174,2.453,1.329,2.879C12.015,55.701,13.29,55.099,13.71,53.934z"/>
<path d="M31.503,48.564c-1.155-0.423-2.428,0.178-2.848,1.343c-0.42,1.167,0.174,2.456,1.329,2.879
	c1.153,0.425,2.428-0.177,2.848-1.341C33.25,50.278,32.658,48.989,31.503,48.564z"/>
<path d="M11.7,48.299c0.42-1.166-0.176-2.456-1.328-2.88c-1.153-0.423-2.428,0.179-2.848,1.343c-0.42,1.167,0.174,2.456,1.328,2.879
	C10.005,50.068,11.28,49.464,11.7,48.299z"/>
<path d="M25.121,71.07c1.155,0.425,2.428-0.176,2.85-1.343c0.42-1.166-0.176-2.455-1.33-2.879c-1.153-0.423-2.428,0.176-2.848,1.343
	C23.374,69.358,23.968,70.647,25.121,71.07z"/>
<path d="M11.413,58.1c-0.42,1.166,0.174,2.455,1.328,2.881c1.155,0.423,2.43-0.179,2.848-1.345c0.421-1.165-0.174-2.454-1.328-2.88
	C13.108,56.331,11.833,56.933,11.413,58.1z"/>
<path d="M23.726,48.762c-1.154-0.425-2.43,0.176-2.85,1.341c-0.42,1.169,0.176,2.456,1.328,2.881c1.155,0.425,2.43-0.178,2.85-1.343
	C25.473,50.476,24.877,49.185,23.726,48.762z"/>
<path d="M24.343,64.976c1.155,0.426,2.43-0.176,2.85-1.341c0.42-1.166-0.176-2.456-1.329-2.88s-2.428,0.177-2.848,1.342
	C22.596,63.263,23.19,64.552,24.343,64.976z"/>
<path d="M7.034,35.784c0.42-1.169-0.175-2.456-1.33-2.881c-1.151-0.426-2.428,0.176-2.848,1.343c-0.419,1.166,0.175,2.456,1.33,2.88
	C5.337,37.55,6.614,36.95,7.034,35.784z"/>
<path d="M9.496,41.942c0.42-1.166-0.174-2.455-1.328-2.879c-1.153-0.423-2.428,0.179-2.847,1.343
	c-0.421,1.167,0.173,2.456,1.326,2.879C7.801,43.709,9.076,43.107,9.496,41.942z"/>
<path d="M13.843,65.895c1.155,0.423,2.428-0.176,2.848-1.343c0.421-1.166-0.174-2.455-1.328-2.881
	c-1.153-0.423-2.428,0.179-2.848,1.343C12.095,64.181,12.689,65.47,13.843,65.895z"/>
<path d="M20.061,71.07c1.155,0.425,2.43-0.176,2.848-1.343c0.421-1.166-0.174-2.455-1.326-2.879c-1.155-0.423-2.43,0.176-2.85,1.343
	S18.909,70.647,20.061,71.07z"/>
<path d="M22.043,56.002c-0.42,1.167,0.176,2.455,1.328,2.879c1.155,0.425,2.43-0.177,2.85-1.343c0.42-1.165-0.176-2.456-1.329-2.879
	C23.738,54.234,22.463,54.835,22.043,56.002z"/>
<path d="M15.01,71.07c1.155,0.425,2.428-0.176,2.848-1.343c0.42-1.166-0.174-2.455-1.329-2.879
	c-1.151-0.423-2.427,0.176-2.847,1.343S13.855,70.647,15.01,71.07z"/>
<path d="M19.249,54.463c-1.155-0.425-2.43,0.176-2.85,1.342c-0.42,1.169,0.176,2.456,1.329,2.881
	c1.153,0.424,2.428-0.178,2.847-1.344C20.997,56.177,20.402,54.886,19.249,54.463z"/>
<path d="M19.09,64.779c1.153,0.425,2.428-0.177,2.848-1.341c0.42-1.167-0.176-2.456-1.329-2.881
	c-1.153-0.425-2.428,0.176-2.848,1.342C17.341,63.066,17.935,64.355,19.09,64.779z"/>
<path d="M13.187,33.949c0.42-1.166-0.174-2.456-1.329-2.879c-1.151-0.424-2.428,0.175-2.846,1.342
	c-0.42,1.167,0.173,2.455,1.327,2.879C11.492,35.716,12.767,35.114,13.187,33.949z"/>
<path d="M49.707,51.055c-1.155,0.425-1.749,1.715-1.329,2.879c0.419,1.165,1.694,1.768,2.848,1.345
	c1.154-0.426,1.747-1.714,1.327-2.879C52.134,51.232,50.858,50.63,49.707,51.055z"/>
<path d="M51.715,45.418c-1.153,0.424-1.747,1.715-1.329,2.88c0.42,1.166,1.695,1.77,2.85,1.342c1.151-0.423,1.748-1.712,1.328-2.879
	C54.144,45.598,52.868,44.996,51.715,45.418z"/>
<path d="M53.919,39.063c-1.152,0.424-1.749,1.713-1.329,2.879s1.695,1.768,2.849,1.343c1.153-0.423,1.749-1.712,1.329-2.879
	C56.346,39.242,55.072,38.64,53.919,39.063z"/>
<path d="M39.072,62.097c-0.42-1.165-1.696-1.766-2.848-1.342c-1.155,0.424-1.749,1.714-1.329,2.88
	c0.418,1.165,1.697,1.767,2.848,1.341C38.897,64.552,39.49,63.263,39.072,62.097z"/>
<path d="M35.444,66.849c-1.153,0.424-1.748,1.713-1.326,2.879c0.418,1.167,1.693,1.768,2.847,1.343
	c1.153-0.423,1.748-1.712,1.328-2.879S36.599,66.426,35.444,66.849z"/>
<path d="M56.382,32.903c-1.153,0.425-1.748,1.712-1.328,2.881c0.42,1.166,1.695,1.766,2.849,1.343
	c1.153-0.424,1.749-1.715,1.329-2.88C58.812,33.08,57.535,32.478,56.382,32.903z"/>
<path d="M4.311,29.689c0.42-1.167-0.175-2.456-1.328-2.879c-1.153-0.426-2.428,0.176-2.848,1.341s0.174,2.456,1.328,2.879
	C2.615,31.456,3.891,30.855,4.311,29.689z"/>
<path d="M35.867,57.538c0.42,1.166,1.695,1.768,2.848,1.343c1.153-0.424,1.748-1.712,1.328-2.879s-1.693-1.768-2.848-1.343
	C36.042,55.082,35.447,56.373,35.867,57.538z"/>
<path d="M59.104,26.811c-1.154,0.423-1.747,1.712-1.327,2.879c0.418,1.166,1.695,1.766,2.847,1.341
	c1.153-0.423,1.749-1.713,1.329-2.879S60.258,26.384,59.104,26.811z"/>
<path d="M30.794,0.07h-0.523c0,0-17.812-2.118-28.549,16.942c10.738,19.065,28.549,16.949,28.549,16.949h0.523
	c0,0,17.81,2.116,28.548-16.949C48.604-2.048,30.794,0.07,30.794,0.07z M30.794,7.955c3.067,0,5.556,2.514,5.556,5.616
	c0,3.104-2.488,5.616-5.556,5.616c-3.069,0-5.558-2.512-5.558-5.616C25.237,10.469,27.726,7.955,30.794,7.955z M30.893,28.303
	h-0.338c0,0-11.43,1.333-18.324-10.675c1.913-3.333,4.174-5.633,6.447-7.225c-0.303,1.094-0.477,2.241-0.477,3.432
	c0,7.032,5.639,12.732,12.594,12.732s12.592-5.701,12.592-12.732c0-1.147-0.164-2.251-0.445-3.308
	c2.214,1.587,4.412,3.852,6.277,7.101C42.325,29.637,30.893,28.303,30.893,28.303z"/>
<polygon points="84.613,0.612 74.63,0.612 74.63,10.024 65.445,10.024 65.445,20.117 74.63,20.117 74.63,29.169 84.613,29.169 
	84.613,20.117 93.69,20.117 93.69,10.024 84.613,10.024 "/>
<path d="M40.889,36.573c-1.153,0.425-1.748,1.715-1.326,2.881c0.418,1.164,1.693,1.766,2.846,1.341
	c1.153-0.423,1.75-1.713,1.33-2.879C43.319,36.749,42.043,36.15,40.889,36.573z"/>
<path d="M42.025,71.07c1.155-0.423,1.749-1.712,1.329-2.879s-1.696-1.766-2.848-1.343c-1.153,0.424-1.748,1.713-1.329,2.879
	C39.597,70.895,40.872,71.495,42.025,71.07z"/>
<path d="M42.838,54.463c-1.153,0.423-1.749,1.714-1.328,2.879c0.418,1.166,1.695,1.768,2.849,1.344
	c1.154-0.425,1.747-1.712,1.327-2.881C45.267,54.639,43.992,54.038,42.838,54.463z"/>
<path d="M44.325,61.899c-0.42-1.166-1.695-1.767-2.847-1.342c-1.155,0.425-1.749,1.714-1.331,2.881
	c0.421,1.164,1.698,1.766,2.85,1.341C44.152,64.355,44.745,63.066,44.325,61.899z"/>
<path d="M47.076,71.07c1.154-0.423,1.749-1.712,1.329-2.879s-1.695-1.766-2.848-1.343c-1.153,0.424-1.748,1.713-1.328,2.879
	C44.649,70.895,45.923,71.495,47.076,71.07z"/>
<path d="M49.383,44.009c-0.42-1.166-1.697-1.766-2.85-1.341c-1.152,0.424-1.748,1.713-1.328,2.879s1.695,1.768,2.849,1.343
	C49.208,46.465,49.803,45.176,49.383,44.009z"/>
<path d="M53.076,32.411c-0.42-1.167-1.694-1.766-2.848-1.342c-1.153,0.423-1.748,1.714-1.328,2.879s1.695,1.768,2.849,1.341
	C52.902,34.866,53.498,33.578,53.076,32.411z"/>
<path d="M50.938,38.112c-0.42-1.167-1.695-1.766-2.85-1.341c-1.153,0.424-1.748,1.713-1.328,2.879
	c0.419,1.166,1.695,1.768,2.848,1.342C50.763,40.568,51.358,39.279,50.938,38.112z"/>
<path d="M38.2,45.351c0.42,1.166,1.695,1.768,2.848,1.343c1.155-0.424,1.749-1.713,1.329-2.88c-0.42-1.166-1.695-1.766-2.848-1.343
	C38.375,42.895,37.781,44.185,38.2,45.351z"/>
<path d="M37.034,51.642c0.418,1.165,1.695,1.768,2.848,1.343s1.748-1.712,1.328-2.881c-0.42-1.166-1.693-1.766-2.848-1.341
	C37.208,49.185,36.613,50.476,37.034,51.642z"/>
<path d="M50.675,58.1c-0.422-1.167-1.697-1.769-2.849-1.344c-1.153,0.426-1.748,1.715-1.329,2.88
	c0.42,1.166,1.695,1.768,2.849,1.345C50.498,60.555,51.093,59.266,50.675,58.1z"/>
<path d="M47.438,49.712c-0.42-1.167-1.695-1.767-2.848-1.343c-1.153,0.424-1.749,1.713-1.33,2.878c0.42,1.167,1.695,1.77,2.85,1.344
	C47.265,52.168,47.857,50.877,47.438,49.712z"/>
<path d="M49.572,63.014c-0.42-1.164-1.693-1.766-2.848-1.343c-1.153,0.426-1.748,1.715-1.328,2.881
	c0.418,1.167,1.695,1.766,2.847,1.343C49.397,65.47,49.992,64.181,49.572,63.014z"/>
</svg>
