<svg xmlns="http://www.w3.org/2000/svg" xmlns:xlink="http://www.w3.org/1999/xlink" version="1.1" id="Layer_1" x="0px" y="0px" width="75px" height="75px" viewBox="0 0 75 75" enable-background="new 0 0 75 75" xml:space="preserve">
<g>
	<path fill="none" d="M37.681,10.554c1.31-0.251,2.277-0.945,2.163-1.549L35.1,9.916C35.215,10.52,36.372,10.806,37.681,10.554z"/>
	<path fill="none" d="M34.611,15.202l1.672-0.52c0.848-0.312-0.581-0.763-1.203-0.918C34.656,14.243,33.737,15.425,34.611,15.202z"/>
	<path fill="none" d="M34.718,18.332c-0.083-0.266,0.965-0.677,1.608-0.882c0.646-0.196,1.743-0.452,1.827-0.186l0.262-1.015   c-0.109-0.35-1.505-0.038-2.392,0.224v-0.001c-0.03,0.009-0.06,0.02-0.09,0.028c-0.032,0.01-0.063,0.019-0.092,0.029h0.001   c-0.879,0.288-2.206,0.822-2.097,1.172L34.718,18.332z"/>
	<polygon fill="none" points="26.289,40.836 26.302,40.99 26.508,40.74  "/>
	<path fill="none" d="M28.389,12.565c0.248,0.563,1.437,0.585,2.66,0.049c1.221-0.535,2.011-1.426,1.765-1.988L28.389,12.565z"/>
	<path fill="none" d="M39.379,21.114l-0.688-0.75c0.086,0.273-0.733,0.618-1.238,0.779c-0.509,0.153-1.377,0.335-1.462,0.06   l-0.285,1.052c0.001,0.004,0.004,0.007,0.006,0.011l2.385-0.233C38.742,21.79,39.474,21.421,39.379,21.114z"/>
	<path d="M59.151,30.908c-0.023-0.339-1.677-1.355-3.875-2.363l-10.755-4.934c-0.836-0.384-1.637-0.712-2.332-0.968   c-0.568-0.436-1.278-0.706-2.045-0.755c1.712-1.984,2.52-5.481,2.718-8.711c0.381,0.136,1.606-1.207,1.144-1.826   c-0.538-0.721,0.229-2.7,0.067-3.221c-0.135-0.431-0.74-1.261-1.481-0.257c-0.008-0.047-0.017-0.098-0.027-0.145   c-0.325-1.494-1.886-2.631-1.886-2.631l-0.787,1.895l-1.269-1.916l-1.875,1.353L36.73,4.07l-3.24,0.677l1.852-2.134   c-0.321-0.561-3.647,0.251-3.647,0.251c-4.715,1.465-7.491,6.018-6.2,10.169c0.017,0.052,0.037,0.105,0.055,0.158   c-1.208-0.436-1.24,0.604-1.104,1.04c0.161,0.52,1.915,1.717,1.88,2.615c-0.027,0.701,1.428,1.104,1.875,0.926   c1.464,1.869,3.327,3.649,5.233,4.717l-0.415,0.041c-1.583,0.155-2.835,1.235-3.215,2.609c-0.345,0.623-0.734,1.499-1.087,2.493   l-3.306,9.296c-0.722,2.03-1.024,3.774-0.674,3.897l0.748-0.947l0.148,0.338l-1.018,2.998c0,0-2.37,0.916-1.86,1.971   c0.509,1.053,1.797,0.455,1.969,0.266c0.036,0.217,0.821,1.096,1.97,0.266c1.149-0.828-0.42-2.273-0.42-2.273l0.871-2.568   l0.174,0.871c0.349,0.123,1.218-1.419,1.939-3.449l1.426-4.01c0.367,2.057,0.885,4.638,1.473,6.917l-0.305,2.926l1.063,0.229   c-0.261,0.465-0.515,1.031-0.731,1.662l-2.798,8.141c-0.581,1.688-0.684,3.197-0.256,3.496c-0.042,0.398-0.047,0.869-0.002,1.373   l0.548,6.262c0.042,0.484,0.123,0.928,0.227,1.303h-0.216c0,0,0.822,2.629,0,2.996c-0.824,0.367-2.619,0.506-3.667,0.811   s-0.898,2.184-0.898,2.184h9.127v-5.99h-0.137c0.083-0.451,0.106-1.047,0.049-1.695l-0.543-6.223   c0.457-0.477,0.982-1.428,1.379-2.584l2.8-8.143c0.188-0.551,0.327-1.082,0.413-1.559l0.16-0.016l0.475,8.086l1.569-0.148   l-0.848,1.359l1.593,0.66l-1.598,0.77l1.621,1.676l-2.113-0.398l-0.021,0.098c0.151,2.697,0.683,4.859,1.188,4.832l0.377-0.988   l0.869,0.779l0.017-0.018l0.095,3.002c-0.446,0.014-0.79,0.584-0.769,1.273c0.021,0.691,0.4,1.24,0.847,1.225   c0.314-0.008,0.578-0.295,0.697-0.703c0.146,0.4,0.427,0.67,0.741,0.66c0.445-0.016,0.79-0.586,0.768-1.275   c-0.021-0.691-0.4-1.24-0.847-1.223l-0.104-3.307l0.416-0.623L43.97,63.1c0.503-0.027,0.791-2.238,0.641-4.936l-0.693-12.354   c-0.049-0.852-0.133-1.646-0.244-2.34l1.021-0.393l-0.804-3.006c0.29-4.324,0.153-9.614,0.047-10.709l-0.209-2.132l9.144,4.193   c0.1,0.047,0.2,0.091,0.299,0.135c-0.393,0.855-0.395,1.788-0.326,2.094c0.171,0.767,1.324,0.001,1.188-1.099   c-0.137-1.101,1.279,0.293,1.423,1.917c0.142,1.622,1.552,1.512,1.552,1.512s3.527-0.995,3.638-1.488   C60.74,34.057,60.077,31.75,59.151,30.908z M26.289,40.836l0.219-0.096l-0.207,0.25L26.289,40.836z M39.844,9.004   c0.114,0.604-0.853,1.298-2.163,1.549c-1.31,0.252-2.466-0.034-2.582-0.638L39.844,9.004z M35.08,13.763   c0.622,0.155,2.051,0.606,1.203,0.918l-1.672,0.52C33.737,15.425,34.656,14.243,35.08,13.763z M35.841,16.529L35.841,16.529   c0.028-0.01,0.06-0.019,0.091-0.029c0.03-0.009,0.061-0.02,0.09-0.028v0.001c0.887-0.262,2.282-0.573,2.392-0.224l-0.262,1.015   c-0.084-0.266-1.18-0.01-1.827,0.186c-0.643,0.205-1.691,0.616-1.608,0.882l-0.974-0.631   C33.635,17.351,34.961,16.816,35.841,16.529z M31.049,12.615c-1.223,0.536-2.412,0.514-2.66-0.049l4.424-1.939   C33.06,11.189,32.27,12.08,31.049,12.615z M35.707,22.256l0.285-1.052c0.084,0.275,0.953,0.093,1.462-0.06   c0.505-0.162,1.324-0.506,1.238-0.779l0.688,0.75c0.095,0.307-0.637,0.675-1.281,0.919l-2.385,0.233   C35.71,22.263,35.708,22.26,35.707,22.256z"/>
</g>
</svg>