<svg xmlns="http://www.w3.org/2000/svg" xmlns:xlink="http://www.w3.org/1999/xlink" version="1.1" id="Layer_1" x="0px" y="0px" width="100.0px" height="100px" viewBox="0 0 141.73 141.73" enable-background="new 0 0 141.73 141.73" xml:space="preserve">
<path fill="#000000" d="M75.022,12.472v7.064h-8.054v-7.11c-7.881,1.37-13.77,6.804-13.77,13.303c0,0.188,0.008,0.376,0.018,0.562  h7.949v36.286l2.63,3.143l0.275,3.607l-0.458,0.064l-2.005,2.137l2.475,1.771l0.29-0.045l0.355,4.65l-0.849,0.115l-2.136,2.252  l2.41,1.568l0.865-0.123l0.371,4.854l-1.02,0.168l-1.992,2.252l2.367,1.73l0.95-0.154l0.109,1.434c0,0,0.02,1.223,0.073,3.219  L64.6,95.427l-2.222,2.225l2.425,1.861l1.204-0.209c0.054,1.484,0.12,3.121,0.202,4.84l-1.318,0.262l-1.646,2.166l2.078,1.645  l1.089-0.209c0.095,1.615,0.203,3.252,0.327,4.863l-0.896,0.195l-1.473,2.166l1.559,1.732l1.144-0.26  c0.164,1.664,0.347,3.248,0.553,4.682l-1.004,0.254l-1.299,2.252l1.646,1.818l1.385-0.375c1.495,3.969,2.425,3.969,2.425,3.969  s2.174-2.538,2.78-5.379l1.724-0.467l0.952-2.338l-1.731-1.473l-0.329,0.084c0.174-1.412,0.348-3.01,0.521-4.758l1.539-0.348  l1.299-1.992l-1.818-1.732l-0.65,0.143c0.137-1.523,0.271-3.123,0.406-4.781l1.543-0.297l1.299-2.252l-2.078-1.559l-0.447,0.088  c0.117-1.533,0.233-3.104,0.349-4.695l1.397-0.242l1.732-2.34l-2.512-1.516l-0.332,0.055c0.109-1.568,0.217-3.15,0.323-4.732  l0.788-0.127l1.732-2.311l-2.223-1.676l-0.025,0.004c0.104-1.58,0.205-3.154,0.305-4.709l0.99-0.143l1.791-2.195l-2.482-1.465  l-0.057,0.008c0.107-1.703,0.213-3.371,0.314-4.99l0.371-0.057l1.854-2.213l-1.996-1.359c0.07-1.12,0.139-2.209,0.205-3.259  l2.252-3.436V26.292h7.949c0.01-0.187,0.019-0.374,0.019-0.562C88.532,19.301,82.773,13.916,75.022,12.472z"/>
</svg>