<svg xmlns="http://www.w3.org/2000/svg" xmlns:xlink="http://www.w3.org/1999/xlink" version="1.1" id="Layer_1" x="0px" y="0px" width="100px" height="100px" viewBox="0 0 100 100" enable-background="new 0 0 100 100" xml:space="preserve">
<g>
	<path d="M63.625,29.817c0.113,0.139-0.027,0.439-0.314,0.673l-2.049,1.666c-0.287,0.232-0.609,0.31-0.723,0.171   s0.029-0.44,0.314-0.672l2.049-1.666C63.191,29.757,63.512,29.679,63.625,29.817L63.625,29.817z M69.264,25.236   c0.113,0.139-0.029,0.439-0.314,0.672l-2.051,1.666c-0.285,0.231-0.609,0.309-0.721,0.171c-0.113-0.138,0.025-0.439,0.316-0.672   l2.047-1.665C68.83,25.175,69.15,25.098,69.264,25.236L69.264,25.236z M92.879,4.957l0.055,0.067   c0.232,0.287,0.189,0.708-0.098,0.94l-0.871,0.709c-0.287,0.233-0.709,0.19-0.941-0.098l-0.055-0.067   c-0.232-0.287-0.189-0.707,0.096-0.941l0.873-0.709C92.225,4.626,92.645,4.67,92.879,4.957L92.879,4.957z M93.682,9.627l0.191,0.02   l-1.436,1.167l-6.516,5.295l-0.059,0.048l-0.088-0.107l0.059-0.047l-0.205-0.252l6.518-5.295l0.205,0.252L93.682,9.627   L93.682,9.627z M81.467,19.402l0.23,0.283l-1.254,1.018l-4.896,3.982l-1.268,1.028l-0.074-0.091l1.266-1.028l-0.156-0.192   L81.467,19.402L81.467,19.402z M79.346,16.733l0.604,0.745l-6.135,4.985l-0.605-0.744L79.346,16.733L79.346,16.733z M37.024,60.839   l0.238-0.211c0.237,0.217,0.583,0.247,0.814,0.059l0.043-0.038l0.106,0.13l0.537-0.435c0.032,0.044,0.065,0.09,0.102,0.133   c0.889,1.093,2.471,1.308,3.66,0.576l-0.104-0.271c-0.875,0.579-2.056,0.399-2.641-0.479c-0.32-0.481-0.475-1.025-0.393-1.545   c1.214-1.067,2.504-2.192,2.881-2.499c0.361-0.294,0.606-0.384,0.765-0.394l1.738,2.136c0.64,0.789,0.52,1.947-0.268,2.587   l-3.199,2.601c-0.789,0.641-1.947,0.521-2.587-0.269L37.024,60.839L37.024,60.839z M73.795,62.356l-1.287-8.742   c-5.271,0.703-10.896-0.409-15.971-2.905c-1.551-0.76-3.479-2.543-3.848-3.107c-0.275-0.421,0.08-0.764,0.08-0.764l4.523-4.135   l0.549,0.056l0.387-0.313c0,0,0.926,0.011,1.67-0.616c0.744-0.626,1.066-1.543,2.496-3.261c1.428-1.717,4.738-4.328,6.195-5.58   c1.459-1.25,4.504-4.575,4.504-4.575l1.518-1.232l-0.229-0.897l7.809-6.345L94.635,9.827c0,0,0.082,0.044,0.205,0.009   c0.125-0.035,0.348-0.163,0.348-0.163l0.461-0.374c0.801-0.65,0.213-1.842,0.213-1.842l1.492-1.211l-1.426-1.753L95.096,5.17   l-0.238-0.049l-0.814-0.089l-0.672-0.828l-0.25,0.203l-1.826-2.246l-0.322-0.894l-0.963-0.1l-1.137,0.924   c0,0-0.617,0.727-0.227,1.207c0.391,0.481,0.592,0.354,0.592,0.354l0.346,0.518l0.828,4.151l0.348,0.476l-6.314,5.133   c0,0-0.162-0.059-0.373-0.039c-0.213,0.021-0.33,0.155-0.33,0.155s-1.338,0.364-2.273,0.29c-0.934-0.076-1.66-0.779-1.66-0.779   l-1.266,0.078l-8.891,7.151l-0.711-0.221l-0.531,0.469l-0.176-0.122c0,0-10.484,8.139-11.293,8.873   c-0.811,0.733-0.479,0.767-0.479,0.767l0.217,0.359l-0.275,0.223c0,0-0.01-0.105-0.674-0.594c-0.662-0.488-1.236,0.627-1.236,0.627   l-0.096,0.115l-0.234-0.191l-0.438,0.395c0,0-0.48-0.029-0.707,0.157c-0.23,0.187-0.148,0.614-0.148,0.614l-2.983,2.501   c0,0-0.387-0.01-0.67,0.203c-0.338,0.254-0.293,0.572-0.246,0.725l-0.467,0.373c0,0-0.289-0.03-0.507-0.056   c-0.216-0.026-0.452-0.119-0.548,0.137c-0.098,0.255-0.027,0.314,0.162,0.373c0.188,0.059,0.24,0.085,0.386,0.255   c0.147,0.17,0.192,0.227,0.192,0.227l1.051-0.854l0.201,0.312l-0.737,0.636l0.215,0.357L26.122,56.237c0,0-0.503,0.407-0.68,0.895   c-0.176,0.484-0.074,2.338-0.074,2.338l-0.239,0.689c0,0-0.046,1.671-0.003,1.864c0.042,0.193,0.247,0.446,0.247,0.446   l-2.656,3.182l-2.686,3.475c0,0-0.431,0.313-1.374,1.535c-0.944,1.224-1.992,1.617-2.962,1.685   c-0.971,0.068-1.742,1.037-2.523,1.898c-0.781,0.863-9.827,11.52-9.827,11.52s-0.85,0.729-1.667,1.733   c-0.817,1.006-0.909,1.08-0.867,1.691c0.042,0.614,0.415,0.652,1.665,1.537c1.251,0.883,5.992,4.895,7.606,6.507   c1.615,1.613,2.003,1.716,2.881,1.534c0.878-0.18,0.971-1.283,0.971-1.283s5.873-12.408,8.38-17.601   c2.506-5.19,5.799-10.733,5.799-10.733l1.447-1.754l0.705-0.572c0,0,0.431,0.146,0.614,0.472c0.185,0.323,0.743,0.741,1.016,0.878   c0.273,0.136,1.075,0.724,1.463,1.287c0.39,0.565,0.862,2.587,0.862,2.587s1.04,2.931,1.453,4.425   c0.414,1.493,1.334,1.611,2.074,1.811c0.739,0.196,2.023,0.082,3.576-1.157c1.552-1.237,1.171-1.938,0.693-2.567   c-0.476-0.63-0.972-2.034-0.972-2.034l-1.075-3.562c0,0-0.778-2.607-0.992-3.641c-0.159-0.773,0.059-1.37,0.177-1.621   c0.742,0.377,1.668,0.307,2.357-0.252l3.199-2.6c0.69-0.561,0.947-1.457,0.726-2.262c0.125-0.103,0.436-0.356,0.771-0.64   l0.251,0.196l0.288-0.026l0.718,1.073l0.247-0.173c0,0,0.105-0.062-0.326-0.877c-0.18-0.341-0.359-0.624-0.505-0.841   c0.243-0.5-0.314-1.149-0.314-1.149l-0.547-0.672l0.994-0.81C54.639,61.121,64.375,63.352,73.795,62.356L73.795,62.356z"/>
</g>
</svg>