<svg xmlns="http://www.w3.org/2000/svg" xmlns:xlink="http://www.w3.org/1999/xlink" version="1.1" x="0px" y="0px" width="73.453px" height="100px" viewBox="0 0 73.453 100" enable-background="new 0 0 73.453 100" xml:space="preserve">
<g id="Layer_1" display="none">
	<path display="inline" d="M67.877,44.72c3.404-2.858,5.573-7.142,5.573-11.939c0-8.606-6.974-15.581-15.58-15.581   c-0.315,0-0.623,0.028-0.937,0.048C53.838,7.197,45.659,0,36.019,0C23.725,0,13.76,11.686,13.76,26.104   c0,0.038,0.004,0.077,0.004,0.114C6.017,27.119,0,33.696,0,41.685c0,6.488,3.965,12.044,9.604,14.39   c-0.958,2.021-1.509,4.271-1.509,6.656c0,8.605,6.976,15.58,15.581,15.58c1.926,0,3.761-0.365,5.464-1.004V100h12.949V77.182   c3.506-1.248,6.643-3.48,9.182-6.424c2.008,0.941,4.24,1.482,6.603,1.482c8.606,0,15.58-6.977,15.58-15.582   C73.452,51.863,71.283,47.579,67.877,44.72z"/>
</g>
<g id="Layer_2" display="none">
	<g display="inline">
		<path d="M67.095,29.433h-5.768c-3.221,0-5.447-1.501-6.955-3.236c1.031-0.384,1.811-0.699,2.219-0.916    c7.393-3.773,14.793-8.089,14.793-18.7V0.578H50.482c0,0-0.367,2.746-0.588,3.771C43.845,7.356,37.289,4.094,31.195,3.79    C16.884,3.077,8.761,18.73,9.426,33.375c0.877,19.311,0.162,20.352,1.603,40.153c0.778,10.685,5.92,19.444,10.201,22.266    c4.281,2.821,7.163,4.189,11.849,3.413c-1.773-3.721-7.176-5.677-10.327-9.49c-5.846-7.07-4.941-10.685-5.511-23.22    c-0.598-13.155-1.063-14.187-0.28-24.191c0.144-1.827,0.623-3.76,1.539-4.609c2.689,2.608,7.755,4.855,17.709,4.855h1.81h3.957    h5.537c0,0-2.375-2.791-5.537-2.791c0,0-10.517-0.432-10.517-2.014c0.938-1.149,2.364-3.07,3.689-5.273    c3.617-1.12,7.369-2.3,10.726-3.388c3.018,1.804,7.785,3.139,15.453,3.139h1.813h3.955h5.537    C72.634,32.224,70.261,29.433,67.095,29.433z M60.767,4.183c2.227-0.095,4.504,0.45,5.537,1.815    c-1.461,3.346-1.129,9.552-5.537,9.611c-4.41-0.06-4.078-6.266-5.539-9.611C56.261,4.634,58.539,4.089,60.767,4.183z"/>
		<ellipse transform="matrix(-0.4188 -0.9081 0.9081 -0.4188 83.0382 67.7521)" cx="63.202" cy="7.302" rx="1.187" ry="1.582"/>
		<ellipse transform="matrix(-0.9081 -0.4187 0.4187 -0.9081 108.2422 38.3549)" cx="58.33" cy="7.301" rx="1.583" ry="1.187"/>
	</g>
</g>
<g id="Layer_3" display="none">
	<g display="inline">
		<path id="maple_leaf_2_" d="M37.744,0.001l-7.732,15.081c-0.878,1.639-2.449,1.487-4.023,0.572l-5.6-3.032l4.174,23.165    c0.877,4.232-1.938,4.232-3.328,2.403l-9.771-11.438l-1.587,5.809c-0.182,0.762-0.986,1.563-2.193,1.373l-12.357-2.717    l3.246,12.337c0.694,2.745,1.237,3.883-0.701,4.606l-4.404,2.164l21.27,18.063c0.842,0.684,1.268,1.912,0.968,3.024l-1.862,6.389    c7.324-0.884,13.89-1.674,21.214-2.555c0.65-0.009,1.729,0.569,1.725,1.354L35.81,100h3.561l-0.559-23.351    c-0.006-0.784,0.973-1.412,1.625-1.403c7.322,0.881,13.889,1.671,21.213,2.555l-1.861-6.389c-0.299-1.112,0.125-2.343,0.967-3.024    l21.271-18.063l-4.404-2.164c-1.938-0.724-1.396-1.861-0.701-4.606l3.246-12.337l-12.355,2.717    c-1.207,0.19-2.012-0.61-2.195-1.373l-1.586-5.809L54.259,38.19c-1.391,1.83-4.205,1.83-3.326-2.403l4.172-23.165l-5.6,3.032    c-1.572,0.916-3.145,1.067-4.021-0.572L37.744,0.001z"/>
	</g>
</g>
<g id="Layer_4" display="none">
	<g display="inline">
		<path d="M38.289,80.05c6.271,4.254,18.051,9.862,33.955,9.347c0,0-8.674-8.548-22.039-11.988    c21.477,0.136,37.617-12.017,37.617-12.017c-16.855-2.823-30.555,0.313-39.611,3.813c22.668-15.34,29.898-40.476,29.898-40.476    c-16.623,8.36-27.273,19.611-33.861,29.063c1.746-13.915,1.283-32.603-6.705-53.533c0,0-11.814,23.842-7.982,52.74    c-6.627-9.282-17.144-20.142-33.304-28.269c0,0,6.931,24.095,28.498,39.5c-8.987-3.061-21.662-5.396-36.932-2.839    c0,0,15.671,11.8,36.682,12.013C11.132,80.843,2.455,89.396,2.455,89.396c16.064,0.523,27.635-5.241,33.697-9.272    c0,0-1.232,11.031,2.361,18.1l1.674-0.313C40.187,97.91,36.718,87.63,38.289,80.05z"/>
	</g>
</g>
<g id="Layer_5" display="none">
	<g display="inline">
		<polygon points="73.453,87 58.273,58 67.179,58 48,29 56.906,29 36.359,0 15.178,29 24.085,29 4.905,58 13.813,58 -1.368,87     31.257,87 31.257,100 41.257,100 41.257,87   "/>
	</g>
</g>
<g id="Layer_6" display="none">
	<g display="inline">
		<path id="path5106" d="M39.723,27.226c4.104,0,7.445-3.376,7.445-7.538c0-4.151-3.342-7.53-7.445-7.53    c-4.119,0-7.447,3.379-7.447,7.53C32.275,23.85,35.603,27.226,39.723,27.226"/>
		<path id="path5108" d="M59.957,92.966L48.968,59.247V32.264c0-3.537-3.499-3.379-3.499-3.379H34.243h-2.959    c0,0-0.596-0.089-1.823,0.923l-8.267,4.878l-8.616-8.734c-1.407-1.683-3.892-1.933-5.568-0.511    c-1.688,1.422-1.777,4.001-0.371,5.708l11.001,11.133c0.741,0.795,1.777,1.34,2.947,1.34c0.854,0,1.642-0.272,2.306-0.729    l7.245-4.037v19.788L19.045,92.898c-0.809,2.979,0.944,6.038,3.904,6.845c2.947,0.797,5.985-0.979,6.771-3.955l9.685-29.568    l9.868,29.635c0.798,2.991,3.822,4.766,6.771,3.945C58.991,99.005,60.744,95.944,59.957,92.966"/>
		<path id="path5110" d="M4.682,34.947c0.383,0.386,1.013,0.397,1.405,0l0.135-0.114c0.371-0.397,0.394-1.034,0-1.422l-2.148-2.24    c-0.395-0.397-1.035-0.397-1.429-0.011l-0.113,0.125c-0.394,0.398-0.416,1.036-0.022,1.421L4.682,34.947z"/>
		<path id="path5112" d="M25.289,9.68L12.578,23.563l1.529,1.591l14.185-12.36l9.427-8.779c0.371-0.434,0.618-0.977,0.618-1.581    c0-1.329-1.058-2.422-2.352-2.435c-0.641-0.012-1.191,0.238-1.63,0.614L25.289,9.68z"/>
	</g>
</g>
<g id="Boardwalk" display="none">
	<g display="inline">
		<path d="M41.404,12.147c3.361,0.278,6.279-2.222,6.557-5.579c0.256-3.356-2.244-6.272-5.605-6.551    c-3.334-0.255-6.275,2.245-6.529,5.603C35.546,8.954,38.046,11.894,41.404,12.147z"/>
		<path d="M36.242,14.648c1.203-0.833,2.662-1.389,4.283-1.25c2.082,0.162,3.801,1.458,4.844,3.033l6.135,12.177l8.379,5.765    c0.719,0.555,1.158,1.435,1.064,2.406c-0.115,1.506-1.436,2.64-2.939,2.5c-0.463-0.022-0.832-0.208-1.25-0.394l-9.145-6.296    c-0.277-0.231-0.508-0.509-0.693-0.811l-2.291-4.561l-2.762,12.13L52.66,52.104c0.256,0.394,0.418,0.856,0.51,1.319l2.916,15.394    c-0.021,0.349,0.023,0.558,0,0.834c-0.162,2.291-2.15,3.959-4.42,3.798c-1.875-0.162-3.266-1.552-3.705-3.266l-2.754-14.422    l-8.779-9.607l-2.037,9.353c-0.068,0.438-0.648,1.366-0.811,1.736l-8.426,14.189c-0.832,1.296-2.246,2.13-3.843,1.991    c-2.292-0.162-3.981-2.152-3.797-4.422c0.047-0.648,0.324-1.319,0.556-1.782l7.825-13.126l6.528-28.913l-4.262,3.451    l-2.269,10.301c-0.301,1.32-1.504,2.408-2.917,2.292c-1.528-0.116-2.64-1.436-2.523-2.963c0-0.116,0.023-0.231,0.046-0.37    l2.686-12.015c0.162-0.509,0.439-0.973,0.833-1.319L36.242,14.648z"/>
		<rect x="7.745" y="88.796" width="7.917" height="11.204"/>
		<rect x="62.753" y="88.796" width="7.916" height="11.204"/>
		<rect x="-9.108" y="78.842" width="9.653" height="5.347"/>
		<rect x="65.23" y="78.842" width="9.652" height="5.347"/>
		<rect x="77.916" y="78.842" width="9.652" height="5.347"/>
		<rect x="52.845" y="78.842" width="9.652" height="5.347"/>
		<rect x="40.455" y="78.842" width="9.658" height="5.347"/>
		<rect x="28.07" y="78.842" width="9.631" height="5.347"/>
		<rect x="15.685" y="78.842" width="9.63" height="5.347"/>
		<rect x="3.3" y="78.842" width="9.63" height="5.347"/>
	</g>
</g>
<g id="Boat_Launch" display="none">
	<g display="inline">
		<path d="M43.792,62.05c4.055-0.929,7.076-4.558,7.076-8.892c0-5.037-4.084-9.119-9.121-9.119c-5.039,0-9.123,4.082-9.123,9.119    c0,2.927,1.379,5.533,3.523,7.201l-46.721-10.326v24.629l51.166,0.035c2.299,0,4.316-1.199,5.467-3.004    c1.148,1.805,3.168,3.004,5.469,3.004c2.299,0,4.316-1.199,5.469-3.004c1.148,1.805,3.166,3.004,5.467,3.004    c2.299,0,4.318-1.199,5.469-3.004c1.148,1.805,3.166,3.004,5.467,3.004c2.299,0,4.318-1.199,5.467-3.004    c1.148,1.805,3.17,3.004,5.469,3.004c2.066,0,3.906-0.969,5.094-2.476L43.792,62.05z M36.976,53.158    c0-2.633,2.137-4.77,4.771-4.77s4.771,2.137,4.771,4.77c0,2.636-2.137,4.771-4.771,4.771S36.976,55.794,36.976,53.158z"/>
		<path d="M82.414,58.729l-30.621-6.66c0.039,0.359,0.059,0.721,0.059,1.09c0,0.896-0.117,1.761-0.332,2.584l30.121,6.552    L82.414,58.729"/>
		<path d="M-6.032,39.491l-0.776,3.565l38.596,8.396c0.211-1.244,0.652-2.41,1.275-3.457L-6.032,39.491"/>
		<path d="M23.074,30.345l10.533-5.964l-1.105-1.953l-12.722,7.205l-20.974-4.538c0.142,13.051,14.454,16.838,14.454,16.838    l20.979,4.47c1.85-2.056,4.529-3.346,7.51-3.346c4.496,0,8.307,2.936,9.617,6.995l26.449,5.634l6.596-12.068L23.074,30.345"/>
	</g>
</g>
<g id="Camper" display="none">
	<g display="inline">
		<path id="path5004" d="M33.029,46.129c1.855,0,3.367-1.522,3.367-3.369v-5.62c0-1.846-1.512-3.368-3.367-3.368H7.661    c-1.857,0-3.367,1.522-3.367,3.368v5.62c0,1.846,1.51,3.369,3.367,3.369H33.029z M66.509,46.103c1.869,0,3.367-1.521,3.367-3.366    V37.14c0-1.846-1.496-3.368-3.367-3.368H54.802c-1.857,0-3.367,1.522-3.367,3.368v5.596c0,1.845,1.51,3.366,3.367,3.366H66.509z     M22.975,72.839H3.802c-6.651,0-12.032-5.394-12.032-12.031l-0.024-21.019c0-9.024,7.31-16.333,16.321-16.333h55.507    c9.014,0,16.334,7.309,16.334,16.333l0.021,29.669h8.498c1.834,0,3.316,1.521,3.316,3.355H48.642    c-0.42-6.746-5.979-12.09-12.834-12.09C28.955,60.724,23.394,66.067,22.975,72.839"/>
		<path id="path5006" d="M35.81,77.669c2.229,0,4.027-1.786,4.027-4.016c0-2.23-1.799-4.027-4.027-4.027    c-2.217,0-4.016,1.798-4.016,4.027C31.794,75.882,33.593,77.669,35.81,77.669 M26.545,73.654c0-5.13,4.136-9.275,9.265-9.275    s9.262,4.146,9.262,9.275c0,5.116-4.133,9.272-9.262,9.272C30.679,82.927,26.545,78.771,26.545,73.654"/>
	</g>
</g>
<g id="Layer_10" display="none">
	<g display="inline">
		<path d="M11.611,84.421c9.106,0,16.495-7.389,16.495-16.506c0-9.096-7.388-16.483-16.495-16.483    c-9.083,0-16.472,7.39-16.472,16.483C-4.861,77.032,2.528,84.421,11.611,84.421z M-8.611,67.915    c0-11.172,9.072-20.211,20.222-20.211c11.184,0,20.245,9.039,20.245,20.211c0,11.184-9.061,20.232-20.245,20.232    C0.461,88.148-8.611,79.099-8.611,67.915z"/>
		<path d="M71.167,84.612c9.084,0,16.473-7.377,16.473-16.494c0-9.106-7.389-16.483-16.473-16.483    c-9.105,0-16.494,7.377-16.494,16.483C54.672,77.235,62.061,84.612,71.167,84.612z M50.922,68.116    c0-11.184,9.072-20.223,20.244-20.223c11.15,0,20.223,9.039,20.223,20.223c0,11.185-9.072,20.233-20.223,20.233    C59.995,88.351,50.922,79.301,50.922,68.116z"/>
		<path d="M50.979,18.757c4.199,0,7.611-3.391,7.611-7.59c0-4.2-3.412-7.613-7.611-7.613s-7.613,3.414-7.613,7.613    C43.366,15.366,46.78,18.757,50.979,18.757z"/>
		<path d="M51.292,37.217c-1.1,0.022-2.289-0.528-3.166-1.909l-4.939-7.725L32.991,37.677l9.455,4.975    c3.885,1.864,3.301,5.277,3.301,5.277v21.4c0,2.426-1.955,4.401-4.379,4.401c-2.426,0-4.379-1.977-4.379-4.401V52.196    L20.594,43.09c-1.954-1.089-3.279-3.179-3.279-5.558c0-1.64,0.606-3.145,1.639-4.267l16.08-16.113    c1.998-2.257,4.783-1.897,4.783-1.897c3.369,0,5.143,2.942,5.143,2.942l8.354,13.092l12.689-0.022c4.559,0,4.559,5.951,0,5.951    L51.292,37.217L51.292,37.217z"/>
	</g>
</g>
<g id="Layer_11" display="none">
	<g display="inline">
		<path d="M58.995,13.622c-3.914,0-6.928,3.128-6.928,6.927c0,3.912,3.014,7.04,6.928,7.04c3.797,0,6.926-3.128,6.926-7.04    C65.92,16.75,62.792,13.622,58.995,13.622z"/>
		<path d="M78.325,59.098c1.449-3.24,1.117-9.833-0.338-16.537c0.111,0.223,0.672,1.788,0.783,1.899    c2.348,1.899,5.025,1.005,6.256-2.347c-2.568-5.698-5.139-11.396-7.709-17.095c-2.123-0.335-4.135,0.335-6.258,2.011    c1.008,2.347,1.9,4.693,2.795,7.039l-3.688-4.469l-6.256-1.899l-4.021,1.341c-0.338,0.335-0.674,0.782-0.895,1.117    c-3.018,4.47-4.693,9.163-5.59,13.967c-4.021,2.57-7.822,4.916-11.729,7.487c-0.896,0.559-1.791,1.117-2.572,1.676l1.455,4.135    l1.117-0.336l0.893-0.336l12.402,21.9l-4.357,17.988l7.707,1.9l0.674-2.123l1.898-5.586l4.805,7.484l2.793-0.559l-6.256-12.066    l2.568-11.176l5.252-5.695l13.52,29.496l5.139-3.35L78.325,59.098z M58.995,66.693c-1.119,2.236-2.125,4.471-3.133,6.816    L45.696,55.744l11.957-4.582l1.342-2.123l1.898-3.017c1.453,2.904,3.018,5.698,4.467,8.491    C63.127,58.537,61.004,62.561,58.995,66.693z"/>
		<path d="M9.94,4.794c-4.021,0-7.373,3.352-7.373,7.374c0,4.135,3.352,7.374,7.373,7.374c4.024,0,7.375-3.239,7.375-7.374    C17.315,8.146,13.964,4.794,9.94,4.794z"/>
		<path d="M31.842,53.734c1.229-1.789,1.896-4.024,2.012-6.594c-0.336-3.017-1.453-6.369-2.459-9.498    c-1.006-2.011-0.113,0,0.668,0.224c3.354,1.117,5.254,0,6.26-2.57c-3.131-6.928-5.813-13.743-9.051-20.559    c-2.572,0.111-4.584,1.006-5.922,2.569l4.357,11.956c-2.572-5.921-5.924-10.056-11.509-9.946c-2.011,0-4.134,1.006-6.259,3.13    c-0.111,0.112-0.223,0.224-0.333,0.334c-1.79,5.14-3.576,10.392-5.364,15.532l-15.529,10.616l2.121,4.246l2.348-0.779    L6.926,75.857L3.125,95.635l6.815,1.787l1.453,0.336l2.348-9.723l5.363,8.604l4.022-0.334l-8.271-14.75l1.676-8.268l6.594-7.932    l15.756,32.959l2.793-2.346l2.459-2.123L31.842,53.734z M9.94,65.131l-2.009,4.246L-3.245,50.828L9.83,44.235    c0-0.112,0.111-0.223,0.111-0.223c0.782-1.229,1.564-2.347,2.235-3.464c2.458,3.017,4.134,6.145,5.028,9.162L9.94,65.131z"/>
	</g>
</g>
<g id="Layer_12" display="none">
	<g display="inline">
		<path d="M38.536,1.081c-27.57,0-50,22.43-50,50c0,27.568,22.43,50,50,50c27.57,0,50-22.432,50-50    C88.536,23.511,66.106,1.081,38.536,1.081z M42.567,92.817v-13.51h-8.063v13.512C14.593,90.91-1.293,75.024-3.201,55.113h13.512    v-8.064H-3.201c1.909-19.911,17.794-35.796,37.706-37.705v13.511h8.063V9.344c19.912,1.908,35.797,17.793,37.705,37.705h-13.51    v8.064h13.512C78.364,75.024,62.479,90.91,42.567,92.817z"/>
	</g>
</g>
<g id="MArker" display="none">
	<g display="inline">
		<path d="M33.221,0C17.739,0,5.187,12.552,5.187,28.034C5.187,43.516,33.221,100,33.221,100s28.034-56.482,28.034-71.966    S48.705,0,33.221,0z M33.221,40.477c-6.871,0-12.442-5.572-12.442-12.442c0-6.872,5.571-12.442,12.442-12.442    c6.872,0,12.442,5.57,12.442,12.442C45.664,34.905,40.093,40.477,33.221,40.477z"/>
	</g>
</g>
<g id="Layer_13" display="none">
	<g display="inline">
		<polygon points="-21.736,4.196 -5.868,20.593 0.225,15.063 -5.292,4.246   "/>
		<path d="M49.797,50.132c3,0.834,6.225-0.883,7.08-3.963c0.822-3.031-0.93-6.218-3.951-7.076l-2.354-0.662l-3.047,11.02    L49.797,50.132z"/>
		<path d="M47.952,37.729l-18.996-5.412c-1.248-0.329-2.502,0.429-2.846,1.692l-1.785,6.419c-0.352,1.262,0.328,2.556,1.609,2.935    l18.994,5.354L47.952,37.729z"/>
		<path d="M50.952,55.97c-1.449-1.394-3.25-2.5-5.35-3.084l-23.029-6.515l0,0L8.424,20.998c-0.745-1.311-1.944-2.354-3.496-2.783    c-3.103-0.882-6.327,0.961-7.174,4.098c-0.423,1.489-0.223,3.009,0.448,4.295l17.701,31.38c0,0,1.449,2.353,5.096,3.563    l32.178,9.119l14.922,15.315c0.496,0.524,1.145,0.93,1.92,1.155c2.248,0.63,4.6-0.729,5.256-2.976    c0.426-1.594-0.08-3.267-1.201-4.302L50.952,55.97z"/>
		<path d="M68.122,62.306l3.344,4.424l6.799-7.503l-5.74-3.233c0.541-4.066-1.953-8.005-5.951-9.146    c-4.4-1.235-8.973,1.343-10.197,5.791c-1.248,4.471,1.326,9.07,5.729,10.309C64.194,63.552,66.323,63.222,68.122,62.306z"/>
	</g>
</g>
<g id="Layer_14" display="none">
	<g display="inline">
		<g>
			<path d="M33.98,55.402c-1.104,0-1.997-0.903-1.992-2.008c0,0,0.959-15.959,2.064-15.955c1.105,0.004,1.936,15.971,1.936,15.971     C35.985,54.182,35.535,55.402,33.98,55.402z"/>
		</g>
		<path d="M40.456,30.102c1.613-1.62,2.612-3.853,2.612-6.314c0-4.938-4.018-8.955-8.955-8.955c-4.938,0-8.955,4.017-8.955,8.955    c0,2.461,0.999,4.694,2.612,6.314c-3.37,0.92-6.45,2.55-9.063,4.725l-1.92-1.987l1.438-1.39c0.794-0.768,0.815-2.034,0.048-2.828    c-0.767-0.794-2.033-0.815-2.828-0.048l-5.752,5.56c-0.794,0.768-0.876,2.098-0.048,2.828c1.006,0.886,2.439,0.423,2.828,0.048    l1.438-1.39l1.946,2.013c-3.649,4.228-5.864,9.728-5.864,15.738c0,13.3,10.821,24.121,24.121,24.121    c13.302,0,24.12-10.821,24.12-24.121C58.234,42.266,50.687,32.895,40.456,30.102z M27.158,23.789c0-3.835,3.12-6.955,6.955-6.955    s6.955,3.12,6.955,6.955c0,2.404-1.227,4.527-3.087,5.776c-0.615-0.1-1.238-0.172-1.868-0.225v-2.695h2c1.104,0,2-0.896,2-2    s-0.896-2-2-2h-8c-1.104,0-2,0.896-2,2s0.896,2,2,2h2v2.695c-0.63,0.052-1.253,0.125-1.868,0.225    C28.385,28.315,27.158,26.193,27.158,23.789z M34.113,73.493c-11.095,0-20.121-9.025-20.121-20.121    c0-11.095,9.026-20.122,20.121-20.122c11.096,0,20.121,9.026,20.121,20.122C54.234,64.468,45.208,73.493,34.113,73.493z"/>
	</g>
</g>
<g id="Layer_15" display="none">
	<g display="inline">
		<g>
			<path d="M46.244,47.581l-5.994-1.76L25.125,63.48l6.594,1.059L46.244,47.581L46.244,47.581z M36.614,44.755l-5.998-1.754     L14.535,61.776l6.593,1.061L36.614,44.755L36.614,44.755z M55.859,50.42c-1.859-0.552-3.876-1.149-5.984-1.771L35.716,65.183     l6.594,1.061L55.859,50.42L55.859,50.42z M48.139,76.538c-1.063,0.057-1.976-0.806-2.049-1.932     c-0.049-0.935-0.102-1.968-0.122-2.256c-0.046-0.599-0.528-1.045-0.528-1.045l-1.776-1.818c-4.501-0.072-8.75-0.348-12.318-0.833     c-14.343-1.948-18.632-0.78-30.551-1.005l-0.195-0.003l-0.761,0.864c0,0-0.457,0.474-0.471,1.072     c-0.008,0.287-0.007,1.323-0.005,2.257c-0.023,1.13-0.889,2.04-1.953,2.04c-1.064,0-1.93-0.91-1.945-2.04     c0.001-0.934,0.003-1.97-0.004-2.257c-0.015-0.6-0.471-1.072-0.471-1.072l-1.352-1.532c-5.227-1.045-5.807-2.91-5.807-2.91     c-1.023-3.277-1.604-7.015-1.604-10.981c0-3.789,0.526-7.367,1.463-10.534c1.822,1.418,4.059,2.672,6.802,3.568     c4.096,1.337,10.339,2.165,11.566,0.249c0.214-0.335,0.746-1.448-0.181-1.563C0.575,44.349-7.888,43.272-7.049,34.62     c0.057-0.589-0.048-1.039-0.294-1.365c0.274-0.294,0.556-0.574,0.843-0.836c0,0,0.684-0.54,1.169-0.533     c0.692,0.009,1.6,0.091,1.686,1.387c0,0,0.09,7.046,11.648,7.227c3.614,0.057,5.856-0.792,7.442-1.934l-8.646-6.281     c-1.3-0.945-1.589-2.766-0.644-4.066l3.283-4.518c0.945-1.301,2.765-1.589,4.065-0.644l14.8,10.753     c0.098-0.003,0.194-0.004,0.294-0.004c2.962,0,5.435,1.273,6.017,2.968c2.593,0.021,4.798,1.017,5.668,2.413     c0.234-0.017,0.475-0.025,0.715-0.025c2.121,0,3.993,0.653,5.101,1.646c2.436,0.065,4.505,0.993,5.398,2.292l0.233,0.071     c0.285-0.025,0.58-0.039,0.877-0.039c2.272,0,4.258,0.75,5.321,1.864c0.132-0.005,0.265-0.008,0.399-0.008     c2.169,0,4.078,0.683,5.171,1.715c4.729,1.399,8.99,2.628,11.984,3.433C87.736,53.422,88.1,60.217,79.55,64.7     c-1.459,0.764-3.404,1.44-5.701,2.024l-1.123,1.844c0,0-0.368,0.545-0.278,1.139c0.044,0.283,0.223,1.305,0.39,2.223     c0.172,1.116-0.522,2.162-1.571,2.348c-1.048,0.187-2.06-0.562-2.271-1.669c-0.157-0.921-0.338-1.941-0.396-2.224     c-0.118-0.59-0.651-0.975-0.651-0.975l-1.564-1.25c-4.563,0.656-9.688,1.076-14.808,1.252l-1.298,1.641     c0,0-0.431,0.494-0.414,1.097c0.006,0.288,0.063,1.321,0.113,2.254C50.019,75.529,49.201,76.484,48.139,76.538L48.139,76.538z"/>
		</g>
	</g>
</g>
<g id="Layer_16" display="none">
	<g display="inline">
		<path d="M30.549,41.405c0.99-0.266,1.575-1.278,1.309-2.263c-0.266-0.99-1.278-1.57-2.259-1.309    c-0.99,0.266-1.574,1.278-1.309,2.263C28.552,41.083,29.564,41.671,30.549,41.405z"/>
		<path d="M41.445,41.405c0.984,0.266,1.998-0.323,2.262-1.309c0.268-0.985-0.32-1.998-1.307-2.263    c-0.982-0.262-1.998,0.318-2.266,1.304C39.875,40.127,40.458,41.139,41.445,41.405z"/>
		<path d="M50.875,44.236c-0.721,0.725-0.721,1.889,0,2.612c0.725,0.725,1.893,0.725,2.615,0c0.717-0.724,0.717-1.888,0-2.612    C52.767,43.512,51.599,43.512,50.875,44.236z"/>
		<path d="M58.582,57.59c0.99-0.263,1.574-1.281,1.309-2.263c-0.264-0.985-1.273-1.572-2.26-1.31    c-0.99,0.267-1.57,1.277-1.313,2.267C56.587,57.273,57.599,57.85,58.582,57.59z"/>
		<path d="M58.585,65.865c-0.986-0.262-1.998,0.322-2.268,1.309c-0.26,0.987,0.32,1.998,1.311,2.264    c0.986,0.267,1.998-0.317,2.26-1.31C60.156,67.148,59.572,66.13,58.585,65.865z"/>
		<path d="M50.875,76.609c-0.721,0.718-0.721,1.891,0,2.61c0.725,0.724,1.893,0.724,2.615,0c0.717-0.721,0.717-1.894,0-2.61    C52.767,75.883,51.599,75.883,50.875,76.609z"/>
		<path d="M41.445,82.055c-0.986,0.26-1.57,1.273-1.311,2.258c0.268,0.992,1.273,1.57,2.266,1.311    c0.984-0.264,1.574-1.275,1.307-2.264C43.443,82.375,42.429,81.789,41.445,82.055z"/>
		<path d="M30.549,82.055c-0.985-0.267-1.997,0.319-2.259,1.305c-0.266,0.986,0.319,2,1.309,2.264    c0.981,0.261,1.994-0.325,2.259-1.311C32.124,83.329,31.539,82.314,30.549,82.055z"/>
		<path d="M18.507,76.609c-0.724,0.718-0.724,1.891,0,2.61c0.719,0.724,1.889,0.724,2.612,0c0.72-0.721,0.72-1.894,0-2.61    C20.396,75.883,19.226,75.883,18.507,76.609z"/>
		<path d="M13.413,65.869c-0.986,0.262-1.575,1.273-1.309,2.259c0.266,0.991,1.278,1.57,2.264,1.31    c0.986-0.266,1.57-1.275,1.309-2.264C15.41,66.188,14.399,65.604,13.413,65.869z"/>
		<path d="M13.413,57.59c0.986,0.26,1.997-0.316,2.264-1.306c0.261-0.988-0.323-2-1.309-2.267c-0.986-0.264-1.998,0.323-2.264,1.31    C11.838,56.309,12.427,57.328,13.413,57.59z"/>
		<path d="M39.531,58.197c-0.225-0.219-0.459-0.405-0.707-0.573l0.021-0.029L21.12,44.236c-0.724-0.724-1.893-0.724-2.612,0    c-0.724,0.725-0.724,1.889,0,2.612l13.358,17.726l0.026-0.024c0.17,0.251,0.358,0.486,0.576,0.706    c1.949,1.948,5.109,1.948,7.063,0C41.47,63.309,41.47,60.146,39.531,58.197z"/>
		<path d="M64.935,37.449l1.861-1.862l0.646,0.646c0.541,0.541,1.418,0.541,1.955,0l2.441-2.438c0.535-0.541,0.535-1.417,0-1.954    l-0.014-0.014l-5.813-5.813h-0.004c-0.537-0.541-1.414-0.541-1.955,0l-2.438,2.438c-0.541,0.541-0.541,1.414,0,1.954l0.633,0.632    l-1.854,1.854c-4.369-3.699-9.586-6.425-15.32-7.838c3.244-2.635,5.314-6.651,5.314-11.162c0-7.95-6.441-14.392-14.393-14.392    c-7.947,0-14.393,6.442-14.393,14.393c0,4.51,2.076,8.527,5.316,11.162c-5.73,1.413-10.947,4.139-15.317,7.838l-1.854-1.854    l0.628-0.632c0.537-0.541,0.537-1.413,0-1.954l-2.442-2.438c-0.537-0.541-1.409-0.541-1.95,0l0,0l-5.814,5.813L0.163,31.84    c-0.545,0.537-0.545,1.413,0,1.954l2.434,2.438c0.541,0.541,1.418,0.541,1.954,0l0.65-0.646l1.863,1.862    c-5.514,6.57-8.838,15.036-8.838,24.278c0,20.864,16.91,37.773,37.771,37.773c20.86,0,37.774-16.909,37.774-37.773    C73.771,52.484,70.453,44.018,64.935,37.449z M26.323,13.893c0-5.342,4.331-9.674,9.674-9.674c5.342,0,9.678,4.332,9.678,9.674    c0,4.188-2.666,7.75-6.381,9.099v-6.181h0.912c0.762,0,1.381-0.619,1.381-1.382v-3.45c0-0.764-0.619-1.382-1.381-1.382h-0.018    h-8.218h-0.004c-0.763,0-1.382,0.619-1.382,1.382v3.45c0,0.763,0.619,1.382,1.382,1.382h0.89v6.233    C29.058,21.739,26.323,18.137,26.323,13.893z M35.997,90.277c-15.719,0-28.459-12.743-28.459-28.465    c0-15.713,12.74-28.458,28.459-28.458c15.715,0,28.458,12.745,28.458,28.458C64.455,77.534,51.712,90.277,35.997,90.277z"/>
	</g>
</g>
<g id="Layer_17" display="none">
	<g display="inline">
		<path d="M58.661,25.812c0.066,0.263,0.462,0.263,1.349-0.212c1.492-0.766,2.787-1.994,4.067-3.039    c1.27-1.043,2.656-2.073,3.688-3.369c0.911-1.188,0.395-2.205-1.045-1.836c-1.876,0.477-3.949,2.881-5.271,4.162    C60.959,21.979,58.436,25.058,58.661,25.812z"/>
		<path d="M9.408,36.459c0-0.106-4.387-2.853-5.575-3.434c-1.507-0.754-5.219-3.568-6.804-1.929    c-1.031,1.083,0.462,1.994,1.348,2.734C-0.673,34.623,9.289,38.468,9.408,36.459z"/>
		<path d="M68.914,57.917c-0.039,0.08-0.054,0.17-0.066,0.252c-0.542,2.205,8.008,5.414,9.579,6.459    c2.021,1.32,5.721,1.203,4.398-2.152C81.689,59.634,69.574,56.938,68.914,57.917z"/>
		<path d="M53.785,69.214c0.371,2.562,1.798,5.27,3.423,7.516c1.995,2.724,6.646,7.188,5.614,11.019    c-1.004,3.713-4.82,1.348-6.301-0.633c-2.551-3.449-2.829-7.968-4.942-11.625c-1.017-1.771-2.417-3.066-4.28-3.927    c-3.699-1.666-7.677-2.733-9.882,1.588c-1.77,3.461-1.44,8.31-4.096,11.349c-1.281,1.453-4.082,2.352-5.152,0.156    c-1.413-2.865,1.189-7.238,0.503-10.386c-1.718-7.791-11.997,4.031-14.07,5.498c-5.827,4.082-3.224-3.463-2.114-6.367    c1.505-3.963,7.98-11.295,6.5-15.143c-0.674-1.729-4.188-1.229-5.55-1.123c-1.691,0.121-3.316,0.648-5.021,0.621    c-0.792,0-1.505,0.016-1.81-0.791c-0.344-0.887,0.595-1.812,0.12-2.67c-0.476-0.873-1.917-0.937-2.762-1.082    c-2.259-0.357-4.717-0.346-6.976,0c-1.836,0.275-3.738,1.203-5.627,1.043c-2.55-0.197-2.788-3.463-0.859-4.834    c1.137-0.82,3.185-1.006,4.532-0.833c6.5,1.294,19.145,3.607,23.068-3.437c2.788-4.979-1.467-4.069-4.016-5.615    c-2.273-1.387-2.921-2.603-0.385-2.88c2.339-0.263,5.337,0.713,7.742,0.806c1.823,0.066,2.788-1.532,3.409-3.025    c1.546-3.778,1.137-8.508-1.097-11.917c-1.756-2.682-4.385-4.769-5.296-7.993c-0.793-2.813,0.342-5.562,3.686-4.941    c6.448,1.176,4.743,9.525,5.998,14.083c2.259,8.257,9.419,0.846,13.924-4.36c1.031-1.188,2.775-2.959,4.439-3.197    c1.771-0.277,3.501,1.427,3.118,3.329c-0.463,2.22-3.687,3.224-4.559,5.22c-0.951,2.206,1.029,4.122,3.302,4.175    c2.473,0.065,4.679-1.705,7.097-2.008c4.703-0.582,2.602,5.707,4.002,8.56c2.272,4.599,7.241,0.397,10.214-1.083    c1.586-0.806,4.505-2.298,6.234-1.031c1.521,1.098,0.966,2.829-0.289,3.898c-2.075,1.784-5.206,1.4-7.757,1.758    c-3.698,0.501-8.06,1.862-9.751,5.548c-1.147,2.524-0.54,6.158,1.521,8.06c1.757,1.588,4.558,1.428,6.183,3.104    c3.171,3.248-2.352,5.049-4.756,5.814C57.061,62.701,53.019,63.979,53.785,69.214z"/>
	</g>
</g>
<g id="Parking_Meter_2" display="none">
	<g display="inline">
		<path d="M36.781-0.5C19.906-0.5,6.226,13.18,6.226,30.055c0,8.828,3.747,16.775,9.733,22.354l1.377,16.536l12.5,15.275V99.5h13.89    V84.223l12.5-15.277l1.377-16.536c5.986-5.579,9.734-13.526,9.734-22.354C67.337,13.18,53.658-0.5,36.781-0.5z M29.836,52.277    h-8.333V37h8.333V52.277z M47.892,53.949v6.662h-4.166v-6.663c-2.034-0.823-3.473-2.813-3.473-5.143    c0-2.331,1.438-4.318,3.473-5.143V37h4.166v6.662c2.035,0.825,3.473,2.813,3.473,5.144C51.365,51.137,49.927,53.125,47.892,53.949    z M38.171,30.055v-2.777h4.166l-5.556-9.723l-5.555,9.723h4.167v2.777H13.17c0-13.039,10.572-23.61,23.611-23.61    c13.041,0,23.609,10.571,23.609,23.61H38.171z"/>
		<rect x="24.628" y="38.389" width="2.083" height="12.5"/>
		<rect x="35.393" y="10.611" width="2.778" height="4.167"/>
		<rect x="26.017" y="13.628" transform="matrix(-0.4994 -0.8664 0.8664 -0.4994 29.1216 46.862)" width="4.167" height="2.777"/>
		<rect x="19.66" y="19.986" transform="matrix(-0.866 -0.5001 0.5001 -0.866 29.8822 50.757)" width="4.165" height="2.778"/>
		<rect x="44.07" y="12.932" transform="matrix(-0.8661 -0.4998 0.4998 -0.8661 77.3268 50.7449)" width="2.778" height="4.169"/>
		<rect x="50.428" y="19.29" transform="matrix(-0.4998 -0.8661 0.8661 -0.4998 59.2055 76.936)" width="2.778" height="4.167"/>
	</g>
</g>
<g id="Parking_Meter_1" display="none">
	<g display="inline">
		<path d="M44.683,22.206c0,1.317-1.066,2.385-2.385,2.385H30.372c-1.317,0-2.385-1.068-2.385-2.385v-5.301    c0-1.317,1.068-2.384,2.385-2.384h11.926c1.316,0,2.385,1.067,2.385,2.384V22.206z"/>
		<path d="M64.445,27.609c0-15.5-12.609-28.109-28.109-28.109c-15.501,0-28.11,12.609-28.11,28.109l10.975,32.954    c-1.68,2.908-2.646,6.279-2.646,9.881c0,8.304,5.12,15.408,12.373,18.342V99.5h14.817V88.783    c7.252-2.934,12.371-10.036,12.371-18.34c0-3.602-0.965-6.973-2.646-9.879L64.445,27.609z M47.779,50.029H36.336V37.685h11.443    V50.029L47.779,50.029z M36.336,27.609H18.042c0-10.087,8.207-18.294,18.294-18.294c10.085,0,18.292,8.207,18.292,18.294H36.336z"/>
		<rect x="41.149" y="38.986" width="1.815" height="9.741"/>
	</g>
</g>
<g id="Subway" display="none">
	<g id="Layer_31" display="inline">
		<g>
			<rect x="-5.774" y="-0.5" width="83.334" height="12.5"/>
			<g>
				<path d="M32.101,38.551h3.793h3.792c0.721,0.002,1.285-0.588,1.285-1.287v-2.19c0-0.701-0.598-1.276-1.285-1.287h-3.792h-3.793      c-0.688,0.011-1.283,0.586-1.283,1.287v2.19C30.819,37.962,31.382,38.553,32.101,38.551z"/>
				<path d="M49.177,48.982V43.97c-0.012-2.09-1.363-3.913-3.918-3.917h-9.366h-9.368c-2.552,0.004-3.903,1.827-3.917,3.917v5.012      c-0.005,2.428,1.757,3.905,3.917,3.917h9.368h9.366C47.423,52.889,49.185,51.41,49.177,48.982z"/>
				<path d="M26.087,64.18c-1.885-0.011-3.421,1.523-3.416,3.414c-0.005,1.897,1.531,3.432,3.416,3.446      c1.9-0.017,3.438-1.549,3.443-3.446C29.523,65.703,27.988,64.169,26.087,64.18z"/>
				<path d="M35.894,16.167c-23.013,0-41.667,18.655-41.667,41.666c0,23.012,18.655,41.667,41.667,41.667      c23.012,0,41.667-18.655,41.667-41.667C77.56,34.822,58.906,16.167,35.894,16.167z M38.777,27.051      c1.189-0.012,2.162,0.957,2.162,2.163c0,1.188-0.973,2.156-2.162,2.162c-1.201-0.005-2.169-0.974-2.162-2.162      C36.607,28.008,37.576,27.038,38.777,27.051z M33.01,27.051c1.203-0.013,2.172,0.957,2.163,2.163      c0.009,1.188-0.96,2.156-2.163,2.162c-1.188-0.005-2.159-0.974-2.161-2.162C30.851,28.008,31.822,27.038,33.01,27.051z       M51.181,88.617l-6.451-9.465h-8.836h-8.836l-6.423,9.465h-5.199l8.992-13.506c-2.998-0.498-5.99-3.631-5.984-7.454V39.74      c-0.006-3.938,3.312-7.555,7.83-7.55h9.651h9.617c4.492-0.005,7.811,3.613,7.803,7.55v27.917      c0.008,3.823-2.984,6.956-5.984,7.454l8.992,13.506H51.181z"/>
				<path d="M49.052,67.594c-0.01-1.891-1.543-3.425-3.447-3.414c-1.887-0.009-3.418,1.523-3.412,3.414      c-0.006,1.897,1.525,3.432,3.412,3.446C47.509,71.023,49.042,69.491,49.052,67.594z"/>
			</g>
		</g>
	</g>
</g>
<g id="Protest" display="none">
	<g display="inline">
		<path d="M38.705,38.865c-0.168,0.449-0.276,0.91-0.324,1.379c-0.053,0.518-0.038,1.039,0.058,1.555    c0.058,0.309,0.131,0.617,0.241,0.918c0.515,1.392,1.539,2.499,2.889,3.119c0.732,0.338,1.514,0.508,2.314,0.508    c0.996,0,1.949-0.279,2.781-0.764c0.449-0.262,0.863-0.584,1.227-0.964c0.324-0.339,0.605-0.725,0.84-1.145    c0.066-0.121,0.143-0.237,0.199-0.365c0,0,11.078-24.098,11.104-24.147c0.021-0.052,0.334-0.974,0.398-1.345    c0.436-2.428-0.781-4.941-3.127-6.021c-0.73-0.338-1.512-0.508-2.313-0.508c-1.688,0-3.258,0.78-4.299,2.052    c-0.293,0.359-0.553,0.75-0.748,1.183c0-0.004,0.002-0.008,0.004-0.011l-0.006,0.012c-0.002,0.001-0.002,0.004-0.004,0.006    L38.842,38.47C38.785,38.599,38.753,38.733,38.705,38.865z"/>
		<path d="M43.703,12.33c0.234,0.236,0.387,0.544,0.5,0.881c0.262,0.799,0.219,1.822,0,2.859c-0.111,0.529-0.262,1.054-0.441,1.551    c-0.068,0.191-0.137,0.384-0.215,0.564c-0.113,0.275-0.262,0.595-0.434,0.933c-1.504,2.975-5.373,7.975-14.463,8.285    c-0.005,0-0.012,0.001-0.017,0.001l-3.787,7.886c2.366,0.559,6.577,1.881,10.227,4.73l12.344-26.859    c0.203-0.438,0.32-0.889,0.402-1.344c0.432-2.431-0.783-4.945-3.127-6.022c-0.734-0.336-1.516-0.508-2.314-0.508    c-1.688,0-3.256,0.779-4.297,2.052c-0.297,0.359-0.555,0.751-0.754,1.184c0.002-0.004,0.002-0.006,0.006-0.01l-0.006,0.01    L37.324,8.53l-1.56,3.395h7.532L43.703,12.33z"/>
		<path d="M29.087,11.924h1.352h2.268l2.087-4.549c0.2-0.438,0.319-0.89,0.399-1.344c0.433-2.429-0.782-4.943-3.126-6.021    c-0.736-0.336-1.514-0.51-2.314-0.51c-1.688,0-3.258,0.781-4.299,2.053c-0.293,0.359-0.552,0.751-0.751,1.185    c0,0.002-0.004,0.004-0.004,0.006l-4.213,9.18H25.1H29.087z"/>
		<polygon points="34.804,7.361 34.807,7.354 34.804,7.361 34.799,7.374   "/>
		<polygon points="58.777,28.34 58.777,28.34 58.777,28.341   "/>
		<polygon points="48.175,44.752 48.177,44.748 48.175,44.749   "/>
		<polygon points="48.179,44.741 48.177,44.745 48.177,44.746   "/>
		<path d="M68.406,32.776c0-0.624-0.348-1.915-0.361-1.927c-0.785-2.115-2.805-3.628-5.191-3.628c-0.5,0-0.979,0.088-1.441,0.213    c-0.803,0.216-1.527,0.607-2.145,1.131c-0.725,0.617-1.281,1.405-1.615,2.315c-0.004,0.012-0.006,0.026-0.012,0.038l-6.939,14.99    h0.002c-0.205,0.447-0.307,0.913-0.332,1.377c-0.008,0.166,0,0.33,0.014,0.492c0.105,1.305,0.889,2.518,2.16,3.103    c0.604,0.279,1.254,0.362,1.889,0.297c0.828-0.086,1.629-0.432,2.242-0.996c0.295-0.271,0.539-0.6,0.732-0.962l3.604-7.787    l2.521,1.163l0.25-0.543l-3.742,8.143l-0.006,0.012c-0.063,0.135-0.137,0.259-0.211,0.386c-0.154,0.278-0.326,0.548-0.518,0.8    c-0.391,0.519-0.859,0.967-1.379,1.342c-1.006,0.733-2.213,1.184-3.494,1.248c-0.111,0.007-0.219,0.021-0.326,0.021h-0.002    c-0.943,0-1.859-0.202-2.723-0.598c-1.293-0.597-2.285-1.566-2.936-2.72c-0.314-0.558-0.537-1.158-0.68-1.782    c-0.053-0.233-0.096-0.466-0.121-0.705c-0.432,0.22-0.873,0.412-1.338,0.555c-0.775,0.238-1.594,0.368-2.426,0.368l0,0    c-0.965,0-1.609-0.172-2.512-0.497c0.512,1.676,0.832,3.527,0.832,5.63v10.526h-2.777V54.255c0-2.521-0.788-4.656-1.598-6.478    c-3.794-8.545-14.629-10.023-15.183-10.092l-1.914-0.24l6.146-12.802h0.875c0.232,0,0.43-0.029,0.652-0.035    c0.538-0.016,1.074-0.033,1.568-0.084c5.297-0.549,8.203-3.018,9.738-5.135c0.134-0.183,0.25-0.367,0.367-0.548    c0.271-0.426,0.498-0.842,0.689-1.248c0.219-0.463,0.389-0.906,0.518-1.313c0.195-0.628,0.297-1.174,0.328-1.578H18.634    c-2.75,0-5.154,1.458-6.5,3.64c-0.314,0.51-0.572,1.056-0.762,1.635l-7.218,15.48l-0.371,0.796    c-0.356,0.882-0.557,1.844-0.557,2.855c0,1.382,0.373,2.675,1.014,3.794l0.781,1.12l17.738,23.492v31.983h33.33V99.5h2.777    l0.002-23.609l8.822-17.957c0.123-0.223,0.242-0.445,0.336-0.687c0.232-0.595,0.367-1.235,0.379-1.908    C68.408,55.305,68.406,32.776,68.406,32.776z"/>
	</g>
</g>
<g id="Tram" display="none">
	<g display="inline">
		<path d="M66.417,72.464c1.535-0.323,2.771-1.456,3.238-2.934h9.643V55.792l-3.801-13.823H36.226h-8.687v-1.675l11.251-7.565    L25.065,23.5l-13.727,9.229l11.251,7.565v1.675H-3.046l-3.8,13.823V69.53h9.641c0.468,1.478,1.705,2.608,3.239,2.934h-19.808    v3.118h100v-3.118H66.417z M68.582,44.366h5.09l3.143,11.426h-8.23V44.366H68.582z M56.148,44.366h10.037v11.426H56.148V44.366z     M64.634,72.464h-7.822c1.09-0.228,2.031-0.856,2.656-1.735h2.508C62.599,71.607,63.542,72.238,64.634,72.464z M43.714,44.366    h10.037v11.426H43.714V44.366z M55.046,72.464h-37.64c1.091-0.228,2.034-0.856,2.658-1.735h16.162h16.163    C53.011,71.607,53.955,72.238,55.046,72.464z M31.135,44.366h10.183v11.426H31.135V44.366z M15.635,32.729l9.43-6.34l9.43,6.34    l-9.43,6.34L15.635,32.729z M18.701,44.366h10.037v11.426H18.701V44.366z M6.267,44.366h10.037v11.426H6.267V44.366z M3.87,55.792    h-8.23l3.141-11.426H3.87V55.792z M10.476,70.729h2.507c0.624,0.879,1.567,1.51,2.658,1.735H7.818    C8.91,72.238,9.852,71.607,10.476,70.729z"/>
	</g>
</g>
<g id="Bus" display="none">
	<g display="inline">
		<path d="M86.226,59.834l-6.945-47.421c0,0-1.586-10.913-12.896-10.913H6.067C-5.242,1.501-6.83,12.414-6.83,12.414l-6.944,47.42    l2.777,15.674l-1.785,2.184v11.11h7.54v9.921h18.254v-9.921h46.427v9.921h18.256v-9.921h7.539v-11.11l-1.787-2.184L86.226,59.834z     M15.491,3.882H56.96v11.11H15.491V3.882z M-4.945,20.549l18.65-1.985h19.643v30.159H-8.516L-4.945,20.549z M12.267,69.161    c0,2.409-1.954,4.364-4.365,4.364c-1.852,0-3.433-1.155-4.067-2.782C3.2,72.37,1.619,73.525-0.233,73.525    c-2.411,0-4.365-1.955-4.365-4.364c0-2.412,1.955-4.366,4.365-4.366c1.852,0,3.433,1.153,4.068,2.781    c0.634-1.628,2.215-2.781,4.067-2.781C10.313,64.794,12.267,66.749,12.267,69.161z M78.089,79.874H-5.639v-1.589h83.729V79.874z     M60.183,69.161c0-2.412,1.953-4.366,4.365-4.366c1.852,0,3.434,1.153,4.068,2.781c0.633-1.628,2.215-2.781,4.064-2.781    c2.412,0,4.365,1.954,4.365,4.366c0,2.409-1.953,4.364-4.365,4.364c-1.852,0-3.432-1.155-4.064-2.782    c-0.637,1.627-2.217,2.782-4.068,2.782C62.136,73.525,60.183,71.57,60.183,69.161z M39.103,48.723V18.564h19.643l18.65,1.985    l3.57,28.174H39.103z"/>
	</g>
</g>
<g id="iPhone" display="none">
	<g display="inline">
		<path d="M54.328-0.5H19.063c-4.328,0-7.837,3.508-7.837,7.836v84.327c0,4.328,3.509,7.837,7.837,7.837h35.265    c4.328,0,7.836-3.509,7.836-7.837V7.336C62.164,3.008,58.656-0.5,54.328-0.5z M32.841,7.815h7.708    c0.575,0,1.043,0.467,1.043,1.044c0,0.576-0.468,1.043-1.043,1.043h-7.708c-0.577,0-1.044-0.467-1.044-1.043    C31.797,8.282,32.264,7.815,32.841,7.815z M28.349,7.415c0.687,0,1.244,0.557,1.244,1.244s-0.557,1.244-1.244,1.244    s-1.244-0.557-1.244-1.244S27.663,7.415,28.349,7.415z M36.695,95.271c-2.705,0-4.898-2.191-4.898-4.896    c0-2.706,2.193-4.898,4.898-4.898c2.705,0,4.897,2.192,4.897,4.898C41.592,93.08,39.4,95.271,36.695,95.271z M58.246,81.989    H15.145V17.011h43.101V81.989z"/>
	</g>
</g>
<g id="iPad" display="none">
	<g display="inline">
		<path d="M70.226-0.5h-68c-2.762,0-5,2.239-5,5v90c0,2.762,2.238,5,5,5h68c2.762,0,5-2.238,5-5v-90    C75.226,1.739,72.988-0.5,70.226-0.5z M36.226,98c-1.38,0-2.5-1.119-2.5-2.5s1.119-2.5,2.5-2.5c1.383,0,2.5,1.119,2.5,2.5    S37.609,98,36.226,98z M67.228,90.463c0,0.572-0.465,1.037-1.033,1.037H6.26c-0.569,0-1.033-0.465-1.033-1.037V8.537    C5.227,7.964,5.691,7.5,6.26,7.5h59.935c0.568,0,1.033,0.464,1.033,1.037V90.463z"/>
	</g>
</g>
<g id="Power" display="none">
	<g display="inline">
		<path d="M-9.774,53.072C-9.79,40.2-4.453,30.462,0.706,24.28l0,0c5.187-6.233,10.224-9.236,10.676-9.516l0,0    c3.368-1.993,7.697-0.849,9.667,2.555l0,0c1.966,3.392,0.851,7.747-2.489,9.75l0,0l0.001,0.001c0,0-0.004,0.001-0.015,0.008l0,0    c-0.009,0.004-0.023,0.014-0.042,0.026l0,0c-0.068,0.042-0.194,0.125-0.367,0.244l0,0c-0.351,0.234-0.897,0.625-1.572,1.162l0,0    c-1.349,1.073-3.203,2.74-5.029,4.945l0,0C7.867,37.922,4.37,44.253,4.355,53.07l0,0c0.003,8.89,3.547,16.883,9.314,22.723l0,0    c5.78,5.83,13.687,9.416,22.48,9.418l0,0c8.793-0.002,16.699-3.588,22.478-9.418l0,0c5.77-5.84,9.313-13.833,9.316-22.723l0,0    c-0.017-8.547-3.294-14.742-6.837-19.194l0,0c-3.373-4.221-6.982-6.572-7.342-6.791l0,0c-0.004-0.003-0.009-0.004-0.012-0.006l0,0    c-0.005-0.003-0.008-0.005-0.011-0.006l0,0c-0.003-0.003-0.007-0.003-0.007-0.003l0,0l0,0c-3.336-2.005-4.452-6.36-2.488-9.752    l0,0c1.972-3.404,6.3-4.548,9.667-2.555l0,0c0.454,0.279,5.491,3.282,10.678,9.516l0,0c5.162,6.183,10.496,15.92,10.481,28.792    l0,0C82.07,78.708,61.509,99.491,36.15,99.5l0,0C10.791,99.491-9.768,78.708-9.774,53.072L-9.774,53.072z"/>
		<path d="M29.085,49.501v-21.43V6.643c0-3.944,3.163-7.143,7.066-7.143l0,0c3.899,0,7.062,3.199,7.062,7.143l0,0v21.428v21.43    h0.002c0,3.94-3.165,7.142-7.064,7.142l0,0C32.248,56.643,29.085,53.441,29.085,49.501L29.085,49.501z"/>
	</g>
</g>
<g id="City" display="none">
	<g display="inline">
		<g>
			<path d="M58.754,67.279c-6.369,0-12.141,2.572-16.33,6.735c4.469,2.974,6.594,8.539,5.17,16.431h34.328     C81.922,77.65,71.549,67.279,58.754,67.279z"/>
			<path d="M33.036,75.885c-8.042,0-14.559,6.521-14.559,14.561h29.117C47.594,82.405,41.074,75.885,33.036,75.885z"/>
		</g>
		<polygon points="68.629,2.434 68.629,-3.305 49.164,-3.305 49.164,2.434 36.606,2.434 36.623,5.116 36.619,5.116 36.619,43.871     42.795,49.928 42.795,8.803 49.444,8.803 49.444,60.647 55.62,60.647 55.62,8.803 62.281,8.803 62.281,60.647 68.457,60.647     68.457,8.803 75.553,8.803 75.553,65.008 81.922,70.559 81.922,2.434   "/>
		<g>
			<path d="M33.032,50.442H3.581L0.316,90.445h11.793c0-11.539,9.388-20.925,20.927-20.925c1.51,0,2.98,0.167,4.4,0.473l0.503-0.497     c1.522-1.512,3.187-2.817,4.95-3.944v-4.903L33.032,50.442z"/>
			<path d="M-18.052,34.912v55.533h17.96H0.26V34.912l-9.233-22.557L-18.052,34.912z M-4.178,43.9c0,2.547-2.063,4.615-4.619,4.615     c-2.55,0-4.614-2.068-4.614-4.615c0-2.55,2.063-4.614,4.614-4.614C-6.242,39.286-4.178,41.351-4.178,43.9z"/>
		</g>
	</g>
</g>
<g id="Afro" display="none">
	<g display="inline">
		<g>
			<path d="M20.298,59.79c-0.356,1.319-0.559,2.823-0.559,4.421c0,2.959,0.689,5.6,1.771,7.338c2.34,1.393,4.307,4.215,5.564,7.881     c2.568-2.232,7.076-2.299,8.313-2.299h2.938h2.939c1.234,0,5.741,0.064,8.312,2.299c1.258-3.666,3.226-6.488,5.564-7.881     c1.08-1.738,1.771-4.379,1.771-7.338c0-1.598-0.201-3.102-0.56-4.421l-0.008-0.027c-0.326-1.338-0.523-2.808-0.523-4.452     c0-1.508,0.155-2.93,0.427-4.187c0.095-0.408,0.149-0.822,0.149-1.262c0-2.861-2.157-5.181-4.818-5.181     c-1.38,0-2.617,0.625-3.51,1.634l-0.124,0.146c-2.258,2.642-5.694,4.328-9.547,4.328h-0.075h-0.076     c-3.851,0-7.288-1.687-9.547-4.328l-0.123-0.146c-0.892-1.009-2.13-1.634-3.511-1.634c-2.66,0-4.816,2.319-4.816,5.181     c0,0.36,0.036,0.703,0.103,1.039c0.306,1.311,0.479,2.812,0.479,4.408c0,1.646-0.197,3.115-0.523,4.453L20.298,59.79     L20.298,59.79z M38.326,81.516H38.18c0,0-1.831,0.004-5.327,0.244c-3.493,0.24-2.991,4.707-2.493,6.682     c0.383,1.512,1.678,3.045,3.059,3.316c2.803,0.371,3.849-0.984,3.849-2.6c0-1.057,0.135-1.686-1.685-2.664     c-0.687-0.357-1.132-0.938-1.089-1.834c1.177,0.195,2.463,0.305,3.809,0.305h0.023h0.024c1.346,0,2.631-0.107,3.809-0.305     c0.044,0.896-0.402,1.477-1.09,1.834c-1.817,0.979-1.682,1.607-1.682,2.664c0,1.615,1.045,2.971,3.847,2.6     c1.381-0.271,2.677-1.807,3.058-3.316c0.499-1.975,1.002-6.439-2.493-6.682c-3.493-0.24-5.326-0.244-5.326-0.244H38.326     L38.326,81.516z M16.105,57.388c-1.035,1.63-1.456,3.95-0.994,6.438c0.604,3.244,2.537,5.877,4.816,6.918L16.105,57.388     L16.105,57.388z M56.777,70.572c2.126-1.139,3.898-3.666,4.468-6.746c0.434-2.318,0.095-4.495-0.793-6.1L56.777,70.572     L56.777,70.572z M-8.633,38.453c0-21.107,21.012-38.217,46.932-38.217S85.23,17.346,85.23,38.453     c0,16.065-12.171,29.813-29.411,35.467l-0.75,2.621c-1.64,6.16-2.461,11.838-3.714,14.512c-1.032,4.363-6.437,8.068-12.889,8.068     l-0.141-0.002l-0.139,0.002c-6.455,0-11.856-3.705-12.891-8.068c-1.252-2.674-2.072-8.352-3.713-14.512l-0.744-2.602     C3.567,68.299-8.633,54.537-8.633,38.453L-8.633,38.453z M25.407,62.953c0.499-0.492,1.988-1.789,4.125-2.088     c2.395-0.332,3.649,1.689,3.873,2.088H25.407L25.407,62.953z M23.452,59.363c1.142-1.392,3.199-2.4,5.605-2.569     c1.941-0.136,3.734,0.303,5.052,1.118l1.409,3.588c-1.684-1.592-4.551-2.71-7.667-2.805     C26.193,58.645,24.687,58.895,23.452,59.363L23.452,59.363z M52.903,59.363c-1.234-0.469-2.739-0.719-4.398-0.668     c-3.115,0.095-5.983,1.213-7.668,2.805l1.409-3.588c1.316-0.815,3.11-1.254,5.053-1.118     C49.704,56.963,51.763,57.972,52.903,59.363L52.903,59.363z M50.948,62.953h-7.997c0.222-0.398,1.479-2.42,3.872-2.088     C48.96,61.164,50.449,62.461,50.948,62.953L50.948,62.953z"/>
		</g>
	</g>
</g>
<g id="Fort" display="none">
	<g display="inline">
		<g id="Layer_3_1_">
		</g>
		<g id="Layer_2_1_">
		</g>
		<g>
			<path d="M72.82,51.818l-1.879-1.98l-1.881,1.98l-1.879-1.98l-1.879,1.98l-1.879-1.98l-1.879,1.98l-1.881-1.98l-0.98,1.034V29.651     c0-0.36-0.357-0.652-0.797-0.652s-0.797,0.292-0.797,0.652v21.433l-1.184-1.245l-1.879,1.979l-1.879-1.98l-1.881,1.98     l-1.879-1.98l-1.879,1.98l-1.879-1.98l-1.879,1.98l-1.879-1.98l-1.881,1.98V37.761l-15.045-9.178L8.924,37.761v14.056     l-1.88-1.979l-1.879,1.979l-1.879-1.979l-1.879,1.98l-1.88-1.98l-1.879,1.98l-1.879-1.98l-1.879,1.98v22.209h82.688V51.818     l-1.879-1.98L72.82,51.818z"/>
			<path d="M76.615,29.451c-2.412,1.052-3.807,0.518-5.553-0.158C69.859,28.827,68.5,28.3,66.63,28.3     c-3.152,0-5.5,1.523-6.541,2.345v10.541c0.508-0.461,3.012-2.559,6.541-2.559c1.74,0,2.982,0.48,4.184,0.945     c1.678,0.651,3.273,1.265,5.773,0.274l-5.104-5.104l5.131-5.13V29.451z"/>
		</g>
	</g>
</g>
<g id="Tag_2" display="none">
	<g display="inline">
		<path d="M-8.743,21.079V40.03l60.135,60.136c2.617,2.615,6.859,2.615,9.477,0l28.426-28.43c2.617-2.615,2.617-6.857,0-9.477    L29.16,2.126h-18.95L-8.743,21.079z M22.656,33.183c-2.617,2.617-6.859,2.617-9.477,0c-2.617-2.617-2.617-6.859,0-9.476    c2.616-2.617,6.857-2.617,9.477,0C25.273,26.324,25.273,30.565,22.656,33.183z"/>
	</g>
</g>
<g id="Tag_1" display="none">
	<g display="inline">
		<path d="M88.469,61.021L28.334,0.888H-9.568V38.79l60.135,60.135c2.617,2.617,6.859,2.617,9.477,0l28.426-28.428    C91.086,67.882,91.086,63.639,88.469,61.021z M12.355,31.944c-2.616-2.617-2.616-6.859,0-9.476s6.858-2.617,9.476,0    s2.617,6.859,0,9.476C19.213,34.561,14.971,34.561,12.355,31.944z"/>
	</g>
</g>
<g id="Butterfly" display="none">
	<g display="inline">
		<path d="M85.857,20.961c-0.105-1.276-1.928-2.346-2.781-2.595c-14.996-4.363-38.959,22.41-44.396,28.775l0.016-0.263    c0.012-0.101,0.018-0.203,0.018-0.307c0-1.559-1.264-2.822-2.822-2.822c-1.559,0-2.821,1.263-2.821,2.822    c0,0.104,0.007,0.206,0.018,0.307l0.016,0.263C27.664,40.776,3.7,14.003-11.296,18.366c-0.854,0.249-2.677,1.318-2.78,2.595    c-0.248,3.08,0.861,5.627,2.882,7.614c8.012,7.875,5.438,15.677,7.683,20.727c1.318,2.966,11.071,3.666,8.898,4.448    c-20.597,7.414,4.119,35.261,15.652,28.341c4.379-2.627,11.979-15.557,13.053-17.407l0.52,9.156c0,0.706,0.572,1.278,1.277,1.278    c0.707,0,1.279-0.572,1.279-1.278l0.519-9.156c1.072,1.851,8.674,14.78,13.053,17.407c11.535,6.92,36.25-20.927,15.654-28.341    c-2.176-0.782,7.578-1.482,8.896-4.448c2.244-5.05-0.33-12.853,7.682-20.727C84.994,26.588,86.105,24.04,85.857,20.961z"/>
	</g>
</g>
<g id="Bear" display="none">
	<g display="inline">
		<path d="M6.344,20.093c0,0-2.713-4.171-4.833-3.525c-2.333,0.71-1.137,5.351-1.137,5.351c-4.348,0.754-6.248,7.257-14.025,7.775    c-2.854,0.19-0.239,7.377,7.543,8.941c10.818,2.175,18.603,7.619,19.69,11.021c0.651,2.038,6.502,22.364,4.017,26.057    c0,0-4.677,1.088-2.448,5.443c0.586,1.146,10.262,0.785,10.852-1.378c0.233-0.857,2.553-8.252,2.553-8.252    c2.104,2.418,2.031,5.195,0.319,7.213c-1.397,1.646,1.72,4.905,6.135,3.477c5.297-1.714,5.565-16.114,5.565-21.813    c0,0,9.972,3.696,20.335,1.877c0,0,1.292,12.526,0.705,13.335c-0.607,0.837-4.277,2.695-1.861,5.675    c1.661,2.049,6.268,1.563,7.709,0.28c3.077-2.736,6.441-15.158,6.441-15.158s3.024,9.582,2.511,10.094    c-3.21,3.188-1.162,6.313,2.101,6.313c0,0,5.479,0.927,6.712-4.01c0,0-1.389-25.691-0.437-30.988    c2.229-12.41-23.119-18.168-26.654-18.509c-6.048-0.584-20.315-0.616-22.051-1.197c-1.59-0.533-5.487-2.761-8.175-3.272    c-2.176-0.414-5.349,0.502-7.098,0.202c-1.994-0.342-7.55-2.912-7.55-2.912s0.271-3.868-2.288-4.555    C9.26,17.115,6.344,20.093,6.344,20.093z"/>
	</g>
</g>
<g id="Moose" display="none">
	<g display="inline">
		<path d="M84.712,69.725c-0.723-1.326-1.719-2.535-2.928-3.5c-0.361-0.302-0.754-0.604-1.176-0.936    c-0.302-0.211-0.544-0.482-0.693-0.814c-0.694-1.269-1.269-2.656-1.631-4.104c-0.422-1.688-0.754-3.438-0.904-5.222l-0.182-1.658    l-0.091-0.936l-0.03-0.424c0-0.029,0-0.029,0-0.061c0-0.693-0.119-1.389-0.361-2.051c-0.361-0.906-1.086-1.57-1.991-1.871    c-0.181-0.061-0.362-0.091-0.543-0.091c-0.151,0-0.271,0-0.394,0.03c-0.09,0.03-0.24,0.061-0.422,0.091l-0.664,0.15l-0.453,0.121    l-0.451,0.121l-0.694,0.121l-0.724,0.211l-0.814,0.182l-0.725,0.211l-0.424,0.151c-0.211,0.121-0.422,0.181-0.633,0.241    c-0.121,0.031-0.211,0.031-0.303,0.031c-0.754-0.151-1.268-0.845-1.207-1.6c0.03-0.513,0.061-1.056,0.061-1.569    c0-0.845-0.061-1.66-0.149-2.475l-0.062-0.513c0.182-0.03,0.303-0.121,0.453-0.241c0.725-0.785,1.146-1.811,1.146-2.896    c0-0.061,0-0.151,0-0.211c-0.029-0.634-0.241-1.268-0.603-1.78c-0.996-1.479-2.385-2.716-3.983-3.53L61.9,34.269l-0.664-0.302    l-0.662-0.241L60,33.484l-0.635-0.241l-0.693-0.271c-0.301-0.09-0.604-0.181-0.936-0.271c-0.936-0.211-1.871-0.332-2.775-0.392    c-0.725-0.03-1.448-0.061-2.172-0.061c0,0-0.031,0-0.062,0c-1.146,0-2.323,0-3.501-0.03c-0.332-0.03-0.633-0.03-0.936-0.03    c-0.936,0-1.871,0.061-2.807,0.121c-0.271,0.03-0.514,0.03-0.755,0.03c-0.905-0.03-1.812-0.121-2.687-0.302    c-0.692-0.121-1.328-0.302-1.99-0.543c-0.424-0.181-0.905-0.332-1.389-0.483c-0.332-0.091-0.633-0.211-0.905-0.362    c-0.331-0.182-0.663-0.333-1.025-0.483c-0.513-0.181-0.996-0.422-1.479-0.725c-0.483-0.271-1.026-0.573-1.569-0.845    s-1.086-0.543-1.629-0.875c-0.604-0.332-1.237-0.604-1.871-0.785c-1.238-0.362-2.505-0.543-3.802-0.573c-0.091,0-0.181,0-0.271,0    c-1.569,0-3.138,0.181-4.677,0.513c-1.509,0.302-2.987,0.694-4.436,1.116l-1.237,0.393l-0.483,0.121l0.181-0.272l0.422-0.513    l0.362-0.422l0.543-0.573l0.513-0.483l0.694-0.604l1.117-0.965l0.965-0.875l0.785-0.815l0.966-1.237    c0.271-0.453,0.482-0.905,0.694-1.418c0.211-0.573,0.332-1.207,0.362-1.841c0-0.06,0-0.09,0-0.151c0-0.573-0.091-1.177-0.211-1.75    c0-0.06-0.03-0.09-0.091-0.09h-0.06c-0.664,1.268-1.449,2.535-2.293,3.742c-0.422,0.634-0.935,1.177-1.539,1.569l-0.452,0.302    c0.301-0.996,0.452-2.021,0.452-3.047l0.03-0.664l-0.06-0.905l-0.061-0.513c-0.061-0.151-0.211-0.272-0.362-0.272    c-0.181,0-0.332,0.121-0.393,0.272l-0.121,0.513l-0.271,0.694l-0.332,0.875l-0.241,0.573l-0.422,0.845    c-0.151,0.362-0.393,0.694-0.694,0.936c-0.482,0.42-1.236,0.058-1.236-0.576c0,0,0-0.061,0-0.09l0.272-2.052    c0.06-0.211,0.09-0.422,0.121-0.634v-0.03c0-0.09-0.061-0.151-0.151-0.181c-0.061-0.03-0.091-0.03-0.151-0.03    c-0.091,0-0.211,0.03-0.302,0.09l-0.996,0.815l-0.754,0.724l-0.694,0.694l-1.509,1.72c-0.332,0.302-0.845,0.121-0.905-0.332    L9.306,20.63l-0.121-0.936l-0.061-0.936l-0.06-0.995L9.003,17.37c-0.03-0.09-0.09-0.151-0.181-0.151    c-0.151,0-0.302,0.091-0.392,0.211c-0.724,0.936-1.358,1.961-1.871,3.078c-0.15,0.332-0.392,0.664-0.633,0.935    c-0.302,0.302-0.815,0.182-0.936-0.211c-0.121-0.392-0.241-0.754-0.362-1.146c-0.15-0.453-0.181-0.785-0.09-1.117    c0.09-0.453,0.121-0.905,0.121-1.358c0-0.271,0-0.543-0.03-0.815l-0.121-0.875c0-0.24-0.211-0.421-0.453-0.421    c-0.151,0-0.271,0.061-0.362,0.181c-0.302,0.362-0.543,0.755-0.754,1.177c-0.423,0.814-0.634,1.72-0.694,2.625l-0.03,0.543    c-0.814-0.905-1.509-1.871-2.021-2.957l-0.121-0.242l-0.543,3.108l-0.211-0.483L-0.863,19l-0.302-0.664l-0.573-1.116l-0.754-1.146    c-0.121-0.121-0.242-0.242-0.393-0.362C-3.036,15.561-3.217,15.5-3.428,15.5c-0.453,0-0.814,0.362-0.814,0.815    c0,0.121,0,0.241,0.03,0.362c0.03,0.664,0.151,1.357,0.393,1.992l0.241,0.693l0.393,0.845c0.03,0.03,0.06,0.061,0.06,0.121    c-0.03,0.211-0.211,0.332-0.392,0.302l-0.122-0.03l-0.272-0.09l-0.241-0.151l-0.453-0.271l-1.569-1.299l-0.211-0.181l-0.302-0.241    l-0.212-0.211l-0.181-0.212l-0.331-0.332c0-0.03-0.03-0.03-0.061-0.06c-0.031-0.03-0.06-0.03-0.121-0.03s-0.121,0.03-0.151,0.121    c-0.03,0.09-0.03,0.151-0.03,0.241c0,0.091,0,0.181,0.03,0.272c0.182,0.724,0.393,1.448,0.695,2.112l0.483,1.237l0.151,0.392    l0.03,0.151c0,0.03,0,0.03,0,0.03c0,0.09-0.061,0.151-0.121,0.211c-0.15,0.06-0.301,0.06-0.392-0.03l-0.543-0.271l-0.604-0.392    l-0.604-0.393l-0.664-0.422l-1.056-0.815l-1.327-1.147l-1.117-1.086c-0.09-0.061-0.15-0.09-0.272-0.121    c-0.03,0-0.06-0.03-0.09-0.03c-0.09,0-0.181,0.061-0.241,0.151c-0.061,0.061-0.09,0.15-0.09,0.241c0,0.06,0.03,0.121,0.03,0.151    c0.694,1.599,1.66,3.048,2.836,4.254c0.573,0.574,1.146,1.117,1.78,1.6c0.725,0.573,1.509,1.117,2.324,1.569    c0.241,0.15,0.482,0.301,0.754,0.453c0.362,0.241,0.724,0.482,1.056,0.754c0.362,0.271,0.664,0.604,0.936,0.936l0.241,0.332    c-1.72,0.09-3.47,0.332-5.19,0.724c-1.418,0.333-2.746,0.875-3.953,1.69c-1.117,0.754-1.871,1.931-2.052,3.259    c-0.03,0.06-0.03,0.15-0.03,0.241c0,0.814,0.513,1.539,1.268,1.781c0.09,0.03,0.181,0.06,0.241,0.06    c0.181,0,0.332-0.06,0.453-0.151l0.121-0.09c0.151,0.604,0.543,1.086,1.056,1.388c0.604,0.332,1.267,0.513,1.931,0.513    c0.091,0,0.181,0,0.271,0c0.724-0.03,1.388-0.121,2.082-0.181c0.634-0.09,1.268-0.181,1.901-0.302    c0.362-0.061,0.725-0.09,1.117-0.061c0.392,0.061,0.754,0.242,1.026,0.543c0.211,0.181,0.362,0.422,0.513,0.694    c0.271,0.453,0.543,0.875,0.845,1.267c0.815,1.117,1.901,2.052,3.108,2.716c0.664,0.362,1.328,0.694,2.022,0.966    c0.694,0.301,1.448,0.542,2.233,0.693c1.388,0.332,2.716,0.543,4.043,0.785c0.785,0.121,1.599,0.332,2.384,0.634    c0.664,0.271,1.297,0.633,1.871,1.086c0.694,0.694,1.116,1.6,1.116,2.595c0,0.03,0,0.061,0,0.061l-0.06,1.448    c0,0.061,0,0.121,0,0.183c0,0.845,0.211,1.658,0.604,2.383c0.09,0.212,0.181,0.393,0.271,0.574c0.03,0.149,0.09,0.271,0.121,0.422    c0.09,0.361,0.121,0.725,0.121,1.117c0,0.211-0.03,0.451-0.06,0.664c-0.061,0.541-0.151,1.115-0.302,1.688    c-0.09,0.513-0.271,0.966-0.543,1.418c-0.392,0.694-0.875,1.388-1.358,2.052l-2.143,2.957l-0.814,1.146l-1.298,1.871l-1.176,1.689    l-1.177,1.721l-1.569,2.504c-0.483,0.846-1.056,1.601-1.69,2.323c-0.694,0.784-1.328,1.599-1.961,2.414    c-0.634,0.814-1.358,1.509-2.172,2.052l-0.996,0.635l-1.116,0.634l-1.207,0.634l-0.271,0.211c-0.061,0-0.091,0.03-0.121,0.061    c-0.09,0.061-0.15,0.15-0.15,0.242c0,0.028,0,0.061,0,0.09c0.06,0.211,0.241,0.393,0.453,0.453    C-3.394,82.641-3.032,82.7-2.64,82.7c0.06,0,0.121,0,0.181,0c1.328-0.06,2.414-0.12,3.53-0.211    c0.814-0.062,1.78-0.302,2.655-0.724c0.302-0.121,0.574-0.303,0.875-0.483c0.332-0.241,0.664-0.543,0.905-0.875    c0.181-0.271,0.393-0.513,0.604-0.755c1.207-1.6,2.354-3.229,3.5-4.889c0.513-0.783,1.207-1.689,1.931-2.535    c1.147-1.326,2.203-2.686,3.259-4.043c1.268-1.66,2.656-3.289,4.074-4.828c0.362-0.393,0.754-0.844,1.177-1.327    c0.242-0.271,0.604-0.634,0.936-0.935c0.513-0.484,0.905-1.088,1.117-1.781c0.211-0.633,0.453-1.207,0.664-1.78    c1.237-2.896,5.462-2.563,6.216,0.513l0.211,0.875l0.151,0.664l0.151,0.876l0.091,0.481c0.302,1.299,0.573,2.596,0.785,3.894    c0.061,0.302,0.15,0.664,0.211,1.026c0.061,0.33,0.151,0.633,0.272,0.936c0.392,0.936,0.845,1.84,1.388,2.686    c0.422,0.664,0.965,1.236,1.569,1.75l2.504,1.932l1.509,1.298l0.693,0.663L37.127,75.7l-0.846,0.393l-0.753,0.331    c-0.544,0.182-1.177,0.362-1.811,0.574c-0.543,0.182-0.905,0.331-1.297,0.513c-0.483,0.212-0.905,0.544-1.237,0.937    c-0.121,0.15-0.211,0.332-0.211,0.513c0.03,0.604,0.272,1.207,0.664,1.63c0.302,0.331,0.724,0.573,1.146,0.663    c0.543,0.151,1.086,0.212,1.63,0.212c0.12,0,0.271,0,0.422,0c1.328-0.091,2.595-0.482,3.772-1.178l2.866-1.75l0.302-0.211    c1.269,1.025,2.565,1.931,3.923,2.746c0.875,0.513,1.78,0.935,2.746,1.268c0.604,0.211,1.268,0.361,1.901,0.393l0.392,0.029    c0.03-0.15,0.03-0.332,0.03-0.481c0-0.241-0.03-0.513-0.06-0.755c-0.092-0.452-0.242-0.875-0.424-1.269    c-0.15-0.301-0.332-0.603-0.543-0.875c-0.332-0.452-0.725-0.905-1.117-1.327l-0.451-0.482l-0.543-0.542l-0.694-0.544l-0.604-0.453    l-0.482-0.393l-0.543-0.302l-0.482-0.241c0.756-0.785,1.569-1.539,2.414-2.232c1.721-1.418,2.987-2.444,4.285-3.471    c0.604-0.513,1.659-1.629,2.504-2.867c0.332-0.451,0.514-1.024,0.544-1.598l0.029-0.424l0.091-0.995    c0.271-2.354,0.967-4.646,2.021-6.76l0.182-0.362c1.116,2.053,3.229,3.381,5.552,3.44c0.062,0,0.151,0,0.212,0    c1.6,0,3.139-0.483,4.405-1.448l1.297-0.936l1.058-0.725l1.115-0.693c0.121-0.092,0.271-0.121,0.424-0.121    c0.604-0.03,1.176,0.181,1.629,0.543c0.182,0.121,0.332,0.271,0.422,0.453c0.15,0.211,0.242,0.422,0.363,0.662    c0.149,0.332,0.24,0.694,0.301,1.026c0.029,0.332,0.062,0.573,0.092,0.845c0.061,0.332,0.09,0.726,0.15,1.086    c0.061,0.604,0.181,1.179,0.361,1.75c0.15,0.574,0.332,1.147,0.482,1.722c0.361,1.418,0.936,2.776,1.689,4.014    c0.604,0.966,1.268,1.9,2.021,2.745c0.271,0.332,0.634,0.604,0.994,0.875l1.361,0.873c0.994,0.664,2.143,0.996,3.318,0.996    c0,0,0,0,0.029,0c0.453,0,0.814-0.303,0.936-0.725c0.092-0.33,0.121-0.692,0.121-1.024C85.226,71.053,85.044,70.359,84.712,69.725    z M48.535,61.91c-0.271,1.447-0.756,2.896-1.42,4.225c-1.297,2.534-3.138,4.707-5.4,6.396l-0.332-0.271    c-1.297-1.146-2.475-2.384-3.53-3.74l-1.116-1.42c-0.453-0.692-0.814-1.447-1.056-2.231c-0.302-0.966-0.483-1.933-0.543-2.927    c-0.09-1.901-0.03-3.834,0.181-5.765c0.664,0,1.328,0,1.991,0.062c0.543,0.06,1.087,0.119,1.629,0.271    c1.238,0.302,2.535,0.482,3.833,0.482c1.237,0,2.475-0.15,3.682-0.452c0.814-0.182,1.6-0.482,2.323-0.905l0.062,0.724    c0.029,0.545,0.029,1.026,0.029,1.539C48.865,59.254,48.746,60.582,48.535,61.91z"/>
	</g>
</g>
<g id="Crow" display="none">
	<g display="inline">
		<path d="M73.064,13.742C71.61,10.304,56.607,4.753,51.65,26.895l-26.173,19.63l-39.153,23.443l1.961,0.679l5.202-1.518    l-8.261,4.879l2.709,0.938l28.024-8.327c0,0,12.643,1.727,22.494,1.733c-0.463,0.93-0.928,1.857-1.393,2.786    c-0.469,0.939,3.497,10.33,4.962,14.802c-2.47,0.375-4.941,0.751-7.411,1.126c-0.883,0.135-0.506,1.472,0.369,1.338    c2.602-0.395,5.203-0.789,7.805-1.185c2.601,0.396,5.203,0.79,7.803,1.185c0.875,0.134,1.252-1.203,0.369-1.338    c-2.492-0.379-4.983-0.757-7.476-1.136c-0.112-0.385-0.228-0.77-0.341-1.154c-0.441-1.498-0.885-2.994-1.327-4.492    c-0.827-2.799-1.651-5.597-2.479-8.395c-0.006-0.02-0.012-0.032-0.017-0.049c0.3-0.603,9.757-4.912,9.757-4.912    s-0.004,0-0.005-0.001C83.426,54.56,64.501,26.209,71.744,21.806c3.045-1.851,13.482-4.627,13.482-4.627    C85.226,14.02,73.064,13.742,73.064,13.742z"/>
	</g>
</g>
<g id="Deer_2" display="none">
	<g display="inline">
		<path d="M83.863,15.358c-1.807-0.048-2.666,2.372-3.978,2.364c0.136-1.137,0.938-2.282,1.709-3.489    c0.485-0.639,1.422-0.991,1.222-1.96c-0.104-0.493-0.302-0.813-0.646-1.265c-1.602,0.093-4.387,2.339-5.307,2.607    c-3.216,0.931-8.057,3.184-9.041,3.341c-0.693,0.11-3.08,0.19-2.851-0.294c0.483-1.197,1.5-2.336,2.621-3.636    c1.021-1.178,2.512-2.064,2.909-3.395c0.506-1.667,0.554-4.09-1.024-5.854c-0.767-0.708-0.103,1.377,0.073,2.256    c0.463,3.064-1.693,4.765-3.086,5.655c1.094-3.089,0.689-7.387-2.37-9.777c-1.333-0.718,0.94,2.285,1.354,4.884    c0.163,1.545-0.432,3.739-0.963,5.006c-0.619,1.486-1.143,3.519-2.693,3.797c-0.365-2.095,0.926-4.51,0.207-6.815    c-0.617-1.968-1.522-2.825-3.367-3.65c-0.766-0.197-0.668,0.503,0.166,1.294c2.427,2.301,2.173,5.718,0.689,7.848    c-2.836-1.705-2.732-5.727-4.324-8.943c-0.574-1.168-1.42-2.329-2.14-3.159c-0.913-1.07-1.577-2.965-2.371-2.635    c-0.505,0.19,3.72,5.599,3.085,6.094c-0.588,0.636-1.828-2.25-3.255-2.376c-0.817,1.067,7.677,5.993,3.503,9.641    c-0.188-0.443-0.181-0.883-0.654-1.141c-0.731-0.346-0.252,0.969-0.226,1.4c-3.248,0.776-5.021,1.302-7.262-0.861    c-0.574-0.555-1.067-2.067-2.011-1.408c-0.156,0.122,1.019,2.427,2.357,3.641c1.86,1.218,4.785,0.591,7.118,0.889    c0.401,1.418,0.869,3.018,0.739,4.132c-2.545,2.356-8.993,4.499-11.227,3.271c-3.498-2.382-6.497-9.676-8.473-11.007    c-0.119-0.03-0.284,0.08-0.213,0.238c1.953,4.449,4.018,9.36,6.865,12.073c-4.958,0.836-7.761,1.016-10.52-2.321    c-1.794-2.171-3.173-6.682-4.913-6.889c-0.7-0.084,2.092,3.004,1.906,4.741c-0.099,0.936-4.932-5.054-5.021-4.134    c-0.053,0.54,2.151,3.638,3.698,6.021c0.526,0.82,2.431,2.345,2.151,2.572c-3.551,2.2-6.521-3.094-7.316-3.336    c-1.051-0.257,1.719,5.05,4.393,5.59c1.452,0.291,3.329-0.24,5.203-0.083c2.97,0.245,3.505,1.165,6.627,0.896    c2.549-0.218,5.014-1.128,8.09-1.717c1.145-0.219,2.373-0.197,3.57-0.521c2.194-0.596,3.949-2.271,6.143-2.226    c0.303,0.025,0.443-0.016,0.617,0.095c-0.02,0.735-1.076,0.602-0.818,1.567c0.419,0.566,1.004,0.848,1.62,1.184    c0.591,0.321,1.459,0.356,1.789,0.98c-2.882,0.86-5.862,3.214-9.153,3.569c-1.279,0.14-2.98-0.36-4.729,0.003    c-1.256,0.261-2.739,1.358-3.6,1.785c-0.941,0.469-4.567,1.836-5.45,2.102c-3.276,0.98-7.17,2.017-10.919,2.263    c-5.127,0.337-9.562-1.667-14.461-1.674c-3.147-0.004-5.396,0.509-7.551,1.448c-2.378,1.036-4.127,2.296-5.433,4.538    c-1.495,2.57-3.659,7.201-3.599,9.343c0.044,1.542,0.569,3.839,1.31,4.176c0.732,0.322,0.266-1.99,1.408-0.588    c1.245,1.403,1.544,3.495,1.029,5.018c-0.794,2.342-1.198,4.617-2.505,6.156c-1.82,2.139-4.072,3.34-5.465,5.584    c0.334,3.883-0.422,6.847-0.34,10.323c0.102,4.306-0.096,7.675-1.538,10.476c0.435,0.313,1.339,0.086,1.559,0.642    c0.186,1.94,0.124,3.29,0.342,4.879c0.898,1.654,4.457,2.987,5.722,0.687c-1.158-4.344-2.534-8.588-2.451-13.375    c0.056-3.221,1.107-6.83,2.191-9.198c0.406-0.89,0.79-2.466,1.408-2.925c1.446-1.07,2.227-2.463,3.37-3.672    c1.349-1.428,1.749-2.244,3.338-3.213C2.223,66.4,2.432,68.12,2.292,69.784c-0.141,1.692-0.458,3.177-0.767,4.56    c0.687,1.229,1.614,2.125,2.43,2.973c1.062,1.104,1.51,2.234,2.343,3.728c0.469,0.843,1.129,1.651,1.496,2.479    c0.576,1.306,0.88,2.848,1.427,4.172c0.536,1.303,1.1,2.479,1.952,3.562c0.696,0.265,1.807,0.048,2.311,0.537    c0.477,0.718,0.343,1.69,0.731,2.366c1.127,1.96,4.563,1.962,7.044,0.658c-0.53-1.267-1.829-1.635-2.114-3.18    c-1.479-0.563-2.536-1.607-2.892-3.466c-2.522-2.429-5.017-5.301-6.49-8.918c-0.543-1.341-1.251-2.88-1.237-4.181    c0.011-0.995,0.603-2.356,1.08-3.434c0.855-1.931,2.027-3.656,2.849-5.244c0.688-1.326,1.275-2.776,2.185-3.881    c2.057-1.343,3.771,0.463,5.536,0.709c0.734-0.015,0.166-1.131,0.862-1.175c4.357,1.468,10.083,3.194,16.046,2.37    c1.6-0.223,3.106-0.822,4.828-0.908c0.481,2.059,0.955,4.144,1.28,6.319c0.493,3.278,1.255,6.657,1.249,9.964    c-0.01,3.7-0.309,7.357-0.568,10.945c0.367,0.47,1.183,0.455,1.287,1.207c0.059,0.81,0.178,1.673-0.057,2.256    c0.934,0.859,3.301,0.595,4.939,0.158c-0.364-1.346-0.896-2.438-1.399-3.637c0.287-0.457,0.169-0.918,0.153-1.479    c-0.063-2.667-1.256-5.109-0.783-7.726c0.018-0.09,0.305-0.431,0.354-0.584c0.289-0.881,0.416-1.506,0.59-2.25    c0.25-1.043-0.701-6.703-0.584-7.99c0.644,3.015,3.563,11.133,4.135,14.68c0.314,1.975,0.258,3.752,0.506,5.963    c0.252,0.008,0.264,0.594,0.264,0.86c1.049,0.35,1.012,1.614,2.024,1.7c0.768,0.162,3.239,0.095,4.245-0.584    c-0.604-1.543-1.457-2.781-2.038-4.301c-1.032-2.724-1.289-5.979-1.835-9.074c-0.33-1.905-0.396-4.022-0.969-5.959    c-0.281-0.955-1.125-1.725-1.565-2.785c-1.338-3.204-1.298-7.197-1.623-10.495c2.056-0.917,2.53-3.101,4.271-4.257    c0.56-0.049,1.117-0.094,1.676-0.145c0.562-0.275,0.9-0.828,1.631-0.514c0.281-0.569,0.711-1.282,1.587-0.887    c0.116-0.521,0.479-0.838,0.601-1.357c0.725,0.018,0.68,0.146,1.09-0.281c0.026-0.65,0.391-1.031,0.387-1.723    c0.596,0.165,0.418-0.329,0.699-0.436c0.166-0.261,0.121-0.702,0.287-0.966c-0.095-0.485,0.7-0.207,0.5-0.795    c0.308-0.493,0.229-1.318,0.609-1.75c0.324,0.087,0.051,0.893,0.436,0.906c0.494-1.622,0.967-2.902,2.299-3.796    c0.228-3.732,2.772-5.96,3.115-9.596c1.441-2.084,4.157-2.847,5.314-5.131c0.406-0.807,0.607-1.657,0.857-2.051    c1.67-2.644,3.459-5.921,5.389-8.313c0.691-0.281,1.333-0.925,1.543-1.629C84.154,17.339,84.521,15.807,83.863,15.358z     M54.453,15.28c1.486,0.653,3.196,0.488,4.103,2.271C57.018,19.628,55.164,18.064,54.453,15.28z"/>
	</g>
</g>
<g id="Deer_1" display="none">
	<g display="inline">
		<path d="M59.433,85.182c-0.303-0.303-0.423-0.728,0.061-1.149c0.483-0.426,1.754-0.79,2.299-1.095    c0.543-0.303,0.484-0.183,1.15,0.181c0.666,0.362,2.149,1.051,2.906,0.116c0.785-0.97,3.021-1.82,4.053-1.822    c1.029-0.001,2.602-0.547,3.631-1.156c1.028-0.606,3.269-1.337,4.719-2.247c1.451-0.91,0.664-1.211-0.787-1.087    c-1.453,0.121-6.355,0.917-10.049,1.407c-4.334,0.572-5.092-0.238-7.024-1.686c-0.972-0.726-1.213-0.967-2.483-0.722    c-8.873,1.703-17.42,1.173-28.335-1.471c-2.841,3.396-11.817,5.861-19.181,7.416c-4.076,0.859-4.504,1.844-7.015,4.249    c-1.33,1.272-5.621,6.606-6.797,8.061c-0.527,0.65-1.633,1.396-2.299,1.578c-0.667,0.183-1.876,0.699-2.269,1.155    c-0.381,0.438-3.267,1.729-3.991,2.154c-0.602,0.351-1.095,0.227-1.395-0.181c-0.424-0.573,0.542-2.302,1.086-2.938    c0.448-0.524,1.724-1.184,2.813-1.153c1.089,0.028,1.724-0.336,1.907-1.093c0.177-0.759,0.601-1.184,1.873-1.608    c1.271-0.426,4.745-4.033,5.138-5.396c-1.029,0.699-5.352,4.431-5.743,5.247c-0.392,0.816-1.632,1.456-2.663,1.607    c-0.827,0.123-3.932,1.49-4.749,2.036c-0.495,0.33-1.061,0.147-1.061-0.572c-0.001-0.908,0.34-1.648,1.328-2.726    c0.694-0.76,2.531-1.323,3.055-0.976c0.701,0.465,0.82,0.369,1.241-0.638c0.633-1.515,2.904-2.031,3.296-2.366    c2.983-2.532,5.29-4.761,6.557-7.003c0.327-0.574,0.514-1.151,0.815-1.515c0.302-0.363,0.456-0.272,0.695-0.97    c0.415-1.198,0.773-1.425,2.057-1.427c8.052-0.012,10.847-2.805,11.433-5.769c1.237-6.239,2.587-10.658,5.55-12.603    c0.635-0.415,0.666-0.546-0.001-0.906c-3.883-2.11-4.063-4.537-1.467-9.08c0.667-1.163,1.271-1.032,1.15-0.123    c-0.119,0.909-0.055,3.511,0.371,4.841c0.426,1.331,1.7,3.147,3.697,2.961c1.998-0.185,6.84-0.554,9.384-0.315    c2.543,0.237,12.17,0.525,15.983,0.035c6.758-0.87,10.951-3.104,9.854-8.854c-0.535-2.799-1.831-9.623-1.533-12.589    c0.078-0.788-0.061-0.789-0.456-1.393c-0.608-0.934-1.071-0.721-1.454-1.087c-0.727-0.695-1.91-2.176-2.578-3.326    c-0.613-1.054,0.209-1.67,0.543-1.513c0.516,0.24,0.635,0.18,0.635-0.183c-2.545-2.447-4.038-5.319-5.248-8.074    c-0.852-1.937-3.883-5.08-4.461-5.866c-0.574-0.786-0.848-1.299-0.879-1.966c-0.031-0.665,0.847-0.727,0.877-0.121    c0.031,0.604,0.457,1.179,1.123,1.814c0.668,0.634,3.185,2.841,3.485,3.325c0.229,0.363,0.37,0.32,0.546-0.091    c0.687-1.608,2.711-3.74,4.17-5.124c0.545-0.515,0.604-0.998,0.662-1.454c0.277-2.095-0.064-3.208-1.339-4.932    c-0.274-0.372-0.092-1.059,0.636-0.425c1.414,1.233,2.225,3.01,2.156,5.052c-0.015,0.418,0.131,0.807,0.575,0.573    c0.696-0.364,2.239-1.396,2.844-1.911c0.452-0.385,0.498-0.532,0.515-0.909c0.026-0.758-0.002-1.074-0.246-1.574    c-0.152-0.314,0.016-0.5,0.242-0.288c0.227,0.21,0.651,1.013,0.834,1.272c0.183,0.254,0.305,0.194,0.528-0.049    c1.073-1.147,2.114-2.999,2.25-3.802c0.157-0.927,0.771-0.893,0.683,0.044c-0.491,5.164-8.158,8.852-11.183,12.186    c-1.666,1.84-1.507,4.333-0.838,6.117c0.472,1.255,2.487,3.871,4.276,5.049c0.195,0.128,0.24,0.15,0.271-0.062    c0.106-0.764,0.182-1.486-0.337-2.391c-0.121-0.21-0.219-0.737-0.122-1.119c0.12-0.485,0.12-0.576-0.033-1.18    c-0.904-3.599-0.265-6.005,0.832-9.052c0.696-1.928,0.446-5.935,0.082-7.145c-0.207-0.682,0.301-0.968,0.635-0.122    c0.526,1.336,0.943,3.298,0.979,5.567c0.006,0.406,0.34,0.382,0.878,0.06c1.408-0.848,2.995-2.054,3.627-2.791    c0.937-1.088,0.935-2.602,0.662-3.403c-0.124-0.358-0.14-0.621,0.394-0.228c0.529,0.394,0.789,1.708,0.713,2.178    c-0.062,0.388,0.037,0.438,0.363,0.212c1.92-1.334,2.825-3.515,3.125-5.665c0.143-1.024,0.693-0.759,0.785-0.214    c0.551,3.269-2.854,7.522-5.434,9.091c-3.313,2.012-5.686,4.155-5.924,6.94c-0.168,1.98,0.486,5.318,1.483,6.765    c0.101,0.194,0.259,0.309,0.33,0.055c0.382-0.886,0.56-2.184,0.251-3.1c-0.191-0.571-0.152-0.726,0.395-0.364    c0.545,0.363,0.902,1.506,0.521,4.024c-0.118,0.789,0.062,1.091,0.668,1.695c0.608,0.604,0.97,0.484,1.333,0.24    c0.362-0.243,0.727-0.365,1.15,0.422c0.426,0.787,0.787,1.231,1.637,1.268c1.332,0.059,2.604,0.117,3.088,0.601    c0.819,0.817,0.85,0.727,2,0.843c1.15,0.12,2.361,0.18,3.027,0.18c0.664-0.002,0.79,0.481,1.516,0.542    c0.727,0.06,1.635,0.057,2.241,0.601c0.604,0.543,1.06,1.21,1.062,1.876c0,0.503,0,0.589-0.24,0.682    c-0.174,0.065-0.164,0.229-0.135,0.378c0.121,0.635-0.646,1.262-1.74,1.455c-1.211,0.214-3.723,0.732-4.268,1.066    s-1.875,1.274-2.689,1.52c-0.817,0.241-0.725,1.271-0.331,2.3c2.151,5.595,2.927,10.474,3.172,14.463    c0.187,3.027,0.373,6.659-0.106,9.507c-0.225,1.324-0.604,1.271-0.207,2.725c0.293,1.076,0.037,2.289-0.358,3.088    c-0.151,0.304,0.241,0.454,0.575,0.454c1.515-0.003,8.234,0.651,9.838,0.802c0.813,0.074,1.076,0.233,1.184,0.663    c0.121,0.484,0.609,1.393,0.73,2.178c0.121,0.788-0.422,1.15-0.603,2.364c-0.129,0.872-1.209,2.24-3.565,3.454    c-1.121,0.577-2.299,1.578-3.146,2.125c-0.848,0.546-2.723,1.579-3.206,2.062c-0.483,0.485-1.45,1.274-2.056,1.518    S71.846,85.586,71,86.375c-0.847,0.788-3.683,1.185-5.023,1.098c-1.814-0.119-5.749,0.008-6.781,0.01    c-1.027,0.002-0.906-0.726-0.605-1.331C58.526,85.697,59.162,85.453,59.433,85.182z"/>
	</g>
</g>
<g id="Bat" display="none">
	<g display="inline">
		<path d="M85.171,26.287c-4.848-2.65-11.104-3.301-17.102-2.413c-11.48,1.7-20.451,8.93-26.209,20.051    c-2.054-3.019-3.296-6.817-3.328-10.955c-1.552,2.128-2.674,4.684-3.241,7.488c-0.567-2.805-1.689-5.36-3.24-7.488    c-0.033,4.21-1.315,8.074-3.436,11.118C22.862,32.875,13.864,25.582,2.327,23.874c-5.998-0.888-12.254-0.238-17.101,2.413    c11.051,1.697,14.079,8.617,12.227,15.589c8.736-2.634,17.313,6.145,14.513,16.375c2.322-1.114,5.657-1.422,8.708-1.018    c7.296,0.967,12.496,8.484,14.52,17.535c0.001-0.01,0.003-0.022,0.005-0.034c0.001,0.012,0.004,0.024,0.005,0.034    c2.025-9.051,7.224-16.568,14.521-17.535c3.05-0.404,6.385-0.098,8.706,1.018c-2.801-10.229,5.777-19.008,14.514-16.375    C71.092,34.904,74.121,27.984,85.171,26.287z"/>
	</g>
</g>
<g id="Sloth" display="none">
	<g display="inline">
		<path d="M84.346,58.347c-1.146-3.335-2.188-5.106-3.022-7.923c-0.162-0.548-4.629-12.941-24.168-24.313    c-3.25-1.89-15.752-5.481-18.579-6.536c-0.771-0.387-1.257-0.917-1.463-1.09c-1.924-1.599-4.757-5.828-7.385-7.347    c-3.692-2.132-6.283-2.36-9.021-2.55c-2.328-0.163-6.326-0.265-10.218,1.243c-3.896,1.504-5.012,4.348-5.112,5.287L5.148,16.75    c0.634,0.569,1.056,1.569,1.056,2.491c0,0.894-0.542,1.801-0.542,3.009c0,1.544,0.609,4.152,3.257,6.355    c3.03,2.517,7.017,3.881,10.472,5.703c0.05,0.032,0.125,0.059,0.19,0.115c3.573,3.009,1.073,6.684,1.073,6.684L0.757,32.612    c-6.451-3.264-11.55-1.598-14.862,3.313c-0.243,0.36-0.315,0.469-0.576,0.912c-0.154,0.263-0.108,0.622,0.078,0.772    c0.247,0.2,0.616,0.054,0.756-0.124c2.415-3.048,7.437-3.462,10.152-1.58c0.142,0.099,0.286,0.204,0.426,0.313    c0.47,1.78,0.11,1.329,1.096,5.069c0.594,2.234,2.587,3.903,2.587,3.903s15.531,14.655,17.11,16.104    c2.284,2.096,7.177,3.075,11.283,1.595c1.635-0.589,5.276-2.347,8.801-3.553c0.928-0.318,1.417-0.123,2.005,0.513    c0.891,0.966,1.535,1.606,3.49,3.61c0.459,0.471,0.562,1.173,0,1.784l-9.699,11.007l-0.065,0.063    c-3.07,3.234-2.887,6.422-1.968,9.516c0.368,1.237,1.281,2.755,2.209,3.556c0.234,0.207,0.436,0.154,0.615,0.056    c0.204-0.156,0.162-0.507,0.101-0.688c-1.352-4.014-0.391-7.269,3.02-8.905c1.6,0.914,3.764,2.157,4.45,2.558    c1.784,1.037,4.329,0.541,5.405,0.255c3.258-0.861,17.752-4.652,17.752-4.652c11.188-3.19,13.015-9.994,15.896-13.47    c0.036-0.047,0.072-0.092,0.105-0.138c1.545,0.304,2.349,0.371,3.317-0.426C86.014,62.518,84.971,60.015,84.346,58.347z     M17.435,21.661c1.981,1.156,4.97,0.958,4.97,0.958s-0.739,2.135-3.401,3.396c-1.376,0.656-3.083,1.144-5.781,1.065    c-1.776-0.051-3.356-1.002-4.12-2.156c-0.94-1.408-1.092-3.101-1.092-3.101s0.886-0.104,2.021-0.631    c1.139-0.527,1.487-2.699,1.432-3.74c-0.985-0.102-2.373-0.094-3.805,0.134c0,0,0.152-2.254,2.074-2.747    c1.672-0.429,1.665,0.499,3.577,0.485c0.113-0.001,0.31-0.002,0.437-0.003c0.421-0.004,0.96-0.137,1.267-0.238    c1.285-0.421,1.881-0.72,3.456-0.657c1.921,0.076,4.154,0.434,4.946,3.168c-2.289-0.337-4.426-0.488-7.604-0.199    C15.788,18.706,15.457,20.505,17.435,21.661z"/>
		<path d="M11.082,21.842c-0.262,0.098-0.436,0.488-0.413,0.755c0.1,1.148,0.452,2.272,1.726,2.387    c1.438,0.138,1.993-1.065,1.917-2.4c-0.007-0.071-0.032-0.368-0.174-0.465C12.766,21.064,11.554,21.663,11.082,21.842z"/>
	</g>
</g>
<g id="Layer_43" display="none">
	<g display="inline">
		<path d="M28.255,34.927c-2.512-7.259-8.009-14.069-14.58-17.957c-3.366-1.991-7.198-3.131-10.628-5.058    C-2.123,9.008-7.158,5.659-12.104,2.34c-3.756-2.52-7.96-4.201-11.469-7.1c-0.96-0.793-1.985-2.367-3.274-2.455    c0.216,3.814,3.889,6.403,6.631,8.467c2.138,1.608,4.751,4.21,7.401,4.75c-2.117-0.935-4.46-1.013-6.678-1.569    c-0.5-0.125-5.386-1.454-5.433-1.723c0.378,2.164,6.803,4.84,8.8,6.084c-1.875,0.082-3.771-0.764-5.635-0.892    c1.433,2.098,4.728,3.52,6.845,4.898c-1.086,0.1-2.017-0.168-3.021-0.457c2.146,1.286,4.442,2.192,6.332,3.806    c-0.854,0.215-1.892-0.007-2.712,0.298c1.418,1.412,3.504,2.694,5.334,3.67c-0.54-0.077-1.132,0.008-1.667,0.017    c0.284,1.342,3.575,2.086,4.793,2.771c-0.813-0.102-1.719-0.131-2.225,0.519c1.555,1.002,3.516,4.873,5.574,3.676    c-0.883,2.108,1.78,3.297,3.303,3.662c0.43,1.783,3.117,2.776,4.555,3.637c1.663,0.996,3.194,2.38,5.057,2.749    c1.141,0.226,1.958-0.051,3.097-0.004c1.848,0.077,0.948,0.605,1.95,1.785c0.739,0.87,1.641,0.979,2.308,1.564    c0.778,0.682,0.856,1.36,2.022,1.772c-0.01,1.066,1.323,1.275,1.99,2.017c0.625,0.694,1.012,1.749,1.38,2.625    c0.199-0.057,0.416-0.036,0.627-0.122c0.306,0.719,0.124,1.493,0.42,2.213c0.197,0.006,0.394,0.021,0.589,0.048    c-0.024-0.003,0.048,1.652,1.09,1.727c1.066,0.075,1.561-1.2,2.197-1.759c1.869-1.64,3.717-1.919,2.843-4.859    c-0.79-2.656-1.465-5.23-2.227-7.848C28.561,35.847,28.414,35.386,28.255,34.927z"/>
		<path d="M17.65,75.685c-3.931,2.028-7.907,3.736-11.908,5.614c-1.569,0.736-4.863,1.469-5.591,3.241    c1.192,0.067,2.759-1.374,3.858-1.84c1.239-0.524,2.484-0.823,3.789-1.396c2.274-1.001,4.562-2.322,6.975-2.948    c1.84-0.478,4.751-0.87,6.113-2.431c-0.546,0.626-1.301,1.292-1.572,1.994c1.149-0.147,2.316-1.226,3.463-1.575    c1.265-0.385,2.828-0.559,4.12-0.631c-0.494,1.247-0.981,2.563-1.486,3.773c1.789-0.746,4.752-2.059,5.871-3.744    c-0.24,1.228-0.625,2.823-0.113,4.094c1.713,0.104,2.965-1.209,3.951-2.386c-0.261,0.625-0.326,1.362-0.48,2.041    c1.15,0.082,2.387-0.801,3.132-1.654c-0.369,1.181-0.226,2.681-0.16,3.919c1.151,0.135,2.16-0.39,3.257-0.522    c0.073-0.849,0.05-1.714-0.156-2.525c0.839,1.734,0.451,3.478,2.796,3.244c2.364-0.235,1.49-1.885,2.313-3.592    c0.786,1.998,1.836,3.004,3.567,4.093c1.917-1.612,1.769-2.818,1.114-5.147c1.126,1.254,2.727,2.83,4.477,3.24    c0.294-1.119-0.708-1.701-0.944-2.714c1.019,1.118,2.948,1.042,4.079,2.017c-0.497-1.476-1.361-2.608-2.045-3.968    c2.256,0.449,4.155,1.836,6.396,2.396c-0.588-2.036-4.667-3.421-6.423-4.373c-2.233-1.211-4.543-2.512-6.611-3.843    c-2.763-1.777-5.527-4.143-8.813-4.859c-4.536-0.99-6.226,0.255-9.388,3.278c-2.589,2.477-6.746,3.344-9.848,5.157    C20.144,74.362,18.899,75.04,17.65,75.685z"/>
		<path d="M46.776,62.279c-0.443-0.702-2.886-5.318-3.205-1.897c-0.653-1.666-1.165-3.379-2.149-4.906    c-0.884-1.372-1.947-2.848-3.101-4.017c-0.873-0.884-2.638-1.355-3.152-2.225c6.087-0.49,5.083-10.087,5.766-14.316    c0.467-2.894,0.935-6.162,2.613-8.711c2.245-3.409,5.15-5.484,8.662-7.317c8.481-4.426,16.763-9.221,25.058-14.067    c3.151-1.841,5.853-4.229,8.928-6.149c2.636-1.646,5.94-4.896,8.863-5.719C92.974-3.435,89.02-0.62,85.8,1.996    c-2.738,2.225-5.981,4.779-8.693,6.45c3.287-1.163,6.548-3.512,9.606-5.195c2.878-1.583,6.002-2.698,8.824-4.368    c-3.228,2.457-6.445,5.048-9.99,7.082c2.438-0.147,5.266-1.364,7.415-2.552c-2.592,2.551-6.608,3.791-9.37,6.036    c1.665,0.2,4.515-0.891,5.838-1.899c-2.381,1.987-4.931,3.565-7.581,5.031c1.258,0.056,2.446-0.507,3.584-1.023    c-2.375,1.903-5.346,3.202-7.543,5.252c1.038,0.093,1.872-0.279,2.839-0.543c-1.676,1.434-3.322,2.279-5.286,3.288    c0.34-0.044,0.794,0.08,1.144,0.065c-0.746,1.838-2.466,2.751-4.141,3.672c0.729,1.603-2.1,3.667-3.477,3.814    c0.174,0.38-0.016,0.644,0.34,1.02c-0.858,1.241-2.433,1.78-3.61,2.474c0.932,1.276-1.248,2.093-2.155,2.626    c-0.95,0.558-1.843,2.046-2.761,1.895c0.434,2.206-0.666,3.076-1.778,4.852c-0.916,1.461-1.34,3.415-1.916,5.052    c-0.642,1.826-1.156,3.252-1.25,5.362c-0.081,1.848,0.159,4.275-0.161,6.11c-0.325-0.104-0.652,0.033-0.984-0.131    c-0.052,0.615-0.022,1.262-0.065,1.876c-0.12-0.082-0.472-0.182-0.636-0.312c0.041,0.572-0.031,1.21-0.196,1.706    c-0.959-0.425-1.263,0.464-1.079,1.394c-0.184-0.184-0.771-0.484-0.985-0.831c-0.055,0.847-0.016,1.729-0.064,2.573    c-0.496-0.138-1.001-0.492-1.373-0.962c0.007,0.672,0.02,1.351-0.025,2.013c-0.272-0.352-0.771-0.819-0.972-1.188    C49.687,65.141,47.366,63.216,46.776,62.279z"/>
		<path d="M47.531,70.439c0.9-2.039-1.164-6.662-1.92-8.549c-1.477-3.681-4.217-7.934-7.316-10.487    c-2.01-1.656-3.979-4.55-6.662-5.146c-5.081-1.128-6.271,4.396-6.04,8.263c0.179,2.98,1.686,3.477,3.424,5.521    c1.499,1.762,1.906,3.677,2.698,5.713c1.2,3.083,4.963,6.072,8.346,5.884c1.591-0.089,2.693-1.677,4.218-1.834    C45.801,69.647,46.772,72.159,47.531,70.439z"/>
		<path d="M45.843,71.647c-1.443,0.244-1.083,3.342-0.917,4.569c0.238,1.75,0.907,3.178,0.917,4.993    c0.01,1.695-0.532,3.079,0.239,4.916c-0.37-0.458-1.037-1.261-1.105-1.474c0.181,0.891,0.336,1.901,0.173,2.832    c-3.529-3.811-1.015-9.923-1.305-14.502L45.843,71.647z"/>
		<path d="M37.524,71.984c-0.778,2.509,0.62,4.739,1.103,7.134c0.56,2.787,0.752,4.573,2.264,7.132    c-0.597-0.299-1.166-0.359-1.67-0.978c0.197,0.684,0.272,1.186,0.687,1.803c-5.813-3.962-2.467-12.107-5.412-17.515L37.524,71.984    z"/>
		<polygon points="25.657,54.902 21.871,62.031 28.742,56.738 29.262,53.85   "/>
	</g>
</g>
<g id="Layer_44" display="none">
	<g display="inline">
		<path d="M46.286,25.435c-0.034,0.492,0.032,1.041,0.057,1.609C46.374,26.528,46.326,25.979,46.286,25.435z"/>
		<path d="M79.031,55.104c-0.255-0.703-0.576-1.175-0.773-1.934c-0.194-0.751-0.536-1.254-1.133-1.783    c-0.977-0.866-2.081-1.814-3.167-2.509c-0.561-0.358-1.189-0.56-1.64-1.06c-0.531-0.593-0.829-1.442-1.259-2.106    c-0.782-1.215-1.741-2.382-2.462-3.553c-0.75-1.227-1.716-2.304-2.268-3.617c-0.632-1.502-0.367-2.727-1.403-4.107    c-1.857-2.475-4.688-3.877-5.968-6.882c-0.606-1.427-0.591-3.028-1.249-4.438c-0.69-1.475-1.236-2.444-2.317-3.694    c-0.881-1.017-1.87-2.057-3.092-2.593c-0.502-0.218-1.662-0.25-2.112-0.691c-0.209-0.205,0.146-0.535-0.209-0.851    c-0.077-0.067-1.878-0.627-1.436-1.159c0.337-0.409,0.445-1.019,1.129-0.883c0.154-1.241,1.362-2.422,1.664-3.651    c0.326-1.329,0.385-3.37,0-4.646c-0.395-1.306-1.089-2.453-2.155-3.352c-0.942-0.793-2.377-1.173-3.641-1.479    c-2.584-0.624-5.018,1.4-6.281,3.442c-0.726-0.461-1.739-0.247-2.588-0.366c-1.024-0.146-1.347-0.396-1.976,0.578    c-0.447,0.696-0.652,1.485-0.1,2.17c0.499,0.615,2.101,0.398,2.727,0.146c0.618-0.248,0.692-0.71,1.433-0.44    c0.894,0.328,1.614,1.473,2.554,1.89c1.729,0.765,5.242,0.371,6.147,2.328c-1.043-0.023-1.963-0.038-2.233,1.164    c-0.354-0.478-0.04-1.014-0.097-1.539c-0.083-0.762-0.038-0.618-0.849-0.864C43.3,8.327,42.227,8.2,41.291,7.679    c-0.827-0.458-1.422-1.216-2.32-1.473c-1.063-0.304-0.962,0.429-1.261,1.067c-0.194,0.414-0.381,0.484-0.603,0.839    c-0.931,1.463-0.938,2.304-0.48,4.008c0.291,1.087-0.354,2.213,0.443,3.084c0.957,1.047,2.568,0.745,3.731,0.297    c1.565-0.6,2.545-0.896,4.156-0.698c0.66,0.082,1.438-0.042,1.725,0.851c-0.116,0.004-0.242,0.02-0.358,0.032    c-0.071,0.479,0.24,0.85,0.729,0.854c-1.339,0.047-2.339-1.588-3.818-1.334c-0.322,0.985-2.271,0.779-3.003,1.361    c0.355,0.409,1.269,0.28,1.233,1.023c-1.38-0.498-2.556-1.592-4.02-1.748c-0.784-0.083-1.303,0.311-1.92,0.715    c-0.665,0.433-1.354,0.613-2.001,0.975c-1.122,0.625-2.391,1.519-3.469,2.266c-1.314,0.911-2.653,1.216-4.229,1.374    c-3.087,0.309-6.359,0.166-9.461,0.584c-3.194,0.43-6.451,1.226-9.658,1.547c-1.513,0.148-3.172,0.203-4.643,0.283    c-0.736,0.041-1.15-0.35-1.852-0.456c-0.879-0.134-1.495,0.356-2.205,0.827c-1.191,0.791-1.766,2.1-2.697,0.318    c-0.604,0.288-0.679,1.779-0.789,2.392C-6.482,26.3-7.005,27.7-5.96,27.567c-0.007,0.904-1.668,2.83-2.301,3.563    c-1.025,1.187-2.281,2.266-3.023,3.662c-0.339,0.637-0.524,1.318-0.676,2.033c-0.13,0.605-0.542,1.405-0.479,2.007    c0.112,1.075,0.667,0.495,1.569,0.792c0.547,0.18,1.051,0.743,1.635,0.969c1.016,0.39,2.238,0.771,3.289,0.968    c0.546,0.101,1.115-0.05,1.645,0.093c0.533,0.141,0.959,0.407,1.518,0.47c0.077-0.12,0.22-0.222,0.291-0.337    c0.116,0.017,0.495,0.128,0.586,0.176c0.035,0.128,0.087,0.227,0.131,0.352c1.832,0.102,2.524-0.917,3.338-2.419    c0.794-1.467,0.282-2.954,0.697-4.523c0.182-0.687,0.674-1.345,0.851-2.045c0.216-0.851,0.013-1.421,0.024-2.2    c0.012-0.816,1.016-3.307,1.637-3.675c1.267-0.753,3.313-0.606,4.738-0.479c0.83,0.073,1.627-0.049,2.414,0.216    c0.824,0.275,1.445,0.713,2.322,0.842c1.498,0.219,3.2,0.104,4.729,0.027c2.377-0.119,4.312-0.094,6.584-0.9    c2.01-0.712,4.033-1.905,6.189-0.979c1.385,0.594,2.533,2.333,4.04,2.537c0.563,0.077,1.385-0.068,2.022-0.004    c1.393,0.14,2.459,0.668,3.762,0.873c1.147,0.183,2.84,0.006,3.77-0.607c0.725-0.48,0.954-1.17,1.002-1.934    c-0.024-0.568-0.091-1.117-0.057-1.609c0.04,0.544,0.088,1.094,0.057,1.609c0.03,0.672-0.003,1.371-0.346,2.032    c-0.654,1.265-2.098,1.069-3.359,0.892c-0.694-0.1-1.355-0.296-2.027-0.387c-0.552-0.075-1.346-0.389-1.836-0.387    c-0.863,0.004-0.472,0.377-0.214,1.061c0.355,0.949,0.905,1.711,1.105,2.685c0.288,1.397,0.859,2.917,1.353,4.269    c0.541,1.486,1.375,2.74,1.885,4.254c0.521,1.535,0.504,2.904,2.246,3.475c0.931,0.304,1.423-0.092,1.524,0.968    c0.025,0.282-0.083,0.802-0.177,1.058c-0.251,0.686-0.146,0.34-0.672,0.679c-0.715,0.465-1.472,0.858-2.316,1.065    c-0.918,0.225-1.276,0.48-2.054,1.039c-0.602,0.434-1.322,0.56-2.004,0.79c-0.706,0.243-1.249,0.751-1.857,1.141    c-0.627,0.401-1.335,0.878-2.001,1.209c-0.333,0.167-0.781,0.198-1.07,0.433c-0.264,0.217-0.275,0.637-0.572,0.801    c-0.645,0.353-1.469,0.004-2.205,0.41c-0.578,0.319-1.068,0.811-1.445,1.347c-0.813,1.15-0.936,2.831-1.371,4.137    c-0.451,1.346-0.816,2.875-1.073,4.24c-0.149,0.789-0.114,1.27-0.403,2.033c-0.256,0.683-0.396,1.4-0.578,2.125    c-0.393,1.553-0.582,3.121-0.967,4.637c-0.357,1.413-1.068,2.85-1.623,4.149c-0.261,0.608-0.392,1.381-1.059,1.649    c-0.574,0.228-1.681,0.222-2.318,0.188c-0.717-0.034-1.425-0.428-2.051-0.463c-0.8-0.045-1.053,0.335-1.911,0.168    c-2.229-0.43-6.771-2.599-6.956,1.163c-0.098,1.956,1.178,2.738,2.397,4.063c1.093,1.188,2.119,1.697,3.69,1.932    c1.781,0.268,3.382,0.888,4.516,2.435c0.605,0.826,0.91,1.991,1.811,2.511c0.646,0.369,1.639,0.375,2.366,0.459    c1.075,0.124,2.239-0.325,3.064-1.087c0.816-0.756,0.771-1.505,0.662-2.416c-0.019-0.148-0.038-0.299-0.056-0.457    c-0.094-0.819-0.629-1.612-0.605-2.443c0.021-0.736,0.441-1.706,0.783-2.372c0.582-1.145,1.451-2.117,1.924-3.321    c0.568-1.448,1.372-2.271,2.32-3.461c0.596-0.747,0.9-1.827,1.389-2.674c0.623-1.077,1.3-2.13,1.719-3.311    c0.684-1.919,1.347-3.894,2.049-5.778c1.642-0.337,2.893-0.879,4.619-0.789c1.512,0.077,3.054-0.469,4.439-1.061    c2.858-1.225,5.741-1.57,8.704-2.414c1.159-0.332,3.188-0.65,4.408-0.485c-1.489,0.071-2.775,0.947-4.221,1.16    c-1.541,0.228-2.858,0.697-4.341,1.163c-1.592,0.495-3.158,0.897-4.718,1.275c-1.386,0.337-2.846,0.255-4.173,0.771    c-1.076,0.417-1.996,0.966-3.088,1.142c-1.674,0.271-1.925,0.738-2.399,2.315c-0.345,1.149-0.715,2.352-0.989,3.47    c-0.348,1.418-0.369,2.294,1.018,2.99c1.455,0.731,2.504,1.871,3.913,2.687c1.164,0.678,2.468,1.729,3.451,2.653    c0.56,0.525,0.775,1.163,1.237,1.721c-0.779,1.147-2.007,2.121-2.932,3.192c-0.498,0.574-1.013,0.901-1.759,1.055    c-0.737,0.152-3.096,0.419-2.558,1.724c0.311,0.751,1.975,0.955,2.654,0.983c1.574,0.066,3.238-0.196,4.736-0.576    c1.601-0.407,3.013-0.582,4.729-0.582c1.643,0,3.099,0.312,4.638,0.388c1.463,0.067,3.168-0.181,2.971-2.029    c-0.109-1.034-1.1-3-1.838-3.744c-0.467-0.473-1.075-1.01-1.714-1.088c-0.76-0.097-1.399,0.363-2.122-0.168    c-0.566-0.416-0.859-1.393-1.381-1.932c-0.446-0.46-0.858-0.89-1.231-1.375c-0.936-1.233-1.462-2.577-2.127-3.958    c-0.624-1.298-1.465-2.396-2.193-3.672c-0.836-1.457-1.689-2.007-3.507-1.745c-1.41,0.203-2.309,1.237-3.532,1.948    c0.318-0.298,0.681-0.754,0.624-1.254c-0.25,0.021-0.43-0.125-0.648-0.132c0.676-0.913,1.534-0.716,2.521-0.923    c0.922-0.193,1.799-0.753,2.78-1.01c2.179-0.567,4.109-1.75,6.279-2.317c3.156-0.825,6.536-1.22,9.562-2.567    c2.433-1.084,5.029-3.672,6.011-6.177c1.183-3.026,0.862-5.72,0.072-8.715c-0.409-1.567-0.292-3.095-0.288-4.735    c0.001-0.979-0.187-0.867-1.061-1.258c-0.544-0.244-1.28-0.76-1.923-0.656c0.162,0.474,0.524,0.854,0.791,1.313    c1.364,2.355-1.449,0.889-2.638,0.795c-0.688-0.055-1.717,0.506-2.32,0.077c-0.465-0.331-0.592-1.656-0.363-2.203    c0.548-1.312,2.92-1.238,4.033-1.059c1.077,0.174,2.792,0.948,3.552,1.746c0.827,0.871,0.303,2.15,0.412,3.273    c0.166,1.688,0.138,3.031,1.421,4.276c1.02,0.985,2.142,1.808,2.853,3.046c0.786,1.367,1.484,2.651,1.617,4.246    c0.063,0.758-0.079,1.665,0.456,2.27c0.243,0.272,1.425,1.106,1.751,1.15c0.535,1.735,2.604,0.617,3.692,0.375    c1.154-0.258,0.91-0.359,1.075-1.358C79.102,56.432,79.321,55.898,79.031,55.104z M-7.517,36.327    c-0.329-0.135-0.568-0.402-0.639-0.74c0.217,0.002,0.373,0.065,0.566,0.176l0.291,0.291C-7.343,36.122-7.457,36.228-7.517,36.327z     M-6.609,36.617c-0.058-0.388-0.082-0.796,0.18-1.048l0.289,0.676C-6.083,36.518-6.185,36.651-6.609,36.617z M-4.708,35.364    c-0.41-0.039-0.562-0.268-0.369-0.664l0.291,0.096C-4.713,34.94-4.638,35.128-4.708,35.364z M-2.664,39.626l0.58,0.58    C-1.746,41.892-3.592,40.591-2.664,39.626z M-2.1,39.126c-0.584,0.048-0.711-0.625-0.563-1.045h0.388    C-1.957,38.356-1.888,38.766-2.1,39.126z M48.527,43.195c0.154-0.413,0.809-0.505,1.067-0.865l0.479,0.29    c0.188,0.158,0.264,0.779,0.502,1.142c0.326-0.124,0.751-0.368,1.129-0.156c-0.071,0.925-1.754,1.878-2.521,1.236    C48.868,44.575,48.368,43.615,48.527,43.195z M54.405,44.536c-0.873-0.17-1.825,1.217-2.374,1.779    c-0.763,0.786-1.959,1.5-2.847,2.101c-1.036,0.701-2.478,0.793-3.622,1.379c-1.042,0.533-2.114,1.015-3.139,1.588    c-1.481,0.832-2.741,1.667-4.134,2.61c-0.597,0.404-1.436,0.737-1.953,1.161c-0.585,0.475-0.679,1.071-0.94,1.766    c-0.524,1.398-0.866,2.777-1.331,4.148c-0.452,1.339-0.588,3.585-2.524,2.688c0.479-1.148,0.364-2.462,0.765-3.656    c0.39-1.161,0.759-2.315,1.375-3.374c0.318-0.551,0.359-1.32,0.724-1.766c0.293-0.356,1.148-0.578,1.563-0.777    c1.088-0.517,1.977-1.318,2.979-2.022c1.271-0.894,2.684-1.164,4.073-1.813c1.362-0.636,2.705-1.413,4.04-2.053    c1.242-0.596,2.68-1.282,3.768-2.124c1.259-0.974,1.714-2.006,2.55-3.248c0.15-0.063,0.147,0.043,0.271,0.084l0.679-0.098    c0.137-0.112,0.116-0.263,0.371-0.178C54.675,43.261,54.559,44.061,54.405,44.536z"/>
	</g>
</g>
<g id="Layer_45" display="none">
	<g display="inline">
		<path fill="none" d="M19.839,64.182c-1.336-3.18,5.115-5.985,1.424-7.598C20.627,58.45,15.978,62.459,19.839,64.182z"/>
		<path fill="none" d="M30.092,55.903c-0.628-1.86-1.657-3.586-3.13-5.017c-0.346,5.898-8.318,15.384-2.85,18.993    c-0.148-5.163,0.482-9.808,4.273-12.345c0.546,3.577-4.129,8.58,0,11.396c0.769-1.189,1.354-2.496,1.766-3.857L30.092,55.903z"/>
		<path fill="none" d="M11.291,83.175c-23.309,0.208,0.504,2.292,11.396,0C18.722,83.206,15.712,83.138,11.291,83.175z"/>
		<path fill="none" d="M48.332,84.126c4.331-0.597,12.272,1.215,14.246-0.951C58.25,83.771,50.307,81.96,48.332,84.126z"/>
		<path fill="none" d="M48.916,63.364c-0.481,1.12-0.891,2.261-0.667,3.352C48.453,65.684,48.676,64.561,48.916,63.364z"/>
		<path d="M83.949,60.384c-8.341-0.156-11.516,8.123-15.672,7.598c0.019-1.886,3.889-1.209,2.85-3.8    c9.61-5.775-4.995,1.768-7.123,4.749c-0.523-6.381,9.449-10.771,7.123-15.195c-3.104,5.213-8.143,9.135-11.397,14.246    c-1.874-4.774,6.488-7.65,4.274-9.498c-0.418,0.845-3.853,4.159-4.274,1.9c-3.054-5.837,3.483-9.398,1.426-13.295    c-4.232,5.417-7.435,11.523-11.106,17.317c1.419-8.242,3.553-20.116,5.26-27.421c1.049-0.48,2.375-3.395,3.146-7.07    c0.527-2.513,0.672-4.801,0.467-6.275c0.784-2.496,1.212-3.533,1.212-3.533L59.26,19.67c-0.271,0.588-0.578,1.433-0.907,2.45    c-0.088-0.08-0.181-0.141-0.284-0.163c-1.087-0.228-2.677,2.966-3.55,7.133c-0.769,3.663-0.727,6.857,0.032,7.731    c-1.649,7.183-3.356,15.315-4.74,22.112c-0.241-0.508-0.7-0.979-1.479-1.399c-1.398,4.132-1.644,9.033-4.273,12.345    c-1.762-8.153,5.141-15.548,4.273-19.943c-5.691,6.02-7.024,14.944-9.973,22.792c-4.805-7.309,1.731-17.799,2.851-20.892    c-2.483,2.776-4.21,6.059-8.549,7.596c-0.28-1.918-0.761-3.702-1.35-5.416L30.898,36.13c0.752-1.236,1.287-4.333,1.287-7.968    c0-4.221-0.721-7.718-1.667-8.414l-0.046-1.968l-0.633-1.183l0.02,3.132c-0.961,0.644-1.695,4.168-1.695,8.433    c0,4.425,0.791,8.065,1.805,8.503l0.091,14.126c-0.534-1.249-1.102-2.478-1.673-3.702c-3.108,4.574-7.461,8.32-12.822,11.395    c1.435-2.523,1.486-4.835-1.424-6.646c0.222,3.97-0.126,7.56-1.246,10.635L6.537,47.301c0.25-1.425-0.382-4.504-1.709-7.888    c-1.541-3.93-3.488-6.922-4.623-7.225l-0.76-1.816l-1.022-0.869l1.162,2.908c-0.659,0.95-0.057,4.5,1.499,8.47    c1.615,4.12,3.681,7.22,4.784,7.257l6.356,15.912c-0.904,1.864-2.142,3.507-3.783,4.881C5.397,61.147,3.058,52.892-4.381,48.038    c2.36,5.089,8.922,12.395,7.123,17.095c-1.975-1.532-1.203-4.896-4.273-5.7c-1.262,2.831,4.44,5.782,1.426,6.649    c-2.232-1.362-1.123-4.95-5.699-4.749c-2.014,1.102,7.379,7.669,2.85,10.447c-1.101-2.434-1.421-5.384-4.275-6.647    c2.108,9.139,4.872,19.854,2.85,26.589c0.69-1.122,1.52-2.152,2.85-2.849c3.152,1.368-1.793,2.317,1.426,2.849    c9.377-1.929,16.325,2.099,24.219-2.849c0.326,6.288,0.373,1.659,2.85,0.951c1.549-0.443,1.553,1.969,2.85,1.897    c-0.407,0.022,1.072-1.796,1.424-1.897c2.316-0.68,3.652,1.901,5.699,1.897c0.199,0,0.735-3.093,2.848-2.849    c0.993,0.114,1.307,2.775,2.85,2.849c0.336,0.018,0.11-2.928,2.851-1.897c1.109,0.415-0.566,1.815,1.425,1.897    c0.384,0.018-0.11-2.062,1.424-1.897c0.602,0.063,1.425,1.793,2.849,1.897c3.259,0.238,5.675-2.457,8.549-1.897    c0.692,1.121,1.521,2.151,2.849,2.849c0.246-6.472,11.969,1.278,8.549-0.951C62.122,81.405,71.67,65.253,83.949,60.384z     M21.263,56.584c3.691,1.612-2.76,4.418-1.424,7.598C15.978,62.459,20.627,58.45,21.263,56.584z M28.386,68.931    c-4.129-2.815,0.546-7.818,0-11.396c-3.791,2.537-4.422,7.182-4.273,12.345c-5.469-3.609,2.504-13.095,2.85-18.993    c1.473,1.431,2.502,3.156,3.13,5.017l0.06,9.17C29.74,66.435,29.155,67.741,28.386,68.931z M48.916,63.364    c-0.239,1.196-0.463,2.319-0.667,3.352C48.025,65.625,48.434,64.484,48.916,63.364z"/>
	</g>
</g>
<g id="Layer_46">
	<path fill="#000000" d="M42.806,5.084c1.584,3.068,4.054,9.413,1.258,12.998c-2.522,0.147-4.805,0.053-5.87-1.258   C37.653,10.833,40.616,8.345,42.806,5.084"/>
	<path fill="#000000" d="M21.84,8.438c2.848,1.282,9.787,2.776,10.063,6.709c0.177,2.5-1.289,4.193-3.773,4.193   C23.411,19.341,23.279,12.701,21.84,8.438z"/>
	<path fill="#000000" d="M59.998,12.632c0.443,3.086-1.246,10.719-4.612,11.321c-2.331,0.417-4.367-0.861-4.613-3.355   C50.271,15.493,56.899,15.155,59.998,12.632z"/>
	<path fill="#000000" d="M25.196,21.438c2.5,2.615,4.809,7.374,3.773,12.16c-1.775,1.674-5.314,1.471-6.709-0.42   C21.321,28.633,23.967,25.1,25.196,21.438z"/>
	<path fill="#000000" d="M32.743,21.856c3.76-0.519,11.733,0.299,12.16,4.193c0.206,1.884-1.289,3.429-3.355,4.612   C36.883,29.455,35.144,25.325,32.743,21.856z"/>
	<path fill="#000000" d="M51.192,26.05c-0.831,8.544-6.555,15.798-7.547,25.578c7.079-0.233,11.931-6.205,17.191-9.646   c1.601,0.355,2.019,1.896,2.516,3.354c-3.052,2.89-7.382,3.894-10.482,6.711c-3.927,3.564-7.93,9.279-7.128,17.608   c0.309,3.232,2.185,8.023,2.516,12.581c0.192,2.646-0.466,5.821,0,7.547c0.601,2.228,2.538,2.627,3.772,4.612   c-5.771,0.713-14.347,0.672-20.126,0c0.923-2.431,4.441-2.268,5.87-4.192c1.827-16.838-7.143-24.929-22.643-23.063   c-0.471-2.13,2.454-2.693,4.193-3.354c3.553-1.349,9.269-2.669,14.256-0.838c-2.551-8.849-7.512-15.85-12.998-22.224   c-1.527-1.773-4.611-3.483-4.193-6.289c2.543-2.322,3.762,1.168,5.032,2.516c1.391,1.476,3.253,2.815,4.612,4.193   c3.027,3.066,5.637,6.649,9.225,8.386c8.642-3.937,9.415-15.743,13.418-24.319C50.125,24.879,50.447,25.677,51.192,26.05z"/>
	<path fill="#000000" d="M15.551,27.727c0.217,11.525-11.819,1.95-12.16-1.677C7.372,25.279,13.538,25.209,15.551,27.727z"/>
	<path fill="#000000" d="M57.9,28.984c3.636,6.052-1.969,17.658-7.128,10.063C50.958,33.504,55.157,31.971,57.9,28.984z"/>
	<path fill="#000000" d="M35.258,31.5c2.236,2.99,4.623,8.188,2.936,12.579C28.634,47.844,31.977,35.091,35.258,31.5z"/>
	<path fill="#000000" d="M75.511,33.598c-1.605,2.332-4.07,9.66-7.966,9.644c-2.458-0.011-4.229-2.61-3.774-5.032   C64.507,34.277,70.907,34.588,75.511,33.598z"/>
	<path fill="#000000" d="M15.131,38.629c1.413,1.881,0.701,4.705-0.419,6.289c-5.024,1.174-8.755-1.99-12.159-3.773   C5.647,39.395,10.924,36.627,15.131,38.629z"/>
	<path fill="#000000" d="M75.932,55.402c-4.291,1.211-9.774-0.008-12.161-2.099C63.285,42.092,73.843,50.771,75.932,55.402z"/>
	<path fill="#000000" d="M8.842,49.949c1.568,1.668,2.188,4.937,0.42,6.708c-4.217,1.132-8.792-0.223-11.741-1.676   C0.48,52.489,3.186,49.744,8.842,49.949z"/>
	<path fill="#000000" d="M26.034,54.144c-1.188,10.654-11.658,0.532-12.16-2.936C18.08,50.403,24.132,51.26,26.034,54.144z"/>
	<path fill="#000000" d="M64.61,64.206c-3.506-0.101-10.728-2.122-10.901-5.87c-0.137-2.924,3.364-5.139,6.289-3.354   C62.712,56.64,62.933,61.921,64.61,64.206z"/>
	<path fill="#000000" d="M11.778,62.528c6.385,5.93-3.439,9.253-10.482,7.128C4.042,66.536,5.854,62.477,11.778,62.528z"/>
	<path fill="#000000" d="M61.674,70.915c-1.25,1.032-2.459,2.736-4.191,3.773c-3.091,1.85-9.707,3.201-8.807-2.516   C49.459,67.205,57.819,69.612,61.674,70.915z"/>
	<path fill="#000000" d="M18.067,82.237c-1.582-3.356-1.386-11.18,1.678-12.581C29.858,69.791,21.935,80.012,18.067,82.237z"/>
</g>
<g id="Layer_47">
</g>
<g id="Layer_34">
	<text transform="matrix(1 0 0 1 72.9907 -116.4771)"><tspan x="0" y="0" font-family="'MyriadPro-Regular'" font-size="12">To do List: </tspan><tspan x="0" y="14.4" font-family="'MyriadPro-Regular'" font-size="12">Forest</tspan><tspan x="0" y="28.8" font-family="'MyriadPro-Regular'" font-size="12">Fort</tspan><tspan x="0" y="43.2" font-family="'MyriadPro-Regular'" font-size="12">Park</tspan><tspan x="0" y="57.6" font-family="'MyriadPro-Regular'" font-size="12">Family</tspan></text>
</g>
</svg>