<svg xmlns="http://www.w3.org/2000/svg" xmlns:xlink="http://www.w3.org/1999/xlink" version="1.1" id="Layer_1" x="0px" y="0px" width="100px" height="100px" viewBox="0 0 100 100" enable-background="new 0 0 100 100" xml:space="preserve">
<path fill="#000000" d="M27.304,49.587c6.917-14.911,16.842-28.106,29.057-38.801c-1.924-0.277-3.889-0.423-5.888-0.423  c-12.892,0-24.392,5.953-31.908,15.256C20.596,33.944,23.534,41.979,27.304,49.587z"/>
<path fill="#000000" d="M40.426,30.411c16.375-1.465,32.769,0.534,48.14,5.766c-5.281-13.235-17.259-23.073-31.747-25.324  C50.623,16.776,45.131,23.34,40.426,30.411z"/>
<path fill="#000000" d="M37.35,70.539c-4.205-5.979-7.819-12.305-10.813-18.888l-0.124-0.213l0.015-0.024  c-3.684-8.145-6.418-16.679-8.153-25.434c-5.512,6.982-8.802,15.798-8.802,25.383c0,5.203,0.971,10.178,2.739,14.758  C20.44,68.526,28.872,70,37.35,70.539z"/>
<path fill="#000000" d="M63.595,32.188c9.454,13.444,15.919,28.637,19.074,44.562c5.513-6.982,8.804-15.8,8.804-25.387  c0-5.202-0.972-10.177-2.739-14.757C80.504,34.202,72.073,32.727,63.595,32.188z"/>
<path fill="#000000" d="M60.518,72.316c-7.155,0.641-14.313,0.617-21.389-0.045h-0.688l-0.04-0.068  c-8.867-0.887-17.598-2.783-26.021-5.65c5.281,13.234,17.258,23.07,31.745,25.322C50.321,85.951,55.813,79.387,60.518,72.316z"/>
<path fill="#000000" d="M73.641,53.14c-3.086,6.653-6.771,12.965-10.99,18.866l-0.154,0.266h-0.037  c-5.193,7.221-11.191,13.818-17.873,19.67c1.922,0.277,3.887,0.422,5.886,0.422c12.891,0,24.391-5.951,31.907-15.254  C80.349,68.783,77.411,60.748,73.641,53.14z"/>
</svg>