<svg xmlns="http://www.w3.org/2000/svg" xmlns:xlink="http://www.w3.org/1999/xlink" version="1.1" id="Layer_1" x="0px" y="0px" width="100px" height="100px" viewBox="0 0 100 100" enable-background="new 0 0 100 100" xml:space="preserve">
<polygon points="58.935,58.204 66.918,38.955 46.938,38.955 53.396,19.011 40.866,18.984 32.204,45.809 51.565,45.809 46.88,58.204   37.334,58.204 46.839,81.021 69.655,58.204 "/>
<path d="M50.928,5c24.854,0,45,20.146,45,45c0,24.854-20.146,45-45,45s-45-20.146-45-45C5.928,25.146,26.074,5,50.928,5   M50.928,11.894c-21.013,0-38.106,17.094-38.106,38.106c0,21.013,17.094,38.106,38.106,38.106S89.034,71.013,89.034,50  C89.034,28.988,71.94,11.894,50.928,11.894L50.928,11.894z"/>
</svg>