<svg xmlns="http://www.w3.org/2000/svg" xmlns:xlink="http://www.w3.org/1999/xlink" version="1.1" id="Layer_1" x="0px" y="0px" width="100px" height="100px" viewBox="0 0 100 100" enable-background="new 0 0 100 100" xml:space="preserve">
<polygon fill="#000000" points="58.006,58.204 65.99,38.956 46.01,38.956 52.469,19.012 39.938,18.985 31.276,45.809 50.637,45.809   45.952,58.204 36.406,58.204 45.912,81.021 68.729,58.204 "/>
<polygon fill="#000000" points="79.414,51.221 79.409,51.226 79.414,51.221 "/>
<path fill="#000000" d="M21,25.38l-5.691-3.936c-1.454,1.773-2.796,3.645-3.976,5.628l0.009,0.009l-0.013-0.005  c-1.181,1.988-2.226,4.066-3.092,6.238C6.167,38.48,5,44.099,5,50.005C5,74.854,25.146,94.996,50.004,95  c11.687,0,22.295-4.492,30.293-11.799l-5.825-4.033c-6.619,5.561-15.143,8.922-24.468,8.936  c-21.053-0.037-38.075-17.059-38.111-38.099c0.009-4.438,0.808-8.675,2.204-12.633c0.785-2.222,1.759-4.349,2.917-6.359v-0.009  l0.004,0.004l12.598,8.72l2.212-6.848L21,25.38z"/>
<polygon fill="#000000" points="63.441,54.758 63.23,54.614 63.168,54.758 "/>
<path fill="#000000" d="M50.004,5C38.524,5,28.077,9.318,20.142,16.4l5.875,4.066c6.543-5.336,14.877-8.554,23.988-8.572  C71.048,11.93,88.07,28.957,88.106,50.005c-0.004,4.219-0.727,8.267-1.997,12.06c-0.749,2.238-1.688,4.393-2.822,6.43l-11.799-8.167  l-0.319,0.318l-4.636,4.636l12.881,8.918l5.677,3.936c1.44-1.791,2.729-3.703,3.887-5.703c1.157-2.006,2.158-4.121,3.002-6.307  C93.909,61.117,95,55.691,95,50.005C95,25.146,74.858,5,50.004,5z"/>
</svg>