<svg xmlns="http://www.w3.org/2000/svg" xmlns:xlink="http://www.w3.org/1999/xlink" version="1.1" id="Layer_1" x="0px" y="0px" width="100.0px" height="100px" viewBox="0 0 144 144" enable-background="new 0 0 144 144" xml:space="preserve">
<path d="M23.615,130.667c0,0-8.125-17.759-7.339-18.806c0,0-6.866-34.082,3.644-42.03c0,0-2.858-15.272,16.545-10.824l1.833,0.262  l3.929-11.513l-5.24,4.71c0,0-6.291,3.139,8.388-13.083l1.311-4.187c0,0-26.999,24.596-8.125,2.355l12.843-9.157  c0,0,25.166-15.701,26.214-14.393c0,0,20.188-4.185,33.555,13.346c0,0,16.514,10.465,10.484,18.576c0,0-5.504,7.066-8.387,5.497  c0,0,3.932-3.402,4.191-4.449c0,0-8.646-0.261-11.01-3.14c0,0-6.291-0.525-9.172,4.97c0,0,12.58-3.4,21.232,18.841l-1.051,7.065  c0,0,17.041,44.938,11.275,55.96H23.615z"/>
</svg>