<svg xmlns="http://www.w3.org/2000/svg" xmlns:xlink="http://www.w3.org/1999/xlink" version="1.1" id="Layer_1" x="0px" y="0px" width="100.0px" height="100px" viewBox="0 0 144 144" enable-background="new 0 0 144 144" xml:space="preserve">
<path d="M105.203,99.34c0,0,3.545,1.151,4.254,0c0,0,7.093,0.462,8.511,2.761v1.841c0,0,2.837,2.987,0,5.057  c0,0,0.944-2.3-1.891-1.838c0,0-7.567,5.978-12.53,6.894l-5.722,1.38c0,0-11.063,3.908-15.555,2.068c0,0-13.238,0.23-15.838,1.84  c0,0-9.929,5.058-11.82,3.677l-10.637,3.908c0,0-4.254,0.229-8.274-2.07c0,0-4.018-1.838-1.654-2.985c0,0-3.381-2.529-0.746-2.529  c0,0-2.091-2.299,0.037-2.299c0,0-4.256-1.609,0.236-1.609c0,0-4.964-1.604,2.127-2.296c0,0,19.385-1.843,24.113-4.14l2.6-1.381  c0,0-4.965-3.907-1.655-4.137c0,0-4.492-1.841-2.837-2.301c0,0-1.419-2.527-0.473-2.757c0,0-2.128-2.301-0.946-2.527  c0,0-1.891-3.449-1.18-3.449c0,0-3.31-2.529-1.419-3.218c0,0-2.837-2.99-0.946-3.218c0,0-2.836-2.991,0-3.218  c0,0-2.836-3.91-1.891-4.829c0,0-1.655-3.448-0.472-3.679c0,0-3.311-9.654-1.892-9.885c0,0-3.309-4.366-1.419-4.595  c0,0-3.309-4.14-1.89-4.14c0,0-2.838-2.068-1.419-2.757c0,0-1.655-2.53-2.599-4.139c0,0-4.021-2.76-3.31-4.138  c0,0-5.911-5.517-3.782-5.746c0,0-3.646-3.908-2.769-4.597c0,0-6.453-5.977-5.035-6.206c0,0-11.345-8.736-6.381-7.357  c0,0-17.021-7.585-3.782-5.518l14.42,4.369c0,0-20.248-8.506-19.461-11.265c0,0,7.877-0.23,19.696,6.668  c0,0-16.311-9.884-15.837-11.265c0,0-4.965-4.137,12.528,3.91l8.746,5.286c0,0-10.164-7.126-9.217-8.965  c0,0,14.418,5.976,17.729,10.114l13.474,9.885c0,0,13.237,11.724,14.421,13.331c0,0,9.454,9.656,11.581,12.646l3.547,22.754  l0.236,1.325l0.71,3.965l5.91-2.299c0,0-12.53-1.841-4.019-2.991l9.454,0.462c0,0-19.384-7.276-4.254-6.168l10.165,4.101  c0,0-19.385-12.873-1.42-5.289l10.167,7.356c0,0,3.309,2.76,1.89,3.908c0,0,5.676,4.138-1.181,7.356  C115.604,84.4,106.856,89.688,105.203,99.34z"/>
</svg>