<?xml version="1.0" encoding="utf-8"?>
<!-- Generator: Adobe Illustrator 14.0.0, SVG Export Plug-In . SVG Version: 6.00 Build 43363)  -->
<!DOCTYPE svg PUBLIC "-//W3C//DTD SVG 1.0//EN" "http://www.w3.org/TR/2001/REC-SVG-20010904/DTD/svg10.dtd">
<svg version="1.0" id="Layer_1" xmlns="http://www.w3.org/2000/svg" xmlns:xlink="http://www.w3.org/1999/xlink" x="0px" y="0px"
	 width="90.321px" height="100px" viewBox="0 0 90.321 100" enable-background="new 0 0 90.321 100" xml:space="preserve">
<path fill-rule="evenodd" clip-rule="evenodd" d="M77.6,83.44v-6.752H62.644v-3.862h25.388c0.911,0,1.65-0.747,1.65-1.667V1.669
	c0-0.922-0.739-1.669-1.65-1.669H1.97C1.059,0,0.32,0.747,0.32,1.669v69.49c0,0.92,0.739,1.667,1.65,1.667h25.693v3.862H12.72v6.752
	L0,92.602V100h90.321v-7.398L77.6,83.44z M6.36,66.249V6.041c0-0.795,0.636-1.44,1.417-1.44h74.127c0.781,0,1.417,0.646,1.417,1.44
	v60.208c0,0.796-0.636,1.438-1.417,1.438H7.777C6.996,67.688,6.36,67.045,6.36,66.249z M4.444,92.278l11.458-8.204h58.518
	l11.443,8.204H4.444z"/>
</svg>
