<svg xmlns="http://www.w3.org/2000/svg" xmlns:xlink="http://www.w3.org/1999/xlink" version="1.1" id="Layer_1" x="0px" y="0px" width="100px" height="100px" viewBox="0 0 100 100" enable-background="new 0 0 100 100" xml:space="preserve">
<path fill="#000000" d="M85.124,23.061c-1.26-1.399-2.81-2.46-4.569-3.149c0.209,1.529,0.319,3.22,0.319,5.01  c0.38,0.28,0.74,0.61,1.06,0.97c1.621,1.84,2.26,4.4,1.78,7.21c-0.521,3-2.18,5.891-4.72,8.15c-0.27,0.24-0.54,0.46-0.82,0.67  c-0.64,2.07-1.41,4.13-2.32,6.15c2.131-0.83,4.17-2.07,5.961-3.65c3.25-2.89,5.43-6.65,6.09-10.6  C88.604,29.711,87.624,25.891,85.124,23.061z"/>
<path fill="#000000" d="M24.984,41.931c-0.28-0.21-0.56-0.439-0.83-0.68c-2.54-2.26-4.2-5.15-4.72-8.15  c-0.48-2.81,0.16-5.37,1.78-7.21c0.32-0.359,0.68-0.689,1.07-0.979c0-1.79,0.12-3.48,0.33-5.011c-1.77,0.69-3.33,1.761-4.59,3.16  c-2.5,2.83-3.48,6.65-2.78,10.761c0.66,3.949,2.84,7.71,6.09,10.6c1.79,1.58,3.83,2.82,5.96,3.65  C26.394,46.051,25.624,44.001,24.984,41.931z"/>
<path fill="#000000" d="M77.864,23.521c-0.03-1.21-0.13-2.34-0.29-3.39c-0.04-0.35-0.1-0.69-0.16-1.02  c-0.29-1.511-0.7-2.801-1.221-3.79H26.974c-0.83,1.569-1.37,3.869-1.59,6.64c-0.01,0.16-0.02,0.33-0.04,0.49  c-0.02,0.35-0.03,0.699-0.04,1.06c-0.21,5.86,0.9,13.42,3.65,20.64c0.63,1.671,1.35,3.32,2.17,4.931  c2.51,4.979,5.89,9.54,10.26,12.939c-5.04,10.15,4.27,18.17,6.08,19.88h-4.47c-0.4,0-0.72,0.33-0.72,0.73v4.42  c0,0.4,0.32,0.72,0.72,0.72h17.18c0.4,0,0.721-0.319,0.721-0.72v-4.42c0-0.4-0.32-0.73-0.721-0.73h-4.47  c1.81-1.71,11.12-9.729,6.08-19.88c4.37-3.409,7.75-7.97,10.26-12.949c0.82-1.61,1.54-3.261,2.181-4.931  C76.964,36.921,78.074,29.381,77.864,23.521z"/>
</svg>