<svg xmlns="http://www.w3.org/2000/svg" xmlns:xlink="http://www.w3.org/1999/xlink" version="1.1" id="Layer_1" x="0px" y="0px" width="100px" height="100px" viewBox="0 0 100 100" enable-background="new 0 0 100 100" xml:space="preserve">
<g>
	<path fill="#000000" d="M71.504,30.307c0,0.227-0.007,0.454-0.017,0.679c-0.04,1.341-0.201,2.652-0.479,3.919   c-0.327,1.312-0.8,2.706-1.37,4.17c-0.004,0.009-0.012,0.023-0.014,0.037c-3.089,7.934-8.894,18.302-9.418,29.409   c0,1.485-20.411,1.485-20.411,0c-0.523-11.107-6.33-21.476-9.421-29.409c-0.005-0.014-0.007-0.028-0.012-0.037   c-0.57-1.464-1.046-2.857-1.369-4.17c-0.282-1.268-0.447-2.578-0.485-3.919c-0.012-0.225-0.012-0.452-0.012-0.679   c0-11.875,9.629-21.503,21.504-21.503C61.871,8.804,71.504,18.432,71.504,30.307z"/>
</g>
<path fill="#000000" d="M50,83.666c-5.738,0-8.756-0.396-10.206-0.858v2.83c0,0.194,0.038,0.374,0.266,0.459  c0,0,0.099,0.038,0.158,0.057c1.331,0.412,5.556,1.103,9.782,1.103s8.453-0.69,9.777-1.103c0.008,0,0.008,0,0.008,0  c0.057-0.019,0.158-0.057,0.158-0.057c0.22-0.085,0.263-0.265,0.263-0.459v-2.831C58.754,83.269,55.737,83.666,50,83.666z"/>
<path fill="#000000" d="M50.002,76.49h-0.003h-0.101c-5.478,0-8.519-0.37-10.091-0.802v2.035c1.531,0.554,6.256,0.893,10.191,0.873  l0,0c0.001,0,0.001,0,0.002,0h0.001l0,0c3.933,0.02,8.659-0.319,10.19-0.873v-2.035c-1.572,0.432-4.614,0.802-10.09,0.802H50.002z"/>
<path fill="#000000" d="M50.002,80.046h-0.003h-0.162c-5.446,0-8.457-0.369-10.029-0.792v2.024  c1.511,0.555,6.235,0.874,10.191,0.874l0,0c0.001,0,0.001,0,0.002,0h0.001l0,0c3.954,0,8.68-0.319,10.19-0.874v-2.024  c-1.572,0.423-4.584,0.792-10.028,0.792H50.002z"/>
<path fill="#000000" d="M50.001,72.297c-4.737,0-8.538-0.329-10.193-0.822v2.693c1.511,0.545,6.146,0.874,10.07,0.874h0.121h0.003  h0.121c3.926,0,8.559-0.329,10.069-0.874v-2.693C58.538,71.968,54.738,72.297,50.001,72.297z"/>
</svg>