<svg xmlns="http://www.w3.org/2000/svg" xmlns:xlink="http://www.w3.org/1999/xlink" version="1.1" id="Layer_1" x="0px" y="0px" width="100px" height="100px" viewBox="0 0 100 100" enable-background="new 0 0 100 100" xml:space="preserve">
<g>
	<path fill="#000000" d="M70.368,2.5H33.995c-0.532,0-0.961,0.43-0.961,0.96v88.162c0,0.531,0.43,0.961,0.961,0.961h36.373   c0.529,0,0.961-0.43,0.961-0.961V3.46C71.329,2.93,70.897,2.5,70.368,2.5z M52.181,84.25c-7.889,0-14.286-6.396-14.286-14.287   c0-7.89,6.396-14.286,14.286-14.286c7.891,0,14.287,6.396,14.287,14.286C66.468,77.854,60.071,84.25,52.181,84.25z M68.17,45.55   c0,0.503-0.409,0.911-0.912,0.911H37.104c-0.502,0-0.911-0.408-0.911-0.911V6.65c0-0.502,0.409-0.91,0.911-0.91h30.153   c0.503,0,0.912,0.408,0.912,0.91V45.55z"/>
	<circle fill="#000000" cx="52.182" cy="69.963" r="6.548"/>
</g>
</svg>