<svg xmlns="http://www.w3.org/2000/svg" xmlns:xlink="http://www.w3.org/1999/xlink" version="1.1" id="Layer_1" x="0px" y="0px" width="100px" height="100px" viewBox="0 0 100 100" enable-background="new 0 0 100 100" xml:space="preserve">
<path fill="#000000" d="M51.273,40.462c-0.146,0.062-0.299,0.129-0.467,0.2l0.385-0.169C51.217,40.48,51.249,40.471,51.273,40.462z"/>
<path fill="#000000" d="M52.753,67.4l-0.032,0.035l-0.031,0.041c-0.812,1.027-2.298,1.209-3.333,0.396L48.88,67.49l-0.521-0.416  c0.053-0.098,0.093-0.2,0.129-0.307l1.574-4.562c0.071,0.062,0.142,0.119,0.213,0.174c0.173,0.139,0.336,0.268,0.491,0.393  c0.086,0.07,0.166,0.133,0.246,0.195c0.108,0.09,0.215,0.174,0.312,0.254c0.062,0.049,0.119,0.094,0.176,0.143  c0.15,0.115,0.283,0.225,0.398,0.318c0.291,0.229,0.461,0.368,0.461,0.368C53.393,64.87,53.566,66.366,52.753,67.4z"/>
<path fill="#000000" d="M71.951,59.221l-0.062,0.081c-0.814,1.028-2.312,1.206-3.346,0.392c0,0-0.146-0.114-0.414-0.325  c-0.669-0.524-2.081-1.64-3.796-2.993c-0.231-0.184-0.468-0.37-0.704-0.557c-0.643-0.5-1.311-1.027-1.992-1.563  c-0.082-0.065-0.168-0.138-0.252-0.198c-0.384-0.306-0.771-0.611-1.158-0.916c-3.84-3.023-7.693-6.058-7.916-6.241  c-0.713-0.57-1.465,0.388-0.748,0.958c0.389,0.307,4.285,3.381,7.765,6.123c0.099,0.076,0.198,0.15,0.298,0.227  c0.214,0.169,0.43,0.338,0.643,0.508c0.262,0.209,0.526,0.414,0.778,0.61c0.117,0.089,0.231,0.183,0.345,0.271  c0.918,0.723,1.754,1.377,2.412,1.902c0.145,0.111,0.272,0.214,0.389,0.303c0.166,0.129,0.312,0.249,0.445,0.352  c0.07,0.055,0.139,0.107,0.2,0.158c0.005,0,0.011,0.006,0.011,0.006c0.004,0.008,0.004,0.008,0.008,0.011  c0.312,0.241,0.48,0.375,0.48,0.375c1.034,0.815,1.207,2.312,0.395,3.345l-0.024,0.021l-0.013,0.023l-0.027,0.029  c-0.814,1.033-2.311,1.209-3.341,0.393c0,0-0.13-0.103-0.369-0.289c-0.035-0.031-0.076-0.062-0.12-0.093  c-0.01-0.011-0.021-0.019-0.031-0.026c-0.054-0.045-0.115-0.09-0.178-0.139c-0.027-0.027-0.062-0.05-0.094-0.072  c-0.035-0.029-0.071-0.058-0.106-0.084c-0.081-0.066-0.165-0.135-0.259-0.205c-0.014-0.015-0.031-0.026-0.05-0.041  c-0.244-0.19-0.521-0.408-0.823-0.646c-0.07-0.058-0.141-0.11-0.211-0.165c-0.141-0.115-0.293-0.23-0.445-0.352  c-0.154-0.125-0.314-0.25-0.484-0.379c-0.133-0.11-0.275-0.219-0.418-0.33c-0.932-0.734-1.969-1.549-3.018-2.375  c-3.318-2.604-6.802-5.357-7.168-5.647c-0.717-0.565-1.479,0.388-0.757,0.958c0.423,0.334,4.065,3.225,6.999,5.551  c0.268,0.215,0.523,0.42,0.773,0.614c0.225,0.175,0.438,0.345,0.644,0.509c0.199,0.16,0.396,0.315,0.579,0.463  c0.307,0.24,0.588,0.465,0.842,0.664c0.098,0.076,0.188,0.147,0.271,0.215c0.054,0.043,0.103,0.08,0.146,0.119  c0.091,0.071,0.173,0.139,0.251,0.195c0.141,0.111,0.268,0.209,0.369,0.294c0.24,0.188,0.374,0.294,0.374,0.294  c1.028,0.812,1.207,2.312,0.392,3.342l-0.031,0.041l-0.004,0.008l-0.026,0.035c-0.815,1.029-2.312,1.198-3.345,0.383  c0,0-0.135-0.102-0.37-0.293c-0.031-0.025-0.071-0.055-0.106-0.08c-0.01-0.01-0.019-0.019-0.027-0.021  c-0.088-0.07-0.188-0.146-0.293-0.236c-0.549-0.432-1.34-1.055-2.246-1.772c-0.209-0.169-0.432-0.345-0.659-0.521  c-0.362-0.295-0.743-0.597-1.128-0.904c-0.266-0.213-0.535-0.428-0.805-0.641c0.044-0.58-0.067-1.158-0.329-1.693  c-0.393-0.803-1.075-1.402-1.921-1.692c-0.347-0.119-0.712-0.185-1.082-0.185c-0.339,0-0.673,0.056-0.985,0.151  c-0.553-0.436-0.971-0.766-1.181-0.934c-0.036-0.099-0.076-0.197-0.124-0.295c-0.392-0.802-1.074-1.403-1.92-1.693  c-0.352-0.119-0.712-0.177-1.083-0.177c-1.074,0-2.059,0.511-2.677,1.34c-0.263-1.062-1.043-1.979-2.157-2.361  c-0.351-0.119-0.717-0.178-1.082-0.178c-1.123,0-2.143,0.566-2.753,1.462c-0.271-1.053-1.047-1.952-2.147-2.33  c-0.353-0.12-0.717-0.183-1.087-0.183c-1.425,0-2.695,0.908-3.159,2.258l-0.022,0.072c-0.213-0.072-0.423-0.161-0.575-0.245  l-7.568-4.353c-0.29-0.165-0.397-0.543-0.232-0.837l8.094-14.581c0.161-0.294,0.552-0.432,0.865-0.312l3.835,1.483  c0.312,0.12,0.829,0.138,1.149,0.036l9.133-2.936c0.32-0.103,0.851-0.133,1.18-0.071l0.713,0.138  c0.33,0.062,0.379,0.276,0.107,0.477l-0.985,0.735c-0.009,0.008-0.018,0.013-0.026,0.026c-2.1,1.556-4.972,3.662-6.291,4.526  c-1.323,0.865-1.863,2.215-1.448,3.608c0.525,1.76,2.401,3.034,4.455,3.034c0.681,0,1.354-0.138,2.004-0.41  c1.942-0.81,4.798-2.018,7.172-3.024c0.031-0.004,0.058-0.013,0.084-0.027l0.9-0.388c0.574-0.245,1.105-0.467,1.558-0.664  l0.385-0.169c0.024-0.013,0.058-0.022,0.084-0.031c0.004,0,0.004,0,0.008,0c0.301-0.089,0.703-0.019,0.939,0.169l2.623,2.076  c0.262,0.205,0.693,0.548,0.956,0.753l8.037,6.335l7.238,5.701l0.481,0.379C72.593,56.689,72.768,58.191,71.951,59.221z"/>
<path fill="#000000" d="M52.323,62.428c-0.367-0.289-0.748-0.592-1.132-0.898l0.004-0.006C51.58,61.832,51.96,62.134,52.323,62.428z  "/>
<path fill="#000000" d="M59.625,54.205c-0.1-0.075-0.199-0.15-0.299-0.227l0.006-0.006C59.43,54.049,59.525,54.125,59.625,54.205z"/>
<path fill="#000000" d="M45.041,33.404c0.268-0.201,0.749-0.451,1.067-0.554l8.886-2.887c0.318-0.104,0.826-0.069,1.129,0.077  l11.391,5.518c0.301,0.146,0.805,0.166,1.116,0.045l3.835-1.485c0.312-0.121,0.701,0.02,0.864,0.313l8.095,14.582  c0.164,0.293,0.074,0.694-0.195,0.892l-7.479,5.447c-0.271,0.195-0.708,0.188-0.97-0.021L52.588,39.275  c-0.263-0.208-0.727-0.272-1.033-0.141c0,0-6.974,2.967-10.894,4.605c-3.496,1.463-6.821-2.407-3.97-4.275  C38.946,37.985,45.041,33.404,45.041,33.404z"/>
<g>
	<g>
		<path fill="#000000" d="M47.854,58.339c1.282,0.438,1.963,1.832,1.524,3.111l-1.731,5.028c-0.439,1.279-1.831,1.961-3.11,1.521    l0,0c-1.28-0.438-1.961-1.831-1.522-3.109l1.727-5.031C45.18,58.58,46.573,57.898,47.854,58.339L47.854,58.339z"/>
	</g>
	<g>
		<path fill="#000000" d="M42.561,55.389c1.282,0.438,1.962,1.832,1.524,3.11l-1.73,5.03c-0.439,1.279-1.832,1.96-3.111,1.521l0,0    c-1.279-0.438-1.961-1.832-1.522-3.112l1.727-5.029C39.888,55.629,41.28,54.948,42.561,55.389L42.561,55.389z"/>
	</g>
	<g>
		<path fill="#000000" d="M36.644,54.189c1.278,0.438,1.96,1.832,1.521,3.111l-1.044,3.04c-0.439,1.279-1.833,1.96-3.111,1.521l0,0    c-1.28-0.438-1.96-1.832-1.522-3.11l1.043-3.041C33.971,54.432,35.363,53.75,36.644,54.189L36.644,54.189z"/>
	</g>
	<g>
		<path fill="#000000" d="M30.659,53.141c1.279,0.44,1.96,1.834,1.521,3.112l-0.377,1.101c-0.44,1.278-1.833,1.961-3.112,1.521l0,0    c-1.279-0.439-1.96-1.834-1.521-3.113l0.377-1.1C27.986,53.383,29.38,52.702,30.659,53.141L30.659,53.141z"/>
	</g>
</g>
<path fill="#000000" d="M97.062,42.009c0.248,0.456,0.078,1.033-0.379,1.281l-11.475,6.251c-0.456,0.249-1.033,0.079-1.281-0.377  l-8.643-15.865c-0.249-0.457-0.079-1.033,0.377-1.281l11.477-6.251c0.457-0.249,1.033-0.079,1.28,0.377L97.062,42.009z"/>
<path fill="#000000" d="M2.667,42.009c-0.248,0.456-0.078,1.033,0.377,1.281l11.476,6.251c0.456,0.249,1.032,0.079,1.28-0.377  l8.644-15.865c0.249-0.457,0.079-1.033-0.377-1.281L12.59,25.766c-0.456-0.249-1.033-0.079-1.281,0.377L2.667,42.009z"/>
</svg>