<svg xmlns="http://www.w3.org/2000/svg" xmlns:xlink="http://www.w3.org/1999/xlink" version="1.1" id="Layer_1" x="0px" y="0px" width="100px" height="100px" viewBox="0 0 100 100" enable-background="new 0 0 100 100" xml:space="preserve">
<path fill="#000000" d="M45.468,12.848H12.854c-0.198,0-0.36,0.162-0.36,0.36v32.613c0,0.198,0.162,0.36,0.36,0.36h32.614  c0.198,0,0.36-0.162,0.36-0.36V13.208C45.828,13.01,45.666,12.848,45.468,12.848z M37.227,29.694l-6.688,3.861  c-0.172,0.099-0.452,0.261-0.624,0.36l-6.688,3.861c-0.172,0.099-0.312,0.018-0.312-0.18v-7.724c0-0.198,0-0.522,0-0.72V21.43  c0-0.198,0.14-0.279,0.312-0.18l6.689,3.862c0.171,0.099,0.452,0.261,0.624,0.36l6.687,3.862  C37.399,29.433,37.399,29.595,37.227,29.694z"/>
<path fill="#000000" d="M45.468,53.82H12.854c-0.198,0-0.36,0.162-0.36,0.359v32.611c0,0.198,0.162,0.359,0.36,0.359h32.614  c0.198,0,0.36-0.161,0.36-0.359V54.18C45.828,53.982,45.666,53.82,45.468,53.82z M28.673,70.123c0,0.199,0,0.523,0,0.721v3.479  c0,0.198-0.14,0.278-0.312,0.181l-3.013-1.738c-0.172-0.099-0.453-0.261-0.624-0.359l-3.012-1.739c-0.171-0.099-0.171-0.261,0-0.358  l3.012-1.744c0.172-0.099,0.452-0.26,0.624-0.358l3.013-1.738c0.172-0.098,0.312-0.017,0.312,0.183V70.123z M36.175,70.123  c0,0.199,0,0.523,0,0.721v3.479c0,0.198-0.14,0.278-0.312,0.181l-3.013-1.738c-0.172-0.099-0.453-0.261-0.624-0.359l-3.012-1.739  c-0.171-0.099-0.171-0.261,0-0.358l3.012-1.744c0.172-0.099,0.452-0.26,0.624-0.358l3.013-1.738  c0.172-0.098,0.312-0.017,0.312,0.183V70.123z"/>
<path fill="#000000" d="M87.505,45.821V13.208c0-0.198-0.162-0.36-0.36-0.36H54.532c-0.198,0-0.36,0.162-0.36,0.36v32.613  c0,0.198,0.162,0.36,0.36,0.36h32.614C87.344,46.181,87.506,46.019,87.505,45.821L87.505,45.821z M69.4,37.598  c0,0.198-0.162,0.36-0.359,0.36h-5.154c-0.197,0-0.359-0.162-0.359-0.36V21.43c0-0.198,0.162-0.36,0.359-0.36h5.154  c0.197,0,0.359,0.162,0.359,0.36V37.598z M78.15,37.598c0,0.198-0.162,0.36-0.359,0.36h-5.154c-0.197,0-0.359-0.162-0.359-0.36  V21.43c0-0.198,0.162-0.36,0.359-0.36h5.154c0.197,0,0.359,0.162,0.359,0.36V37.598z"/>
<g>
	<g>
		<path fill="#000000" d="M87.146,53.818H54.532c-0.198,0-0.36,0.162-0.36,0.361v32.61c0,0.198,0.162,0.358,0.36,0.358h32.612    c0.197,0,0.359-0.16,0.359-0.358V54.18C87.506,53.98,87.344,53.818,87.146,53.818z M70.922,70.665l-3.012,1.739    c-0.172,0.1-0.452,0.262-0.623,0.359l-3.014,1.738c-0.172,0.1-0.312,0.02-0.312-0.182v-7.676c0-0.196,0.141-0.277,0.312-0.181    l3.014,1.738c0.171,0.099,0.451,0.261,0.623,0.358l3.012,1.739C71.093,70.404,71.093,70.566,70.922,70.665z M78.424,70.665    l-3.012,1.739c-0.171,0.1-0.452,0.262-0.623,0.359l-3.014,1.738c-0.172,0.1-0.312,0.02-0.312-0.182v-7.676    c0-0.196,0.141-0.277,0.312-0.181l3.014,1.738c0.171,0.099,0.452,0.261,0.623,0.358l3.012,1.739    C78.596,70.404,78.596,70.566,78.424,70.665z"/>
	</g>
</g>
</svg>