<svg xmlns="http://www.w3.org/2000/svg" xmlns:xlink="http://www.w3.org/1999/xlink" version="1.1" id="Layer_1" x="0px" y="0px" width="100px" height="100px" viewBox="0 0 100 100" enable-background="new 0 0 100 100" xml:space="preserve">
<g>
	<path fill="#000000" d="M58.668,68.824c0,0.54-0.117,1.012-0.354,1.416c-0.236,0.405-0.658,0.744-1.267,1.014   c-0.606,0.27-1.383,0.473-2.326,0.606c-0.947,0.136-2.128,0.203-3.544,0.203c-1.418,0-2.599-0.067-3.544-0.203   c-0.945-0.134-1.72-0.337-2.329-0.606c-0.606-0.27-1.03-0.608-1.264-1.014c-0.238-0.404-0.355-0.876-0.355-1.416l-1.721-56.873   c-0.067-0.81,0.033-1.518,0.304-2.125c0.27-0.607,0.759-1.114,1.468-1.519c0.709-0.405,1.653-0.691,2.834-0.86   c1.18-0.168,2.715-0.253,4.606-0.253c1.821,0,3.323,0.102,4.506,0.303c1.18,0.203,2.125,0.507,2.834,0.912   c0.707,0.405,1.196,0.895,1.468,1.468c0.268,0.574,0.404,1.265,0.404,2.075L58.668,68.824z"/>
</g>
<path fill="#000000" d="M60.742,85.642c0,4.597-4.291,8.318-9.574,8.318c-1.257,0-2.448-0.209-3.549-0.591  c-1.535,0.84-2.901,1.413-4.73,1.772c-0.546,0.112-0.763,0.101-0.811,0.033c-0.054-0.08,0.125-0.236,0.284-0.364  c1.771-1.382,2.067-2.106,2.495-2.917c-2.002-1.517-3.265-3.757-3.265-6.252c0-4.597,4.284-8.324,9.576-8.324  C56.451,77.317,60.742,81.045,60.742,85.642z"/>
</svg>