<svg xmlns="http://www.w3.org/2000/svg" xmlns:xlink="http://www.w3.org/1999/xlink" version="1.1" width="100" height="100" viewBox="0 0 100 100">

<title>Upload</title>
<script type="text/javascript">
var metadata = {
	"Designer": "Anas Ramadan",
	"Organization": "RichStyle.org",
	"Year": "2012",
	"Country": "Syria",
	"License": "CC-BY-3.0"
   }
</script>

<path d="m 45.6875,22.421875 c -12.85,0 -23.378,10.14575 -24,22.84375 -5.901,0.703 -10.968249,4.62475 -13.15625,10.09375 C 3.6282502,56.584375 0,61.018875 0,66.296875 c 0,6.22 5.0602498,11.28125 11.28125,11.28125 l 35.15625,0 0,-21.78125 -11.0625,11.0625 0,-9.6875 14.625,-14.59375 14.625,14.59375 0,9.6875 -11.09375,-11.125 0,21.84375 24.4375,0 c 12.154002,0 22.03125,-9.87825 22.03125,-22.03125 0,-12.153001 -9.878249,-22.0625 -22.03125,-22.0625 -3.731,0 -7.359497,0.9375 -10.5625,2.6875 -3.901,-8.22 -12.30175,-13.75 -21.71875,-13.75 z"/>
</svg>