<svg xmlns:svg="http://www.w3.org/2000/svg" xmlns="http://www.w3.org/2000/svg" width="100" height="100" viewBox="0 0 100 100">

<title/>
<script type="text/javascript">
var metadata = {
	"Designer": "Anas Ramadan",
	"Organization": "RichStyle.org",
	"Year": "2012",
	"Country": "Syria",
	"License": "CC-BY-3.0"
   }
</script>

<path d="M 0 5 L 0 100 L 20 100 L 20 82.5 C 20 81.115 20.892 80 22 80 L 78 80 C 79.108 80 80 81.115 80 82.5 L 80 100 L 100 100 L 100 5 L 80 5 L 80 22.5 C 80 23.885 79.108 25 78 25 L 22 25 C 20.892 25 20 23.885 20 22.5 L 20 5 L 0 5 z M 7 10 L 13 10 C 14.108 10 15 10.446 15 11 L 15 14 C 15 14.554 14.108 15 13 15 L 7 15 C 5.892 15 5 14.554 5 14 L 5 11 C 5 10.446 5.892 10 7 10 z M 87 10 L 93 10 C 94.108 10 95 10.446 95 11 L 95 14 C 95 14.554 94.108 15 93 15 L 87 15 C 85.892 15 85 14.554 85 14 L 85 11 C 85 10.446 85.892 10 87 10 z M 7 20.53125 L 13 20.53125 C 14.108 20.53125 15 20.97725 15 21.53125 L 15 24.53125 C 15 25.08525 14.108 25.53125 13 25.53125 L 7 25.53125 C 5.892 25.53125 5 25.08525 5 24.53125 L 5 21.53125 C 5 20.97725 5.892 20.53125 7 20.53125 z M 87 20.53125 L 93 20.53125 C 94.108 20.53125 95 20.97725 95 21.53125 L 95 24.53125 C 95 25.08525 94.108 25.53125 93 25.53125 L 87 25.53125 C 85.892 25.53125 85 25.08525 85 24.53125 L 85 21.53125 C 85 20.97725 85.892 20.53125 87 20.53125 z M 7 30 L 13 30 C 14.108 30 15 30.446 15 31 L 15 34 C 15 34.554 14.108 35 13 35 L 7 35 C 5.892 35 5 34.554 5 34 L 5 31 C 5 30.446 5.892 30 7 30 z M 22 30 L 78 30 C 79.108 30 80 31.0035 80 32.25 L 80 72.75 C 80 73.9965 79.108 75 78 75 L 22 75 C 20.892 75 20 73.9965 20 72.75 L 20 32.25 C 20 31.0035 20.892 30 22 30 z M 87 30 L 93 30 C 94.108 30 95 30.446 95 31 L 95 34 C 95 34.554 94.108 35 93 35 L 87 35 C 85.892 35 85 34.554 85 34 L 85 31 C 85 30.446 85.892 30 87 30 z M 7 40 L 13 40 C 14.108 40 15 40.446 15 41 L 15 44 C 15 44.554 14.108 45 13 45 L 7 45 C 5.892 45 5 44.554 5 44 L 5 41 C 5 40.446 5.892 40 7 40 z M 87 40 L 93 40 C 94.108 40 95 40.446 95 41 L 95 44 C 95 44.554 94.108 45 93 45 L 87 45 C 85.892 45 85 44.554 85 44 L 85 41 C 85 40.446 85.892 40 87 40 z M 7 50 L 13 50 C 14.108 50 15 50.446 15 51 L 15 54 C 15 54.554 14.108 55 13 55 L 7 55 C 5.892 55 5 54.554 5 54 L 5 51 C 5 50.446 5.892 50 7 50 z M 87 50 L 93 50 C 94.108 50 95 50.446 95 51 L 95 54 C 95 54.554 94.108 55 93 55 L 87 55 C 85.892 55 85 54.554 85 54 L 85 51 C 85 50.446 85.892 50 87 50 z M 7 60 L 13 60 C 14.108 60 15 60.446 15 61 L 15 64 C 15 64.554 14.108 65 13 65 L 7 65 C 5.892 65 5 64.554 5 64 L 5 61 C 5 60.446 5.892 60 7 60 z M 87 60 L 93 60 C 94.108 60 95 60.446 95 61 L 95 64 C 95 64.554 94.108 65 93 65 L 87 65 C 85.892 65 85 64.554 85 64 L 85 61 C 85 60.446 85.892 60 87 60 z M 7 70 L 13 70 C 14.108 70 15 70.446 15 71 L 15 74 C 15 74.554 14.108 75 13 75 L 7 75 C 5.892 75 5 74.554 5 74 L 5 71 C 5 70.446 5.892 70 7 70 z M 87 70 L 93 70 C 94.108 70 95 70.446 95 71 L 95 74 C 95 74.554 94.108 75 93 75 L 87 75 C 85.892 75 85 74.554 85 74 L 85 71 C 85 70.446 85.892 70 87 70 z M 7 80 L 13 80 C 14.108 80 15 80.446 15 81 L 15 84 C 15 84.554 14.108 85 13 85 L 7 85 C 5.892 85 5 84.554 5 84 L 5 81 C 5 80.446 5.892 80 7 80 z M 87 80 L 93 80 C 94.108 80 95 80.446 95 81 L 95 84 C 95 84.554 94.108 85 93 85 L 87 85 C 85.892 85 85 84.554 85 84 L 85 81 C 85 80.446 85.892 80 87 80 z M 7 90 L 13 90 C 14.108 90 15 90.446 15 91 L 15 94 C 15 94.554 14.108 95 13 95 L 7 95 C 5.892 95 5 94.554 5 94 L 5 91 C 5 90.446 5.892 90 7 90 z M 87 90 L 93 90 C 94.108 90 95 90.446 95 91 L 95 94 C 95 94.554 94.108 95 93 95 L 87 95 C 85.892 95 85 94.554 85 94 L 85 91 C 85 90.446 85.892 90 87 90 z "/>
</svg>