<svg xmlns="http://www.w3.org/2000/svg" xmlns:xlink="http://www.w3.org/1999/xlink" version="1.1" id="Knight" x="0px" y="0px" width="100px" height="100px" viewBox="0 0 100 100" enable-background="new 0 0 100 100" xml:space="preserve">
<path d="M67.243,82.945c0.456,0,0.825-0.695,0.825-1.199c0-0.508-0.369-1.029-0.825-1.029H31.077c-0.456,0-0.825,0.521-0.825,1.029  c0,0.504,0.369,1.199,0.825,1.199H67.243z"/>
<path d="M65.178,84.76c0-0.336,0.064-0.637,0.146-0.916h-32.33c0.083,0.279,0.145,0.58,0.145,0.916  c0,4.268-7.985,5.621-7.985,10.494c0,2.596,3.638,4.154,5.607,4.154h36.796c1.97,0,5.607-1.559,5.607-4.154  C73.165,90.381,65.178,89.027,65.178,84.76z"/>
<path d="M68.068,31.341c0-11.49-24.215-16.811-33.115-8.158c-1.935,1.881,3.089,7.69,3.089,7.69L32.07,43.965  c0,0-2.895,14.45-2.895,20.874c0,1.505,3.71,2.36,3.71,2.36l8.495-12.001l-4.119,13.118l5.718-2.597  c4.048-5.927,20.858-27.529,4.789-23.653l-0.085-0.632c3.586-0.86,5.828-0.545,6.848,0.962c2.48,3.666-3.658,12.908-9.607,21.283  c-0.606,0.854-1.219,1.884-1.619,2.471l-2.617,1.188c-1.449,4.669-4.011,9.125-8.263,12.479h33.47  c6.512-4.102-5.23-12.136-5.23-18.563S68.068,44.939,68.068,31.341z M30.222,64.655l0.169-1.906l1.796,3.173L30.222,64.655z   M35.993,45.804v-4.159l2.05-4.124C40.763,44.444,35.993,45.804,35.993,45.804z M49.589,34.96l-0.299-0.387l9.48-5.492l-0.237-0.752  l-12.419,2.129l-0.463-0.601l13.115-2.15l0.498,1.583L49.589,34.96z"/>
</svg>