<svg xmlns="http://www.w3.org/2000/svg" xmlns:xlink="http://www.w3.org/1999/xlink" version="1.1" id="Pawn" x="0px" y="0px" width="100px" height="100px" viewBox="0 0 100 100" enable-background="new 0 0 100 100" xml:space="preserve">
<path d="M55.065,33.447H43.254c0,0-9.985,3.521-10.316,3.918v0.601c0,0.306,0.493,0.55,1.121,0.588h30.202  c0.629-0.038,1.121-0.282,1.121-0.588v-0.601C65.051,36.969,55.065,33.447,55.065,33.447z"/>
<path d="M67.243,82.945c0.456,0,0.825-0.695,0.825-1.199c0-0.508-0.369-1.029-0.825-1.029H31.077c-0.456,0-0.825,0.521-0.825,1.029  c0,0.504,0.369,1.199,0.825,1.199H67.243z"/>
<path d="M32.425,79.818h33.47c-3.771-2.193-12.762-27.109-7.734-40.33h-18C45.187,52.709,36.197,77.625,32.425,79.818z"/>
<path d="M65.178,84.76c0-0.336,0.064-0.637,0.146-0.916h-32.33c0.083,0.279,0.145,0.58,0.145,0.916  c0,4.268-7.985,5.621-7.985,10.494c0,2.596,3.638,4.154,5.607,4.154h36.796c1.97,0,5.607-1.559,5.607-4.154  C73.165,90.381,65.178,89.027,65.178,84.76z"/>
<circle cx="49.16" cy="22.465" r="10.144"/>
</svg>