<svg xmlns="http://www.w3.org/2000/svg" xmlns:xlink="http://www.w3.org/1999/xlink" version="1.1" id="Queen" x="0px" y="0px" width="100px" height="100px" viewBox="0 0 100 100" enable-background="new 0 0 100 100" xml:space="preserve">
<path d="M39.808,34.969H37.52c-0.551,0-0.997,0.54-0.997,1.208v1.202c0,0.613,0.384,1.101,0.873,1.176h23.528  c0.489-0.076,0.873-0.563,0.873-1.176v-1.202c0-0.668-0.447-1.208-0.997-1.208h-2.289V34.96H39.809L39.808,34.969z"/>
<path d="M59.683,34.026c0.267,0,0.481-0.694,0.481-1.2s-0.215-1.028-0.481-1.028H38.637c-0.266,0-0.481,0.521-0.481,1.028  s0.215,1.2,0.481,1.2H59.683z"/>
<path d="M67.243,82.945c0.456,0,0.825-0.695,0.825-1.199c0-0.508-0.369-1.029-0.825-1.029H31.077c-0.456,0-0.825,0.521-0.825,1.029  c0,0.504,0.369,1.199,0.825,1.199H67.243z"/>
<path d="M58.541,28.857H39.778c-0.227,0.023-0.409,0.705-0.409,1.089c0,0.389,0.189,0.918,0.421,0.918h18.739  c0.233,0,0.422-0.529,0.422-0.918C58.951,29.562,58.768,28.881,58.541,28.857z"/>
<path d="M32.425,79.818h33.47c-3.771-2.193-12.762-27.109-7.734-40.33h-18C45.187,52.709,36.197,77.625,32.425,79.818z"/>
<path d="M65.178,84.76c0-0.336,0.064-0.637,0.146-0.916h-32.33c0.083,0.279,0.145,0.58,0.145,0.916  c0,4.268-7.985,5.621-7.985,10.494c0,2.596,3.638,4.154,5.607,4.154h36.796c1.97,0,5.607-1.559,5.607-4.154  C73.165,90.381,65.178,89.027,65.178,84.76z"/>
<path d="M62.439,16.923c0-0.553-0.448-1.002-1.002-1.002c-0.553,0-1.002,0.449-1.002,1.002c0,0.274,0.111,0.521,0.29,0.703  c-1.059,0.063-2.493,0.101-3.529-0.625c0.321-0.167,0.548-0.493,0.548-0.88c0-0.553-0.448-1.002-1.002-1.002  c-0.553,0-1.002,0.449-1.002,1.002c0,0.295,0.134,0.554,0.337,0.737c-0.971,0.299-2.79,0.657-3.973-0.311  c0.344-0.159,0.585-0.502,0.585-0.905c0-0.553-0.448-1.002-1.002-1.002c-0.553,0-1.002,0.449-1.002,1.002  c0,0.322,0.162,0.595,0.397,0.779c-1.286,0.532-2.649,0.421-3.815-0.021c0.219-0.184,0.367-0.45,0.367-0.758  c0-0.553-0.449-1.002-1.002-1.002c-0.554,0-1.002,0.449-1.002,1.002c0,0.403,0.241,0.746,0.584,0.905  c-1.183,0.968-3.001,0.61-3.973,0.312c0.204-0.184,0.337-0.442,0.337-0.738c0-0.553-0.449-1.002-1.002-1.002  c-0.554,0-1.002,0.449-1.002,1.002c0,0.387,0.226,0.712,0.547,0.879c-1.073,0.753-2.578,0.685-3.644,0.62  c0.175-0.181,0.286-0.425,0.286-0.697c0-0.553-0.449-1.002-1.002-1.002c-0.554,0-1.002,0.449-1.002,1.002  c0,0.505,0.38,0.906,0.867,0.975l3.503,10.026c3.425-0.166,14.929-0.071,18.058,0l3.513-10.052  C62.123,17.754,62.439,17.383,62.439,16.923z"/>
</svg>