<svg xmlns="http://www.w3.org/2000/svg" xmlns:xlink="http://www.w3.org/1999/xlink" version="1.1" id="Layer_1" x="0px" y="0px" width="100px" height="100px" viewBox="0 0 100 100" enable-background="new 0 0 100 100" xml:space="preserve">
<g>
	
		<rect x="61.821" y="11.162" transform="matrix(-0.7071 -0.7071 0.7071 -0.7071 62.6845 148.7265)" width="0.646" height="100.437"/>
	<rect x="38.286" y="-12.342" transform="matrix(0.7068 0.7075 -0.7075 0.7068 38.1257 -16.229)" width="0.706" height="100.435"/>
	<path d="M3.979,74.233l21.828,21.829l71.02-71.019L74.998,3.215L3.979,74.233z M22.573,79.566l-2.139-2.139l6.418-6.418   l2.139,2.139L22.573,79.566z M35.408,66.731l-2.139-2.139l6.418-6.418l2.139,2.139L35.408,66.731z M48.243,53.896l-2.139-2.139   l6.418-6.418l2.139,2.139L48.243,53.896z M61.077,41.062l-2.139-2.139l6.418-6.418l2.139,2.139L61.077,41.062z M73.912,28.227   l-2.139-2.139l6.418-6.418l2.139,2.139L73.912,28.227z"/>
</g>
</svg>