<svg xmlns="http://www.w3.org/2000/svg" xmlns:xlink="http://www.w3.org/1999/xlink" version="1.1" id="Layer_1" x="0px" y="0px" width="100px" height="100px" viewBox="0 0 100 100" enable-background="new 0 0 100 100" xml:space="preserve">
<path d="M64.937,6.167H39.729c-8.229,0-8.229,0-8.229,11.085v66.414c0,11.121,0,11.121,8.229,11.084h25.208  c8.229,0,8.229,0,8.229-11.084V17.252C73.166,6.167,73.166,6.167,64.937,6.167z M68.667,89.667H36v-80h32.667V89.667z"/>
<path d="M62.043,24.314c0-5.447-4.61-9.856-10.308-9.856c-5.448,0-9.856,4.61-9.856,10.307l2.239-2.341  c-0.073,0.438-0.12,0.884-0.12,1.342c0,4.488,3.639,8.127,8.127,8.127c4.489,0,8.128-3.639,8.128-8.127  c0-0.432-0.043-0.852-0.108-1.265L62.043,24.314z M52.126,31.05c-3.935,0-7.125-3.19-7.125-7.125s3.19-7.125,7.125-7.125  c3.935,0,7.125,3.19,7.125,7.125S56.061,31.05,52.126,31.05z"/>
<path d="M62.043,48.299c0-5.447-4.61-9.856-10.308-9.856c-5.448,0-9.856,4.61-9.856,10.307l2.239-2.341  c-0.073,0.438-0.12,0.884-0.12,1.342c0,4.488,3.639,8.127,8.127,8.127c4.489,0,8.128-3.64,8.128-8.127  c0-0.432-0.043-0.852-0.108-1.265L62.043,48.299z M52.126,55.035c-3.935,0-7.125-3.189-7.125-7.125c0-3.935,3.19-7.125,7.125-7.125  c3.935,0,7.125,3.19,7.125,7.125C59.251,51.846,56.061,55.035,52.126,55.035z"/>
<path d="M62.043,74.525c0-5.447-4.61-9.855-10.308-9.855c-5.448,0-9.856,4.609-9.856,10.307l2.239-2.342  c-0.073,0.438-0.12,0.885-0.12,1.342c0,4.488,3.639,8.128,8.127,8.128c4.489,0,8.128-3.64,8.128-8.128  c0-0.432-0.043-0.852-0.108-1.265L62.043,74.525z M52.126,81.262c-3.935,0-7.125-3.189-7.125-7.125s3.19-7.125,7.125-7.125  c3.935,0,7.125,3.189,7.125,7.125S56.061,81.262,52.126,81.262z"/>
<circle cx="51.96" cy="24.008" r="0.857"/>
<circle cx="51.958" cy="22.027" r="0.857"/>
<circle cx="51.958" cy="20.13" r="0.857"/>
<circle cx="51.957" cy="18.213" r="0.857"/>
<circle cx="51.96" cy="25.897" r="0.857"/>
<circle cx="51.959" cy="27.814" r="0.857"/>
<circle cx="51.959" cy="29.708" r="0.857"/>
<circle cx="50.243" cy="23.002" r="0.857"/>
<circle cx="50.241" cy="21.021" r="0.857"/>
<circle cx="50.241" cy="19.124" r="0.857"/>
<circle cx="50.243" cy="24.892" r="0.857"/>
<circle cx="50.242" cy="26.809" r="0.857"/>
<circle cx="50.242" cy="28.702" r="0.857"/>
<path d="M54.533,22.947c0,0.473-0.387,0.856-0.857,0.856c-0.473,0-0.857-0.383-0.857-0.856c0-0.471,0.385-0.855,0.857-0.855  C54.146,22.092,54.533,22.476,54.533,22.947z"/>
<path d="M54.531,20.967c0,0.473-0.387,0.856-0.857,0.856c-0.473,0-0.857-0.383-0.857-0.856c0-0.471,0.385-0.855,0.857-0.855  C54.145,20.111,54.531,20.496,54.531,20.967z"/>
<path d="M54.531,19.069c0,0.473-0.387,0.856-0.857,0.856c-0.473,0-0.857-0.383-0.857-0.856c0-0.471,0.385-0.855,0.857-0.855  C54.145,18.214,54.531,18.598,54.531,19.069z"/>
<path d="M54.533,24.837c0,0.473-0.387,0.856-0.857,0.856c-0.473,0-0.857-0.383-0.857-0.856c0-0.471,0.385-0.855,0.857-0.855  C54.146,23.981,54.533,24.366,54.533,24.837z"/>
<circle cx="53.675" cy="26.754" r="0.856"/>
<circle cx="53.675" cy="28.647" r="0.856"/>
<path d="M56.25,22.148c0,0.473-0.387,0.856-0.857,0.856c-0.473,0-0.857-0.383-0.857-0.856c0-0.471,0.385-0.855,0.857-0.855  C55.863,21.293,56.25,21.677,56.25,22.148z"/>
<path d="M56.248,20.168c0,0.473-0.387,0.856-0.857,0.856c-0.473,0-0.857-0.383-0.857-0.856c0-0.471,0.385-0.855,0.857-0.855  C55.861,19.312,56.248,19.697,56.248,20.168z"/>
<path d="M56.25,24.038c0,0.473-0.387,0.856-0.857,0.856c-0.473,0-0.857-0.383-0.857-0.856c0-0.471,0.385-0.855,0.857-0.855  C55.863,23.183,56.25,23.567,56.25,24.038z"/>
<circle cx="55.392" cy="25.955" r="0.856"/>
<circle cx="55.392" cy="27.848" r="0.856"/>
<path d="M49.386,22.127c0,0.473-0.387,0.856-0.857,0.856c-0.473,0-0.857-0.383-0.857-0.856c0-0.471,0.385-0.855,0.857-0.855  C48.999,21.272,49.386,21.656,49.386,22.127z"/>
<path d="M49.384,20.147c0,0.473-0.387,0.856-0.857,0.856c-0.473,0-0.857-0.383-0.857-0.856c0-0.471,0.385-0.855,0.857-0.855  C48.997,19.292,49.384,19.676,49.384,20.147z"/>
<path d="M49.386,24.017c0,0.473-0.387,0.856-0.857,0.856c-0.473,0-0.857-0.383-0.857-0.856c0-0.471,0.385-0.855,0.857-0.855  C48.999,23.162,49.386,23.546,49.386,24.017z"/>
<circle cx="48.527" cy="25.934" r="0.856"/>
<circle cx="48.527" cy="27.827" r="0.856"/>
<path d="M57.962,23.057c0,0.473-0.387,0.856-0.857,0.856c-0.473,0-0.857-0.383-0.857-0.856c0-0.471,0.385-0.855,0.857-0.855  C57.575,22.202,57.962,22.586,57.962,23.057z"/>
<circle cx="57.104" cy="24.974" r="0.856"/>
<path d="M47.669,23.027c0,0.473-0.387,0.856-0.857,0.856c-0.473,0-0.857-0.383-0.857-0.856c0-0.471,0.385-0.855,0.857-0.855  C47.283,22.171,47.669,22.556,47.669,23.027z"/>
<circle cx="46.811" cy="24.944" r="0.856"/>
<path d="M57.962,21.167c0,0.473-0.387,0.856-0.857,0.856c-0.473,0-0.857-0.383-0.857-0.856c0-0.471,0.385-0.855,0.857-0.855  C57.575,20.312,57.962,20.696,57.962,21.167z"/>
<circle cx="57.104" cy="26.867" r="0.856"/>
<path d="M47.669,21.137c0,0.473-0.387,0.856-0.857,0.856c-0.473,0-0.857-0.383-0.857-0.856c0-0.471,0.385-0.855,0.857-0.855  C47.283,20.282,47.669,20.666,47.669,21.137z"/>
<circle cx="46.811" cy="26.837" r="0.856"/>
<circle cx="51.965" cy="47.917" r="0.857"/>
<circle cx="51.963" cy="45.936" r="0.857"/>
<circle cx="51.963" cy="44.039" r="0.857"/>
<circle cx="51.961" cy="42.122" r="0.857"/>
<circle cx="51.965" cy="49.806" r="0.857"/>
<path d="M52.821,51.723c0,0.474-0.386,0.857-0.856,0.857c-0.473,0-0.857-0.384-0.857-0.857c0-0.471,0.385-0.855,0.857-0.855  C52.436,50.868,52.821,51.252,52.821,51.723z"/>
<circle cx="51.964" cy="53.616" r="0.857"/>
<circle cx="50.248" cy="46.911" r="0.857"/>
<circle cx="50.246" cy="44.93" r="0.857"/>
<circle cx="50.246" cy="43.033" r="0.857"/>
<circle cx="50.248" cy="48.8" r="0.857"/>
<circle cx="50.247" cy="50.717" r="0.857"/>
<circle cx="50.247" cy="52.61" r="0.857"/>
<path d="M54.538,46.856c0,0.473-0.387,0.856-0.857,0.856c-0.473,0-0.857-0.383-0.857-0.856c0-0.471,0.385-0.855,0.857-0.855  C54.151,46,54.538,46.385,54.538,46.856z"/>
<path d="M54.536,44.875c0,0.473-0.387,0.856-0.857,0.856c-0.473,0-0.857-0.383-0.857-0.856c0-0.471,0.385-0.855,0.857-0.855  C54.149,44.02,54.536,44.404,54.536,44.875z"/>
<path d="M54.536,42.978c0,0.473-0.387,0.856-0.857,0.856c-0.473,0-0.857-0.383-0.857-0.856c0-0.471,0.385-0.855,0.857-0.855  C54.149,42.123,54.536,42.507,54.536,42.978z"/>
<path d="M54.538,48.746c0,0.473-0.387,0.856-0.857,0.856c-0.473,0-0.857-0.383-0.857-0.856c0-0.471,0.385-0.855,0.857-0.855  C54.151,47.89,54.538,48.274,54.538,48.746z"/>
<circle cx="53.68" cy="50.663" r="0.856"/>
<circle cx="53.68" cy="52.556" r="0.856"/>
<path d="M56.255,46.057c0,0.473-0.387,0.856-0.857,0.856c-0.473,0-0.857-0.383-0.857-0.856c0-0.471,0.385-0.855,0.857-0.855  C55.868,45.202,56.255,45.586,56.255,46.057z"/>
<path d="M56.253,44.077c0,0.473-0.387,0.856-0.857,0.856c-0.473,0-0.857-0.383-0.857-0.856c0-0.471,0.385-0.855,0.857-0.855  C55.866,43.221,56.253,43.605,56.253,44.077z"/>
<path d="M56.255,47.947c0,0.473-0.387,0.856-0.857,0.856c-0.473,0-0.857-0.383-0.857-0.856c0-0.471,0.385-0.855,0.857-0.855  C55.868,47.091,56.255,47.476,56.255,47.947z"/>
<circle cx="55.396" cy="49.864" r="0.856"/>
<circle cx="55.396" cy="51.757" r="0.856"/>
<path d="M49.391,46.036c0,0.473-0.387,0.856-0.857,0.856c-0.473,0-0.857-0.383-0.857-0.856c0-0.471,0.385-0.855,0.857-0.855  C49.004,45.181,49.391,45.565,49.391,46.036z"/>
<path d="M49.389,44.056c0,0.473-0.387,0.856-0.857,0.856c-0.473,0-0.857-0.383-0.857-0.856c0-0.471,0.385-0.855,0.857-0.855  C49.002,43.2,49.389,43.584,49.389,44.056z"/>
<path d="M49.391,47.926c0,0.473-0.387,0.856-0.857,0.856c-0.473,0-0.857-0.383-0.857-0.856c0-0.471,0.385-0.855,0.857-0.855  C49.004,47.07,49.391,47.455,49.391,47.926z"/>
<circle cx="48.532" cy="49.843" r="0.856"/>
<circle cx="48.532" cy="51.736" r="0.856"/>
<path d="M57.967,46.966c0,0.473-0.387,0.856-0.857,0.856c-0.473,0-0.857-0.383-0.857-0.856c0-0.471,0.385-0.855,0.857-0.855  C57.58,46.11,57.967,46.495,57.967,46.966z"/>
<circle cx="57.108" cy="48.883" r="0.856"/>
<path d="M47.674,46.936c0,0.473-0.387,0.856-0.857,0.856c-0.473,0-0.857-0.383-0.857-0.856c0-0.471,0.385-0.855,0.857-0.855  C47.288,46.08,47.674,46.464,47.674,46.936z"/>
<circle cx="46.816" cy="48.853" r="0.856"/>
<path d="M57.967,45.076c0,0.473-0.387,0.856-0.857,0.856c-0.473,0-0.857-0.383-0.857-0.856c0-0.471,0.385-0.855,0.857-0.855  C57.58,44.221,57.967,44.605,57.967,45.076z"/>
<circle cx="57.108" cy="50.776" r="0.856"/>
<path d="M47.674,45.046c0,0.473-0.387,0.856-0.857,0.856c-0.473,0-0.857-0.383-0.857-0.856c0-0.471,0.385-0.855,0.857-0.855  C47.288,44.19,47.674,44.575,47.674,45.046z"/>
<circle cx="46.816" cy="50.746" r="0.856"/>
<circle cx="51.963" cy="74.175" r="0.857"/>
<circle cx="51.961" cy="72.194" r="0.857"/>
<circle cx="51.961" cy="70.297" r="0.857"/>
<circle cx="51.959" cy="68.381" r="0.857"/>
<circle cx="51.963" cy="76.064" r="0.857"/>
<circle cx="51.962" cy="77.981" r="0.857"/>
<circle cx="51.962" cy="79.875" r="0.857"/>
<circle cx="50.246" cy="73.169" r="0.857"/>
<circle cx="50.244" cy="71.188" r="0.857"/>
<circle cx="50.244" cy="69.291" r="0.857"/>
<circle cx="50.246" cy="75.059" r="0.857"/>
<circle cx="50.245" cy="76.976" r="0.857"/>
<circle cx="50.245" cy="78.869" r="0.857"/>
<path d="M54.536,73.114c0,0.474-0.387,0.856-0.857,0.856c-0.473,0-0.857-0.383-0.857-0.856c0-0.472,0.385-0.855,0.857-0.855  C54.149,72.259,54.536,72.643,54.536,73.114z"/>
<path d="M54.534,71.134c0,0.474-0.387,0.856-0.857,0.856c-0.473,0-0.857-0.383-0.857-0.856c0-0.472,0.385-0.855,0.857-0.855  C54.147,70.278,54.534,70.662,54.534,71.134z"/>
<path d="M54.534,69.236c0,0.473-0.387,0.856-0.857,0.856c-0.473,0-0.857-0.384-0.857-0.856c0-0.471,0.385-0.855,0.857-0.855  C54.147,68.381,54.534,68.766,54.534,69.236z"/>
<path d="M54.536,75.004c0,0.473-0.387,0.856-0.857,0.856c-0.473,0-0.857-0.384-0.857-0.856c0-0.471,0.385-0.855,0.857-0.855  C54.149,74.148,54.536,74.533,54.536,75.004z"/>
<circle cx="53.678" cy="76.921" r="0.856"/>
<circle cx="53.678" cy="78.814" r="0.856"/>
<path d="M56.253,72.315c0,0.474-0.387,0.856-0.857,0.856c-0.473,0-0.857-0.383-0.857-0.856c0-0.472,0.385-0.855,0.857-0.855  C55.866,71.46,56.253,71.844,56.253,72.315z"/>
<path d="M56.251,70.335c0,0.474-0.387,0.856-0.857,0.856c-0.473,0-0.857-0.383-0.857-0.856c0-0.472,0.385-0.855,0.857-0.855  C55.864,69.479,56.251,69.863,56.251,70.335z"/>
<path d="M56.253,74.205c0,0.473-0.387,0.856-0.857,0.856c-0.473,0-0.857-0.384-0.857-0.856c0-0.471,0.385-0.855,0.857-0.855  C55.866,73.35,56.253,73.734,56.253,74.205z"/>
<circle cx="55.395" cy="76.122" r="0.856"/>
<circle cx="55.395" cy="78.016" r="0.856"/>
<path d="M49.389,72.295c0,0.473-0.387,0.855-0.857,0.855c-0.473,0-0.857-0.383-0.857-0.855c0-0.472,0.385-0.855,0.857-0.855  C49.002,71.439,49.389,71.823,49.389,72.295z"/>
<path d="M49.387,70.314c0,0.473-0.387,0.855-0.857,0.855c-0.473,0-0.857-0.383-0.857-0.855c0-0.472,0.385-0.855,0.857-0.855  C49,69.459,49.387,69.843,49.387,70.314z"/>
<path d="M49.389,74.184c0,0.474-0.387,0.857-0.857,0.857c-0.473,0-0.857-0.384-0.857-0.857c0-0.471,0.385-0.855,0.857-0.855  C49.002,73.328,49.389,73.713,49.389,74.184z"/>
<circle cx="48.53" cy="76.102" r="0.856"/>
<circle cx="48.53" cy="77.994" r="0.856"/>
<path d="M57.965,73.225c0,0.473-0.387,0.855-0.857,0.855c-0.473,0-0.857-0.383-0.857-0.855c0-0.472,0.385-0.855,0.857-0.855  C57.578,72.369,57.965,72.753,57.965,73.225z"/>
<path d="M57.963,75.141c0,0.474-0.385,0.857-0.855,0.857c-0.473,0-0.857-0.384-0.857-0.857c0-0.471,0.385-0.855,0.857-0.855  C57.578,74.285,57.963,74.67,57.963,75.141z"/>
<path d="M47.672,73.193c0,0.474-0.387,0.857-0.857,0.857c-0.473,0-0.857-0.384-0.857-0.857c0-0.471,0.385-0.855,0.857-0.855  C47.286,72.338,47.672,72.723,47.672,73.193z"/>
<circle cx="46.814" cy="75.111" r="0.856"/>
<path d="M57.965,71.334c0,0.474-0.387,0.857-0.857,0.857c-0.473,0-0.857-0.384-0.857-0.857c0-0.471,0.385-0.855,0.857-0.855  C57.578,70.479,57.965,70.863,57.965,71.334z"/>
<circle cx="57.106" cy="77.034" r="0.856"/>
<path d="M47.672,71.305c0,0.473-0.387,0.855-0.857,0.855c-0.473,0-0.857-0.383-0.857-0.855c0-0.472,0.385-0.855,0.857-0.855  C47.286,70.449,47.672,70.833,47.672,71.305z"/>
<circle cx="46.814" cy="77.004" r="0.856"/>
</svg>