<svg xmlns="http://www.w3.org/2000/svg" xmlns:xlink="http://www.w3.org/1999/xlink" version="1.1" id="Layer_1" x="0px" y="0px" width="56.753px" height="100px" viewBox="0 0 56.753 100" enable-background="new 0 0 56.753 100" xml:space="preserve">
<path d="M2.449,77.075V94.19h51.849V77.075H2.449z M25.027,82.761v-1.357h7.554v1.357H25.027z"/>
<path d="M30.549,5.901v70.188h23.749V5.901H30.549z M35.244,45.342h-1.447v-8.695h1.447V45.342z M47.598,20.188H37.25  c-0.635,0-1.149-0.418-1.149-0.932c0-0.514,0.515-0.933,1.149-0.933h10.349c0.636,0,1.151,0.418,1.151,0.933  C48.75,19.769,48.234,20.188,47.598,20.188z M47.598,16.926H37.25c-0.635,0-1.149-0.417-1.149-0.932  c0-0.514,0.515-0.931,1.149-0.931h10.349c0.636,0,1.151,0.417,1.151,0.931C48.75,16.509,48.234,16.926,47.598,16.926z   M47.598,13.666H37.25c-0.636,0-1.149-0.417-1.149-0.933c0-0.513,0.514-0.93,1.149-0.93h10.349c0.634,0,1.151,0.417,1.151,0.93  C48.75,13.249,48.232,13.666,47.598,13.666z"/>
<rect x="2.449" y="95.178" width="51.849" height="4.822"/>
<polygon points="55.89,0 55.306,0 1.447,0 0.285,0 0,0 0,100 1.447,100 1.447,4.823 55.306,4.823 55.306,100 56.753,100 56.753,0   "/>
<path d="M17.61,26.661l2.507-2.505h-6.987l2.492,2.491C16.173,27.199,17.066,27.205,17.61,26.661z"/>
<path d="M23.968,24.155h-2.894l-2.985,2.984c-0.402,0.401-0.93,0.602-1.461,0.602c-0.537,0-1.076-0.206-1.486-0.617l-2.971-2.97  H9.204l-6.009,4.387l3.019,4.134l2.99-2.182v16.068h14.764V30.494l2.99,2.182l3.019-4.134L23.968,24.155z"/>
<path d="M29.362,19.292H18.108c-0.043-0.052-0.084-0.107-0.134-0.154c-0.165-0.149-0.36-0.264-0.586-0.342  c-0.225-0.08-0.477-0.119-0.752-0.119c-0.304,0-0.58,0.053-0.827,0.158c-0.246,0.105-0.455,0.254-0.624,0.444  c-0.003,0.004-0.006,0.009-0.009,0.013H2.607v1.583h15.026c-0.005,0.014-0.006,0.032-0.012,0.045  c-0.064,0.152-0.15,0.292-0.259,0.417c-0.109,0.126-0.226,0.247-0.352,0.361c-0.126,0.114-0.246,0.239-0.36,0.374  s-0.211,0.289-0.291,0.462c-0.079,0.172-0.125,0.382-0.136,0.629v0.413h0.747v-0.343c0-0.153,0.022-0.289,0.066-0.409  c0.044-0.121,0.103-0.232,0.176-0.334c0.074-0.103,0.155-0.2,0.247-0.291c0.09-0.091,0.184-0.18,0.277-0.269  c0.094-0.093,0.186-0.19,0.277-0.29c0.09-0.099,0.171-0.208,0.242-0.326c0.071-0.117,0.128-0.248,0.172-0.391  c0.005-0.016,0.006-0.034,0.011-0.049h10.925V19.292z"/>
<path d="M21.59,74.512c-0.074,1.041,0.396,1.358,0.396,1.358l0.908,0.061l0.874,0.253c0,0,0.55-0.14,0.835-1.143  c0.285-1.006,2.208-12.729,2.208-12.729l1.828-17.605c0.517,0.017,0.942-0.191,1-0.521c0.067-0.383-0.389-0.784-1.019-0.895  c-0.63-0.11-1.196,0.111-1.263,0.494c-0.058,0.33,0.271,0.67,0.764,0.83l-4.274,17.176C23.847,61.791,21.664,73.47,21.59,74.512z"/>
<path d="M18.553,71.772l-3.849-1.741c0,0-9.163-1.649-10.446,0.825c-1.283,2.475-2.382,3.023-0.091,4.032  c2.291,1.007,3.757,1.19,5.956,1.282s7.514-0.366,7.514-0.366l2.108-2.291L18.553,71.772z M14.246,74.889  c-1.1-1.101-0.092-3.116-0.092-3.116c1.466-1.375,1.924,0.184,1.924,0.184l0.366,2.199C16.445,74.155,15.346,75.987,14.246,74.889z"/>
</svg>