<svg xmlns="http://www.w3.org/2000/svg" xmlns:xlink="http://www.w3.org/1999/xlink" version="1.1" id="Layer_1" x="0px" y="0px" width="96.003px" height="100px" viewBox="0 0 96.003 100" enable-background="new 0 0 96.003 100" xml:space="preserve">
<path fill="#000000" d="M91.444,69.886c-1.299,1.616-4.028,1.344-5.373,0c-0.709-0.709-1.112-1.683-1.112-2.687  c0-0.948,0.34-1.653,0.86-2.359c-0.102,0.131-0.203,0.263-0.305,0.395c0.941-1.224,1.678-2.625,2.301-4.04  c0.79-1.978,1.344-4.041,1.669-6.145c0.261-2.291,0.248-4.6-0.016-6.891c-0.421-2.759-1.197-5.445-2.243-8.033  c-1.446-3.304-3.295-6.429-5.465-9.309c-1.997-2.516-4.257-4.813-6.774-6.809c-1.314-0.985-2.693-1.896-4.136-2.688  c-0.468,0.886-0.899,1.792-1.299,2.706c-1.25,3.104-1.958,6.326-2.435,9.628c-0.649,5.128-0.739,10.331-0.101,15.465  c0.504,3.419,1.344,6.786,2.637,9.994c0.697,1.581,1.505,3.108,2.445,4.56c1.126,1.74,0.362,4.188-1.363,5.198  c-1.565,0.917-3.401,0.547-4.609-0.641c-0.32,7.698-1.062,10.885-1.062,16.901c0,7.675,4.879,14.637,14.691,14.637  c7.126,0,13.123-4.386,13.123-16.445c0-6.481-0.299-10.57-0.302-15C92.225,68.859,91.85,69.381,91.444,69.886z"/>
<path fill="#000000" d="M60.371,28.208c0.673-3.418,1.899-6.7,3.461-9.81c0.421-0.838,0.862-1.676,1.344-2.487  c-0.236-0.759-0.472-1.519-0.708-2.278c-0.614-1.978,0.707-4.138,2.653-4.673c2.045-0.563,4.059,0.678,4.673,2.653  c0.206,0.661,0.411,1.321,0.616,1.982c2.104,0.925,4.113,2.174,5.93,3.498c5.261,3.832,9.642,8.696,12.942,14.314  c1.755,2.987,3.222,6.17,4.266,9.479c0.067-1.021,0.107-2.041,0.107-3.061C95.654,20.993,86.39,0,64.189,0  c-8.58,0-9.631,13.431-8.26,24.668c0.447,3.671,1.77,7.403,3.326,11.265C59.49,33.338,59.869,30.756,60.371,28.208z"/>
<path fill="#000000" d="M96.003,50.983c-0.144-6.71-2.44-13.194-5.814-18.938c-3.184-5.42-7.408-10.16-12.488-13.86  c-1.928-1.404-4.075-2.742-6.327-3.658c-0.267-0.859-0.534-1.719-0.801-2.578c-0.409-1.317-1.752-2.144-3.116-1.769  c-1.297,0.357-2.178,1.797-1.769,3.115c0.288,0.929,0.577,1.857,0.865,2.786c-0.595,0.955-1.126,1.955-1.629,2.956  c-1.514,3.015-2.681,6.195-3.333,9.508c-1.348,6.845-1.77,13.932-0.873,20.862c0.794,6.134,2.525,12.229,5.913,17.463  c0.749,1.156,2.233,1.63,3.465,0.909c1.15-0.674,1.66-2.305,0.909-3.465c-0.815-1.259-1.533-2.574-2.166-3.933  c-0.077-0.166-0.152-0.333-0.226-0.5c-0.021-0.047-0.077-0.177-0.116-0.266c-0.114-0.276-0.224-0.554-0.332-0.833  c-0.292-0.757-0.553-1.525-0.796-2.298c-0.48-1.525-0.86-3.08-1.17-4.647c-0.153-0.77-0.282-1.544-0.397-2.32  c-0.008-0.051-0.029-0.207-0.044-0.31c-0.017-0.13-0.033-0.261-0.049-0.392c-0.056-0.462-0.104-0.926-0.148-1.389  c-0.324-3.387-0.319-6.802-0.074-10.193c0.06-0.827,0.139-1.652,0.229-2.476c0.038-0.34,0.079-0.68,0.123-1.02  c0.014-0.103,0.041-0.313,0.049-0.367c0.039-0.274,0.08-0.548,0.122-0.822c0.263-1.716,0.575-3.433,1.031-5.109  c0.298-1.096,0.669-2.171,1.079-3.23c0.061-0.158,0.126-0.314,0.189-0.471c0.027-0.058,0.225-0.527,0.269-0.625  c0.207-0.463,0.425-0.921,0.649-1.376c0.35-0.711,0.725-1.411,1.119-2.1c1.077,0.531,2.119,1.134,3.129,1.782  c0.419,0.269,0.831,0.548,1.238,0.833c0.218,0.153,0.433,0.309,0.647,0.467c0.111,0.081,0.221,0.164,0.33,0.246  c0.028,0.021,0.051,0.039,0.072,0.054c1.006,0.786,1.968,1.627,2.893,2.506c1.067,1.013,2.072,2.09,3.027,3.208  c0.247,0.29,0.488,0.584,0.727,0.879c0.122,0.151,0.242,0.303,0.362,0.456c0,0,0.001,0.001,0.001,0.002  c0.02,0.026,0.047,0.063,0.084,0.111c0.537,0.708,1.049,1.435,1.544,2.172c1.048,1.562,1.995,3.192,2.85,4.867  c0.394,0.771,0.759,1.555,1.105,2.348c0.007,0.017,0.014,0.032,0.02,0.047c0.012,0.03,0.028,0.067,0.048,0.116  c0.078,0.189,0.153,0.38,0.228,0.57c0.171,0.435,0.331,0.874,0.486,1.314c0.516,1.466,0.929,2.968,1.247,4.489  c0.12,0.576,0.22,1.155,0.308,1.736c-0.007-0.022,0.078,0.628,0.094,0.775c0.039,0.373,0.069,0.747,0.094,1.121  c0.085,1.252,0.083,2.51,0.009,3.763c-0.033,0.557-0.086,1.113-0.151,1.667c-0.001,0.008-0.002,0.016-0.003,0.024  c-0.011,0.077-0.022,0.154-0.034,0.231c-0.045,0.299-0.098,0.598-0.153,0.896c-0.268,1.45-0.658,2.877-1.152,4.267  c-0.103,0.288-0.211,0.572-0.323,0.856c-0.033,0.084-0.068,0.167-0.102,0.251c-0.017,0.04-0.033,0.077-0.046,0.106  c-0.214,0.486-0.446,0.965-0.69,1.438c-0.352,0.679-0.737,1.342-1.161,1.979c-0.117,0.175-0.237,0.348-0.361,0.518  c-0.155,0.21-0.043,0.069,0.083-0.095c-0.713,1.045-0.811,2.37,0.17,3.352c0.896,0.896,2.716,1.078,3.582,0  c1.189-1.48,2.109-3.148,2.861-4.888C95.202,59.956,96.1,55.508,96.003,50.983z M90.708,55.405  C90.696,55.496,90.69,55.541,90.708,55.405L90.708,55.405z"/>
<path fill="#000000" d="M4.566,70.117c1.299,1.617,4.028,1.345,5.373,0c0.709-0.709,1.113-1.683,1.113-2.686  c0-0.948-0.341-1.654-0.86-2.359c0.102,0.131,0.203,0.263,0.305,0.395c-0.941-1.224-1.678-2.625-2.302-4.04  c-0.789-1.978-1.344-4.04-1.669-6.145c-0.261-2.291-0.248-4.6,0.016-6.891c0.422-2.759,1.197-5.445,2.243-8.033  c1.446-3.303,3.295-6.429,5.465-9.309c1.997-2.516,4.257-4.812,6.774-6.809c1.314-0.985,2.693-1.896,4.136-2.688  c0.468,0.886,0.899,1.792,1.299,2.706c1.25,3.104,1.958,6.326,2.435,9.628c0.65,5.128,0.739,10.331,0.101,15.465  c-0.504,3.419-1.344,6.786-2.637,9.994c-0.697,1.581-1.505,3.108-2.445,4.56c-1.126,1.74-0.362,4.188,1.363,5.198  c1.565,0.917,3.401,0.547,4.609-0.641c0.32,7.698,1.062,10.885,1.062,16.901c0,7.675-4.879,14.636-14.691,14.636  C9.127,100,3.13,95.615,3.13,83.555c0-6.48,0.299-10.57,0.302-14.999C3.785,69.091,4.161,69.613,4.566,70.117z"/>
<path fill="#000000" d="M35.64,28.439c-0.673-3.418-1.899-6.7-3.461-9.81c-0.421-0.838-0.862-1.676-1.344-2.487  c0.236-0.759,0.472-1.519,0.708-2.278c0.614-1.978-0.707-4.138-2.653-4.673c-2.045-0.563-4.059,0.678-4.673,2.653  c-0.206,0.661-0.411,1.321-0.616,1.982c-2.104,0.925-4.113,2.175-5.93,3.498c-5.261,3.832-9.642,8.696-12.942,14.314  c-1.755,2.987-3.222,6.17-4.265,9.479c-0.068-1.021-0.107-2.041-0.107-3.061c0-16.832,9.264-37.824,31.465-37.824  c8.58,0,9.631,13.43,8.26,24.668c-0.447,3.67-1.77,7.403-3.326,11.264C36.521,33.57,36.142,30.988,35.64,28.439z"/>
<path fill="#000000" d="M2.6,64.334c0.752,1.739,1.672,3.408,2.861,4.888c0.866,1.078,2.685,0.896,3.582,0  c0.981-0.981,0.884-2.306,0.17-3.352c0.126,0.164,0.237,0.305,0.083,0.095c-0.125-0.17-0.245-0.343-0.361-0.518  c-0.423-0.637-0.809-1.3-1.161-1.979c-0.245-0.472-0.476-0.951-0.69-1.438c-0.013-0.029-0.029-0.066-0.046-0.106  c-0.034-0.083-0.069-0.167-0.102-0.25c-0.112-0.284-0.221-0.569-0.323-0.856c-0.494-1.389-0.885-2.816-1.152-4.267  c-0.055-0.298-0.107-0.597-0.153-0.896c-0.012-0.077-0.022-0.154-0.034-0.231c-0.001-0.008-0.002-0.017-0.003-0.024  c-0.065-0.554-0.119-1.11-0.151-1.667c-0.074-1.253-0.077-2.51,0.009-3.763c0.025-0.374,0.055-0.748,0.094-1.121  c0.016-0.147,0.101-0.797,0.094-0.775c0.087-0.581,0.188-1.161,0.308-1.736c0.317-1.521,0.73-3.022,1.247-4.489  c0.155-0.44,0.315-0.879,0.486-1.314c0.075-0.19,0.15-0.381,0.228-0.57c0.02-0.049,0.036-0.086,0.048-0.116  c0.006-0.015,0.013-0.03,0.02-0.047c0.346-0.793,0.711-1.578,1.105-2.348c0.855-1.675,1.802-3.305,2.85-4.867  c0.495-0.737,1.007-1.465,1.544-2.172c0.037-0.048,0.064-0.084,0.084-0.111c0-0.001,0.001-0.001,0.001-0.002  c0.12-0.152,0.24-0.305,0.362-0.456c0.239-0.295,0.48-0.59,0.727-0.879c0.955-1.119,1.96-2.196,3.027-3.209  c0.925-0.879,1.887-1.72,2.893-2.506c0.021-0.016,0.044-0.033,0.072-0.054c0.11-0.082,0.219-0.165,0.33-0.246  c0.214-0.158,0.43-0.314,0.647-0.467c0.408-0.286,0.819-0.565,1.238-0.833c1.01-0.648,2.052-1.25,3.129-1.782  c0.395,0.688,0.769,1.389,1.119,2.1c0.224,0.455,0.442,0.913,0.649,1.376c0.044,0.098,0.242,0.567,0.269,0.625  c0.064,0.157,0.129,0.313,0.19,0.471c0.41,1.059,0.781,2.135,1.079,3.23c0.456,1.676,0.768,3.393,1.031,5.109  c0.042,0.274,0.083,0.547,0.122,0.822c0.008,0.053,0.035,0.264,0.049,0.367c0.043,0.34,0.085,0.68,0.122,1.02  c0.091,0.824,0.17,1.649,0.23,2.476c0.246,3.391,0.25,6.806-0.074,10.193c-0.044,0.463-0.092,0.927-0.148,1.389  c-0.016,0.13-0.033,0.261-0.049,0.392c-0.015,0.104-0.036,0.259-0.044,0.31c-0.115,0.776-0.244,1.55-0.397,2.32  c-0.311,1.567-0.69,3.123-1.17,4.647c-0.244,0.773-0.505,1.541-0.797,2.298c-0.107,0.279-0.218,0.557-0.332,0.833  c-0.039,0.089-0.094,0.219-0.116,0.266c-0.074,0.167-0.149,0.334-0.226,0.5c-0.633,1.359-1.351,2.674-2.166,3.933  c-0.751,1.16-0.241,2.792,0.909,3.465c1.232,0.721,2.716,0.248,3.465-0.909c3.388-5.234,5.119-11.329,5.913-17.463  c0.897-6.93,0.476-14.018-0.873-20.862c-0.652-3.313-1.819-6.493-3.333-9.508c-0.503-1.001-1.034-2.001-1.629-2.956  c0.289-0.929,0.577-1.857,0.865-2.786c0.41-1.318-0.471-2.758-1.769-3.115c-1.364-0.375-2.707,0.452-3.116,1.769  c-0.267,0.859-0.534,1.718-0.801,2.578c-2.252,0.917-4.398,2.254-6.327,3.658c-5.08,3.7-9.304,8.44-12.488,13.86  c-3.375,5.744-5.67,12.228-5.814,18.938C-0.09,55.74,0.808,60.188,2.6,64.334z M5.302,55.637C5.32,55.772,5.314,55.728,5.302,55.637  L5.302,55.637z"/>
</svg>