<svg xmlns="http://www.w3.org/2000/svg" xmlns:xlink="http://www.w3.org/1999/xlink" version="1.1" id="Layer_1" x="0px" y="0px" width="100px" height="100px" viewBox="0 0 100 100" enable-background="new 0 0 100 100" xml:space="preserve">
<path d="M71.66,11.889c-2.773-3.481-6.141-5.134-6.281-5.203l-0.172-0.064c-2.406-0.688-4.721-1.036-6.873-1.036  c-11.543,0-15.717,9.937-16.354,11.658c-0.96,1-0.592,2.699-0.307,3.583c-1.336,4.017,0.728,10.194,0.818,10.46l0.059,0.172  l0.113,0.143c0.151,0.193,0.312,0.365,0.468,0.549L27.638,82.697c0,0-1.055,2.849,2.549,4.811l-0.005,0.01  c-0.03,0.062-3.112,6.241-6.8,6.241c-0.001,0-0.001,0-0.001,0c-1.148,0-2.271-0.618-3.339-1.84l-0.695,0.56  c0.097,0.131,2.402,3.188,5.879,3.188c3.017,0,5.881-2.285,8.512-6.793l0.058-0.1c4.285,1.203,5.904-1.546,5.904-1.546L62.658,39.59  c0.429-0.033,0.677-0.066,0.708-0.07l0.055-0.01c4.128-0.881,8.147-6.292,9.138-7.708c1.269-0.641,1.736-2.176,1.75-3.471  C76.773,20.592,74.232,15.12,71.66,11.889z M63.018,37.418c-0.172,0.021-0.979,0.108-2.179,0.108  c-4.005,0-11.438-0.924-16.385-7.092c-0.263-0.842-1.41-4.749-1.023-7.717c3.348,5.648,10.132,7.824,10.132,7.824  c7.251,2.617,13.502,1.969,16.154,1.488C68.191,33.936,65.512,36.859,63.018,37.418z M72.23,27.838l-0.061,0.183l0.008,0.188  c0.004,0.121-0.002,0.277-0.021,0.447c-6.726,3.28-16.986-0.164-16.986-0.164c-7.455-2.026-10.425-7.613-11.371-9.965l0.004-0.003  l0.109-0.352c0.033-0.105,3.416-10.457,14.422-10.457c1.926,0,4.01,0.311,6.191,0.927c0.5,0.26,3.233,1.757,5.49,4.6  C73.295,17.38,74.041,22.291,72.23,27.838z"/>
</svg>