<svg xmlns="http://www.w3.org/2000/svg" xmlns:xlink="http://www.w3.org/1999/xlink" version="1.1" id="Layer_1" x="0px" y="0px" width="100px" height="100px" viewBox="0 0 100 100" enable-background="new 0 0 100 100" xml:space="preserve">
<path d="M75.416,44.411c-0.527-16.301-11-32.273-24.889-37.87v37.894l-0.137,0.233l-0.389,0.427l-0.389-0.427l-0.137-0.232V6.56  c-14.104,6.105-24.367,21.745-24.889,37.852c3.354-3.187,7.805-5.008,12.432-5.008c4.173,0,8.194,1.491,11.404,4.118v46.181  c0,2.209-1.798,4.007-4.007,4.007s-4.007-1.798-4.007-4.007c0-0.871-0.705-1.577-1.576-1.577s-1.576,0.706-1.576,1.577  c0,3.948,3.212,7.159,7.159,7.159c3.948,0,7.159-3.211,7.159-7.159V43.525c3.212-2.629,7.234-4.121,11.409-4.121  C67.611,39.404,72.063,41.226,75.416,44.411z"/>
<path d="M51.006,5.589c0.189,0.005,0.381,0.006,0.57,0.012V4.714c0-0.871-0.706-1.576-1.576-1.576s-1.576,0.706-1.576,1.576v0.888  c0.209-0.006,0.42-0.008,0.63-0.014C26.15,6,6.288,21.26,0,43.199c3.164-2.458,7.029-3.795,11.055-3.795  c4.649,0,9.123,1.839,12.481,5.055C24.04,27.925,34.583,11.852,49.08,5.587c0.307-0.008,0.612-0.02,0.92-0.02  c0.326,0,0.649,0.012,0.974,0.021c14.253,5.776,24.986,22.167,25.494,38.87c3.357-3.215,7.83-5.055,12.479-5.055  c4.024,0,7.889,1.336,11.053,3.794C93.717,21.279,73.885,6.026,51.006,5.589z"/>
</svg>