<svg xmlns="http://www.w3.org/2000/svg" xmlns:xlink="http://www.w3.org/1999/xlink" version="1.1" id="Layer_1" x="0px" y="0px" width="100px" height="100px" viewBox="0 0 100 100" enable-background="new 0 0 100 100" xml:space="preserve">
<g>
	<circle cx="15.726" cy="69.31" r="1.689"/>
	<path d="M15.726,62.82c-0.559,0-1.102,0.068-1.619,0.203c-2.798,0.721-4.87,3.265-4.87,6.285s2.072,5.564,4.87,6.287   c0.518,0.133,1.06,0.203,1.619,0.203c3.579,0,6.49-2.91,6.49-6.49C22.216,65.73,19.305,62.82,15.726,62.82z M15.726,73.218   c-2.155,0-3.908-1.754-3.908-3.909c0-2.154,1.754-3.908,3.908-3.908c2.155,0,3.908,1.754,3.908,3.908   C19.635,71.464,17.882,73.218,15.726,73.218z"/>
	<circle cx="78.911" cy="69.31" r="1.689"/>
	<path d="M78.911,62.82c-0.559,0-1.103,0.068-1.619,0.203c-2.797,0.721-4.87,3.265-4.87,6.285s2.073,5.564,4.87,6.287   c0.517,0.133,1.061,0.203,1.619,0.203c3.579,0,6.491-2.91,6.491-6.49C85.402,65.73,82.49,62.82,78.911,62.82z M78.911,73.218   c-2.154,0-3.908-1.754-3.908-3.909c0-2.154,1.754-3.908,3.908-3.908c2.155,0,3.909,1.754,3.909,3.908   C82.82,71.464,81.066,73.218,78.911,73.218z"/>
	<path d="M41.039,29.617h6.229c0.389,0,0.703-0.315,0.703-0.704s-0.314-0.704-0.703-0.704h-6.229c-0.389,0-0.704,0.315-0.704,0.704   S40.65,29.617,41.039,29.617z"/>
	<path d="M46.465,25.747c0-1.276-1.035-2.311-2.312-2.311s-2.311,1.035-2.311,2.311v1.836h4.622V25.747z"/>
	<path d="M94.405,64.752V47.218v-0.633v-1.117V33.72c0-3.622-4.134-3.471-4.134-3.471H32.946c-3.831,0-5.435,1.987-6.886,3.973   c-1.691,2.314-11.426,15.904-11.426,15.904c-0.224,0.085-5.196,3.52-7.688,5.19c-0.763,0.511-1.398,1.637-1.398,2.556l-0.001,5.523   h-0.75c-0.284,0-0.516,0.232-0.516,0.517v4.636c0,0.286,0.232,0.518,0.516,0.518h1.191c0.215,0.469,0.514,0.892,0.876,1.25   c0.219,0.215,0.668,0.257,0.599-0.304c-0.043-0.354-0.01-1.363,0.028-1.686c0.398-3.361,3.489-7.312,8.235-7.312   c4.573,0,8.294,3.72,8.294,8.294c0,2.222,2.011,2.199,2.011,2.199h42.568c0,0,2.019,0,2.019-2.199c0-3.784,2.719-8.294,8.294-8.294   c4.573,0,8.295,3.61,8.295,8.184c0,2.517,2.536,2.308,2.536,2.308h4.125l0.021-1.211h0.467c0.519,0,0.943-0.425,0.943-0.943v-3.667   C95.298,65.184,94.899,64.779,94.405,64.752z M43.949,46.497c0,0-18.679,1.489-20.588,1.489c-1.159,0-1.351-0.728-0.982-1.303   s6.583-10.289,6.583-10.289c1.105-1.469,2.17-2.316,3.384-2.316h11.603V46.497z M78.881,48.288h-7.077v7.076h-7.131v-7.076h-7.076   v-7.13h7.076v-7.077h7.131v7.077h7.077V48.288z"/>
</g>
</svg>