<svg xmlns="http://www.w3.org/2000/svg" xmlns:xlink="http://www.w3.org/1999/xlink" version="1.1" id="Layer_1" x="0px" y="0px" width="100.0px" height="100px" viewBox="0 0 144 144" enable-background="new 0 0 144 144" xml:space="preserve">
<path d="M66.488,62.717c0,0,1.91-0.357,2.346-1.697l2.518-4.198c0,0,2.26,2.948,2.693,3.93c0,0,0.348,1.786,2.52,1.965  c0,0,5.299-0.625,6.254-1.161c0,0,4.465-2.44,12.943,1.161c0,0,8.287,1.58,8.254,2.59h-1.998l3.996,3.036h-2.605l2.605,1.608  c0,0,1.391,1.876-3.734-0.982l3.906,3.037h-1.908l-3.041-1.519l2.084,3.038l-3.127-1.25l0.781,1.25l-2.344-0.804  c0,0-0.783,1.787-2.781,0.09c0,0-1.563,2.412-3.301,0.357c0,0-0.955,1.697-2.172-0.179c0,0-9.816,3.444-13.986,1.007l-1.998,0.422  c0,0,2.172,5.27,1.563,7.057c0,0-2.17,4.734-4.082,5.895l-0.607-0.713l-0.174,0.713c0,0-3.563-2.054-4.258-7.592  c0,0,0.781-4.645,1.65-5.359c0,0-14.332,1.162-16.07-1.339c0,0-1.564,1.875-1.912-0.18c0,0-1.303,2.501-2.084-0.088  c0,0-0.607,2.144-1.303,0.178c0,0-2.867,1.519-2.346-0.09l-1.912,0.536l-1.217-0.178l1.564-1.163l-2.432,1.163l-1.217,0.268  l2.693-3.395l-5.039,2.68l3.736-3.573l-3.736,1.25c0,0-1.303,0.357,1.564-2.322h-1.859c0,0,2.553-2.144,4.813-2.679l-2.867-0.268  c0,0,10.773-3.931,15.725-4.109c0,0,3.475-0.804,5.646,0.625C60.232,61.734,65.236,63.191,66.488,62.717z"/>
</svg>