<svg xmlns="http://www.w3.org/2000/svg" xmlns:xlink="http://www.w3.org/1999/xlink" version="1.1" id="Layer_1" x="0px" y="0px" width="100px" height="100px" viewBox="0 0 100 100" enable-background="new 0 0 100 100" xml:space="preserve">
<path d="M95.5,26.618l-15.236,2.541c-0.609,0-1.2,0.841-1.362,2.841H74v-9.426c0-3.583-2.377-6.488-5.318-6.488l-60.358,4.2  C5.381,20.286,3,23.191,3,26.774v32.693c0,3.583,2.384,6.488,5.326,6.488l11.778,0.819L28,84.107v0.989  C28,85.399,28.405,86,28.742,86h14.415c0.135,0,0.583-0.216,0.684-0.283l-7.947-17.844l32.787,2.281  c2.941,0,5.318-2.904,5.318-6.487V54h4.901c0.162,2,0.671,2.963,1.28,2.963L95.5,59.574c0.738,0,1.5-1.725,1.5-3.912V30.579  C97,28.391,96.238,26.618,95.5,26.618z M27.427,52.719c-5.707,0-10.331-4.625-10.331-10.331s4.625-10.33,10.331-10.33  c5.705,0,10.33,4.625,10.33,10.33S33.132,52.719,27.427,52.719z"/>
</svg>