<svg xmlns="http://www.w3.org/2000/svg" xmlns:xlink="http://www.w3.org/1999/xlink" version="1.1" id="Layer_1" x="0px" y="0px" width="100px" height="100px" viewBox="0 0 100 100" enable-background="new 0 0 100 100" xml:space="preserve">
<path fill-rule="evenodd" clip-rule="evenodd" d="M21.77,54.13l8.02,29.64l54.58-14.48l-8.03-29.64L21.77,54.13z M7.64,31.41  c-3.65,0.97-5.82,4.71-4.83,8.34l14.26,52.69c0.99,3.64,4.75,5.8,8.4,4.83l69.46-18.43c3.65-0.97,5.82-4.7,4.83-8.34L85.5,17.81  c-0.99-3.63-4.75-5.79-8.4-4.83L7.64,31.41z M39.7,35.26c-0.86-3.18,1.03-6.45,4.23-7.3c3.2-0.85,6.49,1.05,7.35,4.23  c0.86,3.18-1.03,6.45-4.23,7.3C43.85,40.33,40.56,38.44,39.7,35.26z M30.76,34.98c-0.24-0.91,0.3-1.84,1.21-2.08  c0.91-0.24,1.85,0.3,2.1,1.21c0.25,0.91-0.29,1.84-1.21,2.08C31.95,36.43,31.01,35.89,30.76,34.98z M33.15,40.53  c-0.25-0.91,0.29-1.85,1.21-2.09c0.91-0.24,1.85,0.3,2.1,1.21c0.24,0.91-0.3,1.84-1.21,2.08C34.34,41.98,33.4,41.44,33.15,40.53z   M55.57,28.4c-0.25-0.91,0.29-1.84,1.21-2.08c0.91-0.25,1.85,0.29,2.1,1.2c0.24,0.91-0.3,1.85-1.21,2.09  C56.76,29.85,55.82,29.31,55.57,28.4z M56.3,34.38c-0.24-0.91,0.3-1.84,1.21-2.08c0.91-0.24,1.85,0.3,2.1,1.21  c0.25,0.91-0.29,1.84-1.21,2.08C57.49,35.83,56.55,35.29,56.3,34.38z M19.67,52.93l57.88-15.36l8.92,32.93L28.58,85.85L19.67,52.93z  "/>
<path fill-rule="evenodd" clip-rule="evenodd" d="M0,2.5c4.21,8.3,7.64,17.15,10.17,26.48l0.22,0.82l1.98-0.53l-0.22-0.82  C9.68,19.33,6.36,10.66,2.3,2.5H0z"/>
</svg>