<svg xmlns="http://www.w3.org/2000/svg" xmlns:xlink="http://www.w3.org/1999/xlink" version="1.0" id="Layer_1" x="0px" y="0px" width="100px" height="100px" viewBox="0 0 100 100" enable-background="new 0 0 100 100" xml:space="preserve">
<path d="M42.454,7.725C42.5,3.475,39.001-0.046,34.74,0c-4.355-0.046-7.876,3.475-7.853,7.725c-0.023,4.355,3.497,7.841,7.853,7.853  C39.001,15.566,42.5,12.081,42.454,7.725L42.454,7.725z"/>
<path d="M56.582,88.88L44.329,58.384l-5.003,14.015l7.158,20.57C49.378,99.745,59.547,95.784,56.582,88.88z"/>
<path fill="none" d="M43.644,29.407l-0.155-0.619c0.006,0.084,0.015,0.299,0.024,0.605L43.644,29.407z"/>
<path d="M66.959,21.917l-25.308-0.727l-2.674-4.223c-1.808-1.774-7.405-2.17-9.741,0.741c-0.299,0.373-0.64,1.301-0.721,1.773  c-0.129,0.75-0.083,2.958-0.083,2.958l1.753,34.125L19.276,90.643c-2.154,7.227,8.501,10.238,10.632,3.277l13.505-37.631  l-0.14-19.138c0,0-0.028-1.469-0.065-3.235l-0.198-3.159c-0.009-0.306,0.029-1.568-0.023-1.969l23.43-0.372  C69.125,28.542,71.754,23.318,66.959,21.917z"/>
<path d="M63.74,15.578h-0.002c-6.928,0.158-16.821,0.729-23.414,0.964c-6.2,0.221-9.483,0.011-4.622,3  c1.491,0.916,14.261,1.844,28.036,1.606h0.002c1.386,0,2.51-1.247,2.51-2.785S65.126,15.578,63.74,15.578z"/>
<g>
	<path d="M45.956,4.333v0.692l-0.669,2.073h0.669v0.692h-1.657V7.287l0.692-2.263h-0.61V4.333H45.956z"/>
</g>
<g>
	<path d="M49.648,0.485v1.101l-1.064,3.297h1.064v1.101h-2.635V5.186l1.101-3.6h-0.971V0.485H49.648z"/>
</g>
<g>
	<path d="M54.6-0.16V1.07L53.41,4.754H54.6v1.229h-2.944V5.092l1.229-4.022h-1.086V-0.16H54.6z"/>
</g>
</svg>