<svg xmlns="http://www.w3.org/2000/svg" xmlns:xlink="http://www.w3.org/1999/xlink" version="1.1" id="Icon" x="0px" y="0px" width="100.0px" height="100px" viewBox="0 0 103 103" enable-background="new 0 0 103 103" xml:space="preserve">
<path d="M50.985,18.255c0-1,0.45-1.135,1-0.299l43.175,65.58c1.196,1.649,0.896,1.52,2.819,1.52h2.104c1,0,1.37-0.686,0.821-1.521  L52.379,9.406c-0.547-0.836-1.444-0.836-1.992,0L1.86,83.533c-0.548,0.836-0.178,1.521,0.822,1.521h46.484  c1,0,1.819-0.818,1.819-1.819V18.255z"/>
<path d="M81.084,65.462h-27.92c-0.708,0-1.283,0.574-1.283,1.283c0,0.71,0.575,1.285,1.283,1.285h3.568l9.523,8.078l-9.988,8.474  c-0.241,0.203-0.241,0.533,0,0.736c0.238,0.204,0.628,0.204,0.868,0l9.989-8.474l9.988,8.474c0.241,0.204,0.63,0.204,0.868,0  c0.241-0.203,0.241-0.533,0-0.736l-9.988-8.474l9.523-8.078h3.567c0.708,0,1.283-0.575,1.283-1.285  C82.367,66.036,81.792,65.462,81.084,65.462z M67.125,75.371L58.47,68.03h17.31L67.125,75.371z"/>
<path d="M74.831,62.48c0,1.264-1.024,2.287-2.287,2.287h-10.84c-1.263,0-2.287-1.023-2.287-2.287l0,0  c0-1.263,1.024-2.287,2.287-2.287h10.84C73.807,60.193,74.831,61.218,74.831,62.48L74.831,62.48z"/>
</svg>