<svg xmlns="http://www.w3.org/2000/svg" xmlns:xlink="http://www.w3.org/1999/xlink" version="1.1" id="Layer_1" x="0px" y="0px" width="100px" height="49.1666666667px" viewBox="0 0 360 177.241" enable-background="new 0 0 360 177.241" xml:space="preserve">
<g>
	<g>
		<path fill="none" d="M110.669,144.456l6.562,6.564c1.661-1.955,2.734-4.418,2.956-7.123h-9.289h-0.166    c-0.021,0.062-0.045,0.123-0.068,0.186c-0.009,0.022-0.018,0.045-0.025,0.063c-0.027,0.065-0.057,0.128-0.09,0.191l0.095,0.093    L110.669,144.456z"/>
		<path fill="none" d="M104.515,143.897h-0.178h-9.29c0.209,2.568,1.195,4.988,2.839,6.978l6.633-6.633l0.096-0.096    c-0.014-0.03-0.024-0.06-0.036-0.091c-0.019-0.046-0.037-0.09-0.053-0.137C104.521,143.911,104.519,143.905,104.515,143.897z"/>
		<path fill="none" d="M109.208,145.919l-0.05-0.05l-0.068-0.068c-0.057,0.027-0.113,0.052-0.171,0.077    c-0.048,0.021-0.096,0.037-0.144,0.057c-0.041,0.017-0.08,0.03-0.123,0.046v9.456c2.703-0.221,5.166-1.296,7.119-2.955    L109.208,145.919z"/>
		<path fill="none" d="M106.586,155.437v-9.289v-0.172c-0.043-0.014-0.084-0.036-0.126-0.052c-0.062-0.025-0.125-0.046-0.187-0.077    c-0.048-0.021-0.092-0.049-0.141-0.073c-0.047-0.025-0.097-0.05-0.143-0.077l-0.132,0.132l-6.532,6.53    C101.369,154.149,103.888,155.218,106.586,155.437z"/>
		<path fill="none" d="M215.908,145.926l-0.119-0.12c-0.063,0.033-0.129,0.063-0.195,0.091c-0.014,0.009-0.029,0.014-0.045,0.019    c-0.062,0.027-0.129,0.052-0.196,0.074v9.452c2.702-0.219,5.167-1.292,7.118-2.953L215.908,145.926z"/>
		<path fill="none" d="M223.932,151.028c1.66-1.955,2.734-4.421,2.955-7.126h-9.288h-0.164c-0.024,0.066-0.046,0.132-0.073,0.194    c-0.009,0.022-0.02,0.045-0.027,0.068c-0.027,0.061-0.054,0.12-0.084,0.182l0.117,0.116L223.932,151.028z"/>
		<path fill="none" d="M213.287,155.444v-9.288v-0.173c-0.106-0.037-0.213-0.078-0.314-0.128c-0.036-0.019-0.072-0.039-0.108-0.058    c-0.058-0.029-0.118-0.061-0.174-0.093l-6.662,6.663C208.069,154.156,210.59,155.226,213.287,155.444z"/>
		<path fill="none" d="M204.584,150.884l6.639-6.633h-0.004l0.094-0.094c-0.016-0.036-0.025-0.068-0.039-0.102    c-0.018-0.044-0.034-0.085-0.05-0.128c-0.003-0.009-0.009-0.017-0.01-0.025h-0.178h-9.287    C201.958,146.473,202.94,148.893,204.584,150.884z"/>
		<rect x="172.988" y="67.294" fill="none" width="36.653" height="26.422"/>
		<rect x="123.512" y="67.294" fill="none" width="36.15" height="26.422"/>
		<polygon fill="none" points="95.701,127.344 104.537,127.344 104.537,123.62 104.537,121.943 104.537,67.294 77.574,67.294     77.574,127.344 93.289,127.344   "/>
		<rect x="223.489" y="67.294" fill="none" width="36.652" height="26.422"/>
		<path d="M300.614,64.059c0-11.758-16.726-17.233-28.027-17.233H81.534c-11.482,0-20.824,9.343-20.824,20.824v55.221    c0,1.572-0.043,3.102-0.084,4.566c-0.163,5.865-0.305,10.927,2.507,13.82c1.599,1.641,4.005,2.438,7.359,2.438H85.27    c0.439,11.951,10.292,21.542,22.351,21.542c12.056,0,21.905-9.591,22.345-21.542h62.008c0.434,11.958,10.287,21.552,22.35,21.552    c12.055,0,21.909-9.594,22.345-21.552h4.073c10.514,0,60.212-20.971,60.212-33.277L300.614,64.059z M217.334,144.165    c0.008-0.023,0.019-0.046,0.027-0.068c0.027-0.062,0.049-0.128,0.073-0.194h0.164h9.288c-0.221,2.705-1.295,5.171-2.955,7.126    l-6.564-6.565l-0.117-0.116C217.28,144.285,217.307,144.226,217.334,144.165z M215.353,145.989    c0.067-0.022,0.134-0.047,0.196-0.074c0.016-0.005,0.031-0.01,0.045-0.019c0.066-0.027,0.132-0.058,0.195-0.091l0.119,0.12    l6.562,6.562c-1.951,1.661-4.416,2.734-7.118,2.953V145.989z M212.864,145.798c0.036,0.019,0.072,0.039,0.108,0.058    c0.102,0.05,0.208,0.091,0.314,0.128v0.173v9.288c-2.697-0.219-5.218-1.288-7.259-3.076l6.662-6.663    C212.746,145.737,212.807,145.769,212.864,145.798z M211.214,143.902c0.001,0.009,0.007,0.017,0.01,0.025    c0.016,0.043,0.032,0.084,0.05,0.128c0.014,0.033,0.023,0.065,0.039,0.102l-0.094,0.094h0.004l-6.639,6.633    c-1.644-1.991-2.626-4.411-2.835-6.981h9.287H211.214z M110.639,144.146c0.008-0.019,0.017-0.041,0.025-0.063    c0.023-0.062,0.048-0.123,0.068-0.186h0.166h9.289c-0.222,2.705-1.295,5.168-2.956,7.123l-6.562-6.564l-0.025-0.025l-0.095-0.093    C110.582,144.274,110.611,144.212,110.639,144.146z M108.652,145.98c0.043-0.016,0.082-0.029,0.123-0.046    c0.048-0.02,0.096-0.036,0.144-0.057c0.058-0.025,0.114-0.05,0.171-0.077l0.068,0.068l0.05,0.05l6.563,6.562    c-1.953,1.659-4.416,2.734-7.119,2.955V145.98z M105.99,145.696c0.046,0.027,0.096,0.052,0.143,0.077    c0.049,0.024,0.093,0.052,0.141,0.073c0.062,0.031,0.125,0.052,0.187,0.077c0.042,0.016,0.083,0.038,0.126,0.052v0.172v9.289    c-2.698-0.219-5.217-1.287-7.26-3.078l6.532-6.53L105.99,145.696z M104.614,144.146l-0.096,0.096l-6.633,6.633    c-1.644-1.989-2.63-4.409-2.839-6.978h9.29h0.178c0.004,0.008,0.007,0.014,0.011,0.021c0.016,0.047,0.034,0.091,0.053,0.137    C104.59,144.087,104.601,144.116,104.614,144.146z M77.574,127.344v-60.05h26.963v54.649v1.677v3.724h-8.836h-2.412H77.574z     M107.62,161.102c-9.358,0-17.093-7.082-18.12-16.171h1.495c0.444,3.615,2.053,6.977,4.638,9.625    c3.183,3.263,7.438,5.059,11.987,5.059c8.534,0,15.598-6.417,16.622-14.684h1.495C124.708,154.02,116.975,161.102,107.62,161.102z     M159.662,93.716h-36.15V67.294h36.15V93.716z M172.988,93.716V67.294h36.653v26.422H172.988z M214.322,161.113    c-9.78,0-17.783-7.741-18.216-17.418h1.483c0.198,4.085,1.862,7.913,4.742,10.866c3.186,3.266,7.442,5.062,11.99,5.062    c8.957,0,16.292-7.071,16.725-15.928h1.486C232.101,153.372,224.1,161.113,214.322,161.113z M260.142,93.716h-36.652V67.294    h36.652V93.716z"/>
	</g>
	<rect x="76.643" y="29.161" width="4.892" height="18.072"/>
	<rect x="100.511" y="29.161" width="4.892" height="18.072"/>
	<rect x="127.209" y="29.752" width="4.891" height="18.073"/>
	<rect x="151.076" y="29.752" width="4.891" height="18.073"/>
	<rect x="176.937" y="29.424" width="4.892" height="18.073"/>
	<rect x="200.805" y="29.424" width="4.891" height="18.073"/>
	<rect x="227.438" y="29.752" width="4.891" height="18.073"/>
	<rect x="251.305" y="29.752" width="4.891" height="18.073"/>
	<rect x="274.092" y="28.703" width="4.892" height="18.072"/>
	<rect x="76.643" y="28.78" width="202.341" height="4.756"/>
	<rect x="90.146" y="21.439" width="4.892" height="25.958"/>
	<rect x="114.014" y="21.439" width="4.891" height="25.958"/>
	<rect x="140.711" y="22.287" width="4.892" height="25.96"/>
	<rect x="164.579" y="22.287" width="4.891" height="25.96"/>
	<rect x="190.439" y="21.819" width="4.891" height="25.956"/>
	<rect x="214.307" y="21.819" width="4.892" height="25.956"/>
	<rect x="240.939" y="22.287" width="4.892" height="25.96"/>
	<rect x="264.808" y="22.287" width="4.891" height="25.96"/>
	<rect x="278.983" y="20.537" width="4.892" height="32.097"/>
	<rect x="90.146" y="20.893" width="191.283" height="6.831"/>
</g>
</svg>