<svg xmlns="http://www.w3.org/2000/svg" xmlns:xlink="http://www.w3.org/1999/xlink" version="1.1" id="Layer_1" x="0px" y="0px" width="77.2727272727px" height="100px" viewBox="0 0 612 792" enable-background="new 0 0 612 792" xml:space="preserve">
<g>
	<path fill-rule="evenodd" clip-rule="evenodd" d="M461,336c-31.69-29.17-53.67-70.62-115-65c-23.93,2.19-44.08,14.71-64,25   c-58.87,30.41-121.76,64.53-177,93c19.66,23.01,39.73,45.6,62,66c60-31.83,123.76-68.84,186-102   C383.93,336.52,422.45,320.91,461,336z M289,302l30-16.28l45.72,48.72l-30.609,15.75L289,302z"/>
	<path fill-rule="evenodd" clip-rule="evenodd" d="M416,338c-25.48,2.24-46.46,14.78-67,26c-61.55,33.62-121.95,66.24-180,100v49   c22.94-11.33,46.52-23.91,70-37c23.23-12.95,45.87-28.34,71-38c4.38,55.6,39.91,87.98,97,83c51.76-4.51,100.12-46.8,104-98   C515.19,367.8,471.6,333.11,416,338z"/>
	<polygon fill-rule="evenodd" clip-rule="evenodd" points="106,441 128,428 105,405  "/>
	<path fill-rule="evenodd" clip-rule="evenodd" d="M132,435l-24.736,13.319L158,501.229L158.72,461C149.72,452.66,132,435,132,435z"/>
	<path fill-rule="evenodd" clip-rule="evenodd" d="M294,454c3.09,5.59,10.08,12.57,14,14c-2.82-4.85-3.21-12.12-4-19   C299.9,449.9,297.06,452.06,294,454z"/>
	<polygon fill-rule="evenodd" clip-rule="evenodd" points="317.189,296.943 303.533,304.354 336.04,339.073 349.99,331.896  "/>
</g>
</svg>