<svg xmlns="http://www.w3.org/2000/svg" xmlns:xlink="http://www.w3.org/1999/xlink" version="1.1" id="Layer_1" x="0px" y="0px" width="100.0px" height="100px" viewBox="0 0 283.46 283.46" enable-background="new 0 0 283.46 283.46" xml:space="preserve">
<path d="M161.445,87.82c0.809-1.676,0.537-3.742-0.854-5.133c-6.676-6.677-15.554-10.354-24.996-10.354  c-9.443,0-18.32,3.677-24.997,10.354c-1.385,1.385-1.661,3.442-0.863,5.114c-9.06,12.129-8.475,29.228,1.754,40.714v4.917  c0,1.976,1.602,3.578,3.578,3.578v0.702c0,3.682,2.983,6.664,6.665,6.664c3.681,0,6.665-2.982,6.665-6.664v-18.479  c0-3.681-2.983-6.664-6.665-6.664c-3.682,0-6.665,2.983-6.665,6.664v0.702c-1.521,0-2.811,0.952-3.329,2.289  c-6.207-9.772-5.83-22.549,1.14-31.951c1.43,0.292,2.974-0.113,4.084-1.223c4.977-4.977,11.594-7.718,18.632-7.718  c7.038,0,13.655,2.741,18.633,7.718c0.877,0.878,2.029,1.318,3.182,1.318c0.295,0,0.592-0.031,0.883-0.089  c7.006,9.456,7.346,22.325,1.027,32.116c-0.471-1.425-1.799-2.46-3.381-2.46v-0.702c0-3.682-2.982-6.664-6.665-6.664  c-3.681,0-6.665,2.982-6.665,6.664v18.479c0,3.681,2.984,6.664,6.665,6.664c3.683,0,6.665-2.983,6.665-6.664v-0.702  c1.977,0,3.578-1.602,3.578-3.577V128.7C169.898,117.219,170.537,100.012,161.445,87.82z"/>
</svg>