<svg xmlns="http://www.w3.org/2000/svg" xmlns:xlink="http://www.w3.org/1999/xlink" version="1.1" id="Layer_1" x="0px" y="0px" width="100px" height="100px" viewBox="0 0 100 100" enable-background="new 0 0 100 100" xml:space="preserve">
<path fill-rule="evenodd" clip-rule="evenodd" d="M28.176,14.792c-0.31,0.502-0.561,1.017-0.761,1.542  c-0.355,0.92-0.565,1.87-0.648,2.844c-0.54,6.125,3.388,12.746,4.132,18.986c4.128-7.846,9.92-14.938,6.228-26.345  c-0.456,0.766-1.054,1.437-1.752,1.985c-1.221,0.959-3.128,1.531-4.442,1.531C29.799,15.334,29.213,15.205,28.176,14.792  L28.176,14.792z M37.942,6.509C40.271,4.512,44.797,3.157,50,3.157s9.732,1.355,12.058,3.352c0.745-3.195,3.605-5.577,7.031-5.577  h0.004c13.76-0.613,16.002,15.218,12.142,24.963c-4.785,12.072-5.793,16.33-2.631,16.431c1.744,0,3.157,1.416,3.157,3.16  c0,1.759-1.446,3.183-3.178,3.158c0.484,1.982-1.009,3.915-3.066,3.915c-1.121,0-2.107-0.585-2.668-1.464  c0.447,11.634-6.19,21.801-15.738,25.269v2.183c0,0.962-0.381,1.841-0.996,2.493c1.857,3.663,4.179,8.415,9.75,8.415l5.026,7.181  h1.724v2.451H50H27.386v-2.451h1.723l5.027-7.181c5.575,0,7.892-4.752,9.749-8.415c-0.615-0.652-0.996-1.531-0.996-2.493v-2.183  c-9.544-3.468-16.186-13.635-15.738-25.269c-0.561,0.879-1.543,1.464-2.664,1.464c-2.062,0-3.555-1.932-3.07-3.915  c-1.731,0.025-3.179-1.399-3.179-3.158c0-1.744,1.414-3.16,3.162-3.16c3.158-0.101,2.149-4.358-2.635-16.431  c-3.86-9.745-1.619-25.576,12.146-24.963l0,0C34.337,0.932,37.202,3.314,37.942,6.509L37.942,6.509z M71.824,14.792  c-1.033,0.412-1.619,0.542-2.753,0.542c-1.313,0-3.22-0.571-4.445-1.531c-0.698-0.548-1.297-1.219-1.748-1.985  c-3.697,11.408,2.095,18.499,6.223,26.345c0.745-6.24,4.677-12.861,4.133-18.986c-0.084-0.974-0.293-1.924-0.645-2.844  C72.384,15.809,72.133,15.294,71.824,14.792z"/>
</svg>