<svg xmlns="http://www.w3.org/2000/svg" xmlns:xlink="http://www.w3.org/1999/xlink" version="1.1" id="Layer_1" x="0px" y="0px" width="100px" height="100px" viewBox="0 0 100 100" enable-background="new 0 0 100 100" xml:space="preserve">
<path fill-rule="evenodd" clip-rule="evenodd" d="M75.394,67.849c-0.381,0.716-0.77,1.428-1.18,2.14  c-12.713,22.169-34.642,33.835-50.678,27.689c-2.177,1.553-3.902,2.106-5.016,1.47c-1.113-0.638-1.506-2.409-1.267-5.074  c-13.4-10.734-14.405-35.552-1.692-57.721c0.401-0.704,0.815-1.393,1.237-2.078c8.306,6.58,17.716,12.97,27.992,18.864  C55.132,59.071,65.466,63.988,75.394,67.849L75.394,67.849z M72.894,13.527c4.461-3.598,10.503-5.417,15.221-5.918L87.87,7.381  c-2.188-2.069-3.442-4.606-3.546-6.754c-5.938-0.453-11.902,3.607-15.797,10.203c-19.524-10.964-41.3-9.286-48.832,3.84  c-2.458,4.29-3.091,9.274-2.16,14.439c8.69,7.027,18.651,13.868,29.597,20.146S69.012,60.677,79.47,64.629  c4.925-1.804,8.905-4.866,11.368-9.158C97.91,43.139,89.91,25.052,72.894,13.527z"/>
</svg>