<svg xmlns="http://www.w3.org/2000/svg" xmlns:xlink="http://www.w3.org/1999/xlink" version="1.1" id="Layer_1" x="0px" y="0px" width="100px" height="100px" viewBox="0 0 100 100" enable-background="new 0 0 100 100" xml:space="preserve">
<path fill-rule="evenodd" clip-rule="evenodd" d="M74.409,39.725c12.017,0,21.901,9.801,21.901,22.177  c0,12.244-9.771,22.182-21.901,22.182c-7.228,0-15.287-3.741-22.673-8.552C57.297,91.71,63.367,99.81,74.409,99.845H25.591  c11.042-0.035,17.11-8.135,22.672-24.313c-7.385,4.811-15.443,8.552-22.672,8.552c-12.128,0-21.901-9.938-21.901-22.182  c0-12.376,9.887-22.177,21.901-22.177c2.998,0,6.137,0.645,9.313,1.736c-3.796-6.451-6.523-13.23-6.523-19.405  c0-12.13,9.938-21.901,22.179-21.901c12.377,0,22.184,9.885,22.184,21.901c0,6.034-2.605,12.643-6.263,18.958  C69.182,40.194,71.849,39.725,74.409,39.725z"/>
</svg>