<svg xmlns="http://www.w3.org/2000/svg" xmlns:xlink="http://www.w3.org/1999/xlink" version="1.1" id="Layer_1" x="0px" y="0px" width="100px" height="100px" viewBox="0 0 100 100" enable-background="new 0 0 100 100" xml:space="preserve">
<path fill-rule="evenodd" clip-rule="evenodd" d="M50.001,4.043c8.556,0,15.491,6.936,15.491,15.489c0,1.75-0.288,3.431-0.823,5  c2.833-3.212,6.984-5.238,11.605-5.238c8.558,0,15.493,6.939,15.493,15.493c0,7.549-5.395,13.833-12.536,15.213  c7.142,1.376,12.536,7.664,12.536,15.209c0,8.559-6.936,15.493-15.493,15.493c-4.621,0-8.772-2.025-11.605-5.234  c0.535,1.569,0.823,3.25,0.823,4.996c0,8.558-6.935,15.493-15.491,15.493c-8.558,0-15.494-6.936-15.494-15.493  c0-1.751,0.289-3.431,0.824-5c-2.837,3.213-6.985,5.238-11.614,5.238c-8.554,0-15.493-6.935-15.493-15.493  c0-7.545,5.399-13.833,12.544-15.209c-7.146-1.38-12.544-7.664-12.544-15.213c0-8.554,6.939-15.493,15.493-15.493  c4.629,0,8.776,2.026,11.614,5.238c-0.535-1.569-0.824-3.249-0.824-5C34.508,10.979,41.443,4.043,50.001,4.043L50.001,4.043z   M50.001,33.588c-9.065,0-16.416,7.347-16.416,16.412c0,9.061,7.351,16.412,16.416,16.412c9.058,0,16.406-7.352,16.406-16.412  C66.407,40.936,59.06,33.588,50.001,33.588L50.001,33.588z M0.408,50l5.391,4.934c1.742-2.257,4.032-3.933,6.577-4.934  c-2.545-1.001-4.835-2.677-6.577-4.934L0.408,50L0.408,50z M25.324,6.971l-1.573,7.137c2.825,0.383,5.42,1.528,7.562,3.233  c-0.403-2.706-0.099-5.531,0.988-8.163L25.324,6.971L25.324,6.971z M25.324,93.024l6.977-2.203  c-1.087-2.632-1.392-5.457-0.988-8.162c-2.142,1.705-4.736,2.85-7.562,3.229L25.324,93.024L25.324,93.024z M74.668,6.971L67.7,9.179  c1.079,2.631,1.392,5.457,0.98,8.163c2.141-1.705,4.735-2.85,7.569-3.233L74.668,6.971L74.668,6.971z M99.593,50l-5.396-4.934  c-1.737,2.257-4.035,3.933-6.581,4.934c2.546,1.001,4.844,2.677,6.581,4.934L99.593,50L99.593,50z M74.668,93.024l1.582-7.137  c-2.834-0.379-5.429-1.523-7.569-3.229c0.411,2.705,0.099,5.53-0.98,8.162L74.668,93.024z"/>
</svg>