<svg xmlns="http://www.w3.org/2000/svg" xmlns:xlink="http://www.w3.org/1999/xlink" version="1.1" id="Layer_1" x="0px" y="0px" width="100px" height="100px" viewBox="0 0 100 100" enable-background="new 0 0 100 100" xml:space="preserve">
<path fill-rule="evenodd" clip-rule="evenodd" fill="#000000" d="M80.85,1.073c9.816,0,17.771,7.959,17.771,17.775  c0,5.896-2.867,11.116-7.284,14.351c2.516,5.754,3.913,12.114,3.913,18.797c0,8.911-2.484,17.237-6.793,24.337  C58.452,65.55,34.462,42.155,22.894,12.536c7.325-4.728,16.051-7.474,25.423-7.474c6.372,0,12.449,1.268,17.988,3.57  C69.519,4.061,74.833,1.073,80.85,1.073L80.85,1.073z M80.85,8.305c-3.198,0-6.065,1.426-7.999,3.674  c6.049,3.719,11.189,8.762,15.013,14.734c2.164-1.93,3.524-4.74,3.524-7.866C91.388,13.025,86.673,8.305,80.85,8.305z"/>
<path fill-rule="evenodd" clip-rule="evenodd" fill="#000000" d="M17.196,16.865c12.307,30.002,36.677,53.773,67.086,65.281  c-8.609,10.257-21.526,16.781-35.966,16.781c-13.475,0-25.621-5.677-34.177-14.771c0.973-5.943,4.345-11.079,9.089-14.387  c-0.545,1.118-0.848,2.37-0.848,3.694c0,4.668,3.784,8.447,8.447,8.447c4.664,0,8.447-4.449,8.447-8.447  c0-6.727-7.276-9.908-13.079-9.908c-8.677,0-15.788,6.723-16.406,15.242C4.489,71.202,1.38,61.96,1.38,51.995  C1.38,38.011,7.497,25.462,17.196,16.865z"/>
</svg>