<svg xmlns="http://www.w3.org/2000/svg" xmlns:xlink="http://www.w3.org/1999/xlink" version="1.1" id="Layer_1" x="0px" y="0px" width="100px" height="100px" viewBox="0 0 100 100" enable-background="new 0 0 100 100" xml:space="preserve">
<path fill-rule="evenodd" clip-rule="evenodd" fill="#000000" d="M33.349,46.271c0.611,5.118,2.878,10.074,6.795,14.004  c3.921,3.934,8.87,6.213,13.986,6.845l-0.392,13.342L40.4,80.804c-0.611-5.111-2.878-10.072-6.799-14.002  c-3.921-3.934-8.87-6.212-13.981-6.844l0.383-13.336L33.349,46.271L33.349,46.271z M98.667,1.469l-16.97,5.943L37.661,51.316  c1.137,2.436,2.715,4.716,4.721,6.729c1.834,1.847,3.896,3.326,6.098,4.439l44.195-44.059L98.667,1.469L98.667,1.469z   M11.455,88.418c2.312,2.32,2.303,6.07-0.012,8.381c-2.319,2.315-6.073,2.308-8.381-0.012c-2.307-2.319-2.307-6.069,0.012-8.377  C5.394,86.095,9.144,86.104,11.455,88.418L11.455,88.418z M15.755,89.396L35.15,73.964c-1.019-1.761-2.279-3.424-3.783-4.933  c-1.68-1.684-3.542-3.061-5.528-4.137l-15.355,19.22c1.17,0.439,2.262,1.133,3.208,2.078C14.63,87.13,15.315,88.23,15.755,89.396z"/>
</svg>