<svg xmlns="http://www.w3.org/2000/svg" xmlns:xlink="http://www.w3.org/1999/xlink" version="1.1" id="Layer_1" x="0px" y="0px" width="100px" height="100px" viewBox="0 0 100 100" enable-background="new 0 0 100 100" xml:space="preserve">
<path fill-rule="evenodd" clip-rule="evenodd" d="M99.088,1.208c0.953,0.957,0.949,2.504-0.008,3.458  c-0.522,0.516-1.21,0.75-1.886,0.706c2.987,4.112,2.619,9.899-1.098,13.593l-2.842,2.829l0.087,0.089  c0.721,0.725,0.717,1.906-0.004,2.625l-0.737,0.731c-0.489,0.483-1.185,0.64-1.803,0.468c-0.004,0.818-0.318,1.636-0.939,2.26  c-1.252,1.243-3.273,1.237-4.517-0.015c-0.099-0.101-0.198-0.209-0.281-0.321l-4.83,4.801l1.242,1.251  c0.721,0.723,0.717,1.903-0.008,2.625l-0.737,0.729c-0.721,0.719-1.901,0.717-2.618-0.008l-1.243-1.249L29.958,82.404  c1.226,1.652,2.09,3.02,1.821,3.289l-0.733,0.733c-0.284,0.277-1.779-0.7-3.54-2.042c-0.35,2.088-1.334,4.089-2.95,5.696  c-2.912,2.892-7.094,3.724-10.738,2.502c-0.068,1.541-0.694,3.062-1.872,4.233c-2.281,2.267-5.844,2.453-8.333,0.568  c0.133,0.567-0.021,1.188-0.466,1.628c-0.675,0.671-1.769,0.671-2.442-0.009c-0.673-0.679-0.671-1.772,0.006-2.444  c0.443-0.438,1.064-0.588,1.63-0.455c-1.868-2.502-1.661-6.062,0.62-8.327c1.179-1.177,2.703-1.79,4.244-1.848  c-1.201-3.654-0.344-7.83,2.568-10.726c1.616-1.604,3.623-2.573,5.713-2.912c-1.334-1.77-2.301-3.273-2.021-3.555l0.735-0.729  c0.271-0.27,1.632,0.605,3.279,1.84l46.911-46.623l-1.242-1.251c-0.721-0.725-0.721-1.905,0.004-2.624l0.733-0.727  c0.725-0.721,1.905-0.717,2.626,0.006l1.243,1.251l4.83-4.804c-0.111-0.085-0.219-0.178-0.322-0.282  c-1.243-1.251-1.235-3.273,0.017-4.514c0.625-0.624,1.441-0.932,2.262-0.93c-0.166-0.621-0.004-1.317,0.484-1.802l0.733-0.729  c0.721-0.719,1.905-0.714,2.627,0.011l0.087,0.089l2.846-2.828c3.712-3.693,9.504-4.029,13.597-1.015  c-0.041-0.677,0.199-1.365,0.721-1.879C96.586,0.245,98.135,0.249,99.088,1.208z"/>
</svg>