<svg xmlns="http://www.w3.org/2000/svg" xmlns:xlink="http://www.w3.org/1999/xlink" version="1.1" id="Ebene_1" x="0px" y="0px" width="100.0px" height="100px" viewBox="0 0 255.12 255.12" enable-background="new 0 0 255.12 255.12" xml:space="preserve">
<path d="M151.2,16.992h-47.082L87.534,86.261l21.589,152.082h37.072l21.589-152.082L151.2,16.992z M142.43,185.742h-8.798v21.401  h-11.973v-21.401h-8.771v-11.943h8.771v-8.951h11.973v8.951h8.798V185.742z"/>
<path d="M131.955,166.493h-8.711v9.011h-8.74v8.591h8.74v21.403h8.711v-21.403h8.77v-8.591h-8.77V166.493z M138.839,177.421v4.908  h-8.71v21.312h-4.908v-21.312h-8.771v-4.908h8.771v-9.011h4.908v9.011H138.839z"/>
<path d="M157.9,8.5H97.417L78.9,85.854l22.853,160.979h51.812l22.853-160.979L157.9,8.5z M172.33,81.54c0.1,0.4-0.15,0.8-0.55,0.9  c-0.061,0.01-0.12,0.02-0.181,0.02c-0.34,0-0.64-0.23-0.729-0.57c-0.09-0.41,0.16-0.81,0.56-0.91  C171.83,80.89,172.24,81.13,172.33,81.54z M171.399,77.66c0.101,0.4-0.149,0.81-0.55,0.9c-0.06,0.02-0.12,0.02-0.18,0.02  c-0.34,0-0.65-0.23-0.73-0.57c-0.09-0.4,0.16-0.81,0.561-0.91C170.899,77.01,171.3,77.26,171.399,77.66z M170.47,73.78  c0.1,0.4-0.15,0.81-0.55,0.91c-0.061,0.01-0.12,0.02-0.18,0.02c-0.341,0-0.641-0.23-0.73-0.58c-0.09-0.4,0.15-0.81,0.56-0.9  C169.97,73.13,170.37,73.38,170.47,73.78z M169.54,69.9c0.1,0.41-0.15,0.81-0.561,0.91c-0.05,0.01-0.109,0.02-0.17,0.02  c-0.34,0-0.649-0.23-0.729-0.58c-0.101-0.4,0.149-0.8,0.55-0.9C169.04,69.25,169.439,69.5,169.54,69.9z M168.609,66.03  c0.091,0.4-0.149,0.8-0.56,0.9c-0.06,0.01-0.12,0.02-0.17,0.02c-0.34,0-0.65-0.23-0.73-0.57c-0.1-0.41,0.15-0.81,0.551-0.91  C168.109,65.38,168.51,65.62,168.609,66.03z M167.68,62.15c0.09,0.4-0.149,0.81-0.56,0.9c-0.061,0.02-0.11,0.02-0.17,0.02  c-0.341,0-0.65-0.23-0.73-0.57c-0.1-0.4,0.15-0.81,0.55-0.91C167.18,61.5,167.58,61.75,167.68,62.15z M166.74,58.27  c0.1,0.4-0.15,0.81-0.551,0.91c-0.06,0.01-0.12,0.02-0.17,0.02c-0.34,0-0.649-0.24-0.729-0.58c-0.101-0.4,0.149-0.81,0.55-0.9  C166.24,57.62,166.649,57.87,166.74,58.27z M165.81,54.39c0.101,0.41-0.149,0.81-0.55,0.91c-0.06,0.01-0.12,0.02-0.18,0.02  c-0.34,0-0.641-0.23-0.721-0.58c-0.1-0.4,0.15-0.8,0.551-0.9C165.31,53.74,165.72,53.99,165.81,54.39z M164.88,50.52  c0.1,0.4-0.15,0.8-0.55,0.9c-0.061,0.01-0.12,0.02-0.181,0.02c-0.34,0-0.64-0.23-0.72-0.57c-0.1-0.41,0.15-0.81,0.55-0.91  C164.38,49.86,164.79,50.11,164.88,50.52z M163.95,46.64c0.1,0.4-0.15,0.81-0.551,0.9c-0.06,0.02-0.119,0.02-0.18,0.02  c-0.34,0-0.64-0.23-0.729-0.57c-0.091-0.41,0.149-0.81,0.56-0.91C163.45,45.99,163.85,46.23,163.95,46.64z M163.02,42.76  c0.101,0.4-0.149,0.81-0.55,0.91c-0.06,0.01-0.12,0.02-0.18,0.02c-0.34,0-0.641-0.24-0.73-0.58c-0.09-0.4,0.15-0.81,0.561-0.9  C162.52,42.11,162.93,42.36,163.02,42.76z M162.09,38.88c0.1,0.41-0.15,0.81-0.56,0.91c-0.051,0.01-0.11,0.02-0.171,0.02  c-0.34,0-0.649-0.23-0.729-0.58c-0.1-0.4,0.15-0.8,0.56-0.9C161.59,38.23,161.99,38.48,162.09,38.88z M161.16,35.01  c0.1,0.4-0.15,0.8-0.551,0.9c-0.06,0.02-0.119,0.02-0.18,0.02c-0.34,0-0.649-0.23-0.729-0.57c-0.101-0.41,0.149-0.81,0.55-0.91  C160.66,34.35,161.06,34.6,161.16,35.01z M160.229,31.13c0.09,0.4-0.149,0.81-0.56,0.9c-0.061,0.02-0.11,0.02-0.17,0.02  c-0.34,0-0.65-0.23-0.73-0.57c-0.1-0.4,0.15-0.81,0.55-0.91C159.729,30.48,160.13,30.73,160.229,31.13z M159.29,27.25  c0.1,0.4-0.15,0.81-0.55,0.91c-0.061,0.01-0.12,0.02-0.181,0.02c-0.33,0-0.64-0.23-0.72-0.58c-0.1-0.4,0.15-0.81,0.55-0.9  C158.79,26.6,159.2,26.85,159.29,27.25z M158.359,23.37c0.101,0.41-0.149,0.81-0.55,0.91c-0.06,0.01-0.12,0.02-0.17,0.02  c-0.34,0-0.649-0.23-0.729-0.58c-0.101-0.4,0.149-0.8,0.55-0.9C157.859,22.72,158.27,22.97,158.359,23.37z M157.43,19.5  c0.101,0.4-0.149,0.8-0.55,0.9c-0.061,0.02-0.12,0.02-0.18,0.02c-0.341,0-0.641-0.23-0.721-0.57c-0.1-0.41,0.15-0.81,0.551-0.91  C156.93,18.85,157.34,19.09,157.43,19.5z M156.5,15.62c0.1,0.4-0.15,0.81-0.55,0.9c-0.061,0.02-0.12,0.02-0.181,0.02  c-0.34,0-0.64-0.23-0.729-0.57c-0.09-0.4,0.16-0.81,0.56-0.91C156,14.97,156.399,15.22,156.5,15.62z M154.31,11.39  c0.29-0.28,0.78-0.28,1.061,0c0.14,0.14,0.22,0.33,0.22,0.53c0,0.19-0.08,0.38-0.22,0.53c-0.141,0.14-0.33,0.22-0.53,0.22  c-0.19,0-0.39-0.08-0.53-0.22c-0.14-0.14-0.22-0.34-0.22-0.53C154.09,11.72,154.17,11.53,154.31,11.39z M150.96,11.17  c0.41,0,0.75,0.33,0.75,0.75c0,0.41-0.34,0.75-0.75,0.75c-0.42,0-0.75-0.34-0.75-0.75C150.21,11.5,150.54,11.17,150.96,11.17z   M147.069,11.17c0.421,0,0.75,0.33,0.75,0.75c0,0.41-0.329,0.75-0.75,0.75c-0.409,0-0.739-0.34-0.739-0.75  C146.33,11.5,146.66,11.17,147.069,11.17z M143.189,11.17c0.41,0,0.75,0.33,0.75,0.75c0,0.41-0.34,0.75-0.75,0.75  c-0.409,0-0.75-0.34-0.75-0.75C142.439,11.5,142.78,11.17,143.189,11.17z M139.31,11.17c0.41,0,0.75,0.33,0.75,0.75  c0,0.41-0.34,0.75-0.75,0.75c-0.42,0-0.75-0.34-0.75-0.75C138.56,11.5,138.89,11.17,139.31,11.17z M135.42,11.17  c0.42,0,0.75,0.33,0.75,0.75c0,0.41-0.33,0.75-0.75,0.75c-0.41,0-0.74-0.34-0.74-0.75C134.68,11.5,135.01,11.17,135.42,11.17z   M131.54,11.17c0.42,0,0.75,0.33,0.75,0.75c0,0.41-0.33,0.75-0.75,0.75c-0.41,0-0.75-0.34-0.75-0.75  C130.79,11.5,131.13,11.17,131.54,11.17z M127.66,11.17c0.41,0,0.75,0.33,0.75,0.75c0,0.41-0.34,0.75-0.75,0.75  c-0.42,0-0.75-0.34-0.75-0.75C126.91,11.5,127.24,11.17,127.66,11.17z M123.78,11.17c0.41,0,0.75,0.33,0.75,0.75  c0,0.41-0.34,0.75-0.75,0.75c-0.42,0-0.75-0.34-0.75-0.75C123.03,11.5,123.36,11.17,123.78,11.17z M119.89,11.17  c0.42,0,0.75,0.33,0.75,0.75c0,0.41-0.33,0.75-0.75,0.75c-0.41,0-0.75-0.34-0.75-0.75C119.14,11.5,119.48,11.17,119.89,11.17z   M116.01,11.17c0.41,0,0.75,0.33,0.75,0.75c0,0.41-0.34,0.75-0.75,0.75c-0.42,0-0.75-0.34-0.75-0.75  C115.26,11.5,115.59,11.17,116.01,11.17z M112.13,11.17c0.41,0,0.75,0.33,0.75,0.75c0,0.41-0.34,0.75-0.75,0.75  c-0.42,0-0.75-0.34-0.75-0.75C111.38,11.5,111.71,11.17,112.13,11.17z M108.24,11.17c0.42,0,0.75,0.33,0.75,0.75  c0,0.41-0.33,0.75-0.75,0.75c-0.41,0-0.75-0.34-0.75-0.75C107.49,11.5,107.83,11.17,108.24,11.17z M104.36,11.17  c0.41,0,0.75,0.33,0.75,0.75c0,0.41-0.34,0.75-0.75,0.75s-0.75-0.34-0.75-0.75C103.61,11.5,103.95,11.17,104.36,11.17z M99.94,11.39  c0.29-0.29,0.78-0.28,1.07-0.01c0.14,0.15,0.22,0.34,0.22,0.54c0,0.19-0.08,0.39-0.22,0.53c-0.14,0.14-0.34,0.22-0.53,0.22  c-0.2,0-0.4-0.08-0.54-0.22c-0.13-0.14-0.21-0.34-0.21-0.53C99.73,11.72,99.81,11.53,99.94,11.39z M98.81,15.62  c0.1-0.4,0.51-0.65,0.91-0.56c0.4,0.1,0.65,0.51,0.55,0.91c-0.08,0.34-0.39,0.57-0.73,0.57c-0.05,0-0.11,0-0.17-0.02  C98.97,16.42,98.72,16.02,98.81,15.62z M97.88,19.5c0.1-0.41,0.51-0.66,0.91-0.56c0.4,0.1,0.65,0.5,0.55,0.91  c-0.08,0.34-0.39,0.57-0.73,0.57c-0.05,0-0.11,0-0.17-0.02C98.04,20.3,97.79,19.9,97.88,19.5z M96.95,23.37  c0.1-0.4,0.5-0.65,0.91-0.55c0.4,0.1,0.65,0.5,0.55,0.9c-0.08,0.35-0.39,0.58-0.73,0.58c-0.05,0-0.11-0.01-0.17-0.02  C97.1,24.18,96.86,23.78,96.95,23.37z M96.02,27.25c0.1-0.4,0.5-0.65,0.91-0.55c0.4,0.09,0.65,0.5,0.55,0.9  c-0.08,0.34-0.39,0.58-0.73,0.58c-0.06,0-0.11-0.01-0.17-0.02C96.17,28.06,95.92,27.65,96.02,27.25z M95.09,31.13  c0.1-0.4,0.5-0.65,0.91-0.56c0.4,0.1,0.65,0.51,0.55,0.91c-0.08,0.34-0.39,0.57-0.73,0.57c-0.06,0-0.12,0-0.18-0.02  C95.24,31.94,94.99,31.53,95.09,31.13z M94.16,35.01c0.1-0.41,0.5-0.66,0.9-0.56c0.41,0.1,0.65,0.5,0.56,0.91  c-0.09,0.34-0.39,0.57-0.73,0.57c-0.06,0-0.12,0-0.18-0.02C94.31,35.81,94.06,35.41,94.16,35.01z M93.23,38.88  c0.09-0.4,0.5-0.65,0.9-0.55c0.4,0.1,0.65,0.5,0.56,0.9c-0.09,0.35-0.39,0.58-0.73,0.58c-0.06,0-0.12-0.01-0.18-0.02  C93.38,39.69,93.13,39.29,93.23,38.88z M92.3,42.76c0.09-0.4,0.5-0.65,0.9-0.55c0.4,0.09,0.65,0.5,0.56,0.9  c-0.09,0.34-0.4,0.58-0.73,0.58c-0.06,0-0.12-0.01-0.18-0.02C92.45,43.57,92.2,43.16,92.3,42.76z M91.37,46.64  c0.09-0.41,0.5-0.65,0.9-0.56c0.4,0.1,0.65,0.5,0.55,0.91c-0.08,0.34-0.39,0.57-0.73,0.57c-0.05,0-0.11,0-0.17-0.02  C91.52,47.45,91.27,47.04,91.37,46.64z M90.43,50.52c0.1-0.41,0.51-0.66,0.91-0.56s0.65,0.5,0.55,0.91  c-0.08,0.34-0.39,0.57-0.72,0.57c-0.06,0-0.12-0.01-0.18-0.02C90.59,51.32,90.34,50.92,90.43,50.52z M89.5,54.39  c0.1-0.4,0.5-0.65,0.91-0.55c0.4,0.1,0.65,0.5,0.55,0.9c-0.08,0.35-0.39,0.58-0.73,0.58c-0.06,0-0.11-0.01-0.17-0.02  C89.65,55.2,89.41,54.8,89.5,54.39z M88.57,58.27c0.1-0.4,0.5-0.65,0.91-0.55c0.4,0.09,0.65,0.5,0.55,0.9  c-0.08,0.34-0.39,0.58-0.73,0.58c-0.06,0-0.12-0.01-0.17-0.02C88.72,59.08,88.47,58.67,88.57,58.27z M87.64,62.15  c0.1-0.4,0.5-0.65,0.91-0.56c0.4,0.1,0.65,0.51,0.55,0.91c-0.08,0.34-0.39,0.57-0.73,0.57c-0.06,0-0.12,0-0.17-0.02  C87.79,62.96,87.54,62.55,87.64,62.15z M86.71,66.03c0.1-0.41,0.5-0.65,0.9-0.56c0.41,0.1,0.65,0.5,0.56,0.91  c-0.09,0.34-0.39,0.57-0.73,0.57c-0.06,0-0.12-0.01-0.18-0.02C86.86,66.83,86.61,66.43,86.71,66.03z M85.78,69.9  c0.09-0.4,0.5-0.65,0.9-0.55c0.4,0.1,0.65,0.5,0.56,0.9c-0.09,0.35-0.39,0.58-0.73,0.58c-0.06,0-0.12-0.01-0.18-0.02  C85.93,70.71,85.68,70.31,85.78,69.9z M84.85,73.78c0.09-0.4,0.5-0.65,0.9-0.55c0.4,0.09,0.65,0.5,0.56,0.9  c-0.09,0.35-0.4,0.58-0.73,0.58c-0.06,0-0.12-0.01-0.18-0.02C85,74.59,84.75,74.18,84.85,73.78z M83.92,77.66  c0.09-0.4,0.5-0.65,0.9-0.56c0.4,0.1,0.65,0.51,0.55,0.91c-0.08,0.34-0.39,0.57-0.72,0.57c-0.06,0-0.12,0-0.18-0.02  C84.07,78.47,83.82,78.06,83.92,77.66z M82.98,81.54c0.1-0.41,0.51-0.65,0.91-0.56c0.4,0.1,0.65,0.5,0.55,0.91  c-0.08,0.34-0.39,0.57-0.72,0.57c-0.06,0-0.12-0.01-0.18-0.02C83.14,82.34,82.89,81.94,82.98,81.54z M82.05,85.41  c0.1-0.4,0.5-0.65,0.91-0.55c0.4,0.1,0.65,0.5,0.55,0.9c-0.08,0.35-0.39,0.58-0.73,0.58c-0.06,0-0.11-0.01-0.17-0.02  C82.2,86.22,81.96,85.82,82.05,85.41z M82.53,89.64c-0.06-0.41,0.22-0.79,0.63-0.85c0.41-0.06,0.79,0.23,0.85,0.64  c0.06,0.41-0.23,0.79-0.63,0.85c-0.04,0-0.08,0-0.11,0C82.9,90.28,82.58,90.01,82.53,89.64z M83.09,93.59  c-0.06-0.41,0.22-0.79,0.64-0.85c0.41-0.06,0.79,0.23,0.84,0.63c0.06,0.41-0.22,0.8-0.63,0.85c-0.04,0.01-0.08,0.01-0.11,0.01  C83.46,94.23,83.14,93.96,83.09,93.59z M83.65,97.54c-0.06-0.41,0.23-0.8,0.64-0.85c0.41-0.06,0.79,0.22,0.85,0.63  c0.05,0.41-0.23,0.79-0.64,0.85c-0.04,0.01-0.07,0.01-0.11,0.01C84.02,98.18,83.7,97.91,83.65,97.54z M84.21,101.48  c-0.06-0.41,0.23-0.79,0.64-0.85c0.41-0.05,0.79,0.23,0.85,0.64c0.06,0.41-0.23,0.79-0.64,0.85c-0.03,0.01-0.07,0.01-0.11,0.01  C84.59,102.13,84.27,101.86,84.21,101.48z M84.78,105.43c-0.06-0.41,0.22-0.79,0.63-0.85c0.41-0.06,0.79,0.23,0.85,0.64  c0.06,0.41-0.23,0.79-0.64,0.85c-0.03,0-0.07,0-0.1,0C85.15,106.07,84.83,105.8,84.78,105.43z M85.34,109.38  c-0.06-0.41,0.22-0.79,0.63-0.85c0.41-0.06,0.79,0.23,0.85,0.64c0.06,0.41-0.22,0.79-0.63,0.85c-0.04,0-0.07,0-0.11,0  C85.71,110.02,85.39,109.75,85.34,109.38z M85.9,113.33c-0.06-0.41,0.23-0.79,0.64-0.85c0.41-0.06,0.79,0.22,0.84,0.63  c0.06,0.41-0.22,0.79-0.63,0.85c-0.04,0.01-0.07,0.01-0.11,0.01C86.27,113.97,85.95,113.7,85.9,113.33z M86.46,117.27  c-0.06-0.41,0.23-0.79,0.64-0.84c0.41-0.06,0.79,0.22,0.85,0.63c0.06,0.41-0.23,0.79-0.64,0.85c-0.04,0.01-0.07,0.01-0.11,0.01  C86.83,117.92,86.51,117.65,86.46,117.27z M87.02,121.22c-0.05-0.41,0.23-0.79,0.64-0.85c0.41-0.06,0.79,0.23,0.85,0.64  s-0.23,0.79-0.64,0.85c-0.03,0-0.07,0.01-0.1,0.01C87.4,121.87,87.08,121.6,87.02,121.22z M87.59,125.17  c-0.06-0.41,0.22-0.79,0.63-0.85c0.41-0.06,0.79,0.23,0.85,0.64c0.06,0.41-0.22,0.79-0.63,0.85c-0.04,0-0.08,0-0.11,0  C87.96,125.81,87.64,125.54,87.59,125.17z M88.15,129.12c-0.06-0.41,0.22-0.791,0.64-0.85c0.41-0.06,0.79,0.23,0.84,0.64  c0.06,0.41-0.22,0.791-0.63,0.84c-0.04,0.01-0.07,0.01-0.11,0.01C88.52,129.76,88.2,129.49,88.15,129.12z M88.71,133.06  c-0.06-0.41,0.23-0.79,0.64-0.84c0.41-0.06,0.79,0.22,0.85,0.63c0.05,0.41-0.23,0.79-0.64,0.851c-0.04,0.01-0.07,0.01-0.11,0.01  C89.09,133.71,88.76,133.439,88.71,133.06z M89.27,137.01c-0.06-0.41,0.23-0.79,0.64-0.85c0.41-0.061,0.79,0.229,0.85,0.64  s-0.23,0.79-0.64,0.85c-0.03,0-0.07,0.011-0.11,0.011C89.65,137.66,89.33,137.39,89.27,137.01z M89.84,140.96  c-0.06-0.41,0.22-0.79,0.63-0.851c0.41-0.06,0.79,0.23,0.85,0.641s-0.23,0.79-0.64,0.85c-0.03,0-0.07,0.01-0.1,0.01  C90.21,141.609,89.89,141.34,89.84,140.96z M90.4,144.91c-0.06-0.41,0.23-0.79,0.64-0.851c0.4-0.06,0.79,0.23,0.84,0.641  c0.06,0.409-0.22,0.79-0.63,0.85c-0.04,0-0.08,0-0.11,0C90.77,145.55,90.45,145.28,90.4,144.91z M90.96,148.859  c-0.06-0.409,0.23-0.79,0.64-0.85c0.41-0.06,0.79,0.22,0.84,0.63c0.06,0.41-0.22,0.79-0.63,0.851c-0.04,0.01-0.07,0.01-0.11,0.01  C91.33,149.5,91.01,149.229,90.96,148.859z M91.52,152.81c-0.05-0.41,0.23-0.8,0.64-0.85c0.41-0.061,0.79,0.22,0.85,0.63  s-0.23,0.79-0.64,0.85c-0.03,0.011-0.07,0.011-0.1,0.011C91.9,153.45,91.58,153.18,91.52,152.81z M92.08,156.75  c-0.05-0.41,0.23-0.79,0.64-0.851c0.41-0.05,0.79,0.23,0.85,0.641s-0.23,0.79-0.64,0.85c-0.03,0.01-0.07,0.01-0.1,0.01  C92.46,157.399,92.14,157.13,92.08,156.75z M92.65,160.7c-0.06-0.41,0.22-0.79,0.63-0.851c0.41-0.06,0.79,0.23,0.85,0.641  c0.06,0.409-0.22,0.79-0.64,0.85c-0.03,0-0.07,0-0.1,0C93.02,161.34,92.7,161.069,92.65,160.7z M93.21,164.649  c-0.06-0.409,0.23-0.79,0.64-0.85c0.41-0.06,0.79,0.23,0.85,0.64c0.05,0.41-0.23,0.79-0.64,0.851c-0.04,0-0.07,0-0.11,0  C93.58,165.29,93.26,165.02,93.21,164.649z M93.77,168.6c-0.06-0.41,0.23-0.79,0.64-0.85c0.41-0.061,0.79,0.22,0.85,0.63  c0.06,0.42-0.23,0.79-0.64,0.85c-0.04,0.011-0.07,0.011-0.11,0.011C94.15,169.24,93.83,168.97,93.77,168.6z M94.33,172.54  c-0.06-0.41,0.23-0.79,0.64-0.84c0.41-0.061,0.79,0.22,0.85,0.63s-0.23,0.79-0.64,0.85c-0.03,0.01-0.07,0.01-0.1,0.01  C94.71,173.189,94.39,172.92,94.33,172.54z M94.9,176.49c-0.06-0.41,0.22-0.79,0.63-0.851c0.41-0.06,0.79,0.23,0.85,0.641  c0.06,0.409-0.23,0.789-0.63,0.85c-0.04,0-0.08,0.01-0.11,0.01C95.27,177.14,94.95,176.87,94.9,176.49z M95.46,180.439  c-0.06-0.409,0.23-0.79,0.64-0.85c0.41-0.06,0.79,0.229,0.84,0.64c0.06,0.41-0.22,0.79-0.63,0.851c-0.04,0-0.08,0.01-0.11,0.01  C95.83,181.09,95.51,180.81,95.46,180.439z M96.02,184.39c-0.06-0.41,0.23-0.79,0.64-0.85c0.41-0.061,0.79,0.229,0.85,0.64  c0.05,0.41-0.23,0.79-0.64,0.84c-0.04,0.011-0.07,0.011-0.11,0.011C96.39,185.03,96.07,184.76,96.02,184.39z M96.58,188.34  c-0.06-0.41,0.23-0.79,0.64-0.85c0.41-0.061,0.79,0.22,0.85,0.64c0.06,0.4-0.23,0.78-0.64,0.84c-0.03,0.01-0.07,0.01-0.11,0.01  C96.96,188.979,96.64,188.71,96.58,188.34z M97.15,192.28c-0.06-0.41,0.22-0.79,0.63-0.841c0.41-0.06,0.79,0.221,0.85,0.63  c0.06,0.41-0.23,0.79-0.64,0.851c-0.03,0.01-0.07,0.01-0.11,0.01C97.52,192.93,97.2,192.66,97.15,192.28z M97.71,196.229  c-0.06-0.41,0.22-0.79,0.63-0.85c0.41-0.061,0.79,0.229,0.85,0.64s-0.23,0.79-0.64,0.851c-0.03,0-0.07,0.01-0.1,0.01  C98.08,196.88,97.76,196.609,97.71,196.229z M98.27,200.18c-0.06-0.41,0.23-0.79,0.64-0.85c0.41-0.061,0.79,0.229,0.84,0.64  c0.06,0.41-0.22,0.79-0.63,0.85c-0.04,0-0.07,0-0.11,0C98.64,200.819,98.32,200.56,98.27,200.18z M98.83,204.13  c-0.06-0.41,0.23-0.79,0.64-0.85c0.41-0.061,0.79,0.22,0.85,0.63c0.06,0.409-0.23,0.79-0.64,0.85c-0.04,0.01-0.07,0.01-0.11,0.01  C99.2,204.77,98.88,204.5,98.83,204.13z M99.39,208.08c-0.05-0.41,0.23-0.8,0.64-0.851c0.41-0.06,0.79,0.221,0.85,0.63  c0.06,0.41-0.23,0.79-0.64,0.851c-0.03,0.01-0.07,0.01-0.1,0.01C99.77,208.72,99.45,208.45,99.39,208.08z M99.96,212.02  c-0.06-0.41,0.22-0.79,0.63-0.85c0.41-0.05,0.79,0.229,0.85,0.64s-0.22,0.79-0.63,0.851c-0.04,0.01-0.08,0.01-0.11,0.01  C100.33,212.67,100.01,212.399,99.96,212.02z M100.52,215.97c-0.06-0.41,0.22-0.79,0.64-0.85c0.41-0.061,0.78,0.229,0.84,0.64  s-0.22,0.79-0.63,0.85c-0.04,0-0.07,0-0.11,0C100.89,216.609,100.57,216.34,100.52,215.97z M101.08,219.92  c-0.06-0.41,0.23-0.79,0.64-0.851c0.41-0.06,0.79,0.23,0.85,0.641c0.05,0.41-0.23,0.79-0.64,0.85c-0.04,0-0.07,0-0.11,0  C101.46,220.56,101.13,220.29,101.08,219.92z M101.64,223.87c-0.06-0.41,0.23-0.79,0.64-0.851c0.41-0.06,0.79,0.221,0.85,0.63  c0.06,0.42-0.23,0.79-0.64,0.851c-0.04,0.01-0.07,0.01-0.11,0.01C102.02,224.51,101.7,224.24,101.64,223.87z M102.21,227.81  c-0.06-0.41,0.22-0.79,0.63-0.84c0.41-0.06,0.79,0.22,0.85,0.63s-0.23,0.79-0.64,0.851c-0.03,0.01-0.07,0.01-0.1,0.01  C102.58,228.46,102.26,228.189,102.21,227.81z M102.77,231.76c-0.06-0.41,0.23-0.79,0.63-0.85c0.41-0.061,0.8,0.229,0.85,0.64  c0.06,0.41-0.22,0.79-0.63,0.85c-0.04,0-0.08,0.011-0.11,0.011C103.14,232.41,102.82,232.14,102.77,231.76z M103.33,235.71  c-0.06-0.41,0.23-0.79,0.64-0.851c0.41-0.06,0.79,0.23,0.84,0.641c0.06,0.41-0.22,0.79-0.63,0.85c-0.04,0-0.07,0-0.11,0  C103.7,236.35,103.38,236.08,103.33,235.71z M103.89,239.66c-0.06-0.41,0.23-0.79,0.64-0.851c0.41-0.06,0.79,0.23,0.85,0.641  c0.06,0.409-0.23,0.79-0.64,0.85c-0.03,0-0.07,0-0.11,0C104.27,240.3,103.94,240.03,103.89,239.66z M105.73,244.03  c-0.14,0.14-0.34,0.22-0.53,0.22c-0.2,0-0.39-0.08-0.53-0.22c-0.14-0.141-0.22-0.33-0.22-0.53s0.08-0.391,0.22-0.53  c0.28-0.28,0.77-0.28,1.06,0c0.14,0.14,0.22,0.33,0.22,0.53S105.87,243.89,105.73,244.03z M109.28,244.25  c-0.41,0-0.75-0.33-0.75-0.75c0-0.41,0.34-0.75,0.75-0.75c0.42,0,0.75,0.34,0.75,0.75C110.03,243.92,109.7,244.25,109.28,244.25z   M113.37,244.25c-0.42,0-0.75-0.33-0.75-0.75c0-0.41,0.33-0.75,0.75-0.75c0.41,0,0.74,0.34,0.74,0.75  C114.11,243.92,113.78,244.25,113.37,244.25z M117.45,244.25c-0.41,0-0.75-0.33-0.75-0.75c0-0.41,0.34-0.75,0.75-0.75  c0.41,0,0.75,0.34,0.75,0.75C118.2,243.92,117.86,244.25,117.45,244.25z M121.53,244.25c-0.41,0-0.75-0.33-0.75-0.75  c0-0.41,0.34-0.75,0.75-0.75c0.42,0,0.75,0.34,0.75,0.75C122.28,243.92,121.95,244.25,121.53,244.25z M125.62,244.25  c-0.42,0-0.75-0.33-0.75-0.75c0-0.41,0.33-0.75,0.75-0.75c0.41,0,0.75,0.34,0.75,0.75C126.37,243.92,126.03,244.25,125.62,244.25z   M129.7,244.25c-0.41,0-0.75-0.33-0.75-0.75c0-0.41,0.34-0.75,0.75-0.75c0.409,0,0.75,0.34,0.75,0.75  C130.45,243.92,130.109,244.25,129.7,244.25z M133.78,244.25c-0.41,0-0.75-0.33-0.75-0.75c0-0.41,0.34-0.75,0.75-0.75  c0.42,0,0.75,0.34,0.75,0.75C134.53,243.92,134.2,244.25,133.78,244.25z M137.87,244.25c-0.42,0-0.75-0.33-0.75-0.75  c0-0.41,0.33-0.75,0.75-0.75c0.41,0,0.75,0.34,0.75,0.75C138.62,243.92,138.28,244.25,137.87,244.25z M141.95,244.25  c-0.41,0-0.75-0.33-0.75-0.75c0-0.41,0.34-0.75,0.75-0.75c0.42,0,0.75,0.34,0.75,0.75C142.7,243.92,142.37,244.25,141.95,244.25z   M146.04,244.25c-0.42,0-0.75-0.33-0.75-0.75c0-0.41,0.33-0.75,0.75-0.75c0.41,0,0.75,0.34,0.75,0.75  C146.79,243.92,146.45,244.25,146.04,244.25z M107.649,240.041L85.808,86.18l16.97-70.886h49.762l16.971,70.886l-21.842,153.861  H107.649z M150.649,244.03c-0.14,0.14-0.33,0.22-0.529,0.22c-0.2,0-0.391-0.08-0.53-0.22c-0.14-0.141-0.22-0.33-0.22-0.53  s0.08-0.38,0.22-0.53c0.28-0.28,0.78-0.28,1.06,0c0.141,0.15,0.221,0.33,0.221,0.53S150.79,243.89,150.649,244.03z M150.68,240.3  c-0.03,0-0.07,0-0.1,0c-0.41-0.06-0.7-0.44-0.641-0.85c0.061-0.41,0.44-0.7,0.851-0.641c0.41,0.061,0.689,0.44,0.63,0.851  C151.37,240.03,151.05,240.3,150.68,240.3z M151.24,236.35c-0.03,0-0.07,0-0.101,0c-0.41-0.06-0.7-0.439-0.64-0.85  c0.06-0.41,0.439-0.7,0.85-0.641c0.41,0.061,0.7,0.44,0.641,0.851C151.93,236.08,151.609,236.35,151.24,236.35z M151.81,232.41  c-0.04,0-0.069-0.011-0.109-0.011c-0.41-0.06-0.69-0.439-0.641-0.85c0.061-0.41,0.44-0.7,0.851-0.64  c0.409,0.06,0.699,0.439,0.64,0.85C152.5,232.14,152.18,232.41,151.81,232.41z M152.37,228.46c-0.03,0-0.07,0-0.11-0.01  c-0.41-0.061-0.69-0.44-0.63-0.851c0.06-0.41,0.439-0.689,0.85-0.63c0.41,0.05,0.69,0.44,0.63,0.84  C153.06,228.189,152.74,228.46,152.37,228.46z M152.93,224.51c-0.03,0-0.07,0-0.11-0.01c-0.399-0.061-0.689-0.431-0.63-0.851  c0.061-0.409,0.44-0.689,0.851-0.63c0.41,0.061,0.689,0.44,0.63,0.851C153.62,224.24,153.3,224.51,152.93,224.51z M153.49,220.56  c-0.03,0-0.07,0-0.101,0c-0.41-0.06-0.7-0.439-0.64-0.85c0.06-0.41,0.439-0.7,0.85-0.641c0.41,0.061,0.7,0.44,0.641,0.851  C154.18,220.29,153.859,220.56,153.49,220.56z M154.06,216.62c-0.04,0-0.069-0.011-0.109-0.011c-0.41-0.06-0.69-0.439-0.641-0.85  c0.061-0.41,0.44-0.7,0.851-0.64c0.409,0.06,0.699,0.439,0.64,0.85C154.74,216.35,154.43,216.62,154.06,216.62z M154.62,212.67  c-0.04,0-0.07,0-0.11-0.01c-0.41-0.061-0.69-0.44-0.63-0.851c0.06-0.41,0.43-0.689,0.85-0.64c0.41,0.06,0.69,0.439,0.63,0.85  C155.31,212.399,154.99,212.67,154.62,212.67z M155.18,208.72c-0.03,0-0.07,0-0.11-0.01c-0.409-0.061-0.689-0.44-0.63-0.851  c0.061-0.409,0.44-0.689,0.851-0.63c0.41,0.051,0.689,0.44,0.63,0.851C155.87,208.45,155.55,208.72,155.18,208.72z M155.74,204.77  c-0.03,0-0.07,0-0.101,0c-0.41-0.06-0.7-0.439-0.64-0.85c0.06-0.41,0.439-0.7,0.85-0.64c0.41,0.06,0.69,0.439,0.641,0.85  C156.43,204.5,156.109,204.77,155.74,204.77z M156.31,200.819c-0.04,0-0.069,0-0.109,0c-0.41-0.06-0.7-0.439-0.641-0.85  c0.061-0.41,0.44-0.7,0.851-0.64c0.409,0.06,0.699,0.439,0.64,0.85C156.99,200.56,156.67,200.819,156.31,200.819z M156.87,196.88  c-0.04,0-0.07-0.01-0.11-0.01c-0.41-0.061-0.69-0.44-0.63-0.851c0.05-0.41,0.43-0.7,0.84-0.64c0.41,0.06,0.7,0.439,0.64,0.85  C157.56,196.609,157.24,196.88,156.87,196.88z M157.43,192.93c-0.03,0-0.07,0-0.11-0.01c-0.409-0.061-0.689-0.44-0.63-0.851  c0.051-0.409,0.44-0.689,0.851-0.63c0.399,0.051,0.689,0.431,0.63,0.841C158.12,192.66,157.8,192.93,157.43,192.93z M157.99,188.979  c-0.03,0-0.07,0-0.101-0.01c-0.41-0.06-0.7-0.439-0.64-0.84c0.06-0.42,0.439-0.7,0.85-0.64c0.41,0.06,0.69,0.439,0.63,0.85  C158.68,188.71,158.359,188.979,157.99,188.979z M158.56,185.03c-0.04,0-0.08,0-0.109-0.011c-0.41-0.05-0.7-0.43-0.641-0.84  c0.061-0.41,0.44-0.7,0.851-0.64c0.409,0.06,0.689,0.439,0.64,0.85C159.24,184.76,158.92,185.03,158.56,185.03z M159.12,181.09  c-0.04,0-0.07-0.01-0.11-0.01c-0.41-0.061-0.7-0.44-0.64-0.851c0.06-0.41,0.439-0.699,0.85-0.64s0.7,0.44,0.64,0.85  C159.81,180.81,159.49,181.09,159.12,181.09z M159.68,177.14c-0.04,0-0.07-0.01-0.11-0.01c-0.409-0.061-0.689-0.44-0.63-0.85  c0.051-0.41,0.431-0.7,0.841-0.641c0.409,0.061,0.699,0.44,0.64,0.851C160.37,176.87,160.05,177.14,159.68,177.14z M160.24,173.189  c-0.03,0-0.07,0-0.11-0.01c-0.41-0.06-0.69-0.439-0.63-0.85c0.06-0.41,0.439-0.69,0.85-0.63c0.41,0.05,0.69,0.43,0.63,0.84  C160.93,172.92,160.609,173.189,160.24,173.189z M160.8,169.24c-0.03,0-0.07,0-0.1-0.011c-0.41-0.06-0.7-0.43-0.641-0.85  c0.061-0.41,0.44-0.69,0.851-0.63c0.409,0.06,0.689,0.439,0.64,0.85C161.49,168.97,161.17,169.24,160.8,169.24z M161.37,165.29  c-0.04,0-0.07,0-0.11,0c-0.41-0.061-0.7-0.44-0.64-0.851c0.06-0.409,0.439-0.699,0.85-0.64s0.7,0.44,0.64,0.85  C162.06,165.02,161.729,165.29,161.37,165.29z M161.93,161.34c-0.04,0-0.07,0-0.11,0c-0.409-0.06-0.689-0.44-0.63-0.85  c0.051-0.41,0.431-0.7,0.841-0.641c0.409,0.061,0.699,0.44,0.64,0.851C162.62,161.069,162.3,161.34,161.93,161.34z M162.49,157.399  c-0.04,0-0.07,0-0.11-0.01c-0.41-0.06-0.69-0.439-0.63-0.85c0.06-0.41,0.439-0.69,0.85-0.641c0.41,0.061,0.69,0.44,0.63,0.851  C163.18,157.13,162.859,157.399,162.49,157.399z M163.05,153.45c-0.03,0-0.07,0-0.1-0.011c-0.41-0.06-0.7-0.439-0.641-0.85  c0.061-0.41,0.44-0.69,0.851-0.63c0.409,0.05,0.689,0.439,0.64,0.85C163.74,153.18,163.42,153.45,163.05,153.45z M163.62,149.5  c-0.04,0-0.07,0-0.11-0.01c-0.41-0.061-0.7-0.44-0.64-0.851c0.06-0.41,0.439-0.689,0.85-0.63s0.7,0.44,0.64,0.85  C164.3,149.229,163.979,149.5,163.62,149.5z M164.18,145.55c-0.04,0-0.07,0-0.11,0c-0.409-0.06-0.699-0.44-0.64-0.85  c0.061-0.41,0.44-0.7,0.851-0.641c0.409,0.061,0.699,0.44,0.64,0.851C164.87,145.28,164.55,145.55,164.18,145.55z M164.74,141.609  c-0.04,0-0.07-0.01-0.11-0.01c-0.41-0.06-0.69-0.439-0.63-0.85c0.05-0.41,0.43-0.7,0.84-0.641c0.41,0.061,0.7,0.44,0.64,0.851  C165.43,141.34,165.109,141.609,164.74,141.609z M165.3,137.66c-0.03,0-0.07-0.011-0.1-0.011c-0.41-0.06-0.7-0.439-0.641-0.85  c0.061-0.41,0.44-0.7,0.851-0.64c0.409,0.06,0.689,0.439,0.63,0.85C165.99,137.39,165.67,137.66,165.3,137.66z M165.859,133.71  c-0.029,0-0.069,0-0.1-0.01c-0.41-0.061-0.7-0.44-0.64-0.851c0.06-0.41,0.439-0.689,0.85-0.63c0.41,0.05,0.7,0.43,0.64,0.84  C166.55,133.439,166.229,133.71,165.859,133.71z M166.43,129.76c-0.04,0-0.08,0-0.11-0.01c-0.409-0.05-0.699-0.431-0.64-0.84  c0.061-0.41,0.44-0.7,0.851-0.64c0.409,0.06,0.699,0.44,0.64,0.85C167.109,129.49,166.79,129.76,166.43,129.76z M166.99,125.81  c-0.04,0-0.07,0-0.11,0c-0.41-0.06-0.69-0.44-0.64-0.85c0.06-0.41,0.439-0.7,0.85-0.64s0.7,0.44,0.64,0.85  C167.68,125.54,167.359,125.81,166.99,125.81z M167.55,121.87c-0.03,0-0.07-0.01-0.11-0.01c-0.409-0.06-0.689-0.44-0.63-0.85  c0.061-0.41,0.44-0.7,0.84-0.64c0.42,0.06,0.7,0.44,0.641,0.85C168.24,121.6,167.92,121.87,167.55,121.87z M168.109,117.92  c-0.029,0-0.069,0-0.1-0.01c-0.41-0.06-0.7-0.44-0.64-0.85c0.06-0.41,0.439-0.69,0.85-0.63c0.41,0.05,0.69,0.43,0.64,0.84  C168.8,117.65,168.479,117.92,168.109,117.92z M168.67,113.97c-0.03,0-0.07,0-0.101-0.01c-0.409-0.06-0.699-0.44-0.64-0.85  c0.061-0.41,0.44-0.69,0.851-0.63c0.409,0.06,0.699,0.44,0.64,0.85C169.359,113.7,169.04,113.97,168.67,113.97z M169.24,110.02  c-0.04,0-0.07,0-0.11,0c-0.41-0.06-0.69-0.44-0.64-0.85c0.06-0.41,0.439-0.7,0.85-0.64s0.7,0.44,0.64,0.85  C169.93,109.75,169.6,110.02,169.24,110.02z M169.8,106.07c-0.03,0-0.07,0-0.11,0c-0.409-0.06-0.689-0.44-0.63-0.85  c0.061-0.41,0.44-0.7,0.851-0.64c0.409,0.06,0.689,0.44,0.63,0.85C170.49,105.8,170.17,106.07,169.8,106.07z M170.359,102.13  c-0.029,0-0.069,0-0.1-0.01c-0.41-0.06-0.7-0.44-0.64-0.85c0.06-0.41,0.439-0.69,0.85-0.64c0.41,0.06,0.69,0.44,0.63,0.85  C171.05,101.86,170.729,102.13,170.359,102.13z M170.92,98.18c-0.03,0-0.07,0-0.101-0.01c-0.409-0.06-0.699-0.44-0.64-0.85  c0.061-0.41,0.44-0.69,0.851-0.63c0.409,0.05,0.699,0.44,0.64,0.85C171.609,97.91,171.29,98.18,170.92,98.18z M171.49,94.23  c-0.04,0-0.08,0-0.11-0.01c-0.41-0.05-0.69-0.44-0.64-0.84c0.06-0.41,0.439-0.7,0.85-0.64s0.7,0.44,0.64,0.85  C172.17,93.96,171.85,94.23,171.49,94.23z M172.05,90.28c-0.04,0-0.07,0-0.11,0c-0.409-0.06-0.689-0.44-0.63-0.85  c0.05-0.41,0.431-0.7,0.84-0.64c0.41,0.06,0.7,0.44,0.641,0.85C172.74,90.01,172.42,90.28,172.05,90.28z M172.71,86.32  c-0.061,0.01-0.12,0.02-0.17,0.02c-0.34,0-0.65-0.23-0.73-0.58c-0.1-0.4,0.15-0.8,0.55-0.9c0.4-0.1,0.811,0.15,0.9,0.55  C173.359,85.82,173.109,86.22,172.71,86.32z"/>
</svg>