<svg xmlns="http://www.w3.org/2000/svg" xmlns:xlink="http://www.w3.org/1999/xlink" version="1.1" id="Ebene_1" x="0px" y="0px" width="100.0px" height="100px" viewBox="0 0 255.12 255.12" enable-background="new 0 0 255.12 255.12" xml:space="preserve">
<path d="M21.369,139.402l10.834,81.601c0,0,2.545,18.325,22.397,18.325s72.96,0,72.96,0s53.108,0,72.961,0  c19.852,0,22.396-18.325,22.396-18.325l10.834-81.601H21.369z M59.739,217.075c-4.53,0.557-8.653-2.665-9.208-7.195l-5.902-48.063  c-0.556-4.53,2.666-8.653,7.195-9.209c4.53-0.556,8.653,2.666,9.209,7.195l5.901,48.063  C67.49,212.396,64.269,216.519,59.739,217.075z M93.371,217.272c-4.558,0.239-8.446-3.263-8.685-7.819l-2.534-48.358  c-0.239-4.558,3.262-8.446,7.819-8.685c4.558-0.238,8.446,3.263,8.685,7.819l2.534,48.358  C101.429,213.146,97.928,217.034,93.371,217.272z M135.824,209.054c0,4.563-3.7,8.264-8.264,8.264s-8.264-3.7-8.264-8.264v-48.425  c0-4.563,3.7-8.263,8.264-8.263s8.264,3.699,8.264,8.263V209.054z M172.97,161.095l-2.534,48.358  c-0.239,4.557-4.127,8.059-8.685,7.819c-4.558-0.238-8.06-4.127-7.82-8.685l2.534-48.358c0.239-4.557,4.128-8.058,8.686-7.819  C169.707,152.648,173.208,156.537,172.97,161.095z M210.492,161.816l-5.901,48.063c-0.556,4.53-4.679,7.752-9.209,7.195  c-4.529-0.557-7.751-4.68-7.194-9.209l5.9-48.063c0.557-4.529,4.68-7.751,9.209-7.195S211.048,157.286,210.492,161.816z"/>
<path d="M59.007,126.883c-0.816,0.884-1.975,1.392-3.18,1.392c-1.09,0-2.131-0.407-2.933-1.146c-0.85-0.784-1.343-1.851-1.39-3.006  c-0.047-1.155,0.359-2.259,1.143-3.108l3.571-3.836c-0.062-0.002-0.122-0.009-0.185-0.009c-3.557,0-6.439,2.883-6.439,6.439  s2.882,6.439,6.439,6.439c3.556,0,6.439-2.883,6.439-6.439c0-0.144-0.012-0.284-0.021-0.425L59.007,126.883z"/>
<path d="M233.066,112.566h-39.145l1.863,2.001c0.831-0.24,1.706-0.376,2.614-0.376c5.202,0,9.418,4.216,9.418,9.417  c0,5.201-4.216,9.417-9.418,9.417c-5.2,0-9.417-4.217-9.417-9.417c0-1.081,0.191-2.115,0.526-3.083l-7.409-7.96H72.333l-7.41,7.96  c0.335,0.967,0.526,2.001,0.526,3.082c0,5.201-4.216,9.417-9.417,9.417c-5.201,0-9.417-4.217-9.417-9.417  c0-5.201,4.216-9.417,9.417-9.417c0.908,0,1.784,0.136,2.615,0.376l1.863-2.001H22.055c-6.099,0-11.042,4.944-11.042,11.042  c0,6.098,4.944,11.042,11.042,11.042h211.012c6.099,0,11.042-4.944,11.042-11.042C244.108,117.51,239.165,112.566,233.066,112.566z"/>
<path d="M136.756,47.17c-4.576,0-8.414,3.113-9.54,7.334c-1.126-4.221-4.964-7.334-9.54-7.334c-5.458,0-9.884,4.425-9.884,9.884  c0,1.373,0.281,2.681,0.788,3.869l2.891-3.105c-0.031-0.251-0.051-0.505-0.051-0.764c0-3.456,2.801-6.257,6.257-6.257  s6.257,2.801,6.257,6.257c0,3.277-2.521,5.961-5.729,6.23l-3.08,3.309c0.815,0.218,1.668,0.345,2.552,0.345  c4.575,0,8.414-3.113,9.54-7.334c1.126,4.221,4.963,7.334,9.54,7.334c0.884,0,1.735-0.127,2.551-0.345l-3.079-3.309  c-3.208-0.269-5.729-2.954-5.729-6.23c0-3.456,2.801-6.257,6.257-6.257s6.257,2.801,6.257,6.257c0,0.259-0.021,0.513-0.051,0.764  l2.891,3.105c0.506-1.188,0.787-2.496,0.787-3.869C146.64,51.595,142.215,47.17,136.756,47.17z"/>
<path d="M198.399,117.169c-0.062,0-0.122,0.007-0.184,0.009l3.569,3.835c0.784,0.851,1.19,1.954,1.144,3.109  c-0.047,1.155-0.54,2.222-1.391,3.006c-0.801,0.739-1.843,1.146-2.932,1.146l0,0c-1.205,0-2.365-0.508-3.182-1.393l-3.442-3.698  c-0.009,0.141-0.021,0.282-0.021,0.425c0,3.556,2.883,6.439,6.438,6.439c3.557,0,6.439-2.883,6.439-6.439  S201.956,117.169,198.399,117.169z"/>
<g>
	<path d="M117.781,53.572c-1.063,0-2.086,0.448-2.807,1.229l-61.953,66.56c-0.691,0.749-1.049,1.723-1.008,2.742   c0.042,1.019,0.477,1.96,1.227,2.652c0.708,0.652,1.626,1.012,2.588,1.012c1.063,0,2.086-0.448,2.807-1.229l61.954-66.56   c0.691-0.749,1.049-1.723,1.008-2.742s-0.477-1.961-1.226-2.652C119.661,53.931,118.742,53.572,117.781,53.572z"/>
</g>
<g>
	<path d="M136.651,53.572c-0.961,0-1.88,0.359-2.587,1.011c-0.75,0.691-1.186,1.633-1.227,2.652s0.317,1.993,1.009,2.743   l61.952,66.558c0.721,0.782,1.744,1.23,2.808,1.23l0,0c0.961,0,1.88-0.359,2.587-1.012c0.75-0.691,1.186-1.633,1.227-2.652   c0.041-1.019-0.316-1.993-1.009-2.743L139.46,54.802C138.738,54.02,137.715,53.572,136.651,53.572z"/>
</g>
</svg>