<svg xmlns="http://www.w3.org/2000/svg" xmlns:xlink="http://www.w3.org/1999/xlink" version="1.1" id="Layer_1" x="0px" y="0px" width="100px" height="100px" viewBox="0 0 100 100" enable-background="new 0 0 100 100" xml:space="preserve">
<path fill-rule="evenodd" clip-rule="evenodd" d="M50.003,0.283c27.462,0,49.714,22.26,49.714,49.716  c0,27.458-22.252,49.718-49.714,49.718c-27.46,0-49.72-22.261-49.72-49.718C0.283,22.543,22.543,0.283,50.003,0.283L50.003,0.283z   M50.003,7.037c-7.999,0-14.484,6.486-14.484,14.484c0,1.635,0.273,3.208,0.773,4.67c-2.657-3.001-6.536-4.893-10.857-4.893  c-7.999,0-14.484,6.481-14.484,14.484c0,7.053,5.048,12.929,11.723,14.215c-6.675,1.291-11.723,7.173-11.723,14.226  c0,7.994,6.485,14.484,14.484,14.484c4.321,0,8.2-1.892,10.857-4.901c-0.5,1.463-0.773,3.035-0.773,4.675  c0,7.994,6.485,14.484,14.484,14.484c8.001,0,14.482-6.49,14.482-14.484c0-1.631-0.27-3.203-0.773-4.675  c2.656,3.01,6.54,4.901,10.861,4.901c7.994,0,14.476-6.49,14.476-14.484c0-7.053-5.044-12.936-11.719-14.222  c6.675-1.291,11.719-7.167,11.719-14.22c0-8.003-6.481-14.484-14.476-14.484c-4.321,0-8.205,1.892-10.861,4.893  c0.504-1.462,0.773-3.035,0.773-4.67C64.485,13.523,58.004,7.037,50.003,7.037z"/>
<path fill-rule="evenodd" clip-rule="evenodd" d="M50.003,56.424c3.535,0,6.421-2.886,6.421-6.425c0-3.535-2.886-6.418-6.421-6.418  s-6.422,2.883-6.422,6.418C43.581,53.538,46.468,56.424,50.003,56.424z"/>
<g>
	<path fill-rule="evenodd" clip-rule="evenodd" d="M50.003,15.889c0.614,0,1.156,6.07,1.471,15.279   c-0.487-0.038-0.979-0.059-1.471-0.059c-0.496,0-0.983,0.021-1.471,0.059C48.847,21.959,49.389,15.889,50.003,15.889L50.003,15.889   z M51.474,68.84c-0.314,9.205-0.857,15.274-1.471,15.274s-1.156-6.069-1.471-15.274c0.488,0.033,0.975,0.051,1.471,0.051   C50.495,68.891,50.986,68.873,51.474,68.84z"/>
	<path fill-rule="evenodd" clip-rule="evenodd" d="M44.081,16.406c0.605-0.105,2.19,5.78,4.103,14.792   c-0.992,0.097-1.959,0.265-2.9,0.508C43.997,22.585,43.475,16.516,44.081,16.406L44.081,16.406z M54.726,68.293   c1.277,9.121,1.807,15.19,1.202,15.3c-0.605,0.109-2.192-5.774-4.104-14.787C52.814,68.705,53.781,68.537,54.726,68.293z"/>
	<path fill-rule="evenodd" clip-rule="evenodd" d="M23.871,28.075c0.399-0.471,5.397,3.018,12.652,8.692   c-0.685,0.702-1.32,1.454-1.896,2.253C27.78,32.862,23.476,28.545,23.871,28.075L23.871,28.075z M65.376,60.979   c6.852,6.162,11.147,10.475,10.752,10.945c-0.395,0.471-5.389-3.018-12.651-8.692C64.166,62.535,64.805,61.778,65.376,60.979z"/>
	<path fill-rule="evenodd" clip-rule="evenodd" d="M20.462,32.942c0.307-0.53,5.834,2.039,13.967,6.368   c-0.559,0.803-1.051,1.656-1.475,2.547C25.141,36.981,20.156,33.48,20.462,32.942L20.462,32.942z M67.049,58.146   c7.818,4.876,12.804,8.373,12.492,8.911c-0.303,0.529-5.834-2.034-13.963-6.363C66.133,59.887,66.629,59.038,67.049,58.146z"/>
	<path fill-rule="evenodd" clip-rule="evenodd" d="M17.949,38.334c0.21-0.576,6.099,0.988,14.859,3.838   c-0.408,0.891-0.744,1.816-1.009,2.77C23.258,41.5,17.739,38.911,17.949,38.334L17.949,38.334z M68.209,55.062   c8.541,3.446,14.056,6.027,13.846,6.607S75.96,60.677,67.2,57.827C67.604,56.937,67.94,56.012,68.209,55.062z"/>
	<path fill-rule="evenodd" clip-rule="evenodd" d="M17.949,61.669c-0.21-0.58,5.309-3.161,13.85-6.607   c0.265,0.95,0.601,1.875,1.009,2.766C24.048,60.677,18.159,62.249,17.949,61.669L17.949,61.669z M67.2,42.172   c8.76-2.85,14.645-4.414,14.854-3.838c0.21,0.576-5.305,3.165-13.846,6.608C67.94,43.988,67.604,43.063,67.2,42.172z"/>
	<path fill-rule="evenodd" clip-rule="evenodd" d="M20.462,67.058c-0.307-0.538,4.678-4.035,12.492-8.911   c0.424,0.892,0.916,1.74,1.475,2.548C26.296,65.023,20.77,67.587,20.462,67.058L20.462,67.058z M65.578,39.31   c8.129-4.33,13.66-6.898,13.963-6.368c0.312,0.538-4.674,4.04-12.492,8.915C66.629,40.966,66.133,40.113,65.578,39.31z"/>
	<path fill-rule="evenodd" clip-rule="evenodd" d="M23.871,71.925c-0.395-0.471,3.909-4.783,10.756-10.945   c0.576,0.799,1.207,1.556,1.896,2.253C29.268,68.907,24.271,72.396,23.871,71.925L23.871,71.925z M63.484,36.767   c7.255-5.675,12.249-9.163,12.644-8.692c0.396,0.471-3.9,4.788-10.752,10.945C64.805,38.221,64.166,37.469,63.484,36.767z"/>
	<path fill-rule="evenodd" clip-rule="evenodd" d="M44.081,83.593c-0.605-0.109-0.084-6.179,1.202-15.3   c0.941,0.244,1.908,0.412,2.896,0.513C46.271,77.818,44.686,83.702,44.081,83.593L44.081,83.593z M51.823,31.198   c1.912-9.008,3.499-14.896,4.104-14.787c0.604,0.105,0.075,6.174-1.202,15.295C53.781,31.462,52.814,31.294,51.823,31.198z"/>
</g>
<path fill-rule="evenodd" clip-rule="evenodd" d="M68.891,49.999c0,1.757-0.235,3.451-0.682,5.063  c8.541,3.446,14.056,6.027,13.846,6.607S75.96,60.677,67.2,57.827c-0.05,0.109-0.101,0.21-0.151,0.319  c7.818,4.876,12.804,8.373,12.492,8.911c-0.303,0.529-5.834-2.034-13.963-6.363c-0.067,0.092-0.135,0.192-0.202,0.285  c6.852,6.162,11.147,10.475,10.752,10.945c-0.395,0.471-5.389-3.018-12.651-8.692c-2.362,2.413-5.38,4.195-8.751,5.061  c1.277,9.121,1.807,15.19,1.202,15.3c-0.605,0.109-2.192-5.774-4.104-14.787c-0.114,0.009-0.231,0.025-0.35,0.034  c-0.314,9.205-0.857,15.274-1.471,15.274s-1.156-6.069-1.471-15.274c-0.118-0.009-0.235-0.025-0.353-0.034  c-1.908,9.013-3.493,14.896-4.098,14.787s-0.084-6.179,1.202-15.3c-3.379-0.865-6.393-2.647-8.76-5.061  c-7.255,5.675-12.252,9.163-12.652,8.692c-0.395-0.471,3.909-4.783,10.756-10.945c-0.063-0.093-0.134-0.193-0.198-0.285  c-8.133,4.329-13.66,6.893-13.967,6.363c-0.307-0.538,4.678-4.035,12.492-8.911c-0.05-0.109-0.101-0.21-0.147-0.319  c-8.76,2.85-14.648,4.422-14.859,3.842c-0.21-0.58,5.309-3.161,13.85-6.607c-0.446-1.612-0.686-3.306-0.686-5.063  c0-1.749,0.24-3.446,0.686-5.056c-8.541-3.443-14.06-6.032-13.85-6.608c0.21-0.576,6.099,0.988,14.859,3.838  c0.046-0.101,0.097-0.21,0.147-0.315c-7.814-4.875-12.799-8.377-12.492-8.915c0.307-0.53,5.834,2.039,13.967,6.368  c0.063-0.097,0.135-0.193,0.198-0.29c-6.847-6.158-11.151-10.475-10.756-10.945c0.399-0.471,5.397,3.018,12.652,8.692  c2.371-2.413,5.38-4.195,8.76-5.061c-1.286-9.121-1.808-15.19-1.202-15.3c0.605-0.105,2.19,5.78,4.103,14.792  c0.118-0.013,0.231-0.021,0.349-0.03c0.315-9.209,0.857-15.279,1.471-15.279s1.156,6.07,1.471,15.279  c0.118,0.009,0.235,0.017,0.35,0.03c1.912-9.008,3.499-14.896,4.104-14.787c0.604,0.105,0.075,6.174-1.202,15.295  c3.371,0.866,6.389,2.648,8.759,5.061c7.255-5.675,12.249-9.163,12.644-8.692c0.396,0.471-3.9,4.788-10.752,10.945  c0.067,0.097,0.135,0.193,0.202,0.29c8.129-4.33,13.66-6.898,13.963-6.368c0.312,0.538-4.674,4.04-12.492,8.915  c0.051,0.105,0.102,0.214,0.151,0.315c8.76-2.85,14.645-4.414,14.854-3.838c0.21,0.576-5.305,3.165-13.846,6.608  C68.655,46.552,68.891,48.25,68.891,49.999L68.891,49.999z M50.003,63.998c7.731,0,13.995-6.264,13.995-14  c0-7.729-6.264-13.997-13.995-13.997c-7.734,0-13.997,6.267-13.997,13.997C36.006,57.734,42.269,63.998,50.003,63.998z"/>
</svg>