<svg xmlns="http://www.w3.org/2000/svg" xmlns:xlink="http://www.w3.org/1999/xlink" version="1.0" id="Layer_1" x="0px" y="0px" width="100px" height="100px" viewBox="0 0 100 100" enable-background="new 0 0 100 100" xml:space="preserve">
<path fill-rule="evenodd" clip-rule="evenodd" d="M89.191,100.025V77.999c0-9.454-7.661-17.118-17.115-17.118h-44.35  c-9.45,0-17.115,7.665-17.115,17.118v22.027H89.191z"/>
<path fill-rule="evenodd" clip-rule="evenodd" d="M50.886,23.682l-19.829-5.964v9.485h0.583c2.067,2.479,9.811,4.332,19.102,4.332  c9.294,0,17.038-1.853,19.102-4.332h0.75v-9.447L50.886,23.682z"/>
<path fill-rule="evenodd" clip-rule="evenodd" d="M50.886,0.025l34.032,10.229L50.886,20.482L16.854,10.254L50.886,0.025z"/>
<path fill-rule="evenodd" clip-rule="evenodd" d="M50.886,25.78l-16.455-4.947c-3.512,3.885-5.709,8.981-5.709,14.63  c0,12.104,9.808,21.909,21.912,21.909c12.101,0,21.905-9.804,21.905-21.909c0-5.591-2.159-10.64-5.604-14.509L50.886,25.78z"/>
<path fill-rule="evenodd" clip-rule="evenodd" d="M85.597,24.645c0-1.158-1.011-2.105-2.389-2.447v-9.402l-1.892,0.569v8.795  c-1.493,0.287-2.622,1.263-2.622,2.485c0,1.193,1.075,2.149,2.517,2.462l-2.517,4.813l6.902,0.134l-1.945-5.087  C84.793,26.54,85.597,25.675,85.597,24.645z"/>
</svg>