<svg xmlns="http://www.w3.org/2000/svg" xmlns:xlink="http://www.w3.org/1999/xlink" version="1.1" id="Capa_1" x="0px" y="0px" width="99.21px" height="85.04px" viewBox="0 0 99.21 85.04" enable-background="new 0 0 99.21 85.04" xml:space="preserve">
<g>
	<g id="LWPOLYLINE">
		<path d="M32.643,84.516H65.24v-6.521H42.422c-4.321,0-7.824-3.503-7.824-7.823v-36.51c0-4.321,3.503-7.824,7.824-7.824H65.24    v-6.52H0.044v6.52h22.819c4.32,0,7.823,3.503,7.823,7.824v36.51c0,4.32-3.503,7.823-7.823,7.823H0.044v6.521H32.643z"/>
	</g>
	<g>
		<polygon points="66.305,19.958 98.102,3.102 98.102,7.198 66.305,24.054   "/>
		<path d="M97.039,4.869v1.69L67.367,22.287v-1.689L97.039,4.869 M99.166,1.335L65.24,19.318v6.502L99.166,7.838V1.335L99.166,1.335    z"/>
	</g>
	<g>
		<polygon points="66.305,78.653 98.102,61.797 98.102,65.894 66.305,82.749   "/>
		<path d="M97.039,63.563v1.69L67.367,80.982v-1.689L97.039,63.563 M99.166,60.03L65.24,78.014v6.502l33.926-17.982V60.03    L99.166,60.03z"/>
	</g>
	<line fill="none" stroke="#000000" stroke-width="2.126" stroke-linejoin="bevel" x1="0.533" y1="20.204" x2="36.127" y2="1.335"/>
	
		<line fill="none" stroke="#000000" stroke-width="2.126" stroke-linejoin="bevel" x1="0.544" y1="78.899" x2="32.643" y2="61.885"/>
</g>
</svg>