<svg xmlns="http://www.w3.org/2000/svg" xmlns:xlink="http://www.w3.org/1999/xlink" version="1.1" id="Layer_1" x="0px" y="0px" width="100px" height="100px" viewBox="0 0 100 100" enable-background="new 0 0 100 100" xml:space="preserve">
<path fill-rule="evenodd" clip-rule="evenodd" d="M67.679,33.307H84.27l3.32,4.163l5.246,0.507c0.864,0.083,1.431,0.725,1.574,1.578  l0.634,3.631c0.15,0.856-0.71,1.579-1.578,1.579h-3.454c0.032,0.187,0.048,0.377,0.048,0.573c0,1.314-0.768,2.446-1.882,2.975  h11.425v4.333H89.41c1.392,0.599,2.374,1.983,2.374,3.598c0,1.48-0.82,2.766-2.032,3.435h9.851v7.013H0.398V59.68h9.85  c-1.209-0.669-2.029-1.954-2.029-3.435c0-1.614,0.977-2.999,2.374-3.598H0.398v-4.333h11.426c-1.112-0.529-1.881-1.661-1.881-2.975  c0-0.196,0.016-0.386,0.051-0.573h-3.46c-0.865,0-1.726-0.723-1.578-1.579l0.632-3.631c0.149-0.853,0.714-1.495,1.579-1.578  l5.246-0.507l3.316-4.163h16.594l4.048,4.163l9.721,0.822c0.866,0.072,1.578,0.399,1.578,1.263v3.631  c0,0.866-0.71,1.579-1.578,1.579h-2.299c0.035,0.187,0.051,0.377,0.051,0.573c0,1.314-0.769,2.446-1.881,2.975H58.04  c-1.113-0.529-1.882-1.661-1.882-2.975c0-0.196,0.016-0.386,0.052-0.573h-2.296c-0.872,0-1.582-0.713-1.582-1.579v-3.631  c0-0.864,0.714-1.191,1.582-1.263l9.721-0.822L67.679,33.307L67.679,33.307z M86.322,52.647H78.81  c1.392,0.599,2.372,1.983,2.372,3.598c0,1.48-0.818,2.766-2.03,3.435h6.826c-1.206-0.669-2.03-1.954-2.03-3.435  C83.947,54.631,84.924,53.246,86.322,52.647L86.322,52.647z M14.024,59.68h6.825c-1.209-0.669-2.029-1.954-2.029-3.435  c0-1.614,0.977-2.999,2.374-3.598h-7.516c1.396,0.599,2.375,1.983,2.375,3.598C16.053,57.726,15.233,59.011,14.024,59.68  L14.024,59.68z M24.623,59.68h50.758c-1.21-0.669-2.033-1.954-2.033-3.435c0-1.614,0.979-2.999,2.374-3.598H24.278  c1.396,0.599,2.375,1.983,2.375,3.598C26.653,57.726,25.832,59.011,24.623,59.68L24.623,59.68z M14.642,48.314h24.502  c-1.113-0.529-1.882-1.661-1.882-2.975c0-0.196,0.019-0.386,0.051-0.573h-20.84c0.033,0.187,0.051,0.377,0.051,0.573  C16.523,46.653,15.754,47.785,14.642,48.314L14.642,48.314z M60.856,48.314h24.503c-1.113-0.529-1.88-1.661-1.88-2.975  c0-0.196,0.017-0.386,0.048-0.573H62.69c0.032,0.187,0.048,0.377,0.048,0.573C62.738,46.653,61.971,47.785,60.856,48.314  L60.856,48.314z M8.605,57.941c-0.026-0.053-0.051-0.109-0.075-0.164C8.554,57.832,8.579,57.889,8.605,57.941L8.605,57.941z   M8.264,56.835c-0.008-0.059-0.016-0.116-0.022-0.178C8.248,56.719,8.255,56.776,8.264,56.835L8.264,56.835z M8.395,55.083  c0.02-0.063,0.041-0.123,0.063-0.184C8.436,54.96,8.415,55.021,8.395,55.083L8.395,55.083z M9.301,53.545  c0.041-0.042,0.081-0.083,0.124-0.123C9.382,53.462,9.341,53.503,9.301,53.545L9.301,53.545z M10.274,52.8  c0.048-0.025,0.101-0.052,0.151-0.077C10.375,52.748,10.322,52.774,10.274,52.8L10.274,52.8z M89.576,52.723  c0.052,0.025,0.104,0.052,0.152,0.077C89.68,52.774,89.628,52.748,89.576,52.723L89.576,52.723z M90.576,53.422  c0.044,0.04,0.084,0.081,0.126,0.123C90.66,53.503,90.62,53.462,90.576,53.422L90.576,53.422z M91.174,54.148  c0.028,0.045,0.057,0.089,0.08,0.136C91.23,54.237,91.202,54.193,91.174,54.148L91.174,54.148z M91.544,54.899  c0.026,0.063,0.042,0.121,0.063,0.184C91.586,55.021,91.57,54.96,91.544,54.899L91.544,54.899z M91.762,56.657  c-0.008,0.062-0.016,0.119-0.023,0.178C91.746,56.776,91.754,56.719,91.762,56.657L91.762,56.657z M91.472,57.777  c-0.023,0.055-0.048,0.111-0.071,0.164C91.424,57.889,91.448,57.832,91.472,57.777z"/>
</svg>