<svg xmlns="http://www.w3.org/2000/svg" xmlns:xlink="http://www.w3.org/1999/xlink" version="1.1" id="Layer_1" x="0px" y="0px" width="100px" height="100px" viewBox="0 0 100 100" enable-background="new 0 0 100 100" xml:space="preserve">
<path fill="#000000" d="M0,44.722c0-0.307,0.451-0.557,1.001-0.557h25.27c0.551,0,1.001-0.451,1.001-1.001V3.541  c0-0.551,0.451-1.001,1.001-1.001h21.414c0.551,0,1.001,0.451,1.001,1.001v16.169c0,0.551,0.402,1.206,0.893,1.457l1.355,0.69  c0.491,0.249,1.341,0.505,1.888,0.568l0.706,0.083c0.547,0.062,1.386,0.338,1.864,0.612l1.772,1.016  c0.478,0.273,1.32,0.502,1.871,0.509l3.257,0.039c0.551,0.007,1.176,0.427,1.388,0.936l0.151,0.363  c0.212,0.509,0.817,0.794,1.346,0.637l0.73-0.22c0.528-0.158,1.409-0.257,1.959-0.221l3.501,0.233  c0.55,0.036,1.396,0.281,1.881,0.543l2.432,1.312c0.485,0.262,1.314,0.351,1.844,0.2l6.672-1.923  c0.529-0.152,1.381-0.111,1.894,0.092l7.203,2.854c0.513,0.202,0.931,0.819,0.931,1.37v12.149c0,0.551,0.191,1.41,0.424,1.909  l3.072,6.581c0.233,0.5,0.341,1.351,0.239,1.893l-1.916,10.233c-0.102,0.541-0.572,1.214-1.047,1.496L78.823,75.91  c-0.475,0.281-1.139,0.867-1.477,1.302l-5.755,7.391c-0.338,0.434-0.561,1.237-0.492,1.783l1.148,9.367  c0.067,0.546-0.276,1.203-0.764,1.46l-0.051,0.026c-0.487,0.256-1.304,0.296-1.814,0.089l-11.163-4.536  c-0.511-0.207-1.075-0.803-1.255-1.323l-2.526-7.316c-0.18-0.521-0.626-1.283-0.991-1.694l-4.589-5.164  c-0.366-0.412-0.857-1.156-1.093-1.654l-2.844-6.015c-0.235-0.497-0.77-1.198-1.187-1.559l-4.362-3.751  c-0.417-0.358-1.21-0.641-1.76-0.624l-4.431,0.125c-0.55,0.016-1.446,0.101-1.99,0.189l-0.159,0.026  c-0.544,0.089-1.147,0.584-1.34,1.1l-0.96,2.563c-0.193,0.515-0.677,1.249-1.074,1.631l-0.767,0.733  c-0.397,0.382-1.131,0.503-1.63,0.27l-5.75-2.681c-0.499-0.232-1.207-0.76-1.573-1.171l-1.938-2.181  c-0.366-0.411-0.796-1.179-0.957-1.706l-0.734-2.411c-0.161-0.527-0.567-1.314-0.905-1.749l-2.245-2.895  c-0.337-0.435-0.963-1.075-1.391-1.423l-2.155-1.752c-0.428-0.348-1.095-0.952-1.482-1.344l-3.708-3.747  c-0.387-0.391-1.082-0.958-1.542-1.261l-0.279-0.182C0.377,45.526,0,45.029,0,44.722z"/>
</svg>