<svg xmlns="http://www.w3.org/2000/svg" xmlns:xlink="http://www.w3.org/1999/xlink" version="1.1" id="Layer_1" x="0px" y="0px" width="100px" height="100px" viewBox="0 0 100 100" enable-background="new 0 0 100 100" xml:space="preserve">
<g>
	<path fill="none" d="M44.093,19.555c0.091,0.781,0.151,1.572,0.151,2.377c0,1.302-0.14,2.569-0.379,3.799   c-0.342,0.674-0.929,1.266-1.951,1.069c-1.131-0.218-1.556-0.924-1.697-1.64c0.218-1.048,0.358-2.118,0.358-3.228   c0-0.897-0.091-1.771-0.228-2.63c-0.989,0.251-1.929,0.738-2.704,1.509c-2.315,2.309-2.291,6.086,0.106,8.479   c2.387,2.407,6.204,2.475,8.522,0.161c2.322-2.325,2.257-6.128-0.14-8.531C45.525,20.312,44.831,19.859,44.093,19.555z"/>
	<path d="M65.016,38.35c2.979-6.876,1.516-14.655-4.268-20.447c-5.125-5.133-12.332-6.847-18.699-5.122   C38.69,6.135,31.813,1.557,23.87,1.557c-11.235,0-20.374,9.139-20.374,20.374c0,8.718,5.574,16.015,13.29,18.906   c-0.081-0.634-0.165-1.262-0.223-1.92c-0.062-0.738-0.054-1.443-0.052-2.149c-5.504-2.724-9.346-8.292-9.346-14.836   c0-9.211,7.494-16.705,16.705-16.705c6.379,0,11.93,3.597,14.743,8.868c-1.669,0.842-3.231,1.951-4.619,3.336   c-7.296,7.281-7.083,19.227,0.426,26.747c5.786,5.797,14.198,7.24,21.08,4.343l1.617,1.095l3.041-0.42l-2.824,3.726l3.477,3.482   l6.437-0.438l-1.235,4.891l2.989,3.098l5.282-0.232l-0.977,4.082l3.79,3.801l4.119-1.756l2.211,1.771l-1.079,2.443l0.26,0.188   L95.52,75.02l0.984-4.672L65.016,38.35z M46.271,29.451c-2.318,2.314-6.135,2.246-8.522-0.161c-2.397-2.393-2.421-6.17-0.106-8.479   c0.775-0.771,1.714-1.258,2.704-1.509c0.137,0.859,0.228,1.733,0.228,2.63c0,1.11-0.14,2.18-0.358,3.228   c0.141,0.716,0.566,1.422,1.697,1.64c1.022,0.197,1.609-0.395,1.951-1.069c0.239-1.23,0.379-2.497,0.379-3.799   c0-0.805-0.06-1.596-0.151-2.377c0.737,0.304,1.432,0.757,2.038,1.365C48.528,23.323,48.593,27.126,46.271,29.451z"/>
	<path d="M48.258,54.619c-6.438,0-12.523-2.543-17.128-7.156c-4.492-4.494-7.021-10.416-7.123-16.669   c-0.034-1.987,0.265-3.912,0.708-5.786c-3.955,4.806-5.491,11.5-3.404,18.033c2.479,7.801,9.304,12.938,16.746,13.518l0.928,1.709   l2.896,1.021l-4.209,2.023l1.489,4.682l5.921,2.561l-3.336,3.785l1.24,4.117l4.8,2.215l-2.745,3.182l1.634,5.115l4.474,0.328   l1.151,2.59l-2.081,1.67l0.14,0.281l11.124,6.605l3.021-3.693L51.936,54.316C50.729,54.51,49.504,54.619,48.258,54.619z"/>
</g>
</svg>