<svg xmlns="http://www.w3.org/2000/svg" xmlns:xlink="http://www.w3.org/1999/xlink" version="1.1" id="Layer_1" x="0px" y="0px" width="100px" height="100px" viewBox="0 0 100 100" enable-background="new 0 0 100 100" xml:space="preserve">
<path d="M58.536,31.58c-2.694,2.694-5.209,5.276-7.552,7.733c-3.858,0.803-8.51,1.906-12.738,3.276  c-4.613,1.494-8.778,3.234-11.85,4.629c2.866-3.972,3.837-6.542,3.833-6.536c0.008-0.008-5.891,2.153-13.835,10.098  C8.473,58.701,4.885,64.4,4.885,64.4l0.813,0.814l0.813,0.812c0,0,0.689-0.437,1.898-1.317l-0.003,0.003  c0,0,6.585-3.43,12.801-2.289c3.315,0.607,5.892,1.599,7.583,2.394c-0.989,1.286-1.482,1.97-1.482,1.97l1.123,1.122  c-6.169,6.545-9.003,11.036-9.003,11.036l0.814,0.812l0.814,0.814c0,0,4.492-2.833,11.035-9.003l1.122,1.122  c0,0,0.683-0.492,1.969-1.481c0.795,1.691,1.786,4.268,2.394,7.583c1.141,6.215-2.289,12.801-2.289,12.801l0.002-0.002  c-0.88,1.208-1.317,1.896-1.317,1.896l0.813,0.814l0.813,0.812c0,0,5.699-3.588,13.62-11.508  c7.943-7.943,10.105-13.844,10.097-13.836c0.006-0.005-2.563,0.968-6.536,3.835c1.396-3.072,3.135-7.237,4.63-11.851  c1.37-4.229,2.474-8.882,3.276-12.741c2.458-2.343,5.039-4.857,7.733-7.552C89.423,20.459,95.138,4.862,95.115,4.884  C95.138,4.862,79.318,10.798,58.536,31.58z M80.501,22.835l-3.336-3.337c-0.358-0.358-0.358-0.938,0-1.297  c0.357-0.358,0.938-0.358,1.297,0l3.337,3.336c0.358,0.358,0.357,0.939-0.001,1.297C81.44,23.193,80.859,23.194,80.501,22.835z"/>
</svg>