<svg xmlns="http://www.w3.org/2000/svg" xmlns:xlink="http://www.w3.org/1999/xlink" version="1.1" id="Layer_1" x="0px" y="0px" width="100px" height="100px" viewBox="0 0 100 100" enable-background="new 0 0 100 100" xml:space="preserve">
<path d="M32.647,78.946c-0.092-0.254-0.02-0.021,0.184-0.196L50.72,64H33.388C33.388,64,18,84.443,18,84.47c0,0.004,0,0.004,0,0.008  l11.303-0.188c0.237-0.007,0.268,0.122,0.383,0.324c0.111,0.206,0.013,0.453-0.112,0.651l-9.468,14.541l30.8-20.713l-17.645,0.26  C32.993,79.357,32.742,79.192,32.647,78.946z"/>
<path d="M67.14,73.879c-0.04-0.109-0.01-0.222,0.079-0.301L74.938,67h-7.481c0,0-6.457,9.185-6.457,9.199c0,0,0,0.032,0,0.036  l4.789-0.069c0.101-0.004,0.07,0.063,0.117,0.15c0.049,0.089-0.016,0.196-0.068,0.282l-4.098,6.277l13.284-8.935l-7.615,0.11  C67.291,74.056,67.182,73.982,67.14,73.879z"/>
<path d="M85.409,38.975c-3.458-0.827-6.506-0.6-6.506-0.6s1.523-2.022,2.163-4.77c1.721-7.308-1.507-14.125-9.257-15.724  c-5.865-1.205-11.012,1.881-11.012,1.881l-0.676-3.883c-0.299-1.825-3.254-16.666-18.895-16.055  C38.962-0.08,36.602,0.5,34.384,1.538c-4.73,2.2-8.259,6.506-9.667,11.84c-0.755,2.849-0.942,6.359-0.574,10.328L24.507,28h-3.959  c-5.295,0-9.507,1.641-12.188,5.412c-4.014,5.643-4.004,12.813,0.049,18.559C11.278,56.046,15.667,58,22.75,58  c2.809,0,55.242,0,61.333,0c4.077,0,8.154-1.883,9.199-6.452C94.863,44.654,91.909,40.547,85.409,38.975z"/>
</svg>