<svg xmlns="http://www.w3.org/2000/svg" xmlns:xlink="http://www.w3.org/1999/xlink" version="1.1" id="Layer_1" x="0px" y="0px" width="100px" height="100px" viewBox="0 0 100 100" enable-background="new 0 0 100 100" xml:space="preserve">
<path d="M93.701,27.104c-3.646-0.995-7.526,0.853-11.143,3.008c-6.337-6.493-16.516-10.725-28.03-10.725  c-11.772,0-22.17,0.79-28.47,6.939c-1.571-0.93-3.321-1.545-5.179-1.791l-0.716-5.736c0,0-2.336,3.964-3.799,5.896  c-0.614,0.128-1.212,0.3-1.796,0.507l-1.792-4.264c0,0-0.975,3.69-1.652,5.303c-0.119,0.284-0.314,0.707-0.537,1.179  C8.55,29.03,6.916,31.19,5.882,33.709c-0.419-0.173-0.858-0.292-1.321-0.292c-2.443,0-4.424,2.596-4.424,5.801  c0,3.205,1.981,5.801,4.424,5.801c0.284,0,0.56-0.042,0.829-0.109c1.91,6.203,7.325,10.68,13.719,10.68  c0.726,0,1.4-0.077,2.096-0.187C22.768,59.852,26,63.204,29,65.7v16.039l3-1.443l3,1.443V68.964c2,0.496,3,0.903,4,1.263v7.355  l3.5-1.236l3.5,1.236v-6.229c3,0.339,5.5,0.514,8.559,0.514c1.95,0,3.441-0.15,5.441-0.384v6.099l3-1.236l3,1.236v-7.335  c2-0.396,3-0.845,5-1.37v12.862l3-1.443l3,1.443v-16c7-4.813,12.406-12.034,12.406-20.112c0-5.131-2.016-9.903-5.393-13.946  c3.2-1.881,6.367-3.333,9.156-2.571c1.99,0.544,3.663,2.184,5.128,5.013l1.843-0.958C98.394,29.793,96.285,27.811,93.701,27.104z   M65.448,29.128c-8.726-2.663-18.048-2.645-26.759,0.057c-0.291-0.946-0.581-1.892-0.873-2.837  c9.284-2.835,19.203-2.817,28.47,0.055C66.008,27.312,65.729,28.221,65.448,29.128z"/>
</svg>