<svg xmlns="http://www.w3.org/2000/svg" xmlns:xlink="http://www.w3.org/1999/xlink" version="1.1" id="Layer_1" x="0px" y="0px" width="100px" height="100px" viewBox="0 0 100 100" enable-background="new 0 0 100 100" xml:space="preserve">
<path d="M53.326,53.389c3.271-3.271,9.19-2.646,5.92-5.917L14.283,2.507c-3.271-3.261-8.568-3.261-11.839,0.01  c-3.254,3.261-3.263,8.556,0,11.829L47.408,59.31C50.679,62.581,50.065,56.653,53.326,53.389z M10.377,7.282  c-1.031-1.026,1.504-3.562,2.531-2.537c8.874,8.873,40.538,40.541,40.538,40.541l-2.535,2.527  C50.91,47.813,19.5,16.411,10.377,7.282z M4.692,12.969c-1.036-1.033,1.509-3.57,2.535-2.537  c8.874,8.873,40.532,40.533,40.532,40.533l-2.537,2.537C45.222,53.502,13.821,22.098,4.692,12.969z"/>
<path d="M100,95.73l-6.76-8.113l-7.828-5.283l0,0c-5.601-5.603-23.6-23.605-29.291-29.301c-0.794-0.787-3.938,2.354-3.146,3.142  c5.861,5.861,23.723,23.729,29.294,29.304l0,0l5.292,7.824l8.23,6.635L100,95.73z"/>
</svg>