<svg xmlns:dc="http://purl.org/dc/elements/1.1/" xmlns:cc="http://creativecommons.org/ns#" xmlns:rdf="http://www.w3.org/1999/02/22-rdf-syntax-ns#" xmlns:svg="http://www.w3.org/2000/svg" xmlns="http://www.w3.org/2000/svg" xmlns:sodipodi="http://sodipodi.sourceforge.net/DTD/sodipodi-0.dtd" xmlns:inkscape="http://www.inkscape.org/namespaces/inkscape" version="1.1" id="Layer_1" x="0px" y="0px" width="100" height="100" viewBox="0 0 99.999999 100" enable-background="new 0 0 81.193 100" xml:space="preserve" inkscape:version="0.48.2 r9819" sodipodi:docname="braille_noun_upload.svg"><title id="title4127">Braille</title><metadata id="metadata19"><rdf:RDF><cc:Work rdf:about=""><dc:format>image/svg+xml</dc:format><dc:type rdf:resource="http://purl.org/dc/dcmitype/StillImage"/><dc:title>Braille</dc:title><dc:date>2012-04-26</dc:date><dc:creator><cc:Agent><dc:title>Jakob Vogel</dc:title></cc:Agent></dc:creator><dc:rights><cc:Agent><dc:title>Jakob Vogel</dc:title></cc:Agent></dc:rights><dc:subject><rdf:Bag><rdf:li>braille</rdf:li><rdf:li>blind</rdf:li><rdf:li>writing</rdf:li><rdf:li>blind writing</rdf:li><rdf:li>feel</rdf:li><rdf:li>touch</rdf:li><rdf:li>finger</rdf:li><rdf:li>Blindenschrift</rdf:li><rdf:li>Braille</rdf:li><rdf:li>f&#252;hlen</rdf:li><rdf:li>tasten</rdf:li><rdf:li>Finger</rdf:li><rdf:li>Noppen</rdf:li></rdf:Bag></dc:subject><dc:contributor><cc:Agent><dc:title/></cc:Agent></dc:contributor><dc:description>A Symbol for the [NounProject](thenounproject.com) showing a hand with the index finger over a line of braille letters that read "braille" with the finger hiding the "a".

Ein Symbol f&#252;r das [NounProject](thenounproject.com), das eine Hand zeigt, deren Zeigefinger &#252;ber einer Zeile von Braille-Buchstaben liegt, die das Wort "Braille" bedeuten, wobei das "a" verdeckt ist.</dc:description><cc:license rdf:resource="http://creativecommons.org/licenses/by/3.0/"/></cc:Work><cc:License rdf:about="http://creativecommons.org/licenses/by/3.0/"><cc:permits rdf:resource="http://creativecommons.org/ns#Reproduction"/><cc:permits rdf:resource="http://creativecommons.org/ns#Distribution"/><cc:requires rdf:resource="http://creativecommons.org/ns#Notice"/><cc:requires rdf:resource="http://creativecommons.org/ns#Attribution"/><cc:permits rdf:resource="http://creativecommons.org/ns#DerivativeWorks"/></cc:License></rdf:RDF></metadata><defs id="defs17"/><sodipodi:namedview pagecolor="#ffffff" bordercolor="#666666" borderopacity="1" objecttolerance="10" gridtolerance="10" guidetolerance="10" inkscape:pageopacity="0" inkscape:pageshadow="2" inkscape:window-width="1187" inkscape:window-height="713" id="namedview15" showgrid="false" inkscape:zoom="6.5595832" inkscape:cx="50" inkscape:cy="50" inkscape:window-x="47" inkscape:window-y="0" inkscape:window-maximized="0" inkscape:current-layer="Layer_1"/><path id="braille" style="fill:#000000" d="m 38.4375,14.138464 c -0.871508,0.05169 -1.357389,0.397432 -1.75,0.96875 -0.392612,0.571318 -0.647365,1.432375 -0.75,2.4375 -0.205272,2.010249 0.152779,4.527233 0.40625,6.28125 1.158918,8.019696 4.008547,15.665867 5.5625,23.75 0.924643,4.810275 1.306274,9.718714 2.1875,14.40625 l 0.25,1.40625 -1.25,-0.65625 c -0.594651,-0.310279 -1.010816,-0.850924 -1.4375,-1.5 -0.426685,-0.649076 -0.827836,-1.441151 -1.25,-2.25 -0.844328,-1.617698 -1.74283,-3.371837 -2.5625,-4.34375 -1.270159,-1.506072 -2.840134,-3.182195 -4.5,-4.1875 -1.640368,-0.993495 -3.25199,-1.316145 -5,-0.4375 -0.772623,0.702885 -1.054801,1.337463 -1.0625,2.0625 -0.0081,0.755815 0.298691,1.632774 0.78125,2.5625 0.965116,1.859452 2.605436,3.829972 3.09375,5.875 1.215088,5.088751 4.296256,9.065061 7.03125,13.40625 2.137599,3.392946 3.727449,7.133279 7.03125,8.8125 4.357618,2.214844 8.147273,5.714131 12.46875,6.4375 5.249251,0.878667 11.116174,1.141683 16.15625,0.46875 4.996626,-0.667132 9.1063,-2.299311 11.03125,-4.90625 4.128619,-16.755513 1.52064,-27.660364 -5.15625,-36.78125 -4.475314,-1.524896 -11.188885,-2.425794 -16.8125,-2.875 -5.689043,-0.45443 -10.21875,-0.5 -10.21875,-0.5 l -0.46875,0 -0.15625,-0.40625 c 0,0 -1.899851,-4.525761 -3.90625,-9.625 -2.0064,-5.099239 -4.123203,-10.704926 -4.59375,-13.28125 -0.433102,-2.371296 -0.868975,-4.28003 -1.59375,-5.46875 -0.724776,-1.18872 -1.597356,-1.770954 -3.53125,-1.65625 z m 43.235953,1.477917 c 0,0.758249 -0.614683,1.372932 -1.372933,1.372932 -0.758249,0 -1.372932,-0.614683 -1.372932,-1.372932 0,-0.75825 0.614683,-1.372933 1.372932,-1.372933 0.75825,0 1.372933,0.614683 1.372933,1.372933 z m 4.000069,4.000069 c 0,0.758249 -0.614683,1.372932 -1.372933,1.372932 -0.758249,0 -1.372932,-0.614683 -1.372932,-1.372932 0,-0.75825 0.614683,-1.372933 1.372932,-1.372933 0.75825,0 1.372933,0.614683 1.372933,1.372933 z m -14.76692,4.000065 c 0,0.758249 -0.614683,1.372932 -1.372933,1.372932 -0.758249,0 -1.372932,-0.614683 -1.372932,-1.372932 0,-0.75825 0.614683,-1.372933 1.372932,-1.372933 0.75825,0 1.372933,0.614683 1.372933,1.372933 z m 0,-4.000065 c 0,0.758249 -0.614683,1.372932 -1.372933,1.372932 -0.758249,0 -1.372932,-0.614683 -1.372932,-1.372932 0,-0.75825 0.614683,-1.372933 1.372932,-1.372933 0.75825,0 1.372933,0.614683 1.372933,1.372933 z m 0,-4.000069 c 0,0.758249 -0.614683,1.372932 -1.372933,1.372932 -0.758249,0 -1.372932,-0.614683 -1.372932,-1.372932 0,-0.75825 0.614683,-1.372933 1.372932,-1.372933 0.75825,0 1.372933,0.614683 1.372933,1.372933 z M 60.13975,23.616515 c 0,0.758249 -0.614683,1.372932 -1.372933,1.372932 -0.758249,0 -1.372932,-0.614683 -1.372932,-1.372932 0,-0.75825 0.614683,-1.372933 1.372932,-1.372933 0.75825,0 1.372933,0.614683 1.372933,1.372933 z m 0,-4.000065 c 0,0.758249 -0.614683,1.372932 -1.372933,1.372932 -0.758249,0 -1.372932,-0.614683 -1.372932,-1.372932 0,-0.75825 0.614683,-1.372933 1.372932,-1.372933 0.75825,0 1.372933,0.614683 1.372933,1.372933 z m 0,-4.000069 c 0,0.758249 -0.614683,1.372932 -1.372933,1.372932 -0.758249,0 -1.372932,-0.614683 -1.372932,-1.372932 0,-0.75825 0.614683,-1.372933 1.372932,-1.372933 0.75825,0 1.372933,0.614683 1.372933,1.372933 z M 49.372895,19.61645 c 0,0.758249 -0.614683,1.372932 -1.372933,1.372932 -0.758249,0 -1.372932,-0.614683 -1.372932,-1.372932 0,-0.75825 0.614683,-1.372933 1.372932,-1.372933 0.75825,0 1.372933,0.614683 1.372933,1.372933 z m 4.00007,-4.000069 c 0,0.758249 -0.614683,1.372932 -1.372933,1.372932 -0.758249,0 -1.372932,-0.614683 -1.372932,-1.372932 0,-0.75825 0.614683,-1.372933 1.372932,-1.372933 0.75825,0 1.372933,0.614683 1.372933,1.372933 z m -25.533776,8.000134 c 0,0.758249 -0.614683,1.372932 -1.372933,1.372932 -0.758249,0 -1.372931,-0.614683 -1.372931,-1.372932 0,-0.75825 0.614682,-1.372933 1.372931,-1.372933 0.75825,0 1.372933,0.614683 1.372933,1.372933 z m 0,-4.000065 c 0,0.758249 -0.614683,1.372932 -1.372933,1.372932 -0.758249,0 -1.372931,-0.614683 -1.372931,-1.372932 0,-0.75825 0.614682,-1.372933 1.372931,-1.372933 0.75825,0 1.372933,0.614683 1.372933,1.372933 z m 0,-4.000069 c 0,0.758249 -0.614683,1.372932 -1.372933,1.372932 -0.758249,0 -1.372931,-0.614683 -1.372931,-1.372932 0,-0.75825 0.614682,-1.372933 1.372931,-1.372933 0.75825,0 1.372933,0.614683 1.372933,1.372933 z m 4.000072,4.000069 c 0,0.758249 -0.614683,1.372932 -1.372933,1.372932 -0.758249,0 -1.372932,-0.614683 -1.372932,-1.372932 0,-0.75825 0.614683,-1.372933 1.372932,-1.372933 0.75825,0 1.372933,0.614683 1.372933,1.372933 z m -14.766924,0 c 0,0.758249 -0.614683,1.372932 -1.372933,1.372932 -0.758249,0 -1.372932,-0.614683 -1.372932,-1.372932 0,-0.75825 0.614683,-1.372933 1.372932,-1.372933 0.75825,0 1.372933,0.614683 1.372933,1.372933 z m 0,-4.000069 c 0,0.758249 -0.614683,1.372932 -1.372933,1.372932 -0.758249,0 -1.372932,-0.614683 -1.372932,-1.372932 0,-0.75825 0.614683,-1.372933 1.372932,-1.372933 0.75825,0 1.372933,0.614683 1.372933,1.372933 z M 15.71875,9.9822136 c -3.138446,0 -5.6875,2.5490544 -5.6875,5.6875004 l 0,7.90625 c 0,3.138446 2.549054,5.6875 5.6875,5.6875 l 19.5625,0 C 35.18137,28.805025 35.092764,28.349863 35,27.888464 l -19.28125,0 c -2.401554,0 -4.3125,-1.910946 -4.3125,-4.3125 l 0,-7.90625 c 0,-2.401554 1.910946,-4.3125 4.3125,-4.3125 l 68.5625,0 c 2.401554,0 4.3125,1.910946 4.3125,4.3125 l 0,7.90625 c 0,2.401554 -1.910946,4.3125 -4.3125,4.3125 l -36.4375,0 c 0.16478,0.454103 0.295363,0.907615 0.46875,1.375 l 35.96875,0 c 3.138446,0 5.6875,-2.549054 5.6875,-5.6875 l 0,-7.90625 c 0,-3.138446 -2.549054,-5.6875004 -5.6875,-5.6875004 l -68.5625,0 z" inkscape:connector-curvature="0"/></svg>