<svg xmlns="http://www.w3.org/2000/svg" xmlns:xlink="http://www.w3.org/1999/xlink" xmlns:a="http://ns.adobe.com/AdobeSVGViewerExtensions/3.0/" version="1.1" x="0px" y="0px" width="100px" height="100px" viewBox="-0.999 -1 100 100" overflow="visible" enable-background="new -0.999 -1 100 100" xml:space="preserve">
<defs>
</defs>
<path d="M48.999,98C21.98,98,0,76.019,0,49C0,21.982,21.98,0,48.999,0C76.02,0,98.002,21.982,98.002,49  C98.002,76.019,76.02,98,48.999,98L48.999,98z M48.999,10.187c-21.402,0-38.813,17.412-38.813,38.813s17.412,38.813,38.813,38.813  c21.405,0,38.817-17.412,38.817-38.813S70.403,10.187,48.999,10.187L48.999,10.187z"/>
<path d="M73.023,59.016H39.812v-31.39c0-3.383,2.743-6.125,6.125-6.125s6.127,2.742,6.127,6.125v19.141h20.959  c3.382,0,6.125,2.743,6.125,6.125C79.148,56.273,76.405,59.016,73.023,59.016z"/>
</svg>