<svg xmlns="http://www.w3.org/2000/svg" xmlns:xlink="http://www.w3.org/1999/xlink" xmlns:a="http://ns.adobe.com/AdobeSVGViewerExtensions/3.0/" version="1.1" x="0px" y="0px" width="100px" height="100px" viewBox="-1 -6.649 100 100" overflow="visible" enable-background="new -1 -6.649 100 100" xml:space="preserve">
<defs>
</defs>
<path fill="#000000" d="M74.421,0H23.579C10.557,0,0,10.558,0,23.579v39.543c0,13.021,10.557,23.579,23.579,23.579h50.842  C87.444,86.702,98,76.144,98,63.123V23.579C98,10.558,87.444,0,74.421,0z M47.477,67.819c0,5.002-4.057,9.059-9.06,9.059H18.882  c-5.001,0-9.058-4.057-9.058-9.059V52.625c0-5,4.056-9.059,9.058-9.059h19.534c5.003,0,9.06,4.059,9.06,9.059V67.819z M84.018,18.73  l-5.355,19.995c-0.958,3.567-3.875,4.348-6.486,1.737l-2.312-2.312l-7.756,7.756c-2.019,2.017-5.292,2.017-7.307,0l-2.704-2.704  c-2.018-2.017-2.017-5.288,0-7.307l7.759-7.756l-2.314-2.314c-2.611-2.612-1.831-5.528,1.736-6.484l19.994-5.357  C82.837,13.029,84.973,15.165,84.018,18.73z"/>
</svg>