<svg xmlns="http://www.w3.org/2000/svg" xmlns:xlink="http://www.w3.org/1999/xlink" xmlns:a="http://ns.adobe.com/AdobeSVGViewerExtensions/3.0/" version="1.1" x="0px" y="0px" width="100px" height="100px" viewBox="-13.325 -3.793 100 100" overflow="visible" enable-background="new -13.325 -3.793 100 100" xml:space="preserve">
<defs>
</defs>
<path fill="#000000" d="M68.138,45.955c-0.706-2.258-1.286-4.528-1.809-6.811c0.173-6.343-0.538-14.017-1.812-18.182  c-2.457-7.53-7.48-11.229-14.427-15.3l-1.508-4.25c-0.561,0.613-1.028,1.295-1.456,2.005C42.688-0.63,33.905-0.3,28.624,0.5  c-8.22,1.176-15.599,5.032-19.457,12.413c-3.019,5.871-4.025,11.909-4.025,18.451c0.153,3.222-0.093,6.854,1.399,9.761  c-0.401,1.616-0.83,3.227-1.331,4.831c-2.347,7.379-4.863,14.593-5.199,22.308c-0.167,6.541,1.51,14.089,7.381,17.947  c4.192,2.85,11.404,5.366,16.269,6.205c-1.006-3.355-3.355-6.708-3.019-10.23c2.852,1.006,5.199,3.522,8.387,3.856  c0.67-1.677-0.169-3.689-0.503-5.199c2.013,0.336,3.354,2.013,5.366,2.349c0.932-3.882-1.852-9.324-3.07-13.307  c-11.009-3.463-19.266-16.73-20.092-29.975c2.131-1.592,3.894-3.662,5.649-5.527c0,1.174,0,2.347,0.336,3.522  c4.193-1.51,7.212-4.362,10.4-7.214c0.334,1.679,0.167,3.522,0.67,5.201c7.439-3.383,13.653-11.086,16.888-19.386  c0.354,6.239,2.095,12.67,3.575,17.112c2.079,6.469,6.069,13.494,11.585,18.284c-3.441,8.379-9.696,15.294-17.256,17.823  c-1.195,3.996-4.066,9.531-3.121,13.466c2.013-0.336,3.355-2.013,5.368-2.349c-0.336,1.51-1.174,3.522-0.503,5.199  c3.186-0.334,5.534-2.851,8.387-3.856c0.334,3.522-2.013,6.875-3.02,10.23c4.863-0.839,12.076-3.355,16.27-6.205  c5.871-3.858,7.548-11.406,7.38-17.947C73.002,60.548,70.486,53.334,68.138,45.955z"/>
<path fill="#000000" d="M48.763,55.75c0,0-7.64-4.58-12.088,0.526c-4.474-5.106-12.088-0.526-12.088-0.526S30,63.607,36.675,63.607  S48.763,55.75,48.763,55.75z"/>
</svg>