<svg xmlns="http://www.w3.org/2000/svg" xmlns:xlink="http://www.w3.org/1999/xlink" xmlns:a="http://ns.adobe.com/AdobeSVGViewerExtensions/3.0/" version="1.1" x="0px" y="0px" width="100px" height="100px" viewBox="-5 -5.663 100 100" overflow="visible" enable-background="new -5 -5.663 100 100" xml:space="preserve">
<defs>
</defs>
<path fill="#000000" d="M59.925,31.452c4.043,0,7.491-3.282,7.703-7.319c0.155-2.962-1.485-5.504-3.955-6.657  c-0.902-0.419-1.9-0.666-2.98-0.666c-4.043,0-7.491,3.282-7.704,7.322c-0.115,2.274,0.839,4.283,2.397,5.626  C56.597,30.801,58.16,31.452,59.925,31.452z"/>
<path fill="#000000" d="M30.076,31.452c1.766,0,3.328-0.651,4.538-1.693c1.561-1.343,2.517-3.352,2.397-5.626  c-0.211-4.04-3.66-7.322-7.702-7.322c-1.078,0-2.08,0.246-2.98,0.666c-2.472,1.153-4.11,3.695-3.954,6.657  C22.585,28.169,26.034,31.452,30.076,31.452z"/>
<polygon fill="#000000" points="48.343,40.127 52.651,40.127 50.676,36.709 45.001,26.884 39.326,36.709 37.352,40.127   41.658,40.127 "/>
<path fill="#000000" d="M47.47,50.946v12.589c1.703-0.044,3.353-0.125,4.939-0.246V51.196C50.823,51.076,49.175,50.989,47.47,50.946  z"/>
<path fill="#000000" d="M25.08,53.319c-0.102-1.308-0.172-2.639-0.172-3.989c0-1.784,0.116-3.522,0.291-5.226  c-7.443-5.865-12.238-14.94-12.238-25.155c0-7.1,2.338-13.639,6.247-18.949l-6.022,1.618c-2.47,10.083-3.705,20.17-6.792,30.048  c-2.88,9.054-5.967,17.904-6.379,27.372c-0.205,8.026,1.853,17.289,9.056,22.02c5.145,3.498,13.994,6.585,19.963,7.617  c-1.235-4.119-4.117-8.233-3.705-12.557c3.5,1.236,6.379,4.323,10.292,4.732c0.822-2.055-0.208-4.523-0.618-6.376  c2.47,0.409,4.115,2.469,6.584,2.88c0.305-1.269,0.265-2.678,0.035-4.153C34.726,73,29.025,71.581,26.428,61.548  c1.8,0.482,3.903,0.892,6.225,1.215V51.722C29.731,52.126,27.146,52.667,25.08,53.319z"/>
<path fill="#000000" d="M83.604,31.667c-3.087-9.878-4.321-19.965-6.791-30.048L70.797,0c3.907,5.311,6.242,11.849,6.242,18.949  c0,10.214-4.795,19.29-12.237,25.155c0.178,1.703,0.294,3.441,0.294,5.226c0,1.351-0.072,2.682-0.174,3.989  c-2.064-0.651-4.65-1.192-7.573-1.597v11.041c2.32-0.323,4.424-0.732,6.224-1.215C60.977,71.581,55.275,73,48.38,73.202  c-0.229,1.476-0.272,2.885,0.033,4.153c2.47-0.411,4.117-2.471,6.587-2.88c-0.415,1.853-1.442,4.321-0.617,6.376  c3.907-0.409,6.792-3.496,10.288-4.732c0.41,4.323-2.469,8.438-3.704,12.557c5.967-1.032,14.817-4.119,19.965-7.617  c7.201-4.73,9.262-13.993,9.054-22.02C89.576,49.571,86.489,40.721,83.604,31.667z"/>
<path fill="#000000" d="M37.592,51.196v12.093c1.587,0.121,3.235,0.202,4.939,0.246V50.946  C40.826,50.989,39.18,51.076,37.592,51.196z"/>
</svg>