<svg xmlns="http://www.w3.org/2000/svg" xmlns:xlink="http://www.w3.org/1999/xlink" xmlns:a="http://ns.adobe.com/AdobeSVGViewerExtensions/3.0/" version="1.1" x="0px" y="0px" width="100px" height="100px" viewBox="-8.462 -1 100 100" overflow="visible" enable-background="new -8.462 -1 100 100" xml:space="preserve">
<defs>
</defs>
<path fill="#000000" d="M66.825,30.322h-7.339l9.076-24.414c0.843-2.268-0.312-4.79-2.58-5.632c-2.278-0.845-4.792,0.312-5.635,2.58  L52.97,22.705L45.647,2.866c-0.837-2.271-3.359-3.431-5.626-2.594c-2.27,0.839-3.431,3.357-2.594,5.627l9.015,24.423H16.251  C7.29,30.322,0,37.612,0,46.573v35.178C0,90.71,7.29,98,16.251,98h50.574c8.961,0,16.251-7.29,16.251-16.249V46.573  C83.076,37.612,75.786,30.322,66.825,30.322z M72.124,81.751c0,2.922-2.372,5.296-5.299,5.296H16.251  c-2.926,0-5.299-2.374-5.299-5.296V46.573c0-2.926,2.373-5.299,5.299-5.299h50.574c2.927,0,5.299,2.373,5.299,5.299V81.751z"/>
</svg>