<svg xmlns="http://www.w3.org/2000/svg" xmlns:xlink="http://www.w3.org/1999/xlink" version="1.1" id="Layer_1" x="0px" y="0px" width="100px" height="100px" viewBox="0 0 100 100" enable-background="new 0 0 100 100" xml:space="preserve">
<path fill-rule="evenodd" clip-rule="evenodd" d="M50.001,43.429c6.006,0,11.056,4.106,12.485,9.661  c1.8,6.96,1.546,14.595,9.435,18.552c6.995,2.402,9.639,5.42,9.639,13.504c0,6.455-5.474,13.313-12.539,14.169  c-7.889,1.196-14.04-0.366-19.02-3.233c-4.981,2.867-11.132,4.43-19.017,3.233c-7.068-0.856-12.543-7.739-12.543-14.169  c0-7.909,2.824-11.26,9.809-13.554c8.591-4.422,7.438-12.178,9.356-18.843C39.155,47.367,44.116,43.429,50.001,43.429L50.001,43.429  z M89.369,38.622c-2.128-1.868-10.823,5.414-13.554,9.017c-1.667,1.92-2.697,4.562-2.697,7.477c0,5.864,4.156,10.615,9.281,10.615  c3.895,0,7.224-2.734,8.604-6.617C93.684,52.135,93.824,42.525,89.369,38.622L89.369,38.622z M10.628,38.622  C6.173,42.525,6.316,52.135,9,59.114c1.378,3.883,4.709,6.617,8.601,6.617c5.125,0,9.279-4.751,9.279-10.615  c0-2.915-1.029-5.557-2.695-7.477C21.452,44.036,12.761,36.754,10.628,38.622L10.628,38.622z M61.439,0.345  c21.637,3.699,20.116,40.428,2.793,37.467c-4.996-0.854-8.703-5.445-9.265-10.923C54.39,21.317,53.102-1.079,61.439,0.345  L61.439,0.345z M38.559,0.345c8.34-1.424,7.049,20.972,6.476,26.544c-0.565,5.478-4.269,10.068-9.266,10.923  C18.442,40.773,16.925,4.044,38.559,0.345z"/>
</svg>