<svg xmlns="http://www.w3.org/2000/svg" xmlns:xlink="http://www.w3.org/1999/xlink" version="1.1" id="Layer_1" x="0px" y="0px" width="100px" height="100px" viewBox="0 0 100 100" enable-background="new 0 0 100 100" xml:space="preserve">
<path fill="#000000" d="M35.443,2.583c0,0,14.836,10.48,0,32.011c-13.407,19.457-21.41,40.113-6.609,55.539  c4.288,4.47,9.373,6.745,14.568,7.282c-8.4-2.451-14.658-10.83-7.364-25.817c4.486-9.218,15.658-20.073,11.938-32.859  c0,0,10.057,12.669,3.208,31.977c-3.111,8.77,10.599,9.728,6.885,0.154c-2.246-5.785,10.602,11.497,3.683,21.482  c6.529-4.512,10.063-11.938,12.655-19.868C81.76,50,72.084,13.733,35.443,2.583z"/>
</svg>