<svg xmlns="http://www.w3.org/2000/svg" xmlns:xlink="http://www.w3.org/1999/xlink" version="1.1" id="Layer_1" x="0px" y="0px" width="100px" height="100px" viewBox="0 0 100 100" enable-background="new 0 0 100 100" xml:space="preserve">
<polygon points="47.874,71.055 46.98,86.178 49.706,86.178 "/>
<path d="M23.937,86.178c0,0-10.599-10.662-10.5-21.294c0,0-3.267,9.192,6.154,21.294H23.937z"/>
<path d="M94.47,16.276l-4.894-0.581v7.466l4.894-1.05c1.535-0.437,2.917-1.307,2.917-2.918  C97.387,17.582,96.062,16.421,94.47,16.276z"/>
<path d="M81.852,32.886c1.327-2.457,2.455-4.799,3.113-6.384c1.304-3.148,3.507-3.104,3.507-3.104v-7.834l-6.298-0.747  c-0.164,0-1.086-0.994-1.7-0.994c-0.685,0-1.237,0.554-1.237,1.237v2.556c0,0.064-3.725,11.532-9.663,15.27H81.852z"/>
<path d="M4.361,35.266l0.771,14.236C5.132,49.501-0.998,43.716,4.361,35.266z"/>
<path d="M65.863,34.051c-5.835,0-13.41-7.707-20.576-13.95c-0.275-0.24-0.55-0.478-0.824-0.713c-0.068-0.358-0.145-0.66-0.229-0.915  c-0.709-2.156-4.863-1.648-4.863,8.461v10.199h-1.104v-1.602h-1.593v1.602h-1.105v-1.602h-1.593v1.602H32.87v-1.602h-1.593v1.602  h-1.104v-1.602h-1.593v1.602h-1.105v-1.602H25.88v1.602h-1.105v-1.602h-1.593v1.602h-1.104v-1.602h-1.594v1.602h-1.104l0.024-10.418  c0.071-2.656,0.109-5.307,0.572-7.754c-3.308,2.941-8.08,7.188-11.42,10.18c-1.267,1.135-2.876,3.266-2.876,6.047  c0,8.051,0.853,18.355,1.075,20.134c0.649,5.197-0.073,12.343-0.073,12.343l5.981,18.485h4.655c-0.574-0.9-1.625-2.819-3.547-6.79  c-4.75-9.816,0.003-28.436,1.598-33.996h32.538c0,8.147-4.913,20.546-4.913,20.546l-0.021,20.268h2.647l1.126-16.093l12.512-24.721  h0.012c0.037-0.014,0.073-0.027,0.11-0.041c10.447,0.006,11.442,0.043,15.397-2.833c2.203-1.604,4.528-5.052,6.466-8.5  C81.242,33.99,66.144,34.051,65.863,34.051z"/>
</svg>