<svg xmlns="http://www.w3.org/2000/svg" xmlns:xlink="http://www.w3.org/1999/xlink" version="1.1" id="Layer_1" x="0px" y="0px" width="100px" height="100px" viewBox="0 0 100 100" enable-background="new 0 0 100 100" xml:space="preserve">
<path d="M66.326,18.252c2.355,2.354,1.258,5.551-2.089,5.551H35.8c-3.346,0-4.4-3.241-2.089-5.552c0,0,1.809-14.751,16.309-14.751  C64.521,3.5,66.326,18.252,66.326,18.252z"/>
<path d="M81.378,90.682l-4.411-34.001l-7.81-25.678c-0.975-3.201-4.508-5.819-7.854-5.819H38.698c-3.347,0-6.879,2.618-7.854,5.819  l-7.812,25.676l-4.411,34.003c-0.819,3.201,0.812,5.818,3.627,5.818h55.502C80.564,96.5,82.197,93.883,81.378,90.682z M37.864,85.61  c0,3.274-2.657,5.929-5.932,5.929c-3.275,0-5.933-2.654-5.933-5.929V56.679l7.455-24.505c2.531,0.676,4.409,2.964,4.409,5.711V85.61  z M55.933,85.61c0,3.274-2.656,5.929-5.932,5.929s-5.932-2.654-5.932-5.929V37.885c0-3.277,2.656-5.932,5.932-5.932  s5.932,2.654,5.932,5.932V85.61z M74.002,85.61c0,3.274-2.657,5.929-5.933,5.929c-3.274,0-5.932-2.654-5.932-5.929V37.885  c0-2.747,1.877-5.035,4.409-5.711l7.455,24.508V85.61z"/>
</svg>