<svg xmlns="http://www.w3.org/2000/svg" xmlns:xlink="http://www.w3.org/1999/xlink" version="1.1" id="Layer_1" x="0px" y="0px" width="100px" height="100px" viewBox="0 0 100 100" enable-background="new 0 0 100 100" xml:space="preserve">
<polygon points="68.432,96.16 31.566,96.16 23.203,76.896 38.08,27.996 61.922,27.996 76.797,76.896 "/>
<path d="M61.945,17.69H38.08c-2.246,0-4.066,1.821-4.066,4.067s1.82,4.066,4.066,4.066h23.865c2.248,0,4.068-1.82,4.068-4.066  S64.193,17.69,61.945,17.69z"/>
<path d="M61.945,15.774c-8.355,0-15.113,0-23.865,0c0-6.593,5.344-11.935,11.934-11.935C56.602,3.84,61.945,9.182,61.945,15.774z"/>
</svg>