<svg xmlns:dc="http://purl.org/dc/elements/1.1/" xmlns:cc="http://creativecommons.org/ns#" xmlns:rdf="http://www.w3.org/1999/02/22-rdf-syntax-ns#" xmlns:svg="http://www.w3.org/2000/svg" xmlns="http://www.w3.org/2000/svg" xmlns:xlink="http://www.w3.org/1999/xlink" version="1.0" width="90.334" height="100" viewBox="0 0 90.334 100" id="Layer_1" xml:space="preserve"><metadata id="metadata11"><rdf:RDF><cc:Work rdf:about=""><dc:format>image/svg+xml</dc:format><dc:type rdf:resource="http://purl.org/dc/dcmitype/StillImage"/><dc:title/></cc:Work></rdf:RDF></metadata><defs id="defs9"/>
<g transform="matrix(1.0140793,0,0,1.0140793,-183.11707,-279.52725)" id="layer1" style="display:none"/>

<path d="m 81.377,85.761 c 2.604,-3.182 3.518,-7.609 2.002,-11.756 l -1.373,-3.791 h 8.328 V 0 H -8.1079317e-8 V 70.214 H 48.579 l 5.299,14.537 c 1.504,4.14 5.053,6.952 9.092,7.709 L 65.46,99.996 86.305,100 81.377,85.761 z M 73.798,47.827 c -4.451,1.619 -6.75,6.55 -5.128,11.008 l 3.212,8.764 H 2.6149999 V 2.618 H 87.723 v 64.98 H 81.038 L 73.798,47.827 z M 4.65625,4.65625 l 0,60.90625 64.3125,0 L 66.75,59.53125 c -2.00088,-5.499325 0.84926,-11.626442 6.34375,-13.625 l 1.9375,-0.71875 0.6875,1.9375 6.75,18.4375 3.21875,0 0,-60.90625 -81.03125,0 z m 30.8125,4.875 c 2.958748,-0.053856 6.214461,0.48832 9.6875,1.65625 8.112773,-2.7356774 14.957264,-1.844946 19.9375,1.3125 5.073971,3.216873 8.192551,8.63862 9.21875,14.4375 1.026199,5.79888 -0.04704,12.044182 -3.46875,17.03125 -3.421712,4.987068 -9.235092,8.638516 -17.375,9.1875 -0.89943,0.06066 -1.44426,-0.259227 -2.15625,-0.625 -0.71199,-0.365773 -1.509219,-0.865709 -2.34375,-1.46875 -1.269741,-0.917528 -2.563099,-2.179933 -3.8125,-3.4375 -1.245947,1.25254 -2.547104,2.523111 -3.8125,3.4375 -0.834531,0.603041 -1.60051,1.102977 -2.3125,1.46875 -0.71199,0.365773 -1.25682,0.68566 -2.15625,0.625 C 28.735094,52.607266 22.890461,48.955818 19.46875,43.96875 16.04704,38.981682 15.005051,32.73638 16.03125,26.9375 17.057449,21.13862 20.176031,15.716873 25.25,12.5 c 2.536985,-1.608437 5.552323,-2.641598 8.96875,-2.90625 0.410306,-0.031784 0.827322,-0.054806 1.25,-0.0625 z m 0.125,2.6875 c -0.388111,0.0075 -0.781531,0.03376 -1.15625,0.0625 -2.997756,0.229911 -5.580724,1.124689 -7.75,2.5 -4.338553,2.750623 -7.087608,7.469225 -8,12.625 -0.912392,5.155775 0.0613,10.702611 3.03125,15.03125 2.969952,4.328639 7.905416,7.529582 15.34375,8.03125 -0.271106,-0.01828 0.183653,-0.06885 0.71875,-0.34375 0.535097,-0.274898 1.247856,-0.706492 2,-1.25 1.163435,-0.840711 2.381069,-2.025444 3.53125,-3.1875 -1.182683,-1.463913 -2.163662,-2.981938 -2.34375,-4.625 -0.107287,-0.978851 0.159035,-2.067556 0.875,-2.875 0.715965,-0.807444 1.763888,-1.294906 3.0625,-1.5625 l 0.25,-0.0625 0.28125,0.0625 c 1.298612,0.267594 2.346535,0.755056 3.0625,1.5625 0.715965,0.807444 0.951037,1.896149 0.84375,2.875 -0.180501,1.646838 -1.157096,3.157961 -2.34375,4.625 1.151124,1.163483 2.397778,2.345859 3.5625,3.1875 0.752144,0.543508 1.464903,0.975102 2,1.25 0.535097,0.2749 0.989856,0.32547 0.71875,0.34375 7.438337,-0.501668 12.373797,-3.702611 15.34375,-8.03125 2.96995,-4.328639 3.943642,-9.875475 3.03125,-15.03125 -0.912392,-5.155775 -3.692696,-9.874377 -8.03125,-12.625 -4.338554,-2.750623 -10.285187,-3.654636 -18,-0.9375 L 45.15625,14 44.71875,13.84375 c -3.375229,-1.188747 -6.408225,-1.677408 -9.125,-1.625 z m 19.375,2.84375 c 0.359448,0.0023 0.67828,0.01758 0.96875,0.03125 0.29047,0.01367 0.555851,0.03137 0.78125,0.0625 0.225399,0.03113 0.340359,-0.01806 0.78125,0.21875 3.102698,1.66654 4.936518,5.230861 4.78125,9 -0.155268,3.769139 -2.430519,7.750344 -7.3125,10.09375 l -0.09375,0.0625 -0.09375,0.03125 c -4.277076,1.281636 -7.484902,-0.536179 -9.4375,-2.375 -1.36814,0.383705 -2.869206,-0.03929 -4.09375,-0.9375 -1.532404,-1.124025 -2.71105,-3.112619 -2.71875,-5.625 0.0042,-2.754452 1.247582,-4.969749 3,-6.5 1.752418,-1.530251 3.964387,-2.458286 6.15625,-3.0625 2.191863,-0.604214 4.381805,-0.87706 6.09375,-0.96875 0.427986,-0.02292 0.828052,-0.03356 1.1875,-0.03125 z m -1.78125,2.84375 c -1.444823,0.112113 -3.092309,0.284423 -4.78125,0.75 -1.943506,0.535751 -3.795929,1.366713 -5.09375,2.5 -1.297821,1.133287 -2.09065,2.477747 -2.09375,4.46875 0.0052,1.694811 0.765588,2.838367 1.625,3.46875 0.72705,0.53329 1.380401,0.552179 1.78125,0.4375 0.357438,-2.286572 1.788741,-4.703434 3.71875,-7.09375 1.367147,-1.693212 3.034115,-3.213109 4.84375,-4.53125 z m 4.125,0.6875 c -2.47449,1.184569 -4.998635,3.207372 -6.875,5.53125 -1.90946,2.364866 -2.915388,4.803191 -3.0625,6.15625 1.430729,1.366256 3.364861,2.576938 6.5,1.6875 4.065708,-1.982476 5.603912,-4.899789 5.71875,-7.6875 0.09322,-2.263038 -0.852969,-4.369 -2.28125,-5.6875 z M 52.25,36.03125 c 1.041372,0 1.90625,0.864886 1.90625,1.90625 0,1.041365 -0.864878,1.9375 -1.90625,1.9375 -1.041374,0 -1.9375,-0.896125 -1.9375,-1.9375 0,-1.041374 0.896126,-1.90625 1.9375,-1.90625 z m -7.09375,3.375 c -0.63778,0.185469 -1.158609,0.388946 -1.3125,0.5625 -0.187058,0.210959 -0.23348,0.392981 -0.1875,0.8125 0.06897,0.629278 0.67904,1.708357 1.5,2.84375 0.82096,-1.135393 1.46228,-2.214472 1.53125,-2.84375 0.04598,-0.419519 -0.03169,-0.601541 -0.21875,-0.8125 -0.156467,-0.176459 -0.653751,-0.37562 -1.3125,-0.5625 z" id="path3"/></svg>