<svg xmlns:dc="http://purl.org/dc/elements/1.1/" xmlns:cc="http://creativecommons.org/ns#" xmlns:rdf="http://www.w3.org/1999/02/22-rdf-syntax-ns#" xmlns:svg="http://www.w3.org/2000/svg" xmlns="http://www.w3.org/2000/svg" version="1.1" width="100" height="100" id="svg2">
  <defs id="defs4"/>
  <metadata id="metadata7">
    <rdf:RDF>
      <cc:Work rdf:about="">
        <dc:format>image/svg+xml</dc:format>
        <dc:type rdf:resource="http://purl.org/dc/dcmitype/StillImage"/>
        <dc:title/>
      </cc:Work>
    </rdf:RDF>
  </metadata>
  <g transform="translate(0,-952.36218)" id="layer1">
    <path d="m 20.915321,972.93796 c -0.914898,17.75141 -21.13081002,24.91727 -21.13134025,40.41334 -3.4008e-4,9.9388 8.41913465,19.4079 19.75052925,21.9944 l -4.487636,4.9808 6.682139,-1.4547 -0.246574,6.8547 4.191748,-5.4 4.191748,5.4 -0.246573,-6.8547 6.682139,1.4547 -4.487636,-4.9808 c 11.331394,-2.5865 19.750865,-12.0556 19.750529,-21.9944 -5.32e-4,-15.49607 -20.216442,-22.66193 -21.13134,-40.41334 -2.078233,3.29036 -3.86592,6.60439 -4.758867,9.93691 -0.893084,-3.33303 -2.680657,-6.64663 -4.758866,-9.93691 z m 4.758866,14.2766 c 0,0 18.493005,17.80344 18.493005,26.13674 0,8.3334 -8.280522,17.1123 -18.493005,17.1123 -10.212483,0 -18.4930043,-8.7789 -18.4930043,-17.1123 0,-8.3333 18.4930043,-26.13674 18.4930043,-26.13674 z m 0,7.81638 c 0,0 -11.934152,12.96856 -11.934152,18.51766 0,5.5491 5.133752,12.378 11.934152,12.378 6.800401,0 11.934153,-6.8289 11.934153,-12.378 0,-5.5491 -11.934153,-18.51766 -11.934153,-18.51766 z m 0,7.44656 c 0,0 4.586265,8.2716 4.586265,11.2437 0,2.9721 -0.943982,7.348 -4.586265,7.348 -3.642283,0 -4.586265,-4.3759 -4.586265,-7.348 0,-2.9721 4.586265,-11.2437 4.586265,-11.2437 z" id="path3836" style="color:#000000;fill:#000000;fill-opacity:1;fill-rule:nonzero;stroke:none;stroke-width:0.90768713;marker:none;visibility:visible;display:inline;overflow:visible;enable-background:accumulate"/>
    <path d="m -50.15625,994.96875 c -4.622307,3.48629 -9.03048,13.39945 -1.03125,15.46875 5.636751,1.1994 9.103242,-6.1006 5.3125,-10.0937 -1.271002,-1.81892 -2.939208,-3.95753 -4.28125,-5.37505 z" id="path3838" style="color:#000000;fill:#ffffff;fill-opacity:1;stroke:none;stroke-width:3.04500008;marker:none;visibility:visible;display:inline;overflow:visible;enable-background:accumulate"/>
    <path d="M 67.46875,6.625 C 66.158214,6.6262557 65.071744,7.008636 64.25,7.75 64.177706,7.8152226 64.099259,7.8664052 64.03125,7.9375 62.538789,9.0847391 61.133942,10.68517 59.75,12.375 53.133943,20.258021 51.639545,31.030526 55.3125,40.1875 l -6.65625,-0.8125 5.03125,4.65625 -5.75,3.71875 6.84375,0.34375 -2.03125,6.5 5.46875,-4.125 2.65625,6.28125 1.5,-6.5 c 8.49556,7.6851 20.65871,9.0727 30.5,4.1875 1.426984,-0.673717 3.153825,-1.518465 5.03125,-3.15625 0.01102,-0.0096 0.02021,-0.02158 0.03125,-0.03125 C 98.961305,50.623493 99.670711,49.533175 100,48 101.50532,40.99119 94.41186,26.94503 84.125,16.59375 77.695719,10.124212 71.542556,6.6210966 67.46875,6.625 z m 3.8125,6.21875 c 2.958905,-1.58e-4 7.431106,2.526888 12.09375,7.21875 7.46021,7.50688 12.62291,17.72966 11.53125,22.8125 -1.09165,5.08283 -8.03977,3.10073 -15.5,-4.40625 -7.4602,-7.50688 -12.6229,-17.72966 -11.53125,-22.8125 0.409365,-1.90608 1.630907,-2.812405 3.40625,-2.8125 z m 3.46875,5.625 c -1.163815,0.0011 -1.949642,0.622005 -2.21875,1.875 -0.71764,3.34133 2.65843,10.06522 7.5625,15 4.90403,4.93469 9.43862,6.18508 10.15625,2.84375 0.71763,-3.34132 -2.65847,-10.03406 -7.5625,-14.96875 -3.065038,-3.084237 -5.997808,-4.751825 -7.9375,-4.75 z m 3.875,6.3125 c 0.808174,0.004 2.040337,0.719887 3.3125,2 2.03548,2.04827 3.45406,4.80067 3.15625,6.1875 -0.29784,1.38674 -2.21454,0.89193 -4.25,-1.15625 -2.03545,-2.04818 -3.45406,-4.86317 -3.15625,-6.25 0.111694,-0.520028 0.452596,-0.783647 0.9375,-0.78125 z" transform="translate(0,952.36218)" id="path3967" style="color:#000000;fill:#000000;fill-opacity:1;fill-rule:nonzero;stroke:none;stroke-width:0.90768713;marker:none;visibility:visible;display:inline;overflow:visible;enable-background:accumulate"/>
  </g>
</svg>