<svg xmlns:dc="http://purl.org/dc/elements/1.1/" xmlns:cc="http://creativecommons.org/ns#" xmlns:rdf="http://www.w3.org/1999/02/22-rdf-syntax-ns#" xmlns:svg="http://www.w3.org/2000/svg" xmlns="http://www.w3.org/2000/svg" xmlns:xlink="http://www.w3.org/1999/xlink" xmlns:sodipodi="http://sodipodi.sourceforge.net/DTD/sodipodi-0.dtd" xmlns:inkscape="http://www.inkscape.org/namespaces/inkscape" version="1.0" width="90.334" height="100" viewBox="0 0 90.334 100" id="Layer_1" xml:space="preserve" inkscape:version="0.48.2 r9819" sodipodi:docname="herz.svg"><sodipodi:namedview pagecolor="#ffffff" bordercolor="#666666" borderopacity="1" objecttolerance="10" gridtolerance="10" guidetolerance="10" inkscape:pageopacity="0" inkscape:pageshadow="2" inkscape:window-width="1311" inkscape:window-height="724" id="namedview9" showgrid="false" inkscape:zoom="5.36" inkscape:cx="45.167" inkscape:cy="50" inkscape:window-x="55" inkscape:window-y="0" inkscape:window-maximized="1" inkscape:current-layer="Layer_1"/><metadata id="metadata11"><rdf:RDF><cc:Work rdf:about=""><dc:format>image/svg+xml</dc:format><dc:type rdf:resource="http://purl.org/dc/dcmitype/StillImage"/><dc:title/></cc:Work></rdf:RDF></metadata><defs id="defs9"/>
<g id="g4587" transform="translate(-0.00299992,0)" style="fill:#ff0000"/><g transform="matrix(1.0140793,0,0,1.0140793,-183.11707,-279.52725)" id="layer1" style="display:none"/>

<path id="path5459" d="m 45.166287,46.103186 c 1.2247,-1.224389 8.215799,-8.219525 12.586401,-12.589506 3.915687,-3.915996 3.832156,-9.623706 0.272017,-13.164592 -3.560138,-3.541818 -9.316911,-3.526291 -12.858418,0.03416 -3.541196,-3.560449 -9.297969,-3.575975 -12.858108,-0.03416 -3.560138,3.540886 -3.643358,9.248596 0.272018,13.164592 4.370291,4.369981 11.362322,11.365117 12.58609,12.589506 z M 80.002,35.982 c -19.238,19.234 -50.433,19.234 -69.671,0 L 38.601,7.699 c 3.622,3.628 9.501,3.628 13.123,0 l 28.278,28.283 z m -6.204,11.845 c -4.451,1.619 -6.75,6.55 -5.128,11.008 l 3.212,8.764 -69.2670001,0 0,-64.981 85.1080001,0 0,64.98 -6.685,0 z m 7.579,37.934 c 2.604,-3.182 3.518,-7.609 2.002,-11.756 l -1.373,-3.791 8.328,0 L 90.334,0 -8.1079317e-8,0 l 0,70.214 L 48.579,70.214 53.878,84.751 c 1.504,4.14 5.053,6.952 9.092,7.709 l 2.49,7.536 20.845,0.004 z"/></svg>