<svg xmlns:dc="http://purl.org/dc/elements/1.1/" xmlns:cc="http://creativecommons.org/ns#" xmlns:rdf="http://www.w3.org/1999/02/22-rdf-syntax-ns#" xmlns:svg="http://www.w3.org/2000/svg" xmlns="http://www.w3.org/2000/svg" xmlns:sodipodi="http://sodipodi.sourceforge.net/DTD/sodipodi-0.dtd" xmlns:inkscape="http://www.inkscape.org/namespaces/inkscape" id="svg2" version="1.1" inkscape:version="0.48.2 r9819" width="100" height="100" sodipodi:docname="gebaerdensprache mann.svg">
  <metadata id="metadata8">
    <rdf:RDF>
      <cc:Work rdf:about="">
        <dc:format>image/svg+xml</dc:format>
        <dc:type rdf:resource="http://purl.org/dc/dcmitype/StillImage"/>
        <dc:title/>
      </cc:Work>
    </rdf:RDF>
  </metadata>
  <defs id="defs6">
    <inkscape:path-effect effect="skeletal" id="path-effect4474" is_visible="true" pattern="M 0,5 C 0,2.24 2.24,0 5,0 7.76,0 10,2.24 10,5 10,7.76 7.76,10 5,10 2.24,10 0,7.76 0,5 z" copytype="single_stretched" prop_scale="1" scale_y_rel="false" spacing="0" normal_offset="0" tang_offset="0" prop_units="false" vertical_pattern="false" fuse_tolerance="0"/>
    <inkscape:path-effect effect="skeletal" id="path-effect4416" is_visible="true" pattern="M 0,5 C 0,2.24 2.24,0 5,0 7.76,0 10,2.24 10,5 10,7.76 7.76,10 5,10 2.24,10 0,7.76 0,5 z" copytype="single_stretched" prop_scale="1" scale_y_rel="false" spacing="0" normal_offset="0" tang_offset="0" prop_units="false" vertical_pattern="false" fuse_tolerance="0"/>
  </defs>
  <sodipodi:namedview pagecolor="#ffffff" bordercolor="#666666" borderopacity="1" objecttolerance="10" gridtolerance="10" guidetolerance="10" inkscape:pageopacity="0" inkscape:pageshadow="2" inkscape:window-width="1311" inkscape:window-height="724" id="namedview4" showgrid="false" inkscape:zoom="2.7645932" inkscape:cx="80.064527" inkscape:cy="28.939971" inkscape:window-x="55" inkscape:window-y="0" inkscape:window-maximized="1" inkscape:current-layer="svg2" showguides="true" inkscape:guide-bbox="true" inkscape:snap-bbox="true" fit-margin-top="30" fit-margin-left="30" fit-margin-right="30" fit-margin-bottom="30" units="px">
    <sodipodi:guide orientation="1,0" position="-136.11406,-31.448644" id="guide4013"/>
  </sodipodi:namedview>
  <g id="g4479" transform="translate(-1.017802,0)">
    <path id="path4357" d="m 24.060085,3.057257 c -3.645939,0 -6.613905,2.961383 -6.613905,6.613905 0,3.651581 2.967966,6.58451 6.613905,6.58451 3.649699,0 6.613904,-2.931988 6.613904,-6.58451 0,-3.652522 -2.965147,-6.613905 -6.613904,-6.613905 z m 26.426224,11.611078 c -0.125955,0.03198 -0.241068,0.105192 -0.323346,0.205766 l -3.145279,3.409835 -0.705484,0.352742 c -0.230247,0.02107 -0.457881,0.07055 -0.676088,0.146976 l -0.205766,0 -0.293951,-0.352742 0.05879,-1.557942 c 0.0022,-0.02935 0.0022,-0.05888 0,-0.08814 l -0.08819,-1.381618 c -0.0077,-0.323215 -0.323475,-0.595597 -0.646693,-0.587902 -0.323216,0.0075 -0.595598,0.294083 -0.587903,0.617297 l 0,1.410967 -0.323346,1.469756 c -0.01085,0.0191 -0.02066,0.03866 -0.0294,0.05879 l -0.176371,1.763708 -0.323347,0.852458 -3.850762,3.850763 -4.673826,-4.644431 c -0.0089,-0.01082 -0.02039,-0.01863 -0.0294,-0.02935 -0.262325,-0.314166 -0.537022,-0.621173 -0.852459,-0.881854 -0.01674,-0.01383 -0.04191,-0.0158 -0.05879,-0.02935 -1.134437,-0.918934 -2.572999,-1.469757 -4.144714,-1.469757 l -0.411532,0 -8.730355,0 -1.352176,0 -0.235161,0 c -3.645939,0 -6.613905,2.961383 -6.613905,6.613905 0,1.840973 0.754705,3.504097 1.969474,4.703221 0.140925,0.139112 0.28806,0.28542 0.440927,0.411532 l 5.761446,5.790841 c 0.348167,0.34833 0.788314,0.607262 1.263991,0.734879 l 9.876765,2.645562 0.323346,0.470322 0.293951,3.527416 c 0.124074,0.558018 1.136029,0.508653 1.205201,-0.05879 l -0.0294,-3.233465 0.323346,-0.05879 2.351611,3.468625 c 0.177012,0.269316 0.583127,0.353363 0.852459,0.176371 0.269332,-0.176991 0.353335,-0.583115 0.176371,-0.852459 l -2.05766,-3.292255 0.235161,-0.11758 3.26286,2.939513 c 0.238565,0.223168 0.658682,0.209199 0.881854,-0.02935 0.22317,-0.238566 0.209161,-0.658686 -0.0294,-0.881854 l -0.0294,0 -3.233465,-3.027699 0.117581,-0.235161 3.703786,1.763708 c 0.427572,0.209096 0.996278,-0.281158 0.852459,-0.734878 -0.04101,-0.160004 -0.149819,-0.301458 -0.293951,-0.382137 L 36.170849,35.979939 35.435971,35.127481 35.2596,34.568973 35.524156,34.186836 37.082099,33.86349 c 0.0201,-0.0085 0.03974,-0.01853 0.05879,-0.02935 l 1.322781,-0.440927 c 0.307852,-0.09237 0.503886,-0.456429 0.411532,-0.764274 -0.09235,-0.307844 -0.456438,-0.503912 -0.764274,-0.411532 l -1.381541,0.352752 -1.469757,0.05879 c -0.02935,-0.0019 -0.05884,-0.0019 -0.08818,0 l -1.734313,0.293952 -2.880723,-0.323347 -6.849066,-1.822686 -4.820802,-4.820802 1.322781,0 3.968343,3.968343 6.466929,1.734313 1.587338,0.176371 0,-5.937817 4.938382,4.908987 c 1.043206,1.031351 2.925136,1.031351 3.968343,0 l 7.201807,-7.172413 0.587903,-0.205765 3.468626,0.617297 c 0.568312,0.0253 0.788936,-0.955252 0.264556,-1.175805 l -3.115884,-0.793669 0,-0.352741 3.968343,-1.352176 c 0.307874,-0.1 0.482191,-0.45641 0.382137,-0.764274 -0.100052,-0.307854 -0.456435,-0.511635 -0.764274,-0.411532 l -3.703787,1.146411 -0.05879,-0.264557 3.674392,-2.410401 C 53.50227,17.293419 52.93214,16.386393 52.396993,16.637809 l -0.0294,0 -3.733182,2.35161 -0.235161,-0.17637 2.674957,-3.14528 c 0.290441,-0.355497 -0.01128,-0.99664 -0.470322,-0.999434 -0.01958,-9.41e-4 -0.03921,-9.41e-4 -0.05879,0 -0.01958,-9.41e-4 -0.03921,-9.41e-4 -0.05879,0 z m -34.803837,17.401919 0,11.905029 c 0,0.424766 0.07258,0.842177 0.235161,1.234595 0.162581,0.392418 0.405136,0.757877 0.705483,1.058225 0.28471,0.284705 0.630205,0.514128 0.999434,0.676088 l 0,32.158276 c -0.115438,1.963886 1.648326,3.850762 3.615602,3.850762 1.967275,0 3.731041,-1.886876 3.615601,-3.850762 l 0,-31.89372 0.940644,0 0,31.864325 0,0.02935 c 0.0075,0.599905 -0.100292,1.177282 -0.323346,1.734312 -0.01609,0.04007 -0.04158,0.07798 -0.05879,0.117581 0.792354,1.377178 2.553521,2.124661 4.085923,1.704918 1.532401,-0.419753 2.695,-1.968082 2.674957,-3.556811 l 0,-34.421701 c 0.04562,-0.182034 0.04841,-0.372053 0.05879,-0.558508 -0.01833,-0.0047 -0.04058,0.0047 -0.05879,0 -0.101804,-0.02775 -0.197425,-0.06998 -0.293951,-0.11758 -0.0073,-0.0038 -0.02208,0.0038 -0.0294,0 -0.104145,-0.05371 -0.203927,-0.127345 -0.293952,-0.205766 -0.08344,-0.07271 -0.140811,-0.147296 -0.205765,-0.235161 -0.06125,-0.08005 -0.102291,-0.145029 -0.146976,-0.235161 -0.04862,-0.09806 -0.08966,-0.187527 -0.117581,-0.293952 -0.02724,-0.09732 -0.04988,-0.192343 -0.05879,-0.293951 l -0.146971,-1.910639 -0.11758,-1.352176 -9.494628,-2.557376 c -0.637549,-0.171047 -1.238208,-0.503254 -1.704918,-0.97004 l -3.880157,-3.880157 z" style="font-size:medium;font-style:normal;font-variant:normal;font-weight:normal;font-stretch:normal;text-indent:0;text-align:start;text-decoration:none;line-height:normal;letter-spacing:normal;word-spacing:normal;text-transform:none;direction:ltr;block-progression:tb;writing-mode:lr-tb;text-anchor:start;baseline-shift:baseline;color:#000000;fill:#000000;fill-opacity:1;fill-rule:nonzero;stroke:none;stroke-width:69.67701721;marker:none;visibility:visible;display:inline;overflow:visible;enable-background:accumulate;font-family:Sans;-inkscape-font-specification:Sans" inkscape:connector-curvature="0"/>
    <path sodipodi:nodetypes="sssssccccccccccccccccccccccccccccccccccscccccccsccccccccccsscccsccccccccccccccccccccccccccccccccccccccccccccc" style="font-size:medium;font-style:normal;font-variant:normal;font-weight:normal;font-stretch:normal;text-indent:0;text-align:start;text-decoration:none;line-height:normal;letter-spacing:normal;word-spacing:normal;text-transform:none;direction:ltr;block-progression:tb;writing-mode:lr-tb;text-anchor:start;baseline-shift:baseline;color:#000000;fill:#000000;fill-opacity:1;fill-rule:nonzero;stroke:none;stroke-width:69.67701721;marker:none;visibility:visible;display:inline;overflow:visible;enable-background:accumulate;font-family:Sans;-inkscape-font-specification:Sans" d="m 75.93314,17.067743 c -3.64875,0 -6.625,2.94123 -6.625,6.59375 0,3.65252 2.97531,6.59375 6.625,6.59375 3.64594,0 6.625,-2.94217 6.625,-6.59375 0,-3.65252 -2.97906,-6.59375 -6.625,-6.59375 z m -9.11072,29.6875 -1.25,0.15625 -1.75,-0.3125 c -0.0294,-0.002 -0.0644,-0.002 -0.0937,0 l -1.46875,-0.0625 -1.375,-0.34375 c -0.30784,-0.0924 -0.65764,0.0984 -0.75,0.40625 -0.0924,0.30784 0.0984,0.68893 0.40625,0.78125 l 1.3125,0.4375 c 0.019,0.0108 0.0424,0.0228 0.0625,0.0312 l 1.5625,0.3125 0.25,0.375 -0.15625,0.5625 -0.75,0.875 -4.09375,2.125 c -0.14414,0.0807 -0.27148,0.215 -0.3125,0.375 -0.14381,0.45372 0.41618,0.9591 0.84375,0.75 l 3.71875,-1.75 0.125,0.21875 -3.25,3.03125 -0.0312,0 c -0.23856,0.22318 -0.25452,0.63643 -0.0312,0.875 0.22317,0.23857 0.66768,0.25456 0.90625,0.0312 l 3.25,-2.9375 0.25,0.125 -2.0625,3.28125 c -0.17696,0.26934 -0.11312,0.66676 0.15625,0.84375 0.26933,0.17699 0.69799,0.11306 0.875,-0.15625 l 2.34375,-3.46865 0.3125,0.0625 -0.0312,3.21875 c 0.0557,0.45672 0.7086,0.57359 1.03125,0.3125 m 0.98572,1.53125 0,34.65625 c -0.11544,1.96389 1.65773,3.84375 3.625,3.84375 1.96729,0 3.74045,-1.87986 3.625,-3.84375 l 0,-31.90625 0.9375,0 0,31.875 0,0.0312 c 0.008,0.5999 -0.1207,1.16172 -0.34375,1.71875 -0.0161,0.0401 -0.0453,0.0854 -0.0625,0.125 0.79235,1.37718 2.56136,2.13849 4.09375,1.71875 1.5324,-0.41975 2.70754,-1.97377 2.6875,-3.5625 l 0,-32.15625 c 0.36923,-0.16196 0.71529,-0.4028 1,-0.6875 0.30035,-0.30035 0.52492,-0.63883 0.6875,-1.03125 0.10139,-0.24477 0.15189,-0.52131 0.1875,-0.78125 0.0208,-0.14935 0.058,-0.31471 0.0625,-0.46875 -0.002,-0.009 0.002,-0.0221 0,-0.0312 l 0,-13.25 1.1875,-1.1875 c 0.15287,-0.1261 0.32784,-0.29839 0.46875,-0.4375 1.21477,-1.19912 1.96875,-2.84653 1.96875,-4.6875 0,-3.65252 -2.97907,-6.625 -6.625,-6.625 l -0.25,0 -1.34375,0 -8.71875,0 -0.40625,0 c -1.5717,0 -3.02182,0.54982 -4.15625,1.46875 -0.0169,0.0136 -0.0457,0.0174 -0.0625,0.0312 -0.31543,0.26068 -0.58142,0.56083 -0.84375,0.875 -0.009,0.0108 -0.0225,0.0204 -0.0312,0.0312 l -4.6875,4.65625 -3.84374,-3.84375 -0.3125,-0.84375 -0.1875,-1.78125 c -0.009,-0.0201 -0.0204,-0.0434 -0.0312,-0.0625 l -0.3125,-1.46875 0,-1.40625 c 0.008,-0.32322 -0.27054,-0.61729 -0.59375,-0.625 -0.32323,-0.007 -0.64854,0.27054 -0.65625,0.59375 l -0.0937,1.375 c -0.002,0.0293 -0.002,0.0644 0,0.0937 l 0.0625,1.5625 -0.28125,0.34375 -0.21875,0 c -0.21826,-0.0765 -0.42602,-0.10395 -0.65625,-0.125 l -0.71875,-0.375 -3.125,-3.40625 c -0.0823,-0.10057 -0.2178,-0.15556 -0.34375,-0.1875 -0.0196,-9.4e-4 -0.0429,-9.4e-4 -0.0625,0 -0.0196,-9.4e-4 -0.0429,-9.4e-4 -0.0625,0 l 0,1.5e-4 c -0.45904,0.003 -0.7592,0.6445 -0.46875,1 l 2.6875,3.125 -0.25,0.1875 -3.71875,-2.34375 -0.0312,0 c -0.53515,-0.25141 -1.11483,0.65803 -0.65625,1.03125 l 3.6875,2.40625 -0.0625,0.25 -3.6875,-1.15625 c -0.30784,-0.1001 -0.68121,0.12965 -0.78125,0.4375 -0.10006,0.30785 0.0672,0.65 0.375,0.75 l 3.96875,1.34375 0,0.375 -3.09375,0.78125 c -0.52438,0.22055 -0.31832,1.2128 0.25,1.1875 l 3.46875,-0.625 0.59375,0.1875 7.1875,7.1875 c 1.04321,1.03135 2.92553,1.03135 3.96874,0 l 4.9375,-4.90625" id="path4444" inkscape:connector-curvature="0"/>
  </g>
</svg>