<svg xmlns:dc="http://purl.org/dc/elements/1.1/" xmlns:cc="http://creativecommons.org/ns#" xmlns:rdf="http://www.w3.org/1999/02/22-rdf-syntax-ns#" xmlns:svg="http://www.w3.org/2000/svg" xmlns="http://www.w3.org/2000/svg" xmlns:sodipodi="http://sodipodi.sourceforge.net/DTD/sodipodi-0.dtd" xmlns:inkscape="http://www.inkscape.org/namespaces/inkscape" version="1.1" width="100" height="100" id="svg2" inkscape:version="0.48.2 r9819" sodipodi:docname="gebaerdensprache mannfrau.svg">
  <sodipodi:namedview pagecolor="#ffffff" bordercolor="#666666" borderopacity="1" objecttolerance="10" gridtolerance="10" guidetolerance="10" inkscape:pageopacity="0" inkscape:pageshadow="2" inkscape:window-width="640" inkscape:window-height="480" id="namedview13" showgrid="false" inkscape:zoom="2.36" inkscape:cx="50" inkscape:cy="50" inkscape:window-x="0" inkscape:window-y="0" inkscape:window-maximized="0" inkscape:current-layer="svg2"/>
  <metadata id="metadata8">
    <rdf:RDF>
      <cc:Work rdf:about="">
        <dc:format>image/svg+xml</dc:format>
        <dc:type rdf:resource="http://purl.org/dc/dcmitype/StillImage"/>
        <dc:title/>
      </cc:Work>
    </rdf:RDF>
  </metadata>
  <defs id="defs6">
    <inkscape:path-effect effect="skeletal" id="path-effect4474"/>
    <inkscape:path-effect effect="skeletal" id="path-effect4416"/>
  </defs>
  <g transform="translate(-1.017802,-100)" id="g4483">
    <path d="m 75.9375,117.0625 c -3.64875,0 -6.625,2.94123 -6.625,6.59375 0,3.65252 2.97531,6.59375 6.625,6.59375 3.64594,0 6.625,-2.94217 6.625,-6.59375 0,-3.65252 -2.97906,-6.59375 -6.625,-6.59375 z M 49.375,128.65625 c -0.45904,0.003 -0.75919,0.6445 -0.46875,1 l 2.6875,3.125 -0.25,0.1875 -3.71875,-2.34375 -0.03125,0 c -0.53515,-0.25141 -1.11483,0.65803 -0.65625,1.03125 l 3.6875,2.40625 -0.0625,0.25 -3.6875,-1.15625 c -0.30784,-0.1001 -0.6812,0.12965 -0.78125,0.4375 -0.10006,0.30785 0.0672,0.65 0.375,0.75 l 3.96875,1.34375 0,0.375 -3.09375,0.78125 c -0.52438,0.22055 -0.31832,1.2128 0.25,1.1875 l 3.46875,-0.625 0.59375,0.1875 7.1875,7.1875 c 1.04321,1.03135 2.92554,1.03135 3.96875,0 L 67.75,139.875 67.8125,157.59375 61.875,174.5 l 28.09375,0 -5.6875,-16.25 c 0.01559,-0.0944 0.02856,-0.1891 0.03125,-0.28125 -0.0014,-0.006 -3.63e-4,-8.14503 0,-14.03125 L 84.75,143.5 c 0.15287,-0.1261 0.32784,-0.29839 0.46875,-0.4375 1.21477,-1.19912 1.96875,-2.84653 1.96875,-4.6875 0,-3.65252 -2.97907,-6.625 -6.625,-6.625 l -9.5625,0 -0.40625,0 c -1.5717,0 -3.02182,0.54982 -4.15625,1.46875 -0.0169,0.0136 -0.0457,0.0174 -0.0625,0.0312 -0.31543,0.26068 -0.58142,0.56083 -0.84375,0.875 -0.009,0.0108 -0.02255,0.0205 -0.03125,0.0312 l -4.6875,4.65625 -3.84375,-3.84375 -0.3125,-0.84375 -0.1875,-1.78125 c -0.009,-0.0201 -0.02045,-0.0434 -0.03125,-0.0625 l -0.3125,-1.46875 0,-1.40625 c 0.008,-0.32322 -0.27054,-0.61729 -0.59375,-0.625 -0.32322,-0.007 -0.64854,0.27054 -0.65625,0.59375 l -0.09375,1.375 c -0.002,0.0293 -0.002,0.0644 0,0.0937 l 0.0625,1.5625 -0.28125,0.34375 -0.21875,0 c -0.21826,-0.0765 -0.42601,-0.10395 -0.65625,-0.125 l -0.71875,-0.375 -3.125,-3.40625 c -0.0823,-0.10057 -0.2178,-0.15556 -0.34375,-0.1875 -0.0196,-9.4e-4 -0.0429,-9.4e-4 -0.0625,0 -0.0196,-9.4e-4 -0.0429,-9.4e-4 -0.0625,0 z m 11.28125,17.53125 c -0.232581,0.0291 -0.46198,0.17536 -0.53125,0.40625 -0.0924,0.30784 0.0984,0.68893 0.40625,0.78125 l 1.3125,0.4375 c 0.019,0.0108 0.0424,0.0229 0.0625,0.0312 l 1.5625,0.3125 0.25,0.375 -0.15625,0.5625 -0.75,0.875 -4.09375,2.125 c -0.14414,0.0807 -0.27148,0.215 -0.3125,0.375 -0.14381,0.45372 0.41618,0.9591 0.84375,0.75 l 3.71875,-1.75 0.125,0.21875 -3.25,3.03125 -0.03125,0 c -0.23856,0.22318 -0.25452,0.63643 -0.03125,0.875 0.223166,0.23857 0.66768,0.25461 0.90625,0.0312 l 3.25,-2.9375 0.25,0.125 -2.0625,3.28125 c -0.17696,0.26934 -0.11312,0.66676 0.15625,0.84375 0.26933,0.17699 0.69799,0.11306 0.875,-0.15625 L 65.5,153.3125 l 0.3125,0.0625 -0.03125,3.21875 c 0.0557,0.45672 0.7086,0.57359 1.03125,0.3125 l 0,-10.15625 -1.25,0.15625 -1.75,-0.3125 c -0.0294,-0.002 -0.06445,-0.002 -0.09375,0 L 62.25,146.53125 60.875,146.1875 c -0.07696,-0.0231 -0.141223,-0.01 -0.21875,0 z m 7.15625,29.0625 0,17.84375 c -0.11544,1.96389 1.65773,3.84375 3.625,3.84375 1.96729,0 3.74045,-1.87986 3.625,-3.84375 l 0,-17.84375 -7.25,0 z m 8.1875,0 0,17.8125 0,0.0312 c 0.008,0.5999 -0.1207,1.16172 -0.34375,1.71875 -0.0161,0.0401 -0.0453,0.0854 -0.0625,0.125 0.79235,1.37718 2.56136,2.13849 4.09375,1.71875 1.5324,-0.41975 2.70754,-1.97377 2.6875,-3.5625 l 0,-17.84375 -6.375,0 z" id="path4465" style="font-size:medium;font-style:normal;font-variant:normal;font-weight:normal;font-stretch:normal;text-indent:0;text-align:start;text-decoration:none;line-height:normal;letter-spacing:normal;word-spacing:normal;text-transform:none;direction:ltr;block-progression:tb;writing-mode:lr-tb;text-anchor:start;baseline-shift:baseline;color:#000000;fill:#000000;fill-opacity:1;fill-rule:nonzero;stroke:none;stroke-width:69.67701721;marker:none;visibility:visible;display:inline;overflow:visible;enable-background:accumulate;font-family:Sans;-inkscape-font-specification:Sans" inkscape:connector-curvature="0"/>
    <path d="m 24.060085,103.05726 c -3.645939,0 -6.613905,2.96138 -6.613905,6.6139 0,3.65158 2.967966,6.58451 6.613905,6.58451 3.649699,0 6.613904,-2.93199 6.613904,-6.58451 0,-3.65252 -2.965147,-6.6139 -6.613904,-6.6139 z m 26.426224,11.61108 c -0.125955,0.032 -0.241068,0.10519 -0.323346,0.20576 l -3.145279,3.40984 -0.705484,0.35274 c -0.230247,0.0211 -0.457881,0.0705 -0.676088,0.14697 l -0.205766,0 -0.293951,-0.35274 0.05879,-1.55794 c 0.0022,-0.0293 0.0022,-0.0589 0,-0.0881 l -0.08819,-1.38162 c -0.0077,-0.32321 -0.323475,-0.59559 -0.646693,-0.5879 -0.323216,0.008 -0.595598,0.29408 -0.587903,0.6173 l 0,1.41096 -0.323346,1.46976 c -0.01085,0.0191 -0.02066,0.0387 -0.0294,0.0588 l -0.176371,1.76371 -0.323347,0.85246 -3.850762,3.85076 -4.673826,-4.64443 c -0.0089,-0.0108 -0.02039,-0.0186 -0.0294,-0.0293 -0.262325,-0.31417 -0.537022,-0.62117 -0.852459,-0.88186 -0.01674,-0.0138 -0.04191,-0.0158 -0.05879,-0.0294 -1.134437,-0.91893 -2.572999,-1.46975 -4.144714,-1.46975 l -0.411532,0 -8.730355,0 -1.352176,0 -0.235161,0 c -3.645939,0 -6.613905,2.96138 -6.613905,6.6139 0,1.84098 0.754705,3.5041 1.969474,4.70322 0.140925,0.13911 0.28806,0.28542 0.440927,0.41153 l 5.761446,5.79085 c 0.348167,0.34833 0.788314,0.60726 1.263991,0.73488 l 9.876765,2.64556 0.323346,0.47032 0.293951,3.52741 c 0.124074,0.55802 1.136029,0.50866 1.205201,-0.0588 l -0.0294,-3.23346 0.323346,-0.0588 2.351611,3.46862 c 0.177012,0.26932 0.583127,0.35337 0.852459,0.17638 0.269332,-0.177 0.353335,-0.58312 0.176371,-0.85246 l -2.05766,-3.29226 0.235161,-0.11758 3.26286,2.93951 c 0.238565,0.22317 0.658682,0.2092 0.881854,-0.0293 0.22317,-0.23857 0.209161,-0.65869 -0.0294,-0.88186 l -0.0294,0 -3.233465,-3.0277 0.117581,-0.23516 3.703786,1.76371 c 0.427572,0.20909 0.996278,-0.28116 0.852459,-0.73488 -0.04101,-0.16 -0.149819,-0.30146 -0.293951,-0.38214 l -4.115319,-2.14587 -0.734878,-0.85246 -0.176371,-0.55851 0.264556,-0.38213 1.557943,-0.32335 c 0.0201,-0.008 0.03974,-0.0185 0.05879,-0.0293 l 1.322781,-0.44093 c 0.307852,-0.0924 0.503886,-0.45643 0.411532,-0.76427 -0.09235,-0.30784 -0.456438,-0.50391 -0.764274,-0.41153 l -1.381541,0.35275 -1.469757,0.0588 c -0.02935,-0.002 -0.05884,-0.002 -0.08818,0 l -1.734313,0.29395 -2.880723,-0.32335 -6.849066,-1.82268 -4.820802,-4.8208 1.322781,0 3.968343,3.96834 6.466929,1.73431 1.587338,0.17637 0,-5.93781 4.938382,4.90898 c 1.043206,1.03135 2.925136,1.03135 3.968343,0 l 7.201807,-7.17241 0.587903,-0.20576 3.468626,0.61729 c 0.568312,0.0253 0.788936,-0.95525 0.264556,-1.1758 l -3.115884,-0.79367 0,-0.35274 3.968343,-1.35218 c 0.307874,-0.1 0.482191,-0.45641 0.382137,-0.76427 -0.100052,-0.30786 -0.456435,-0.51164 -0.764274,-0.41154 l -3.703787,1.14642 -0.05879,-0.26456 3.674392,-2.4104 c 0.458579,-0.37332 -0.111551,-1.28035 -0.646698,-1.02893 l -0.0294,0 -3.733182,2.35161 -0.235161,-0.17637 2.674957,-3.14528 c 0.290441,-0.3555 -0.01128,-0.99664 -0.470322,-0.99943 -0.01958,-9.5e-4 -0.03921,-9.5e-4 -0.05879,0 -0.01958,-9.5e-4 -0.03921,-9.5e-4 -0.05879,0 z m -34.803837,17.40191 0,11.90503 c 0,0.42477 0.07258,0.84218 0.235161,1.2346 0.162581,0.39242 0.405136,0.75787 0.705483,1.05822 0.28471,0.28471 0.630205,0.51413 0.999434,0.67609 l 0,32.15828 c -0.115438,1.96388 1.648326,3.85076 3.615602,3.85076 1.967275,0 3.731041,-1.88688 3.615601,-3.85076 l 0,-31.89372 0.940644,0 0,31.86432 0,0.0293 c 0.0075,0.59991 -0.100292,1.17728 -0.323346,1.73431 -0.01609,0.0401 -0.04158,0.078 -0.05879,0.11758 0.792354,1.37718 2.553521,2.12467 4.085923,1.70492 1.532401,-0.41975 2.695,-1.96808 2.674957,-3.55681 l 0,-34.4217 c 0.04562,-0.18203 0.04841,-0.37205 0.05879,-0.55851 -0.01833,-0.005 -0.04058,0.005 -0.05879,0 -0.101804,-0.0277 -0.197425,-0.07 -0.293951,-0.11758 -0.0073,-0.004 -0.02208,0.004 -0.0294,0 -0.104145,-0.0537 -0.203927,-0.12734 -0.293952,-0.20576 -0.08344,-0.0727 -0.140811,-0.1473 -0.205765,-0.23516 -0.06125,-0.08 -0.102291,-0.14503 -0.146976,-0.23517 -0.04862,-0.0981 -0.08966,-0.18752 -0.117581,-0.29395 -0.02724,-0.0973 -0.04988,-0.19234 -0.05879,-0.29395 l -0.146971,-1.91064 -0.11758,-1.35217 -9.494628,-2.55738 c -0.637549,-0.17105 -1.238208,-0.50325 -1.704918,-0.97004 l -3.880157,-3.88016 z" id="path4477" style="font-size:medium;font-style:normal;font-variant:normal;font-weight:normal;font-stretch:normal;text-indent:0;text-align:start;text-decoration:none;line-height:normal;letter-spacing:normal;word-spacing:normal;text-transform:none;direction:ltr;block-progression:tb;writing-mode:lr-tb;text-anchor:start;baseline-shift:baseline;color:#000000;fill:#000000;fill-opacity:1;fill-rule:nonzero;stroke:none;stroke-width:69.67701721;marker:none;visibility:visible;display:inline;overflow:visible;enable-background:accumulate;font-family:Sans;-inkscape-font-specification:Sans" inkscape:connector-curvature="0"/>
  </g>
</svg>