<svg xmlns="http://www.w3.org/2000/svg" xmlns:xlink="http://www.w3.org/1999/xlink" version="1.1" id="Layer_1" x="0px" y="0px" width="100px" height="100px" viewBox="0 0 100 100" enable-background="new 0 0 100 100" xml:space="preserve">
<g>
	<path fill-rule="evenodd" clip-rule="evenodd" d="M88.413,94.104c0,0.004,0.2-0.008,0.205,0   C89.271,95.193,88.527,93.42,88.413,94.104z"/>
	<path fill-rule="evenodd" clip-rule="evenodd" d="M86.779,32.806c-2.784-0.022-3.965,1.778-6.13,1.431   c-0.652-8.099,0.076-16.087-0.409-23.498c-0.112-1.71,0.24-4.079-1.021-4.699c-0.935,0.154,0.025,2.205-0.612,2.655   c-15.067,7.499-43.569,7.446-58.642,0c-0.174-0.846,0.47-2.513-0.613-2.452c-0.762,0.627-0.367,1.705-0.409,2.452   c-0.462,8.323,0.251,17-0.613,25.746c-1.011,0.203-1.826-0.773-2.86-1.021c-6.145-1.477-10.741,3.377-11.034,8.172   c3.39-0.288,5.028-2.327,8.377-2.655c-0.341,17.965-0.969,38.131,0.204,56.19c0.592,0.164,2.404,0.562,2.656-0.205   c0.194-0.67,1.957,0.029,1.635-0.818c-0.356-0.014-0.636,0.045-0.817,0.205c-0.084-0.256-0.264-0.418-0.613-0.408   c0.214-7.211,0.521-14.326,0.409-21.863c0.89,0.131,2.31-0.266,2.86,0.205c0.572,2.969-0.16,7.242,0.409,10.215   c1.663,0.5,2.759-0.406,4.086-0.816c-0.823,0.006-1.576-0.059-1.839-0.613c0.246-2.113-0.302-6.09,0.204-7.764   c7.966-1.834,18.047-1.227,28.402-1.227c9.893,0,19.904-0.547,27.175,1.021c0,2.996,0,5.994,0,8.99   c0.808,0.219,1.562,0.312,2.248,0.205c0.392-0.062,0.07-0.365,0.612-0.613c0.103-0.047,1.188,0.432,0.817-0.205   c-0.542-0.002-1.203,0.113-1.226-0.408c-0.157-3.223,0.272-5.857,0.204-8.99c1.039-0.107,2.717-0.475,3.678,0   c-0.122,7.887,0.194,15.334,0.612,22.68c1.072,0.398,3.288,0.336,3.883-0.408c-0.202-0.479-1.101-0.262-0.817-1.225   c0.538-17.834-0.015-37.08-0.204-54.147c3.033,0.312,4.939,2.813,8.174,2.247C94.687,36.591,91.779,32.847,86.779,32.806z"/>
</g>
</svg>