<svg xmlns:x="http://ns.adobe.com/Extensibility/1.0/" xmlns:i="http://ns.adobe.com/AdobeIllustrator/10.0/" xmlns:graph="http://ns.adobe.com/Graphs/1.0/" xmlns="http://www.w3.org/2000/svg" xmlns:xlink="http://www.w3.org/1999/xlink" xmlns:a="http://ns.adobe.com/AdobeSVGViewerExtensions/3.0/" version="1.0" id="Layer_1" x="0px" y="0px" width="100px" height="100px" viewBox="0 0 100 100" enable-background="new 0 0 100 100" xml:space="preserve">
<g>
	<path d="M1.682,42.914c0-23.715,21.467-42.939,47.948-42.939c26.483,0,47.949,19.224,47.949,42.939   c0,17.298-11.422,32.207-27.884,39.009C67.764,88.198,57.017,97.055,53.149,100h-3.282h-3.33c0,0-4.169-3.177-8.147-6.974   c-3.384-3.234-7.174-7.376-8.339-10.906C13.331,75.413,1.682,60.383,1.682,42.914L1.682,42.914z M39.105,58.576   c-0.806-1.001-1.677-1.584-2.535-1.893c-1.848,0.418-3.616,0.675-5.274,0.778c-0.887,0.056-1.724,0.065-2.526,0.035   c0.117,2.655,0.251,5.658,0.354,7.867c-0.985-4.213-2.96-7.375-4.46-7.104c-1.528,0.276-1.984,4.014-1.019,8.347   c0.965,4.331,2.986,7.618,4.515,7.344c0.75-0.135,1.242-1.104,1.434-2.567c0.316,2.474,0.791,5.646,1.196,9.188   c0.762,6.67,16.107,18.356,16.107,18.356h2.969h2.921c0,0,15.345-11.687,16.107-18.356c0.404-3.542,0.88-6.715,1.196-9.188   c0.19,1.463,0.684,2.433,1.434,2.567c1.527,0.274,3.549-3.013,4.515-7.344c0.966-4.333,0.51-8.07-1.019-8.347   c-1.5-0.271-3.476,2.892-4.46,7.104c-0.337-4.454-0.215-7.691,0.061-9.994l-0.208-0.07c-4.944-1.699-9.33-5.746-12.072-10.605   c-4.185,4.351-10.392,8.333-17.321,10.716c-0.84,0.289-1.669,0.546-2.486,0.774C48.607,61.696,46.676,67.972,39.105,58.576   L39.105,58.576z M61.354,65.814c0-0.402-0.325-0.725-0.725-0.725s-0.726,0.322-0.726,0.725c0,0.397,0.326,0.723,0.726,0.723   S61.354,66.212,61.354,65.814L61.354,65.814z M62.312,68.806c1.571-1.025,2.243-2.945,2.83-4.22   c-1.644-0.148-2.719-0.276-4.03-0.141c0.606,0.426,1.002,1.128,1.002,1.924c0,1.296-1.05,2.345-2.344,2.345   c-1.296,0-2.346-1.049-2.346-2.345c0-0.354,0.079-0.69,0.218-0.99c-1.39,0.704-2.775,1.847-3.372,2.921   c0.95-2.604,1.729-4.165,4.979-5.306c3.736-1.313,5.218,0.195,8.597-1.471C67.847,61.523,66.018,67.46,62.312,68.806L62.312,68.806   z M39.828,65.814c0,0.397,0.324,0.723,0.724,0.723c0.4,0,0.724-0.325,0.724-0.723c0-0.402-0.324-0.725-0.724-0.725   C40.152,65.09,39.828,65.412,39.828,65.814L39.828,65.814z M36.973,68.806c-3.705-1.346-5.534-7.282-5.534-7.282   c3.377,1.666,4.859,0.157,8.597,1.471c3.248,1.141,4.028,2.701,4.978,5.306c-0.596-1.074-1.982-2.217-3.372-2.921   c0.14,0.3,0.218,0.637,0.218,0.99c0,1.296-1.05,2.345-2.345,2.345c-1.295,0-2.345-1.049-2.345-2.345   c0-0.796,0.396-1.498,1.003-1.924c-1.311-0.136-2.387-0.008-4.031,0.141C34.729,65.86,35.401,67.78,36.973,68.806L36.973,68.806z    M60.18,58.576c-7.643,9.483-9.536,3.001,0.857-2.546c4.433-2.364,6.986,1.455,6.986,1.455S63.541,54.402,60.18,58.576   L60.18,58.576z M52.104,90.21c0.066,0.174,0.268,0.259,0.447,0.191l0.237-0.092c0.18-0.067,0.271-0.265,0.202-0.439   c-0.069-0.174-0.27-0.259-0.449-0.191l-0.238,0.092C52.124,89.838,52.033,90.035,52.104,90.21L52.104,90.21z M53.121,89.78   c0.049,0.161,0.221,0.251,0.382,0.201c0.162-0.048,0.252-0.217,0.202-0.378c-0.05-0.159-0.222-0.251-0.383-0.201   S53.07,89.621,53.121,89.78L53.121,89.78z M49.474,87.939h0.238c1.789,0,3.479-1.039,2.095-1.039h-2.213h-2.211   C45.996,86.9,47.687,87.939,49.474,87.939L49.474,87.939z M49.681,85.161c0.55-0.894,2.243-1.652,5.95-0.51   c1.667,0.512,2.857-0.123,2.822-0.085c-0.421,0.364-2.39,1.839-2.39,1.839l-0.013,0.501c0,2.42-2.827,4.381-6.37,4.395   c-3.543-0.014-6.408-1.975-6.408-4.395l-0.013-0.501c0,0-1.967-1.475-2.39-1.839c-0.035-0.038,1.156,0.597,2.823,0.085   C47.4,83.509,49.131,84.268,49.681,85.161L49.681,85.161z"/>
</g>
</svg>