<svg xmlns:x="http://ns.adobe.com/Extensibility/1.0/" xmlns:i="http://ns.adobe.com/AdobeIllustrator/10.0/" xmlns:graph="http://ns.adobe.com/Graphs/1.0/" xmlns="http://www.w3.org/2000/svg" xmlns:xlink="http://www.w3.org/1999/xlink" xmlns:a="http://ns.adobe.com/AdobeSVGViewerExtensions/3.0/" version="1.0" id="Layer_1" x="0px" y="0px" width="100px" height="100px" viewBox="0 0 100 100" enable-background="new 0 0 100 100" xml:space="preserve">
<path fill="none" d="M50.387,59.037c-1.887,0-3.415,1.236-3.415,2.766v4.65c0,1.529,1.528,2.764,3.415,2.764  c1.886,0,3.415-1.234,3.415-2.764v-4.65C53.802,60.273,52.275,59.037,50.387,59.037z"/>
<path fill="none" d="M53.016,66.453c0,0.951-1.018,1.979-2.627,1.979c-1.611,0-2.629-1.027-2.629-1.979v-4.65  c0-0.953,1.018-1.979,2.629-1.979c1.611,0,2.627,1.025,2.627,1.979V66.453z"/>
<path fill="none" d="M50.387,30.765c-12.295,0-22.245,10.243-22.245,22.856v21.014c0,12.613,9.949,22.855,22.245,22.855  s22.244-10.242,22.244-22.855V53.621C72.631,41.007,62.684,30.765,50.387,30.765z"/>
<path fill="none" d="M71.846,74.635c0,12.199-9.617,22.07-21.458,22.07s-21.458-9.871-21.458-22.07V53.621  c0-12.2,9.617-22.071,21.458-22.071s21.458,9.871,21.458,22.071V74.635z"/>
<path fill="none" d="M50.387,38.689c-9.165,0-16.916,6.918-16.916,15.819v19.24c0,8.9,7.752,15.818,16.916,15.818  c9.165,0,16.916-6.918,16.916-15.818v-19.24C67.303,45.607,59.551,38.689,50.387,38.689z"/>
<path fill="none" d="M66.518,73.748c0,8.408-7.338,15.033-16.129,15.033c-8.792,0-16.13-6.625-16.13-15.033v-19.24  c0-8.409,7.339-15.034,16.13-15.034c8.792,0,16.129,6.625,16.129,15.034V73.748z"/>
<path fill="none" d="M50.386,47.105c-6.332,0-11.095,4.107-11.095,8.79v16.467c0,4.684,4.763,8.789,11.095,8.789  c6.332,0,11.096-4.107,11.096-8.789V55.895C61.482,51.212,56.717,47.105,50.386,47.105z"/>
<path fill="none" d="M60.695,72.361c0,4.104-4.252,8.002-10.309,8.002c-6.056,0-10.309-3.896-10.309-8.002V55.895  c0-4.104,4.253-8.001,10.309-8.001c6.057,0,10.309,3.897,10.309,8.001V72.361z"/>
<g>
	<path fill="none" d="M50.386,47.105c-6.332,0-11.095,4.107-11.095,8.79v16.467c0,4.684,4.763,8.789,11.095,8.789   c6.332,0,11.096-4.107,11.096-8.789V55.895C61.482,51.212,56.717,47.105,50.386,47.105z M60.695,72.361   c0,4.104-4.252,8.002-10.309,8.002c-6.056,0-10.309-3.896-10.309-8.002V55.895c0-4.104,4.253-8.001,10.309-8.001   c6.057,0,10.309,3.897,10.309,8.001V72.361z"/>
	<path fill="none" d="M50.387,59.037c-1.887,0-3.415,1.236-3.415,2.766v4.65c0,1.529,1.528,2.764,3.415,2.764   c1.886,0,3.415-1.234,3.415-2.764v-4.65C53.802,60.273,52.275,59.037,50.387,59.037z M53.016,66.453   c0,0.951-1.018,1.979-2.627,1.979c-1.611,0-2.629-1.027-2.629-1.979v-4.65c0-0.953,1.018-1.979,2.629-1.979   c1.611,0,2.627,1.025,2.627,1.979V66.453z"/>
	<path fill="none" d="M50.387,30.765c-12.295,0-22.245,10.243-22.245,22.856v21.014c0,12.613,9.949,22.855,22.245,22.855   s22.244-10.242,22.244-22.855V53.621C72.631,41.007,62.684,30.765,50.387,30.765z M71.846,74.635   c0,12.199-9.617,22.07-21.458,22.07s-21.458-9.871-21.458-22.07V53.621c0-12.2,9.617-22.071,21.458-22.071   s21.458,9.871,21.458,22.071V74.635z"/>
	<path fill="none" d="M50.387,38.689c-9.165,0-16.916,6.918-16.916,15.819v19.24c0,8.9,7.752,15.818,16.916,15.818   c9.165,0,16.916-6.918,16.916-15.818v-19.24C67.303,45.607,59.551,38.689,50.387,38.689z M66.518,73.748   c0,8.408-7.338,15.033-16.129,15.033c-8.792,0-16.13-6.625-16.13-15.033v-19.24c0-8.409,7.339-15.034,16.13-15.034   c8.792,0,16.129,6.625,16.129,15.034V73.748z"/>
</g>
<g>
	<path fill="#000000" d="M77.966,67.615c1.001-7.793,1.537-20.642,1.537-20.642c-0.302-8.237-5.926-10.619-7.524-11.42   c-1.599-0.801-11.593-3.347-14.463-5.648c-2.873-2.3-0.182-8.976,0.729-15.487c0.91-6.511,0.384-9.273-2.877-11.949   c-1.331-1.092-2.701-1.562-5.082-1.562c-2.382,0-3.753,0.47-5.083,1.562c-3.262,2.677-3.788,5.438-2.877,11.949   c0.91,6.51,3.6,13.187,0.728,15.487c-2.872,2.301-12.866,4.847-14.464,5.648c-1.598,0.8-7.222,3.183-7.525,11.42   c0,0,0.536,12.849,1.537,20.642c0.789,6.143-1.631,14.545-0.809,26.168c0.143,2.023,0.288,3.783,0.431,5.311h28.062h28.061   c0.143-1.527,0.285-3.287,0.432-5.311C79.598,82.16,77.177,73.758,77.966,67.615z M48.389,25.595c0.778,0,1.408,0.631,1.408,1.408   s-0.63,1.408-1.408,1.408s-1.408-0.631-1.408-1.408S47.61,25.595,48.389,25.595z M72.631,74.635   c0,12.613-9.947,22.855-22.244,22.855S28.142,87.248,28.142,74.635V53.621c0-12.613,9.95-22.856,22.245-22.856   c12.296,0,22.244,10.242,22.244,22.856V74.635z"/>
	<path fill="#000000" d="M50.387,31.55c-11.841,0-21.458,9.871-21.458,22.071v21.014c0,12.199,9.617,22.07,21.458,22.07   s21.458-9.871,21.458-22.07V53.621C71.846,41.421,62.229,31.55,50.387,31.55z M60.287,35.308c0.778,0,1.408,0.631,1.408,1.409   s-0.63,1.409-1.408,1.409s-1.408-0.631-1.408-1.409S59.509,35.308,60.287,35.308z M34.879,88.531c-0.778,0-1.408-0.631-1.408-1.408   s0.63-1.408,1.408-1.408s1.408,0.631,1.408,1.408S35.658,88.531,34.879,88.531z M67.303,73.748c0,8.9-7.751,15.818-16.916,15.818   c-9.164,0-16.916-6.918-16.916-15.818v-19.24c0-8.901,7.751-15.819,16.916-15.819c9.164,0,16.916,6.918,16.916,15.819V73.748z"/>
	<path fill="#000000" d="M50.388,59.824c-1.611,0-2.629,1.025-2.629,1.979v4.65c0,0.951,1.018,1.979,2.629,1.979   c1.61,0,2.627-1.027,2.627-1.979v-4.65C53.016,60.85,51.999,59.824,50.388,59.824z M50.44,64.984c-0.778,0-1.408-0.631-1.408-1.408   s0.63-1.408,1.408-1.408s1.407,0.631,1.407,1.408S51.219,64.984,50.44,64.984z"/>
	<path fill="#000000" d="M50.386,54.951c-1.537,0-2.835,0.456-3.822,1.146c0.072,0.169,0.113,0.355,0.113,0.552   c0,0.777-0.63,1.408-1.408,1.408c-0.115,0-0.224-0.018-0.331-0.043c-0.193,0.445-0.317,0.907-0.317,1.376v9.475   c0,2.24,2.339,4.438,5.765,4.438s5.766-2.197,5.766-4.438v-9.475C56.152,57.15,53.812,54.951,50.386,54.951z M53.802,66.453   c0,1.529-1.528,2.764-3.415,2.764c-1.887,0-3.415-1.234-3.415-2.764v-4.65c0-1.529,1.528-2.766,3.415-2.766   c1.888,0,3.415,1.236,3.415,2.766V66.453z"/>
	<path fill="#000000" d="M50.386,47.893c-6.056,0-10.309,3.898-10.309,8.001v16.467c0,4.105,4.253,8.002,10.309,8.002   c2.855,0,5.3-0.872,7.097-2.218c0.063-0.719,0.66-1.284,1.396-1.284c1.157-1.322,1.816-2.894,1.816-4.5V55.895   C60.695,51.79,56.443,47.893,50.386,47.893z M51.639,49.88c0.777,0,1.408,0.631,1.408,1.408s-0.631,1.408-1.408,1.408   c-0.779,0-1.409-0.631-1.409-1.408S50.859,49.88,51.639,49.88z M56.938,68.865c0,2.816-2.849,5.225-6.549,5.225   c-3.702,0-6.551-2.408-6.551-5.225v-9.475c0-0.623,0.146-1.224,0.403-1.785c-0.233-0.252-0.379-0.586-0.379-0.956   c0-0.777,0.63-1.408,1.408-1.408c0.29,0,0.559,0.088,0.782,0.237c1.144-0.811,2.65-1.314,4.337-1.314   c3.701,0,6.549,2.41,6.549,5.227V68.865z"/>
</g>
<path fill="#000000" d="M50.388,39.474c-8.791,0-16.13,6.625-16.13,15.034v19.24c0,8.408,7.338,15.033,16.13,15.033  c8.792,0,16.129-6.625,16.129-15.033v-19.24C66.518,46.099,59.18,39.474,50.388,39.474z M50,41.494c0.777,0,1.408,0.631,1.408,1.408  S50.777,44.311,50,44.311c-0.779,0-1.409-0.631-1.409-1.408S49.221,41.494,50,41.494z M42.73,43.347  c0.778,0,1.409,0.631,1.409,1.408s-0.63,1.408-1.409,1.408s-1.408-0.631-1.408-1.408S41.952,43.347,42.73,43.347z M43.837,83.967  c-0.778,0-1.408-0.631-1.408-1.408s0.63-1.408,1.408-1.408s1.408,0.631,1.408,1.408S44.615,83.967,43.837,83.967z M61.482,72.361  c0,1.726-0.651,3.372-1.786,4.765c0.356,0.256,0.591,0.672,0.591,1.144c0,0.777-0.63,1.408-1.408,1.408  c-0.517,0-0.963-0.281-1.208-0.695c-1.921,1.336-4.442,2.168-7.285,2.168c-6.332,0-11.095-4.105-11.095-8.789V55.895  c0-4.683,4.763-8.79,11.095-8.79c6.331,0,11.096,4.107,11.096,8.79V72.361z"/>
</svg>