<svg xmlns:x="http://ns.adobe.com/Extensibility/1.0/" xmlns:i="http://ns.adobe.com/AdobeIllustrator/10.0/" xmlns:graph="http://ns.adobe.com/Graphs/1.0/" xmlns="http://www.w3.org/2000/svg" xmlns:xlink="http://www.w3.org/1999/xlink" xmlns:a="http://ns.adobe.com/AdobeSVGViewerExtensions/3.0/" version="1.0" id="Layer_1" x="0px" y="0px" width="100px" height="100px" viewBox="0 0 100 100" enable-background="new 0 0 100 100" xml:space="preserve">
<g>
	<path d="M48.165,41.055c0.193,1.644,0.924,2.729,1.645,2.729s1.451-1.085,1.645-2.729H48.165L48.165,41.055z M47.123,45.269   l0.396-0.35c0.391-0.343,0.651-0.968,0.651-1.71c0-0.28-0.014-0.551-0.094-0.793c-0.101-0.317-0.184-0.664-0.243-1.027   c-0.146,0.437-0.396,1.194-0.485,1.55c-0.21,0.825-0.225,2.103-0.225,2.103V45.269L47.123,45.269z M52.497,45.783l-1.552-1.369   h-2.288l-1.535,1.355v3.79h5.375V45.783L52.497,45.783z M51.784,41.383c-0.059,0.369-0.146,0.72-0.259,1.041l-0.01,0.032   c-0.069,0.231-0.081,0.487-0.081,0.752c0,0.742,0.259,1.367,0.65,1.71l0.412,0.364V45.04c0,0-0.016-1.278-0.224-2.103   C52.183,42.58,51.931,41.819,51.784,41.383L51.784,41.383z M51.323,50.055h-3.027v3.409h3.027V50.055L51.323,50.055z    M46.168,25.891c-0.075-0.026-0.145-0.068-0.204-0.128l-0.387-0.386c-0.208-0.208-0.208-0.546,0-0.755l0.34-0.34l-0.34-0.34   c-0.208-0.208-0.208-0.546,0-0.754l0.464-0.464c-0.027-0.02-0.053-0.041-0.078-0.065l-0.387-0.387   c-0.208-0.208-0.208-0.546,0-0.755l0.479-0.479c-0.033-0.021-0.064-0.045-0.092-0.074l-0.387-0.387   c-0.208-0.208-0.208-0.546,0-0.754l0.353-0.353l-0.353-0.352c-0.208-0.208-0.208-0.546,0-0.755l0.494-0.493   c-0.038-0.023-0.074-0.051-0.107-0.083l-0.387-0.387c-0.208-0.208-0.208-0.546,0-0.755l0.591-0.59v-1.423   c0-0.729,0.243-1.401,0.653-1.939c0.372-4.449,1.601-7.717,3.058-7.717h0.107c1.458,0,2.687,3.268,3.059,7.717   c0.409,0.539,0.653,1.21,0.653,1.939v1.394l0.619,0.62c0.209,0.209,0.209,0.547,0,0.755l-0.386,0.387   c-0.034,0.032-0.069,0.06-0.107,0.083l0.493,0.493c0.209,0.208,0.209,0.546,0,0.755l-0.353,0.352l0.353,0.353   c0.209,0.208,0.209,0.546,0,0.754l-0.386,0.387c-0.03,0.028-0.06,0.053-0.094,0.074l0.479,0.479c0.209,0.209,0.209,0.546,0,0.755   l-0.386,0.387c-0.026,0.024-0.052,0.045-0.079,0.065l0.465,0.464c0.209,0.208,0.209,0.545,0,0.754l-0.341,0.34l0.341,0.34   c0.209,0.208,0.209,0.547,0,0.755l-0.386,0.386c-0.067,0.067-0.148,0.113-0.233,0.137v1.251H67.95l0.02-0.97   c0.062-0.359,0.27-0.623,0.519-0.623c0.247,0,0.455,0.264,0.517,0.623v0.993l0.716,0.016c0.073-1.383,0.25-4.605,0.289-5.17   c0.05-0.722,0.299-0.733,0.299-0.733s0.249,0.012,0.299,0.733c0.04,0.568,0.218,3.836,0.291,5.2   c17.895,0.528,28.416,3.582,28.861,6.95c0.043,0.068,0.043,0.142,0.043,0.217c0,2.912-7.458,8.273-18.411,11.487   c-3.479,1.022-7.302,1.939-11.332,2.525c-4.705,0.686-9.101,1.109-13.019,1.262c-1.649,1.053-3.352,2.906-3.518,6.217   c-0.409,8.188-1.391,20.454-1.786,24.259c7.12,0.628,12.47,3.371,12.491,6.102c0.03,3.918-4.293,4.817-11.567,4.974l-1.728-3.28   c-0.247,2.117-0.566,4.68-0.602,5.027c-0.102,0.997-0.4,1.201-0.4,1.201s-0.296-0.204-0.398-1.201   c-0.036-0.348-0.354-2.91-0.602-5.027l-1.728,3.28c-7.273-0.156-11.597-1.056-11.567-4.974c0.021-2.73,5.37-5.474,12.491-6.102   c-0.395-3.805-1.377-16.07-1.787-24.259c-0.166-3.311-1.867-5.164-3.517-6.217c-3.917-0.152-8.313-0.576-13.017-1.262   c-4.032-0.586-7.854-1.503-11.333-2.525C7.522,42.66,0.062,37.299,0.062,34.387c0-0.075,0-0.149,0.022-0.224   c0.467-3.375,11.069-6.439,29.087-6.95c0.074-1.367,0.251-4.626,0.291-5.194c0.05-0.722,0.299-0.733,0.299-0.733   s0.25,0.012,0.299,0.733c0.039,0.564,0.214,3.78,0.289,5.166l0.716-0.015v-0.989c0.061-0.359,0.269-0.623,0.518-0.623   c0.248,0,0.457,0.264,0.518,0.623l0,0.97h14.068V25.891L46.168,25.891z"/>
</g>
<g>
	<path d="M48.243,41.133c0.193,1.644,0.924,2.729,1.645,2.729s1.451-1.085,1.645-2.729H48.243L48.243,41.133z M47.201,45.347   l0.396-0.35c0.391-0.343,0.651-0.968,0.651-1.71c0-0.28-0.014-0.551-0.094-0.793c-0.101-0.317-0.184-0.664-0.243-1.027   c-0.146,0.437-0.396,1.194-0.485,1.55c-0.21,0.825-0.225,2.103-0.225,2.103V45.347L47.201,45.347z M52.575,45.861l-1.552-1.369   h-2.288l-1.535,1.355v3.79h5.375V45.861L52.575,45.861z M51.862,41.461c-0.059,0.369-0.146,0.72-0.259,1.041l-0.01,0.032   c-0.069,0.231-0.081,0.487-0.081,0.752c0,0.742,0.259,1.367,0.65,1.71l0.412,0.364v-0.243c0,0-0.016-1.278-0.224-2.103   C52.261,42.658,52.009,41.897,51.862,41.461L51.862,41.461z M51.401,50.133h-3.027v3.409h3.027V50.133L51.401,50.133z    M46.247,25.969c-0.075-0.026-0.145-0.068-0.204-0.128l-0.387-0.386c-0.208-0.208-0.208-0.546,0-0.755l0.34-0.34l-0.34-0.34   c-0.208-0.208-0.208-0.546,0-0.754l0.464-0.464c-0.027-0.02-0.053-0.041-0.078-0.065l-0.387-0.387   c-0.208-0.208-0.208-0.546,0-0.755l0.479-0.479c-0.033-0.021-0.064-0.045-0.092-0.074l-0.387-0.387   c-0.208-0.208-0.208-0.546,0-0.754l0.353-0.353l-0.353-0.352c-0.208-0.208-0.208-0.546,0-0.755l0.494-0.493   c-0.038-0.023-0.074-0.051-0.107-0.083l-0.387-0.387c-0.208-0.208-0.208-0.546,0-0.755l0.591-0.59v-1.423   c0-0.729,0.243-1.401,0.653-1.939c0.372-4.449,1.601-7.717,3.058-7.717h0.107c1.458,0,2.687,3.268,3.059,7.717   c0.409,0.539,0.653,1.21,0.653,1.939v1.394l0.619,0.62c0.209,0.209,0.209,0.547,0,0.755l-0.386,0.387   c-0.034,0.032-0.069,0.06-0.107,0.083l0.493,0.493c0.209,0.208,0.209,0.546,0,0.755l-0.353,0.352l0.353,0.353   c0.209,0.208,0.209,0.546,0,0.754l-0.386,0.387c-0.03,0.028-0.06,0.053-0.094,0.074l0.479,0.479c0.209,0.209,0.209,0.546,0,0.755   l-0.386,0.387c-0.026,0.024-0.052,0.045-0.079,0.065l0.465,0.464c0.209,0.208,0.209,0.545,0,0.754l-0.341,0.34l0.341,0.34   c0.209,0.208,0.209,0.547,0,0.755l-0.386,0.386c-0.067,0.067-0.148,0.113-0.233,0.137v1.251h14.252l0.02-0.97   c0.062-0.359,0.27-0.623,0.519-0.623c0.247,0,0.455,0.264,0.517,0.623v0.993l0.716,0.016c0.073-1.383,0.25-4.605,0.289-5.17   c0.05-0.722,0.299-0.733,0.299-0.733s0.249,0.012,0.299,0.733c0.04,0.568,0.218,3.836,0.291,5.2   c17.895,0.528,28.416,3.582,28.861,6.95c0.043,0.068,0.043,0.142,0.043,0.217c0,2.912-7.458,8.273-18.411,11.487   c-3.479,1.022-7.302,1.939-11.332,2.525c-4.705,0.686-9.101,1.109-13.019,1.262c-1.649,1.053-3.352,2.906-3.518,6.217   c-0.409,8.188-1.391,20.454-1.786,24.259c7.12,0.628,12.47,3.371,12.491,6.102c0.03,3.918-4.293,4.817-11.567,4.974l-1.728-3.28   c-0.247,2.117-0.566,4.68-0.602,5.027c-0.102,0.997-0.4,1.201-0.4,1.201s-0.296-0.204-0.398-1.201   c-0.036-0.348-0.354-2.91-0.602-5.027l-1.728,3.28c-7.273-0.156-11.597-1.056-11.567-4.974c0.021-2.73,5.37-5.474,12.491-6.102   c-0.395-3.805-1.377-16.07-1.787-24.259c-0.166-3.311-1.867-5.164-3.517-6.217c-3.917-0.152-8.313-0.576-13.017-1.262   c-4.032-0.586-7.854-1.503-11.333-2.525C7.6,42.738,0.141,37.377,0.141,34.465c0-0.075,0-0.149,0.022-0.224   c0.467-3.375,11.069-6.439,29.087-6.95c0.074-1.367,0.251-4.626,0.291-5.194c0.05-0.722,0.299-0.733,0.299-0.733   s0.25,0.012,0.299,0.733c0.039,0.564,0.214,3.78,0.289,5.166l0.716-0.015v-0.989c0.061-0.359,0.269-0.623,0.518-0.623   c0.248,0,0.457,0.264,0.518,0.623l0,0.97h14.068V25.969L46.247,25.969z"/>
</g>
</svg>