<?xml version="1.0" encoding="utf-8"?>
<!-- Generator: Adobe Illustrator 15.1.0, SVG Export Plug-In . SVG Version: 6.00 Build 0)  -->
<!DOCTYPE svg PUBLIC "-//W3C//DTD SVG 1.1//EN" "http://www.w3.org/Graphics/SVG/1.1/DTD/svg11.dtd">
<svg version="1.1" id="Layer_1" xmlns="http://www.w3.org/2000/svg" xmlns:xlink="http://www.w3.org/1999/xlink" x="0px" y="0px"
	 width="34.32px" height="100.001px" viewBox="0 0 34.32 100.001" enable-background="new 0 0 34.32 100.001" xml:space="preserve">
<path d="M32.356,7.577C29.11,1.896,22.126-1.067,15.187,0.353l6.696,11.771l-3.731,6.596h-7.146L4.105,6.807
	c-4.545,5.317-5.397,12.663-2.15,18.305c1.665,2.843,4.343,5.197,7.347,6.496C12.16,33,13.2,35.118,13.16,38v55
	c0,3.867,3.134,7.001,7,7.001s7-3.134,7-7.001V32c0.042-1.867,0.245-3.316,1.542-4.452C34.507,22.15,35.97,13.869,32.356,7.577z"/>
</svg>
