<svg xmlns="http://www.w3.org/2000/svg" xmlns:xlink="http://www.w3.org/1999/xlink" version="1.1" viewBox="185,172,113,101" width="100px" height="89.3805309735px"><path d="M196.748,184.682 L196.748,173.766 L196.748,172.246 L199.788,172.246 L199.788,173.766 L199.788,184.682 L199.788,186.202 L196.748,186.202 L196.748,184.682 Z M198.268,172.246 L230.837,172.246 C231.676,172.246,232.356,172.927,232.356,173.766 L232.356,184.622 L230.836,183.102 L275.531,183.102 C276.371,183.102,277.051,183.783,277.051,184.622 L277.051,198.711 L277.051,200.231 L274.011,200.231 L274.011,198.711 L274.011,184.622 L275.531,186.142 L230.836,186.142 C229.997,186.142,229.317,185.462,229.317,184.622 L229.317,173.766 L230.837,175.286 L198.268,175.286 L196.748,175.286 L196.748,172.246 L198.268,172.246 Z M273.144,272.194 L187.412,272.194 C186.573,272.194,185.892,271.513,185.892,270.674 L185.892,184.682 C185.892,183.844,186.573,183.163,187.412,183.163 L198.268,183.163 L199.788,183.163 L199.788,186.202 L198.268,186.202 L187.412,186.202 L188.933,184.682 L188.933,270.674 L187.412,269.154 L273.144,269.154 L274.664,269.154 L274.664,272.194 L273.144,272.194 Z M272.644,269.97 L274.539,263.687 C274.822,262.75,275.81,262.218,276.749,262.502 C277.687,262.785,278.218,263.773,277.934,264.711 L276.04,270.995 C275.758,271.932,274.768,272.464,273.83,272.18 C272.892,271.897,272.361,270.909,272.644,269.97 Z M277.611,253.499 L279.659,246.706 C279.941,245.769,280.931,245.238,281.869,245.521 C282.806,245.804,283.338,246.793,283.055,247.73 L281.007,254.523 C280.724,255.461,279.735,255.992,278.797,255.709 C277.859,255.427,277.328,254.437,277.611,253.499 Z M282.73,236.518 L284.779,229.726 C285.062,228.788,286.051,228.257,286.989,228.54 C287.927,228.823,288.458,229.812,288.175,230.751 L286.127,237.542 C285.844,238.48,284.854,239.011,283.917,238.729 C282.979,238.446,282.448,237.456,282.73,236.518 Z M287.851,219.538 L289.899,212.745 C290.181,211.807,291.171,211.276,292.109,211.56 C293.047,211.842,293.578,212.831,293.295,213.77 L291.247,220.562 C290.965,221.499,289.975,222.03,289.037,221.748 C288.099,221.465,287.568,220.475,287.851,219.538 Z M292.971,202.557 L294.357,197.963 L296.054,200.249 L293.758,200.249 C292.778,200.249,291.985,199.454,291.985,198.475 C291.985,197.495,292.778,196.701,293.758,196.701 L296.054,196.701 C297.243,196.701,298.095,197.849,297.752,198.987 L296.367,203.581 C296.084,204.519,295.095,205.05,294.157,204.767 C293.219,204.484,292.688,203.495,292.971,202.557 Z M283.116,200.249 L276.022,200.249 C275.043,200.249,274.249,199.454,274.249,198.475 C274.249,197.495,275.043,196.701,276.022,196.701 L283.116,196.701 C284.096,196.701,284.89,197.495,284.89,198.475 C284.89,199.454,284.096,200.249,283.116,200.249 Z M265.381,200.249 L258.287,200.249 C257.307,200.249,256.513,199.454,256.513,198.475 C256.513,197.495,257.307,196.701,258.287,196.701 L265.381,196.701 C266.36,196.701,267.154,197.495,267.154,198.475 C267.154,199.454,266.36,200.249,265.381,200.249 Z M247.645,200.249 L240.551,200.249 C239.572,200.249,238.777,199.454,238.777,198.475 C238.777,197.495,239.572,196.701,240.551,196.701 L247.645,196.701 C248.625,196.701,249.419,197.495,249.419,198.475 C249.419,199.454,248.625,200.249,247.645,200.249 Z M229.909,200.249 L222.815,200.249 C221.835,200.249,221.042,199.454,221.042,198.475 C221.042,197.495,221.835,196.701,222.815,196.701 L229.909,196.701 C230.889,196.701,231.683,197.495,231.683,198.475 C231.683,199.454,230.889,200.249,229.909,200.249 Z M212.174,200.249 L205.949,200.249 L205.949,198.475 L207.667,198.916 L207.451,199.758 C207.208,200.707,206.242,201.279,205.293,201.036 C204.344,200.793,203.772,199.827,204.016,198.878 L204.232,198.034 C204.432,197.25,205.14,196.701,205.949,196.701 L212.174,196.701 C213.153,196.701,213.947,197.495,213.947,198.475 C213.947,199.454,213.153,200.249,212.174,200.249 Z M204.81,210.067 L203.048,216.939 C202.805,217.888,201.839,218.46,200.89,218.217 C199.941,217.973,199.369,217.007,199.612,216.059 L201.373,209.187 C201.617,208.237,202.583,207.666,203.531,207.908 C204.48,208.151,205.052,209.118,204.81,210.067 Z M200.406,227.248 L198.645,234.12 C198.402,235.068,197.436,235.64,196.487,235.397 C195.537,235.154,194.966,234.188,195.208,233.239 L196.97,226.367 C197.214,225.417,198.18,224.846,199.128,225.089 C200.077,225.332,200.649,226.299,200.406,227.248 Z M196.003,244.428 L194.242,251.3 C193.998,252.249,193.032,252.821,192.083,252.578 C191.134,252.334,190.562,251.368,190.805,250.42 L192.567,243.548 C192.81,242.598,193.776,242.027,194.725,242.269 C195.674,242.513,196.246,243.479,196.003,244.428 Z M191.6,261.609 L189.839,268.481 C189.595,269.429,188.629,270.002,187.68,269.758 C186.731,269.515,186.159,268.549,186.402,267.6 L188.164,260.727 C188.406,259.779,189.373,259.207,190.322,259.45 C191.271,259.693,191.843,260.66,191.6,261.609 Z"/></svg>