<svg xmlns="http://www.w3.org/2000/svg" xmlns:xlink="http://www.w3.org/1999/xlink" version="1.1" id="Layer_1" x="0px" y="0px" width="100px" height="100px" viewBox="0 0 100 100" enable-background="new 0 0 100 100" xml:space="preserve">
<rect x="26.637" y="50.271" stroke="#000000" stroke-width="3" stroke-miterlimit="10" width="51.679" height="35.299"/>
<line fill="none" stroke="#000000" stroke-width="3" stroke-miterlimit="10" x1="26.637" y1="50.271" x2="9.588" y2="50.271"/>
<line fill="none" stroke="#000000" stroke-width="3" stroke-miterlimit="10" x1="78.316" y1="50.271" x2="94.313" y2="50.271"/>
<line fill="none" stroke="#000000" stroke-width="3" stroke-miterlimit="10" x1="94.313" y1="50.271" x2="52.477" y2="22.535"/>
<line fill="none" stroke="#000000" stroke-width="3" stroke-miterlimit="10" x1="9.588" y1="50.271" x2="52.477" y2="22.535"/>
<line fill="none" stroke="#000000" stroke-width="3" stroke-miterlimit="10" x1="26.637" y1="85.57" x2="9.588" y2="99.187"/>
<line fill="none" stroke="#000000" stroke-width="3" stroke-miterlimit="10" x1="78.316" y1="85.57" x2="94.313" y2="99.187"/>
<line fill="none" stroke="#000000" stroke-width="3" stroke-miterlimit="10" x1="94.313" y1="99.187" x2="9.588" y2="99.187"/>
<line fill="none" stroke="#000000" stroke-width="3" stroke-miterlimit="10" x1="52.477" y1="22.535" x2="52.477" y2="1.859"/>
<line fill="none" stroke="#000000" stroke-width="3" stroke-miterlimit="10" x1="52.477" y1="1.859" x2="71.379" y2="1.859"/>
<line fill="none" stroke="#000000" stroke-width="3" stroke-miterlimit="10" x1="71.379" y1="1.859" x2="63.932" y2="6.902"/>
<line fill="none" stroke="#000000" stroke-width="3" stroke-miterlimit="10" x1="63.932" y1="6.902" x2="71.379" y2="12.197"/>
<line fill="none" stroke="#000000" stroke-width="3" stroke-miterlimit="10" x1="71.379" y1="12.197" x2="52.477" y2="12.197"/>
<g>
	<path fill="#000000" d="M55.152,31.813c-0.668,0.462-1.018,1.26-1.771,1.633c-0.443-0.699-1.207-1.063-1.564-1.852   c0.564-0.498,1.086-1.042,1.564-1.634C54.102,30.441,54.691,31.059,55.152,31.813z"/>
	<path fill="#000000" d="M49.314,32.029c1.521,2.093,6.248,3.587,7.715,0.436c0.701,0.393,1.139,1.061,1.668,1.634   C56.43,37.666,50.234,35.289,49.314,32.029z"/>
	<path fill="#000000" d="M49.523,39.871c1.236,1.35,2.932,3.031,2.92,5.663c-0.023,4.52-5.475,4.127-7.714,1.851   c-1.81-1.836-2.945-4.551-3.337-7.078c0.529,0.403,0.629,1.205,0.938,1.852c0.89,1.86,2.525,4.72,5.004,4.9   c1.559,0.113,2.999-0.653,3.44-1.96c0.688-2.032-0.742-3.484-1.459-4.682c-0.374,0.517-0.758,1.021-1.147,1.523   c-0.679-0.632-1.322-1.304-1.98-1.959c0.475-0.736,1.132-0.933,1.668-1.525c0.66-0.729,1.492-2.807-0.209-3.158   c-1.136-0.235-2.14,0.56-2.918,1.198c-0.344,0.28-1.187,1.408-1.356,1.417c-0.58,0.025-1.443-1.74-1.771-1.96   c1.523-1.12,2.708-3.096,5.211-2.614C49.314,33.818,51.014,37.173,49.523,39.871z"/>
	<path fill="#000000" d="M55.986,40.742c1.785,2.157,5.674-0.348,4.17-2.831c-2.852-0.68-6.42,5.965-9.068,1.415   c2.902,0.991,3.834-2.34,6.984-3.049c0.891-0.202,2.602,0.5,3.021,1.306c0.863,1.655,0.617,5.889-1.563,5.99   C58.102,43.64,56.387,41.965,55.986,40.742z"/>
</g>
<line fill="#000000" stroke="#010202" stroke-width="3" stroke-miterlimit="10" x1="26.637" y1="94.648" x2="78.316" y2="94.648"/>
<line fill="#000000" stroke="#010202" stroke-width="3" stroke-miterlimit="10" x1="41.392" y1="89.605" x2="61.557" y2="89.605"/>
</svg>