<svg xmlns:x="http://ns.adobe.com/Extensibility/1.0/" xmlns:i="http://ns.adobe.com/AdobeIllustrator/10.0/" xmlns:graph="http://ns.adobe.com/Graphs/1.0/" xmlns="http://www.w3.org/2000/svg" xmlns:xlink="http://www.w3.org/1999/xlink" xmlns:a="http://ns.adobe.com/AdobeSVGViewerExtensions/3.0/" version="1.0" id="Layer_1" x="0px" y="0px" width="100px" height="100px" viewBox="0 0 100 100" enable-background="new 0 0 100 100" xml:space="preserve">
<g>
	<path d="M76.873,51.439c0.992-4.451,0.521-8.288-1.047-8.571c-1.541-0.278-3.568,2.969-4.58,7.296   c-0.297-3.933-0.246-6.94-0.047-9.21l-0.107-0.032c-4.963-1.708-9.375-5.72-12.201-10.562c-2.295,4.116-7.693,9.138-14.768,13.31   c-0.3,0.175-0.597,0.347-0.896,0.516c3.898,3.703,2.372,6.073-2.315,1.252c-1.238,0.635-2.463,1.207-3.664,1.718   c0.775,0.067,1.627,0.217,2.646,0.575c3.335,1.172,4.137,2.772,5.112,5.448c-0.611-1.104-2.034-2.275-3.463-2.998   c0.146,0.309,0.225,0.651,0.225,1.016c0,1.329-1.077,2.409-2.408,2.409s-2.409-1.08-2.409-2.409c0-0.816,0.406-1.539,1.03-1.977   c-1.347-0.139-2.45-0.01-4.14,0.146c0.604,1.307,1.293,3.279,2.906,4.333c-2.077-0.755-3.58-2.915-4.517-4.722   c-1.245,0.367-2.438,0.652-3.558,0.848c-2.377,0.411-4.376,0.436-5.902,0.053c0.077,0.508,0.172,1.029,0.291,1.562   c0.992,4.448,3.067,7.825,4.636,7.542c0.771-0.139,1.277-1.133,1.475-2.638c0.325,2.54,0.813,5.8,1.228,9.438   c0.783,6.85,16.542,18.85,16.542,18.85h6.05c0,0,15.76-12,16.541-18.85c0.418-3.639,0.906-6.898,1.229-9.438   c0.199,1.505,0.703,2.499,1.475,2.638C73.805,59.265,75.881,55.888,76.873,51.439L76.873,51.439z M39.68,50.623   c0,0.411,0.333,0.746,0.743,0.746c0.413,0,0.743-0.335,0.743-0.746c0-0.41-0.33-0.742-0.743-0.742   C40.013,49.881,39.68,50.213,39.68,50.623L39.68,50.623z M37.082,9.779C50.484,3,62.221,4.163,64.176,12.359   c2.6-2.033,5.246-2.537,7.797-1.229C82.258,16.4,90.189,50.526,82.768,84.799c-0.359,1.656-0.713,3.174-1.062,4.562   c-5.646,0.084-11.648,0.15-17.92,0.195c-0.98-3.728-1.229-8.167-1.195-11.964c-3.5,3.453-7.244,6.476-9.225,7.983h-6.792   c0,0-4.284-3.259-8.367-7.163c-0.43-0.408-0.863-0.83-1.296-1.265c0.055,3.909-0.174,8.577-1.205,12.461   c-6.021-0.02-11.85-0.061-17.421-0.117C11.11,60.714,17.357,19.759,37.082,9.779L37.082,9.779z M53.727,75.447   c0.166-0.05,0.26-0.224,0.207-0.389c-0.051-0.163-0.229-0.257-0.395-0.207c-0.164,0.05-0.256,0.225-0.207,0.388   C53.385,75.405,53.561,75.499,53.727,75.447L53.727,75.447z M52.992,75.784c0.184-0.07,0.277-0.273,0.207-0.451   c-0.07-0.179-0.275-0.269-0.461-0.197l-0.244,0.094c-0.184,0.07-0.277,0.273-0.207,0.453c0.068,0.177,0.275,0.265,0.461,0.195   L52.992,75.784L52.992,75.784z M49.588,73.349h0.245c1.836,0,3.573-1.067,2.151-1.067h-2.272h-2.274   C46.016,72.281,47.752,73.349,49.588,73.349L49.588,73.349z M55.91,69.973c1.713,0.525,2.936-0.129,2.9-0.088   c-0.436,0.374-2.455,1.889-2.455,1.889l-0.012,0.516c0,2.482-2.904,4.499-6.544,4.513c-3.637-0.014-6.58-2.03-6.58-4.513   l-0.013-0.516c0,0-2.021-1.515-2.455-1.889c-0.036-0.041,1.187,0.613,2.899,0.088c3.808-1.174,5.585-0.393,6.148,0.521   C50.365,69.58,52.104,68.799,55.91,69.973L55.91,69.973z M59.629,47.729c3.838-1.349,5.361,0.199,8.828-1.509   c0,0-1.879,6.097-5.686,7.478c1.613-1.054,2.305-3.026,2.908-4.333c-1.688-0.156-2.793-0.285-4.139-0.146   c0.621,0.438,1.029,1.16,1.029,1.977c0,1.329-1.078,2.409-2.408,2.409s-2.408-1.08-2.408-2.409c0-0.364,0.082-0.707,0.225-1.016   c-1.428,0.723-2.852,1.895-3.463,2.998C55.488,50.502,56.291,48.901,59.629,47.729L59.629,47.729z M61.787,50.623   c0-0.41-0.332-0.742-0.74-0.742c-0.412,0-0.746,0.332-0.746,0.742c0,0.411,0.334,0.746,0.746,0.746   C61.455,51.369,61.787,51.034,61.787,50.623L61.787,50.623z M61.463,40.579c4.555-2.431,7.176,1.493,7.176,1.493   s-4.604-3.165-8.057,1.12C52.734,52.932,50.787,46.275,61.463,40.579L61.463,40.579z"/>
</g>
</svg>