<svg xmlns:x="http://ns.adobe.com/Extensibility/1.0/" xmlns:i="http://ns.adobe.com/AdobeIllustrator/10.0/" xmlns:graph="http://ns.adobe.com/Graphs/1.0/" xmlns="http://www.w3.org/2000/svg" xmlns:xlink="http://www.w3.org/1999/xlink" xmlns:a="http://ns.adobe.com/AdobeSVGViewerExtensions/3.0/" version="1.0" id="Layer_1" x="0px" y="0px" width="100px" height="100px" viewBox="0 0 100 100" enable-background="new 0 0 100 100" xml:space="preserve">
<g>
	<ellipse transform="matrix(0.2078 -0.9782 0.9782 0.2078 -43.9653 97.0785)" cx="37.95" cy="75.682" rx="2.735" ry="3.935"/>
	<g>
		<ellipse cx="46.412" cy="53.735" rx="2.956" ry="1.259"/>
		<path d="M54.5,52.477c-1.633,0-2.957,0.564-2.957,1.26s1.324,1.258,2.957,1.258c1.629,0,2.955-0.562,2.955-1.258    S56.129,52.477,54.5,52.477z"/>
	</g>
</g>
<g>
	<path d="M89.283,35.346c-3.162,0-5.975,1.844-7.775,4.71c-3.018-5.294-7.621-9.713-13.223-12.762   c-2.328-2.082-3.113-5.51-1.709-8.469c4.102-8.64,14.639-2.545,11.885,3.238c-2.836,5.945-9.301,1.878-7.84-1.302   c1.564-3.403,4.711-1.127,3.436,0.188c-0.621,0.642,0.34,1.574,0.965,0.934c2.732-2.818-3.162-7.024-5.617-1.681   C67.197,25,76.09,30.155,79.67,22.638c1.689-3.544-0.678-7.295-3.945-8.858c-4.078-1.951-8.527,0.615-10.357,4.471   c-1.213,2.552-1.043,5.398,0.195,7.712c-4.629-2.04-9.811-3.198-15.297-3.198c-13.792,0-25.732,7.229-31.497,17.752   c-1.782-3.128-4.724-5.17-8.05-5.17c-5.438,0-9.846,5.457-9.846,12.188c0,6.731,4.408,12.186,9.846,12.186   c1.654,0,3.215-0.506,4.584-1.398c1.187,9.725,7.333,16.02,16.172,19.498c-0.011,0.086-0.023,0.172-0.023,0.258   c0,2.293,3.358,4.152,7.503,4.152c2.235,0,4.237-0.545,5.612-1.402c1.768,0.18,3.577,0.297,5.425,0.346   c20.7,0.529,33.036-7.115,35.19-22.557c1.246,0.709,2.637,1.104,4.102,1.104c5.436,0,9.844-5.455,9.844-12.186   C99.127,40.803,94.719,35.346,89.283,35.346z M13.18,54.799c-2.871,0-5.198-2.82-5.198-6.3c0-3.479,2.327-6.3,5.198-6.3   s5.198,2.82,5.198,6.3C18.378,51.979,16.051,54.799,13.18,54.799z M51.006,77.91c-2.278,0-4.504-0.1-6.652-0.297   c-1.136,1.295-3.089,2.15-5.312,2.15c-3.403,0-6.175-2.008-6.343-4.527c-6.685-2.373-11.052-6.35-11.052-12.047   c0-5.639,4.08-10.676,10.479-14.001c-0.858-1.609-1.352-3.481-1.352-5.482c0-5.977,4.395-10.821,9.815-10.821   c4.855,0,8.887,3.889,9.675,8.995c0.787-5.106,4.818-8.995,9.676-8.995c5.42,0,9.814,4.845,9.814,10.821   c0,1.957-0.473,3.792-1.295,5.376c6.514,3.325,10.682,8.409,10.682,14.108C79.143,73.203,66.885,77.91,51.006,77.91z    M87.609,54.799c-2.869,0-5.197-2.82-5.197-6.3c0-3.479,2.328-6.3,5.197-6.3c2.871,0,5.199,2.82,5.199,6.3   C92.809,51.979,90.48,54.799,87.609,54.799z"/>
	<path d="M40.823,40.717c-2.388,0-4.324,1.936-4.324,4.323c0,2.389,1.937,4.323,4.324,4.323s4.323-1.935,4.323-4.323   C45.146,42.653,43.21,40.717,40.823,40.717z M42.588,45.093c-0.796,0-1.441-0.646-1.441-1.441c0-0.795,0.646-1.44,1.441-1.44   c0.795,0,1.439,0.646,1.439,1.44C44.028,44.448,43.383,45.093,42.588,45.093z"/>
	<path d="M59.436,40.827c-2.389,0-4.324,1.936-4.324,4.323c0,2.389,1.936,4.323,4.324,4.323s4.322-1.935,4.322-4.323   C63.758,42.762,61.824,40.827,59.436,40.827z M61.068,45.093c-0.797,0-1.441-0.646-1.441-1.441c0-0.795,0.645-1.44,1.441-1.44   c0.795,0,1.441,0.646,1.441,1.44C62.51,44.448,61.863,45.093,61.068,45.093z"/>
</g>
</svg>