<?xml version="1.0" encoding="utf-8"?>
<!-- Generator: Adobe Illustrator 14.0.0, SVG Export Plug-In . SVG Version: 6.00 Build 43363)  -->
<!DOCTYPE svg PUBLIC "-//W3C//DTD SVG 1.0//EN" "http://www.w3.org/TR/2001/REC-SVG-20010904/DTD/svg10.dtd">
<svg version="1.0" id="Layer_1" xmlns="http://www.w3.org/2000/svg" xmlns:xlink="http://www.w3.org/1999/xlink" x="0px" y="0px"
	 width="40.016px" height="100px" viewBox="0 0 40.016 100" enable-background="new 0 0 40.016 100" xml:space="preserve">
<path d="M33.594,79.18c-2.303,1.314-4.606,2.629-6.91,3.943c-0.092,0.052-0.152,0.104-0.199,0.151
	c0.028-0.065,0.059-0.147,0.09-0.272c0.171-0.669,0.341-1.338,0.511-2.008c1.519-5.973,3.037-11.946,4.556-17.92
	c2.79-10.978,5.58-21.956,8.37-32.934c0.033-0.126-0.104-0.236-0.219-0.169c-6.225,3.667-12.448,7.333-18.672,11
	c-2.775,1.634-5.55,3.269-8.324,4.903c0.073-0.094,0.156-0.229,0.242-0.422c0.48-1.099,0.961-2.198,1.441-3.296
	c6.115-13.977,12.23-27.954,18.345-41.931C32.868,0.125,32.818,0,32.695,0C26.954,0,21.211,0,15.47,0
	c-0.065,0-0.128,0.045-0.145,0.109C10.219,20.187,5.111,40.263,0.005,60.34c-0.032,0.127,0.104,0.235,0.22,0.168
	c5.757-3.324,11.514-6.648,17.271-9.972c2.605-1.504,5.211-3.009,7.816-4.513c0.085-0.05,0.134-0.09,0.163-0.12
	c-0.046,0.07-0.128,0.241-0.178,0.588c-0.169,1.167-0.336,2.335-0.503,3.502c-1.201,8.35-2.401,16.699-3.602,25.049
	c-0.343,2.376-1.024,7.126-1.024,7.126s-3.952-5.236-5.039-6.614c-0.102-0.129-0.276,0.013-0.25,0.145
	c1.647,8.062,3.296,16.121,4.943,24.183c0.004,0.017,0.014,0.028,0.022,0.043c0.031,0.061,0.09,0.087,0.149,0.071
	c0.039-0.005,0.077-0.024,0.104-0.064c4.566-6.85,9.132-13.698,13.698-20.547C33.885,79.254,33.718,79.107,33.594,79.18z
	 M39.692,30.183l-0.027,0.016c0.017-0.038,0.043-0.078,0.052-0.114C39.709,30.117,39.701,30.149,39.692,30.183z M32.588,0.312
	l0.006-0.013c0.009,0,0.018,0,0.027,0C32.611,0.299,32.599,0.308,32.588,0.312z M0.44,60.227l0.61-0.352
	C0.741,60.132,0.521,60.305,0.44,60.227z M15.246,75.919l-0.022-0.032c-0.016-0.072-0.03-0.146-0.045-0.219
	C15.195,75.75,15.223,75.835,15.246,75.919z M33.443,79.63l0.022-0.034c0.052-0.029,0.104-0.059,0.154-0.087
	C33.563,79.54,33.503,79.584,33.443,79.63z"/>
</svg>
