<svg xmlns="http://www.w3.org/2000/svg" xmlns:xlink="http://www.w3.org/1999/xlink" version="1.1" id="Ebene_1" x="0px" y="0px" width="100.0px" height="100px" viewBox="0 0 255.12 255.12" enable-background="new 0 0 255.12 255.12" xml:space="preserve">
<rect x="48.723" y="37.46" width="22.524" height="22.525"/>
<rect x="71.248" y="195.137" width="45.05" height="22.522"/>
<rect x="183.873" y="37.46" width="22.523" height="22.525"/>
<path d="M228.923,127.56v-22.525h-22.526V82.511h-22.523V59.985h-22.526v22.525H93.772V59.985H71.248v22.525H48.723v22.524H26.197  v22.525H3.673v67.577h22.524v-45.052h22.526v45.052h22.524V172.61h112.625v22.526h22.523v-45.052h22.526v45.052h22.524V127.56  H228.923z M93.772,127.56H71.248v-22.525h22.525V127.56z M183.873,127.56h-22.526v-22.525h22.526V127.56z"/>
<rect x="138.822" y="195.137" width="45.051" height="22.522"/>
</svg>