<svg xmlns:dc="http://purl.org/dc/elements/1.1/" xmlns:cc="http://creativecommons.org/ns#" xmlns:rdf="http://www.w3.org/1999/02/22-rdf-syntax-ns#" xmlns:svg="http://www.w3.org/2000/svg" xmlns="http://www.w3.org/2000/svg" version="1.1" width="54.770451" height="56.154297" id="svg2">
  <metadata id="metadata8">
    <rdf:RDF>
      <cc:Work rdf:about="">
        <dc:format>image/svg+xml</dc:format>
        <dc:type rdf:resource="http://purl.org/dc/dcmitype/StillImage"/>
        <dc:title/>
      </cc:Work>
    </rdf:RDF>
  </metadata>
  <defs id="defs6"/>
  <g transform="matrix(0.02870387,0,0,0.02870387,-83.894895,102.76536)" id="g3763">
    <g transform="matrix(-1,0,0,1,1010.0388,-3547.0452)" id="g4040">
      <path d="m -2791.3367,-20.109354 a 96.337933,96.337933 0 0 0 -142.8748,102.127093 l 129.0403,632.732101 -44.2955,7.53163 -336.9793,-607.0447 -0.9864,-1.81249 a 96.337933,96.337933 0 0 0 -169.4534,91.6444 l 322.3731,611.7296 -25.8421,31.31677 -425.6593,-439.88722 a 96.337933,96.337933 0 0 0 -140.942,131.31034 l 441.8022,492.67733 -24.0221,48.3529 -490.886,-130.612 a 96.337933,96.337933 0 0 0 -55.7924,184.281 l 527.8254,179.4309 332.9778,374.6418 21.9213,152.2686 a 96.337933,96.337933 0 0 0 95.4796,82.6064 l 395.0509,-0.4937 a 96.337933,96.337933 0 0 0 95.2665,-82.8616 l 78.2558,-553.8129 109.4015,-257.3185 a 96.337933,96.337933 0 0 0 3.9714,-11.2244 l 64.1616,-224.62111 107.1092,-196.39141 a 96.337933,96.337933 0 0 0 -165.3361,-98.63459 l -119.6739,184.18838 a 96.337933,96.337933 0 0 0 -5.6765,9.99093 l -109.6693,222.90626 -66.8137,26.17985 -79.2117,-45.59451 -102.0467,-146.81028 -173.3913,-708.81099 a 96.337933,96.337933 0 0 0 -45.0841,-59.985884 z" id="path5137" style="font-size:medium;font-style:normal;font-variant:normal;font-weight:normal;font-stretch:normal;text-indent:0;text-align:start;text-decoration:none;line-height:normal;letter-spacing:normal;word-spacing:normal;text-transform:none;direction:ltr;block-progression:tb;writing-mode:lr-tb;text-anchor:start;baseline-shift:baseline;color:#000000;fill:#000000;fill-opacity:1;fill-rule:nonzero;stroke:none;stroke-width:190.19999695;marker:none;visibility:visible;display:inline;overflow:visible;enable-background:accumulate;font-family:Sans;-inkscape-font-specification:Sans"/>
    </g>
  </g>
</svg>