<svg xmlns:dc="http://purl.org/dc/elements/1.1/" xmlns:cc="http://creativecommons.org/ns#" xmlns:rdf="http://www.w3.org/1999/02/22-rdf-syntax-ns#" xmlns:svg="http://www.w3.org/2000/svg" xmlns="http://www.w3.org/2000/svg" xmlns:inkscape="http://www.inkscape.org/namespaces/inkscape" version="1.1" width="60.501953" height="99.999992" id="svg2">
  <metadata id="metadata8">
    <rdf:RDF>
      <cc:Work rdf:about="">
        <dc:format>image/svg+xml</dc:format>
        <dc:type rdf:resource="http://purl.org/dc/dcmitype/StillImage"/>
        <dc:title/>
      </cc:Work>
    </rdf:RDF>
  </metadata>
  <defs id="defs6">
    <inkscape:path-effect effect="skeletal" id="path-effect3018"/>
    <inkscape:path-effect effect="skeletal" id="path-effect3013"/>
    <inkscape:path-effect effect="skeletal" id="path-effect3033"/>
    <inkscape:path-effect effect="skeletal" id="path-effect3024"/>
    <inkscape:path-effect effect="skeletal" id="path-effect3020"/>
    <inkscape:path-effect effect="skeletal" id="path-effect3825"/>
    <inkscape:path-effect effect="skeletal" id="path-effect3815"/>
    <inkscape:path-effect effect="skeletal" id="path-effect3805"/>
    <inkscape:path-effect effect="skeletal" id="path-effect3793"/>
    <inkscape:path-effect effect="skeletal" id="path-effect3789"/>
  </defs>
  <path d="m 22.222428,0 0,19.859302 16.376729,0 0,29.817734 -3.770389,-1.295172 -4.806527,-8.778387 C 29.963461,39.494586 29.885472,39.391886 29.82077,39.28688 a 2.7633097,2.7633097 0 0 0 -0.115127,-0.230253 c -0.0076,-0.01128 -0.02114,-0.01755 -0.02878,-0.02878 a 2.7633097,2.7633097 0 0 0 -0.17269,-0.201471 c -1.17386,-1.580374 -3.031339,-2.619125 -5.151906,-2.619125 l -17.9021531,0 c -3.569839,0 -6.44707698,2.899573 -6.44707698,6.475859 l 0,0.71954 a 2.7633097,2.7633097 0 0 0 0,0.259034 l 0,1.698115 0,18.708037 a 2.7633097,2.7633097 0 1 0 5.52606598,0 l 0,-18.708037 1.698114,0 0,15.829878 a 3.5462471,3.5462471 0 0 0 0,0.345379 l 0,0.316597 0,34.394002 a 3.5462471,3.5462471 0 1 0 7.0802731,0 l 0,-31.228026 2.043493,0 0,31.228026 a 3.5462471,3.5462471 0 1 0 7.080273,0 l 0,-34.394002 0,-0.316597 a 3.5462471,3.5462471 0 0 0 0,-0.230253 l 0,-15.945004 3.42501,0 3.626481,6.619767 a 2.7633097,2.7633097 0 0 0 1.525425,1.295172 l 6.590986,2.244964 0,4.346021 a 2.7633097,2.7633097 0 1 0 5.526066,0 l 0,-2.53278 a 2.7669281,2.7669281 0 0 0 1.237609,-5.353377 l -1.237609,-0.431724 0,-31.688538 16.376729,0 0,-19.859302 -38.279524,0 z m -6.792457,21.787669 c -3.56984,0 -6.4758591,2.899574 -6.4758591,6.475859 0,3.575365 2.9060191,6.447078 6.4758591,6.447078 3.573523,0 6.47586,-2.870793 6.47586,-6.447078 0,-3.576285 -2.903257,-6.475859 -6.47586,-6.475859 z" id="path3000" style="font-size:medium;font-style:normal;font-variant:normal;font-weight:normal;font-stretch:normal;text-indent:0;text-align:start;text-decoration:none;line-height:normal;letter-spacing:normal;word-spacing:normal;text-transform:none;direction:ltr;block-progression:tb;writing-mode:lr-tb;text-anchor:start;baseline-shift:baseline;color:#000000;fill:#000000;fill-opacity:1;fill-rule:nonzero;stroke:none;stroke-width:268.25650024;marker:none;visibility:visible;display:inline;overflow:visible;enable-background:accumulate;font-family:Sans;-inkscape-font-specification:Sans"/>
  <g transform="matrix(-0.02870387,0,0,0.02870387,-39.325829,-90.228436)" id="g2995"/>
</svg>