<?xml version="1.0" encoding="utf-8"?>
<!-- Generator: Adobe Illustrator 15.1.0, SVG Export Plug-In . SVG Version: 6.00 Build 0)  -->
<!DOCTYPE svg PUBLIC "-//W3C//DTD SVG 1.1//EN" "http://www.w3.org/Graphics/SVG/1.1/DTD/svg11.dtd">
<svg version="1.1" id="Layer_1" xmlns="http://www.w3.org/2000/svg" xmlns:xlink="http://www.w3.org/1999/xlink" x="0px" y="0px"
	 width="48px" height="100px" viewBox="0 0 48 100" enable-background="new 0 0 48 100" xml:space="preserve">
<path d="M35,13H20V4c0-2.209-1.791-4-4-4s-4,1.791-4,4v9.051C5.289,13.562,0,19.158,0,26v61c0,7.18,5.82,13,13,13h22
	c7.18,0,13-5.82,13-13V26C48,18.82,42.18,13,35,13z M41,46c-0.35,1.048-0.896,2-2,2H9c-1.104,0-1.65-0.952-2-2c-1-3-1-3-1-22
	c0-1.104,0.896-2,2-2h32c1.104,0,2,0.896,2,2C42,43,42,43,41,46z"/>
</svg>
