<svg xmlns="http://www.w3.org/2000/svg" xmlns:xlink="http://www.w3.org/1999/xlink" version="1.0" id="Layer_1" x="0px" y="0px" width="100px" height="100px" viewBox="0 0 100 100" enable-background="new 0 0 100 100" xml:space="preserve">
<path d="M93.314,52.142v-3.315H74.506c-0.379-2.788-1.223-5.426-2.469-7.83H81.3v-3.314H69.956  c-0.204-0.273-0.398-0.553-0.612-0.819L84.95,21.462l-2.329-2.359L67.072,34.449c-0.612-0.576-1.256-1.117-1.93-1.628V20.283h-3.313  v10.406c-2.914-1.542-6.183-2.489-9.652-2.724V7.44h-3.314v20.524c-2.729,0.185-5.342,0.795-7.749,1.811v-9.493H37.8v11.233  c-1.203,0.744-2.332,1.585-3.382,2.522L18.641,19.081l-2.282,2.404L32.09,36.399c-0.353,0.415-0.682,0.847-1.006,1.283H17.5v3.314  h11.501c-1.245,2.404-2.089,5.042-2.468,7.83H4.242v3.315h22.043c0.003,3.084,0.604,6.029,1.659,8.741h-9.325v3.314H29.53  c0.882,1.528,1.927,2.945,3.108,4.24l-13.817,13.64l2.328,2.355l13.872-13.69c0.872,0.728,1.809,1.376,2.779,1.975v10.538h3.314  v-8.798c2.407,1.018,5.021,1.625,7.749,1.813v17.342h3.314V76.271c3.47-0.237,6.738-1.186,9.652-2.726v9.71h3.313V71.412  c0.712-0.541,1.398-1.116,2.049-1.734L80.16,81.973l2.28-2.408l-13-12.324c0.765-0.959,1.454-1.975,2.068-3.043H82.42v-3.314h-9.325  c1.055-2.712,1.653-5.657,1.661-8.741H93.314z"/>
</svg>