<svg xmlns="http://www.w3.org/2000/svg" xmlns:xlink="http://www.w3.org/1999/xlink" version="1.0" id="Layer_1" x="0px" y="0px" width="100px" height="100px" viewBox="0 0 100 100" enable-background="new 0 0 100 100" xml:space="preserve">
<g>
	<path d="M15.538,44.208c0,0,0.165,5.249-0.104,9.019c-0.269,3.77,1.077,4.578-1.615,4.578s-5.115,1.614-4.308-3.231   c0.808-4.846,2.935-11.577,2.935-11.577L15.538,44.208z"/>
	<path d="M16.98,35.861c-1.862-0.719-2.66,2.335-3.296,4.846c-0.307,1.212,1.481,0.674,5.25,2.289   c3.77,1.616,35.809,9.154,39.175,9.962c3.365,0.808,5.341,1.216,6.191,1.075c1.213-0.198,1.963-1.142,1.29-1.682   c-0.673-0.539-1.044,0.215-2.501-0.485c-1.705-0.821-2.289-1.601-2.827-3.89c-0.538-2.288-5.151-0.922-7-1.75   C51.413,45.4,18.373,36.399,16.98,35.861z"/>
	<path d="M11.53,59.823c0,0,74.985,0.145,77.408,0c1.009-0.06,2.118,0.304,1.312,0.707c-0.807,0.403-1.583,0.774-2.795,1.853   c-1.211,1.076-2.827,0.808-4.577,1.211c-1.748,0.403-0.809,1.479-2.288,1.616c-1.479,0.132-62.463,0-62.463,0l-3.096-2.695   c0,0-1.62-1.613-2.56-2.151C11.53,59.823,11.53,60.096,11.53,59.823z"/>
	<path d="M91.358,54.915v-0.004l0,0l-0.021-4.005l-10.41-0.303l-5.452-1.48c0,0-7.27-5.519-9.885-8.615   c-0.71-0.844-0.751-0.808-0.751-0.808h-1.692c0,0,0.48,10.324,0.48,11.437c0,0.409,2.886,0.469,4.342,1.065   c0.713,0.29,0.348,1.426,0.06,2.267c-0.656,1.918-1.877,1.771-1.877,1.771s-1.986,0.287-7.91-1.061   c-5.923-1.347-21.367-4.342-25.038-5.519c-3.979-1.275-13.339-3.979-15.616-4.174c0,0-1.368,12.375,0,12.375   c2.289,0,48.194-0.01,51.693,0c3.5,0.01,19.925,0,19.925,0c1.454-1.546,1.928-2.403,2.081-2.755   c0.037,0.004,0.071,0.006,0.071,0.006V54.915z"/>
</g>
</svg>