<svg xmlns:dc="http://purl.org/dc/elements/1.1/" xmlns:cc="http://creativecommons.org/ns#" xmlns:rdf="http://www.w3.org/1999/02/22-rdf-syntax-ns#" xmlns:svg="http://www.w3.org/2000/svg" xmlns="http://www.w3.org/2000/svg" xmlns:sodipodi="http://sodipodi.sourceforge.net/DTD/sodipodi-0.dtd" xmlns:inkscape="http://www.inkscape.org/namespaces/inkscape" id="svg2" version="1.1" inkscape:version="0.48.2 r9819" width="82.25" height="85.53125" sodipodi:docname="Autostoppen.svg">
  <metadata id="metadata8">
    <rdf:RDF>
      <cc:Work rdf:about="">
        <dc:format>image/svg+xml</dc:format>
        <dc:type rdf:resource="http://purl.org/dc/dcmitype/StillImage"/>
        <dc:title/>
      </cc:Work>
    </rdf:RDF>
  </metadata>
  <defs id="defs6"/>
  <sodipodi:namedview pagecolor="#ffffff" bordercolor="#666666" borderopacity="1" objecttolerance="10" gridtolerance="10" guidetolerance="10" inkscape:pageopacity="0" inkscape:pageshadow="2" inkscape:window-width="1313" inkscape:window-height="724" id="namedview4" showgrid="false" inkscape:zoom="6.2667154" inkscape:cx="41.125" inkscape:cy="43.066102" inkscape:window-x="53" inkscape:window-y="0" inkscape:window-maximized="1" inkscape:current-layer="g2995" showguides="true" inkscape:guide-bbox="true" inkscape:snap-bbox="true" fit-margin-top="0" fit-margin-left="0" fit-margin-right="0" fit-margin-bottom="0" units="px">
    <sodipodi:guide orientation="1,0" position="-146.73889,55.115035" id="guide4013"/>
    <sodipodi:guide orientation="-0.70710678,0.70710678" position="43.881784,59.986372" id="guide3996"/>
    <sodipodi:guide orientation="-0.70710678,0.70710678" position="6.2570439,74.208779" id="guide3998"/>
    <sodipodi:guide orientation="0,1" position="48.277801,60.826787" id="guide4000"/>
  </sodipodi:namedview>
  <g id="g2995" transform="matrix(-0.02870387,0,0,0.02870387,-25.141625,-103.90907)" style="stroke:#000000;stroke-opacity:1">
    <path style="fill:#000000;fill-opacity:1;stroke:none" d="M 30.9375 -0.125 C 27.071506 -0.125 23.9375 3.0090067 23.9375 6.875 C 23.9375 10.740993 27.071506 13.875 30.9375 13.875 C 34.803493 13.875 37.9375 10.740993 37.9375 6.875 C 37.9375 3.0090067 34.803493 -0.125 30.9375 -0.125 z M 41.1875 16.46875 L 20.625 16.5 C 19.17158 16.768711 17.544214 17.291318 16.09375 18.59375 C 14.570197 19.96182 13.5625 22.225207 13.5625 24.625 L 13.5625 47 C 13.536348 48.849095 15.213224 50.5625 17.0625 50.5625 C 18.911781 50.5625 20.588652 48.849095 20.5625 47 L 20.5625 25.78125 L 22.3125 31.15625 L 22.3125 44.4375 L 22.3125 81.96875 C 22.286351 83.817839 23.963222 85.53125 25.8125 85.53125 C 27.661778 85.53125 29.338649 83.817839 29.3125 81.96875 L 29.3125 49.90625 L 32.5625 49.90625 L 32.5625 81.96875 C 32.536351 83.817839 34.213222 85.53125 36.0625 85.53125 C 37.911778 85.53125 39.588649 83.817839 39.5625 81.96875 L 39.5625 44.4375 L 39.5625 31.21875 L 41.40625 25.53125 C 41.576834 26.202464 41.951922 26.820254 42.46875 27.28125 L 50.84375 34.65625 C 51.475528 35.213384 52.313909 35.530607 53.15625 35.53125 L 64.34375 35.5625 C 65.905797 35.580529 67.404644 34.422331 67.78125 32.90625 L 57.21875 32.90625 L 55.71875 32.90625 L 55.71875 31.40625 L 55.71875 28.53125 L 54.46875 28.53125 L 48.125 22.9375 C 47.788915 21.216468 46.950517 19.663271 45.8125 18.625 C 44.347256 17.288186 42.656957 16.736454 41.1875 16.46875 z M 57.21875 22.34375 L 57.21875 31.40625 L 78.25 31.40625 L 82.25 26.875 L 78.25 22.34375 L 57.21875 22.34375 z M 8.75 49.65625 C 8.1678224 49.68157 7.5926893 49.855198 7.09375 50.15625 C 6.9963693 50.22433 6.9024579 50.297373 6.8125 50.375 C 6.5374595 50.587466 6.2943269 50.841168 6.09375 51.125 C 6.0258797 51.225817 5.9632674 51.330173 5.90625 51.4375 C 5.7923731 51.635973 5.6980198 51.845642 5.625 52.0625 C 5.5879404 52.175392 5.5566414 52.290174 5.53125 52.40625 C 5.5047104 52.519699 5.4838396 52.63447 5.46875 52.75 C 5.4526902 52.863972 5.4422591 52.978745 5.4375 53.09375 L 5.4375 55.59375 L 3.5 55.59375 C 1.6674531 55.594037 0.00018313069 57.261206 0 59.09375 L 0 81.875 C 0.00017222322 83.70755 1.6674531 85.374819 3.5 85.375 L 14.375 85.375 C 16.207547 85.374713 17.874816 83.70755 17.875 81.875 L 17.875 59.09375 C 17.874713 57.261206 16.207547 55.593931 14.375 55.59375 L 12.4375 55.59375 L 12.4375 53.09375 C 12.434974 52.95788 12.424543 52.822158 12.40625 52.6875 C 12.362841 52.342678 12.267701 52.004402 12.125 51.6875 C 12.078161 51.580819 12.025991 51.47648 11.96875 51.375 C 11.910831 51.2783 11.848228 51.184408 11.78125 51.09375 C 11.71317 50.996369 11.640127 50.902458 11.5625 50.8125 C 11.48345 50.725031 11.399972 50.641553 11.3125 50.5625 C 11.13906 50.408914 10.950327 50.272607 10.75 50.15625 C 10.449927 49.97322 10.12212 49.835753 9.78125 49.75 C 9.6678037 49.72346 9.5530273 49.702601 9.4375 49.6875 C 9.3235227 49.67144 9.2087521 49.661012 9.09375 49.65625 C 8.9792589 49.65065 8.8644911 49.65065 8.75 49.65625 z " transform="matrix(-34.838508,0,0,34.838508,-875.8967,3620.0369)" id="path4151"/>
  </g>
</svg>