<svg xmlns="http://www.w3.org/2000/svg" xmlns:xlink="http://www.w3.org/1999/xlink" version="1.1" id="Layer_1" x="0px" y="0px" width="100px" height="100px" viewBox="0 0 100 100" enable-background="new 0 0 100 100" xml:space="preserve">
<polygon points="7.177,14.174 34.077,28.311 60.929,40.583 75.663,29.889 79.918,32.84 63.174,49.173 43.342,41.366 35.584,61.11   41.511,77.577 55.487,83.621 55.479,89.66 37.186,83.279 25.975,64.2 12.118,68.73 18.835,89.66 12.255,89.66 1.824,64.682   23.098,54.8 30.103,35.438 4.981,18.429 "/>
<circle cx="43.685" cy="22.598" r="7.549"/>
<path d="M91.875,35.651l-3.976-2.656c-1.263,1.182-3.164,1.423-4.594,0.463l-10.96-7.355c-0.341-0.229-0.417-0.706-0.181-1.055  l4.218-6.279c0.236-0.349,0.696-0.456,1.036-0.227l10.961,7.355c1.428,0.96,1.935,2.811,1.313,4.429l1.33,0.893  C90.4,33.112,91.875,35.651,91.875,35.651z"/>
<path d="M94.04,36.176c0,0-2.093-0.588-1.961-4.995c0.101-3.394,3.322-2.2,3.481-7.859c-0.038,6.385,2.343,7.595,2.859,8.383  c0.586,0.892,1.07,3.401-2.411,4.471c2.598-1.764,1.97-3.278,1.495-3.863c-0.971-1.194-1.4-0.385-2.383-3.095  c-1.827,1.404-2.048,2.075-2.179,3.173C92.897,33.244,92.549,34.871,94.04,36.176z"/>
</svg>