<svg xmlns="http://www.w3.org/2000/svg" xmlns:xlink="http://www.w3.org/1999/xlink" version="1.1" id="Layer_1" x="0px" y="0px" width="100px" height="100px" viewBox="0 0 100 100" enable-background="new 0 0 100 100" xml:space="preserve">
<path fill-rule="evenodd" clip-rule="evenodd" fill="#000000" d="M56.641,33.885c-3.963,0-7.916,0-11.866,0  c2.526,8.729-4.032,8.376-5.079,13.542c3.538-0.711,4.7,0.236,6.86,0.921c0.887,17.253-2.057,31.549-10.25,39.727  c0.381,5.273,10.08,3.496,13.557,3.393C57.4,82.151,62.959,68.92,58.82,51.459c0.275-1.989,1.919-3.532,3.906-3.796  C58.069,45.375,54.87,41.858,56.641,33.885z"/>
<path fill-rule="evenodd" clip-rule="evenodd" fill="#000000" d="M83.725,21.244c1.549,1.883,4.16,6.151-1.691,6.777  c-16.551,3.904-44.302,5.214-62.668,1.699c-3.097-0.579-2.708-2.842-1.688-5.088C22.66,6.865,73.843,6.613,83.725,21.244z"/>
</svg>