<svg xmlns="http://www.w3.org/2000/svg" xmlns:xlink="http://www.w3.org/1999/xlink" version="1.1" id="Layer_1" x="0px" y="0px" width="100px" height="100px" viewBox="0 0 100 100" enable-background="new 0 0 100 100" xml:space="preserve">
<path d="M86.729,22.476c0,0.632,0.511,1.144,1.143,1.144s1.145-0.512,1.145-1.144s-0.513-1.144-1.145-1.144  S86.729,21.844,86.729,22.476L86.729,22.476z M54.494,37.364c-0.545,1.32-1.659,2.423-3.1,3.108  c0.102,0.443,0.154,0.897,0.154,1.364c0,3.327-2.693,6.173-6.552,7.222c0,0-0.736,0.194-1.055,0.07  c-0.233-0.09,0.27-0.268,0.27-0.268c3.043-1.216,5.154-3.875,5.154-6.961c0-2.259-1.132-4.291-2.933-5.693h-5.276  c-3.151,1.433-5.022,3.867-5.022,6.671c0,4.429,3.403,8.002,11.384,8.051c8.302,0.05,10.176-4.865,10.412-6.109  C58.572,41.425,57.336,38.215,54.494,37.364L54.494,37.364z M9.402,18.092l67.983,0.192v-0.696h1.047v-0.929h1.087v0.929h1.047  v0.705l1.223,0.004l0.178,0.36c0,0,1.519,2.876,1.88,3.433c0.283,0.438,1.001,0.784,1.294,0.91c-0.013-0.111-0.02-0.224-0.02-0.338  c0-1.558,1.23-2.82,2.75-2.82s2.751,1.262,2.751,2.82c0,0.962-0.471,1.812-1.188,2.321V26.4l2.516,4.055  c0,0,4.022,2.941,4.363,4.035c0.34,1.094-0.099,3.204-2.286,3.38c-2.188,0.176-3.269,1.716-4.658,3.301  c-1.388,1.585-0.962,5.621-0.962,5.621l5.719,11.602c0,0,4.393,9.492,5.391,13.494c0.999,4.002-1.225,5.687-1.225,5.687h-8.333  c0,0,0.032,1.521,0,2.535s-1.388,1.553-1.388,1.553s-11.832,3.903-13.417,4.363c-1.585,0.458-3.511,0.471-4.2-0.263  c-0.688-0.733-0.393-1.192-0.098-1.487c0.295-0.294,0.917-1.945,1.323-3.63c0.405-1.683,0.032-2.711,0.032-2.711l0.951-0.033  l-0.1-0.406h-0.916l-0.23-1.277c0,0-5.358-19.803-6.484-22.888c-0.699-1.915-2.362-2.455-3.523-2.589  c-5.114,0.012-10.632,1.996-17.594,1.024c-8.855-1.235-8.716-7.62-9.672-10.789c-0.956-3.168-6.058-4.264-6.058-4.264v-0.506h-0.145  h-1.454c-0.689,0-0.492-0.262-0.492-0.262s-0.209-0.164-0.439-0.491c-0.229-0.329-2.175-1.095-3.597-1.553  c-1.421-0.459-6.013-0.702-6.013-0.702h-2.856c0,0-0.131-0.294-0.753-0.95c-0.623-0.655-3.072-1.028-3.072-1.028H4.47  c-0.393,0-0.459-0.262-0.459-0.262l-0.012-0.606c-0.754-0.123-1.415-0.942-1.831-2.149H1.46C0.918,28.16,0.5,26.801,0.5,25.13  c0-1.67,0.418-3.029,0.938-3.071l0.776,0c0.385-1.045,0.958-1.776,1.613-1.979c0.114-1.856,0.905-1.988,0.905-1.988h0.583  c0.647-0.532,1.852-0.89,3.229-0.89l0.19,0.002v0.888H9.402L9.402,18.092z"/>
</svg>