<svg xmlns="http://www.w3.org/2000/svg" xmlns:xlink="http://www.w3.org/1999/xlink" version="1.1" id="Layer_1" x="0px" y="0px" width="100px" height="100px" viewBox="0 0 100 100" enable-background="new 0 0 100 100" xml:space="preserve">
<path d="M32.626,54.83c0,0-4.175-4.383-4.524-4.759c-0.104-0.113-0.174-0.197-0.24-0.217c-0.104-0.059-0.215,0.076-0.215,0.076  l-0.673,0.641c-0.236,0.223-0.294,0.342-0.304,0.464c-0.012,0.164,0.069,0.301,0.069,0.301l1.871,3.992  c0.395-0.227,0.889-0.185,1.195,0.137c0.364,0.384,0.323,1.01-0.089,1.399c-0.087,0.089-0.188,0.153-0.292,0.201l0.262,0.562  l0.269-0.254L32.626,54.83L32.626,54.83z M59.387,59.405l-1.299,1.235l0.018,0.02c0.135,0.139,0.135,0.355,0.002,0.484  c-0.136,0.125-0.35,0.115-0.486-0.021l-0.016-0.027l-1.615,1.537l0.18,0.189c0.539,0.564,0.602,1.379,0.141,1.819  c-0.463,0.438-1.275,0.339-1.814-0.229l-0.182-0.188l-0.803,0.764c-0.816,0.938-2.18,1.062-3.378,1.055  c-0.008,0.293-0.112,0.576-0.234,0.684c-0.151,0.13-0.415,0.42-0.43,0.545c-0.017,0.121,0.231,1.633,0.579,2.785  c0.349,1.153,1.241,3.554,1.685,4.905c0.447,1.354,1.135,1.865,2.211,2.11c1.076,0.246,0.797,1.248,0.797,1.248l0.697-0.45  c-0.201-0.364-0.111-0.862,0.238-1.196c0.41-0.393,1.027-0.414,1.369-0.053c0.043,0.045,0.08,0.094,0.111,0.145  c4.044-2.605,11.752-7.619,11.864-7.981c0.147-0.486-0.31-0.839-0.31-0.839L59.387,59.405L59.387,59.405z M54.654,55.078  c0,0-2.49,2.383-4.49,4.285c-0.345,0.791-0.201,1.947,0.55,2.733c0.645,0.679,1.487,1.005,2.194,0.915l0.123,0.131  c-1.098,0.712-2.911,0.243-4.237-1.151c-0.23-0.245-0.435-0.501-0.605-0.763c-1.57,1.508-0.75,2.714-0.254,3.26  c0.5,0.555,0.643,0.595,1.53,0.67c0.187,0.018,0.328,0.084,0.429,0.18c1.064,0.02,2.292-0.061,2.938-0.662  c0.094-0.088,0.166-0.171,0.166-0.171l0.857-0.815l-0.115-0.12l5.002-4.757L54.654,55.078L54.654,55.078z M79.048,3.12  c-0.132-0.143-0.313-0.188-0.403-0.104C78.557,3.1,78.596,3.282,78.73,3.425l1.101,1.161c0.14,0.14,0.316,0.188,0.406,0.104  c0.088-0.084,0.052-0.267-0.083-0.408L79.048,3.12L79.048,3.12z M55.07,32.132l-1.205-1.266c0,0-0.172-0.19-0.338,0.301  c-0.104,0.312-0.162,0.843-0.023,1.397c0.141,0.558,0.291,0.737,0.291,0.737l0.223-0.213l0.09,0.089l0.84-0.799  c0,0,0.102,0.116,0.244,0.088c0.146-0.031,0.168-0.05,0.168-0.05L55.07,32.132L55.07,32.132z M25.848,51.621  c-0.686-1.462-1.255-2.704-1.379-3.035c-0.341-0.917,0.086-1.162,0.086-1.162l0.706-0.676c0.64-0.607,0.903-0.199,0.903-0.199  l7.207,7.578l14.896-14.085L48.133,39.9L53.281,35l-0.24-0.252l0.158-0.151l-0.211-0.223l0.311-0.297  c-0.709-1.323-0.547-3.591,0.371-4.591c0,0,0.352-0.377,0.529,0.783c0.078,0.491,0.924,1.125,1.299,1.409  c0.381,0.287,0.602-0.049,0.602-0.049l0.115,0.125l0.373-0.356l0.229,0.244l0.545-0.518l0.203,0.218L80.817,9.813l0.494,0.012  l0.174-0.162l-1.688-1.756L76.621,2.12l0.291-0.276L76.32,1.22l0.646-0.617l0.594,0.622l0.357-0.338l6.099,6.412l0.365-0.348  l0.147,0.156l0.375-0.356l0.197,0.184l2.005,0.051l-0.069,2.006l0.243,0.254l-0.373,0.357l0.773,0.814l0.558-0.53l0.244,0.257  l7.555-7.188l2.301,2.415l-7.559,7.186l0.246,0.256l-0.562,0.531l0.602,0.632l-0.359,0.341c0.111,0.603-0.426,1.104-0.426,1.104  S61.441,45.033,61.101,45.355c-0.339,0.322-0.791-0.001-0.791-0.001l-1.162-1.111l-0.199,0.243c0,0,16.052,14.694,17.28,15.817  c1.225,1.12,0.393,1.576,0.393,1.576l-6.586,7.118l-0.484-0.452c0,0,0.021,0.248-0.032,0.622c-0.056,0.376-0.565,0.911-0.565,0.911  l-7.137,6.63c0,0-12.654,5.51-13.31,5.725c-0.657,0.208-0.981,0.021-0.981,0.021s-3.769-3.566-3.81-9.285  c-0.03-4.582-2.261-5.895-4.353-6.138c-2.487-0.293-4.689,2.759-4.689,2.759S15.488,97.371,14.583,98.693  c-0.905,1.329-1.768,0.363-1.768,0.363L0.686,86.299c-0.665-0.694,0.19-1.453,0.19-1.453l27.351-25.857l-0.518-0.544l0.943-0.896  l-0.307-0.633l-0.347,0.33l-0.455-0.865l0.379-0.359c-0.512-1.082-1.217-2.576-1.863-3.946l-0.382,0.366l-0.329-0.346L25.848,51.621  L25.848,51.621z"/>
</svg>