<svg xmlns="http://www.w3.org/2000/svg" xmlns:xlink="http://www.w3.org/1999/xlink" version="1.1" id="Layer_1" x="0px" y="0px" width="100px" height="100px" viewBox="0 0 100 100" enable-background="new 0 0 100 100" xml:space="preserve">
<g>
	<path d="M33.224,87.771L11.478,66.025c-1.232-1.232-0.978-2.68,0.001-3.66c0.977-0.977,2.426-1.232,3.659,0l21.746,21.746   c1.233,1.232,0.978,2.682,0,3.66C35.904,88.75,34.457,89.004,33.224,87.771L33.224,87.771z M87.984,12.083   c14.459,14.459,14.458,37.819,0.05,52.227C80.675,71.67,70.905,75.275,61.236,75.09c-3.404,0.312-6.682,1.777-13.688,8.186   c-1.688,1.543-3.62,1.096-4.819-0.215c-1.198-1.309-1.471-3.275,0.215-4.818c7.423-6.791,12.281-9.508,18.106-9.971   c7.927,0.189,16.117-2.742,22.159-8.785C94.955,47.741,94.953,28.7,83.152,16.897C71.406,5.153,52.371,5.158,40.625,16.902   c-6.041,6.041-8.972,14.23-8.784,22.156c-0.463,5.826-3.18,10.684-9.971,18.109c-1.542,1.686-3.509,1.414-4.818,0.215   s-1.757-3.133-0.215-4.818c6.409-7.007,7.875-10.284,8.185-13.688c-0.185-9.67,3.42-19.438,10.78-26.798   C50.21-2.33,73.575-2.325,87.984,12.083L87.984,12.083z M27.208,93.787L5.462,72.041c-1.233-1.232-0.979-2.68,0-3.66   c0.979-0.979,2.427-1.232,3.659,0l21.746,21.748c1.233,1.23,0.979,2.678,0,3.656C29.888,94.766,28.44,95.02,27.208,93.787   L27.208,93.787z M18.844,97.455L1.794,80.408c-1.233-1.236-0.979-2.682,0-3.662c0.979-0.979,2.426-1.232,3.66,0l17.049,17.051   c1.232,1.23,0.979,2.68,0,3.658C21.523,98.436,20.076,98.689,18.844,97.455L18.844,97.455z M13.766,97.316   c-2.882,1.053-6.601,0.129-9.318-2.59c-2.719-2.717-3.642-6.436-2.588-9.318L13.766,97.316L13.766,97.316z"/>
</g>
</svg>