<svg xmlns="http://www.w3.org/2000/svg" xmlns:xlink="http://www.w3.org/1999/xlink" version="1.1" x="0px" y="0px" width="100px" height="100px" viewBox="0 0 100 100" enable-background="new 0 0 100 100" xml:space="preserve">
<g id="Layer_1">
	<g>
		<path fill="#000000" d="M63.967,35.613C82.207,31.955,95.39,21.439,95.39,9.032H4.177c0,12.407,13.182,22.922,31.422,26.581    c1.718,6.195,5.95,10.923,11.184,12.248v33.864c-3.126,0.414-5.348,1.454-5.348,2.675c0,0.092,0.016,0.182,0.04,0.271    c-10.713,0.915-18.458,3.549-18.458,6.657H76.55c0-3.108-7.744-5.742-18.459-6.657c0.024-0.089,0.04-0.18,0.04-0.271    c0-1.221-2.222-2.261-5.348-2.675V47.861C58.017,46.536,62.249,41.808,63.967,35.613z M49.783,16.751    c-23.281,0-42.155-2.632-42.155-5.877h84.312C91.939,14.12,73.065,16.751,49.783,16.751z"/>
	</g>
</g>
<g id="Layer_2" display="none">
	<g display="inline">
		<g>
			<path fill="#000000" d="M49.784,37C74.971,37,95.39,24.477,95.39,9.032H4.177C4.177,24.477,24.596,37,49.784,37z"/>
		</g>
	</g>
	<g display="inline">
		<ellipse fill="#000000" cx="49.783" cy="29.483" rx="15.021" ry="18.753"/>
	</g>
	<g display="inline">
		<ellipse fill="#000000" cx="49.783" cy="84.399" rx="8.348" ry="2.868"/>
	</g>
	<g display="inline">
		<g>
			<path fill="#000000" d="M49.783,84.324c-14.782,0-26.766,3.136-26.766,7.003H76.55C76.55,87.46,64.566,84.324,49.783,84.324z"/>
		</g>
	</g>
	<g display="inline">
		<rect x="46.783" y="12.861" fill="#000000" width="6" height="72.032"/>
	</g>
	<g display="inline">
		<g>
			<path fill="#000000" d="M49.783,16.751c23.282,0,42.156-2.632,42.156-5.877H7.628C7.628,14.12,26.502,16.751,49.783,16.751z"/>
		</g>
	</g>
</g>
</svg>