<svg xmlns="http://www.w3.org/2000/svg" xmlns:xlink="http://www.w3.org/1999/xlink" version="1.1" id="Layer_1" x="0px" y="0px" width="100.0px" height="100px" viewBox="0 0 140 140" enable-background="new 0 0 140 140" xml:space="preserve">
<polygon points="125.424,84.605 122.785,64.463 99.018,39.83 88.055,61.689 79.425,40.013 63.959,26.84 45.269,64.111   32.078,46.977 3.464,104.064 6.146,105.41 33.087,51.688 33.041,67.502 41.384,79.018 33.451,89.368 56.942,112.084 47.181,83.151   51.875,72.681 47.302,66.748 64.331,32.791 61.289,51.872 67.87,62.471 65.556,80.579 78.953,66.461 89.54,65.419 99.993,44.576   103.716,74.605 89.86,81.181 83.751,112.084 109.362,91.281 134.522,102.367 "/>
<line fill="#000000" stroke="#000000" stroke-width="3" stroke-linecap="square" stroke-miterlimit="10" x1="181.764" y1="48.322" x2="154.145" y2="103.396"/>
<line fill="#000000" stroke="#000000" stroke-width="3" stroke-linecap="square" stroke-miterlimit="10" x1="213.765" y1="27.916" x2="194.952" y2="65.43"/>
<line fill="#000000" stroke="#000000" stroke-width="3" stroke-linecap="square" stroke-miterlimit="10" x1="248.353" y1="41.843" x2="237.539" y2="63.406"/>
<polyline points="248.323,41.868 248.321,41.843 248.333,41.854 248.336,41.843 271.452,64.463 274.091,84.605 283.189,102.367   258.029,91.281 232.418,112.084 238.527,81.181 252.383,74.605 248.321,41.843 "/>
<polyline points="213.767,27.97 213.775,27.916 213.788,27.931 213.797,27.916 228.092,40.013 238.356,65.43 227.62,66.461   214.223,80.579 216.537,62.471 209.955,51.872 213.767,27.97 "/>
<polygon points="205.609,112.084 195.848,83.151 200.543,72.681 181.764,48.322 181.707,67.502 190.051,79.018 182.118,89.368 "/>
</svg>