<?xml version="1.0" encoding="utf-8"?>
<!-- Generator: Adobe Illustrator 15.1.0, SVG Export Plug-In . SVG Version: 6.00 Build 0)  -->
<!DOCTYPE svg PUBLIC "-//W3C//DTD SVG 1.1//EN" "http://www.w3.org/Graphics/SVG/1.1/DTD/svg11.dtd">
<svg version="1.1" id="Layer_1" xmlns="http://www.w3.org/2000/svg" xmlns:xlink="http://www.w3.org/1999/xlink" x="0px" y="0px"
	 width="100px" height="100px" viewBox="0 0 100 100" enable-background="new 0 0 100 100" xml:space="preserve">
<path d="M96.705,32.148c-2.543-6.651-6.457-12.624-11.409-17.561C76.358,5.68,64.068,0.142,50.483,0.012C50.322,0.011,50.162,0,50,0
	c-8.984,0-17.408,2.382-24.695,6.53C14.702,12.567,6.528,22.365,2.592,34.114c-1.66,4.956-2.576,10.253-2.589,15.765
	C0.003,49.92,0,49.959,0,50c0,2.961,0.272,5.857,0.766,8.677c0.685,3.907,1.815,7.659,3.351,11.198
	c7.627,17.583,25.057,29.918,45.397,30.113C49.677,99.989,49.837,100,50,100c8.961,0,17.363-2.369,24.637-6.496
	C89.777,84.91,100,68.654,100,50C100,43.708,98.827,37.693,96.705,32.148z M29.643,18.708c0.464-2.403,1.08-4.543,1.82-6.398
	c5.024-2.476,10.612-3.979,16.523-4.259c1.481,1.218,2.995,2.734,4.505,4.522c1.765,2.088,3.523,4.549,5.224,7.36
	c4.026,6.658,7.718,15.258,10.336,25.416c0.496,1.928,0.931,3.848,1.316,5.755c-5.58,3.208-12.225,6.179-19.778,8.586
	c-5.066,1.614-10.122,2.826-15.026,3.628c-0.953-2.746-1.833-5.636-2.614-8.669c-2.576-9.999-3.529-19.207-3.269-26.935
	C28.791,24.426,29.123,21.406,29.643,18.708z M8,50c0-3.875,0.535-7.622,1.518-11.185c1.431-5.188,3.824-9.976,6.988-14.151
	c1.468-1.938,3.103-3.74,4.878-5.395c-0.158,1.015-0.291,2.058-0.402,3.123c-0.301,2.892-0.426,5.961-0.369,9.18
	c0.135,7.67,1.296,16.17,3.589,25.073c0.673,2.612,1.422,5.153,2.235,7.616C24.708,64.381,23,64.46,21.343,64.46
	c-4.211,0-7.974-0.4-11.171-1.133C8.771,59.139,8,54.66,8,50z M14.277,72.086c2.228,0.238,4.575,0.374,7.065,0.374
	c2.59,0,5.268-0.145,8-0.405c3.047,7.309,6.68,13.671,10.628,18.73C29.154,88.135,19.985,81.299,14.277,72.086z M70.531,80.177
	c-0.482,2.868-1.167,5.388-2.015,7.524c-5.02,2.47-10.602,3.97-16.505,4.248c-4.897-4.024-10.133-11.262-14.462-21.037
	c4.758-0.858,9.614-2.053,14.468-3.599c6.863-2.188,13.145-4.834,18.705-7.782C71.604,67.025,71.555,74.088,70.531,80.177z
	 M75.797,43.354c-2.304-8.938-5.483-17.063-9.199-23.956c-1.526-2.832-3.143-5.459-4.829-7.842c-0.573-0.81-1.154-1.589-1.743-2.342
	c2.256,0.553,4.441,1.283,6.537,2.184c5.405,2.322,10.221,5.748,14.173,9.991c3.113,3.343,5.684,7.194,7.581,11.416
	c-1.42,4.139-5.494,8.963-11.774,13.624C76.307,45.405,76.062,44.38,75.797,43.354z M78.522,80.82
	c1.189-7.613,1.061-16.455-0.331-25.712c5.58-3.707,10.076-7.728,13.266-11.832C91.811,45.467,92,47.711,92,50
	C92,62.183,86.809,73.148,78.522,80.82z"/>
</svg>
