<svg xmlns="http://www.w3.org/2000/svg" xmlns:xlink="http://www.w3.org/1999/xlink" version="1.1" id="Layer_1" x="0px" y="0px" width="100px" height="100px" viewBox="0 0 100 100" enable-background="new 0 0 100 100" xml:space="preserve">
<polyline points="46.539,99.904 45.656,59.516 47.422,56.718 51.69,99.904 "/>
<path d="M49.49,53.627c-1.186-6.768,0.728-15.16,4.85-18.985c4.12-3.827,14.275-7.656,18.396-10.598  c4.12-2.944,8.831-9.126,9.272-13.688c3.828,2.206,5.3,18.397,4.563,25.608c-0.734,7.213-5.432,21.869-19.428,22.519  c-12.951,0.604-16.191-3.235-16.191-3.235s1.769-5.154,6.772-10.01c5.005-4.857,9.419-6.476,9.419-6.476s-7.929,1.323-11.755,6.091  C51.563,49.623,49.49,53.627,49.49,53.627z"/>
<path d="M44.919,54.951c3.754-8.388,1.325-21.204-1.472-25.765c-2.797-4.562-9.126-9.999-8.979-17.063  c0.148-7.065,1.914-12.218,1.914-12.218S24.46,3.732,20.193,12.123c-4.268,8.389-5.447,18.25-1.032,30.172  c3.842,10.369,16.044,18.106,25.169,14.423c-4.269-4.268-6.309-6.193-8.389-9.271c-2.625-3.886-4.71-12.993-4.71-12.993  s5.36,10.916,8.157,14.152C42.187,51.846,44.919,54.951,44.919,54.951z"/>
</svg>