<svg xmlns="http://www.w3.org/2000/svg" xmlns:xlink="http://www.w3.org/1999/xlink" version="1.1" id="Layer_1" x="0px" y="0px" width="100px" height="100px" viewBox="0 0 100 100" enable-background="new 0 0 100 100" xml:space="preserve">
<g>
	<path d="M88.82,23.353c-10.678,1.811-28.461,4.837-28.461,4.837c0.725,0.268,1.545,0.857,2.355,1.746   c6.072-1.021,20.966-3.558,28.066-4.768C90.154,24.405,89.49,23.79,88.82,23.353L88.82,23.353z M51.104,29.697   c-2.814,0.463-5.693,0.933-6.576,1.067c-7.542,1.147-15.134-0.712-21.789-4.222c2.958,5.052,5.49,11.882,7,19.646   c1.29,6.635,1.633,12.915,1.177,18.216c3.945-4.182,9.584-8.506,16.988-10.26l7.792-1.834c2.33-3.134,2.284-8.632,1.631-11.996   c-1.069-5.48-3.966-9.483-6.214-10.613L51.104,29.697L51.104,29.697z M61.461,50.959c2.055-0.398,4.379-5.139,3.033-12.061   c-1.313-6.736-5.135-10.457-7.211-10.224l-4.361,0.723c2.361,1.907,4.692,5.839,5.635,10.677c0.92,4.73,0.277,9.144-1.137,11.832   L61.461,50.959L61.461,50.959z M8.798,20.345l-0.397,0.091c-4.961,1.14-8.337,13.535-5.078,30.29   c2.875,14.782,9.483,25.034,14.599,26.132l0.312,0.066l0.261,0.184c1.643,1.16,3.094,1.514,4.338,1.274   c5.349-1.04,8.974-14.165,5.521-31.923C24.9,28.701,16.62,17.888,11.27,18.928c-0.75,0.146-1.473,0.516-2.168,1.145L8.798,20.345   L8.798,20.345z M96.929,40.409l-0.905,0.229c-0.061,0.238-0.126,0.471-0.197,0.696C96.229,41.094,96.6,40.783,96.929,40.409   L96.929,40.409z M97.979,38.715l-1.667,0.421c-0.036,0.262-0.078,0.519-0.127,0.769l1.359-0.343   C97.706,39.297,97.85,39.015,97.979,38.715L97.979,38.715z M98.477,37.163l-2.023,0.511c-0.014,0.254-0.031,0.504-0.057,0.751   l1.867-0.472C98.346,37.697,98.416,37.434,98.477,37.163L98.477,37.163z M98.691,35.679l-2.219,0.561   c0.007,0.249,0.008,0.494,0.003,0.736l2.132-0.539C98.645,36.19,98.672,35.938,98.691,35.679L98.691,35.679z M98.707,34.248   l-2.318,0.586c0.023,0.243,0.041,0.483,0.056,0.722l2.274-0.575C98.723,34.74,98.719,34.495,98.707,34.248L98.707,34.248z    M98.563,32.855l-2.351,0.595c0.038,0.239,0.071,0.476,0.102,0.711l2.342-0.593c-0.018-0.164-0.035-0.328-0.059-0.494   L98.563,32.855L98.563,32.855z M98.277,31.5l-2.332,0.59c0.053,0.229,0.102,0.461,0.147,0.696l2.351-0.592   C98.395,31.96,98.34,31.729,98.277,31.5L98.277,31.5z M94.898,28.808l2.03-0.513c-0.132-0.218-0.271-0.429-0.413-0.632   l-1.907,0.483C94.708,28.36,94.806,28.583,94.898,28.808L94.898,28.808z M95.388,30.112l2.202-0.557   c-0.102-0.225-0.209-0.443-0.32-0.657l-2.121,0.537C95.23,29.657,95.311,29.883,95.388,30.112L95.388,30.112z M95.784,31.44   l2.305-0.583c-0.073-0.23-0.155-0.457-0.239-0.678l-2.258,0.572C95.659,30.978,95.725,31.207,95.784,31.44L95.784,31.44z    M92.76,25.064l0.517-0.13c-0.269-0.105-0.542-0.186-0.815-0.24C92.561,24.814,92.66,24.938,92.76,25.064L92.76,25.064z    M93.607,26.278l1.338-0.338c-0.246-0.203-0.498-0.386-0.758-0.545l-0.998,0.252C93.332,25.85,93.471,26.061,93.607,26.278   L93.607,26.278z M94.311,27.529l1.764-0.446c-0.174-0.212-0.354-0.413-0.541-0.6l-1.57,0.397   C94.082,27.09,94.197,27.307,94.311,27.529L94.311,27.529z M99.373,32.966c0.594,4.233-0.907,8.347-3.941,9.429   c-0.732,1.673-1.807,2.788-3.088,3.036l-5.904,1.297v2.665c0,0-0.147,0-1.279,0.394c-1.135,0.395-3.721,2.781-10.91,20.346   c-1.273,3.113-3.732,10.516-4.719,15.086c-0.984,4.569-1.865,4.078-8.155,2.111c-6.289-1.963-4.077-3.098-3-4.568   c1.077-1.475,2.36-3.537,3.345-9.636c0.986-6.097,3.99-7.179,4.924-8.997c0.938-1.817-1.732-3.336-2.269-3.581   c-0.444-0.202-0.175-0.831-0.069-1.042l1.955,0.631c0.27,0.088,0.762,0.197,0.983-0.051c0.562-0.615,1.604-3.82,1.89-4.777   c0.225-0.735,0.529-2.006,0.529-2.006c0.057-0.238-0.211-0.355-0.363-0.251c-0.043,0.028-0.08,0.075-0.094,0.142l-0.022,0.088   c-0.345,1.396-1.591,5.726-2.286,6.49c-0.029,0.03-0.392-0.047-0.491-0.082l-1.674-0.539c-0.396-0.771-0.425-0.85-0.595-1.217   c-0.203-0.442,0.273-0.707,0.273-0.707s0.453-0.07,1.597-2.452c0.369-0.77,0.519-1.495,0.555-2.121l-0.321-0.063l-1.084-0.986   l-0.026-0.158c-7.554,1.682-13.746,3.078-16.958,3.842c-7.797,1.85-13.597,6.68-17.472,11.099   c-0.977,7.474-3.669,12.616-7.599,13.378c-1.738,0.339-3.576-0.205-5.418-1.502C11.519,76.926,4.796,65.686,1.938,50.994   c-3.18-16.35-0.316-30.449,6.147-31.932c0.928-0.813,1.878-1.317,2.916-1.519c3.364-0.653,7.092,2.009,10.42,6.908   c5.327,3.135,13.62,6.567,22.93,5.151c6.666-1.015,25.886-4.295,43.682-7.308c1.156-0.146,2.418,0.427,3.607,1.536   C95.438,23.825,98.694,28.124,99.373,32.966L99.373,32.966z M4.941,50.416C2.247,36.573,4.375,24.515,9.695,23.482   c4.621-0.898,10.128,6.817,13.262,17.929l-6.182,1.283c-1.568,0.353-2.325,3.366-1.688,6.73c0.631,3.341,2.397,5.769,3.993,5.452   l6.097-1.265c0.896,10.726-1.321,19.137-5.725,19.993C14.132,74.641,7.635,64.257,4.941,50.416L4.941,50.416z M15.544,49.508   c-0.483-2.536,0.083-4.807,1.266-5.071c1.182-0.265,2.533,1.576,3.017,4.112c0.484,2.536-0.083,4.807-1.266,5.071   C17.378,53.885,16.028,52.044,15.544,49.508L15.544,49.508z"/>
</g>
</svg>