<svg xmlns="http://www.w3.org/2000/svg" xmlns:xlink="http://www.w3.org/1999/xlink" version="1.1" id="Ebene_1" x="0px" y="0px" width="50px" height="50px" viewBox="0 0 50 50" enable-background="new 0 0 50 50" xml:space="preserve">
<path d="M24.697,23.213c-0.066,0-0.134-0.002-0.201-0.006c-0.884,0.049-1.659-0.228-2.244-0.777  c-0.048-0.045-0.094-0.091-0.139-0.139c-0.049,0.053-0.101,0.105-0.154,0.156c-0.601,0.56-1.392,0.821-2.311,0.756  c-0.551-0.039-0.966-0.518-0.926-1.068c0.038-0.551,0.504-0.959,1.068-0.927c0.455,0.03,0.68-0.11,0.801-0.221  c0.413-0.38,0.515-1.201,0.518-1.46c0.003-0.55,0.449-0.995,1-0.995c0.545,0,0.988,0.437,1,0.979l0,0c0,0.002,0,0.004,0,0.006v0  c0,0,0,0.001,0,0.001c0,0,0,0,0,0.001v0v0.001v0c0,0,0,0.001,0,0.001c0,0,0,0.001,0,0.001c0,0,0,0,0,0v0c0,0.001,0,0.003,0,0.003  c0,0.001,0,0.002,0,0.003c0.003,0.249,0.104,1.062,0.517,1.444c0.122,0.113,0.35,0.261,0.812,0.231c0.044-0.003,0.088-0.003,0.134,0  c0.457,0.03,0.68-0.11,0.801-0.221c0.413-0.38,0.515-1.201,0.518-1.46c0.003-0.55,0.449-0.995,1-0.995c0.547,0,0.991,0.439,1,0.984  v0c0,0.001,0,0.001,0,0.002c0,0,0,0,0,0.001v0c0,0,0,0,0,0s0,0,0,0.001c0,0.001,0,0.003,0,0.004c0,0.001,0,0.002,0,0.003l0,0  c0,0,0,0,0,0c0,0.001,0,0.002,0,0.003c0.003,0.249,0.104,1.062,0.517,1.444c0.122,0.113,0.351,0.261,0.812,0.231  c0.544-0.041,1.025,0.384,1.061,0.936c0.034,0.551-0.385,1.026-0.936,1.061c-0.908,0.06-1.711-0.21-2.311-0.774  c-0.048-0.045-0.094-0.091-0.139-0.139c-0.049,0.053-0.101,0.105-0.154,0.156C26.198,22.951,25.496,23.213,24.697,23.213z"/>
<path d="M29.28,30.343v4.345c0,1.1-0.9,2-2,2h-0.481c0,0.828-0.672,1.5-1.5,1.5h-1.598c-0.828,0-1.5-0.672-1.5-1.5H21.72  c-1.1,0-2-0.9-2-2v-4.345c-3.106-1.698-5.22-4.997-5.22-8.78c0-5.514,4.486-10,10-10s10,4.486,10,10  C34.5,25.346,32.387,28.645,29.28,30.343z M32.5,21.562c0-4.411-3.589-8-8-8s-8,3.589-8,8s3.589,8,8,8S32.5,25.974,32.5,21.562z"/>
</svg>