<svg xmlns="http://www.w3.org/2000/svg" xmlns:xlink="http://www.w3.org/1999/xlink" version="1.1" id="Layer_1" x="0px" y="0px" width="100px" height="100px" viewBox="0 0 100 100" enable-background="new 0 0 100 100" xml:space="preserve">
<g>
	<path d="M10.602,82.199c0.312,0.309,0.657,0.602,0.975,0.826c0.295,0.232,0.839,0.439,1.612,0.623h73.702   c0.771-0.184,1.316-0.391,1.611-0.623c0.318-0.225,0.662-0.518,0.975-0.826H10.602L10.602,82.199z M92.279,54.322   c0.033,0.479,0.051,0.961,0.053,1.445h2.949c-0.01-0.486-0.029-0.969-0.049-1.445H92.279L92.279,54.322z M4.854,54.322   c-0.021,0.477-0.039,0.959-0.052,1.445h44.006c0.001-0.484,0.02-0.967,0.053-1.445H4.854L4.854,54.322z M92.275,57.418   c-0.035,0.488-0.086,0.971-0.15,1.449h3.172c0.006-0.377,0.008-0.756,0.008-1.137v-0.312H92.275L92.275,57.418z M4.775,57.418   L4.773,57.85c0,0.342,0.002,0.68,0.007,1.018h44.234c-0.066-0.479-0.117-0.961-0.151-1.449H4.775L4.775,57.418z M91.832,60.516   c-0.107,0.49-0.232,0.973-0.371,1.449h3.729c0.027-0.479,0.049-0.961,0.066-1.449H91.832L91.832,60.516z M4.819,60.516   c0.017,0.488,0.038,0.971,0.063,1.449h44.795c-0.14-0.477-0.263-0.959-0.369-1.449H4.819L4.819,60.516z M90.906,63.613   c-0.188,0.492-0.391,0.975-0.613,1.449h4.66c0.049-0.477,0.088-0.959,0.129-1.449H90.906L90.906,63.613z M4.988,63.613   c0.038,0.49,0.079,0.973,0.125,1.449h45.732c-0.222-0.475-0.426-0.957-0.613-1.449H4.988L4.988,63.613z M89.436,66.711   c-0.289,0.496-0.59,0.979-0.914,1.447h6.057c0.068-0.473,0.133-0.955,0.193-1.447H89.436L89.436,66.711z M5.292,66.711   c0.06,0.492,0.124,0.975,0.192,1.447h47.133c-0.322-0.469-0.627-0.951-0.912-1.447H5.292L5.292,66.711z M87.27,69.809   c-0.42,0.502-0.863,0.986-1.326,1.449h8.102c0.094-0.473,0.186-0.955,0.27-1.449H87.27L87.27,69.809z M5.745,69.809   c0.086,0.494,0.176,0.977,0.271,1.449h49.18c-0.463-0.463-0.906-0.947-1.326-1.449H5.745L5.745,69.809z M84.092,72.908   c-0.654,0.52-1.344,1.004-2.057,1.445h11.281c0.127-0.465,0.25-0.947,0.367-1.445H84.092L84.092,72.908z M6.376,72.908   c0.118,0.498,0.241,0.98,0.368,1.445h52.357c-0.711-0.441-1.4-0.926-2.055-1.445H6.376L6.376,72.908z M78.805,76.004   c-1.746,0.717-3.605,1.209-5.543,1.449h19.057c0.176-0.457,0.344-0.939,0.508-1.449H78.805L78.805,76.004z M7.236,76.004   c0.165,0.51,0.335,0.992,0.511,1.449h60.132c-1.941-0.24-3.801-0.732-5.545-1.449H7.236L7.236,76.004z M8.455,79.102   c0.262,0.541,0.531,1.027,0.803,1.449h81.561c0.27-0.422,0.535-0.906,0.797-1.449H8.455L8.455,79.102z M51.148,55.855   c0,10.727,8.693,19.42,19.422,19.42c10.725,0,19.42-8.693,19.42-19.42s-8.695-19.422-19.42-19.422   C59.842,36.433,51.148,45.129,51.148,55.855L51.148,55.855z M97.797,49.352c0.283,2.641,0.436,5.455,0.436,8.381v0.162   C98.227,69.613,95.764,79.6,92.314,83.42c-0.586,0.742-1.283,1.402-2.062,1.949c-3.191,2.535-19.975,2.504-40.213,2.512   c-20.24-0.008-37.02,0.023-40.212-2.512c-0.78-0.547-1.479-1.207-2.064-1.949c-3.453-3.826-5.916-13.832-5.916-25.572v-0.162   c0.001-2.871,0.151-5.641,0.426-8.238c-0.965-1.304-1.444-3.412-1.167-5.789l0.029-0.234c-0.437-0.062-0.831-0.416-0.746-0.998   C1.893,32.27,5.104,23.312,9.106,19.275c0.787-0.874,1.689-1.651,2.674-2.301c0.274-0.195,0.602-0.385,0.979-0.57   c0.085-0.433,0.376-0.831,0.93-1.039c5.977-2.258,19.954-3.639,35.704-3.863c0.229-0.003,0.986-0.003,1.215,0   c15.75,0.224,29.727,1.605,35.705,3.863c0.553,0.208,0.842,0.606,0.928,1.039c0.379,0.185,0.705,0.375,0.98,0.57   c0.984,0.65,1.887,1.428,2.674,2.301c4.002,4.037,7.213,12.994,8.715,23.151c0.086,0.582-0.309,0.937-0.744,0.998l0.029,0.234   C99.164,45.978,98.713,48.041,97.797,49.352L97.797,49.352z M7.766,32.16c0.584-0.742,1.283-1.402,2.063-1.949   c3.191-2.535,19.973-4.471,40.212-4.478c20.238,0.007,37.021,1.943,40.213,4.478c0.779,0.547,1.477,1.207,2.062,1.949   c0.984,1.092,1.889,2.686,2.68,4.682c0.824,0.401,1.594,1.132,2.23,2.089c-1.658-8.426-4.475-15.302-7.607-18.45   c-0.693-0.772-1.521-1.487-2.393-2.059c-0.191-0.137-0.418-0.273-0.678-0.406c-0.338,0.208-0.775,0.273-1.27,0.086   c-5.428-2.049-18.898-3.449-34.713-3.674c-0.213-0.003-0.92-0.003-1.133,0c-15.813,0.226-29.285,1.625-34.711,3.674   c-0.496,0.187-0.933,0.122-1.271-0.086c-0.26,0.133-0.487,0.269-0.679,0.406c-0.869,0.572-1.698,1.287-2.391,2.059   c-3.133,3.148-5.95,10.024-7.608,18.45c0.664-0.995,1.469-1.746,2.33-2.136C5.889,34.822,6.788,33.243,7.766,32.16L7.766,32.16z    M52.518,55.855c0-9.97,8.082-18.053,18.053-18.053c9.967,0,18.051,8.083,18.051,18.053c0,9.971-8.084,18.051-18.051,18.051   C60.6,73.906,52.518,65.826,52.518,55.855L52.518,55.855z M57.406,55.855c0,7.27,5.893,13.164,13.164,13.164   c7.27,0,13.162-5.895,13.162-13.164c0-7.272-5.893-13.166-13.162-13.166C63.299,42.689,57.406,48.583,57.406,55.855L57.406,55.855z    M78.248,47.413l0.828,0.827l-5.824,5.827c0.342,0.512,0.541,1.127,0.541,1.789c0,1.779-1.443,3.223-3.223,3.223   c-0.664,0-1.279-0.199-1.789-0.541l-5.85,5.848l-0.828-0.828l5.838-5.834c-0.375-0.527-0.596-1.172-0.596-1.867   c0-1.781,1.443-3.223,3.225-3.223c0.693,0,1.338,0.221,1.865,0.594L78.248,47.413L78.248,47.413z"/>
</g>
</svg>