<svg xmlns="http://www.w3.org/2000/svg" xmlns:xlink="http://www.w3.org/1999/xlink" version="1.1" id="Layer_1" x="0px" y="0px" width="100px" height="100px" viewBox="0 0 100 100" enable-background="new 0 0 100 100" xml:space="preserve">
<g>
	
		<rect x="61.984" y="40.864" transform="matrix(0.6701 0.7423 -0.7423 0.6701 52.6494 -32.0676)" fill="#000000" width="0.832" height="4.665"/>
	
		<rect x="62.97" y="41.957" transform="matrix(0.6707 0.7417 -0.7417 0.6707 53.7198 -32.4305)" fill="#000000" width="0.833" height="4.666"/>
	
		<rect x="63.957" y="43.051" transform="matrix(0.6698 0.7425 -0.7425 0.6698 54.9548 -32.8142)" fill="#000000" width="0.833" height="4.667"/>
	
		<rect x="60.997" y="39.77" transform="matrix(0.6705 0.742 -0.742 0.6705 51.4771 -31.6914)" fill="#000000" width="0.833" height="4.666"/>
	
		<rect x="60.011" y="38.676" transform="matrix(0.6707 0.7417 -0.7417 0.6707 50.3117 -31.3163)" fill="#000000" width="0.833" height="4.665"/>
	<path fill="#000000" d="M58.945,37.032l-2.322,2.095c-0.316,0.283-0.377,0.728-0.139,0.993L57,40.692l3.466-3.124l-0.517-0.573   C59.711,36.73,59.263,36.748,58.945,37.032z"/>
	
		<rect x="59.024" y="37.583" transform="matrix(0.6692 0.7431 -0.7431 0.6692 49.3208 -30.9649)" fill="#000000" width="0.833" height="4.665"/>
	<path fill="#000000" d="M67.339,45.188l-0.524-0.582l-3.466,3.125l0.525,0.582c0.238,0.264,0.688,0.247,1.002-0.036l2.324-2.095   C67.515,45.898,67.577,45.452,67.339,45.188z"/>
	<path fill="#000000" d="M55.646,40.774c-0.808-0.884-2.449-1.607-3.648-1.607h-5.101c-1.755,0-2.191,0.209-2.191-1.441   c0-0.793-0.755-2.082-1.661-2.865l-7.654-6.606c-0.906-0.783-2.628-1.423-3.826-1.423H14.583c-1.198,0-2.178,0.98-2.178,2.179   v68.792c0,1.199,0.98,2.179,2.178,2.179h48.018c1.199,0,2.179-0.98,2.179-2.179V52.936c0-1.198-0.662-2.902-1.47-3.786   L55.646,40.774z M21.936,31.011h8.523c1.198,0,2.91,0.652,3.806,1.448l5.84,5.202c0.896,0.797,0.647,1.449-0.552,1.449h-8.523   c-1.197,0-2.91-0.652-3.805-1.449l-5.84-5.202C20.489,31.663,20.737,31.011,21.936,31.011z M53.42,83.886   c0.601,0.6,0.601,1.573,0,2.173c-0.3,0.3-0.692,0.451-1.086,0.451s-0.786-0.15-1.087-0.451L39.016,73.827L26.783,86.059   c-0.301,0.3-0.693,0.451-1.086,0.451c-0.394,0-0.787-0.15-1.086-0.451c-0.601-0.6-0.601-1.573,0-2.173l12.231-12.232L24.61,59.422   c-0.601-0.6-0.601-1.573,0-2.174c0.6-0.6,1.573-0.6,2.173,0l12.232,12.233l12.231-12.233c0.601-0.6,1.573-0.6,2.173,0   c0.601,0.601,0.601,1.574,0,2.174L41.188,71.654L53.42,83.886z"/>
	<path fill="#000000" d="M67.261,43.827l0.907-0.817c0.123-0.111,0.081-0.357-0.092-0.547l-5.366-5.938   c-0.174-0.191-0.413-0.256-0.536-0.146l-0.905,0.817c-0.124,0.111-0.082,0.357,0.091,0.549l5.366,5.938   C66.899,43.874,67.14,43.939,67.261,43.827z"/>
	<path fill="#000000" d="M85.554,30.721v-1.984c0-0.3-0.245-0.544-0.545-0.544h-1.42v3.073h1.42   C85.309,31.266,85.554,31.021,85.554,30.721z"/>
	<path fill="#000000" d="M74.849,28.563l-9.764,9.054c-0.22,0.204-0.232,0.549-0.029,0.77l1.35,1.455   c0.204,0.219,0.551,0.232,0.77,0.028l8.879-8.233c0.219-0.204,0.644-0.371,0.944-0.371h5.62v-3.073h-6.826   C75.492,28.193,75.067,28.359,74.849,28.563z"/>
	<path fill="#000000" d="M72.585,94.959c0,0,0.335-2.312-2.58-5.226c0,0-2.238,2.292-2.777,5.839   c-0.139,0.913-0.025,2.083-0.117,3.087c-0.07,0.773-0.828,1.34-0.828,1.34h10.28c2.321-2.444,5.319-7.066,3.018-13.202   C79.58,86.798,76.664,88.547,72.585,94.959z"/>
	<path fill="#000000" d="M47.291,15.093C49.327,6.015,45.055,0,45.055,0C40.023,15.093,47.291,15.093,47.291,15.093z"/>
	<path fill="#000000" d="M46.248,36l0.194,0.539l4.874-0.062c0,0,1.663-0.108,2.461,0.05c0.796,0.159,1.555,0.757,1.555,0.757   c0.984-0.875,3.583-3.22,3.95-3.146c0.621,0.124,0.952,1.445,2.731-0.373c0.652-0.666,2.605,1.614,2.605,1.614   s5.769-5.445,6.283-6.491c0.537-1.09-0.159-0.275-1.008,0.209c0,0,5.246-3.737,0.583-17.725c0,0-2.4,5.768-2.407,9.446   c-0.179-1.512-0.787-4.307-2.838-5.948c0,0-2.331,2.333-2.331,7.578c0,0-2.332-5.51-8.744-18.917c0,0-6.157,7.415-6.224,18.834   c-0.651-1.089-1.399-2.096-2.253-2.948C45.681,19.419,41.033,23.583,46.248,36z"/>
	<path fill="#000000" d="M86.271,33.226c-0.203-0.545-0.182-0.892-0.268-0.892c-0.087,0-0.059,0.296-0.271,0.819   c-0.4,0.989-1.321,2.455-1.321,3.732c0,1.189,0.712,2.152,1.592,2.152c0.879,0,1.591-0.963,1.591-2.152   C87.595,35.605,86.647,34.231,86.271,33.226z"/>
</g>
</svg>