<svg xmlns="http://www.w3.org/2000/svg" xmlns:xlink="http://www.w3.org/1999/xlink" version="1.1" id="Layer_1" x="0px" y="0px" width="100px" height="100px" viewBox="0 0 100 100" enable-background="new 0 0 100 100" xml:space="preserve">
<g>
	<g>
		<g>
			
				<rect x="-269.496" y="140.868" transform="matrix(-0.6698 -0.7425 0.7425 -0.6698 -556.0607 41.0093)" width="1.168" height="6.55"/>
			
				<rect x="-268.111" y="142.402" transform="matrix(-0.6707 -0.7417 0.7417 -0.6707 -555.0131 44.9586)" width="1.169" height="6.552"/>
			
				<rect x="-266.726" y="143.937" transform="matrix(0.6698 0.7425 -0.7425 0.6698 21.4376 246.2152)" width="1.169" height="6.552"/>
			
				<rect x="-270.882" y="139.331" transform="matrix(-0.6703 -0.7421 0.7421 -0.6703 -557.3051 37.6118)" width="1.17" height="6.551"/>
			
				<rect x="-272.266" y="137.796" transform="matrix(-0.6703 -0.7421 0.7421 -0.6703 -558.4712 34.0023)" width="1.169" height="6.551"/>
			<path d="M-272.354,135.437l0.726,0.805l-4.865,4.386l-0.725-0.805c-0.335-0.372-0.249-0.996,0.194-1.394l3.261-2.941     C-273.317,135.089-272.688,135.064-272.354,135.437z"/>
			
				<rect x="-273.652" y="136.261" transform="matrix(-0.6694 -0.7429 0.7429 -0.6694 -559.5238 30.0884)" width="1.17" height="6.549"/>
			<path d="M-262.715,146.121l0.736,0.817c0.334,0.371,0.247,0.997-0.195,1.396l-3.263,2.941c-0.439,0.397-1.071,0.421-1.406,0.051     l-0.737-0.817L-262.715,146.121z"/>
		</g>
		<g>
			<path d="M-339.103,124.226v96.58c0,1.683,1.376,3.059,3.059,3.059h67.415c1.683,0,3.059-1.376,3.059-3.059v-62.989     c0-1.683-0.93-4.074-2.063-5.315l-10.76-11.76c-1.135-1.241-3.439-2.257-5.122-2.257h-7.162c-2.463,0-3.076,0.294-3.076-2.022     c0-1.114-1.06-2.923-2.332-4.022l-10.745-9.274c-1.272-1.099-3.69-1.998-5.372-1.998h-23.841     C-337.727,121.167-339.103,122.543-339.103,124.226z M-304.794,184.096l-17.173-17.173c-0.844-0.843-0.844-2.208,0-3.052     c0.842-0.842,2.208-0.842,3.051,0l17.173,17.174l17.173-17.174c0.843-0.842,2.208-0.842,3.051,0c0.843,0.844,0.843,2.209,0,3.052     l-17.173,17.173l17.173,17.173c0.843,0.843,0.843,2.208,0,3.051c-0.421,0.422-0.973,0.633-1.525,0.633     c-0.552,0-1.104-0.211-1.525-0.633l-17.173-17.173l-17.173,17.173c-0.422,0.422-0.974,0.633-1.525,0.633     c-0.553,0-1.104-0.211-1.525-0.633c-0.844-0.843-0.844-2.208,0-3.051L-304.794,184.096z M-325.722,127.035h11.967     c1.682,0,4.085,0.915,5.342,2.033l8.199,7.303c1.257,1.119,0.908,2.034-0.774,2.034h-11.967c-1.682,0-4.085-0.915-5.342-2.034     l-8.199-7.303C-327.753,127.95-327.404,127.035-325.722,127.035z"/>
			<path d="M-270.501,135.719l1.271-1.147c0.173-0.155,0.509-0.063,0.753,0.205l7.534,8.336c0.243,0.268,0.302,0.613,0.129,0.769     l-1.273,1.147c-0.17,0.157-0.508,0.065-0.751-0.203l-7.534-8.336C-270.616,136.221-270.675,135.875-270.501,135.719z"/>
			<path d="M-236.406,123.843v2.785c0,0.422-0.344,0.765-0.765,0.765h-1.994v-4.314h1.994     C-236.75,123.078-236.406,123.422-236.406,123.843z"/>
			<path d="M-263.289,139.433l-1.895-2.043c-0.285-0.309-0.268-0.794,0.041-1.08l13.707-12.711c0.308-0.287,0.904-0.521,1.325-0.521     h9.583v4.314h-7.891c-0.422,0-1.018,0.234-1.325,0.521l-12.466,11.56C-262.517,139.759-263.003,139.74-263.289,139.433z"/>
		</g>
	</g>
	<path d="M-262.135,217.676c0.757-4.98,3.899-8.198,3.899-8.198c4.093,4.092,3.622,7.337,3.622,7.337   c5.728-9.002,9.82-11.458,9.82-11.458c3.231,8.614-0.978,15.104-4.236,18.535h-14.433c0,0,1.063-0.797,1.162-1.882   C-262.171,220.601-262.329,218.958-262.135,217.676z"/>
	<path d="M-293.265,83.497c0,0,5.999,8.444,3.14,21.189C-290.125,104.687-300.328,104.687-293.265,83.497z"/>
	<path d="M-258.391,124.349c0,0,7.365-5.246,0.819-24.885c0,0-3.371,8.098-3.38,13.263c-0.252-2.123-1.105-6.047-3.984-8.351   c0,0-3.272,3.274-3.272,10.639c0,0-3.274-7.735-12.276-26.558c0,0-8.645,10.409-8.738,26.442c-0.914-1.529-1.964-2.942-3.163-4.139   c0,0-6.523,5.845,0.797,23.277l0.272,0.757l6.844-0.086c0,0,2.335-0.152,3.454,0.07c1.118,0.224,2.183,1.063,2.183,1.063   c1.383-1.229,5.03-4.521,5.547-4.417c0.871,0.174,1.337,2.028,3.834-0.523c0.916-0.936,3.658,2.266,3.658,2.266   s8.099-7.645,8.821-9.113C-256.222,122.523-257.199,123.668-258.391,124.349z"/>
</g>
<g>
	
		<rect x="66.157" y="21.117" transform="matrix(-0.6703 -0.742 0.742 -0.6703 93.4529 89.9746)" fill="#000000" width="1.11" height="6.225"/>
	
		<rect x="67.474" y="22.574" transform="matrix(-0.6695 -0.7428 0.7428 -0.6695 94.4922 93.42)" fill="#000000" width="1.112" height="6.227"/>
	
		<rect x="68.79" y="24.033" transform="matrix(0.6695 0.7428 -0.7428 0.6695 43.0866 -42.5395)" fill="#000000" width="1.112" height="6.228"/>
	
		<rect x="64.84" y="19.656" transform="matrix(-0.6709 -0.7416 0.7416 -0.6709 92.3838 86.5402)" fill="#000000" width="1.112" height="6.226"/>
	
		<rect x="63.525" y="18.196" transform="matrix(-0.6697 -0.7426 0.7426 -0.6697 91.1699 83.1683)" fill="#000000" width="1.111" height="6.226"/>
	<path fill="#000000" d="M59.508,20.887l4.624-4.168l-0.689-0.765c-0.318-0.354-0.917-0.331-1.34,0.048l-3.099,2.796   c-0.423,0.378-0.504,0.971-0.186,1.324L59.508,20.887z"/>
	
		<rect x="62.206" y="16.739" transform="matrix(-0.67 -0.7424 0.7424 -0.67 90.0734 79.7438)" fill="#000000" width="1.112" height="6.223"/>
	<path fill="#000000" d="M72.603,26.109l-4.624,4.171l0.701,0.777c0.317,0.352,0.919,0.33,1.337-0.048l3.101-2.795   c0.421-0.379,0.503-0.974,0.186-1.327L72.603,26.109z"/>
	<path fill="#000000" d="M57.7,20.996c-1.078-1.18-3.268-2.145-4.867-2.145h-6.808c-2.34,0-2.923,0.279-2.923-1.923   c0-1.059-1.008-2.777-2.218-3.823L30.673,4.291c-1.209-1.044-3.508-1.899-5.107-1.899H2.907C1.308,2.392,0,3.699,0,5.298v91.795   C0,98.692,1.308,100,2.907,100h64.076c1.599,0,2.906-1.308,2.906-2.907V37.226c0-1.599-0.884-3.873-1.961-5.053L57.7,20.996z    M12.719,7.969h11.374c1.597,0,3.882,0.871,5.077,1.933l7.792,6.941c1.194,1.063,0.864,1.933-0.735,1.933H24.853   c-1.6,0-3.883-0.87-5.079-1.933l-7.792-6.941C10.788,8.839,11.119,7.969,12.719,7.969z M54.73,78.524   c0.801,0.802,0.801,2.099,0,2.9c-0.4,0.401-0.925,0.601-1.449,0.601c-0.525,0-1.051-0.2-1.451-0.601L35.508,65.102L19.187,81.424   c-0.401,0.401-0.925,0.601-1.45,0.601s-1.049-0.2-1.449-0.601c-0.803-0.801-0.803-2.098,0-2.9l16.321-16.321L16.288,45.88   c-0.803-0.801-0.803-2.099,0-2.901c0.8-0.8,2.098-0.8,2.899,0l16.321,16.323L51.83,42.979c0.801-0.8,2.099-0.8,2.9,0   c0.801,0.802,0.801,2.1,0,2.901L38.409,62.203L54.73,78.524z"/>
	<path fill="#000000" d="M67.126,15.327c-0.231-0.255-0.552-0.343-0.716-0.195l-1.208,1.09c-0.164,0.148-0.11,0.478,0.122,0.732   l7.16,7.923c0.232,0.255,0.552,0.342,0.715,0.193l1.211-1.091c0.163-0.147,0.106-0.476-0.124-0.73L67.126,15.327z"/>
	<path fill="#000000" d="M97.607,7.582V4.935c0-0.4-0.326-0.727-0.727-0.727h-1.896v4.101h1.896   C97.281,8.309,97.607,7.982,97.607,7.582z"/>
	<path fill="#000000" d="M83.324,4.703L70.295,16.784c-0.293,0.271-0.31,0.733-0.038,1.026l1.802,1.942   c0.271,0.292,0.732,0.31,1.025,0.038L84.933,8.803c0.291-0.272,0.857-0.494,1.259-0.494h7.5V4.208h-9.109   C84.182,4.208,83.616,4.43,83.324,4.703z"/>
	<path fill="#000000" d="M98.235,11.305c-0.272-0.728-0.245-1.19-0.359-1.19c-0.115,0-0.077,0.396-0.36,1.093   c-0.533,1.319-1.763,3.276-1.763,4.98c0,1.587,0.949,2.872,2.123,2.872c1.172,0,2.124-1.285,2.124-2.872   C100,14.48,98.735,12.646,98.235,11.305z"/>
</g>
</svg>