<svg xmlns="http://www.w3.org/2000/svg" xmlns:xlink="http://www.w3.org/1999/xlink" version="1.1" id="Layer_1" x="0px" y="0px" width="100px" height="100px" viewBox="0 0 100 100" enable-background="new 0 0 100 100" xml:space="preserve">
<path d="M96.345,51.893c-7.72-14.88-17.937-25.675-30.368-32.093c-16.449-8.488-32.931-7.615-43.896-6.222  C10.064,15.101,5.099,20.166,3.163,23.22l-0.045-0.024l-0.839,1.625c-5.519,10.69,0.875,22.396,1.377,23.285  C11.374,62.989,21.591,73.783,34.026,80.2c16.447,8.486,32.93,7.615,43.898,6.224c12.012-1.524,16.976-6.588,18.916-9.644  l0.045,0.025l0.837-1.625C103.24,64.488,96.849,52.783,96.345,51.893z M64.301,23.051c11.753,6.066,21.448,16.346,28.817,30.559  l0.036,0.07c0.015,0.024,0.353,0.623,0.801,1.642c-6.909-8.193-14.217-14.615-21.412-19.645l0.87-1.686  c0.185-0.36,0.046-0.8-0.312-0.985c-0.361-0.185-0.801-0.045-0.985,0.312l-0.784,1.52c-0.944-0.642-1.885-1.254-2.823-1.849  l0.815-1.582c0.186-0.358,0.044-0.8-0.316-0.985c-0.358-0.184-0.799-0.046-0.984,0.314l-0.76,1.472  c-1.054-0.648-2.103-1.268-3.145-1.86l0.786-1.524c0.183-0.358,0.039-0.8-0.316-0.984c-0.358-0.185-0.8-0.045-0.984,0.314  l-0.765,1.481c-1.143-0.629-2.274-1.226-3.396-1.792l0.749-1.451c0.182-0.358,0.04-0.8-0.313-0.985  c-0.361-0.184-0.802-0.046-0.987,0.314l-0.759,1.47c-1.117-0.544-2.223-1.06-3.313-1.545l0.703-1.362  c0.188-0.358,0.049-0.798-0.313-0.982c-0.358-0.188-0.797-0.045-0.984,0.312l-0.745,1.447c-1.057-0.453-2.097-0.877-3.12-1.277  l0.689-1.336c0.186-0.358,0.046-0.8-0.315-0.983c-0.357-0.187-0.8-0.045-0.983,0.313l-0.764,1.481  c-2.362-0.886-4.627-1.641-6.759-2.275c-7.595-2.263-14.263-3.332-19.352-3.822C33.357,15.854,48.918,15.113,64.301,23.051z   M35.702,76.95C24.313,71.072,14.864,61.231,7.587,47.703c3.56,3.687,8.683,8.463,15.396,13.388  c4.437,3.255,9.875,6.772,16.255,10.065c9.906,5.113,22.089,9.678,36.33,11.868C65.141,84.195,50.338,84.503,35.702,76.95z   M95.216,71.831l-0.092-0.049l-0.748,1.855c-0.589,1.455-3.021,5.741-11.384,8.062c-44.831-4.076-71.79-32.776-78.171-40.359  c-1.062-3.523-1.813-8.437-0.036-13.172l0.091,0.047l0.751-1.855c0.534-1.32,2.586-4.984,9.228-7.384  c4.249-0.019,14.366,0.406,26.838,4.135c1.986,0.594,4.089,1.292,6.28,2.108l-0.703,1.361c-0.185,0.358-0.045,0.8,0.313,0.986  c0.362,0.185,0.801,0.041,0.986-0.316l0.779-1.509c1.024,0.398,2.065,0.821,3.123,1.273l-0.723,1.403  c-0.188,0.362-0.046,0.801,0.311,0.987c0.361,0.185,0.802,0.045,0.984-0.316l0.768-1.488c1.091,0.484,2.196,0.998,3.314,1.542  l-0.713,1.382c-0.185,0.36-0.046,0.799,0.315,0.985c0.358,0.185,0.798,0.045,0.985-0.313l0.724-1.402  c1.121,0.565,2.254,1.162,3.396,1.792l-0.708,1.372c-0.183,0.357-0.046,0.798,0.312,0.983c0.362,0.185,0.8,0.045,0.988-0.313  l0.686-1.328c1.041,0.593,2.089,1.213,3.143,1.863l-0.71,1.375c-0.188,0.361-0.046,0.801,0.316,0.986  c0.358,0.186,0.8,0.045,0.987-0.316l0.65-1.262c0.937,0.596,1.876,1.213,2.819,1.856l-0.681,1.318  c-0.185,0.36-0.043,0.802,0.311,0.986c0.361,0.188,0.802,0.044,0.987-0.314l0.594-1.15c8.209,5.773,16.563,13.404,24.271,23.476  C96.444,64.297,96.608,68.119,95.216,71.831z"/>
</svg>