<svg xmlns="http://www.w3.org/2000/svg" xmlns:xlink="http://www.w3.org/1999/xlink" version="1.1" id="Layer_1" x="0px" y="0px" width="100px" height="100px" viewBox="0 0 100 100" enable-background="new 0 0 100 100" xml:space="preserve">
<g>
	<path fill="#000000" d="M89.62,88.049c0.239,0.246,0.241,0.638,0,0.886l-1.85,1.905c-0.125,0.127-0.29,0.191-0.456,0.191   c-0.16,0-0.32-0.06-0.445-0.179c-0.252-0.246-0.257-0.648-0.013-0.901l1.851-1.904c0.241-0.248,0.636-0.258,0.889-0.022   L4.196,3.009V96.5H98.11L89.62,88.049z M78.369,84.824l3.41-3.508c0.244-0.253,0.647-0.259,0.899-0.015   c0.253,0.246,0.258,0.65,0.014,0.901l-3.409,3.508c-0.124,0.129-0.29,0.193-0.456,0.193c-0.16,0-0.321-0.06-0.443-0.18   C78.131,85.479,78.125,85.076,78.369,84.824z M73.513,76.987l1.85-1.904c0.245-0.252,0.648-0.258,0.901-0.013   c0.253,0.244,0.259,0.648,0.014,0.9l-1.851,1.905c-0.125,0.129-0.291,0.193-0.457,0.193c-0.159,0-0.321-0.06-0.444-0.182   C73.272,77.643,73.268,77.239,73.513,76.987z M65.026,71.859l3.406-3.507c0.246-0.253,0.649-0.259,0.902-0.014   c0.252,0.245,0.258,0.648,0.014,0.901l-3.409,3.509c-0.124,0.128-0.29,0.192-0.457,0.192c-0.159,0-0.32-0.06-0.444-0.181   C64.787,72.515,64.781,72.112,65.026,71.859z M60.168,64.024l1.85-1.904c0.245-0.252,0.649-0.259,0.902-0.014   c0.252,0.246,0.259,0.648,0.013,0.901l-1.851,1.904c-0.125,0.128-0.291,0.193-0.456,0.193c-0.161,0-0.321-0.06-0.445-0.18   C59.929,64.68,59.923,64.277,60.168,64.024z M51.682,58.896l3.407-3.508c0.246-0.252,0.649-0.258,0.901-0.013   c0.253,0.245,0.259,0.648,0.013,0.901l-3.407,3.508c-0.125,0.129-0.291,0.193-0.458,0.193c-0.159,0-0.319-0.061-0.443-0.181   C51.441,59.552,51.437,59.149,51.682,58.896z M46.825,51.062l1.849-1.905c0.246-0.251,0.649-0.258,0.901-0.012   c0.252,0.245,0.258,0.648,0.013,0.901l-1.85,1.904c-0.125,0.128-0.291,0.193-0.457,0.193c-0.16,0-0.32-0.06-0.444-0.181   C46.584,51.718,46.58,51.313,46.825,51.062z M38.337,45.934l3.408-3.508c0.245-0.252,0.648-0.259,0.901-0.014   c0.252,0.246,0.258,0.649,0.013,0.901l-3.408,3.508c-0.125,0.128-0.291,0.193-0.457,0.193c-0.16,0-0.32-0.06-0.444-0.18   C38.099,46.589,38.092,46.186,38.337,45.934z M33.48,38.097l1.85-1.904c0.245-0.253,0.649-0.258,0.902-0.013   c0.252,0.245,0.257,0.649,0.012,0.901l-1.85,1.905c-0.125,0.128-0.291,0.193-0.457,0.193c-0.16,0-0.32-0.06-0.443-0.18   C33.24,38.753,33.235,38.35,33.48,38.097z M24.993,32.97l3.409-3.508c0.245-0.253,0.648-0.259,0.901-0.014   c0.252,0.246,0.258,0.649,0.013,0.901l-3.409,3.508c-0.125,0.128-0.291,0.193-0.457,0.193c-0.16,0-0.319-0.06-0.443-0.18   C24.754,33.626,24.748,33.223,24.993,32.97z M20.136,25.134l1.851-1.905c0.244-0.252,0.648-0.258,0.901-0.013   c0.252,0.246,0.257,0.649,0.012,0.901l-1.85,1.905c-0.124,0.128-0.291,0.193-0.457,0.193c-0.16,0-0.32-0.06-0.444-0.181   C19.896,25.79,19.891,25.387,20.136,25.134z M18.835,40.582c0.563-0.569,1.313-0.882,2.114-0.882c0.788,0,1.53,0.305,2.09,0.859   l47.283,46.841c1.166,1.151,1.176,3.038,0.022,4.204c-0.563,0.57-1.313,0.883-2.114,0.883c-0.788,0-1.531-0.306-2.091-0.859   l-47.282-46.84C17.692,43.634,17.682,41.748,18.835,40.582z M17.886,55.509c0.672,0,1.371,0.332,2.078,0.989l31.591,29.346   c1.33,1.236,1.217,2.216,1.029,2.689c-0.186,0.476-0.77,1.271-2.585,1.271H20.363c-2.484,0-4.505-2.021-4.505-4.506V58.287   C15.857,56.236,16.95,55.509,17.886,55.509z M11.649,20.007l3.408-3.508c0.245-0.252,0.647-0.259,0.9-0.014   c0.252,0.245,0.259,0.649,0.014,0.901l-3.408,3.509c-0.125,0.128-0.291,0.193-0.457,0.193c-0.16,0-0.32-0.06-0.443-0.181   C11.41,20.663,11.404,20.26,11.649,20.007z M6.792,12.171l1.849-1.904c0.246-0.253,0.649-0.259,0.901-0.014   c0.252,0.246,0.258,0.649,0.013,0.901l-1.85,1.904c-0.125,0.129-0.292,0.193-0.458,0.193c-0.16,0-0.32-0.06-0.444-0.18   C6.552,12.827,6.547,12.424,6.792,12.171z M5.046,19.439h2.916c0.372,0,0.672,0.301,0.672,0.672c0,0.372-0.301,0.672-0.672,0.672   H5.046c-0.372,0-0.673-0.301-0.673-0.672C4.373,19.741,4.674,19.439,5.046,19.439z M5.046,31.658h2.916   c0.372,0,0.672,0.301,0.672,0.672c0,0.372-0.301,0.673-0.672,0.673H5.046c-0.372,0-0.673-0.302-0.673-0.673   C4.373,31.959,4.674,31.658,5.046,31.658z M5.046,43.877h2.916c0.372,0,0.672,0.301,0.672,0.672c0,0.372-0.301,0.672-0.672,0.672   H5.046c-0.372,0-0.673-0.301-0.673-0.672C4.373,44.179,4.674,43.877,5.046,43.877z M5.046,56.097h2.916   c0.372,0,0.672,0.301,0.672,0.673c0,0.371-0.301,0.672-0.672,0.672H5.046c-0.372,0-0.673-0.301-0.673-0.672   C4.373,56.397,4.674,56.097,5.046,56.097z M5.046,68.315h2.916c0.372,0,0.672,0.302,0.672,0.672c0,0.372-0.301,0.674-0.672,0.674   H5.046c-0.372,0-0.673-0.302-0.673-0.674C4.373,68.617,4.674,68.315,5.046,68.315z M4.373,81.207c0-0.372,0.301-0.673,0.673-0.673   h2.916c0.372,0,0.672,0.301,0.672,0.673c0,0.371-0.301,0.673-0.672,0.673H5.046C4.674,81.88,4.373,81.578,4.373,81.207z    M5.046,94.477v-1.7h88.766v1.7H5.046z"/>
</g>
</svg>