<svg xmlns="http://www.w3.org/2000/svg" xmlns:xlink="http://www.w3.org/1999/xlink" version="1.1" id="Layer_1" x="0px" y="0px" width="100px" height="100px" viewBox="0 0 100 100" enable-background="new 0 0 100 100" xml:space="preserve">
<path d="M94.4,74.847h-0.361V24.944H94.4c1.874,0,3.393-1.519,3.393-3.394c0-1.875-1.519-3.394-3.393-3.394h-6.254  c-0.31-0.865-1.981-0.509-3.071-0.995c-1.811-0.807-0.998-2.522,0.844-3.004c0.462-1.921-2.537-2.868-2.342-4.862  c0.173-1.779,3.059-4.062-0.859-5.054h-0.214c-3.915,0.991-1.031,3.275-0.858,5.054c0.195,1.994-2.804,2.94-2.342,4.862  c1.843,0.481,2.655,2.197,0.843,3.004c-1.089,0.486-2.761,0.129-3.07,0.995h-6.771c-1.875,0-3.394,1.52-3.394,3.394  c0,1.875,1.519,3.394,3.394,3.394h0.36v1.12H20.923v-1.12h7.94c1.875,0,3.393-1.519,3.393-3.394c0-1.875-1.519-3.394-3.393-3.394  h-6.596c-0.31-0.865-1.982-0.509-3.071-0.995c-1.811-0.807-0.999-2.522,0.843-3.004c0.462-1.921-2.537-2.868-2.343-4.862  c0.173-1.779,3.059-4.062-0.859-5.054h-0.211c-3.917,0.991-1.034,3.275-0.859,5.054c0.194,1.994-2.805,2.94-2.343,4.862  c1.842,0.481,2.655,2.197,0.844,3.004c-1.089,0.486-2.762,0.129-3.071,0.995H4.769c-1.875,0-3.394,1.52-3.394,3.394  c0,1.875,1.52,3.394,3.394,3.394h7.939v49.903H4.769c-1.875,0-3.394,1.52-3.394,3.395c0,1.874,1.52,3.394,3.394,3.394h6.385  c0.109,1.128,1.946,0.682,3.114,1.203c1.81,0.807,0.997,2.522-0.845,3.004c-0.462,1.921,2.538,2.867,2.342,4.861  c-0.173,1.779-3.058,4.062,0.859,5.054h0.213c3.917-0.991,1.033-3.274,0.858-5.054c-0.195-1.994,2.805-2.94,2.344-4.861  c-1.843-0.481-2.656-2.197-0.845-3.004c1.168-0.521,3.005-0.075,3.114-1.203h6.554c1.875,0,3.393-1.52,3.393-3.394  c0-1.875-1.519-3.395-3.393-3.395h-7.94v-0.3h49.743v0.3h-0.36c-1.875,0-3.394,1.52-3.394,3.395c0,1.874,1.519,3.394,3.394,3.394  h6.727c0.109,1.128,1.946,0.682,3.114,1.203c1.812,0.807,0.998,2.522-0.843,3.004c-0.463,1.921,2.535,2.867,2.341,4.861  c-0.173,1.779-3.058,4.062,0.859,5.054h0.213c3.917-0.991,1.032-3.274,0.859-5.054c-0.194-1.994,2.805-2.94,2.343-4.861  c-1.842-0.481-2.655-2.197-0.844-3.004c1.168-0.521,3.005-0.075,3.114-1.203H94.4c1.874,0,3.393-1.52,3.393-3.394  C97.793,76.366,96.274,74.847,94.4,74.847z M18.592,74.847H15.04V24.944h3.553V74.847z M70.6,72.215H20.923v-43.82H70.6V72.215z   M91.707,74.847H72.998V24.944h18.709V74.847z"/>
<g id="qpl0MB.tif">
	<g>
		<g>
			<path fill-rule="evenodd" clip-rule="evenodd" d="M29.179,32.361c0.063,0.118,0.015,0.421,0.093,0.62     c0.283,0.726,1.526,1.018,2.14,1.674c0.327,0.351,0.625,0.93,0.373,1.613c-0.185,0.5-0.628,0.931-1.179,1.117     c-0.181-0.708-0.251-1.526-0.837-1.83c-0.316,0.386-0.551,0.855-0.837,1.271c1.071,0.735,2.772,1.854,2.946,3.536     c0.086,0.836-0.01,2.175-0.868,2.078c-0.079-0.619-0.266-1.197-0.589-1.613c-0.328-0.42-0.802-0.705-1.24-1.054     c-1.234-0.984-2.505-2.095-3.722-3.071c-0.386,0.309-0.74,0.654-0.589,1.333c0.247,1.107,1.854,1.976,2.108,3.132     c0.114,0.519-0.135,0.847-0.527,1.055c-0.139,0.073-0.325,0.192-0.466,0.217c-0.564,0.099-1.28-0.073-1.954,0     c0.004-0.344,0.469-0.234,0.621-0.434c0.074-0.099,0.102-0.343,0.092-0.559c-0.036-0.894-0.684-2.018-0.62-3.008     c0.056-0.867,0.613-1.341,1.055-1.955c-1.009-0.405-1.582-2.441-0.868-3.566c0.149-0.236,0.375-0.498,0.683-0.496     c0.12,0.111,0.07,0.284,0.092,0.403c0.156,0.854,0.758,1.493,1.303,2.016c0.638,0.613,1.368,1.173,2.108,1.675     c0.371-0.323,0.598-0.788,0.9-1.178C29.033,35,28.063,34.474,28,33.788C27.95,33.239,28.509,32.376,29.179,32.361z"/>
		</g>
	</g>
</g>
<g>
	<line x1="34.058" y1="32.519" x2="38.812" y2="32.519"/>
	<path d="M38.812,33.045h-4.754c-0.291,0-0.526-0.236-0.526-0.526s0.236-0.526,0.526-0.526h4.754c0.291,0,0.526,0.236,0.526,0.526   S39.103,33.045,38.812,33.045z"/>
</g>
<g>
	<line x1="42.886" y1="32.519" x2="47.858" y2="32.519"/>
	<path d="M47.858,33.057h-4.972c-0.297,0-0.538-0.241-0.538-0.538s0.241-0.538,0.538-0.538h4.972c0.297,0,0.538,0.241,0.538,0.538   S48.155,33.057,47.858,33.057z"/>
</g>
<g>
	<line x1="51.431" y1="32.519" x2="57.186" y2="32.519"/>
	<path d="M57.186,33.098h-5.755c-0.32,0-0.579-0.259-0.579-0.579s0.259-0.579,0.579-0.579h5.755c0.32,0,0.579,0.259,0.579,0.579   S57.506,33.098,57.186,33.098z"/>
</g>
<g>
	<line x1="60.917" y1="32.519" x2="65.572" y2="32.519"/>
	<path d="M65.572,33.04h-4.655c-0.288,0-0.521-0.233-0.521-0.521s0.232-0.521,0.521-0.521h4.655c0.288,0,0.521,0.233,0.521,0.521   S65.86,33.04,65.572,33.04z"/>
</g>
<g>
	<line x1="34.193" y1="35.43" x2="38.678" y2="35.43"/>
	<path d="M38.678,35.941h-4.485c-0.282,0-0.511-0.229-0.511-0.511s0.229-0.511,0.511-0.511h4.485c0.282,0,0.511,0.229,0.511,0.511   S38.96,35.941,38.678,35.941z"/>
</g>
<g>
	<line x1="43.077" y1="35.43" x2="47.667" y2="35.43"/>
	<path d="M47.667,35.947h-4.59c-0.286,0-0.517-0.231-0.517-0.517s0.231-0.517,0.517-0.517h4.59c0.286,0,0.517,0.231,0.517,0.517   S47.953,35.947,47.667,35.947z"/>
</g>
<g>
	<line x1="51.875" y1="35.43" x2="56.74" y2="35.43"/>
	<path d="M56.74,35.962h-4.865c-0.294,0-0.532-0.238-0.532-0.532s0.238-0.532,0.532-0.532h4.865c0.294,0,0.532,0.238,0.532,0.532   S57.034,35.962,56.74,35.962z"/>
</g>
<g>
	<line x1="60.988" y1="35.43" x2="65.5" y2="35.43"/>
	<path d="M65.5,35.943h-4.512c-0.283,0-0.513-0.229-0.513-0.513s0.229-0.513,0.513-0.513H65.5c0.283,0,0.513,0.229,0.513,0.513   S65.783,35.943,65.5,35.943z"/>
</g>
<g>
	<line x1="34.385" y1="38.342" x2="38.485" y2="38.342"/>
	<path d="M38.485,38.831h-4.1c-0.27,0-0.489-0.219-0.489-0.489s0.219-0.489,0.489-0.489h4.1c0.27,0,0.489,0.219,0.489,0.489   S38.755,38.831,38.485,38.831z"/>
</g>
<g>
	<line x1="43.622" y1="38.342" x2="47.122" y2="38.342"/>
	<path d="M47.122,38.794h-3.5c-0.25,0-0.452-0.202-0.452-0.452s0.202-0.452,0.452-0.452h3.5c0.25,0,0.452,0.202,0.452,0.452   S47.372,38.794,47.122,38.794z"/>
</g>
<g>
	<line x1="51.879" y1="38.342" x2="56.737" y2="38.342"/>
	<path d="M56.737,38.875h-4.858c-0.294,0-0.532-0.238-0.532-0.532s0.238-0.532,0.532-0.532h4.858c0.294,0,0.532,0.238,0.532,0.532   S57.031,38.875,56.737,38.875z"/>
</g>
<g>
	<line x1="61.392" y1="38.342" x2="65.098" y2="38.342"/>
	<path d="M65.098,38.807h-3.706c-0.257,0-0.465-0.208-0.465-0.465s0.208-0.465,0.465-0.465h3.706c0.257,0,0.465,0.208,0.465,0.465   S65.354,38.807,65.098,38.807z"/>
</g>
<g>
	<line x1="34.456" y1="38.342" x2="38.416" y2="38.342"/>
	<path d="M38.416,38.823h-3.96c-0.265,0-0.48-0.215-0.48-0.48s0.215-0.48,0.48-0.48h3.96c0.265,0,0.48,0.215,0.48,0.48   S38.681,38.823,38.416,38.823z"/>
</g>
<g>
	<line x1="43.688" y1="38.342" x2="47.056" y2="38.342"/>
	<path d="M47.056,38.785h-3.368c-0.245,0-0.443-0.198-0.443-0.443s0.198-0.443,0.443-0.443h3.368c0.245,0,0.443,0.198,0.443,0.443   S47.301,38.785,47.056,38.785z"/>
</g>
<g>
	<line x1="52.029" y1="38.342" x2="56.587" y2="38.342"/>
	<path d="M56.587,38.858h-4.558c-0.285,0-0.516-0.231-0.516-0.516s0.23-0.516,0.516-0.516h4.558c0.285,0,0.516,0.231,0.516,0.516   S56.872,38.858,56.587,38.858z"/>
</g>
<g>
	<line x1="61.495" y1="38.342" x2="64.994" y2="38.342"/>
	<path d="M64.994,38.794h-3.499c-0.249,0-0.451-0.202-0.451-0.452s0.202-0.452,0.451-0.452h3.499c0.249,0,0.451,0.202,0.451,0.452   S65.243,38.794,64.994,38.794z"/>
</g>
<g>
	<line x1="34.588" y1="38.342" x2="38.283" y2="38.342"/>
	<path d="M38.283,38.806h-3.695c-0.256,0-0.464-0.208-0.464-0.464s0.208-0.464,0.464-0.464h3.695c0.256,0,0.464,0.208,0.464,0.464   S38.539,38.806,38.283,38.806z"/>
</g>
<g>
	<line x1="43.583" y1="38.342" x2="47.16" y2="38.342"/>
	<path d="M47.16,38.799h-3.577c-0.252,0-0.457-0.205-0.457-0.457s0.205-0.457,0.457-0.457h3.577c0.252,0,0.457,0.205,0.457,0.457   S47.412,38.799,47.16,38.799z"/>
</g>
<g>
	<line x1="52.279" y1="38.342" x2="56.336" y2="38.342"/>
	<path d="M56.336,38.829h-4.057c-0.269,0-0.486-0.218-0.486-0.486s0.218-0.486,0.486-0.486h4.057c0.269,0,0.486,0.218,0.486,0.486   S56.604,38.829,56.336,38.829z"/>
</g>
<g>
	<line x1="61.686" y1="38.342" x2="64.803" y2="38.342"/>
	<path d="M64.803,38.769h-3.117c-0.235,0-0.426-0.191-0.426-0.426s0.19-0.426,0.426-0.426h3.117c0.235,0,0.426,0.191,0.426,0.426   S65.038,38.769,64.803,38.769z"/>
</g>
<g>
	<line x1="34.364" y1="41.254" x2="38.506" y2="41.254"/>
	<path d="M38.506,41.745h-4.142c-0.271,0-0.491-0.22-0.491-0.491s0.22-0.491,0.491-0.491h4.142c0.271,0,0.491,0.22,0.491,0.491   S38.778,41.745,38.506,41.745z"/>
</g>
<g>
	<line x1="42.959" y1="41.254" x2="47.785" y2="41.254"/>
	<path d="M47.785,41.784h-4.825c-0.293,0-0.53-0.237-0.53-0.53s0.237-0.53,0.53-0.53h4.825c0.293,0,0.53,0.237,0.53,0.53   S48.078,41.784,47.785,41.784z"/>
</g>
<g>
	<line x1="51.784" y1="41.254" x2="56.831" y2="41.254"/>
	<path d="M56.831,41.796h-5.047c-0.3,0-0.542-0.243-0.542-0.542s0.242-0.542,0.542-0.542h5.047c0.3,0,0.542,0.243,0.542,0.542   S57.131,41.796,56.831,41.796z"/>
</g>
<g>
	<line x1="61.071" y1="41.254" x2="65.417" y2="41.254"/>
	<path d="M65.417,41.757h-4.346c-0.278,0-0.503-0.226-0.503-0.503s0.225-0.503,0.503-0.503h4.346c0.278,0,0.503,0.226,0.503,0.503   S65.695,41.757,65.417,41.757z"/>
</g>
<g>
	<line x1="24.68" y1="44.166" x2="30.318" y2="44.166"/>
	<path d="M30.318,44.739H24.68c-0.316,0-0.573-0.257-0.573-0.573s0.257-0.573,0.573-0.573h5.639c0.316,0,0.573,0.257,0.573,0.573   S30.635,44.739,30.318,44.739z"/>
</g>
<g>
	<line x1="34.099" y1="44.166" x2="38.772" y2="44.166"/>
	<path d="M38.772,44.688h-4.673c-0.288,0-0.522-0.234-0.522-0.522s0.234-0.522,0.522-0.522h4.673c0.288,0,0.522,0.234,0.522,0.522   S39.06,44.688,38.772,44.688z"/>
</g>
<g>
	<line x1="42.905" y1="44.166" x2="47.838" y2="44.166"/>
	<path d="M47.838,44.702h-4.933c-0.296,0-0.536-0.24-0.536-0.536s0.24-0.536,0.536-0.536h4.933c0.296,0,0.536,0.24,0.536,0.536   S48.134,44.702,47.838,44.702z"/>
</g>
<g>
	<line x1="51.604" y1="44.166" x2="57.013" y2="44.166"/>
	<path d="M57.013,44.727h-5.409c-0.311,0-0.562-0.251-0.562-0.562s0.251-0.562,0.562-0.562h5.409c0.311,0,0.562,0.251,0.562,0.562   S57.323,44.727,57.013,44.727z"/>
</g>
<g>
	<line x1="61.108" y1="44.166" x2="65.38" y2="44.166"/>
	<path d="M65.38,44.665h-4.271c-0.275,0-0.499-0.224-0.499-0.499s0.224-0.499,0.499-0.499h4.271c0.275,0,0.499,0.224,0.499,0.499   S65.655,44.665,65.38,44.665z"/>
</g>
<g>
	<line x1="24.68" y1="47.077" x2="30.318" y2="47.077"/>
	<path d="M30.318,47.65H24.68c-0.316,0-0.573-0.257-0.573-0.573s0.257-0.573,0.573-0.573h5.638c0.316,0,0.573,0.257,0.573,0.573   S30.634,47.65,30.318,47.65z"/>
</g>
<g>
	<line x1="34.163" y1="47.077" x2="38.708" y2="47.077"/>
	<path d="M38.708,47.592h-4.545c-0.284,0-0.515-0.23-0.515-0.515s0.23-0.515,0.515-0.515h4.545c0.284,0,0.515,0.23,0.515,0.515   S38.992,47.592,38.708,47.592z"/>
</g>
<g>
	<line x1="43.071" y1="47.077" x2="47.672" y2="47.077"/>
	<path d="M47.672,47.595h-4.601c-0.286,0-0.518-0.232-0.518-0.518s0.232-0.518,0.518-0.518h4.601c0.286,0,0.518,0.232,0.518,0.518   S47.958,47.595,47.672,47.595z"/>
</g>
<g>
	<line x1="51.521" y1="47.077" x2="57.095" y2="47.077"/>
	<path d="M57.095,47.647h-5.573c-0.314,0-0.57-0.255-0.57-0.57s0.256-0.57,0.57-0.57h5.573c0.314,0,0.57,0.255,0.57,0.57   S57.409,47.647,57.095,47.647z"/>
</g>
<g>
	<line x1="61.062" y1="47.077" x2="65.428" y2="47.077"/>
	<path d="M65.428,47.582h-4.366c-0.278,0-0.505-0.226-0.505-0.504s0.227-0.504,0.505-0.504h4.366c0.278,0,0.505,0.226,0.505,0.504   S65.706,47.582,65.428,47.582z"/>
</g>
<g>
	<line x1="24.986" y1="49.988" x2="30.012" y2="49.988"/>
	<path d="M30.012,50.53h-5.025c-0.299,0-0.541-0.243-0.541-0.542s0.242-0.541,0.541-0.541h5.025c0.299,0,0.541,0.242,0.541,0.541   S30.311,50.53,30.012,50.53z"/>
</g>
<g>
	<line x1="34.172" y1="49.988" x2="38.699" y2="49.988"/>
	<path d="M38.699,50.502h-4.527c-0.284,0-0.514-0.229-0.514-0.514c0-0.283,0.23-0.514,0.514-0.514h4.527   c0.284,0,0.514,0.23,0.514,0.514C39.212,50.272,38.982,50.502,38.699,50.502z"/>
</g>
<g>
	<line x1="43.347" y1="49.988" x2="47.397" y2="49.988"/>
	<path d="M47.397,50.475h-4.05c-0.269,0-0.486-0.217-0.486-0.486c0-0.268,0.217-0.485,0.486-0.485h4.05   c0.269,0,0.486,0.218,0.486,0.485C47.883,50.258,47.666,50.475,47.397,50.475z"/>
</g>
<g>
	<line x1="51.788" y1="49.988" x2="56.828" y2="49.988"/>
	<path d="M56.828,50.53h-5.04c-0.3,0-0.542-0.242-0.542-0.542c0-0.299,0.242-0.541,0.542-0.541h5.04   c0.299,0,0.542,0.242,0.542,0.541C57.37,50.288,57.127,50.53,56.828,50.53z"/>
</g>
<g>
	<line x1="61.078" y1="49.988" x2="65.41" y2="49.988"/>
	<path d="M65.41,50.491h-4.332c-0.277,0-0.503-0.226-0.503-0.503s0.226-0.502,0.503-0.502h4.332c0.277,0,0.503,0.225,0.503,0.502   S65.688,50.491,65.41,50.491z"/>
</g>
<g>
	<line x1="24.764" y1="52.9" x2="30.234" y2="52.9"/>
	<path d="M30.234,53.465h-5.471c-0.312,0-0.564-0.253-0.564-0.564s0.252-0.564,0.564-0.564h5.471c0.312,0,0.564,0.253,0.564,0.564   S30.546,53.465,30.234,53.465z"/>
</g>
<g>
	<line x1="34.384" y1="52.9" x2="38.487" y2="52.9"/>
	<path d="M38.487,53.39h-4.103c-0.27,0-0.489-0.219-0.489-0.489s0.219-0.489,0.489-0.489h4.103c0.27,0,0.489,0.219,0.489,0.489   S38.757,53.39,38.487,53.39z"/>
</g>
<g>
	<line x1="43.087" y1="52.9" x2="47.657" y2="52.9"/>
	<path d="M47.657,53.416h-4.57c-0.285,0-0.516-0.23-0.516-0.516s0.231-0.516,0.516-0.516h4.57c0.285,0,0.516,0.23,0.516,0.516   S47.942,53.416,47.657,53.416z"/>
</g>
<g>
	<line x1="51.662" y1="52.9" x2="56.953" y2="52.9"/>
	<path d="M56.953,53.456h-5.291c-0.307,0-0.556-0.249-0.556-0.556s0.249-0.556,0.556-0.556h5.291c0.307,0,0.556,0.249,0.556,0.556   S57.26,53.456,56.953,53.456z"/>
</g>
<g>
	<line x1="61.118" y1="52.9" x2="65.37" y2="52.9"/>
	<path d="M65.37,53.398h-4.252c-0.275,0-0.498-0.223-0.498-0.498s0.223-0.498,0.498-0.498h4.252c0.275,0,0.498,0.223,0.498,0.498   S65.646,53.398,65.37,53.398z"/>
</g>
<g>
	<line x1="25.271" y1="55.812" x2="29.728" y2="55.812"/>
	<path d="M29.728,56.322h-4.457c-0.281,0-0.51-0.229-0.51-0.51s0.229-0.51,0.51-0.51h4.457c0.281,0,0.51,0.229,0.51,0.51   S30.009,56.322,29.728,56.322z"/>
</g>
<g>
	<line x1="34.391" y1="55.812" x2="38.48" y2="55.812"/>
	<path d="M38.48,56.301h-4.09c-0.27,0-0.488-0.219-0.488-0.488s0.219-0.488,0.488-0.488h4.09c0.27,0,0.488,0.219,0.488,0.488   S38.75,56.301,38.48,56.301z"/>
</g>
<g>
	<line x1="43.461" y1="55.812" x2="47.283" y2="55.812"/>
	<path d="M47.283,56.284h-3.821c-0.261,0-0.472-0.211-0.472-0.472s0.211-0.472,0.472-0.472h3.821c0.261,0,0.472,0.211,0.472,0.472   S47.543,56.284,47.283,56.284z"/>
</g>
<g>
	<line x1="52.125" y1="55.812" x2="56.491" y2="55.812"/>
	<path d="M56.491,56.317h-4.366c-0.278,0-0.505-0.227-0.505-0.505s0.227-0.505,0.505-0.505h4.366c0.278,0,0.505,0.227,0.505,0.505   S56.77,56.317,56.491,56.317z"/>
</g>
<g>
	<line x1="61.497" y1="55.812" x2="64.991" y2="55.812"/>
	<path d="M64.991,56.264h-3.494c-0.249,0-0.451-0.202-0.451-0.451s0.202-0.451,0.451-0.451h3.494c0.249,0,0.451,0.202,0.451,0.451   S65.24,56.264,64.991,56.264z"/>
</g>
<g>
	<line x1="25.341" y1="58.724" x2="29.657" y2="58.724"/>
	<path d="M29.657,59.226h-4.316c-0.277,0-0.501-0.225-0.501-0.502s0.225-0.502,0.501-0.502h4.316c0.277,0,0.501,0.225,0.501,0.502   S29.934,59.226,29.657,59.226z"/>
</g>
<g>
	<line x1="34.16" y1="58.724" x2="38.711" y2="58.724"/>
	<path d="M38.711,59.238H34.16c-0.285,0-0.515-0.23-0.515-0.515s0.23-0.515,0.515-0.515h4.552c0.285,0,0.515,0.23,0.515,0.515   S38.996,59.238,38.711,59.238z"/>
</g>
<g>
	<line x1="43.571" y1="58.724" x2="47.173" y2="58.724"/>
	<path d="M47.173,59.182h-3.603c-0.253,0-0.458-0.205-0.458-0.458s0.205-0.458,0.458-0.458h3.603c0.253,0,0.458,0.205,0.458,0.458   S47.426,59.182,47.173,59.182z"/>
</g>
<g>
	<line x1="51.506" y1="58.724" x2="57.11" y2="58.724"/>
	<path d="M57.11,59.295h-5.604c-0.315,0-0.571-0.256-0.571-0.571s0.256-0.571,0.571-0.571h5.604c0.315,0,0.571,0.256,0.571,0.571   S57.426,59.295,57.11,59.295z"/>
</g>
<g>
	<line x1="61.73" y1="58.724" x2="64.758" y2="58.724"/>
	<path d="M64.758,59.144H61.73c-0.232,0-0.42-0.188-0.42-0.42s0.188-0.42,0.42-0.42h3.027c0.232,0,0.42,0.188,0.42,0.42   S64.99,59.144,64.758,59.144z"/>
</g>
<g>
	<line x1="24.827" y1="61.636" x2="30.171" y2="61.636"/>
	<path d="M30.171,62.193h-5.344c-0.308,0-0.558-0.249-0.558-0.558s0.25-0.558,0.558-0.558h5.344c0.308,0,0.558,0.249,0.558,0.558   S30.479,62.193,30.171,62.193z"/>
</g>
<g>
	<line x1="34.314" y1="61.636" x2="38.557" y2="61.636"/>
	<path d="M38.557,62.133h-4.243c-0.274,0-0.498-0.223-0.498-0.497s0.223-0.497,0.498-0.497h4.243c0.274,0,0.498,0.223,0.498,0.497   S38.832,62.133,38.557,62.133z"/>
</g>
<g>
	<line x1="43.535" y1="61.636" x2="47.208" y2="61.636"/>
	<path d="M47.208,62.099h-3.673c-0.255,0-0.463-0.207-0.463-0.463s0.208-0.463,0.463-0.463h3.673c0.255,0,0.463,0.207,0.463,0.463   S47.464,62.099,47.208,62.099z"/>
</g>
<g>
	<line x1="51.551" y1="61.636" x2="57.064" y2="61.636"/>
	<path d="M57.064,62.202h-5.514c-0.313,0-0.566-0.253-0.566-0.566s0.253-0.566,0.566-0.566h5.514c0.313,0,0.566,0.253,0.566,0.566   S57.378,62.202,57.064,62.202z"/>
</g>
<g>
	<line x1="61.563" y1="61.636" x2="64.926" y2="61.636"/>
	<path d="M64.926,62.078h-3.362c-0.244,0-0.442-0.198-0.442-0.442s0.198-0.442,0.442-0.442h3.362c0.244,0,0.442,0.198,0.442,0.442   S65.17,62.078,64.926,62.078z"/>
</g>
<g>
	<line x1="25.251" y1="64.547" x2="29.747" y2="64.547"/>
	<path d="M29.747,65.059h-4.496c-0.283,0-0.512-0.229-0.512-0.512s0.229-0.512,0.512-0.512h4.496c0.283,0,0.512,0.229,0.512,0.512   S30.03,65.059,29.747,65.059z"/>
</g>
<g>
	<line x1="34.449" y1="64.547" x2="38.422" y2="64.547"/>
	<path d="M38.422,65.028h-3.973c-0.266,0-0.481-0.216-0.481-0.481s0.215-0.481,0.481-0.481h3.973c0.266,0,0.481,0.216,0.481,0.481   S38.688,65.028,38.422,65.028z"/>
</g>
<g>
	<line x1="43.372" y1="64.547" x2="47.372" y2="64.547"/>
	<path d="M47.372,65.029h-4c-0.267,0-0.483-0.216-0.483-0.482s0.216-0.482,0.483-0.482h4c0.267,0,0.483,0.216,0.483,0.482   S47.639,65.029,47.372,65.029z"/>
</g>
<g>
	<line x1="52.15" y1="64.547" x2="56.465" y2="64.547"/>
	<path d="M56.465,65.048H52.15c-0.277,0-0.501-0.224-0.501-0.501s0.224-0.501,0.501-0.501h4.314c0.277,0,0.501,0.224,0.501,0.501   S56.742,65.048,56.465,65.048z"/>
</g>
<g>
	<line x1="61.426" y1="64.547" x2="65.063" y2="64.547"/>
	<path d="M65.063,65.007h-3.638c-0.254,0-0.46-0.206-0.46-0.46s0.206-0.46,0.46-0.46h3.638c0.254,0,0.46,0.206,0.46,0.46   S65.317,65.007,65.063,65.007z"/>
</g>
</svg>