<svg xmlns="http://www.w3.org/2000/svg" xmlns:xlink="http://www.w3.org/1999/xlink" version="1.1" id="Layer_1" x="0px" y="0px" width="100.01px" height="100.011px" viewBox="0 0 100.01 100.011" enable-background="new 0 0 100.01 100.011" xml:space="preserve">
<path d="M39.054,28.354l-5.282-10.443c-3.404,1.72-6.471,3.957-9.119,6.59l8.25,8.301C34.688,31.023,36.757,29.516,39.054,28.354z"/>
<path d="M26.03,53.73l-11.558,1.793c0.596,3.834,1.777,7.428,3.438,10.715l10.443-5.279C27.233,58.74,26.434,56.314,26.03,53.73z"/>
<path d="M28.424,38.928l-10.411-5.344c-1.706,3.32-2.906,6.923-3.516,10.688l11.555,1.866C26.46,43.595,27.271,41.168,28.424,38.928  z"/>
<path d="M67.21,32.904l8.299-8.248c-2.659-2.674-5.729-4.915-9.083-6.641l-5.343,10.409C63.346,29.589,65.414,31.102,67.21,32.904z"/>
<path d="M53.873,26.053l1.866-11.555c-3.634-0.584-7.42-0.618-11.253-0.025l1.795,11.561C48.868,25.631,51.423,25.656,53.873,26.053  z"/>
<path d="M60.956,71.658l5.28,10.443c3.404-1.721,6.473-3.957,9.119-6.594l-8.248-8.295C65.321,68.99,63.252,70.498,60.956,71.658z"/>
<path d="M71.587,61.086l10.408,5.342c1.708-3.322,2.908-6.924,3.516-10.689l-11.552-1.865C73.55,56.412,72.739,58.842,71.587,61.086  z"/>
<path d="M82.101,33.774l-10.444,5.282c1.12,2.215,1.918,4.641,2.319,7.228l0,0l11.562-1.796c0,0,0,0,0-0.001  C84.943,40.654,83.76,37.057,82.101,33.774z"/>
<path d="M46.14,73.959l-1.869,11.553c3.633,0.588,7.421,0.625,11.253,0.027l-1.795-11.561C51.142,74.379,48.587,74.352,46.14,73.959  z"/>
<path d="M32.8,67.109l-8.298,8.246c2.661,2.674,5.727,4.916,9.082,6.641l5.342-10.408C36.663,70.426,34.596,68.912,32.8,67.109z"/>
<path d="M34.334,34.238L32.902,32.8c-1.803,1.795-3.314,3.864-4.479,6.127l1.805,0.927C31.295,37.78,32.682,35.884,34.334,34.238z"/>
<path d="M28.036,53.418c-0.367-2.37-0.345-4.71,0.02-6.957l-2.004-0.323c-0.397,2.45-0.418,5.004-0.021,7.59c0,0,0,0,0.001,0.002  L28.036,53.418L28.036,53.418z"/>
<path d="M46.593,28.04l-0.312-2.006c-2.587,0.4-5.012,1.199-7.228,2.32l0.916,1.809C42.001,29.138,44.223,28.408,46.593,28.04z"/>
<path d="M30.162,60.041l-1.809,0.918c1.161,2.295,2.669,4.363,4.446,6.15l1.438-1.432C32.608,64.041,31.227,62.145,30.162,60.041z"/>
<path d="M60.157,30.228l0.926-1.804c-2.24-1.153-4.67-1.964-7.21-2.371l-0.325,2.003C55.876,28.431,58.104,29.172,60.157,30.228z"/>
<path d="M65.677,65.771l1.431,1.441c1.803-1.799,3.314-3.867,4.48-6.129l-1.808-0.926C68.715,62.23,67.328,64.127,65.677,65.771z"/>
<path d="M71.956,53.549l2.002,0.322c0.393-2.449,0.42-5,0.018-7.587l-2.004,0.312C72.339,48.964,72.317,51.304,71.956,53.549z"/>
<path d="M65.771,34.333c1.629,1.638,3.01,3.533,4.075,5.637l1.81-0.915c-1.161-2.296-2.669-4.365-4.446-6.152L65.771,34.333z"/>
<path d="M39.853,69.781l-0.927,1.805c2.242,1.154,4.67,1.965,7.214,2.373l0.321-2.002C44.132,71.578,41.905,70.838,39.853,69.781z"/>
<path d="M53.415,71.971l0.313,2.008c2.586-0.404,5.012-1.199,7.228-2.32l-0.915-1.811C58.008,70.875,55.785,71.605,53.415,71.971z"/>
<path d="M46.4,48.156l-16.173-8.302c-1.056,2.051-1.798,4.278-2.172,6.607l17.948,2.898C46.072,48.934,46.209,48.528,46.4,48.156z"/>
<path d="M47.131,52.863L34.238,65.678c1.645,1.654,3.542,3.039,5.614,4.104l8.305-16.172C47.777,53.416,47.432,53.164,47.131,52.863  z"/>
<path d="M45.998,50.628l-17.962,2.79c0.369,2.371,1.101,4.592,2.126,6.623l16.226-8.205C46.199,51.467,46.063,51.064,45.998,50.628z  "/>
<path d="M48.175,46.387l-8.206-16.225c-2.104,1.064-3.999,2.446-5.635,4.075l12.815,12.895  C47.447,46.834,47.791,46.58,48.175,46.387z"/>
<path d="M50.652,46.005l2.896-17.949c-2.245-0.362-4.584-0.386-6.955-0.017L49.382,46C49.812,45.931,50.241,45.938,50.652,46.005z"/>
<path d="M53.608,51.857l16.172,8.301c1.057-2.053,1.799-4.283,2.176-6.609l-17.947-2.898C53.939,51.074,53.802,51.48,53.608,51.857z  "/>
<path d="M60.157,30.228L51.854,46.4c0.381,0.193,0.724,0.448,1.023,0.751l12.893-12.817C64.125,32.682,62.229,31.294,60.157,30.228z  "/>
<path d="M54.013,49.381C54.013,49.381,54.013,49.381,54.013,49.381l17.959-2.786l0,0c-0.366-2.37-1.1-4.595-2.125-6.625  l-16.222,8.207C53.812,48.547,53.947,48.953,54.013,49.381z"/>
<path d="M49.359,54.012l-2.898,17.945c2.244,0.359,4.584,0.385,6.954,0.014l-2.789-17.953  C50.194,54.082,49.769,54.076,49.359,54.012z"/>
<path d="M51.835,53.625l8.205,16.223c2.104-1.066,4-2.445,5.637-4.076L52.861,52.879C52.563,53.178,52.218,53.432,51.835,53.625z"/>
<path d="M51.621,49.753c0.141,0.897-0.469,1.731-1.366,1.87c-0.891,0.141-1.732-0.472-1.87-1.366  c-0.138-0.892,0.475-1.732,1.368-1.87C50.649,48.249,51.483,48.862,51.621,49.753z"/>
<path d="M94.633,27.437c-2.392-4.732-5.501-8.999-9.166-12.681c-3.701-3.716-7.965-6.835-12.627-9.231  c-4.621-2.377-9.629-4.045-14.862-4.89C52.926-0.18,47.662-0.229,42.329,0.597l0,0c-5.327,0.829-10.327,2.474-14.895,4.78  c-4.732,2.396-8.998,5.504-12.68,9.168c-3.716,3.698-6.835,7.965-9.232,12.63c-2.376,4.615-4.043,9.622-4.887,14.859  c-0.816,5.055-0.865,10.315-0.039,15.643l0,0c0.828,5.334,2.472,10.332,4.78,14.9c2.396,4.73,5.503,8.996,9.168,12.678  c3.699,3.715,7.966,6.832,12.627,9.232c4.617,2.375,9.625,4.045,14.86,4.891c5.053,0.811,10.316,0.861,15.644,0.035l0,0  c5.333-0.828,10.332-2.475,14.899-4.781c4.733-2.391,8.998-5.5,12.679-9.164c3.715-3.701,6.835-7.965,9.234-12.629  c2.373-4.621,4.043-9.629,4.888-14.863c0.812-5.049,0.864-10.313,0.035-15.645l0,0C98.584,37.002,96.94,32.004,94.633,27.437z   M87.898,56.123c-0.648,4.02-1.928,7.863-3.751,11.406l-2.151-1.102c-1.725,3.354-3.968,6.422-6.641,9.08l1.704,1.717  c-2.823,2.812-6.1,5.197-9.73,7.035l-1.093-2.158c-3.284,1.658-6.88,2.844-10.713,3.438l0,0l0.371,2.387  c-4.092,0.637-8.13,0.598-12.009-0.027l0.386-2.387c-3.765-0.607-7.368-1.807-10.688-3.516l-1.105,2.152  c-3.579-1.842-6.852-4.236-9.69-7.088l1.714-1.705c-2.635-2.645-4.872-5.713-6.592-9.117l-2.159,1.092  c-1.772-3.506-3.032-7.342-3.67-11.434l2.393-0.373l0,0c-0.596-3.832-0.561-7.618,0.023-11.251l-2.387-0.385  c0.647-4.019,1.931-7.864,3.754-11.407l2.148,1.104c1.729-3.354,3.97-6.42,6.64-9.084l-1.702-1.712  c2.823-2.812,6.099-5.2,9.729-7.035l1.092,2.157c3.285-1.66,6.882-2.842,10.715-3.438l-0.371-2.39  c4.092-0.639,8.132-0.597,12.008,0.027l-0.384,2.387c3.764,0.609,7.365,1.811,10.687,3.517l1.104-2.15  c3.579,1.843,6.854,4.234,9.692,7.088l-1.713,1.703c2.634,2.646,4.871,5.714,6.592,9.118l2.158-1.092  c1.771,3.507,3.034,7.344,3.668,11.435l0,0l-2.389,0.372c0.598,3.834,0.56,7.618-0.027,11.25L87.898,56.123z"/>
</svg>