<svg xmlns="http://www.w3.org/2000/svg" xmlns:xlink="http://www.w3.org/1999/xlink" version="1.1" id="Layer_1" x="0px" y="0px" width="100px" height="77.2727272727px" viewBox="0 0 792 612" enable-background="new 0 0 792 612" xml:space="preserve">
<path fill="#000000" d="M406.203,303.599l-9.307-22.47l-10.176-24.572c-2.051-4.949-6.742-7.994-11.766-8.205l-0.004-0.022h-0.383  c-0.053-0.001-0.106,0-0.16,0h-18.512c-0.054,0-0.107-0.001-0.16,0h-0.385l-0.004,0.022c-5.022,0.211-9.714,3.256-11.764,8.205  l-10.176,24.572l-9.307,22.47c-1.143,2.757,0.168,5.911,2.924,7.052c2.754,1.141,5.91-0.166,7.051-2.923l9.309-22.466l9.707-23.44  l-11.166,66.677h5v55.672c0,4.146,3.355,7.502,7.5,7.502c4.143,0,7.5-3.356,7.5-7.502v-55.672h6.453v55.672  c0,4.146,3.357,7.502,7.5,7.502c4.145,0,7.5-3.356,7.5-7.502v-55.672h5l-11.169-66.683l9.71,23.447l9.309,22.467  c1.142,2.756,4.298,4.062,7.052,2.922C406.035,309.51,407.346,306.355,406.203,303.599z"/>
<path fill="#000000" d="M365.152,244.463c6.717,0,12.158-5.444,12.158-12.155c0-6.717-5.441-12.161-12.158-12.161  c-6.715,0-12.158,5.444-12.158,12.161C352.994,239.019,358.438,244.463,365.152,244.463z"/>
<path fill="#000000" d="M335.94,246.363h0.054c4.199-0.041,8.171-2.544,9.879-6.668c0.644-1.554,0.88-3.169,0.788-4.741  c0.014-0.007,0.029-0.012,0.043-0.02c0.012-0.659,0.14-1.327,0.408-1.973c0.682-1.648,2.086-2.772,3.693-3.171l0.655-2.235  l-4.664-2.124l0.002,0.004c-0.176-0.097-0.357-0.188-0.548-0.267c-2.756-1.141-5.914,0.167-7.055,2.924  c-0.269,0.647-0.398,1.317-0.409,1.978h-0.005v9.363l-0.015,0.02c-0.032,0.594-0.157,1.192-0.398,1.773  c-0.571,1.379-1.649,2.396-2.93,2.924l0.271,2.201C335.786,246.355,335.863,246.364,335.94,246.363z"/>
<path fill="#000000" d="M383.192,232.962c0.269,0.646,0.397,1.313,0.408,1.973c0.014,0.007,0.029,0.013,0.043,0.02  c-0.092,1.572,0.144,3.188,0.788,4.741c1.708,4.124,5.68,6.627,9.879,6.668h0.054c0.077,0,0.154-0.008,0.23-0.01l0.271-2.201  c-1.28-0.528-2.358-1.545-2.93-2.924c-0.24-0.581-0.366-1.179-0.398-1.773l-0.015-0.02v-9.363h-0.005  c-0.011-0.661-0.14-1.331-0.409-1.978c-1.141-2.757-4.299-4.064-7.055-2.924c-0.19,0.079-0.372,0.169-0.548,0.267l0.002-0.004  l-4.664,2.124l0.655,2.235C381.106,230.19,382.511,231.314,383.192,232.962z"/>
</svg>