<svg xmlns="http://www.w3.org/2000/svg" xmlns:xlink="http://www.w3.org/1999/xlink" version="1.0" id="Layer_1" x="0px" y="0px" width="100px" height="100px" viewBox="0 0 100 100" enable-background="new 0 0 100 100" xml:space="preserve">
<g>
	<path d="M93.584,9.773H50.462V7.159h0.599V0.376h-3.152v6.783h0.553v2.615H6.489v20.297h37.524   c-9.604,0.918-15.786,4.428-21.322,7.583c-5.273,3.004-9.438,5.377-16.161,5.377v11c9.637,0,15.996-3.624,21.606-6.821   c5.655-3.222,11.012-6.262,20.326-6.366v5.913c-11.881,0.08-18.94,3.022-25.17,5.628c-5.197,2.172-9.686,4.049-16.762,4.049v11   c9.284,0,15.243-2.492,21.005-4.9c5.784-2.42,11.263-4.701,20.927-4.777l0,4.65c-11.446,0.047-18.307,1.729-24.363,3.219   c-5.396,1.326-10.056,2.473-17.57,2.473v11c8.847,0,14.617-1.418,20.197-2.791c5.713-1.406,11.627-2.855,21.735-2.9v5.92H6.554   v20.297h86.841V79.326H50.462c0-1.074,0-3.168,0-5.912c9.248,0.129,14.797,1.428,20.646,2.799   c6.048,1.418,12.301,2.885,22.223,2.885v-11c-8.648,0-14.022-1.26-19.711-2.594c-6.208-1.455-12.627-2.955-23.158-3.09   c0-1.518,0-3.072,0-4.643c8.836,0.221,14.205,2.357,19.865,4.613c6.226,2.482,12.663,5.049,23.004,5.049v-11   c-8.229,0-13.188-1.977-18.93-4.266c-6.091-2.429-12.97-5.161-23.939-5.396c0-2.085,0-4.078,0-5.908   c8.504,0.304,13.748,3.147,19.276,6.152c6.052,3.288,12.91,7.015,23.593,7.015v-11c-7.888,0-12.731-2.632-18.341-5.68   c-5.563-3.023-11.774-6.385-21.136-7.28h39.729V9.773z M86.584,92.623H65.49c0.069-0.146,0.114-0.307,0.114-0.48   c0-0.629-0.511-1.141-1.14-1.141c-0.63,0-1.141,0.512-1.141,1.141c0,0.174,0.045,0.334,0.114,0.48H40.46   c-0.183-0.125-0.392-0.217-0.631-0.217c-0.24,0-0.45,0.092-0.633,0.217H23.201c-0.124-0.496-0.551-0.869-1.083-0.869   c-0.535,0-0.962,0.373-1.086,0.869h-7.542v-4.164c0.121,0.5,0.55,0.879,1.088,0.879c0.629,0,1.139-0.51,1.139-1.139   c0-0.631-0.51-1.141-1.139-1.141c-0.538,0-0.967,0.379-1.088,0.879v-1.611h67.569c-0.17,0.199-0.283,0.449-0.283,0.732   c0,0.629,0.51,1.139,1.141,1.139c0.629,0,1.139-0.51,1.139-1.139c0-0.283-0.113-0.533-0.283-0.732h3.813V92.623z M86.584,23.071   H85.49c-0.023-0.001-0.043-0.014-0.067-0.014s-0.044,0.012-0.067,0.014H71.063c0.347-0.195,0.59-0.552,0.59-0.978   c0-0.631-0.51-1.141-1.139-1.141c-0.631,0-1.14,0.51-1.14,1.141c0,0.426,0.243,0.782,0.59,0.978H47.906   c0-0.005,0.003-0.008,0.003-0.013c0-0.63-0.51-1.14-1.139-1.14c-0.631,0-1.14,0.51-1.14,1.14c0,0.005,0.002,0.008,0.002,0.013   H23.884c0.04-0.116,0.073-0.235,0.073-0.364c0-0.63-0.509-1.14-1.138-1.14c-0.631,0-1.141,0.51-1.141,1.14   c0,0.129,0.034,0.249,0.074,0.364h-7.107c-0.024-0.001-0.044-0.014-0.068-0.014s-0.044,0.012-0.068,0.014h-1.02v-6.297h3.25   c0.131,0.484,0.555,0.847,1.081,0.847s0.949-0.363,1.081-0.847h26.087c-0.005,0.043-0.025,0.081-0.025,0.125   c0,0.629,0.51,1.139,1.141,1.139c0.628,0,1.138-0.51,1.138-1.139c0-0.044-0.02-0.082-0.025-0.125h8.724   c-0.143,0.19-0.243,0.416-0.243,0.672c0,0.629,0.51,1.139,1.141,1.139c0.629,0,1.139-0.51,1.139-1.139   c0-0.257-0.101-0.482-0.243-0.672h18.014c0.132,0.484,0.556,0.847,1.082,0.847c0.525,0,0.948-0.363,1.08-0.847h5.189   c-0.238,0.209-0.396,0.506-0.396,0.848c0,0.629,0.51,1.139,1.141,1.139c0.629,0,1.139-0.51,1.139-1.139   c0-0.342-0.157-0.639-0.395-0.848h1.996V23.071z"/>
	<circle cx="33.076" cy="19.023" r="1.14"/>
	<circle cx="68.062" cy="90.614" r="1.14"/>
	<circle cx="78.583" cy="91.267" r="1.14"/>
	<circle cx="30.623" cy="90.038" r="1.14"/>
	<circle cx="18.26" cy="87.759" r="1.14"/>
	<circle cx="49.209" cy="89.601" r="1.14"/>
	<circle cx="56.312" cy="88.46" r="1.14"/>
</g>
</svg>