<svg xmlns="http://www.w3.org/2000/svg" xmlns:xlink="http://www.w3.org/1999/xlink" version="1.1" id="Layer_1" x="0px" y="0px" width="100px" height="100px" viewBox="0 0 100 100" enable-background="new 0 0 100 100" xml:space="preserve">
<g>
	<path fill="#000000" d="M28.077,41.825"/>
	<path fill="#000000" d="M93.783,54.43V68.7h6.088v14.271h-6.088V100H31.63V58.694h-4.821V45.757H8.438v6.664H0.109V41.825h26.7   v-3.678h4.821v-5.582h29.161L44.061,20.41l0.715-0.984l-11.795-8.567l1.225-1.686L46,17.741l0.625-0.861l21.589,15.686h25.568   v7.595h6.088v14.27H93.783z M75.151,93.987c5.961,0,10.795-4.833,10.795-10.794c0-5.962-4.834-10.794-10.795-10.794   c-5.962,0-10.794,4.832-10.794,10.794C64.357,89.154,69.189,93.987,75.151,93.987L75.151,93.987z M68.563,68.628   c2.683,0,4.857-2.176,4.857-4.857c0-2.685-2.175-4.857-4.857-4.857s-4.857,2.173-4.857,4.857   C63.706,66.452,65.881,68.628,68.563,68.628L68.563,68.628z M81.692,68.628c2.683,0,4.856-2.176,4.856-4.857   c0-2.685-2.174-4.857-4.856-4.857s-4.857,2.173-4.857,4.857C76.835,66.452,79.01,68.628,81.692,68.628L81.692,68.628z    M37.972,38.147v13.429h48.471V38.147H37.972L37.972,38.147z"/>
	<polygon fill="#000000" points="55.863,40.776 55.863,49.323 58.196,49.323 58.196,40.776 55.863,40.776  "/>
	<polygon fill="#000000" points="59.981,40.776 59.981,49.323 62.314,49.323 62.314,40.776 59.981,40.776  "/>
	<polygon fill="#000000" points="64.099,40.776 64.099,49.323 66.431,49.323 66.431,40.776 64.099,40.776  "/>
	<polygon fill="#000000" points="68.215,40.776 68.215,49.323 70.548,49.323 70.548,40.776 68.215,40.776  "/>
	<polygon fill="#000000" points="72.333,40.776 72.333,49.323 74.665,49.323 74.665,40.776 72.333,40.776  "/>
	<polygon fill="#000000" points="76.449,40.776 76.449,49.323 78.781,49.323 78.781,40.776 76.449,40.776  "/>
	<polygon fill="#000000" points="80.567,40.776 80.567,49.323 82.898,49.323 82.898,40.776 80.567,40.776  "/>
</g>
</svg>