<svg xmlns="http://www.w3.org/2000/svg" xmlns:xlink="http://www.w3.org/1999/xlink" version="1.2" baseProfile="tiny" id="unlock" x="0px" y="0px" width="100.0px" height="100px" viewBox="0 0 500 500" overflow="inherit" xml:space="preserve">
<path fill-rule="evenodd" d="M400,450H100c-25,0-25,0-25-25V275c0-25,0-50,50-50h75h100v-75c0-25,0-25-25-25h-50  c-24.135,0-24.97,0.007-24.999,22.5L175,160v15h25v25h-75v-50c0-75,25-100,100-100h50c75,0,100,25,100,100v75c50,0,50,25,50,50v150  C425,450,425,450,400,450z"/>
</svg>