<svg xmlns:x="http://ns.adobe.com/Extensibility/1.0/" xmlns:i="http://ns.adobe.com/AdobeIllustrator/10.0/" xmlns:graph="http://ns.adobe.com/Graphs/1.0/" xmlns="http://www.w3.org/2000/svg" xmlns:xlink="http://www.w3.org/1999/xlink" xmlns:a="http://ns.adobe.com/AdobeSVGViewerExtensions/3.0/" version="1.0" id="Layer_1" x="0px" y="0px" width="100px" height="100px" viewBox="0 0 100 100" enable-background="new 0 0 100 100" xml:space="preserve">
<g>
	<path d="M31.118,67.23c0,11.07,8.976,20.046,20.048,20.046c11.073,0,20.048-8.976,20.048-20.046c0-11.072-8.975-20.05-20.048-20.05   C40.094,47.18,31.118,56.158,31.118,67.23L31.118,67.23z M28.165,35.685c0-8.891,5.124-16.585,12.58-20.29   c-0.522-1.273-0.811-2.667-0.811-4.128c0-6.006,4.869-10.874,10.875-10.874c6.005,0,10.873,4.868,10.873,10.874   c0,1.461-0.287,2.855-0.811,4.128c7.457,3.705,12.581,11.399,12.581,20.29c0,2.879-0.536,5.633-1.519,8.166   c6.318,5.746,10.285,14.031,10.285,23.243c0,7.961-2.962,15.229-7.844,20.766c0.614,0.759,1.196,1.67,1.701,2.691   c1.739,3.521,1.877,7.008,0.309,7.789c-1.569,0.779-4.254-1.443-5.992-4.965c-0.212-0.43-0.4-0.859-0.564-1.281   c-5.28,4.023-11.871,6.41-19.02,6.41c-6.968,0-13.406-2.27-18.616-6.107c-0.134,0.324-0.282,0.651-0.444,0.979   c-1.74,3.521-4.422,5.744-5.991,4.965c-1.57-0.781-1.432-4.268,0.308-7.789c0.436-0.883,0.932-1.684,1.455-2.379   c-5.048-5.572-8.123-12.967-8.123-21.078c0-9.212,3.966-17.498,10.283-23.243C28.702,41.317,28.165,38.563,28.165,35.685   L28.165,35.685z M45.924,11.266c0,2.697,2.187,4.884,4.884,4.884c2.697,0,4.883-2.187,4.883-4.884s-2.186-4.883-4.883-4.883   C48.111,6.383,45.924,8.569,45.924,11.266L45.924,11.266z M57.826,55.773c-6.329-3.802-14.541-1.755-18.344,4.574   s-1.755,14.542,4.573,18.344c6.328,3.803,14.541,1.756,18.345-4.574C66.202,67.789,64.154,59.576,57.826,55.773L57.826,55.773z    M65.241,77.215c-2.843,4-7.35,6.736-12.513,7.199c-0.289-0.594-0.9-1.005-1.606-1.005c-0.704,0-1.313,0.407-1.604,0.997   c-5.154-0.488-9.647-3.243-12.473-7.258c0.345-0.543,0.382-1.254,0.038-1.851c-0.342-0.594-0.973-0.915-1.614-0.893   c-1.001-2.185-1.559-4.615-1.559-7.175c0-2.593,0.571-5.049,1.594-7.254c0.628,0.012,1.245-0.309,1.582-0.893   c0.336-0.582,0.308-1.273-0.014-1.812c2.833-4.004,7.332-6.747,12.486-7.225c0.304,0.554,0.892,0.93,1.569,0.93   c0.68,0,1.27-0.379,1.57-0.937c5.164,0.456,9.674,3.184,12.524,7.178c-0.358,0.546-0.403,1.269-0.056,1.876   c0.353,0.607,1.008,0.932,1.666,0.89c1.021,2.204,1.591,4.656,1.591,7.247c0,2.564-0.561,4.998-1.565,7.188   c-0.667-0.055-1.336,0.271-1.691,0.889C64.811,75.924,64.864,76.664,65.241,77.215L65.241,77.215z M52.346,64.893   c-1.291-0.775-2.968-0.356-3.744,0.934c-0.776,1.293-0.358,2.97,0.934,3.746c1.292,0.776,2.968,0.357,3.744-0.934   C54.055,67.347,53.639,65.67,52.346,64.893L52.346,64.893z M55.211,60.125c3.926,2.357,5.196,7.453,2.838,11.379   c-2.359,3.926-7.453,5.195-11.379,2.836s-5.196-7.452-2.837-11.379C46.191,59.036,51.287,57.766,55.211,60.125L55.211,60.125z    M35.074,58.998c-0.44-0.254-0.591-0.817-0.336-1.258c0.254-0.439,0.816-0.59,1.257-0.337c0.44,0.255,0.591,0.817,0.337,1.259   C36.077,59.102,35.515,59.252,35.074,58.998L35.074,58.998z M35.996,76.997c-0.44,0.255-1.003,0.103-1.257-0.337   c-0.253-0.439-0.103-1.003,0.337-1.256c0.44-0.256,1.002-0.105,1.256,0.336C36.587,76.18,36.436,76.742,35.996,76.997   L35.996,76.997z M52.041,85.203c0,0.508-0.412,0.92-0.921,0.92s-0.921-0.412-0.921-0.92s0.412-0.92,0.921-0.92   S52.041,84.695,52.041,85.203L52.041,85.203z M67.17,75.41c0.439,0.253,0.592,0.815,0.338,1.256   c-0.256,0.441-0.817,0.592-1.258,0.338c-0.44-0.255-0.592-0.818-0.337-1.257C66.168,75.307,66.73,75.156,67.17,75.41L67.17,75.41z    M66.242,57.412c0.439-0.252,1.002-0.103,1.256,0.336c0.253,0.441,0.104,1.004-0.338,1.26c-0.439,0.252-1.002,0.102-1.256-0.338   S65.801,57.666,66.242,57.412L66.242,57.412z M50.207,49.19c0-0.509,0.412-0.921,0.92-0.921s0.92,0.412,0.92,0.921   c0,0.508-0.412,0.921-0.92,0.921S50.207,49.699,50.207,49.19L50.207,49.19z M48.024,11.266c0-1.537,1.247-2.784,2.784-2.784   c1.537,0,2.783,1.247,2.783,2.784s-1.246,2.784-2.783,2.784C49.271,14.05,48.024,12.803,48.024,11.266L48.024,11.266z"/>
</g>
</svg>