<svg xmlns="http://www.w3.org/2000/svg" xmlns:xlink="http://www.w3.org/1999/xlink" version="1.1" id="Layer_1" x="0px" y="0px" width="100px" height="100px" viewBox="0 0 100 100" enable-background="new 0 0 100 100" xml:space="preserve">
<path fill="#000000" d="M39.371,59.248l5.292,5.291l9.438,1.145l1.43,9.438l9.725,1.43l0.857,9.725l9.867,1.287L77.123,97  l18.734-1.287L97,76.551l-37.18-37.18c0,0,5.791-15.945-7.794-29.531s-32.248-8.222-40.827,0.358  c-8.151,8.15-13.585,27.6-1.001,40.183C24.784,64.969,39.371,59.248,39.371,59.248z M92.854,78.41l-0.287,5.436l-38.039-38.04  l2.861-2.861L92.854,78.41z M16.518,15.517c5.79-5.789,13.511-7.454,17.248-3.717c3.736,3.736,2.072,11.458-3.718,17.248  C24.258,34.836,16.536,36.5,12.8,32.764C9.064,29.028,10.728,21.306,16.518,15.517z"/>
</svg>