<svg xmlns="http://www.w3.org/2000/svg" xmlns:xlink="http://www.w3.org/1999/xlink" version="1.0" id="Layer_1" x="0px" y="0px" width="100px" height="100px" viewBox="0 0 100 100" enable-background="new 0 0 100 100" xml:space="preserve">
<g>
	<circle cx="60.539" cy="10.019" r="5.088"/>
	<path d="M42.279,39.208c0,0-1.135-1.601-0.151-3.241c0.985-1.642,0.603-1.231,2.736-3.037c2.134-1.806,15.674-15.428,15.674-15.428   s1.219-1.483,4.598-1.075c2.789,0.336,4.198,4.645,5.005,9.117c0.902,5.013,1.969,13.037,1.969,13.459   c0,2.052-1.146,3.29-3.241,4.308c-2.157,1.05-7.591,2.749-10.053,3.734c-2.462,0.985-5.17,1.231-4.678,2.544   c0.492,1.312,4.679,11.726,5.457,13.5c0.738,1.679,1.067,2.953,1.067,2.953c-1.143,1.149-2.503,2.585-2.996,3.241   c-0.491,0.657-3.61,3.037-4.267,0.903c-0.657-2.134,0.328-2.79,0.328-2.79l-6.521-15.661c0.25,0.576-0.898-1.845-1.604-4.035   c0,0-1.395-2.708,2.298-4.185c3.71-1.484,10.147-4.174,10.725-4.562c0.599-0.402,1.625-0.815,1.625-0.815s-0.304-1.116-1.271-2.912   c-0.95-1.764-1.428-3.316-1.847-3.365c-1.252-0.146-3.333,2.082-3.652,2.38c-1.273,1.192-3.692,3.528-4.677,4.677   c-0.984,1.148-2.462,2.052-2.462,2.052l-2.705-0.751L42.279,39.208z"/>
	<path d="M78.654,56.164c-2.319,0-4.52,0.519-6.494,1.442l-2.997-5.309c0,0-0.367-0.363,0.444-1.63   c0.492-0.769,1.23-2.8,1.969-2.862c0.739-0.062,1.944,0.175,2.34,0c0.765-0.339,1.065-1.484,1.107-2.647   c0.054-1.481-0.122-2.21-0.308-2.339C74.15,42.427,73.7,42.334,73.3,42.45c-0.935,0.271-3.262,1.258-3.262,1.258   c-0.984,0.281-3.346,1.275-3.939,1.481c-0.6,0.208-1.415,0.646-1.785,0.954c-0.369,0.308,0.062,1.231,0.308,1.293   c0.247,0.061,0.186,0.184,0.862-0.062c0.678-0.246,1.323-0.379,1.108,0.308c-0.246,0.784-0.487,1.489-0.842,2.238   c-0.369,0.778-1.129,0.572-1.129,0.572l-18.127-0.381c0,0-2.736-0.009-3.579-0.049c-0.872-0.041-3.941-0.115-4.985-0.041   c-1.148,0.082-0.938,0.198-0.585-0.57c0.379-0.824,0.339-1.477,0.257-2.708c-0.082-1.23-0.698-2.324-1.108-3.035   c-0.41-0.713,0.165-0.802,0.165-0.802l1.641-0.018c0,0,3.242,0.229,4.227,0.146c0.984-0.082,3.013,0.187,3.662-0.061   c0.659-0.252,0.161-1.915,0.161-3.414c0,0-9.393,0.119-10.1,0.182c-0.612,0.055-1.337,0.438-2.01,1.077   c-0.631,0.601-0.945,1.549-1.028,2.889c-0.082,1.339,0.791,1.913,0.986,3.035c0.155,0.895,0.217,1.383,0.217,1.383   s-0.25,0.338-0.703,1.214l0,0l-2.387,3.217l-2.791,4.583l-0.399,0.726c-2.106-1.086-4.492-1.702-7.02-1.702   c-8.484,0-15.388,6.902-15.388,15.387s6.903,15.388,15.388,15.388s15.387-6.903,15.387-15.388c0-4.814-2.224-9.118-5.698-11.942   l0.028-0.047l2.216-3.242c0,0,12.396,10.718,15.369,13.083c-0.099,0.551-0.046,1.256,0.08,2.148   c0.738,5.244,2.495,5.668,15.264,4.506c0.061-0.006,0.118-0.01,0.178-0.016c1.926,6.301,7.794,10.897,14.717,10.897   c8.485,0,15.388-6.903,15.388-15.388S87.14,56.164,78.654,56.164z M33.793,71.551c0,6.992-5.688,12.68-12.679,12.68   c-6.992,0-12.68-5.688-12.68-12.68c0-6.991,5.688-12.679,12.68-12.679c2.055,0,3.995,0.494,5.714,1.366l-0.305,0.554l-3.734,5.858   l-1.675,2.266c0,0-1.423,0.543-1.854,1.19c-0.489,0.734-1.241,1.653-0.646,2.791c0.45,0.859,0.844,1.567,2.5,1.743   c1.472,0.155,2.125-0.636,2.618-1.62c0.493-0.985,0.329-1.962,0.329-1.962l0.205-0.87l2.38-3.538l2.762-4.678   C32.09,64.3,33.793,67.729,33.793,71.551z M63.664,68.096c-6.099-0.323-9.865-0.585-12.136-0.436   c0.09-0.085,0.147-0.139,0.147-0.139s-14.69-13.007-14.936-13.09c-0.246-0.081-1.118-1.873-1.118-1.874l0.066-0.097l1.051,1.971   l0.329-0.595L62.58,54.08l0.021-0.036c0.198,0.16,0.493,0.317,0.195,0.962c-0.492,1.067-0.771,1.272-1.525,2.512   c-0.66,1.085-1.188,1.678-1.266,2.535c-0.037,0.411,0.919,1.926,1.371,2.435c0.442,0.497,0.66,0.705,1.399-0.648   c0.738-1.354,2.154-3.684,2.708-4.463c0.615-0.864,0.861-1.446,1.169-1.2s1.17,1.601,1.539,2.216   c0.072,0.12,0.332,0.594,0.702,1.273C66.314,61.787,64.439,64.733,63.664,68.096z M70.213,62.102   c1.609,2.977,3.585,6.647,3.602,6.648c0,0,0,0.001,0.001,0.001c-2.197-0.25-4.741-0.383-7.397-0.516   C67.07,65.834,68.41,63.714,70.213,62.102z M78.654,84.23c-5.483,0-10.164-3.501-11.928-8.385   c9.353-0.489,14.597,0.794,14.206-3.772c-0.097-1.126-1.057-1.891-2.601-2.426c-0.07-0.15-0.167-0.347-0.292-0.608   c-0.862-1.784-3.386-7.016-3.386-7.016l-1.157-2.05c1.576-0.706,3.321-1.102,5.157-1.102c6.992,0,12.68,5.688,12.68,12.679   C91.334,78.543,85.646,84.23,78.654,84.23z"/>
</g>
</svg>