<svg xmlns="http://www.w3.org/2000/svg" xmlns:xlink="http://www.w3.org/1999/xlink" version="1.1" id="Capa_1" x="0px" y="0px" width="87.7192982456px" height="100px" viewBox="0 0 100 114.796" enable-background="new 0 0 100 114.796" xml:space="preserve">
<path d="M99.221,28.142L50.867,0.225c-0.518-0.3-1.157-0.3-1.675,0L0.837,28.142C0.319,28.441,0,28.994,0,29.593v55.835  c0,0.599,0.319,1.151,0.837,1.45l48.354,27.918c0.259,0.149,0.548,0.225,0.837,0.225s0.579-0.075,0.837-0.225l48.354-27.918  c0.519-0.299,0.838-0.852,0.838-1.45V29.593C100.059,28.994,99.739,28.441,99.221,28.142z M48.354,110.444l-15.909-9.186V49.292  l15.909,9.185V110.444z M50.029,55.576l-15.909-9.185l15.909-9.186l15.908,9.186L50.029,55.576z M79.125,38.778l-15.909-9.185  l15.909-9.185l15.908,9.185L79.125,38.778z M50.029,3.609l15.908,9.185l-15.908,9.186l-15.909-9.186L50.029,3.609z M20.934,20.408  l15.91,9.185l-15.91,9.185L5.025,29.593L20.934,20.408z M3.35,32.494l15.909,9.185v51.967L3.35,84.461V32.494z M51.704,58.478  l15.909-9.185v51.966l-15.909,9.186V58.478z M96.708,84.461L80.8,93.646V41.679l15.908-9.185V84.461z"/>
<path fill="#000000" d="M71.776,11.061c1.354-0.774,2.568-0.851,3.456-0.346c0.895,0.509,1.439,1.59,1.444,3.146  c0.004,1.548-0.534,3.262-1.423,4.792c-0.881,1.526-2.091,2.857-3.445,3.639l-12.741,7.356l9.176-14.814  c0.035-0.052,0.068-0.104,0.102-0.16C69.226,13.157,70.436,11.843,71.776,11.061z"/>
<path d="M76.92,7.822c0.003,0.002,0.007,0.003,0.011,0.005l-0.022-0.013c-0.001,0-0.001,0-0.002-0.001L65.125,0.967  c-1.32-0.767-3.146-0.659-5.162,0.504c-1.962,1.132-3.748,3.066-5.056,5.29L43.363,25.383c-0.363,0.587-0.49,1.267-0.31,1.689  c0.061,0.144,0.152,0.249,0.266,0.315l11.806,6.86c-0.011-0.006-0.016-0.024-0.027-0.032c0.223,0.15,0.535,0.148,0.876-0.049  l15.842-9.146c4.007-2.313,7.248-7.926,7.235-12.531C79.044,10.191,78.229,8.578,76.92,7.822z M75.254,18.653  c-0.881,1.526-2.091,2.857-3.445,3.639l-12.741,7.356l9.176-14.814c0.035-0.052,0.068-0.104,0.102-0.16  c0.881-1.519,2.091-2.833,3.431-3.615c1.355-0.774,2.569-0.851,3.457-0.346c0.895,0.509,1.439,1.59,1.444,3.146  C76.681,15.409,76.143,17.123,75.254,18.653z"/>
<path fill="#000000" d="M36.198,29.882c1.354-0.762,2.567-0.832,3.464-0.331c0.013,0.007,0.026,0.015,0.036,0.029l9.327,4.286  l-12.857,7.24c-1.367,0.77-2.589,0.835-3.485,0.326c-0.888-0.522-1.431-1.607-1.427-3.163c0.004-1.557,0.555-3.258,1.45-4.775  C33.606,31.963,34.832,30.652,36.198,29.882z"/>
<path d="M52.951,32.006l-11.696-6.967l-11.601-5.342c-1.312-0.752-3.136-0.641-5.143,0.49c-4.05,2.281-7.342,7.864-7.355,12.468  c-0.007,2.281,0.791,3.894,2.087,4.667l11.696,6.968c-0.082-0.048-0.155-0.11-0.233-0.166c1.338,0.953,3.28,0.938,5.454-0.281  l15.986-9.002c0.498-0.28,0.944-0.883,1.126-1.509C53.444,32.702,53.323,32.173,52.951,32.006z M36.167,41.106  c-1.367,0.77-2.589,0.835-3.485,0.326c-0.888-0.522-1.431-1.607-1.427-3.163c0.004-1.557,0.555-3.258,1.45-4.775  c0.902-1.531,2.127-2.842,3.494-3.612c1.354-0.762,2.567-0.832,3.464-0.331c0.013,0.007,0.026,0.015,0.04,0.021l9.322,4.294  L36.167,41.106z"/>
</svg>