<svg xmlns="http://www.w3.org/2000/svg" xmlns:xlink="http://www.w3.org/1999/xlink" version="1.1" id="Layer_1" x="0px" y="0px" width="100px" height="100px" viewBox="0 0 100 100" enable-background="new 0 0 100 100" xml:space="preserve">
<path d="M3.617,8.616L2.229,4.522c12.468-4.101,21.274-5.25,24.468-4.101c6.708,2.413,13.422,12.436,13.487,12.564  c0.094,0.196,0.12,0.469-0.059,0.56c-0.178,0.091-8.511,4.173-8.695,4.266c-0.184,0.093-0.373,0.002-0.504-0.25  c-0.503-0.966-2.838-8.135-5.356-11.223c-0.498-0.748-2.208-0.945-2.608-0.963C15.599,5.037,5.03,8.077,3.617,8.616z"/>
<path d="M71.158,66.11c0,1.874-1.52,3.394-3.394,3.394h-10.18c-1.874,0-3.394-1.52-3.394-3.394V52.463  c0-1.875,1.52-3.394,3.394-3.394h10.18c1.874,0,3.394,1.52,3.394,3.394V66.11z"/>
<path d="M87.893,1.569c-6.838,0.01-24.03,0.041-28.264,0c-4.234-0.04-6.636,3.542-8.508,6.351c-1.873,2.809-3.501,6.717-3.501,6.717  s-0.963,0.473-2.441,1.203c-0.555-0.575-2.049-1.33-2.424-1.144c-3.917,1.935-9.411,4.617-12.213,6.076  c-0.435,0.227-0.704,2.047-0.561,2.719c0.015-0.008,0.025-0.014,0,0c-2.036,1.181-3.285,3.969-3.285,5.805c0,1.14,0,56.307,0,59.359  c0,5.917,4.252,11.224,11.539,11.224c7.286,0,44.903,0.121,48.688,0.121c5.772,0,10.848-5.251,10.848-11.295  c0-3.745,0-74.629,0-76.542C97.771,7.269,93.66,1.569,87.893,1.569z M56.656,6.78c1.222-2.076,3.732-2.769,4.953-2.769  c1.222,0,18.454,0,18.454,0s2.279-0.163,3.095,1.181c0.488,0.652,0.285,1.71,0,2.483c-0.15,0.405-1.71,2.704-3.745,4.396  c-1.335,1.11-2.688,1.832-5.904,2.402c-3.215,0.569-10.095,0.366-13.229,0.366c-3.134,0-5.658,0.936-5.658,0.936l-2.971,0.977  C51.65,16.753,55.705,8.399,56.656,6.78z M74.138,50.576v17.42c0,0.712-0.169,1.383-0.463,1.982l15.5,15.5  c0.574,0.573,0.574,1.505,0,2.08c-0.574,0.574-1.505,0.574-2.08,0l-15.5-15.5c-0.599,0.292-1.27,0.462-1.982,0.462H55.586  c-0.712,0-1.383-0.17-1.982-0.462l-15.5,15.499c-0.574,0.575-1.505,0.575-2.08,0c-0.574-0.574-0.574-1.506,0-2.079l15.5-15.5  c-0.293-0.599-0.463-1.271-0.463-1.982v-17.42c0-0.712,0.17-1.383,0.463-1.982l-15.5-15.5c-0.574-0.574-0.574-1.505,0-2.08  s1.505-0.574,2.08,0l15.5,15.5c0.6-0.293,1.271-0.462,1.982-0.462h14.026c0.713,0,1.384,0.169,1.982,0.462l15.5-15.5  c0.575-0.574,1.506-0.574,2.08,0s0.574,1.505,0,2.08l-15.5,15.5C73.969,49.192,74.138,49.863,74.138,50.576z"/>
</svg>