<svg xmlns="http://www.w3.org/2000/svg" xmlns:xlink="http://www.w3.org/1999/xlink" version="1.1" id="Layer_1" x="0px" y="0px" width="100px" height="100px" viewBox="0 0 100 100" enable-background="new 0 0 100 100" xml:space="preserve">
<g>
	<g>
		<path fill-rule="evenodd" clip-rule="evenodd" d="M84.98,17.429c-9.301,0.565-20.777,6.438-20.591,19.118    c0.117,0.302,0.25,0.621,0.368,0.933c-4.417,1.927-8.84,3.849-13.257,5.777c-12.068-5.232-24.128-10.453-36.194-15.698    c-5.688-2.465-11.406-6.561-13.925-0.586c3.012,2.972,7.922,4.471,12.036,7.094c9.137,4.582,18.261,9.163,27.387,13.747    c-9.541,5.34-20.26,8.615-29.978,13.78c-3.494,1.867-7.645,3.03-10.678,5.965c1.698,6.427,9.651,1.247,12.766,0.396    c12.735-5.07,25.472-10.143,38.205-15.203c4.623,2.156,9.241,4.317,13.863,6.474c-5.687,15.031,30.276,29.23,34.254,11.905    c1.904-8.326-7.037-17.239-17.742-19.076c-2.376-0.4-4.897-0.563-7.056-0.248c-0.716,0.207-1.435,0.414-2.147,0.629    c-3.129-1.415-6.252-2.814-9.376-4.22c2.858-1.104,5.72-2.202,8.584-3.296c1.84-1.058,5.976-0.185,7.979-0.429    c7.161-0.888,22.499-7.666,19.485-19.445C97.694,20.079,90.309,17.113,84.98,17.429z M92.635,69.823    c-0.738,2.333-4.085,2.453-5.887,2.434c-7.394-0.049-14.622-5.039-15.505-10.931C74.718,53.476,94.885,62.692,92.635,69.823z     M54.569,49.107c-0.809,4.036-8.201,2.524-6.442-2.013C49.886,42.556,55.37,45.162,54.569,49.107z M92.563,27.271    c0.514,2.328-2.078,4.898-3.388,5.994c-3.109,2.59-17.544,9.1-18.242,0.038c2.683-6.524,9.218-8.844,14.413-9.169    C87.574,24.004,91.987,24.638,92.563,27.271z"/>
	</g>
</g>
</svg>