<svg xmlns="http://www.w3.org/2000/svg" xmlns:xlink="http://www.w3.org/1999/xlink" version="1.1" id="Layer_1" x="0px" y="0px" width="100px" height="100px" viewBox="0 0 100 100" enable-background="new 0 0 100 100" xml:space="preserve">
<g>
	<path fill-rule="evenodd" clip-rule="evenodd" d="M74.46,49.058c2.293,11.235,29.402,6.099,25.201-5.871   c-2.021-5.749-10.814-7.723-17.975-4.743c-1.585,0.658-3.167,1.52-4.354,2.532c-0.35,0.396-0.699,0.802-1.056,1.194   c-2.423,0.344-4.845,0.688-7.269,1.027c1.31-1.752,2.618-3.504,3.929-5.257c0.118-0.362,0.234-0.721,0.353-1.087   c1.056-0.932,3.172-1.294,4.296-2.211c3.985-3.264,10.657-13.202,4.357-19.158c-2.666-2.514-8.25-1.49-11.343,0.732   c-5.397,3.882-10.089,11.793-5.146,19.379c0.191,0.14,0.388,0.281,0.58,0.421c-1.932,2.847-3.865,5.693-5.795,8.54   c-9.271,1.438-18.546,2.883-27.82,4.318c-4.37,0.677-9.377,0.385-8.623,4.95c2.946,0.646,6.481-0.318,9.965-0.304   c7.251-0.717,14.505-1.43,21.758-2.14c-1.838,3.381-4.038,6.57-6.264,9.752H36.349v6.729h8.332   c-0.688,1.074-1.362,2.155-1.994,3.261c-1.401,2.455-3.458,4.739-4.174,7.667c3.473,3.224,6.298-2.928,7.849-4.628   c1.527-2.101,3.055-4.2,4.583-6.3h11.079v-6.729H55.84c2.597-3.567,5.193-7.137,7.788-10.706   C67.238,49.975,70.849,49.517,74.46,49.058z M95.18,44.914c0.447,1.689-1.528,3.035-2.623,3.711   c-4.482,2.788-10.747,2.533-13.523-0.688C78.137,41.875,93.813,39.753,95.18,44.914z M73.373,20.122   c1.291-0.932,4.194-2.226,5.542-0.858c1.203,1.213,0.625,3.749,0.246,4.91c-0.886,2.75-7.12,12.174-10.991,6.973   C67.3,26.189,70.36,22.296,73.373,20.122z M59.665,48.16c-0.17-2.995,3.633-3.926,4.656-1.242   C65.368,49.661,61.51,51.328,59.665,48.16z"/>
	<rect y="61.136" fill-rule="evenodd" clip-rule="evenodd" width="25.673" height="6.729"/>
	<rect x="73.853" y="61.136" fill-rule="evenodd" clip-rule="evenodd" width="25.675" height="6.729"/>
</g>
</svg>