<svg xmlns="http://www.w3.org/2000/svg" xmlns:xlink="http://www.w3.org/1999/xlink" version="1.1" id="Layer_1" x="0px" y="0px" width="100px" height="100px" viewBox="0 0 100 100" enable-background="new 0 0 100 100" xml:space="preserve">
<path d="M93.618,39.071l-0.211-0.665c-0.948-2.926-4.095-4.533-7.021-3.584l-27.423,6.315L56.546,13.08  c0.002-3.073-2.49-5.566-5.568-5.574l-0.696-0.001c-3.077-0.004-5.574,2.488-5.579,5.568l-2.467,28.032L14.823,34.74  c-2.924-0.953-6.07,0.645-7.025,3.568l-0.215,0.663c-0.957,2.927,0.643,6.069,3.572,7.027L37.05,57.007L22.527,81.11  c-1.815,2.492-1.268,5.975,1.222,7.786l0.563,0.406c2.486,1.814,5.973,1.267,7.786-1.226l18.475-21.222l18.433,21.259  c1.806,2.5,5.291,3.046,7.782,1.244l0.568-0.407c2.488-1.809,3.046-5.292,1.238-7.785L64.121,57.05l25.913-10.961  C92.962,45.139,94.565,41.997,93.618,39.071z"/>
</svg>