<svg xmlns="http://www.w3.org/2000/svg" xmlns:xlink="http://www.w3.org/1999/xlink" version="1.1" id="Layer_1" x="0px" y="0px" width="100px" height="100px" viewBox="0 0 100 100" enable-background="new 0 0 100 100" xml:space="preserve">
<g>
	<path d="M84.459,45.59L71.232,30.562v-0.043l-8.524-1.839c1.156-1.797,1.813-3.443,1.813-4.415c0-3.084-6.621-9.055-14.789-9.055   c-8.168,0-14.789,5.971-14.789,9.055c0,0.976,0.664,2.63,1.828,4.436l-8.422,1.818L15.084,45.59L7.333,70.348l11.337,3.173   l9.679-19.624v31.805h20.678v-41.5c0-3.182-6.842-11.605-9.479-14.583l-0.062-0.08l-0.138-0.206   c-0.261-0.307-1.493-1.897-1.493-4.559c0-3.122,5.216-5.567,11.877-5.567c6.66,0,11.877,2.445,11.877,5.567   c0,2.812-1.503,4.732-1.566,4.813l-0.027,0.031c-2.635,2.967-9.477,11.372-9.477,14.582v41.5h20.692V53.975l9.64,19.546   l11.338-3.173L84.459,45.59z"/>
	<path d="M60.098,24.775c0-1.914-4.434-4.054-10.365-4.054c-6.108,0-10.364,2.137-10.364,4.054c0,2.291,1.126,3.571,1.137,3.583   l0.072,0.091l0.137,0.203c0.946,1.071,6.926,7.938,9.065,12.742c2.146-4.845,8.192-11.751,9.088-12.76   C58.979,28.487,60.098,26.938,60.098,24.775z"/>
</g>
</svg>