<svg xmlns:dc="http://purl.org/dc/elements/1.1/" xmlns:cc="http://creativecommons.org/ns#" xmlns:rdf="http://www.w3.org/1999/02/22-rdf-syntax-ns#" xmlns:svg="http://www.w3.org/2000/svg" xmlns="http://www.w3.org/2000/svg" xmlns:sodipodi="http://sodipodi.sourceforge.net/DTD/sodipodi-0.dtd" xmlns:inkscape="http://www.inkscape.org/namespaces/inkscape" version="1.0" width="54.585274" height="100" viewBox="0 0 54.585275 100" id="Layer_1" xml:space="preserve" inkscape:version="0.48.2 r9819" sodipodi:docname="jesus.svg"><sodipodi:namedview pagecolor="#ffffff" bordercolor="#666666" borderopacity="1" objecttolerance="10" gridtolerance="10" guidetolerance="10" inkscape:pageopacity="0" inkscape:pageshadow="2" inkscape:window-width="1314" inkscape:window-height="724" id="namedview6" showgrid="false" showguides="true" inkscape:guide-bbox="true" fit-margin-top="0" fit-margin-left="0" fit-margin-right="0" fit-margin-bottom="0" inkscape:zoom="2.8039819" inkscape:cx="-8.2343748" inkscape:cy="55.156249" inkscape:window-x="52" inkscape:window-y="0" inkscape:window-maximized="1" inkscape:current-layer="Layer_1"/><metadata id="metadata9"><rdf:RDF><cc:Work rdf:about=""><dc:format>image/svg+xml</dc:format><dc:type rdf:resource="http://purl.org/dc/dcmitype/StillImage"/><dc:title/></cc:Work></rdf:RDF></metadata><defs id="defs7"/>
<path d="m 22.692757,-1.0274414e-6 0,16.1507010274414 0,0.116823 c 1.167578,-1.220452 2.807417,-1.985982 4.614487,-1.985982 1.831337,0 3.452229,0.795451 4.614486,2.044393 l 0,-0.175234 0,-16.1507010274414 -9.228973,0 z M 27.307244,16.1507 c -2.491074,0 -4.52687,2.030941 -4.52687,4.526869 0,2.495156 2.032562,4.497664 4.52687,4.497664 2.497478,0 4.497663,-1.998107 4.497663,-4.497664 0,-2.499476 -2.004271,-4.526869 -4.497663,-4.526869 z M 0,16.61799 l 0,9.258178 4.7021029,0 -2.1904206,-1.19743 c -0.00692,-0.0036 -0.02228,0.0037 -0.029206,0 l 0,-0.02921 C 1.6438197,24.196103 1.0286897,23.451539 0.7593458,22.575934 0.6282505,22.14967 0.5668252,21.674133 0.6133178,21.20327 c 0.051234,-0.518801 0.2339719,-0.965605 0.4380841,-1.343458 0.4376458,-0.810173 1.1867673,-1.428709 2.1028038,-1.693925 0.4947645,-0.143252 0.9729065,-0.166392 1.4018692,-0.116822 0.411185,0.0475 0.7534729,0.216354 1.0806075,0.379673 0.00785,0.0039 0.021355,-0.004 0.029206,0 l 0.087617,0 0.087617,0.05841 0.029206,0 13.6390186,7.389019 4.117991,0 c -1.63801,-1.152836 -2.716122,-3.052446 -2.716122,-5.198599 0,-1.555348 0.61397,-2.947267 1.547898,-4.059579 l -0.233645,0 -22.2254678,0 z m 32.126169,0 c 0.927253,1.113079 1.547897,2.508435 1.547897,4.059579 0,2.155349 -1.097427,4.046271 -2.745327,5.198599 l 4.147196,0 13.69743,-7.389019 c 0.442842,-0.245295 1.015253,-0.461215 1.66472,-0.46729 0.834654,-0.0076 1.606253,0.285135 2.219626,0.759346 0.600122,0.463962 1.061131,1.120879 1.255842,1.898364 0.204308,0.815801 0.07645,1.645469 -0.233645,2.336449 -0.300505,0.669529 -0.842739,1.250889 -1.547898,1.635514 -0.0129,0.0071 -0.01622,0.02229 -0.02921,0.02921 l -2.190421,1.19743 4.672897,0 0,-9.258178 -22.196262,0 -0.26285,0 z M 3.9719627,19.889018 c -0.1150879,0.0036 -0.2238953,0.03021 -0.3212617,0.05841 -0.4167832,0.120668 -0.7540047,0.429411 -0.9637851,0.817757 -0.1079588,0.199855 -0.184713,0.442742 -0.2044392,0.642524 -0.021215,0.214848 -0.0086,0.395465 0.058411,0.613317 0.1284692,0.417641 0.444286,0.828392 0.817757,1.022197 l 0.029206,0 18.2535053,9.871495 0.233644,0.116823 0,0.292056 0.146028,13.084112 c 5.14e-4,0.07454 1.8e-4,0.119252 0,0.116823 l 2.044393,26.577103 c 0.02005,0.317121 0.15616,0.650469 0.350467,0.905374 0.192044,0.251937 0.442117,0.445778 0.759346,0.554906 0.314411,0.108159 0.659771,0.138253 0.963785,0.05841 0.313933,-0.08245 0.605096,-0.286049 0.817757,-0.525701 l 0.350468,-0.379673 0.350467,0.379673 c 0.204165,0.229687 0.490061,0.410158 0.788551,0.496495 l 0.02921,0.02921 c 0.303942,0.07967 0.649968,0.04959 0.963785,-0.05841 0.316819,-0.109024 0.567414,-0.303254 0.759346,-0.554906 0.19391,-0.254245 0.330215,-0.588219 0.350467,-0.905374 l 2.044393,-26.577103 c -6.13e-4,0.0078 -9.23e-4,-0.03736 0,-0.116823 l 0.146028,-13.084112 0,-0.292056 0.233645,-0.116823 18.253505,-9.871495 0.02921,0 c 0.313561,-0.163899 0.545561,-0.471577 0.700935,-0.817757 0.153561,-0.342126 0.201299,-0.743299 0.116822,-1.080608 -0.08804,-0.351576 -0.285271,-0.645131 -0.584112,-0.876168 -0.290822,-0.224844 -0.701907,-0.382851 -1.051402,-0.379673 -0.254448,0.0023 -0.49571,0.08649 -0.759346,0.233645 l -14.018692,7.564252 -0.116822,0.05841 -0.116822,0 -16.267524,0 -0.116823,0 -0.116822,-0.05841 L 4.9357478,20.122663 C 4.7374188,20.011233 4.5335431,19.942616 4.32243,19.918224 4.2084206,19.905055 4.0870515,19.885467 3.9719627,19.889018 z m 21.5245333,28.504674 3.59229,0 -1.314253,17.55257 -0.934579,0 -1.343458,-17.55257 z m -2.803739,26.139019 0,25.467289 9.228973,0 0,-25.467289 c -0.100868,0.195294 -0.100522,0.438774 -0.233645,0.613317 -0.434074,0.569141 -1.036142,0.951914 -1.66472,1.168225 -0.625613,0.215287 -1.315426,0.271046 -2.015187,0.08762 -0.252893,-0.06635 -0.473772,-0.174355 -0.700934,-0.292056 -0.227239,0.117682 -0.448385,0.225719 -0.700935,0.292056 -0.700537,0.183985 -1.390252,0.127362 -2.015187,-0.08762 -0.628493,-0.216207 -1.23061,-0.598726 -1.66472,-1.168225 -0.132836,-0.174262 -0.132772,-0.418137 -0.233645,-0.613317 z" id="path3844" inkscape:connector-curvature="0"/>
</svg>