<svg xmlns="http://www.w3.org/2000/svg" xmlns:xlink="http://www.w3.org/1999/xlink" version="1.1" id="Layer_1" x="0px" y="0px" width="100px" height="100px" viewBox="0 0 100 100" enable-background="new 0 0 100 100" xml:space="preserve">
<g>
	<g>
		<path d="M25.393,28.32c0.113-0.902,0.356-2.268,0.863-3.53H23.81c-1.489,0-2.522-0.435-3.072-1.292    c-0.716-1.116-0.244-2.417-0.112-2.73l1.502-4.404H9.9l-0.167,0.158c-0.172,0.164-4.163,4.053-4.26,11.797H25.393z"/>
		<path d="M22.469,21.547c-0.075,0.172-0.196,0.645-0.046,0.875c0.057,0.086,0.324,0.369,1.387,0.369h17.32l1-4.71h7.351h7.569    l1,4.71H75.36c1.067,0,1.334-0.282,1.391-0.369c0.149-0.229,0.026-0.7-0.052-0.88l-2.041-5.996H49.32H24.521L22.469,21.547z"/>
		<path d="M78.544,20.769c0.134,0.317,0.606,1.614-0.106,2.728c-0.549,0.858-1.584,1.293-3.077,1.293h-2.437    c0.51,1.269,0.754,2.641,0.864,3.53h19.918c-0.098-7.745-4.088-11.634-4.261-11.797l-0.166-0.158h-12.23L78.544,20.769z"/>
		<path d="M93.715,44.115V30.32H73.879v0.275c-0.577-1.732-1.508-2.389-2.163-2.632c-0.17-0.998-0.482-2.253-1.01-3.172H56.228    c-0.062,0.008-0.114,0.012-0.143,0.012c-0.014,0-0.021,0-0.024,0l-6.74,0h-6.211c0,0-0.008,0-0.02,0    c-0.025,0-0.078-0.004-0.141-0.012H28.473c-0.526,0.917-0.838,2.164-1.008,3.171c-0.655,0.243-1.587,0.898-2.165,2.628v-0.27    H5.465v13.795H15.79h0.439V76.38l-4.2,8.8h8.721l1.279-2.76V44.115h2.745v18.363c0,2.593-1.853,4.258-1.867,4.271l0.672,1.807    H75.6l0.676-1.804c-0.019-0.017-1.873-1.681-1.873-4.273V44.115h2.747V82.42l1.28,2.76h8.72l-4.2-8.8V44.115H93.715z M25.7,66.499    c0.588-0.989,1.132-2.354,1.132-4.021V44.115v-1.15v-5.53v-2.96c0-3.589,1.024-4.541,1.35-4.602l42.745-0.004    c0.395,0.064,1.419,1.017,1.419,4.605v2.96v5.53v1.15v18.363c0,1.667,0.544,3.031,1.133,4.021H25.7z"/>
	</g>
</g>
</svg>