<?xml version="1.0" encoding="utf-8"?>
<!-- Generator: Adobe Illustrator 15.1.0, SVG Export Plug-In . SVG Version: 6.00 Build 0)  -->
<!DOCTYPE svg PUBLIC "-//W3C//DTD SVG 1.1//EN" "http://www.w3.org/Graphics/SVG/1.1/DTD/svg11.dtd">
<svg version="1.1" id="Layer_1" xmlns="http://www.w3.org/2000/svg" xmlns:xlink="http://www.w3.org/1999/xlink" x="0px" y="0px"
	 width="100px" height="61px" viewBox="0 0 100 61" enable-background="new 0 0 100 61" xml:space="preserve">
<path d="M89,0c-6.075,0-11,4.925-11,11c0,2.314,0.719,4.46,1.939,6.232l-4.207,4.207C73.96,20.219,71.814,19.5,69.5,19.5
	s-4.46,0.719-6.232,1.939l-4.207-4.207C60.281,15.46,61,13.314,61,11c0-6.075-4.925-11-11-11S39,4.925,39,11
	c0,2.314,0.719,4.46,1.94,6.232l-4.208,4.207C34.96,20.219,32.815,19.5,30.5,19.5s-4.46,0.719-6.232,1.939l-4.208-4.207
	C21.281,15.46,22,13.314,22,11c0-6.075-4.925-11-11-11S0,4.925,0,11s4.925,11,11,11c2.315,0,4.46-0.719,6.232-1.939l4.208,4.207
	c-1.221,1.772-1.94,3.918-1.94,6.232c0,6.075,4.925,11,11,11c2.315,0,4.46-0.719,6.232-1.939l4.208,4.207
	C39.719,45.54,39,47.686,39,50c0,6.075,4.925,11,11,11s11-4.925,11-11c0-2.314-0.719-4.46-1.939-6.232l4.207-4.207
	C65.04,40.781,67.186,41.5,69.5,41.5c6.075,0,11-4.925,11-11c0-2.314-0.719-4.46-1.939-6.232l4.207-4.207
	C84.54,21.281,86.686,22,89,22c6.075,0,11-4.925,11-11S95.075,0,89,0z M60.439,36.732l-4.207,4.207C54.46,39.719,52.314,39,50,39
	c-2.315,0-4.46,0.719-6.232,1.939l-4.208-4.207c1.221-1.772,1.94-3.918,1.94-6.232s-0.719-4.46-1.94-6.232l4.208-4.207
	C45.54,21.281,47.685,22,50,22c2.314,0,4.46-0.719,6.232-1.939l4.207,4.207C59.219,26.04,58.5,28.186,58.5,30.5
	S59.219,34.96,60.439,36.732z"/>
</svg>
