<svg xmlns:dc="http://purl.org/dc/elements/1.1/" xmlns:cc="http://creativecommons.org/ns#" xmlns:rdf="http://www.w3.org/1999/02/22-rdf-syntax-ns#" xmlns:svg="http://www.w3.org/2000/svg" xmlns="http://www.w3.org/2000/svg" version="1.0" width="43.696404" height="100.00127" viewBox="0 0 43.696404 100.00128" id="Layer_1" xml:space="preserve"><metadata id="metadata9"><rdf:RDF><cc:Work rdf:about=""><dc:format>image/svg+xml</dc:format><dc:type rdf:resource="http://purl.org/dc/dcmitype/StillImage"/><dc:title/></cc:Work></rdf:RDF></metadata><defs id="defs7"/>

<path d="M 21.83605,0 C 10.155974,0 0.71828415,9.4669795 0.71828415,21.147056 c 0,9.569067 6.34232935,17.629896 15.05482885,20.23908 1.226601,-2.091817 3.471693,-3.514746 6.062937,-3.514746 2.592989,0 4.836966,1.42294 6.062937,3.514746 C 36.620338,38.778054 42.983106,30.717352 42.983106,21.147056 42.983106,9.4669795 33.516131,0 21.83605,0 z M 2.358499,32.042768 C 0.75641961,32.31172 -0.40350847,34.183849 0.13249313,35.733252 L 6.400457,55.5037 c 0.0089,0.03925 0.018689,0.07832 0.029289,0.117158 0.5641861,1.511519 1.0904814,2.666157 1.7866626,3.661194 0.6961813,0.995032 1.7130316,1.860558 2.8117974,2.255295 0.986393,0.354368 1.791516,0.442239 2.548191,0.439343 l 0.02929,14.410459 -9.0211817,2.489612 a 3.6088332,3.6088332 0 0 0 -2.4603223,4.59846 l 4.56917,14.029691 a 3.6215556,3.6215556 0 1 0 6.883045,-2.25529 L 10.14952,84.82254 18.057698,82.625824 a 3.6088332,3.6088332 0 0 0 0.702949,-0.263606 l 4.012669,0 0,13.795384 a 3.6088332,3.6088332 0 0 0 5.682173,2.95824 l 10.837133,-7.673863 a 3.6088332,3.6088332 0 1 0 -4.159115,-5.8872 l -5.154961,3.631904 0,-6.824465 0.05858,0 0.02929,-20.385528 2.60677,-0.439343 c 1.151283,-0.194036 2.115616,-1.260263 2.811796,-2.255295 0.696179,-0.995037 1.222479,-2.149675 1.786662,-3.661194 0.0106,-0.03884 0.02037,-0.07791 0.02929,-0.117158 l 0.146448,-0.497923 6.121516,-19.272524 c 0.53026,-1.553824 -0.665351,-3.386539 -2.255296,-3.661194 l -0.322185,0 c -1.015911,1.773596 -2.240122,3.381949 -3.690483,4.803486 l -5.096382,16.079964 -20.707712,0 L 6.4297465,36.904835 C 4.9651068,35.470105 3.7021067,33.836963 2.680684,32.042768 l -0.322185,0 z m 19.477551,6.765888 c -3.37908,0 -6.121516,2.735981 -6.121516,6.121516 0,3.384531 2.742517,6.121516 6.121516,6.121516 3.38309,0 6.121516,-2.73566 6.121516,-6.121516 0,-3.385776 -2.739429,-6.121516 -6.121516,-6.121516 z" id="path5065" style="font-size:medium;font-style:normal;font-variant:normal;font-weight:normal;font-stretch:normal;text-indent:0;text-align:start;text-decoration:none;line-height:normal;letter-spacing:normal;word-spacing:normal;text-transform:none;direction:ltr;block-progression:tb;writing-mode:lr-tb;text-anchor:start;baseline-shift:baseline;color:#000000;fill:#000000;fill-opacity:1;fill-rule:nonzero;stroke:none;stroke-width:268.25650024;marker:none;visibility:visible;display:inline;overflow:visible;enable-background:accumulate;font-family:Sans;-inkscape-font-specification:Sans"/></svg>