<svg xmlns="http://www.w3.org/2000/svg" xmlns:xlink="http://www.w3.org/1999/xlink" version="1.1" id="Layer_1" x="0px" y="0px" width="100px" height="99.254px" viewBox="0 0 100 99.254" enable-background="new 0 0 100 99.254" xml:space="preserve">
<g>
	<ellipse cx="19.804" cy="88.604" rx="4.318" ry="3.33"/>
</g>
<g>
	<ellipse cx="34.205" cy="83.205" rx="4.318" ry="3.331"/>
</g>
<g>
	<ellipse cx="48.674" cy="77.808" rx="4.318" ry="3.33"/>
</g>
<g>
	<ellipse cx="63.143" cy="72.41" rx="4.317" ry="3.331"/>
</g>
<g>
	<path d="M81.93,66.553c0,1.839-1.933,3.332-4.317,3.332s-4.316-1.493-4.316-3.332c0-1.837,1.932-3.33,4.316-3.33   S81.93,64.716,81.93,66.553z"/>
</g>
<g>
	<circle cx="19.804" cy="78.383" r="1.666"/>
</g>
<g>
	<circle cx="19.804" cy="65.69" r="1.666"/>
</g>
<g>
	<circle cx="19.804" cy="52.999" r="1.666"/>
</g>
<g>
	<circle cx="19.804" cy="40.308" r="1.666"/>
</g>
<g>
	<circle cx="34.205" cy="65.69" r="1.666"/>
</g>
<g>
	<circle cx="48.674" cy="65.69" r="1.666"/>
</g>
<g>
	<circle cx="34.205" cy="52.999" r="1.666"/>
</g>
<g>
	<circle cx="34.205" cy="40.308" r="1.666"/>
</g>
<g>
	<circle cx="48.674" cy="52.999" r="1.666"/>
</g>
<g>
	<circle cx="48.674" cy="40.308" r="1.666"/>
</g>
<g>
	<circle cx="63.144" cy="52.999" r="1.666"/>
</g>
<g>
	<circle cx="63.144" cy="40.308" r="1.666"/>
</g>
<g>
	<circle cx="77.613" cy="40.308" r="1.666"/>
</g>
<g>
	<path d="M16.961,17.318v-3.617c0-1.57,1.272-2.842,2.843-2.842l0,0c1.569,0,2.842,1.272,2.842,2.842v3.617"/>
</g>
<g>
	<path fill="#000000" d="M16.961,17.592c0-1.57,1.272-2.842,2.843-2.842l0,0c1.569,0,2.842,1.272,2.842,2.842"/>
</g>
<g>
	<path d="M31.362,17.318v-3.617c0-1.57,1.272-2.842,2.842-2.842l0,0c1.57,0,2.842,1.272,2.842,2.842v3.617"/>
</g>
<g>
	<path d="M45.832,17.318v-3.617c0-1.57,1.272-2.842,2.842-2.842l0,0c1.571,0,2.842,1.272,2.842,2.842v3.617"/>
</g>
<g>
	<path d="M60.301,17.318v-3.617c0-1.57,1.271-2.842,2.842-2.842l0,0c1.57,0,2.842,1.272,2.842,2.842v3.617"/>
</g>
<g>
	<path d="M74.77,17.318v-3.617c0-1.57,1.273-2.842,2.843-2.842l0,0c1.569,0,2.842,1.272,2.842,2.842v3.617"/>
</g>
<g>
	<path fill="#000000" d="M31.362,17.592c0-1.57,1.272-2.842,2.843-2.842l0,0c1.569,0,2.842,1.272,2.842,2.842"/>
</g>
<g>
	<path fill="#000000" d="M45.832,17.592c0-1.57,1.272-2.842,2.843-2.842l0,0c1.569,0,2.841,1.272,2.841,2.842"/>
</g>
<g>
	<path fill="#000000" d="M60.301,17.592c0-1.57,1.273-2.842,2.844-2.842l0,0c1.568,0,2.841,1.272,2.841,2.842"/>
</g>
<g>
	<path fill="#000000" d="M74.77,17.592c0-1.57,1.273-2.842,2.844-2.842l0,0c1.568,0,2.841,1.272,2.841,2.842"/>
</g>
<path d="M86.225,21.489V3.624H11.123v17.865H8.406v14.569h2.716v51.626c0,4.749,3.863,8.613,8.612,8.613  c4.496,0,8.192-3.464,8.575-7.862c1.542,1.453,3.614,2.351,5.895,2.351c4.496,0,8.193-3.465,8.575-7.863  c1.542,1.453,3.613,2.351,5.895,2.351c4.496,0,8.193-3.464,8.575-7.862c1.543,1.453,3.613,2.351,5.895,2.351  c4.496,0,8.193-3.465,8.575-7.863c1.542,1.453,3.613,2.351,5.895,2.351c4.749,0,8.612-3.863,8.612-8.612V36.058h2.717V21.489H86.225  z M71.756,6.38h11.713v15.109H71.756V6.38z M57.287,6.38H69v15.109H57.287V6.38z M42.817,6.38h11.713v15.109H42.817V6.38z   M28.348,6.38h11.714v15.109H28.348V6.38z M13.878,6.38h11.713v15.109H13.878V6.38z M25.592,82.172v5.512  c0,3.229-2.627,5.857-5.857,5.857c-3.229,0-5.856-2.628-5.856-5.857V36.058h11.713V82.172z M40.062,76.659v5.513  c0,3.229-2.627,5.857-5.857,5.857s-5.857-2.628-5.857-5.857V36.058h11.714V76.659z M54.531,71.147v5.512  c0,3.229-2.628,5.857-5.857,5.857s-5.856-2.628-5.856-5.857V36.058h11.713V71.147z M69,65.636v5.512  c0,3.229-2.628,5.857-5.857,5.857s-5.856-2.628-5.856-5.857v-35.09H69V65.636z M83.469,65.636c0,3.229-2.627,5.856-5.856,5.856  s-5.856-2.627-5.856-5.856V36.058h11.713V65.636z M86.299,33.377h-75.25v-9.5h75.25V33.377z"/>
</svg>