<svg xmlns="http://www.w3.org/2000/svg" xmlns:xlink="http://www.w3.org/1999/xlink" version="1.1" id="Layer_1" x="0px" y="0px" width="87.2549019608px" height="100px" viewBox="0 0 89.833 102.667" enable-background="new 0 0 89.833 102.667" xml:space="preserve">
<path fill="#000000" d="M88.515,73.416c0-16.805-5.059-34.514-7.646-34.514c-2.007,0-5.506,10.683-6.97,23.327  c-1.128,0.609-2.35,0.938-3.594,0.938c-1.105,0-3.067-0.581-4.335-1.499c0.151-2.22,0.229-4.538,0.229-6.953  C66.202,28.264,52.402,0.396,45.353,0.396c-7.045,0.003-20.845,27.869-20.845,54.321c0,2.414,0.08,4.732,0.231,6.952  c-1.267,0.919-3.229,1.5-4.337,1.5c-1.241,0-2.463-0.329-3.592-0.938c-1.464-12.645-4.964-23.327-6.973-23.327  c-2.584,0-7.646,17.708-7.645,34.514c-0.002,8.236,0.821,14.71,2.158,19.187c0.411,1.379,0.87,2.354,1.368,3.058  c-0.255,0.234-0.461,0.595-0.547,1.027c-0.128,0.674-0.255,1.347-0.385,2.018c-0.162,0.806,0.25,1.575,0.917,1.669  c2.741,0.404,5.528,0.404,8.269,0c0.667-0.094,1.075-0.863,0.918-1.669c-0.131-0.671-0.259-1.344-0.386-2.014  c-0.087-0.437-0.294-0.798-0.547-1.031c0.498-0.703,0.957-1.679,1.366-3.058c0.71-2.384,1.274-5.339,1.649-8.821  c1.999-1.753,4.788-2.577,7.404-2.573c1.723-0.003,3.343,0.336,4.737,0.944c0.404,0.963,0.832,1.881,1.28,2.75  c0.667,1.291,1.38,2.357,2.135,3.246c-0.293,1.542-0.588,3.081-0.881,4.622c-0.428,2.149,0.664,4.196,2.442,4.458  c7.327,1.076,14.771,1.076,22.095,0c1.781-0.262,2.876-2.309,2.449-4.458c-0.271-1.407-0.538-2.813-0.807-4.221  c0.887-0.962,1.72-2.157,2.489-3.647c0.448-0.869,0.876-1.787,1.281-2.75c1.395-0.608,3.014-0.948,4.737-0.948  c2.612,0,5.401,0.823,7.402,2.572c0.373,3.484,0.937,6.441,1.648,8.826c0.41,1.379,0.87,2.354,1.369,3.058  c-0.255,0.234-0.461,0.596-0.546,1.031c-0.131,0.67-0.259,1.343-0.386,2.014c-0.161,0.806,0.247,1.575,0.914,1.669  c2.744,0.404,5.529,0.404,8.273,0c0.665-0.099,1.074-0.863,0.916-1.669c-0.13-0.671-0.258-1.344-0.388-2.014  c-0.085-0.435-0.292-0.797-0.544-1.031c0.497-0.703,0.956-1.679,1.366-3.058C87.691,88.125,88.515,81.652,88.515,73.416z   M45.353,30.73c4.472,0,8.109,3.64,8.109,8.109s-3.638,8.109-8.109,8.109s-8.106-3.636-8.106-8.109  C37.247,34.37,40.885,30.73,45.353,30.73z M45.355,72.115c-5.434,0-9.852-4.426-9.849-9.854c0-5.432,4.415-9.854,9.847-9.85  c5.432,0,9.851,4.418,9.851,9.85C55.204,67.696,50.785,72.115,45.355,72.115z"/>
</svg>