<svg xmlns="http://www.w3.org/2000/svg" xmlns:xlink="http://www.w3.org/1999/xlink" version="1.1" id="Livello_1" x="0px" y="0px" width="100px" height="100px" viewBox="0 0 100 100" enable-background="new 0 0 100 100" xml:space="preserve">
<g>
	<polygon points="3.063,79.498 5.186,78.726 7.252,77.526 8.198,76.737 8.314,75.656 8.274,74.225 8.391,73.78 8.816,73.355    9.511,73.163 10.302,73.163 11.036,73.163 11.422,73.452 12.6,72.642 14.125,71.966 17.311,71.5 20.129,71.5 22.543,71.712    27.101,72.082 33.184,72.642 36.331,71.229 38.821,68.565 40.655,66.789 43.357,64.584 45.443,61.957 47.065,58.424 48.031,54.192    49.208,49.132 49.208,44.147 48.127,39.241 47.857,36.535 49.575,32.632 53.571,26.645 56.564,22.202 59.268,19.496 62.279,15.556    68.882,8.93 73.053,5.859 75.138,4.95 75.64,5.415 75.697,6.109 75.697,6.979 75.91,7.171 76.393,7.017 76.742,7.442 76.936,8.332    76.742,9.49 76.607,9.935 77.088,9.779 78.053,9.528 78.651,10.088 78.751,10.708 78.555,11.711 78.555,12.464 78.806,12.6    79.019,12.697 79.194,13.354 79,14.358 78.692,15.614 78.712,16.831 79.347,16.985 79.308,18.164 79.194,19.38 78.845,20.27    78.806,20.637 78.902,21.274 79.057,22.278 78.845,23.148 78.364,23.843 77.996,25.505 77.996,26.528 77.996,27.572 77.61,28.092    77.146,28.788 77.032,29.852 76.781,30.682 76.083,31.358 76.083,31.685 75.854,32.458 75.446,32.806 75.43,33.154 75.43,33.755    75.102,34.411 74.693,34.797 74.636,35.357 74.346,35.821 73.535,36.168 73.284,36.168 73.247,36.728 73.226,37.385 72.802,38.061    72.782,38.543 72.879,39.202 73.188,40.477 73.65,42.233 73.75,43.237 74.346,44.688 74.693,45.962 74.693,47.661 74.79,49.363    74.79,50.271 74.906,51.391 74.754,52.224 75.176,53.131 75.292,53.884 75.33,54.945 75.43,55.911 75.968,57.246 76.006,57.999    75.968,58.983 75.968,60.007 75.968,61.068 76.296,61.938 76.296,62.69 76.491,63.774 76.607,64.488 77.36,65.474 78.712,65.994    81.048,66.381 82.516,66.381 83.788,65.956 85.487,65.241 87.107,65.029 87.747,65.067 89.891,66.458 90.082,67.137 91.396,68.565    91.588,69.163 92.111,69.55 92.899,70.206 93.017,71.268 93.847,71.982 94.563,72.813 94.736,73.375 95.004,74.09 95.683,74.438    96.281,75.229 96.281,75.945 96.513,76.196 96.744,76.988 96.744,77.526 97.111,78.127 97.111,78.726 96.938,79.363 96.436,80.154    96.86,81.104 96.587,81.738 96.318,82.165 96.185,82.493 95.471,82.899 95.432,83.574 94.851,83.941 94.679,84.25 94.253,84.407    93.694,84.56 93.134,84.56 92.632,85.042 92.111,85.16 91.396,85.313 89.62,85.16 87.902,84.521 85.972,83.729 84.771,82.995    83.189,82.995 82.071,83.459 81.277,83.845 80.044,83.556 77.918,81.934 76.685,81.702 73.247,82.281 67.299,82.783 63.167,83.111    57.762,82.726 53.784,81.876 49.342,81.142 46.197,80.405 43.106,80.077 39.845,79.691 35.343,79.17 32.604,79.016 28.721,78.726    25.268,78.784 22.35,78.899 17.678,79.846 13.643,80.29 11,80.466 8.294,80.869 6.074,81.158 4.723,81.158 4.047,80.907    3.119,80.389 2.889,80.02 2.927,79.614 3.063,79.498  "/>
</g>
</svg>