<svg xmlns="http://www.w3.org/2000/svg" xmlns:xlink="http://www.w3.org/1999/xlink" version="1.1" id="Layer_1" x="0px" y="0px" width="100px" height="75.0px" viewBox="0 0 800 600" enable-background="new 0 0 800 600" xml:space="preserve">
<path d="M470.125,281.375c-8.441-4.202-25.469-4.125-31-4.125c-0.039,0-0.069,0.009-0.107,0.011  c-0.339-0.003-0.67-0.011-1.018-0.011c-4.24,0-7.895,0.268-11.062,0.74c-0.031,0.004-0.061,0.003-0.093,0.008  c-0.078,0.012-0.152,0.028-0.229,0.041c-2.319,0.361-4.366,0.834-6.169,1.402c-6.275,1.749-12.255,4.06-20.78,4.06  s-14.505-2.311-20.781-4.06c-1.802-0.567-3.85-1.041-6.168-1.402c-0.077-0.012-0.152-0.028-0.229-0.041  c-0.032-0.005-0.062-0.004-0.093-0.008c-3.167-0.473-6.821-0.74-11.062-0.74c-0.348,0-0.679,0.007-1.018,0.011  c-0.038-0.002-0.068-0.011-0.107-0.011c-5.531,0-22.558-0.077-31,4.125c-0.751,0.374-0.017,9.212,0.125,9.562  c0.24,0.592,2.558,4.732,5.211,14.771l0.003-0.002c1.781,9.334,7.6,16.543,24.785,16.543c11.545,0,20.401-3.543,25.842-9.954  c0.019-0.021,0.039-0.038,0.058-0.06c8.6-9.758,4.85-19.736,14.433-19.736c9.583,0,5.833,9.979,14.433,19.736  c0.02,0.021,0.039,0.038,0.059,0.06c5.44,6.411,14.297,9.954,25.842,9.954c17.186,0,23.004-7.209,24.785-16.543l0.004,0.002  c2.652-10.04,4.971-14.179,5.211-14.771C470.142,290.587,470.876,281.749,470.125,281.375z M359.334,319.25  c-20.25,0-22.5-10.312-22.5-22.5c0-10.062,2.938-16.5,24.5-16.5c19.688,0,27,5.562,27,13.5  C388.334,306.688,380.896,319.25,359.334,319.25z M440,319.25c-21.562,0-29-12.562-29-25.5c0-7.938,7.312-13.5,27-13.5  c21.562,0,24.5,6.438,24.5,16.5C462.5,308.938,460.25,319.25,440,319.25z"/>
</svg>