<svg xmlns="http://www.w3.org/2000/svg" xmlns:xlink="http://www.w3.org/1999/xlink" version="1.1" id="Layer_1" x="0px" y="0px" width="100px" height="100px" viewBox="0 0 100 100" enable-background="new 0 0 100 100" xml:space="preserve">
<path fill="none" d="M153.587,14.614c-24.308,0-44.083,19.775-44.083,44.083c0,24.307,19.775,44.082,44.083,44.082  s44.083-19.775,44.083-44.082C197.67,34.389,177.895,14.614,153.587,14.614z M161.78,37.391c0.354-4.486,3.329-7.911,6.645-7.65  c3.316,0.261,5.717,4.11,5.363,8.596c-0.354,4.486-3.326,7.912-6.642,7.65C163.83,45.726,161.428,41.877,161.78,37.391z   M138.67,29.74c3.315-0.258,6.287,3.17,6.636,7.656c0.35,4.487-2.056,8.334-5.371,8.592c-3.316,0.258-6.288-3.17-6.638-7.657  C132.947,33.845,135.354,29.998,138.67,29.74z M153.586,93.16c-15.807,0-28.622-13.305-28.622-29.713c24.229,0,35.49,0,57.245,0  C182.209,79.855,169.394,93.16,153.586,93.16z"/>
<path display="none" d="M51.377,6C26.518,6,6.293,26.224,6.293,51.083c0,24.858,20.225,45.083,45.083,45.083  c24.858,0,45.083-20.225,45.083-45.083C96.46,26.224,76.235,6,51.377,6z M51.377,95.166c-24.308,0-44.083-19.775-44.083-44.083  S27.069,7,51.377,7S95.46,26.775,95.46,51.083S75.685,95.166,51.377,95.166z"/>
<path d="M51.377,6C26.478,6,6.293,26.185,6.293,51.083c0,24.899,20.185,45.083,45.083,45.083c24.898,0,45.083-20.184,45.083-45.083  C96.46,26.185,76.275,6,51.377,6z M59.57,32.777c0.354-4.486,3.329-7.911,6.645-7.65c3.316,0.261,5.717,4.11,5.363,8.596  c-0.354,4.486-3.326,7.912-6.642,7.65C61.62,41.112,59.218,37.263,59.57,32.777z M36.459,25.126c3.316-0.258,6.287,3.17,6.636,7.656  c0.35,4.487-2.055,8.334-5.371,8.592c-3.316,0.258-6.288-3.17-6.637-7.657C30.738,29.231,33.143,25.384,36.459,25.126z   M51.376,84.547c-15.807,0-28.622-13.305-28.622-29.714c24.229,0,35.49,0,57.245,0C79.999,71.242,67.184,84.547,51.376,84.547z"/>
</svg>