<svg xmlns="http://www.w3.org/2000/svg" xmlns:xlink="http://www.w3.org/1999/xlink" version="1.1" id="Icons" x="0px" y="0px" width="100px" height="75.0px" viewBox="0 0 108 81.333" enable-background="new 0 0 108 81.333" xml:space="preserve">
<g>
	<path fill="none" d="M34.351,31.126c1.413,0.316,2.014-1.854,0.598-2.17c-4.521-1.008-9.519,0.031-12.851,3.408   c-1.02,1.035,0.571,2.627,1.592,1.592C26.445,31.163,30.61,30.292,34.351,31.126z"/>
	<path fill="none" d="M54.859,47.382c-4.462,2.975-9.626,5.619-15.006,6.418c-0.06-0.004-0.118,0.008-0.172,0.037   c-0.142,0.078-0.24,0.248-0.214,0.426c0.01,0.064,0.03,0.129,0.079,0.189c3.048,3.766,7.33,3.48,11.312,1.342   c3.062-1.643,4.514-4.654,4.564-8.088C55.427,47.435,55.097,47.224,54.859,47.382z"/>
	<path fill="none" d="M53.988,42.911c-0.611,0.043-1.125,0.48-1.125,1.125c0,0.582,0.513,1.168,1.125,1.125   c0.905-0.062,1.449,0.094,1.847,0.945c0.26,0.557,1.048,0.693,1.539,0.404c0.565-0.33,0.664-0.982,0.404-1.539   C57.083,43.485,55.579,42.802,53.988,42.911z"/>
	<path fill="none" d="M52.081,29.503c-2.06-0.764-4.302-0.914-6.039,0.613c-0.76,0.668-1.341,1.783-1.494,2.785   c-0.217,1.42,1.951,2.029,2.17,0.598c0.094-0.613,0.294-1.018,0.651-1.525c0.93-1.318,2.902-0.75,4.114-0.301   C52.846,32.179,53.428,30.003,52.081,29.503z"/>
	<path fill="none" d="M35.678,33.972c-3.408-0.832-7.425,0.17-8.482,3.928c-0.394,1.4,1.777,1.992,2.17,0.598   c0.649-2.309,3.371-2.928,5.715-2.355C36.49,36.485,37.087,34.315,35.678,33.972z"/>
	<path fill="none" d="M36.604,51.411c-1.128,1.301-1.472,3.365-0.188,4.689c1.013,1.041,2.602-0.551,1.592-1.592   c-0.371-0.383-0.125-1.146,0.188-1.506C39.142,51.911,37.557,50.313,36.604,51.411z"/>
	<path fill="none" d="M51.857,20.812c-3.722,0.972-8.979,2.479-10.871,6.155c-2.931,5.693,2.43,13.787,6.57,17.967   c-0.702,0.611-1.418,1.201-2.16,1.781c-1.143,0.893,0.462,2.473,1.592,1.592c1.046-0.818,2.054-1.633,3.021-2.541   c0.432-0.408,0.441-1.188,0-1.592c-3.672-3.363-11.321-13.73-5.181-18.102c2.187-1.558,5.043-2.417,7.626-3.091   c0.607-0.159,0.84-0.655,0.794-1.138c-0.079-0.213-0.16-0.425-0.242-0.637C52.767,20.882,52.366,20.68,51.857,20.812z"/>
	<path fill="#000000" d="M90.883,19.288c0,0,0,0-4.959,1.397c-22.571,6.36-28.322-2.814-29.686-2.051   c-0.193,0.108-0.452,1.108-0.707,2.737c1.104,2.936,1.999,5.945,2.732,9.01c3.625-0.805,8.987-4.193,9.831,1.627   c0.409,2.824,0.347,5.785-0.453,8.549c-0.459,1.59-0.99,3.234-1.876,4.648c-0.32,0.51,1.082,1.172,1.412,1.51   c1.013,1.039-0.577,2.631-1.592,1.592c-0.758-0.777-2.824-1.189-2.457-2.719c0.721-3.002,2.646-5.396,2.888-8.676   c0.145-1.951,0.221-8.113-3.438-5.746c-1.262,0.816-2.458,1.27-3.805,1.48c0.1,0.475,0.202,0.949,0.294,1.428   c0.145,0.039,0.289,0.104,0.426,0.211c1.333,1.033,2.493,1.221,3.796,0.055c1.078-0.965,2.675,0.621,1.592,1.592   c-0.948,0.848-2.212,1.693-3.561,1.523c-0.644-0.082-1.209-0.264-1.743-0.516c0.293,1.814,0.534,3.645,0.729,5.488   c0.196,1.854,0.342,3.939,0.332,6.076c2.107-0.111,4.299,0.658,6.315,1.207c1.307,0.355,2.941,0.742,3.909,1.775   c0.979,1.047,3.438,3.584,1.43,4.809c-0.259,0.158-0.512,0.193-0.74,0.15c-2.127,0.053-3.596-0.973-5.354-2.088   c-1.39-0.881-2.922-1.553-4.592-1.65c-0.337-0.02-0.795,0.043-1.232,0.068c-0.263,2.076-0.742,4.088-1.549,5.867   c1.757,2.832,4.176,4.49,7.469,4.178C95.167,60.075,90.883,19.288,90.883,19.288z M80.076,39.206   c-2.278,0.73-8.306-0.623-7.837-3.893c0.206-1.432,2.373-0.82,2.17,0.598c0.065-0.455,0.042-0.16,0.379,0.049   c0.169,0.111,0.344,0.215,0.522,0.309c0.283,0.145,0.566,0.291,0.869,0.391c1.048,0.346,2.208,0.727,3.299,0.377   C80.864,36.591,81.452,38.765,80.076,39.206z M82.556,35.204c-4.003-0.779-7.795-1.297-11.107-3.857   c-1.146-0.887,0.459-2.469,1.592-1.592c2.927,2.264,6.602,2.596,10.113,3.279C84.578,33.312,83.973,35.479,82.556,35.204z"/>
	<path fill="#000000" d="M53.249,21.845c0.046,0.482-0.187,0.979-0.794,1.138c-2.583,0.674-5.439,1.533-7.626,3.091   c-6.141,4.371,1.509,14.738,5.181,18.102c0.441,0.404,0.432,1.184,0,1.592c-0.968,0.908-1.976,1.723-3.021,2.541   c-1.13,0.881-2.734-0.699-1.592-1.592c0.742-0.58,1.458-1.17,2.16-1.781c-4.141-4.18-9.501-12.273-6.57-17.967   c1.893-3.676,7.149-5.184,10.871-6.155c0.509-0.133,0.91,0.069,1.149,0.396c-0.933-2.422-2.013-4.798-3.301-7.157   c-3.2,5.526-13.104,7.677-18.449,8.479c-5.804,0.873-11.689,0.489-17.524,0.17c2.701,19.369,14.354,42.424,36.94,40.043   c11.164-2.459,7.701-20.033,6.139-27.914C55.904,30.253,54.79,25.978,53.249,21.845z M47.369,31.974   c-0.357,0.508-0.558,0.912-0.651,1.525c-0.219,1.432-2.387,0.822-2.17-0.598c0.153-1.002,0.734-2.117,1.494-2.785   c1.737-1.527,3.979-1.377,6.039-0.613c1.348,0.5,0.766,2.676-0.598,2.17C50.271,31.224,48.298,30.655,47.369,31.974z    M22.098,32.364c3.332-3.377,8.33-4.416,12.851-3.408c1.416,0.316,0.815,2.486-0.598,2.17c-3.741-0.834-7.906,0.037-10.661,2.83   C22.669,34.991,21.079,33.399,22.098,32.364z M35.081,36.142c-2.344-0.572-5.065,0.047-5.715,2.355   c-0.393,1.395-2.563,0.803-2.17-0.598c1.058-3.758,5.074-4.76,8.482-3.928C37.087,34.315,36.49,36.485,35.081,36.142z    M50.859,55.794c-4.984,3.165-12.205,2.039-15.252-1.727c-0.049-0.061,0.26-0.646,0.307-0.652   c5.38-0.799,14.484-3.059,18.946-6.033c0.238-0.158,0.568,0.053,0.564,0.324C55.373,51.14,53.792,53.932,50.859,55.794z"/>
</g>
</svg>