<svg xmlns="http://www.w3.org/2000/svg" xmlns:xlink="http://www.w3.org/1999/xlink" version="1.1" id="Calque_1" x="0px" y="0px" width="78px" height="79px" viewBox="0 0 78 79" enable-background="new 0 0 78 79" xml:space="preserve">
<path d="M66.098,64.93c0.021-0.111-0.768-5.898-0.776-6.015c0,0-1.47-3.732-3.794-4.111c-2.326-0.382-5.312-1.192-6.561-2.136  c-0.731-0.555-3.11-1.518-4.211-1.917c-0.515-0.186-1.394-1.707-1.697-2.394c-0.306-0.686-2.403-2.075-2.938-2.152l-0.084-2.86  l6.07-1.887c0,0,1.565-0.725,1.716-0.725c0.153,0-0.725-1.151-0.838-1.459c-0.115-0.306-0.687-2.393-0.687-2.393  s2.05,2.506,3.089,2.974c0,0-2.041-3.831-2.648-5.966c-0.611-2.136-1.012-5.472-1.012-5.776c0-0.307-1.258-9.267-1.945-10.753  c-0.687-1.489-1.617-3.508-3.211-4.5c-1.595-0.992-3.957-2.403-7.352-2.592c-0.051-0.002-0.102-0.002-0.151-0.007  c-0.051,0.004-0.102,0.004-0.154,0.007c-3.392,0.189-5.755,1.601-7.349,2.592c-1.592,0.991-2.524,3.011-3.211,4.5  c-0.686,1.486-1.945,10.446-1.945,10.753c0,0.304-0.356,3.775-0.966,5.909c-0.61,2.136-2.694,5.833-2.694,5.833  c1.04-0.468,3.088-2.974,3.088-2.974s-0.738,2.29-0.854,2.596c-0.116,0.306-0.823,1.256-0.67,1.256c0.151,0,1.716,0.725,1.716,0.725  l6.072,1.887l-0.086,2.86c-0.533,0.077-2.63,1.467-2.936,2.152c-0.306,0.687-1.184,2.208-1.697,2.394  c-1.104,0.399-3.481,1.362-4.212,1.917c-1.251,0.943-4.231,1.754-6.558,2.136c-2.326,0.379-3.795,3.851-3.795,3.851  c-0.009,0.117-0.797,6.164-0.777,6.275H66.098z"/>
</svg>