<svg xmlns="http://www.w3.org/2000/svg" xmlns:xlink="http://www.w3.org/1999/xlink" version="1.1" id="Layer_1" x="0px" y="0px" width="100px" height="100px" viewBox="0 0 100 100" enable-background="new 0 0 100 100" xml:space="preserve">
<path d="M72.586,8.242c-7.582-2.194-15.361,0.28-20.053,5.694c-1.991,1.48-6.645,4.708-9.406,4.711  c-2.975,0.294-5.031-0.185-5.178,2.316c-0.034,0.587-0.072,1.308-0.112,2.105l-1.057-0.044c-0.347-0.015-0.64,0.255-0.654,0.602  l-0.015,0.345l0,0.012l-0.491-0.037c-0.391-0.019-0.767,0.044-1.111,0.174c-0.472-0.311-1.04-0.483-1.647-0.457l-7.881,0.344  c-0.604,0.026-1.152,0.248-1.594,0.596c-0.669-0.057-1.357,0.125-1.926,0.561l-6.094,5.919l-0.035,0.039  c-0.653,0.806-0.783,1.879-0.412,2.792l-2.236,7.713l-0.012,0.052c-0.111,0.679,0.036,1.345,0.372,1.895l2.968,7.956l0.021,0.049  c0.452,0.874,1.312,1.415,2.241,1.492l5.783,4.45l0.043,0.029c0.313,0.187,0.652,0.304,0.994,0.356  c0.167,0.738,0.63,1.407,1.341,1.809l0.435,0.232l-0.006,0.01l-0.172,0.301c-0.173,0.3-0.069,0.686,0.232,0.858l0.917,0.526  c-0.393,0.695-0.746,1.325-1.03,1.841c-1.212,2.191,0.783,2.884,3.139,4.723c2.334,1.476,4.545,6.692,5.436,9.007  c1.074,7.082,6.331,13.329,13.913,15.524c9.333,2.701,18.968-1.674,22.768-9.9c0.278-0.362,0.499-0.78,0.634-1.247  c0.067-0.234,0.108-0.469,0.132-0.703c0.002-0.022,0.001-0.043,0.003-0.065c0.033-0.098,0.069-0.195,0.101-0.294  c0.089-0.953-0.163-1.887-0.677-2.651c1.913-9.519-3.758-19.074-13.253-21.822c-1.533-0.442-3.076-0.681-4.602-0.735  c-0.863-1.695-2.034-3.886-2.034-3.886L45.708,56.9c-2.174-1.291-5.635-3.294-8.171-4.523c-3.547-1.72-4.294-0.186-4.294-0.186  s-0.729,1.263-1.72,2.992l-0.895-0.514c-0.301-0.173-0.686-0.069-0.859,0.231l-0.141,0.248l-0.714-0.385l-0.047-0.023  c-0.21-0.089-0.426-0.146-0.642-0.178c-0.138-0.613-0.481-1.183-1.017-1.595l-6.252-4.809c-0.125-0.096-0.257-0.177-0.392-0.248  l-2.22-5.946l1.922-6.642c0.13-0.45,0.14-0.907,0.05-1.338l4.568-4.44c0.003,0,0.005,0,0.008,0l8.488-0.368l0.052-0.005  c0.182-0.03,0.357-0.078,0.525-0.141c0.312,0.207,0.67,0.354,1.061,0.421l0.052,0.006l0.81,0.056L35.867,29.8  c-0.014,0.347,0.256,0.641,0.604,0.655l1.03,0.043c-0.085,1.99-0.145,3.448-0.145,3.448s-0.188,1.697,3.73,2.137  c2.801,0.315,6.797,0.47,9.325,0.541l2.711,8.179c0,0,2.159-1.227,3.796-2.2c1.317,0.77,2.751,1.392,4.284,1.836  c9.493,2.749,19.391-2.3,22.858-11.368c0.842-0.374,1.554-1.028,1.988-1.881c0.025-0.101,0.048-0.201,0.072-0.302  c0.009-0.019,0.021-0.037,0.031-0.057c0.106-0.209,0.197-0.431,0.265-0.665c0.135-0.467,0.173-0.937,0.13-1.394  C87.729,19.788,81.918,10.944,72.586,8.242z M41.252,70.997c0.607-2.097,1.679-3.93,3.066-5.412l0.005-0.006  c0,0,1.067-2.377,2.827-4.062c0.017-0.017,0.031-0.032,0.047-0.048c3.112-1.565,6.798-2.01,10.407-0.965  c6.927,2.004,11.174,8.787,10.201,15.727c-0.715,0.214-1.358,0.632-1.857,1.209c-0.391,0.452-0.696,0.996-0.876,1.616  c-0.123,0.43-0.178,0.86-0.171,1.281c-2.747,5.544-9.022,8.528-15.028,6.79C43.1,85.167,39.241,77.944,41.252,70.997z M34.09,64.038  c0.54,0.419,0.744,1.11,0.567,1.73c0.017,0.01,0.033,0.019,0.049,0.031l0.616,0.476c0.251,0.195,0.297,0.557,0.102,0.809  l-0.041,0.053c-0.194,0.251-0.556,0.298-0.808,0.103l-0.616-0.477c-0.015-0.012-0.027-0.026-0.042-0.038  c-0.556,0.325-1.277,0.301-1.818-0.117c-0.71-0.55-0.839-1.569-0.29-2.279S33.38,63.488,34.09,64.038z M34.151,26.649  c0.009-0.182,0.055-0.353,0.129-0.507c0.018,0.075,0.031,0.152,0.035,0.232c0.009,0.222-0.042,0.432-0.13,0.62  C34.161,26.883,34.146,26.768,34.151,26.649z M32.924,25.106c0.098-0.004,0.194,0.004,0.287,0.02  c-0.292,0.414-0.475,0.911-0.502,1.452c-0.021,0.42,0.056,0.825,0.207,1.192l-7.095,0.31c0.239-0.906,0.018-1.91-0.675-2.634  L32.924,25.106z M23.77,26.842c-0.008-0.208,0.035-0.404,0.112-0.583c0.077,0.05,0.149,0.109,0.215,0.177  c0.384,0.396,0.473,0.973,0.272,1.451C24.025,27.662,23.79,27.283,23.77,26.842z M17.241,40.59  c-0.712-0.459-1.623-0.592-2.477-0.273c-0.084,0.031-0.165,0.067-0.245,0.105l1.504-5.198c0.83,0.516,1.876,0.555,2.74,0.107  L17.241,40.59z M14.418,43.012c-0.042-0.574,0.287-1.131,0.851-1.342c0.565-0.211,1.183-0.008,1.529,0.451l-0.109,0.378  c-0.205,0.707-0.943,1.116-1.646,0.912C14.791,43.338,14.58,43.195,14.418,43.012z M18.416,33.822  c-0.526,0.513-1.371,0.503-1.88-0.022c-0.005-0.004-0.008-0.011-0.013-0.016c0.318-0.449,0.891-0.674,1.446-0.514  c0.247,0.071,0.454,0.211,0.614,0.389L18.416,33.822z M15.052,44.88c0.949,0.125,1.881-0.255,2.479-0.966l1.379,3.694  c-0.708,0.09-1.381,0.451-1.85,1.061c-0.151,0.197-0.27,0.407-0.361,0.627L15.052,44.88z M19.745,49.841  c0.257,0.689-0.091,1.457-0.776,1.713c-0.081,0.031-0.165,0.053-0.247,0.065l-0.268-0.207c-0.583-0.447-0.695-1.284-0.249-1.862  c0.302-0.393,0.783-0.566,1.243-0.503L19.745,49.841z M28.909,56.4l-1.32,2.297l-0.444-0.237c-0.292-0.164-0.493-0.424-0.597-0.717  c0.45-0.181,0.859-0.478,1.172-0.887c0.198-0.257,0.34-0.539,0.436-0.831c0.102,0.027,0.202,0.063,0.298,0.118L28.909,56.4z   M26.772,54.728c-0.571,0.228-1.069,0.642-1.392,1.212c-0.093,0.164-0.167,0.334-0.223,0.507c-0.159-0.044-0.313-0.117-0.452-0.224  l-4.679-3.599c0.805-0.531,1.271-1.447,1.242-2.402l5.06,3.892C26.542,54.276,26.689,54.492,26.772,54.728z M19.62,32.651  c-0.33-0.352-0.752-0.625-1.248-0.768c-0.65-0.188-1.318-0.125-1.898,0.134c0.029-0.035,0.055-0.072,0.088-0.104l5.655-5.499  c0.048-0.047,0.102-0.084,0.155-0.123c-0.036,0.198-0.052,0.402-0.043,0.612c0.037,0.841,0.45,1.583,1.076,2.067L19.62,32.651z   M35.939,28.073l-0.521-0.026c-0.055-0.002-0.108-0.015-0.162-0.024c0.34-0.486,0.528-1.081,0.5-1.712  c-0.015-0.326-0.088-0.635-0.205-0.921l0.498,0.037L35.939,28.073z M46.635,23.149l-0.775,0.074c-0.02,0.002-0.038,0-0.057,0  c-0.182,0.619-0.723,1.095-1.404,1.161c-0.893,0.085-1.687-0.57-1.773-1.463c-0.085-0.893,0.57-1.687,1.463-1.772  c0.682-0.065,1.304,0.3,1.599,0.874c0.02-0.004,0.037-0.01,0.057-0.012l0.775-0.074c0.317-0.03,0.598,0.202,0.628,0.519l0.006,0.066  C47.183,22.838,46.951,23.119,46.635,23.149z M62.389,39.93c-3.609-1.045-6.486-3.39-8.282-6.375  c-0.005-0.022-0.008-0.042-0.015-0.064c-0.586-2.366-0.219-4.945-0.219-4.945l-0.001-0.007c-0.381-1.995-0.309-4.116,0.299-6.212  c2.011-6.949,9.132-10.993,15.903-9.034c6.005,1.739,9.716,7.615,9.079,13.769c-0.232,0.352-0.417,0.745-0.541,1.173  c-0.18,0.621-0.212,1.244-0.123,1.835c0.115,0.753,0.434,1.451,0.925,2.014C76.528,38.471,69.317,41.935,62.389,39.93z"/>
</svg>