<svg xmlns="http://www.w3.org/2000/svg" xmlns:xlink="http://www.w3.org/1999/xlink" version="1.1" id="Layer_1" x="0px" y="0px" width="100px" height="100px" viewBox="0 0 100 100" enable-background="new 0 0 100 100" xml:space="preserve">
<g>
	<path d="M76.424,61.068c0,1.481,1.199,2.683,2.683,2.683s2.683-1.201,2.683-2.683c0-1.483-1.199-2.684-2.683-2.684   S76.424,59.585,76.424,61.068L76.424,61.068z M86.794,61.068c0,1.481,1.203,2.683,2.683,2.683c1.483,0,2.683-1.201,2.683-2.683   c0-1.483-1.199-2.684-2.683-2.684C87.997,58.385,86.794,59.585,86.794,61.068L86.794,61.068z M7.991,45.406v-3.381H2.119   c-0.757,0-1.37,0.613-1.37,1.371v6.418l1.364-0.386C5.876,48.245,7.991,48.141,7.991,45.406L7.991,45.406z M27.331,61.068   c0,0.469,0.065,0.921,0.188,1.35H15.062h-0.546h-0.269H13.41c0.123-0.429,0.188-0.881,0.188-1.35c0-2.711-2.197-4.909-4.907-4.909   c-2.711,0-4.907,2.198-4.907,4.909c0,0.463,0.063,0.912,0.185,1.337c-2.705-0.146-3.771-1.564-3.771-2.388v-0.477v-2.293   c0-0.407,0.261-0.963,0.854-1.434c-0.593-0.475-0.854-1.029-0.854-1.437V42.665c0-3.139,2.426-3.258,6.745-4.616   c0,0,7.663-2.16,8.119-2.299v19.096v1.933l1.426,0.001V32.884h83.25v23.896h-7.866c1.503,0.837,2.521,2.445,2.521,4.289v0.053   h-0.86c-0.025,2.214-1.83,4.003-4.056,4.003c-2.221,0-4.024-1.789-4.054-4.003h-0.844l-0.002-0.053   c0-1.844,1.018-3.452,2.521-4.289h-5.599c1.506,0.837,2.52,2.445,2.52,4.289v0.053h-0.856c-0.027,2.214-1.832,4.003-4.056,4.003   c-2.221,0-4.028-1.789-4.058-4.003h-0.845v-0.053c0-1.844,1.019-3.452,2.521-4.289h-3.433v1.186H41.088v3.275h32.205v1.187H39.99   v-5.647l-1.939-0.001v5.64h-1.085c0.123-0.429,0.188-0.881,0.188-1.35c0-1.845-1.019-3.453-2.523-4.29   c-0.715-0.395-1.527-0.619-2.393-0.619C29.529,56.159,27.331,58.357,27.331,61.068L27.331,61.068z M6.007,61.068   c0,1.481,1.202,2.683,2.685,2.683c1.481,0,2.683-1.201,2.683-2.683c0-1.483-1.201-2.684-2.683-2.684   C7.209,58.385,6.007,59.585,6.007,61.068L6.007,61.068z M4.635,61.068c0-2.238,1.816-4.057,4.057-4.057   c2.239,0,4.056,1.818,4.056,4.057c0,2.24-1.816,4.056-4.056,4.056C6.451,65.124,4.635,63.309,4.635,61.068L4.635,61.068z    M29.569,61.068c0,1.481,1.202,2.683,2.685,2.683s2.684-1.201,2.684-2.683c0-1.483-1.201-2.684-2.684-2.684   S29.569,59.585,29.569,61.068L29.569,61.068z M28.197,61.068c0-2.238,1.816-4.057,4.057-4.057c2.239,0,4.057,1.818,4.057,4.057   c0,2.24-1.817,4.056-4.057,4.056C30.014,65.124,28.197,63.309,28.197,61.068L28.197,61.068z"/>
</g>
</svg>