<svg xmlns="http://www.w3.org/2000/svg" xmlns:xlink="http://www.w3.org/1999/xlink" version="1.1" id="Layer_1" x="0px" y="0px" width="100px" height="100px" viewBox="0 0 100 100" enable-background="new 0 0 100 100" xml:space="preserve">
<g>
	<path d="M25.575,77.26v0.382c0,1.436,0.826,3.874,3.124,3.874c0.377,0,0.722-0.068,1.029-0.191   c0.456,1.331,1.468,2.619,3.185,2.619c0.715,0,1.317-0.228,1.807-0.596c0.587,1.212,1.635,2.229,3.2,2.229   c0.976,0,1.757-0.399,2.349-0.997c0.641,1.134,1.691,2.028,3.184,2.028c1.154,0,2.05-0.536,2.692-1.31   c0.696,1.218,1.823,2.157,3.394,2.157c1.58,0,2.71-0.953,3.406-2.179c0.645,0.783,1.547,1.331,2.711,1.331   c1.492,0,2.545-0.895,3.186-2.028c0.59,0.598,1.373,0.997,2.348,0.997c1.566,0,2.613-1.018,3.201-2.229   c0.488,0.368,1.09,0.596,1.807,0.596c1.717,0,2.727-1.288,3.182-2.619c0.311,0.123,0.654,0.191,1.031,0.191   c2.299,0,3.125-2.438,3.125-3.874V77.26h2.084v4.922c0,0.094-0.006,0.186-0.014,0.278c-0.461,9.427-11.957,16.974-26.073,16.974   c-14.146,0-25.663-7.582-26.073-17.04c-0.005-0.069-0.008-0.14-0.008-0.212l-0.003-0.31l0.003-0.268V77.26H25.575L25.575,77.26z    M27.235,77.26v0.382c0,1.223,0.655,2.213,1.464,2.213c0.753,0,1.372-0.857,1.454-1.963l0.003-0.632h0.929v2.259   c0,1.527,0.818,2.763,1.828,2.763s1.827-1.235,1.827-2.763V77.26h1.055c-0.016,0.158-0.023,0.32-0.023,0.485v2.922   c0,1.793,0.962,3.246,2.148,3.246s2.148-1.453,2.148-3.246v-2.922c0-0.165-0.008-0.327-0.023-0.487l1.173,0.002   c-0.062,0.318-0.095,0.653-0.095,0.998v3.168c0,1.944,1.043,3.523,2.329,3.523c1.287,0,2.33-1.579,2.33-3.523v-3.168   c0-0.345-0.033-0.68-0.096-0.998h1.302c-0.053,0.314-0.08,0.644-0.08,0.982v3.575c0,2.196,1.178,3.977,2.63,3.977   c1.453,0,2.63-1.78,2.63-3.977v-3.575c0-0.339-0.027-0.668-0.084-0.982h1.338c-0.062,0.318-0.096,0.653-0.096,0.998v3.168   c0,1.944,1.043,3.523,2.328,3.523c1.287,0,2.33-1.579,2.33-3.523v-3.168c0-0.345-0.031-0.68-0.096-0.998h1.174   c-0.016,0.158-0.023,0.32-0.023,0.485v2.922c0,1.793,0.961,3.246,2.148,3.246c1.186,0,2.148-1.453,2.148-3.246v-2.922   c0-0.165-0.008-0.327-0.025-0.487l1.057,0.002v2.259c0,1.527,0.818,2.763,1.828,2.763c1.008,0,1.828-1.235,1.828-2.763V77.26h0.924   c0,0.191,0.002,0.394,0.004,0.601c0.074,1.121,0.697,1.994,1.457,1.994c0.809,0,1.465-0.99,1.465-2.213V77.26h0.99v0.382   c0,1.373-0.773,3.203-2.455,3.203c-0.627,0-0.939-0.21-1.447-0.513c-0.359,1.37-1.023,2.939-2.766,2.939   c-0.971,0-1.436-0.45-2.059-1.082c-0.518,1.345-1.246,2.716-2.949,2.716c-1.232,0-1.824-0.69-2.496-1.571   c-0.596,1.321-1.348,2.605-3.037,2.605c-1.449,0-2.123-0.926-2.811-2.01c-0.646,1.436-1.471,2.854-3.306,2.854   c-1.817,0-2.643-1.394-3.293-2.815c-0.689,1.066-1.359,1.971-2.793,1.971c-1.688,0-2.44-1.284-3.035-2.605   c-0.673,0.881-1.266,1.571-2.497,1.571c-1.702,0-2.432-1.371-2.949-2.716c-0.623,0.632-1.087,1.082-2.058,1.082   c-1.743,0-2.407-1.569-2.767-2.939c-0.507,0.303-0.82,0.513-1.447,0.513c-1.682,0-2.454-1.83-2.454-3.203V77.26H27.235   L27.235,77.26z M73.012,85.133v-0.094c-0.281-0.115-0.504-0.22-0.672-0.312c-0.164-0.092-0.291-0.184-0.381-0.275   c-0.09-0.09-0.182-0.218-0.273-0.384c-0.094-0.163-0.199-0.39-0.316-0.676h-0.096c-0.121,0.286-0.227,0.513-0.318,0.676   c-0.094,0.166-0.184,0.294-0.271,0.384c-0.094,0.092-0.221,0.184-0.387,0.275s-0.389,0.196-0.67,0.312v0.094   c0.279,0.116,0.502,0.22,0.668,0.313c0.166,0.092,0.295,0.184,0.389,0.273c0.088,0.093,0.178,0.22,0.271,0.384   c0.092,0.166,0.197,0.392,0.318,0.677h0.096c0.117-0.285,0.223-0.511,0.316-0.677c0.092-0.164,0.184-0.291,0.273-0.384   c0.092-0.09,0.223-0.182,0.387-0.273C72.51,85.353,72.734,85.249,73.012,85.133L73.012,85.133z M29.699,86.018v-0.094   c-0.282-0.116-0.506-0.22-0.673-0.312c-0.164-0.094-0.291-0.184-0.381-0.275c-0.091-0.09-0.182-0.218-0.274-0.384   c-0.093-0.163-0.198-0.392-0.317-0.676h-0.094c-0.12,0.286-0.227,0.513-0.318,0.676c-0.093,0.166-0.184,0.294-0.273,0.384   c-0.091,0.092-0.22,0.182-0.386,0.275c-0.165,0.092-0.387,0.195-0.669,0.312v0.094c0.279,0.115,0.502,0.22,0.667,0.313   c0.166,0.092,0.296,0.184,0.388,0.273c0.09,0.092,0.181,0.22,0.273,0.384c0.092,0.166,0.198,0.392,0.318,0.679h0.094   c0.119-0.287,0.225-0.513,0.317-0.679c0.093-0.164,0.184-0.292,0.274-0.384c0.093-0.09,0.222-0.182,0.386-0.273   C29.198,86.237,29.42,86.133,29.699,86.018L29.699,86.018z M33.734,89.209v-0.104c-0.311-0.128-0.558-0.241-0.739-0.343   c-0.183-0.101-0.321-0.202-0.42-0.302c-0.101-0.1-0.201-0.242-0.302-0.423c-0.103-0.18-0.218-0.431-0.349-0.743H31.82   c-0.132,0.312-0.248,0.563-0.351,0.743c-0.102,0.181-0.201,0.323-0.3,0.423c-0.1,0.1-0.241,0.201-0.424,0.302   c-0.182,0.102-0.427,0.215-0.737,0.343v0.104c0.309,0.128,0.553,0.241,0.734,0.343c0.184,0.102,0.325,0.202,0.427,0.302   c0.099,0.1,0.198,0.241,0.3,0.423c0.103,0.182,0.219,0.43,0.351,0.743h0.104c0.131-0.313,0.246-0.562,0.349-0.743   c0.101-0.182,0.201-0.323,0.302-0.423c0.102-0.1,0.243-0.2,0.425-0.302C33.182,89.45,33.427,89.337,33.734,89.209L33.734,89.209z    M38.778,91.814V91.7c-0.339-0.138-0.607-0.264-0.807-0.373c-0.198-0.111-0.351-0.222-0.457-0.331   c-0.109-0.107-0.22-0.262-0.33-0.46c-0.111-0.197-0.237-0.469-0.38-0.812h-0.113c-0.144,0.344-0.271,0.615-0.383,0.812   c-0.111,0.198-0.22,0.353-0.327,0.46c-0.109,0.109-0.263,0.22-0.462,0.331c-0.198,0.109-0.467,0.235-0.805,0.373v0.114   c0.336,0.138,0.604,0.264,0.802,0.373c0.199,0.112,0.354,0.222,0.465,0.331c0.107,0.108,0.216,0.263,0.327,0.46   c0.111,0.198,0.239,0.469,0.383,0.812h0.113c0.143-0.344,0.269-0.614,0.38-0.812c0.11-0.197,0.221-0.352,0.33-0.46   c0.11-0.109,0.266-0.219,0.463-0.331C38.176,92.078,38.443,91.952,38.778,91.814L38.778,91.814z M44.783,93.417v-0.123   c-0.367-0.15-0.658-0.284-0.874-0.405c-0.215-0.119-0.38-0.238-0.495-0.355c-0.119-0.12-0.237-0.286-0.357-0.499   c-0.12-0.216-0.258-0.508-0.412-0.881h-0.123c-0.155,0.373-0.294,0.665-0.414,0.881c-0.12,0.213-0.238,0.379-0.354,0.499   c-0.118,0.117-0.285,0.236-0.501,0.355c-0.215,0.121-0.505,0.255-0.871,0.405v0.123c0.364,0.15,0.653,0.286,0.868,0.405   c0.216,0.121,0.384,0.24,0.504,0.358c0.116,0.117,0.234,0.283,0.354,0.499c0.12,0.214,0.259,0.507,0.414,0.879h0.123   c0.154-0.372,0.292-0.665,0.412-0.879c0.12-0.216,0.238-0.382,0.357-0.499c0.119-0.118,0.287-0.237,0.501-0.358   C44.13,93.703,44.419,93.567,44.783,93.417L44.783,93.417z M52.059,93.491v-0.146c-0.438-0.18-0.783-0.34-1.041-0.482   c-0.256-0.145-0.451-0.284-0.592-0.427c-0.141-0.141-0.281-0.339-0.426-0.595c-0.141-0.255-0.305-0.604-0.491-1.048h-0.146   c-0.185,0.443-0.351,0.793-0.494,1.048c-0.143,0.256-0.283,0.454-0.422,0.595c-0.142,0.143-0.339,0.282-0.599,0.427   c-0.255,0.143-0.602,0.303-1.037,0.482v0.146c0.434,0.183,0.779,0.342,1.034,0.485c0.259,0.144,0.458,0.286,0.602,0.426   c0.139,0.142,0.279,0.34,0.422,0.595c0.144,0.256,0.31,0.604,0.494,1.051h0.146c0.186-0.446,0.35-0.795,0.491-1.051   c0.145-0.255,0.285-0.453,0.426-0.595c0.145-0.14,0.344-0.282,0.598-0.426C51.281,93.833,51.627,93.674,52.059,93.491   L52.059,93.491z M58.746,92.98v-0.121c-0.369-0.15-0.66-0.286-0.875-0.406s-0.381-0.239-0.494-0.357   c-0.119-0.119-0.24-0.285-0.359-0.499c-0.119-0.213-0.258-0.507-0.412-0.881h-0.121c-0.158,0.374-0.295,0.668-0.416,0.881   c-0.121,0.214-0.238,0.38-0.354,0.499c-0.119,0.118-0.285,0.237-0.502,0.357c-0.215,0.12-0.506,0.256-0.869,0.406v0.121   c0.361,0.149,0.652,0.286,0.867,0.405c0.215,0.122,0.385,0.239,0.504,0.356c0.115,0.119,0.232,0.286,0.354,0.501   c0.121,0.213,0.258,0.507,0.416,0.877h0.121c0.154-0.37,0.293-0.664,0.412-0.877c0.119-0.215,0.24-0.382,0.359-0.501   c0.117-0.117,0.285-0.234,0.5-0.356C58.094,93.267,58.383,93.13,58.746,92.98L58.746,92.98z M64.459,91.138v-0.114   c-0.338-0.14-0.607-0.264-0.807-0.375c-0.197-0.11-0.35-0.222-0.457-0.329c-0.109-0.108-0.219-0.263-0.33-0.46   s-0.236-0.47-0.379-0.812h-0.115c-0.145,0.343-0.27,0.615-0.381,0.812s-0.221,0.352-0.328,0.46   c-0.109,0.107-0.264,0.219-0.463,0.329c-0.197,0.111-0.465,0.235-0.805,0.375v0.114c0.338,0.137,0.604,0.264,0.803,0.373   c0.199,0.112,0.354,0.22,0.465,0.329c0.107,0.11,0.217,0.264,0.328,0.462c0.111,0.197,0.236,0.468,0.381,0.811h0.115   c0.143-0.343,0.268-0.613,0.379-0.811c0.111-0.198,0.221-0.352,0.33-0.462c0.111-0.109,0.264-0.217,0.463-0.329   C63.857,91.401,64.125,91.274,64.459,91.138L64.459,91.138z M69.23,88.405v-0.104c-0.311-0.126-0.557-0.241-0.74-0.343   c-0.18-0.1-0.318-0.202-0.418-0.302s-0.201-0.24-0.303-0.421c-0.102-0.182-0.217-0.43-0.348-0.745h-0.104   c-0.133,0.315-0.25,0.563-0.35,0.745c-0.104,0.181-0.203,0.321-0.303,0.421s-0.24,0.202-0.422,0.302   c-0.182,0.102-0.428,0.217-0.738,0.343v0.104c0.309,0.129,0.553,0.242,0.736,0.344c0.182,0.103,0.324,0.202,0.424,0.304   c0.1,0.1,0.199,0.239,0.303,0.421c0.1,0.183,0.217,0.431,0.35,0.745h0.104c0.131-0.314,0.246-0.562,0.348-0.745   c0.102-0.182,0.203-0.321,0.303-0.421c0.102-0.102,0.244-0.201,0.424-0.304C68.68,88.647,68.924,88.534,69.23,88.405L69.23,88.405z    M23.447,81.872l0.003,0.267v-0.534L23.447,81.872L23.447,81.872z M23.45,82.182c0,0.072,0.003,0.143,0.008,0.212l-0.008-0.255   V82.182L23.45,82.182z"/>
	<path d="M23.45,77.26v-9.171C14.915,61.005,9.511,50.662,9.511,39.093c0-21.02,17.84-38.005,39.903-38.714   c22.062,0.709,39.902,17.694,39.902,38.714c0,11.46-5.303,21.721-13.699,28.799v9.368h-2.084v-1.607   c0-1.435-0.826-3.873-3.125-3.873c-1.146,0-1.938,0.625-2.432,1.407c-0.482-0.357-1.078-0.577-1.781-0.577   c-1.139,0-1.977,0.573-2.539,1.349c-0.604-0.667-1.424-1.122-2.469-1.122c-1.271,0-2.203,0.67-2.822,1.572   c-0.643-0.783-1.545-1.331-2.711-1.331c-1.244,0-2.188,0.625-2.836,1.493c-0.703-1.122-1.795-1.965-3.281-1.965   c-1.477,0-2.562,0.831-3.267,1.943c-0.647-0.857-1.584-1.472-2.819-1.472c-1.165,0-2.066,0.548-2.71,1.331   c-0.619-0.902-1.553-1.572-2.822-1.572c-1.045,0-1.865,0.455-2.47,1.122c-0.562-0.775-1.398-1.349-2.537-1.349   c-0.704,0-1.298,0.22-1.784,0.577c-0.493-0.782-1.283-1.407-2.43-1.407c-2.298,0-3.124,2.438-3.124,3.873v1.607H23.45L23.45,77.26z    M26.245,77.26v-1.607c0-1.373,0.772-3.204,2.454-3.204c1.243,0,1.764,0.853,2.237,1.816c0.606-0.585,1.062-0.984,1.977-0.984   c1.319,0,1.905,0.867,2.474,1.873c0.66-0.922,1.272-1.647,2.533-1.647c1.484,0,2.155,1.02,2.771,2.161   c0.683-1.05,1.357-1.921,2.762-1.921c1.503,0,2.195,1,2.867,2.138c0.679-1.345,1.485-2.607,3.219-2.607   c1.75,0,2.556,1.286,3.234,2.645c0.67-1.152,1.363-2.175,2.883-2.175c1.406,0,2.08,0.871,2.762,1.921   c0.617-1.142,1.285-2.161,2.771-2.161c0.969,0,1.705,0.487,2.229,1.221l0.305,0.427c0.568-1.006,1.154-1.873,2.475-1.873   c0.914,0,1.369,0.399,1.977,0.984c0.473-0.964,0.992-1.816,2.236-1.816c1.682,0,2.455,1.831,2.455,3.204v1.607h-0.99v-1.607   c0-1.222-0.656-2.214-1.465-2.214s-1.463,0.992-1.463,2.214c0,0-0.006,0.695,0.002,1.605l-0.924,0.002v-0.226   c0-1.526-0.82-2.766-1.828-2.766c-1.01,0-1.828,1.239-1.828,2.766v0.226h-1.057c-0.154-1.565-1.045-2.764-2.123-2.764   c-1.076,0-1.969,1.198-2.125,2.762l-1.174,0.002c-0.283-1.457-1.176-2.521-2.234-2.521c-1.055,0-1.949,1.064-2.232,2.521h-1.338   c-0.287-1.721-1.318-2.993-2.546-2.993c-1.229,0-2.26,1.272-2.55,2.993h-1.302c-0.284-1.457-1.178-2.521-2.234-2.521   s-1.949,1.064-2.234,2.521h-1.173c-0.156-1.565-1.048-2.764-2.125-2.764s-1.969,1.198-2.125,2.762L34.74,77.26v-0.226   c0-1.526-0.817-2.766-1.827-2.766s-1.828,1.239-1.828,2.766v0.226h-0.929l0.007-1.607c0-1.222-0.655-2.214-1.464-2.214   s-1.464,0.992-1.464,2.214v1.607H26.245L26.245,77.26z M70.402,16.243c-0.072,0.088-0.121,0.184-0.154,0.289   c-0.029,0.104-0.039,0.213-0.029,0.325c0.012,0.111,0.043,0.216,0.098,0.313c0.051,0.097,0.121,0.179,0.209,0.25   s0.184,0.123,0.289,0.154s0.215,0.04,0.326,0.028c0.113-0.013,0.217-0.044,0.312-0.096s0.18-0.123,0.25-0.21   c0.072-0.087,0.121-0.183,0.154-0.288c0.029-0.104,0.039-0.214,0.027-0.326c-0.012-0.11-0.043-0.215-0.096-0.312   s-0.121-0.181-0.207-0.251c-0.09-0.071-0.186-0.122-0.289-0.153c-0.105-0.03-0.215-0.041-0.328-0.029   c-0.113,0.011-0.219,0.043-0.314,0.096S70.471,16.156,70.402,16.243L70.402,16.243z M25.312,19.17   c-0.064-0.062-0.137-0.109-0.219-0.142c-0.081-0.031-0.167-0.047-0.258-0.046c-0.092,0.003-0.177,0.021-0.258,0.057   c-0.079,0.034-0.15,0.083-0.213,0.149c-0.062,0.064-0.11,0.138-0.142,0.22c-0.032,0.082-0.048,0.167-0.046,0.257   c0.001,0.091,0.02,0.176,0.055,0.257c0.035,0.079,0.085,0.15,0.148,0.213c0.065,0.062,0.139,0.11,0.22,0.142   c0.082,0.032,0.167,0.048,0.258,0.047c0.09-0.002,0.175-0.021,0.256-0.055c0.08-0.035,0.152-0.086,0.216-0.15   c0.062-0.065,0.109-0.138,0.142-0.22s0.047-0.167,0.046-0.258c-0.002-0.09-0.02-0.177-0.055-0.256   C25.427,19.305,25.377,19.233,25.312,19.17L25.312,19.17z M45.23,8.567c-0.032-0.176-0.095-0.338-0.188-0.486   c-0.095-0.146-0.216-0.273-0.364-0.377c-0.149-0.104-0.311-0.174-0.481-0.212c-0.17-0.037-0.344-0.041-0.521-0.01   c-0.176,0.031-0.339,0.095-0.487,0.189s-0.273,0.216-0.376,0.362c-0.104,0.147-0.175,0.308-0.213,0.479   c-0.037,0.172-0.041,0.345-0.01,0.521s0.094,0.34,0.188,0.487c0.095,0.147,0.215,0.272,0.363,0.378   c0.146,0.103,0.306,0.173,0.478,0.213c0.172,0.037,0.348,0.04,0.526,0.009c0.177-0.032,0.338-0.094,0.486-0.188   c0.149-0.096,0.274-0.217,0.378-0.363c0.103-0.149,0.174-0.31,0.212-0.479C45.257,8.919,45.26,8.745,45.23,8.567L45.23,8.567z    M38.247,10.452c-0.056-0.146-0.137-0.275-0.242-0.386c-0.105-0.111-0.23-0.2-0.375-0.265c-0.146-0.062-0.296-0.097-0.45-0.101   c-0.152-0.004-0.302,0.022-0.449,0.079c-0.146,0.056-0.274,0.137-0.387,0.243s-0.199,0.23-0.263,0.374   c-0.064,0.144-0.099,0.293-0.103,0.446s0.021,0.303,0.079,0.45c0.056,0.146,0.137,0.276,0.242,0.387   c0.104,0.111,0.229,0.198,0.375,0.265c0.143,0.062,0.292,0.098,0.445,0.103c0.154,0.003,0.306-0.023,0.454-0.08   c0.146-0.057,0.274-0.137,0.386-0.242c0.112-0.107,0.199-0.232,0.265-0.376c0.063-0.146,0.098-0.294,0.102-0.446   C38.33,10.75,38.303,10.6,38.247,10.452L38.247,10.452z M32.642,13.188c-0.069-0.115-0.157-0.212-0.262-0.29   c-0.106-0.078-0.225-0.134-0.356-0.166c-0.133-0.032-0.265-0.039-0.395-0.02c-0.13,0.021-0.252,0.064-0.368,0.134   c-0.114,0.068-0.212,0.157-0.29,0.264c-0.078,0.105-0.134,0.225-0.166,0.354c-0.032,0.131-0.04,0.262-0.02,0.392   c0.019,0.131,0.063,0.253,0.132,0.367c0.07,0.117,0.158,0.214,0.264,0.292c0.104,0.077,0.224,0.133,0.355,0.167   c0.131,0.031,0.261,0.039,0.392,0.021c0.131-0.02,0.255-0.065,0.371-0.136c0.115-0.068,0.212-0.156,0.29-0.262   c0.079-0.106,0.134-0.226,0.167-0.355c0.032-0.133,0.038-0.264,0.02-0.393C32.756,13.427,32.711,13.303,32.642,13.188   L32.642,13.188z M28.386,16.243c-0.07-0.087-0.153-0.156-0.25-0.209c-0.096-0.053-0.2-0.085-0.312-0.096   c-0.114-0.012-0.224-0.001-0.328,0.029c-0.104,0.031-0.2,0.082-0.288,0.153c-0.087,0.07-0.156,0.154-0.209,0.251   s-0.085,0.201-0.097,0.312c-0.011,0.112-0.002,0.222,0.03,0.326c0.03,0.105,0.081,0.201,0.151,0.288   c0.071,0.087,0.154,0.158,0.252,0.21c0.095,0.052,0.199,0.083,0.312,0.096c0.111,0.012,0.221,0.003,0.325-0.028   c0.106-0.031,0.203-0.083,0.291-0.154c0.087-0.071,0.157-0.153,0.209-0.25c0.053-0.098,0.085-0.202,0.097-0.313   c0.011-0.112,0.002-0.221-0.029-0.325C28.508,16.427,28.458,16.331,28.386,16.243L28.386,16.243z M73.477,19.17   c-0.066,0.063-0.115,0.135-0.15,0.215c-0.035,0.079-0.053,0.166-0.055,0.256c-0.002,0.091,0.014,0.176,0.045,0.258   c0.033,0.082,0.08,0.154,0.141,0.22c0.064,0.064,0.137,0.115,0.217,0.15c0.082,0.034,0.166,0.053,0.256,0.055   c0.09,0.001,0.176-0.015,0.258-0.047c0.082-0.031,0.154-0.079,0.219-0.142s0.115-0.134,0.148-0.213   c0.035-0.081,0.055-0.166,0.057-0.257c0-0.09-0.016-0.175-0.047-0.257s-0.078-0.155-0.141-0.22   c-0.062-0.066-0.133-0.115-0.215-0.149c-0.078-0.035-0.166-0.054-0.256-0.057c-0.092-0.001-0.178,0.015-0.258,0.046   C73.613,19.061,73.541,19.107,73.477,19.17L73.477,19.17z M53.559,8.567c-0.031,0.178-0.027,0.352,0.01,0.523   c0.039,0.17,0.109,0.33,0.213,0.479c0.102,0.146,0.229,0.268,0.377,0.363c0.148,0.094,0.311,0.155,0.486,0.188   c0.178,0.031,0.355,0.028,0.525-0.009c0.172-0.04,0.332-0.11,0.479-0.213c0.148-0.105,0.27-0.23,0.363-0.378   s0.156-0.311,0.189-0.487c0.029-0.177,0.025-0.35-0.012-0.521c-0.037-0.171-0.107-0.331-0.213-0.479   c-0.1-0.146-0.229-0.268-0.375-0.362c-0.15-0.095-0.312-0.158-0.488-0.189c-0.178-0.031-0.352-0.027-0.52,0.01   c-0.172,0.038-0.334,0.108-0.484,0.212c-0.146,0.104-0.27,0.23-0.361,0.377C53.65,8.229,53.59,8.392,53.559,8.567L53.559,8.567z    M60.541,10.452c-0.057,0.147-0.082,0.298-0.08,0.451c0.006,0.152,0.039,0.301,0.104,0.446c0.064,0.144,0.152,0.269,0.264,0.376   c0.111,0.105,0.24,0.186,0.387,0.242c0.148,0.057,0.299,0.083,0.453,0.08c0.154-0.005,0.303-0.04,0.445-0.103   c0.145-0.066,0.27-0.153,0.375-0.265c0.107-0.11,0.188-0.24,0.244-0.387c0.055-0.147,0.082-0.297,0.076-0.45   c-0.004-0.153-0.037-0.303-0.102-0.446s-0.15-0.268-0.262-0.374c-0.113-0.106-0.24-0.188-0.387-0.243   c-0.148-0.057-0.297-0.083-0.449-0.079c-0.154,0.004-0.305,0.038-0.451,0.101c-0.145,0.064-0.27,0.153-0.375,0.265   C60.678,10.177,60.596,10.307,60.541,10.452L60.541,10.452z M66.146,13.188c-0.07,0.115-0.115,0.239-0.135,0.369   c-0.02,0.129-0.012,0.26,0.02,0.393c0.033,0.13,0.088,0.249,0.166,0.355c0.08,0.105,0.176,0.193,0.291,0.262   c0.117,0.07,0.24,0.116,0.371,0.136c0.131,0.019,0.262,0.011,0.393-0.021c0.131-0.034,0.25-0.09,0.354-0.167   c0.107-0.078,0.193-0.175,0.264-0.292c0.07-0.114,0.113-0.236,0.133-0.367c0.021-0.13,0.014-0.261-0.02-0.392   c-0.033-0.13-0.09-0.249-0.164-0.354c-0.08-0.106-0.176-0.195-0.293-0.264c-0.115-0.069-0.238-0.113-0.367-0.134   c-0.129-0.02-0.262-0.013-0.395,0.02c-0.131,0.032-0.25,0.088-0.357,0.166C66.301,12.976,66.215,13.072,66.146,13.188   L66.146,13.188z M49.368,20.746c0.285,0,1.017,2.499,4.472,2.381c1.334,0,2.445-0.495,3.326-1.485   c0.885-0.99,1.324-2.242,1.324-3.758c0-1.086-0.252-2.021-0.752-2.809s-1.287-1.503-2.361-2.146c-0.32-0.179-0.799-0.43-1.43-0.751   c-2.385-1.229-3.865-2.612-4.438-4.151l-0.143-0.444l-0.144,0.444c-0.572,1.539-2.051,2.922-4.437,4.151   c-0.632,0.321-1.109,0.572-1.432,0.751c-1.073,0.644-1.86,1.359-2.361,2.146s-0.751,1.723-0.751,2.809   c0,1.516,0.44,2.768,1.323,3.758s1.992,1.485,3.328,1.485C48.347,23.245,49.081,20.746,49.368,20.746L49.368,20.746z    M19.709,57.988c-0.07,0.065-0.125,0.141-0.164,0.227c-0.04,0.086-0.061,0.178-0.063,0.274c-0.002,0.098,0.013,0.191,0.045,0.279   c0.033,0.088,0.082,0.168,0.148,0.237c0.065,0.07,0.142,0.126,0.229,0.166c0.086,0.037,0.177,0.061,0.273,0.064   c0.097,0.002,0.189-0.012,0.277-0.047c0.089-0.031,0.168-0.082,0.238-0.147c0.071-0.065,0.126-0.142,0.164-0.228   c0.04-0.086,0.062-0.178,0.065-0.273c0.003-0.098-0.012-0.189-0.044-0.277c-0.034-0.09-0.084-0.17-0.15-0.24   c-0.065-0.071-0.142-0.126-0.227-0.165c-0.088-0.041-0.179-0.061-0.275-0.064c-0.098-0.002-0.19,0.012-0.278,0.044   C19.86,57.872,19.781,57.922,19.709,57.988L19.709,57.988z M57.631,68.36c0.018-0.166,0.004-0.325-0.041-0.481   c-0.047-0.152-0.121-0.295-0.227-0.425c-0.104-0.127-0.229-0.231-0.369-0.31c-0.145-0.078-0.295-0.125-0.461-0.142   c-0.166-0.019-0.326-0.004-0.482,0.042s-0.299,0.122-0.426,0.226c-0.129,0.105-0.232,0.229-0.309,0.371   c-0.078,0.142-0.125,0.296-0.145,0.462c-0.016,0.163-0.002,0.323,0.045,0.479c0.045,0.154,0.119,0.296,0.225,0.426   c0.105,0.128,0.229,0.231,0.369,0.308c0.145,0.078,0.297,0.125,0.461,0.144c0.164,0.018,0.324,0.002,0.479-0.044   c0.154-0.044,0.299-0.119,0.432-0.224c0.129-0.106,0.23-0.229,0.309-0.371C57.568,68.678,57.615,68.524,57.631,68.36L57.631,68.36z    M64.789,67.396c-0.033-0.148-0.092-0.283-0.176-0.406c-0.082-0.12-0.189-0.224-0.316-0.308c-0.127-0.082-0.264-0.136-0.41-0.164   s-0.293-0.026-0.441,0.007c-0.15,0.031-0.285,0.089-0.41,0.173c-0.121,0.086-0.225,0.191-0.307,0.317   c-0.084,0.13-0.137,0.266-0.164,0.412c-0.027,0.146-0.025,0.293,0.006,0.44c0.033,0.148,0.09,0.284,0.174,0.405   c0.084,0.122,0.189,0.227,0.316,0.308c0.129,0.084,0.266,0.139,0.41,0.164c0.146,0.027,0.295,0.025,0.443-0.004   c0.148-0.031,0.283-0.09,0.404-0.174s0.227-0.19,0.312-0.319c0.082-0.128,0.137-0.266,0.164-0.409   C64.822,67.691,64.818,67.544,64.789,67.396L64.789,67.396z M70.785,64.883c-0.061-0.126-0.143-0.231-0.242-0.321   c-0.1-0.088-0.217-0.156-0.348-0.202s-0.264-0.063-0.398-0.054c-0.135,0.008-0.264,0.041-0.387,0.102   c-0.127,0.061-0.234,0.142-0.324,0.244c-0.088,0.102-0.156,0.218-0.201,0.347c-0.043,0.132-0.062,0.266-0.055,0.397   c0.008,0.136,0.043,0.266,0.104,0.39c0.061,0.123,0.141,0.229,0.242,0.319c0.1,0.088,0.219,0.156,0.348,0.201   c0.129,0.047,0.264,0.064,0.396,0.055c0.135-0.008,0.266-0.043,0.389-0.102c0.125-0.061,0.23-0.143,0.32-0.242   c0.09-0.101,0.158-0.218,0.203-0.35c0.047-0.132,0.064-0.264,0.057-0.399C70.881,65.134,70.846,65.004,70.785,64.883L70.785,64.883   z M75.594,61.56c-0.076-0.098-0.168-0.178-0.273-0.237c-0.105-0.058-0.221-0.096-0.346-0.111c-0.123-0.014-0.242-0.008-0.359,0.025   c-0.117,0.032-0.225,0.086-0.322,0.162c-0.1,0.077-0.18,0.169-0.238,0.275c-0.061,0.105-0.096,0.222-0.111,0.344   c-0.016,0.123-0.008,0.245,0.025,0.36c0.031,0.119,0.088,0.225,0.164,0.322s0.166,0.178,0.271,0.237   c0.105,0.059,0.221,0.096,0.346,0.111c0.121,0.015,0.242,0.006,0.359-0.025s0.225-0.086,0.322-0.164   c0.1-0.075,0.178-0.165,0.236-0.271c0.059-0.106,0.098-0.223,0.113-0.346c0.016-0.124,0.008-0.245-0.023-0.362   C75.725,61.764,75.67,61.657,75.594,61.56L75.594,61.56z M79.021,57.988c-0.07-0.066-0.148-0.116-0.236-0.15   c-0.09-0.032-0.182-0.046-0.279-0.044c-0.096,0.004-0.189,0.023-0.275,0.064c-0.084,0.039-0.16,0.094-0.227,0.165   c-0.066,0.07-0.115,0.15-0.15,0.24c-0.031,0.088-0.047,0.18-0.043,0.277c0.004,0.096,0.023,0.188,0.062,0.273   s0.094,0.162,0.164,0.228c0.072,0.065,0.152,0.116,0.24,0.147c0.088,0.035,0.182,0.049,0.277,0.047   c0.096-0.004,0.188-0.027,0.273-0.064c0.086-0.04,0.162-0.096,0.229-0.166c0.066-0.069,0.115-0.149,0.146-0.237   c0.033-0.088,0.049-0.182,0.049-0.279c-0.006-0.097-0.027-0.188-0.066-0.274S79.092,58.054,79.021,57.988L79.021,57.988z    M41.1,68.36c0.017,0.164,0.064,0.317,0.142,0.46c0.076,0.142,0.18,0.265,0.31,0.371c0.132,0.104,0.275,0.18,0.431,0.224   c0.153,0.046,0.312,0.062,0.479,0.044c0.164-0.019,0.317-0.065,0.461-0.144c0.142-0.076,0.265-0.18,0.368-0.308   c0.104-0.13,0.18-0.271,0.227-0.426c0.045-0.155,0.06-0.315,0.042-0.479c-0.017-0.166-0.064-0.32-0.141-0.462   c-0.077-0.142-0.182-0.266-0.311-0.371c-0.128-0.104-0.271-0.18-0.425-0.226c-0.156-0.046-0.317-0.061-0.484-0.042   c-0.163,0.017-0.316,0.063-0.458,0.142c-0.144,0.078-0.268,0.183-0.371,0.31c-0.104,0.13-0.18,0.272-0.226,0.425   C41.097,68.035,41.083,68.194,41.1,68.36L41.1,68.36z M33.945,67.396c-0.032,0.148-0.034,0.296-0.007,0.442   c0.026,0.144,0.081,0.281,0.165,0.409c0.085,0.129,0.188,0.235,0.311,0.319c0.121,0.084,0.257,0.143,0.405,0.174   c0.148,0.029,0.296,0.031,0.442,0.004c0.146-0.025,0.281-0.08,0.408-0.164c0.128-0.081,0.234-0.186,0.318-0.308   c0.084-0.121,0.142-0.257,0.173-0.405c0.031-0.147,0.034-0.295,0.008-0.44c-0.028-0.146-0.083-0.282-0.166-0.412   c-0.083-0.126-0.185-0.231-0.307-0.317c-0.123-0.084-0.259-0.142-0.409-0.173c-0.148-0.033-0.295-0.035-0.44-0.007   c-0.146,0.028-0.284,0.082-0.411,0.164c-0.128,0.084-0.234,0.188-0.318,0.308C34.034,67.112,33.976,67.247,33.945,67.396   L33.945,67.396z M27.947,64.883c-0.061,0.121-0.095,0.251-0.104,0.385c-0.008,0.136,0.011,0.268,0.056,0.399   c0.048,0.132,0.115,0.249,0.204,0.35c0.089,0.1,0.195,0.182,0.319,0.242c0.124,0.059,0.254,0.094,0.39,0.102   c0.134,0.01,0.266-0.008,0.396-0.055c0.132-0.045,0.248-0.113,0.349-0.201c0.101-0.09,0.182-0.196,0.242-0.319   c0.061-0.124,0.095-0.254,0.103-0.39c0.009-0.132-0.01-0.266-0.055-0.397c-0.045-0.129-0.111-0.245-0.2-0.347   c-0.091-0.103-0.198-0.184-0.323-0.244c-0.124-0.061-0.253-0.094-0.388-0.102c-0.135-0.01-0.268,0.008-0.398,0.054   s-0.247,0.114-0.348,0.202C28.087,64.651,28.007,64.757,27.947,64.883L27.947,64.883z M23.139,61.56   c-0.077,0.098-0.131,0.204-0.163,0.321c-0.033,0.117-0.041,0.238-0.026,0.362c0.017,0.123,0.055,0.239,0.114,0.346   c0.06,0.105,0.138,0.195,0.236,0.271c0.097,0.078,0.205,0.133,0.323,0.164c0.117,0.031,0.236,0.04,0.359,0.025   c0.124-0.016,0.239-0.053,0.345-0.111c0.105-0.06,0.196-0.14,0.272-0.237s0.131-0.203,0.164-0.322   c0.031-0.115,0.04-0.237,0.025-0.36c-0.016-0.122-0.053-0.238-0.111-0.344c-0.061-0.106-0.141-0.198-0.239-0.275   c-0.098-0.076-0.205-0.13-0.321-0.162c-0.118-0.033-0.238-0.039-0.361-0.025c-0.125,0.016-0.24,0.054-0.344,0.111   C23.306,61.382,23.215,61.462,23.139,61.56L23.139,61.56z M46.764,56.027c-1.667,1.927-4.952,3.592-10.758,3.704   c-5.109,0.1-9.428-2.446-10.102-4.953c-0.062,0.286,1.028,7.417,13.203,7.648c1.382,0.025,2.606-0.11,3.677-0.378   c-0.05,0.28-0.074,0.571-0.074,0.879c0,0.795,0.183,1.474,0.549,2.039c0.365,0.564,0.949,1.084,1.75,1.555   c0.235,0.13,0.588,0.316,1.058,0.562c1.707,0.878,2.773,1.885,3.201,3.016l0.099,0.232l0.109-0.232   c0.418-1.123,1.497-2.134,3.237-3.03c0.463-0.234,0.811-0.417,1.047-0.547c0.781-0.471,1.357-0.994,1.725-1.566   c0.363-0.575,0.547-1.259,0.547-2.053c0-0.284-0.021-0.556-0.064-0.814c1.098,0.284,2.359,0.433,3.789,0.405   c12.176-0.232,13.266-7.362,13.203-7.648c-0.674,2.507-4.992,5.052-10.102,4.952c-5.775-0.11-9.057-1.76-10.73-3.674   c-1.406-2.181-1.383-5.153-1.383-8.102c0-12.315,7.701-20.822,16.174-20.822s15.721,8.47,15.721,20.783   c0,2.642-0.314,5.175-0.895,7.525c0.963-2.813,1.5-5.937,1.5-9.226c0-12.355-7.572-22.372-16.916-22.372   c-9.342,0-16.914,10.017-16.914,22.372c0-12.355-7.573-22.372-16.915-22.372S15.584,33.927,15.584,46.282   c0,3.289,0.537,6.412,1.501,9.226c-0.58-2.351-0.896-4.884-0.896-7.525c0-12.313,7.247-20.783,15.721-20.783   s16.174,8.507,16.174,20.822C48.084,50.925,48.108,53.856,46.764,56.027L46.764,56.027z M27.897,55.034l0.747-0.449   c-0.869-2.019-0.983-3.837-0.346-5.455c0.639-1.616,2.077-3.129,4.316-4.534c1.313,2.31,1.878,4.325,1.692,6.046   c-0.202,1.718-1.166,3.268-2.893,4.649l0.447,0.746c1.563-1.028,2.854-1.873,3.874-2.529c1.008-0.651,1.771-1.133,2.291-1.444   c0.53-0.319,1.331-0.778,2.4-1.376c1.07-0.597,2.416-1.339,4.036-2.222l-0.448-0.747c-2.014,0.88-3.829,1.001-5.446,0.363   c-1.628-0.633-3.159-2.067-4.595-4.304c2.293-1.317,4.309-1.882,6.047-1.692c1.721,0.185,3.284,1.134,4.689,2.847l0.746-0.447   c-1.007-1.502-1.843-2.769-2.508-3.798c-0.67-1.041-1.165-1.827-1.484-2.357c-0.312-0.52-0.767-1.314-1.364-2.385   c-0.605-1.081-1.34-2.43-2.205-4.046l-0.747,0.448c0.88,2.015,1.001,3.83,0.361,5.446c-0.648,1.625-2.103,3.161-4.361,4.608   c-1.312-2.31-1.874-4.319-1.683-6.03c0.181-1.703,1.135-3.27,2.863-4.699l-0.448-0.745c-1.52,1.002-2.794,1.836-3.824,2.5   c-1.029,0.663-1.81,1.155-2.341,1.474c-0.52,0.312-1.303,0.761-2.352,1.346c-1.059,0.591-2.409,1.335-4.052,2.231l0.448,0.747   c2.032-0.876,3.856-0.993,5.474-0.355c1.605,0.645,3.124,2.094,4.554,4.35c-2.281,1.311-4.282,1.874-6.003,1.688   c-1.728-0.196-3.288-1.153-4.684-2.873l-0.746,0.448c0.911,1.364,1.698,2.562,2.362,3.592c0.663,1.029,1.198,1.883,1.604,2.557   c0.411,0.685,0.916,1.562,1.515,2.633C26.433,52.335,27.12,53.591,27.897,55.034L27.897,55.034z M71.242,55.034   c0.779-1.443,1.465-2.699,2.064-3.77c0.598-1.07,1.102-1.948,1.514-2.633c0.406-0.674,0.939-1.527,1.605-2.557   c0.664-1.03,1.451-2.228,2.361-3.592l-0.748-0.448c-1.395,1.72-2.955,2.677-4.682,2.873c-1.723,0.186-3.723-0.378-6.004-1.688   c1.43-2.256,2.949-3.705,4.555-4.35c1.615-0.638,3.441-0.521,5.473,0.355l0.449-0.747c-1.645-0.896-2.994-1.641-4.053-2.231   c-1.049-0.585-1.832-1.034-2.352-1.346c-0.531-0.318-1.311-0.811-2.342-1.474c-1.029-0.664-2.303-1.498-3.822-2.5l-0.449,0.745   c1.73,1.43,2.684,2.996,2.863,4.699c0.191,1.711-0.369,3.721-1.682,6.03c-2.26-1.447-3.715-2.983-4.363-4.608   c-0.639-1.616-0.516-3.432,0.363-5.446l-0.748-0.448c-0.865,1.616-1.6,2.965-2.205,4.046c-0.598,1.07-1.053,1.865-1.363,2.385   c-0.318,0.53-0.812,1.316-1.486,2.357c-0.664,1.029-1.498,2.296-2.506,3.798l0.746,0.447c1.404-1.713,2.969-2.662,4.689-2.847   c1.736-0.189,3.752,0.375,6.047,1.692c-1.436,2.236-2.967,3.671-4.596,4.304c-1.617,0.638-3.432,0.517-5.447-0.363l-0.447,0.747   c1.621,0.883,2.965,1.625,4.035,2.222c1.07,0.598,1.871,1.057,2.402,1.376c0.52,0.312,1.283,0.793,2.291,1.444   c1.018,0.656,2.311,1.501,3.873,2.529l0.449-0.746c-1.729-1.382-2.691-2.932-2.895-4.649c-0.186-1.721,0.379-3.736,1.691-6.046   c2.24,1.405,3.68,2.918,4.316,4.534c0.639,1.618,0.525,3.437-0.344,5.455L71.242,55.034L71.242,55.034z M52.385,30.038   l-2.965-5.104l-2.966,5.104l2.966,5.11L52.385,30.038L52.385,30.038z M39.785,21.583v-0.104c-0.31-0.127-0.556-0.241-0.739-0.344   c-0.181-0.102-0.32-0.202-0.419-0.302c-0.1-0.1-0.2-0.241-0.303-0.421c-0.101-0.183-0.217-0.43-0.347-0.746h-0.105   c-0.132,0.316-0.249,0.563-0.351,0.746c-0.102,0.18-0.201,0.321-0.3,0.421c-0.1,0.1-0.241,0.2-0.424,0.302   c-0.182,0.103-0.428,0.217-0.737,0.344v0.104c0.309,0.127,0.553,0.241,0.734,0.343c0.183,0.103,0.325,0.203,0.427,0.304   c0.099,0.099,0.198,0.239,0.3,0.421s0.219,0.43,0.351,0.745h0.105c0.13-0.315,0.246-0.563,0.347-0.745   c0.103-0.182,0.203-0.322,0.303-0.421c0.102-0.101,0.243-0.201,0.424-0.304C39.234,21.824,39.478,21.71,39.785,21.583   L39.785,21.583z M19.211,31.13c-0.155-0.115-0.278-0.173-0.369-0.224s-0.161-0.102-0.21-0.151c-0.05-0.05-0.101-0.12-0.151-0.211   c-0.051-0.09-0.108-0.214-0.174-0.372c-0.118,0.158-0.177,0.282-0.228,0.372c-0.051,0.091-0.101,0.161-0.149,0.211   c-0.05,0.05-0.121,0.101-0.212,0.151c-0.092,0.051-0.215,0.108-0.369,0.172c0.153,0.115,0.276,0.172,0.368,0.223   c0.091,0.051,0.161,0.102,0.213,0.151c0.049,0.051,0.099,0.121,0.149,0.212c0.051,0.09,0.109,0.214,0.176,0.371   c0.117-0.157,0.175-0.281,0.226-0.371c0.051-0.091,0.102-0.161,0.151-0.212c0.051-0.05,0.122-0.101,0.213-0.151   S19.058,31.193,19.211,31.13L19.211,31.13z M21.353,27.84c-0.212-0.157-0.38-0.236-0.504-0.305   c-0.124-0.069-0.22-0.138-0.287-0.206s-0.136-0.164-0.206-0.287c-0.068-0.124-0.148-0.294-0.237-0.508   c-0.161,0.214-0.24,0.384-0.31,0.508c-0.069,0.123-0.138,0.219-0.204,0.287c-0.068,0.068-0.165,0.137-0.289,0.206   c-0.123,0.068-0.291,0.147-0.503,0.233c0.21,0.157,0.378,0.235,0.501,0.306c0.125,0.068,0.222,0.138,0.291,0.206   c0.066,0.067,0.135,0.164,0.204,0.287s0.148,0.293,0.239,0.507c0.159-0.214,0.239-0.384,0.308-0.507   c0.07-0.123,0.139-0.22,0.206-0.287c0.07-0.068,0.166-0.138,0.29-0.206C20.977,28.004,21.143,27.926,21.353,27.84L21.353,27.84z    M24.48,24.409v-0.081c-0.239-0.098-0.431-0.187-0.571-0.264c-0.141-0.079-0.248-0.157-0.323-0.234   c-0.078-0.078-0.156-0.186-0.234-0.326c-0.079-0.14-0.168-0.332-0.269-0.575h-0.081c-0.102,0.243-0.192,0.436-0.271,0.575   c-0.077,0.141-0.155,0.248-0.231,0.326c-0.076,0.077-0.186,0.155-0.328,0.234c-0.14,0.077-0.329,0.166-0.568,0.264v0.081   c0.237,0.099,0.427,0.187,0.566,0.265c0.142,0.079,0.252,0.157,0.33,0.235c0.076,0.076,0.154,0.185,0.231,0.324   c0.079,0.141,0.17,0.332,0.271,0.576h0.081c0.101-0.244,0.189-0.436,0.269-0.576c0.078-0.14,0.156-0.248,0.234-0.324   c0.077-0.078,0.188-0.156,0.327-0.235C24.054,24.596,24.244,24.508,24.48,24.409L24.48,24.409z M28.677,21.721v-0.085   c-0.253-0.104-0.455-0.197-0.604-0.28c-0.148-0.083-0.263-0.166-0.343-0.248c-0.082-0.081-0.165-0.196-0.248-0.345   s-0.178-0.351-0.285-0.609h-0.084c-0.108,0.259-0.204,0.461-0.288,0.609c-0.082,0.148-0.164,0.264-0.244,0.345   c-0.082,0.082-0.198,0.165-0.348,0.248c-0.148,0.083-0.35,0.176-0.603,0.28v0.085c0.252,0.104,0.452,0.197,0.601,0.28   s0.266,0.166,0.35,0.248c0.08,0.082,0.162,0.196,0.244,0.345c0.084,0.148,0.18,0.353,0.288,0.608h0.084   c0.107-0.256,0.202-0.46,0.285-0.608s0.166-0.263,0.248-0.345c0.083-0.082,0.198-0.165,0.348-0.248   C28.226,21.918,28.426,21.824,28.677,21.721L28.677,21.721z M33.968,20.491v-0.094c-0.281-0.116-0.506-0.22-0.672-0.312   c-0.165-0.094-0.292-0.185-0.381-0.275c-0.091-0.091-0.183-0.219-0.275-0.383c-0.092-0.165-0.198-0.391-0.316-0.678h-0.095   c-0.12,0.287-0.227,0.513-0.318,0.678c-0.093,0.164-0.184,0.292-0.272,0.383c-0.091,0.091-0.22,0.182-0.387,0.275   c-0.164,0.092-0.388,0.195-0.669,0.312v0.094c0.28,0.115,0.503,0.221,0.667,0.312c0.167,0.092,0.296,0.184,0.389,0.275   c0.089,0.09,0.18,0.218,0.272,0.383c0.092,0.165,0.198,0.391,0.318,0.678h0.095c0.118-0.287,0.225-0.513,0.316-0.678   c0.093-0.165,0.185-0.293,0.275-0.383c0.092-0.092,0.221-0.184,0.385-0.275C33.467,20.712,33.69,20.606,33.968,20.491   L33.968,20.491z M58.93,21.583c0.309,0.127,0.553,0.241,0.736,0.343c0.18,0.103,0.32,0.203,0.422,0.304   c0.1,0.099,0.201,0.239,0.305,0.421c0.1,0.182,0.215,0.43,0.348,0.745h0.104c0.131-0.315,0.248-0.563,0.35-0.745   s0.201-0.322,0.301-0.421c0.1-0.101,0.244-0.201,0.426-0.304c0.184-0.102,0.428-0.216,0.734-0.343v-0.104   c-0.309-0.127-0.555-0.241-0.736-0.344c-0.184-0.102-0.326-0.202-0.424-0.302c-0.1-0.1-0.199-0.241-0.301-0.421   c-0.102-0.183-0.219-0.43-0.35-0.746H60.74c-0.133,0.316-0.248,0.563-0.348,0.746c-0.104,0.18-0.205,0.321-0.305,0.421   c-0.098,0.1-0.236,0.2-0.42,0.302c-0.182,0.103-0.428,0.217-0.738,0.344V21.583L58.93,21.583z M79.502,31.13   c0.156,0.063,0.279,0.12,0.369,0.171s0.16,0.102,0.211,0.151c0.051,0.051,0.102,0.121,0.15,0.212   c0.053,0.09,0.111,0.214,0.176,0.371c0.117-0.157,0.176-0.281,0.229-0.371c0.049-0.091,0.1-0.161,0.148-0.212   c0.051-0.05,0.121-0.101,0.213-0.151s0.215-0.107,0.367-0.171c-0.154-0.115-0.277-0.173-0.367-0.224   c-0.094-0.051-0.162-0.102-0.213-0.151c-0.049-0.05-0.098-0.12-0.148-0.211c-0.053-0.09-0.111-0.214-0.178-0.372   c-0.115,0.158-0.174,0.282-0.227,0.372c-0.049,0.091-0.1,0.161-0.15,0.211c-0.049,0.05-0.117,0.101-0.207,0.151   c-0.094,0.051-0.215,0.108-0.373,0.172V31.13L79.502,31.13z M77.361,27.84c0.209,0.086,0.377,0.164,0.502,0.234   c0.123,0.068,0.221,0.138,0.289,0.206c0.068,0.067,0.137,0.164,0.205,0.287c0.07,0.123,0.15,0.293,0.238,0.507   c0.162-0.214,0.24-0.384,0.311-0.507s0.137-0.22,0.205-0.287c0.068-0.068,0.166-0.138,0.289-0.206   c0.125-0.07,0.293-0.148,0.502-0.234c-0.211-0.157-0.379-0.236-0.502-0.305c-0.125-0.069-0.221-0.138-0.289-0.206   s-0.135-0.164-0.205-0.287c-0.07-0.124-0.148-0.294-0.238-0.508c-0.16,0.214-0.24,0.384-0.311,0.508   c-0.068,0.123-0.137,0.219-0.205,0.287c-0.066,0.068-0.162,0.137-0.285,0.206c-0.125,0.068-0.295,0.147-0.506,0.233V27.84   L77.361,27.84z M74.236,24.409c0.236,0.099,0.424,0.187,0.566,0.265c0.141,0.079,0.25,0.157,0.328,0.235   c0.078,0.076,0.154,0.185,0.232,0.324c0.08,0.141,0.17,0.332,0.27,0.576h0.08c0.102-0.244,0.193-0.436,0.271-0.576   c0.078-0.14,0.156-0.248,0.232-0.324c0.078-0.078,0.188-0.156,0.328-0.235c0.143-0.078,0.33-0.166,0.568-0.265v-0.081   c-0.24-0.098-0.43-0.187-0.57-0.264c-0.141-0.079-0.25-0.157-0.326-0.234c-0.076-0.078-0.154-0.186-0.232-0.326   c-0.078-0.14-0.17-0.332-0.271-0.575h-0.08c-0.1,0.243-0.189,0.436-0.27,0.575c-0.078,0.141-0.154,0.248-0.232,0.326   c-0.076,0.077-0.184,0.155-0.326,0.234c-0.141,0.077-0.33,0.166-0.568,0.264V24.409L74.236,24.409z M70.037,21.721   c0.252,0.104,0.451,0.197,0.602,0.28c0.148,0.083,0.264,0.166,0.348,0.248c0.08,0.082,0.162,0.196,0.246,0.345   c0.082,0.148,0.178,0.353,0.285,0.608h0.086c0.107-0.256,0.203-0.46,0.285-0.608c0.084-0.148,0.166-0.263,0.246-0.345   c0.082-0.082,0.199-0.165,0.35-0.248c0.148-0.083,0.348-0.177,0.602-0.28v-0.085c-0.254-0.104-0.457-0.197-0.604-0.28   c-0.15-0.083-0.266-0.166-0.348-0.248c-0.08-0.081-0.162-0.196-0.246-0.345c-0.082-0.148-0.178-0.351-0.285-0.609h-0.086   c-0.107,0.259-0.203,0.461-0.285,0.609c-0.084,0.148-0.166,0.264-0.246,0.345c-0.082,0.082-0.195,0.165-0.344,0.248   c-0.15,0.083-0.352,0.176-0.605,0.28V21.721L70.037,21.721z M64.746,20.491c0.279,0.115,0.502,0.221,0.668,0.312   c0.164,0.092,0.295,0.184,0.387,0.275c0.09,0.09,0.182,0.218,0.275,0.383c0.09,0.165,0.197,0.391,0.316,0.678h0.094   c0.121-0.287,0.225-0.513,0.318-0.678c0.092-0.165,0.184-0.293,0.271-0.383c0.094-0.092,0.223-0.184,0.389-0.275   s0.389-0.197,0.668-0.312v-0.094c-0.281-0.116-0.504-0.22-0.67-0.312c-0.166-0.094-0.295-0.185-0.387-0.275   c-0.088-0.091-0.18-0.219-0.271-0.383c-0.094-0.165-0.197-0.391-0.318-0.678h-0.094c-0.119,0.287-0.225,0.513-0.316,0.678   c-0.094,0.164-0.186,0.292-0.275,0.383s-0.217,0.182-0.383,0.275c-0.164,0.092-0.391,0.195-0.672,0.312V20.491L64.746,20.491z    M42.832,2.688c0.962,2.519,3.537,4.335,6.583,4.394c3.044-0.059,5.621-1.875,6.582-4.394c-2.135-0.407-4.334-0.656-6.583-0.73   C47.165,2.032,44.967,2.281,42.832,2.688L42.832,2.688z M11.075,40.237c1.094-0.366,1.906-1.369,1.97-2.591   c0.065-1.236-0.658-2.333-1.73-2.802c-0.171,1.395-0.258,2.812-0.258,4.248C11.056,39.476,11.063,39.857,11.075,40.237   L11.075,40.237z M87.754,40.237c0.01-0.38,0.018-0.762,0.018-1.145c0-1.436-0.088-2.854-0.258-4.248   c-1.074,0.469-1.797,1.565-1.73,2.802C85.846,38.868,86.66,39.871,87.754,40.237L87.754,40.237z M87.219,32.893   c-0.324-1.8-0.787-3.558-1.379-5.26c-0.963,0.663-1.465,1.877-1.162,3.078C84.982,31.938,86.027,32.783,87.219,32.893   L87.219,32.893z M85.242,26.037c-0.908-2.259-2.047-4.415-3.387-6.441c-1.092,1.124-1.42,2.854-0.693,4.345   C81.924,25.504,83.611,26.314,85.242,26.037L85.242,26.037z M80.961,18.303c-1.494-2.065-3.207-3.982-5.104-5.725   c-0.658,1.4-0.506,3.112,0.533,4.396C77.52,18.366,79.357,18.842,80.961,18.303L80.961,18.303z M74.527,11.414   c-2.309-1.934-4.861-3.618-7.609-5.011c-0.363,1.852,0.361,3.828,2.006,4.98C70.65,12.594,72.885,12.538,74.527,11.414   L74.527,11.414z M65.607,5.77C62.93,4.531,60.08,3.567,57.1,2.915c0.188,1.85,1.42,3.516,3.295,4.16   C62.295,7.73,64.322,7.154,65.607,5.77L65.607,5.77z M33.221,5.77c1.284,1.385,3.311,1.961,5.211,1.306   c1.875-0.645,3.108-2.311,3.296-4.16C38.748,3.567,35.898,4.531,33.221,5.77L33.221,5.77z M24.299,11.414   c1.644,1.124,3.878,1.18,5.604-0.03c1.646-1.152,2.37-3.129,2.006-4.98C29.161,7.796,26.608,9.48,24.299,11.414L24.299,11.414z    M17.866,18.303c1.604,0.539,3.443,0.063,4.57-1.329c1.039-1.283,1.191-2.995,0.536-4.396   C21.073,14.32,19.361,16.237,17.866,18.303L17.866,18.303z M13.585,26.037c1.632,0.277,3.318-0.533,4.081-2.097   c0.727-1.49,0.397-3.221-0.695-4.345C15.631,21.622,14.494,23.778,13.585,26.037L13.585,26.037z M11.609,32.893   c1.19-0.109,2.237-0.955,2.542-2.182c0.301-1.201-0.201-2.415-1.163-3.078C12.396,29.335,11.933,31.093,11.609,32.893   L11.609,32.893z M49.368,17.261c0.1,0,0.358,0.883,1.58,0.841c0.471,0,0.863-0.175,1.176-0.524   c0.311-0.351,0.467-0.793,0.467-1.328c0-0.383-0.09-0.714-0.266-0.992s-0.455-0.531-0.834-0.759   c-0.111-0.063-0.281-0.151-0.506-0.266c-0.842-0.435-1.366-0.922-1.567-1.467l-0.051-0.157l-0.052,0.157   c-0.201,0.545-0.724,1.032-1.567,1.467c-0.223,0.114-0.392,0.202-0.505,0.266c-0.38,0.228-0.658,0.48-0.834,0.759   c-0.178,0.278-0.266,0.609-0.266,0.992c0,0.535,0.155,0.978,0.467,1.328c0.312,0.35,0.705,0.524,1.177,0.524   C49.006,18.144,49.266,17.261,49.368,17.261L49.368,17.261z M49.368,19.065c-0.197,0-0.703,1.719-3.079,1.637   c-0.918,0-1.682-0.341-2.289-1.021c-0.607-0.683-0.911-1.544-0.911-2.586c0-0.747,0.173-1.391,0.517-1.934   c0.346-0.541,0.887-1.033,1.626-1.477c0.221-0.122,0.55-0.296,0.984-0.517c1.642-0.846,2.659-1.797,3.054-2.856l0.098-0.306   l0.099,0.306c0.394,1.06,1.412,2.011,3.052,2.856c0.436,0.221,0.764,0.395,0.984,0.517c0.74,0.443,1.281,0.936,1.625,1.477   c0.346,0.543,0.518,1.187,0.518,1.934c0,1.042-0.305,1.903-0.91,2.586c-0.607,0.68-1.371,1.021-2.291,1.021   C50.068,20.784,49.565,19.065,49.368,19.065L49.368,19.065z M49.366,61.831c0.13,0,0.461-1.132,2.027-1.08   c0.605,0,1.107,0.226,1.508,0.674s0.6,1.016,0.602,1.702c0,0.493-0.115,0.917-0.342,1.274c-0.227,0.355-0.584,0.681-1.072,0.973   c-0.143,0.082-0.361,0.195-0.646,0.339c-1.082,0.56-1.751,1.186-2.011,1.881l-0.064,0.203l-0.064-0.203   c-0.26-0.695-0.931-1.321-2.012-1.881c-0.286-0.144-0.502-0.257-0.647-0.339c-0.487-0.292-0.844-0.617-1.071-0.973   c-0.227-0.357-0.34-0.781-0.34-1.274c0-0.687,0.199-1.254,0.6-1.702s0.903-0.674,1.508-0.674   C48.904,60.699,49.235,61.831,49.366,61.831L49.366,61.831z M50.518,30.04l-1.098,1.892l-1.099-1.892l1.099-1.89L50.518,30.04   L50.518,30.04z"/>
</g>
</svg>