<svg xmlns="http://www.w3.org/2000/svg" xmlns:xlink="http://www.w3.org/1999/xlink" version="1.1" id="Calque_2" x="0px" y="0px" width="100px" height="100px" viewBox="0 0 100 100" enable-background="new 0 0 100 100" xml:space="preserve">
<path d="M43.129,39.086c0-3.491-2.841-6.33-6.333-6.33c-3.491,0-6.331,2.839-6.331,6.33c0,3.492,2.839,6.334,6.331,6.334  C40.288,45.42,43.129,42.578,43.129,39.086z M32.965,39.086c0-2.111,1.719-3.83,3.831-3.83c2.113,0,3.833,1.719,3.833,3.83  c0,2.115-1.72,3.834-3.833,3.834C34.684,42.92,32.965,41.201,32.965,39.086z"/>
<path d="M43.759,39.086c0,3.492,2.839,6.334,6.331,6.334c3.492,0,6.332-2.842,6.332-6.334c0-3.491-2.84-6.33-6.332-6.33  C46.598,32.756,43.759,35.595,43.759,39.086z M50.09,35.256c2.112,0,3.832,1.719,3.832,3.83c0,2.115-1.72,3.834-3.832,3.834  s-3.831-1.719-3.831-3.834C46.259,36.975,47.978,35.256,50.09,35.256z"/>
<path d="M43.261,33.82c3.491,0,6.331-2.842,6.331-6.333s-2.84-6.331-6.331-6.331c-3.492,0-6.333,2.839-6.333,6.331  S39.769,33.82,43.261,33.82z M43.261,23.657c2.112,0,3.831,1.719,3.831,3.831c0,2.114-1.719,3.833-3.831,3.833  c-2.113,0-3.833-1.719-3.833-3.833C39.428,25.375,41.147,23.657,43.261,23.657z"/>
<path d="M43.129,62.282c0-3.491-2.841-6.331-6.333-6.331c-3.491,0-6.331,2.84-6.331,6.331s2.839,6.333,6.331,6.333  C40.288,68.615,43.129,65.773,43.129,62.282z M36.796,66.115c-2.112,0-3.831-1.719-3.831-3.833c0-2.112,1.719-3.831,3.831-3.831  c2.113,0,3.833,1.719,3.833,3.831C40.629,64.396,38.909,66.115,36.796,66.115z"/>
<path d="M56.422,62.282c0-3.491-2.84-6.331-6.332-6.331c-3.492,0-6.331,2.84-6.331,6.331s2.839,6.333,6.331,6.333  C53.582,68.615,56.422,65.773,56.422,62.282z M50.09,66.115c-2.112,0-3.831-1.719-3.831-3.833c0-2.112,1.719-3.831,3.831-3.831  s3.832,1.719,3.832,3.831C53.922,64.396,52.202,66.115,50.09,66.115z"/>
<path d="M36.928,50.686c0,3.491,2.841,6.333,6.333,6.333c3.491,0,6.331-2.842,6.331-6.333s-2.84-6.333-6.331-6.333  C39.769,44.353,36.928,47.194,36.928,50.686z M47.091,50.686c0,2.114-1.719,3.833-3.831,3.833c-2.113,0-3.833-1.719-3.833-3.833  s1.72-3.833,3.833-3.833C45.373,46.853,47.091,48.571,47.091,50.686z"/>
<path d="M43.261,67.551c-3.492,0-6.333,2.84-6.333,6.33c0,3.492,2.841,6.334,6.333,6.334c3.491,0,6.331-2.842,6.331-6.334  C49.592,70.391,46.752,67.551,43.261,67.551z M43.261,77.715c-2.113,0-3.833-1.719-3.833-3.834c0-2.111,1.72-3.83,3.833-3.83  c2.112,0,3.831,1.719,3.831,3.83C47.091,75.996,45.373,77.715,43.261,77.715z"/>
<path d="M72.62,22.48h-7.909v-3.904c0-2.063-0.514-5.339-1.146-7.3l-0.609-1.89H23.563l-0.609,1.89  c-0.631,1.965-1.144,5.239-1.144,7.3V86.76c0,2.642,2.149,4.793,4.792,4.793h33.313c2.645,0,4.795-2.151,4.795-4.793V76.647h1.125  c4.188,0,9.333-2.849,12.338-5.498c3.725-3.274,6.532-9.761,6.532-15.091V34.567C84.706,27.902,79.283,22.48,72.62,22.48z   M62.211,42.717c-1.537-0.498-2.658-1.929-2.658-3.631c0-1.701,1.121-3.129,2.658-3.627V42.717z M62.211,65.912  c-1.537-0.498-2.658-1.928-2.658-3.63s1.121-3.13,2.658-3.628V65.912z M64.711,32.48h7.909c1.149,0,2.086,0.938,2.086,2.087v21.491  c0,2.435-1.554,6.191-3.138,7.586c-2.179,1.916-5.146,2.996-5.732,3.003h-1.125V32.48z M24.311,58.542  c1.726,0.371,3.025,1.907,3.025,3.74c0,1.836-1.299,3.372-3.025,3.743V58.542z M24.311,35.346c1.726,0.371,3.025,1.907,3.025,3.74  c0,1.836-1.299,3.372-3.025,3.743V35.346z M59.916,89.053H26.603c-1.265,0-2.292-1.028-2.292-2.293V76.672  c1.035,2.09,3.17,3.543,5.657,3.543c3.491,0,6.331-2.842,6.331-6.334c0-3.49-2.839-6.33-6.331-6.33  c-2.487,0-4.622,1.453-5.657,3.543v-2.559c3.108-0.403,5.525-3.037,5.525-6.253S27.4,56.4,24.311,56.008v-2.531  c1.035,2.09,3.17,3.542,5.657,3.542c3.491,0,6.331-2.842,6.331-6.333s-2.839-6.333-6.331-6.333c-2.487,0-4.622,1.452-5.657,3.542  v-2.559c3.108-0.4,5.525-3.034,5.525-6.25c0-3.212-2.435-5.888-5.525-6.276v-2.532c1.035,2.09,3.17,3.542,5.657,3.542  c3.491,0,6.331-2.842,6.331-6.333s-2.839-6.331-6.331-6.331c-2.487,0-4.622,1.453-5.657,3.54v-6.121  c0-1.814,0.469-4.805,1.024-6.533l0.05-0.156h35.75l0.05,0.156c0.557,1.726,1.026,4.717,1.026,6.533v6.125  c-1.035-2.09-3.169-3.545-5.656-3.545c-3.493,0-6.334,2.839-6.334,6.331s2.841,6.333,6.334,6.333c2.487,0,4.621-1.455,5.656-3.547  v2.603c-2.932,0.552-5.158,3.12-5.158,6.21c0,3.092,2.227,5.662,5.158,6.214V47.9c-1.035-2.093-3.169-3.548-5.656-3.548  c-3.493,0-6.334,2.842-6.334,6.333s2.841,6.333,6.334,6.333c2.487,0,4.621-1.455,5.656-3.548v2.598  c-2.932,0.555-5.158,3.123-5.158,6.214s2.227,5.661,5.158,6.214v2.6c-1.035-2.09-3.169-3.545-5.656-3.545  c-3.493,0-6.334,2.84-6.334,6.33c0,3.492,2.841,6.334,6.334,6.334c2.487,0,4.621-1.455,5.656-3.548V86.76  C62.211,88.024,61.182,89.053,59.916,89.053z M26.134,73.881c0-2.111,1.72-3.83,3.833-3.83c2.112,0,3.831,1.719,3.831,3.83  c0,2.115-1.719,3.834-3.831,3.834C27.854,77.715,26.134,75.996,26.134,73.881z M26.134,50.686c0-2.114,1.72-3.833,3.833-3.833  c2.112,0,3.831,1.719,3.831,3.833s-1.719,3.833-3.831,3.833C27.854,54.519,26.134,52.8,26.134,50.686z M26.134,27.487  c0-2.112,1.72-3.831,3.833-3.831c2.112,0,3.831,1.719,3.831,3.831c0,2.114-1.719,3.833-3.831,3.833  C27.854,31.32,26.134,29.602,26.134,27.487z M60.385,27.487c0,2.114-1.719,3.833-3.83,3.833c-2.113,0-3.834-1.719-3.834-3.833  c0-2.112,1.721-3.831,3.834-3.831C58.666,23.657,60.385,25.375,60.385,27.487z M60.385,50.686c0,2.114-1.719,3.833-3.83,3.833  c-2.113,0-3.834-1.719-3.834-3.833s1.721-3.833,3.834-3.833C58.666,46.853,60.385,48.571,60.385,50.686z M60.385,73.881  c0,2.115-1.719,3.834-3.83,3.834c-2.113,0-3.834-1.719-3.834-3.834c0-2.111,1.721-3.83,3.834-3.83  C58.666,70.051,60.385,71.77,60.385,73.881z M82.206,56.059c0,4.607-2.496,10.413-5.684,13.216  c-2.682,2.36-7.339,4.873-10.687,4.873h-1.125v-5h1.125c1.33,0,4.867-1.413,7.383-3.628c2.125-1.867,3.987-6.289,3.987-9.461V34.567  c0-2.529-2.057-4.587-4.586-4.587h-7.909v-5h7.909c5.285,0,9.586,4.302,9.586,9.587V56.059z"/>
</svg>