<svg xmlns="http://www.w3.org/2000/svg" xmlns:xlink="http://www.w3.org/1999/xlink" version="1.1" id="Calque_2" x="0px" y="0px" width="100px" height="100px" viewBox="0 0 100 100" enable-background="new 0 0 100 100" xml:space="preserve">
<g>
	<path d="M96.151,33.194c0-11.975-9.729-21.716-21.689-21.716c-2.779,0-5.536,0.536-8.098,1.563   C62.134,6.176,54.548,1.86,46.398,1.86c-11.827,0-21.659,8.744-23.213,20.251c-4.758,1.181-8.77,4.407-10.938,8.836   c-4.831,1.754-8.105,6.353-8.105,11.592c0,6.806,5.537,12.343,12.343,12.343h8.223l11.747,30.521   c3.241,7.666,10.713,12.619,19.035,12.619c11.393,0,20.66-9.269,20.66-20.658l0.028-22.558   C87.336,53.931,96.151,44.576,96.151,33.194z M53.078,46.888c0-1.44,0.983-2.657,2.145-2.657c1.162,0,2.146,1.217,2.146,2.657   v13.812c0,0.798,0.65,1.447,1.448,1.447c0.801,0,1.448-0.649,1.448-1.447V46.888c0-1.44,0.983-2.657,2.146-2.657   c1.164,0,2.146,1.217,2.146,2.657v13.812c0,0.798,0.648,1.447,1.449,1.447s1.448-0.649,1.448-1.447V50.511   c0-1.442,0.984-2.658,2.146-2.658c1.163,0,2.146,1.216,2.146,2.655l-0.034,26.855c0,8.946-7.277,16.223-16.222,16.223   c-6.535,0-12.401-3.889-14.931-9.863L28.666,52.814c-0.341-0.867,0.084-1.932,0.966-2.343l0.772-0.39   c0.844-0.393,1.933-0.034,2.376,0.781l10.381,19.112c0.317,0.583,0.991,0.876,1.63,0.712c0.642-0.163,1.093-0.743,1.093-1.404   l0.006-41.232c0-1.44,0.982-2.658,2.145-2.658S50.18,26.61,50.18,29.5l0.005,31.199c0,0.798,0.649,1.447,1.45,1.447   s1.449-0.649,1.449-1.447L53.078,46.888z M40.015,54.884h1.434l-0.001,2.639L40.015,54.884z M76.14,49.728   c-0.362-3.545-3.156-6.314-6.54-6.314c-0.46,0-0.92,0.053-1.369,0.16c-1.116-2.291-3.327-3.781-5.82-3.781   c-1.298,0-2.535,0.401-3.594,1.149c-1.058-0.748-2.295-1.149-3.594-1.149c-0.202,0-0.404,0.01-0.603,0.029V28.051   c0-3.913-2.954-7.095-6.584-7.095c-3.63,0-6.583,3.183-6.583,7.095l-0.003,21.762h-4.19l-0.578-1.063   c-1.089-2.007-3.215-3.253-5.548-3.253c-0.923,0-1.813,0.196-2.685,0.604l-0.73,0.369c-1.466,0.683-2.555,1.913-3.134,3.344h-8.098   c-4.01,0-7.272-3.263-7.272-7.271c0-3.342,2.26-6.241,5.496-7.049c0.79-0.197,1.437-0.762,1.739-1.519   c1.577-3.938,5.172-6.697,9.384-7.199c1.229-0.147,2.172-1.159,2.232-2.395c0.48-9.783,8.532-17.447,18.333-17.447   c7.05,0,13.562,4.123,16.591,10.505c0.299,0.629,0.843,1.108,1.507,1.325c0.664,0.215,1.388,0.148,1.999-0.187   c2.426-1.326,5.181-2.025,7.967-2.025c9.165,0,16.619,7.466,16.619,16.645C91.081,41.791,84.519,48.883,76.14,49.728z"/>
</g>
</svg>