<svg xmlns:dc="http://purl.org/dc/elements/1.1/" xmlns:cc="http://creativecommons.org/ns#" xmlns:rdf="http://www.w3.org/1999/02/22-rdf-syntax-ns#" xmlns:svg="http://www.w3.org/2000/svg" xmlns="http://www.w3.org/2000/svg" xmlns:sodipodi="http://sodipodi.sourceforge.net/DTD/sodipodi-0.dtd" xmlns:inkscape="http://www.inkscape.org/namespaces/inkscape" width="97.069489" height="90" id="svg2" version="1.1" inkscape:version="0.48.2 r9819" sodipodi:docname="User Identicon One.svg">
  <defs id="defs4">
    <inkscape:path-effect fuse_tolerance="0" vertical_pattern="false" prop_units="false" tang_offset="0" normal_offset="0" spacing="0" scale_y_rel="false" prop_scale="1" copytype="single_stretched" pattern="m -1008.3947,1223.0237 c 0,-2.76 2.24,-5 5,-5 2.76,0 4.99997,2.24 4.99997,5 0,2.76 -2.23997,5 -4.99997,5 -2.76,0 -5,-2.24 -5,-5 z" is_visible="true" id="path-effect3789" effect="skeletal"/>
    <inkscape:path-effect effect="skeletal" id="path-effect3793" is_visible="true" pattern="m -1348.7637,1223.0237 c 0,-2.76 2.24,-5 5,-5 2.76,0 5,2.24 5,5 0,2.76 -2.24,5 -5,5 -2.76,0 -5,-2.24 -5,-5 z" copytype="single_stretched" prop_scale="1" scale_y_rel="false" spacing="0" normal_offset="0" tang_offset="0" prop_units="false" vertical_pattern="false" fuse_tolerance="0"/>
    <inkscape:path-effect fuse_tolerance="0" vertical_pattern="false" prop_units="false" tang_offset="0" normal_offset="0" spacing="0" scale_y_rel="false" prop_scale="1" copytype="single_stretched" pattern="m -1365.1387,-4.0406143 c 0,-2.76 2.24,-5 5,-5 2.76,0 5,2.24 5,5 0,2.76 -2.24,4.99999996 -5,4.99999996 -2.76,0 -5,-2.23999996 -5,-4.99999996 z" is_visible="true" id="path-effect3805" effect="skeletal"/>
    <inkscape:path-effect fuse_tolerance="0" vertical_pattern="false" prop_units="false" tang_offset="0" normal_offset="0" spacing="0" scale_y_rel="false" prop_scale="1" copytype="single_stretched" pattern="m -1657.0629,-431.14338 c 0,-2.76 2.24,-5 5,-5 2.76,0 5,2.24 5,5 0,2.76 -2.24,5 -5,5 -2.76,0 -5,-2.24 -5,-5 z" is_visible="true" id="path-effect3815" effect="skeletal"/>
    <inkscape:path-effect effect="skeletal" id="path-effect3825" is_visible="true" pattern="m -700.01413,-431.14338 c 0,-2.76 2.24,-5 5,-5 2.76,0 5,2.24 5,5 0,2.76 -2.24,5 -5,5 -2.76,0 -5,-2.24 -5,-5 z" copytype="single_stretched" prop_scale="1" scale_y_rel="false" spacing="0" normal_offset="0" tang_offset="0" prop_units="false" vertical_pattern="false" fuse_tolerance="0"/>
    <inkscape:path-effect effect="skeletal" id="path-effect3020" is_visible="true" pattern="m -1657.0629,-431.14338 c 0,-2.76 2.24,-5 5,-5 2.76,0 5,2.24 5,5 0,2.76 -2.24,5 -5,5 -2.76,0 -5,-2.24 -5,-5 z" copytype="single_stretched" prop_scale="1" scale_y_rel="false" spacing="0" normal_offset="0" tang_offset="0" prop_units="false" vertical_pattern="false" fuse_tolerance="0"/>
    <inkscape:path-effect fuse_tolerance="0" vertical_pattern="false" prop_units="false" tang_offset="0" normal_offset="0" spacing="0" scale_y_rel="false" prop_scale="1" copytype="single_stretched" pattern="m -474.16127,-431.14338 c 0,-2.76 2.24,-5 5,-5 2.76,0 5,2.24 5,5 0,2.76 -2.24,5 -5,5 -2.76,0 -5,-2.24 -5,-5 z" is_visible="true" id="path-effect3024" effect="skeletal"/>
    <inkscape:path-effect effect="skeletal" id="path-effect3033" is_visible="true" pattern="m -1382.6797,-431.14338 c 0,-2.76 2.24,-5 5,-5 2.76,0 5,2.24 5,5 0,2.76 -2.24,5 -5,5 -2.76,0 -5,-2.24 -5,-5 z" copytype="single_stretched" prop_scale="1" scale_y_rel="false" spacing="0" normal_offset="0" tang_offset="0" prop_units="false" vertical_pattern="false" fuse_tolerance="0"/>
  </defs>
  <sodipodi:namedview id="base" pagecolor="#ffffff" bordercolor="#666666" borderopacity="1.0" inkscape:pageopacity="0.0" inkscape:pageshadow="2" inkscape:zoom="4.5567685" inkscape:cx="98.53474" inkscape:cy="45.001155" inkscape:document-units="px" inkscape:current-layer="layer1" showgrid="false" fit-margin-top="0" fit-margin-left="0" fit-margin-right="0" fit-margin-bottom="0" inkscape:window-width="1314" inkscape:window-height="724" inkscape:window-x="52" inkscape:window-y="0" inkscape:window-maximized="1"/>
  <metadata id="metadata7">
    <rdf:RDF>
      <cc:Work rdf:about="">
        <dc:format>image/svg+xml</dc:format>
        <dc:type rdf:resource="http://purl.org/dc/dcmitype/StillImage"/>
        <dc:title/>
      </cc:Work>
    </rdf:RDF>
  </metadata>
  <g inkscape:label="Ebene 1" inkscape:groupmode="layer" id="layer1" transform="translate(-393.21874,-434.59374)">
    <g id="g3242" transform="translate(363.45754,472.55118)"/>
    <path style="color:#000000;fill:#000000;fill-opacity:1;fill-rule:nonzero;marker:none;visibility:visible;display:inline;overflow:visible;enable-background:accumulate" d="M 26.34375 0 L 26.34375 44.40625 L 70.75 44.40625 L 70.75 0 L 26.34375 0 z M 28.25 1.90625 L 31.71875 1.90625 L 28.25 8.40625 L 28.25 1.90625 z M 40.75 1.90625 L 49.3125 1.90625 L 53.9375 10.75 L 58.21875 1.90625 L 60.84375 1.90625 L 65.375 11.25 L 59.5 11.25 L 64.875 21.65625 L 68.84375 14.40625 L 68.84375 22.96875 L 60 27.59375 L 68.84375 31.875 L 68.84375 34.5 L 59.5 39.03125 L 59.5 33.15625 L 49.09375 38.53125 L 56.34375 42.5 L 47.78125 42.5 L 43.15625 33.65625 L 38.875 42.5 L 36.25 42.5 L 31.71875 33.15625 L 37.59375 33.15625 L 32.21875 22.75 L 28.25 30 L 28.25 21.4375 L 37.09375 16.8125 L 28.25 12.53125 L 28.25 9.90625 L 37.59375 5.375 L 37.59375 11.25 L 48 5.875 L 40.75 1.90625 z M 62.34375 1.90625 L 68.84375 1.90625 L 68.84375 5.375 L 62.34375 1.90625 z M 40.1875 13.84375 L 40.1875 19.5625 L 45.875 19.5625 L 45.875 13.84375 L 40.1875 13.84375 z M 51.1875 13.84375 L 51.1875 19.5625 L 56.90625 19.5625 L 56.90625 13.84375 L 51.1875 13.84375 z M 40.1875 24.84375 L 40.1875 30.5625 L 45.875 30.5625 L 45.875 24.84375 L 40.1875 24.84375 z M 51.1875 24.84375 L 51.1875 30.5625 L 56.90625 30.5625 L 56.90625 24.84375 L 51.1875 24.84375 z M 68.84375 36 L 68.84375 42.5 L 65.375 42.5 L 68.84375 36 z M 28.25 39.03125 L 34.75 42.5 L 28.25 42.5 L 28.25 39.03125 z M 19.34375 48.59375 C 8.5867255 49.145288 0 58.152534 0 69.0625 L 0 90 L 97.0625 90 L 97.0625 69.0625 C 97.0625 57.8006 87.92907 48.59375 76.6875 48.59375 L 20.40625 48.59375 C 20.054951 48.59375 19.690751 48.575958 19.34375 48.59375 z " transform="translate(393.21874,434.59374)" id="rect3029"/>
  </g>
</svg>