<svg xmlns:x="http://ns.adobe.com/Extensibility/1.0/" xmlns:i="http://ns.adobe.com/AdobeIllustrator/10.0/" xmlns:graph="http://ns.adobe.com/Graphs/1.0/" xmlns="http://www.w3.org/2000/svg" xmlns:xlink="http://www.w3.org/1999/xlink" xmlns:a="http://ns.adobe.com/AdobeSVGViewerExtensions/3.0/" version="1.0" id="Layer_1" x="0px" y="0px" width="100px" height="100px" viewBox="0 0 100 100" enable-background="new 0 0 100 100" xml:space="preserve">
<g>
	<path d="M27.307,65.994l1.156,0.289c4.556-5.559,8.219-12.848,2.687-20.442c-5.722-7.856-7.842-18.027-5.334-27.688   c2.451-9.437,5.878-14.064,11.755-16.21l5.488,22.942c-1.692,1.409-2.769,3.531-2.769,5.904c0,4.24,3.438,7.676,7.678,7.676   c4.239,0,7.677-3.437,7.677-7.676c0-3.672-2.578-6.741-6.022-7.498l-5.44-22.739c2.252-0.227,4.761-0.304,7.562-0.292   c5.267,0.023,16.255,1.85,19.569,6.443c0.831,1.152-0.559,2.653,0.014,3.334c2.081,2.472,3.521,7.247,4.051,11.896   c0.11,0.97,2.13,3.309,1.617,4.255c-1.041,1.917-1.519,2.916,0.316,5.514c1.196,1.693,4.642,6.774,5.41,8.177   c1.072,1.953-5.103,2.016-4.562,3.501c0.247,0.679,1.078,2.391,1.347,3.052c0.323,0.802-1.596,1.311-1.607,1.868   c0.002,0.214,1.184,0.328,0.997,1.726c-0.114,0.857-1.846,0.184-1.944,3.449c-0.053,1.773,2.067,4.244-1.476,6.49   c-3.812,2.412-17.057-4.695-18.163,8.736c-0.155,1.885-0.107,3.447,0.086,4.781l1.997,0.498c0,0,0.657,3.381,1.462,6.846   c0.474,0.631,0.941,1.27,1.374,1.967c2.863,4.619,8.405,10.299,9.376,16.119l0.054,0.324C56.778,91.102,37.261,84.973,15.09,81.803   c1.669-2.625,3.804-5.395,6.535-8.275l0.389-0.404L27.307,65.994L27.307,65.994z"/>
</g>
</svg>