<svg xmlns="http://www.w3.org/2000/svg" xmlns:xlink="http://www.w3.org/1999/xlink" version="1.1" id="Livello_1" x="0px" y="0px" width="100px" height="100px" viewBox="0 0 100 100" enable-background="new 0 0 100 100" xml:space="preserve">
<path d="M43.471,18.553c2.166-0.274,4.552-0.37,6.944-0.37c2.469,0,4.449,0.107,6.085,0.274c-0.03-0.966-0.269-2.744-1.825-4.713  c-1.713-2.184-1.653-3.865-1.653-5.226c0-1.372,0.609-4.294,0.609-5.226c0-0.93-0.603-3.257-3.616-3.292c-0.006,0-0.018,0-0.018,0  c-0.018,0-0.03,0-0.042,0c-3.007,0.036-3.615,2.362-3.615,3.292c0,0.932,0.614,3.854,0.614,5.226c0,1.36,0.06,3.042-1.652,5.226  C43.698,15.773,43.495,17.598,43.471,18.553z"/>
<path d="M41.147,29.063L41.147,29.063c1.099-0.234,3.76-0.645,9.136-0.645c4.629,0,6.919,0.537,8.354,0.723  c0.273,0.039,0.552,0.078,0.767,0.088c1.362,0.049,1.167-1.436,1.167-3.525c0-0.4-0.259-0.732-0.63-1.025c0-0.83,0-1.309,0-1.641  c0-0.186,0.029-0.615-0.562-1.064h-0.073c-0.293-0.234-0.767-0.479-1.484-0.684c-0.098-0.029-0.19-0.059-0.298-0.088  c-0.142-0.039-0.303-0.068-0.469-0.107c-0.317-0.059-0.659-0.127-1.055-0.186c-1.353-0.195-3.164-0.332-5.664-0.332  c-2.842,0-4.849,0.166-6.294,0.41c0,0.02-0.005,0.029-0.005,0.049c-3.423,0.596-3.545,1.641-3.545,2.002c0,0.313,0,0.4,0,1.23  c-0.508,0.273-0.894,0.596-0.923,1.035C39.375,28.125,39.717,29.346,41.147,29.063z"/>
<path d="M59.702,33.779c-0.547-0.537-0.864-1.416-1.05-2.334c-0.381-0.039-0.757-0.068-1.289-0.156  c-1.406-0.234-3.535-0.576-7.08-0.576c-5.063,0-7.588,0.371-8.643,0.596c-0.093,0.02-0.186,0.02-0.278,0.029  c-0.186,0.957-0.503,1.885-1.069,2.441C39.053,35,37.5,36.914,37.5,41.953v52.471C37.5,97.705,40.786,100,50,100  c9.209,0,12.5-1.982,12.5-5.576V41.953C62.5,36.914,60.947,35,59.702,33.779z M42.715,89.258v-9.336l7.754,4.668L42.715,89.258z   M42.715,76.611v-9.336l7.754,4.668L42.715,76.611z M42.715,63.965v-9.336l7.754,4.668L42.715,63.965z"/>
</svg>