<?xml version="1.0" encoding="utf-8"?>
<!-- Generator: Adobe Illustrator 14.0.0, SVG Export Plug-In . SVG Version: 6.00 Build 43363)  -->
<!DOCTYPE svg PUBLIC "-//W3C//DTD SVG 1.0//EN" "http://www.w3.org/TR/2001/REC-SVG-20010904/DTD/svg10.dtd">
<svg version="1.0" id="Layer_1" xmlns="http://www.w3.org/2000/svg" xmlns:xlink="http://www.w3.org/1999/xlink" x="0px" y="0px"
	 width="100px" height="59.15px" viewBox="0 0 100 59.15" enable-background="new 0 0 100 59.15" xml:space="preserve">
<path d="M95.295,8.155C93.763,1.389,78.214-2.362,70.184,1.646c-2.884,1.44-5.986,4.477-8.433,7.626H38.25
	c-2.447-3.149-5.549-6.186-8.433-7.626C21.786-2.362,6.237,1.389,4.705,8.155C2.247,19.002-5.129,57.326,5.869,58.98
	c10.235,1.54,20.609-7.624,27.742-18.169H66.39C73.522,51.356,83.897,60.52,94.131,58.98C105.129,57.326,97.753,19.002,95.295,8.155
	z M19.896,27.408c-3.97,0-7.188-3.218-7.188-7.188c0-3.97,3.218-7.188,7.188-7.188c3.97,0,7.188,3.219,7.188,7.188
	C27.084,24.19,23.865,27.408,19.896,27.408z M80.104,27.408c-3.97,0-7.188-3.218-7.188-7.188c0-3.97,3.219-7.188,7.188-7.188
	c3.97,0,7.188,3.219,7.188,7.188C87.293,24.19,84.075,27.408,80.104,27.408z"/>
</svg>
