<svg xmlns="http://www.w3.org/2000/svg" xmlns:xlink="http://www.w3.org/1999/xlink" version="1.1" id="Livello_1" x="0px" y="0px" width="100px" height="100px" viewBox="0 0 100 100" enable-background="new 0 0 100 100" xml:space="preserve">
<g>
	<path d="M78.859,78.604c-5.165-0.968-7.636-7.42-10.754-16.667c-3.118-9.246,4.302-10.754,11.397-13.44   c7.096-2.691,12.689-6.345,9.571-14.413c-3.118-8.063-10.431-6.771-13.014-6.124c-2.578,0.644-9.998,4.405-11.289,2.794   c-1.292-1.616,6.345-5.485,3.442-16.667C65.312,2.902,55.093,0,49.932,0C38.106,0,31.33,10.327,31.33,18.282   s5.161,10.965,3.978,12.149c-1.179,1.184-9.247-2.043-12.792-2.902c-3.55-0.859-12.473,0.859-12.473,10.214   c0,9.354,14.624,12.257,19.893,14.516c5.264,2.259,0.963,13.225-1.399,18.602c-2.367,5.377-4.945,7.209-8.279,7.744   s-9.787,2.794-9.787,9.03S17.246,100,24.126,100s11.938-4.945,13.873-6.236c1.935-1.292,7.847-6.448,12.365-6.448   s15.699,9.675,19.569,11.398c3.869,1.718,9.246,1.395,12.581-0.648c3.334-2.043,7.955-6.664,6.88-12.149   C88.317,80.432,84.021,79.572,78.859,78.604z M72.407,30.377c1.881,0.216,2.902,1.935,3.011,2.794   c0.107,0.864-0.433,1.939-0.644,2.902c-0.216,0.973,1.856,1.699,2.794,2.475c1.228,1.021,0.845,2.259,0.589,2.961   c-0.182,0.505-0.569,1.395-0.535,1.772c0.055,0.644,0.535,0.805,1.184,0.805c0.644,0,2.092,0.162,2.092,1.611   c0,1.454-2.686,1.562-3.923,1.081c-1.233-0.486-2.098-1.832-2.098-2.799s0.864-2.637,1.021-3.172   c0.162-0.535-0.373-0.805-1.557-1.395c-1.184-0.594-1.881-1.616-2.15-2.475c-0.271-0.864,0.697-2.421,0.644-3.226   c-0.055-0.805-1.341-0.54-1.773-0.643c-0.432-0.108-0.751-0.481-0.751-1.292C70.311,31.506,70.521,30.161,72.407,30.377z    M29.159,33.554c-0.427,0.108-1.719-0.162-1.772,0.644c-0.054,0.81,0.918,2.367,0.648,3.226c-0.27,0.859-0.972,1.886-2.151,2.475   c-1.183,0.589-1.724,0.859-1.562,1.399c0.162,0.535,1.021,2.205,1.021,3.172c0,0.962-0.859,2.308-2.097,2.794   c-1.237,0.481-3.924,0.374-3.924-1.075c0-1.454,1.454-1.616,2.097-1.616c0.643,0,1.129-0.162,1.183-0.805   c0.03-0.374-0.354-1.267-0.54-1.773c-0.25-0.697-0.633-1.935,0.594-2.956c0.933-0.781,3.01-1.508,2.794-2.475   c-0.216-0.967-0.751-2.043-0.643-2.902s1.129-2.583,3.01-2.794c1.881-0.216,2.097,1.125,2.097,1.395   C29.916,33.073,29.591,33.446,29.159,33.554z M55.309,11.397c1.365,0,2.475,1.11,2.475,2.475s-1.109,2.47-2.475,2.47   s-2.47-1.105-2.47-2.47S53.943,11.397,55.309,11.397z M43.911,11.397c1.365,0,2.475,1.11,2.475,2.475s-1.11,2.47-2.475,2.47   c-1.365,0-2.475-1.105-2.475-2.47S42.546,11.397,43.911,11.397z M38.058,89.879c-0.216,1.312-1.685,3.561-2.932,2.819   c-1.248-0.747-0.644-2.072-0.314-2.628c0.334-0.555,0.442-1.051-0.083-1.429c-0.304-0.221-1.272-0.349-1.797-0.446   c-0.731-0.143-1.989-0.452-2.239-2.023c-0.187-1.203,0.25-3.359-0.688-3.668c-0.943-0.314-2.141-0.403-2.824-0.938   c-0.682-0.53-1.64-2.288-0.859-4.017c0.781-1.724,2.047-1.218,2.278-1.08c0.692,0.412,0.85,0.879,0.722,1.306   c-0.132,0.423-1.021,1.395-0.358,1.852c0.668,0.462,2.5,0.432,3.104,1.1c0.599,0.673,1.12,1.798,1.021,3.113   c-0.098,1.321-0.147,1.92,0.398,2.058c0.545,0.138,2.416,0.251,3.246,0.747C37.566,87.139,38.278,88.568,38.058,89.879z    M50.162,71.076c-2.018,0-3.653-1.635-3.653-3.653s1.635-3.658,3.653-3.658c2.019,0,3.658,1.64,3.658,3.658   S52.181,71.076,50.162,71.076z M50.162,55.593c-2.018,0-3.653-1.635-3.653-3.658c0-2.019,1.635-3.653,3.653-3.653   c2.019,0,3.658,1.635,3.658,3.653C53.82,53.958,52.181,55.593,50.162,55.593z M56.654,43.606c-1.719,1.07-6.075-1.778-6.075-1.778   s-1.453,0.864-2.853,0c0,0-4.297,3.55-6.291,1.292c-1.989-2.259-0.805-6.291,0.059-7.047c0.854-0.746,3.708-0.319,6.074,1.94   c0,0,1.287-0.914,2.902-0.108c0,0,3.815-3.929,6.021-2.259C58.697,37.316,58.044,42.732,56.654,43.606z M57.567,26.129   c-1.292,1.616-2.902,3.978-7.636,3.978c-4.729,0-6.664-3.329-7.523-4.193c-0.864-0.859-1.616-2.362-0.54-3.438   c0.972-0.978,2.259,0.216,3.118,1.719c0.859,1.507,2.902,3.442,4.945,3.442s4.626-2.259,5.485-3.551   c0.858-1.292,1.826-2.475,2.794-1.935C59.178,22.692,58.858,24.519,57.567,26.129z M75.113,84.296   c-0.874,0.412-2.75,0.349-3.305,0.432c-0.556,0.084-0.57,0.683-0.6,2.004c-0.029,1.326-0.653,2.392-1.316,3.005   c-0.662,0.609-2.484,0.398-3.191,0.791c-0.707,0.397,0.088,1.448,0.177,1.881c0.083,0.438-0.118,0.889-0.85,1.232   c-0.24,0.113-1.547,0.496-2.155-1.296c-0.614-1.793,0.505-3.452,1.237-3.919c0.736-0.467,1.935-0.438,2.902-0.658   c0.967-0.216,0.736-2.406,1.041-3.58c0.402-1.547,1.684-1.733,2.421-1.802c0.535-0.049,1.507-0.084,1.836-0.271   c0.561-0.324,0.496-0.83,0.222-1.414c-0.275-0.584-0.747-1.964,0.564-2.583c1.311-0.624,2.559,1.763,2.646,3.089   C76.837,82.528,75.987,83.884,75.113,84.296z"/>
</g>
</svg>