<svg xmlns="http://www.w3.org/2000/svg" xmlns:xlink="http://www.w3.org/1999/xlink" version="1.1" id="Layer_1" x="0px" y="0px" width="100px" height="100px" viewBox="0 0 100 100" enable-background="new 0 0 100 100" xml:space="preserve">
<path d="M36.022,27.863L17.294,8.793C13.344,5.187,8.423,1.091,3.434,0L36.022,27.863z"/>
<path d="M96.438,64.046c-1.98-5.842-8.68-10.085-14.5-7.992c-6.063,2.178-4.688,4.082-6.965,5.042  c-2.705,1.139-9.717-5.426-19.507-14.387L2.554,1.469c0.891,4.879,4.441,9.869,7.609,13.926l28.574,32.752l4.376,5.773  C52.248,65.65,59.315,74.119,57.87,76.929c-1.132,2.196-2.925,0.679-5.564,6.556c-2.533,5.643,1.181,12.649,6.853,15.073  c5.47,2.816,13.298,1.548,16.294-4.158c3.378-5.562,1.224-13.414-4.394-16.743c-4.797-3.396-9.325-9.762-13.204-17.897  c7.813,4.494,13.812,9.498,16.829,14.542c2.887,5.857,10.549,8.609,16.355,5.67C96.958,77.42,98.823,69.716,96.438,64.046z   M65.104,79.04c6.403,0.888,10.667,9.64,5.936,14.585c-3.475,4.263-10.759,2.788-13.599-1.41  C53.294,86.088,58.226,77.663,65.104,79.04z M50.449,51.781c-1.42,1.317-3.64,1.232-4.957-0.189  c-1.315-1.421-1.23-3.641,0.191-4.958c1.422-1.315,3.641-1.229,4.956,0.191C51.956,48.247,51.87,50.466,50.449,51.781z   M90.605,75.512c-5.295,4.337-13.692-0.59-14.085-7.041c-0.843-6.964,7.937-11.232,13.727-6.626  C94.214,64.997,95.122,72.375,90.605,75.512z"/>
</svg>