<svg xmlns="http://www.w3.org/2000/svg" xmlns:xlink="http://www.w3.org/1999/xlink" version="1.1" id="Layer_1" x="0px" y="0px" width="100px" height="100px" viewBox="0 0 100 100" enable-background="new 0 0 100 100" xml:space="preserve">
<g>
	<path fill="#000000" d="M29.188,22.918c-1.997,0.244-4.166,0.297-6.083-0.064c-1.056-0.223-1.564-0.406-2.148-0.851   c-0.527-0.425-0.89-1.162-0.684-1.836c0.269-0.656,0.912-1.04,1.507-1.367c0.801-0.418,1.819-0.822,2.793-1.144   c1.985-0.661,4.066-1.156,6.16-1.587c4.196-0.852,8.473-1.431,12.759-1.89c2.144-0.227,4.293-0.419,6.445-0.58l2.607-0.18   l0.132,2.095c1.798-1.212,3.624-2.4,5.479-3.568c-1.938-1.023-3.902-2.024-5.893-2.996l0.132,2.094l-2.635,0.181   c-2.175,0.163-4.348,0.356-6.519,0.586c-4.341,0.465-8.674,1.05-12.985,1.925c-2.155,0.444-4.304,0.953-6.438,1.661   c-1.082,0.367-2.096,0.745-3.217,1.334c-1.289,0.69-2.521,1.62-2.947,2.962c-0.366,1.366,0.243,2.855,1.275,3.809   c1.012,0.977,2.664,1.497,3.718,1.685c2.356,0.428,4.582,0.358,6.883,0.084L29.188,22.918z"/>
</g>
<g>
	<path fill="#000000" d="M60.814,13.12c0.859-0.134,1.824-0.207,2.72-0.196c0.227,0.002,0.452,0.011,0.674,0.025   c0.23,0.016,0.333,0.026,0.505,0.048c0.311,0.041,0.62,0.104,0.917,0.204c0.587,0.188,1.168,0.592,1.332,1.218   c0.077,0.3,0.104,0.63-0.012,0.925c-0.112,0.294-0.321,0.542-0.552,0.751c-0.232,0.211-0.493,0.388-0.763,0.549   c-0.275,0.162-0.504,0.281-0.975,0.499c-0.837,0.382-1.724,0.711-2.628,1.009c-1.811,0.593-3.688,1.067-5.581,1.488   c-3.791,0.834-7.652,1.454-11.524,1.986c-3.509,0.499-9.269,1.089-8.225,0.977l-0.214-2.088c-1.754,1.281-3.529,2.548-5.334,3.787   c1.979,0.947,3.983,1.86,6.005,2.756l-0.214-2.088c-1.052,0.113,4.755-0.481,8.304-0.986c3.917-0.539,7.827-1.165,11.717-2.021   c1.944-0.433,3.884-0.919,5.811-1.55c0.963-0.317,1.923-0.672,2.875-1.106c0.422-0.191,1.075-0.516,1.63-0.869   c0.56-0.355,1.079-0.757,1.504-1.221c0.423-0.462,0.763-0.986,0.936-1.579c0.177-0.593,0.134-1.241-0.019-1.839   c-0.313-1.23-1.311-2.132-2.484-2.613c-0.591-0.249-1.235-0.411-1.896-0.509c-0.313-0.048-0.7-0.085-0.96-0.101   c-0.269-0.018-0.535-0.027-0.8-0.03c-1.07-0.008-2.072,0.063-3.155,0.231L60.814,13.12z"/>
</g>
<g>
	<polygon points="37.453,57.223 41.95,56.757 39.31,53.107  "/>
	<polygon points="54.193,55.486 58.69,55.021 56.028,51.375  "/>
	<polygon points="57.42,42.776 52.924,43.242 55.565,46.911  "/>
	<polygon points="48.708,62.267 50.562,58.125 46.045,58.592  "/>
	<polygon points="46.166,37.732 44.312,41.874 48.829,41.405  "/>
	<polygon points="40.681,44.511 36.184,44.977 38.847,48.644  "/>
	<polygon points="44.524,56.488 51.596,55.756 54.51,49.276 50.35,43.51 43.255,44.244 40.368,50.743  "/>
	<path d="M70.956,25.929l-21.834,2.089L46.83,4.068l-7.882,0.754l2.292,23.95l-22.506,2.154l4.198,43.86   c0,0,15.84,23.955,28.955,22.584C65,95.999,75.154,69.788,75.154,69.788L70.956,25.929z M41.737,42.141l3.966-8.861l5.703,7.857   l9.646-0.999l-3.967,8.871l5.698,7.846l-9.646,1l-3.969,8.859l-5.701-7.857l-9.646,1l3.97-8.848l-5.702-7.87L41.737,42.141z    M26.051,75.247C26.034,75.249,26.017,75.25,26,75.25c-0.253,0-0.471-0.191-0.497-0.449c-0.028-0.273,0.172-0.52,0.446-0.548   l46.25-4.75c0.255-0.03,0.52,0.17,0.548,0.446c0.028,0.275-0.171,0.52-0.446,0.548L26.051,75.247z M51.459,96.104   c0,0,14.416-11.354,14.405-23.813l6.802-0.849C72.666,71.442,64.25,93.875,51.459,96.104z"/>
</g>
</svg>