<svg xmlns="http://www.w3.org/2000/svg" xmlns:xlink="http://www.w3.org/1999/xlink" version="1.1" id="Layer_1" x="0px" y="0px" width="100px" height="100px" viewBox="0 0 100 100" enable-background="new 0 0 100 100" xml:space="preserve">
<path fill="#000000" d="M64.64,40.542c-0.103-3.608-0.722-5.876-0.722-5.876l-6.622-17.523c-0.748-2.268-2.655-4.948-2.655-4.948  c-0.775-0.917-0.875-2.075-0.861-2.715c0.35-0.045,0.545-0.206,0.634-0.307l0.011,0.001l0.162-0.171  c0.458-0.485,0.408-1.091,0.275-1.461c0.039-0.362-0.049-0.595-0.16-0.744c0-0.061,0.001-0.127,0.005-0.186  c0.017-0.223-0.085-0.408-0.21-0.547c0.254-0.328,0.221-0.834,0.196-1.029c-0.016-0.598-0.435-1.018-0.676-1.211  c-0.244-0.571-1.207-0.756-2.148-0.859c-0.898-0.098-1.776-0.099-1.814-0.099h-0.533c-0.037,0-0.915,0.001-1.814,0.099  c-0.94,0.103-1.904,0.288-2.147,0.859c-0.242,0.193-0.661,0.613-0.676,1.211c-0.024,0.195-0.057,0.701,0.196,1.029  c-0.124,0.14-0.227,0.324-0.21,0.547c0.004,0.058,0.006,0.125,0.005,0.186c-0.111,0.148-0.199,0.382-0.16,0.744  c-0.133,0.371-0.184,0.976,0.275,1.461l0.162,0.171l0.023-0.002c0.088,0.1,0.284,0.263,0.634,0.308  c0.014,0.64-0.086,1.798-0.862,2.715c0,0-1.907,2.68-2.654,4.948L35.67,34.667c0,0-0.618,2.268-0.722,5.876  c-0.103,3.607,0,46.59,0,46.59s0.361,6.443,2.989,8.555c0,0,1.649,1.443,9.895,1.443h3.922c8.246,0,9.896-1.443,9.896-1.443  c2.629-2.111,2.989-8.555,2.989-8.555S64.742,44.15,64.64,40.542z M49.521,3.332h0.533c0,0,2.677,0,3.386,0.514  c-3.58-0.465-6.123-0.208-7.264-0.026C46.94,3.333,49.521,3.332,49.521,3.332z M45.347,5.071c0-0.284,0.148-0.521,0.3-0.689  c0.326-0.074,3.433-0.719,8.274-0.01c0.154,0.169,0.309,0.411,0.309,0.699c0,0,0.087,0.615-0.17,0.774  c-4.731-0.66-7.819-0.145-8.542,0.001C45.259,5.687,45.347,5.071,45.347,5.071z M45.472,6.33c0.158-0.036,3.438-0.748,8.621-0.012  c0.08,0.072,0.158,0.167,0.151,0.261c-0.002,0.02-0.003,0.041-0.004,0.062c-4.656-0.578-7.881-0.174-8.905-0.006  c-0.001-0.019-0.002-0.038-0.003-0.056C45.325,6.49,45.395,6.4,45.472,6.33z M45.208,7.146c0.658-0.122,4.042-0.662,9.16-0.002  c0.024,0.058,0.041,0.138,0.039,0.248c-5.032-0.646-8.431-0.144-9.237,0C45.167,7.283,45.184,7.204,45.208,7.146z M45.103,7.896  c0.251-0.052,3.795-0.742,9.369-0.009c0.038,0.22,0.028,0.532-0.224,0.798c0,0-1.691-0.213-3.913-0.213  c-0.092,0-0.186,0-0.281,0.001h-0.533c-0.094-0.001-0.188-0.001-0.28-0.001c-2.222,0-3.914,0.213-3.914,0.213  C45.079,8.423,45.066,8.116,45.103,7.896z M64.016,69.043l-28.433,7.268l-0.022-24.738l28.457-6.651L64.016,69.043z"/>
<g>
	
		<rect x="39.5" y="71.308" transform="matrix(0.2404 0.9707 -0.9707 0.2404 101.9666 17.4793)" fill="#000000" width="0.632" height="5.158"/>
</g>
<g>
	
		<rect x="59.947" y="66.22" transform="matrix(0.2411 0.9705 -0.9705 0.2411 112.5045 -6.273)" fill="#000000" width="0.632" height="5.158"/>
</g>
<g>
	<path fill="#000000" d="M43.409,61.432c0.2-0.053,0.4-0.107,0.599-0.164c-0.175-0.5-0.104-1.012,0.215-1.484l0.077-0.115   l-0.034-0.135c-0.188-0.74,0.055-1.379,0.686-1.797l0.118-0.078l0.019-0.141c0.098-0.75,0.563-1.25,1.311-1.406l0.135-0.027   l0.069-0.121c0.386-0.672,1.034-0.967,1.829-0.828l0.129,0.021l0.105-0.076c0.652-0.473,1.366-0.494,2.008-0.062l0.115,0.078   l0.134-0.035c0.735-0.188,1.379,0.057,1.796,0.686l0.078,0.117l0.141,0.018c0.75,0.1,1.25,0.564,1.406,1.311l0.028,0.137   l0.121,0.068c0.034,0.021,0.067,0.041,0.101,0.062c0.241-0.072,0.482-0.143,0.723-0.209c-0.117-0.117-0.251-0.223-0.398-0.318   c-0.232-0.889-0.865-1.477-1.764-1.641c-0.537-0.725-1.357-1.043-2.25-0.861c-0.376-0.227-0.774-0.342-1.183-0.342   c-0.454,0-0.895,0.141-1.312,0.418c-0.954-0.123-1.772,0.252-2.272,1.031c-0.888,0.232-1.478,0.865-1.642,1.764   c-0.733,0.543-1.042,1.352-0.859,2.25C43.276,60.15,43.2,60.805,43.409,61.432z"/>
	<path fill="#000000" d="M56.366,60.504c-0.209,0.049-0.418,0.1-0.627,0.154c-0.025,0.275-0.125,0.549-0.301,0.811l-0.078,0.113   l0.034,0.135c0.188,0.74-0.055,1.377-0.686,1.797l-0.117,0.078l-0.018,0.139c-0.099,0.752-0.564,1.252-1.311,1.408l-0.136,0.027   l-0.069,0.121c-0.386,0.672-1.035,0.967-1.829,0.828l-0.129-0.021l-0.105,0.076c-0.652,0.473-1.366,0.494-2.007,0.062l-0.115-0.078   l-0.134,0.035c-0.736,0.188-1.379-0.057-1.797-0.686l-0.078-0.117l-0.139-0.018c-0.646-0.086-1.104-0.443-1.319-1.016   c-0.197,0.066-0.394,0.129-0.59,0.191c0.275,0.762,0.873,1.266,1.692,1.416c0.537,0.723,1.358,1.039,2.251,0.857   c0.375,0.229,0.773,0.344,1.183,0.344c0.453,0,0.894-0.141,1.312-0.418c0.118,0.016,0.236,0.023,0.352,0.023   c0.806,0,1.482-0.373,1.92-1.055c0.889-0.232,1.478-0.865,1.642-1.764c0.734-0.543,1.043-1.352,0.859-2.252   C56.256,61.316,56.368,60.91,56.366,60.504z"/>
</g>
<g>
	<path fill="#000000" d="M60.331,60.209c0.227,0.002,0.453,0.01,0.681,0.023c-0.2-0.18-0.399-0.357-0.6-0.529   c-0.529-0.455-1.06-0.879-1.59-1.277c0.327-0.52,0.654-1.029,0.981-1.529c0.111-0.17,0.222-0.338,0.333-0.504   c-0.216,0-0.433,0.006-0.65,0.018c-0.226,0.012-0.452,0.029-0.68,0.051l-1.273-0.508l0.219-2.023l-2.031-0.127l-0.415-1.994   l-1.974,0.506l-1.009-1.768l-1.72,1.09l-1.509-1.367l-1.298,1.566l-1.855-0.834l-0.752,1.893l-2.023-0.221l-0.127,2.031   l-1.993,0.416l0.505,1.973l-1.768,1.01l1.089,1.721l-1.366,1.508l0.692,0.574c-0.423,0.039-0.846,0.061-1.27,0.062   c-0.286,0-0.572-0.008-0.858-0.025c0.271,0.195,0.543,0.381,0.815,0.559c0.59,0.389,1.181,0.734,1.771,1.051l-0.281,0.627   c-0.3,0.363-0.601,0.723-0.901,1.07c-0.156,0.18-0.313,0.359-0.47,0.533c0.256-0.002,0.512-0.01,0.769-0.027   c0.778-0.049,1.556-0.162,2.334-0.318l-0.198,1.824l2.032,0.127l0.416,1.994l1.973-0.506l1.009,1.768l1.72-1.09l1.509,1.367   l1.298-1.566l1.855,0.834l0.752-1.891l2.024,0.219l0.127-2.031l1.993-0.416l-0.506-1.973l1.768-1.01l-1.089-1.719l1.044-1.154   C60,60.211,60.165,60.207,60.331,60.209z M43.603,56.768c1.031-1.652,2.643-2.807,4.541-3.246c0.544-0.127,1.102-0.191,1.656-0.191   c2.655,0,5.009,1.412,6.288,3.605c-0.777,0.191-1.555,0.42-2.332,0.678c-0.914-1.209-2.355-1.965-3.956-1.965   c-0.378,0-0.758,0.045-1.131,0.131c-1.294,0.301-2.394,1.088-3.097,2.215c-0.55,0.885-0.801,1.895-0.741,2.912   c-0.757,0.238-1.514,0.449-2.272,0.619C42.349,59.869,42.708,58.205,43.603,56.768z M39.705,65.465   c0.521-0.609,1.041-1.246,1.561-1.904c-0.757-0.379-1.514-0.807-2.271-1.297c6.854-0.059,13.706-5.244,20.56-5.561   c-0.374,0.576-0.748,1.168-1.122,1.771c0.609,0.443,1.221,0.92,1.831,1.438C53.411,59.881,46.557,65.064,39.705,65.465z    M55.983,64.482c-1.03,1.652-2.643,2.807-4.54,3.246c-0.544,0.127-1.101,0.191-1.655,0.191l0,0c-2.373,0-4.505-1.127-5.844-2.932   c0.799-0.227,1.598-0.49,2.397-0.775c0.899,0.869,2.118,1.387,3.447,1.387l0,0c0.377,0,0.758-0.043,1.129-0.131   c1.295-0.299,2.395-1.086,3.097-2.213c0.41-0.658,0.654-1.387,0.729-2.137c0.781-0.234,1.562-0.436,2.344-0.588   C57.107,61.916,56.733,63.279,55.983,64.482z"/>
	<path fill="#000000" d="M49.335,60.633c-2.23,0.855-4.537,1.74-6.783,2.238l0.247,1.117c2.33-0.516,4.676-1.416,6.947-2.287   c2.463-0.945,5.01-1.922,7.488-2.381l-0.209-1.125C54.444,58.674,51.847,59.67,49.335,60.633z"/>
</g>
</svg>