<?xml version="1.0" encoding="utf-8"?>
<!-- Generator: Adobe Illustrator 15.1.0, SVG Export Plug-In . SVG Version: 6.00 Build 0)  -->
<!DOCTYPE svg PUBLIC "-//W3C//DTD SVG 1.1//EN" "http://www.w3.org/Graphics/SVG/1.1/DTD/svg11.dtd">
<svg version="1.1" id="Layer_1" xmlns="http://www.w3.org/2000/svg" xmlns:xlink="http://www.w3.org/1999/xlink" x="0px" y="0px"
	 width="100px" height="45px" viewBox="0 0 100 45" enable-background="new 0 0 100 45" xml:space="preserve">
<path d="M100,22.5C100,10.094,89.906,0,77.5,0S55,10.094,55,22.5c0,5.521,2.002,10.581,5.314,14.5H39.686
	C42.998,33.081,45,28.021,45,22.5C45,10.094,34.906,0,22.5,0S0,10.094,0,22.5c0,12.31,9.938,22.337,22.212,22.492V45h55.576v-0.008
	C90.062,44.837,100,34.81,100,22.5z M8,22.5C8,14.505,14.505,8,22.5,8S37,14.505,37,22.5S30.495,37,22.5,37S8,30.495,8,22.5z
	 M77.5,37C69.505,37,63,30.495,63,22.5S69.505,8,77.5,8S92,14.505,92,22.5S85.495,37,77.5,37z"/>
</svg>
