<svg xmlns="http://www.w3.org/2000/svg" xmlns:xlink="http://www.w3.org/1999/xlink" version="1.1" id="Layer_1" x="0px" y="0px" width="100px" height="100px" viewBox="0 0 100 100" enable-background="new 0 0 100 100" xml:space="preserve">
<g>
	<g>
		<path d="M14.821,56.504c-0.436-5.084,5.905-20.767,5.905-20.767h6.164c0,0,12.396,0,20.24,8.125    c4.373,4.529,9.946,8.684,16.459,9.104c6.515,0.421,10.995-1.329,12.606-2.836c1.892-1.576,5.883-5.778,5.883-14.393h4.833    l-0.96,20.767"/>
	</g>
</g>
<g>
	<g>
		<path d="M85.927,58.027l-0.368,9.244h-1.189H19.443c0,0-4.402-6.672-4.623-9.244H85.927z"/>
	</g>
</g>
<g>
	<g>
		<polygon points="82.078,35.737 52.396,41.616 52.549,42.294 82.069,36.437   "/>
	</g>
</g>
<path d="M46.688,38.688c-4.604,0-8.334,3.733-8.334,8.333c0,4.603,3.729,8.336,8.334,8.336c4.602,0,8.332-3.733,8.332-8.336  C55.02,42.421,51.288,38.688,46.688,38.688z M46.686,51.732c-2.601,0-4.709-2.109-4.709-4.71s2.108-4.71,4.709-4.71  c2.602,0,4.711,2.109,4.711,4.71S49.287,51.732,46.686,51.732z"/>
</svg>