<?xml version="1.0" encoding="utf-8"?>
<!-- Generator: Adobe Illustrator 15.1.0, SVG Export Plug-In . SVG Version: 6.00 Build 0)  -->
<!DOCTYPE svg PUBLIC "-//W3C//DTD SVG 1.1//EN" "http://www.w3.org/Graphics/SVG/1.1/DTD/svg11.dtd">
<svg version="1.1" id="Layer_1" xmlns="http://www.w3.org/2000/svg" xmlns:xlink="http://www.w3.org/1999/xlink" x="0px" y="0px"
	 width="24px" height="100px" viewBox="0 0 24 100" enable-background="new 0 0 24 100" xml:space="preserve">
<path d="M23.583,95.499l-4.285-5.142C19.016,90.047,19,89.794,19,89.438V63.5c0-0.391,0.047-0.641,0.269-1.037l2.226-4.45
	c0.251-0.625,0.423-0.741,0.618-1.963l1.651-14.038C24,40,23.208,40,22.042,40C19.809,40,15.15,40,11,40v-1l-1-5V17l-1-3V1
	c0-0.553-0.447-1-1-1S7,0.447,7,1v13l-1,3v17l-1,5v1c-1.231,0-2,0-2,0c-1.657,0-3,1.343-3,3v54c0,1.657,1.343,3,3,3h20
	c0.553,0,1-0.447,1-1v-2.391C24,96.156,24,95.953,23.583,95.499z"/>
</svg>
