<svg xmlns:svg="http://www.w3.org/2000/svg" xmlns="http://www.w3.org/2000/svg" width="100" height="75.282623" version="1.1" viewBox="0 0 100 75.282623">

<path d="M 45.919566,1.518537e-4 A 2.1799332,2.1799332 0 0 0 43.818021,1.7383419 l -1.050773,0 a 2.18011,2.18011 0 1 0 0,4.36022 l 1.001671,0 0,3.45675 c -5.675949,0.5920001 -11.76117,3.1990801 -16.0071,6.3340901 l 36.894877,0.383 C 60.273071,13.043112 53.853535,10.121892 48.129135,9.5356719 l 0,-3.43711 1.001672,0 a 2.18011,2.18011 0 0 0 0,-4.36022 l -1.050773,0 A 2.1799332,2.1799332 0 0 0 45.919566,1.518537e-4 z M 99.999996,16.763412 89.472627,17.048202 c -1.093181,3.95313 -2.074206,6.7654 -4.134333,10.33096 -1.969152,3.40799 -3.104694,6.45817 -6.834934,6.41266 -1.332985,-0.0163 -2.65937,-0.28523 -3.908513,-0.78562 l -0.716867,-3.75136 c -1.781168,-4.47101 -4.407511,-8.32313 -7.620558,-11.44066 l -40.233797,0 c -1.580485,1.53471 -3.021842,3.23848 -4.281654,5.09674 -0.02131,-0.0176 -0.0375,-0.0315 -0.05892,-0.0491 -2.731915,-2.25148 -5.422048,-3.60042 -8.062472,-4.02632 -0.660107,-0.10648 -1.309677,-0.15554 -1.954241,-0.13749 -1.933692,0.0542 -3.7707398,0.65981 -5.3029654,1.71856 -4.0859327,2.82331 -6.09817802,8.30672 -6.34391823,14.90722 -0.49863276,13.39302 8.67661353,21.93474 17.33284163,22.01713 0.611068,0.006 1.20999,-0.0228 1.797116,-0.0786 2.619561,5.58599 6.65825,10.25336 11.597782,13.43418 l 30.737561,0 c 5.270158,-3.39373 9.519192,-8.47498 12.108454,-14.56351 1.29496,-0.0953 2.743935,-0.7266 4.556622,-2.25867 4.301986,-3.6362 8.797298,-10.84506 10.262205,-14.36711 1.464907,-3.52205 3.004574,-6.7159 4.183451,-10.01671 1.230256,-3.4447 2.310679,-5.72517 3.51567,-9.01504 0.505471,-1.37999 2.582253,-2.88587 3.888839,-3.71208 z m -88.225637,6.56979 c 0.349587,-0.004 0.715283,0.0248 1.109695,0.0884 1.577653,0.25448 3.566192,1.158 5.843083,3.03447 0.237327,0.19559 0.427518,0.36501 0.64814,0.54994 -2.239935,4.57744 -3.51567,9.78968 -3.51567,15.33932 0,3.61181 0.541757,7.08912 1.531968,10.34078 -5.531444,-0.0595 -13.1443218,-5.97962 -12.7271175,-17.18554 0.2123009,-5.70229 2.1205861,-9.72312 4.350396,-11.26389 0.8361779,-0.57778 1.7107415,-0.89056 2.7595055,-0.90346 z m 18.079185,48.13914 0,3.81028 32.554318,0 0,-3.81028 -32.554318,0 z"/>
</svg>