<svg xmlns="http://www.w3.org/2000/svg" xmlns:xlink="http://www.w3.org/1999/xlink" version="1.1" id="Layer_1" x="0px" y="0px" width="100px" height="100px" viewBox="0 0 100 100" enable-background="new 0 0 100 100" xml:space="preserve">
<g>
	<path d="M97.776,2.212c-2.756-2.753-8.406-1.877-12.043,1.759L64.552,25.147l-43.707-9.416c-5.398-0.986-8.678-0.526-13.707,5.498   c-4.131,4.949,2.698,7.551,9.69,10.608l28.634,12.489c-7.744,8.102-14.389,15.791-19.291,22.182   c-0.903,1.203-2.337,1.473-3.482,1.195L8.443,64.64c-2.83-0.516-4.549-0.275-7.186,2.881c-2.167,2.596,1.414,3.959,5.08,5.562   l12.093,5.102c-1.002,2.037-1.439,3.586-1.227,4.539c0.005,0.025,0.01,0.037,0.024,0.053c0.017,0.016,0.03,0.02,0.052,0.025   c0.953,0.211,2.504-0.225,4.542-1.227l5.1,12.094c1.604,3.664,2.968,7.246,5.562,5.08c3.158-2.637,3.399-4.355,2.883-7.186   l-3.066-14.246c-0.278-1.145-0.008-2.578,1.196-3.484c6.39-4.9,14.079-11.547,22.179-19.289l12.49,28.633   c3.059,6.992,5.66,13.822,10.609,9.691c6.023-5.029,6.484-8.309,5.5-13.707l-9.418-43.708l21.176-21.182   C99.671,10.637,100.528,4.967,97.776,2.212L97.776,2.212z"/>
</g>
</svg>