<svg xmlns="http://www.w3.org/2000/svg" xmlns:xlink="http://www.w3.org/1999/xlink" version="1.1" id="&#1057;&#1083;&#1086;&#1081;_1" x="0px" y="0px" width="100px" height="100px" viewBox="0 0 100 100" enable-background="new 0 0 100 100" xml:space="preserve">
<polygon points="7.69,49.912 8.415,49.273 8.415,48.891 8.82,48.527 8.948,48.187 9.352,48.102 10.184,47.184 10.738,47.184   11.207,46.78 11.761,46.866 12.421,47.696 12.592,46.907 12.592,46.033 15.832,45.821 16.216,44.223 16.685,44.136 17.367,43.349   17.75,42.56 18.603,42.154 19.711,40.685 20.691,40.344 20.691,40.088 20.478,39.618 21.245,38.809 22.162,38.66 22.695,38.787   23.888,39.874 23.292,39.939 24.017,41.025 24.166,42.603 24.72,44.479 23.398,45.799 22.439,45.65 20.947,43.221 20.925,42.197   20.372,42.815 20.563,43.966 19.646,44.734 19.263,45.821 19.668,46.566 19.114,47.1 20.094,47.184 19.988,46.227 20.394,45.757   20.883,46.715 21.651,47.505 21.948,46.801 22.695,46.354 24.017,46.332 24.783,47.163 25.231,46.822 25.295,45.905 26.361,45.245   26.211,44.136 27.277,45.203 27.171,46.417 26.445,46.205 26.062,47.206 26.765,47.525 27.362,46.972 27.789,47.249 28.151,46.993   29.622,47.057 29.92,47.377 30.261,46.95 31.156,47.015 31.199,47.462 30.303,47.738 30.708,48.229 31.391,47.889 32.115,48.271   33.117,48.08 33.287,48.72 32.925,49.061 33.373,49.359 33.586,48.847 34.182,48.677 34.14,47.505 33.756,46.715 33.82,46.099   34.502,46.588 34.481,47.547 35.12,47.59 36.186,48.507 36.208,49.252 37.252,50.702 37.934,50.275 37.252,48.911 37.124,48.251   37.785,48.207 37.678,46.609 38.488,46.417 39.788,44.775 40.171,45.159 40.854,45.118 41.194,45.799 40.321,46.673 40.342,48.187   39.639,50.148 40.129,51.427 38.104,53.281 37.23,52.833 37.252,53.366 38.211,54.068 39.383,53.451 40.619,52.108 40.47,51.17   41.131,50.957 41.621,51.938 41.429,52.491 42.132,53.322 42.687,53.089 41.898,52.385 42.239,51.384 41.685,50.467 40.513,50.403   40.47,49.679 41.194,48.271 41.045,47.1 41.599,46.503 41.834,45.48 42.047,46.78 41.919,47.738 42.665,48.08 42.708,47.675   42.303,46.93 42.943,47.184 42.878,46.12 43.731,45.757 43.794,46.312 44.2,47.015 45.01,47.738 44.797,48.698 45.095,49.166   44.669,49.7 45.266,49.55 45.308,47.505 44.477,46.312 44.157,44.904 46.736,44.904 46.629,43.455 48.079,42.091 49.443,41.878   49.742,41.324 50.445,41.324 50.466,41.814 51.467,40.94 51.447,40.514 52.427,40.557 51.959,39.554 52.406,38.638 53.727,38.744   53.279,39.384 53.939,39.341 53.939,40.173 54.793,39.704 56.391,39.939 56.625,40.77 56.988,41.516 54.665,45.224 56.711,43.945   56.263,43.626 56.797,43.05 57.072,43.689 57.457,43.157 57.926,43.626 59.566,42.688 59.779,43.284 61.635,42.986 61.271,42.22   61.314,41.302 62.104,41.473 62.764,41.238 63.744,41.324 63.254,42.539 66.174,43.753 66.024,42.348 66.962,42.154 67.324,41.431   68.753,40.514 67.623,39.661 68.006,38.851 69.414,37.85 69.967,38.105 70.202,37.358 71.438,36.656 71.48,37.296 72.227,37.317   72.439,36.912 74.018,36.869 73.932,35.718 75.339,34.418 76.404,35.058 77.043,34.888 77.789,34.908 77.534,33.565 78.492,32.563   78.791,31.86 79.708,31.817 80.305,31.008 79.303,30.752 78.791,30.135 79.899,28.855 79.836,27.789 84.184,24.656 85.761,24.614   85.847,24.103 85.1,24.103 86.55,22.313 87.529,23.292 87.21,23.783 87.935,23.847 87.955,24.167 89.043,24.188 87.977,25.381   87.764,25.935 86.933,25.956 86.613,27.214 85.505,27.129 85.484,27.704 86.55,27.938 87.039,28.686 86.379,30.113 86.72,30.538   87.679,29.39 88.574,29.729 89.342,29.218 90.173,29.239 90.236,29.985 89.768,30.581 89.831,32.628 90.854,35.505 91.324,36.229   90.066,36.613 89.746,37.829 90.066,38.616 89.512,38.787 89.959,39.576 89.447,40.193 91.025,42.41 91.558,41.899 92.326,42.688   93.029,42.56 93.391,43.113 92.965,43.263 93.477,44.308 94.883,44.969 94.308,45.757 94.818,46.759 95.607,47.313 95.309,48.207   96.119,49.273 96.652,51.17 96.098,51.212 95.074,50.488 91.324,48.783 89.363,46.099 89.447,44.308 88.468,41.687 88.275,39.725   86.762,38.596 86.592,37.765 85.953,38.083 85.995,38.872 86.891,39.704 87.273,41.622 86.527,41.58 85.803,40.62 85.824,41.28   84.865,42.176 85.889,45.501 86.784,45.714 86.55,46.332 86.038,46.503 86.038,46.866 86.293,47.228 85.334,48.102 85.398,47.163   84.546,47.653 83.778,48.612 84.184,49.061 83.566,49.252 82.883,50.063 82.798,50.552 82.35,50.552 81.093,52.15 81.072,54.196   81.412,54.857 81.093,57.927 80.624,59.909 81.604,59.994 82.095,59.567 82.308,60.442 82.861,60.228 82.586,59.632 83.523,59.994   83.501,59.248 83.16,58.886 84.162,58.225 85.867,58.801 87.125,60.293 87.061,61.018 89.576,64.342 89.427,66.047 89.725,67.07   89.959,68.52 89.831,69.841 89.768,73.251 88.297,74.68 87.424,74.316 87.381,75.318 86.762,75.681 86.762,74.466 85.739,73.017   85.824,72.143 86.678,71.973 86.635,70.245 85.889,68.583 86.166,68.264 85.568,67.476 84.546,68.264 84.503,68.988 83.331,69.776   82.095,68.774 79.432,69.201 75.531,66.09 74.656,66.239 72.845,67.092 71.864,68.52 72.248,68.839 72.461,68.583 72.887,69.201   72.632,69.649 72.865,72.057 72.035,73.23 69.903,73.485 69.008,73.23 66.728,75.511 63.894,76.021 63.659,75.553 61.123,75.36   59.887,75.937 58.842,75.851 58.182,74.571 56.817,74.594 55.475,73.763 55.496,74.466 54.984,75.488 55.475,76.405 54.451,77.236   52.277,77.236 51.744,76.469 50.999,76.683 50.359,76.256 47.951,77.236 47.652,78.046 46.608,78.004 45.99,78.388 45.521,78.046   45.308,77.577 44.797,77.919 44.094,77.449 44.114,76.938 43.646,76.874 42.921,75.766 41.237,75.873 40.875,75.19 40.534,75.02   40.278,75.318 39.788,75.382 38.616,71.78 37.656,70.885 38.274,70.608 37.23,70.396 35.866,71.099 35.568,70.992 35.312,70.564   35.781,70.396 34.459,69.606 33.479,69.563 33.97,68.903 33.884,68.094 32.329,67.518 31.263,67.965 29.558,67.73 29.025,68.221   28.641,67.625 26.894,67.688 26.083,67.219 25.849,68.029 26.169,68.883 25.018,68.712 25.06,69.18 24.123,69.243 25.018,70.564   24.463,71.438 23.611,70.672 22.908,70.864 22.46,69.649 21.629,69.67 21.31,69.308 19.86,69.286 20.052,68.86 19.2,68.009   19.007,67.197 18.433,67.176 18.453,66.602 17.75,66.602 17.387,65.983 16.748,66.26 16.066,66.133 14.724,66.558 14.532,67.135   14.084,67.07 13.807,65.983 12.464,66.643 12.379,67.347 11.654,67.496 12.124,68.284 11.91,68.883 12.549,69.373 12.187,70.631   11.74,70.608 11.804,71.184 11.186,71.418 10.376,71.099 9.012,71.801 8.863,72.782 9.204,72.974 8.415,74.103 8.073,76.405   6.88,76.277 6.902,75.127 6.283,73.997 6.667,73.656 4.983,72.228 5.346,71.908 3.065,69.052 2.661,69.116 2.276,66.751   2.127,65.515 2.233,65.109 2.916,65.472 3.065,65.258 4.067,65.279 3.769,64.448 5.239,64.555 4.877,64.128 5.175,63.938   6.049,64.043 6.561,64.385 7.456,63.66 7.285,63.233 8.287,62.807 7.69,61.55 7.2,61.422 7.029,60.399 6.518,60.121 6.134,59.354   6.476,58.374 5.964,57.628 7.008,57.116 6.838,56.542 6.454,55.859 5.836,55.881 5.517,55.306 6.283,54.451 7.477,54.814   7.179,54.091 7.52,53.728 7.563,52.47 8.073,52.449 8.67,51.916 8.415,51.149 7.989,51.042 8.202,50.617 "/>
<polygon points="3.515,48.032 3.711,47.754 4.051,47.857 4.195,47.579 3.845,47.27 3.875,46.372 3.608,46.516 3.092,45.896   2.741,45.825 2.339,46.248 "/>
<polygon points="28.684,45.948 28.74,45.295 29.11,45.152 29.593,45.664 29.337,46.147 "/>
<polygon points="32.122,43.846 31.952,44.158 32.236,44.471 32.378,44.102 "/>
<polygon points="32.35,44.981 32.605,43.931 32.151,43.562 32.208,42.595 32.833,42.709 33.145,42.026 33.828,41.714 34.595,42.141   34.765,41.998 34.368,41.374 34.51,40.891 35.078,40.891 35.93,40.151 35.987,39.839 36.641,39.469 37.493,39.64 38.09,39.156   39.482,39.355 40.648,38.93 41.329,39.015 41.017,39.924 36.925,40.946 33.686,43.646 33.572,45.551 33.089,45.637 "/>
<polygon points="40.136,44.13 40.136,44.642 40.818,44.612 40.733,44.13 "/>
<polygon points="48.122,33.729 48.491,34.042 48.747,33.473 "/>
<polygon points="48.633,35.405 48.349,35.832 48.832,35.974 49.116,35.661 "/>
<polygon points="48.889,35.207 49.229,35.462 50.195,34.979 50.195,33.985 49.684,33.473 48.889,33.928 "/>
<polygon points="49.457,36.344 49.571,35.86 50.281,35.405 50.338,35.775 50.877,35.519 50.821,37.367 "/>
<polygon points="51.389,36.571 51.389,38.361 53.01,37.338 52.441,36.513 51.901,36.741 52.043,36.201 "/>
<polygon points="57.188,42.197 57.357,42.623 57.072,42.879 56.675,42.851 56.619,42.482 "/>
<polygon points="64.092,41.971 64.063,42.396 64.519,42.595 64.575,42.056 "/>
<polygon points="67.219,37.367 67.189,38.418 68.298,37.792 68.07,37.367 "/>
<polygon points="66.338,37.225 66.309,37.792 66.764,38.021 66.82,37.424 "/>
<polygon points="63.693,36.685 64.148,37.31 63.809,37.479 63.523,36.969 "/>
<polygon points="64.092,36.315 64.092,36.741 64.944,37.508 65.57,37.479 66.621,36.03 66.678,34.865 65.172,34.95 64.944,35.293   64.973,35.917 64.547,35.804 "/>
<polygon points="66.82,34.41 67.047,34.837 67.985,34.95 68.639,34.127 68.213,33.814 67.502,34.298 "/>
<polygon points="78.557,31.257 78.557,31.598 78.982,31.684 79.068,31.199 "/>
<polygon points="79.012,24.55 79.381,25.063 79.211,25.772 79.098,26.767 78.33,25.374 "/>
<polygon points="89.838,23.072 89.754,24.067 90.407,24.322 90.407,23.47 90.833,23.186 90.805,22.162 "/>
<polygon points="90.351,40.634 90.635,40.038 90.918,40.265 91.031,41.571 "/>
<polygon points="95.494,41.855 96.147,41.487 96.488,41.886 95.777,42.141 "/>
<polygon points="96.232,51.547 96.603,52.115 96.972,51.746 "/>
<polygon points="96.232,52.058 96.232,52.457 95.892,52.172 "/>
<polygon points="96.715,52.399 97.086,53.252 97.113,52.115 "/>
<polygon points="96.914,53.621 97.199,54.189 97.512,53.706 "/>
<polygon points="97.426,54.332 97.397,54.588 97.682,54.616 "/>
<polygon points="97.426,54.929 97.455,55.156 97.824,54.929 "/>
<polygon points="98.193,57.571 98.08,58.225 98.449,58.282 "/>
<polygon points="97.966,59.902 97.938,60.812 98.25,60.982 98.421,60.413 98.137,59.788 "/>
<polygon points="97.909,61.493 98.023,62.289 97.795,62.573 97.881,63.568 97.625,63.881 97.512,63.254 97.113,62.431 97.086,62.09   97.455,61.92 97.682,62.09 "/>
<polygon points="96.972,64.221 97.086,65.102 97.284,65.216 97.512,64.875 97.369,64.078 "/>
<polygon points="85.916,56.776 86.542,57.429 86.883,57.372 88.645,59.163 89.271,59.39 91.686,61.151 91.089,61.181 90.776,61.663   91.544,63.283 92.254,63.597 92.737,63.653 93.249,63.795 93.816,64.277 93.561,64.647 93.221,64.393 92.822,64.448 92.623,64.704   93.107,65.642 92.283,65.244 91.089,64.108 91.089,63.568 90.123,62.801 89.497,61.691 88.93,61.493 88.588,60.812 87.793,59.902   87.338,59.873 86.088,58.596 86.002,57.94 86.314,57.94 86.173,57.543 85.633,57.145 "/>
</svg>