<svg xmlns="http://www.w3.org/2000/svg" xmlns:xlink="http://www.w3.org/1999/xlink" version="1.1" id="Layer_1" x="0px" y="0px" width="100px" height="100px" viewBox="0 0 100 100" enable-background="new 0 0 100 100" xml:space="preserve">
<rect x="35.112" y="14.425" fill="#000000" width="26.349" height="49.589"/>
<rect x="47.48" y="57.116" fill="#000000" width="1.989" height="25.852"/>
<rect x="47.186" y="79.923" fill="#000000" width="2.578" height="0.634"/>
<g>
	<path fill="#000000" d="M58.686,83.371c0-0.147,0-0.287,0-0.403c-10.399-3.637-10.399-3.637-20.798,0c0,0.097,0,0.24,0,0.403   H58.686z"/>
</g>
<path fill="#000000" d="M54.094,63.028c0,0,0,6.532,0,8.369c-0.142,0.142-0.801,0-0.801,0v-8.369H54.094z"/>
<path fill="#000000" d="M54.094,63.028c0,0,0,6.78,0,8.369c-0.34,0.211-0.801,0-0.801,0"/>
<rect x="37.885" y="83.702" fill="#000000" width="20.8" height="1.873"/>
</svg>