<svg xmlns:dc="http://purl.org/dc/elements/1.1/" xmlns:cc="http://creativecommons.org/ns#" xmlns:rdf="http://www.w3.org/1999/02/22-rdf-syntax-ns#" xmlns:svg="http://www.w3.org/2000/svg" xmlns="http://www.w3.org/2000/svg" version="1.1" width="100" height="100" viewBox="0 0 100 100" id="Layer_1" xml:space="preserve"><metadata id="metadata11"><rdf:RDF><cc:Work rdf:about=""><dc:format>image/svg+xml</dc:format><dc:type rdf:resource="http://purl.org/dc/dcmitype/StillImage"/><dc:title/></cc:Work></rdf:RDF></metadata><defs id="defs9"/>
<g id="g3">
	<path d="m 15.001585,85.014415 c -19.3329996,-19.336 -19.3379996,-50.682 -0.004,-70.015 19.33,-19.3320004 50.678,-19.3320004 70.008,0.002 11.502,11.499 16.156005,27.255 13.971,42.2 l -15.007,0 0,14.294 -14.092,0 0,14.175 -14.028,0 0,13.484 c -14.539,1.719995 -29.694,-2.984 -40.848,-14.14 z m 55.944,-22.909 0,-34.673 -34.704,0 -11.446,11.433 26.4,0 -25.942,25.911 8.402,8.393 25.842,-25.819 0.004,26.232 11.444,-11.477 z" id="path5"/>
</g>
</svg>