<svg xmlns="http://www.w3.org/2000/svg" xmlns:xlink="http://www.w3.org/1999/xlink" version="1.1" id="Layer_1" x="0px" y="0px" width="99.997px" height="93.15px" viewBox="0 0 99.997 93.15" enable-background="new 0 0 99.997 93.15" xml:space="preserve">
<circle fill="#000000" cx="49.999" cy="8.439" r="7.439"/>
<g>
	<path fill="#000000" d="M76.24,21.473c-1.396,1.669-4.095,1.769-4.095,1.769l-11.67-0.019l-0.037,4.395l0.01,60.322   c0,2.298-1.869,4.167-4.168,4.167c-2.306,0-4.176-1.869-4.176-4.167V52.957l-4.212,0.064v34.983c0,2.308-1.869,4.167-4.176,4.167   c-2.298,0-4.167-1.859-4.167-4.167l0.009-60.322l-0.037-4.395l-11.67,0.018c0,0-2.708-0.101-4.093-1.769   c-1.386-1.678-0.967-4.24-0.967-4.24l1.732-9.765c0.693-4.386,6.482-3.483,5.799,0.903l-1.75,8.99h1.477   c0.392-1.76,1.969-3.063,3.838-3.063c1.878,0,3.456,1.303,3.847,3.063h2.654l19.22-0.064h2.653c0.392-1.76,1.97-3.064,3.838-3.064   c1.878,0,3.456,1.304,3.856,3.064h1.469l-1.751-8.99c-0.684-4.385,5.105-5.288,5.799-0.902l1.732,9.765   C77.206,17.234,77.625,19.796,76.24,21.473z"/>
</g>
</svg>