<svg xmlns="http://www.w3.org/2000/svg" xmlns:xlink="http://www.w3.org/1999/xlink" version="1.1" id="Layer_1" x="0px" y="0px" width="99.997px" height="93.15px" viewBox="0 0 99.997 93.15" enable-background="new 0 0 99.997 93.15" xml:space="preserve">
<path fill="none" d="M69.07,75.594l-34.449,0.052c0,0-7.992-0.296-12.083-5.221c-4.092-4.953-2.854-12.516-2.854-12.516  l5.113-28.826c2.046-12.947,19.136-10.281,17.118,2.665l-5.167,26.539h4.36c1.156-5.196,5.811-9.044,11.33-9.044  c5.545,0,10.201,3.848,11.357,9.044h7.834l28.367-0.096v-4.475c-12.131,0-21.962-9.831-21.962-21.958  c0-12.128,9.831-21.96,21.962-21.96V-3.509H7.537v96.92h61.641l0.001-4.847L69.07,75.594z"/>
<path fill="#000000" d="M78.035,31.76c0,12.126,9.831,21.958,21.962,21.958V9.8C87.866,9.8,78.035,19.632,78.035,31.76z"/>
<path fill="#000000" d="M99.997,58.192l-28.367,0.096h-7.834c-1.156-5.196-5.813-9.044-11.357-9.044  c-5.519,0-10.174,3.848-11.33,9.044h-4.36l5.167-26.539c2.018-12.946-15.072-15.612-17.118-2.665L19.684,57.91  c0,0-1.239,7.563,2.854,12.516c4.091,4.925,12.083,5.221,12.083,5.221l34.449-0.052l0.109,12.971l-0.001,4.847h30.818V58.192z"/>
</svg>