<svg xmlns="http://www.w3.org/2000/svg" xmlns:xlink="http://www.w3.org/1999/xlink" version="1.1" id="Layer_1" x="0px" y="0px" width="100px" height="100px" viewBox="0 0 100 100" enable-background="new 0 0 100 100" xml:space="preserve">
<path fill="#000000" d="M16.376,46.009c0-5.367,4.351-9.718,9.717-9.718c5.367,0,9.717,4.351,9.717,9.718s-4.351,9.717-9.717,9.717  C20.727,55.727,16.376,51.376,16.376,46.009L16.376,46.009z"/>
<path fill="#000000" d="M13.888,27.523c0-4.546,3.684-8.23,8.229-8.23c4.545,0,8.23,3.684,8.23,8.23c0,4.545-3.685,8.231-8.23,8.231  C17.572,35.754,13.888,32.069,13.888,27.523L13.888,27.523z"/>
<path fill="#000000" d="M24.77,12.969c0-5.195,4.211-9.406,9.407-9.406c5.194,0,9.406,4.211,9.406,9.406s-4.212,9.407-9.406,9.407  C28.98,22.376,24.77,18.164,24.77,12.969L24.77,12.969z"/>
<path fill="#000000" d="M85.627,30.042c0-4.266-3.459-7.724-7.725-7.724c-2.41,0-4.559,1.103-5.979,2.83  c0.199-0.77,0.303-1.578,0.303-2.41c0-5.367-4.35-9.717-9.717-9.717c-5.365,0-9.717,4.35-9.717,9.717  c0,5.367,4.352,9.718,9.717,9.718c3.209,0,6.051-1.555,7.822-3.952c-0.102,0.498-0.154,1.012-0.154,1.539  c0,1.36,0.354,2.638,0.971,3.747c-0.955-0.246-1.955-0.375-2.986-0.375c-6.604,0-11.959,5.354-11.959,11.958  c0,6.604,5.355,11.958,11.959,11.958c6.605,0,11.959-5.354,11.959-11.958c0-2.898-1.033-5.556-2.746-7.626  c0.172,0.012,0.348,0.021,0.527,0.021C82.168,37.768,85.627,34.308,85.627,30.042z"/>
<path fill="#000000" d="M70.918,13.867c0-4.102,3.324-7.426,7.424-7.426c4.104,0,7.428,3.324,7.428,7.426  c0,4.102-3.324,7.427-7.428,7.427C74.242,21.294,70.918,17.969,70.918,13.867L70.918,13.867z"/>
<path fill="#000000" d="M44.014,7.496c0-4.101,3.324-7.426,7.423-7.426c4.102,0,7.428,3.325,7.428,7.426  c0,4.103-3.326,7.426-7.428,7.426C47.338,14.922,44.014,11.598,44.014,7.496L44.014,7.496z"/>
<path fill="#000000" d="M74.562,64.084v3.805h15.912v19.024h-0.043v10.146c0,1.556-1.26,2.818-2.816,2.818h-5.129  c-1.557,0-2.818-1.263-2.818-2.818V86.913h-2.764v10.146c0,1.556-1.262,2.818-2.818,2.818h-5.127c-1.557,0-2.818-1.263-2.818-2.818  V79.079h-2.734v7.746H36.352v-7.746h-2.894v17.979c0,1.556-1.262,2.818-2.818,2.818h-5.128c-1.556,0-2.818-1.263-2.818-2.818V86.913  H19.93v10.146c0,1.556-1.261,2.818-2.818,2.818h-5.127c-1.557,0-2.817-1.263-2.817-2.818v-29.17H25.09v-3.805H9.167V12.791h2.677  L15.79,57.32h25.734c-2.312-1.651-3.822-4.354-3.822-7.414c0-3.223,1.676-6.052,4.202-7.67c-5.287-0.85-9.327-5.431-9.327-10.959  c0-6.132,4.971-11.101,11.103-11.101c6.131,0,11.101,4.969,11.101,11.101c0,4.228-2.363,7.903-5.841,9.778  c4,0.96,6.972,4.558,6.972,8.852c0,3.06-1.51,5.763-3.822,7.414H83.43l3.943-44.529h3.102v51.293H74.562z M39.467,81.558  c0,1.244,1.01,2.255,2.254,2.255c1.246,0,2.255-1.011,2.255-2.255c0-1.246-1.01-2.255-2.255-2.255  C40.477,79.303,39.467,80.312,39.467,81.558L39.467,81.558z M46.062,81.558c0,1.244,1.01,2.255,2.255,2.255s2.255-1.011,2.255-2.255  c0-1.246-1.01-2.255-2.255-2.255S46.062,80.312,46.062,81.558L46.062,81.558z M55.865,81.558c0,1.244,1.008,2.255,2.254,2.255  c1.244,0,2.254-1.011,2.254-2.255c0-1.246-1.01-2.255-2.254-2.255C56.873,79.303,55.865,80.312,55.865,81.558L55.865,81.558z"/>
</svg>