<svg xmlns="http://www.w3.org/2000/svg" xmlns:xlink="http://www.w3.org/1999/xlink" version="1.1" id="Layer_1" x="0px" y="0px" width="100px" height="100px" viewBox="0 0 100 100" enable-background="new 0 0 100 100" xml:space="preserve">
<path fill="#000000" d="M88.353,38.839h-3.256v-6.47h-2.401C82.282,14.506,68.003,0.102,50.497,0.102  c-17.505,0-31.785,14.404-32.198,32.268h-2.525v6.47h-3.271v5.427h5.97L27.062,100h47.176l8.488-55.733h5.626V38.839z   M26.055,38.827c0,0-4.509,0.013-4.509,0.012c-0.347-1.841-0.553-3.732-0.553-5.677c0-16.733,13.236-30.347,29.504-30.347  c16.269,0,29.504,13.614,29.504,30.347c0,1.945-0.207,3.836-0.556,5.677l-33.2,0.003c-0.026,2.499-0.337,12.676-3.242,12.676  c-2.905,0-3.251-12.679-3.251-12.679l-2.464,0c0,0-0.174,8.851-2.962,8.851c-0.933,0-1.511-0.758-1.872-1.826  c-0.23,6.568-0.913,13.933-2.825,13.933C26.941,59.798,26.055,38.827,26.055,38.827z"/>
</svg>