<svg xmlns="http://www.w3.org/2000/svg" xmlns:xlink="http://www.w3.org/1999/xlink" version="1.1" id="Layer_1" x="0px" y="0px" width="100px" height="77.2727272727px" viewBox="0 0 792 612" enable-background="new 0 0 792 612" xml:space="preserve">
<path fill="#000000" d="M467.288,248.481c-0.153-0.633-0.216-1.181-0.275-1.712c-0.247-2.188-0.664-3.778-4.078-5.864  c-3.447-2.105-5.061-1.745-7.127-0.956c-0.499,0.19-1.015,0.387-1.648,0.54c-3.311,0.807-23.016,9.564-25.992,11.126  c-3.848,2.027-15.201,13.746-19.729,27.258c-2.611,7.775-3.762,20.286-4.777,31.323c-0.692,7.526-1.346,14.635-2.293,17.067  c-0.57,1.46-1.161,3.075-1.784,4.778c-1.179,3.224-2.455,6.692-3.914,10.024c-1.452-3.323-2.724-6.783-3.899-9.997  c-0.626-1.714-1.22-3.337-1.794-4.808c-0.957-2.442-1.614-9.586-2.311-17.148c-1.013-11.008-2.162-23.484-4.759-31.24  c-4.534-13.519-15.879-25.235-19.726-27.261c-2.991-1.566-22.722-10.329-26.004-11.125c-0.635-0.153-1.152-0.351-1.652-0.542  c-2.063-0.786-3.671-1.146-7.087,0.956c-3.433,2.083-3.853,3.673-4.102,5.86c-0.061,0.531-0.123,1.08-0.278,1.711  c-0.806,3.258-2.067,24.678-2.06,28.2c0.028,4.346,5.211,19.814,15.138,30.059c5.715,5.884,16.381,12.6,25.792,18.525  c6.422,4.044,12.488,7.863,14.21,9.818c1.064,1.215,2.264,2.522,3.531,3.903c3.423,3.729,7.238,7.888,10.165,12.166l-10.164,16.706  l2.794,1.701l9.326-15.331c0.311,0.508,0.633,1.036,0.967,1.583c-4.034,6.617-8.881,14.6-8.881,14.6l2.796,1.697  c0,0,4.176-6.877,8.001-13.155c3.826,6.277,8.008,13.156,8.008,13.156l2.795-1.699c0,0-4.854-7.983-8.888-14.599  c0.332-0.544,0.653-1.07,0.963-1.576l9.342,15.325l2.793-1.703l-10.181-16.7c2.921-4.274,6.737-8.436,10.162-12.163  c1.271-1.384,2.475-2.693,3.538-3.908c1.723-1.96,7.793-5.784,14.221-9.832c9.401-5.923,20.058-12.635,25.771-18.516  c9.948-10.255,15.123-25.719,15.142-30.06C469.356,273.287,468.085,251.733,467.288,248.481z M383.631,302.281l-1.768-1.035  c-0.27-0.152-0.48-0.504-0.488-0.809l-0.105-1.844c-0.016-0.297,0.176-0.422,0.453-0.258l1.585,0.925  C383.419,300.269,383.528,301.277,383.631,302.281z M383.095,297.405l-1.482-0.862c-0.238-0.148-0.469-0.512-0.484-0.809  l-0.098-1.84c-0.016-0.289,0.188-0.422,0.426-0.266l1.26,0.737C382.85,295.369,382.975,296.385,383.095,297.405z M382.457,292.474  l-1.074-0.626c-0.266-0.156-0.469-0.516-0.496-0.82l-0.094-1.832c-0.016-0.301,0.172-0.414,0.434-0.273l0.749,0.434  C382.144,290.373,382.305,291.412,382.457,292.474z M380.982,284.228c0.233,1.023,0.451,2.099,0.657,3.214l-0.511-0.297  c-0.242-0.145-0.465-0.512-0.48-0.801l-0.094-1.859C380.551,284.198,380.732,284.07,380.982,284.228z M380.062,304.238  c0.02,0.289-0.168,0.406-0.422,0.258l-1.602-0.926c-0.262-0.145-0.488-0.504-0.5-0.812l-0.086-1.824  c-0.016-0.305,0.188-0.426,0.441-0.273l1.59,0.938c0.258,0.148,0.484,0.496,0.496,0.809L380.062,304.238z M379.828,299.539  c0.023,0.301-0.176,0.418-0.438,0.266l-1.586-0.93c-0.27-0.145-0.48-0.508-0.492-0.812l-0.098-1.836  c-0.008-0.289,0.172-0.41,0.441-0.266l1.59,0.922c0.254,0.156,0.477,0.523,0.496,0.82L379.828,299.539z M379.59,294.844  c0.012,0.289-0.18,0.406-0.445,0.266l-1.578-0.941c-0.266-0.137-0.496-0.504-0.496-0.809l-0.098-1.828  c-0.016-0.297,0.191-0.418,0.43-0.266l1.605,0.93c0.254,0.145,0.469,0.512,0.492,0.805L379.59,294.844z M379.359,290.137  c0,0.297-0.176,0.414-0.453,0.27l-1.582-0.926c-0.254-0.145-0.473-0.512-0.496-0.82l-0.109-1.836c0-0.297,0.188-0.41,0.445-0.273  l1.605,0.938c0.254,0.148,0.465,0.516,0.477,0.812L379.359,290.137z M379.117,285.441c0.02,0.301-0.188,0.414-0.438,0.266  l-1.609-0.941c-0.25-0.145-0.465-0.504-0.48-0.793l-0.105-1.844c0-0.301,0.191-0.418,0.449-0.273l1.586,0.938  c0.273,0.141,0.488,0.496,0.496,0.801L379.117,285.441z M378.777,278.902l0.086,1.848c0.023,0.289-0.168,0.406-0.426,0.266  l-1.598-0.93c-0.25-0.152-0.477-0.52-0.496-0.809l-0.094-1.863c-0.008-0.281,0.188-0.41,0.445-0.254l1.59,0.93  C378.547,278.242,378.77,278.602,378.777,278.902z M376.453,272.461l0.079,0.046c0.678,1.254,1.306,2.542,1.881,3.857  c-0.065,0.003-0.137-0.009-0.222-0.06l-1.602-0.93c-0.254-0.145-0.469-0.512-0.492-0.805l-0.078-1.836  C375.992,272.43,376.191,272.316,376.453,272.461z M376.242,306.574c0.008,0.293-0.191,0.406-0.438,0.258l-1.578-0.914  c-0.258-0.152-0.48-0.52-0.504-0.82l-0.094-1.844c-0.012-0.297,0.18-0.41,0.449-0.273l1.582,0.93c0.262,0.156,0.48,0.52,0.488,0.809  L376.242,306.574z M376.02,301.863c0.004,0.297-0.191,0.41-0.438,0.273l-1.605-0.934c-0.266-0.152-0.484-0.512-0.492-0.801  l-0.09-1.844c-0.016-0.301,0.176-0.41,0.43-0.266l1.594,0.93c0.258,0.145,0.48,0.504,0.492,0.805L376.02,301.863z M375.773,297.176  c0.008,0.289-0.191,0.41-0.438,0.254l-1.602-0.914c-0.258-0.16-0.465-0.52-0.492-0.824l-0.086-1.828  c-0.023-0.301,0.164-0.422,0.438-0.266l1.574,0.926c0.27,0.141,0.492,0.508,0.492,0.805L375.773,297.176z M375.516,292.469  c0.016,0.301-0.176,0.418-0.426,0.266l-1.598-0.934c-0.25-0.133-0.48-0.508-0.492-0.809l-0.09-1.836  c-0.008-0.281,0.191-0.41,0.434-0.262l1.59,0.934c0.266,0.145,0.484,0.512,0.504,0.805L375.516,292.469z M375.289,287.773  c0.012,0.289-0.188,0.41-0.441,0.266l-1.578-0.938c-0.281-0.148-0.504-0.508-0.508-0.812l-0.098-1.836  c-0.02-0.293,0.188-0.41,0.438-0.27l1.594,0.934c0.266,0.145,0.48,0.512,0.496,0.805L375.289,287.773z M375.039,283.059  c0.012,0.316-0.18,0.426-0.445,0.273l-1.582-0.93c-0.25-0.152-0.477-0.512-0.492-0.809l-0.094-1.84  c-0.004-0.297,0.191-0.418,0.434-0.273l1.598,0.941c0.25,0.152,0.492,0.504,0.492,0.793L375.039,283.059z M374.816,278.371  c0,0.301-0.188,0.418-0.449,0.273l-1.586-0.938c-0.262-0.148-0.484-0.504-0.492-0.809l-0.094-1.848  c-0.016-0.289,0.172-0.418,0.434-0.273l1.59,0.945c0.254,0.148,0.465,0.504,0.477,0.805L374.816,278.371z M369.992,300.602  l1.613,0.945c0.246,0.137,0.473,0.516,0.484,0.801l0.105,1.859c0,0.285-0.207,0.414-0.445,0.262l-1.605-0.941  c-0.254-0.145-0.469-0.504-0.477-0.793l-0.113-1.855C369.551,300.582,369.746,300.461,369.992,300.602z M369.418,298.02  l-0.094-1.828c-0.016-0.297,0.176-0.426,0.438-0.273l1.594,0.934c0.262,0.145,0.484,0.504,0.496,0.809l0.094,1.836  c0,0.293-0.18,0.41-0.449,0.262l-1.582-0.934C369.648,298.676,369.426,298.309,369.418,298.02z M370.238,305.305l1.602,0.93  c0.25,0.164,0.465,0.52,0.48,0.82l0.102,1.836c0.004,0.309-0.176,0.418-0.441,0.266l-1.598-0.934  c-0.25-0.145-0.469-0.504-0.492-0.801l-0.086-1.844C369.789,305.281,369.98,305.168,370.238,305.305z M374.566,273.668  c0.02,0.305-0.188,0.426-0.434,0.273l-1.598-0.938c-0.246-0.145-0.469-0.508-0.48-0.797l-0.109-1.844  c-0.012-0.293,0.184-0.41,0.438-0.273l1.594,0.938c0.266,0.145,0.48,0.504,0.496,0.805L374.566,273.668z M371.99,265.342  c0.784,1.076,1.563,2.198,2.317,3.376l0.013,0.25c0.02,0.301-0.164,0.414-0.438,0.273l-1.586-0.938  c-0.258-0.137-0.484-0.512-0.508-0.805l-0.078-1.84C371.702,265.43,371.818,265.316,371.99,265.342z M371.699,294.793  c0.012,0.297-0.188,0.418-0.438,0.273l-1.594-0.934c-0.262-0.152-0.484-0.516-0.496-0.809l-0.086-1.836  c-0.008-0.301,0.172-0.422,0.426-0.273l1.598,0.941c0.266,0.141,0.469,0.508,0.496,0.805L371.699,294.793z M371.461,290.094  c0.012,0.301-0.18,0.414-0.43,0.266l-1.613-0.945c-0.246-0.137-0.477-0.492-0.484-0.781l-0.09-1.848  c-0.016-0.297,0.191-0.418,0.43-0.273l1.605,0.945c0.25,0.137,0.477,0.504,0.496,0.809L371.461,290.094z M371.219,285.395  c0.012,0.293-0.18,0.418-0.441,0.27l-1.594-0.926c-0.25-0.152-0.473-0.508-0.492-0.809l-0.102-1.852  c-0.012-0.293,0.188-0.41,0.453-0.262l1.578,0.926c0.266,0.156,0.488,0.523,0.508,0.82L371.219,285.395z M370.98,280.703  c0.027,0.297-0.164,0.41-0.43,0.266l-1.609-0.941c-0.25-0.137-0.48-0.504-0.48-0.801l-0.102-1.855  c-0.023-0.297,0.188-0.41,0.445-0.262l1.598,0.938c0.246,0.145,0.465,0.512,0.484,0.801L370.98,280.703z M360.914,277.074l1.57,0.93  c0.277,0.152,0.512,0.512,0.512,0.805l0.102,1.844c0.02,0.297-0.188,0.418-0.441,0.273l-1.59-0.941  c-0.015-0.007-0.026-0.021-0.041-0.03c-0.11-0.912-0.285-1.849-0.525-2.806C360.562,277.004,360.718,276.965,360.914,277.074z   M360.324,274.484l-0.094-1.852c-0.008-0.297,0.188-0.41,0.445-0.273l1.594,0.945c0.25,0.141,0.48,0.504,0.492,0.797l0.09,1.848  c0.008,0.293-0.18,0.418-0.43,0.27l-1.605-0.93C360.57,275.137,360.332,274.777,360.324,274.484z M363.246,283.52l0.086,1.828  c0.012,0.316-0.172,0.418-0.445,0.273l-1.586-0.949c-0.126-0.067-0.244-0.189-0.335-0.331c0.14-0.794,0.206-1.648,0.19-2.565  l1.594,0.923C362.996,282.855,363.227,283.23,363.246,283.52z M361.395,286.484l1.602,0.922c0.258,0.152,0.48,0.512,0.48,0.816  l0.086,1.832c0.031,0.289-0.18,0.426-0.43,0.27l-1.598-0.93c-0.258-0.156-0.469-0.516-0.48-0.816l-0.094-1.828  C360.934,286.449,361.133,286.32,361.395,286.484z M361.629,291.172l1.598,0.941c0.262,0.145,0.484,0.512,0.484,0.809l0.117,1.82  c0,0.316-0.195,0.418-0.445,0.273l-1.598-0.934c-0.266-0.148-0.48-0.504-0.496-0.801l-0.094-1.844  C361.18,291.141,361.371,291.027,361.629,291.172z M361.863,295.867l1.598,0.941c0.262,0.145,0.488,0.504,0.488,0.801l0.117,1.855  c0,0.289-0.18,0.414-0.445,0.262l-1.605-0.93c-0.25-0.152-0.469-0.512-0.496-0.812l-0.086-1.852  C361.422,295.84,361.617,295.715,361.863,295.867z M362.109,300.566l1.602,0.938c0.25,0.148,0.461,0.512,0.48,0.809l0.113,1.84  c0.008,0.289-0.188,0.398-0.445,0.262l-1.59-0.922c-0.254-0.152-0.477-0.512-0.504-0.809l-0.094-1.863  C361.66,300.547,361.852,300.43,362.109,300.566z M366.227,273.898l-1.582-0.922c-0.25-0.156-0.473-0.523-0.484-0.816l-0.094-1.852  c-0.016-0.289,0.172-0.418,0.434-0.27l1.598,0.93c0.246,0.145,0.469,0.508,0.48,0.801l0.09,1.863  C366.688,273.922,366.488,274.043,366.227,273.898z M366.832,276.477l0.074,1.852c0.016,0.289-0.176,0.41-0.426,0.266l-1.598-0.934  c-0.25-0.152-0.477-0.52-0.488-0.805l-0.09-1.848c-0.016-0.297,0.168-0.41,0.426-0.258l1.598,0.922  C366.578,275.816,366.805,276.184,366.832,276.477z M362.371,305.262l1.578,0.945c0.25,0.137,0.492,0.496,0.492,0.797l0.102,1.844  c0.016,0.297-0.188,0.418-0.445,0.266l-1.605-0.934c-0.238-0.145-0.465-0.504-0.477-0.801l-0.102-1.855  C361.914,305.227,362.105,305.117,362.371,305.262z M362.598,309.957l1.578,0.941c0.281,0.152,0.488,0.512,0.504,0.805l0.102,1.848  c0.02,0.293-0.188,0.402-0.445,0.266l-1.586-0.941c-0.266-0.141-0.48-0.508-0.496-0.801l-0.102-1.844  C362.148,309.934,362.332,309.812,362.598,309.957z M364.633,281.555l-0.09-1.844c-0.027-0.289,0.188-0.41,0.445-0.262l1.562,0.922  c0.273,0.152,0.504,0.52,0.504,0.812l0.105,1.832c0.012,0.301-0.188,0.41-0.441,0.273l-1.594-0.93  C364.859,282.211,364.645,281.855,364.633,281.555z M365.215,284.156l1.59,0.926c0.258,0.145,0.484,0.512,0.496,0.805l0.086,1.836  c0.016,0.297-0.164,0.422-0.426,0.273l-1.594-0.934c-0.27-0.152-0.484-0.52-0.492-0.809l-0.094-1.836  C364.758,284.117,364.973,284.008,365.215,284.156z M365.457,288.84l1.598,0.934c0.246,0.148,0.469,0.516,0.492,0.809l0.094,1.836  c0.012,0.309-0.188,0.418-0.449,0.281l-1.586-0.938c-0.262-0.156-0.465-0.504-0.492-0.816l-0.109-1.832  C364.996,288.816,365.195,288.703,365.457,288.84z M365.699,293.551l1.602,0.926c0.258,0.152,0.469,0.512,0.496,0.801l0.094,1.848  c0.008,0.289-0.195,0.406-0.453,0.262l-1.586-0.938c-0.258-0.137-0.484-0.504-0.488-0.805l-0.098-1.836  C365.238,293.527,365.438,293.398,365.699,293.551z M365.934,298.246l1.598,0.922c0.246,0.148,0.477,0.512,0.496,0.809l0.094,1.859  c0,0.281-0.176,0.402-0.445,0.258l-1.586-0.922c-0.262-0.156-0.484-0.52-0.496-0.812l-0.094-1.852  C365.492,298.207,365.68,298.102,365.934,298.246z M366.184,302.938l1.586,0.934c0.258,0.145,0.48,0.512,0.492,0.816l0.098,1.832  c0.008,0.297-0.176,0.414-0.438,0.27l-1.594-0.93c-0.258-0.145-0.477-0.512-0.5-0.805l-0.082-1.859  C365.723,302.914,365.922,302.793,366.184,302.938z M366.414,307.625l1.605,0.941c0.254,0.145,0.469,0.508,0.492,0.801l0.078,1.863  c0.012,0.289-0.184,0.41-0.43,0.25l-1.605-0.926c-0.238-0.152-0.457-0.508-0.484-0.801l-0.086-1.855  C365.973,307.602,366.148,307.488,366.414,307.625z M370.758,276c0,0.297-0.191,0.414-0.453,0.266l-1.594-0.934  c-0.25-0.145-0.477-0.512-0.48-0.812l-0.109-1.844c-0.008-0.301,0.18-0.41,0.453-0.273l1.582,0.949  c0.262,0.152,0.484,0.512,0.492,0.809L370.758,276z M370.512,271.309c0.012,0.293-0.188,0.406-0.449,0.262l-1.602-0.945  c-0.246-0.137-0.469-0.504-0.477-0.793l-0.113-1.836c0-0.309,0.195-0.418,0.453-0.273l1.598,0.93c0.25,0.156,0.48,0.523,0.48,0.812  L370.512,271.309z M369.604,262.256c0.253,0.309,0.505,0.612,0.76,0.935c-0.023,0.006-0.044,0.022-0.067,0.023  c-0.113,0.008-0.195,0.156-0.18,0.332c0,0.18-0.031,0.387-0.059,0.461c-0.043,0.059-0.043,0.145,0.004,0.18  c0.043,0.016,0.094,0.281,0.109,0.574l0.094,1.844c0.008,0.289-0.191,0.41-0.438,0.266l-1.594-0.941  c-0.266-0.145-0.465-0.309-0.48-0.367c0-0.047-0.055-0.086-0.148-0.086c-0.074,0.008-0.254-0.059-0.418-0.152  c-0.148-0.086-0.34-0.078-0.383,0.023c-0.074,0.113-0.211,0.188-0.34,0.207c-0.121,0.004-0.203,0.16-0.203,0.324  c0.027,0.188,0,0.391-0.051,0.453c-0.027,0.066-0.02,0.152,0.016,0.172c0.035,0.023,0.102,0.289,0.113,0.578l0.09,1.855  c0.008,0.281-0.191,0.406-0.43,0.254l-1.594-0.926c-0.246-0.148-0.457-0.305-0.457-0.355c0-0.059-0.074-0.09-0.148-0.09  c-0.09,0.016-0.281-0.062-0.434-0.156c-0.148-0.094-0.328-0.078-0.395,0.023c-0.062,0.113-0.199,0.188-0.316,0.188  c-0.121,0.012-0.207,0.164-0.207,0.344c0.016,0.18-0.004,0.383-0.043,0.453c-0.035,0.055-0.035,0.121,0.016,0.152  c0.027,0.027,0.07,0.289,0.09,0.59l0.102,1.84c0.016,0.293-0.18,0.414-0.445,0.277l-1.598-0.949  c-0.246-0.137-0.461-0.297-0.461-0.355c0-0.043-0.066-0.078-0.152-0.086c-0.066,0.008-0.258-0.062-0.41-0.156  c-0.16-0.082-0.34-0.082-0.387,0.027c-0.059,0.102-0.219,0.188-0.316,0.195c-0.129,0-0.219,0.156-0.203,0.344  c0,0.168-0.023,0.363-0.059,0.434c-0.043,0.07-0.035,0.145,0.012,0.18c0.031,0.016,0.102,0.281,0.102,0.574l0.021,0.386  c-0.378-0.829-0.793-1.655-1.25-2.476L369.604,262.256z M354.027,250.982c0.05,0.107,0.089,0.217,0.098,0.318l0.078,1.836  c0.012,0.301-0.184,0.41-0.445,0.258l-1.59-0.926c-0.254-0.141-0.48-0.512-0.492-0.805l-0.086-1.761  C352.421,250.269,353.239,250.631,354.027,250.982z M350.398,255.477c0,0.281-0.191,0.41-0.449,0.266l-1.602-0.93  c-0.242-0.16-0.48-0.516-0.492-0.816l-0.09-1.844c-0.02-0.297,0.176-0.414,0.441-0.27l1.59,0.926  c0.258,0.148,0.492,0.535,0.492,0.816L350.398,255.477z M350.068,249.236l0.068,1.53c0.008,0.293-0.188,0.414-0.434,0.27  l-1.594-0.945c-0.254-0.129-0.484-0.504-0.492-0.793l-0.059-1.151C348.392,248.506,349.232,248.871,350.068,249.236z   M346.547,257.797c0.012,0.289-0.184,0.414-0.449,0.262l-1.57-0.934c-0.246-0.137-0.484-0.512-0.484-0.793l-0.105-1.848  c-0.012-0.305,0.188-0.426,0.438-0.27l1.586,0.926c0.258,0.152,0.48,0.516,0.492,0.809L346.547,257.797z M346.312,253.094  c0.016,0.301-0.188,0.414-0.438,0.273l-1.586-0.93c-0.258-0.16-0.48-0.52-0.492-0.812l-0.105-1.844  c-0.016-0.297,0.188-0.418,0.445-0.273l1.578,0.938c0.281,0.141,0.496,0.512,0.504,0.805L346.312,253.094z M346.036,247.492  l0.046,0.907c0.004,0.281-0.191,0.41-0.438,0.258l-1.602-0.934c-0.258-0.145-0.473-0.516-0.496-0.793l-0.021-0.502  C344.333,246.767,345.174,247.123,346.036,247.492z M342.727,260.113c0.008,0.293-0.18,0.418-0.434,0.273l-1.605-0.93  c-0.242-0.148-0.469-0.504-0.488-0.812l-0.074-1.844c-0.02-0.289,0.168-0.402,0.422-0.266l1.598,0.934  c0.246,0.152,0.477,0.512,0.492,0.812L342.727,260.113z M342.484,255.418c0.02,0.301-0.176,0.41-0.441,0.266l-1.59-0.922  c-0.254-0.145-0.477-0.512-0.477-0.805l-0.113-1.855c-0.008-0.277,0.188-0.406,0.438-0.254l1.602,0.914  c0.258,0.156,0.48,0.512,0.488,0.812L342.484,255.418z M342.254,250.73c0.016,0.289-0.203,0.41-0.445,0.266l-1.59-0.938  c-0.262-0.148-0.465-0.512-0.48-0.805l-0.121-1.844c0-0.301,0.191-0.422,0.453-0.27l1.598,0.926c0.258,0.145,0.477,0.52,0.48,0.812  L342.254,250.73z M342.001,245.792l0.014,0.232c0,0.293-0.195,0.41-0.441,0.258l-1.59-0.914c-0.191-0.113-0.366-0.344-0.448-0.576  C340.276,245.084,341.106,245.422,342.001,245.792z M338.918,262.43c0,0.312-0.188,0.426-0.453,0.273l-1.598-0.922  c-0.246-0.148-0.469-0.516-0.477-0.805l-0.113-1.844c0-0.301,0.188-0.418,0.453-0.266l1.578,0.93  c0.266,0.148,0.477,0.512,0.488,0.805L338.918,262.43z M338.652,257.75c0.023,0.281-0.18,0.402-0.426,0.266l-1.598-0.922  c-0.238-0.156-0.453-0.516-0.492-0.812l-0.078-1.855c-0.023-0.289,0.172-0.418,0.414-0.262l1.613,0.93  c0.25,0.148,0.465,0.512,0.48,0.809L338.652,257.75z M338.43,253.047c0,0.297-0.176,0.414-0.449,0.27l-1.582-0.93  c-0.262-0.145-0.484-0.52-0.508-0.801l-0.082-1.848c0-0.305,0.18-0.414,0.434-0.27l1.59,0.934c0.258,0.141,0.477,0.508,0.492,0.801  L338.43,253.047z M336.008,244.762l1.602,0.93c0.25,0.156,0.48,0.512,0.48,0.812l0.094,1.836c0.016,0.297-0.203,0.426-0.438,0.273  l-1.598-0.922c-0.258-0.145-0.48-0.512-0.492-0.812l-0.082-1.844C335.547,244.746,335.75,244.625,336.008,244.762z M335.082,264.777  c0.02,0.289-0.18,0.418-0.453,0.258l-1.578-0.914c-0.266-0.148-0.48-0.523-0.492-0.82l-0.09-1.828  c-0.023-0.301,0.18-0.414,0.434-0.273l1.578,0.93c0.266,0.145,0.492,0.512,0.492,0.805L335.082,264.777z M334.836,260.062  c0.023,0.301-0.18,0.418-0.434,0.273l-1.59-0.938c-0.254-0.141-0.48-0.508-0.48-0.801l-0.113-1.84  c-0.016-0.289,0.199-0.422,0.457-0.273l1.578,0.941c0.266,0.145,0.469,0.504,0.488,0.793L334.836,260.062z M334.598,255.375  c0,0.289-0.18,0.41-0.445,0.266l-1.594-0.922c-0.242-0.164-0.465-0.523-0.48-0.816l-0.082-1.848c-0.004-0.293,0.176-0.41,0.434-0.27  l1.594,0.941c0.23,0.148,0.469,0.504,0.484,0.812L334.598,255.375z M334.367,250.672c0.008,0.305-0.176,0.41-0.453,0.262  l-1.582-0.926c-0.254-0.141-0.477-0.512-0.484-0.797l-0.086-1.844c-0.027-0.301,0.164-0.418,0.426-0.258l1.586,0.914  c0.258,0.152,0.48,0.52,0.48,0.812L334.367,250.672z M332.394,242.658l1.134,0.67c0.27,0.145,0.488,0.504,0.496,0.812l0.102,1.852  c0.016,0.281-0.188,0.398-0.434,0.254l-1.59-0.934c-0.254-0.145-0.477-0.508-0.496-0.809l-0.086-1.562  C331.854,242.792,332.136,242.706,332.394,242.658z M331.258,267.117c0.012,0.289-0.18,0.41-0.426,0.27l-1.613-0.945  c-0.242-0.148-0.465-0.516-0.488-0.805l-0.086-1.855c-0.008-0.285,0.188-0.406,0.434-0.258l1.602,0.938  c0.25,0.137,0.484,0.512,0.492,0.809L331.258,267.117z M331.023,262.402c0.004,0.301-0.176,0.418-0.438,0.266l-1.609-0.938  c-0.266-0.148-0.477-0.504-0.484-0.805l-0.094-1.836c-0.012-0.297,0.191-0.414,0.434-0.27l1.605,0.926  c0.246,0.168,0.477,0.523,0.492,0.82L331.023,262.402z M330.777,257.691c0.023,0.305-0.176,0.426-0.438,0.281l-1.609-0.941  c-0.25-0.137-0.457-0.52-0.469-0.801l-0.113-1.836c-0.008-0.301,0.188-0.418,0.453-0.27l1.578,0.934  c0.285,0.137,0.5,0.504,0.504,0.797L330.777,257.691z M330.547,253.012c0.016,0.281-0.18,0.41-0.441,0.258l-1.605-0.941  c-0.238-0.137-0.465-0.488-0.48-0.805l-0.102-1.844c-0.012-0.289,0.18-0.41,0.43-0.273l1.605,0.945  c0.254,0.145,0.484,0.516,0.492,0.812L330.547,253.012z M330.037,243.761c-0.035,0.13-0.132,0.191-0.264,0.169  C329.861,243.873,329.941,243.82,330.037,243.761z M328.45,244.926l1.261,0.73c0.266,0.156,0.469,0.516,0.484,0.805l0.113,1.844  c0.02,0.297-0.188,0.418-0.457,0.266l-1.578-0.922c-0.266-0.156-0.477-0.523-0.5-0.812l-0.036-0.696  C327.845,245.702,328.042,245.331,328.45,244.926z M326.65,254.032l0.069,1.292c0.008,0.203-0.077,0.31-0.209,0.322  C326.557,255.085,326.604,254.544,326.65,254.032z M326.369,257.385l0.01,0.006c0.25,0.145,0.465,0.504,0.488,0.805l0.086,1.84  c0.008,0.293-0.18,0.414-0.434,0.273l-0.354-0.208C326.233,259.172,326.301,258.261,326.369,257.385z M326.049,261.765l0.544,0.321  c0.266,0.145,0.488,0.508,0.496,0.82l0.121,1.828c0.012,0.301-0.188,0.41-0.449,0.266l-0.893-0.514  C325.927,263.581,325.987,262.67,326.049,261.765z M325.765,266.145l1.079,0.641c0.258,0.152,0.48,0.512,0.492,0.809l0.109,1.836  c0,0.297-0.184,0.418-0.449,0.273l-1.393-0.821C325.653,267.999,325.707,267.083,325.765,266.145z M325.511,270.562l1.579,0.915  c0.246,0.156,0.461,0.312,0.473,0.363c0,0.051,0.059,0.086,0.141,0.074c0.07-0.004,0.273,0.074,0.41,0.164  c0.16,0.094,0.332,0.078,0.387-0.016c0.09-0.094,0.211-0.188,0.332-0.199c0.125-0.008,0.223-0.16,0.195-0.332  c-0.008-0.18,0.02-0.391,0.07-0.453c0.027-0.059,0.027-0.137-0.027-0.164c-0.043-0.027-0.086-0.293-0.094-0.582l-0.098-1.852  c-0.012-0.293,0.176-0.406,0.441-0.262l1.594,0.93c0.273,0.145,0.473,0.316,0.473,0.367c0.008,0.059,0.059,0.094,0.145,0.082  c0.074,0,0.254,0.055,0.418,0.156c0.152,0.094,0.332,0.078,0.383-0.016c0.062-0.102,0.207-0.188,0.344-0.195  c0.109-0.016,0.195-0.16,0.18-0.352c0-0.172,0.016-0.367,0.047-0.434c0.035-0.07,0.047-0.148,0-0.164  c-0.031-0.039-0.09-0.289-0.105-0.59l-0.094-1.844c-0.023-0.289,0.176-0.418,0.438-0.266l1.602,0.926  c0.246,0.156,0.461,0.32,0.461,0.363c0.008,0.051,0.059,0.094,0.148,0.086c0.078-0.004,0.27,0.07,0.406,0.156  c0.172,0.102,0.355,0.082,0.418-0.016c0.051-0.105,0.215-0.191,0.316-0.199c0.109-0.008,0.199-0.152,0.199-0.332  c-0.012-0.188,0.016-0.387,0.047-0.445c0.035-0.074,0.043-0.152-0.008-0.172c-0.039-0.023-0.09-0.289-0.102-0.578l-0.086-1.852  c-0.027-0.301,0.176-0.414,0.418-0.258l1.59,0.918c0.254,0.145,0.469,0.32,0.469,0.367s0.078,0.098,0.16,0.078  c0.078,0,0.262,0.07,0.422,0.164c0.137,0.094,0.312,0.078,0.391-0.027c0.051-0.102,0.188-0.188,0.324-0.195  c0.121-0.008,0.195-0.16,0.195-0.336c-0.02-0.176,0.012-0.379,0.062-0.445c0.039-0.07,0.039-0.148-0.027-0.172  c-0.035-0.027-0.094-0.293-0.094-0.582l-0.094-1.848c-0.012-0.293,0.176-0.414,0.438-0.262l1.586,0.93  c0.266,0.137,0.461,0.316,0.461,0.367c0,0.043,0.082,0.082,0.152,0.078c0.078,0,0.27,0.074,0.438,0.152  c0.148,0.098,0.324,0.094,0.391-0.008c0.055-0.113,0.195-0.188,0.312-0.195c0.117-0.012,0.211-0.164,0.203-0.344  c-0.027-0.184,0.008-0.375,0.051-0.449c0.039-0.055,0.023-0.145-0.004-0.168c-0.047-0.016-0.098-0.297-0.098-0.578l-0.113-1.832  c-0.012-0.301,0.184-0.422,0.445-0.27l1.598,0.922c0.246,0.148,0.453,0.32,0.461,0.359c-0.008,0.062,0.066,0.109,0.141,0.094  c0.082,0,0.277,0.062,0.434,0.164c0.152,0.09,0.328,0.066,0.391-0.027c0.059-0.102,0.195-0.195,0.316-0.195  c0.117,0,0.211-0.172,0.211-0.348c-0.039-0.184,0-0.379,0.035-0.457c0.035-0.055,0.035-0.125-0.008-0.145  c-0.039-0.031-0.09-0.297-0.094-0.59l-0.098-1.852c-0.023-0.289,0.176-0.41,0.438-0.254l1.598,0.922  c0.246,0.145,0.469,0.324,0.453,0.367c0.016,0.051,0.078,0.094,0.152,0.082c0.09,0,0.277,0.07,0.434,0.156  c0.148,0.094,0.316,0.078,0.383-0.02c0.055-0.102,0.195-0.195,0.32-0.195c0.117-0.008,0.195-0.152,0.195-0.34  c-0.008-0.172,0.02-0.375,0.047-0.453c0.047-0.059,0.047-0.137-0.012-0.164c-0.035-0.016-0.078-0.273-0.09-0.57l-0.105-1.863  c-0.016-0.289,0.18-0.398,0.449-0.254l1.59,0.938c0.266,0.145,0.469,0.309,0.477,0.359c0.012,0.043,0.07,0.078,0.148,0.078  c0.059,0,0.246,0.074,0.402,0.16c0.16,0.086,0.328,0.078,0.391-0.023c0.07-0.094,0.199-0.184,0.316-0.188  c0.129-0.02,0.227-0.164,0.215-0.344c-0.016-0.188,0-0.383,0.043-0.453c0.047-0.059,0.047-0.148-0.008-0.168  c-0.035-0.02-0.086-0.293-0.098-0.59l-0.094-1.828c-0.023-0.293,0.18-0.414,0.418-0.27l1.605,0.934  c0.258,0.148,0.473,0.316,0.457,0.359c0.016,0.062,0.082,0.094,0.152,0.094c0.094-0.016,0.285,0.062,0.43,0.145  c0.152,0.102,0.34,0.086,0.387-0.008c0.029-0.045,0.075-0.083,0.123-0.115c0.183,0.085,0.359,0.167,0.528,0.246l-34.429,20.96  C325.365,273.458,325.43,272.09,325.511,270.562z M332.245,294.727c-0.708-1.21-1.365-2.422-1.968-3.615l1.403,0.811  c0.262,0.156,0.488,0.523,0.492,0.812l0.094,1.844C332.269,294.637,332.257,294.683,332.245,294.727z M333.469,288.934  c-0.012-0.281,0.18-0.402,0.426-0.254l1.598,0.926c0.258,0.148,0.48,0.508,0.496,0.801l0.094,1.859  c0.008,0.285-0.18,0.398-0.426,0.258l-1.598-0.926c-0.262-0.145-0.488-0.512-0.504-0.82L333.469,288.934z M333.797,295.477  l-0.094-1.848c0-0.289,0.188-0.406,0.438-0.254l1.598,0.926c0.25,0.141,0.488,0.508,0.492,0.797l0.094,1.863  c0.016,0.289-0.176,0.402-0.434,0.258l-1.586-0.949C334.031,296.133,333.809,295.766,333.797,295.477z M334.337,298.049  c0.013,0.006,0.024,0.005,0.038,0.013l1.613,0.93c0.254,0.156,0.477,0.52,0.477,0.812l0.072,1.26  C335.765,300.084,335.032,299.075,334.337,298.049z M337.285,286.613c-0.004-0.301,0.18-0.422,0.457-0.273l1.582,0.938  c0.25,0.141,0.473,0.504,0.484,0.793l0.105,1.848c0.027,0.293-0.188,0.422-0.445,0.262l-1.602-0.93  c-0.238-0.137-0.465-0.512-0.48-0.793L337.285,286.613z M337.523,291.312c-0.008-0.301,0.195-0.414,0.434-0.27l1.605,0.926  c0.258,0.152,0.48,0.52,0.488,0.816l0.105,1.844c0.016,0.301-0.18,0.418-0.453,0.273l-1.59-0.938  c-0.246-0.145-0.473-0.512-0.484-0.812L337.523,291.312z M337.766,296.004c-0.02-0.289,0.188-0.414,0.441-0.27l1.59,0.938  c0.273,0.152,0.484,0.512,0.496,0.801l0.102,1.844c0,0.301-0.188,0.41-0.445,0.27l-1.586-0.934c-0.273-0.145-0.48-0.496-0.496-0.801  L337.766,296.004z M340.199,304.297l-1.605-0.941c-0.258-0.152-0.48-0.512-0.504-0.809l-0.07-1.84  c-0.023-0.305,0.164-0.422,0.422-0.27l1.602,0.93c0.258,0.152,0.48,0.508,0.492,0.812l0.098,1.852  C340.641,304.32,340.453,304.441,340.199,304.297z M340.984,281.883c0-0.062-0.07-0.098-0.145-0.086  c-0.062,0-0.254-0.078-0.402-0.172c-0.168-0.086-0.344-0.086-0.406,0.016c-0.055,0.121-0.211,0.203-0.316,0.203  c-0.129,0.012-0.219,0.148-0.199,0.34c0.008,0.176-0.02,0.371-0.062,0.449c-0.031,0.066-0.031,0.129,0.016,0.16  c0.047,0.027,0.094,0.285,0.105,0.582l0.09,1.852c0.012,0.293-0.176,0.414-0.43,0.266l-1.594-0.93  c-0.266-0.145-0.465-0.316-0.484-0.359c0-0.047-0.051-0.094-0.121-0.086c-0.09,0.008-0.27-0.059-0.434-0.156  c-0.148-0.098-0.332-0.082-0.391,0.012c-0.062,0.105-0.203,0.195-0.32,0.207c-0.133,0.004-0.211,0.152-0.199,0.332  c0.016,0.18-0.023,0.391-0.062,0.449c-0.023,0.066-0.035,0.141,0.016,0.164c0.047,0.027,0.078,0.281,0.105,0.582l0.094,1.836  c0.016,0.297-0.176,0.418-0.445,0.273l-1.574-0.93c-0.27-0.152-0.477-0.316-0.477-0.352c0-0.059-0.066-0.09-0.137-0.09  c-0.082,0-0.273-0.074-0.426-0.168c-0.16-0.086-0.34-0.078-0.402,0.023c-0.066,0.105-0.211,0.199-0.312,0.199  c-0.121,0.008-0.199,0.156-0.195,0.324c0,0.172-0.02,0.371-0.062,0.453c-0.051,0.07-0.051,0.152,0.012,0.184  c0.047,0.023,0.09,0.285,0.117,0.586l0.078,1.844c0.016,0.289-0.172,0.41-0.434,0.266l-1.609-0.934  c-0.238-0.156-0.465-0.328-0.465-0.367c0-0.059-0.066-0.102-0.148-0.102c-0.051,0.013-0.146-0.019-0.25-0.063  c-0.215-0.471-0.424-0.938-0.622-1.396l11.767-7.167c0.568,0.852,1.162,1.666,1.777,2.432l-0.566-0.33  C341.207,282.086,341,281.914,340.984,281.883z M341.121,284.262c-0.02-0.289,0.172-0.398,0.426-0.254l1.605,0.93  c0.238,0.152,0.469,0.508,0.477,0.812l0.105,1.84c0,0.293-0.188,0.414-0.441,0.27l-1.594-0.922c-0.254-0.152-0.469-0.52-0.492-0.812  L341.121,284.262z M341.344,288.977c0-0.293,0.191-0.41,0.461-0.266l1.562,0.934c0.281,0.152,0.484,0.512,0.504,0.801l0.102,1.844  c0.016,0.293-0.176,0.418-0.438,0.262l-1.594-0.926c-0.262-0.145-0.473-0.512-0.496-0.797L341.344,288.977z M341.586,293.672  c0-0.289,0.191-0.414,0.457-0.273l1.578,0.941c0.258,0.145,0.469,0.512,0.492,0.812l0.098,1.844c0.004,0.289-0.18,0.41-0.434,0.273  l-1.605-0.934c-0.246-0.156-0.473-0.504-0.473-0.812L341.586,293.672z M341.828,298.371c-0.008-0.293,0.188-0.414,0.441-0.258  l1.602,0.93c0.242,0.148,0.469,0.504,0.488,0.797l0.082,1.852c0.012,0.305-0.176,0.418-0.434,0.266l-1.574-0.93  c-0.273-0.148-0.492-0.516-0.492-0.809L341.828,298.371z M342.16,304.918l-0.094-1.844c-0.023-0.297,0.188-0.418,0.445-0.273  l1.59,0.934c0.258,0.152,0.469,0.512,0.492,0.812l0.094,1.852c0.016,0.289-0.184,0.41-0.434,0.254l-1.59-0.93  C342.391,305.578,342.172,305.219,342.16,304.918z M342.968,307.635l1.372,0.803c0.23,0.129,0.424,0.417,0.482,0.688  C344.181,308.624,343.559,308.127,342.968,307.635z M340.217,272.755c-0.935,1.499-1.212,2.914-0.832,4.075l-12.13,7.387  c-0.894-2.405-1.49-4.471-1.78-5.936l37.521-22.843c1.167,0.929,2.723,2.403,4.448,4.304l-12.486,7.604  c-0.744-0.749-1.894-1.16-3.329-1.16c-2.019,0-4.473,0.79-6.736,2.168C342.879,269.589,341.218,271.152,340.217,272.755z   M345.176,286.656c-0.012-0.309,0.184-0.422,0.445-0.273l0.211,0.124c0.604,0.515,1.214,0.983,1.825,1.406  c0.023,0.069,0.041,0.139,0.046,0.205l0.09,1.855c0.012,0.285-0.191,0.41-0.43,0.27l-1.594-0.934  c-0.266-0.152-0.484-0.512-0.492-0.809L345.176,286.656z M345.43,291.352c-0.016-0.301,0.172-0.418,0.441-0.262l1.582,0.922  c0.25,0.145,0.473,0.512,0.484,0.801l0.094,1.852c0.016,0.289-0.176,0.41-0.434,0.258l-1.602-0.934  c-0.254-0.137-0.465-0.504-0.48-0.793L345.43,291.352z M345.672,296.051c-0.02-0.301,0.176-0.422,0.426-0.27l1.594,0.93  c0.25,0.148,0.469,0.516,0.48,0.812l0.094,1.844c0.02,0.293-0.18,0.41-0.426,0.266l-1.59-0.922c-0.254-0.152-0.48-0.512-0.492-0.812  L345.672,296.051z M345.902,300.742c-0.027-0.289,0.18-0.426,0.434-0.258l1.578,0.926c0.27,0.145,0.488,0.512,0.508,0.801  l0.102,1.848c0,0.293-0.188,0.418-0.445,0.266l-1.586-0.926c-0.273-0.145-0.48-0.512-0.496-0.797L345.902,300.742z M346.125,305.441  c-0.016-0.293,0.203-0.41,0.445-0.258l1.602,0.922c0.25,0.152,0.473,0.523,0.48,0.812l0.094,1.844  c0.023,0.301-0.172,0.418-0.438,0.266l-1.586-0.922c-0.246-0.145-0.473-0.512-0.492-0.82L346.125,305.441z M346.388,310.32  l-0.009-0.176c-0.016-0.289,0.18-0.414,0.43-0.266l1.594,0.934c0.262,0.145,0.48,0.504,0.504,0.801l0.027,0.562  C348.059,311.555,347.21,310.936,346.388,310.32z M349.25,289.023c0-0.046,0.012-0.081,0.02-0.118  c0.758,0.416,1.51,0.756,2.249,1.005c0.136,0.171,0.234,0.388,0.239,0.585l0.105,1.844c0,0.301-0.176,0.422-0.445,0.273l-1.59-0.938  c-0.234-0.145-0.469-0.504-0.492-0.809L349.25,289.023z M349.488,293.727c-0.016-0.297,0.176-0.422,0.445-0.266l1.578,0.922  c0.266,0.152,0.469,0.52,0.492,0.812l0.09,1.844c0.023,0.297-0.168,0.41-0.438,0.258l-1.574-0.926  c-0.27-0.145-0.488-0.504-0.488-0.809L349.488,293.727z M349.727,298.418c-0.012-0.293,0.18-0.398,0.445-0.262l1.586,0.93  c0.246,0.156,0.473,0.516,0.484,0.812l0.098,1.836c0.016,0.309-0.18,0.418-0.438,0.273l-1.594-0.93  c-0.254-0.156-0.48-0.504-0.496-0.812L349.727,298.418z M349.957,303.117c-0.008-0.289,0.188-0.418,0.441-0.266l1.602,0.934  c0.254,0.145,0.477,0.512,0.488,0.809l0.094,1.836c0.016,0.293-0.191,0.402-0.434,0.266l-1.609-0.922  c-0.25-0.152-0.469-0.512-0.484-0.801L349.957,303.117z M350.207,307.824c-0.012-0.301,0.191-0.418,0.434-0.273l1.59,0.938  c0.258,0.145,0.477,0.512,0.492,0.809l0.109,1.844c0,0.293-0.191,0.414-0.449,0.27l-1.59-0.941  c-0.254-0.148-0.484-0.512-0.492-0.805L350.207,307.824z M350.481,313.262l-0.04-0.754c-0.004-0.277,0.176-0.406,0.445-0.262  l1.59,0.938c0.246,0.152,0.473,0.516,0.5,0.812l0.046,0.998C352.164,314.418,351.316,313.84,350.481,313.262z M353.312,291.387  c-0.02-0.297,0.176-0.41,0.438-0.266l1.586,0.938c0.258,0.137,0.484,0.504,0.496,0.812l0.09,1.848  c0.012,0.293-0.176,0.414-0.43,0.27l-1.594-0.938c-0.25-0.156-0.48-0.516-0.492-0.805L353.312,291.387z M353.543,296.09  c-0.023-0.289,0.18-0.418,0.445-0.258l1.594,0.93c0.25,0.145,0.473,0.512,0.488,0.805l0.105,1.836c0,0.309-0.18,0.418-0.453,0.273  l-1.598-0.941c-0.238-0.141-0.461-0.508-0.477-0.801L353.543,296.09z M353.785,300.797c-0.012-0.309,0.191-0.422,0.441-0.273  l1.594,0.938c0.242,0.141,0.48,0.512,0.492,0.805l0.094,1.844c0.008,0.297-0.18,0.426-0.438,0.273l-1.605-0.934  c-0.238-0.152-0.465-0.508-0.477-0.809L353.785,300.797z M354.02,305.484c-0.016-0.293,0.195-0.402,0.445-0.258l1.59,0.926  c0.258,0.141,0.477,0.508,0.504,0.816l0.094,1.844c0.016,0.293-0.188,0.402-0.445,0.262l-1.586-0.926  c-0.273-0.156-0.496-0.512-0.496-0.812L354.02,305.484z M354.266,310.191c-0.027-0.293,0.191-0.414,0.438-0.27l1.609,0.934  c0.254,0.152,0.469,0.52,0.48,0.801l0.098,1.855c0.008,0.289-0.18,0.406-0.438,0.262l-1.602-0.93  c-0.258-0.145-0.469-0.508-0.492-0.801L354.266,310.191z M354.564,316.021l-0.056-1.139c-0.008-0.289,0.18-0.406,0.441-0.27  l1.602,0.938c0.254,0.145,0.469,0.512,0.492,0.82l0.065,1.312C356.258,317.133,355.409,316.579,354.564,316.021z M357.161,289.846  c0.212-0.098,0.423-0.199,0.623-0.322c0.161-0.098,0.3-0.221,0.45-0.332l0.927,0.546c0.27,0.137,0.48,0.504,0.488,0.801l0.094,1.84  c0.02,0.285-0.18,0.414-0.434,0.262l-1.586-0.93c-0.273-0.148-0.48-0.516-0.508-0.805L357.161,289.846z M357.383,293.758  c-0.023-0.289,0.176-0.41,0.434-0.273l1.586,0.938c0.246,0.152,0.477,0.516,0.504,0.805l0.086,1.863c0,0.289-0.188,0.41-0.445,0.254  l-1.586-0.926c-0.25-0.148-0.473-0.508-0.496-0.801L357.383,293.758z M357.617,298.465c-0.023-0.297,0.176-0.41,0.438-0.266  l1.586,0.93c0.25,0.145,0.469,0.512,0.48,0.805l0.102,1.844c0.008,0.285-0.168,0.418-0.453,0.273l-1.57-0.941  c-0.238-0.141-0.461-0.508-0.488-0.809L357.617,298.465z M357.855,303.16c0-0.293,0.188-0.402,0.445-0.266l1.59,0.926  c0.242,0.148,0.469,0.512,0.469,0.809l0.102,1.844c0.027,0.301-0.172,0.43-0.43,0.273l-1.594-0.934  c-0.254-0.141-0.477-0.508-0.496-0.801L357.855,303.16z M358.086,307.855c-0.008-0.289,0.172-0.41,0.441-0.262l1.594,0.93  c0.25,0.152,0.473,0.504,0.484,0.812l0.094,1.844c0.016,0.297-0.18,0.41-0.434,0.258l-1.57-0.926  c-0.273-0.145-0.496-0.512-0.496-0.801L358.086,307.855z M358.336,312.562c-0.008-0.297,0.191-0.418,0.426-0.266l1.598,0.922  c0.258,0.145,0.477,0.512,0.496,0.805l0.094,1.859c0.012,0.301-0.188,0.418-0.449,0.258l-1.59-0.922  c-0.258-0.156-0.473-0.52-0.484-0.805L358.336,312.562z M360.345,319.758c-0.562-0.356-1.125-0.717-1.692-1.08l-0.071-1.42  c-0.023-0.289,0.18-0.41,0.438-0.254l2.27,1.332c0.258,0.137,0.516,0.152,0.598,0.023c0.086-0.117,0.262-0.223,0.41-0.23  c0.148-0.016,0.246-0.254,0.238-0.555l-0.141-2.629c-0.012-0.301,0.191-0.418,0.434-0.273l2.27,1.32  c0.266,0.148,0.535,0.172,0.605,0.047c0.094-0.129,0.258-0.242,0.41-0.246c0.148-0.012,0.258-0.258,0.23-0.559l-0.133-2.637  c-0.004-0.289,0.176-0.406,0.445-0.266l2.285,1.34c0.254,0.145,0.52,0.172,0.609,0.035c0.062-0.129,0.238-0.23,0.379-0.25  c0.145-0.004,0.254-0.246,0.254-0.543l-0.141-2.645c-0.008-0.305,0.188-0.414,0.43-0.27l1.605,0.949  c0.242,0.137,0.457,0.254,0.457,0.254s0,0,0,0.016c0,0,0.164,0.09,0.352,0.191c0.191,0.109,0.414,0.098,0.469-0.027  c0.09-0.137,0.262-0.242,0.418-0.242c0.129-0.004,0.227-0.254,0.227-0.551l-0.125-2.629c-0.023-0.309,0.176-0.43,0.438-0.273  l2.277,1.34c0.25,0.145,0.523,0.152,0.59,0.035c0.094-0.133,0.258-0.25,0.41-0.25c0.137-0.008,0.25-0.254,0.25-0.547l-0.137-2.645  c-0.027-0.293,0.176-0.418,0.434-0.266l2.266,1.332c0.262,0.145,0.527,0.172,0.605,0.051c0.078-0.145,0.254-0.238,0.395-0.246  c0.16-0.02,0.262-0.262,0.246-0.555l-0.137-2.641c-0.016-0.289,0.188-0.41,0.441-0.273l1.862,1.096  c0.042,0.428,0.083,0.853,0.124,1.278L360.345,319.758z M372.562,326.449l-1.598-0.926c-0.238-0.16-0.465-0.52-0.492-0.82  l-0.09-1.836c-0.008-0.289,0.184-0.402,0.445-0.254l1.578,0.918c0.266,0.145,0.48,0.512,0.496,0.805l0.086,1.848  C373,326.473,372.812,326.598,372.562,326.449z M374.219,320.543c-0.02-0.297,0.176-0.414,0.434-0.262l1.59,0.93  c0.254,0.156,0.465,0.504,0.477,0.812l0.109,1.836c0.012,0.289-0.172,0.406-0.438,0.266l-1.594-0.934  c-0.254-0.145-0.469-0.512-0.484-0.801L374.219,320.543z M376.629,328.816l-1.59-0.926c-0.258-0.148-0.48-0.512-0.48-0.809  l-0.102-1.84c-0.012-0.289,0.172-0.418,0.426-0.266l1.602,0.934c0.246,0.152,0.473,0.516,0.488,0.809l0.09,1.824  C377.086,328.848,376.875,328.965,376.629,328.816z M378.027,318.215c-0.012-0.297,0.188-0.41,0.434-0.266l1.602,0.922  c0.262,0.156,0.488,0.516,0.488,0.82l0.098,1.84c0.016,0.289-0.176,0.414-0.441,0.27l-1.594-0.938  c-0.258-0.145-0.477-0.504-0.492-0.805L378.027,318.215z M378.262,322.922c0-0.309,0.191-0.422,0.449-0.273l1.586,0.93  c0.254,0.148,0.48,0.512,0.496,0.805l0.094,1.828c0.027,0.312-0.172,0.422-0.438,0.27l-1.594-0.926  c-0.254-0.141-0.477-0.508-0.5-0.805L378.262,322.922z M378.512,327.617c-0.008-0.301,0.172-0.402,0.434-0.266l1.605,0.93  c0.242,0.148,0.465,0.516,0.48,0.805l0.098,1.848c0.016,0.297-0.188,0.406-0.43,0.262l-1.605-0.941  c-0.238-0.145-0.465-0.512-0.492-0.801L378.512,327.617z M379.595,332.919c-0.225-0.255-0.5-0.527-0.811-0.812  c0.068-0.138,0.216-0.181,0.403-0.075l1.59,0.938c0.281,0.137,0.484,0.504,0.492,0.809l0.05,1.068  C380.716,334.183,380.137,333.538,379.595,332.919z M381.723,313.477c0-0.047-0.051-0.086-0.129-0.078  c-0.07-0.008-0.273-0.078-0.426-0.188c-0.16-0.078-0.34-0.066-0.402,0.043c-0.051,0.086-0.195,0.18-0.332,0.18  c-0.102,0.016-0.188,0.16-0.188,0.34c0.012,0.18-0.016,0.387-0.039,0.453c-0.051,0.07-0.051,0.145,0,0.176  c0.039,0.027,0.09,0.285,0.098,0.578l0.098,1.844c0.016,0.297-0.191,0.41-0.434,0.273l-1.59-0.941  c-0.258-0.145-0.473-0.316-0.473-0.363s-0.066-0.078-0.137-0.078c-0.094,0-0.266-0.07-0.434-0.164  c-0.141-0.086-0.336-0.078-0.379,0.027c-0.062,0.109-0.203,0.188-0.328,0.188c-0.117,0.016-0.199,0.16-0.199,0.348  c0.008,0.188-0.02,0.375-0.066,0.445c-0.027,0.078-0.027,0.152,0.016,0.18c0.051,0.016,0.105,0.289,0.117,0.578l0.094,1.836  c0,0.301-0.188,0.418-0.441,0.266l-1.59-0.93c-0.246-0.145-0.457-0.316-0.457-0.363c-0.012-0.047-0.09-0.09-0.164-0.09  c-0.078,0-0.277-0.055-0.422-0.148c-0.16-0.09-0.324-0.082-0.391,0.023c-0.047,0.102-0.195,0.184-0.312,0.195  c-0.129,0.008-0.219,0.16-0.207,0.332c0.012,0.188-0.02,0.383-0.062,0.453c-0.035,0.066-0.023,0.145,0.02,0.168  c0.031,0.027,0.082,0.289,0.109,0.582l0.09,1.844c0.004,0.281-0.176,0.41-0.441,0.258l-1.594-0.93  c-0.254-0.137-0.461-0.301-0.477-0.359c0.016-0.051-0.055-0.086-0.145-0.086c-0.07,0.004-0.277-0.07-0.414-0.164  c-0.152-0.082-0.316-0.074-0.391,0.023c-0.043,0.105-0.207,0.191-0.316,0.199c-0.117,0.012-0.23,0.16-0.215,0.344  c0.02,0.184-0.016,0.383-0.047,0.453c-0.031,0.074-0.031,0.145,0.012,0.16c0.035,0.027,0.082,0.301,0.109,0.59l0.09,1.836  c0.008,0.297-0.184,0.418-0.434,0.273l-1.617-0.938c-0.238-0.148-0.445-0.309-0.453-0.367c0-0.047-0.074-0.078-0.141-0.078  c-0.082,0.008-0.262-0.066-0.422-0.164c-0.164-0.094-0.332-0.07-0.387,0.023c-0.066,0.113-0.215,0.199-0.324,0.199  c-0.014,0.001-0.019,0.017-0.031,0.021c-0.152-0.097-0.301-0.19-0.455-0.287c-0.407-0.257-0.823-0.519-1.239-0.78l20.849-12.691  c0.043,0.468,0.086,0.937,0.128,1.395c0.02,0.216,0.039,0.425,0.059,0.638c-0.063,0.042-0.131,0.073-0.193,0.073  c-0.121,0-0.211,0.148-0.199,0.336c0.016,0.18-0.012,0.367-0.047,0.438c-0.043,0.074-0.043,0.145,0,0.176  c0.047,0.02,0.094,0.281,0.113,0.578l0.102,1.848c0.008,0.289-0.191,0.41-0.43,0.266l-1.621-0.93  C381.953,313.676,381.73,313.52,381.723,313.477z M381.852,315.883c-0.012-0.289,0.18-0.41,0.426-0.254l1.605,0.93  c0.25,0.137,0.469,0.504,0.496,0.793l0.094,1.855c0.008,0.285-0.188,0.41-0.445,0.254l-1.586-0.93  c-0.262-0.152-0.488-0.52-0.504-0.805L381.852,315.883z M382.098,320.586c-0.023-0.297,0.176-0.414,0.438-0.27l1.598,0.93  c0.246,0.145,0.477,0.508,0.48,0.805l0.094,1.848c0.012,0.289-0.188,0.41-0.434,0.266l-1.602-0.938  c-0.258-0.145-0.48-0.5-0.48-0.801L382.098,320.586z M382.348,325.281c-0.027-0.289,0.176-0.414,0.434-0.266l1.586,0.926  c0.258,0.156,0.48,0.516,0.48,0.812l0.109,1.836c0.012,0.289-0.184,0.418-0.449,0.273l-1.59-0.926  c-0.254-0.148-0.496-0.516-0.504-0.809L382.348,325.281z M382.574,329.992c0-0.305,0.184-0.426,0.438-0.277l1.598,0.934  c0.246,0.145,0.477,0.512,0.492,0.812l0.07,1.836c0.027,0.289-0.16,0.406-0.414,0.258l-1.605-0.926  c-0.242-0.145-0.465-0.508-0.48-0.812L382.574,329.992z M384.984,338.258l-1.176-0.693c-0.244-0.266-0.49-0.535-0.73-0.797  c-0.049-0.053-0.093-0.103-0.142-0.155c-0.005-0.029-0.016-0.061-0.018-0.089l-0.105-1.855c-0.012-0.285,0.191-0.406,0.438-0.262  l1.598,0.93c0.254,0.164,0.477,0.52,0.48,0.801l0.113,1.855C385.441,338.289,385.25,338.41,384.984,338.258z M386.391,327.645  c-0.007-0.17,0.067-0.273,0.179-0.306c0.115,0.416,0.233,0.793,0.36,1.115c0.291,0.743,0.586,1.528,0.889,2.345l-0.842-0.494  c-0.258-0.152-0.473-0.52-0.48-0.809L386.391,327.645z M386.652,332.355c-0.02-0.297,0.172-0.418,0.434-0.273l1.546,0.93  c0.022,0.062,0.044,0.12,0.066,0.182c0.166,0.453,0.337,0.919,0.506,1.381l0.053,1.086c0.016,0.309-0.172,0.426-0.438,0.266  L387.215,335c-0.242-0.152-0.469-0.516-0.469-0.809L386.652,332.355z M386.973,338.891l-0.102-1.848c0-0.289,0.188-0.41,0.445-0.266  l1.59,0.941c0.273,0.152,0.477,0.504,0.492,0.801l0.105,1.855c0,0.297-0.18,0.41-0.445,0.273l-1.598-0.941  C387.215,339.562,386.977,339.188,386.973,338.891z M387.293,341.434c0.072-0.02,0.158-0.011,0.261,0.051l1.59,0.93  c0.266,0.145,0.496,0.512,0.508,0.812l0.05,1.031C388.912,343.301,388.107,342.359,387.293,341.434z M400.378,339.238  c0.019,0.05,0.027,0.109,0.021,0.18l-0.09,1.852c-0.023,0.297-0.227,0.664-0.492,0.805l-0.78,0.452  C399.502,341.434,399.948,340.336,400.378,339.238z M397.635,345.638c0.115-0.243,0.23-0.486,0.344-0.731  c0.05-0.045,0.102-0.088,0.158-0.117l1.59-0.941c0.254-0.141,0.449-0.023,0.434,0.27l-0.09,1.852  c-0.027,0.289-0.242,0.656-0.508,0.805l-1.234,0.721c-0.245-0.441-0.485-0.89-0.721-1.345L397.635,345.638z M393.355,344.898  c0.118,0.256,0.238,0.51,0.359,0.764l0.022,0.471c-0.238,0.459-0.48,0.911-0.728,1.355l-1.234-0.715  c-0.083-0.046-0.159-0.118-0.229-0.198c-0.041-0.054-0.082-0.107-0.123-0.16c-0.088-0.145-0.146-0.305-0.152-0.446l-0.09-1.852  c-0.012-0.293,0.191-0.41,0.434-0.27l1.605,0.941C393.266,344.816,393.311,344.857,393.355,344.898z M390.968,339.249  c0.427,1.094,0.872,2.188,1.335,3.276l-0.779-0.451c-0.254-0.141-0.477-0.508-0.488-0.805l-0.094-1.852  C390.938,339.352,390.95,339.297,390.968,339.249z M395.544,352.459l-0.064-1.275c-0.005-0.185,0.075-0.293,0.191-0.319  c0.116,0.026,0.19,0.135,0.176,0.319l-0.057,1.289c-0.039,0.063-0.08,0.13-0.119,0.194  C395.629,352.599,395.586,352.527,395.544,352.459z M464.692,254.076c0.045,0.499,0.091,1.025,0.136,1.57  c-0.127-0.016-0.209-0.121-0.199-0.321L464.692,254.076z M464.477,258.195c0.016-0.299,0.232-0.656,0.492-0.802  c0.068,0.875,0.137,1.785,0.203,2.713l-0.344,0.202c-0.258,0.141-0.445,0.02-0.438-0.273L464.477,258.195z M464.242,262.906  c0.023-0.312,0.234-0.676,0.488-0.82l0.557-0.327c0.062,0.908,0.123,1.822,0.181,2.729L464.582,265  c-0.25,0.145-0.461,0.035-0.449-0.266L464.242,262.906z M463.988,267.594c0.027-0.297,0.242-0.656,0.504-0.809l1.08-0.637  c0.058,0.938,0.111,1.854,0.161,2.736l-1.401,0.818c-0.238,0.145-0.445,0.023-0.43-0.273L463.988,267.594z M461.583,243.924  c-0.145,0.032-0.25-0.035-0.284-0.183C461.404,243.806,461.488,243.863,461.583,243.924z M461.133,246.461  c0.023-0.289,0.238-0.648,0.484-0.805l1.282-0.735c0.398,0.396,0.594,0.762,0.702,1.189l-0.039,0.726  c-0.016,0.289-0.23,0.656-0.484,0.812l-1.609,0.922c-0.246,0.152-0.449,0.031-0.426-0.266L461.133,246.461z M460.898,251.164  c0-0.297,0.223-0.668,0.5-0.812l1.578-0.945c0.277-0.137,0.457-0.016,0.457,0.273l-0.113,1.844  c-0.016,0.316-0.227,0.668-0.484,0.805l-1.598,0.941c-0.273,0.152-0.461,0.023-0.445-0.258L460.898,251.164z M460.652,255.855  c0.012-0.293,0.238-0.66,0.504-0.797l1.594-0.934c0.254-0.148,0.453-0.031,0.43,0.27l-0.086,1.836  c-0.016,0.281-0.23,0.664-0.488,0.801l-1.613,0.941c-0.258,0.145-0.445,0.023-0.434-0.281L460.652,255.855z M460.402,260.566  c0.027-0.297,0.25-0.652,0.496-0.82l1.613-0.926c0.25-0.145,0.445-0.027,0.438,0.27l-0.094,1.836  c-0.02,0.301-0.242,0.656-0.496,0.805l-1.598,0.938c-0.266,0.152-0.453,0.035-0.434-0.266L460.402,260.566z M460.172,265.27  c0.008-0.297,0.23-0.672,0.492-0.809l1.602-0.938c0.254-0.148,0.445-0.027,0.434,0.258l-0.086,1.855  c-0.02,0.289-0.254,0.656-0.504,0.805l-1.594,0.945c-0.258,0.141-0.438,0.02-0.438-0.27L460.172,265.27z M457.312,244.141  c0.023-0.309,0.242-0.668,0.508-0.812l1.129-0.672c0.26,0.047,0.543,0.132,0.879,0.282l-0.09,1.566  c-0.02,0.301-0.234,0.664-0.488,0.809l-1.598,0.934c-0.262,0.145-0.441,0.027-0.438-0.254L457.312,244.141z M457.074,248.836  c0.012-0.293,0.238-0.66,0.492-0.812l1.594-0.914c0.254-0.16,0.434-0.043,0.434,0.258l-0.09,1.844  c-0.016,0.285-0.254,0.656-0.492,0.797l-1.586,0.926c-0.262,0.148-0.457,0.043-0.43-0.262L457.074,248.836z M456.844,253.539  c0.008-0.309,0.23-0.664,0.492-0.812l1.574-0.941c0.262-0.141,0.449-0.023,0.449,0.27l-0.102,1.848  c-0.008,0.293-0.223,0.652-0.488,0.816l-1.586,0.922c-0.262,0.145-0.453,0.023-0.434-0.266L456.844,253.539z M456.602,258.219  c0.02-0.289,0.23-0.648,0.484-0.793l1.594-0.941c0.238-0.148,0.457-0.016,0.441,0.273l-0.086,1.84  c-0.023,0.293-0.242,0.66-0.504,0.801l-1.594,0.938c-0.262,0.145-0.445,0.027-0.438-0.273L456.602,258.219z M456.359,262.934  c0-0.293,0.223-0.66,0.492-0.805l1.586-0.93c0.262-0.141,0.461-0.027,0.438,0.273l-0.082,1.828c-0.023,0.297-0.246,0.672-0.508,0.82  l-1.578,0.914c-0.266,0.16-0.469,0.031-0.441-0.258L456.359,262.934z M453.254,246.504c0.016-0.301,0.238-0.656,0.48-0.812  l1.602-0.93c0.258-0.137,0.461-0.016,0.438,0.273l-0.086,1.844c-0.012,0.301-0.246,0.668-0.5,0.812l-1.578,0.922  c-0.266,0.152-0.461,0.023-0.457-0.273L453.254,246.504z M453.016,251.203c0.008-0.293,0.227-0.66,0.496-0.801l1.578-0.934  c0.258-0.145,0.441-0.035,0.438,0.27l-0.086,1.848c-0.023,0.281-0.25,0.656-0.492,0.801l-1.59,0.93  c-0.266,0.145-0.445,0.027-0.434-0.27L453.016,251.203z M452.777,255.902c0.016-0.297,0.227-0.66,0.492-0.809l1.578-0.93  c0.27-0.156,0.465-0.027,0.457,0.262l-0.102,1.855c-0.016,0.297-0.238,0.656-0.496,0.812l-1.586,0.922  c-0.266,0.137-0.457,0.016-0.445-0.266L452.777,255.902z M452.539,260.602c0.02-0.293,0.223-0.656,0.484-0.805l1.598-0.93  c0.238-0.152,0.445-0.035,0.43,0.266l-0.086,1.844c-0.016,0.289-0.242,0.656-0.488,0.805l-1.602,0.922  c-0.258,0.152-0.438,0.039-0.438-0.273L452.539,260.602z M449.337,245.797c0.896-0.37,1.726-0.707,2.464-1  c-0.083,0.229-0.252,0.458-0.441,0.569l-1.586,0.914c-0.258,0.152-0.461,0.035-0.449-0.258L449.337,245.797z M449.184,248.879  c0.023-0.293,0.246-0.668,0.496-0.812l1.594-0.926c0.25-0.152,0.453-0.031,0.441,0.27l-0.105,1.844  c-0.02,0.293-0.238,0.656-0.484,0.805l-1.582,0.938c-0.266,0.145-0.453,0.023-0.453-0.266L449.184,248.879z M448.945,253.574  c0.016-0.301,0.238-0.656,0.484-0.812l1.602-0.914c0.262-0.152,0.457-0.023,0.43,0.254l-0.09,1.855c0,0.293-0.223,0.66-0.48,0.805  l-1.605,0.922c-0.238,0.145-0.445,0.035-0.426-0.266L448.945,253.574z M448.703,258.281c0.02-0.301,0.242-0.66,0.504-0.812  l1.578-0.934c0.273-0.137,0.445-0.023,0.445,0.266l-0.082,1.844c-0.023,0.309-0.242,0.664-0.496,0.812l-1.598,0.93  c-0.262,0.145-0.461,0.02-0.438-0.273L448.703,258.281z M445.312,247.49c0.86-0.367,1.701-0.723,2.507-1.061l-0.021,0.5  c-0.027,0.277-0.238,0.648-0.512,0.793l-1.582,0.934c-0.246,0.152-0.449,0.023-0.441-0.258L445.312,247.49z M445.125,251.25  c0.016-0.293,0.238-0.664,0.496-0.805l1.57-0.938c0.273-0.145,0.461-0.023,0.453,0.273l-0.098,1.844  c-0.012,0.293-0.234,0.652-0.492,0.812l-1.586,0.93c-0.266,0.141-0.449,0.027-0.438-0.273L445.125,251.25z M444.887,255.949  c0.012-0.293,0.238-0.656,0.488-0.809l1.598-0.926c0.246-0.156,0.441-0.035,0.43,0.27l-0.098,1.848  c-0.02,0.281-0.238,0.656-0.484,0.793l-1.582,0.934c-0.266,0.152-0.453,0.027-0.441-0.262L444.887,255.949z M441.283,249.228  c0.834-0.364,1.672-0.727,2.502-1.084l-0.059,1.153c-0.016,0.289-0.238,0.664-0.496,0.793l-1.59,0.945  c-0.254,0.145-0.461,0.023-0.445-0.27L441.283,249.228z M441.055,253.625c0.016-0.281,0.238-0.668,0.492-0.816l1.59-0.926  c0.258-0.145,0.461-0.027,0.438,0.27l-0.098,1.844c-0.008,0.301-0.234,0.656-0.48,0.816l-1.609,0.93  c-0.246,0.145-0.438,0.016-0.438-0.266L441.055,253.625z M437.23,251.301c0-0.103,0.034-0.214,0.081-0.323  c0.791-0.353,1.609-0.714,2.442-1.08l-0.09,1.767c-0.012,0.293-0.234,0.664-0.488,0.805l-1.602,0.926  c-0.262,0.152-0.449,0.043-0.441-0.258L437.23,251.301z M421.739,262.261l12.127,7.384c-0.449,0.808-0.857,1.622-1.23,2.438  l0.021-0.345c0-0.293,0.055-0.559,0.094-0.574c0.051-0.035,0.062-0.109,0.012-0.18c-0.035-0.07-0.059-0.266-0.059-0.434  c0.008-0.188-0.07-0.344-0.199-0.344c-0.109-0.008-0.258-0.094-0.324-0.195c-0.051-0.109-0.23-0.109-0.379-0.027  c-0.156,0.094-0.34,0.164-0.43,0.156c-0.07,0.008-0.137,0.043-0.137,0.086c-0.016,0.059-0.215,0.219-0.469,0.355l-1.594,0.949  c-0.254,0.137-0.457,0.016-0.441-0.277l0.086-1.84c0.027-0.301,0.078-0.562,0.113-0.59c0.031-0.031,0.039-0.098,0.008-0.152  c-0.031-0.07-0.059-0.273-0.059-0.453c0.016-0.18-0.07-0.332-0.191-0.344c-0.121,0-0.254-0.074-0.316-0.188  c-0.07-0.102-0.246-0.117-0.398-0.023c-0.164,0.094-0.344,0.172-0.43,0.156c-0.074,0-0.137,0.031-0.137,0.09  c0,0.051-0.219,0.207-0.477,0.355l-1.574,0.926c-0.266,0.152-0.449,0.027-0.441-0.254l0.086-1.855  c0.012-0.289,0.066-0.555,0.109-0.578c0.043-0.02,0.051-0.105,0.02-0.172c-0.051-0.062-0.086-0.266-0.062-0.453  c0.012-0.164-0.078-0.32-0.199-0.324c-0.121-0.02-0.27-0.094-0.328-0.207c-0.059-0.102-0.246-0.109-0.383-0.023  c-0.168,0.094-0.355,0.16-0.422,0.152c-0.09,0-0.152,0.039-0.152,0.086c-0.008,0.059-0.223,0.223-0.465,0.367l-1.602,0.941  c-0.258,0.145-0.449,0.023-0.434-0.266l0.094-1.844c0-0.293,0.043-0.559,0.109-0.574c0.031-0.035,0.043-0.121,0.008-0.18  c-0.035-0.074-0.074-0.281-0.074-0.461c0.016-0.176-0.055-0.324-0.172-0.332c-0.022-0.001-0.043-0.017-0.065-0.022  C421.235,262.871,421.486,262.569,421.739,262.261z M425.023,305.859l-1.602,0.93c-0.258,0.145-0.445,0.027-0.43-0.27l0.086-1.832  c0-0.305,0.23-0.672,0.496-0.816l1.586-0.934c0.25-0.145,0.445-0.023,0.434,0.258l-0.074,1.859  C425.496,305.348,425.266,305.715,425.023,305.859z M425.367,307.898l-0.102,1.855c-0.008,0.293-0.227,0.648-0.492,0.801  l-1.602,0.926c-0.246,0.16-0.449,0.039-0.434-0.25l0.102-1.863c0.016-0.293,0.227-0.656,0.492-0.801l1.59-0.941  C425.188,307.488,425.375,307.602,425.367,307.898z M425.266,301.172l-1.594,0.922c-0.277,0.145-0.457,0.023-0.441-0.258  l0.086-1.859c0.027-0.297,0.242-0.66,0.496-0.809l1.598-0.922c0.262-0.145,0.453-0.039,0.426,0.262l-0.086,1.852  C425.742,300.652,425.52,301.016,425.266,301.172z M425.496,296.449l-1.598,0.938c-0.238,0.145-0.453,0.027-0.441-0.262l0.094-1.848  c0.023-0.289,0.25-0.648,0.492-0.801l1.602-0.926c0.246-0.152,0.457-0.023,0.434,0.258l-0.094,1.836  C425.973,295.945,425.75,296.312,425.496,296.449z M425.742,291.762l-1.605,0.938c-0.246,0.137-0.445,0.027-0.434-0.281l0.098-1.836  c0.02-0.293,0.242-0.66,0.492-0.809l1.598-0.934c0.262-0.137,0.449-0.023,0.449,0.273l-0.105,1.832  C426.211,291.258,425.984,291.605,425.742,291.762z M425.973,287.062l-1.586,0.934c-0.258,0.148-0.461,0.023-0.445-0.273  l0.102-1.836c0.016-0.293,0.238-0.66,0.496-0.805l1.57-0.926c0.281-0.148,0.461-0.039,0.453,0.262l-0.094,1.836  C426.453,286.543,426.234,286.91,425.973,287.062z M425.023,275.672l1.582-0.922c0.254-0.152,0.453-0.039,0.445,0.258l-0.105,1.848  c-0.012,0.285-0.219,0.652-0.492,0.805l-1.586,0.934c-0.262,0.145-0.449,0.023-0.449-0.266l0.105-1.852  C424.539,276.184,424.762,275.816,425.023,275.672z M424.672,273.633l0.09-1.863c0.012-0.293,0.238-0.656,0.496-0.801l1.586-0.93  c0.262-0.148,0.445-0.02,0.434,0.27l-0.09,1.852c0,0.293-0.242,0.66-0.492,0.816l-1.594,0.922  C424.863,274.043,424.66,273.922,424.672,273.633z M424.785,280.371l1.582-0.922c0.25-0.148,0.453-0.027,0.426,0.262l-0.074,1.844  c-0.023,0.301-0.242,0.656-0.496,0.805l-1.602,0.93c-0.262,0.137-0.441,0.027-0.434-0.273l0.105-1.832  C424.293,280.891,424.523,280.523,424.785,280.371z M426.668,311.703c0.016-0.293,0.227-0.652,0.492-0.805l1.598-0.941  c0.238-0.145,0.438-0.023,0.426,0.273l-0.086,1.844c-0.023,0.293-0.254,0.66-0.504,0.801l-1.582,0.941  c-0.273,0.137-0.457,0.027-0.449-0.266L426.668,311.703z M428.832,308.18l-1.586,0.934c-0.262,0.152-0.461,0.031-0.453-0.266  l0.109-1.844c0-0.301,0.223-0.66,0.496-0.797l1.586-0.945c0.262-0.145,0.461-0.035,0.445,0.262l-0.105,1.855  C429.312,307.676,429.098,308.035,428.832,308.18z M429.082,303.492l-1.605,0.922c-0.25,0.137-0.441,0.027-0.426-0.262l0.082-1.84  c0.027-0.297,0.258-0.66,0.496-0.809l1.605-0.938c0.258-0.137,0.43-0.02,0.43,0.254l-0.086,1.863  C429.551,302.98,429.324,303.34,429.082,303.492z M429.324,298.797l-1.594,0.93c-0.281,0.152-0.453,0.027-0.441-0.262l0.102-1.855  c0.008-0.297,0.227-0.656,0.492-0.801l1.586-0.941c0.262-0.152,0.449-0.027,0.438,0.266l-0.094,1.852  C429.785,298.285,429.578,298.645,429.324,298.797z M429.562,294.082l-1.59,0.934c-0.266,0.145-0.445,0.043-0.445-0.273l0.102-1.82  c0-0.297,0.23-0.664,0.488-0.809l1.598-0.941c0.262-0.145,0.441-0.031,0.434,0.266l-0.094,1.844  C430.031,293.578,429.816,293.934,429.562,294.082z M429.797,289.395l-1.586,0.93c-0.254,0.156-0.461,0.02-0.438-0.27l0.086-1.832  c0.008-0.305,0.23-0.664,0.48-0.816l1.605-0.922c0.262-0.164,0.469-0.035,0.426,0.266l-0.078,1.828  C430.277,288.879,430.055,289.238,429.797,289.395z M430.031,284.672l-1.574,0.949c-0.258,0.145-0.461,0.043-0.445-0.273  l0.094-1.828c0-0.289,0.234-0.664,0.488-0.82l1.595-0.926c-0.015,0.911,0.052,1.759,0.19,2.548  C430.287,284.471,430.165,284.602,430.031,284.672z M430.316,279.955c-0.014,0.008-0.025,0.022-0.039,0.03l-1.59,0.941  c-0.254,0.145-0.453,0.023-0.438-0.273l0.102-1.844c0-0.293,0.234-0.652,0.492-0.805l1.594-0.93c0.179-0.109,0.338-0.07,0.401,0.074  C430.6,278.104,430.425,279.042,430.316,279.955z M430.523,275.289l-1.594,0.93c-0.262,0.148-0.465,0.023-0.438-0.27l0.094-1.848  c0.008-0.293,0.23-0.656,0.496-0.797l1.598-0.945c0.25-0.137,0.441-0.023,0.426,0.273l-0.086,1.852  C431.004,274.777,430.781,275.137,430.523,275.289z M420.945,269.465c0.008-0.289,0.23-0.656,0.477-0.812l1.598-0.93  c0.266-0.145,0.453-0.035,0.453,0.273l-0.113,1.836c-0.016,0.289-0.242,0.656-0.488,0.793l-1.602,0.945  c-0.258,0.145-0.461,0.031-0.438-0.262L420.945,269.465z M420.688,274.16c0.016-0.297,0.238-0.656,0.508-0.809l1.578-0.949  c0.27-0.137,0.457-0.027,0.441,0.273l-0.098,1.844c-0.012,0.301-0.227,0.668-0.484,0.812l-1.605,0.934  c-0.262,0.148-0.449,0.031-0.441-0.266L420.688,274.16z M420.461,278.848c0.023-0.289,0.227-0.656,0.492-0.801l1.598-0.938  c0.25-0.148,0.461-0.035,0.449,0.262l-0.109,1.855c-0.016,0.297-0.23,0.664-0.496,0.801l-1.59,0.941  c-0.281,0.145-0.469,0.031-0.441-0.266L420.461,278.848z M420.211,283.562c0.023-0.297,0.25-0.664,0.492-0.82l1.605-0.926  c0.242-0.148,0.441-0.031,0.43,0.262l-0.086,1.852c-0.02,0.301-0.246,0.656-0.488,0.809l-1.613,0.926  c-0.246,0.148-0.445,0.023-0.426-0.27L420.211,283.562z M419.961,288.266c0.012-0.305,0.25-0.672,0.504-0.809l1.59-0.945  c0.266-0.145,0.461-0.023,0.441,0.273l-0.09,1.848c-0.023,0.289-0.234,0.645-0.48,0.781l-1.609,0.945  c-0.242,0.148-0.461,0.035-0.438-0.266L419.961,288.266z M419.738,292.961c0.016-0.297,0.223-0.664,0.496-0.805l1.598-0.941  c0.262-0.148,0.434-0.027,0.426,0.273l-0.094,1.836c0,0.293-0.223,0.656-0.496,0.809l-1.586,0.934  c-0.258,0.145-0.449,0.023-0.438-0.273L419.738,292.961z M421.195,303.527l-1.609,0.941c-0.246,0.152-0.445,0.023-0.426-0.262  l0.102-1.859c0.008-0.285,0.223-0.664,0.477-0.801l1.617-0.945c0.246-0.141,0.445-0.02,0.434,0.277l-0.105,1.855  C421.668,303.023,421.461,303.383,421.195,303.527z M421.531,305.578l-0.07,1.844c-0.027,0.297-0.266,0.656-0.508,0.801l-1.59,0.934  c-0.254,0.152-0.457,0.043-0.43-0.266l0.07-1.836c0.027-0.301,0.258-0.656,0.496-0.82l1.605-0.93  C421.363,305.168,421.551,305.281,421.531,305.578z M421.434,298.824l-1.59,0.934c-0.266,0.148-0.453,0.031-0.453-0.262l0.102-1.836  c0.008-0.305,0.238-0.664,0.496-0.809l1.586-0.934c0.258-0.152,0.453-0.023,0.445,0.273l-0.094,1.828  C421.898,298.309,421.688,298.676,421.434,298.824z M417.036,268.72c0.755-1.18,1.535-2.304,2.321-3.38  c0.168-0.021,0.282,0.094,0.264,0.321l-0.082,1.84c-0.027,0.293-0.234,0.668-0.492,0.805l-1.586,0.938  c-0.273,0.141-0.461,0.027-0.438-0.273L417.036,268.72z M416.859,271.832c0.023-0.301,0.234-0.66,0.508-0.805l1.582-0.938  c0.262-0.137,0.449-0.02,0.441,0.273l-0.098,1.844c-0.008,0.289-0.238,0.652-0.484,0.797l-1.598,0.938  c-0.254,0.152-0.445,0.031-0.445-0.273L416.859,271.832z M416.633,276.527c0.012-0.301,0.238-0.656,0.492-0.805l1.59-0.945  c0.246-0.145,0.445-0.016,0.438,0.273l-0.098,1.848c-0.008,0.305-0.238,0.66-0.488,0.809l-1.594,0.938  c-0.254,0.145-0.445,0.027-0.445-0.273L416.633,276.527z M416.402,281.215c0-0.289,0.215-0.641,0.48-0.793l1.586-0.941  c0.262-0.145,0.465-0.023,0.449,0.273l-0.102,1.84c-0.016,0.297-0.227,0.656-0.504,0.809l-1.57,0.93  c-0.266,0.152-0.465,0.043-0.453-0.273L416.402,281.215z M416.152,285.922c0.008-0.293,0.238-0.66,0.492-0.805l1.605-0.934  c0.238-0.141,0.438-0.023,0.43,0.27l-0.102,1.836c-0.012,0.305-0.23,0.664-0.496,0.812l-1.586,0.938  c-0.258,0.145-0.461,0.023-0.438-0.266L416.152,285.922z M415.906,290.633c0.008-0.293,0.23-0.66,0.496-0.805l1.578-0.934  c0.281-0.148,0.465-0.02,0.461,0.262l-0.102,1.836c-0.027,0.301-0.234,0.676-0.496,0.809l-1.59,0.934  c-0.254,0.152-0.461,0.035-0.434-0.266L415.906,290.633z M415.684,295.328c0-0.297,0.223-0.664,0.496-0.805l1.578-0.926  c0.25-0.156,0.441-0.035,0.426,0.266l-0.078,1.828c-0.023,0.305-0.234,0.664-0.492,0.824L416,297.43  c-0.234,0.156-0.445,0.035-0.426-0.254L415.684,295.328z M415.914,299.223l1.59-0.93c0.273-0.145,0.461-0.035,0.449,0.266  l-0.098,1.844c-0.023,0.289-0.234,0.648-0.488,0.801l-1.598,0.934c-0.25,0.137-0.453,0.023-0.441-0.273l0.098-1.836  C415.445,299.727,415.672,299.367,415.914,299.223z M417.707,303.254l-0.094,1.844c-0.016,0.301-0.238,0.668-0.488,0.82  l-1.582,0.914c-0.254,0.148-0.449,0.035-0.441-0.258l0.105-1.855c0.008-0.289,0.219-0.652,0.477-0.809l1.57-0.93  C417.527,302.844,417.715,302.957,417.707,303.254z M414.812,272.507l0.079-0.046c0.262-0.145,0.453-0.031,0.438,0.273l-0.078,1.836  c-0.035,0.293-0.25,0.66-0.496,0.805l-1.598,0.93c-0.086,0.051-0.159,0.063-0.226,0.059  C413.506,275.05,414.133,273.761,414.812,272.507z M412.559,278.902c0.016-0.301,0.238-0.66,0.504-0.812l1.582-0.93  c0.262-0.156,0.457-0.027,0.438,0.254l-0.094,1.863c-0.012,0.289-0.227,0.656-0.484,0.809l-1.605,0.93  c-0.25,0.141-0.453,0.023-0.426-0.266L412.559,278.902z M412.332,283.594c0-0.305,0.223-0.66,0.48-0.801l1.605-0.938  c0.254-0.145,0.445-0.027,0.445,0.273l-0.109,1.844c-0.016,0.289-0.23,0.648-0.488,0.793l-1.594,0.941  c-0.262,0.148-0.461,0.035-0.457-0.266L412.332,283.594z M412.094,288.301c0.012-0.297,0.227-0.664,0.48-0.812l1.613-0.938  c0.242-0.137,0.434-0.023,0.434,0.273l-0.098,1.836c-0.027,0.309-0.258,0.676-0.496,0.82l-1.605,0.926  c-0.258,0.145-0.445,0.027-0.43-0.27L412.094,288.301z M411.84,293c0.02-0.293,0.227-0.66,0.492-0.805l1.594-0.93  c0.262-0.152,0.461-0.031,0.441,0.266l-0.102,1.828c0,0.305-0.223,0.672-0.496,0.809l-1.582,0.941  c-0.262,0.141-0.449,0.023-0.449-0.266L411.84,293z M411.602,297.703c0.008-0.297,0.238-0.664,0.492-0.82l1.605-0.922  c0.25-0.145,0.438-0.023,0.43,0.266l-0.09,1.836c-0.012,0.305-0.242,0.668-0.5,0.812l-1.586,0.93  c-0.258,0.152-0.453,0.035-0.438-0.266L411.602,297.703z M411.363,302.406c0.008-0.312,0.238-0.66,0.496-0.809l1.586-0.938  c0.258-0.152,0.461-0.031,0.449,0.273l-0.105,1.824c0,0.309-0.223,0.668-0.496,0.812l-1.59,0.926  c-0.254,0.148-0.441,0.031-0.434-0.258L411.363,302.406z M410.358,284.229c0.245-0.161,0.458-0.033,0.431,0.255l-0.094,1.859  c-0.023,0.289-0.234,0.656-0.504,0.801l-0.49,0.288C409.907,286.321,410.125,285.25,410.358,284.229z M409.363,289.355l0.746-0.434  c0.25-0.141,0.449-0.027,0.426,0.273l-0.074,1.832c-0.023,0.305-0.242,0.664-0.488,0.82l-1.094,0.634  C409.031,291.417,409.193,290.375,409.363,289.355z M408.619,294.36l1.248-0.731c0.266-0.156,0.461-0.023,0.445,0.266l-0.102,1.84  c-0.02,0.297-0.23,0.66-0.496,0.809l-1.475,0.861C408.36,296.382,408.486,295.365,408.619,294.36z M408.026,299.269l1.603-0.933  c0.266-0.164,0.453-0.039,0.441,0.258l-0.09,1.844c-0.008,0.305-0.238,0.656-0.496,0.809l-1.781,1.04  C407.806,301.282,407.914,300.275,408.026,299.269z M401.641,344.254l0.055-1.027c0.008-0.301,0.23-0.668,0.496-0.812l1.578-0.93  c0.109-0.062,0.201-0.071,0.277-0.05C403.234,342.358,402.43,343.298,401.641,344.254z M404.379,338.891  c-0.008,0.297-0.25,0.672-0.504,0.816l-1.594,0.941c-0.266,0.137-0.441,0.023-0.43-0.273l0.09-1.855  c0.012-0.297,0.227-0.648,0.508-0.801l1.586-0.941c0.246-0.145,0.445-0.023,0.418,0.266L404.379,338.891z M404.602,334.191  c0,0.293-0.223,0.656-0.488,0.809l-1.578,0.926c-0.281,0.16-0.473,0.043-0.453-0.266l0.061-1.1c0.172-0.467,0.344-0.936,0.512-1.394  c0.019-0.051,0.036-0.098,0.055-0.148l1.549-0.937c0.262-0.145,0.453-0.023,0.453,0.273L404.602,334.191z M404.836,329.496  c0,0.289-0.215,0.656-0.465,0.809l-0.847,0.496c0.303-0.816,0.6-1.604,0.891-2.349c0.125-0.321,0.243-0.698,0.356-1.113  c0.106,0.033,0.175,0.137,0.17,0.306L404.836,329.496z M408.426,336.523c-0.001,0.028-0.013,0.059-0.017,0.088  c-0.052,0.056-0.099,0.107-0.15,0.164c-0.239,0.261-0.486,0.53-0.729,0.795l-1.179,0.688c-0.266,0.152-0.441,0.031-0.441-0.266  l0.098-1.855c0.02-0.281,0.246-0.637,0.484-0.801l1.605-0.93c0.242-0.145,0.441-0.023,0.43,0.262L408.426,336.523z M408.664,331.816  c-0.004,0.305-0.227,0.668-0.492,0.812l-1.59,0.926c-0.258,0.148-0.453,0.031-0.434-0.258l0.09-1.836  c0.02-0.301,0.238-0.668,0.504-0.812l1.582-0.934c0.262-0.148,0.457-0.027,0.457,0.277L408.664,331.816z M408.922,327.129  c-0.02,0.293-0.258,0.66-0.496,0.809l-1.594,0.926c-0.25,0.145-0.457,0.016-0.43-0.273l0.09-1.836c0-0.297,0.227-0.656,0.48-0.812  l1.59-0.926c0.266-0.148,0.461-0.023,0.438,0.266L408.922,327.129z M409.152,322.426c-0.008,0.301-0.223,0.656-0.492,0.801  l-1.574,0.938c-0.277,0.145-0.461,0.023-0.449-0.266l0.082-1.848c0.023-0.297,0.246-0.66,0.48-0.805l1.602-0.93  c0.258-0.145,0.461-0.027,0.445,0.27L409.152,322.426z M409.387,317.727c0,0.285-0.219,0.652-0.484,0.805l-1.594,0.93  c-0.258,0.156-0.449,0.031-0.438-0.254l0.094-1.855c0.008-0.289,0.234-0.656,0.496-0.793l1.598-0.93  c0.246-0.156,0.453-0.035,0.426,0.254L409.387,317.727z M411.746,332.923c-0.542,0.619-1.123,1.265-1.728,1.931l0.052-1.076  c0.012-0.305,0.227-0.672,0.48-0.809l1.605-0.938c0.176-0.107,0.334-0.062,0.397,0.08  C412.245,332.396,411.97,332.669,411.746,332.923z M412.727,329.453c0,0.289-0.219,0.656-0.492,0.801l-1.598,0.941  c-0.238,0.145-0.445,0.035-0.426-0.262l0.102-1.848c0.004-0.289,0.223-0.656,0.504-0.805l1.578-0.93  c0.266-0.137,0.453-0.035,0.445,0.266L412.727,329.453z M412.988,324.75c-0.023,0.297-0.25,0.664-0.488,0.805l-1.605,0.926  c-0.258,0.152-0.457,0.043-0.434-0.27l0.074-1.828c0.023-0.293,0.254-0.656,0.504-0.805l1.582-0.93  c0.273-0.148,0.457-0.035,0.445,0.273L412.988,324.75z M413.223,320.059c-0.012,0.301-0.234,0.66-0.496,0.805l-1.594,0.938  c-0.266,0.145-0.461,0.02-0.438-0.27l0.094-1.84c0.016-0.305,0.23-0.664,0.496-0.82l1.586-0.922  c0.258-0.145,0.461-0.031,0.434,0.266L413.223,320.059z M416.793,327.082c-0.016,0.297-0.227,0.66-0.492,0.809l-1.582,0.926  c-0.266,0.148-0.465,0.031-0.453-0.273l0.102-1.824c0.02-0.293,0.242-0.656,0.496-0.809l1.59-0.934  c0.266-0.152,0.457-0.023,0.441,0.266L416.793,327.082z M417.031,322.391c-0.008,0.289-0.238,0.656-0.477,0.801l-1.617,0.934  c-0.238,0.141-0.441,0.023-0.414-0.266l0.098-1.836c0.012-0.309,0.227-0.656,0.48-0.812l1.582-0.93  c0.273-0.152,0.453-0.035,0.441,0.262L417.031,322.391z M420.855,324.703c0,0.301-0.219,0.66-0.484,0.82l-1.586,0.926  c-0.258,0.148-0.465,0.023-0.445-0.266l0.105-1.848c0.012-0.293,0.219-0.66,0.5-0.805l1.566-0.918  c0.266-0.148,0.461-0.035,0.457,0.254L420.855,324.703z M426.682,322.48c-0.158,0.1-0.312,0.196-0.468,0.295  c-0.01-0.003-0.017-0.017-0.026-0.018c-0.121,0-0.254-0.086-0.316-0.199c-0.059-0.094-0.254-0.117-0.395-0.023  c-0.16,0.098-0.34,0.172-0.434,0.164c-0.055,0-0.129,0.031-0.129,0.078c-0.008,0.059-0.215,0.219-0.469,0.367l-1.602,0.938  c-0.242,0.145-0.449,0.023-0.438-0.273l0.102-1.836c0.008-0.289,0.051-0.562,0.102-0.59c0.051-0.016,0.051-0.086,0.016-0.16  c-0.051-0.07-0.074-0.27-0.051-0.453c0.008-0.184-0.09-0.332-0.215-0.344c-0.125-0.008-0.254-0.094-0.32-0.199  c-0.062-0.098-0.223-0.105-0.387-0.023c-0.145,0.094-0.336,0.168-0.434,0.164c-0.074,0-0.137,0.035-0.137,0.086  c0,0.059-0.227,0.223-0.473,0.359l-1.586,0.93c-0.258,0.152-0.457,0.023-0.434-0.258l0.074-1.844  c0.016-0.293,0.078-0.555,0.121-0.582c0.031-0.023,0.047-0.102,0-0.168c-0.02-0.07-0.055-0.266-0.055-0.453  c0.027-0.172-0.074-0.324-0.203-0.332c-0.109-0.012-0.258-0.094-0.305-0.195c-0.074-0.105-0.25-0.113-0.402-0.023  c-0.156,0.094-0.344,0.148-0.422,0.148c-0.082,0-0.145,0.043-0.148,0.09c0,0.047-0.219,0.219-0.465,0.363l-1.578,0.93  c-0.285,0.152-0.469,0.035-0.445-0.266l0.086-1.836c0.016-0.289,0.059-0.562,0.113-0.578c0.039-0.027,0.039-0.102,0-0.18  c-0.039-0.07-0.07-0.258-0.055-0.445c0.008-0.188-0.066-0.332-0.195-0.348c-0.121,0-0.266-0.078-0.324-0.188  c-0.055-0.105-0.23-0.113-0.371-0.027c-0.168,0.094-0.344,0.164-0.441,0.164c-0.066,0-0.145,0.031-0.145,0.078  s-0.219,0.219-0.465,0.363l-1.594,0.941c-0.238,0.137-0.445,0.023-0.426-0.273l0.094-1.844c0.004-0.293,0.055-0.551,0.105-0.578  c0.043-0.031,0.043-0.105,0-0.176c-0.023-0.066-0.062-0.273-0.051-0.453c0-0.18-0.082-0.324-0.199-0.34  c-0.117,0-0.258-0.094-0.316-0.18c-0.074-0.109-0.25-0.121-0.41-0.043c-0.148,0.109-0.344,0.18-0.414,0.188  c-0.07-0.008-0.141,0.031-0.141,0.078c0,0.043-0.227,0.199-0.469,0.359l-1.617,0.93c-0.234,0.145-0.43,0.023-0.426-0.266  l0.098-1.848c0.012-0.297,0.074-0.559,0.109-0.578c0.039-0.031,0.039-0.102,0.008-0.176c-0.035-0.07-0.051-0.258-0.043-0.438  c0-0.188-0.086-0.336-0.199-0.336c-0.068,0-0.142-0.035-0.207-0.083c0.018-0.183,0.034-0.36,0.051-0.545  c0.045-0.489,0.091-0.988,0.137-1.488l20.856,12.697C427.498,321.966,427.086,322.226,426.682,322.48z M432.693,318.669  c-0.569,0.365-1.136,0.727-1.699,1.085l-23.598-14.367c0.04-0.42,0.08-0.839,0.122-1.262l1.868-1.102  c0.258-0.137,0.449-0.016,0.438,0.273l-0.141,2.641c0,0.293,0.109,0.535,0.246,0.555c0.152,0.008,0.332,0.102,0.41,0.246  c0.07,0.121,0.34,0.094,0.586-0.051l2.273-1.332c0.254-0.152,0.461-0.027,0.449,0.266l-0.125,2.645  c-0.016,0.293,0.086,0.539,0.223,0.547c0.16,0,0.332,0.117,0.41,0.25c0.074,0.117,0.34,0.109,0.598-0.035l2.27-1.34  c0.273-0.156,0.453-0.035,0.445,0.273l-0.129,2.629c-0.016,0.297,0.094,0.547,0.238,0.551c0.156,0,0.316,0.105,0.395,0.242  c0.078,0.125,0.297,0.137,0.484,0.027c0.191-0.102,0.352-0.191,0.352-0.191c-0.008-0.016-0.008-0.016-0.008-0.016  s0.203-0.117,0.469-0.254l1.586-0.949c0.262-0.145,0.461-0.035,0.457,0.27l-0.148,2.645c0,0.297,0.094,0.539,0.246,0.543  c0.141,0.02,0.316,0.121,0.391,0.25c0.074,0.137,0.355,0.109,0.594-0.035l2.301-1.34c0.254-0.141,0.441-0.023,0.434,0.266  l-0.141,2.637c-0.016,0.301,0.09,0.547,0.234,0.559c0.16,0.004,0.328,0.117,0.41,0.246c0.086,0.125,0.34,0.102,0.602-0.047  l2.285-1.32c0.242-0.145,0.441-0.027,0.434,0.273l-0.145,2.629c-0.023,0.301,0.098,0.539,0.238,0.555  c0.164,0.008,0.324,0.113,0.398,0.23c0.094,0.129,0.34,0.113,0.609-0.023l2.273-1.332c0.27-0.156,0.445-0.035,0.434,0.254  L432.693,318.669z M432.914,314.414c-0.016,0.285-0.23,0.648-0.48,0.805l-1.605,0.922c-0.238,0.16-0.457,0.043-0.43-0.258  l0.086-1.859c0.016-0.293,0.227-0.66,0.5-0.805l1.59-0.922c0.258-0.152,0.449-0.031,0.434,0.266L432.914,314.414z M433.156,309.711  c-0.016,0.289-0.23,0.656-0.5,0.801l-1.578,0.926c-0.254,0.152-0.445,0.039-0.445-0.258l0.105-1.844  c0.016-0.309,0.223-0.66,0.48-0.812l1.602-0.93c0.246-0.148,0.445-0.027,0.438,0.262L433.156,309.711z M433.395,305.012  c-0.008,0.293-0.23,0.66-0.496,0.801l-1.582,0.934c-0.262,0.156-0.465,0.027-0.438-0.273l0.094-1.844  c0.012-0.297,0.234-0.66,0.488-0.809l1.59-0.926c0.258-0.137,0.453-0.027,0.445,0.266L433.395,305.012z M433.633,300.301  c-0.008,0.301-0.238,0.668-0.477,0.809l-1.594,0.941c-0.27,0.145-0.445,0.012-0.441-0.273l0.098-1.844  c0.016-0.293,0.227-0.66,0.484-0.805l1.59-0.93c0.254-0.145,0.457-0.031,0.43,0.266L433.633,300.301z M433.871,295.617  c-0.023,0.293-0.238,0.652-0.484,0.801l-1.586,0.926c-0.277,0.156-0.465,0.035-0.438-0.254l0.082-1.863  c0.02-0.289,0.242-0.652,0.496-0.805l1.59-0.938c0.254-0.137,0.461-0.016,0.434,0.273L433.871,295.617z M434.129,290.906  c-0.027,0.289-0.258,0.656-0.504,0.805l-1.598,0.93c-0.25,0.152-0.441,0.023-0.426-0.262l0.086-1.84  c0.016-0.297,0.238-0.664,0.484-0.801l0.943-0.55c0.149,0.111,0.289,0.234,0.45,0.332c0.196,0.121,0.403,0.22,0.611,0.317  L434.129,290.906z M436.78,316.013c-0.845,0.558-1.693,1.111-2.542,1.661l0.07-1.303c0.008-0.309,0.23-0.676,0.488-0.82l1.602-0.938  c0.258-0.137,0.445-0.02,0.438,0.27L436.78,316.013z M436.984,312.043c-0.027,0.293-0.242,0.656-0.492,0.801l-1.605,0.93  c-0.254,0.145-0.457,0.027-0.43-0.262l0.09-1.855c0.008-0.281,0.227-0.648,0.488-0.801l1.594-0.934  c0.262-0.145,0.473-0.023,0.438,0.27L436.984,312.043z M437.219,307.336c-0.008,0.301-0.234,0.656-0.496,0.812l-1.582,0.926  c-0.273,0.141-0.461,0.031-0.449-0.262l0.094-1.844c0.027-0.309,0.25-0.676,0.496-0.816l1.598-0.926  c0.246-0.145,0.445-0.035,0.434,0.258L437.219,307.336z M437.449,302.641c-0.008,0.301-0.219,0.656-0.492,0.809l-1.582,0.934  c-0.262,0.152-0.461,0.023-0.453-0.273l0.113-1.844c0.008-0.293,0.23-0.664,0.488-0.805l1.59-0.938  c0.266-0.148,0.461-0.035,0.449,0.273L437.449,302.641z M437.691,297.934c-0.012,0.293-0.242,0.66-0.48,0.801l-1.59,0.941  c-0.27,0.145-0.441,0.035-0.441-0.273l0.086-1.836c0.023-0.293,0.238-0.66,0.492-0.805l1.594-0.93  c0.254-0.16,0.457-0.031,0.441,0.258L437.691,297.934z M437.934,293.246c-0.004,0.289-0.227,0.648-0.492,0.805l-1.578,0.938  c-0.266,0.145-0.457,0.023-0.445-0.27l0.086-1.848c0.02-0.309,0.242-0.676,0.496-0.812l1.586-0.938  c0.273-0.145,0.461-0.031,0.438,0.266L437.934,293.246z M440.865,313.251c-0.833,0.577-1.681,1.155-2.539,1.73l0.049-0.985  c0.027-0.297,0.234-0.66,0.492-0.812l1.59-0.938c0.254-0.145,0.461-0.016,0.445,0.262L440.865,313.251z M441.043,309.664  c-0.016,0.293-0.238,0.656-0.492,0.805l-1.594,0.941c-0.25,0.145-0.457,0.023-0.441-0.27l0.094-1.844  c0.02-0.297,0.23-0.664,0.504-0.809l1.59-0.938c0.258-0.145,0.445-0.027,0.438,0.273L441.043,309.664z M441.293,304.973  c-0.02,0.289-0.238,0.648-0.496,0.801l-1.598,0.922c-0.262,0.137-0.453,0.027-0.438-0.266l0.098-1.836  c0.008-0.297,0.23-0.664,0.492-0.809l1.582-0.934c0.246-0.152,0.461-0.023,0.438,0.266L441.293,304.973z M441.523,300.266  c-0.012,0.309-0.23,0.656-0.496,0.812l-1.582,0.93c-0.262,0.145-0.461,0.035-0.438-0.273l0.082-1.836  c0.023-0.297,0.234-0.656,0.496-0.812l1.594-0.93c0.262-0.137,0.453-0.031,0.438,0.262L441.523,300.266z M441.754,295.562  c0,0.305-0.23,0.664-0.496,0.809l-1.578,0.926c-0.262,0.152-0.445,0.039-0.438-0.258l0.082-1.844c0.027-0.293,0.25-0.66,0.508-0.812  l1.578-0.922c0.266-0.156,0.453-0.031,0.453,0.266L441.754,295.562z M441.992,290.867c-0.008,0.305-0.238,0.664-0.48,0.809  l-1.586,0.938c-0.273,0.148-0.461,0.027-0.453-0.273l0.113-1.844c0.005-0.196,0.102-0.411,0.238-0.583  c0.742-0.249,1.499-0.592,2.26-1.009c0.009,0.038,0.021,0.072,0.021,0.119L441.992,290.867z M444.956,310.31  c-0.82,0.614-1.667,1.232-2.538,1.852l0.027-0.548c0.016-0.297,0.23-0.656,0.496-0.801l1.586-0.934  c0.258-0.148,0.445-0.023,0.438,0.266L444.956,310.31z M445.102,307.285c-0.012,0.309-0.23,0.676-0.48,0.82l-1.594,0.922  c-0.25,0.152-0.453,0.035-0.43-0.266l0.078-1.844c0.027-0.289,0.25-0.66,0.496-0.812l1.602-0.922  c0.246-0.152,0.441-0.035,0.43,0.258L445.102,307.285z M445.348,302.602c-0.012,0.285-0.234,0.652-0.496,0.797l-1.582,0.926  c-0.27,0.152-0.449,0.027-0.449-0.266l0.105-1.848c0.016-0.289,0.238-0.656,0.492-0.801l1.578-0.926  c0.266-0.168,0.473-0.031,0.445,0.258L445.348,302.602z M445.578,297.898c-0.008,0.301-0.215,0.66-0.488,0.812l-1.586,0.922  c-0.262,0.145-0.453,0.027-0.426-0.266l0.094-1.844c0.008-0.297,0.223-0.664,0.496-0.812l1.57-0.93  c0.266-0.152,0.453-0.031,0.438,0.27L445.578,297.898z M445.824,293.195c0,0.289-0.246,0.656-0.488,0.793l-1.586,0.934  c-0.262,0.152-0.461,0.031-0.441-0.258l0.102-1.852c0-0.289,0.223-0.656,0.477-0.801l1.594-0.922  c0.254-0.156,0.441-0.039,0.441,0.262L445.824,293.195z M446.062,288.5c-0.016,0.297-0.227,0.656-0.492,0.809l-1.59,0.934  c-0.246,0.141-0.445,0.016-0.434-0.27l0.094-1.855c0.006-0.064,0.023-0.131,0.045-0.199c0.619-0.427,1.236-0.902,1.848-1.425  l0.189-0.111c0.266-0.148,0.453-0.035,0.441,0.273L446.062,288.5z M446.532,309.105c0.062-0.265,0.242-0.543,0.479-0.668  l1.335-0.788C447.769,308.13,447.16,308.616,446.532,309.105z M449.176,304.918c-0.02,0.301-0.23,0.66-0.496,0.805l-1.594,0.93  c-0.25,0.156-0.441,0.035-0.43-0.254l0.09-1.852c0.023-0.301,0.242-0.66,0.484-0.812l1.602-0.934  c0.258-0.145,0.453-0.023,0.445,0.273L449.176,304.918z M449.406,300.219c0,0.293-0.223,0.66-0.492,0.809l-1.574,0.93  c-0.266,0.152-0.449,0.039-0.449-0.266l0.098-1.852c0.023-0.293,0.242-0.648,0.492-0.797l1.582-0.93  c0.25-0.156,0.461-0.035,0.453,0.258L449.406,300.219z M449.652,295.523c-0.012,0.309-0.23,0.656-0.496,0.812l-1.582,0.934  c-0.262,0.137-0.449,0.016-0.438-0.273l0.094-1.844c0.004-0.301,0.223-0.668,0.492-0.812l1.59-0.941  c0.254-0.141,0.461-0.016,0.434,0.273L449.652,295.523z M449.898,290.828c-0.016,0.285-0.234,0.652-0.492,0.797l-1.598,0.926  c-0.262,0.156-0.457,0.031-0.438-0.262l0.094-1.844c0.027-0.289,0.23-0.648,0.496-0.801l1.59-0.934  c0.238-0.145,0.457-0.027,0.441,0.266L449.898,290.828z M450.129,286.125c-0.023,0.293-0.23,0.66-0.488,0.812l-1.602,0.922  c-0.242,0.145-0.445,0.023-0.418-0.27l0.094-1.84c0.008-0.305,0.23-0.66,0.484-0.812l1.582-0.93  c0.277-0.145,0.461-0.035,0.453,0.254L450.129,286.125z M453.242,302.547c-0.012,0.297-0.238,0.656-0.488,0.809l-1.605,0.941  c-0.258,0.145-0.445,0.023-0.434-0.266l0.074-1.852c0.023-0.305,0.254-0.66,0.504-0.812l1.609-0.93  c0.25-0.152,0.441-0.035,0.422,0.27L453.242,302.547z M453.477,297.852c-0.012,0.305-0.234,0.656-0.492,0.801l-1.586,0.934  c-0.27,0.141-0.465,0.031-0.449-0.27l0.109-1.844c0.012-0.289,0.215-0.648,0.488-0.801l1.602-0.938  c0.242-0.145,0.449-0.02,0.422,0.27L453.477,297.852z M453.727,293.152c-0.027,0.301-0.234,0.668-0.496,0.812l-1.598,0.938  c-0.262,0.145-0.461,0.027-0.453-0.273l0.113-1.844c0.004-0.297,0.23-0.664,0.488-0.816l1.602-0.926  c0.25-0.145,0.449-0.031,0.449,0.27L453.727,293.152z M453.953,288.457c0,0.281-0.227,0.656-0.488,0.793l-1.602,0.93  c-0.254,0.16-0.453,0.031-0.434-0.262l0.109-1.848c0.008-0.289,0.23-0.652,0.492-0.793l1.578-0.938  c0.254-0.148,0.457-0.027,0.441,0.273L453.953,288.457z M454.804,301.06l0.056-1.255c0.016-0.293,0.242-0.656,0.496-0.812  l1.605-0.93c0.015-0.008,0.027-0.008,0.041-0.014C456.308,299.073,455.575,300.08,454.804,301.06z M457.535,295.477  c-0.012,0.289-0.223,0.656-0.492,0.793l-1.586,0.949c-0.266,0.145-0.449,0.031-0.441-0.258l0.102-1.863  c0.008-0.289,0.23-0.656,0.492-0.797l1.602-0.926c0.242-0.152,0.434-0.035,0.434,0.254L457.535,295.477z M457.781,290.777  c-0.012,0.309-0.23,0.676-0.496,0.82l-1.598,0.926c-0.246,0.141-0.445,0.027-0.422-0.258l0.082-1.859  c0.016-0.293,0.246-0.652,0.504-0.801l1.59-0.926c0.246-0.148,0.449-0.027,0.434,0.254L457.781,290.777z M459.098,294.725  c-0.012-0.043-0.022-0.088-0.02-0.146l0.094-1.844c0.016-0.289,0.23-0.656,0.48-0.812l1.416-0.816  C460.465,292.301,459.807,293.513,459.098,294.725z M462.229,288.69c-0.105,0.045-0.206,0.077-0.265,0.064  c-0.059,0-0.137,0.043-0.137,0.102c0,0.039-0.211,0.211-0.469,0.367l-1.613,0.934c-0.242,0.145-0.445,0.023-0.418-0.266l0.074-1.844  c0.023-0.301,0.074-0.562,0.121-0.586c0.047-0.031,0.059-0.113,0.016-0.184c-0.051-0.082-0.074-0.281-0.062-0.453  c0-0.168-0.082-0.316-0.199-0.324c-0.117,0-0.242-0.094-0.316-0.199c-0.062-0.102-0.25-0.109-0.402-0.023  c-0.156,0.094-0.34,0.168-0.422,0.168c-0.078,0-0.125,0.031-0.125,0.09c-0.023,0.035-0.23,0.199-0.488,0.352l-1.586,0.93  c-0.262,0.145-0.453,0.023-0.438-0.273l0.094-1.836c0.016-0.301,0.059-0.555,0.105-0.582c0.051-0.023,0.051-0.098,0.008-0.164  c-0.043-0.059-0.059-0.27-0.059-0.449c0.004-0.18-0.066-0.328-0.191-0.332c-0.121-0.012-0.27-0.102-0.332-0.207  c-0.051-0.094-0.238-0.109-0.391-0.012s-0.344,0.164-0.418,0.156s-0.137,0.039-0.152,0.086c0,0.043-0.199,0.215-0.465,0.359  l-1.586,0.93c-0.258,0.148-0.449,0.027-0.438-0.266l0.094-1.852c0.012-0.297,0.059-0.555,0.113-0.582  c0.031-0.031,0.047-0.094,0.008-0.16c-0.051-0.078-0.078-0.273-0.062-0.449c0-0.191-0.074-0.328-0.195-0.34  c-0.117,0-0.262-0.082-0.324-0.203c-0.062-0.102-0.238-0.102-0.391-0.016c-0.16,0.094-0.352,0.172-0.422,0.172  c-0.074-0.012-0.137,0.023-0.148,0.086c0,0.031-0.219,0.203-0.465,0.348l-0.578,0.333c0.615-0.768,1.209-1.583,1.776-2.437  l11.771,7.167C462.654,287.752,462.445,288.219,462.229,288.69z M464.086,284.216l-12.12-7.38c0.806-2.469-1.415-5.974-5.515-8.482  c-2.261-1.377-4.715-2.167-6.733-2.167c-1.438,0-2.588,0.413-3.331,1.164l-12.488-7.604c1.727-1.901,3.284-3.376,4.452-4.306  l37.514,22.832C465.576,279.738,464.981,281.807,464.086,284.216z M431.59,253.582c0.167-0.079,0.344-0.162,0.524-0.246  c0.05,0.033,0.098,0.071,0.132,0.117c0.047,0.094,0.234,0.109,0.387,0.008c0.141-0.082,0.332-0.16,0.418-0.145  c0.078,0,0.137-0.031,0.141-0.094c-0.004-0.043,0.203-0.211,0.469-0.359l1.594-0.934c0.266-0.145,0.445-0.023,0.438,0.27  l-0.094,1.828c-0.02,0.297-0.062,0.57-0.102,0.59c-0.055,0.02-0.055,0.109-0.016,0.168c0.055,0.07,0.055,0.266,0.055,0.453  c-0.012,0.18,0.086,0.324,0.199,0.344c0.133,0.004,0.266,0.094,0.332,0.188c0.047,0.102,0.223,0.109,0.387,0.023  c0.152-0.086,0.332-0.16,0.418-0.16c0.066,0,0.141-0.035,0.141-0.078c0.012-0.051,0.219-0.215,0.465-0.359l1.602-0.938  c0.258-0.145,0.445-0.035,0.438,0.254l-0.098,1.863c-0.004,0.297-0.055,0.555-0.094,0.57c-0.055,0.027-0.055,0.105-0.012,0.164  c0.023,0.078,0.062,0.281,0.051,0.453c-0.012,0.188,0.082,0.332,0.188,0.34c0.129,0,0.266,0.094,0.328,0.195  c0.055,0.098,0.234,0.113,0.398,0.02c0.145-0.086,0.34-0.156,0.414-0.156c0.07,0.012,0.141-0.031,0.148-0.082  c0-0.043,0.215-0.223,0.461-0.367l1.59-0.922c0.254-0.156,0.469-0.035,0.445,0.254l-0.094,1.852  c-0.012,0.293-0.062,0.559-0.098,0.59c-0.043,0.02-0.043,0.09-0.008,0.145c0.035,0.078,0.055,0.273,0.035,0.457  c0,0.176,0.086,0.348,0.211,0.348c0.121,0,0.258,0.094,0.316,0.195c0.051,0.094,0.242,0.117,0.395,0.027  c0.148-0.102,0.352-0.164,0.418-0.164c0.086,0.016,0.152-0.031,0.152-0.094c0.016-0.039,0.211-0.211,0.461-0.359l1.598-0.922  c0.25-0.152,0.461-0.031,0.453,0.27l-0.121,1.832c0,0.281-0.043,0.562-0.094,0.578c-0.043,0.023-0.051,0.113-0.016,0.168  c0.051,0.074,0.078,0.266,0.066,0.449c-0.016,0.18,0.062,0.332,0.195,0.344c0.121,0.008,0.258,0.082,0.309,0.195  c0.062,0.102,0.242,0.105,0.395,0.008c0.172-0.078,0.352-0.152,0.441-0.152c0.07,0.004,0.141-0.035,0.148-0.078  c-0.008-0.051,0.203-0.23,0.469-0.367l1.598-0.93c0.238-0.152,0.426-0.031,0.414,0.262l-0.074,1.848  c-0.016,0.289-0.074,0.555-0.121,0.582c-0.043,0.023-0.043,0.102,0,0.172c0.027,0.066,0.055,0.27,0.047,0.445  c-0.02,0.176,0.074,0.328,0.199,0.336c0.117,0.008,0.262,0.094,0.316,0.195c0.07,0.105,0.242,0.121,0.406,0.027  c0.16-0.094,0.34-0.164,0.398-0.164c0.105,0.02,0.168-0.031,0.156-0.078c0.012-0.047,0.23-0.223,0.484-0.367l1.574-0.918  c0.27-0.156,0.461-0.043,0.438,0.258l-0.098,1.852c-0.008,0.289-0.055,0.555-0.086,0.578c-0.062,0.02-0.051,0.098-0.012,0.172  c0.027,0.059,0.055,0.258,0.043,0.445c-0.012,0.18,0.082,0.324,0.195,0.332c0.117,0.008,0.27,0.094,0.32,0.199  c0.059,0.098,0.25,0.117,0.414,0.016c0.141-0.086,0.328-0.16,0.41-0.156c0.082,0.008,0.145-0.035,0.16-0.086  c0-0.043,0.207-0.207,0.449-0.363l1.605-0.926c0.258-0.152,0.445-0.023,0.418,0.266l-0.094,1.844  c-0.004,0.301-0.055,0.551-0.094,0.59c-0.043,0.016-0.035,0.094-0.012,0.164c0.039,0.066,0.066,0.262,0.066,0.434  c-0.016,0.191,0.066,0.336,0.188,0.352c0.125,0.008,0.262,0.094,0.332,0.195c0.043,0.094,0.23,0.109,0.383,0.016  c0.164-0.102,0.344-0.156,0.422-0.156c0.07,0.012,0.125-0.023,0.145-0.082c0-0.051,0.199-0.223,0.461-0.367l1.609-0.93  c0.246-0.145,0.438-0.031,0.43,0.262l-0.09,1.852c-0.012,0.289-0.078,0.555-0.094,0.582c-0.055,0.027-0.055,0.105-0.027,0.164  c0.043,0.062,0.059,0.273,0.043,0.453c0,0.172,0.105,0.324,0.203,0.332c0.129,0.012,0.266,0.105,0.332,0.199  c0.078,0.094,0.25,0.109,0.395,0.016c0.148-0.09,0.348-0.168,0.426-0.164c0.078,0.012,0.129-0.023,0.129-0.074  c0.004-0.051,0.211-0.207,0.477-0.363l1.572-0.916c0.081,1.528,0.146,2.891,0.188,3.972L431.59,253.582z"/>
</svg>