<svg xmlns="http://www.w3.org/2000/svg" xmlns:xlink="http://www.w3.org/1999/xlink" version="1.1" id="Layer_1" x="0px" y="0px" width="100px" height="100px" viewBox="0 0 100 100" enable-background="new 0 0 100 100" xml:space="preserve">
<path fill="#000000" d="M8.57,58.227c-0.157,3.133,3.54,6.443,8.257,7.393c4.718,0.949,8.67-0.82,8.826-3.953  c0.157-3.135-3.541-6.443-8.258-7.393C12.678,53.322,8.727,55.094,8.57,58.227z M91.39,58.227c-0.156-3.133-4.107-4.904-8.825-3.953  c-4.719,0.949-8.416,4.258-8.259,7.393c0.157,3.133,4.107,4.902,8.826,3.953C87.85,64.67,91.546,61.359,91.39,58.227z   M75.061,68.285H24.762c1.65,3.471,12.281,6.146,25.148,6.146C62.78,74.432,73.41,71.756,75.061,68.285z M49.979,13.886  c-10.645,0.067-23.055,0.451-33.242,2.9c-0.905,0.172-1.011,1.124-1.011,1.124l-0.872,23.167c-0.074,4.018,4.514,5.844,35.124,5.941  c30.61-0.097,35.2-1.923,35.124-5.941l-0.87-23.167c0,0-0.106-0.952-1.013-1.124C73.034,14.337,60.624,13.953,49.979,13.886z   M50.147,91.148l-2.797-0.002c-10.396-0.041-20.596-0.238-29.079-0.865v4.732c0,2.596-2.104,4.699-4.698,4.699H9.709  c-2.595,0-4.698-2.104-4.698-4.699v-9.883c-0.1-0.881-0.207-1.893-0.311-3.021c-0.798-4.145-1.26-9.039-1.26-14.285  c0-6.652,0.742-12.744,1.972-17.449c0.244-1.072,0.541-2.028,0.875-2.881c0.103-0.292,0.208-0.578,0.316-0.854l4.674-31.986  c0,0,0.189-1.333,1.381-1.63c4.654-1.267,12.16-2.04,19.238-2.507l0.516-0.034c1.811-0.133,4.769-0.544,4.769-2.749l0.001-5.478  C37.184,1.01,38.193,0,39.439,0h20.857c1.247,0,2.256,1.01,2.256,2.256l0.001,5.478c0,1.85,2.086,2.438,3.827,2.657  c7.633,0.45,16.154,1.245,21.254,2.632c1.193,0.298,1.383,1.63,1.383,1.63l4.672,31.986c0.107,0.276,0.214,0.562,0.318,0.854  c0.333,0.853,0.63,1.809,0.873,2.881c1.231,4.705,1.973,10.796,1.973,17.449c0,5.246-0.46,10.141-1.259,14.285  c-0.104,1.129-0.211,2.141-0.312,3.021v9.883c0,2.596-2.104,4.699-4.697,4.699h-3.863c-2.595,0-4.698-2.104-4.698-4.699v-4.732  c-8.483,0.627-18.683,0.824-29.079,0.865L50.147,91.148z"/>
</svg>