<svg xmlns="http://www.w3.org/2000/svg" xmlns:xlink="http://www.w3.org/1999/xlink" version="1.1" id="Layer_1" x="0px" y="0px" width="100px" height="100px" viewBox="0 0 100 100" enable-background="new 0 0 100 100" xml:space="preserve">
<path fill="#000000" d="M82.018,14.682c0-4.607-3.735-8.341-8.343-8.341H26.4c-4.607,0-8.342,3.734-8.342,8.341v67.437  c0,0.597,0,1.739,0,1.739l0.637,1.457c0.018,0.044,0.039,0.088,0.058,0.133l3.708,8.49h6.604l1.739-3.477h3.824l1.738,3.477h41.366  l4.286-10.08c0,0,0-1.143,0-1.739V14.682z M28.023,17.508h45.189v61.134H28.023V17.508z M79.298,83.342H21.021  c-0.203,0-0.368-0.164-0.368-0.367s0.165-0.368,0.368-0.368h58.276c0.203,0,0.368,0.165,0.368,0.368S79.501,83.342,79.298,83.342z"/>
</svg>