<svg xmlns="http://www.w3.org/2000/svg" xmlns:xlink="http://www.w3.org/1999/xlink" version="1.1" id="Layer_1" x="0px" y="0px" width="100px" height="100px" viewBox="0 0 100 100" enable-background="new 0 0 100 100" xml:space="preserve">
<polygon fill="#000000" points="93.969,24.25 93.969,34.968 91.637,34.968 91.637,27.426 6.492,27.426 6.492,34.968 4.656,34.968   4.656,24.25 "/>
<path fill="#000000" d="M4.656,35.761V76.25h89.312V35.761h-3.125v-7.542H7.286v7.542H4.656z M29.961,43.52  c-0.116-0.005-0.229-0.018-0.347-0.018c-3.196,0-5.949,1.871-7.244,4.573v-6.161h7.591V43.52z M29.82,49.47v4.934  c-1.363,0-2.467-1.104-2.467-2.467C27.354,50.574,28.457,49.47,29.82,49.47z M68.664,55.188c0.084,0.006,0.162,0.024,0.248,0.024  c1.809,0,3.274-1.466,3.274-3.274V41.914h11.164c0,0,3.374,5.16,3.374,10.122s-3.572,10.32-3.572,10.32H68.664V55.188z   M68.769,54.404V49.47c1.362,0,2.467,1.104,2.467,2.467C71.235,53.3,70.131,54.404,68.769,54.404z M68.664,41.914h2.729v7.907  c-0.601-0.703-1.482-1.159-2.48-1.159c-0.086,0-0.164,0.019-0.248,0.025V41.914z M32.822,45.77c0-2.124,1.722-3.846,3.846-3.846  h25.719c2.123,0,3.846,1.722,3.846,3.846v12.818c0,2.124-1.723,3.847-3.846,3.847H36.668c-2.124,0-3.846-1.723-3.846-3.847V45.77z   M11.9,52.036c0-4.962,3.374-10.122,3.374-10.122h6.302v9.626c0,4.439,3.599,8.038,8.038,8.038c0.117,0,0.23-0.013,0.347-0.018  v2.796H15.473C15.473,62.356,11.9,56.998,11.9,52.036z"/>
</svg>