<svg xmlns="http://www.w3.org/2000/svg" xmlns:xlink="http://www.w3.org/1999/xlink" version="1.1" id="Layer_1" x="0px" y="0px" width="100px" height="100px" viewBox="0 0 100 100" enable-background="new 0 0 100 100" xml:space="preserve">
<path fill="#000000" d="M26.023,41.678v36.562c0,1.96,1.589,3.55,3.549,3.55h39.639c1.962,0,3.551-1.59,3.551-3.55V41.678H26.023z"/>
<path fill="#000000" d="M83.416,32.421V15.906L71.043,4.036H18.725c-1.855,0-3.357,1.501-3.357,3.357v19.476h2.899v2.396h-0.991  c-0.501,0-0.908,0.405-0.908,0.907v3.291c0,0.501,0.407,0.908,0.908,0.908h0.991v11.194h-2.899v46.285  c0,1.854,1.501,3.355,3.357,3.355h25.731v-0.83h9.873v0.83h25.732c1.854,0,3.355-1.502,3.355-3.355V37.236h-2.021v-4.814H83.416z   M70.657,93.142H28.629c-0.613,0-1.11-0.497-1.11-1.11s0.497-1.11,1.11-1.11h42.028c0.613,0,1.11,0.497,1.11,1.11  S71.271,93.142,70.657,93.142z M75.079,79.762c0,2.142-1.735,3.879-3.877,3.879H27.906c-2.143,0-3.878-1.737-3.878-3.879V23.217  c0-2.142,1.736-3.877,3.878-3.877h43.296c2.142,0,3.877,1.736,3.877,3.877V79.762z"/>
</svg>