<svg xmlns="http://www.w3.org/2000/svg" xmlns:xlink="http://www.w3.org/1999/xlink" version="1.1" id="Layer_1" x="0px" y="0px" width="100px" height="100px" viewBox="0 0 100 100" enable-background="new 0 0 100 100" xml:space="preserve">
<path d="M49.984,50.872c-1.917,0-3.478,1.56-3.478,3.478s1.561,3.479,3.478,3.479s3.478-1.561,3.478-3.479  S51.901,50.872,49.984,50.872z"/>
<path d="M56.309,46.802l10.789-12.878c-0.898-0.753-1.849-1.446-2.842-2.079l-9,14.194C55.622,46.271,55.975,46.523,56.309,46.802z"/>
<path d="M54.82,48.578c-0.254-0.212-0.525-0.405-0.806-0.584c-0.292-0.186-0.598-0.352-0.915-0.498  c-0.951-0.434-2.004-0.682-3.115-0.682c-4.155,0-7.536,3.381-7.536,7.535c0,0.988,0.196,1.931,0.543,2.797  c0.468,1.161,1.213,2.182,2.157,2.975c0.253,0.213,0.525,0.406,0.806,0.584c0.292,0.187,0.598,0.353,0.915,0.498  c0.951,0.435,2.003,0.683,3.115,0.683c4.155,0,7.535-3.381,7.535-7.536c0-0.987-0.196-1.931-0.542-2.796  C56.509,50.392,55.764,49.371,54.82,48.578z M49.984,60.146c-3.196,0-5.796-2.601-5.796-5.797c0-3.195,2.601-5.796,5.796-5.796  c3.196,0,5.796,2.601,5.796,5.796C55.78,57.546,53.181,60.146,49.984,60.146z"/>
<path d="M43.661,61.897L32.872,74.776c0.897,0.754,1.849,1.446,2.841,2.079l9-14.194C44.347,62.43,43.994,62.177,43.661,61.897z"/>
<path d="M83.321,4.688H16.647c-1.468,0-2.658,1.19-2.658,2.658v86.388c0,1.468,1.19,2.658,2.658,2.658h66.674  c1.468,0,2.658-1.19,2.658-2.658V7.346C85.979,5.877,84.789,4.688,83.321,4.688z M19.306,12.803v-1.33  c0-1.468,1.19-2.658,2.658-2.658h54.492c1.468,0,2.658,1.19,2.658,2.658v1.33c0,1.468-1.19,2.658-2.658,2.658H21.963  C20.496,15.461,19.306,14.271,19.306,12.803z M21.002,54.35c0-15.98,13.002-28.982,28.982-28.982S78.967,38.369,78.967,54.35  c0,7.526-2.885,14.394-7.606,19.551v-7.271l-10.185-6.202l-0.522,0.518l6.444,5.98v10.801c-4.8,3.522-10.718,5.606-17.113,5.606  C34.004,83.332,21.002,70.331,21.002,54.35z M68.223,65.799c0,0.356-0.289,0.646-0.646,0.646s-0.646-0.289-0.646-0.646  s0.289-0.646,0.646-0.646S68.223,65.442,68.223,65.799z M66.376,64.451c0,0.224-0.182,0.406-0.405,0.406  c-0.225,0-0.407-0.183-0.407-0.406c0-0.225,0.183-0.406,0.407-0.406C66.194,64.045,66.376,64.227,66.376,64.451z M61.625,92.5  c-1.035,0-1.875-0.84-1.875-1.875s0.84-1.875,1.875-1.875s1.875,0.84,1.875,1.875S62.66,92.5,61.625,92.5z M67.098,92.5  c-1.035,0-1.875-0.84-1.875-1.875s0.84-1.875,1.875-1.875s1.875,0.84,1.875,1.875S68.133,92.5,67.098,92.5z M69.042,76.166  c-0.511-0.107-0.894-0.559-0.894-1.101c0-0.622,0.504-1.126,1.126-1.126c0.57,0,1.037,0.425,1.111,0.976  C69.95,75.346,69.503,75.763,69.042,76.166z M69.367,72.831c-0.613,0-1.108-0.495-1.108-1.107c0-0.611,0.495-1.107,1.108-1.107  c0.611,0,1.106,0.496,1.106,1.107C70.474,72.336,69.979,72.831,69.367,72.831z M69.33,69.509c-0.633,0-1.146-0.512-1.146-1.145  c0-0.632,0.513-1.145,1.146-1.145c0.632,0,1.144,0.513,1.144,1.145C70.474,68.997,69.962,69.509,69.33,69.509z M72.57,92.5  c-1.035,0-1.875-0.84-1.875-1.875s0.84-1.875,1.875-1.875s1.875,0.84,1.875,1.875S73.605,92.5,72.57,92.5z M78.043,92.5  c-1.035,0-1.875-0.84-1.875-1.875s0.84-1.875,1.875-1.875s1.875,0.84,1.875,1.875S79.078,92.5,78.043,92.5z"/>
</svg>