<svg xmlns="http://www.w3.org/2000/svg" xmlns:xlink="http://www.w3.org/1999/xlink" version="1.1" id="Layer_1" x="0px" y="0px" width="100px" height="100px" viewBox="0 0 100 100" enable-background="new 0 0 100 100" xml:space="preserve">
<path fill="#000000" d="M99.931,41.728h-8.552c0.332,0.682,1.241,2.065,3.166,2.065h0.639c0,0,2.554,0,2.554,2.553v11.825  c0,0,0,2.554-1.541,2.554c0,0-1.538,0-1.538,2.553v0.538c0,0-0.004,0.566-0.271,1.166h0.6c2.552,0,2.552,2.553,2.552,2.553v29.911  c0,2.555-2.552,2.555-2.552,2.555H85.28c-2.554,0-2.554-2.555-2.554-2.555V87.313H66.152c0.052,0.275,0.054,0.467,0.054,0.467v0.091  c0,2.553-2.554,2.553-2.554,2.553H37.024c-2.554,0-2.554-2.553-2.554-2.553V87.78c0-0.167,0.012-0.321,0.032-0.467h-16.96v10.132  C17.543,100,14.99,100,14.99,100H5.284c-2.554,0-2.554-2.555-2.554-2.555V67.534c0-2.553,2.554-2.553,2.554-2.553h0.832  c-0.142-0.313-0.229-0.695-0.229-1.166V63.56c0,0,0-2.553-2.259-2.553c0,0-2.259,0-2.259-2.555v-9.955c0,0,0-2.553,2.554-2.553  h0.638c0,0,2.554,0,3.35-2.427l0.575-1.75c-0.019-0.012-0.035-0.028-0.054-0.04H0v-6.566h8.925v5.26l5.599-17.06  c0,0,0.797-2.426,3.35-2.426h64.382c0,0,2.555,0,3.32,2.436l5.424,17.27c0.002-0.001,0.003-0.002,0.005-0.003v-5.477h8.927V41.728z   M23.526,57.87c2.645,0,4.789-2.145,4.789-4.789c0-2.645-2.144-4.788-4.789-4.788c-2.643,0-4.786,2.143-4.786,4.788  C18.74,55.726,20.883,57.87,23.526,57.87L23.526,57.87z M76.19,57.87c2.646,0,4.789-2.145,4.789-4.789  c0-2.645-2.144-4.788-4.789-4.788c-2.644,0-4.786,2.143-4.786,4.788C71.404,55.726,73.547,57.87,76.19,57.87L76.19,57.87z   M7.386,50.481v5.198h6.839v-5.198H7.386L7.386,50.481z M85.904,50.481v5.198h6.838v-5.198H85.904L85.904,50.481z"/>
</svg>