<svg xmlns="http://www.w3.org/2000/svg" xmlns:xlink="http://www.w3.org/1999/xlink" version="1.1" id="Layer_1" x="0px" y="0px" width="100px" height="100px" viewBox="-346 256 100 100" enable-background="new -346 256 100 100" xml:space="preserve">
<path fill="#000000" d="M-246.218,299.845l-5.04,1.231l-2.685-2.958l-1.622,1.938c-2.766-2.586-6.468-4.169-10.554-4.169  c-8.497,0-15.39,6.85-15.472,15.328h0.002v9.551h3.509v4.409h4.421v14.785h6.499v4.462h-10.785l6.528,11.479h-4.255l-6.925-11.479  h-9.269c0.34,0.92,0.534,1.909,0.534,2.947c0,4.712-3.821,8.531-8.531,8.531c-4.712,0-8.529-3.819-8.529-8.531  c0-1.038,0.195-2.027,0.534-2.947h-11.071v-4.462h-4.705v-7.396l-18.043-10.962l-3.253,1.954l-1.042-1.754l23.987-14.415  l1.042,1.755l-3.087,1.855l7.75,17.66l6.312,3.547c0,0,0-12.981,0-12.981h-2.188v-2.209h6.918v2.209h-2.156v13.271l1.664,0.01  v-7.329h15.904v-4.409h3.735v-9.399h-0.002c0-0.014,0.002-0.026,0.002-0.04v-0.111h0.006c0.081-10.96,8.983-19.821,19.964-19.821  c4.181,0,8.038,1.3,11.24,3.495l0.597-1.091L-246.218,299.845z M-299.876,351.392c2.221,0,4.023-1.799,4.023-4.023  c0-2.22-1.803-4.022-4.023-4.022c-2.224,0-4.025,1.803-4.025,4.022C-303.902,349.593-302.1,351.392-299.876,351.392z   M-299.876,348.979c0.889,0,1.609-0.722,1.609-1.611c0-0.888-0.721-1.607-1.609-1.607c-0.891,0-1.611,0.72-1.611,1.607  C-301.488,348.258-300.767,348.979-299.876,348.979z"/>
</svg>