<?xml version="1.0" encoding="utf-8"?>
<!-- Generator: Adobe Illustrator 14.0.0, SVG Export Plug-In . SVG Version: 6.00 Build 43363)  -->
<!DOCTYPE svg PUBLIC "-//W3C//DTD SVG 1.0//EN" "http://www.w3.org/TR/2001/REC-SVG-20010904/DTD/svg10.dtd">
<svg version="1.0" id="Layer_1" xmlns="http://www.w3.org/2000/svg" xmlns:xlink="http://www.w3.org/1999/xlink" x="0px" y="0px"
	 width="100px" height="31.396px" viewBox="0 0 100 31.396" enable-background="new 0 0 100 31.396" xml:space="preserve">
<path d="M100,20.455h-2.326l-2.68-11.303h-6.478V8.036h6.478V6.509l-1.572,0.047l-0.046-5.159h1.666V0H49.01v1.438h0.833
	l0.004,5.071h-1.028v1.527h5.511v1.117l-7.112,0.006V1.31h-6.054v1.654l-2.104,0.091c-0.908,0.036-1.896-0.015-2.629,0.608
	c-0.732,0.625-0.898,1.583-1.011,2.481l-0.526,4.104l-0.301-3.49c-0.059-0.65-0.312-1.405-0.869-1.802
	c-0.223-0.155-0.46-0.277-0.713-0.378c0.199-0.063,0.379-0.148,0.541-0.277c0.23-0.179,0.39-0.381,0.499-0.644
	c0.089-0.208,0.126-0.426,0.145-0.646l1.184,0.872l0.131-0.305l-1.098-0.921c-0.09-0.243-0.202-0.467-0.339-0.696
	c-0.272-0.454-0.649-0.868-1.07-1.192c-0.319-0.245-0.689-0.439-1.083-0.527c-0.235-0.047-0.464-0.069-0.707-0.065V0.22
	l-0.173,1.176h-1.754v0.218c0.132,0.023,0.271,0.04,0.408,0.061c0.111,0.01,0.223,0.019,0.338,0.031
	c0.247,0.039,0.496,0.08,0.745,0.125c-0.137,0.305-0.253,0.611-0.301,0.94c-0.064,0.438,0.06,0.914,0.366,1.241
	c0.245,0.257,0.544,0.446,0.855,0.609c-0.211,0.113-0.416,0.232-0.594,0.385c-0.211,0.185-0.402,0.391-0.563,0.624
	c-0.138,0.203-0.243,0.423-0.333,0.65c-0.095,0.3-0.181,0.601-0.25,0.903c-0.141,0.611-0.241,1.232-0.368,1.845l-0.259,1.394h-3.157
	l-0.79-3.618l0.261-6.102h-1.139L23.76,6.28L6.927,8.419C6.644,8.457,6.363,8.482,6.085,8.524C5.806,8.557,5.52,8.641,5.3,8.816
	C5.011,9.049,4.766,9.399,4.733,9.767l-0.834,9.508c-0.034,0.361-0.203,0.724-0.48,0.96c-0.273,0.229-0.615,0.27-0.966,0.262
	L0,20.456v2.747h8.33c-0.241,1.121-0.438,2.2-0.152,3.327c0.394,1.538,1.386,2.885,2.716,3.748c0.916,0.6,2.073,0.768,3.134,0.9
	c1.218-0.096,2.263-0.222,3.311-0.855c1.395-0.836,2.399-2.227,2.827-3.777c0.294-1.089,0.086-2.269-0.135-3.343h46.429
	c-0.312,1.125-0.573,2.212-0.332,3.373c0.328,1.584,1.298,2.979,2.636,3.89c0.921,0.625,2.102,0.798,3.178,0.931
	c1.238-0.112,2.314-0.249,3.372-0.922c1.378-0.881,2.347-2.319,2.7-3.904c0.249-1.113-0.04-2.296-0.33-3.367H100V20.455z
	 M88.645,1.438h3.508V6.5h-3.508V1.438z M50.806,6.51V1.438h3.512l0.012,5.072H50.806z M83.867,1.438h3.502V6.5h-3.502V1.438z
	 M79.134,1.438h3.504V6.5h-3.504V1.438z M74.44,1.438h3.502V6.5H74.44V1.438z M69.707,1.438h3.508V6.5h-3.508V1.438z M64.97,1.438
	h3.512V6.5H64.97V1.438z M60.192,1.438H63.7V6.5h-3.508V1.438z M55.414,1.438h3.502l0.015,5.072H55.41L55.414,1.438z M87.58,9.154
	H55.41V8.035h32.17V9.154z"/>
</svg>
