<svg xmlns="http://www.w3.org/2000/svg" xmlns:xlink="http://www.w3.org/1999/xlink" version="1.1" id="Layer_1" x="0px" y="0px" width="100px" height="100px" viewBox="0 0 100 100" enable-background="new 0 0 100 100" xml:space="preserve">
<path d="M90.538,60.889c0.021-0.411,0.023-0.828,0.032-1.242c0.005-0.274,0.021-0.547,0.021-0.822l0,0c0-0.003,0-0.006,0-0.009  c0-1.024-0.051-2.036-0.126-3.041l0,0c0-0.005-0.001-0.01-0.002-0.016c-0.048-0.644-0.111-1.282-0.189-1.917v-0.001  c-1.1-8.895-5.103-16.885-11.037-22.996c-0.053-0.055-0.104-0.11-0.157-0.165c-0.35-0.355-0.708-0.702-1.069-1.044  c-0.097-0.091-0.19-0.184-0.288-0.274c-0.336-0.312-0.68-0.614-1.026-0.915c-0.131-0.113-0.261-0.229-0.394-0.34  c-0.327-0.276-0.661-0.544-0.997-0.81c-0.16-0.126-0.318-0.253-0.48-0.377c-0.322-0.247-0.649-0.486-0.979-0.723  c-0.185-0.133-0.37-0.266-0.557-0.396c-0.318-0.22-0.64-0.435-0.963-0.646c-0.208-0.135-0.417-0.27-0.627-0.401  c-0.314-0.197-0.633-0.389-0.953-0.578c-0.229-0.134-0.458-0.266-0.688-0.396c-0.312-0.175-0.627-0.347-0.944-0.514  c-0.248-0.131-0.498-0.258-0.749-0.384c-0.31-0.155-0.62-0.307-0.934-0.454c-0.268-0.125-0.537-0.246-0.807-0.365  c-0.308-0.136-0.615-0.27-0.927-0.398c-0.283-0.117-0.57-0.228-0.857-0.338c-0.306-0.118-0.611-0.235-0.921-0.346  c-0.301-0.107-0.604-0.207-0.908-0.307c-0.187-0.062-0.371-0.13-0.559-0.189c-0.654-0.745-2.793-1.377-5.735-1.754  c2.294-1.843,3.766-4.667,3.766-7.839c0-5.552-4.5-10.054-10.053-10.054S40.375,5.34,40.375,10.893c0,3.172,1.472,5.996,3.767,7.839  c-2.944,0.377-5.082,1.009-5.736,1.755c-0.188,0.059-0.373,0.127-0.56,0.189c-0.302,0.1-0.605,0.199-0.904,0.306  c-0.311,0.111-0.619,0.229-0.926,0.348c-0.285,0.109-0.57,0.22-0.852,0.335c-0.313,0.129-0.624,0.264-0.933,0.401  c-0.268,0.118-0.534,0.237-0.799,0.361c-0.317,0.148-0.631,0.302-0.943,0.458c-0.248,0.124-0.494,0.249-0.738,0.378  c-0.321,0.169-0.64,0.343-0.956,0.52c-0.227,0.127-0.452,0.257-0.676,0.389c-0.325,0.191-0.647,0.386-0.966,0.585  c-0.205,0.128-0.408,0.26-0.611,0.392c-0.329,0.215-0.656,0.433-0.979,0.657c-0.181,0.125-0.36,0.254-0.539,0.383  c-0.336,0.241-0.669,0.485-0.997,0.736c-0.154,0.119-0.307,0.24-0.459,0.361c-0.343,0.271-0.684,0.545-1.018,0.827  c-0.125,0.105-0.246,0.213-0.369,0.32c-0.355,0.308-0.708,0.618-1.052,0.937c-0.086,0.08-0.169,0.162-0.255,0.243  c-0.374,0.353-0.743,0.71-1.103,1.077c-0.039,0.04-0.076,0.081-0.115,0.121c-7.044,7.235-11.389,17.11-11.389,28.006  c0,0.003,0,0.006,0,0.009l0,0c0,0.275,0.016,0.548,0.021,0.822c0.008,0.414,0.011,0.831,0.032,1.242  c0.006,0.121,0.021,0.241,0.027,0.362c0.594,9.922,4.791,18.87,11.3,25.561c0.046,0.048,0.091,0.098,0.138,0.145  c0.352,0.358,0.712,0.706,1.077,1.05c0.095,0.09,0.187,0.182,0.282,0.27c0.336,0.312,0.68,0.613,1.026,0.913  c0.131,0.114,0.261,0.229,0.394,0.342c0.326,0.274,0.659,0.542,0.994,0.807c0.161,0.128,0.321,0.256,0.484,0.381  c0.319,0.245,0.645,0.482,0.972,0.718c0.188,0.135,0.375,0.27,0.564,0.401c0.314,0.218,0.633,0.431,0.955,0.64  c0.211,0.138,0.422,0.274,0.636,0.408c0.311,0.194,0.625,0.384,0.941,0.57c0.232,0.136,0.466,0.271,0.701,0.402  c0.308,0.173,0.618,0.342,0.932,0.507c0.252,0.133,0.506,0.263,0.761,0.39c0.306,0.153,0.613,0.304,0.923,0.448  c0.271,0.127,0.543,0.249,0.816,0.369c0.304,0.135,0.608,0.267,0.917,0.394c0.288,0.118,0.579,0.231,0.87,0.343  c0.302,0.116,0.603,0.231,0.907,0.341c0.305,0.108,0.613,0.21,0.921,0.312c0.299,0.099,0.599,0.198,0.901,0.29  c0.32,0.097,0.644,0.186,0.967,0.274c0.297,0.082,0.593,0.166,0.894,0.241c0.337,0.085,0.679,0.159,1.02,0.235  c0.292,0.065,0.584,0.135,0.879,0.193c0.357,0.071,0.719,0.131,1.08,0.193c0.238,0.041,0.474,0.091,0.714,0.127  c0.045,0.007,0.092,0.011,0.138,0.018c0.385,0.058,0.773,0.102,1.161,0.147c0.269,0.032,0.535,0.071,0.805,0.098  c0.434,0.043,0.872,0.07,1.309,0.1c0.229,0.016,0.455,0.038,0.684,0.05c0.669,0.033,1.342,0.051,2.019,0.051s1.35-0.018,2.019-0.051  c0.229-0.012,0.455-0.034,0.684-0.05c0.438-0.029,0.876-0.057,1.31-0.1c0.27-0.026,0.535-0.065,0.803-0.098  c0.389-0.046,0.777-0.09,1.162-0.147c0.046-0.007,0.093-0.011,0.139-0.018c0.239-0.036,0.474-0.086,0.712-0.127  c0.361-0.062,0.724-0.122,1.082-0.193c0.294-0.059,0.584-0.127,0.876-0.192c0.342-0.076,0.685-0.151,1.022-0.236l0,0  c0.075-0.019,0.152-0.033,0.228-0.053c0.223-0.057,0.44-0.127,0.662-0.188c0.324-0.09,0.649-0.179,0.971-0.275  c0.091-0.027,0.183-0.05,0.272-0.078c0.211-0.065,0.416-0.143,0.626-0.211c0.309-0.103,0.618-0.204,0.924-0.313  c0.104-0.037,0.212-0.068,0.316-0.106c0.198-0.073,0.391-0.156,0.588-0.232c0.293-0.112,0.585-0.226,0.874-0.345  c0.307-0.126,0.61-0.258,0.912-0.392c0.275-0.121,0.55-0.243,0.821-0.371c0.074-0.034,0.15-0.065,0.224-0.101  c0.061-0.029,0.123-0.054,0.183-0.083c0.173-0.083,0.341-0.176,0.513-0.262c0.257-0.129,0.512-0.259,0.766-0.393  c0.312-0.164,0.62-0.332,0.927-0.504c0.237-0.134,0.473-0.269,0.706-0.406c0.315-0.186,0.627-0.374,0.937-0.567  c0.216-0.135,0.429-0.272,0.642-0.411c0.319-0.208,0.637-0.419,0.949-0.636c0.191-0.133,0.381-0.27,0.569-0.405  c0.326-0.234,0.65-0.472,0.969-0.716c0.163-0.125,0.324-0.254,0.485-0.382c0.335-0.264,0.667-0.53,0.992-0.805  c0.135-0.113,0.266-0.23,0.398-0.345c0.345-0.299,0.688-0.6,1.021-0.91c0.098-0.09,0.191-0.183,0.287-0.273  c0.363-0.343,0.723-0.689,1.072-1.046c0.049-0.049,0.095-0.101,0.143-0.149c5.938-6.106,9.946-14.092,11.054-22.981  c0.001-0.005,0.001-0.011,0.002-0.016c0.078-0.629,0.141-1.261,0.189-1.898c0.001-0.009,0.002-0.018,0.003-0.026h-0.001  c0.017-0.212,0.036-0.423,0.049-0.635C90.518,61.13,90.532,61.01,90.538,60.889z M88.591,58.815c0,1.034-0.054,2.057-0.135,3.07  H12.402c-0.081-1.014-0.134-2.036-0.134-3.07c0-1.024,0.053-2.036,0.132-3.041h76.059C88.538,56.779,88.591,57.791,88.591,58.815z   M12.613,53.754c0.068-0.513,0.147-1.023,0.236-1.531c0.01-0.061,0.021-0.122,0.033-0.183c0.086-0.485,0.182-0.968,0.288-1.448  c0.017-0.077,0.036-0.153,0.053-0.229c0.106-0.471,0.219-0.94,0.343-1.405c0.018-0.064,0.037-0.127,0.055-0.191  c0.22-0.811,0.472-1.61,0.744-2.402c0.065-0.188,0.125-0.38,0.192-0.567c0.07-0.194,0.149-0.384,0.223-0.577  c0.144-0.376,0.288-0.752,0.443-1.122c0.061-0.146,0.127-0.291,0.19-0.437c0.183-0.421,0.37-0.84,0.568-1.253  c0.049-0.103,0.1-0.204,0.149-0.307c0.227-0.464,0.461-0.923,0.706-1.376c0.03-0.055,0.06-0.109,0.089-0.164  c4.11-7.513,10.672-13.5,18.604-16.877c0.043-0.019,0.087-0.037,0.131-0.055c0.5-0.21,1.007-0.41,1.518-0.6  c0.095-0.035,0.19-0.07,0.286-0.105c0.459-0.166,0.924-0.322,1.392-0.472c0.143-0.045,0.286-0.091,0.43-0.135  c0.123-0.038,0.248-0.069,0.371-0.105c2.07,0.816,6.117,1.371,10.771,1.371c4.639,0,8.675-0.551,10.751-1.363  c13.603,4.036,24.202,15.507,26.789,29.785c0.004,0.019,0.007,0.037,0.011,0.057c0.101,0.562,0.189,1.127,0.265,1.696  c0.001,0.006,0.002,0.012,0.003,0.018H12.611C12.612,53.768,12.613,53.761,12.613,53.754z M50.43,5.839  c2.786,0,5.053,2.267,5.053,5.054c0,2.787-2.267,5.054-5.053,5.054c-2.787,0-5.054-2.267-5.054-5.054  C45.375,8.106,47.643,5.839,50.43,5.839z"/>
</svg>