<svg xmlns="http://www.w3.org/2000/svg" xmlns:xlink="http://www.w3.org/1999/xlink" version="1.1" id="Layer_1" x="0px" y="0px" width="100px" height="100px" viewBox="-346 256 100 100" enable-background="new -346 256 100 100" xml:space="preserve">
<path fill="#000000" d="M-285.837,309.825c-6.928-0.994-14.745-1.546-23.314-1.502c-14.14,0.074-25.959,2.662-35.091,5.318  l-1.775,3.289l3.48,2.369l0.884-2.164l2.13,1.643l0.861-2.25l1.85,1.896l0.924-2.266l1.608,1.996l0.974-2.395l1.912,2.012  l0.977-2.438l1.939,2.157l1.245-2.44l1.781,2.393l1.251-2.572l1.94,2.445l1.436-2.489l1.96,2.489l1.34-2.577l1.673,2.752l1.421-2.62  l1.376,2.666l1.65-2.442l1.292,2.678l1.791-2.403l1.617,2.786l1.757-2.486l1.388,2.8l1.787-2.397l1.198,2.708l1.749-2.345  l1.149,2.818l1.854-2.205l0.823,2.664l1.887-2.132l0.839,2.821l2.008-2.154l0.75,2.753l2.025-1.938l0.595,2.775l1.924-2.047  L-285.837,309.825z"/>
<path fill="#000000" d="M-284.182,320.011c-0.255-0.645-1.068-10.1-1.068-10.1c14.216,2.106,24.613,6.082,29.979,10.569  c8.428,7.047,11.191,14.646,7.598,19.48c-2.472,3.328-8.24,3.914-13.678,2.211c-9.255-2.9-14.025-13.27-15.472-16.164  c-1.105-2.212-4.206-2.945-5.527-3.868C-283.266,321.5-283.986,320.511-284.182,320.011z M-263.008,324.658  c0,0-0.431-3.004-1.68-3.846c-0.837-0.562-3.25-2-5.493,0.499c-4.394,4.895,1.995,10.752,3.251,12.166  c1.258,1.415,8.552,8.976,11.575,4.352c2.295-3.51-1.437-5.521-1.437-5.521s0.983-1.391,0-2.771  c-0.983-1.382-2.773-1.033-2.773-1.033s0.637-2.309-0.67-3.373C-261.538,324.062-263.008,324.658-263.008,324.658L-263.008,324.658z   M-279.635,316.322c0.624,0,1.128-0.507,1.128-1.128c0-0.622-0.504-1.127-1.128-1.127c-0.622,0-1.127,0.505-1.127,1.127  C-280.762,315.815-280.257,316.322-279.635,316.322L-279.635,316.322z M-273.337,318.116c0.622,0,1.126-0.503,1.126-1.127  c0-0.621-0.504-1.126-1.126-1.126s-1.127,0.505-1.127,1.126C-274.464,317.613-273.959,318.116-273.337,318.116L-273.337,318.116z"/>
</svg>