<svg xmlns="http://www.w3.org/2000/svg" xmlns:xlink="http://www.w3.org/1999/xlink" version="1.1" id="Layer_1" x="0px" y="0px" width="100px" height="100px" viewBox="-346 256 100 100" enable-background="new -346 256 100 100" xml:space="preserve">
<g>
	<path d="M-298.567,324.655v-3.785c-2.536-0.12-4.997-0.877-6.436-1.714l1.136-4.662c1.59,0.917,3.823,1.754,6.284,1.754   c2.196,0,3.672-0.917,3.672-2.471c0-1.514-1.212-2.471-4.051-3.466c-4.051-1.436-6.814-3.428-6.814-7.292   c0-3.546,2.347-6.295,6.397-7.092v-3.785h3.71v3.506c2.498,0.08,4.202,0.677,5.526,1.315l-1.135,4.502   c-0.946-0.478-2.726-1.395-5.452-1.395c-2.461,0-3.256,1.156-3.256,2.271c0,1.275,1.325,2.152,4.581,3.387   c4.505,1.674,6.284,3.865,6.284,7.491c0,3.546-2.347,6.574-6.701,7.331v4.104H-298.567z"/>
</g>
<path d="M-285.683,328.354c5.265-4.159,8.608-11.236,8.608-19.415c0-12.873-8.618-23.308-19.246-23.308  s-19.244,10.435-19.244,23.308c0,8.177,3.315,15.233,8.576,19.393l0.052,0.066H-346V280.5l0,0h99.922v47.898h-39.668  L-285.683,328.354z M-253.412,321.063v-10.812h-3.089v7.723h-15.447v3.089H-253.412L-253.412,321.063z M-319.833,321.063v-3.089  h-15.447v-7.723h-3.089v10.812H-319.833L-319.833,321.063z M-253.412,298.667v-10.812h-18.536v3.089h15.447v7.724H-253.412  L-253.412,298.667z M-335.28,298.667v-7.724h15.447v-3.089h-18.536v10.812H-335.28L-335.28,298.667z"/>
</svg>