<svg xmlns="http://www.w3.org/2000/svg" xmlns:xlink="http://www.w3.org/1999/xlink" version="1.1" id="Layer_1" x="0px" y="0px" width="100px" height="100px" viewBox="0 0 100 100" enable-background="new 0 0 100 100" xml:space="preserve">
<path fill="#000000" d="M100,72.945V10.277H0v62.668h37.676l0.321,3.64c0,0.004,0,0.009,0.001,0.013l1.115,12.609  c0.021,0.234,0.184,0.432,0.41,0.495s0.467-0.021,0.606-0.208l3.259-4.389l3.237,4.014c0.214,0.268,0.666,0.268,0.879,0l3.256-4.036  l3.256,4.036c0.215,0.268,0.664,0.268,0.879,0l3.236-4.014l3.26,4.389c0.108,0.146,0.278,0.229,0.453,0.229  c0.051,0,0.104-0.007,0.153-0.021c0.228-0.063,0.39-0.261,0.41-0.495l1.112-12.609c0.002-0.005,0.002-0.009,0.002-0.013l0.321-3.64  H100z M3.389,69.559V13.666h93.222v55.893H64.146l0.33-3.744H75.12V28.76H25.617v37.054h11.429l0.331,3.744H3.389z M58.238,82.986  l-2.813-6.313l3.8-7.094l3.101,6.926L58.238,82.986z M50.762,82.986l-3.408-6.358l3.408-7.646l3.406,7.646L50.762,82.986z   M43.285,82.986L39.2,76.505l3.098-6.925l3.8,7.094L43.285,82.986z M45.189,60.352l-2.982,6.666l-3.571-6.666H45.189z   M53.369,60.352l-2.607,5.854l-2.609-5.854H53.369z M62.887,60.352l-3.57,6.666l-2.982-6.666H62.887z M64.959,60.352h0.094  c0.949,0,1.719-0.771,1.719-1.719c0-0.947-0.77-1.719-1.719-1.719H35.684c-0.949,0-1.719,0.771-1.719,1.719  c0,0.948,0.77,1.719,1.719,1.719h0.879l0.183,2.074h-7.741V32.148H71.73v30.277h-6.955L64.959,60.352z M37.765,61.119l3.858,7.201  l-2.69,6.014L37.765,61.119z M42.881,68.275l3.545-7.924h0.49l3.227,7.242l-3.463,7.772L42.881,68.275z M51.38,67.594l3.228-7.242  h0.488l3.547,7.926l-3.8,7.091L51.38,67.594z M59.898,68.32l3.858-7.203L62.59,74.336L59.898,68.32z M40.108,87.629l-0.778-8.797  l3.356,5.324L40.108,87.629z M47.066,87.865l-3.039-3.77l2.746-6.162l3.314,6.187L47.066,87.865z M54.456,87.865l-3.021-3.746  l3.313-6.186l2.745,6.162L54.456,87.865z M61.415,87.629l-2.579-3.473l3.355-5.324L61.415,87.629z"/>
</svg>