<svg xmlns="http://www.w3.org/2000/svg" xmlns:xlink="http://www.w3.org/1999/xlink" version="1.1" id="Layer_1" x="0px" y="0px" width="100px" height="100px" viewBox="0 0 100 100" enable-background="new 0 0 100 100" xml:space="preserve">
<path fill="#000000" d="M98.715,63.349c-3.179-5.917-8.664-11.897-14.982-15.57l-5.794-16.635l-18.816,6.553L48.136,4.48  c-0.235-0.711-0.9-1.192-1.649-1.192h-0.001c-0.75,0-1.415,0.482-1.649,1.195l-7.985,24.273l-20.519-5.154l-4.461,17.76  C6.604,45.947,2.589,52.771,0.913,59.439c-3.234,12.877,2.194,25.336,15.068,28.57c9.434,2.369,18.231-2.21,23.311-9.611  c-3.608-0.567-6.715-2.832-8.897-6.561c-3.724-6.36-3.763-15.378-0.094-21.442l1.486,0.9c-3.358,5.551-3.313,13.82,0.106,19.664  c2.129,3.636,5.229,5.669,8.771,5.819c3.776-0.146,5.424-4.311,5.683-7.232c0.592-6.691-0.708-14.701-3.973-21.239l4.291-17.087  l-6.436-1.616l6.26-19.032l9.35,28.267l-7.438,2.59l6.023,17.293c-1.886,6.724-1.494,14.631,0.767,21.126  c4.366,12.537,15.744,19.971,28.28,15.604c9.184-3.2,14.022-11.854,14.206-20.828c-1.468,0.664-3.032,1.005-4.657,1.005  c-2.063,0-4.217-0.535-6.383-1.607c-6.603-3.271-11.587-10.787-11.851-17.869l1.736-0.065c0.241,6.484,4.819,13.372,10.887,16.378  c3.778,1.871,7.486,1.864,10.54,0.038C101.01,70.305,100.1,65.929,98.715,63.349z"/>
</svg>