<svg xmlns="http://www.w3.org/2000/svg" xmlns:xlink="http://www.w3.org/1999/xlink" version="1.1" id="Layer_1" x="0px" y="0px" width="100px" height="100px" viewBox="0 0 100 100" enable-background="new 0 0 100 100" xml:space="preserve">
<path d="M56.805,80.101c-1.427-2.794-3.285-5.332-3.285-5.332L35.902,49.069l-25.104-36.25l21.857,38.42l15.725,27.72  c0,0,0.551,0.882,1.401,2.065c-0.333,0.055-0.659,0.099-0.994,0.157c-16.692,2.905-33.156-13.334-33.321-13.498l-0.707,0.707  c0.167,0.168,16.997,16.776,34.2,13.775c0.502-0.087,0.992-0.156,1.49-0.235c2.082,2.752,5.247,6.244,7.133,4.983  c1.423-0.951,0.818-3.401-0.31-5.854c14.853-1.39,26.976,0.892,33.281,6.479l0.664-0.748C84.657,80.978,72.107,78.614,56.805,80.101  z M51.007,77.05c0.718-0.495,2.453,0.778,3.877,2.846c0.087,0.126,0.16,0.252,0.241,0.378c-1.133,0.13-2.28,0.279-3.439,0.45  C50.72,79.011,50.4,77.467,51.007,77.05z M56.157,84.534c-0.719,0.493-2.454-0.781-3.877-2.848c-0.01-0.014-0.017-0.027-0.026-0.041  c1.152-0.165,2.291-0.311,3.415-0.435C56.481,82.779,56.722,84.145,56.157,84.534z"/>
</svg>