<svg xmlns:x="http://ns.adobe.com/Extensibility/1.0/" xmlns:i="http://ns.adobe.com/AdobeIllustrator/10.0/" xmlns:graph="http://ns.adobe.com/Graphs/1.0/" xmlns="http://www.w3.org/2000/svg" xmlns:xlink="http://www.w3.org/1999/xlink" xmlns:a="http://ns.adobe.com/AdobeSVGViewerExtensions/3.0/" version="1.1" id="Layer_1" x="0px" y="0px" width="100px" height="69.1891891892px" viewBox="0 0 370.428 256.867" enable-background="new 0 0 370.428 256.867" xml:space="preserve">
<path d="M255.985,129.607c-6.1-9.121-14.381-14.74-23.512-14.74c-0.319,0-0.635,0.023-0.951,0.037  c-8.751,0.375-16.669,5.907-22.555,14.701c-9.614,2.299-18.32,5.988-25.714,10.703h98.476  C274.332,135.59,265.604,131.909,255.985,129.607z M232.474,111.269c7.732,0,14-6.268,14-14s-6.268-13.997-14-13.997  s-14,6.265-14,13.997S224.741,111.269,232.474,111.269z M18.942,102.947c0.259,0.198,0.41,0.287,0.41,0.287  C19.216,103.144,19.079,103.04,18.942,102.947z M339,139.867c-17.358,0-31.429,10.04-31.429,22.425  c0,12.386,14.07,22.425,31.429,22.425c17.356,0,31.428-10.039,31.428-22.425C370.428,149.907,356.356,139.867,339,139.867z   M339,174.796c-12.31,0-20.387-6.602-20.387-12.504s8.077-12.504,20.387-12.504c12.309,0,20.386,6.602,20.386,12.504  S351.309,174.796,339,174.796z M285.681,143.022H179.286c-0.22,0.163-0.455,0.314-0.672,0.479  c-2.01,1.47-24.086,16.559-61.713-0.123c-39.5-17.512-68.75-28.012-82.5-28.012c-20,0-26.387,0-26.387,0s33.036,9.608,42.633,14.099  c65.504,30.651,75.754,47.901,87.754,57.901s37.102,34.056,56.801,37.778c3.564,1.487,7.312,2.775,11.224,3.826  c-9.464,6.432-16.742,16.258-20.358,27.896h92.812c-3.613-11.63-10.884-21.451-20.339-27.883  c27.964-7.521,47.861-26.782,47.861-49.367C306.401,165.398,298.504,152.505,285.681,143.022z M12.434,98.172  c2.17,1.728,4.339,3.312,6.509,4.775c-1.727-1.321-8.347-7.631-8.347-26.682c0-4.141,0.843-8.25,2.531-12.32  c1.689-4.069,3.506-8.1,5.419-12.094c1.914-3.994,3.731-8.063,5.419-12.208c1.689-4.161,2.531-8.458,2.531-12.921  c0-3.374-0.542-6.358-1.611-8.981c-1.069-2.607-2.531-4.987-4.39-7.146c-1.836-2.139-3.918-4.069-6.205-5.755  C11.982,3.152,9.678,1.538,7.37,0c0,0,8.531,7.6,8.531,25.578c0,4.146-0.843,8.215-2.55,12.209  c-1.687,3.994-3.487,8.024-5.398,12.094c-1.932,4.069-3.732,8.194-5.421,12.34C0.843,66.366,0,70.658,0,75.125  c0,3.525,0.562,6.673,1.726,9.451c1.145,2.754,2.645,5.25,4.5,7.479C8.064,94.289,10.127,96.312,12.434,98.172z"/>
</svg>