<?xml version="1.0" encoding="utf-8"?>
<!-- Generator: Adobe Illustrator 14.0.0, SVG Export Plug-In . SVG Version: 6.00 Build 43363)  -->
<!DOCTYPE svg PUBLIC "-//W3C//DTD SVG 1.0//EN" "http://www.w3.org/TR/2001/REC-SVG-20010904/DTD/svg10.dtd">
<svg version="1.0" id="Layer_1" xmlns="http://www.w3.org/2000/svg" xmlns:xlink="http://www.w3.org/1999/xlink" x="0px" y="0px"
	 width="37.133px" height="100px" viewBox="0 0 37.133 100" enable-background="new 0 0 37.133 100" xml:space="preserve">
<path d="M37.133,64.355c0-10.546-8.786-17.528-18.111-14.907c-0.944-2.75-1.869-5.334-2.707-7.624
	c3.811-5.043,9.098-13.467,10.142-20.401C27.719,13.044,24.203,4.937,19.268,0C7.747,10.023,6.301,25.262,11.682,38.476
	C3.52,48.965,0.153,55.73,0.003,63.793c-0.182,9.796,7.026,18.973,18.304,18.973c2.07,0,3.964-0.29,5.693-0.8
	c0.393,9.836-2.047,13.139-3.856,13.559c-0.735,0.168-0.868-0.256-0.574-0.577c2.18-2.366,0.483-7.935-4.127-7.935
	c-3.611,0-5.623,3.083-5.582,6.243C9.904,96.583,12.223,100,17.348,100c5.344,0,10.657-4.949,9.6-19.192
	C33.72,77.421,37.133,70.26,37.133,64.355z M14.06,20.391c1.148-6.199,3.903-10.196,6.887-13.868
	c2.441,3.718,3.107,10.318,1.264,15.131c-1.863,4.869-4.286,8.653-8.126,13.708C12.937,30.912,12.952,26.379,14.06,20.391z
	 M3.614,65.159c0-7.841,4.343-13.44,10.54-20.638c0.753,1.943,1.495,3.961,2.212,6.011c-5.926,3.377-8.865,12.124-4.602,17.842
	l1.836-0.688c-1.588-5.671,0.598-10.398,4.379-12.38c2.914,8.963,5.188,17.858,5.766,23.027c-1.755,0.962-3.627,1.52-5.438,1.52
	C10.119,79.854,3.614,73.424,3.614,65.159z M26.455,76.451c-0.994-6.383-3.315-14.504-5.772-22.042
	c6.954-1.168,11.285,4.299,11.285,11.21C31.968,69.688,29.643,73.721,26.455,76.451z"/>
</svg>
