<?xml version="1.0" encoding="utf-8"?>
<!-- Generator: Adobe Illustrator 14.0.0, SVG Export Plug-In . SVG Version: 6.00 Build 43363)  -->
<!DOCTYPE svg PUBLIC "-//W3C//DTD SVG 1.0//EN" "http://www.w3.org/TR/2001/REC-SVG-20010904/DTD/svg10.dtd">
<svg version="1.0" id="Layer_1" xmlns="http://www.w3.org/2000/svg" xmlns:xlink="http://www.w3.org/1999/xlink" x="0px" y="0px"
	 width="78.208px" height="100px" viewBox="0 0 78.208 100" enable-background="new 0 0 78.208 100" xml:space="preserve">
<path d="M26.511,0C7.46,0,0,12.751,0,22.974c0,4.989,4.042,9.029,9.029,9.029c4.988,0,9.03-4.041,9.03-9.029
	c0-4.986-4.042-9.029-9.03-9.029c-1.698,0-2.244-0.546-1.779-1.245c2.629-3.941,8.153-7.535,18.004-7.535
	c14.027,0,25.75,14.27,25.75,31.926c0,25.683-20.272,50.72-42.498,59.978L9.971,100c23.657-8.914,48.152-34.003,48.152-63.643
	C58.124,12.084,40.282,0,26.511,0z"/>
<circle cx="71.104" cy="44.104" r="7.106"/>
<circle cx="71.104" cy="19.609" r="7.106"/>
</svg>
