<svg xmlns="http://www.w3.org/2000/svg" xmlns:xlink="http://www.w3.org/1999/xlink" version="1.0" id="Capa_1" x="0px" y="0px" width="100px" height="100px" viewBox="0 0 100 100" enable-background="new 0 0 100 100" xml:space="preserve">
<g>
	<path fill="#000000" d="M10.5,28c-3.85,0-7,3.15-7,7v18.652c0,3.85,3.15,7,7,7h79.001c3.85,0,7-3.15,7-7V35c0-3.85-3.15-7-7-7H10.5   z M9.331,33.005c0-0.922,0.118-1.939,0.261-2.26c0,0,0,0,0.322,0s0.322,0,0.322,0c0.144,0.321,0.261,1.337,0.261,2.26   c0,0.922-0.117,1.938-0.261,2.259c0,0,0,0-0.322,0s-0.322,0-0.322,0C9.448,34.943,9.331,33.927,9.331,33.005z M6.676,38.617   c-0.144-0.321-0.261-2.092-0.261-3.936c0-1.844,0.117-3.615,0.261-3.936c0,0,0,0,0.322,0s0.322,0,0.322,0   c0.144,0.321,0.261,2.092,0.261,3.936c0,1.844-0.117,3.615-0.261,3.936c0,0,0,0-0.322,0S6.676,38.617,6.676,38.617z M9.914,56.279   c-1.449,0-2.624-1.175-2.624-2.624s1.175-2.624,2.624-2.624c1.449,0,2.624,1.175,2.624,2.624S11.363,56.279,9.914,56.279z    M13.704,34.681c0,1.844-0.118,3.615-0.261,3.936c0,0,0,0-0.322,0s-0.322,0-0.322,0c-0.144-0.321-0.261-2.092-0.261-3.936   c0-1.844,0.117-3.615,0.261-3.936c0,0,0,0,0.322,0s0.322,0,0.322,0C13.586,31.066,13.704,32.837,13.704,34.681z M16.619,33.005   c0,0.922-0.117,1.938-0.261,2.259c0,0,0,0-0.322,0s-0.322,0-0.322,0c-0.144-0.321-0.261-1.337-0.261-2.259   c0-0.922,0.117-1.939,0.261-2.26c0,0,0,0,0.322,0s0.322,0,0.322,0C16.502,31.066,16.619,32.083,16.619,33.005z M19.826,34.681   c0,1.844-0.117,3.615-0.261,3.936c0,0,0,0-0.322,0s-0.322,0-0.322,0c-0.144-0.321-0.261-2.092-0.261-3.936   c0-1.844,0.117-3.615,0.261-3.936c0,0,0,0,0.322,0s0.322,0,0.322,0C19.709,31.066,19.826,32.837,19.826,34.681z M22.839,33.005   c0,0.922-0.118,1.938-0.261,2.259c0,0,0,0-0.322,0s-0.322,0-0.322,0c-0.144-0.321-0.261-1.337-0.261-2.259   c0-0.922,0.118-1.939,0.261-2.26c0,0,0,0,0.322,0s0.322,0,0.322,0C22.721,31.066,22.839,32.083,22.839,33.005z M25.463,34.681   c0,1.844-0.118,3.615-0.261,3.936c0,0,0,0-0.322,0s-0.322,0-0.322,0c-0.144-0.321-0.261-2.092-0.261-3.936   c0-1.844,0.118-3.615,0.261-3.936c0,0,0,0,0.322,0s0.322,0,0.322,0C25.345,31.066,25.463,32.837,25.463,34.681z M28.476,33.005   c0,0.922-0.118,1.938-0.261,2.259c0,0,0,0-0.322,0c-0.322,0-0.322,0-0.322,0c-0.144-0.321-0.261-1.337-0.261-2.259   c0-0.922,0.117-1.939,0.261-2.26c0,0,0,0,0.322,0c0.322,0,0.322,0,0.322,0C28.358,31.066,28.476,32.083,28.476,33.005z    M31.683,34.681c0,1.844-0.118,3.615-0.262,3.936c0,0,0,0-0.321,0c-0.322,0-0.322,0-0.322,0c-0.144-0.321-0.261-2.092-0.261-3.936   c0-1.844,0.118-3.615,0.261-3.936c0,0,0,0,0.322,0c0.321,0,0.321,0,0.321,0C31.565,31.066,31.683,32.837,31.683,34.681z    M34.209,33.005c0,0.922-0.118,1.938-0.261,2.259c0,0,0,0-0.322,0s-0.322,0-0.322,0c-0.144-0.321-0.261-1.337-0.261-2.259   c0-0.922,0.118-1.939,0.261-2.26c0,0,0,0,0.322,0s0.322,0,0.322,0C34.091,31.066,34.209,32.083,34.209,33.005z M37.416,34.681   c0,1.844-0.118,3.615-0.261,3.936c0,0,0,0-0.322,0s-0.322,0-0.322,0c-0.144-0.321-0.262-2.092-0.262-3.936   c0-1.844,0.118-3.615,0.262-3.936c0,0,0,0,0.322,0s0.322,0,0.322,0C37.298,31.066,37.416,32.837,37.416,34.681z M40.331,33.005   c0,0.922-0.118,1.938-0.261,2.259c0,0,0,0-0.322,0s-0.322,0-0.322,0c-0.144-0.321-0.261-1.337-0.261-2.259   c0-0.922,0.118-1.939,0.261-2.26c0,0,0,0,0.322,0s0.322,0,0.322,0C40.213,31.066,40.331,32.083,40.331,33.005z M43.538,34.681   c0,1.844-0.118,3.615-0.261,3.936c0,0,0,0-0.322,0s-0.322,0-0.322,0c-0.144-0.321-0.261-2.092-0.261-3.936   c0-1.844,0.118-3.615,0.261-3.936c0,0,0,0,0.322,0s0.322,0,0.322,0C43.42,31.066,43.538,32.837,43.538,34.681z M46.162,33.005   c0,0.922-0.118,1.938-0.261,2.259c0,0,0,0-0.322,0s-0.322,0-0.322,0c-0.144-0.321-0.261-1.337-0.261-2.259   c0-0.922,0.118-1.939,0.261-2.26c0,0,0,0,0.322,0s0.322,0,0.322,0C46.044,31.066,46.162,32.083,46.162,33.005z M49.369,34.681   c0,1.844-0.118,3.615-0.262,3.936c0,0,0,0-0.321,0c-0.322,0-0.322,0-0.322,0c-0.144-0.321-0.262-2.092-0.262-3.936   c0-1.844,0.118-3.615,0.262-3.936c0,0,0,0,0.322,0c0.321,0,0.321,0,0.321,0C49.251,31.066,49.369,32.837,49.369,34.681z    M52.284,33.005c0,0.922-0.117,1.938-0.261,2.259c0,0,0,0-0.322,0s-0.322,0-0.322,0c-0.143-0.321-0.261-1.337-0.261-2.259   c0-0.922,0.118-1.939,0.261-2.26c0,0,0,0,0.322,0s0.322,0,0.322,0C52.167,31.066,52.284,32.083,52.284,33.005z M55.491,34.681   c0,1.844-0.118,3.615-0.262,3.936c0,0,0,0-0.321,0s-0.321,0-0.321,0c-0.144-0.321-0.262-2.092-0.262-3.936   c0-1.844,0.118-3.615,0.262-3.936c0,0,0,0,0.321,0s0.321,0,0.321,0C55.373,31.066,55.491,32.837,55.491,34.681z M58.115,33.005   c0,0.922-0.118,1.938-0.262,2.259c0,0,0,0-0.321,0c-0.322,0-0.322,0-0.322,0c-0.144-0.321-0.261-1.337-0.261-2.259   c0-0.922,0.117-1.939,0.261-2.26c0,0,0,0,0.322,0c0.321,0,0.321,0,0.321,0C57.997,31.066,58.115,32.083,58.115,33.005z    M61.322,34.681c0,1.844-0.118,3.615-0.262,3.936c0,0,0,0-0.321,0c-0.322,0-0.322,0-0.322,0c-0.144-0.321-0.261-2.092-0.261-3.936   c0-1.844,0.117-3.615,0.261-3.936c0,0,0,0,0.322,0c0.321,0,0.321,0,0.321,0C61.204,31.066,61.322,32.837,61.322,34.681z    M64.237,33.005c0,0.922-0.117,1.938-0.261,2.259c0,0,0,0-0.322,0c-0.321,0-0.321,0-0.321,0c-0.144-0.321-0.262-1.337-0.262-2.259   c0-0.922,0.118-1.939,0.262-2.26c0,0,0,0,0.321,0c0.322,0,0.322,0,0.322,0C64.12,31.066,64.237,32.083,64.237,33.005z    M67.444,34.681c0,1.844-0.118,3.615-0.262,3.936c0,0,0,0-0.321,0s-0.321,0-0.321,0c-0.144-0.321-0.262-2.092-0.262-3.936   c0-1.844,0.118-3.615,0.262-3.936c0,0,0,0,0.321,0s0.321,0,0.321,0C67.326,31.066,67.444,32.837,67.444,34.681z M70.166,33.005   c0,0.922-0.118,1.938-0.262,2.259c0,0,0,0-0.321,0c-0.322,0-0.322,0-0.322,0c-0.144-0.321-0.262-1.337-0.262-2.259   c0-0.922,0.118-1.939,0.262-2.26c0,0,0,0,0.322,0c0.321,0,0.321,0,0.321,0C70.048,31.066,70.166,32.083,70.166,33.005z    M73.373,34.681c0,1.844-0.118,3.615-0.262,3.936c0,0,0,0-0.322,0s-0.322,0-0.322,0c-0.144-0.321-0.261-2.092-0.261-3.936   c0-1.844,0.117-3.615,0.261-3.936c0,0,0,0,0.322,0s0.322,0,0.322,0C73.255,31.066,73.373,32.837,73.373,34.681z M76.385,33.005   c0,0.922-0.117,1.938-0.261,2.259c0,0,0,0-0.322,0s-0.322,0-0.322,0c-0.144-0.321-0.261-1.337-0.261-2.259   c0-0.922,0.117-1.939,0.261-2.26c0,0,0,0,0.322,0s0.322,0,0.322,0C76.268,31.066,76.385,32.083,76.385,33.005z M79.592,34.681   c0,1.844-0.117,3.615-0.261,3.936c0,0,0,0-0.322,0s-0.322,0-0.322,0c-0.144-0.321-0.261-2.092-0.261-3.936   c0-1.844,0.117-3.615,0.261-3.936c0,0,0,0,0.322,0s0.322,0,0.322,0C79.475,31.066,79.592,32.837,79.592,34.681z M81.924,33.005   c0,0.922-0.117,1.938-0.261,2.259c0,0,0,0-0.322,0s-0.322,0-0.322,0c-0.144-0.321-0.261-1.337-0.261-2.259   c0-0.922,0.117-1.939,0.261-2.26c0,0,0,0,0.322,0s0.322,0,0.322,0C81.807,31.066,81.924,32.083,81.924,33.005z M85.131,34.681   c0,1.844-0.117,3.615-0.261,3.936c0,0,0,0-0.322,0s-0.322,0-0.322,0c-0.144-0.321-0.261-2.092-0.261-3.936   c0-1.844,0.117-3.615,0.261-3.936c0,0,0,0,0.322,0s0.322,0,0.322,0C85.014,31.066,85.131,32.837,85.131,34.681z M87.949,33.005   c0,0.922-0.117,1.938-0.261,2.259c0,0,0,0-0.322,0s-0.322,0-0.322,0c-0.144-0.321-0.261-1.337-0.261-2.259   c0-0.922,0.117-1.939,0.261-2.26c0,0,0,0,0.322,0s0.322,0,0.322,0C87.832,31.066,87.949,32.083,87.949,33.005z M91.156,34.681   c0,1.844-0.117,3.615-0.261,3.936c0,0,0,0-0.322,0s-0.322,0-0.322,0c-0.144-0.321-0.261-2.092-0.261-3.936   c0-1.844,0.117-3.615,0.261-3.936c0,0,0,0,0.322,0s0.322,0,0.322,0C91.039,31.066,91.156,32.837,91.156,34.681z M93.877,48.599   c0,3.851-0.117,7.263-0.261,7.583c0,0,0,0-0.322,0s-0.322,0-0.322,0c-0.144-0.32-0.261-3.732-0.261-7.583V38.328   c0-3.85,0.117-7.262,0.261-7.583c0,0,0,0,0.322,0s0.322,0,0.322,0c0.144,0.321,0.261,3.733,0.261,7.583V48.599z"/>
</g>
</svg>