<svg xmlns="http://www.w3.org/2000/svg" xmlns:xlink="http://www.w3.org/1999/xlink" version="1.1" id="Layer_1" x="0px" y="0px" width="100px" height="35.0px" viewBox="0 0 800 280.715" enable-background="new 0 0 800 280.715" xml:space="preserve">
<g>
	<g>
		<rect width="15.195" height="52.859"/>
		<g>
			<rect x="15.195" y="11.242" width="37.125" height="3.938"/>
			<rect x="15.195" y="23.633" width="37.125" height="3.922"/>
			<rect x="15.195" y="37.695" width="37.125" height="3.93"/>
		</g>
		<rect x="52.32" width="15.188" height="52.859"/>
		<g>
			<rect x="67.508" y="11.242" width="37.133" height="3.938"/>
			<rect x="67.508" y="23.633" width="37.133" height="3.922"/>
			<rect x="67.508" y="37.695" width="37.133" height="3.93"/>
		</g>
		<rect x="104.641" width="15.188" height="52.859"/>
		<g>
			<rect x="119.828" y="11.242" width="37.133" height="3.938"/>
			<rect x="119.828" y="23.633" width="37.133" height="3.922"/>
			<rect x="119.828" y="37.695" width="37.133" height="3.93"/>
		</g>
		<rect x="156.961" width="15.195" height="52.859"/>
		<g>
			<rect x="172.156" y="11.242" width="37.133" height="3.938"/>
			<rect x="172.156" y="23.633" width="37.133" height="3.922"/>
			<rect x="172.156" y="37.695" width="37.133" height="3.93"/>
		</g>
		<rect x="209.289" width="15.188" height="52.859"/>
		<g>
			<rect x="224.477" y="11.242" width="37.133" height="3.938"/>
			<rect x="224.477" y="23.633" width="37.133" height="3.922"/>
			<rect x="224.477" y="37.695" width="37.133" height="3.93"/>
		</g>
		<rect x="261.609" width="15.188" height="52.859"/>
		<g>
			<rect x="276.797" y="11.242" width="37.133" height="3.938"/>
			<rect x="276.797" y="23.633" width="37.133" height="3.922"/>
			<rect x="276.797" y="37.695" width="37.133" height="3.93"/>
		</g>
		<rect x="313.93" width="15.188" height="52.859"/>
		<g>
			<rect x="329.117" y="11.242" width="37.133" height="3.938"/>
			<rect x="329.117" y="23.633" width="37.133" height="3.922"/>
			<rect x="329.117" y="37.695" width="37.133" height="3.93"/>
		</g>
		<rect x="366.25" width="15.18" height="52.859"/>
		<g>
			<rect x="381.43" y="11.242" width="37.141" height="3.938"/>
			<rect x="381.43" y="23.633" width="37.141" height="3.922"/>
			<rect x="381.43" y="37.695" width="37.141" height="3.93"/>
		</g>
		<rect x="418.571" width="15.188" height="52.859"/>
		<g>
			<rect x="433.758" y="11.242" width="37.125" height="3.938"/>
			<rect x="433.758" y="23.633" width="37.125" height="3.922"/>
			<rect x="433.758" y="37.695" width="37.125" height="3.93"/>
		</g>
		<rect x="470.883" width="15.195" height="52.859"/>
		<g>
			<rect x="486.079" y="11.242" width="37.133" height="3.938"/>
			<rect x="486.079" y="23.633" width="37.133" height="3.922"/>
			<rect x="486.079" y="37.695" width="37.133" height="3.93"/>
		</g>
		<rect x="523.211" width="15.188" height="52.859"/>
		<g>
			<rect x="538.399" y="11.242" width="37.125" height="3.938"/>
			<rect x="538.399" y="23.633" width="37.125" height="3.922"/>
			<rect x="538.399" y="37.695" width="37.125" height="3.93"/>
		</g>
		<rect x="575.524" width="15.188" height="52.859"/>
		<g>
			<rect x="590.711" y="11.242" width="37.133" height="3.938"/>
			<rect x="590.711" y="23.633" width="37.133" height="3.922"/>
			<rect x="590.711" y="37.695" width="37.133" height="3.93"/>
		</g>
		<rect x="627.844" width="15.195" height="52.859"/>
		<g>
			<rect x="643.04" y="11.242" width="37.125" height="3.938"/>
			<rect x="643.04" y="23.633" width="37.125" height="3.922"/>
			<rect x="643.04" y="37.695" width="37.125" height="3.93"/>
		</g>
		<rect x="680.165" width="15.195" height="52.859"/>
		<g>
			<rect x="695.36" y="11.242" width="37.133" height="3.938"/>
			<rect x="695.36" y="23.633" width="37.133" height="3.922"/>
			<rect x="695.36" y="37.695" width="37.133" height="3.93"/>
		</g>
		<rect x="732.493" width="15.188" height="52.859"/>
		<rect x="784.813" width="15.188" height="52.859"/>
		<g>
			<rect x="747.68" y="11.242" width="37.133" height="3.938"/>
			<rect x="747.68" y="23.633" width="37.133" height="3.922"/>
			<rect x="747.68" y="37.695" width="37.133" height="3.93"/>
		</g>
	</g>
	<path d="M764.563,52.859H35.445H0v227.855h35.445c0,0,182.273-182.285,364.555-182.285c182.281,0,364.562,182.285,364.562,182.285   H800V52.859H764.563z"/>
	<path d="M211.055,179.715"/>
</g>
</svg>