<svg xmlns="http://www.w3.org/2000/svg" xmlns:xlink="http://www.w3.org/1999/xlink" version="1.1" id="Layer_1" x="0px" y="0px" width="100px" height="100px" viewBox="-346 256 100 100" enable-background="new -346 256 100 100" xml:space="preserve">
<g>
	<line x1="-309.572" y1="356" x2="-309.572" y2="356"/>
	<path d="M-302.987,298.768c-0.791,0.993-0.366,1.969,0.474,3.423c0.838,1.453-1.176,3.303,0.694,5.371   c1.87,2.069,5.022,2.942,6.953,5.703c1.932,2.76,1.427,12.051,5.323,13.732c2.762,1.19,5.546-3.849,8.787-7.012   c3.239-3.161,19.459-5.961,23.559-7.62c5.431-2.194,11.074-7.853,11.074-7.853l-6.238-0.274l1.259-2.988l-3.603,0.189l6.038-6.011   l-4.101,0.197l-0.566-5.359c0,0-3.645,0.386-7.644,3.988c-4.001,3.601-13.258,14.215-17.248,14.904   c-3.993,0.689-6.182-0.468-9.943-2.011c-3.76-1.542-6.963-2.116-6.963-2.116s-0.077-2.29-1.283-3.209s-2.641-0.662-2.641-0.662   s-0.07-1.959-1.527-2.697C-301.537,297.982-302.197,297.776-302.987,298.768L-302.987,298.768z"/>
	<polygon points="-309.572,356 -345.833,323.337 -317.6,339.945 -319.814,328.598 -309.019,339.669 -315.386,309.773    -303.575,332.153 -301.822,321.677 -292.134,340.499 -280.509,325.551 -281.94,335.793 -267.083,326.521 -276.08,342.99    -251.261,338.008 -271.375,356 -285.839,356 -277.434,349.187 -286.785,351.383 -284.078,340.983 -294.166,354.02    -294.166,344.938 -297.364,350.211 -300.809,337.616 -302.778,351.09 -311.143,344.938  "/>
</g>
</svg>