<svg xmlns="http://www.w3.org/2000/svg" xmlns:xlink="http://www.w3.org/1999/xlink" version="1.1" id="Layer_1" x="0px" y="0px" width="100px" height="100px" viewBox="-346 256 100 100" enable-background="new -346 256 100 100" xml:space="preserve">
<path d="M-303.062,298.803c-0.793,0.995-0.367,1.974,0.475,3.431c0.841,1.457-1.179,3.311,0.697,5.385  c1.874,2.074,5.034,2.95,6.97,5.717c1.937,2.768,1.432,12.082,5.336,13.767c2.77,1.195,5.561-3.858,8.809-7.027  c3.249-3.171,19.509-5.979,23.62-7.64c5.443-2.201,11.101-7.874,11.101-7.874l-6.254-0.275l1.262-2.995l-3.612,0.19l6.056-6.025  l-4.111,0.198l-0.569-5.374c0,0-3.653,0.387-7.663,3.998c-4.009,3.61-13.289,14.251-17.291,14.942s-6.196-0.47-9.967-2.016  c-3.771-1.546-6.981-2.122-6.981-2.122s-0.076-2.296-1.286-3.217c-1.208-0.921-2.646-0.664-2.646-0.664s-0.071-1.965-1.532-2.704  C-301.607,298.016-302.27,297.809-303.062,298.803L-303.062,298.803z"/>
<polygon points="-271.284,356 -251.189,338.067 -276.072,343.062 -267.053,326.551 -281.946,335.847 -280.513,325.58   -292.167,340.563 -301.879,321.693 -303.636,332.198 -315.476,309.762 -309.094,339.73 -319.916,328.632 -317.696,340.009   -346,323.359 -309.577,355.982 -303.228,355.982 -303.22,350.101 -293.633,350.101 -293.633,346.157 -290.479,346.157   -290.479,350.101 -280.687,350.101 -280.674,356 "/>
</svg>