<svg xmlns="http://www.w3.org/2000/svg" xmlns:xlink="http://www.w3.org/1999/xlink" version="1.1" id="Layer_1" x="0px" y="0px" width="100px" height="100px" viewBox="0 0 100 100" enable-background="new 0 0 100 100" xml:space="preserve">
<path d="M54.808,33.221l-4.652,7.712l-0.581-8.987l-0.712,11.021c-0.053,0.106-0.085,0.223-0.085,0.35  c0,0.439,0.356,0.797,0.797,0.797c0.436,0,0.788-0.35,0.796-0.785L54.808,33.221z"/>
<path d="M78.427,29.605l1.624-1.777L66.589,15.521v-8.8h0.824V5.396H60.31v1.325h1.196v4.154L50.283,0.616L50.2,0.525L20.344,27.82  l1.625,1.777l3.595-3.287l0.841,33.219h-2.211v2.587h15.745v19.446c-0.636,0.26-1.084,0.882-1.084,1.61v14.746  c0,0.962,0.779,1.74,1.74,1.74c0.961,0,1.739-0.778,1.739-1.74V83.173c0-0.856-0.618-1.562-1.432-1.71V62.116h8.607v6.786  c-2.316,0.351-4.093,2.343-4.093,4.756c0,2.66,2.156,4.815,4.816,4.815s4.814-2.155,4.814-4.815c0-2.413-1.776-4.405-4.093-4.756  v-6.786h8.283v14.709c-0.7,0.226-1.208,0.873-1.208,1.647v14.748c0,0.96,0.778,1.74,1.74,1.74c0.959,0,1.738-0.78,1.738-1.74V78.473  c0-0.811-0.558-1.486-1.308-1.68V62.116h15.522v-2.587h-2.024l0.846-33.474L78.427,29.605z M50.051,57.056  c-7.049,0-12.762-5.713-12.762-12.762c0-7.048,5.713-12.761,12.762-12.761c7.047,0,12.761,5.713,12.761,12.761  C62.812,51.343,57.098,57.056,50.051,57.056z M56.4,24.058v1.083H43.279v-1.083H45.2v-5.124c0-4.61,4.851-4.851,4.851-4.851  s4.85,0.241,4.85,4.851v5.124H56.4z M73.979,26.229c-0.727,0.78-1.952,0.823-2.731,0.098c-0.582-0.542-0.755-1.361-0.503-2.066  c-0.686,0.302-1.516,0.188-2.096-0.352c-0.583-0.541-0.754-1.36-0.503-2.065c-0.686,0.301-1.514,0.188-2.095-0.353  c-0.584-0.541-0.756-1.36-0.504-2.065c-0.687,0.301-1.514,0.188-2.096-0.353c-0.581-0.541-0.755-1.359-0.505-2.065  c-0.686,0.301-1.514,0.188-2.096-0.352c-0.582-0.542-0.754-1.361-0.503-2.066c-0.684,0.301-1.514,0.188-2.096-0.352  c-0.581-0.542-0.754-1.36-0.503-2.066c-0.685,0.302-1.515,0.188-2.097-0.353c-0.581-0.541-0.754-1.36-0.503-2.065  c-0.686,0.301-1.515,0.188-2.096-0.353c-0.582-0.541-0.755-1.36-0.503-2.066c-0.685,0.302-1.514,0.189-2.096-0.352  C50.25,6.793,50.1,6.567,49.997,6.325c-0.103,0.243-0.254,0.468-0.458,0.659c-0.582,0.541-1.411,0.654-2.096,0.352  c0.251,0.706,0.079,1.525-0.503,2.066c-0.582,0.541-1.411,0.654-2.095,0.353c0.25,0.706,0.079,1.524-0.504,2.065  c-0.582,0.541-1.411,0.654-2.096,0.353c0.251,0.706,0.079,1.523-0.503,2.066c-0.582,0.541-1.411,0.653-2.096,0.352  c0.251,0.705,0.08,1.523-0.502,2.066c-0.583,0.541-1.411,0.653-2.096,0.352c0.25,0.706,0.078,1.524-0.504,2.065  c-0.582,0.541-1.411,0.654-2.096,0.353c0.251,0.706,0.08,1.524-0.503,2.065c-0.582,0.541-1.411,0.654-2.095,0.353  c0.251,0.705,0.079,1.524-0.503,2.065c-0.582,0.541-1.411,0.654-2.096,0.352c0.25,0.705,0.079,1.524-0.503,2.066  c-0.78,0.725-2.005,0.682-2.731-0.098c-0.018-0.02-0.033-0.04-0.049-0.059l0.233-0.218c0.017,0.02,0.029,0.042,0.047,0.062  c0.607,0.653,1.633,0.69,2.285,0.082c0.653-0.607,0.689-1.632,0.083-2.285c-0.019-0.019-0.04-0.033-0.058-0.051l0.242-0.226  c0.017,0.021,0.029,0.042,0.046,0.062c0.608,0.653,1.633,0.69,2.286,0.082c0.653-0.606,0.69-1.632,0.083-2.285  c-0.018-0.02-0.04-0.033-0.058-0.051l0.243-0.226c0.016,0.02,0.028,0.042,0.046,0.062c0.607,0.653,1.633,0.69,2.286,0.083  c0.653-0.607,0.69-1.632,0.083-2.286c-0.018-0.02-0.04-0.032-0.058-0.05l0.242-0.227c0.017,0.021,0.029,0.043,0.047,0.062  c0.606,0.653,1.631,0.69,2.285,0.082c0.653-0.607,0.69-1.632,0.083-2.284c-0.018-0.02-0.039-0.034-0.058-0.051l0.242-0.226  c0.017,0.021,0.029,0.042,0.046,0.062c0.608,0.653,1.632,0.69,2.286,0.083c0.652-0.607,0.69-1.633,0.082-2.286  c-0.017-0.019-0.039-0.033-0.058-0.051l0.242-0.226c0.018,0.021,0.029,0.042,0.047,0.062c0.608,0.653,1.633,0.691,2.286,0.083  c0.653-0.607,0.689-1.633,0.083-2.285c-0.018-0.019-0.04-0.033-0.058-0.051l0.243-0.225c0.017,0.02,0.028,0.042,0.046,0.062  c0.607,0.653,1.633,0.69,2.286,0.082c0.653-0.607,0.689-1.632,0.083-2.285c-0.018-0.02-0.039-0.033-0.058-0.051l0.242-0.226  c0.017,0.02,0.029,0.042,0.047,0.062c0.607,0.653,1.632,0.69,2.285,0.082c0.652-0.607,0.69-1.632,0.083-2.285  c-0.018-0.02-0.039-0.033-0.058-0.051l0.242-0.225c0.017,0.02,0.03,0.042,0.047,0.061c0.608,0.653,1.633,0.69,2.286,0.083  c0.653-0.607,0.69-1.633,0.082-2.286c-0.018-0.019-0.04-0.033-0.058-0.05l0.234-0.219c0.018,0.019,0.037,0.035,0.055,0.053  c0.159,0.171,0.274,0.366,0.36,0.569c0.085-0.203,0.201-0.398,0.361-0.569c0.017-0.018,0.035-0.035,0.055-0.053l0.234,0.219  c-0.02,0.017-0.041,0.031-0.06,0.05c-0.607,0.653-0.57,1.678,0.083,2.286s1.679,0.57,2.286-0.083  c0.018-0.02,0.028-0.042,0.045-0.061l0.243,0.225c-0.02,0.018-0.041,0.032-0.057,0.051c-0.609,0.653-0.572,1.678,0.081,2.285  c0.654,0.608,1.678,0.571,2.286-0.082c0.019-0.02,0.029-0.042,0.047-0.062l0.242,0.226c-0.02,0.018-0.041,0.031-0.06,0.051  c-0.606,0.653-0.568,1.678,0.084,2.285c0.653,0.608,1.678,0.571,2.284-0.082c0.019-0.02,0.032-0.042,0.049-0.062l0.241,0.225  c-0.02,0.019-0.04,0.032-0.059,0.051c-0.606,0.652-0.568,1.678,0.083,2.285c0.653,0.608,1.679,0.571,2.285-0.083  c0.019-0.019,0.03-0.041,0.047-0.062l0.242,0.226c-0.018,0.018-0.039,0.032-0.058,0.051c-0.607,0.653-0.569,1.678,0.082,2.286  c0.653,0.607,1.68,0.57,2.286-0.083c0.018-0.019,0.029-0.041,0.046-0.062l0.244,0.226c-0.019,0.018-0.041,0.031-0.06,0.051  c-0.606,0.652-0.571,1.677,0.083,2.284c0.653,0.608,1.678,0.571,2.286-0.082c0.018-0.019,0.028-0.042,0.046-0.062l0.241,0.227  c-0.017,0.018-0.04,0.031-0.057,0.05c-0.606,0.654-0.57,1.678,0.081,2.286c0.654,0.607,1.68,0.571,2.288-0.083  c0.018-0.019,0.028-0.042,0.045-0.062l0.242,0.226c-0.02,0.018-0.039,0.032-0.058,0.051c-0.607,0.653-0.571,1.678,0.082,2.285  c0.653,0.608,1.678,0.571,2.286-0.082c0.018-0.019,0.03-0.041,0.046-0.062l0.243,0.226c-0.019,0.018-0.041,0.032-0.058,0.051  c-0.607,0.652-0.571,1.678,0.082,2.285c0.652,0.608,1.677,0.571,2.284-0.082c0.019-0.019,0.032-0.042,0.05-0.062l0.231,0.218  C74.012,26.189,73.996,26.209,73.979,26.229z"/>
</svg>