<svg xmlns="http://www.w3.org/2000/svg" xmlns:xlink="http://www.w3.org/1999/xlink" version="1.1" id="Layer_1" x="0px" y="0px" width="100px" height="100px" viewBox="0 0 100 100" style="enable-background:new 0 0 100 100;" xml:space="preserve">
<path style="fill:#010101;" d="M94.715,28.039L63.55,59.204h35.522C99.634,56.201,100,53.149,100,50  C100,42.084,97.998,34.692,94.715,28.039z"/>
<path style="fill:#010101;" d="M40.802,63.599v35.474C43.793,99.634,46.851,100,50,100c7.91,0,15.283-2.002,21.936-5.273  L40.802,63.599z"/>
<path style="fill:#010101;" d="M52.338,65.796l25.641,25.647c9.009-6.092,15.711-15.137,19.227-25.647H52.338z"/>
<path style="fill:#010101;" d="M0.928,40.802C0.372,43.793,0,46.851,0,50c0,7.935,2.014,15.332,5.298,21.984L36.48,40.802H0.928z"/>
<path style="fill:#010101;" d="M65.796,47.626l25.635-25.623C85.327,13.007,76.294,6.311,65.796,2.795V47.626z"/>
<path style="fill:#010101;" d="M59.198,36.7V0.928C56.207,0.372,53.149,0,50,0c-7.983,0-15.43,2.045-22.125,5.377L59.198,36.7z"/>
<path style="fill:#010101;" d="M34.198,52.417L8.594,78.016C14.686,87,23.712,93.689,34.198,97.205V52.417z"/>
<path style="fill:#010101;" d="M21.863,8.691c-8.924,6.092-15.57,15.069-19.068,25.507h44.574L21.863,8.691z"/>
</svg>