<svg xmlns="http://www.w3.org/2000/svg" xmlns:xlink="http://www.w3.org/1999/xlink" version="1.1" id="Layer_1" x="0px" y="0px" width="100px" height="100px" viewBox="0 0 100 100" style="enable-background:new 0 0 100 100;" xml:space="preserve">
<path style="fill:#010101;" d="M51.562,31.25l-16.9-28.601C20.6,7.208,9.229,17.646,3.711,31.25H51.562z"/>
<path style="fill:#010101;" d="M66.162,43.689l17.785-30.201C75.024,5.182,63.159,0,50,0c-3.119,0-6.141,0.372-9.101,0.916  L66.162,43.689z"/>
<path style="fill:#010101;" d="M37.83,37.5H1.77C0.727,41.516,0,45.654,0,50c0,12.158,4.517,23.156,11.737,31.836L37.83,37.5z"/>
<path style="fill:#010101;" d="M62.348,62.5H98.23C99.268,58.484,100,54.346,100,50c0-12.104-4.468-23.053-11.633-31.701  L62.348,62.5z"/>
<path style="fill:#010101;" d="M48.853,68.75l16.846,28.491C79.602,92.603,90.82,82.238,96.289,68.75H48.853z"/>
<path style="fill:#010101;" d="M34.119,56.128L16.168,86.621C25.086,94.849,36.902,100,50,100c3.253,0,6.421-0.366,9.503-0.952  L34.119,56.128z"/>
</svg>