<svg xmlns="http://www.w3.org/2000/svg" xmlns:xlink="http://www.w3.org/1999/xlink" version="1.1" id="Layer_1" x="0px" y="0px" width="100px" height="100px" viewBox="0 0 100 100" style="enable-background:new 0 0 100 100;" xml:space="preserve">
<polygon style="fill:#010101;" points="62.5,37.5 0,37.5 0,25 62.5,25 62.5,37.5 "/>
<polygon style="fill:#010101;" points="75,100 0,100 0,87.5 75,87.5 75,100 "/>
<polygon style="fill:#010101;" points="100,12.5 0,12.5 0,0 100,0 100,12.5 "/>
<polygon style="fill:#010101;" points="100,75 0,75 0,62.5 100,62.5 100,75 "/>
<path style="fill:#010101;" d="M100,93.75c0,3.455-2.808,6.25-6.25,6.25c-3.467,0-6.262-2.795-6.262-6.25s2.795-6.25,6.262-6.25  C97.192,87.5,100,90.295,100,93.75z"/>
</svg>