<svg xmlns="http://www.w3.org/2000/svg" xmlns:xlink="http://www.w3.org/1999/xlink" version="1.1" id="Layer_1" x="0px" y="0px" width="50px" height="100px" viewBox="0 0 50 100" style="enable-background:new 0 0 50 100;" xml:space="preserve">
<path style="fill:#010101;" d="M25,62.5c-4.406,0-8.569-0.903-12.5-2.301V100L25,87.5L37.5,100V60.199  C33.569,61.597,29.406,62.5,25,62.5z"/>
<path style="fill:#010101;" d="M25,0C11.193,0,0,11.193,0,25s11.193,25,25,25s25-11.193,25-25S38.807,0,25,0z M25,37.5  c-6.909,0-12.5-5.597-12.5-12.5S18.091,12.5,25,12.5S37.5,18.097,37.5,25S31.909,37.5,25,37.5z"/>
</svg>