<?xml version="1.0" encoding="utf-8"?>
<!-- Generator: Adobe Illustrator 14.0.0, SVG Export Plug-In . SVG Version: 6.00 Build 43363)  -->
<!DOCTYPE svg PUBLIC "-//W3C//DTD SVG 1.0//EN" "http://www.w3.org/TR/2001/REC-SVG-20010904/DTD/svg10.dtd">
<svg version="1.0" id="Layer_1" xmlns="http://www.w3.org/2000/svg" xmlns:xlink="http://www.w3.org/1999/xlink" x="0px" y="0px"
	 width="91.037px" height="100px" viewBox="0 0 91.037 100" enable-background="new 0 0 91.037 100" xml:space="preserve">
<path id="path3176" d="M45.52,0c0,0-12.65,14.596-12.65,31.526c0,10.076,11.946,13.775,12.65,33.852
	c0.704-20.077,12.65-23.776,12.65-33.852C58.17,14.596,45.52,0,45.52,0z"/>
<path id="path3178" d="M43.925,65.589C37.938,24.554-8.834,35.374,1.48,62.595c3.641,9.608,21.144,9.757,14.928,16.173
	c5.733-1.298,4.498-6.392,2.581-8.567c-2.902-3.295-7.855-11.103,0.809-15.354c6.193-3.039,18.625,2.02,19.242,12.158
	C41.337,65.725,43.897,65.646,43.925,65.589z"/>
<path id="path3184" d="M40.65,77.897c0,0,0.335,2.263-0.918,7.223c-1.68,6.646-7.553,4.887-7.553,4.887
	c3.776,3.637,8.577,3.045,11.217-1.495C40.672,94.406,45.52,100,45.52,100s4.847-5.594,2.124-11.488
	c2.641,4.54,7.44,5.132,11.217,1.495c0,0-5.873,1.76-7.554-4.887c-1.253-4.96-0.917-7.223-0.917-7.223s-2.06,0.69-4.87,0.569
	C42.708,78.588,40.65,77.897,40.65,77.897z"/>
<path id="path3188" d="M54.678,72.069c0.005,2.586-4.091,4.684-9.15,4.687c-5.057,0.002-9.162-2.092-9.167-4.677
	c0-0.005,0-0.007,0-0.01c-0.005-2.586,4.091-4.685,9.149-4.687c5.058-0.003,9.163,2.092,9.167,4.678
	C54.678,72.063,54.678,72.066,54.678,72.069z"/>
<path id="path2391" d="M47.114,65.589c5.987-41.035,52.758-30.215,42.443-2.994c-3.641,9.608-21.142,9.757-14.927,16.173
	c-5.734-1.298-4.498-6.392-2.58-8.567c2.901-3.295,7.855-11.103-0.809-15.354C65.048,51.807,52.617,56.865,52,67.004
	C49.701,65.725,47.142,65.646,47.114,65.589z"/>
</svg>
