<svg xmlns="http://www.w3.org/2000/svg" xmlns:xlink="http://www.w3.org/1999/xlink" version="1.1" id="Layer_1" x="0px" y="0px" width="100px" height="50px" viewBox="0 0 100 50" style="enable-background:new 0 0 100 50;" xml:space="preserve">
<path style="fill:#010101;" d="M87.5,12.5V6.25C87.5,2.813,84.692,0,81.25,0h-75C2.808,0,0,2.813,0,6.25v12.635h19.959  c2.575-7.264,9.447-12.5,17.602-12.5V12.5h12.451v6.25H37.561v12.5h12.708v6.25H37.561v6.385c-8.154,0-15.026-5.237-17.602-12.5H0  V43.75C0,47.192,2.808,50,6.25,50h75c3.442,0,6.25-2.808,6.25-6.25V37.5H100v-25H87.5z"/>
</svg>