<svg xmlns="http://www.w3.org/2000/svg" xmlns:xlink="http://www.w3.org/1999/xlink" version="1.1" id="Layer_1" x="0px" y="0px" width="100px" height="100px" viewBox="0 0 100 100" style="enable-background:new 0 0 100 100;" xml:space="preserve">
<path style="fill:#010101;" d="M37.5,75c0-6.909-5.604-12.5-12.5-12.5c-6.909,0-12.5,5.591-12.5,12.5v0.024  c0,9.241-5.029,17.298-12.5,21.618l0.049,0.037C3.711,98.791,7.959,100,12.5,100C26.307,100,37.5,88.807,37.5,75L37.5,75z"/>
<path style="fill:#010101;" d="M96.338,3.662c-4.883-4.883-12.793-4.883-17.676,0L31.396,50.928  c8.618,2.307,15.381,9.058,17.676,17.688l47.266-47.277C101.221,16.455,101.221,8.545,96.338,3.662z"/>
</svg>