<svg xmlns="http://www.w3.org/2000/svg" xmlns:xlink="http://www.w3.org/1999/xlink" version="1.1" id="Layer_1" x="0px" y="0px" width="100px" height="100px" viewBox="0 0 100 100" style="enable-background:new 0 0 100 100;" xml:space="preserve">
<path style="fill:#010101;" d="M25,18.75V6.25C25,2.795,27.795,0,31.25,0s6.25,2.795,6.25,6.25v12.5c0,3.455-2.795,6.25-6.25,6.25  S25,22.205,25,18.75z"/>
<path style="fill:#010101;" d="M81.25,12.5v6.396c0,6.909-5.591,12.5-12.5,12.5s-12.5-5.591-12.5-12.5V12.5h-12.5v6.396  c0,6.909-5.591,12.5-12.5,12.5s-12.5-5.591-12.5-12.5V12.5H0V100h100V12.5H81.25z M31.25,87.5h-12.5V75h12.5V87.5z M31.25,62.5  h-12.5V50h12.5V62.5z M56.25,87.5h-12.5V75h12.5V87.5z M56.25,62.524h-12.5v-12.5h12.5V62.524z M68.75,87.5V75h12.5L68.75,87.5z   M81.25,62.5h-12.5V50h12.5V62.5z"/>
<path style="fill:#010101;" d="M62.5,18.75V6.25C62.5,2.795,65.295,0,68.75,0S75,2.795,75,6.25v12.5c0,3.455-2.795,6.25-6.25,6.25  S62.5,22.205,62.5,18.75z"/>
</svg>