<svg xmlns="http://www.w3.org/2000/svg" xmlns:xlink="http://www.w3.org/1999/xlink" version="1.1" id="Layer_1" x="0px" y="0px" width="100px" height="100px" viewBox="0 0 100 100" style="enable-background:new 0 0 100 100;" xml:space="preserve">
<path style="fill:#010101;" d="M62.5,50C55.597,50,50,55.597,50,62.5C50,69.409,55.597,75,62.5,75C69.409,75,75,69.409,75,62.5  C75,55.597,69.409,50,62.5,50z"/>
<path style="fill:#010101;" d="M87.5,25L77.222,4.242C76.379,1.776,74.048,0,71.289,0H54.126c-2.789,0-5.146,1.819-5.951,4.327  L37.512,25H12.5C5.597,25,0,30.597,0,37.5V100h100V37.5C100,30.597,94.409,25,87.5,25z M18.75,50c-3.455,0-6.25-2.795-6.25-6.25  s2.795-6.25,6.25-6.25S25,40.295,25,43.75S22.205,50,18.75,50z M62.5,87.5c-13.807,0-25-11.193-25-25s11.193-25,25-25  s25,11.193,25,25S76.307,87.5,62.5,87.5z"/>
</svg>