<svg xmlns="http://www.w3.org/2000/svg" xmlns:xlink="http://www.w3.org/1999/xlink" version="1.1" id="Layer_1" x="0px" y="0px" width="100px" height="100px" viewBox="0 0 100 100" style="enable-background:new 0 0 100 100;" xml:space="preserve">
<g>
	<path style="fill:#010101;" d="M74.988,37.5c0,13.807-11.182,25-24.988,25C50,55.604,44.396,50,37.5,50H24.988   C12.5,50,0,42.969,0,25C0,6.641,12.5,0,24.988,0H50c12.5,0,24.988,7.745,24.988,25V37.5z"/>
</g>
<path style="fill:#010101;" d="M37.5,37.5"/>
<path style="fill:#010101;" d="M37.5,37.5"/>
<g>
	<g>
		<path style="fill:#010101;" d="M81.189,38.165C80.822,55.078,66.992,68.75,50,68.75h-6.25V62.5c0-3.448-2.808-6.25-6.25-6.25    H25.623c-0.391,1.935-0.635,4.004-0.635,6.25V75c0,13.807,11.205,25,25.012,25c0-6.909,5.604-12.5,12.5-12.5h12.488    C87.5,87.5,100,80.469,100,62.5C100,47.211,91.297,40.125,81.189,38.165z"/>
	</g>
</g>
</svg>