<svg xmlns="http://www.w3.org/2000/svg" xmlns:xlink="http://www.w3.org/1999/xlink" version="1.1" id="Layer_1" x="0px" y="0px" width="100px" height="100px" viewBox="0 0 100 100" style="enable-background:new 0 0 100 100;" xml:space="preserve">
<g>
	<path style="fill:#010101;" d="M81.177,38.165c-0.085,4.334-1.05,8.423-2.759,12.152C87.427,51.818,87.5,59.155,87.5,62.5   c0,3.101,0,12.5-12.488,12.5H62.5c-8.143,0-15.43,3.931-19.995,10.01C39.478,82.715,37.5,79.077,37.5,75V62.5   c0-2.472,0.439-4.419,1.123-6.024c-0.366-0.067-0.732-0.226-1.123-0.226H25.635c-0.402,1.935-0.623,4.004-0.623,6.25V75   c0,13.807,11.182,25,24.988,25c0-6.909,5.591-12.5,12.5-12.5h12.512C87.5,87.5,100,80.469,100,62.5   C100,47.211,91.309,40.125,81.177,38.165z"/>
</g>
<path style="fill:#010101;" d="M50,12.5c4.663,0,12.5,1.623,12.5,12.5v12.5c0,4.09-1.978,7.721-5.005,10.004  C52.93,41.437,45.654,37.5,37.5,37.5H25.012C12.5,37.5,12.5,28.095,12.5,25c0-3.735,0-12.5,12.512-12.5H50 M50,0H25.012  C12.5,0,0,6.641,0,25c0,17.969,12.5,25,25.012,25H37.5C44.409,50,50,55.604,50,62.5c13.807,0,25.012-11.193,25.012-25V25  C75.012,7.745,62.5,0,50,0L50,0z"/>
</svg>