<svg xmlns="http://www.w3.org/2000/svg" xmlns:xlink="http://www.w3.org/1999/xlink" version="1.1" id="Layer_1" x="0px" y="0px" width="100px" height="100px" viewBox="0 0 100 100" style="enable-background:new 0 0 100 100;" xml:space="preserve">
<path style="fill:#010101;" d="M74.988,37.5V25C74.988,7.739,62.5,0,50,0H24.988C12.5,0,0,6.641,0,25c0,17.969,12.5,25,24.988,25  h2.904c-1.77,3.437-2.904,7.52-2.904,12.5V75c0,13.807,11.205,25,25.012,25c0-6.909,5.604-12.5,12.5-12.5h12.488  C87.5,87.5,100,80.469,100,62.5C100,44.141,87.5,37.5,74.988,37.5z M24.988,37.5C12.5,37.5,12.5,28.088,12.5,25  c0-3.748,0-12.5,12.488-12.5H50c4.676,0,12.5,1.623,12.5,12.5v12.5c0,4.083-1.965,7.721-5.029,10.004  C52.905,41.431,45.654,37.5,37.5,37.5H24.988z M74.988,75H62.5c-8.166,0-15.43,3.931-19.995,9.998  C39.465,82.715,37.5,79.077,37.5,75V62.5c0-5.719,2.844-9.191,5.676-10.975C47.18,53.613,50,57.678,50,62.5  c9.24,0,17.212-5.066,21.545-12.512c-0.012,0.006-0.012,0.006-0.012,0.006L74.988,50C87.5,50,87.5,58.759,87.5,62.5  C87.5,65.601,87.5,75,74.988,75z M74.121,43.731c-0.086,0.287-0.184,0.567-0.269,0.849C73.938,44.299,74.048,44.019,74.121,43.731z"/>
</svg>