<svg xmlns="http://www.w3.org/2000/svg" xmlns:xlink="http://www.w3.org/1999/xlink" version="1.1" id="Layer_1" x="0px" y="0px" width="100px" height="100px" viewBox="0 0 100 100" style="enable-background:new 0 0 100 100;" xml:space="preserve">
<path style="fill:#010101;" d="M50,12.5c20.679,0,37.5,16.821,37.5,37.5S70.679,87.5,50,87.5S12.5,70.679,12.5,50  S29.321,12.5,50,12.5 M50,0C22.388,0,0,22.388,0,50s22.388,50,50,50s50-22.388,50-50S77.612,0,50,0L50,0z"/>
<path style="fill:#010101;" d="M66.943,58.057L56.25,47.352V25H43.677v24.976c0,1.88,0.866,3.503,2.173,4.663l12.256,12.256  L66.943,58.057z"/>
</svg>