<svg xmlns="http://www.w3.org/2000/svg" xmlns:xlink="http://www.w3.org/1999/xlink" version="1.1" id="Layer_1" x="0px" y="0px" width="100px" height="100px" viewBox="0 0 100 100" style="enable-background:new 0 0 100 100;" xml:space="preserve">
<g>
	<path style="fill:#010101;" d="M75,12.5c-1.172,0-2.307,0.184-3.442,0.354C67.199,5.139,59.143,0,50,0   c-9.338,0-17.401,5.213-21.691,12.805C27.209,12.658,26.117,12.5,25,12.5c-13.788,0-25,11.219-25,25s11.212,25,25,25h18.75v18.75   h-12.5L49.994,100L68.75,81.25h-12.5V62.5H75c13.794,0,25-11.219,25-25S88.794,12.5,75,12.5z M75,50H25   c-6.891,0-12.5-5.604-12.5-12.5c0-6.848,6.073-12.146,12.512-12.329c0.025,2.942,0.537,5.847,1.562,8.581l11.707-4.395   C37.763,27.979,37.5,26.502,37.5,25c0-6.896,5.609-12.5,12.5-12.5c4.047,0,7.696,2.002,10.004,5.115   C53.967,22.18,50,29.357,50,37.5h12.5C62.5,30.604,68.115,25,75,25s12.5,5.604,12.5,12.5S81.885,50,75,50z"/>
</g>
</svg>