<svg xmlns="http://www.w3.org/2000/svg" xmlns:xlink="http://www.w3.org/1999/xlink" version="1.1" id="Layer_1" x="0px" y="0px" width="100px" height="100px" viewBox="0 0 100 100" style="enable-background:new 0 0 100 100;" xml:space="preserve">
<path style="fill:#010101;" d="M75,12.5c-1.172,0-2.307,0.195-3.442,0.342C67.199,5.151,59.143,0,50,0  c-9.338,0-17.401,5.2-21.691,12.817C27.209,12.671,26.117,12.5,25,12.5c-13.788,0-25,11.206-25,25s11.212,25,25,25h50  c13.794,0,25-11.206,25-25S88.794,12.5,75,12.5z M75,50H25c-6.891,0-12.5-5.615-12.5-12.5c0-6.86,6.073-12.134,12.512-12.329  c0.025,2.954,0.537,5.835,1.562,8.569l11.707-4.37C37.763,27.979,37.5,26.514,37.5,25c0-6.885,5.609-12.5,12.5-12.5  c4.047,0,7.696,2.002,10.004,5.127C53.967,22.192,50,29.357,50,37.5h12.5C62.5,30.615,68.115,25,75,25s12.5,5.615,12.5,12.5  S81.885,50,75,50z"/>
<g>
	<polygon style="fill:#010101;" points="56.256,81.25 68.75,81.25 50.012,62.5 31.256,81.25 43.756,81.25 43.756,100 56.256,100     "/>
</g>
</svg>