<?xml version="1.0" encoding="utf-8"?>
<!-- Generator: Adobe Illustrator 14.0.0, SVG Export Plug-In . SVG Version: 6.00 Build 43363)  -->
<!DOCTYPE svg PUBLIC "-//W3C//DTD SVG 1.0//EN" "http://www.w3.org/TR/2001/REC-SVG-20010904/DTD/svg10.dtd">
<svg version="1.0" id="Layer_1" xmlns="http://www.w3.org/2000/svg" xmlns:xlink="http://www.w3.org/1999/xlink" x="0px" y="0px"
	 width="93.344px" height="100px" viewBox="0 0 93.344 100" enable-background="new 0 0 93.344 100" xml:space="preserve">
<polygon points="58.049,19.658 77.709,0 93.344,15.734 73.685,35.196 "/>
<polygon points="0,18.672 17.901,0.766 23.872,6.638 5.964,24.646 "/>
<polygon points="11.933,30.509 17.901,36.483 35.807,18.577 29.84,12.604 "/>
<rect x="33.725" y="74.68" width="25.317" height="8.438"/>
<rect x="33.725" y="91.556" width="25.317" height="8.444"/>
<path d="M46.387,27.875c-10.568,0-19.136,8.568-19.136,19.136c0,10.569,8.568,19.136,19.136,19.136
	c10.568,0,19.136-8.567,19.136-19.136C65.522,36.444,56.955,27.875,46.387,27.875z M46.557,57.796
	c-5.93,0-10.738-4.808-10.738-10.737c0-5.93,4.808-10.738,10.738-10.738c5.93,0,10.737,4.808,10.737,10.738
	C57.294,52.988,52.486,57.796,46.557,57.796z"/>
</svg>
