<svg xmlns="http://www.w3.org/2000/svg" xmlns:xlink="http://www.w3.org/1999/xlink" version="1.1" id="Layer_1" x="0px" y="0px" width="87.5px" height="100px" viewBox="0 0 87.5 100" style="enable-background:new 0 0 87.5 100;" xml:space="preserve">
<path style="fill:#010101;" d="M43.75,12.5C60.986,12.5,75,26.514,75,43.75S60.986,75,43.75,75c-2.209,0-4.602-0.33-7.312-0.988  l-5.322-1.318l-4.564,3.027l-1.429,0.939l0.013-2.137l0.023-5.163l-3.625-3.675C15.711,59.777,12.5,51.99,12.5,43.75  C12.5,26.514,26.514,12.5,43.75,12.5 M43.75,0C19.592,0,0,19.592,0,43.75c0,11.975,4.834,22.803,12.635,30.713L12.5,100  l20.947-13.855c3.32,0.818,6.738,1.355,10.303,1.355c24.158,0,43.75-19.592,43.75-43.75S67.908,0,43.75,0L43.75,0z"/>
</svg>