<svg xmlns="http://www.w3.org/2000/svg" xmlns:xlink="http://www.w3.org/1999/xlink" version="1.1" id="Layer_1" x="0px" y="0px" width="100px" height="100px" viewBox="0 0 100 100" style="enable-background:new 0 0 100 100;" xml:space="preserve">
<path style="fill:#010101;" d="M50,12.5c20.679,0,37.5,16.821,37.5,37.5S70.679,87.5,50,87.5S12.5,70.679,12.5,50  S29.321,12.5,50,12.5 M50,0C22.388,0,0,22.388,0,50s22.388,50,50,50s50-22.388,50-50S77.612,0,50,0L50,0z"/>
<g>
	<path style="fill:#010101;" d="M56.641,43.371c2.49,2.497,3.149,6.031,2.246,9.198L75,25L47.803,41.059   C50.879,40.302,54.236,40.967,56.641,43.371z"/>
	<path style="fill:#010101;" d="M43.384,56.629c-2.417-2.411-3.076-5.78-2.319-8.863L25,75l27.6-16.125   C49.426,59.79,45.887,59.131,43.384,56.629z"/>
</g>
</svg>