<svg xmlns="http://www.w3.org/2000/svg" xmlns:xlink="http://www.w3.org/1999/xlink" version="1.1" id="Layer_1" x="0px" y="0px" width="100px" height="99.463px" viewBox="0 0 100 99.463" style="enable-background:new 0 0 100 99.463;" xml:space="preserve">
<path style="fill:#010101;" d="M50,36.963c-6.909,0-12.5,5.591-12.5,12.5s5.604,12.5,12.5,12.5c6.909,0,12.5-5.591,12.5-12.5  S56.909,36.963,50,36.963z"/>
<path style="fill:#010101;" d="M89.233,18.896c-1.074,0.879-2.38,1.465-3.882,1.465c-3.442,0-6.25-2.783-6.25-6.25  c0-1.514,0.61-2.856,1.514-3.955C73.682,4.81,65.283,1.208,56.128,0.073c-0.317,3.149-2.881,5.64-6.128,5.64S44.152,3.198,43.872,0  c-9.277,1.196-17.725,4.858-24.72,10.4c0.794,1.05,1.355,2.295,1.355,3.711c0,3.467-2.783,6.25-6.25,6.25  c-1.392,0-2.637-0.537-3.674-1.318C4.053,27.49,0,37.964,0,49.463c0,27.612,22.388,50,50,50s50-22.388,50-50  C100,37.854,95.898,27.332,89.233,18.896z M50,74.463c-13.807,0-25-11.193-25-25c0-6.909,2.795-13.146,7.324-17.676L50,14.111  l17.651,17.651C72.192,36.291,75,42.554,75,49.463C75,63.281,63.807,74.463,50,74.463z"/>
</svg>