<svg xmlns="http://www.w3.org/2000/svg" xmlns:xlink="http://www.w3.org/1999/xlink" version="1.1" id="Layer_1" x="0px" y="0px" width="100px" height="100px" viewBox="0 0 100 100" style="enable-background:new 0 0 100 100;" xml:space="preserve">
<path style="fill:#010101;" d="M68.799,0H0v99.805l25.158-20.557L50.22,100l25.036-20.728L100,99.951V31.25L68.799,0z   M87.561,74.805L75.207,64.722L50.22,85.4L25.281,64.746l-12.77,10.059c0,0,0-54.248,0-62.5c6.568,0,24.402,0,37.525,0v37.5h37.523  C87.561,58.338,87.561,74.805,87.561,74.805z M62.549,37.305c0-4.822,0-18.481,0-25c5.054,5.054,20.008,19.995,25.012,25  C81.164,37.305,67.407,37.305,62.549,37.305z"/>
</svg>