<svg xmlns="http://www.w3.org/2000/svg" xmlns:xlink="http://www.w3.org/1999/xlink" version="1.1" id="Layer_1" x="0px" y="0px" width="100px" height="75px" viewBox="0 0 100 75" style="enable-background:new 0 0 100 75;" xml:space="preserve">
<path style="fill:#010101;" d="M50,0C22.388,0,0,37.012,0,37.012S22.388,75,50,75s50-37.988,50-37.988S77.612,0,50,0z M50,62.5  c-13.807,0-25-11.193-25-25s11.193-25,25-25s25,11.193,25,25S63.807,62.5,50,62.5z"/>
<path style="fill:#010101;" d="M62.5,37.549c0,6.909-5.597,12.5-12.5,12.5s-12.5-5.591-12.5-12.5s5.597-12.5,12.5-12.5  S62.5,30.64,62.5,37.549z"/>
</svg>