<svg xmlns="http://www.w3.org/2000/svg" xmlns:xlink="http://www.w3.org/1999/xlink" version="1.1" id="Layer_1" x="0px" y="0px" width="99.982px" height="100px" viewBox="0 0 99.982 100" style="enable-background:new 0 0 99.982 100;" xml:space="preserve">
<path style="fill:#010101;" d="M92.658,42.762c9.767-9.748,9.767-25.562,0-35.303C87.787,2.588,81.391,0.146,75.03,0.146  c-6.397,0-12.788,2.441-17.646,7.312l-1.856,1.843L46.237,0L37.43,8.819l9.296,9.296L0,64.868v22.656L12.281,100h23.171  l46.549-46.582l8.997,8.99l8.839-8.813l-9.01-8.99L92.658,42.762z M32.254,85.522c0.146-4.736-1.49-9.485-5.092-13.086  c-3.308-3.32-7.629-4.944-11.976-5.091l40.366-40.387L73.175,44.58L32.254,85.522z"/>
</svg>