<?xml version="1.0" encoding="utf-8"?>
<!-- Generator: Adobe Illustrator 14.0.0, SVG Export Plug-In . SVG Version: 6.00 Build 43363)  -->
<!DOCTYPE svg PUBLIC "-//W3C//DTD SVG 1.0//EN" "http://www.w3.org/TR/2001/REC-SVG-20010904/DTD/svg10.dtd">
<svg version="1.0" id="Layer_1" xmlns="http://www.w3.org/2000/svg" xmlns:xlink="http://www.w3.org/1999/xlink" x="0px" y="0px"
	 width="98.895px" height="100px" viewBox="0 0 98.895 100" enable-background="new 0 0 98.895 100" xml:space="preserve">
<path id="path1903" d="M49.447,0C22.402,0,0.411,21.982,0,49.223C0.404,35.782,11.323,25,24.717,25c13.65,0,24.729,11.2,24.729,25
	c0-13.801,11.079-25,24.729-25V6.701C66.901,2.442,58.454,0,49.447,0z M49.447,50.001c0,13.799-11.08,25-24.729,25v18.297
	C31.993,97.558,40.439,100,49.447,100c27.046,0,49.036-21.983,49.448-49.225C98.49,64.218,87.572,75.001,74.176,75.001
	C60.526,75.001,49.447,63.8,49.447,50.001z"/>
<path id="path2808" d="M37.082,50.001
	c0,6.903-5.536,12.5-12.364,12.5c-6.829,0-12.365-5.597-12.365-12.5c0-6.905,5.536-12.501,12.365-12.501
	C31.545,37.5,37.082,43.096,37.082,50.001z"/>
<path id="path2810"  d="M86.541,50.001
	c0,6.903-5.536,12.5-12.364,12.5c-6.827,0-12.364-5.597-12.364-12.5c0-6.905,5.537-12.501,12.364-12.501
	C81.004,37.5,86.541,43.096,86.541,50.001z"/>
</svg>
