<svg xmlns="http://www.w3.org/2000/svg" xmlns:xlink="http://www.w3.org/1999/xlink" version="1.1" id="Layer_1" x="0px" y="0px" width="100px" height="100px" viewBox="0 0 100 100" style="enable-background:new 0 0 100 100;" xml:space="preserve">
<polygon style="fill:#010101;" points="70.581,79.419 91.162,100 100,91.162 79.419,70.581 87.5,62.5 62.5,62.5 62.5,87.5 "/>
<polygon style="fill:#010101;" points="0,91.162 8.838,100 29.419,79.419 37.5,87.5 37.5,62.5 12.5,62.5 20.581,70.581 "/>
<polygon style="fill:#010101;" points="20.459,29.285 12.5,37.5 37.378,37.365 37.5,12.5 29.297,20.447 8.838,0 0,8.838 "/>
<polygon style="fill:#010101;" points="87.598,37.5 79.492,29.389 100,8.868 91.138,0 70.617,20.52 62.5,12.408 62.5,37.5 "/>
</svg>