<svg xmlns="http://www.w3.org/2000/svg" xmlns:xlink="http://www.w3.org/1999/xlink" version="1.1" id="Layer_1" x="0px" y="0px" width="100px" height="100px" viewBox="0 0 100 100" style="enable-background:new 0 0 100 100;" xml:space="preserve">
<polygon style="fill:#010101;" points="76.831,85.669 91.162,100 100,91.162 85.669,76.831 100,62.5 62.5,62.5 62.5,100 "/>
<polygon style="fill:#010101;" points="0,91.162 8.838,100 23.169,85.669 37.5,100 37.5,62.5 0,62.5 14.331,76.831 "/>
<polygon style="fill:#010101;" points="0,37.5 37.5,37.5 37.5,0 23.169,14.331 8.984,0.134 0.146,8.973 14.331,23.169 "/>
<polygon style="fill:#010101;" points="62.5,37.5 100,37.5 85.669,23.169 99.878,8.973 91.04,0.134 76.831,14.331 62.5,0 "/>
</svg>