<svg xmlns="http://www.w3.org/2000/svg" xmlns:xlink="http://www.w3.org/1999/xlink" version="1.1" id="Layer_1" x="0px" y="0px" width="100px" height="100px" viewBox="0 0 100 100" style="enable-background:new 0 0 100 100;" xml:space="preserve">
<polygon style="fill:#010101;" points="85.669,76.831 71.338,62.5 62.5,71.338 76.831,85.669 62.5,100 100,100 100,62.5 "/>
<polygon style="fill:#010101;" points="37.5,71.338 28.662,62.5 14.331,76.831 0,62.5 0,100 37.5,100 23.169,85.669 "/>
<polygon style="fill:#010101;" points="37.5,0 0,0 0,37.5 14.331,23.169 28.527,37.354 37.365,28.516 23.169,14.331 "/>
<polygon style="fill:#010101;" points="100,0 62.5,0 76.831,14.331 62.635,28.516 71.473,37.354 85.669,23.169 100,37.5 "/>
</svg>