<svg xmlns="http://www.w3.org/2000/svg" xmlns:xlink="http://www.w3.org/1999/xlink" version="1.1" id="Layer_1" x="0px" y="0px" width="100px" height="87.5px" viewBox="0 0 100 87.5" style="enable-background:new 0 0 100 87.5;" xml:space="preserve">
<path style="fill:#010101;" d="M93.75,50H87.5V37.5C87.5,16.797,70.703,0,50,0S12.5,16.797,12.5,37.5V50H6.25  C2.795,50,0,52.795,0,56.25v25c0,3.455,2.795,6.25,6.25,6.25H25V50V37.5c0-13.794,11.206-25,25-25s25,11.206,25,25V50v37.5h18.75  c3.455,0,6.25-2.795,6.25-6.25v-25C100,52.795,97.205,50,93.75,50z"/>
</svg>