<svg xmlns="http://www.w3.org/2000/svg" xmlns:xlink="http://www.w3.org/1999/xlink" version="1.1" id="Layer_1" x="0px" y="0px" width="100px" height="87.5px" viewBox="0 0 100 87.5" style="enable-background:new 0 0 100 87.5;" xml:space="preserve">
<path style="fill:#010101;" d="M72.229,12.5c7.679,0,14.039,5.688,15.113,13.086l-37.33,42.871L12.658,25.586  C13.732,18.188,20.093,12.5,27.771,12.5c6.299,0,12.048,6.763,12.048,6.763L50,30.078l10.181-10.815  C60.181,19.263,65.93,12.5,72.229,12.5 M72.229,0C62.902,0,55.041,4.932,50,12.012C44.959,4.932,37.098,0,27.771,0  C12.451,0,0,12.476,0,27.783v2.295L50.024,87.5L100,30.078v-2.295C100,12.476,87.549,0,72.229,0L72.229,0z"/>
</svg>