<svg xmlns="http://www.w3.org/2000/svg" xmlns:xlink="http://www.w3.org/1999/xlink" version="1.1" id="Layer_1" x="0px" y="0px" width="100px" height="100px" viewBox="0 0 100 100" style="enable-background:new 0 0 100 100;" xml:space="preserve">
<g>
	<g>
		<path style="fill:#010101;" d="M68.75,0C51.489,0,37.5,13.989,37.5,31.25c0,1.953,0.232,3.833,0.574,5.676L0,75v25h37.5V87.5H50    V75h12.5V62.5l0.574-0.574c1.843,0.342,3.723,0.574,5.676,0.574C86.011,62.5,100,48.511,100,31.25S86.011,0,68.75,0z M68.774,37.5    c-3.454,0-6.25-2.795-6.25-6.25S65.32,25,68.774,25s6.25,2.795,6.25,6.25S72.229,37.5,68.774,37.5z"/>
	</g>
</g>
</svg>