<svg xmlns="http://www.w3.org/2000/svg" xmlns:xlink="http://www.w3.org/1999/xlink" version="1.1" id="Layer_1" x="0px" y="0px" width="100px" height="100px" viewBox="0 0 100 100" style="enable-background:new 0 0 100 100;" xml:space="preserve">
<path style="fill:#010101;" d="M68.75,12.5c10.34,0,18.75,8.41,18.75,18.75S79.09,50,68.75,50c-0.977,0-2.051-0.122-3.394-0.366  l-6.47-1.196l-4.65,4.65l-0.574,0.574L50,57.324V62.5H37.5V75H25v12.5H12.5v-7.324l34.412-34.412l4.65-4.65l-1.196-6.47  C50.116,33.301,50,32.227,50,31.25C50,20.91,58.41,12.5,68.75,12.5 M68.75,0C51.489,0,37.5,13.989,37.5,31.25  c0,1.953,0.232,3.833,0.574,5.676L0,75v25h37.5V87.5H50V75h12.5V62.5l0.574-0.574c1.843,0.342,3.723,0.574,5.676,0.574  C86.011,62.5,100,48.511,100,31.25S86.011,0,68.75,0L68.75,0z"/>
<path style="fill:#010101;" d="M75.024,31.25c0,3.455-2.796,6.25-6.25,6.25s-6.25-2.795-6.25-6.25S65.32,25,68.774,25  S75.024,27.795,75.024,31.25z"/>
</svg>