<?xml version="1.0" encoding="utf-8"?>
<!-- Generator: Adobe Illustrator 14.0.0, SVG Export Plug-In . SVG Version: 6.00 Build 43363)  -->
<!DOCTYPE svg PUBLIC "-//W3C//DTD SVG 1.0//EN" "http://www.w3.org/TR/2001/REC-SVG-20010904/DTD/svg10.dtd">
<svg version="1.0" id="Layer_1" xmlns="http://www.w3.org/2000/svg" xmlns:xlink="http://www.w3.org/1999/xlink" x="0px" y="0px"
	 width="100px" height="89.284px" viewBox="0 0 100 89.284" enable-background="new 0 0 100 89.284" xml:space="preserve">
<polygon fill-rule="evenodd" clip-rule="evenodd" points="49.995,0 0,15.756 0,22.892 49.995,7.14 100,22.892 100,15.756 "/>
<path fill-rule="evenodd" clip-rule="evenodd" d="M96.607,71.538c-0.815,0.251-1.87,0.202-3.253-0.096
	c-1.404-0.324-2.684-1.829-5.016-1.746c-2.391,0.084-5.768,2.249-9.029,2.249C76.001,71.873,72.287,69.6,68.91,69.6
	c-3.362,0.023-6.421,2.379-9.647,2.452c-3.287,0.011-6.562-2.2-9.778-2.249c-3.262-0.082-6.353,1.964-9.401,1.937
	c-3.001-0.058-5.664-2.236-8.643-2.14c-3.059,0.121-6.411,2.512-9.401,2.656c-3.014,0.047-5.745-2.225-8.407-2.25
	c-2.684-0.047-5.696,1.663-7.509,2.046c-1.81,0.347-2.956,0.382-3.385,0.109v6.337c0.429,0.273,1.575,0.237,3.385-0.108
	c1.813-0.383,4.825-2.093,7.509-2.045c2.663,0.023,5.394,2.296,8.407,2.249c2.99-0.12,6.342-2.573,9.401-2.654
	c2.979-0.12,5.642,2.104,8.643,2.15c3.048,0.024,6.139-2.007,9.401-1.948c3.217,0.047,6.491,2.26,9.778,2.248
	c3.227-0.072,6.285-2.429,9.647-2.45c3.377-0.013,7.091,2.295,10.399,2.354c3.262,0,6.639-2.164,9.029-2.249
	c2.332-0.105,3.611,1.424,5.016,1.734c1.383,0.3,2.438,0.348,3.253,0.097V71.538z"/>
<path fill-rule="evenodd" clip-rule="evenodd" d="M42.925,68.167l25.916-13.979l0,0c-2.035-4.521-3.477-7.93-4.313-10.356
	c-0.861-2.416-1.224-2.953-0.736-4.103c0.499-1.183-0.19-1.361,3.602-2.93c3.796-1.626,15.145-6.291,18.849-6.517
	c3.627-0.19,3.478,3.852,2.878,5.214c-0.658,1.326-4.032,1.662-6.592,2.715c-2.597,1.003-5.449,2.127-8.745,3.371l0,0L85.64,67.962
	l0,0c-1.529,1.327-3.556,1.841-6.296,1.638c-2.787-0.274-6.501-2.952-9.969-2.966c-3.455,0.014-7.397,3.002-10.556,3.062
	c-3.172-0.011-5.688-2.596-8.336-2.857C47.821,66.575,45.316,67.016,42.925,68.167L42.925,68.167z"/>
<path fill-rule="evenodd" clip-rule="evenodd" d="M89.487,45.339c3.999,0,7.238,3.421,7.238,7.641c0,4.219-3.239,7.641-7.238,7.641
	c-3.991,0-7.237-3.422-7.237-7.641C82.25,48.76,85.496,45.339,89.487,45.339"/>
<path fill-rule="evenodd" clip-rule="evenodd" d="M25.439,68.68c-3.071-0.574-6.197-1.46-9.596-2.656
	c-3.421-1.266-9.254-2.966-10.635-4.626c-1.383-1.71-0.373-5.13,2.411-5.285c2.799-0.156,8.349,2.354,14.114,4.435
	c5.733,2.057,12.291,4.629,20.029,7.846l0,0c-0.952,0.525-2.21,0.692-3.817,0.454c-1.634-0.276-3.695-1.794-5.79-1.84
	C30.047,66.971,27.839,67.543,25.439,68.68L25.439,68.68z"/>
<path fill-rule="evenodd" clip-rule="evenodd" d="M96.607,82.145c-0.815,0.228-1.87,0.191-3.253-0.106
	c-1.404-0.312-2.684-1.843-5.016-1.735c-2.391,0.084-5.768,2.247-9.029,2.247c-3.309-0.068-7.022-2.343-10.399-2.343
	c-3.362,0.023-6.421,2.379-9.647,2.45c-3.287,0.015-6.562-2.198-9.778-2.245c-3.262-0.086-6.353,1.96-9.401,1.937
	c-3.001-0.061-5.664-2.236-8.643-2.142c-3.059,0.119-6.411,2.512-9.401,2.655c-3.014,0.047-5.745-2.226-8.407-2.249
	c-2.684-0.045-5.696,1.663-7.509,2.044c-1.81,0.372-2.956,0.36-3.385,0.097v6.338c0.429,0.264,1.575,0.276,3.385-0.096
	c1.813-0.382,4.825-2.091,7.509-2.044c2.663,0.023,5.394,2.294,8.407,2.249c2.99-0.146,6.342-2.538,9.401-2.656
	c2.979-0.096,5.642,2.082,8.643,2.141c3.048,0.023,6.139-2.022,9.401-1.938c3.217,0.048,6.491,2.261,9.778,2.248
	c3.227-0.071,6.285-2.428,9.647-2.451c3.377,0,7.091,2.272,10.399,2.344c3.262,0,6.639-2.164,9.029-2.249
	c2.332-0.082,3.611,1.424,5.016,1.747c1.383,0.299,2.438,0.346,3.253,0.097V82.145z"/>
</svg>
