<svg xmlns="http://www.w3.org/2000/svg" xmlns:xlink="http://www.w3.org/1999/xlink" version="1.1" id="Layer_1" x="0px" y="0px" width="75px" height="100px" viewBox="0 0 75 100" style="enable-background:new 0 0 75 100;" xml:space="preserve">
<path style="fill:#010101;" d="M43.75,0C26.538,0,12.512,14.014,12.512,31.25v6.25H0v43.75C0,91.59,8.41,100,18.75,100h37.5  C66.59,100,75,91.59,75,81.25v-50C75,14.014,60.975,0,43.75,0z M37.488,75c-3.443,0-6.238-2.795-6.238-6.25s2.795-6.25,6.238-6.25  c3.454,0,6.25,2.795,6.25,6.25S40.942,75,37.488,75z M62.5,37.5H25.012v-6.25c0-10.34,8.411-18.75,18.738-18.75  c10.34,0,18.75,8.41,18.75,18.75V37.5z"/>
</svg>