<svg xmlns="http://www.w3.org/2000/svg" xmlns:xlink="http://www.w3.org/1999/xlink" version="1.1" id="Layer_1" x="0px" y="0px" width="75px" height="100px" viewBox="0 0 75 100" style="enable-background:new 0 0 75 100;" xml:space="preserve">
<path style="fill:#010101;" d="M43.762,0C26.544,0,12.519,14.014,12.519,31.25v6.25H0v43.75C0,91.577,8.423,100,18.744,100H56.25  C66.602,100,75,91.577,75,81.25v-50C75,14.014,60.986,0,43.762,0z M25.019,31.25c0-10.352,8.417-18.75,18.743-18.75  c10.34,0,18.738,8.398,18.738,18.75v6.25H25.019V31.25z M56.25,87.5H18.744c-3.442,0-6.25-2.808-6.25-6.25V50H62.5v31.25  C62.5,84.692,59.717,87.5,56.25,87.5z"/>
<path style="fill:#010101;" d="M43.762,68.75c0,3.442-2.807,6.25-6.25,6.25c-3.467,0-6.25-2.808-6.25-6.25  c0-3.467,2.783-6.25,6.25-6.25C40.955,62.5,43.762,65.283,43.762,68.75z"/>
</svg>