<svg xmlns="http://www.w3.org/2000/svg" xmlns:xlink="http://www.w3.org/1999/xlink" version="1.1" id="Layer_1" x="0px" y="0px" width="100px" height="75px" viewBox="0 0 100 75" style="enable-background:new 0 0 100 75;" xml:space="preserve">
<path style="fill:#010101;" d="M81.25,37.5L62.5,56.25H75c0,3.442-2.808,6.25-6.25,6.25h-37.5c-3.442,0-6.25-2.808-6.25-6.25V50  H12.5v6.25C12.5,66.59,20.91,75,31.25,75h37.5c10.34,0,18.75-8.41,18.75-18.75H100L81.25,37.5z"/>
<path style="fill:#010101;" d="M68.75,0h-37.5C20.91,0,12.5,8.41,12.5,18.75v0.195H0L18.75,37.5L37.5,18.945H25V18.75  c0-3.442,2.808-6.25,6.25-6.25h37.5c3.442,0,6.25,2.808,6.25,6.25V25h12.5v-6.25C87.5,8.41,79.09,0,68.75,0z"/>
</svg>