<svg xmlns="http://www.w3.org/2000/svg" xmlns:xlink="http://www.w3.org/1999/xlink" version="1.1" id="Layer_1" x="0px" y="0px" width="100px" height="100.004px" viewBox="0 0 100 100.004" style="enable-background:new 0 0 100 100.004;" xml:space="preserve">
<path style="fill:#010101;" d="M30.64,11.49L12.5,29.619V12.004H0V49.5h37.5V36.998H22.809l16.669-16.67  c10.59-10.596,29.089-10.596,39.697,0l8.838-8.838C72.693-3.842,45.959-3.818,30.64,11.49z"/>
<path style="fill:#010101;" d="M62.5,50.111v12.5h14.697L60.522,79.301c-10.59,10.596-29.089,10.596-39.691,0l-8.844,8.812  c7.66,7.668,17.858,11.891,28.698,11.891c10.847,0,21.021-4.223,28.675-11.891L87.5,69.986v17.615H100v-37.49H62.5z"/>
</svg>