<svg xmlns="http://www.w3.org/2000/svg" xmlns:xlink="http://www.w3.org/1999/xlink" version="1.1" id="Layer_1" x="0px" y="0px" width="100px" height="100px" viewBox="0 0 100 100" style="enable-background:new 0 0 100 100;" xml:space="preserve">
<path style="fill:#010101;" d="M35.425,61.682c-5.798,5.787-13.794,13.807-17.773,17.773c1.343,1.344,1.526,1.514,2.881,2.881  C24.5,78.357,32.508,70.35,38.293,64.562C37.293,63.66,36.34,62.707,35.425,61.682z"/>
<path style="fill:#010101;" d="M62.915,0C42.48,0,25.854,16.626,25.854,37.072c0,4.896,1.001,9.534,2.722,13.807L0,79.455  L20.532,100l28.589-28.602c4.272,1.734,8.911,2.734,13.794,2.734C83.361,74.133,100,57.508,100,37.072C100,16.626,83.361,0,62.915,0  z M62.915,61.646c-13.538,0-24.573-11.035-24.573-24.573c0-13.549,11.035-24.584,24.573-24.584  c13.562,0,24.597,11.035,24.597,24.584C87.512,50.61,76.477,61.646,62.915,61.646z"/>
</svg>