<svg xmlns="http://www.w3.org/2000/svg" xmlns:xlink="http://www.w3.org/1999/xlink" version="1.1" id="Layer_1" x="0px" y="0px" width="100px" height="100px" viewBox="0 0 100 100" style="enable-background:new 0 0 100 100;" xml:space="preserve">
<polygon style="fill:#010101;" points="50,68.75 56.25,62.5 56.25,81.25 68.75,81.25 50,100 31.25,81.25 43.75,81.25 43.75,62.5 "/>
<polygon style="fill:#010101;" points="31.25,50 37.5,56.25 18.75,56.25 18.75,68.75 0,50 18.75,31.25 18.75,43.75 37.5,43.75 "/>
<polygon style="fill:#010101;" points="50,31.445 43.75,37.5 43.75,18.75 31.25,18.75 50,0 68.75,18.75 56.25,18.75 56.25,37.5 "/>
<polygon style="fill:#010101;" points="68.555,50 62.5,43.75 81.25,43.75 81.25,31.25 100,50 81.25,68.75 81.25,56.25 62.5,56.25   "/>
</svg>