<?xml version="1.0" encoding="utf-8"?>
<!-- Generator: Adobe Illustrator 15.1.0, SVG Export Plug-In . SVG Version: 6.00 Build 0)  -->
<!DOCTYPE svg PUBLIC "-//W3C//DTD SVG 1.1//EN" "http://www.w3.org/Graphics/SVG/1.1/DTD/svg11.dtd">
<svg version="1.1" id="Layer_1" xmlns="http://www.w3.org/2000/svg" xmlns:xlink="http://www.w3.org/1999/xlink" x="0px" y="0px"
	 width="40px" height="100px" viewBox="0 0 40 100" enable-background="new 0 0 40 100" xml:space="preserve">
<path fill="#202020" d="M34,41.372V79c0,0.613-0.158,15-14,15C6.488,94,6.01,80.528,6,78.991V17.012
	c0.008-1.127,0.328-11.011,9-11.011s8.992,9.884,9,11.011V73c0,0.939-0.281,4.005-3.89,4.005c-3.631,0-4.086-2.82-4.111-4.033v-31.6
	h-6V73c0,4.021,2.693,10.004,10.111,10.004C27.367,83.004,30,77.022,30,73V17c0-5.88-3.136-17-15-17C3.135,0,0,11.12,0,17v62
	c0,7.264,4.18,21,20,21c15.82,0,20-13.736,20-21V41.372H34z"/>
</svg>
