<svg xmlns="http://www.w3.org/2000/svg" xmlns:xlink="http://www.w3.org/1999/xlink" version="1.1" id="Layer_1" x="0px" y="0px" width="87.702px" height="100px" viewBox="0 0 87.702 100" style="enable-background:new 0 0 87.702 100;" xml:space="preserve">
<path style="fill:#010101;" d="M34.462,100c-9.209,0-17.861-3.598-24.366-10.107C3.586,83.383,0,74.742,0,65.529  c0.006-9.203,3.586-17.855,10.096-24.359L44.986,7.043c9.374-9.38,25.932-9.417,35.392,0.049c9.766,9.777,9.766,25.674,0,35.438  l-31.39,30.623c-6.046,6.045-15.982,6.057-22.09-0.049c-6.106-6.119-6.106-16.049,0-22.156l12.152-12.15l8.86,8.859l-12.152,12.15  c-0.802,0.803-0.918,1.732-0.918,2.217c0,0.482,0.116,1.412,0.918,2.221c1.604,1.59,2.827,1.59,4.431,0l31.377-30.629  C76.4,28.787,76.4,20.84,71.518,15.951c-4.735-4.736-12.984-4.736-17.72,0L18.907,50.078c-4.093,4.094-6.376,9.596-6.376,15.451  c0,5.861,2.283,11.367,6.425,15.504c8.285,8.297,22.726,8.297,31.011,0l15.665-15.664l8.86,8.859L58.827,89.893  C52.316,96.402,43.664,100,34.462,100z"/>
</svg>