<svg xmlns="http://www.w3.org/2000/svg" xmlns:xlink="http://www.w3.org/1999/xlink" version="1.1" id="Layer_1" x="0px" y="0px" width="100px" height="100px" viewBox="0 0 100 100" style="enable-background:new 0 0 100 100;" xml:space="preserve">
<path style="fill:#010101;" d="M100,25c0-13.8-11.206-25-25-25c-9.326,0-17.383,5.182-21.68,12.769c0-0.006,0.012-0.013,0.012-0.019  c-1.146-0.109-2.258-0.348-3.43-0.348c-20.715,0-37.5,16.785-37.5,37.5c0,7.898,2.466,15.21,6.629,21.24L0,100l29.028-18.945  c5.97,4.004,13.147,6.348,20.874,6.348c20.715,0,37.5-16.785,37.5-37.5c0-1.08-0.22-2.094-0.317-3.149  C94.751,42.48,100,34.394,100,25z M49.902,74.902c-13.794,0-25-11.206-25-25c0-13.788,11.206-25,25-25  c0.037,0,0.073,0.012,0.098,0.012c0-0.023,0.012-0.042,0.012-0.061C50.012,24.902,50,24.951,50,25c0,2.173,0.366,4.236,0.879,6.244  l-9.912,9.918c-4.883,4.883-4.883,12.793,0,17.676s12.793,4.883,17.676,0l9.814-9.814c2.062,0.562,4.199,0.952,6.434,0.965  C74.842,63.745,63.66,74.902,49.902,74.902z M75,37.5c-6.885,0-12.5-5.609-12.5-12.5S68.115,12.5,75,12.5S87.5,18.109,87.5,25  S81.885,37.5,75,37.5z"/>
</svg>