<svg xmlns="http://www.w3.org/2000/svg" xmlns:xlink="http://www.w3.org/1999/xlink" version="1.1" id="Layer_1" x="0px" y="0px" width="50.002px" height="100px" viewBox="0 0 50.002 100" style="enable-background:new 0 0 50.002 100;" xml:space="preserve">
<path style="fill:#010101;" d="M30,93.75c0,3.443-2.795,6.25-6.25,6.25s-6.25-2.807-6.25-6.25c0-3.467,2.795-6.25,6.25-6.25  S30,90.283,30,93.75z"/>
<path style="fill:#010101;" d="M23.988,81.178c-4.176,0-8.094-1.637-11.048-4.59c-2.954-3.139-4.578-7.057-4.578-11.23  c0-4.176,1.624-8.094,4.578-10.852L33.84,33.607c2.361-2.369,3.662-5.508,3.662-8.84c0-3.344-1.301-6.482-3.662-8.838  c-4.871-4.871-12.8-4.883-17.671,0c-2.368,2.355-3.668,5.494-3.668,8.838H0C0,18.09,2.606,11.805,7.337,7.08  c9.437-9.448,25.893-9.436,35.341,0.012c4.725,4.713,7.324,10.986,7.324,17.676c0,6.678-2.6,12.953-7.324,17.678L21.778,63.146  c-1.215,1.221-1.215,3.199,0,4.42c1.221,1.221,3.198,1.221,4.419,0c0.794-0.807,0.916-1.734,0.916-2.223h12.5  c0,4.176-1.623,8.105-4.577,11.244C32.082,79.541,28.163,81.178,23.988,81.178L23.988,81.178z"/>
</svg>