<svg xmlns="http://www.w3.org/2000/svg" xmlns:xlink="http://www.w3.org/1999/xlink" version="1.1" id="Layer_1" x="0px" y="0px" width="100px" height="87.5px" viewBox="0 0 100 87.5" style="enable-background:new 0 0 100 87.5;" xml:space="preserve">
<path style="fill:#010101;" d="M75,12.5c-1.184,0-2.307,0.189-3.442,0.348C67.199,5.146,59.143,0,50,0  c-9.338,0-17.395,5.206-21.691,12.812C27.209,12.665,26.111,12.5,25,12.5c-13.781,0-25,11.212-25,25s11.219,25,25,25h50  c13.781,0,25-11.212,25-25S88.781,12.5,75,12.5z M75,50H25c-6.896,0-12.5-5.609-12.5-12.5c0-6.854,6.066-12.14,12.512-12.329  c0.025,2.948,0.537,5.841,1.562,8.575l11.707-4.382C37.756,27.979,37.5,26.508,37.5,25c0-6.891,5.604-12.5,12.5-12.5  c4.041,0,7.703,2.002,9.998,5.121C53.967,22.187,50,29.357,50,37.5h12.5C62.5,30.609,68.104,25,75,25s12.5,5.609,12.5,12.5  S81.896,50,75,50z"/>
<path style="fill:#010101;" d="M35.266,85.742c-2.344,2.344-6.14,2.344-8.496,0c-2.344-2.344-2.344-6.152,0-8.496  c2.356-2.344,16.992-8.496,16.992-8.496S37.622,83.398,35.266,85.742z"/>
<path style="fill:#010101;" d="M10.254,85.742c-2.344,2.344-6.152,2.344-8.496,0s-2.344-6.152,0-8.496S18.75,68.75,18.75,68.75  S12.598,83.398,10.254,85.742z"/>
<path style="fill:#010101;" d="M60.254,85.742c-2.344,2.344-6.152,2.344-8.496,0s-2.344-6.152,0-8.496S68.75,68.75,68.75,68.75  S62.598,83.398,60.254,85.742z"/>
</svg>