<svg xmlns="http://www.w3.org/2000/svg" xmlns:xlink="http://www.w3.org/1999/xlink" version="1.1" id="Layer_1" x="0px" y="0px" width="100px" height="100px" viewBox="0 0 100 100" style="enable-background:new 0 0 100 100;" xml:space="preserve">
<polygon style="fill:#010101;" points="100,62.769 0,62.769 0,50.269 100,50.269 100,62.769 "/>
<polygon style="fill:#010101;" points="100,12.5 0,12.5 0,0 100,0 100,12.5 "/>
<path style="fill:#010101;" d="M37.5,93.75c0,3.455-2.808,6.25-6.25,6.25c-3.467,0-6.262-2.795-6.262-6.25s2.795-6.25,6.262-6.25  C34.692,87.5,37.5,90.295,37.5,93.75z"/>
<polygon style="fill:#010101;" points="62.5,37.5 0,37.5 0,25 62.5,25 62.5,37.5 "/>
<path style="fill:#010101;" d="M12.5,93.75c0,3.455-2.795,6.25-6.25,6.25C2.795,100,0,97.205,0,93.75s2.795-6.25,6.25-6.25  C9.705,87.5,12.5,90.295,12.5,93.75z"/>
<path style="fill:#010101;" d="M62.5,93.75c0,3.455-2.795,6.25-6.25,6.25S50,97.205,50,93.75s2.795-6.25,6.25-6.25  S62.5,90.295,62.5,93.75z"/>
</svg>