<svg xmlns="http://www.w3.org/2000/svg" xmlns:xlink="http://www.w3.org/1999/xlink" version="1.1" id="Layer_1" x="0px" y="0px" width="100px" height="100px" viewBox="0 0 100 100" style="enable-background:new 0 0 100 100;" xml:space="preserve">
<path style="fill:#010101;" d="M18.823,62.512c10.339,0,18.75,8.411,18.75,18.763h12.506C50.079,64.038,36.054,50,18.823,50V62.512z  "/>
<path style="fill:#010101;" d="M25.006,87.5c0,6.909-5.597,12.5-12.506,12.5C5.597,100,0,94.409,0,87.5S5.597,75,12.5,75  C19.409,75,25.006,80.591,25.006,87.5z"/>
<path style="fill:#010101;" d="M18.738,37.5c24.121,0,43.756,19.641,43.756,43.774H75C75,50.244,49.762,25,18.738,25V37.5z"/>
<g>
	<path style="fill:#010101;" d="M18.738,12.5C56.652,12.5,87.5,43.348,87.5,81.274H100C100,36.45,63.55,0,18.738,0V12.5z"/>
</g>
</svg>