<svg xmlns="http://www.w3.org/2000/svg" xmlns:xlink="http://www.w3.org/1999/xlink" version="1.1" id="Layer_1" x="0px" y="0px" width="100px" height="100px" viewBox="0 0 100 100" style="enable-background:new 0 0 100 100;" xml:space="preserve">
<path style="fill:#010101;" d="M14.66,85.376C5.2,75.928,0,63.379,0,50C0,22.437,22.424,0,50,0l6.25,6.25L50,12.5  c-20.679,0-37.5,16.821-37.5,37.5c0,10.034,3.906,19.458,10.998,26.538l-7.678,1.001L14.66,85.376L14.66,85.376z"/>
<path style="fill:#010101;" d="M50,100l-6.25-6.226L50,87.5c20.679,0,37.5-16.821,37.5-37.5c0-10.01-3.906-19.434-11.011-26.525  l7.69-1.014l1.147-7.824C94.787,24.084,100,36.646,100,50C100,77.563,77.563,100,50,100L50,100z"/>
</svg>