<svg xmlns="http://www.w3.org/2000/svg" xmlns:xlink="http://www.w3.org/1999/xlink" version="1.1" id="Layer_1" x="0px" y="0px" width="99.988px" height="100px" viewBox="0 0 99.988 100" style="enable-background:new 0 0 99.988 100;" xml:space="preserve">
<path style="fill:#010101;" d="M56.25,6.25c0,3.455-2.808,6.25-6.25,6.25c-3.467,0-6.25-2.795-6.25-6.25C43.75,2.795,46.533,0,50,0  C53.442,0,56.25,2.795,56.25,6.25z"/>
<path style="fill:#010101;" d="M43.75,93.75c0-3.467,2.783-6.25,6.25-6.25s6.25,2.783,6.25,6.25c0,3.455-2.783,6.25-6.25,6.25  S43.75,97.205,43.75,93.75z"/>
<path style="fill:#010101;" d="M6.25,43.744c3.442,0,6.25,2.795,6.25,6.25c0,3.461-2.808,6.25-6.25,6.25  c-3.467,0-6.25-2.789-6.25-6.25C0,46.539,2.783,43.744,6.25,43.744z"/>
<path style="fill:#010101;" d="M93.738,56.244c-3.431,0-6.238-2.796-6.238-6.244c0-3.467,2.808-6.25,6.274-6.25  c3.431,0,6.25,2.789,6.214,6.244C100.024,53.455,97.205,56.25,93.738,56.244z"/>
<path style="fill:#010101;" d="M50,25c-13.818,0-25,11.193-25,25s11.182,25,25,25c13.794,0,25-11.193,25-25S63.794,25,50,25L50,25z"/>
<path style="fill:#010101;" d="M23.169,14.331c2.441,2.441,2.441,6.396,0,8.838c-2.441,2.447-6.396,2.441-8.838,0  s-2.441-6.391,0-8.838C16.772,11.89,20.728,11.89,23.169,14.331z"/>
<circle style="fill:#010101;" cx="18.75" cy="81.25" r="6.249"/>
<path style="fill:#010101;" d="M76.855,85.669c-2.441-2.441-2.441-6.396,0-8.838s6.396-2.441,8.838,0  c2.466,2.441,2.466,6.396,0,8.838C83.252,88.11,79.297,88.11,76.855,85.669z"/>
<path style="fill:#010101;" d="M85.693,23.175c-2.441,2.436-6.396,2.436-8.838,0c-2.441-2.453-2.441-6.396,0-8.844  c2.441-2.436,6.396-2.441,8.838,0.006C88.159,16.778,88.159,20.74,85.693,23.175z"/>
</svg>