<svg xmlns="http://www.w3.org/2000/svg" xmlns:xlink="http://www.w3.org/1999/xlink" version="1.1" id="Layer_1" x="0px" y="0px" width="100px" height="100px" viewBox="0 0 100 100" style="enable-background:new 0 0 100 100;" xml:space="preserve">
<path style="fill:#010101;" d="M56.25,6.25c0,3.455-2.795,6.25-6.25,6.25s-6.25-2.795-6.25-6.25C43.75,2.795,46.545,0,50,0  S56.25,2.795,56.25,6.25z"/>
<path style="fill:#010101;" d="M43.75,93.75c0-3.467,2.795-6.25,6.25-6.25c3.467,0,6.25,2.783,6.25,6.25  c0,3.442-2.783,6.25-6.25,6.25C46.545,100,43.75,97.192,43.75,93.75z"/>
<path style="fill:#010101;" d="M6.25,43.744c3.455,0,6.25,2.795,6.25,6.25c0,3.461-2.795,6.25-6.25,6.25  c-3.455,0-6.25-2.789-6.25-6.25C0,46.539,2.795,43.744,6.25,43.744z"/>
<path style="fill:#010101;" d="M93.738,56.244c-3.443,0-6.238-2.796-6.238-6.244c0-3.467,2.783-6.25,6.25-6.25  c3.442,0,6.25,2.789,6.25,6.244C100,53.455,97.192,56.25,93.738,56.244z"/>
<path style="fill:#010101;" d="M50,37.5c6.885,0,12.5,5.609,12.5,12.5S56.885,62.5,50,62.5S37.5,56.891,37.5,50S43.115,37.5,50,37.5   M50,25c-13.807,0-25,11.193-25,25s11.193,25,25,25s25-11.193,25-25S63.807,25,50,25L50,25z"/>
<path style="fill:#010101;" d="M23.169,14.331c2.441,2.441,2.441,6.396,0,8.838c-2.441,2.447-6.396,2.441-8.838,0  s-2.441-6.391,0-8.838C16.772,11.89,20.728,11.89,23.169,14.331z"/>
<circle style="fill:#010101;" cx="18.75" cy="81.25" r="6.249"/>
<path style="fill:#010101;" d="M76.855,85.669c-2.441-2.441-2.441-6.396,0-8.838c2.453-2.441,6.396-2.441,8.838,0  s2.453,6.396,0,8.838C83.252,88.11,79.297,88.11,76.855,85.669z"/>
<path style="fill:#010101;" d="M85.693,23.175c-2.441,2.436-6.396,2.436-8.838,0c-2.441-2.453-2.441-6.396,0-8.844  c2.441-2.436,6.396-2.441,8.838,0.006C88.135,16.778,88.135,20.74,85.693,23.175z"/>
</svg>