<svg xmlns="http://www.w3.org/2000/svg" xmlns:xlink="http://www.w3.org/1999/xlink" version="1.1" id="Layer_1" x="0px" y="0px" width="100px" height="100px" viewBox="0 0 100 100" style="enable-background:new 0 0 100 100;" xml:space="preserve">
<path style="fill:#010101;" d="M36.561,26.916c0,5.322-4.322,9.645-9.632,9.645c-5.322,0-9.644-4.322-9.644-9.645  c0-5.31,4.321-9.619,9.644-9.619C32.238,17.297,36.561,21.606,36.561,26.916z"/>
<g>
	<path style="fill:#010101;" d="M0,0v41.479L58.521,100c0,0,0-33.729,0-41.467c7.739,0,41.479,0,41.479,0L41.479,0H0z    M36.865,11.133C39.282,13.537,61.486,35.767,73.12,47.4c-9.692,0-25.732,0-25.732,0s0,16.039,0,25.707   C35.754,61.486,13.55,39.27,11.133,36.877c0-3.295,0-18.627,0-25.744C18.25,11.133,33.569,11.133,36.865,11.133z"/>
</g>
</svg>