<svg xmlns="http://www.w3.org/2000/svg" xmlns:xlink="http://www.w3.org/1999/xlink" version="1.1" id="Layer_1" x="0px" y="0px" width="100px" height="100px" viewBox="0 0 100 100" style="enable-background:new 0 0 100 100;" xml:space="preserve">
<path style="fill:#010101;" d="M50,0C22.437,0,0,22.431,0,50h12.5c0-2.582,2.111-4.688,4.688-4.688c2.588,0,4.688,2.105,4.688,4.688  h12.5c0-2.582,2.111-4.688,4.688-4.688c2.588,0,4.688,2.105,4.688,4.688v31.25c0,3.442-2.795,6.25-6.25,6.25  c-3.442,0-6.25-2.808-6.25-6.25h-12.5c0,10.34,8.423,18.75,18.75,18.75c10.352,0,18.75-8.41,18.75-18.75V50  c0-2.582,2.111-4.688,4.688-4.688c2.588,0,4.688,2.105,4.688,4.688h12.5c0-2.582,2.111-4.688,4.688-4.688  c2.588,0,4.688,2.105,4.688,4.688H100C100,22.431,77.576,0,50,0z"/>
</svg>