<svg xmlns="http://www.w3.org/2000/svg" xmlns:xlink="http://www.w3.org/1999/xlink" version="1.1" id="Layer_1" x="0px" y="0px" width="99.997px" height="100px" viewBox="0 0 99.997 100" style="enable-background:new 0 0 99.997 100;" xml:space="preserve">
<path style="fill:#010101;" d="M87.985,11.622c-15.49-15.49-42.516-15.502-57.993,0L12.5,29.128V12.501H0v37.523h37.499V37.617  H21.801l17.041-17.146c10.766-10.778,29.54-10.778,40.307,0.013c5.383,5.383,8.349,12.536,8.349,20.257  c0,7.525-2.966,14.68-8.349,20.074l-9.424,9.412l8.838,8.839l9.423-9.401c7.739-7.763,12.012-18.065,12.012-28.924  C99.997,29.677,95.725,19.373,87.985,11.622z"/>
<polygon style="fill:#010101;" points="57.652,100 48.814,91.139 57.652,82.301 66.49,91.139 "/>
</svg>