<svg xmlns="http://www.w3.org/2000/svg" xmlns:xlink="http://www.w3.org/1999/xlink" version="1.1" id="Layer_1" x="0px" y="0px" width="75px" height="100px" viewBox="0 0 75 100" style="enable-background:new 0 0 75 100;" xml:space="preserve">
<path style="fill:#010101;" d="M43.762,0C26.525,0,12.524,14.014,12.524,31.25h12.487c0-10.34,8.398-18.75,18.75-18.75  C54.09,12.5,62.5,20.91,62.5,31.25v6.25H0v43.75C0,91.59,8.423,100,18.75,100h37.5C66.577,100,75,91.59,75,81.25v-50  C75,14.014,60.975,0,43.762,0z M37.488,75c-3.443,0-6.25-2.795-6.25-6.25s2.807-6.25,6.25-6.25c3.467,0,6.25,2.795,6.25,6.25  S40.955,75,37.488,75z"/>
</svg>