<svg xmlns="http://www.w3.org/2000/svg" xmlns:xlink="http://www.w3.org/1999/xlink" version="1.1" id="Layer_1" x="0px" y="0px" width="75px" height="100px" viewBox="0 0 75 100" style="enable-background:new 0 0 75 100;" xml:space="preserve">
<path style="fill:#010101;" d="M43.762,0C26.532,0,12.519,14.025,12.519,31.25h12.5c0-10.327,8.404-18.75,18.743-18.75  c10.34,0,18.738,8.423,18.738,18.75v6.25H0v43.75C0,91.602,8.41,100,18.744,100H56.25C66.59,100,75,91.602,75,81.25v-50  C75,14.025,60.986,0,43.762,0z M56.25,87.5H18.744c-3.442,0-6.25-2.795-6.25-6.25V50H62.5v31.25C62.5,84.705,59.692,87.5,56.25,87.5  z"/>
<path style="fill:#010101;" d="M43.75,68.75c0,3.467-2.795,6.25-6.25,6.25s-6.25-2.783-6.25-6.25c0-3.442,2.795-6.25,6.25-6.25  S43.75,65.308,43.75,68.75z"/>
</svg>