<svg xmlns="http://www.w3.org/2000/svg" xmlns:xlink="http://www.w3.org/1999/xlink" version="1.1" id="Layer_1" x="0px" y="0px" width="100px" height="75px" viewBox="0 0 100 75" style="enable-background:new 0 0 100 75;" xml:space="preserve">
<g>
	<polygon style="fill:#010101;" points="37.5,12.5 62.5,0 62.5,75 37.5,62.5  "/>
</g>
<g>
	<path style="fill:#010101;" d="M25,62.5c-13.807,0-25-11.193-25-25s11.193-25,25-25V62.5z"/>
</g>
<path style="fill:#010101;" d="M75.012,62.488v-12.5c1.038,0,2.088-0.135,3.138-0.391C83.631,48.205,87.5,43.225,87.5,37.5  s-3.869-10.693-9.412-12.098c-0.988-0.244-2.038-0.378-3.076-0.378v-12.5c2.051,0,4.102,0.257,6.116,0.745  C92.248,16.102,100,26.05,100,37.5c0,11.463-7.752,21.424-18.836,24.23C79.09,62.231,77.039,62.488,75.012,62.488L75.012,62.488z"/>
</svg>