<svg xmlns="http://www.w3.org/2000/svg" xmlns:xlink="http://www.w3.org/1999/xlink" version="1.1" id="Layer_1" x="0px" y="0px" width="100px" height="100px" viewBox="0 0 100 100" style="enable-background:new 0 0 100 100;" xml:space="preserve">
<path style="fill:#010101;" d="M98.768,17.633L83.068,33.331H66.662V16.669L82.166,1.172C79.883,0.482,77.502,0,75,0  C61.193,0,50,11.2,50,25c0,3.852,0.939,7.452,2.502,10.718L2.441,85.767C0.94,87.28,0,89.355,0,91.675C0,96.265,3.723,100,8.338,100  c2.307,0,4.395-0.928,5.883-2.441l50.074-50.055C67.541,49.054,71.154,50,75,50c13.807,0,25-11.2,25-25  C100,22.418,99.5,19.977,98.768,17.633z"/>
</svg>