<svg xmlns="http://www.w3.org/2000/svg" xmlns:xlink="http://www.w3.org/1999/xlink" version="1.1" id="Layer_1" x="0px" y="0px" width="100px" height="100px" viewBox="0 0 100 100" enable-background="new 0 0 100 100" xml:space="preserve">
<path d="M91.736,13.22l-6.188-6.664c-0.675-0.726-1.811-0.767-2.536-0.093c-0.497,0.461-0.665,1.138-0.511,1.754L25.09,61.531  c-5.38-2.691-12.085-1.95-16.755,2.387C2.324,69.5,1.977,78.9,7.557,84.909c5.584,6.014,14.984,6.361,20.995,0.778  c4.558-4.233,5.853-10.656,3.783-16.137l57.521-53.416c0.602,0.198,1.289,0.082,1.786-0.38C92.368,15.081,92.41,13.945,91.736,13.22  z M16.879,66.65l2.084-1.552c1.05-0.781,2.534-0.563,3.314,0.488l1.55,2.084c0.782,1.051,0.564,2.534-0.488,3.312l-2.083,1.553  c-1.051,0.78-2.531,0.562-3.313-0.489l-1.552-2.084C15.61,68.913,15.828,67.432,16.879,66.65z M22.666,74.086l1.106,1.475  c0.554,0.741,0.403,1.794-0.338,2.349l-1.475,1.104c-0.745,0.557-1.796,0.405-2.35-0.337l-1.106-1.476  c-0.554-0.743-0.404-1.794,0.339-2.35l1.475-1.106C21.058,73.192,22.112,73.342,22.666,74.086z M7.451,66.985  c-0.27-0.292,0.411-1.36,1.517-2.387c1.108-1.028,2.223-1.629,2.493-1.339c0.27,0.291-0.41,1.36-1.517,2.389  C8.836,66.676,7.72,67.274,7.451,66.985z M12.778,79.989l-1.848-1.309c-0.928-0.659-1.148-1.947-0.491-2.876l1.311-1.848  c0.659-0.929,1.945-1.146,2.873-0.487l1.848,1.308c0.929,0.659,1.149,1.946,0.488,2.872l-1.306,1.849  C14.992,80.426,13.705,80.645,12.778,79.989z M22.907,85.573l-1.826,1.847c-0.919,0.931-2.419,0.94-3.351,0.021l-1.849-1.825  c-0.931-0.918-0.939-2.419-0.021-3.349l1.824-1.851c0.92-0.931,2.421-0.938,3.35-0.021l1.85,1.826  C23.814,83.142,23.826,84.64,22.907,85.573z M28.064,80.835l-1.208,0.904c-0.609,0.455-1.47,0.333-1.926-0.276l-0.907-1.209  c-0.455-0.608-0.332-1.472,0.279-1.926l1.209-0.904c0.608-0.456,1.469-0.332,1.924,0.277l0.907,1.209  C28.796,79.517,28.672,80.379,28.064,80.835z M29.784,73.795l-1.309,1.846c-0.657,0.931-1.944,1.148-2.874,0.49l-1.847-1.307  c-0.929-0.659-1.148-1.947-0.491-2.876l1.311-1.846c0.658-0.93,1.944-1.147,2.874-0.491l1.848,1.31  C30.224,71.581,30.442,72.866,29.784,73.795z"/>
</svg>