<svg xmlns="http://www.w3.org/2000/svg" xmlns:xlink="http://www.w3.org/1999/xlink" version="1.1" id="Layer_1" x="0px" y="0px" width="66.667px" height="100px" viewBox="0 0 66.667 100" style="enable-background:new 0 0 66.667 100;" xml:space="preserve">
<polygon style="fill:#231F20;" points="44.443,91.111 44.443,85.419 35.555,92.535 35.555,77.777 31.112,77.777 31.112,92.533   22.223,85.419 22.223,91.111 33.335,100 "/>
<g>
	<path style="fill:#231F20;" d="M51.326,55.896c-0.384-26.646-4.699-38.119-17.993-38.119c-13.293,0-17.608,11.473-17.993,38.119   C8.71,50.601,4.445,42.462,4.445,33.333c0-15.93,12.958-28.888,28.888-28.888c15.931,0,28.889,12.958,28.889,28.888   C62.222,42.462,57.957,50.601,51.326,55.896 M33.293,44.421c-13.373,0-11.396-16.244-11.396-16.244s2.283-5.147,11.396-5.147   c9.112,0,11.488,5.147,11.488,5.147S46.657,44.421,33.293,44.421 M33.333,0C14.954,0,0,14.956,0,33.333   c0,18.381,14.954,33.333,33.333,33.333c18.382,0,33.334-14.952,33.334-33.333C66.667,14.956,51.715,0,33.333,0"/>
</g>
</svg>