<svg xmlns="http://www.w3.org/2000/svg" xmlns:xlink="http://www.w3.org/1999/xlink" version="1.1" id="Layer_1" x="0px" y="0px" width="100px" height="66.667px" viewBox="0 0 100 66.667" style="enable-background:new 0 0 100 66.667;" xml:space="preserve">
<polygon style="fill:#231F20;" points="8.889,44.445 14.581,44.445 7.467,35.557 22.221,35.557 22.221,31.112 7.469,31.112   14.581,22.223 8.889,22.223 0,33.335 "/>
<g>
	<path style="fill:#231F20;" d="M84.66,55.896c-0.385-26.646-4.7-38.117-17.993-38.117c-13.294,0-17.609,11.471-17.994,38.117   c-6.63-5.296-10.895-13.435-10.895-22.563c0-15.93,12.958-28.888,28.888-28.888c15.928,0,28.89,12.958,28.89,28.888   C95.557,42.462,91.292,50.601,84.66,55.896 M66.624,44.422c-13.371,0-11.394-16.244-11.394-16.244s2.283-5.147,11.394-5.147   c9.114,0,11.489,5.147,11.489,5.147S79.99,44.422,66.624,44.422 M66.667,0c-18.38,0-33.333,14.956-33.333,33.333   c0,18.382,14.954,33.334,33.333,33.334S100,51.715,100,33.333C100,14.956,85.047,0,66.667,0"/>
</g>
</svg>