<svg xmlns="http://www.w3.org/2000/svg" xmlns:xlink="http://www.w3.org/1999/xlink" version="1.1" id="Layer_1" x="0px" y="0px" width="66.667px" height="100px" viewBox="0 0 66.667 100" style="enable-background:new 0 0 66.667 100;" xml:space="preserve">
<polygon style="fill:#231F20;" points="22.223,8.891 22.223,14.583 31.112,7.469 31.112,22.223 35.555,22.223 35.555,7.471   44.443,14.583 44.443,8.891 33.331,0 "/>
<g>
	<path style="fill:#231F20;" d="M51.326,89.229c-0.384-26.646-4.699-38.118-17.993-38.118c-13.293,0-17.608,11.472-17.993,38.118   C8.71,83.934,4.445,75.796,4.445,66.667c0-15.931,12.958-28.888,28.888-28.888c15.929,0,28.889,12.958,28.889,28.888   C62.222,75.796,57.957,83.934,51.326,89.229 M33.291,77.755c-13.371,0-11.394-16.243-11.394-16.243s2.283-5.147,11.394-5.147   c9.114,0,11.488,5.147,11.488,5.147S46.657,77.755,33.291,77.755 M33.333,33.333C14.954,33.333,0,48.289,0,66.667   C0,85.049,14.954,100,33.333,100c18.38,0,33.334-14.951,33.334-33.333C66.667,48.289,51.713,33.333,33.333,33.333"/>
</g>
</svg>