<svg xmlns="http://www.w3.org/2000/svg" xmlns:xlink="http://www.w3.org/1999/xlink" version="1.1" id="Layer_1" x="0px" y="0px" width="58.824px" height="100px" viewBox="0 0 58.824 100" style="enable-background:new 0 0 58.824 100;" xml:space="preserve">
<g>
	<polygon style="fill:#231F20;" points="39.217,80.394 39.217,75.37 31.374,81.646 31.374,68.628 27.452,68.628 27.452,81.645    19.608,75.37 19.608,80.394 29.414,88.236  "/>
</g>
<path style="fill:#231F20;" d="M1.962,31.373C0.878,31.373,0,30.495,0,29.412C0,13.194,13.196,0,29.414,0s29.41,13.193,29.41,29.41  c0,1.083-0.876,1.96-1.96,1.96c-1.085,0-1.961-0.878-1.961-1.96c0-14.054-11.435-25.489-25.489-25.489  c-14.057,0-25.492,11.435-25.492,25.491C3.922,30.495,3.044,31.373,1.962,31.373z"/>
<path style="fill:#231F20;" d="M29.412,15.686c-12.322,0-15.911,11.136-15.911,37.264v1.174c4.59,2.962,10.044,4.7,15.911,4.7  c5.868,0,11.32-1.737,15.91-4.7V52.95C45.322,26.822,41.734,15.686,29.412,15.686z M29.376,39.194  c-11.799,0-10.053-14.334-10.053-14.334s2.012-4.54,10.053-4.54c8.041,0,10.138,4.54,10.138,4.54S41.171,39.194,29.376,39.194z"/>
<polygon id="Arrow_17_" style="fill:#231F20;" points="29.412,94.988 19.608,87.134 19.608,92.157 29.414,100 39.217,92.157   39.217,87.134 "/>
</svg>