<?xml version="1.0" encoding="utf-8"?>
<!-- Generator: Adobe Illustrator 14.0.0, SVG Export Plug-In . SVG Version: 6.00 Build 43363)  -->
<!DOCTYPE svg PUBLIC "-//W3C//DTD SVG 1.0//EN" "http://www.w3.org/TR/2001/REC-SVG-20010904/DTD/svg10.dtd">
<svg version="1.0" id="Layer_1" xmlns="http://www.w3.org/2000/svg" xmlns:xlink="http://www.w3.org/1999/xlink" x="0px" y="0px"
	 width="44.123px" height="100px" viewBox="0 0 44.123 100" enable-background="new 0 0 44.123 100" xml:space="preserve">
<path id="path1291" d="M19.21,0v17.867H0v5.763h19.21v32.049C8.401,57.092,0.037,66.427,0.037,77.738
	C0.037,90.028,9.901,100,22.058,100c12.156,0,22.027-9.973,22.027-22.263c0-11.309-8.367-20.641-19.173-22.06V23.629h19.21v-5.763
	h-19.21V0H19.21z M22.058,61.164c9.051,0,16.396,7.425,16.396,16.574c0,9.148-7.345,16.575-16.396,16.575
	c-9.049,0-16.39-7.427-16.39-16.575C5.668,68.588,13.009,61.164,22.058,61.164z"/>
</svg>
