<svg xmlns="http://www.w3.org/2000/svg" xmlns:xlink="http://www.w3.org/1999/xlink" version="1.1" id="Layer_1" x="0px" y="0px" width="100px" height="58.824px" viewBox="0 0 100 58.824" style="enable-background:new 0 0 100 58.824;" xml:space="preserve">
<g>
	<polygon style="fill:#231F20;" points="80.392,19.608 75.37,19.608 81.646,27.452 68.628,27.452 68.628,31.373 81.645,31.373    75.37,39.216 80.392,39.216 88.234,29.41  "/>
</g>
<path style="fill:#231F20;" d="M1.96,31.373c-1.084,0-1.96-0.878-1.96-1.96C0,13.194,13.194,0,29.414,0  C45.63,0,58.822,13.193,58.822,29.41c0,1.083-0.876,1.96-1.96,1.96c-1.083,0-1.96-0.878-1.96-1.96  c0-14.054-11.436-25.489-25.488-25.489c-14.058,0-25.493,11.435-25.493,25.491C3.921,30.495,3.044,31.373,1.96,31.373z"/>
<path style="fill:#231F20;" d="M29.412,15.686c-12.322,0-15.911,11.136-15.911,37.264v1.174c4.59,2.962,10.042,4.7,15.911,4.7  c5.867,0,11.32-1.738,15.909-4.7V52.95C45.321,26.822,41.734,15.686,29.412,15.686z M29.375,39.194  c-11.798,0-10.053-14.335-10.053-14.335s2.013-4.54,10.053-4.54s10.137,4.54,10.137,4.54S41.168,39.194,29.375,39.194z"/>
<polygon id="Arrow_20_" style="fill:#231F20;" points="94.986,29.412 87.134,39.216 92.157,39.216 100,29.41 92.157,19.608   87.134,19.608 "/>
</svg>