<svg xmlns="http://www.w3.org/2000/svg" xmlns:xlink="http://www.w3.org/1999/xlink" version="1.1" id="Layer_1" x="0px" y="0px" width="100px" height="41.667px" viewBox="0 0 100 41.667" style="enable-background:new 0 0 100 41.667;" xml:space="preserve">
<g>
	<polygon style="fill:#231F20;" points="86.11,13.889 82.553,13.889 86.999,19.445 77.776,19.445 77.776,22.223 86.998,22.223    82.553,27.779 86.11,27.779 91.666,20.832  "/>
	<polygon style="fill:#231F20;" points="13.888,13.889 17.446,13.889 13,19.445 22.222,19.445 22.222,22.223 13.002,22.223    17.446,27.779 13.888,27.779 8.333,20.832  "/>
</g>
<path style="fill:#231F20;" d="M30.556,22.223c-0.768,0-1.39-0.623-1.39-1.39C29.166,9.346,38.513,0,50,0  s20.833,9.346,20.833,20.832c0,0.767-0.621,1.389-1.389,1.389s-1.389-0.622-1.389-1.389c0-9.955-8.101-18.054-18.055-18.054  c-9.956,0-18.056,8.099-18.056,18.055C31.944,21.6,31.323,22.223,30.556,22.223z"/>
<path style="fill:#231F20;" d="M50,11.111c-8.728,0-11.27,7.888-11.27,26.397v0.831c3.251,2.097,7.114,3.328,11.27,3.328  c4.155,0,8.019-1.231,11.27-3.328v-0.831C61.27,18.999,58.728,11.111,50,11.111z M49.974,27.764c-8.358,0-7.121-10.154-7.121-10.154  s1.425-3.216,7.121-3.216c5.695,0,7.18,3.216,7.18,3.216S58.327,27.764,49.974,27.764z"/>
<polygon id="Arrow_12_" style="fill:#231F20;" points="96.448,20.833 90.887,27.779 94.443,27.779 100,20.832 94.443,13.889   90.887,13.889 "/>
<polygon id="Arrow_9_" style="fill:#231F20;" points="3.55,20.833 9.113,27.779 5.556,27.779 0,20.832 5.556,13.889 9.113,13.889   "/>
</svg>