<svg xmlns="http://www.w3.org/2000/svg" xmlns:xlink="http://www.w3.org/1999/xlink" version="1.1" id="Layer_1" x="0px" y="0px" width="100px" height="49.998px" viewBox="0 0 100 49.998" style="enable-background:new 0 0 100 49.998;" xml:space="preserve">
<polygon style="fill:#231F20;" points="6.665,33.333 10.938,33.333 5.603,26.666 16.669,26.666 16.669,23.332 5.603,23.332   10.938,16.666 6.665,16.666 0,25.001 "/>
<polygon style="fill:#231F20;" points="93.335,16.666 89.065,16.666 94.4,23.332 83.331,23.332 83.331,26.666 94.4,26.666   89.065,33.333 93.335,33.333 100,24.997 "/>
<g>
	<path style="fill:#231F20;" d="M26.666,26.666C25.751,26.666,25,25.918,25,25C25,11.215,36.218,0,50.003,0   C63.788,0,75,11.215,75,24.997c0,0.92-0.744,1.667-1.666,1.667c-0.919,0-1.666-0.748-1.666-1.667   c0-11.946-9.724-21.665-21.665-21.665c-11.947,0-21.67,9.718-21.67,21.667C28.333,25.918,27.588,26.666,26.666,26.666"/>
	<path style="fill:#231F20;" d="M49.97,33.314c-10.028,0-8.545-12.184-8.545-12.184s1.715-3.859,8.545-3.859   c6.836,0,8.618,3.859,8.618,3.859S59.991,33.314,49.97,33.314 M50,13.333c-10.474,0-13.522,9.464-13.522,31.675v0.999   c3.903,2.517,8.536,3.991,13.522,3.991c4.99,0,9.622-1.475,13.525-3.991v-0.999C63.525,22.797,60.474,13.333,50,13.333"/>
</g>
</svg>