<svg xmlns="http://www.w3.org/2000/svg" xmlns:xlink="http://www.w3.org/1999/xlink" version="1.1" id="Layer_1" x="0px" y="0px" width="100px" height="100px" viewBox="0 0 100 100" style="enable-background:new 0 0 100 100;" xml:space="preserve">
<polygon style="fill:#231F20;" points="6.665,58.333 10.932,58.333 5.597,51.666 16.666,51.666 16.666,48.334 5.603,48.334   10.932,41.667 6.665,41.667 0,50.001 "/>
<polygon style="fill:#231F20;" points="41.666,6.667 41.666,10.936 48.334,5.599 48.334,16.667 51.666,16.667 51.666,5.602   58.331,10.936 58.331,6.667 49.994,0 "/>
<polygon style="fill:#231F20;" points="93.332,41.667 89.062,41.667 94.4,48.334 83.331,48.334 83.331,51.666 94.396,51.666   89.062,58.333 93.332,58.333 100,49.999 "/>
<polygon style="fill:#231F20;" points="58.331,93.333 58.331,89.062 51.666,94.398 51.666,83.333 48.334,83.333 48.334,94.396   41.666,89.062 41.666,93.333 50,100 "/>
<g>
	<path style="fill:#231F20;" d="M63.495,66.921C63.205,46.936,59.97,38.333,50,38.333c-9.973,0-13.208,8.603-13.495,28.588   C31.531,62.947,28.333,56.844,28.333,50c0-11.948,9.717-21.666,21.667-21.666S71.668,38.052,71.668,50   C71.668,56.844,68.466,62.947,63.495,66.921 M49.966,58.313c-10.025,0-8.545-12.183-8.545-12.183s1.712-3.86,8.545-3.86   c6.836,0,8.615,3.86,8.615,3.86S59.991,58.313,49.966,58.313 M50,25c-13.788,0-25,11.214-25,25c0,13.783,11.212,25,25,25   c13.785,0,25-11.217,25-25C75,36.214,63.785,25,50,25"/>
</g>
</svg>