<svg xmlns="http://www.w3.org/2000/svg" xmlns:xlink="http://www.w3.org/1999/xlink" version="1.1" id="Layer_1" x="0px" y="0px" width="100px" height="99.997px" viewBox="0 0 100 99.997" style="enable-background:new 0 0 100 99.997;" xml:space="preserve">
<polygon style="fill:#231F20;" points="6.665,58.333 10.937,58.333 5.603,51.666 16.665,51.666 16.665,48.332 5.603,48.332   10.937,41.666 6.665,41.666 0,50 "/>
<polygon style="fill:#231F20;" points="41.667,6.668 41.667,10.936 48.332,5.6 48.332,16.667 51.668,16.667 51.668,5.603   58.335,10.936 58.335,6.668 49.999,0 "/>
<polygon style="fill:#231F20;" points="93.332,41.666 89.062,41.666 94.397,48.332 83.335,48.332 83.335,51.666 94.397,51.666   89.062,58.333 93.332,58.333 100,49.997 "/>
<polygon style="fill:#231F20;" points="58.335,93.331 58.335,89.06 51.668,94.397 51.668,83.33 48.332,83.33 48.332,94.396   41.667,89.06 41.667,93.331 50.001,99.997 "/>
<g>
	<path style="fill:#231F20;" d="M26.668,51.666c-0.921,0-1.666-0.748-1.666-1.667c0-13.785,11.215-25,24.999-25   c13.781,0,25,11.215,25,24.998c0,0.92-0.748,1.666-1.67,1.666c-0.918,0-1.666-0.746-1.666-1.666   c0-11.946-9.716-21.664-21.664-21.664s-21.667,9.718-21.667,21.666C28.335,50.918,27.587,51.666,26.668,51.666"/>
	<path style="fill:#231F20;" d="M49.968,58.314c-10.027,0-8.544-12.184-8.544-12.184s1.715-3.859,8.544-3.859   c6.836,0,8.618,3.859,8.618,3.859S59.996,58.314,49.968,58.314 M50.001,38.332c-10.476,0-13.525,9.465-13.525,31.675v0.998   c3.903,2.518,8.536,3.993,13.525,3.993c4.986,0,9.619-1.476,13.522-3.993v-0.998C63.523,47.797,60.472,38.332,50.001,38.332"/>
</g>
</svg>