<svg xmlns="http://www.w3.org/2000/svg" xmlns:xlink="http://www.w3.org/1999/xlink" version="1.1" id="Layer_1" x="0px" y="0px" width="90.25px" height="100px" viewBox="0 0 90.25 100" style="enable-background:new 0 0 90.25 100;" xml:space="preserve">
<path style="fill:#231F20;" d="M51.374,50c0-9.952,8.098-18.05,18.049-18.05c9.956,0,18.051,8.098,18.051,18.05  c0,5.703-2.664,10.789-6.806,14.096c-0.242-16.647-2.937-23.814-11.245-23.814c-8.304,0-10.999,7.167-11.24,23.814  C54.041,60.789,51.374,55.703,51.374,50 M62.273,46.777c0,0,1.485-3.215,7.18-3.215c5.689,0,7.116,3.215,7.116,3.215  s1.235,10.151-7.116,10.151C61.099,56.928,62.273,46.777,62.273,46.777 M48.598,50c0,11.485,9.344,20.827,20.825,20.827  c11.486,0,20.827-9.342,20.827-20.827s-9.341-20.826-20.827-20.826C57.941,29.174,48.598,38.515,48.598,50"/>
<path style="fill:#231F20;" d="M56.139,98.125l8.84,1.875l2.898-2.282l-6.926-1.468c6.132-4.103,9.888-11.056,9.888-18.479H68.06  c0,6.626-3.422,12.817-8.978,16.377l0.201-7.339l-2.898,2.283L56.139,98.125z"/>
<path style="fill:#231F20;" d="M2.776,50c0-9.952,8.1-18.05,18.051-18.05c9.954,0,18.051,8.098,18.051,18.05  c0,5.703-2.665,10.789-6.809,14.096c-0.239-16.647-2.934-23.814-11.243-23.814c-8.303,0-11.003,7.167-11.242,23.814  C5.443,60.789,2.776,55.703,2.776,50 M13.678,46.777c0,0,1.482-3.215,7.177-3.215c5.692,0,7.119,3.215,7.119,3.215  s1.233,10.151-7.119,10.151C12.503,56.928,13.678,46.777,13.678,46.777 M0,50c0,11.485,9.346,20.827,20.827,20.827  c11.487,0,20.828-9.342,20.828-20.827s-9.341-20.826-20.828-20.826C9.346,29.174,0,38.515,0,50"/>
<path style="fill:#231F20;" d="M19.439,22.23h2.776c0-6.626,3.422-12.817,8.98-16.375l-0.204,7.337l2.901-2.283l0.247-9.036  L25.299,0l-2.896,2.283l6.923,1.467C23.197,7.851,19.439,14.806,19.439,22.23"/>
</svg>