<svg xmlns="http://www.w3.org/2000/svg" xmlns:xlink="http://www.w3.org/1999/xlink" version="1.1" id="Layer_1" x="0px" y="0px" width="66.668px" height="100px" viewBox="0 0 66.668 100" style="enable-background:new 0 0 66.668 100;" xml:space="preserve">
<polygon style="fill:#231F20;" points="44.442,91.111 44.442,85.418 35.556,92.535 35.556,77.778 31.112,77.778 31.112,92.531   22.221,85.418 22.221,91.111 33.338,100 "/>
<g>
	<path style="fill:#231F20;" d="M2.222,35.556C0.993,35.556,0,34.559,0,33.334C0,14.954,14.95,0,33.338,0   c18.376,0,33.33,14.954,33.33,33.33c0,1.227-0.993,2.224-2.222,2.224s-2.222-0.997-2.222-2.224   c0-15.929-12.964-28.887-28.887-28.887c-15.935,0-28.895,12.958-28.895,28.891C4.443,34.559,3.451,35.556,2.222,35.556"/>
	<path style="fill:#231F20;" d="M33.289,44.42c-13.367,0-11.393-16.246-11.393-16.246s2.283-5.146,11.393-5.146   c9.115,0,11.487,5.146,11.487,5.146S46.656,44.42,33.289,44.42 M33.334,17.778c-13.965,0-18.03,12.618-18.03,42.233v1.333   c5.196,3.354,11.381,5.322,18.03,5.322c6.653,0,12.83-1.968,18.026-5.322v-1.333C51.36,30.396,47.299,17.778,33.334,17.778"/>
</g>
</svg>