<svg xmlns="http://www.w3.org/2000/svg" xmlns:xlink="http://www.w3.org/1999/xlink" version="1.1" id="Layer_1" x="0px" y="0px" width="100px" height="66.662px" viewBox="0 0 100 66.662" style="enable-background:new 0 0 100 66.662;" xml:space="preserve">
<polygon style="fill:#231F20;" points="8.886,44.442 14.583,44.442 7.47,35.554 22.224,35.554 22.224,31.108 7.47,31.108   14.583,22.22 8.886,22.22 0,33.334 "/>
<g>
	<path style="fill:#231F20;" d="M35.558,35.554c-1.229,0-2.222-0.997-2.222-2.222C33.336,14.953,48.289,0,66.668,0   S100,14.953,100,33.328c0,1.227-0.997,2.224-2.226,2.224c-1.225,0-2.222-0.997-2.222-2.224c0-15.928-12.955-28.885-28.885-28.885   S37.779,17.4,37.779,33.332C37.779,34.557,36.782,35.554,35.558,35.554"/>
	<path style="fill:#231F20;" d="M66.623,44.418c-13.37,0-11.393-16.245-11.393-16.245s2.287-5.145,11.393-5.145   c9.114,0,11.49,5.145,11.49,5.145S79.993,44.418,66.623,44.418 M66.668,17.777c-13.969,0-18.033,12.618-18.033,42.231v1.332   c5.204,3.354,11.381,5.322,18.033,5.322c6.648,0,12.829-1.968,18.029-5.322v-1.332C84.697,30.395,80.628,17.777,66.668,17.777"/>
</g>
</svg>