<svg xmlns="http://www.w3.org/2000/svg" xmlns:xlink="http://www.w3.org/1999/xlink" version="1.1" id="Layer_1" x="0px" y="0px" width="100px" height="66.665px" viewBox="0 0 100 66.665" style="enable-background:new 0 0 100 66.665;" xml:space="preserve">
<polygon style="fill:#231F20;" points="91.109,22.221 85.417,22.221 92.529,31.109 77.775,31.109 77.775,35.555 92.529,35.555   85.417,44.443 91.109,44.443 100,33.329 "/>
<g>
	<path style="fill:#231F20;" d="M2.222,35.555C0.993,35.555,0,34.559,0,33.333C0,14.954,14.95,0,33.333,0   c18.379,0,33.333,14.954,33.333,33.329c0,1.227-0.997,2.224-2.222,2.224c-1.229,0-2.227-0.997-2.227-2.224   c0-15.928-12.959-28.886-28.885-28.886c-15.93,0-28.89,12.958-28.89,28.89C4.443,34.559,3.451,35.555,2.222,35.555"/>
	<path style="fill:#231F20;" d="M33.289,44.419c-13.375,0-11.393-16.245-11.393-16.245s2.283-5.146,11.393-5.146   c9.115,0,11.487,5.146,11.487,5.146S46.655,44.419,33.289,44.419 M33.333,17.777c-13.969,0-18.034,12.618-18.034,42.232v1.333   c5.2,3.354,11.377,5.322,18.034,5.322c6.648,0,12.825-1.968,18.026-5.322V60.01C51.359,30.396,47.294,17.777,33.333,17.777"/>
</g>
</svg>