<svg xmlns="http://www.w3.org/2000/svg" xmlns:xlink="http://www.w3.org/1999/xlink" version="1.1" id="Layer_1" x="0px" y="0px" width="100px" height="100px" viewBox="0 0 100 100" style="enable-background:new 0 0 100 100;" xml:space="preserve">
<path style="fill:#231F20;" d="M3.333,53.332C1.492,53.332,0,51.837,0,50C0,22.431,22.431,0,50.003,0  C77.569,0,100,22.431,100,49.997c0,1.837-1.495,3.332-3.336,3.332c-1.837,0-3.332-1.495-3.332-3.332  c0-23.896-19.439-43.332-43.329-43.332C26.104,6.665,6.665,26.102,6.665,50C6.665,51.837,5.173,53.332,3.333,53.332"/>
<path style="fill:#231F20;" d="M49.936,66.629c-20.056,0-17.089-24.365-17.089-24.365s3.424-7.721,17.089-7.721  c13.669,0,17.233,7.721,17.233,7.721S69.986,66.629,49.936,66.629 M50,26.666c-20.947,0-27.048,18.934-27.048,63.349v1.999  C30.756,97.046,40.021,100,50,100c9.977,0,19.241-2.954,27.045-7.986v-1.999C77.045,45.6,70.947,26.666,50,26.666"/>
</svg>