<svg xmlns="http://www.w3.org/2000/svg" xmlns:xlink="http://www.w3.org/1999/xlink" version="1.1" id="Layer_1" x="0px" y="0px" width="78.949px" height="100px" viewBox="0 0 78.949 100" style="enable-background:new 0 0 78.949 100;" xml:space="preserve">
<path style="fill:#231F20;" d="M2.631,63.157C1.178,63.157,0,61.977,0,60.526c0-21.766,17.708-39.474,39.479-39.474  c21.761,0,39.469,17.708,39.469,39.471c0,1.451-1.178,2.631-2.633,2.631c-1.45,0-2.631-1.18-2.631-2.631  c0-18.864-15.348-34.209-34.205-34.209c-18.87,0-34.217,15.345-34.217,34.212C5.262,61.977,4.086,63.157,2.631,63.157"/>
<path style="fill:#231F20;" d="M76.314,18.53c-0.591,0-1.184-0.197-1.675-0.6C64.762,9.76,52.271,5.262,39.479,5.262  C26.676,5.262,14.186,9.76,4.31,17.93c-1.12,0.925-2.778,0.771-3.703-0.352c-0.927-1.123-0.771-2.78,0.35-3.706  C11.774,4.927,25.454,0,39.479,0c14.015,0,27.692,4.927,38.515,13.873c1.123,0.925,1.277,2.583,0.353,3.706  C77.82,18.207,77.07,18.53,76.314,18.53"/>
<path style="fill:#231F20;" d="M2.631,33.451c-0.581,0-1.166-0.193-1.655-0.583c-1.13-0.911-1.303-2.571-0.39-3.701  c9.57-11.847,23.746-18.641,38.893-18.641c15.145,0,29.316,6.794,38.881,18.638c0.918,1.13,0.742,2.79-0.39,3.701  c-1.13,0.911-2.785,0.74-3.701-0.393c-8.562-10.601-21.242-16.685-34.79-16.685c-13.55,0-26.235,6.083-34.802,16.685  C4.158,33.118,3.399,33.451,2.631,33.451"/>
<path style="fill:#231F20;" d="M39.423,73.654c-15.831,0-13.489-19.235-13.489-19.235s2.701-6.096,13.489-6.096  c10.792,0,13.605,6.096,13.605,6.096S55.252,73.654,39.423,73.654 M39.474,42.104c-16.535,0-21.351,14.947-21.351,50.013v1.578  C24.281,97.668,31.6,100,39.474,100c7.876,0,15.193-2.332,21.354-6.305v-1.578C60.827,57.052,56.011,42.104,39.474,42.104"/>
</svg>