<svg xmlns="http://www.w3.org/2000/svg" xmlns:xlink="http://www.w3.org/1999/xlink" version="1.1" id="Layer_1" x="0px" y="0px" width="100px" height="72.36px" viewBox="0 0 100 72.36" style="enable-background:new 0 0 100 72.36;" xml:space="preserve">
<path style="fill:#231F20;" d="M50,34.485c-0.952,0-1.724-0.773-1.724-1.725c0-12.361-10.055-22.413-22.413-22.413  c-12.36,0-22.415,10.052-22.415,22.413c0,0.952-0.773,1.725-1.724,1.725C0.772,34.485,0,33.712,0,32.76  C0,18.5,11.601,6.898,25.863,6.898c10.99,0,20.396,6.887,24.137,16.574c3.739-9.687,13.15-16.574,24.14-16.574  C88.398,6.898,100,18.5,100,32.759c0,0.952-0.775,1.725-1.724,1.725c-0.953,0-1.724-0.773-1.724-1.725  c0-12.36-10.057-22.412-22.413-22.412c-12.361,0-22.417,10.052-22.417,22.413C51.723,33.712,50.951,34.485,50,34.485"/>
<path style="fill:#231F20;" d="M1.723,15.022c-0.38,0-0.764-0.126-1.083-0.383c-0.74-0.599-0.854-1.685-0.257-2.425  C6.654,4.453,15.94,0,25.864,0C35.1,0,43.788,3.858,50.001,10.653C56.214,3.858,64.898,0,74.14,0  c9.922,0,19.209,4.453,25.477,12.213c0.601,0.74,0.483,1.826-0.257,2.424c-0.744,0.595-1.828,0.483-2.425-0.255  C91.324,7.435,83.016,3.449,74.14,3.449c-8.878,0-17.188,3.985-22.8,10.933c-0.327,0.402-0.819,0.639-1.338,0.639  c-0.524,0-1.015-0.237-1.343-0.639C43.048,7.435,34.74,3.449,25.864,3.449S8.678,7.435,3.064,14.382  C2.723,14.802,2.226,15.022,1.723,15.022"/>
<path style="fill:#231F20;" d="M25.83,41.361c-10.375,0-8.84-12.603-8.84-12.603s1.77-3.994,8.84-3.994s8.914,3.994,8.914,3.994  S36.199,41.361,25.83,41.361 M25.861,20.692c-10.835,0-13.989,9.79-13.989,32.767v1.032c4.035,2.604,8.829,4.131,13.989,4.131  s9.954-1.527,13.99-4.131v-1.032C39.852,30.482,36.696,20.692,25.861,20.692"/>
<path style="fill:#231F20;" d="M74.104,41.361c-10.374,0-8.84-12.603-8.84-12.603s1.771-3.994,8.84-3.994  c7.07,0,8.914,3.994,8.914,3.994S84.474,41.361,74.104,41.361 M74.138,20.692c-10.835,0-13.99,9.79-13.99,32.767v1.032  c4.036,2.604,8.829,4.131,13.99,4.131c5.159,0,9.952-1.527,13.989-4.131v-1.032C88.127,30.482,84.971,20.692,74.138,20.692"/>
<g>
	<path style="fill:#231F20;" d="M52.517,69.432v-1.211h1.468v1.211H52.517z"/>
	<path style="fill:#231F20;" d="M70.832,71.513c-0.177-0.194-0.443-0.291-0.802-0.291c-0.235,0-0.429,0.041-0.585,0.12   c-0.155,0.079-0.279,0.177-0.371,0.294c-0.094,0.116-0.16,0.241-0.197,0.372c-0.038,0.131-0.061,0.248-0.068,0.353h2.39   C71.131,71.987,71.008,71.705,70.832,71.513z"/>
</g>
</svg>