<svg xmlns="http://www.w3.org/2000/svg" xmlns:xlink="http://www.w3.org/1999/xlink" version="1.1" id="Layer_1" x="0px" y="0px" width="100px" height="41.213px" viewBox="0 0 100 41.213" style="enable-background:new 0 0 100 41.213;" xml:space="preserve">
<path style="fill:#231F20;" d="M65.909,0c-7.257,0-13.454,4.569-15.907,10.976C47.549,4.569,41.353,0,34.093,0  c-9.398,0-17.045,7.646-17.045,17.045c0,0.627,0.51,1.136,1.136,1.136c0.626,0,1.138-0.509,1.138-1.136  c0-8.147,6.625-14.772,14.771-14.772s14.771,6.625,14.771,14.771v0.001c0,0.627,0.51,1.136,1.138,1.136  c0.626,0,1.136-0.509,1.136-1.136c0-8.147,6.627-14.772,14.771-14.772c8.146,0,14.773,6.625,14.773,14.771  c0,0.627,0.508,1.136,1.136,1.136c0.626,0,1.136-0.509,1.136-1.136C82.955,7.646,75.31,0,65.909,0"/>
<polygon style="fill:#231F20;" points="4.544,22.727 7.458,22.727 3.82,18.182 11.365,18.182 11.365,15.909 3.82,15.909   7.458,11.364 4.544,11.364 0,17.046 "/>
<path style="fill:#231F20;" d="M65.889,22.714c-6.837,0-5.826-8.306-5.826-8.306s1.167-2.632,5.826-2.632  c4.661,0,5.876,2.632,5.876,2.632S72.726,22.714,65.889,22.714 M65.909,9.091c-7.141,0-9.222,6.453-9.222,21.597v0.68  c2.663,1.716,5.822,2.724,9.222,2.724s6.562-1.007,9.222-2.724v-0.68C75.131,15.544,73.05,9.091,65.909,9.091"/>
<polygon style="fill:#231F20;" points="95.456,11.364 92.542,11.364 96.182,15.909 88.637,15.909 88.637,18.182 96.182,18.182   92.542,22.727 95.456,22.727 100,17.044 "/>
<path style="fill:#231F20;" d="M34.07,22.714c-6.837,0-5.826-8.306-5.826-8.306s1.169-2.632,5.826-2.632  c4.661,0,5.876,2.632,5.876,2.632S40.907,22.714,34.07,22.714 M34.093,9.091c-7.143,0-9.222,6.453-9.222,21.597v0.68  c2.661,1.716,5.82,2.724,9.222,2.724c3.4,0,6.561-1.007,9.22-2.724v-0.68C43.312,15.544,41.232,9.091,34.093,9.091"/>
<g>
	<path style="fill:#231F20;" d="M51.661,41.213v-0.798h0.969v0.798H51.661z"/>
</g>
</svg>