<svg xmlns="http://www.w3.org/2000/svg" xmlns:xlink="http://www.w3.org/1999/xlink" version="1.1" id="Layer_1" x="0px" y="0px" width="100px" height="68.182px" viewBox="0 0 100 68.182" style="enable-background:new 0 0 100 68.182;" xml:space="preserve">
<polygon style="fill:#231F20;" points="4.544,39.772 7.458,39.772 3.82,35.227 11.365,35.227 11.365,32.955 3.82,32.955   7.458,28.409 4.544,28.409 0,34.092 "/>
<polygon style="fill:#231F20;" points="44.32,4.545 44.32,7.456 48.864,3.818 48.864,11.364 51.138,11.364 51.138,3.819   55.685,7.456 55.685,4.545 50,0 "/>
<polygon style="fill:#231F20;" points="95.456,28.409 92.542,28.409 96.182,32.955 88.637,32.955 88.637,35.227 96.182,35.227   92.542,39.772 95.456,39.772 100,34.09 "/>
<polygon style="fill:#231F20;" points="55.685,63.636 55.685,60.724 51.138,64.363 51.138,56.817 48.864,56.817 48.864,64.361   44.32,60.724 44.32,63.636 50.002,68.182 "/>
<g>
	<path style="fill:#231F20;" d="M34.07,39.76c-6.837,0-5.826-8.307-5.826-8.307s1.169-2.632,5.826-2.632   c4.661,0,5.876,2.632,5.876,2.632S40.907,39.76,34.07,39.76 M34.093,26.136c-7.143,0-9.222,6.453-9.222,21.597v0.68   c2.661,1.716,5.82,2.724,9.222,2.724c3.4,0,6.559-1.007,9.22-2.724v-0.68C43.312,32.589,41.232,26.136,34.093,26.136"/>
	<path style="fill:#231F20;" d="M65.909,17.045c-7.257,0-13.454,4.569-15.907,10.976c-2.453-6.407-8.649-10.976-15.909-10.976   c-9.398,0-17.045,7.646-17.045,17.045c0,0.627,0.51,1.136,1.136,1.136c0.626,0,1.138-0.508,1.138-1.136   c0-8.147,6.625-14.772,14.771-14.772s14.771,6.625,14.771,14.771v0.001c0,0.627,0.51,1.136,1.138,1.136   c0.626,0,1.136-0.508,1.136-1.136c0-8.147,6.627-14.772,14.771-14.772c8.146,0,14.773,6.625,14.773,14.771   c0,0.627,0.508,1.136,1.136,1.136c0.626,0,1.136-0.509,1.136-1.136C82.955,24.692,75.308,17.045,65.909,17.045"/>
	<path style="fill:#231F20;" d="M65.889,39.76c-6.837,0-5.826-8.307-5.826-8.307s1.167-2.632,5.826-2.632   c4.661,0,5.876,2.632,5.876,2.632S72.724,39.76,65.889,39.76 M65.909,26.136c-7.141,0-9.222,6.453-9.222,21.597v0.68   c2.663,1.716,5.822,2.724,9.222,2.724s6.559-1.007,9.222-2.724v-0.68C75.131,32.589,73.05,26.136,65.909,26.136"/>
</g>
</svg>