<svg xmlns="http://www.w3.org/2000/svg" xmlns:xlink="http://www.w3.org/1999/xlink" version="1.1" id="Layer_1" x="0px" y="0px" width="100px" height="77.584px" viewBox="0 0 100 77.584" style="enable-background:new 0 0 100 77.584;" xml:space="preserve">
<polygon style="fill:#231F20;" points="58.619,70.688 58.619,66.271 51.724,71.791 51.724,60.344 48.276,60.344 48.276,71.789   41.381,66.271 41.381,70.688 50,77.584 "/>
<g>
	<path style="fill:#231F20;" d="M25.83,34.463c-10.374,0-8.839-12.604-8.839-12.604s1.768-3.992,8.839-3.992   c7.072,0,8.916,3.992,8.916,3.992S36.198,34.463,25.83,34.463 M25.862,13.793c-10.834,0-13.992,9.79-13.992,32.766v1.034   c4.041,2.603,8.833,4.129,13.992,4.129c5.162,0,9.951-1.526,13.992-4.129v-1.034C39.854,23.583,36.696,13.793,25.862,13.793"/>
	<path style="fill:#231F20;" d="M74.138,0C63.127,0,53.722,6.933,50,16.653C46.281,6.933,36.88,0,25.862,0   C11.605,0,0,11.602,0,25.862c0,0.95,0.773,1.724,1.724,1.724c0.954,0,1.724-0.773,1.724-1.724   c0-12.361,10.058-22.415,22.415-22.415S48.276,13.501,48.276,25.86v0.001c0,0.95,0.77,1.724,1.724,1.724s1.724-0.773,1.724-1.724   c0-12.361,10.058-22.415,22.414-22.415c12.356,0,22.415,10.054,22.415,22.413c0,0.95,0.771,1.724,1.724,1.724   c0.947,0,1.724-0.773,1.724-1.724C100,11.602,88.395,0,74.138,0"/>
	<path style="fill:#231F20;" d="M74.106,34.463c-10.377,0-8.839-12.604-8.839-12.604s1.768-3.992,8.839-3.992   s8.912,3.992,8.912,3.992S84.474,34.463,74.106,34.463 M74.138,13.793c-10.834,0-13.991,9.79-13.991,32.766v1.034   c4.038,2.603,8.83,4.129,13.991,4.129c5.159,0,9.951-1.526,13.989-4.129v-1.034C88.127,23.583,84.973,13.793,74.138,13.793"/>
</g>
</svg>