<svg xmlns="http://www.w3.org/2000/svg" xmlns:xlink="http://www.w3.org/1999/xlink" version="1.1" id="Layer_1" x="0px" y="0px" width="100px" height="41.095px" viewBox="0 0 100 41.095" style="enable-background:new 0 0 100 41.095;" xml:space="preserve">
<polygon style="fill:#231F20;" points="5.478,27.396 8.987,27.396 4.6,21.917 13.7,21.917 13.7,19.177 4.6,19.177 8.987,13.698   5.478,13.698 0,20.549 "/>
<g>
	<path style="fill:#231F20;" d="M41.07,27.382c-8.245,0-7.023-10.015-7.023-10.015s1.405-3.171,7.023-3.171   c5.619,0,7.081,3.171,7.081,3.171S49.308,27.382,41.07,27.382 M41.096,10.958c-8.608,0-11.117,7.778-11.117,26.034v0.821   c3.208,2.068,7.016,3.281,11.117,3.281c4.099,0,7.909-1.213,11.114-3.281v-0.821C52.21,18.737,49.704,10.958,41.096,10.958"/>
	<path style="fill:#231F20;" d="M79.452,0c-8.749,0-16.224,5.508-19.178,13.231C57.316,5.508,49.847,0,41.096,0   C29.763,0,20.548,9.218,20.548,20.548c0,0.755,0.612,1.37,1.37,1.37c0.755,0,1.369-0.615,1.369-1.37   c0-9.821,7.992-17.809,17.809-17.809s17.809,7.987,17.809,17.807v0.001c0,0.755,0.612,1.37,1.37,1.37c0.752,0,1.37-0.615,1.37-1.37   c0-9.821,7.989-17.809,17.809-17.809c9.817,0,17.809,7.987,17.809,17.807c0,0.755,0.612,1.37,1.37,1.37   c0.752,0,1.369-0.614,1.369-1.37C100,9.218,90.782,0,79.452,0"/>
	<path style="fill:#231F20;" d="M79.425,27.382c-8.245,0-7.023-10.015-7.023-10.015s1.407-3.171,7.023-3.171   c5.618,0,7.081,3.171,7.081,3.171S87.664,27.382,79.425,27.382 M79.452,10.958c-8.611,0-11.117,7.778-11.117,26.034v0.821   c3.206,2.068,7.013,3.281,11.117,3.281c4.099,0,7.906-1.213,11.111-3.281v-0.821C90.563,18.737,88.059,10.958,79.452,10.958"/>
</g>
</svg>