<svg xmlns="http://www.w3.org/2000/svg" xmlns:xlink="http://www.w3.org/1999/xlink" version="1.1" id="Layer_1" x="0px" y="0px" width="100px" height="41.095px" viewBox="0 0 100 41.095" style="enable-background:new 0 0 100 41.095;" xml:space="preserve">
<polygon style="fill:#231F20;" points="94.52,13.698 91.011,13.698 95.397,19.177 86.3,19.177 86.3,21.917 95.395,21.917   91.011,27.396 94.52,27.396 100,20.546 "/>
<g>
	<path style="fill:#231F20;" d="M20.523,27.382c-8.245,0-7.023-10.015-7.023-10.015s1.405-3.171,7.023-3.171   c5.618,0,7.081,3.171,7.081,3.171S28.76,27.382,20.523,27.382 M20.548,10.958c-8.608,0-11.117,7.778-11.117,26.034v0.821   c3.208,2.068,7.016,3.281,11.117,3.281c4.099,0,7.909-1.213,11.114-3.281v-0.821C31.662,18.737,29.156,10.958,20.548,10.958"/>
	<path style="fill:#231F20;" d="M58.904,0c-8.749,0-16.224,5.508-19.178,13.231C36.769,5.508,29.299,0,20.548,0   C9.218,0,0,9.218,0,20.548c0,0.755,0.612,1.37,1.37,1.37c0.755,0,1.37-0.615,1.37-1.37c0-9.821,7.991-17.809,17.809-17.809   s17.809,7.987,17.809,17.807v0.001c0,0.755,0.612,1.37,1.37,1.37c0.752,0,1.37-0.615,1.37-1.37c0-9.821,7.989-17.809,17.809-17.809   c9.817,0,17.809,7.987,17.809,17.807c0,0.755,0.612,1.37,1.37,1.37c0.752,0,1.369-0.614,1.369-1.37C79.452,9.218,70.234,0,58.904,0   "/>
	<path style="fill:#231F20;" d="M58.877,27.382c-8.245,0-7.023-10.015-7.023-10.015s1.407-3.171,7.023-3.171   c5.618,0,7.081,3.171,7.081,3.171S67.117,27.382,58.877,27.382 M58.904,10.958c-8.611,0-11.117,7.778-11.117,26.034v0.821   c3.206,2.068,7.013,3.281,11.117,3.281c4.099,0,7.909-1.213,11.112-3.281v-0.821C70.016,18.737,67.51,10.958,58.904,10.958"/>
</g>
</svg>