<svg xmlns="http://www.w3.org/2000/svg" xmlns:xlink="http://www.w3.org/1999/xlink" version="1.1" id="Layer_1" x="0px" y="0px" width="100px" height="77.584px" viewBox="0 0 100 77.584" style="enable-background:new 0 0 100 77.584;" xml:space="preserve">
<polygon style="fill:#231F20;" points="41.381,6.896 41.381,11.314 48.276,5.793 48.276,17.24 51.724,17.24 51.724,5.794   58.619,11.314 58.619,6.896 49.997,0 "/>
<g>
	<path style="fill:#231F20;" d="M25.83,60.325c-10.377,0-8.839-12.604-8.839-12.604s1.768-3.992,8.839-3.992   c7.072,0,8.912,3.992,8.912,3.992S36.201,60.325,25.83,60.325 M25.862,39.655c-10.834,0-13.992,9.79-13.992,32.766v1.034   c4.038,2.603,8.83,4.129,13.992,4.129c5.159,0,9.951-1.526,13.989-4.129v-1.034C39.851,49.444,36.696,39.655,25.862,39.655"/>
	<path style="fill:#231F20;" d="M74.138,25.862c-11.011,0-20.419,6.933-24.138,16.653c-3.719-9.72-13.124-16.653-24.138-16.653   C11.602,25.862,0,37.464,0,51.724c0,0.95,0.771,1.724,1.724,1.724c0.95,0,1.724-0.773,1.724-1.724   c0-12.361,10.058-22.415,22.415-22.415c12.359,0,22.415,10.054,22.415,22.412v0.003c0,0.95,0.77,1.724,1.724,1.724   c0.95,0,1.724-0.773,1.724-1.724c0-12.361,10.055-22.415,22.414-22.415c12.356,0,22.415,10.054,22.415,22.412   c0,0.952,0.771,1.726,1.724,1.726c0.947,0,1.724-0.773,1.724-1.726C100,37.464,88.395,25.862,74.138,25.862"/>
	<path style="fill:#231F20;" d="M74.104,60.325c-10.377,0-8.84-12.604-8.84-12.604s1.771-3.992,8.84-3.992   c7.071,0,8.912,3.992,8.912,3.992S84.474,60.325,74.104,60.325 M74.138,39.655c-10.834,0-13.991,9.79-13.991,32.766v1.034   c4.034,2.603,8.827,4.129,13.991,4.129c5.159,0,9.951-1.526,13.985-4.129v-1.034C88.123,49.444,84.97,39.655,74.138,39.655"/>
</g>
</svg>