<svg xmlns="http://www.w3.org/2000/svg" xmlns:xlink="http://www.w3.org/1999/xlink" version="1.1" id="Layer_1" x="0px" y="0px" width="100px" height="65.517px" viewBox="0 0 100 65.517" style="enable-background:new 0 0 100 65.517;" xml:space="preserve">
<path style="fill:#231F20;" d="M50,41.38c-0.952,0-1.725-0.773-1.725-1.725c0-12.361-10.055-22.413-22.411-22.413  c-12.36,0-22.415,10.052-22.415,22.413c0,0.952-0.773,1.725-1.726,1.725C0.773,41.38,0,40.606,0,39.655  c0-14.26,11.604-25.862,25.864-25.862c10.988,0,20.397,6.887,24.136,16.574c3.74-9.688,13.149-16.574,24.139-16.574  c14.259,0,25.86,11.602,25.86,25.86c0,0.952-0.772,1.725-1.724,1.725c-0.952,0-1.724-0.773-1.724-1.725  c0-12.36-10.056-22.412-22.413-22.412c-12.36,0-22.415,10.052-22.415,22.413C51.724,40.606,50.951,41.38,50,41.38"/>
<path style="fill:#231F20;" d="M74.105,48.256c-10.375,0-8.84-12.603-8.84-12.603s1.77-3.994,8.84-3.994s8.914,3.994,8.914,3.994  S84.475,48.256,74.105,48.256 M74.137,27.587c-10.835,0-13.99,9.79-13.99,32.766v1.032c4.036,2.604,8.83,4.131,13.99,4.131  c5.162,0,9.952-1.527,13.99-4.131v-1.032C88.127,37.377,84.972,27.587,74.137,27.587"/>
<path style="fill:#231F20;" d="M25.831,48.256c-10.375,0-8.84-12.603-8.84-12.603s1.77-3.994,8.84-3.994  c7.07,0,8.914,3.994,8.914,3.994S36.198,48.256,25.831,48.256 M25.862,27.587c-10.834,0-13.99,9.79-13.99,32.766v1.032  c4.036,2.604,8.83,4.131,13.99,4.131c5.16,0,9.953-1.527,13.99-4.131v-1.032C39.852,37.377,36.697,27.587,25.862,27.587"/>
<path style="fill:#231F20;" d="M98.273,12.142c-0.387,0-0.774-0.129-1.099-0.396c-6.47-5.35-14.653-8.296-23.036-8.296  c-8.389,0-16.571,2.947-23.04,8.296c-0.639,0.525-1.561,0.525-2.199,0c-6.47-5.35-14.653-8.296-23.036-8.296  c-8.388,0-16.571,2.947-23.04,8.296c-0.734,0.609-1.821,0.505-2.428-0.23c-0.606-0.734-0.505-1.822,0.229-2.428  C7.714,3.227,16.677,0,25.864,0c8.715,0,17.23,2.906,24.138,8.213C56.905,2.906,65.421,0,74.139,0  c9.186,0,18.146,3.227,25.236,9.087c0.734,0.606,0.836,1.694,0.229,2.428C99.262,11.93,98.771,12.142,98.273,12.142"/>
<path style="fill:#231F20;" d="M1.722,21.917c-0.38,0-0.764-0.126-1.083-0.384c-0.74-0.598-0.852-1.684-0.257-2.424  C6.655,11.348,15.939,6.895,25.864,6.895c9.237,0,17.925,3.858,24.138,10.653c6.213-6.795,14.897-10.653,24.137-10.653  c9.924,0,19.209,4.453,25.477,12.212c0.602,0.741,0.483,1.827-0.257,2.425c-0.74,0.595-1.827,0.483-2.425-0.256  c-5.61-6.947-13.918-10.933-22.795-10.933c-8.876,0-17.187,3.986-22.798,10.933c-0.328,0.403-0.821,0.639-1.338,0.639  c-0.524,0-1.015-0.236-1.343-0.639c-5.612-6.947-13.917-10.933-22.795-10.933c-8.875,0-17.185,3.986-22.8,10.933  C2.725,21.696,2.227,21.917,1.722,21.917"/>
</svg>