<svg xmlns="http://www.w3.org/2000/svg" xmlns:xlink="http://www.w3.org/1999/xlink" version="1.1" id="Layer_1" x="0px" y="0px" width="45.271px" height="100px" viewBox="0 0 45.271 100" style="enable-background:new 0 0 45.271 100;" xml:space="preserve">
<polygon style="fill:#231F20;" points="15.092,6.036 15.092,9.903 21.126,5.072 21.126,15.09 24.144,15.09 24.144,5.073   30.181,9.903 30.181,6.036 22.632,0 "/>
<path style="fill:#231F20;" d="M34.854,60.592c-0.26-18.094-3.194-25.885-12.218-25.885c-9.027,0-11.958,7.791-12.218,25.885  c-4.504-3.596-7.4-9.123-7.4-15.321c0-10.818,8.803-19.617,19.618-19.617c10.817,0,19.618,8.799,19.618,19.617  C42.253,51.469,39.357,56.996,34.854,60.592 M22.607,52.8c-9.082,0-7.736-11.03-7.736-11.03s1.547-3.495,7.736-3.495  s7.8,3.495,7.8,3.495S31.684,52.8,22.607,52.8 M22.635,22.635C10.154,22.635,0,32.791,0,45.271  c0,12.482,10.154,22.635,22.635,22.635c12.478,0,22.635-10.153,22.635-22.635C45.271,32.791,35.113,22.635,22.635,22.635"/>
<polygon style="fill:#231F20;" points="30.181,84.505 30.181,80.639 24.144,85.472 24.144,75.45 21.126,75.45 21.126,85.471   15.092,80.639 15.092,84.505 22.635,90.541 "/>
<g>
	<path style="fill:#231F20;" d="M12.459,100v-1.06h1.285V100H12.459z"/>
</g>
</svg>