<?xml version="1.0" encoding="utf-8"?>
<!-- Generator: Adobe Illustrator 15.1.0, SVG Export Plug-In . SVG Version: 6.00 Build 0)  -->
<!DOCTYPE svg PUBLIC "-//W3C//DTD SVG 1.1//EN" "http://www.w3.org/Graphics/SVG/1.1/DTD/svg11.dtd">
<svg version="1.1" id="Layer_1" xmlns="http://www.w3.org/2000/svg" xmlns:xlink="http://www.w3.org/1999/xlink" x="0px" y="0px"
	 width="100px" height="70px" viewBox="0 0 100 70" enable-background="new 0 0 100 70" xml:space="preserve">
<polygon points="100,25 100,0 75,0 75,8 86.344,8 71.344,23 28.656,23 13.656,8 25,8 25,0 0,0 0,25 8,25 8,13.656 23,28.656 
	23,41.344 8,56.344 8,45 0,45 0,70 25,70 25,62 13.656,62 28.656,47 71.344,47 86.344,62 75,62 75,70 100,70 100,45 92,45 
	92,56.344 77,41.344 77,28.656 92,13.656 92,25 "/>
</svg>
