<svg xmlns="http://www.w3.org/2000/svg" xmlns:xlink="http://www.w3.org/1999/xlink" version="1.1" id="Layer_1" x="0px" y="0px" width="41.667px" height="100px" viewBox="0 0 41.667 100" style="enable-background:new 0 0 41.667 100;" xml:space="preserve">
<g>
	<polygon style="fill:#231F20;" points="27.779,86.111 27.779,82.554 22.224,86.999 22.224,77.778 19.445,77.778 19.445,86.998    13.89,82.554 13.89,86.111 20.835,91.667  "/>
	<polygon style="fill:#231F20;" points="27.779,13.888 27.779,17.446 22.224,13 22.224,22.222 19.445,22.222 19.445,13.002    13.89,17.446 13.89,13.888 20.835,8.333  "/>
</g>
<path style="fill:#231F20;" d="M1.39,51.389C0.622,51.389,0,50.767,0,50c0-11.487,9.348-20.833,20.835-20.833  s20.832,9.345,20.832,20.832c0,0.767-0.62,1.389-1.389,1.389c-0.768,0-1.388-0.622-1.388-1.389c0-9.955-8.101-18.054-18.056-18.054  c-9.957,0-18.057,8.099-18.057,18.055C2.778,50.767,2.157,51.389,1.39,51.389z"/>
<path style="fill:#231F20;" d="M20.833,40.277c-8.728,0-11.27,7.888-11.27,26.396v0.832c3.251,2.098,7.115,3.329,11.27,3.329  c4.157,0,8.019-1.231,11.27-3.329v-0.832C32.104,48.165,29.562,40.277,20.833,40.277z M20.808,56.929  c-8.358,0-7.121-10.153-7.121-10.153s1.425-3.216,7.121-3.216c5.696,0,7.181,3.216,7.181,3.216S29.163,56.929,20.808,56.929z"/>
<polygon id="Arrow_8_" style="fill:#231F20;" points="20.833,96.449 13.89,90.887 13.89,94.444 20.835,100 27.779,94.444   27.779,90.887 "/>
<polygon id="Arrow_7_" style="fill:#231F20;" points="20.833,3.55 13.89,9.112 13.89,5.556 20.835,0 27.779,5.556 27.779,9.112 "/>
</svg>