<svg xmlns="http://www.w3.org/2000/svg" xmlns:xlink="http://www.w3.org/1999/xlink" version="1.1" id="Layer_1" x="0px" y="0px" width="50.001px" height="100px" viewBox="0 0 50.001 100" style="enable-background:new 0 0 50.001 100;" xml:space="preserve">
<polygon style="fill:#231F20;" points="16.666,6.667 16.666,10.938 23.334,5.6 23.334,16.666 26.667,16.666 26.667,5.602   33.332,10.938 33.332,6.667 25,0 "/>
<polygon style="fill:#231F20;" points="33.332,93.333 33.332,89.063 26.667,94.401 26.667,83.334 23.334,83.334 23.334,94.398   16.666,89.063 16.666,93.333 25.003,100 "/>
<g>
	<path style="fill:#231F20;" d="M1.667,51.667C0.751,51.667,0,50.919,0,50.001c0-13.785,11.218-25,25.003-25   c13.782,0,24.998,11.215,24.998,24.997c0,0.92-0.745,1.668-1.667,1.668c-0.918,0-1.666-0.748-1.666-1.668   c0-11.946-9.723-21.665-21.665-21.665c-11.951,0-21.671,9.718-21.671,21.668C3.333,50.919,2.588,51.667,1.667,51.667"/>
	<path style="fill:#231F20;" d="M24.97,58.315c-10.028,0-8.545-12.185-8.545-12.185s1.709-3.859,8.545-3.859   c6.833,0,8.618,3.859,8.618,3.859S34.992,58.315,24.97,58.315 M25,38.333c-10.474,0-13.522,9.464-13.522,31.675v0.999   C15.381,73.524,20.014,75,25,75c4.99,0,9.623-1.476,13.526-3.992v-0.999C38.526,47.797,35.475,38.333,25,38.333"/>
</g>
</svg>