<svg xmlns="http://www.w3.org/2000/svg" xmlns:xlink="http://www.w3.org/1999/xlink" version="1.1" id="Layer_1" x="0px" y="0px" width="100px" height="100px" viewBox="0 0 100 100" enable-background="new 0 0 100 100" xml:space="preserve">
<circle cx="49.999" cy="53.877" r="17.115"/>
<path d="M69.771,14.689c0,3.879-3.144,7.024-7.022,7.024V37.47c0,0-4.792-3.972-12.749-3.972c-7.956,0-12.749,3.972-12.749,3.972  V22.893c-3.879,0-7.022-3.145-7.022-7.024c0-3.685,2.836-6.707,6.446-6.999c1.145-2.322,3.536-3.919,6.301-3.919  c0.884,0,1.729,0.164,2.509,0.461C46.706,4.388,48.281,3.771,50,3.771c1.719,0,3.293,0.618,4.514,1.641  c0.779-0.297,1.625-0.461,2.51-0.461c2.256,0,4.264,1.064,5.549,2.717c0.059-0.002,0.118-0.002,0.176-0.002  C66.627,7.666,69.771,10.81,69.771,14.689z"/>
<path d="M49.5,77.484l-12.648-6.147l-1.841,3.403h-7.498c-6.519,0-11.804,5.285-11.804,11.804V100h21.415V83.563L49.5,77.484z"/>
<path d="M72.485,74.74h-7.498l-1.62-2.955L38.125,84.187V100h46.164V86.544C84.289,80.025,79.005,74.74,72.485,74.74z   M40.508,99.446c-0.854,0-1.545-0.691-1.545-1.544s0.691-1.544,1.545-1.544c0.853,0,1.544,0.691,1.544,1.544  S41.36,99.446,40.508,99.446z M40.508,87.633c-0.854,0-1.545-0.691-1.545-1.544s0.691-1.544,1.545-1.544  c0.853,0,1.544,0.691,1.544,1.544S41.36,87.633,40.508,87.633z M60.67,99.446c-0.854,0-1.545-0.691-1.545-1.544  s0.691-1.544,1.545-1.544c0.853,0,1.544,0.691,1.544,1.544S61.522,99.446,60.67,99.446z M60.67,87.633  c-0.854,0-1.545-0.691-1.545-1.544s0.691-1.544,1.545-1.544c0.853,0,1.544,0.691,1.544,1.544S61.522,87.633,60.67,87.633z"/>
</svg>