<svg xmlns="http://www.w3.org/2000/svg" xmlns:xlink="http://www.w3.org/1999/xlink" version="1.1" id="Layer_1" x="0px" y="0px" width="100px" height="100px" viewBox="-346 256 100 100" enable-background="new -346 256 100 100" xml:space="preserve">
<path fill-rule="evenodd" clip-rule="evenodd" d="M-250.099,345.266c-0.928-3.27-3.79-5.724-7.274-6.04v-2.793h-4.216v-5.421h-3.614  h-0.803c0-0.584,0-1.24,0-1.948c0-2.295-2.707-4.156-6.048-4.156h-3.188v-1.725h-6.625v1.725h-3.79c-3.34,0-6.047,1.861-6.047,4.156  c0,0.708,0,1.364,0,1.948h-0.142c-0.714-1.353-1.541-2.65-2.468-3.614c-0.9-0.937-2.075-1.738-3.36-2.432  c-1.368-3.317-4.034-6.868-9.23-9.116c-5.312-2.297-10.104-3.498-14.738-4.659c-1.682-0.421-3.389-0.851-5.134-1.334l0.017-17.498  l-2.705-0.002l-0.016,16.708c-0.571-0.177-1.147-0.363-1.728-0.557l-13.241-9.275l-1.553,2.214l9.255,6.483  c-0.273,0.166-0.499,0.39-0.649,0.673c-0.572,1.075,0.112,2.561,1.532,3.316c1.419,0.754,3.034,0.495,3.607-0.584  c0.036-0.065,0.051-0.138,0.077-0.206l25.777,18.055c-7.34,0.078-13.27,6.044-13.27,13.404c0,7.409,6.006,13.412,13.413,13.412  c6.502,0,11.92-4.627,13.148-10.767v5.052h27.084c1.134,3.268,4.234,5.615,7.887,5.615c3.803,0,7.006-2.54,8.019-6.016h4.189v-4.619  H-250.099z M-308.968,321.375v2.708l-17.81-12.474v-0.107c1.613,0.44,3.192,0.837,4.75,1.229c4.783,1.198,9.301,2.331,14.493,4.576  c3.9,1.688,6.244,4.138,7.649,6.608C-304.265,322.091-308.968,321.375-308.968,321.375z M-306.257,351.859  c-5.119,0-9.272-4.151-9.272-9.271s4.153-9.271,9.272-9.271c5.119,0,9.272,4.15,9.272,9.271S-301.138,351.859-306.257,351.859z   M-277.566,344.353h-1.312v-5.905h1.312V344.353z M-274.502,344.353h-1.312v-5.905h1.312V344.353z M-271.661,344.353h-1.312v-5.905  h1.312V344.353z M-268.625,344.353h-1.284v-11.978h-9.295v-1.363h10.579V344.353z M-258.138,352.75c-2.875,0-5.205-2.33-5.205-5.205  s2.33-5.205,5.205-5.205s5.205,2.33,5.205,5.205S-255.263,352.75-258.138,352.75z"/>
<circle fill-rule="evenodd" clip-rule="evenodd" cx="-258.138" cy="347.544" r="1.87"/>
<circle fill-rule="evenodd" clip-rule="evenodd" cx="-306.256" cy="342.588" r="2.73"/>
</svg>