<svg xmlns="http://www.w3.org/2000/svg" xmlns:xlink="http://www.w3.org/1999/xlink" version="1.0" id="Capa_1" x="0px" y="0px" width="100px" height="100px" viewBox="0 0 100 100" enable-background="new 0 0 100 100" xml:space="preserve">
<g>
	<path d="M45.446,0c-6.362,0.572-12.379,2.331-17.834,5.053c-1.561,4.554-4.172,13.366-5.71,25.089   c-0.585,4.457-1.043,9.604-1.191,15.304h24.736V0z"/>
	<path d="M45.446,54.554H20.75c0.412,11.996,2.323,25.804,7.039,40.483c5.408,2.672,11.364,4.396,17.657,4.963V54.554z"/>
	<path d="M86.334,28.599c0.653,4.89,1.163,10.558,1.317,16.848H100c-1.181-13.122-7.405-24.783-16.725-33.039   C84.39,16.91,85.5,22.355,86.334,28.599z"/>
	<path d="M54.554,45.446h23.989c-0.148-5.701-0.606-10.847-1.191-15.304c-1.59-12.115-4.326-21.124-5.863-25.533   C66.275,2.136,60.567,0.541,54.554,0V45.446z"/>
	<path d="M11.639,54.554H0C1.153,67.367,7.11,78.792,16.068,87.01C13.225,75.352,11.957,64.381,11.639,54.554z"/>
	<path d="M87.614,54.554c-0.325,10.062-1.646,21.326-4.637,33.298c9.484-8.27,15.83-20.037,17.023-33.298H87.614z"/>
	<path d="M78.503,54.554H54.554V100c5.952-0.536,11.604-2.107,16.776-4.538C76.146,80.624,78.086,66.667,78.503,54.554z"/>
	<path d="M11.602,45.446c0.154-6.29,0.664-11.958,1.317-16.848c0.781-5.844,1.803-10.99,2.845-15.318   C6.978,21.476,1.139,32.781,0,45.446H11.602z"/>
</g>
</svg>