<svg xmlns="http://www.w3.org/2000/svg" xmlns:xlink="http://www.w3.org/1999/xlink" version="1.1" id="Ebene_1" x="0px" y="0px" width="100px" height="100px" viewBox="0 0 100 100" enable-background="new 0 0 100 100" xml:space="preserve">
<path d="M46.617,55.094c-1,0-1.814,0.826-1.814,1.841c0,1.001,0.814,1.815,1.814,1.815c1.033,0,1.842-0.798,1.842-1.815  C48.459,55.902,47.65,55.094,46.617,55.094z"/>
<path d="M56.324,55.094c-1.015,0-1.84,0.826-1.84,1.841c0,1.001,0.825,1.815,1.84,1.815c1.002,0,1.816-0.814,1.816-1.815  C58.141,55.902,57.343,55.094,56.324,55.094z"/>
<path d="M59.197,44.948c-0.143-0.178-0.357-0.281-0.585-0.281H44.837l-0.717-1.936c-0.109-0.294-0.389-0.49-0.703-0.49H41.5  c-0.414,0-0.75,0.336-0.75,0.75s0.336,0.75,0.75,0.75h1.395l3.568,9.636c0.11,0.297,0.393,0.489,0.703,0.489  c0.03,0,0.06-0.002,0.09-0.005l10.002-1.2c0.316-0.038,0.574-0.271,0.644-0.583l1.443-6.499  C59.394,45.358,59.34,45.125,59.197,44.948z M57.178,48.417h-2.997v-2.25h3.497L57.178,48.417z M50.431,48.417v-2.25h3v2.25H50.431z   M53.431,49.167v2.442l-3,0.36v-2.803H53.431z M49.681,46.167v2.25h-3.456l-0.833-2.25H49.681z M46.503,49.167h3.178v2.893  l-2.017,0.242L46.503,49.167z M54.181,51.52v-2.353h2.831l-0.46,2.068L54.181,51.52z"/>
</svg>