<svg xmlns="http://www.w3.org/2000/svg" xmlns:xlink="http://www.w3.org/1999/xlink" version="1.0" id="Capa_1" x="0px" y="0px" width="100px" height="100px" viewBox="0 0 100 100" enable-background="new 0 0 100 100" xml:space="preserve">
<g>
	<path d="M49.998,100C22.429,100,0,77.57,0,49.998C0,22.429,22.429,0,49.998,0C77.57,0,100,22.429,100,49.998   C100,77.57,77.57,100,49.998,100z M49.998,9.091c-22.556,0-40.907,18.351-40.907,40.907c0,22.558,18.351,40.912,40.907,40.912   c22.558,0,40.912-18.354,40.912-40.912C90.91,27.442,72.556,9.091,49.998,9.091z"/>
	<path d="M29.119,78.442l3.988-23.246L16.216,38.729l23.343-3.393l10.438-21.154l10.44,21.154l23.348,3.393L66.89,55.196   l3.993,23.246L49.998,67.466L29.119,78.442z M49.998,60.62l12.833,6.744L60.377,53.08L70.76,42.961l-14.348-2.084l-6.415-12.999   l-6.414,12.998l-14.346,2.085l10.38,10.119l-2.451,14.284L49.998,60.62z"/>
</g>
</svg>