<svg xmlns="http://www.w3.org/2000/svg" xmlns:xlink="http://www.w3.org/1999/xlink" version="1.1" id="Layer_1" x="0px" y="0px" width="100px" height="72.781px" viewBox="0 0 100 72.781" enable-background="new 0 0 100 72.781" xml:space="preserve">
<path d="M79.787,61.203h-26.53l-0.433-10.949c5.361,0.209,18.56,2.029,18.56,2.029L62.12,32.708l-9.993-0.096l-0.129-3.27  c3.92,0.282,10.996,1.259,10.996,1.259l-6.031-12.745l-5.42-0.053l-0.121-3.079c2.384,0.175,6.628,0.76,6.628,0.76l-3.658-7.732  L51.146,7.72l-0.21-5.309l-2.399,0.096l0.205,5.189l-2.784-0.028L42.8,15.334c0,0,3.774-0.449,6.219-0.607l0.121,3.051l-6.08-0.059  l-5.204,12.635c0,0,8.005-0.953,11.738-1.076l0.13,3.307l-8.958-0.087l-0.761,1.85l-4.62-7.104l-9.312,1.676l-0.593-3.26  c3.284-0.561,12.997-0.931,12.997-0.931L29.61,11.576l-6.481,1.166l-0.523-2.875c2.354-0.278,6.753-0.501,6.753-0.501l-5.037-6.912  l-2.968,0.535L20.809,0l-2.361,0.43l0.543,2.984l-2.972,0.534l-1.67,8.12c0,0,3.528-1.115,5.902-1.732l0.515,2.832l-5.377,0.967  l-2.626,15.222c0,0,6.319-2.087,10.376-3.155l0.573,3.145l-7.635,1.373l-0.232,1.474L3.366,28.413c0,0,0.248,12.316,0,15.974  c-0.218,3.223-3.19,12.903-3.19,12.903l27.563,3.07L25.58,48.24c0.519-0.146,1.021-0.283,1.497-0.408l2.434,13.371H6.758  c0.05,1.439,1.181,3.336,3.398,5.707c1.799,2.008,3.597,3.58,5.401,4.707c0.925,0.666,3.055,1.164,3.105,1.164  c2.111,0,54.272,0,54.578,0c2.568-3.188,7.073-7.338,9.934-10.76l16.647-11.721L79.787,61.203z M29.415,47.275  c0.126-0.026,0.251-0.05,0.366-0.071c1.185-0.213,3.061-0.4,5.159-0.559l-2.167,5.261c0,0,11.77-1.4,17.649-1.639l0.432,10.936  H31.95L29.415,47.275z"/>
</svg>