<svg xmlns="http://www.w3.org/2000/svg" xmlns:xlink="http://www.w3.org/1999/xlink" version="1.1" id="Layer_1" x="0px" y="0px" width="100px" height="100px" viewBox="0 0 100 100" enable-background="new 0 0 100 100" xml:space="preserve">
<path d="M73.671,18.416c-0.211,0.21-0.548,0.209-0.757,0l-2.325-2.325c-0.209-0.209-0.209-0.546,0-0.756l2.325-2.326  c0.209-0.208,0.546-0.209,0.757,0l2.324,2.326c0.21,0.208,0.21,0.548,0,0.756L73.671,18.416z"/>
<path d="M82.994,27.74c-0.209,0.209-0.548,0.209-0.756,0l-2.324-2.325c-0.211-0.209-0.211-0.546,0-0.756l2.324-2.325  c0.208-0.208,0.547-0.209,0.756,0l2.326,2.325c0.208,0.209,0.208,0.547-0.001,0.755L82.994,27.74z"/>
<path d="M79.588,40.476l-0.918-0.917l18.518-18.517L77.665,1.521L59.149,20.037l-0.954-0.955c-0.723-0.721-1.893-0.721-2.613,0  L5.251,69.414c-0.723,0.722-0.723,1.892-0.001,2.612l4.525,4.526C8.02,79.23,8.317,82.87,10.67,85.225L13.446,88  c2.353,2.353,5.993,2.65,8.672,0.895l4.525,4.525c0.722,0.722,1.892,0.722,2.614-0.001l50.331-50.331  C80.309,42.367,80.309,41.197,79.588,40.476z M77.666,4.217L94.49,21.042L77.666,37.867L60.842,21.042L77.666,4.217z M15.131,86.315  l-2.776-2.777c-1.417-1.416-1.695-3.544-0.838-5.243l8.858,8.857C18.676,88.01,16.548,87.732,15.131,86.315z"/>
</svg>