<svg xmlns="http://www.w3.org/2000/svg" xmlns:xlink="http://www.w3.org/1999/xlink" version="1.1" id="Laag_1" x="0px" y="0px" width="100px" height="100px" viewBox="0 0 100 100" enable-background="new 0 0 100 100" xml:space="preserve">
<path fill="none" stroke="#000000" stroke-width="3" stroke-miterlimit="10" d="M40.073,33.052c0,0-0.002-2.661-4.009-2.661  c-4.039,0-4.026,2.66-4.026,2.66l-0.007,11.659c0,0-0.096,4.199,8.021,4.199L40.073,33.052z"/>
<path fill="none" stroke="#000000" stroke-width="3" stroke-miterlimit="10" d="M45.354,64.184c0,0,0-8.291,7.864-8.291h5.3v-5.3  h-1.026c0,0-8.034,0-8.034-8.505h14.188"/>
<line fill="none" stroke="#000000" stroke-width="3" stroke-miterlimit="10" x1="56.126" y1="32.208" x2="56.126" y2="41.062"/>
<polyline fill="none" stroke="#000000" stroke-width="3" stroke-miterlimit="10" points="36.638,82.561 36.638,66.491   32.105,59.653 32.02,43.114 "/>
<path fill="none" stroke="#000000" stroke-width="3" stroke-miterlimit="10" d="M48.107,32.625c0,0-0.002-2.661-4.009-2.661  c-4.038,0-4.026,2.66-4.026,2.66l-0.007,11.659c0,0-0.097,4.199,8.021,4.199V37.329l0.005-5.121c0,0-0.013-2.66,4.025-2.66  c4.007,0,4.009,2.661,4.009,2.661l0,0V11.787v-0.278c0,0-0.013-2.66,4.025-2.66c4.007,0,4.009,2.661,4.009,2.661v0.278v30.3h3.42  v19.446l-6.839,5.812l-0.002,15.193"/>
<ellipse fill="none" stroke="#000000" stroke-width="3" stroke-miterlimit="10" cx="48.688" cy="83.115" rx="12.052" ry="6.796"/>
</svg>