<svg xmlns="http://www.w3.org/2000/svg" xmlns:xlink="http://www.w3.org/1999/xlink" version="1.1" id="Layer_1" x="0px" y="0px" width="100px" height="52.823px" viewBox="0 0 100 52.823" enable-background="new 0 0 100 52.823" xml:space="preserve">
<path d="M99.063,50.809h-2.992V7.911h2.228c0.324,0,0.458-0.418,0.193-0.606l-9.266-6.823c-1.111-0.748-2.81-0.748-3.958-0.012  l-7.468,5.39l-7.303-5.377c-1.111-0.748-2.81-0.748-3.959-0.012l-7.468,5.39l-7.303-5.377c-1.111-0.748-2.81-0.748-3.959-0.012  l-7.467,5.39L33.04,0.482c-1.112-0.748-2.81-0.748-3.959-0.012l-7.468,5.39l-7.302-5.377c-1.112-0.748-2.811-0.748-3.959-0.012  L0.678,7.452c-0.23,0.112-0.15,0.459,0.106,0.459h2.723v42.897H0.635c-0.434,0-0.787,0.352-0.787,0.785v0.443  c0,0.434,0.353,0.786,0.787,0.786h18.729h4.784h13.945h4.783h13.946h4.783h13.945h4.783h18.729c0.434,0,0.785-0.353,0.785-0.786  v-0.443C99.849,51.16,99.497,50.809,99.063,50.809z M9.213,13.231h2.215c0.289,0,0.524,0.234,0.524,0.523v1.536  c0,0.29-0.235,0.524-0.524,0.524H9.213c-0.29,0-0.524-0.234-0.524-0.524v-1.536C8.689,13.465,8.923,13.231,9.213,13.231z   M8.689,11.877v-1.535c0-0.29,0.234-0.525,0.524-0.525h2.215c0.289,0,0.524,0.235,0.524,0.525v1.535  c0,0.289-0.235,0.523-0.524,0.523H9.213C8.923,12.4,8.689,12.166,8.689,11.877z M9.213,20.77h2.215c0.289,0,0.524,0.235,0.524,0.525  v1.535c0,0.29-0.235,0.523-0.524,0.523H9.213c-0.29,0-0.524-0.234-0.524-0.523v-1.535C8.689,21.004,8.923,20.77,9.213,20.77z   M9.213,24.183h2.215c0.289,0,0.524,0.235,0.524,0.524v1.536c0,0.289-0.235,0.523-0.524,0.523H9.213  c-0.29,0-0.524-0.234-0.524-0.523v-1.536C8.689,24.418,8.923,24.183,9.213,24.183z M11.989,48.147c0,0.291-0.235,0.524-0.524,0.524  H9.25c-0.29,0-0.524-0.233-0.524-0.524v-1.536c0-0.288,0.234-0.523,0.524-0.523h2.215c0.29,0,0.524,0.235,0.524,0.523V48.147z   M11.989,44.735c0,0.29-0.235,0.523-0.524,0.523H9.25c-0.29,0-0.524-0.233-0.524-0.523v-1.536c0-0.289,0.234-0.524,0.524-0.524  h2.215c0.29,0,0.524,0.235,0.524,0.524V44.735z M11.989,37.195c0,0.291-0.235,0.524-0.524,0.524H9.25  c-0.29,0-0.524-0.233-0.524-0.524V35.66c0-0.289,0.234-0.524,0.524-0.524h2.215c0.29,0,0.524,0.235,0.524,0.524V37.195z   M11.989,33.781c0,0.291-0.235,0.524-0.524,0.524H9.25c-0.29,0-0.524-0.233-0.524-0.524v-1.535c0-0.289,0.234-0.524,0.524-0.524  h2.215c0.29,0,0.524,0.235,0.524,0.524V33.781z M13.238,13.231h2.216c0.29,0,0.524,0.234,0.524,0.523v1.536  c0,0.29-0.235,0.524-0.524,0.524h-2.216c-0.289,0-0.524-0.234-0.524-0.524v-1.536C12.714,13.465,12.949,13.231,13.238,13.231z   M12.714,11.877v-1.535c0-0.29,0.235-0.525,0.524-0.525h2.216c0.29,0,0.524,0.235,0.524,0.525v1.535  c0,0.289-0.235,0.523-0.524,0.523h-2.216C12.949,12.4,12.714,12.166,12.714,11.877z M13.238,20.77h2.216  c0.29,0,0.524,0.235,0.524,0.525v1.535c0,0.29-0.235,0.523-0.524,0.523h-2.216c-0.289,0-0.524-0.234-0.524-0.523v-1.535  C12.714,21.004,12.949,20.77,13.238,20.77z M13.238,24.183h2.216c0.29,0,0.524,0.235,0.524,0.524v1.536  c0,0.289-0.235,0.523-0.524,0.523h-2.216c-0.289,0-0.524-0.234-0.524-0.523v-1.536C12.714,24.418,12.949,24.183,13.238,24.183z   M16.015,48.147c0,0.291-0.235,0.524-0.524,0.524h-2.216c-0.29,0-0.524-0.233-0.524-0.524v-1.536c0-0.288,0.234-0.523,0.524-0.523  h2.216c0.289,0,0.524,0.235,0.524,0.523V48.147z M16.015,44.735c0,0.29-0.235,0.523-0.524,0.523h-2.216  c-0.29,0-0.524-0.233-0.524-0.523v-1.536c0-0.289,0.234-0.524,0.524-0.524h2.216c0.289,0,0.524,0.235,0.524,0.524V44.735z   M16.015,37.195c0,0.291-0.235,0.524-0.524,0.524h-2.216c-0.29,0-0.524-0.233-0.524-0.524V35.66c0-0.289,0.234-0.524,0.524-0.524  h2.216c0.289,0,0.524,0.235,0.524,0.524V37.195z M16.015,33.781c0,0.291-0.235,0.524-0.524,0.524h-2.216  c-0.29,0-0.524-0.233-0.524-0.524v-1.535c0-0.289,0.234-0.524,0.524-0.524h2.216c0.289,0,0.524,0.235,0.524,0.524V33.781z   M19.046,7.937h-1.602l-5.029-3.383L7.385,7.937H5.783c-0.187,0-0.278-0.229-0.141-0.358l6.389-4.652  c0.216-0.202,0.55-0.202,0.766,0l6.39,4.652C19.324,7.707,19.233,7.937,19.046,7.937z M22.235,50.809h-1.081V7.911h1.081V50.809z   M27.942,13.231h2.215c0.29,0,0.525,0.234,0.525,0.523v1.536c0,0.29-0.235,0.524-0.525,0.524h-2.215  c-0.29,0-0.524-0.234-0.524-0.524v-1.536C27.417,13.465,27.652,13.231,27.942,13.231z M27.417,11.877v-1.535  c0-0.29,0.234-0.525,0.524-0.525h2.215c0.29,0,0.525,0.235,0.525,0.525v1.535c0,0.289-0.235,0.523-0.525,0.523h-2.215  C27.652,12.4,27.417,12.166,27.417,11.877z M27.942,20.77h2.215c0.29,0,0.525,0.235,0.525,0.525v1.535  c0,0.29-0.235,0.523-0.525,0.523h-2.215c-0.29,0-0.524-0.234-0.524-0.523v-1.535C27.417,21.004,27.652,20.77,27.942,20.77z   M27.942,24.183h2.215c0.29,0,0.525,0.235,0.525,0.524v1.536c0,0.289-0.235,0.523-0.525,0.523h-2.215  c-0.29,0-0.524-0.234-0.524-0.523v-1.536C27.417,24.418,27.652,24.183,27.942,24.183z M30.718,48.147  c0,0.291-0.235,0.524-0.524,0.524h-2.216c-0.289,0-0.524-0.233-0.524-0.524v-1.536c0-0.288,0.235-0.523,0.524-0.523h2.216  c0.289,0,0.524,0.235,0.524,0.523V48.147z M30.718,44.735c0,0.29-0.235,0.523-0.524,0.523h-2.216c-0.289,0-0.524-0.233-0.524-0.523  v-1.536c0-0.289,0.235-0.524,0.524-0.524h2.216c0.289,0,0.524,0.235,0.524,0.524V44.735z M30.718,37.195  c0,0.291-0.235,0.524-0.524,0.524h-2.216c-0.289,0-0.524-0.233-0.524-0.524V35.66c0-0.289,0.235-0.524,0.524-0.524h2.216  c0.289,0,0.524,0.235,0.524,0.524V37.195z M30.718,33.781c0,0.291-0.235,0.524-0.524,0.524h-2.216c-0.289,0-0.524-0.233-0.524-0.524  v-1.535c0-0.289,0.235-0.524,0.524-0.524h2.216c0.289,0,0.524,0.235,0.524,0.524V33.781z M31.967,13.231h2.215  c0.291,0,0.525,0.234,0.525,0.523v1.536c0,0.29-0.234,0.524-0.525,0.524h-2.215c-0.29,0-0.524-0.234-0.524-0.524v-1.536  C31.443,13.465,31.677,13.231,31.967,13.231z M31.443,11.877v-1.535c0-0.29,0.234-0.525,0.524-0.525h2.215  c0.291,0,0.525,0.235,0.525,0.525v1.535c0,0.289-0.234,0.523-0.525,0.523h-2.215C31.677,12.4,31.443,12.166,31.443,11.877z   M31.967,20.77h2.215c0.291,0,0.525,0.235,0.525,0.525v1.535c0,0.29-0.234,0.523-0.525,0.523h-2.215  c-0.29,0-0.524-0.234-0.524-0.523v-1.535C31.443,21.004,31.677,20.77,31.967,20.77z M31.967,24.183h2.215  c0.291,0,0.525,0.235,0.525,0.524v1.536c0,0.289-0.234,0.523-0.525,0.523h-2.215c-0.29,0-0.524-0.234-0.524-0.523v-1.536  C31.443,24.418,31.677,24.183,31.967,24.183z M34.743,48.147c0,0.291-0.234,0.524-0.524,0.524h-2.216  c-0.289,0-0.523-0.233-0.523-0.524v-1.536c0-0.288,0.235-0.523,0.523-0.523h2.216c0.29,0,0.524,0.235,0.524,0.523V48.147z   M34.743,44.735c0,0.29-0.234,0.523-0.524,0.523h-2.216c-0.289,0-0.523-0.233-0.523-0.523v-1.536c0-0.289,0.235-0.524,0.523-0.524  h2.216c0.29,0,0.524,0.235,0.524,0.524V44.735z M34.743,37.195c0,0.291-0.234,0.524-0.524,0.524h-2.216  c-0.289,0-0.523-0.233-0.523-0.524V35.66c0-0.289,0.235-0.524,0.523-0.524h2.216c0.29,0,0.524,0.235,0.524,0.524V37.195z   M34.743,33.781c0,0.291-0.234,0.524-0.524,0.524h-2.216c-0.289,0-0.523-0.233-0.523-0.524v-1.535c0-0.289,0.235-0.524,0.523-0.524  h2.216c0.29,0,0.524,0.235,0.524,0.524V33.781z M37.775,7.937h-1.602l-5.029-3.383l-5.029,3.383h-1.602  c-0.188,0-0.279-0.229-0.141-0.358l6.39-4.652c0.215-0.202,0.55-0.202,0.766,0l6.39,4.652C38.052,7.707,37.962,7.937,37.775,7.937z   M40.964,50.809h-1.081V7.911h1.081V50.809z M46.671,13.231h2.215c0.29,0,0.524,0.234,0.524,0.523v1.536  c0,0.29-0.235,0.524-0.524,0.524h-2.215c-0.29,0-0.524-0.234-0.524-0.524v-1.536C46.147,13.465,46.381,13.231,46.671,13.231z   M46.147,11.877v-1.535c0-0.29,0.234-0.525,0.524-0.525h2.215c0.29,0,0.524,0.235,0.524,0.525v1.535  c0,0.289-0.235,0.523-0.524,0.523h-2.215C46.381,12.4,46.147,12.166,46.147,11.877z M46.671,20.77h2.215  c0.29,0,0.524,0.235,0.524,0.525v1.535c0,0.29-0.235,0.523-0.524,0.523h-2.215c-0.29,0-0.524-0.234-0.524-0.523v-1.535  C46.147,21.004,46.381,20.77,46.671,20.77z M46.671,24.183h2.215c0.29,0,0.524,0.235,0.524,0.524v1.536  c0,0.289-0.235,0.523-0.524,0.523h-2.215c-0.29,0-0.524-0.234-0.524-0.523v-1.536C46.147,24.418,46.381,24.183,46.671,24.183z   M49.447,48.147c0,0.291-0.235,0.524-0.525,0.524h-2.214c-0.29,0-0.525-0.233-0.525-0.524v-1.536c0-0.288,0.235-0.523,0.525-0.523  h2.214c0.29,0,0.525,0.235,0.525,0.523V48.147z M49.447,44.735c0,0.29-0.235,0.523-0.525,0.523h-2.214  c-0.29,0-0.525-0.233-0.525-0.523v-1.536c0-0.289,0.235-0.524,0.525-0.524h2.214c0.29,0,0.525,0.235,0.525,0.524V44.735z   M49.447,37.195c0,0.291-0.235,0.524-0.525,0.524h-2.214c-0.29,0-0.525-0.233-0.525-0.524V35.66c0-0.289,0.235-0.524,0.525-0.524  h2.214c0.29,0,0.525,0.235,0.525,0.524V37.195z M49.447,33.781c0,0.291-0.235,0.524-0.525,0.524h-2.214  c-0.29,0-0.525-0.233-0.525-0.524v-1.535c0-0.289,0.235-0.524,0.525-0.524h2.214c0.29,0,0.525,0.235,0.525,0.524V33.781z   M50.696,13.231h2.214c0.291,0,0.526,0.234,0.526,0.523v1.536c0,0.29-0.235,0.524-0.526,0.524h-2.214  c-0.289,0-0.524-0.234-0.524-0.524v-1.536C50.172,13.465,50.407,13.231,50.696,13.231z M50.172,11.877v-1.535  c0-0.29,0.235-0.525,0.524-0.525h2.214c0.291,0,0.526,0.235,0.526,0.525v1.535c0,0.289-0.235,0.523-0.526,0.523h-2.214  C50.407,12.4,50.172,12.166,50.172,11.877z M50.696,20.77h2.214c0.291,0,0.526,0.235,0.526,0.525v1.535  c0,0.29-0.235,0.523-0.526,0.523h-2.214c-0.289,0-0.524-0.234-0.524-0.523v-1.535C50.172,21.004,50.407,20.77,50.696,20.77z   M50.696,24.183h2.214c0.291,0,0.526,0.235,0.526,0.524v1.536c0,0.289-0.235,0.523-0.526,0.523h-2.214  c-0.289,0-0.524-0.234-0.524-0.523v-1.536C50.172,24.418,50.407,24.183,50.696,24.183z M53.472,48.147  c0,0.291-0.233,0.524-0.523,0.524h-2.216c-0.289,0-0.523-0.233-0.523-0.524v-1.536c0-0.288,0.235-0.523,0.523-0.523h2.216  c0.29,0,0.523,0.235,0.523,0.523V48.147z M53.472,44.735c0,0.29-0.233,0.523-0.523,0.523h-2.216c-0.289,0-0.523-0.233-0.523-0.523  v-1.536c0-0.289,0.235-0.524,0.523-0.524h2.216c0.29,0,0.523,0.235,0.523,0.524V44.735z M53.472,37.195  c0,0.291-0.233,0.524-0.523,0.524h-2.216c-0.289,0-0.523-0.233-0.523-0.524V35.66c0-0.289,0.235-0.524,0.523-0.524h2.216  c0.29,0,0.523,0.235,0.523,0.524V37.195z M53.472,33.781c0,0.291-0.233,0.524-0.523,0.524h-2.216c-0.289,0-0.523-0.233-0.523-0.524  v-1.535c0-0.289,0.235-0.524,0.523-0.524h2.216c0.29,0,0.523,0.235,0.523,0.524V33.781z M56.504,7.937h-1.602l-5.03-3.383  l-5.029,3.383h-1.603c-0.187,0-0.278-0.229-0.141-0.358l6.389-4.652c0.216-0.202,0.551-0.202,0.767,0l6.389,4.652  C56.781,7.707,56.691,7.937,56.504,7.937z M59.693,50.809h-1.081V7.911h1.081V50.809z M65.399,13.231h2.215  c0.29,0,0.525,0.234,0.525,0.523v1.536c0,0.29-0.235,0.524-0.525,0.524h-2.215c-0.29,0-0.523-0.234-0.523-0.524v-1.536  C64.876,13.465,65.109,13.231,65.399,13.231z M64.876,11.877v-1.535c0-0.29,0.233-0.525,0.523-0.525h2.215  c0.29,0,0.525,0.235,0.525,0.525v1.535c0,0.289-0.235,0.523-0.525,0.523h-2.215C65.109,12.4,64.876,12.166,64.876,11.877z   M65.399,20.77h2.215c0.29,0,0.525,0.235,0.525,0.525v1.535c0,0.29-0.235,0.523-0.525,0.523h-2.215c-0.29,0-0.523-0.234-0.523-0.523  v-1.535C64.876,21.004,65.109,20.77,65.399,20.77z M65.399,24.183h2.215c0.29,0,0.525,0.235,0.525,0.524v1.536  c0,0.289-0.235,0.523-0.525,0.523h-2.215c-0.29,0-0.523-0.234-0.523-0.523v-1.536C64.876,24.418,65.109,24.183,65.399,24.183z   M68.176,48.147c0,0.291-0.235,0.524-0.524,0.524h-2.215c-0.29,0-0.524-0.233-0.524-0.524v-1.536c0-0.288,0.234-0.523,0.524-0.523  h2.215c0.289,0,0.524,0.235,0.524,0.523V48.147z M68.176,44.735c0,0.29-0.235,0.523-0.524,0.523h-2.215  c-0.29,0-0.524-0.233-0.524-0.523v-1.536c0-0.289,0.234-0.524,0.524-0.524h2.215c0.289,0,0.524,0.235,0.524,0.524V44.735z   M68.176,37.195c0,0.291-0.235,0.524-0.524,0.524h-2.215c-0.29,0-0.524-0.233-0.524-0.524V35.66c0-0.289,0.234-0.524,0.524-0.524  h2.215c0.289,0,0.524,0.235,0.524,0.524V37.195z M68.176,33.781c0,0.291-0.235,0.524-0.524,0.524h-2.215  c-0.29,0-0.524-0.233-0.524-0.524v-1.535c0-0.289,0.234-0.524,0.524-0.524h2.215c0.289,0,0.524,0.235,0.524,0.524V33.781z   M69.425,13.231h2.217c0.288,0,0.523,0.234,0.523,0.523v1.536c0,0.29-0.235,0.524-0.523,0.524h-2.217  c-0.288,0-0.524-0.234-0.524-0.524v-1.536C68.9,13.465,69.137,13.231,69.425,13.231z M68.9,11.877v-1.535  c0-0.29,0.236-0.525,0.524-0.525h2.217c0.288,0,0.523,0.235,0.523,0.525v1.535c0,0.289-0.235,0.523-0.523,0.523h-2.217  C69.137,12.4,68.9,12.166,68.9,11.877z M69.425,20.77h2.217c0.288,0,0.523,0.235,0.523,0.525v1.535c0,0.29-0.235,0.523-0.523,0.523  h-2.217c-0.288,0-0.524-0.234-0.524-0.523v-1.535C68.9,21.004,69.137,20.77,69.425,20.77z M69.425,24.183h2.217  c0.288,0,0.523,0.235,0.523,0.524v1.536c0,0.289-0.235,0.523-0.523,0.523h-2.217c-0.288,0-0.524-0.234-0.524-0.523v-1.536  C68.9,24.418,69.137,24.183,69.425,24.183z M72.202,48.147c0,0.291-0.235,0.524-0.525,0.524h-2.215c-0.29,0-0.524-0.233-0.524-0.524  v-1.536c0-0.288,0.234-0.523,0.524-0.523h2.215c0.29,0,0.525,0.235,0.525,0.523V48.147z M72.202,44.735  c0,0.29-0.235,0.523-0.525,0.523h-2.215c-0.29,0-0.524-0.233-0.524-0.523v-1.536c0-0.289,0.234-0.524,0.524-0.524h2.215  c0.29,0,0.525,0.235,0.525,0.524V44.735z M72.202,37.195c0,0.291-0.235,0.524-0.525,0.524h-2.215c-0.29,0-0.524-0.233-0.524-0.524  V35.66c0-0.289,0.234-0.524,0.524-0.524h2.215c0.29,0,0.525,0.235,0.525,0.524V37.195z M72.202,33.781  c0,0.291-0.235,0.524-0.525,0.524h-2.215c-0.29,0-0.524-0.233-0.524-0.524v-1.535c0-0.289,0.234-0.524,0.524-0.524h2.215  c0.29,0,0.525,0.235,0.525,0.524V33.781z M75.232,7.937h-1.602l-5.029-3.383l-5.029,3.383H61.97c-0.188,0-0.277-0.229-0.141-0.358  l6.389-4.652c0.217-0.202,0.551-0.202,0.766,0l6.39,4.652C75.511,7.707,75.42,7.937,75.232,7.937z M78.422,50.809h-1.08V7.911h1.08  V50.809z M84.128,13.231h2.216c0.289,0,0.525,0.234,0.525,0.523v1.536c0,0.29-0.236,0.524-0.525,0.524h-2.216  c-0.289,0-0.523-0.234-0.523-0.524v-1.536C83.604,13.465,83.839,13.231,84.128,13.231z M83.604,11.877v-1.535  c0-0.29,0.234-0.525,0.523-0.525h2.216c0.289,0,0.525,0.235,0.525,0.525v1.535c0,0.289-0.236,0.523-0.525,0.523h-2.216  C83.839,12.4,83.604,12.166,83.604,11.877z M84.128,20.77h2.216c0.289,0,0.525,0.235,0.525,0.525v1.535  c0,0.29-0.236,0.523-0.525,0.523h-2.216c-0.289,0-0.523-0.234-0.523-0.523v-1.535C83.604,21.004,83.839,20.77,84.128,20.77z   M84.128,24.183h2.216c0.289,0,0.525,0.235,0.525,0.524v1.536c0,0.289-0.236,0.523-0.525,0.523h-2.216  c-0.289,0-0.523-0.234-0.523-0.523v-1.536C83.604,24.418,83.839,24.183,84.128,24.183z M86.905,48.147  c0,0.291-0.235,0.524-0.525,0.524h-2.215c-0.29,0-0.523-0.233-0.523-0.524v-1.536c0-0.288,0.233-0.523,0.523-0.523h2.215  c0.29,0,0.525,0.235,0.525,0.523V48.147z M86.905,44.735c0,0.29-0.235,0.523-0.525,0.523h-2.215c-0.29,0-0.523-0.233-0.523-0.523  v-1.536c0-0.289,0.233-0.524,0.523-0.524h2.215c0.29,0,0.525,0.235,0.525,0.524V44.735z M86.905,37.195  c0,0.291-0.235,0.524-0.525,0.524h-2.215c-0.29,0-0.523-0.233-0.523-0.524V35.66c0-0.289,0.233-0.524,0.523-0.524h2.215  c0.29,0,0.525,0.235,0.525,0.524V37.195z M86.905,33.781c0,0.291-0.235,0.524-0.525,0.524h-2.215c-0.29,0-0.523-0.233-0.523-0.524  v-1.535c0-0.289,0.233-0.524,0.523-0.524h2.215c0.29,0,0.525,0.235,0.525,0.524V33.781z M88.154,13.231h2.216  c0.29,0,0.523,0.234,0.523,0.523v1.536c0,0.29-0.233,0.524-0.523,0.524h-2.216c-0.289,0-0.525-0.234-0.525-0.524v-1.536  C87.629,13.465,87.865,13.231,88.154,13.231z M87.629,11.877v-1.535c0-0.29,0.236-0.525,0.525-0.525h2.216  c0.29,0,0.523,0.235,0.523,0.525v1.535c0,0.289-0.233,0.523-0.523,0.523h-2.216C87.865,12.4,87.629,12.166,87.629,11.877z   M88.154,20.77h2.216c0.29,0,0.523,0.235,0.523,0.525v1.535c0,0.29-0.233,0.523-0.523,0.523h-2.216  c-0.289,0-0.525-0.234-0.525-0.523v-1.535C87.629,21.004,87.865,20.77,88.154,20.77z M88.154,24.183h2.216  c0.29,0,0.523,0.235,0.523,0.524v1.536c0,0.289-0.233,0.523-0.523,0.523h-2.216c-0.289,0-0.525-0.234-0.525-0.523v-1.536  C87.629,24.418,87.865,24.183,88.154,24.183z M90.931,48.147c0,0.291-0.234,0.524-0.524,0.524H88.19  c-0.289,0-0.524-0.233-0.524-0.524v-1.536c0-0.288,0.235-0.523,0.524-0.523h2.216c0.29,0,0.524,0.235,0.524,0.523V48.147z   M90.931,44.735c0,0.29-0.234,0.523-0.524,0.523H88.19c-0.289,0-0.524-0.233-0.524-0.523v-1.536c0-0.289,0.235-0.524,0.524-0.524  h2.216c0.29,0,0.524,0.235,0.524,0.524V44.735z M90.931,37.195c0,0.291-0.234,0.524-0.524,0.524H88.19  c-0.289,0-0.524-0.233-0.524-0.524V35.66c0-0.289,0.235-0.524,0.524-0.524h2.216c0.29,0,0.524,0.235,0.524,0.524V37.195z   M90.931,33.781c0,0.291-0.234,0.524-0.524,0.524H88.19c-0.289,0-0.524-0.233-0.524-0.524v-1.535c0-0.289,0.235-0.524,0.524-0.524  h2.216c0.29,0,0.524,0.235,0.524,0.524V33.781z M93.961,7.937H92.36l-5.03-3.383l-5.029,3.383h-1.602  c-0.188,0-0.278-0.229-0.142-0.358l6.39-4.652c0.216-0.202,0.55-0.202,0.766,0l6.39,4.652C94.239,7.707,94.148,7.937,93.961,7.937z"/>
</svg>