<svg xmlns="http://www.w3.org/2000/svg" xmlns:xlink="http://www.w3.org/1999/xlink" version="1.1" id="Layer_1" x="0px" y="0px" width="100px" height="100px" viewBox="0 0 100 100" enable-background="new 0 0 100 100" xml:space="preserve">
<path fill-rule="evenodd" clip-rule="evenodd" d="M94.327,26.125c-3.101-6.074-9.724-12.708-19.292-10.718  c-2.088,0.434-3.841,1.282-5.416,2.257c-1.502,0.928-2.723,2.047-4.287,3.158c0.059-1.708,0.297-3.275,0.791-4.964  c0.327-1.121,1.536-3.478,0.902-4.625c-0.634-1.145-4.927-0.519-6.318-0.452c-2.41,0.115-4.845,0.194-6.883,0.113  c-4.799-0.192-8.207-1.444-11.168-2.933c-3.219-1.618-5.749-3.963-8.688-5.303C30.842,1.233,27.19,0.04,22.46,0.064  C15.394,0.101,12.056,3.838,8.922,8.188C8.12,9.3,6.72,11.016,7.342,12.023c0.551,0.893,1.682,0.263,2.821,0.79  c1.187,0.55,2.246,2.921,2.933,4.513c2.182,5.055,3.455,13.498,1.015,18.615c-1.059,2.22-2.772,4.205-4.174,6.205  c-1.45,2.069-2.807,4.154-3.948,6.432c-2.321,4.631-3.542,11.208-2.82,17.601c1.418,12.59,7.666,19.225,16.359,25.382  c-2.901,5.383,5.102,6.861,8.913,7.448c8.688,1.337,17.479,1.166,25.835-0.113c2.749-0.42,8.751-2.161,9.138-4.738  c0.175-1.148-0.802-2.242-0.563-3.385c0.179-0.856,2.406-2.17,3.272-2.935c2.433-2.148,4.015-4.153,5.865-6.542  c0.754-0.974,1.782-3.006,2.596-3.725c0.622-0.548,1.648-0.914,2.368-1.353c2.525-1.539,4.394-3.138,6.319-5.19  c7.362-7.85,13.923-17.057,13.764-32.267C96.984,33.891,96.163,29.723,94.327,26.125z M89.589,41.244  c-0.401,3.052-1.666,5.979-3.046,8.236c-1.797,2.935-4.581,6.318-9.025,4.963c-0.782-5.94-4.462-9.973-7.109-14.553  c-0.941-1.632-2.276-3.643-2.482-5.415c-0.866-7.544,4.02-12.801,10.606-13.314c2.817-0.218,5.05,0.829,6.544,2.257  C88.755,26.938,90.5,34.313,89.589,41.244z"/>
</svg>