<svg xmlns="http://www.w3.org/2000/svg" xmlns:xlink="http://www.w3.org/1999/xlink" version="1.1" id="Layer_1" x="0px" y="0px" width="100px" height="100px" viewBox="-346 256 100 100" enable-background="new -346 256 100 100" xml:space="preserve">
<g>
	<path d="M-280.271,304.949h-12.42c-0.3,0.005-1.805,0.106-1.805,1.804v38.484h16.028v-38.484   C-278.471,306.454-278.573,304.949-280.271,304.949z M-291.115,317.93v-6.794c0-2.367,2.364-2.367,2.364-2.367h4.514   c2.365,0,2.365,2.367,2.365,2.367v6.794c0,2.366-2.365,2.366-2.365,2.366h-4.514C-291.115,320.296-291.115,317.93-291.115,317.93z    M-283.105,325.125c-0.687,0-1.244-0.558-1.244-1.244c0-0.688,0.558-1.245,1.244-1.245c0.688,0,1.245,0.558,1.245,1.245   C-281.86,324.567-282.417,325.125-283.105,325.125z"/>
	<rect x="-322.886" y="297.92" width="44.023" height="2.631"/>
	<path d="M-249.299,340.505v-6.217h2.041v-5.611h-3.63h-0.227l0.023,11.828h-1.995v-4.14h-4.141v-7.492h-2.146l0.365-4.732   c0,0-0.016-0.162-0.049-0.455h-9.521c-2.365,0-2.365-2.366-2.365-2.366v-9.357c0-2.365,2.365-2.365,2.365-2.365h6.924   c-1.12-3.993-2.573-7.331-4.621-8.916c-3.91-3.035-8.279-2.76-8.279-2.76h-3.184v3.757h-45.148v38.039h-1.125V297.92h-4.168   c0,0-5.89-0.686-10.085,4.226c-5.126,6.002-7.083,17.707-6.251,26.007c0.619,6.159,4.474,13.534,4.474,13.534H-346v3.55h3.422   v3.139h2.907v-3.139h21.489c-0.062,0.432-0.096,0.873-0.096,1.321c0,5.146,4.172,9.318,9.318,9.318   c5.147,0,9.319-4.172,9.319-9.318c0-0.448-0.035-0.89-0.095-1.321h4.115v-38.484c0-2.315,1.917-2.929,2.929-2.929h12.42   c2.318,0,2.928,1.916,2.928,2.929v38.484h13.452h1.206h11.604l0.02,10.763h1.764v-10.763h3.311v-4.732H-249.299z M-308.959,351.192   c-2.56,0-4.633-2.074-4.633-4.634s2.073-4.633,4.633-4.633c2.559,0,4.633,2.073,4.633,4.633S-306.4,351.192-308.959,351.192z    M-299.789,318.097h-13.012c-2.366,0-2.366-2.17-2.366-2.17c0-2.169,2.366-2.169,2.366-2.169h13.012   c2.365,0,2.365,2.169,2.365,2.169C-297.424,318.097-299.789,318.097-299.789,318.097z M-299.789,311.326h-13.012   c-2.366,0-2.366-2.168-2.366-2.168c0-2.169,2.366-2.169,2.366-2.169h13.012c2.365,0,2.365,2.169,2.365,2.169   C-297.424,311.326-299.789,311.326-299.789,311.326z"/>
</g>
</svg>