<svg xmlns="http://www.w3.org/2000/svg" xmlns:xlink="http://www.w3.org/1999/xlink" version="1.1" id="Layer_1" x="0px" y="0px" width="100px" height="30.374px" viewBox="0 0 100 30.374" enable-background="new 0 0 100 30.374" xml:space="preserve">
<g>
	<path d="M94.85,1.121C94.85,0.502,94.348,0,93.729,0h-4.833c-0.62,0-1.122,0.502-1.122,1.121v2.154L94.85,8.29V1.121z"/>
	<path d="M12.958,16.227h-1.753c-0.229,0-0.414,0.185-0.414,0.416v1.213c0,0.23,0.186,0.415,0.414,0.415h1.753   c0.229,0,0.414-0.185,0.414-0.415v-1.213C13.372,16.412,13.187,16.227,12.958,16.227z"/>
	<path d="M16.637,16.227h-1.753c-0.228,0-0.414,0.185-0.414,0.416v1.213c0,0.23,0.187,0.415,0.414,0.415h1.753   c0.229,0,0.414-0.185,0.414-0.415v-1.213C17.051,16.412,16.865,16.227,16.637,16.227z"/>
	<path d="M20.315,16.227h-1.753c-0.229,0-0.414,0.185-0.414,0.416v1.213c0,0.23,0.186,0.415,0.414,0.415h1.753   c0.229,0,0.414-0.185,0.414-0.415v-1.213C20.729,16.412,20.545,16.227,20.315,16.227z"/>
	<path d="M22.242,18.271h1.752c0.229,0,0.414-0.185,0.414-0.415v-1.213c0-0.23-0.186-0.416-0.414-0.416h-1.752   c-0.23,0-0.415,0.185-0.415,0.416v1.213C21.827,18.086,22.012,18.271,22.242,18.271z"/>
	<path d="M98.882,27.502h-4.264V13.205h3.174c0.463,0,0.653-0.596,0.274-0.864L84.42,2.504c-0.792-0.561-1.554-0.863-2.714-0.863   c-1.159,0-2.52,0.935-2.52,0.935H20.266c0,0-1.241-0.935-2.652-0.935c-1.412,0-1.857,0.506-2.653,0.965L1.182,12.551   c-0.329,0.16-0.215,0.654,0.15,0.654h3.877v14.298H1.12c-0.618,0-1.12,0.502-1.12,1.121v0.63c0,0.619,0.502,1.121,1.12,1.121   h97.762c0.618,0,1.118-0.502,1.118-1.121v-0.63C100,28.004,99.5,27.502,98.882,27.502z M25.788,27.502H9.041   c0-3.767,0-7.536,0-11.306c1.331-1.417,2.937-2.407,4.649-2.992c1.035-0.354,2.107-0.554,3.189-0.604   c0.357-0.016,0.714-0.016,1.071,0c1.081,0.05,2.154,0.25,3.188,0.604c1.713,0.585,3.317,1.576,4.648,2.992   C25.788,19.967,25.788,23.736,25.788,27.502z M27.03,13.241h-2.281l-7.163-4.818l-7.163,4.818H8.141   c-0.268,0-0.396-0.327-0.201-0.51l9.101-6.626c0.307-0.287,0.784-0.287,1.091,0l9.101,6.626   C27.426,12.914,27.298,13.241,27.03,13.241z M35.788,22.138c0,0.413-0.334,0.747-0.747,0.747h-3.154   c-0.413,0-0.747-0.334-0.747-0.747V19.95c0-0.412,0.334-0.746,0.747-0.746h3.154c0.413,0,0.747,0.334,0.747,0.746V22.138z    M35.788,17.275c0,0.413-0.334,0.747-0.747,0.747h-3.154c-0.413,0-0.747-0.333-0.747-0.747v-2.187c0-0.412,0.334-0.747,0.747-0.747   h3.154c0.413,0,0.747,0.335,0.747,0.747V17.275z M41.522,22.138c0,0.413-0.335,0.747-0.747,0.747h-3.156   c-0.412,0-0.746-0.334-0.746-0.747V19.95c0-0.412,0.334-0.746,0.746-0.746h3.156c0.412,0,0.747,0.334,0.747,0.746V22.138z    M41.522,17.275c0,0.413-0.335,0.747-0.747,0.747h-3.156c-0.412,0-0.746-0.333-0.746-0.747v-2.187c0-0.412,0.334-0.747,0.746-0.747   h3.156c0.412,0,0.747,0.335,0.747,0.747V17.275z M52.325,22.138c0,0.413-0.335,0.747-0.747,0.747h-3.156   c-0.412,0-0.746-0.334-0.746-0.747V19.95c0-0.412,0.334-0.746,0.746-0.746h3.156c0.412,0,0.747,0.334,0.747,0.746V22.138z    M52.325,17.275c0,0.413-0.335,0.747-0.747,0.747h-3.156c-0.412,0-0.746-0.333-0.746-0.747v-2.187c0-0.412,0.334-0.747,0.746-0.747   h3.156c0.412,0,0.747,0.335,0.747,0.747V17.275z M58.059,22.138c0,0.413-0.334,0.747-0.748,0.747h-3.155   c-0.412,0-0.746-0.334-0.746-0.747V19.95c0-0.412,0.334-0.746,0.746-0.746h3.155c0.414,0,0.748,0.334,0.748,0.746V22.138z    M58.059,17.275c0,0.413-0.334,0.747-0.748,0.747h-3.155c-0.412,0-0.746-0.333-0.746-0.747v-2.187c0-0.412,0.334-0.747,0.746-0.747   h3.155c0.414,0,0.748,0.335,0.748,0.747V17.275z M69.911,27.548h-6.628c0-3.867,0-7.734,0-11.602c1.795-1.914,4.833-1.914,6.628,0   C69.911,19.813,69.911,23.681,69.911,27.548z M81.965,22.138c0,0.413-0.335,0.747-0.747,0.747h-3.155   c-0.412,0-0.746-0.334-0.746-0.747V19.95c0-0.412,0.334-0.746,0.746-0.746h3.155c0.412,0,0.747,0.334,0.747,0.746V22.138z    M81.965,17.275c0,0.413-0.335,0.747-0.747,0.747h-3.155c-0.412,0-0.746-0.333-0.746-0.747v-2.187c0-0.412,0.334-0.747,0.746-0.747   h3.155c0.412,0,0.747,0.335,0.747,0.747V17.275z M87.699,22.138c0,0.413-0.335,0.747-0.748,0.747h-3.155   c-0.412,0-0.746-0.334-0.746-0.747V19.95c0-0.412,0.334-0.746,0.746-0.746h3.155c0.413,0,0.748,0.334,0.748,0.746V22.138z    M87.699,17.275c0,0.413-0.335,0.747-0.748,0.747h-3.155c-0.412,0-0.746-0.333-0.746-0.747v-2.187c0-0.412,0.334-0.747,0.746-0.747   h3.155c0.413,0,0.748,0.335,0.748,0.747V17.275z M91.928,13.241h-2.282l-7.163-4.818l-7.164,4.818h-2.283   c-0.266,0-0.396-0.327-0.198-0.51l9.1-6.626c0.307-0.287,0.783-0.287,1.09,0l9.102,6.626   C92.322,12.914,92.193,13.241,91.928,13.241z"/>
</g>
</svg>