<svg xmlns="http://www.w3.org/2000/svg" xmlns:xlink="http://www.w3.org/1999/xlink" version="1.1" id="Layer_1" x="0px" y="0px" width="100px" height="41.039px" viewBox="0 0 100 41.039" enable-background="new 0 0 100 41.039" xml:space="preserve">
<g>
	<path fill="#000000" d="M45.295,1.626c0-0.526-0.428-0.953-0.953-0.953h-4.11c-0.527,0-0.954,0.427-0.954,0.953v1.147l6.017,4.683   V1.626z"/>
	<path fill="#000000" d="M61.346,1.626c0-0.526-0.427-0.953-0.953-0.953h-4.11c-0.525,0-0.953,0.427-0.953,0.953v5.831l6.017-4.683   V1.626z"/>
	<path fill="#000000" d="M99.326,38.598h-3.478V26.439h3.297c0.311,0,0.408-0.419,0.128-0.556l-8.371-5.109   c-0.751-0.366-1.576-0.556-2.412-0.556h-2.1v-1.511h4.815c0.485,0,0.682-0.626,0.282-0.903L90.61,17.2L68.873,0.365   c-0.783-0.542-1.828-0.542-2.612,0l-15.982,12.36L34.296,0.365c-0.784-0.542-1.829-0.542-2.613,0L9.946,17.2l-0.877,0.605   c-0.4,0.276-0.205,0.903,0.281,0.903h4.816v1.511h-2.1c-0.835,0-1.661,0.19-2.412,0.556l-8.372,5.109   c-0.28,0.136-0.183,0.556,0.128,0.556h3.297v12.159H1.23c-0.525,0-0.952,0.426-0.952,0.952v0.535c0,0.526,0.433,0.953,0.953,0.953   h33.583h15.464h15.465c0,0,33.118,0,33.682,0c0.442,0,0.854-0.427,0.854-0.953V39.55C100.278,39.024,99.852,38.598,99.326,38.598z    M68.834,14.06l5.573-4.409c0.188-0.176,0.479-0.176,0.669,0l5.572,4.409c0.119,0.111,0.04,0.312-0.123,0.312h-1.397l-4.387-3.301   l-4.387,3.301h-1.397C68.794,14.372,68.715,14.171,68.834,14.06z M77.447,17.299h-1.933c-0.252,0-0.456-0.205-0.456-0.458v-1.339   c0-0.253,0.204-0.458,0.456-0.458h1.933c0.253,0,0.457,0.205,0.457,0.458v1.339C77.904,17.095,77.7,17.299,77.447,17.299z    M77.904,18.48v1.339c0,0.252-0.204,0.457-0.457,0.457h-1.933c-0.252,0-0.456-0.205-0.456-0.457V18.48   c0-0.252,0.204-0.457,0.456-0.457h1.933C77.7,18.023,77.904,18.228,77.904,18.48z M73.937,17.299h-1.933   c-0.252,0-0.458-0.205-0.458-0.458v-1.339c0-0.253,0.206-0.458,0.458-0.458h1.933c0.253,0,0.457,0.205,0.457,0.458v1.339   C74.394,17.095,74.189,17.299,73.937,17.299z M74.394,18.48v1.339c0,0.252-0.204,0.457-0.457,0.457h-1.933   c-0.252,0-0.458-0.205-0.458-0.457V18.48c0-0.252,0.206-0.457,0.458-0.457h1.933C74.189,18.023,74.394,18.228,74.394,18.48z    M19.908,14.06l5.573-4.409c0.188-0.176,0.48-0.176,0.668,0l5.573,4.409c0.119,0.111,0.041,0.312-0.123,0.312h-1.397l-4.387-3.301   l-4.387,3.301h-1.397C19.868,14.372,19.789,14.171,19.908,14.06z M28.553,17.299H26.62c-0.252,0-0.457-0.205-0.457-0.458v-1.339   c0-0.253,0.204-0.458,0.457-0.458h1.933c0.252,0,0.458,0.205,0.458,0.458v1.339C29.01,17.095,28.805,17.299,28.553,17.299z    M29.01,18.48v1.339c0,0.252-0.205,0.457-0.458,0.457H26.62c-0.252,0-0.457-0.205-0.457-0.457V18.48   c0-0.252,0.204-0.457,0.457-0.457h1.933C28.805,18.023,29.01,18.228,29.01,18.48z M25.042,17.299h-1.932   c-0.253,0-0.458-0.205-0.458-0.458v-1.339c0-0.253,0.205-0.458,0.458-0.458h1.932c0.252,0,0.458,0.205,0.458,0.458v1.339   C25.499,17.095,25.294,17.299,25.042,17.299z M25.499,18.48v1.339c0,0.252-0.205,0.457-0.458,0.457h-1.932   c-0.253,0-0.458-0.205-0.458-0.457V18.48c0-0.252,0.205-0.457,0.458-0.457h1.932C25.294,18.023,25.499,18.228,25.499,18.48z    M23.268,38.598H9.028c0-3.205,0-6.409,0-9.614c1.131-1.206,2.496-2.048,3.953-2.545c0.88-0.301,1.792-0.471,2.712-0.514   c0.304-0.014,0.607-0.014,0.911,0c0.919,0.043,1.831,0.212,2.711,0.514c1.457,0.497,2.821,1.34,3.953,2.545   C23.268,32.189,23.268,35.394,23.268,38.598z M38.969,38.598h-3.625H24.946c0-3.205,0-6.409,0-9.614   c1.131-1.206,2.496-2.048,3.953-2.545c0.879-0.301,1.792-0.471,2.712-0.514h-0.265c0.304-0.014,0.872-0.014,1.176,0   c0.919,0.043,1.832,0.212,2.711,0.514c1.366,0.466,2.648,1.241,3.736,2.328V38.598z M39.825,19.819   c0,0.252-0.205,0.457-0.458,0.457h-1.932c-0.253,0-0.458-0.205-0.458-0.457V18.48c0-0.252,0.205-0.457,0.458-0.457h1.932   c0.252,0,0.458,0.205,0.458,0.457V19.819z M39.825,16.842c0,0.253-0.205,0.458-0.458,0.458h-1.932   c-0.253,0-0.458-0.205-0.458-0.458v-1.339c0-0.253,0.205-0.458,0.458-0.458h1.932c0.252,0,0.458,0.205,0.458,0.458V16.842z    M40.489,19.819V18.48c0-0.252,0.205-0.457,0.457-0.457h1.933c0.253,0,0.458,0.205,0.458,0.457v1.339   c0,0.252-0.205,0.457-0.458,0.457h-1.933C40.694,20.276,40.489,20.072,40.489,19.819z M40.489,16.842v-1.339   c0-0.253,0.205-0.458,0.457-0.458h1.933c0.253,0,0.458,0.205,0.458,0.458v1.339c0,0.253-0.205,0.458-0.458,0.458h-1.933   C40.694,17.299,40.489,17.095,40.489,16.842z M46.065,38.598h-5.324v-9.924c0.665-0.378,1.603-0.624,2.662-0.632   c1.06,0.008,1.998,0.253,2.662,0.632V38.598z M45.926,14.372h-1.397l-4.387-3.301l-4.387,3.301h-1.397   c-0.164,0-0.243-0.201-0.123-0.312l5.573-4.409c0.188-0.176,0.48-0.176,0.668,0l5.573,4.409   C46.168,14.171,46.089,14.372,45.926,14.372z M52.917,38.598h-2.639h-2.639v-9.924c0.659-0.375,1.589-0.62,2.639-0.631   c1.05,0.011,1.979,0.255,2.639,0.631V38.598z M59.815,38.598h-5.324v-9.924c0.664-0.378,1.603-0.624,2.662-0.632   c1.06,0.008,1.998,0.253,2.662,0.632V38.598z M60.067,19.819c0,0.252-0.204,0.457-0.457,0.457h-1.933   c-0.252,0-0.458-0.205-0.458-0.457V18.48c0-0.252,0.206-0.457,0.458-0.457h1.933c0.253,0,0.457,0.205,0.457,0.457V19.819z    M60.067,16.842c0,0.253-0.204,0.458-0.457,0.458h-1.933c-0.252,0-0.458-0.205-0.458-0.458v-1.339c0-0.253,0.206-0.458,0.458-0.458   h1.933c0.253,0,0.457,0.205,0.457,0.458V16.842z M56.028,14.372h-1.397c-0.163,0-0.242-0.201-0.123-0.312l5.573-4.409   c0.188-0.176,0.48-0.176,0.668,0l5.573,4.409c0.119,0.111,0.041,0.312-0.124,0.312h-1.396l-4.387-3.301L56.028,14.372z    M63.578,15.503v1.339c0,0.253-0.204,0.458-0.457,0.458h-1.933c-0.252,0-0.457-0.205-0.457-0.458v-1.339   c0-0.253,0.205-0.458,0.457-0.458h1.933C63.374,15.045,63.578,15.25,63.578,15.503z M60.731,19.819V18.48   c0-0.252,0.205-0.457,0.457-0.457h1.933c0.253,0,0.457,0.205,0.457,0.457v1.339c0,0.252-0.204,0.457-0.457,0.457h-1.933   C60.937,20.276,60.731,20.072,60.731,19.819z M75.611,38.598H65.212h-3.624v-9.831c1.087-1.087,2.37-1.862,3.736-2.328   c0.879-0.301,1.791-0.471,2.71-0.514c0.305-0.014,0.873-0.014,1.178,0h-0.266c0.92,0.043,1.832,0.212,2.712,0.514   c1.457,0.497,2.82,1.34,3.953,2.545C75.611,32.189,75.611,35.394,75.611,38.598z M91.529,38.598h-14.24c0-3.205,0-6.409,0-9.614   c1.131-1.206,2.496-2.048,3.952-2.545c0.88-0.301,1.792-0.471,2.712-0.514c0.304-0.014,0.607-0.014,0.911,0   c0.92,0.043,1.832,0.212,2.712,0.514c1.456,0.497,2.821,1.34,3.953,2.545C91.529,32.189,91.529,35.394,91.529,38.598z"/>
	<path fill="#000000" d="M28.092,29.003h-1.49c-0.194,0-0.353,0.157-0.353,0.353v1.032c0,0.195,0.159,0.353,0.353,0.353h1.49   c0.195,0,0.353-0.158,0.353-0.353v-1.032C28.444,29.16,28.287,29.003,28.092,29.003z"/>
	<path fill="#000000" d="M31.22,29.003h-1.49c-0.195,0-0.353,0.157-0.353,0.353v1.032c0,0.195,0.158,0.353,0.353,0.353h1.49   c0.195,0,0.353-0.158,0.353-0.353v-1.032C31.573,29.16,31.415,29.003,31.22,29.003z"/>
	<path fill="#000000" d="M34.349,29.003h-1.491c-0.195,0-0.353,0.157-0.353,0.353v1.032c0,0.195,0.158,0.353,0.353,0.353h1.491   c0.194,0,0.352-0.158,0.352-0.353v-1.032C34.7,29.16,34.543,29.003,34.349,29.003z"/>
	<path fill="#000000" d="M35.986,30.741h1.49c0.195,0,0.352-0.158,0.352-0.353v-1.032c0-0.196-0.157-0.353-0.352-0.353h-1.49   c-0.195,0-0.353,0.157-0.353,0.353v1.032C35.633,30.583,35.792,30.741,35.986,30.741z"/>
	<path fill="#000000" d="M12.208,29.003h-1.49c-0.195,0-0.353,0.157-0.353,0.353v1.032c0,0.195,0.158,0.353,0.353,0.353h1.49   c0.194,0,0.352-0.158,0.352-0.353v-1.032C12.56,29.16,12.401,29.003,12.208,29.003z"/>
	<path fill="#000000" d="M15.335,29.003h-1.49c-0.194,0-0.353,0.157-0.353,0.353v1.032c0,0.195,0.158,0.353,0.353,0.353h1.49   c0.195,0,0.353-0.158,0.353-0.353v-1.032C15.688,29.16,15.53,29.003,15.335,29.003z"/>
	<path fill="#000000" d="M18.463,29.003h-1.49c-0.195,0-0.353,0.157-0.353,0.353v1.032c0,0.195,0.158,0.353,0.353,0.353h1.49   c0.194,0,0.353-0.158,0.353-0.353v-1.032C18.816,29.16,18.658,29.003,18.463,29.003z"/>
	<path fill="#000000" d="M20.102,30.741h1.49c0.195,0,0.353-0.158,0.353-0.353v-1.032c0-0.196-0.157-0.353-0.353-0.353h-1.49   c-0.195,0-0.353,0.157-0.353,0.353v1.032C19.749,30.583,19.906,30.741,20.102,30.741z"/>
	<path fill="#000000" d="M64.537,29.003h-1.489c-0.194,0-0.354,0.157-0.354,0.353v1.032c0,0.195,0.159,0.353,0.354,0.353h1.489   c0.194,0,0.354-0.158,0.354-0.353v-1.032C64.891,29.16,64.731,29.003,64.537,29.003z"/>
	<path fill="#000000" d="M67.665,29.003h-1.49c-0.193,0-0.352,0.157-0.352,0.353v1.032c0,0.195,0.158,0.353,0.352,0.353h1.49   c0.195,0,0.353-0.158,0.353-0.353v-1.032C68.018,29.16,67.86,29.003,67.665,29.003z"/>
	<path fill="#000000" d="M70.794,29.003h-1.49c-0.195,0-0.353,0.157-0.353,0.353v1.032c0,0.195,0.157,0.353,0.353,0.353h1.49   c0.194,0,0.353-0.158,0.353-0.353v-1.032C71.146,29.16,70.988,29.003,70.794,29.003z"/>
	<path fill="#000000" d="M72.432,30.741h1.49c0.195,0,0.353-0.158,0.353-0.353v-1.032c0-0.196-0.157-0.353-0.353-0.353h-1.49   c-0.194,0-0.354,0.157-0.354,0.353v1.032C72.078,30.583,72.237,30.741,72.432,30.741z"/>
	<path fill="#000000" d="M80.456,29.003h-1.49c-0.195,0-0.354,0.157-0.354,0.353v1.032c0,0.195,0.158,0.353,0.354,0.353h1.49   c0.194,0,0.352-0.158,0.352-0.353v-1.032C80.808,29.16,80.65,29.003,80.456,29.003z"/>
	<path fill="#000000" d="M83.584,29.003h-1.49c-0.194,0-0.353,0.157-0.353,0.353v1.032c0,0.195,0.158,0.353,0.353,0.353h1.49   c0.194,0,0.353-0.158,0.353-0.353v-1.032C83.937,29.16,83.778,29.003,83.584,29.003z"/>
	<path fill="#000000" d="M86.712,29.003h-1.49c-0.194,0-0.353,0.157-0.353,0.353v1.032c0,0.195,0.158,0.353,0.353,0.353h1.49   c0.194,0,0.353-0.158,0.353-0.353v-1.032C87.064,29.16,86.906,29.003,86.712,29.003z"/>
	<path fill="#000000" d="M88.351,30.741h1.489c0.194,0,0.353-0.158,0.353-0.353v-1.032c0-0.196-0.158-0.353-0.353-0.353h-1.489   c-0.196,0-0.354,0.157-0.354,0.353v1.032C87.997,30.583,88.154,30.741,88.351,30.741z"/>
</g>
</svg>