<svg xmlns="http://www.w3.org/2000/svg" xmlns:xlink="http://www.w3.org/1999/xlink" version="1.1" id="Layer_1" x="0px" y="0px" width="100px" height="100px" viewBox="-346 256 100 100" enable-background="new -346 256 100 100" xml:space="preserve">
<path fill="#000000" d="M-263.271,327.167v-17.548h-2.15v-7.707h6.757v-11.443h-6.757v-31.51h5.38v-2.917h-5.38V256h-3.198v6.069  h-53.098V256h-3.198v0.042h-5.379v2.917h5.379v31.51h-6.757v11.443h6.757v7.707h-2.136v17.548h-4.45v26.181  c0,1.396,1.131,2.529,2.529,2.529h4.602c1.398,0,2.529-1.133,2.529-2.529v-9.106h2.481v9.106c0,1.396,1.133,2.529,2.529,2.529h4.603  c1.396,0,2.529-1.133,2.529-2.529l-0.075-9.185h29.281l0.127,9.185c0,1.396,1.132,2.529,2.529,2.529h4.602  c1.396,0,2.529-1.133,2.529-2.529v-9.106h2.48v9.106c0,1.396,1.133,2.529,2.529,2.529h4.604c1.397,0,2.528-1.133,2.528-2.529v-9.106  h0.038v-17.074H-263.271z M-313.26,322.667h-8.527v-2.917h8.527V322.667z M-310.565,301.912v-11.443h14.587v11.443H-310.565z   M-281.239,327.379h-27.599v-2.917h27.599V327.379z M-281.239,322.667h-27.599v-2.917h27.599V322.667z M-281.239,317.506h-27.599  v-2.917h27.599V317.506z M-281.239,312.57h-27.599v-2.917h27.599V312.57z M-279.657,301.912h-14.521v-11.443h14.521V301.912z   M-314.375,286.409v23.118h-1.958v-25.076h42.554v25.076h-1.957v-23.118H-314.375z M-268.151,322.667h-8.526v-2.917h8.526V322.667z"/>
</svg>