<svg xmlns="http://www.w3.org/2000/svg" xmlns:xlink="http://www.w3.org/1999/xlink" version="1.1" id="Capa_1" x="0px" y="0px" width="100px" height="100px" viewBox="0 0 100 100" enable-background="new 0 0 100 100" xml:space="preserve">
<path d="M61.037,45.304V33.586l0.476-1.325l-8.259-4.659c3.539-1.654,5.996-5.235,5.996-9.399c0-5.734-4.647-10.38-10.381-10.38  c-5.734,0-10.382,4.646-10.382,10.38c0,4.352,2.681,8.073,6.479,9.615l-6.479,4.755l0.474,1.214v11.791l6.367,5.205l-0.846,5.214  l1.992,24.49h1.596l1.352-23.305l0.578,0.146l0.578-0.143l1.352,23.301h1.597l1.994-24.49l-0.787-4.848l0.352-0.979L61.037,45.304z   M58.717,43.313l-1.646,1.323l1.155-3.22L58.717,43.313z M41.88,41.273l1.586,4.069l-2.184-1.756L41.88,41.273z"/>
</svg>