<svg xmlns="http://www.w3.org/2000/svg" xmlns:xlink="http://www.w3.org/1999/xlink" version="1.1" id="Livello_1" x="0px" y="0px" width="100px" height="100px" viewBox="0 0 100 100" enable-background="new 0 0 100 100" xml:space="preserve">
<g>
	<path d="M49.609,56.421c-15.959,0-28.982-3.146-29.729-7.093c-6.165,0.901-12.275,2.083-18.307,3.547   c10.308,15.781,28.196,24.551,48.56,24.551c20.218,0,37.998-8.641,48.34-24.209c-6.309-1.578-12.703-2.844-19.156-3.806   C78.406,53.319,65.458,56.421,49.609,56.421z"/>
	<path d="M100,50.844L84.559,31.747c-4.004-5.556-10.523-9.173-17.887-9.173c-6.582,0-12.494,2.892-16.532,7.476   c-4.039-4.584-9.951-7.476-16.534-7.476c-7.362,0-13.882,3.617-17.885,9.173L0.279,50.844c0.05,0.085,0.107,0.163,0.158,0.247   c15.895-3.919,32.337-5.916,48.888-5.916c17.027,0,33.945,2.107,50.287,6.26c0.122-0.2,0.258-0.388,0.377-0.591H100z"/>
</g>
</svg>