<svg xmlns="http://www.w3.org/2000/svg" xmlns:xlink="http://www.w3.org/1999/xlink" version="1.1" id="Livello_1" x="0px" y="0px" width="100px" height="100px" viewBox="0 0 100 100" enable-background="new 0 0 100 100" xml:space="preserve">
<g>
	<path d="M44.999,35.871c-2.27,0-4.116,1.848-4.116,4.118h-1.764c0-3.244,2.639-5.882,5.88-5.882c1.604,0,3.057,0.647,4.119,1.69   L49.116,0.012C21.912,0.483,0,22.671,0,49.989v25c0,13.806,11.193,24.999,25.001,24.999c11.557,0,21.256-7.854,24.119-18.505   L49.118,39.97C49.107,37.709,47.265,35.871,44.999,35.871z M20.002,75.869c-2.27,0-4.117,1.847-4.117,4.117h-0.003v0.001v10.002   h-1.764V79.987c0-2.27-1.846-4.118-4.117-4.118c-2.27,0-4.117,1.849-4.117,4.118H4.12c0-3.243,2.639-5.882,5.881-5.882   c2.121,0,3.965,1.141,5,2.826c1.035-1.688,2.88-2.826,5-2.826V75.869z M25.001,40.871c-2.271,0-4.117,1.848-4.117,4.117H20.88   v0.001v10h0.003c0,2.27,1.847,4.117,4.117,4.117v1.763c-3.242,0-5.881-2.637-5.881-5.879h-0.003V44.989   c0-2.27-1.847-4.117-4.117-4.117c-2.271,0-4.117,1.848-4.117,4.117H9.119c0-3.243,2.639-5.881,5.881-5.881   c2.12,0,3.965,1.138,5,2.825c1.035-1.688,2.88-2.826,5-2.826V40.871z M25.001,20.871v-1.764c3.242,0,5.881,2.639,5.881,5.882   c0,2.271,1.848,4.118,4.12,4.118c2.271,0,4.117-1.848,4.117-4.118V14.99c0-2.271-1.849-4.118-4.121-4.118V9.108   c2.121,0,3.968,1.137,5.003,2.823c1.035-1.687,2.88-2.824,4.998-2.824v1.764c-2.27,0-4.116,1.848-4.116,4.118v0.001v10   c0,3.242-2.639,5.881-5.881,5.881c-3.245,0-5.884-2.639-5.884-5.882C29.118,22.719,27.271,20.871,25.001,20.871z M40.001,75.869   c-2.121,0-3.966-1.139-5.001-2.825c-1.035,1.688-2.88,2.825-5,2.825v-1.764c2.27,0,4.116-1.847,4.116-4.117h0.004l0,0V59.987   h-0.004c0-2.27-1.847-4.116-4.116-4.116v-1.764c3.241,0,5.881,2.638,5.881,5.88h0.003v10.001c0,2.271,1.847,4.117,4.117,4.117   c2.27,0,4.116-1.847,4.116-4.117h1.765C45.882,73.23,43.242,75.869,40.001,75.869z"/>
	<path d="M50.88,0.012l0.002,39.958c0,0.007,0.002,0.013,0.002,0.02h-0.002V45.8c1.063-1.045,2.515-1.693,4.119-1.693   c3.245,0,5.884,2.639,5.884,5.882h-1.764c0-2.271-1.849-4.117-4.12-4.117c-2.271,0-4.117,1.847-4.117,4.117h-0.002l0.002,31.491   c2.861,10.654,12.559,18.509,24.115,18.509C88.807,99.988,100,88.795,100,74.989v-25C100,22.671,78.088,0.484,50.88,0.012z    M70,80.871c-2.118,0-3.963-1.137-4.998-2.824c-1.036,1.688-2.882,2.824-5.003,2.824c-3.241,0-5.881-2.639-5.881-5.882h1.765   c0,2.271,1.847,4.118,4.116,4.118c2.272,0,4.12-1.848,4.12-4.118v-10h1.765v10v0.001c0,2.271,1.847,4.117,4.116,4.117V80.871z    M70.886,24.989c0,3.243-2.639,5.882-5.884,5.882c-3.242,0-5.881-2.639-5.881-5.881V14.989c0-2.271-1.847-4.118-4.117-4.118V9.107   c3.242,0,5.881,2.638,5.881,5.882v10c0,2.271,1.847,4.118,4.117,4.118c2.271,0,4.12-1.848,4.12-4.118   c0-3.243,2.639-5.882,5.881-5.882v1.764C72.732,20.871,70.886,22.719,70.886,24.989z M85,90.869c-2.12,0-3.965-1.139-5-2.825   c-1.035,1.688-2.881,2.827-5.001,2.827v-1.765c2.271,0,4.117-1.848,4.117-4.118h0.003V74.987h1.765v10.001   c0,2.271,1.846,4.117,4.116,4.117s4.117-1.847,4.117-4.117h1.764C90.881,88.23,88.242,90.869,85,90.869z M89.117,44.988   c0-2.27-1.847-4.117-4.117-4.117s-4.116,1.848-4.116,4.117v10.001c0,3.243-2.64,5.88-5.885,5.88v-1.763   c2.272,0,4.12-1.848,4.12-4.117V44.988l0,0h-0.003c0-2.271-1.847-4.118-4.117-4.118v-1.764c2.12,0,3.966,1.139,5.001,2.826   c1.035-1.687,2.88-2.825,5-2.825c3.242,0,5.881,2.638,5.881,5.881H89.117z"/>
</g>
</svg>