<svg xmlns="http://www.w3.org/2000/svg" xmlns:xlink="http://www.w3.org/1999/xlink" version="1.1" id="Layer_1" x="0px" y="0px" width="100px" height="100px" viewBox="-346 256 100 100" enable-background="new -346 256 100 100" xml:space="preserve">
<path d="M-250.937,303.129h-9.843l-0.011,0.019v-18.492h-8.104v-2.923c0,0,0.324-4.392-1.066-7.354  c-3.677-7.827-33.445-7.827-33.445-7.827h-0.086c0,0-29.769,0-33.445,7.827c-1.391,2.962-1.067,7.354-1.067,7.354v2.923h-7.624  v18.538h7.624v13.356h-4.232v36.242c0,1.702,1.38,3.085,3.084,3.085h5.613c1.705,0,3.085-1.383,3.085-3.085v-11.106h54.011v11.106  c0,1.702,1.382,3.085,3.085,3.085h5.614c1.704,0,3.084-1.383,3.084-3.085l0.046-36.242h-4.293v-3.654h3.92l4.207,7.285h9.843  l4.921-8.525L-250.937,303.129z M-275.601,275.855c1.285,0,2.326,1.041,2.326,2.326s-1.041,2.326-2.326,2.326  c-1.284,0-2.325-1.041-2.325-2.326S-276.885,275.855-275.601,275.855z M-282.853,275.855c1.285,0,2.326,1.041,2.326,2.326  s-1.041,2.326-2.326,2.326c-1.284,0-2.325-1.041-2.325-2.326S-284.137,275.855-282.853,275.855z M-272.389,284.656V302.1h-29.978  v-17.444h12.887l-11.627,10.31l1.614,1.82l13.68-12.13H-272.389z M-313.697,272.761h10.171h10.316c2.12,0,3.839,1.715,3.839,3.832  c0,2.116-1.719,3.832-3.839,3.832h-10.316h-10.171c-2.117,0-3.832-1.716-3.832-3.832  C-317.528,274.476-315.813,272.761-313.697,272.761z M-323.906,275.855c1.285,0,2.326,1.041,2.326,2.326s-1.041,2.326-2.326,2.326  s-2.326-1.041-2.326-2.326S-325.191,275.855-323.906,275.855z M-331.158,275.855c1.285,0,2.326,1.041,2.326,2.326  s-1.042,2.326-2.326,2.326c-1.285,0-2.327-1.041-2.327-2.326S-332.443,275.855-331.158,275.855z M-334.515,284.656h13.161  l13.679,12.13l1.614-1.82l-11.626-10.31h12.886V302.1h-29.714V284.656z M-325.521,328.141h-10.399v-5.44h10.399V328.141z   M-286.467,328.508h-33.661v-3.557h33.661V328.508z M-286.467,322.762h-33.661v-3.558h33.661V322.762z M-286.467,317.015h-33.661  v-3.559h33.661V317.015z M-270.683,328.141h-10.418v-5.44h10.418V328.141z M-265.013,310.461h-3.894v-6.669v-0.598h8.09  L-265.013,310.461z"/>
</svg>