<svg xmlns="http://www.w3.org/2000/svg" xmlns:xlink="http://www.w3.org/1999/xlink" version="1.1" id="Layer_1" x="0px" y="0px" width="100px" height="100px" viewBox="0 0 100 100" enable-background="new 0 0 100 100" xml:space="preserve">
<path d="M61.913,13.908h-9.751c-0.25-1.001-1.148-1.744-2.226-1.744c-1.078,0.001-1.974,0.745-2.223,1.744h-0.02h-9.741  c-8.989,7.255-15.23,18.098-15.23,30.75c0,16.228,10.176,29.641,23.393,31.837c-0.967,1.782-1.04,4.004-0.012,5.945  c1.624,3.062,5.344,4.346,8.412,2.644l0.303-0.203c2.921-2.368,2.702-6.657-1.665-6.876c-1.57-0.079-3.216,1.268-3.122,3.527  l0.013,0.003c-0.003,0.026-0.016,0.049-0.016,0.076c0,0.368,0.3,0.668,0.667,0.668c0.284,0,0.522-0.18,0.62-0.429l0.008,0.002  c0.008-0.067,0.02-0.118,0.028-0.184c0.002-0.02,0.012-0.037,0.012-0.058c0-0.003-0.002-0.005-0.002-0.008  c0.26-1.808,0.89-2.107,1.312-2.158c1.701-0.204,2.563,2.112,0.637,3.725l-0.175,0.132c-1.993,1.056-4.175,0.331-5.23-1.66  c-0.883-1.665-0.654-3.651,0.604-4.881c0.144,0.009,0.287,0.026,0.432,0.032l1.877,0.014c14.773-0.341,26.337-14.602,26.337-32.149  C77.153,32.006,70.921,21.164,61.913,13.908z M74.724,44.721c0,16.179-11.098,29.296-24.788,29.296  c-13.692,0-24.79-13.117-24.79-29.296c0-7.906,2.675-15.037,6.996-20.868c0,0.005-0.002,0.009-0.003,0.015  c1.603,1.458,4.101,1.335,5.561-0.265c1.457-1.605,1.336-4.087-0.266-5.543l-0.002,0c0.517-0.463,1.044-0.915,1.584-1.35h21.839  c0.561,0.452,1.106,0.922,1.643,1.404c-1.58,1.458-1.694,3.922-0.245,5.52c1.451,1.591,3.925,1.717,5.528,0.289  C72.072,29.741,74.724,36.846,74.724,44.721z"/>
<path d="M82.124,25.107c-1.936-4.042-6.707-5.785-10.746-3.851l1.685,2.373c2.63-1.259,5.244,0.073,6.501,2.702  c1.258,2.629,0.679,5.486-1.95,6.745l0.787,2.804C82.442,33.946,84.056,29.149,82.124,25.107z"/>
<path d="M20.311,26.331c1.258-2.629,3.871-3.961,6.501-2.702l1.686-2.373c-4.04-1.934-8.812-0.191-10.746,3.851  c-1.933,4.042-0.319,8.839,3.723,10.772l0.787-2.804C19.633,31.817,19.054,28.96,20.311,26.331z"/>
</svg>