<svg xmlns="http://www.w3.org/2000/svg" xmlns:xlink="http://www.w3.org/1999/xlink" version="1.1" id="Layer_1" x="0px" y="0px" width="100px" height="100px" viewBox="0 0 100 100" enable-background="new 0 0 100 100" xml:space="preserve">
<path fill="none" d="M25.395,49.999c2.702,2.137,5.689,4.311,8.959,6.485c-0.091-2.156-0.139-4.323-0.139-6.484  c0-2.162,0.049-4.329,0.139-6.486C31.084,45.688,28.097,47.862,25.395,49.999z"/>
<path fill="none" d="M37.695,28.713c-0.498,3.401-0.887,7.067-1.135,10.978c1.822-1.156,3.675-2.281,5.546-3.361  c1.891-1.092,3.781-2.13,5.665-3.12C44.331,31.51,40.953,30.008,37.695,28.713z"/>
<path fill="none" d="M37.694,71.285c3.259-1.295,6.637-2.797,10.077-4.497c-1.884-0.989-3.775-2.028-5.665-3.119  c-1.871-1.08-3.724-2.205-5.546-3.361C36.809,64.217,37.196,67.884,37.694,71.285z"/>
<path fill="none" d="M76.173,48.736c12.022-9.855,17.685-18.72,15.374-22.723c-1.259-2.182-4.684-2.64-7.334-2.64  c-5.21,0-12.215,1.661-20.029,4.61c0.63,4.163,1.082,8.566,1.341,13.051C69.286,43.507,72.879,46.104,76.173,48.736z"/>
<path fill="none" d="M63.439,39.69c-0.248-3.91-0.636-7.576-1.134-10.979c-3.259,1.295-6.636,2.798-10.077,4.497  c1.884,0.99,3.774,2.028,5.664,3.119C59.765,37.409,61.617,38.534,63.439,39.69z"/>
<path fill="none" d="M62.287,71.278c0.512-3.479,0.894-7.155,1.14-10.964c-1.818,1.154-3.667,2.276-5.534,3.354  c-1.89,1.091-3.781,2.129-5.664,3.119C55.662,68.485,59.034,69.984,62.287,71.278z"/>
<path fill="none" d="M74.604,49.999c-2.702-2.136-5.688-4.311-8.958-6.484c0.091,2.156,0.139,4.324,0.139,6.485  c0,2.186-0.047,4.346-0.131,6.479C68.92,54.306,71.905,52.134,74.604,49.999z"/>
<path fill="none" d="M38.013,73.331c2.525,15.319,7.368,24.642,11.988,24.642c3.41,0,6.864-4.966,9.475-13.627  c0.999-3.311,1.832-7.023,2.493-11.022C58.11,71.809,54.086,69.998,50,67.932C45.906,70.001,41.877,71.814,38.013,73.331z"/>
<path fill="none" d="M76.173,51.263c-3.29,2.629-6.879,5.223-10.635,7.69c-0.251,4.563-0.694,8.954-1.315,13.074  c7.799,2.941,14.791,4.597,19.992,4.597c2.649,0,6.072-0.457,7.331-2.638C93.857,69.983,88.195,61.118,76.173,51.263z"/>
<path fill="none" d="M23.826,51.263C11.805,61.117,6.143,69.983,8.454,73.986c1.259,2.181,4.682,2.638,7.332,2.638  c5.21,0,12.216-1.661,20.03-4.61c-0.631-4.163-1.082-8.566-1.341-13.051C30.714,56.491,27.121,53.895,23.826,51.263z"/>
<path fill="none" d="M35.817,27.985c-7.814-2.95-14.82-4.611-20.03-4.611c-2.65,0-6.075,0.458-7.334,2.64  c-2.311,4.002,3.352,12.867,15.373,22.723c3.295-2.633,6.888-5.229,10.649-7.701C34.735,36.551,35.187,32.147,35.817,27.985z"/>
<path fill="none" d="M61.987,26.666C59.463,11.349,54.62,2.027,50.001,2.027s-9.462,9.321-11.987,24.64  c3.864,1.517,7.894,3.329,11.986,5.398C54.094,29.996,58.123,28.183,61.987,26.666z"/>
<path d="M77.728,49.999C89.258,40.47,96.586,30.688,93.303,25c-1.399-2.424-4.458-3.653-9.09-3.653  c-5.336,0-12.448,1.659-20.354,4.606C61.369,11.22,56.563,0,50.001,0S38.633,11.22,36.143,25.953  c-7.906-2.947-15.02-4.606-20.355-4.606c-4.632,0-7.69,1.229-9.09,3.653c-3.283,5.688,4.045,15.47,15.575,24.999  C10.742,59.529,3.415,69.312,6.698,75c1.399,2.423,4.457,3.651,9.088,3.651c5.336,0,12.449-1.659,20.355-4.607  C38.631,88.779,43.438,100,50.001,100c4.431,0,8.485-5.352,11.416-15.069c0.988-3.278,1.817-6.938,2.481-10.871  c7.891,2.938,14.988,4.592,20.316,4.592c4.631,0,7.688-1.229,9.087-3.651C96.585,69.312,89.258,59.529,77.728,49.999z   M84.213,23.374c2.65,0,6.075,0.458,7.334,2.64c2.311,4.003-3.352,12.867-15.374,22.723c-3.294-2.632-6.887-5.229-10.648-7.701  c-0.259-4.484-0.711-8.888-1.341-13.051C71.998,25.035,79.003,23.374,84.213,23.374z M56.879,61.914  c-2.3,1.328-4.598,2.572-6.879,3.745c-2.104-1.081-4.22-2.228-6.34-3.44c-0.799-0.295-1.532-0.722-2.17-1.263  c-1.748-1.035-3.442-2.076-5.066-3.119c-0.119-2.523-0.183-5.139-0.183-7.837c0-2.699,0.063-5.314,0.183-7.84  c2.126-1.365,4.359-2.727,6.696-4.076c2.3-1.328,4.599-2.572,6.88-3.746c2.281,1.174,4.579,2.418,6.879,3.745  c2.338,1.35,4.571,2.712,6.697,4.078c0.119,2.524,0.183,5.14,0.183,7.839c0,2.654-0.067,5.273-0.191,7.843  C61.443,59.206,59.213,60.566,56.879,61.914z M63.427,60.314c-0.246,3.809-0.628,7.484-1.14,10.964  c-3.253-1.294-6.625-2.793-10.059-4.49c1.883-0.99,3.774-2.028,5.664-3.119C59.76,62.591,61.608,61.469,63.427,60.314z   M47.771,66.788c-3.44,1.7-6.818,3.202-10.077,4.497c-0.498-3.401-0.886-7.068-1.134-10.978c1.822,1.156,3.675,2.281,5.546,3.361  C43.996,64.76,45.888,65.799,47.771,66.788z M34.354,56.484c-3.27-2.175-6.257-4.349-8.959-6.485  c2.702-2.137,5.689-4.311,8.959-6.485c-0.09,2.157-0.139,4.324-0.139,6.486C34.215,52.161,34.263,54.328,34.354,56.484z   M36.561,39.69c0.248-3.91,0.637-7.576,1.135-10.978c3.258,1.295,6.636,2.797,10.076,4.496c-1.884,0.99-3.774,2.028-5.665,3.12  C40.235,37.409,38.383,38.534,36.561,39.69z M52.229,33.209c3.441-1.699,6.818-3.202,10.077-4.497  c0.498,3.402,0.886,7.068,1.134,10.979c-1.822-1.156-3.675-2.281-5.547-3.362C56.003,35.237,54.112,34.199,52.229,33.209z   M65.646,43.515c3.27,2.174,6.256,4.349,8.958,6.484c-2.699,2.135-5.685,4.307-8.95,6.479c0.084-2.133,0.131-4.293,0.131-6.479  C65.785,47.839,65.737,45.671,65.646,43.515z M50.001,2.027c4.619,0,9.462,9.321,11.986,24.639  c-3.864,1.517-7.894,3.33-11.987,5.399c-4.093-2.069-8.122-3.882-11.986-5.398C40.539,11.349,45.382,2.027,50.001,2.027z   M8.453,26.014c1.259-2.182,4.684-2.64,7.334-2.64c5.21,0,12.216,1.661,20.03,4.611c-0.631,4.162-1.082,8.565-1.342,13.05  c-3.762,2.472-7.354,5.068-10.649,7.701C11.805,38.881,6.143,30.016,8.453,26.014z M15.786,76.624c-2.65,0-6.073-0.457-7.332-2.638  c-2.312-4.003,3.351-12.869,15.372-22.724c3.295,2.632,6.888,5.229,10.649,7.7c0.259,4.484,0.71,8.888,1.341,13.051  C28.002,74.963,20.996,76.624,15.786,76.624z M59.476,84.346c-2.61,8.661-6.064,13.627-9.475,13.627  c-4.62,0-9.463-9.322-11.988-24.642c3.864-1.517,7.894-3.33,11.987-5.399c4.086,2.066,8.11,3.877,11.969,5.392  C61.308,77.322,60.475,81.035,59.476,84.346z M91.546,73.986c-1.259,2.181-4.682,2.638-7.331,2.638  c-5.201,0-12.193-1.655-19.992-4.597c0.621-4.12,1.064-8.512,1.315-13.074c3.756-2.468,7.345-5.062,10.635-7.69  C88.195,61.118,93.857,69.983,91.546,73.986z"/>
<path d="M41.454,50.006c-0.955-1.054-1.602-2.386-1.801-3.862c-1.01,1.102-1.631,2.564-1.631,4.177c0,1.311,0.41,2.524,1.105,3.525  C39.479,52.326,40.31,50.99,41.454,50.006z"/>
<path d="M53.097,41.714c0.832-0.336,1.738-0.525,2.688-0.525c0.768,0,1.507,0.123,2.201,0.347c-1.057-1.902-3.085-3.191-5.416-3.191  c-0.85,0-1.658,0.172-2.396,0.481C51.405,39.485,52.424,40.491,53.097,41.714z"/>
<path d="M46.141,48.261c0.864,0,1.688,0.16,2.457,0.44c-0.004-0.104-0.016-0.204-0.016-0.309c0-2.661,1.454-4.984,3.605-6.231  c-1.059-1.893-3.08-3.174-5.403-3.174c-3.419,0-6.189,2.771-6.189,6.19c0,1.635,0.638,3.116,1.673,4.223  C43.387,48.683,44.715,48.261,46.141,48.261z"/>
<path d="M53.33,55.153c0.004,0.104,0.016,0.206,0.016,0.312c0,1.94-0.774,3.7-2.027,4.997c0.775,0.349,1.634,0.548,2.539,0.548  c3.419,0,6.189-2.77,6.189-6.188c0-0.207-0.011-0.412-0.031-0.613c-1.189,0.866-2.648,1.385-4.23,1.385  C54.922,55.594,54.098,55.434,53.33,55.153z"/>
<path d="M46.141,61.654c3.419,0,6.191-2.771,6.191-6.189c0-0.268-0.022-0.53-0.056-0.789c-1.795-1.006-3.119-2.754-3.546-4.828  c-0.789-0.364-1.664-0.573-2.59-0.573c-3.419,0-6.189,2.771-6.189,6.19C39.951,58.883,42.722,61.654,46.141,61.654z"/>
<circle cx="55.785" cy="48.391" r="6.189"/>
</svg>