<svg xmlns="http://www.w3.org/2000/svg" xmlns:xlink="http://www.w3.org/1999/xlink" version="1.0" id="Capa_1" x="0px" y="0px" width="100px" height="100px" viewBox="0 0 100 100" enable-background="new 0 0 100 100" xml:space="preserve">
<g>
	<path fill="#000000" d="M50,100C22.432,100,0.004,77.573,0.004,50.005C0.004,22.438,22.432,0.01,50,0.01   c27.568,0,49.996,22.428,49.996,49.995C99.996,77.573,77.568,100,50,100z M50,3.391c-25.703,0-46.613,20.911-46.613,46.614   C3.386,75.708,24.296,96.62,50,96.62s46.614-20.912,46.614-46.615C96.614,24.302,75.703,3.391,50,3.391z"/>
	<path fill="#000000" d="M50,98.545c-0.155,0-0.281-0.125-0.281-0.281V1.701c0-0.156,0.126-0.282,0.281-0.282   c0.156,0,0.282,0.126,0.282,0.282v96.563C50.282,98.42,50.156,98.545,50,98.545z"/>
	<path fill="#000000" d="M98.282,50.264H1.718c-0.156,0-0.282-0.126-0.282-0.282s0.126-0.282,0.282-0.282h96.563   c0.155,0,0.281,0.126,0.281,0.282S98.437,50.264,98.282,50.264z"/>
	<g>
		<path fill="#000000" d="M32.889,51.673H1.718c-0.934,0-1.691-0.757-1.691-1.691s0.758-1.691,1.691-1.691h31.171    c0.935,0,1.691,0.757,1.691,1.691S33.824,51.673,32.889,51.673z"/>
		<path fill="#000000" d="M98.301,51.673H67.132c-0.935,0-1.691-0.757-1.691-1.691s0.757-1.691,1.691-1.691h31.169    c0.934,0,1.691,0.757,1.691,1.691S99.235,51.673,98.301,51.673z"/>
	</g>
	<path fill="#000000" d="M50.009,99.965c-0.934,0-1.69-0.758-1.69-1.691V67.102c0-0.934,0.757-1.69,1.69-1.69   c0.935,0,1.691,0.757,1.691,1.69v31.172C51.701,99.208,50.944,99.965,50.009,99.965z"/>
	<path fill="#000000" d="M50.009,34.551c-0.934,0-1.69-0.757-1.69-1.69V1.691c0-0.934,0.757-1.691,1.69-1.691   c0.935,0,1.691,0.757,1.691,1.691V32.86C51.701,33.794,50.944,34.551,50.009,34.551z"/>
	<circle fill="#000000" cx="50" cy="50.005" r="1.945"/>
</g>
</svg>