<svg xmlns="http://www.w3.org/2000/svg" xmlns:xlink="http://www.w3.org/1999/xlink" version="1.1" x="0px" y="0px" width="100px" height="100px" viewBox="0 0 100 100" enable-background="new 0 0 100 100" xml:space="preserve">
<g id="&#225;rvore">
	<path d="M50.005,97.099c-3.228,0-5.854-2.626-5.854-5.854c0-1.655,0.689-3.209,1.903-4.318L33.903,65.892   c-0.571,0.181-1.164,0.273-1.769,0.273c-3.228,0-5.853-2.626-5.853-5.854c0-2.771,1.9-5.118,4.568-5.711v-9.2   c-2.668-0.593-4.568-2.94-4.568-5.711s1.9-5.118,4.568-5.711v-9.195c-2.668-0.593-4.568-2.94-4.568-5.711   c0-3.228,2.625-5.853,5.853-5.853c1.652,0,3.205,0.687,4.313,1.897l7.975-4.598c-0.181-0.57-0.271-1.162-0.271-1.763   c0-3.228,2.626-5.854,5.854-5.854s5.853,2.626,5.853,5.854c0,0.603-0.092,1.196-0.272,1.768l7.961,4.599   c1.109-1.214,2.664-1.903,4.319-1.903c3.228,0,5.853,2.625,5.853,5.853c0,2.785-1.91,5.134-4.593,5.717v9.183   c2.683,0.583,4.593,2.933,4.593,5.717s-1.91,5.134-4.593,5.717v9.188c2.683,0.583,4.593,2.933,4.593,5.717   c0,3.228-2.625,5.854-5.853,5.854c-0.604,0-1.196-0.092-1.768-0.273L53.954,86.926c1.214,1.109,1.903,2.664,1.903,4.319   C55.857,94.473,53.232,97.099,50.005,97.099z M48.236,85.666c0.168-0.053,0.338-0.099,0.508-0.136V76.34   c-2.683-0.583-4.593-2.933-4.593-5.717c0-0.603,0.092-1.195,0.272-1.766l-7.969-4.598c-0.117,0.129-0.241,0.252-0.37,0.37   L48.236,85.666z M51.265,85.529c0.17,0.037,0.34,0.083,0.507,0.136l12.145-21.034c-0.129-0.118-0.253-0.242-0.37-0.371   l-7.961,4.596c0.182,0.571,0.272,1.164,0.272,1.767c0,2.784-1.91,5.134-4.593,5.717V85.529z M45.685,66.676   c0.816-0.895,1.883-1.511,3.06-1.77v-3.334H37.852c-0.037,0.169-0.083,0.338-0.136,0.505L45.685,66.676z M51.265,64.906   c1.177,0.258,2.242,0.874,3.06,1.768l7.96-4.596c-0.053-0.167-0.099-0.336-0.136-0.506H51.265V64.906z M62.148,59.052   c0.037-0.17,0.083-0.339,0.136-0.506l-7.961-4.595c-0.816,0.894-1.882,1.51-3.059,1.768v3.334H62.148z M48.744,59.052v-3.334   c-1.177-0.259-2.243-0.875-3.06-1.769l-7.969,4.598c0.053,0.167,0.099,0.335,0.136,0.505H48.744z M33.37,54.589   c1.188,0.255,2.263,0.873,3.086,1.775l7.968-4.598c-0.181-0.571-0.272-1.164-0.272-1.766c0-0.602,0.092-1.194,0.271-1.764   l-7.968-4.599c-0.823,0.901-1.897,1.519-3.085,1.774V54.589z M63.545,56.363c0.817-0.895,1.883-1.511,3.06-1.769v-9.189   c-1.177-0.258-2.242-0.875-3.059-1.768l-7.961,4.596c0.182,0.571,0.272,1.164,0.272,1.767c0,0.604-0.091,1.197-0.272,1.768   L63.545,56.363z M45.684,46.054c0.117-0.128,0.239-0.251,0.367-0.368l-2.74-4.737h-5.459c-0.037,0.17-0.083,0.339-0.136,0.506   L45.684,46.054z M53.954,45.682c0.129,0.118,0.253,0.241,0.37,0.37l7.96-4.597c-0.053-0.167-0.099-0.336-0.136-0.507h-5.461   L53.954,45.682z M48.231,44.422c0.17-0.054,0.341-0.1,0.513-0.138v-3.335h-2.521L48.231,44.422z M51.265,44.284   c0.171,0.038,0.341,0.083,0.508,0.136l2.005-3.472h-2.513V44.284z M62.147,38.428c0.488-2.236,2.222-3.969,4.457-4.457v-9.184   c-0.17-0.038-0.339-0.083-0.507-0.136l-7.955,13.777H62.147z M55.232,38.428l8.684-15.038c-0.895-0.817-1.51-1.883-1.768-3.059   H51.265v18.097H55.232z M48.744,38.428V20.331H37.852c-0.259,1.183-0.88,2.252-1.78,3.07l8.693,15.027H48.744z M41.853,38.428   l-7.967-13.771c-0.17,0.053-0.342,0.099-0.516,0.136v9.174c2.216,0.479,3.992,2.248,4.481,4.461H41.853z M62.148,17.811   c0.037-0.171,0.083-0.34,0.137-0.508l-7.962-4.599c-0.816,0.893-1.882,1.509-3.059,1.767v3.34H62.148z M48.744,17.811v-3.34   c-1.178-0.258-2.244-0.875-3.062-1.771l-7.97,4.595c0.054,0.17,0.101,0.342,0.139,0.516H48.744z"/>
</g>
<g id="Layer_2">
</g>
</svg>