<svg xmlns="http://www.w3.org/2000/svg" xmlns:xlink="http://www.w3.org/1999/xlink" version="1.1" x="0px" y="0px" width="100px" height="100px" viewBox="0 0 100 100" enable-background="new 0 0 100 100" xml:space="preserve">
<g id="Layer_1">
</g>
<g id="Layer_2">
	<path d="M51,2C24.533,2,3,23.533,3,50c0,26.468,21.533,48,48,48c26.468,0,48-21.532,48-48C99,23.533,77.468,2,51,2z M8,50   C8,26.29,27.29,7,51,7c21.836,0,39.91,16.366,42.633,37.474l-1.065-0.237c-0.011,0.048-0.044,0.196-0.479,0.402   c-4.533,2.154-20.644-2.245-25.299-4.581c-0.184-0.092-18.567-9.162-33.598-3.316c-6.993,2.719-12.077,8.135-15.11,16.098   c-7.637,20.045,9.806,30.177,21.348,36.881c1.506,0.875,3.087,1.793,4.511,2.689C23.578,89.032,8,71.305,8,50z M52.404,92.965   c-1.922-2.602-5.78-4.848-10.463-7.568c-11.277-6.55-25.311-14.701-19.187-30.777c2.509-6.585,6.63-11.032,12.25-13.217   c12.987-5.049,29.38,3.043,29.544,3.125c3.888,1.951,22.016,7.933,29.434,4.733C93.985,49.507,94,49.752,94,50   C94,73.239,75.465,92.22,52.404,92.965z"/>
</g>
</svg>