<svg xmlns="http://www.w3.org/2000/svg" xmlns:xlink="http://www.w3.org/1999/xlink" version="1.1" id="Layer_1" x="0px" y="0px" width="100px" height="100px" viewBox="0 0 100 100" enable-background="new 0 0 100 100" xml:space="preserve">
<g>
	<path d="M46.983,31.537c-16.901,0-30.601,16.316-30.601,33.219v12.529c0,0,0.435,10.215,30.818,10.215   c30.383,0,30.383-10.215,30.383-10.215V64.756C77.584,47.854,63.884,31.537,46.983,31.537z M72.17,63.818   c-0.307,3.211-1.566,5.839-2.796,5.839c-1.231,0-2.746-2.442-3.367-5.425c-0.622-2.984-2.563-5.426-4.317-5.426   s-3.621,2.603-4.149,5.784l-0.317,1.918c-0.531,3.183-2.373,5.845-4.1,5.914c-1.727,0.07-3.498-2.487-3.936-5.683l-1.405-10.241   c-0.439-3.194-1.967-5.61-3.396-5.369c-1.428,0.242-2.841,3.065-3.139,6.277L40.09,69.88c-0.298,3.21-1.967,5.839-3.71,5.839   c-1.741,0-3.353-2.633-3.581-5.85l-0.651-9.213c-0.228-3.217-1.022-5.799-1.764-5.739c-0.741,0.062-1.582,2.481-1.868,5.377   c-0.287,2.899-1.658,5.286-3.05,5.31c-1.391,0.021-2.858-2.58-3.257-5.778L22.155,59.4C24.63,47.012,35.35,36.773,46.983,36.773   c12.681,0,24.271,12.172,25.285,26.025L72.17,63.818z"/>
	<g id="leaves_3_">
		<g>
			<path d="M43.994,33.1c-1.861-3.959,0.085-10,0.106-10.07c0.103-0.311,0.059-0.651-0.116-0.926     c-0.177-0.275-0.468-0.457-0.794-0.496c-0.867-0.1-3.367-0.604-4.503-1.738c-1.12-1.123-1.518-3.482-1.576-4.298     c-0.023-0.335-0.199-0.639-0.479-0.827c-0.278-0.188-0.627-0.235-0.947-0.129c-0.08,0.025-8.075,2.601-11.694-1.018     c-0.426-0.424-1.112-0.424-1.538,0c-0.425,0.424-0.425,1.111,0,1.536c3.619,3.619,1.044,11.615,1.018,11.696     c-0.103,0.312-0.057,0.656,0.12,0.932c0.179,0.275,0.476,0.457,0.803,0.488c0.853,0.091,3.304,0.55,4.377,1.627     c1.1,1.098,1.596,3.589,1.694,4.456c0.037,0.324,0.217,0.616,0.493,0.794c0.276,0.178,0.616,0.221,0.927,0.117     c0.066-0.021,5.554-1.786,9.496-0.344L43.994,33.1z"/>
			<path d="M56.331,30.279c-0.159-0.674-0.464-2.684,0.077-3.843c0.533-1.145,2.193-2.085,2.785-2.35     c0.246-0.108,0.425-0.324,0.49-0.584c0.062-0.259,0.004-0.533-0.162-0.744c-0.041-0.051-4.146-5.333-2.424-9.026     c0.202-0.434,0.014-0.947-0.418-1.15c-0.434-0.201-0.949-0.016-1.15,0.42c-1.723,3.693-8.405,3.943-8.473,3.944     c-0.262,0.008-0.507,0.137-0.665,0.346c-0.157,0.21-0.214,0.479-0.147,0.733c0.166,0.661,0.487,2.621-0.022,3.716     c-0.523,1.121-2.254,2.173-2.874,2.483c-0.234,0.115-0.404,0.329-0.46,0.584c-0.058,0.256,0.003,0.521,0.163,0.727     c0.034,0.043,2.849,3.668,2.845,7.01c0.217-0.582,2.528,0.696,2.16,1.309c-0.029,0.053-0.068,0.104-0.101,0.158     c2.454-2.473,7.504-2.662,7.562-2.664c0.262-0.008,0.504-0.133,0.662-0.34S56.393,30.533,56.331,30.279z"/>
		</g>
	</g>
	<g>
		<circle fill="#000000" cx="51.287" cy="31.392" r="2.618"/>
		<path stroke="#FFFFFF" stroke-miterlimit="10" d="M51.287,28.774c1.445,0,2.617,1.171,2.617,2.617    c0,1.446-1.172,2.618-2.617,2.618c-1.446,0-2.618-1.172-2.618-2.618C48.669,29.945,49.841,28.774,51.287,28.774 M51.287,23.537    c-4.331,0-7.854,3.524-7.854,7.854c0,4.333,3.523,7.856,7.854,7.856s7.854-3.523,7.854-7.856    C59.143,27.062,55.618,23.537,51.287,23.537L51.287,23.537z" fill="#000000"/>
	</g>
	<g>
		<path stroke="#FFFFFF" stroke-miterlimit="10" d="M41.537,31.393c1.446,0,2.618,1.172,2.618,2.619    c0,1.445-1.172,2.617-2.618,2.617c-1.445,0-2.618-1.172-2.618-2.617C38.919,32.564,40.092,31.393,41.537,31.393 M41.537,26.157    c-4.331,0-7.854,3.522-7.854,7.854c0,4.332,3.523,7.854,7.854,7.854s7.854-3.522,7.854-7.854    C49.391,29.679,45.868,26.157,41.537,26.157L41.537,26.157z" fill="#000000"/>
		<circle fill="#000000" cx="41.537" cy="34.012" r="2.618"/>
	</g>
</g>
</svg>