<svg xmlns="http://www.w3.org/2000/svg" xmlns:xlink="http://www.w3.org/1999/xlink" version="1.1" id="Layer_1" x="0px" y="0px" width="100px" height="100px" viewBox="0 0 100 100" enable-background="new 0 0 100 100" xml:space="preserve">
<path d="M51.34,44.635c-0.545-1.163-1.728-1.914-3.012-1.914c-0.488,0-0.962,0.106-1.409,0.315c-0.804,0.377-1.413,1.044-1.715,1.88  c-0.217,0.599-0.253,1.232-0.12,1.839l6.69,0.811c0.038-0.124,0.07-0.252,0.089-0.39C51.961,46.453,51.78,45.574,51.34,44.635z"/>
<path d="M13.508,47.13l0.508-3.763c0.055-0.405-0.234-0.736-0.643-0.736H5.16c-0.409,0-0.743,0.334-0.743,0.743v9.173  c0,0.409,0.334,0.743,0.743,0.743H7.64C7.988,50.15,10.413,47.627,13.508,47.13z"/>
<path d="M59.333,48.135l-0.01,0.005c0.286,0.532,0.164,0.973,0.154,1.006c-0.183,0.607-0.821,1.083-1.455,1.083H54.44  c-0.696,0-1.263-0.567-1.263-1.263v-0.181l-9.665-1.171c-0.406-0.049-0.738-0.424-0.738-0.833v-2.184  c0-0.409,0.236-0.743,0.524-0.743c0.288,0,0.524-0.334,0.524-0.743V40.84c0-0.409-0.334-0.743-0.743-0.743h-1.66  c-0.409,0-1.048,0.136-1.422,0.303l-20.144,8.98c0.885,0.986,1.497,2.224,1.712,3.591l1.554-0.736  c0.807-0.383,2.138-0.71,3.03-0.745l19.049-0.756c1.104-0.04,2.064,0.8,2.179,1.884l0.648,6.132  c0.027,0.259,0.003,0.511-0.066,0.746h16.74c0.408,0,0.58-0.455,0.245-0.689l-2.517-1.768c-0.334-0.234-0.275-0.46,0.132-0.5  l5.163-0.514c-0.18-0.621-0.278-1.276-0.278-1.954c0-2.746,1.584-5.127,3.885-6.284H60.731  C60.323,47.787,59.693,47.943,59.333,48.135z"/>
<path d="M46.199,59.745c0.242,0,0.457-0.091,0.604-0.256c0.149-0.165,0.217-0.39,0.191-0.631l-0.649-6.132  c-0.056-0.526-0.533-0.955-1.064-0.955l-0.039,0.001l-19.049,0.756c-0.747,0.03-1.95,0.325-2.626,0.646l-1.913,0.906  c-0.003,2.154-0.98,4.084-2.513,5.372l27.046,0.293"/>
<path d="M95.526,52.599l-16.431-3.823c1.477,1.29,2.412,3.184,2.412,5.294c0,0.214-0.011,0.425-0.029,0.633l8.698-0.522  c-0.026,0.079-0.043,0.162-0.043,0.247v0.798v0.276h3.932v-0.513v-1.043l1.442-0.086c0.408-0.025,0.742-0.281,0.742-0.569  S95.925,52.691,95.526,52.599z"/>
<path d="M54.218,48.966c0,0.121,0.103,0.223,0.223,0.223h3.582c0.174,0,0.393-0.158,0.453-0.324  c0.023-0.215-0.246-0.708-1.447-1.109c-1.274-0.425-1.977-0.488-2.281-0.488c-0.143,0-0.207,0.014-0.208,0.014  c-0.15,0.048-0.321,0.28-0.321,0.462V48.966z"/>
<path d="M14.625,60.06c3.303,0,5.99-2.687,5.99-5.989s-2.687-5.99-5.99-5.99c-3.302,0-5.989,2.687-5.989,5.99  S11.323,60.06,14.625,60.06z M14.625,50.83c1.79,0,3.241,1.452,3.241,3.241c0,1.79-1.451,3.241-3.241,3.241  s-3.241-1.451-3.241-3.241C11.384,52.281,12.835,50.83,14.625,50.83z"/>
<path d="M80.468,54.07c0-3.303-2.687-5.99-5.989-5.99s-5.989,2.687-5.989,5.99s2.687,5.989,5.989,5.989S80.468,57.373,80.468,54.07z   M74.479,57.312c-1.79,0-3.241-1.451-3.241-3.241c0-1.789,1.451-3.241,3.241-3.241s3.241,1.452,3.241,3.241  C77.72,55.86,76.269,57.312,74.479,57.312z"/>
<path d="M90.091,56.542c-0.456,0-1.157-0.094-1.598-0.214l-1.449-0.396c-0.353-0.096-0.958-0.177-1.323-0.177h-2.533  c-0.121,0-0.223,0.102-0.223,0.223v3.669c0,0.121,0.102,0.223,0.223,0.223h11.271c0.12,0,0.223-0.102,0.223-0.223v-2.883  c0-0.121-0.103-0.223-0.223-0.223H90.091z"/>
</svg>