<svg xmlns="http://www.w3.org/2000/svg" xmlns:xlink="http://www.w3.org/1999/xlink" version="1.1" id="Layer_1" x="0px" y="0px" width="100.0px" height="100px" viewBox="0 0 360 360" enable-background="new 0 0 360 360" xml:space="preserve">
<g>
	<path d="M180.001,69.5C241.027,69.5,290.5,118.973,290.5,180s-49.473,110.5-110.499,110.5c-61.028,0-110.5-49.473-110.5-110.5   S118.973,69.5,180.001,69.5 M180.001,55.5c-33.255,0-64.52,12.95-88.035,36.465C68.451,115.48,55.5,146.745,55.5,180   s12.95,64.52,36.465,88.035c23.515,23.515,54.78,36.465,88.035,36.465c33.255,0,64.52-12.95,88.034-36.465   C291.55,244.52,304.5,213.255,304.5,180s-12.95-64.52-36.465-88.035S213.256,55.5,180.001,55.5L180.001,55.5z"/>
</g>
<polyline fill="none" stroke="#000000" stroke-width="12" stroke-linecap="round" points="180.001,92.883 180.001,180   218.793,218.791 "/>
</svg>