<svg xmlns="http://www.w3.org/2000/svg" xmlns:xlink="http://www.w3.org/1999/xlink" version="1.1" id="Layer_1" x="0px" y="0px" width="100.0px" height="100px" viewBox="0 0 360 360" enable-background="new 0 0 360 360" xml:space="preserve">
<path d="M4.651,191.617H66.5l-0.825,13.039h9.686l-0.87-13.039h211.095l-0.825,13.039h9.687l-0.87-13.039h61.718l0.015-4.211  c-29.428-8.134-65.762-32.012-65.762-32.012c-58.49,34.632-115.155,33.127-151.941,25.497c-39.911-8.279-66.32-24.984-66.583-25.152  l-0.617-0.395l-0.61,0.405c-0.354,0.234-35.679,23.526-65.103,31.658 M308.887,169.544c2.381,1.321,4.91,2.688,7.55,4.068v13.793  h-7.55V169.544z M306.639,187.406h-7.249v-23.319c2.159,1.284,4.598,2.703,7.249,4.199V187.406z M318.684,174.776  c2.442,1.252,4.965,2.505,7.543,3.734v8.896h-7.543V174.776z M328.475,179.57c2.397,1.115,4.833,2.201,7.287,3.242v4.594h-7.287  V179.57z M338.009,183.748c3.236,1.327,6.487,2.561,9.712,3.658h-9.712V183.748z M289.569,158.018h-0.047  c0.009-0.005,0.016-0.009,0.024-0.014C289.554,158.007,289.562,158.013,289.569,158.018z M152.497,185.715  c2.461,0.333,4.977,0.635,7.554,0.894v0.798h-7.554V185.715z M150.249,187.406h-7.611v-3.254c2.464,0.446,5.002,0.862,7.611,1.243  V187.406z M162.298,186.814c2.728,0.246,5.515,0.445,8.358,0.592h-8.358V186.814z M199.74,186.94c2.49-0.211,5.012-0.48,7.554-0.789  v1.255h-7.554V186.94z M197.492,187.406h-4.681c1.55-0.08,3.109-0.179,4.681-0.295V187.406z M209.542,185.874  c2.512-0.333,5.052-0.728,7.609-1.164v2.696h-7.609V185.874z M219.399,184.322c2.817-0.513,5.662-1.101,8.528-1.748v4.832h-8.528  V184.322z M230.176,182.069c2.509-0.597,5.039-1.263,7.581-1.969v7.306h-7.581V182.069z M240.004,179.471  c2.302-0.667,4.614-1.382,6.939-2.145v10.08h-6.939V179.471z M249.191,176.567c2.472-0.841,4.951-1.72,7.445-2.675v13.514h-7.445  V176.567z M258.885,172.998c2.494-0.987,4.995-2.028,7.508-3.134v17.542h-7.508V172.998z M268.641,168.859  c2.732-1.241,5.477-2.561,8.228-3.951v22.498h-8.228V168.859z M140.39,183.738v3.668h-8.527v-5.482  c1.71,0.397,3.438,0.785,5.201,1.151C138.155,183.303,139.266,183.523,140.39,183.738z M93.398,169.443  c2.352,0.993,4.854,2.005,7.508,3.019v14.944h-7.508V169.443z M91.15,187.406h-8.228V164.7c2.438,1.184,5.186,2.457,8.228,3.78  V187.406z M103.153,173.306c2.374,0.88,4.862,1.755,7.446,2.617v11.484h-7.446V173.306z M112.847,176.66  c2.243,0.723,4.555,1.432,6.938,2.121v8.625h-6.938V176.66z M122.034,179.417c2.46,0.685,4.986,1.347,7.581,1.976v6.014h-7.581  V179.417z M33.564,178.61c2.577-1.226,5.1-2.475,7.542-3.725v12.521h-7.542V178.61z M31.316,187.406h-7.288v-4.503  c2.454-1.037,4.889-2.123,7.288-3.235V187.406z M43.354,173.723c2.636-1.375,5.168-2.74,7.55-4.061v17.744h-7.55V173.723z   M53.152,168.406c2.646-1.492,5.084-2.908,7.249-4.192v23.192h-7.249V168.406z M21.781,183.836v3.57h-9.497  C15.437,186.333,18.616,185.13,21.781,183.836z M62.648,187.406v-24.539c2.466-1.488,4.473-2.738,5.903-3.644l-1.784,28.183H62.648z   M72.324,159.13c1.838,1.058,4.657,2.613,8.351,4.463v23.813H74.21L72.324,159.13z M279.116,187.406v-23.639  c2.836-1.474,5.681-3.042,8.53-4.682l-1.793,28.321H279.116z M291.415,159.2c1.389,0.88,3.336,2.094,5.727,3.539v24.668h-3.845  L291.415,159.2z"/>
</svg>