<svg xmlns="http://www.w3.org/2000/svg" xmlns:xlink="http://www.w3.org/1999/xlink" version="1.1" id="Layer_1" x="0px" y="0px" width="100px" height="100px" viewBox="0 0 100 100" enable-background="new 0 0 100 100" xml:space="preserve">
<g>
	<path d="M74.59,60.789V10.702c0-3.977-3.225-7.201-7.201-7.201H32.953c-3.977,0-7.201,3.225-7.201,7.201v50.087H74.59z    M33.279,43.92c0-1.07,0.867-1.938,1.938-1.938s1.938,0.868,1.938,1.938v10.853c0,1.07-0.868,1.938-1.938,1.938   s-1.938-0.867-1.938-1.938V43.92z"/>
	<path d="M25.752,63.013v23.986c0,3.977,3.225,7.2,7.201,7.2h0.147c0.388,1.271,1.556,2.201,2.952,2.201h7.529   c1.397,0,2.564-0.931,2.952-2.201h7.11c0.388,1.271,1.555,2.201,2.953,2.201h7.528c1.397,0,2.565-0.931,2.952-2.201h0.311   c3.977,0,7.201-3.224,7.201-7.2V63.013H25.752z M37.155,80.044c0,1.07-0.868,1.938-1.938,1.938s-1.938-0.867-1.938-1.938V69.191   c0-1.07,0.867-1.938,1.938-1.938s1.938,0.868,1.938,1.938V80.044z"/>
</g>
</svg>