<svg xmlns="http://www.w3.org/2000/svg" xmlns:xlink="http://www.w3.org/1999/xlink" version="1.1" id="Layer_1" x="0px" y="0px" width="100px" height="100px" viewBox="0 0 100 100" enable-background="new 0 0 100 100" xml:space="preserve">
<g>
	<path d="M37.332,39.486c2.968,2.543,14.123,10.886,30.566,8.902c0.846-4.197-1.314-8.591-5.328-11.698l7.464-9.887l-1.127-0.852   l-7.487,9.917c-1.745-1.149-3.77-2.069-6.001-2.661c-1.336-0.354-2.663-0.568-3.963-0.657l-1.427-11.699l-1.402,0.172l1.399,11.48   C44.181,32.528,39.171,35.179,37.332,39.486z"/>
	<path d="M87.229,60.047c-3.748-2.852-14.064-8.346-18.724-10.783c-5.162,0.684-9.832,0.37-13.912-0.478   c-9.506-1.977-15.845-6.834-17.956-8.653c-0.895-0.046-18.249-0.94-24.204-0.192C6.596,40.672-3.29,40.277,25.897,51.127   l-6.534,5.072l1.443,1.861l7.695-5.973c0.587,0.215,1.183,0.43,1.798,0.654c6.207,2.223,14.515,4.381,17.865,5.223l-1.51,8.125   l2.315,0.43l1.473-7.924c4.035,1.109,9.985,2.654,14.909,3.559c1.509,0.271,2.932,0.521,4.283,0.756l3.135,9.195l2.229-0.76   l-2.723-7.99C100.205,67.986,91.792,63.514,87.229,60.047z M28.135,45.723c-2.149,0.57-4.162,0.014-4.495-1.243   c-0.335-1.257,1.136-2.739,3.286-3.31c2.15-0.57,6.439-0.618,6.772,0.639C34.032,43.067,30.284,45.153,28.135,45.723z    M43.903,51.766c-1.071,1.191-3.047,1.607-4.414,0.934c-1.368-0.676-1.607-2.188-0.537-3.378c1.071-1.19,4.181-2.866,5.547-2.191   C45.867,47.804,44.974,50.575,43.903,51.766z M58.445,58.365c-1.453-0.377-2.705-2.014-2.798-3.66   c-0.095-1.643,0.906-4.408,2.358-4.03c1.45,0.377,2.804,3.758,2.897,5.399C60.998,57.719,59.897,58.744,58.445,58.365z    M76.805,58.219c-0.657,0.967-2.681,0.738-4.521-0.514c-1.84-1.25-4.745-4.371-4.086-5.338c0.656-0.969,4.63,0.586,6.467,1.836   C76.505,55.453,77.462,57.25,76.805,58.219z"/>
</g>
</svg>