<svg xmlns="http://www.w3.org/2000/svg" xmlns:xlink="http://www.w3.org/1999/xlink" version="1.1" id="Layer_1" x="0px" y="0px" width="100.0px" height="100px" viewBox="0 0 600 600" enable-background="new 0 0 600 600" xml:space="preserve">
<g>
	<path fill-rule="evenodd" clip-rule="evenodd" d="M364.833,168.051c-11.984-17.731-0.066-45.751,23.882-36.618   c-11.205-18.388,9.727-54.436,31.045-35.026c-1.313-27.983,49.775-28.123,50.151-1.592c33.365,1.569,23.502,62.71-13.533,46.967   c6.29,22.873-13.269,37.35-33.434,28.658c12.427,23.456-18.416,43.219-36.618,25.474c-36.289,15.984-56.972,47.575-81.196,75.624   c81.704-6.327,136.273,20.415,130.551,100.302c-3.462,48.338-42.636,74.069-73.235,100.302   c-31.926,27.367-62.357,56.516-85.178,88.361c-13.572-36.257-43.26-62.211-74.032-86.77   c-30.74-24.533-69.398-50.756-66.868-101.098c3.734-74.3,52.591-113.465,137.716-103.485c-14.054-23.095-32.271-48.926-56.52-64.48   c-28.591,15.092-52.25-19.534-28.658-39.802c-10.816,3.847-30.917,10.622-42.986,3.184c-3.969-8.19,0.85-17.166,3.98-23.085   c-15.735-4.768-32.62-7.235-38.21-20.697c-8.136-19.59,10.512-37.607,30.25-39.006c7.532-26.424,63.2-29.553,56.519,9.552   c17.999-10.99,41.771,8.293,34.23,30.25c27.98-1.621,28.304,44.161,13.533,58.111c16.233,23.038,31.531,47.012,39.006,78.808   c2.073-22.604,0.583-48.771,3.98-70.052c-8.374-6.268-20.68-12.571-23.086-24.677c-3.159-15.9,6.236-25.701,12.737-35.822   c-8.11-11.454-13.466-20.441-11.145-34.23c3.745-22.256,40.088-42.452,63.684-31.045c11.195,5.412,27.89,27.836,12.736,41.394   c23.605,2.19,21.804,46.954,2.389,52.539c2.831,3.059,10.071,14.696,3.979,22.29c-0.151,0.645-0.798,0.793-0.796,1.592   C355.299,179.215,360.391,173.958,364.833,168.051z M297.965,260.393c1.161,2.071,2.343-1.513,2.389-1.592   c2.866-4.99,4.572-10.442,7.164-15.125c10.484-18.942,24.69-37.451,35.026-52.539c-3.586,4.608-13.202,7.206-19.901,3.98   C315.439,217.898,303.342,235.785,297.965,260.393z"/>
	<path fill-rule="evenodd" clip-rule="evenodd" fill="#000000" d="M322.643,195.117c6.699,3.226,16.315,0.628,19.901-3.98   c-10.336,15.088-24.542,33.597-35.026,52.539c-2.592,4.683-4.298,10.135-7.164,15.125c-0.046,0.079-1.228,3.663-2.389,1.592   C303.342,235.785,315.439,217.898,322.643,195.117z"/>
</g>
</svg>