<svg xmlns="http://www.w3.org/2000/svg" xmlns:xlink="http://www.w3.org/1999/xlink" version="1.1" id="Layer_1" x="0px" y="0px" width="100px" height="100px" viewBox="0 0 100 100" enable-background="new 0 0 100 100" xml:space="preserve">
<path display="none" d="M1.19,28.982l98.031,40.926c0,0-2.039-4.477-4.886-8.01c-4.646-5.767-18.101-17.459-18.101-17.459  c4.726-12.094-1.202-23.626-10.652-28.032c-9.45-4.406-25.468-2.563-31.394,11.053c-3.524,0.046-13.548-0.812-21.705-0.4  C6.365,27.369,1.19,28.982,1.19,28.982z"/>
<g>
	<g>
		<path fill="#000000" d="M66.801,61.894c0.001-1.904-0.582-3.11-1.476-3.833c-0.894-0.724-2.091-0.966-3.311-0.967    c-1.583,0-0.847,0.001-2.427,0h-0.045l0.002,0.007c-1.29,0.054-2.319,1.111-2.319,2.416c-0.003,1.303,1.029,2.362,2.317,2.413    v0.007h0.045c0.073,0.002,0.135,0,0.2,0.002c1.178,0.07,2.117,1.011,2.183,2.195v5.039c-0.072,1.203-1.053,2.156-2.266,2.193    h-0.132c-1.22-0.038-2.2-1.006-2.262-2.22l0.001-3.866v-1.397l-0.001-0.602c0.001-0.784-0.635-1.425-1.42-1.425h-0.827    l-0.014-0.002l-0.008-0.003h-5.031c-1.201-0.072-2.156-1.057-2.186-2.278l-0.001-0.024l0.001-0.036v-0.041    c0.025-1.252,1.024-2.264,2.266-2.295h0.043l-0.001-0.003h0.018c1.333,0,2.416-1.083,2.416-2.422v-9.503    c0-1.265,0.993-2.291,2.235-2.34c0.029,0,0.06,0.004,0.092,0.004c1.329,0,2.41-1.077,2.415-2.409l0.003-0.007l-0.001-0.005    c0.001-0.104,0.001-0.196,0.001-0.281c0.126-1.059,0.95-1.899,1.998-2.041c0.057-0.004,0.108-0.008,0.162-0.015    c0.029-0.001,0.062-0.005,0.091-0.005l0.038-0.002v-0.009c1.117-0.175,1.743-0.596,2.075-1.338c0.333-0.75,0.38-1.813,0.38-3.287    v-12.05c0-1.338-1.082-2.421-2.414-2.422c-1.335,0.002-2.417,1.084-2.417,2.423v9.505h0.046l-0.005,0.007l-0.045-0.001    c0,1.271-1.011,2.301-2.27,2.332L54.91,33.31v0.003l-0.998-0.001c-0.783,0.001-1.417,0.638-1.417,1.423l-0.003,0.856    c-0.003,0.046-0.003,0.096-0.004,0.143l-0.008,0c0,1.27-1.011,2.3-2.27,2.332l-0.042,0.001l-0.001,0.002h-0.023    c-1.26-0.008-2.283-1.017-2.314-2.275l-0.001-0.042l-0.001-0.001l-0.001-1.016c0-0.787-0.634-1.423-1.418-1.423h-1.022    c-1.234-0.006-2.237-0.977-2.308-2.197c0-0.057,0-0.11-0.001-0.174l0.001-0.043l-0.014,0.001c-0.039-1.3-1.101-2.342-2.406-2.342    c-1.306-0.001-2.366,1.04-2.408,2.341l-0.003,0.001v4.941c-0.057,1.22-1.042,2.195-2.266,2.227l-0.042,0.001v0.002l-11.977-0.001    c-1.574,0-2.75,0.803-3.528,1.801c-0.767,0.983-1.151,2.154-1.164,2.958c-1.858,0.009-3.05,0.666-3.771,1.594    c-0.727,0.936-0.977,2.14-0.977,3.227v4.69c-1.524,0-0.975,0-2.541,0h-0.042v0.017c-1.212,0.132-2.155,1.155-2.155,2.404    c0,1.248,0.944,2.276,2.155,2.407v0.016h5.055c1.24,0.031,2.237,1.03,2.269,2.272l0.001,0.042h0.002v0.018l-0.001,0.035v0.001    l0.001,0.036v0.103c0,0.17,0.031,0.33,0.081,0.479v0.002c0.274,1.036,1.214,1.802,2.333,1.802c1.047,0,1.938-0.671,2.272-1.604    c0.001-0.002,0.001-0.002,0.001-0.002c0-0.002,0-0.002,0-0.002c0.092-0.199,0.146-0.427,0.145-0.681v-0.216    c0.027-1.245,1.026-2.25,2.267-2.28l0.042-0.001v-0.004h0.027c0.27,0,0.374,0,0.374,0l0.029-0.014l0.013-0.029l-0.008-0.02    c1.075-0.243,1.878-1.206,1.878-2.356c0-1.294-1.013-2.346-2.287-2.413v-0.012h-0.067c-1.239-0.029-2.237-1.03-2.268-2.274    l0-0.042h-0.001v-4.801c0.013-1.258,1.019-2.277,2.27-2.309l0.042,0h4.926c1.19,0.082,2.132,1.061,2.163,2.268l0.001,0.041h0.001    v1.016c0,0.787,0.636,1.423,1.42,1.423h6.725c0.784,0,1.418-0.636,1.418-1.423v-0.955l0.014,0.001v-0.091    c0.023-1.224,0.992-2.213,2.208-2.279h0.289c1.153,0.079,2.071,0.994,2.162,2.142v5.034c-0.043,1.222-1.023,2.205-2.242,2.246    c-0.025,0-5.193-0.002-5.223-0.002c-1.318,0-2.389,1.059-2.414,2.372l-0.006,0.042l0,0.002v4.825    c-0.001,0.049,0.009,0.093,0.013,0.135c0.095,1.178,1.031,2.117,2.209,2.214c0.03,0.008,0.057,0.015,0.083,0.017h5.403    c1.15,0.071,2.071,0.97,2.176,2.11v4.935c0,0.292,0.06,0.568,0.163,0.821c-0.001,0.001-0.001,0.001-0.001,0.001    c0.001,0,0.001,0,0.001,0.002H47.9c0.321,0.958,1.222,1.646,2.285,1.646c0.058,0,0.111-0.002,0.165-0.005    c1.173,0.098,2.096,1.073,2.127,2.274v0.04h0.003v0.013h-0.001c0,1.276-1.012,2.311-2.271,2.343h-0.042v0.002    c-1.271,0.01-2.306,1.005-2.389,2.263l-0.003,0.014l-0.001,0.005l0.001,0.052c-0.001,0.026-0.004,0.055-0.004,0.091    c0,0.033,0.004,0.063,0.004,0.091c-0.002,0.437-0.021,1.237-0.033,1.794c-0.002,0.213-0.005,2.938-0.005,3.045    c0,1.337,1.08,2.42,2.416,2.423c1.265,0,2.296-0.976,2.401-2.213l0.015-0.001v-0.043c0-1.57,0-1.147,0-2.676h2.344    c0.029-0.002,0.063-0.011,0.096-0.022c1.271-0.06,2.281-1.098,2.302-2.379l0.001-0.011l0.003-0.004v-0.004    c0-1.27,1.011-2.304,2.27-2.335l0.042-0.001v-0.004l2.702,0.004c1.585-0.004,2.705-0.423,3.43-1.237    c0.727-0.815,1.045-2.016,1.045-3.564V61.894z M21.312,76.121h-8.739c-1.544,0-2.795,1.255-2.795,2.802l0,8.761    c0,1.547,1.251,2.805,2.796,2.805h8.738c1.543,0,2.795-1.258,2.795-2.805v-8.761C24.108,77.376,22.856,76.121,21.312,76.121z     M78.999,23.885h8.732c1.542-0.001,2.793-1.255,2.793-2.802v-8.751c0-1.55-1.251-2.803-2.793-2.804h-8.732    c-1.543,0-2.794,1.254-2.794,2.803v8.75C76.205,22.629,77.456,23.884,78.999,23.885z M4.46,33.397h24.957    c2.303,0,4.171-1.873,4.171-4.182L33.587,4.197c0-2.31-1.866-4.182-4.17-4.182l-24.956,0c-2.304,0-4.172,1.873-4.172,4.182v25.02    C0.289,31.525,2.156,33.398,4.46,33.397z M5.12,6.654c0-0.497,0.2-0.945,0.524-1.271C5.969,5.06,6.415,4.858,6.911,4.858h20.054    c0.496,0,0.943,0.202,1.267,0.527c0.325,0.325,0.525,0.772,0.525,1.27v20.104c0.002,0.495-0.2,0.945-0.524,1.269    c-0.324,0.326-0.771,0.527-1.267,0.527H6.912c-0.496,0-0.942-0.202-1.267-0.527C5.32,27.704,5.12,27.255,5.12,26.759V6.654z     M29.417,66.626L4.459,66.627c-2.303-0.001-4.17,1.872-4.17,4.181v25.02c0,2.311,1.867,4.183,4.17,4.183h24.959    c2.304,0,4.169-1.872,4.17-4.183v-25.02C33.587,68.499,31.721,66.626,29.417,66.626z M28.756,93.371    c0,0.494-0.2,0.942-0.524,1.268c-0.324,0.325-0.771,0.527-1.266,0.529H6.912c-0.496-0.002-0.942-0.204-1.267-0.529    C5.32,94.313,5.12,93.865,5.12,93.372V73.266c0-0.497,0.2-0.944,0.524-1.27c0.325-0.325,0.771-0.526,1.267-0.526h20.054    c0.495,0,0.942,0.201,1.266,0.526c0.325,0.325,0.527,0.772,0.524,1.27V93.371z M70.896,33.396h24.957    c2.305,0.001,4.17-1.871,4.17-4.18V4.197c0-2.31-1.864-4.182-4.17-4.182H70.896c-2.304,0-4.171,1.874-4.171,4.182v25.019    C66.726,31.525,68.593,33.396,70.896,33.396z M71.558,6.654c0-0.497,0.2-0.945,0.525-1.271c0.322-0.324,0.771-0.526,1.265-0.526    h20.055c0.495,0,0.943,0.202,1.267,0.526c0.323,0.326,0.522,0.773,0.526,1.271v20.104c0,0.497-0.203,0.946-0.526,1.27    c-0.323,0.327-0.771,0.527-1.267,0.527H73.348c-0.494,0-0.942-0.201-1.265-0.527c-0.325-0.324-0.525-0.773-0.525-1.27V6.654z     M40.672,14.372c0.015,0,0.027-0.001,0.041-0.001h0.042c1.565,0,0.718,0,2.238,0c0,0.134,0.002,0.266,0.008,0.388v1.953    c0,1.335,1.08,2.417,2.411,2.417c1.331,0,2.41-1.083,2.41-2.417v-0.17l-0.001-4.845c0.128-1.15,1.089-2.048,2.267-2.078h0.041    V9.615h0.013c1.272,0,2.305,1.014,2.337,2.277l0.001,0.042h0.001v4.771c0,1.339,1.081,2.423,2.416,2.423    c1.333,0,2.416-1.084,2.416-2.423V9.613h2.335c1.332,0,2.414-1.083,2.414-2.423c0-1.335-1.082-2.422-2.414-2.422l-2.335,0V2.436    c0-1.336-1.083-2.421-2.416-2.421c-0.054,0-0.103,0.003-0.153,0.008c-0.051-0.004-0.101-0.008-0.153-0.008    c-1.166,0-2.109,0.946-2.109,2.115v0.303c0,1.27-1.014,2.301-2.279,2.332l-0.044,0v0.005h-0.01V4.768    c-1.22,0-2.215-0.929-2.324-2.117c-0.001-0.069-0.002-0.136,0-0.218l-0.002,0c0-1.334-1.077-2.417-2.408-2.417    c-1.331,0-2.411,1.082-2.411,2.417v1.99c-0.006,0.123-0.01,0.25-0.01,0.385v4.722c-1.518,0-0.671,0-2.236,0l-0.042,0l0,0.004    C40.7,9.531,40.687,9.53,40.673,9.53c-1.335,0-2.417,1.083-2.417,2.421C38.257,13.288,39.339,14.372,40.672,14.372z     M47.822,92.815c0.001-1.34-1.083-2.425-2.415-2.425c-0.046,0-0.09,0.005-0.132,0.008l-0.016-0.004l-0.006-0.004h-0.006    c-1.303,0-0.907,0-2.168,0c0-1.524,0-0.765,0-2.336v-0.043h-0.007c-0.036-1.304-1.099-2.351-2.412-2.351    c-1.333,0-2.415,1.082-2.415,2.419v0.002l0.002,0.037v7.072c-0.001,1.747,0.519,2.95,1.381,3.714    c0.862,0.766,2.06,1.086,3.406,1.086c1.829,0,3.034-0.602,3.772-1.509c0.74-0.903,1.014-2.104,1.016-3.291    C47.821,93.827,47.823,94.178,47.822,92.815z M95.183,59.517c0,1.337,1.083,2.42,2.417,2.42s2.414-1.083,2.414-2.42    c0-1.336-1.08-2.423-2.414-2.423C96.266,57.095,95.184,58.18,95.183,59.517z M83.675,80.886v-0.005h-0.106l-0.011-0.003h-0.002    l-0.015,0.003h-5.096c-1.185-0.093-2.12-1.072-2.152-2.28l-0.002-0.042H76.29v-0.012c0-1.263,0.994-2.293,2.241-2.342h4.834    c1.334,0,2.416-1.082,2.416-2.42c0-1.335-1.082-2.42-2.416-2.42h-0.008c-1.246,0.001-2.258-0.98-2.323-2.217v-4.945    c0.039-1.239,1.031-2.231,2.267-2.263l0.045-0.002l4.76-0.002c1.336,0,2.419-1.083,2.42-2.424    c-0.001-1.339-1.084-2.426-2.42-2.426L81.44,57.09c-0.049-0.003-0.1,0.003-0.146,0.005h-2.909    c-1.155-0.118-2.059-1.088-2.089-2.273v-0.043h-0.008v-2.356c1.26-0.009,2.438-0.415,3.309-1.21    c0.871-0.798,1.426-1.985,1.436-3.545c1.467,0,0.985,0,2.334,0c0.058,0,0.108,0.002,0.169,0l0.045,0.002v-0.014    c1.23-0.109,2.2-1.143,2.2-2.407c0-1.335-1.08-2.417-2.412-2.417h-1.932c-0.059-0.003-0.118-0.005-0.18-0.005h-7.322    c-1.349,0-2.441,1.078-2.474,2.42h-0.004c0,1.27-1.013,2.3-2.271,2.331l-0.043,0.001l-0.001,0.004l-3.815-0.001    c-0.05-0.004-0.102-0.008-0.153-0.008h-5.529c-1.335,0-2.42,1.085-2.42,2.425c0,1.342,1.085,2.426,2.42,2.426h9.528    c1.245,0.025,2.25,1.026,2.279,2.274l0.003,0.041h0.004l-0.002,11.912c0.002,1.639,0.441,2.841,1.264,3.633    c0.815,0.784,1.999,1.159,3.484,1.166l-0.001,2.33c0,1.271-1.012,2.3-2.27,2.332h-0.043v0.009h-2.395    c-1.029,0-2.224,0.251-3.165,0.994c-0.941,0.742-1.62,1.975-1.62,3.918c0.004,1.962,0.66,3.145,1.593,3.823    c0.917,0.672,2.095,0.859,3.155,0.862c0.008,1.682,0.452,2.872,1.271,3.642c0.818,0.768,2.002,1.11,3.473,1.119v6.967    c-0.004,0.04-0.006,0.078-0.006,0.122c0,1.337,1.081,2.42,2.416,2.423c1.331-0.003,2.409-1.082,2.414-2.418h0.005v-9.635    c0.062-1.215,1.047-2.185,2.267-2.214l0.039-0.001v-0.001h0.335v-0.01c1.278-0.062,2.295-1.118,2.297-2.415    C85.97,82.002,84.953,80.948,83.675,80.886z M2.478,42.912h9.716c1.334,0,2.416-1.085,2.416-2.422    c0-1.337-1.082-2.421-2.415-2.421H2.478c-1.333,0-2.416,1.084-2.416,2.421C0.062,41.826,1.144,42.912,2.478,42.912z M40.53,83.17    c1.334,0,2.417-1.084,2.417-2.421V69.048c0-1.339-1.083-2.422-2.417-2.422c-1.333,0-2.414,1.083-2.414,2.421v11.702    C38.116,82.086,39.197,83.17,40.53,83.17z M97.599,47.581h-4.731c-1.332,0-2.417,1.084-2.416,2.422    c0,1.337,1.084,2.421,2.416,2.421h4.731c1.333,0,2.415-1.084,2.415-2.421S98.932,47.581,97.599,47.581z M69.131,90.391    c-1.335,0-2.418,1.083-2.414,2.425v4.753c0,1.337,1.079,2.42,2.414,2.423c1.337-0.003,2.417-1.086,2.414-2.424l0.003-4.752    C71.545,91.474,70.465,90.391,69.131,90.391z M97.599,95.133h-0.291c-1.118-0.14-1.989-1.074-2.034-2.223v-0.094    c0-1.34-1.082-2.426-2.415-2.426c-1.337-0.001-2.419,1.086-2.419,2.426v0.252c-0.13,1.142-1.086,2.033-2.254,2.063l-0.042,0.002    v0.001l-0.02-0.001c-1.335,0.001-2.419,1.088-2.422,2.429c0.003,1.341,1.087,2.43,2.422,2.427h9.475    c1.339,0.003,2.421-1.088,2.421-2.427C100.02,96.22,98.935,95.134,97.599,95.133z M7.39,52.427l0.042-0.003h0.017    c1.334,0,2.416-1.084,2.414-2.421c0-1.338-1.081-2.422-2.414-2.422H5.076c-0.67,0.001-1.86,0.379-2.89,1.226    c-1.03,0.847-1.897,2.167-1.897,4.044v6.666c0,1.337,1.082,2.422,2.416,2.422s2.416-1.085,2.416-2.422l-0.001-4.758    C5.12,53.489,6.131,52.457,7.39,52.427z M64.387,42.912c1.334,0,2.414-1.086,2.414-2.422c0-1.337-1.082-2.421-2.414-2.421    c-1.336,0-2.418,1.084-2.418,2.421C61.969,41.826,63.051,42.912,64.387,42.912z M50.023,21.571c-1.333,0-2.417,1.086-2.417,2.423    v4.758c0,1.338,1.084,2.421,2.417,2.421c1.333,0,2.415-1.085,2.415-2.421v-4.758C52.438,22.658,51.355,21.571,50.023,21.571z     M97.613,38.068h-4.745c-1.333,0-2.416,1.084-2.416,2.421c0,1.336,1.083,2.422,2.416,2.422h4.745c1.334,0,2.416-1.086,2.416-2.422    C100.027,39.152,98.947,38.068,97.613,38.068z M97.604,66.607h-9.495c-1.334,0-2.413,1.084-2.413,2.422s1.079,2.423,2.414,2.423    h9.494c1.337,0,2.416-1.085,2.416-2.423S98.94,66.607,97.604,66.607z"/>
	</g>
</g>
<g>
	<g>
		<path fill="#000000" d="M21.467,9.591h-8.697c-1.538,0-2.784,1.248-2.784,2.784v8.697c0,1.538,1.247,2.785,2.784,2.785h8.696    c1.538,0,2.785-1.247,2.785-2.785v-8.697C24.252,10.838,23.005,9.591,21.467,9.591z M31.313,56.916    c-1.33,0.001-2.406,1.078-2.406,2.405c0,1.33,1.076,2.406,2.406,2.406c1.329,0,2.406-1.076,2.405-2.406    C33.719,57.994,32.642,56.917,31.313,56.916z M31.313,47.344c-1.329,0-2.405,1.078-2.406,2.408c0,1.329,1.077,2.405,2.406,2.405    c1.329,0,2.407-1.076,2.406-2.405C33.718,48.422,32.642,47.344,31.313,47.344z M97.48,61.667c1.329,0,2.406-1.075,2.404-2.406    c0-1.329-1.075-2.404-2.403-2.404c-1.331,0-2.406,1.075-2.409,2.405C95.072,60.592,96.15,61.667,97.48,61.667z M92.755,80.487    c-1.33-0.001-2.407,1.079-2.407,2.405c0,1.33,1.077,2.406,2.407,2.407c1.328,0,2.405-1.077,2.405-2.408    C95.16,81.564,94.083,80.487,92.755,80.487z M97.487,85.185c-1.331,0-2.409,1.077-2.407,2.405c0,1.328,1.076,2.404,2.407,2.408    c1.328-0.004,2.405-1.08,2.404-2.41C99.892,86.262,98.814,85.185,97.487,85.185z M88.045,85.185c-1.33,0-2.407,1.077-2.407,2.405    s1.078,2.408,2.405,2.404c1.33,0,2.408-1.076,2.408-2.404C90.451,86.259,89.373,85.185,88.045,85.185z M59.667,94.675    c-1.327,0-2.405,1.077-2.405,2.408c0,1.327,1.079,2.405,2.405,2.405c1.33-0.001,2.408-1.078,2.408-2.405    C62.075,95.753,60.996,94.675,59.667,94.675z M59.667,84.542c-1.327,0-2.405,1.078-2.405,2.407c0,1.326,1.079,2.405,2.405,2.405    c1.33-0.001,2.408-1.079,2.408-2.405C62.075,85.621,60.996,84.542,59.667,84.542z"/>
	</g>
</g>
</svg>