<svg xmlns="http://www.w3.org/2000/svg" xmlns:xlink="http://www.w3.org/1999/xlink" version="1.0" id="Capa_1" x="0px" y="0px" width="100px" height="100px" viewBox="0 0 100 100" enable-background="new 0 0 100 100" xml:space="preserve">
<path d="M50,0C22.386,0,0,22.386,0,50s22.386,50,50,50s50-22.386,50-50S77.614,0,50,0z M16.487,37.5c0-6.903,5.597-12.5,12.5-12.5  c6.904,0,12.5,5.597,12.5,12.5S35.891,50,28.987,50C22.083,50,16.487,44.403,16.487,37.5z M76.505,74.037  C69.421,81.123,60.007,85.023,50,85.025c-10.008,0-19.421-3.902-26.506-10.987c-1.562-1.562-1.562-4.095-0.001-5.656  c1.562-1.562,4.096-1.562,5.657,0c5.574,5.573,12.979,8.644,20.85,8.644c7.87,0,15.273-3.069,20.85-8.645  c1.561-1.562,4.094-1.562,5.655,0S78.066,72.477,76.505,74.037z M71.014,50c-6.903,0-12.5-5.597-12.5-12.5S64.11,25,71.014,25  c6.904,0,12.5,5.597,12.5,12.5S77.918,50,71.014,50z"/>
</svg>