<svg xmlns="http://www.w3.org/2000/svg" xmlns:xlink="http://www.w3.org/1999/xlink" xmlns:a="http://ns.adobe.com/AdobeSVGViewerExtensions/3.0/" version="1.1" x="0px" y="0px" width="93px" height="93px" viewBox="-12.156 -9.25 93 93" enable-background="new -12.156 -9.25 93 93" xml:space="preserve">
<defs>
</defs>
<path d="M67.792,39.664C67.097,28.267,62.478,17.294,55.28,9.92c-5.333-5.763-12.167-9.524-19.92-9.885  C25.905-0.414,17.843,3.49,11.879,9.931C7.17,14.735,3.69,21.078,1.75,28.157c-3.251,11.86-2.152,25.74,4.805,37.796  c4.237,6.597,6.517,8.713,9.598,8.299c1.415,0.197,2.911-0.254,4.821-1.176c1.308-0.631,2.022-1.325,0.693-3.406  c-6.158-9.575-10.791-16.728-8.924-32.608c0.03-0.265,0.07-0.521,0.107-0.775c1.993-14.28,11.651-21.763,21.403-22.113  c11.114,0.377,21.86,10.075,20.973,29.551c-0.011,0.244-0.024,0.477-0.035,0.723c-0.566,9.374-3.75,15.334-7.227,21.934  c-1.181,2.242-2.471,4.938-1.802,5.963c1.376,2.127,2.978,2.883,4.698,2.587c3.237,0.598,7.025-3.18,10.553-8.978  C66.443,57.977,68.347,48.69,67.792,39.664z M8.467,36.68c-0.54,3.211-0.153,5.605-0.153,5.605l-3.017-0.254  C4.9,40.781,5,38.387,5.432,36.172C5.585,35.387,8.601,35.881,8.467,36.68z M10.545,27.711c-0.036,0.096-0.065,0.192-0.097,0.291  c-0.005,0.016-0.011,0.027-0.019,0.048c-0.024,0.075-0.055,0.15-0.076,0.228c-0.002,0.021-0.011,0.026-0.013,0.042  c-0.056,0.176-0.108,0.35-0.154,0.505c0,0.016-0.008,0.032-0.01,0.038c-0.024,0.075-0.041,0.139-0.059,0.216  c0,0.011-0.008,0.011-0.008,0.021c-0.02,0.075-0.042,0.133-0.06,0.213c0,0.011,0,0.011-0.005,0.016  c-0.014,0.067-0.027,0.136-0.04,0.19c-0.005,0.005-0.011,0.021-0.011,0.027c-0.032,0.12-0.058,0.237-0.079,0.344  c-0.002,0.011-0.002,0.021-0.002,0.021c-0.011,0.043-0.027,0.088-0.029,0.125c-0.005,0.016-0.005,0.021-0.005,0.021  c-0.019,0.091-0.032,0.171-0.048,0.232c0,0,0,0.016,0,0.021c-0.008,0.032-0.008,0.048-0.013,0.075H9.812  c-0.005,0.032-0.008,0.043-0.008,0.053c0,0.011,0,0.011,0,0.021c-0.009,0.005-0.009,0.016-0.009,0.027l0,0  c-0.003,0.011-0.003,0.016-0.003,0.016l-2.789-1.234c0-1.325,0.811-3.556,1.875-5.52c0.019-0.027,0.047-0.059,0.068-0.075  c0,0,0.013-0.01,0.019-0.016c0.021-0.016,0.056-0.038,0.089-0.048h0.011c0.035-0.021,0.067-0.027,0.104-0.027  c0.011,0,0.014,0,0.021,0c0.047-0.01,0.087-0.01,0.138-0.01c0.005,0,0.008,0,0.016,0c0.044,0,0.098,0.01,0.151,0.01  c0,0.005,0,0.005,0.005,0.005c0.058,0,0.119,0.021,0.179,0.032l0.005,0.005c0.127,0.032,0.255,0.064,0.385,0.123l0,0  c0.214,0.088,0.429,0.189,0.629,0.307h0.005c0.048,0.04,0.091,0.067,0.133,0.099c0.007,0,0.012,0,0.015,0.005  c0.048,0.032,0.093,0.054,0.133,0.091l0,0c0.089,0.07,0.176,0.136,0.247,0.201c0.009,0,0.018,0.011,0.02,0.016  c0.035,0.021,0.056,0.053,0.087,0.075c0.007,0.011,0.011,0.021,0.021,0.026c0.022,0.021,0.045,0.048,0.064,0.075  c0.011,0.011,0.019,0.011,0.024,0.032c0.024,0.024,0.045,0.045,0.062,0.078c0,0,0.011,0.005,0.014,0.011  c0.025,0.032,0.041,0.059,0.057,0.096c0,0,0.003,0.011,0.008,0.021c0.013,0.026,0.024,0.048,0.029,0.064  c0.002,0.011,0.011,0.027,0.011,0.032c0.008,0.024,0.008,0.04,0.011,0.061c0,0.011,0,0.016,0.008,0.032c0,0.016,0,0.038-0.008,0.054  c0,0.005,0,0.021-0.003,0.026c-0.005,0.032-0.008,0.043-0.024,0.075c-0.051,0.104-0.103,0.206-0.156,0.308  c-0.013,0.026-0.024,0.066-0.043,0.099c-0.036,0.064-0.068,0.139-0.1,0.214c-0.017,0.029-0.035,0.067-0.045,0.104l-0.138,0.292  c-0.04,0.085-0.083,0.182-0.12,0.275l-0.005,0.005c-0.042,0.096-0.079,0.198-0.119,0.292c-0.011,0.021-0.019,0.053-0.024,0.069  c-0.033,0.069-0.063,0.144-0.089,0.216c-0.011,0.027-0.019,0.048-0.029,0.08c-0.027,0.064-0.058,0.134-0.079,0.206  c-0.011,0.016-0.019,0.038-0.021,0.07c-0.035,0.08-0.067,0.155-0.096,0.238L10.545,27.711L10.545,27.711z M18.762,15.721  c-2.375,2.108-3.536,4.2-3.536,4.2l-2.167-2.209c0.466-1.234,2.002-3.003,3.682-4.416C17.345,12.792,19.353,15.208,18.762,15.721z   M63.256,36.012c0.423,2.22,0.53,4.608,0.132,5.875l-3.018,0.232c0,0,0.389-2.394-0.151-5.608  C60.086,35.715,63.103,35.219,63.256,36.012z M60.034,24.324c1.065,1.963,1.879,4.194,1.879,5.52l-2.792,1.229  c0,0-0.349-2.402-1.82-5.271C56.94,25.09,59.652,23.624,60.034,24.324z M53.917,19.274c0,0-1.157-2.092-3.532-4.194  c-0.589-0.529,1.42-2.934,2.016-2.426c0.008,0.005,0.011,0.005,0.016,0.005l3.536,4.528L53.917,19.274z"/>
</svg>