<svg xmlns="http://www.w3.org/2000/svg" xmlns:xlink="http://www.w3.org/1999/xlink" xmlns:a="http://ns.adobe.com/AdobeSVGViewerExtensions/3.0/" version="1.1" x="0px" y="0px" width="93px" height="93px" viewBox="-8.197 -19.217 93 93" enable-background="new -8.197 -19.217 93 93" xml:space="preserve">
<defs>
</defs>
<path d="M57.991,22.025c-0.533,0.35-1.117,0.672-1.757,0.963c-2.302,1.066-4.755,1.589-7.49,1.589c-3.43,0-6.901-0.818-10.261-1.621  c-3.392-0.795-6.909-1.619-10.415-1.619c-0.918,0-1.824,0.054-2.678,0.168c-0.059,0-0.117,0.017-0.176,0.021  c-0.011,0-0.014,0-0.021,0c-0.066,0.011-0.112,0.011-0.165,0.021l-0.112,0.016l-0.077-0.005c-1.73-0.106-3.464-0.381-5.179-0.813  c-0.016-0.005-0.026-0.005-0.037-0.011C13.02,19.05,6.677,14.956,1.629,9.002C1.579,9.184,1.52,9.362,1.461,9.527  c-0.618,1.686-1.565,2.621-1.232,5.274c1.187,9.786,15.797,9.85,25.759,8.285c0-0.011,0-0.017-0.006-0.027  c0.04-0.011,0.091-0.011,0.145-0.021c3.136,7.624,3.584,16.532,5.682,23.537c2.622,8.72,8.182,13.645,20.786,12.541  c7.164-0.629,13.594-3.395,18.164-7.64c-5.381-4.98-9.288-10.927-11.316-17.183C58.129,30.23,57.65,26.095,57.991,22.025z"/>
<path d="M62.071,14.015c0.053-0.322,0.111-0.65,0.171-0.979c0.09-0.469,0.056-1.04-0.06-1.637c-0.49-2.512-2.575-5.68-4.293-6.002  c-0.336-0.072-0.701-0.078-1.077-0.072c1.168,1.21,2.886,3.159,3.883,5.703c0.045,0.109,0.08,0.206,0.12,0.307  c0.527,1.227,0.851,2.405,0.938,3.51c0.104-0.28,0.197-0.555,0.312-0.835L62.071,14.015z"/>
<path d="M62.071,14.015c-0.126,0.758-0.234,1.518-0.328,2.272c-0.014,0.133-0.026,0.261-0.045,0.392  c-0.171,1.12-0.59,2.136-1.259,3.062c-1.995,11.421,3.413,22.417,11.825,30.198c0.014,0.026,0.024,0.026,0.043,0.053  c0.032-0.037,0.057-0.069,0.086-0.096c2.37-2.896,4.231-7.808,3.922-12.557C75.611,26.497,69.484,19.642,62.071,14.015z"/>
<path d="M62.065,14.01c-0.114,0.28-0.208,0.555-0.312,0.835c0.045,0.493,0.04,0.968-0.011,1.442  c0.094-0.755,0.202-1.515,0.328-2.272L62.065,14.01z"/>
<path d="M59.764,14.021c-0.056-0.274-0.131-0.555-0.222-0.84c0.038,0.402,0.057,0.84,0.064,1.279  C59.655,14.312,59.708,14.164,59.764,14.021z"/>
<path d="M2.765,7.49c6.061,7.298,14.101,11.748,22.118,12.229l0.064-0.011c0.986-0.146,2.045-0.216,3.12-0.216  c3.725,0,7.349,0.845,10.847,1.675c3.402,0.805,6.618,1.563,9.829,1.563c2.467,0,4.666-0.467,6.72-1.413  c1.199-0.544,2.148-1.2,2.86-1.937c0.195-0.194,0.371-0.399,0.531-0.607c0.994-1.331,1.301-2.912,0.909-4.752  c-0.056,0.144-0.109,0.291-0.157,0.439c-0.008-0.439-0.026-0.877-0.064-1.279c-0.139-0.456-0.317-0.92-0.538-1.402l-0.024-0.062  c-0.983-2.565-2.834-4.438-3.933-5.567l-0.288-0.291c-1.291-1.296-4.328-2.624-7.051-3.088c-0.298-0.043-0.61-0.08-0.901-0.08  c-2.33,0-4.319,1.539-6.431,3.173c-1.707,1.325-3.478,2.69-5.563,3.353c-0.952,0.301-2.339,0.453-4.091,0.453  c-2.522,0-5.466-0.323-7.136-0.619C22.783,8.903,7.685,3.045,6.876,2.362C5.52,1.222,3.152,0,1.411,0  C0.989,0,0.619,0.064,0.304,0.205c-0.685,1.296-0.133,2.227,0.885,3.69C1.898,4.917,2.699,6.063,2.765,7.49z M54.93,10.104  c0,0.861-1.203,1.259-1.763,0.392C52.749,8.808,54.917,8.818,54.93,10.104z"/>
</svg>