<svg xmlns="http://www.w3.org/2000/svg" xmlns:xlink="http://www.w3.org/1999/xlink" version="1.1" id="Layer_1" x="0px" y="0px" width="100px" height="100px" viewBox="0 0 100 100" enable-background="new 0 0 100 100" xml:space="preserve">
<path fill-rule="evenodd" clip-rule="evenodd" d="M74.221,17.092c-0.586,3.537-1.589,6.656-3.219,9.149  c0.314,2.687-1.922,2.823-2.373,4.744c-0.686,0.159-1.716,0.301-2.371,0c-0.987,0.763,0.085,3.586-1.694,3.558  c0.399,1.15-0.159,1.567-0.509,2.372c0.179,0.839,1.428,0.606,1.695,1.355c1.712-1.212,3.76,0.591,5.76,1.016  c0.693-1.037-0.728-1.414-0.677-2.372c1.437-0.462,1.733,1.104,1.863,1.864c0.358,2.097-0.043,4.838-0.509,7.286  c-0.927,4.878-2.29,11.104-2.541,16.265c-0.157,3.251-0.933,4.52-2.372,7.116c-1.219,2.198-1.996,4.31-3.728,5.252  c1.033,2.661-2.317,3.595-2.881,5.762c-4.311,1.393-6.325,5.082-8.471,8.641c-0.141,0.479,0.239,0.438,0.169,0.847  c-2.22,2.611-3.306,7.867-7.962,6.947c-1.507-3.314,6.238-10.311-1.355-9.659c-0.389-0.288-0.728-0.627-1.017-1.016  c-1.262,0.279-1.927,0.294-2.542,1.356c-1.666-0.595-1.244-3.275-3.219-3.559c-0.132-0.377-0.356-0.66-0.339-1.186  c-0.793-0.172-0.563,0.679-1.355,0.508c-0.576-0.553-0.814-1.445-1.186-2.203c-0.535-0.083-0.599,0.306-1.186,0.17  c-0.072-0.605-0.899-0.456-0.678-1.355c-1.774-0.881-2.17-3.139-4.575-3.389c0.641-1.473,0.281-3.059,1.187-4.066  c-0.77-1.015-1.6-1.223-1.355-2.541c0.149-0.811,1.79-1.124,1.186-2.372c1.651-2.245,2.805-4.988,5.421-6.27  c0.682-0.115,0.967,0.162,1.525,0.17c1.35-0.74,3.093-1.086,4.236-2.032c-0.226-0.94-0.358-1.308-0.169-2.373  c0.533-0.258,1.076-0.505,1.694-0.678c0.86-1.568,2.79-2.067,3.558-3.728c2.225,0.306,3.153-0.687,3.727-2.032  c1.091,0.265,2.12,0,2.712-0.679c-0.419-2.687-3.609-2.604-4.066-5.252c-0.435-0.751-1.577-0.796-2.203-1.355  c-0.5-0.913-0.228-2.597-1.187-3.05c-0.513,0.052-0.605,0.524-1.355,0.339c-2.604-1.095,0.288-5.767-2.542-6.608  c-0.747,0.044-1.061,0.52-2.033,0.339c-0.172-0.792-1.18-2.386,0-2.541c-0.488-0.291-0.824-1.494,0-1.694  c-0.324-0.241-0.606-0.523-0.847-0.847c0.333-0.567,1.086-1.338,0.339-2.033c0.149-0.585,0.76-0.708,0.847-1.355  c1.682,0.432,2.637-1.361,2.033-2.71c0.227-0.282,0.96-0.057,1.187-0.339c-0.441-1.818-1.751-2.767-2.372-4.405  c0.328-1.14,1.191-1.745,2.372-2.033c1.054-0.245,0.623-1.975,1.864-2.033c-0.225-0.283-0.449-0.567-0.339-1.186  c0.464-0.383,1.08-0.615,1.694-0.847c1.712-1.281,2.029-3.957,2.88-6.1c0.877-0.704,1.739-1.424,2.372-2.372  c0.826,0.147,1.124-0.231,1.695-0.338C58.371,8.432,66.13,12.928,74.221,17.092z"/>
</svg>