<svg xmlns:dc="http://purl.org/dc/elements/1.1/" xmlns:cc="http://creativecommons.org/ns#" xmlns:rdf="http://www.w3.org/1999/02/22-rdf-syntax-ns#" xmlns:svg="http://www.w3.org/2000/svg" xmlns="http://www.w3.org/2000/svg" xmlns:sodipodi="http://sodipodi.sourceforge.net/DTD/sodipodi-0.dtd" xmlns:inkscape="http://www.inkscape.org/namespaces/inkscape" version="1.0" id="Layer_1" x="0px" y="0px" width="100" height="100" viewBox="0 0 99.999997 100" enable-background="new 0 0 63.491 100" xml:space="preserve" inkscape:version="0.48.1 " sodipodi:docname="oxcart.svg"><metadata id="metadata15"><rdf:RDF><cc:Work rdf:about=""><dc:format>image/svg+xml</dc:format><dc:type rdf:resource="http://purl.org/dc/dcmitype/StillImage"/><dc:title/></cc:Work></rdf:RDF></metadata><defs id="defs13"><inkscape:perspective id="perspective3146" inkscape:persp3d-origin="0.5 : 0.33333333 : 1" inkscape:vp_z="1 : 0.5 : 1" inkscape:vp_y="0 : 1000 : 0" inkscape:vp_x="0 : 0.5 : 1" sodipodi:type="inkscape:persp3d"/></defs><sodipodi:namedview pagecolor="#ffffff" bordercolor="#666666" borderopacity="1" objecttolerance="10" gridtolerance="10" guidetolerance="10" inkscape:pageopacity="0" inkscape:pageshadow="2" inkscape:window-width="708" inkscape:window-height="560" id="namedview11" showgrid="false" inkscape:zoom="1.3241051" inkscape:cx="48.182193" inkscape:cy="7.1646845" inkscape:window-x="25" inkscape:window-y="25" inkscape:window-maximized="0" inkscape:current-layer="Layer_1" showguides="true" inkscape:guide-bbox="true"/>




<path style="fill:#000000;fill-opacity:1;stroke:none" d="M 25.712295,59.127662 C 15.310483,56.340504 4.6147282,62.515698 1.827572,72.917505 -0.95958267,83.319312 5.2156188,94.015066 15.617431,96.802219 26.019221,99.589377 36.714979,93.41418 39.502135,83.012376 42.28929,72.610569 36.11411,61.914815 25.712295,59.127662 z m 0.458476,3.686424 c 3.191672,1.162097 5.815037,3.252997 7.657002,5.881367 l -8.499949,4.907449 c -0.482271,-0.521589 -1.052199,-0.958471 -1.699572,-1.300009 l 2.542519,-9.488807 z m -2.97151,-0.784648 c 0.01426,0.0025 0.02852,0.009 0.04319,0.01171 l -2.551163,9.5212 c -0.69787,-0.0065 -1.381407,0.102525 -2.02761,0.312913 l -4.907443,-8.500026 c 2.865479,-1.354881 6.140226,-1.880715 9.443068,-1.345707 z m 12.137876,9.280333 c 1.300398,2.871549 1.756807,6.136466 1.17801,9.421274 l -9.488818,-2.542523 c 0.02136,-0.663222 -0.06001,-1.314837 -0.233091,-1.936804 l 8.543895,-4.941947 z m -24.179466,-6.397878 4.931157,8.541008 c -0.434233,0.437754 -0.802588,0.949294 -1.098928,1.51047 L 5.5010856,72.420854 c 1.1295601,-3.102307 3.1311852,-5.675763 5.6565854,-7.508961 z m -6.4267579,10.426505 9.5211889,2.551194 c -0.0042,0.66893 0.09234,1.325988 0.287075,1.951269 L 6.0147348,84.753315 C 4.681974,81.892078 4.1864974,78.627412 4.7309131,75.338398 z m 21.4712459,5.753208 9.521215,2.551198 c -1.184624,3.151337 -3.280854,5.744903 -5.901429,7.559059 L 24.9145,82.701913 c 0.509503,-0.457115 0.94185,-1.001565 1.287659,-1.610307 z M 16.078812,82.42858 c 0.412998,0.421707 0.883736,0.785992 1.410422,1.083688 l -2.551202,9.521194 C 11.879109,91.88119 9.3415047,89.875851 7.5377873,87.35973 l 8.5410247,-4.93115 z m 6.181855,1.714271 4.931158,8.541012 c -2.850286,1.270464 -6.079779,1.717189 -9.331245,1.144265 l 2.542518,-9.488806 c 0.636765,0.02446 1.258299,-0.03845 1.857569,-0.196471 z" id="path2848" inkscape:connector-curvature="0"/><path style="fill:#000000;fill-opacity:1;stroke:none" d="M 60.519331,59.550561 C 50.569423,63.669441 45.840676,75.078701 49.959565,85.028605 54.078452,94.978512 65.487711,99.707253 75.437616,95.58837 85.387523,91.469487 90.11626,80.060224 85.997378,70.11032 81.878491,60.160416 70.469232,55.431675 60.519331,59.550561 z m 2.607321,2.646092 c 3.239778,-1.02031 6.593873,-0.957772 9.655047,0.0069 l -3.75794,9.066972 c -0.700103,-0.120369 -1.418208,-0.120163 -2.139753,0.0029 l -3.757354,-9.076571 z m -2.83539,1.185813 c 0.01309,-0.0069 0.02825,-0.01 0.04131,-0.01688 l 3.770173,9.107551 c -0.55761,0.419661 -1.033711,0.922054 -1.418449,1.482255 l -9.066979,-3.757956 c 1.449151,-2.818985 3.727599,-5.229215 6.673939,-6.814763 z m 15.279146,-0.02343 c 2.779439,1.48713 5.128582,3.800021 6.668424,6.758715 l -9.076574,3.757354 C 72.775512,73.335905 72.31439,72.868361 71.798585,72.480147 l 3.771823,-9.121108 z m -23.079708,9.638797 9.110775,3.776095 c -0.07817,0.611628 -0.05912,1.241701 0.04727,1.867341 l -9.076566,3.757354 c -0.991751,-3.149078 -0.969678,-6.409237 -0.08148,-9.40079 z m 1.245939,12.184541 9.107547,-3.770183 c 0.404551,0.532741 0.880269,0.995947 1.415308,1.373595 l -3.774321,9.085844 c -2.798851,-1.459235 -5.178848,-3.748162 -6.748534,-6.689256 z m 20.538452,-8.502141 9.107552,-3.770183 c 0.977908,3.221482 0.893002,6.555182 -0.0823,9.589543 l -9.066969,-3.757743 c 0.126088,-0.672785 0.137801,-1.367921 0.04172,-2.061414 z m -7.219057,7.221852 c 0.584361,0.08327 1.179597,0.08582 1.778679,0.0014 l 3.770176,9.107552 c -3.128469,0.947323 -6.362449,0.900481 -9.324954,0.0018 l 3.776099,-9.110779 z m 5.948511,-2.401976 9.110772,3.776094 c -1.48847,2.742756 -3.779137,5.062668 -6.707804,6.58687 l -3.757354,-9.07646 c 0.520039,-0.368261 0.975028,-0.79632 1.354386,-1.286394 z" id="path2848-9" inkscape:connector-curvature="0"/><path style="fill:#000000;fill-opacity:1;stroke:none" d="m 5.7457011,56.568293 0,6.090815 C 8.7507087,59.413576 12.805582,57.256094 17.216093,56.568293 l -11.4703919,0 z m 17.5608599,0 c 0.682736,0.106727 1.370202,0.243461 2.052715,0.42468 4.228493,1.122693 7.765468,3.530119 10.297402,6.683134 l 16.399165,0 c 2.013435,-2.520572 4.68536,-4.584252 7.895053,-5.900828 1.390176,-0.57023 2.806296,-0.966288 4.229496,-1.206986 l -40.873831,0 z" id="rect2959" sodipodi:nodetypes="cccccsccscc" inkscape:connector-curvature="0"/><path style="fill:#000000;fill-opacity:1;stroke:none" d="m 73.166382,50.173222 0,7.297805 c 4.172229,0.927418 8.003934,3.200029 10.795833,6.560198 4.06502,-4.619337 6.234518,-9.23867 3.229808,-13.858003 l -14.025641,0 z" id="rect2987" sodipodi:nodetypes="ccccc" inkscape:connector-curvature="0"/><path style="fill:#000000;fill-opacity:1;stroke:none" d="m 81.419388,26.549897 c -2.854058,0 -5.152052,2.297995 -5.152052,5.15205 l 0,12.427499 c 0,2.854055 2.297994,5.152049 5.152052,5.152049 1.070267,0 2.061397,-0.317322 2.883359,-0.871711 l 7.085462,1.62049 -1.609318,9.521793 c -0.189925,1.128353 0.333514,2.188983 1.229341,2.682192 0.08003,0.767706 0.907409,1.540524 2.078698,1.855187 l 2.816307,0.759951 c 1.378159,0.370235 2.679753,-0.04489 2.916885,-0.92759 0.237157,-0.882701 -0.689362,-1.887281 -2.067525,-2.257512 l -2.402803,-0.648198 c 0.09129,-0.205668 0.150617,-0.4253 0.189994,-0.659373 l 1.620494,-9.611195 c 0.09419,-0.559557 0.01378,-1.108902 -0.201191,-1.575791 0.08127,-0.161606 0.136631,-0.341747 0.178832,-0.525265 0.300063,-1.305345 -0.576189,-2.608361 -1.966944,-2.928061 l -7.599551,-1.754602 0,-6.649607 0,-4.995589 0,-0.614667 c 0,-2.854055 -2.297988,-5.15205 -5.152043,-5.15205 z" id="rect3012" sodipodi:nodetypes="cccsccccccscccccscccccc" inkscape:connector-curvature="0"/><path sodipodi:type="arc" style="fill:#000000;fill-opacity:1;stroke:none" id="path3071" sodipodi:cx="334.30316" sodipodi:cy="410.57959" sodipodi:rx="13.411865" sodipodi:ry="13.411865" d="m 347.71503,410.57959 a 13.411865,13.411865 0 1 1 -26.82373,0 13.411865,13.411865 0 1 1 26.82373,0 z" transform="matrix(0.35762592,0,0,0.35762592,-35.645721,-125.43844)"/><path style="fill:#000000;fill-opacity:1;stroke:none" d="M 17.46853,42.257971 4.7776209,46.4042 l 0,2.961585 c 0,1.279407 1.0381723,2.313394 2.3227415,2.313394 l 61.7484826,0 6.921592,-7.107814 c 0,-1.279401 -1.038169,-2.313394 -2.32274,-2.313394 l -55.979167,0 z" id="rect3086" sodipodi:nodetypes="cccccccc" inkscape:connector-curvature="0"/><rect style="fill:#000000;fill-opacity:1;stroke:none" id="rect3093" width="67.150024" height="1.9541014" x="5.0838647" y="53.223698" ry="0.97705072"/><rect style="fill:#000000;fill-opacity:1;stroke:none" id="rect3134" width="18.001419" height="4.3679914" x="20.204655" y="36.617516" ry="0.97705072"/><rect style="fill:#000000;fill-opacity:1;stroke:none" id="rect3136" width="14.295245" height="11.38325" x="39.00024" y="29.60228" ry="0.97705072"/></svg>