<svg xmlns="http://www.w3.org/2000/svg" xmlns:xlink="http://www.w3.org/1999/xlink" version="1.1" id="Layer_1" x="0px" y="0px" width="100px" height="100px" viewBox="0 0 100 100" enable-background="new 0 0 100 100" xml:space="preserve">
<path d="M33.75,32.625c-0.587-0.246-1.645-0.479-1.989-0.615c-1.677-0.666-3.467-1.674-2.817-3.787  c0.961-3.127,4.072-2.077,4.072-2.077l0.7,0.312L33.75,32.625z"/>
<path d="M33.661,60.419c-0.82,0.338-1.577,0.83-2.222,1.531c-1.548,1.683-2.47,3.776-3.222,5.908  c-0.742,2.106-1.773,4.597-1.11,6.844c0.35,1.187,1.312,2.492,2.687,2.181c1.517-0.344,2.273-2.25,2.663-3.568  c0.36-1.218,0.614-2.466,0.961-3.688c0.091-0.319,0.166-0.644,0.242-0.964V60.419z"/>
<rect x="34.248" y="5" width="3.703" height="90.333"/>
<path d="M51.789,71.236c0.732-1.107,3.065-3.482,3.474-4.08c0.906-1.088,1.471-2.393,1.825-3.656h5.287  c-2.092-1.867-3.736-6.726-4.722-10.333V25.413c0.321-0.111,0.616-0.264,0.917-0.409l-0.023,0.05  c1.311,6.812,11.563,9.964,11.563,9.964c-2.488-2.165-4.414-7.355-5.42-12.583c-0.438-2.276-0.667-4.234-0.785-5.696  c0.023-0.299,0.063-0.594,0.063-0.898c0-5.474-4.07-9.701-9.544-9.701c-5.476,0-9.912,4.437-9.912,9.912  c0,4.268,2.702,7.895,6.484,9.29l-0.076,5.897c-1.057,0.087-2.011,0.504-2.768,1.158l-9.609-4.276v6.245  c2.934,1.275,5.954,2.593,8.287,3.612c0.673,1.588,2.172,2.723,3.953,2.921c-0.098,5.381-0.244,12.97-0.254,16.138  c-0.544,1.322-1.237,1.896-1.715,2.146c-3.423,0.189-6.845,0.403-10.27,0.548v5.434c0.184,0,0.366,0,0.546-0.003  c2.898-0.051,5.806-0.234,8.701-0.364c0.545-0.025,1.093-0.036,1.638-0.055c-0.29,0.45-0.614,0.886-0.957,1.345  c-0.643,0.863-1.283,1.729-1.921,2.593c-0.481,0.652-4.062,4.473-4.559,5.606c-0.352,0.8-0.521,1.701-0.501,2.573  c0.017,0.721,0.217,1.405,0.558,2.038c0.572,1.063,1.438,1.924,2.175,2.87c0.371,0.475,0.75,0.942,1.123,1.417  c0.432,0.552,0.867,1.1,1.302,1.649c0.472,0.597,0.942,1.197,1.414,1.794c0.494,0.624,0.986,1.247,1.478,1.872  c0.475,0.603,0.953,1.203,1.427,1.807c0.423,0.535,0.845,1.068,1.267,1.604c1.186,1.501,3.034,3.869,5.105,2.088  c3.095-2.661-0.527-6.141-2.245-8.311c-1.953-2.466-3.947-4.912-5.98-7.313c-0.455-0.537-0.817-1.26-0.815-1.973  c0.002-0.69,1.341-2.361,1.791-2.873C50.305,73.283,51.441,71.761,51.789,71.236z"/>
</svg>