<svg xmlns="http://www.w3.org/2000/svg" xmlns:xlink="http://www.w3.org/1999/xlink" version="1.0" id="Capa_1" x="0px" y="0px" width="100px" height="100px" viewBox="0 0 100 100" enable-background="new 0 0 100 100" xml:space="preserve">
<g>
	<path fill="#000000" d="M19.427,48.492c0,30.571,12.393,49.009,28.734,49.636C48.465,98.139,49.696,100,50,100   c0.3,0,1.527-1.86,1.826-1.871c16.348-0.619,28.747-19.058,28.747-49.638C75.943,49.058,47.787,52.189,19.427,48.492z"/>
	<path fill="#000000" d="M82.099,46.023c0-15.527-11.022-28.478-25.67-31.455C54.584,15.1,52.377,15.411,50,15.411   c-2.376,0-4.584-0.311-6.429-0.843c-14.647,2.978-25.671,15.928-25.671,31.455C50,50.332,82.099,46.023,82.099,46.023z"/>
	<path fill="#000000" d="M50,14.01c1.06,0,1.919-0.859,1.919-1.919c0-4.551,3.702-8.252,8.252-8.252c1.061,0,1.919-0.859,1.919-1.92   C62.09,0.86,61.232,0,60.171,0c-6.667,0-12.09,5.424-12.09,12.091C48.082,13.151,48.94,14.01,50,14.01z"/>
</g>
</svg>