<svg xmlns="http://www.w3.org/2000/svg" xmlns:xlink="http://www.w3.org/1999/xlink" version="1.1" id="Layer_1" x="0px" y="0px" width="100px" height="100px" viewBox="0 0 100 100" enable-background="new 0 0 100 100" xml:space="preserve">
<g>
	<circle cx="10.839" cy="10.5" r="7.146"/>
	<path d="M19.341,3.354c1.625,1.932,2.608,4.423,2.608,7.146s-0.983,5.214-2.608,7.146h76.966V3.354H19.341z"/>
	<circle cx="10.839" cy="30.25" r="7.146"/>
	<path d="M21.949,30.25c0,2.723-0.983,5.214-2.608,7.146h76.966V23.104H19.341C20.966,25.036,21.949,27.527,21.949,30.25z"/>
	<circle cx="10.839" cy="50" r="7.146"/>
	<path d="M21.949,50c0,2.723-0.983,5.213-2.608,7.146h76.966V42.854H19.341C20.966,44.786,21.949,47.277,21.949,50z"/>
	<circle cx="10.839" cy="69.75" r="7.146"/>
	<path d="M21.949,69.75c0,2.723-0.983,5.213-2.608,7.146h76.966V62.604H19.341C20.966,64.536,21.949,67.027,21.949,69.75z"/>
	<circle cx="10.839" cy="89.5" r="7.146"/>
	<path d="M21.949,89.5c0,2.723-0.983,5.213-2.608,7.146h76.966V82.354H19.341C20.966,84.286,21.949,86.777,21.949,89.5z"/>
</g>
</svg>