<svg xmlns="http://www.w3.org/2000/svg" xmlns:xlink="http://www.w3.org/1999/xlink" version="1.1" id="Layer_1" x="0px" y="0px" width="100px" height="100px" viewBox="0 0 100 100" enable-background="new 0 0 100 100" xml:space="preserve">
<polygon fill-rule="evenodd" clip-rule="evenodd" points="21.1,49.556 45.633,64.275 45.633,98.62 21.1,83.9 "/>
<polygon fill-rule="evenodd" clip-rule="evenodd" points="79.978,52.009 48.086,64.275 48.086,98.62 79.978,86.354 "/>
<path fill-rule="evenodd" clip-rule="evenodd" d="M52.992,42.196l26.985,14.719v-4.906L52.992,37.29l-6.811,2.617l1.297,4.41  L52.992,42.196z M39.09,42.634L21.1,49.556v4.906l19.328-7.436L39.09,42.634z"/>
<path fill-rule="evenodd" clip-rule="evenodd" d="M47.571,35.742l2.366-0.631c-0.351-1.309,0.426-2.658,1.734-3.008  c1.297-0.345,2.628,0.415,2.996,1.7c1.561-0.426,2.471-0.671,2.378-0.602c-2.103-7.85-11.32-12.278-19.17-10.175  C30.025,25.128,24.137,33.604,26.24,41.46l2.371-0.637c-0.35-1.308,0.427-2.652,1.735-3.002c1.308-0.356,2.651,0.421,3.002,1.735  l2.372-0.637c-0.351-1.308,0.426-2.658,1.735-3.008c1.308-0.35,2.652,0.427,3.002,1.735l2.541,9.48l0.952,3.557  c0.175,0.654-0.21,1.326-0.864,1.501c-0.654,0.176-1.326-0.216-1.501-0.87l-0.321-1.18c0,0-1.717-1.215-2.366,0.631  c-0.052,0.053,0.315,1.186,0.315,1.186c0.526,1.963,2.541,3.131,4.509,2.605c1.962-0.526,3.125-2.547,2.599-4.509l-3.493-13.032  c-0.35-1.308,0.426-2.657,1.735-3.008C45.871,33.656,47.215,34.433,47.571,35.742z"/>
<polygon fill-rule="evenodd" clip-rule="evenodd" points="45.953,0.31 71.461,1.297 78.167,11.565 52.595,10.094 "/>
<polygon fill-rule="evenodd" clip-rule="evenodd" points="44.213,4.428 50.918,14.702 76.49,16.174 74.896,13.732 51.76,12.395   46.643,4.568 "/>
<polygon fill-rule="evenodd" clip-rule="evenodd" points="42.537,9.042 49.242,19.311 74.498,20.315 73.22,18.341 50.077,17.009   44.967,9.183 "/>
</svg>