<svg xmlns="http://www.w3.org/2000/svg" xmlns:xlink="http://www.w3.org/1999/xlink" version="1.1" id="Layer_1" x="0px" y="0px" width="100px" height="100px" viewBox="0 0 100 100" enable-background="new 0 0 100 100" xml:space="preserve">
<path fill-rule="evenodd" clip-rule="evenodd" fill="#000000" d="M0,100h98.182V81.818H0V100z M80,90.909  c0-2.009,1.627-3.637,3.637-3.637c2.008,0,3.637,1.628,3.637,3.637c0,2.01-1.629,3.636-3.637,3.636  C81.627,94.545,80,92.919,80,90.909z M69.09,90.909c0-2.009,1.629-3.637,3.637-3.637c2.01,0,3.637,1.628,3.637,3.637  c0,2.01-1.627,3.636-3.637,3.636C70.719,94.545,69.09,92.919,69.09,90.909z M58.182,90.909c0-2.009,1.627-3.637,3.637-3.637  s3.637,1.628,3.637,3.637c0,2.01-1.627,3.636-3.637,3.636S58.182,92.919,58.182,90.909z M47.272,90.909  c0-2.009,1.628-3.637,3.638-3.637c2.008,0,3.635,1.628,3.635,3.637c0,2.01-1.627,3.636-3.635,3.636  C48.9,94.545,47.272,92.919,47.272,90.909z M0,80h98.182V0H0V80z M10.909,58.182c0-7.027,5.7-12.727,12.727-12.727  c7.028,0,12.728,5.7,12.728,12.727s-5.7,12.728-12.728,12.728C16.609,70.909,10.909,65.209,10.909,58.182z M61.818,58.182  c0-7.027,5.699-12.727,12.727-12.727c7.029,0,12.729,5.7,12.729,12.727s-5.699,12.728-12.729,12.728  C67.518,70.909,61.818,65.209,61.818,58.182z M10.909,21.818c0-7.028,5.7-12.728,12.727-12.728c7.028,0,12.728,5.7,12.728,12.728  c0,7.027-5.7,12.727-12.728,12.727C16.609,34.545,10.909,28.846,10.909,21.818z M61.818,21.818c0-7.028,5.699-12.728,12.727-12.728  c7.029,0,12.729,5.7,12.729,12.728c0,7.027-5.699,12.727-12.729,12.727C67.518,34.545,61.818,28.846,61.818,21.818z"/>
</svg>