<?xml version="1.0" encoding="utf-8"?>
<!-- Generator: Adobe Illustrator 14.0.0, SVG Export Plug-In . SVG Version: 6.00 Build 43363)  -->
<!DOCTYPE svg PUBLIC "-//W3C//DTD SVG 1.0//EN" "http://www.w3.org/TR/2001/REC-SVG-20010904/DTD/svg10.dtd">
<svg version="1.0" id="Layer_1" xmlns="http://www.w3.org/2000/svg" xmlns:xlink="http://www.w3.org/1999/xlink" x="0px" y="0px"
	 width="74.797px" height="100px" viewBox="0 0 74.797 100" enable-background="new 0 0 74.797 100" xml:space="preserve">
<path d="M37.398,0C16.744,0,0,12.594,0,28.13v21.463v32.521v10.406C0,96.651,3.349,100,7.48,100c4.131,0,7.479-3.349,7.479-7.479
	V82.114c0-4.132,3.349-7.48,7.479-7.48c4.131,0,7.48,3.349,7.48,7.48v10.406c0,4.131,3.349,7.479,7.479,7.479
	c4.131,0,7.48-3.349,7.48-7.479V82.114c0-4.132,3.349-7.48,7.479-7.48c4.132,0,7.479,3.349,7.479,7.48v10.406h0.017
	c0.172,3.979,3.441,7.154,7.464,7.154c4.021,0,7.291-3.175,7.463-7.154h0.017V82.114V49.593V28.13C74.797,12.594,58.053,0,37.398,0z
	 M27.968,45.041c-1.906,0-3.572-1.601-4.51-3.996c1.587-0.366,2.772-1.785,2.772-3.483c0-1.889-1.465-3.433-3.321-3.564
	c0.687-3.402,2.691-5.867,5.059-5.867c2.935,0,5.314,3.787,5.314,8.456S30.903,45.041,27.968,45.041z M46.83,45.041
	c-1.905,0-3.572-1.601-4.51-3.996c1.587-0.366,2.772-1.785,2.772-3.483c0-1.889-1.467-3.433-3.321-3.564
	c0.688-3.402,2.69-5.867,5.059-5.867c2.936,0,5.314,3.787,5.314,8.456S49.765,45.041,46.83,45.041z"/>
</svg>
