<svg xmlns="http://www.w3.org/2000/svg" xmlns:xlink="http://www.w3.org/1999/xlink" version="1.1" id="Layer_1" x="0px" y="0px" width="100px" height="100px" viewBox="0 0 100 100" enable-background="new 0 0 100 100" xml:space="preserve">
<path fill-rule="evenodd" clip-rule="evenodd" fill="#000000" d="M17.15,47.28V85.2l31.601,13.543v-37.92L17.15,47.28z M84,45.437  L49.653,60.823v37.92L84,83.357V45.437z M61.458,2.445l-33.466,14.83v32.759l9.043,3.747l-0.022-22.753  c0,0,12.31-5.395,24.445-10.691V2.445z M22.575,15.695L22.56,47.784l4.507,1.865V17.485L22.575,15.695z M22.936,14.311l4.484,1.791  l32.759-14.28L55.665,0L22.936,14.311z M38.818,54.525l4.5,1.866V35.543l-4.492-1.791L38.818,54.525z M44.243,56.775l5.41,2.242  l28.057-12.52V20.502l-33.467,14.83V56.775z M39.188,32.368l4.484,1.791l32.76-14.28l-4.515-1.821L39.188,32.368z"/>
</svg>