<svg xmlns="http://www.w3.org/2000/svg" xmlns:xlink="http://www.w3.org/1999/xlink" version="1.1" id="Layer_1" x="0px" y="0px" width="100px" height="100px" viewBox="0 0 100 100" enable-background="new 0 0 100 100" xml:space="preserve">
<path fill-rule="evenodd" clip-rule="evenodd" fill="#000000" d="M38.503,33.14V98.5h25.315V33.14c0-2.64-1.69-5.004-4.366-6.605  c-0.196-0.311-0.432-0.576-0.697-0.759c-1.507-1.036-2.203-2.147-2.301-3.683c-0.099-1.536,0.677-2.794,1.212-2.829  c0.063-0.006,0.168-0.044,0.042,0.003c0.347-0.132,0.587-0.466,0.587-0.857v-0.46c0-0.506-0.414-0.921-0.921-0.921H45.407  c-0.506,0-0.92,0.415-0.92,0.921v0.46c0,0.391,0.242,0.725,0.586,0.857c-0.138,0.035-0.014-0.009,0.049-0.003  c0.536,0.034,1.302,1.292,1.206,2.829c-0.099,1.536-0.794,2.647-2.302,3.683c-0.126,0.086-0.247,0.195-0.362,0.316  C40.534,27.686,38.503,30.247,38.503,33.14z M55.073,11.162c0-0.041-0.011-0.081-0.035-0.115h0.402c1.83,0,2.63-0.138,2.394-1.934  l-1.38-6.72C55.879,0.506,54.51,0,52.681,0h-2.579c-1.829,0-3.308,0.449-3.774,2.394l-1.381,6.72  c-0.351,1.761,0.541,1.928,2.33,1.934c-0.016,0.035-0.028,0.075-0.028,0.115c0,0.126,0.103,0.23,0.23,0.23h0.23v1.036h-0.23  c-0.127,0-0.23,0.104-0.23,0.23c0,0.127,0.103,0.23,0.23,0.23h0.23v1.036h-0.23c-0.127,0-0.23,0.104-0.23,0.23s0.103,0.23,0.23,0.23  h0.23v0.806h6.905v-0.806h0.23c0.125,0,0.229-0.104,0.229-0.23s-0.104-0.23-0.229-0.23h-0.23v-1.036h0.23  c0.125,0,0.229-0.103,0.229-0.23c0-0.126-0.104-0.23-0.229-0.23h-0.23v-1.036h0.23C54.969,11.392,55.073,11.288,55.073,11.162z   M48.491,6.904c0-1.6,1.3-2.9,2.899-2.9c1.601,0,2.9,1.3,2.9,2.9c0,1.599-1.3,2.9-2.9,2.9C49.791,9.804,48.491,8.503,48.491,6.904z   M53.693,2.071c0-0.379,0.311-0.69,0.689-0.69c0.381,0,0.69,0.311,0.69,0.69c0,0.38-0.31,0.69-0.69,0.69  C54.004,2.762,53.693,2.451,53.693,2.071z"/>
</svg>