<svg xmlns="http://www.w3.org/2000/svg" xmlns:xlink="http://www.w3.org/1999/xlink" version="1.1" id="Layer_1" x="0px" y="0px" width="100px" height="100px" viewBox="0 0 100 100" enable-background="new 0 0 100 100" xml:space="preserve">
<path fill-rule="evenodd" clip-rule="evenodd" d="M39.368,27.537c-3.185,0-5.771,2.587-5.771,5.771c0,3.192,2.586,5.779,5.771,5.779  c3.191,0,5.778-2.586,5.778-5.779C45.146,30.124,42.559,27.537,39.368,27.537z M33.125,95.111c0,1.785,0.873,3.184,2.658,3.184  s3.239-1.447,3.239-3.24V67.908l1.195-0.016l0.04,27.162c0,1.785,1.266,3.24,3.059,3.24c1.784,0,2.633-1.51,2.633-3.303  l0.055-46.668l2.468-0.039L48.456,65.51c0,3.477,4.427,3.459,4.418-0.016V47.876c0-3.829-2.248-7.587-6.737-7.587l-12.941-0.008  c-4.088,0-7.076,3.349-7.076,7.508l0.055,17.666c0,3.451,4.498,3.428,4.498-0.016l0.055-17.17l2.375-0.04L33.125,95.111z   M55.107,4.493c-4.993,4.993-5.826,12.572-2.484,18.429l-3.452,8.396l9.182-2.657c5.857,3.333,13.437,2.508,18.438-2.484  c5.982-5.991,5.982-15.701,0-21.684C70.8-1.498,61.09-1.498,55.107,4.493z"/>
</svg>