<svg xmlns="http://www.w3.org/2000/svg" xmlns:xlink="http://www.w3.org/1999/xlink" version="1.1" id="Layer_1" x="0px" y="0px" width="100px" height="100px" viewBox="0 0 100 100" enable-background="new 0 0 100 100" xml:space="preserve">
<path fill-rule="evenodd" clip-rule="evenodd" d="M71.567,15.476L59.975,0L19.417,29.243H35.77L71.567,15.476z M82.479,29.243  l-4.625-12.508L43.142,29.243H82.479z M84.913,27.716h6.64c1.899,0,3.121,1.48,3.121,3.373v21.198l2.992-1.495l-0.03-21.297  c0-1.9-2.656-4.831-4.556-4.831h-9.379l1.06,2.854L84.913,27.716z M94.674,76.706v17.43c1.732-0.184,3.045-1.739,3.045-3.518  l-0.023-15.423L94.674,76.706z M7.939,27.716h0.435h8.349l4.258-3.052h-9.966l0.069-0.023c-7.372-0.007-9.624,0.077-9.555,9.249  v62.04c0,1.901,1.893,3.519,3.793,3.519h83.179c1.899,0,3.808-1.565,3.808-3.457l-0.007-16.566l-0.367,0.183h-7.631  c-6.746,0-12.211-5.464-12.211-12.21s5.465-12.209,12.211-12.209h7.631l0.358-0.184l-0.008-20.788c0-1.9-1.885-3.449-3.784-3.449  H11.008c-0.275-0.007-0.528-0.023-0.756-0.061H8.374c-0.839,0-1.526-0.688-1.526-1.526C6.848,28.486,7.306,27.899,7.939,27.716z   M91.935,58.24h-7.631c-5.061,0-9.158,4.098-9.158,9.157c0,5.059,4.098,9.157,9.158,9.157h7.631l5.738-4.815L97.65,53.547  L91.935,58.24z M79.725,67.397c0-2.525,2.053-4.577,4.579-4.577c2.525,0,4.578,2.052,4.578,4.577c0,2.526-2.053,4.579-4.578,4.579  C81.777,71.977,79.725,69.924,79.725,67.397z"/>
</svg>