<svg xmlns="http://www.w3.org/2000/svg" xmlns:xlink="http://www.w3.org/1999/xlink" version="1.1" id="Layer_1" x="0px" y="0px" width="100px" height="100px" viewBox="0 0 100 100" enable-background="new 0 0 100 100" xml:space="preserve">
<path fill-rule="evenodd" clip-rule="evenodd" d="M46.771,31.206c-0.728,0-1.323,0.588-1.323,1.323v3.08l-3.086,0.007  c-0.728,0-1.323,0.589-1.323,1.323c0,0.728,0.596,1.323,1.323,1.323h3.086v3.087c0,0.728,0.596,1.323,1.323,1.323  s1.323-0.595,1.323-1.323v-3.087h3.086c0.729,0,1.324-0.595,1.324-1.323c0-0.734-0.596-1.323-1.324-1.323l-3.086-0.007v-3.08  C48.094,31.794,47.498,31.206,46.771,31.206z M38.348,45.354c4.146,4.146,10.569,4.593,15.214,1.368  c0.097,0.176,0.228,0.353,0.383,0.507l7.9,7.901c0.86,0.86,2.257,0.86,3.116,0c0.861-0.86,0.861-2.257,0-3.117l-7.9-7.9  c-0.154-0.154-0.323-0.287-0.508-0.382c3.227-4.645,2.779-11.076-1.366-15.214c-4.646-4.646-12.187-4.646-16.839,0  C33.703,33.168,33.703,40.709,38.348,45.354z M40.038,43.671c-3.726-3.719-3.726-9.753,0-13.472c3.719-3.719,9.746-3.719,13.465,0  c3.719,3.719,3.719,9.753,0,13.472C49.784,47.39,43.757,47.39,40.038,43.671z M20.495,71.439l26.18,26.144  c2.292,2.293,5.718,2.329,8.011,0.037l26.158-26.078C97.059,54.982,97,28.449,80.572,12.022c-16.529-16.53-43.334-16.53-59.864,0  C4.281,28.449,4.281,54.879,20.495,71.439z M73.149,62.973c-12.055,12.054-31.597,12.054-43.644,0  c-12.054-12.055-12.054-31.591,0-43.644c12.046-12.054,31.589-12.054,43.644,0C85.203,31.382,85.203,50.918,73.149,62.973z"/>
</svg>