<svg xmlns="http://www.w3.org/2000/svg" xmlns:xlink="http://www.w3.org/1999/xlink" version="1.0" id="Layer_1" x="0px" y="0px" width="100px" height="100px" viewBox="0 0 100 100" enable-background="new 0 0 100 100" xml:space="preserve">
<g>
	<g>
		<path fill-rule="evenodd" clip-rule="evenodd" d="M50,0C22.386,0,0,22.385,0,50c0,27.615,22.386,50,50,50    c27.615,0,50-22.385,50-50C100,22.385,77.615,0,50,0z M50,91.669c-23.012,0-41.667-18.655-41.667-41.668S26.989,8.334,50,8.334    c23.013,0,41.667,18.654,41.667,41.667S73.014,91.669,50,91.669z M34.896,42.709c3.739,0,6.771-3.031,6.771-6.771    c0-3.74-3.032-6.772-6.771-6.772c-3.74,0-6.771,3.032-6.771,6.772C28.125,39.678,31.157,42.709,34.896,42.709z M65.106,29.167    c-3.74,0-6.772,3.032-6.772,6.772c0,3.74,3.032,6.771,6.772,6.771s6.771-3.031,6.771-6.771    C71.877,32.198,68.847,29.167,65.106,29.167z M28.125,72.658h43.751v-8.333H28.125V72.658z"/>
	</g>
</g>
</svg>