<svg xmlns="http://www.w3.org/2000/svg" xmlns:xlink="http://www.w3.org/1999/xlink" version="1.2" baseProfile="tiny" id="Layer_1" x="0px" y="0px" width="100px" height="100px" viewBox="0 0 100 100" xml:space="preserve">
<path d="M89,24.092C89,25.146,88.146,26,87.092,26H21.908C20.854,26,20,25.146,20,24.092v-0.185C20,22.854,20.854,22,21.908,22  h65.184C88.146,22,89,22.854,89,23.908V24.092z"/>
<path d="M94.591,23.089c-0.032-0.098-0.12-0.169-0.224-0.185l-1.078-0.158l-0.483-0.979c-0.051-0.098-0.161-0.135-0.249-0.135  s-0.197,0.038-0.246,0.135l-0.484,0.979l-1.079,0.158c-0.104,0.015-0.191,0.087-0.224,0.188c-0.033,0.101-0.006,0.208,0.07,0.28  l0.781,0.761l-0.184,1.079c-0.02,0.104,0.024,0.208,0.11,0.268c0.084,0.063,0.198,0.073,0.288,0.021l0.967-0.507l0.968,0.507  c0.093,0.052,0.207,0.039,0.291-0.021c0.084-0.06,0.127-0.165,0.11-0.268l-0.187-1.079l0.781-0.761  C94.596,23.3,94.623,23.193,94.591,23.089z"/>
<path d="M12.133,21.781c0.199-0.199,0.522-0.199,0.72,0l1.442,1.442c0.2,0.199,0.2,0.522,0,0.721l-1.442,1.442  c-0.198,0.199-0.521,0.199-0.72,0c-0.199-0.199-0.199-0.522,0-0.721l0.572-0.572h-1.561c-0.281,0-0.51-0.229-0.51-0.509  c0-0.282,0.229-0.51,0.51-0.51h1.561l-0.572-0.571C11.934,22.303,11.934,21.98,12.133,21.781z"/>
<path d="M8.003,25.385c-0.199,0.199-0.522,0.199-0.721,0L5.84,23.943c-0.199-0.199-0.199-0.522,0-0.721l1.442-1.442  c0.199-0.199,0.522-0.199,0.721,0c0.199,0.199,0.199,0.522,0,0.721l-0.572,0.572h1.561c0.281,0,0.51,0.229,0.51,0.51  c0,0.282-0.229,0.51-0.51,0.51H7.432l0.572,0.572C8.203,24.863,8.203,25.186,8.003,25.385z"/>
<path d="M18.914,23.913c-0.149,0-0.282-0.003-0.388-0.006c-0.073-0.002-0.134-0.003-0.181-0.003c-0.072,0-0.239,0-0.239,0.152  c0,0.475-0.386,0.861-0.861,0.861c-0.476,0-0.862-0.483-0.862-0.958S16.771,23,17.246,23h0.167l-0.139,0.235  c-0.089,0.089-0.139,0.256-0.139,0.383s0.049,0.27,0.139,0.359c0.178,0.179,0.49,0.19,0.668,0.012l0.944-0.938  c0.089-0.089,0.139-0.205,0.139-0.332s-0.049-0.244-0.143-0.336l-0.969-0.897c-0.178-0.178-0.49-0.178-0.669,0  c-0.089,0.09-0.139,0.209-0.139,0.335s0.05,0.122,0.149,0.22l0.1-0.042h-0.08c-0.009,0-0.019,0.121-0.029,0.121  c-0.996,0-1.807,0.873-1.808,1.87c0,0.997,0.811,1.839,1.808,1.839c0.997,0,1.808-0.795,1.808-1.792  C19.054,23.96,18.991,23.913,18.914,23.913z"/>
<path d="M100,13.4c0-2.43-1.97-4.4-4.4-4.4H4.4C1.97,9,0,10.97,0,13.4V89.6c0,2.43,1.97,4.4,4.4,4.4H95.6c2.431,0,4.4-1.971,4.4-4.4  V13.4z M94.938,12.686c0.941,0,1.705,0.763,1.705,1.704c0,0.941-0.764,1.705-1.705,1.705c-0.94,0-1.704-0.763-1.704-1.705  C93.234,13.449,93.998,12.686,94.938,12.686z M90.281,12.686c0.941,0,1.704,0.763,1.704,1.704c0,0.941-0.763,1.705-1.704,1.705  s-1.705-0.763-1.705-1.705C88.576,13.449,89.34,12.686,90.281,12.686z M85.85,12.686c0.941,0,1.704,0.763,1.704,1.704  c0,0.941-0.763,1.705-1.704,1.705s-1.704-0.763-1.704-1.705C84.146,13.449,84.908,12.686,85.85,12.686z M98,89.57  c0,1.455-0.771,2.43-2.226,2.43H4.761C3.306,92,2,91.025,2,89.57V19h96V89.57z"/>
<path d="M89.361,29H10.176C7.744,29,6,30.545,6,32.975V83.6c0,2.43,2.195,4.4,4.625,4.4h79.186C92.242,88,94,86.029,94,83.6V32.975  C94,30.545,91.791,29,89.361,29z M92,83.57c0,1.455-0.559,2.43-2.014,2.43h-79C9.531,86,8,85.025,8,83.57V33.004  C8,31.549,8.545,31,10,31h79c1.455,0,3,0.549,3,2.004V83.57z"/>
</svg>