<?xml version="1.0" encoding="utf-8"?>
<!-- Generator: Adobe Illustrator 15.1.0, SVG Export Plug-In . SVG Version: 6.00 Build 0)  -->
<!DOCTYPE svg PUBLIC "-//W3C//DTD SVG 1.1//EN" "http://www.w3.org/Graphics/SVG/1.1/DTD/svg11.dtd">
<svg version="1.1" id="Layer_1" xmlns="http://www.w3.org/2000/svg" xmlns:xlink="http://www.w3.org/1999/xlink" x="0px" y="0px"
	 width="100px" height="100px" viewBox="0 0 100 100" enable-background="new 0 0 100 100" xml:space="preserve">
<path d="M50,84c-3.366,0-6.513,0.077-9.464,0.209c0.853,2.516,2.677,4.575,5.028,5.743C46.902,90.617,48.404,91,50,91
	s3.098-0.383,4.436-1.048c2.352-1.168,4.176-3.228,5.028-5.743C56.513,84.077,53.366,84,50,84z"/>
<path d="M98.447,83.224h0.002C77.732,56.169,93.332,14.587,58.985,8.707C58.829,3.881,54.864,0,50,0s-8.829,3.881-8.985,8.707
	C6.668,14.587,22.268,56.169,1.551,83.224h0.002C0.559,84.342,0,85.595,0,87c0,12.635,44.882,13,50,13s50-0.365,50-13
	C100,85.595,99.441,84.342,98.447,83.224z M50,4c2.483,0,4.533,1.825,4.919,4.201C53.365,8.073,51.735,8,50,8
	s-3.365,0.073-4.919,0.201C45.467,5.825,47.517,4,50,4z M50,94c-25.903,0-41.604-4.352-43.863-7C8.396,84.352,24.098,80,50,80
	s41.604,4.352,43.863,7C91.604,89.648,75.903,94,50,94z"/>
</svg>
