<svg xmlns="http://www.w3.org/2000/svg" xmlns:xlink="http://www.w3.org/1999/xlink" version="1.1" id="Layer_1" x="0px" y="0px" width="100px" height="100px" viewBox="0 0 100 100" enable-background="new 0 0 100 100" xml:space="preserve">
<path d="M56.959,25.209c-2.152,0-4.256,0.246-6.287,0.714c-0.181-0.004-0.361,0.017-0.543,0.017c-0.453,0-0.901,0.06-1.349,0.06  c0.001,0,0.003,0,0.004,0c17.301,0,31.324,15.854,31.324,35.442c0,17.021-10.592,31.229-24.719,34.663  c0.52,0.027,1.043,0.043,1.569,0.043c17.299,0,31.323-15.884,31.323-35.471C88.282,41.09,74.258,25.209,56.959,25.209z"/>
<path d="M77.25,61.047c0-19.588-14.022-35.467-31.323-35.467c-1.791,0-3.545,0.173-5.254,0.5  c-16.058,1.525-28.671,16.764-28.671,35.339c0,14.013,7.177,26.124,17.596,31.887C34.188,96.291,39.509,98,45.184,98  c11.968,0,22.365-7.6,27.64-18.769C75.633,73.915,77.25,67.694,77.25,61.047z"/>
<g>
	<rect x="51" y="5" width="3" height="23"/>
</g>
</svg>