<svg xmlns="http://www.w3.org/2000/svg" xmlns:xlink="http://www.w3.org/1999/xlink" version="1.1" id="Layer_1" x="0px" y="0px" width="100px" height="62.268px" viewBox="0 0 100 62.268" enable-background="new 0 0 100 62.268" xml:space="preserve">
<path d="M89.109,52.631V0h-65.7v52.631h18.942v4.703H28.884v4.934h54.75v-4.934H70.167v-4.703H89.109z M67.169,37.831  c0,2.528-2.049,4.577-4.577,4.577H49.926c-2.527,0-4.577-2.049-4.577-4.577V24.438c0-2.528,2.049-4.578,4.577-4.578h12.666  c2.528,0,4.577,2.049,4.577,4.578V37.831z"/>
<path d="M21.392,0h-5.867c-1.868,0-3.382,1.977-3.382,4.416v43.799c0,2.438,1.514,4.416,3.382,4.416h5.867V0z"/>
<path d="M90.751,52.631h5.866c1.868,0,3.383-1.978,3.383-4.416V4.416C100,1.977,98.485,0,96.617,0h-5.866V52.631z"/>
<rect y="22.43" width="10.785" height="7.771"/>
<circle cx="56.077" cy="28.204" r="2.296"/>
<circle cx="51.662" cy="34.561" r="2.296"/>
<circle cx="60.492" cy="34.561" r="2.296"/>
</svg>