<svg xmlns="http://www.w3.org/2000/svg" xmlns:xlink="http://www.w3.org/1999/xlink" version="1.1" id="Layer_1" x="0px" y="0px" width="100px" height="100px" viewBox="0 0 100 100" enable-background="new 0 0 100 100" xml:space="preserve">
<path d="M95.229,44.471H55.529V15.829h31.554C99.583,15.829,100,0,100,0c-4.541,4.542-11.667,4.551-11.667,4.551l-44.083,0v39.92  H15.829V12.917C15.829,0.417,0,0,0,0c4.542,4.541,4.551,11.667,4.551,11.667l0,44.083h39.7v28.199l-31.333,0.002  C0.417,83.951,0,100,0,100c4.541-4.542,11.667-4.771,11.667-4.771h43.862V55.75h28.42l0.002,31.333C83.951,99.583,100,100,100,100  c-4.542-4.541-4.771-11.667-4.771-11.667V44.471z"/>
<circle cx="29.333" cy="30" r="6.167"/>
<circle cx="70.219" cy="30" r="6.167"/>
<circle cx="29.333" cy="70.5" r="6.167"/>
<circle cx="70.219" cy="70.5" r="6.167"/>
</svg>