<svg xmlns="http://www.w3.org/2000/svg" xmlns:xlink="http://www.w3.org/1999/xlink" version="1.1" id="Mountains" x="0px" y="0px" width="100.0px" height="100px" viewBox="0 0 360 360" enable-background="new 0 0 360 360" xml:space="preserve">
<g>
	<path d="M25.729,224.154h201.276l-100.638-88.308L25.729,224.154z M138.282,175.764l11.529,10.168l11.53-10.169h0.197   l47.391,41.585H43.806c0,0,47.39-41.583,47.39-41.583h0.271l11.528,10.167l11.529-10.168h0.217l11.528,10.168l11.529-10.168   H138.282z"/>
	<polygon points="167.261,162.674 183.261,176.816 190.46,170.467 197.659,176.816 204.94,170.394 212.224,176.816 223.187,167.147    272.567,210.443 221.739,210.443 229.497,217.25 290.646,217.25 197.835,135.847  "/>
	<polygon points="249.757,135.847 228.956,154.099 241.226,164.85 246.419,160.269 251.614,164.85 256.868,160.215 262.124,164.85    267.294,160.289 316.612,203.539 285.329,203.539 293.087,210.346 334.69,210.346  "/>
</g>
</svg>