<?xml version="1.0" encoding="utf-8"?>
<!-- Generator: Adobe Illustrator 15.1.0, SVG Export Plug-In . SVG Version: 6.00 Build 0)  -->
<!DOCTYPE svg PUBLIC "-//W3C//DTD SVG 1.1//EN" "http://www.w3.org/Graphics/SVG/1.1/DTD/svg11.dtd">
<svg version="1.1" id="Layer_1" xmlns="http://www.w3.org/2000/svg" xmlns:xlink="http://www.w3.org/1999/xlink" x="0px" y="0px"
	 width="100px" height="97px" viewBox="0 0 100 97" enable-background="new 0 0 100 97" xml:space="preserve">
<path d="M50,0C10,0,0,37,0,50c0,9.102,3.893,18.846,14.236,25.561c1.09,5.289,2.92,11.838,5.643,14.561
	C24.141,94.383,40.295,97,50,97s25.859-2.617,30.121-6.879c2.723-2.723,4.553-9.271,5.643-14.561C96.107,68.846,100,59.102,100,50
	C100,37,90,0,50,0z M50,4c8.837,0,16,7.163,16,16s-7.163,16-16,16s-16-7.163-16-16S41.163,4,50,4z M7,57
	c-0.732,0-1.448-0.066-2.155-0.162C4.292,54.687,4,52.408,4,50c0-4.508,1.692-14.729,7.307-24.396C18.049,27.485,23,33.657,23,41
	C23,49.837,15.837,57,7,57z M75.879,85.879C73.903,87.854,61.258,91,50,91s-23.903-3.146-25.879-5.121
	c-0.98-0.98-1.961-3.562-2.816-6.654c-0.944-3.412-1.736-7.446-2.199-10.659C23.117,62.224,40.493,57,50,57
	s26.885,5.224,30.895,11.565c-0.461,3.212-1.252,7.245-2.197,10.658C77.842,82.314,76.861,84.896,75.879,85.879z M93,57
	c-8.837,0-16-7.163-16-16c0-7.343,4.951-13.515,11.693-15.396C94.308,35.271,96,45.492,96,50c0,2.408-0.292,4.687-0.845,6.838
	C94.448,56.934,93.732,57,93,57z"/>
</svg>
