<svg xmlns="http://www.w3.org/2000/svg" xmlns:xlink="http://www.w3.org/1999/xlink" version="1.1" x="0px" y="0px" width="100px" height="100px" viewBox="-346 256 100 100" enable-background="new -346 256 100 100" xml:space="preserve">
<g id="Layer_1">
</g>
<g id="Layer_2">
	<g>
		<path d="M-323.957,302.653c2.243,0.119,4.519,0.259,6.792,0.432c7.059,0.534,13.126,1.266,18.227,2.202    c8.363,1.345,16.47,3.224,23.3,5.852c11.666,4.486,20.643,9.322,27.063,13.352c3.514-10.89,9.799-57.071-33.158-62.174    c-0.763-2.444-2.943-4.223-5.546-4.223c-2.475,0-4.58,1.603-5.438,3.861c-19.037,1.101-28.888,12.142-33.75,31.148l-19.609,8.929    C-340.631,302.016-332.785,302.126-323.957,302.653z"/>
		<path d="M-299.634,330.888c5.219-1.093,17.71-4.657,17.353-13.689c-0.114-2.872-4.308-5.131-10.914-6.855L-299.634,330.888z"/>
		<path d="M-296.85,309.559c-8.88-1.556-18.257-2.468-26.78-2.992l-0.19,0.189l-5.541,13.314c-0.138,0.308-0.203,0.663-0.203,1.028    c0,1.459,1.178,2.645,2.644,2.645h4.405v9.182c0,7.162,5.792,12.963,12.947,12.963h1.33L-296.85,309.559z"/>
	</g>
	<g>
		<path d="M-288.914,331.266l36.302-4.715c-6.088-3.673-14.212-7.906-24.405-11.826c-0.836-0.321-1.694-0.632-2.571-0.931    c0.64,1.018,0.982,2.103,1.028,3.257C-278.277,324.21-283.43,328.612-288.914,331.266z"/>
		<polygon points="-301.392,336.499 -304.421,346.158 -304.421,355.943 -268.352,355.943 -268.352,339.045 -268.359,332.266   "/>
	</g>
</g>
</svg>