<svg xmlns="http://www.w3.org/2000/svg" xmlns:xlink="http://www.w3.org/1999/xlink" version="1.1" id="Layer_1" x="0px" y="0px" width="100px" height="100px" viewBox="0 0 100 100" enable-background="new 0 0 100 100" xml:space="preserve">
<g>
	<path d="M85.355,14.645C75.912,5.201,63.355,0,50,0S24.088,5.201,14.645,14.645S0,36.645,0,50s5.201,25.911,14.645,35.355   S36.645,100,50,100s25.912-5.2,35.355-14.645S100,63.355,100,50S94.799,24.088,85.355,14.645z M50,95.735   c-25.335,0-45.947-20.506-45.947-45.841C4.053,24.559,24.665,3.874,50,3.874c23.092,0,42.257,17.268,45.471,39.268h-6.159   c-1.534-5-5.036-10.661-9.802-14.312c-0.053-0.04-0.106-0.016-0.16-0.056c-0.117-0.089-0.234,0.052-0.354-0.035   c-4.998-3.646-11.291-5.597-18.104-5.597H35.465v10.577c0-0.018-0.069,0.423-0.207,0.423h-22.29c-1.672,0-3.503,0.914-3.503,2.586   v4.863c0,1.671,1.832,3.551,3.503,3.551h22.29c0.138,0,0.207-0.524,0.207-0.542V55.4c0-0.019-0.069-0.259-0.207-0.259h-22.29   c-1.672,0-3.503,1.596-3.503,3.268v4.863c0,1.672,1.832,2.869,3.503,2.869h22.29c0.138,0,0.207,0.158,0.207,0.141v10.859h25.427   c13.683,0,25.202-9,28.398-21h6.187C92.281,79.142,73.107,95.735,50,95.735z M79.636,49.916c0,9.177-7.439,16.616-16.616,16.616   s-16.616-7.439-16.616-16.616S53.843,33.3,63.02,33.3S79.636,40.739,79.636,49.916z M18.857,39.159c0,1.96-1.589,3.549-3.549,3.549   s-3.549-1.589-3.549-3.549c0-1.96,1.589-3.55,3.549-3.55S18.857,37.199,18.857,39.159z M18.857,60.841   c0,1.961-1.589,3.55-3.549,3.55s-3.549-1.589-3.549-3.55c0-1.96,1.589-3.549,3.549-3.549S18.857,58.881,18.857,60.841z"/>
	<polygon points="68.078,37.468 53.145,53.306 59.969,51.241 55.588,62.397 71.146,45.9 63.908,48.089  "/>
</g>
</svg>