<svg xmlns="http://www.w3.org/2000/svg" xmlns:xlink="http://www.w3.org/1999/xlink" version="1.1" id="Layer_1" x="0px" y="0px" width="100px" height="100px" viewBox="0 0 100 100" enable-background="new 0 0 100 100" xml:space="preserve">
<path d="M62.498,51.353l-0.292-21.368l-6.984,4.161v-3.867c0-1.636-1.325-2.961-2.961-2.961H7.845c-1.635,0-2.961,1.325-2.961,2.961  v20.779c0,1.636,1.326,2.961,2.961,2.961h13.922L6.159,88.489c-0.422,0.932-0.008,2.028,0.922,2.449  c0.249,0.112,0.508,0.165,0.763,0.165c0.704,0,1.377-0.404,1.687-1.087L25.83,54.02h2.373v35.235c0,1.021,0.829,1.849,1.851,1.849  s1.851-0.827,1.851-1.849V54.02h2.595l16.299,35.997c0.311,0.683,0.982,1.087,1.688,1.087c0.255,0,0.513-0.053,0.762-0.165  c0.931-0.421,1.344-1.518,0.922-2.449L38.562,54.02h13.698c1.636,0,2.961-1.325,2.961-2.961v-3.775L62.498,51.353z"/>
<path d="M64.746,32.874c-0.312,0-0.599-0.205-0.688-0.52c-0.108-0.38,0.112-0.776,0.492-0.884l2.753-0.782  c0.377-0.109,0.775,0.112,0.883,0.492c0.108,0.38-0.112,0.777-0.492,0.884l-2.752,0.783C64.877,32.864,64.811,32.874,64.746,32.874z   M70.25,31.309c-0.311,0-0.598-0.206-0.687-0.52c-0.108-0.38,0.112-0.777,0.491-0.884l2.754-0.782  c0.378-0.108,0.774,0.111,0.883,0.492c0.107,0.38-0.111,0.776-0.492,0.885l-2.752,0.782C70.381,31.301,70.315,31.309,70.25,31.309z   M75.755,29.745c-0.311,0-0.598-0.206-0.687-0.521c-0.109-0.379,0.112-0.776,0.492-0.884l2.753-0.782  c0.377-0.108,0.774,0.112,0.884,0.493c0.106,0.379-0.114,0.776-0.493,0.883l-2.752,0.783C75.887,29.735,75.82,29.745,75.755,29.745z   M81.26,28.18c-0.312,0-0.598-0.206-0.686-0.52c-0.109-0.38,0.111-0.776,0.491-0.885l2.751-0.782  c0.377-0.109,0.778,0.112,0.884,0.492c0.109,0.38-0.111,0.776-0.491,0.884l-2.753,0.782C81.392,28.171,81.325,28.18,81.26,28.18z   M86.766,26.616c-0.312,0-0.598-0.206-0.688-0.52c-0.108-0.38,0.112-0.777,0.492-0.884l2.752-0.784  c0.379-0.108,0.774,0.113,0.884,0.493c0.108,0.379-0.112,0.776-0.493,0.884l-2.75,0.782C86.896,26.607,86.83,26.616,86.766,26.616z   M92.271,25.051c-0.312,0-0.598-0.205-0.688-0.52c-0.107-0.38,0.111-0.776,0.493-0.884l2.751-0.782  c0.377-0.108,0.774,0.113,0.885,0.492c0.108,0.38-0.112,0.776-0.492,0.884l-2.753,0.783C92.4,25.042,92.335,25.051,92.271,25.051z"/>
<path d="M95.788,58.631c-0.064,0-0.131-0.008-0.195-0.025l-2.754-0.782c-0.38-0.108-0.6-0.503-0.492-0.883  c0.11-0.381,0.508-0.603,0.885-0.494l2.752,0.784c0.38,0.107,0.6,0.501,0.494,0.881C96.386,58.428,96.101,58.631,95.788,58.631z   M90.284,57.067c-0.066,0-0.131-0.009-0.195-0.025l-2.754-0.784c-0.381-0.107-0.602-0.503-0.493-0.883  c0.109-0.381,0.503-0.602,0.884-0.492l2.753,0.782c0.381,0.107,0.6,0.503,0.493,0.883C90.881,56.862,90.595,57.067,90.284,57.067z   M84.778,55.504c-0.064,0-0.131-0.009-0.196-0.027l-2.752-0.782c-0.38-0.109-0.601-0.505-0.493-0.885  c0.108-0.379,0.506-0.6,0.883-0.491l2.755,0.781c0.38,0.108,0.6,0.504,0.492,0.885C85.377,55.299,85.09,55.504,84.778,55.504z   M79.275,53.94c-0.065,0-0.133-0.009-0.198-0.029l-2.752-0.781c-0.38-0.108-0.6-0.504-0.492-0.884  c0.107-0.381,0.502-0.604,0.884-0.491l2.753,0.779c0.379,0.108,0.601,0.505,0.491,0.885C79.873,53.733,79.586,53.94,79.275,53.94z   M73.77,52.376c-0.065,0-0.132-0.01-0.197-0.028l-2.752-0.783c-0.38-0.108-0.601-0.502-0.492-0.883  c0.107-0.38,0.503-0.603,0.884-0.493l2.752,0.782c0.38,0.108,0.601,0.504,0.492,0.883C74.367,52.169,74.081,52.376,73.77,52.376z   M68.264,50.811c-0.064,0-0.131-0.009-0.196-0.028l-2.752-0.781c-0.379-0.108-0.6-0.503-0.492-0.883s0.505-0.601,0.884-0.495  l2.752,0.784c0.38,0.108,0.601,0.503,0.492,0.884C68.861,50.605,68.575,50.811,68.264,50.811z"/>
</svg>