<svg xmlns="http://www.w3.org/2000/svg" xmlns:xlink="http://www.w3.org/1999/xlink" version="1.1" id="Layer_1" x="0px" y="0px" width="100px" height="100px" viewBox="0 0 100 100" enable-background="new 0 0 100 100" xml:space="preserve">
<path d="M79.174,49.646c4.14,3.372,7.785,7.325,10.814,11.736c-0.812-3.784-1.242-7.71-1.242-11.736  c0-4.026,0.431-7.952,1.242-11.736C86.959,42.321,83.313,46.275,79.174,49.646z"/>
<path d="M8.836,49.646c6.628,5.397,14.52,9.299,23.163,11.198c1.64-3.385,2.56-7.184,2.56-11.198s-0.92-7.813-2.56-11.198  C23.356,40.347,15.464,44.249,8.836,49.646z M27.515,50.12c-2.269,0-4.107-1.839-4.107-4.107s1.839-4.107,4.107-4.107  s4.107,1.839,4.107,4.107S29.783,50.12,27.515,50.12z"/>
<path d="M62.292,59.07c6.196-2.152,11.897-5.365,16.882-9.424c-9.593-7.812-21.833-12.498-35.168-12.498  c-1.184,0-2.358,0.038-3.522,0.112L62.292,59.07z"/>
<path d="M35.093,38.85c1.372,3.329,2.136,6.973,2.136,10.796c0,4.178-0.91,8.143-2.531,11.715c3.027,0.509,6.134,0.782,9.307,0.782  c4.434,0,8.747-0.521,12.881-1.5L35.093,38.85z"/>
<g>
	<path d="M49.413,99.646c-13.356,0-25.912-5.201-35.356-14.645c-9.443-9.444-14.645-22-14.645-35.356   c0-13.355,5.201-25.912,14.645-35.355c9.444-9.444,22-14.645,35.356-14.645c13.355,0,25.912,5.201,35.355,14.645   s14.645,22,14.645,35.355c0,13.356-5.201,25.912-14.645,35.356C75.324,94.445,62.768,99.646,49.413,99.646z M49.413,3.147   c-25.639,0-46.499,20.859-46.499,46.499s20.859,46.499,46.499,46.499c25.638,0,46.498-20.859,46.498-46.499   S75.051,3.147,49.413,3.147z"/>
</g>
<rect x="47.684" y="1.124" transform="matrix(0.7073 -0.707 0.707 0.7073 -20.6421 49.4426)" width="3.39" height="97.044"/>
</svg>