<svg xmlns="http://www.w3.org/2000/svg" xmlns:xlink="http://www.w3.org/1999/xlink" version="1.1" id="Mountains" x="0px" y="0px" width="100.0px" height="100px" viewBox="0 0 360 360" enable-background="new 0 0 360 360" xml:space="preserve">
<path d="M281.014,221.136h42.584l-22.748-24.319h16.812l-24.377-23.565h13.514l-24.85-24.021h13.041l-34.807-33.646l-16.805,16.244  l-25.582-24.73l-21.604,20.88l-16.966-16.402l-16.194,15.654l-20.829-20.133l-25.584,24.73l-16.805-16.244l-34.807,33.646H78.05  l-24.849,24.021h13.514l-24.378,23.565h16.814l-22.748,24.319h42.583l-13.129,14.035h45.756l-15.962,17.065h167.152l-15.963-17.065  h47.303L281.014,221.136z M93.813,205.285l-9.214,9.851H50.231l22.748-24.319H57.177l24.378-23.565H68.04l24.849-24.022H79.849  l19.967-19.301L112.304,136l-11.176,10.803h16.025l-30.538,29.522h16.608l-29.959,28.96H93.813z M248.975,246.236H109.479  l30.865-32.997h-21.622l33.079-31.975h-18.339l33.719-32.595h-17.693l29.739-28.749l12.65,12.229l0,0l17.09,16.52h-17.693  l33.719,32.595h-18.338l33.078,31.975h-21.623l20.514,21.932l0,0L248.975,246.236z M266.188,205.285h20.547l-29.959-28.96h16.607  l-30.535-29.522h16.023L247.695,136l12.488-12.071l19.967,19.301h-13.041l24.85,24.022h-13.514l24.377,23.565h-15.801l22.748,24.319  h-34.367L266.188,205.285z"/>
</svg>