<svg xmlns="http://www.w3.org/2000/svg" xmlns:xlink="http://www.w3.org/1999/xlink" version="1.1" x="0px" y="0px" width="100px" height="100px" viewBox="-346 256 100 100" enable-background="new -346 256 100 100" xml:space="preserve">
<g id="Layer_2">
</g>
<g id="Layer_1">
	<path d="M-311.153,335.787c12.2-1.335,19.875-4.681,20.031-9.616c0.118-3.744-6.238-4.836-6.302-4.847l-18.285-3.125l-4.317,10.408   c-0.112,0.248-0.165,0.537-0.165,0.834c0,1.183,0.956,2.145,2.145,2.145h4.122v4.498C-312.852,336-312.302,335.913-311.153,335.787   z"/>
	<path d="M-324.541,285.398c0,0-4.177,3.323-8.488,8.084c-6.76,7.465-12.246,15.568-12.91,16.695l4.595,0.75   c1.981-3.182,6.305-9.394,12.2-15.625c4.333-4.581,8.51-7.613,8.51-7.613L-324.541,285.398z"/>
	<path d="M-285.194,277.734c-13.783-0.437-24.859,4.811-33.226,11.314c6.88,4.115,34.188,20.443,34.188,20.443   c1.056,0.765,1.432,1.956,1.347,2.965c-0.179,2.155-1.781,3.314-3.553,3.173c-0.201-0.016-37.387-6.836-48.194-8.825   c-1.486,2.263-2.426,3.967-2.816,4.713l40.506,6.924c0.353,0.057,8.941,1.516,8.742,7.82c-0.21,6.699-8.461,10.882-22.635,12.432   c-4.678,0.512-8.746,0.678-12.057,0.678c-0.362,0-3.723-0.002-4.067-0.006c0.632,6.463,6.635,14.565,9.158,16.635l50.737-0.062   c0,0,19.795-9.258,21.013-36.057C-244.933,295.29-262.131,278.465-285.194,277.734z"/>
	<path d="M-288.438,312.249c0-1.023,0.834-1.854,1.856-1.854c1.021,0,1.854,0.83,1.854,1.854c0,1.026-0.832,1.854-1.854,1.854   C-287.604,314.104-288.438,313.275-288.438,312.249z"/>
</g>
</svg>