<svg xmlns="http://www.w3.org/2000/svg" xmlns:xlink="http://www.w3.org/1999/xlink" version="1.1" id="Layer_1" x="0px" y="0px" width="100px" height="100px" viewBox="0 0 100 100" enable-background="new 0 0 100 100" xml:space="preserve">
<path d="M64,21.245C64,18.9,62.101,17,59.757,17H26.243C23.9,17,22,18.9,22,21.245v72.51C22,96.1,23.9,98,26.243,98h33.514  C62.101,98,64,96.1,64,93.755V21.245z M38.004,23h10.226c0.376,0,0.681,0.609,0.681,1s-0.305,1-0.681,1H38.004  c-0.373,0-0.678-0.609-0.678-1S37.631,23,38.004,23z M43.104,94.925c-2.148,0-3.89-1.742-3.89-3.891s1.742-3.891,3.89-3.891  c2.149,0,3.891,1.742,3.891,3.891S45.252,94.925,43.104,94.925z M63,86H23V28h40V86z"/>
<path d="M67.518,15.209c1.581,1.58,2.415,3.589,2.465,5.512c0.529-2.166-0.045-4.547-1.736-6.238  c-1.692-1.692-4.073-2.266-6.238-1.736C63.929,12.796,65.941,13.629,67.518,15.209z"/>
<path d="M71.423,11.303c2.1,2.099,3.208,4.769,3.273,7.322c0.703-2.877-0.06-6.04-2.308-8.288c-2.248-2.249-5.408-3.011-8.288-2.306  C66.655,8.097,69.325,9.204,71.423,11.303z"/>
<path d="M75.33,7.397c2.619,2.618,3.997,5.948,4.083,9.135c0.878-3.59-0.075-7.536-2.878-10.341  c-2.806-2.804-6.749-3.754-10.341-2.876C69.38,3.398,72.712,4.779,75.33,7.397z"/>
</svg>