<?xml version="1.0" encoding="utf-8"?>
<!-- Generator: Adobe Illustrator 15.1.0, SVG Export Plug-In . SVG Version: 6.00 Build 0)  -->
<!DOCTYPE svg PUBLIC "-//W3C//DTD SVG 1.1//EN" "http://www.w3.org/Graphics/SVG/1.1/DTD/svg11.dtd">
<svg version="1.1" id="Layer_1" xmlns="http://www.w3.org/2000/svg" xmlns:xlink="http://www.w3.org/1999/xlink" x="0px" y="0px"
	 width="100px" height="33px" viewBox="0 0 100 33" enable-background="new 0 0 100 33" xml:space="preserve">
<path d="M96,10H67.1c-0.745-1.225-1.824-2-3.028-2s-2.283,0.775-3.028,2H18.602C17.434,4.219,13.803,0,9.5,0C4.253,0,0,6.268,0,14
	s4.253,14,9.5,14c4.303,0,7.934-4.219,9.102-10h42.441c0.745,1.225,1.824,2,3.028,2s2.283-0.775,3.028-2H78v3c2.209,0,4,1.791,4,4
	s-1.791,4-4,4v4h4c0-2.209,1.791-4,4-4s4,1.791,4,4h4v-4c-2.209,0-4-1.791-4-4s1.791-4,4-4v-3h2c2.209,0,4-1.791,4-4
	S98.209,10,96,10z M14.5,18c0,2.762-2.238,5-5,5s-5-2.238-5-5c0-1.644,0.803-3.089,2.027-4C5.303,13.089,4.5,11.644,4.5,10
	c0-2.762,2.238-5,5-5s5,2.238,5,5c0,1.644-0.803,3.089-2.027,4C13.697,14.911,14.5,16.356,14.5,18z"/>
</svg>
