<svg xmlns="http://www.w3.org/2000/svg" xmlns:xlink="http://www.w3.org/1999/xlink" version="1.1" id="Layer_1" x="0px" y="0px" width="100px" height="100px" viewBox="0 0 100 100" enable-background="new 0 0 100 100" xml:space="preserve">
<path d="M16.884,78.248h65.853c3.329,0,6.043-2.713,6.043-6.043V28.943c0-3.333-2.714-6.046-6.043-6.046H61.818v-3.399  c0-3.33-2.713-6.042-6.047-6.042H43.849c-3.333,0-6.047,2.713-6.047,6.042v3.399H16.884c-3.333,0-6.042,2.713-6.042,6.046v43.262  C10.841,75.535,13.551,78.248,16.884,78.248z M43.297,19.498c0-0.301,0.247-0.547,0.551-0.547h11.923  c0.305,0,0.552,0.247,0.552,0.547v3.399H43.297V19.498z M16.333,28.943c0-0.304,0.247-0.551,0.551-0.551h20.918h5.496h13.026h5.495  h20.918c0.301,0,0.547,0.247,0.547,0.551v43.262c0,0.309-0.246,0.555-0.547,0.555H16.884c-0.304,0-0.551-0.246-0.551-0.555V28.943z"/>
<path d="M40.985,51.988l6.077-6.077v15.958c0,1.519,1.229,2.744,2.748,2.744s2.748-1.226,2.748-2.744V45.911l6.073,6.077  c0.536,0.536,1.245,0.806,1.946,0.806c0.702,0,1.403-0.27,1.942-0.806c1.071-1.071,1.071-2.813,0-3.884L51.752,37.337  c-0.034-0.035-0.069-0.062-0.104-0.093c-0.031-0.031-0.062-0.058-0.093-0.084c-0.03-0.027-0.062-0.046-0.093-0.069  c-0.042-0.031-0.08-0.065-0.123-0.093c-0.026-0.015-0.05-0.031-0.073-0.046c-0.054-0.031-0.104-0.066-0.158-0.093  c-0.019-0.011-0.038-0.019-0.054-0.027c-0.065-0.031-0.127-0.062-0.192-0.089c-0.012-0.007-0.027-0.011-0.039-0.015  c-0.069-0.027-0.143-0.054-0.212-0.077c-0.016-0.004-0.031-0.008-0.042-0.012c-0.073-0.019-0.146-0.039-0.22-0.054  c-0.027-0.004-0.054-0.008-0.081-0.012c-0.062-0.011-0.123-0.023-0.185-0.027c-0.089-0.012-0.181-0.016-0.274-0.016l0,0  c-0.008,0-0.015,0-0.023,0.004c-0.085,0-0.169,0.004-0.25,0.012c-0.073,0.008-0.146,0.019-0.22,0.031  c-0.016,0.004-0.031,0.004-0.046,0.008c-0.088,0.019-0.173,0.039-0.254,0.065c-0.004,0-0.004,0-0.007,0  c-0.17,0.05-0.332,0.12-0.486,0.201c-0.004,0.003-0.004,0.003-0.008,0.003c-0.073,0.039-0.143,0.081-0.212,0.127  c-0.004,0.004-0.011,0.008-0.019,0.012c-0.069,0.05-0.139,0.1-0.204,0.154c-0.004,0-0.008,0.004-0.012,0.008  c-0.073,0.058-0.139,0.12-0.208,0.185l-10.76,10.763c-1.071,1.071-1.071,2.813,0,3.884C38.172,53.06,39.914,53.06,40.985,51.988z"/>
<path d="M97.088,81.901H2.583c-1.519,0-2.748,1.233-2.748,2.744c0,1.525,1.229,2.751,2.748,2.751h94.505  c1.518,0,2.743-1.226,2.743-2.751C99.831,83.135,98.605,81.901,97.088,81.901z"/>
</svg>