<svg xmlns="http://www.w3.org/2000/svg" xmlns:xlink="http://www.w3.org/1999/xlink" version="1.1" id="Layer_1" x="0px" y="0px" width="100px" height="100px" viewBox="0 0 100 100" enable-background="new 0 0 100 100" xml:space="preserve">
<ellipse fill="none" stroke="#000000" stroke-width="2" stroke-miterlimit="10" cx="37.263" cy="42.118" rx="13.191" ry="13.392"/>
<path fill="none" stroke="#000000" stroke-width="2" stroke-miterlimit="10" d="M60.643,55.158c-3.598,0-10.188,7.146-10.188,7.146  s-7.354-7.475-10.273-7.135"/>
<path stroke="#000000" stroke-miterlimit="10" d="M25.312,51.004c0,0-25.91,9.674-10.916,35.615h33.487c0,0-1-16.713-13.993-17.809  C33.89,68.811,21.181,67.342,25.312,51.004z"/>
<path stroke="#000000" stroke-miterlimit="10" d="M75.688,51.004c0,0,25.91,9.674,10.918,35.615h-33.49c0,0,1-16.713,13.994-17.809  C67.109,68.811,79.818,67.342,75.688,51.004z"/>
<ellipse stroke="#000000" stroke-miterlimit="10" cx="37.263" cy="43.979" rx="5.196" ry="5.342"/>
<path fill="none" stroke="#000000" stroke-width="2" stroke-miterlimit="10" d="M76.836,42.118c0,7.397-5.906,13.392-13.191,13.392  c-7.281,0-13.19-5.994-13.19-13.392c0-7.394,5.909-13.39,13.19-13.39C70.93,28.728,76.836,34.724,76.836,42.118z"/>
<ellipse stroke="#000000" stroke-miterlimit="10" cx="63.983" cy="43.979" rx="5.196" ry="5.342"/>
<g>
	<path d="M50.596,43.978c-0.083-0.609-0.142-1.227-0.142-1.859c0,0.633-0.058,1.25-0.142,1.859H50.596z"/>
	<path d="M76.711,28.728c-2.125-8.07,0-16.347,0-16.347s-12.504,9.167-26.256,9.167c-13.753,0-26.493-9.167-26.493-9.167   s2.334,7.916-0.083,16.499s-2.501,15.098,1.868,21.419l-1.533-6.321c-0.083-0.609-0.142-1.227-0.142-1.859   c0-7.394,5.906-13.39,13.191-13.39s13.191,5.996,13.191,13.39c0-7.394,5.909-13.39,13.19-13.39c7.285,0,13.191,5.996,13.191,13.39   c0,0.633-0.059,1.25-0.143,1.859l-1.898,6.571C79.961,43.978,78.836,36.798,76.711,28.728z"/>
</g>
</svg>