<svg xmlns="http://www.w3.org/2000/svg" xmlns:xlink="http://www.w3.org/1999/xlink" version="1.1" id="Layer_1" x="0px" y="0px" width="100px" height="100px" viewBox="0 0 100 100" enable-background="new 0 0 100 100" xml:space="preserve">
<g>
	<path d="M96.951,39.939v-0.771c0-2.508-1.787-4.513-4.131-5.054C87.598,15.062,70.17,0.998,49.479,0.998   c-20.814,0-38.316,14.23-43.43,33.456c-1.759,0.858-2.998,2.625-2.998,4.715v0.771C1.365,39.939,0,41.301,0,42.98v10.437   c0,1.68,1.365,3.049,3.052,3.049v0.765c0,2.918,2.364,5.28,5.283,5.28c2.911,0,5.275-2.362,5.275-5.28V39.168   c0-1.773-0.923-3.258-2.264-4.217c1.611-5.533,4.382-10.571,8.051-14.83c2.947-3.582,6.587-6.608,10.911-8.9   c0.273-0.151,0.563-0.295,0.836-0.439c0.548-0.267,1.081-0.544,1.65-0.79c5.081-2.367,10.724-3.729,16.685-3.729   c4.457,0,8.727,0.771,12.734,2.133c13.771,4.054,22.299,14.799,25.635,27.161c-0.894,0.943-1.467,2.205-1.467,3.611v18.061   c0,2.713,2.054,4.92,4.687,5.221c-0.9,8.062-6.164,28.415-36.216,30.395c-0.525-2.199-2.491-3.84-4.852-3.84c-2.761,0-5,2.238-5,5   s2.239,5,5,5c2.474,0,4.514-1.8,4.915-4.159c32.083-2.059,37.341-24.243,38.179-32.555c2.219-0.626,3.856-2.642,3.856-5.062v-0.764   c1.687,0,3.049-1.369,3.049-3.049V42.98C100,41.301,98.639,39.939,96.951,39.939z"/>
	<circle cx="50" cy="47.255" r="34.5"/>
</g>
</svg>