<?xml version="1.0" encoding="utf-8"?>
<!-- Generator: Adobe Illustrator 14.0.0, SVG Export Plug-In . SVG Version: 6.00 Build 43363)  -->
<!DOCTYPE svg PUBLIC "-//W3C//DTD SVG 1.0//EN" "http://www.w3.org/TR/2001/REC-SVG-20010904/DTD/svg10.dtd">
<svg version="1.0" id="Layer_1" xmlns="http://www.w3.org/2000/svg" xmlns:xlink="http://www.w3.org/1999/xlink" x="0px" y="0px"
	 width="100px" height="95.41px" viewBox="0 0 100 95.41" enable-background="new 0 0 100 95.41" xml:space="preserve">
<path d="M93.885,60.975c1.56-4.624,2.418-9.567,2.418-14.711C96.303,20.753,75.549,0,50.039,0C24.528,0,3.774,20.753,3.774,46.264
	c0,5.123,0.852,10.048,2.399,14.655C2.373,64.569,0,69.695,0,75.367C0,86.419,8.99,95.41,20.042,95.41h10.671V55.325H20.042
	c-2.485,0-4.865,0.458-7.063,1.288c-0.925-3.294-1.429-6.763-1.429-10.35c0-21.223,17.266-38.488,38.489-38.488
	c21.222,0,38.488,17.266,38.488,38.488c0,3.597-0.507,7.075-1.437,10.379c-2.218-0.848-4.621-1.317-7.133-1.317H69.287V95.41h10.671
	C91.01,95.41,100,86.419,100,75.367C100,69.724,97.651,64.621,93.885,60.975z M22.938,63.102v24.533h-2.895
	c-6.764,0-12.267-5.504-12.267-12.268s5.503-12.266,12.267-12.266H22.938z M79.958,87.635h-2.896V63.102h2.896
	c6.764,0,12.267,5.502,12.267,12.266S86.722,87.635,79.958,87.635z"/>
</svg>
