<svg xmlns="http://www.w3.org/2000/svg" xmlns:xlink="http://www.w3.org/1999/xlink" version="1.1" id="Layer_1" x="0px" y="0px" width="77.2727272727px" height="100px" viewBox="0 0 612 792" enable-background="new 0 0 612 792" xml:space="preserve">
<g>
	<defs>
		<path id="SVGID_1_" d="M424.906,359.901c8.533-50.841,35.197-87.815,66.84-87.815c38.753,0,70.039,55.818,70.039,124.436    s-31.286,124.436-70.039,124.436c-31.643,0-58.307-36.975-66.84-87.816c-3.911,1.067-7.821,1.778-11.732,1.778    c-20.977,0-38.397-17.421-38.397-38.397s17.421-38.397,38.397-38.397C417.085,358.124,420.995,358.835,424.906,359.901z     M453.704,459.095c-4.622-11.021-7.821-25.242-9.243-40.886c4.621-6.399,7.11-14.222,7.11-22.398    c0-7.822-2.489-15.288-6.755-21.688c1.422-11.732,3.91-22.754,7.11-31.643c4.267-23.82,18.132-41.241,34.486-41.241    c19.91,0,35.553,25.599,35.553,57.24c0,13.155-2.844,25.243-7.11,34.842v4.978v2.489c4.622,9.599,7.11,21.331,7.11,34.486    c0,31.642-15.643,57.24-35.553,57.24C471.836,492.515,459.393,478.649,453.704,459.095z M128.394,473.316    c-43.02,0-77.861-34.843-77.861-77.506c0-42.664,34.842-77.506,77.861-77.506c23.109,0,44.085,10.311,58.307,26.665h1.422    c10.666,11.732,34.131,19.909,61.507,20.265c-1.067,9.955-1.778,19.91-1.778,30.576c0,13.154,1.067,25.953,2.844,37.687h-5.333    c-28.798,0-53.685,8.177-63.64,19.554h-0.711C167.146,465.494,148.659,473.316,128.394,473.316z M353.089,523.09    c-34.131,0-62.218-56.885-62.218-127.279c0-70.396,28.087-127.28,62.218-127.28c25.243,0,46.931,30.576,56.885,74.661    c-27.375,1.423-49.773,24.177-49.773,52.264c0,27.731,22.398,50.841,49.773,51.907C400.375,492.159,378.332,523.09,353.089,523.09    z M326.068,534.467c-39.108,0-70.75-61.862-70.75-138.301c0-76.439,31.642-138.302,70.75-138.302    c3.911,0,7.822,0.711,11.732,1.778c-33.419,11.021-59.018,67.906-59.018,136.523s25.598,125.502,59.018,136.523    C333.891,533.756,329.979,534.467,326.068,534.467z"/>
	</defs>
	<clipPath id="SVGID_2_">
		<use xlink:href="#SVGID_1_" overflow="visible"/>
	</clipPath>
	
		<rect x="46.978" y="254.31" clip-path="url(#SVGID_2_)" fill-rule="evenodd" clip-rule="evenodd" fill="#000000" width="518.363" height="283.713"/>
</g>
</svg>