<svg xmlns="http://www.w3.org/2000/svg" xmlns:xlink="http://www.w3.org/1999/xlink" version="1.1" id="Layer_1" x="0px" y="0px" width="100px" height="100px" viewBox="0 0 100 100" enable-background="new 0 0 100 100" xml:space="preserve">
<polygon points="93.847,52.171 93.847,79.997 6.152,79.997 6.152,52.171 29.931,52.171 33.302,55.551 66.71,55.551 70.082,52.171   "/>
<path d="M92.769,81.548v5.79c0,1.896-1.539,3.434-3.435,3.434H10.67c-1.897,0-3.448-1.538-3.448-3.434v-5.79H92.769z"/>
<polygon points="64.25,43.152 64.244,43.159 64.244,43.152 "/>
<g>
	<path d="M65.638,24.679c-0.137-8.556-7.093-15.45-15.649-15.45s-15.512,6.894-15.648,15.45v28.718l31.308-0.013V24.939   C65.648,24.84,65.648,24.753,65.638,24.679z M54.305,24.716c0,2.38-1.935,4.315-4.316,4.315c-2.38,0-4.315-1.935-4.315-4.315   c0-2.381,1.935-4.315,4.315-4.315C52.37,20.4,54.305,22.335,54.305,24.716z"/>
</g>
</svg>