<svg xmlns="http://www.w3.org/2000/svg" xmlns:xlink="http://www.w3.org/1999/xlink" version="1.1" id="Layer_1" x="0px" y="0px" width="100px" height="100px" viewBox="0 0 100 100" enable-background="new 0 0 100 100" xml:space="preserve">
<polygon points="53.91,42.821 64.729,75.842 75.544,75.085 "/>
<polygon points="54.861,42.821 76.441,74.586 89.648,69.011 "/>
<polygon points="75.544,51.102 80.378,61.167 90.072,68.497 97.377,65.484 "/>
<path d="M70.259,78.832L70.259,78.832l-16.88-1.564l-0.136-2.119l10.272,0.693L59.5,61.63l-7.085,0.595l-0.058-0.906l6.813-0.627  L53.38,42.82h-2.208l-0.029-0.513L63.58,42.82l-5.312-9.945l-7.754-0.388l-0.06-0.902l6.468,0.3l-1.982-5.151l-4.821-0.406  l-0.139-2.184l2.18-0.16l0.049,0.701l3.612-1.009l-2.85,0.149l-0.035-0.599l-3.595,0.186l0.007,0.125H49.34l0.128,2.737  l-5.821-0.491l-0.396,5.468l6.463,0.3l0.042,0.898l-6.504-0.326l0.158,9.866l6.808,0.281l0.025,0.551H43.41l0.674,19.258  l7.029-0.646l0.041,0.898l-7.07,0.593l0.819,11.662l6.848,0.461l0.099,2.078l-18.81-1.742l-0.082-1.677l11.126,0.88l-1.056-15.255  L32.286,59.88l-0.04-0.819l10.648-0.601l-0.991-23.29L31.11,35.643l-0.038-0.782l10.872-0.48l-1.942-10.475l-9.458,0.092  l-0.034-0.724l7.904-0.048l-2.045-7.032l-6.206-0.085l-0.11-2.25l4.553-0.222l3.913-0.19v-0.735l7.282-0.357v0.582l9.297-0.456  l-8.41-0.407v-0.725l-9.293,0.51v0.684l-8.172,0.373l0.084,3.183l-6.515-0.088l-1.266,7.318l7.974-0.048l0.019,0.729l-9.616,0.094  l-1.255,11.308l11.166-0.494l0.02,0.783L18.648,36.19l-1.069,23.695l12.886-0.726l0.021,0.812l-12.908,0.66V72.49l13.272,1.05  l0.044,1.646l-14.235-1.318l-0.018-1.398l0.299,0.022V60.633l-0.458,0.036l-0.008-0.612l0.53-0.041l0.319-15.323l-1.055,0.032  l-0.015-1.097l1.261-0.041l0.532-7.396h-1.893l-0.104-7.736h-0.753l-0.016,7.736h-4.554l-1.692,7.67l6.232-0.201l-0.002,1.095  l-6.23,0.191l-2.932,15.9l9.133-0.693l-0.002,0.623l-9.13,0.75v10.117l9.108,0.713l-0.003,1.377l-8.607-0.797l-4.754,3.168  l1.109,4.916l2.695,0.791l0.951,1.901l19.812,3.964l25.201,2.852h11.252l10.462-11.41l24.83-12.893L70.259,78.832z M53.711,83.236  L5.246,76.605l3.816-2.531l6.143,0.587L15.2,77.062l1.505,0.139l-0.032-2.398l14.248,1.359l0.071,2.632l2.222,0.229l-0.129-2.653  l18.81,1.796l0.151,3.255l1.608,0.179l-0.211-3.285l15.602,1.49L53.711,83.236z"/>
<polygon points="29.24,13.598 29.223,12.982 29.225,12.982 "/>
<polygon points="55.911,42.927 63.709,43.402 69.943,53.387 "/>
</svg>