<svg xmlns="http://www.w3.org/2000/svg" xmlns:xlink="http://www.w3.org/1999/xlink" version="1.1" id="Layer_1" x="0px" y="0px" width="100.0px" height="100px" viewBox="0 0 200 200" enable-background="new 0 0 200 200" xml:space="preserve">
<path d="M124.874,39.053c9.107,0,16.479-7.399,16.479-16.506s-7.371-16.489-16.479-16.489s-16.509,7.38-16.509,16.486  C108.365,31.653,115.765,39.053,124.874,39.053z"/>
<path d="M162.663,73.26l-7.748-6.995l-20.871-20.864c-1.949-1.874-4.578-3.056-7.529-3.056l-31.347-0.063l-57.806-0.941  c-2.279-0.317-4.66,0.311-6.543,1.927c-3.476,2.985-3.881,8.212-0.884,11.703c1.682,1.959,4.069,2.959,6.477,2.882l39.198,0.169  l21.061,0.026L65.403,95.192l-0.097-0.035L48.345,115.09c-0.589,0.654-1.118,1.383-1.542,2.207  c-2.756,5.196-1.865,11.736,3.362,14.465c4.553,2.414,11.148,1.014,14.296-2.826l21.357-25.416l1.312-1.643l2.375,1.688l-0.83,0.947  l-58.89,71.346c-0.632,0.619-1.161,1.356-1.618,2.163c-2.905,5.127-1.108,11.632,4.023,14.539  c4.469,2.532,10.019,1.479,13.288-2.267l67.56-79.342l0.05,0.014l27.942-34.485l4.634,3.757l-19.057,23.849  c-1.182,1.547-1.841,3.505-1.739,5.6c0.229,4.74,4.259,8.373,8.977,8.145c2.071-0.1,3.908-0.896,5.326-2.184l22.784-28.368  C169.303,79.172,162.663,73.26,162.663,73.26z"/>
</svg>