<svg xmlns="http://www.w3.org/2000/svg" xmlns:xlink="http://www.w3.org/1999/xlink" version="1.1" id="Layer_1" x="0px" y="0px" width="100px" height="100px" viewBox="0 0 100 100" enable-background="new 0 0 100 100" xml:space="preserve">
<path d="M44.865,100c-0.652,0-1.087-2.61-1.087-5.003c0-2.394-1.958-2.828-1.958-3.915c0-1.088,1.741-1.088,1.741-2.393  s-0.871-8.483-0.871-11.964c0-3.479,1.523-5.221,1.523-8.265c0-3.045,0.217-10.876,0.217-12.834  c-2.828-1.305-3.263-2.826-3.263-5.002c-3.48,0-6.96,1.306-10.44-0.217c-3.48-1.522-3.915-3.697-3.915-3.697  c1.305-0.653,2.828-1.958,2.828-1.958c-1.523-1.305-2.175-2.61-2.175-2.61c2.175-1.523,5.873-4.35,9.788-4.133  c3.915,0.218,5.002,2.828,5.873,4.785c0.653,0.218,1.305,0,1.305,0c0-4.35-1.522-6.743-4.35-10.005c-5.22,0-10.658,0-12.616-0.217  c-0.435,0.652-2.392,1.087-4.35,0c-1.958-1.088-0.435-2.393,0-2.828c0.435-0.435,1.523-0.218,2.828,0  c1.305,0.217,4.785,0.217,6.96,0.217c2.176,0,5.22-1.958,7.613-1.305c0-0.435,0.652-0.652,1.522-0.652  c0.217-0.87,0.435-2.175-0.652-3.045c-0.87,0-1.088-0.435-1.522-0.87c-0.653,0-2.393-1.305-2.828-3.045  c-0.435-1.74-0.435-4.133,2.393-4.785c2.827-0.652,3.915,0.217,4.568,1.305c0.652-0.217,2.609,0,2.392,2.175  s-1.305,2.175-1.522,1.74c0.218,0.871,0.218,1.74,0,2.61c0.435,1.522,1.305,3.48,1.305,3.48c0.435-0.653,0.87-0.435,1.087-0.217  c0.435-1.523,1.305-2.828,1.305-3.915s0.435-6.961,0.435-8.048c-0.652-3.698-1.74-8.7-1.958-9.788  c-1.522-0.435-2.392-1.305-3.262-1.522c-0.87-0.218-1.74-0.218-1.74-0.652c0-0.436,1.74,0,2.175,0s0.652-0.653,0.217-1.306  c-0.435-0.652-0.87-1.087-1.522-1.087s-1.088-0.652-1.088-0.87c0-0.217,0.87-0.217,1.958,0c1.087,0.218,2.175,0.87,2.827,1.522  c0.653,0.652,2.176,2.828,2.393,3.263c0.217,0.435,3.045,8.483,3.045,10.223c0,1.74,0.218,6.525-0.218,9.135  c-0.435,2.61-1.087,4.568-1.087,5.655s1.74,1.74,1.957,3.698c0.218,1.958-0.217,1.522-0.217,2.827c0,1.306,0,5.438,0,5.438  c1.957-1.958,6.09-5.003,7.612-3.916s2.393,3.045,4.786,1.958c2.175,0.87,1.739,1.958,1.521,3.045  c-0.217,1.087,0.435,2.175,1.088,2.61c0.652,0.435-1.74,2.393-1.958,3.263c3.916,0,11.04-0.652,14.955-0.652  s8.482,1.305,8.266,2.175c-0.218,0.87-2.61,1.74-4.785,1.087s-1.958,1.306-3.045,1.087c-1.088-0.217-1.741-1.521-3.263-1.521  c-1.523,0-6.255,0.217-9.083,1.305c-2.827,1.088-5.872,1.957-8.265,0.87c-2.393-1.088-6.96,0.436-9.353,1.087  c-0.218,5.656-1.306,8.048-2.175,11.963c-0.871,3.915-1.523,5.656-1.523,8.048c0,2.393-1.087,11.311-1.087,13.703  s0.652,4.567,0.217,6.743S46.388,100,44.865,100z"/>
</svg>