<svg xmlns="http://www.w3.org/2000/svg" xmlns:xlink="http://www.w3.org/1999/xlink" version="1.1" id="Livello_1" x="0px" y="0px" width="100.0px" height="100px" viewBox="0 0 283.46 283.46" enable-background="new 0 0 283.46 283.46" xml:space="preserve">
<g>
	<g>
		<polygon fill="#000000" points="81.114,203.975 78.521,204.851 107.769,230.797 109.061,230.821   "/>
		<polygon fill="#000000" points="88.612,197.194 81.499,193.618 80.512,193.751 80.26,195.01 81.452,202.723   "/>
		<polygon fill="#000000" points="90.108,196.983 114.209,230.923 115.104,230.94 93.106,192.599   "/>
		<polygon fill="#000000" points="80.669,203.265 79.955,196.545 78.462,204.011   "/>
		<polygon fill="#000000" points="113.193,230.902 89.497,197.533 81.789,203.491 110.265,230.847   "/>
		<polygon fill="#000000" points="89.34,196.63 92.428,192.146 82.764,193.448 89.335,196.635   "/>
	</g>
	<polygon fill="#000000" points="193.157,93.24 179.702,78.901 170.133,86.12 147.657,232.213  "/>
	<polygon fill="#000000" points="169.041,82.816 177.768,75.625 167.936,45.955 145.949,62.556  "/>
	<polygon fill="#000000" points="181.973,76.553 193.971,89.338 192.917,67.763 171.245,44.846  "/>
	<g>
		<polygon fill="#000000" points="211.308,117.093 189.948,125.386 200.571,129.081   "/>
		<path fill="#000000" d="M201.291,132.092l-51.137,99.105l-0.387,1.062l8.688,0.517c7.024-10.895,54.579-83.517,60.321-92.283    L201.291,132.092z"/>
		<polygon fill="#000000" points="188.112,127.184 156.413,214.05 199.214,131.094 198.901,130.944 198.908,130.937   "/>
		<path fill="#000000" d="M220.848,141.533c-14.932,22.798-39.094,59.715-52.169,79.751l58.854-75.563l-0.007-0.045L220.848,141.533    z"/>
		<polygon fill="#000000" points="222.604,120.096 214.543,116.927 202.659,130.195 219.468,138.27   "/>
		<polygon fill="#000000" points="224.56,122.298 221.623,139.306 227.153,142.735   "/>
	</g>
	<polygon fill="#000000" points="143.016,64.851 128.768,75.53 129.3,94.761 149.816,104.75 141.412,231.954 144.58,232.147    167.506,85.311  "/>
	<g>
		<polygon fill="#000000" points="128.875,111.594 117.792,92.104 115.284,90.88 112.726,93.438 103.467,113.369   "/>
		<polygon fill="#000000" points="100.788,113.417 109.606,96.559 94.457,111.713   "/>
		<polygon fill="#000000" points="133.905,231.107 130.426,113.771 103.058,115.702 128.557,230.99   "/>
		<polygon fill="#000000" points="100.725,115.781 93.282,113.781 123.682,230.882 126.19,230.938   "/>
		<polygon fill="#000000" points="121.023,93.682 131.442,111.414 131.46,111.412 145.709,105.73   "/>
		<polygon fill="#000000" points="132.719,113.441 136.207,231.159 138.391,231.206 146.59,107.845   "/>
	</g>
	<g>
		<polygon fill="#000000" points="100.882,175.709 104.766,171.547 94.761,168.623 100.874,175.709   "/>
		<polygon fill="#000000" points="93.448,168.239 92.43,167.942 91.965,169.396 91.871,179.624 100.049,176.069   "/>
		<polygon fill="#000000" points="101.602,176.512 120.471,230.889 121.194,230.871 105.377,172.431   "/>
		<polygon fill="#000000" points="91.32,181.031 88.544,180.907 115.729,231.015 116.704,230.99   "/>
		<polygon fill="#000000" points="91.394,171.177 88.625,179.826 90.987,179.932   "/>
		<polygon fill="#000000" points="119.628,230.911 100.892,176.914 92.082,180.743 117.607,230.966   "/>
	</g>
</g>
</svg>