<svg xmlns="http://www.w3.org/2000/svg" xmlns:xlink="http://www.w3.org/1999/xlink" version="1.1" id="&#1057;&#1083;&#1086;&#1081;_1" x="0px" y="0px" width="100px" height="100px" viewBox="0 0 100 100" enable-background="new 0 0 100 100" xml:space="preserve">
<path fill="#000000" d="M95.625,28.936c-0.13,0.058-0.273,0.11-0.405,0.167C94.866,19.9,92.807,9.364,83.194,3.249  C76.778-0.834,63.825-2.86,54.432,8.295c-1.847,2.192-3.669,3.981-5.384,5.453c-3.016-0.082-11.64,0.78-14.28,12.953  c0,0,18.103,2.724,19.916-9.848c1.437-1.351,2.913-2.875,4.398-4.64c7.416-8.804,16.88-6.359,20.847-3.833  c7.912,5.033,9.175,14.259,9.271,22.899c-23.888,7.334-64.245,6.555-84.618-2.343c0,0-0.268,8.314,13.409,14.48  c13.675,6.169,26.011,7.599,26.011,7.599v1.974l-27.29-0.008h-0.115c-0.037-0.002-0.073-0.002-0.109-0.002  c-3.54,0-6.401,1.062-8.508,3.156c-2.393,2.378-3.606,5.89-3.606,10.435c0,11.007,7.582,13.993,11.622,14.035l24.232-0.002  c1.254-0.039,2.522-0.033,3.773,0.005v8.131c0,0-17.259,1.608-17.259,11.262h46.722c0-6.591-8.046-9.431-13.152-10.569  c1.539-1.737,2.348-3.994,2.348-6.593c0-1.571-0.64-3.021-1.849-4.191c-1.103-1.067-2.735-1.863-4.608-2.458V59.061h16.688  c1.438,0.118,10.652,0.635,16.836-4.939c3.623-3.266,5.458-7.858,5.458-13.653c0-1.103,0.022-2.281,0.046-3.516  c0.034-1.826,0.072-3.819,0.04-5.905C95.651,29.745,95.625,28.936,95.625,28.936z M56.576,82.997  c-0.02,0.766-0.171,1.325-0.373,1.742v-2.047C56.356,82.792,56.486,82.894,56.576,82.997z M44.002,74.517  c-1.795-0.045-3.203-0.016-3.87,0.007H16.028c-0.57-0.006-5.572-0.279-5.572-7.954c0-2.867,0.61-4.927,1.813-6.123  c1.412-1.404,3.508-1.386,4.292-1.386h27.442V74.517z M85.677,49.586C81.131,53.707,73.41,53,73.341,52.996l-17.138-0.005v-1.977  c0,0,12.338-1.43,26.013-7.599c2.872-1.295,5.124-2.686,6.899-4.071c-0.006,0.377-0.012,0.76-0.012,1.123  C89.104,44.512,87.983,47.495,85.677,49.586z"/>
</svg>