<svg xmlns="http://www.w3.org/2000/svg" xmlns:xlink="http://www.w3.org/1999/xlink" version="1.1" id="Layer_1" x="0px" y="0px" width="100px" height="100px" viewBox="0 0 100 100" enable-background="new 0 0 100 100" xml:space="preserve">
<path d="M82.931,58.096c-2.402-5.907-8.544-4.675-12.941-3.094c5.921-7.319,12.298-12.188,19.352-15.077  c10.708-4.384,7.918-15.926,2.729-21.569c-0.91-2.73-3.103-6.757-10.564-4.664c-7.463,2.093-17.283,9.306-27.567,18.862  c-5.411,5.028-11.642,11.777-17.016,19.605c-5.73,2.457-14.424,5.956-16.544,5.54c0.942-3.064,3.482-5.012,6.993-4.623  c2.747,0.305,7.834,0.355,8.267-3.245s-0.145-8.055-5.924-7.43c-5.779,0.624-18.503,10.172-27.304,7.765  c1.469,2.052,3.23,5.4,3.23,5.4c4.103,0.447,8.447-0.52,9.839-1.388c-1.565,1.689-1.097,3.301-0.146,4.731  c0.951,1.429,3.097,3.3,7.188,3.759c2.632,0.295,9.056-2.368,9.056-2.368l0.496-0.303c-2.694,4.908-4.92,10.113-6.336,15.5  c-1.456,5.369-1.364,7.922,3.116,10.712S49,91.333,60.036,70.427c1.479-2.803,2.985-5.39,4.517-7.801  c7.441-3.302,16.632-6.31,18.437-0.85c2.182,6.597,9.094,7.557,12.62,1.557c0,0-1.051-4.285-1.677-7.09  C92.893,60.094,86.083,65.848,82.931,58.096z M34.561,48.242c0.393,1.777-2.589,2.623-5.166,2.87  c-2.577,0.246-4.631-0.217-7.613,0.629C28.083,49.303,34.167,46.465,34.561,48.242z M78.753,16.756  c3.913-1.638,9.039-3.629,11.043,1.601c2.003,5.23-5.629,16.477-18.783,26.884c-9.102-9.374-10.249-10.138-14.8-11.321  C64.344,26.088,74.84,18.394,78.753,16.756z M42.865,49.275c-0.273-2.184,3.635-6.604,6.719-9.525  c5.278,0.819,10.083,4.583,14.092,10.459C50.389,57.673,43.138,51.459,42.865,49.275z"/>
</svg>