<svg xmlns="http://www.w3.org/2000/svg" xmlns:xlink="http://www.w3.org/1999/xlink" version="1.1" x="0px" y="0px" width="100px" height="100px" viewBox="0 0 100 100" enable-background="new 0 0 100 100" xml:space="preserve">
<g id="Layer_2">
	<path fill="#000000" d="M44.23,91.357c-10.756,0-11.23-5.773-11.23-5.773v-3.97c0,0,0-46.2,0-46.536   c0-0.335,0.061-1.447,1.088-2.728c1.028-1.28,3.393-1.973,4.211-2.246c0.818-0.272,0.7-1.117,0.7-1.117s0-2.555,0-2.87L39.328,26   H44 M44,26h4.902L49,26.117c0,0.315,0,2.87,0,2.87s-0.003,0.845,0.815,1.117c0.818,0.273,3.126,0.966,4.153,2.246   C54.997,33.631,55,34.743,55,35.078c0,0.336,0,46.536,0,46.536v3.97c0,0-0.475,5.773-11.23,5.773"/>
	<path fill="#000000" d="M51,65c0,3.866-3.134,7-7,7l0,0c-3.866,0-7-3.134-7-7V51c0-3.866,3.134-7,7-7l0,0c3.866,0,7,3.134,7,7V65z"/>
</g>
<g id="Layer_3">
	<path fill="#000000" d="M43.722,26H40v-2.539l0,0V25h-2v-1.573l-6.302,0.202l-0.145-3.757L38,19.668V19h0.981h0.171H40v-0.979   L39.177,18h-0.312c0,0-0.293-1.246-0.232-1.609s0.575-0.65,0.817-0.8c0.242-0.152,4.445-2.865,6.109-3.47s4.779-1.371,5.112-1.402   c0.332-0.03,2.42-1.138,3.024-1.472c0,0,0.544-0.389,2.419,0.247c0.787,0.273,0.727,0.758,0.455,1.152   c-0.273,0.393-0.183,0.273-0.817,0.576s-0.938,0.423-1.966,0.484c-0.756,0.332-6.26,2.48-6.26,2.48l-0.726,2.056l5.686,1.664   c0,0,3.78,0.786,6.412,2.934c0,0,0.394,0.786-0.544,0.604c0,0-3.209-1.422-4.751-1.391C52.059,20.083,49,19.781,49,19.781v1.246   l-0.935,1.241L47.949,26H43.722z"/>
</g>
<g id="Layer_4">
	<circle fill="#000000" cx="43.953" cy="21.644" r="3.045"/>
	<path fill="#000000" d="M42.216,21.332l-0.653,0.278c0,0,0.997,2.956,4.295,1.781l-0.164-0.768   C45.694,22.623,43.261,23.569,42.216,21.332z"/>
	<path fill="#000000" d="M45.296,20.514c-0.878,0.211-1.283,1.859-1.624,1.688c-0.34-0.172,0.745-1.477,0.391-2.309   c-0.148-0.349,0.583-0.469,0.923-0.298C45.328,19.767,45.666,20.426,45.296,20.514z"/>
</g>
</svg>