<svg xmlns="http://www.w3.org/2000/svg" xmlns:xlink="http://www.w3.org/1999/xlink" version="1.1" id="Layer_1" x="0px" y="0px" width="100px" height="100px" viewBox="0 0 100 100" enable-background="new 0 0 100 100" xml:space="preserve">
<path d="M20.025,0.129c-1.533,36.554-3.271,58.349-3.271,61.9c0,3.547,1.466,6.426,3.271,6.426c1.809,0,3.272-2.879,3.272-6.426  C23.298,58.479,21.921,34.968,20.025,0.129z M20.178,65.882c-0.868,0-1.568-1.754-1.568-3.912c0-2.162,0.701-3.914,1.568-3.914  c0.863,0,1.563,1.752,1.563,3.914C21.741,64.128,21.041,65.882,20.178,65.882z"/>
<g>
	<path fill="#000000" d="M28.409,83.23c-0.605,0-2.667-0.168-4.76-2.105c-3.259-3.02-4.914-8.717-4.914-16.933   c0-0.726,0.586-1.312,1.312-1.312s1.312,0.587,1.312,1.312c0,9.182,2.17,13.187,3.99,14.93c1.598,1.527,3.082,1.484,3.15,1.481   c2.43-0.004,4.385-0.84,6.059-2.559c6.132-6.294,5.795-21.761,5.79-21.916c-0.019-0.725,0.554-1.328,1.277-1.348   c0.739-0.017,1.327,0.554,1.347,1.277c0.021,0.678,0.372,16.724-6.531,23.815c-2.162,2.224-4.809,3.351-7.862,3.351   C28.558,83.228,28.5,83.23,28.409,83.23z"/>
</g>
<g>
	<polygon points="78.706,40.39 40.018,40.39 40.018,50.48 78.706,41.387  "/>
	<polygon points="40.018,88.141 48.933,88.141 78.706,81.142 78.706,74.652 40.018,83.746  "/>
	<polygon points="40.018,63.366 40.018,69.857 78.706,60.764 78.706,54.273  "/>
	<polygon points="78.706,45.085 40.018,54.179 40.018,60.671 78.706,51.577  "/>
	<polygon points="40.018,80.048 78.706,70.954 78.706,64.462 40.018,73.556  "/>
	<polygon points="78.706,88.141 78.706,83.839 60.41,88.141  "/>
	<rect x="34.752" y="29.222" fill="#000000" width="49.222" height="8.95"/>
	<rect x="34.752" y="89.947" fill="#000000" width="49.222" height="8.948"/>
</g>
</svg>