<svg xmlns="http://www.w3.org/2000/svg" xmlns:xlink="http://www.w3.org/1999/xlink" version="1.1" id="Livello_1" x="0px" y="0px" width="100px" height="100px" viewBox="0 0 100 100" enable-background="new 0 0 100 100" xml:space="preserve">
<g>
	<path d="M72.03,69.97c0,0-1.924-2.255-3.714-2.255c-1.791,0-3.979,2.255-8.357,2.255c-4.377,0-6.831-3.647-9.418-3.647h-0.008   c-2.586,0-5.041,3.647-9.418,3.647s-6.566-2.255-8.357-2.255c-1.791,0-3.714,2.255-3.714,2.255s-2.586,2.984-6.897,2.984   c-4.312,0-7.163-0.994-7.163-0.994l7.984,13.629c0,0,3.527,5.937,27.939,5.937s27.152-5.937,27.152-5.937l8.033-13.629   c0,0-2.852,0.994-7.163,0.994C74.617,72.954,72.03,69.97,72.03,69.97z M49.845,89.867c-13.187,0-23.877-1.915-23.877-4.278   c0-2.362,10.69-4.277,23.877-4.277s23.877,1.915,23.877,4.277C73.722,87.952,63.031,89.867,49.845,89.867z"/>
	<path d="M46.3,23.87h7.707c-2-2.34-2.84-4.5-3.049-6.404c3.916,0.259,6.394,3.094,6.394,3.094v-7.706c0,0-2.495,2.856-6.439,3.094   c0.255-3.921,3.095-6.404,3.095-6.404H46.3c0,0,2.819,2.46,3.092,6.354c-1.894-0.217-4.042-1.057-6.367-3.044v7.706   c2.305-1.971,4.434-2.812,6.318-3.039C49.121,19.414,48.282,21.553,46.3,23.87z"/>
	<path d="M22.513,70.939c0.236,0.191,0.522,0.286,0.806,0.286c0.367,0,0.734-0.157,0.984-0.464c0.446-0.547,0.367-1.348-0.178-1.795   C23.974,68.843,9.03,56.506,9.03,47.842c0-8.361,12.898-9.684,13.063-9.7c5.53-0.684,10.411-2.089,14.523-3.697   c-4.697,2.982-5.008,5.644-5.008,7.561c0,2.298,0.729,11.499,14.811,23.852c0,0,2.052-1.5,4.117-1.5s3.963,1.559,3.963,1.559   c13.41-13.257,14.272-21.612,14.272-23.91c0-1.901-0.312-4.533-4.892-7.484c4.074,1.577,8.908,2.949,14.363,3.625   c0.133,0.012,13.028,1.312,13.028,9.696c0,8.664-14.943,21-15.097,21.125c-0.543,0.447-0.622,1.248-0.179,1.795   c0.253,0.307,0.618,0.464,0.986,0.464c0.286,0,0.568-0.095,0.809-0.286c0.651-0.534,16.026-13.231,16.026-23.097   c0-10.676-14.708-12.175-15.297-12.229c-16.577-2.048-27.438-11.111-27.545-11.203c-0.107-0.091-0.25-0.071-0.375-0.12   c-0.155-0.064-0.282-0.146-0.448-0.143c-0.168-0.002-0.296,0.079-0.454,0.145c-0.125,0.047-0.266,0.029-0.373,0.118   c-0.108,0.091-10.969,9.155-27.506,11.198c-0.626,0.058-15.335,1.557-15.335,12.233C6.485,57.708,21.858,70.405,22.513,70.939z"/>
</g>
</svg>