<?xml version="1.0" encoding="utf-8"?>
<!-- Generator: Adobe Illustrator 15.1.0, SVG Export Plug-In . SVG Version: 6.00 Build 0)  -->
<!DOCTYPE svg PUBLIC "-//W3C//DTD SVG 1.1//EN" "http://www.w3.org/Graphics/SVG/1.1/DTD/svg11.dtd">
<svg version="1.1" id="Layer_1" xmlns="http://www.w3.org/2000/svg" xmlns:xlink="http://www.w3.org/1999/xlink" x="0px" y="0px"
	 width="71px" height="100px" viewBox="0 0 71 100" enable-background="new 0 0 71 100" xml:space="preserve">
<path d="M68,94H3c-1.656,0-3,1.344-3,3s1.344,3,3,3h65c1.656,0,3-1.344,3-3S69.656,94,68,94z"/>
<path d="M68,17H55.761l2.869-4.064C58.915,12.974,59.204,13,59.5,13c3.59,0,6.5-2.91,6.5-6.5S63.09,0,59.5,0S53,2.91,53,6.5
	c0,1.074,0.265,2.084,0.726,2.977L48.416,17H3c-1.656,0-3,1.344-3,3s1.344,3,3,3h65c1.656,0,3-1.344,3-3S69.656,17,68,17z"/>
<path d="M54.838,58.5c0-9,8.721-21.371,12-28.5c0.377-0.819,1-3-2-3c-2.485,0-15.839,0-29.258,0c-0.054,0-0.106,0-0.16,0
	c-13.419,0-26.772,0-29.258,0c-3,0-2.377,2.181-2,3c3.279,7.129,12,19.5,12,28.5s-8.721,21.371-12,28.5c-0.377,0.819-1,3,2,3
	c2.485,0,15.839,0,29.258,0c0.054,0,0.106,0,0.16,0c13.419,0,26.772,0,29.258,0c3,0,2.377-2.181,2-3
	C63.559,79.871,54.838,67.5,54.838,58.5z"/>
</svg>
