<svg xmlns="http://www.w3.org/2000/svg" xmlns:xlink="http://www.w3.org/1999/xlink" version="1.1" id="Layer_1" x="0px" y="0px" width="100px" height="100px" viewBox="0 0 100 100" enable-background="new 0 0 100 100" xml:space="preserve">
<g>
	<path d="M92.018,65.424c-0.328,0.051-0.478-0.078-0.557-0.275c0.068-0.655-0.084-1.094-0.281-1.479   c-0.625-0.101-0.812,0.235-1.385,0.188c-0.165-0.527-0.136-1.597-0.008-2.125c-0.405-0.215-0.523-0.691-0.834-1.016   c-0.826-0.857-2.016-1.388-3.24-1.934c-1.314-0.588-2.742-1.74-4.346-1.471c-0.611-0.476-1.489-1.045-2.131-1.195   c-0.34-0.811-2.098-1.639-2.592-0.639c-0.517,1.687,1.193,2.297,1.305,3.323c0.129,1.2-1.506,1.724-1.844,2.962   c-0.217,0.002-0.434,0-0.646,0.002c-0.274,0.705-1.229,0.877-1.292,1.668c-0.04,0.522,0.43,0.688,0.376,1.387   c1.115,0.203,1.058,1.588,1.3,2.676c0.163,0.052,0.385,0.047,0.461,0.186c-0.094,1.02,0.575,1.389,0.655,2.31   c0.104,1.255-0.722,2.597-0.547,3.698c0.312,1.955,3.134,1.455,3.889,3.136c0.462-0.222,0.522-0.834,1.108-0.931   c-0.016-0.881,0.869-0.906,0.645-1.756c0.357-0.259,0.579-0.652,0.92-0.929c0.838-0.006,0.952-0.517,1.479-0.835   c0.236-0.145,0.599-0.131,0.829-0.279c0.483-0.313,0.635-0.832,1.108-1.019c0.58-0.231,1.077,0.091,1.569,0.088   c0.908-0.009,1.335-0.524,2.031-0.835c0.598-0.271,1.252-0.357,1.569-0.559c0.299-0.19,0.537-0.601,0.83-0.836   c0.678-0.539,1.827-0.986,1.754-1.944C93.296,66.611,92.277,66.396,92.018,65.424z"/>
	<path d="M74.96,46.604c-0.474-0.308-0.968-0.641-1.573-0.829c-0.131-0.041-0.402,0.098-0.554,0.001   c-0.129-0.081-0.136-0.467-0.278-0.553c-0.146-0.094-0.432,0.057-0.555,0.001c-0.562-0.248-0.721-0.938-1.205-1.199   c-1.871-0.458-2.372,0.882-3.975,0.565c-0.568-0.919-1.282-2.617-2.778-1.75c-0.047,0.476-0.3,0.745-0.458,1.111   c0.271,1.393,1.376,1.95,2.596,2.396c0.006-0.422,0.618-0.244,1.016-0.279c0.477,0.76,0.559,1.914,0.562,3.14   c1.184,1.037,2.607-0.271,3.881-0.472c0.758-0.118,1.536,0.01,2.127-0.278C74.202,48.238,75.209,47.352,74.96,46.604z"/>
	<path d="M65.632,49.586c-0.655,0.006-1.479,0.611-2.03,1.021c0.11,0.011,0.219,0.028,0.185,0.185   c0.612-0.276,1.487-0.031,1.938-0.282C65.484,50.363,65.93,49.814,65.632,49.586z"/>
	<path d="M57.668,44.613c0.332,0.481,0.863,0.418,1.111,1.014c0.185,0.436-0.149,1.104,0.373,1.387   c1.227,0.051,2.046-0.303,2.311-1.208C60.994,44.747,58.841,43.494,57.668,44.613z"/>
	<path d="M58.857,39.617c-0.015,0.141,0.035,0.342-0.092,0.372c-1.557-0.043-2.934-0.264-4.252-0.544   c0.152,1.042-0.867,0.919-0.921,1.755c2.625-0.148,4.831-0.155,6.937,0.725c1.045-0.283,1.902-0.747,2.396-1.579   C61.902,39.741,59.529,40.994,58.857,39.617z"/>
	<path d="M46.648,36.599c-0.336-0.063-0.534-0.267-0.649-0.556c0.077,0.354-0.436,0.122-0.644,0.188   c-0.291-0.495-1.534-1.255-0.746-1.937c-0.469-0.645-1.319-0.901-1.393-1.941c-0.428-0.331-0.541-1.096-1.017-0.92   c-0.924,0.339-1.277,1.98-2.953,2.131c-0.388,0.036-0.665-0.185-1.201,0.097c0.45,0.102,0.378,0.729,0.37,1.292   c0.385,0.291,0.877,0.477,0.836,1.199c0.817,0.137,0.821,1.096,1.112,1.755c1.103,0.003,2.071-0.796,2.958-0.194   c0.099-0.175,0.175-0.376,0.554-0.279c0.367,0.497,1.042,0.683,1.486,1.108c0.2-0.31,1.288-0.655,1.566-0.281   c0.263-0.076,0.472-0.213,0.556-0.465C46.912,37.691,46.592,37.333,46.648,36.599z"/>
	<path d="M19.065,22.98c-0.504,0.269-1.429-0.336-1.568,0.374c-0.552,0.031-0.714-0.332-1.295-0.272   c-0.799,0.507-1.195,0.902-2.31,1.114c-0.013,0.937-0.999,1.026-1.011,1.758c-0.021,1.087,1.25,0.801,1.944,1.199   c0.471,0.268,0.373,0.704,0.834,0.92c0.951-0.103,1.888,0.497,2.682,0.364c0.448-0.073,1.553-1.108,1.659-1.483   c0.087-0.301-0.129-0.625-0.095-0.924c0.074-0.632,0.672-0.92,0.736-1.571C20.485,23.6,19.806,23.261,19.065,22.98z"/>
	<path d="M7.52,26.8c-0.255,1.408-2.296,1.037-2.118,2.872c0.263-0.014,0.214,0.279,0.463,0.277C6,28.854,6.832,28.451,7.8,28.186   c-0.354-0.457,0.164-0.95,0.276-1.478C7.791,26.641,7.803,26.868,7.52,26.8z"/>
</g>
</svg>