<svg xmlns="http://www.w3.org/2000/svg" xmlns:xlink="http://www.w3.org/1999/xlink" version="1.1" id="Ebene_1" x="0px" y="0px" width="100px" height="100px" viewBox="0 0 100 100" enable-background="new 0 0 100 100" xml:space="preserve">
<path d="M50.171,6.288c11.637,8.013,30.191,11.898,38.101,13.26c0.301,2.772,0.455,5.527,0.455,8.223  c0,27.634-14.728,52.93-38.612,66.642C26.229,80.697,11.5,55.402,11.5,27.771c0-2.669,0.154-5.403,0.455-8.17  C20.031,18.318,38.946,14.568,50.171,6.288 M50.039,0C38.216,11.699,7.588,15.281,7.588,15.281c-0.628,4.078-0.98,8.24-0.98,12.49  c0,31.327,17.64,58.512,43.506,72.229c25.87-13.718,43.504-40.902,43.504-72.229c0-4.25-0.346-8.412-0.973-12.49  C92.646,15.281,62.822,11.34,50.039,0L50.039,0z"/>
<path d="M20.738,26.015c-0.435,2.824-0.677,5.702-0.677,8.638c0,21.633,12.19,40.407,30.053,49.882  c17.864-9.476,30.052-28.249,30.052-49.882c0-2.936-0.247-5.814-0.674-8.638c0,0-20.602-2.719-29.432-10.551  C41.892,23.542,20.738,26.015,20.738,26.015z"/>
</svg>