<svg xmlns="http://www.w3.org/2000/svg" xmlns:xlink="http://www.w3.org/1999/xlink" version="1.1" id="Ebene_1" x="0px" y="0px" width="100px" height="100px" viewBox="0 0 100 100" enable-background="new 0 0 100 100" xml:space="preserve">
<g>
	<rect x="6.6" y="85.371" width="1.013" height="3.037"/>
	<rect x="6.6" y="80.825" width="1.013" height="3.037"/>
	<rect x="6.6" y="76.278" width="1.013" height="3.037"/>
	<rect x="6.6" y="71.732" width="1.013" height="3.038"/>
	<rect x="6.6" y="67.186" width="1.013" height="3.038"/>
	<rect x="6.6" y="62.64" width="1.013" height="3.037"/>
	<rect x="6.6" y="58.093" width="1.013" height="3.038"/>
	<rect x="6.6" y="53.546" width="1.013" height="3.039"/>
	<path d="M91.118,49.087h-1.367v1.012h1.367c0.278,0,0.506,0.228,0.506,0.506v1.448h1.013v-1.448   C92.637,49.768,91.956,49.087,91.118,49.087z"/>
	<path d="M6.607,50.605v1.448h1.013v-1.448c0-0.279,0.227-0.506,0.506-0.506h1.368v-1.012H8.126   C7.289,49.087,6.607,49.768,6.607,50.605z"/>
	<rect x="85.24" y="49.087" width="3.036" height="1.012"/>
	<rect x="80.626" y="49.087" width="3.037" height="1.012"/>
	<rect x="75.663" y="49.087" width="3.036" height="1.012"/>
	<rect x="70.698" y="49.087" width="3.037" height="1.012"/>
	<rect x="65.734" y="49.087" width="3.038" height="1.012"/>
	<rect x="60.771" y="49.087" width="3.037" height="1.012"/>
	<rect x="55.808" y="49.087" width="3.036" height="1.012"/>
	<rect x="50.844" y="49.087" width="3.036" height="1.012"/>
	<rect x="45.88" y="49.087" width="3.037" height="1.012"/>
	<rect x="40.916" y="49.087" width="3.038" height="1.012"/>
	<rect x="35.953" y="49.087" width="3.037" height="1.012"/>
	<rect x="30.988" y="49.087" width="3.038" height="1.012"/>
	<rect x="26.025" y="49.087" width="3.037" height="1.012"/>
	<rect x="21.061" y="49.087" width="3.038" height="1.012"/>
	<rect x="16.097" y="49.087" width="3.037" height="1.012"/>
	<rect x="11.133" y="49.087" width="3.038" height="1.012"/>
	<path d="M7.621,91.313v-1.447H6.607v1.447c0,0.837,0.682,1.52,1.519,1.52h1.368V91.82H8.126C7.848,91.82,7.621,91.593,7.621,91.313   z"/>
	<rect x="91.624" y="53.511" width="1.013" height="3.037"/>
	<rect x="91.624" y="58.057" width="1.013" height="3.036"/>
	<rect x="91.624" y="62.604" width="1.013" height="3.037"/>
	<rect x="91.624" y="67.149" width="1.013" height="3.037"/>
	<rect x="91.624" y="71.696" width="1.013" height="3.037"/>
	<rect x="91.624" y="76.242" width="1.013" height="3.037"/>
	<rect x="91.624" y="80.789" width="1.013" height="3.037"/>
	<rect x="91.624" y="85.336" width="1.013" height="3.036"/>
	<path d="M91.616,91.313c0,0.279-0.228,0.507-0.506,0.507h-1.367v1.013h1.367c0.838,0,1.519-0.683,1.519-1.52v-1.447h-1.013V91.313z   "/>
	<rect x="10.96" y="91.82" width="3.037" height="1.013"/>
	<rect x="15.925" y="91.82" width="3.037" height="1.013"/>
	<rect x="20.888" y="91.82" width="3.037" height="1.013"/>
	<rect x="25.852" y="91.82" width="3.037" height="1.013"/>
	<rect x="30.815" y="91.82" width="3.037" height="1.013"/>
	<rect x="35.779" y="91.82" width="3.037" height="1.013"/>
	<rect x="40.744" y="91.82" width="3.037" height="1.013"/>
	<rect x="45.707" y="91.82" width="3.037" height="1.013"/>
	<rect x="50.671" y="91.82" width="3.037" height="1.013"/>
	<rect x="55.635" y="91.82" width="3.036" height="1.013"/>
	<rect x="60.599" y="91.82" width="3.037" height="1.013"/>
	<rect x="65.561" y="91.82" width="3.038" height="1.013"/>
	<rect x="70.525" y="91.82" width="3.037" height="1.013"/>
	<rect x="75.489" y="91.82" width="3.038" height="1.013"/>
	<rect x="80.453" y="91.82" width="3.036" height="1.013"/>
	<rect x="85.066" y="91.82" width="3.037" height="1.013"/>
</g>
<g>
	<path d="M94.83,41.912h-2.654l0.001-0.006h-3.083l-0.001,0.006H68.754c0.001-0.002,0.002-0.004,0.002-0.006H51.84   c0.007,0.001,0.012,0.004,0.019,0.006h-4.829c-0.002-0.002-0.003-0.004-0.005-0.006H34.421c0.001,0.002,0.001,0.004,0.002,0.006   H10.724l0.001-0.006H7.639l-0.001,0.006H5.062C2.278,41.912,0,44.189,0,46.974v47.964C0,97.722,2.278,100,5.062,100H94.83   c2.782,0,5.061-2.278,5.061-5.063V46.974C99.891,44.189,97.612,41.912,94.83,41.912z M96.854,94.938   c0,1.098-0.928,2.025-2.023,2.025H5.062c-1.097,0-2.025-0.928-2.025-2.025V46.974c0-1.098,0.928-2.025,2.025-2.025H94.83   c1.096,0,2.023,0.927,2.023,2.025V94.938z"/>
</g>
<path d="M10.99,40.406l6.45-36.551l76.002,13.401l-4.083,23.15h3.083l3.989-22.622c0.292-1.645-0.816-3.229-2.462-3.519  L17.958,0.863c-0.176-0.031-0.352-0.046-0.525-0.046c-1.444,0-2.734,1.041-2.993,2.51l-6.535,37.08H10.99z"/>
<path d="M70.08,37.614c1.798-10.212-5.019-19.947-15.232-21.745C44.63,14.063,34.896,20.88,33.095,31.089  c-0.571,3.238-0.256,6.417,0.744,9.317h12.139c-0.757-1.336-1.12-2.951-1.044-4.828l-1.753-0.309l0.3-1.697l1.594,0.281l0.047-0.27  c0.063-0.356,0.145-0.702,0.236-1.073l-1.639-0.289l0.299-1.697l1.871,0.33c0.681-1.837,1.764-3.313,3.138-4.275  c1.744-1.297,3.8-1.766,6.03-1.375c1.84,0.324,3.081,1.133,3.657,1.586l0.098,0.077l-1.026,2.028l-0.147-0.123  c-0.744-0.625-1.836-1.112-2.923-1.303c-1.442-0.255-2.762,0.029-3.87,0.828c-0.875,0.636-1.62,1.688-2.161,3.049l7.768,1.37  l-0.299,1.697l-8.071-1.424c-0.093,0.312-0.154,0.656-0.218,1.019l-0.057,0.326l8.108,1.43l-0.299,1.698l-7.89-1.392  c-0.033,1.496,0.261,2.73,0.873,3.67c0.156,0.243,0.34,0.458,0.534,0.665H69.34C69.652,39.508,69.909,38.581,70.08,37.614z"/>
</svg>