<svg xmlns="http://www.w3.org/2000/svg" xmlns:xlink="http://www.w3.org/1999/xlink" version="1.1" id="Calque_1" x="0px" y="0px" width="100px" height="100px" viewBox="0 0 100 100" enable-background="new 0 0 100 100" xml:space="preserve">
<path fill="#000000" d="M97.287,10.708c-14.724,2.147-18.745,4.701-19.841,5.895l-0.062-0.786l-0.252,0.044  c-7.999,1.412-25.375,11.634-25.549,11.737l-0.07,0.042l-1.76,4.625l-0.137-3.017l-0.23,0.008  c-3.379,0.119-15.033,11.769-15.528,12.265l-0.076,0.076l0.775,9.672c-0.747,0.023-1.318-0.212-1.75-0.736  c-1.543-1.871-0.65-6.6-0.641-6.647l0.102-0.525l-0.453,0.283c-10.469,6.523-8.032,16.358-7.412,18.332  c-0.622-0.456-1.462-3.122-1.945-5.609l-0.091-0.474l-0.314,0.366c-7.199,8.381-7.876,18.47-7.912,21.362l-0.009,0.732l0.431-0.593  c5.843-8.039,25.635-34.526,34.994-37.847l0.131-0.05C39.524,46.759,20.737,70.19,14.741,78.431  c-3.3,5.081-6.084,10.094-8.273,14.898L5.77,94.86l1.088-1.284c0.041-0.048,4.113-4.833,6.367-5.577l0.104-0.035l0.04-0.102  c0.016-0.039,1.563-3.974,4.661-9.584c5.272-1.321,18.734-15.021,19.309-15.607l0.236-0.241l-0.309-0.135  c-1.935-0.851-2.464-1.551-2.605-1.911c1.558,0.524,3.023,0.791,4.361,0.791c4.276,0,5.881-2.648,5.936-2.743l8.683-12.078  l-0.83,0.404c-1.104,0.537-2.256,0.81-3.427,0.81c-0.615,0-1.111-0.078-1.435-0.149c2.076-1.565,6.057-2.151,6.099-2.158  l0.078-0.011l15.767-16.03l-1.168,0.544c-2.437,1.135-5.198,1.932-6.193,2.203c0.678-0.772,4.32-2.608,8.64-4.317l0.093-0.067  c9.164-10.894,25.961-16.368,26.13-16.422L97.287,10.708z"/>
</svg>