<svg xmlns="http://www.w3.org/2000/svg" xmlns:xlink="http://www.w3.org/1999/xlink" version="1.1" id="Layer_1" x="0px" y="0px" width="93.689px" height="100px" viewBox="0 0 93.689 100" enable-background="new 0 0 93.689 100" xml:space="preserve">
<path d="M6.189,81.031H0v12.185C0,96.953,3.357,100,7.481,100h51.645c4.12,0,7.483-3.047,7.483-6.782V81.031h-6.192v10.892  c0,1.367-1.229,2.479-2.739,2.479H8.921c-1.514,0-2.731-1.112-2.731-2.479V81.031z"/>
<polygon points="57.13,91.619 57.13,80.663 9.535,64.761 9.535,75.729 "/>
<path d="M26.881,67.624c-0.838-0.903-6.335-8.076-0.739-13.396c4.816-3.92,6.724-7.939,5.152-9.744c0,0,11.089,5.488,3.47,16.328  c-1.2,1.844-4.186,4.02-2.623,8.504L26.881,67.624z"/>
<path d="M34.524,69.252c-0.273-1.032-1.359-3.4,2.289-7.415c2.547-2.626,2.999-6.742,2.793-8.229c0,0,6.447,4.54,0.005,13.866  L34.524,69.252z"/>
<polygon points="37.378,71.287 57.13,64.691 57.13,75.65 53.781,76.753 "/>
<polygon points="29.29,85.143 9.535,91.725 9.535,80.765 12.897,79.671 "/>
<path d="M52.842,37.392c-0.784-0.33-1.146-1.233-0.808-2.021c0.339-0.791,1.251-1.158,2.033-0.828  c0.784,0.333,1.142,1.236,0.802,2.024C54.532,37.353,53.624,37.727,52.842,37.392z"/>
<path d="M35.532,37.197c0.338-0.785,1.249-1.155,2.031-0.824c0.783,0.328,1.143,1.235,0.803,2.026  c-0.337,0.784-1.249,1.154-2.028,0.821C35.552,38.892,35.192,37.988,35.532,37.197z"/>
<path d="M37.096,45.684c-0.782-0.332-1.143-1.241-0.803-2.024c0.337-0.787,1.248-1.16,2.031-0.828  c0.785,0.327,1.144,1.236,0.806,2.022C38.788,45.642,37.881,46.011,37.096,45.684z"/>
<path d="M33.491,38.83c0.782,0.329,1.144,1.236,0.805,2.023c-0.339,0.787-1.247,1.156-2.033,0.829  c-0.781-0.337-1.144-1.236-0.806-2.024C31.799,38.869,32.707,38.496,33.491,38.83z"/>
<path d="M47.078,43.552c-0.788-0.33-1.147-1.233-0.806-2.023c0.34-0.789,1.25-1.158,2.035-0.826  c0.787,0.329,1.145,1.234,0.804,2.022C48.771,43.511,47.86,43.886,47.078,43.552z"/>
<path d="M49.962,40.471c-0.787-0.33-1.146-1.236-0.807-2.023c0.339-0.787,1.248-1.155,2.035-0.825  c0.784,0.33,1.14,1.236,0.802,2.022C51.653,40.432,50.747,40.803,49.962,40.471z"/>
<path d="M35.861,34.525c-0.337,0.785-1.244,1.154-2.029,0.827c-0.784-0.332-1.143-1.238-0.803-2.028  c0.336-0.784,1.246-1.154,2.031-0.824C35.841,32.831,36.202,33.734,35.861,34.525z"/>
<path d="M44.196,46.631c-0.785-0.331-1.143-1.239-0.806-2.025c0.339-0.785,1.252-1.157,2.034-0.823  c0.782,0.332,1.14,1.233,0.803,2.019C45.889,46.588,44.98,46.963,44.196,46.631z"/>
<path d="M41.103,49.843c-0.785-0.332-1.143-1.239-0.806-2.025c0.339-0.788,1.252-1.159,2.033-0.825  c0.783,0.332,1.141,1.234,0.804,2.021C42.796,49.801,41.886,50.175,41.103,49.843z"/>
<path d="M32.185,36.42c-0.337,0.788-1.249,1.157-2.032,0.829c-0.781-0.334-1.142-1.237-0.804-2.025  c0.339-0.79,1.249-1.158,2.03-0.827C32.164,34.727,32.523,35.633,32.185,36.42z"/>
<path d="M51.311,31.751c0.784,0.33,1.145,1.237,0.807,2.025c-0.338,0.787-1.247,1.158-2.032,0.826  c-0.783-0.331-1.146-1.235-0.804-2.025C49.62,31.793,50.529,31.421,51.311,31.751z"/>
<path d="M36.672,31.333c0.339-0.787,1.248-1.159,2.031-0.827c0.785,0.331,1.144,1.237,0.803,2.025  c-0.337,0.786-1.247,1.158-2.031,0.828C36.689,33.028,36.333,32.123,36.672,31.333z"/>
<path d="M40.063,42.76c-0.785-0.328-1.144-1.236-0.806-2.022c0.34-0.791,1.248-1.157,2.032-0.829  c0.784,0.33,1.144,1.236,0.807,2.022C41.754,42.72,40.844,43.089,40.063,42.76z"/>
<path d="M48.038,34.461c0.787,0.331,1.147,1.24,0.809,2.024c-0.339,0.79-1.253,1.157-2.036,0.826  c-0.783-0.329-1.142-1.235-0.804-2.022C46.345,34.502,47.253,34.132,48.038,34.461z"/>
<path d="M23.917,40.538c-0.341,0.788-1.25,1.157-2.034,0.827c-0.784-0.328-1.146-1.234-0.807-2.024  c0.341-0.788,1.25-1.159,2.035-0.83C23.892,38.844,24.254,39.749,23.917,40.538z"/>
<path d="M28.069,38.591c-0.339,0.788-1.249,1.156-2.032,0.828c-0.782-0.333-1.14-1.24-0.801-2.026  c0.336-0.788,1.247-1.158,2.028-0.826C28.048,36.896,28.406,37.805,28.069,38.591z"/>
<path d="M42.177,28.444c0.782,0.332,1.142,1.235,0.801,2.024c-0.336,0.787-1.246,1.155-2.031,0.826  c-0.782-0.329-1.141-1.236-0.803-2.024C40.485,28.482,41.392,28.113,42.177,28.444z"/>
<path d="M48.361,28.964c0.784,0.332,1.144,1.238,0.805,2.026c-0.34,0.788-1.25,1.158-2.035,0.827  c-0.783-0.333-1.146-1.236-0.806-2.025C46.665,29.003,47.575,28.634,48.361,28.964z"/>
<path d="M42.636,37.91c0.339-0.789,1.248-1.158,2.03-0.827c0.785,0.328,1.146,1.237,0.805,2.024c-0.338,0.787-1.25,1.16-2.03,0.827  C42.655,39.606,42.293,38.698,42.636,37.91z"/>
<path d="M45.607,26.28c0.784,0.333,1.142,1.236,0.803,2.026c-0.339,0.785-1.247,1.157-2.03,0.827  c-0.781-0.332-1.144-1.236-0.805-2.025C43.915,26.321,44.823,25.95,45.607,26.28z"/>
<path d="M40.098,36.972c-0.783-0.33-1.144-1.237-0.805-2.024c0.343-0.792,1.251-1.158,2.035-0.829  c0.783,0.329,1.142,1.235,0.803,2.024C41.794,36.93,40.883,37.302,40.098,36.972z"/>
<path d="M44.895,31.685c0.782,0.33,1.143,1.236,0.805,2.023c-0.341,0.786-1.249,1.156-2.034,0.827  c-0.781-0.33-1.143-1.236-0.804-2.023C43.202,31.724,44.11,31.35,44.895,31.685z"/>
<path d="M30.023,43.375c-0.338,0.79-1.248,1.16-2.033,0.83c-0.781-0.33-1.142-1.235-0.801-2.021c0.338-0.788,1.246-1.159,2.03-0.828  C30.001,41.686,30.361,42.592,30.023,43.375z"/>
<path d="M25.959,45.754c-0.34,0.79-1.249,1.159-2.034,0.829c-0.781-0.33-1.142-1.236-0.801-2.021c0.339-0.788,1.246-1.16,2.031-0.83  C25.937,44.063,26.296,44.971,25.959,45.754z"/>
<path d="M55.129,55.322c-0.385-0.765-0.072-1.69,0.688-2.08c0.764-0.395,1.69-0.092,2.074,0.663  c0.384,0.762,0.072,1.694-0.688,2.082C56.44,56.38,55.511,56.079,55.129,55.322z"/>
<path d="M53.282,59.316c-0.383-0.76-0.073-1.696,0.689-2.084c0.762-0.391,1.69-0.093,2.072,0.667c0.384,0.76,0.075,1.69-0.688,2.084  C54.595,60.374,53.665,60.072,53.282,59.316z"/>
<path d="M51.587,63.467c-0.378-0.757-0.071-1.688,0.692-2.079c0.761-0.392,1.691-0.094,2.072,0.666  c0.386,0.758,0.075,1.691-0.688,2.08C52.902,64.523,51.973,64.227,51.587,63.467z"/>
<path d="M54.22,43.271c-0.761,0.39-1.692,0.091-2.072-0.667c-0.383-0.762-0.072-1.691,0.69-2.083  c0.758-0.391,1.691-0.092,2.072,0.667C55.292,41.951,54.981,42.878,54.22,43.271z"/>
<path d="M54.931,39.255c-0.383-0.759-0.073-1.69,0.688-2.079c0.765-0.392,1.691-0.093,2.072,0.664  c0.383,0.759,0.074,1.691-0.688,2.083C56.241,40.317,55.312,40.015,54.931,39.255z"/>
<path d="M19.857,42.432c-0.338,0.784-1.248,1.155-2.03,0.823c-0.78-0.329-1.141-1.234-0.805-2.019c0.343-0.79,1.25-1.162,2.031-0.83  C19.837,40.737,20.198,41.643,19.857,42.432z"/>
<path d="M15.792,44.315c-0.338,0.785-1.249,1.158-2.03,0.822c-0.782-0.328-1.142-1.236-0.805-2.02  c0.342-0.789,1.25-1.159,2.031-0.828C15.773,42.621,16.133,43.525,15.792,44.315z"/>
<path d="M50.247,43.961c0.767-0.389,1.695-0.094,2.075,0.666c0.382,0.759,0.072,1.688-0.692,2.081  c-0.76,0.396-1.69,0.096-2.071-0.668C49.173,45.283,49.488,44.351,50.247,43.961z"/>
<path d="M60.648,40.53c0.379,0.759,0.073,1.693-0.69,2.083c-0.766,0.39-1.693,0.09-2.073-0.667  c-0.382-0.758-0.073-1.692,0.689-2.081C59.335,39.473,60.263,39.771,60.648,40.53z"/>
<path d="M53.109,49.006c-0.382-0.76-0.073-1.696,0.692-2.082c0.762-0.395,1.691-0.096,2.072,0.665  c0.383,0.76,0.075,1.692-0.692,2.084C54.417,50.062,53.49,49.767,53.109,49.006z"/>
<path d="M57.573,46.15c-0.764,0.391-1.689,0.091-2.071-0.667c-0.381-0.761-0.072-1.691,0.689-2.083  c0.76-0.393,1.693-0.091,2.072,0.669C58.646,44.825,58.334,45.758,57.573,46.15z"/>
<path d="M63.754,43.276c0.384,0.762,0.073,1.689-0.69,2.08c-0.764,0.393-1.69,0.091-2.074-0.667  c-0.38-0.755-0.071-1.687,0.691-2.078C62.445,42.219,63.371,42.517,63.754,43.276z"/>
<path d="M50.881,57.379c-0.761,0.393-1.688,0.088-2.075-0.667c-0.378-0.76-0.074-1.694,0.692-2.084  c0.763-0.391,1.694-0.09,2.075,0.67C51.956,56.055,51.646,56.988,50.881,57.379z"/>
<path d="M47.353,65.792c-0.766,0.392-1.691,0.094-2.075-0.666c-0.381-0.76-0.072-1.69,0.69-2.083  c0.76-0.392,1.692-0.091,2.071,0.669C48.424,64.471,48.117,65.404,47.353,65.792z"/>
<path d="M49.175,61.29c-0.761,0.391-1.689,0.089-2.073-0.668c-0.381-0.76-0.074-1.69,0.688-2.084  c0.764-0.39,1.697-0.091,2.076,0.669C50.255,59.967,49.941,60.898,49.175,61.29z"/>
<path d="M45.171,51.516c0.761-0.39,1.692-0.091,2.071,0.67c0.385,0.759,0.073,1.692-0.69,2.081  c-0.762,0.392-1.687,0.091-2.072-0.664C44.098,52.841,44.404,51.907,45.171,51.516z"/>
<path d="M47.85,47.49c0.763-0.392,1.695-0.092,2.076,0.668c0.382,0.759,0.072,1.69-0.691,2.083c-0.764,0.39-1.689,0.093-2.077-0.67  C46.777,48.814,47.085,47.882,47.85,47.49z"/>
<path d="M59.246,52.318c-0.766,0.391-1.696,0.094-2.075-0.666c-0.382-0.76-0.074-1.697,0.687-2.084  c0.766-0.39,1.695-0.093,2.077,0.667C60.315,50.992,60.006,51.924,59.246,52.318z"/>
<path d="M52.991,53.578c-0.767,0.392-1.691,0.092-2.073-0.668c-0.383-0.756-0.073-1.688,0.687-2.079  c0.763-0.394,1.692-0.096,2.074,0.666C54.065,52.259,53.754,53.188,52.991,53.578z"/>
<path d="M61.108,48.818c-0.764,0.39-1.691,0.093-2.071-0.665c-0.382-0.762-0.074-1.694,0.689-2.082  c0.763-0.392,1.689-0.095,2.072,0.665C62.176,47.493,61.872,48.428,61.108,48.818z"/>
<path d="M70.726,3.448l-8.845,5.67c-0.404-3.445-1.18-6.35-2.555-7.77c-0.785-0.812-1.746-1.197-2.814-1.122  c-4.068,0.3-4.82,9.533-4.883,15.465l-8.859,5.68l26.167,24.466l16.009-29.092L70.726,3.448z M56.698,2.732  c0.22-0.017,0.484,0.014,0.821,0.363c1.086,1.123,1.701,3.96,1.998,7.539l-5.322,3.411C54.453,7.523,55.603,2.814,56.698,2.732z   M62.555,30.576c-0.547,1.271-2.011,1.869-3.275,1.334c-1.268-0.534-1.845-1.996-1.3-3.268c0.262-0.609,0.738-1.057,1.302-1.305  c0.433-5.216,0.649-11.654,0.238-16.667l2.364-1.541c0.734,6.226,0.256,14.214-0.103,18.49C62.67,28.29,63.019,29.5,62.555,30.576z"/>
</svg>