<svg xmlns="http://www.w3.org/2000/svg" xmlns:xlink="http://www.w3.org/1999/xlink" version="1.1" id="Layer_1" x="0px" y="0px" width="100px" height="100px" viewBox="0 0 100 100" enable-background="new 0 0 100 100" xml:space="preserve">
<path fill="#000000" d="M4.808,75.482v-2.717c0,0-0.041-1.291,0.17-1.291s0.194,1.148,0.194,1.148v2.87  c0.406,0.013,0.821,0.024,1.245,0.036v-3.096c0,0-0.075-1.422,0.318-1.422c0.395,0,0.362,1.266,0.362,1.266v3.269  c0.402,0.01,0.813,0.019,1.229,0.026v-3.486c0,0-0.085-1.487,0.359-1.487c0.445,0,0.409,1.323,0.409,1.323v3.665  c0.459,0.008,0.927,0.015,1.401,0.021V71.65c0,0-0.144-1.604,0.604-1.604c0.747,0,0.687,1.426,0.687,1.426v4.152  c0.562,0.006,1.132,0.012,1.711,0.016v-4.205c0,0-0.214-1.806,0.899-1.806s1.023,1.607,1.023,1.607v4.414  c0.599,0.003,1.205,0.004,1.818,0.005v-4.48c0,0-0.237-1.839,0.999-1.839c1.235,0,1.137,1.637,1.137,1.637v4.682  c0.792-0.001,1.595-0.004,2.408-0.008v-4.786c0,0-0.282-1.898,1.188-1.898s1.352,1.689,1.352,1.689v4.979  c0.945-0.007,1.903-0.016,2.87-0.025v-5.031c0,0-0.331-2,1.395-2c1.728,0,1.588,1.779,1.588,1.779v5.218  c0.884-0.011,1.772-0.022,2.669-0.035v-4.75c0,0,0.402-2.379,2.302-2.379s2.302,2.38,2.302,2.38v4.673  c0.979-0.017,1.961-0.034,2.945-0.054l-0.152-5.006c0,0,0.403-2.548,2.303-2.548s2.303,2.548,2.303,2.548v4.915  c0.934-0.021,1.868-0.042,2.802-0.063l-0.139-4.876c0,0,0.378-2.561,2.163-2.561c1.786,0,2.165,2.561,2.165,2.561v4.776  c1.185-0.029,2.367-0.059,3.542-0.09l-0.177-4.969c0,0,0.037-2.501,2.22-2.501s2.626,2.501,2.626,2.501l0.375,4.832  c0.975-0.027,1.943-0.055,2.901-0.083l-0.17-4.903c0,0,0.037-2.568,2.219-2.568c2.183,0,2.627,2.568,2.627,2.568l0.358,4.753  c0.977-0.029,1.938-0.06,2.885-0.09L71.07,69.72c0,0,0.037-2.496,2.219-2.496s2.626,2.496,2.626,2.496l0.368,4.722  c0.857-0.028,1.698-0.057,2.519-0.085l-0.148-4.71c0,0,0.032-2.496,1.984-2.496c1.954,0,2.352,2.496,2.352,2.496l0.318,4.556  c0.769-0.026,1.515-0.054,2.234-0.078l-0.121-4.367c0,0,0.028-2.479,1.718-2.479c1.688,0,2.032,2.479,2.032,2.479l0.256,4.227  c0.725-0.027,1.408-0.053,2.046-0.076l-0.115-4.15c0,0,0.028-2.479,1.717-2.479s2.033,2.479,2.033,2.479l0.241,4.002  c1.315-0.051,2.032-0.08,2.032-0.08l-1.639-11.542l-3.317-0.497l-4.142-11.097v-1.701h-3.922l-3.55-10.578v-1.85l-1.775-0.073  l-5.549-11.762c-19.144-0.854-30.951,0.604-43.539,4.622l-0.476,2.34l-2.137,0.306L23.952,33.4l-1.963-1.384  c-0.096,0.036-0.189,0.071-0.284,0.108C5.578,38.337,6.022,46.179,6.022,46.179l0.037,5.418c-1.721,2.357-0.833,4.078-0.833,4.078  l-0.222,4.105c-2.025,1.636-0.86,2.83-0.86,2.83l-0.582,5.963c-1.165,0.277-0.166,0.943-0.166,0.943l-0.777,5.881  C3.314,75.429,4.046,75.457,4.808,75.482z M85.857,54.295c1.688,0,2.032,2.195,2.032,2.195l0.343,5.02h-3.935l-0.158-5.02  C84.14,56.49,84.169,54.295,85.857,54.295z M81.709,56.202l0.397,5.16h-4.554l-0.181-5.16c0,0,0.032-2.257,1.985-2.257  C81.312,53.945,81.709,56.202,81.709,56.202z M77.908,41.815c2.183,0,2.09,2.219,2.09,2.219l0.406,4.438l-4.181-0.166l-0.2-5.418  C76.023,42.887,75.727,41.815,77.908,41.815z M74.856,56.054l0.443,5.161h-5.086l-0.203-5.161c0,0,0.037-2.256,2.219-2.256  C74.412,53.798,74.856,56.054,74.856,56.054z M68.809,43.442c0,0,0.057-1.738,2.237-1.738c2.183,0,2.238,1.683,2.238,1.683v4.809  h-4.476V43.442z M67.162,56.202l0.445,5.16h-5.087l-0.203-5.16c0,0,0.037-2.257,2.22-2.257  C66.719,53.945,67.162,56.202,67.162,56.202z M62.076,30.903l1.998-0.147v2.237h-1.998V30.903z M61.633,43.202  c0,0,0.056-1.739,2.237-1.739c2.183,0,2.238,1.683,2.238,1.683v4.808h-4.476V43.202z M59.876,61.584H54.79l-0.203-5.16  c0,0,0.036-2.256,2.219-2.256s2.627,2.256,2.627,2.256L59.876,61.584z M54.235,43.142c0,0,0.056-1.679,2.238-1.679  s2.237,1.625,2.237,1.625l0.223,4.866h-4.828L54.235,43.142z M51.665,61.806h-4.162l-0.166-5.159c0,0,0.379-2.256,2.164-2.256  c1.786,0,2.164,2.256,2.164,2.256V61.806z M47.614,31.625l2.053-0.093v2.256l-2.053,0.129V31.625z M47.264,43.882  c0,0,0.053-1.68,2.108-1.68c2.055,0,2.108,1.625,2.108,1.625v4.644h-4.217V43.882z M42.267,42.973c2.056,0,1.89,1.468,1.89,1.468  v4.513l-3.551,0.259v-4.59C40.605,44.622,40.211,42.973,42.267,42.973z M41.928,54.648c1.9,0,2.303,2.257,2.303,2.257v5.159h-4.428  l-0.177-5.159C39.626,56.905,40.028,54.648,41.928,54.648z M34.965,33.584l1.812-0.185v2.367l-1.812,0.24V33.584z M35.76,43.916  c1.981,0,1.822,1.467,1.822,1.467v4.512l-3.423,0.26v-4.591C34.159,45.564,33.778,43.916,35.76,43.916z M35.418,55.425  c1.9,0,2.303,2.134,2.303,2.134v4.876h-4.428l-0.177-4.877C33.116,57.558,33.519,55.425,35.418,55.425z M29.809,44.999  c1.727,0,1.588,1.467,1.588,1.467v4.512l-2.982,0.26v-4.591C28.414,46.646,28.082,44.999,29.809,44.999z M29.082,56.535  c1.727,0,1.587,1.467,1.587,1.467v4.513l-2.981,0.259v-4.589C27.688,58.185,27.355,56.535,29.082,56.535z M24.979,36.808  l1.221-0.375v2.321l-1.221,0.221V36.808z M24.636,46.218c1.47,0,1.352,1.382,1.352,1.382v4.252l-2.539,0.244v-4.324  C23.448,47.772,23.166,46.218,24.636,46.218z M23.909,57.312c1.47,0,1.351,1.382,1.351,1.382v4.252l-2.538,0.244v-4.325  C22.722,58.865,22.439,57.312,23.909,57.312z M20.228,47.576c1.034,0,0.951,1.324,0.951,1.324v4.073l-1.786,0.233v-4.144  C19.393,49.062,19.193,47.576,20.228,47.576z M19.501,58.225c1.034,0,0.95,1.324,0.95,1.324v4.073l-1.786,0.233v-4.144  C18.665,59.712,18.466,58.225,19.501,58.225z M17.062,39.835l0.629-0.426v2.127l-0.629,0.259V39.835z M16.386,48.764  c0.747,0,0.687,1.279,0.687,1.279v3.937l-1.291,0.227v-4.004C15.781,50.202,15.638,48.764,16.386,48.764z M15.437,58.748  c0.747,0,0.688,1.28,0.688,1.28v3.935l-1.291,0.227v-4.004C14.833,60.186,14.689,58.748,15.437,58.748z M13.444,50.022  c0.748,0,0.688,1.18,0.688,1.18v3.627l-1.291,0.208v-3.689C12.841,51.348,12.697,50.022,13.444,50.022z M12.274,59.563  c0.747,0,0.687,1.178,0.687,1.178v3.628l-1.29,0.209v-3.69C11.671,60.888,11.526,59.563,12.274,59.563z M11.606,43.053l0.279-0.296  v1.646l-0.279,0.129V43.053z M10.616,51.265c0.445,0,0.409,1.129,0.409,1.129v3.471l-0.769,0.199v-3.53  C10.257,52.533,10.171,51.265,10.616,51.265z M9.667,60.36c0.445,0,0.409,1.129,0.409,1.129v3.472L9.308,65.16v-3.53  C9.308,61.63,9.223,60.36,9.667,60.36z M8.688,52.41c0.395,0,0.362,1.049,0.362,1.049v3.224L8.37,56.868v-3.279  C8.37,53.589,8.294,52.41,8.688,52.41z M7.739,61.285c0.395,0,0.362,1.048,0.362,1.048v3.225l-0.681,0.186v-3.28  C7.421,62.463,7.345,61.285,7.739,61.285z M6.929,54.02c0.211,0,0.193,0.911,0.193,0.911v2.803l-0.363,0.161v-2.851  C6.759,55.044,6.718,54.02,6.929,54.02z M6.201,62.006c0.211,0,0.194,0.911,0.194,0.911v2.803l-0.364,0.162v-2.853  C6.031,63.029,5.991,62.006,6.201,62.006z"/>
</svg>