<svg xmlns="http://www.w3.org/2000/svg" xmlns:xlink="http://www.w3.org/1999/xlink" version="1.1" id="Layer_1" x="0px" y="0px" width="100px" height="100px" viewBox="0 0 100 100" enable-background="new 0 0 100 100" xml:space="preserve">
<g>
	<circle cx="21.484" cy="18.285" r="12.01"/>
	<path d="M42.501,41.971c0-4.421-3.585-8.006-8.007-8.006H8.473c-4.422,0-8.007,3.584-8.007,8.006v46.396   c0,1.895,1.536,3.432,3.432,3.432H15.05c1.895,0,3.432-1.537,3.432-3.432v-9.364h6.005v9.364c0,1.895,1.536,3.432,3.431,3.432   H39.07c1.895,0,3.431-1.537,3.431-3.432L42.501,41.971z M21.633,72.696c-2.542,0-4.604-2.062-4.604-4.604   c0-2.542,2.061-4.604,4.604-4.604c2.542,0,4.604,2.062,4.604,4.604C26.236,70.635,24.175,72.696,21.633,72.696z"/>
</g>
<g>
	<path d="M99.408,41.971c0-4.421-3.585-8.006-8.007-8.006H65.379c-4.421,0-8.006,3.584-8.006,8.006v46.396   c0,1.895,1.536,3.432,3.432,3.432h11.151c1.895,0,3.433-1.537,3.433-3.432v-9.364h6.005v9.364c0,1.895,1.537,3.432,3.433,3.432   h11.151c1.896,0,3.432-1.537,3.432-3.432L99.408,41.971z M69.727,51.413c-2.543,0-4.604-2.062-4.604-4.604s2.061-4.604,4.604-4.604   s4.604,2.062,4.604,4.604S72.27,51.413,69.727,51.413z M78.541,72.696c-2.543,0-4.604-2.062-4.604-4.604   c0-2.542,2.061-4.604,4.604-4.604c2.542,0,4.604,2.062,4.604,4.604C83.145,70.635,81.083,72.696,78.541,72.696z M88.299,51.162   c-2.543,0-4.604-2.062-4.604-4.604c0-2.542,2.061-4.603,4.604-4.603c2.542,0,4.604,2.061,4.604,4.603   C92.902,49.1,90.841,51.162,88.299,51.162z"/>
	<circle cx="78.391" cy="18.285" r="12.01"/>
</g>
<g>
	<path fill="#000000" d="M49.938,98.022c-1.244,0-2.252-1.008-2.252-2.252V5.344c0-1.244,1.008-2.252,2.252-2.252   s2.251,1.008,2.251,2.252v90.426C52.189,97.015,51.183,98.022,49.938,98.022z"/>
</g>
</svg>