<svg xmlns="http://www.w3.org/2000/svg" xmlns:xlink="http://www.w3.org/1999/xlink" version="1.1" id="Layer_1" x="0px" y="0px" width="100px" height="100px" viewBox="0 0 100 100" enable-background="new 0 0 100 100" xml:space="preserve">
<path d="M80.229,2.37c-0.318,0-0.586,0.169-0.755,0.412h-0.798V2.438h-1.438v0.344H75.26V2.438h-1.438v0.344h-1.959V2.438h-1.438  v0.344h-1.877V2.438h-1.438v0.344h-1.761V2.438h-1.438v0.344h-1.785V2.438H60.69v0.344H39.471V2.438h-1.438v0.344h-1.979V2.438  h-1.438v0.344h-1.958V2.438h-1.438v0.344h-1.877V2.438h-1.438v0.344h-1.76V2.438h-1.438v0.344h-1.785V2.438h-1.438v0.344h-0.751  c-0.169-0.243-0.437-0.412-0.755-0.412c-0.518,0-0.938,0.42-0.938,0.938s0.42,0.938,0.938,0.938c0.318,0,0.585-0.169,0.755-0.412  h0.751v0.834c0,0,0,1.115,0,3.083c0,15.594,0,85.217,0,86.438c0,1.375,3.5,0.75,3.812,0.375s2.062-1.5,2.875-0.375  s2.125,0.5,2.375,0.253s1.938-1.315,2.688-0.503s2.875,0.396,2.875,0.396c0.167-2.248,0.29-4.354,0.379-6.334h27.182  c0.089,1.98,0.213,4.086,0.379,6.334c0,0,2.125,0.416,2.875-0.396s2.438,0.256,2.688,0.503s1.562,0.872,2.375-0.253  s2.562,0,2.875,0.375s3.812,1,3.812-0.375c0-1.221,0-70.844,0-86.438c0-1.968,0-3.083,0-3.083V3.833h0.798  c0.169,0.243,0.437,0.412,0.755,0.412c0.518,0,0.938-0.42,0.938-0.938S80.746,2.37,80.229,2.37z M24.708,4.667h-1.785V3.833h1.785  V4.667z M60.711,27.375h-2.548V11.406h2.29C60.378,15.609,60.383,21.35,60.711,27.375z M60.783,28.625  c0.365,5.946,1.058,12.081,2.308,17.219h-4.928V28.625H60.783z M64.059,49.25c1.344,4.073,3.162,7.154,5.617,8.417  c0,0-3.33-0.122-5.099,9.083h-6.414v-17.5H64.059z M71.863,3.833h1.959v0.834h-1.959V3.833z M68.549,3.833h1.877v0.834h-1.877V3.833  z M65.351,3.833h1.761v0.834h-1.761V3.833z M62.128,3.833h1.785v0.834h-1.785V3.833z M39.471,3.833H60.69v0.834h-0.015  c0,0-0.07,1.239-0.138,3.333H39.624c-0.068-2.094-0.138-3.333-0.138-3.333h-0.015V3.833z M36.055,3.833h1.979v0.834h-1.979V3.833z   M32.659,3.833h1.958v0.834h-1.958V3.833z M29.344,3.833h1.877v0.834h-1.877V3.833z M26.146,3.833h1.76v0.834h-1.76V3.833z   M42.109,85.5h-5.527c0.242-7.823-0.121-13.458-0.774-17.5h6.301V85.5z M42.109,66.75h-6.524c-1.77-9.205-5.099-9.083-5.099-9.083  c2.455-1.263,4.273-4.344,5.618-8.417h6.005V66.75z M42.109,45.844h-5.038c1.25-5.138,1.942-11.272,2.308-17.219h2.73V45.844z   M42.109,27.375h-2.658c0.327-6.025,0.333-11.766,0.258-15.969h2.4V27.375z M56.913,85.5H43.359V68h13.554V85.5z M56.913,66.75  H43.359v-17.5h13.554V66.75z M56.913,45.844H43.359V28.625h13.554V45.844z M56.913,27.375H43.359V11.406h13.554V27.375z   M58.163,85.5V68h6.191c-0.654,4.042-1.017,9.677-0.775,17.5H58.163z M77.238,4.667H75.26V3.833h1.979V4.667z"/>
</svg>