<svg xmlns="http://www.w3.org/2000/svg" xmlns:xlink="http://www.w3.org/1999/xlink" version="1.1" id="Layer_1" x="0px" y="0px" width="100px" height="100px" viewBox="0 0 100 100" enable-background="new 0 0 100 100" xml:space="preserve">
<rect x="26.296" y="48.75" width="1.204" height="2.5"/>
<rect x="72.5" y="48.75" width="1.279" height="2.5"/>
<path d="M80.229,2.37c-0.317,0-0.586,0.169-0.754,0.412h-0.799V2.438h-1.438v0.344H75.26V2.438h-1.438v0.344h-1.959V2.438h-1.438  v0.344h-1.877V2.438h-1.438v0.344h-1.76V2.438h-1.438v0.344h-1.785V2.438h-1.437v0.344H39.471V2.438h-1.438v0.344h-1.979V2.438  h-1.438v0.344h-1.958V2.438H31.22v0.344h-1.877V2.438h-1.438v0.344h-1.76V2.438h-1.438v0.344h-1.785V2.438h-1.438v0.344h-0.751  c-0.169-0.243-0.437-0.412-0.755-0.412c-0.518,0-0.938,0.42-0.938,0.938s0.42,0.938,0.938,0.938c0.318,0,0.585-0.169,0.755-0.412  h0.751v0.834c0,0,0,1.115,0,3.083c0,15.594,0,85.217,0,86.438c0,1.375,3.5,0.75,3.812,0.375s2.062-1.5,2.875-0.375  s2.125,0.5,2.375,0.252c0.25-0.246,1.938-1.314,2.688-0.502c0.75,0.812,2.875,0.396,2.875,0.396  c2.738-37.001-5.625-36.667-5.625-36.667c11.668-6,9-53,9-53h-0.015V3.833h21.221v0.834h-0.015c0,0-2.668,47,9,53  c0,0-8.362-0.334-5.625,36.667c0,0,2.125,0.416,2.875-0.396c0.75-0.812,2.438,0.256,2.688,0.504c0.25,0.246,1.562,0.871,2.375-0.254  c0.812-1.125,2.562,0,2.875,0.375c0.312,0.375,3.812,1,3.812-0.375c0-1.221,0-70.844,0-86.438c0-1.968,0-3.083,0-3.083V3.833h0.798  c0.17,0.243,0.438,0.412,0.756,0.412c0.518,0,0.938-0.42,0.938-0.938S80.746,2.37,80.229,2.37z M34.617,3.833v0.834h-1.958V3.833  H34.617z M22.923,4.667V3.833h1.785v0.834H22.923z M26.146,4.667V3.833h1.76v0.834H26.146z M29.344,4.667V3.833h1.877v0.834H29.344z   M38.034,4.667h-1.979V3.833h1.979V4.667z M67.111,3.833v0.834H65.35V3.833H67.111z M62.128,3.833h1.785v0.834h-1.785V3.833z   M68.549,4.667V3.833h1.877v0.834H68.549z M71.863,4.667V3.833h1.959v0.834H71.863z M77.238,4.667H75.26V3.833h1.979V4.667  L77.238,4.667z"/>
</svg>