<svg xmlns="http://www.w3.org/2000/svg" xmlns:xlink="http://www.w3.org/1999/xlink" version="1.1" id="Layer_1" x="0px" y="0px" width="70.7491082045px" height="100px" viewBox="0 0 595.28 841.89" enable-background="new 0 0 595.28 841.89" xml:space="preserve">
<path fill="#000000" d="M116.5,266"/>
<path d="M320.241,631.583l-0.249-24.329c2.687-1.37,5.293-2.92,7.792-4.648c2.511-1.736,4.92-3.645,7.21-5.705  c2.136-1.922,4.168-3.975,6.085-6.146c1.908-2.16,3.701-4.436,5.367-6.812c1.768-2.52,3.392-5.152,4.859-7.879h-0.001  c1.733-3.223,3.247-6.576,4.518-10.035c2.944-8.016,4.577-16.584,4.594-25.334c0.042-22.9-10.997-41.449-27.661-50.514  l-10.238-5.568c-0.599-0.326-1.205-0.641-1.817-0.941c-2.985-1.465-6.136-2.635-9.425-3.48c-6.419-1.652-13.36-2.072-20.606-1.055  c-6.064,0.854-11.919,2.652-17.437,5.244c-3.364,1.58-6.603,3.453-9.688,5.586c-2.511,1.736-4.919,3.646-7.21,5.707  c-2.135,1.92-4.167,3.975-6.085,6.145c-1.907,2.16-3.701,4.436-5.367,6.812c-1.767,2.52-3.391,5.152-4.858,7.879  c-1.733,3.223-3.247,6.578-4.517,10.035c-2.945,8.018-4.579,16.59-4.595,25.344c-0.042,22.891,10.996,41.438,27.659,50.502  l0.009,0.005c-0.003-0.002-0.006-0.003-0.01-0.005l10.238,5.568c0.599,0.326,1.205,0.641,1.818,0.941  c2.985,1.465,6.137,2.635,9.426,3.482c6.422,1.652,13.366,2.072,20.615,1.053c2.497-0.351,4.955-0.871,7.372-1.531l0.201,19.686  c-31.509,0.534-56.121,5.082-56.121,10.615c0,5.891,27.907,10.667,62.333,10.667c34.426,0,62.334-4.776,62.334-10.667  C376.787,636.646,351.952,632.082,320.241,631.583z M300.906,484.705c7.245-1.018,14.187-0.6,20.606,1.053  c2.054,0.528,4.046,1.197,5.985,1.972c8.956,6.363,15.831,15.734,19.559,27.12c-4.298-7.526-10.387-13.553-17.694-17.528  l-9.117-4.96c-0.533-0.29-1.073-0.569-1.619-0.837c-2.658-1.306-5.465-2.347-8.393-3.101c-5.717-1.471-11.898-1.845-18.351-0.938  c-1.635,0.229-3.25,0.546-4.847,0.926C291.488,486.643,296.13,485.376,300.906,484.705z M290.429,607.865  c-7.248,1.018-14.193,0.598-20.614-1.055c-2.055-0.528-4.049-1.197-5.989-1.973c-9.312-6.617-16.371-16.487-19.983-28.489  c4.311,9.104,11.085,16.345,19.455,20.897l9.117,4.96c0.533,0.29,1.073,0.569,1.619,0.837c2.659,1.306,5.465,2.348,8.395,3.102  c3.208,0.826,6.568,1.291,10.035,1.394C291.788,607.657,291.11,607.77,290.429,607.865z M291.669,602.122  c-6.456,0.907-12.64,0.534-18.359-0.938c-1.831-0.472-3.608-1.067-5.337-1.759c-12.325-8.76-20.224-23.918-20.189-42.193  c0.015-7.795,1.469-15.43,4.092-22.57c1.131-3.079,2.479-6.066,4.022-8.936c1.307-2.429,2.753-4.772,4.326-7.016  c1.484-2.117,3.081-4.144,4.78-6.066c1.707-1.934,3.517-3.762,5.418-5.473c2.04-1.835,4.185-3.535,6.42-5.081  c2.747-1.899,5.631-3.568,8.627-4.976c4.914-2.308,10.128-3.91,15.53-4.669c6.452-0.907,12.634-0.534,18.351,0.938  c1.831,0.472,3.606,1.067,5.335,1.758c12.326,8.761,20.226,23.923,20.191,42.204c-0.015,7.792-1.469,15.423-4.091,22.562  c-1.131,3.078-2.479,6.065-4.022,8.936c-1.307,2.428-2.753,4.772-4.326,7.016c-1.484,2.116-3.081,4.143-4.78,6.066  c-1.707,1.934-3.517,3.762-5.418,5.473c-2.039,1.836-4.185,3.535-6.42,5.081c-2.746,1.899-5.631,3.568-8.627,4.976  C302.281,599.762,297.068,601.363,291.669,602.122z"/>
</svg>