<?xml version="1.0" encoding="utf-8"?>
<!-- Generator: Adobe Illustrator 15.1.0, SVG Export Plug-In . SVG Version: 6.00 Build 0)  -->
<!DOCTYPE svg PUBLIC "-//W3C//DTD SVG 1.1//EN" "http://www.w3.org/Graphics/SVG/1.1/DTD/svg11.dtd">
<svg version="1.1" id="Layer_1" xmlns="http://www.w3.org/2000/svg" xmlns:xlink="http://www.w3.org/1999/xlink" x="0px" y="0px"
	 width="82.834px" height="100px" viewBox="0 0 82.834 100" enable-background="new 0 0 82.834 100" xml:space="preserve">
<path d="M40.974,26c-1.657,0-3,1.343-3,3v24H14.349c-1.657,0-3,1.343-3,3s1.343,3,3,3h26.626l0,0c1.657-0.001,2.999-1.343,2.999-3
	V29C43.974,27.343,42.631,26,40.974,26z"/>
<path d="M82.834,55.554c0-14.573-7.573-27.403-18.983-34.788l1.803-3.155c4.025,2.594,7.614,5.811,10.625,9.515l2.955-7.594
	c0.964-3.377-2.206-7.348-8.272-11.21l3.029-5.301l-0.008-0.004c0.168-0.292,0.271-0.626,0.271-0.988
	c0-1.104-0.895-1.999-1.999-1.999c-0.742,0-1.384,0.41-1.728,1.011L70.52,1.039l-3.01,5.268C60.934,2.796,55.746,1.951,53.25,4.531
	l-5.165,6.438c5.025,0.756,9.776,2.351,14.116,4.63l-1.807,3.159c-5.69-2.946-12.139-4.622-18.977-4.622
	c-6.837,0-13.287,1.676-18.977,4.622L20.635,15.6c4.339-2.279,9.091-3.874,14.116-4.63l-5.166-6.438
	c-2.496-2.58-7.684-1.735-14.261,1.775l-3.01-5.268l-0.008,0.004c-0.343-0.602-0.984-1.011-1.728-1.011
	c-1.104,0-1.999,0.895-1.999,1.999c0,0.361,0.104,0.695,0.271,0.988L8.844,3.021l3.029,5.301c-6.066,3.862-9.236,7.833-8.272,11.21
	l2.956,7.594c3.011-3.705,6.599-6.921,10.624-9.515l1.804,3.155C7.573,28.15,0,40.98,0,55.554c0,14.729,7.734,27.678,19.348,35.021
	l-3.696,6.466l0.008,0.004c-0.168,0.293-0.271,0.627-0.271,0.987c0,1.104,0.895,1.999,1.999,1.999c0.743,0,1.384-0.41,1.728-1.011
	l0.008,0.004l3.703-6.478c5.596,2.823,11.909,4.424,18.592,4.424c6.684,0,12.996-1.601,18.592-4.424l3.703,6.478l0.008-0.004
	c0.344,0.601,0.984,1.011,1.728,1.011c1.104,0,1.998-0.895,1.998-1.999c0-0.36-0.104-0.694-0.271-0.987l0.008-0.004l-3.696-6.466
	C75.1,83.231,82.834,70.282,82.834,55.554z M41.417,90.975c-19.532,0-35.421-15.89-35.421-35.421s15.89-35.421,35.421-35.421
	c19.531,0,35.421,15.89,35.421,35.421S60.949,90.975,41.417,90.975z"/>
</svg>
