<svg xmlns="http://www.w3.org/2000/svg" xmlns:xlink="http://www.w3.org/1999/xlink" version="1.1" id="Layer_1" x="0px" y="0px" width="46.998px" height="53.257px" viewBox="0 0 46.998 53.257" enable-background="new 0 0 46.998 53.257" xml:space="preserve">
<g>
	<path d="M30.289,9.347v1.576c0.684-0.027,1.069-0.438,1.069-0.794C31.358,9.724,30.943,9.441,30.289,9.347z"/>
	<path d="M27.936,6.76c0,0.306,0.185,0.593,0.849,0.709V6.012C28.387,6.057,27.936,6.403,27.936,6.76z"/>
	<path d="M29.549,0C24.86,0,21.06,3.803,21.06,8.489c0,4.688,3.801,8.49,8.489,8.49c4.688,0,8.489-3.803,8.489-8.49   C38.038,3.803,34.236,0,29.549,0z M30.271,12.434v0.993h-1.486v-0.993c-1.586-0.183-2.597-1.691-2.597-2.678h1.586   c0,0.443,0.341,1.031,1.024,1.173V9.064C28.456,9,28.265,8.946,27.898,8.846c-0.937-0.26-1.583-1.048-1.583-2.053   c0-0.997,0.97-2.114,2.469-2.313V3.552h1.486v0.928c1.589,0.203,2.566,1.382,2.566,2.552h-1.554c0-0.513-0.427-0.979-1.013-1.036   v1.747c0.432,0.095,0.432,0.084,0.827,0.192c1.477,0.403,1.813,1.37,1.813,2.179C32.911,11.362,31.913,12.217,30.271,12.434z"/>
</g>
<path d="M32.654,20.249c0,0-10.213-1.145-14.986,1.372c0,0-0.426-2.363-1.036-3.203c-0.609-0.84-1.948-2.061-2.08-3.205  c0,0,0.021,1.526-0.818,2.519c-0.84,0.991-0.611,2.364-0.611,2.364s-2.67-0.609-4.807,1.984c-2.136,2.593-1.373,2.746-2.67,3.052  c-1.297,0.305-4.272,0-4.272,0S0,27.191,0,29.023c0,1.83,1.068,3.433,1.068,3.433h2.745c0,0,1.068,3.586,6.181,3.586  c0,0,0.229,4.653,1.831,7.324c1.603,2.671,2.727,9.155,2.727,9.843c0,0.687,2.386-6.181,2.386-6.181s3.663,2.136,9.995,2.136  s9.842-1.602,9.842-1.602l2.289,5.694l2.594-6.305c0,0,5.341-1.603,5.341-12.36C46.998,23.835,39.444,20.706,32.654,20.249z   M35.478,25.59c0,0-2.289-0.955-6.485-0.955s-6.746,1.336-6.746,1.336L21.134,23.3c0,0,4.044-1.22,8.316-1.22s7.324,1.22,7.324,1.22  L35.478,25.59z"/>
</svg>