<svg xmlns="http://www.w3.org/2000/svg" xmlns:xlink="http://www.w3.org/1999/xlink" version="1.1" id="Layer_1" x="0px" y="0px" width="41.667px" height="27.776px" viewBox="0 0 41.667 27.776" enable-background="new 0 0 41.667 27.776" xml:space="preserve">
<path fill-rule="evenodd" clip-rule="evenodd" d="M41.254,9.681c0.846-1.493,0.357-3.442-1.136-4.287  c-1.527-0.877-3.444-0.356-4.29,1.137c-0.779,1.331-0.453,3.055,0.684,3.996c-2.6,2.209-10.559,8.967-10.623,8.967L21.178,6.271  c1.657-0.098,2.925-1.461,2.925-3.118C24.103,1.43,22.706,0,20.918,0h-0.162c-1.753,0-3.183,1.43-3.183,3.152  c0,1.657,1.266,3.021,2.923,3.118l-4.71,13.223c-0.033,0-7.991-6.758-10.655-8.967C6.333,9.585,6.659,7.861,5.877,6.53  C5,5.037,3.084,4.517,1.557,5.394C0.095,6.238-0.457,8.188,0.42,9.681c0.845,1.43,2.632,1.983,4.158,1.235l2.923,16.86h26.704  l2.924-16.86C38.624,11.664,40.41,11.11,41.254,9.681z"/>
</svg>