<svg xmlns="http://www.w3.org/2000/svg" xmlns:xlink="http://www.w3.org/1999/xlink" version="1.1" id="Layer_1" x="0px" y="0px" width="25.55px" height="35.876px" viewBox="0 0 25.55 35.876" enable-background="new 0 0 25.55 35.876" xml:space="preserve">
<g>
	<path fill-rule="evenodd" clip-rule="evenodd" d="M19.607,9.953c3.127,1.182,5.636,3.567,5.878,7.433c0.146,2.379,0,4.985,0,7.603   c0,6.336,0-0.345,0,6.211c0,2.172,0.288,4.104-1.211,4.551c-0.821,0.245-2.394,0.058-3.571,0.058c-2.573,0-4.418,0-7.145,0   c-2.045,0-4.047,0.309-4.493-1.209c-0.188-0.636-0.058-1.704-0.058-2.708c0-8.157,0.194-3.495-0.058-11.566   c-0.058-1.841-0.006-3.551,0.462-4.955c0.911-2.746,2.66-4.431,5.473-5.357"/>
	<polygon fill-rule="evenodd" clip-rule="evenodd" points="19.291,6.692 15.191,6.692 12.95,3.423 21.53,3.423  "/>
	<circle fill-rule="evenodd" clip-rule="evenodd" cx="17.241" cy="1.643" r="1.643"/>
	<ellipse cx="4.32" cy="14.49" rx="4.32" ry="5.636"/>
	<polygon points="13.271,8.415 11.369,7.138 10.696,6.731 10.044,6.356 9.448,6.024 8.876,5.805 8.364,5.672 8.123,5.656    7.645,5.658 7.183,5.685 6.726,5.796 6.293,5.929 5.49,6.321 5.12,6.583 4.812,6.873 4.544,7.153 4.282,7.463 4.104,7.767    3.979,8.084 3.838,8.601 3.82,8.967 3.845,9.353 3.887,9.763 3.979,10.185 4.566,9.772 4.527,9.363 4.521,9.012 4.554,8.668    4.676,8.196 4.795,7.926 4.973,7.622 5.189,7.385 5.453,7.152 5.756,6.931 6.106,6.768 6.443,6.604 6.853,6.486 7.242,6.414    7.705,6.387 8.158,6.399 8.59,6.456 8.817,6.522 9.378,6.718 9.933,6.98 10.534,7.354 11.166,7.733 13.17,9.062 13.271,9.124  "/>
	<path fill-rule="evenodd" clip-rule="evenodd" d="M14.24,9.75h5.999c0.683-0.303,1.107-0.705,1.107-1.151   c0-0.938-1.838-1.697-4.107-1.697c-2.269,0-4.106,0.759-4.106,1.697C13.133,9.045,13.559,9.447,14.24,9.75z"/>
</g>
</svg>