<svg xmlns="http://www.w3.org/2000/svg" xmlns:xlink="http://www.w3.org/1999/xlink" version="1.1" id="Layer_1" x="0px" y="0px" width="62.5px" height="100px" viewBox="0 0 800 1280" enable-background="new 0 0 800 1280" xml:space="preserve">
<g>
	<g>
		<path d="M426.493,246.653l-42.988,29.269h59.178c-5.797,12.346-9.102,26.109-9.102,40.646c0,53.038,42.944,95.986,95.982,95.986    c53.017,0,95.983-42.948,95.983-95.986c0-14.537-3.33-28.3-9.105-40.646h19.111v-29.355c0,0-89.413-28.557-129.353-44.062    c-36.031-13.955-76.702-49.386-104.058-49.299c-16.104,0.043-25.982,15.351-13.999,40.024    C400.168,217.901,426.493,246.653,426.493,246.653z"/>
		<path d="M68.283,269.717c3.287-4.983,7.581-8.805,12.369-11.683l-5.368-130.77c0-43.632,16.384-46.789,24.178-46.789    c7.774,0,26.155,7.109,24.179,45.201l-6.612,130.856c1.416,0.688,2.897,1.331,4.293,2.231l267.94,176.272h282.17    c19.82,0,36.743,12.259,43.7,29.609c2.146,4.726,3.436,9.922,3.436,15.484v322.133c0,20.594-16.706,37.32-37.321,37.32    c-20.612,0-37.318-16.727-37.318-37.32V540.572h-8.719v635.51c0,27.529-22.29,49.816-49.816,49.816    c-27.485,0-49.775-22.287-49.775-49.816v-328.75h-34.443v328.75c0,27.529-22.286,49.816-49.794,49.816    c-27.505,0-49.795-22.287-49.795-49.816v-635.51l-83.702-60.444c0-0.151,0.043-0.26,0.043-0.387L112.561,344.654l-0.085,1.935    c0,7.771-6.314,14.085-14.108,14.085c-7.773,0-14.108-6.314-14.108-14.085l-0.857-21.129l-4.166-2.705    C61.584,311.115,56.69,287.367,68.283,269.717z"/>
	</g>
	<rect x="650.668" y="435.036" fill="#000000" width="15.784" height="41.462"/>
	<rect x="625.373" y="435.036" fill="#000000" width="15.784" height="41.462"/>
	<polygon fill="#000000" points="364.437,468.424 377.321,477.529 401.242,443.646 388.357,434.562  "/>
	<polygon fill="#000000" points="343.778,453.865 356.666,462.949 380.564,429.087 367.681,419.981  "/>
	<path fill="#000000" d="M536.713,518.221c0,31.608,31.113,41.25,31.113,41.25s31.135-5.283,31.135-41.25   c0-14.924,0-21.172,0-21.172s-8.415,3.005-14.898,3.005c-6.487,0-16.236-15.546-16.236-15.546s-9.641,15.546-17.607,15.546   c-8.244,0-13.506-3.005-13.506-3.005S536.713,506.024,536.713,518.221z"/>
</g>
</svg>