<svg xmlns="http://www.w3.org/2000/svg" xmlns:xlink="http://www.w3.org/1999/xlink" version="1.1" id="Layer_1" x="0px" y="0px" width="100px" height="100px" viewBox="0 0 100 100" enable-background="new 0 0 100 100" xml:space="preserve">
<path d="M77.922,5.532h-2.508h-4.73v33.774l-5.84-8.505l-6.526,8.505V5.532H22.3H6.896v94.479H22.3h53.114h2.508  c3.544,0,6.45-2.604,6.45-5.785V11.322C84.372,8.139,81.466,5.532,77.922,5.532z"/>
<path d="M84.864-0.012H17.612L12.11,2.821h15.339H80.57h2.502c0.584,0,1.135,0.104,1.673,0.256h0.119  c2.568,0,4.658,1.806,4.658,4.018v2.354v77.318v5.857c2.157-1.285,3.582-3.426,3.582-5.857V7.095  C93.104,3.177,89.41-0.012,84.864-0.012z"/>
</svg>