<svg xmlns="http://www.w3.org/2000/svg" xmlns:xlink="http://www.w3.org/1999/xlink" version="1.1" id="Layer_1" x="0px" y="0px" width="100px" height="100px" viewBox="0 0 100 100" enable-background="new 0 0 100 100" xml:space="preserve">
<path d="M74.303,40.779V23.247c0,0-0.424-23.24-24.515-23.24c-24.09,0-24.09,24.511-24.09,24.511v16.238l-10.247,1.961V93.89  l34.313,6.104l34.784-6.101v-51.18L74.303,40.779z M49.788,9.304c16.481,0,16.481,15.213,16.481,15.213v14.746l-16.505-3.114  l-14.768,2.827V24.518C34.997,24.518,33.308,9.304,49.788,9.304z M79.48,89.635l-29.712,5.208L20.525,89.64V46.912l29.243-5.601  l29.712,5.607V89.635z"/>
<path d="M56.99,81.578l-3.835-15.014c1.62-1.04,2.696-2.854,2.696-4.922c0-3.239-2.619-5.858-5.852-5.858  c-3.236,0-5.857,2.619-5.857,5.858c0,2.026,1.031,3.812,2.598,4.861l-3.73,15.074H56.99z"/>
</svg>