<svg xmlns="http://www.w3.org/2000/svg" xmlns:xlink="http://www.w3.org/1999/xlink" version="1.1" id="Layer_1" x="0px" y="0px" width="100px" height="100px" viewBox="0 0 100 100" enable-background="new 0 0 100 100" xml:space="preserve">
<path stroke="#000000" stroke-miterlimit="10" d="M95.779,38.513l-23.781,0.007l2.842-22.325H25.357l2.676,22.338L3.834,38.542  c-2.738,0-3.736,1.28-3.852,2.75H99.996C99.805,39.854,98.715,38.513,95.779,38.513z M27.172,17.806h45.84l-2.638,20.715  l-40.721,0.013L27.172,17.806z"/>
<path d="M-0.018,43.515c0.022,0.272,0.063,0.542,0.129,0.81l7.3,25.907c0.695,2.857,5.462,4.478,8.403,4.478h3.76h5.547l-3.164,9.72  h56.087l-3.161-9.72h6.661h3.698c5.369,0,6.841-2.312,7.935-5.549l6.74-24.835c0.06-0.261,0.091-0.533,0.101-0.81L-0.018,43.515  L-0.018,43.515z M26.795,80.67l1.941-5.961l0,0l2.613-8.023h37.356l1.539,4.721l-0.861-2.167H69.38l0.871,2.188l3.007,9.242H26.795z  "/>
</svg>