<svg xmlns="http://www.w3.org/2000/svg" xmlns:xlink="http://www.w3.org/1999/xlink" version="1.1" id="Layer_1" x="0px" y="0px" width="100px" height="74.353px" viewBox="0 0 100 74.353" enable-background="new 0 0 100 74.353" xml:space="preserve">
<path d="M98.467,64.234C92.979,67.75,73.362,70.353,50,70.353c-23.363,0-42.979-2.603-48.467-6.119c-0.999-0.64-1.533-1.31-1.533-2  v4c0,4.484,22.386,8.119,50,8.119c27.613,0,50-3.635,50-8.119v-4C100,62.924,99.466,63.594,98.467,64.234z"/>
<path d="M87,55.774V9.616h-0.01C86.991,9.595,87,9.576,87,9.555V6.642c0,0.502-0.68,0.991-1.407,1.457  c-0.842,0.54-2.15,1.049-3.845,1.518c-6.35,1.758-18.169,2.939-31.603,2.939S24.757,11.374,18.35,9.616  c-1.709-0.469-3.028-0.978-3.87-1.518C13.753,7.632,13,7.144,13,6.642v2.914c0,0.021,0.008,0.04,0.01,0.061H13v46.158  c-8.077,1.441-13,3.357-13,5.46c0,4.484,22.386,8.119,50,8.119c27.613,0,50-3.635,50-8.119C100,59.131,95.076,57.215,87,55.774z"/>
<path d="M50,0C29.887,0,13.582,2.647,13.582,5.913c0,1.402,3.01,2.689,8.029,3.703c6.675,1.348,16.909,2.211,28.39,2.211  c11.48,0,21.714-0.863,28.39-2.211c5.02-1.014,8.029-2.301,8.029-3.703C86.419,2.647,70.112,0,50,0z"/>
</svg>