<svg xmlns="http://www.w3.org/2000/svg" xmlns:xlink="http://www.w3.org/1999/xlink" version="1.1" id="Layer_1" x="0px" y="0px" width="100px" height="100px" viewBox="0 0 100 100" enable-background="new 0 0 100 100" xml:space="preserve">
<path d="M59.689,6.477C39.092,11.968,26.01,17.922,26.01,17.922v14.627v3.575v41.611c-3.035-1.045-6.717-1.205-10.456-0.232  c-8.087,2.105-13.37,8.702-11.799,14.735s9.399,9.218,17.486,7.113c6.853-1.784,11.69-6.793,12.052-11.952h0.009v-0.188  c0.015-0.309,0.018-0.616,0-0.923V33.565c6.439-2.085,16.557-4.968,27.963-6.764c12.198-1.92,21.861-2.39,27.964-2.435v44.828  c-3.037-1.052-6.726-1.213-10.471-0.239c-8.087,2.105-13.37,8.703-11.8,14.735c1.57,6.034,9.399,9.219,17.486,7.113  c7.291-1.897,12.301-7.448,12.066-12.943h0.01V24.547v-1.539V-0.262C96.521-0.262,78.979,1.334,59.689,6.477z M33.397,28.832  l-0.095-6.361c0,0,16.407-6.299,28.355-9.208c18.35-4.467,27.571-4.744,27.571-4.744v8.809c0,0-9.409,0.414-27.964,4.261  C46.166,24.718,33.397,28.832,33.397,28.832z"/>
</svg>