<svg xmlns="http://www.w3.org/2000/svg" xmlns:xlink="http://www.w3.org/1999/xlink" version="1.1" id="Layer_1" x="0px" y="0px" width="77.2727272727px" height="100px" viewBox="0 0 612 792" enable-background="new 0 0 612 792" xml:space="preserve">
<g>
	<defs>
		<path id="SVGID_1_" d="M311.209,351.131c0,0,1.074,0.767,2.301,0.767c1.074,0,2.148-0.767,2.148-0.767s-0.314-0.358-0.797-0.688    c0.02,0.073,0.029,0.149,0.029,0.228c0,0.613-0.613,1.074-1.227,1.074c-0.614,0-1.228-0.46-1.228-1.074    c0-0.25,0.103-0.475,0.265-0.653C311.815,350.322,311.209,351.131,311.209,351.131z M317.345,402.362h-4.908    c0,0.103-0.009,0.205,0.099,0.763h4.958C317.354,402.567,317.345,402.465,317.345,402.362z M317.982,397.812h-6.17    c0.084,0.097,0.162,0.455,0.231,0.562h5.7C317.815,398.268,317.896,397.909,317.982,397.812z M331.549,403    c-0.172,1.623-0.357,3.238-0.553,4.271c-1.073,5.676-2.301,13.805-2.301,13.805s-1.928-3.75-2.562-6.325    c-0.307,1.942-0.504,3.257-0.504,3.257s-2.298-4.466-2.701-6.996l-2.055,6.996c0,0-0.613,3.375,0,6.289    c2.301,9.971,5.828,19.48,5.828,19.48s-5.675,1.994-11.35,1.994c-5.676,0-11.352-1.994-11.352-1.994s3.682-9.664,5.829-19.48    c0.767-3.067,0-6.289,0-6.289l-1.958-6.665c-0.213,0.942-0.344,1.676-0.344,2.063c0,2.301-2.76,7.67-2.76,7.67    s-0.421-2.793-0.987-6.247c-0.718,1.722-1.468,3.179-1.468,3.179s-1.227-8.129-2.3-13.805c-0.091-0.51-0.193-1.02-0.302-1.203    h7.536c-0.016-0.433-0.025-0.535-0.025-0.638h-13.498v-3.987h13.891c0.069-0.107,0.147-0.466,0.231-0.562h-9.175    c-0.571-2.629-1.1-5.353-1.267-9.101c0-0.306,0.014-0.767,0.037-1.338c-0.605-2.542-0.958-5.557-0.958-8.786    c0-9.05,2.761-16.412,6.136-16.412c1.009,0,1.963,0.658,2.805,1.823c0.546-0.414,1.116-0.795,1.709-1.139    c0.634-0.529,1.578-1.374,2.235-2.218c0.502-0.88,0.181-1.967,0.049-2.33c-0.359-0.349-0.688-0.73-0.979-1.14    c-0.434,0.096-1.035,0.157-1.832,0.096c-1.381-0.153-3.988-1.074-4.602-1.074c-1.688,0-3.682,0.767-3.682,0.767    s0.767-2.761,4.295-3.221c2.036-0.354,3.459-0.81,4.299-1.133c-0.002-0.082-0.004-0.165-0.004-0.247    c0-4.602,3.681-8.283,8.283-8.283s8.283,3.682,8.283,8.283c0,0.209-0.008,0.417-0.022,0.622l0.022-0.008    c0,0-0.012,0.043-0.031,0.123c-0.072,0.835-0.268,1.633-0.565,2.376c-0.211,0.964-0.413,2.004-0.478,2.716    c-0.153,3.068,1.074,4.602,1.074,4.602l-0.033,0.001c0.637,0.362,1.248,0.766,1.829,1.208c0.843-1.165,1.797-1.823,2.806-1.823    c3.375,0,6.136,7.362,6.136,16.412c0,4.638-0.726,8.833-1.887,11.82c-0.126,2.537-0.271,4.935-0.435,7.405h-9.668    c0.088,0.097,0.168,0.455,0.239,0.562h15.431v3.987h-15.031c0,0.103-0.01,0.205-0.025,0.638H331.549z"/>
	</defs>
	<clipPath id="SVGID_2_">
		<use xlink:href="#SVGID_1_" overflow="visible"/>
	</clipPath>
	
		<rect x="292.189" y="342.285" clip-path="url(#SVGID_2_)" fill-rule="evenodd" clip-rule="evenodd" fill="#000000" width="47.243" height="104.764"/>
</g>
</svg>