<svg xmlns="http://www.w3.org/2000/svg" xmlns:xlink="http://www.w3.org/1999/xlink" version="1.1" id="Layer_1" x="0px" y="0px" width="100px" height="52.792px" viewBox="0 0 100 52.792" enable-background="new 0 0 100 52.792" xml:space="preserve">
<g>
	<g id="XMLID_1_">
		<g>
			<path fill="#000000" d="M9.22,15.981v-4.62c0.73,0.2,1.26,0.41,1.57,0.63c0.53,0.38,0.8,0.94,0.8,1.67c0,0.47-0.1,0.87-0.29,1.23     C10.91,15.571,10.22,15.941,9.22,15.981z"/>
			<path fill="#000000" d="M8.39,11.151v4.79c-1-0.08-1.67-0.45-2.04-1.12c-0.21-0.37-0.33-0.95-0.38-1.75H4.41     c0,1,0.17,1.8,0.5,2.4c0.61,1.09,1.77,1.69,3.48,1.81v1.7h0.83v-1.7c1.06-0.12,1.87-0.36,2.44-0.72     c1.01-0.66,1.52-1.77,1.52-3.33c0-1.08-0.4-1.89-1.19-2.44c-0.49-0.33-1.41-0.69-2.77-1.07v-4.28c0.81,0.03,1.4,0.34,1.77,0.93     c0.2,0.32,0.32,0.7,0.36,1.15h1.54c-0.03-0.99-0.36-1.79-0.98-2.4c-0.63-0.6-1.52-0.95-2.69-1.03v-1.15H8.39v1.17     c-1.18,0.01-2.1,0.37-2.75,1.09c-0.65,0.71-0.98,1.52-0.98,2.41c0,0.99,0.3,1.77,0.91,2.34C6.18,10.511,7.11,10.911,8.39,11.151z      M0,0.001h100v52.79H0V0.001z M66.19,26.401c0-10.78-7.25-19.51-16.19-19.51c-8.94,0-16.19,8.73-16.19,19.51     c0,10.77,7.25,19.5,16.19,19.5C58.94,45.901,66.19,37.171,66.19,26.401z"/>
			<path fill="#000000" d="M8.39,5.421v4.13c-0.66-0.13-1.18-0.36-1.57-0.69c-0.38-0.32-0.58-0.78-0.58-1.36     c0-0.48,0.17-0.94,0.49-1.38C7.06,5.681,7.61,5.451,8.39,5.421z"/>
		</g>
		<g>
		</g>
	</g>
</g>
<rect x="1.422" y="80" fill="#000000" stroke="#FFFFFF" width="97.397" height="50.047"/>
</svg>