<svg xmlns="http://www.w3.org/2000/svg" xmlns:xlink="http://www.w3.org/1999/xlink" version="1.1" id="Layer_1" x="0px" y="0px" width="100.0px" height="100px" viewBox="0 0 175 175" enable-background="new 0 0 175 175" xml:space="preserve">
<g>
	<path d="M120.192,37.461c-4.2-1.394-8.024-1.182-10.343,0.898c-0.172,0.149-0.352,0.284-0.52,0.451l-61.37,61.37   c-0.824,0.82-1.379,1.778-1.668,2.722l8.308,0.152L120.192,37.461z"/>
	<path d="M130.518,43.794c-1.289-1.196-2.631-2.241-3.985-3.156l-66.77,66.77l-0.214,8.091l13.736-0.011l-0.123,12.646   c0.551-0.307,1.087-0.694,1.572-1.182l61.372-61.37c0.266-0.265,0.5-0.546,0.715-0.835c0.117-0.111,0.244-0.203,0.355-0.323   C141.155,60.125,138.178,50.889,130.518,43.794z"/>
	<path d="M42.778,117.721l-3.837,17.623l17.36-3.459C53.595,120.87,42.778,117.721,42.778,117.721z"/>
</g>
</svg>