<svg xmlns:dc="http://purl.org/dc/elements/1.1/" xmlns:cc="http://creativecommons.org/ns#" xmlns:rdf="http://www.w3.org/1999/02/22-rdf-syntax-ns#" xmlns:svg="http://www.w3.org/2000/svg" xmlns="http://www.w3.org/2000/svg" xmlns:sodipodi="http://sodipodi.sourceforge.net/DTD/sodipodi-0.dtd" xmlns:inkscape="http://www.inkscape.org/namespaces/inkscape" width="32.142914" height="100" id="svg3905" version="1.1" inkscape:version="0.48.2 r9819" sodipodi:docname="cellphone.svg">
  <defs id="defs3907"/>
  <sodipodi:namedview id="base" pagecolor="#ffffff" bordercolor="#666666" borderopacity="1.0" inkscape:pageopacity="0.0" inkscape:pageshadow="2" inkscape:zoom="1.979899" inkscape:cx="76.337067" inkscape:cy="5.204262" inkscape:document-units="px" inkscape:current-layer="layer1" showgrid="false" fit-margin-top="0" fit-margin-left="0" fit-margin-right="0" fit-margin-bottom="0" inkscape:window-width="1280" inkscape:window-height="975" inkscape:window-x="-4" inkscape:window-y="-4" inkscape:window-maximized="1" inkscape:snap-nodes="true" inkscape:snap-bbox="true">
    <inkscape:grid type="xygrid" id="grid3783" empspacing="5" visible="true" enabled="true" snapvisiblegridlinesonly="true"/>
  </sodipodi:namedview>
  <metadata id="metadata3910">
    <rdf:RDF>
      <cc:Work rdf:about="">
        <dc:format>image/svg+xml</dc:format>
        <dc:type rdf:resource="http://purl.org/dc/dcmitype/StillImage"/>
        <dc:title/>
        <dc:creator>
          <cc:Agent>
            <dc:title>Alex Hartmann</dc:title>
          </cc:Agent>
        </dc:creator>
        <cc:license rdf:resource="http://creativecommons.org/licenses/by-sa/3.0/"/>
        <dc:description>www.alexhartmann.net</dc:description>
      </cc:Work>
      <cc:License rdf:about="http://creativecommons.org/licenses/by-sa/3.0/">
        <cc:permits rdf:resource="http://creativecommons.org/ns#Reproduction"/>
        <cc:permits rdf:resource="http://creativecommons.org/ns#Distribution"/>
        <cc:requires rdf:resource="http://creativecommons.org/ns#Notice"/>
        <cc:requires rdf:resource="http://creativecommons.org/ns#Attribution"/>
        <cc:permits rdf:resource="http://creativecommons.org/ns#DerivativeWorks"/>
        <cc:requires rdf:resource="http://creativecommons.org/ns#ShareAlike"/>
      </cc:License>
    </rdf:RDF>
  </metadata>
  <g inkscape:label="Ebene 1" inkscape:groupmode="layer" id="layer1" transform="translate(-72.344088,-92.107244)">
    <path style="fill:#000000;fill-opacity:1;stroke:none" d="m 99.1299,92.107244 c -1.056465,0.007 -1.792251,0.7294 -1.785715,1.78572 l 0.0064,10.435596 c -1.064643,-0.70098 -2.268858,-1.16307 -3.577858,-1.14989 l -10.714287,0 c -7.015429,0.0713 -10.797466,13.40624 -10.712966,17.31781 l 1.449179,67.34021 c 0.05161,2.39511 1.937143,4.28532 4.332965,4.27047 l 21.72736,0 c 2.395822,-0.0147 3.465282,-2.03786 3.489142,-4.43343 l 1.1425,-67.423 c 0.0154,-1.52375 -0.43443,-4.19961 -1.36007,-6.98236 l -0.0681,-19.375406 c -0.007,-1.05647 -0.71428,-1.78572 -1.78571,-1.78572 -0.69822,1e-5 -1.444644,1e-5 -2.142858,0 z m -12.613859,21.221906 0.243035,-0.001 c 0.09964,-7.2e-4 0.182536,0.0873 0.183179,0.19507 l 0.02929,4.69302 c 0,0.10774 -0.08079,0.19671 -0.18075,0.19733 l -0.243,10e-4 c -0.09968,7.1e-4 -0.1825,-0.0873 -0.183215,-0.19508 l -0.02929,-4.69302 c 0,-0.10774 0.08079,-0.19671 0.18075,-0.19732 z m 1.6765,-0.0104 0.247607,-10e-4 c 0.0995,-7.1e-4 0.177929,0.0874 0.178607,0.1951 l 0.02929,4.69302 c 0,0.10774 -0.07618,0.19668 -0.176143,0.1973 l -0.247607,10e-4 c -0.09996,7.2e-4 -0.182679,-0.0873 -0.183393,-0.19507 l -0.02929,-4.69302 c 0,-0.10774 0.08096,-0.19671 0.180929,-0.19733 l -3.6e-5,0 z m 1.713857,-0.0106 0.247465,-0.001 c 0.100071,-7.2e-4 0.178071,0.0874 0.178714,0.1951 l 0.02929,4.69302 c 0,0.10774 -0.07622,0.19668 -0.176322,0.1973 l -0.247464,10e-4 c -0.100107,7.2e-4 -0.182714,-0.0873 -0.183393,-0.19508 l -0.02929,-4.69302 c 0,-0.10773 0.08086,-0.1967 0.180965,-0.19732 z m -10.864286,10.96225 18.660216,-0.11561 c 1.094357,-0.007 1.980715,0.8685 1.987536,1.96294 l 0.0725,11.7164 c 0.0071,1.09443 -0.868679,1.98063 -1.963107,1.98741 l -18.660181,0.11561 c -1.094393,0.007 -1.980786,-0.86851 -1.987536,-1.96294 L 77.079,126.25781 c -0.0071,-1.09443 0.868715,-1.98063 1.963108,-1.98741 z m -1.728108,21.08123 c 0.02857,-1.8e-4 0.05725,-0.002 0.08879,-7.2e-4 1.589786,0.20534 1.968393,0.28907 2.945036,0.47669 0.928786,0.1785 2.768393,0.61795 2.768393,0.61795 0.723465,0.16931 0.222143,1.36178 -0.286071,2.05653 -0.509215,0.69459 -0.936215,1.1176 -1.769393,1.61277 -0.833465,0.49516 -1.687715,0.17079 -2.512965,-0.85311 -0.825214,-1.02376 -1.030643,-1.44554 -1.287036,-1.96728 -0.248357,-0.5055 -0.828607,-1.9066 0.05325,-1.943 l 0,1.8e-4 z m 22.662075,-0.14041 c 1.009181,-0.0681 0.416141,1.41677 0.166251,1.94165 -0.249751,0.52487 -0.450037,0.94917 -1.262716,1.98307 -0.812036,1.03405 -1.667572,1.36901 -2.506822,0.8842 -0.839429,-0.4848 -1.267179,-0.90251 -1.784429,-1.59075 -0.517285,-0.68839 -1.037643,-1.87453 -0.316214,-2.05279 0,0 1.8385,-0.46224 2.765143,-0.65224 0.974179,-0.1997 1.351858,-0.28812 2.938787,-0.51314 z m -13.190181,1.8515 3.810501,-0.0236 c 1.094428,-0.007 1.980785,0.87329 1.987571,1.96772 l 0.02964,4.7631 c 0.0071,1.09458 -0.868643,1.98078 -1.963072,1.98756 l -3.8105,0.0236 c -1.094429,0.007 -1.980786,-0.86866 -1.987572,-1.96309 l -0.02964,-4.7631 c -0.0071,-1.09442 0.868606,-1.98541 1.963035,-1.99219 z m 11.01268,6.22214 c 0.06232,-3.6e-4 0.126,-0.002 0.186786,-0.001 1.07025,0.0221 1.896143,0.44298 2.075996,1.15469 0.26165,1.03501 -0.946532,2.29523 -2.700461,2.81866 -1.753143,0.52328 -3.386607,0.1096 -3.648143,-0.92542 -0.262071,-1.03517 0.9465,-2.30002 2.700322,-2.8233 0.479571,-0.14314 0.94925,-0.21434 1.3855,-0.22347 l 0,-7e-5 z m -18.421466,0.18422 c 0.486285,-0.0165 1.024964,0.0483 1.574964,0.20498 1.760179,0.50166 2.984036,1.75144 2.735215,2.78977 -0.248786,1.03818 -1.876286,1.47206 -3.636501,0.9704 -1.760179,-0.50151 -2.984,-1.75128 -2.73525,-2.78961 0.171071,-0.71373 0.991821,-1.14037 2.061572,-1.17554 z m 9.359108,6.88617 c 1.918071,-0.0119 3.479786,0.87686 3.486679,1.98637 0.0071,1.10953 -1.543679,2.02233 -3.461822,2.03421 -1.918072,0.0119 -3.475215,-0.88166 -3.482072,-1.99118 -0.0071,-1.10952 1.539071,-2.01752 3.457215,-2.0294 z m -9.869716,0.40202 c 1.767751,-0.011 3.203822,0.81161 3.210144,1.83401 0.0075,1.02255 -1.419465,1.85807 -3.187215,1.86902 -1.767607,0.011 -3.208465,-0.8068 -3.214786,-1.82935 -0.0075,-1.0224 1.424179,-1.86273 3.191857,-1.87368 z m 19.477324,-0.12067 c 1.767682,-0.011 3.203892,0.81161 3.210252,1.83401 0.007,1.02255 -1.41964,1.85807 -3.187252,1.86902 -1.767679,0.011 -3.208643,-0.8068 -3.214965,-1.82936 -0.0071,-1.0224 1.424358,-1.86272 3.191965,-1.87367 z m -9.570466,5.71452 c 1.918108,-0.0122 3.479822,0.87689 3.48668,1.98646 0.0071,1.10954 -1.543751,2.01772 -3.461787,2.02957 -1.918107,0.0122 -3.47525,-0.877 -3.482107,-1.98653 -0.0071,-1.10957 1.539071,-2.01761 3.457214,-2.0295 z m -9.869786,0.39739 c 1.767821,-0.0111 3.203857,0.81154 3.210214,1.83411 0.0071,1.02239 -1.419464,1.85803 -3.187286,1.86903 -1.767571,0.0114 -3.208429,-0.80696 -3.214786,-1.82939 -0.0068,-1.02254 1.424286,-1.86279 3.191858,-1.87375 z m 19.477395,-0.12064 c 1.767609,-0.0114 3.203889,0.8115 3.210219,1.83407 0.007,1.02239 -1.41965,1.85811 -3.18729,1.869 -1.767608,0.0114 -3.208572,-0.80697 -3.214929,-1.82936 -0.0071,-1.02253 1.424428,-1.86275 3.192,-1.87371 z m -9.571359,5.57907 c 1.918108,-0.0121 3.479858,0.877 3.486715,1.98654 0.0071,1.10935 -1.543714,2.01753 -3.461822,2.02942 -1.918071,0.0122 -3.475214,-0.87703 -3.482072,-1.98642 -0.0071,-1.10954 1.539108,-2.01765 3.457179,-2.02954 z m -9.869679,0.402 c 1.76775,-0.0114 3.203786,0.807 3.210143,1.82939 0.0071,1.02257 -1.419464,1.86286 -3.187179,1.87379 -1.767679,0.0114 -3.208536,-0.81157 -3.214893,-1.83407 -0.0071,-1.02243 1.424286,-1.85815 3.191929,-1.86911 z m 19.477359,-0.12068 c 1.767608,-0.0111 3.203858,0.807 3.210178,1.82939 0.007,1.02258 -1.41961,1.86286 -3.187249,1.87383 -1.767607,0.0111 -3.208608,-0.81158 -3.214965,-1.83415 -0.0071,-1.02239 1.424429,-1.85807 3.192036,-1.86907 z m -9.570965,5.63986 c 1.918072,-0.0121 3.479857,0.88164 3.486715,1.99118 0.0071,1.1095 -1.543715,2.01753 -3.461858,2.02943 -1.918072,0.0121 -3.475179,-0.8769 -3.482036,-1.9864 -0.0071,-1.10953 1.539071,-2.02232 3.457179,-2.03421 z m -9.869715,0.40203 c 1.76775,-0.0111 3.203821,0.81165 3.210143,1.83411 0.0075,1.02247 -1.419465,1.85811 -3.187215,1.86911 -1.767607,0.0111 -3.208465,-0.80696 -3.214786,-1.82939 -0.0071,-1.02254 1.424214,-1.8629 3.191858,-1.87383 z m 19.477323,-0.12071 c 1.767675,-0.0111 3.203895,0.81168 3.210255,1.83418 0.007,1.02246 -1.41965,1.85811 -3.187255,1.86907 -1.767679,0.0114 -3.208643,-0.80696 -3.214964,-1.82943 -0.0071,-1.0225 1.424393,-1.86282 3.191964,-1.87382 z" id="path7533" inkscape:export-filename="/Users/alex/Dropbox/arcomem files/Arcomem Video/nokia.png" inkscape:export-xdpi="150" inkscape:export-ydpi="150" inkscape:connector-curvature="0" sodipodi:nodetypes="ccccccccccccccccccccccccccccccccccccccccccccccscccccccsssssscccsscccsccccssccccccssssscccssssccsssscsssscsssscsssscsssscsssscsssscsssscsssscsssscsssscsssccccc"/>
  </g>
</svg>