<svg xmlns:dc="http://purl.org/dc/elements/1.1/" xmlns:cc="http://creativecommons.org/ns#" xmlns:rdf="http://www.w3.org/1999/02/22-rdf-syntax-ns#" xmlns:svg="http://www.w3.org/2000/svg" xmlns="http://www.w3.org/2000/svg" xmlns:sodipodi="http://sodipodi.sourceforge.net/DTD/sodipodi-0.dtd" xmlns:inkscape="http://www.inkscape.org/namespaces/inkscape" width="41.850632" height="100.00001" id="svg3905" version="1.1" inkscape:version="0.48.2 r9819" sodipodi:docname="cellphone2.svg">
  <defs id="defs3907"/>
  <sodipodi:namedview id="base" pagecolor="#ffffff" bordercolor="#666666" borderopacity="1.0" inkscape:pageopacity="0.0" inkscape:pageshadow="2" inkscape:zoom="1.979899" inkscape:cx="89.937477" inkscape:cy="3.5080024" inkscape:document-units="px" inkscape:current-layer="layer1" showgrid="false" fit-margin-top="0" fit-margin-left="0" fit-margin-right="0" fit-margin-bottom="0" inkscape:window-width="1280" inkscape:window-height="975" inkscape:window-x="-4" inkscape:window-y="-4" inkscape:window-maximized="1" inkscape:snap-nodes="true" inkscape:snap-bbox="true">
    <inkscape:grid type="xygrid" id="grid3783" empspacing="5" visible="true" enabled="true" snapvisiblegridlinesonly="true"/>
  </sodipodi:namedview>
  <metadata id="metadata3910">
    <rdf:RDF>
      <cc:Work rdf:about="">
        <dc:format>image/svg+xml</dc:format>
        <dc:type rdf:resource="http://purl.org/dc/dcmitype/StillImage"/>
        <dc:title/>
        <dc:creator>
          <cc:Agent>
            <dc:title>Alex Hartmann</dc:title>
          </cc:Agent>
        </dc:creator>
        <cc:license rdf:resource="http://creativecommons.org/licenses/by-sa/3.0/"/>
        <dc:description>www.alexhartmann.net</dc:description>
      </cc:Work>
      <cc:License rdf:about="http://creativecommons.org/licenses/by-sa/3.0/">
        <cc:permits rdf:resource="http://creativecommons.org/ns#Reproduction"/>
        <cc:permits rdf:resource="http://creativecommons.org/ns#Distribution"/>
        <cc:requires rdf:resource="http://creativecommons.org/ns#Notice"/>
        <cc:requires rdf:resource="http://creativecommons.org/ns#Attribution"/>
        <cc:permits rdf:resource="http://creativecommons.org/ns#DerivativeWorks"/>
        <cc:requires rdf:resource="http://creativecommons.org/ns#ShareAlike"/>
      </cc:License>
    </rdf:RDF>
  </metadata>
  <g inkscape:label="Ebene 1" inkscape:groupmode="layer" id="layer1" transform="translate(-132.0993,-135.70113)">
    <path style="fill:#000000;fill-opacity:1;stroke:none" d="m 133.98606,147.87731 c -1.04472,0 -1.88676,0.84203 -1.88676,1.88676 l 0,84.0503 c 0,1.04472 0.84204,1.88676 1.88676,1.88676 l 38.07711,0 c 1.04473,0 1.88676,-0.84204 1.88676,-1.88676 l 0,-84.0503 c 0,-1.04473 -0.84203,-1.88676 -1.88676,-1.88676 l -38.07711,0 z m 4.00402,13.97003 30.06907,0 c 0.50137,0 0.90485,0.4035 0.90485,0.90486 l 0,20.18597 c 0,0.50135 -0.40348,0.90505 -0.90485,0.90505 l -30.06907,0 c -0.50136,0 -0.90485,-0.4037 -0.90485,-0.90505 l 0,-20.18597 c 0,-0.50136 0.40349,-0.90486 0.90485,-0.90486 z m 13.31349,24.12508 3.18771,0 c 0.47089,0 0.85206,0.38118 0.85169,0.85168 l 0,3.60772 3.60793,0 c 0.47033,0 0.85169,0.38136 0.85169,0.85168 l 0,3.18794 c 0,0.47012 -0.38136,0.85168 -0.85169,0.85168 l -3.60793,0 0,3.60771 c 0,0.47051 -0.3808,0.85187 -0.85169,0.85168 l -3.18771,0 c -0.47033,0 -0.85169,-0.38136 -0.85169,-0.85168 l 0,-3.60771 -3.60793,0 c -0.47028,0 -0.85169,-0.38137 -0.85169,-0.85168 l 0,-3.18794 c 0,-0.47032 0.38141,-0.85168 0.85169,-0.85168 l 3.60793,0 0,-3.60772 c 0,-0.4705 0.38136,-0.85168 0.85169,-0.85168 z m -11.95913,3.46577 3.00456,0 c 1.11665,0 2.01675,0.90032 2.01675,2.01678 l 0,2.91597 c 0,1.11646 -0.9001,2.01678 -2.01675,2.01678 l -3.00456,0 c -1.11647,0 -2.01093,-0.90032 -2.01093,-2.01678 l 0,-2.91597 c 0,-1.11646 0.89446,-2.01678 2.01093,-2.01678 z m 24.26119,0 2.99847,0 c 1.11664,0 2.01697,0.90032 2.01697,2.01678 l 0,2.91597 c 0,1.11646 -0.90014,2.01678 -2.01697,2.01678 l -2.99847,0 c -1.11665,0 -2.01661,-0.90032 -2.01698,-2.01678 l 0,-2.91597 c 0,-1.11646 0.90033,-2.01678 2.01698,-2.01678 z m -3.87404,12.55643 8.54632,0 c 0.2438,0 0.44363,0.1938 0.44363,0.43757 l 0,4.45376 c 0,0.24376 -0.19983,0.43753 -0.44363,0.43753 l -8.54632,0 c -0.24375,0 -0.43758,-0.19377 -0.43758,-0.43753 l 0,-4.45376 c 0,-0.24377 0.19383,-0.43757 0.43758,-0.43757 z m -22.01348,0.0473 8.54632,0 c 0.2438,0 0.44363,0.1938 0.44363,0.43757 l 0,4.45375 c 0,0.24376 -0.19983,0.43758 -0.44363,0.43758 l -8.54632,0 c -0.24431,0 -0.43777,-0.19382 -0.43777,-0.43758 l 0,-4.45375 c 0,-0.24377 0.19364,-0.43757 0.43777,-0.43757 z m 10.97722,0 8.54632,0 c 0.24376,0 0.44363,0.1938 0.44363,0.43757 l 0,4.45375 c 0,0.24376 -0.19987,0.43758 -0.44363,0.43758 l -8.54632,0 c -0.24435,0 -0.43776,-0.19382 -0.43776,-0.43758 l 0,-4.45375 c 0,-0.24377 0.19359,-0.43757 0.43776,-0.43757 z m 11.03626,7.1564 8.54632,0 c 0.2438,0 0.44363,0.194 0.44363,0.43776 l 0,4.45356 c 0,0.24376 -0.19983,0.43777 -0.44363,0.43777 l -8.54632,0 c -0.24375,0 -0.43758,-0.19401 -0.43758,-0.43777 l 0,-4.45356 c 0,-0.24376 0.19383,-0.43776 0.43758,-0.43776 z m -22.01348,0.0473 8.54632,0 c 0.2438,0 0.44363,0.19397 0.44363,0.43777 l 0,4.45351 c 0,0.24376 -0.19983,0.43777 -0.44363,0.43777 l -8.54632,0 c -0.24431,0 -0.43777,-0.19401 -0.43777,-0.43777 l 0,-4.45351 c 0,-0.2438 0.19364,-0.43777 0.43777,-0.43777 z m 10.97722,0 8.54632,0 c 0.24376,0 0.44363,0.19397 0.44363,0.43777 l 0,4.45351 c 0,0.24376 -0.19987,0.43777 -0.44363,0.43777 l -8.54632,0 c -0.24435,0 -0.43776,-0.19401 -0.43776,-0.43777 l 0,-4.45351 c 0,-0.2438 0.19359,-0.43777 0.43776,-0.43777 z m 11.03626,7.11511 8.54632,0 c 0.2438,0 0.44363,0.19382 0.44363,0.43776 l 0,4.45352 c 0,0.2438 -0.19983,0.43758 -0.44363,0.43758 l -8.54632,0 c -0.24375,0 -0.43758,-0.19378 -0.43758,-0.43758 l 0,-4.45352 c 0,-0.24394 0.19383,-0.43776 0.43758,-0.43776 z m -22.01348,0.0473 8.54632,0 c 0.2438,0 0.44363,0.19382 0.44363,0.43776 l 0,4.45357 c 0,0.24375 -0.19983,0.43757 -0.44363,0.43757 l -8.54632,0 c -0.24431,0 -0.43777,-0.19382 -0.43777,-0.43757 l 0,-4.45357 c 0,-0.24394 0.19364,-0.43776 0.43777,-0.43776 z m 10.97722,0 8.54632,0 c 0.24376,0 0.44363,0.19382 0.44363,0.43776 l 0,4.45357 c 0,0.24375 -0.19987,0.43757 -0.44363,0.43757 l -8.54632,0 c -0.24435,0 -0.43776,-0.19382 -0.43776,-0.43757 l 0,-4.45357 c 0,-0.24394 0.19359,-0.43776 0.43776,-0.43776 z m 11.03626,6.93764 8.54632,0 c 0.2438,0 0.44363,0.19982 0.44363,0.44363 l 0,4.44765 c 0,0.24375 -0.19983,0.44363 -0.44363,0.44363 l -8.54632,0 c -0.24375,0 -0.43758,-0.19988 -0.43758,-0.44363 l 0,-4.44765 c 0,-0.24381 0.19383,-0.44363 0.43758,-0.44363 z m -22.01348,0.0473 8.54632,0 c 0.2438,0 0.44363,0.19987 0.44363,0.44363 l 0,4.44765 c 0,0.2438 -0.19983,0.44363 -0.44363,0.44363 l -8.54632,0 c -0.24394,0 -0.43777,-0.19983 -0.43777,-0.44363 l 0,-4.44765 c 0,-0.24376 0.19383,-0.44363 0.43777,-0.44363 z m 10.97722,0 8.54632,0 c 0.24376,0 0.44363,0.19987 0.44363,0.44363 l 0,4.44765 c 0,0.2438 -0.19987,0.44363 -0.44363,0.44363 l -8.54632,0 c -0.24417,0 -0.43776,-0.19983 -0.43776,-0.44363 l 0,-4.44765 c 0,-0.24376 0.19359,-0.44363 0.43776,-0.44363 z" id="rect7495" inkscape:export-filename="/Users/alex/Dropbox/arcomem files/Arcomem Video/erricson.png" inkscape:export-xdpi="150" inkscape:export-ydpi="150" inkscape:connector-curvature="0"/>
    <rect inkscape:export-ydpi="300" inkscape:export-xdpi="300" inkscape:export-filename="H:\VISION Cloud Filme\telco\ericsson.png" style="fill:#000000;fill-opacity:1;stroke:none" id="rect7497" width="7.3754311" height="15.951515" x="134.15839" y="135.70113" ry="3.1160259"/>
  </g>
</svg>