<?xml version="1.0" encoding="utf-8"?>
<!-- Generator: Adobe Illustrator 14.0.0, SVG Export Plug-In . SVG Version: 6.00 Build 43363)  -->
<!DOCTYPE svg PUBLIC "-//W3C//DTD SVG 1.0//EN" "http://www.w3.org/TR/2001/REC-SVG-20010904/DTD/svg10.dtd">
<svg version="1.0" id="Layer_1" xmlns="http://www.w3.org/2000/svg" xmlns:xlink="http://www.w3.org/1999/xlink" x="0px" y="0px"
	 width="59.666px" height="100px" viewBox="0 0 59.666 100" enable-background="new 0 0 59.666 100" xml:space="preserve">
<path d="M29.833,0C26.771,24.956-4.692,46.419,0.598,76.431C2.938,89.704,27.884,97.781,29.833,100
	c1.949-2.219,26.896-10.296,29.235-23.569C64.358,46.419,32.896,24.956,29.833,0z M51.708,75.876
	C50.66,86.819,31.546,94.035,29.833,95.841C28.12,94.035,9.006,86.819,7.958,75.876c-2.07-21.629,10.846-23.847,21.875-47.178
	C40.862,52.029,53.778,54.247,51.708,75.876z"/>
<path d="M29.833,41.769c-5.67,11.55-21.906,18.719-18.625,35.915c1.908,9.996,17.04,15.932,18.625,17.603
	c1.585-1.671,16.717-7.606,18.625-17.603C51.739,60.488,35.503,53.319,29.833,41.769z"/>
</svg>
