<svg xmlns="http://www.w3.org/2000/svg" xmlns:xlink="http://www.w3.org/1999/xlink" version="1.1" id="Layer_1" x="0px" y="0px" width="100px" height="90.2985074627px" viewBox="0 0 134 121" enable-background="new 0 0 134 121" xml:space="preserve">
<g>
	<path fill="none" d="M97.81,102.562c0.28,0,0.508-1.615,0.508-3.588c0-1.977-0.228-3.592-0.508-3.592s-0.505,1.615-0.505,3.592   C97.305,100.949,97.529,102.562,97.81,102.562z"/>
	<path fill="none" d="M115.357,102.562c0.279,0,0.506-1.615,0.506-3.588c0-1.977-0.227-3.592-0.506-3.592s-0.51,1.615-0.51,3.592   C114.848,100.949,115.078,102.562,115.357,102.562z"/>
	<path fill="none" d="M106.583,102.562c0.28,0,0.507-1.615,0.507-3.588c0-1.977-0.227-3.592-0.507-3.592   c-0.279,0-0.507,1.615-0.507,3.592C106.076,100.949,106.304,102.562,106.583,102.562z"/>
	<path fill="none" d="M102.197,102.562c0.279,0,0.507-1.615,0.507-3.588c0-1.977-0.228-3.592-0.507-3.592   c-0.281,0-0.508,1.615-0.508,3.592C101.689,100.949,101.916,102.562,102.197,102.562z"/>
	<path fill="none" d="M119.743,102.562c0.278,0,0.507-1.615,0.507-3.588c0-1.977-0.229-3.592-0.507-3.592   c-0.28,0-0.509,1.615-0.509,3.592C119.234,100.949,119.463,102.562,119.743,102.562z"/>
	<path fill="none" d="M110.971,102.562c0.278,0,0.507-1.615,0.507-3.588c0-1.977-0.229-3.592-0.507-3.592   c-0.279,0-0.51,1.615-0.51,3.592C110.461,100.949,110.691,102.562,110.971,102.562z"/>
	<path fill="none" d="M23.24,115.463c0.28,0,0.508-1.617,0.508-3.594c0-1.974-0.228-3.59-0.508-3.59   c-0.279,0-0.507,1.617-0.507,3.59C22.732,113.846,22.96,115.463,23.24,115.463z"/>
	<path fill="none" d="M27.627,115.463c0.28,0,0.508-1.617,0.508-3.594c0-1.974-0.228-3.59-0.508-3.59   c-0.28,0-0.507,1.617-0.507,3.59C27.12,113.846,27.347,115.463,27.627,115.463z"/>
	<path fill="none" d="M18.854,115.463c0.28,0,0.508-1.617,0.508-3.594c0-1.974-0.228-3.59-0.508-3.59   c-0.28,0-0.508,1.617-0.508,3.59C18.346,113.846,18.574,115.463,18.854,115.463z"/>
	<path fill="none" d="M14.468,115.463c0.281,0,0.508-1.617,0.508-3.594c0-1.974-0.227-3.59-0.508-3.59   c-0.28,0-0.507,1.617-0.507,3.59C13.96,113.846,14.188,115.463,14.468,115.463z"/>
	<path fill="none" d="M62.718,102.562c0.28,0,0.508-1.615,0.508-3.588c0-1.977-0.228-3.592-0.508-3.592   c-0.28,0-0.508,1.615-0.508,3.592C62.21,100.949,62.438,102.562,62.718,102.562z"/>
	<path fill="none" d="M32.014,115.463c0.28,0,0.507-1.617,0.507-3.594c0-1.974-0.228-3.59-0.507-3.59s-0.508,1.617-0.508,3.59   C31.506,113.846,31.734,115.463,32.014,115.463z"/>
	<path fill="none" d="M93.423,102.562c0.28,0,0.509-1.615,0.509-3.588c0-1.977-0.229-3.592-0.509-3.592   c-0.277,0-0.506,1.615-0.506,3.592C92.917,100.949,93.146,102.562,93.423,102.562z"/>
	<path fill="none" d="M67.105,102.562c0.279,0,0.508-1.615,0.508-3.588c0-1.977-0.229-3.592-0.508-3.592   c-0.281,0-0.509,1.615-0.509,3.592C66.597,100.949,66.826,102.562,67.105,102.562z"/>
	<path fill="none" d="M58.333,102.562c0.279,0,0.506-1.615,0.506-3.588c0-1.977-0.227-3.592-0.506-3.592   c-0.28,0-0.508,1.615-0.508,3.592C57.825,100.949,58.053,102.562,58.333,102.562z"/>
	<path fill="none" d="M53.946,102.562c0.279,0,0.507-1.615,0.507-3.588c0-1.977-0.228-3.592-0.507-3.592s-0.507,1.615-0.507,3.592   C53.439,100.949,53.667,102.562,53.946,102.562z"/>
	<path fill="none" d="M71.491,102.562c0.28,0,0.507-1.615,0.507-3.588c0-1.977-0.227-3.592-0.507-3.592s-0.509,1.615-0.509,3.592   C70.982,100.949,71.211,102.562,71.491,102.562z"/>
	<path fill="none" d="M89.039,102.562c0.277,0,0.506-1.615,0.506-3.588c0-1.977-0.229-3.592-0.506-3.592   c-0.281,0-0.51,1.615-0.51,3.592C88.529,100.949,88.758,102.562,89.039,102.562z"/>
	<path fill="none" d="M84.651,102.562c0.277,0,0.507-1.615,0.507-3.588c0-1.977-0.229-3.592-0.507-3.592   c-0.279,0-0.509,1.615-0.509,3.592C84.143,100.949,84.372,102.562,84.651,102.562z"/>
	<path fill="none" d="M80.266,102.562c0.276,0,0.506-1.615,0.506-3.588c0-1.977-0.229-3.592-0.506-3.592   c-0.282,0-0.511,1.615-0.511,3.592C79.755,100.949,79.983,102.562,80.266,102.562z"/>
	<path fill="none" d="M75.879,102.562c0.279,0,0.506-1.615,0.506-3.588c0-1.977-0.227-3.592-0.506-3.592   c-0.281,0-0.51,1.615-0.51,3.592C75.369,100.949,75.598,102.562,75.879,102.562z"/>
	<path fill="none" d="M45.173,115.463c0.28,0,0.508-1.617,0.508-3.594c0-1.974-0.229-3.59-0.508-3.59s-0.507,1.617-0.507,3.59   C44.666,113.846,44.895,115.463,45.173,115.463z"/>
	<path fill="none" d="M102.197,115.463c0.279,0,0.507-1.617,0.507-3.594c0-1.974-0.228-3.59-0.507-3.59   c-0.281,0-0.508,1.617-0.508,3.59C101.689,113.846,101.916,115.463,102.197,115.463z"/>
	<path fill="none" d="M93.423,115.463c0.28,0,0.509-1.617,0.509-3.594c0-1.974-0.229-3.59-0.509-3.59   c-0.277,0-0.506,1.617-0.506,3.59C92.917,113.846,93.146,115.463,93.423,115.463z"/>
	<path fill="none" d="M97.81,115.463c0.28,0,0.508-1.617,0.508-3.594c0-1.974-0.228-3.59-0.508-3.59s-0.505,1.617-0.505,3.59   C97.305,113.846,97.529,115.463,97.81,115.463z"/>
	<path fill="none" d="M89.039,115.463c0.277,0,0.506-1.617,0.506-3.594c0-1.974-0.229-3.59-0.506-3.59   c-0.281,0-0.51,1.617-0.51,3.59C88.529,113.846,88.758,115.463,89.039,115.463z"/>
	<path fill="none" d="M80.266,115.463c0.276,0,0.506-1.617,0.506-3.594c0-1.974-0.229-3.59-0.506-3.59   c-0.282,0-0.511,1.617-0.511,3.59C79.755,113.846,79.983,115.463,80.266,115.463z"/>
	<path fill="none" d="M84.651,115.463c0.277,0,0.507-1.617,0.507-3.594c0-1.974-0.229-3.59-0.507-3.59   c-0.279,0-0.509,1.617-0.509,3.59C84.143,113.846,84.372,115.463,84.651,115.463z"/>
	<path fill="none" d="M106.583,115.463c0.28,0,0.507-1.617,0.507-3.594c0-1.974-0.227-3.59-0.507-3.59   c-0.279,0-0.507,1.617-0.507,3.59C106.076,113.846,106.304,115.463,106.583,115.463z"/>
	<path fill="none" d="M119.743,115.463c0.278,0,0.507-1.617,0.507-3.594c0-1.974-0.229-3.59-0.507-3.59   c-0.28,0-0.509,1.617-0.509,3.59C119.234,113.846,119.463,115.463,119.743,115.463z"/>
	<path fill="none" d="M115.357,115.463c0.279,0,0.506-1.617,0.506-3.594c0-1.974-0.227-3.59-0.506-3.59s-0.51,1.617-0.51,3.59   C114.848,113.846,115.078,115.463,115.357,115.463z"/>
	<path fill="none" d="M110.971,115.463c0.278,0,0.507-1.617,0.507-3.594c0-1.974-0.229-3.59-0.507-3.59   c-0.279,0-0.51,1.617-0.51,3.59C110.461,113.846,110.691,115.463,110.971,115.463z"/>
	<path fill="none" d="M71.491,115.463c0.28,0,0.507-1.617,0.507-3.594c0-1.974-0.227-3.59-0.507-3.59s-0.509,1.617-0.509,3.59   C70.982,113.846,71.211,115.463,71.491,115.463z"/>
	<path fill="none" d="M49.559,115.463c0.28,0,0.508-1.617,0.508-3.594c0-1.974-0.228-3.59-0.508-3.59   c-0.279,0-0.507,1.617-0.507,3.59C49.052,113.846,49.28,115.463,49.559,115.463z"/>
	<path fill="none" d="M49.559,102.562c0.28,0,0.508-1.615,0.508-3.588c0-1.977-0.228-3.592-0.508-3.592   c-0.279,0-0.507,1.615-0.507,3.592C49.052,100.949,49.28,102.562,49.559,102.562z"/>
	<path fill="none" d="M40.786,115.463c0.28,0,0.508-1.617,0.508-3.594c0-1.974-0.228-3.59-0.508-3.59s-0.507,1.617-0.507,3.59   C40.279,113.846,40.506,115.463,40.786,115.463z"/>
	<path fill="none" d="M53.946,115.463c0.279,0,0.507-1.617,0.507-3.594c0-1.974-0.228-3.59-0.507-3.59s-0.507,1.617-0.507,3.59   C53.439,113.846,53.667,115.463,53.946,115.463z"/>
	<path fill="none" d="M75.879,115.463c0.279,0,0.506-1.617,0.506-3.594c0-1.974-0.227-3.59-0.506-3.59   c-0.281,0-0.51,1.617-0.51,3.59C75.369,113.846,75.598,115.463,75.879,115.463z"/>
	<path fill="none" d="M36.399,115.463c0.28,0,0.508-1.617,0.508-3.594c0-1.974-0.228-3.59-0.508-3.59   c-0.28,0-0.508,1.617-0.508,3.59C35.892,113.846,36.12,115.463,36.399,115.463z"/>
	<path fill="none" d="M67.105,115.463c0.279,0,0.508-1.617,0.508-3.594c0-1.974-0.229-3.59-0.508-3.59   c-0.281,0-0.509,1.617-0.509,3.59C66.597,113.846,66.826,115.463,67.105,115.463z"/>
	<path fill="none" d="M58.333,115.463c0.279,0,0.506-1.617,0.506-3.594c0-1.974-0.227-3.59-0.506-3.59   c-0.28,0-0.508,1.617-0.508,3.59C57.825,113.846,58.053,115.463,58.333,115.463z"/>
	<path fill="none" d="M62.718,115.463c0.28,0,0.508-1.617,0.508-3.594c0-1.974-0.228-3.59-0.508-3.59   c-0.28,0-0.508,1.617-0.508,3.59C62.21,113.846,62.438,115.463,62.718,115.463z"/>
	<path fill="none" d="M58.333,81.951c-0.28,0-0.508,1.615-0.508,3.589c0,1.978,0.229,3.593,0.508,3.593   c0.279,0,0.506-1.617,0.506-3.593C58.839,83.566,58.612,81.951,58.333,81.951z"/>
	<path fill="none" d="M62.718,81.951c-0.28,0-0.508,1.615-0.508,3.589c0,1.978,0.228,3.593,0.508,3.593   c0.28,0,0.508-1.617,0.508-3.593C63.226,83.566,62.998,81.951,62.718,81.951z"/>
	<path fill="none" d="M67.105,81.951c-0.281,0-0.509,1.615-0.509,3.589c0,1.978,0.229,3.593,0.509,3.593s0.508-1.617,0.508-3.593   C67.613,83.566,67.385,81.951,67.105,81.951z"/>
	<path fill="none" d="M71.491,81.951c-0.28,0-0.509,1.615-0.509,3.589c0,1.978,0.229,3.593,0.509,3.593s0.507-1.617,0.507-3.593   C71.998,83.566,71.771,81.951,71.491,81.951z"/>
	<path fill="none" d="M53.946,81.951c-0.279,0-0.507,1.615-0.507,3.589c0,1.978,0.228,3.593,0.507,3.593s0.507-1.617,0.507-3.593   C54.453,83.566,54.225,81.951,53.946,81.951z"/>
	<path fill="none" d="M75.879,81.951c-0.281,0-0.51,1.615-0.51,3.589c0,1.978,0.229,3.593,0.51,3.593   c0.279,0,0.506-1.617,0.506-3.593C76.385,83.566,76.158,81.951,75.879,81.951z"/>
	<path fill="none" d="M40.786,81.951c-0.28,0-0.507,1.615-0.507,3.589c0,1.978,0.227,3.593,0.507,3.593s0.508-1.617,0.508-3.593   C41.294,83.566,41.066,81.951,40.786,81.951z"/>
	<path fill="none" d="M36.399,81.951c-0.28,0-0.508,1.615-0.508,3.589c0,1.978,0.228,3.593,0.508,3.593   c0.28,0,0.508-1.617,0.508-3.593C36.908,83.566,36.68,81.951,36.399,81.951z"/>
	<path fill="none" d="M49.559,81.951c-0.279,0-0.507,1.614-0.507,3.59c0,1.979,0.228,3.592,0.507,3.592   c0.28,0,0.508-1.617,0.508-3.592S49.839,81.951,49.559,81.951z"/>
	<path fill="none" d="M80.266,81.951c-0.282,0-0.511,1.615-0.511,3.589c0,1.978,0.229,3.593,0.511,3.593   c0.276,0,0.506-1.617,0.506-3.593C80.771,83.566,80.542,81.951,80.266,81.951z"/>
	<path fill="none" d="M45.173,81.951c-0.279,0-0.507,1.615-0.507,3.589c0,1.978,0.229,3.593,0.507,3.593   c0.28,0,0.508-1.617,0.508-3.593C45.681,83.566,45.452,81.951,45.173,81.951z"/>
	<path fill="none" d="M110.971,81.951c-0.279,0-0.51,1.615-0.51,3.589c0,1.978,0.23,3.593,0.51,3.593   c0.278,0,0.507-1.617,0.507-3.593C111.478,83.566,111.249,81.951,110.971,81.951z"/>
	<path fill="none" d="M115.357,81.951c-0.279,0-0.51,1.615-0.51,3.589c0,1.978,0.23,3.593,0.51,3.593s0.506-1.617,0.506-3.593   C115.863,83.566,115.637,81.951,115.357,81.951z"/>
	<path fill="none" d="M32.014,81.951c-0.28,0-0.508,1.615-0.508,3.589c0,1.978,0.229,3.593,0.508,3.593s0.507-1.617,0.507-3.593   C32.521,83.566,32.294,81.951,32.014,81.951z"/>
	<path fill="none" d="M84.651,81.951c-0.279,0-0.509,1.615-0.509,3.589c0,1.978,0.229,3.593,0.509,3.593   c0.277,0,0.507-1.617,0.507-3.593C85.158,83.566,84.929,81.951,84.651,81.951z"/>
	<path fill="none" d="M106.583,81.951c-0.279,0-0.507,1.615-0.507,3.589c0,1.978,0.228,3.593,0.507,3.593   c0.28,0,0.507-1.617,0.507-3.593C107.09,83.566,106.863,81.951,106.583,81.951z"/>
	<path fill="none" d="M119.743,81.951c-0.28,0-0.509,1.615-0.509,3.589c0,1.978,0.229,3.593,0.509,3.593   c0.278,0,0.507-1.617,0.507-3.593C120.25,83.566,120.021,81.951,119.743,81.951z"/>
	<path fill="none" d="M93.423,81.951c-0.277,0-0.506,1.615-0.506,3.589c0,1.978,0.229,3.593,0.506,3.593   c0.28,0,0.509-1.617,0.509-3.593C93.932,83.566,93.703,81.951,93.423,81.951z"/>
	<path fill="none" d="M45.173,102.562c0.28,0,0.508-1.615,0.508-3.588c0-1.977-0.229-3.592-0.508-3.592s-0.507,1.615-0.507,3.592   C44.666,100.949,44.895,102.562,45.173,102.562z"/>
	<path fill="none" d="M102.197,81.951c-0.281,0-0.508,1.615-0.508,3.589c0,1.978,0.227,3.593,0.508,3.593   c0.279,0,0.507-1.617,0.507-3.593C102.704,83.566,102.477,81.951,102.197,81.951z"/>
	<path fill="none" d="M97.81,81.951c-0.28,0-0.505,1.615-0.505,3.589c0,1.978,0.225,3.593,0.505,3.593s0.508-1.617,0.508-3.593   C98.317,83.566,98.09,81.951,97.81,81.951z"/>
	<path fill="none" d="M89.039,81.951c-0.281,0-0.51,1.615-0.51,3.589c0,1.978,0.229,3.593,0.51,3.593   c0.277,0,0.506-1.617,0.506-3.593C89.545,83.566,89.316,81.951,89.039,81.951z"/>
	<path fill="none" d="M18.854,102.562c0.28,0,0.508-1.615,0.508-3.588c0-1.977-0.228-3.592-0.508-3.592   c-0.28,0-0.508,1.615-0.508,3.592C18.346,100.949,18.574,102.562,18.854,102.562z"/>
	<path fill="none" d="M27.627,81.951c-0.28,0-0.507,1.615-0.507,3.589c0,1.978,0.228,3.593,0.507,3.593   c0.28,0,0.508-1.617,0.508-3.593C28.135,83.566,27.907,81.951,27.627,81.951z"/>
	<path fill="none" d="M27.627,102.562c0.28,0,0.508-1.615,0.508-3.588c0-1.977-0.228-3.592-0.508-3.592   c-0.28,0-0.507,1.615-0.507,3.592C27.12,100.949,27.347,102.562,27.627,102.562z"/>
	<path fill="none" d="M14.468,102.562c0.281,0,0.508-1.615,0.508-3.588c0-1.977-0.227-3.592-0.508-3.592   c-0.28,0-0.507,1.615-0.507,3.592C13.96,100.949,14.188,102.562,14.468,102.562z"/>
	<path fill="none" d="M36.399,102.562c0.28,0,0.508-1.615,0.508-3.588c0-1.977-0.228-3.592-0.508-3.592   c-0.28,0-0.508,1.615-0.508,3.592C35.892,100.949,36.12,102.562,36.399,102.562z"/>
	<path fill="none" d="M40.786,102.562c0.28,0,0.508-1.615,0.508-3.588c0-1.977-0.228-3.592-0.508-3.592s-0.507,1.615-0.507,3.592   C40.279,100.949,40.506,102.562,40.786,102.562z"/>
	<path fill="none" d="M32.014,102.562c0.28,0,0.507-1.615,0.507-3.588c0-1.977-0.228-3.592-0.507-3.592s-0.508,1.615-0.508,3.592   C31.506,100.949,31.734,102.562,32.014,102.562z"/>
	<path fill="none" d="M14.468,81.951c-0.28,0-0.507,1.615-0.507,3.589c0,1.978,0.228,3.593,0.507,3.593   c0.281,0,0.508-1.617,0.508-3.593C14.976,83.566,14.749,81.951,14.468,81.951z"/>
	<path fill="none" d="M23.24,102.562c0.28,0,0.508-1.615,0.508-3.588c0-1.977-0.228-3.592-0.508-3.592   c-0.279,0-0.507,1.615-0.507,3.592C22.732,100.949,22.96,102.562,23.24,102.562z"/>
	<path fill="none" d="M23.24,81.951c-0.279,0-0.507,1.615-0.507,3.589c0,1.978,0.228,3.593,0.507,3.593   c0.28,0,0.508-1.617,0.508-3.593C23.748,83.566,23.52,81.951,23.24,81.951z"/>
	<path fill="none" d="M18.854,81.951c-0.28,0-0.508,1.615-0.508,3.589c0,1.978,0.228,3.593,0.508,3.593   c0.28,0,0.508-1.617,0.508-3.593C19.361,83.566,19.134,81.951,18.854,81.951z"/>
	<path fill="none" d="M113.471,9.467H17.603v56.394h95.868V9.467z M27.851,20.278c0.161,0,0.283,0.05,0.365,0.148   c0.083,0.097,0.125,0.239,0.125,0.425s-0.043,0.328-0.125,0.426c-0.082,0.098-0.204,0.146-0.365,0.146h-0.978l-0.151,2.972   c-0.009,0.211-0.071,0.372-0.184,0.482c-0.113,0.11-0.272,0.165-0.477,0.165c-0.181,0-0.33-0.062-0.444-0.185   c-0.115-0.123-0.173-0.282-0.173-0.478v-0.067l0.173-2.896h-0.94l-0.158,2.971c-0.006,0.211-0.065,0.373-0.182,0.482   c-0.116,0.109-0.275,0.165-0.482,0.165c-0.175,0-0.32-0.065-0.433-0.196c-0.112-0.131-0.169-0.295-0.169-0.496v-0.03l0.143-2.896   h-0.774c-0.161,0-0.283-0.051-0.365-0.152c-0.083-0.101-0.124-0.246-0.124-0.436c0-0.186,0.042-0.325,0.124-0.418   c0.083-0.093,0.204-0.14,0.365-0.14h0.835l0.105-1.723h-0.94c-0.165,0-0.289-0.048-0.369-0.144c-0.08-0.095-0.12-0.239-0.12-0.429   c0-0.186,0.041-0.328,0.124-0.426c0.083-0.097,0.204-0.146,0.364-0.146h1.001l0.173-3.144c0.015-0.21,0.08-0.372,0.192-0.481   c0.113-0.111,0.274-0.166,0.486-0.166c0.175,0,0.319,0.062,0.432,0.181c0.113,0.12,0.169,0.276,0.169,0.467v0.06L24.9,17.409h0.925   l0.173-3.146c0.005-0.21,0.065-0.371,0.181-0.481c0.115-0.111,0.282-0.166,0.498-0.166c0.176,0,0.32,0.061,0.432,0.182   c0.114,0.12,0.17,0.275,0.17,0.467v0.061l-0.174,3.085h0.745c0.161,0,0.283,0.049,0.365,0.147c0.083,0.098,0.125,0.239,0.125,0.425   c0,0.187-0.043,0.328-0.125,0.426c-0.082,0.098-0.204,0.146-0.365,0.146h-0.804l-0.105,1.723H27.851z M38.018,20.287   c-0.05,0.028-0.09,0.049-0.12,0.06l-5.953,2.732c-0.15,0.069-0.28,0.12-0.387,0.151c-0.109,0.029-0.209,0.044-0.305,0.044   c-0.211,0-0.38-0.064-0.505-0.193c-0.126-0.127-0.188-0.299-0.188-0.515c0-0.182,0.053-0.335,0.162-0.463   c0.109-0.127,0.3-0.257,0.577-0.387l4.907-2.323l-4.907-2.326c-0.266-0.13-0.456-0.261-0.568-0.395   c-0.112-0.132-0.17-0.29-0.17-0.472c0-0.209,0.063-0.381,0.188-0.511c0.125-0.131,0.294-0.196,0.505-0.196   c0.08,0,0.171,0.016,0.274,0.044c0.102,0.031,0.249,0.088,0.44,0.173l5.96,2.783l0.06,0.039c0.558,0.254,0.836,0.552,0.836,0.888   C38.823,19.756,38.553,20.044,38.018,20.287z M48.501,27.776h-9.52v-1.415h9.52V27.776z"/>
	<polygon fill="none" points="24.75,20.273 25.675,20.273 25.765,18.551 24.825,18.551  "/>
	<g>
		<path d="M1.941,115.453c0,1.1,0.9,2,2,2h125.119c1.1,0,2-0.9,2-2v-6.85c0-1.1-0.9-2-2-2H3.941c-1.1,0-2,0.9-2,2V115.453z     M128.418,106.969c0.877,0,1.59,0.45,1.59,1.005c0,0.556-0.713,1.007-1.59,1.007c-0.879,0-1.59-0.451-1.59-1.007    C126.828,107.419,127.539,106.969,128.418,106.969z M128.418,114.277c0.877,0,1.59,0.451,1.59,1.008    c0,0.556-0.713,1.007-1.59,1.007c-0.879,0-1.59-0.451-1.59-1.007C126.828,114.729,127.539,114.277,128.418,114.277z     M119.743,108.279c0.278,0,0.507,1.616,0.507,3.59c0,1.977-0.229,3.594-0.507,3.594c-0.28,0-0.509-1.617-0.509-3.594    C119.234,109.896,119.463,108.279,119.743,108.279z M115.357,108.279c0.279,0,0.506,1.616,0.506,3.59    c0,1.977-0.227,3.594-0.506,3.594s-0.51-1.617-0.51-3.594C114.848,109.896,115.078,108.279,115.357,108.279z M110.971,108.279    c0.278,0,0.507,1.616,0.507,3.59c0,1.977-0.229,3.594-0.507,3.594c-0.279,0-0.51-1.617-0.51-3.594    C110.461,109.896,110.691,108.279,110.971,108.279z M106.583,108.279c0.28,0,0.507,1.616,0.507,3.59    c0,1.977-0.227,3.594-0.507,3.594c-0.279,0-0.507-1.617-0.507-3.594C106.076,109.896,106.304,108.279,106.583,108.279z     M102.197,108.279c0.279,0,0.507,1.616,0.507,3.59c0,1.977-0.228,3.594-0.507,3.594c-0.281,0-0.508-1.617-0.508-3.594    C101.689,109.896,101.916,108.279,102.197,108.279z M97.81,108.279c0.28,0,0.508,1.616,0.508,3.59    c0,1.977-0.228,3.594-0.508,3.594s-0.505-1.617-0.505-3.594C97.305,109.896,97.529,108.279,97.81,108.279z M93.423,108.279    c0.28,0,0.509,1.616,0.509,3.59c0,1.977-0.229,3.594-0.509,3.594c-0.277,0-0.506-1.617-0.506-3.594    C92.917,109.896,93.146,108.279,93.423,108.279z M89.039,108.279c0.277,0,0.506,1.616,0.506,3.59c0,1.977-0.229,3.594-0.506,3.594    c-0.281,0-0.51-1.617-0.51-3.594C88.529,109.896,88.758,108.279,89.039,108.279z M84.651,108.279c0.277,0,0.507,1.616,0.507,3.59    c0,1.977-0.229,3.594-0.507,3.594c-0.279,0-0.509-1.617-0.509-3.594C84.143,109.896,84.372,108.279,84.651,108.279z     M80.266,108.279c0.276,0,0.506,1.616,0.506,3.59c0,1.977-0.229,3.594-0.506,3.594c-0.282,0-0.511-1.617-0.511-3.594    C79.755,109.896,79.983,108.279,80.266,108.279z M75.879,108.279c0.279,0,0.506,1.616,0.506,3.59c0,1.977-0.227,3.594-0.506,3.594    c-0.281,0-0.51-1.617-0.51-3.594C75.369,109.896,75.598,108.279,75.879,108.279z M71.491,108.279c0.28,0,0.507,1.616,0.507,3.59    c0,1.977-0.227,3.594-0.507,3.594s-0.509-1.617-0.509-3.594C70.982,109.896,71.211,108.279,71.491,108.279z M67.105,108.279    c0.279,0,0.508,1.616,0.508,3.59c0,1.977-0.229,3.594-0.508,3.594s-0.509-1.617-0.509-3.594    C66.597,109.896,66.824,108.279,67.105,108.279z M62.718,108.279c0.28,0,0.508,1.616,0.508,3.59c0,1.977-0.228,3.594-0.508,3.594    c-0.28,0-0.508-1.617-0.508-3.594C62.21,109.896,62.438,108.279,62.718,108.279z M58.333,108.279c0.279,0,0.506,1.616,0.506,3.59    c0,1.977-0.227,3.594-0.506,3.594c-0.28,0-0.508-1.617-0.508-3.594C57.825,109.896,58.053,108.279,58.333,108.279z     M53.946,108.279c0.279,0,0.507,1.616,0.507,3.59c0,1.977-0.228,3.594-0.507,3.594s-0.507-1.617-0.507-3.594    C53.439,109.896,53.667,108.279,53.946,108.279z M49.559,108.279c0.28,0,0.508,1.616,0.508,3.59c0,1.977-0.228,3.594-0.508,3.594    c-0.279,0-0.507-1.617-0.507-3.594C49.052,109.896,49.28,108.279,49.559,108.279z M45.173,108.279c0.279,0,0.508,1.616,0.508,3.59    c0,1.977-0.228,3.594-0.508,3.594c-0.279,0-0.507-1.617-0.507-3.594C44.666,109.896,44.895,108.279,45.173,108.279z     M40.786,108.279c0.28,0,0.508,1.616,0.508,3.59c0,1.977-0.228,3.594-0.508,3.594s-0.507-1.617-0.507-3.594    C40.279,109.896,40.506,108.279,40.786,108.279z M36.399,108.279c0.28,0,0.508,1.616,0.508,3.59c0,1.977-0.228,3.594-0.508,3.594    c-0.28,0-0.508-1.617-0.508-3.594C35.892,109.896,36.12,108.279,36.399,108.279z M32.014,108.279c0.28,0,0.507,1.616,0.507,3.59    c0,1.977-0.228,3.594-0.507,3.594s-0.508-1.617-0.508-3.594C31.506,109.896,31.734,108.279,32.014,108.279z M27.627,108.279    c0.28,0,0.508,1.616,0.508,3.59c0,1.977-0.228,3.594-0.508,3.594c-0.28,0-0.507-1.617-0.507-3.594    C27.12,109.896,27.347,108.279,27.627,108.279z M23.24,108.279c0.28,0,0.508,1.616,0.508,3.59c0,1.977-0.228,3.594-0.508,3.594    c-0.279,0-0.507-1.617-0.507-3.594C22.732,109.896,22.96,108.279,23.24,108.279z M18.854,108.279c0.28,0,0.508,1.616,0.508,3.59    c0,1.977-0.228,3.594-0.508,3.594c-0.28,0-0.508-1.617-0.508-3.594C18.346,109.896,18.574,108.279,18.854,108.279z     M14.468,108.279c0.281,0,0.508,1.616,0.508,3.59c0,1.977-0.227,3.594-0.508,3.594c-0.28,0-0.507-1.617-0.507-3.594    C13.96,109.896,14.188,108.279,14.468,108.279z M4.795,106.969c0.878,0,1.59,0.45,1.59,1.005c0,0.556-0.712,1.007-1.59,1.007    s-1.589-0.451-1.589-1.007C3.206,107.419,3.917,106.969,4.795,106.969z M4.795,114.277c0.878,0,1.59,0.451,1.59,1.008    c0,0.556-0.712,1.007-1.59,1.007s-1.589-0.451-1.589-1.007C3.206,114.729,3.917,114.277,4.795,114.277z"/>
	</g>
	<g>
		<path d="M1.941,102.433c0,1.1,0.9,2,2,2h125.119c1.1,0,2-0.9,2-2v-6.851c0-1.1-0.9-2-2-2H3.941c-1.1,0-2,0.9-2,2V102.433z     M128.418,94.072c0.877,0,1.59,0.45,1.59,1.006c0,0.557-0.713,1.008-1.59,1.008c-0.879,0-1.59-0.451-1.59-1.008    C126.828,94.522,127.539,94.072,128.418,94.072z M128.418,101.381c0.877,0,1.59,0.451,1.59,1.008c0,0.555-0.713,1.006-1.59,1.006    c-0.879,0-1.59-0.451-1.59-1.006C126.828,101.832,127.539,101.381,128.418,101.381z M119.743,95.383    c0.278,0,0.507,1.615,0.507,3.592c0,1.973-0.229,3.588-0.507,3.588c-0.28,0-0.509-1.613-0.509-3.588    C119.234,96.998,119.463,95.383,119.743,95.383z M115.357,95.383c0.279,0,0.506,1.615,0.506,3.592    c0,1.973-0.227,3.588-0.506,3.588s-0.51-1.613-0.51-3.588C114.848,96.998,115.078,95.383,115.357,95.383z M110.971,95.383    c0.278,0,0.507,1.615,0.507,3.592c0,1.973-0.229,3.588-0.507,3.588c-0.279,0-0.51-1.613-0.51-3.588    C110.461,96.998,110.691,95.383,110.971,95.383z M106.583,95.383c0.28,0,0.507,1.615,0.507,3.592c0,1.973-0.227,3.588-0.507,3.588    c-0.279,0-0.507-1.613-0.507-3.588C106.076,96.998,106.304,95.383,106.583,95.383z M102.197,95.383    c0.279,0,0.507,1.615,0.507,3.592c0,1.973-0.228,3.588-0.507,3.588c-0.281,0-0.508-1.613-0.508-3.588    C101.689,96.998,101.916,95.383,102.197,95.383z M97.81,95.383c0.28,0,0.508,1.615,0.508,3.592c0,1.973-0.228,3.588-0.508,3.588    s-0.505-1.613-0.505-3.588C97.305,96.998,97.529,95.383,97.81,95.383z M93.423,95.383c0.28,0,0.509,1.615,0.509,3.592    c0,1.973-0.229,3.588-0.509,3.588c-0.277,0-0.506-1.613-0.506-3.588C92.917,96.998,93.146,95.383,93.423,95.383z M89.039,95.383    c0.277,0,0.506,1.615,0.506,3.592c0,1.973-0.229,3.588-0.506,3.588c-0.281,0-0.51-1.613-0.51-3.588    C88.529,96.998,88.758,95.383,89.039,95.383z M84.651,95.383c0.277,0,0.507,1.615,0.507,3.592c0,1.973-0.229,3.588-0.507,3.588    c-0.279,0-0.509-1.613-0.509-3.588C84.143,96.998,84.372,95.383,84.651,95.383z M80.266,95.383c0.276,0,0.506,1.615,0.506,3.592    c0,1.973-0.229,3.588-0.506,3.588c-0.282,0-0.511-1.613-0.511-3.588C79.755,96.998,79.983,95.383,80.266,95.383z M75.879,95.383    c0.279,0,0.506,1.615,0.506,3.592c0,1.973-0.227,3.588-0.506,3.588c-0.281,0-0.51-1.613-0.51-3.588    C75.369,96.998,75.598,95.383,75.879,95.383z M71.491,95.383c0.28,0,0.507,1.615,0.507,3.592c0,1.973-0.227,3.588-0.507,3.588    s-0.509-1.613-0.509-3.588C70.982,96.998,71.211,95.383,71.491,95.383z M67.105,95.383c0.279,0,0.508,1.615,0.508,3.592    c0,1.973-0.229,3.588-0.508,3.588s-0.509-1.613-0.509-3.588C66.597,96.998,66.824,95.383,67.105,95.383z M62.718,95.383    c0.28,0,0.508,1.615,0.508,3.592c0,1.973-0.228,3.588-0.508,3.588c-0.28,0-0.508-1.613-0.508-3.588    C62.21,96.998,62.438,95.383,62.718,95.383z M58.333,95.383c0.279,0,0.506,1.615,0.506,3.592c0,1.973-0.227,3.588-0.506,3.588    c-0.28,0-0.508-1.613-0.508-3.588C57.825,96.998,58.053,95.383,58.333,95.383z M53.946,95.383c0.279,0,0.507,1.615,0.507,3.592    c0,1.973-0.228,3.588-0.507,3.588s-0.507-1.613-0.507-3.588C53.439,96.998,53.667,95.383,53.946,95.383z M49.559,95.383    c0.28,0,0.508,1.615,0.508,3.592c0,1.973-0.228,3.588-0.508,3.588c-0.279,0-0.507-1.613-0.507-3.588    C49.052,96.998,49.28,95.383,49.559,95.383z M45.173,95.383c0.279,0,0.508,1.615,0.508,3.592c0,1.973-0.228,3.588-0.508,3.588    c-0.279,0-0.507-1.613-0.507-3.588C44.666,96.998,44.895,95.383,45.173,95.383z M40.786,95.383c0.28,0,0.508,1.615,0.508,3.592    c0,1.973-0.228,3.588-0.508,3.588s-0.507-1.613-0.507-3.588C40.279,96.998,40.506,95.383,40.786,95.383z M36.399,95.383    c0.28,0,0.508,1.615,0.508,3.592c0,1.973-0.228,3.588-0.508,3.588c-0.28,0-0.508-1.613-0.508-3.588    C35.892,96.998,36.12,95.383,36.399,95.383z M32.014,95.383c0.28,0,0.507,1.615,0.507,3.592c0,1.973-0.228,3.588-0.507,3.588    s-0.508-1.613-0.508-3.588C31.506,96.998,31.734,95.383,32.014,95.383z M27.627,95.383c0.28,0,0.508,1.615,0.508,3.592    c0,1.973-0.228,3.588-0.508,3.588c-0.28,0-0.507-1.613-0.507-3.588C27.12,96.998,27.347,95.383,27.627,95.383z M23.24,95.383    c0.28,0,0.508,1.615,0.508,3.592c0,1.973-0.228,3.588-0.508,3.588c-0.279,0-0.507-1.613-0.507-3.588    C22.732,96.998,22.96,95.383,23.24,95.383z M18.854,95.383c0.28,0,0.508,1.615,0.508,3.592c0,1.973-0.228,3.588-0.508,3.588    c-0.28,0-0.508-1.613-0.508-3.588C18.346,96.998,18.574,95.383,18.854,95.383z M14.468,95.383c0.281,0,0.508,1.615,0.508,3.592    c0,1.973-0.227,3.588-0.508,3.588c-0.28,0-0.507-1.613-0.507-3.588C13.96,96.998,14.188,95.383,14.468,95.383z M4.795,94.072    c0.878,0,1.59,0.45,1.59,1.006c0,0.557-0.712,1.008-1.59,1.008s-1.589-0.451-1.589-1.008C3.206,94.522,3.917,94.072,4.795,94.072z     M4.795,101.381c0.878,0,1.59,0.451,1.59,1.008c0,0.555-0.712,1.006-1.59,1.006s-1.589-0.451-1.589-1.006    C3.206,101.832,3.917,101.381,4.795,101.381z"/>
	</g>
	<g>
		<path d="M3.941,79.477c-1.1,0-2,0.9-2,2v6.85c0,1.1,0.9,2,2,2h125.119c1.1,0,2-0.9,2-2v-6.85c0-1.1-0.9-2-2-2H3.941z     M4.795,89.963c-0.878,0-1.589-0.451-1.589-1.009c0-0.555,0.711-1.007,1.589-1.007s1.59,0.452,1.59,1.007    C6.386,89.512,5.673,89.963,4.795,89.963z M4.795,82.652c-0.878,0-1.589-0.451-1.589-1.006s0.711-1.006,1.589-1.006    s1.59,0.451,1.59,1.006S5.673,82.652,4.795,82.652z M14.468,89.133c-0.28,0-0.507-1.615-0.507-3.593    c0-1.974,0.228-3.589,0.507-3.589c0.281,0,0.508,1.615,0.508,3.589C14.976,87.516,14.749,89.133,14.468,89.133z M18.854,89.133    c-0.28,0-0.508-1.615-0.508-3.593c0-1.974,0.228-3.589,0.508-3.589c0.28,0,0.508,1.615,0.508,3.589    C19.361,87.516,19.134,89.133,18.854,89.133z M23.24,89.133c-0.279,0-0.507-1.615-0.507-3.593c0-1.974,0.228-3.589,0.507-3.589    c0.28,0,0.508,1.615,0.508,3.589C23.748,87.516,23.52,89.133,23.24,89.133z M27.627,89.133c-0.28,0-0.507-1.615-0.507-3.593    c0-1.974,0.228-3.589,0.507-3.589c0.28,0,0.508,1.615,0.508,3.589C28.135,87.516,27.907,89.133,27.627,89.133z M32.014,89.133    c-0.28,0-0.508-1.615-0.508-3.593c0-1.974,0.229-3.589,0.508-3.589s0.507,1.615,0.507,3.589    C32.521,87.516,32.294,89.133,32.014,89.133z M36.399,89.133c-0.28,0-0.508-1.615-0.508-3.593c0-1.974,0.228-3.589,0.508-3.589    c0.28,0,0.508,1.615,0.508,3.589C36.908,87.516,36.68,89.133,36.399,89.133z M40.786,89.133c-0.28,0-0.507-1.615-0.507-3.593    c0-1.974,0.227-3.589,0.507-3.589s0.508,1.615,0.508,3.589C41.294,87.516,41.066,89.133,40.786,89.133z M45.173,89.133    c-0.279,0-0.507-1.615-0.507-3.593c0-1.974,0.229-3.589,0.507-3.589s0.508,1.615,0.508,3.589    C45.681,87.516,45.454,89.133,45.173,89.133z M49.559,89.133c-0.279,0-0.507-1.613-0.507-3.592c0-1.976,0.228-3.59,0.507-3.59    c0.28,0,0.508,1.615,0.508,3.59S49.839,89.133,49.559,89.133z M53.946,89.133c-0.279,0-0.507-1.615-0.507-3.593    c0-1.974,0.228-3.589,0.507-3.589s0.507,1.615,0.507,3.589C54.453,87.516,54.225,89.133,53.946,89.133z M58.333,89.133    c-0.28,0-0.508-1.615-0.508-3.593c0-1.974,0.228-3.589,0.508-3.589c0.279,0,0.506,1.615,0.506,3.589    C58.839,87.516,58.612,89.133,58.333,89.133z M62.718,89.133c-0.28,0-0.508-1.615-0.508-3.593c0-1.974,0.228-3.589,0.508-3.589    c0.28,0,0.508,1.615,0.508,3.589C63.226,87.516,62.998,89.133,62.718,89.133z M67.105,89.133c-0.279,0-0.509-1.615-0.509-3.593    c0-1.974,0.228-3.589,0.509-3.589c0.279,0,0.508,1.615,0.508,3.589C67.613,87.516,67.385,89.133,67.105,89.133z M71.491,89.133    c-0.28,0-0.509-1.615-0.509-3.593c0-1.974,0.229-3.589,0.509-3.589s0.507,1.615,0.507,3.589    C71.998,87.516,71.771,89.133,71.491,89.133z M75.879,89.133c-0.281,0-0.51-1.615-0.51-3.593c0-1.974,0.229-3.589,0.51-3.589    c0.279,0,0.506,1.615,0.506,3.589C76.385,87.516,76.158,89.133,75.879,89.133z M80.266,89.133c-0.282,0-0.511-1.615-0.511-3.593    c0-1.974,0.229-3.589,0.511-3.589c0.276,0,0.506,1.615,0.506,3.589C80.771,87.516,80.542,89.133,80.266,89.133z M84.651,89.133    c-0.279,0-0.509-1.615-0.509-3.593c0-1.974,0.229-3.589,0.509-3.589c0.277,0,0.507,1.615,0.507,3.589    C85.158,87.516,84.929,89.133,84.651,89.133z M89.039,89.133c-0.281,0-0.51-1.615-0.51-3.593c0-1.974,0.229-3.589,0.51-3.589    c0.277,0,0.506,1.615,0.506,3.589C89.545,87.516,89.316,89.133,89.039,89.133z M93.423,89.133c-0.277,0-0.506-1.615-0.506-3.593    c0-1.974,0.229-3.589,0.506-3.589c0.28,0,0.509,1.615,0.509,3.589C93.932,87.516,93.703,89.133,93.423,89.133z M97.81,89.133    c-0.28,0-0.505-1.615-0.505-3.593c0-1.974,0.225-3.589,0.505-3.589s0.508,1.615,0.508,3.589    C98.317,87.516,98.09,89.133,97.81,89.133z M102.197,89.133c-0.281,0-0.508-1.615-0.508-3.593c0-1.974,0.227-3.589,0.508-3.589    c0.279,0,0.507,1.615,0.507,3.589C102.704,87.516,102.477,89.133,102.197,89.133z M106.583,89.133    c-0.279,0-0.507-1.615-0.507-3.593c0-1.974,0.228-3.589,0.507-3.589c0.28,0,0.507,1.615,0.507,3.589    C107.09,87.516,106.863,89.133,106.583,89.133z M110.971,89.133c-0.279,0-0.51-1.615-0.51-3.593c0-1.974,0.23-3.589,0.51-3.589    c0.278,0,0.507,1.615,0.507,3.589C111.478,87.516,111.249,89.133,110.971,89.133z M115.357,89.133c-0.279,0-0.51-1.615-0.51-3.593    c0-1.974,0.23-3.589,0.51-3.589s0.506,1.615,0.506,3.589C115.863,87.516,115.637,89.133,115.357,89.133z M119.743,89.133    c-0.28,0-0.509-1.615-0.509-3.593c0-1.974,0.229-3.589,0.509-3.589c0.278,0,0.507,1.615,0.507,3.589    C120.25,87.516,120.021,89.133,119.743,89.133z M128.418,89.963c-0.879,0-1.59-0.451-1.59-1.009c0-0.555,0.711-1.007,1.59-1.007    c0.877,0,1.59,0.452,1.59,1.007C130.008,89.512,129.295,89.963,128.418,89.963z M128.418,82.652c-0.879,0-1.59-0.451-1.59-1.006    s0.711-1.006,1.59-1.006c0.877,0,1.59,0.451,1.59,1.006S129.295,82.652,128.418,82.652z"/>
	</g>
	<path d="M16.192,71.498h1.411h95.868h1.411c2.333,0,4.228-1.893,4.228-4.228V9.467V8.061c0-2.338-1.893-4.232-4.228-4.232h-98.69   c-2.336,0-4.229,1.894-4.229,4.23v1.407v57.804C11.963,69.605,13.855,71.498,16.192,71.498z M17.603,9.467h95.868v56.394H17.603   V9.467z"/>
	<path d="M27.851,18.555c0.161,0,0.283-0.048,0.365-0.146c0.083-0.098,0.125-0.239,0.125-0.426c0-0.186-0.043-0.328-0.125-0.425   c-0.082-0.098-0.204-0.147-0.365-0.147h-0.745l0.174-3.085v-0.061c0-0.191-0.056-0.347-0.17-0.467   c-0.112-0.121-0.256-0.182-0.432-0.182c-0.216,0-0.382,0.055-0.498,0.166c-0.116,0.11-0.176,0.271-0.181,0.481l-0.173,3.146H24.9   l0.173-3.086v-0.06c0-0.191-0.056-0.347-0.169-0.467c-0.113-0.12-0.256-0.181-0.432-0.181c-0.212,0-0.374,0.054-0.486,0.166   c-0.113,0.11-0.178,0.271-0.192,0.481l-0.173,3.144H22.62c-0.161,0-0.281,0.049-0.364,0.146c-0.083,0.099-0.124,0.24-0.124,0.426   c0,0.19,0.04,0.334,0.12,0.429c0.08,0.096,0.205,0.144,0.369,0.144h0.94l-0.105,1.723h-0.835c-0.161,0-0.282,0.046-0.365,0.14   c-0.083,0.093-0.124,0.232-0.124,0.418c0,0.189,0.042,0.335,0.124,0.436c0.082,0.101,0.204,0.152,0.365,0.152h0.774l-0.143,2.896   v0.03c0,0.2,0.057,0.365,0.169,0.496c0.113,0.131,0.258,0.196,0.433,0.196c0.207,0,0.366-0.056,0.482-0.165   c0.117-0.109,0.176-0.271,0.182-0.482l0.158-2.971h0.94l-0.173,2.896v0.067c0,0.196,0.058,0.354,0.173,0.478   c0.114,0.123,0.263,0.185,0.444,0.185c0.205,0,0.364-0.055,0.477-0.165c0.113-0.11,0.175-0.271,0.184-0.482l0.151-2.972h0.978   c0.161,0,0.283-0.049,0.365-0.146c0.083-0.099,0.125-0.241,0.125-0.426s-0.043-0.328-0.125-0.425   c-0.082-0.098-0.204-0.148-0.365-0.148h-0.91l0.105-1.723H27.851z M25.675,20.273H24.75l0.075-1.723h0.94L25.675,20.273z"/>
	<path d="M37.987,18.533l-0.06-0.039l-5.96-2.783c-0.191-0.085-0.338-0.143-0.44-0.173c-0.103-0.029-0.194-0.044-0.274-0.044   c-0.211,0-0.38,0.065-0.505,0.196c-0.125,0.13-0.188,0.302-0.188,0.511c0,0.182,0.058,0.339,0.17,0.472   c0.112,0.133,0.303,0.264,0.568,0.395l4.907,2.326l-4.907,2.323c-0.277,0.13-0.467,0.26-0.577,0.387   c-0.108,0.128-0.162,0.282-0.162,0.463c0,0.216,0.062,0.388,0.188,0.515c0.125,0.129,0.294,0.193,0.505,0.193   c0.095,0,0.196-0.015,0.305-0.044c0.107-0.032,0.237-0.082,0.387-0.151l5.953-2.732c0.03-0.011,0.07-0.031,0.12-0.06   c0.536-0.243,0.805-0.531,0.805-0.866C38.823,19.085,38.544,18.788,37.987,18.533z"/>
	<rect x="38.981" y="26.361" width="9.52" height="1.415"/>
</g>
</svg>