<svg xmlns="http://www.w3.org/2000/svg" xmlns:xlink="http://www.w3.org/1999/xlink" version="1.1" id="Layer_1" x="0px" y="0px" width="100px" height="75.0px" viewBox="0 0 800 600" enable-background="new 0 0 800 600" xml:space="preserve">
<g>
	<g>
		<polygon points="297.66,266.375 251.836,212.773 329.043,135.57 374.867,189.18   "/>
	</g>
	<polygon points="246.727,207.943 200.898,154.342 278.102,77.137 323.924,130.748  "/>
	<g>
		<polygon points="195.793,149.512 149.961,95.91 227.16,18.703 272.98,72.316   "/>
	</g>
</g>
<g>
	<polygon points="502.352,334.07 425.148,411.266 468.859,462.77 546.051,385.578  "/>
	<polygon points="605.938,452.656 528.734,529.852 572.453,581.348 649.641,504.164  "/>
	<polygon points="551.5,390.715 474.297,467.91 518.012,519.418 595.203,442.219  "/>
	<polygon points="523.035,292.211 481.336,228.125 406.668,175.832 405.416,177.084 405.414,177.082 342.037,240.463    279.895,302.605 279.897,302.607 278.66,303.844 320.363,367.938 395.031,420.223 520.551,294.695  "/>
</g>
</svg>