<svg xmlns="http://www.w3.org/2000/svg" xmlns:xlink="http://www.w3.org/1999/xlink" version="1.1" id="Calque_1" x="0px" y="0px" width="100.0px" height="100px" viewBox="0 0 623.62 623.62" enable-background="new 0 0 623.62 623.62" xml:space="preserve">
<path d="M467.082,327.945l42.52,47.023h70.865l-50.52-56.924h32.348l18.172-20.756h-42.52h-60.691l3.959-3.932h60.031l39.221-45.948  h-71.141l-42.244,47.023c0,0,0,0-70.867-34.268c-17.584-8.503-45.486-12.756-56.693-12.756c-70.866,0-212.598,0-212.598,0  c-85.039,0-77.953,63.779-77.953,63.779l0,0c0,0-7.086,63.78,77.953,63.78c0,0,141.732,0,212.598,0  c11.207,0,39.109-4.252,56.693-12.756C467.082,327.945,467.082,327.945,467.082,327.945z"/>
</svg>