<svg xmlns="http://www.w3.org/2000/svg" xmlns:xlink="http://www.w3.org/1999/xlink" version="1.1" id="Layer_1" x="0px" y="0px" width="100px" height="100px" viewBox="0 0 100 100" enable-background="new 0 0 100 100" xml:space="preserve">
<path d="M77.335,1.961c-5.167,6.9-15.276,11.589-26.903,11.589S28.695,8.862,23.528,1.961c-6.176,6.593-9.965,15.45-9.965,25.197  s3.789,18.605,9.965,25.198c4.631-6.186,13.238-10.582,23.345-11.429v54.214c0,1.966,1.593,3.56,3.558,3.56  c1.965,0,3.558-1.594,3.558-3.56V40.927c10.107,0.847,18.714,5.244,23.345,11.429c6.178-6.593,9.966-15.451,9.966-25.198  S83.513,8.554,77.335,1.961z"/>
</svg>