<svg xmlns="http://www.w3.org/2000/svg" xmlns:xlink="http://www.w3.org/1999/xlink" version="1.1" id="Layer_1" x="0px" y="0px" width="100px" height="100px" viewBox="0 0 100 100" enable-background="new 0 0 100 100" xml:space="preserve">
<path d="M262.335,98.701c-5.167-6.9-15.276-11.59-26.903-11.59s-21.736,4.689-26.903,11.59c-6.177-6.594-9.966-15.451-9.966-25.198  c0-9.747,3.789-18.605,9.966-25.198c4.632,6.186,13.238,10.582,23.345,11.429V5.521c0-1.966,1.594-3.56,3.559-3.56  s3.559,1.594,3.559,3.56v54.214c10.106-0.847,18.714-5.244,23.345-11.429c6.178,6.593,9.966,15.451,9.966,25.198  C272.301,83.25,268.513,92.107,262.335,98.701z"/>
<g>
	<path fill="none" d="M33.664,35.196l2.456,1.608c0.308-0.867,0.607-1.756,0.896-2.679l-0.297-1.352L33.664,35.196z"/>
	<path fill="none" d="M61.035,34.125c0.289,0.923,0.589,1.812,0.896,2.679l2.457-1.608l-3.057-2.422L61.035,34.125z"/>
	<path d="M65.201,44.491l8.458-5.537c1.104-0.724,1.794-1.934,1.854-3.253c0.059-1.319-0.518-2.587-1.553-3.408l-12.188-9.661   c-0.905-1.124-2.275-1.857-3.831-1.857h-8.916H40.11c-1.556,0-2.926,0.734-3.832,1.858l-12.187,9.66   c-1.034,0.82-1.612,2.088-1.553,3.408c0.06,1.319,0.75,2.529,1.855,3.253l8.457,5.537c-9.357,18.423-22.647,19.827-22.647,19.827   c4.52,13.457,19.965,14.99,29.959,14.473v14.856c0,2.532,2.054,4.587,4.586,4.587c1.96,0,3.62-1.234,4.278-2.962   c0.658,1.728,2.317,2.962,4.276,2.962c2.534,0,4.588-2.055,4.588-4.587V78.791c9.995,0.517,25.441-1.017,29.96-14.473   C87.851,64.318,74.56,62.913,65.201,44.491z M36.12,36.805l-2.456-1.608l3.056-2.422l0.297,1.352   C36.728,35.049,36.428,35.938,36.12,36.805z M57.89,48.475v0.618l-9.175,4.725l-8.553-4.725v-0.618v-0.014v-0.536v-2.886h1.576   h14.575h1.577v2.886v0.536V48.475z M61.932,36.804c-0.308-0.867-0.607-1.756-0.896-2.679l0.297-1.352l3.057,2.422L61.932,36.804z"/>
	<circle cx="49.026" cy="10.27" r="8.831"/>
</g>
</svg>