<svg xmlns="http://www.w3.org/2000/svg" xmlns:xlink="http://www.w3.org/1999/xlink" version="1.1" id="Layer_1" x="0px" y="0px" width="100px" height="100px" viewBox="0 0 100 100" enable-background="new 0 0 100 100" xml:space="preserve">
<g>
	<path d="M94.207,39.708c0,0-1.25-1.375-1,0s3.25,10.875-1.875,16.875c-4.02,4.705-15.031,8.638-20.742,3.848   c0.504-1.781,1.332-3.504,2.492-4.973c4.25-5.375,7.25-9.5,5.875-18.135c-1.375-8.634-10.404-7.911-10.404-7.911   s-1.221-3.08-1.471-3.163c-0.248-0.082-0.295,0.935-0.297,0.954c-0.002-0.002-0.004-0.005-0.006-0.007   c-0.064-0.112-1.465-2.545-2.197-3.196c-0.736-0.655-0.346,0.519-0.332,0.562c-0.008-0.007-0.016-0.013-0.023-0.02   c-0.131-0.143-1.516-1.637-2.27-1.875c-0.789-0.25-0.916,0.692-0.916,0.694c-0.088,0.081-0.17,0.176-0.238,0.302   c-0.361,0.663-0.91,2.034-1.439,3.845c-2.027-2.966-5.143-5.458-8.963-7.205c0.003,0,0.02-0.001,0.02-0.001   s-5.754-3.135-7.754-3.718s-0.416,0.083,0,1c0.098,0.215-0.166,0.308-0.635,0.325c-0.941-0.13-1.897-0.228-2.873-0.277   c-1.484-0.227-3.043-0.523-3.81-0.632c0,0-1.067-0.699,0,0.65c0.001,0.001,0.001,0.002,0.002,0.003   c-0.625,0.039-1.243,0.094-1.854,0.167c-1.631-0.321-3.864-0.778-5.08-0.237c0,0,0.518,0.398,0.842,1.032   c0.002,0.004-0.004,0.008-0.002,0.012c-0.717,0.187-1.418,0.395-2.102,0.628c-1.973,0.322-4.764,0.721-5.822,1.578   c-1.103,0.893-0.352,0.925,0.459,0.91c-3.135,1.915-5.614,4.387-7.135,7.215c-0.727,1.215-1.244,2.569-1.504,4.012   c0,0-2.57,11.488-6.445,13.488c0,0-0.5,1.5,0.875,1.375c0,0,1.773,0.678,5.375-9.028v9.978c0,0.429,0.025,0.852,0.069,1.268   c-0.009,0.129-0.02,0.258-0.02,0.389v19.043c0,3.232,2.619,3.852,5.851,3.852c1.518,0,2.897-0.143,3.938-0.623   c1.039,0.48,2.418,0.623,3.938,0.623c3.23,0,5.85-0.619,5.85-3.852v-8.029c0.146,0.602,0.584,1.213,0.584,1.213l0.5-1.871   l0.833,1.871l0.583-1.871c0,0,0.584,1.538,0.834,1.871c0.25,0.334,0.5-1.871,0.5-1.871l1.041,2.955l0.422-1.755l0.54,1.838   l1.304-3.014c0,0,0.312,2.249,0.625,1.909s1.043-1.909,1.043-1.909l0.73,1.909l1.043-1.909l0.625,1.909c0,0,0.115-0.135,0.256-0.33   v7.084c0,3.232,2.619,3.852,5.85,3.852c1.178,0,2.271-0.084,3.188-0.346c0.918,0.262,2.012,0.346,3.188,0.346   c3.232,0,5.852-0.619,5.852-3.852V56.68c0.785-0.156,1.412-0.213,1.904-0.164c0.266,1.566,0.84,3.223,1.939,4.701   c0.021,0.971,0.043,2.087,0.117,3.367c0.375,6.375,2.75,9.625,5.75,10s2.092-2.25,2.092-2.25c-2.637-1.441-3.896-4.533-3.896-7.922   c1.953,0.88,4.498,1.422,7.805,1.422C95.457,65.834,99.832,49.334,94.207,39.708z"/>
</g>
</svg>