<svg xmlns="http://www.w3.org/2000/svg" xmlns:xlink="http://www.w3.org/1999/xlink" version="1.1" id="Layer_1" x="0px" y="0px" width="100px" height="100px" viewBox="0 0 100 100" enable-background="new 0 0 100 100" xml:space="preserve">
<path d="M96.437,96.05c-11.416,0-22.658-4.247-33.395-10.002C85.015,71.422,94.703,44.7,94.703,3.027h-3.95  c0,0.22-0.008,0.428-0.009,0.647c-0.124-0.439-0.454-0.811-0.927-0.929l-10.81-2.707c-0.703-0.175-1.421,0.255-1.596,0.958  L64.276,53.613c-0.175,0.703-0.319,1.277-0.319,1.277c0,0.001-0.577-0.134-1.282-0.299L9.485,42.122  c-0.705-0.165-1.426,0.275-1.602,0.977L5.176,53.908C5,54.61,5.433,55.32,6.138,55.485l4.479,1.05l-0.79,3.33  c7.869,1.868,17.772,8.434,28.258,15.385c5.479,3.632,11.187,7.415,17.087,10.9c-12.798,6.701-29.604,9.9-51.608,9.9V100  c23.333,0,41.66-3.674,55.592-11.568C70.953,94.992,83.469,100,96.437,100V96.05z M90.732,4.503  c-0.177,29.339-5.586,50.888-16.468,65.469L90.732,4.503z M40.267,71.957C31.381,66.066,23.455,60.818,16.3,57.867l56.33,13.205  c0.328,0.077,0.654,0.012,0.934-0.138c-1.699,2.181-3.52,4.206-5.476,6.065c-2.7,2.569-5.68,4.855-8.938,6.888  C52.623,80.144,46.302,75.957,40.267,71.957z"/>
</svg>