<svg xmlns="http://www.w3.org/2000/svg" xmlns:xlink="http://www.w3.org/1999/xlink" version="1.1" id="Layer_1" x="0px" y="0px" width="100px" height="100px" viewBox="0 0 100 100" enable-background="new 0 0 100 100" xml:space="preserve">
<path d="M68.306,100l-8.299-23.432l7.657-21.617L59.685,0H41.25l-7.99,54.951l7.667,21.618L32.617,100H68.306z M47.685,42.179  c-0.399-5.345-5.746-9.353-6.413-14.565c-0.667-5.21,2.814-8.78,9.189-9.489c3.585-0.398,8.451,0.805,9.117,6.017  c0.669,5.211-7.081,10.423-6.413,15.487c0.566,4.297,4.296,9.188,6.883,13.511H44.061C45.242,50.574,48.008,46.465,47.685,42.179z   M49.868,3.292c2.467,1.683,3.825,3.983,3.214,6.006c-0.867,2.875-5.34,4.071-9.991,2.667c-0.084-0.025-0.157-0.064-0.24-0.091  l1.248-8.582H49.868z M37.277,56.431h26.371l-6.55,18.492H43.837L37.277,56.431z M43.837,78.215h13.26l6.55,18.494h-26.37  L43.837,78.215z"/>
</svg>