<svg xmlns="http://www.w3.org/2000/svg" xmlns:xlink="http://www.w3.org/1999/xlink" version="1.1" id="Layer_1" x="0px" y="0px" width="68.318px" height="100px" viewBox="0 0 68.318 100" enable-background="new 0 0 68.318 100" xml:space="preserve">
<path d="M68.318,3.295C68.318,1.478,66.839,0,65.023,0H3.295C1.478,0,0,1.478,0,3.295v17.146l0,0v59.116v17.146  C0,98.522,1.478,100,3.295,100h61.728c1.817,0,3.295-1.479,3.295-3.296V79.567V20.442c0-0.408-0.075-0.797-0.211-1.158  c0.136,0.36,0.211,0.75,0.211,1.158V3.295z M2.733,3.295c0-0.31,0.252-0.562,0.562-0.562h61.728c0.31,0,0.561,0.252,0.561,0.562  v13.902c-0.002,0-0.004,0-0.006,0c-0.001,0-0.002-0.001-0.004-0.001c-0.086-0.015-0.173-0.027-0.261-0.036  c-0.096-0.008-0.192-0.014-0.29-0.014H3.295c-0.098,0-0.195,0.006-0.29,0.014c-0.092,0.009-0.183,0.022-0.272,0.038V3.295z   M65.584,96.705c0,0.311-0.252,0.562-0.562,0.562H3.295c-0.31,0-0.562-0.251-0.562-0.562V20.442c0-0.31,0.252-0.562,0.562-0.562  h61.728c0.31,0,0.562,0.252,0.562,0.562V96.705z"/>
<circle cx="60.471" cy="11.79" r="2.705"/>
<circle cx="53.371" cy="11.79" r="2.705"/>
<circle cx="45.934" cy="11.452" r="2.705"/>
<path d="M20.411,5.367c-2.334,0-4.227,1.892-4.227,4.226c0,2.333,1.892,4.226,4.227,4.226c2.333,0,4.225-1.892,4.225-4.226  C24.636,7.258,22.745,5.367,20.411,5.367z M20.411,11.762c-1.199,0-2.17-0.971-2.17-2.169c0-1.199,0.971-2.17,2.17-2.17  c1.198,0,2.169,0.972,2.169,2.17C22.581,10.791,21.609,11.762,20.411,11.762z"/>
<path d="M9.931,5.367c-2.334,0-4.227,1.892-4.227,4.226c0,2.333,1.892,4.226,4.227,4.226c2.333,0,4.225-1.892,4.225-4.226  C14.156,7.258,12.265,5.367,9.931,5.367z M9.931,11.762c-1.199,0-2.17-0.971-2.17-2.169c0-1.199,0.971-2.17,2.17-2.17  c1.198,0,2.169,0.972,2.169,2.17C12.101,10.791,11.129,11.762,9.931,11.762z"/>
<path d="M59.264,91.545H9.052c-1.975,0-3.582-1.607-3.582-3.582V37.751c0-1.975,1.607-3.582,3.582-3.582h50.212  c1.976,0,3.583,1.607,3.583,3.582v50.212C62.847,89.938,61.24,91.545,59.264,91.545z M9.052,36.902  c-0.468,0-0.848,0.381-0.848,0.849v50.212c0,0.468,0.38,0.849,0.848,0.849h50.212c0.469,0,0.849-0.381,0.849-0.849V37.751  c0-0.468-0.38-0.849-0.849-0.849H9.052z"/>
<path d="M40.265,40.839c0,1.065-0.863,1.929-1.928,1.929h-8.358c-1.065,0-1.929-0.864-1.929-1.929v-0.321  c0-1.065,0.864-1.929,1.929-1.929h8.358c1.064,0,1.928,0.863,1.928,1.929V40.839z"/>
</svg>