<svg xmlns="http://www.w3.org/2000/svg" xmlns:xlink="http://www.w3.org/1999/xlink" version="1.1" id="Calque_1" x="0px" y="0px" width="100px" height="100px" viewBox="0 0 100 100" enable-background="new 0 0 100 100" xml:space="preserve">
<path d="M59.913,56.018C59.914,56.018,59.914,56.018,59.913,56.018h7.021c1.637,0,2.977,1.18,2.977,2.621l-0.002,1.953  c0,1.441-1.34,2.621-2.977,2.621h-7.019c0,0,0,0-0.001,0c-2.754,0-5.007-1.619-5.007-3.598S57.159,56.018,59.913,56.018z   M51.268,68.436c0,1.979,2.252,3.596,5.006,3.596c0.001,0,0.001,0,0.002,0h5.338c1.637,0,2.977-1.178,2.977-2.619l0.001-1.953  c0-1.441-1.339-2.621-2.976-2.621h-5.34c-0.001,0-0.001,0-0.002,0C53.52,64.838,51.268,66.457,51.268,68.436z M47.627,77.256  c0,1.977,2.253,3.596,5.007,3.596c0,0,0,0,0.001,0h3.659c1.636,0,2.977-1.178,2.977-2.619l0.001-1.953  c0-1.441-1.34-2.619-2.976-2.619h-3.661c-0.001,0-0.001,0-0.001,0C49.88,73.66,47.627,75.277,47.627,77.256z M56.938,23.644  c0.575-0.174,1.182-0.256,1.791-0.24c0.609,0.014,1.226,0.129,1.836,0.351c0.613,0.223,1.158,0.531,1.64,0.915  c0.474,0.377,0.885,0.831,1.218,1.335c0.451,0.679,1.368,0.869,2.054,0.421c0.686-0.457,0.868-1.371,0.416-2.058  c-0.498-0.755-1.116-1.442-1.837-2.023c-0.729-0.573-1.557-1.051-2.475-1.385c-0.907-0.331-1.852-0.498-2.777-0.527  c-0.927-0.019-1.845,0.106-2.711,0.369c-0.789,0.235-1.233,1.053-1,1.842C55.328,23.426,56.148,23.869,56.938,23.644 M56.077,17.916  c2.08-0.424,4.296-0.306,6.439,0.474c2.151,0.783,3.92,2.115,5.244,3.777c0.503,0.643,1.439,0.755,2.079,0.246  c0.646-0.508,0.755-1.442,0.243-2.085c-1.647-2.082-3.874-3.754-6.554-4.723c-2.669-0.978-5.453-1.128-8.055-0.594  c-0.805,0.164-1.315,0.951-1.152,1.755C54.49,17.568,55.272,18.082,56.077,17.916 M55.271,11.892c3.026-0.547,6.22-0.332,9.32,0.797  c3.104,1.129,5.696,3.02,7.662,5.384c0.519,0.626,1.455,0.714,2.083,0.193c0.638-0.523,0.721-1.462,0.2-2.09  c-2.291-2.753-5.324-4.963-8.93-6.275c-3.604-1.312-7.343-1.567-10.863-0.928c-0.81,0.144-1.34,0.914-1.196,1.726  C53.696,11.505,54.467,12.039,55.271,11.892 M54.456,5.876c3.965-0.679,8.152-0.363,12.209,1.113  c4.06,1.477,7.471,3.927,10.08,6.999c0.526,0.626,1.469,0.701,2.092,0.171c0.624-0.532,0.699-1.469,0.17-2.093  C76.079,8.614,72.233,5.857,67.682,4.2c-4.549-1.655-9.271-2.017-13.725-1.252c-0.811,0.139-1.35,0.902-1.215,1.712  C52.881,5.469,53.64,6.013,54.456,5.876 M71.903,47.199C71.903,47.199,71.903,47.199,71.903,47.199h-2.811l-2.635,7.193h5.444  c0.001,0,0.001,0,0.001,0c2.754,0,5.007-1.619,5.007-3.598C76.91,48.817,74.657,47.199,71.903,47.199z M37.517,65.639  c0-1.84-0.284-3.631-0.79-5.324l13.785,5.049c-0.729,0.871-1.15,1.926-1.15,3.072c0,1.338,0.573,2.549,1.537,3.494  c-2.48,0.494-4.386,2.025-4.979,4.006l-9.671-3.543l0,0C37.058,70.324,37.517,68.043,37.517,65.639z M43.07,71.455  c1.513,0.555,3.189-0.223,3.744-1.736c0.554-1.514-0.225-3.189-1.736-3.742c-1.517-0.557-3.193,0.221-3.748,1.734  C40.776,69.225,41.555,70.9,43.07,71.455z M66.628,30.943l-15.382-5.634c-3.112-1.139-6.571,0.504-7.73,3.669l-1.452,3.964  c1.05,1.15,2.004,2.686,2.3,4.47l2.389-6.524l19.703,7.216l-5.863,16.009h3.938l5.632-15.375  C71.321,35.573,69.741,32.083,66.628,30.943z M45.773,77.912l-12.121-4.441c1.234-2.277,1.96-4.955,1.96-7.832  c0-2.006-0.354-3.916-0.982-5.664c2.502-6.428,6.793-17.468,7.599-19.645c1.624-4.384-3.162-7.484-3.162-7.484L26.338,54.543  c-3.33,5.783-4.908,8.764-4.721,15.688c0,0-4.623,5.346-9.126,8.15l12.303,19.594c4.974-4.607,7.734-6.568,12.868-9.191  c10.718-1.482,14.556-6.043,14.556-6.043C48.819,82.586,46.153,80.566,45.773,77.912z"/>
</svg>