<svg xmlns="http://www.w3.org/2000/svg" xmlns:xlink="http://www.w3.org/1999/xlink" version="1.1" x="0px" y="0px" width="100px" height="100px" viewBox="-346 256 100 100" enable-background="new -346 256 100 100" xml:space="preserve">
<g id="Layer_1">
</g>
<g id="Layer_2">
	<path fill="#000000" stroke="#FFFFFF" stroke-width="3.1917" stroke-linecap="round" stroke-linejoin="round" d="M-297.911,299.34"/>
	<g>
		<path d="M-345.333,302.894c9.816,0.197,33.273,0.973,48.698,4c7.986,1.568,15.629,3.934,22.521,6.538    c4.664,1.682,26.442,12.275,27.685,10.807c0.54-0.637,0.081-2.112-1.221-4.087c-4.939-6.544-16.073-16.234-32.403-18.978    c-0.879-0.147-1.473-0.98-1.325-1.86c0.149-0.878,0.989-1.466,1.859-1.324c4.198,0.705,8.048,1.825,11.585,3.214    c0.235-5.715-0.179-33.797-31.018-33.797c-8.206,0-13.758,2.712-17.531,6.384c-1.551-1.956-4.039-4.55-7.401-6.333    c-4.29-2.276-9.382-2.697-9.382-2.697s3.416,6.934,5.424,13.568c2.312,7.638,2.634,10.476,3.416,14.826    c-0.011,0.277-0.012,0.442-0.012,0.442s-23.088,3.798-21.438,8.828C-345.825,302.584-345.635,302.74-345.333,302.894z     M-315.905,284.142c1.556-6.29,7.949-9.965,7.949-9.965s-3.894,5.414-3.894,13.209c0,7.795,2.1,11.031,2.1,11.031l-6.332-0.026    C-316.082,298.391-317.845,291.977-315.905,284.142z"/>
		<path d="M-287.421,312.427c0.814,0.839,1.549,1.865,1.951,3.086c0.62,1.887,0.363,3.837-0.766,5.793    c-2.419,4.193-7.088,4.298-7.535,4.298c-0.013,0-0.021,0-0.027,0c-0.892-0.012-1.605-0.743-1.594-1.636    c0.012-0.884,0.732-1.593,1.614-1.593c0.004,0,0.007,0,0.011,0c0.14-0.001,3.207-0.036,4.735-2.684    c0.656-1.138,0.819-2.173,0.496-3.16c-0.464-1.424-1.881-2.582-2.983-3.275l-16.997,22.276v6.992h28.427l0.022-7.688v-8.331    c3.08-2.42,5.597-5.525,7.343-9.077C-277.287,315.62-282.232,313.892-287.421,312.427z"/>
		<path d="M-293.725,310.819c-1.17-0.267-2.347-0.524-3.533-0.757c-7.406-1.454-16.722-2.381-25.453-2.97l-4.023,9.671    c0,0-0.14,0.457-0.14,0.708c0,1.008,0.813,1.827,1.824,1.827h3.04v6.333c0,4.943,3.997,8.945,8.935,8.945h1.018L-293.725,310.819z    "/>
	</g>
</g>
<g id="Layer_3" display="none">
	<path display="inline" fill="#000000" stroke="#FFFFFF" stroke-width="3.0694" d="M-333.25,301.25   c13.625-0.125,20.083,0.678,35.375,2.625c30.855,3.926,39.084,12.617,39.084,12.617"/>
	<path display="inline" fill="none" stroke="#000000" stroke-width="2.5" stroke-linecap="round" stroke-linejoin="round" d="   M-334.4,302.165c0,0-0.458,4.53-0.126,9.481c0.396,5.943,1.477,9.035,1.477,9.035"/>
</g>
</svg>