<svg xmlns="http://www.w3.org/2000/svg" xmlns:xlink="http://www.w3.org/1999/xlink" version="1.1" id="Layer_1" x="0px" y="0px" width="100px" height="100px" viewBox="-346 256 100 100" enable-background="new -346 256 100 100" xml:space="preserve">
<polygon points="-319.523,274.046 -315.101,276.545 -311.5,275.442 -315.644,270.473 "/>
<polygon points="-284.466,309.503 -285.378,306.996 -289.71,307.674 -290.625,310.415 -287.203,313.154 "/>
<polygon points="-299.585,309.968 -296.676,311.794 -295.222,307.774 -298.507,306.321 "/>
<polygon points="-309.677,265.275 -308.5,268.525 -305.271,266.451 -307.924,262.623 "/>
<polygon points="-269.17,322.183 -271.195,317.249 -276.699,319.567 -274.678,325.957 -270.308,325.365 "/>
<polygon points="-287.96,320.846 -284.146,323.739 -281.05,322.453 -284.614,316.699 "/>
<polygon points="-277.181,339.591 -275.561,343.32 -269.353,344.019 -266.466,336.528 -274.298,333.81 "/>
<path d="M-274.396,356l-21.496-39.202l-10-6.053l-8.288-24.468l-8.373-6.323l-4.36-12.919L-346,262.193l0.051,10.364l-0.016-0.005  l-0.057,79.022c0,2.492,2.125,4.41,4.605,4.41L-274.396,356z"/>
<path d="M-270.465,299.093c-3.795-5.517,3.946-19.748,3.946-19.748l-1.029-2.601c0,0-4.515,5.186-6.675,11.054  c-0.979,2.655-2.351,6.854-2.351,6.854l-5.309-0.518c0,0,2.504-4.501,3.446-11.855c1.018-7.924-1.286-21.338-1.286-21.338  l-3.348,4.446c0,0,1.219,6.568,0.107,13.218c-0.554,3.141-2.771,8.128-2.771,8.128s-1.813-4.748-5.91-8.496  c-4.098-3.75-11.626-7.758-11.626-7.758l0.119,4.073c0,0,6.058,4.357,8.707,8.166c4.462,6.418,2.323,13.916,7.682,18.706  c15.787,14.104,40.75-2.128,40.75-2.128l-3.116-2.005C-249.129,297.291-266.607,304.981-270.465,299.093z"/>
<path d="M-267.912,293.01c-1.764,0.897-2.538,3.102-1.572,5.001c0.966,1.893,3.235,2.63,4.998,1.734  c1.896-0.97,2.634-3.237,1.664-5.135C-263.783,292.712-266.017,292.042-267.912,293.01z"/>
</svg>