<svg xmlns="http://www.w3.org/2000/svg" xmlns:xlink="http://www.w3.org/1999/xlink" version="1.1" id="Layer_1" x="0px" y="0px" width="100px" height="100px" viewBox="0 0 100 100" enable-background="new 0 0 100 100" xml:space="preserve">
<polygon points="40.615,18.367 37.084,13.907 36.341,9.447 41.544,11.491 46.934,7.361 49.164,8.889 49.164,11.677 52.694,15.58   49.721,17.624 50.278,21.154 56.596,24.127 52.881,30.446 69.976,37.693 76.666,37.693 77.781,43.082 80.197,47.542 80.197,52.373   74.25,52.373 72.392,57.019 58.269,69.84 53.996,68.912 52.508,78.018 53.252,85.265 47.491,92.64 43.217,87.494 42.474,83.034   34.668,65.566 33.368,48.842 31.138,52.373 27.979,54.603 23.147,51.259 27.05,49.632 27.05,47.728 21.847,48.471 19.803,46.241   29.837,44.754 24.82,35.463 26.121,32.304 30.766,34.163 38.385,23.942 "/>
</svg>