<svg xmlns:dc="http://purl.org/dc/elements/1.1/" xmlns:cc="http://creativecommons.org/ns#" xmlns:rdf="http://www.w3.org/1999/02/22-rdf-syntax-ns#" xmlns:svg="http://www.w3.org/2000/svg" xmlns="http://www.w3.org/2000/svg" xmlns:sodipodi="http://sodipodi.sourceforge.net/DTD/sodipodi-0.dtd" xmlns:inkscape="http://www.inkscape.org/namespaces/inkscape" id="svg2" version="1.1" inkscape:version="0.48.3.1 r9886" width="90" height="100" sodipodi:docname="india.svg">
  <metadata id="metadata8">
    <rdf:RDF>
      <cc:Work rdf:about="">
        <dc:format>image/svg+xml</dc:format>
        <dc:type rdf:resource="http://purl.org/dc/dcmitype/StillImage"/>
        <dc:title/>
      </cc:Work>
    </rdf:RDF>
  </metadata>
  <defs id="defs6"/>
  <sodipodi:namedview pagecolor="#ffffff" bordercolor="#666666" borderopacity="1" objecttolerance="10" gridtolerance="10" guidetolerance="10" inkscape:pageopacity="0" inkscape:pageshadow="2" inkscape:window-width="1366" inkscape:window-height="744" id="namedview4" showgrid="false" inkscape:zoom="2.4234129" inkscape:cx="55.624428" inkscape:cy="80.919305" inkscape:window-x="0" inkscape:window-y="24" inkscape:window-maximized="1" inkscape:current-layer="svg2"/>
  <path style="fill:#000000" d="m 21.199437,1.8030912 c -2.561341,2.1955133 1.099235,3.4906934 -0.03169,6.4314471 -0.769535,2.8150657 -1.929313,5.2711997 2.068016,6.0989507 2.697708,0.347455 -6.299023,17.214436 -14.501747,16.744485 -3.49591,-0.200288 -3.496242,0.135763 0,8.687295 0.5678715,1.388963 -0.5820063,2.286132 -2.8576632,2.286132 -4.6028894,0 -6.69622425,2.902397 -3.5435025,4.915179 1.2785265,0.816241 2.3432837,2.720496 2.3432837,4.229343 0,1.756387 1.7241668,2.721245 4.8008749,2.686202 4.4319831,-0.05046 4.8258941,0.534005 4.9723341,7.829998 0.08734,4.351092 2.201336,12.608229 4.686567,18.346197 2.485232,5.737969 5.022135,12.310814 5.658174,14.574083 1.197914,4.262576 3.829707,5.110958 7.829996,2.571897 2.747893,-1.744153 5.886786,-11.926579 5.886786,-19.032037 0,-2.772857 0.817393,-5.029488 1.828906,-5.029488 1.011512,0 6.900986,-4.938041 13.088097,-10.973426 6.187128,-6.035384 11.876466,-10.973426 12.630871,-10.973426 0.754387,0 0.508728,-2.881384 -0.571533,-6.401167 -1.786876,-5.822171 -0.138795,-12.207907 1.771752,-6.85839 0.44905,1.257371 2.470612,2.286131 4.457954,2.286131 1.987343,0 3.084039,0.815288 2.45759,1.828904 -1.002275,1.621707 3.002788,7.315617 5.143795,7.315617 0.444076,0 1.811238,-3.733196 3.086277,-8.287223 1.275039,-4.554022 3.626568,-9.006446 5.200948,-9.887515 2.321865,-1.299382 2.420629,-2.11564 0.571526,-4.343647 -2.900604,-3.495017 -6.411326,-2.954044 -11.659262,1.771751 -5.540958,4.989664 -9.679659,6.266117 -12.173645,3.772115 -1.516436,-1.516417 -2.057518,-1.298251 -2.057518,0.8573 0,2.402049 -1.172839,2.646682 -6.572624,1.42883 -11.614477,-2.61949 -17.482096,-5.726218 -16.345834,-8.687296 0.605093,-1.57684 -0.507503,-3.82926 -2.62905,-5.315253 C 33.28473,18.256542 33.220317,17.684976 35.767506,11.588711 38.79394,4.3454421 37.786159,0.4232243 33.767142,3.7587139 31.77327,5.4134744 30.127036,5.1953939 26.451524,2.7871082 24.170357,1.2924274 22.547501,1.0439232 21.199437,1.8030912 z" id="path3000" inkscape:connector-curvature="0" sodipodi:nodetypes="cccsssssssssssssssssssssssssssssssc"/>
</svg>