<svg xmlns="http://www.w3.org/2000/svg" xmlns:xlink="http://www.w3.org/1999/xlink" version="1.1" id="Layer_1" x="0px" y="0px" width="100px" height="100px" viewBox="-346 256 100 100" enable-background="new -346 256 100 100" xml:space="preserve">
<path d="M-325.38,303.183c-11.351,0-20.55,9.201-20.55,20.548V356h41.099v-32.27C-304.832,312.384-314.031,303.183-325.38,303.183z   M-325.38,339.397c-8.513,0-15.413-6.899-15.413-15.41s6.9-15.411,15.413-15.411c8.512,0,15.411,6.9,15.411,15.411  S-316.868,339.397-325.38,339.397z"/>
<path d="M-325.38,325.454c-0.239,0-0.478-0.058-0.697-0.175c-0.479-0.254-0.777-0.754-0.777-1.299V313.17  c0-0.814,0.66-1.476,1.474-1.476c0.813,0,1.473,0.661,1.473,1.476v8.062l4.604-3.064c0.679-0.451,1.592-0.268,2.043,0.409  c0.451,0.676,0.267,1.593-0.41,2.042l-6.893,4.591C-324.811,325.372-325.096,325.454-325.38,325.454L-325.38,325.454z"/>
<g>
	<path d="M-283.451,292.686c-0.774,1.054-1.585,2.101-2.45,3.123c-0.96,1.133-1.923,2.202-2.874,3.216l37.541,30.659l5.234-6.412   L-283.451,292.686z"/>
	<path d="M-287.588,294.38c4.887-5.77,8.315-12.429,10.279-16.829l-16.826-13.23c0,0-9.248,5.856-14.919,12.799   c-6.688,8.191-10.089,17.821-10.089,17.821l16.736,13.159C-299.464,305.99-293.433,301.284-287.588,294.38z"/>
</g>
</svg>