<svg xmlns="http://www.w3.org/2000/svg" xmlns:xlink="http://www.w3.org/1999/xlink" version="1.1" id="Layer_1" x="0px" y="0px" width="100px" height="100px" viewBox="-346 256 100 100" enable-background="new -346 256 100 100" xml:space="preserve">
<polygon points="-293.301,348.123 -283.003,348.123 -277.144,348.123 -277.144,340.525 -293.301,340.525 "/>
<path d="M-246.187,328.776h-2.956v8.55h-1.791v-8.55c0,0-3.465-2.092-9.393-3.645c-1.568-0.412-3.235-0.739-4.612-0.979v-7.479  h-2.074v7.146c-0.61-0.088-0.98-0.135-0.98-0.135l-1.577-9.83l3.508-3.289l0.053-4.007h-75.776v33.386H-346v6.299h11.48  c-0.059,0.404-0.091,0.816-0.091,1.236c0,4.705,3.814,8.521,8.521,8.521s8.522-3.816,8.522-8.521c0-0.42-0.031-0.832-0.09-1.236  h2.535v4.581h20.655V339.36h3.237v-25.422h18.984v22.668l-0.386,0.102c-0.01,0.003-1.153,0.327-2.136,1.386  c-0.55,0.593-1.046,1.587-1.209,1.935v8.095h3.236c0.329,4.404,4.005,7.877,8.495,7.877c4.706,0,8.522-3.816,8.522-8.521  c0-0.607-0.064-1.198-0.186-1.77h9.722V328.776z M-326.09,351.785c-2.378,0-4.307-1.929-4.307-4.307s1.928-4.307,4.307-4.307  c2.379,0,4.307,1.929,4.307,4.307S-323.711,351.785-326.09,351.785z M-297.864,322.15h-4.998v-4.064h4.998V322.15z   M-264.245,351.785c-2.379,0-4.307-1.929-4.307-4.307s1.928-4.307,4.307-4.307c2.378,0,4.307,1.929,4.307,4.307  S-261.867,351.785-264.245,351.785z"/>
<path d="M-290.187,314.979v24.381h13.376c0.246-0.496,0.726-1.378,1.279-1.977c0.827-0.89,1.739-1.347,2.242-1.547v-20.857H-290.187  z M-285.797,328.766c-0.596,0-1.078-0.482-1.078-1.079c0-0.595,0.482-1.078,1.078-1.078s1.079,0.483,1.079,1.078  C-284.718,328.283-285.201,328.766-285.797,328.766z M-276.822,323.827h-9.746v-5.741h9.746V323.827z"/>
</svg>