<svg xmlns="http://www.w3.org/2000/svg" xmlns:xlink="http://www.w3.org/1999/xlink" version="1.1" id="Layer_1" x="0px" y="0px" width="9.782px" height="56.32px" viewBox="294.629 172.024 9.782 56.32" enable-background="new 294.629 172.024 9.782 56.32" xml:space="preserve">
<g>
	<polygon points="298.124,199.878 300.916,199.878 300.916,180.899 301.916,178.086 300.916,172.024 298.124,172.024    297.124,178.086 298.124,180.899  "/>
	<path d="M304.411,202.791v-2.113h-9.782v2.113c1.021,0,1.848,1.018,1.848,2.271c0,1.256-0.827,2.274-1.848,2.274v16.776   c0.325,2.386,2.416,4.23,4.892,4.23c2.475,0,4.565-1.846,4.891-4.23v-16.776c-1.021,0-1.85-1.019-1.85-2.274   C302.562,203.809,303.391,202.791,304.411,202.791z M297.262,223.68c0,0.221-0.179,0.4-0.4,0.4c-0.221,0-0.4-0.18-0.4-0.4v-14.835   c0-0.221,0.179-0.399,0.4-0.399c0.221,0,0.4,0.18,0.4,0.399V223.68z M299.919,223.68c0,0.221-0.179,0.4-0.4,0.4s-0.4-0.18-0.4-0.4   v-14.835c0-0.221,0.179-0.399,0.4-0.399s0.4,0.18,0.4,0.399V223.68z M302.577,208.846v14.834c0,0.221-0.181,0.4-0.4,0.4   s-0.399-0.18-0.399-0.4v-14.834c0-0.222,0.18-0.4,0.399-0.4S302.577,208.624,302.577,208.846z"/>
</g>
</svg>