<svg xmlns:dc="http://purl.org/dc/elements/1.1/" xmlns:cc="http://creativecommons.org/ns#" xmlns:rdf="http://www.w3.org/1999/02/22-rdf-syntax-ns#" xmlns:svg="http://www.w3.org/2000/svg" xmlns="http://www.w3.org/2000/svg" xmlns:sodipodi="http://sodipodi.sourceforge.net/DTD/sodipodi-0.dtd" xmlns:inkscape="http://www.inkscape.org/namespaces/inkscape" width="99.999962" height="75" id="svg4065" version="1.1" inkscape:version="0.48.2 r9819" sodipodi:docname="social_media_g+.svg">
  <defs id="defs4067"/>
  <sodipodi:namedview id="base" pagecolor="#ffffff" bordercolor="#666666" borderopacity="1.0" inkscape:pageopacity="0.0" inkscape:pageshadow="2" inkscape:zoom="0.35" inkscape:cx="-247.09345" inkscape:cy="224.64349" inkscape:document-units="px" inkscape:current-layer="layer1" showgrid="false" fit-margin-top="0" fit-margin-left="0" fit-margin-right="0" fit-margin-bottom="0" inkscape:window-width="1280" inkscape:window-height="975" inkscape:window-x="-4" inkscape:window-y="-4" inkscape:window-maximized="1"/>
  <metadata id="metadata4070">
    <rdf:RDF>
      <cc:Work rdf:about="">
        <dc:format>image/svg+xml</dc:format>
        <dc:type rdf:resource="http://purl.org/dc/dcmitype/StillImage"/>
        <dc:title/>
      </cc:Work>
    </rdf:RDF>
  </metadata>
  <g inkscape:label="Ebene 1" inkscape:groupmode="layer" id="layer1" transform="translate(-948.79474,-830.34113)">
    <path sodipodi:nodetypes="sssssssssccccccccccccccccccccccccccccccccccccccccccccc" inkscape:connector-curvature="0" style="fill:#000000;fill-opacity:1;stroke:none" d="m 952.12804,830.34113 c -1.6666,0 -3.3333,1.66667 -3.3333,3.33333 l 0,68.33334 c 0,1.66666 1.6667,3.33333 3.3333,3.33333 l 93.33336,0 c 1.6666,0 3.3333,-1.66667 3.3333,-3.33333 l 0,-68.33334 c 0,-1.66666 -1.6667,-3.33333 -3.3333,-3.33333 z m 1.6667,5 26.6667,0 0,20 -26.6667,-0.0421 z m 31.6667,0 26.66656,0 0,20 -26.66656,0 z m 31.66656,0 26.6667,0 0,20 -26.6667,-0.0462 z m -63.33326,22.5 26.6667,0 0,20 -26.6667,-0.0523 z m 31.6667,0 26.66656,0 0,19.95378 -26.66656,0.0462 z m 31.66656,0 26.6667,0 0,19.95378 -26.6667,0 z m -63.33326,22.49593 26.6667,0.004 0,20 -26.6667,-0.0462 z m 31.6667,0.004 26.66656,-0.0462 0,20.04622 -26.66656,0 z m 31.66656,-0.0462 26.6667,10e-6 0,20 -26.6667,0 z" id="path4019"/>
    <rect y="838.6745" x="962.17352" height="1.6666666" width="9.9545279" id="rect4023" style="fill:#000000;fill-opacity:1;stroke:none"/>
    <rect style="fill:#000000;fill-opacity:1;stroke:none" id="rect4800" width="9.9545279" height="1.6666666" x="962.12811" y="861.1745"/>
    <rect y="883.67444" x="962.12811" height="1.6666666" width="9.9545279" id="rect4802" style="fill:#000000;fill-opacity:1;stroke:none"/>
    <rect style="fill:#000000;fill-opacity:1;stroke:none" id="rect4804" width="9.9545279" height="1.6666666" x="993.79474" y="883.67444"/>
    <rect y="861.1745" x="993.79474" height="1.6666666" width="9.9545279" id="rect4810" style="fill:#000000;fill-opacity:1;stroke:none"/>
    <rect style="fill:#000000;fill-opacity:1;stroke:none" id="rect4812" width="9.9545279" height="1.6666666" x="993.79474" y="838.6745"/>
    <rect y="838.6745" x="1025.4613" height="1.6666666" width="9.9545279" id="rect4814" style="fill:#000000;fill-opacity:1;stroke:none"/>
    <rect style="fill:#000000;fill-opacity:1;stroke:none" id="rect4816" width="9.9545279" height="1.6666666" x="1025.4613" y="861.1745"/>
    <rect y="883.67444" x="1025.4613" height="1.6666666" width="9.9545279" id="rect4818" style="fill:#000000;fill-opacity:1;stroke:none"/>
  </g>
</svg>