<svg xmlns:dc="http://purl.org/dc/elements/1.1/" xmlns:cc="http://creativecommons.org/ns#" xmlns:rdf="http://www.w3.org/1999/02/22-rdf-syntax-ns#" xmlns:svg="http://www.w3.org/2000/svg" xmlns="http://www.w3.org/2000/svg" xmlns:sodipodi="http://sodipodi.sourceforge.net/DTD/sodipodi-0.dtd" xmlns:inkscape="http://www.inkscape.org/namespaces/inkscape" width="100" height="19.178082" id="svg3905" version="1.1" inkscape:version="0.48.2 r9819" sodipodi:docname="cellphone.svg">
  <defs id="defs3907"/>
  <sodipodi:namedview id="base" pagecolor="#ffffff" bordercolor="#666666" borderopacity="1.0" inkscape:pageopacity="0.0" inkscape:pageshadow="2" inkscape:zoom="1.979899" inkscape:cx="-49.439787" inkscape:cy="23.536724" inkscape:document-units="px" inkscape:current-layer="layer1" showgrid="false" fit-margin-top="0" fit-margin-left="0" fit-margin-right="0.5" fit-margin-bottom="0" inkscape:window-width="1280" inkscape:window-height="975" inkscape:window-x="-4" inkscape:window-y="-4" inkscape:window-maximized="1" inkscape:snap-nodes="true" inkscape:snap-bbox="true">
    <inkscape:grid type="xygrid" id="grid3783" empspacing="5" visible="true" enabled="true" snapvisiblegridlinesonly="true"/>
  </sodipodi:namedview>
  <metadata id="metadata3910">
    <rdf:RDF>
      <cc:Work rdf:about="">
        <dc:format>image/svg+xml</dc:format>
        <dc:type rdf:resource="http://purl.org/dc/dcmitype/StillImage"/>
        <dc:title/>
        <dc:creator>
          <cc:Agent>
            <dc:title>Alex Hartmann</dc:title>
          </cc:Agent>
        </dc:creator>
        <cc:license rdf:resource="http://creativecommons.org/licenses/by-sa/3.0/"/>
        <dc:description>www.alexhartmann.net</dc:description>
      </cc:Work>
      <cc:License rdf:about="http://creativecommons.org/licenses/by-sa/3.0/">
        <cc:permits rdf:resource="http://creativecommons.org/ns#Reproduction"/>
        <cc:permits rdf:resource="http://creativecommons.org/ns#Distribution"/>
        <cc:requires rdf:resource="http://creativecommons.org/ns#Notice"/>
        <cc:requires rdf:resource="http://creativecommons.org/ns#Attribution"/>
        <cc:permits rdf:resource="http://creativecommons.org/ns#DerivativeWorks"/>
        <cc:requires rdf:resource="http://creativecommons.org/ns#ShareAlike"/>
      </cc:License>
    </rdf:RDF>
  </metadata>
  <g inkscape:label="Ebene 1" inkscape:groupmode="layer" id="layer1" transform="translate(-183.47373,-191.26163)">
    <g transform="matrix(0.2739726,0,0,0.2739726,-727.80864,749.55858)" id="g9587">
      <path sodipodi:nodetypes="sscsscsccccscsscsssccss" inkscape:connector-curvature="0" id="rect6675" d="m 3595.002,-2037.7839 c -1.3656,0 -2.4648,1.6262 -2.4648,3.6663 l 0,12.3548 -147.1479,0 c -2.1849,0 -3.9437,1.6262 -3.9437,3.6663 l 0,11.5845 -12.4164,0 c -2.187,0 -3.9996,1.6911 -4.5907,4.0054 l -78.5633,0 -19.6945,8.5651 98.2578,0 c 0.5911,2.3143 2.4037,4.0054 4.5907,4.0054 l 12.4164,0 0,2.4339 c 0,2.0401 1.7588,3.6972 3.9437,3.6972 l 147.1479,0 0,12.3239 c 0,2.0402 1.0992,3.6972 2.4648,3.6972 1.3655,0 2.4648,-1.657 2.4648,-3.6972 l 0,-19.7887 c 0,0 -0.014,-24.4856 0,-24.3984 l 0,-18.4494 c 0,-2.0401 -1.0993,-3.6663 -2.4648,-3.6663 z" style="fill:#000000;fill-opacity:1;fill-rule:nonzero;stroke:none"/>
      <path inkscape:connector-curvature="0" id="rect6681" d="m 3689.0799,-2023.9811 c -1.1639,0 -2.1008,1.6262 -2.1008,3.6663 l 0,3.7589 c -0.083,0 -0.1627,-0.03 -0.2472,-0.03 l -101.3318,0 c -2.1909,0 -3.9545,1.6261 -3.9545,3.6663 l 0,20.2421 c 0,2.0402 1.7636,3.6972 3.9545,3.6972 l 101.3318,0 c 0.084,0 0.1641,-0.026 0.2472,-0.031 l 0,3.7281 c 0,2.0401 0.9369,3.6972 2.1008,3.6972 1.1638,0 2.1008,-1.6571 2.1008,-3.6972 l 0,-35.0309 c 0,-2.0401 -0.937,-3.6663 -2.1008,-3.6663 z" style="fill:#000000;fill-opacity:1;fill-rule:nonzero;stroke:none"/>
    </g>
  </g>
</svg>