<svg xmlns:dc="http://purl.org/dc/elements/1.1/" xmlns:cc="http://creativecommons.org/ns#" xmlns:rdf="http://www.w3.org/1999/02/22-rdf-syntax-ns#" xmlns:svg="http://www.w3.org/2000/svg" xmlns="http://www.w3.org/2000/svg" xmlns:sodipodi="http://sodipodi.sourceforge.net/DTD/sodipodi-0.dtd" xmlns:inkscape="http://www.inkscape.org/namespaces/inkscape" width="76.942734" height="100" id="svg3905" version="1.1" inkscape:version="0.48.2 r9819" sodipodi:docname="teddy_bear.svg">
  <defs id="defs3907"/>
  <sodipodi:namedview id="base" pagecolor="#ffffff" bordercolor="#666666" borderopacity="1.0" inkscape:pageopacity="0.0" inkscape:pageshadow="2" inkscape:zoom="1.979899" inkscape:cx="-8.4076942" inkscape:cy="32.585919" inkscape:document-units="px" inkscape:current-layer="layer1" showgrid="false" fit-margin-top="0" fit-margin-left="0" fit-margin-right="0.5" fit-margin-bottom="0" inkscape:window-width="1280" inkscape:window-height="975" inkscape:window-x="-4" inkscape:window-y="-4" inkscape:window-maximized="1" inkscape:snap-nodes="true" inkscape:snap-bbox="true">
    <inkscape:grid type="xygrid" id="grid3783" empspacing="5" visible="true" enabled="true" snapvisiblegridlinesonly="true"/>
  </sodipodi:namedview>
  <metadata id="metadata3910">
    <rdf:RDF>
      <cc:Work rdf:about="">
        <dc:format>image/svg+xml</dc:format>
        <dc:type rdf:resource="http://purl.org/dc/dcmitype/StillImage"/>
        <dc:title/>
        <dc:creator>
          <cc:Agent>
            <dc:title>Alex Hartmann</dc:title>
          </cc:Agent>
        </dc:creator>
        <cc:license rdf:resource="http://creativecommons.org/licenses/by-sa/3.0/"/>
        <dc:description>www.alexhartmann.net</dc:description>
      </cc:Work>
      <cc:License rdf:about="http://creativecommons.org/licenses/by-sa/3.0/">
        <cc:permits rdf:resource="http://creativecommons.org/ns#Reproduction"/>
        <cc:permits rdf:resource="http://creativecommons.org/ns#Distribution"/>
        <cc:requires rdf:resource="http://creativecommons.org/ns#Notice"/>
        <cc:requires rdf:resource="http://creativecommons.org/ns#Attribution"/>
        <cc:permits rdf:resource="http://creativecommons.org/ns#DerivativeWorks"/>
        <cc:requires rdf:resource="http://creativecommons.org/ns#ShareAlike"/>
      </cc:License>
    </rdf:RDF>
  </metadata>
  <g inkscape:label="Ebene 1" inkscape:groupmode="layer" id="layer1" transform="translate(35.492183,-326.58948)">
    <path style="fill:#000000;fill-opacity:1;fill-rule:nonzero;stroke:none" d="m 22.328194,386.97967 c 0,10.27919 -5.124717,21.77777 -19.2734499,21.84327 -14.0190921,0.0649 -19.2734831,-11.56408 -19.2734811,-21.84327 2e-6,-6.91889 2.157262,-16.54277 5.645077,-20.27006 3.4878148,-3.72728 8.3061843,-1.55797 13.6284041,-1.55797 5.3222209,0 10.3931219,-1.4117 13.8809289,2.31559 3.487807,3.72728 5.392521,12.59355 5.392521,19.51244 z" id="path4183" inkscape:connector-curvature="0" sodipodi:nodetypes="sssssss"/>
    <path sodipodi:type="arc" style="fill:#000000;fill-opacity:1;stroke:none" id="path4187" sodipodi:cx="-728.32001" sodipodi:cy="702.3443" sodipodi:rx="43.840622" sodipodi:ry="98.287842" d="m -684.47939,702.3443 c 0,54.28288 -19.62811,98.28784 -43.84062,98.28784 -24.2125,0 -43.84062,-44.00496 -43.84062,-98.28784 0,-54.28288 19.62812,-98.28784 43.84062,-98.28784 24.21251,0 43.84062,44.00496 43.84062,98.28784 z" transform="matrix(0.13745346,0.14519226,-0.14074871,0.14319417,178.56519,382.62485)"/>
    <path style="fill:#000000;fill-opacity:1;stroke:none" d="M 38.1875 3.0625 C 27.587516 3.3440335 19.200902 12.026299 19.46875 22.4375 C 19.736598 32.848701 28.556266 41.062784 39.15625 40.78125 C 49.756234 40.499716 58.111598 31.817451 57.84375 21.40625 C 57.575902 10.995049 48.787484 2.7809665 38.1875 3.0625 z M 38.375 20.125 C 43.901462 19.978218 48.551843 23.724598 48.90625 28.59375 L 48.90625 28.96875 C 49.035556 33.994847 44.536335 38.192556 38.84375 38.34375 C 33.151165 38.494944 28.441806 34.526097 28.3125 29.5 C 28.183194 24.473903 32.682415 20.276194 38.375 20.125 z " transform="translate(-35.492183,326.58948)" id="path4189"/>
    <path sodipodi:type="arc" style="fill:#000000;fill-opacity:1;stroke:none" id="path4193" sodipodi:cx="-940.45203" sodipodi:cy="655.67529" sodipodi:rx="26.870058" sodipodi:ry="13.435029" d="m -913.58197,655.67529 c 0,7.41996 -12.03013,13.43503 -26.87006,13.43503 -14.83992,0 -26.87005,-6.01507 -26.87005,-13.43503 0,-7.41996 12.03013,-13.43503 26.87005,-13.43503 14.40686,0 26.25006,5.68112 26.84699,12.87837" sodipodi:start="0" sodipodi:end="6.2417396" sodipodi:open="true" transform="matrix(0.20105895,-0.00534009,0.00525568,0.20428772,188.67053,213.61046)"/>
    <path sodipodi:type="arc" style="fill:#000000;fill-opacity:1;stroke:none" id="path4195" sodipodi:cx="-432" sodipodi:cy="535.36218" sodipodi:rx="54" sodipodi:ry="38" d="m -378,535.36218 c 0,20.98682 -24.17662,38 -54,38 -29.82338,0 -54,-17.01318 -54,-38 0,-20.98682 24.17662,-38 54,-38 28.95306,0 52.75399,16.06864 53.95363,36.42552" sodipodi:start="0" sodipodi:end="6.2417396" sodipodi:open="true" transform="matrix(0.1550468,0.16744317,-0.16479673,0.15753667,173.08765,325.43099)"/>
    <path transform="matrix(-0.14622537,0.1754449,0.17267199,0.14857357,-168.02171,335.18073)" sodipodi:open="true" sodipodi:end="6.2417396" sodipodi:start="0" d="m -378,535.36218 c 0,20.98682 -24.17662,38 -54,38 -29.82338,0 -54,-17.01318 -54,-38 0,-20.98682 24.17662,-38 54,-38 28.95306,0 52.75399,16.06864 53.95363,36.42552" sodipodi:ry="38" sodipodi:rx="54" sodipodi:cy="535.36218" sodipodi:cx="-432" id="path4197" style="fill:#000000;fill-opacity:1;stroke:none" sodipodi:type="arc"/>
    <path style="fill:#000000;fill-opacity:1;stroke:none" d="m 15.532061,391.32096 c -3.304165,-2.01924 -6.519339,-2.40828 -8.9618523,-0.66794 -4.8850267,3.48063 -4.6558781,14.08967 0.5431262,23.73278 1.9496009,3.61616 2.6911153,4.76044 4.9198221,7.59012 1.923132,2.44167 4.790458,3.86176 7.529577,4.39967 3.727951,0.73206 10.123118,-0.41471 13.803913,-3.44625 2.792159,-2.29961 6.005303,-6.47162 4.684325,-9.86799 -1.356132,-3.4868 -2.701574,-4.20431 -10.325951,-4.05359 -0.677604,-2.3712 -1.604735,-4.85581 -2.883619,-7.22786 -2.599502,-4.82158 -6.005226,-8.43965 -9.309392,-10.45889 z" id="path4199" inkscape:connector-curvature="0" sodipodi:nodetypes="cssssaacssc"/>
    <path sodipodi:nodetypes="cssssaacssc" inkscape:connector-curvature="0" id="path4201" d="m -9.422656,391.32096 c 3.3041914,-2.01922 6.5193651,-2.40826 8.96187898,-0.66794 4.88502672,3.48066 4.65590372,14.08967 -0.54312678,23.73278 -1.9496009,3.61619 -2.6911153,4.76044 -4.9198217,7.59012 -1.923132,2.44167 -4.7904605,3.86176 -7.5295795,4.39967 -3.727951,0.73208 -10.123118,-0.41471 -13.803913,-3.44625 -2.79216,-2.29961 -6.005302,-6.47162 -4.68435,-9.86799 1.356182,-3.4868 2.701599,-4.20431 10.32595,-4.05359 0.67763,-2.3712 1.60476,-4.85581 2.883645,-7.22786 2.599502,-4.82155 6.005226,-8.43965 9.3093941,-10.45889 z" style="fill:#000000;fill-opacity:1;stroke:none"/>
    <path transform="matrix(-0.13745346,0.14519226,0.14074871,0.14319418,-173.10682,382.62485)" d="m -684.47939,702.3443 c 0,54.28288 -19.62811,98.28784 -43.84062,98.28784 -24.2125,0 -43.84062,-44.00496 -43.84062,-98.28784 0,-54.28288 19.62812,-98.28784 43.84062,-98.28784 24.21251,0 43.84062,44.00496 43.84062,98.28784 z" sodipodi:ry="98.287842" sodipodi:rx="43.840622" sodipodi:cy="702.3443" sodipodi:cx="-728.32001" id="path4203" style="fill:#000000;fill-opacity:1;stroke:none" sodipodi:type="arc"/>
  </g>
</svg>