<svg xmlns:dc="http://purl.org/dc/elements/1.1/" xmlns:cc="http://creativecommons.org/ns#" xmlns:rdf="http://www.w3.org/1999/02/22-rdf-syntax-ns#" xmlns:svg="http://www.w3.org/2000/svg" xmlns="http://www.w3.org/2000/svg" xmlns:sodipodi="http://sodipodi.sourceforge.net/DTD/sodipodi-0.dtd" xmlns:inkscape="http://www.inkscape.org/namespaces/inkscape" width="100.5" height="38.461559" id="svg3905" version="1.1" inkscape:version="0.48.2 r9819" sodipodi:docname="cloud.svg">
  <defs id="defs3907"/>
  <sodipodi:namedview id="base" pagecolor="#ffffff" bordercolor="#666666" borderopacity="1.0" inkscape:pageopacity="0.0" inkscape:pageshadow="2" inkscape:zoom="1.979899" inkscape:cx="38.537933" inkscape:cy="-33.850375" inkscape:document-units="px" inkscape:current-layer="layer1" showgrid="false" fit-margin-top="0" fit-margin-left="0" fit-margin-right="0.5" fit-margin-bottom="0" inkscape:window-width="1280" inkscape:window-height="975" inkscape:window-x="-4" inkscape:window-y="-4" inkscape:window-maximized="1" inkscape:snap-nodes="true" inkscape:snap-bbox="true">
    <inkscape:grid type="xygrid" id="grid3783" empspacing="5" visible="true" enabled="true" snapvisiblegridlinesonly="true"/>
  </sodipodi:namedview>
  <metadata id="metadata3910">
    <rdf:RDF>
      <cc:Work rdf:about="">
        <dc:format>image/svg+xml</dc:format>
        <dc:type rdf:resource="http://purl.org/dc/dcmitype/StillImage"/>
        <dc:title/>
        <dc:creator>
          <cc:Agent>
            <dc:title>Alex Hartmann</dc:title>
          </cc:Agent>
        </dc:creator>
        <cc:license rdf:resource="http://creativecommons.org/licenses/by-sa/3.0/"/>
        <dc:description>www.alexhartmann.net</dc:description>
      </cc:Work>
      <cc:License rdf:about="http://creativecommons.org/licenses/by-sa/3.0/">
        <cc:permits rdf:resource="http://creativecommons.org/ns#Reproduction"/>
        <cc:permits rdf:resource="http://creativecommons.org/ns#Distribution"/>
        <cc:requires rdf:resource="http://creativecommons.org/ns#Notice"/>
        <cc:requires rdf:resource="http://creativecommons.org/ns#Attribution"/>
        <cc:permits rdf:resource="http://creativecommons.org/ns#DerivativeWorks"/>
        <cc:requires rdf:resource="http://creativecommons.org/ns#ShareAlike"/>
      </cc:License>
    </rdf:RDF>
  </metadata>
  <g inkscape:label="Ebene 1" inkscape:groupmode="layer" id="layer1" transform="translate(124.64384,-402.50383)">
    <path style="fill:#000000;fill-opacity:1;fill-rule:nonzero;stroke:none" d="m -49.081267,422.45287 c 0.01289,9.57911 -10.830949,17.26362 -24.828216,17.1174 -15.264611,-0.15943 -24.862074,-7.99252 -24.874894,-17.57164 -0.01289,-9.57911 10.017465,-17.3798 24.828288,-17.1174 14.965975,0.26515 24.696265,7.86432 24.872731,17.36281" id="path6292" inkscape:connector-curvature="0" sodipodi:nodetypes="csssc"/>
    <path sodipodi:nodetypes="cszssssssc" inkscape:connector-curvature="0" id="path4855" d="m -29.492245,402.90026 c 0,0 -19.357678,3.33038 -26.808364,17.01754 -1.472364,2.7047 -6.798519,-1.71748 0.312293,6.10193 7.110669,7.81932 26.97741,14.57781 26.97741,14.57781 2.603924,1.12576 4.462917,-0.44116 3.954502,-3.21937 0,0 -0.671247,-2.60393 -1.339755,-5.87278 -0.668369,-3.26886 1.741055,-7.27538 1.752278,-9.93512 0.01154,-2.59813 -2.381493,-6.36362 -1.701524,-9.55229 0.67997,-3.18867 1.357239,-5.72781 1.357239,-5.72781 0.494662,-2.78139 -0.717154,-4.12643 -4.504079,-3.38991 z" style="fill:#000000;fill-opacity:1;fill-rule:nonzero;stroke:none"/>
    <path style="fill:#000000;fill-opacity:1;fill-rule:nonzero;stroke:none" d="m -119.97845,440.70277 c 0,0 17.31379,-1.04573 29.537064,-15.94288 1.955275,-2.38298 7.491448,0.48373 0.427029,-7.37796 -7.064277,-7.86161 -30.149663,-14.50059 -30.149663,-14.50059 -2.59729,-1.14128 -4.46551,0.41452 -3.97358,3.19573 0,0 0.65582,2.60788 1.30496,5.88067 0.64914,3.27278 -1.78404,7.26486 -1.81098,9.92447 -0.0266,2.59803 2.34387,6.37773 1.64502,9.56229 -0.69879,3.18456 -1.39106,5.71961 -1.39106,5.71961 -0.51113,2.77839 1.46676,3.91852 4.41121,3.53866 z" id="path4857" inkscape:connector-curvature="0" sodipodi:nodetypes="cszssssssc"/>
  </g>
</svg>