<svg xmlns:dc="http://purl.org/dc/elements/1.1/" xmlns:cc="http://creativecommons.org/ns#" xmlns:rdf="http://www.w3.org/1999/02/22-rdf-syntax-ns#" xmlns:svg="http://www.w3.org/2000/svg" xmlns="http://www.w3.org/2000/svg" xmlns:sodipodi="http://sodipodi.sourceforge.net/DTD/sodipodi-0.dtd" xmlns:inkscape="http://www.inkscape.org/namespaces/inkscape" width="100.49999" height="43.649979" id="svg3905" version="1.1" inkscape:version="0.48.2 r9819" sodipodi:docname="cloud_computing.svg">
  <defs id="defs3907"/>
  <sodipodi:namedview id="base" pagecolor="#ffffff" bordercolor="#666666" borderopacity="1.0" inkscape:pageopacity="0.0" inkscape:pageshadow="2" inkscape:zoom="2.8284271" inkscape:cx="26.898522" inkscape:cy="98.177744" inkscape:document-units="px" inkscape:current-layer="layer1" showgrid="false" fit-margin-top="0" fit-margin-left="0" fit-margin-right="0.5" fit-margin-bottom="-0.1" inkscape:window-width="1280" inkscape:window-height="975" inkscape:window-x="-4" inkscape:window-y="-4" inkscape:window-maximized="1" inkscape:snap-nodes="true" inkscape:snap-bbox="true">
    <inkscape:grid type="xygrid" id="grid3783" empspacing="5" visible="true" enabled="true" snapvisiblegridlinesonly="true"/>
  </sodipodi:namedview>
  <metadata id="metadata3910">
    <rdf:RDF>
      <cc:Work rdf:about="">
        <dc:format>image/svg+xml</dc:format>
        <dc:type rdf:resource="http://purl.org/dc/dcmitype/StillImage"/>
        <dc:title/>
        <dc:creator>
          <cc:Agent>
            <dc:title>Alex Hartmann</dc:title>
          </cc:Agent>
        </dc:creator>
        <cc:license rdf:resource="http://creativecommons.org/licenses/by-sa/3.0/"/>
        <dc:description>www.alexhartmann.net</dc:description>
      </cc:Work>
      <cc:License rdf:about="http://creativecommons.org/licenses/by-sa/3.0/">
        <cc:permits rdf:resource="http://creativecommons.org/ns#Reproduction"/>
        <cc:permits rdf:resource="http://creativecommons.org/ns#Distribution"/>
        <cc:requires rdf:resource="http://creativecommons.org/ns#Notice"/>
        <cc:requires rdf:resource="http://creativecommons.org/ns#Attribution"/>
        <cc:permits rdf:resource="http://creativecommons.org/ns#DerivativeWorks"/>
        <cc:requires rdf:resource="http://creativecommons.org/ns#ShareAlike"/>
      </cc:License>
    </rdf:RDF>
  </metadata>
  <g inkscape:label="Ebene 1" inkscape:groupmode="layer" id="layer1" transform="translate(1066.4559,-894.20962)">
    <path style="fill:#000000;fill-opacity:1;fill-rule:nonzero;stroke:#000000;stroke-width:2.25873947;stroke-linejoin:miter;stroke-miterlimit:4;stroke-opacity:1" d="m -967.58528,914.87658 -5.14354,-4.74395 -52.10818,-0.29146 c -2.6233,-8.32812 -10.367,-14.40572 -19.5616,-14.50105 -11.4436,-0.11862 -20.8083,9.07814 -20.9268,20.536 -0.1185,11.45788 9.0668,20.83435 20.5104,20.95297 9.1946,0.0953 17.0476,-5.82338 19.8426,-14.09535 l 3.2226,0.0374 c 0,0 1.6361,2.99479 3.0614,3.74884 0.5746,0.30391 1.9365,0.16365 1.9365,0.16365 l 0.1193,-3.97451 4.592,0.16019 2.826,3.43058 3.633,-3.36976 3.2227,0.0372 3.35744,-2.59389 3.11537,2.66861 3.24775,-1.9014 3.99958,1.97508 2.34121,2.91885 2.62397,-2.93916 3.96721,-1.70847 4.19537,3.58115 2.23836,-1.69235 z m -82.50502,-3.86702 c 1.2685,1.29689 2.046,3.07949 2.0258,5.03798 -0.041,3.91709 -3.243,7.05697 -7.1552,7.01637 -3.9121,-0.0406 -7.0481,-3.24704 -7.0076,-7.16407 0.041,-3.91707 3.243,-7.05695 7.1551,-7.01635 1.9562,0.0202 3.7133,0.82927 4.9819,2.12607 z" id="path13230" inkscape:connector-curvature="0" sodipodi:nodetypes="cccssscccccccccccccccccccccsccc"/>
  </g>
</svg>