<?xml version="1.0" encoding="utf-8"?>
<!-- Generator: Adobe Illustrator 14.0.0, SVG Export Plug-In . SVG Version: 6.00 Build 43363)  -->
<!DOCTYPE svg PUBLIC "-//W3C//DTD SVG 1.0//EN" "http://www.w3.org/TR/2001/REC-SVG-20010904/DTD/svg10.dtd">
<svg version="1.0" id="Layer_1" xmlns="http://www.w3.org/2000/svg" xmlns:xlink="http://www.w3.org/1999/xlink" x="0px" y="0px"
	 width="88.25px" height="100px" viewBox="0 0 88.25 100" enable-background="new 0 0 88.25 100" xml:space="preserve">
<path fill-rule="evenodd" clip-rule="evenodd" d="M81.125,20.224c-0.044,0.195,0.09,0.217,0.23,0.229
	c0.951-0.194,0.707,0.937,1.147,1.379c0.136,0.134,0.99-0.161,0.92,0.461c1.037-1.172,3.379-0.387,4.827-0.69
	c-0.303,1-1.482,1.123-2.299,1.608c-0.85,0.875-1.802,1.19-2.988,1.839c-0.102,0.056-0.383,0.436-0.46,0.459
	c-0.196,0.061-0.501-0.086-0.688,0c-0.201,0.093-0.152,0.387-0.46,0.459c-0.209,0.049-0.489-0.073-0.69,0
	c-0.119,0.043-0.373,0.435-0.46,0.461c-0.206,0.062-0.487-0.077-0.688,0c-0.118,0.044-0.375,0.434-0.46,0.459
	c-0.518,0.156-1.087,0.222-1.61,0.459c-2.024,0.928-3.816,2.366-5.514,3.909c-1.279,1.159-2.258,2.418-3.449,3.906
	c-0.581,0.729-1.159,1.627-1.835,2.298c-1.274,1.258-3.132,2.14-4.139,3.906c-1.448,0.39-2.052,1.626-3.217,2.298
	c-0.094,0.554,0.419,0.499,0.228,1.149c-1.479-0.989-1.191,2.258-2.525,1.379c-0.062,3.356,0.024,6.563,0.23,9.651
	c-0.405,0.211-0.8,0.429-0.69,1.147c-0.438,0.434-0.576,0.027-1.15,0c-0.249,0.301-0.177,0.731-0.458,0.921
	c-0.262,0.177-0.426-0.235-0.46-0.23c-0.317,0.046-0.049,0.327-0.23,0.46c-0.428,0.315-1.121,0.262-1.378,1.15
	c-0.47-0.462-0.45,0.102-0.92,0.23c-0.182,1.349-0.719,2.344-1.607,2.985c0,0.613,0,1.226,0,1.841
	c0.438,0.571,0.997-0.288,1.607,0.228c0.314,0.911,0.792,1.659,1.378,2.299c-0.37,1.01-0.896,1.862-1.378,2.758
	c0.063,0.78-0.179,1.865,0.23,2.299c-0.098,0.44-0.083,0.99-0.69,0.917c0.782,1.415,0.831,3.851,0,5.289
	c1.116,1.104,2.787,1.654,3.448,3.217c0.623,0.143,1.824-0.294,2.068,0.229c0.884,0.034,0.56,1.278,1.147,1.608
	c1.715,0.431,3.197,1.095,4.367,2.067c-0.121,0.965,0.401,1.284,0.46,2.068c1.131,0.86,2.306,1.679,3.446,2.528
	c0.38-0.031-0.24-0.959,0-1.607c0.76-0.121,1.99,0.191,2.758,0.688c0.15,0.1,0.124,0.397,0.23,0.46
	c0.262,0.16,0.683,0.039,0.92,0.23c0.077,0.062-0.072,0.387,0,0.46c0.075,0.075,0.388-0.078,0.46,0
	c0.121,0.131,0.111,0.337,0.228,0.46c0.402,0.419,0.892,1.761,0.46,2.756c0.109,0.942-0.576-0.005-0.917,0
	c0.678,0.887,0.082,2.1,0.229,3.219c0.131,1.005,0.731,1.779,0.688,2.758c-20.834,0.933-43.384,0.812-64.807,0.46
	c0.426-6.489-0.568-13.282,0-19.766c0.049-0.55,0.385-1.073,0.459-1.608c0.279-1.98-0.129-4.47,0-6.664
	c0.073-1.206,0.529-2.23,0-3.216c-0.46-0.996-1.876-1.034-2.757-1.61c-0.286-0.555-0.569-1.114-0.69-1.839
	c-0.291-0.55-1.006-0.678-0.918-1.607c0.256-1.315,1.738-1.479,2.528-2.299c0.287-0.298,0.09-0.917,0.689-0.917
	c0.523-3.057,0.277-5.48,0-8.505c-1.72-2.393-2.483-6.742-1.609-9.883c-0.032-0.812-0.658-1.027-0.69-1.838
	c0.299-2.079-0.07-6.052,0-8.272c0.062-1.913-0.361-3.132-0.918-4.827c-0.146-0.447-0.535-0.902-0.69-1.379
	c-0.114-0.346,0.109-0.8,0-1.148c-0.032-0.104-0.446-0.396-0.46-0.461c-0.282-1.313-0.079-2.442-0.919-3.447
	c0.945-2.333-0.629-6.626,0.919-8.731C1.017,9.785,0.41,7.863,0,5.746c7.696,0.348,15.734,0.353,23.441,0.69
	c0.514-1.708,0.092-4.351,0.23-6.436c1.109,0.43,1.993-0.048,2.757,0.23c0.111,0.04,0.143,0.42,0.23,0.459
	c0.327,0.148,0.75,0.169,1.149,0.459c-0.092,1.957,0.759,4.892,1.379,6.895c0.101,0.792-0.091,1.289-0.23,1.841
	c0.611,1.432,2.232,1.828,4.136,1.378c0.879-0.111,0.719,0.813,1.15,1.149c1.711-0.179,2.74,0.323,4.366,0.23
	c0.204,0.561,0.536,0.997,0.459,1.838c0.835,0.309,2.044-0.2,3.217-0.23c0.365-0.277,0.201-0.632,0.46-0.917
	c0.344-0.384,1.461-0.853,1.838-0.92c0.421-0.076,0.935,0.171,1.61,0.23c0.56,0.05,2.223-0.305,2.528,0
	c0.056,0.057-0.068,0.425,0,0.459c0.179,0.093,0.509-0.094,0.688,0c0.72,0.381,1.787,1.107,2.988,1.149
	c0.301,0.991-0.653,0.728-0.92,1.15c0.397,0.958,1.758-0.28,2.528,0.459c0.37,1.238,0.322,2.897,1.607,3.216
	c0.55-0.615-0.138-1.043,0.23-1.837c0.741-0.333,1.928-0.218,2.988-0.231c0.484,0.436,0.71,1.131,0.921,1.84
	c1.314-0.091,1.501,0.947,2.985,0.689c0.267,0.27,0.262,0.812,0.23,1.379c0.443,0.398,1.891-0.206,1.607,0.918
	c1.347-0.2,1.872-0.069,3.219-0.459c1.218-1.233,2.63-2.274,4.366-2.989c0.942,0.131,0.608,1.539,1.378,1.839
	c0.407-0.945,0.139,0.801,0,0.69c0.204,0.165,0.746-0.383,1.61-0.461c0.797-0.071,2.022,0.269,2.756,0.23
	C79.177,20.619,80.301,20.091,81.125,20.224z M70.324,92.385c-0.062-0.062-0.349,0.111-0.23,0.23
	C70.157,92.678,70.443,92.504,70.324,92.385z"/>
<path fill-rule="evenodd" clip-rule="evenodd" d="M70.093,92.616c-0.118-0.119,0.168-0.293,0.23-0.23
	C70.443,92.504,70.157,92.678,70.093,92.616z"/>
<path d="M77.906,20.683c-0.733,0.039-1.959-0.301-2.756-0.23c-0.864,0.079-1.406,0.626-1.61,0.461c0.139,0.11,0.407-1.636,0-0.69
	c-0.77-0.3-0.436-1.708-1.378-1.839c-1.736,0.715-3.148,1.756-4.366,2.989c-1.347,0.39-1.872,0.259-3.219,0.459
	c0.283-1.124-1.164-0.52-1.607-0.918c0.031-0.567,0.036-1.109-0.23-1.379c-1.484,0.258-1.671-0.78-2.985-0.689
	c-0.211-0.709-0.437-1.404-0.921-1.84c-1.061,0.013-2.247-0.102-2.988,0.231c-0.368,0.794,0.319,1.222-0.23,1.837
	c-1.285-0.319-1.237-1.979-1.607-3.216c-0.771-0.739-2.131,0.499-2.528-0.459c0.267-0.422,1.221-0.16,0.92-1.15
	c-1.201-0.042-2.269-0.768-2.988-1.149c-0.179-0.094-0.509,0.093-0.688,0c-0.068-0.034,0.056-0.402,0-0.459
	c-0.306-0.305-1.969,0.05-2.528,0c-0.675-0.059-1.188-0.306-1.61-0.23c-0.376,0.068-1.494,0.537-1.838,0.92
	c-0.259,0.286-0.096,0.641-0.46,0.917c-1.173,0.03-2.382,0.539-3.217,0.23c0.077-0.842-0.255-1.278-0.459-1.838
	c-1.626,0.093-2.655-0.409-4.366-0.23c-0.431-0.335-0.271-1.26-1.15-1.149c-1.904,0.45-3.525,0.054-4.136-1.378
	c0.139-0.552,0.331-1.049,0.23-1.841c-0.62-2.002-1.471-4.938-1.379-6.895c-0.398-0.29-0.822-0.311-1.149-0.459
	C26.571,0.65,26.54,0.27,26.428,0.23C25.665-0.048,24.78,0.43,23.671,0c-0.138,2.085,0.284,4.729-0.23,6.436
	C15.734,6.098,7.696,6.093,0,5.746c0.41,2.118,1.017,4.04,1.608,5.976c-1.549,2.105,0.025,6.398-0.919,8.731
	c0.84,1.005,0.637,2.134,0.919,3.447c0.014,0.065,0.428,0.357,0.46,0.461c0.109,0.348-0.114,0.802,0,1.148
	c0.155,0.477,0.543,0.932,0.69,1.379c0.557,1.694,0.98,2.914,0.918,4.827c-0.07,2.221,0.299,6.193,0,8.272
	c0.033,0.812,0.659,1.027,0.69,1.838c-0.875,3.141-0.111,7.49,1.609,9.883c0.277,3.024,0.523,5.448,0,8.505
	c-0.599,0-0.402,0.619-0.689,0.917c-0.791,0.819-2.272,0.983-2.528,2.299c-0.088,0.93,0.627,1.058,0.918,1.607
	c0.121,0.725,0.404,1.284,0.69,1.839c0.88,0.576,2.297,0.614,2.757,1.61c0.529,0.985,0.073,2.01,0,3.216
	c-0.129,2.194,0.279,4.684,0,6.664c-0.074,0.535-0.41,1.059-0.459,1.608c-0.568,6.483,0.426,13.276,0,19.766
	c21.423,0.352,43.973,0.473,64.807-0.46c0.044-0.979-0.557-1.753-0.688-2.758c-0.147-1.119,0.448-2.332-0.229-3.219
	c0.341-0.005,1.026,0.942,0.917,0c0.432-0.995-0.058-2.337-0.46-2.756c-0.116-0.123-0.106-0.329-0.228-0.46
	c-0.072-0.078-0.385,0.075-0.46,0c-0.072-0.073,0.077-0.397,0-0.46c-0.237-0.191-0.658-0.07-0.92-0.23
	c-0.106-0.062-0.08-0.36-0.23-0.46c-0.768-0.496-1.998-0.809-2.758-0.688c-0.24,0.648,0.38,1.576,0,1.607
	c-1.141-0.85-2.315-1.668-3.446-2.528c-0.059-0.784-0.581-1.104-0.46-2.068c-1.17-0.973-2.652-1.637-4.367-2.067
	c-0.588-0.33-0.264-1.574-1.147-1.608c-0.244-0.523-1.445-0.087-2.068-0.229c-0.661-1.562-2.332-2.112-3.448-3.217
	c0.831-1.438,0.782-3.874,0-5.289c0.607,0.073,0.593-0.477,0.69-0.917c-0.409-0.434-0.167-1.519-0.23-2.299
	c0.482-0.896,1.008-1.748,1.378-2.758c-0.586-0.64-1.063-1.388-1.378-2.299c-0.61-0.516-1.17,0.344-1.607-0.228
	c0-0.615,0-1.228,0-1.841c0.889-0.642,1.426-1.637,1.607-2.985c0.47-0.129,0.45-0.692,0.92-0.23c0.257-0.889,0.95-0.835,1.378-1.15
	c0.182-0.133-0.087-0.414,0.23-0.46c0.034-0.005,0.198,0.407,0.46,0.23c0.281-0.189,0.209-0.62,0.458-0.921
	c0.574,0.027,0.712,0.434,1.15,0c-0.109-0.719,0.285-0.937,0.69-1.147c-0.206-3.088-0.293-6.295-0.23-9.651
	c1.334,0.879,1.046-2.368,2.525-1.379c0.191-0.65-0.321-0.596-0.228-1.149c1.165-0.672,1.769-1.908,3.217-2.298
	c1.007-1.767,2.864-2.648,4.139-3.906c0.676-0.671,1.254-1.569,1.835-2.298c1.191-1.488,2.17-2.748,3.449-3.906
	c1.697-1.542,3.489-2.981,5.514-3.909c0.523-0.237,1.093-0.303,1.61-0.459c0.085-0.025,0.342-0.415,0.46-0.459
	c0.201-0.077,0.482,0.062,0.688,0c0.087-0.026,0.341-0.417,0.46-0.461c0.201-0.073,0.481,0.049,0.69,0
	c0.308-0.072,0.259-0.366,0.46-0.459c0.187-0.086,0.491,0.061,0.688,0c0.077-0.023,0.358-0.403,0.46-0.459
	c1.187-0.649,2.139-0.964,2.988-1.839c0.816-0.485,1.996-0.608,2.299-1.608c-1.448,0.303-3.79-0.482-4.827,0.69
	c0.07-0.622-0.784-0.327-0.92-0.461c-0.44-0.442-0.196-1.573-1.147-1.379c-0.141-0.012-0.274-0.034-0.23-0.229
	C80.301,20.091,79.177,20.619,77.906,20.683z"/>
</svg>
