<svg xmlns="http://www.w3.org/2000/svg" xmlns:xlink="http://www.w3.org/1999/xlink" version="1.1" id="Layer_1" x="0px" y="0px" width="100px" height="100px" viewBox="0 0 100 100" enable-background="new 0 0 100 100" xml:space="preserve">
<path d="M39.047,0v17.88v3.031v1.468c0,0,0.073,1.312,1.2,2.333c1.126,1.021,5.332,4.83,5.332,4.83s0.688,0.639,1.805,0.639  c0.293,0,0.805,0,1.399,0v0.989v1.768v15.084h-0.028c0,0-3.047,0-1.919,5.031c1.365,6.093,0.73,22.346,0,29.73  c-1.463,14.777-1.229,17.083,3.209,17.083s4.591-2.62,3.007-17.187c-0.406-3.726-1.371-23.671,0-29.627  c1.156-5.031-1.838-5.031-1.838-5.031V31.19v-1.009c0.893,0,1.572,0,1.572,0s0.938-0.007,1.65-0.653  c0.713-0.645,5.48-4.963,5.48-4.963s1.035-0.915,1.035-2.52c0-0.346,0-0.735,0-1.133V17.88V0H39.047z M46.402,22.019H45.3V4.644  h1.102V22.019z M52.463,96.062c0,1.28-1.078,2.318-2.409,2.318c-1.331,0-2.409-1.038-2.409-2.318c0-1.281,1.078-2.319,2.409-2.319  C51.385,93.742,52.463,94.78,52.463,96.062z M49.445,4.644h1.103v17.375h-1.103V4.644z M54.65,22.019h-1.104V4.644h1.104V22.019z"/>
</svg>