<svg xmlns="http://www.w3.org/2000/svg" xmlns:xlink="http://www.w3.org/1999/xlink" version="1.1" id="Layer_1" x="0px" y="0px" width="100px" height="34.354px" viewBox="0 0 100 34.354" enable-background="new 0 0 100 34.354" xml:space="preserve">
<path d="M95.943,0H4.057H0v4.057v26.241v4.057h4.057h91.887H100v-4.057V4.057V0H95.943z M92.922,0.875  c0.637,0,1.153,0.517,1.153,1.154c0,0.638-0.517,1.154-1.153,1.154c-0.638,0-1.154-0.517-1.154-1.154  C91.768,1.391,92.284,0.875,92.922,0.875z M87.872,0.875c0.638,0,1.154,0.517,1.154,1.154c0,0.638-0.517,1.154-1.154,1.154  s-1.154-0.517-1.154-1.154C86.718,1.391,87.234,0.875,87.872,0.875z M82.822,0.875c0.638,0,1.154,0.517,1.154,1.154  c0,0.638-0.517,1.154-1.154,1.154s-1.154-0.517-1.154-1.154C81.668,1.391,82.185,0.875,82.822,0.875z M77.772,0.875  c0.638,0,1.154,0.517,1.154,1.154c0,0.638-0.517,1.154-1.154,1.154c-0.637,0-1.153-0.517-1.153-1.154  C76.619,1.391,77.136,0.875,77.772,0.875z M72.723,0.875c0.638,0,1.154,0.517,1.154,1.154c0,0.638-0.517,1.154-1.154,1.154  c-0.637,0-1.154-0.517-1.154-1.154C71.568,1.391,72.086,0.875,72.723,0.875z M67.674,0.875c0.637,0,1.153,0.517,1.153,1.154  c0,0.638-0.517,1.154-1.153,1.154c-0.638,0-1.154-0.517-1.154-1.154C66.52,1.391,67.036,0.875,67.674,0.875z M62.624,0.875  c0.637,0,1.153,0.517,1.153,1.154c0,0.638-0.517,1.154-1.153,1.154c-0.638,0-1.154-0.517-1.154-1.154  C61.47,1.391,61.986,0.875,62.624,0.875z M57.574,0.875c0.638,0,1.154,0.517,1.154,1.154c0,0.638-0.517,1.154-1.154,1.154  S56.42,2.666,56.42,2.028C56.42,1.391,56.937,0.875,57.574,0.875z M52.524,0.875c0.637,0,1.154,0.517,1.154,1.154  c0,0.638-0.518,1.154-1.154,1.154c-0.638,0-1.154-0.517-1.154-1.154C51.37,1.391,51.887,0.875,52.524,0.875z M47.475,0.875  c0.638,0,1.154,0.517,1.154,1.154c0,0.638-0.517,1.154-1.154,1.154c-0.637,0-1.154-0.517-1.154-1.154  C46.321,1.391,46.837,0.875,47.475,0.875z M42.425,0.875c0.637,0,1.154,0.517,1.154,1.154c0,0.638-0.517,1.154-1.154,1.154  s-1.154-0.517-1.154-1.154C41.271,1.391,41.788,0.875,42.425,0.875z M37.375,0.875c0.637,0,1.154,0.517,1.154,1.154  c0,0.638-0.517,1.154-1.154,1.154s-1.154-0.517-1.154-1.154C36.222,1.391,36.738,0.875,37.375,0.875z M32.326,0.875  c0.637,0,1.154,0.517,1.154,1.154c0,0.638-0.517,1.154-1.154,1.154c-0.638,0-1.154-0.517-1.154-1.154  C31.172,1.391,31.688,0.875,32.326,0.875z M27.276,0.875c0.637,0,1.154,0.517,1.154,1.154c0,0.638-0.517,1.154-1.154,1.154  s-1.154-0.517-1.154-1.154C26.122,1.391,26.639,0.875,27.276,0.875z M22.227,0.875c0.637,0,1.154,0.517,1.154,1.154  c0,0.638-0.517,1.154-1.154,1.154s-1.154-0.517-1.154-1.154C21.073,1.391,21.589,0.875,22.227,0.875z M17.177,0.875  c0.638,0,1.154,0.517,1.154,1.154c0,0.638-0.517,1.154-1.154,1.154c-0.637,0-1.154-0.517-1.154-1.154  C16.023,1.391,16.54,0.875,17.177,0.875z M12.127,0.875c0.637,0,1.154,0.517,1.154,1.154c0,0.638-0.517,1.154-1.154,1.154  s-1.154-0.517-1.154-1.154C10.974,1.391,11.49,0.875,12.127,0.875z M7.078,0.875c0.638,0,1.154,0.517,1.154,1.154  c0,0.638-0.517,1.154-1.154,1.154c-0.612,0-1.112-0.478-1.15-1.081c0.054-0.133,0.084-0.278,0.084-0.431  c0-0.025-0.002-0.049-0.003-0.074C6.179,1.174,6.593,0.875,7.078,0.875z M2.028,0.875c0.637,0,1.154,0.517,1.154,1.154  c0,0.638-0.517,1.154-1.154,1.154S0.874,2.666,0.874,2.028C0.874,1.391,1.391,0.875,2.028,0.875z M2.028,33.48  c-0.637,0-1.154-0.517-1.154-1.154s0.517-1.154,1.154-1.154s1.154,0.517,1.154,1.154S2.666,33.48,2.028,33.48z M2.028,28.431  c-0.637,0-1.154-0.517-1.154-1.154c0-0.637,0.517-1.153,1.154-1.153s1.154,0.517,1.154,1.153  C3.183,27.914,2.666,28.431,2.028,28.431z M2.028,23.381c-0.637,0-1.154-0.517-1.154-1.153c0-0.638,0.517-1.154,1.154-1.154  s1.154,0.517,1.154,1.154C3.183,22.864,2.666,23.381,2.028,23.381z M2.028,18.332c-0.637,0-1.154-0.517-1.154-1.154  c0-0.638,0.517-1.154,1.154-1.154s1.154,0.517,1.154,1.154C3.183,17.815,2.666,18.332,2.028,18.332z M2.028,13.282  c-0.637,0-1.154-0.517-1.154-1.154c0-0.637,0.517-1.154,1.154-1.154s1.154,0.517,1.154,1.154  C3.183,12.765,2.666,13.282,2.028,13.282z M2.028,8.232c-0.637,0-1.154-0.517-1.154-1.154s0.517-1.154,1.154-1.154  s1.154,0.517,1.154,1.154S2.666,8.232,2.028,8.232z M7.078,33.48c-0.612,0-1.112-0.478-1.15-1.08  c0.054-0.134,0.084-0.278,0.084-0.432c0-0.024-0.002-0.049-0.003-0.073c0.171-0.424,0.585-0.724,1.07-0.724  c0.638,0,1.154,0.517,1.154,1.154S7.715,33.48,7.078,33.48z M12.127,33.48c-0.637,0-1.154-0.517-1.154-1.154  s0.517-1.154,1.154-1.154s1.154,0.517,1.154,1.154S12.765,33.48,12.127,33.48z M17.177,33.48c-0.637,0-1.154-0.517-1.154-1.154  s0.517-1.154,1.154-1.154c0.638,0,1.154,0.517,1.154,1.154S17.814,33.48,17.177,33.48z M22.227,33.48  c-0.637,0-1.154-0.517-1.154-1.154s0.517-1.154,1.154-1.154s1.154,0.517,1.154,1.154S22.864,33.48,22.227,33.48z M27.276,33.48  c-0.637,0-1.154-0.517-1.154-1.154s0.517-1.154,1.154-1.154s1.154,0.517,1.154,1.154S27.914,33.48,27.276,33.48z M32.326,33.48  c-0.638,0-1.154-0.517-1.154-1.154s0.517-1.154,1.154-1.154c0.637,0,1.154,0.517,1.154,1.154S32.963,33.48,32.326,33.48z   M37.375,33.48c-0.637,0-1.154-0.517-1.154-1.154s0.517-1.154,1.154-1.154s1.154,0.517,1.154,1.154S38.013,33.48,37.375,33.48z   M42.425,33.48c-0.637,0-1.154-0.517-1.154-1.154s0.517-1.154,1.154-1.154s1.154,0.517,1.154,1.154S43.062,33.48,42.425,33.48z   M47.475,33.48c-0.637,0-1.154-0.517-1.154-1.154s0.517-1.154,1.154-1.154c0.638,0,1.154,0.517,1.154,1.154  S48.112,33.48,47.475,33.48z M52.524,33.48c-0.638,0-1.154-0.517-1.154-1.154s0.517-1.154,1.154-1.154  c0.637,0,1.154,0.517,1.154,1.154S53.161,33.48,52.524,33.48z M57.574,33.48c-0.638,0-1.154-0.517-1.154-1.154  s0.517-1.154,1.154-1.154s1.154,0.517,1.154,1.154S58.212,33.48,57.574,33.48z M62.624,33.48c-0.638,0-1.154-0.517-1.154-1.154  s0.517-1.154,1.154-1.154c0.637,0,1.153,0.517,1.153,1.154S63.261,33.48,62.624,33.48z M67.674,33.48  c-0.638,0-1.154-0.517-1.154-1.154s0.517-1.154,1.154-1.154c0.637,0,1.153,0.517,1.153,1.154S68.311,33.48,67.674,33.48z   M72.723,33.48c-0.637,0-1.154-0.517-1.154-1.154s0.518-1.154,1.154-1.154c0.638,0,1.154,0.517,1.154,1.154  S73.36,33.48,72.723,33.48z M77.772,33.48c-0.637,0-1.153-0.517-1.153-1.154s0.517-1.154,1.153-1.154  c0.638,0,1.154,0.517,1.154,1.154S78.41,33.48,77.772,33.48z M82.822,33.48c-0.638,0-1.154-0.517-1.154-1.154  s0.517-1.154,1.154-1.154s1.154,0.517,1.154,1.154S83.46,33.48,82.822,33.48z M87.872,33.48c-0.638,0-1.154-0.517-1.154-1.154  s0.517-1.154,1.154-1.154s1.154,0.517,1.154,1.154S88.51,33.48,87.872,33.48z M92.922,33.48c-0.638,0-1.154-0.517-1.154-1.154  s0.517-1.154,1.154-1.154c0.637,0,1.153,0.517,1.153,1.154S93.559,33.48,92.922,33.48z M95.943,6.66v0.253v2.716v0.253v2.716v0.253  v2.716v0.253v2.716v0.253v2.716v0.253v2.716v0.253v2.717v0.253v2.603H4.057v-2.603v-0.253v-2.717v-0.253v-2.716v-0.253v-2.716  v-0.253v-2.716v-0.253v-2.716v-0.253V9.881V9.628V6.913V6.66V4.057h91.887V6.66z M97.972,0.875c0.637,0,1.153,0.517,1.153,1.154  c0,0.638-0.517,1.154-1.153,1.154c-0.638,0-1.154-0.517-1.154-1.154C96.817,1.391,97.334,0.875,97.972,0.875z M97.972,33.48  c-0.638,0-1.154-0.517-1.154-1.154s0.517-1.154,1.154-1.154c0.637,0,1.153,0.517,1.153,1.154S98.608,33.48,97.972,33.48z   M97.972,28.431c-0.638,0-1.154-0.517-1.154-1.154c0-0.637,0.517-1.153,1.154-1.153c0.637,0,1.154,0.517,1.154,1.153  C99.126,27.914,98.608,28.431,97.972,28.431z M97.972,23.381c-0.638,0-1.154-0.517-1.154-1.153c0-0.638,0.517-1.154,1.154-1.154  c0.637,0,1.154,0.517,1.154,1.154C99.126,22.864,98.608,23.381,97.972,23.381z M97.972,18.332c-0.638,0-1.154-0.517-1.154-1.154  c0-0.638,0.517-1.154,1.154-1.154c0.637,0,1.154,0.517,1.154,1.154C99.126,17.815,98.608,18.332,97.972,18.332z M97.972,13.282  c-0.638,0-1.154-0.517-1.154-1.154c0-0.637,0.517-1.154,1.154-1.154c0.637,0,1.154,0.517,1.154,1.154  C99.126,12.765,98.608,13.282,97.972,13.282z M97.972,8.232c-0.638,0-1.154-0.517-1.154-1.154s0.517-1.154,1.154-1.154  c0.637,0,1.154,0.517,1.154,1.154S98.608,8.232,97.972,8.232z"/>
</svg>