<svg xmlns="http://www.w3.org/2000/svg" xmlns:xlink="http://www.w3.org/1999/xlink" version="1.1" id="Layer_1" x="0px" y="0px" width="100px" height="100px" viewBox="0 0 100 100" enable-background="new 0 0 100 100" xml:space="preserve">
<g>
	<g>
		<path d="M34.933,61.768h-3.477c-1.003,0-1.817,0.814-1.817,1.816c0,1.006,0.814,1.818,1.817,1.818h3.477    c1.004,0,1.817-0.813,1.817-1.818C36.75,62.582,35.937,61.768,34.933,61.768z"/>
		<path d="M56.485,61.595h-12.69c-2.229,0-4.05,1.73-4.201,3.922v11c0.151,2.191,1.973,3.924,4.201,3.924h12.69    c1.969,0,3.618-1.353,4.081-3.178V64.771C60.104,62.945,58.454,61.595,56.485,61.595z"/>
		<path d="M34.933,55.039h-3.477c-1.003,0-1.817,0.813-1.817,1.817s0.814,1.817,1.817,1.817h3.477c1.004,0,1.817-0.813,1.817-1.817    S35.937,55.039,34.933,55.039z"/>
		<path d="M34.933,81.955h-3.477c-1.003,0-1.817,0.813-1.817,1.817c0,1.003,0.814,1.816,1.817,1.816h3.477    c1.004,0,1.817-0.813,1.817-1.816C36.75,82.768,35.937,81.955,34.933,81.955z"/>
		<path d="M34.933,75.225h-3.477c-1.003,0-1.817,0.814-1.817,1.819s0.814,1.815,1.817,1.815h3.477c1.004,0,1.817-0.811,1.817-1.815    S35.937,75.225,34.933,75.225z"/>
		<path d="M34.933,68.496h-3.477c-1.003,0-1.817,0.814-1.817,1.819c0,1.003,0.814,1.817,1.817,1.817h3.477    c1.004,0,1.817-0.814,1.817-1.817C36.75,69.311,35.937,68.496,34.933,68.496z"/>
		<path d="M68.39,81.925h-3.478c-1.003,0-1.817,0.813-1.817,1.817c0,1.002,0.814,1.816,1.817,1.816h3.478    c1.003,0,1.818-0.814,1.818-1.816C70.208,82.737,69.393,81.925,68.39,81.925z"/>
		<path d="M68.39,75.194h-3.478c-1.003,0-1.817,0.814-1.817,1.817c0,1.005,0.814,1.816,1.817,1.816h3.478    c1.003,0,1.818-0.812,1.818-1.816C70.208,76.009,69.393,75.194,68.39,75.194z"/>
		<path d="M68.39,55.007h-3.478c-1.003,0-1.817,0.814-1.817,1.818s0.814,1.818,1.817,1.818h3.478c1.003,0,1.818-0.814,1.818-1.818    S69.393,55.007,68.39,55.007z"/>
		<path d="M68.39,61.737h-3.478c-1.003,0-1.817,0.813-1.817,1.816s0.814,1.818,1.817,1.818h3.478c1.003,0,1.818-0.814,1.818-1.818    S69.393,61.737,68.39,61.737z"/>
		<path d="M68.39,68.466h-3.478c-1.003,0-1.817,0.814-1.817,1.817c0,1.005,0.814,1.817,1.817,1.817h3.478    c1.003,0,1.818-0.813,1.818-1.817C70.208,69.28,69.393,68.466,68.39,68.466z"/>
		<path d="M79.458,40.715H20.704c-3.055,0-5.532,2.477-5.532,5.531v48.102c0,3.056,2.477,5.531,5.532,5.531h58.754    c3.054,0,5.531-2.476,5.531-5.531V46.247C84.989,43.192,82.512,40.715,79.458,40.715z M73.052,85.771    c0,3.446-2.795,6.242-6.243,6.242c-3.359,0-6.091-2.658-6.229-5.982c-0.439-1.859-2.103-3.242-4.094-3.242h-12.69    c-2.258,0-4.178,1.778-4.288,4.008l0,0c-0.477,2.974-3.047,5.247-6.154,5.247c-3.448,0-6.243-2.796-6.243-6.242V54.828    c0-3.449,2.795-6.244,6.243-6.244c3.447,0,6.241,2.794,6.241,6.244v0.512h0.001c0.159,2.182,1.977,3.906,4.2,3.906h12.69    c1.972,0,3.622-1.356,4.081-3.187v-1.265c0-3.446,2.795-6.242,6.242-6.242c3.448,0,6.243,2.795,6.243,6.242V85.771z"/>
	</g>
	<path d="M50.081,0.349c-14.007,0-25.401,11.396-25.401,25.401v2.399h0.002c0.013,2.668,2.194,4.827,4.886,4.827   s4.873-2.159,4.886-4.827h0.001v-0.018c0-0.002,0-0.003,0-0.005c0-0.001,0-0.003,0-0.005v-2.37c0-8.629,6.997-15.625,15.626-15.625   c8.63,0,15.625,6.996,15.625,15.625v12.54h9.776V25.75C75.482,11.744,64.088,0.349,50.081,0.349z"/>
</g>
</svg>