<svg xmlns="http://www.w3.org/2000/svg" xmlns:xlink="http://www.w3.org/1999/xlink" version="1.1" id="Layer_1" x="0px" y="0px" width="100px" height="100px" viewBox="0 0 100 100" enable-background="new 0 0 100 100" xml:space="preserve">
<path d="M35.61,64.405c-2.591-2.59-6.696-3.14-8.889-0.947l-0.161,0.161l9.836,9.838l0.161-0.163  C38.75,71.103,38.201,66.997,35.61,64.405z"/>
<rect x="12.003" y="64.616" transform="matrix(-0.7071 -0.7071 0.7071 -0.7071 -24.9529 151.7761)" width="13.911" height="32.879"/>
<path d="M1.457,88.723c-2.193,2.193-1.644,6.298,0.947,8.89c2.591,2.59,6.695,3.14,8.888,0.946l0.065-0.065l-9.836-9.836  L1.457,88.723z"/>
<path d="M82.842,18.262c-11.044-11.043-28.946-11.043-39.99,0c-11.042,11.042-11.042,28.947,0,39.991  c11.043,11.043,28.945,11.04,39.987-0.001C93.884,47.207,93.885,29.305,82.842,18.262z M44.563,56.541  c-10.056-10.057-10.057-26.362,0-36.419c10.056-10.056,26.363-10.056,36.419,0c10.056,10.057,10.056,26.364,0,36.42  C70.926,66.598,54.619,66.598,44.563,56.541z"/>
<path d="M88.989,12.113C74.512-2.366,51.033-2.366,36.555,12.114c-14.481,14.48-14.48,37.955,0,52.435s37.956,14.48,52.435,0  C103.468,50.068,103.47,26.593,88.989,12.113z M41.669,59.437c-11.679-11.68-11.68-30.681-0.001-42.36  c11.678-11.678,30.682-11.678,42.359,0c11.677,11.678,11.677,30.679,0,42.358C72.346,71.114,53.347,71.113,41.669,59.437z"/>
<path d="M75.153,21.476c-2.537,0-4.593,2.056-4.593,4.592v0.93c-0.338,1.346-1.553,2.343-3.002,2.343h-9.336  c-1.637,0-2.974-1.267-3.09-2.873l0,0v-0.377c0-2.536-2.057-4.592-4.593-4.592c-2.536,0-4.592,2.056-4.592,4.592v22.787  c0,2.537,2.056,4.592,4.592,4.592c2.287,0,4.176-1.671,4.528-3.858l0,0c0.081-1.642,1.494-2.949,3.155-2.949h9.336  c1.464,0,2.688,1.017,3.012,2.383c0.1,2.448,2.11,4.401,4.583,4.401c2.536,0,4.591-2.055,4.591-4.591V26.067  C79.744,23.532,77.689,21.476,75.153,21.476z M51.703,48.723h-2.558c-0.739,0-1.337-0.6-1.337-1.337  c0-0.739,0.598-1.338,1.337-1.338h2.558c0.737,0,1.336,0.599,1.336,1.338C53.039,48.124,52.44,48.723,51.703,48.723z M51.703,43.772  h-2.558c-0.739,0-1.337-0.599-1.337-1.338c0-0.738,0.598-1.336,1.337-1.336h2.558c0.737,0,1.336,0.599,1.336,1.336  C53.039,43.174,52.44,43.772,51.703,43.772z M51.703,38.821h-2.558c-0.739,0-1.337-0.598-1.337-1.336  c0-0.739,0.598-1.337,1.337-1.337h2.558c0.737,0,1.336,0.598,1.336,1.337C53.039,38.223,52.44,38.821,51.703,38.821z M51.703,33.872  h-2.558c-0.739,0-1.337-0.599-1.337-1.337c0-0.739,0.598-1.337,1.337-1.337h2.558c0.737,0,1.336,0.598,1.336,1.337  C53.039,33.272,52.44,33.872,51.703,33.872z M51.703,28.92h-2.558c-0.739,0-1.337-0.598-1.337-1.336  c0-0.738,0.598-1.337,1.337-1.337h2.558c0.737,0,1.336,0.599,1.336,1.337C53.039,28.323,52.44,28.92,51.703,28.92z M67.559,44.934  h-9.336c-1.64,0-2.979-1.274-3.09-2.886v-8.093c0.111-1.612,1.45-2.886,3.09-2.886h9.336c1.448,0,2.661,0.995,3.002,2.338v9.189  C70.22,43.939,69.007,44.934,67.559,44.934z M76.316,48.698H73.76c-0.739,0-1.339-0.597-1.339-1.335c0-0.739,0.6-1.338,1.339-1.338  h2.557c0.738,0,1.336,0.599,1.336,1.338C77.652,48.102,77.055,48.698,76.316,48.698z M76.316,43.75H73.76  c-0.739,0-1.339-0.599-1.339-1.337c0-0.739,0.6-1.336,1.339-1.336h2.557c0.738,0,1.336,0.598,1.336,1.336  C77.652,43.15,77.055,43.75,76.316,43.75z M76.316,38.799H73.76c-0.739,0-1.339-0.599-1.339-1.336c0-0.739,0.6-1.338,1.339-1.338  h2.557c0.738,0,1.336,0.599,1.336,1.338C77.652,38.2,77.055,38.799,76.316,38.799z M76.316,33.848H73.76  c-0.739,0-1.339-0.598-1.339-1.337c0-0.738,0.6-1.336,1.339-1.336h2.557c0.738,0,1.336,0.599,1.336,1.336  C77.652,33.25,77.055,33.848,76.316,33.848z M76.316,28.898H73.76c-0.739,0-1.339-0.598-1.339-1.336c0-0.739,0.6-1.338,1.339-1.338  h2.557c0.738,0,1.336,0.599,1.336,1.338C77.652,28.3,77.055,28.898,76.316,28.898z"/>
</svg>