<svg xmlns="http://www.w3.org/2000/svg" xmlns:xlink="http://www.w3.org/1999/xlink" version="1.1" id="Layer_1" x="0px" y="0px" width="83.7209302326px" height="100px" viewBox="0 0 144.451 172.605" enable-background="new 0 0 144.451 172.605" xml:space="preserve">
<path d="M80.428,96.984l-3.259-3.906l-2.186,4.594l-2.744-4.284l-2.743,4.284l-2.187-4.594l-3.259,3.906l-1.592-4.832l-3.724,3.467  l-0.59-4.993L55,93.167v32.328l6.964-10.41l11.142,22.428l-0.074,0.034c0.004,0.009,0.454,1.089,1.18,2.161  c0.947,1.396,1.58,1.758,1.737,1.775c0,0,1.282,0.662,3.066,0.829C82.889,139.391,83,130.46,83,130.46V92.426l-0.637-0.274  L80.428,96.984z"/>
<path d="M90.846,93.599l-4.127-2.973l-1.004,4.993L84,94.05v36.392c0,1.099,0.111,9.923-4.319,13.265c0,0-0.364,0.322-0.509,0.407  c-1.742,1.027-3.269,0.858-3.269,0.858l-7.476-0.008l0.857,12.532l14.045-7.5l14.044,7.5l-4.636-68.128l-1.553-0.845L90.846,93.599z  "/>
<path d="M71.353,138.266l-9.991-19.797l-9.156,13.023l-15.915-0.37l3.521,6.977l0.177,0.345c0,0,2.205,4.756,4.531,4.756  l0.046-0.003l31.354,0.033C73.593,143.229,71.353,138.266,71.353,138.266z"/>
<polygon points="72.239,17.962 74.759,14.031 76.765,18.247 79.755,14.662 81.218,19.096 84.633,15.915 85.527,20.497 89.315,17.77   89.629,22.427 93.729,20.195 93.456,24.856 97.804,23.156 96.949,27.745 101.476,26.604 100.052,31.05 104.686,30.484   102.717,34.717 107.385,34.736 104.899,38.689 109.529,39.294 106.568,42.904 111.086,44.083 107.696,47.294 112.028,49.031   108.264,51.792 112.346,54.058 108.264,56.325 112.028,59.085 107.696,60.821 111.086,64.032 106.568,65.212 109.529,68.822   104.899,69.427 107.385,73.38 102.717,73.4 104.686,77.632 100.052,77.066 101.476,81.513 96.949,80.371 97.804,84.961   93.456,83.261 93.729,87.921 89.629,85.689 89.315,90.348 85.527,87.619 84.633,92.202 81.218,89.02 79.755,93.454 76.765,89.869   74.759,94.086 72.239,90.154 69.72,94.086 67.714,89.869 64.724,93.454 63.263,89.02 59.847,92.202 58.951,87.619 55.163,90.348   54.852,85.689 50.75,87.921 51.022,83.261 46.675,84.961 47.529,80.371 43.003,81.513 44.427,77.066 39.792,77.632 41.763,73.4   37.093,73.38 39.579,69.427 34.949,68.822 37.91,65.212 33.392,64.032 36.783,60.821 32.449,59.085 36.214,56.325 32.133,54.058   36.214,51.792 32.449,49.031 36.783,47.294 33.392,44.083 37.91,42.904 34.949,39.294 39.579,38.689 37.093,34.736 41.763,34.717   39.792,30.484 44.427,31.05 43.003,26.604 47.529,27.745 46.675,23.156 51.022,24.856 50.75,20.195 54.852,22.427 55.163,17.77   58.951,20.497 59.847,15.915 63.263,19.096 64.724,14.662 67.714,18.247 69.72,14.031 "/>
</svg>