<svg xmlns="http://www.w3.org/2000/svg" xmlns:xlink="http://www.w3.org/1999/xlink" version="1.1" id="Layer_1" x="0px" y="0px" width="100px" height="100px" viewBox="0 0 100 100" enable-background="new 0 0 100 100" xml:space="preserve">
<path d="M0,90.249h43.24v3.187H0V90.249z M56.759,90.249H100v3.187H56.759V90.249z M0,89.146h100V29.395H0V89.146z M64.814,43.474  h13.519v10.952H64.814V43.474z M64.814,62.394h13.519v10.949H64.814V62.394z M43.24,43.474h13.519v10.952H43.24V43.474z   M43.24,62.394h13.519V87.77H43.24V62.394z M22.054,43.474h13.521v10.952H22.054V43.474z M22.054,62.394h13.521v10.949H22.054  V62.394z M85.999,18.661v-6.45H57.211c0-3.983-3.229-7.211-7.21-7.211c-3.984,0-7.212,3.228-7.212,7.211H14v6.45H0v9.632h100v-9.632  H85.999z"/>
</svg>