<svg xmlns="http://www.w3.org/2000/svg" xmlns:xlink="http://www.w3.org/1999/xlink" version="1.1" id="Layer_1" x="0px" y="0px" width="100px" height="100px" viewBox="0 0 100 100" enable-background="new 0 0 100 100" xml:space="preserve">
<g>
	<path fill="#000000" stroke="#FFFFFF" stroke-width="0.0402" stroke-miterlimit="10" d="M99.639,5.366   c-0.063-1.626-2.222-2.768-2.222-2.768C66.995-1.905,35.869,2.403,35.869,2.404c-4.94,0.557-4.507,3.385-4.507,3.385   s0.138,7.76,0.138,9.593c0,1.835-1.834,1.971-1.834,1.971c-2.268-0.984-13.125-1.406-13.125-1.406   C-4.906,17.505,1.02,33.302,1.02,33.302C9.766,69.841,32.057,79.439,35.869,80.71c3.799,1.269,4.088,2.957,4.088,2.957   s1.696,6.489,2.685,9.315c0.987,2.816,2.11,3.523,2.11,3.523c14.68,5.08,32.734,2.266,37.244,1.268c4.518-0.988,5.58-3.6,5.58-3.6   C101.331,50.794,99.706,6.983,99.639,5.366z M33.707,72.475C23.207,70.037,14.09,55.92,10.84,48.233   c-0.059,0-3.607-10.069-3.625-10.125c-2.438-7.75-3.81-17.257,9.805-17.399c4.221-0.044,9.326,1.457,12.25,6.961   c1.062,2,2.381,1.193,2.688,2.841c0.23,1.237,0.063,4.158,0,5.596c0.058,0,0.495,3.816,0.5,3.875   c0.848,9.369,4.221,24.425,4.096,30.113C36.519,71.592,34.762,72.72,33.707,72.475z"/>
</g>
</svg>