<svg xmlns="http://www.w3.org/2000/svg" xmlns:xlink="http://www.w3.org/1999/xlink" version="1.1" id="Layer_1" x="0px" y="0px" width="100px" height="100px" viewBox="0 0 100 100" enable-background="new 0 0 100 100" xml:space="preserve">
<path fill="#000000" d="M86.014,19.305c0,0,0.383,1.96-1.89,3.355c-2.276,1.4-2.979,0.958-4.923,5.121  c-1.939,4.162-13.327,14.624-16.732,16.731c-3.404,2.107-44.174,44.013-44.174,44.013l1.299,1.302l15.059-15.06  c0,0,0.158-2.795,3.642-3.643l0.692-0.034l1.509-1.507c0,0,0.582-0.729,1.31-0.066c0.729,0.664,0.072,1.319,0.072,1.319  S29.51,85.109,13.467,99.25c0,0-0.603,0.379-1.078-0.023c-0.471-0.406,0.318-1.193,0.318-1.193l2.26-2.989  c0,0,0.691-0.688-0.005-1.388c-0.694-0.694-0.839-0.115-0.839-0.115s-0.697,0.557-1.314,0c-0.617-0.555-1.623,0.085-1.623,0.085  s-5.883,6.319-8.442,3.759c-2.563-2.564,2.329-9.216,2.329-9.216s-0.381-0.646-0.01-1.455c0.373-0.812,3.761-5.296,4.392-5.78  c0.63-0.484,1.296-0.344,1.296-0.344l42.974-43.936c0,0,7.668-11.234,17.127-17.128c0,0,4.726-3.249,6.356-6.635  c0,0,0.349-0.901,1.524-0.87c1.178,0.03,15.347-9.523,15.347-9.523l0.218,0.218c0,0,2.864-2.646,3.574-2.035  c0.71,0.608-1.721,3.694-1.721,3.694l0.277,0.374L86.014,19.305z"/>
</svg>