<svg xmlns="http://www.w3.org/2000/svg" xmlns:xlink="http://www.w3.org/1999/xlink" version="1.1" id="Layer_1" x="0px" y="0px" width="100px" height="100px" viewBox="0 0 100 100" enable-background="new 0 0 100 100" xml:space="preserve">
<g>
	<path fill="#000000" d="M76.872,1.013c-1.979-2.04-8.819,0.05-6.67,4.98c1.851,4.28-1.091,5.33-1.91,5.53   c0.149-1.69,0.19-2.7,0.19-2.7s-14.69-0.91-18.38-0.811c-3.7-0.1-18.39,0.811-18.39,0.811s0.039,1.069,0.21,2.85   c0,0-4.271-0.64-2.12-5.57c2.14-4.93-4.7-7.02-6.67-4.989c-1.98,2.029-1.46,10.188,0.31,15.779c4.42,11.971,7.56,13.061,9.49,12.66   c1.3-0.27,1.95-0.59,2.24-0.779c2.18,7.06,5.71,14.079,11.39,17.399l-1.43,2.05c0,0-0.46,0.73,0.729,1.04c0,0-1.47,1.09,0,1.792   c0,0,1.351,0.799,1.47,4.899c0,0,0.78,2.979-4.6,7.58c0,0-5.1,5.34-2.28,7.188c0,0,0.73,1.24-0.739,1.32h-1.431   c0,0-0.569,0.311-0.649,1.16l-0.311,2.779l-1.08,12.761h-0.39c0,0,0.35,2.55-1.86,2.55l-0.649,4.641v2.25l6.199,1.58h21.111   l6.209-1.58v-2.25l-0.659-4.641c-2.2,0-1.851-2.55-1.851-2.55h-0.39l-1.08-12.761l-0.312-2.779c-0.079-0.852-0.659-1.16-0.659-1.16   H60.48c-1.469-0.08-0.739-1.32-0.739-1.32c2.829-1.85-2.279-7.188-2.279-7.188c-5.37-4.601-4.601-7.58-4.601-7.58   c0.119-4.101,1.47-4.899,1.47-4.899c1.471-0.702,0-1.792,0-1.792c1.2-0.3,0.739-1.04,0.739-1.04l-1.438-2.05   c5.688-3.32,9.21-10.33,11.39-17.39c0.36,0.189,0.99,0.45,2.041,0.67c1.93,0.399,5.08-0.69,9.5-12.67   C78.332,11.203,78.843,3.043,76.872,1.013z M32.282,27.113c-1.96-0.771-8.84-8.891-7.88-21.88c0,0-0.25-1.431,1.54-1.44   c0.47-0.01,2.17,0.34,1.6,1.44c0,0-2.069,7.68,4.62,8.76c0.391,3.319,1.101,7.87,2.37,12.569   C34.402,26.693,33.462,27.583,32.282,27.113z M67.713,27.013c-0.931,0.37-1.721-0.109-2.07-0.39c1.311-4.79,2.021-9.43,2.41-12.771   c6.43-1.21,4.41-8.729,4.41-8.729c-0.57-1.09,1.119-1.44,1.6-1.44c1.791,0.021,1.53,1.44,1.53,1.44   C76.562,18.113,69.684,26.233,67.713,27.013z"/>
</g>
</svg>