<svg xmlns="http://www.w3.org/2000/svg" xmlns:xlink="http://www.w3.org/1999/xlink" version="1.1" id="Layer_1" x="0px" y="0px" width="99px" height="99px" viewBox="0 0 99 99" enable-background="new 0 0 99 99" xml:space="preserve">
<polygon fill="none" points="3.647,58.437 59.836,18.554 92.398,26.05 34.942,77.313 "/>
<polyline points="88.137,29.853 55.481,21.644 10.74,53.402 42.5,70.57 88.137,29.853 "/>
<path d="M77.949,22.893l-6.371-1.472c-0.096-0.021-0.201-0.031-0.309-0.031c-0.108,0.001-0.22,0.012-0.329,0.033  c-0.108,0.022-0.214,0.052-0.312,0.091c-0.096,0.039-0.183,0.087-0.254,0.141c-0.072,0.056-0.122,0.113-0.149,0.168  c-0.027,0.056-0.033,0.11-0.018,0.162c0.016,0.051,0.052,0.097,0.108,0.137c0.057,0.04,0.133,0.072,0.228,0.094l6.376,1.504  c0.101,0.025,0.212,0.035,0.326,0.035s0.232-0.012,0.345-0.035c0.114-0.021,0.223-0.054,0.322-0.094  c0.1-0.042,0.189-0.092,0.261-0.15c0.071-0.057,0.118-0.117,0.141-0.174c0.024-0.059,0.024-0.116,0.004-0.169  c-0.021-0.053-0.062-0.101-0.125-0.143C78.133,22.95,78.051,22.916,77.949,22.893"/>
<path d="M68.067,20.449c-0.121-0.028-0.255-0.04-0.394-0.038c-0.139,0.001-0.283,0.017-0.423,0.044  c-0.14,0.028-0.277,0.068-0.402,0.119c-0.125,0.049-0.239,0.111-0.333,0.18c-0.094,0.071-0.16,0.144-0.198,0.215  c-0.038,0.072-0.049,0.143-0.032,0.207c0.017,0.065,0.061,0.125,0.13,0.176c0.07,0.05,0.166,0.093,0.287,0.121  c0.122,0.029,0.257,0.042,0.397,0.041c0.141-0.002,0.286-0.017,0.429-0.044c0.142-0.028,0.281-0.069,0.408-0.121  c0.126-0.051,0.242-0.113,0.336-0.185c0.093-0.07,0.158-0.144,0.194-0.215c0.036-0.072,0.043-0.142,0.025-0.207  c-0.019-0.065-0.064-0.124-0.136-0.175C68.285,20.518,68.189,20.477,68.067,20.449"/>
<g>
	<polygon points="19.187,65.047 20.319,65.71 21.742,64.586 20.606,63.935  "/>
	<path d="M23.702,63.372c-0.126-0.249-0.335-0.463-0.632-0.628c-0.294-0.164-0.647-0.263-1.034-0.303   c-0.384-0.038-0.802-0.017-1.229,0.06c-0.426,0.077-0.863,0.209-1.282,0.393c-0.421,0.184-0.828,0.42-1.193,0.704   c-0.368,0.284-0.66,0.59-0.875,0.899c-0.216,0.312-0.354,0.626-0.409,0.928c-0.056,0.303-0.028,0.592,0.085,0.85   c0.114,0.258,0.315,0.485,0.606,0.661c0.292,0.176,0.647,0.285,1.041,0.329c0.395,0.045,0.825,0.026,1.267-0.053   c0.441-0.078,0.892-0.217,1.326-0.41c0.433-0.193,0.848-0.44,1.219-0.736c0.37-0.295,0.659-0.611,0.867-0.927   c0.206-0.316,0.331-0.633,0.372-0.935C23.87,63.904,23.828,63.621,23.702,63.372z M20.263,66.056l-1.567-0.921l1.965-1.536   l1.573,0.898L20.263,66.056z"/>
</g>
<path d="M96.871,26.642c0.004,0.071,0.001,0.142-0.001,0.213c0.019-0.359-0.062-0.708-0.243-1.034  c-0.246-0.444-0.669-0.849-1.255-1.189c-0.579-0.336-1.318-0.609-2.201-0.795l-29.357-6.16c-0.665-0.14-1.407-0.193-2.179-0.173  c-0.769,0.02-1.572,0.116-2.36,0.276s-1.567,0.386-2.289,0.667c-0.724,0.283-1.394,0.623-1.965,1.012L5.808,53.031  c-0.876,0.598-1.599,1.238-2.158,1.886c-0.562,0.652-0.958,1.314-1.169,1.947c-0.215,0.639-0.243,1.249-0.069,1.792  c0.038,0.12,0.09,0.234,0.148,0.346c-0.01-0.021-0.026-0.042-0.037-0.064c0.999,2.095,1.997,4.189,2.997,6.283  c0.052,0.11,0.113,0.218,0.184,0.321c0.069,0.104,0.149,0.205,0.236,0.3c0.087,0.096,0.184,0.189,0.29,0.277  c0.106,0.088,0.221,0.171,0.344,0.25l27.563,17.584c0.864,0.552,1.891,0.905,3.006,1.068c1.123,0.165,2.33,0.137,3.545-0.071  c1.218-0.208,2.438-0.597,3.585-1.152c1.142-0.553,2.207-1.268,3.117-2.129l48.827-46.199c0.191-0.182,0.356-0.365,0.496-0.551  c0.139-0.184,0.25-0.37,0.338-0.557c0.086-0.184,0.149-0.369,0.186-0.553c0.037-0.183,0.049-0.364,0.039-0.542  C97.14,31.059,97.005,28.851,96.871,26.642z M2.703,59.25c-0.028-0.04-0.048-0.083-0.071-0.124c0.045,0.076,0.095,0.15,0.151,0.223  C2.757,59.315,2.726,59.284,2.703,59.25z M2.937,59.54c-0.021-0.023-0.037-0.048-0.057-0.072c0.063,0.073,0.134,0.144,0.209,0.212  C3.038,59.632,2.982,59.588,2.937,59.54z M3.226,59.806c-0.012-0.011-0.021-0.022-0.034-0.032c0.115,0.095,0.24,0.188,0.379,0.271  C3.446,59.97,3.332,59.891,3.226,59.806z M44.602,74.243c-0.875,0.787-1.892,1.444-2.979,1.956  c-1.092,0.513-2.251,0.876-3.403,1.078c-1.152,0.202-2.292,0.241-3.35,0.106c-1.052-0.134-2.017-0.44-2.826-0.926L4.111,59.667  c-0.556-0.334-0.909-0.771-1.073-1.272c-0.163-0.497-0.141-1.058,0.054-1.645c0.193-0.583,0.554-1.191,1.071-1.793  c0.512-0.597,1.177-1.188,1.984-1.741L55.39,19.544c0.525-0.359,1.143-0.673,1.809-0.934c0.667-0.26,1.384-0.468,2.111-0.616  c0.728-0.147,1.467-0.235,2.177-0.253c0.712-0.02,1.396,0.031,2.007,0.161l29.363,6.204c0.811,0.171,1.49,0.424,2.022,0.735  c0.537,0.313,0.925,0.687,1.147,1.096c0.226,0.413,0.284,0.863,0.159,1.324c-0.125,0.465-0.437,0.942-0.949,1.403L44.602,74.243z   M96.114,28.449c-0.102,0.113-0.211,0.227-0.336,0.339C95.903,28.676,96.012,28.562,96.114,28.449z M96.197,28.354  c0.078-0.092,0.149-0.185,0.214-0.278c-0.041,0.058-0.078,0.115-0.123,0.172C96.261,28.284,96.227,28.318,96.197,28.354z   M96.462,28.006c0.074-0.113,0.137-0.226,0.191-0.338c-0.006,0.012-0.009,0.025-0.016,0.038  C96.587,27.806,96.527,27.906,96.462,28.006z M96.688,27.585c0.039-0.09,0.071-0.18,0.098-0.269  C96.76,27.406,96.727,27.496,96.688,27.585z M96.813,27.224c0.026-0.111,0.047-0.221,0.056-0.33  c-0.007,0.091-0.021,0.182-0.04,0.273C96.825,27.187,96.817,27.205,96.813,27.224z"/>
</svg>