<svg xmlns="http://www.w3.org/2000/svg" xmlns:xlink="http://www.w3.org/1999/xlink" version="1.1" id="Layer_1" x="0px" y="0px" width="100px" height="70.7491082045px" viewBox="0 0 841.891 595.279" enable-background="new 0 0 841.891 595.279" xml:space="preserve">
<g>
	<path d="M458.596,338.52l-2.273-18.865c-1.096-8.304-2.975-11.489-10.772-11.587c-0.006-0.002-0.011-0.013-0.015-0.019h-36.384   c-3.164,0-6.111,2.131-7.584,5.717l-5.575,13.525l-18.794-16.096c-1.215-1.227-2.636-2.111-4.118-2.6V282.11l6.438-15.71   c0.419-1.024,0.116-2.497-0.672-3.275c0,0-4.576-4.509-9.499-4.509c-4.255,0-9.627,4.61-9.627,4.61   c-0.844,0.721-1.16,2.139-0.71,3.15l6.965,15.635v27.906c-0.15,0.128-0.311,0.22-0.455,0.361c-4.001,3.91-1.87,8.536,2.647,13.055   l25.906,22.595c1.574,1.668,3.885,2.715,6.358,2.715l49.481,0.11C457.417,348.751,459.537,344.311,458.596,338.52z M443.63,342.899   h-31.204c-2.77,0-4.878-2.262-4.687-5.023l1.301-18.818c0.188-2.761,2.611-5.022,5.378-5.022h0.688   c2.767,0,5.034,2.265,5.034,5.031v3.002c0,2.768,2.265,5.035,5.031,5.035h5.711c2.767,0,5.031-2.268,5.031-5.035v-3.002   c0-2.767,2.268-5.031,5.034-5.031h0.688c2.767,0,5.189,2.262,5.379,5.022l1.301,18.818   C448.509,340.637,446.399,342.899,443.63,342.899z M399.666,300.214h12.183c4.341,2.866,9.533,4.549,15.128,4.549   c5.592,0,10.786-1.682,15.121-4.549h12.985c2.212,0,3.455-1.718,2.753-3.821l-3.416-18.513c0.006-0.2,0.03-0.397,0.03-0.6h0.008   c-0.005-9.494-4.814-17.861-12.136-22.798c-3.061-5.251-8.741-8.828-15.321-8.828c-6.565,0-12.233,3.555-15.302,8.778   c-7.359,4.934-12.205,13.321-12.21,22.848c0,0.286,0.037,0.558,0.042,0.841l-2.617,18.272   C396.211,298.496,397.451,300.214,399.666,300.214z M427.052,250.342c7.521,0,13.614,6.089,13.614,13.615H413.43   C413.43,256.431,419.525,250.342,427.052,250.342z M408.696,274.134h36.554c0.178,1.027,0.319,2.067,0.322,3.147   c-0.02,10.268-8.328,18.582-18.597,18.596c-10.276-0.014-18.584-8.328-18.602-18.596   C408.374,276.201,408.518,275.16,408.696,274.134z"/>
</g>
</svg>