<svg xmlns="http://www.w3.org/2000/svg" xmlns:xlink="http://www.w3.org/1999/xlink" version="1.1" id="Layer_1" x="0px" y="0px" width="100px" height="70.7491082045px" viewBox="0 0 841.891 595.279" enable-background="new 0 0 841.891 595.279" xml:space="preserve">
<path d="M396.186,269.2c8.87-0.005,16.05-7.192,16.055-16.053c-0.005-8.867-7.185-16.062-16.055-16.062  c-8.869,0-16.059,7.194-16.059,16.062C380.128,262.008,387.317,269.195,396.186,269.2z M396.186,243.165  c5.51,0.006,9.969,4.47,9.973,9.981c-0.004,5.505-4.463,9.967-9.973,9.976c-5.516-0.009-9.973-4.47-9.977-9.976  C386.214,247.635,390.67,243.172,396.186,243.165z M475.342,270.823h-25.564c-1.729,0-3.292,0.671-4.688,1.621  c-0.205,0.125-0.397,0.29-0.592,0.45c-2.101,1.601-3.794,3.73-5.017,4.954v0.09l-28.536,29.182c-2.24,2.277-2.213,5.939,0.066,8.185  c1.056,1.04,2.405,1.592,3.78,1.657c1.585,0.079,3.197-0.497,4.405-1.72l20.285-20.588c0,13.116,0,28.863,0,28.863  c0,1.673,1.36,3.034,3.04,3.034h32.82c1.68,0,3.041-1.361,3.041-3.034v-49.659C478.383,272.184,477.021,270.823,475.342,270.823z   M461.936,267.753c8.876-0.005,16.057-7.192,16.066-16.055c-0.009-8.872-7.19-16.052-16.066-16.062  c-8.869,0.009-16.053,7.19-16.053,16.062C445.884,260.561,453.067,267.748,461.936,267.753z M422.289,318.293  c-2.107,2.137-4.931,3.141-7.712,3.005c-2.403-0.115-4.771-1.081-6.618-2.9c-3.979-3.925-4.031-10.344-0.104-14.323l4.508-4.574  h-30.83c-1.675,0-3.039,1.359-3.039,3.037v20.856c0,1.68,1.363,3.041,3.039,3.041h53.155l-0.032-20.694L422.289,318.293z   M383.401,295.06l31.25-0.065c1.426,0,2.715-0.602,3.626-1.567l12.919-13.059c1.936-1.956,1.919-5.114-0.034-7.047  c-1.958-1.94-5.112-1.929-7.052,0.034l-8.284,8.37l-3.746-6.885c-0.873-1.607-2.555-2.622-4.384-2.622h-22.894  c-4.685,0-6.421,1.34-6.421,6.025v10.905C378.382,293.335,379.065,295.06,383.401,295.06z M388.701,278.103  c0-1.28,0.985-1.979,2.193-1.549l5.557,1.974l4.999-1.544c1.223-0.379,2.223,0.355,2.223,1.639v2.93c0,1.28-0.986,1.976-2.193,1.546  l-5.548-1.973l-5.005,1.549c-1.225,0.379-2.225-0.362-2.225-1.642L388.701,278.103L388.701,278.103z"/>
</svg>