<svg xmlns="http://www.w3.org/2000/svg" xmlns:xlink="http://www.w3.org/1999/xlink" version="1.1" id="Layer_1" x="0px" y="0px" width="100px" height="100px" viewBox="0 0 100 100" enable-background="new 0 0 100 100" xml:space="preserve">
<path display="none" fill="#000000" stroke="#FFFFFF" stroke-width="3" stroke-miterlimit="10" d="M70,50c0,11.046-8.954,20-20,20  s-20-8.954-20-20s8.954-20,20-20c4.962,0,9.502,1.807,12.997,4.799C67.283,38.467,70,43.916,70,50z"/>
<circle display="none" fill="#000000" stroke="#FFFFFF" stroke-width="3" stroke-miterlimit="10" cx="26" cy="25" r="15"/>
<circle display="none" fill="#000000" stroke="#FFFFFF" stroke-width="3" stroke-miterlimit="10" cx="75" cy="26" r="15"/>
<g>
	<path d="M23.999,50.5c0,14.612,11.888,26.5,26.5,26.5C65.11,77,76.998,65.112,77,50.5V16.014C69.661,10.366,60.477,7,50.5,7   s-19.162,3.367-26.501,9.015V50.5z"/>
	<path d="M82,20.518V50.5C81.998,67.869,67.867,82,50.5,82c-17.37,0-31.5-14.131-31.5-31.5V20.52C11.569,28.323,7,38.875,7,50.5   C7,74.524,26.476,94,50.5,94C74.524,94,94,74.524,94,50.5C94,38.874,89.43,28.322,82,20.518z"/>
</g>
</svg>