<svg xmlns="http://www.w3.org/2000/svg" xmlns:xlink="http://www.w3.org/1999/xlink" version="1.1" id="Layer_1" x="0px" y="0px" width="100.0px" height="100px" viewBox="0 0 113.386 113.386" enable-background="new 0 0 113.386 113.386" xml:space="preserve">
<path d="M87.612,59.347c0,7.692-6.257,13.949-13.947,13.949c-7.692,0-13.949-6.257-13.949-13.949  c0-7.691,6.257-13.957,13.949-13.957C81.355,45.39,87.612,51.655,87.612,59.347z M106.582,27.426v65.11H7.37v-65.11H106.582z   M38.198,36.725H19.591v9.308h18.607V36.725z M96.911,59.347c0-12.847-10.398-23.256-23.246-23.256  c-12.829,0-23.248,10.409-23.248,23.256c0,12.829,10.419,23.248,23.248,23.248C86.513,82.595,96.911,72.176,96.911,59.347z   M38.198,19.67H19.591v4.659h18.607V19.67z"/>
</svg>