<svg xmlns="http://www.w3.org/2000/svg" xmlns:xlink="http://www.w3.org/1999/xlink" version="1.1" id="Layer_1" x="0px" y="0px" width="100px" height="100px" viewBox="-346 256 100 100" enable-background="new -346 256 100 100" xml:space="preserve">
<polygon fill-rule="evenodd" clip-rule="evenodd" points="-290.159,261.301 -290.159,256.098 -302.426,256.098 -302.426,261.301   -320.943,261.301 -320.943,267.618 -271.642,267.618 -271.642,261.301 "/>
<polygon points="-311.256,356 -306.514,348.076 -302.961,347.514 -298.837,343.522 -295.826,344.041 -293.26,341.343   -289.725,343.933 -287.854,340.975 -284.173,342.611 -280.494,339.199 -276.404,337.769 -276.404,356 "/>
<g>
	<path fill-rule="evenodd" clip-rule="evenodd" d="M-319.811,312.064c0-3.2,1.913-5.188,4.352-5.188h37.869   c2.439,0,4.353,1.988,4.353,5.188v43.834h21.685l-9.964-76.349c0-5.22-4.369-9.449-9.762-9.449h-49.18   c-5.393,0-9.764,4.229-9.764,9.449L-341,355.898h21.189V312.064z M-276.305,287.18h3.067v12.336h-3.067V287.18z M-281.413,287.18   h3.064v12.336h-3.064V287.18z M-286.9,287.18h3.064v12.336h-3.064V287.18z M-309.212,287.18h3.065v12.336h-3.065V287.18z    M-314.324,287.18h3.065v12.336h-3.065V287.18z M-319.811,287.18h3.067v12.336h-3.067V287.18z"/>
	<path fill-rule="evenodd" clip-rule="evenodd" d="M-276.305,312.064c0-1.588-0.773-2.124-1.285-2.124h-37.869   c-0.511,0-1.285,0.536-1.285,2.124v43.834h3.028V335.86h37.41V312.064z M-290.355,324.023h-12.337v-3.067h12.337V324.023z"/>
</g>
</svg>