<svg xmlns="http://www.w3.org/2000/svg" xmlns:xlink="http://www.w3.org/1999/xlink" version="1.1" id="Layer_1" x="0px" y="0px" width="59.5419847328px" height="100px" viewBox="0 0 78.312 131.374" enable-background="new 0 0 78.312 131.374" xml:space="preserve">
<g>
	<path d="M20.375,23.582c0,4.951,4.015,8.966,8.963,8.966c4.953,0,8.968-4.015,8.968-8.966c0-4.948-4.015-8.963-8.968-8.963   C24.39,14.619,20.375,18.634,20.375,23.582z"/>
	<path d="M71.767,9.668h-0.917c-0.279-3.028-2.804-5.417-5.904-5.417S59.32,6.64,59.042,9.668h-0.918v2.408h3.683l-5.549,17.673   l-11.543,5.578l-25.766-0.015c-6.914,0-10.167,3.413-10.167,10.548l1.54,30.42c0,5.914,4.68,5.914,4.68,0l1.153-27.812h0.873   l1.921,77.062c0,7.91,7.516,7.672,7.516,0l1.923-45.117h1.959l1.923,45.117c0,7.672,7.574,7.91,7.574,0l2.661-79.314l12.055-8.173   c5.713-3.677,7.632-5.495,7.632-5.495l4.784-20.472h4.791V9.668z M60.326,9.668c0.272-2.321,2.227-4.133,4.62-4.133   s4.348,1.812,4.62,4.133h-2.481c-1.277-2.144-4.463-0.186-4.463-0.186l-0.059,0.186H60.326z"/>
	<path d="M63.526,3.96c0.457-0.113,0.928-0.19,1.419-0.19s0.96,0.078,1.417,0.188V1.284h11.95V0H0v1.284h63.526V3.96z"/>
</g>
</svg>