<svg xmlns="http://www.w3.org/2000/svg" xmlns:xlink="http://www.w3.org/1999/xlink" version="1.1" id="Livello_1" x="0px" y="0px" width="100px" height="100px" viewBox="0 0 100 100" enable-background="new 0 0 100 100" xml:space="preserve">
<g>
	<polygon fill="#000000" points="40.353,4.771 37.621,10.525 44.786,16.319 49.231,11.588 49.09,11.438 49.093,11.437  "/>
	<polygon fill="#000000" points="55.049,16.319 62.214,10.525 59.48,4.771 50.578,11.562  "/>
	<polygon fill="#000000" points="63.454,10.808 54.955,17.681 50.674,13.124 50.674,96.25 77.986,96.25 77.609,36.051    95.255,41.273 100,19.591 62.573,8.953  "/>
	<path fill="#000000" d="M44.878,17.681l-8.499-6.873l0.916-1.929L0,19.205l5.123,22.261l17.267-5.667V96.25h26.841V13.048   L44.878,17.681z M44.926,86.667c-0.828,0-1.5-0.671-1.5-1.5s0.672-1.5,1.5-1.5s1.5,0.671,1.5,1.5S45.754,86.667,44.926,86.667z    M44.926,74.967c-0.828,0-1.5-0.672-1.5-1.5s0.672-1.5,1.5-1.5s1.5,0.672,1.5,1.5S45.754,74.967,44.926,74.967z M44.926,63.267   c-0.828,0-1.5-0.672-1.5-1.5s0.672-1.5,1.5-1.5s1.5,0.672,1.5,1.5S45.754,63.267,44.926,63.267z M44.926,51.566   c-0.828,0-1.5-0.671-1.5-1.5c0-0.829,0.672-1.5,1.5-1.5s1.5,0.671,1.5,1.5C46.426,50.895,45.754,51.566,44.926,51.566z    M44.926,39.867c-0.828,0-1.5-0.671-1.5-1.5s0.672-1.5,1.5-1.5s1.5,0.671,1.5,1.5S45.754,39.867,44.926,39.867z M44.926,28.167   c-0.829,0-1.5-0.671-1.5-1.5s0.671-1.5,1.5-1.5s1.5,0.671,1.5,1.5S45.754,28.167,44.926,28.167z"/>
</g>
</svg>