<svg xmlns="http://www.w3.org/2000/svg" xmlns:xlink="http://www.w3.org/1999/xlink" version="1.1" id="Livello_1" x="0px" y="0px" width="100px" height="100px" viewBox="0 0 100 100" enable-background="new 0 0 100 100" xml:space="preserve">
<polygon fill="#000000" points="55.228,15.076 62.646,9.077 59.816,3.119 50.599,10.15 "/>
<polygon fill="#000000" points="40.011,3.119 37.182,9.077 44.601,15.076 49.204,10.178 49.058,10.022 49.061,10.021 "/>
<path fill="#000000" d="M44.697,16.486l-8.8-7.117l0.949-1.997L6.094,15.886L-0.09,59.27l9.91,34.429l10.929-4.788l-7.766-33.028  l8.429-20.635v62.594h27.792V11.689L44.697,16.486z M44.746,87.918c-0.858,0-1.553-0.695-1.553-1.554s0.695-1.553,1.553-1.553  c0.857,0,1.553,0.694,1.553,1.553S45.604,87.918,44.746,87.918z M44.746,75.803c-0.858,0-1.553-0.695-1.553-1.553  s0.695-1.554,1.553-1.554c0.857,0,1.553,0.696,1.553,1.554S45.604,75.803,44.746,75.803z M44.746,63.688  c-0.858,0-1.553-0.695-1.553-1.553s0.695-1.554,1.553-1.554c0.857,0,1.553,0.696,1.553,1.554S45.604,63.688,44.746,63.688z   M44.746,51.573c-0.858,0-1.553-0.695-1.553-1.553c0-0.858,0.695-1.553,1.553-1.553c0.857,0,1.553,0.695,1.553,1.553  C46.299,50.878,45.604,51.573,44.746,51.573z M44.746,39.459c-0.858,0-1.553-0.695-1.553-1.553s0.695-1.553,1.553-1.553  c0.857,0,1.553,0.695,1.553,1.553S45.604,39.459,44.746,39.459z M44.746,27.344c-0.858,0-1.553-0.695-1.553-1.553  c0-0.858,0.695-1.553,1.553-1.553c0.858,0,1.553,0.695,1.553,1.553C46.299,26.649,45.604,27.344,44.746,27.344z"/>
<path fill="#000000" d="M63.931,9.369l-8.8,7.117l-4.433-4.718v86.073h28.281l-0.39-62.193l8.429,20.633L79.251,89.31l10.93,4.788  l9.909-34.429l-6.185-43.783L63.019,7.449L63.931,9.369z M78.644,35.524l-0.055,0.12l-0.001-0.136L78.644,35.524z"/>
</svg>