<svg xmlns="http://www.w3.org/2000/svg" xmlns:xlink="http://www.w3.org/1999/xlink" version="1.1" id="Layer_1" x="0px" y="0px" width="100px" height="100px" viewBox="0 0 100 100" enable-background="new 0 0 100 100" xml:space="preserve">
<path d="M51.996,48.945l16.158-22.999l-2.772-2.997l3.532-3.053l-4.873-4.515h-2.693l-3.42,11.99  c-1.202,4.26-1.86,6.695-2.637,9.567C54.521,39.782,53.637,43.054,51.996,48.945z"/>
<path d="M44.884,36.938c-0.776-2.872-1.435-5.307-2.636-9.567l-3.42-11.99h-2.695l-4.873,4.515l3.533,3.053l-2.772,2.997  l16.157,22.999C46.537,43.054,45.652,39.782,44.884,36.938z"/>
<path d="M90.756,35.749L75.191,18.065v-0.05l-8.854-1.91l4.121,3.817l-3.596,3.108l2.618,2.831l-18.641,26.6v30.487h24.349V45.615  l11.344,23.002l13.342-3.734L90.756,35.749z M54.6,78.483c-0.886,0-1.604-0.718-1.604-1.604s0.718-1.604,1.604-1.604  s1.604,0.719,1.604,1.604S55.485,78.483,54.6,78.483z M54.6,68.946c-0.886,0-1.604-0.718-1.604-1.604s0.718-1.604,1.604-1.604  s1.604,0.719,1.604,1.604S55.485,68.946,54.6,68.946z M54.6,59.41c-0.886,0-1.604-0.718-1.604-1.604s0.718-1.604,1.604-1.604  s1.604,0.718,1.604,1.604S55.485,59.41,54.6,59.41z"/>
<path d="M30.693,25.86l2.618-2.831l-3.595-3.108l4.199-3.89l-9.186,1.983L9.121,35.749L0,64.883l13.34,3.734l11.39-23.094v37.426  h24.332V52.253L30.693,25.86z M39.219,45.125h-0.344h-0.273h-4.087h-0.12h-2.461h-2.101v-1.25h1.002l2.581-2.581l2.151,2.151  l0.991-0.991l1.42,1.42h1.241V45.125z"/>
</svg>