<svg xmlns="http://www.w3.org/2000/svg" xmlns:xlink="http://www.w3.org/1999/xlink" version="1.1" id="Layer_1" x="0px" y="0px" width="100px" height="100px" viewBox="0 0 100 100" enable-background="new 0 0 100 100" xml:space="preserve">
<g>
	<path d="M33.565,17.317c0.178-0.311,0.35-0.622,0.507-0.931c1.037-2.004,5.078-4.55,7.133-5.947   c0.381-0.261,1.002-0.733,1.705-1.285c-15.654,0.94-26.519,4.501-26.519,8.065c0,4.154,14.76,8.305,34.663,8.305   c19.904,0,34.662-4.151,34.662-8.305c0-3.521-10.594-7.038-25.939-8.029c1.019,1.027,1.926,1.848,2.553,2.238   c2.994,1.868,5.22,7.272,6.912,8.043c2.07,0.943,3.391,1.492,4.514,3.361c-0.364,0.087-0.738,0.171-1.117,0.254   c-1.662-2.401-3.698-1.791-5.531-4.167c-1.652-2.147-3.002-5.124-5.342-6.583c-2.275-1.416-7.577-7.625-9.487-10.131   c-1.165-1.528-2.849,1.745-3.356,2.54c-1.877,2.949-3.335,3.229-5.394,5.29c-1.055,1.053-3.072,2.183-4.325,3.062   c-1.885,1.325-3.628,2.713-4.178,3.78c-0.931,1.803-2.565,4.224-4.263,5.52l-0.859,0.807c-0.37-0.079-0.748-0.145-1.11-0.224   c-7.386-1.505-11.806-3.668-11.806-5.761c0-0.549,0.303-1.123,0.96-1.71c1.374-0.176,2.799-0.269,4.255-0.269   C26.399,15.24,30.295,16.006,33.565,17.317L33.565,17.317z M44.545,7.831c1.028-0.854,1.972-1.674,2.362-2.088   c1.236-1.311,3.789-7.377,6.224-4.185c1.119,1.47,3.326,4.108,5.387,6.321c15.788,0.856,28.434,4.398,28.434,9.341   c0,0.997-0.512,1.938-1.466,2.811l-0.063,0.14c-4.134,8.612-15.66,14.956-29.578,16.125v0.629   c6.764,0.907,14.578,1.97,15.742,2.191c1.269,0.242,2.492,1.171,2.689,2.497c0,0,5.588,33.892,5.83,35.436   c0.154,0.993-0.188,2.247-0.927,2.972l-0.317,0.305l-0.008,0.12l-0.101,1.312c-0.105,1.37-1.257,2.036-2.616,2.048h-0.124   c-0.259,0.004-0.505-0.015-0.735-0.062L63.082,95.378c-0.084,0.098-0.188,0.193-0.309,0.299l-0.06,0.045   c-0.501,0.401-1.081,0.467-1.464,0.509l-0.035,0.481c-0.107,1.368-1.26,2.034-2.62,2.048l-0.122,0.002   c-1.359,0.014-2.41-0.629-2.305-2l0.1-1.307l0.014-0.121l-9.279-1.891c-2.097,0.438-4.263,0.608-6.459,0.473   c-4.596-0.277-8.754-1.848-12.213-4.36l-2.153-0.394l-0.009,0.115c-0.106,1.368-1.259,2.034-2.618,2.045l-0.124,0.002   c-1.359,0.016-2.409-0.627-2.304-1.996l0.091-1.201c-0.345-0.151-0.655-0.387-1.004-0.83c-0.871-1.097-0.36-2.959-0.36-2.959   l1.08-3.497c-2.377-4.632-3.454-10.146-2.796-15.968c1.293-11.518,9.001-21.015,18.839-24.498c1.615-1.125,5.186-3.618,5.916-4.165   c0.147-0.11,0.3-0.202,0.459-0.279c-12.345-1.786-22.38-7.697-26.271-15.518c-1.24-0.979-1.918-2.049-1.918-3.194   C15.157,12.179,28.32,8.593,44.545,7.831L44.545,7.831z M55.844,41.491c3.055,1.568,5.712,3.798,7.835,6.512l8.739-6.727   c0.149,0.177,0.268,0.384,0.345,0.622c0.028,0.085,0.036,0.151,0.036,0.151l1.641,9.932c-0.626-0.005-1.279-0.034-1.962-0.092   c-3.712-0.32-5.411-0.092-6.173,0.237c2.355,4.62,3.42,10.112,2.77,15.911C68.436,73.711,66.238,78.896,63,83.113   c0.104,2.555,0.365,8.908,0.398,9.964c0.008,0.263,0.025,0.496,0.041,0.704l15.105-14.41c0.527-0.557,0.781-1.428,0.666-2.183   c-0.24-1.544-5.83-35.435-5.83-35.435s-0.014-0.083-0.05-0.204c-0.279-0.866-1.028-1.374-1.916-1.543   c-1.151-0.22-8.855-1.268-15.571-2.168V41.491L55.844,41.491z M53.207,40.34c0.373,0.135,0.738,0.279,1.1,0.432v-3.356   c-0.365,0.021-0.73,0.037-1.1,0.05V40.34L53.207,40.34z M48.257,39.143c1.503,0.193,2.952,0.525,4.335,0.984v-2.722l-4.335-0.578   V39.143L48.257,39.143z M45.619,38.951c0.346,0.006,0.695,0.019,1.042,0.041l0.059,0.004v-1.672c-0.368-0.03-0.736-0.063-1.102-0.1   V38.951L45.619,38.951z M45.007,36.452c-0.451,0.021-1.096,0.124-1.576,0.483c-0.478,0.358-2.169,1.546-3.737,2.644   c1.728-0.4,3.505-0.616,5.313-0.631V36.452L45.007,36.452z M46.585,40.22c-13.361-0.812-25.597,10.243-27.233,24.792   c-1.635,14.529,7.937,26.867,21.266,27.678c13.36,0.812,25.594-10.244,27.233-24.791C69.486,53.369,59.916,41.032,46.585,40.22   L46.585,40.22z M76.227,12.092c5.523,1.449,8.792,3.308,8.794,5.127c0.002,0.618-0.327,1.226-0.959,1.81   C79.807,17.238,76.76,14.622,76.227,12.092L76.227,12.092z M66.881,69.262C64.878,82.637,53.44,92.809,40.764,92.04   c-14.974-0.912-23.295-15.954-20.21-29.353c0.142-0.621,0.759-0.743,1.18-0.517c2.685-11.798,13.098-20.462,24.525-19.767   C58.64,43.158,67.398,54.6,65.904,67.875c-0.018,0.168-0.04,0.333-0.059,0.5C66.347,68.232,66.983,68.572,66.881,69.262   L66.881,69.262z M46.21,43.223c-11.865-0.722-22.71,9.09-24.16,21.984C20.6,78.086,29.087,89.049,40.93,89.77   c11.863,0.722,22.708-9.094,24.162-21.986C66.54,54.905,58.053,43.945,46.21,43.223L46.21,43.223z M42.253,64.684   c-0.962,0.535-1.361,1.71-0.894,2.629c0.469,0.92,1.627,1.236,2.587,0.703c0.96-0.531,1.361-1.709,0.893-2.629   C44.373,64.468,43.213,64.152,42.253,64.684L42.253,64.684z M56.244,60.049l5.549-2.419l1.004,0.026l-0.656,0.773l-5.602,2.443   c0.637,1.973,0.877,4.154,0.622,6.423c-0.909,8.073-7.708,14.266-15.208,13.81c-7.508-0.458-12.836-7.4-11.93-15.478   c0.91-8.073,7.708-14.267,15.209-13.808C50.331,52.13,54.426,55.434,56.244,60.049L56.244,60.049z M45.81,64.6l10.167-4.436   c-1.776-4.525-5.788-7.751-10.762-8.057c-7.327-0.443-14.009,5.611-14.9,13.553c-0.892,7.938,4.336,14.71,11.657,15.154   c7.328,0.447,14.007-5.611,14.903-13.551c0.249-2.222,0.019-4.348-0.603-6.273l-10.133,4.42c0.325,1.362-0.346,2.887-1.689,3.629   c-1.314,0.729-2.854,0.484-3.763-0.502l-5.11,3.388c-0.264-0.358-0.501-0.743-0.711-1.153c-0.474-0.934-0.754-1.928-0.858-2.932   l5.917-1.362c0.029-1.13,0.676-2.249,1.77-2.855C43.197,62.79,44.998,63.231,45.81,64.6L45.81,64.6z"/>
</g>
</svg>