<svg xmlns="http://www.w3.org/2000/svg" xmlns:xlink="http://www.w3.org/1999/xlink" version="1.1" id="label" x="0px" y="0px" width="80px" height="80px" viewBox="0 0 80 80" enable-background="new 0 0 80 80" xml:space="preserve">
<path d="M28.419,72.293L0,43.875l30.692-30.692l19.89,0.751l7.779,7.779l0.75,19.889L28.419,72.293z M9.475,43.875L28.419,62.82  l23.887-23.886l-0.542-14.342l-4.062-4.063l-14.342-0.541L9.475,43.875z M31.972,35.585l-2.368-2.368L17.171,45.65l2.368,2.369  L31.972,35.585z M39.077,42.69l-2.368-2.369L24.275,52.755l2.368,2.369L39.077,42.69z M38.242,34.051  c-2.775-2.774-2.775-7.291,0-10.064c2.774-2.776,7.29-2.776,10.064-0.001s2.775,7.291,0,10.066  C45.533,36.827,41.017,36.827,38.242,34.051z M45.347,26.946c-1.143-1.142-3.002-1.142-4.145,0.001  c-1.142,1.142-1.142,3.002,0,4.144c1.142,1.143,3.002,1.143,4.145,0C46.489,29.949,46.489,28.089,45.347,26.946z M42.715,29.75  c-0.572-0.571-0.66-1.49-0.17-2.166c5.75-7.933,18.203-4.777,26.22-1.593c1.504-0.515,2.942-1.028,4.224-1.506  c2.981-1.11,5.114,0.049,6.12,1.501c1.132,1.638,1.084,3.822-0.114,5.193c-0.626,0.717-2.462,2.188-5.991,0.394  c-1.407-0.714-2.857-1.393-4.326-2.014c-4.152,1.395-8.707,2.777-12.002,3.507c-0.903,0.2-1.797-0.371-1.997-1.274  c-0.2-0.902,0.37-1.796,1.273-1.997c2.092-0.463,4.827-1.235,7.663-2.118c-7.669-2.433-15.018-2.736-18.358,1.872  c-0.543,0.748-1.59,0.916-2.339,0.372C42.844,29.87,42.777,29.813,42.715,29.75z M76.223,27.734  c-0.552-0.553-1.514-0.315-2.066-0.109c-0.294,0.11-0.596,0.221-0.908,0.335c0.478,0.229,0.904,0.441,1.273,0.628  c1.197,0.609,1.833,0.524,1.951,0.388c0.144-0.164,0.168-0.669-0.12-1.085C76.312,27.833,76.269,27.78,76.223,27.734z"/>
</svg>