<svg xmlns="http://www.w3.org/2000/svg" xmlns:xlink="http://www.w3.org/1999/xlink" version="1.1" id="label" x="0px" y="0px" width="80px" height="80px" viewBox="0 0 80 80" enable-background="new 0 0 80 80" xml:space="preserve">
<path d="M63.416,80H16.584V29.424L33.59,13.655H46.41l17.006,15.77V80z M24.389,72.195H55.61V32.832L43.347,21.461h-6.695  L24.389,32.832V72.195z M39.999,40.398c-4.572,0-8.292-3.721-8.292-8.293c0-4.573,3.72-8.293,8.292-8.293  c4.573,0,8.294,3.72,8.294,8.293C48.293,36.677,44.572,40.398,39.999,40.398z M39.999,28.689c-1.882,0-3.414,1.532-3.414,3.416  c0,1.882,1.532,3.415,3.414,3.415c1.883,0,3.416-1.532,3.416-3.415C43.415,30.222,41.882,28.689,39.999,28.689z M40.141,33.169  c-0.942,0-1.771-0.684-1.924-1.645C36.418,20.25,49.278,12.59,58.507,8.609c0.815-1.665,1.578-3.271,2.24-4.721  c1.542-3.371,4.255-4.173,6.28-3.806c2.282,0.417,4.042,2.256,4.185,4.373c0.075,1.105-0.226,3.831-4.611,5.26  c-1.748,0.571-3.501,1.207-5.225,1.905c-2.271,4.57-4.885,9.461-6.999,12.779c-0.58,0.908-1.785,1.175-2.695,0.596  c-0.908-0.579-1.176-1.785-0.596-2.694c1.342-2.105,2.958-4.995,4.567-8.06c-8.323,4.315-14.627,10.12-13.583,16.669  c0.169,1.064-0.556,2.064-1.62,2.234C40.347,33.161,40.243,33.169,40.141,33.169z M66.088,3.898c-0.911,0-1.507,0.989-1.792,1.612  c-0.152,0.333-0.31,0.674-0.473,1.025c0.582-0.205,1.108-0.381,1.567-0.531c1.489-0.485,1.941-1.078,1.927-1.288  c-0.017-0.253-0.413-0.69-0.993-0.796C66.244,3.906,66.165,3.898,66.088,3.898z"/>
</svg>