<svg xmlns="http://www.w3.org/2000/svg" xmlns:xlink="http://www.w3.org/1999/xlink" version="1.1" id="Layer_1" x="0px" y="0px" width="100px" height="100px" viewBox="0 0 100 100" enable-background="new 0 0 100 100" xml:space="preserve">
<path d="M80.281,62.86c-5.427-5.901-17.339-15.652-27.87-15.258c-1.624,2.974-5.409,5.022-9.858,5.249  c-0.269,0.013-0.536,0.02-0.8,0.02c-4.084,0-7.613-1.629-9.53-4.354c-8.15,3.662-13.457,8.705-16.195,15.412  c-2.345,5.743-2.655,11.947-2.695,18.836c1.07-0.919,2.98-2.858,4.842-4.749c6.546-6.645,17.503-17.766,25.561-20.331  c2.152-0.684,6.432,0.095,9.555,0.664c0.354,0.064,0.689,0.125,0.995,0.178c0.946,0.115,2.223,0.335,3.947,0.715  c3.843,0.843,7.688,2.042,10.553,3.289c2.455,1.07,4.632,2.096,6.553,3c4.293,2.022,7.44,3.504,9.165,3.304  C84.371,68.154,83.302,66.145,80.281,62.86z"/>
<path d="M45.383,84.658c6.548,6.129,14.168,10.007,19.886,10.119c3.009,0.062,7.186-0.562,9.029-2.512  c0.667-0.706,0.956-1.518,0.883-2.48c-0.365-4.795-3.041-6.784-7.091-9.792c-4.706-3.495-11.149-8.284-16.815-20.235  c-0.039-0.082-0.064-0.168-0.077-0.254c-2.52-0.428-5.583-0.837-7.006-0.385c-3.057,0.973-6.6,3.284-10.165,6.128  C34.545,71.239,38.763,78.462,45.383,84.658z"/>
<path d="M13.144,51.18c-0.643,0.947-0.727,1.488-0.713,1.657c0.004,0.001,0.008,0.001,0.012,0.002  c3.946,0.528,6.615,1.605,7.667,2.09c2.986-3.12,6.851-5.726,11.653-7.862c0.123-1.559,0.312-3.103,0.532-4.636  C21.538,42.939,15.08,48.325,13.144,51.18z"/>
<path d="M61.183,47.651c1.233-0.431,6.995-2.352,12.033-2.559c-2.855-2.001-10.819-6.115-20.169-5.46  c-0.062,1.073-0.098,2.137-0.133,3.196c-0.034,1.062-0.069,2.153-0.132,3.24c0.079-0.001,0.159-0.002,0.239-0.002  C55.778,46.066,58.546,46.693,61.183,47.651z"/>
<polygon points="32.478,47.574 32.479,47.573 32.478,47.573 "/>
<path d="M49.971,9.785c-7.166,5.906-15.297,18.873-16.718,37.582c1.99,3.168,6.041,4.146,9.224,3.982  c4.064-0.207,7.48-2.054,8.761-4.712c0.087-1.281,0.132-2.589,0.173-3.858c0.162-4.944,0.332-10.055,3.007-15.844  c3.002-6.497,8.838-12.921,17.844-19.638c0.399-0.298,0.41-0.603,0.383-0.805c-0.097-0.728-1.03-1.79-2.896-2.522  C67.727,3.176,60.325,1.25,49.971,9.785z"/>
</svg>