<svg xmlns="http://www.w3.org/2000/svg" xmlns:xlink="http://www.w3.org/1999/xlink" version="1.1" x="0px" y="0px" width="100px" height="100px" viewBox="0 0 100 100" enable-background="new 0 0 100 100" xml:space="preserve">
<g id="Livello_1">
	<g>
		<path d="M40.886,51.346c0.532-0.532,0.532-2.475,0-3.007c-0.685-0.685-3.189-0.685-3.874,0c-0.532,0.532-0.532,2.475,0,3.007    C37.696,52.03,40.201,52.03,40.886,51.346z"/>
		<path d="M40.886,56.786c0.532-0.532,0.532-2.476,0-3.007c-0.685-0.685-3.189-0.685-3.874,0c-0.532,0.531-0.532,2.475,0,3.007    C37.696,57.471,40.201,57.471,40.886,56.786z"/>
		<path d="M48.842,48.339c-0.532,0.532-0.532,2.475,0,3.007c0.686,0.686,3.188,0.686,3.874,0c0.531-0.532,0.531-2.475,0-3.007    C52.03,47.654,49.527,47.654,48.842,48.339z"/>
		<path d="M43.03,48.339c-0.532,0.532-0.532,2.475,0,3.007c0.686,0.686,3.188,0.686,3.873,0c0.532-0.532,0.532-2.475,0-3.007    C46.219,47.654,43.716,47.654,43.03,48.339z"/>
		<path d="M46.903,56.786c0.532-0.532,0.532-2.476,0-3.007c-0.685-0.686-3.188-0.686-3.873,0c-0.532,0.531-0.532,2.475,0,3.007    C43.716,57.472,46.219,57.472,46.903,56.786z"/>
		<rect x="36.93" y="36.041" width="15.868" height="7.42"/>
		<path d="M37.434,59.187c-0.532,0.532-0.532,2.475,0,3.007c0.685,0.685,3.189,0.685,3.874,0c0.532-0.532,0.532-2.475,0-3.007    C40.623,58.502,38.118,58.502,37.434,59.187z"/>
		<path d="M47.325,62.193c0.532-0.532,0.532-2.475,0-3.007c-0.685-0.685-3.188-0.685-3.873,0c-0.532,0.532-0.532,2.475,0,3.007    C44.138,62.879,46.641,62.879,47.325,62.193z"/>
		<path d="M82.604,14.668v-0.021H82.6c-1.023-5.079-5.174-9.163-10.454-9.925l-0.571-0.082H17.087v90.719h54.487l0.571-0.082    c6.102-0.883,10.703-6.195,10.703-12.357V17.08C82.849,16.257,82.761,15.452,82.604,14.668z M56.165,36.954v2.968v26.027    c0,6.242-5.06,11.302-11.302,11.302c-6.241,0-11.301-5.06-11.301-11.302V36.954c0-6.242,5.06-11.302,11.301-11.302    c1.762,0,3.423,0.415,4.909,1.134v-2.39c0-1.765,1.431-3.196,3.196-3.196s3.196,1.431,3.196,3.196V36.954z M72.574,5.81    c4.517,0.889,8.032,4.44,9,8.837h-9V5.81z M72.574,15.25h9.119c0.098,0.598,0.155,1.208,0.155,1.83v6.255h-9.274V15.25z     M72.574,23.938h9.274v8.085h-9.274V23.938z M72.574,32.625h9.274v8.085h-9.274V32.625z M72.574,41.313h9.274v8.085h-9.274V41.313    z M72.574,50h9.274v8.085h-9.274V50z M72.574,58.688h9.274v8.085h-9.274V58.688z M72.574,67.375h9.274v8.085h-9.274V67.375z     M72.574,76.063h9.274v6.857c0,0.414-0.03,0.822-0.074,1.228h-9.2V76.063z M72.574,94.189V84.75h9.119    C80.928,89.423,77.296,93.26,72.574,94.189z"/>
		<path d="M49.264,59.187c-0.532,0.532-0.532,2.475,0,3.007c0.686,0.686,3.188,0.686,3.874,0c0.531-0.532,0.531-2.475,0-3.007    C52.452,58.502,49.949,58.502,49.264,59.187z"/>
		<path d="M52.716,56.786c0.531-0.532,0.531-2.476,0-3.007c-0.686-0.686-3.188-0.686-3.874,0c-0.532,0.531-0.532,2.475,0,3.007    C49.527,57.472,52.03,57.472,52.716,56.786z"/>
		<path d="M43.556,64.441c-0.532,0.531-0.532,2.475,0,3.007c0.686,0.686,3.188,0.686,3.873,0c0.532-0.532,0.532-2.476,0-3.007    C46.744,63.756,44.241,63.756,43.556,64.441z"/>
	</g>
</g>
<g id="Livello_2">
</g>
</svg>