<svg xmlns="http://www.w3.org/2000/svg" xmlns:xlink="http://www.w3.org/1999/xlink" version="1.1" id="Layer_1" x="0px" y="0px" width="100px" height="100px" viewBox="0 0 100 100" enable-background="new 0 0 100 100" xml:space="preserve">
<path d="M56.16,31.8h-0.95l11.05,34H55.73l-4.11,30.32h-5.93L41.57,65.8H31.04l11.05-34h-1.05L30.46,53.48l-4.4-1.53L39.28,20.9  h6.83l0.32-1.31c-5.29-0.32-8.28-1.63-9.23-4.98c1.22,0.14,3.76-1.36,3.98-2.77c0-0.04,0-0.04,0-0.04v-0.45  c0-4.12,3.35-7.47,7.51-7.47c4.03,0,7.38,3.35,7.38,7.47v0.45c0,0,0,0,0,0.04c0.27,1.41,2.71,2.91,3.979,2.77  c-0.95,3.35-3.89,4.66-9.229,4.98l0.319,1.31h6.83L71.19,51.95l-4.4,1.53L56.16,31.8z"/>
</svg>