<svg xmlns="http://www.w3.org/2000/svg" xmlns:xlink="http://www.w3.org/1999/xlink" version="1.1" id="Layer_1" x="0px" y="0px" width="100px" height="100px" viewBox="0 0 100 100" enable-background="new 0 0 100 100" xml:space="preserve">
<path d="M57.535,31.19h-0.951l11.051,34h-10.53l-4.11,30.32h-5.93l-4.12-30.32h-10.53l11.05-34h-1.05l-10.58,21.68l-4.4-1.529  l13.22-31.051h6.83l0.25-1.42c-2.97-0.95-5.11-3.729-5.11-7.01c0-4.07,3.3-7.37,7.37-7.37c4.08,0,7.381,3.3,7.381,7.37  c0,3.28-2.141,6.06-5.11,7.01l0.25,1.42h6.83l13.22,31.051l-4.4,1.529L57.535,31.19z"/>
</svg>