<svg xmlns="http://www.w3.org/2000/svg" xmlns:xlink="http://www.w3.org/1999/xlink" version="1.1" id="Layer_1" x="0px" y="0px" width="100px" height="96.0784313725px" viewBox="0 0 102 98" enable-background="new 0 0 102 98" xml:space="preserve">
<g>
	<path d="M93.867,18H82.374c-4.063-7-7.926-15-16.879-15H52.006c-8.955,0-12.817,8-16.878,15H22.263c-0.986-1-1.912-1-4.083-1   h-2.355c-2.172,0-3.097,0-4.083,1H8.133C4.345,18,1,20.641,1,24.429v63.443C1,91.66,4.345,95,8.133,95h85.734   c3.788,0,7.133-3.34,7.133-7.128V24.429C101,20.641,97.655,18,93.867,18z M59.002,77.292c-15.783,0-28.578-12.793-28.578-28.577   S43.22,20.139,59.002,20.139c15.782,0,28.579,12.793,28.579,28.577S74.784,77.292,59.002,77.292z"/>
	<circle cx="58.944" cy="48.717" r="26.388"/>
</g>
</svg>