<svg xmlns="http://www.w3.org/2000/svg" xmlns:xlink="http://www.w3.org/1999/xlink" version="1.0" id="Home_svg" x="0px" y="0px" width="100px" height="100px" viewBox="0 0 100 100" enable-background="new 0 0 100 100" xml:space="preserve">
<path id="Home_Path" enable-background="new    " d="M1.266,44.426v0.114v0.356v21.37V89.47c0,5.812,4.792,10.563,10.653,10.563  h8.305h15.453V78.286c0-5.68,2.906-8.585,8.717-8.585h10.301c5.678,0,8.585,2.905,8.585,8.585v21.746h15.608h8.307  c5.859,0,10.653-4.753,10.653-10.563V66.264V44.896V44.54v-0.114c0-3.681,0-2.824,0-2.824V35.62c0-3.895-1.655-7.208-4.965-9.934  L58.077,2.304c-3.929-3.116-13.114-3.116-17.043,0L6.23,25.686c-3.308,2.725-4.964,6.039-4.964,9.934l-0.101,7.164"/>
</svg>