<svg xmlns="http://www.w3.org/2000/svg" xmlns:xlink="http://www.w3.org/1999/xlink" version="1.0" id="Home_svg" x="0px" y="0px" width="100px" height="100px" viewBox="0 0 100 100" enable-background="new 0 0 100 100" xml:space="preserve">
<path fill="#000000" d="M60.791,53.452c0.104,0.535,0.277,0.972,0.507,1.33c0.218,1.55,1.2,2.326,2.944,2.326h32.836  c1.925,0,2.922-1.015,2.922-3.041v-1.809c0-2.027-0.997-3.042-2.922-3.042H67.892L60.78,12.102  c-0.325-1.656-1.196-2.484-2.609-2.484c-0.282,0-0.587,0.033-0.911,0.099l-1.746,0.354c-1.35,0.273-2.129,0.934-2.361,1.964  c-0.102,0.266-0.188,0.552-0.247,0.882l-9.407,53.04l-2.717-14.07c-0.322-1.638-1.186-2.453-2.57-2.471  c-0.367-0.131-0.793-0.196-1.28-0.196H2.993C0.997,49.219,0,50.233,0,52.261v1.809c0,2.026,0.997,3.041,2.993,3.041h30.88  l5.668,29.354c0.059,0.295,0.143,0.556,0.236,0.795c-0.025,1.496,0.805,2.422,2.51,2.728l1.754,0.315  c0.297,0.054,0.575,0.08,0.834,0.08c1.461,0,2.339-0.839,2.623-2.474l9.562-53.919L60.791,53.452z"/>
</svg>