<svg xmlns="http://www.w3.org/2000/svg" xmlns:xlink="http://www.w3.org/1999/xlink" version="1.1" id="Layer_1" x="0px" y="0px" width="100px" height="100px" viewBox="0 0 100 100" enable-background="new 0 0 100 100" xml:space="preserve">
<path d="M75.145,25.932h-4.35c0,0,7.699,65.097,5.952,67.594c-1.748,2.495-37.763,2.619-41.819,0  c-4.058-2.623,7.447-67.594,7.447-67.594h-4.327c0,0-0.9,5.952-2.095,14.345l0.048-0.431H21.24c0,0-5.797,31.41-3.74,33.284  c2.057,1.876,13.333,7.238,13.333,7.238l0.061-0.5c-1.118,10.755-1.568,18.814-0.409,18.814h49.902  C85.876,98.683,75.145,25.932,75.145,25.932z M20.839,68.381c0-3.125,3.567-23.363,3.567-23.363l10.909-0.212  c-1.207,8.626-2.592,18.974-3.672,28.289C30.868,72.976,20.839,71.387,20.839,68.381z"/>
<path d="M37.049,28.436c-6.15-9.058,2.793-23.56,11.635-14.082c-0.1-14.28,23.164-12.257,21.147,2.398  C87.245,13.474,80.19,29.33,76.56,30.205c-0.037-0.49-0.037-0.263-0.113-0.971c5.518-6.54,3.94-14.197-8.126-10.235  c-1.228-16.852-18.205-13.81-18.788-1.482c-11.485-9.329-14.332,5.352-12.141,8.449C36.874,29.634,37.049,28.436,37.049,28.436"/>
</svg>