<?xml version="1.0" encoding="utf-8"?>
<!-- Generator: Adobe Illustrator 14.0.0, SVG Export Plug-In . SVG Version: 6.00 Build 43363)  -->
<!DOCTYPE svg PUBLIC "-//W3C//DTD SVG 1.0//EN" "http://www.w3.org/TR/2001/REC-SVG-20010904/DTD/svg10.dtd">
<svg version="1.0" id="Layer_1" xmlns="http://www.w3.org/2000/svg" xmlns:xlink="http://www.w3.org/1999/xlink" x="0px" y="0px"
	 width="58.173px" height="100px" viewBox="0 0 58.173 100" enable-background="new 0 0 58.173 100" xml:space="preserve">
<path fill-rule="evenodd" clip-rule="evenodd" d="M6.432,0c-0.869,2.559-0.281,6.575-2.44,7.84c0.138,0.776-0.23,1.047-0.173,1.745
	c-1.162,1.681-2.28,3.411-3.659,4.878c-1.046,3.605,3.469,4.357,1.218,6.968c1.053,2.341-0.938,4.401-0.521,6.795
	c0.232,1.332,1.807,2.172,1.047,3.832c0.698,1.565,1.827,2.701,2.264,4.53c-0.186,0.742-1.478,0.377-1.393,1.395
	c1.143,0.736,2.893,3.636,4.354,1.391c0.025,1.312,2.333,0.339,2.437,1.567c-0.241,0.526-0.898-0.36-1.217,0.178
	c-0.157,1.186,0.247,2.593,0,3.308c-1.148-0.479-0.628-2.624-2.09-2.79c-1.752,1.212-0.536,5.168-0.174,7.319
	c1.523,0.521,3.404,1.57,2.438,4.004c-0.694,0.069-1.131-0.696-1.742-0.175c-0.219,3.009,1.213,4.361,2.266,6.1
	c-0.859,3.648,3.567,4.438,2.613,8.188c2.141,1.026,0.66,4.999,1.218,7.316c1.726,1.086,3.287,2.377,5.228,2.965
	c0.47,0.141,0.914-0.081,1.394,0.171c1.725,0.93,2.691,3.702,4.354,4.877c1.764,1.252,3.277,0.425,4.705,2.441
	c0.191,1.003-0.801,0.825-0.523,1.916c0.501,0.37,1.739,0.005,2.267,0.348c1.611,2.008,5.678,4.992,2.613,8.014
	c0.173,1.335,1.358,1.658,1.219,3.311c5.787,0.54,11.665,0.994,17.422,1.567c0.415-1.037,2.152-0.748,2.788-1.567
	c0.09-1.541-1.324-1.58-1.395-2.96c0.478-0.758,0.854-1.022,0.522-2.267c0.564-0.189,0.55-0.958,1.219-1.047
	c0.077-3.29,3.262-3.476,3.483-6.618c-0.534-0.918-1.353-1.396-1.567-2.438c-0.261-1.262,0.271-3.057-0.173-4.532
	c-0.483-1.604-2.419-3.716-3.659-5.574C44.151,60.07,34.65,47.04,26.64,34.496c2.195-8.955,4.134-18.167,6.274-27.177
	C24.403,4.562,15.524,2.171,6.432,0z"/>
<path fill-rule="evenodd" clip-rule="evenodd" d="M32.914,7.319c-2.141,9.009-4.079,18.222-6.274,27.177
	c8.011,12.544,17.512,25.575,26.134,38.5c1.24,1.858,3.176,3.97,3.659,5.574c0.444,1.476-0.088,3.271,0.173,4.532
	c0.215,1.042,1.033,1.521,1.567,2.438c-0.222,3.143-3.406,3.328-3.483,6.618c-0.669,0.089-0.654,0.857-1.219,1.047
	c0.332,1.244-0.045,1.509-0.522,2.267c0.07,1.38,1.484,1.419,1.395,2.96c-0.636,0.819-2.373,0.53-2.788,1.567
	c-5.757-0.573-11.635-1.027-17.422-1.567c0.14-1.652-1.046-1.976-1.219-3.311c3.064-3.021-1.002-6.006-2.613-8.014
	c-0.527-0.343-1.766,0.022-2.267-0.348c-0.278-1.091,0.715-0.913,0.523-1.916c-1.428-2.017-2.94-1.189-4.705-2.441
	c-1.662-1.175-2.628-3.947-4.354-4.877c-0.48-0.252-0.924-0.03-1.394-0.171c-1.94-0.588-3.502-1.879-5.228-2.965
	c-0.558-2.317,0.923-6.29-1.218-7.316c0.954-3.75-3.472-4.54-2.613-8.188c-1.053-1.738-2.485-3.091-2.266-6.1
	c0.611-0.521,1.048,0.244,1.742,0.175c0.966-2.435-0.915-3.483-2.438-4.004c-0.362-2.151-1.579-6.107,0.174-7.319
	c1.461,0.166,0.942,2.311,2.09,2.79c0.247-0.715-0.157-2.122,0-3.308c0.318-0.538,0.976,0.348,1.217-0.178
	c-0.104-1.228-2.411-0.255-2.437-1.567c-1.461,2.245-3.212-0.655-4.354-1.391c-0.085-1.017,1.207-0.653,1.393-1.395
	c-0.437-1.83-1.565-2.965-2.264-4.53c0.76-1.66-0.814-2.5-1.047-3.832c-0.416-2.394,1.575-4.454,0.521-6.795
	c2.251-2.61-2.264-3.362-1.218-6.968c1.378-1.467,2.497-3.197,3.659-4.878C3.761,8.887,4.13,8.616,3.992,7.84
	C6.151,6.575,5.563,2.559,6.432,0C15.524,2.171,24.403,4.562,32.914,7.319z"/>
</svg>
