<svg xmlns="http://www.w3.org/2000/svg" xmlns:xlink="http://www.w3.org/1999/xlink" version="1.0" id="Calque_2" x="0px" y="0px" width="100px" height="100px" viewBox="174.87 242.37 100 100" enable-background="new 174.87 242.37 100 100" xml:space="preserve">
<g>
	<path d="M260.222,259.186v74c0,2.768-2.23,4.996-4.998,4.996h-59.14c-2.769,0-4.998-2.229-4.998-4.996v-81.631   c0-2.77,2.229-4.999,4.998-4.999h51.514L260.222,259.186z M246.918,322.809v-5.736v-9.996v-9.996v-5.924   c0-3.032-2.466-5.497-5.497-5.497h-31.653c-3.03,0-5.498,2.465-5.498,5.497v6.404v9.996v9.994v5.258   c0,3.033,2.468,5.498,5.498,5.498h15.59h16.063C244.452,328.307,246.918,325.843,246.918,322.809z"/>
	<path d="M245.919,317.552v5.258c0,2.48-2.018,4.498-4.498,4.498h-15.59v-12.754h5.443l3,2.998H245.919z"/>
	<polygon points="245.919,307.557 245.919,317.073 234.469,317.073 231.721,314.323 231.721,307.557  "/>
	<polygon points="245.919,297.561 245.919,307.077 231.721,307.077 231.721,300.309 234.469,297.561  "/>
	<path d="M245.919,291.157v5.924h-11.645l-3.03,3.031l0.087,0.088h-0.087v13.873h-11.295v-13.514h5.882V300.2v-0.119v-13.421h15.59   C243.901,286.659,245.919,288.677,245.919,291.157z"/>
	<path d="M225.357,314.553v12.754h-15.59c-2.479,0-4.498-2.018-4.498-4.498v-5.258h11.648l2.999-2.998H225.357z"/>
	<path d="M225.357,286.659v13.421h-5.44l-2.999-3H205.27v-5.924c0-2.48,2.018-4.498,4.498-4.498H225.357z"/>
	<polygon points="219.47,307.557 219.47,314.323 216.721,317.073 205.27,317.073 205.27,307.557  "/>
	<polygon points="219.47,300.559 219.47,307.077 205.27,307.077 205.27,297.561 216.721,297.561 219.47,300.309  "/>
</g>
</svg>