<svg xmlns="http://www.w3.org/2000/svg" xmlns:xlink="http://www.w3.org/1999/xlink" version="1.1" id="Layer_1" x="0px" y="0px" width="100px" height="100px" viewBox="0 0 100 100" enable-background="new 0 0 100 100" xml:space="preserve">
<g>
	<path d="M64.179,37.59c5.468-8.571,12.039-18.648,12.039-25.316c0-6.719-5.446-12.166-12.165-12.166S51.887,5.555,51.887,12.274   c0,0.799,0.091,1.648,0.256,2.537c6.254,0.618,11.155,5.907,11.155,12.32c0,2.086-0.63,4.489-1.661,7.071   c0.767,1.166,1.544,2.318,2.316,3.442l-0.995,1.722l-1.123,1.946h1.252L51.025,88.195V56.384h-0.431v31.823L38.606,47.986h1.238   l-1.124-1.945l-1.026-1.777c1.317-2.064,2.698-4.217,4.036-6.387c-1.895-3.915-3.194-7.691-3.194-10.746   c0-6.188,4.563-11.33,10.501-12.238c-1.67-4.724-6.174-8.109-11.471-8.109c-6.718,0-12.165,5.447-12.165,12.166   c0,6.681,6.174,16.788,12.065,25.37l-0.993,1.722l-1.124,1.945h2.247h0.559l11.94,40.057c-0.909-0.554-1.811-1.021-2.508-1.021   c-1.009,0-1.83,0.82-1.83,1.83c0,1.009,0.82,1.83,1.83,1.83c0.669,0,1.606-0.406,2.918-1.26l0.088,0.293v2.78   c0.004,0.061,0.392,6.102-2.022,7.107L48.74,100c2.695-1.123,2.302-7.273,2.286-7.52v-2.557l0.173-0.672l0.181,0.104   c1.067,0.675,2.173,1.325,2.996,1.325c1.01,0,1.83-0.821,1.83-1.83c0-1.01-0.82-1.83-1.83-1.83c-0.671,0-1.611,0.408-2.93,1.266   l12.086-46.975h0.551h2.246l-1.124-1.946L64.179,37.59z M56.426,14.983c-0.005,0.16-2.784-3.293-1.709-6.947   c0,0,1.02-0.812,2.95-0.371C57.062,8.791,55.556,13.053,56.426,14.983z M29.941,21.657c-0.005,0.16-2.783-3.292-1.708-6.946   c0,0,1.02-0.812,2.951-0.371C30.577,15.466,29.072,19.728,29.941,21.657z M51.492,88.77c1.336-0.887,2.277-1.318,2.883-1.318   c0.772,0,1.399,0.628,1.399,1.4c0,0.771-0.627,1.399-1.399,1.399c-0.72,0-1.83-0.666-2.814-1.29l-0.192-0.12L51.492,88.77z    M47.589,90.251c-0.772,0-1.4-0.628-1.4-1.399c0-0.772,0.628-1.4,1.4-1.4c0.691,0,1.74,0.613,2.693,1.213l0.098,0.327   C49.095,89.837,48.18,90.251,47.589,90.251z"/>
	<path d="M38.967,27.131c0,2.925,1.227,6.542,3.03,10.311c2.444,5.105,5.948,10.49,8.914,14.814l0.474-0.742   c3.735-5.853,7.816-12.248,9.964-17.75c0.946-2.424,1.519-4.677,1.519-6.632c0-6.145-4.661-11.219-10.635-11.876   c-0.433-0.047-0.871-0.073-1.314-0.073c-0.591,0-1.171,0.044-1.739,0.127C43.411,16.153,38.967,21.132,38.967,27.131z    M44.425,22.737c-0.607,1.125-2.111,5.388-1.243,7.317c-0.005,0.16-2.783-3.292-1.708-6.946   C41.475,23.108,42.494,22.296,44.425,22.737z"/>
	<polygon points="50.947,52.708 50.595,53.319 49.073,55.953 50.595,55.953 51.025,55.953 52.821,55.953 51.025,52.844  "/>
</g>
</svg>