<svg xmlns="http://www.w3.org/2000/svg" xmlns:xlink="http://www.w3.org/1999/xlink" version="1.1" id="Layer_1" x="0px" y="0px" width="100px" height="100px" viewBox="0 0 100 100" enable-background="new 0 0 100 100" xml:space="preserve">
<path d="M73.202,61c0-9.492-5.773-17.632-13.999-21.108v-17.11c0.698-1.388,1.321-2.746,1.832-4.052  c0.941-2.417,1.514-4.663,1.514-6.613c0-6.125-4.647-11.184-10.604-11.839c-0.431-0.047-0.867-0.072-1.309-0.072  c-0.589,0-1.167,0.043-1.733,0.126c-5.75,0.84-10.182,5.804-10.182,11.784c0,2.917,1.223,6.522,3.021,10.279  c0.023,0.049,0.048,0.098,0.072,0.146v17.183C33.364,43.097,27.392,51.348,27.392,61h0.067v37.352c0,0.521,0.421,0.943,0.943,0.943  c0.521,0,0.943-0.422,0.943-0.943V61h2.493v37.162c0,0.521,0.422,0.943,0.943,0.943c0.521,0,0.942-0.422,0.942-0.943V61h2.493  v37.162c0,0.521,0.422,0.943,0.943,0.943c0.521,0,0.943-0.422,0.943-0.943V61h2.493v37.162c0,0.521,0.422,0.943,0.943,0.943  c0.521,0,0.942-0.422,0.942-0.943V61h2.493v37.162c0,0.521,0.422,0.943,0.943,0.943c0.521,0,0.942-0.422,0.942-0.943V61h2.494  v37.162c0,0.521,0.421,0.943,0.943,0.943c0.52,0,0.943-0.422,0.943-0.943V61h2.492v37.162c0,0.521,0.423,0.943,0.943,0.943  s0.943-0.422,0.943-0.943V61h2.492v37.162c0,0.521,0.423,0.943,0.942,0.943c0.521,0,0.943-0.422,0.943-0.943V61h2.493v37.162  c0,0.521,0.423,0.943,0.942,0.943c0.521,0,0.943-0.422,0.943-0.943V61h2.493v37.162c0,0.521,0.422,0.943,0.942,0.943  s0.943-0.422,0.943-0.943V61h2.492v37.162c0,0.521,0.423,0.943,0.943,0.943s0.942-0.422,0.942-0.943V61H73.202z"/>
</svg>