<svg xmlns="http://www.w3.org/2000/svg" xmlns:xlink="http://www.w3.org/1999/xlink" version="1.1" id="Layer_1" x="0px" y="0px" width="100px" height="100px" viewBox="0 0 100 100" enable-background="new 0 0 100 100" xml:space="preserve">
<g>
	<path d="M72.488,76.321v-9.09v-4.22V52.163v-7.119v-1.999c0-1.208-0.47-2.345-1.324-3.201c-0.855-0.855-1.992-1.327-3.201-1.327   c-1.21,0-2.347,0.471-3.201,1.326c-0.855,0.855-1.326,1.993-1.325,3.203l-0.001,1.997V45.4h-0.849l0.002-6.534   c-0.001-2.496-2.032-4.527-4.528-4.528c-2.495,0.001-4.526,2.031-4.526,4.527v6.536h-0.848v-9.852c0-2.496-2.032-4.526-4.529-4.527   c-2.495,0-4.526,2.03-4.527,4.526v9.853h-0.828h-0.019v-25.62c0-1.208-0.47-2.345-1.325-3.2s-1.992-1.326-3.201-1.326l0,0   c-2.496,0-4.526,2.031-4.526,4.527l0,35.82l-2.722-5.139c-0.895-1.699-2.648-2.754-4.576-2.754c-0.837,0-1.673,0.208-2.418,0.601   c-1.225,0.647-2.125,1.73-2.534,3.051c-0.409,1.319-0.279,2.721,0.368,3.942l12.15,22.943c0.679,2.288,2.529,4.021,4.774,4.615   v5.168c0,1.236,1.125,2.24,2.508,2.24h25.271c1.383,0,2.507-1.004,2.507-2.24v-5.828C71.105,81.037,72.488,78.838,72.488,76.321z"/>
</g>
<g>
	<path d="M76.495,98.604H23.806c-6.451,0-11.699-5.607-11.699-12.498V13.703c0-6.892,5.249-12.499,11.699-12.499h52.689   c6.449,0,11.698,5.607,11.698,12.499v72.402C88.193,92.996,82.944,98.604,76.495,98.604z M23.806,4.63   c-4.562,0-8.274,4.07-8.274,9.073v72.402c0,5.003,3.711,9.072,8.274,9.072h52.689c4.561,0,8.272-4.069,8.272-9.072V13.703   c0-5.003-3.712-9.073-8.272-9.073H23.806z"/>
</g>
<g>
	<path d="M46.556,20.812c0,2.056-0.633,3.966-1.713,5.548l1.498,0.864c1.225-1.838,1.941-4.042,1.941-6.412   c0-2.466-0.777-4.753-2.095-6.634l-1.5,0.866C45.86,16.667,46.556,18.66,46.556,20.812z"/>
	<path d="M50.909,20.812c0,2.848-0.846,5.5-2.293,7.727l1.5,0.866c1.593-2.481,2.518-5.431,2.518-8.592   c0-3.258-0.982-6.29-2.667-8.817L48.47,12.86C50.009,15.131,50.909,17.869,50.909,20.812z"/>
</g>
<g>
	<path d="M30.19,20.587c0-2.056,0.633-3.966,1.713-5.548l-1.497-0.865c-1.226,1.838-1.941,4.043-1.941,6.413   c0,2.466,0.777,4.752,2.095,6.634l1.5-0.867C30.886,24.731,30.19,22.74,30.19,20.587z"/>
	<path d="M25.837,20.587c0-2.849,0.844-5.501,2.292-7.727l-1.499-0.865c-1.594,2.48-2.519,5.43-2.519,8.592   c0,3.257,0.983,6.29,2.667,8.817l1.497-0.864C26.737,26.269,25.837,23.531,25.837,20.587z"/>
</g>
</svg>