<svg xmlns="http://www.w3.org/2000/svg" xmlns:xlink="http://www.w3.org/1999/xlink" version="1.1" id="Layer_1" x="0px" y="0px" width="100px" height="94.1798941799px" viewBox="0 0 189 178" enable-background="new 0 0 189 178" xml:space="preserve">
<g>
	<path d="M94.555,118.86c21.582-0.03,39.052-17.551,39.023-39.131c-0.029-21.582-17.553-39.053-39.131-39.024   c-21.582,0.028-39.055,17.549-39.024,39.13C55.451,101.418,72.972,118.889,94.555,118.86z M107.822,60.954   c3.523-0.005,6.387,2.849,6.393,6.375c0.006,3.525-2.85,6.387-6.375,6.393c-3.523,0.006-6.388-2.849-6.391-6.375   C101.445,63.82,104.297,60.959,107.822,60.954z M116.949,87.177c0.014,9.229-10.025,16.724-22.417,16.74   c-12.394,0.019-22.452-7.45-22.464-16.679L116.949,87.177z M81.127,60.989c3.525-0.005,6.386,2.85,6.392,6.376   c0.003,3.525-2.85,6.387-6.375,6.392c-3.527,0.005-6.387-2.85-6.393-6.375C74.746,63.856,77.603,60.994,81.127,60.989z"/>
</g>
</svg>