<svg xmlns="http://www.w3.org/2000/svg" xmlns:xlink="http://www.w3.org/1999/xlink" version="1.1" id="Layer_1" x="0px" y="0px" width="100px" height="100px" viewBox="0 0 100 100" enable-background="new 0 0 100 100" xml:space="preserve">
<polygon points="84.439,72.167 82.068,72.994 76.297,62.555 76.297,88.931 72.863,88.931 72.863,72.853 71.586,72.853   71.586,88.931 68.145,88.931 68.145,60.433 55.459,52.824 46.054,35.126 45.261,35.126 54.49,63.523 45.695,63.523 42.262,88.847   37.31,88.847 33.868,63.523 25.074,63.523 34.303,35.126 33.426,35.126 24.589,53.233 20.915,51.956 31.956,26.022 47.565,26.022   58.357,51.371 68.145,55.422 76.297,55.422 "/>
<circle cx="39.756" cy="18.357" r="5.533"/>
<g>
	<g>
		<circle cx="72.271" cy="50.479" r="3.573"/>
	</g>
</g>
</svg>