<svg xmlns="http://www.w3.org/2000/svg" xmlns:xlink="http://www.w3.org/1999/xlink" version="1.1" id="Layer_1" x="0px" y="0px" width="100px" height="100px" viewBox="0 -0.746 100 100" enable-background="new 0 -0.746 100 100" xml:space="preserve">
<path fill="#000000" d="M68.745,67.217v0.063l11.402,3.056l0.001-0.001l0.001,11.482c-0.002,2.407,1.953,4.362,4.359,4.361  c2.406,0,4.385-1.953,4.385-4.361V63.631l-16.229-4.353L68.745,67.217z"/>
<path fill="#000000" d="M96.057,29.62l-12.936-8.601L96.788-0.246L79.686,17.669l-1.789-4.072l-2.017,8.03l-19.097,19.76H19.376  c0-5.233-4.409-9.755-9.677-9.755C4.34,31.632,0,35.993,0,41.354v16.105h6.906c0,0,0-13.793,0-15.947s0.522-5.497,3.589-5.497  c3.115,0,3.57,2.898,3.587,5.372l0,0l-0.004,4.384V64.92l-3.612,5.655V94.97c0,2.409,1.976,4.362,4.384,4.362  c2.406,0,4.361-1.953,4.361-4.362V73.847l4.823-7.587h34.542v28.71c0,2.409,1.955,4.362,4.361,4.362  c2.408,0,4.385-1.953,4.385-4.362V66.885l15.195-30.768l10.494,1.998c1.838,0.342,3.793-0.499,4.768-2.237  C99.032,33.686,98.237,30.869,96.057,29.62z"/>
</svg>