<svg xmlns="http://www.w3.org/2000/svg" xmlns:xlink="http://www.w3.org/1999/xlink" version="1.1" id="Layer_1" x="0px" y="0px" width="96.42px" height="100px" viewBox="0 0 96.42 100" enable-background="new 0 0 96.42 100" xml:space="preserve">
<path d="M14.534,56.161c0-3.698,2.99-6.685,6.692-6.685c3.695,0,6.694,2.986,6.694,6.685c0,3.694-2.999,6.69-6.694,6.69  C17.524,62.852,14.534,59.854,14.534,56.161"/>
<path d="M79.165,52.066c2.945,0,5.32,2.307,5.345,5.229l0.011,14.112H30.812V52.081L79.165,52.066z"/>
<path d="M24.628,71.396c1.815,0,3.292-1.475,3.292-3.291c0-1.814-1.476-3.291-3.292-3.291h-9.517c-1.823,0-3.288,1.477-3.288,3.291  c0,1.816,1.465,3.291,3.288,3.291H24.628z"/>
<path d="M87.705,85.279V100h8.715V53.32c0-2.4-1.938-4.354-4.347-4.354c-2.414,0-4.368,1.952-4.368,4.354v21.423H9.447V44.516  c0-2.403-2.098-4.357-4.505-4.357v0.003c-2.402,0-4.293,1.95-4.293,4.354V100h8.798V85.279H87.705z"/>
<path d="M87.705,45.767v14.721h8.715v-46.68c0-2.4-1.938-4.354-4.347-4.354c-2.414,0-4.368,1.952-4.368,4.354V35.23H9.447V5.003  c0-2.403-2.098-4.357-4.505-4.357v0.003c-2.402,0-4.293,1.95-4.293,4.354v55.484h8.798V45.767H87.705z"/>
<path d="M14.534,16.536c0-3.698,2.99-6.685,6.692-6.685c3.695,0,6.694,2.986,6.694,6.685c0,3.694-2.999,6.69-6.694,6.69  C17.524,23.227,14.534,20.229,14.534,16.536"/>
<path d="M24.628,31.771c1.815,0,3.292-1.475,3.292-3.291c0-1.814-1.476-3.291-3.292-3.291h-9.517c-1.823,0-3.288,1.477-3.288,3.291"/>
<path d="M79.165,12.43c2.945,0,5.32,2.307,5.344,5.229l0.012,14.112H30.812V12.444L79.165,12.43z"/>
<path d="M24.628,31.771c1.814,0,3.292-1.475,3.292-3.291c0-1.814-1.476-3.291-3.292-3.291h-9.517c-1.823,0-3.288,1.477-3.288,3.291  c0,1.816,1.465,3.291,3.288,3.291H24.628z"/>
</svg>