<svg xmlns="http://www.w3.org/2000/svg" xmlns:xlink="http://www.w3.org/1999/xlink" version="1.1" id="conference" x="0px" y="0px" width="100px" height="100px" viewBox="0 0 100 100" enable-background="new 0 0 100 100" xml:space="preserve">
<path d="M44.677,32.436h21.291c0.882,0,1.597-0.715,1.597-1.597c0-0.882-0.715-1.597-1.597-1.597H44.677  c-0.882,0-1.597,0.715-1.597,1.597C43.081,31.72,43.795,32.436,44.677,32.436z"/>
<path d="M44.677,26.048h42.581c0.882,0,1.597-0.715,1.597-1.597s-0.715-1.597-1.597-1.597H44.677c-0.882,0-1.597,0.715-1.597,1.597  S43.795,26.048,44.677,26.048z"/>
<path d="M97.903,15.403H34.032c-0.882,0-1.597,0.715-1.597,1.597v17.032h3.193V18.597h60.678v39.388H63.942v3.193h33.961  c0.882,0,1.597-0.716,1.597-1.598V17C99.5,16.118,98.785,15.403,97.903,15.403z"/>
<path d="M63.942,50.532h23.315c0.882,0,1.597-0.715,1.597-1.597v-10.24c0-0.478-0.214-0.931-0.584-1.235s-0.858-0.424-1.325-0.331  l-6.399,1.28c-0.303,0.06-0.571,0.206-0.783,0.407l-5.558,4.446l-5.438-2.174c-0.14-0.064-0.286-0.108-0.434-0.131  c-0.387-0.057-0.792,0.027-1.129,0.247c-0.009,0.007-0.017,0.013-0.026,0.018l-3.263,1.958c0.01,0.183,0.026,0.364,0.026,0.549  V50.532z"/>
<path d="M54.243,36.693H7.539c-3.881,0-7.039,3.157-7.039,7.038v27.51c0,3.881,3.157,7.038,7.039,7.038h2.56V83  c0,0.588,0.322,1.127,0.84,1.405c0.237,0.128,0.497,0.191,0.757,0.191c0.307,0,0.612-0.088,0.878-0.263l9.198-6.055h32.472  c3.882,0,7.038-3.157,7.038-7.038v-27.51C61.281,39.851,58.125,36.693,54.243,36.693z"/>
</svg>