<svg xmlns="http://www.w3.org/2000/svg" xmlns:xlink="http://www.w3.org/1999/xlink" version="1.1" id="Layer_1" x="0px" y="0px" width="100px" height="50.738px" viewBox="0 0 100 50.738" enable-background="new 0 0 100 50.738" xml:space="preserve">
<g>
	<path d="M99.97,9.405c-0.006-0.021-0.016-0.039-0.023-0.058C99.93,9.299,99.91,9.253,99.883,9.21   c-0.013-0.021-0.026-0.041-0.042-0.061c-0.028-0.038-0.06-0.073-0.095-0.106c-0.019-0.017-0.035-0.034-0.055-0.048   c-0.011-0.008-0.019-0.019-0.029-0.026c-0.037-0.025-0.076-0.042-0.116-0.061c-0.012-0.006-0.021-0.015-0.034-0.02L88.85,4.54   l0.004-0.331c0.001-0.167-0.015-0.329-0.049-0.486c-0.069-0.314-0.207-0.611-0.404-0.888c-0.099-0.139-0.213-0.272-0.341-0.401   c-1.53-1.546-5.034-2.395-8.391-2.432h-0.001c-3.915-0.043-8.058,1.013-9.052,3.063c-0.143,0.292-0.22,0.606-0.224,0.939   L70.389,4.42l-8.045,3.142c-0.766-0.094-1.548-0.147-2.324-0.156l-0.001,0c-3.914-0.043-8.057,1.013-9.051,3.063   c-0.143,0.292-0.221,0.606-0.224,0.939l-0.007,0.567l-7.963,3c-0.79-0.1-1.601-0.156-2.403-0.165l-0.001,0   c-3.914-0.043-8.058,1.013-9.052,3.063c-0.142,0.293-0.22,0.606-0.224,0.939l-0.006,0.566l-8.695,3.276   c-0.845-0.115-1.717-0.179-2.579-0.188h-0.001c-3.915-0.043-8.057,1.012-9.051,3.063c-0.143,0.293-0.22,0.606-0.224,0.939   l-0.007,0.656L0.506,30.903c-0.003,0.001-0.005,0.003-0.008,0.004c-0.056,0.022-0.109,0.049-0.16,0.083   c-0.007,0.005-0.013,0.013-0.02,0.019c-0.02,0.015-0.036,0.031-0.054,0.047c-0.037,0.033-0.07,0.067-0.099,0.105   c-0.016,0.02-0.03,0.041-0.043,0.063c-0.026,0.041-0.046,0.084-0.065,0.13c-0.008,0.022-0.018,0.042-0.024,0.065   c-0.019,0.066-0.031,0.135-0.032,0.206C0.001,31.627,0,31.63,0,31.633c0,0,0,0,0,0.001c0,0,0,0,0,0.001v10.726   c0,0.324,0.2,0.615,0.503,0.73l19.838,7.594c0.007,0.003,0.015,0.002,0.023,0.004c0.083,0.03,0.169,0.048,0.256,0.048   c0.087,0,0.173-0.018,0.255-0.047c0.007-0.002,0.014-0.001,0.021-0.003l78.597-29.617c0.305-0.115,0.507-0.406,0.507-0.732V9.612   C100,9.541,99.988,9.472,99.97,9.405z M87.263,6.543l-0.029,2.679c-0.012,1.035-3.014,2.506-7.693,2.455L79.58,8.21   C82.474,8.242,85.485,7.67,87.263,6.543z M71.996,3.822C72,3.81,72.008,3.798,72.013,3.786c0.338-0.827,2.343-1.82,5.443-2.125   c0.682-0.067,1.414-0.103,2.195-0.094c0.818,0.009,1.58,0.065,2.286,0.155c2.579,0.325,4.374,1.112,5.052,1.848   c0.093,0.101,0.163,0.201,0.213,0.299c0.057,0.111,0.088,0.22,0.087,0.323c-0.004,0.327-0.307,0.697-0.865,1.049   c-1.211,0.763-3.627,1.44-6.828,1.405c-3.145-0.035-5.512-0.741-6.727-1.514c-0.593-0.377-0.915-0.771-0.911-1.11   C71.959,3.957,71.971,3.89,71.996,3.822z M52.319,11.379c0.004-0.05,0.009-0.101,0.027-0.152c0.317-0.904,2.668-2.023,6.278-2.224   c0.442-0.024,0.899-0.038,1.379-0.033c0.921,0.01,1.772,0.079,2.551,0.189c2.438,0.344,4.133,1.103,4.787,1.813   c0.198,0.216,0.302,0.429,0.299,0.623c-0.011,1.035-3.015,2.506-7.693,2.455c-2.996-0.033-5.287-0.676-6.547-1.406   c-0.708-0.41-1.095-0.847-1.09-1.219C52.31,11.41,52.317,11.395,52.319,11.379z M67.615,13.947l-0.03,2.679   c-0.012,1.035-3.013,2.506-7.692,2.455l0.039-3.466C62.826,15.646,65.835,15.074,67.615,13.947z M32.669,18.783   c0.005-0.05,0.01-0.101,0.028-0.152c0.317-0.904,2.668-2.024,6.277-2.224c0.442-0.024,0.9-0.038,1.379-0.033   c0.947,0.011,1.824,0.082,2.621,0.198c2.4,0.349,4.069,1.101,4.718,1.805c0.197,0.216,0.301,0.428,0.299,0.623   c-0.012,1.035-3.015,2.506-7.693,2.455c-2.997-0.033-5.287-0.676-6.548-1.406c-0.707-0.41-1.094-0.846-1.09-1.218   C32.661,18.814,32.667,18.798,32.669,18.783z M47.965,21.351l-0.029,2.679c-0.012,1.036-3.014,2.506-7.692,2.455l0.038-3.466   C43.176,23.051,46.187,22.479,47.965,21.351z M12.142,26.288c0.325-0.926,2.785-2.078,6.546-2.236   c0.36-0.015,0.728-0.024,1.111-0.02c1.014,0.011,1.945,0.094,2.785,0.224c2.312,0.359,3.92,1.091,4.553,1.778   c0.198,0.216,0.302,0.428,0.299,0.622c-0.011,1.036-3.015,2.507-7.693,2.455c-2.922-0.033-5.178-0.645-6.457-1.352   c-0.742-0.41-1.149-0.85-1.174-1.23c-0.001-0.014-0.007-0.029-0.007-0.043C12.105,26.421,12.118,26.355,12.142,26.288z    M27.41,29.008l-0.029,2.679c-0.013,1.035-3.014,2.506-7.693,2.455l0.039-3.466C22.621,30.708,25.63,30.135,27.41,29.008z    M20.623,38.392L2.986,31.641l7.527-2.837L10.484,31.5c-0.03,2.666,4.71,4.157,9.184,4.207c4.476,0.049,9.247-1.336,9.276-4.002   L29,26.673c0.002-0.166-0.015-0.329-0.048-0.486c-0.069-0.314-0.207-0.611-0.404-0.888c-0.099-0.139-0.213-0.272-0.341-0.401   c-0.676-0.683-1.738-1.23-3.002-1.631l5.866-2.21l-0.031,2.785c-0.029,2.666,4.71,4.157,9.185,4.207   c4.476,0.049,9.247-1.336,9.276-4.002l0.056-5.031c0.002-0.167-0.015-0.329-0.049-0.486c-0.068-0.315-0.207-0.611-0.404-0.888   c-0.099-0.138-0.212-0.272-0.341-0.401c-0.699-0.707-1.812-1.266-3.133-1.67l5.09-1.918l-0.03,2.785   c-0.03,2.666,4.71,4.157,9.184,4.206c4.476,0.05,9.247-1.336,9.276-4.002l0.056-5.031c0.002-0.167-0.015-0.329-0.048-0.486   c-0.069-0.315-0.207-0.611-0.404-0.888c-0.099-0.139-0.213-0.272-0.341-0.401c-0.718-0.725-1.871-1.294-3.238-1.701l5.196-2.029   l-0.032,2.927c-0.029,2.666,4.71,4.157,9.185,4.207s9.246-1.336,9.275-4.002l0.034-3.018l8.243,3.362L20.623,38.392z    M98.436,19.797L21.404,48.825V39.77l77.032-29.027V19.797z"/>
</g>
</svg>