<svg xmlns="http://www.w3.org/2000/svg" xmlns:xlink="http://www.w3.org/1999/xlink" version="1.1" id="Layer_1" x="0px" y="0px" width="100px" height="100px" viewBox="0 0 100 100" enable-background="new 0 0 100 100" xml:space="preserve">
<rect x="75.249" y="70.1" width="7.667" height="1.639"/>
<rect x="75.249" y="48.269" width="7.667" height="1.716"/>
<path d="M1,40.336v3.833h4v54.333h6V44.169h1.5v43.249h53V44.169H67v47.167v1.5h1.5h20.667v5.666h6V44.169h4v-3.833H1z   M89.167,91.336H68.5v-26h20.667V91.336z M89.167,63.836H68.5V44.169h20.667V63.836z"/>
<path d="M23.375,16.999c-2.068,0-3.885,0.434-4.943,1.09C11.876,18.153,6.75,27.312,6.75,39h2.5c0-9.807,4.089-18.098,8.987-18.389  c1.019,0.729,2.936,1.222,5.139,1.222c3.268,0,5.917-1.082,5.917-2.417C29.292,18.081,26.643,16.999,23.375,16.999z"/>
<rect x="89.167" y="25.25" width="3" height="13.75"/>
<rect x="84.25" y="28.542" width="2" height="10.458"/>
<rect x="81" y="25.25" width="1.916" height="13.75"/>
<rect x="75.249" y="27" width="3.833" height="12"/>
</svg>