<svg xmlns="http://www.w3.org/2000/svg" xmlns:xlink="http://www.w3.org/1999/xlink" xmlns:a="http://ns.adobe.com/AdobeSVGViewerExtensions/3.0/" version="1.1" x="0px" y="0px" width="100px" height="100px" viewBox="0 0 100 100" overflow="visible" enable-background="new 0 0 100 100" xml:space="preserve">
<defs>
</defs>
<path d="M100,0H66v20.253C66,21.651,64.689,23,63.291,23H7.595C6.197,23,5,21.651,5,20.253V0H0v100h5V79.747  C5,78.349,6.197,77,7.595,77h55.696C64.689,77,66,78.349,66,79.747V100h34V0z M66,69.468C66,70.866,64.867,72,63.469,72H7.531  C6.133,72,5,70.866,5,69.468V30.532C5,29.134,6.133,28,7.531,28h55.938C64.867,28,66,29.134,66,30.532V69.468z M92,81.141  C92,81.615,91.615,82,91.142,82H70.858C70.385,82,70,81.615,70,81.141V67.859C70,67.385,70.385,67,70.858,67h20.283  C91.615,67,92,67.385,92,67.859V81.141z M92,33.142C92,33.616,91.615,34,91.142,34H70.858C70.385,34,70,33.616,70,33.142V19.858  C70,19.384,70.385,19,70.858,19h20.283C91.615,19,92,19.384,92,19.858V33.142z"/>
</svg>