<svg xmlns="http://www.w3.org/2000/svg" xmlns:xlink="http://www.w3.org/1999/xlink" xmlns:a="http://ns.adobe.com/AdobeSVGViewerExtensions/3.0/" version="1.1" x="0px" y="0px" width="100px" height="100px" viewBox="-2 -0.642 100 100" overflow="visible" enable-background="new -2 -0.642 100 100" xml:space="preserve">
<defs>
</defs>
<path d="M56.282,0C35.64,0,12.784,22.071,12.027,36.358h4.69c0.708,0,1.283,0.575,1.283,1.283v5.434  c0,0.708-0.574,1.283-1.283,1.283h-4.552c2.265,14.9,24.068,35.162,44.117,35.162c21.958,0,39.76-17.801,39.76-39.76  C96.042,17.801,78.24,0,56.282,0z M56.282,73.615c-18.697,0-33.855-15.157-33.855-33.855c0-18.697,15.158-33.855,33.855-33.855  S90.137,21.062,90.137,39.76C90.137,58.458,74.979,73.615,56.282,73.615z"/>
<path d="M17,42.358c0,0.552-0.688,1-1.537,1H1.537c-0.849,0-1.537-0.448-1.537-1v-4c0-0.552,0.688-1,1.537-1h13.926  c0.849,0,1.537,0.448,1.537,1V42.358z"/>
<rect x="5" y="44.358" width="4" height="54"/>
</svg>