<svg xmlns="http://www.w3.org/2000/svg" xmlns:xlink="http://www.w3.org/1999/xlink" version="1.1" id="Layer_1" x="0px" y="0px" width="100px" height="100px" viewBox="0 0 100 100" enable-background="new 0 0 100 100" xml:space="preserve">
<path d="M59.267,74.184c3.242,0,5.779-2.397,9.305-2.397c5.216,0,7.19,2.258,9.868,2.258c4.229,0,6.204-1.834,10.433-2.258  c-0.564-0.422-38.911-19.173-35.104-30.451c1.128-3.242,12.971-6.204,20.584-12.83c7.612-6.625,4.793-17.199,3.524-22.133  c-1.129-4.511-2.819-4.793-2.819-0.705c-0.142,15.084-18.19,6.05-28.685,16.545c-1.924,1.924-1.817,5.772-1.817,5.772  s-2.127-3.391-4.383-3.955c-11.561-3.102-24.185,10.962-32.926-0.458c-1.269-1.55-5.357-4.652-4.088,0.282  c3.947,15.79,11.136,18.75,18.186,18.75c6.768,0,13.535-2.678,17.059,0.705c1.973,1.974-1.127,9.305,0.282,17.059  c1.691,9.305,6.767,12.548,6.767,12.548c0.14,0,2.114-1.129,5.215-1.129"/>
<path d="M2.312,84.897c3.101,0,6.062-2.679,9.305-2.679c2.82,0,5.921,2.255,9.304,2.255c3.667,0,7.049-1.831,10.573-1.831  c3.243,0,6.344,2.115,9.446,2.115c3.384,0,6.344-2.256,9.727-2.256c4.089,0,5.781,2.396,9.588,2.396  c3.242-0.28,5.215-2.396,8.739-2.396c3.385,0,5.922,2.536,9.729,2.536c3.242,0,5.779-2.819,9.023-2.819  c3.242,0,6.767,2.679,10.291,2.679v-7.473c-2.961,0-6.204-2.114-9.164-2.114c-3.666,0-6.908,2.114-10.573,2.114  c-3.666,0-6.626-2.677-9.728-2.677c-3.947,0-5.64,2.677-8.882,2.677c-3.384,0-5.64-2.677-9.023-2.677  c-3.665,0-6.062,2.677-9.867,2.677c-3.102,0-6.626-2.536-9.588-2.536c-2.678,0-6.625,2.396-9.586,2.396  c-3.383,0-7.332-2.255-10.151-2.255c-3.242,0-5.921,2.255-9.163,2.255V84.897z"/>
<path d="M50.667,71.786c3.102,0,5.076,2.397,8.601,2.397"/>
</svg>