<svg xmlns="http://www.w3.org/2000/svg" xmlns:xlink="http://www.w3.org/1999/xlink" version="1.1" id="Layer_1" x="0px" y="0px" width="100.0px" height="100px" viewBox="0 0 432 432" enable-background="new 0 0 432 432" xml:space="preserve">
<g>
	<path fill="#000000" d="M312.561,105.968L182.252,237.312c36.271,35.983,94.842,35.75,130.825-0.519   C349.06,200.524,348.829,141.951,312.561,105.968z M305,229c-27.673,27.886-76.435,25.378-107.503,3.399l0.979-0.985   c30.8,18.93,74.885,18.65,101.081-7.754c26.193-26.404,26.12-70.488,6.948-101.138l1.261-1.271   C329.99,152.144,332.673,201.104,305,229z"/>
	<g>
		<g>
			<g>
				<path fill="#000000" d="M237.53,193.706c0,0,3.911,14.38,9.143,9.107C251.905,197.545,237.53,193.706,237.53,193.706z"/>
				<path fill="#000000" d="M267.831,163.159c0,0,3.912,14.383,9.143,9.112S267.831,163.159,267.831,163.159z"/>
			</g>
			<g>
				<path fill="#000000" d="M261.843,187.52c0,0,3.914,14.386,9.146,9.115C276.216,191.361,261.843,187.52,261.843,187.52z"/>
				<path fill="#000000" d="M235.061,214.518c0,0,3.911,14.385,9.137,9.113C249.429,218.362,235.061,214.518,235.061,214.518z"/>
				<path fill="#000000" d="M288.631,160.521c0,0,3.909,14.388,9.143,9.115C303.004,164.36,288.631,160.521,288.631,160.521z"/>
			</g>
			<g>
				<path fill="#000000" d="M284.581,186.75c0,0,3.909,14.383,9.14,9.112C298.954,190.589,284.581,186.75,284.581,186.75z"/>
				<path fill="#000000" d="M261.254,210.263c0,0,3.911,14.385,9.143,9.112C275.627,214.1,261.254,210.263,261.254,210.263z"/>
			</g>
		</g>
	</g>
</g>
<g>
	<path fill="#000000" d="M163.807,142.693c0,0,6.841-29.103,30.808-34.238C194.614,108.455,189.488,140.982,163.807,142.693z"/>
	<g>
		<path fill="#000000" d="M174.509,237.312l49.05-49.438c-3.177-27.187-17.305-48.613-59.15-38.335    c-48.789-11.983-59.912,19.12-59.912,52.209s26.823,59.913,59.912,59.913c11.402,0,22.059-3.188,31.131-8.714    C188.004,248.852,180.905,243.655,174.509,237.312z M121.667,179.667c-2.333,24.309,5.93,53.325,42.742,68.299    c0,0-58.99-12.397-45.075-69.632L121.667,179.667z"/>
	</g>
</g>
</svg>