<svg xmlns="http://www.w3.org/2000/svg" xmlns:xlink="http://www.w3.org/1999/xlink" version="1.1" id="Layer_1" x="0px" y="0px" width="100.0px" height="100px" viewBox="0 0 432 432" enable-background="new 0 0 432 432" xml:space="preserve">
<path d="M312.561,105.968L182.252,237.312c36.271,35.983,94.842,35.75,130.825-0.519  C349.06,200.524,348.829,141.951,312.561,105.968z M297.773,169.636c-5.233,5.273-9.143-9.115-9.143-9.115  S303.004,164.36,297.773,169.636z M293.721,195.862c-5.23,5.271-9.14-9.112-9.14-9.112S298.954,190.589,293.721,195.862z   M276.974,172.271c-5.23,5.271-9.143-9.112-9.143-9.112S282.204,167,276.974,172.271z M270.988,196.635  c-5.231,5.271-9.146-9.115-9.146-9.115S276.216,191.361,270.988,196.635z M270.396,219.375c-5.231,5.273-9.143-9.112-9.143-9.112  S275.627,214.1,270.396,219.375z M246.673,202.813c-5.231,5.273-9.143-9.107-9.143-9.107S251.905,197.545,246.673,202.813z   M244.197,223.631c-5.226,5.272-9.137-9.113-9.137-9.113S249.429,218.362,244.197,223.631z M305,229  c-27.673,27.886-76.435,25.378-107.503,3.399l0.979-0.985c30.8,18.93,74.885,18.65,101.081-7.754  c26.193-26.404,26.12-70.488,6.948-101.138l1.261-1.271C329.99,152.144,332.673,201.104,305,229z"/>
<g>
	<path d="M163.807,142.693c0,0,6.841-29.103,30.808-34.238C194.614,108.455,189.488,140.982,163.807,142.693z"/>
	<g>
		<path d="M174.509,237.312l49.05-49.438c-3.177-27.187-17.305-48.613-59.15-38.335c-48.789-11.983-59.912,19.12-59.912,52.209    s26.823,59.913,59.912,59.913c11.402,0,22.059-3.188,31.131-8.714C188.004,248.852,180.905,243.655,174.509,237.312z     M121.667,179.667c-2.333,24.309,5.93,53.325,42.742,68.299c0,0-58.99-12.397-45.075-69.632L121.667,179.667z"/>
	</g>
</g>
</svg>