<svg xmlns="http://www.w3.org/2000/svg" xmlns:xlink="http://www.w3.org/1999/xlink" version="1.1" id="Layer_1" x="0px" y="0px" width="100px" height="100px" viewBox="0 0 100 100" enable-background="new 0 0 100 100" xml:space="preserve">
<g>
	<g>
		<path d="M98.885,39.267c-3-8.132-6.001-16.266-9.001-24.398c-0.485-1.314-1.512-2.317-2.997-2.317c-8.535,0-17.07,0-25.604,0    c-1.49,0-3.226-0.239-4.379,0.928c-1.122,1.136-1.905,2.835-2.762,4.16c-1.436,2.22-2.872,4.442-4.309,6.664    c-1.374-2.125-2.748-4.25-4.123-6.376c-0.825-1.278-1.65-2.554-2.477-3.831c-1.153-1.785-3.005-1.544-4.807-1.544    c-8.535,0-17.07,0-25.605,0c-1.496,0-2.544,0.964-3.038,2.301c-3,8.133-6.001,16.265-9.001,24.397    c-0.368,1,0.058,2.344,0.817,3.049c14.782,13.71,29.563,27.42,44.345,41.131c0.562,0.521,1.125,1.044,1.688,1.563    c-0.004-0.009-0.009-0.019-0.012-0.029c0.561,0.573,1.335,0.935,2.188,0.935c0.001,0,0.001,0,0.001,0    c0.711,0,1.377-0.247,1.915-0.658c0.111-0.082,0.222-0.169,0.329-0.271C66.837,71.261,81.619,57.551,96.4,43.84    c0.562-0.522,1.126-1.043,1.688-1.565C98.83,41.586,99.244,40.24,98.885,39.267z M34.169,63.983    c-8.651-8.025-17.302-16.048-25.953-24.072c-0.258-0.239-0.515-0.478-0.772-0.715c2.508-6.797,5.015-13.595,7.523-20.391    c7.958,0,15.915,0,23.873,0c2.766,4.277,5.532,8.555,8.296,12.833c1.312,2.027,4.103,1.995,5.404-0.02    c2.761-4.271,5.522-8.542,8.283-12.812c7.96,0,15.919,0,23.877,0c2.509,6.796,5.015,13.593,7.523,20.391    c-14.131,13.105-28.26,26.209-42.39,39.315c-0.916-0.849-1.832-1.698-2.747-2.548C42.781,71.969,38.474,67.976,34.169,63.983z"/>
	</g>
</g>
</svg>