<svg xmlns="http://www.w3.org/2000/svg" xmlns:xlink="http://www.w3.org/1999/xlink" version="1.1" id="Layer_1" x="0px" y="0px" width="100px" height="64.7058823529px" viewBox="0 0 1224 792" enable-background="new 0 0 1224 792" xml:space="preserve">
<path d="M616.03,403.045h-94.06c-1.634,0-2.97,1.337-2.97,2.97v14.876c0,1.634,1.336,2.97,2.97,2.97h94.06  c1.633,0,2.97-1.336,2.97-2.97v-14.876C619,404.382,617.663,403.045,616.03,403.045z"/>
<path d="M535.712,488.403c0.284,1.609,1.853,2.926,3.486,2.926h59.604c1.633,0,3.203-1.316,3.486-2.926l10.85-61.504h-88.275  L535.712,488.403z"/>
<path d="M567.515,341.971v59.147h2.97v-59.146c6.417-6.298,10.634-16.924,10.634-28.975c0-12.958-4.875-24.271-12.119-30.325  c-7.245,6.054-12.119,17.367-12.119,30.325C556.881,325.048,561.098,335.673,567.515,341.971z"/>
<path d="M564.559,356.661c0.571-6.376-2.517-14.139-8.73-20.353c-6.214-6.214-13.977-9.302-20.353-8.73  c-0.571,6.376,2.516,14.139,8.73,20.353C550.42,354.144,558.183,357.231,564.559,356.661z"/>
<path d="M573.441,356.661c6.376,0.571,14.139-2.517,20.353-8.73c6.214-6.214,9.302-13.977,8.73-20.353  c-6.376-0.571-14.139,2.516-20.353,8.73C575.957,342.521,572.87,350.284,573.441,356.661z"/>
<path d="M564.559,388.477c0.571-6.376-2.517-14.139-8.73-20.354c-6.214-6.214-13.977-9.301-20.353-8.73  c-0.571,6.376,2.516,14.139,8.73,20.353C550.42,385.96,558.183,389.048,564.559,388.477z"/>
<path d="M582.171,368.123c-6.214,6.214-9.302,13.977-8.73,20.354c6.376,0.571,14.139-2.517,20.353-8.73s9.302-13.977,8.73-20.353  C596.148,358.822,588.385,361.909,582.171,368.123z"/>
</svg>