<svg xmlns="http://www.w3.org/2000/svg" xmlns:xlink="http://www.w3.org/1999/xlink" version="1.1" id="Layer_1" x="0px" y="0px" width="100px" height="100px" viewBox="-346 256 100 100" enable-background="new -346 256 100 100" xml:space="preserve">
<path d="M-326.19,330.493c2.743,0,4.975-2.227,4.975-4.967c0-2.751-2.231-4.972-4.975-4.972c-2.748,0-4.974,2.221-4.974,4.972  C-331.164,328.267-328.938,330.493-326.19,330.493z M-339.501,325.521c0-7.336,5.955-13.294,13.306-13.294  c7.346,0,13.299,5.958,13.299,13.294c0,7.346-5.953,13.293-13.299,13.293C-333.547,338.814-339.501,332.867-339.501,325.521z"/>
<path d="M-268.403,330.493c2.743,0,4.975-2.227,4.975-4.967c0-2.751-2.231-4.972-4.975-4.972c-2.748,0-4.975,2.221-4.975,4.972  C-273.378,328.267-271.151,330.493-268.403,330.493z M-281.715,325.521c0-7.336,5.955-13.294,13.307-13.294  c7.347,0,13.299,5.958,13.299,13.294c0,7.346-5.952,13.293-13.299,13.293C-275.76,338.814-281.715,332.867-281.715,325.521z"/>
<path d="M-290.021,303.994c-0.188,0-0.382-0.026-0.575-0.083c-1.078-0.317-1.693-1.449-1.377-2.527l3.603-12.255  c0.319-1.076,1.43-1.696,2.529-1.378c1.078,0.318,1.693,1.447,1.378,2.525l-3.604,12.257  C-288.33,303.419-289.141,303.994-290.021,303.994L-290.021,303.994z"/>
<path d="M-254.415,301.802c-3.43-2.692-8.049-4.139-12.557-4.9c-0.896-4.438-2.653-10.483-6.034-15.249  c-8.041-11.33-19.648-12.724-20.14-12.776l-27.622-0.016v28.516L-346,297.337v17.244c0,0,11.312-9.355,23.571-6.673  c10.855,2.375,13.739,11.928,13.739,19.788h22.219c-0.34-8.933,4.447-19.536,17.131-19.788  c16.947-0.336,18.657,14.926,18.657,14.926l4.41-4.07C-246.273,318.764-247.09,307.559-254.415,301.802z M-282.571,296.374  c0,0-3.314,19.919-14.247,21.711c-0.803,0.132-1.551,0.124-2.263,0.037v-13.495h-9.271v-7.235h-2.544l-4.715-0.008v-23.366h22.018  c1.116,0.159,10.062,1.714,16.384,10.62c2.475,3.487,3.946,7.943,4.812,11.634C-278.084,295.892-282.571,296.374-282.571,296.374z"/>
</svg>