<svg xmlns="http://www.w3.org/2000/svg" xmlns:xlink="http://www.w3.org/1999/xlink" version="1.1" id="Layer_1" x="0px" y="0px" width="100px" height="69.481px" viewBox="0 0 100 69.481" enable-background="new 0 0 100 69.481" xml:space="preserve">
<path d="M99.921,22.89c-0.016-0.053-0.038-0.1-0.058-0.152c-0.043-0.113-0.093-0.221-0.157-0.326c-0.031-0.05-0.065-0.1-0.103-0.147  c-0.072-0.095-0.153-0.181-0.243-0.26c-0.042-0.039-0.081-0.079-0.127-0.115c-0.02-0.013-0.034-0.034-0.054-0.047  c-0.121-0.084-0.25-0.147-0.383-0.2c-0.008-0.003-0.013-0.011-0.021-0.013l-26.06-9.975V10c0-0.407-0.045-0.801-0.133-1.185  c-0.175-0.764-0.519-1.481-1.009-2.151c-0.244-0.333-0.525-0.657-0.839-0.966C66.968,1.971,58.407,0,50.232,0h-0.001H50.23  c-9.537,0-19.599,2.683-21.965,7.704C27.927,8.421,27.746,9.188,27.746,10v1.174L1.233,21.164c-0.014,0.005-0.026,0.016-0.039,0.023  c-0.129,0.05-0.252,0.11-0.368,0.189c-0.019,0.013-0.032,0.031-0.05,0.044c-0.048,0.037-0.088,0.076-0.131,0.116  c-0.089,0.082-0.17,0.163-0.241,0.257c-0.038,0.05-0.072,0.1-0.105,0.152c-0.063,0.1-0.113,0.205-0.156,0.318  c-0.021,0.052-0.044,0.102-0.06,0.157c-0.046,0.161-0.076,0.329-0.079,0.502c0,0.005-0.002,0.01-0.002,0.018c0,0,0,0,0,0.003v0.002  v26.129c0,0.788,0.487,1.497,1.225,1.778l48.325,18.5c0.017,0.005,0.037,0.002,0.054,0.01c0.204,0.071,0.414,0.116,0.626,0.116  c0.212,0,0.42-0.045,0.621-0.113c0.017-0.005,0.035-0.003,0.051-0.011l47.864-18.035c0.742-0.28,1.233-0.989,1.233-1.783V23.41  C100,23.231,99.969,23.058,99.921,22.89z M31.642,9.514c0.842-2.482,7.902-5.702,18.589-5.702c9.263,0,15.801,2.419,17.927,4.68  c0.49,0.52,0.746,1.035,0.746,1.507c0,2.521-7.273,6.185-18.672,6.185c-11.399,0-18.674-3.664-18.674-6.185  C31.558,9.842,31.587,9.679,31.642,9.514z M68.904,15.728v6.526c0,2.521-7.271,6.185-18.669,6.185v-8.441  C57.284,19.996,64.602,18.522,68.904,15.728z M50.235,39.407L7.273,22.96l20.472-7.713v7.007c0,6.495,11.585,9.999,22.484,9.999  c10.902,0,22.487-3.503,22.487-9.999v-6.519l20.01,7.661l-13.497,5.084L50.235,39.407z M96.189,48.22L52.137,64.819V42.763  l44.053-16.599V48.22z"/>
</svg>