<svg xmlns="http://www.w3.org/2000/svg" xmlns:xlink="http://www.w3.org/1999/xlink" version="1.1" id="Layer_1" x="0px" y="0px" width="100px" height="100px" viewBox="0 0 100 100" enable-background="new 0 0 100 100" xml:space="preserve">
<path d="M1,91.667C1,73.173,55.836,27.584,60.782,23.07c2.365-2.151,9.031-6.238,14.408-5.163c3.225,0.645,3.225,2.795,3.225,2.795  c-0.429,1.075-0.646,1.937-0.646,2.795c0,5.592,6.667,10.107,8.603,10.968c2.15,1.075,4.945,1.506,4.945,1.506  c0,4.085-1.076,7.955-3.654,10.751c-4.087,4.516-31.611,28.814-41.504,35.267c-7.527,4.946-27.095,17.203-37.848,17.203  C3.797,99.192,1,96.184,1,91.667L1,91.667z M92.177,33.174c0,0-0.213-1.076-0.86-1.935c-0.428-0.43-1.076-1.291-1.076-3.011  c0-4.731,3.874-8.602,3.874-13.333c0-3.01-0.861-7.311-7.314-10.967C80.35,0.274,76.695-0.371,76.05,0.06  c-1.289,0.645-2.363,4.085-1.72,4.73c0.646,0.645,2.795,1.075,4.302,1.505c2.363,0.645,9.031,3.441,9.031,8.817  s-2.797,6.235-4.087,6.235c-1.075,0-2.364-0.859-2.364-0.859c-0.217,0.431-0.217,1.075-0.217,1.506  C80.995,26.509,86.801,32.53,92.177,33.174L92.177,33.174z M51.535,49.95c-0.215,0.428,0.86,2.364,1.505,2.578  c0,0,12.472-9.677,16.345-12.903c6.02-4.945,6.234-9.46-3.873-0.859C59.707,43.712,51.106,49.95,51.535,49.95L51.535,49.95z   M50.246,51.024l-3.44,2.579c-1.722,1.29-0.431,3.655,1.504,2.58l3.441-2.58C50.889,52.959,50.46,51.884,50.246,51.024z"/>
</svg>