<svg xmlns="http://www.w3.org/2000/svg" xmlns:xlink="http://www.w3.org/1999/xlink" version="1.1" id="Layer_1" x="0px" y="0px" width="100px" height="100px" viewBox="0 0 100 100" enable-background="new 0 0 100 100" xml:space="preserve">
<path d="M80.452,62.66c1.529-3.789,2.392-7.922,2.392-12.259c0-4.226-0.828-8.253-2.287-11.963c1.322-0.274,2.407-0.878,3.225-1.826  c1.821-2.111,1.574-5.091,1.566-5.179c-0.271-4.812-3-9.467-7.679-13.109c-3.806-2.959-8.436-4.812-11.603-4.653  c-4.566,0.26-6.729,3.275-7.378,5.157c-2.743-0.745-5.614-1.177-8.593-1.177c-3.151,0-6.189,0.47-9.072,1.302  c-0.86-1.871-3.021-4.366-7.149-4.598c-5.997-0.326-18.679,7.092-19.282,17.723c-0.012,0.126-0.258,3.109,1.565,5.22  c0.818,0.948,1.907,1.55,3.228,1.823c-1.294,3.521-2.037,7.309-2.037,11.279c0,4.08,0.78,7.972,2.143,11.572  c-1.368,0.263-2.495,0.868-3.333,1.841c-1.823,2.11-1.577,5.093-1.568,5.181c0.592,10.433,12.655,17.772,18.87,17.772  c0.141,0,0.28-0.003,0.415-0.013c4.326-0.244,6.508-2.978,7.279-4.868c2.846,0.808,5.837,1.27,8.943,1.27  c2.944,0,5.785-0.424,8.498-1.155c0.524,1.846,2.677,5.168,7.473,5.438c0.135,0.01,0.274,0.013,0.419,0.013  c3.122,0,7.545-1.833,11.184-4.667c4.679-3.641,7.407-8.295,7.677-13.068c0.01-0.125,0.259-3.107-1.566-5.218  C82.941,63.525,81.816,62.922,80.452,62.66z M80.362,55.666H64.899c2.249-5.911,0-10.373,0-10.373h15.463  C80.362,45.293,81.734,50.264,80.362,55.666z M66.196,15.975c2.087-0.117,6.155,1.133,10.056,4.17  c2.402,1.868,6.479,5.836,6.797,11.454c0.002,0.021,0.162,2.157-1.021,3.519c-0.568,0.654-1.396,0.994-2.444,1.114  c-3.746-7.783-10.46-13.842-18.695-16.72C61.218,18.661,62.473,16.186,66.196,15.975z M50.096,63.852  c-7.425,0-13.444-6.021-13.444-13.45c0-7.425,6.02-13.443,13.444-13.443c7.426,0,13.446,6.018,13.446,13.443  C63.542,57.831,57.521,63.852,50.096,63.852z M44.91,20.126c0,0,4.968-1.367,10.372,0v15.463c-5.909-2.245-10.372,0-10.372,0V20.126  z M17.911,35.802c-1.185-1.361-1.025-3.499-1.02-3.555c0.541-9.528,12.131-15.912,16.854-15.589  c3.131,0.176,4.508,1.954,5.068,3.032c-8.243,3.032-14.921,9.263-18.526,17.209C19.275,36.771,18.466,36.439,17.911,35.802z   M19.779,45.291h15.463c-2.246,5.906,0,10.37,0,10.37H19.779C19.779,55.661,18.411,50.693,19.779,45.291z M33.744,84.456  c-4.721,0.286-16.311-6.062-16.857-15.628c-0.001-0.022-0.157-2.15,1.015-3.51c0.583-0.673,1.429-1.024,2.517-1.135  c3.655,7.856,10.319,14.007,18.526,16.982C38.483,82.186,37.138,84.261,33.744,84.456z M55.284,81.009c0,0-4.97,1.369-10.373,0  V65.548c5.907,2.242,10.373,0,10.373,0V81.009z M83.046,69.549c-0.314,5.581-4.392,9.55-6.794,11.418  c-3.903,3.037-7.976,4.274-10.056,4.172c-4.29-0.244-5.312-3.486-5.402-3.806c8.178-2.831,14.869-8.799,18.655-16.479  c1.123,0.098,1.983,0.457,2.579,1.14C83.211,67.356,83.051,69.491,83.046,69.549z"/>
</svg>