<svg xmlns="http://www.w3.org/2000/svg" xmlns:xlink="http://www.w3.org/1999/xlink" version="1.1" id="Layer_1" x="0px" y="0px" width="100px" height="94.529px" viewBox="0 0 100 94.529" enable-background="new 0 0 100 94.529" xml:space="preserve">
<path d="M100,15.836c0-0.005-0.004-0.011-0.004-0.016c0-0.115-0.02-0.228-0.049-0.336c-0.012-0.039-0.029-0.076-0.043-0.113  c-0.029-0.074-0.062-0.144-0.104-0.21c-0.021-0.037-0.047-0.07-0.07-0.105c-0.049-0.063-0.104-0.121-0.164-0.175  c-0.029-0.026-0.055-0.053-0.086-0.076c-0.014-0.01-0.021-0.023-0.037-0.033c-0.082-0.058-0.172-0.103-0.264-0.139  c-0.004-0.001-0.006-0.003-0.008-0.004l-0.002,0c-0.004-0.001-0.006-0.002-0.006-0.003L81.549,7.884v2.759l13.53,5.18l-32.49,12.245  L33.975,38.85L4.92,27.729l13.845-5.218v0.001v4.737c0,4.392,7.835,6.762,15.206,6.762c7.373,0,15.208-2.37,15.208-6.762V18.96  c0-0.274-0.03-0.541-0.089-0.8c-0.119-0.517-0.352-1.001-0.682-1.455c-0.165-0.227-0.355-0.444-0.568-0.654  c-0.151-0.15-0.316-0.295-0.49-0.437c-0.066-0.054-0.141-0.105-0.209-0.157c-0.112-0.085-0.222-0.17-0.341-0.25  c-0.096-0.066-0.197-0.128-0.296-0.191c-0.102-0.064-0.201-0.127-0.308-0.189c-0.119-0.07-0.245-0.137-0.371-0.205  c-0.09-0.049-0.183-0.098-0.277-0.146c-0.144-0.073-0.293-0.143-0.444-0.212c-0.08-0.037-0.162-0.074-0.243-0.109  c-0.17-0.075-0.343-0.147-0.521-0.218c-0.066-0.026-0.131-0.051-0.197-0.076c-0.197-0.075-0.396-0.148-0.6-0.219  c-0.046-0.016-0.092-0.03-0.139-0.046c-0.174-0.058-0.352-0.114-0.531-0.169l8.263-3.114v0.002v4.737  c0,4.392,7.834,6.762,15.206,6.762c7.373,0,15.207-2.371,15.207-6.762V6.763c0-0.274-0.03-0.541-0.089-0.8  c-0.119-0.517-0.352-1.002-0.683-1.455c-0.165-0.227-0.354-0.444-0.568-0.655c-0.15-0.15-0.315-0.295-0.49-0.437  c-0.065-0.054-0.14-0.104-0.209-0.157c-0.112-0.085-0.223-0.169-0.341-0.25c-0.097-0.065-0.197-0.127-0.297-0.191  c-0.102-0.063-0.201-0.127-0.308-0.189c-0.119-0.07-0.245-0.138-0.371-0.205c-0.091-0.049-0.183-0.098-0.277-0.146  c-0.144-0.073-0.292-0.143-0.443-0.212c-0.079-0.037-0.161-0.074-0.243-0.109c-0.17-0.075-0.343-0.147-0.521-0.217  c-0.065-0.026-0.131-0.051-0.196-0.077c-0.197-0.075-0.396-0.148-0.601-0.218c-0.047-0.016-0.093-0.03-0.139-0.046  c-0.226-0.075-0.455-0.149-0.689-0.219c-1.445-0.43-3.041-0.745-4.692-0.94C69.724,0.16,69.051,0.1,68.375,0.061  c-0.002,0-0.002,0-0.002,0C67.696,0.021,67.017,0,66.342,0H66.34c-6.449,0-13.254,1.815-14.854,5.211  c-0.229,0.485-0.352,1.003-0.352,1.552v0.795l-12.987,4.894c0.057,0.007,0.112,0.017,0.169,0.024  c-0.1-0.013-0.196-0.029-0.297-0.041c-0.665-0.078-1.338-0.139-2.015-0.178c-0.001,0-0.001,0-0.002,0  c-0.676-0.04-1.354-0.06-2.029-0.06h-0.001h-0.001c-6.449,0-13.255,1.815-14.855,5.211c-0.228,0.485-0.351,1.002-0.351,1.551v0.796  L0.839,26.511c-0.099,0.037-0.192,0.085-0.28,0.146c-0.014,0.009-0.022,0.022-0.036,0.031c-0.031,0.023-0.056,0.05-0.084,0.076  c-0.062,0.054-0.117,0.112-0.167,0.176c-0.025,0.033-0.048,0.067-0.069,0.101c-0.043,0.069-0.078,0.143-0.107,0.219  c-0.013,0.035-0.029,0.067-0.04,0.104c-0.032,0.109-0.051,0.223-0.053,0.34C0.001,27.707,0,27.711,0,27.715c0,0.001,0,0.001,0,0.001  c0,0.001,0,0.001,0,0.002V80.73c0,0.534,0.329,1.013,0.828,1.203L33.51,94.444c0.012,0.005,0.025,0.003,0.036,0.007  c0.138,0.048,0.28,0.078,0.425,0.078c0.142,0,0.284-0.029,0.419-0.076c0.011-0.004,0.023-0.002,0.036-0.006l64.738-24.396  c0.502-0.188,0.834-0.669,0.834-1.206V15.842C99.999,15.84,100,15.838,100,15.836z M78.97,15.051c0,1.706-4.918,4.183-12.626,4.183  v-5.709c4.767-0.001,9.716-0.998,12.626-2.887V15.051z M53.77,6.435c0.034-0.099,0.086-0.201,0.147-0.304  c0.021-0.035,0.052-0.071,0.078-0.106c0.047-0.067,0.097-0.135,0.155-0.203c0.039-0.044,0.085-0.089,0.129-0.133  c0.059-0.06,0.119-0.119,0.187-0.179c0.058-0.05,0.119-0.099,0.182-0.149c0.067-0.054,0.135-0.106,0.21-0.159  c0.076-0.055,0.157-0.11,0.241-0.165c0.069-0.045,0.144-0.091,0.219-0.136C55.417,4.84,55.52,4.78,55.628,4.72  c0.067-0.036,0.139-0.072,0.208-0.108c0.128-0.066,0.257-0.132,0.397-0.197c0.05-0.023,0.102-0.045,0.152-0.068  c1.395-0.628,3.297-1.168,5.611-1.481c0.009-0.002,0.016-0.003,0.023-0.004c0.332-0.044,0.671-0.084,1.02-0.118  c0.014-0.001,0.028-0.002,0.041-0.004c0.35-0.035,0.706-0.064,1.072-0.087c0.002,0,0.002,0,0.004,0  c0.701-0.045,1.426-0.074,2.185-0.074c0.796,0,1.562,0.027,2.295,0.077C69.866,2.738,71,2.886,72.037,3.08  c0.073,0.013,0.144,0.027,0.215,0.041c0.82,0.16,1.575,0.35,2.261,0.56c0.069,0.021,0.139,0.043,0.208,0.065  c0.332,0.106,0.652,0.217,0.948,0.332c0.004,0.002,0.008,0.004,0.013,0.005c0.286,0.112,0.551,0.229,0.803,0.347  c0.062,0.029,0.123,0.059,0.184,0.088c0.245,0.121,0.479,0.244,0.687,0.368c0.006,0.005,0.011,0.008,0.019,0.013  c0.2,0.121,0.377,0.243,0.54,0.367C77.958,5.298,78,5.331,78.041,5.363c0.158,0.127,0.306,0.254,0.425,0.38  c0.33,0.353,0.505,0.7,0.505,1.02c0,1.706-4.92,4.184-12.628,4.184c-0.57,0-1.119-0.018-1.657-0.043  c-0.162-0.007-0.318-0.019-0.476-0.028c-0.386-0.024-0.765-0.054-1.132-0.09c-0.151-0.015-0.304-0.029-0.453-0.046  c-0.432-0.049-0.851-0.105-1.258-0.169c-0.053-0.009-0.111-0.015-0.165-0.024c-0.476-0.078-0.929-0.167-1.365-0.264  c-0.062-0.014-0.123-0.029-0.186-0.044c-0.373-0.086-0.731-0.178-1.072-0.275c-0.067-0.02-0.135-0.039-0.201-0.059  c-1.827-0.541-3.17-1.228-3.932-1.911c-0.029-0.027-0.058-0.053-0.084-0.079c-0.069-0.065-0.137-0.13-0.193-0.195  c-0.076-0.085-0.147-0.171-0.204-0.255c-0.025-0.038-0.043-0.075-0.064-0.111c-0.039-0.069-0.074-0.138-0.101-0.206  c-0.015-0.032-0.027-0.064-0.036-0.096c-0.028-0.098-0.05-0.195-0.05-0.288C53.713,6.656,53.733,6.547,53.77,6.435z M46.602,27.249  c0,1.705-4.918,4.183-12.626,4.183v-5.709c4.767,0,9.715-0.998,12.626-2.887V27.249z M39.55,12.658  c-0.065-0.011-0.128-0.024-0.193-0.035C39.422,12.634,39.485,12.647,39.55,12.658z M40.595,12.851c-0.002,0-0.003,0-0.005,0  C40.591,12.85,40.593,12.851,40.595,12.851z M21.4,18.632c0.034-0.1,0.085-0.202,0.147-0.304c0.022-0.036,0.052-0.071,0.078-0.106  c0.047-0.068,0.096-0.135,0.156-0.204c0.038-0.044,0.085-0.089,0.128-0.133c0.059-0.06,0.119-0.119,0.187-0.178  c0.057-0.05,0.119-0.1,0.182-0.149c0.066-0.053,0.135-0.105,0.208-0.159c0.077-0.055,0.158-0.11,0.243-0.166  c0.069-0.045,0.143-0.09,0.218-0.136c0.099-0.061,0.203-0.121,0.312-0.18c0.066-0.037,0.138-0.072,0.207-0.108  c0.129-0.067,0.258-0.132,0.398-0.197c0.049-0.023,0.102-0.045,0.151-0.067c1.396-0.628,3.298-1.169,5.612-1.481  c0.008-0.002,0.016-0.002,0.023-0.003c0.332-0.044,0.671-0.084,1.02-0.118c0.014-0.002,0.027-0.003,0.041-0.004  c0.35-0.035,0.707-0.064,1.073-0.087c0.002,0,0.002,0,0.004,0c0.702-0.045,1.426-0.074,2.184-0.074c0.796,0,1.562,0.026,2.296,0.076  c1.229,0.083,2.362,0.231,3.399,0.424c0.072,0.014,0.144,0.027,0.215,0.041c0.821,0.16,1.576,0.35,2.261,0.561  c0.069,0.021,0.139,0.043,0.208,0.064c0.332,0.107,0.652,0.217,0.948,0.333c0.003,0.001,0.007,0.003,0.013,0.005  c0.286,0.112,0.55,0.229,0.803,0.347c0.062,0.029,0.123,0.059,0.183,0.088c0.245,0.121,0.48,0.243,0.688,0.368  c0.005,0.004,0.011,0.008,0.018,0.012c0.201,0.121,0.378,0.244,0.542,0.367c0.044,0.033,0.087,0.065,0.128,0.098  c0.158,0.127,0.306,0.254,0.424,0.38c0.331,0.353,0.504,0.7,0.504,1.02c0,1.706-4.92,4.184-12.628,4.184  c-0.57,0-1.119-0.018-1.657-0.043c-0.162-0.007-0.318-0.019-0.476-0.028c-0.385-0.024-0.764-0.055-1.131-0.09  c-0.152-0.016-0.304-0.029-0.453-0.046c-0.431-0.049-0.852-0.106-1.257-0.17c-0.054-0.009-0.112-0.016-0.165-0.024  c-0.476-0.078-0.929-0.167-1.366-0.264c-0.063-0.013-0.123-0.029-0.185-0.043c-0.374-0.086-0.732-0.179-1.073-0.275  c-0.067-0.02-0.135-0.039-0.201-0.059c-1.827-0.542-3.17-1.228-3.933-1.912c-0.029-0.026-0.058-0.052-0.084-0.079  c-0.068-0.065-0.136-0.129-0.193-0.194c-0.076-0.085-0.146-0.171-0.203-0.256c-0.026-0.037-0.044-0.075-0.065-0.111  c-0.039-0.069-0.075-0.138-0.102-0.206c-0.013-0.032-0.025-0.064-0.035-0.096c-0.029-0.098-0.05-0.194-0.05-0.288  C21.343,18.854,21.363,18.744,21.4,18.632z M97.42,67.953L35.26,91.378V41.12l21.998-8.289L97.42,17.696V67.953z"/>
</svg>