<?xml version="1.0" encoding="utf-8"?>
<!-- Generator: Adobe Illustrator 15.1.0, SVG Export Plug-In . SVG Version: 6.00 Build 0)  -->
<!DOCTYPE svg PUBLIC "-//W3C//DTD SVG 1.1//EN" "http://www.w3.org/Graphics/SVG/1.1/DTD/svg11.dtd">
<svg version="1.1" id="Layer_1" xmlns="http://www.w3.org/2000/svg" xmlns:xlink="http://www.w3.org/1999/xlink" x="0px" y="0px"
	 width="21.862px" height="100px" viewBox="0 0 21.862 100" enable-background="new 0 0 21.862 100" xml:space="preserve">
<path d="M21.862,22.732C21.862,14.534,17.887,0,10.932,0h-0.001C3.976,0,0,14.534,0,22.732c0,9.689,8.931,9.812,8.931,17.018
	c0,6.107,0.048,26.062,0,27c-0.443,8.688-4.208,18.343-4.208,26.418c0,6.832,6.207,6.832,6.207,6.832h0.001c0,0,6.207,0,6.207-6.832
	c0-8.075-3.765-17.73-4.208-26.418c-0.047-0.938,0-20.893,0-27C12.931,32.545,21.862,32.422,21.862,22.732z"/>
</svg>
