<svg xmlns="http://www.w3.org/2000/svg" xmlns:xlink="http://www.w3.org/1999/xlink" version="1.1" id="Layer_1" x="0px" y="0px" width="100px" height="100px" viewBox="0 0 100 100" enable-background="new 0 0 100 100" xml:space="preserve">
<path fill="#000000" d="M32.662,46.188c1.463,0,2.649-1.187,2.649-2.651c0-1.463-1.186-2.648-2.649-2.648  c-1.464,0-2.65,1.186-2.65,2.648C30.012,45.001,31.198,46.188,32.662,46.188L32.662,46.188z"/>
<path fill="#000000" d="M15.827,57.099c1.464,0,2.651-1.186,2.651-2.65c0-1.462-1.187-2.648-2.651-2.648  c-1.463,0-2.65,1.187-2.65,2.648C13.177,55.913,14.364,57.099,15.827,57.099L15.827,57.099z"/>
<path fill="#000000" d="M23.611,63.574c1.465,0,2.65-1.188,2.65-2.65c0-1.464-1.186-2.65-2.65-2.65c-1.463,0-2.649,1.187-2.649,2.65  C20.962,62.386,22.148,63.574,23.611,63.574L23.611,63.574z"/>
<path fill="#000000" d="M16.139,68.009c1.462,0,2.649-1.185,2.649-2.649s-1.187-2.648-2.649-2.648c-1.465,0-2.65,1.184-2.65,2.648  S14.674,68.009,16.139,68.009L16.139,68.009z"/>
<path fill="#000000" d="M3.046,56.164c1.463,0,2.649-1.186,2.649-2.648c0-1.464-1.186-2.651-2.649-2.651  c-1.464,0-2.65,1.188-2.65,2.651C0.396,54.979,1.582,56.164,3.046,56.164L3.046,56.164z"/>
<path fill="#000000" d="M32.394,92.278c1.463,0,2.65-1.186,2.65-2.648c0-1.464-1.187-2.651-2.65-2.651s-2.65,1.188-2.65,2.651  C29.744,91.093,30.931,92.278,32.394,92.278L32.394,92.278z"/>
<path fill="#000000" d="M32.349,59.905c1.463,0,2.65-1.187,2.65-2.649c0-1.464-1.188-2.65-2.65-2.65  c-1.463,0-2.649,1.187-2.649,2.65C29.7,58.719,30.886,59.905,32.349,59.905L32.349,59.905z"/>
<path fill="#000000" d="M26.115,53.981c1.463,0,2.65-1.187,2.65-2.649c0-1.462-1.187-2.65-2.65-2.65  c-1.463,0-2.649,1.188-2.649,2.65C23.465,52.795,24.652,53.981,26.115,53.981L26.115,53.981z"/>
<path fill="#000000" d="M53.859,99.064c0,0,1.02-12.421,3.447-16.842c2.766-5.036,6.431-9.621,6.431-9.621s1.463-20.4,5.127-27.686  c3.479-6.92,10.989-12.551,10.989-12.551s1.729-5.411,6.545-10.853c5.302-5.988,12.879-7.859,12.879-7.859v85.375L53.859,99.064  L53.859,99.064z"/>
<path fill="#000000" d="M23.466,99.13c-1.01,0-1.96-0.617-2.335-1.618c-0.011-0.03-1.537-3.914-4.595-5.167  c-1.516-0.621-3.195-0.496-5.134,0.384c-2.146,0.973-3.621,3.788-3.969,4.697c-0.491,1.285-1.931,1.93-3.22,1.439  c-1.287-0.491-1.931-1.934-1.439-3.22c0.212-0.556,2.198-5.481,6.57-7.46c3.229-1.463,6.299-1.611,9.124-0.439  c5.065,2.101,7.243,7.772,7.333,8.013c0.484,1.29-0.169,2.728-1.459,3.211C24.053,99.078,23.757,99.13,23.466,99.13L23.466,99.13z   M46.788,98.598c-1.236,0-2.293-0.909-2.468-2.144c-0.021-0.147-2.252-14.906-10.847-14.906c-0.031,0-0.061,0.001-0.092,0.001  c-4.439,0.055-8.643,4.604-8.685,4.65c-0.604,0.675-1.526,0.971-2.413,0.765c-0.884-0.203-1.588-0.868-1.839-1.738  c-0.09-0.305-2.337-7.631-8.432-6.647c-5.891,0.944-6.954,5.352-6.996,5.538c-0.301,1.332-1.621,2.188-2.956,1.905  c-1.335-0.285-2.197-1.573-1.929-2.912c0.064-0.324,1.693-7.951,11.092-9.458c6.302-1.007,10.384,2.947,12.523,6.719  c2.263-1.742,5.709-3.762,9.573-3.809c0.055-0.001,0.111-0.001,0.166-0.001c5.907,0,9.687,3.858,12.062,8.117  C47.361,72.039,51.612,51.109,61.151,34c4.422-7.93,9.676-13.809,14.773-18.137c-7.194,3.863-14.943,9.905-21.106,19.341  C42.776,53.64,42.28,72.004,42.276,72.188c-0.021,1.061-0.71,1.99-1.718,2.32c-1.008,0.332-2.114-0.013-2.758-0.857  c-0.08-0.101-2.28-2.834-5.918-2.834c-3.464,0-5.066,1.429-5.133,1.488c-0.974,0.974-2.534,0.957-3.508-0.017  c-0.974-0.975-0.955-2.572,0.019-3.547c0.298-0.298,3.074-2.913,8.622-2.913c2.321,0,4.277,0.655,5.82,1.482  c0.905-7.034,3.788-20.822,12.939-34.834C67.97,5.951,95.993,4.168,97.179,4.105c1.393-0.078,2.55,0.982,2.622,2.358  c0.006,0.102,0.005,0.202-0.002,0.301c0.084,1.202-0.715,2.32-1.926,2.601l0,0c-0.198,0.047-20.012,4.907-32.366,27.063  C51.643,61.299,49.3,95.914,49.278,96.261c-0.081,1.277-1.114,2.285-2.392,2.335C46.854,98.597,46.821,98.598,46.788,98.598  L46.788,98.598z"/>
</svg>