<svg xmlns="http://www.w3.org/2000/svg" xmlns:xlink="http://www.w3.org/1999/xlink" version="1.1" id="Layer_1" x="0px" y="0px" width="100px" height="100px" viewBox="-346 256 100 100" enable-background="new -346 256 100 100" xml:space="preserve">
<path d="M-272.71,303.418l-7.246-22.857c-0.732-2.605-2.965-7.227-8.563-7.227h-12.581c-5.599,0-7.835,4.622-8.562,7.227  l-7.248,22.857c-1.417,4.915,4.768,6.795,6.229,2.212l6.569-21.042h1.65c0,0-4.583,11.018-4.831,24.488  c-0.157,8.562,4.79,43.616,4.79,43.616c0.334,4.404,6.099,4.416,6.236,0l-0.007-36.767h2.93l-0.005,36.767  c0.136,4.416,5.835,4.404,6.231,0c0,0,4.948-35.054,4.791-43.616c-0.244-13.47-4.829-24.488-4.829-24.488h1.65l6.567,21.042  C-277.478,310.213-271.292,308.333-272.71,303.418z"/>
<path d="M-283.783,272.661l-3.71-11.274c-1.079-3.097-3.993-5.333-7.459-5.333c-4.381,0-7.931,3.551-7.931,7.933  c0,4.381,3.55,7.932,7.931,7.932c2.17,0,4.132-0.875,5.563-2.284L-283.783,272.661z"/>
</svg>