<svg xmlns="http://www.w3.org/2000/svg" xmlns:xlink="http://www.w3.org/1999/xlink" version="1.1" id="Layer_1" x="0px" y="0px" width="100px" height="100px" viewBox="-346 256 100 100" enable-background="new -346 256 100 100" xml:space="preserve">
<path d="M-273.166,303.675l-7.211-22.743c-0.729-2.594-2.95-7.191-8.521-7.191h-12.519c-5.572,0-7.796,4.597-8.52,7.191  l-7.213,22.743c-1.409,4.891,4.745,6.761,6.199,2.204l6.537-20.939h1.643c0,0-4.561,10.963-4.808,24.369  c-0.156,8.519,4.767,43.399,4.767,43.399c0.333,4.385,6.069,4.395,6.205,0l-0.006-36.584h2.916l-0.005,36.584  c0.135,4.395,5.807,4.385,6.2,0c0,0,4.924-34.881,4.768-43.399c-0.242-13.405-4.806-24.369-4.806-24.369h1.643l6.535,20.939  C-277.911,310.437-271.755,308.566-273.166,303.675z"/>
<path d="M-284.703,271.516l-3.84-10.381c-0.91-2.854-3.549-4.935-6.703-4.935c-3.216,0-5.904,2.168-6.755,5.113l-3.672,10.203  H-284.703z"/>
</svg>