<svg xmlns="http://www.w3.org/2000/svg" xmlns:xlink="http://www.w3.org/1999/xlink" version="1.1" id="Layer_1" x="0px" y="0px" width="100px" height="100px" viewBox="0 0 100 100" enable-background="new 0 0 100 100" xml:space="preserve">
<polygon points="23.712,88.838 23.712,86.716 21.449,85.726 23.712,84.028 26.591,71.551 27.25,61.39 31.968,67.96 30.787,62.38   27.674,60.541 26.708,56.861 27.816,55.164 26.708,54.457 27.674,53.325 21.449,48.656 19.468,45.119 20.742,45.119 21.732,42.997   19.468,41.864 17.346,41.864 19.043,39.318 14.94,38.751 10.413,36.488 7.017,33.375 5.037,35.78 2.348,32.809 5.744,31.819   5.178,29.13 2.348,28.189 6.979,25.477 11.403,26.442 11.828,24.037 15.79,24.037 18.195,27.008 21.516,27.9 23.289,27.292   27.392,28.189 25.693,25.169 25.552,19.651 23.43,17.246 24.137,16.114 29.796,16.114 29.23,20.217 31.07,20.076 34.324,21.208   37.72,21.066 39.842,19.651 38.852,17.812 39.842,16.114 48.048,12.859 49.322,10.313 49.322,3.239 52.576,2.248 54.415,2.248   56.68,3.946 57.528,6.634 59.792,4.795 61.349,7.483 63.896,7.2 63.896,10.171 66.3,9.464 66.867,13.567 69.413,13.425   71.739,10.455 71.739,15.406 74.364,16.255 76.771,18.661 79.034,18.236 80.448,19.085 82.571,18.802 86.108,21.632 88.09,21.49   91.909,23.047 96.013,23.471 93.466,28.189 92.476,33.234 92.616,38.469 91.061,40.45 89.363,38.893 87.806,40.874 88.797,42.431   85.684,45.543 84.977,48.074 81.439,51.061 81.298,56.013 83.845,55.447 84.41,52.335 87.523,52.193 89.504,56.72 87.948,59.409   90.354,63.512 86.958,65.21 88.09,67.96 90.777,69.596 89.08,73.133 91.202,77.094 96.013,75.963 95.447,80.065 91.484,81.48   88.797,86.857 84.977,88.838 79.458,86.857 77.054,84.168 75.073,85.726 71.739,85.867 66.3,83.887 62.339,87.141 60.217,87.423   59.509,90.678 60.357,96.762 53.425,96.762 51.854,97.752 49.181,96.054 48.19,93.648 44.087,93.507 42.106,91.668 40.833,93.225   35.739,93.083 33.192,91.103 30.645,92.093 29.089,89.97 25.835,89.688 "/>
</svg>