<svg xmlns="http://www.w3.org/2000/svg" xmlns:xlink="http://www.w3.org/1999/xlink" version="1.1" id="Layer_1" x="0px" y="0px" width="100px" height="100px" viewBox="0 0 100 100" enable-background="new 0 0 100 100" xml:space="preserve">
<polygon points="5.975,20.263 23.497,16.55 33.128,8.311 42.992,7.035 50.702,9.936 41.483,10.284 46.705,16.202 54.596,12.721   68.404,15.273 81.633,13.649 87.436,15.505 93.469,37.901 86.325,44.927 91.218,47.692 91.855,60.026 96.534,67.363 95.896,72.468   82.793,85.825 85.229,93.368 70.029,88.146 66.652,90.003 60.978,88.378 57.613,91.976 50.576,88.115 47.938,89.482 45.742,85.464   29.632,76.627 24.755,78.636 21.364,72.092 9.805,65.751 3.654,35.462 "/>
</svg>