<svg xmlns="http://www.w3.org/2000/svg" xmlns:xlink="http://www.w3.org/1999/xlink" version="1.1" id="Layer_1" x="0px" y="0px" width="100px" height="48.674px" viewBox="0 0 100 48.674" enable-background="new 0 0 100 48.674" xml:space="preserve">
<path d="M40.786,26.824c-0.076-0.076-0.16-0.149-0.248-0.221c-0.034-0.028-0.071-0.053-0.106-0.08  c-0.057-0.043-0.112-0.086-0.173-0.126c-0.048-0.034-0.1-0.065-0.15-0.097c-0.051-0.033-0.102-0.064-0.156-0.096  c-0.06-0.035-0.124-0.069-0.188-0.104c-0.046-0.025-0.093-0.05-0.141-0.074c-0.073-0.037-0.148-0.072-0.225-0.107  c-0.041-0.019-0.082-0.037-0.124-0.055c-0.086-0.038-0.173-0.075-0.263-0.11c-0.034-0.013-0.067-0.025-0.1-0.039  c-0.1-0.038-0.201-0.075-0.304-0.111c-0.023-0.008-0.047-0.015-0.07-0.023c-0.114-0.039-0.23-0.076-0.349-0.111  c-0.732-0.218-1.541-0.377-2.377-0.477c-0.337-0.04-0.679-0.07-1.021-0.09c-0.001,0-0.001,0-0.001,0  c-0.343-0.02-0.686-0.031-1.028-0.031h0c-3.267,0-6.714,0.919-7.524,2.64c-0.116,0.246-0.178,0.508-0.178,0.786v0.403v1.396v2.399  c0,2.225,3.969,3.425,7.702,3.425c3.734,0,7.703-1.201,7.703-3.425v-4.198c0-0.139-0.015-0.274-0.045-0.405  c-0.06-0.262-0.178-0.507-0.345-0.737C40.99,27.041,40.894,26.93,40.786,26.824z M40.159,32.496c0,0.864-2.491,2.119-6.396,2.119  v-2.892c2.415,0,4.921-0.505,6.396-1.462V32.496z M33.762,30.417c-0.289,0-0.566-0.009-0.839-0.022  c-0.082-0.004-0.161-0.01-0.241-0.015c-0.195-0.012-0.387-0.027-0.573-0.045c-0.077-0.007-0.154-0.015-0.229-0.023  c-0.218-0.024-0.431-0.053-0.637-0.086c-0.027-0.004-0.057-0.007-0.083-0.012c-0.241-0.039-0.471-0.084-0.692-0.133  c-0.032-0.007-0.062-0.015-0.094-0.022c-0.189-0.044-0.371-0.09-0.543-0.14c-0.034-0.01-0.068-0.02-0.102-0.03  c-0.926-0.274-1.606-0.622-1.992-0.968c-0.015-0.014-0.029-0.027-0.043-0.04c-0.035-0.033-0.069-0.066-0.098-0.099  c-0.039-0.043-0.074-0.087-0.103-0.129c-0.013-0.019-0.022-0.038-0.033-0.056c-0.02-0.035-0.038-0.07-0.051-0.104  c-0.007-0.016-0.013-0.033-0.018-0.049c-0.014-0.049-0.025-0.098-0.025-0.146c0-0.054,0.01-0.109,0.028-0.166  c0.018-0.05,0.043-0.102,0.075-0.154c0.011-0.018,0.026-0.036,0.039-0.054c0.024-0.034,0.049-0.068,0.079-0.103  c0.019-0.022,0.043-0.045,0.065-0.067c0.03-0.03,0.061-0.06,0.095-0.09c0.029-0.025,0.06-0.05,0.092-0.076  c0.034-0.027,0.068-0.054,0.105-0.081c0.039-0.028,0.08-0.056,0.123-0.083c0.035-0.023,0.072-0.046,0.11-0.069  c0.051-0.031,0.103-0.061,0.158-0.091c0.034-0.019,0.07-0.037,0.104-0.055c0.065-0.034,0.131-0.067,0.202-0.1  c0.025-0.012,0.051-0.023,0.077-0.034c0.707-0.318,1.67-0.592,2.842-0.75c0.004-0.001,0.008-0.001,0.012-0.001  c0.168-0.022,0.34-0.043,0.517-0.06c0.007-0.001,0.014-0.001,0.021-0.002c0.177-0.018,0.358-0.033,0.543-0.044  c0.001,0,0.001,0,0.002,0c0.355-0.023,0.722-0.037,1.106-0.037c0.403,0,0.791,0.013,1.163,0.039  c0.623,0.042,1.197,0.117,1.722,0.215c0.037,0.007,0.073,0.014,0.109,0.021c0.416,0.081,0.798,0.177,1.145,0.284  c0.035,0.011,0.07,0.022,0.105,0.033c0.168,0.054,0.33,0.11,0.48,0.168c0.001,0.001,0.003,0.002,0.006,0.002  c0.145,0.057,0.279,0.116,0.406,0.176c0.032,0.015,0.062,0.029,0.093,0.044c0.124,0.061,0.243,0.123,0.348,0.186  c0.003,0.002,0.005,0.004,0.009,0.006c0.102,0.061,0.191,0.124,0.274,0.186c0.022,0.017,0.044,0.033,0.064,0.049  c0.08,0.064,0.155,0.128,0.215,0.192c0.167,0.179,0.255,0.354,0.255,0.517C40.159,29.162,37.667,30.417,33.762,30.417z"/>
<path d="M57.183,20.646c-0.077-0.076-0.16-0.149-0.249-0.221c-0.033-0.027-0.071-0.053-0.106-0.08  c-0.057-0.043-0.112-0.086-0.173-0.127c-0.048-0.033-0.1-0.065-0.15-0.097c-0.051-0.032-0.102-0.064-0.155-0.096  c-0.061-0.036-0.125-0.07-0.188-0.104c-0.046-0.025-0.093-0.049-0.141-0.074c-0.073-0.037-0.148-0.073-0.225-0.107  c-0.041-0.019-0.082-0.038-0.124-0.056c-0.086-0.038-0.174-0.075-0.264-0.11c-0.033-0.013-0.066-0.025-0.1-0.039  c-0.1-0.038-0.201-0.075-0.304-0.11c-0.023-0.008-0.047-0.016-0.07-0.023c-0.114-0.039-0.23-0.076-0.349-0.111  c-0.732-0.218-1.541-0.377-2.377-0.476c-0.337-0.04-0.678-0.07-1.021-0.09c-0.001,0-0.001,0-0.001,0  c-0.343-0.02-0.687-0.03-1.028-0.03h-0.001c-3.267,0-6.713,0.919-7.524,2.64c-0.116,0.246-0.178,0.508-0.178,0.786v0.403v1.396  v2.399c0,2.225,3.968,3.425,7.702,3.425c3.734,0,7.703-1.201,7.703-3.425v-4.198c0-0.139-0.015-0.274-0.045-0.405  c-0.06-0.262-0.178-0.507-0.345-0.737C57.387,20.862,57.291,20.752,57.183,20.646z M56.556,26.317c0,0.864-2.492,2.119-6.396,2.119  v-2.892c2.415,0,4.921-0.505,6.396-1.462V26.317z M50.159,24.238c-0.289,0-0.567-0.009-0.839-0.022  c-0.082-0.003-0.161-0.009-0.241-0.014c-0.195-0.012-0.387-0.028-0.573-0.045c-0.076-0.008-0.154-0.015-0.229-0.023  c-0.218-0.025-0.431-0.054-0.637-0.086c-0.027-0.004-0.057-0.008-0.084-0.012c-0.241-0.04-0.47-0.084-0.691-0.134  c-0.032-0.007-0.062-0.015-0.094-0.022c-0.189-0.043-0.371-0.09-0.543-0.139c-0.034-0.01-0.068-0.02-0.102-0.03  c-0.926-0.274-1.606-0.622-1.992-0.968c-0.014-0.014-0.029-0.026-0.042-0.04c-0.035-0.033-0.069-0.065-0.098-0.099  c-0.039-0.043-0.075-0.087-0.104-0.129c-0.013-0.019-0.021-0.038-0.032-0.056c-0.02-0.035-0.038-0.07-0.051-0.104  c-0.007-0.016-0.014-0.032-0.018-0.048c-0.015-0.05-0.025-0.099-0.025-0.146c0-0.054,0.01-0.109,0.029-0.166  c0.017-0.05,0.043-0.102,0.075-0.154c0.011-0.018,0.026-0.036,0.04-0.054c0.023-0.035,0.049-0.069,0.079-0.103  c0.02-0.022,0.043-0.045,0.065-0.068c0.03-0.03,0.061-0.06,0.095-0.09c0.028-0.025,0.06-0.05,0.092-0.076  c0.034-0.027,0.068-0.053,0.106-0.081c0.039-0.028,0.08-0.056,0.123-0.083c0.035-0.023,0.073-0.046,0.11-0.069  c0.05-0.03,0.103-0.061,0.158-0.091c0.034-0.019,0.07-0.036,0.105-0.055c0.065-0.034,0.13-0.067,0.202-0.1  c0.025-0.012,0.051-0.023,0.077-0.034c0.707-0.318,1.67-0.592,2.842-0.75c0.004-0.001,0.008-0.001,0.012-0.002  c0.168-0.022,0.34-0.043,0.517-0.06c0.007,0,0.014-0.001,0.021-0.002c0.177-0.018,0.358-0.033,0.543-0.044c0.001,0,0.001,0,0.001,0  C49.407,20.015,49.774,20,50.159,20c0.403,0,0.791,0.014,1.162,0.039c0.623,0.042,1.197,0.117,1.722,0.215  c0.037,0.006,0.073,0.013,0.109,0.021c0.416,0.081,0.798,0.177,1.146,0.284c0.035,0.011,0.07,0.022,0.105,0.033  c0.168,0.054,0.331,0.109,0.48,0.168c0.002,0.001,0.004,0.002,0.006,0.003c0.145,0.057,0.279,0.116,0.407,0.176  c0.032,0.015,0.062,0.03,0.093,0.044c0.124,0.061,0.243,0.123,0.348,0.187c0.002,0.002,0.005,0.004,0.009,0.006  c0.102,0.062,0.192,0.124,0.274,0.186c0.022,0.017,0.044,0.033,0.065,0.049c0.08,0.064,0.155,0.129,0.215,0.192  c0.167,0.179,0.256,0.354,0.256,0.517C56.556,22.983,54.063,24.238,50.159,24.238z"/>
<path d="M74.258,20.139V15.94c0-0.139-0.016-0.274-0.045-0.405c-0.061-0.262-0.179-0.508-0.346-0.737  c-0.084-0.114-0.18-0.225-0.288-0.331c-0.076-0.076-0.16-0.149-0.248-0.222c-0.033-0.027-0.071-0.053-0.106-0.08  c-0.057-0.043-0.112-0.086-0.173-0.127c-0.049-0.033-0.1-0.064-0.15-0.097s-0.102-0.064-0.155-0.096  c-0.061-0.036-0.124-0.07-0.188-0.104c-0.046-0.024-0.092-0.049-0.14-0.074c-0.073-0.037-0.148-0.072-0.226-0.107  c-0.04-0.019-0.081-0.038-0.123-0.055c-0.086-0.038-0.174-0.075-0.264-0.11c-0.033-0.013-0.066-0.026-0.1-0.039  c-0.1-0.038-0.2-0.075-0.304-0.111c-0.023-0.008-0.047-0.015-0.07-0.023c-0.114-0.038-0.23-0.076-0.35-0.111  c-0.732-0.218-1.54-0.377-2.377-0.477c-0.337-0.04-0.678-0.07-1.021-0.09c-0.001,0-0.001,0-0.001,0  c-0.343-0.021-0.687-0.031-1.028-0.031h-0.001c-3.267,0-6.714,0.919-7.524,2.64c-0.116,0.246-0.178,0.508-0.178,0.786v0.403v1.396  v2.399c0,2.225,3.969,3.425,7.702,3.425C70.289,23.563,74.258,22.363,74.258,20.139z M72.952,20.139  c0,0.864-2.491,2.119-6.396,2.119v-2.892c2.414,0,4.921-0.505,6.396-1.462V20.139z M65.475,18.023  c-0.195-0.012-0.387-0.027-0.573-0.045c-0.076-0.008-0.153-0.015-0.229-0.023c-0.219-0.025-0.432-0.054-0.638-0.086  c-0.026-0.004-0.057-0.008-0.083-0.012c-0.241-0.04-0.471-0.084-0.692-0.133c-0.031-0.007-0.062-0.015-0.094-0.022  c-0.188-0.043-0.37-0.09-0.543-0.139c-0.034-0.01-0.068-0.02-0.102-0.03c-0.926-0.274-1.606-0.622-1.992-0.968  c-0.015-0.014-0.028-0.027-0.042-0.04c-0.035-0.033-0.069-0.066-0.099-0.099c-0.038-0.043-0.074-0.087-0.104-0.13  c-0.013-0.019-0.021-0.038-0.032-0.056c-0.02-0.035-0.037-0.07-0.051-0.104c-0.008-0.017-0.014-0.033-0.019-0.049  c-0.014-0.049-0.024-0.099-0.024-0.146c0-0.054,0.01-0.109,0.028-0.166c0.017-0.051,0.043-0.103,0.074-0.154  c0.011-0.018,0.026-0.036,0.04-0.054c0.023-0.034,0.049-0.068,0.078-0.103c0.02-0.022,0.043-0.045,0.065-0.067  c0.03-0.03,0.061-0.061,0.095-0.09c0.029-0.025,0.061-0.051,0.092-0.076c0.034-0.027,0.068-0.054,0.106-0.081  c0.038-0.028,0.08-0.056,0.122-0.083c0.035-0.023,0.073-0.046,0.11-0.069c0.051-0.031,0.103-0.062,0.158-0.091  c0.034-0.019,0.069-0.037,0.104-0.055c0.065-0.034,0.131-0.067,0.202-0.1c0.025-0.012,0.051-0.023,0.077-0.034  c0.706-0.318,1.67-0.592,2.842-0.75c0.005-0.001,0.009-0.001,0.012-0.002c0.169-0.022,0.341-0.042,0.517-0.06  c0.007-0.001,0.015-0.001,0.021-0.002c0.178-0.018,0.358-0.032,0.544-0.044c0.001,0,0.001,0,0.002,0  c0.354-0.023,0.722-0.037,1.106-0.037c0.402,0,0.791,0.013,1.162,0.039c0.623,0.042,1.196,0.117,1.722,0.215  c0.037,0.007,0.073,0.014,0.109,0.021c0.415,0.081,0.798,0.177,1.146,0.284c0.035,0.011,0.069,0.022,0.104,0.033  c0.169,0.054,0.33,0.11,0.48,0.168c0.002,0,0.004,0.001,0.007,0.002c0.145,0.057,0.278,0.116,0.406,0.176  c0.031,0.015,0.062,0.03,0.093,0.045c0.124,0.061,0.243,0.123,0.349,0.186c0.002,0.002,0.005,0.004,0.009,0.006  c0.102,0.061,0.191,0.123,0.274,0.186c0.022,0.017,0.044,0.033,0.064,0.05c0.08,0.064,0.155,0.128,0.215,0.192  c0.168,0.179,0.256,0.354,0.256,0.517c0,0.864-2.492,2.119-6.396,2.119c-0.289,0-0.567-0.009-0.84-0.022  C65.634,18.034,65.555,18.028,65.475,18.023z"/>
<path d="M99.972,14.176c-0.004-0.016-0.011-0.03-0.017-0.045c-0.016-0.042-0.034-0.082-0.058-0.119  c-0.01-0.016-0.02-0.03-0.03-0.045c-0.027-0.036-0.058-0.067-0.091-0.098c-0.013-0.01-0.022-0.022-0.036-0.032  c-0.008-0.006-0.013-0.013-0.021-0.019c-0.047-0.032-0.097-0.057-0.148-0.076l-8.917-3.414V9.762c0-0.139-0.016-0.274-0.045-0.405  c-0.061-0.262-0.179-0.507-0.346-0.737c-0.084-0.115-0.18-0.225-0.288-0.332c-0.076-0.076-0.16-0.149-0.248-0.221  c-0.033-0.028-0.071-0.053-0.106-0.08c-0.057-0.043-0.112-0.086-0.173-0.126c-0.048-0.034-0.1-0.065-0.15-0.097  c-0.051-0.033-0.102-0.064-0.155-0.096c-0.061-0.035-0.124-0.069-0.188-0.104c-0.046-0.025-0.093-0.05-0.141-0.074  c-0.073-0.037-0.148-0.072-0.225-0.107c-0.041-0.019-0.082-0.037-0.124-0.055c-0.086-0.038-0.174-0.075-0.264-0.11  c-0.033-0.013-0.066-0.025-0.1-0.039c-0.1-0.038-0.2-0.075-0.304-0.111c-0.023-0.008-0.047-0.015-0.07-0.023  c-0.114-0.039-0.23-0.076-0.35-0.111c-0.731-0.218-1.54-0.377-2.377-0.477c-0.337-0.04-0.678-0.07-1.021-0.09  c-0.001,0-0.001,0-0.001,0c-0.343-0.02-0.687-0.031-1.028-0.031h-0.001c-0.776,0-1.562,0.054-2.322,0.156l-6.528-2.499V3.426  c0-0.139-0.016-0.274-0.046-0.405c-0.06-0.262-0.178-0.507-0.345-0.737c-0.084-0.115-0.181-0.225-0.288-0.332  c-0.076-0.076-0.16-0.149-0.248-0.222c-0.034-0.027-0.071-0.053-0.106-0.079c-0.057-0.043-0.112-0.086-0.173-0.127  c-0.049-0.033-0.1-0.065-0.15-0.097c-0.051-0.033-0.102-0.064-0.155-0.096c-0.061-0.035-0.124-0.069-0.188-0.104  c-0.046-0.025-0.093-0.05-0.14-0.074c-0.073-0.037-0.148-0.073-0.226-0.108c-0.04-0.019-0.082-0.037-0.123-0.055  c-0.086-0.038-0.174-0.075-0.264-0.11c-0.033-0.013-0.066-0.025-0.1-0.039c-0.101-0.038-0.201-0.075-0.305-0.111  c-0.023-0.008-0.046-0.015-0.069-0.023c-0.114-0.038-0.23-0.075-0.35-0.111c-0.732-0.218-1.54-0.377-2.377-0.477  c-0.337-0.04-0.679-0.07-1.021-0.09l0,0C67.083,0.011,66.74,0,66.397,0l0,0c-3.268,0-6.714,0.92-7.524,2.64  c-0.116,0.246-0.178,0.508-0.178,0.786v0.402l-6.578,2.479l-0.066-0.008c-0.337-0.04-0.678-0.07-1.021-0.09  c-0.001,0-0.001,0-0.001,0c-0.342-0.021-0.686-0.031-1.028-0.031h0h0c-3.267,0-6.714,0.919-7.524,2.64  c-0.115,0.246-0.178,0.508-0.178,0.786v0.403v1.396v2.399c0,2.224,3.969,3.425,7.702,3.425c3.735,0,7.703-1.201,7.703-3.425V9.604  c0-0.139-0.016-0.274-0.045-0.406c-0.061-0.262-0.178-0.507-0.346-0.736c-0.083-0.115-0.18-0.225-0.288-0.332  c-0.077-0.076-0.16-0.149-0.249-0.221c-0.033-0.027-0.071-0.053-0.106-0.08c-0.057-0.043-0.113-0.086-0.173-0.127  c-0.049-0.033-0.1-0.064-0.15-0.097c-0.051-0.032-0.102-0.064-0.156-0.096c-0.06-0.036-0.124-0.07-0.188-0.104  c-0.046-0.024-0.093-0.049-0.14-0.074c-0.073-0.037-0.148-0.072-0.225-0.107c-0.041-0.019-0.082-0.037-0.123-0.055  c-0.086-0.038-0.174-0.075-0.264-0.11c-0.033-0.013-0.066-0.026-0.1-0.039c-0.1-0.038-0.201-0.075-0.304-0.111  c-0.023-0.008-0.046-0.015-0.07-0.023c-0.088-0.03-0.178-0.058-0.269-0.085l4.186-1.578v0.001v2.399  c0,2.225,3.968,3.425,7.703,3.425s7.703-1.201,7.703-3.425V5.391L78.306,7c-1.39,0.445-2.469,1.108-2.879,1.976  c-0.115,0.246-0.178,0.508-0.178,0.786v0.403v1.396v2.399c0,2.225,3.969,3.425,7.702,3.425c3.734,0,7.703-1.201,7.703-3.425v-2.232  l6.854,2.624l-63.745,24.02L2.492,26.402l7.013-2.643v0.001v2.399c0,2.225,3.969,3.425,7.702,3.425c3.735,0,7.703-1.201,7.703-3.425  v-4.198c0-0.139-0.015-0.274-0.045-0.405c-0.06-0.262-0.178-0.507-0.345-0.737c-0.084-0.115-0.18-0.225-0.288-0.332  c-0.077-0.076-0.16-0.149-0.249-0.222c-0.034-0.027-0.071-0.053-0.106-0.08c-0.057-0.043-0.112-0.085-0.173-0.126  c-0.048-0.033-0.1-0.065-0.15-0.097c-0.051-0.033-0.102-0.064-0.155-0.096c-0.061-0.035-0.125-0.07-0.188-0.104  c-0.046-0.024-0.093-0.049-0.141-0.074c-0.073-0.037-0.149-0.072-0.225-0.107c-0.041-0.019-0.082-0.037-0.123-0.055  c-0.086-0.038-0.174-0.075-0.264-0.11c-0.033-0.013-0.066-0.025-0.1-0.039c-0.1-0.038-0.201-0.075-0.304-0.111  c-0.023-0.008-0.047-0.015-0.07-0.023c-0.088-0.029-0.178-0.058-0.269-0.085l4.187-1.578v0.001v2.399  c0,2.225,3.968,3.425,7.702,3.425c3.735,0,7.703-1.201,7.703-3.425v-4.198c0-0.139-0.015-0.274-0.045-0.405  c-0.061-0.262-0.178-0.507-0.346-0.737c-0.083-0.115-0.18-0.225-0.288-0.332c-0.077-0.076-0.16-0.149-0.249-0.221  c-0.033-0.027-0.071-0.053-0.106-0.08c-0.057-0.043-0.113-0.086-0.173-0.127c-0.048-0.033-0.1-0.065-0.15-0.097  c-0.051-0.033-0.102-0.064-0.155-0.096c-0.061-0.036-0.125-0.07-0.188-0.104c-0.045-0.025-0.092-0.05-0.14-0.074  c-0.073-0.037-0.148-0.073-0.225-0.108c-0.041-0.019-0.082-0.037-0.123-0.055c-0.086-0.038-0.174-0.075-0.264-0.11  c-0.033-0.013-0.066-0.026-0.1-0.039c-0.1-0.038-0.201-0.075-0.304-0.11c-0.023-0.008-0.047-0.016-0.07-0.023  c-0.088-0.03-0.179-0.058-0.27-0.086l4.187-1.578v-1.396l-6.578,2.479l-0.065-0.007c-0.337-0.04-0.678-0.07-1.021-0.09  c-0.001,0-0.001,0-0.001,0c-0.343-0.02-0.687-0.03-1.028-0.03h-0.001c-3.267,0-6.713,0.919-7.524,2.64  c-0.116,0.246-0.178,0.508-0.178,0.786v0.402l-6.579,2.479c0.089,0.011,0.176,0.025,0.264,0.038  c-0.109-0.015-0.218-0.032-0.329-0.045c-0.337-0.04-0.678-0.07-1.021-0.09c-0.001,0-0.001,0-0.001,0  c-0.342-0.02-0.686-0.031-1.028-0.031h0h0c-3.267,0-6.714,0.92-7.524,2.64c-0.115,0.246-0.178,0.508-0.178,0.786v0.402l-9.079,3.422  c-0.05,0.018-0.098,0.042-0.143,0.074c-0.007,0.004-0.012,0.011-0.018,0.016c-0.016,0.012-0.029,0.025-0.043,0.038  c-0.031,0.027-0.059,0.057-0.084,0.089c-0.013,0.017-0.024,0.034-0.035,0.051c-0.022,0.035-0.04,0.072-0.054,0.11  c-0.007,0.018-0.015,0.034-0.02,0.053c-0.017,0.055-0.026,0.113-0.027,0.172C0.001,26.391,0,26.393,0,26.395c0,0,0,0,0,0.001  s0,0,0,0v8.951c0,0.271,0.167,0.513,0.419,0.609L33.527,48.63c0.006,0.002,0.012,0.001,0.018,0.003  c0.07,0.024,0.142,0.04,0.216,0.04c0.073,0,0.144-0.015,0.212-0.039c0.006-0.001,0.012-0.001,0.018-0.003l65.587-24.714  c0.254-0.096,0.422-0.339,0.422-0.611v-8.95C100,14.294,99.989,14.234,99.972,14.176z M56.398,13.802  c0,0.864-2.491,2.119-6.396,2.119v-2.892c2.415,0,4.921-0.505,6.396-1.462V13.802z M54.726,8.244c0.002,0,0.003,0.001,0.006,0.002  c0.145,0.057,0.279,0.116,0.407,0.176c0.031,0.015,0.062,0.03,0.092,0.044c0.125,0.062,0.243,0.124,0.348,0.187  c0.003,0.002,0.006,0.004,0.009,0.006c0.102,0.061,0.191,0.123,0.274,0.186c0.022,0.017,0.044,0.033,0.065,0.05  c0.08,0.064,0.154,0.128,0.215,0.192c0.167,0.179,0.255,0.354,0.255,0.517c0,0.864-2.492,2.119-6.396,2.119  c-0.289,0-0.567-0.009-0.839-0.022c-0.082-0.004-0.161-0.01-0.241-0.015c-0.195-0.012-0.387-0.027-0.573-0.045  c-0.077-0.008-0.154-0.015-0.229-0.023c-0.219-0.025-0.432-0.053-0.637-0.086c-0.027-0.004-0.057-0.007-0.083-0.012  c-0.241-0.04-0.471-0.084-0.692-0.133c-0.032-0.007-0.062-0.015-0.094-0.022c-0.189-0.044-0.371-0.091-0.543-0.14  c-0.034-0.01-0.068-0.02-0.102-0.03c-0.926-0.274-1.606-0.622-1.992-0.968c-0.015-0.013-0.029-0.026-0.043-0.04  c-0.035-0.033-0.069-0.066-0.098-0.099c-0.039-0.043-0.074-0.087-0.103-0.129c-0.013-0.019-0.022-0.038-0.033-0.057  c-0.02-0.035-0.038-0.069-0.051-0.104c-0.007-0.017-0.013-0.033-0.018-0.049c-0.014-0.049-0.025-0.099-0.025-0.146  c0-0.054,0.01-0.109,0.029-0.166c0.017-0.051,0.043-0.102,0.075-0.154c0.011-0.018,0.026-0.036,0.04-0.054  c0.024-0.034,0.048-0.068,0.079-0.103c0.02-0.022,0.043-0.045,0.065-0.067c0.029-0.03,0.06-0.061,0.094-0.09  c0.029-0.025,0.061-0.05,0.092-0.076c0.034-0.027,0.068-0.054,0.105-0.081c0.039-0.028,0.08-0.056,0.123-0.083  c0.035-0.023,0.072-0.046,0.11-0.069c0.05-0.031,0.103-0.062,0.158-0.091c0.034-0.019,0.07-0.037,0.105-0.055  c0.065-0.034,0.131-0.067,0.202-0.1c0.025-0.012,0.051-0.023,0.077-0.034c0.707-0.318,1.67-0.592,2.842-0.75  c0.004-0.001,0.008-0.001,0.012-0.002c0.168-0.022,0.34-0.042,0.517-0.06c0.007-0.001,0.014-0.001,0.021-0.002  c0.177-0.018,0.358-0.032,0.543-0.044c0.001,0,0.001,0,0.002,0c0.355-0.023,0.722-0.038,1.106-0.038  c0.403,0,0.791,0.014,1.163,0.039c0.623,0.042,1.196,0.117,1.722,0.215c0.037,0.007,0.073,0.014,0.109,0.021  c0.416,0.081,0.798,0.177,1.146,0.284c0.035,0.011,0.07,0.022,0.105,0.033C54.414,8.13,54.575,8.186,54.726,8.244z M72.795,7.624  c0,0.864-2.491,2.119-6.396,2.119V6.851c2.415,0,4.922-0.505,6.396-1.462V7.624z M66.397,5.545c-0.288,0-0.566-0.009-0.839-0.022  c-0.082-0.003-0.161-0.009-0.241-0.015c-0.195-0.012-0.387-0.027-0.573-0.045c-0.076-0.007-0.153-0.015-0.229-0.023  c-0.219-0.024-0.431-0.053-0.637-0.086c-0.027-0.004-0.057-0.007-0.084-0.012c-0.241-0.04-0.47-0.085-0.691-0.134  c-0.031-0.007-0.062-0.015-0.094-0.022c-0.188-0.044-0.37-0.09-0.543-0.14c-0.034-0.01-0.068-0.02-0.102-0.03  c-0.926-0.274-1.606-0.622-1.992-0.968c-0.015-0.014-0.029-0.026-0.042-0.04c-0.035-0.033-0.069-0.066-0.099-0.099  c-0.039-0.043-0.074-0.087-0.104-0.129c-0.013-0.019-0.021-0.038-0.032-0.056c-0.02-0.035-0.038-0.07-0.052-0.104  c-0.007-0.016-0.013-0.032-0.018-0.049c-0.015-0.049-0.025-0.098-0.025-0.146c0-0.054,0.01-0.109,0.029-0.166  c0.017-0.05,0.043-0.102,0.074-0.154c0.011-0.018,0.026-0.036,0.04-0.054c0.023-0.034,0.048-0.068,0.078-0.103  c0.02-0.022,0.043-0.045,0.065-0.067c0.03-0.03,0.061-0.06,0.095-0.09c0.028-0.025,0.061-0.05,0.092-0.076  c0.034-0.027,0.068-0.053,0.106-0.081c0.038-0.028,0.08-0.056,0.122-0.083c0.035-0.023,0.073-0.046,0.11-0.069  c0.051-0.031,0.103-0.061,0.157-0.091c0.034-0.019,0.07-0.037,0.105-0.055c0.065-0.034,0.131-0.067,0.202-0.1  c0.024-0.012,0.051-0.023,0.077-0.034c0.706-0.318,1.67-0.592,2.842-0.75c0.005,0,0.008-0.001,0.012-0.001  c0.168-0.022,0.34-0.043,0.517-0.06c0.007-0.001,0.015-0.001,0.021-0.002c0.178-0.017,0.358-0.032,0.544-0.044c0,0,0,0,0.001,0  c0.355-0.023,0.723-0.037,1.106-0.037c0.403,0,0.791,0.013,1.163,0.039c0.622,0.042,1.196,0.117,1.722,0.215  c0.037,0.007,0.073,0.014,0.109,0.021c0.415,0.081,0.798,0.177,1.145,0.284c0.035,0.011,0.07,0.022,0.105,0.033  c0.168,0.054,0.33,0.11,0.48,0.168c0.002,0.001,0.004,0.002,0.007,0.002c0.145,0.057,0.278,0.116,0.406,0.176  c0.031,0.015,0.062,0.029,0.093,0.044c0.124,0.061,0.243,0.123,0.348,0.186c0.003,0.002,0.006,0.004,0.01,0.006  c0.102,0.061,0.191,0.124,0.274,0.186c0.022,0.017,0.044,0.033,0.064,0.049c0.08,0.064,0.154,0.128,0.215,0.192  c0.167,0.179,0.256,0.354,0.256,0.517C72.795,4.29,70.303,5.545,66.397,5.545z M89.349,13.96c0,0.864-2.491,2.119-6.396,2.119  v-2.892c2.414,0,4.921-0.505,6.396-1.462V13.96z M82.952,11.881c-0.289,0-0.567-0.009-0.84-0.022  c-0.082-0.004-0.161-0.01-0.241-0.015c-0.194-0.012-0.387-0.027-0.572-0.045c-0.077-0.007-0.154-0.015-0.229-0.023  c-0.219-0.024-0.432-0.053-0.638-0.086c-0.026-0.004-0.057-0.007-0.083-0.012c-0.241-0.04-0.471-0.085-0.692-0.134  c-0.031-0.007-0.062-0.015-0.094-0.022c-0.188-0.044-0.37-0.09-0.543-0.14c-0.034-0.01-0.068-0.02-0.102-0.03  c-0.926-0.274-1.606-0.622-1.992-0.968c-0.015-0.014-0.028-0.027-0.042-0.04c-0.035-0.033-0.069-0.066-0.098-0.099  c-0.039-0.043-0.075-0.087-0.104-0.129c-0.013-0.019-0.022-0.038-0.033-0.056c-0.02-0.035-0.037-0.07-0.051-0.104  c-0.008-0.016-0.014-0.033-0.019-0.049c-0.014-0.049-0.024-0.098-0.024-0.146c0-0.054,0.01-0.109,0.028-0.166  c0.018-0.05,0.043-0.102,0.075-0.154c0.011-0.018,0.025-0.036,0.039-0.054c0.023-0.034,0.049-0.068,0.078-0.103  c0.021-0.022,0.043-0.045,0.066-0.067c0.029-0.03,0.06-0.06,0.094-0.09c0.029-0.025,0.061-0.05,0.092-0.076  c0.034-0.027,0.068-0.053,0.106-0.081c0.039-0.028,0.08-0.056,0.122-0.083c0.035-0.023,0.073-0.046,0.111-0.069  c0.05-0.031,0.103-0.061,0.157-0.091c0.034-0.019,0.07-0.037,0.105-0.055c0.064-0.034,0.13-0.067,0.201-0.1  c0.025-0.012,0.051-0.023,0.077-0.034c0.706-0.318,1.67-0.592,2.842-0.75c0.005-0.001,0.009-0.001,0.012-0.001  c0.169-0.022,0.341-0.043,0.517-0.06c0.008-0.001,0.015-0.001,0.021-0.002c0.178-0.018,0.358-0.033,0.544-0.044  c0.001,0,0.001,0,0.002,0c0.355-0.023,0.722-0.037,1.106-0.037c0.403,0,0.791,0.013,1.162,0.039  c0.623,0.042,1.196,0.117,1.722,0.215c0.037,0.007,0.073,0.014,0.109,0.021c0.416,0.081,0.798,0.177,1.146,0.284  c0.035,0.011,0.07,0.022,0.105,0.033c0.168,0.054,0.33,0.11,0.479,0.168c0.002,0.001,0.004,0.002,0.007,0.002  c0.145,0.057,0.279,0.116,0.406,0.176c0.032,0.015,0.062,0.029,0.093,0.044c0.124,0.061,0.243,0.123,0.349,0.186  c0.002,0.002,0.005,0.004,0.009,0.006c0.102,0.061,0.191,0.124,0.274,0.186c0.022,0.017,0.044,0.033,0.064,0.049  c0.08,0.064,0.155,0.128,0.215,0.192c0.168,0.179,0.256,0.354,0.256,0.517C89.349,10.626,86.856,11.881,82.952,11.881z   M40.001,19.981c0,0.864-2.491,2.119-6.396,2.119v-2.892c2.415,0,4.921-0.505,6.396-1.462V19.981z M27.236,15.617  c0.017-0.05,0.043-0.102,0.075-0.154c0.011-0.018,0.026-0.036,0.04-0.054c0.024-0.034,0.049-0.068,0.079-0.103  c0.02-0.023,0.043-0.045,0.065-0.068c0.03-0.03,0.06-0.06,0.094-0.09c0.029-0.025,0.061-0.05,0.092-0.076  c0.034-0.027,0.068-0.053,0.106-0.08c0.039-0.028,0.08-0.056,0.123-0.084c0.035-0.023,0.073-0.046,0.11-0.069  c0.05-0.03,0.103-0.061,0.158-0.091c0.034-0.019,0.07-0.036,0.105-0.055c0.065-0.034,0.131-0.067,0.202-0.1  c0.024-0.012,0.051-0.023,0.077-0.034c0.707-0.318,1.67-0.592,2.843-0.75c0.004-0.001,0.008-0.001,0.012-0.002  c0.168-0.022,0.34-0.043,0.516-0.06c0.007,0,0.014-0.001,0.021-0.002c0.177-0.018,0.358-0.032,0.543-0.044c0.001,0,0.001,0,0.002,0  c0.355-0.023,0.723-0.038,1.106-0.038c0.403,0,0.791,0.014,1.163,0.039c0.623,0.042,1.196,0.117,1.722,0.215  c0.037,0.006,0.073,0.013,0.109,0.021c0.416,0.081,0.798,0.177,1.146,0.284c0.035,0.011,0.07,0.022,0.105,0.033  c0.168,0.054,0.331,0.109,0.48,0.168c0.002,0.001,0.004,0.002,0.006,0.003c0.145,0.057,0.279,0.116,0.407,0.176  c0.031,0.015,0.062,0.03,0.093,0.044c0.124,0.061,0.243,0.124,0.348,0.186c0.002,0.002,0.005,0.004,0.009,0.006  c0.102,0.062,0.192,0.124,0.274,0.186c0.022,0.017,0.044,0.033,0.065,0.049c0.08,0.064,0.155,0.129,0.215,0.193  c0.167,0.178,0.255,0.354,0.255,0.516c0,0.864-2.492,2.119-6.396,2.119c-0.289,0-0.566-0.009-0.839-0.022  c-0.082-0.003-0.161-0.009-0.241-0.014c-0.195-0.012-0.387-0.028-0.573-0.045c-0.077-0.008-0.154-0.015-0.229-0.023  c-0.219-0.025-0.431-0.054-0.637-0.086c-0.028-0.005-0.057-0.008-0.084-0.012c-0.241-0.04-0.47-0.084-0.692-0.134  c-0.032-0.007-0.062-0.015-0.093-0.022c-0.189-0.043-0.371-0.09-0.543-0.14c-0.034-0.01-0.068-0.02-0.102-0.029  c-0.926-0.274-1.606-0.622-1.992-0.968c-0.015-0.013-0.029-0.026-0.042-0.04c-0.035-0.033-0.069-0.065-0.098-0.099  c-0.039-0.043-0.074-0.086-0.103-0.129c-0.013-0.019-0.022-0.038-0.033-0.056c-0.02-0.035-0.038-0.07-0.051-0.104  c-0.007-0.016-0.013-0.032-0.018-0.048c-0.015-0.05-0.025-0.099-0.025-0.146C27.208,15.729,27.217,15.673,27.236,15.617z   M23.604,26.159c0,0.864-2.491,2.119-6.396,2.119v-2.892c2.415,0,4.921-0.505,6.396-1.462V26.159z M10.84,21.795  c0.017-0.05,0.043-0.102,0.075-0.154c0.011-0.018,0.026-0.036,0.04-0.054c0.024-0.034,0.048-0.068,0.079-0.103  c0.02-0.022,0.043-0.045,0.065-0.067c0.029-0.03,0.06-0.06,0.094-0.09c0.029-0.025,0.061-0.05,0.092-0.076  c0.034-0.027,0.068-0.053,0.105-0.081c0.039-0.028,0.08-0.056,0.123-0.083c0.035-0.023,0.072-0.046,0.11-0.069  c0.05-0.031,0.103-0.061,0.158-0.091c0.034-0.019,0.07-0.037,0.105-0.055c0.065-0.034,0.131-0.067,0.202-0.1  c0.025-0.012,0.051-0.023,0.077-0.034c0.707-0.318,1.67-0.592,2.842-0.75c0.004,0,0.008-0.001,0.012-0.001  c0.168-0.022,0.34-0.043,0.517-0.06c0.007-0.001,0.014-0.001,0.021-0.002c0.177-0.017,0.358-0.032,0.543-0.044  c0.001,0,0.001,0,0.002,0c0.355-0.023,0.723-0.037,1.106-0.037c0.403,0,0.791,0.013,1.163,0.039  c0.623,0.042,1.196,0.117,1.722,0.215c0.037,0.007,0.073,0.014,0.109,0.021c0.416,0.081,0.798,0.177,1.146,0.284  c0.035,0.011,0.07,0.022,0.105,0.033c0.168,0.054,0.33,0.11,0.48,0.168c0.002,0.001,0.004,0.001,0.006,0.002  c0.146,0.057,0.28,0.116,0.407,0.176c0.031,0.015,0.062,0.029,0.093,0.044c0.124,0.061,0.243,0.123,0.348,0.186  c0.003,0.002,0.006,0.004,0.009,0.006c0.102,0.061,0.192,0.123,0.274,0.186c0.022,0.017,0.044,0.033,0.065,0.049  c0.08,0.064,0.154,0.128,0.214,0.192c0.168,0.179,0.256,0.354,0.256,0.517c0,0.864-2.492,2.119-6.396,2.119  c-0.289,0-0.567-0.009-0.839-0.022c-0.082-0.004-0.161-0.009-0.241-0.015c-0.195-0.012-0.387-0.027-0.573-0.045  c-0.077-0.007-0.154-0.015-0.229-0.023c-0.219-0.024-0.432-0.053-0.637-0.086c-0.027-0.004-0.057-0.007-0.083-0.012  c-0.241-0.04-0.471-0.085-0.692-0.134c-0.032-0.007-0.062-0.015-0.094-0.022c-0.189-0.044-0.371-0.09-0.543-0.14  c-0.034-0.01-0.068-0.02-0.102-0.03c-0.926-0.274-1.606-0.622-1.992-0.968c-0.015-0.014-0.029-0.027-0.043-0.04  c-0.035-0.033-0.069-0.066-0.098-0.099c-0.039-0.043-0.074-0.087-0.103-0.129c-0.013-0.019-0.022-0.038-0.033-0.056  c-0.02-0.035-0.038-0.07-0.051-0.104c-0.006-0.016-0.013-0.032-0.018-0.049c-0.014-0.049-0.025-0.098-0.025-0.146  C10.811,21.907,10.821,21.852,10.84,21.795z M98.694,22.855L34.414,47.077v-7.556l64.281-24.221V22.855z"/>
</svg>