<?xml version="1.0" encoding="utf-8"?>
<!-- Generator: Adobe Illustrator 14.0.0, SVG Export Plug-In . SVG Version: 6.00 Build 43363)  -->
<!DOCTYPE svg PUBLIC "-//W3C//DTD SVG 1.0//EN" "http://www.w3.org/TR/2001/REC-SVG-20010904/DTD/svg10.dtd">
<svg version="1.0" id="Layer_1" xmlns="http://www.w3.org/2000/svg" xmlns:xlink="http://www.w3.org/1999/xlink" x="0px" y="0px"
	 width="99.922px" height="100px" viewBox="0 0 99.922 100" enable-background="new 0 0 99.922 100" xml:space="preserve">
<path d="M99.586,87.08c-1.835-5.724-21.715-43.348-34.46-67.231C69.901,12.005,74.285,5.058,77.559,0H75.86H16.841
	c0,0,9.666,13.977,20.892,30.759L25.26,57.015c-4.141-2.158-7.126-1.409-8.929-0.365c-1.988,1.153-3.391,3.164-4.158,5.04
	c-0.475-0.374-0.827-0.502-0.995-0.284c-0.875,1.13-0.742,10.32-11.178,23.65l0.948,0.994c0,0,12.352-17.938,16.12-10.694
	c1.008,1.938,0,19.994,0,19.994c0,2.713,2.479,4.65,4.805,4.65h12.555c0,0,3.104-3.231,2.789-3.72
	c-0.88-1.372-3.27-2.479-5.738-3.307l0.109-0.096c-3.639-4.193,5.649-24.125,17.324-45.224
	c8.946,13.694,17.228,26.878,20.912,34.129c0.329,0.647,0.242,2.319-0.194,2.899c-1.986,2.641-17.514,7.566-17.514,7.566
	s-4.561,1.016-6.38,2.836C45.183,95.637,42.014,100,47.188,100H70.64c2.955-0.628,11.036-1.812,11.036-1.812V100
	c0,0,10.908,0,13.968,0c1.069,0,3.853-1.801,3.924-4.269C99.765,88.896,100.246,89.14,99.586,87.08z"/>
</svg>
