<svg xmlns="http://www.w3.org/2000/svg" xmlns:xlink="http://www.w3.org/1999/xlink" version="1.1" id="Layer_1" x="0px" y="0px" width="100px" height="52.7px" viewBox="0 0 100 52.7" enable-background="new 0 0 100 52.7" xml:space="preserve">
<path d="M99.979,10.677c-0.003-0.014-0.01-0.026-0.015-0.04c-0.011-0.029-0.024-0.057-0.041-0.084  c-0.008-0.013-0.016-0.025-0.025-0.038c-0.019-0.025-0.041-0.047-0.064-0.069c-0.01-0.009-0.02-0.019-0.031-0.028  c-0.005-0.004-0.009-0.009-0.014-0.013c-0.033-0.022-0.068-0.041-0.104-0.055l0,0l0,0c-0.001,0-0.002-0.001-0.004-0.001  l-6.719-2.572V7.352c0-0.104-0.012-0.206-0.033-0.305c-0.046-0.197-0.135-0.382-0.261-0.555c-0.062-0.086-0.136-0.169-0.217-0.25  c-0.058-0.057-0.12-0.112-0.187-0.167c-0.025-0.021-0.054-0.04-0.08-0.06c-0.043-0.032-0.085-0.064-0.13-0.096  c-0.037-0.025-0.075-0.048-0.113-0.073c-0.039-0.024-0.077-0.048-0.117-0.072c-0.046-0.027-0.094-0.053-0.142-0.079  c-0.035-0.019-0.07-0.037-0.106-0.055c-0.055-0.028-0.111-0.055-0.169-0.081c-0.03-0.014-0.062-0.028-0.093-0.042  c-0.065-0.028-0.131-0.056-0.198-0.083c-0.025-0.01-0.051-0.019-0.075-0.029c-0.075-0.029-0.151-0.057-0.229-0.083  c-0.018-0.006-0.035-0.012-0.053-0.018c-0.086-0.029-0.174-0.057-0.263-0.083c-0.552-0.164-1.16-0.284-1.79-0.359  c-0.254-0.03-0.511-0.053-0.769-0.068c-0.001,0-0.001,0-0.001,0c-0.258-0.015-0.517-0.023-0.774-0.023h-0.001  c-0.584,0-1.176,0.041-1.748,0.117l-4.917-1.882V2.58c0-0.104-0.012-0.206-0.034-0.305c-0.045-0.197-0.134-0.382-0.26-0.555  c-0.063-0.086-0.136-0.169-0.217-0.25c-0.058-0.057-0.121-0.112-0.188-0.167c-0.024-0.021-0.053-0.04-0.079-0.06  c-0.043-0.033-0.085-0.064-0.131-0.095c-0.036-0.025-0.075-0.049-0.112-0.073c-0.039-0.024-0.077-0.048-0.118-0.072  c-0.045-0.027-0.093-0.053-0.142-0.079c-0.034-0.019-0.069-0.037-0.105-0.056c-0.055-0.027-0.111-0.054-0.169-0.081  c-0.03-0.014-0.062-0.028-0.093-0.042c-0.065-0.028-0.131-0.056-0.199-0.083c-0.024-0.01-0.05-0.019-0.075-0.029  c-0.075-0.028-0.15-0.057-0.229-0.083c-0.018-0.006-0.035-0.011-0.053-0.018c-0.086-0.029-0.174-0.057-0.263-0.083  c-0.552-0.164-1.16-0.284-1.79-0.359c-0.254-0.03-0.511-0.053-0.77-0.068l0,0C75.212,0.008,74.953,0,74.696,0h-0.001  c-2.46,0-5.056,0.692-5.666,1.988c-0.087,0.185-0.134,0.382-0.134,0.592v0.304L63.941,4.75c0.019,0.002,0.036,0.005,0.054,0.008  c-0.034-0.004-0.068-0.01-0.103-0.014c-0.254-0.03-0.511-0.053-0.769-0.068c-0.001,0-0.001,0-0.001,0  c-0.259-0.015-0.517-0.023-0.774-0.023h-0.001c-2.46,0-5.056,0.692-5.666,1.988c-0.087,0.185-0.134,0.382-0.134,0.592v0.303  l-4.954,1.867c0.038,0.005,0.076,0.011,0.114,0.016c-0.055-0.007-0.108-0.016-0.163-0.022c-0.254-0.03-0.511-0.053-0.769-0.068  c0,0,0,0,0,0c-0.258-0.015-0.517-0.023-0.774-0.023h0c-2.46,0-5.056,0.692-5.666,1.988c-0.087,0.185-0.134,0.382-0.134,0.592v0.303  l-4.954,1.867c0.018,0.002,0.036,0.005,0.055,0.008c-0.035-0.004-0.069-0.01-0.103-0.015c-0.254-0.03-0.511-0.053-0.769-0.067  c-0.001,0-0.001,0-0.001,0c-0.258-0.016-0.517-0.023-0.774-0.023h0c-2.46,0-5.056,0.692-5.666,1.987  c-0.087,0.185-0.134,0.383-0.134,0.592v0.304l-4.954,1.867c0.039,0.004,0.076,0.011,0.115,0.016  c-0.054-0.007-0.108-0.016-0.163-0.022c-0.254-0.03-0.511-0.053-0.769-0.067c0,0,0,0,0,0c-0.258-0.016-0.517-0.023-0.774-0.023  h-0.001c-2.46,0-5.055,0.692-5.666,1.988c-0.087,0.185-0.134,0.383-0.134,0.592v0.304l-4.954,1.867  c0.018,0.002,0.036,0.005,0.055,0.008c-0.035-0.004-0.068-0.01-0.104-0.014c-0.254-0.03-0.511-0.053-0.769-0.068c0,0,0,0,0,0  c-0.258-0.015-0.517-0.023-0.774-0.023h0c-2.46,0-5.056,0.692-5.666,1.988c-0.087,0.185-0.134,0.382-0.134,0.592v0.304L0.32,28.723  c-0.038,0.014-0.074,0.032-0.107,0.056c-0.005,0.004-0.009,0.009-0.014,0.012c-0.012,0.009-0.021,0.02-0.033,0.029  c-0.023,0.021-0.044,0.042-0.062,0.066c-0.01,0.013-0.019,0.025-0.027,0.04c-0.016,0.025-0.029,0.053-0.04,0.081  c-0.005,0.014-0.012,0.027-0.016,0.042C0.009,29.09,0.001,29.133,0,29.177c0,0.002,0,0.004,0,0.006l0,0c0,0.001,0,0.001,0,0.001  v13.48c0,0.204,0.125,0.387,0.316,0.459l24.932,9.544c0.004,0.002,0.009,0.001,0.014,0.003c0.053,0.019,0.106,0.029,0.162,0.029  c0.055,0,0.108-0.011,0.16-0.028c0.004-0.002,0.009-0.001,0.014-0.003l74.085-27.916c0.19-0.072,0.317-0.256,0.317-0.46V10.811  C100,10.765,99.992,10.72,99.979,10.677z M85.514,5.864c0.127-0.017,0.256-0.032,0.389-0.045c0.006-0.001,0.011-0.001,0.016-0.002  c0.134-0.013,0.27-0.024,0.409-0.033c0.001,0,0.001,0,0.002,0c0.268-0.017,0.544-0.028,0.833-0.028c0.304,0,0.596,0.01,0.875,0.029  c0.469,0.032,0.901,0.088,1.297,0.162c0.028,0.005,0.055,0.01,0.082,0.016c0.313,0.061,0.601,0.133,0.862,0.214  c0.026,0.008,0.053,0.017,0.079,0.024c0.127,0.041,0.249,0.083,0.362,0.127c0.001,0,0.003,0.001,0.005,0.002  c0.108,0.042,0.21,0.087,0.306,0.132c0.024,0.011,0.047,0.022,0.07,0.034c0.094,0.046,0.183,0.093,0.262,0.14  c0.002,0.002,0.004,0.003,0.007,0.005c0.077,0.046,0.145,0.093,0.207,0.14c0.017,0.013,0.033,0.025,0.049,0.038  c0.06,0.048,0.116,0.097,0.162,0.145c0.126,0.134,0.192,0.267,0.192,0.389c0,0.651-1.877,1.596-4.817,1.596  c-0.218,0-0.427-0.006-0.632-0.017c-0.062-0.002-0.122-0.007-0.182-0.011c-0.147-0.009-0.292-0.021-0.432-0.034  c-0.058-0.006-0.116-0.011-0.173-0.018c-0.165-0.019-0.324-0.041-0.479-0.065c-0.021-0.003-0.043-0.005-0.063-0.009  c-0.182-0.03-0.354-0.064-0.521-0.101c-0.024-0.005-0.047-0.011-0.07-0.017c-0.143-0.033-0.279-0.068-0.41-0.105  c-0.025-0.008-0.051-0.015-0.076-0.022c-0.697-0.207-1.209-0.468-1.5-0.729c-0.011-0.01-0.021-0.02-0.031-0.03  c-0.027-0.024-0.053-0.049-0.074-0.074c-0.029-0.032-0.057-0.065-0.078-0.098c-0.01-0.014-0.017-0.028-0.024-0.042  c-0.015-0.026-0.028-0.053-0.038-0.079c-0.006-0.012-0.011-0.024-0.014-0.037c-0.011-0.037-0.02-0.074-0.02-0.11  c0-0.041,0.008-0.083,0.021-0.125c0.014-0.038,0.033-0.077,0.057-0.116c0.008-0.014,0.02-0.027,0.03-0.041  c0.018-0.025,0.036-0.051,0.059-0.077c0.015-0.017,0.032-0.034,0.05-0.051c0.021-0.023,0.045-0.045,0.07-0.068  c0.022-0.019,0.046-0.038,0.069-0.057c0.026-0.021,0.052-0.041,0.08-0.061c0.029-0.021,0.061-0.042,0.092-0.063  c0.026-0.017,0.056-0.034,0.084-0.052c0.038-0.023,0.077-0.046,0.118-0.069c0.025-0.014,0.053-0.027,0.079-0.041  c0.049-0.025,0.099-0.051,0.152-0.075c0.019-0.009,0.038-0.018,0.058-0.026c0.532-0.239,1.258-0.446,2.141-0.565  C85.508,5.864,85.511,5.864,85.514,5.864z M91.979,8.83v1.684c0,0.65-1.876,1.596-4.816,1.596V9.931  C88.981,9.931,90.868,9.55,91.979,8.83z M69.9,2.455c0.013-0.038,0.033-0.077,0.057-0.116c0.008-0.014,0.02-0.027,0.029-0.041  c0.018-0.026,0.037-0.052,0.06-0.078c0.015-0.017,0.032-0.034,0.049-0.051c0.022-0.023,0.046-0.045,0.071-0.068  c0.021-0.019,0.046-0.038,0.069-0.057c0.025-0.021,0.052-0.041,0.08-0.061c0.029-0.021,0.061-0.042,0.092-0.063  c0.026-0.017,0.055-0.034,0.084-0.052c0.037-0.023,0.077-0.046,0.118-0.069c0.025-0.014,0.053-0.027,0.079-0.041  c0.049-0.025,0.099-0.051,0.152-0.075c0.019-0.009,0.038-0.018,0.058-0.026c0.532-0.24,1.258-0.446,2.141-0.565  c0.003-0.001,0.006-0.001,0.009-0.001c0.127-0.017,0.256-0.032,0.389-0.045c0.006-0.001,0.011-0.001,0.016-0.002  c0.134-0.013,0.27-0.024,0.409-0.033c0.001,0,0.001,0,0.001,0c0.268-0.017,0.544-0.028,0.834-0.028c0.303,0,0.596,0.01,0.875,0.029  c0.469,0.032,0.901,0.088,1.297,0.162c0.027,0.005,0.055,0.01,0.082,0.016c0.312,0.061,0.601,0.133,0.862,0.214  c0.026,0.008,0.053,0.017,0.079,0.024c0.127,0.041,0.249,0.083,0.362,0.127c0.001,0,0.002,0.001,0.005,0.002  c0.108,0.042,0.21,0.087,0.306,0.132c0.023,0.011,0.047,0.022,0.07,0.034c0.093,0.046,0.183,0.093,0.262,0.14  c0.002,0.002,0.004,0.003,0.007,0.005c0.076,0.046,0.145,0.093,0.207,0.14c0.017,0.013,0.033,0.025,0.049,0.038  c0.06,0.048,0.116,0.097,0.161,0.145c0.126,0.134,0.192,0.267,0.192,0.389c0,0.651-1.876,1.596-4.816,1.596  c-0.218,0-0.427-0.007-0.633-0.017c-0.062-0.002-0.121-0.007-0.182-0.011c-0.146-0.009-0.291-0.021-0.431-0.034  c-0.058-0.006-0.116-0.011-0.173-0.018c-0.165-0.019-0.325-0.041-0.48-0.064c-0.02-0.003-0.042-0.006-0.062-0.009  c-0.182-0.03-0.354-0.064-0.521-0.101c-0.023-0.005-0.046-0.011-0.07-0.017c-0.142-0.033-0.279-0.068-0.409-0.105  c-0.025-0.008-0.051-0.015-0.076-0.022c-0.697-0.207-1.21-0.468-1.5-0.729c-0.011-0.01-0.021-0.02-0.032-0.03  c-0.026-0.025-0.052-0.049-0.073-0.074c-0.029-0.032-0.057-0.065-0.078-0.098c-0.01-0.014-0.017-0.028-0.024-0.042  c-0.015-0.026-0.028-0.053-0.039-0.079c-0.005-0.012-0.01-0.024-0.014-0.037c-0.011-0.038-0.019-0.074-0.019-0.11  C69.879,2.539,69.887,2.497,69.9,2.455z M79.513,4.058v1.684c0,0.65-1.876,1.595-4.816,1.595V5.159  C76.515,5.159,78.402,4.778,79.513,4.058z M57.553,7.107c0.014-0.038,0.033-0.077,0.057-0.116c0.008-0.014,0.02-0.027,0.03-0.041  c0.018-0.025,0.036-0.051,0.059-0.078c0.015-0.017,0.032-0.034,0.05-0.051c0.021-0.022,0.045-0.045,0.07-0.068  c0.022-0.019,0.046-0.038,0.069-0.057c0.025-0.02,0.052-0.04,0.08-0.061c0.029-0.021,0.061-0.042,0.092-0.063  c0.026-0.017,0.056-0.035,0.084-0.052c0.038-0.023,0.077-0.046,0.118-0.069c0.025-0.014,0.053-0.027,0.079-0.041  c0.049-0.026,0.099-0.051,0.152-0.076c0.019-0.009,0.038-0.017,0.058-0.025c0.532-0.24,1.258-0.446,2.141-0.565  c0.003-0.001,0.006-0.001,0.009-0.001c0.127-0.017,0.256-0.032,0.389-0.045c0.006-0.001,0.011-0.001,0.016-0.002  c0.134-0.013,0.27-0.024,0.409-0.033c0.001,0,0.001,0,0.002,0c0.268-0.017,0.544-0.028,0.833-0.028c0.304,0,0.596,0.01,0.875,0.029  c0.469,0.032,0.901,0.088,1.297,0.162c0.027,0.005,0.055,0.01,0.082,0.016c0.313,0.061,0.601,0.133,0.862,0.214  c0.026,0.008,0.053,0.017,0.079,0.024c0.127,0.041,0.249,0.083,0.362,0.127c0.001,0,0.003,0.001,0.005,0.002  c0.108,0.042,0.21,0.087,0.306,0.132c0.024,0.011,0.047,0.022,0.07,0.034c0.093,0.046,0.183,0.093,0.262,0.14  c0.002,0.001,0.004,0.003,0.007,0.005c0.077,0.046,0.145,0.093,0.207,0.14c0.017,0.013,0.033,0.025,0.049,0.038  c0.06,0.048,0.116,0.097,0.162,0.145c0.126,0.135,0.191,0.267,0.191,0.389c0,0.651-1.876,1.596-4.816,1.596  c-0.218,0-0.427-0.007-0.632-0.017c-0.062-0.002-0.122-0.007-0.182-0.011c-0.147-0.009-0.292-0.021-0.432-0.034  c-0.058-0.006-0.116-0.011-0.173-0.018c-0.165-0.019-0.324-0.041-0.479-0.065c-0.021-0.003-0.043-0.006-0.063-0.009  c-0.182-0.03-0.354-0.064-0.521-0.101c-0.024-0.005-0.047-0.011-0.071-0.017c-0.142-0.033-0.278-0.068-0.409-0.105  c-0.025-0.007-0.051-0.015-0.076-0.022c-0.697-0.207-1.209-0.468-1.5-0.729c-0.011-0.01-0.021-0.02-0.032-0.03  c-0.026-0.025-0.052-0.049-0.073-0.074c-0.029-0.033-0.057-0.065-0.078-0.098c-0.01-0.014-0.017-0.028-0.024-0.042  c-0.015-0.027-0.028-0.053-0.038-0.079c-0.006-0.012-0.011-0.024-0.014-0.037c-0.011-0.038-0.02-0.074-0.02-0.11  C57.531,7.192,57.539,7.15,57.553,7.107z M67.165,8.71v1.684c0,0.65-1.875,1.595-4.815,1.595V9.812  C64.168,9.811,66.055,9.431,67.165,8.71z M45.206,11.76c0.013-0.038,0.033-0.077,0.056-0.116c0.008-0.013,0.02-0.027,0.03-0.041  c0.018-0.026,0.037-0.051,0.059-0.078c0.015-0.017,0.033-0.034,0.049-0.051c0.022-0.022,0.045-0.045,0.071-0.068  c0.022-0.019,0.045-0.038,0.069-0.057c0.025-0.02,0.051-0.04,0.08-0.061c0.029-0.021,0.061-0.042,0.092-0.063  c0.026-0.017,0.055-0.035,0.083-0.052c0.038-0.023,0.077-0.046,0.119-0.069c0.025-0.014,0.053-0.027,0.079-0.042  c0.049-0.025,0.098-0.05,0.152-0.075c0.019-0.009,0.039-0.017,0.058-0.025c0.532-0.24,1.257-0.446,2.14-0.565  c0.003,0,0.006-0.001,0.009-0.001c0.127-0.017,0.256-0.032,0.389-0.045c0.005,0,0.011-0.001,0.016-0.001  c0.133-0.013,0.27-0.024,0.409-0.033c0,0,0,0,0.001,0c0.268-0.017,0.544-0.028,0.833-0.028c0.304,0,0.596,0.01,0.875,0.029  c0.469,0.032,0.901,0.088,1.296,0.162c0.028,0.005,0.055,0.01,0.082,0.016c0.313,0.061,0.602,0.133,0.862,0.213  c0.026,0.008,0.053,0.017,0.08,0.025c0.126,0.041,0.248,0.083,0.361,0.126c0.001,0.001,0.003,0.001,0.005,0.002  c0.109,0.042,0.21,0.087,0.306,0.132c0.024,0.011,0.047,0.022,0.07,0.033c0.094,0.046,0.183,0.093,0.262,0.141  c0.002,0.001,0.005,0.003,0.007,0.005c0.077,0.046,0.145,0.093,0.207,0.14c0.017,0.013,0.033,0.025,0.049,0.037  c0.061,0.049,0.116,0.097,0.162,0.145c0.126,0.135,0.192,0.267,0.192,0.389c0,0.65-1.877,1.596-4.817,1.596  c-0.217,0-0.427-0.007-0.632-0.017c-0.062-0.003-0.122-0.007-0.182-0.011c-0.147-0.009-0.292-0.021-0.432-0.034  c-0.058-0.006-0.116-0.011-0.173-0.018c-0.165-0.019-0.325-0.041-0.479-0.065c-0.021-0.003-0.043-0.006-0.063-0.009  c-0.182-0.03-0.354-0.063-0.521-0.101c-0.024-0.005-0.047-0.011-0.071-0.017c-0.142-0.033-0.279-0.068-0.409-0.105  c-0.026-0.007-0.051-0.015-0.077-0.022c-0.697-0.207-1.209-0.468-1.5-0.729c-0.011-0.01-0.021-0.02-0.032-0.03  c-0.026-0.025-0.052-0.049-0.074-0.074c-0.029-0.033-0.056-0.065-0.078-0.098c-0.009-0.014-0.016-0.028-0.024-0.042  c-0.015-0.026-0.028-0.052-0.039-0.079c-0.005-0.012-0.01-0.024-0.013-0.037c-0.011-0.037-0.019-0.074-0.019-0.109  C45.184,11.844,45.191,11.803,45.206,11.76z M54.818,13.363v1.684c0,0.65-1.876,1.595-4.816,1.595v-2.178  C51.82,14.464,53.708,14.084,54.818,13.363z M32.858,16.413c0.013-0.038,0.032-0.077,0.056-0.116c0.008-0.013,0.02-0.027,0.03-0.041  c0.018-0.026,0.037-0.052,0.059-0.078c0.015-0.017,0.033-0.034,0.05-0.051c0.022-0.022,0.045-0.045,0.071-0.068  c0.021-0.019,0.045-0.038,0.069-0.057c0.026-0.021,0.051-0.041,0.08-0.061c0.029-0.021,0.06-0.042,0.092-0.063  c0.027-0.018,0.055-0.035,0.083-0.052c0.038-0.023,0.077-0.046,0.119-0.069c0.026-0.014,0.053-0.027,0.079-0.042  c0.049-0.025,0.098-0.05,0.152-0.075c0.019-0.009,0.039-0.017,0.058-0.025c0.532-0.24,1.258-0.446,2.141-0.565  c0.003,0,0.006-0.001,0.009-0.001c0.126-0.017,0.256-0.032,0.389-0.045c0.005,0,0.011-0.001,0.016-0.001  c0.133-0.013,0.27-0.024,0.409-0.033c0,0,0,0,0.001,0c0.268-0.018,0.544-0.028,0.833-0.028c0.304,0,0.596,0.01,0.875,0.029  c0.469,0.031,0.901,0.088,1.297,0.162c0.028,0.005,0.055,0.01,0.082,0.015c0.313,0.061,0.601,0.134,0.862,0.214  c0.026,0.008,0.053,0.017,0.079,0.025c0.127,0.041,0.249,0.083,0.362,0.126c0.001,0.001,0.003,0.001,0.005,0.002  c0.109,0.043,0.21,0.087,0.306,0.133c0.024,0.011,0.047,0.022,0.07,0.033c0.094,0.046,0.183,0.093,0.262,0.141  c0.002,0.001,0.004,0.003,0.007,0.004c0.077,0.046,0.145,0.093,0.207,0.14c0.017,0.012,0.033,0.024,0.049,0.037  c0.061,0.048,0.117,0.097,0.162,0.145c0.126,0.135,0.192,0.267,0.192,0.389c0,0.651-1.877,1.596-4.817,1.596  c-0.217,0-0.427-0.007-0.632-0.017c-0.062-0.003-0.121-0.007-0.182-0.011c-0.147-0.009-0.292-0.021-0.432-0.035  c-0.058-0.005-0.116-0.011-0.173-0.018c-0.165-0.019-0.324-0.04-0.479-0.064c-0.021-0.003-0.042-0.006-0.063-0.009  c-0.182-0.03-0.354-0.063-0.521-0.101c-0.024-0.005-0.047-0.011-0.07-0.017c-0.143-0.033-0.279-0.068-0.409-0.105  c-0.026-0.007-0.052-0.015-0.077-0.022c-0.697-0.206-1.209-0.468-1.5-0.729c-0.011-0.01-0.022-0.02-0.032-0.03  c-0.026-0.025-0.052-0.05-0.074-0.074c-0.029-0.033-0.056-0.065-0.078-0.098c-0.01-0.014-0.016-0.028-0.024-0.042  c-0.015-0.026-0.028-0.052-0.039-0.079c-0.005-0.012-0.01-0.024-0.014-0.037c-0.011-0.037-0.019-0.074-0.019-0.11  C32.836,16.497,32.844,16.456,32.858,16.413z M42.471,18.016v1.684c0,0.65-1.876,1.596-4.816,1.596v-2.178  C39.473,19.117,41.36,18.737,42.471,18.016z M20.511,21.065c0.013-0.038,0.033-0.077,0.056-0.116c0.008-0.014,0.02-0.027,0.03-0.041  c0.018-0.026,0.037-0.052,0.059-0.078c0.015-0.017,0.033-0.034,0.049-0.051c0.022-0.023,0.045-0.045,0.071-0.068  c0.021-0.019,0.045-0.038,0.069-0.057c0.026-0.021,0.052-0.041,0.08-0.061c0.029-0.021,0.061-0.042,0.092-0.063  c0.026-0.018,0.055-0.035,0.083-0.052c0.038-0.023,0.078-0.046,0.119-0.068c0.026-0.014,0.053-0.027,0.08-0.042  c0.049-0.025,0.098-0.05,0.151-0.075c0.019-0.009,0.039-0.017,0.059-0.026c0.532-0.239,1.257-0.446,2.14-0.565  c0.003,0,0.006-0.001,0.009-0.001c0.126-0.017,0.256-0.032,0.389-0.045c0.005,0,0.011-0.001,0.016-0.001  c0.134-0.013,0.27-0.024,0.409-0.033c0.001,0,0.001,0,0.001,0c0.268-0.018,0.544-0.028,0.833-0.028c0.303,0,0.595,0.01,0.875,0.029  c0.469,0.031,0.901,0.088,1.296,0.162c0.028,0.005,0.055,0.01,0.082,0.016c0.313,0.061,0.601,0.134,0.862,0.214  c0.027,0.008,0.053,0.017,0.08,0.025c0.126,0.041,0.249,0.083,0.362,0.126c0.001,0.001,0.002,0.001,0.004,0.002  c0.109,0.043,0.21,0.087,0.307,0.133c0.023,0.011,0.046,0.022,0.069,0.033c0.094,0.046,0.183,0.093,0.263,0.14  c0.002,0.002,0.004,0.003,0.006,0.005c0.077,0.046,0.145,0.093,0.207,0.14c0.017,0.012,0.033,0.024,0.048,0.037  c0.061,0.048,0.117,0.097,0.162,0.145c0.126,0.134,0.192,0.267,0.192,0.389c0,0.651-1.876,1.596-4.817,1.596  c-0.218,0-0.427-0.007-0.632-0.017c-0.062-0.003-0.121-0.007-0.182-0.011c-0.147-0.009-0.291-0.021-0.431-0.034  c-0.058-0.005-0.116-0.011-0.173-0.018c-0.165-0.019-0.325-0.04-0.48-0.064c-0.02-0.003-0.042-0.006-0.063-0.009  c-0.181-0.03-0.354-0.063-0.521-0.101c-0.023-0.005-0.046-0.011-0.07-0.017c-0.142-0.033-0.279-0.068-0.409-0.105  c-0.026-0.007-0.052-0.015-0.077-0.022c-0.697-0.206-1.209-0.468-1.5-0.729c-0.011-0.01-0.021-0.02-0.032-0.03  c-0.026-0.024-0.052-0.049-0.074-0.074c-0.029-0.032-0.056-0.065-0.078-0.097c-0.009-0.014-0.016-0.029-0.024-0.042  c-0.015-0.026-0.028-0.053-0.039-0.079c-0.005-0.012-0.01-0.024-0.014-0.037c-0.011-0.037-0.019-0.074-0.019-0.11  C20.489,21.15,20.497,21.108,20.511,21.065z M30.123,22.668v1.684c0,0.65-1.876,1.596-4.816,1.596V23.77  C27.125,23.77,29.013,23.389,30.123,22.668z M15.483,23.513C15.482,23.513,15.482,23.513,15.483,23.513  C15.482,23.513,15.482,23.513,15.483,23.513z M8.163,25.718c0.013-0.038,0.033-0.077,0.056-0.116c0.008-0.014,0.02-0.027,0.03-0.041  c0.018-0.026,0.036-0.052,0.059-0.078c0.015-0.017,0.033-0.034,0.05-0.051c0.022-0.023,0.045-0.045,0.071-0.068  c0.022-0.019,0.045-0.038,0.069-0.057c0.025-0.021,0.051-0.041,0.08-0.061s0.06-0.042,0.092-0.062  c0.026-0.018,0.055-0.035,0.083-0.052c0.038-0.023,0.077-0.046,0.119-0.069c0.025-0.014,0.053-0.027,0.079-0.041  C9,24.998,9.049,24.972,9.103,24.948c0.019-0.009,0.039-0.018,0.058-0.026c0.532-0.239,1.257-0.446,2.14-0.565  c0.003-0.001,0.006-0.001,0.009-0.001c0.127-0.017,0.256-0.032,0.389-0.045c0.005,0,0.011-0.001,0.016-0.002  c0.133-0.013,0.27-0.024,0.409-0.033c0,0,0,0,0.001,0c0.268-0.017,0.544-0.028,0.833-0.028c0.304,0,0.596,0.01,0.875,0.029  c0.469,0.031,0.901,0.088,1.297,0.162c0.027,0.005,0.055,0.01,0.082,0.016c0.312,0.061,0.601,0.133,0.862,0.214  c0.026,0.008,0.053,0.017,0.079,0.024c0.127,0.041,0.249,0.083,0.362,0.127c0.001,0,0.003,0.001,0.005,0.002  c0.109,0.042,0.21,0.087,0.306,0.132c0.023,0.011,0.047,0.022,0.07,0.034c0.093,0.046,0.183,0.093,0.262,0.14  c0.002,0.002,0.004,0.003,0.007,0.005c0.076,0.046,0.144,0.093,0.207,0.14c0.017,0.013,0.033,0.025,0.049,0.038  c0.06,0.048,0.117,0.097,0.162,0.145c0.126,0.134,0.192,0.267,0.192,0.389c0,0.651-1.876,1.596-4.817,1.596  c-0.217,0-0.427-0.006-0.632-0.017c-0.062-0.002-0.122-0.007-0.182-0.011c-0.147-0.009-0.292-0.021-0.432-0.034  c-0.058-0.006-0.116-0.011-0.173-0.018c-0.165-0.019-0.325-0.04-0.479-0.064c-0.021-0.003-0.043-0.006-0.063-0.009  c-0.182-0.03-0.354-0.064-0.521-0.101c-0.024-0.005-0.047-0.011-0.071-0.017c-0.142-0.033-0.279-0.068-0.409-0.105  c-0.025-0.008-0.051-0.015-0.076-0.022c-0.697-0.206-1.209-0.468-1.5-0.729c-0.011-0.01-0.022-0.02-0.032-0.03  c-0.026-0.024-0.052-0.049-0.074-0.074c-0.029-0.032-0.056-0.065-0.078-0.097c-0.01-0.015-0.017-0.029-0.024-0.042  c-0.015-0.026-0.029-0.053-0.039-0.079c-0.005-0.012-0.01-0.024-0.013-0.037c-0.011-0.037-0.019-0.074-0.019-0.11  C8.142,25.803,8.149,25.761,8.163,25.718z M17.775,27.321v1.683c0,0.65-1.876,1.596-4.816,1.596v-2.178  C14.778,28.422,16.665,28.042,17.775,27.321z M7.158,27.198L7.158,27.198v1.807c0,1.676,2.989,2.58,5.8,2.58  c2.812,0,5.801-0.904,5.801-2.58v-3.161c0-0.104-0.012-0.206-0.034-0.305c-0.045-0.197-0.134-0.382-0.26-0.555  c-0.063-0.086-0.136-0.169-0.217-0.25c-0.058-0.057-0.121-0.112-0.187-0.167c-0.025-0.021-0.054-0.04-0.08-0.06  c-0.042-0.032-0.084-0.064-0.13-0.095c-0.036-0.025-0.075-0.049-0.113-0.073c-0.039-0.024-0.077-0.048-0.117-0.072  c-0.045-0.027-0.094-0.053-0.142-0.079c-0.035-0.019-0.07-0.037-0.106-0.055c-0.055-0.028-0.112-0.055-0.169-0.081  c-0.03-0.014-0.062-0.028-0.093-0.042c-0.065-0.029-0.13-0.057-0.198-0.083c-0.025-0.01-0.05-0.02-0.075-0.029  c-0.075-0.028-0.151-0.057-0.229-0.083c-0.018-0.006-0.035-0.011-0.053-0.018c-0.066-0.022-0.134-0.043-0.203-0.064l3.152-1.188v0  v1.807c0,1.675,2.988,2.579,5.8,2.579c2.812,0,5.801-0.904,5.801-2.579V21.19c0-0.104-0.011-0.206-0.034-0.305  c-0.045-0.197-0.134-0.382-0.26-0.555c-0.063-0.086-0.135-0.169-0.217-0.25c-0.058-0.058-0.121-0.113-0.187-0.167  c-0.025-0.021-0.053-0.04-0.08-0.06c-0.043-0.032-0.085-0.064-0.13-0.095c-0.037-0.025-0.075-0.049-0.113-0.073  c-0.039-0.024-0.076-0.049-0.117-0.072c-0.045-0.027-0.093-0.053-0.142-0.078c-0.034-0.019-0.069-0.038-0.105-0.056  c-0.055-0.028-0.112-0.055-0.169-0.081c-0.03-0.014-0.062-0.028-0.093-0.042c-0.065-0.029-0.131-0.056-0.199-0.083  c-0.025-0.01-0.05-0.02-0.075-0.029c-0.075-0.028-0.151-0.057-0.229-0.083c-0.018-0.006-0.035-0.011-0.053-0.018  c-0.066-0.022-0.134-0.043-0.202-0.064l3.152-1.188v0v1.807c0,1.675,2.989,2.58,5.8,2.58c2.812,0,5.801-0.904,5.801-2.58v-3.162  c0-0.104-0.011-0.206-0.034-0.305c-0.045-0.197-0.134-0.382-0.26-0.555c-0.063-0.086-0.136-0.169-0.217-0.25  c-0.058-0.058-0.121-0.113-0.187-0.167c-0.025-0.021-0.054-0.04-0.08-0.06c-0.042-0.033-0.084-0.065-0.13-0.096  c-0.037-0.025-0.075-0.049-0.113-0.073c-0.039-0.024-0.077-0.048-0.117-0.072c-0.045-0.027-0.093-0.052-0.142-0.078  c-0.035-0.019-0.07-0.038-0.105-0.056c-0.055-0.028-0.112-0.055-0.169-0.081c-0.031-0.014-0.062-0.028-0.093-0.042  c-0.065-0.028-0.131-0.056-0.199-0.083c-0.025-0.01-0.05-0.02-0.075-0.029c-0.075-0.028-0.151-0.057-0.229-0.083  c-0.018-0.006-0.035-0.012-0.053-0.018c-0.066-0.022-0.134-0.043-0.202-0.064l3.152-1.188v0v1.807c0,1.675,2.988,2.579,5.8,2.579  s5.8-0.904,5.8-2.579v-3.162c0-0.105-0.011-0.207-0.033-0.305c-0.046-0.197-0.135-0.382-0.261-0.555  c-0.062-0.086-0.135-0.169-0.217-0.25c-0.058-0.057-0.12-0.112-0.187-0.167c-0.025-0.021-0.054-0.04-0.08-0.06  c-0.043-0.033-0.085-0.065-0.13-0.096c-0.037-0.025-0.075-0.049-0.113-0.073c-0.039-0.024-0.077-0.048-0.117-0.072  c-0.046-0.027-0.094-0.052-0.142-0.078c-0.035-0.019-0.07-0.037-0.105-0.056c-0.056-0.028-0.112-0.055-0.17-0.081  c-0.03-0.014-0.062-0.028-0.093-0.042c-0.064-0.028-0.131-0.056-0.198-0.083c-0.025-0.01-0.05-0.019-0.075-0.029  c-0.075-0.028-0.151-0.056-0.229-0.083c-0.018-0.006-0.035-0.012-0.053-0.018c-0.065-0.022-0.134-0.043-0.202-0.064l3.152-1.188v0  v1.807c0,1.675,2.988,2.579,5.8,2.579c2.812,0,5.801-0.904,5.801-2.579V7.232c0-0.105-0.012-0.207-0.034-0.305  c-0.045-0.197-0.134-0.382-0.26-0.555c-0.062-0.086-0.136-0.169-0.217-0.25c-0.058-0.057-0.12-0.112-0.187-0.167  c-0.025-0.021-0.054-0.04-0.08-0.06c-0.043-0.033-0.085-0.065-0.13-0.096c-0.037-0.025-0.076-0.049-0.113-0.073  c-0.039-0.024-0.077-0.048-0.117-0.072c-0.046-0.026-0.094-0.052-0.142-0.078c-0.035-0.019-0.07-0.037-0.106-0.056  c-0.055-0.028-0.111-0.054-0.169-0.081c-0.03-0.015-0.062-0.028-0.093-0.042c-0.065-0.028-0.131-0.056-0.198-0.083  c-0.025-0.01-0.051-0.019-0.075-0.029c-0.075-0.029-0.151-0.057-0.229-0.083c-0.018-0.006-0.035-0.012-0.053-0.018  c-0.065-0.022-0.134-0.043-0.202-0.064l3.152-1.188v0v1.807c0,1.675,2.988,2.579,5.8,2.579c2.812,0,5.801-0.904,5.801-2.579V4.06  l3.166,1.212c-1.046,0.335-1.858,0.835-2.167,1.488c-0.087,0.185-0.134,0.382-0.134,0.592v0.304v1.051v1.807  c0,1.675,2.988,2.579,5.8,2.579c2.812,0,5.801-0.904,5.801-2.579V8.832l5.162,1.976L59.196,25.477L25.425,38.202l-11.323-4.334  l-12.226-4.68L7.158,27.198z M99.017,23.952L25.916,51.498v-12.43l25.902-9.761l47.199-17.785V23.952z"/>
<path d="M25.424,36.356c2.812,0,5.801-0.904,5.801-2.579v-3.161c0-0.105-0.011-0.207-0.034-0.306  c-0.045-0.197-0.134-0.382-0.26-0.555c-0.063-0.087-0.135-0.17-0.217-0.25c-0.058-0.057-0.121-0.112-0.187-0.166  c-0.025-0.021-0.053-0.04-0.08-0.061c-0.042-0.032-0.084-0.064-0.13-0.096c-0.037-0.024-0.075-0.049-0.113-0.072  c-0.039-0.024-0.077-0.049-0.117-0.072c-0.045-0.027-0.093-0.053-0.142-0.078c-0.035-0.019-0.07-0.037-0.105-0.056  c-0.055-0.028-0.112-0.055-0.169-0.081c-0.031-0.015-0.062-0.028-0.093-0.042c-0.065-0.028-0.131-0.056-0.199-0.083  c-0.025-0.01-0.05-0.019-0.075-0.029c-0.075-0.028-0.151-0.056-0.229-0.083c-0.018-0.006-0.035-0.012-0.053-0.018  c-0.086-0.028-0.173-0.057-0.263-0.084c-0.552-0.164-1.16-0.284-1.79-0.358c-0.254-0.03-0.511-0.053-0.769-0.067c0,0,0,0,0,0  c-0.258-0.016-0.517-0.023-0.774-0.023h-0.001c-2.46,0-5.055,0.692-5.666,1.988c-0.087,0.185-0.134,0.382-0.134,0.592v0.304v1.051  v1.807C19.624,35.452,22.612,36.356,25.424,36.356z M30.242,33.777c0,0.65-1.876,1.596-4.816,1.596v-2.178  c1.818-0.001,3.706-0.381,4.816-1.102V33.777z M20.629,30.491c0.013-0.038,0.032-0.077,0.056-0.116  c0.008-0.014,0.02-0.027,0.03-0.041c0.018-0.025,0.037-0.051,0.059-0.077c0.015-0.017,0.032-0.034,0.049-0.051  c0.022-0.022,0.045-0.046,0.071-0.068c0.021-0.019,0.045-0.038,0.069-0.057c0.026-0.021,0.052-0.04,0.08-0.061  c0.029-0.021,0.06-0.042,0.092-0.063c0.026-0.017,0.055-0.034,0.083-0.052c0.038-0.022,0.078-0.046,0.119-0.068  c0.026-0.014,0.053-0.027,0.079-0.042c0.049-0.025,0.099-0.05,0.152-0.075c0.019-0.009,0.039-0.017,0.059-0.025  c0.532-0.239,1.257-0.445,2.14-0.565c0.003,0,0.006-0.001,0.009-0.001c0.126-0.017,0.256-0.032,0.389-0.045  c0.005-0.001,0.011-0.001,0.016-0.002c0.134-0.013,0.27-0.024,0.409-0.033c0.001,0,0.001,0,0.001,0  c0.268-0.017,0.544-0.028,0.833-0.028c0.303,0,0.595,0.011,0.875,0.029c0.469,0.032,0.901,0.088,1.297,0.162  c0.028,0.005,0.055,0.01,0.082,0.016c0.313,0.061,0.601,0.134,0.862,0.214c0.026,0.008,0.053,0.017,0.08,0.024  c0.126,0.041,0.249,0.083,0.362,0.127c0.001,0.001,0.002,0.001,0.004,0.002c0.109,0.043,0.21,0.088,0.306,0.133  c0.024,0.011,0.047,0.022,0.07,0.033c0.094,0.046,0.183,0.093,0.262,0.141c0.002,0.001,0.004,0.003,0.007,0.005  c0.077,0.046,0.145,0.093,0.207,0.14c0.017,0.013,0.033,0.024,0.049,0.037c0.061,0.048,0.117,0.097,0.162,0.145  c0.126,0.135,0.192,0.268,0.192,0.39c0,0.65-1.876,1.596-4.817,1.596c-0.218,0-0.427-0.007-0.632-0.017  c-0.062-0.003-0.121-0.008-0.182-0.011c-0.147-0.01-0.291-0.021-0.432-0.034c-0.058-0.006-0.116-0.012-0.172-0.018  c-0.165-0.019-0.325-0.041-0.48-0.065c-0.02-0.003-0.042-0.006-0.063-0.009c-0.182-0.03-0.354-0.063-0.521-0.101  c-0.023-0.005-0.047-0.012-0.07-0.017c-0.142-0.033-0.279-0.068-0.409-0.105c-0.026-0.007-0.052-0.015-0.077-0.022  c-0.697-0.206-1.209-0.468-1.5-0.729c-0.011-0.01-0.021-0.02-0.032-0.03c-0.026-0.024-0.052-0.05-0.074-0.074  c-0.029-0.032-0.057-0.065-0.078-0.098c-0.009-0.014-0.016-0.028-0.024-0.042c-0.015-0.026-0.028-0.053-0.039-0.079  c-0.005-0.012-0.01-0.024-0.014-0.036c-0.011-0.037-0.019-0.074-0.019-0.109C20.607,30.575,20.615,30.533,20.629,30.491z"/>
<path d="M37.771,31.704c2.812,0,5.801-0.904,5.801-2.579v-3.162c0-0.104-0.012-0.206-0.034-0.305  c-0.045-0.197-0.134-0.382-0.26-0.555c-0.063-0.086-0.136-0.169-0.217-0.25c-0.058-0.058-0.121-0.113-0.187-0.167  c-0.025-0.021-0.054-0.04-0.08-0.06c-0.042-0.032-0.084-0.064-0.13-0.095c-0.037-0.025-0.075-0.049-0.113-0.073  c-0.039-0.024-0.077-0.049-0.117-0.072c-0.045-0.027-0.094-0.053-0.142-0.078c-0.035-0.019-0.07-0.038-0.106-0.056  c-0.055-0.028-0.112-0.055-0.169-0.081c-0.031-0.014-0.062-0.028-0.093-0.042c-0.065-0.029-0.13-0.057-0.198-0.083  c-0.025-0.01-0.05-0.02-0.075-0.029c-0.075-0.028-0.151-0.057-0.229-0.083c-0.018-0.006-0.035-0.011-0.053-0.018  c-0.086-0.029-0.174-0.057-0.263-0.083c-0.551-0.164-1.16-0.284-1.79-0.359c-0.254-0.03-0.511-0.053-0.769-0.068  c-0.001,0-0.001,0-0.001,0c-0.258-0.015-0.517-0.023-0.774-0.023h0c-2.46,0-5.056,0.692-5.666,1.988  c-0.087,0.185-0.134,0.383-0.134,0.592v0.304v1.051v1.807C31.971,30.799,34.96,31.704,37.771,31.704z M42.589,29.125  c0,0.65-1.876,1.595-4.816,1.595v-2.178c1.818,0,3.706-0.38,4.816-1.101V29.125z M32.977,25.837  c0.013-0.038,0.033-0.077,0.057-0.116c0.008-0.014,0.02-0.027,0.03-0.041c0.018-0.026,0.037-0.052,0.059-0.078  c0.015-0.017,0.033-0.034,0.05-0.051c0.022-0.023,0.045-0.045,0.071-0.068c0.022-0.019,0.045-0.038,0.069-0.057  c0.026-0.021,0.051-0.041,0.08-0.061c0.029-0.021,0.06-0.042,0.092-0.063c0.026-0.018,0.055-0.035,0.083-0.052  c0.038-0.023,0.077-0.046,0.119-0.069c0.025-0.014,0.053-0.028,0.079-0.042c0.049-0.025,0.098-0.05,0.152-0.075  c0.019-0.009,0.039-0.017,0.058-0.026c0.532-0.239,1.257-0.446,2.14-0.565c0.003,0,0.006-0.001,0.009-0.001  c0.127-0.017,0.256-0.032,0.389-0.045c0.005,0,0.011-0.001,0.016-0.001c0.133-0.014,0.27-0.024,0.409-0.033c0,0,0,0,0.001,0  c0.268-0.018,0.544-0.028,0.833-0.028c0.304,0,0.596,0.01,0.875,0.029c0.469,0.031,0.901,0.088,1.297,0.162  c0.028,0.005,0.055,0.01,0.082,0.016c0.313,0.061,0.601,0.134,0.862,0.214c0.026,0.008,0.053,0.017,0.079,0.025  c0.127,0.041,0.249,0.083,0.362,0.126c0.001,0,0.003,0.001,0.005,0.002c0.109,0.043,0.21,0.087,0.306,0.132  c0.024,0.011,0.047,0.022,0.07,0.034c0.093,0.046,0.183,0.093,0.262,0.14c0.002,0.002,0.004,0.003,0.007,0.005  c0.077,0.046,0.144,0.093,0.207,0.14c0.017,0.012,0.033,0.024,0.049,0.037c0.06,0.048,0.117,0.097,0.162,0.145  c0.126,0.134,0.193,0.267,0.193,0.389c0,0.651-1.877,1.596-4.817,1.596c-0.217,0-0.427-0.007-0.632-0.017  c-0.062-0.003-0.122-0.007-0.182-0.011c-0.147-0.009-0.292-0.021-0.432-0.034c-0.058-0.005-0.116-0.011-0.173-0.018  c-0.165-0.019-0.324-0.04-0.479-0.064c-0.021-0.003-0.043-0.006-0.063-0.009c-0.182-0.03-0.354-0.063-0.521-0.101  c-0.024-0.005-0.047-0.011-0.071-0.017c-0.142-0.033-0.279-0.068-0.409-0.105c-0.025-0.007-0.051-0.015-0.076-0.022  c-0.697-0.206-1.209-0.468-1.5-0.729c-0.011-0.01-0.022-0.02-0.032-0.03c-0.026-0.025-0.052-0.05-0.074-0.074  c-0.029-0.033-0.056-0.065-0.078-0.098c-0.01-0.014-0.017-0.029-0.024-0.042c-0.015-0.026-0.029-0.052-0.039-0.079  c-0.005-0.012-0.01-0.024-0.014-0.037c-0.011-0.037-0.019-0.074-0.019-0.11C32.955,25.922,32.962,25.88,32.977,25.837z"/>
<path d="M50.119,27.051c2.812,0,5.801-0.904,5.801-2.58V21.31c0-0.105-0.012-0.207-0.034-0.306c-0.045-0.197-0.134-0.382-0.26-0.555  c-0.063-0.086-0.136-0.169-0.217-0.25c-0.058-0.057-0.121-0.113-0.188-0.167c-0.025-0.021-0.054-0.04-0.08-0.06  c-0.042-0.033-0.084-0.065-0.13-0.096c-0.036-0.025-0.075-0.049-0.113-0.073c-0.038-0.024-0.076-0.048-0.117-0.072  c-0.045-0.027-0.093-0.053-0.142-0.078c-0.034-0.019-0.069-0.037-0.105-0.056c-0.055-0.028-0.111-0.055-0.169-0.081  c-0.031-0.014-0.062-0.028-0.093-0.042c-0.065-0.028-0.131-0.056-0.199-0.083c-0.024-0.01-0.05-0.02-0.075-0.029  c-0.075-0.028-0.15-0.057-0.229-0.083c-0.018-0.006-0.035-0.012-0.053-0.018c-0.086-0.028-0.174-0.057-0.264-0.083  c-0.551-0.164-1.159-0.284-1.789-0.359c-0.254-0.03-0.511-0.053-0.77-0.067c0,0,0,0,0,0c-0.258-0.016-0.517-0.023-0.774-0.023h0  c-2.46,0-5.056,0.693-5.666,1.988c-0.087,0.185-0.134,0.382-0.134,0.592v0.304v1.051v1.807  C44.319,26.146,47.307,27.051,50.119,27.051z M54.937,24.471c0,0.65-1.876,1.596-4.816,1.596v-2.178c1.818,0,3.706-0.38,4.816-1.102  V24.471z M45.324,21.185c0.013-0.038,0.033-0.077,0.056-0.116c0.008-0.014,0.02-0.027,0.03-0.041  c0.018-0.026,0.037-0.051,0.059-0.078c0.015-0.017,0.033-0.034,0.049-0.051c0.022-0.022,0.045-0.045,0.071-0.068  c0.021-0.019,0.045-0.038,0.069-0.057c0.026-0.021,0.052-0.04,0.08-0.061c0.029-0.021,0.061-0.042,0.092-0.063  c0.026-0.017,0.055-0.035,0.083-0.052c0.038-0.023,0.077-0.046,0.118-0.069c0.026-0.014,0.053-0.027,0.08-0.042  c0.049-0.025,0.098-0.05,0.151-0.075c0.019-0.009,0.039-0.017,0.059-0.026c0.532-0.239,1.257-0.445,2.14-0.565  c0.003,0,0.006-0.001,0.009-0.001c0.127-0.017,0.256-0.032,0.389-0.045c0.005,0,0.011-0.001,0.015-0.001  c0.134-0.013,0.27-0.024,0.41-0.033c0,0,0,0,0.001,0c0.268-0.018,0.544-0.028,0.833-0.028c0.303,0,0.596,0.01,0.875,0.029  c0.469,0.031,0.9,0.088,1.297,0.162c0.027,0.005,0.055,0.01,0.082,0.016c0.312,0.061,0.601,0.134,0.862,0.214  c0.026,0.008,0.053,0.017,0.079,0.025c0.127,0.041,0.249,0.083,0.361,0.126c0.002,0.001,0.003,0.001,0.005,0.002  c0.109,0.043,0.21,0.087,0.307,0.133c0.023,0.011,0.047,0.022,0.069,0.033c0.094,0.046,0.184,0.093,0.263,0.141  c0.002,0.001,0.004,0.003,0.007,0.004c0.076,0.046,0.145,0.093,0.206,0.14c0.018,0.013,0.033,0.024,0.049,0.037  c0.061,0.048,0.117,0.097,0.162,0.145c0.126,0.134,0.192,0.267,0.192,0.389c0,0.65-1.877,1.596-4.817,1.596  c-0.217,0-0.427-0.007-0.632-0.017c-0.062-0.003-0.121-0.007-0.182-0.011c-0.147-0.009-0.291-0.021-0.431-0.034  c-0.058-0.006-0.116-0.011-0.173-0.018c-0.165-0.019-0.325-0.041-0.48-0.065c-0.02-0.003-0.042-0.006-0.063-0.009  c-0.181-0.03-0.354-0.063-0.521-0.101c-0.023-0.005-0.046-0.011-0.07-0.017c-0.142-0.033-0.279-0.068-0.409-0.105  c-0.026-0.007-0.051-0.015-0.077-0.022c-0.697-0.206-1.209-0.468-1.5-0.729c-0.011-0.01-0.021-0.02-0.032-0.03  c-0.026-0.025-0.052-0.05-0.074-0.074c-0.029-0.033-0.056-0.065-0.078-0.098c-0.009-0.014-0.016-0.028-0.024-0.042  c-0.015-0.026-0.028-0.052-0.039-0.079c-0.005-0.012-0.01-0.024-0.014-0.037c-0.011-0.037-0.019-0.074-0.019-0.109  C45.303,21.269,45.31,21.228,45.324,21.185z"/>
<path d="M62.467,22.398c2.812,0,5.801-0.904,5.801-2.579v-3.162c0-0.105-0.012-0.207-0.034-0.305  c-0.046-0.197-0.134-0.382-0.26-0.555c-0.063-0.086-0.136-0.169-0.218-0.25c-0.058-0.057-0.12-0.112-0.187-0.167  c-0.025-0.021-0.054-0.04-0.08-0.06c-0.043-0.033-0.085-0.065-0.13-0.096c-0.037-0.025-0.075-0.049-0.113-0.073  c-0.038-0.024-0.076-0.048-0.117-0.072c-0.045-0.027-0.094-0.052-0.142-0.078c-0.034-0.019-0.069-0.037-0.105-0.056  c-0.055-0.028-0.112-0.054-0.17-0.081c-0.03-0.014-0.062-0.028-0.093-0.042c-0.064-0.028-0.131-0.056-0.198-0.083  c-0.025-0.01-0.05-0.02-0.075-0.029c-0.075-0.028-0.151-0.056-0.229-0.083c-0.018-0.006-0.036-0.012-0.054-0.018  c-0.086-0.029-0.173-0.057-0.263-0.084c-0.551-0.164-1.159-0.284-1.79-0.358c-0.254-0.03-0.511-0.053-0.769-0.068  c-0.001,0-0.001,0-0.001,0c-0.258-0.015-0.517-0.023-0.774-0.023l0,0c-2.46,0-5.056,0.692-5.666,1.988  c-0.088,0.185-0.135,0.382-0.135,0.592v0.304v1.051v1.807C56.666,21.494,59.654,22.398,62.467,22.398z M67.284,19.819  c0,0.65-1.876,1.595-4.816,1.595v-2.178c1.818,0,3.706-0.38,4.816-1.101V19.819z M57.672,16.532  c0.013-0.038,0.032-0.077,0.056-0.116c0.009-0.013,0.021-0.027,0.03-0.041c0.018-0.026,0.036-0.051,0.059-0.078  c0.016-0.017,0.033-0.034,0.05-0.051c0.022-0.022,0.045-0.045,0.071-0.068c0.021-0.019,0.045-0.038,0.069-0.057  c0.025-0.02,0.051-0.04,0.079-0.061c0.029-0.021,0.061-0.042,0.093-0.063c0.026-0.017,0.055-0.035,0.083-0.052  c0.038-0.023,0.077-0.046,0.118-0.069c0.026-0.014,0.054-0.027,0.08-0.042c0.049-0.025,0.098-0.05,0.151-0.075  c0.019-0.009,0.039-0.017,0.059-0.025c0.531-0.24,1.257-0.446,2.14-0.565c0.004,0,0.007-0.001,0.009-0.001  c0.127-0.017,0.257-0.032,0.39-0.045c0.005,0,0.011-0.001,0.016-0.001c0.133-0.013,0.27-0.024,0.409-0.033c0,0,0,0,0.001,0  c0.268-0.017,0.544-0.028,0.833-0.028c0.304,0,0.596,0.01,0.876,0.029c0.469,0.032,0.9,0.088,1.296,0.162  c0.028,0.005,0.056,0.01,0.082,0.016c0.313,0.061,0.602,0.133,0.863,0.213c0.026,0.008,0.053,0.017,0.079,0.025  c0.127,0.041,0.248,0.083,0.361,0.126c0.002,0.001,0.003,0.001,0.005,0.002c0.109,0.042,0.21,0.087,0.307,0.132  c0.023,0.011,0.047,0.022,0.069,0.034c0.094,0.046,0.183,0.093,0.263,0.14c0.002,0.001,0.004,0.003,0.007,0.004  c0.076,0.046,0.144,0.093,0.206,0.14c0.017,0.013,0.033,0.025,0.049,0.037c0.061,0.048,0.116,0.097,0.162,0.145  c0.126,0.135,0.192,0.267,0.192,0.389c0,0.65-1.877,1.596-4.817,1.596c-0.217,0-0.427-0.007-0.632-0.017  c-0.062-0.002-0.121-0.007-0.182-0.011c-0.146-0.009-0.291-0.021-0.432-0.034c-0.058-0.006-0.115-0.011-0.173-0.018  c-0.164-0.019-0.324-0.041-0.479-0.065c-0.021-0.003-0.043-0.006-0.062-0.009c-0.182-0.03-0.354-0.063-0.521-0.101  c-0.023-0.005-0.047-0.011-0.07-0.017c-0.143-0.033-0.279-0.068-0.409-0.105c-0.026-0.007-0.052-0.015-0.077-0.022  c-0.696-0.206-1.209-0.468-1.5-0.729c-0.011-0.01-0.021-0.02-0.031-0.03c-0.026-0.025-0.053-0.05-0.074-0.074  c-0.029-0.033-0.056-0.065-0.078-0.098c-0.009-0.014-0.016-0.028-0.024-0.042c-0.015-0.026-0.028-0.052-0.038-0.079  c-0.006-0.012-0.01-0.024-0.014-0.036c-0.011-0.038-0.019-0.074-0.019-0.11C57.65,16.616,57.657,16.575,57.672,16.532z"/>
<path d="M74.813,17.745c2.812,0,5.801-0.904,5.801-2.579v-3.162c0-0.104-0.011-0.207-0.033-0.305  c-0.046-0.197-0.135-0.382-0.261-0.555c-0.062-0.086-0.135-0.169-0.217-0.25c-0.058-0.057-0.12-0.112-0.187-0.167  c-0.025-0.021-0.054-0.04-0.08-0.06c-0.043-0.033-0.085-0.065-0.13-0.096c-0.037-0.025-0.075-0.049-0.113-0.073  c-0.039-0.024-0.077-0.048-0.117-0.072c-0.046-0.026-0.094-0.052-0.142-0.078c-0.035-0.019-0.07-0.037-0.105-0.056  c-0.056-0.027-0.112-0.054-0.17-0.081c-0.03-0.015-0.062-0.028-0.093-0.042c-0.064-0.028-0.131-0.056-0.198-0.083  c-0.025-0.01-0.05-0.019-0.075-0.029c-0.075-0.029-0.151-0.057-0.229-0.083c-0.018-0.006-0.035-0.012-0.053-0.018  c-0.086-0.029-0.173-0.057-0.263-0.083c-0.552-0.164-1.16-0.285-1.79-0.359c-0.254-0.03-0.511-0.053-0.769-0.068  c-0.001,0-0.001,0-0.001,0c-0.258-0.015-0.517-0.023-0.774-0.023h-0.001c-2.46,0-5.055,0.692-5.666,1.988  c-0.087,0.185-0.134,0.382-0.134,0.592v0.304v1.051v1.807C69.014,16.841,72.002,17.745,74.813,17.745z M79.632,15.166  c0,0.65-1.876,1.595-4.816,1.595v-2.178c1.818,0,3.706-0.38,4.816-1.101V15.166z M70.02,11.879c0.013-0.038,0.032-0.077,0.056-0.116  c0.009-0.014,0.02-0.027,0.03-0.041c0.018-0.025,0.036-0.051,0.059-0.078c0.015-0.017,0.032-0.034,0.05-0.051  c0.022-0.022,0.045-0.045,0.071-0.068c0.021-0.019,0.045-0.038,0.068-0.057c0.026-0.02,0.052-0.04,0.08-0.061  c0.029-0.021,0.061-0.042,0.093-0.063c0.026-0.017,0.055-0.035,0.083-0.052c0.038-0.023,0.077-0.046,0.118-0.069  c0.026-0.014,0.053-0.027,0.08-0.041c0.048-0.025,0.098-0.051,0.151-0.075c0.019-0.009,0.038-0.018,0.059-0.026  c0.531-0.24,1.257-0.446,2.14-0.565c0.004-0.001,0.006-0.001,0.009-0.001c0.127-0.017,0.256-0.032,0.389-0.045  c0.006-0.001,0.011-0.001,0.016-0.002c0.134-0.013,0.27-0.024,0.409-0.033c0.001,0,0.001,0,0.002,0  c0.268-0.017,0.544-0.028,0.833-0.028c0.304,0,0.596,0.01,0.875,0.029c0.47,0.032,0.901,0.088,1.297,0.162  c0.028,0.005,0.056,0.01,0.082,0.016c0.313,0.061,0.602,0.133,0.862,0.213c0.026,0.008,0.053,0.017,0.08,0.025  c0.126,0.041,0.248,0.083,0.361,0.127c0.001,0,0.003,0.001,0.005,0.002c0.109,0.042,0.21,0.087,0.306,0.132  c0.024,0.011,0.047,0.022,0.07,0.034c0.094,0.046,0.183,0.093,0.262,0.14c0.002,0.001,0.005,0.003,0.007,0.005  c0.077,0.046,0.145,0.093,0.207,0.14c0.017,0.013,0.033,0.025,0.049,0.037c0.061,0.049,0.116,0.097,0.162,0.145  c0.126,0.135,0.192,0.267,0.192,0.389c0,0.651-1.877,1.596-4.817,1.596c-0.218,0-0.427-0.007-0.632-0.017  c-0.062-0.002-0.121-0.007-0.182-0.011c-0.147-0.009-0.291-0.021-0.432-0.034c-0.058-0.006-0.116-0.011-0.173-0.018  c-0.165-0.019-0.324-0.041-0.479-0.065c-0.021-0.003-0.043-0.005-0.063-0.009c-0.182-0.03-0.354-0.064-0.521-0.101  c-0.023-0.005-0.047-0.011-0.07-0.017c-0.143-0.033-0.279-0.068-0.409-0.105c-0.026-0.008-0.052-0.015-0.077-0.022  c-0.697-0.207-1.209-0.468-1.5-0.729c-0.011-0.01-0.021-0.02-0.031-0.03c-0.026-0.025-0.053-0.049-0.074-0.074  c-0.029-0.033-0.057-0.065-0.078-0.098c-0.009-0.014-0.016-0.028-0.024-0.042c-0.015-0.026-0.028-0.052-0.038-0.078  c-0.006-0.012-0.011-0.024-0.014-0.037c-0.011-0.038-0.02-0.074-0.02-0.11C69.997,11.964,70.005,11.922,70.02,11.879z"/>
</svg>