<svg xmlns="http://www.w3.org/2000/svg" xmlns:xlink="http://www.w3.org/1999/xlink" version="1.1" id="Layer_1" x="0px" y="0px" width="100px" height="49.726px" viewBox="0 0 100 49.726" enable-background="new 0 0 100 49.726" xml:space="preserve">
<path d="M20.389,36.619c2.255,0,4.652-0.726,4.652-2.068v-2.536c0-0.083-0.009-0.165-0.027-0.244  c-0.037-0.158-0.108-0.307-0.208-0.445c-0.051-0.069-0.109-0.136-0.174-0.2c-0.046-0.046-0.097-0.09-0.15-0.134  c-0.02-0.017-0.043-0.032-0.064-0.048c-0.034-0.026-0.068-0.052-0.104-0.076c-0.029-0.021-0.06-0.039-0.09-0.059  c-0.031-0.02-0.062-0.039-0.094-0.058c-0.037-0.021-0.075-0.043-0.114-0.063c-0.027-0.015-0.056-0.029-0.084-0.044  c-0.044-0.022-0.09-0.044-0.136-0.065c-0.024-0.012-0.049-0.022-0.075-0.033c-0.052-0.022-0.104-0.045-0.159-0.066  c-0.02-0.008-0.04-0.016-0.06-0.023c-0.061-0.023-0.121-0.046-0.184-0.067c-0.014-0.005-0.028-0.009-0.042-0.014  c-0.069-0.023-0.139-0.046-0.211-0.067c-0.442-0.131-0.93-0.228-1.436-0.287c-0.204-0.024-0.41-0.043-0.617-0.055c0,0,0,0,0,0  c-0.207-0.012-0.415-0.019-0.621-0.019l0,0h0c-1.973,0-4.054,0.556-4.544,1.595c-0.07,0.147-0.107,0.307-0.107,0.474v0.244v0.843  v1.449C15.737,35.893,18.134,36.619,20.389,36.619z M24.252,34.55c0,0.521-1.504,1.279-3.863,1.279v-1.746  c1.458-0.001,2.972-0.306,3.863-0.884V34.55z M16.543,31.915c0.011-0.03,0.026-0.062,0.045-0.093  c0.006-0.011,0.016-0.022,0.024-0.033c0.014-0.021,0.029-0.041,0.047-0.062c0.012-0.014,0.026-0.027,0.04-0.041  c0.018-0.019,0.036-0.036,0.057-0.055c0.017-0.016,0.036-0.03,0.055-0.046c0.021-0.016,0.042-0.032,0.064-0.049  c0.023-0.017,0.048-0.033,0.074-0.05c0.021-0.015,0.044-0.028,0.067-0.042c0.03-0.019,0.062-0.037,0.095-0.055  c0.021-0.012,0.042-0.022,0.063-0.033c0.04-0.021,0.079-0.041,0.122-0.061c0.015-0.007,0.031-0.014,0.046-0.021  c0.427-0.192,1.009-0.357,1.717-0.453c0.002-0.001,0.005-0.001,0.007-0.001c0.102-0.014,0.206-0.026,0.312-0.036  c0.004-0.001,0.009-0.001,0.012-0.002c0.107-0.011,0.216-0.02,0.328-0.026c0.001,0,0.001,0,0.001,0  c0.214-0.014,0.436-0.022,0.668-0.022c0.244,0,0.478,0.008,0.702,0.023c0.376,0.025,0.723,0.07,1.04,0.13  c0.022,0.004,0.044,0.008,0.065,0.013c0.251,0.049,0.482,0.106,0.692,0.171c0.021,0.007,0.042,0.014,0.063,0.02  c0.102,0.033,0.2,0.066,0.29,0.103c0.001,0,0.002,0.001,0.004,0.001c0.087,0.034,0.168,0.07,0.246,0.106  c0.019,0.009,0.038,0.018,0.056,0.026c0.075,0.037,0.146,0.075,0.21,0.113c0.002,0.001,0.003,0.002,0.005,0.004  c0.062,0.036,0.116,0.074,0.166,0.111c0.014,0.011,0.026,0.021,0.039,0.03c0.048,0.039,0.093,0.078,0.13,0.116  c0.101,0.108,0.154,0.214,0.154,0.312c0,0.522-1.505,1.28-3.863,1.28c-0.174,0-0.342-0.006-0.507-0.014  c-0.049-0.002-0.097-0.005-0.146-0.009c-0.118-0.007-0.234-0.017-0.346-0.027c-0.046-0.004-0.093-0.009-0.139-0.014  c-0.132-0.015-0.26-0.032-0.384-0.052c-0.017-0.003-0.035-0.005-0.051-0.008c-0.146-0.023-0.284-0.051-0.418-0.08  c-0.019-0.005-0.037-0.01-0.056-0.014c-0.114-0.026-0.224-0.055-0.328-0.084c-0.021-0.006-0.042-0.012-0.062-0.019  c-0.559-0.165-0.97-0.375-1.203-0.584c-0.009-0.009-0.017-0.017-0.025-0.024c-0.021-0.02-0.042-0.04-0.059-0.06  c-0.023-0.026-0.045-0.053-0.062-0.078c-0.008-0.012-0.013-0.022-0.02-0.034c-0.012-0.021-0.023-0.042-0.031-0.062  c-0.004-0.01-0.008-0.02-0.011-0.029c-0.009-0.03-0.015-0.06-0.015-0.089C16.526,31.982,16.532,31.949,16.543,31.915z"/>
<path d="M30.291,32.887c2.255,0,4.652-0.725,4.652-2.068v-2.535c0-0.084-0.009-0.166-0.027-0.245  c-0.036-0.158-0.107-0.307-0.208-0.445c-0.05-0.069-0.108-0.136-0.174-0.2c-0.046-0.046-0.097-0.09-0.15-0.134  c-0.02-0.017-0.043-0.031-0.064-0.048c-0.035-0.026-0.068-0.052-0.104-0.076c-0.029-0.021-0.06-0.039-0.091-0.059  s-0.062-0.039-0.094-0.058c-0.037-0.021-0.075-0.042-0.114-0.063c-0.028-0.015-0.056-0.029-0.085-0.044  c-0.044-0.022-0.089-0.044-0.136-0.065c-0.024-0.011-0.049-0.022-0.074-0.033c-0.052-0.022-0.105-0.045-0.159-0.066  c-0.02-0.008-0.04-0.016-0.061-0.023c-0.06-0.022-0.121-0.045-0.184-0.066c-0.014-0.005-0.028-0.01-0.042-0.015  c-0.069-0.023-0.139-0.045-0.21-0.067c-0.442-0.131-0.93-0.228-1.436-0.288c-0.204-0.024-0.41-0.042-0.617-0.055c0,0,0,0,0,0  c-0.207-0.012-0.415-0.019-0.621-0.019l0,0h0c-1.973,0-4.054,0.556-4.544,1.595c-0.07,0.147-0.107,0.307-0.107,0.475v0.243v0.843  v1.449C25.64,32.163,28.036,32.887,30.291,32.887z M34.155,30.819c0,0.521-1.505,1.279-3.863,1.279v-1.746  c1.458-0.001,2.972-0.306,3.863-0.884V30.819z M26.446,28.183c0.01-0.03,0.026-0.062,0.045-0.093  c0.007-0.011,0.016-0.021,0.024-0.033c0.014-0.021,0.029-0.041,0.047-0.062c0.012-0.014,0.026-0.027,0.04-0.041  c0.018-0.019,0.037-0.036,0.057-0.055c0.018-0.015,0.037-0.03,0.056-0.046c0.021-0.016,0.041-0.032,0.064-0.048  c0.023-0.018,0.048-0.034,0.074-0.051c0.021-0.014,0.044-0.028,0.067-0.042c0.031-0.019,0.062-0.037,0.095-0.055  c0.021-0.012,0.042-0.022,0.063-0.033c0.039-0.021,0.079-0.041,0.122-0.061c0.015-0.007,0.031-0.014,0.047-0.021  c0.427-0.192,1.008-0.357,1.716-0.453c0.003-0.001,0.005-0.001,0.007-0.001c0.102-0.014,0.205-0.026,0.312-0.036  c0.004-0.001,0.009-0.001,0.013-0.002c0.107-0.01,0.216-0.02,0.328-0.026c0,0,0,0,0.001,0c0.215-0.014,0.437-0.022,0.668-0.022  c0.243,0,0.478,0.008,0.702,0.023c0.376,0.025,0.723,0.07,1.04,0.13c0.022,0.004,0.044,0.008,0.066,0.013  c0.251,0.049,0.482,0.106,0.691,0.171c0.021,0.007,0.042,0.014,0.064,0.021c0.102,0.032,0.199,0.066,0.29,0.102  c0.001,0,0.002,0.001,0.004,0.001c0.087,0.034,0.168,0.07,0.246,0.106c0.019,0.009,0.037,0.018,0.056,0.027  c0.075,0.036,0.147,0.074,0.21,0.112c0.001,0.001,0.003,0.002,0.005,0.004c0.062,0.037,0.116,0.074,0.166,0.112  c0.014,0.01,0.027,0.02,0.04,0.029c0.048,0.039,0.093,0.078,0.129,0.116c0.101,0.108,0.155,0.214,0.155,0.312  c0,0.521-1.505,1.279-3.863,1.279c-0.174,0-0.342-0.005-0.507-0.013c-0.05-0.003-0.097-0.006-0.146-0.009  c-0.118-0.008-0.234-0.017-0.346-0.028c-0.046-0.004-0.093-0.009-0.139-0.014c-0.132-0.015-0.26-0.032-0.385-0.052  c-0.016-0.003-0.034-0.005-0.05-0.008c-0.146-0.023-0.284-0.051-0.418-0.08c-0.019-0.004-0.038-0.009-0.057-0.014  c-0.114-0.026-0.224-0.055-0.328-0.084c-0.021-0.006-0.041-0.012-0.062-0.018c-0.559-0.166-0.97-0.376-1.203-0.585  c-0.009-0.008-0.018-0.016-0.026-0.024c-0.021-0.02-0.042-0.039-0.059-0.06c-0.023-0.025-0.045-0.052-0.062-0.078  c-0.007-0.012-0.013-0.022-0.02-0.034c-0.012-0.021-0.023-0.042-0.031-0.062c-0.004-0.01-0.008-0.02-0.011-0.029  c-0.009-0.03-0.016-0.06-0.016-0.088C26.428,28.25,26.435,28.217,26.446,28.183z"/>
<path d="M40.193,29.156c2.255,0,4.652-0.725,4.652-2.068v-2.535c0-0.084-0.009-0.166-0.027-0.245  c-0.037-0.158-0.107-0.306-0.208-0.445c-0.051-0.069-0.109-0.136-0.174-0.2c-0.046-0.046-0.097-0.09-0.15-0.134  c-0.021-0.017-0.043-0.032-0.064-0.048c-0.034-0.026-0.068-0.052-0.104-0.077c-0.03-0.02-0.061-0.039-0.091-0.059  c-0.031-0.02-0.062-0.039-0.094-0.058c-0.036-0.021-0.075-0.042-0.113-0.063c-0.028-0.015-0.056-0.03-0.085-0.044  c-0.044-0.022-0.09-0.044-0.136-0.065c-0.024-0.011-0.049-0.022-0.074-0.034c-0.052-0.022-0.105-0.045-0.16-0.066  c-0.02-0.008-0.04-0.016-0.06-0.023c-0.061-0.022-0.121-0.045-0.184-0.067c-0.014-0.005-0.028-0.009-0.042-0.014  c-0.069-0.023-0.139-0.045-0.211-0.067c-0.442-0.131-0.93-0.228-1.436-0.288c-0.204-0.024-0.41-0.042-0.617-0.054c0,0,0,0,0,0  c-0.207-0.012-0.415-0.019-0.621-0.019l0,0h-0.001c-1.973,0-4.054,0.555-4.543,1.594c-0.07,0.148-0.108,0.307-0.108,0.475v0.244  v0.842v1.449C35.542,28.431,37.938,29.156,40.193,29.156z M44.057,27.087c0,0.521-1.504,1.279-3.862,1.279v-1.746  c1.458,0,2.972-0.305,3.862-0.883V27.087z M36.348,24.452c0.01-0.03,0.026-0.062,0.045-0.093c0.006-0.011,0.016-0.022,0.024-0.033  c0.014-0.021,0.029-0.041,0.047-0.062c0.012-0.014,0.026-0.027,0.04-0.041c0.018-0.018,0.037-0.036,0.057-0.055  c0.017-0.015,0.036-0.03,0.055-0.045c0.021-0.016,0.042-0.032,0.064-0.049s0.048-0.034,0.074-0.05  c0.021-0.014,0.044-0.028,0.067-0.042c0.03-0.019,0.062-0.037,0.095-0.055c0.021-0.011,0.042-0.022,0.063-0.033  c0.039-0.021,0.079-0.041,0.122-0.061c0.015-0.007,0.031-0.014,0.047-0.021c0.426-0.192,1.008-0.357,1.716-0.453  c0.002,0,0.005-0.001,0.007-0.001c0.102-0.014,0.206-0.026,0.312-0.036c0.004,0,0.009-0.001,0.013-0.001  c0.107-0.01,0.216-0.02,0.328-0.026c0,0,0,0,0.001,0c0.214-0.014,0.436-0.023,0.668-0.023c0.243,0,0.478,0.008,0.702,0.023  c0.376,0.025,0.723,0.071,1.04,0.13c0.022,0.004,0.044,0.008,0.066,0.013c0.251,0.049,0.482,0.107,0.691,0.171  c0.021,0.006,0.042,0.013,0.063,0.02c0.102,0.032,0.2,0.066,0.29,0.102c0.001,0,0.002,0.001,0.004,0.001  c0.087,0.034,0.168,0.07,0.246,0.106c0.019,0.009,0.038,0.018,0.056,0.027c0.075,0.037,0.146,0.074,0.21,0.112  c0.002,0.001,0.003,0.002,0.006,0.004c0.061,0.037,0.116,0.074,0.166,0.112c0.014,0.01,0.027,0.02,0.039,0.03  c0.048,0.039,0.093,0.078,0.13,0.116c0.101,0.108,0.154,0.214,0.154,0.312c0,0.521-1.505,1.28-3.863,1.28  c-0.175,0-0.343-0.006-0.507-0.014c-0.049-0.002-0.097-0.005-0.146-0.008c-0.118-0.008-0.233-0.017-0.346-0.028  c-0.046-0.004-0.093-0.009-0.138-0.014c-0.132-0.015-0.26-0.032-0.385-0.052c-0.017-0.002-0.034-0.004-0.051-0.007  c-0.146-0.024-0.284-0.051-0.417-0.081c-0.019-0.004-0.038-0.009-0.057-0.013c-0.114-0.026-0.224-0.055-0.328-0.084  c-0.021-0.006-0.042-0.012-0.062-0.018c-0.559-0.165-0.97-0.375-1.203-0.584c-0.008-0.008-0.017-0.016-0.025-0.024  c-0.021-0.02-0.042-0.04-0.059-0.06c-0.023-0.026-0.045-0.053-0.062-0.079c-0.008-0.011-0.013-0.022-0.02-0.034  c-0.012-0.021-0.023-0.042-0.031-0.063c-0.004-0.01-0.008-0.02-0.011-0.029c-0.009-0.03-0.015-0.06-0.015-0.088  C36.331,24.52,36.336,24.486,36.348,24.452z"/>
<path d="M50.095,25.425c2.255,0,4.652-0.725,4.652-2.069v-2.535c0-0.084-0.01-0.166-0.027-0.245  c-0.036-0.158-0.107-0.306-0.209-0.445c-0.051-0.069-0.108-0.136-0.174-0.2c-0.046-0.046-0.097-0.09-0.149-0.134  c-0.021-0.016-0.043-0.032-0.064-0.048c-0.034-0.026-0.068-0.052-0.104-0.077c-0.029-0.02-0.061-0.039-0.091-0.059  c-0.031-0.02-0.062-0.039-0.094-0.058c-0.036-0.021-0.075-0.042-0.113-0.063c-0.028-0.015-0.057-0.03-0.085-0.044  c-0.044-0.022-0.09-0.043-0.136-0.065c-0.024-0.011-0.05-0.022-0.074-0.033c-0.053-0.023-0.105-0.045-0.159-0.067  c-0.021-0.008-0.041-0.015-0.061-0.023c-0.061-0.023-0.121-0.045-0.184-0.067c-0.015-0.005-0.028-0.009-0.043-0.014  c-0.068-0.023-0.139-0.046-0.211-0.067c-0.441-0.131-0.93-0.228-1.435-0.288c-0.204-0.024-0.41-0.042-0.617-0.054c0,0,0,0,0,0  c-0.207-0.012-0.415-0.019-0.621-0.019l0,0h0c-1.973,0-4.054,0.555-4.544,1.594c-0.07,0.148-0.107,0.307-0.107,0.475v0.244v0.843  v1.449C45.444,24.7,47.84,25.425,50.095,25.425z M53.958,23.356c0,0.522-1.504,1.28-3.862,1.28v-1.747  c1.458,0,2.972-0.305,3.862-0.883V23.356z M46.25,20.72c0.01-0.03,0.026-0.062,0.045-0.093c0.006-0.011,0.016-0.021,0.023-0.032  c0.014-0.021,0.03-0.042,0.047-0.062c0.012-0.014,0.026-0.027,0.04-0.041c0.018-0.019,0.037-0.037,0.057-0.055  c0.018-0.015,0.037-0.031,0.056-0.046c0.021-0.016,0.041-0.032,0.064-0.048c0.023-0.017,0.048-0.034,0.074-0.051  c0.021-0.014,0.044-0.027,0.066-0.042c0.031-0.019,0.062-0.037,0.095-0.055c0.021-0.011,0.042-0.022,0.063-0.033  c0.039-0.02,0.079-0.041,0.122-0.06c0.015-0.007,0.031-0.014,0.046-0.021c0.427-0.192,1.009-0.357,1.716-0.453  c0.003,0,0.005,0,0.007-0.001c0.102-0.014,0.205-0.026,0.312-0.036c0.004,0,0.008,0,0.012-0.001c0.107-0.011,0.216-0.02,0.328-0.027  c0,0,0,0,0.001,0c0.215-0.014,0.437-0.022,0.668-0.022c0.244,0,0.478,0.008,0.702,0.023c0.376,0.025,0.722,0.07,1.04,0.13  c0.022,0.004,0.044,0.008,0.066,0.012c0.251,0.049,0.481,0.107,0.691,0.171c0.021,0.007,0.042,0.013,0.063,0.02  c0.102,0.033,0.199,0.066,0.29,0.102c0.001,0,0.002,0.001,0.004,0.001c0.087,0.034,0.168,0.07,0.245,0.106  c0.02,0.009,0.038,0.018,0.057,0.027c0.074,0.037,0.146,0.074,0.21,0.112c0.002,0.001,0.003,0.002,0.006,0.004  c0.061,0.037,0.115,0.074,0.165,0.112c0.014,0.01,0.027,0.02,0.039,0.03c0.049,0.039,0.094,0.078,0.13,0.116  c0.102,0.108,0.154,0.214,0.154,0.312c0,0.522-1.505,1.28-3.863,1.28c-0.174,0-0.342-0.005-0.507-0.013  c-0.049-0.002-0.097-0.006-0.146-0.009c-0.118-0.007-0.234-0.017-0.346-0.027c-0.046-0.005-0.093-0.009-0.139-0.014  c-0.132-0.015-0.26-0.033-0.385-0.052c-0.016-0.002-0.034-0.004-0.05-0.007c-0.146-0.024-0.284-0.051-0.418-0.081  c-0.019-0.004-0.038-0.009-0.057-0.013c-0.114-0.026-0.224-0.055-0.328-0.084c-0.021-0.006-0.041-0.012-0.061-0.018  c-0.559-0.166-0.97-0.375-1.203-0.585c-0.009-0.008-0.018-0.016-0.025-0.024c-0.021-0.02-0.042-0.04-0.06-0.06  c-0.023-0.026-0.045-0.052-0.062-0.078c-0.007-0.012-0.013-0.023-0.02-0.034c-0.012-0.021-0.022-0.042-0.031-0.063  c-0.004-0.01-0.008-0.02-0.011-0.029c-0.009-0.03-0.015-0.06-0.015-0.088C46.233,20.788,46.239,20.755,46.25,20.72z"/>
<path d="M59.998,21.693c2.255,0,4.651-0.725,4.651-2.068v-2.536c0-0.084-0.009-0.166-0.026-0.245  c-0.037-0.158-0.108-0.307-0.209-0.445c-0.051-0.069-0.108-0.136-0.174-0.201c-0.046-0.046-0.097-0.09-0.15-0.133  c-0.02-0.017-0.043-0.032-0.063-0.048c-0.034-0.026-0.068-0.052-0.104-0.077c-0.029-0.02-0.061-0.039-0.091-0.058  c-0.031-0.02-0.062-0.039-0.094-0.058c-0.037-0.021-0.075-0.042-0.114-0.062c-0.027-0.015-0.056-0.03-0.084-0.045  c-0.044-0.022-0.09-0.043-0.136-0.064c-0.024-0.012-0.05-0.023-0.075-0.034c-0.052-0.023-0.104-0.045-0.159-0.066  c-0.02-0.008-0.04-0.016-0.06-0.023c-0.061-0.023-0.122-0.045-0.185-0.067c-0.014-0.005-0.027-0.009-0.042-0.014  c-0.069-0.023-0.139-0.045-0.211-0.067c-0.442-0.132-0.93-0.228-1.436-0.288c-0.203-0.023-0.409-0.042-0.616-0.054  c-0.001,0-0.001,0-0.001,0c-0.207-0.012-0.414-0.019-0.621-0.019l0,0l0,0c-1.973,0-4.055,0.556-4.544,1.594  c-0.07,0.148-0.107,0.307-0.107,0.475v0.244v0.843v1.449C55.346,20.968,57.743,21.693,59.998,21.693z M63.861,19.625  c0,0.521-1.504,1.279-3.862,1.279v-1.747c1.458,0,2.972-0.305,3.862-0.883V19.625z M56.152,16.989  c0.011-0.031,0.026-0.062,0.046-0.093c0.006-0.011,0.016-0.021,0.023-0.032c0.014-0.021,0.029-0.042,0.047-0.062  c0.013-0.013,0.026-0.027,0.04-0.041c0.018-0.018,0.036-0.037,0.058-0.055c0.017-0.015,0.036-0.03,0.055-0.045  c0.021-0.017,0.041-0.033,0.064-0.049c0.023-0.017,0.048-0.034,0.074-0.051c0.021-0.014,0.044-0.027,0.066-0.042  c0.03-0.018,0.062-0.037,0.095-0.055c0.021-0.011,0.043-0.022,0.063-0.033c0.039-0.021,0.079-0.041,0.122-0.061  c0.016-0.007,0.031-0.014,0.047-0.021c0.427-0.192,1.009-0.357,1.716-0.453c0.003,0,0.006-0.001,0.008-0.001  c0.102-0.014,0.205-0.026,0.312-0.036c0.005-0.001,0.009-0.001,0.013-0.001c0.106-0.011,0.216-0.02,0.328-0.027c0,0,0,0,0.001,0  c0.215-0.014,0.437-0.022,0.668-0.022c0.244,0,0.478,0.008,0.702,0.023c0.376,0.025,0.723,0.071,1.04,0.13  c0.022,0.004,0.044,0.008,0.065,0.012c0.251,0.049,0.482,0.107,0.692,0.172c0.021,0.006,0.042,0.013,0.063,0.02  c0.102,0.033,0.199,0.066,0.29,0.102c0.001,0,0.002,0.001,0.004,0.002c0.087,0.034,0.168,0.07,0.245,0.106  c0.02,0.009,0.038,0.018,0.057,0.027c0.074,0.037,0.146,0.075,0.21,0.112c0.001,0.001,0.003,0.003,0.005,0.004  c0.062,0.037,0.116,0.075,0.166,0.112c0.014,0.01,0.026,0.02,0.039,0.03c0.049,0.039,0.094,0.078,0.13,0.116  c0.102,0.108,0.154,0.214,0.154,0.312c0,0.522-1.505,1.28-3.863,1.28c-0.174,0-0.342-0.005-0.507-0.013  c-0.049-0.002-0.097-0.006-0.146-0.009C59.227,18.34,59.112,18.331,59,18.32c-0.047-0.005-0.093-0.009-0.139-0.014  c-0.132-0.015-0.261-0.032-0.385-0.052c-0.017-0.003-0.034-0.005-0.051-0.007c-0.146-0.024-0.284-0.051-0.418-0.081  c-0.019-0.004-0.037-0.009-0.056-0.013c-0.114-0.026-0.225-0.055-0.329-0.084c-0.021-0.006-0.041-0.012-0.061-0.018  c-0.56-0.166-0.97-0.375-1.203-0.584c-0.009-0.008-0.018-0.016-0.025-0.024c-0.021-0.02-0.042-0.04-0.06-0.06  c-0.023-0.026-0.045-0.052-0.062-0.078c-0.008-0.011-0.013-0.023-0.02-0.034c-0.012-0.021-0.022-0.042-0.031-0.063  c-0.004-0.01-0.008-0.02-0.011-0.029c-0.009-0.03-0.015-0.06-0.015-0.088C56.135,17.057,56.141,17.023,56.152,16.989z"/>
<path d="M69.9,17.962c2.255,0,4.651-0.725,4.651-2.068v-2.536c0-0.084-0.009-0.165-0.027-0.245  c-0.036-0.158-0.107-0.306-0.208-0.445c-0.051-0.069-0.108-0.136-0.174-0.2c-0.047-0.046-0.097-0.09-0.15-0.134  c-0.02-0.017-0.043-0.032-0.063-0.048c-0.035-0.026-0.068-0.052-0.104-0.077c-0.029-0.02-0.061-0.04-0.091-0.059  c-0.031-0.02-0.062-0.039-0.094-0.058c-0.037-0.021-0.075-0.042-0.114-0.062c-0.027-0.015-0.056-0.03-0.085-0.044  c-0.044-0.022-0.089-0.044-0.136-0.065c-0.024-0.012-0.049-0.022-0.074-0.034c-0.052-0.022-0.104-0.045-0.159-0.066  c-0.02-0.008-0.04-0.016-0.061-0.023c-0.06-0.023-0.121-0.045-0.184-0.067c-0.014-0.005-0.028-0.009-0.042-0.014  c-0.069-0.023-0.14-0.045-0.211-0.067c-0.442-0.131-0.93-0.228-1.436-0.288c-0.204-0.024-0.409-0.042-0.616-0.054  c-0.001,0-0.001,0-0.001,0c-0.207-0.013-0.414-0.019-0.621-0.019l0,0l0,0c-1.974,0-4.055,0.555-4.544,1.594  c-0.07,0.148-0.107,0.307-0.107,0.475v0.244v0.842v1.449C65.249,17.237,67.645,17.962,69.9,17.962z M73.763,15.894  c0,0.521-1.505,1.28-3.862,1.28v-1.747c1.458,0,2.972-0.305,3.862-0.883V15.894z M66.054,13.258c0.011-0.03,0.026-0.062,0.045-0.093  c0.007-0.011,0.017-0.022,0.024-0.033c0.014-0.021,0.029-0.041,0.047-0.062c0.012-0.014,0.026-0.027,0.04-0.041  c0.018-0.018,0.036-0.036,0.057-0.055c0.018-0.015,0.037-0.03,0.056-0.045c0.021-0.017,0.041-0.032,0.064-0.049  s0.048-0.034,0.073-0.05c0.021-0.014,0.044-0.028,0.067-0.042c0.03-0.019,0.062-0.037,0.095-0.055  c0.021-0.011,0.043-0.022,0.063-0.033c0.039-0.021,0.079-0.041,0.122-0.061c0.015-0.007,0.031-0.014,0.047-0.021  c0.426-0.192,1.008-0.357,1.716-0.453c0.003,0,0.005-0.001,0.008-0.001c0.102-0.014,0.205-0.026,0.312-0.036  c0.004,0,0.009-0.001,0.013-0.001c0.106-0.011,0.216-0.02,0.328-0.026c0,0,0,0,0.001,0c0.215-0.014,0.437-0.023,0.668-0.023  c0.243,0,0.478,0.008,0.702,0.023c0.376,0.025,0.723,0.071,1.04,0.13c0.022,0.004,0.044,0.008,0.065,0.013  c0.251,0.049,0.482,0.107,0.691,0.171c0.021,0.006,0.043,0.013,0.064,0.02c0.102,0.033,0.199,0.066,0.29,0.102  c0.001,0.001,0.002,0.001,0.004,0.002c0.087,0.034,0.168,0.07,0.245,0.106c0.02,0.009,0.037,0.018,0.056,0.027  c0.075,0.037,0.147,0.075,0.211,0.113c0.001,0.001,0.003,0.002,0.005,0.004c0.062,0.037,0.116,0.074,0.166,0.112  c0.014,0.01,0.026,0.02,0.039,0.03c0.048,0.039,0.094,0.078,0.13,0.116c0.101,0.108,0.154,0.214,0.154,0.312  c0,0.522-1.505,1.28-3.863,1.28c-0.174,0-0.342-0.005-0.507-0.013c-0.05-0.002-0.098-0.006-0.146-0.009  c-0.118-0.007-0.233-0.017-0.346-0.027c-0.047-0.004-0.094-0.009-0.139-0.014c-0.132-0.015-0.261-0.032-0.385-0.052  c-0.017-0.003-0.034-0.004-0.051-0.007c-0.146-0.024-0.284-0.051-0.418-0.081c-0.019-0.004-0.037-0.009-0.057-0.013  c-0.114-0.026-0.224-0.055-0.328-0.084c-0.021-0.006-0.041-0.012-0.062-0.018c-0.559-0.166-0.97-0.375-1.202-0.584  c-0.009-0.008-0.018-0.016-0.026-0.024c-0.021-0.02-0.041-0.04-0.059-0.059c-0.023-0.026-0.045-0.053-0.062-0.079  c-0.008-0.011-0.014-0.022-0.02-0.034c-0.012-0.021-0.023-0.042-0.031-0.063c-0.004-0.01-0.008-0.02-0.011-0.029  c-0.009-0.03-0.016-0.06-0.016-0.088C66.037,13.326,66.043,13.292,66.054,13.258z"/>
<path d="M79.801,14.23c2.256,0,4.652-0.725,4.652-2.068V9.627c0-0.084-0.009-0.166-0.027-0.245  c-0.036-0.158-0.107-0.306-0.208-0.445c-0.051-0.069-0.109-0.136-0.175-0.2c-0.046-0.046-0.096-0.09-0.149-0.134  c-0.021-0.017-0.043-0.032-0.064-0.048c-0.034-0.026-0.067-0.052-0.104-0.077c-0.029-0.02-0.06-0.039-0.09-0.059  c-0.031-0.02-0.062-0.039-0.095-0.058c-0.036-0.021-0.074-0.042-0.113-0.063c-0.027-0.015-0.056-0.03-0.085-0.044  c-0.044-0.022-0.09-0.043-0.136-0.065c-0.024-0.011-0.049-0.022-0.074-0.033c-0.052-0.023-0.104-0.045-0.159-0.067  c-0.021-0.008-0.04-0.015-0.061-0.023C82.852,8.044,82.792,8.021,82.729,8c-0.014-0.005-0.028-0.009-0.042-0.014  c-0.069-0.023-0.14-0.046-0.211-0.067c-0.442-0.131-0.931-0.228-1.436-0.288c-0.204-0.024-0.41-0.042-0.617-0.054l0,0  c-0.207-0.012-0.415-0.019-0.621-0.019l0,0h-0.001c-1.973,0-4.054,0.555-4.543,1.594C75.188,9.3,75.15,9.459,75.15,9.627v0.244  v0.843v1.449C75.15,13.505,77.546,14.23,79.801,14.23z M83.666,12.162c0,0.522-1.505,1.28-3.862,1.28v-1.747  c1.458,0,2.972-0.305,3.862-0.883V12.162z M75.957,9.526c0.011-0.03,0.026-0.062,0.045-0.093c0.007-0.011,0.016-0.021,0.024-0.033  c0.014-0.021,0.029-0.041,0.047-0.062c0.012-0.014,0.026-0.027,0.04-0.041c0.018-0.019,0.036-0.037,0.057-0.055  c0.018-0.016,0.036-0.031,0.056-0.046c0.021-0.016,0.041-0.032,0.064-0.048c0.022-0.017,0.048-0.034,0.073-0.051  c0.021-0.014,0.044-0.028,0.067-0.042c0.03-0.019,0.062-0.037,0.095-0.055c0.021-0.011,0.042-0.022,0.063-0.033  c0.039-0.021,0.079-0.041,0.122-0.06c0.015-0.007,0.03-0.014,0.046-0.021c0.427-0.192,1.009-0.357,1.717-0.453  c0.003,0,0.005,0,0.007-0.001c0.102-0.014,0.206-0.026,0.312-0.036c0.004,0,0.009,0,0.012-0.001c0.107-0.01,0.217-0.02,0.329-0.026  c0,0,0,0,0.001,0c0.214-0.014,0.436-0.022,0.668-0.022c0.243,0,0.478,0.008,0.702,0.023c0.376,0.025,0.723,0.07,1.04,0.129  c0.021,0.004,0.044,0.008,0.065,0.013c0.251,0.049,0.482,0.107,0.691,0.171c0.021,0.006,0.043,0.013,0.063,0.02  c0.102,0.033,0.2,0.066,0.29,0.102c0.002,0,0.003,0.001,0.004,0.001c0.088,0.034,0.169,0.07,0.246,0.106  c0.019,0.009,0.037,0.018,0.056,0.027c0.075,0.037,0.146,0.074,0.21,0.112c0.002,0.001,0.004,0.002,0.006,0.004  c0.062,0.037,0.115,0.074,0.166,0.112c0.014,0.01,0.026,0.02,0.039,0.03c0.048,0.039,0.093,0.078,0.13,0.116  c0.101,0.108,0.154,0.214,0.154,0.312c0,0.522-1.505,1.28-3.863,1.28c-0.175,0-0.343-0.005-0.507-0.014  c-0.05-0.002-0.098-0.005-0.146-0.008c-0.118-0.007-0.233-0.017-0.347-0.028c-0.046-0.004-0.093-0.009-0.139-0.014  c-0.132-0.015-0.26-0.033-0.384-0.052c-0.017-0.002-0.034-0.004-0.051-0.007c-0.146-0.024-0.284-0.051-0.418-0.081  c-0.019-0.004-0.037-0.009-0.057-0.013c-0.114-0.026-0.224-0.055-0.328-0.084c-0.021-0.006-0.041-0.012-0.062-0.018  c-0.559-0.166-0.97-0.375-1.203-0.585c-0.008-0.008-0.017-0.016-0.025-0.024c-0.021-0.02-0.042-0.04-0.059-0.06  c-0.023-0.026-0.046-0.053-0.062-0.078c-0.008-0.012-0.014-0.023-0.02-0.034c-0.013-0.021-0.023-0.042-0.031-0.063  c-0.005-0.01-0.008-0.02-0.011-0.029c-0.009-0.03-0.016-0.06-0.016-0.088C75.939,9.594,75.945,9.561,75.957,9.526z"/>
<path d="M99.984,8.562c-0.004-0.011-0.008-0.021-0.013-0.032c-0.008-0.023-0.02-0.046-0.032-0.067  c-0.007-0.01-0.013-0.02-0.021-0.03c-0.016-0.021-0.032-0.038-0.052-0.055c-0.008-0.008-0.016-0.016-0.025-0.022  c-0.004-0.003-0.007-0.007-0.011-0.01c-0.026-0.018-0.054-0.032-0.083-0.043c0,0,0,0-0.001,0l0,0c-0.001,0-0.002,0-0.002,0  l-5.389-2.063V5.896c0-0.084-0.01-0.166-0.027-0.245c-0.036-0.158-0.107-0.307-0.209-0.445c-0.05-0.069-0.108-0.136-0.174-0.2  c-0.046-0.046-0.097-0.09-0.149-0.133c-0.021-0.017-0.043-0.032-0.064-0.048c-0.034-0.026-0.067-0.052-0.104-0.077  c-0.029-0.02-0.06-0.039-0.091-0.058c-0.03-0.02-0.062-0.039-0.094-0.058c-0.036-0.021-0.075-0.042-0.113-0.062  c-0.028-0.015-0.056-0.03-0.085-0.045c-0.044-0.022-0.09-0.043-0.136-0.065c-0.024-0.011-0.05-0.022-0.074-0.033  c-0.053-0.023-0.105-0.045-0.159-0.066c-0.021-0.008-0.04-0.016-0.061-0.023c-0.061-0.023-0.121-0.045-0.184-0.067  c-0.015-0.005-0.028-0.009-0.043-0.014c-0.068-0.023-0.139-0.046-0.21-0.067c-0.442-0.132-0.931-0.228-1.436-0.288  c-0.204-0.024-0.41-0.042-0.617-0.054l0,0c-0.207-0.012-0.415-0.019-0.621-0.019l0,0h-0.001c-0.469,0-0.943,0.032-1.402,0.094  l-3.942-1.509V2.068c0-0.083-0.01-0.165-0.027-0.245c-0.036-0.158-0.107-0.306-0.209-0.445c-0.051-0.069-0.108-0.136-0.174-0.2  c-0.046-0.046-0.097-0.09-0.149-0.134c-0.021-0.017-0.043-0.032-0.064-0.048c-0.034-0.026-0.068-0.052-0.104-0.077  C83.601,0.9,83.57,0.881,83.54,0.862c-0.031-0.02-0.062-0.039-0.094-0.058c-0.036-0.021-0.075-0.042-0.113-0.063  c-0.028-0.015-0.057-0.03-0.085-0.044c-0.044-0.022-0.09-0.044-0.136-0.065c-0.024-0.012-0.05-0.022-0.074-0.034  c-0.053-0.022-0.105-0.045-0.159-0.066c-0.021-0.008-0.041-0.016-0.061-0.023c-0.061-0.022-0.121-0.045-0.184-0.067  c-0.015-0.005-0.028-0.009-0.043-0.014c-0.068-0.023-0.139-0.045-0.211-0.067c-0.441-0.131-0.93-0.228-1.435-0.288  c-0.204-0.024-0.41-0.042-0.617-0.055l0,0C80.122,0.006,79.914,0,79.708,0l0,0h-0.001c-1.973,0-4.055,0.555-4.544,1.594  c-0.07,0.148-0.107,0.307-0.107,0.474v0.244L71.082,3.81c-0.013-0.002-0.025-0.004-0.038-0.005c-0.204-0.024-0.41-0.042-0.617-0.055  l0,0c-0.207-0.012-0.415-0.019-0.621-0.019l0,0h-0.001c-1.973,0-4.054,0.556-4.544,1.594c-0.069,0.148-0.107,0.307-0.107,0.475  v0.244L61.18,7.54c0.031,0.004,0.061,0.009,0.092,0.013c-0.044-0.006-0.087-0.013-0.131-0.018c-0.204-0.024-0.41-0.042-0.617-0.054  l0,0c-0.207-0.012-0.415-0.019-0.621-0.019l0,0h-0.001c-1.973,0-4.054,0.555-4.543,1.594c-0.07,0.148-0.108,0.307-0.108,0.475v0.243  l-3.973,1.498c0.015,0.001,0.029,0.004,0.043,0.006c-0.027-0.003-0.055-0.008-0.083-0.011c-0.204-0.024-0.41-0.042-0.617-0.054  c0,0,0,0,0,0C50.415,11.2,50.207,11.194,50,11.194l0,0h0c-1.973,0-4.054,0.555-4.543,1.594c-0.07,0.148-0.108,0.307-0.108,0.475  v0.243l-3.973,1.497c0.031,0.003,0.061,0.009,0.092,0.013c-0.044-0.005-0.087-0.013-0.131-0.018  c-0.204-0.024-0.41-0.042-0.617-0.055c0,0,0,0,0,0c-0.207-0.012-0.415-0.018-0.621-0.018l0,0h0c-1.973,0-4.055,0.555-4.544,1.594  c-0.07,0.148-0.107,0.307-0.107,0.475v0.244l-3.973,1.497c0.015,0.002,0.029,0.004,0.043,0.006  c-0.027-0.004-0.055-0.008-0.083-0.012c-0.204-0.024-0.41-0.042-0.617-0.054c0,0,0,0,0,0c-0.207-0.012-0.415-0.019-0.621-0.019l0,0  h0c-1.973,0-4.054,0.555-4.544,1.594c-0.07,0.148-0.107,0.307-0.107,0.475v0.243l-3.973,1.497c0.031,0.004,0.061,0.009,0.092,0.013  c-0.043-0.006-0.087-0.013-0.131-0.018c-0.204-0.024-0.41-0.042-0.617-0.054c-0.001,0-0.001,0-0.001,0  c-0.207-0.012-0.415-0.019-0.621-0.019l0,0h-0.001c-1.973,0-4.054,0.555-4.543,1.594c-0.07,0.148-0.108,0.307-0.108,0.475V24.7  l-3.973,1.497c0.015,0.002,0.029,0.004,0.044,0.006c-0.028-0.003-0.055-0.008-0.083-0.011c-0.204-0.024-0.41-0.042-0.617-0.055  c0,0,0,0,0,0c-0.207-0.012-0.415-0.018-0.621-0.018l0,0h0c-1.973,0-4.054,0.555-4.544,1.594c-0.07,0.148-0.107,0.307-0.107,0.475  v0.243l-5.483,2.066c-0.03,0.011-0.059,0.025-0.086,0.044c-0.004,0.003-0.006,0.007-0.011,0.01  c-0.009,0.007-0.018,0.016-0.026,0.023c-0.018,0.017-0.035,0.034-0.05,0.054c-0.008,0.01-0.015,0.021-0.022,0.031  c-0.012,0.021-0.022,0.043-0.032,0.065c-0.004,0.011-0.009,0.021-0.013,0.033C0.007,30.792,0.001,30.827,0,30.862  c0,0.001,0,0.003,0,0.004c0,0,0,0,0,0.001l0,0v10.812c0,0.163,0.101,0.31,0.253,0.368L20.248,49.7  c0.003,0.001,0.007,0.001,0.011,0.002c0.042,0.015,0.085,0.024,0.13,0.024c0.044,0,0.087-0.01,0.129-0.023  c0.003-0.001,0.007-0.001,0.01-0.002L99.745,19.85c0.153-0.058,0.255-0.205,0.255-0.369V8.67C100,8.633,99.994,8.597,99.984,8.562z   M88.382,4.702c0.102-0.013,0.205-0.025,0.312-0.036c0.005,0,0.009,0,0.013-0.001c0.107-0.011,0.217-0.02,0.328-0.027  c0.001,0,0.001,0,0.001,0c0.215-0.014,0.437-0.022,0.669-0.022c0.243,0,0.478,0.008,0.702,0.023c0.376,0.025,0.723,0.07,1.039,0.13  c0.022,0.004,0.045,0.008,0.066,0.012c0.251,0.049,0.481,0.107,0.691,0.171c0.021,0.007,0.042,0.014,0.063,0.02  c0.102,0.033,0.199,0.066,0.29,0.102c0.001,0,0.002,0.001,0.004,0.001c0.088,0.034,0.169,0.07,0.246,0.106  c0.019,0.009,0.037,0.018,0.056,0.027c0.075,0.037,0.146,0.075,0.21,0.112c0.002,0.001,0.004,0.002,0.006,0.004  c0.062,0.037,0.115,0.075,0.166,0.112c0.013,0.01,0.026,0.02,0.039,0.03c0.048,0.039,0.093,0.078,0.129,0.116  c0.102,0.108,0.155,0.214,0.155,0.312c0,0.522-1.506,1.28-3.863,1.28c-0.175,0-0.343-0.005-0.507-0.013  c-0.05-0.002-0.098-0.006-0.146-0.009c-0.118-0.007-0.234-0.017-0.347-0.027c-0.046-0.005-0.093-0.009-0.139-0.014  c-0.132-0.015-0.26-0.032-0.385-0.052c-0.016-0.003-0.034-0.005-0.05-0.007c-0.146-0.024-0.284-0.051-0.418-0.081  c-0.02-0.004-0.038-0.009-0.057-0.013c-0.114-0.026-0.224-0.055-0.328-0.084c-0.021-0.006-0.041-0.012-0.062-0.018  c-0.559-0.166-0.97-0.375-1.203-0.584c-0.009-0.008-0.018-0.016-0.025-0.024c-0.021-0.02-0.042-0.04-0.06-0.06  c-0.022-0.026-0.045-0.052-0.062-0.078c-0.007-0.011-0.013-0.023-0.02-0.034c-0.012-0.021-0.022-0.042-0.03-0.063  c-0.005-0.01-0.009-0.02-0.011-0.029c-0.009-0.03-0.016-0.06-0.016-0.088c0-0.033,0.006-0.066,0.018-0.1  c0.01-0.031,0.026-0.062,0.045-0.093c0.007-0.011,0.016-0.021,0.023-0.032c0.015-0.021,0.03-0.042,0.048-0.062  c0.012-0.014,0.026-0.027,0.039-0.041c0.019-0.019,0.037-0.037,0.058-0.055c0.018-0.015,0.036-0.03,0.056-0.046  c0.021-0.016,0.041-0.032,0.063-0.048c0.023-0.017,0.049-0.034,0.074-0.051c0.021-0.014,0.044-0.027,0.066-0.042  c0.031-0.019,0.062-0.037,0.096-0.055c0.021-0.011,0.042-0.022,0.063-0.033c0.039-0.021,0.078-0.041,0.121-0.061  c0.016-0.007,0.031-0.014,0.047-0.021c0.427-0.192,1.009-0.357,1.717-0.453C88.378,4.703,88.38,4.703,88.382,4.702z M93.568,7.081  v1.351c0,0.521-1.505,1.279-3.863,1.279V7.964C91.164,7.964,92.677,7.659,93.568,7.081z M75.862,1.968  c0.01-0.03,0.025-0.062,0.045-0.093c0.006-0.011,0.016-0.022,0.023-0.033c0.015-0.021,0.029-0.042,0.048-0.062  c0.012-0.014,0.025-0.027,0.039-0.041c0.019-0.018,0.037-0.036,0.058-0.055c0.018-0.015,0.036-0.03,0.055-0.045  c0.021-0.016,0.042-0.032,0.064-0.049c0.023-0.017,0.049-0.034,0.074-0.05c0.021-0.014,0.044-0.028,0.066-0.042  c0.03-0.019,0.062-0.037,0.096-0.055c0.021-0.011,0.042-0.022,0.063-0.033c0.039-0.021,0.078-0.041,0.121-0.061  c0.016-0.007,0.031-0.014,0.047-0.021c0.427-0.192,1.009-0.357,1.717-0.453c0.003,0,0.005-0.001,0.007-0.001  c0.102-0.014,0.205-0.026,0.312-0.036c0.005,0,0.009-0.001,0.013-0.001c0.107-0.011,0.217-0.02,0.328-0.026c0.001,0,0.001,0,0.001,0  c0.215-0.014,0.437-0.023,0.669-0.023c0.243,0,0.478,0.008,0.701,0.023c0.376,0.025,0.723,0.071,1.04,0.13  c0.022,0.004,0.044,0.008,0.066,0.013c0.251,0.049,0.481,0.107,0.691,0.171c0.021,0.006,0.042,0.013,0.063,0.02  c0.102,0.033,0.199,0.066,0.29,0.102c0.001,0,0.002,0.001,0.004,0.001c0.088,0.034,0.168,0.07,0.245,0.106  c0.02,0.009,0.038,0.018,0.057,0.027c0.075,0.037,0.146,0.074,0.21,0.112c0.002,0.001,0.003,0.002,0.006,0.004  c0.062,0.037,0.115,0.074,0.165,0.112c0.014,0.01,0.027,0.02,0.039,0.03c0.049,0.039,0.094,0.078,0.13,0.116  c0.102,0.108,0.154,0.214,0.154,0.312c0,0.522-1.505,1.28-3.862,1.28c-0.175,0-0.343-0.005-0.508-0.013  c-0.049-0.002-0.097-0.005-0.146-0.009c-0.117-0.007-0.233-0.016-0.346-0.027c-0.046-0.004-0.093-0.009-0.139-0.014  c-0.132-0.015-0.26-0.032-0.385-0.052c-0.017-0.003-0.034-0.004-0.051-0.007c-0.146-0.024-0.284-0.051-0.417-0.081  c-0.02-0.004-0.038-0.009-0.057-0.014c-0.114-0.026-0.224-0.054-0.328-0.084c-0.021-0.006-0.042-0.012-0.062-0.018  c-0.56-0.166-0.97-0.375-1.203-0.584c-0.009-0.008-0.018-0.016-0.025-0.024c-0.021-0.02-0.042-0.04-0.06-0.059  c-0.023-0.026-0.045-0.053-0.062-0.079c-0.008-0.011-0.013-0.022-0.02-0.034c-0.012-0.021-0.022-0.042-0.03-0.063  c-0.005-0.01-0.009-0.02-0.012-0.029c-0.009-0.03-0.015-0.06-0.015-0.088C75.844,2.036,75.85,2.002,75.862,1.968z M83.57,3.254v1.35  c0,0.521-1.504,1.279-3.862,1.279V4.137C81.166,4.137,82.679,3.832,83.57,3.254z M65.959,5.7c0.01-0.03,0.026-0.062,0.045-0.093  c0.007-0.011,0.016-0.022,0.023-0.033c0.015-0.021,0.03-0.042,0.048-0.062c0.012-0.013,0.026-0.027,0.04-0.041  c0.018-0.018,0.036-0.037,0.057-0.055c0.018-0.015,0.036-0.03,0.056-0.045c0.021-0.017,0.041-0.033,0.063-0.049  c0.023-0.017,0.049-0.034,0.074-0.05c0.021-0.014,0.044-0.028,0.066-0.042c0.031-0.018,0.062-0.037,0.096-0.055  c0.021-0.011,0.042-0.022,0.063-0.033c0.039-0.021,0.079-0.041,0.122-0.061c0.015-0.007,0.03-0.014,0.046-0.021  c0.427-0.192,1.009-0.357,1.717-0.453c0.003,0,0.005-0.001,0.007-0.001c0.102-0.014,0.205-0.026,0.312-0.036  c0.004-0.001,0.008-0.001,0.012-0.001c0.107-0.011,0.217-0.02,0.328-0.027c0.001,0,0.001,0,0.001,0  c0.215-0.014,0.437-0.022,0.669-0.022c0.243,0,0.478,0.008,0.702,0.023c0.376,0.025,0.723,0.071,1.04,0.13  c0.021,0.004,0.044,0.008,0.065,0.013c0.251,0.049,0.481,0.107,0.691,0.171c0.021,0.006,0.042,0.013,0.063,0.02  c0.102,0.033,0.199,0.066,0.29,0.102c0.001,0,0.003,0.001,0.004,0.002c0.088,0.034,0.169,0.07,0.246,0.106  c0.019,0.009,0.037,0.018,0.056,0.027c0.075,0.037,0.146,0.075,0.21,0.113c0.002,0.001,0.004,0.002,0.006,0.003  c0.062,0.037,0.115,0.075,0.166,0.112c0.013,0.01,0.026,0.02,0.039,0.03c0.048,0.039,0.093,0.078,0.13,0.116  c0.101,0.108,0.154,0.214,0.154,0.312c0,0.522-1.506,1.28-3.863,1.28c-0.175,0-0.343-0.005-0.507-0.013  c-0.05-0.002-0.098-0.006-0.146-0.009c-0.118-0.007-0.234-0.017-0.347-0.027c-0.046-0.004-0.093-0.009-0.139-0.014  c-0.132-0.015-0.26-0.032-0.385-0.052c-0.016-0.003-0.034-0.005-0.05-0.007c-0.146-0.024-0.284-0.051-0.418-0.081  c-0.02-0.004-0.038-0.009-0.057-0.014c-0.114-0.026-0.224-0.055-0.328-0.084c-0.021-0.006-0.041-0.012-0.062-0.018  c-0.559-0.166-0.97-0.375-1.203-0.584c-0.009-0.008-0.018-0.016-0.025-0.024c-0.021-0.02-0.042-0.04-0.06-0.06  c-0.022-0.026-0.045-0.052-0.062-0.078c-0.007-0.011-0.013-0.023-0.02-0.034c-0.012-0.021-0.022-0.042-0.03-0.063  c-0.005-0.01-0.009-0.02-0.011-0.03c-0.009-0.03-0.016-0.059-0.016-0.088C65.942,5.767,65.948,5.734,65.959,5.7z M73.668,6.985v1.35  c0,0.521-1.505,1.279-3.863,1.279V7.868C71.264,7.868,72.778,7.563,73.668,6.985z M56.057,9.431  c0.011-0.031,0.026-0.062,0.045-0.093c0.007-0.011,0.016-0.021,0.024-0.033c0.014-0.021,0.029-0.041,0.047-0.062  c0.012-0.014,0.026-0.027,0.04-0.041c0.018-0.019,0.036-0.037,0.057-0.055c0.018-0.015,0.036-0.03,0.056-0.046  c0.021-0.016,0.041-0.032,0.064-0.048c0.022-0.017,0.048-0.034,0.073-0.051c0.021-0.014,0.044-0.028,0.067-0.042  c0.03-0.019,0.062-0.037,0.095-0.055c0.021-0.011,0.042-0.022,0.063-0.033c0.039-0.02,0.079-0.041,0.122-0.06  c0.015-0.007,0.03-0.014,0.047-0.021c0.426-0.192,1.008-0.358,1.716-0.453c0.003-0.001,0.005-0.001,0.007-0.001  c0.102-0.013,0.206-0.026,0.312-0.036c0.004,0,0.009,0,0.012-0.001c0.107-0.01,0.217-0.02,0.329-0.026c0,0,0,0,0.001,0  c0.214-0.014,0.436-0.022,0.668-0.022c0.243,0,0.478,0.008,0.702,0.023c0.376,0.025,0.723,0.07,1.04,0.13  c0.022,0.004,0.044,0.008,0.065,0.012c0.251,0.049,0.482,0.107,0.691,0.171c0.021,0.007,0.043,0.014,0.063,0.02  c0.102,0.033,0.2,0.066,0.29,0.102c0.002,0,0.003,0.001,0.004,0.001c0.088,0.034,0.169,0.07,0.246,0.106  c0.019,0.009,0.037,0.018,0.056,0.027c0.075,0.037,0.146,0.074,0.21,0.112c0.002,0.001,0.004,0.002,0.006,0.004  c0.062,0.037,0.116,0.075,0.166,0.112c0.014,0.01,0.026,0.02,0.039,0.03c0.048,0.039,0.093,0.078,0.13,0.116  c0.101,0.108,0.154,0.214,0.154,0.312c0,0.522-1.505,1.28-3.863,1.28c-0.175,0-0.342-0.005-0.507-0.013  c-0.05-0.002-0.098-0.006-0.146-0.009c-0.118-0.007-0.233-0.017-0.347-0.027c-0.046-0.005-0.093-0.009-0.138-0.014  c-0.133-0.015-0.261-0.032-0.385-0.052c-0.017-0.002-0.034-0.004-0.051-0.007c-0.146-0.023-0.284-0.051-0.418-0.081  c-0.019-0.004-0.037-0.009-0.057-0.013c-0.114-0.026-0.224-0.055-0.328-0.084c-0.021-0.006-0.041-0.012-0.062-0.018  c-0.559-0.166-0.97-0.375-1.203-0.585c-0.008-0.008-0.017-0.016-0.025-0.024c-0.021-0.02-0.042-0.04-0.059-0.06  c-0.023-0.026-0.046-0.052-0.062-0.078c-0.008-0.012-0.014-0.023-0.02-0.034c-0.013-0.021-0.023-0.042-0.031-0.063  c-0.005-0.01-0.008-0.02-0.011-0.029c-0.009-0.03-0.016-0.06-0.016-0.088C56.04,9.499,56.045,9.465,56.057,9.431z M63.766,10.716  v1.35c0,0.522-1.505,1.28-3.862,1.28V11.6C61.362,11.599,62.875,11.294,63.766,10.716z M46.155,13.162  c0.011-0.03,0.026-0.062,0.045-0.093c0.006-0.011,0.016-0.022,0.024-0.033c0.014-0.021,0.029-0.041,0.047-0.062  c0.012-0.014,0.026-0.027,0.04-0.041c0.018-0.018,0.036-0.036,0.057-0.054c0.017-0.016,0.036-0.031,0.055-0.046  c0.021-0.016,0.042-0.032,0.064-0.049c0.023-0.017,0.048-0.033,0.074-0.05c0.021-0.014,0.044-0.028,0.067-0.042  c0.03-0.019,0.062-0.037,0.095-0.055c0.021-0.011,0.042-0.022,0.064-0.033c0.039-0.021,0.079-0.041,0.122-0.06  c0.015-0.007,0.031-0.014,0.047-0.021c0.426-0.192,1.008-0.357,1.716-0.453c0.002,0,0.005,0,0.007-0.001  c0.102-0.014,0.206-0.026,0.312-0.036c0.004,0,0.009-0.001,0.012-0.001c0.107-0.011,0.216-0.02,0.329-0.026c0,0,0,0,0.001,0  c0.214-0.014,0.436-0.022,0.668-0.022c0.244,0,0.478,0.008,0.702,0.023c0.376,0.025,0.723,0.071,1.04,0.13  c0.022,0.004,0.044,0.008,0.065,0.013c0.251,0.049,0.482,0.107,0.692,0.171c0.021,0.006,0.042,0.013,0.063,0.02  c0.102,0.032,0.199,0.066,0.29,0.102c0.001,0,0.002,0.001,0.004,0.001c0.087,0.034,0.168,0.07,0.245,0.106  c0.02,0.009,0.037,0.018,0.056,0.027c0.075,0.037,0.147,0.074,0.211,0.112c0.001,0.001,0.003,0.002,0.005,0.004  c0.062,0.037,0.116,0.074,0.166,0.112c0.014,0.01,0.026,0.02,0.039,0.03c0.048,0.039,0.094,0.078,0.13,0.116  c0.101,0.108,0.154,0.214,0.154,0.312c0,0.521-1.505,1.28-3.863,1.28c-0.174,0-0.342-0.006-0.507-0.014  c-0.049-0.002-0.097-0.005-0.146-0.008c-0.118-0.007-0.233-0.017-0.346-0.028c-0.046-0.004-0.093-0.009-0.139-0.014  c-0.132-0.015-0.26-0.032-0.384-0.052c-0.017-0.002-0.034-0.004-0.051-0.007c-0.146-0.024-0.284-0.051-0.418-0.081  c-0.019-0.004-0.037-0.009-0.056-0.013c-0.114-0.026-0.224-0.055-0.328-0.084c-0.021-0.006-0.042-0.012-0.062-0.018  c-0.559-0.165-0.97-0.375-1.203-0.584c-0.008-0.008-0.017-0.016-0.025-0.024c-0.021-0.02-0.042-0.04-0.059-0.06  c-0.023-0.026-0.045-0.053-0.062-0.078c-0.008-0.012-0.013-0.023-0.02-0.034c-0.012-0.021-0.023-0.042-0.031-0.063  c-0.004-0.01-0.008-0.02-0.011-0.029c-0.009-0.03-0.015-0.06-0.015-0.088C46.138,13.23,46.144,13.196,46.155,13.162z M53.864,14.448  v1.35c0,0.521-1.505,1.28-3.862,1.28v-1.747C51.459,15.331,52.973,15.026,53.864,14.448z M36.253,16.894  c0.01-0.03,0.026-0.062,0.045-0.093c0.007-0.011,0.016-0.022,0.024-0.033c0.014-0.021,0.029-0.042,0.047-0.062  c0.012-0.013,0.026-0.027,0.04-0.041c0.018-0.018,0.037-0.037,0.057-0.055c0.018-0.015,0.037-0.03,0.056-0.045  c0.021-0.017,0.041-0.032,0.064-0.049c0.023-0.017,0.048-0.034,0.074-0.05c0.021-0.014,0.044-0.028,0.067-0.042  c0.03-0.019,0.062-0.037,0.095-0.055c0.021-0.011,0.042-0.022,0.063-0.033c0.039-0.021,0.079-0.041,0.122-0.061  c0.015-0.007,0.031-0.014,0.047-0.021c0.426-0.192,1.008-0.357,1.716-0.453c0.003,0,0.005-0.001,0.007-0.001  c0.102-0.014,0.205-0.026,0.312-0.036c0.004,0,0.009-0.001,0.013-0.001c0.107-0.011,0.216-0.02,0.328-0.027c0,0,0,0,0.001,0  c0.215-0.014,0.437-0.022,0.668-0.022c0.243,0,0.478,0.008,0.702,0.023c0.376,0.025,0.723,0.071,1.04,0.13  c0.022,0.004,0.044,0.008,0.066,0.013c0.251,0.049,0.482,0.107,0.691,0.171c0.021,0.006,0.042,0.013,0.064,0.02  c0.102,0.033,0.199,0.066,0.29,0.102c0.001,0.001,0.002,0.001,0.004,0.002c0.087,0.034,0.168,0.07,0.245,0.106  c0.019,0.009,0.038,0.018,0.056,0.027c0.075,0.037,0.147,0.075,0.21,0.113c0.001,0.001,0.003,0.002,0.005,0.003  c0.062,0.037,0.116,0.075,0.166,0.112c0.014,0.01,0.027,0.02,0.039,0.03c0.048,0.039,0.094,0.078,0.13,0.117  c0.101,0.107,0.154,0.214,0.154,0.312c0,0.522-1.505,1.28-3.863,1.28c-0.174,0-0.342-0.005-0.507-0.013  c-0.05-0.002-0.098-0.006-0.146-0.009c-0.118-0.007-0.233-0.017-0.346-0.027c-0.046-0.004-0.093-0.009-0.139-0.014  c-0.132-0.015-0.26-0.032-0.385-0.052c-0.016-0.003-0.034-0.005-0.05-0.007c-0.146-0.024-0.284-0.051-0.418-0.081  c-0.019-0.004-0.038-0.009-0.057-0.014c-0.114-0.026-0.224-0.054-0.328-0.084c-0.021-0.006-0.042-0.012-0.062-0.018  c-0.559-0.166-0.97-0.375-1.203-0.584c-0.009-0.008-0.018-0.016-0.026-0.024c-0.021-0.02-0.042-0.04-0.059-0.059  c-0.023-0.026-0.045-0.053-0.062-0.079c-0.007-0.011-0.013-0.023-0.02-0.034c-0.012-0.021-0.023-0.042-0.031-0.063  c-0.004-0.01-0.008-0.02-0.011-0.03c-0.008-0.03-0.015-0.059-0.015-0.088C36.235,16.961,36.242,16.928,36.253,16.894z   M43.961,18.179v1.35c0,0.521-1.504,1.279-3.862,1.279v-1.747C41.557,19.062,43.071,18.757,43.961,18.179z M26.351,20.625  c0.01-0.031,0.026-0.062,0.045-0.093c0.006-0.011,0.016-0.021,0.024-0.032c0.014-0.021,0.029-0.042,0.047-0.062  c0.012-0.014,0.026-0.027,0.04-0.041c0.018-0.018,0.036-0.037,0.057-0.055c0.018-0.015,0.037-0.03,0.056-0.045  c0.021-0.017,0.042-0.033,0.064-0.049c0.023-0.017,0.048-0.034,0.074-0.051c0.021-0.014,0.044-0.027,0.066-0.042  c0.031-0.019,0.062-0.037,0.095-0.055c0.021-0.011,0.042-0.022,0.063-0.033c0.04-0.02,0.079-0.04,0.122-0.06  c0.015-0.007,0.031-0.014,0.046-0.021c0.427-0.192,1.009-0.358,1.716-0.453c0.003,0,0.005-0.001,0.007-0.001  c0.102-0.013,0.205-0.025,0.312-0.036c0.004,0,0.008,0,0.012-0.001c0.107-0.011,0.216-0.02,0.328-0.027c0,0,0,0,0.001,0  c0.214-0.014,0.436-0.022,0.668-0.022c0.244,0,0.478,0.008,0.702,0.023c0.376,0.025,0.723,0.07,1.04,0.13  c0.022,0.004,0.044,0.008,0.065,0.012c0.251,0.049,0.482,0.107,0.692,0.171c0.021,0.007,0.042,0.014,0.063,0.02  c0.102,0.033,0.199,0.066,0.29,0.102c0.001,0,0.002,0.001,0.004,0.001c0.087,0.035,0.168,0.07,0.246,0.106  c0.019,0.009,0.038,0.018,0.056,0.027c0.075,0.037,0.146,0.074,0.21,0.112c0.002,0.001,0.003,0.002,0.005,0.004  c0.062,0.037,0.116,0.075,0.166,0.112c0.013,0.01,0.026,0.02,0.039,0.03c0.048,0.039,0.093,0.078,0.13,0.116  c0.101,0.108,0.154,0.214,0.154,0.312c0,0.522-1.505,1.28-3.863,1.28c-0.174,0-0.342-0.005-0.507-0.013  c-0.049-0.002-0.097-0.006-0.146-0.009c-0.118-0.007-0.234-0.017-0.346-0.027c-0.046-0.005-0.093-0.009-0.139-0.014  c-0.132-0.015-0.26-0.032-0.385-0.052c-0.016-0.003-0.034-0.005-0.05-0.007c-0.146-0.024-0.284-0.051-0.418-0.081  c-0.019-0.004-0.038-0.009-0.056-0.013c-0.114-0.026-0.224-0.055-0.329-0.084c-0.021-0.006-0.041-0.012-0.061-0.018  c-0.559-0.166-0.97-0.375-1.203-0.584c-0.009-0.008-0.018-0.016-0.025-0.024c-0.021-0.02-0.042-0.04-0.06-0.06  c-0.023-0.026-0.045-0.052-0.062-0.078c-0.008-0.011-0.013-0.023-0.02-0.034c-0.012-0.021-0.022-0.042-0.031-0.063  c-0.004-0.01-0.008-0.02-0.011-0.029c-0.009-0.03-0.015-0.06-0.015-0.088C26.333,20.692,26.339,20.659,26.351,20.625z M34.06,21.91  v1.351c0,0.521-1.504,1.279-3.863,1.279v-1.747C31.655,22.793,33.169,22.488,34.06,21.91z M16.449,24.356  c0.01-0.03,0.026-0.062,0.045-0.093c0.006-0.011,0.016-0.021,0.024-0.033c0.014-0.021,0.029-0.041,0.047-0.062  c0.012-0.014,0.026-0.027,0.04-0.041c0.018-0.018,0.037-0.036,0.057-0.054c0.018-0.015,0.036-0.031,0.055-0.046  c0.021-0.016,0.042-0.032,0.064-0.048c0.023-0.017,0.048-0.034,0.074-0.051c0.021-0.014,0.044-0.028,0.067-0.042  c0.03-0.019,0.062-0.037,0.095-0.055c0.021-0.011,0.042-0.022,0.063-0.033c0.039-0.021,0.079-0.041,0.122-0.06  c0.015-0.007,0.031-0.014,0.047-0.021c0.426-0.192,1.008-0.357,1.716-0.453c0.002,0,0.005,0,0.007-0.001  c0.102-0.014,0.206-0.026,0.312-0.036c0.004,0,0.009-0.001,0.013-0.001c0.107-0.01,0.216-0.02,0.328-0.026c0,0,0,0,0.001,0  c0.214-0.014,0.436-0.022,0.668-0.022c0.243,0,0.478,0.008,0.702,0.023c0.376,0.025,0.723,0.071,1.04,0.13  c0.022,0.004,0.044,0.008,0.066,0.013c0.251,0.049,0.482,0.107,0.691,0.171c0.021,0.006,0.042,0.013,0.063,0.02  c0.102,0.032,0.2,0.066,0.291,0.102c0.001,0,0.002,0.001,0.003,0.001c0.088,0.034,0.168,0.07,0.246,0.106  c0.019,0.009,0.038,0.018,0.056,0.027c0.075,0.037,0.146,0.074,0.21,0.112c0.001,0.001,0.003,0.002,0.005,0.004  c0.061,0.037,0.116,0.074,0.166,0.112c0.014,0.01,0.027,0.02,0.039,0.03c0.048,0.039,0.094,0.078,0.13,0.116  c0.101,0.108,0.154,0.214,0.154,0.312c0,0.521-1.505,1.28-3.863,1.28c-0.175,0-0.342-0.005-0.507-0.013  c-0.049-0.002-0.097-0.006-0.146-0.009c-0.118-0.007-0.233-0.017-0.346-0.027c-0.046-0.005-0.093-0.009-0.138-0.014  c-0.132-0.015-0.26-0.033-0.385-0.052c-0.017-0.002-0.034-0.004-0.051-0.007c-0.146-0.024-0.284-0.051-0.417-0.081  c-0.019-0.004-0.038-0.009-0.057-0.013c-0.114-0.026-0.224-0.055-0.328-0.084c-0.021-0.006-0.042-0.012-0.062-0.018  c-0.559-0.166-0.97-0.375-1.203-0.585c-0.008-0.008-0.017-0.016-0.025-0.024c-0.021-0.02-0.042-0.04-0.059-0.06  c-0.023-0.026-0.045-0.052-0.062-0.078c-0.008-0.012-0.013-0.023-0.02-0.034c-0.012-0.021-0.023-0.042-0.031-0.063  c-0.004-0.01-0.008-0.02-0.011-0.029c-0.009-0.03-0.015-0.06-0.015-0.088C16.431,24.424,16.437,24.39,16.449,24.356z M24.157,25.642  v1.35c0,0.521-1.504,1.279-3.862,1.279v-1.746C21.753,26.524,23.267,26.22,24.157,25.642z M12.417,26.319L12.417,26.319  L12.417,26.319z M6.546,28.087c0.01-0.03,0.026-0.062,0.045-0.093c0.007-0.011,0.016-0.021,0.024-0.032  c0.014-0.021,0.029-0.042,0.047-0.062c0.012-0.014,0.026-0.027,0.04-0.041c0.018-0.019,0.037-0.036,0.057-0.055  c0.018-0.015,0.037-0.03,0.056-0.046c0.021-0.016,0.041-0.032,0.064-0.048c0.023-0.018,0.048-0.034,0.074-0.051  c0.021-0.014,0.044-0.027,0.067-0.042c0.031-0.019,0.062-0.036,0.095-0.055c0.021-0.012,0.042-0.022,0.063-0.033  c0.039-0.021,0.079-0.04,0.122-0.061c0.016-0.007,0.031-0.014,0.047-0.021c0.427-0.192,1.008-0.357,1.716-0.453  c0.003-0.001,0.005-0.001,0.007-0.001c0.102-0.014,0.205-0.026,0.312-0.036c0.004-0.001,0.009-0.001,0.013-0.001  c0.107-0.011,0.216-0.021,0.328-0.027c0,0,0,0,0.001,0c0.215-0.014,0.437-0.022,0.668-0.022c0.243,0,0.478,0.008,0.702,0.023  c0.376,0.025,0.723,0.07,1.04,0.13c0.022,0.004,0.044,0.008,0.066,0.013c0.251,0.049,0.482,0.106,0.692,0.171  c0.021,0.007,0.042,0.014,0.063,0.021c0.102,0.032,0.199,0.066,0.29,0.102c0.001,0,0.002,0.001,0.004,0.001  c0.087,0.034,0.168,0.07,0.246,0.106c0.019,0.009,0.037,0.019,0.056,0.027c0.075,0.037,0.147,0.074,0.21,0.112  c0.001,0.001,0.003,0.002,0.005,0.004c0.062,0.037,0.116,0.074,0.166,0.112c0.013,0.01,0.026,0.02,0.039,0.029  c0.048,0.039,0.093,0.078,0.13,0.116c0.101,0.108,0.154,0.215,0.154,0.312c0,0.521-1.505,1.279-3.863,1.279  c-0.174,0-0.342-0.005-0.507-0.013c-0.049-0.003-0.097-0.006-0.146-0.009c-0.118-0.008-0.234-0.017-0.346-0.027  c-0.046-0.005-0.093-0.01-0.139-0.015c-0.132-0.015-0.26-0.032-0.385-0.052c-0.016-0.003-0.034-0.005-0.05-0.007  c-0.146-0.024-0.284-0.052-0.418-0.081c-0.019-0.004-0.038-0.009-0.057-0.014c-0.114-0.026-0.224-0.055-0.328-0.084  c-0.021-0.006-0.041-0.012-0.062-0.018c-0.559-0.166-0.97-0.376-1.203-0.585c-0.009-0.008-0.018-0.016-0.025-0.024  c-0.021-0.02-0.042-0.039-0.06-0.06c-0.023-0.025-0.045-0.052-0.062-0.078c-0.007-0.012-0.013-0.022-0.02-0.034  c-0.012-0.021-0.022-0.042-0.031-0.062c-0.004-0.01-0.008-0.02-0.011-0.029c-0.009-0.03-0.016-0.06-0.016-0.088  C6.529,28.155,6.535,28.122,6.546,28.087z M14.255,29.373v1.351c0,0.521-1.505,1.279-3.863,1.279v-1.746  C11.851,30.255,13.365,29.951,14.255,29.373z M5.74,29.274L5.74,29.274v1.449c0,1.344,2.396,2.068,4.651,2.068  c2.255,0,4.652-0.725,4.652-2.068v-2.535c0-0.084-0.009-0.166-0.027-0.245c-0.036-0.158-0.107-0.307-0.208-0.445  c-0.05-0.069-0.108-0.136-0.174-0.2c-0.046-0.046-0.097-0.09-0.15-0.134c-0.02-0.016-0.043-0.031-0.064-0.048  c-0.034-0.025-0.068-0.052-0.104-0.076c-0.029-0.021-0.06-0.039-0.091-0.059s-0.061-0.039-0.094-0.058  c-0.037-0.021-0.075-0.042-0.114-0.062c-0.028-0.016-0.056-0.03-0.084-0.045c-0.044-0.022-0.09-0.044-0.136-0.065  c-0.024-0.011-0.049-0.022-0.074-0.033c-0.052-0.022-0.105-0.045-0.159-0.066c-0.02-0.008-0.04-0.016-0.061-0.023  c-0.06-0.022-0.121-0.045-0.184-0.067c-0.014-0.005-0.028-0.009-0.042-0.014c-0.053-0.018-0.108-0.035-0.162-0.051l2.527-0.953v0  v1.449c0,1.344,2.397,2.068,4.651,2.068c2.255,0,4.652-0.725,4.652-2.068v-2.535c0-0.084-0.009-0.166-0.027-0.245  c-0.036-0.158-0.107-0.306-0.208-0.445c-0.051-0.069-0.109-0.136-0.174-0.2c-0.046-0.046-0.097-0.09-0.15-0.134  c-0.021-0.017-0.043-0.032-0.064-0.048c-0.034-0.026-0.068-0.052-0.104-0.077c-0.029-0.02-0.061-0.039-0.091-0.059  c-0.031-0.02-0.062-0.039-0.094-0.058c-0.036-0.021-0.075-0.042-0.113-0.063c-0.028-0.015-0.056-0.03-0.085-0.044  c-0.044-0.022-0.089-0.044-0.136-0.065c-0.024-0.011-0.049-0.022-0.074-0.033c-0.052-0.023-0.105-0.045-0.159-0.067  c-0.021-0.008-0.041-0.015-0.061-0.023c-0.061-0.022-0.121-0.045-0.184-0.066c-0.014-0.005-0.028-0.009-0.042-0.014  c-0.053-0.018-0.107-0.035-0.162-0.052l2.527-0.953v0v1.449c0,1.343,2.396,2.068,4.651,2.068c2.255,0,4.652-0.725,4.652-2.068  v-2.536c0-0.084-0.009-0.166-0.027-0.245c-0.037-0.158-0.108-0.307-0.209-0.445c-0.05-0.069-0.108-0.136-0.174-0.2  c-0.046-0.046-0.097-0.09-0.15-0.133c-0.02-0.017-0.043-0.032-0.064-0.048c-0.034-0.026-0.068-0.052-0.104-0.077  c-0.029-0.02-0.06-0.039-0.091-0.058c-0.031-0.02-0.061-0.039-0.094-0.058c-0.037-0.021-0.075-0.042-0.114-0.062  c-0.027-0.015-0.056-0.03-0.084-0.045c-0.044-0.022-0.09-0.043-0.136-0.065c-0.024-0.011-0.05-0.022-0.075-0.033  c-0.052-0.023-0.105-0.045-0.159-0.066c-0.02-0.008-0.04-0.016-0.06-0.023c-0.061-0.023-0.121-0.045-0.184-0.067  c-0.014-0.005-0.028-0.009-0.042-0.014c-0.053-0.018-0.108-0.035-0.162-0.052l2.528-0.952l0,0v1.449  c0,1.343,2.396,2.068,4.651,2.068c2.255,0,4.652-0.725,4.652-2.068v-2.536c0-0.084-0.009-0.166-0.027-0.245  c-0.036-0.158-0.107-0.307-0.208-0.445c-0.051-0.069-0.109-0.136-0.174-0.2c-0.046-0.046-0.097-0.09-0.15-0.134  c-0.02-0.017-0.043-0.032-0.064-0.048c-0.035-0.026-0.068-0.052-0.104-0.077c-0.029-0.02-0.061-0.039-0.091-0.058  c-0.031-0.02-0.062-0.039-0.094-0.058c-0.037-0.021-0.075-0.042-0.114-0.062c-0.028-0.015-0.056-0.03-0.085-0.044  c-0.044-0.022-0.089-0.044-0.136-0.065c-0.024-0.012-0.049-0.022-0.074-0.034c-0.052-0.023-0.105-0.045-0.159-0.066  c-0.02-0.008-0.041-0.016-0.061-0.023c-0.06-0.023-0.121-0.045-0.184-0.067c-0.014-0.005-0.028-0.009-0.042-0.014  c-0.053-0.018-0.107-0.035-0.162-0.051l2.527-0.953v0v1.449c0,1.343,2.396,2.068,4.651,2.068c2.255,0,4.652-0.725,4.652-2.068  v-2.535c0-0.084-0.009-0.166-0.027-0.245c-0.036-0.158-0.107-0.306-0.208-0.445c-0.051-0.069-0.108-0.136-0.174-0.2  c-0.047-0.046-0.097-0.09-0.15-0.134c-0.02-0.017-0.043-0.032-0.063-0.048c-0.034-0.026-0.068-0.052-0.104-0.077  c-0.029-0.02-0.061-0.039-0.091-0.059c-0.031-0.02-0.062-0.039-0.094-0.058c-0.037-0.021-0.075-0.042-0.114-0.063  c-0.027-0.015-0.056-0.03-0.084-0.044c-0.045-0.022-0.09-0.044-0.137-0.065c-0.024-0.011-0.049-0.022-0.074-0.033  c-0.052-0.023-0.104-0.045-0.159-0.067c-0.02-0.008-0.04-0.015-0.061-0.023c-0.06-0.022-0.121-0.045-0.184-0.067  c-0.014-0.005-0.028-0.009-0.042-0.014c-0.054-0.018-0.107-0.035-0.162-0.052l2.527-0.953v0v1.449c0,1.344,2.396,2.069,4.651,2.069  c2.256,0,4.652-0.725,4.652-2.069V9.531c0-0.084-0.009-0.166-0.027-0.245c-0.036-0.158-0.107-0.307-0.208-0.445  c-0.051-0.069-0.109-0.136-0.174-0.2c-0.047-0.046-0.097-0.09-0.15-0.134c-0.021-0.017-0.043-0.032-0.064-0.048  c-0.034-0.026-0.067-0.052-0.104-0.077c-0.029-0.02-0.061-0.039-0.091-0.058c-0.031-0.02-0.062-0.039-0.095-0.058  c-0.036-0.021-0.074-0.042-0.113-0.063c-0.027-0.015-0.056-0.03-0.085-0.044c-0.044-0.022-0.089-0.043-0.136-0.065  c-0.024-0.011-0.049-0.022-0.074-0.033c-0.052-0.023-0.104-0.045-0.159-0.066c-0.021-0.008-0.04-0.016-0.061-0.023  c-0.061-0.023-0.121-0.045-0.184-0.067c-0.014-0.005-0.028-0.009-0.042-0.014c-0.054-0.018-0.107-0.035-0.162-0.052l2.527-0.953v0  v1.449c0,1.343,2.396,2.068,4.651,2.068c2.256,0,4.652-0.725,4.652-2.068V5.8c0-0.084-0.01-0.166-0.027-0.245  c-0.036-0.158-0.107-0.307-0.209-0.445c-0.05-0.069-0.108-0.136-0.174-0.2C74,4.864,73.95,4.82,73.897,4.776  c-0.021-0.017-0.043-0.032-0.064-0.048c-0.034-0.026-0.067-0.052-0.104-0.077c-0.029-0.02-0.06-0.039-0.091-0.058  c-0.03-0.02-0.061-0.039-0.094-0.058c-0.036-0.021-0.075-0.042-0.113-0.062c-0.027-0.015-0.056-0.03-0.085-0.044  c-0.044-0.022-0.09-0.044-0.136-0.065c-0.024-0.011-0.05-0.022-0.074-0.033c-0.053-0.023-0.105-0.045-0.159-0.066  c-0.021-0.008-0.04-0.016-0.061-0.023c-0.061-0.023-0.121-0.045-0.184-0.067c-0.015-0.005-0.028-0.009-0.042-0.014  c-0.054-0.018-0.108-0.035-0.163-0.052l2.528-0.953v0v1.449c0,1.343,2.396,2.068,4.651,2.068s4.652-0.725,4.652-2.068V3.256  l2.539,0.972c-0.839,0.269-1.491,0.669-1.738,1.193c-0.069,0.148-0.107,0.307-0.107,0.475v0.244v0.843v1.449  c0,1.343,2.396,2.068,4.651,2.068c2.256,0,4.652-0.725,4.652-2.068V7.083l4.14,1.584L56.721,24.408L20.39,38.099l-9.081-3.477  L1.505,30.87L5.74,29.274z M99.211,19.208L20.783,48.761v-9.968l27.784-10.47L99.211,9.24V19.208z"/>
</svg>