<svg xmlns="http://www.w3.org/2000/svg" xmlns:xlink="http://www.w3.org/1999/xlink" version="1.1" id="Layer_1" x="0px" y="0px" width="100px" height="100px" viewBox="0 0 100 100" enable-background="new 0 0 100 100" xml:space="preserve">
<path d="M48.818,80.875l-0.123-0.006l-0.122-0.006l-0.068-0.004l-0.068-0.003l-0.067-0.004l-0.068-0.003l-0.068-0.004l-0.068-0.003  l-0.067-0.004l-0.068-0.003L47.91,80.83l-0.119-0.006l-0.118-0.006l-0.119-0.006l-0.084-0.004l-0.084-0.005L47.302,80.8  l-0.084-0.004l-0.127-0.007l-0.127-0.019l-0.083-0.013l-0.083-0.012l-0.084-0.013l-0.083-0.013l-0.118-0.018l-0.117-0.018  l-0.118-0.018l-0.118-0.018l-0.067-0.011l-0.067-0.01l-0.067-0.01l-0.068-0.011l-0.067-0.01l-0.067-0.01l-0.067-0.011l-0.067-0.01  l-0.067-0.011l-0.067-0.01l-0.068-0.01l-0.067-0.011l-0.067-0.01l-0.067-0.01l-0.067-0.011l-0.067-0.01l-0.118-0.018l-0.118-0.018  l-0.117-0.018l-0.118-0.018l-0.083-0.013l-0.084-0.013l-0.083-0.013l-0.083-0.012l-0.127-0.02l-0.124-0.031l-0.082-0.021  l-0.082-0.021l-0.083-0.021l-0.082-0.021l-0.115-0.029l-0.116-0.029l-0.116-0.03l-0.116-0.029L43.164,80.1l-0.066-0.017  l-0.066-0.017l-0.066-0.018l-0.067-0.017l-0.066-0.017l-0.066-0.018l-0.066-0.017l-0.066-0.017l-0.066-0.017l-0.066-0.017  l-0.066-0.018l-0.067-0.017l-0.066-0.017l-0.066-0.018l-0.066-0.017l-0.116-0.029l-0.116-0.029l-0.115-0.029l-0.116-0.029  l-0.082-0.021l-0.082-0.021l-0.083-0.021l-0.082-0.021l-0.124-0.032l-0.122-0.044l-0.08-0.029l-0.08-0.029l-0.08-0.028l-0.08-0.029  l-0.113-0.041l-0.114-0.042l-0.113-0.041l-0.113-0.041l-0.081-0.029l-0.09-0.032l-0.089-0.032l-0.09-0.033l-0.089-0.032  l-0.082-0.029l-0.081-0.029l-0.089-0.032l-0.09-0.033l-0.089-0.032l-0.09-0.032l-0.081-0.029l-0.113-0.041l-0.113-0.042  l-0.113-0.041l-0.114-0.041l-0.08-0.029l-0.08-0.029l-0.08-0.028l-0.08-0.029l-0.122-0.044l-0.118-0.058l-0.077-0.037l-0.078-0.037  l-0.078-0.038l-0.077-0.037l-0.11-0.053l-0.109-0.053l-0.11-0.054l-0.109-0.053l-0.079-0.038l-0.086-0.041l-0.087-0.042  l-0.087-0.042l-0.087-0.041l-0.078-0.038l-0.079-0.038l-0.087-0.042l-0.086-0.042l-0.087-0.041l-0.087-0.042l-0.078-0.038  l-0.11-0.053l-0.109-0.053l-0.11-0.053l-0.11-0.054l-0.077-0.037l-0.078-0.037l-0.077-0.038l-0.078-0.037l-0.118-0.057l-0.057-0.035  l-0.056-0.034l-0.075-0.046l-0.074-0.046l-0.075-0.046l-0.074-0.046l-0.105-0.064l-0.105-0.064l-0.105-0.064l-0.105-0.065  l-0.076-0.046l-0.083-0.051l-0.083-0.051l-0.083-0.052l-0.083-0.051l-0.076-0.046l-0.075-0.047l-0.083-0.051l-0.083-0.051  l-0.083-0.051l-0.084-0.052L33.87,76.16l-0.105-0.064l-0.105-0.065l-0.105-0.064l-0.105-0.064l-0.075-0.046l-0.074-0.046  l-0.074-0.046l-0.075-0.045l-0.057-0.035l-0.057-0.034l-0.054-0.042l-0.054-0.041l-0.071-0.054l-0.07-0.054l-0.071-0.055  l-0.07-0.054l-0.101-0.076l-0.101-0.077l-0.1-0.076l-0.101-0.076l-0.071-0.055l-0.079-0.061l-0.079-0.061l-0.079-0.06l-0.079-0.061  l-0.071-0.055l-0.072-0.055l-0.079-0.061l-0.079-0.061l-0.078-0.06l-0.079-0.061l-0.072-0.055l-0.1-0.076l-0.101-0.077l-0.101-0.076  l-0.1-0.076l-0.071-0.054l-0.07-0.055l-0.071-0.054l-0.071-0.055l-0.054-0.041l-0.054-0.041l-0.051-0.047l-0.05-0.048l-0.066-0.063  L30.3,73.521l-0.067-0.063l-0.066-0.063l-0.094-0.089l-0.094-0.088l-0.095-0.088l-0.094-0.089l-0.067-0.063l-0.074-0.069  l-0.074-0.07L29.5,72.771l-0.074-0.069l-0.067-0.063l-0.067-0.063l-0.073-0.07l-0.075-0.069l-0.073-0.069l-0.074-0.069l-0.067-0.063  l-0.094-0.088l-0.095-0.088l-0.094-0.089l-0.094-0.088l-0.067-0.063l-0.066-0.063l-0.066-0.063l-0.066-0.063l-0.051-0.047  l-0.05-0.048l-0.046-0.052l-0.046-0.053l-0.06-0.069l-0.061-0.068l-0.061-0.069l-0.06-0.069l-0.085-0.097l-0.085-0.098l-0.085-0.098  l-0.085-0.098l-0.062-0.07l-0.066-0.077l-0.067-0.076l-0.066-0.077l-0.067-0.077l-0.061-0.07l-0.062-0.069l-0.067-0.077  l-0.066-0.077l-0.067-0.076l-0.066-0.077l-0.062-0.07l-0.085-0.098l-0.085-0.098l-0.085-0.098l-0.085-0.098l-0.06-0.068  l-0.061-0.069l-0.061-0.069l-0.06-0.068l-0.046-0.053l-0.046-0.053l-0.039-0.056l-0.04-0.056l-0.052-0.073l-0.052-0.073  l-0.053-0.074l-0.052-0.073L25.7,68.589l-0.074-0.104l-0.073-0.104l-0.074-0.104l-0.053-0.074l-0.058-0.082l-0.059-0.082  l-0.058-0.082l-0.059-0.082l-0.053-0.074l-0.053-0.075l-0.058-0.081l-0.059-0.082l-0.058-0.082l-0.059-0.082l-0.053-0.075  l-0.073-0.104l-0.074-0.104l-0.073-0.104l-0.074-0.104l-0.052-0.074l-0.052-0.073l-0.053-0.073L24.3,66.613l-0.039-0.056  l-0.04-0.056l-0.033-0.059l-0.033-0.059l-0.045-0.078l-0.044-0.077l-0.044-0.077l-0.044-0.077l-0.063-0.11l-0.063-0.109  l-0.062-0.109l-0.063-0.109l-0.045-0.078l-0.049-0.086l-0.05-0.087L23.536,65.3l-0.049-0.086l-0.045-0.079l-0.045-0.078  l-0.049-0.087l-0.05-0.086l-0.049-0.086l-0.049-0.087l-0.045-0.078l-0.063-0.109l-0.062-0.109l-0.063-0.109l-0.063-0.109  l-0.044-0.078l-0.045-0.077l-0.044-0.077l-0.044-0.077l-0.033-0.06l-0.033-0.059l-0.027-0.061l-0.027-0.062l-0.036-0.081  l-0.036-0.08l-0.036-0.081l-0.036-0.08l-0.051-0.114l-0.052-0.114l-0.051-0.114l-0.051-0.113l-0.037-0.082l-0.04-0.09l-0.04-0.09  l-0.04-0.09l-0.04-0.09l-0.037-0.082l-0.036-0.082l-0.04-0.09l-0.04-0.09l-0.04-0.09l-0.041-0.09l-0.036-0.081l-0.051-0.114  l-0.051-0.114l-0.052-0.114l-0.051-0.113l-0.036-0.081l-0.036-0.081l-0.036-0.08l-0.036-0.081l-0.027-0.061L21.39,60.92  l-0.021-0.063l-0.021-0.063l-0.028-0.084l-0.028-0.083l-0.028-0.083l-0.027-0.083l-0.04-0.118l-0.04-0.117l-0.039-0.118l-0.04-0.117  l-0.028-0.085l-0.031-0.093l-0.031-0.093l-0.031-0.093l-0.031-0.093l-0.028-0.084l-0.028-0.084l-0.031-0.093l-0.031-0.093  l-0.031-0.093l-0.031-0.093l-0.028-0.085l-0.04-0.117l-0.04-0.118l-0.039-0.117l-0.04-0.118l-0.028-0.083l-0.027-0.083L20.47,58.19  l-0.028-0.084l-0.021-0.063l-0.021-0.063l-0.016-0.064l-0.016-0.064l-0.02-0.086l-0.021-0.085l-0.02-0.085l-0.021-0.085l-0.028-0.12  l-0.028-0.121l-0.028-0.12l-0.028-0.12l-0.017-0.069l-0.016-0.069l-0.017-0.069l-0.016-0.068l-0.017-0.069l-0.017-0.069  l-0.016-0.068l-0.017-0.069l-0.016-0.069l-0.017-0.068l-0.017-0.069L19.98,56.2l-0.017-0.068l-0.017-0.069l-0.016-0.069  l-0.017-0.068l-0.028-0.121l-0.028-0.12l-0.028-0.12l-0.028-0.121l-0.021-0.085l-0.02-0.085l-0.02-0.085l-0.021-0.085l-0.016-0.065  l-0.015-0.064l-0.01-0.065l-0.009-0.065l-0.012-0.087l-0.013-0.086l-0.012-0.087l-0.012-0.086l-0.018-0.123l-0.017-0.122  l-0.017-0.122l-0.018-0.122l-0.01-0.07l-0.01-0.07l-0.01-0.069l-0.01-0.07l-0.01-0.07l-0.01-0.07l-0.01-0.069l-0.01-0.07l-0.01-0.07  l-0.01-0.07l-0.01-0.07l-0.01-0.069l-0.009-0.07l-0.011-0.07l-0.009-0.07L19.4,52.886l-0.017-0.122l-0.017-0.123l-0.018-0.122  l-0.017-0.122l-0.012-0.087l-0.013-0.086l-0.012-0.087l-0.012-0.086l-0.01-0.065l-0.009-0.065l-0.003-0.066l-0.003-0.066  L19.257,51.7l-0.005-0.087l-0.004-0.088l-0.004-0.087l-0.006-0.123l-0.005-0.123l-0.006-0.123l-0.006-0.123l-0.003-0.071  l-0.004-0.07l-0.003-0.07l-0.003-0.07l-0.004-0.071l-0.003-0.07l-0.003-0.07l-0.004-0.071l-0.003-0.07l-0.003-0.07l-0.004-0.07  l-0.003-0.071l-0.003-0.07l-0.004-0.07l-0.003-0.071l-0.003-0.07l-0.006-0.123l-0.006-0.123l-0.006-0.123l-0.005-0.123l-0.005-0.088  l-0.004-0.087l-0.004-0.087l-0.004-0.087l-0.003-0.066l-0.003-0.066l0.003-0.065l0.003-0.066l0.004-0.087l0.004-0.087l0.004-0.088  l0.005-0.087l0.005-0.123l0.006-0.123l0.006-0.123l0.006-0.123l0.003-0.071l0.003-0.07l0.004-0.07l0.003-0.07l0.003-0.071  l0.004-0.07l0.003-0.07l0.003-0.071l0.004-0.07l0.003-0.07l0.003-0.07l0.004-0.071l0.003-0.07l0.003-0.07l0.004-0.071l0.003-0.07  l0.006-0.123l0.006-0.123l0.005-0.123l0.006-0.123l0.004-0.088l0.004-0.087l0.005-0.087l0.004-0.087l0.003-0.066l0.003-0.066  l0.009-0.065l0.01-0.065l0.012-0.087l0.012-0.086l0.013-0.087l0.012-0.086l0.017-0.122l0.018-0.123l0.017-0.122l0.017-0.122  l0.011-0.07l0.009-0.069l0.011-0.07l0.009-0.07l0.01-0.07l0.01-0.069l0.01-0.07l0.01-0.07l0.01-0.07l0.01-0.069l0.01-0.07l0.01-0.07  l0.01-0.07l0.01-0.069l0.01-0.07l0.01-0.07l0.018-0.122l0.017-0.122l0.017-0.123l0.018-0.122l0.012-0.086l0.012-0.087l0.013-0.086  l0.012-0.087l0.009-0.065l0.01-0.065l0.015-0.064l0.016-0.065l0.021-0.085l0.02-0.085l0.02-0.085l0.021-0.086l0.028-0.12l0.028-0.12  l0.028-0.12l0.028-0.121l0.017-0.068l0.016-0.069l0.017-0.069l0.017-0.069l0.016-0.068l0.017-0.069l0.017-0.069l0.016-0.068  l0.017-0.069l0.016-0.069l0.017-0.068l0.017-0.069l0.016-0.069l0.017-0.068l0.016-0.069l0.017-0.069l0.028-0.12l0.028-0.12  l0.028-0.121l0.028-0.12l0.021-0.085l0.02-0.085l0.021-0.086l0.02-0.085l0.016-0.064l0.016-0.064l0.021-0.063l0.021-0.063  l0.028-0.084l0.028-0.083l0.027-0.083l0.028-0.084l0.04-0.117l0.039-0.118l0.04-0.117l0.04-0.118l0.028-0.084l0.031-0.093  l0.031-0.093l0.031-0.093l0.031-0.093l0.028-0.084l0.028-0.084l0.031-0.093l0.031-0.093l0.031-0.093l0.031-0.093l0.028-0.085  l0.04-0.117l0.039-0.118l0.04-0.117l0.04-0.118l0.027-0.083l0.028-0.083l0.028-0.083l0.028-0.084l0.021-0.063l0.021-0.063  l0.027-0.062l0.027-0.061l0.036-0.081l0.036-0.081l0.036-0.08l0.036-0.081l0.051-0.113l0.052-0.114l0.051-0.114l0.051-0.114  l0.036-0.082l0.041-0.09l0.04-0.09l0.04-0.09l0.04-0.09l0.036-0.081l0.037-0.082l0.04-0.09l0.04-0.09l0.04-0.09l0.04-0.09  l0.037-0.082l0.051-0.113l0.051-0.114l0.052-0.114l0.051-0.114l0.036-0.08l0.036-0.081l0.036-0.081l0.036-0.08l0.027-0.062  l0.027-0.061l0.033-0.06l0.033-0.059l0.044-0.077l0.044-0.077l0.045-0.078l0.044-0.077l0.063-0.109l0.063-0.109l0.062-0.109  l0.063-0.109l0.045-0.079l0.049-0.086l0.049-0.086l0.05-0.087l0.049-0.086l0.045-0.078l0.045-0.079l0.049-0.086l0.049-0.086  l0.05-0.087l0.049-0.086l0.045-0.078l0.063-0.109l0.062-0.109l0.063-0.11l0.063-0.109l0.044-0.077l0.044-0.077l0.044-0.078  l0.045-0.077l0.033-0.059l0.033-0.059l0.04-0.056l0.039-0.056l0.052-0.074l0.053-0.073l0.052-0.073l0.052-0.074l0.074-0.104  l0.073-0.104l0.074-0.104l0.073-0.104l0.053-0.074l0.059-0.082l0.058-0.082l0.059-0.082l0.058-0.081l0.053-0.075l0.053-0.074  l0.059-0.082l0.058-0.082l0.059-0.082l0.058-0.082l0.053-0.074l0.074-0.104l0.073-0.104l0.074-0.104l0.073-0.104l0.052-0.073  l0.053-0.074l0.052-0.073l0.052-0.073l0.04-0.056l0.039-0.056l0.046-0.053l0.046-0.053l0.06-0.068l0.061-0.069l0.061-0.069  l0.06-0.069l0.085-0.098l0.085-0.097l0.085-0.098l0.085-0.098l0.062-0.07l0.066-0.077l0.067-0.076l0.066-0.077l0.067-0.077  l0.062-0.07l0.061-0.069l0.067-0.077l0.066-0.077l0.067-0.076l0.066-0.077l0.062-0.07l0.085-0.098l0.085-0.098l0.085-0.098  l0.085-0.097l0.06-0.069l0.061-0.069l0.061-0.069l0.06-0.068l0.046-0.053l0.046-0.053l0.05-0.047l0.051-0.047l0.066-0.063  l0.066-0.063l0.066-0.063l0.067-0.063l0.094-0.088l0.094-0.089l0.095-0.088l0.094-0.088l0.067-0.063l0.074-0.069l0.073-0.069  l0.075-0.07l0.073-0.069l0.067-0.063l0.067-0.063l0.074-0.069l0.074-0.07l0.074-0.069l0.074-0.069l0.067-0.063l0.094-0.088  l0.095-0.088l0.094-0.089l0.094-0.088l0.066-0.063l0.067-0.063l0.066-0.063l0.066-0.063l0.05-0.047l0.051-0.047l0.054-0.041  l0.054-0.041l0.071-0.055l0.071-0.054l0.07-0.055l0.071-0.054l0.1-0.076l0.101-0.076l0.101-0.077l0.1-0.076l0.072-0.055l0.079-0.061  l0.078-0.061l0.079-0.06l0.079-0.061l0.072-0.055l0.071-0.055l0.079-0.061l0.079-0.06l0.079-0.061l0.079-0.061l0.071-0.055  l0.101-0.076l0.1-0.077l0.101-0.076l0.101-0.076l0.07-0.055l0.071-0.054l0.07-0.054l0.071-0.055l0.054-0.041l0.054-0.041  l0.057-0.034l0.057-0.035l0.075-0.046l0.074-0.045l0.074-0.046l0.075-0.046l0.105-0.064l0.105-0.065l0.105-0.064l0.105-0.064  l0.075-0.047l0.084-0.051l0.083-0.051l0.083-0.051l0.083-0.051l0.075-0.047l0.076-0.046l0.083-0.051l0.083-0.052l0.083-0.051  l0.083-0.051l0.076-0.046l0.105-0.065l0.105-0.064l0.105-0.064l0.105-0.065l0.074-0.045l0.075-0.046l0.074-0.046l0.075-0.046  l0.056-0.035l0.057-0.034l0.118-0.057l0.078-0.037l0.077-0.038l0.078-0.037l0.077-0.037l0.11-0.054l0.11-0.053l0.109-0.053  l0.11-0.053l0.078-0.038l0.087-0.042l0.087-0.041l0.086-0.042l0.087-0.042l0.079-0.038l0.078-0.038l0.087-0.041l0.087-0.042  l0.087-0.042l0.086-0.041l0.079-0.038l0.109-0.054l0.11-0.053l0.109-0.053l0.11-0.053l0.077-0.037l0.078-0.038l0.078-0.037  l0.077-0.037l0.118-0.058l0.122-0.044l0.08-0.029l0.08-0.028l0.08-0.029l0.08-0.029l0.114-0.041l0.113-0.041l0.113-0.042  l0.113-0.041l0.081-0.029l0.09-0.032l0.089-0.032l0.09-0.033l0.089-0.032l0.081-0.029l0.082-0.029l0.089-0.032l0.09-0.033  l0.089-0.032l0.09-0.032l0.081-0.029l0.113-0.041l0.113-0.042l0.114-0.041l0.113-0.041l0.08-0.029l0.08-0.028l0.08-0.029l0.08-0.029  l0.122-0.044l0.124-0.032l0.082-0.021l0.083-0.021l0.082-0.021l0.082-0.021l0.116-0.029l0.115-0.029l0.116-0.029l0.116-0.029  l0.066-0.017l0.066-0.018l0.066-0.017l0.067-0.017l0.066-0.018l0.066-0.017l0.066-0.017l0.066-0.017l0.066-0.018l0.066-0.017  l0.066-0.017l0.067-0.017l0.066-0.018l0.066-0.017l0.066-0.017l0.066-0.017l0.116-0.03l0.116-0.029l0.116-0.029l0.115-0.029  l0.082-0.021l0.083-0.021l0.082-0.021l0.082-0.021l0.124-0.031l0.127-0.02l0.083-0.013l0.083-0.012l0.084-0.013l0.083-0.013  l0.118-0.018l0.117-0.018l0.118-0.018l0.118-0.018l0.067-0.01l0.067-0.011l0.067-0.01l0.067-0.01l0.067-0.011l0.068-0.01  l0.067-0.011l0.067-0.01l0.067-0.01l0.067-0.011l0.067-0.01l0.067-0.01l0.068-0.011l0.067-0.01l0.067-0.01l0.067-0.011l0.118-0.018  l0.117-0.018l0.118-0.018l0.118-0.018l0.083-0.013l0.083-0.013l0.084-0.012l0.083-0.013l0.127-0.02l0.127-0.006l0.084-0.004  l0.084-0.004l0.084-0.005l0.084-0.004l0.118-0.006l0.119-0.006l0.119-0.006l0.118-0.006l0.068-0.004l0.067-0.003l0.068-0.004  l0.068-0.003l0.068-0.003l0.067-0.004l0.068-0.003l0.068-0.004l0.067-0.003l0.068-0.004l0.068-0.003l0.067-0.004l0.068-0.003  l0.067-0.004l0.068-0.003l0.068-0.003l0.118-0.006l0.119-0.006l0.119-0.006l0.118-0.006l0.084-0.005l0.084-0.004l0.084-0.004  l0.084-0.005l0.127-0.006l0.128,0.006l0.084,0.005l0.084,0.004l0.084,0.004l0.084,0.005l0.118,0.006l0.119,0.006l0.119,0.006  l0.118,0.006l0.068,0.003l0.067,0.003l0.068,0.004l0.068,0.003l0.067,0.004l0.068,0.003l0.068,0.004l0.067,0.003l0.068,0.004  l0.068,0.003l0.067,0.004l0.068,0.003l0.068,0.003l0.068,0.004l0.067,0.003l0.068,0.004l0.118,0.006l0.119,0.006l0.118,0.006  l0.119,0.006l0.084,0.004l0.084,0.005l0.084,0.004l0.084,0.004l0.127,0.006l0.127,0.02l0.083,0.013l0.083,0.012l0.084,0.013  l0.083,0.013l0.118,0.018l0.117,0.018l0.118,0.018l0.118,0.018l0.067,0.011l0.067,0.01l0.067,0.01l0.067,0.011l0.068,0.01  l0.067,0.01l0.067,0.011l0.067,0.01l0.067,0.01l0.067,0.011l0.068,0.01l0.067,0.011l0.067,0.01l0.067,0.01l0.067,0.011l0.067,0.01  l0.118,0.018l0.118,0.018l0.117,0.018l0.118,0.018l0.083,0.013l0.084,0.013l0.083,0.012l0.083,0.013l0.127,0.02l0.124,0.031  l0.082,0.021l0.082,0.021l0.083,0.021l0.082,0.021l0.115,0.029l0.116,0.029l0.116,0.029l0.116,0.03l0.066,0.017l0.066,0.017  l0.066,0.017l0.067,0.018l0.066,0.017l0.066,0.017l0.066,0.017l0.066,0.018l0.066,0.017l0.066,0.017l0.066,0.017l0.066,0.018  l0.067,0.017l0.066,0.017l0.066,0.018l0.066,0.017l0.116,0.029l0.116,0.029l0.115,0.029l0.116,0.029l0.082,0.021l0.082,0.021  l0.083,0.021l0.081,0.021l0.125,0.032l0.122,0.044l0.08,0.029l0.08,0.029l0.08,0.028l0.08,0.029l0.114,0.041l0.113,0.041  l0.113,0.042l0.113,0.041l0.081,0.029l0.09,0.032l0.089,0.032l0.09,0.033l0.089,0.032l0.082,0.029l0.081,0.029l0.089,0.032  l0.09,0.033l0.089,0.032l0.09,0.032l0.081,0.029l0.113,0.041l0.113,0.042l0.113,0.041l0.114,0.041l0.08,0.029l0.08,0.029l0.08,0.028  l0.08,0.029l0.122,0.044l0.118,0.058l0.077,0.037l0.078,0.037l0.077,0.038l0.078,0.037l0.11,0.053l0.109,0.053l0.11,0.053  l0.109,0.054l0.079,0.038l0.087,0.041l0.086,0.042l0.087,0.042l0.087,0.041l0.078,0.038l0.079,0.038l0.087,0.042l0.086,0.042  l0.087,0.041l0.087,0.042l0.078,0.038l0.11,0.053l0.109,0.053l0.11,0.053l0.109,0.054l0.078,0.037l0.078,0.037l0.077,0.038  l0.078,0.037l0.118,0.057l0.057,0.034l0.057,0.035l0.074,0.046l0.074,0.046l0.075,0.046l0.074,0.045l0.105,0.065l0.105,0.064  l0.105,0.064l0.105,0.065l0.076,0.046l0.083,0.051l0.083,0.051l0.083,0.052l0.083,0.051l0.076,0.046l0.075,0.047l0.083,0.051  l0.083,0.051l0.084,0.051l0.083,0.051l0.075,0.047l0.105,0.064l0.105,0.064l0.105,0.065l0.105,0.064l0.075,0.046l0.074,0.046  l0.075,0.045l0.074,0.046l0.057,0.035l0.057,0.034l0.054,0.041l0.054,0.041l0.071,0.055l0.07,0.054l0.071,0.054l0.07,0.055  l0.101,0.076l0.101,0.076l0.1,0.077l0.101,0.076l0.071,0.055l0.079,0.061l0.079,0.061l0.079,0.06l0.079,0.061l0.071,0.055  l0.072,0.055l0.079,0.061l0.079,0.06l0.079,0.061l0.078,0.061l0.072,0.055l0.101,0.076l0.1,0.077l0.101,0.076l0.1,0.076l0.071,0.054  l0.071,0.055l0.07,0.054l0.071,0.055l0.054,0.041l0.054,0.041l0.051,0.047l0.05,0.047l0.066,0.063l0.066,0.063l0.067,0.063  l0.066,0.063l0.094,0.088l0.094,0.089l0.095,0.088l0.094,0.088l0.067,0.063l0.074,0.069l0.074,0.069l0.074,0.07l0.074,0.069  l0.067,0.063l0.067,0.063l0.073,0.069l0.074,0.07l0.074,0.069l0.074,0.069l0.067,0.063l0.095,0.088l0.094,0.088l0.094,0.089  l0.094,0.088l0.067,0.063l0.066,0.063l0.066,0.063l0.066,0.063l0.051,0.047l0.05,0.047l0.046,0.053l0.046,0.053l0.06,0.068  l0.061,0.069l0.061,0.069l0.06,0.069l0.085,0.097l0.085,0.098l0.085,0.098l0.085,0.098l0.062,0.07l0.066,0.077l0.067,0.076  l0.067,0.077l0.066,0.077l0.062,0.069l0.061,0.07l0.067,0.077l0.066,0.077l0.067,0.076l0.066,0.077l0.062,0.07l0.085,0.098  l0.085,0.098l0.085,0.097l0.085,0.098l0.06,0.069l0.061,0.069l0.061,0.069l0.06,0.068l0.046,0.053l0.046,0.053l0.039,0.056  l0.04,0.056l0.052,0.073l0.052,0.073l0.053,0.074l0.052,0.073l0.074,0.104l0.073,0.104l0.073,0.104l0.074,0.104l0.053,0.074  l0.058,0.082l0.059,0.082l0.058,0.082l0.059,0.082l0.053,0.074l0.053,0.074l0.058,0.082l0.059,0.082l0.058,0.082l0.059,0.082  l0.053,0.074l0.073,0.104l0.074,0.104l0.073,0.104l0.074,0.104l0.052,0.074l0.052,0.073l0.053,0.073l0.052,0.074l0.039,0.056  l0.04,0.056l0.033,0.059l0.033,0.059l0.045,0.077l0.044,0.078l0.044,0.077l0.044,0.077l0.063,0.109l0.063,0.11l0.063,0.109  l0.062,0.109l0.045,0.078l0.049,0.086l0.05,0.087l0.049,0.086l0.049,0.086l0.045,0.079l0.045,0.078l0.049,0.086l0.05,0.087  l0.049,0.086l0.049,0.086l0.045,0.079l0.063,0.109l0.062,0.109l0.063,0.109l0.063,0.109l0.044,0.077l0.044,0.078l0.045,0.077  l0.044,0.077l0.033,0.059l0.033,0.06l0.027,0.061l0.027,0.062l0.036,0.08l0.036,0.081l0.036,0.081l0.036,0.08l0.051,0.114  l0.052,0.114l0.051,0.114l0.051,0.113l0.037,0.082l0.04,0.09l0.04,0.09l0.04,0.09l0.04,0.09l0.037,0.082l0.036,0.081l0.04,0.09  l0.04,0.09l0.041,0.09l0.04,0.09l0.036,0.082l0.051,0.114l0.052,0.114l0.051,0.114l0.051,0.113l0.036,0.081l0.036,0.08l0.036,0.081  l0.036,0.081l0.027,0.061l0.027,0.062l0.021,0.063l0.021,0.063l0.028,0.083l0.028,0.084l0.028,0.083l0.027,0.083l0.04,0.118  l0.04,0.117l0.039,0.118l0.04,0.117l0.028,0.085l0.031,0.093l0.031,0.093l0.031,0.093l0.031,0.093l0.028,0.084l0.028,0.084  l0.031,0.093l0.031,0.093l0.031,0.093l0.031,0.093l0.028,0.084l0.04,0.118l0.04,0.117l0.039,0.118l0.04,0.117l0.028,0.084  l0.028,0.083l0.027,0.083l0.028,0.084l0.021,0.063l0.021,0.063l0.015,0.064l0.016,0.064l0.02,0.085l0.021,0.086l0.02,0.085  l0.021,0.085l0.028,0.12l0.028,0.121l0.028,0.12l0.028,0.12l0.016,0.069l0.017,0.069l0.017,0.068L80,40.934l0.017,0.069l0.017,0.068  l0.016,0.069l0.017,0.069l0.017,0.069l0.016,0.068l0.017,0.069l0.016,0.068l0.017,0.069l0.017,0.069l0.016,0.069l0.017,0.068  l0.028,0.121l0.028,0.12l0.028,0.12l0.028,0.12l0.021,0.086l0.02,0.085l0.021,0.085l0.02,0.085l0.016,0.065l0.015,0.064l0.01,0.065  l0.009,0.065l0.012,0.087l0.013,0.086l0.012,0.087l0.012,0.086l0.018,0.122l0.017,0.123l0.018,0.122l0.017,0.122l0.01,0.07  l0.01,0.069l0.01,0.07l0.01,0.07l0.01,0.07l0.01,0.07l0.01,0.069l0.01,0.07l0.01,0.07l0.01,0.07l0.01,0.069l0.01,0.07l0.01,0.07  l0.01,0.07l0.01,0.069l0.009,0.07l0.018,0.122l0.017,0.122l0.018,0.123l0.017,0.122l0.012,0.086l0.013,0.087l0.012,0.086  l0.012,0.087l0.01,0.065l0.009,0.065l0.003,0.066l0.003,0.066l0.004,0.087l0.005,0.087l0.004,0.087l0.004,0.088l0.006,0.123  l0.005,0.123l0.006,0.123l0.006,0.123l0.002,0.031l0.102-0.001l0.102-0.002l0.084-0.001l0.184-0.003l0.185-0.002l0.084-0.002  l0.118-0.001l0.261-0.004l0.261-0.004l0.119-0.002l0.136-0.002l0.299-0.004l0.299-0.004l0.136-0.002l0.136-0.002l0.299-0.005  l0.299-0.004l0.136-0.002l0.118-0.002l0.261-0.004l0.261-0.004l0.118-0.002l0.084-0.001l0.185-0.003l0.185-0.002l0.084-0.001  l0.102-0.002l0.102-0.001l-0.067,0.086l-0.096,0.121l-0.096,0.122l-0.148,0.188l-0.147,0.189l-0.061,0.076l-0.132,0.169  l-0.133,0.169l-0.06,0.076l-0.071,0.091l-0.156,0.199l-0.157,0.2l-0.07,0.09l-0.08,0.102l-0.175,0.223l-0.174,0.223l-0.08,0.102  l-0.085,0.107l-0.187,0.238l-0.187,0.238l-0.085,0.108l-0.088,0.111l-0.192,0.246l-0.193,0.245l-0.087,0.112l-0.088,0.111  l-0.193,0.246l-0.192,0.246l-0.088,0.111l-0.085,0.108l-0.187,0.238l-0.187,0.237l-0.085,0.108l-0.079,0.102l-0.175,0.223  l-0.175,0.223l-0.079,0.101l-0.071,0.091l-0.156,0.199l-0.157,0.2l-0.07,0.09l-0.061,0.077l-0.132,0.169l-0.133,0.168l-0.06,0.077  l-0.148,0.188l-0.148,0.189l-0.096,0.121l-0.095,0.122L79.61,54.37l-0.071-0.084l-0.101-0.119l-0.101-0.118l-0.157-0.185  l-0.157-0.185l-0.063-0.075l-0.141-0.165l-0.14-0.164L78.617,53.2l-0.075-0.089l-0.165-0.194l-0.166-0.195l-0.075-0.088  l-0.084-0.099l-0.185-0.218L77.683,52.1l-0.084-0.099l-0.089-0.105l-0.198-0.232l-0.197-0.232l-0.09-0.106l-0.093-0.108l-0.203-0.24  l-0.204-0.24l-0.093-0.109l-0.093-0.109l-0.203-0.239l-0.204-0.24l-0.093-0.109l-0.09-0.105l-0.197-0.232l-0.197-0.232l-0.09-0.106  l-0.084-0.099l-0.185-0.217l-0.185-0.218l-0.084-0.099l-0.075-0.089l-0.165-0.195l-0.166-0.194l-0.075-0.089l-0.063-0.074  l-0.14-0.165l-0.14-0.165l-0.063-0.074l-0.157-0.185l-0.156-0.185l-0.102-0.119l-0.101-0.119l-0.071-0.084l0.11-0.002l0.111-0.001  l0.092-0.002l0.201-0.002l0.201-0.003l0.091-0.002l0.13-0.002l0.284-0.004l0.284-0.004l0.129-0.002l0.148-0.002l0.326-0.005  l0.325-0.005l0.148-0.002l0.148-0.002l0.326-0.005l0.325-0.005l0.148-0.002l0.129-0.002l0.285-0.004l0.284-0.004l0.129-0.002  l0.092-0.002l0.201-0.003l0.2-0.002l0.092-0.002l0.111-0.001l0.11-0.002l-0.006-0.126l-0.005-0.113l-0.005-0.113l-0.004-0.08  l-0.004-0.08l-0.004-0.08l-0.003-0.08l-0.006-0.122l-0.017-0.12l-0.012-0.08l-0.011-0.079l-0.011-0.08l-0.012-0.079l-0.016-0.112  l-0.016-0.112l-0.016-0.113l-0.016-0.112l-0.018-0.129l-0.018-0.129l-0.019-0.129l-0.018-0.129l-0.018-0.129l-0.019-0.129  l-0.018-0.129l-0.019-0.129l-0.016-0.112l-0.016-0.112l-0.016-0.112l-0.016-0.113l-0.011-0.079l-0.011-0.08l-0.012-0.079  l-0.011-0.08l-0.017-0.12l-0.028-0.119l-0.019-0.078l-0.019-0.078l-0.018-0.079l-0.019-0.078l-0.026-0.11l-0.026-0.111l-0.025-0.11  l-0.026-0.111l-0.03-0.127l-0.029-0.127l-0.03-0.127l-0.03-0.127l-0.029-0.127l-0.03-0.127l-0.029-0.127l-0.03-0.127l-0.026-0.111  l-0.025-0.11l-0.026-0.11l-0.026-0.111l-0.019-0.078l-0.019-0.078l-0.018-0.079l-0.019-0.078l-0.028-0.119L77.3,40.32l-0.025-0.076  l-0.026-0.076l-0.025-0.077l-0.026-0.076l-0.036-0.108l-0.037-0.108l-0.036-0.108l-0.036-0.108l-0.042-0.124l-0.042-0.124  l-0.042-0.124l-0.042-0.124l-0.041-0.124L76.8,38.836l-0.042-0.123l-0.042-0.125L76.68,38.48l-0.037-0.108l-0.036-0.108  l-0.037-0.108l-0.025-0.077l-0.025-0.076l-0.026-0.076l-0.025-0.077l-0.039-0.116l-0.051-0.112l-0.033-0.074l-0.033-0.074  l-0.033-0.074l-0.033-0.074l-0.047-0.104l-0.047-0.105l-0.047-0.104l-0.047-0.105l-0.054-0.12l-0.054-0.12l-0.054-0.12l-0.055-0.12  l-0.054-0.12l-0.054-0.121l-0.054-0.12l-0.054-0.12l-0.047-0.104l-0.047-0.105l-0.047-0.104l-0.047-0.105l-0.033-0.074l-0.033-0.074  l-0.033-0.074l-0.033-0.074l-0.051-0.112l-0.062-0.108l-0.04-0.07l-0.041-0.071l-0.04-0.071l-0.041-0.071l-0.057-0.102l-0.058-0.101  l-0.058-0.101l-0.058-0.101l-0.032-0.058l-0.033-0.058l-0.033-0.058l-0.032-0.058l-0.033-0.058l-0.033-0.059l-0.032-0.058  l-0.033-0.058l-0.033-0.058l-0.032-0.058l-0.033-0.058l-0.033-0.058l-0.032-0.058l-0.033-0.058l-0.033-0.058l-0.032-0.059  l-0.058-0.101l-0.058-0.101l-0.057-0.101l-0.058-0.101l-0.041-0.071l-0.04-0.071l-0.041-0.071l-0.04-0.071l-0.062-0.108  l-0.073-0.103l-0.048-0.067l-0.048-0.067l-0.048-0.068l-0.048-0.067l-0.068-0.096l-0.067-0.096l-0.068-0.096l-0.067-0.096  l-0.039-0.055l-0.039-0.055l-0.038-0.055l-0.039-0.055l-0.039-0.055l-0.039-0.056l-0.038-0.055l-0.039-0.055l-0.039-0.055  l-0.039-0.055l-0.039-0.055l-0.038-0.055l-0.039-0.056l-0.039-0.055l-0.039-0.055l-0.038-0.055l-0.068-0.096l-0.067-0.096  l-0.068-0.096l-0.067-0.096l-0.048-0.067l-0.048-0.068l-0.049-0.067l-0.047-0.067l-0.073-0.103l-0.084-0.097l-0.056-0.063  l-0.055-0.063l-0.056-0.063l-0.056-0.063l-0.078-0.09l-0.078-0.09l-0.078-0.09l-0.078-0.09l-0.045-0.051l-0.045-0.052l-0.045-0.052  l-0.045-0.052l-0.044-0.051l-0.045-0.052l-0.045-0.052l-0.045-0.051l-0.045-0.052l-0.045-0.052l-0.045-0.051l-0.045-0.052  l-0.045-0.052l-0.045-0.052l-0.044-0.051l-0.045-0.052l-0.078-0.09l-0.079-0.09l-0.078-0.09l-0.078-0.09l-0.055-0.063l-0.056-0.063  l-0.056-0.063l-0.055-0.063l-0.084-0.096l-0.093-0.088l-0.062-0.057l-0.062-0.058L69.9,27.706l-0.062-0.058l-0.087-0.081  l-0.086-0.081l-0.087-0.081l-0.086-0.081l-0.05-0.047l-0.05-0.046l-0.05-0.047l-0.05-0.047l-0.049-0.046l-0.05-0.047l-0.05-0.047  l-0.05-0.046l-0.05-0.047l-0.049-0.046l-0.05-0.047l-0.05-0.047l-0.05-0.046l-0.05-0.047l-0.049-0.047l-0.05-0.046l-0.087-0.081  l-0.086-0.081l-0.087-0.082l-0.086-0.081l-0.062-0.057l-0.062-0.058l-0.061-0.058l-0.062-0.058l-0.093-0.087l-0.1-0.075l-0.064-0.05  l-0.065-0.05l-0.065-0.05l-0.065-0.05l-0.092-0.07l-0.093-0.07l-0.092-0.07l-0.092-0.07l-0.054-0.04l-0.053-0.041l-0.053-0.04  l-0.053-0.04l-0.053-0.04l-0.053-0.041l-0.053-0.04l-0.053-0.04l-0.054-0.041l-0.053-0.04l-0.053-0.04l-0.053-0.04L66.6,24.858  l-0.053-0.04l-0.053-0.04l-0.053-0.041l-0.093-0.07l-0.092-0.07l-0.093-0.07l-0.092-0.07l-0.065-0.05l-0.065-0.05l-0.064-0.05  l-0.065-0.049l-0.099-0.076l-0.104-0.063l-0.068-0.042l-0.069-0.042l-0.068-0.042l-0.068-0.043l-0.098-0.059l-0.097-0.06  l-0.097-0.06l-0.098-0.06l-0.111-0.068l-0.111-0.068l-0.111-0.068l-0.11-0.068L64.39,23.37l-0.111-0.067l-0.111-0.068l-0.111-0.068  l-0.098-0.06l-0.097-0.06l-0.097-0.06l-0.098-0.06l-0.068-0.042l-0.069-0.042l-0.068-0.042l-0.068-0.042l-0.104-0.064l-0.108-0.052  l-0.071-0.035l-0.071-0.034l-0.072-0.034l-0.071-0.034l-0.101-0.049l-0.102-0.049l-0.101-0.049l-0.102-0.049l-0.116-0.056  l-0.115-0.056l-0.116-0.056l-0.116-0.056l-0.115-0.057l-0.116-0.056l-0.116-0.056l-0.115-0.056l-0.102-0.049l-0.101-0.049  l-0.102-0.049l-0.102-0.048l-0.071-0.035l-0.071-0.034l-0.071-0.034l-0.072-0.034l-0.107-0.053l-0.112-0.041l-0.074-0.026  l-0.073-0.027l-0.074-0.026l-0.074-0.026l-0.104-0.038l-0.104-0.038l-0.104-0.038l-0.104-0.038l-0.12-0.043l-0.119-0.043  L59.58,21.05l-0.12-0.043l-0.12-0.044l-0.119-0.043l-0.119-0.044l-0.12-0.043l-0.104-0.038l-0.104-0.038l-0.104-0.038l-0.104-0.037  l-0.074-0.027l-0.074-0.026l-0.073-0.027l-0.074-0.026l-0.111-0.041l-0.115-0.028l-0.075-0.02l-0.075-0.019l-0.076-0.02l-0.075-0.02  l-0.106-0.026l-0.107-0.027l-0.106-0.027l-0.106-0.026l-0.123-0.031l-0.122-0.031l-0.122-0.031l-0.123-0.031l-0.122-0.03  l-0.122-0.031l-0.123-0.031l-0.122-0.031l-0.106-0.026l-0.107-0.027l-0.106-0.027l-0.107-0.026l-0.075-0.02l-0.075-0.019  l-0.076-0.02l-0.075-0.02l-0.114-0.028l-0.116-0.018l-0.077-0.012l-0.076-0.012l-0.077-0.012l-0.076-0.011l-0.108-0.017  l-0.108-0.017l-0.108-0.016l-0.108-0.017l-0.125-0.019l-0.124-0.019l-0.124-0.019l-0.124-0.019l-0.125-0.019l-0.124-0.019  L53.764,19.6l-0.124-0.019l-0.108-0.017l-0.108-0.016l-0.108-0.017l-0.108-0.017l-0.077-0.011l-0.076-0.012l-0.077-0.012  l-0.076-0.012l-0.116-0.018l-0.118-0.005l-0.077-0.004l-0.077-0.004l-0.077-0.004l-0.077-0.004l-0.109-0.006l-0.109-0.005  l-0.108-0.006L51.92,19.41l-0.125-0.007l-0.126-0.006l-0.125-0.006l-0.125-0.007l-0.125-0.006l-0.125-0.006l-0.126-0.007  l-0.125-0.006l-0.109-0.006l-0.109-0.005l-0.108-0.006l-0.109-0.005l-0.077-0.004l-0.077-0.004l-0.077-0.004l-0.078-0.004  l-0.117-0.006l-0.117,0.006l-0.077,0.004l-0.077,0.004l-0.077,0.004l-0.077,0.004l-0.109,0.005L49.41,19.35l-0.108,0.005  l-0.109,0.006l-0.125,0.006l-0.126,0.007l-0.125,0.006l-0.125,0.006l-0.125,0.007l-0.125,0.006l-0.126,0.006L48.19,19.41  l-0.109,0.005l-0.108,0.006l-0.109,0.005l-0.109,0.006l-0.077,0.004L47.6,19.439l-0.077,0.004l-0.077,0.004l-0.117,0.005  l-0.117,0.018l-0.076,0.012l-0.077,0.012l-0.076,0.012l-0.077,0.011l-0.108,0.017l-0.108,0.017l-0.108,0.016l-0.108,0.017  L46.347,19.6l-0.124,0.019l-0.124,0.019l-0.125,0.019l-0.124,0.019l-0.124,0.019l-0.124,0.019l-0.125,0.019l-0.108,0.017  l-0.108,0.016l-0.108,0.017l-0.108,0.017l-0.076,0.011l-0.077,0.012l-0.076,0.012l-0.077,0.012l-0.116,0.018l-0.114,0.028  l-0.075,0.02l-0.076,0.02l-0.075,0.019l-0.076,0.02l-0.106,0.026l-0.106,0.027l-0.107,0.027l-0.106,0.026l-0.122,0.031l-0.123,0.031  l-0.122,0.031l-0.122,0.03l-0.123,0.031l-0.122,0.031l-0.122,0.031l-0.123,0.031l-0.106,0.026l-0.106,0.027l-0.107,0.027  l-0.106,0.026l-0.075,0.02l-0.076,0.02l-0.075,0.019l-0.075,0.02l-0.115,0.028l-0.111,0.041l-0.074,0.026l-0.074,0.027l-0.073,0.026  l-0.074,0.027l-0.104,0.037l-0.104,0.038l-0.104,0.038l-0.104,0.038l-0.12,0.043L40.89,20.92l-0.12,0.043l-0.119,0.044l-0.12,0.043  l-0.119,0.044l-0.12,0.043l-0.119,0.043l-0.104,0.038l-0.104,0.038l-0.104,0.038l-0.104,0.038l-0.073,0.026l-0.074,0.026  l-0.073,0.027l-0.074,0.026l-0.111,0.041l-0.109,0.053l-0.071,0.034l-0.071,0.034l-0.071,0.034l-0.071,0.035l-0.102,0.048  l-0.102,0.049l-0.101,0.049l-0.102,0.049l-0.115,0.056l-0.116,0.056L38.2,22.031l-0.115,0.057l-0.116,0.056l-0.116,0.056  l-0.115,0.056l-0.116,0.056l-0.102,0.049l-0.101,0.049l-0.102,0.049l-0.101,0.049l-0.071,0.034l-0.072,0.034l-0.071,0.034  l-0.071,0.035l-0.108,0.052l-0.104,0.064l-0.068,0.042l-0.069,0.042l-0.068,0.042l-0.068,0.042l-0.097,0.06l-0.098,0.06l-0.097,0.06  l-0.098,0.06l-0.111,0.068l-0.111,0.068l-0.111,0.067l-0.11,0.068l-0.111,0.068l-0.111,0.068l-0.111,0.068l-0.111,0.068l-0.098,0.06  l-0.097,0.06l-0.097,0.06l-0.098,0.059l-0.068,0.043l-0.068,0.042l-0.069,0.042l-0.068,0.042l-0.104,0.063l-0.099,0.076  l-0.065,0.049l-0.065,0.05l-0.064,0.05l-0.065,0.05l-0.092,0.07l-0.093,0.07l-0.092,0.07l-0.093,0.07l-0.053,0.041l-0.053,0.04  l-0.053,0.04l-0.053,0.041l-0.053,0.04l-0.053,0.04L33.3,25.02l-0.054,0.041l-0.053,0.04l-0.053,0.04l-0.053,0.041l-0.053,0.04  l-0.053,0.04l-0.053,0.04l-0.053,0.041l-0.053,0.04l-0.093,0.07l-0.092,0.07l-0.093,0.07l-0.092,0.07l-0.065,0.05l-0.065,0.05  l-0.065,0.05l-0.064,0.05l-0.1,0.075l-0.093,0.087l-0.061,0.058l-0.062,0.058l-0.062,0.058l-0.061,0.057l-0.087,0.081l-0.087,0.082  l-0.086,0.081l-0.087,0.081l-0.05,0.046l-0.049,0.047l-0.05,0.047l-0.05,0.046l-0.05,0.047l-0.05,0.047l-0.049,0.046l-0.05,0.047  l-0.05,0.046l-0.05,0.047l-0.05,0.047l-0.049,0.046l-0.05,0.047l-0.05,0.047l-0.05,0.046l-0.049,0.047l-0.087,0.081l-0.087,0.081  l-0.086,0.081l-0.087,0.081l-0.061,0.058l-0.062,0.058l-0.062,0.058l-0.062,0.057l-0.093,0.088l-0.084,0.096l-0.055,0.063  l-0.056,0.063l-0.056,0.063l-0.055,0.063l-0.078,0.09l-0.078,0.09l-0.079,0.09l-0.078,0.09l-0.045,0.052l-0.044,0.051l-0.045,0.052  l-0.045,0.052l-0.045,0.052l-0.045,0.051l-0.045,0.052l-0.045,0.052l-0.045,0.051l-0.045,0.052l-0.045,0.052l-0.044,0.051  l-0.045,0.052l-0.045,0.052l-0.045,0.052l-0.045,0.051l-0.078,0.09l-0.078,0.09l-0.078,0.09l-0.078,0.09l-0.056,0.063l-0.056,0.063  l-0.055,0.063l-0.056,0.063l-0.084,0.097l-0.073,0.103l-0.048,0.067l-0.048,0.067l-0.048,0.068l-0.048,0.067l-0.067,0.096  l-0.068,0.096l-0.067,0.096l-0.068,0.096l-0.038,0.055l-0.039,0.055l-0.039,0.055l-0.039,0.056l-0.038,0.055l-0.039,0.055  l-0.039,0.055l-0.039,0.055l-0.039,0.055l-0.038,0.055l-0.039,0.056l-0.039,0.055l-0.039,0.055L26.9,31.731l-0.038,0.055  l-0.039,0.055l-0.067,0.096l-0.068,0.096l-0.067,0.096l-0.068,0.096l-0.048,0.068l-0.048,0.067l-0.048,0.067l-0.048,0.067  l-0.073,0.103l-0.062,0.108l-0.04,0.071l-0.041,0.071l-0.04,0.071l-0.041,0.071l-0.058,0.101l-0.057,0.101l-0.058,0.101  l-0.058,0.101l-0.032,0.059l-0.033,0.058l-0.033,0.058l-0.032,0.058l-0.033,0.058l-0.033,0.058l-0.032,0.058l-0.033,0.058  l-0.033,0.058l-0.032,0.058l-0.033,0.059l-0.033,0.058l-0.032,0.058l-0.033,0.058l-0.033,0.058l-0.032,0.058l-0.058,0.101  l-0.058,0.101l-0.057,0.101l-0.058,0.102l-0.041,0.071l-0.04,0.071l-0.041,0.071l-0.04,0.07l-0.062,0.108l-0.051,0.112l-0.033,0.074  l-0.033,0.074l-0.033,0.074l-0.033,0.074l-0.047,0.105l-0.047,0.104l-0.047,0.105l-0.047,0.104l-0.054,0.12l-0.054,0.12  l-0.054,0.121l-0.054,0.12l-0.055,0.12l-0.054,0.12l-0.054,0.12l-0.054,0.12l-0.047,0.105l-0.047,0.104l-0.047,0.105l-0.047,0.104  l-0.033,0.074L23.8,37.472l-0.033,0.074l-0.033,0.074l-0.051,0.112l-0.039,0.116l-0.025,0.077l-0.026,0.076l-0.025,0.076  l-0.025,0.077l-0.037,0.108l-0.036,0.108l-0.037,0.108l-0.036,0.107l-0.042,0.125l-0.042,0.123l-0.042,0.125l-0.041,0.124  l-0.042,0.124l-0.042,0.124l-0.042,0.124l-0.042,0.124l-0.036,0.108l-0.036,0.108l-0.037,0.108l-0.036,0.108l-0.026,0.076  l-0.025,0.077l-0.026,0.076l-0.025,0.076l-0.039,0.116l-0.028,0.119l-0.019,0.078l-0.018,0.079l-0.019,0.078l-0.019,0.078  l-0.026,0.111l-0.026,0.11l-0.025,0.11l-0.026,0.111l-0.03,0.127l-0.029,0.127l-0.03,0.127l-0.029,0.127l-0.03,0.127l-0.03,0.127  l-0.029,0.127l-0.03,0.127L22.3,42.439l-0.025,0.11l-0.026,0.111l-0.026,0.11l-0.019,0.078l-0.018,0.079l-0.019,0.078l-0.019,0.078  l-0.028,0.119l-0.017,0.12l-0.011,0.08l-0.012,0.079l-0.011,0.08l-0.011,0.079l-0.016,0.113l-0.016,0.112l-0.016,0.112l-0.016,0.112  l-0.019,0.129l-0.018,0.129l-0.019,0.129l-0.018,0.129l-0.018,0.129l-0.019,0.129l-0.018,0.129l-0.018,0.129l-0.016,0.112  l-0.016,0.113l-0.016,0.112l-0.016,0.112l-0.012,0.079l-0.011,0.08l-0.011,0.079l-0.012,0.08l-0.017,0.12l-0.006,0.122l-0.003,0.08  l-0.004,0.08l-0.004,0.08l-0.004,0.08l-0.005,0.113l-0.005,0.113l-0.006,0.113l-0.005,0.113l-0.006,0.13l-0.006,0.13l-0.006,0.13  l-0.007,0.13l-0.006,0.131l-0.006,0.129l-0.006,0.131l-0.006,0.129l-0.005,0.114l-0.006,0.113l-0.005,0.113l-0.005,0.113  l-0.004,0.08l-0.004,0.08l-0.004,0.08l-0.003,0.08L21.6,48.843l0.006,0.122l0.003,0.08l0.004,0.08l0.004,0.08l0.004,0.08  l0.005,0.113l0.005,0.113l0.006,0.113l0.005,0.113l0.006,0.13l0.006,0.13l0.006,0.13l0.006,0.13l0.007,0.131l0.006,0.129  l0.006,0.131l0.006,0.129l0.005,0.114l0.006,0.113l0.005,0.113l0.005,0.113l0.004,0.08l0.004,0.08l0.004,0.08l0.003,0.08  l0.006,0.121l0.017,0.121l0.012,0.079l0.011,0.08l0.011,0.079l0.012,0.08l0.016,0.112l0.016,0.112l0.016,0.112l0.016,0.113  l0.018,0.129l0.018,0.129l0.019,0.129l0.018,0.129l0.018,0.129l0.019,0.129l0.018,0.129l0.019,0.129l0.016,0.112l0.016,0.112  l0.016,0.112l0.016,0.113l0.011,0.079l0.011,0.08l0.012,0.079l0.011,0.079l0.017,0.121l0.028,0.119l0.019,0.078l0.019,0.078  l0.018,0.079l0.019,0.078l0.026,0.11l0.026,0.111l0.025,0.11l0.026,0.111l0.03,0.127l0.029,0.127l0.03,0.127l0.03,0.127l0.029,0.127  l0.03,0.127l0.029,0.127l0.03,0.127l0.026,0.11l0.025,0.111l0.026,0.11l0.026,0.111l0.019,0.078l0.019,0.078l0.018,0.079  l0.019,0.078l0.028,0.119l0.039,0.115l0.025,0.077l0.026,0.076l0.025,0.077l0.026,0.076l0.036,0.108l0.037,0.108l0.036,0.108  l0.036,0.108l0.042,0.124l0.042,0.124l0.042,0.124l0.042,0.124l0.041,0.124l0.042,0.124l0.042,0.124l0.042,0.124l0.036,0.108  l0.037,0.108l0.036,0.108l0.037,0.108l0.025,0.076l0.025,0.077l0.026,0.076l0.025,0.077l0.039,0.116l0.051,0.112l0.033,0.074  l0.033,0.074l0.033,0.074l0.033,0.074l0.047,0.104l0.047,0.105l0.047,0.104l0.047,0.105l0.054,0.12l0.054,0.12l0.054,0.12  l0.055,0.12l0.054,0.12l0.054,0.12l0.054,0.121l0.054,0.12l0.047,0.104l0.047,0.105l0.047,0.104l0.047,0.105l0.033,0.073  l0.033,0.074l0.033,0.074l0.033,0.075l0.051,0.112l0.062,0.107l0.04,0.071l0.041,0.071l0.04,0.071l0.041,0.071l0.058,0.101  l0.057,0.101l0.058,0.102l0.058,0.101l0.032,0.058l0.033,0.058l0.033,0.058l0.032,0.058l0.033,0.058l0.033,0.058l0.032,0.059  l0.033,0.058l0.033,0.058l0.032,0.058l0.033,0.058l0.033,0.058l0.032,0.058l0.033,0.058l0.033,0.058l0.032,0.058l0.058,0.102  l0.058,0.101l0.057,0.101l0.058,0.101l0.041,0.071l0.04,0.071l0.041,0.071l0.04,0.071l0.062,0.107l0.073,0.104l0.048,0.067  l0.048,0.067l0.048,0.067l0.048,0.068l0.068,0.096l0.067,0.096l0.068,0.096l0.067,0.096l0.039,0.055l0.038,0.055l0.039,0.055  l0.039,0.055l0.039,0.055l0.039,0.055l0.038,0.056l0.039,0.055l0.039,0.055l0.039,0.055l0.039,0.055l0.038,0.055l0.039,0.056  l0.039,0.055l0.039,0.055l0.038,0.055l0.068,0.096l0.067,0.096l0.068,0.096l0.067,0.096l0.048,0.067l0.048,0.067l0.048,0.068  l0.048,0.067l0.073,0.103l0.084,0.097l0.056,0.063l0.055,0.063l0.056,0.063l0.056,0.063l0.078,0.09l0.078,0.09l0.078,0.09  l0.078,0.09l0.045,0.051l0.045,0.052l0.045,0.052l0.045,0.051l0.044,0.052l0.045,0.052l0.045,0.052l0.045,0.051l0.045,0.052  l0.045,0.052l0.045,0.051l0.045,0.052l0.045,0.052l0.045,0.051l0.044,0.052l0.045,0.052l0.078,0.09l0.079,0.09l0.078,0.09  l0.078,0.09l0.055,0.063l0.056,0.063l0.056,0.063l0.055,0.063l0.084,0.096l0.093,0.088l0.062,0.057l0.062,0.058l0.062,0.058  l0.061,0.058l0.087,0.081l0.086,0.081l0.087,0.081l0.087,0.081l0.049,0.047l0.05,0.046l0.05,0.047l0.05,0.047l0.049,0.046  l0.05,0.047l0.05,0.047l0.05,0.046l0.05,0.047l0.049,0.046l0.05,0.047l0.05,0.046l0.05,0.047l0.05,0.047l0.049,0.047l0.05,0.046  l0.087,0.081l0.086,0.081l0.087,0.081l0.087,0.082l0.061,0.057l0.062,0.058l0.062,0.058l0.061,0.058l0.093,0.087l0.1,0.075  l0.064,0.05l0.065,0.05l0.065,0.05l0.065,0.05l0.092,0.07l0.093,0.07l0.092,0.07l0.093,0.07l0.053,0.04l0.053,0.041l0.053,0.04  l0.053,0.04l0.053,0.04l0.053,0.041l0.053,0.04l0.053,0.04l0.054,0.041l0.053,0.04l0.053,0.04l0.053,0.04l0.053,0.041l0.053,0.04  l0.053,0.04l0.053,0.04l0.093,0.071l0.092,0.069l0.093,0.071l0.092,0.069l0.065,0.05l0.064,0.05l0.065,0.05l0.065,0.05l0.099,0.076  l0.104,0.063l0.068,0.042l0.069,0.042l0.068,0.042l0.068,0.042l0.098,0.06l0.097,0.06l0.097,0.06l0.098,0.06l0.111,0.068  l0.111,0.068l0.111,0.068l0.111,0.068l0.11,0.067l0.111,0.068l0.111,0.068l0.111,0.068l0.098,0.06l0.097,0.06l0.098,0.06l0.097,0.06  l0.068,0.042l0.068,0.042l0.069,0.042l0.068,0.042l0.104,0.064l0.108,0.052l0.071,0.034l0.071,0.035l0.072,0.034l0.071,0.034  l0.101,0.049l0.102,0.049l0.101,0.049l0.102,0.049l0.116,0.056l0.115,0.056l0.116,0.056l0.116,0.056l0.115,0.056l0.116,0.057  l0.116,0.056l0.115,0.056l0.102,0.049l0.101,0.049l0.102,0.048l0.102,0.049l0.071,0.035l0.071,0.034l0.071,0.034l0.071,0.034  l0.109,0.053l0.111,0.04l0.074,0.027l0.073,0.026l0.074,0.027l0.074,0.026l0.104,0.038l0.104,0.038l0.104,0.038l0.104,0.037  l0.119,0.044l0.12,0.043l0.119,0.044l0.12,0.043l0.119,0.044l0.12,0.043l0.119,0.044l0.12,0.043l0.104,0.038l0.104,0.038  l0.104,0.037l0.104,0.038l0.074,0.027l0.074,0.026l0.073,0.026l0.074,0.027l0.111,0.04l0.115,0.029l0.075,0.02l0.075,0.019  l0.076,0.02l0.075,0.02l0.106,0.026l0.107,0.027l0.106,0.027l0.106,0.026l0.123,0.031l0.122,0.031l0.122,0.031l0.123,0.03  l0.122,0.031l0.122,0.031l0.123,0.031l0.122,0.03l0.106,0.027l0.107,0.027l0.106,0.026l0.106,0.027l0.076,0.02l0.075,0.019  l0.076,0.02l0.075,0.02l0.114,0.028l0.116,0.018l0.077,0.012l0.076,0.012l0.077,0.011l0.076,0.012l0.108,0.017l0.108,0.016  l0.108,0.017l0.108,0.017l0.125,0.019l0.124,0.019l0.124,0.019l0.124,0.019l0.125,0.019l0.124,0.019l0.124,0.019l0.124,0.019  l0.108,0.017l0.108,0.016l0.108,0.017l0.108,0.017l0.077,0.011l0.076,0.012l0.077,0.012l0.076,0.012l0.117,0.017l0.117,0.006  l0.077,0.004l0.077,0.004l0.077,0.004l0.077,0.004l0.109,0.006l0.109,0.005l0.108,0.006l0.109,0.005l0.125,0.007l0.126,0.006  l0.125,0.006l0.125,0.007l0.127,0.006v0.11v0.072v0.073v0.072v0.073v0.103v0.103v0.104v0.103v0.118v0.117v0.118v0.118v0.117v0.118  v0.118v0.117v0.104v0.103v0.103v0.103v0.073v0.072v0.073v0.072 M61.729,57.39l0.035-0.063l0.035-0.063l0.035-0.063l0.035-0.063  l0.049-0.089l0.05-0.089l0.05-0.089l0.049-0.089l0.058-0.103l0.057-0.103l0.057-0.102l0.057-0.103l0.057-0.102l0.057-0.102  l0.058-0.103l0.057-0.102l0.049-0.09l0.05-0.089l0.05-0.089l0.05-0.089l0.035-0.063l0.034-0.063l0.035-0.063l0.035-0.063  l0.053-0.096l-0.064-0.039l-0.065-0.039l-0.092-0.056l-0.093-0.055l-0.092-0.056l-0.093-0.055l-0.089-0.054l-0.099-0.06  l-0.099-0.059l-0.099-0.059l-0.099-0.06l-0.09-0.054l-0.058-0.034l-0.059-0.035l-0.127-0.076l-0.128-0.077l-0.128-0.076  l-0.128-0.076l-0.058-0.035l-0.059-0.035l-0.068-0.041l-0.068-0.041l-0.151-0.091l-0.151-0.09l-0.151-0.091l-0.151-0.091  l-0.068-0.041l-0.068-0.041l-0.077-0.046l-0.076-0.046l-0.169-0.102l-0.169-0.101l-0.169-0.102l-0.168-0.101l-0.077-0.046  l-0.076-0.046l-0.082-0.05l-0.082-0.049l-0.181-0.108l-0.181-0.107l-0.181-0.108l-0.18-0.108l-0.082-0.049l-0.082-0.049  l-0.085-0.051l-0.085-0.051l-0.186-0.111l-0.187-0.112l-0.187-0.111l-0.187-0.111l-0.084-0.051l-0.085-0.051l-0.085-0.051  l-0.084-0.051l-0.187-0.111l-0.187-0.112l-0.187-0.111l-0.186-0.111l-0.085-0.051l-0.085-0.051l-0.082-0.049l-0.082-0.049  l-0.18-0.108l-0.181-0.108l-0.181-0.107l-0.181-0.108l-0.082-0.049l-0.082-0.05l-0.076-0.046l-0.077-0.046l-0.168-0.101  l-0.169-0.102l-0.169-0.101l-0.169-0.102l-0.076-0.046l-0.077-0.046l-0.068-0.041l-0.069-0.041l-0.15-0.091l-0.151-0.091  l-0.151-0.09l-0.151-0.091l-0.068-0.041l-0.068-0.041l-0.059-0.035l-0.058-0.035l-0.128-0.076l-0.128-0.076l-0.128-0.077  l-0.128-0.076l-0.058-0.035l-0.058-0.034l-0.09-0.054l-0.099-0.06l-0.099-0.059l-0.099-0.06l-0.099-0.059L51.792,48.6l-0.093-0.055  l-0.092-0.056l-0.093-0.056l-0.092-0.055l-0.065-0.039l-0.065-0.039v-0.105v-0.104v-0.093v-0.103v-0.103v-0.102V47.59v-0.094v-0.071  v-0.072v-0.159v-0.158v-0.158v-0.159v-0.072v-0.072V46.48v-0.094v-0.206v-0.205V45.77v-0.206v-0.093v-0.094v-0.111v-0.11v-0.243  v-0.243v-0.244v-0.243v-0.11V43.96v-0.123v-0.124v-0.084v-0.188v-0.187V43.17v-0.085v-0.187v-0.187v-0.085v-0.124V42.38v-0.132  v-0.133v-0.091v-0.199v-0.2v-0.091v-0.091v-0.199v-0.2v-0.091v-0.132v-0.132v-0.137v-0.137v-0.094v-0.206V39.91v-0.094v-0.094  v-0.206v-0.206v-0.094V39.08v-0.136v-0.137v-0.137v-0.094v-0.206v-0.206v-0.094v-0.094v-0.206v-0.206v-0.094v-0.137v-0.136v-0.133  v-0.132v-0.091v-0.2v-0.199v-0.091v-0.091v-0.199v-0.2v-0.091v-0.132v-0.132v-0.124v-0.123v-0.085v-0.188v-0.187v-0.085v-0.085  v-0.187V34.26v-0.085v-0.124v-0.123v-0.111v-0.11v-0.243V33.22v-0.244v-0.243v-0.11v-0.11v-0.094v-0.094v-0.206v-0.205v-0.206  v-0.206v-0.093v-0.094v-0.072V31.17v-0.158v-0.159v-0.158v-0.159v-0.071v-0.072v-0.093v-0.103v-0.102v-0.103v-0.102v-0.093v-0.105  v-0.105h-2.474v0.115v0.116v0.102v0.112v0.111v0.112v0.112v0.102v0.079v0.079v0.174v0.175v0.174v0.174v0.079v0.079v0.104v0.103  v0.226v0.226v0.226v0.227v0.103v0.103v0.121v0.121v0.084v0.184v0.184v0.084v0.083v0.184v0.184v0.084v0.121v0.122v0.135v0.136v0.094  v0.205v0.204v0.094v0.093v0.205v0.205v0.094v0.135v0.136v0.146v0.145v0.1v0.22v0.219v0.1v0.1v0.22v0.219v0.1v0.146v0.145v0.149v0.15  v0.103v0.227v0.227v0.103v0.103v0.227v0.227v0.103v0.149v0.15v0.149v0.149v0.104v0.226v0.227v0.104v0.103v0.227v0.226v0.104v0.149  v0.149v0.146v0.145v0.1v0.22v0.219v0.1v0.1v0.22v0.219v0.1v0.146v0.145v0.136v0.136v0.093v0.205v0.205v0.094v0.093v0.205v0.205  v0.093v0.136v0.136v0.121v0.122v0.083v0.184v0.184v0.084v0.083v0.184v0.184v0.084v0.121v0.122v0.103v0.103v0.226v0.226v0.227v0.226  v0.103v0.103v0.079v0.079v0.174v0.175v0.174v0.174v0.079v0.079v0.103v0.111v0.112v0.112v0.111v0.103v0.115v0.115h0.574l0.068,0.041  l0.069,0.042l0.098,0.058l0.097,0.059l0.098,0.059l0.098,0.059l0.095,0.057l0.104,0.063l0.104,0.062l0.104,0.063l0.104,0.063  l0.095,0.057l0.062,0.037l0.062,0.037l0.135,0.081l0.136,0.08l0.135,0.081l0.135,0.081l0.062,0.037l0.062,0.036l0.072,0.044  l0.073,0.043l0.159,0.096l0.16,0.096l0.159,0.096l0.16,0.097l0.072,0.043l0.073,0.044l0.081,0.048l0.081,0.049l0.179,0.106  l0.178,0.107l0.179,0.106l0.178,0.107l0.081,0.048l0.081,0.049l0.087,0.052l0.087,0.052l0.19,0.114l0.19,0.114l0.191,0.114  l0.19,0.114l0.087,0.053l0.087,0.052l0.089,0.054l0.09,0.054l0.196,0.117l0.197,0.118l0.197,0.118l0.196,0.118l0.09,0.054  l0.09,0.054l0.089,0.053l0.09,0.054l0.196,0.118l0.197,0.118l0.197,0.118l0.196,0.117l0.09,0.054l0.09,0.054l0.086,0.052  l0.087,0.052l0.19,0.115l0.191,0.113l0.19,0.114l0.19,0.115l0.087,0.052l0.087,0.052l0.081,0.049l0.081,0.048l0.179,0.107  l0.178,0.106l0.179,0.106l0.178,0.107l0.081,0.049l0.081,0.048l0.073,0.044l0.072,0.043l0.16,0.096l0.159,0.097l0.16,0.096  l0.16,0.095l0.072,0.044l0.072,0.044l0.062,0.036l0.062,0.037l0.135,0.081l0.136,0.081l0.135,0.08l0.135,0.081l0.062,0.037  l0.062,0.037l0.095,0.057l0.104,0.063l0.104,0.062l0.104,0.063l0.104,0.063l0.095,0.057l0.098,0.059l0.098,0.059l0.098,0.059  l0.097,0.058l0.069,0.042l0.069,0.041 M50.055,70.667l-0.157-0.009l-0.157-0.007l-0.108-0.006l-0.238-0.012l-0.238-0.012  l-0.108-0.006l-0.108-0.005L48.701,70.6l-0.238-0.012l-0.108-0.006l-0.158-0.008l-0.157-0.008l-0.156-0.023l-0.156-0.023  l-0.107-0.016l-0.236-0.035l-0.236-0.036l-0.107-0.016L46.931,70.4l-0.236-0.035l-0.236-0.035l-0.107-0.017l-0.156-0.023  l-0.156-0.023l-0.154-0.039l-0.153-0.038l-0.106-0.027l-0.232-0.059l-0.233-0.06l-0.105-0.026l-0.106-0.027l-0.232-0.059  l-0.233-0.06l-0.105-0.026l-0.154-0.039l-0.154-0.039l-0.15-0.055l-0.15-0.055l-0.104-0.037l-0.228-0.083l-0.228-0.082l-0.104-0.038  L43,69.381l-0.228-0.083l-0.228-0.082l-0.104-0.038l-0.15-0.055l-0.15-0.055l-0.146-0.07l-0.146-0.07l-0.1-0.048l-0.221-0.106  l-0.221-0.106l-0.101-0.048l-0.1-0.049l-0.221-0.105l-0.221-0.106l-0.101-0.048l-0.146-0.07l-0.146-0.07l-0.141-0.086l-0.14-0.086  l-0.097-0.059l-0.211-0.13l-0.212-0.13l-0.097-0.06l-0.096-0.059l-0.212-0.13l-0.212-0.13l-0.096-0.059l-0.141-0.086l-0.14-0.086  L38.35,66.97l-0.133-0.102l-0.092-0.069l-0.201-0.153l-0.201-0.154l-0.092-0.069l-0.091-0.069l-0.201-0.153l-0.201-0.154  l-0.092-0.069l-0.133-0.102l-0.133-0.102l-0.125-0.117l-0.124-0.116l-0.086-0.081l-0.189-0.177l-0.188-0.177l-0.086-0.081  l-0.086-0.08l-0.188-0.177l-0.188-0.178l-0.086-0.08l-0.125-0.117l-0.125-0.117l-0.112-0.129l-0.113-0.13l-0.077-0.089l-0.171-0.196  l-0.17-0.195l-0.078-0.089l-0.077-0.089l-0.171-0.196l-0.171-0.196l-0.077-0.089l-0.113-0.129l-0.112-0.13l-0.098-0.138  l-0.098-0.138l-0.067-0.096l-0.148-0.208l-0.147-0.209l-0.067-0.095l-0.067-0.095l-0.147-0.209l-0.147-0.209l-0.067-0.095  l-0.098-0.138l-0.099-0.138l-0.082-0.146l-0.083-0.146l-0.057-0.1l-0.125-0.22l-0.125-0.22l-0.058-0.1l-0.057-0.101l-0.125-0.22  l-0.125-0.219l-0.057-0.101l-0.083-0.145l-0.083-0.146l-0.067-0.151l-0.067-0.151l-0.047-0.104l-0.103-0.229l-0.103-0.229  l-0.046-0.104l-0.047-0.104l-0.103-0.229l-0.103-0.229l-0.046-0.104l-0.068-0.151l-0.067-0.151l-0.053-0.156l-0.053-0.156  l-0.036-0.107l-0.079-0.236l-0.08-0.236l-0.036-0.107l-0.036-0.107l-0.079-0.235l-0.08-0.236l-0.036-0.107l-0.053-0.156  l-0.053-0.156l-0.037-0.16l-0.038-0.159l-0.025-0.11l-0.058-0.241l-0.057-0.242l-0.025-0.109l-0.026-0.11l-0.057-0.241l-0.057-0.242  l-0.026-0.109l-0.037-0.16l-0.038-0.159l-0.022-0.163l-0.022-0.162l-0.016-0.111l-0.034-0.245l-0.033-0.245l-0.016-0.111  l-0.016-0.112l-0.034-0.245l-0.034-0.245l-0.016-0.111l-0.022-0.162l-0.022-0.163l-0.008-0.163l-0.008-0.163l-0.005-0.112  l-0.012-0.247l-0.011-0.247l-0.006-0.113l-0.005-0.112l-0.011-0.247l-0.012-0.247l-0.005-0.112l-0.008-0.163l-0.008-0.164  l0.008-0.163l0.008-0.163l0.005-0.112l0.011-0.247l0.012-0.247l0.005-0.113l0.006-0.112l0.011-0.247l0.012-0.247l0.005-0.112  l0.008-0.163l0.008-0.164l0.022-0.162l0.022-0.162l0.016-0.111l0.034-0.245l0.034-0.245l0.016-0.112l0.016-0.111l0.033-0.245  l0.034-0.245l0.016-0.112l0.022-0.162l0.022-0.162l0.038-0.159l0.037-0.16l0.026-0.109l0.057-0.242l0.057-0.241l0.026-0.11  l0.025-0.109l0.057-0.242l0.058-0.241l0.025-0.11l0.038-0.159l0.037-0.16l0.053-0.156l0.053-0.156l0.036-0.107l0.08-0.236  l0.079-0.236l0.036-0.106l0.036-0.107l0.08-0.236l0.079-0.236l0.036-0.107l0.053-0.156l0.053-0.156l0.067-0.151l0.068-0.151  l0.047-0.104l0.102-0.229l0.103-0.229l0.047-0.104l0.046-0.104l0.103-0.229l0.103-0.229l0.047-0.104l0.067-0.151l0.067-0.151  l0.083-0.146l0.083-0.145l0.057-0.101l0.125-0.22l0.125-0.219l0.057-0.101l0.058-0.1l0.125-0.22l0.125-0.22l0.057-0.1l0.083-0.146  l0.082-0.146l0.099-0.138l0.098-0.138l0.067-0.095l0.147-0.209l0.147-0.209l0.067-0.095l0.067-0.095l0.147-0.209l0.148-0.208  l0.067-0.096l0.098-0.138l0.098-0.138l0.112-0.13l0.113-0.129l0.077-0.089l0.171-0.196l0.171-0.196l0.077-0.089l0.078-0.089  l0.17-0.195l0.171-0.196l0.077-0.089l0.113-0.13l0.112-0.129l0.125-0.117l0.125-0.117l0.086-0.08l0.188-0.178l0.188-0.177  l0.086-0.08l0.086-0.081l0.188-0.177l0.189-0.177l0.086-0.081l0.124-0.117l0.125-0.116l0.133-0.102l0.133-0.102l0.092-0.07  l0.201-0.153l0.201-0.153l0.091-0.069l0.092-0.07l0.201-0.153l0.201-0.153l0.092-0.069l0.133-0.102l0.133-0.102l0.14-0.086  l0.141-0.086l0.096-0.059l0.212-0.13l0.212-0.13l0.096-0.059l0.097-0.06l0.212-0.13l0.211-0.13l0.097-0.059l0.14-0.086l0.141-0.086  l0.146-0.07l0.146-0.07l0.101-0.048l0.221-0.106l0.221-0.106l0.1-0.048l0.101-0.048l0.221-0.106l0.221-0.106l0.1-0.049l0.146-0.069  l0.146-0.07l0.15-0.055l0.15-0.055l0.104-0.038l0.228-0.082L43,28.306l0.104-0.037l0.104-0.038l0.228-0.082l0.228-0.083l0.104-0.037  l0.15-0.055l0.15-0.055l0.154-0.039l0.154-0.039l0.105-0.027l0.233-0.059l0.232-0.059l0.106-0.027l0.105-0.026l0.233-0.06  l0.232-0.059l0.106-0.027l0.153-0.039l0.154-0.039l0.156-0.022l0.156-0.024l0.107-0.016l0.236-0.035l0.236-0.035l0.108-0.017  l0.107-0.016l0.236-0.036l0.236-0.035l0.107-0.017l0.156-0.022l0.156-0.023l0.157-0.008l0.158-0.008l0.108-0.006l0.238-0.012  l0.237-0.012l0.108-0.005l0.108-0.006l0.238-0.012l0.238-0.012l0.108-0.006l0.157-0.008l0.157-0.008l0.158,0.008l0.157,0.008  l0.108,0.006l0.238,0.012l0.238,0.012l0.108,0.006l0.108,0.005l0.238,0.012l0.237,0.012l0.108,0.006l0.158,0.008l0.157,0.008  l0.156,0.023l0.156,0.022l0.107,0.017l0.236,0.035l0.236,0.036l0.107,0.016l0.108,0.017l0.236,0.035l0.236,0.035l0.107,0.016  l0.156,0.024l0.156,0.022l0.154,0.039l0.153,0.039l0.106,0.027l0.232,0.059l0.233,0.06l0.105,0.026l0.106,0.027l0.232,0.059  l0.233,0.059l0.105,0.027l0.154,0.039l0.154,0.039l0.15,0.055l0.15,0.055l0.104,0.037l0.228,0.083l0.228,0.082l0.104,0.038  l0.104,0.037l0.228,0.083l0.228,0.082l0.104,0.038l0.15,0.055l0.15,0.055l0.146,0.07l0.146,0.069l0.1,0.049l0.221,0.106l0.221,0.106  l0.101,0.048l0.1,0.048l0.221,0.106l0.221,0.106l0.101,0.048l0.146,0.07l0.146,0.07l0.141,0.086l0.14,0.086l0.097,0.059l0.211,0.13  l0.212,0.13l0.097,0.06l0.096,0.059l0.212,0.13l0.212,0.13l0.096,0.059l0.141,0.086l0.14,0.086l0.133,0.102l0.133,0.102l0.092,0.069  l0.201,0.153l0.201,0.153l0.091,0.07l0.092,0.069l0.201,0.153l0.201,0.153l0.092,0.07l0.133,0.102l0.133,0.102l0.125,0.116  l0.125,0.117l0.085,0.081l0.189,0.177l0.188,0.177l0.086,0.081l0.086,0.08l0.188,0.177l0.188,0.178l0.086,0.08l0.125,0.117  l0.125,0.117l0.112,0.129l0.113,0.13l0.077,0.089l0.171,0.196l0.171,0.195l0.077,0.089l0.077,0.089l0.171,0.196l0.171,0.196  l0.077,0.089l0.113,0.129l0.112,0.13l0.098,0.138l0.098,0.138l0.067,0.096l0.148,0.208l0.147,0.209l0.067,0.095l0.067,0.095  l0.147,0.209l0.148,0.209l0.066,0.095l0.098,0.138l0.099,0.138l0.082,0.146l0.083,0.146l0.057,0.1l0.125,0.22l0.125,0.22l0.058,0.1  l0.057,0.101l0.125,0.219l0.125,0.22l0.057,0.101l0.083,0.145l0.083,0.146l0.067,0.151l0.067,0.151l0.047,0.104l0.103,0.229  l0.103,0.229l0.046,0.104l0.047,0.104l0.103,0.229l0.103,0.229l0.046,0.104l0.068,0.151l0.067,0.151l0.053,0.156l0.053,0.156  l0.036,0.107l0.079,0.236l0.08,0.236l0.036,0.107l0.036,0.106L70,41.974l0.08,0.236l0.036,0.107l0.053,0.156l0.053,0.156l0.037,0.16  l0.038,0.159l0.025,0.11l0.057,0.241l0.058,0.242l0.025,0.109l0.026,0.11l0.057,0.241l0.057,0.242l0.025,0.109l0.038,0.16  l0.038,0.159l0.022,0.162l0.022,0.162l0.016,0.112l0.034,0.245l0.033,0.245l0.016,0.111l0.016,0.112l0.034,0.245l0.034,0.245  l0.016,0.111l0.022,0.162l0.022,0.162l0.008,0.164l0.008,0.163l0.005,0.112l0.012,0.247l0.011,0.247l0.006,0.112l0.005,0.112  l0.012,0.248l0.011,0.247l0.005,0.112l0.008,0.163l0.008,0.163l-0.008,0.164l-0.008,0.163l-0.005,0.112l-0.011,0.247l-0.012,0.247  l-0.005,0.112l-0.006,0.113l-0.011,0.247l-0.012,0.247l-0.005,0.112l-0.008,0.163l-0.008,0.163l-0.022,0.163l-0.022,0.162  l-0.016,0.111l-0.034,0.245l-0.034,0.245l-0.016,0.112l-0.016,0.111l-0.033,0.245l-0.034,0.245l-0.016,0.111l-0.022,0.162  l-0.022,0.163l-0.038,0.159l-0.038,0.16l-0.025,0.109l-0.057,0.242l-0.057,0.241l-0.026,0.11l-0.025,0.109l-0.058,0.242  l-0.057,0.241l-0.025,0.11l-0.038,0.159l-0.037,0.16l-0.053,0.156l-0.053,0.156l-0.036,0.107L70,55.713l-0.079,0.235l-0.036,0.107  l-0.036,0.107l-0.08,0.236l-0.079,0.236l-0.036,0.107l-0.053,0.156l-0.053,0.156l-0.067,0.151l-0.068,0.151l-0.046,0.104  l-0.103,0.229l-0.103,0.229l-0.047,0.104l-0.046,0.104l-0.103,0.229l-0.103,0.229l-0.047,0.104l-0.067,0.151l-0.067,0.151  l-0.083,0.146l-0.083,0.145l-0.057,0.101l-0.125,0.219l-0.125,0.22l-0.057,0.101l-0.058,0.1l-0.125,0.22l-0.125,0.22l-0.057,0.1  l-0.083,0.146l-0.082,0.146l-0.099,0.138l-0.098,0.138l-0.066,0.095l-0.148,0.209l-0.147,0.209l-0.067,0.095l-0.067,0.095  l-0.147,0.209l-0.148,0.208l-0.067,0.096l-0.098,0.138l-0.098,0.138l-0.112,0.13l-0.113,0.129l-0.077,0.089l-0.171,0.196  l-0.171,0.196l-0.077,0.089l-0.077,0.089l-0.171,0.195l-0.171,0.196l-0.077,0.089l-0.113,0.13l-0.112,0.129l-0.125,0.117  l-0.125,0.117l-0.086,0.08l-0.188,0.178l-0.188,0.177l-0.086,0.08l-0.086,0.081l-0.188,0.177l-0.189,0.177l-0.085,0.081  l-0.125,0.116l-0.125,0.117l-0.133,0.102l-0.133,0.102l-0.092,0.069l-0.201,0.154l-0.201,0.153l-0.092,0.069l-0.091,0.069  l-0.201,0.154l-0.201,0.153l-0.092,0.069l-0.133,0.102l-0.133,0.102l-0.14,0.086l-0.141,0.086l-0.096,0.059l-0.212,0.13l-0.212,0.13  l-0.096,0.059l-0.097,0.06l-0.212,0.13l-0.211,0.13l-0.097,0.059l-0.14,0.086l-0.141,0.086l-0.146,0.07l-0.146,0.07l-0.101,0.048  l-0.221,0.106l-0.221,0.105l-0.1,0.049l-0.101,0.048l-0.221,0.106l-0.221,0.106l-0.1,0.048l-0.146,0.07l-0.146,0.07l-0.15,0.055  l-0.15,0.055l-0.104,0.038l-0.228,0.082l-0.228,0.083l-0.104,0.037l-0.104,0.038l-0.228,0.082l-0.228,0.083l-0.104,0.037  l-0.15,0.055l-0.15,0.055l-0.154,0.039l-0.154,0.039l-0.105,0.026l-0.233,0.06l-0.232,0.059l-0.106,0.027l-0.105,0.026l-0.233,0.06  l-0.232,0.059l-0.106,0.027l-0.153,0.038l-0.154,0.039l-0.156,0.023l-0.156,0.023l-0.107,0.017l-0.236,0.035L53.18,70.4  l-0.108,0.017l-0.107,0.016l-0.236,0.036l-0.236,0.035l-0.107,0.016l-0.156,0.023l-0.156,0.023l-0.157,0.008l-0.158,0.008  l-0.108,0.006L51.41,70.6l-0.238,0.012l-0.108,0.005l-0.108,0.006l-0.238,0.012l-0.238,0.012l-0.108,0.006l-0.157,0.007   M54.553,97.283l4.52-0.652l4.451-1.087l4.351-1.522l4.216-1.956l4.046-2.391l3.845-2.826l3.607-3.261l3.261-3.607l2.825-3.845  l2.392-4.046l1.956-4.216l1.522-4.35l1.087-4.452l0.651-4.52L97.5,50l-0.218-4.553l-0.651-4.52l-1.087-4.451l-1.522-4.351  l-1.956-4.216l-2.392-4.046l-2.825-3.845l-3.261-3.607l-3.607-3.261l-3.845-2.825L72.09,7.935l-4.216-1.956l-4.351-1.522  l-4.451-1.087l-4.52-0.651L50,2.5l-4.553,0.218l-4.52,0.651l-4.452,1.087l-4.35,1.522L27.91,7.935l-4.046,2.392l-3.845,2.825  l-3.607,3.261l-3.261,3.607l-2.825,3.845L7.935,27.91l-1.956,4.216l-1.522,4.351l-1.087,4.451l-0.652,4.52L2.5,50l0.217,4.553  l0.652,4.52l1.087,4.452l1.522,4.35l1.956,4.216l2.392,4.046l2.825,3.845l3.261,3.607l3.607,3.261l3.845,2.826l4.046,2.391  l4.216,1.956l4.35,1.522l4.452,1.087l4.52,0.652L50,97.5L54.553,97.283z"/>
</svg>