<svg xmlns="http://www.w3.org/2000/svg" xmlns:xlink="http://www.w3.org/1999/xlink" version="1.1" id="Livello_1" x="0px" y="0px" width="100.0px" height="100px" viewBox="0 0 150 150" enable-background="new 0 0 150 150" xml:space="preserve">
<path d="M108.254,43.445c-1.192-0.149-2.399-0.233-3.62-0.233c-1.767,0-3.507,0.166-5.208,0.476  c1.333,11.054-2.223,22.591-10.688,31.057c-7.313,7.313-16.92,10.97-26.527,10.97s-19.214-3.656-26.528-10.97  c-14.628-14.629-14.628-38.429,0-53.057c7.313-7.314,16.921-10.971,26.528-10.971s19.214,3.657,26.527,10.971  c2.756,2.756,4.991,5.838,6.709,9.123c2.983-0.662,6.057-1.014,9.187-1.014c0.017,0,0.032,0.001,0.049,0.001  c-2.251-5.197-5.488-10.07-9.736-14.318C85.907,6.441,74.059,1.921,62.211,1.921S38.515,6.441,29.475,15.48  c-18.08,18.079-18.079,47.393,0,65.471c7.922,7.922,18.001,12.373,28.346,13.352v13.773l-14.479-0.001v8.779h14.479v18.393h8.778  l0.001-18.393h14.479v-8.777L66.6,108.076l0-13.773c10.345-0.979,20.423-5.43,28.346-13.352  C105.201,70.697,109.633,56.829,108.254,43.445z"/>
<g>
	<path d="M132.238,99.418c15.24-15.24,15.24-39.95,0-55.19c-7.619-7.62-17.607-11.43-27.595-11.43s-19.976,3.81-27.596,11.43   c-10.331,10.331-13.649,25.011-9.974,38.145c2.472-0.346,4.877-0.955,7.187-1.812c-3.056-10.694-0.386-22.694,8.021-31.1   c6.164-6.166,14.263-9.249,22.361-9.249c8.098,0,16.196,3.083,22.361,9.249c12.33,12.331,12.33,32.394,0,44.724   c-6.165,6.165-14.264,9.248-22.361,9.248c-8.099,0-16.197-3.083-22.361-9.248c-0.222-0.222-0.431-0.451-0.645-0.679   c-2.449,1.052-4.982,1.906-7.577,2.55c0.923,1.161,1.913,2.287,2.987,3.361c6.678,6.678,15.175,10.43,23.896,11.256v11.609H88.737   v7.4h12.206v15.504h7.399v-15.504h12.206v-7.398l-12.206-0.002l0.001-11.609C117.064,109.848,125.56,106.096,132.238,99.418z"/>
</g>
</svg>