<svg xmlns="http://www.w3.org/2000/svg" xmlns:xlink="http://www.w3.org/1999/xlink" version="1.1" id="Livello_1" x="0px" y="0px" width="100.0px" height="100px" viewBox="0 0 150 150" enable-background="new 0 0 150 150" xml:space="preserve">
<path d="M116.538,3.924h-45.6c-2.282,0-4.131,1.849-4.131,4.131s1.85,4.131,4.131,4.131h35.627L79.316,39.435  c-7.537-6.233-17.206-9.979-27.75-9.979c-24.063,0-43.571,19.508-43.571,43.571s19.508,43.571,43.571,43.571  s43.571-19.508,43.571-43.571c0-3.981-0.535-7.836-1.536-11.5c-2.412-0.786-4.959-1.201-7.573-1.201  c-0.505,0-1.006,0.021-1.506,0.051c1.514,3.93,2.353,8.193,2.353,12.65c0,19.47-15.839,35.309-35.309,35.309  S16.258,92.497,16.258,73.027s15.839-35.309,35.309-35.309c10.172,0,19.347,4.329,25.797,11.235c2.804-0.676,5.707-1.03,8.665-1.03  c0.391,0,0.779,0.016,1.168,0.028c-0.647-0.917-1.324-1.812-2.038-2.675l27.249-27.249v36.12c0,2.282,1.85,4.132,4.131,4.132  c2.282,0,4.132-1.85,4.132-4.132v-45.6c0-0.083-0.008-0.165-0.014-0.247c0.006-0.082,0.014-0.163,0.014-0.247  C120.67,5.773,118.82,3.924,116.538,3.924z"/>
<g>
	<path d="M86.028,50.924c-8.622,0-17.244,3.29-23.822,9.868c-11.914,11.914-13.038,30.53-3.375,43.71   c2.23-0.515,4.374-1.258,6.402-2.209c-9.121-10.716-8.63-26.865,1.489-36.984c5.322-5.322,12.313-7.983,19.305-7.983   s13.982,2.661,19.304,7.983c10.646,10.644,10.646,27.964,0,38.61c-5.321,5.321-12.313,7.982-19.304,7.982   c-2.488,0-4.975-0.344-7.387-1.018c-2.213,1.587-4.563,2.992-7.041,4.178c3.57,1.692,7.375,2.725,11.233,3.09v10.023l-10.537-0.002   v6.389h10.537v13.385h6.388v-13.385h10.536v-6.387H89.222l0.001-10.023c7.527-0.712,14.861-3.951,20.627-9.717   c13.157-13.156,13.157-34.486,0-47.643C103.271,54.214,94.649,50.924,86.028,50.924z"/>
</g>
</svg>