<svg xmlns="http://www.w3.org/2000/svg" xmlns:xlink="http://www.w3.org/1999/xlink" version="1.1" id="Layer_1" x="0px" y="0px" width="100px" height="100px" viewBox="0 0 100 100" enable-background="new 0 0 100 100" xml:space="preserve">
<g>
	<path d="M35.506,7.728c-0.358,1.49-1.22,5.102-1.499,6.52c-0.854,4.343-1.619,10.317,0.238,17.702   c2.125,8.453,4.238,16.338,5.181,21.879c1.456,8.555,2.883,25.324-2.563,34.615c-0.961,2.243-1.281,4.485,2.243,4.485h2.624   c0,0,15.855,0,19.379,0c3.523,0,3.204-2.242,2.243-4.485c-5.447-9.291-3.938-26.047-2.563-34.615   c0.888-5.531,3.102-14.932,4.833-21.879c1.84-7.389,1.369-13.344,0.586-17.702c-0.254-1.41-1.174-5.086-1.544-6.597   c-0.106-0.431-0.301-0.579-0.579-0.579c-6.717,0-21.359,0-27.905,0.058C35.876,7.132,35.604,7.319,35.506,7.728z"/>
</g>
</svg>