<svg xmlns="http://www.w3.org/2000/svg" xmlns:xlink="http://www.w3.org/1999/xlink" version="1.1" id="Layer_1" x="0px" y="0px" width="100px" height="100px" viewBox="0 0 100 100" enable-background="new 0 0 100 100" xml:space="preserve">
<g>
	<g>
		<path d="M65.961,71.565l1.598,0.095c25.666,0,17.576-37.128,17.014-41.264c-0.564-4.136-0.939-6.016-1.223-8.366    c0-3.76-3.407-5.005-4.888-5.076c-1.362-0.065-1.198,0.188-3.102,0c-4.552-0.451-9.776-0.563-9.776-0.563l-0.167-7.05    c0,0,0.354-0.846-0.772-0.846H17.363c-0.752,0-0.564,0.846-0.564,0.846L16.22,74.01c-0.282,3.666-0.188,4.712-0.188,4.712    s0.376,1.316-1.034,2.726c-1.41,1.41-2.661,6.084,2.726,6.957c1.095,0.177,1.581,0.096,2.068,0.281    c0.384,0.146,0.658,0.471,0.846,1.41c0.188,0.939,1.128,1.41,2.82,1.41s34.7-0.023,34.7-0.023c1.691,0,2.633-0.365,2.82-1.305    s0.454-1.285,0.846-1.41c0.496-0.158,0.587,0.002,2.068-0.281c5.359-1.024,4.135-5.547,2.726-6.956    c-1.41-1.41-1.034-2.727-1.034-2.727s0.151-0.944-0.188-4.605C65.113,71.144,65.961,71.565,65.961,71.565z M65.302,27.27    c0,0-0.333-1.317,1.613-2.928c0.616-0.439,1.376-1.461,4.556-1.56c0,0,3.322,0,4.318,0.732s1.898,0.877,2.468,3.61    c0.569,2.732,2.136,10.782,1.472,23.127c-0.048,1.317-1.092,7.709-4.841,12.345c-0.522,0.731-1.614,2.976-5.315,2.243    c-0.901-0.438-4.129-2.243-4.176-2.927C65.159,59.767,65.302,27.27,65.302,27.27z"/>
	</g>
</g>
</svg>