<svg xmlns="http://www.w3.org/2000/svg" xmlns:xlink="http://www.w3.org/1999/xlink" version="1.1" id="Layer_1" x="0px" y="0px" width="100px" height="100px" viewBox="0 0 100 100" enable-background="new 0 0 100 100" xml:space="preserve">
<g>
	<path d="M61.862,91.852L32.25,91.812l0.018-2.102c3.326,0,8.328-2.609,9.044-2.984c7.682-4.018,3.9-14.682,2.753-15.828   c-1.148-1.148-2.753-1.953-2.753-3.785C5.98,58.164,23.187,25.354,23.187,25.354l6.881-17.206h0.172h39.69l6.882,17.206   c0,0,17.207,32.81-18.125,41.759c0,1.832-1.604,2.637-2.751,3.785c-1.149,1.146-4.932,11.807,2.751,15.828   c1.171,0.613,5.698,2.984,9.025,2.984l0.039,2.141L32.25,91.812"/>
</g>
</svg>