<svg xmlns="http://www.w3.org/2000/svg" xmlns:xlink="http://www.w3.org/1999/xlink" version="1.1" id="Capa_1" x="0px" y="0px" width="48px" height="48px" viewBox="0 0 48 48" enable-background="new 0 0 48 48" xml:space="preserve">
<g id="Layer_1" display="none">
</g>
<g id="Layer_6" display="none">
	<path display="inline" stroke="#FFFFFF" d="M103,75c0,1.104-0.896,2-2,2H61c-1.104,0-2-0.896-2-2V54c0-1.104,0.896-2,2-2h40   c1.104,0,2,0.896,2,2V75z" fill="#000000"/>
	<path display="inline" stroke="#000000" d="M101,70.2c0,1.8,0,1.8-2,1.8H63c-2,0-2,0-2-1.8V55.8c0-1.8,0-1.8,2-1.8h36   c2,0,2,0,2,1.8V70.2z"/>
	<rect x="71" y="79" display="inline" stroke="#000000" width="20" height="1"/>
	<rect x="80" y="77" display="inline" stroke="#000000" width="2" height="1"/>
</g>
<path fill="#000000" d="M40.213,33.64v-1.401V13.349c0-0.594-0.479-1.075-1.07-1.075H8.906c-0.591,0-1.07,0.481-1.07,1.075v18.889  c0,0.001,0,0.001,0,0.001v1.4H3.11v1.406l0,0c0,0.375,0.305,0.68,0.68,0.68h40.484c0.375,0,0.679-0.305,0.679-0.68V33.64H40.213z   M38.918,32.365H9.067V13.601h29.851V32.365z"/>
</svg>