<svg xmlns="http://www.w3.org/2000/svg" xmlns:xlink="http://www.w3.org/1999/xlink" version="1.1" id="Capa_1" x="0px" y="0px" width="48px" height="48px" viewBox="0 0 48 48" enable-background="new 0 0 48 48" xml:space="preserve">
<g id="Layer_1" display="none">
</g>
<g id="Layer_6" display="none">
	<path display="inline" stroke="#FFFFFF" d="M103,75c0,1.104-0.896,2-2,2H61c-1.104,0-2-0.896-2-2V54c0-1.104,0.896-2,2-2h40   c1.104,0,2,0.896,2,2V75z" fill="#000000"/>
	<path display="inline" stroke="#000000" d="M101,70.2c0,1.8,0,1.8-2,1.8H63c-2,0-2,0-2-1.8V55.8c0-1.8,0-1.8,2-1.8h36   c2,0,2,0,2,1.8V70.2z"/>
	<rect x="71" y="79" display="inline" stroke="#000000" width="20" height="1"/>
	<rect x="80" y="77" display="inline" stroke="#000000" width="2" height="1"/>
</g>
<path fill="#000000" d="M42.345,30.972L42.345,30.972L41.747,22.2c-0.003,0-0.003,0-0.005-0.001  c-0.018-0.779-0.182-1.521-0.471-2.199v-0.001c-0.348-1.104-1.735-2.606-2.062-2.847c-0.328-0.24-0.379-0.386-0.502-1.063  c-0.234-1.404-0.605-2.249-1.078-2.257c0-0.857-1.849-0.905-2.409-0.898c-0.563-0.006-2.411,0.041-2.411,0.898  c-0.473,0.008-0.845,0.853-1.076,2.257c-0.037,0.199-0.067,0.349-0.1,0.472h-7.447H24h-0.098h-7.535  c-0.033-0.123-0.063-0.273-0.098-0.472c-0.234-1.404-0.604-2.249-1.079-2.257c0-0.857-1.849-0.905-2.409-0.898  c-0.562-0.006-2.41,0.041-2.41,0.898c-0.474,0.008-0.845,0.853-1.077,2.257c-0.124,0.677-0.175,0.823-0.502,1.063  c-0.328,0.241-1.716,1.743-2.063,2.847V20c-0.289,0.678-0.454,1.42-0.473,2.199c0,0.001-0.002,0.001-0.003,0.001l-0.599,8.772h0  c-0.003,0.071-0.006,0.145-0.006,0.215c0,2.143,1.736,3.88,3.879,3.88c1.382,0,2.596-0.724,3.282-1.812l0.001,0.002l2.12-3.141h0  c0.665,0.959,1.775,1.586,3.032,1.586c1.73,0,3.18-1.188,3.579-2.796H24h2.458c0.399,1.607,1.851,2.796,3.578,2.796  c1.259,0,2.368-0.627,3.032-1.586l0,0l2.121,3.141l0.003-0.002c0.687,1.089,1.898,1.812,3.28,1.812c2.143,0,3.88-1.737,3.88-3.88  C42.353,31.116,42.349,31.043,42.345,30.972z M13.869,23.666v3.051h-2.692v-3.051H8.16v-2.691h3.018v-2.982h2.692v2.982h3.018v2.691  H13.869z M17.958,30.369c-1.296,0-2.345-1.052-2.345-2.348s1.049-2.345,2.345-2.345s2.347,1.049,2.347,2.345  S19.253,30.369,17.958,30.369z M21.507,22.609c0,0.124-0.1,0.223-0.223,0.223h-1.155c-0.125,0-0.225-0.099-0.225-0.223V22.1  c0-0.124,0.101-0.224,0.225-0.224h1.155c0.124,0,0.223,0.1,0.223,0.224V22.609z M26.688,22.892v-1.073l1.65,0.536L26.688,22.892z   M30.036,30.369c-1.295,0-2.345-1.052-2.345-2.348s1.05-2.345,2.345-2.345c1.298,0,2.347,1.049,2.347,2.345  S31.334,30.369,30.036,30.369z M32.722,23.666c-0.742,0-1.346-0.603-1.346-1.346c0-0.743,0.604-1.346,1.346-1.346  c0.745,0,1.348,0.603,1.348,1.346C34.069,23.063,33.467,23.666,32.722,23.666z M35.738,26.69c-0.741,0-1.344-0.602-1.344-1.346  c0-0.742,0.603-1.345,1.344-1.345c0.744,0,1.347,0.603,1.347,1.345C37.085,26.089,36.482,26.69,35.738,26.69z M35.738,20.664  c-0.741,0-1.344-0.602-1.344-1.346c0-0.743,0.603-1.345,1.344-1.345c0.744,0,1.347,0.602,1.347,1.345  C37.085,20.062,36.482,20.664,35.738,20.664z M38.758,23.666c-0.745,0-1.346-0.603-1.346-1.346c0-0.743,0.601-1.346,1.346-1.346  c0.743,0,1.344,0.603,1.344,1.346C40.102,23.063,39.501,23.666,38.758,23.666z"/>
</svg>