<svg xmlns="http://www.w3.org/2000/svg" xmlns:xlink="http://www.w3.org/1999/xlink" version="1.1" id="Layer_1" x="0px" y="0px" width="100px" height="100px" viewBox="0 0 100 100" enable-background="new 0 0 100 100" xml:space="preserve">
<g>
	<g>
		<g>
			<rect x="57.763" y="8.39" transform="matrix(0.9491 0.315 -0.315 0.9491 12.5892 -17.1039)" width="2.907" height="44.021"/>
			<path d="M68.77,10.324c-0.272,0.817-1.218,1.24-2.114,0.943l-2.011-0.668c-0.896-0.297-1.402-1.2-1.131-2.019l0,0     c0.272-0.817,1.218-1.24,2.113-0.943l2.012,0.668C68.535,8.602,69.04,9.505,68.77,10.324L68.77,10.324z"/>
			<path d="M60.975,33.814c-0.271,0.818-1.217,1.24-2.111,0.943l-2.014-0.667c-0.895-0.298-1.4-1.202-1.129-2.019l0,0     c0.271-0.819,1.217-1.241,2.112-0.943l2.014,0.667C60.74,32.092,61.247,32.997,60.975,33.814L60.975,33.814z"/>
			<path d="M58.281,42.011c-0.271,0.818-1.218,1.241-2.113,0.944l-2.012-0.668c-0.896-0.297-1.401-1.2-1.13-2.019l0,0     c0.271-0.817,1.217-1.24,2.112-0.943l2.013,0.667C58.047,40.29,58.553,41.193,58.281,42.011L58.281,42.011z"/>
		</g>
		
			<ellipse transform="matrix(0.9282 0.3722 -0.3722 0.9282 22.7973 -15.668)" fill="#000000" cx="51.985" cy="51.22" rx="3.711" ry="2.73"/>
	</g>
	<g>
		<rect x="38.42" y="25.975" transform="matrix(0.9667 -0.256 0.256 0.9667 -8.276 11.2759)" width="1.507" height="22.904"/>
		<path d="M42.38,40.704c0.121,0.459-0.152,0.931-0.612,1.053l-2.705,0.717c-0.46,0.122-0.931-0.152-1.053-0.612l0,0    c-0.121-0.459,0.152-0.931,0.612-1.053l2.705-0.717C41.787,39.97,42.258,40.244,42.38,40.704L42.38,40.704z"/>
		
			<ellipse transform="matrix(0.9667 -0.2559 0.2559 0.9667 -11.0084 12.3901)" fill="#000000" cx="42.106" cy="48.496" rx="2.26" ry="1.037"/>
		<ellipse transform="matrix(0.9668 -0.2557 0.2557 0.9668 -5.5347 10.143)" cx="36.24" cy="26.357" rx="0.753" ry="0.807"/>
	</g>
	<path d="M29.504,59.595c0,0,2.905,0.969,3.767-0.968c0,0,1.83-12.691,14.315-10.974c0,0,8.395,1.417,13.669,7.595   c0,0,7.856,4.98,15.283-2.063c0,0,4.735-2.416,10.44-1.769c0,0,8.287,6.995,6.996,11.516c0,0-11.732,17.544-27.661,15.392   c0,0-16.683-1.076-22.495-13.454c0,0-2.368-10.332-6.027-3.444c0,0-1.076,2.583,0.861,3.337c0,0-4.198,1.507-5.92-0.108   C32.733,64.653,29.074,62.502,29.504,59.595z"/>
	<g>
		<g>
			<rect x="72.268" y="30.776" transform="matrix(0.9898 0.1421 -0.1421 0.9898 6.849 -10.042)" width="2.906" height="24.295"/>
			<path d="M78.171,31.262c-0.067,0.471-0.88,0.744-1.813,0.609l-2.099-0.301c-0.934-0.134-1.635-0.625-1.567-1.096l0,0     c0.066-0.471,0.88-0.744,1.813-0.61l2.099,0.302C77.537,30.3,78.238,30.791,78.171,31.262L78.171,31.262z"/>
			<path d="M76.228,44.782c-0.068,0.471-0.881,0.744-1.813,0.609l-2.1-0.302c-0.934-0.134-1.636-0.625-1.567-1.096l0,0     c0.067-0.471,0.879-0.744,1.812-0.608l2.1,0.301C75.592,43.821,76.295,44.312,76.228,44.782L76.228,44.782z"/>
			<path d="M75.573,49.499c-0.068,0.471-0.879,0.744-1.813,0.608l-2.098-0.301c-0.935-0.134-1.638-0.625-1.569-1.096l0,0     c0.067-0.471,0.879-0.744,1.812-0.609l2.099,0.302C74.938,48.538,75.641,49.028,75.573,49.499L75.573,49.499z"/>
		</g>
		<ellipse transform="matrix(0.9818 -0.1902 0.1902 0.9818 -9.0766 14.6897)" cx="72.003" cy="54.639" rx="1.453" ry="1.084"/>
	</g>
	<g>
		<g>
			<rect x="65.157" y="27.544" transform="matrix(0.99 0.1411 -0.1411 0.99 6.5033 -8.9874)" width="2.906" height="27.617"/>
			<path d="M71.281,28.037c-0.076,0.535-0.896,0.861-1.829,0.728l-2.099-0.299c-0.935-0.133-1.63-0.675-1.554-1.21l0,0     c0.077-0.535,0.896-0.861,1.829-0.728l2.1,0.299C70.661,26.96,71.357,27.502,71.281,28.037L71.281,28.037z"/>
			<path d="M69.089,43.409c-0.076,0.536-0.896,0.862-1.828,0.729l-2.101-0.3c-0.934-0.133-1.629-0.675-1.552-1.21l0,0     c0.075-0.536,0.895-0.862,1.829-0.729l2.1,0.299C68.471,42.332,69.165,42.874,69.089,43.409L69.089,43.409z"/>
			<path d="M68.35,48.771c-0.077,0.535-0.896,0.861-1.83,0.728L64.421,49.2c-0.934-0.133-1.629-0.675-1.554-1.211l0,0     c0.076-0.535,0.896-0.861,1.83-0.728l2.099,0.298C67.729,47.693,68.425,48.236,68.35,48.771L68.35,48.771z"/>
		</g>
		<ellipse transform="matrix(0.9922 0.125 -0.125 0.9922 7.4124 -7.6502)" cx="64.654" cy="55.229" rx="1.453" ry="1.086"/>
	</g>
	<g>
		<path d="M31.565,64.576c0,0-19.227,23.543-22.256,23.636c0,0,2.909,1.211,3.067,3.145c0,0,20.517-27.209,20.917-25.769    L31.565,64.576z"/>
		<ellipse transform="matrix(0.742 0.6704 -0.6704 0.742 63.6522 17.3328)" cx="9.309" cy="91.357" rx="5.435" ry="2.26"/>
	</g>
</g>
</svg>