<svg xmlns="http://www.w3.org/2000/svg" xmlns:xlink="http://www.w3.org/1999/xlink" xmlns:a="http://ns.adobe.com/AdobeSVGViewerExtensions/3.0/" version="1.1" x="0px" y="0px" width="100px" height="100px" viewBox="-6.968 -1.036 100 100" overflow="visible" enable-background="new -6.968 -1.036 100 100" xml:space="preserve">
<defs>
</defs>
<path d="M77.652,33.454C66.728,7.827,41.62-6.021,21.571,2.525C1.521,11.071-5.878,38.774,5.046,64.4  c10.923,25.628,36.031,39.476,56.08,30.931C81.178,86.785,88.575,59.082,77.652,33.454z M30.093,19.789  c-8.317,4.302-17.039,5.013-19.481,1.583c-2.442-3.428,1.91-10.387,10.226-14.689c8.317-4.303,17.449-4.32,19.891-0.892  C43.171,9.219,38.41,15.486,30.093,19.789z M73.676,75.921c0,0,3.938-32.755-21.543-57.992l2.899-3.328  C55.033,14.602,85.278,41.325,73.676,75.921z"/>
</svg>