<svg xmlns="http://www.w3.org/2000/svg" xmlns:xlink="http://www.w3.org/1999/xlink" version="1.0" id="Layer_1" x="0px" y="0px" width="100px" height="100px" viewBox="0 0 100 100" enable-background="new 0 0 100 100" xml:space="preserve">
<path d="M73.597,57.148l0.298-5.163l0.572-10.326l0.541-10.328c0.351-6.886,0.335-13.771,0.65-20.659  C75.671,10.377,75,10.074,75,9.844V9.842l-2.018-2.485c-0.137-0.144-0.133-0.251-0.332-0.308l-3.386-2.377  C69.144,4.589,68.869,4,68.834,4h-0.005l-4.896-0.99c-0.032-0.009-0.065,0.011-0.1,0.005C63.776,2.998,63.716,3,63.654,3h-0.003  l-8.695-1.242C54.913,1.752,53.949,2,53.949,2h-8.551c0,0-0.494-0.242-0.816-0.242l0,0l-7.797,1.265  c-0.234,0.031-0.446,0.151-0.613,0.301l-5.638,0.998c-0.37,0.064-0.675,0.311-0.83,0.636l-3.361,2.051  c-0.269,0.165-0.461,0.439-0.522,0.757L24.02,9.659C23.773,9.877,24,10.205,24,10.56v0.002c0,6.896,0.259,13.792,0.593,20.688  l0.32,10.342l0.459,10.342c0.285,5.208,0.534,10.417,0.841,15.625c-0.713,0.653-1.219,1.319-1.539,1.961  c-0.087,0.175-0.139,0.37-0.129,0.565L25.63,91.91c-0.02,0.1,0.124,1.698,0.229,1.958c0.215,0.525,0.439,0.87,0.698,1.14  c0.262,0.268,0.487,0.462,0.73,0.628c0.243,0.164,0.463,0.299,0.691,0.416c0.456,0.236,0.883,0.411,1.31,0.562  c0.427,0.153,0.84,0.279,1.253,0.39c0.825,0.224,1.632,0.392,2.437,0.533c0.803,0.145,1.6,0.256,2.395,0.347  c1.589,0.185,3.167,0.304,4.738,0.39c1.572,0.084,3.138,0.117,4.701,0.136c0.781,0.008,1.562,0.011,2.341,0.007  c0.78-0.008,1.559-0.021,2.338-0.036c3.112-0.062,6.23-0.209,9.353-0.488c3.121-0.299,6.244-0.692,9.368-1.574  c0.783-0.228,1.565-0.489,2.352-0.854c0.393-0.188,0.774-0.416,1.185-0.685c1.189-0.778,1.712-1.562,1.738-2.043l1.266-22.65  c0.011-0.198-0.031-0.396-0.119-0.573c-0.301-0.603-0.809-1.318-1.661-2.058l0.312-5.144L73.597,57.148z M68.144,36.6l0.541-10.329  l0.513-10.329l0.294-6.224c0.06-0.693,0.123-1.387,0.183-2.081l1.521,1.035c-0.286,6.678-0.554,13.357-0.806,20.036l-0.377,10.335  L69.665,49.38l-0.161,5.168l-0.146,5.17l-0.144,5.17l-0.012,0.357c-0.346-0.141-0.713-0.279-1.102-0.415  c-0.498-0.173-1.023-0.337-1.571-0.489c0.041-0.643,0.081-1.286,0.121-1.928l0.312-5.163l0.313-5.162l0.298-5.163L68.144,36.6z   M63.075,35.333l0.542-10.328c0.243-4.785,0.478-9.569,0.705-14.355c0.121-1.627,0.245-3.253,0.364-4.881l2.7,0.667l-0.391,9.407  l-0.405,10.333l-0.377,10.335L65.869,46.85l-0.163,5.168l-0.145,5.169l-0.146,5.17c-0.016,0.562-0.031,1.121-0.046,1.682  c-1.204-0.291-2.511-0.539-3.92-0.745l0.131-2.147l0.312-5.162l0.313-5.162l0.295-5.163L63.075,35.333z M54.463,59.996l0.154-5.139  l0.153-5.137l0.134-5.138l0.25-10.276l0.214-10.277c0.051-2.527,0.112-5.055,0.169-7.582l0.091-2.852l0.271-9.213l6.428,0.892  c-0.277,6.546-0.54,13.093-0.787,19.64l-0.377,10.335l-0.344,10.336l-0.162,5.169l-0.146,5.169l-0.146,5.168l-0.057,2.047  c-1.821-0.229-3.797-0.39-5.925-0.485l0.003-0.088L54.463,59.996z M53.5,4.588c-0.028,2.382-0.051,4.765-0.075,7.147l-0.049,1.796  l-0.26,10.484l-0.233,10.485l-0.205,10.487c-0.11,5.865-0.199,11.731-0.272,17.597c-0.916-0.023-1.858-0.034-2.825-0.034  c-0.83,0-1.632,0.007-2.41,0.023l-0.028-1.82l-0.083-5.237l-0.084-5.237l-0.101-5.238L46.65,34.568l-0.254-10.473  c-0.167-6.5-0.348-13.001-0.545-19.501L53.5,4.588z M43.4,4.495l0.155,9.259l0.197,10.277c0.142,6.852,0.293,13.703,0.471,20.554  c0.149,6.024,0.325,12.046,0.515,18.069c-1.939,0.087-3.7,0.228-5.297,0.413c-0.086-5.844-0.188-11.687-0.31-17.529L38.904,35.19  l-0.253-10.347l-0.279-10.347l-0.274-9.314L43.4,4.495z M35.84,5.699l0.282,8.867l0.353,10.345l0.379,10.342l0.407,10.343  c0.236,5.885,0.494,11.768,0.768,17.652c-1.475,0.207-2.797,0.454-3.983,0.734c-0.163-5.731-0.343-11.462-0.541-17.192  l-0.369-10.349l-0.396-10.348l-0.422-10.347l-0.404-9.349L35.84,5.699z M29.681,7.634l0.021,0.219l0.364,7.993l0.494,10.344  l0.521,10.343l0.549,10.341c0.315,5.825,0.648,11.65,1,17.475c-0.893,0.254-1.694,0.527-2.416,0.815  c-0.152-5.282-0.32-10.562-0.502-15.843l-0.369-10.35l-0.397-10.348l-0.424-10.347l-0.418-9.676L29.681,7.634z M27.193,51.85  l-0.374-10.349l-0.401-10.348c-0.269-6.717-0.555-13.434-0.853-20.15l0.354-0.314l0.349,7.687l0.494,10.343l0.52,10.343  l0.548,10.341c0.296,5.472,0.608,10.941,0.937,16.411c-0.399,0.201-0.765,0.409-1.102,0.619C27.52,61.572,27.357,56.71,27.193,51.85  z M71.051,93.749c-0.3,0.215-0.646,0.374-0.993,0.52c-0.698,0.295-1.436,0.51-2.179,0.693c-1.489,0.362-3.013,0.592-4.541,0.774  c-1.527,0.179-3.063,0.303-4.602,0.394c-3.077,0.182-6.161,0.237-9.245,0.232c-3.084-0.006-6.168-0.072-9.243-0.27  c-1.537-0.1-3.072-0.232-4.597-0.425c-1.523-0.196-3.044-0.444-4.517-0.845c-0.733-0.204-1.46-0.445-2.123-0.787  c-0.328-0.172-0.643-0.372-0.886-0.619c-0.087-0.088-0.267-0.261-0.186-0.447c0.213-0.347,1.42-1.391,4.702-2.353  c2.856-0.837,8.114-1.835,16.938-1.835c8.82,0,14.07,0.958,16.922,1.76c3.282,0.925,4.499,1.937,4.719,2.277  C71.296,92.987,71.703,93.281,71.051,93.749z M71.972,79.021l-0.014,0.263L71.355,90.05c-0.886-0.525-2.032-1.018-3.406-1.451  c-4.334-1.369-10.686-2.093-18.369-2.093c-9.698,0-15.348,1.183-18.38,2.175c-1.044,0.342-1.956,0.717-2.721,1.111  c-0.234,0.121-0.456,0.245-0.662,0.368l-0.263-5.275l-0.729-14.591c1.105-1.823,5.482-5.467,22.755-5.467  c7.676,0,13.655,0.725,17.772,2.154c3.303,1.146,4.6,2.481,5.107,3.304L71.972,79.021z M70.392,65.781l0.051-0.839l0.314-5.163  l0.312-5.162l0.296-5.162l0.572-10.326l0.54-10.328c0.309-6.044,0.603-12.088,0.884-18.132l0.37,0.386  c-0.289,6.728-0.558,13.455-0.812,20.184l-0.377,10.335L72.198,51.91l-0.164,5.168l-0.145,5.17l-0.121,4.311  C71.362,66.296,70.904,66.035,70.392,65.781z"/>
</svg>