<svg xmlns="http://www.w3.org/2000/svg" xmlns:xlink="http://www.w3.org/1999/xlink" version="1.1" id="Layer_1" x="0px" y="0px" width="100px" height="100px" viewBox="0 0 100 100" enable-background="new 0 0 100 100" xml:space="preserve">
<path d="M75.175,10.645H62.954v-0.043H25.94c-1.379,0-2.5-1.121-2.5-2.5h-1v46.084c0,1.93,1.57,3.5,3.5,3.5h8.694v0.041h40.54  c1.379,0,2.5,1.121,2.5,2.5h1V14.145C78.675,12.215,77.104,10.645,75.175,10.645z"/>
<path d="M80.962,6.35c-1.799,0-3.262,1.464-3.262,3.264v78.723c0,1.8,1.463,3.264,3.262,3.264c1.801,0,3.264-1.464,3.264-3.264  V9.613C84.226,7.813,82.763,6.35,80.962,6.35z M83.226,88.336c0,1.25-1.014,2.264-2.264,2.264c-1.248,0-2.262-1.014-2.262-2.264  V9.613c0-1.25,1.014-2.264,2.262-2.264c1.25,0,2.264,1.014,2.264,2.264V88.336z"/>
</svg>