<?xml version="1.0" encoding="utf-8"?>
<!-- Generator: Adobe Illustrator 14.0.0, SVG Export Plug-In . SVG Version: 6.00 Build 43363)  -->
<!DOCTYPE svg PUBLIC "-//W3C//DTD SVG 1.0//EN" "http://www.w3.org/TR/2001/REC-SVG-20010904/DTD/svg10.dtd">
<svg version="1.0" id="Layer_1" xmlns="http://www.w3.org/2000/svg" xmlns:xlink="http://www.w3.org/1999/xlink" x="0px" y="0px"
	 width="93.021px" height="100px" viewBox="0 0 93.021 100" enable-background="new 0 0 93.021 100" xml:space="preserve">
<path d="M59.361,2.885C37.217-4.218,23.59,4.033,23.59,4.033c17.088-1.49,68.521,10.695,56.367,48.565
	c-8.806,27.438-47.285,15.695-55.237,9.924l-5.608,7.875c0.009,0.009,0.005,0.005,0,0.001l-0.632,0.887
	c-1.53-0.602-3.401-0.028-4.479,1.485L1.526,90.288c-0.08,0.111-0.153,0.227-0.221,0.343c-0.082,0.101-0.166,0.199-0.242,0.306
	c-1.838,2.581-1.235,6.162,1.345,8s6.162,1.236,8-1.345c0.076-0.107,0.142-0.218,0.209-0.328c0.088-0.102,0.172-0.208,0.252-0.32
	l12.475-17.519c1.078-1.513,1.008-3.468-0.06-4.718l0.928-1.303c14.124,7.047,52.267,19.87,66.358-15.452
	C97.36,40.934,90.998,13.032,59.361,2.885z"/>
</svg>
