<svg xmlns="http://www.w3.org/2000/svg" xmlns:xlink="http://www.w3.org/1999/xlink" version="1.1" id="Layer_1" x="0px" y="0px" width="100px" height="100px" viewBox="0 0 100 100" enable-background="new 0 0 100 100" xml:space="preserve">
<path d="M73.967,59.977h-1c0-1.379-1.121-2.5-2.5-2.5h-40.54v-0.041h-8.694c-1.93,0-3.5-1.57-3.5-3.5V7.852h1  c0,1.378,1.121,2.5,2.5,2.5h37.014v0.043h12.221c1.93,0,3.5,1.57,3.5,3.5V59.977z M30.927,56.477h39.54  c0.979,0,1.865,0.403,2.5,1.053V13.895c0-1.378-1.121-2.5-2.5-2.5l-49.234-0.043c-0.979,0-1.864-0.403-2.5-1.053v43.637  c0,1.379,1.121,2.5,2.5,2.5L30.927,56.477z"/>
<path d="M76.254,6.1c-1.799,0-3.263,1.464-3.263,3.263v78.723c0,1.8,1.464,3.264,3.263,3.264c1.8,0,3.264-1.464,3.264-3.264V9.363  C79.518,7.563,78.054,6.1,76.254,6.1z"/>
</svg>