<svg xmlns="http://www.w3.org/2000/svg" xmlns:xlink="http://www.w3.org/1999/xlink" version="1.1" id="Layer_1" x="0px" y="0px" width="100px" height="100px" viewBox="0 0 100 100" enable-background="new 0 0 100 100" xml:space="preserve">
<g>
	<path d="M87.724,27.928C79.862,13.357,64.457,3.456,46.737,3.456C21.033,3.456,0.194,24.294,0.194,50   c0,25.706,20.839,46.544,46.545,46.544c17.715,0,33.12-9.898,40.985-24.469c7.266-4.657,12.082-12.802,12.082-22.074   C99.806,40.73,94.989,32.584,87.724,27.928z M86.175,71.17c-7.542,13.971-22.313,23.466-39.304,23.466   C22.221,94.636,2.238,74.65,2.238,50c0-24.651,19.983-44.634,44.633-44.634c16.992,0,31.765,9.495,39.304,23.467   C93.144,33.299,97.762,41.111,97.762,50C97.762,58.891,93.144,66.704,86.175,71.17z"/>
	<path d="M83.083,30.643c-0.086-0.157-0.185-0.306-0.27-0.461c-1.228-2.365-6.744-11.954-17.809-16.891l-0.007,0.019   c-5.398-2.632-11.45-4.128-17.859-4.128C24.595,9.182,6.321,27.456,6.321,50c0,22.545,18.274,40.818,40.818,40.818   c6.344,0,12.335-1.467,17.689-4.047l0.01,0.02c0.195-0.095,0.371-0.199,0.564-0.294c0.406-0.206,0.811-0.417,1.209-0.635   c0.381-0.207,0.752-0.417,1.116-0.63c0.406-0.237,0.806-0.48,1.2-0.73c0.324-0.207,0.643-0.416,0.955-0.626   c0.412-0.278,0.822-0.56,1.223-0.852c0.262-0.19,0.509-0.38,0.759-0.573c0.423-0.322,0.845-0.645,1.255-0.983   c0.168-0.141,0.32-0.281,0.486-0.422c0.7-0.598,1.381-1.218,2.04-1.863c0.279-0.271,0.561-0.541,0.822-0.81   c0.223-0.232,0.44-0.469,0.659-0.703c0.459-0.497,0.893-0.982,1.297-1.46c0.05-0.06,0.102-0.115,0.151-0.175   c3.114-3.721,4.508-6.676,4.508-6.676C89.456,65.277,93.681,58.132,93.681,50C93.681,41.87,89.456,34.726,83.083,30.643z    M74.548,27.851l-0.003,0.005l1.851,4.354c-1.145-1.932-2.062-2.513-2.062-2.513s-1.754,0.715-3.715,3.028   c0.796-1.634,1.678-3.741,1.622-4.942c-0.089-1.896-1.66-5.103-2.923-7.398c0.036,0.045,0.07,0.085,0.106,0.131   C70.999,22.497,72.851,25.567,74.548,27.851z M77.883,36.47c2.402,6.264,2.207,16.512,0.627,24.376   c-1.551,7.712-5.173,10.075-5.173,10.075c-1.433-1.453-2.586-2.934-3.534-4.423c-0.521-0.971-0.985-1.738-1.142-1.989   c-2.626-5.123-2.954-10.228-2.964-14.51c-0.016-5.947,1.545-11.299,3.771-15.075c1.85-3.138,4.833-4.775,4.833-4.775   C76.218,31.68,77.883,36.47,77.883,36.47z M64.207,85.267c-5.132,2.474-10.873,3.877-16.95,3.877   C25.639,89.144,8.114,71.619,8.114,50c0-21.619,17.525-39.143,39.142-39.143c6.182,0,12.017,1.45,17.216,4.001   c0.365,0.366,1.538,1.563,3.189,3.508c0.781,1.341,1.463,2.567,1.463,2.567c0.847,1.501,2.545,4.798,2.702,6.868   c0.137,1.833-2.441,6.578-2.441,6.578l0.002,0.027c-2.159,3.29-4.18,8.675-4.058,17.366c0.083,5.75,1.629,10.234,3.34,13.458v0.004   c0,0,0.013,0.021,0.035,0.057c0.191,0.362,0.387,0.701,0.581,1.031c0.768,1.41,1.976,3.838,1.939,5.094   c-0.06,2.076-1.596,5.45-2.372,6.988c0,0-1.398,2.817-2.423,4.643C65.219,84.348,64.387,85.108,64.207,85.267z M69.424,79.567   c-0.639,0.804-1.241,1.517-1.799,2.157c0.053-0.095,4.017-7.135,4.017-10.308c0-0.701-0.32-1.685-0.754-2.692   c1.354,1.793,2.423,2.692,2.423,2.692c1.277-0.959,2.318-2.258,3.171-3.777l-0.188,0.524l-1.706,4.012   C72.878,74.464,71.013,77.568,69.424,79.567z M83.158,67.554c0.168-4.371,0.49-15.19-0.458-15.19c-0.961,0-1.1,6.114-1.089,13.09   c0.004,2.169-0.168,3.416-0.461,4.097c-0.079,0.138-0.159,0.276-0.243,0.413c-0.59,0.684-1.493-0.028-2.493-0.613   c-0.723-0.422-1.687,0.271-2.76,1.497c0.849-1.876,1.648-4.521,1.978-5.671c3.483-8.982,2.214-22.55,1.729-24.762   c-0.493-2.239-1.061-4.027-1.632-5.457c-0.492-1.64-1.392-4.415-2.26-5.927c1.149,1.359,2.182,2.149,2.945,1.702   c1.747-1.024,3.207-2.447,3.197,3.896c-0.011,6.977,0.128,13.089,1.089,13.089c0.954,0,0.623-10.956,0.455-15.272   c5.302,4.022,8.73,10.385,8.73,17.555C91.886,57.171,88.461,63.53,83.158,67.554z"/>
</g>
</svg>