<svg xmlns="http://www.w3.org/2000/svg" xmlns:xlink="http://www.w3.org/1999/xlink" version="1.1" id="Layer_1" x="0px" y="0px" width="16.359px" height="100px" viewBox="0 0 16.359 100" enable-background="new 0 0 16.359 100" xml:space="preserve">
<path d="M14.742,21.789c2.864-6.74,2.623-21.653-6.531-21.653c-9.041,0-9.517,14.913-6.652,21.653  c2.869,6.738,3.64,10.871,4.082,12.886c0.443,2.013-0.007,8.183-0.007,8.183C5.33,46.876,4.198,94.5,4.023,96.766  c-0.149,1.866,0.182,3.064,4.065,3.331v0.012c0.021-0.001,0.04-0.003,0.061-0.006c0.021,0.003,0.04,0.005,0.062,0.006v-0.012  c3.885-0.267,4.214-1.465,4.065-3.331c-0.174-2.266-1.307-49.889-1.609-53.907c0,0-0.449-6.17-0.007-8.183  C11.101,32.66,11.872,28.527,14.742,21.789z M5.113,20.23c-0.308-0.002-0.558-0.332-0.557-0.739L4.555,9.265  C4.556,8.858,4.804,8.528,5.11,8.528c0.309,0,0.558,0.33,0.558,0.737L5.67,19.49C5.67,19.9,5.421,20.23,5.113,20.23z M11.197,20.221  c-0.308-0.002-0.558-0.332-0.557-0.739L10.639,9.255c0.001-0.407,0.248-0.737,0.555-0.737c0.309,0,0.557,0.33,0.557,0.737  l0.003,10.226C11.753,19.891,11.505,20.221,11.197,20.221z M7.645,8.843c-0.002-0.451,0.249-0.814,0.558-0.81  c0.309,0,0.553,0.366,0.553,0.814L8.693,20.132c0,0.451-0.253,0.813-0.562,0.81c-0.306,0.001-0.553-0.366-0.55-0.817L7.645,8.843z   M8.239,94.334c-0.693,0.014-1.265-0.535-1.278-1.227c-0.014-0.693,0.532-1.267,1.224-1.28c0.691-0.013,1.263,0.535,1.276,1.229  C9.478,93.746,8.93,94.319,8.239,94.334z"/>
</svg>