<svg xmlns="http://www.w3.org/2000/svg" xmlns:xlink="http://www.w3.org/1999/xlink" version="1.1" id="Layer_1" x="0px" y="0px" width="100px" height="100px" viewBox="0 0 100 100" enable-background="new 0 0 100 100" xml:space="preserve">
<path d="M87.592,14.865h-9.756c-0.067-2.332-0.375-4.088-0.375-4.088h-4.266V4.822h5.555c1.056,0,1.91-1.094,1.91-2.443  c0-1.349-0.854-2.443-1.91-2.443H62.575c-1.056,0-1.91,1.095-1.91,2.443c0,1.35,0.854,2.443,1.91,2.443h5.822v5.955h-4.8  c0,0-0.297,1.756-0.314,4.088h-5.314c0,0-6.281,0.077-8.649,1.54c-2.58,1.597-4.311,3.117-4.222,13.223h8.252v-4.929  c0,0-0.237-1.599,2.915-1.658c1.047-0.02,4.479-0.026,8.712-0.027c1.15,1.982,3.035,3.404,6.087,3.404  c2.751,0,4.422-1.419,5.42-3.396c6.062,0.008,11.108,0.02,11.108,0.02V14.865z"/>
<g>
	<path d="M52.887,33.676c0.442,0.999-0.309,1.956-1.252,1.918c-0.944-0.039-1.618-1.052-1.098-2.01   c0.535-0.992,0.945-1.347,1.271-2.376C52.055,32.261,52.434,32.647,52.887,33.676z"/>
	<path d="M47.947,45.14c0.441,0.998-0.309,1.954-1.253,1.916s-1.616-1.052-1.098-2.01c0.536-0.993,0.945-1.347,1.272-2.377   C47.115,43.725,47.493,44.11,47.947,45.14z"/>
	<path d="M52.887,43.328c0.442,0.998-0.309,1.955-1.252,1.917c-0.944-0.038-1.618-1.051-1.098-2.01   c0.535-0.993,0.945-1.346,1.271-2.377C52.055,41.914,52.434,42.299,52.887,43.328z"/>
	<path d="M47.947,33.678c0.441,0.998-0.31,1.954-1.254,1.916c-0.943-0.038-1.616-1.05-1.097-2.01   c0.535-0.992,0.944-1.346,1.271-2.376C47.115,32.262,47.493,32.648,47.947,33.678z"/>
	<path d="M50.068,39.048c0.442,0.998-0.309,1.955-1.254,1.917c-0.942-0.038-1.615-1.052-1.096-2.011   c0.534-0.99,0.944-1.346,1.271-2.376C49.236,37.632,49.614,38.019,50.068,39.048z"/>
</g>
<path d="M74.196,70.988c-1.043-1.071-2.943-0.913-4.244,0.353l-8.425,8.196c0,0-1.346,1.131-1.999,0.183  c-0.471-0.687,0.383-1.698,1.054-2.372c0.035-0.033,0.076-0.058,0.11-0.093l12.271-12.086c1.348-1.327,1.59-3.269,0.541-4.333  c-1.049-1.065-2.992-0.852-4.34,0.477L57.431,72.871c-0.031,0.026-0.831,1.051-1.542,1.052c-0.566,0.197-1.355-0.75-1.046-1.428  c0.362-0.783,1.166-1.481,2.12-2.423L67.899,59.3c1.332-1.314,1.562-3.24,0.513-4.305c-1.049-1.065-2.978-0.863-4.31,0.447  L51.979,67.384c-0.06,0.06-0.105,0.125-0.16,0.186c-0.791,0.743-2.104,1.857-2.763,1.359c-1.076-0.809-0.673-1.494,0.903-3.05  l10.414-10.257c1.294-1.273,1.491-3.171,0.443-4.235c-1.049-1.066-2.947-0.896-4.241,0.378l-11.776,11.6  c-0.074,0.074-0.132,0.157-0.2,0.233c-1.885,1.886-4.95,4.891-5.968,5.551l-0.234-0.361l0.874-7.392  c0.213-1.805-0.817-3.41-2.301-3.584c-1.484-0.176-2.861,1.144-3.074,2.946l-1.089,9.208c-1.883-0.16-3.365-1.72-3.365-3.645  c0-0.859,0.308-1.641,0.805-2.267c-1.569-0.419-2.732-1.836-2.732-3.537c0-1.76,1.236-3.228,2.891-3.586  c-0.099-0.331-0.166-0.673-0.166-1.035c0-2.03,1.644-3.673,3.672-3.673c1.538,0,2.85,0.946,3.397,2.286  c0.641-1.079,1.806-1.813,3.151-1.813c0.482,0,0.94,0.098,1.361,0.267c0.11-1.93,1.695-3.465,3.652-3.465  c1.909,0,3.463,1.463,3.638,3.326c0.666-0.664,1.584-1.075,2.599-1.075c1.104,0,2.082,0.496,2.754,1.266  c0.082-1.954,1.683-3.517,3.658-3.517c0.572,0,1.105,0.141,1.588,0.375c-0.508-0.948-1.652-1.614-2.992-1.619L40.188,48.19  c-0.104,0-0.203,0.015-0.307,0.022c-3.025,0.011-8.15-0.022-8.449-0.377l6.221-4.94c1.422-1.13,1.82-2.994,0.892-4.164  c-0.93-1.17-2.835-1.204-4.258-0.074l-7.509,5.964l-11.753,8.636l-2.699-0.054l0.067,18.948l3.708-0.014c0,0,2.775,3.35,3.72,3.534  c0.551,0.108,6.84,0.488,11.979,0.788l-1.288,8.229l-1.953,1.865l13.399,13.399l2.621-2.622c0,0,4.329,0.421,5.128-0.114  c0.561-0.373,7.263-6.29,11.227-9.799c0.333-0.172,0.656-0.389,0.946-0.672l11.846-11.526  C75.028,73.953,75.238,72.059,74.196,70.988z"/>
<path fill="#000000" d="M76.006,58.791"/>
</svg>