<svg xmlns="http://www.w3.org/2000/svg" xmlns:xlink="http://www.w3.org/1999/xlink" version="1.1" id="Layer_1" x="0px" y="0px" width="59.306px" height="63.347px" viewBox="0 0 59.306 63.347" enable-background="new 0 0 59.306 63.347" xml:space="preserve">
<path d="M19.004,54.141c0,0-4.299-3.143-0.992-8.931c3.307-5.787,2.976-10.582,1.984-12.566c-0.992-1.984-0.661-6.118,5.622-5.125  s4.133-3.472,8.102-1.984c3.968,1.488,2.812,5.787,8.928,8.267c6.117,2.48-0.331,12.731,0.661,16.038  c0.992,3.309,4.135,5.457,3.804,8.93c-0.332,3.473-6.283,6.447-10.581,1.324c-4.299-5.127-0.166-10.089-4.96-11.412  C26.775,47.36,25.949,58.109,19.004,54.141z"/>
<path d="M1.148,32.479c0,0-1.488,1.984-0.661,3.307c0.827,1.322,1.323,4.959,1.819,5.787s3.472,2.315,5.456,2.315  c1.984,0,3.141,0.661,4.794,0.165c1.654-0.496-5.291-10.747-8.101-10.581C1.644,33.636,2.966,32.148,1.148,32.479z"/>
<path d="M6.439,4.537c0,0-2.149-0.496-2.315,0.827c-0.13,1.038,1.654,5.125,1.488,7.771c-0.079,1.256,0,3.141,1.819,3.968  c1.819,0.827,3.968,3.637,4.464,3.968c0.496,0.331,3.307,4.465,4.464,4.299c1.157-0.166,1.818-2.646,0.165-4.464  s-1.654-6.613-2.976-9.424S7.762,4.537,6.439,4.537z"/>
<path d="M31.075,21.401c0,0,1.488,0.496,1.984-2.48c0.219-1.315,0.991-8.929,2.313-10.086c1.323-1.157,0.166-7.771-0.992-8.763  c-1.157-0.992-7.439,8.432-7.109,11.077c0.331,2.646,2.315,0.151,2.315,8.929C29.586,21.401,31.075,21.401,31.075,21.401z"/>
<path d="M43.805,28.511c0,0,0.89-9.011,0.828-10.085c-0.043-0.739,5.291-7.275,6.283-6.944c0.992,0.331-0.89,12.958-5.126,17.195  C43.476,30.991,43.805,28.511,43.805,28.511z"/>
<path d="M48.932,40.25c0,0-0.124,0.84,1.321,1.322c0.496,0.166,7.192-3.06,8.184-8.845c0.992-5.787,0.703-5.291-0.08-5.043  c0,0-3.287,1.323-5.105,3.968c-1.82,2.645-2.973,4.605-3.494,5.788C49.22,38.658,49.096,38.658,48.932,40.25z"/>
</svg>