<?xml version="1.0" encoding="utf-8"?>
<!-- Generator: Adobe Illustrator 14.0.0, SVG Export Plug-In . SVG Version: 6.00 Build 43363)  -->
<!DOCTYPE svg PUBLIC "-//W3C//DTD SVG 1.0//EN" "http://www.w3.org/TR/2001/REC-SVG-20010904/DTD/svg10.dtd">
<svg version="1.0" id="Layer_1" xmlns="http://www.w3.org/2000/svg" xmlns:xlink="http://www.w3.org/1999/xlink" x="0px" y="0px"
	 width="100px" height="91.558px" viewBox="0 0 100 91.558" enable-background="new 0 0 100 91.558" xml:space="preserve">
<path d="M98.969,83.004L84.561,68.167c1.203-1.223,2.383-2.581,3.536-4.084c10.1-13.172,11.406-39.066-13.688-55.687
	C56.842-3.238,42.932,0.61,42.932,0.61c15.267,2.898,57.125,26.158,37.223,56.197c-0.937,1.413-1.942,2.65-3.004,3.729
	L45.581,28.024l11.486-11.071l-19.868-3.85L17.473,32.259l11.465,11.807l8.946-8.623l29.717,30.602
	c-15.086,3.839-33.854-8.836-38.052-14.153l-6.825,5.49c0.006,0.01,0.003,0.005,0,0L21.955,58c-1.187-0.9-2.959-0.86-4.271,0.195
	L2.502,70.406c-0.097,0.078-0.189,0.16-0.276,0.245c-0.096,0.067-0.193,0.133-0.286,0.207c-2.237,1.799-2.592,5.07-0.793,7.307
	c1.799,2.236,5.07,2.592,7.307,0.793c0.093-0.074,0.177-0.155,0.263-0.235c0.102-0.066,0.202-0.139,0.299-0.217l15.182-12.212
	c1.311-1.055,1.73-2.776,1.106-4.129l1.129-0.908c8.658,7.864,30.382,23.047,49.478,13.349L91.3,90.451
	c1.404,1.446,3.715,1.479,5.161,0.076l2.432-2.361C100.339,86.76,100.373,84.45,98.969,83.004z"/>
</svg>
