<svg xmlns="http://www.w3.org/2000/svg" xmlns:xlink="http://www.w3.org/1999/xlink" version="1.1" id="Layer_1" x="0px" y="0px" width="100px" height="100px" viewBox="25 25 100 100" enable-background="new 25 25 100 100" xml:space="preserve">
<g>
	<path d="M71.952,93.715c-1.523-0.258-2.953,0.762-3.212,2.275l-0.078,0.457c-0.259,1.516,0.76,2.953,2.274,3.212   c0.159,0.026,0.316,0.04,0.472,0.04c1.331,0,2.509-0.959,2.74-2.314l0.078-0.458C74.485,95.412,73.467,93.975,71.952,93.715z"/>
	<path d="M57.595,88.307l-0.331,0.324c-1.098,1.076-1.116,2.838-0.041,3.936c0.545,0.558,1.267,0.836,1.988,0.836   c0.703,0,1.405-0.264,1.947-0.795l0.331-0.323c1.098-1.076,1.116-2.839,0.041-3.937C60.454,87.25,58.692,87.232,57.595,88.307z"/>
	<path d="M53.099,75.535l-0.459,0.068c-1.521,0.225-2.57,1.64-2.346,3.16c0.204,1.381,1.393,2.375,2.749,2.375   c0.136,0,0.273-0.01,0.411-0.029l0.459-0.067c1.521-0.226,2.57-1.642,2.346-3.16C56.035,76.359,54.614,75.312,53.099,75.535z"/>
	<path d="M53.979,67.278l0.411,0.215c0.412,0.215,0.853,0.317,1.287,0.317c1.003,0,1.972-0.544,2.469-1.494   c0.711-1.362,0.185-3.043-1.178-3.755l-0.411-0.215c-1.363-0.712-3.043-0.185-3.756,1.177   C52.09,64.885,52.616,66.566,53.979,67.278z"/>
	<path d="M62.736,56.811c0.485,0.979,1.472,1.547,2.495,1.547c0.415,0,0.837-0.093,1.234-0.29c1.377-0.683,1.939-2.353,1.257-3.729   l-0.206-0.416c-0.682-1.377-2.351-1.938-3.729-1.257c-1.377,0.683-1.939,2.353-1.257,3.729L62.736,56.811z"/>
	<path d="M78.052,56.287c0.156,0.026,0.313,0.039,0.466,0.039c1.334,0,2.512-0.961,2.741-2.32l0.077-0.457   c0.256-1.516-0.766-2.952-2.281-3.208c-1.517-0.259-2.951,0.766-3.207,2.281l-0.076,0.457   C75.516,54.595,76.536,56.031,78.052,56.287z"/>
	<path d="M92.734,61.368c1.098-1.076,1.113-2.838,0.037-3.936c-1.076-1.098-2.838-1.114-3.935-0.038l-0.331,0.325   c-1.098,1.076-1.113,2.838-0.038,3.936c0.546,0.556,1.267,0.834,1.986,0.834c0.703,0,1.407-0.265,1.948-0.796L92.734,61.368z"/>
	<path d="M99.706,71.236c-0.226-1.521-1.646-2.57-3.16-2.346l-0.459,0.068c-1.521,0.225-2.569,1.64-2.346,3.16   c0.204,1.382,1.393,2.376,2.749,2.376c0.136,0,0.273-0.01,0.41-0.03l0.459-0.068C98.881,74.171,99.932,72.757,99.706,71.236z"/>
	<path d="M96.021,82.721l-0.41-0.215c-1.363-0.711-3.043-0.184-3.756,1.178c-0.711,1.362-0.186,3.043,1.178,3.756l0.41,0.215   c0.412,0.216,0.854,0.316,1.287,0.316c1.004,0,1.973-0.544,2.47-1.494C97.911,85.114,97.385,83.434,96.021,82.721z"/>
	<path d="M87.264,93.189c-0.683-1.375-2.352-1.938-3.729-1.256c-1.377,0.682-1.939,2.352-1.258,3.729l0.207,0.416   c0.484,0.979,1.472,1.547,2.494,1.547c0.416,0,0.838-0.094,1.234-0.29c1.377-0.683,1.939-2.353,1.258-3.729L87.264,93.189z"/>
</g>
<path d="M85.523,75.57c0.399,0.221,0.854,0.35,1.332,0.35c0.136,0,0.272-0.01,0.41-0.029l0.459-0.068  c1.521-0.225,2.57-1.64,2.346-3.16c-0.223-1.52-1.646-2.567-3.159-2.346l-0.459,0.068c-0.745,0.11-1.375,0.509-1.8,1.063  c-0.469-0.252-1.01-0.377-1.571-0.328c0.496-0.517,0.748-1.179,0.769-1.847c0.582-0.074,1.146-0.32,1.598-0.763l0.33-0.325  c1.099-1.076,1.115-2.838,0.039-3.936s-2.84-1.114-3.936-0.038l-0.331,0.325c-0.536,0.526-0.811,1.216-0.829,1.913  c-0.527,0.071-1.039,0.289-1.465,0.661c0.098-0.708-0.088-1.391-0.463-1.942c0.428-0.401,0.738-0.934,0.844-1.557l0.077-0.458  c0.257-1.516-0.766-2.952-2.28-3.207c-1.529-0.257-2.952,0.766-3.208,2.281l-0.077,0.458c-0.125,0.74,0.059,1.46,0.452,2.034  c-0.385,0.367-0.671,0.845-0.797,1.398c-0.338-0.631-0.889-1.076-1.517-1.301c0.109-0.576,0.049-1.188-0.231-1.753l-0.206-0.416  c-0.683-1.376-2.352-1.938-3.729-1.257c-1.377,0.683-1.939,2.353-1.257,3.729l0.206,0.416c0.334,0.673,0.912,1.134,1.568,1.368  c-0.1,0.528-0.054,1.087,0.171,1.614c-0.643-0.312-1.35-0.347-1.99-0.16c-0.25-0.531-0.659-0.992-1.219-1.284l-0.411-0.215  c-1.362-0.711-3.043-0.184-3.756,1.177c-0.711,1.362-0.185,3.043,1.178,3.755l0.411,0.215c0.412,0.215,0.853,0.317,1.287,0.317  c0.269,0,0.533-0.045,0.789-0.121c0.229,0.48,0.595,0.901,1.081,1.192c-0.705,0.126-1.298,0.514-1.707,1.042  c-0.514-0.282-1.115-0.414-1.738-0.323l-0.459,0.068c-1.521,0.225-2.57,1.639-2.346,3.16c0.204,1.384,1.393,2.377,2.749,2.377  c0.136,0,0.273-0.01,0.411-0.03l0.459-0.067c0.742-0.11,1.368-0.507,1.792-1.056c0.399,0.217,0.851,0.346,1.326,0.346  c0.082,0,0.166-0.012,0.249-0.02c-0.492,0.518-0.743,1.176-0.764,1.842c-0.583,0.072-1.148,0.319-1.6,0.764l-0.331,0.324  c-1.098,1.076-1.114,2.839-0.038,3.936c0.545,0.557,1.266,0.834,1.986,0.834c0.703,0,1.407-0.264,1.948-0.795l0.331-0.325  c0.536-0.524,0.81-1.216,0.829-1.911c0.528-0.07,1.04-0.289,1.467-0.662c-0.097,0.709,0.088,1.392,0.462,1.941  c-0.427,0.4-0.738,0.936-0.843,1.559l-0.077,0.457c-0.256,1.517,0.766,2.951,2.281,3.207c0.157,0.026,0.313,0.039,0.466,0.039  c1.334,0,2.512-0.961,2.741-2.32l0.076-0.457c0.125-0.742-0.059-1.465-0.455-2.039c0.384-0.367,0.675-0.842,0.802-1.396  c0.339,0.63,0.892,1.064,1.518,1.291c-0.111,0.579-0.054,1.195,0.229,1.765l0.207,0.416c0.484,0.979,1.472,1.547,2.494,1.547  c0.416,0,0.838-0.094,1.234-0.29c1.377-0.683,1.939-2.353,1.258-3.729l-0.207-0.416c-0.334-0.675-0.906-1.15-1.564-1.383  c0.096-0.523,0.046-1.079-0.178-1.602c0.39,0.189,0.801,0.289,1.209,0.289c0.269,0,0.531-0.045,0.787-0.121  c0.25,0.527,0.658,0.986,1.217,1.277l0.41,0.215c0.412,0.217,0.854,0.317,1.287,0.317c1.004,0,1.973-0.545,2.469-1.494  c0.711-1.362,0.186-3.044-1.178-3.756l-0.41-0.215c-0.666-0.349-1.408-0.396-2.078-0.198c-0.229-0.479-0.596-0.898-1.08-1.188  C84.523,76.482,85.115,76.098,85.523,75.57z"/>
</svg>