<svg xmlns="http://www.w3.org/2000/svg" xmlns:xlink="http://www.w3.org/1999/xlink" version="1.1" id="Layer_1" x="0px" y="0px" width="100px" height="100px" viewBox="25 25 100 100" enable-background="new 25 25 100 100" xml:space="preserve">
<path d="M83.835,103.546c-1.118,0-2.148-0.737-2.469-1.864l-2.462-8.646c-0.39-1.363,0.401-2.784,1.766-3.174  c1.362-0.39,2.784,0.404,3.173,1.767l2.462,8.646c0.388,1.364-0.405,2.785-1.768,3.174  C84.304,103.512,84.067,103.546,83.835,103.546z"/>
<path d="M66.881,103.776c-0.293,0-0.592-0.051-0.882-0.157c-1.332-0.487-2.018-1.962-1.529-3.293l3.089-8.441  c0.488-1.331,1.967-2.015,3.293-1.527c1.332,0.486,2.018,1.962,1.529,3.294l-3.09,8.438  C68.911,103.131,67.927,103.776,66.881,103.776z"/>
<path d="M53.028,93.998c-0.827,0-1.638-0.396-2.134-1.136c-0.79-1.177-0.477-2.771,0.7-3.563l7.463-5.012  c1.178-0.793,2.773-0.479,3.564,0.7c0.79,1.175,0.477,2.771-0.7,3.562l-7.463,5.014C54.017,93.856,53.52,93.998,53.028,93.998z"/>
<path d="M56.548,78.273c-0.031,0-0.063-0.001-0.096-0.002l-8.981-0.329c-1.417-0.053-2.523-1.243-2.473-2.66  c0.053-1.417,1.271-2.525,2.661-2.471l8.981,0.328c1.417,0.052,2.523,1.243,2.473,2.659C59.062,77.185,57.924,78.273,56.548,78.273z  "/>
<path d="M59.654,67.292c-0.555,0-1.113-0.178-1.583-0.547L51,61.199c-1.117-0.875-1.312-2.489-0.437-3.605  c0.875-1.115,2.49-1.312,3.604-0.437l7.072,5.545c1.117,0.875,1.312,2.49,0.436,3.605C61.169,66.956,60.416,67.292,59.654,67.292z"/>
<path d="M68.626,60.237c-1.118,0-2.147-0.736-2.469-1.865l-2.463-8.645c-0.389-1.364,0.402-2.786,1.766-3.173  c1.365-0.391,2.784,0.402,3.173,1.766l2.463,8.645c0.388,1.364-0.402,2.785-1.766,3.173C69.096,60.205,68.858,60.237,68.626,60.237z  "/>
<path d="M80.03,59.797c-0.292,0-0.591-0.051-0.881-0.157c-1.333-0.486-2.017-1.961-1.529-3.293l3.086-8.439  c0.487-1.332,1.963-2.016,3.295-1.529c1.332,0.487,2.017,1.961,1.528,3.293l-3.088,8.439C82.062,59.152,81.078,59.797,80.03,59.797z  "/>
<path d="M89.517,66.149c-0.827,0-1.637-0.399-2.134-1.137c-0.791-1.176-0.48-2.772,0.697-3.563l7.461-5.015  c1.179-0.792,2.774-0.478,3.565,0.699c0.789,1.176,0.479,2.771-0.7,3.563l-7.462,5.016C90.507,66.006,90.01,66.149,89.517,66.149z"/>
<path d="M102.438,77.188c-0.03,0-0.063,0-0.096-0.002l-8.983-0.327c-1.416-0.053-2.522-1.244-2.473-2.662  c0.055-1.417,1.278-2.526,2.66-2.471l8.983,0.328c1.418,0.052,2.523,1.243,2.473,2.66C104.953,76.099,103.814,77.188,102.438,77.188  z"/>
<g>
	<g>
		<path d="M87.351,113.324c1.365-0.387,2.155-1.808,1.768-3.172l-0.117-0.412c-0.389-1.364-1.807-2.155-3.173-1.766    c-1.363,0.388-2.153,1.807-1.766,3.172l0.117,0.409c0.321,1.132,1.35,1.867,2.469,1.867    C86.88,113.425,87.116,113.391,87.351,113.324z"/>
		<path d="M91.461,118.385c-0.389-1.364-1.807-2.155-3.173-1.767c-1.363,0.388-2.154,1.808-1.767,3.172l0.118,0.412    c0.321,1.129,1.35,1.866,2.47,1.866c0.232,0,0.468-0.032,0.703-0.099c1.363-0.388,2.154-1.809,1.767-3.173L91.461,118.385z"/>
		<path d="M64.376,108.04c-1.33-0.486-2.805,0.198-3.292,1.53l-0.147,0.402c-0.487,1.332,0.199,2.806,1.53,3.293    c0.291,0.105,0.589,0.155,0.881,0.155c1.047,0,2.031-0.645,2.411-1.686l0.146-0.403C66.395,110.001,65.709,108.526,64.376,108.04z    "/>
		<path d="M61.293,116.48c-1.327-0.488-2.807,0.193-3.296,1.521l-0.147,0.403c-0.489,1.331,0.193,2.808,1.524,3.296    c0.292,0.107,0.591,0.159,0.885,0.159c1.046,0,2.029-0.644,2.411-1.682l0.148-0.403C63.307,118.445,62.625,116.969,61.293,116.48z    "/>
		<path d="M43.423,94.787l-0.355,0.239c-1.176,0.791-1.489,2.388-0.699,3.563c0.497,0.737,1.308,1.134,2.135,1.134    c0.492,0,0.99-0.141,1.43-0.437l0.355-0.239c1.177-0.791,1.49-2.386,0.699-3.563C46.194,94.309,44.599,93.994,43.423,94.787z"/>
		<path d="M35.964,99.797l-0.356,0.239c-1.177,0.789-1.491,2.384-0.702,3.563c0.495,0.737,1.308,1.136,2.135,1.136    c0.491,0,0.988-0.14,1.428-0.436l0.356-0.238c1.177-0.791,1.491-2.386,0.702-3.563C38.74,99.321,37.146,99.008,35.964,99.797z"/>
		<path d="M28.842,72.117l-0.427-0.016c-1.402-0.077-2.608,1.054-2.661,2.471c-0.053,1.417,1.055,2.608,2.472,2.66l0.427,0.017    c0.033,0.002,0.064,0.002,0.096,0.002c1.374,0,2.514-1.09,2.564-2.475C31.366,73.36,30.26,72.169,28.842,72.117z"/>
		<path d="M37.823,72.449l-0.428-0.017c-1.436-0.076-2.609,1.055-2.662,2.472c-0.052,1.418,1.055,2.609,2.472,2.661l0.428,0.016    c0.032,0.002,0.063,0.002,0.096,0.002c1.374,0,2.513-1.088,2.564-2.473C40.347,73.692,39.24,72.502,37.823,72.449z"/>
		<path d="M39.349,45.536l-0.337-0.263c-1.115-0.875-2.73-0.679-3.605,0.437c-0.874,1.116-0.677,2.73,0.439,3.605l0.337,0.264    c0.47,0.368,1.027,0.546,1.581,0.546c0.763,0,1.517-0.337,2.022-0.983C40.661,48.025,40.464,46.412,39.349,45.536z"/>
		<path d="M42.917,54.859l0.336,0.264c0.471,0.369,1.027,0.546,1.582,0.546c0.762,0,1.517-0.337,2.022-0.984    c0.875-1.116,0.678-2.73-0.438-3.605l-0.336-0.264c-1.115-0.875-2.729-0.678-3.605,0.438    C41.604,52.371,41.802,53.986,42.917,54.859z"/>
		<path d="M62.646,36.673c-1.364,0.388-2.155,1.809-1.767,3.172l0.118,0.412c0.322,1.129,1.35,1.866,2.469,1.866    c0.232,0,0.468-0.032,0.704-0.098c1.364-0.388,2.155-1.809,1.767-3.173l-0.117-0.411C65.432,37.077,64.013,36.285,62.646,36.673z"/>
		<path d="M58.537,31.615c0.321,1.129,1.35,1.865,2.469,1.865c0.232,0,0.469-0.032,0.704-0.099c1.365-0.388,2.155-1.808,1.767-3.172    l-0.117-0.411c-0.388-1.364-1.811-2.157-3.172-1.767c-1.365,0.389-2.155,1.809-1.767,3.173L58.537,31.615z"/>
		<path d="M85.619,41.958c0.291,0.106,0.589,0.157,0.882,0.157c1.047,0,2.031-0.646,2.411-1.687l0.146-0.402    c0.489-1.332-0.197-2.806-1.529-3.293c-1.331-0.485-2.805,0.199-3.292,1.531l-0.146,0.402    C83.601,39.997,84.287,41.472,85.619,41.958z"/>
		<path d="M90.624,28.295c-1.327-0.489-2.807,0.193-3.296,1.523l-0.146,0.402c-0.49,1.33,0.192,2.807,1.523,3.296    c0.291,0.108,0.592,0.159,0.887,0.159c1.045,0,2.026-0.645,2.409-1.683l0.147-0.402C92.637,30.261,91.956,28.785,90.624,28.295z"/>
		<path d="M111.525,45.696l-0.354,0.239c-1.178,0.792-1.49,2.387-0.7,3.563c0.498,0.737,1.309,1.135,2.135,1.135    c0.494,0,0.99-0.142,1.431-0.438l0.354-0.239c1.177-0.792,1.491-2.387,0.699-3.564C114.296,45.216,112.7,44.904,111.525,45.696z"/>
		<path d="M104.066,50.709l-0.354,0.239c-1.178,0.792-1.49,2.387-0.699,3.563c0.497,0.738,1.308,1.135,2.134,1.135    c0.493,0,0.99-0.142,1.431-0.437l0.354-0.239c1.178-0.792,1.491-2.387,0.7-3.563C106.837,50.229,105.241,49.917,104.066,50.709z"/>
		<path d="M121.774,72.761l-0.427-0.016c-1.422-0.075-2.609,1.054-2.662,2.471c-0.052,1.419,1.055,2.61,2.473,2.661l0.427,0.016    c0.033,0.003,0.065,0.003,0.096,0.003c1.375,0,2.515-1.088,2.565-2.473C124.299,74.003,123.193,72.813,121.774,72.761z"/>
		<path d="M112.794,72.43l-0.428-0.015c-1.427-0.078-2.608,1.053-2.661,2.471c-0.052,1.417,1.054,2.608,2.472,2.659l0.428,0.017    c0.033,0.002,0.064,0.002,0.096,0.002c1.376,0,2.515-1.088,2.565-2.472C115.317,73.673,114.212,72.483,112.794,72.43z"/>
		<path d="M114.16,100.684l-0.336-0.265c-1.115-0.876-2.729-0.681-3.605,0.435c-0.875,1.116-0.681,2.729,0.436,3.604l0.334,0.264    c0.471,0.369,1.029,0.549,1.585,0.549c0.761,0,1.515-0.337,2.021-0.981C115.469,103.174,115.276,101.559,114.16,100.684z"/>
		<path d="M107.085,95.137l-0.336-0.265c-1.115-0.876-2.729-0.679-3.604,0.437c-0.875,1.119-0.679,2.731,0.439,3.606l0.336,0.264    c0.469,0.366,1.026,0.545,1.582,0.545c0.762,0,1.517-0.336,2.021-0.981C108.399,97.626,108.203,96.01,107.085,95.137z"/>
	</g>
	<path d="M97.419,93.386c-0.555,0-1.113-0.177-1.583-0.548l-7.071-5.544c-1.115-0.877-1.311-2.491-0.437-3.607   c0.876-1.116,2.488-1.311,3.606-0.437l7.071,5.547c1.116,0.876,1.311,2.489,0.435,3.604C98.934,93.05,98.181,93.386,97.419,93.386z   "/>
</g>
</svg>