<svg xmlns="http://www.w3.org/2000/svg" xmlns:xlink="http://www.w3.org/1999/xlink" version="1.1" id="Layer_1" x="0px" y="0px" width="100px" height="100px" viewBox="0 0 100 100" enable-background="new 0 0 100 100" xml:space="preserve">
<path fill="#000000" d="M29.08,33.106l-0.359-0.209c-1.189-0.693-2.715-0.291-3.411,0.898c-0.693,1.19-0.291,2.717,0.899,3.411  l0.359,0.209c0.395,0.23,0.827,0.339,1.253,0.339c0.858,0,1.693-0.444,2.157-1.238C30.671,35.327,30.27,33.8,29.08,33.106z"/>
<path fill="#000000" d="M18.665,32.821l0.36,0.209c0.394,0.229,0.825,0.339,1.25,0.339c0.859,0,1.695-0.445,2.158-1.241  c0.693-1.19,0.289-2.716-0.902-3.409l-0.36-0.209c-1.189-0.692-2.716-0.289-3.409,0.902C17.069,30.603,17.474,32.129,18.665,32.821z  "/>
<path fill="#000000" d="M15.422,28.086c0.692-1.191,0.287-2.717-0.904-3.409l-4.669-2.711c-1.191-0.694-2.716-0.287-3.409,0.904  c-0.692,1.191-0.287,2.718,0.904,3.409l4.669,2.711c0.394,0.229,0.824,0.337,1.25,0.337C14.124,29.328,14.959,28.884,15.422,28.086z  "/>
<path fill="#000000" d="M18.324,53.74c-0.235-1.357-1.525-2.267-2.883-2.032l-0.41,0.07c-1.357,0.235-2.267,1.525-2.032,2.883  c0.21,1.213,1.264,2.069,2.455,2.069c0.141,0,0.284-0.013,0.428-0.037l0.41-0.07C17.649,56.387,18.558,55.098,18.324,53.74z"/>
<path fill="#000000" d="M21.6,53.169c0.21,1.213,1.264,2.069,2.455,2.069c0.141,0,0.285-0.013,0.428-0.037l0.41-0.07  c1.357-0.236,2.267-1.525,2.032-2.883c-0.236-1.357-1.526-2.264-2.883-2.033l-0.409,0.071C22.274,50.521,21.365,51.812,21.6,53.169z  "/>
<path fill="#000000" d="M7.435,53.147l-5.319,0.921c-1.357,0.235-2.267,1.525-2.032,2.883c0.21,1.213,1.264,2.068,2.455,2.068  c0.141,0,0.284-0.012,0.428-0.036l5.319-0.921c1.357-0.235,2.267-1.525,2.032-2.883C10.083,53.823,8.79,52.914,7.435,53.147z"/>
<path fill="#000000" d="M31.184,66.559l-0.269,0.317c-0.889,1.052-0.758,2.626,0.294,3.515c0.468,0.396,1.04,0.59,1.609,0.59  c0.708,0,1.412-0.3,1.905-0.884l0.269-0.317c0.889-1.052,0.758-2.626-0.294-3.515C33.649,65.376,32.075,65.506,31.184,66.559z"/>
<path fill="#000000" d="M25.552,73.232l-0.268,0.318c-0.888,1.054-0.754,2.626,0.299,3.515c0.468,0.394,1.039,0.587,1.606,0.587  c0.71,0,1.415-0.302,1.908-0.887l0.268-0.317c0.888-1.054,0.753-2.627-0.299-3.515C28.014,72.047,26.441,72.181,25.552,73.232z"/>
<path fill="#000000" d="M20.308,79.511l-3.481,4.122c-0.889,1.053-0.756,2.626,0.296,3.515c0.468,0.396,1.04,0.589,1.608,0.589  c0.709,0,1.413-0.301,1.906-0.885l3.481-4.122c0.889-1.053,0.756-2.627-0.296-3.515C22.771,78.325,21.197,78.457,20.308,79.511z"/>
<path fill="#000000" d="M49.632,80c-0.001,0-0.003,0-0.005,0C48.252,80,47,81.846,47,83.221v0.416C47,85.015,48.244,86,49.621,86  c0.001,0,0.003,0,0.005,0C51.001,86,52,85.023,52,83.647v-0.416C52,81.854,51.01,80,49.632,80z"/>
<path fill="#000000" d="M49.663,72c-0.003,0-0.007,0-0.011,0c-1.372,0-2.488,1.112-2.494,2.486l-0.001,0.711  C47.151,76.576,48.263,78,49.64,78c0.003,0,0.007,0,0.011,0C51.023,78,52,76.484,52,75.11v-0.309C52,73.425,51.041,72,49.663,72z"/>
<path fill="#000000" d="M49.612,89c-0.002,0-0.004,0-0.006,0c-1.374,0-2.491,1.084-2.494,2.46l-0.014,5.22  C47.094,98.055,48.208,99,49.586,99c0.002,0,0.004,0,0.006,0c1.374,0,2.491-0.947,2.494-2.323l0.015-5.287  C52.104,90.014,50.99,89,49.612,89z"/>
<path fill="#000000" d="M74.186,74.127l-0.266-0.319c-0.882-1.057-2.453-1.201-3.514-0.32c-1.058,0.882-1.201,2.454-0.32,3.513  l0.267,0.319c0.493,0.592,1.203,0.898,1.918,0.898c0.563,0,1.128-0.19,1.595-0.578C74.924,76.758,75.067,75.187,74.186,74.127z"/>
<path fill="#000000" d="M68.326,67.106c-0.881-1.057-2.453-1.202-3.513-0.32c-1.059,0.882-1.202,2.454-0.32,3.513l0.266,0.319  c0.494,0.592,1.204,0.898,1.919,0.898c0.562,0,1.128-0.19,1.595-0.578c1.058-0.882,1.201-2.454,0.32-3.513L68.326,67.106z"/>
<path fill="#000000" d="M79.141,80.135c-0.883-1.057-2.454-1.2-3.513-0.317c-1.058,0.883-1.199,2.455-0.316,3.513l3.458,4.146  c0.494,0.591,1.203,0.896,1.917,0.896c0.563,0,1.13-0.189,1.597-0.579c1.057-0.882,1.198-2.455,0.316-3.513L79.141,80.135z"/>
<path fill="#000000" d="M73.065,53.047c-0.243,1.354,0.658,2.651,2.014,2.896l0.409,0.073c0.148,0.026,0.297,0.04,0.443,0.04  c1.185,0,2.235-0.847,2.452-2.054c0.243-1.354-0.658-2.651-2.014-2.896l-0.409-0.073C74.606,50.794,73.309,51.691,73.065,53.047z"/>
<path fill="#000000" d="M84.962,52.644l-0.41-0.073c-1.357-0.238-2.65,0.659-2.895,2.015c-0.243,1.355,0.659,2.652,2.015,2.896  l0.409,0.073c0.149,0.026,0.297,0.039,0.443,0.039c1.185,0,2.235-0.847,2.452-2.054C87.22,54.184,86.317,52.888,84.962,52.644z"/>
<path fill="#000000" d="M97.899,55.042l-5.314-0.952c-1.356-0.24-2.653,0.659-2.896,2.015c-0.242,1.356,0.659,2.651,2.015,2.896  l5.315,0.952c0.148,0.026,0.296,0.039,0.442,0.039c1.185,0,2.236-0.848,2.452-2.054C100.156,56.581,99.255,55.285,97.899,55.042z"/>
<path fill="#000000" d="M72.724,38.471c0.42,0,0.846-0.106,1.236-0.33l0.36-0.207c1.195-0.686,1.609-2.209,0.925-3.404  s-2.209-1.608-3.403-0.925l-0.36,0.207c-1.195,0.685-1.609,2.208-0.925,3.403C71.018,38.021,71.857,38.471,72.724,38.471z"/>
<path fill="#000000" d="M80.294,34.128c0.421,0,0.847-0.106,1.237-0.33l0.36-0.207c1.195-0.685,1.609-2.209,0.925-3.404  c-0.685-1.194-2.209-1.607-3.403-0.925l-0.36,0.207c-1.195,0.685-1.609,2.209-0.925,3.404  C78.589,33.677,79.429,34.128,80.294,34.128z"/>
<path fill="#000000" d="M94.229,23.736c-0.685-1.194-2.209-1.606-3.404-0.922L86.143,25.5c-1.195,0.685-1.607,2.209-0.923,3.404  c0.462,0.803,1.302,1.253,2.166,1.253c0.421,0,0.848-0.107,1.238-0.331l4.684-2.687C94.502,26.455,94.915,24.931,94.229,23.736z"/>
<path fill="#000000" d="M60.322,21.633c-1.289-0.474-2.726,0.188-3.202,1.481l-0.144,0.39c-0.475,1.292,0.188,2.726,1.481,3.202  c0.283,0.104,0.574,0.153,0.86,0.153c1.015,0,1.97-0.625,2.341-1.634l0.144-0.39C62.278,23.542,61.615,22.109,60.322,21.633z"/>
<path fill="#000000" d="M64.668,17.031l0.144-0.391c0.476-1.292-0.188-2.725-1.48-3.201c-1.289-0.473-2.726,0.187-3.202,1.481  l-0.144,0.39c-0.475,1.292,0.188,2.725,1.481,3.201c0.283,0.104,0.574,0.153,0.86,0.153C63.342,18.665,64.297,18.04,64.668,17.031z"/>
<path fill="#000000" d="M67.891,1.187c-1.294-0.475-2.727,0.188-3.201,1.481L62.83,7.735c-0.475,1.293,0.189,2.726,1.481,3.201  c0.284,0.104,0.574,0.153,0.859,0.153c1.017,0,1.972-0.625,2.342-1.636l1.859-5.067C69.847,3.094,69.184,1.661,67.891,1.187z"/>
<path fill="#000000" d="M40.971,15.025l-0.141-0.392c-0.467-1.295-1.898-1.969-3.192-1.5c-1.295,0.466-1.968,1.896-1.501,3.191  l0.141,0.392c0.366,1.016,1.325,1.648,2.347,1.648c0.281,0,0.566-0.047,0.845-0.148C40.765,17.75,41.437,16.321,40.971,15.025z"/>
<path fill="#000000" d="M43.794,22.842c-0.467-1.294-1.895-1.97-3.192-1.498c-1.295,0.467-1.967,1.896-1.499,3.192l0.141,0.391  c0.367,1.015,1.324,1.647,2.345,1.647c0.281,0,0.567-0.047,0.847-0.149c1.295-0.467,1.967-1.896,1.499-3.192L43.794,22.842z"/>
<path fill="#000000" d="M38.244,7.422l-1.833-5.078c-0.467-1.296-1.897-1.967-3.192-1.499c-1.296,0.468-1.967,1.897-1.499,3.192  l1.833,5.078c0.367,1.016,1.324,1.648,2.346,1.648c0.281,0,0.567-0.048,0.846-0.149C38.041,10.147,38.712,8.717,38.244,7.422z"/>
</svg>