<svg xmlns="http://www.w3.org/2000/svg" xmlns:xlink="http://www.w3.org/1999/xlink" version="1.1" id="Layer_1" x="0px" y="0px" width="100px" height="100px" viewBox="0 0 100 100" enable-background="new 0 0 100 100" xml:space="preserve">
<g>
	<path fill-rule="evenodd" clip-rule="evenodd" d="M20.985,11.521c-0.101-0.528-0.245-1.277-0.396-1.818   c-0.409-0.205-0.823-0.414-1.24-0.625c0.05,0.24,0.099,0.487,0.148,0.741c0.124,0.634,0.316,1.619,0.538,2.269   c0.395,0.202,0.791,0.404,1.186,0.606C21.138,12.315,21.062,11.923,20.985,11.521z"/>
	<path fill-rule="evenodd" clip-rule="evenodd" d="M18.381,10.146c-0.099-0.508-0.24-1.224-0.388-1.75   c-0.454-0.228-0.901-0.452-1.336-0.668c0.081,0.331,0.156,0.68,0.233,1.043c0.116,0.549,0.295,1.387,0.502,1.975   c0.414,0.209,0.828,0.418,1.242,0.629C18.545,10.98,18.463,10.567,18.381,10.146z"/>
	<path fill-rule="evenodd" clip-rule="evenodd" d="M23.588,12.729c-0.09-0.487-0.215-1.153-0.35-1.688   c-0.407-0.206-0.84-0.424-1.296-0.654c0.053,0.263,0.106,0.532,0.16,0.815c0.11,0.572,0.292,1.521,0.501,2.199   c0.414,0.213,0.828,0.426,1.242,0.641C23.755,13.619,23.671,13.178,23.588,12.729z"/>
	<path fill-rule="evenodd" clip-rule="evenodd" d="M26.241,14.081c-0.09-0.495-0.213-1.168-0.347-1.714   c-0.263-0.126-0.724-0.356-1.32-0.654c0.044,0.227,0.088,0.461,0.134,0.705c0.114,0.613,0.306,1.645,0.527,2.35   c0.422,0.221,0.844,0.44,1.266,0.662C26.41,14.998,26.325,14.544,26.241,14.081z"/>
	<path fill-rule="evenodd" clip-rule="evenodd" d="M15.78,9.126c-0.154-0.72-0.406-1.899-0.627-2.145   c-0.46-0.227-0.887-0.436-1.272-0.623c0.053,0.255,0.105,0.518,0.158,0.789c0.108,0.559,0.289,1.484,0.497,2.151   c0.481,0.244,0.963,0.489,1.445,0.733C15.911,9.733,15.845,9.43,15.78,9.126z"/>
	<path fill-rule="evenodd" clip-rule="evenodd" d="M30.064,14.932c0.138,0.725,0.389,2.047,0.667,2.675   c0.513,0.275,1.016,0.566,1.501,0.881c-0.117-0.526-0.221-1.09-0.325-1.667c-0.123-0.686-0.309-1.719-0.499-2.286   c-0.525-0.224-1.045-0.434-1.548-0.631C29.93,14.229,29.996,14.57,30.064,14.932z"/>
	<path fill-rule="evenodd" clip-rule="evenodd" d="M28.947,15.249c-0.103-0.537-0.248-1.303-0.402-1.849   c-0.499-0.188-0.952-0.355-1.349-0.503c0.055,0.282,0.109,0.573,0.165,0.88c0.113,0.618,0.301,1.654,0.518,2.375   c0.46,0.239,0.928,0.474,1.4,0.708C29.16,16.353,29.053,15.808,28.947,15.249z"/>
	<path fill-rule="evenodd" clip-rule="evenodd" d="M10.319,6.248c-0.101-0.497-0.244-1.203-0.395-1.706   c-0.39-0.19-0.812-0.398-1.256-0.616C8.722,4.16,8.774,4.399,8.828,4.647C8.946,5.2,9.128,6.049,9.339,6.634   c0.398,0.208,0.795,0.419,1.195,0.625C10.459,6.926,10.388,6.588,10.319,6.248z"/>
	<path fill-rule="evenodd" clip-rule="evenodd" d="M99.312,68.657c1.649-8.92,0.283-17.153-3.556-24.862   c-3.592-7.21-10.104-14.75-13.943-18.006c-3.84-3.254-18.798-9.751-27.394-14.291c-5.472-2.89-10.521-3.084-15.113,2.302   c-0.742,0.869-1.758,1.387-2.639,2.085c-0.588,0.466-1.192,0.722-1.861,0.324c-0.63-0.375-1.324-0.731-2.038-1.068   c0.09,0.424,0.173,0.887,0.261,1.378c0.181,1.003,0.556,3.095,0.93,3.219l-0.017,0.075c0.93,0.874,1.709,1.943,2.221,3.332   c2.345,0.667,4.206,3.119,6.749,2.106c0.705-0.283,1.005,1.073,0.304,1.352c-2.608,1.04-4.378-0.946-6.621-1.857   c0.016,0.084,0.039,0.16,0.053,0.247c0.938,5.619,12.562,13.174,16.286,21.157c1.464,3.137,2.581,5.968,2.936,9.443   c0.282,2.758,0.305,5.627,1.696,8.055c1.267,2.211,2.635,2.611,4.126,0.338c1.945-2.965,4.058-5.845,3.786-10.395   c-0.025-0.071-0.048-0.144-0.055-0.232c-0.342-4.995-1.828-9.664-4.127-13.792c-0.418-0.749,0.576-1.451,0.99-0.708   c2.419,4.341,3.926,9.257,4.285,14.5c0.009,0.13-0.012,0.236-0.047,0.329c4.169,2.384,8.08,4.568,11.927,6.871   c5.992,3.586,9.84,11.886,9.399,20.034c-0.248,4.592-1.712,6.271-5.463,6.183c-0.759-0.017-1.514-0.23-2.272-0.336   c-0.666-0.093-1.379-0.252-1.78,0.647c-0.371,0.833-0.072,1.613,0.323,2.286c1.44,2.458,3.277,4.462,5.772,4.741   c1.521,0.171,2.317,0.91,3.21,2.251c1.567,2.352,3.671,3.747,6.244,3.629c0.971-0.044,1.939-0.474,2.372-1.664   c0.524-1.441-0.634-1.681-1.25-2.302c-2.592-2.612-3.193-6.448-1.485-9.92C96.202,80.657,98.162,74.878,99.312,68.657z    M42.192,20.018c-0.337,0.373-0.846,0.367-1.221,0.086c-0.224-0.167-0.327-0.481-0.263-0.792c0.083-0.415,0.274-0.778,0.547-1.044   c0.244-0.238,0.572-0.292,0.812,0c0.065,0.08,0.105,0.188,0.134,0.302C42.486,19,42.565,19.604,42.192,20.018z"/>
	<path fill-rule="evenodd" clip-rule="evenodd" d="M2.317,2.317C2.208,1.795,2.05,1.04,1.888,0.548   c-0.602-0.296-1.004-0.489-1.1-0.52c-0.509-0.167-1.149,0.44-0.54,1.186c0.453,0.554,1.326,1.188,2.199,1.723   C2.403,2.732,2.359,2.524,2.317,2.317z"/>
	<path fill-rule="evenodd" clip-rule="evenodd" d="M7.718,5.004c-0.113-0.528-0.28-1.303-0.449-1.771   C6.862,3.03,6.45,2.825,6.041,2.62c0.062,0.25,0.121,0.504,0.181,0.765C6.349,3.943,6.53,4.735,6.738,5.27   C7.13,5.479,7.523,5.683,7.916,5.89C7.847,5.597,7.781,5.301,7.718,5.004z"/>
	<path fill-rule="evenodd" clip-rule="evenodd" d="M5.116,3.761C4.982,3.17,4.771,2.249,4.577,1.887   C4.118,1.658,3.679,1.438,3.271,1.235c0.053,0.239,0.105,0.483,0.157,0.737C3.529,2.454,3.675,3.15,3.845,3.721   C4.326,3.98,4.807,4.236,5.289,4.495C5.229,4.252,5.172,4.007,5.116,3.761z"/>
	<path fill-rule="evenodd" clip-rule="evenodd" d="M11.434,5.91c0.116,0.573,0.294,1.443,0.499,2.062   c0.406,0.208,0.812,0.415,1.218,0.622c-0.079-0.363-0.154-0.739-0.229-1.122c-0.098-0.507-0.236-1.219-0.383-1.747   c-0.215-0.097-0.385-0.17-0.488-0.207c-0.154-0.055-0.421-0.172-0.767-0.331C11.333,5.421,11.383,5.662,11.434,5.91z"/>
</g>
</svg>