<svg xmlns="http://www.w3.org/2000/svg" xmlns:xlink="http://www.w3.org/1999/xlink" version="1.1" id="Layer_1" x="0px" y="0px" width="40.428px" height="99.553px" viewBox="0 0 40.428 99.553" enable-background="new 0 0 40.428 99.553" xml:space="preserve">
<path d="M40.034,36.583c1.613-9.42-5.115-36.338-5.115-36.338L20.219,0.029L5.52,0.244c0,0-6.729,26.918-5.116,36.338  c1.615,9.421,16.285,14.266,17.093,19.65c0.809,5.383,2.423,33.242-0.134,35.395c-2.558,2.154-8.539,4.1-12.652,4.846  c-1.481,0.27-1.63,1.443-1.196,1.766c0.715,0.527,11.59,1.314,16.704,1.314s15.989-0.787,16.704-1.314  c0.434-0.322,0.285-1.496-1.195-1.766c-4.113-0.746-10.096-2.691-12.652-4.846c-2.557-2.152-0.943-30.012-0.135-35.395  C23.749,50.848,38.418,46.003,40.034,36.583z M4.769,29.846C5.055,17.936,8.731,1.123,8.731,1.123h2.336  c0,0-0.343,0.511-3.271,17.096C4.43,37.29,10.581,43.932,11.395,44.953C11.395,44.953,4.499,41.068,4.769,29.846z M20.26,89.833  c-0.916,0-1.139-33.916-1.139-33.916s0-1.539,1.151-1.539c0.001,0,0.001,0,0.001,0c0.967,0.016,1.151,1.539,1.151,1.539  S21.176,89.833,20.26,89.833z M20.246,52.678v0.002c-0.009,0-0.018-0.002-0.027-0.002c-0.009,0-0.018,0.002-0.026,0.002v-0.002  c-3.895-0.027-7.482-2.974-7.482-2.974s0.62,0.234,1.584,0.488c0.928,0.244,3.439,0.727,5.924,0.723  c2.485,0.004,4.997-0.479,5.924-0.723c0.965-0.253,1.584-0.488,1.584-0.488S24.141,52.651,20.246,52.678z"/>
<path d="M20.363,99.325"/>
<path d="M20.363,0"/>
</svg>