<svg xmlns:x="http://ns.adobe.com/Extensibility/1.0/" xmlns:i="http://ns.adobe.com/AdobeIllustrator/10.0/" xmlns:graph="http://ns.adobe.com/Graphs/1.0/" xmlns="http://www.w3.org/2000/svg" xmlns:xlink="http://www.w3.org/1999/xlink" xmlns:a="http://ns.adobe.com/AdobeSVGViewerExtensions/3.0/" version="1.0" id="Layer_1" x="0px" y="0px" width="100px" height="100px" viewBox="0 0 100 100" enable-background="new 0 0 100 100" xml:space="preserve">
<path d="M40.181,34.555c0-0.179,0.023-0.35,0.068-0.514c-0.775,0.379-1.315,1.042-1.6,1.932c0.564,0.236,1.251,0.404,2.085,0.43  c0.274,0.008,0.536,0.013,0.787,0.015C40.743,36.156,40.181,35.421,40.181,34.555L40.181,34.555z M44.084,34.209  c0.02,0.112,0.029,0.228,0.029,0.346c0,0.862-0.555,1.595-1.328,1.86c1.221-0.017,2.219-0.054,3.324,0.052  C45.675,35.525,44.953,34.71,44.084,34.209L44.084,34.209z M54.807,34.209c-0.869,0.501-1.59,1.316-2.025,2.258  c1.104-0.105,2.104-0.068,3.324-0.052c-0.775-0.265-1.328-0.998-1.328-1.86C54.777,34.437,54.786,34.321,54.807,34.209  L54.807,34.209z M58.707,34.555c0,0.867-0.562,1.602-1.34,1.863c0.252-0.002,0.513-0.007,0.787-0.015  c0.834-0.026,1.521-0.194,2.085-0.43c-0.284-0.89-0.823-1.552-1.601-1.932C58.684,34.205,58.707,34.376,58.707,34.555L58.707,34.555  z M51.037,80.221l0.889-21.234h-2.502h-2.503l0.889,21.234l-0.187,0.312c-0.203,0.342-1.031,1.842-1.133,3.213  c-0.091,1.197,0.332,2.365,2.934,2.35c2.602,0.016,3.025-1.152,2.934-2.35c-0.104-1.371-0.932-2.871-1.135-3.213L51.037,80.221  L51.037,80.221z M47.361,16.667c0.021,1.318,0.11,8.548,0.11,8.548c0,0.339,0.274,0.614,0.614,0.614h2.883  c0.34,0,0.617-0.275,0.617-0.614c0,0,0.092-7.172,0.112-8.548c0.075-4.439,6.899-3.889,5.835-10.676  c-0.392-2.507-5.062-3.669-5.684-3.999c-0.627-0.33-2.324-0.294-2.324-0.294s-1.688-0.036-2.312,0.294  c-0.623,0.33-5.294,1.492-5.686,3.999C40.464,12.779,47.287,12.228,47.361,16.667L47.361,16.667z M53.203,57.762l-0.927,22.146  c0,0,4.425,7.455-2.853,7.412c-7.278,0.043-2.852-7.412-2.852-7.412l-0.927-22.146c0,0-2.75-0.291-4.896-2.754  c-0.086-0.098-0.165-0.203-0.245-0.311v38.678c0,0,0.612,5.752-3.549,5.994c-4.161,0.248-9.423,0.859-11.381-13.215  s-3.182-20.682-3.182-20.682l-9.912-7.223c0,0,2.08-15.541,7.465-29.248c1.614-4.106,6.242-12.972,6.242-12.972l5.385-1.469  c0,0,2.286-3.661,8.764-5.601c-0.195-0.885-0.212-1.911-0.017-3.158c0.456-2.912,3.949-3.948,6.281-4.875  c0.992-0.395,1.947-0.468,2.926-0.452c2.787-0.042,8.699,2.016,9.219,5.328c0.195,1.25,0.158,2.291-0.039,3.176  c6.433,1.943,8.709,5.583,8.709,5.583l5.383,1.469c0,0,4.63,8.866,6.242,12.972c5.383,13.708,7.467,29.248,7.467,29.248  l-9.914,7.223c0,0-1.225,6.607-3.184,20.682c-1.956,14.074-7.22,13.463-11.381,13.215c-4.16-0.242-3.546-5.994-3.546-5.994V54.516  c-0.126,0.168-0.253,0.334-0.383,0.492C56.157,57.361,53.203,57.762,53.203,57.762L53.203,57.762z M49.424,57.762h3.779v-1.285  l1.545-2.443l0.901-0.004c0,0,0.368-0.611,4.04-7.037c2.193-3.839,3.184-6.958,3.64-9.42c-0.089-0.176-0.189-0.333-0.304-0.462  c-0.553-0.623-1.215-0.829-1.854-0.652c-0.085,0.035-0.174,0.066-0.295,0.108c-0.63,0.211-1.376,0.346-2.257,0.346  c-2.776,0-4.326-0.273-6.457-0.031c0.619-1.935,2.47-3.569,4.615-3.671c2.217-0.106,3.789,0.801,4.439,2.473  c0.086-0.012,0.167-0.02,0.242-0.021c0.901-0.032,1.553,0.374,2.02,1.008c0.18-1.256,0.226-2.32,0.248-3.2  c0.168-6.635-6.631-8.227-10.914-8.572l-0.006,0.328c-0.004,1.013-0.826,1.829-1.838,1.829h-2.883c-1.015,0-1.839-0.823-1.839-1.838  l-0.004-0.335c-4.267,0.311-11.294,1.844-11.124,8.589c0.022,0.891,0.07,1.97,0.258,3.249c0.467-0.661,1.129-1.09,2.053-1.057  c0.076,0.002,0.157,0.009,0.241,0.021c0.654-1.671,2.226-2.579,4.443-2.473c2.142,0.102,3.996,1.736,4.613,3.671  c-2.13-0.242-3.682,0.031-6.457,0.031c-0.88,0-1.627-0.134-2.256-0.346c-0.123-0.042-0.21-0.074-0.298-0.108  c-0.638-0.177-1.3,0.03-1.852,0.652c-0.129,0.144-0.239,0.323-0.334,0.526c0.46,2.452,1.452,5.55,3.627,9.356  c3.67,6.425,4.038,7.037,4.038,7.037l0.898,0.004l1.549,2.443l0.001,1.285H49.424L49.424,57.762z M47.305,5.029  c-1.531-0.428-1.831-0.819-1.802-1.347C45.535,3.028,47.162,1.989,47.305,5.029L47.305,5.029z M52.112,5.029  c0.14-3.04,1.769-2.001,1.801-1.347C53.939,4.21,53.64,4.601,52.112,5.029L52.112,5.029z M49.424,17.342l-0.791,1.439l0.344-9.774  c-0.501-0.033-0.916-0.115-1.009-0.244c-0.252-0.35-0.425-0.714-1.224-1.092c-2.219-1.049-2.174-3.224-2.174-3.224  s0.458,1.541,1.356,2.076c0.895,0.535,1.309,0.492,1.78,1.038c0.469,0.547,0.383,0.973,1.498,0.973h0.661  c1.114,0,1.028-0.426,1.497-0.973c0.471-0.546,0.885-0.502,1.781-1.038c0.895-0.535,1.354-2.076,1.354-2.076  s0.045,2.174-2.174,3.224c-0.8,0.378-0.973,0.742-1.225,1.092c-0.105,0.147-0.633,0.233-1.228,0.256l0.345,9.762L49.424,17.342  L49.424,17.342z M35.607,35.168c0.444-4.663,2.03-7.583,7.534-6.517c1.59,0.307,3.009,0.815,4.242,1.591  c0.611,0.346,0.239,1.526-1.628,0.707c-0.785-0.302-1.59-0.741-2.461-0.98C36.175,28.013,35.598,35.408,35.607,35.168L35.607,35.168  z M49.424,50.566c1.515-0.006,2.896-0.244,3.946-0.629c0,0.676-1.859,1.649-3.946,1.629c-2.09,0.02-3.948-0.953-3.948-1.629  C46.525,50.323,47.907,50.561,49.424,50.566L49.424,50.566z M49.426,48.741c-1.319,0-1.271-0.184-2.287-0.141  c-0.619,0.026-3.423,0.677-2.757,0.178c-0.275,0.116,2.341-1.338,3.403-1.37c1.148-0.033,1.415,0.479,1.639,0.479  c0.223,0,0.492-0.513,1.641-0.479c1.062,0.032,3.678,1.486,3.404,1.37c0.666,0.499-2.141-0.152-2.757-0.178  C50.693,48.558,50.747,48.741,49.426,48.741L49.426,48.741z M45.846,44.353c0.196-0.048,0.102,0.204,0.331,0.223  c1.014,0.086,1.392-1.333,2.146-0.831c0.506,0.338,1.695,0.338,2.202,0c0.755-0.503,1.132,0.917,2.144,0.831  c0.232-0.019,0.135-0.271,0.332-0.223c0.083,0.021,0.183,0.49-0.371,0.49c-1.018,0-1.903-0.947-2.145-0.387  c-0.35,0.816-1.771,0.816-2.123,0c-0.24-0.56-1.127,0.387-2.145,0.387C45.664,44.843,45.763,44.373,45.846,44.353L45.846,44.353z   M63.283,35.168c0.009,0.24-0.57-7.155-7.687-5.199c-0.872,0.239-1.677,0.678-2.462,0.98c-1.865,0.819-2.238-0.36-1.628-0.707  c1.231-0.775,2.651-1.284,4.241-1.591C61.254,27.585,62.838,30.505,63.283,35.168L63.283,35.168z"/>
</svg>