<svg xmlns:x="http://ns.adobe.com/Extensibility/1.0/" xmlns:i="http://ns.adobe.com/AdobeIllustrator/10.0/" xmlns:graph="http://ns.adobe.com/Graphs/1.0/" xmlns="http://www.w3.org/2000/svg" xmlns:xlink="http://www.w3.org/1999/xlink" xmlns:a="http://ns.adobe.com/AdobeSVGViewerExtensions/3.0/" version="1.0" id="Layer_1" x="0px" y="0px" width="100px" height="100px" viewBox="0 0 100 100" enable-background="new 0 0 100 100" xml:space="preserve">
<path d="M35.701,34.47c0.442-4.663,2.029-7.583,7.534-6.517c1.59,0.308,3.008,0.815,4.241,1.591c0.611,0.348,0.237,1.526-1.63,0.708  c-0.783-0.304-1.588-0.741-2.458-0.981C36.27,27.315,35.691,34.71,35.701,34.47L35.701,34.47z M49.517,49.869  c1.516-0.007,2.898-0.243,3.949-0.63c0,0.676-1.861,1.65-3.949,1.629c-2.087,0.021-3.946-0.953-3.946-1.629  C46.62,49.625,48.003,49.862,49.517,49.869L49.517,49.869z M49.521,48.043c-1.321,0-1.27-0.183-2.288-0.141  c-0.618,0.026-3.421,0.677-2.756,0.179c-0.275,0.115,2.341-1.339,3.403-1.37c1.148-0.034,1.415,0.479,1.637,0.479  c0.225,0,0.493-0.513,1.644-0.479c1.062,0.031,3.676,1.485,3.403,1.37c0.665,0.498-2.14-0.153-2.758-0.179  C50.789,47.86,50.843,48.043,49.521,48.043L49.521,48.043z M45.941,43.655c0.195-0.048,0.101,0.203,0.33,0.223  c1.014,0.085,1.393-1.335,2.146-0.831c0.506,0.339,1.694,0.339,2.2,0c0.755-0.504,1.132,0.916,2.146,0.831  c0.231-0.02,0.135-0.271,0.33-0.223c0.084,0.02,0.184,0.49-0.371,0.49c-1.019,0-1.905-0.946-2.144-0.388  c-0.353,0.816-1.773,0.816-2.124,0c-0.24-0.559-1.127,0.388-2.144,0.388C45.759,44.145,45.858,43.675,45.941,43.655L45.941,43.655z   M63.375,34.47c0.011,0.24-0.567-7.155-7.687-5.2c-0.87,0.24-1.675,0.677-2.459,0.981c-1.866,0.819-2.237-0.36-1.629-0.708  c1.234-0.775,2.653-1.283,4.241-1.591C61.346,26.887,62.933,29.807,63.375,34.47L63.375,34.47z M40.277,33.857  c0-0.178,0.023-0.351,0.068-0.514c-0.777,0.38-1.317,1.042-1.602,1.932c0.564,0.238,1.251,0.404,2.086,0.43  c0.272,0.008,0.534,0.014,0.786,0.017C40.837,35.459,40.277,34.723,40.277,33.857L40.277,33.857z M44.177,33.512  c0.021,0.112,0.032,0.227,0.032,0.345c0,0.862-0.557,1.595-1.33,1.86c1.221-0.016,2.22-0.054,3.323,0.052  C45.77,34.828,45.047,34.013,44.177,33.512L44.177,33.512z M37.764,34.984c0.654-1.671,2.228-2.578,4.442-2.472  c2.146,0.102,3.996,1.738,4.615,3.672c-2.129-0.242-3.683,0.031-6.456,0.031c-0.881,0-1.627-0.135-2.257-0.347  c-0.122-0.041-0.211-0.074-0.298-0.109c-0.638-0.176-1.301,0.03-1.853,0.652c-0.128,0.145-0.237,0.324-0.334,0.526  c0.462,2.453,1.454,5.55,3.628,9.356c3.673,6.427,4.038,7.036,4.038,7.036l0.898,0.004l1.55,2.443v1.287h3.78h3.778v-1.287  l1.545-2.443l0.902-0.004c0,0,0.367-0.609,4.04-7.036c2.192-3.839,3.183-6.957,3.64-9.419c-0.089-0.177-0.189-0.334-0.305-0.463  c-0.552-0.622-1.213-0.828-1.854-0.652c-0.087,0.035-0.173,0.068-0.296,0.109c-0.629,0.212-1.374,0.347-2.254,0.347  c-2.775,0-4.328-0.273-6.457-0.031c0.617-1.934,2.47-3.57,4.613-3.672c2.217-0.105,3.788,0.801,4.442,2.472  c0.083-0.012,0.166-0.019,0.239-0.022c0.901-0.031,1.553,0.376,2.018,1.008c0.183-1.257,0.23-2.319,0.251-3.199  c0.168-6.635-6.633-8.227-10.915-8.572l0.027-1.963c0.028-2.233,0.072-5.412,0.085-6.247c0.019-1.077,0.728-1.826,1.653-2.581  c-0.38,2.96-0.723,5.926-1.01,8.894c0.704,0.072,1.456,0.176,2.226,0.325c0.485-3.946,1.036-7.882,1.681-11.801  c0.167-0.208,0.324-0.431,0.472-0.666c0.338-0.557,0.601-1.167,0.76-1.88c6.434,1.944,8.708,5.583,8.708,5.583l5.384,1.469  c0,0,4.628,8.865,6.242,12.972c5.387,13.708,7.465,29.251,7.465,29.251l-9.912,7.219c0,0-1.225,6.609-3.182,20.682  c-1.959,14.074-7.221,13.463-11.382,13.219c-4.161-0.246-3.55-5.998-3.55-5.998V53.816c-0.125,0.17-0.251,0.336-0.381,0.492  c-1.941,2.354-4.896,2.756-4.896,2.756L52.37,79.209c0,0,4.426,7.457-2.852,7.414c-7.278,0.043-2.854-7.414-2.854-7.414  l-0.926-22.145c0,0-2.749-0.291-4.894-2.756c-0.086-0.098-0.166-0.205-0.248-0.311v38.678c0,0,0.613,5.752-3.546,5.998  c-4.161,0.244-9.427,0.855-11.383-13.219c-1.958-14.072-3.183-20.682-3.183-20.682l-9.912-7.219c0,0,2.08-15.543,7.466-29.251  c1.612-4.106,6.24-12.972,6.24-12.972l5.386-1.469c0,0,2.287-3.661,8.764-5.601c0.149,0.679,0.402,1.275,0.744,1.822  c0.072,0.117,0.149,0.23,0.229,0.343c0.673,4.051,1.243,8.12,1.747,12.199c0.771-0.149,1.521-0.252,2.225-0.325  c-0.294-3.026-0.645-6.052-1.031-9.072l0.137,0.107c0.883,0.69,1.732,1.421,1.755,2.652c0.012,0.8,0.052,3.99,0.08,6.232  l0.024,1.961c-4.266,0.311-11.294,1.844-11.124,8.587c0.022,0.892,0.07,1.97,0.258,3.249c0.466-0.661,1.13-1.089,2.055-1.058  C37.6,34.965,37.681,34.972,37.764,34.984L37.764,34.984z M54.9,33.512c-0.869,0.501-1.592,1.316-2.025,2.257  c1.105-0.106,2.103-0.068,3.324-0.052c-0.771-0.265-1.329-0.998-1.329-1.86C54.87,33.739,54.881,33.624,54.9,33.512L54.9,33.512z   M58.802,33.857c0,0.866-0.561,1.603-1.34,1.864c0.251-0.003,0.512-0.009,0.785-0.017c0.835-0.025,1.523-0.192,2.087-0.43  c-0.284-0.889-0.825-1.551-1.6-1.932C58.777,33.506,58.802,33.679,58.802,33.857L58.802,33.857z M38.964,10.861  c-0.78,0.326-1.467,0.673-2.065,1.021c1.088,3.86,2.085,7.75,3.029,11.653c0.567-0.221,1.136-0.403,1.688-0.554  C40.819,18.928,39.913,14.886,38.964,10.861L38.964,10.861z M34.888,13.281c-0.511,0.427-0.885,0.809-1.14,1.096  c-0.128,0.142-0.31,0.388-0.474,0.619c1.74,3.554,3.013,7.123,3.852,10.014c0.41-0.287,0.835-0.546,1.271-0.776  C37.292,20.564,36.114,16.914,34.888,13.281L34.888,13.281z M31.184,16.024l-2.583,0.705c3.527,2.283,5.579,5.693,6.972,9.621  c0.222-0.238,0.456-0.463,0.699-0.675C35.375,23.095,33.565,19.541,31.184,16.024L31.184,16.024z M26.894,18.416  c-0.367,0.72-0.8,1.574-1.259,2.493c0.406,0.011,0.805,0.022,1.195,0.036c4.27,0.098,6.636,2.756,7.944,6.396  c0.12-0.175,0.246-0.345,0.379-0.508C33.715,22.835,31.39,19.694,26.894,18.416L26.894,18.416z M24.538,23.132  c-0.481,0.989-0.959,1.991-1.394,2.933l5.367,0.02c2.694,0,3.5-0.276,4.573,1.19c0.367,0.503,0.632,1.009,0.859,1.583  c0.125-0.298,0.264-0.583,0.417-0.854c-1.271-3.239-3.639-4.733-7.625-4.823C26.025,23.155,25.29,23.14,24.538,23.132L24.538,23.132  z M22.224,28.132c-0.131,0.315-0.254,0.612-0.363,0.889c-0.238,0.605-0.47,1.216-0.694,1.827c3.69-0.147,7.482-0.252,11.387-0.32  c0.244-0.004,0.485,0.42,0.727,0.416l0.088-0.001c0.037-0.241,0.083-0.478,0.135-0.705c-1.143-2.306-1.243-2.104-3.126-2.104H22.224  L22.224,28.132z M20.438,32.898c-0.228,0.667-0.449,1.333-0.664,1.999c4.461-0.288,9.062-0.462,13.551-0.566  c-0.035-0.499-0.052-0.959-0.065-1.384c-0.244-0.075-0.487-0.403-0.731-0.399C28.374,32.621,24.349,32.735,20.438,32.898  L20.438,32.898z M19.134,36.96c-0.23,0.761-0.448,1.519-0.661,2.268c5.066-0.395,10.349-0.646,15.467-0.799  c-0.175-0.743-0.304-1.437-0.4-2.086C28.764,36.453,23.859,36.639,19.134,36.96L19.134,36.96z M17.91,41.296  c-0.206,0.777-0.399,1.54-0.586,2.29c5.843-0.508,12.024-0.829,17.936-1.017c-0.3-0.747-0.551-1.458-0.768-2.137  C29.007,40.589,23.322,40.857,17.91,41.296L17.91,41.296z M16.829,45.654c-0.203,0.875-0.393,1.721-0.566,2.533  c6.817-0.688,14.159-1.145,21.023-1.392c-0.429-0.771-0.81-1.516-1.152-2.235C29.791,44.749,23.096,45.091,16.829,45.654  L16.829,45.654z M15.831,50.26c-0.153,0.765-0.294,1.49-0.419,2.162c7.504-0.879,15.691-1.523,23.228-1.845v-1.41l-0.224-0.391  C31.08,49.018,23.133,49.504,15.831,50.26L15.831,50.26z M15.038,54.498c-0.152,0.887-0.271,1.619-0.355,2.17l0.476,0.346  c7.357-0.92,15.243-1.553,23.481-1.85v-2.568C30.973,52.928,22.63,53.59,15.038,54.498L15.038,54.498z M17.479,58.705l2.322,1.689  c5.999-0.633,12.308-1.08,18.839-1.314v-1.957C31.258,57.391,24.163,57.93,17.479,58.705L17.479,58.705z M22.172,62.123l2.098,1.527  l0.041,0.223c4.626-0.402,9.414-0.701,14.329-0.877v-1.957C32.961,61.244,27.454,61.613,22.172,62.123L22.172,62.123z   M24.648,65.811c0.093,0.541,0.201,1.184,0.323,1.924c4.421-0.377,8.988-0.654,13.668-0.822v-1.957  C33.843,65.127,29.169,65.418,24.648,65.811L24.648,65.811z M25.29,69.674l0.308,1.924c4.226-0.35,8.581-0.609,13.042-0.77v-1.957  C34.071,69.037,29.61,69.307,25.29,69.674L25.29,69.674z M25.902,73.537l0.293,1.928c4.039-0.324,8.194-0.566,12.444-0.719v-1.959  C34.285,72.945,30.031,73.197,25.902,73.537L25.902,73.537z M26.487,77.406l0.284,1.928c3.858-0.303,7.821-0.527,11.868-0.674  v-1.955C34.49,76.855,30.434,77.09,26.487,77.406L26.487,77.406z M27.054,81.277l0.275,1.932c3.68-0.281,7.457-0.494,11.311-0.633  v-1.957C34.689,80.762,30.82,80.984,27.054,81.277L27.054,81.277z M27.603,85.15c0.098,0.707,0.199,1.336,0.304,1.93  c3.499-0.258,7.08-0.455,10.733-0.588v-1.955C34.881,84.672,31.195,84.879,27.603,85.15L27.603,85.15z M28.305,89.016  c0.165,0.701,0.34,1.338,0.521,1.916c3.206-0.229,6.481-0.402,9.814-0.521v-1.959C35.125,88.58,31.676,88.768,28.305,89.016  L28.305,89.016z M29.541,92.844c0.349,0.779,0.709,1.395,1.068,1.883c2.632-0.17,5.309-0.305,8.021-0.402  c0.07-0.58,0.056-1.123,0.02-1.441l-0.01-0.104v-0.412C35.554,92.48,32.519,92.641,29.541,92.844L29.541,92.844z M33.022,96.545  c0.319,0.096,0.647,0.16,0.992,0.199c0.994,0.115,1.988,0.029,2.919-0.025c0.38-0.023,0.682-0.174,0.916-0.404  C36.228,96.379,34.619,96.453,33.022,96.545L33.022,96.545z M57.421,22.981c0.55,0.15,1.12,0.333,1.687,0.554  c0.938-3.874,1.93-7.736,3.005-11.567c-0.611-0.332-1.305-0.667-2.065-0.999C59.107,14.959,58.21,18.964,57.421,22.981  L57.421,22.981z M60.639,24.233c0.435,0.23,0.862,0.489,1.271,0.776c0.84-2.891,2.111-6.459,3.854-10.014  c-0.151-0.218-0.321-0.448-0.443-0.586c-0.281-0.315-0.619-0.666-1.177-1.114C62.918,16.924,61.74,20.569,60.639,24.233  L60.639,24.233z M62.764,25.675c0.241,0.212,0.478,0.437,0.7,0.675c1.393-3.928,3.444-7.338,6.971-9.621l-2.583-0.705  C65.471,19.541,63.661,23.095,62.764,25.675L62.764,25.675z M63.882,26.833c0.133,0.163,0.259,0.332,0.379,0.508  c1.311-3.639,3.675-6.297,7.945-6.396c0.39-0.014,0.788-0.025,1.194-0.036c-0.457-0.92-0.895-1.774-1.259-2.493  C67.646,19.694,65.321,22.835,63.882,26.833L63.882,26.833z M64.674,28.003c0.153,0.271,0.292,0.556,0.417,0.854  c0.228-0.574,0.492-1.08,0.861-1.583c1.074-1.466,1.876-1.19,4.572-1.19l5.354-0.02c-0.434-0.942-0.911-1.944-1.391-2.933  c-0.751,0.009-1.479,0.023-2.19,0.049C68.312,23.27,65.945,24.765,64.674,28.003L64.674,28.003z M65.532,30.237  c0.054,0.228,0.097,0.462,0.136,0.704l0.198,0.003c0.242,0.004,0.484-0.42,0.726-0.416c3.863,0.067,7.615,0.17,11.27,0.315  c-0.22-0.592-0.447-1.182-0.677-1.771c-0.114-0.29-0.244-0.605-0.385-0.939h-8.141C66.775,28.132,66.675,27.931,65.532,30.237  L65.532,30.237z M65.78,32.821c-0.013,0.458-0.031,0.96-0.068,1.507c4.492,0.104,9.101,0.276,13.568,0.563  c-0.22-0.665-0.446-1.331-0.68-1.997c-3.877-0.161-7.864-0.274-11.982-0.346c-0.275-0.005-0.553,0.418-0.831,0.414L65.78,32.821  L65.78,32.821z M65.497,36.341c-0.097,0.649-0.226,1.343-0.399,2.084c5.137,0.152,10.442,0.403,15.528,0.799  c-0.219-0.75-0.445-1.507-0.685-2.268C75.202,36.635,70.282,36.449,65.497,36.341L65.497,36.341z M64.543,40.429  c-0.213,0.679-0.467,1.391-0.767,2.135c5.943,0.188,12.167,0.51,18.045,1.021c-0.192-0.75-0.396-1.514-0.608-2.292  C75.772,40.853,70.056,40.584,64.543,40.429L64.543,40.429z M62.902,44.558c-0.343,0.718-0.724,1.462-1.152,2.233  c6.905,0.247,14.298,0.707,21.159,1.4c-0.176-0.813-0.368-1.66-0.576-2.535C76.027,45.088,69.284,44.746,62.902,44.558  L62.902,44.558z M60.623,48.772l-0.091,0.157v1.647c7.538,0.326,15.726,0.968,23.229,1.847c-0.126-0.672-0.267-1.395-0.421-2.162  C75.997,49.5,67.996,49.014,60.623,48.772L60.623,48.772z M60.532,52.596v2.582c8.222,0.305,16.088,0.947,23.43,1.873l0.528-0.383  c-0.085-0.549-0.204-1.283-0.356-2.168C76.543,53.594,68.202,52.93,60.532,52.596L60.532,52.596z M60.532,57.137v1.957  c6.517,0.24,12.81,0.695,18.794,1.334l2.316-1.688C74.977,57.959,67.899,57.412,60.532,57.137L60.532,57.137z M60.532,61.053v1.955  c4.913,0.184,9.701,0.486,14.323,0.9l0.048-0.258l2.054-1.496C71.69,61.637,66.196,61.264,60.532,61.053L60.532,61.053z   M60.532,64.969v1.955c4.68,0.176,9.243,0.459,13.663,0.842c0.12-0.74,0.23-1.381,0.321-1.924  C70.001,65.443,65.328,65.148,60.532,64.969L60.532,64.969z M60.532,68.885v1.957c4.461,0.166,8.814,0.432,13.037,0.787l0.307-1.928  C69.56,69.33,65.101,69.055,60.532,68.885L60.532,68.885z M60.532,72.801v1.957c4.25,0.158,8.403,0.404,12.438,0.736l0.296-1.926  C69.14,73.221,64.887,72.963,60.532,72.801L60.532,72.801z M60.532,76.717v1.957c4.047,0.15,8.01,0.381,11.863,0.689l0.284-1.928  C68.737,77.113,64.68,76.873,60.532,76.717L60.532,76.717z M60.532,80.633v1.957c3.853,0.143,7.627,0.359,11.305,0.648l0.276-1.934  C68.349,81.006,64.483,80.781,60.532,80.633L60.532,80.633z M60.532,84.549v1.957c3.651,0.137,7.23,0.34,10.729,0.604  c0.107-0.604,0.21-1.24,0.304-1.924C67.974,84.902,64.292,84.689,60.532,84.549L60.532,84.549z M60.532,88.465v1.959  c3.331,0.121,6.604,0.301,9.806,0.533c0.184-0.576,0.356-1.213,0.523-1.916C67.492,88.789,64.046,88.598,60.532,88.465  L60.532,88.465z M60.532,92.381v0.398l-0.012,0.104c-0.034,0.322-0.047,0.871,0.023,1.457c2.707,0.1,5.377,0.238,8.002,0.408  c0.361-0.486,0.724-1.1,1.074-1.881C66.647,92.66,63.616,92.498,60.532,92.381L60.532,92.381z M61.336,96.328  c0.234,0.225,0.53,0.367,0.901,0.391c0.933,0.055,1.926,0.141,2.92,0.025c0.323-0.035,0.635-0.098,0.933-0.186  C64.521,96.471,62.935,96.395,61.336,96.328L61.336,96.328z M49.517,16.645l0.793,1.438l-0.344-9.761  c0.593-0.023,1.123-0.108,1.228-0.256c0.251-0.349,0.423-0.714,1.223-1.092c2.219-1.049,2.176-3.225,2.176-3.225  s-0.46,1.542-1.355,2.077c-0.896,0.536-1.311,0.492-1.782,1.039c-0.47,0.545-0.381,0.972-1.496,0.972h-0.662  c-1.113,0-1.025-0.427-1.496-0.972c-0.471-0.547-0.884-0.503-1.781-1.039c-0.896-0.534-1.354-2.077-1.354-2.077  s-0.045,2.176,2.174,3.225c0.801,0.378,0.972,0.744,1.225,1.092c0.092,0.129,0.509,0.21,1.007,0.245l-0.342,9.771L49.517,16.645  L49.517,16.645z M52.204,4.333c1.529-0.43,1.83-0.819,1.804-1.347C53.976,2.329,52.346,1.291,52.204,4.333L52.204,4.333z   M47.398,4.333c-0.143-3.042-1.771-2.003-1.803-1.347C45.57,3.514,45.87,3.902,47.398,4.333L47.398,4.333z M47.456,15.97  c-0.074-4.439-6.897-3.889-5.834-10.676c0.393-2.508,5.063-3.669,5.686-4c0.624-0.33,2.313-0.293,2.313-0.293  s1.697-0.037,2.321,0.293c0.623,0.331,5.293,1.491,5.686,4c1.064,6.787-5.759,6.236-5.832,10.676  c-0.023,1.375-0.118,8.547-0.118,8.547c0,0.339-0.274,0.616-0.613,0.616h-2.884c-0.34,0-0.615-0.276-0.615-0.616  C47.565,24.517,47.479,17.288,47.456,15.97L47.456,15.97z"/>
</svg>