<svg xmlns:x="http://ns.adobe.com/Extensibility/1.0/" xmlns:i="http://ns.adobe.com/AdobeIllustrator/10.0/" xmlns:graph="http://ns.adobe.com/Graphs/1.0/" xmlns="http://www.w3.org/2000/svg" xmlns:xlink="http://www.w3.org/1999/xlink" xmlns:a="http://ns.adobe.com/AdobeSVGViewerExtensions/3.0/" version="1.0" id="Layer_1" x="0px" y="0px" width="100px" height="100px" viewBox="0 0 100 100" enable-background="new 0 0 100 100" xml:space="preserve">
<path d="M49.986,85.162c5.31-0.021,10.147-0.852,13.831-2.203c0,2.367-6.519,5.775-13.831,5.701  c-7.312,0.074-13.827-3.334-13.827-5.701C39.836,84.311,44.676,85.141,49.986,85.162L49.986,85.162z M82.509,29.074  c0,3.037-1.969,5.613-4.691,6.53c0.873-0.011,1.793-0.026,2.75-0.057c2.926-0.09,5.328-0.673,7.307-1.505  c-0.994-3.118-2.889-5.437-5.605-6.768C82.421,27.848,82.509,28.451,82.509,29.074L82.509,29.074z M68.844,27.863  c-3.05,1.756-5.572,4.613-7.099,7.91c3.873-0.373,7.367-0.24,11.643-0.184c-2.707-0.926-4.654-3.494-4.654-6.516  C68.733,28.661,68.771,28.257,68.844,27.863L68.844,27.863z M91.305,33.024c0.294-0.042,0.576-0.067,0.841-0.075  c3.154-0.111,5.439,1.313,7.071,3.531c-0.149,1.02-0.321,2.075-0.522,3.167c-0.307-0.621-0.661-1.168-1.062-1.622  c-1.934-2.179-4.248-2.9-6.488-2.284c-0.305,0.12-0.612,0.236-1.042,0.382c-2.204,0.741-4.82,1.21-7.9,1.21  c-9.72,0-15.163-0.956-22.621-0.109c2.163-6.774,8.657-12.5,16.163-12.86C83.507,23.991,89.013,27.17,91.305,33.024L91.305,33.024z   M98.534,31.223c0.033,0.841-1.992-25.065-26.93-18.212c-3.045,0.839-5.871,2.373-8.617,3.435c-6.539,2.867-7.845-1.263-5.703-2.477  c4.318-2.718,9.287-4.496,14.856-5.573C91.423,4.659,96.979,14.887,98.534,31.223L98.534,31.223z M1.588,31.223  C3.145,14.887,8.697,4.659,27.983,8.395c5.563,1.078,10.533,2.855,14.854,5.573c2.144,1.214,0.839,5.344-5.704,2.477  c-2.747-1.062-5.567-2.596-8.618-3.435C3.58,6.158,1.556,32.064,1.588,31.223L1.588,31.223z M8.82,33.024  c2.289-5.854,7.796-9.033,15.559-8.661c7.509,0.36,13.998,6.086,16.164,12.86c-7.461-0.847-12.899,0.109-22.62,0.109  c-3.083,0-5.697-0.47-7.901-1.21c-0.429-0.146-0.74-0.262-1.04-0.382c-2.239-0.617-4.558,0.105-6.492,2.284  c-0.449,0.507-0.837,1.133-1.168,1.844c-0.211-1.109-0.388-2.182-0.538-3.217c1.637-2.313,3.958-3.816,7.193-3.703  C8.24,32.957,8.525,32.982,8.82,33.024L8.82,33.024z M31.279,27.863c0.074,0.394,0.106,0.797,0.106,1.21  c0,3.022-1.945,5.59-4.654,6.516c4.276-0.056,7.773-0.189,11.645,0.184C36.853,32.477,34.326,29.619,31.279,27.863L31.279,27.863z   M17.614,29.074c0-0.623,0.084-1.226,0.239-1.8c-2.718,1.331-4.607,3.65-5.604,6.768c1.974,0.833,4.381,1.416,7.303,1.505  c0.961,0.031,1.874,0.046,2.753,0.057C19.579,34.687,17.614,32.11,17.614,29.074L17.614,29.074z M37.458,63.396  c0.689-0.166,0.348,0.711,1.157,0.781c3.553,0.299,4.874-4.672,7.519-2.906c1.768,1.182,5.936,1.182,7.706,0  c2.644-1.766,3.967,3.205,7.516,2.906c0.812-0.07,0.477-0.947,1.162-0.781c0.295,0.07,0.641,1.717-1.301,1.717  c-3.565,0-6.669-3.316-7.508-1.357c-1.232,2.859-6.211,2.859-7.44,0c-0.842-1.959-3.943,1.357-7.509,1.357  C36.816,65.113,37.164,63.467,37.458,63.396L37.458,63.396z M49.996,78.771c-4.624,0-4.445-0.645-8.013-0.494  c-2.166,0.092-11.988,2.371-9.657,0.621c-0.959,0.406,8.2-4.688,11.92-4.797c4.026-0.119,4.956,1.676,5.74,1.676  c0.783,0,1.728-1.795,5.748-1.676c3.725,0.109,12.887,5.203,11.928,4.797c2.328,1.75-7.497-0.529-9.658-0.621  C54.435,78.127,54.622,78.771,49.996,78.771L49.996,78.771z"/>
</svg>