<svg xmlns="http://www.w3.org/2000/svg" xmlns:xlink="http://www.w3.org/1999/xlink" version="1.1" id="Layer_1" x="0px" y="0px" width="100px" height="100px" viewBox="0 0 100 100" enable-background="new 0 0 100 100" xml:space="preserve">
<g>
	<path d="M77.627,28.553c3.246,0,6.574-2.633,7.431-5.88s-1.081-5.88-4.327-5.88c-3.248,0-6.576,2.633-7.433,5.88   S74.379,28.553,77.627,28.553z"/>
	<path d="M88.58,47.98l-7.488-3.751l-2.467-11.102c-0.042-0.38-0.122-0.743-0.241-1.085l-0.057-0.263   c-0.149-0.659-0.523-1.149-1.011-1.424c-0.518-0.491-1.176-0.853-1.964-1.037c-0.462-0.108-0.942-0.142-1.431-0.123   c-0.426-0.014-0.899,0.05-1.402,0.214c-0.798,0.21-1.588,0.564-2.334,1.04l-14.432,6.699c-0.26,0.12-0.5,0.262-0.73,0.412   c-0.708,0.334-1.338,0.925-1.676,1.67l-4.743,10.483c-0.594,1.312-0.064,2.576,1.182,2.824c1.247,0.246,2.737-0.615,3.331-1.928   l4.451-9.835l7.751-3.598L58.74,50.764c-0.199,0.412-0.336,0.802-0.425,1.175l-6.007,14.172c-0.068,0.066-0.141,0.125-0.206,0.197   L39.546,80.072c-1.571,1.719-1.915,3.844-0.77,4.74c1.146,0.895,3.346,0.227,4.917-1.496l12.558-13.762   c0.395-0.434,0.715-0.895,0.949-1.354c0.168-0.242,0.324-0.496,0.44-0.77l4.456-10.518c0.192,0.057,0.385,0.109,0.58,0.154   c0.662,0.156,1.214,0.398,1.695,0.646l6.382,11.125l-0.744,13.732c-0.093,1.744,1.21,2.883,2.912,2.547   c1.701-0.342,3.158-2.027,3.249-3.773l0.755-13.943c0.03-0.551-0.093-1.031-0.312-1.434c-0.059-0.191-0.136-0.379-0.237-0.555   l-6.655-11.602l5.823-12.026l1.056,4.748c0.03,0.144,0.08,0.275,0.133,0.402c-0.017,0.654,0.249,1.218,0.805,1.496l7.92,3.967   c0.989,0.498,2.491-0.09,3.355-1.311C89.675,49.87,89.571,48.478,88.58,47.98z"/>
</g>
<rect x="2.167" y="16.792" width="63.333" height="1.661"/>
<rect x="2.167" y="25.006" width="59.667" height="2.333"/>
<rect x="2.167" y="32.69" width="45.333" height="2"/>
<rect x="2.167" y="41.5" width="37.667" height="1.833"/>
<rect x="2.167" y="51.167" width="34" height="1.166"/>
<rect x="2.167" y="57.2" width="41.5" height="2.467"/>
<rect x="2.167" y="68.333" width="35" height="1.5"/>
<rect x="2.167" y="83.21" width="22.667" height="1.623"/>
<rect x="2.167" y="75.333" width="25.667" height="2.5"/>
</svg>