<svg xmlns="http://www.w3.org/2000/svg" xmlns:xlink="http://www.w3.org/1999/xlink" version="1.1" id="Layer_1" x="0px" y="0px" width="100px" height="100px" viewBox="0 0 100 100" enable-background="new 0 0 100 100" xml:space="preserve">
<path d="M80.002,60.913c0-3.89,3.153-7.043,7.043-7.043s7.043,3.153,7.043,7.043c0,3.891-3.153,7.043-7.043,7.043  S80.002,64.804,80.002,60.913L80.002,60.913z M82.521,60.913c0,2.498,2.024,4.523,4.523,4.523s4.523-2.025,4.523-4.523  s-2.024-4.523-4.523-4.523S82.521,58.415,82.521,60.913L82.521,60.913z M83.653,60.913c0-1.873,1.52-3.391,3.392-3.391  c1.873,0,3.393,1.518,3.393,3.391s-1.52,3.393-3.393,3.393C85.173,64.306,83.653,62.786,83.653,60.913L83.653,60.913z   M84.031,60.913c0,1.664,1.35,3.014,3.014,3.014s3.014-1.35,3.014-3.014s-1.35-3.014-3.014-3.014S84.031,59.249,84.031,60.913  L84.031,60.913z M85.375,60.913c0-0.922,0.748-1.67,1.67-1.67c0.923,0,1.669,0.748,1.669,1.67s-0.746,1.67-1.669,1.67  C86.123,62.583,85.375,61.835,85.375,60.913L85.375,60.913z M7.911,56.515c-0.358,0.215-0.036,0.753,0.323,0.538  c0,0,2.879-1.722,10.144-3.448c7.301-1.735,19.029-3.477,36.707-3.477c35.352,0,42.532,1.323,42.532,1.323  c0.412,0.074,0.526-0.541,0.114-0.617c0,0-7.2-1.334-42.646-1.334C19.647,49.5,7.972,56.479,7.911,56.515L7.911,56.515z   M8.307,47.479h40.965c0.366,0,0.664-0.297,0.664-0.664v-8.436c0-0.367-0.297-0.664-0.664-0.664H12.745  c-0.367,0-0.799,0.297-0.965,0.664l-3.835,8.436C7.778,47.182,7.94,47.479,8.307,47.479L8.307,47.479z M63.049,40.143  c-1.962-1.607-3.855-2.082-6.702-2.275c-0.647-0.043-1.261-0.08-1.841-0.108l-2.019-0.044c-0.366,0-0.663,0.297-0.663,0.664v8.436  c0,0.366,0.298,0.664,0.663,0.664h10.562V40.143L63.049,40.143z M64.604,41.632c-0.259-0.282-0.513-0.543-0.763-0.784v6.631h5.261  L64.604,41.632L64.604,41.632z M35.771,35.467c7.472,0.066,14.236,0.143,15.554,0.206c0.872,0.041,2.001,0.034,3.261,0.113  c-0.317-1.1-1.439-2.021-3.72-2.021H35.34C35.383,34.456,35.542,35.061,35.771,35.467L35.771,35.467z M15.53,35.324  c3.727,0.017,11.426,0.068,18.753,0.13c0.224-0.427,0.375-1.017,0.417-1.69H19.062C17.109,33.765,16.007,34.439,15.53,35.324  L15.53,35.324z M78.639,60.919c0,0.76,0.1,1.498,0.288,2.199h-1.886H29.937c0.198-0.713,0.304-1.465,0.304-2.24  c0-0.113-0.002-0.229-0.006-0.34l-0.003-0.068c-0.03-0.338-0.31-0.598-0.656-0.598h-1.787H15.931h-1.787  c-0.338,0-0.617,0.25-0.659,0.578c-0.007,0.141-0.011,0.283-0.011,0.428c0,0.512,0.046,1.014,0.134,1.5  c-1.085-0.141-2.208-0.307-3.354-0.506H1.125c-0.366,0-0.664-0.297-0.664-0.662v-1.207c0-0.365,0.297-0.664,0.664-0.664h2.121  c-0.673-1.113-0.752-2.776-0.417-5.047c0.593-4.001,6.938-17.344,6.938-17.344s0.387-0.744,1.4-1.221  c0.604-0.286,1.487-0.408,2.494-0.408h0.395c0.769-1.328,2.813-2.181,5.008-2.181h31.802c2.513,0,4.829,1.119,5.259,2.787  c2.706,0.335,5.741,1.23,8.086,3.783c3.964,4.319,6.583,7.816,6.583,7.816s13.336,0.087,27.279,1.436  c3.11,0.3,0.735,5.293,0.178,6.709c0,0-0.957,1.966-1.242,3.67h1.518c0.366,0,0.664,0.299,0.664,0.664v1.207  c0,0.365-0.298,0.662-0.664,0.662h-2.986c0.016-0.312,0.033-0.631,0.033-0.953c0-4.676-3.792-8.467-8.468-8.467  C82.43,52.452,78.639,56.243,78.639,60.919L78.639,60.919z M14.853,60.913l0.001-0.146h2.52l-0.002,0.146  c0,2.498,2.025,4.523,4.523,4.523c2.499,0,4.523-2.025,4.523-4.523l-0.002-0.146h2.521l0.001,0.146c0,3.891-3.153,7.043-7.043,7.043  S14.853,64.804,14.853,60.913L14.853,60.913z M18.504,60.913l0.003-0.146h0.379c-0.002,0.049-0.003,0.098-0.003,0.146  c0,1.664,1.349,3.014,3.013,3.014c1.665,0,3.014-1.35,3.014-3.014c0-0.049-0.001-0.098-0.004-0.146h0.379l0.003,0.146  c0,1.873-1.519,3.393-3.392,3.393C20.023,64.306,18.504,62.786,18.504,60.913L18.504,60.913z M20.226,60.913  c0-0.049,0.002-0.098,0.006-0.146h3.327c0.005,0.049,0.007,0.098,0.007,0.146c0,0.922-0.748,1.67-1.67,1.67  S20.226,61.835,20.226,60.913L20.226,60.913z"/>
</svg>