<svg xmlns="http://www.w3.org/2000/svg" xmlns:xlink="http://www.w3.org/1999/xlink" version="1.1" id="Layer_1" x="0px" y="0px" width="100px" height="100px" viewBox="0 0 100 100" enable-background="new 0 0 100 100" xml:space="preserve">
<path d="M74.842,15.925v-2.233c0.003-0.424-0.204-0.821-0.55-1.064c-0.346-0.242-0.791-0.3-1.188-0.154L37.527,25.503  c-0.516,0.188-0.855,0.682-0.85,1.23l0.01,0.901v42.181c-0.713-0.177-1.449-0.302-2.219-0.302c-4.914,0-8.913,3.827-8.913,8.523  c0,4.703,3.999,8.524,8.913,8.524s8.913-3.821,8.913-8.524V39.974l24.776-9.118v27.445c-0.713-0.177-1.446-0.299-2.216-0.299  c-4.917,0-8.915,3.821-8.915,8.521c0,4.7,3.998,8.524,8.915,8.524c4.913,0,8.914-3.824,8.914-8.524v-50.54  C74.855,15.962,74.842,15.946,74.842,15.925z"/>
</svg>