<svg xmlns="http://www.w3.org/2000/svg" xmlns:xlink="http://www.w3.org/1999/xlink" version="1.1" id="Layer_1" x="0px" y="0px" width="100px" height="100px" viewBox="0 0 100 100" enable-background="new 0 0 100 100" xml:space="preserve">
<path d="M59.735,25.152c0.004,3.391,2.789,6.131,6.211,6.126c3.443-0.005,6.218-2.752,6.214-6.143  c-0.007-3.383-2.787-6.127-6.23-6.122C62.507,19.017,59.73,21.769,59.735,25.152z"/>
<path d="M75.094,82.085L62.216,57.399l5.258-20.451c0.381-1.685-0.866-3.403-2.589-3.688l-26.632-4.717  c-0.047-0.009-0.091-0.015-0.136-0.022l-0.034-0.006l-0.004,0.002c-0.17-0.029-0.34-0.052-0.519-0.052  c-1.761,0.002-3.184,1.432-3.182,3.192c0,0.038,0.011,0.072,0.013,0.11c0.002,0.129,0.019,0.254,0.036,0.379  c0.011,0.058,0.013,0.119,0.021,0.175c0.244,1.242,1.221,2.271,2.532,2.5l15.875,2.835L46.79,61.904  c-0.123,0.512-0.229,1.671-0.143,2.202l2.798,20.696c0.34,1.992,2.26,3.33,4.28,2.991c2.022-0.341,3.377-2.213,3.04-4.217  l-2.704-20.121c0-0.017,0.911-3.741,0.911-3.741c0.067,0.168,13.682,26.028,13.682,26.028c1.031,1.749,3.295,2.363,5.082,1.345  C75.501,86.083,76.117,83.834,75.094,82.085z"/>
<path d="M31.727,26.307c-4.342,0-7.873-3.5-7.873-7.802c0.002-4.298,3.532-7.796,7.873-7.796c4.351,0,7.892,3.498,7.892,7.796  C39.619,22.808,36.078,26.307,31.727,26.307L31.727,26.307z M31.727,13.435c-2.836,0-5.145,2.276-5.147,5.071  c0,2.799,2.31,5.076,5.147,5.076c2.848,0,5.166-2.277,5.166-5.077C36.893,15.71,34.575,13.435,31.727,13.435L31.727,13.435z"/>
</svg>