<svg xmlns="http://www.w3.org/2000/svg" xmlns:xlink="http://www.w3.org/1999/xlink" version="1.1" id="Layer_1" x="0px" y="0px" width="100px" height="100px" viewBox="0 0 100 100" enable-background="new 0 0 100 100" xml:space="preserve">
<path d="M60.72,82.826c0-1.145-0.92-2.072-2.058-2.072c-1.139,0-2.058,0.926-2.058,2.072c0,1.151,0.919,2.084,2.058,2.084  C59.8,84.91,60.72,83.974,60.72,82.826z"/>
<path d="M35.943,82.766c0-1.15-0.917-2.086-2.048-2.086c-1.142,0-2.064,0.936-2.064,2.086c0,1.163,0.922,2.104,2.064,2.104  C35.026,84.869,35.943,83.929,35.943,82.766z"/>
<path d="M30.293,78.71c0,0-1.594-0.112-1.594-1.32v-0.113c0-1.209,1.594-1.322,1.594-1.322h32.418c0,0,1.587,0.083,1.587,1.322  v0.113c0,1.258-1.587,1.32-1.587,1.32H30.293z"/>
<path d="M38.861,19.23c0-2.892-2.353-5.236-5.247-5.236c-2.893,0-5.238,2.344-5.238,5.238c0,2.894,2.345,5.246,5.238,5.246  C36.51,24.478,38.861,22.125,38.861,19.23z"/>
<path d="M46.961,28.392l17.958,20.821l12.147-0.034c0.278-0.008,0.563,0.014,0.851,0.082c1.824,0.405,2.956,2.191,2.539,4.019  c-0.355,1.598-1.789,2.68-3.366,2.65l-14.121-0.025c-2.987,0.109-4.116-1.284-4.116-1.284l-6.964-7.763l-8.091,7.867l3.278,14.604  c0.078,0.272,0.109,0.559,0.109,0.853c0,1.871-1.516,3.389-3.39,3.389c-1.632,0-3.001-1.16-3.318-2.707l-3.992-17.798  c-0.86-2.776,0.641-4.17,0.641-4.17l7.126-7.126l-7.777-8.991l-4.973,4.999c0,0-1.981,2.084-4.442-0.37l-8.106-8.171  c-0.388-0.471-0.613-1.066-0.613-1.725c0-1.501,1.214-2.723,2.725-2.723c0.664,0,1.273,0.241,1.748,0.638l6.723,6.712l8.115-8.113  c0.62-0.595,1.455-0.97,2.391-0.97l12.726,0.003c0.82,0,1.549,0.376,2.036,0.955l8.79,10.125c0.549,0.482,0.89,1.187,0.89,1.976  c0,1.454-1.176,2.634-2.639,2.634c-0.819,0-1.555-0.367-2.035-0.964l-8.153-9.415L46.961,28.392z"/>
</svg>