<svg xmlns="http://www.w3.org/2000/svg" xmlns:xlink="http://www.w3.org/1999/xlink" version="1.1" id="Layer_1" x="0px" y="0px" width="100px" height="100px" viewBox="0 0 100 100" enable-background="new 0 0 100 100" xml:space="preserve">
<path d="M67.406,69.397c0.004,3.586,2.95,6.484,6.57,6.478c3.642-0.006,6.575-2.909,6.57-6.496  c-0.007-3.579-2.947-6.481-6.588-6.476C70.34,62.908,67.403,65.818,67.406,69.397z"/>
<path d="M65.772,53.862l-27.483,8.299c3.498,1.32,7.014,1.038,11.416,4.777c3.349,2.842,7.166,21.457,7.166,21.457  s1.307,0.952,4.532-0.086s3.411-2.314,3.411-2.314s-7.122-17.613-5.905-21.837C60.505,58.609,63.591,56.898,65.772,53.862z"/>
<path d="M68.743,31.591c-4.252-14.08-18.383-21.459-30.102-17.919c-11.72,3.537-19.405,17.505-15.152,31.586  c2.283,7.564,7.042,12.407,12.609,15.821c0.012,0.007,0.022,0.013,0.032,0.02l30.853-9.315c0.004-0.013,0.009-0.022,0.015-0.035  C69.745,45.824,71.029,39.157,68.743,31.591z"/>
</svg>