<svg xmlns="http://www.w3.org/2000/svg" xmlns:xlink="http://www.w3.org/1999/xlink" version="1.0" id="Layer_1" x="0px" y="0px" width="84.726px" height="100px" viewBox="0 0 84.726 100" enable-background="new 0 0 84.726 100" xml:space="preserve">
<path d="M44.805,0c-9.203,0-18.388,3.191-25.822,9.511c-0.482,0.368-0.943,0.765-1.386,1.187L16.21,9.312  c1.332-1.241,2.711-2.411,4.166-3.459l-2.06-2.062c-1.438,1.056-2.81,2.237-4.142,3.486l-2.248-2.248l2.564-1.203  c-2.493-0.171-5.738-1.223-8.109-2.311c1.088,2.374,2.141,5.617,2.311,8.111L9.895,7.06l2.234,2.234  C-4.364,26.862-4.039,54.466,13.12,71.625c8.036,8.036,18.359,12.37,28.873,13.026v2.051c0,8.324-27.483,5.021-27.483,7.666  c0,0.021,0.035,0.04,0.043,0.062h-0.101v2.509c0,1.214,0.67,1.992,9.955,2.564C29.619,99.824,36.63,100,44.146,100  c7.519,0,14.531-0.176,19.742-0.497c9.284-0.572,9.955-1.351,9.955-2.564v-2.509h-0.098c0.008-0.021,0.043-0.04,0.043-0.062  c0-2.646-27.486,0.658-27.486-7.666v-1.987c10.515-0.35,20.927-4.384,29.146-12.099l1.114,1.114  c-0.379,1.129-0.129,2.423,0.77,3.321c1.265,1.268,3.318,1.268,4.583,0c1.268-1.265,1.268-3.318,0-4.584  c-0.898-0.9-2.188-1.147-3.318-0.769l-1.128-1.128c1.248-1.331,2.43-2.704,3.486-4.142l-2.066-2.067  c-1.041,1.451-2.211,2.836-3.456,4.172l-1.393-1.393c0.33-0.345,0.629-0.712,0.926-1.081c13.611-15.689,12.997-39.446-1.918-54.362  C65.247,3.899,55.027-0.001,44.808,0H44.805z M30.689,5.65c4.418-1.819,9.193-2.775,14.115-2.776h0.003  c9.9,0,19.207,3.855,26.206,10.856c0.24,0.241,0.444,0.504,0.677,0.75c-3.337,0.557-6.965,1.984-10.672,3.994  c-9.394-8.339-20.232-12.86-29.391-12.861L30.689,5.65z M31.627,8.487c8.57,0,18.331,4.241,26.769,11.499  c-4.987,3.028-9.995,6.933-14.475,10.988c-9.149-8.697-18.244-16.102-23.743-18.68c0.188-0.167,0.368-0.344,0.559-0.506  c2.837-2.158,6.555-3.3,10.887-3.301H31.627z M73.971,17.11c8.346,10.65,10.06,24.834,5.104,36.928  c0.35-10.231-5.067-22.749-15.344-33.025c-0.157-0.157-0.317-0.303-0.475-0.457C67.306,18.467,70.97,17.261,73.971,17.11z   M60.624,22.01c0.359,0.342,0.722,0.681,1.076,1.035c7.156,7.158,12.079,15.637,13.857,23.877c1.497,6.932,0.571,12.89-2.57,17.044  c-0.174,0.202-0.361,0.396-0.538,0.595c-3.327-7.092-14.687-20.163-26.458-31.594C50.988,28.446,55.994,24.722,60.624,22.01z   M46.839,37.908C60.813,51.883,68.789,62.4,70.288,66.671c-2.835,2.144-6.542,3.279-10.859,3.279  c-9.718,0-20.962-5.44-30.077-14.557c-0.497-0.497-0.956-1.014-1.431-1.522c3.432-5.383,8.122-11.173,13.751-16.8  c0.722-0.723,1.448-1.426,2.174-2.117C44.825,35.909,45.821,36.89,46.839,37.908z M24.33,54.206  c-2.569,4.297-4.447,8.559-5.182,12.443c-0.179-0.174-0.373-0.322-0.55-0.499C6.81,54.361,4.646,36.543,12.091,22.531  C11.065,32.058,15.424,43.948,24.33,54.206z M26.374,56.417c0.321,0.334,0.616,0.679,0.947,1.01  c9.964,9.966,22.053,15.397,32.108,15.397c0.969,0,1.909-0.069,2.837-0.172c-5.309,2.842-11.27,4.351-17.461,4.351  c-8.495,0-16.542-2.856-23.079-8.083C22.018,65.449,23.653,61.142,26.374,56.417z M18.079,14.459  c3.738,1.314,12.26,7.594,23.696,18.504c-0.729,0.693-1.444,1.387-2.134,2.077c-4.833,4.832-9.813,10.677-13.701,16.601  c-5.295-6.28-8.969-13.279-10.448-20.124C13.993,24.577,14.924,18.614,18.079,14.459z M71.688,95.156v1.277  c-5.128,1.914-49.948,1.914-55.079,0v-1.277C25.76,96.75,62.53,96.75,71.688,95.156z M44.805,81.877  c-11.201,0-21.733-4.364-29.653-12.284c-16.01-16.011-16.333-41.844-0.99-58.267l1.438,1.438  C1.016,28.428,1.31,52.928,16.563,68.181c7.798,7.798,18.02,11.697,28.241,11.697c9.771,0,19.518-3.605,27.175-10.731l1.439,1.438  C65.624,77.872,55.526,81.877,44.805,81.877z"/>
</svg>