<svg xmlns="http://www.w3.org/2000/svg" xmlns:xlink="http://www.w3.org/1999/xlink" version="1.0" x="0px" y="0px" width="87.778px" height="100px" viewBox="0 0 87.778 100" enable-background="new 0 0 87.778 100" xml:space="preserve">
<g id="Layer_1">
</g>
<g id="Layer_2">
	<path d="M70.307,14.579l-0.214-0.081l-0.123-0.191C66.111,8.318,59.805,3.77,52.212,1.5C48.882,0.505,45.322,0,41.63,0   C29.613,0,18.269,5.316,13.4,13.229l-0.114,0.184L13.089,13.5c-5.724,2.504-10.272,8.227-12.17,15.307   C-1.14,36.49,0.299,44.455,4.867,50.66c3.425,4.653,7.066,6.915,11.133,6.915c1.584,0,3.238-0.336,5.032-1.019   c4.985-2.353,7.275-5.136,7.358-5.239c0.126-0.162,0.323-0.267,0.545-0.267c0.382,0,0.691,0.31,0.691,0.691   c0,0.621-2.333,2.68-4.266,3.972c-0.304,0.203-0.635,0.415-0.991,0.63c2.243,0.19,6.034,0.447,10.149,0.447   c8.055,0,13.891-0.976,16.877-2.822l0.364-0.225l0.363,0.226c3.448,2.14,7.985,2.645,9.924,2.86   c0.725,0.081,0.943,0.105,1.133,0.202c2.975,1.524,6.126,2.33,9.114,2.33c7.092,0,12.683-4.387,14.591-11.448   C89.453,38.412,87.223,20.96,70.307,14.579z"/>
	<path d="M51.961,77.67c1.24-6.472,4.543-14.176,8.498-19.641c-2.279-0.307-5.768-0.965-8.702-2.669   c-0.041,0.023-0.087,0.044-0.129,0.067c-0.882,2.965-2.245,6.166-3.409,9.211c-0.832,2.179-1.223,7.187-2.039,11.41   c-0.033-0.104-0.526-1.587-0.56-1.685c-1.501-4.401-2.728-7.654-3.422-12.266c-0.255-1.685-0.071-3.162,0.532-4.33   c-2.398,0.27-5.138,0.405-8.211,0.405c-3.728,0-7.192-0.208-9.508-0.39c1.806,2.253,3.841,4.404,6.062,6.65   c6.163,6.234,9.017,14.276,10.333,22.817c0.211,1.364,0.648,3.628,0.949,6.422c0.301,2.793-0.453,4.987-0.648,6.327h8.054   c-0.159-1.408-0.643-3.808-0.499-6.609C49.406,90.588,51.504,80.055,51.961,77.67z"/>
</g>
</svg>