<svg xmlns="http://www.w3.org/2000/svg" xmlns:xlink="http://www.w3.org/1999/xlink" version="1.0" id="Layer_1" x="0px" y="0px" width="39.817px" height="100px" viewBox="0 0 39.817 100" enable-background="new 0 0 39.817 100" xml:space="preserve">
<path d="M19.909,97.501c-8.027,0-16.467-2.085-19.099-5.998c-0.148,0.368-0.226,0.745-0.226,1.129c0,4.069,8.652,7.367,19.325,7.367  s19.325-3.298,19.325-7.367c0-0.384-0.077-0.761-0.226-1.129C36.375,95.416,27.936,97.501,19.909,97.501z"/>
<path d="M38.721,88.885l1.097-68.98c-1.433,4.285-9.8,7.573-19.909,7.573C9.799,27.478,1.433,24.189,0,19.905l1.097,68.98  c0,4.069,8.422,7.367,18.812,7.367C30.298,96.252,38.721,92.954,38.721,88.885z"/>
<g>
	<path d="M35.361,15.317c-2.897-4.493-3.422-7.723-10.64-8.63v2.48c0,1.975-3.684,2.128-4.813,2.128   c-1.129,0-4.813-0.153-4.813-2.128v-2.42C6.442,8.041,6.888,12.96,4.704,15.465c-0.651,0.747-3.607,2.2-3.607,3.033   c0,4.069,8.422,7.367,18.812,7.367c10.389,0,18.812-3.298,18.812-7.367C38.721,17.479,36.318,16.8,35.361,15.317z"/>
</g>
<path d="M19.909,3.31c-0.784,0-2.8-0.075-3.959-0.782v6.64c0,0.652,1.772,1.181,3.959,1.181s3.958-0.528,3.958-1.181v-6.64  C22.709,3.234,20.692,3.31,19.909,3.31z M19.909,7.675c-0.681,0-1.232-0.528-1.232-1.18c0-0.652,0.552-1.181,1.232-1.181  c0.68,0,1.232,0.528,1.232,1.181C21.141,7.146,20.589,7.675,19.909,7.675z"/>
<path d="M19.909,0c2.187,0,3.958,0.529,3.958,1.181c0,0.652-1.771,1.181-3.958,1.181S15.95,1.833,15.95,1.181  C15.95,0.529,17.722,0,19.909,0"/>
</svg>