<svg xmlns="http://www.w3.org/2000/svg" xmlns:xlink="http://www.w3.org/1999/xlink" version="1.1" id="Layer_1" x="0px" y="0px" width="100px" height="96.154px" viewBox="0 0 100 96.154" enable-background="new 0 0 100 96.154" xml:space="preserve">
<path d="M80.69,21.948c-3.79,0-6.874-3.085-6.874-6.876c0-3.792,3.084-6.878,6.874-6.878c3.795,0,6.882,3.085,6.882,6.878  C87.572,18.864,84.485,21.948,80.69,21.948z M80.69,8.694c-3.515,0-6.374,2.861-6.374,6.378c0,3.516,2.859,6.376,6.374,6.376  c3.519,0,6.382-2.86,6.382-6.376C87.072,11.555,84.209,8.694,80.69,8.694z"/>
<path d="M87.332,89.926c-2.187,0-3.966-1.779-3.966-3.966l0.011-30.92H82.22l-0.001,30.92c0,2.187-1.778,3.966-3.965,3.966  s-3.965-1.779-3.965-3.966l0.006-53.483h-1.163v19.55c0,2.11-1.44,3.215-2.862,3.215c-1.423,0-2.863-1.104-2.863-3.215V31.679  c0-5.209,3.241-8.848,7.883-8.848l14.852,0.007c5.485,0,7.984,4.646,7.984,8.962v20.226c0.004,1.002-0.307,1.845-0.896,2.438  c-0.515,0.516-1.203,0.8-1.939,0.8c-1.414,0-2.846-1.112-2.846-3.237V32.474h-1.13L91.297,85.96  C91.297,88.146,89.519,89.926,87.332,89.926z M81.72,54.54h2.157l-0.011,31.42c0,1.911,1.555,3.466,3.466,3.466  c1.91,0,3.465-1.555,3.465-3.466l0.017-53.985h2.13v20.052c0,1.881,1.216,2.737,2.346,2.737c0.603,0,1.165-0.231,1.585-0.653  c0.494-0.495,0.754-1.216,0.751-2.083V31.801c0-4.076-2.342-8.462-7.484-8.462l-14.852-0.007c-4.347,0-7.383,3.433-7.383,8.348  v20.347c0,1.865,1.225,2.715,2.363,2.715c1.138,0,2.362-0.85,2.362-2.715v-20.05h2.163L74.789,85.96  c0,1.911,1.555,3.466,3.465,3.466s3.465-1.555,3.465-3.466L81.72,54.54z"/>
<path d="M24.204,89.932c-0.856,0-1.656-0.291-2.253-0.818c-0.677-0.598-1.034-1.445-1.034-2.45V65.296h-2.031l-5.319,21.397  c0.007,2.105-1.651,3.238-3.289,3.238S6.98,88.799,6.98,86.633l5.301-21.183h-8.16l8.748-30.341h-0.851L6.986,52.047  c-0.552,1.704-1.853,2.31-2.886,2.31c-0.92,0-1.796-0.436-2.343-1.166c-0.611-0.815-0.758-1.91-0.414-3.083L6.99,31.51  c0.521-1.819,2.279-6.058,7.342-6.058h11.125c4.684,0,6.646,3.792,7.398,6.052l5.654,18.584c0.336,1.191,0.175,2.302-0.453,3.132  c-0.551,0.728-1.417,1.162-2.317,1.162c-1.335,0-2.411-0.895-2.876-2.392l-5.033-16.881h-0.96l8.814,30.34H27.48v21.215  C27.48,88.909,25.782,89.932,24.204,89.932z M18.495,64.796h2.921v21.868c0,0.857,0.299,1.575,0.865,2.075  c0.505,0.447,1.188,0.693,1.922,0.693c1.337,0,2.777-0.866,2.777-2.769V64.949h8.039l-8.814-30.34h2l5.138,17.235  c0.396,1.274,1.293,2.037,2.398,2.037c0.745,0,1.461-0.36,1.918-0.964c0.531-0.702,0.663-1.656,0.371-2.688l-5.65-18.574  c-0.708-2.126-2.552-5.704-6.922-5.704H14.332c-4.722,0-6.372,3.986-6.862,5.7L1.822,50.25c-0.298,1.016-0.179,1.954,0.335,2.641  c0.453,0.605,1.179,0.966,1.942,0.966c1.111,0,2.012-0.731,2.409-1.958l5.137-17.289h1.888L4.786,64.95h8.137L7.473,86.693  c0.007,1.862,1.457,2.738,2.804,2.738s2.796-0.876,2.796-2.799L18.495,64.796z"/>
<path d="M21.606,25.202c-3.773,0-6.843-3.069-6.843-6.842c0-3.772,3.07-6.841,6.843-6.841c3.771,0,6.84,3.069,6.84,6.841  C28.446,22.133,25.377,25.202,21.606,25.202z M21.606,12.019c-3.498,0-6.343,2.844-6.343,6.341c0,3.497,2.845,6.342,6.343,6.342  c3.496,0,6.34-2.845,6.34-6.342C27.946,14.863,25.102,12.019,21.606,12.019z"/>
<path d="M52.934,43.137l-0.052-0.25v-0.25l0.06,0c0.305,0,0.616-0.033,0.918-0.097l0.104,0.489  C53.628,43.101,53.281,43.137,52.934,43.137z M51.852,43.018c-0.335-0.075-0.666-0.186-0.981-0.33l0.207-0.455  c0.284,0.13,0.582,0.23,0.884,0.297L51.852,43.018z M54.948,42.709l-0.203-0.457c0.282-0.126,0.554-0.283,0.807-0.466l0.293,0.405  C55.564,42.394,55.263,42.569,54.948,42.709z M49.979,42.161c-0.277-0.205-0.534-0.441-0.763-0.701l0.375-0.331  c0.206,0.234,0.437,0.445,0.686,0.629L49.979,42.161z M56.616,41.5l-0.371-0.335c0.208-0.23,0.393-0.483,0.55-0.752l0.432,0.252  C57.052,40.964,56.847,41.245,56.616,41.5z M48.614,40.617c-0.17-0.299-0.31-0.619-0.414-0.95l0.477-0.15  c0.094,0.297,0.219,0.584,0.372,0.853L48.614,40.617z M57.649,39.719l-0.475-0.155c0.097-0.297,0.162-0.604,0.193-0.91l0.498,0.051  C57.831,39.046,57.758,39.387,57.649,39.719z M47.995,38.653c-0.015-0.157-0.022-0.315-0.022-0.476c0-0.189,0.011-0.376,0.031-0.559  l0.497,0.056c-0.019,0.166-0.028,0.333-0.028,0.504c0,0.144,0.007,0.287,0.021,0.428L47.995,38.653z M57.371,37.721  c-0.03-0.308-0.095-0.615-0.189-0.912l0.477-0.152c0.105,0.33,0.177,0.671,0.211,1.014L57.371,37.721z M48.7,36.764l-0.475-0.157  c0.109-0.328,0.253-0.645,0.428-0.943l0.432,0.253C48.927,36.185,48.798,36.47,48.7,36.764z M56.807,35.958  c-0.154-0.27-0.338-0.523-0.546-0.755l0.373-0.334c0.23,0.258,0.435,0.541,0.606,0.84L56.807,35.958z M49.637,35.168l-0.369-0.337  c0.233-0.255,0.494-0.487,0.774-0.688l0.291,0.406C50.081,34.73,49.847,34.938,49.637,35.168z M55.571,34.577  c-0.251-0.184-0.521-0.342-0.804-0.469l0.205-0.456c0.314,0.142,0.615,0.317,0.894,0.522L55.571,34.577z M51.142,34.089  l-0.199-0.458c0.316-0.138,0.648-0.243,0.987-0.313l0.1,0.49C51.726,33.87,51.427,33.965,51.142,34.089z M53.883,33.818  c-0.303-0.065-0.614-0.099-0.925-0.101l0.002-0.5c0.347,0.002,0.692,0.04,1.028,0.112L53.883,33.818z"/>
<g>
	<path fill="none" d="M52.934,38.177"/>
</g>
<g>
	<rect x="52.434" y="52.495" width="0.999" height="0.5"/>
	<path d="M51.635,52.996h-0.799v-0.5h0.799V52.996z M50.037,52.996h-0.799v-0.5h0.799V52.996z"/>
	<polygon points="48.439,52.996 47.689,52.996 47.689,52.246 48.189,52.246 48.189,52.496 48.439,52.496  "/>
	<rect x="47.689" y="50.502" width="0.5" height="0.872"/>
	<polygon points="47.765,49.662 47.689,49.631 47.689,49.587 47.41,49.31 48.189,48.522 48.189,49.631 47.796,49.631  "/>
	<path d="M62.502,53.782c-0.328-0.105-0.629-0.302-0.895-0.583l0.33-0.377c0.241,0.253,0.471,0.404,0.717,0.483L62.502,53.782z    M63.636,53.768l-0.162-0.473c0.264-0.09,0.504-0.264,0.675-0.49l0.398,0.303C64.315,53.413,63.992,53.647,63.636,53.768z    M43.318,53.766l-0.144-0.479c0.261-0.078,0.511-0.23,0.742-0.451l0.346,0.361C43.974,53.474,43.656,53.665,43.318,53.766z    M42.189,53.753c-0.365-0.123-0.688-0.361-0.911-0.672l0.406-0.291c0.162,0.226,0.397,0.399,0.664,0.488L42.189,53.753z    M44.967,52.487l-0.355-0.352l0.7-0.706l0.355,0.352L44.967,52.487z M60.881,52.473l-0.703-0.703l0.354-0.354l0.703,0.703   L60.881,52.473z M64.416,52.035c-0.001-0.27-0.092-0.531-0.27-0.78l0.406-0.291c0.236,0.33,0.362,0.699,0.363,1.069L64.416,52.035z    M41.452,52.011l-0.499-0.021c0.016-0.361,0.147-0.726,0.38-1.055l0.408,0.289C41.561,51.478,41.464,51.743,41.452,52.011z    M46.366,51.074l-0.355-0.352l0.699-0.706l0.355,0.352L46.366,51.074z M59.475,51.068l-0.703-0.703l0.354-0.354l0.703,0.703   L59.475,51.068z M63.492,50.563l-0.702-0.704l0.354-0.354l0.702,0.704L63.492,50.563z M42.391,50.529l-0.354-0.354l0.702-0.704   l0.354,0.354L42.391,50.529z M62.089,49.155l-0.702-0.704l0.354-0.354l0.702,0.704L62.089,49.155z M43.794,49.122l-0.354-0.354   l0.702-0.704l0.354,0.353L43.794,49.122z M60.685,47.748l-0.702-0.704l0.354-0.354l0.702,0.704L60.685,47.748z M45.198,47.714   l-0.354-0.354l0.702-0.704L45.9,47.01L45.198,47.714z M59.281,46.34l-0.702-0.704l0.354-0.354l0.702,0.704L59.281,46.34z    M46.602,46.305l-0.354-0.353l0.702-0.704l0.354,0.353L46.602,46.305z M57.877,44.932l-0.315-0.316   c-0.124-0.122-0.254-0.231-0.385-0.324l0.287-0.409c0.154,0.108,0.306,0.236,0.45,0.379l0.316,0.318L57.877,44.932z M48.005,44.897   l-0.354-0.353l0.281-0.282c0.169-0.166,0.33-0.299,0.492-0.412l0.284,0.411c-0.139,0.096-0.277,0.212-0.424,0.355L48.005,44.897z    M56.363,43.927c-0.196-0.046-0.403-0.069-0.631-0.071h-0.301v-0.5h0.303c0.267,0.002,0.509,0.029,0.742,0.083L56.363,43.927z    M49.522,43.912l-0.101-0.489c0.203-0.042,0.422-0.064,0.653-0.066h0.387v0.5h-0.384C49.878,43.858,49.696,43.876,49.522,43.912z    M54.438,43.856h-0.994v-0.5h0.994V43.856z M52.449,43.856h-0.994v-0.5h0.994V43.856z"/>
	<polygon points="58.048,49.642 58.018,49.612 57.621,49.612 57.621,48.509 58.401,49.289  "/>
	<rect x="57.621" y="50.49" width="0.5" height="0.878"/>
	<polygon points="58.121,52.995 57.371,52.995 57.371,52.495 57.621,52.495 57.621,52.245 58.121,52.245  "/>
	<path d="M56.584,52.995h-0.787v-0.5h0.787V52.995z M55.009,52.995h-0.787v-0.5h0.787V52.995z"/>
</g>
<g>
	<polygon points="57.676,55.131 57.322,54.777 57.853,54.247 58.381,54.775 58.027,55.129 57.853,54.954  "/>
	<path d="M55.245,57.561l-0.354-0.354l0.608-0.608l0.354,0.354L55.245,57.561z M56.461,56.345l-0.354-0.354l0.607-0.607l0.354,0.354   L56.461,56.345z"/>
	<polygon points="54.285,58.876 53.753,58.346 54.284,57.815 54.638,58.169 54.462,58.344 54.639,58.52  "/>
	<rect x="55.006" y="59.467" transform="matrix(0.7101 0.7041 -0.7041 0.7101 58.1282 -21.7572)" width="0.964" height="0.5"/>
	<polygon points="56.691,61.619 56.338,61.265 56.514,61.09 56.337,60.914 56.69,60.558 57.223,61.088  "/>
	<path d="M55.098,67.076c-0.121,0-0.242-0.013-0.359-0.036l0.102-0.49c0.274,0.057,0.568,0.021,0.843-0.107l0.211,0.453   C55.637,67.015,55.369,67.076,55.098,67.076z M53.731,66.464c-0.27-0.291-0.446-0.663-0.495-1.05l0.496-0.062   c0.036,0.283,0.166,0.558,0.366,0.772L53.731,66.464z M56.766,66.209l-0.361-0.346l0.71-0.74l0.361,0.346L56.766,66.209z    M58.185,64.729l-0.361-0.346l0.71-0.739l0.361,0.346L58.185,64.729z M53.9,64.514l-0.439-0.24   c0.105-0.192,0.244-0.375,0.413-0.544l0.29-0.29l0.354,0.354l-0.29,0.29C54.093,64.219,53.982,64.363,53.9,64.514z M59.604,63.25   l-0.361-0.346l0.71-0.739l0.361,0.346L59.604,63.25z M55.242,63.068l-0.354-0.354l0.725-0.725l0.354,0.354L55.242,63.068z    M61.021,61.773l-0.357-0.35c0.21-0.214,0.391-0.481,0.522-0.772l0.455,0.207C61.482,61.207,61.274,61.514,61.021,61.773z    M61.932,59.796l-0.498-0.053c0.01-0.093,0.015-0.186,0.015-0.277c0-0.226-0.028-0.442-0.085-0.645l0.48-0.135   c0.069,0.245,0.104,0.508,0.104,0.779C61.948,59.575,61.943,59.685,61.932,59.796z M60.93,58.033l-0.718-0.72l0.354-0.354   l0.733,0.735L60.93,58.033z M59.485,56.588l-0.725-0.725l0.354-0.354l0.725,0.725L59.485,56.588z"/>
</g>
<g>
	<polygon points="48.116,55.131 47.939,54.954 47.764,55.13 47.411,54.776 47.938,54.246 48.469,54.777  "/>
	<path d="M50.547,57.561l-0.607-0.608l0.354-0.354l0.607,0.608L50.547,57.561z M49.332,56.345l-0.608-0.607l0.354-0.354l0.608,0.607   L49.332,56.345z"/>
	<polygon points="51.509,58.876 51.155,58.522 51.332,58.345 51.155,58.169 51.509,57.815 52.039,58.345  "/>
	<rect x="50.064" y="59.237" transform="matrix(0.7071 0.7071 -0.7071 0.7071 56.9629 -18.0866)" width="0.5" height="0.96"/>
	<polygon points="49.119,61.619 48.589,61.089 49.119,60.558 49.473,60.912 49.296,61.089 49.473,61.265  "/>
	<path d="M50.706,67.077c-0.207,0-0.413-0.036-0.613-0.107l0.167-0.471c0.273,0.096,0.558,0.104,0.828,0.02l0.148,0.479   C51.062,67.05,50.885,67.077,50.706,67.077z M52.171,66.351l-0.393-0.311c0.182-0.229,0.286-0.499,0.303-0.78l0.5,0.029   C52.558,65.674,52.416,66.041,52.171,66.351z M49.176,66.347l-0.696-0.723l0.36-0.348L49.536,66L49.176,66.347z M47.784,64.903   l-0.696-0.723l0.36-0.348l0.696,0.723L47.784,64.903z M51.871,64.447c-0.074-0.125-0.171-0.247-0.287-0.364l-0.337-0.337   l0.354-0.354l0.338,0.338c0.146,0.146,0.267,0.301,0.362,0.461L51.871,64.447z M46.393,63.458l-0.696-0.722l0.36-0.348l0.696,0.722   L46.393,63.458z M50.538,63.037l-0.709-0.709l0.354-0.354l0.709,0.709L50.538,63.037z M45.001,62.013l-0.231-0.24   c-0.164-0.169-0.312-0.363-0.439-0.577l0.43-0.256c0.107,0.181,0.231,0.344,0.369,0.485l0.232,0.24L45.001,62.013z M43.933,60.195   c-0.053-0.24-0.081-0.481-0.081-0.719c0-0.123,0.007-0.244,0.022-0.364l0.496,0.061c-0.012,0.101-0.018,0.202-0.018,0.304   c0,0.2,0.023,0.405,0.069,0.609L43.933,60.195z"/>
	<path d="M44.661,58.321l-0.425-0.264c0.099-0.16,0.216-0.307,0.348-0.438l0.003,0.003c0.059-0.068,0.162-0.172,0.345-0.355   l0.354,0.352c-0.122,0.123-0.217,0.22-0.276,0.279v0.004l-0.074,0.073C44.832,58.078,44.74,58.194,44.661,58.321z"/>
	<rect x="46.095" y="55.615" transform="matrix(0.7081 0.7061 -0.7061 0.7081 53.2133 -16.3205)" width="0.501" height="1.17"/>
</g>
</svg>