<svg xmlns="http://www.w3.org/2000/svg" xmlns:xlink="http://www.w3.org/1999/xlink" version="1.1" id="Layer_1" x="0px" y="0px" width="47.25px" height="100px" viewBox="0 0 47.25 100" enable-background="new 0 0 47.25 100" xml:space="preserve">
<path d="M34.133,74.669l-2.583,0.939l-1.977,0.424l-1.96,0.262l-3.077,0.178l-3.635-0.105L17.9,75.999l-4.075-0.584l-0.201,0.214  l0.1-0.711l0.101,0.497l-0.109-0.495l-0.352,0.042l2.77,20.283l0.05-0.005l-0.006,0.008c1.986,1.244,4.885,1.751,7.726,1.751  c3.365,0,6.65-0.712,8.25-1.754l-0.046-0.062l0.052-0.028l0.009-0.087h0.004l1.924-19.894l-0.012-0.001L34.133,74.669z"/>
<g>
	<defs>
		<path id="SVGID_1_" d="M34.216,73.738l-2.607,0.979l-1.995,0.441l-1.979,0.272l-3.105,0.186l-3.668-0.111l-3.03-0.382    l-4.057-1.083l-0.008-0.062l-0.152,0.021l-0.007-0.003l-0.001,0.003l-0.354,0.045l2.796,21.129l0.051-0.007l-0.007,0.009    c2.006,1.296,4.931,1.824,7.8,1.824c3.396,0,6.713-0.74,8.326-1.826l-0.046-0.066l0.053-0.029l0.009-0.091l0.004,0.001    l1.94-20.724h-0.011L34.216,73.738z"/>
	</defs>
	<clipPath id="SVGID_2_">
		<use xlink:href="#SVGID_1_" overflow="visible"/>
	</clipPath>
	<g clip-path="url(#SVGID_2_)">
		<g>
			<line fill="#000000" stroke="#FFFFFF" stroke-width="0.5" stroke-miterlimit="10" x1="1.324" y1="87.282" x2="8.272" y2="94.096"/>
			<line fill="#000000" stroke="#FFFFFF" stroke-width="0.5" stroke-miterlimit="10" x1="2.987" y1="85.635" x2="9.937" y2="92.446"/>
			<line fill="#000000" stroke="#FFFFFF" stroke-width="0.5" stroke-miterlimit="10" x1="4.799" y1="84.143" x2="11.747" y2="90.954"/>
			<line fill="#000000" stroke="#FFFFFF" stroke-width="0.5" stroke-miterlimit="10" x1="6.164" y1="82.504" x2="13.113" y2="89.315"/>
			<line fill="#000000" stroke="#FFFFFF" stroke-width="0.5" stroke-miterlimit="10" x1="7.562" y1="81.069" x2="14.511" y2="87.882"/>
			<line fill="#000000" stroke="#FFFFFF" stroke-width="0.5" stroke-miterlimit="10" x1="8.78" y1="79.457" x2="15.729" y2="86.27"/>
			
				<line fill="#000000" stroke="#FFFFFF" stroke-width="0.5" stroke-miterlimit="10" x1="10.439" y1="77.955" x2="17.388" y2="84.768"/>
			
				<line fill="#000000" stroke="#FFFFFF" stroke-width="0.5" stroke-miterlimit="10" x1="11.747" y1="76.452" x2="18.696" y2="83.265"/>
			<polyline fill="#000000" stroke="#FFFFFF" stroke-width="0.5" stroke-miterlimit="10" points="13.364,75.388 17.984,79.683      20.062,81.72    "/>
			
				<line fill="#000000" stroke="#FFFFFF" stroke-width="0.5" stroke-miterlimit="10" x1="14.511" y1="73.343" x2="21.459" y2="80.155"/>
			<line fill="#000000" stroke="#FFFFFF" stroke-width="0.5" stroke-miterlimit="10" x1="16.055" y1="71.827" x2="23.004" y2="78.64"/>
			
				<line fill="#000000" stroke="#FFFFFF" stroke-width="0.5" stroke-miterlimit="10" x1="17.388" y1="70.454" x2="24.336" y2="77.266"/>
			
				<line fill="#000000" stroke="#FFFFFF" stroke-width="0.5" stroke-miterlimit="10" x1="18.696" y1="69.015" x2="25.645" y2="75.825"/>
			
				<line fill="#000000" stroke="#FFFFFF" stroke-width="0.5" stroke-miterlimit="10" x1="20.062" y1="67.503" x2="27.011" y2="74.315"/>
			
				<line fill="#000000" stroke="#FFFFFF" stroke-width="0.5" stroke-miterlimit="10" x1="21.459" y1="65.898" x2="28.407" y2="72.711"/>
			
				<line fill="#000000" stroke="#FFFFFF" stroke-width="0.5" stroke-miterlimit="10" x1="22.905" y1="64.381" x2="29.854" y2="71.193"/>
			
				<line fill="#000000" stroke="#FFFFFF" stroke-width="0.5" stroke-miterlimit="10" x1="24.143" y1="62.493" x2="31.091" y2="69.305"/>
		</g>
		<g>
			
				<line fill="#000000" stroke="#FFFFFF" stroke-width="0.5" stroke-miterlimit="10" x1="8.272" y1="94.094" x2="15.221" y2="100.906"/>
			<line fill="#000000" stroke="#FFFFFF" stroke-width="0.5" stroke-miterlimit="10" x1="9.936" y1="92.446" x2="16.885" y2="99.259"/>
			
				<line fill="#000000" stroke="#FFFFFF" stroke-width="0.5" stroke-miterlimit="10" x1="13.113" y1="89.315" x2="20.062" y2="96.125"/>
			
				<line fill="#000000" stroke="#FFFFFF" stroke-width="0.5" stroke-miterlimit="10" x1="14.511" y1="87.882" x2="21.459" y2="94.693"/>
			<line fill="#000000" stroke="#FFFFFF" stroke-width="0.5" stroke-miterlimit="10" x1="15.728" y1="86.27" x2="22.678" y2="93.081"/>
			
				<line fill="#000000" stroke="#FFFFFF" stroke-width="0.5" stroke-miterlimit="10" x1="17.388" y1="84.767" x2="24.336" y2="91.577"/>
			
				<line fill="#000000" stroke="#FFFFFF" stroke-width="0.5" stroke-miterlimit="10" x1="18.695" y1="83.264" x2="25.645" y2="90.074"/>
			<line fill="#000000" stroke="#FFFFFF" stroke-width="0.5" stroke-miterlimit="10" x1="20.062" y1="81.72" x2="27.011" y2="88.531"/>
			
				<line fill="#000000" stroke="#FFFFFF" stroke-width="0.5" stroke-miterlimit="10" x1="21.459" y1="80.154" x2="28.407" y2="86.967"/>
			
				<line fill="#000000" stroke="#FFFFFF" stroke-width="0.5" stroke-miterlimit="10" x1="23.004" y1="78.638" x2="29.952" y2="85.451"/>
			
				<line fill="#000000" stroke="#FFFFFF" stroke-width="0.5" stroke-miterlimit="10" x1="24.336" y1="77.266" x2="31.285" y2="84.078"/>
			
				<line fill="#000000" stroke="#FFFFFF" stroke-width="0.5" stroke-miterlimit="10" x1="25.645" y1="75.825" x2="32.594" y2="82.637"/>
			<line fill="#000000" stroke="#FFFFFF" stroke-width="0.5" stroke-miterlimit="10" x1="27.011" y1="74.315" x2="33.96" y2="81.127"/>
			<line fill="#000000" stroke="#FFFFFF" stroke-width="0.5" stroke-miterlimit="10" x1="28.407" y1="72.71" x2="35.357" y2="79.521"/>
			
				<line fill="#000000" stroke="#FFFFFF" stroke-width="0.5" stroke-miterlimit="10" x1="31.091" y1="69.305" x2="38.039" y2="76.116"/>
		</g>
		<g>
			
				<line fill="#000000" stroke="#FFFFFF" stroke-width="0.5" stroke-miterlimit="10" x1="15.004" y1="100.684" x2="21.953" y2="107.495"/>
			
				<line fill="#000000" stroke="#FFFFFF" stroke-width="0.5" stroke-miterlimit="10" x1="16.668" y1="99.036" x2="23.617" y2="105.847"/>
			
				<line fill="#000000" stroke="#FFFFFF" stroke-width="0.5" stroke-miterlimit="10" x1="18.479" y1="97.543" x2="25.429" y2="104.354"/>
			
				<line fill="#000000" stroke="#FFFFFF" stroke-width="0.5" stroke-miterlimit="10" x1="19.845" y1="95.904" x2="26.794" y2="102.715"/>
			
				<line fill="#000000" stroke="#FFFFFF" stroke-width="0.5" stroke-miterlimit="10" x1="21.242" y1="94.472" x2="28.191" y2="101.282"/>
			<line fill="#000000" stroke="#FFFFFF" stroke-width="0.5" stroke-miterlimit="10" x1="22.461" y1="92.859" x2="29.409" y2="99.67"/>
			
				<line fill="#000000" stroke="#FFFFFF" stroke-width="0.5" stroke-miterlimit="10" x1="24.119" y1="91.356" x2="31.068" y2="98.169"/>
			
				<line fill="#000000" stroke="#FFFFFF" stroke-width="0.5" stroke-miterlimit="10" x1="25.429" y1="89.853" x2="32.377" y2="96.664"/>
			<line fill="#000000" stroke="#FFFFFF" stroke-width="0.5" stroke-miterlimit="10" x1="26.794" y1="88.31" x2="33.743" y2="95.12"/>
			<line fill="#000000" stroke="#FFFFFF" stroke-width="0.5" stroke-miterlimit="10" x1="28.191" y1="86.744" x2="35.14" y2="93.555"/>
			<line fill="#000000" stroke="#FFFFFF" stroke-width="0.5" stroke-miterlimit="10" x1="29.737" y1="85.229" x2="36.685" y2="92.04"/>
			
				<line fill="#000000" stroke="#FFFFFF" stroke-width="0.5" stroke-miterlimit="10" x1="31.068" y1="83.855" x2="38.017" y2="90.667"/>
			
				<line fill="#000000" stroke="#FFFFFF" stroke-width="0.5" stroke-miterlimit="10" x1="32.377" y1="82.414" x2="39.325" y2="89.227"/>
			
				<line fill="#000000" stroke="#FFFFFF" stroke-width="0.5" stroke-miterlimit="10" x1="33.743" y1="80.905" x2="40.692" y2="87.715"/>
			<line fill="#000000" stroke="#FFFFFF" stroke-width="0.5" stroke-miterlimit="10" x1="35.14" y1="79.299" x2="42.089" y2="86.111"/>
			
				<line fill="#000000" stroke="#FFFFFF" stroke-width="0.5" stroke-miterlimit="10" x1="36.587" y1="77.781" x2="43.534" y2="84.595"/>
			
				<line fill="#000000" stroke="#FFFFFF" stroke-width="0.5" stroke-miterlimit="10" x1="37.822" y1="75.895" x2="44.771" y2="82.706"/>
		</g>
	</g>
</g>
<path fill="#000000" stroke="#000000" stroke-miterlimit="10" d="M40.499,48.287c1.557-4.664-3.25-8.487-3.253-8.489  c1.991-4.654-2.047-9.738-3.569-11.42c2.007-5.43-2.351-11.036-3.197-12.053c0.175-0.851,0.25-1.759,0.184-2.739  C29.91,2.475,19.805,0.099,18.696,6.514c-0.195,0.583-0.214,1.127,0.063,1.423c0.668,0.398,0.977-0.922,1.964-1.781l0.955-0.55  c0.954-0.325,1.797,0.042,2.14,1.48c0.394,1.653-1.021,3.81-2.745,4.645c-0.146,0.061-0.282,0.121-0.435,0.183  C8.747,16.701,10.403,24.947,12.93,26.988c-0.799,0.618-1.456,1.279-1.906,2c-1.462,2.334-1.662,5.304,0.198,7.097  c-3.624,2.996-4.672,6.542-2.781,8.968L8.18,45.1c-5.741,4.175-4.621,16.141,10.938,14.17c0.463,0.277,1.205,0.484,2.513,0.598  c1.687,0.146,3.864,0.218,5.484-0.331C35.401,61.854,46.655,56.098,40.499,48.287z"/>
<polygon points="7.813,57.189 9.546,57.494 15.751,57.947 20.391,58.09 25.396,58.081 29.06,58.021 32.179,57.913 34.946,57.755   37.302,57.539 39.646,57.125 39.452,57.506 39.391,58.144 38.607,59.059 37.151,59.336 33.876,59.639 30.22,59.806 27.106,59.879   23.851,59.879 20.482,59.906 18.314,59.843 16.024,59.77 13.792,59.663 11.632,59.506 9.737,59.246 8.935,59.099 8.464,58.815   7.835,57.773 "/>
<polyline points="12.843,71.875 16.9,73.081 21.265,73.606 24.545,73.738 28.194,73.417 31.765,72.744 33.398,72.222 34.452,71.96   34.778,71.96 35.178,72.253 35.37,73.002 35.143,73.691 34.599,74.738 33.857,75.053 33.191,75.329 31.036,75.953 29.35,76.268   27.432,76.5 25.509,76.658 23.748,76.69 22.299,76.658 20.213,76.658 18.51,76.288 16.573,75.932 15.385,75.628 14.308,75.329   13.109,74.859 12.68,73.952 12.207,73.002 12.437,72.296 "/>
<g>
	<path d="M9.388,58.87l0.116,3.35l0.185,3.755l0.177,1.451l0.266,1.28l0.431,0.983l0.653,0.838l0.805,0.709l1.991,1.04l2.782,0.783   l2.542,0.397l4.035,0.281l2.079-0.091l2.805-0.238l2.515-0.427l1.92-0.514l1.331-0.501l1.35-0.681l1.059-0.902l0.692-1.021   l0.318-1.372l0.157-1.688l0.162-2.16l0.13-1.952l0.106-1.714l0.084-1.606l-1.887,0.215l-5.739,0.329c0,0-7.723,0.24-7.846,0.24   c-0.121,0-7.173-0.51-7.173-0.51l-5.189-0.497L9.388,58.87z"/>
	<path d="M9.388,58.87l0.116,3.35l0.185,3.755l0.177,1.451l0.266,1.28l0.431,0.983l0.653,0.838l0.805,0.709l1.883,1.379l2.89,0.444   l2.542,0.397l4.035,0.281l2.079-0.091l2.805-0.238l2.515-0.427l1.92-0.514l1.331-0.501l1.35-0.681l1.059-0.902l0.692-1.021   l0.318-1.372l0.157-1.688l0.162-2.16l0.13-1.952l0.106-1.714l0.084-1.606l-1.887,0.215l-5.739,0.329c0,0-7.723,0.24-7.846,0.24   c-0.121,0-7.173-0.51-7.173-0.51l-5.189-0.497L9.388,58.87z"/>
	<path stroke="#000000" stroke-miterlimit="10" d="M34.778,71.635c0,0,2.299-1.076,2.597-3.125c0.285-1.976,0.704-9.465,0.704-9.465   "/>
	<path stroke="#000000" stroke-miterlimit="10" d="M12.68,71.66c0,0-2.167-1.118-2.596-3.15c-0.431-2.037-0.408-1.838-0.697-9.264"/>
</g>
<path stroke="#000000" stroke-miterlimit="10" d="M12.207,71.146"/>
<path stroke="#BFA158" stroke-miterlimit="10" d="M12.437,71.774" fill="#000000"/>
<path stroke="#000000" stroke-miterlimit="10" d="M13.391,74.432c-0.591-0.344-1.184-0.715-1.184-1.43  c0-0.717,0.604-1.28,1.274-0.941"/>
<path fill="none" stroke="#000000" stroke-miterlimit="10" d="M34.186,74.432c0.593-0.344,1.185-0.715,1.185-1.43  c0-0.717-0.438-1.487-1.543-0.944"/>
<path stroke="#000000" stroke-width="0.75" stroke-miterlimit="10" d="M7.92,57.193c-0.586,0.166,0.536,2.21,1.498,1.996"/>
<path stroke="#000000" stroke-width="0.75" stroke-miterlimit="10" d="M39.452,57.29c0.643,0.189-0.447,1.926-1.396,1.979"/>
<path stroke="#BFA158" stroke-miterlimit="10" d="M8.446,59.414" fill="#000000"/>
<path fill="#000000" stroke="#FFFFFF" stroke-width="0.5" stroke-miterlimit="10" d="M11.224,73.751  c3.291,4.28,21.802,3.477,25.332-0.013"/>
<path fill="#000000" stroke="#FFFFFF" stroke-width="0.5" stroke-miterlimit="10" d="M10.197,71.146  c4.182,3.419,24.331,2.729,27.859-0.761"/>
<g>
	<defs>
		<path id="SVGID_3_" d="M38.404,58.691l0.01-0.175l-1.927,0.215l-5.861,0.329c0,0-7.887,0.24-8.012,0.24    c-0.124,0-7.325-0.51-7.325-0.51l-5.3-0.497l-0.875,0.223l0.014,0.376l-0.275,0.011l0.034,0.865    c0.256,6.466,0.256,6.466,0.664,8.351l0.02,0.091c0.458,2.127,2.692,3.276,2.787,3.325l0.152-0.291l1.32,1.018l2.853,0.627    l2.593,0.215l4.12,0.281l2.123-0.091l2.864-0.238l2.567-0.427l2.072-0.287l1.298-0.379l1.051-0.078l0.861-0.739    c0.102-0.047,1.403-0.792,1.723-2.952c0.291-1.964,0.704-9.182,0.722-9.488L38.404,58.691z"/>
	</defs>
	<clipPath id="SVGID_4_">
		<use xlink:href="#SVGID_3_" overflow="visible"/>
	</clipPath>
	<g clip-path="url(#SVGID_4_)">
		<g>
			<line fill="#000000" stroke="#FFFFFF" stroke-width="0.5" stroke-miterlimit="10" x1="5.323" y1="62.831" x2="12.419" y2="69.641"/>
			<line fill="#000000" stroke="#FFFFFF" stroke-width="0.5" stroke-miterlimit="10" x1="6.75" y1="61.397" x2="13.846" y2="68.209"/>
			<line fill="#000000" stroke="#FFFFFF" stroke-width="0.5" stroke-miterlimit="10" x1="7.994" y1="59.785" x2="15.091" y2="66.597"/>
			<line fill="#000000" stroke="#FFFFFF" stroke-width="0.5" stroke-miterlimit="10" x1="9.688" y1="58.282" x2="16.785" y2="65.095"/>
			<line fill="#000000" stroke="#FFFFFF" stroke-width="0.5" stroke-miterlimit="10" x1="11.024" y1="56.779" x2="18.121" y2="63.59"/>
			<polyline fill="#000000" stroke="#FFFFFF" stroke-width="0.5" stroke-miterlimit="10" points="12.419,55.235 17.394,60.01      19.515,62.047    "/>
			<line fill="#000000" stroke="#FFFFFF" stroke-width="0.5" stroke-miterlimit="10" x1="13.846" y1="53.67" x2="20.942" y2="60.482"/>
			
				<line fill="#000000" stroke="#FFFFFF" stroke-width="0.5" stroke-miterlimit="10" x1="15.424" y1="52.154" x2="22.521" y2="58.967"/>
			<line fill="#000000" stroke="#FFFFFF" stroke-width="0.5" stroke-miterlimit="10" x1="16.785" y1="50.781" x2="23.88" y2="57.594"/>
			
				<line fill="#000000" stroke="#FFFFFF" stroke-width="0.5" stroke-miterlimit="10" x1="18.121" y1="49.342" x2="25.217" y2="56.153"/>
			
				<line fill="#000000" stroke="#FFFFFF" stroke-width="0.5" stroke-miterlimit="10" x1="19.515" y1="47.831" x2="26.611" y2="54.642"/>
			
				<line fill="#000000" stroke="#FFFFFF" stroke-width="0.5" stroke-miterlimit="10" x1="20.942" y1="46.225" x2="28.039" y2="53.037"/>
		</g>
		<g>
			
				<line fill="#000000" stroke="#FFFFFF" stroke-width="0.5" stroke-miterlimit="10" x1="12.419" y1="69.641" x2="19.515" y2="76.453"/>
			
				<line fill="#000000" stroke="#FFFFFF" stroke-width="0.5" stroke-miterlimit="10" x1="13.846" y1="68.209" x2="20.942" y2="75.021"/>
			<line fill="#000000" stroke="#FFFFFF" stroke-width="0.5" stroke-miterlimit="10" x1="15.09" y1="66.597" x2="22.188" y2="73.408"/>
			<line fill="#000000" stroke="#FFFFFF" stroke-width="0.5" stroke-miterlimit="10" x1="16.785" y1="65.094" x2="23.88" y2="71.905"/>
			<line fill="#000000" stroke="#FFFFFF" stroke-width="0.5" stroke-miterlimit="10" x1="18.12" y1="63.59" x2="25.217" y2="70.402"/>
			
				<line fill="#000000" stroke="#FFFFFF" stroke-width="0.5" stroke-miterlimit="10" x1="19.515" y1="62.047" x2="26.611" y2="68.856"/>
			
				<line fill="#000000" stroke="#FFFFFF" stroke-width="0.5" stroke-miterlimit="10" x1="20.942" y1="60.481" x2="28.039" y2="67.293"/>
			
				<line fill="#000000" stroke="#FFFFFF" stroke-width="0.5" stroke-miterlimit="10" x1="22.521" y1="58.966" x2="29.614" y2="65.779"/>
			<line fill="#000000" stroke="#FFFFFF" stroke-width="0.5" stroke-miterlimit="10" x1="23.88" y1="57.593" x2="30.977" y2="64.403"/>
			
				<line fill="#000000" stroke="#FFFFFF" stroke-width="0.5" stroke-miterlimit="10" x1="25.217" y1="56.153" x2="32.313" y2="62.964"/>
			
				<line fill="#000000" stroke="#FFFFFF" stroke-width="0.5" stroke-miterlimit="10" x1="26.611" y1="54.642" x2="33.709" y2="61.453"/>
			
				<line fill="#000000" stroke="#FFFFFF" stroke-width="0.5" stroke-miterlimit="10" x1="28.039" y1="53.036" x2="35.136" y2="59.849"/>
		</g>
		<g>
			<line fill="#000000" stroke="#FFFFFF" stroke-width="0.5" stroke-miterlimit="10" x1="19.294" y1="76.23" x2="26.392" y2="83.043"/>
			<line fill="#000000" stroke="#FFFFFF" stroke-width="0.5" stroke-miterlimit="10" x1="20.721" y1="74.799" x2="27.817" y2="81.61"/>
			
				<line fill="#000000" stroke="#FFFFFF" stroke-width="0.5" stroke-miterlimit="10" x1="21.964" y1="73.187" x2="29.061" y2="79.997"/>
			
				<line fill="#000000" stroke="#FFFFFF" stroke-width="0.5" stroke-miterlimit="10" x1="23.659" y1="71.683" x2="30.756" y2="78.495"/>
			<line fill="#000000" stroke="#FFFFFF" stroke-width="0.5" stroke-miterlimit="10" x1="24.995" y1="70.18" x2="32.092" y2="76.991"/>
			
				<line fill="#000000" stroke="#FFFFFF" stroke-width="0.5" stroke-miterlimit="10" x1="26.392" y1="68.637" x2="33.486" y2="75.447"/>
			<line fill="#000000" stroke="#FFFFFF" stroke-width="0.5" stroke-miterlimit="10" x1="27.817" y1="67.07" x2="34.912" y2="73.883"/>
			<line fill="#000000" stroke="#FFFFFF" stroke-width="0.5" stroke-miterlimit="10" x1="29.396" y1="65.554" x2="36.49" y2="72.368"/>
			
				<line fill="#000000" stroke="#FFFFFF" stroke-width="0.5" stroke-miterlimit="10" x1="30.756" y1="64.183" x2="37.852" y2="70.994"/>
			
				<line fill="#000000" stroke="#FFFFFF" stroke-width="0.5" stroke-miterlimit="10" x1="32.092" y1="62.742" x2="39.188" y2="69.554"/>
			
				<line fill="#000000" stroke="#FFFFFF" stroke-width="0.5" stroke-miterlimit="10" x1="33.486" y1="61.231" x2="40.583" y2="68.042"/>
			
				<line fill="#000000" stroke="#FFFFFF" stroke-width="0.5" stroke-miterlimit="10" x1="34.912" y1="59.627" x2="42.011" y2="66.438"/>
			<line fill="#000000" stroke="#FFFFFF" stroke-width="0.5" stroke-miterlimit="10" x1="36.39" y1="58.108" x2="43.484" y2="64.922"/>
		</g>
	</g>
</g>
</svg>