<svg xmlns="http://www.w3.org/2000/svg" xmlns:xlink="http://www.w3.org/1999/xlink" version="1.1" id="Layer_1" x="0px" y="0px" width="100px" height="50.828px" viewBox="0 0 100 50.828" enable-background="new 0 0 100 50.828" xml:space="preserve">
<path d="M48.786,24.693c-0.093-0.091-0.192-0.179-0.298-0.265c-0.04-0.033-0.085-0.063-0.127-0.096  c-0.067-0.052-0.134-0.103-0.206-0.151c-0.059-0.04-0.119-0.078-0.181-0.116c-0.061-0.038-0.122-0.077-0.186-0.114  c-0.073-0.043-0.148-0.083-0.225-0.124c-0.056-0.03-0.111-0.06-0.168-0.089c-0.088-0.044-0.179-0.086-0.271-0.128  c-0.048-0.023-0.097-0.045-0.146-0.066c-0.104-0.045-0.209-0.09-0.315-0.132c-0.04-0.016-0.08-0.031-0.12-0.047  c-0.119-0.045-0.239-0.09-0.363-0.132c-0.028-0.01-0.056-0.019-0.084-0.028c-0.138-0.046-0.275-0.09-0.419-0.133  c-0.875-0.261-1.841-0.451-2.843-0.569c-0.402-0.048-0.811-0.084-1.221-0.108c-0.001,0-0.001,0-0.002,0  c-0.409-0.023-0.82-0.036-1.229-0.036h-0.001c-3.908,0-8.031,1.1-9.001,3.157c-0.138,0.294-0.212,0.607-0.212,0.94v0.482v1.669v2.87  c0,2.661,4.746,4.097,9.213,4.097s9.214-1.436,9.214-4.097v-5.021c0-0.167-0.019-0.328-0.056-0.485  c-0.07-0.312-0.212-0.606-0.413-0.881C49.029,24.952,48.914,24.82,48.786,24.693z M48.035,31.478c0,1.033-2.979,2.534-7.649,2.534  v-3.459c2.888-0.001,5.886-0.604,7.649-1.749V31.478z M40.385,28.99c-0.346,0-0.679-0.011-1.004-0.026  c-0.099-0.004-0.193-0.011-0.289-0.017c-0.233-0.015-0.463-0.033-0.686-0.055c-0.092-0.009-0.184-0.018-0.274-0.028  c-0.261-0.029-0.517-0.063-0.762-0.103c-0.033-0.005-0.067-0.009-0.1-0.015c-0.289-0.047-0.563-0.101-0.828-0.159  c-0.038-0.009-0.074-0.019-0.111-0.026c-0.228-0.053-0.443-0.108-0.65-0.167c-0.041-0.012-0.082-0.023-0.122-0.036  c-1.106-0.327-1.92-0.743-2.382-1.157c-0.019-0.017-0.036-0.032-0.052-0.048c-0.041-0.039-0.082-0.079-0.117-0.118  c-0.047-0.052-0.089-0.104-0.123-0.155c-0.016-0.022-0.026-0.045-0.04-0.066c-0.023-0.042-0.045-0.084-0.061-0.125  c-0.008-0.02-0.016-0.039-0.022-0.059c-0.017-0.059-0.029-0.117-0.029-0.174c0-0.064,0.012-0.131,0.034-0.199  c0.021-0.06,0.052-0.122,0.089-0.184c0.015-0.021,0.032-0.043,0.048-0.064c0.029-0.041,0.058-0.082,0.095-0.123  c0.022-0.027,0.052-0.054,0.077-0.081c0.036-0.036,0.072-0.072,0.113-0.108c0.034-0.03,0.072-0.06,0.11-0.09  c0.04-0.032,0.082-0.064,0.126-0.097c0.047-0.033,0.096-0.066,0.147-0.1c0.042-0.028,0.086-0.056,0.132-0.083  c0.06-0.036,0.122-0.073,0.189-0.109c0.039-0.021,0.083-0.043,0.124-0.065c0.079-0.04,0.157-0.08,0.242-0.119  c0.029-0.014,0.062-0.027,0.092-0.041c0.846-0.38,1.998-0.708,3.4-0.897c0.005-0.001,0.01-0.002,0.015-0.002  c0.201-0.027,0.406-0.052,0.617-0.072c0.009-0.001,0.017-0.001,0.024-0.002c0.213-0.021,0.429-0.039,0.65-0.053  c0.001,0,0.001,0,0.002,0c0.426-0.027,0.864-0.045,1.323-0.045c0.481,0,0.945,0.017,1.391,0.046  c0.745,0.051,1.432,0.141,2.061,0.258c0.043,0.008,0.087,0.016,0.13,0.024c0.497,0.097,0.954,0.212,1.37,0.34  c0.042,0.013,0.084,0.026,0.124,0.039c0.202,0.064,0.396,0.131,0.575,0.201c0.003,0.001,0.005,0.002,0.008,0.003  c0.174,0.068,0.334,0.14,0.487,0.211c0.036,0.018,0.074,0.035,0.11,0.053c0.148,0.073,0.29,0.147,0.416,0.223  c0.004,0.003,0.007,0.005,0.012,0.008c0.121,0.073,0.229,0.147,0.328,0.223c0.026,0.02,0.052,0.039,0.077,0.059  c0.096,0.077,0.185,0.154,0.257,0.23c0.201,0.214,0.306,0.424,0.306,0.618C48.035,27.489,45.055,28.99,40.385,28.99z"/>
<path d="M69.21,24.088v-5.021c0-0.167-0.019-0.328-0.056-0.485c-0.07-0.313-0.212-0.606-0.413-0.881  c-0.1-0.138-0.215-0.27-0.343-0.396c-0.093-0.092-0.191-0.179-0.297-0.266c-0.041-0.032-0.085-0.063-0.127-0.095  c-0.068-0.052-0.135-0.103-0.207-0.151c-0.058-0.04-0.119-0.078-0.181-0.116c-0.061-0.039-0.122-0.077-0.186-0.114  c-0.073-0.043-0.148-0.084-0.225-0.125c-0.056-0.029-0.11-0.059-0.168-0.088c-0.088-0.044-0.179-0.087-0.27-0.129  c-0.049-0.022-0.098-0.044-0.146-0.065c-0.104-0.046-0.209-0.09-0.315-0.132c-0.04-0.016-0.08-0.031-0.119-0.047  c-0.12-0.045-0.24-0.09-0.364-0.132c-0.028-0.01-0.056-0.019-0.084-0.028c-0.138-0.046-0.275-0.09-0.419-0.133  c-0.874-0.261-1.841-0.451-2.843-0.57c-0.402-0.047-0.811-0.083-1.22-0.107c-0.002,0-0.002,0-0.003,0  c-0.408-0.023-0.819-0.036-1.229-0.036h-0.001c-3.907,0-8.031,1.1-9.001,3.157c-0.138,0.294-0.212,0.607-0.212,0.94v0.482v1.669  v2.87c0,2.66,4.747,4.097,9.213,4.097C64.463,28.185,69.21,26.748,69.21,24.088z M67.647,24.088c0,1.033-2.979,2.534-7.649,2.534  v-3.459c2.889-0.001,5.887-0.604,7.649-1.75V24.088z M58.704,21.558c-0.233-0.015-0.462-0.033-0.686-0.055  c-0.092-0.009-0.184-0.018-0.274-0.028c-0.261-0.029-0.516-0.063-0.762-0.103c-0.033-0.005-0.067-0.009-0.1-0.015  c-0.289-0.047-0.563-0.101-0.828-0.159c-0.038-0.009-0.074-0.019-0.111-0.027c-0.228-0.052-0.443-0.107-0.65-0.166  c-0.041-0.012-0.082-0.024-0.121-0.036c-1.107-0.327-1.921-0.743-2.383-1.157c-0.019-0.017-0.035-0.032-0.052-0.048  c-0.041-0.04-0.082-0.079-0.117-0.118c-0.046-0.052-0.088-0.104-0.123-0.155c-0.016-0.022-0.026-0.045-0.039-0.067  c-0.024-0.042-0.046-0.083-0.062-0.124c-0.008-0.02-0.016-0.039-0.021-0.059c-0.018-0.06-0.03-0.118-0.03-0.174  c0-0.065,0.012-0.131,0.034-0.199c0.021-0.06,0.052-0.122,0.09-0.184c0.014-0.021,0.032-0.043,0.047-0.064  c0.029-0.041,0.059-0.082,0.095-0.124c0.022-0.026,0.052-0.054,0.077-0.08c0.036-0.036,0.072-0.072,0.113-0.108  c0.034-0.03,0.072-0.061,0.111-0.09c0.039-0.032,0.081-0.064,0.125-0.097c0.047-0.033,0.097-0.066,0.147-0.101  c0.042-0.027,0.087-0.055,0.132-0.082c0.061-0.036,0.123-0.073,0.189-0.109c0.04-0.021,0.083-0.043,0.125-0.065  c0.078-0.04,0.157-0.08,0.242-0.119c0.028-0.015,0.061-0.027,0.091-0.041c0.846-0.381,1.999-0.708,3.4-0.897  c0.005-0.001,0.01-0.002,0.015-0.002c0.201-0.027,0.406-0.052,0.617-0.072c0.009-0.001,0.017-0.001,0.025-0.002  c0.212-0.021,0.428-0.039,0.649-0.053c0.001,0,0.001,0,0.002,0c0.426-0.028,0.864-0.045,1.323-0.045  c0.481,0,0.945,0.016,1.392,0.046c0.744,0.051,1.431,0.141,2.06,0.258c0.043,0.008,0.087,0.016,0.13,0.024  c0.497,0.097,0.954,0.212,1.37,0.34c0.042,0.013,0.084,0.026,0.125,0.039c0.201,0.064,0.395,0.131,0.574,0.201  c0.003,0.001,0.006,0.002,0.008,0.003c0.174,0.068,0.335,0.139,0.487,0.211c0.036,0.018,0.074,0.035,0.111,0.053  c0.148,0.073,0.289,0.147,0.415,0.223c0.004,0.003,0.008,0.005,0.012,0.008c0.122,0.073,0.229,0.147,0.328,0.223  c0.027,0.02,0.052,0.039,0.077,0.059c0.097,0.077,0.185,0.154,0.257,0.23c0.201,0.214,0.306,0.424,0.306,0.618  c0,1.033-2.98,2.534-7.65,2.534c-0.346,0-0.678-0.011-1.004-0.026C58.895,21.57,58.801,21.563,58.704,21.558z"/>
<path d="M99.968,16.959c-0.006-0.022-0.016-0.042-0.023-0.063c-0.018-0.046-0.038-0.09-0.064-0.132  c-0.013-0.021-0.026-0.042-0.042-0.062c-0.029-0.039-0.063-0.074-0.101-0.108c-0.017-0.015-0.031-0.031-0.05-0.044  c-0.009-0.007-0.015-0.015-0.023-0.021c-0.052-0.036-0.107-0.064-0.165-0.087c-0.002-0.001-0.004-0.002-0.006-0.002l-10.671-4.085  v-0.68c0-0.166-0.019-0.327-0.055-0.484c-0.071-0.313-0.212-0.607-0.413-0.882c-0.101-0.137-0.216-0.269-0.344-0.396  c-0.093-0.091-0.191-0.179-0.297-0.265c-0.041-0.032-0.085-0.063-0.127-0.095c-0.068-0.052-0.135-0.103-0.207-0.152  c-0.058-0.039-0.119-0.077-0.181-0.115c-0.061-0.039-0.121-0.077-0.185-0.114c-0.073-0.043-0.148-0.084-0.226-0.125  c-0.056-0.029-0.11-0.059-0.168-0.088c-0.088-0.044-0.179-0.087-0.27-0.129c-0.049-0.022-0.097-0.044-0.146-0.065  c-0.104-0.046-0.209-0.09-0.315-0.133c-0.04-0.015-0.079-0.03-0.119-0.046c-0.12-0.045-0.24-0.09-0.364-0.132  c-0.027-0.01-0.056-0.019-0.084-0.028c-0.138-0.046-0.275-0.091-0.418-0.133c-0.875-0.261-1.842-0.451-2.844-0.57  c-0.402-0.047-0.81-0.084-1.22-0.107c-0.001,0-0.001,0-0.003,0c-0.408-0.024-0.819-0.036-1.229-0.036h-0.001  c-0.93,0-1.869,0.063-2.777,0.187l-7.81-2.989v-0.68c0-0.166-0.019-0.327-0.055-0.484c-0.071-0.313-0.212-0.607-0.413-0.882  c-0.101-0.137-0.216-0.269-0.344-0.396c-0.093-0.091-0.191-0.179-0.297-0.265c-0.041-0.032-0.085-0.063-0.127-0.095  c-0.068-0.052-0.135-0.104-0.207-0.152c-0.058-0.039-0.119-0.077-0.181-0.115c-0.061-0.039-0.121-0.077-0.185-0.114  c-0.073-0.043-0.149-0.084-0.226-0.125c-0.056-0.029-0.11-0.059-0.168-0.088c-0.088-0.044-0.179-0.087-0.27-0.129  c-0.049-0.022-0.097-0.045-0.146-0.066c-0.104-0.045-0.209-0.089-0.315-0.132c-0.04-0.016-0.079-0.03-0.119-0.046  c-0.12-0.045-0.24-0.09-0.364-0.133c-0.027-0.009-0.056-0.018-0.084-0.027c-0.138-0.046-0.275-0.091-0.418-0.133  c-0.875-0.261-1.842-0.451-2.844-0.57c-0.402-0.047-0.811-0.084-1.22-0.107c-0.001,0-0.001,0-0.003,0  C60.629,0.012,60.218,0,59.809,0h-0.001c-3.907,0-8.031,1.1-9.001,3.157c-0.138,0.294-0.212,0.607-0.212,0.939V4.58v1.669v2.87  c0,2.66,4.747,4.097,9.213,4.097c4.467,0,9.214-1.437,9.214-4.097V6.448l5.028,1.925c-1.661,0.532-2.953,1.325-3.442,2.363  c-0.138,0.294-0.212,0.607-0.212,0.939v0.483v1.669v2.87c0,2.66,4.747,4.097,9.213,4.097c4.467,0,9.214-1.437,9.214-4.097v-2.671  l8.198,3.138L67.85,28.157L40.386,38.506l-19.881-7.609L2.981,24.188l8.389-3.161v0.001v2.87c0,2.66,4.746,4.097,9.213,4.097  s9.214-1.437,9.214-4.097v-5.021c0-0.167-0.019-0.328-0.056-0.485c-0.07-0.312-0.212-0.606-0.413-0.881  c-0.1-0.138-0.215-0.27-0.343-0.396c-0.093-0.092-0.192-0.179-0.298-0.266c-0.04-0.032-0.085-0.062-0.127-0.095  c-0.067-0.052-0.134-0.103-0.206-0.151c-0.059-0.04-0.119-0.078-0.181-0.116c-0.061-0.038-0.122-0.077-0.186-0.114  c-0.073-0.043-0.148-0.084-0.225-0.125c-0.056-0.029-0.111-0.059-0.168-0.088c-0.088-0.044-0.179-0.087-0.271-0.129  c-0.048-0.022-0.097-0.044-0.146-0.065c-0.104-0.046-0.209-0.09-0.315-0.132c-0.04-0.016-0.08-0.031-0.12-0.047  c-0.119-0.045-0.239-0.09-0.363-0.132c-0.028-0.01-0.056-0.019-0.084-0.028c-0.106-0.035-0.214-0.068-0.322-0.103l5.008-1.879v2.864  c0,2.66,4.747,4.097,9.213,4.097c4.467,0,9.214-1.437,9.214-4.097v-5.022c0-0.166-0.019-0.327-0.056-0.484  c-0.07-0.313-0.212-0.606-0.413-0.882c-0.1-0.137-0.215-0.269-0.343-0.396c-0.093-0.091-0.191-0.178-0.297-0.265  c-0.041-0.032-0.085-0.063-0.127-0.095c-0.068-0.052-0.135-0.103-0.207-0.152c-0.058-0.039-0.119-0.077-0.181-0.115  c-0.061-0.039-0.122-0.077-0.186-0.114c-0.073-0.043-0.148-0.084-0.225-0.125c-0.056-0.029-0.11-0.059-0.168-0.088  c-0.088-0.044-0.179-0.087-0.27-0.129c-0.049-0.022-0.098-0.044-0.146-0.065c-0.104-0.046-0.209-0.09-0.315-0.132  c-0.04-0.016-0.08-0.031-0.119-0.047c-0.12-0.045-0.24-0.09-0.364-0.132c-0.028-0.01-0.056-0.019-0.084-0.028  c-0.106-0.035-0.215-0.069-0.323-0.103l5.008-1.888V4.577l-7.87,2.966c0.059,0.007,0.115,0.018,0.173,0.025  c-0.083-0.012-0.165-0.025-0.249-0.035c-0.402-0.047-0.811-0.084-1.221-0.107c-0.001,0-0.001,0-0.002,0  c-0.409-0.024-0.819-0.036-1.229-0.036h-0.001c-3.908,0-8.031,1.1-9.001,3.157c-0.138,0.294-0.212,0.607-0.212,0.939v0.483v0.006  l-7.87,2.957c0.069,0.009,0.136,0.021,0.205,0.029c-0.095-0.012-0.188-0.027-0.282-0.038c-0.402-0.048-0.811-0.084-1.221-0.108  c-0.001,0-0.001,0-0.002,0c-0.409-0.023-0.82-0.036-1.229-0.036h-0.001c-3.908,0-8.031,1.1-9.001,3.157  c-0.138,0.294-0.212,0.607-0.212,0.94v0.481L0.51,23.451c-0.001,0.001-0.002,0.001-0.004,0.001l0,0c0,0,0,0.001-0.001,0.001  c-0.058,0.021-0.114,0.05-0.165,0.086c-0.009,0.006-0.015,0.014-0.021,0.019c-0.02,0.015-0.036,0.032-0.054,0.048  c-0.036,0.032-0.069,0.066-0.099,0.104c-0.016,0.021-0.03,0.041-0.044,0.063c-0.024,0.04-0.045,0.083-0.062,0.128  c-0.009,0.022-0.02,0.044-0.025,0.066c-0.019,0.064-0.029,0.13-0.031,0.197C0.003,24.171,0,24.176,0,24.181c0,0.001,0,0.001,0,0.002  v10.706c0,0.323,0.2,0.613,0.503,0.729l39.602,15.158c0.007,0.003,0.015,0.002,0.021,0.004c0.083,0.03,0.169,0.048,0.258,0.048  c0.087,0,0.172-0.018,0.254-0.046c0.007-0.002,0.015-0.001,0.021-0.004l58.836-22.17c0.304-0.115,0.505-0.406,0.505-0.731V17.172  C100,17.099,99.987,17.027,99.968,16.959z M67.459,9.119c0,1.032-2.979,2.534-7.649,2.534v-3.46c2.889,0,5.887-0.604,7.649-1.749  V9.119z M59.809,6.632c-0.346,0-0.678-0.011-1.004-0.026c-0.098-0.004-0.192-0.012-0.288-0.018  c-0.234-0.015-0.463-0.032-0.686-0.054c-0.093-0.01-0.185-0.018-0.274-0.028c-0.262-0.029-0.517-0.064-0.763-0.103  c-0.033-0.006-0.067-0.01-0.1-0.015c-0.288-0.048-0.562-0.102-0.827-0.16c-0.039-0.008-0.074-0.018-0.112-0.026  c-0.228-0.052-0.443-0.107-0.65-0.166C55.064,6.023,55.023,6.012,54.983,6c-1.107-0.327-1.921-0.743-2.383-1.158  c-0.019-0.016-0.035-0.031-0.052-0.048c-0.041-0.039-0.082-0.078-0.117-0.117c-0.046-0.052-0.088-0.104-0.123-0.155  c-0.016-0.022-0.026-0.045-0.039-0.067c-0.024-0.042-0.046-0.083-0.062-0.125c-0.008-0.02-0.016-0.038-0.021-0.058  c-0.018-0.06-0.03-0.118-0.03-0.175c0-0.064,0.012-0.131,0.034-0.198c0.021-0.061,0.052-0.122,0.09-0.184  c0.014-0.022,0.032-0.044,0.047-0.065c0.029-0.04,0.059-0.081,0.095-0.123c0.022-0.026,0.052-0.054,0.078-0.08  c0.035-0.036,0.071-0.072,0.112-0.108c0.034-0.03,0.072-0.061,0.111-0.091c0.04-0.032,0.081-0.063,0.126-0.096  c0.046-0.033,0.096-0.067,0.147-0.101c0.042-0.027,0.086-0.055,0.131-0.082c0.061-0.037,0.123-0.073,0.189-0.109  c0.04-0.022,0.083-0.044,0.125-0.065c0.078-0.041,0.157-0.08,0.242-0.119c0.029-0.015,0.062-0.028,0.091-0.041  c0.847-0.381,1.999-0.708,3.401-0.897c0.004-0.001,0.01-0.002,0.014-0.003c0.201-0.026,0.407-0.051,0.617-0.071  c0.009-0.001,0.017-0.002,0.025-0.003c0.212-0.021,0.428-0.038,0.649-0.053c0.002,0,0.002,0,0.003,0  c0.425-0.027,0.864-0.044,1.322-0.044c0.482,0,0.946,0.016,1.392,0.046c0.744,0.05,1.431,0.14,2.06,0.257  c0.043,0.009,0.087,0.017,0.13,0.025c0.497,0.097,0.955,0.212,1.37,0.339c0.042,0.014,0.084,0.026,0.125,0.04  c0.201,0.064,0.395,0.131,0.574,0.201c0.004,0.001,0.006,0.002,0.008,0.003c0.175,0.067,0.335,0.139,0.487,0.21  c0.037,0.019,0.074,0.036,0.111,0.054c0.148,0.073,0.289,0.147,0.415,0.223c0.004,0.003,0.008,0.005,0.012,0.008  c0.122,0.073,0.229,0.147,0.328,0.222c0.027,0.021,0.052,0.04,0.078,0.06c0.096,0.077,0.184,0.154,0.256,0.23  c0.201,0.213,0.306,0.424,0.306,0.617C67.459,5.131,64.479,6.632,59.809,6.632z M87.26,16.698c0,1.033-2.979,2.534-7.649,2.534  v-3.459c2.889-0.001,5.887-0.604,7.649-1.75V16.698z M79.609,14.211c-0.346,0-0.678-0.011-1.004-0.026  c-0.098-0.004-0.192-0.012-0.288-0.018c-0.234-0.014-0.463-0.032-0.686-0.054c-0.093-0.01-0.185-0.018-0.274-0.028  c-0.262-0.029-0.517-0.063-0.763-0.103c-0.033-0.006-0.067-0.009-0.1-0.015c-0.288-0.047-0.562-0.102-0.827-0.16  c-0.039-0.008-0.074-0.018-0.112-0.026c-0.228-0.052-0.443-0.107-0.65-0.166c-0.04-0.013-0.081-0.024-0.121-0.036  c-1.107-0.327-1.921-0.743-2.383-1.158c-0.019-0.016-0.035-0.031-0.052-0.048c-0.041-0.039-0.082-0.078-0.117-0.117  c-0.046-0.052-0.088-0.104-0.123-0.155c-0.016-0.022-0.026-0.045-0.039-0.067c-0.023-0.042-0.046-0.083-0.062-0.125  c-0.008-0.019-0.015-0.038-0.021-0.058c-0.018-0.06-0.03-0.118-0.03-0.175c0-0.064,0.012-0.13,0.034-0.198  c0.021-0.061,0.052-0.122,0.09-0.184c0.014-0.021,0.032-0.043,0.047-0.064c0.029-0.041,0.059-0.082,0.095-0.124  c0.022-0.026,0.052-0.054,0.078-0.08c0.035-0.036,0.071-0.072,0.112-0.108c0.034-0.03,0.072-0.061,0.111-0.091  c0.04-0.032,0.081-0.063,0.126-0.096c0.046-0.033,0.096-0.067,0.147-0.101c0.042-0.027,0.086-0.055,0.131-0.082  c0.061-0.036,0.123-0.073,0.189-0.109c0.04-0.021,0.083-0.043,0.125-0.065c0.078-0.04,0.157-0.08,0.242-0.119  c0.029-0.015,0.062-0.028,0.091-0.041c0.847-0.381,1.999-0.708,3.401-0.897c0.004-0.001,0.01-0.002,0.014-0.002  c0.201-0.027,0.407-0.052,0.618-0.072c0.008-0.001,0.016-0.001,0.024-0.003c0.212-0.021,0.428-0.038,0.649-0.053  c0.002,0,0.002,0,0.003,0c0.425-0.027,0.864-0.044,1.322-0.044c0.482,0,0.946,0.016,1.392,0.046c0.744,0.05,1.431,0.14,2.06,0.257  c0.043,0.009,0.087,0.017,0.13,0.025c0.497,0.097,0.955,0.212,1.37,0.34c0.042,0.013,0.084,0.025,0.125,0.039  c0.201,0.064,0.395,0.131,0.574,0.201c0.004,0.001,0.006,0.002,0.008,0.003c0.175,0.067,0.335,0.139,0.487,0.211  c0.037,0.018,0.074,0.035,0.111,0.053c0.148,0.073,0.289,0.147,0.415,0.223c0.005,0.003,0.008,0.005,0.012,0.008  c0.122,0.073,0.229,0.147,0.328,0.222c0.027,0.021,0.052,0.04,0.078,0.06c0.096,0.077,0.184,0.154,0.256,0.23  c0.201,0.214,0.306,0.424,0.306,0.617C87.26,12.71,84.28,14.211,79.609,14.211z M47.847,16.509c0,1.033-2.979,2.534-7.649,2.534  v-3.459c2.889-0.001,5.887-0.604,7.649-1.75V16.509z M32.578,11.288c0.021-0.061,0.052-0.122,0.09-0.184  c0.014-0.021,0.032-0.043,0.047-0.064c0.029-0.041,0.059-0.082,0.095-0.124c0.022-0.026,0.052-0.054,0.077-0.08  c0.036-0.036,0.072-0.072,0.113-0.108c0.034-0.03,0.072-0.061,0.111-0.091c0.039-0.032,0.081-0.063,0.125-0.096  c0.047-0.033,0.097-0.067,0.147-0.101c0.042-0.027,0.087-0.055,0.132-0.082c0.061-0.036,0.123-0.073,0.189-0.109  c0.04-0.021,0.083-0.043,0.125-0.065c0.078-0.04,0.157-0.08,0.242-0.119c0.028-0.015,0.061-0.027,0.091-0.041  c0.846-0.381,1.999-0.708,3.4-0.897c0.005-0.001,0.01-0.002,0.015-0.002c0.201-0.027,0.406-0.052,0.617-0.072  c0.009-0.001,0.017-0.001,0.025-0.002c0.212-0.021,0.428-0.039,0.649-0.053c0.001,0,0.001,0,0.002,0  c0.426-0.028,0.864-0.045,1.323-0.045c0.481,0,0.945,0.016,1.392,0.046c0.744,0.05,1.431,0.14,2.06,0.258  c0.043,0.008,0.087,0.016,0.13,0.024c0.497,0.097,0.954,0.212,1.37,0.34c0.042,0.013,0.084,0.026,0.125,0.039  c0.201,0.064,0.395,0.131,0.574,0.201c0.003,0.001,0.006,0.002,0.008,0.003c0.174,0.068,0.335,0.139,0.487,0.211  c0.036,0.018,0.074,0.035,0.11,0.053c0.149,0.073,0.29,0.147,0.416,0.223c0.004,0.003,0.008,0.005,0.012,0.008  c0.121,0.073,0.229,0.147,0.328,0.222c0.027,0.021,0.052,0.04,0.077,0.06c0.097,0.077,0.185,0.154,0.257,0.23  c0.201,0.214,0.306,0.424,0.306,0.617c0,1.034-2.98,2.535-7.65,2.535c-0.346,0-0.678-0.011-1.004-0.026  c-0.099-0.004-0.193-0.011-0.289-0.018c-0.233-0.014-0.462-0.032-0.686-0.054c-0.092-0.01-0.184-0.018-0.274-0.028  c-0.261-0.029-0.516-0.063-0.762-0.103c-0.033-0.006-0.067-0.009-0.1-0.015c-0.289-0.047-0.563-0.102-0.828-0.16  c-0.038-0.008-0.074-0.018-0.111-0.026c-0.228-0.052-0.443-0.107-0.65-0.166c-0.041-0.013-0.082-0.024-0.121-0.036  c-1.107-0.327-1.921-0.743-2.383-1.157c-0.019-0.017-0.035-0.032-0.052-0.048c-0.041-0.04-0.082-0.079-0.117-0.118  c-0.046-0.052-0.088-0.104-0.123-0.155c-0.016-0.022-0.026-0.045-0.04-0.067c-0.023-0.042-0.045-0.083-0.061-0.125  c-0.008-0.019-0.016-0.038-0.021-0.058c-0.018-0.06-0.03-0.118-0.03-0.175C32.544,11.422,32.556,11.356,32.578,11.288z   M28.233,23.898c0,1.033-2.979,2.534-7.648,2.534v-3.459c2.888-0.001,5.886-0.604,7.648-1.75V23.898z M12.966,18.678  c0.021-0.06,0.052-0.122,0.089-0.184c0.015-0.021,0.032-0.043,0.048-0.064c0.029-0.041,0.058-0.082,0.095-0.123  c0.022-0.027,0.052-0.055,0.077-0.081c0.036-0.036,0.072-0.072,0.113-0.108c0.034-0.03,0.072-0.061,0.11-0.09  c0.04-0.032,0.082-0.064,0.126-0.097c0.047-0.033,0.096-0.066,0.147-0.1c0.042-0.028,0.086-0.056,0.132-0.083  c0.06-0.036,0.122-0.073,0.189-0.109c0.039-0.021,0.083-0.043,0.124-0.065c0.079-0.04,0.157-0.08,0.242-0.119  c0.029-0.014,0.062-0.027,0.092-0.041c0.846-0.381,1.998-0.708,3.4-0.897c0.005-0.001,0.01-0.002,0.015-0.002  c0.201-0.027,0.406-0.052,0.617-0.072c0.009-0.001,0.017-0.001,0.024-0.002c0.213-0.021,0.429-0.039,0.65-0.053  c0.001,0,0.001,0,0.002,0c0.426-0.027,0.864-0.045,1.323-0.045c0.481,0,0.945,0.016,1.391,0.046c0.745,0.051,1.432,0.141,2.06,0.258  c0.044,0.008,0.088,0.016,0.131,0.024c0.497,0.097,0.954,0.212,1.37,0.34c0.042,0.013,0.084,0.026,0.124,0.039  c0.202,0.064,0.396,0.131,0.575,0.201c0.003,0.001,0.005,0.002,0.008,0.003c0.174,0.068,0.334,0.139,0.487,0.211  c0.036,0.018,0.074,0.035,0.11,0.053c0.148,0.073,0.29,0.147,0.416,0.223c0.004,0.003,0.007,0.005,0.012,0.008  c0.121,0.073,0.229,0.147,0.328,0.223c0.026,0.02,0.052,0.039,0.077,0.059c0.096,0.077,0.185,0.154,0.256,0.23  c0.202,0.214,0.306,0.424,0.306,0.618c0,1.033-2.979,2.534-7.649,2.534c-0.346,0-0.679-0.011-1.004-0.026  c-0.099-0.004-0.193-0.011-0.289-0.017c-0.233-0.015-0.463-0.033-0.686-0.055c-0.092-0.009-0.184-0.018-0.274-0.028  c-0.262-0.029-0.517-0.063-0.762-0.103c-0.033-0.005-0.067-0.009-0.1-0.015c-0.289-0.047-0.563-0.101-0.828-0.159  C16.604,21,16.567,20.99,16.53,20.982c-0.228-0.053-0.443-0.108-0.65-0.167c-0.041-0.012-0.082-0.023-0.122-0.036  c-1.106-0.327-1.921-0.743-2.382-1.157c-0.019-0.017-0.036-0.032-0.052-0.048c-0.041-0.04-0.082-0.079-0.117-0.118  c-0.047-0.052-0.089-0.104-0.123-0.155c-0.016-0.022-0.026-0.045-0.04-0.067c-0.023-0.042-0.045-0.083-0.062-0.124  c-0.007-0.02-0.015-0.039-0.021-0.059c-0.017-0.06-0.029-0.118-0.029-0.174C12.932,18.812,12.943,18.746,12.966,18.678z   M98.439,27.337L41.164,48.919v-9.037l20.162-7.598L98.439,18.3V27.337z"/>
</svg>