<svg xmlns="http://www.w3.org/2000/svg" xmlns:xlink="http://www.w3.org/1999/xlink" version="1.1" id="Layer_1" x="0px" y="0px" width="100px" height="100px" viewBox="0 0 100 100" enable-background="new 0 0 100 100" xml:space="preserve">
<path d="M49.999,3C75.915,3,97,24.084,97,50c0,25.916-21.085,47-47.001,47C24.083,97,3,75.916,3,50C3,24.084,24.083,3,49.999,3   M49.999,0C22.386,0,0,22.386,0,50c0,27.613,22.386,50,49.999,50C77.613,100,100,77.613,100,50C100,22.386,77.613,0,49.999,0  L49.999,0z"/>
<path fill="#000000" d="M60.527,62.35c-0.671,0-1.215,0.544-1.215,1.215c0,5.135-4.178,9.312-9.312,9.312s-9.312-4.178-9.312-9.312  c0-0.671-0.544-1.215-1.215-1.215s-1.215,0.544-1.215,1.215c0,6.475,5.268,11.742,11.742,11.742c6.475,0,11.742-5.268,11.742-11.742  C61.742,62.894,61.198,62.35,60.527,62.35z"/>
<path opacity="0.95" d="M60.527,62.35c-0.671,0-1.215,0.544-1.215,1.215c0,5.135-4.178,9.312-9.312,9.312s-9.312-4.178-9.312-9.312  c0-0.671-0.544-1.215-1.215-1.215s-1.215,0.544-1.215,1.215c0,6.475,5.268,11.742,11.742,11.742c6.475,0,11.742-5.268,11.742-11.742  C61.742,62.894,61.198,62.35,60.527,62.35z"/>
<path opacity="0.95" d="M76.521,34.62c-4.247,0-7.69,3.442-7.69,7.69c0,4.247,3.443,7.69,7.69,7.69s7.689-3.443,7.689-7.69  C84.211,38.062,80.769,34.62,76.521,34.62z M74.634,48.89c-0.676,0-1.225-0.549-1.225-1.227c0-0.676,0.549-1.224,1.225-1.224  c0.678,0,1.227,0.548,1.227,1.224C75.86,48.341,75.312,48.89,74.634,48.89z M78.91,44.453c-1.545,0-2.796-1.797-2.796-4.014  c0-2.216,1.251-4.014,2.796-4.014c1.544,0,2.797,1.797,2.797,4.014C81.707,42.656,80.454,44.453,78.91,44.453z"/>
<path opacity="0.95" d="M24.355,34.62c-4.247,0-7.69,3.442-7.69,7.69c0,4.247,3.443,7.69,7.69,7.69s7.69-3.443,7.69-7.69  C32.045,38.062,28.603,34.62,24.355,34.62z M22.469,48.89c-0.677,0-1.225-0.549-1.225-1.227c0-0.676,0.548-1.224,1.225-1.224  c0.677,0,1.226,0.548,1.226,1.224C23.694,48.341,23.146,48.89,22.469,48.89z M26.745,44.453c-1.545,0-2.796-1.797-2.796-4.014  c0-2.216,1.251-4.014,2.796-4.014c1.544,0,2.796,1.797,2.796,4.014C29.541,42.656,28.289,44.453,26.745,44.453z"/>
</svg>