<svg xmlns="http://www.w3.org/2000/svg" xmlns:xlink="http://www.w3.org/1999/xlink" version="1.0" id="Layer_4" x="0px" y="0px" width="31.75px" height="100px" viewBox="0 0 31.75 100" enable-background="new 0 0 31.75 100" xml:space="preserve">
<path d="M21.623,76.516c0,0-7.155-9.092-6.397-22.729c0.757-13.636,4.04-20.791,4.377-26.515c0.336-5.724,0-3.282-2.862-2.861  c-2.862,0.42-2.947-1.179-5.135-1.6c0,0-3.702-1.429-5.723-0.672c0,0-2.947,1.179-4.377,13.468S1.673,59.68,4.199,65.151  s4.882,11.785,9.933,16.751C19.182,86.869,31.64,96.632,27.263,100C27.263,100,39.299,99.495,21.623,76.516z"/>
<path d="M14.032,22.443c0.884,1.436,4.17,0.552,4.167-0.126c-0.001-0.097-0.434-0.237-0.568-0.316c0,0-4.23,0.126-1.768-9.533  C18.325,2.809,26.153,0.284,26.153,0.284s-6.187-2.146-9.912,5.366s-3.851,7.955-4.419,9.912c-0.568,1.957-0.505,3.914-5.051,4.987  C6.772,20.549,13.022,20.801,14.032,22.443z"/>
</svg>