<svg xmlns="http://www.w3.org/2000/svg" xmlns:xlink="http://www.w3.org/1999/xlink" version="1.1" id="Layer_1" x="0px" y="0px" width="70.7491082045px" height="100px" viewBox="0 0 595.28 841.89" enable-background="new 0 0 595.28 841.89" xml:space="preserve">
<path display="none" fill="#000000" d="M533.5,622.5"/>
<path d="M441.564,636.843l18.637,127.008l-34.732-123.788c0,0-14.339,4.098-18.144-21.362c-3.804-25.461,0-1.171,0-1.171  l-88.16-425.213h-19.825l-66.723,395.657c0,0-1.463,11.413-9.657,14.34l-2.634,14.047c0,0,3.805,1.315,3.073,8.047  s-3.073,21.361-3.073,21.361s0.439,7.171-6.438,7.609l-8.633,54.14c0,0-2.723,16.388-14.925,24.581l-3.219,23.266  c0,0-2.488,10.14-7.169,14.217c0,0-2.634-1.924,0-16.118l4.097-22.388c0,0-9.072-8.487-3.658-36.874l8.047-46.236  c0,0-4.975,1.171-2.634-13.461l2.78-15.363c0,0-1.023-7.317,6.146-6.731l1.902-14.633c0,0-6.731-1.463-5.267-13.023l71.698-420.237  c0,0,0.877-11.413,7.901-13.17l-0.292-54.432c0,0-2.634-10.536,11.413-9.95l11.999-0.023l-0.293-51.481  c0,0-0.877-19.083,14.632-17.296c0,0,16.096,0.03,14.632,16.71v51.798h16.973c0,0,8.487-0.293,6.731,13.461v51.505  c0,0,6.73,3.22,8.486,15.51l94.524,447.746C449.759,614.895,455.026,633.04,441.564,636.843z"/>
</svg>