<svg xmlns="http://www.w3.org/2000/svg" xmlns:xlink="http://www.w3.org/1999/xlink" version="1.1" id="Layer_1" x="0px" y="0px" width="100px" height="100px" viewBox="0 0 100 100" enable-background="new 0 0 100 100" xml:space="preserve">
<path d="M81.928,83.431l15.647-62.354l0.065,0.01l0.098-0.623l0.303-0.553l-0.199-0.108l0.036-0.224l-0.625-0.097L74.524,7.082  l-0.439-0.089L8.613,13.297l0.146,1.52l0.032-0.002l3.937,28.036l-7.191,7.572l-0.091,1.292l10.619,14.898l0.919,6.553L30.966,95.3  l0.46-0.293c0.427-0.01,0.746-0.075,2.771-0.487c4.047-0.825,14.798-3.015,46.747-8.997l0.599-0.564l0.217-0.867 M73.999,8.534  l18.785,10.248l-35.54-5.553L19.28,24.869l-8.344-10.263L73.999,8.534z M71.509,31.65l-4.858,7.164l-1.197-1.438L27.681,68.48  l-6.807-40.846l39.191-3.426l-0.021,0.036L71.509,31.65z M9.086,51.926l4.201-4.714l0.039-0.106l1.804,12.847L9.086,51.926z   M26.32,69.603l-2.422,1.995l-6.872-9.126L14.439,44.05l0.106-0.292l-0.161-0.097l-3.8-27.067l8.68,10.675 M18.474,72.788  l-0.489-3.481l4.162,5.839l1.485,0.187l3.193-2.693l3.004,18.023L18.474,72.788z M60.608,47.719L31.398,90.78l-3.215-19.288  L66.306,39.32L60.608,47.719 M33.893,93.022c-1.158,0.236-1.72,0.353-2.053,0.407l-0.004-0.027l2.291-0.428  C34.047,92.99,33.966,93.007,33.893,93.022z M80.518,82.769l-0.421,0.079l-18.076-34.49l11.19-16.497l-0.218-1.07l-10.515-6.792  l33.524-2.93L80.518,82.769z"/>
<path fill="none" stroke="#000000" stroke-miterlimit="10" d="M130.859-2.388"/>
</svg>