<svg xmlns="http://www.w3.org/2000/svg" xmlns:xlink="http://www.w3.org/1999/xlink" version="1.1" id="Layer_1" x="0px" y="0px" width="100px" height="100px" viewBox="0 0 100 100" enable-background="new 0 0 100 100" xml:space="preserve">
<g>
	<path fill-rule="evenodd" clip-rule="evenodd" fill="#000000" d="M77.636,71.26l-3.611-8.061c-0.915-2.038-1.928-4.583-0.241-6.122   L89.881,42.4c1.635-1.49,5.683-1.862,6.224,0.631l3.33,15.336c0.47,2.163,0.904,5.784-3.299,7.595l-12.429,5.353   C81.648,72.202,78.725,73.688,77.636,71.26z"/>
	<path fill-rule="evenodd" clip-rule="evenodd" fill="#000000" d="M25.305,30.823l8.712,1.462c2.203,0.371,4.921,0.708,5.983-1.312   l10.143-19.28c1.029-1.958,0.368-5.968-2.181-5.863l-15.68,0.646c-2.212,0.091-5.826,0.585-6.516,5.109l-2.045,13.377   C23.382,27.179,22.682,30.381,25.305,30.823z"/>
	<path fill-rule="evenodd" clip-rule="evenodd" fill="#000000" d="M84.282,91.915l-2.562-11.137   c-0.503-2.181-1.18-5.338,1.074-6.314l10.325-4.471c2.036-0.881,5.212-0.34,5.352,1.879c0.676,10.628-3.679,17.224-7.928,21.056   C87.344,95.813,84.854,94.396,84.282,91.915z"/>
	<path fill-rule="evenodd" clip-rule="evenodd" fill="#000000" d="M3.643,29.603l11.422-0.331c2.237-0.063,5.463-0.206,5.838-2.633   l1.721-11.118c0.34-2.194-0.985-5.128-3.167-4.705C9,12.843,3.718,18.72,1.082,23.799C-0.902,27.623,1.097,29.676,3.643,29.603z"/>
	<path fill-rule="evenodd" clip-rule="evenodd" fill="#000000" d="M66.662,52.534c-5.568-4.875-6.386-5.836-9.798-8.473   c-3.413-2.637-4.55-3.185-10.672-7.345c-2.395-1.787-2.375-4.98-0.977-7.623L56.614,7.563c1.443-2.618,5.116-2.587,7.624-0.978   c5.653,3.629,9.396,6.625,13.822,10.045c4.428,3.42,8.271,6.286,13.208,10.841c2.189,2.02,3.146,5.567,0.978,7.623L74.287,51.558   C72.083,53.577,68.998,54.402,66.662,52.534z"/>
</g>
</svg>