<svg xmlns="http://www.w3.org/2000/svg" xmlns:xlink="http://www.w3.org/1999/xlink" version="1.1" id="Layer_1" x="0px" y="0px" width="100px" height="100px" viewBox="0 0 100 100" enable-background="new 0 0 100 100" xml:space="preserve">
<g>
	<path fill="#000000" d="M77.354,1.747C77.302,1.251,77.178,0.665,76.977,0C67.9,2.085,61.374,5.941,57.43,11.577   c-3.918,5.614-5.918,12.287-6.015,19.998c3.603-0.293,6.285-0.721,8.056-1.285c2.795-0.958,5.607-2.84,8.448-5.636   c3.297-3.292,5.709-6.876,7.231-10.731c1.521-3.855,2.276-7.395,2.276-10.642C77.426,2.762,77.404,2.266,77.354,1.747z"/>
</g>
<path fill="#000000" d="M40.676,78.4c0-3.782-1.233-7.273-3.311-10.105c-2.056-2.805-2.05-4.184,0.011-6.998  c2.07-2.831,3.3-6.314,3.3-10.092c0-8.182-5.725-15.013-13.386-16.733c1.961-0.717,4.067-1.076,6.319-1.076  c2.537,0,5.146,0.693,9.182,1.572c4.047,0.88,9.971,1.082,14.407,0c4.44-1.082,6.645-1.572,9.182-1.572  c2.253,0,4.361,0.36,6.324,1.077c-7.659,1.722-13.386,8.553-13.386,16.732c0,3.775,1.226,7.261,3.295,10.092  c2.062,2.814,2.068,4.193,0.012,6.998c-2.078,2.832-3.307,6.323-3.307,10.105c0,8.32,5.923,15.254,13.781,16.824  C70.018,98.398,66.898,100,63.747,100c-1.765,0-4.047-0.586-6.854-1.77c-4.475-1.742-10.472-1.388-13.796,0  c-2.052,0.845-5.09,1.77-6.848,1.77c-3.151,0-6.268-1.602-9.351-4.775C34.756,93.654,40.676,86.723,40.676,78.4z"/>
</svg>