<svg xmlns="http://www.w3.org/2000/svg" xmlns:xlink="http://www.w3.org/1999/xlink" version="1.1" id="Layer_1" x="0px" y="0px" width="100px" height="100px" viewBox="0 0 100 100" enable-background="new 0 0 100 100" xml:space="preserve">
<path d="M93.053,10.197c-1.205-0.475-2.56,0.114-3.034,1.314L74.541,50.663h-2.213c-0.004,0-0.008,0-0.012,0h-0.024  c-0.068,0-0.134,0.014-0.202,0.02c-0.079,0.008-0.158,0.006-0.238,0.021l-0.028,0.006H71.82l-28.719,5.51l-24.886-5.221H19.3  c0.861,0,1.559-0.697,1.559-1.559c0-0.86-0.698-1.559-1.559-1.559h-8.377c-0.861,0-1.559,0.698-1.559,1.559  c0,0.861,0.698,1.559,1.559,1.559h4.252c-0.542,0.323-0.955,0.855-1.095,1.521c-0.266,1.264,0.544,2.503,1.808,2.769l15.318,3.213  l-6.901,1.324c-0.335,0.033-0.668,0.133-0.973,0.319c-0.989,0.604-1.371,1.81-0.955,2.847c0.027,0.069,0.063,0.134,0.096,0.2  c0.026,0.05,0.043,0.103,0.072,0.151c0.062,0.108,1.489,2.721-0.161,6.921l-1.254,3.193h47.69l-1.152-3.144  c-0.017-0.048-1.703-4.918,0.448-8.805c1.362-2.46,4.053-4.13,8-4.964l1.229-0.261L94.367,13.23  C94.842,12.03,94.254,10.671,93.053,10.197z M62.484,68.781c0.015-0.02,0.032-0.037,0.047-0.059c0.003,0.02,0.005,0.041,0.008,0.059  H62.484z M65.869,56.73c-0.019-0.034-0.03-0.073-0.051-0.107l0.198-0.038C65.97,56.634,65.916,56.681,65.869,56.73z"/>
<path d="M77.163,58.456c-4.512,0-8.183,3.671-8.183,8.183s3.671,8.183,8.183,8.183s8.183-3.671,8.183-8.183  S81.675,58.456,77.163,58.456z M77.163,70.394c-2.182,0-3.95-1.769-3.95-3.95c0-2.181,1.769-3.949,3.95-3.949  c2.181,0,3.95,1.769,3.95,3.949C81.113,68.625,79.344,70.394,77.163,70.394z"/>
<path d="M13.65,58.456c-4.512,0-8.183,3.671-8.183,8.183s3.671,8.183,8.183,8.183s8.183-3.671,8.183-8.183  S18.162,58.456,13.65,58.456z M13.65,70.589c-2.182,0-3.95-1.77-3.95-3.95s1.768-3.95,3.95-3.95c2.181,0,3.95,1.77,3.95,3.95  S15.832,70.589,13.65,70.589z"/>
</svg>