<svg xmlns="http://www.w3.org/2000/svg" xmlns:xlink="http://www.w3.org/1999/xlink" version="1.1" id="Layer_1" x="0px" y="0px" width="100px" height="100px" viewBox="0 0 100 100" enable-background="new 0 0 100 100" xml:space="preserve">
<path d="M40.312,22.013l-0.795-1.271c-0.472,0.294-0.935,0.687-1.383,1.132c-0.338-0.116-0.7-0.183-1.078-0.183h-4.034  c-1.795,0-3.256,1.427-3.256,3.181v3.076c0,1.754,1.461,3.181,3.256,3.181h4.034c1.795,0,3.256-1.427,3.256-3.181v-3.076  c0-0.839-0.337-1.602-0.883-2.17C39.721,22.432,40.016,22.198,40.312,22.013z M31.266,27.948v-3.076  c0-0.927,0.788-1.682,1.756-1.682h3.947c-1.038,1.313-1.912,2.768-2.457,3.749c-1.157-1.396-2.595-1.834-2.669-1.856l-0.428,1.438  c0.067,0.02,1.642,0.52,2.495,2.227l0.441,0.881h-1.33C32.054,29.628,31.266,28.875,31.266,27.948z M38.812,27.948  c0,0.927-0.788,1.681-1.756,1.681h-2.235l0.435-0.887c0.019-0.038,1.406-2.848,3.144-4.94c0.254,0.292,0.413,0.662,0.413,1.07  V27.948z"/>
<path d="M40.312,33.886l-0.795-1.271c-0.375,0.234-0.746,0.53-1.107,0.866c-0.413-0.186-0.87-0.292-1.354-0.292h-4.034  c-1.795,0-3.256,1.427-3.256,3.182v3.075c0,1.754,1.461,3.181,3.256,3.181h4.034c1.795,0,3.256-1.427,3.256-3.181v-3.075  c0-0.74-0.263-1.421-0.698-1.962C39.845,34.208,40.079,34.033,40.312,33.886z M31.266,39.446v-3.075  c0-0.928,0.788-1.682,1.756-1.682h4.034c0.068,0,0.134,0.012,0.201,0.02c-1.165,1.397-2.15,3.033-2.745,4.104  c-1.157-1.397-2.595-1.835-2.669-1.856l-0.428,1.438c0.067,0.021,1.642,0.52,2.495,2.227l0.253,0.507h-1.142  C32.054,41.127,31.266,40.373,31.266,39.446z M38.812,39.446c0,0.927-0.788,1.682-1.756,1.682h-2.052l0.251-0.513  c0.019-0.039,1.487-3.01,3.294-5.118c0.163,0.256,0.263,0.553,0.263,0.874V39.446z"/>
<path d="M40.312,45.76l-0.795-1.271c-0.375,0.234-0.746,0.53-1.107,0.865c-0.413-0.186-0.87-0.291-1.354-0.291h-4.034  c-1.795,0-3.256,1.427-3.256,3.181v3.077c0,1.754,1.461,3.18,3.256,3.18h4.034c1.795,0,3.256-1.426,3.256-3.18v-3.077  c0-0.74-0.263-1.42-0.698-1.961C39.845,46.083,40.079,45.906,40.312,45.76z M31.266,51.32v-3.077c0-0.927,0.788-1.682,1.756-1.682  h4.034c0.068,0,0.134,0.013,0.201,0.02c-1.165,1.397-2.15,3.033-2.745,4.104c-1.157-1.396-2.595-1.834-2.669-1.856l-0.428,1.438  c0.067,0.021,1.642,0.521,2.495,2.227L34.165,53h-1.143C32.054,53,31.266,52.246,31.266,51.32z M38.812,51.32  c0,0.926-0.788,1.68-1.756,1.68h-2.053l0.252-0.512c0.019-0.039,1.487-3.01,3.294-5.118c0.163,0.255,0.263,0.552,0.263,0.873V51.32z  "/>
<path d="M40.312,57.201l-0.795-1.271c-0.375,0.234-0.746,0.531-1.107,0.867c-0.413-0.186-0.87-0.293-1.354-0.293h-4.034  c-1.795,0-3.256,1.428-3.256,3.182v3.076c0,1.754,1.461,3.182,3.256,3.182h4.034c1.795,0,3.256-1.428,3.256-3.182v-3.076  c0-0.74-0.263-1.42-0.698-1.961C39.845,57.523,40.079,57.348,40.312,57.201z M31.266,62.762v-3.076c0-0.928,0.788-1.682,1.756-1.682  h4.034c0.068,0,0.134,0.012,0.201,0.02c-1.165,1.396-2.15,3.033-2.745,4.104c-1.157-1.396-2.595-1.834-2.669-1.855l-0.428,1.438  c0.067,0.021,1.642,0.52,2.495,2.227l0.254,0.508h-1.143C32.054,64.443,31.266,63.688,31.266,62.762z M38.812,62.762  c0,0.926-0.788,1.682-1.756,1.682h-2.053l0.252-0.514c0.019-0.039,1.487-3.01,3.294-5.117c0.163,0.256,0.263,0.553,0.263,0.873  V62.762z"/>
<path d="M40.312,68.828l-0.795-1.271c-0.321,0.201-0.639,0.451-0.951,0.727c-0.451-0.232-0.965-0.365-1.51-0.365h-4.034  c-1.795,0-3.256,1.428-3.256,3.182v3.076c0,1.754,1.461,3.18,3.256,3.18h4.034c1.795,0,3.256-1.426,3.256-3.18V71.1  c0-0.682-0.223-1.313-0.599-1.832C39.913,69.104,40.112,68.953,40.312,68.828z M31.266,74.176V71.1c0-0.928,0.788-1.682,1.756-1.682  h4.034c0.126,0,0.249,0.014,0.368,0.039c-1.236,1.438-2.289,3.176-2.912,4.299c-1.157-1.396-2.595-1.836-2.669-1.857l-0.428,1.438  c0.067,0.021,1.642,0.52,2.495,2.227l0.146,0.293h-1.035C32.054,75.855,31.266,75.102,31.266,74.176z M38.812,74.176  c0,0.926-0.788,1.68-1.756,1.68h-1.947l0.146-0.299c0.02-0.039,1.526-3.09,3.367-5.201c0.117,0.225,0.189,0.475,0.189,0.744V74.176z  "/>
<path d="M40.312,79.947l-0.795-1.271c-0.406,0.254-0.806,0.578-1.195,0.947c-0.389-0.16-0.817-0.25-1.266-0.25h-4.034  c-1.795,0-3.256,1.428-3.256,3.182v3.076c0,1.754,1.461,3.18,3.256,3.18h4.034c1.795,0,3.256-1.426,3.256-3.18v-3.076  c0-0.773-0.284-1.482-0.755-2.033C39.807,80.301,40.059,80.105,40.312,79.947z M31.266,85.631v-3.076  c0-0.928,0.788-1.682,1.756-1.682h4.034c0.037,0,0.072,0.008,0.108,0.01c-1.123,1.373-2.073,2.949-2.652,3.99  c-1.157-1.396-2.595-1.834-2.669-1.855l-0.428,1.438c0.067,0.021,1.642,0.52,2.495,2.227l0.315,0.631h-1.204  C32.054,87.313,31.266,86.557,31.266,85.631z M38.812,85.631c0,0.926-0.788,1.682-1.756,1.682h-2.112l0.312-0.637  c0.019-0.039,1.464-2.963,3.25-5.068c0.193,0.271,0.307,0.596,0.307,0.947V85.631z"/>
<rect x="42.298" y="29.242" width="26.245" height="1.874"/>
<rect x="42.298" y="40.616" width="26.245" height="1.875"/>
<rect x="42.298" y="52.301" width="26.245" height="1.875"/>
<rect x="42.298" y="64.102" width="26.245" height="1.875"/>
<rect x="42.298" y="75.561" width="26.245" height="1.875"/>
<rect x="42.298" y="86.793" width="26.245" height="1.875"/>
<path d="M75.879,13.632H64.676c-2.053-0.635-7.098-1.253-7.826-1.642c-0.938-0.498-1.25-1.188-2.438-4.687  c-1.189-3.498-4.563-3.188-4.563-3.188v0.004c-0.701-0.007-3.367,0.165-4.395,3.194c-1.188,3.499-1.5,4.185-2.438,4.688  c-0.726,0.386-5.718,0.997-7.793,1.63H24.122c-1.501,0-2.723,1.222-2.723,2.724v76.812c0,1.5,1.222,2.723,2.723,2.723h51.757  c1.5,0,2.723-1.223,2.723-2.723V16.356C78.602,14.854,77.379,13.632,75.879,13.632z M49.875,5.843c0.931,0,1.688,0.757,1.688,1.688  s-0.757,1.688-1.688,1.688c-0.93,0-1.687-0.757-1.687-1.688S48.945,5.843,49.875,5.843z M74.109,21.821v67.357  c0,1.5-1.221,2.723-2.723,2.723H28.849c-1.502,0-2.723-1.223-2.723-2.723V21.821c0-1.502,1.221-2.724,2.723-2.724h42.538  C72.889,19.097,74.109,20.319,74.109,21.821z"/>
</svg>