<?xml version="1.0" encoding="utf-8"?>
<!-- Generator: Adobe Illustrator 14.0.0, SVG Export Plug-In . SVG Version: 6.00 Build 43363)  -->
<!DOCTYPE svg PUBLIC "-//W3C//DTD SVG 1.0//EN" "http://www.w3.org/TR/2001/REC-SVG-20010904/DTD/svg10.dtd">
<svg version="1.0" id="Layer_1" xmlns="http://www.w3.org/2000/svg" xmlns:xlink="http://www.w3.org/1999/xlink" x="0px" y="0px"
	 width="76.79px" height="100px" viewBox="0 0 76.79 100" enable-background="new 0 0 76.79 100" xml:space="preserve">
<path d="M13.668,74.165c-1.381-3.05-2.15-6.434-2.15-9.993c0-12.344,9.249-22.568,21.18-24.109V28.481
	C14.403,30.072,0,45.47,0,64.171c0,5.656,1.319,11.009,3.663,15.77L13.668,74.165z"/>
<path d="M54.69,79.489c-4.46,5.482-11.259,8.992-18.862,8.992s-14.401-3.509-18.862-8.992L6.909,85.295
	C13.433,94.204,23.966,100,35.829,100s22.396-5.797,28.919-14.705L54.69,79.489z"/>
<circle cx="43.884" cy="11.185" r="11.185"/>
<polygon points="76.79,62.833 68.127,57.805 63.511,65.759 48.829,57.146 48.829,41.009 60.222,41.009 60.222,30.993 48.829,30.993 
	48.829,26.71 38.813,26.71 38.813,62.882 67.079,79.465 "/>
</svg>
