<svg xmlns="http://www.w3.org/2000/svg" xmlns:xlink="http://www.w3.org/1999/xlink" version="1.1" id="Layer_1" x="0px" y="0px" width="100px" height="100px" viewBox="0 0 100 100" enable-background="new 0 0 100 100" xml:space="preserve">
<circle cx="17.937" cy="59.199" r="5.896"/>
<path d="M95.615,48.795l-1.875,0.283c-0.034-0.184,0.114-0.395,0.426-0.6l0.537-0.353L93.07,37.515l-0.275,0.042l0.893-0.963  l-1.758-1.688l-28.127,8.857l-6.373,0.105v4.436h-2.9v-2.342l-7.892-0.049v6.635h-0.3v-6.637h-0.001v-8.099l-0.551-2.197h-3.108  l-0.648,1.699H32.81l-0.111,0.071c-4.182,2.682-8.491,6.718-9.248,7.438C13.659,45.665,8.018,46.86,7.133,48.28  c-0.131,0.211-0.143,0.393-0.128,0.511L7,53.741l-1.645-0.052v2.181l2.194,1.741h4.002l0.087-0.338  c1.179-4.578,5.766-4.709,6.285-4.709H18h0.068c5.284,0,6.296,4.496,6.337,4.688l0.073,0.357h44.581l0.094-0.323  c0.014-0.046,1.397-4.601,6.633-4.81c5.158-0.207,6.25,4.334,6.291,4.522l0.08,0.353h6.957v-5.994l-8.891-2.302h-8.029l-4.158-2.461  l22.721-6.838l0.546-0.588l1.239,8.056c-1.058,1.014-0.873,2.225-0.601,2.747c0.063,0.136,0.414,0.83,1.188,1.074  c0.147,0.047,0.33,0.083,0.537,0.083c0.289,0,0.626-0.07,0.984-0.279C95.093,50.612,95.795,49.914,95.615,48.795z M38.961,44.538  H25.496c3.406-3.041,7.369-5.844,7.802-6.147h6.283L38.961,44.538z"/>
<circle cx="75.688" cy="59.199" r="5.896"/>
</svg>