<svg xmlns="http://www.w3.org/2000/svg" xmlns:xlink="http://www.w3.org/1999/xlink" version="1.1" id="Layer_1" x="0px" y="0px" width="100px" height="100px" viewBox="0 0 100 100" enable-background="new 0 0 100 100" xml:space="preserve">
<path d="M83.399,43.678c-4.264-0.873-8.454,0.597-11.264,3.518l-43.242-8.859c-1.434-3.789-4.71-6.79-8.973-7.663  C14.706,29.608,9.6,32.037,7.001,36.35l11.283,2.31l-1.636,7.985L5.366,44.333c0.694,4.986,4.434,9.229,9.646,10.297  c4.265,0.873,8.456-0.598,11.265-3.519l7.544,1.546c-0.003,0.014-0.005,0.028-0.008,0.043l26.563,5.418l0.005-0.02l9.139,1.871  c1.435,3.79,4.711,6.792,8.975,7.663c6.615,1.356,13.076-2.907,14.432-9.524C94.278,51.495,90.016,45.034,83.399,43.678z   M83.377,62.95l-7.533-1.542l-2.427-7.294l5.1-5.75l7.531,1.542l2.43,7.292L83.377,62.95z"/>
</svg>