<svg xmlns:x="http://ns.adobe.com/Extensibility/1.0/" xmlns:i="http://ns.adobe.com/AdobeIllustrator/10.0/" xmlns:graph="http://ns.adobe.com/Graphs/1.0/" xmlns="http://www.w3.org/2000/svg" xmlns:xlink="http://www.w3.org/1999/xlink" xmlns:a="http://ns.adobe.com/AdobeSVGViewerExtensions/3.0/" version="1.0" id="Layer_1" x="0px" y="0px" width="100px" height="100px" viewBox="0 0 100 100" enable-background="new 0 0 100 100" xml:space="preserve">
<g>
	<path d="M83.311,61.059h-0.002c-0.141-0.094-0.324-0.098-0.47-0.002h-0.006c-0.004,0.002-0.01,0.006-0.016,0.012   c-0.191,0.137-0.235,0.408-0.095,0.602c0.14,0.189,0.408,0.232,0.6,0.094c0.193-0.141,0.236-0.408,0.097-0.602   C83.387,61.121,83.35,61.086,83.311,61.059z"/>
	<path d="M79.207,61.059c-0.002-0.004-0.004-0.006-0.008-0.008c-0.154-0.111-0.357-0.105-0.505,0.002H78.69   c-0.035,0.027-0.065,0.057-0.091,0.094c-0.14,0.191-0.099,0.459,0.095,0.602c0.191,0.139,0.462,0.094,0.602-0.096   c0.136-0.189,0.097-0.453-0.087-0.594H79.207z"/>
	<path d="M84.233,57.086c-0.223,0.074-0.349,0.316-0.274,0.543c0.073,0.225,0.315,0.35,0.541,0.277   c0.227-0.076,0.351-0.318,0.276-0.543C84.703,57.137,84.46,57.014,84.233,57.086z"/>
	<circle cx="77.689" cy="57.465" r="0.429"/>
	<circle cx="81.02" cy="55.045" r="0.43"/>
	<path d="M94.446,58.455c0,0.117,0.012,0.234-0.004,0.35c-0.056,0.008-0.113,0.014-0.172,0.014c-0.771,0-1.404-0.838-1.559-1.949   c-0.103-0.775-0.28-1.523-0.524-2.246h-1.949c0.519,1.211,0.805,2.543,0.805,3.941c0,0.434-0.027,0.859-0.081,1.277h5.204   c1.69,0,3.085-2.275,3.288-5.219h-5.559C94.253,55.84,94.446,57.125,94.446,58.455z"/>
	<path d="M17.107,61.059h-0.003c-0.139-0.094-0.321-0.098-0.468-0.002h-0.005c-0.006,0.002-0.012,0.006-0.018,0.012   c-0.191,0.137-0.234,0.408-0.095,0.602c0.139,0.189,0.408,0.232,0.601,0.094c0.192-0.141,0.234-0.408,0.095-0.602   C17.185,61.121,17.147,61.086,17.107,61.059z"/>
	<path d="M13.005,61.059c-0.003-0.004-0.006-0.006-0.008-0.008c-0.154-0.111-0.358-0.105-0.505,0.002h-0.005   c-0.034,0.027-0.064,0.057-0.091,0.094c-0.14,0.191-0.097,0.459,0.095,0.602c0.192,0.139,0.461,0.094,0.601-0.096   C13.229,61.463,13.19,61.199,13.005,61.059L13.005,61.059z"/>
	<circle cx="11.485" cy="57.465" r="0.429"/>
	<circle cx="14.816" cy="55.045" r="0.43"/>
	<path d="M18.031,57.086c-0.226,0.074-0.349,0.316-0.275,0.543c0.073,0.225,0.315,0.35,0.541,0.277   c0.227-0.076,0.35-0.318,0.276-0.543C18.5,57.137,18.258,57.014,18.031,57.086z"/>
	<path d="M17.388,57.773c-0.139-0.426,0.112-0.896,0.566-1.088c-0.491-0.826-1.299-1.439-2.255-1.68   c-0.048,0.486-0.414,0.863-0.858,0.863c-0.448,0-0.816-0.383-0.86-0.873c-0.949,0.221-1.755,0.814-2.259,1.615   c0.446,0.195,0.693,0.662,0.556,1.084c-0.138,0.428-0.616,0.658-1.097,0.549c-0.009,0.1-0.013,0.201-0.013,0.303   c0,0.893,0.321,1.711,0.854,2.346c0.326-0.35,0.833-0.434,1.187-0.176c0.121,0.09,0.21,0.205,0.265,0.342h0.001   c0.106,0.258,0.087,0.574-0.072,0.854c0.435,0.182,0.913,0.281,1.415,0.281c0.475,0,0.928-0.09,1.344-0.254   c-0.159-0.291-0.169-0.623-0.042-0.881v-0.006c0.057-0.111,0.138-0.213,0.244-0.291c0.358-0.26,0.873-0.172,1.198,0.188   c0.562-0.641,0.903-1.482,0.903-2.402c0-0.074-0.002-0.146-0.007-0.221C17.986,58.422,17.524,58.191,17.388,57.773z M14.828,59.725   c-0.641,0-1.16-0.52-1.16-1.16c0-0.639,0.52-1.158,1.16-1.158s1.16,0.52,1.16,1.158C15.988,59.205,15.469,59.725,14.828,59.725z"/>
	<path d="M24.122,58.426c-0.104,0.002-0.19-0.078-0.194-0.182l-0.006-0.164c-0.003-0.104,0.078-0.191,0.182-0.195l0.265-0.008   c-0.02-0.266-0.049-0.527-0.089-0.787l-0.265,0.047c-0.102,0.018-0.199-0.051-0.218-0.152l-0.028-0.162   c-0.018-0.102,0.051-0.199,0.152-0.217l0.261-0.047c-0.056-0.262-0.122-0.52-0.199-0.771l-0.253,0.082   c-0.098,0.031-0.204-0.023-0.236-0.119l-0.051-0.158c-0.033-0.098,0.021-0.205,0.12-0.236l0.249-0.08   c-0.091-0.25-0.193-0.494-0.305-0.734l-0.238,0.117c-0.092,0.043-0.205,0.006-0.251-0.088l-0.071-0.148   c-0.045-0.092-0.007-0.203,0.086-0.25l0.234-0.113c-0.126-0.234-0.261-0.465-0.405-0.686l-0.218,0.146   c-0.086,0.057-0.202,0.033-0.262-0.051l-0.091-0.137c-0.058-0.086-0.035-0.203,0.051-0.262l0.214-0.145   c-0.156-0.213-0.319-0.418-0.492-0.617l-0.192,0.172c-0.076,0.07-0.195,0.064-0.265-0.012l-0.109-0.123   c-0.069-0.076-0.063-0.195,0.014-0.266l0.188-0.168c-0.186-0.193-0.38-0.377-0.581-0.553l-0.164,0.195   c-0.067,0.08-0.186,0.09-0.266,0.021l-0.125-0.104c-0.079-0.066-0.09-0.186-0.022-0.264l0.161-0.193   c-0.209-0.162-0.424-0.316-0.645-0.461l-0.135,0.217c-0.056,0.088-0.171,0.113-0.26,0.061l-0.139-0.09   c-0.087-0.055-0.114-0.17-0.06-0.258l0.018-0.027l0.115-0.186c-0.23-0.133-0.466-0.254-0.708-0.369l-0.106,0.24   c-0.043,0.094-0.154,0.137-0.248,0.096l-0.15-0.066c-0.094-0.043-0.137-0.154-0.095-0.249l0.104-0.236   c-0.243-0.099-0.492-0.188-0.746-0.265l-0.07,0.247c-0.028,0.101-0.133,0.158-0.232,0.129l-0.157-0.046   c-0.1-0.028-0.157-0.131-0.129-0.231l0.069-0.242c-0.255-0.063-0.514-0.116-0.776-0.157l-0.036,0.254   c-0.014,0.102-0.109,0.174-0.212,0.16l-0.161-0.023c-0.104-0.015-0.176-0.109-0.16-0.213l0.034-0.248   c-0.269-0.027-0.54-0.046-0.814-0.051v0.294c0,0.104-0.085,0.188-0.188,0.188H14.65c-0.104,0-0.188-0.083-0.188-0.188v-0.289   c-0.262,0.012-0.521,0.031-0.777,0.062l0.039,0.279c0.014,0.103-0.058,0.199-0.159,0.213l-0.163,0.021   c-0.103,0.016-0.197-0.057-0.212-0.159l-0.039-0.274c-0.263,0.046-0.522,0.103-0.777,0.17l0.076,0.268   c0.029,0.099-0.029,0.203-0.129,0.232l-0.157,0.044c-0.1,0.029-0.204-0.028-0.232-0.128l-0.075-0.263   c-0.255,0.083-0.506,0.177-0.75,0.28l0.11,0.251c0.043,0.094,0,0.207-0.095,0.248l-0.149,0.068   c-0.095,0.039-0.206-0.002-0.248-0.098l-0.11-0.246c-0.237,0.117-0.47,0.246-0.696,0.378l0.064,0.104l0.079,0.125   c0.055,0.09,0.028,0.205-0.061,0.26l-0.138,0.086c-0.089,0.057-0.205,0.029-0.26-0.059l-0.14-0.223   c-0.222,0.146-0.435,0.307-0.643,0.475l0.173,0.205c0.066,0.08,0.057,0.197-0.022,0.266l-0.126,0.105   c-0.079,0.066-0.198,0.055-0.265-0.023l-0.169-0.203c-0.197,0.178-0.387,0.365-0.567,0.559l0.2,0.18   c0.077,0.07,0.083,0.189,0.014,0.266L7.95,52.598c-0.07,0.076-0.189,0.082-0.267,0.012l-0.196-0.176   c-0.169,0.201-0.33,0.41-0.482,0.627l0.223,0.15c0.087,0.059,0.108,0.176,0.051,0.262l-0.092,0.135   c-0.058,0.086-0.174,0.107-0.261,0.051L6.707,53.51c-0.141,0.225-0.271,0.457-0.393,0.691l0.237,0.117   c0.094,0.045,0.133,0.158,0.087,0.252l-0.071,0.146c-0.045,0.094-0.158,0.133-0.251,0.086l-0.235-0.113   c-0.106,0.24-0.204,0.486-0.291,0.738l0.257,0.082c0.099,0.033,0.153,0.139,0.121,0.238l-0.051,0.154   c-0.032,0.1-0.138,0.154-0.236,0.121l-0.252-0.082c-0.074,0.256-0.137,0.516-0.188,0.781l0.267,0.047   c0.103,0.018,0.171,0.113,0.152,0.215l-0.027,0.162c-0.018,0.104-0.116,0.172-0.219,0.152l-0.261-0.045   c-0.036,0.26-0.062,0.523-0.075,0.787l0.274,0.01c0.104,0.004,0.185,0.09,0.182,0.193L5.729,58.41   c-0.004,0.102-0.091,0.184-0.194,0.18l-0.271-0.01c0.001,0.27,0.013,0.535,0.034,0.799l0.268-0.029   c0.104-0.01,0.195,0.064,0.207,0.168l0.017,0.162c0.011,0.104-0.063,0.197-0.167,0.209l-0.264,0.025   c0.038,0.266,0.086,0.527,0.145,0.785l0.26-0.064c0.102-0.025,0.203,0.037,0.228,0.137l0.04,0.158   c0.011,0.045,0.005,0.088-0.012,0.127c-0.023,0.049-0.067,0.086-0.125,0.104l-0.256,0.062c0.073,0.254,0.157,0.504,0.251,0.75   l0.257-0.104c0.097-0.041,0.206,0.008,0.245,0.104l0.061,0.152c0.04,0.094-0.007,0.203-0.104,0.244l-0.252,0.102   c0.108,0.242,0.227,0.48,0.354,0.709l0.241-0.139c0.091-0.051,0.205-0.021,0.257,0.068l0.082,0.143   c0.052,0.09,0.021,0.205-0.068,0.256l-0.237,0.139c0.141,0.225,0.291,0.443,0.45,0.654l0.218-0.17   c0.081-0.062,0.199-0.049,0.264,0.031l0.101,0.131c0.064,0.082,0.049,0.199-0.033,0.262L7.68,64.59l-0.169,0.133   c0.172,0.203,0.352,0.4,0.54,0.59l0.188-0.195c0.072-0.072,0.19-0.076,0.266-0.006l0.117,0.115   c0.075,0.072,0.077,0.191,0.006,0.264l-0.186,0.193c0.196,0.178,0.4,0.344,0.609,0.504l0.164-0.225   c0.062-0.084,0.179-0.102,0.263-0.041l0.133,0.096c0.083,0.061,0.102,0.18,0.041,0.262l-0.161,0.223   c0.219,0.146,0.443,0.285,0.674,0.414l0.131-0.246c0.049-0.094,0.163-0.127,0.255-0.078l0.144,0.076   c0.092,0.051,0.128,0.162,0.079,0.256l-0.13,0.242c0.238,0.117,0.483,0.225,0.733,0.32l0.095-0.26   c0.035-0.1,0.144-0.148,0.241-0.113l0.153,0.055c0.098,0.037,0.147,0.145,0.112,0.242l-0.094,0.258   c0.253,0.08,0.511,0.152,0.771,0.213l0.059-0.275c0.021-0.102,0.121-0.166,0.223-0.146l0.16,0.035   c0.102,0.023,0.167,0.123,0.145,0.225l-0.057,0.27c0.257,0.043,0.519,0.08,0.783,0.1l0.019-0.277   c0.008-0.104,0.098-0.182,0.201-0.174l0.163,0.01c0.104,0.008,0.181,0.098,0.175,0.201l-0.02,0.273   c0.106,0.004,0.214,0.008,0.321,0.008c0.159,0,0.317-0.006,0.475-0.014l-0.02-0.281c-0.008-0.104,0.07-0.193,0.174-0.201   l0.163-0.01c0.104-0.008,0.193,0.07,0.2,0.174l0.021,0.277c0.266-0.027,0.528-0.064,0.787-0.113l-0.059-0.277   c-0.022-0.1,0.042-0.201,0.145-0.225l0.16-0.031c0.101-0.021,0.201,0.043,0.223,0.145l0.058,0.271   c0.259-0.064,0.515-0.141,0.765-0.225l-0.098-0.27c-0.035-0.098,0.015-0.205,0.112-0.24l0.154-0.057   c0.097-0.035,0.205,0.016,0.24,0.111l0.096,0.266c0.247-0.102,0.489-0.211,0.726-0.332l-0.134-0.25   c-0.049-0.094-0.014-0.205,0.078-0.254l0.145-0.078c0.092-0.049,0.205-0.014,0.254,0.078l0.132,0.248   c0.23-0.135,0.457-0.281,0.675-0.432l-0.162-0.223c-0.062-0.086-0.043-0.203,0.041-0.266l0.133-0.094   c0.083-0.062,0.201-0.043,0.263,0.039l0.159,0.221c0.209-0.164,0.411-0.338,0.606-0.518l-0.196-0.203   c-0.072-0.074-0.07-0.193,0.005-0.264l0.117-0.117c0.075-0.07,0.193-0.068,0.266,0.006l0.192,0.199   c0.185-0.189,0.359-0.391,0.527-0.594l-0.008-0.008l-0.215-0.166c-0.082-0.066-0.097-0.182-0.032-0.264l0.101-0.129   c0.063-0.084,0.182-0.098,0.264-0.033l0.219,0.17c0.156-0.213,0.304-0.434,0.439-0.662l-0.243-0.141   c-0.089-0.051-0.12-0.166-0.068-0.256l0.082-0.143c0.052-0.09,0.167-0.119,0.257-0.07l0.239,0.141   c0.124-0.234,0.238-0.473,0.342-0.717l-0.254-0.104c-0.097-0.039-0.143-0.146-0.104-0.244l0.062-0.152   c0.038-0.096,0.148-0.141,0.244-0.104l0.251,0.102c0.09-0.248,0.17-0.502,0.239-0.758l-0.014-0.002l-0.252-0.066   c-0.101-0.023-0.161-0.125-0.137-0.227l0.04-0.158c0.025-0.102,0.127-0.162,0.228-0.137l0.26,0.064   c0.056-0.26,0.099-0.525,0.132-0.789l-0.273-0.031c-0.103-0.01-0.178-0.102-0.167-0.207l0.017-0.162   c0.011-0.102,0.104-0.178,0.207-0.166l0.268,0.027c0.014-0.213,0.021-0.428,0.021-0.643v-0.148L24.122,58.426z M20.791,61.059   L20.791,61.059c-0.678,1.617-1.993,2.9-3.633,3.531v0.002c-0.723,0.279-1.509,0.436-2.33,0.436s-1.606-0.156-2.33-0.438h-0.005   c-1.637-0.635-2.951-1.916-3.628-3.531H8.864c-0.319-0.768-0.497-1.611-0.497-2.494c0-3.568,2.893-6.459,6.461-6.459   s6.46,2.891,6.46,6.459C21.288,59.447,21.112,60.291,20.791,61.059z"/>
	<path d="M31.15,51.477c0,0.258,0.211,0.469,0.471,0.469h17.588V37.112L31.15,37.106v13.351V51.477z M48.185,47.367H37.451   c-0.626,0-0.626-0.94,0-0.94h10.733C48.81,46.426,48.81,47.367,48.185,47.367z M48.185,43.365H37.451c-0.626,0-0.626-0.938,0-0.938   h10.733C48.81,42.426,48.81,43.365,48.185,43.365z M32.682,39.282h13.604c0.627,0,0.627,0.938,0,0.938H32.682   C32.056,40.22,32.056,39.282,32.682,39.282z M32.682,49.494h13.604c0.627,0,0.627,0.94,0,0.94H32.682   C32.056,50.434,32.056,49.494,32.682,49.494z"/>
	<path d="M67.054,51.945c0.259,0,0.47-0.211,0.47-0.469v-1.02l0,0V37.112H49.522v14.833H67.054z M65.864,50.434H52.26   c-0.626,0-0.626-0.94,0-0.94h13.604C66.491,49.494,66.491,50.434,65.864,50.434z M52.26,39.282h13.604c0.627,0,0.627,0.938,0,0.938   H52.26C51.634,40.22,51.634,39.282,52.26,39.282z M50.583,42.426h10.732c0.627,0,0.627,0.938,0,0.938H50.583   C49.957,43.365,49.957,42.426,50.583,42.426z M50.583,46.426h10.732c0.627,0,0.627,0.94,0,0.94H50.583   C49.957,47.367,49.957,46.426,50.583,46.426z"/>
	<path d="M83.593,57.773c-0.141-0.426,0.11-0.896,0.563-1.088c-0.491-0.826-1.298-1.439-2.255-1.68   c-0.047,0.486-0.414,0.863-0.857,0.863c-0.45,0-0.817-0.383-0.858-0.873c-0.951,0.221-1.758,0.814-2.261,1.615   c0.448,0.195,0.692,0.662,0.555,1.084c-0.139,0.428-0.616,0.658-1.097,0.549c-0.006,0.1-0.013,0.201-0.013,0.303   c0,0.893,0.322,1.711,0.854,2.346c0.325-0.35,0.833-0.434,1.186-0.176c0.122,0.09,0.209,0.205,0.265,0.342h0.002   c0.106,0.258,0.085,0.574-0.073,0.854c0.437,0.182,0.913,0.281,1.416,0.281c0.474,0,0.928-0.09,1.342-0.254   c-0.158-0.291-0.168-0.623-0.039-0.881v-0.006c0.055-0.111,0.136-0.213,0.242-0.291c0.359-0.26,0.872-0.172,1.199,0.188   c0.562-0.641,0.901-1.482,0.901-2.402c0-0.074,0-0.146-0.006-0.221C84.188,58.422,83.727,58.191,83.593,57.773z M81.032,59.725   c-0.642,0-1.16-0.52-1.16-1.16c0-0.639,0.519-1.158,1.16-1.158c0.639,0,1.159,0.52,1.159,1.158   C82.191,59.205,81.671,59.725,81.032,59.725z"/>
	<path d="M90.325,58.426c-0.103,0.002-0.191-0.078-0.195-0.182l-0.004-0.164c-0.004-0.104,0.077-0.191,0.18-0.195l0.266-0.008   c-0.018-0.266-0.049-0.527-0.089-0.787l-0.266,0.047c-0.103,0.018-0.199-0.051-0.217-0.152l-0.03-0.162   c-0.016-0.102,0.052-0.199,0.154-0.217l0.262-0.047c-0.057-0.262-0.124-0.52-0.201-0.771l-0.252,0.082   c-0.099,0.031-0.205-0.023-0.237-0.119l-0.049-0.158c-0.033-0.098,0.02-0.205,0.118-0.236l0.251-0.08   c-0.093-0.25-0.193-0.494-0.304-0.734l-0.239,0.117c-0.095,0.043-0.205,0.006-0.252-0.088l-0.071-0.148   c-0.046-0.092-0.008-0.203,0.085-0.25l0.236-0.113c-0.126-0.234-0.262-0.465-0.408-0.686l-0.215,0.146   c-0.087,0.057-0.203,0.033-0.263-0.051l-0.091-0.137c-0.059-0.086-0.035-0.203,0.052-0.262l0.213-0.145   c-0.156-0.213-0.319-0.418-0.493-0.617l-0.191,0.172c-0.077,0.07-0.195,0.064-0.265-0.012l-0.11-0.123   c-0.068-0.076-0.062-0.195,0.014-0.266l0.189-0.168c-0.186-0.193-0.381-0.377-0.582-0.553l-0.165,0.195   c-0.065,0.08-0.184,0.09-0.263,0.021l-0.126-0.104c-0.079-0.066-0.091-0.186-0.023-0.264l0.159-0.193   c-0.205-0.162-0.42-0.316-0.643-0.461l-0.135,0.217c-0.055,0.088-0.169,0.113-0.258,0.061l-0.141-0.09   c-0.087-0.055-0.114-0.17-0.059-0.258l0.018-0.027l0.114-0.186c-0.23-0.133-0.466-0.254-0.708-0.369l-0.106,0.24   c-0.042,0.094-0.152,0.137-0.247,0.096l-0.149-0.066c-0.095-0.043-0.139-0.154-0.097-0.249l0.106-0.236   c-0.243-0.099-0.493-0.188-0.748-0.265l-0.071,0.247c-0.027,0.101-0.132,0.158-0.23,0.129l-0.157-0.046   c-0.099-0.028-0.158-0.131-0.129-0.231l0.069-0.242c-0.255-0.063-0.513-0.116-0.775-0.157l-0.037,0.254   c-0.014,0.102-0.108,0.174-0.211,0.16l-0.164-0.023c-0.103-0.015-0.174-0.109-0.16-0.213l0.036-0.248   c-0.269-0.027-0.541-0.046-0.815-0.051v0.294c0,0.104-0.082,0.188-0.188,0.188h-0.165c-0.103,0-0.188-0.083-0.188-0.188v-0.289   c-0.263,0.012-0.521,0.031-0.777,0.062l0.041,0.279c0.015,0.103-0.059,0.199-0.159,0.213l-0.164,0.021   c-0.103,0.016-0.197-0.057-0.213-0.159l-0.039-0.274c-0.263,0.046-0.521,0.103-0.775,0.17l0.074,0.268   c0.028,0.099-0.029,0.203-0.128,0.232l-0.157,0.044c-0.099,0.029-0.205-0.028-0.233-0.128l-0.075-0.263   c-0.254,0.083-0.505,0.177-0.749,0.28l0.11,0.251c0.043,0.094,0,0.207-0.095,0.248l-0.149,0.068   c-0.095,0.039-0.206-0.002-0.249-0.098l-0.108-0.246c-0.239,0.117-0.472,0.246-0.698,0.378l0.064,0.104l0.077,0.125   c0.056,0.09,0.03,0.205-0.057,0.26l-0.139,0.086c-0.089,0.057-0.205,0.029-0.26-0.059l-0.141-0.223   c-0.221,0.146-0.434,0.307-0.643,0.475l0.173,0.205c0.069,0.08,0.058,0.197-0.023,0.266l-0.124,0.105   c-0.081,0.066-0.199,0.055-0.265-0.023l-0.169-0.203c-0.197,0.178-0.385,0.365-0.568,0.559l0.201,0.18   c0.077,0.07,0.083,0.189,0.014,0.266l-0.11,0.123c-0.069,0.076-0.188,0.082-0.265,0.012l-0.199-0.176   c-0.166,0.201-0.327,0.41-0.479,0.627l0.224,0.15c0.084,0.059,0.108,0.176,0.049,0.262l-0.093,0.135   c-0.055,0.086-0.174,0.107-0.259,0.051L72.91,53.51c-0.142,0.225-0.271,0.457-0.393,0.691l0.239,0.117   c0.093,0.045,0.13,0.158,0.085,0.252l-0.071,0.146c-0.046,0.094-0.158,0.133-0.251,0.086l-0.234-0.113   c-0.108,0.24-0.205,0.486-0.292,0.738l0.257,0.082c0.099,0.033,0.153,0.139,0.122,0.238l-0.052,0.154   c-0.033,0.1-0.14,0.154-0.236,0.121l-0.255-0.082c-0.07,0.256-0.134,0.516-0.186,0.781l0.269,0.047   c0.101,0.018,0.17,0.113,0.15,0.215l-0.026,0.162c-0.02,0.104-0.118,0.172-0.219,0.152l-0.26-0.045   c-0.038,0.26-0.062,0.523-0.077,0.787l0.274,0.01c0.104,0.004,0.185,0.09,0.181,0.193L71.93,58.41   c-0.002,0.102-0.089,0.184-0.193,0.18l-0.27-0.01c0,0.27,0.012,0.535,0.035,0.799l0.267-0.029c0.104-0.01,0.195,0.064,0.207,0.168   l0.018,0.162c0.01,0.104-0.065,0.197-0.168,0.209l-0.264,0.025c0.037,0.266,0.084,0.527,0.146,0.785l0.259-0.064   c0.101-0.025,0.203,0.037,0.229,0.137l0.037,0.158c0.015,0.045,0.006,0.088-0.012,0.127c-0.021,0.049-0.066,0.086-0.124,0.104   l-0.255,0.062c0.073,0.254,0.158,0.504,0.249,0.75l0.261-0.104c0.095-0.041,0.203,0.008,0.244,0.104l0.06,0.152   c0.039,0.094-0.006,0.203-0.103,0.244l-0.253,0.102c0.108,0.242,0.225,0.48,0.354,0.709l0.242-0.139   c0.091-0.051,0.205-0.021,0.259,0.068l0.081,0.143c0.051,0.09,0.02,0.205-0.069,0.256l-0.239,0.139   c0.143,0.225,0.292,0.443,0.452,0.654l0.217-0.17c0.081-0.062,0.199-0.049,0.265,0.031l0.101,0.131   c0.063,0.082,0.047,0.199-0.031,0.262l-0.046,0.035l-0.17,0.133c0.172,0.203,0.352,0.4,0.541,0.59l0.188-0.195   c0.073-0.072,0.191-0.076,0.266-0.006l0.117,0.115c0.076,0.072,0.078,0.191,0.006,0.264l-0.186,0.193   c0.197,0.178,0.4,0.344,0.609,0.504l0.166-0.225c0.061-0.084,0.178-0.102,0.262-0.041l0.133,0.096   c0.083,0.061,0.103,0.18,0.041,0.262l-0.162,0.223c0.22,0.146,0.444,0.285,0.675,0.414l0.133-0.246   c0.047-0.094,0.161-0.127,0.252-0.078l0.145,0.076c0.093,0.051,0.128,0.162,0.078,0.256l-0.128,0.242   c0.237,0.117,0.481,0.225,0.732,0.32l0.095-0.26c0.037-0.1,0.144-0.148,0.24-0.113l0.156,0.055c0.097,0.037,0.146,0.145,0.11,0.242   l-0.093,0.258c0.25,0.08,0.509,0.152,0.771,0.213l0.057-0.275c0.023-0.102,0.122-0.166,0.221-0.146l0.162,0.035   c0.103,0.023,0.166,0.123,0.145,0.225l-0.056,0.27c0.257,0.043,0.517,0.08,0.781,0.1l0.021-0.277   c0.008-0.104,0.097-0.182,0.199-0.174l0.166,0.01c0.103,0.008,0.18,0.098,0.174,0.201l-0.021,0.273   c0.106,0.004,0.214,0.008,0.322,0.008c0.159,0,0.317-0.006,0.473-0.014l-0.02-0.281c-0.006-0.104,0.071-0.193,0.174-0.201   l0.164-0.01c0.103-0.008,0.191,0.07,0.201,0.174l0.018,0.277c0.269-0.027,0.53-0.064,0.789-0.113l-0.058-0.277   c-0.023-0.1,0.042-0.201,0.145-0.225l0.159-0.031c0.101-0.021,0.199,0.043,0.224,0.145l0.057,0.271   c0.259-0.064,0.513-0.141,0.764-0.225l-0.097-0.27c-0.035-0.098,0.014-0.205,0.112-0.24l0.154-0.057   c0.099-0.035,0.205,0.016,0.24,0.111l0.097,0.266c0.245-0.102,0.489-0.211,0.724-0.332l-0.134-0.25   c-0.047-0.094-0.014-0.205,0.079-0.254l0.144-0.078c0.091-0.049,0.205-0.014,0.255,0.078l0.132,0.248   c0.231-0.135,0.456-0.281,0.675-0.432l-0.162-0.223c-0.061-0.086-0.043-0.203,0.042-0.266l0.13-0.094   c0.085-0.062,0.203-0.043,0.263,0.039l0.159,0.221c0.212-0.164,0.413-0.338,0.608-0.518l-0.195-0.203   c-0.073-0.074-0.071-0.193,0.004-0.264l0.116-0.117c0.075-0.07,0.193-0.068,0.267,0.006l0.193,0.199   c0.183-0.189,0.358-0.391,0.526-0.594l-0.008-0.008l-0.217-0.166c-0.079-0.066-0.095-0.182-0.032-0.264l0.103-0.129   c0.063-0.084,0.182-0.098,0.263-0.033l0.221,0.17c0.156-0.213,0.302-0.434,0.438-0.662l-0.243-0.141   c-0.091-0.051-0.12-0.166-0.069-0.256l0.083-0.143c0.052-0.09,0.166-0.119,0.257-0.07l0.24,0.141   c0.123-0.234,0.237-0.473,0.34-0.717l-0.253-0.104c-0.099-0.039-0.144-0.146-0.104-0.244l0.062-0.152   c0.037-0.096,0.147-0.141,0.244-0.104l0.251,0.102c0.089-0.248,0.17-0.502,0.238-0.758l-0.014-0.002l-0.25-0.066   c-0.103-0.023-0.162-0.125-0.139-0.227l0.042-0.158c0.023-0.102,0.126-0.162,0.225-0.137l0.263,0.064   c0.055-0.26,0.099-0.525,0.132-0.789l-0.272-0.031c-0.106-0.01-0.18-0.102-0.17-0.207l0.017-0.162   c0.012-0.102,0.104-0.178,0.207-0.166l0.268,0.027c0.017-0.213,0.022-0.428,0.022-0.643l-0.002-0.148L90.325,58.426z    M86.993,61.059L86.993,61.059c-0.677,1.617-1.992,2.9-3.632,3.531v0.002c-0.724,0.279-1.509,0.436-2.329,0.436   c-0.823,0-1.61-0.156-2.33-0.438h-0.006c-1.636-0.635-2.951-1.916-3.628-3.531c-0.319-0.768-0.499-1.611-0.499-2.494   c0-3.568,2.894-6.459,6.463-6.459c3.566,0,6.46,2.891,6.46,6.459C87.492,59.447,87.314,60.291,86.993,61.059z"/>
	<path d="M93.611,37.112H67.835v14.365c0,0.432-0.35,0.783-0.781,0.783H31.621c-0.434,0-0.783-0.352-0.783-0.783v-1.02l0,0V36.794   l63.355-0.014l-7.979-14.137l-26.116-1.375c0,0-24.948,4.562-25.138,4.608c-0.314,0.076-0.352,0.265-0.352,0.369   c0,0.161,0.155,0.298,0.36,0.323c0.013,0.002,0.498,0.002,0.956,0.002l-5.312,8.259l-3,2.658l-2.493,0.933   c0.267-0.252,0.372-0.649,0.235-1.014l-0.77-2.056c-0.182-0.485-0.722-0.733-1.208-0.551l-11.837,4.425l-3.026-0.931   c-0.641-0.951-2.08-0.69-2.418,0.377c-0.315,1.068,0.749,2.07,1.801,1.645l0.401,0.121l-1.667,0.624   c-0.116,0.042-0.219,0.106-0.305,0.187c-0.532-0.23-1.078-0.385-1.562-0.476l-0.272-0.006c-0.741,0-1.354,0.602-1.354,1.347v4.492   c-0.834,0.306-1.385,0.505-1.554,0.561c-1.322,0.431-1.214,1.027-1.214,1.027v3.244h1.477l3.46,4.016   c0.661-2.021,1.949-3.764,3.636-4.992h0.004c1.651-1.2,3.684-1.908,5.88-1.908c2.194,0,4.224,0.706,5.874,1.904h0.001   c2.507,1.818,4.138,4.771,4.138,8.107c0,0.324-0.016,0.645-0.046,0.959l46.268-0.01c-0.028-0.312-0.044-0.629-0.044-0.949   c0-3.336,1.632-6.291,4.137-8.107v-0.002c1.653-1.196,3.681-1.902,5.877-1.902c2.195,0,4.225,0.706,5.876,1.904l0,0   c1.278,0.928,2.33,2.152,3.052,3.572h2.006c-0.532-1.326-1.298-2.533-2.244-3.572v-0.002c-2.172-2.387-5.307-3.886-8.79-3.886   c-3.484,0-6.619,1.499-8.793,3.888c-1.586,1.744-2.661,3.959-2.988,6.412c-0.153,1.111-0.787,1.949-1.557,1.949   c-0.059,0-0.118-0.006-0.173-0.014c-0.015-0.115-0.004-0.232-0.004-0.35c0-2.99,0.972-5.754,2.615-7.994h0.002   c2.46-3.348,6.425-5.521,10.897-5.521c4.474,0,8.437,2.173,10.896,5.517v0.004c0.795,1.078,1.431,2.277,1.876,3.568h5.825v-3.572   v-1.901L93.611,37.112z M51.303,27.931h9.874l3.864,8.024H51.303V27.931z M36.878,27.931H47.2v8.024H36.684l-0.598-1.201   c-0.28-0.559-1.12-0.138-0.839,0.422l0.392,0.779h-2.604L36.878,27.931z M29.668,47.496h-0.23c0.248-0.189,0.466-0.422,0.644-0.704   C30.228,47.07,30.09,47.496,29.668,47.496z M29.873,50.457L29.873,50.457c-0.059,0.027-0.127,0.041-0.205,0.041h-3.859   c-0.079,0-0.146-0.014-0.206-0.041l0,0c-0.41-0.18-0.342-0.898,0.206-0.898h3.859C30.216,49.559,30.284,50.279,29.873,50.457z    M29.668,42.426c0.585,0,0.623,0.819,0.116,0.927c-0.285-0.341-0.632-0.653-1.011-0.927H29.668z M25.044,37.585l0.057,0.153   c0,0.048-0.006,0.094-0.016,0.139l-0.101-0.27l-0.149,0.055l0.159,0.426c-0.022,0.033-0.049,0.063-0.078,0.093l-0.18-0.481   l-0.242,0.091l0.199,0.534l-0.192,0.071l-0.199-0.533l-0.326,0.121l0.2,0.534l-0.256,0.096l-0.199-0.533l-0.44,0.163l0.2,0.535   l-0.313,0.116l-0.199-0.534l-0.505,0.188l0.199,0.534l-0.354,0.134l-0.199-0.534l-0.582,0.216l0.199,0.534l-0.411,0.155l-0.2-0.535   l-0.633,0.238l0.199,0.532l-0.453,0.17l-0.2-0.532l-0.676,0.251l0.2,0.535l-0.497,0.184l-0.199-0.533l-0.71,0.266l0.199,0.534   l-0.496,0.187l-0.2-0.535l-0.732,0.273l0.108,0.29l-0.771-0.236l8.727-3.263L25.044,37.585z M24.24,42.426l-0.082,0.183   c-0.021,0.009-0.059,0.026-0.084,0.04l-0.78-0.223H24.24z M24.823,36.994l0.034,0.092l-9.151,3.421l-0.155-0.045L24.823,36.994z    M24.421,35.917l0.035,0.094l-10.55,3.944l-0.155-0.049L24.421,35.917z M13.091,38.982l0.497-0.186l0.198,0.528l0.731-0.274   l-0.197-0.527l0.496-0.187l0.198,0.529l0.595-0.222l-0.198-0.531l0.497-0.185l0.198,0.528l0.731-0.272l-0.197-0.531l0.497-0.185   l0.197,0.53l0.71-0.266l-0.197-0.53l0.496-0.186l0.198,0.531l0.676-0.255l-0.198-0.528l0.454-0.17l0.198,0.528l0.632-0.236   l-0.197-0.528l0.412-0.154l0.198,0.53l0.581-0.218l-0.198-0.53l0.355-0.132l0.197,0.528l0.506-0.189l-0.198-0.529l0.312-0.115   l0.197,0.528l0.44-0.164l-0.197-0.53l0.255-0.095l0.197,0.529l0.328-0.121l-0.199-0.529l0.192-0.073l0.198,0.53l0.242-0.089   l-0.179-0.479c0.041,0.004,0.082,0.01,0.121,0.021l0.157,0.419l0.147-0.055l-0.099-0.265c0.037,0.025,0.071,0.06,0.103,0.095   l0.057,0.147l0.063,0.172l-11.094,4.147l-0.287-0.088l0.372-0.138L13.091,38.982z M12.381,39.248l0.102,0.269l-0.451-0.138   L12.381,39.248z M7.796,39.495c-0.152,0.149-0.368,0.197-0.578,0.134c-0.312-0.097-0.488-0.424-0.396-0.737   c0.098-0.308,0.434-0.499,0.745-0.403c0.21,0.063,0.361,0.226,0.405,0.435l12.361,3.8l0.1-0.327l3.585,1.025   c0,0,0.597,0.022,0.83-0.496c0.428-0.944,0.55-1.296,0.55-1.296s4.534,1.296,4.371,3.812c-0.009,0.133-0.039,0.273-0.089,0.435   c-0.043,0.134-0.102,0.291-0.168,0.405c-1.271,2.177-5.756,0.717-5.756,0.717s0.097-0.362,0.271-1.383   c0.095-0.56-0.412-0.875-0.412-0.875l-3.545-1.156l0.101-0.327L7.796,39.495z M23.064,46.557c-0.064,0.439-0.114,0.795-0.133,0.938   h-0.414c-0.626,0-0.626-0.938,0-0.938H23.064z M17.924,43.365h-2.003c-0.435,0-0.567-0.453-0.398-0.729L17.924,43.365z    M12.416,42.916l-0.453,0.168l-0.2-0.533l-0.634,0.236l0.2,0.535l-0.411,0.152l-0.2-0.533l-0.582,0.218l0.2,0.533l-0.354,0.135   l-0.2-0.537l-0.505,0.191l0.199,0.533l-0.312,0.117l-0.199-0.533l-0.175,0.063c-0.018-0.059-0.035-0.117-0.056-0.175l4.302-1.608   l0.372,0.113l0.182,0.485l-0.497,0.185l-0.2-0.534l-0.675,0.253L12.416,42.916z M12.33,41.665l0.155,0.047l-3.889,1.454   L8.55,43.077L12.33,41.665z M7.864,42.213l-0.083-0.075l2.739-1.024l0.155,0.048L7.864,42.213z M7.516,41.065l0.198,0.53   l0.44-0.163L7.956,40.9l0.312-0.115l0.197,0.528l0.506-0.188l-0.18-0.536l0.433,0.132l0.102,0.271l0.355-0.133l0.289,0.089   l-2.508,0.935c-0.06-0.042-0.12-0.085-0.184-0.126l0.179-0.067l-0.197-0.528L7.516,41.065z M6.934,41.284l0.126,0.335   c-0.092-0.055-0.186-0.106-0.281-0.155l-0.039-0.106L6.934,41.284z M4.692,41.491c2.012,0.377,3.479,1.549,3.479,2.936   s-1.467,2.559-3.479,2.934V41.491z M3.859,46.732v-4.618c0-0.347,0.281-0.626,0.627-0.626l0.012,5.872   C4.141,47.36,3.859,47.079,3.859,46.732z M27.372,59.348c-0.913-0.121-1.729-1.414-2.227-3.281l-0.041-0.15   c-0.529-2.154-1.717-4.051-3.34-5.459h-0.002c-1.844-1.599-4.249-2.567-6.884-2.567c-2.636,0-5.044,0.968-6.891,2.567v0.002   c-0.407,0.354-0.787,0.736-1.136,1.146c-0.721,0.279-1.564,0.439-2.466,0.439c-0.096,0-0.191-0.002-0.286-0.006   c0.33-0.557,0.701-1.086,1.111-1.582v-0.002c2.297-2.786,5.774-4.561,9.667-4.561c3.895,0,7.373,1.777,9.67,4.563v0.004   c1.781,2.162,2.851,4.934,2.851,7.953c0,0.301-0.01,0.6-0.031,0.896L27.372,59.348z M66.021,57.85H29.849   c-0.626,0-0.626-0.936,0-0.936h36.173C66.649,56.914,66.649,57.85,66.021,57.85z M66.021,54.047H29.849   c-0.626,0-0.626-0.941,0-0.941h36.173C66.649,53.105,66.649,54.047,66.021,54.047z M68.804,39.282h24.218   c0.628,0,0.628,0.938,0,0.938H68.804C68.178,40.22,68.178,39.282,68.804,39.282z M69.355,50.457L69.355,50.457   c-0.059,0.027-0.126,0.041-0.205,0.041h-0.347c-0.077,0-0.146-0.014-0.205-0.041l0,0c-0.411-0.18-0.344-0.898,0.205-0.898h0.347   C69.697,49.559,69.766,50.279,69.355,50.457z M72.157,47.367h-3.354c-0.626,0-0.626-0.94,0-0.94h3.354   C72.782,46.426,72.782,47.367,72.157,47.367z M68.804,43.365c-0.626,0-0.626-0.938,0-0.938h25.922c0.626,0,0.626,0.938,0,0.938   H68.804z M89.765,47.432c-0.625,0-0.625-0.94,0-0.94h6.987c0.627,0,0.627,0.94,0,0.94H89.765z M98.529,50.457L98.529,50.457   c-0.058,0.027-0.126,0.041-0.205,0.041H92.95c-0.078,0-0.147-0.014-0.205-0.041l0,0c-0.41-0.18-0.343-0.898,0.205-0.898h5.374   C98.87,49.559,98.939,50.279,98.529,50.457z"/>
</g>
</svg>