<svg xmlns="http://www.w3.org/2000/svg" xmlns:xlink="http://www.w3.org/1999/xlink" version="1.1" id="Layer_1" x="0px" y="0px" width="50px" height="93.167px" viewBox="0 0 50 93.167" enable-background="new 0 0 50 93.167" xml:space="preserve">
<path d="M25.635,92.167c0,0,16.768-0.496,18.484-1.067c1.715-0.572,1.6-1.029,1.6-1.029s1.6-0.915-8.346-1.943  c-9.947-1.028-10.291-18.636-6.174-20.465c9.945-2.858,21.836-13.605,16.463-26.639C37.83,18.957,45.49,3.866,45.49,3.866  c0.057-0.515-0.305-0.763-0.801-0.857c-0.494-0.096-37.576-0.096-38.072,0c-0.495,0.095-0.857,0.343-0.8,0.857  c0,0,7.66,15.091-2.172,37.157c-5.374,13.033,6.517,23.78,16.463,26.639c4.115,1.829,3.773,19.437-6.174,20.465  S5.589,90.07,5.589,90.07s-0.115,0.457,1.601,1.029C8.905,91.67,25.635,92.167,25.635,92.167z"/>
</svg>