<svg xmlns="http://www.w3.org/2000/svg" xmlns:xlink="http://www.w3.org/1999/xlink" version="1.1" id="Layer_1" x="0px" y="0px" width="100px" height="100px" viewBox="0 0 100 100" enable-background="new 0 0 100 100" xml:space="preserve">
<path d="M94.247,31.48v-2.934H67.746c-0.092,0-3.557,0-11.945,0c-44.744,0-46.201-13.8-46.201-13.8v-3.6c0-2.43-1.97-4.4-4.4-4.4  c-2.43,0-4.4,1.97-4.4,4.4v56c0,2.43,1.97,4.4,4.4,4.4c2.43,0,4.4-1.971,4.4-4.4v-4.461c0,0,1.053-9.921,28.648-12.938h12.354  c8.456,2.026,1.832,6.509,3.447,7.417c1.732,0.975,2.107,1.797,1.059,3.887c-1.049,2.092-1.24,2.361-5.074,6.545  c-3.834,4.182-11.306,19.215-9.214,22.701c2.091,3.484,16.919,8.684,18.454,1.527c1.767-8.232,7.452-21.826,11.592-27.701  c3.43-4.869,12.461-9.59,12.461-9.59v-4.786h10.921v-2.933h3.565V31.48H94.247z"/>
</svg>