<?xml version="1.0" encoding="utf-8"?>
<!-- Generator: Adobe Illustrator 14.0.0, SVG Export Plug-In . SVG Version: 6.00 Build 43363)  -->
<!DOCTYPE svg PUBLIC "-//W3C//DTD SVG 1.0//EN" "http://www.w3.org/TR/2001/REC-SVG-20010904/DTD/svg10.dtd">
<svg version="1.0" id="Layer_1" xmlns="http://www.w3.org/2000/svg" xmlns:xlink="http://www.w3.org/1999/xlink" x="0px" y="0px"
	 width="100px" height="52.444px" viewBox="0 0 100 52.444" enable-background="new 0 0 100 52.444" xml:space="preserve">
<path d="M86.156,3.55c-0.595-1.903-2.339-3.199-4.333-3.218L47.038,0c-2.534-0.023-4.606,2.01-4.63,4.544
	c-0.024,2.533,2.009,4.606,4.542,4.628l0,0l31.448,0.3l2.19,7.014l-53.8-0.047l-0.332,0.013c-0.671,0.038-5.117,0.541-10.464,4.666
	C10.64,25.233,4.57,32.855,0.22,46.458c-0.448,1.402-0.205,2.918,0.664,4.105c0.869,1.188,2.237,1.883,3.708,1.881l90.827-0.082
	c2.531-0.002,4.584-2.056,4.581-4.588C100,46.782,86.156,3.55,86.156,3.55z M21.591,28.385c1.849-1.423,3.388-2.119,4.392-2.469
	c0.5-0.172,0.869-0.257,1.07-0.297c0.013-0.002,0.027-0.007,0.039-0.008l56.364,0.049l5.479,17.537l-77.769,0.069
	C14.653,35.034,18.577,30.717,21.591,28.385z"/>
</svg>
