<svg xmlns="http://www.w3.org/2000/svg" xmlns:xlink="http://www.w3.org/1999/xlink" version="1.1" id="Layer_1" x="0px" y="0px" width="58.8235294118px" height="100px" viewBox="0 0 100 170" enable-background="new 0 0 100 170" xml:space="preserve">
<path d="M78.961,77.631L90.449,53.97l-4.996-19.39c0.842-0.341,1.438-1.164,1.438-2.127v-7.939c0-1.268-1.027-2.297-2.299-2.297  c-0.873,0-1.623,0.494-2.014,1.212l-0.123-0.479L82.4,23.86c-0.062,0.208-0.105,0.425-0.105,0.654v1.107l-0.205,3.432V8.852  c0-2.769-2.246-5.013-5.014-5.013c-2.77,0-5.014,2.245-5.014,5.013v39.267c0,2.768,2.244,5.013,5.014,5.013  c2.768,0,5.014-2.245,5.014-5.013V37.624l4.1,15.879L74.607,77.356H16.295c-3.229,0-5.849,2.619-5.849,5.849s2.619,5.85,5.849,5.85  h22.506v15.875h3.341v41.354h-3.341v2.826c-1.878,0.271-3.535,1.223-4.707,2.604H21.053c-1.396-1.645-3.475-2.691-5.802-2.691  c-4.2,0-7.608,3.408-7.608,7.605v5.76l1.758-0.518c0.696,2.594,3.038,4.514,5.85,4.514c3.357,0,6.079-2.727,6.079-6.084  c0-0.646-0.128-1.26-0.316-1.844l1.847-0.541v-1.287c0-0.539-0.058-1.066-0.165-1.57h9.756c-0.107,0.504-0.165,1.031-0.165,1.57  v4.277h1.59c0.308,3.07,2.868,5.479,6.02,5.479c3.151,0,5.71-2.408,6.019-5.479h1.589v-4.277c0-0.539-0.058-1.066-0.165-1.57h17.278  c-0.107,0.504-0.166,1.031-0.166,1.57v1.287l1.844,0.541c-0.186,0.584-0.314,1.197-0.314,1.844c0,3.357,2.723,6.084,6.078,6.084  c2.812,0,5.156-1.92,5.854-4.514l1.756,0.518v-5.76c0-4.197-3.406-7.605-7.609-7.605c-2.324,0-4.404,1.047-5.801,2.691H54.674v-5.43  h-3.342V104.93h3.342V89.055h22.609c3.229,0,5.848-2.62,5.848-5.85C83.131,80.563,81.369,78.356,78.961,77.631z"/>
</svg>