<svg xmlns="http://www.w3.org/2000/svg" xmlns:xlink="http://www.w3.org/1999/xlink" version="1.1" id="Layer_1" x="0px" y="0px" width="100px" height="100px" viewBox="0 0 100 100" enable-background="new 0 0 100 100" xml:space="preserve">
<g>
	<path fill="#000000" d="M39.587,63.889c6.043-6.043,15.875-6.043,21.926,0.008l7.311-7.311   c-10.075-10.074-26.478-10.082-36.549-0.01L39.587,63.889z"/>
	<path fill="#000000" d="M24.918,49.319c14.099-14.099,37.054-14.096,51.16,0.01l7.31-7.31   c-18.136-18.136-47.642-18.14-65.775-0.007L24.918,49.319z"/>
	<g>
		<path fill="#000000" d="M10.306,34.707c22.161-22.16,58.22-22.16,80.388,0.007L98,27.407C71.802,1.209,29.192,1.209,3,27.4    L10.306,34.707z"/>
	</g>
</g>
<g>
	<rect x="47.5" y="77.198" fill="#000000" width="6" height="20"/>
	<circle fill="#000000" cx="50.549" cy="76.198" r="9"/>
</g>
</svg>