<svg xmlns="http://www.w3.org/2000/svg" xmlns:xlink="http://www.w3.org/1999/xlink" version="1.1" id="Layer_1" x="0px" y="0px" width="100px" height="100px" viewBox="0 0 100 100" enable-background="new 0 0 100 100" xml:space="preserve">
<path d="M70,30.214C70,31.753,68.753,33,67.214,33H26.786C25.248,33,24,31.753,24,30.214v-4.429C24,24.247,25.248,23,26.786,23  h40.428C68.753,23,70,24.247,70,25.786V30.214z"/>
<path d="M67.052,22.154c0.084-0.677,0.13-1.364,0.13-2.06c0-9.933-8.877-17.985-19.825-17.985c-10.949,0-19.825,8.052-19.825,17.985  c0,0.696,0.045,1.383,0.131,2.06H67.052z"/>
<polygon points="47.378,96.954 27.497,34 67.26,34 "/>
</svg>