<svg xmlns="http://www.w3.org/2000/svg" xmlns:xlink="http://www.w3.org/1999/xlink" version="1.1" id="Layer_1" x="0px" y="0px" width="71.9424460432px" height="100px" viewBox="0 0 100 139" enable-background="new 0 0 100 139" xml:space="preserve">
<path d="M54.812,27.142c0.023-0.11,0.033-0.224,0.051-0.335H96.35c0-12.816-10.393-23.203-23.205-23.203  c-10.731,0-19.739,7.294-22.392,17.188c-0.364-0.079-0.739-0.125-1.126-0.125c-2.939,0-5.32,2.378-5.32,5.32  c0,0.895,0.242,1.726,0.633,2.466l-35.763,35.9c-0.446-0.122-0.907-0.208-1.391-0.208c-2.938,0-5.318,2.382-5.318,5.319  c0,2.943,2.38,5.32,5.318,5.32c0.171,0,0.332-0.033,0.499-0.051l22.168,44.564c-0.823,0.936-1.338,2.148-1.338,3.494  c0,2.73,2.059,4.945,4.703,5.256c-0.74,2.227-1.141,4.594-1.141,7.051h49.765c0-12.988-11.141-23.516-24.886-23.516  c-7.511,0-14.229,3.16-18.791,8.133c-0.964-1.354-2.54-2.244-4.329-2.244c-0.691,0-1.348,0.143-1.954,0.381l-21.844-43.91  c1.479-0.943,2.466-2.59,2.466-4.479c0-1.53-0.655-2.9-1.69-3.871l35.141-35.276c0.868,0.617,1.924,0.988,3.07,0.988  c1.936,0,3.615-1.046,4.545-2.594l2.562,1.924h39.524v-1.64H57.283L54.812,27.142z"/>
</svg>