<svg xmlns="http://www.w3.org/2000/svg" xmlns:xlink="http://www.w3.org/1999/xlink" version="1.1" id="Layer_1" x="0px" y="0px" width="55.5555555556px" height="100px" viewBox="0 0 100 180" enable-background="new 0 0 100 180" xml:space="preserve">
<path d="M58.241,171.215l-4.147-4.608H52.17v-53.367h0.559l1.365-2.73h0.124V60.617h1.118l1.721,6.883  c0.037,0.147,0.118,0.28,0.232,0.38l11.915,10.425c0.142,0.124,0.315,0.184,0.49,0.184c0.207,0,0.413-0.086,0.561-0.254  c0.271-0.31,0.239-0.78-0.07-1.051L58.445,66.913l-1.573-6.295h5.003v-2.67h4.915c8.685,0,15.75-7.066,15.75-15.75V6.254  c0-1.304-1.057-2.362-2.361-2.362s-2.361,1.058-2.361,2.362v35.942c0,6.081-4.947,11.027-11.027,11.027H30.962  c-1.124-0.1-7.894-0.519-12.417,3.521c-2.637,2.356-3.975,5.674-3.975,9.862v6.298c0,1.304,1.058,2.362,2.362,2.362  s2.362-1.058,2.362-2.362v-6.298c0-2.816,0.779-4.885,2.383-6.326c3.246-2.917,8.855-2.354,8.905-2.349  c0.088,0.01,0.176,0.015,0.265,0.015h1.986v2.67h11.703v47.285H23.153c-0.411,0-0.745,0.334-0.745,0.745s0.333,0.745,0.745,0.745  h21.384v1.116h0.124l1.365,2.73h0.559v53.367h-1.923l-4.192,4.658L11.4,174.662v1.26h75.954v-1.26L58.241,171.215z"/>
</svg>