<svg xmlns="http://www.w3.org/2000/svg" xmlns:xlink="http://www.w3.org/1999/xlink" version="1.1" id="Layer_1" x="0px" y="0px" width="100px" height="100px" viewBox="0 0 100 100" enable-background="new 0 0 100 100" xml:space="preserve">
<path d="M88,24V2.001L85.844,0H26.41L12,14.001V32l2,0v6h-2c0,0,0,58.001,0,60.001S14,100,14,100h26v-1h8v1h4v-1h8v1h26.016  c0,0,1.984,0.001,1.984-1.999S88,46,88,46l-2,0V35.035L87,34v-9h-1v-1H88z M23.482,28H18V11.5h5.482V28z M31.482,18.75H26V2.25  h5.482V18.75z M39.482,18.75H34V2.25h5.483V18.75z M47.482,18.75H42V2.25h5.483V18.75z M55.481,18.75h-5.48V2.25h5.48V18.75z   M63.481,18.75H58V2.25h5.481V18.75z M71.481,18.75H66V2.25h5.481V18.75z M79.481,18.75H74V2.25h5.481V18.75z M85.481,18.75H80V2.25  h5.481V18.75z"/>
</svg>