<svg xmlns="http://www.w3.org/2000/svg" xmlns:xlink="http://www.w3.org/1999/xlink" version="1.1" id="Layer_1" x="0px" y="0px" width="70.7491082045px" height="100px" viewBox="0 0 595.28 841.89" enable-background="new 0 0 595.28 841.89" xml:space="preserve">
<path d="M563.112,333.05c0-27.425-12.278-88.415-67.947-92.713c-52.256-4.035-73.028,73.357-73.066,73.884h-38.886v-12.28h-32.746  v12.28l-311.296-0.205c0,0-15.759,13.712,0,28.653h44.822l0.204,32.747H68.029l0.409,54.031h21.49v-0.203v-15.76h20.057v15.963  h21.464v-15.963h19.699v15.963h21.464v-15.963v-38.708h-15.35l-0.025-31.953l193.408,0.051v13.534h31.928v-13.585l39.885-0.051  c0,0,15.401,72.963,70.251,70.712C547.559,411.233,563.112,360.476,563.112,333.05z M492.503,387.082  c-36.226,0-48.813-33.77-48.813-60.479c0,0,6.447-61.399,48.199-58.33c41.751,3.07,49.427,43.287,49.427,60.479  S528.729,387.082,492.503,387.082z"/>
</svg>