<svg xmlns="http://www.w3.org/2000/svg" xmlns:xlink="http://www.w3.org/1999/xlink" version="1.1" id="Layer_2" x="0px" y="0px" width="100px" height="37.8378378378px" viewBox="0 0 370 140" enable-background="new 0 0 370 140" xml:space="preserve">
<path stroke="#FFFFFF" stroke-miterlimit="10" d="M170.974,51.611c0,0,32.36-48.944,82.36-11.444s39,40.5,74,5  c0,0,5.5,33.5-29.5,57.5s-62.5,19-77,13s-41.72-23-49.86-33c0,0-32.14,42.918-75.64,37.959s-62.5-27.959-67.5-35.459  s-11-20.5-12.5-41c0,0,28,48.89,58.5,7.444c0,0,45.563-39.499,73.5-22.444C147.334,29.167,163.614,38.056,170.974,51.611z" fill="#000000"/>
<path stroke="#FFFFFF" stroke-miterlimit="10" d="M184,87.5" fill="#000000"/>
</svg>