<svg xmlns="http://www.w3.org/2000/svg" xmlns:xlink="http://www.w3.org/1999/xlink" version="1.1" x="0px" y="0px" width="70.7491082045px" height="100px" viewBox="0 0 595.28 841.89" enable-background="new 0 0 595.28 841.89" xml:space="preserve">
<g id="Layer_1" display="none">
	
		<polyline display="inline" fill="none" points="265.584,444.5 243.875,410.5 224.167,444.5 265.584,444.5  "/>
</g>
<g id="Layer_4">
	<g>
		<path d="M165.667,374.167H152.5V386.5h-11v-12.333h-16V386.5h-9.75v-12.333h-16c0,0-10.082,162.999,159.25,176.083V485.5    C259,485.5,171,486.334,165.667,374.167z"/>
		<path d="M281.333,118.375l-1,44h-24v-44l-11.167-68.94H242l-9.833,68.94v44h-12.333v9.375l12,17.125l0.5,46.5h-24.667v-46.5    l-11-70.5H193.5l-10,70.5l-0.667,46.5h-12.5v13.875l12.167,13.625l-0.5,39.958c0,0-11.5-24.5-37.833-25.583    S100.333,298.167,99,308h83v44c0,0-18.031-25.875-43.5-25.875s-46,5.042-59.667,36.125H182.5c0,0-9.368,93.75,76.5,108.5h16.667    c0,0,84.958-9.125,76.833-108.5h99.833c0,0-8.532-33.25-46.5-36.125s-53.5,24.375-53.5,24.375l-0.666-42.5h84.666    c0,0-7.834-29.833-37.167-30.75S356.802,297,351.667,302.5l0.833-39.625l12-13.625l0.333-13.875h-13.166v-46.5l-9.667-70.5h-3.167    l-10.333,70.5l-0.667,46.5h-23v-46.5l13-17.125l-0.167-9.375h-12.833v-44L294.5,49.435h-3.167L281.333,118.375z M279.75,302.25    c-3.25-0.5-21.25,0-21.25,0v-39.375l11-12.125l12,12.125C281.5,262.875,283,302.75,279.75,302.25z M208.5,262.875l12-13.625    l12.5,13.625V308c-11.75,4-24.5,18.125-24.5,18.125V262.875z M243.333,323.25l20,35.75h-40.167L243.333,323.25z M290,402h-41.667    l20.833-34.5L290,402z M218.5,367.5l20.333,34.5h-40.167L218.5,367.5z M224.167,444.25l19.833-34l20.5,34H224.167z     M313.667,444.25h-40.5l20.667-34L313.667,444.25z M339.167,402H298.5l21-34.5L339.167,402z M273,359l20.167-35.75L312.834,359    H273z M327.75,262.875v63.25c-6.75-6.125-22-16.375-22-16.375v-46.875l10.75-13.625L327.75,262.875z M281.5,188.875v46.5h-24    v-46.5l11.25-10.625L281.5,188.875z"/>
		<path d="M434.667,374.167h-15.334l1.334,12.333h-12v-12.333H394V386.5h-10v-12.333h-15.667    c-0.167,108.167-90.013,111.246-90.013,111.246v64.837C443.641,536,434.667,374.167,434.667,374.167z"/>
	</g>
</g>
<g id="Layer_2" display="none">
	<path display="inline" fill="#000000" stroke="#FFFFFF" stroke-miterlimit="10" d="M99.667,374H116v12.333h9.667V374h15.667v12.333   h11.333V374h14.667c0,0-5.667,103.334,92.333,112.334v64.333C259.667,550.667,98.999,549.333,99.667,374z"/>
	<path display="inline" fill="#000000" stroke="#FFFFFF" stroke-miterlimit="10" d="M277.667,550.667v-65.666   c0,0,89.833,0.999,91.333-111.001h15v12.5h10.5V374H408v12.5h11.666V374h15C434.666,374,447.834,533.834,277.667,550.667z"/>
</g>
<g id="Layer_3" display="none">
	<path display="inline" fill="none" d="M352.334,362.167"/>
	<path display="inline" fill="none" d="M352.334,308.167l84.167-1c0,0-10.834-29-38.167-29.667s-37.334,14.167-46,25.5v-40.167   l11.334-13.667l0.5-14h-11.834"/>
	<polyline display="inline" fill="none" points="352.334,194.167 340.168,116.833 327.668,195 327.668,235.167 305.001,235.167    305.001,190 317.168,172.5 317.501,162.5 305.001,162.333 305.001,120.667 293.334,47.333 291.001,47.333 281.167,120.667    281.167,162.333  "/>
	<path display="inline" fill="none" d="M281.167,162.167h-24.667v-41.5l-11.333-71.232h-3.5l-9.333,71.232v41.5h-12.5v10.5   l12.5,16.667L232.168,194l0.5,41.167h-25V194l-3.667-31.833l-6.5-41.5v-3h-4.5V120l-6.667,42.167L183.001,194v41.167h-12.5v14   l11.667,13.333l0.167,40.667c0,0-14.667-25.167-39-25.333s-39.833,16.667-44,30.167h83.167l-0.333,44.167   c0,0-19.834-27.167-49.667-27.167s-45.5,17.333-54.167,37h104v23.167l-0.167,1.333c0,0,4.417,77.25,77.5,83.5   c0,0,81.618,13.12,92.667-83.5V362l100.5,0.167c0,0-11.333-28.167-33.333-33s-34.668-3.833-43.834,2.167s-21,14.333-23.333,19   v-42.167"/>
	<path display="inline" fill="none" d="M269,177.25"/>
	<polygon display="inline" fill="none" points="269,177.25 257.25,189.5 257.25,235.167 281.167,235.167 281.167,189.5  "/>
	<path display="inline" fill="none" d="M232.5,263l-12.25-12l-12,12v61.25c0,0,14.125-12.25,24.25-14.25V263z"/>
	<polygon display="inline" fill="none" points="258.5,263 269.209,251 281.167,263 281.167,301 258.5,301  "/>
	<path display="inline" fill="none" d="M305.667,263l10.166-12l12,12l0.001,63c0,0-9.167-10.667-22.167-15.167V263z"/>
	<polygon display="inline" fill="none" points="313.334,359 293.167,323.333 272.833,359  "/>
	<polygon display="inline" fill="none" points="264,359 243.5,323.333 223.167,359  "/>
	<polygon display="inline" fill="none" points="219,367.833 198.5,401.833 238.667,401.833  "/>
	<polygon display="inline" fill="none" points="269.167,367.833 248.333,401.833 289.5,401.833  "/>
	<polygon display="inline" fill="none" points="319.334,367.833 298.5,401.833 339.334,401.833  "/>
	<polygon display="inline" fill="none" points="293.5,410.5 273.167,444.5 313.667,444.5  "/>
	<path display="inline" fill="none" d="M224.167,444.5"/>
	<line display="inline" fill="none" x1="352.334" y1="194.167" x2="352.334" y2="235.167"/>
	<polyline display="inline" fill="none" points="265.584,444.5 243.875,410.5 224.727,443.535  "/>
</g>
</svg>