<svg xmlns="http://www.w3.org/2000/svg" xmlns:xlink="http://www.w3.org/1999/xlink" version="1.1" id="Layer_2" x="0px" y="0px" width="100px" height="100px" viewBox="0 0 100 100" enable-background="new 0 0 100 100" xml:space="preserve">
<circle cx="26.476" cy="62.365" r="5.97"/>
<circle cx="87.871" cy="62.365" r="5.97"/>
<rect x="69.957" y="40.131" width="1.706" height="22.234"/>
<rect x="73.368" y="40.131" width="1.706" height="22.234"/>
<path d="M98.27,58.955v-7.844c0-1.876-1.529-3.544-3.398-3.705c0,0-16.385-1.414-16.385-1.414V35.076  c0-1.876-1.535-3.412-3.412-3.412H6.849c-1.876,0-3.713,1.506-4.082,3.346L0.022,48.722v13.644h18.777  c0-4.239,3.437-7.676,7.676-7.676s7.676,3.437,7.676,7.676h27.274l3.415,3.414h13.646v-1.71h1.707v-1.704  c0-4.239,3.437-7.676,7.676-7.676c4.239,0,7.675,3.436,7.676,7.674c0,0,0,1.706,0,1.706h4.432v-5.114H98.27z M51.62,38.482h6.61  v8.193h-6.61V38.482z M43.304,38.482h6.61v8.193h-6.61V38.482z M34.988,38.482h6.61v8.193h-6.61V38.482z M26.673,38.482h6.61v8.193  h-6.61V38.482z M18.357,38.482h6.609v8.193h-6.609V38.482z M10.043,38.482h6.61v8.193h-6.61V38.482z M3.812,38.482h4.526v8.193  H2.171L3.812,38.482z M18.845,56.911H1.728v-1.706h18.689C19.825,55.706,19.297,56.279,18.845,56.911z M66.545,56.911H34.106  c-0.453-0.632-0.98-1.205-1.572-1.706h34.011V56.911z M66.545,50.088H1.728v-1.706h64.818V50.088z M66.545,46.676h-6.61v-8.193h6.61  V46.676z M76.78,64.068h-8.529V38.482h8.529V64.068z"/>
<circle cx="98.27" cy="51.964" r="0.853"/>
</svg>