<?xml version="1.0" encoding="utf-8"?>
<!-- Generator: Adobe Illustrator 15.1.0, SVG Export Plug-In . SVG Version: 6.00 Build 0)  -->
<!DOCTYPE svg PUBLIC "-//W3C//DTD SVG 1.1//EN" "http://www.w3.org/Graphics/SVG/1.1/DTD/svg11.dtd">
<svg version="1.1" id="Layer_1" xmlns="http://www.w3.org/2000/svg" xmlns:xlink="http://www.w3.org/1999/xlink" x="0px" y="0px"
	 width="100px" height="54px" viewBox="0 0 100 54" enable-background="new 0 0 100 54" xml:space="preserve">
<path d="M91.117,7H75V0H0v44h12.141C12.053,44.487,12,44.987,12,45.5c0,4.694,3.806,8.5,8.5,8.5s8.5-3.806,8.5-8.5
	c0-0.513-0.053-1.013-0.141-1.5H33v5h39v-5h4.141C76.053,44.487,76,44.987,76,45.5c0,4.694,3.806,8.5,8.5,8.5s8.5-3.806,8.5-8.5
	c0-0.513-0.053-1.013-0.141-1.5H100V27v-5.566L91.117,7z M75,22V11h13.883l6.769,11H75z"/>
</svg>
