<svg xmlns="http://www.w3.org/2000/svg" xmlns:xlink="http://www.w3.org/1999/xlink" version="1.1" id="Padlock" x="0px" y="0px" width="62.427px" height="100px" viewBox="-25.214 -43.485 62.427 100" enable-background="new -25.214 -43.485 62.427 100" xml:space="preserve">
<path id="Path" d="M37.208,19.882c-0.005-0.216-0.016-0.427-0.036-0.638c-0.263-3.558-2.312-6.605-5.23-8.247  c0-8.322,0-27.902,0-33.722c0-10.955-8.941-21.138-19.176-20.749C2.526-43.088-6.4-33.649-6.4-22.725V1.823H3.916l0.09-24.55  c0-5.182,3.801-9.475,8.764-10.263c4.958,0.788,8.762,5.081,8.762,10.263V9.694h-36.548c-5.369,0-9.758,4.211-10.16,9.55  c-0.015,0.211-0.025,0.422-0.031,0.638c0,0.052-0.008,0.098-0.008,0.149v0.072v22.944v3.063c0,5.739,4.659,10.403,10.407,10.403  h41.622c5.734,0,10.398-4.664,10.398-10.403v-3.063V20.104v-0.072C37.213,19.979,37.208,19.934,37.208,19.882z M11.272,33.967  v12.005H0.727V33.967c-3.143-1.827-5.271-5.189-5.271-9.081c0-5.817,4.723-10.543,10.543-10.543s10.545,4.726,10.545,10.543  C16.544,28.777,14.413,32.14,11.272,33.967z"/>
</svg>