<svg xmlns="http://www.w3.org/2000/svg" xmlns:xlink="http://www.w3.org/1999/xlink" version="1.2" baseProfile="tiny" id="Layer_1" x="0px" y="0px" width="100px" height="100px" viewBox="0 0 100 100" xml:space="preserve">
<path d="M10.567,79.426c3.737,0,6.767,3.029,6.767,6.768c0,3.736-3.03,6.764-6.767,6.764c-3.738,0-6.767-3.027-6.767-6.764  C3.8,82.455,6.829,79.426,10.567,79.426"/>
<path d="M65.572,77.738c4.204,0,7.61,3.408,7.61,7.609c0,4.203-3.406,7.611-7.61,7.611c-4.201,0-7.608-3.408-7.608-7.611  C57.964,81.146,61.371,77.738,65.572,77.738"/>
<polygon points="99.991,7.041 81.008,7.069 80.942,7.041 80.936,7.069 80.872,7.069 80.872,7.207 63.824,51.391 11.006,51.391   7.439,20.767 0,20.767 4.404,58.799 60.965,58.799 57.35,68.17 6.332,71.348 4.846,76.797 64.521,75.736 65.106,73.467   86.981,16.241 100,16.223 "/>
</svg>