<svg xmlns="http://www.w3.org/2000/svg" xmlns:xlink="http://www.w3.org/1999/xlink" version="1.2" baseProfile="tiny" id="Layer_1" x="0px" y="0px" width="100px" height="100px" viewBox="0 0 100 100" xml:space="preserve">
<circle cx="10.615" cy="86.173" r="6.763"/>
<circle cx="65.592" cy="85.329" r="7.606"/>
<path d="M99.992,7.064L81.018,7.092l-0.064-0.027l-0.008,0.027h-0.064v0.138l-2.66,6.903l-0.359,0.028V7.064h-12.27v8.066  l-6.264,0.495V7.064H40.672v10.034l-4.637,0.366v-7.164H17.379v8.637L0,20.311l4.457,38.484h56.531l-3.613,9.365L6.383,71.336  l-1.484,5.445l59.643-1.059l0.586-2.27L86.99,16.259L100,16.24L99.992,7.064z M40.576,33.371h6.848v3.074h-6.848V33.371z   M26.707,33.371v-7.74l3.986-0.315v8.055H26.707z M65.592,33.371h-1.881V22.738h-0.379l2.26-0.179V33.371z M8.971,33.371h11.385  v3.074H9.326L8.971,33.371z M9.666,39.406h10.689v3.598h-7.279v8.385h-2.02L9.666,39.406z M34.1,51.389v-7.385h2.264v7.385H34.1z   M40.576,39.406h6.848v3.598h-5.031v8.385h-1.816V39.406L40.576,39.406z"/>
</svg>