<svg xmlns="http://www.w3.org/2000/svg" xmlns:xlink="http://www.w3.org/1999/xlink" version="1.2" baseProfile="tiny" id="Layer_1" x="0px" y="0px" width="100px" height="100px" viewBox="0 0 100 100" xml:space="preserve">
<circle cx="10.616" cy="86.173" r="6.763"/>
<circle cx="65.592" cy="85.329" r="7.606"/>
<path d="M99.99,7.064L81.016,7.092l-0.064-0.027l-0.008,0.027h-0.063v0.138l-2.66,6.903L0,20.311l4.458,38.484h56.529l-3.611,9.365  L6.383,71.336l-1.486,5.445l59.644-1.059l0.586-2.27L86.99,16.259L100,16.24L99.99,7.064z M40.575,24.535l11.875-0.938v9.774h-5.025  v3.074h-6.85V24.535z M67.08,43.003h-3.088v-3.598h4.477L67.08,43.003z M36.36,24.868v8.503H24.569V25.8L36.36,24.868z   M8.241,27.089l12.113-0.957v10.312H9.325L8.241,27.089z M9.667,39.406h10.688v3.598h-7.279v8.385h-2.02L9.667,39.406z   M34.099,51.389v-7.385h2.263v7.385H34.099z M40.575,39.406h6.85v3.598h-5.033v8.385h-1.814V39.406H40.575z M69.611,36.445h-5.619  v-3.074h-7.33V23.265l18.012-1.423c0.143,0.116,0.299,0.216,0.443,0.329L69.611,36.445z"/>
</svg>