<svg xmlns="http://www.w3.org/2000/svg" xmlns:xlink="http://www.w3.org/1999/xlink" version="1.2" baseProfile="tiny" id="Layer_1" x="0px" y="0px" width="100px" height="100px" viewBox="0 0 100 100" xml:space="preserve">
<g>
	<path d="M53.665,28.225c-0.043-0.158-0.205-0.251-0.363-0.208l-18.896,5.14c-0.158,0.042-0.25,0.205-0.208,0.362   c0.043,0.158,0.205,0.25,0.363,0.208l18.897-5.14C53.614,28.544,53.707,28.382,53.665,28.225z"/>
	<path d="M55.019,32.208c-0.043-0.157-0.205-0.25-0.363-0.207l-19.399,5.276c-0.158,0.043-0.25,0.206-0.207,0.363   c0.042,0.157,0.205,0.25,0.363,0.208l19.398-5.277C54.97,32.529,55.062,32.367,55.019,32.208z"/>
	<path d="M58.87,41.11c0.157-0.043,0.25-0.205,0.207-0.363c-0.043-0.157-0.205-0.25-0.362-0.207l-22.633,6.155   c-0.157,0.043-0.25,0.206-0.208,0.363c0.043,0.157,0.205,0.251,0.363,0.208L58.87,41.11z"/>
	<path d="M59.344,41.727c-0.043-0.157-0.206-0.25-0.363-0.208l-22.633,6.156c-0.158,0.042-0.25,0.205-0.207,0.363   c0.043,0.157,0.205,0.25,0.363,0.208l22.632-6.156C59.294,42.046,59.387,41.884,59.344,41.727z"/>
	<path d="M60.413,45.656c-0.043-0.157-0.205-0.25-0.363-0.207l-22.633,6.156c-0.157,0.043-0.25,0.205-0.208,0.362   c0.043,0.157,0.205,0.251,0.363,0.208l22.633-6.156C60.362,45.977,60.455,45.814,60.413,45.656z"/>
	<path d="M68.691,76.092c-0.044-0.158-0.206-0.251-0.363-0.208L45.696,82.04c-0.158,0.043-0.251,0.205-0.208,0.362   c0.043,0.158,0.205,0.251,0.363,0.208l22.633-6.156C68.642,76.411,68.733,76.249,68.691,76.092z"/>
	<path d="M69.553,80.385c0.157-0.043,0.25-0.206,0.207-0.363s-0.205-0.251-0.363-0.207L46.765,85.97   c-0.158,0.043-0.25,0.206-0.208,0.363c0.042,0.157,0.205,0.251,0.362,0.208L69.553,80.385z"/>
	<path d="M69.664,80.793l-22.633,6.156c-0.157,0.042-0.25,0.205-0.208,0.362c0.043,0.158,0.205,0.251,0.362,0.209l22.633-6.157   c0.158-0.042,0.251-0.205,0.208-0.362C69.983,80.843,69.821,80.75,69.664,80.793z"/>
	<path d="M33.167,21.607l-1.217-0.045c0,0-1.289,4.83,2.108,9.317l1.835-0.499C35.893,30.381,32.354,26.793,33.167,21.607z"/>
	<path d="M35.258,36.438l1.605-0.437c-0.385-1.415-0.269-2.254-0.269-2.254C34.312,34.368,35.258,36.438,35.258,36.438z"/>
	<path d="M38.16,38.798c-3.589,0.976-1.685,7.045-1.685,7.045l1.891-0.515C36.823,39.66,38.16,38.798,38.16,38.798z"/>
	<path d="M37.76,50.567c0.283,0.091,1.94-0.329,1.94-0.329l-0.536-1.972c0,0-1.62,0.453-1.84,0.7   C37.105,49.213,37.477,50.477,37.76,50.567z"/>
	<path d="M47.108,84.932c0.283,0.092,1.94-0.328,1.94-0.328l-0.537-1.972c0,0-1.619,0.453-1.839,0.699   C46.452,83.578,46.825,84.841,47.108,84.932z"/>
	<g>
		<path d="M73.892,85.654c-0.117-0.426-0.223-0.855-0.326-1.282c-0.379-1.551-0.771-3.154-1.718-4.385    c-0.016-0.02-0.03-0.039-0.048-0.059c0.268-0.852,0.081-1.687-0.122-2.415c-0.19-0.683-0.445-1.591-1.264-2.216    c0.368-0.913,0.169-1.826-0.054-2.626c-0.171-0.612-0.396-1.407-1.032-2.017l-0.222-0.814c0.224-0.811,0.05-1.614-0.149-2.327    c-0.171-0.612-0.395-1.406-1.032-2.015l-0.185-0.682c0.226-0.813,0.049-1.619-0.15-2.332c-0.172-0.614-0.395-1.41-1.033-2.02    l-0.165-0.604c0.228-0.815,0.048-1.622-0.151-2.337c-0.171-0.612-0.396-1.406-1.032-2.016l-0.188-0.689    c0.225-0.813,0.049-1.619-0.15-2.332c-0.171-0.612-0.396-1.404-1.031-2.013l-0.132-0.484c0.226-0.814,0.049-1.619-0.15-2.332    c-0.128-0.459-0.289-1.021-0.629-1.53l-11.221,11.22c1.747,2.656,5.411,3.786,7.342,6.721c0.407,0.566,0.727,1.209,0.921,1.922    c0.171,0.579,0.231,1.13,0.206,1.651c-0.032,2.608-1.772,4.989-4.414,5.711c-2.675,0.724-5.311-0.466-6.66-2.699    c-0.286-0.436-0.475-0.951-0.621-1.539c-0.194-0.713-0.269-1.422-0.205-2.116c0.17-3.344,2.494-6.063,2.839-9.058L39.419,69.637    c0.038,0.165,0.079,0.325,0.119,0.478c0.229,0.872,0.523,1.763,1.313,2.344l0.021,0.077c-0.402,0.935-0.164,1.855,0.033,2.608    c0.229,0.87,0.526,1.757,1.312,2.338l0.06,0.219c-0.399,0.932-0.166,1.851,0.031,2.602c0.224,0.851,0.506,1.72,1.252,2.301    c-0.362,0.912-0.128,1.807,0.065,2.54c0.203,0.773,0.456,1.57,1.085,2.151c-0.005,0.025-0.009,0.053-0.012,0.078    c-0.182,1.452,0.27,2.959,0.749,4.555c0.133,0.444,0.271,0.902,0.392,1.356c0.591,2.203,1.215,4.302,2.344,5.77    c1.447,1.882,9.207,0.598,14.069-0.725l0,0l0.006-0.002c4.864-1.324,12.208-4.147,12.503-6.502    C75,89.915,74.463,87.729,73.892,85.654z M69.842,75.44L69.842,75.44l-0.334-0.236l0.151,0.084L69.842,75.44z M73.881,91.714    c-0.102,0.805-2.205,2.211-5.527,3.604c-1.033-0.828-3.828-0.885-6.905-0.048c-3.084,0.839-5.469,2.309-5.934,3.547    c-3.59,0.487-6.133,0.341-6.629-0.305c-1.029-1.338-1.623-3.346-2.188-5.459c-0.125-0.466-0.265-0.932-0.4-1.382    c-0.451-1.503-0.876-2.923-0.718-4.189c0.006-0.044,0.023-0.099,0.052-0.166c0.083-0.19,0.021-0.414-0.147-0.536    c-0.582-0.419-0.805-1.119-1-1.862c-0.228-0.869-0.361-1.537-0.003-2.189c0.006-0.008,0.014-0.019,0.014-0.019    c0.083-0.111,0.109-0.254,0.071-0.388c-0.038-0.133-0.136-0.24-0.265-0.29c-0.003-0.001,0,0-0.001,0    c-0.128-0.077-0.237-0.168-0.338-0.266l1.26-0.344c0.043,0.158,0.205,0.251,0.363,0.208l22.632-6.155    c0.157-0.044,0.251-0.205,0.208-0.363l1.229-0.334c-0.04,0.139-0.093,0.275-0.168,0.409l-0.002-0.002    c-0.084,0.108-0.112,0.251-0.078,0.384c0.035,0.132,0.13,0.241,0.256,0.295c0.001,0,0.013,0.005,0.022,0.008    c0.684,0.407,0.904,1.037,1.14,1.88c0.237,0.85,0.328,1.499,0.052,2.118c-0.083,0.187-0.028,0.407,0.135,0.532    c0.063,0.048,0.106,0.089,0.136,0.126c0.832,1.082,1.185,2.525,1.558,4.054c0.106,0.436,0.214,0.874,0.333,1.308    C73.584,87.879,74.1,89.967,73.881,91.714z"/>
		<path d="M31.975,34.232c-0.337,0.689-0.416,1.447-0.22,2.167c0.211,0.775,0.713,1.426,1.424,1.851    c-0.598,1.555-0.954,4.655-0.97,4.801c-0.003,0.025-0.004,0.051-0.002,0.076c0.046,0.771,0.341,4.655,1.584,5.367    c0.073,0.042,0.16,0.073,0.293,0.088c-0.191,0.729-0.009,1.428,0.133,1.973c0.208,0.796,0.479,1.608,1.25,2.126    c-0.401,0.934-0.16,1.854,0.038,2.605c0.222,0.85,0.503,1.716,1.245,2.297c-0.358,0.909-0.125,1.801,0.068,2.532    c0.045,0.171,0.094,0.342,0.147,0.512l10.781-10.781l-10.063,2.737c-0.155,0.042-0.246,0.2-0.208,0.355L36.2,53.287    c0.037-0.146,0.089-0.288,0.169-0.43c0.006-0.008,0.023-0.022,0.042-0.041c0.125-0.114,0.172-0.291,0.124-0.453    c-0.048-0.162-0.186-0.283-0.354-0.311c-0.024-0.003-0.045-0.006-0.063-0.014c-0.636-0.328-0.849-0.968-1.042-1.708    c-0.2-0.765-0.314-1.354,0.045-1.938c0.003-0.005,0.008-0.01,0.01-0.013c0.104-0.142,0.113-0.332,0.026-0.483    c-0.088-0.152-0.257-0.238-0.432-0.219c-0.331,0.036-0.474,0.031-0.526,0.026c-0.532-0.384-0.983-2.647-1.104-4.59    c0.125-1.082,0.545-3.957,1.066-4.882c0.073-0.129,0.076-0.285,0.009-0.417c-0.067-0.132-0.194-0.223-0.341-0.241    c-0.027-0.003-0.05-0.006-0.069-0.013c-0.572-0.296-0.985-0.794-1.149-1.394c-0.161-0.595-0.056-1.229,0.297-1.788    c0.004-0.003,0.019-0.016,0.038-0.031c0.129-0.104,0.189-0.273,0.155-0.436c-0.034-0.163-0.157-0.293-0.318-0.336    c-0.255-0.07-0.47-0.153-0.636-0.249c-2.517-1.441-4.332-7.451-2.979-13.138h25.62c0.905,2.781,0.94,5.447,0.075,6.959    c-0.07,0.125-0.172,0.259-0.303,0.399c-0.119,0.128-0.152,0.315-0.082,0.476c0.067,0.161,0.226,0.266,0.4,0.269    c0.23,0.004,0.303,0.031,0.305,0.033c0.614,0.316,1.025,0.792,1.184,1.375c0.159,0.586,0.045,1.229-0.321,1.812    c-0.108,0.113-0.146,0.27-0.104,0.419c0.041,0.146,0.155,0.257,0.3,0.301c0.957,0.563,2.616,2.849,3.195,3.71    c0.238,0.444,0.49,0.967,0.716,1.502l0.677-0.677c-0.265-0.589-0.511-1.059-0.623-1.266c-0.006-0.012-0.014-0.024-0.021-0.035    c-0.205-0.307-1.91-2.829-3.207-3.806c0.353-0.71,0.44-1.476,0.245-2.194c-0.216-0.795-0.775-1.468-1.576-1.9    c1.672-2.967,0.339-9.8-3.898-14.199c-2.012-2.089-4.395-3.398-7.083-3.891c-0.004,0-0.009-0.002-0.013-0.002    c-0.058-0.014-1.42-0.37-2.17-2.402c0.852-0.294,0.956-0.407,1.04-0.554c0.083-0.146,0.279-0.487-0.497-3.334    c-0.775-2.846-1.127-3.047-1.259-3.123c-0.159-0.091-0.49-0.281-6.024,1.224c-5.371,1.461-5.553,1.781-5.652,1.951    c-0.096,0.167-0.273,0.478,0.553,3.378c0.815,2.856,1.077,3.006,1.203,3.079c0.154,0.087,0.231,0.131,1.53-0.158    c0.3,1.66-0.255,2.57-0.549,2.919c-2.156,1.772-3.697,4.284-4.457,7.266c-1.585,6.228,0.454,12.726,3.337,14.376    C31.789,34.145,31.878,34.19,31.975,34.232z"/>
	</g>
	<path d="M56.143,16.682c0.941,1.876,1.566,3.867,1.82,5.751c4.603,1.183,8.808,3.361,12.362,6.301l-3.023,3.022l-0.001-0.001   L29.662,69.395l0.001,0.001L25.4,73.659c-4.565-5.52-7.309-12.602-7.309-20.324c0-8.741,3.516-16.661,9.209-22.424   c-0.691-1.786-1.104-3.878-1.18-6.047c-8.119,6.817-13.281,17.04-13.281,28.471c0,18.174,13.047,33.298,30.284,36.522   c-0.124-0.65-0.202-1.312-0.187-1.984c-0.598-0.837-0.837-1.748-0.98-2.292c-0.104-0.396-0.231-0.885-0.286-1.437   c-4.465-1.204-8.542-3.352-12.004-6.217l8.04-8.04c0-0.001,0-0.002,0-0.002l26.446-26.447c0,0,0,0.001,0.001,0.002l10.438-10.439   c4.57,5.521,7.317,12.606,7.317,20.333c0,8.675-3.464,16.54-9.081,22.292c0.259,0.531,0.402,1.039,0.51,1.423   c0.14,0.502,0.398,1.428,0.291,2.485c0.351,0.562,0.621,1.157,0.845,1.762c7.775-6.812,12.687-16.813,12.687-27.962   C87.161,34.904,73.743,19.61,56.143,16.682z"/>
</g>
</svg>