<svg xmlns="http://www.w3.org/2000/svg" xmlns:xlink="http://www.w3.org/1999/xlink" version="1.1" id="Layer_1" x="0px" y="0px" width="100px" height="100px" viewBox="0 0 100 100" enable-background="new 0 0 100 100" xml:space="preserve">
<path fill="#000000" d="M28.696,37.22c0,2.505-2.036,4.546-4.55,4.546H13.537c-2.51,0-4.55-2.041-4.55-4.546l0,0  c0-2.51,2.041-4.55,4.55-4.55h10.609C26.66,32.67,28.696,34.71,28.696,37.22L28.696,37.22z"/>
<path fill="#000000" d="M40.332,53.107c0,2.506-2.036,4.546-4.55,4.546H25.173c-2.509,0-4.55-2.04-4.55-4.546l0,0  c0-2.51,2.041-4.55,4.55-4.55h10.609C38.296,48.558,40.332,50.598,40.332,53.107L40.332,53.107z"/>
<path fill="#000000" d="M51.239,68.996c0,2.505-2.036,4.546-4.55,4.546H36.08c-2.509,0-4.55-2.041-4.55-4.546l0,0  c0-2.51,2.041-4.551,4.55-4.551h10.609C49.203,64.445,51.239,66.486,51.239,68.996L51.239,68.996z"/>
<path fill="#000000" d="M83.101,12.878H17.026c-0.038,0-0.068-0.021-0.106-0.021H6.311c-2.509,0-4.55,2.041-4.55,4.55  c0,2.505,2.041,4.546,4.55,4.546h10.307h0.302h7.584l23.268,23.574c6.059,6.14,15.973,6.203,22.112,0.145l19.429-19.173  c0.209,0.639,0.35,1.308,0.35,2.015v45.683c0,3.617-2.944,6.562-6.562,6.562H55.624c-0.072-0.005-0.133-0.043-0.209-0.043H44.806  c-2.51,0-4.55,2.041-4.55,4.551c0,2.505,2.041,4.546,4.55,4.546h2.625v0.021h35.67c8.624,0,15.637-7.013,15.637-15.636V28.514  C98.737,19.891,91.725,12.878,83.101,12.878z M63.511,39.213c-2.574,2.543-6.741,2.514-9.28-0.06l-16.979-17.2h43.744L63.511,39.213  z"/>
</svg>