<svg xmlns="http://www.w3.org/2000/svg" xmlns:xlink="http://www.w3.org/1999/xlink" version="1.1" id="Layer_1" x="0px" y="0px" width="100px" height="100px" viewBox="0 0 100 100" enable-background="new 0 0 100 100" xml:space="preserve">
<g>
	<path fill="#000000" d="M27.714,85.699C27.714,85.699,27.714,85.699,27.714,85.699c-0.677,0.677-1.578,1.178-2.677,1.487   l-7.509,2.114c-2.003,0.564-3.852,0.222-5.068-0.943c-1.22-1.165-1.645-2.996-1.168-5.024l1.81-7.702   c0.282-1.194,0.788-2.165,1.506-2.883c1.505-1.506,4.147-1.938,6.656,0.488l5.861,5.664c1.194,1.154,1.831,2.471,1.843,3.809   C28.977,83.819,28.531,84.882,27.714,85.699z"/>
</g>
<path fill="#000000" d="M84.689,15.643c-6.119-6.12-13.027-8.356-16.478-5.082l-0.028-0.028L20.18,58.536  c-1.995,1.995-1.995,5.242,0,7.236c1.994,1.995,5.241,1.995,7.235,0l42.95-42.95l0.017,0.016c0.6-0.52,1.508-0.51,2.078,0.06  c0.569,0.57,0.579,1.477,0.06,2.079l0.008,0.008L31.913,65.6c-3.384,3.384-3.384,8.887,0,12.271c3.383,3.383,8.886,3.383,12.269,0  l45.303-45.303c0.125-0.125,0.212-0.271,0.329-0.403L89.81,32.16C92.814,28.629,90.689,21.643,84.689,15.643z"/>
</svg>