<svg xmlns="http://www.w3.org/2000/svg" xmlns:xlink="http://www.w3.org/1999/xlink" version="1.1" id="Layer_1" x="0px" y="0px" width="100px" height="100px" viewBox="0 0 100 100" enable-background="new 0 0 100 100" xml:space="preserve">
<g>
	<g>
		<path fill="#000000" d="M30.3,85.656c0,0,0,0-0.004,0c-0.76,0.76-1.776,1.326-3.017,1.675l-8.456,2.389    c-2.257,0.636-4.339,0.247-5.707-1.062c-1.373-1.311-1.853-3.382-1.318-5.66l2.043-8.678c0.318-1.35,0.888-2.436,1.698-3.25    c1.69-1.698,4.664-2.178,7.494,0.552l6.599,6.374c1.345,1.31,2.062,2.791,2.078,4.296C31.719,83.539,31.219,84.74,30.3,85.656z"/>
	</g>
</g>
<g>
	<path fill="#000000" d="M42.122,79.007c-3.102,0-6.014-1.205-8.205-3.396c-2.264-2.264-3.392-5.237-3.389-8.212   c-2.555,0.279-5.11-0.608-6.929-2.427c-3.303-3.304-3.303-8.677,0-11.981l42.219-42.218c0.193-0.193,0.403-0.364,0.624-0.512   c4.641-3.738,12.787-1.713,19.506,5.006c6.767,6.765,8.758,14.776,4.936,19.638c-0.085,0.124-0.181,0.244-0.282,0.356   c-0.082,0.12-0.248,0.318-0.436,0.504L50.32,75.61C48.135,77.802,45.223,79.007,42.122,79.007z M75.795,28.421   c-0.151,0.24-0.334,0.465-0.543,0.674L39.531,64.82c-1.427,1.427-1.423,3.749,0.004,5.176c1.369,1.376,3.796,1.384,5.168,0   l39.717-39.714c0.062-0.085,0.129-0.17,0.197-0.256c0.761-0.892-0.065-4.928-4.283-9.146c-4.304-4.303-8.15-5.141-8.956-4.396   c-0.099,0.098-0.201,0.182-0.307,0.264L29.214,58.605c-0.205,0.209-0.205,0.543,0,0.751c0.245,0.241,0.497,0.252,0.749,0   l37.775-37.774c0.252-0.251,0.527-0.461,0.826-0.632c2.023-1.318,4.896-1.035,6.63,0.698   C77.012,23.466,77.232,26.339,75.795,28.421z"/>
</g>
</svg>