<svg xmlns:x="http://ns.adobe.com/Extensibility/1.0/" xmlns:i="http://ns.adobe.com/AdobeIllustrator/10.0/" xmlns:graph="http://ns.adobe.com/Graphs/1.0/" xmlns="http://www.w3.org/2000/svg" xmlns:xlink="http://www.w3.org/1999/xlink" xmlns:a="http://ns.adobe.com/AdobeSVGViewerExtensions/3.0/" version="1.0" id="Layer_1" x="0px" y="0px" width="100px" height="100px" viewBox="0 0 100 100" enable-background="new 0 0 100 100" xml:space="preserve">
<path d="M94.298,1.225l0.99,3.155l-25.32,16.184L27.554,49.095l-2.715-0.749l-3.879,2.608l1.191,1.771L21.146,53.4l0.004,0.008  L21.75,54.3l2.736,4.067l0.875-0.582l1.655,0.238c0,0,0.263,0.774-0.671,2.358c-1.134,1.924-4.825,1.886-5.594,1.856  c-0.09-0.004-0.18,0.042-0.255,0.132C19.147,63.983,6.326,79.352,3.821,82.06c-2.646,2.863-1.333,3.328-0.67,4.086  c0.662,0.763,3.926,4.907,6.432,8.96c3.04,4.916,5.183,5.317,11.322-8.922c2.785-6.46,7.284-18.137,15.386-26.387  c3.129-3.189,1.735-7.726,1.735-7.726s0.898-0.681,3.457-2.323c1.426-0.918,2.646-0.568,3.04,0.563  c0.534,1.539-0.321,4.601-0.368,8.785c-0.026,2.277,2.534,4.109,5.31,4.159c2.066,0.042,4.198-1.063,4.993-1.521  c0.21-0.121,0.19-0.235-0.007-0.369c-0.287-0.197-0.704-0.599-1.013-1.383c-0.596-1.513,0.421-2.87,0.614-3.109  c0.02-0.023,0.016-0.048-0.013-0.069c-0.243-0.197-1.411-1.283-1.266-3.856c0.15-2.682,0.649-4.252,0.649-4.252l6.694-4.503  l6.931,10.303l5.355-3.604l-12.709-18.89l0.975-0.655l0.983,1.46l6.136-4.126l1.298,1.954l26.914-19.518l-2.097-3.116l4.285-2.883  l-3.013-4.479L94.298,1.225z M58.521,42.208c0.642,0.953,0.385,2.244-0.569,2.887l-2.858,1.923  c-0.952,0.641-2.246,0.391-2.886-0.563l-0.145-0.214c-0.42-0.625-0.453-1.395-0.159-2.032c0.577-0.023,1.09,0.033,1.185,0.276  c0.2,0.499,0.771,1.713,2.791,1.609l-0.044-0.264c-0.786-0.078-1.436-0.393-1.812-0.953c-0.438-0.652-0.432-1.518-0.066-2.417  l1.531-1.029c0.954-0.64,2.248-0.39,2.888,0.562L58.521,42.208z"/>
</svg>