<svg xmlns="http://www.w3.org/2000/svg" xmlns:xlink="http://www.w3.org/1999/xlink" version="1.1" id="Layer_1" x="0px" y="0px" width="100px" height="100px" viewBox="0 0 100 100" enable-background="new 0 0 100 100" xml:space="preserve">
<path d="M95.017,36.21v14.807c0,1.658-1.342,3-3,3H91.29v24.914c0,1.848-1.498,3.346-3.346,3.346h-3.979v5.051  c0,3.236-2.625,5.861-5.859,5.861c-3.236,0-5.861-2.625-5.861-5.861v-5.051H28.204v5.051c0,3.236-2.625,5.861-5.859,5.861  c-3.236,0-5.861-2.625-5.861-5.861v-5.051h-4.098c-1.85,0-3.346-1.498-3.346-3.346V54.018H7.983c-1.658,0-3-1.342-3-3V36.21  c0-1.657,1.342-3,3-3H9.04V10.156c0-1.848,1.496-3.346,3.346-3.346h75.559c1.848,0,3.346,1.498,3.346,3.346V33.21h0.727  C93.675,33.21,95.017,34.553,95.017,36.21z M22.345,59.971c-2.867,0-5.191,2.322-5.191,5.189c0,2.865,2.324,5.189,5.191,5.189  c2.865,0,5.189-2.324,5.189-5.189C27.534,62.293,25.21,59.971,22.345,59.971z M78.106,59.971c-2.867,0-5.189,2.322-5.189,5.189  c0,2.865,2.322,5.189,5.189,5.189s5.189-2.324,5.189-5.189C83.296,62.293,80.974,59.971,78.106,59.971z M89.144,18.533H11.173  v35.485h77.971V18.533z M80,12.042c0-1.657-1.028-3-2.297-3h-55.09c-1.268,0-2.296,1.343-2.296,3v1.242c0,1.657,1.029,3,2.296,3  h55.09c1.269,0,2.297-1.343,2.297-3V12.042z"/>
</svg>