<svg xmlns="http://www.w3.org/2000/svg" xmlns:xlink="http://www.w3.org/1999/xlink" version="1.1" x="0px" y="0px" width="100px" height="100px" viewBox="0 0 100 100" enable-background="new 0 0 100 100" xml:space="preserve">
<g id="Layer_2">
	<rect x="780" y="-653.167" width="56" height="24.333"/>
</g>
<g id="Layer_1">
	<polygon points="875.049,-362.389 741.556,-362.389 685.06,-57.406 707.559,-13.908 1226.035,-13.908 1236.534,-40    1178.037,-138.402 933.547,-138.402  "/>
	<rect x="770" y="-381" width="76" height="15"/>
	<polygon points="858.25,-385 757.75,-385 727.75,-561 888.25,-561  "/>
	<path stroke="#FFFFFF" stroke-width="3" d="M807.834-641C759.324-641,720-606.861,720-564.75h175.667   C895.667-606.861,856.343-641,807.834-641z" fill="#000000"/>
	<polygon fill="#000000" points="779.568,-389 774.766,-389 759.75,-553 776.584,-553  "/>
	<circle fill="#000000" cx="1132.333" cy="-73.666" r="24"/>
</g>
<g id="Layer_5">
	<path fill="#000000" d="M758-569.333c0,0-0.333-38.667,31-66.667c0,0-17.667,40-12.5,66.667H758z"/>
</g>
<g id="Layer_3">
	<rect x="720" y="-564.75" stroke="#FFFFFF" stroke-width="2" width="174.668" height="7.5" fill="#000000"/>
	<path d="M727.75-524.5"/>
</g>
<g id="Layer_4">
	<path d="M733.972-543.5H717c0,0-17.5,6.5-10,21.5l23,93c0,0,7.5-3.5,5.5-14l-11.948-74h18.095"/>
</g>
<g id="Layer_6">
	<rect x="1031.218" y="-374.75" width="43.535" height="18.917"/>
	<rect x="1020.351" y="-156.833" width="70.649" height="15"/>
	<polygon points="1097.663,-161.208 1009.476,-161.208 983.151,-289.541 1123.987,-289.541  "/>
	<path stroke="#FFFFFF" stroke-width="3" d="M1052.985-360.541c-42.324,0-76.635,29.786-76.635,66.528h153.269   C1129.619-330.755,1095.309-360.541,1052.985-360.541z" fill="#000000"/>
	<polygon fill="#000000" points="1035.919,-164.125 1031.116,-164.125 1016.101,-283.708 1032.935,-283.708  "/>
	<path fill="#000000" d="M1014.506-298.012c0,0-0.291-33.737,27.047-58.167c0,0-11.553,34.679-8.906,58.167H1014.506z"/>
	<rect x="976.351" y="-293.291" stroke="#FFFFFF" stroke-width="2" width="153.269" height="7.5" fill="#000000"/>
	<path d="M984.101-253.041"/>
	<path d="M1117.501-272.041h12.972c0,0,17.5,6.5,10,21.5l-23,72c0,0-7.5-3.5-5.5-14l14.948-57h-14.095"/>
	
		<rect x="1110.74" y="-76.799" transform="matrix(-0.3666 0.9304 -0.9304 -0.3666 1478.9114 -1154.1693)" width="43.186" height="6.267"/>
	<circle fill="#000000" cx="1050.351" cy="-73.666" r="30"/>
	
		<rect x="1023.359" y="-77.583" transform="matrix(-0.3666 0.9304 -0.9304 -0.3666 1366.8733 -1077.895)" width="53.982" height="7.834"/>
	<polygon points="1206.67,-116.801 1218.744,-96.479 1212.112,-86.294 1194.681,-115.629  "/>
	<polygon points="760.289,2.833 747.716,2.833 742.25,-11 765.755,-11  "/>
	<polygon points="1179.657,2.833 1167.084,2.833 1161.618,-11 1185.123,-11  "/>
</g>
<g id="Layer_7">
	<rect x="23.395" y="41.448" width="11.294" height="2.23"/>
	<path d="M17.115,14.698l4.458,26.156H36.51l4.458-26.156H17.115z M24.103,40.259l-2.232-24.373h2.502l0.443,24.373H24.103z"/>
	<path d="M29.017,3.031c-6.989,0-12.691,4.864-12.828,10.887h25.656C41.707,7.895,36.006,3.031,29.017,3.031z M24.36,13.459h-2.75   c0,0-0.049-5.746,4.607-9.908C26.218,3.551,23.592,9.496,24.36,13.459z"/>
	<path d="M17.115,20.122"/>
	<path d="M18.04,17.298h-2.522c0,0-2.601,0.966-1.487,3.195l3.419,13.822c0,0,1.114-0.521,0.817-2.081l-1.775-10.998h2.689"/>
	<rect x="60.6" y="74.763" width="10.5" height="2.23"/>
	<path d="M55.072,55.041l3.911,19.072h13.107l3.912-19.072H55.072z M62.201,73.679l-2.232-17.471h2.502l0.443,17.471H62.201z"/>
	<path d="M65.451,44.712c-6.072,0-11.027,4.214-11.164,9.441h22.327C76.476,48.927,71.521,44.712,65.451,44.712z M62.428,53.781   h-2.696c0,0-0.043-5.014,4.02-8.644C63.751,45.138,62.034,50.291,62.428,53.781z"/>
	<path d="M55.213,60.465"/>
	<path d="M75.039,57.642h1.928c0,0,2.601,0.966,1.485,3.195l-3.418,10.7c0,0-1.115-0.52-0.817-2.081l2.222-8.471h-2.095"/>
	<rect x="74.033" y="86.658" transform="matrix(-0.3667 0.9304 -0.9304 -0.3667 186.6205 47.2056)" width="6.419" height="0.931"/>
	<path d="M84.036,77.502H47.7l-8.694-33.288H19.167L10.771,89.54l3.344,6.464h77.055l1.56-3.877L84.036,77.502z M65.059,91.582   c-2.462,0-4.459-1.997-4.459-4.459c0-2.463,1.997-4.458,4.459-4.458c2.463,0,4.458,1.995,4.458,4.458   C69.517,89.585,67.521,91.582,65.059,91.582z M77.243,90.689c-1.971,0-3.567-1.597-3.567-3.566s1.597-3.566,3.567-3.566   c1.97,0,3.566,1.597,3.566,3.566S79.213,90.689,77.243,90.689z"/>
	<rect x="61.047" y="86.541" transform="matrix(-0.3666 0.9304 -0.9304 -0.3666 169.9678 58.538)" width="8.023" height="1.163"/>
	<polygon points="88.29,80.713 90.084,83.733 89.1,85.246 86.509,80.887  "/>
	<polygon points="21.951,98.493 20.082,98.493 19.27,96.436 22.763,96.436  "/>
	<polygon points="84.275,98.493 82.406,98.493 81.595,96.436 85.089,96.436  "/>
	<g>
		<path d="M65.451,44.236c1.124,0,2.209,0.146,3.233,0.415v-2.75h-6.469v2.75C63.24,44.382,64.326,44.236,65.451,44.236z"/>
		<path d="M63.734,44.712c0.01-0.03,0.017-0.051,0.017-0.051c-0.019,0.017-0.034,0.035-0.053,0.051H63.734z"/>
	</g>
	<g>
		<path d="M29.018,2.411c1.467,0,2.871,0.226,4.186,0.62V0.38H24.88v2.635C26.18,2.63,27.568,2.411,29.018,2.411z"/>
	</g>
</g>
</svg>