<?xml version="1.0" encoding="utf-8"?>
<!-- Generator: Adobe Illustrator 15.1.0, SVG Export Plug-In . SVG Version: 6.00 Build 0)  -->
<!DOCTYPE svg PUBLIC "-//W3C//DTD SVG 1.1//EN" "http://www.w3.org/Graphics/SVG/1.1/DTD/svg11.dtd">
<svg version="1.1" id="Layer_1" xmlns="http://www.w3.org/2000/svg" xmlns:xlink="http://www.w3.org/1999/xlink" x="0px" y="0px"
	 width="84.1px" height="100px" viewBox="0 0 84.1 100" enable-background="new 0 0 84.1 100" xml:space="preserve">
<path d="M40.159,47.247l0.284,3.13l5.676,5.676l4.968-4.967l4.966-4.966l-5.677-5.677l-3.129-0.285
	C56.014,28.001,54.932,10.94,43.991,0L0,43.99C10.941,54.931,28.001,56.013,40.159,47.247z"/>
<path d="M79.082,86.956h4.014c0-5.018-3.01-10.034-5.017-12.041L56.762,51.085l-2.838,2.838l-2.837,2.839l23.981,21.162
	C78.079,80.935,79.082,84.949,79.082,86.956z"/>
<path d="M84.1,96.99c0,1.663-1.348,3.01-3.011,3.01s-3.01-1.347-3.01-3.01s3.01-8.027,3.01-8.027S84.1,95.327,84.1,96.99z"/>
</svg>
