<svg xmlns="http://www.w3.org/2000/svg" xmlns:xlink="http://www.w3.org/1999/xlink" version="1.1" x="0px" y="0px" width="100px" height="100px" viewBox="0 0 100 100" enable-background="new 0 0 100 100" xml:space="preserve">
<g id="Layer_2" display="none">
	<g id="xO9YMn.tif" display="inline">
		
			</g>
</g>
<g id="Layer_4">
</g>
<g id="Layer_6">
</g>
<g id="Layer_3">
	<path d="M289.5,47.5v-79c0,0-1-17.5,12.5-27c0,0,30-21.5,82.5-19v125H289.5z"/>
	<path d="M474.5,47.5v-79c0,0,1-17.5-12.5-27c0,0-30-21.5-82.5-19v125H474.5z"/>
	<path d="M289.5,108.5v43.286c0,0-1,9.588,12.5,14.793c0,0,30,11.78,82.5,10.411V108.5H289.5z"/>
	<path d="M474.5,108.5v43.286c0,0,1,9.588-12.5,14.793c0,0-30,11.78-82.5,10.411V108.5H474.5z"/>
	<rect x="289.5" y="6" width="185" height="108"/>
</g>
<g id="Layer_5">
	<rect x="307" y="-153" width="144" height="12"/>
	<polygon points="443.334,-73 436.001,-75 436.001,-137.667 443.334,-137.667  "/>
	<polygon points="316.669,-73 324.002,-75 324.002,-137.667 316.669,-137.667  "/>
	<path d="M380.667-81.287c5.976-0.201,11.638-0.082,17,0.267v-57.098h-34v57.098C369.029-81.369,374.691-81.487,380.667-81.287z"/>
	<path d="M464.692,182.28v-12.372c-0.229,0.094-0.453,0.19-0.691,0.282c0,0-28.869,11.321-79.501,10.467v-0.056   c-0.507,0.014-0.997,0.018-1.5,0.028c-0.502-0.011-0.992-0.015-1.499-0.028v0.056C330.869,181.512,302,170.19,302,170.19   c-0.238-0.092-0.462-0.188-0.691-0.282v12.372c0,0-0.876,8.396,10.946,12.954c0,0,25.708,10.083,70.745,9.146   c45.038,0.938,70.746-9.146,70.746-9.146C465.568,190.677,464.692,182.28,464.692,182.28z M333.753,188.289   c-0.261,1.705-1.736,2.914-3.294,2.694l-9.236-1.297c-1.56-0.218-2.611-1.779-2.35-3.484c0.261-1.708,1.735-2.915,3.295-2.696   l9.236,1.295C332.962,185.021,334.014,186.582,333.753,188.289z M386.345,195.25h-8.69c-1.467,0-2.655-1.402-2.655-3.131   c0-1.729,1.188-3.132,2.655-3.132h8.69c1.467,0,2.655,1.402,2.655,3.132C389,193.848,387.812,195.25,386.345,195.25z    M443.638,189.776l-9.216,1.135c-1.554,0.192-3.05-1.042-3.34-2.752c-0.288-1.713,0.738-3.256,2.292-3.447l9.216-1.134   c1.557-0.191,3.051,1.042,3.341,2.754C446.22,188.043,445.194,189.586,443.638,189.776z"/>
</g>
<g id="Layer_7">
	<path d="M24.307,55.782V34.587c0,0-0.269-4.695,3.354-7.243c0,0,8.048-5.768,22.133-5.098v33.536H24.307z"/>
	<path d="M73.94,55.782V34.587c0,0,0.269-4.695-3.355-7.243c0,0-8.048-5.768-22.132-5.098v33.536H73.94z"/>
	<path d="M24.307,72.147V83.76c0,0-0.269,2.572,3.354,3.969c0,0,8.048,3.161,22.133,2.793V72.147H24.307z"/>
	<path d="M73.94,72.147V83.76c0,0,0.269,2.572-3.355,3.969c0,0-8.048,3.161-22.132,2.793V72.147H73.94z"/>
	<rect x="24.307" y="44.648" width="49.633" height="28.974"/>
	<rect x="29.002" y="1.991" width="38.634" height="3.219"/>
	<polygon points="65.578,23.454 63.611,22.917 63.611,6.105 65.578,6.105  "/>
	<polygon points="31.596,23.454 33.563,22.917 33.563,6.105 31.596,6.105  "/>
	<path d="M48.766,21.23c1.603-0.054,3.122-0.022,4.56,0.071V5.984h-9.121v15.318C45.643,21.208,47.163,21.177,48.766,21.23z"/>
	<path d="M71.308,91.941v-3.319c-0.061,0.025-0.12,0.051-0.186,0.075c0,0-7.744,3.038-21.328,2.809V91.49   c-0.136,0.004-0.268,0.005-0.402,0.009c-0.135-0.004-0.267-0.005-0.402-0.009v0.016c-13.583,0.229-21.329-2.809-21.329-2.809   c-0.064-0.024-0.124-0.05-0.186-0.075v3.319c0,0-0.235,2.252,2.937,3.475c0,0,6.896,2.706,18.979,2.454   c12.083,0.252,18.98-2.454,18.98-2.454C71.544,94.193,71.308,91.941,71.308,91.941z M36.18,93.554   c-0.07,0.457-0.466,0.781-0.884,0.723l-2.478-0.348c-0.418-0.059-0.701-0.479-0.63-0.936c0.07-0.458,0.465-0.781,0.884-0.724   l2.478,0.348C35.967,92.676,36.25,93.095,36.18,93.554z M50.289,95.421h-2.332c-0.394,0-0.713-0.376-0.713-0.841   c0-0.463,0.319-0.839,0.713-0.839h2.332c0.394,0,0.712,0.376,0.712,0.839C51.001,95.045,50.683,95.421,50.289,95.421z    M65.659,93.952l-2.472,0.304c-0.416,0.053-0.819-0.278-0.896-0.737c-0.079-0.459,0.196-0.874,0.613-0.925l2.473-0.305   c0.418-0.051,0.819,0.279,0.896,0.739C66.353,93.487,66.077,93.901,65.659,93.952z"/>
</g>
</svg>