<svg xmlns="http://www.w3.org/2000/svg" xmlns:xlink="http://www.w3.org/1999/xlink" version="1.1" x="0px" y="0px" width="100px" height="100px" viewBox="0 0 100 100" enable-background="new 0 0 100 100" xml:space="preserve">
<g id="Layer_2">
	<path stroke="#000000" d="M579.669-123.333h-20.335H408.669c0,0,7.334,80,52.667,79.333h97.665h21.001h77.665   c45.333,0.667,62.667-79.333,62.667-79.333H579.669z"/>
</g>
<g id="Layer_7">
</g>
<g id="Layer_10">
	<polygon points="619.356,32.295 524.667,-36.5 531.167,-41.5 623.937,26.042  "/>
</g>
<g id="Layer_11">
	<path d="M796.084-185.333c0,3.636-2.947,6.583-6.583,6.583H735c-3.636,0-6.583-2.947-6.583-6.583l0,0   c0-3.636,2.947-6.583,6.583-6.583h54.501C793.137-191.916,796.084-188.969,796.084-185.333L796.084-185.333z"/>
	<path d="M699.036-158.521l31.467-31.467c2.57-2.571,6.738-2.571,9.31,0l0,0c2.571,2.571,2.571,6.739,0,9.31l-31.467,31.467"/>
</g>
<g id="Layer_12">
</g>
<g id="Layer_9">
	<rect x="483.311" y="-41.5" width="168.022" height="5"/>
</g>
<g id="Layer_8">
	<g>
		<polygon points="519.436,24.305 522.792,20.593 699.488,-156.104 706.272,-149.32 528.622,28.331   "/>
		<path fill="#000000" d="M699.488-154.69l5.37,5.37L528.397,27.141l-7.289-3.194l2.426-2.683    C523.534,21.264,672.155-127.357,699.488-154.69 M699.488-157.519l-1.414,1.415L522.12,19.85l-0.036,0.035l-0.033,0.038    l-2.426,2.683l-1.862,2.059l2.543,1.114l7.289,3.194l1.251,0.548l0.966-0.966l176.461-176.461l1.414-1.414l-1.414-1.414    l-5.37-5.37L699.488-157.519L699.488-157.519z"/>
	</g>
</g>
<g id="Layer_6">
	<g>
		<circle fill="none" stroke="#000000" stroke-width="8" cx="503.783" cy="49.508" r="30.492"/>
		<circle fill="none" stroke="#000000" cx="503.783" cy="49.508" r="22.367"/>
		<g>
			<path d="M496.684,38.874c1.37-0.918,2.927-1.577,4.6-1.91v-6.063c-3.312,0.443-6.348,1.75-8.883,3.689L496.684,38.874z"/>
			<path d="M491.239,47.008c0.333-1.673,0.992-3.229,1.909-4.6l-4.283-4.283c-1.939,2.535-3.245,5.571-3.688,8.883H491.239z"/>
			<path d="M493.148,56.607c-0.917-1.371-1.576-2.927-1.909-4.6h-6.062c0.443,3.312,1.749,6.348,3.688,8.883L493.148,56.607z"/>
			<path d="M506.283,30.901v6.063c1.673,0.333,3.229,0.992,4.6,1.91l4.283-4.284C512.631,32.65,509.596,31.344,506.283,30.901z"/>
			<path d="M516.327,52.008c-0.333,1.673-0.992,3.229-1.909,4.6l4.283,4.283c1.939-2.535,3.245-5.57,3.688-8.883H516.327z"/>
			<path d="M514.418,42.408c0.917,1.371,1.576,2.927,1.909,4.6h6.062c-0.443-3.312-1.749-6.348-3.688-8.883L514.418,42.408z"/>
			<path d="M510.883,60.143c-1.37,0.918-2.927,1.576-4.6,1.909v6.063c3.312-0.443,6.348-1.75,8.884-3.689L510.883,60.143z"/>
			<path d="M501.283,62.052c-1.673-0.333-3.229-0.991-4.6-1.909l-4.284,4.283c2.536,1.939,5.571,3.246,8.884,3.689V62.052z"/>
		</g>
	</g>
	<g>
		<circle fill="none" stroke="#000000" stroke-width="8" cx="640.25" cy="49.508" r="30.492"/>
		<circle fill="none" stroke="#000000" cx="640.25" cy="49.508" r="22.367"/>
		<g>
			<path d="M633.15,38.874c1.37-0.918,2.927-1.577,4.6-1.91v-6.063c-3.312,0.443-6.348,1.75-8.883,3.689L633.15,38.874z"/>
			<path d="M627.706,47.008c0.333-1.673,0.992-3.229,1.909-4.6l-4.283-4.283c-1.939,2.535-3.245,5.571-3.688,8.883H627.706z"/>
			<path d="M629.615,56.607c-0.917-1.371-1.576-2.927-1.909-4.6h-6.062c0.443,3.312,1.749,6.348,3.688,8.883L629.615,56.607z"/>
			<path d="M642.75,30.901v6.063c1.673,0.333,3.229,0.992,4.6,1.91l4.283-4.284C649.098,32.65,646.062,31.344,642.75,30.901z"/>
			<path d="M652.794,52.008c-0.333,1.673-0.992,3.229-1.909,4.6l4.283,4.283c1.939-2.535,3.245-5.57,3.688-8.883H652.794z"/>
			<path d="M650.885,42.408c0.917,1.371,1.576,2.927,1.909,4.6h6.062c-0.443-3.312-1.749-6.348-3.688-8.883L650.885,42.408z"/>
			<path d="M647.35,60.143c-1.37,0.918-2.927,1.576-4.6,1.909v6.063c3.312-0.443,6.348-1.75,8.884-3.689L647.35,60.143z"/>
			<path d="M637.75,62.052c-1.673-0.333-3.229-0.991-4.6-1.909l-4.284,4.283c2.536,1.939,5.571,3.246,8.884,3.689V62.052z"/>
		</g>
	</g>
</g>
<g id="Layer_4">
</g>
<g id="Layer_3">
	<g>
		<path stroke="#000000" d="M537.419-129.866l-111.772-61.2c-1.322,20.557-7.91,28.75-11.287,31.634L537.419-129.866z"/>
		<path stroke="#000000" d="M538.765-132.551l-81.452-95.599c-8.933,18.849-23.906,30.872-29.457,34.872L538.765-132.551z"/>
		<path stroke="#000000" d="M459.598-230.093l81.406,95.547l10.98-123.604C504.928-239.347,467.433-231.598,459.598-230.093z"/>
		<path stroke="#000000" d="M412.771-156.729c6.486,21-4.102,29.729-4.102,29.729h127.84L412.771-156.729z"/>
	</g>
</g>
<g id="Layer_5">
	<g>
		<path d="M45.012,44.774h-5.166H1.565c0,0,1.863,20.326,13.381,20.156h24.815h5.336H64.83c11.52,0.17,15.922-20.156,15.922-20.156    H45.012z"/>
		<path d="M64.975,65.06c0,0,0,0-0.002,0l-0.145-0.002L14.804,65.06c-4.715,0-8.522-3.514-11.01-10.162    c-1.871-4.998-2.351-10.061-2.355-10.111l-0.013-0.139H80.91l-0.033,0.154c-0.012,0.05-1.123,5.113-3.621,10.109    C73.939,61.55,69.693,65.06,64.975,65.06L64.975,65.06z M39.761,64.804l25.211,0.002c10.656,0.002,15.182-18.037,15.621-19.904    H1.706C1.9,46.681,4.152,64.806,14.804,64.806l0.141-0.002H39.761L39.761,64.804z"/>
	</g>
	<polygon points="55.096,84.316 31.038,66.837 32.689,65.566 56.26,82.728  "/>
	<path d="M99,29.021c0,0.924-0.75,1.673-1.674,1.673H84.479c-0.924,0-1.672-0.749-1.672-1.673l0,0c0-0.923,0.748-1.672,1.672-1.672   h12.848C98.25,27.349,99,28.098,99,29.021L99,29.021z"/>
	<path d="M75.342,35.833l7.994-7.995c0.654-0.653,1.713-0.653,2.365,0l0,0c0.654,0.653,0.654,1.712,0,2.366l-7.994,7.995"/>
	<rect x="20.53" y="65.566" width="42.691" height="1.271"/>
	<g>
		<path d="M30.75,81.513c0,0,37.762-37.761,44.708-44.706l1.363,1.364L31.986,83.007l-1.853-0.812L30.75,81.513z"/>
		<path fill="#000000" d="M75.457,36.807l1.363,1.364L31.986,83.007l-1.853-0.812l0.616-0.682    C30.75,81.513,68.512,43.752,75.457,36.807 M75.457,36.088l-0.359,0.359L30.39,81.154l-0.009,0.009l-0.009,0.01l-0.616,0.682    l-0.473,0.523l0.646,0.283l1.853,0.811l0.317,0.14l0.246-0.245L77.18,38.531l0.359-0.359l-0.359-0.359l-1.363-1.364L75.457,36.088    L75.457,36.088z"/>
	</g>
	<g>
		<path d="M25.731,97.454c-4.833,0-8.764-3.932-8.764-8.764c0-4.833,3.931-8.765,8.764-8.765s8.764,3.932,8.764,8.765    C34.496,93.522,30.564,97.454,25.731,97.454L25.731,97.454z M25.731,81.958c-3.711,0-6.731,3.02-6.731,6.732    c0,3.711,3.02,6.73,6.731,6.73s6.731-3.02,6.731-6.73C32.462,84.978,29.443,81.958,25.731,81.958L25.731,81.958z"/>
		<path d="M25.731,94.5c-3.204,0-5.81-2.606-5.81-5.81c0-3.205,2.606-5.811,5.81-5.811s5.81,2.605,5.81,5.811    C31.542,91.894,28.935,94.5,25.731,94.5L25.731,94.5z M25.731,83.134c-3.063,0-5.556,2.492-5.556,5.557    c0,3.062,2.493,5.555,5.556,5.555c3.064,0,5.556-2.492,5.556-5.555C31.288,85.626,28.795,83.134,25.731,83.134L25.731,83.134z"/>
		<g>
			<path d="M23.928,85.987c0.348-0.232,0.744-0.4,1.168-0.484v-1.541c-0.841,0.113-1.613,0.445-2.257,0.938L23.928,85.987z"/>
			<path d="M22.544,88.055c0.084-0.425,0.252-0.821,0.485-1.169l-1.088-1.088c-0.493,0.645-0.825,1.415-0.938,2.257H22.544z"/>
			<path d="M23.029,90.493c-0.233-0.348-0.4-0.743-0.485-1.168h-1.541c0.113,0.842,0.444,1.613,0.938,2.257L23.029,90.493z"/>
			<path d="M26.367,83.962v1.541c0.425,0.084,0.82,0.252,1.169,0.484l1.088-1.088C27.98,84.407,27.208,84.075,26.367,83.962z"/>
			<path d="M28.918,89.325c-0.084,0.425-0.252,0.82-0.484,1.168l1.088,1.089c0.493-0.644,0.824-1.415,0.938-2.257H28.918z"/>
			<path d="M28.434,86.886c0.232,0.348,0.4,0.744,0.484,1.169h1.541c-0.113-0.842-0.444-1.612-0.938-2.257L28.434,86.886z"/>
			<path d="M27.536,91.392c-0.349,0.233-0.744,0.4-1.169,0.485v1.54c0.842-0.112,1.613-0.443,2.257-0.938L27.536,91.392z"/>
			<path d="M25.096,91.877c-0.425-0.085-0.82-0.252-1.168-0.485l-1.088,1.088c0.644,0.494,1.416,0.825,2.257,0.938V91.877z"/>
		</g>
	</g>
	<g>
		<path d="M60.404,97.454c-4.832,0-8.764-3.932-8.764-8.764c0-4.833,3.932-8.765,8.764-8.765c4.834,0,8.764,3.932,8.764,8.765    C69.168,93.522,65.238,97.454,60.404,97.454L60.404,97.454z M60.404,81.958c-3.711,0-6.73,3.02-6.73,6.732    c0,3.711,3.02,6.73,6.73,6.73c3.713,0,6.732-3.02,6.732-6.73C67.137,84.978,64.117,81.958,60.404,81.958L60.404,81.958z"/>
		<path d="M60.404,94.5c-3.203,0-5.809-2.606-5.809-5.81c0-3.205,2.605-5.811,5.809-5.811c3.205,0,5.811,2.605,5.811,5.811    C66.215,91.894,63.609,94.5,60.404,94.5L60.404,94.5z M60.404,83.134c-3.062,0-5.555,2.492-5.555,5.557    c0,3.062,2.492,5.555,5.555,5.555c3.064,0,5.557-2.492,5.557-5.555C65.961,85.626,63.469,83.134,60.404,83.134L60.404,83.134z"/>
		<g>
			<path d="M58.602,85.987c0.348-0.232,0.744-0.4,1.168-0.484v-1.541c-0.842,0.113-1.613,0.445-2.256,0.938L58.602,85.987z"/>
			<path d="M57.219,88.055c0.084-0.425,0.252-0.821,0.484-1.169l-1.088-1.088c-0.494,0.645-0.824,1.415-0.938,2.257H57.219z"/>
			<path d="M57.703,90.493c-0.232-0.348-0.4-0.743-0.484-1.168h-1.541c0.113,0.842,0.443,1.613,0.938,2.257L57.703,90.493z"/>
			<path d="M61.041,83.962v1.541c0.424,0.084,0.82,0.252,1.168,0.484l1.088-1.088C62.652,84.407,61.883,84.075,61.041,83.962z"/>
			<path d="M63.592,89.325c-0.084,0.425-0.252,0.82-0.484,1.168l1.088,1.089c0.492-0.644,0.824-1.415,0.938-2.257H63.592z"/>
			<path d="M63.107,86.886c0.232,0.348,0.4,0.744,0.484,1.169h1.541c-0.113-0.842-0.445-1.612-0.938-2.257L63.107,86.886z"/>
			<path d="M62.209,91.392c-0.348,0.233-0.744,0.4-1.168,0.485v1.54c0.842-0.112,1.611-0.443,2.256-0.938L62.209,91.392z"/>
			<path d="M59.77,91.877c-0.424-0.085-0.82-0.252-1.168-0.485l-1.088,1.088c0.643,0.494,1.414,0.825,2.256,0.938V91.877z"/>
		</g>
	</g>
	<g>
		<g>
			<path d="M34.278,43.114L5.878,27.564c-0.336,5.223-2.01,7.305-2.868,8.038L34.278,43.114z"/>
			<path d="M34.248,43.238l-31.509-7.57l0.189-0.162c0.914-0.78,2.496-2.851,2.824-7.949l0.013-0.199l28.574,15.646L34.248,43.238     L34.248,43.238z M3.274,35.535l30.107,7.233L5.992,27.771C5.652,32.504,4.22,34.632,3.274,35.535L3.274,35.535z"/>
		</g>
		<g>
			<path d="M34.62,42.432l-20.695-24.29c-2.27,4.789-6.074,7.844-7.484,8.86L34.62,42.432z"/>
			<path d="M34.559,42.543L6.202,27.017l0.163-0.118c1.493-1.076,5.205-4.087,7.444-8.812l0.084-0.177l0.127,0.149l20.695,24.29     L34.559,42.543L34.559,42.543z M6.676,26.987l27.399,15.002L13.954,18.374C11.761,22.888,8.256,25.824,6.676,26.987L6.676,26.987     z"/>
		</g>
		<g>
			<path d="M14.505,17.648l20.684,24.277l2.79-31.405C26.022,15.297,16.496,17.266,14.505,17.648z"/>
			<path d="M35.289,42.238L14.267,17.565l0.214-0.041c1.81-0.348,11.444-2.324,23.45-7.122l0.192-0.077L35.289,42.238L35.289,42.238     z M14.743,17.731l20.346,23.881l2.745-30.898C26.306,15.302,16.994,17.289,14.743,17.731L14.743,17.731z"/>
		</g>
		<g>
			<path d="M2.607,36.289c1.648,5.335-1.042,7.554-1.042,7.554h32.481L2.607,36.289z"/>
			<path d="M34.046,43.97H1.213l0.271-0.225c0.026-0.021,2.603-2.236,1.002-7.418L2.42,36.113l31.657,7.606L34.046,43.97     L34.046,43.97z M1.868,43.715h31.106L2.792,36.464C4.042,40.747,2.476,43.03,1.868,43.715L1.868,43.715z"/>
		</g>
	</g>
</g>
</svg>