<svg xmlns="http://www.w3.org/2000/svg" xmlns:xlink="http://www.w3.org/1999/xlink" version="1.1" id="Livello_1" x="0px" y="0px" width="100px" height="100px" viewBox="0 0 100 100" enable-background="new 0 0 100 100" xml:space="preserve">
<path d="M76.933,85.516c-2.619,0.617-6.584,1.182-10.109,1.182c-10.649,0-21.772-3.572-31.321-10.057  c-10.657-7.24-16.068-16.799-20.84-25.229C13.734,49.767,7.771,39.761,0,30.019c2.654,13.052,10.036,42.333,24.465,53.905  c14.718,11.801,36.633,15.713,58.857-0.734C83.322,83.189,79.163,84.984,76.933,85.516z"/>
<path d="M17.307,43.528c5.519,9.242,10.308,20.228,21.694,27.96c11.779,8.004,25.643,10.648,36.438,7.982  c7.572-1.869,15.469-5.549,20.063-13.631c5.998-10.559,5.083-20.491,2.507-28.611c-3.706-11.685-13.634-20.97-25.327-26.484  c-20.491-9.669-42.678-2.908-52.352,1.678c-7.266,3.439-14.476,7.672-18.734,9.851C3.655,24.694,11.119,33.168,17.307,43.528z   M79.279,50.561c-9.755,10.301-23.981,7.037-30.794,1.998c-11.098-8.202-17.82-21.634-17.82-21.634s17.194-7.758,31.598-1.933  C69.464,31.9,75.966,38.204,79.279,50.561z"/>
</svg>