<?xml version="1.0" encoding="utf-8"?>
<!-- Generator: Adobe Illustrator 14.0.0, SVG Export Plug-In . SVG Version: 6.00 Build 43363)  -->
<!DOCTYPE svg PUBLIC "-//W3C//DTD SVG 1.0//EN" "http://www.w3.org/TR/2001/REC-SVG-20010904/DTD/svg10.dtd">
<svg version="1.0" id="Layer_1" xmlns="http://www.w3.org/2000/svg" xmlns:xlink="http://www.w3.org/1999/xlink" x="0px" y="0px"
	 width="100px" height="67.083px" viewBox="0 0 100 67.083" enable-background="new 0 0 100 67.083" xml:space="preserve">
<path d="M77.142,53.795l-2.058-1.107c-7.561-4.073-16.114-6.178-24.736-6.087c-8.622,0.092-17.128,2.378-24.601,6.609l-2.034,1.15
	L0,14.28l2.083-1.205C16.565,4.703,33.084,0.184,49.854,0.005c16.77-0.178,33.38,3.99,48.037,12.053l2.108,1.16L77.142,53.795
	L77.142,53.795z M6.565,16.022l18.893,31.936c7.659-3.918,16.198-6.027,24.84-6.118c8.641-0.093,17.224,1.835,24.963,5.59
	L93.473,15.1C80.061,8.173,65.051,4.607,49.904,4.769C34.757,4.929,19.826,8.812,6.565,16.022L6.565,16.022z"/>
<path fill-rule="evenodd" clip-rule="evenodd" d="M58.343,29.773c-0.052-0.154-0.217-0.354-0.29-0.458l-7.544-10.672l-7.489,10.86
	c-0.093,0.132-0.171,0.202-0.23,0.361c-0.136,0.362-0.098,0.79,0.129,1.104c0.256,0.36,0.587,0.493,1.019,0.489
	c0.153-0.002,0.229-0.034,0.377-0.091l3.367-1.128l0.026,4.162c0.016,2.615-0.199,5.254-0.872,7.63
	c-0.263,0.931-0.628,1.736-1.017,2.537c-0.434,0.896-0.884,1.792-1.27,2.75c-0.784,1.945-1.324,4.158-1.698,6.405
	c-0.41,2.485-0.609,5.07-0.582,7.652l0.063,5.915l5.78-0.062l-0.062-5.915c-0.025-2.347,0.288-4.669,0.856-6.808
	c0.565-2.118,1.412-3.97,2.182-5.894c0.415-1.041,0.774-2.147,1.083-3.286c0.926-3.418,1.419-7.135,1.379-10.895l-0.046-4.243
	l3.35,1.043c0.082,0.048,0.17,0.053,0.262,0.069c0.194,0.037,0.377,0,0.562-0.083c0.428-0.2,0.737-0.611,0.73-1.094
	C58.406,30.006,58.379,29.888,58.343,29.773z"/>
<path fill-rule="evenodd" clip-rule="evenodd" d="M38.719,29.981c-0.051-0.154-0.217-0.353-0.29-0.458l-7.543-10.671l-7.489,10.86
	c-0.092,0.132-0.17,0.203-0.23,0.361c-0.136,0.363-0.098,0.79,0.129,1.104c0.256,0.36,0.587,0.493,1.019,0.488
	c0.153-0.001,0.229-0.034,0.376-0.09l3.367-1.128l0.026,4.161c0.017,2.615-0.198,5.255-0.872,7.631
	c-0.263,0.932-0.628,1.737-1.016,2.538c-0.435,0.896-0.883,1.792-1.271,2.75c-0.783,1.945-1.324,4.158-1.698,6.404
	c-0.41,2.485-0.608,5.071-0.581,7.652l0.062,5.916l5.78-0.062l-0.063-5.916c-0.024-2.346,0.289-4.669,0.856-6.808
	c0.566-2.119,1.412-3.969,2.183-5.893c0.415-1.041,0.774-2.148,1.082-3.287c0.926-3.419,1.418-7.135,1.379-10.894l-0.045-4.243
	l3.35,1.043c0.082,0.047,0.17,0.053,0.262,0.069c0.194,0.036,0.377,0,0.562-0.083c0.428-0.2,0.738-0.611,0.73-1.095
	C38.782,30.213,38.756,30.096,38.719,29.981z"/>
<path fill-rule="evenodd" clip-rule="evenodd" d="M77.966,29.564c-0.051-0.154-0.217-0.353-0.291-0.458l-7.542-10.671l-7.489,10.86
	c-0.094,0.132-0.171,0.203-0.23,0.361c-0.136,0.362-0.098,0.791,0.129,1.104c0.256,0.36,0.588,0.493,1.02,0.489
	c0.152-0.001,0.229-0.034,0.376-0.09l3.367-1.128l0.026,4.162c0.017,2.615-0.198,5.254-0.872,7.629
	c-0.264,0.932-0.629,1.737-1.017,2.538c-0.434,0.896-0.884,1.792-1.27,2.751c-0.784,1.945-1.325,4.157-1.698,6.403
	c-0.411,2.486-0.608,5.072-0.581,7.652l0.062,5.916l5.78-0.062l-0.062-5.915c-0.025-2.346,0.287-4.67,0.855-6.809
	c0.566-2.117,1.412-3.969,2.182-5.893c0.416-1.041,0.775-2.148,1.084-3.286c0.926-3.418,1.418-7.136,1.378-10.895l-0.045-4.243
	l3.349,1.044c0.083,0.047,0.171,0.053,0.263,0.069c0.193,0.036,0.377,0,0.562-0.083c0.428-0.2,0.738-0.611,0.731-1.094
	C78.029,29.797,78.003,29.68,77.966,29.564z"/>
</svg>
