<svg xmlns="http://www.w3.org/2000/svg" xmlns:xlink="http://www.w3.org/1999/xlink" version="1.1" id="Layer_1" x="0px" y="0px" width="100px" height="100px" viewBox="0 0 100 100" enable-background="new 0 0 100 100" xml:space="preserve">
<path fill-rule="evenodd" clip-rule="evenodd" d="M71.52,10.691l3.65-0.19c1.1,1.04,2.86,1.34,4.21,2.1  c0.93,1.32,0.01,2.87,0.64,3.67c2.69,2.35,7.26,2.58,10.7,4.09c1.29,2.28,1.96,5.27,5.28,5.29c0.05,3.88-4.87,5.4-6.88,8.69  c-8.72-1.09-9.83,4.8-14.7,7.24c1.14,8.55-5.89,9.59-6.97,16.11c-2.83,1.96-4.9,4.62-6.46,7.74c-1.67,0.39-3.57,0.56-4.49,1.62  c-1.74,0.49-1.67-1.04-2.8-1.24c-2.06,1.05-3.3,2.85-3.85,5.29c1.1,2.53,4.15,1.92,3.03,5.87c2.8,1.64,6.64,6.28,4.12,9.51  c-3.63-0.21-5.92,1.12-10.47,0.54c-0.44,2.58-4.19,2.8-6.74,2.2c-2.36-2.87-3.99-6.57-6.83-8.91c-3.2,0.96-6.6,1.73-9.04,1.85  c-0.94,0.04-1.17-0.76-1.86-0.83c-0.58-0.06-1.04,1.02-1.78,1.02c-0.37-0.01-0.85-0.93-1.41-0.86c-1.26,0.17-2.56,1.33-4.03,1.6  c-2.02,0.37-4.17-0.18-6.83,0.35c0.34-5.13,2.98-8.15,8.24-8.76c0.08-2.05-0.07-3.83-2.44-3.12l-0.22-4.62  c-3.58-2.49-7.47-4.63-9.57-8.78L4,57.701c8.48,2.45,19.39,0.97,27.27-2.32c-0.98-6.05,1.04-9.14,6.45-8.21  c-0.8-3.18,4.34-3.28,7.62-2.71c1.76-2.56,0.48-5.36,1.87-8.43c2.17,0.22,2.96-0.82,4.03-1.6c0.26-2.44-3-2.86-2.05-4.53  c1.4,0.55,3.51,0.29,5.49,0.18c0.89-1.69,0.58-2.17-0.18-3.69c1.07-1.79,3.16-3.04,2.95-4.79c-0.4-1.99-1.58-3.1-2.07-4.99  c3.6-3.44,9.79-4.89,15.73-4.98C71.46,11.511,71.62,11.221,71.52,10.691z"/>
</svg>