<svg xmlns="http://www.w3.org/2000/svg" xmlns:xlink="http://www.w3.org/1999/xlink" version="1.1" id="Layer_1" x="0px" y="0px" width="100px" height="100px" viewBox="0 0 100 100" enable-background="new 0 0 100 100" xml:space="preserve">
<g>
	<path d="M86.164,79.934c-0.958-2.209-1.311-4.141-2.537-4.835c-1.271-0.715-3.296-1.568-6.969-3.529   c-4.375-2.338-7.899-4.948-10.478-7.133c7.527-4.998,12.468-13.377,12.468-22.872c0-15.317-12.826-27.727-28.647-27.727   c-15.822,0-28.647,12.409-28.647,27.727c0,9.495,4.941,17.874,12.468,22.872c-2.579,2.185-6.103,4.795-10.478,7.133   c-3.673,1.961-5.698,2.814-6.964,3.529c-1.236,0.694-1.583,2.626-2.546,4.835c-1.43,3.295,11.446,5.087,31.529,5.385   c0.923,0.03,8.354,0.03,9.277,0C74.723,85.021,87.599,83.229,86.164,79.934z M50.002,26.545c8.569,0,15.519,6.721,15.519,15.02   c0,8.294-6.949,15.015-15.519,15.015c-8.57,0-15.519-6.721-15.519-15.015C34.483,33.266,41.432,26.545,50.002,26.545z    M65.248,78.807c-3.266,0.392-8.637,0.432-12.588,0.392c-0.204-0.055-5.112-0.055-5.316,0c-3.951,0.04-9.322,0-12.588-0.392   c-2.914-0.353-2.705-1.931,1.112-5.957c1.229-1.295,2.785-3.191,4.254-5.291c3.083,1.098,6.403,1.728,9.88,1.728   s6.795-0.63,9.88-1.728c1.467,2.1,3.023,3.996,4.254,5.291C67.953,76.876,68.161,78.454,65.248,78.807z"/>
	<path d="M58.318,41.564c0,4.442-3.723,8.046-8.316,8.046c-4.594,0-8.317-3.604-8.317-8.046c0-4.447,3.723-8.051,8.317-8.051   C54.596,33.514,58.318,37.117,58.318,41.564z"/>
</g>
</svg>