<svg xmlns="http://www.w3.org/2000/svg" xmlns:xlink="http://www.w3.org/1999/xlink" version="1.1" x="0px" y="0px" width="100px" height="92.393px" viewBox="0 0 100 92.393" enable-background="new 0 0 100 92.393" xml:space="preserve">
<g id="Layer_1_copy_2">
	<g id="Wipe_2_">
		<path d="M98.653,36.297c-0.87-3.26-2.425-6.788-4.527-9.996c-0.811-8.353-3.569-15.522-11.947-18.957    c-4.941-2.026-9.911-2.078-14.544-0.783v41.501H27.353V0.351C20.837-1.293,13.362,3.093,7.983,8.278    C1.111,14.902-0.96,23.958,0.39,33.876c0.45,3.302,1.613,5.786,3.256,7.617c-4.784,12.361-4.131,28.477,10.566,33.421    c6.109,2.055,12.534,2.005,18.627,0.429c2.447,1.688,5.225,2.68,8.139,3.104v7.65c0,3.471,2.823,6.294,6.293,6.294h0.445    c3.47,0,6.293-2.823,6.293-6.294v-9.174c1.056-0.382,2.094-0.818,3.104-1.309c4.653,2.694,10.815,3.028,17.11-0.223    c4.864,0.399,11.326-1.286,17.032-6.19C100.194,61.524,101.5,46.961,98.653,36.297z M51.64,86.099c0,2.163-1.76,3.925-3.924,3.925    h-0.445c-2.164,0-3.924-1.762-3.924-3.925V69.067c0-0.306,0.438-0.629,1.185-0.874c0.729-0.239,1.754-0.405,2.962-0.405    c1.208,0,2.232,0.166,2.963,0.405c0.746,0.245,1.184,0.568,1.184,0.874V86.099z M49.864,61.588v5.259    c-0.766-0.151-1.579-0.243-2.37-0.243c-0.79,0-1.604,0.092-2.37,0.243v-5.259c0-2.948-2.94-5.015-8.74-6.142    c-3.569-0.692-7.25-0.834-8.84-0.861l0.848-2.968h38.204l0.848,2.967C63.304,54.642,49.864,55.314,49.864,61.588z"/>
	</g>
</g>
<g id="Layer_1_copy" display="none">
	<g id="Wipe_1_" display="inline">
		<path d="M98.653,36.389c-0.87-3.26-2.425-6.788-4.527-9.996c-0.811-8.353-3.569-15.522-11.947-18.957    c-4.941-2.026-9.911-2.078-14.544-0.783v41.501H27.353V0.443C20.837-1.201,13.362,3.186,7.983,8.37    C1.111,14.995-0.96,24.051,0.39,33.969c0.45,3.302,1.613,5.786,3.256,7.617c-4.784,12.361-4.131,28.478,10.566,33.421    c6.109,2.055,12.534,2.005,18.627,0.43c2.776,1.913,5.978,2.938,9.323,3.243v7.511c0,2.817,2.292,5.109,5.109,5.109h0.445    c2.816,0,5.108-2.292,5.108-5.109v-8.776c1.464-0.465,2.903-1.033,4.289-1.706c4.653,2.695,10.815,3.029,17.11-0.222    c4.864,0.398,11.326-1.287,17.032-6.19C100.194,61.617,101.5,47.054,98.653,36.389z M51.64,77.76v8.431    c0,2.164-1.76,3.925-3.924,3.925h-0.445c-2.164,0-3.924-1.761-3.924-3.925v-7.429v-9.603c0-0.305,0.438-0.628,1.185-0.873    c0.729-0.239,1.754-0.405,2.962-0.405c1.208,0,2.232,0.166,2.963,0.405c0.746,0.245,1.184,0.568,1.184,0.873V77.76z     M49.864,61.681v5.259c-0.766-0.152-1.579-0.243-2.37-0.243c-0.79,0-1.604,0.091-2.37,0.243v-5.259c0-2.948-2.94-5.015-8.74-6.142    c-3.569-0.693-7.25-0.834-8.84-0.862l0.848-2.968h38.204l0.848,2.967C63.304,54.733,49.864,55.407,49.864,61.681z"/>
	</g>
</g>
<g id="Layer_1" display="none">
	<g display="inline">
		<path d="M91.065,37.841c-0.734-2.751-2.047-5.729-3.821-8.437c-0.685-7.05-3.013-13.101-10.084-16    c-4.171-1.71-8.365-1.754-12.275-0.661v38.656h-34V7.501c-5.499-1.387-11.809,2.315-16.348,6.691    c-5.801,5.591-7.548,13.235-6.409,21.606c0.379,2.787,1.361,4.884,2.748,6.429C6.837,52.66,7.388,66.263,19.793,70.436    c5.156,1.734,10.579,1.692,15.722,0.362c5.819,4.012,13.839,3.455,20.489,0.229c3.928,2.274,9.129,2.557,14.441-0.188    c4.105,0.337,9.56-1.086,14.376-5.225C92.366,59.134,93.468,46.842,91.065,37.841z"/>
	</g>
	<g id="Wipe" display="inline">
		<path display="none" fill="#000000" d="M46.78,54.01v0.688c0,1.419,2.11,2.149,3.399,2.149s1.419-0.645,2.924-0.645    c1.504,0,2.795,1.473,4.771,1.473c1.979,0,0.967-1.5,2.342-1.501c-0.033,0.453-0.088,0.988-0.188,1.424    c-0.217,0.955-0.975,3.11,0.402,3.11c1.379,0,0.621-2.155,0.404-3.11c-0.102-0.444-0.158-0.992-0.189-1.451    c1.102-0.127,1.752-0.718,2.518-1.062c0.859-0.388,0.906-0.56,0.99-1.075C64.238,53.493,46.78,54.01,46.78,54.01z"/>
		<g>
			<path d="M64.884,50.202v-2.431h-34v2.431l-0.981,3.433l-0.086,0.637h0.663c5.35,0,14.404,1.035,14.404,4.916v4.688     c-0.88,0.327-1.5,0.85-1.5,1.625v14.375c0,2.378,1.935,4.312,4.312,4.312h0.376c2.377,0,4.312-1.935,4.312-4.312V65.5     c0-0.775-0.619-1.297-1.499-1.625v-4.688c0-3.881,9.051-4.916,14.492-4.916c0.001,0,0.002,0,0.002,0l0.67,0.006L64.884,50.202z      M51.384,65.5v14.375c0,1.826-1.485,3.312-3.312,3.312h-0.376c-1.826,0-3.312-1.486-3.312-3.312V65.5     c0-0.51,1.438-1.079,3.5-1.079C49.947,64.421,51.384,64.99,51.384,65.5z M49.885,59.188v4.414c-0.643-0.125-1.339-0.181-2-0.181     s-1.357,0.056-2,0.181v-4.414c0-2.488-2.482-4.232-7.377-5.184c-3.013-0.585-6.119-0.704-7.461-0.728l0.43-1.505h32.816     l0.43,1.504C61.229,53.324,49.885,53.893,49.885,59.188z"/>
			<path d="M48.073,85.188h-0.376c-2.929,0-5.312-2.383-5.312-5.312V65.5c0-0.573,0.212-1.562,1.5-2.268v-4.045     c0-2.451-6.815-3.916-13.404-3.916h-1.807l0.269-1.911l0.942-3.298v-1.291h36v1.291l1.494,5.227l-2.008-0.018     c-6.533,0-13.485,1.372-13.485,3.916v4.046c1.287,0.706,1.499,1.694,1.499,2.267v14.375     C53.384,82.805,51.001,85.188,48.073,85.188z M45.385,65.831v14.044c0,1.275,1.037,2.312,2.312,2.312h0.376     c1.274,0,2.312-1.037,2.312-2.312V65.831c-0.353-0.171-1.206-0.41-2.5-0.41C46.59,65.421,45.737,65.66,45.385,65.831z      M47.885,62.421c0.337,0,0.673,0.014,1,0.039v-3.272c0-3.995,4.843-5.7,9.498-6.416h-21.15c0.485,0.072,0.976,0.155,1.465,0.251     c5.432,1.056,8.187,3.13,8.187,6.165v3.272C47.212,62.435,47.548,62.421,47.885,62.421z M31.762,50.771h32.245l-0.123-0.569     v-1.431h-32l-0.039,1.705L31.762,50.771z"/>
		</g>
		<path fill="#000000" d="M50.385,64.763c-0.616-0.202-1.48-0.342-2.5-0.342c-1.02,0-1.884,0.14-2.5,0.342    c-0.63,0.207-1,0.479-1,0.737v14.375c0,1.826,1.486,3.312,3.312,3.312h0.376c1.826,0,3.312-1.486,3.312-3.312V65.5    C51.384,65.242,51.015,64.97,50.385,64.763z"/>
		<path fill="#000000" d="M64.722,53.275l-0.715-2.504H31.762l-0.715,2.505c1.342,0.023,4.449,0.143,7.461,0.728    c4.895,0.951,7.377,2.695,7.377,5.184v4.438c0.646-0.128,1.333-0.205,2-0.205c0.667,0,1.354,0.077,2,0.205v-4.438    C49.885,53.893,61.229,53.324,64.722,53.275z"/>
	</g>
</g>
</svg>