<svg xmlns="http://www.w3.org/2000/svg" xmlns:xlink="http://www.w3.org/1999/xlink" version="1.1" id="Layer_1" x="0px" y="0px" width="100px" height="100px" viewBox="0 0 100 100" enable-background="new 0 0 100 100" xml:space="preserve">
<g>
	<path d="M94.775,6.952l0.454-1.845L74.376,26.625c2.237,2.387,2.988,5.298,1.655,6.67c-1.327,1.373-4.259,0.713-6.72-1.445   L14.287,88.639l-0.139,8.35l2.015-0.604c0.628-0.189,15.549-4.75,32.811-18.069C64.894,66.033,85.761,43.68,94.775,6.952z    M47.061,56.495l21.196-21.873c3.176,2.345,6.993,2.556,9.154,0.323c2.163-2.232,1.835-6.039-0.609-9.141l13.456-13.889   c-3.138,10.768-7.32,20.172-12.049,28.352C75.131,41.58,60.589,47.939,47.061,56.495z"/>
	<path d="M68.934,31.504c-0.009-0.009-0.018-0.017-0.029-0.027c-2.531-2.453-3.446-5.618-2.042-7.068s4.596-0.635,7.129,1.818   c0.009,0.01,0.02,0.019,0.029,0.03L94.908,4.699l-1.923,0.377C92.32,5.205,76.47,8.395,57.668,19.975   C40.317,30.666,17.213,50.821,5.689,86.129l-0.667,2.048l9.126-0.131L68.934,31.504z M44.533,54.684   c8.198-14.075,14.087-29.33,15.236-32.38c11.789-7.192,22.503-11.032,28.579-12.842L74.593,23.664   c-3.183-2.349-6.997-2.556-9.159-0.326c-2.16,2.234-1.834,6.04,0.613,9.142L44.533,54.684z"/>
</g>
</svg>