<?xml version="1.0" encoding="utf-8"?>
<!-- Generator: Adobe Illustrator 14.0.0, SVG Export Plug-In . SVG Version: 6.00 Build 43363)  -->
<!DOCTYPE svg PUBLIC "-//W3C//DTD SVG 1.0//EN" "http://www.w3.org/TR/2001/REC-SVG-20010904/DTD/svg10.dtd">
<svg version="1.0" id="Layer_1" xmlns="http://www.w3.org/2000/svg" xmlns:xlink="http://www.w3.org/1999/xlink" x="0px" y="0px"
	 width="100px" height="41.405px" viewBox="0 0 100 41.405" enable-background="new 0 0 100 41.405" xml:space="preserve">
<path d="M97.866,11.562c-3.189-2.704-6.38-5.407-9.569-8.11c-1.243-1.054-2.653-1.266-4.128-0.532
	c-1.821,0.906-3.644,1.811-5.466,2.717c-0.143,0.056-0.281,0.127-0.417,0.208c-7.91,3.932-15.82,7.862-23.725,11.804
	c-0.584-0.747-1.169-1.495-1.754-2.242c-1.272-1.626-2.663-4.355-5.036-4.355c-2.865,0-5.731,0-8.596,0c-2.264,0-4.528,0-6.792,0
	c0-2.264,0-4.529,0-6.792c1.345,0,2.69,0,4.035,0c2.746,0,2.746-4.258,0-4.258c-4.109,0-8.218,0-12.327,0
	c-2.746,0-2.746,4.258,0,4.258c1.345,0,2.69,0,4.035,0c0,2.264,0,4.528,0,6.792c-4.319,0-8.637,0-12.956,0
	c-1.856,0-3.406,1.549-3.406,3.406c0,7.84,0,15.679,0,23.519c0,1.857,1.55,3.406,3.406,3.406c12.073,0,24.147,0,36.221,0
	c2.827,0,5.656,0,8.483,0c2.006,0,4.377,0.353,5.6-1.687c2.71-4.521,5.42-9.041,8.13-13.562c2.952-4.925,5.905-9.85,8.857-14.774
	c0.98-0.487,1.961-0.975,2.942-1.462c2.549,2.16,5.098,4.32,7.647,6.48C96.379,19.2,101.223,14.406,97.866,11.562z M60.602,34.569
	c-14.009,0-28.018,0-42.026,0c0-5.569,0-11.138,0-16.707c9.189,0,18.379,0,27.568,0c1.686,2.154,3.372,4.309,5.058,6.463
	c0.972,1.241,2.877,1.157,4.128,0.533c5.269-2.63,10.542-5.253,15.815-7.875C67.63,22.847,64.116,28.708,60.602,34.569z"/>
<path d="M11.109,2.124C7.615,5.618,4.121,9.111,0.628,12.605c-1.943,1.943,1.067,4.954,3.01,3.011
	c3.494-3.494,6.988-6.987,10.481-10.481C16.062,3.191,13.052,0.181,11.109,2.124L11.109,2.124z"/>
<path d="M100,30.628c0,1.997-2.034,3.615-4.542,3.615s-4.541-1.618-4.541-3.615s4.541-9.685,4.541-9.685S100,28.631,100,30.628z"/>
</svg>
