<svg xmlns="http://www.w3.org/2000/svg" xmlns:xlink="http://www.w3.org/1999/xlink" version="1.1" id="Layer_1" x="0px" y="0px" width="100px" height="100px" viewBox="0 0 100 100" enable-background="new 0 0 100 100" xml:space="preserve">
<path d="M97.008,77.608c-0.587-0.631-1.292-1.147-2.078-1.546l0.013-0.019l-6.269-4.115c2.312-0.278,4.409-0.288,5.849-0.294  c1.972-0.009,3.058-0.017,3.326-1.301c0.26-1.245-0.953-1.786-1.353-1.964c-2.556-1.138-22.948-14.993-35.134-23.269  c-5.938-4.034-10.229-6.949-11.274-7.604c-2.326-1.454-19.276-18.701-30.102-29.937l-0.201-0.21l-0.267-0.113  C9.821,3.063,5.502,7.468,3.791,10.467c-3.097,5.427-2.436,14.569-0.226,16.182c2.179,1.588,23.959,18.931,30.561,24.187  l-23.384,6.588l13.044,2.504L20.331,70.38l15.608-10.851L25.372,75.82l10.513-5.195l4.229,12.421l4.219-23.265l29.534,26.396  c2.153,2.532,5.849,4.188,9.485,4.924c0.798,0.164,1.594,0.28,2.371,0.354c5.783,0.542,10.23-1.211,11.891-4.694  C99.948,81.872,98.234,78.927,97.008,77.608z M88.791,75.262c-0.672,0.119-1.337,0.304-1.984,0.561  c-0.606,0.235-1.183,0.515-1.701,0.821c-0.402,0.234-3.925,2.338-4.553,5.072l-4.736-3.113c0.011-0.019,0.02-0.036,0.031-0.053  c2.126-3.283,5.526-5,8.961-5.901L88.791,75.262z M89.979,83.299c-0.195,0.173-0.464,0.342-0.782,0.49  c-0.232,0-0.599-0.033-0.89-0.067c-0.472-0.054-0.835-0.423-0.869-0.643c-0.021-0.134,0.24-0.402,0.765-0.636  c0.43-0.19,0.787-0.218,1.07-0.159c0.367,0.074,0.611,0.286,0.728,0.467C90.216,83.086,90.049,83.234,89.979,83.299z M84.592,83.518  c0.025,0.17,0.067,0.338,0.121,0.5c-0.483-0.215-0.881-0.524-1.186-0.93c-0.18-0.238-0.23-0.442-0.177-0.704  c0.214-1.053,1.896-2.464,3.101-3.188l0.811,0.525c-0.076,0.029-0.152,0.056-0.227,0.091C85.268,80.596,84.355,81.981,84.592,83.518  z M36.245,48.845C30.067,43.923,7.968,26.323,5.331,24.373c-0.862-1.226-1.684-9.177,1.599-13.445  c2.254-2.929,6.019-3.318,11.187-1.157c2.912,3.021,18.877,19.547,26.617,26.843C41.393,37.49,36.379,40.245,36.245,48.845z   M72.042,80.686L45.161,56.658c0.017-9.11,5.857-11.815,9.523-12.612c1.513,1.026,3.224,2.188,5.062,3.437  c13.313,9.045,25.706,17.434,31.869,21.333c-5.295,0.236-13.836,1.461-18.184,8.17C72.643,78.201,72.178,79.451,72.042,80.686z   M95.016,85.521c-1.316,2.764-5.523,3.397-9.023,3.069c-5.467-0.519-10.188-3.189-10.986-6.22c-0.11-0.423-0.144-0.858-0.104-1.303  l7.667,5.038c0.028,0.018,0.057,0.037,0.087,0.056l0.839,0.553l0.048-0.071c0.654,0.289,1.382,0.485,2.173,0.562  c2.225,0.223,4.766-0.499,6.179-1.754c1.224-1.091,1.438-2.843,0.523-4.261c-0.162-0.255-0.362-0.492-0.595-0.71l0.042-0.067  l-3.31-2.141c2.367-0.665,4.993-0.155,6.345,1.295C96.514,81.304,95.855,83.764,95.016,85.521z"/>
</svg>