<svg xmlns="http://www.w3.org/2000/svg" xmlns:xlink="http://www.w3.org/1999/xlink" version="1.1" id="Layer_1" x="0px" y="0px" width="100px" height="100px" viewBox="0 0 100 100" enable-background="new 0 0 100 100" xml:space="preserve">
<g>
	<path d="M64.225,46.263l0.354,12.947l11.031,6.778l10.86-6.266l-0.354-12.944l-11.032-6.784L64.225,46.263z M82.621,57.571   l-6.951,4.01l-7.361-4.524l-0.236-8.641l4.462-2.576c0.05,0.024,0.1,0.047,0.149,0.072c0.065-0.09,0.125-0.179,0.189-0.269   l2.15-1.241l7.363,4.528L82.621,57.571z"/>
	<path d="M37.449,53.939c-4.176,1.462-8.252,2.271-11.841,2.271c-3.915,0-6.922-0.997-7.85-2.604   c-1.004-1.739-0.206-5.107,2.083-8.793c3.2-5.15,8.932-10.353,15.725-14.274c7.147-4.126,14.812-6.493,21.028-6.493   c3.915,0,6.924,0.998,7.852,2.604c1.482,2.568-0.753,8.455-6.641,14.5c2.963,0.349,6.05,1.111,9.141,2.24l8.144-4.703l1.435,0.867   c3.403-7.124,3.769-14.242,0.385-20.101c-3.647-6.32-10.863-9.8-20.314-9.8c-8.795,0-18.817,2.99-28.224,8.42   c-8.907,5.143-16.277,11.941-20.752,19.142c-5.328,8.575-6.153,16.95-2.323,23.583c3.649,6.319,10.863,9.8,20.313,9.8   c4.982,0,10.361-0.968,15.799-2.788c-0.624-1.044-1.189-2.1-1.68-3.162C37.967,60.84,37.21,57.198,37.449,53.939z"/>
	<path d="M87.644,56.676l0.076,3.9l-7.087,4.089c4.863,4.749,6.65,9.22,5.703,10.861c-0.421,0.729-2.047,1.583-5.238,1.583h-0.001   c-4.878,0-11.023-1.936-16.864-5.308c-5.309-3.065-9.832-7.06-12.412-10.962c-2.032-3.07-2.399-5.385-1.861-6.315   c0.422-0.729,2.047-1.584,5.242-1.584c2.401,0,5.113,0.477,7.944,1.357l-0.17-8.613l2.866-1.655   c-3.696-1.108-7.301-1.693-10.641-1.693c-6.739,0-11.862,2.446-14.425,6.886c-2.812,4.868-2.031,11.071,2.199,17.466   c3.507,5.306,9.174,10.382,15.955,14.295c7.512,4.34,15.384,6.729,22.166,6.729c0,0,0,0,0.001,0c6.736,0,11.858-2.445,14.423-6.886   C99.438,74.038,96.079,64.715,87.644,56.676z"/>
</g>
</svg>