<svg xmlns="http://www.w3.org/2000/svg" xmlns:xlink="http://www.w3.org/1999/xlink" version="1.1" id="Capa_1" x="0px" y="0px" width="49.756097561px" height="100px" viewBox="0 0 102.67 205.013" enable-background="new 0 0 102.67 205.013" xml:space="preserve">
<g>
	<path d="M102.654,51.58c-0.457-23.712-9.016-48.703-9.016-48.703h-3.01c0,0,7.827,23.894,8.245,46.568   c0.418,22.673-7.677,32.673-20.061,39.81c-12.384,7.136-31.556,10.706-47.857,0C14.655,78.549,8.761,68.92,8.176,52.332   C7.593,35.745,18.212,2.877,18.212,2.877h-3.753c0,0-11.611,34.375-10.972,51.724c0.568,15.446,5.748,25.124,19.456,34.963   c1.653,1.187,3.424,2.375,5.332,3.578l-0.002,0.013c0.041,0.02,0.079,0.042,0.12,0.062c0,0,0,0,0,0.001   c1.315,0.826,2.65,1.562,3.996,2.23c8.501,5.316,13.523,12.356,16.257,17.391c1.286,2.685,2.176,5.569,2.479,8.638   c2.876,29.138,2.139,59.617-5.435,69.639c-3.273,4.33-8.039,6.977-12.998,8.568c-8.475,0.545-13.937,1.395-13.942,2.354h0l0,0l0,0   c0,1.643,16.082,2.977,35.919,2.977c18.798,0,34.214-1.197,35.78-2.721c0.454-0.082,0.698-0.17,0.698-0.256   c0-0.088-0.245-0.174-0.699-0.256c-0.866-0.838-5.918-1.578-13.419-2.072c-4.899-1.498-9.596-3.971-12.832-8.252   c-7.574-10.021-7.204-40.754-5.426-69.98c0.308-5.057,2.092-9.517,4.605-13.375c3.258-4.624,8.145-9.822,15.233-13.788   c0.72-0.356,1.426-0.72,2.108-1.096c1.803-0.995,3.52-2.043,5.146-3.168c0.006-0.002,0.015-0.006,0.015-0.006l-0.009,0.002   C96.451,82.726,103.05,72.132,102.654,51.58z"/>
	<path d="M92.13,56.629c-8.44,0-16.415-1.938-23.595-5.268c-31.586-14.653-56.286-3.337-56.697-3.346   c-0.137,0.842-0.212,1.695-0.212,2.559c0,12.754,7.272,39.716,41.44,39.716c34.663,0,41.337-19.118,42.568-33.784   C94.474,56.58,93.308,56.629,92.13,56.629z"/>
</g>
</svg>