<svg xmlns="http://www.w3.org/2000/svg" xmlns:xlink="http://www.w3.org/1999/xlink" version="1.1" x="0px" y="0px" width="100px" height="100px" viewBox="0 0 100 100" enable-background="new 0 0 100 100" xml:space="preserve">
<g id="&#12524;&#12452;&#12516;&#12540;_3" display="none">
	<path display="inline" fill="#000000" d="M61.549,4.018c1.271,0,2.303,1.145,2.303,2.557c0,0-24.986,15.756-24.985,43.705   C38.865,77.986,63.85,93.982,63.85,93.982c0.002,1.414-1.028,2.559-2.299,2.559l0,0c-1.271,0-25.584-18.555-25.583-46.261   C35.966,22.331,60.279,4.018,61.549,4.018L61.549,4.018z"/>
	<rect x="61.194" y="6.493" display="inline" fill="#000000" width="1.244" height="87.394"/>
</g>
<g id="&#12524;&#12452;&#12516;&#12540;_1" display="none">
	<rect x="60.5" y="6.762" display="inline" fill="#000000" width="3.5" height="87.396"/>
	<path display="inline" fill="#000000" d="M61.588,97.941c-2.367,0-27.92-20.541-27.92-47.771c0-27.771,25.553-47.771,27.92-47.771   l0,0c2.369,0,4.289,1.962,4.289,4.382c0,0-25.633,15.492-25.633,43.639c0,26.854,25.633,43.139,25.633,43.139   C65.877,95.98,63.957,97.941,61.588,97.941L61.588,97.941z"/>
</g>
<g id="&#12524;&#12452;&#12516;&#12540;_2">
	<path fill="#000000" d="M64,8.045c1.168-0.832,1.877-1.264,1.877-1.264c0-2.42-1.92-4.382-4.289-4.382   c-2.367,0-27.92,20-27.92,47.771c0,27.23,25.553,47.771,27.92,47.771c2.369,0,4.289-1.961,4.289-4.383c0,0-0.709-0.453-1.877-1.315   V8.045z M60.5,89.45c-7.518-6.421-20.256-20.092-20.256-39.03c0-19.85,12.739-33.396,20.256-39.663V89.45z"/>
</g>
</svg>