<svg xmlns="http://www.w3.org/2000/svg" xmlns:xlink="http://www.w3.org/1999/xlink" version="1.1" id="Layer_1" x="0px" y="0px" width="100px" height="100px" viewBox="0 0 100 100" enable-background="new 0 0 100 100" xml:space="preserve">
<g>
	<circle cx="49.998" cy="30.489" r="0.405"/>
	<circle cx="49.998" cy="36.326" r="0.405"/>
	<circle cx="49.998" cy="41.556" r="0.405"/>
	<circle cx="49.998" cy="48.445" r="0.405"/>
	<circle cx="49.998" cy="52.299" r="0.405"/>
	<path d="M55.877,78.895H44.118c-0.312,0-0.602,0.182-0.739,0.466c-0.135,0.285-0.097,0.615,0.099,0.864l1.203,1.504   c0.158,0.193,0.391,0.305,0.638,0.305h9.356c0.25,0,0.483-0.112,0.64-0.308l1.201-1.502c0.199-0.248,0.236-0.58,0.099-0.865   C56.479,79.076,56.189,78.895,55.877,78.895z M56.042,79.846l-1.201,1.501c-0.04,0.05-0.102,0.079-0.166,0.079h-9.356   c-0.064,0-0.125-0.029-0.166-0.079l-1.199-1.499c-0.051-0.065-0.062-0.153-0.027-0.226c0.036-0.073,0.111-0.12,0.192-0.12h11.759   c0.081,0,0.155,0.046,0.19,0.12C56.103,79.695,56.094,79.781,56.042,79.846z"/>
	<path d="M60.13,72.056c-0.64-1.051-1.192-1.957-1.465-2.578c-0.531-1.206,0.118-2.354,0.941-3.805   c1.16-2.049,2.604-4.598,1.438-8.554c-1.21-4.103-4.782-5.527-7.688-5.998l-0.77-29.079c-0.004-0.019-0.384-1.879,1.368-3.507   l0.086-0.08l1.071-13.378l0.041-0.545l-0.486,0.253c-0.002,0.001-0.249,0.127-0.663,0.127c-0.439,0-0.901-0.137-1.37-0.406   c-0.717-0.411-1.653-0.638-2.635-0.638c-0.983,0-1.918,0.227-2.635,0.638c-0.47,0.269-0.931,0.406-1.371,0.406   c-0.414,0-0.66-0.125-0.66-0.125l-0.493-0.27l1.116,13.938l0.087,0.08c1.74,1.617,1.382,3.432,1.359,3.563L46.607,51.13   c-2.852,0.476-6.359,1.903-7.569,5.956c-1.178,3.951,0.259,6.506,1.413,8.558c0.819,1.455,1.465,2.604,0.931,3.808   c-0.275,0.62-0.83,1.524-1.473,2.573c-2.643,4.307-7.064,11.516-3.827,17.352c3.477,6.267,11.149,6.753,13.418,6.753   c0.276,0,0.442-0.008,0.445-0.009c0.03,0.001,0.213,0.011,0.519,0.011c2.273,0,9.961-0.484,13.44-6.713   C67.159,83.592,62.759,76.37,60.13,72.056z M46.541,18.173L45.524,5.477c0.132,0.025,0.288,0.042,0.468,0.042   c0.548,0,1.11-0.164,1.673-0.486c0.626-0.359,1.454-0.557,2.333-0.557c0.878,0,1.706,0.198,2.332,0.557   c0.562,0.323,1.126,0.486,1.673,0.486c0.179,0,0.335-0.018,0.468-0.042l-1.018,12.696c-1.532,1.482-1.556,3.111-1.501,3.706H48.04   C48.096,21.235,48.052,19.633,46.541,18.173z M52.084,25.812l0.075,2.883h-4.335l0.078-2.883H52.084z M47.915,25.356l0.082-3.022   h3.995l0.079,3.022H47.915z M52.171,29.15l0.071,2.681h-4.503l0.072-2.681H52.171z M52.254,32.287l0.065,2.479h-4.66l0.067-2.479   H52.254z M52.331,35.221l0.06,2.275h-4.806l0.062-2.275H52.331z M52.402,37.951l0.059,2.228h-4.948l0.061-2.228H52.402z    M52.473,40.634l0.053,2.022h-5.08l0.055-2.022H52.473z M47.433,43.111h5.105l0.049,1.87h-5.205L47.433,43.111z M47.37,45.437H52.6   l0.045,1.721h-5.321L47.37,45.437z M47.311,47.612h5.346l0.041,1.569h-5.429L47.311,47.612z M47.256,49.637h5.454l0.039,1.517   h-2.516l-3.019-0.004L47.256,49.637z M47.199,51.608h2.782l2.783,0.003l0.038,1.464h-5.644L47.199,51.608z M47.146,53.53h5.669   l0.032,1.265h-5.734L47.146,53.53z M47.101,55.25h5.759l0.032,1.214h-5.824L47.101,55.25z M47.056,56.919h5.848l0.026,1.011h-5.901   L47.056,56.919z M47.016,58.385h5.926l0.025,0.962h-5.978L47.016,58.385z M46.978,59.802h6.001l0.024,0.935l-6.05-0.021   L46.978,59.802z M63.375,89.121c-3.319,5.941-10.722,6.403-12.911,6.403c-0.308,0-0.482-0.011-0.521-0.011   c-0.005,0-0.163,0.009-0.442,0.009c-2.185,0-9.571-0.465-12.887-6.44c-3.066-5.526,1.24-12.547,3.812-16.741   c0.682-1.11,1.22-1.986,1.511-2.643c0.658-1.483-0.09-2.812-0.956-4.353c-1.099-1.951-2.466-4.381-1.36-8.086   c1.109-3.717,4.346-5.059,6.971-5.516l-0.262,9.575l1.519,0.006c-1.815,0.821-3.083,2.64-3.083,4.762   c0,2.892,2.344,5.235,5.235,5.235c2.89,0,5.234-2.344,5.234-5.235c0-2.11-1.256-3.918-3.055-4.746l1.447,0.005l-0.255-9.61   c2.678,0.451,5.978,1.789,7.09,5.556c1.095,3.709-0.279,6.134-1.384,8.082c-0.871,1.537-1.622,2.864-0.97,4.349   c0.29,0.657,0.825,1.536,1.504,2.649C62.172,76.572,66.456,83.605,63.375,89.121z"/>
	<path d="M52.614,9.711c0.507,0,0.92-0.413,0.92-0.92c0-0.508-0.413-0.921-0.92-0.921c-0.508,0-0.921,0.413-0.921,0.921   C51.693,9.298,52.106,9.711,52.614,9.711z M52.614,8.173c0.34,0,0.617,0.277,0.617,0.617c0,0.34-0.277,0.617-0.617,0.617   c-0.341,0-0.617-0.277-0.617-0.617C51.997,8.45,52.273,8.173,52.614,8.173z"/>
	<path d="M52.007,17.746c0.508,0,0.921-0.413,0.921-0.92c0-0.508-0.413-0.921-0.921-0.921c-0.507,0-0.92,0.413-0.92,0.921   C51.087,17.333,51.5,17.746,52.007,17.746z M52.007,16.208c0.341,0,0.617,0.277,0.617,0.617c0,0.34-0.276,0.617-0.617,0.617   c-0.34,0-0.617-0.277-0.617-0.617C51.39,16.485,51.667,16.208,52.007,16.208z"/>
	<path d="M48.302,8.791c0-0.508-0.413-0.921-0.921-0.921S46.46,8.283,46.46,8.791c0,0.507,0.413,0.92,0.921,0.92   S48.302,9.298,48.302,8.791z M46.764,8.791c0-0.34,0.276-0.617,0.617-0.617c0.34,0,0.617,0.277,0.617,0.617   c0,0.34-0.277,0.617-0.617,0.617C47.04,9.407,46.764,9.13,46.764,8.791z"/>
	<path d="M48.909,16.825c0-0.508-0.413-0.921-0.921-0.921s-0.921,0.413-0.921,0.921c0,0.507,0.413,0.92,0.921,0.92   S48.909,17.333,48.909,16.825z M47.988,17.442c-0.341,0-0.617-0.277-0.617-0.617c0-0.34,0.276-0.617,0.617-0.617   c0.34,0,0.617,0.277,0.617,0.617C48.605,17.165,48.328,17.442,47.988,17.442z"/>
</g>
</svg>