<svg xmlns="http://www.w3.org/2000/svg" xmlns:xlink="http://www.w3.org/1999/xlink" version="1.1" x="0px" y="0px" width="100px" height="100px" viewBox="-12.436 -12.108 100 100" enable-background="new -12.436 -12.108 100 100" xml:space="preserve">
<g id="Layer_1">
</g>
<g id="Calque_2">
	<path d="M36.018,35.122l-29.32,4.818c-0.13,0.261-0.211,0.551-0.211,0.862v3.228c0,1.019,0.794,1.85,1.794,1.934v11.604   c0,0.871,0.582,1.602,1.376,1.851c3.539,6.64,13.575,11.445,25.449,11.563V46.799h1.719v24.16   c11.511-0.33,21.159-5.059,24.62-11.542c0.794-0.249,1.372-0.979,1.372-1.851v-3.407c0-0.011,0-0.018,0-0.029   c0-0.009,0-0.015,0-0.02v-8.138c1.047-0.033,1.891-0.888,1.891-1.943v-3.228c0-0.372-0.11-0.717-0.293-1.013L36.018,35.122z"/>
	<path d="M0.529,53.213c-7.419,0-12.964-1.601-13.311-1.703l0.917-3.105c0.488,0.143,12.071,3.483,23.996-0.001   c11.091-3.239,15.063-1.068,17.942,0.044l-1.168,3.02c-2.25-0.869-5.478-2.992-15.865,0.045   C8.677,52.787,4.353,53.212,0.529,53.213z"/>
	<path d="M59.854,51.512l-0.908-3.109c11.093-3.242,26.064-1.069,28.943,0.044l-1.168,3.02   C84.471,50.598,70.247,48.476,59.854,51.512z"/>
	<path d="M54.799,25.455h-0.448V19.83c0-0.717-0.581-1.3-1.296-1.3h-5.482V9.233c0-0.715-0.582-1.297-1.298-1.297h-0.371   c-0.719,0-1.295,0.582-1.295,1.297v9.296H19.212c-0.718,0-1.303,0.583-1.303,1.3v5.625h-0.674c-1.076,0-1.95,0.868-1.95,1.946   v9.386l20.733-3.407l0.139,0.022l20.59,3.384v-9.386C56.748,26.323,55.88,25.455,54.799,25.455z M34.636,28.765   c0,1.073-0.871,1.946-1.952,1.946H21.851c-1.078,0-1.948-0.874-1.948-1.946v-3.784c0-1.076,0.87-1.951,1.948-1.951h10.833   c1.081,0,1.952,0.875,1.952,1.951V28.765z M52.122,28.765c0,1.073-0.87,1.946-1.948,1.946H39.334c-1.075,0-1.949-0.874-1.949-1.946   v-3.784c0-1.076,0.874-1.951,1.949-1.951h10.839c1.078,0,1.948,0.875,1.948,1.951V28.765z"/>
	<path fill="#000000" d="M165.042,41.654c-0.063-0.95-0.465-1.505-1.668-1.843v-0.854h2.257c0.392,0,0.71-0.239,0.71-0.532   c0-0.294-0.318-0.532-0.71-0.532h-5.779v0.009c-0.332,0.044-0.585,0.261-0.585,0.523c0,0.293,0.318,0.532,0.709,0.532h2.119v0.854   c-1.19,0.338-1.604,0.893-1.679,1.843h-3.955v2.35h4.042c0.377,0.828,1.078,1.383,2.232,1.383c1.241,0,1.955-0.603,2.281-1.393   c0.865,0.085,1.141,0.395,1.141,1.101v0.762c0,0.251,0.273,0.456,0.609,0.456h1.867c0.336,0,0.607-0.204,0.607-0.456   c0-0.47,0.013-0.612,0.013-0.781C169.253,43.055,167.737,41.804,165.042,41.654z"/>
</g>
</svg>