<svg xmlns="http://www.w3.org/2000/svg" xmlns:xlink="http://www.w3.org/1999/xlink" version="1.1" x="0px" y="0px" width="100px" height="100px" viewBox="-12.436 -12.108 100 100" enable-background="new -12.436 -12.108 100 100" xml:space="preserve">
<g id="Layer_1">
</g>
<g id="Calque_2">
	<path d="M54.142,39.614c-0.486-7.382-3.612-11.691-12.96-14.32v-6.631h17.534c3.043,0,5.516-1.855,5.516-4.135   c0-2.284-2.473-4.135-5.516-4.135H13.815v0.072c-2.58,0.345-4.544,2.029-4.544,4.063c0,2.28,2.473,4.135,5.508,4.135h16.464v6.631   c-9.248,2.629-12.458,6.938-13.042,14.32h-30.728v18.258h31.403c2.929,6.432,8.376,10.748,17.344,10.748   c9.644,0,15.19-4.686,17.725-10.819c6.722,0.66,8.861,3.069,8.861,8.552v5.921c0,1.954,2.124,3.54,4.733,3.54h14.508   c2.61,0,4.719-1.586,4.719-3.54c0-3.653,0.099-4.757,0.099-6.069C86.865,50.498,75.082,40.779,54.142,39.614z"/>
</g>
</svg>