<svg xmlns="http://www.w3.org/2000/svg" xmlns:xlink="http://www.w3.org/1999/xlink" version="1.1" id="Calque_1" x="0px" y="0px" width="100px" height="100px" viewBox="0 0 100 100" enable-background="new 0 0 100 100" xml:space="preserve">
<path d="M50.186,3.414c0.019,2.484,0.028,3.726,0.046,6.21c-0.957,0-1.437,0-2.395,0c0.017-2.484,0.026-3.726,0.043-6.21  c-3.676,0-5.514,0-9.189,0c-2.001,31.452-3.999,62.904-6,94.356c5.814,0,8.721,0,14.537,0c0.017-2.459,0.026-3.688,0.043-6.147  c1.424,0,2.136,0,3.56,0c0.019,2.459,0.026,3.688,0.045,6.147c5.774,0,8.661,0,14.435,0c-2-31.452-4-62.904-6-94.356  C55.66,3.414,53.835,3.414,50.186,3.414z M50.795,86.802c-1.396,0-2.095,0.001-3.491,0.001c0.04-5.788,0.06-8.683,0.1-14.471  c1.314,0,1.972-0.001,3.285-0.001C50.731,78.119,50.753,81.014,50.795,86.802z M50.652,67.506c-1.286,0-1.928,0-3.215,0  c0.04-5.788,0.06-8.683,0.1-14.471c1.204,0,1.807,0,3.011,0C50.591,58.823,50.61,61.718,50.652,67.506z M50.512,48.212  c-1.177,0-1.766,0-2.942,0c0.04-5.789,0.061-8.684,0.101-14.472c1.095,0,1.642,0,2.736,0C50.448,39.528,50.47,42.423,50.512,48.212z   M50.372,28.917c-1.067,0-1.601,0-2.668,0c0.04-5.788,0.059-8.683,0.099-14.471c0.985,0,1.477,0,2.462,0  C50.308,20.234,50.329,23.129,50.372,28.917z"/>
</svg>