<svg xmlns="http://www.w3.org/2000/svg" xmlns:xlink="http://www.w3.org/1999/xlink" version="1.1" id="Layer_1" x="0px" y="0px" width="100px" height="100px" viewBox="0 0 100 100" enable-background="new 0 0 100 100" xml:space="preserve">
<g>
	<g>
		<path fill-rule="evenodd" clip-rule="evenodd" d="M61.581,17.706c-1.793-0.426-3.333-0.778-4.693-1.072v-2.786    c0-3.244-2.632-5.873-5.874-5.873c-3.245,0-5.875,2.629-5.875,5.873v2.862c-1.276,0.279-2.704,0.607-4.343,0.997    C11.414,25.422,5.263,42.341,5.517,42.341c2.371,0,5.321-4.79,23.279-9.533c8.488-2.242,13.458-2.631,16.343-2.542v56.874    c0,3.245,2.629,5.874,5.875,5.874c3.242,0,5.874-2.629,5.874-5.874V30.279c2.826-0.131,7.851,0.192,16.695,2.528    c17.955,4.743,20.906,9.533,23.279,9.533C97.113,42.341,90.963,25.422,61.581,17.706z"/>
	</g>
</g>
</svg>