<svg xmlns="http://www.w3.org/2000/svg" xmlns:xlink="http://www.w3.org/1999/xlink" version="1.1" id="Layer_1" x="0px" y="0px" width="100px" height="100px" viewBox="0 0 100 100" enable-background="new 0 0 100 100" xml:space="preserve">
<g>
	<g>
		<path fill-rule="evenodd" clip-rule="evenodd" d="M77.458,12.226c-14.636-10.613-35.106-7.354-45.72,7.283    c-8.463,11.67-8.097,27.044-0.183,38.179l-19.98,24.826c-2.442,3.366-1.693,8.078,1.676,10.522    c3.371,2.444,8.081,1.691,10.525-1.676l19.102-23.731c14.195,7.567,32.152,3.704,41.86-9.686    C95.353,43.309,92.093,22.839,77.458,12.226z M73.538,43.798H62.516v11.021c0,2.383-1.93,4.312-4.312,4.312    s-4.312-1.929-4.312-4.312V43.798H42.869c-2.383,0-4.312-1.931-4.312-4.314c0-2.381,1.929-4.312,4.312-4.312h11.022V24.149    c0-2.381,1.93-4.312,4.312-4.312s4.312,1.931,4.312,4.312v11.023h11.022c2.383,0,4.312,1.931,4.312,4.312    C77.85,41.867,75.921,43.798,73.538,43.798z"/>
	</g>
</g>
</svg>