<svg xmlns="http://www.w3.org/2000/svg" xmlns:xlink="http://www.w3.org/1999/xlink" version="1.1" x="0px" y="0px" width="100px" height="100px" viewBox="0 0 100 100" enable-background="new 0 0 100 100" xml:space="preserve">
<g id="Layer_1">
	<g>
		<g>
			<path fill-rule="evenodd" clip-rule="evenodd" d="M51.14,28.685c-3.379,0-6.117,1.534-6.117,3.425     c0,0.059,0.01,0.117,0.016,0.175h-0.016v13.117h0.003c0.034,1.875,2.756,3.387,6.113,3.387c3.358,0,6.081-1.512,6.115-3.387     h0.003V32.286h-0.016c0.005-0.059,0.016-0.116,0.016-0.175C57.258,30.219,54.52,28.685,51.14,28.685z M51.347,26.195     c4.409,0,7.984-3.577,7.984-7.987c0-4.414-7.984-17.206-7.984-17.208c0,0-7.98,12.794-7.98,17.208     C43.367,22.618,46.94,26.195,51.347,26.195z M80.527,49.066c-0.76-4.585-9.255-8.393-20.691-9.634v7.025h-0.024     c0.004,0.042,0.024,0.083,0.024,0.125c0,2.713-3.931,4.914-8.779,4.914c-4.848,0-8.779-2.203-8.779-4.914     c0-0.042,0.021-0.083,0.024-0.125h-0.024v-6.859c-10.727,1.389-18.568,5.071-19.296,9.468H22.96v0.105     c-0.026,0.187-0.04,0.375-0.04,0.564s0.014,0.371,0.04,0.545v10.792c-0.026,0.16-0.04,0.322-0.04,0.485     c0,5.104,12.908,9.238,28.834,9.238c15.925,0,28.833-4.134,28.835-9.237V49.066H80.527z M22.914,73.998v14.223h0.022     c0.463,5.778,13.07,10.409,28.726,10.409c15.653,0,28.264-4.631,28.727-10.409h0.022V74.105     c-3.991,4.268-15.308,7.345-28.653,7.345C38.298,81.45,26.839,78.321,22.914,73.998z"/>
		</g>
	</g>
</g>
<g id="Layer_2">
</g>
</svg>