<svg xmlns="http://www.w3.org/2000/svg" xmlns:xlink="http://www.w3.org/1999/xlink" version="1.1" x="0px" y="0px" width="100px" height="100px" viewBox="0 0 100 100" enable-background="new 0 0 100 100" xml:space="preserve">
<g id="Layer_1">
	<path fill-rule="evenodd" clip-rule="evenodd" d="M103.194,97.172c-0.05-0.053-0.105-0.096-0.155-0.146   c0.057,0.043,0.109,0.089,0.165,0.129C103.201,97.162,103.197,97.165,103.194,97.172z M75.238,86.463   c-2.953,0.211-5.764,0.836-8.446,1.73c-5.988,3.043-12.74,4.793-19.918,4.793c-24.345,0-44.079-19.733-44.079-44.079   c0-24.342,19.733-44.079,44.079-44.079s44.079,19.737,44.079,44.079c0,3.733-0.515,7.336-1.388,10.798l0.123,0.105   c-0.908,3.571-1.338,7.32-1.061,11.198c0.628,8.811,4.453,16.612,10.233,22.416C92.297,88.527,84.049,85.832,75.238,86.463z"/>
</g>
<g id="Layer_2">
</g>
</svg>