<svg xmlns="http://www.w3.org/2000/svg" xmlns:xlink="http://www.w3.org/1999/xlink" version="1.1" x="0px" y="0px" width="100px" height="100px" viewBox="0 0 100 100" enable-background="new 0 0 100 100" xml:space="preserve">
<g id="Layer_1">
	<g>
		<g>
			<path fill-rule="evenodd" clip-rule="evenodd" d="M50.323,1.971C24.005,1.971,2.542,23.473,2.542,50s21.462,48.029,47.781,48.029     c26.322,0,48.253-21.502,48.253-48.029S76.646,1.971,50.323,1.971z M88.27,65.025H75.552c0.69-3.519,1.113-7.321,1.197-11.404     h14.196C90.598,57.615,89.675,61.442,88.27,65.025z M90.949,46.4H76.546c-0.301-3.909-0.911-7.622-1.76-11.109h13.609     C89.734,38.789,90.613,42.516,90.949,46.4z M84.776,28.07H72.562c-2.901-7.709-7.039-13.822-11.589-17.662     C70.936,13.119,79.383,19.526,84.776,28.07z M54.15,13.165c4.42,2.05,8.322,7.456,11.025,14.905H54.15V13.165z M54.15,35.291     h13.115c0.777,3.462,1.327,7.192,1.6,11.109H54.15V35.291z M69.048,53.621c-0.077,4.13-0.478,7.932-1.126,11.404H54.15V53.621     H69.048z M9.608,53.621H23.66c0.084,4.083,0.506,7.886,1.197,11.404H12.284C10.878,61.442,9.956,57.615,9.608,53.621z      M31.814,53.621h14.895v11.404H32.888C32.27,61.552,31.887,57.752,31.814,53.621z M31.987,46.4     c0.259-3.917,0.783-7.647,1.527-11.109h13.194V46.4H31.987z M46.709,12.977V28.07h-11.19     C38.207,20.378,42.157,14.867,46.709,12.977z M39.369,10.468c-4.523,3.843-8.634,9.933-11.521,17.602H15.778     C21.134,19.587,29.499,13.212,39.369,10.468z M12.158,35.291h13.465c-0.849,3.487-1.459,7.2-1.76,11.109H9.604     C9.94,42.516,10.82,38.789,12.158,35.291z M15.979,72.247h10.806c2.507,7.314,6.3,12.95,10.608,16.68     C28.504,85.958,20.976,80.003,15.979,72.247z M34.682,72.247h12.027v14.938C41.653,85.541,37.349,80.298,34.682,72.247z      M54.15,87.037v-14.79h11.896C63.35,80.068,59.076,85.243,54.15,87.037z M62.926,89.007c4.346-3.729,8.173-9.394,10.698-16.76     h10.952C79.536,80.072,71.918,86.064,62.926,89.007z"/>
		</g>
	</g>
</g>
<g id="Layer_2">
</g>
</svg>