<svg xmlns="http://www.w3.org/2000/svg" xmlns:xlink="http://www.w3.org/1999/xlink" version="1.1" x="0px" y="0px" width="100px" height="100px" viewBox="0 0 100 100" enable-background="new 0 0 100 100" xml:space="preserve">
<g id="Layer_1">
	<g>
		<g>
			<path fill-rule="evenodd" clip-rule="evenodd" d="M98.634,63.623c0-11.078-8.979-20.057-20.056-20.057     c-1.711,0-3.363,0.237-4.948,0.641c0.232-1.335,0.36-2.705,0.36-4.106c0-13.132-10.646-23.777-23.777-23.777     c-13.131,0-23.777,10.645-23.777,23.777c0,1.425,0.132,2.818,0.373,4.174c-1.666-0.448-3.408-0.709-5.214-0.709     c-11.077,0-20.055,8.979-20.055,20.057c0,10.449,7.993,19.022,18.198,19.961c0.113,0.05,0.236,0.079,0.367,0.079h1.2     c0.098,0.001,0.192,0.015,0.29,0.015s0.192-0.014,0.29-0.015h56.404c0.098,0.001,0.192,0.015,0.29,0.015s0.192-0.014,0.29-0.015     h0.512c0.061,0,0.113-0.023,0.171-0.034C90.173,83.118,98.634,74.371,98.634,63.623z"/>
		</g>
	</g>
</g>
<g id="Layer_2">
</g>
</svg>