<svg xmlns="http://www.w3.org/2000/svg" xmlns:xlink="http://www.w3.org/1999/xlink" version="1.1" id="Layer_1" x="0px" y="0px" width="63.448px" height="100px" viewBox="0 0 63.448 100" enable-background="new 0 0 63.448 100" xml:space="preserve">
<path d="M61.902,50.787c0-15.313-5.863-28.718-14.633-36.103c0.508,0.132,1.081,0.079,1.545-0.306  c0.687-0.571,0.827-2.357,0.051-3.157c-0.382-0.393-0.972-0.791-1.789-1.041c0.206-0.133,0.395-0.272,0.548-0.421  c1.589-1.535,2.165-3.74,1.388-5.027c-1.251-2.07-4.569-1.335-5.166,0.282c-0.963,2.607,1.301,3.332,0.783,4.088  c-0.294,0.43-2.611,0.545-4.47-0.188c-0.624-0.246-1.484-0.959-2.401-1.703C38.203,7.28,38.737,7.241,39.388,7  c1.617-0.597,2.352-3.915,0.282-5.166c-0.875-0.528-2.174-0.418-3.4,0.199c-0.056-0.104-0.119-0.207-0.199-0.303  C35.5,1.043,34.299,0.9,33.326,1.444c-0.683,0.381-1.35,1.642-1.489,3.074c-0.055,0.563-0.062,1.168-0.036,1.733  c-0.009,0.021-0.018,0.042-0.026,0.062c0.019-0.529,0.008-1.085-0.042-1.605c-0.139-1.433-0.806-2.693-1.489-3.075  C29.271,1.09,28.071,1.232,27.5,1.919c-0.081,0.097-0.145,0.199-0.2,0.304c-1.225-0.617-2.524-0.727-3.399-0.199  c-2.07,1.251-1.335,4.569,0.281,5.166c0.396,0.146,0.743,0.211,1.059,0.23c-0.82,0.665-1.578,1.271-2.144,1.494  c-1.859,0.732-4.176,0.617-4.47,0.188c-0.519-0.756,1.746-1.48,0.783-4.088c-0.597-1.617-3.915-2.352-5.166-0.282  c-0.777,1.287-0.202,3.492,1.388,5.027c0.153,0.149,0.342,0.289,0.548,0.421c-0.817,0.25-1.406,0.647-1.788,1.04  c-0.777,0.8-0.637,2.586,0.05,3.158c0.464,0.385,1.037,0.438,1.544,0.305c-8.77,7.385-14.633,20.79-14.633,36.103  c0,20.268,10.272,37.19,23.961,41.235c-0.695,0.033-1.315,0.125-1.757,0.203c-0.715,0.129-2.136-1.406-3.163-0.18  c-0.896,1.068-0.087,2.4,1.288,2.48c1.313,0.08,3.568-1.059,4.584-1.068c1.424-0.012,2.938,0.658,3.024,1.018  c0.151,0.637-1.541,0.539-1.566,2.523c-0.016,1.227,2.006,2.564,3.368,1.508c0.384-0.299,0.623-0.799,0.716-1.385  c0.093,0.586,0.332,1.086,0.715,1.385c1.362,1.057,3.384-0.281,3.368-1.508c-0.025-1.984-1.717-1.887-1.566-2.523  c0.085-0.359,1.6-1.029,3.024-1.018c1.016,0.01,3.271,1.148,4.585,1.068c1.374-0.08,2.182-1.412,1.287-2.48  c-1.027-1.227-2.447,0.309-3.163,0.18c-0.511-0.092-1.262-0.199-2.091-0.209C51.643,87.957,61.902,71.043,61.902,50.787z   M45.175,10.975c1.036-0.055,2.026,0.23,2.088,0.458c0.124,0.448-1.252,0.558-1.266,2.009c-0.001,0.087,0.018,0.175,0.047,0.262  c-1.218-0.92-2.488-1.722-3.8-2.407C43.275,11.331,44.286,11.21,45.175,10.975z M33.313,3.204c0.266-0.074,0.417,0.379,0.796,0.764  c-0.188,0.325-0.351,0.706-0.491,1.116c-0.273,0.021-0.531,0.083-0.765,0.183C32.804,4.241,33.087,3.266,33.313,3.204z   M31.675,7.497c0.022,0.104,0.049,0.21,0.086,0.318c0.108,0.313,0.26,0.544,0.439,0.726c0.01,0.032,0.025,0.073,0.036,0.106  c-0.203-0.006-0.404-0.022-0.609-0.022c-0.076,0-0.151,0.007-0.227,0.008c0.054-0.174,0.101-0.331,0.136-0.451  C31.59,7.996,31.637,7.762,31.675,7.497z M30.257,3.393c0.224,0.062,0.505,1.02,0.463,2.034c-0.243-0.152-0.522-0.259-0.826-0.313  c-0.129-0.347-0.271-0.675-0.434-0.957C29.839,3.772,29.991,3.319,30.257,3.393z M15.991,11.434  c0.063-0.228,1.054-0.513,2.089-0.458c0.89,0.235,1.9,0.355,2.93,0.322c-1.312,0.685-2.582,1.487-3.8,2.407  c0.029-0.087,0.049-0.174,0.048-0.261C17.243,11.991,15.868,11.881,15.991,11.434z M32.16,94.805  c-0.182,0.391-0.295,0.795-0.354,1.191c-0.059-0.396-0.172-0.801-0.355-1.191c-0.325-0.699-1.181-1.457-2.265-2.006  c0.806,0.09,1.618,0.148,2.44,0.148c0.976,0,1.939-0.07,2.892-0.195C33.39,93.303,32.495,94.086,32.16,94.805z M31.627,91.639  c-15.878,0-28.75-18.299-28.75-40.87c0-20.973,11.114-38.247,25.426-40.591c-0.065,0.236-0.131,0.473-0.221,0.7  c-0.165,0.416-0.022,0.667,0.259,0.748c-0.147,0.218-0.27,0.385-0.342,0.47c-0.699,0.816,1.557,0.534,2.339-0.877  c0.237-0.426,0.438-0.873,0.607-1.296c0.227-0.008,0.453-0.024,0.681-0.024c0.364,0,0.725,0.02,1.085,0.039  c0.152,0.362,0.321,0.733,0.52,1.092c0.782,1.412,3.037,1.694,2.338,0.877c-0.072-0.084-0.194-0.251-0.341-0.47  c0.281-0.081,0.423-0.332,0.259-0.748c-0.056-0.143-0.094-0.292-0.141-0.438c14.118,2.595,25.03,19.74,25.03,40.519  C60.377,73.34,47.504,91.639,31.627,91.639z"/>
</svg>