<svg xmlns="http://www.w3.org/2000/svg" xmlns:xlink="http://www.w3.org/1999/xlink" version="1.1" x="0px" y="0px" width="100px" height="100px" viewBox="0 0 100 100" enable-background="new 0 0 100 100" xml:space="preserve">
<g id="&#12524;&#12452;&#12516;&#12540;_3" display="none">
	<path display="inline" d="M61.549,4.018c1.271,0,2.303,1.145,2.303,2.557c0,0-24.986,15.756-24.985,43.705   C38.865,77.986,63.85,93.982,63.85,93.982c0.002,1.414-1.028,2.559-2.299,2.559l0,0c-1.271,0-25.584-18.555-25.583-46.261   C35.966,22.331,60.279,4.018,61.549,4.018L61.549,4.018z"/>
	<rect x="61.194" y="6.493" display="inline" width="1.244" height="87.394"/>
</g>
<g id="&#12524;&#12452;&#12516;&#12540;_1" display="none">
	<rect x="60.5" y="6.762" display="inline" width="3.5" height="87.396"/>
	<path display="inline" d="M61.588,97.941c-2.367,0-27.92-20.541-27.92-47.771c0-27.771,25.553-47.771,27.92-47.771l0,0   c2.369,0,4.289,1.962,4.289,4.382c0,0-25.633,15.492-25.633,43.639c0,26.854,25.633,43.139,25.633,43.139   C65.877,95.98,63.957,97.941,61.588,97.941L61.588,97.941z"/>
</g>
<g id="&#12524;&#12452;&#12516;&#12540;_4" display="none">
	<path display="inline" d="M75.99,32.014c0,17.463-16.975,35.42-26.028,35.42c-9.053,0-26.027-18.106-26.027-35.42   c0-15.438,11.652-27.952,26.027-27.952S75.99,16.577,75.99,32.014z"/>
	<g display="inline">
		<path d="M51.123,66.397c-0.934-0.582-1.525-0.175-1.314,0.904l1.971,10.109c0.211,1.079,1.077,1.391,1.926,0.69l5.426-4.473    c0.849-0.7,0.779-1.749-0.154-2.331L51.123,66.397z"/>
	</g>
	<path display="inline" d="M37.418,96.938c-0.522,0-1.029-0.272-1.305-0.758c-0.41-0.72-0.158-1.636,0.562-2.046   c5.019-2.856,4.865-5.358,4.56-10.344c-0.077-1.263-0.165-2.694-0.165-4.258c0-8.365,7.784-13.18,8.115-13.381   c0.709-0.427,1.631-0.203,2.06,0.506c0.43,0.708,0.204,1.629-0.503,2.059c-0.107,0.066-6.672,4.182-6.672,10.816   c0,1.472,0.081,2.795,0.16,4.075c0.32,5.226,0.573,9.353-6.07,13.134C37.924,96.874,37.669,96.938,37.418,96.938L37.418,96.938z"/>
</g>
<g id="&#12524;&#12452;&#12516;&#12540;_5" display="none">
	<path display="inline" d="M57.843,46.789c0,12.554,12.13,25.464,18.6,25.464c6.468,0,18.598-13.017,18.598-25.464   c0-11.1-8.326-20.097-18.598-20.097C66.17,26.692,57.843,35.689,57.843,46.789z"/>
	<g display="inline">
		<path d="M75.843,71.067c-0.953-0.55-1.547-0.119-1.32,0.957l1.544,7.32c0.227,1.076,1.128,1.411,2.002,0.744l4.182-3.19    c0.874-0.667,0.811-1.663-0.143-2.213L75.843,71.067z"/>
	</g>
	<path display="inline" d="M59.819,93.871c-0.414,0-0.818-0.205-1.057-0.581c-0.37-0.583-0.196-1.355,0.387-1.725   C75.384,81.273,73.82,62.431,73.803,62.241c-0.064-0.688,0.44-1.297,1.128-1.36c0.679-0.066,1.296,0.44,1.36,1.128   c0.02,0.204,1.71,20.565-15.804,31.668C60.28,93.809,60.049,93.871,59.819,93.871L59.819,93.871z"/>
	<path display="inline" d="M42.699,46.789c0,12.554-12.204,25.464-18.713,25.464c-6.508,0-18.713-13.017-18.713-25.464   c0-11.1,8.378-20.097,18.713-20.097S42.699,35.689,42.699,46.789z"/>
	<g display="inline">
		<path d="M24.597,71.063c0.954-0.547,1.548-0.114,1.32,0.961l-1.552,7.322c-0.229,1.075-1.132,1.412-2.009,0.748l-4.22-3.2    c-0.876-0.664-0.813-1.656,0.141-2.203L24.597,71.063z"/>
	</g>
	<path display="inline" fill="#000000" d="M50.309,3.7C36.497,3.7,25.26,15.708,25.26,30.469c0,16.586,16.07,33.444,25.049,33.444   c4.617,0,10.77-4.078,16.057-10.642c5.715-7.093,8.993-15.404,8.993-22.802C75.359,15.708,64.121,3.7,50.309,3.7z M50.309,62.125   c-8.091,0-23.262-16.181-23.262-31.656c0-13.797,10.415-24.981,23.262-24.981c12.847,0,23.263,11.185,23.263,24.981   C73.572,46.077,58.401,62.125,50.309,62.125z"/>
	<path display="inline" d="M73.572,30.469c0,15.608-15.171,31.656-23.263,31.656c-8.091,0-23.262-16.181-23.262-31.656   c0-13.797,10.415-24.981,23.262-24.981C63.156,5.488,73.572,16.672,73.572,30.469z"/>
	<g display="inline">
		<path d="M51.526,60.311c-0.933-0.582-1.524-0.175-1.314,0.904l2.133,10.936c0.211,1.079,1.077,1.391,1.926,0.69l5.926-4.885    c0.849-0.7,0.779-1.749-0.154-2.331L51.526,60.311z"/>
	</g>
	<path display="inline" d="M52.331,93.678c-0.508,0-1.004-0.258-1.285-0.725c-10.84-17.962-0.436-34.984,0.013-35.7   c0.441-0.703,1.368-0.915,2.067-0.476c0.702,0.439,0.915,1.364,0.477,2.065l0,0c-0.1,0.16-9.856,16.209,0.012,32.56   c0.428,0.71,0.2,1.632-0.509,2.06C52.862,93.608,52.596,93.678,52.331,93.678L52.331,93.678z"/>
	<path display="inline" d="M40.71,93.871c-0.228,0-0.458-0.063-0.666-0.192c-17.62-11.103-15.918-31.467-15.899-31.671   c0.065-0.687,0.672-1.194,1.36-1.127c0.687,0.064,1.192,0.673,1.129,1.36c-0.018,0.188-1.551,19.055,14.743,29.322   c0.584,0.368,0.759,1.14,0.391,1.724C41.531,93.665,41.125,93.871,40.71,93.871L40.71,93.871z"/>
</g>
<g id="&#12524;&#12452;&#12516;&#12540;_2">
	<path d="M52.346,72.15c0.211,1.079,1.077,1.391,1.926,0.69l5.926-4.885c0.849-0.7,0.779-1.749-0.154-2.331l-6.636-4.141   c8.339-3.117,20.165-17.233,20.165-31.015c0-13.797-10.416-24.981-23.263-24.981c-12.848,0-23.262,11.185-23.262,24.981   c0,14.55,13.411,29.72,21.739,31.482c-2.523,6.397-5.304,18.467,2.26,31.002c0.281,0.467,0.777,0.725,1.285,0.725   c0.265,0,0.531-0.069,0.774-0.216c0.709-0.428,0.937-1.35,0.509-2.06c-6.149-10.189-4.678-20.259-2.671-26.442L52.346,72.15z"/>
	<path d="M41.377,91.563c-8.982-5.66-12.542-13.929-13.93-20.245c4.072-1.95,8.906-6.788,12.024-12.689   c-7.294-6.278-14.212-17.277-14.212-28.16c0-1.254,0.087-2.486,0.244-3.694c-0.502-0.043-1.005-0.083-1.518-0.083   c-10.335,0-18.713,8.997-18.713,20.097c0,11.706,10.792,23.912,17.492,25.325l-4.488,2.576c-0.954,0.547-1.018,1.539-0.141,2.203   l4.22,3.2c0.876,0.664,1.78,0.327,2.009-0.748l1.156-5.452c1.793,6.478,5.776,14.272,14.524,19.785   c0.207,0.13,0.438,0.192,0.666,0.192c0.415,0,0.821-0.206,1.059-0.584C42.137,92.703,41.961,91.932,41.377,91.563z"/>
	<path d="M95.04,46.789c0-11.1-8.326-20.097-18.598-20.097c-0.448,0-0.888,0.039-1.328,0.072c0.157,1.212,0.245,2.447,0.245,3.705   c0,7.398-3.278,15.709-8.993,22.802c-1.688,2.097-3.466,3.936-5.253,5.474c3.102,5.851,7.87,10.639,11.892,12.575   c-1.374,6.313-4.911,14.574-13.855,20.245c-0.583,0.369-0.757,1.142-0.387,1.725c0.238,0.376,0.643,0.581,1.057,0.581   c0.229,0,0.461-0.063,0.668-0.194c8.689-5.509,12.648-13.294,14.433-19.768l1.146,5.436c0.227,1.076,1.128,1.411,2.002,0.744   l4.182-3.19c0.874-0.667,0.811-1.663-0.143-2.213l-4.452-2.571C84.313,70.702,95.04,58.495,95.04,46.789z"/>
</g>
</svg>