<svg xmlns="http://www.w3.org/2000/svg" xmlns:xlink="http://www.w3.org/1999/xlink" version="1.1" id="Layer_1" x="0px" y="0px" width="100px" height="100px" viewBox="-12.436 -12.108 100 100" enable-background="new -12.436 -12.108 100 100" xml:space="preserve">
<path fill="#000000" d="M34.56,81.375c-21.493,0-39.65-21.286-39.65-46.482C-5.09,12.656,8.991,0.41,34.56,0.41  c25.568,0,39.649,12.246,39.649,34.483C74.209,60.089,56.052,81.375,34.56,81.375z M34.56,1.375  c-14.448,0-38.686,4.354-38.686,33.518c0,24.673,17.716,45.518,38.686,45.518c20.969,0,38.685-20.845,38.685-45.518  C73.245,5.729,49.007,1.375,34.56,1.375z"/>
<path fill="#000000" d="M60.192,7.016c-3.277-2.151-7.068-3.073-10.977-4.234C39.35-0.146,28.473-0.229,23.05,2.367  c-2.368-0.823-9.285,1.556-14.68,5.134C2.292,11.533-2.514,18.245-1.264,20.13s5.432,2.447,11.511-1.585  c3.113-2.065,6.897-5.639,9.685-8.889c1.65,4.043,7.762,7.655,17.631,10.585c13.015,3.864,22.294,2.319,32.175-0.208  C72.677,19.281,67.828,12.028,60.192,7.016z"/>
<path fill="#000000" d="M34.728,66.656c-6.651,0-11.525-7.021-11.301-7.951c0.231-0.955,4.537,7.107,10.637,7.107  c6.1,0,9.302-5.05,11.488-7.107C47.75,56.637,41.379,66.656,34.728,66.656z"/>
<g>
	<path fill="#000000" d="M10.689,35.469c-0.407,0.14,2.709-2.627,4.955-4.126c2.343-1.564,6.212-1.546,6.386-1.39   s0.293,0.842-0.048,0.999s-3.403,0.032-5.783,1.223C13.867,33.342,11.096,35.329,10.689,35.469z"/>
	<path fill="#000000" d="M19.408,33.205c-2.399,0-4.344,1.945-4.344,4.344s1.945,4.344,4.344,4.344s4.344-1.945,4.344-4.344   S21.807,33.205,19.408,33.205z M17.673,34.957c-0.4,0.301-0.833,0.4-0.969,0.221c-0.135-0.18,0.08-0.569,0.479-0.871   c0.4-0.301,0.833-0.4,0.969-0.221C18.288,34.266,18.073,34.655,17.673,34.957z"/>
</g>
<g>
	<path fill="#000000" d="M58.716,35.469c0.406,0.14-2.71-2.627-4.955-4.126c-2.344-1.564-6.213-1.546-6.387-1.39   s-0.293,0.842,0.048,0.999s3.403,0.032,5.782,1.223C55.539,33.342,58.309,35.329,58.716,35.469z"/>
	<path fill="#000000" d="M45.654,37.549c0,2.399,1.945,4.344,4.344,4.344s4.344-1.945,4.344-4.344s-1.945-4.344-4.344-4.344   S45.654,35.15,45.654,37.549z M51.252,34.086c0.136-0.179,0.569-0.081,0.969,0.221c0.399,0.302,0.614,0.691,0.479,0.871   c-0.135,0.179-0.568,0.08-0.969-0.221S51.118,34.266,51.252,34.086z"/>
</g>
</svg>