<svg xmlns="http://www.w3.org/2000/svg" xmlns:xlink="http://www.w3.org/1999/xlink" version="1.1" id="Layer_1" x="0px" y="0px" width="100px" height="100px" viewBox="-12.436 -12.108 100 100" enable-background="new -12.436 -12.108 100 100" xml:space="preserve">
<path fill="#000000" d="M34.56,81.375c-21.493,0-39.65-21.286-39.65-46.482C-5.09,12.656,8.991,0.41,34.56,0.41  c25.568,0,39.649,12.246,39.649,34.483C74.209,60.089,56.052,81.375,34.56,81.375z M34.56,1.375  c-14.448,0-38.686,4.354-38.686,33.518c0,24.673,17.716,45.518,38.686,45.518c20.969,0,38.685-20.845,38.685-45.518  C73.245,5.729,49.007,1.375,34.56,1.375z"/>
<path fill="#000000" d="M60.192,7.016c-3.277-2.151-7.068-3.073-10.977-4.234C39.35-0.146,28.473-0.229,23.05,2.367  c-2.368-0.823-9.285,1.556-14.68,5.134C2.292,11.533-2.514,18.245-1.264,20.13s5.432,2.447,11.511-1.585  c3.113-2.065,6.897-5.639,9.685-8.889c1.65,4.043,7.762,7.655,17.631,10.585c13.015,3.864,22.294,2.319,32.175-0.208  C72.677,19.281,67.828,12.028,60.192,7.016z"/>
<path fill="#000000" d="M10.689,35.469c-0.407,0.14,2.709-2.627,4.955-4.126c2.343-1.564,6.212-1.546,6.386-1.39  s0.293,0.842-0.048,0.999s-3.403,0.032-5.783,1.223C13.867,33.342,11.096,35.329,10.689,35.469z"/>
<path fill="#000000" d="M58.716,35.469c0.406,0.14-2.71-2.627-4.955-4.126c-2.344-1.564-6.213-1.546-6.387-1.39  s-0.293,0.842,0.048,0.999s3.403,0.032,5.782,1.223C55.539,33.342,58.309,35.329,58.716,35.469z"/>
<path fill="#000000" d="M33.771,61.729c-0.855,0-1.713-0.228-2.559-0.681c-0.26-0.139-0.519-0.29-0.777-0.44  c-0.814-0.475-1.584-0.923-2.438-1.033c-1.103-0.145-2.873,0.339-2.933,0.676l-0.875-0.458c0.292-1.633,3.902-1.213,3.936-1.21  c1.055,0.137,1.949,0.657,2.813,1.161c0.248,0.145,0.496,0.289,0.746,0.424c0.923,0.494,1.815,0.661,2.723,0.509  c0.337-0.056,0.412-0.177,0.617-0.588c0.113-0.226,0.253-0.506,0.485-0.786c1.065-1.287,3.268-1.315,4.798-0.688  c0.469,0.192,1.163,0.752,1.674,1.012c1.321,0.675,2.721,1.311,3.86,1.885s-3.138-0.598-4.527-1.308  c-0.483-0.246-0.948-0.484-1.386-0.663c-1.191-0.488-2.925-0.474-3.648,0.4c-0.159,0.191-0.257,0.388-0.361,0.596  c-0.22,0.438-0.493,0.985-1.347,1.127C34.305,61.707,34.038,61.729,33.771,61.729z"/>
<circle fill="#000000" cx="19.256" cy="37.55" r="4.406"/>
<circle fill="#000000" cx="20.256" cy="35.548" r="1.103"/>
<circle fill="#000000" cx="49.839" cy="37.55" r="4.406"/>
<circle fill="#000000" cx="48.84" cy="35.548" r="1.103"/>
</svg>