<svg xmlns="http://www.w3.org/2000/svg" xmlns:xlink="http://www.w3.org/1999/xlink" version="1.1" id="Calque_1" x="0px" y="0px" width="100px" height="100px" viewBox="0 0 100 100" enable-background="new 0 0 100 100" xml:space="preserve">
<polygon points="55.325,97.309 23.237,66.003 23.237,34.306 55.325,3 "/>
<rect x="15.542" y="34.33" width="4.565" height="31.688"/>
<path d="M65.696,76.373c-0.588,0-1.151-0.332-1.418-0.899c-0.367-0.782-0.031-1.715,0.751-2.083  c6.021-2.83,16.123-10.16,16.123-27.443c0-18.164-11.262-25.237-16.104-27.435c-0.787-0.357-1.135-1.285-0.778-2.072  c0.358-0.788,1.286-1.136,2.073-0.778c5.394,2.449,17.94,10.301,17.94,30.285c0,19.013-11.229,27.13-17.922,30.277  C66.146,76.325,65.919,76.373,65.696,76.373z"/>
</svg>