<?xml version="1.0" encoding="utf-8"?>
<!-- Generator: Adobe Illustrator 14.0.0, SVG Export Plug-In . SVG Version: 6.00 Build 43363)  -->
<!DOCTYPE svg PUBLIC "-//W3C//DTD SVG 1.0//EN" "http://www.w3.org/TR/2001/REC-SVG-20010904/DTD/svg10.dtd">
<svg version="1.0" id="Layer_1" xmlns="http://www.w3.org/2000/svg" xmlns:xlink="http://www.w3.org/1999/xlink" x="0px" y="0px"
	 width="100px" height="92.718px" viewBox="0 0 100 92.718" enable-background="new 0 0 100 92.718" xml:space="preserve">
<path d="M45.224,53.13C53.498,65.54,61.77,77.95,70.043,90.359c2.575,3.863,8.849,0.243,6.25-3.653
	c-8.272-12.409-16.546-24.818-24.818-37.228C48.899,45.614,42.626,49.234,45.224,53.13L45.224,53.13z"/>
<circle cx="71.432" cy="16.546" r="9.652"/>
<circle cx="38.698" cy="22.061" r="22.061"/>
<path d="M95.55,16.871c-6.512,4.159-12.483,7.975-18.995,12.135c0.72,1.518,0.938,3.855,0.765,6.666
	c7.271-4.646,14.004-8.948,21.275-13.593C101.862,19.992,98.839,14.769,95.55,16.871z"/>
<path d="M43.456,52.786c-6.179-1.51-9.438-2.307-16.492-4.031c-2.92-0.714-5.937,0.437-7.494,3.05
	C13.308,62.147,7.146,72.491,0.984,82.834c-4.391,7.37,7.085,14.041,11.459,6.697c5.315-8.923,10.631-17.846,15.948-26.769
	c7.515,1.837,18.344,7.547,27.107,8.024C51.55,64.863,47.405,58.709,43.456,52.786z"/>
<path d="M65.016,67.267c8.505-8.485,15.726-38.457,7.923-39.551c-9.287-1.302-16.481,10.587-21.069,19.904
	C56.128,54.007,60.758,60.879,65.016,67.267z"/>
</svg>
