<svg xmlns="http://www.w3.org/2000/svg" xmlns:xlink="http://www.w3.org/1999/xlink" version="1.1" id="Calque_1" x="0px" y="0px" width="100px" height="100px" viewBox="0 0 100 100" enable-background="new 0 0 100 100" xml:space="preserve">
<path d="M73.496,45.667H26.9c-2.586,0-4.702,2.116-4.702,4.702v39.676c0,2.586,2.116,4.702,4.702,4.702h46.596  c2.586,0,4.702-2.116,4.702-4.702V50.369C78.198,47.783,76.082,45.667,73.496,45.667z M53.448,66.995v14.339c0,1.104-0.896,2-2,2  h-2.5c-1.104,0-2-0.896-2-2V66.995c-1.941-1.124-3.25-3.219-3.25-5.623c0-3.59,2.91-6.5,6.5-6.5c3.59,0,6.5,2.91,6.5,6.5  C56.698,63.776,55.39,65.871,53.448,66.995z"/>
<path d="M74.615,44.375h-4v-15.25c0-11.258-9.159-20.417-20.417-20.417c-11.258,0-20.417,9.159-20.417,20.417v15.25h-4v-15.25  c0-13.463,10.953-24.417,24.417-24.417s24.417,10.954,24.417,24.417V44.375z"/>
</svg>