<svg xmlns="http://www.w3.org/2000/svg" xmlns:xlink="http://www.w3.org/1999/xlink" version="1.1" id="Calque_1" x="0px" y="0px" width="100px" height="100px" viewBox="0 0 100 100" enable-background="new 0 0 100 100" xml:space="preserve">
<rect y="2" width="23" height="7"/>
<rect x="12.5" y="11" width="23" height="7"/>
<rect x="37.5" y="11" width="23" height="7"/>
<rect x="62.5" y="11" width="23" height="7"/>
<rect x="87.5" y="11" width="12.5" height="7"/>
<rect y="11" width="10.5" height="7"/>
<rect x="25" y="2" width="23" height="7"/>
<rect x="50" y="2" width="23" height="7"/>
<rect x="75" y="2" width="23" height="7"/>
<rect y="20" width="23" height="7"/>
<rect x="12.5" y="29" width="23" height="7"/>
<rect x="37.5" y="29" width="23" height="7"/>
<rect x="62.5" y="29" width="23" height="7"/>
<rect x="87.5" y="29" width="12.5" height="7"/>
<rect y="29" width="10.5" height="7"/>
<rect x="25" y="20" width="23" height="7"/>
<rect x="50" y="20" width="23" height="7"/>
<rect x="75" y="20" width="23" height="7"/>
<rect y="38" width="23" height="7"/>
<rect x="12.5" y="47" width="23" height="7"/>
<rect x="37.5" y="47" width="23" height="7"/>
<rect x="62.5" y="47" width="23" height="7"/>
<rect x="87.5" y="47" width="12.5" height="7"/>
<rect y="47" width="10.5" height="7"/>
<rect x="25" y="38" width="23" height="7"/>
<rect x="50" y="38" width="23" height="7"/>
<rect x="75" y="38" width="23" height="7"/>
<rect y="56" width="23" height="7"/>
<rect x="12.5" y="65" width="23" height="7"/>
<rect x="37.5" y="65" width="23" height="7"/>
<rect x="62.5" y="65" width="23" height="7"/>
<rect x="87.5" y="65" width="12.5" height="7"/>
<rect y="65" width="10.5" height="7"/>
<rect x="25" y="56" width="23" height="7"/>
<rect x="50" y="56" width="23" height="7"/>
<rect x="75" y="56" width="23" height="7"/>
<rect x="12.5" y="74" width="23" height="7"/>
<rect x="37.5" y="74" width="23" height="7"/>
<rect x="62.5" y="74" width="23" height="7"/>
<rect x="87.5" y="74" width="12.5" height="7"/>
<rect y="74" width="10.5" height="7"/>
<rect y="83" width="23" height="7"/>
<rect x="12.5" y="92" width="23" height="7"/>
<rect x="37.5" y="92" width="23" height="7"/>
<rect x="62.5" y="92" width="23" height="7"/>
<rect x="87.5" y="92" width="12.5" height="7"/>
<rect y="92" width="10.5" height="7"/>
<rect x="25" y="83" width="23" height="7"/>
<rect x="50" y="83" width="23" height="7"/>
<rect x="75" y="83" width="23" height="7"/>
</svg>