<svg xmlns="http://www.w3.org/2000/svg" xmlns:xlink="http://www.w3.org/1999/xlink" version="1.1" id="Layer_1" x="0px" y="0px" width="100px" height="100px" viewBox="0 0 100 100" enable-background="new 0 0 100 100" xml:space="preserve">
<g>
	<g>
		<path fill-rule="evenodd" clip-rule="evenodd" d="M20.41,20.051l7.98,13.668l41.925,0.086l7.417-13.607    c0.236-0.224,0.389-0.537,0.389-0.889V3.156c0-0.673-0.551-1.224-1.224-1.224h-9.313c-0.685,0-1.23,0.551-1.23,1.224v12.961    l-10.955,0.014V3.284c0-0.742-0.604-1.346-1.349-1.346h-9.198c-0.743,0-1.346,0.604-1.346,1.346v12.862l-11.988,0.015V3.342    c0-0.678-0.551-1.224-1.229-1.224h-9.314c-0.679,0-1.227,0.545-1.227,1.224v15.635C19.748,19.448,20.021,19.845,20.41,20.051z     M19.809,95.812c0,0.679,0.551,1.229,1.229,1.229h56.865c0.679,0,1.224-0.551,1.224-1.229V85.047L19.809,84.92V95.812z     M79.127,75.75l-0.089-0.101c-0.101-0.262-0.294-0.467-0.534-0.605L67.365,62.406V39.511l-35.682-0.077v22.89L20.43,75.047    c-0.238,0.14-0.431,0.342-0.532,0.602l-0.09,0.102h0.069c-0.033,0.111-0.069,0.221-0.069,0.343v3.12l59.318,0.122v-3.242    c0-0.122-0.036-0.231-0.068-0.343H79.127z"/>
	</g>
</g>
</svg>