<svg xmlns="http://www.w3.org/2000/svg" xmlns:xlink="http://www.w3.org/1999/xlink" version="1.1" id="Layer_1" x="0px" y="0px" width="100px" height="100px" viewBox="0 0 100 100" enable-background="new 0 0 100 100" xml:space="preserve">
<g>
	<g>
		<path fill-rule="evenodd" clip-rule="evenodd" d="M90.746,9.084c0-3.401-2.756-6.157-6.157-6.157H21.54l13.895,10.468h40.848    c1.533,0,2.773,1.244,2.773,2.774c0,1.53-1.24,2.77-2.773,2.77H42.794l8.995,6.777h24.493c1.533,0,2.773,1.24,2.773,2.771    c0,1.53-1.24,2.77-2.773,2.77H59.144l0.818,0.617c0,0,6.156,3.526,6.156,6.16v30.795h18.479c3.404,0,6.16-2.759,6.16-6.161    L90.746,9.084z M55.034,33.723L13.152,2.927c-3.401,0-6.159,2.755-6.159,6.157V59.59c0,2.719,1.734,3.156,6.159,6.16    l41.882,30.797c3.4,0,6.16-2.76,6.16-6.162V39.879C61.124,37.641,55.034,33.723,55.034,33.723z"/>
	</g>
</g>
</svg>