<svg xmlns="http://www.w3.org/2000/svg" xmlns:xlink="http://www.w3.org/1999/xlink" version="1.1" id="Layer_1" x="0px" y="0px" width="100px" height="100px" viewBox="0 0 100 100" enable-background="new 0 0 100 100" xml:space="preserve">
<g>
	<g>
		<path fill-rule="evenodd" clip-rule="evenodd" d="M98.164,52.941v-7.214l-12.986-3.608v0.682    c-0.842-4.875-2.658-9.409-5.215-13.426l6.597-11.667l-5.101-5.1l-11.362,6.42c-3.935-2.779-8.426-4.825-13.29-5.892L53.437,1    h-7.211l-3.266,11.752c-5.275,0.853-10.158,2.848-14.43,5.689l-10.325-5.834l-5.101,5.1l5.732,10.14    c-3.072,4.334-5.25,9.349-6.215,14.79L1.498,45.727v7.214l11.21,3.113c1.02,5.342,3.212,10.26,6.271,14.513l-5.876,10.392    l5.101,5.101l10.694-6.043c4.147,2.687,8.856,4.581,13.929,5.421l3.399,12.229h7.211l3.505-12.618    c4.667-1.042,8.992-2.979,12.806-5.606l11.712,6.618l5.101-5.101l-6.634-11.731l-0.635,0.635    c2.915-4.261,4.973-9.154,5.887-14.446v1.131L98.164,52.941z M48.931,67.884c-10.343,0-18.729-8.385-18.729-18.729    c0-10.345,8.386-18.729,18.729-18.729c10.346,0,18.73,8.384,18.73,18.729C67.661,59.499,59.277,67.884,48.931,67.884z"/>
	</g>
</g>
</svg>