<svg xmlns="http://www.w3.org/2000/svg" xmlns:xlink="http://www.w3.org/1999/xlink" version="1.1" id="Layer_1" x="0px" y="0px" width="100px" height="100px" viewBox="0 0 100 100" enable-background="new 0 0 100 100" xml:space="preserve">
<g>
	<g>
		<path fill-rule="evenodd" clip-rule="evenodd" d="M91.342,10H9.296c-3.677,0-6.658,2.981-6.658,6.658v65.271    c0,3.677,2.981,6.659,6.658,6.659h82.045c3.68,0,6.658-2.982,6.658-6.659V16.658C98,12.981,95.021,10,91.342,10z M52.324,77.476    c0,1.595-1.291,2.889-2.891,2.889H14.201c-1.594,0-2.886-1.294-2.886-2.889V49.842c0-1.596,1.292-2.889,2.886-2.889h35.232    c1.6,0,2.891,1.293,2.891,2.889V77.476z"/>
	</g>
</g>
</svg>