<svg xmlns="http://www.w3.org/2000/svg" xmlns:xlink="http://www.w3.org/1999/xlink" version="1.1" id="Layer_1" x="0px" y="0px" width="100px" height="100px" viewBox="0 0 100 100" enable-background="new 0 0 100 100" xml:space="preserve">
<g>
	<g>
		<path fill-rule="evenodd" clip-rule="evenodd" d="M92.818,23.216V72.1c0,0-13.907-3.91-24.24-1.923    c-9.255,1.779-16.066,6.8-17.215,7.687v0.148c0,0-0.034-0.027-0.096-0.075c-0.061,0.048-0.095,0.075-0.095,0.075v-0.148    c-1.148-0.887-7.959-5.907-17.211-7.687C23.626,68.189,8.357,72.1,8.357,72.1V23.071c-0.893,0.134-1.84,0.277-2.858,0.429v52.662    c0,0,16.64-4.282,27.959-2.104c11.131,2.141,17.856,8.581,17.856,8.581s6.725-6.44,17.855-8.581    c11.321-2.179,27.278,2.104,27.278,2.104V23.727C96.448,23.727,95.059,23.492,92.818,23.216z M33.121,65.229    c9.051,1.739,16.046,6.978,16.046,6.978V24.113c0,0-7.032-5.245-16.104-6.989c-9.183-1.766-21.179,1.723-21.179,1.723v48.094    C11.884,66.941,23.918,63.459,33.121,65.229z M89.284,67.117V19.023c0,0-10.996-3.49-20.175-1.723    c-9.072,1.743-16.335,6.987-16.335,6.987v48.095c0,0,7.223-5.237,16.276-6.979C78.252,63.636,89.284,67.117,89.284,67.117z"/>
	</g>
</g>
</svg>