<?xml version="1.0" encoding="utf-8"?>
<!-- Generator: Adobe Illustrator 14.0.0, SVG Export Plug-In . SVG Version: 6.00 Build 43363)  -->
<!DOCTYPE svg PUBLIC "-//W3C//DTD SVG 1.0//EN" "http://www.w3.org/TR/2001/REC-SVG-20010904/DTD/svg10.dtd">
<svg version="1.0" xmlns="http://www.w3.org/2000/svg" xmlns:xlink="http://www.w3.org/1999/xlink" x="0px" y="0px"
	 width="25.347px" height="100px" viewBox="0 0 25.347 100" enable-background="new 0 0 25.347 100" xml:space="preserve">
<g id="Layer_1">
</g>
<g id="Layer_2">
	<path fill-rule="evenodd" clip-rule="evenodd" d="M15.701,67.02V16.379C17.458,12.359,26.354,6.525,21.994,0h-9.32h-9.32
		c-4.36,6.525,4.536,12.359,6.293,16.379V67.02c-0.657,8.859-9.631,1.634-9.634,7.706c-0.008,17.74,11.112,25.828,12.661,25.245
		c1.549,0.583,12.669-7.505,12.661-25.246C25.332,68.652,16.358,75.879,15.701,67.02z M12.684,11.924c0,0-9.475-8.611-7.558-8.607
		h7.558h7.558C22.158,3.313,12.684,11.924,12.684,11.924z"/>
</g>
</svg>
