<svg xmlns="http://www.w3.org/2000/svg" xmlns:xlink="http://www.w3.org/1999/xlink" version="1.1" id="Layer_1" x="0px" y="0px" width="100px" height="100px" viewBox="0 0 100 100" enable-background="new 0 0 100 100" xml:space="preserve">
<g>
	<circle fill="#000000" cx="26.47" cy="52.823" r="4.715"/>
	<circle fill="#000000" cx="48.531" cy="52.823" r="4.715"/>
	<path fill="#000000" d="M74.1,24.005C67.625,7.053,47.14-0.871,28.35,6.3C18.689,9.99,10.635,17.461,6.671,26.834   C2.473,34.011,0,42.737,0,52.149c0,24.369,16.544,44.193,36.878,44.193c18.489,0,33.842-16.367,36.497-37.638   c6.719,0.301,15.346-3.251,20.84-5.346C113.004,46.185,80.566,40.967,74.1,24.005z M36.878,90.399   c-17.057,0-30.935-17.158-30.935-38.25c0-2.936,0.293-5.782,0.801-8.528c6.456,4.6,22.792,0.424,28.023-0.947   c7.615-1.997,12.896-2.419,19.613,2.51c4.635,3.399,8.035,9.127,13.166,11.927C65.568,75.862,52.586,90.399,36.878,90.399z"/>
	<g>
		<path fill="#000000" d="M36.69,83.06c-2.877,0-5.582-1.119-7.608-3.153c-1.159-1.163-1.155-3.045,0.004-4.204    c1.163-1.159,3.047-1.153,4.207,0.006c1.895,1.897,5.292,1.773,7.041-0.271c1.067-1.246,2.947-1.395,4.191-0.327    c1.248,1.066,1.395,2.942,0.328,4.19C42.811,81.69,39.833,83.06,36.69,83.06z"/>
	</g>
</g>
</svg>