<svg xmlns="http://www.w3.org/2000/svg" xmlns:xlink="http://www.w3.org/1999/xlink" version="1.1" id="Layer_1" x="0px" y="0px" width="100px" height="100px" viewBox="0 0 100 100" enable-background="new 0 0 100 100" xml:space="preserve">
<g>
	<circle fill="#000000" cx="180.137" cy="55.646" r="4.715"/>
	<circle fill="#000000" cx="202.197" cy="55.646" r="4.715"/>
	<path fill="#000000" d="M227.766,26.828c-6.475-16.952-26.959-24.875-45.749-17.705c-9.661,3.69-17.715,11.161-21.679,20.534   c-4.199,7.177-6.672,15.903-6.672,25.316c0,24.369,16.545,44.193,36.879,44.193c18.488,0,33.842-16.367,36.496-37.639   c6.719,0.301,15.346-3.25,20.84-5.346C266.67,49.007,234.232,43.79,227.766,26.828z M190.545,93.223   c-17.057,0-30.936-17.158-30.936-38.25c0-2.936,0.293-5.783,0.802-8.529c6.456,4.599,22.792,0.424,28.022-0.947   c7.615-1.997,12.896-2.419,19.613,2.51c4.635,3.4,8.035,9.126,13.166,11.927C219.234,78.686,206.252,93.223,190.545,93.223z"/>
	<g>
		<path fill="#000000" d="M190.356,85.883c-2.878,0-5.581-1.119-7.608-3.154c-1.158-1.162-1.154-3.045,0.004-4.203    c1.164-1.16,3.047-1.154,4.207,0.006c1.895,1.896,5.293,1.773,7.041-0.271c1.067-1.246,2.947-1.395,4.191-0.328    c1.248,1.066,1.395,2.943,0.327,4.191C196.477,84.514,193.5,85.883,190.356,85.883z"/>
	</g>
</g>
<path fill="#000000" d="M70.918,19.647c-0.608-0.788-1.233-1.547-1.882-2.273C61.418,8.4,53.549,2.226,46.889,2.226  c-6.273,0-13.053,5.335-19.458,13.264c-3.771,3.666-6.962,8.343-9.341,13.733C7.722,46.905,0,68.541,0,78.668  c0,8.646,5.979-1.537,14.453-14.951c3.792,19.566,17.087,34.057,32.865,34.057c16.872,0,30.908-16.555,33.525-38.162  C91.709,75.664,100,90.01,100,80.334C100,68.182,86.235,38.711,70.918,19.647z M75.509,52.309c0,21.881-12.646,39.684-28.19,39.684  c-14.601,0-26.635-15.734-28.027-35.799c9.039-13.729,19.856-27.837,29.213-27.837c8.255,0,18.117,11.241,26.989,23.568  C75.497,52.055,75.509,52.18,75.509,52.309z"/>
<path fill="#000000" d="M41.068,53.006c0,2.689-2.18,4.869-4.873,4.869c-2.689,0-4.87-2.18-4.87-4.869c0-2.691,2.181-4.87,4.87-4.87  C38.889,48.136,41.068,50.314,41.068,53.006z"/>
<path fill="#000000" d="M63.849,53.006c0,2.689-2.18,4.869-4.865,4.869c-2.693,0-4.874-2.18-4.874-4.869  c0-2.691,2.181-4.87,4.874-4.87C61.669,48.136,63.849,50.314,63.849,53.006z"/>
<g>
	<path fill="#000000" d="M46.754,84.232c-2.972,0-5.765-1.154-7.857-3.256c-1.197-1.201-1.193-3.145,0.004-4.342   c1.201-1.197,3.146-1.191,4.345,0.006c1.953,1.959,5.466,1.832,7.272-0.281c1.102-1.287,3.043-1.439,4.328-0.338   c1.289,1.102,1.44,3.039,0.338,4.328C53.075,82.818,50,84.232,46.754,84.232z"/>
</g>
</svg>