<svg xmlns="http://www.w3.org/2000/svg" xmlns:xlink="http://www.w3.org/1999/xlink" version="1.1" id="Layer_1" x="0px" y="0px" width="100px" height="70.7491082045px" viewBox="0 0 841.89 595.28" enable-background="new 0 0 841.89 595.28" xml:space="preserve">
<path d="M469.812,285.196h-16.281c-1.182,0-2.256,0.37-3.029,1.043c-0.943,0.823-1.938,1.672-3.02,2.596  c-2.896,2.475-6.486,5.541-11.486,10.131c0.04-0.095,0.074-0.192,0.102-0.292c0.43-1.616,4.17-13.613,4.17-13.613  c0.336,0,0.609-0.272,0.609-0.609c0-0.336-0.273-0.608-0.609-0.608l-65.261-7.792c-0.336,0-0.609,0.272-0.609,0.608  s0.273,0.608,0.609,0.608c5.553,5.554,10.424,14.729,13.278,19.575c2.467,4.189,7.561,5.749,11.937,6.33h-7.494  c-1.809-3.31-5.321-5.554-9.358-5.554s-7.549,2.244-9.358,5.554h-1.934c-0.625,0-1.132,0.508-1.132,1.133  c0,0.624,0.508,1.132,1.132,1.132h1.02c-0.249,0.904-0.385,1.855-0.385,2.839c0,5.886,4.771,10.657,10.658,10.657  s10.657-4.771,10.657-10.657c0-0.983-0.136-1.935-0.385-2.839h28.656c0.449,0,0.83,0.781,0.924,1.042  c0.031,0.1,3.03,10.001,3.28,10.999c0.361,1.447,1.264,1.751,1.956,1.751h1.654c0.561,0,1.566-0.243,1.982-1.876  c0.385-1.51,3.217-12.044,3.838-14.292c0.242-0.875,1.152-2.054,1.277-2.213c1.822-1.646,4.787-4.224,7.654-6.717  c2.844-2.47,5.527-4.804,6.922-6.075c0.604-0.551,1.619-0.597,2.523-0.597l15.504,0.001c0.625,0,1.133-0.508,1.133-1.133  C470.945,285.704,470.438,285.196,469.812,285.196z M430.164,316.328c-0.125,0.559-0.438,0.635-0.726,0.635l-0.538,0.002  c-0.16,0-0.381,0-0.558-0.785c-0.229-1.018-2.853-10.493-2.97-10.917c-0.03-0.085-0.768-2.09-2.781-2.09h-12.466  c6.879-0.633,20.908-1.913,21.879-1.913c0.661,0,1.602-0.255,2.422-0.719c-0.398,0.531-0.795,1.223-1.001,2.052  C432.898,304.715,430.5,314.836,430.164,316.328z"/>
</svg>