<svg xmlns="http://www.w3.org/2000/svg" xmlns:xlink="http://www.w3.org/1999/xlink" version="1.1" x="0px" y="0px" width="100px" height="100px" viewBox="0 0 100 100" enable-background="new 0 0 100 100" xml:space="preserve">
<g id="&#12524;&#12452;&#12516;&#12540;_3" display="none">
	<path display="inline" d="M61.549,4.018c1.271,0,2.303,1.145,2.303,2.557c0,0-24.986,15.756-24.985,43.705   C38.865,77.986,63.85,93.982,63.85,93.982c0.002,1.414-1.028,2.559-2.299,2.559l0,0c-1.271,0-25.584-18.555-25.583-46.261   C35.966,22.331,60.279,4.018,61.549,4.018L61.549,4.018z"/>
	<rect x="61.194" y="6.493" display="inline" width="1.244" height="87.394"/>
</g>
<g id="&#12524;&#12452;&#12516;&#12540;_1" display="none">
	<rect x="60.5" y="6.762" display="inline" width="3.5" height="87.396"/>
	<path display="inline" d="M61.588,97.941c-2.367,0-27.92-20.541-27.92-47.771c0-27.771,25.553-47.771,27.92-47.771l0,0   c2.369,0,4.289,1.962,4.289,4.382c0,0-25.633,15.492-25.633,43.639c0,26.854,25.633,43.139,25.633,43.139   C65.877,95.98,63.957,97.941,61.588,97.941L61.588,97.941z"/>
</g>
<g id="&#12524;&#12452;&#12516;&#12540;_4" display="none">
	<path display="inline" d="M75.99,32.014c0,17.463-16.975,35.42-26.028,35.42c-9.053,0-26.027-18.106-26.027-35.42   c0-15.438,11.652-27.952,26.027-27.952S75.99,16.577,75.99,32.014z"/>
	<g display="inline">
		<path d="M51.123,66.397c-0.934-0.582-1.525-0.175-1.314,0.904l1.971,10.109c0.211,1.079,1.077,1.391,1.926,0.69l5.426-4.473    c0.849-0.7,0.779-1.749-0.154-2.331L51.123,66.397z"/>
	</g>
	<path display="inline" d="M37.418,96.938c-0.522,0-1.029-0.272-1.305-0.758c-0.41-0.72-0.158-1.636,0.562-2.046   c5.019-2.856,4.865-5.358,4.56-10.344c-0.077-1.263-0.165-2.694-0.165-4.258c0-8.365,7.784-13.18,8.115-13.381   c0.709-0.427,1.631-0.203,2.06,0.506c0.43,0.708,0.204,1.629-0.503,2.059c-0.107,0.066-6.672,4.182-6.672,10.816   c0,1.472,0.081,2.795,0.16,4.075c0.32,5.226,0.573,9.353-6.07,13.134C37.924,96.874,37.669,96.938,37.418,96.938L37.418,96.938z"/>
</g>
<g id="&#12524;&#12452;&#12516;&#12540;_5" display="none">
	<path display="inline" d="M57.843,46.789c0,12.554,12.13,25.464,18.6,25.464c6.468,0,18.598-13.017,18.598-25.464   c0-11.1-8.326-20.097-18.598-20.097C66.17,26.692,57.843,35.689,57.843,46.789z"/>
	<g display="inline">
		<path d="M75.843,71.067c-0.953-0.55-1.547-0.119-1.32,0.957l1.544,7.32c0.227,1.076,1.128,1.411,2.002,0.744l4.182-3.19    c0.874-0.667,0.811-1.663-0.143-2.213L75.843,71.067z"/>
	</g>
	<path display="inline" d="M59.819,93.871c-0.414,0-0.818-0.205-1.057-0.581c-0.37-0.583-0.196-1.355,0.387-1.725   C75.384,81.273,73.82,62.431,73.803,62.241c-0.064-0.688,0.44-1.297,1.128-1.36c0.679-0.066,1.296,0.44,1.36,1.128   c0.02,0.204,1.71,20.565-15.804,31.668C60.28,93.809,60.049,93.871,59.819,93.871L59.819,93.871z"/>
	<path display="inline" d="M42.699,46.789c0,12.554-12.204,25.464-18.713,25.464c-6.508,0-18.713-13.017-18.713-25.464   c0-11.1,8.378-20.097,18.713-20.097S42.699,35.689,42.699,46.789z"/>
	<g display="inline">
		<path d="M24.597,71.063c0.954-0.547,1.548-0.114,1.32,0.961l-1.552,7.322c-0.229,1.075-1.132,1.412-2.009,0.748l-4.22-3.2    c-0.876-0.664-0.813-1.656,0.141-2.203L24.597,71.063z"/>
	</g>
	<path display="inline" fill="#000000" d="M50.309,3.7C36.497,3.7,25.26,15.708,25.26,30.469c0,16.586,16.07,33.444,25.049,33.444   c4.617,0,10.77-4.078,16.057-10.642c5.715-7.093,8.993-15.404,8.993-22.802C75.359,15.708,64.121,3.7,50.309,3.7z M50.309,62.125   c-8.091,0-23.262-16.181-23.262-31.656c0-13.797,10.415-24.981,23.262-24.981c12.847,0,23.263,11.185,23.263,24.981   C73.572,46.077,58.401,62.125,50.309,62.125z"/>
	<path display="inline" d="M73.572,30.469c0,15.608-15.171,31.656-23.263,31.656c-8.091,0-23.262-16.181-23.262-31.656   c0-13.797,10.415-24.981,23.262-24.981C63.156,5.488,73.572,16.672,73.572,30.469z"/>
	<g display="inline">
		<path d="M51.526,60.311c-0.933-0.582-1.524-0.175-1.314,0.904l2.133,10.936c0.211,1.079,1.077,1.391,1.926,0.69l5.926-4.885    c0.849-0.7,0.779-1.749-0.154-2.331L51.526,60.311z"/>
	</g>
	<path display="inline" d="M52.331,93.678c-0.508,0-1.004-0.258-1.285-0.725c-10.84-17.962-0.436-34.984,0.013-35.7   c0.441-0.703,1.368-0.915,2.067-0.476c0.702,0.439,0.915,1.364,0.477,2.065l0,0c-0.1,0.16-9.856,16.209,0.012,32.56   c0.428,0.71,0.2,1.632-0.509,2.06C52.862,93.608,52.596,93.678,52.331,93.678L52.331,93.678z"/>
	<path display="inline" d="M40.71,93.871c-0.228,0-0.458-0.063-0.666-0.192c-17.62-11.103-15.918-31.467-15.899-31.671   c0.065-0.687,0.672-1.194,1.36-1.127c0.687,0.064,1.192,0.673,1.129,1.36c-0.018,0.188-1.551,19.055,14.743,29.322   c0.584,0.368,0.759,1.14,0.391,1.724C41.531,93.665,41.125,93.871,40.71,93.871L40.71,93.871z"/>
</g>
<g id="&#12524;&#12452;&#12516;&#12540;_6" display="none">
	<path display="inline" d="M87.529,67.603c-0.898-8.087-4.992-9.737-11.518-18.696c-5.868-8.058-7.357-13.994-7.932-22.381   c0,0-2.219-1.054-5.283-1.054c0,0,0.901,9.681-12.797,9.681c-13.699,0-12.798-9.681-12.798-9.681c-3.064,0-5.283,1.054-5.283,1.054   c-0.574,8.387-2.063,14.323-7.932,22.381c-6.525,8.959-10.619,10.609-11.517,18.696C10.49,85.424,35.159,87.111,50,87.111l0,0   c0,0,0,0,0,0l0,0l0,0C64.84,87.111,89.51,85.424,87.529,67.603z"/>
	<path display="inline" d="M50,12.08c-8.463,0-29.733,1.889-39.367,8.702C1,27.596,4.11,43.405,14.959,41.199   c12.217-2.484,14.749-8.591,8.26-14.516c0,0,11.269-5.012,26.781-5.012"/>
	<path display="inline" d="M50,12.08c8.463,0,29.734,1.889,39.367,8.702c9.633,6.813,6.523,22.623-4.326,20.417   c-12.217-2.484-14.749-8.591-8.26-14.516c0,0-11.27-5.012-26.781-5.012"/>
	<circle display="inline" fill="#000000" cx="50" cy="56.698" r="14.596"/>
</g>
<g id="&#12524;&#12452;&#12516;&#12540;_2">
	<path d="M50,12.08c-8.463,0-29.733,1.889-39.367,8.702C1,27.596,4.11,43.405,14.959,41.199c12.217-2.484,14.749-8.591,8.26-14.516   c0,0,11.269-5.012,26.781-5.012"/>
	<path d="M50,12.08c8.463,0,29.734,1.889,39.367,8.702c9.633,6.813,6.523,22.623-4.326,20.417   c-12.217-2.484-14.749-8.591-8.26-14.516c0,0-11.27-5.012-26.781-5.012"/>
	<path d="M87.529,67.603c-0.898-8.087-4.992-9.737-11.518-18.696c-5.868-8.058-7.357-13.994-7.932-22.381   c0,0-2.219-1.054-5.283-1.054c0,0,0.901,9.681-12.797,9.681c-13.699,0-12.798-9.681-12.798-9.681c-3.064,0-5.283,1.054-5.283,1.054   c-0.574,8.387-2.063,14.323-7.932,22.381c-6.525,8.959-10.619,10.609-11.517,18.696C10.49,85.424,35.159,87.111,50,87.111   c0,0,0,0,0,0C64.84,87.111,89.51,85.424,87.529,67.603z M50,71.295c-8.061,0-14.596-6.536-14.596-14.597S41.939,42.102,50,42.102   c8.061,0,14.596,6.536,14.596,14.596S58.061,71.295,50,71.295z"/>
</g>
</svg>