<svg xmlns="http://www.w3.org/2000/svg" xmlns:xlink="http://www.w3.org/1999/xlink" version="1.1" id="flower" x="0px" y="0px" width="100px" height="100px" viewBox="0 0 100 100" enable-background="new 0 0 100 100" xml:space="preserve">
<path d="M81.535,41.094c-1.393-4.28-5.746-5.868-10.025-4.478c-2.91,0.946-12.378,5.412-17.703,9.519  c2.24-6.343,3.549-16.646,3.549-19.693c0-4.501-2.854-8.15-7.354-8.15s-7.355,3.649-7.355,8.15c0,3.022,1.289,13.184,3.497,19.538  c-5.36-4.063-14.627-8.428-17.501-9.362c-4.281-1.391-8.633,0.195-10.024,4.476c-1.391,4.281,1.198,8.124,5.479,9.514  c2.955,0.961,13.503,2.959,20.216,2.699C38.727,57.036,31.35,64.87,29.521,67.386c-2.646,3.644-2.482,8.271,1.16,10.919  c3.642,2.646,8.095,1.37,10.742-2.271c1.776-2.443,6.707-11.423,8.655-17.861c1.947,6.438,6.879,15.416,8.654,17.861  c2.646,3.643,7.101,4.916,10.742,2.271s3.805-7.277,1.159-10.919c-1.827-2.516-9.204-10.35-14.792-14.079  c6.715,0.26,17.262-1.738,20.215-2.697C80.336,49.217,82.926,45.375,81.535,41.094z"/>
</svg>