<?xml version="1.0" encoding="utf-8"?>
<!-- Generator: Adobe Illustrator 15.1.0, SVG Export Plug-In . SVG Version: 6.00 Build 0)  -->
<!DOCTYPE svg PUBLIC "-//W3C//DTD SVG 1.1//EN" "http://www.w3.org/Graphics/SVG/1.1/DTD/svg11.dtd">
<svg version="1.1" id="Layer_1" xmlns="http://www.w3.org/2000/svg" xmlns:xlink="http://www.w3.org/1999/xlink" x="0px" y="0px"
	 width="100px" height="70.062px" viewBox="0 0 100 70.062" enable-background="new 0 0 100 70.062" xml:space="preserve">
<path d="M93.004,59.239l6.864-8.548C99.943,50.551,100,50.4,100,50.235c0-0.503-0.409-0.912-0.912-0.912
	c-0.125,0-0.257,0.038-0.372,0.095L87.08,55.094c-13.616-5.266-24.823-7.084-33.78-7.143v-0.049
	c-19.102-0.179-28.012,7.698-28.012,7.698c-0.078,0.082-0.134,0.199-0.134,0.335c0,0.176,0.086,0.328,0.231,0.408l7.305,3.494
	c0.308,0.157,0.44,0.356,0.44,0.652c0,0.397-0.313,0.716-0.71,0.716l-8.075-0.01c-0.161,0-0.286,0.123-0.286,0.273
	c0,0.081,0.033,0.133,0.07,0.188c8.215,6.589,18.928,8.549,29.168,8.396v-0.026c17.539-0.218,33.78-6.661,33.78-6.661l11.637,5.678
	c0.114,0.055,0.246,0.095,0.371,0.095c0.504,0,0.913-0.41,0.913-0.895c0-0.182-0.058-0.333-0.133-0.486L93.004,59.239z
	 M36.164,57.588c-0.947,0-1.722-0.779-1.722-1.731c0-0.961,0.774-1.729,1.722-1.729c0.959,0,1.732,0.768,1.732,1.729
	C37.896,56.807,37.123,57.588,36.164,57.588z"/>
<path d="M20,15c0-1.477-0.81-2.752-2-3.445V0h-4v11.555c-1.19,0.693-2,1.969-2,3.445s0.81,2.752,2,3.445V50c0,2.757-2.243,5-5,5
	s-5-2.243-5-5c0-0.96,0.285-1.85,0.756-2.611L6.875,50V37.041l-5.529,8.248C0.498,46.662,0,48.271,0,50c0,4.963,4.037,9,9,9
	s9-4.037,9-9V18.445C19.19,17.752,20,16.477,20,15z"/>
</svg>
