<svg xmlns="http://www.w3.org/2000/svg" xmlns:xlink="http://www.w3.org/1999/xlink" version="1.1" id="Layer_1" x="0px" y="0px" width="100px" height="100px" viewBox="0 0 100 100" enable-background="new 0 0 100 100" xml:space="preserve">
<rect x="62.925" y="33.968" width="3.521" height="18.682"/>
<rect x="35.375" y="33.968" width="3.521" height="18.682"/>
<path d="M61.159,61.709V44.996c0-2.311-1.65-3.987-3.925-3.987h-12.34c-2.275,0-3.925,1.676-3.925,3.987v16.713H61.159z   M43.59,44.996c0-0.855,0.487-1.366,1.304-1.366h12.34c0.817,0,1.304,0.511,1.304,1.366v4.989h-5.032v3.222h-4.776v-5.143H45.6  v5.143h-2.01V44.996z"/>
<path d="M88.211,78.739c-2.174-6.036-4.175-12.527-4.918-14.985H19.289c-0.693,2.384-2.674,8.598-6.126,14.985  C6.372,91.304,0,100,0,100h99.885C99.885,100,92.373,90.295,88.211,78.739z M23.895,81.072c-2.051,6.521-7.716,12.558-7.957,12.811  c-0.178,0.187-0.418,0.282-0.658,0.282c-0.224,0-0.446-0.082-0.622-0.248c-0.363-0.343-0.379-0.915-0.036-1.278  c0.057-0.061,5.62-5.991,7.545-12.109c1.698-5.399,1.198-10.917,1.193-10.972c-0.047-0.498,0.317-0.94,0.815-0.987  c0.495-0.049,0.94,0.317,0.988,0.815C25.186,69.625,25.702,75.328,23.895,81.072z M86.989,93.932  c-0.174,0.156-0.391,0.233-0.607,0.233c-0.246,0-0.491-0.101-0.671-0.298c-0.167-0.186-4.138-4.63-6.834-12.781  c-1.898-5.729-1.299-11.472-1.273-11.714c0.054-0.496,0.501-0.855,0.999-0.801c0.497,0.055,0.856,0.501,0.803,0.999  c-0.008,0.055-0.579,5.602,1.188,10.947c2.571,7.762,6.422,12.094,6.461,12.135C87.389,93.023,87.36,93.598,86.989,93.932z"/>
<rect x="35.375" y="54.646" width="3.521" height="7.062"/>
<rect x="62.925" y="54.646" width="3.521" height="7.062"/>
<path d="M70.38,56.654v5.055h2.972v-5.055c0-2.413-1.725-4.164-4.101-4.164h-2.806v2.972l2.806,0.001  C69.968,55.463,70.38,55.896,70.38,56.654z"/>
</svg>