<svg xmlns="http://www.w3.org/2000/svg" xmlns:xlink="http://www.w3.org/1999/xlink" version="1.1" id="Layer_1" x="0px" y="0px" width="100px" height="100px" viewBox="0 0 100 100" enable-background="new 0 0 100 100" xml:space="preserve">
<path fill="none" stroke="#000000" stroke-width="3.0096" d="M19.419,64.03"/>
<path fill="none" stroke="#000000" stroke-width="3.0096" d="M19.419,77.879"/>
<path d="M99.939,62.483c-0.261-1.006-1.288-1.61-2.291-1.351l-30.188,7.829l3.741-8.14l3.117,0.437  c0.09,0.014,0.176,0.02,0.263,0.02c0.924,0,1.729-0.683,1.862-1.623c0.143-1.027-0.576-1.979-1.604-2.122L4.216,47.679  c-1.029-0.144-1.979,0.575-2.124,1.604c-0.143,1.028,0.575,1.979,1.604,2.123l4.528,0.631l22.389,26.48l-1.79,0.464  c-2.308-2.705-5.738-4.422-9.572-4.422c-6.1,0-11.186,4.342-12.337,10.104L1.41,86.09c-1.005,0.26-1.609,1.287-1.349,2.292  C0.28,89.229,1.044,89.79,1.88,89.79c0.156,0,0.315-0.018,0.474-0.059l4.401-1.142c0.72,6.266,6.039,11.129,12.496,11.129  c6.947,0,12.579-5.63,12.579-12.58c0-1.7-0.34-3.323-0.952-4.804l2.429-0.629l13.001,15.377c0.38,0.542,1.903,2.494,4.103,2.494  c2.391,0,3.75-1.641,4.189-2.633l10.834-23.57l33.156-8.597C99.597,64.515,100.201,63.489,99.939,62.483z M19.25,80.083  c1.034,0,2.013,0.229,2.898,0.63l-8.55,2.217C14.885,81.205,16.934,80.083,19.25,80.083z M19.25,94.195  c-3.883,0-7.032-3.139-7.055-7.016l4.788-1.241c-0.19,0.357-0.299,0.768-0.299,1.2c0,1.415,1.147,2.566,2.566,2.566  c1.416,0,2.565-1.151,2.565-2.566c0-0.901-0.467-1.693-1.17-2.151l4.79-1.241c0.554,1.008,0.871,2.163,0.871,3.393  C26.306,91.035,23.145,94.195,19.25,94.195z M51.178,95.384L51.178,95.384l0.01-0.038l-0.021,0.06  c-0.096,0.165-0.311,0.409-0.752,0.409c-0.197-0.014-0.726-0.446-1.032-0.899l-0.062-0.099L37.361,80.653l23.419-6.072  L51.178,95.384z"/>
</svg>