<svg xmlns="http://www.w3.org/2000/svg" xmlns:xlink="http://www.w3.org/1999/xlink" xml:space="preserve" width="56px" height="100px" style="shape-rendering:geometricPrecision; text-rendering:geometricPrecision; image-rendering:optimizeQuality; fill-rule:evenodd; clip-rule:evenodd" viewBox="0 0 52.0441 92.6868">
 <defs>
  <style type="text/css">
   
    .fil1 {fill:none}
    .fil0 {fill:black}
    .fil2 {fill:black;fill-rule:nonzero}
   
  </style>
 </defs>
 <g id="Layer_x0020_1">
  <metadata id="CorelCorpID_0Corel-Layer"/>
  <path class="fil0" d="M-0 0l52.0441 0 0 88.1989 0 4.48788 -3.51697 0 0 -4.48788 -45.0102 0 0 4.48788 -3.51697 0 0 -4.48788 0 -88.1989zm10.5936 72.0776l23.6041 0 0 11.7451 -23.6041 0 0 -11.7451zm37.0228 -45.0091l0.599844 0c0.143393,0 0.261611,0.117123 0.261611,0.260516l0 0.600938c0,0.143393 -0.118217,0.260516 -0.261611,0.260516l-0.599844 0c-0.143393,0 -0.261611,-0.117123 -0.261611,-0.260516l0 -0.600938c0,-0.143393 0.118217,-0.260516 0.261611,-0.260516zm-1.7853 0l0.600938 0c0.143393,0 0.260516,0.117123 0.260516,0.260516l0 0.600938c0,0.143393 -0.117123,0.260516 -0.260516,0.260516l-0.600938 0c-0.143393,0 -0.260516,-0.117123 -0.260516,-0.260516l0 -0.600938c0,-0.143393 0.117123,-0.260516 0.260516,-0.260516zm-1.71196 0l0.599844 0c0.143393,0 0.261611,0.117123 0.261611,0.260516l0 0.600938c0,0.143393 -0.118217,0.260516 -0.261611,0.260516l-0.599844 0c-0.144488,0 -0.261611,-0.117123 -0.261611,-0.260516l0 -0.600938c0,-0.143393 0.117123,-0.260516 0.261611,-0.260516zm3.49726 -1.5828l0.599844 0c0.143393,0 0.261611,0.117123 0.261611,0.260516l0 0.600938c0,0.143393 -0.118217,0.260516 -0.261611,0.260516l-0.599844 0c-0.143393,0 -0.261611,-0.117123 -0.261611,-0.260516l0 -0.600938c0,-0.143393 0.118217,-0.260516 0.261611,-0.260516zm-1.7853 0l0.600938 0c0.143393,0 0.260516,0.117123 0.260516,0.260516l0 0.600938c0,0.143393 -0.117123,0.260516 -0.260516,0.260516l-0.600938 0c-0.143393,0 -0.260516,-0.117123 -0.260516,-0.260516l0 -0.600938c0,-0.143393 0.117123,-0.260516 0.260516,-0.260516zm-1.71196 0l0.599844 0c0.143393,0 0.261611,0.117123 0.261611,0.260516l0 0.600938c0,0.143393 -0.118217,0.260516 -0.261611,0.260516l-0.599844 0c-0.144488,0 -0.261611,-0.117123 -0.261611,-0.260516l0 -0.600938c0,-0.143393 0.117123,-0.260516 0.261611,-0.260516zm3.49726 -1.55543l0.599844 0c0.143393,0 0.261611,0.118217 0.261611,0.261611l0 0.599844c0,0.143393 -0.118217,0.261611 -0.261611,0.261611l-0.599844 0c-0.143393,0 -0.261611,-0.118217 -0.261611,-0.261611l0 -0.599844c0,-0.143393 0.118217,-0.261611 0.261611,-0.261611zm-1.7853 0l0.600938 0c0.143393,0 0.260516,0.118217 0.260516,0.261611l0 0.599844c0,0.143393 -0.117123,0.261611 -0.260516,0.261611l-0.600938 0c-0.143393,0 -0.260516,-0.118217 -0.260516,-0.261611l0 -0.599844c0,-0.143393 0.117123,-0.261611 0.260516,-0.261611zm-1.71196 0l0.599844 0c0.143393,0 0.261611,0.118217 0.261611,0.261611l0 0.599844c0,0.143393 -0.118217,0.261611 -0.261611,0.261611l-0.599844 0c-0.144488,0 -0.261611,-0.118217 -0.261611,-0.261611l0 -0.599844c0,-0.143393 0.117123,-0.261611 0.261611,-0.261611zm3.49726 -1.62658l0.599844 0c0.143393,0 0.261611,0.118217 0.261611,0.261611l0 0.599844c0,0.144488 -0.118217,0.261611 -0.261611,0.261611l-0.599844 0c-0.143393,0 -0.261611,-0.117123 -0.261611,-0.261611l0 -0.599844c0,-0.143393 0.118217,-0.261611 0.261611,-0.261611zm-1.7853 0l0.600938 0c0.143393,0 0.260516,0.118217 0.260516,0.261611l0 0.599844c0,0.144488 -0.117123,0.261611 -0.260516,0.261611l-0.600938 0c-0.143393,0 -0.260516,-0.117123 -0.260516,-0.261611l0 -0.599844c0,-0.143393 0.117123,-0.261611 0.260516,-0.261611zm-1.71196 0l0.599844 0c0.143393,0 0.261611,0.118217 0.261611,0.261611l0 0.599844c0,0.144488 -0.118217,0.261611 -0.261611,0.261611l-0.599844 0c-0.144488,0 -0.261611,-0.117123 -0.261611,-0.261611l0 -0.599844c0,-0.143393 0.117123,-0.261611 0.261611,-0.261611zm-0.800156 -2.55809l0.385301 0c0.0295543,0 0.052541,0.0240813 0.052541,0.052541l0 1.39234c0,0.0284597 -0.0229867,0.052541 -0.052541,0.052541l-0.385301 0c-0.0284597,0 -0.052541,-0.0240813 -0.052541,-0.052541l0 -1.39234c0,-0.0284597 0.0240813,-0.052541 0.052541,-0.052541zm1.06505 0.374355l4.27115 0c0.0284597,0 0.052541,0.0240813 0.052541,0.052541l0 0.585614c0,0.0295543 -0.0240813,0.052541 -0.052541,0.052541l-4.27115 0c-0.0284597,0 -0.052541,-0.0229867 -0.052541,-0.052541l0 -0.585614c0,-0.0284597 0.0240813,-0.052541 0.052541,-0.052541zm0.240813 15.1833l3.33088 0c0.286787,0 0.522127,0.234246 0.522127,0.522127l0 3.33088c0,0.286787 -0.23534,0.522127 -0.522127,0.522127l-3.33088 0c-0.287881,0 -0.522127,-0.23534 -0.522127,-0.522127l0 -3.33088c0,-0.287881 0.234246,-0.522127 0.522127,-0.522127zm0 -5.64269l3.33088 0c0.286787,0 0.522127,0.23534 0.522127,0.522127l0 3.33088c0,0.287881 -0.23534,0.523221 -0.522127,0.523221l-3.33088 0c-0.287881,0 -0.522127,-0.23534 -0.522127,-0.523221l0 -3.33088c0,-0.286787 0.234246,-0.522127 0.522127,-0.522127zm-40.2453 -21.37l36.0355 0 0 61.2541 -36.0355 0 0 -61.2541z"/>
  <line class="fil1" x1="28.0996" y1="59.1371" x2="28.0996" y2="65.8153"/>
  <line class="fil1" x1="16.4694" y1="59.1371" x2="16.4694" y2="65.8153"/>
  <polygon class="fil0" points="8.17561,54.3066 36.5007,54.3066 36.5007,55.6125 8.17561,55.6125 "/>
  <polygon class="fil0" points="8.17561,42.7925 36.5007,42.7925 36.5007,44.0984 8.17561,44.0984 "/>
  <polygon class="fil0" points="8.17561,30.7803 36.5007,30.7803 36.5007,32.0851 8.17561,32.0851 "/>
  <polygon class="fil0" points="8.17561,19.2661 36.5007,19.2661 36.5007,20.5709 8.17561,20.5709 "/>
  <line class="fil1" x1="9.44206" y1="19.9185" x2="37.7672" y2="19.9185"/>
  <path class="fil1" d="M28.0996 10.6625l0 6.67819m-11.6302 -6.67819l0 6.67819m11.6302 28.44l0 6.67819m-11.6302 -6.67819l0 6.67819m11.6302 -18.6532l0 6.67819m-11.6302 -6.67819l0 6.67819m11.6302 -18.1923l0 6.67819m-11.6302 -6.67819l0 6.67819"/>
  <path class="fil2" d="M28.4258 10.6625l0 6.67819 -0.653479 0 0 -6.67819 0.653479 0zm-11.6302 0l0 6.67819 -0.652385 0 0 -6.67819 0.652385 0zm11.6302 35.1182l0 6.67819 -0.653479 0 0 -6.67819 0.653479 0zm-11.6302 0l0 6.67819 -0.652385 0 0 -6.67819 0.652385 0zm11.6302 -11.975l0 6.67819 -0.653479 0 0 -6.67819 0.653479 0zm-11.6302 0l0 6.67819 -0.652385 0 0 -6.67819 0.652385 0zm11.6302 -11.5142l0 6.67819 -0.653479 0 0 -6.67819 0.653479 0zm-11.6302 0l0 6.67819 -0.652385 0 0 -6.67819 0.652385 0z"/>
 </g>
</svg>