<svg xmlns="http://www.w3.org/2000/svg" xmlns:xlink="http://www.w3.org/1999/xlink" version="1.1" x="0px" y="0px" width="100px" height="100px" viewBox="-346 256 100 100" enable-background="new -346 256 100 100" xml:space="preserve">
<g id="Layer_1">
	<circle cx="-277.452" cy="264.202" r="8.134"/>
	<path d="M-330.34,283.104l0.617-2.033c0.395-1.382,1.71-4.979,4.993-7.046l-5.413-0.024c-2.518-0.01-4.568,2.021-4.58,4.539   C-334.734,281.003-332.781,283.01-330.34,283.104z"/>
	<circle cx="-312.107" cy="264.296" r="7.924"/>
	<path d="M-268.399,274.033l-18.233-0.008l-13.469-0.041c2.334,1.419,4.156,3.806,5.234,7.041l1.285,4.222h6.039l-0.01,65.954   c0,2.516,2.043,4.559,4.559,4.559c2.522,0,4.562-2.043,4.562-4.559l0.007-38.256h2.029l-0.013,38.256   c0,2.516,2.043,4.559,4.562,4.559c2.516,0,4.559-2.043,4.559-4.559l0.02-65.956h2v25.933c0,4.888,6.778,4.979,6.765,0.092v-26.142   C-258.505,279.727-262.081,274.033-268.399,274.033z"/>
</g>
<g id="Layer_2">
	<path d="M-305.461,274.351c5.677,0,7.98,4.68,8.838,7.258l6.976,22.923c1.39,4.931-4.884,6.972-6.378,2.167l-6.275-21.047h-1.828   l9.476,37.438h-8.619v29.187c0,4.977-7.486,4.952-7.486,0v-29.378h-3.053l0.007,29.338c0,5.017-7.519,5.017-7.519,0V323.09h-10.053   l10.792-37.438h-1.689l-6.276,21.122c-1.494,4.605-7.82,2.713-6.371-2.22l6.967-22.944c0.747-2.616,3.033-7.258,8.762-7.258   H-305.461z"/>
</g>
</svg>