<svg xmlns="http://www.w3.org/2000/svg" xmlns:xlink="http://www.w3.org/1999/xlink" version="1.1" x="0px" y="0px" width="100px" height="100px" viewBox="-346 256 100 100" enable-background="new -346 256 100 100" xml:space="preserve">
<g id="Layer_1">
	<circle cx="-296.002" cy="273.726" r="7.309"/>
	<circle cx="-268.652" cy="273.726" r="7.309"/>
	<path d="M-341.76,292.038c0-1.976,0.4-3.782,1.118-5.342h-1.262c-2.261,0-4.096,1.833-4.096,4.096s1.835,4.099,4.096,4.099h0.144   V292.038z"/>
	<circle cx="-323.432" cy="273.726" r="7.309"/>
</g>
<g id="Layer_2">
	<path d="M-332.508,351.904c0,2.26,1.835,4.096,4.098,4.096c2.265,0,4.099-1.836,4.099-4.096l0.004-34.378h1.824l-0.012,34.378   c0,2.26,1.835,4.096,4.099,4.096c2.262,0,4.096-1.836,4.096-4.096l0.018-59.268h1.799v21.841c0,4.393,5.731,4.393,5.719,0V292.17   c0-4.855-2.854-9.612-8.533-9.612l-16.383-0.006c-5.175,0-8.418,4.22-8.418,9.485v22.44c0,4.362,5.764,4.362,5.764,0v-21.841h1.835   L-332.508,351.904z"/>
	<circle cx="-323.432" cy="273.726" r="7.309"/>
	<path d="M-332.508,351.904c0,2.26,1.835,4.096,4.098,4.096c2.265,0,4.099-1.836,4.099-4.096l0.004-34.378h1.824l-0.012,34.378   c0,2.26,1.835,4.096,4.099,4.096c2.262,0,4.096-1.836,4.096-4.096l0.018-59.268h1.799v21.841c0,4.393,5.731,4.393,5.719,0V292.17   c0-4.855-2.854-9.612-8.533-9.612l-16.383-0.006c-5.175,0-8.418,4.22-8.418,9.485v22.44c0,4.362,5.764,4.362,5.764,0v-21.841h1.835   L-332.508,351.904z"/>
	<path d="M-332.508,351.904c0,2.26,1.835,4.096,4.098,4.096c2.265,0,4.099-1.836,4.099-4.096l0.004-34.378h1.824l-0.012,34.378   c0,2.26,1.835,4.096,4.099,4.096c2.262,0,4.096-1.836,4.096-4.096l0.018-59.268h1.799v21.841c0,4.393,5.731,4.393,5.719,0V292.17   c0-4.855-2.854-9.612-8.533-9.612l-16.383-0.006c-5.175,0-8.418,4.22-8.418,9.485v22.44c0,4.362,5.764,4.362,5.764,0v-21.841h1.835   L-332.508,351.904z"/>
	<path d="M-250.323,292.038c0-1.976-0.398-3.782-1.118-5.342h1.263c2.261,0,4.097,1.833,4.097,4.096s-1.836,4.099-4.097,4.099   h-0.145V292.038z"/>
	<path d="M-287.832,282.553l-8.209,0.003l-8.21-0.003c-1.576,0-2.971,0.395-4.152,1.089c2.182,2.175,3.302,5.362,3.302,8.529v0.466   h0.032l-0.009,59.268c0,2.26,1.836,4.096,4.096,4.096c2.267,0,4.099-1.836,4.099-4.096l0.006-34.378h0.835h0.835l0.006,34.378   c0,2.26,1.832,4.096,4.099,4.096c2.261,0,4.097-1.836,4.097-4.096l-0.01-59.268h0.033v-0.466c0-3.167,1.121-6.354,3.302-8.529   C-284.86,282.948-286.256,282.553-287.832,282.553z"/>
	<path d="M-259.574,351.904c0,2.26-1.836,4.096-4.1,4.096s-4.099-1.836-4.099-4.096l-0.003-34.378h-1.824l0.012,34.378   c0,2.26-1.836,4.096-4.099,4.096c-2.264,0-4.097-1.836-4.097-4.096l-0.018-59.268h-1.8v21.841c0,4.393-5.731,4.393-5.72,0V292.17   c0-4.855,2.854-9.612,8.535-9.612l16.381-0.006c5.177,0,8.42,4.22,8.42,9.485v22.44c0,4.362-5.764,4.362-5.764,0v-21.841h-1.836   L-259.574,351.904z"/>
	<path d="M-259.574,351.904c0,2.26-1.836,4.096-4.1,4.096s-4.099-1.836-4.099-4.096l-0.003-34.378h-1.824l0.012,34.378   c0,2.26-1.836,4.096-4.099,4.096c-2.264,0-4.097-1.836-4.097-4.096l-0.018-59.268h-1.8v21.841c0,4.393-5.731,4.393-5.72,0V292.17   c0-4.855,2.854-9.612,8.535-9.612l16.381-0.006c5.177,0,8.42,4.22,8.42,9.485v22.44c0,4.362-5.764,4.362-5.764,0v-21.841h-1.836   L-259.574,351.904z"/>
	<path d="M-259.574,351.904c0,2.26-1.836,4.096-4.1,4.096s-4.099-1.836-4.099-4.096l-0.003-34.378h-1.824l0.012,34.378   c0,2.26-1.836,4.096-4.099,4.096c-2.264,0-4.097-1.836-4.097-4.096l-0.018-59.268h-1.8v21.841c0,4.393-5.731,4.393-5.72,0V292.17   c0-4.855,2.854-9.612,8.535-9.612l16.381-0.006c5.177,0,8.42,4.22,8.42,9.485v22.44c0,4.362-5.764,4.362-5.764,0v-21.841h-1.836   L-259.574,351.904z"/>
</g>
</svg>