<svg xmlns="http://www.w3.org/2000/svg" xmlns:xlink="http://www.w3.org/1999/xlink" version="1.1" id="Layer_1" x="0px" y="0px" width="100px" height="100px" viewBox="0 0 100 100" enable-background="new 0 0 100 100" xml:space="preserve">
<g id="Layer_2">
</g>
<path d="M65.029,6.898h-1.101V6.724c0-0.248-0.202-0.45-0.45-0.45h-6.91c-0.248,0-0.451,0.202-0.451,0.45v0.174H35.709  c-3.754,0-6.808,3.054-6.808,6.808v0.81h-0.289c-0.248,0-0.45,0.202-0.45,0.451v3.46c0,0.248,0.202,0.45,0.45,0.45h0.289v5.99  h-0.289c-0.248,0-0.45,0.202-0.45,0.45v2.31c0,0.249,0.202,0.451,0.45,0.451h0.289v3.689h-0.289c-0.248,0-0.45,0.202-0.45,0.451  v2.31c0,0.248,0.202,0.45,0.45,0.45h0.289v51.941c0,3.754,3.054,6.808,6.808,6.808h29.32c3.753,0,6.807-3.054,6.807-6.808V13.706  C71.836,9.952,68.782,6.898,65.029,6.898z M46.956,13.604h6.248c0.47,0,0.854,0.333,0.854,0.743s-0.384,0.743-0.854,0.743h-6.248  c-0.471,0-0.854-0.333-0.854-0.743S46.485,13.604,46.956,13.604z M43.707,13.628c0.396,0,0.719,0.322,0.719,0.719  s-0.322,0.719-0.719,0.719s-0.719-0.322-0.719-0.719S43.311,13.628,43.707,13.628z M50.082,89.797c-2.329,0-4.217-1.889-4.217-4.217  c0-2.329,1.888-4.217,4.217-4.217c2.328,0,4.217,1.888,4.217,4.217C54.299,87.908,52.41,89.797,50.082,89.797z M69.249,77.912  H30.915V20.411h38.334V77.912z"/>
</svg>