<svg xmlns="http://www.w3.org/2000/svg" xmlns:xlink="http://www.w3.org/1999/xlink" version="1.1" id="Layer_1" x="0px" y="0px" width="100px" height="100px" viewBox="0 0 100 100" enable-background="new 0 0 100 100" xml:space="preserve">
<g id="Layer_2">
</g>
<path fill="#000000" d="M59.543,53.816l1.512-2.973c5.695-3.419,9.508-9.653,9.508-16.78c0-10.805-8.759-19.563-19.563-19.563  c-10.804,0-19.562,8.759-19.562,19.563c0,8.202,5.05,15.221,12.208,18.128l0.754,1.482c-18.322,1.16-32.271,7.062-32.271,14.174  c0,7.943,17.403,14.385,38.871,14.385s38.872-6.441,38.872-14.385C89.871,60.99,76.899,55.257,59.543,53.816z M50.999,72.808  c-11.648,0-21.091-2.729-21.091-6.093c0-3.069,7.848-5.604,18.058-6.03l4.041,7.944l3.985-7.834c9.238,0.648,16.1,3.051,16.1,5.92  C72.092,70.079,62.648,72.808,50.999,72.808z"/>
</svg>