<?xml version="1.0" encoding="utf-8"?>
<!-- Generator: Adobe Illustrator 15.1.0, SVG Export Plug-In . SVG Version: 6.00 Build 0)  -->
<!DOCTYPE svg PUBLIC "-//W3C//DTD SVG 1.1//EN" "http://www.w3.org/Graphics/SVG/1.1/DTD/svg11.dtd">
<svg version="1.1" id="Layer_1" xmlns="http://www.w3.org/2000/svg" xmlns:xlink="http://www.w3.org/1999/xlink" x="0px" y="0px"
	 width="100px" height="51px" viewBox="0 0 100 51" enable-background="new 0 0 100 51" xml:space="preserve">
<rect y="10" width="100" height="4"/>
<rect y="37" width="100" height="4"/>
<rect x="4" y="16" width="8" height="19"/>
<rect x="18" y="16" width="8" height="19"/>
<rect x="32" y="16" width="8" height="19"/>
<rect x="46" y="16" width="8" height="19"/>
<rect x="60" y="16" width="8" height="19"/>
<rect x="74" y="16" width="8" height="19"/>
<rect x="88" y="16" width="8" height="19"/>
<rect x="4" width="8" height="8"/>
<rect x="18" width="8" height="8"/>
<rect x="32" width="8" height="8"/>
<rect x="46" width="8" height="8"/>
<rect x="60" width="8" height="8"/>
<rect x="74" width="8" height="8"/>
<rect x="88" width="8" height="8"/>
<rect x="4" y="43" width="8" height="8"/>
<rect x="18" y="43" width="8" height="8"/>
<rect x="32" y="43" width="8" height="8"/>
<rect x="46" y="43" width="8" height="8"/>
<rect x="60" y="43" width="8" height="8"/>
<rect x="74" y="43" width="8" height="8"/>
<rect x="88" y="43" width="8" height="8"/>
</svg>
