<svg xmlns="http://www.w3.org/2000/svg" xmlns:xlink="http://www.w3.org/1999/xlink" version="1.1" id="Layer_1" x="0px" y="0px" width="36px" height="30px" viewBox="0 0 36 30" enable-background="new 0 0 36 30" xml:space="preserve">
<polygon fill="none" points="22.408,15.322 22.408,17.381 23.177,18.452 23.555,18.294 23.555,18.094 "/>
<polygon fill="none" points="23.555,20.251 23.178,20.409 23.555,20.489 "/>
<polygon points="5.843,17.062 4.7,15.347 11.111,12.627 11.7,12.5 12.704,12.659 12.704,6.308 4.126,7.841 4.126,25.465   12.704,26.976 12.704,14.585 11.584,14.436 "/>
<path d="M28.609,6.938c-0.08,0.44-0.211,0.862-0.396,1.253l-4.079,9.863l5.138-2.137l0.57,1.715l-6.287,2.619v0.236l0.004,0.002  h-0.004v4.976l8.578,1.511V6.308L28.609,6.938z"/>
<polygon points="18.414,15.347 13.839,14.737 13.839,26.976 22.408,25.465 22.408,20.247 22.368,20.239 "/>
<path d="M20.129,14.205l2.279,3.176v-2.059L19.29,7.78h0.009c-0.062-0.167-0.098-0.345-0.143-0.52l-5.317-0.951v6.529l5.692,0.896  L20.129,14.205z"/>
<ellipse fill="none" cx="23.843" cy="5.886" rx="1.65" ry="1.635"/>
<path d="M23.842,2.204c-2.052,0-3.714,1.649-3.714,3.682c0,0.458,0.085,0.898,0.24,1.302h-0.009l0.133,0.31l1.916,4.494l1.146,2.689  l0.283,0.667l3.346-7.854c0.051-0.102,0.074-0.215,0.115-0.321c0.153-0.403,0.258-0.831,0.258-1.286  C27.557,3.853,25.895,2.204,23.842,2.204z M22.191,5.886c0-0.904,0.738-1.635,1.649-1.635c0.912,0,1.651,0.731,1.651,1.635  c0,0.902-0.739,1.635-1.651,1.635C22.932,7.521,22.191,6.788,22.191,5.886z"/>
<polygon display="none" points="12.704,13.226 12.704,15.152 13.839,15.304 13.839,13.404 "/>
<polygon display="none" points="23.555,18.861 23.177,19.02 22.408,17.948 22.408,20.814 23.178,20.977 23.555,20.818 "/>
<polygon display="none" points="11.7,13.067 11.111,13.194 4.7,15.914 5.843,17.629 11.584,15.003 12.704,15.152 12.704,13.226 "/>
<polygon points="23.555,20.489 23.555,20.489 23.559,20.489 "/>
<polygon display="none" points="23.626,18.833 23.555,18.861 23.555,20.818 29.842,18.199 29.271,16.484 24.134,18.621   23.836,19.342 "/>
<polygon display="none" points="20.129,14.772 19.531,14.3 13.839,13.404 13.839,15.304 18.414,15.914 22.368,20.807 22.408,20.814   22.408,17.948 "/>
</svg>