<svg xmlns="http://www.w3.org/2000/svg" xmlns:xlink="http://www.w3.org/1999/xlink" version="1.1" id="Layer_1" x="0px" y="0px" width="100px" height="100px" viewBox="0 0 100 100" enable-background="new 0 0 100 100" xml:space="preserve">
<path fill="none" stroke="#000000" stroke-width="0.8374" d="M130.721,35.887c0.195-0.672,0.305-1.38,0.305-2.114  c0-4.201-3.404-7.606-7.605-7.606s-7.607,3.405-7.607,7.606c0,0.734,0.111,1.442,0.305,2.114l7.303,50.779L130.721,35.887z"/>
<path fill="none" stroke="#000000" stroke-width="0.5529" d="M152.84,52.313c0.127-0.443,0.199-0.911,0.199-1.396  c0-2.774-2.248-5.022-5.021-5.022s-5.023,2.248-5.023,5.022c0,0.485,0.074,0.953,0.201,1.396l4.822,33.53L152.84,52.313z"/>
<circle fill="none" stroke="#000000" stroke-width="0.8374" cx="123.418" cy="18.083" r="5.75"/>
<polygon fill="none" stroke="#000000" stroke-width="0.8374" points="114.348,54.999 105.24,54.999 109.795,86.666 "/>
<circle stroke="#000000" stroke-width="0.9748" cx="63.456" cy="8.142" r="7.474"/>
<path stroke="#000000" stroke-width="1.0357" stroke-linecap="round" stroke-linejoin="round" d="M61.816,54.224  c-0.585,0.352-3.729,2.107-8.172,2.107l-0.398-0.005c-2.691-0.063-5.3-0.779-7.784-2.11l-4.575,44.808l13.604-33.339l15.839,1.941  L64.38,93.48l14.433-30.154L62.27,53.952L61.816,54.224z"/>
<g id="FYwZh7_1_">
	
		</g>
<path fill="#000000" stroke="#DF3800" stroke-width="0.25" stroke-miterlimit="10" d="M137.138,10.429c0,0,0.709-3.001,1.625-4.584  c0,0,1.915-2.666,2.562-2.999s0.729-0.375,0.854-0.479s1.521-1.271,1.521-1.271s1-0.688,1.375-1.083s1.271-0.958,1.604-1.104  s1.813-0.875,3.042-1.062l0.479,1.5c0,0-0.937,0.479-2.416,0.542S146.137,0.2,146.137,0.2s-0.5,0.25-0.708,1.208  s-0.083,1.229-0.083,1.229s2.146,2.042,2.333,2.25s1.499,1.521,1.771,1.854s1.543,2.166,1.896,2.75s2.729,4.625,2.729,4.625  l2.584,4.479l2.833,4.938c0,0,0.062,0.291-0.125,0.312s-0.251,0.48-0.229,0.646s-1-0.293-1.688-1.271s-2.521-4.041-2.521-4.041  l-4.667-7.562c0,0-1.521-2.458-2.271-3.229c-0.75-0.771-4.479-4.396-4.479-4.396s-1.067,0.703-1.224,0.843  c0,0-2.442,2.302-2.942,2.99s-1.438,2.229-1.584,3.167L137.138,10.429z"/>
<path stroke="#000000" stroke-width="1.0357" stroke-linecap="round" stroke-linejoin="round" d="M75.282,36.321  c0.068-0.217,0.213-0.576,0.404-1.037l-9.27,1.177l1.236-3.029c0.483-0.835,0.868-1.749,1.112-2.732  c1.405-5.627-2.017-11.33-7.648-12.733c-5.63-1.406-11.327,2.02-12.731,7.648c-0.248,0.983-0.338,1.969-0.303,2.934l-1.918,18.791  l1.338,0.993c1.876,1.237,3.873,1.893,5.924,1.942l0.252,0.003c2.807,0,4.727-1.144,4.745-1.155l3.496-1.639l1.125-2.758  l11.566-5.677C74.831,38.05,75.155,36.714,75.282,36.321z"/>
<path d="M75.251,57.624c-0.072,0-0.131-0.047-0.148-0.116c-0.041-0.168-0.229-0.438-0.305-0.438  c-0.225,0.056-0.359-0.163-0.39-0.351c-0.002-0.013-0.003-0.026-0.001-0.039l1.644-10.981c0.008-0.049,0.759-4.739,0.876-5.42  c0.121-0.69,0.653-2.923,0.786-3.34c0.087-0.272,0.423-1.064,0.692-1.7c0.146-0.346,0.269-0.632,0.304-0.728  c0.096-0.259,1.228-2.685,1.372-2.992c-0.01-0.072-0.075-0.384-0.514-1.044c-0.511-0.765-1.026-0.83-1.031-0.83  c-0.02-0.002-0.04-0.009-0.057-0.021c0.001,0-0.032-0.009-0.13-0.01c-0.208,0-0.627,0.059-1.445,0.339  c-1.47,0.506-2.555,0.392-2.556,0.392c-0.061-0.006-0.109-0.056-0.113-0.117l-0.103-1.607c-0.004-0.062,0.037-0.117,0.098-0.131  c0.514-0.115,1.164-0.173,1.932-0.173c0.519,0,0.965,0.026,1.23,0.042l0.165,0.009c0.384,0.016,1.461,0.218,1.984,0.464  c0.488,0.229,1.676,0.508,1.688,0.511c0.012,0.003,1.771,0.592,1.932,0.644c0.138,0.047,0.236,0.058,0.884,0.123l0.082,0.008  c0.76,0.079,3.492,1.846,3.607,1.921c1.469,1.171,3.216,3.685,3.29,3.792c0.026,0.038,0.029,0.087,0.009,0.128l-0.384,0.766  c-0.021,0.042-0.062,0.068-0.108,0.069c-0.037-0.011-0.09-0.023-0.112-0.062c-0.465-0.797-1.87-1.882-2.646-2.379  c-0.716-0.459-3.86-1.727-3.893-1.739c-0.143-0.055-0.954-0.233-1.359-0.319c-0.306,0.673-2.193,4.832-2.58,5.756  c-0.419,0.988-0.946,3.864-0.951,3.894l-1.625,8.931c-0.006,0.035-0.606,3.615-0.897,4.796  C76.218,56.739,75.505,57.624,75.251,57.624z"/>
<path d="M62.644,50.369c-0.303-0.486-0.943-0.634-1.427-0.331c-0.079,0.049-8.022,4.898-15.259,0.02l-0.239-0.16  c-0.193-0.263-0.49-0.445-0.842-0.445c-0.587,0-1.062,0.475-1.062,1.062c0,0.041,0.019,0.075,0.023,0.115  c-4.173,2.381-20.986,10.872-35.608,2.635c-0.501-0.28-1.131-0.104-1.411,0.394c-0.281,0.499-0.105,1.13,0.394,1.411  c5.002,2.818,10.178,3.84,15.056,3.84c11.103,0,20.66-5.296,23.1-6.768c8.165,5.014,16.581-0.12,16.943-0.347  C62.799,51.493,62.946,50.854,62.644,50.369z"/>
</svg>