<svg xmlns="http://www.w3.org/2000/svg" xmlns:xlink="http://www.w3.org/1999/xlink" version="1.1" id="Layer_1" x="0px" y="0px" width="40.2631578947px" height="100px" viewBox="0 0 612 1520" enable-background="new 0 0 612 1520" xml:space="preserve">
<g>
	<path fill="#000000" d="M246,74v39.835c4,2.85,19.897,17.897,37.697,44.101c18.235,26.844,41.669,71.245,49.441,130.325   c11.506,87.44,10.592,120.979,9.495,159.813c-0.327,11.623-0.635,23.641-0.635,37.644V651c0.035,0.318,1.065,10,10.064,10H369   c0-80.068,0-201.814,0-268C369,164,246,74,246,74z"/>
	<path fill="#000000" d="M340.004,651.092L340,485.718c0-14.032,0.338-26.063,0.668-37.701c1.093-38.749,2.037-72.212-9.447-159.496   c-7.719-58.657-31.039-102.743-49.135-129.398C266.134,135.627,251,121.179,246,116.52v575.002c3.984-5.148,10.565-8.522,18-8.522   h67c6.455,0,12.129,2.717,15.953,7.056c4.428-12.239,11.36-22.073,22.047-26.113c0-0.312,0-0.629,0-0.941h-16.937   C341.229,663,340.015,651.211,340.004,651.092z"/>
	<path fill="#000000" d="M331,686h-67c-11.046,0-21,7.954-21,19c0,0,0,712.684,0,712.868c0,25.911,24.505,46.915,54.117,46.915   c29.611,0,53.614-20.754,53.614-46.665c0-0.105,0.27-712.618,0.27-712.618C351,694.454,342.045,686,331,686z M297.108,901.43   c-9.174,0-16.609-7.437-16.609-16.608s7.436-16.609,16.609-16.609c9.172,0,16.608,7.438,16.608,16.609   S306.281,901.43,297.108,901.43z M297.108,782.43c-9.174,0-16.609-7.437-16.609-16.608s7.436-16.609,16.609-16.609   c9.172,0,16.608,7.437,16.608,16.609S306.281,782.43,297.108,782.43z"/>
</g>
</svg>