<svg xmlns="http://www.w3.org/2000/svg" xmlns:xlink="http://www.w3.org/1999/xlink" version="1.1" id="Layer_1" x="0px" y="0px" width="40.2631578947px" height="100px" viewBox="0 0 612 1520" enable-background="new 0 0 612 1520" xml:space="preserve">
<g>
	<path fill="#000000" d="M340.079,686h-67c-11.046,0-21.141,7.954-21.141,19c0,0,0,712.684,0,712.868   c0,25.911,24.575,46.915,54.188,46.915c29.611,0,53.648-20.754,53.648-46.665c0-0.105,0.287-712.618,0.287-712.618   C360.062,694.454,351.126,686,340.079,686z M306.188,901.43c-9.174,0-16.609-7.437-16.609-16.608s7.437-16.609,16.609-16.609   c9.172,0,16.608,7.438,16.608,16.609S315.36,901.43,306.188,901.43z M306.188,782.43c-9.174,0-16.609-7.437-16.609-16.608   s7.437-16.609,16.609-16.609c9.172,0,16.608,7.437,16.608,16.609S315.36,782.43,306.188,782.43z"/>
	<path fill="#000000" d="M270.907,683h72.585c-3.627-39.918-16.721-92.935-11.562-124.185c8.285-50.203,20.01-57.719,20.01-110.447   C351.938,426.83,351.938,68,351.938,68s-16.663,38.711-20.27,78.19c-3.429,37.513-4.146,186.602-4.146,247.602   c0,43.826,1.064,67.027-23.062,67.027c-23.874,0-26.646-21.692-26.646-67.027c0-60.208,0.967-211.964-2.646-247.602   C270.153,96.743,252.938,68,252.938,68s0,346.663,0,380.368c0,47.879,15.266,58.683,27.945,110.447   C287.512,585.873,274.552,641.301,270.907,683z"/>
</g>
</svg>