<svg xmlns="http://www.w3.org/2000/svg" xmlns:xlink="http://www.w3.org/1999/xlink" version="1.1" id="Layer_1" x="0px" y="0px" width="100px" height="100px" viewBox="-346 256 100 100" enable-background="new -346 256 100 100" xml:space="preserve">
<circle cx="-279.311" cy="264.207" r="8.13"/>
<circle cx="-317.366" cy="264.128" r="8.129"/>
<path d="M-253.121,356l-17.688-70.658h1.828l6.271,21.033c1.493,4.802,7.762,2.762,6.374-2.166l-6.972-22.911  c-0.858-2.576-3.159-7.251-8.834-7.251h-13.719c-5.728,0-8.012,4.639-8.757,7.251l-4.188,10.841v-7.516  c0-5.399-3.174-10.69-9.489-10.69l-18.223-0.007c-5.754,0-9.361,4.693-9.361,10.549v24.957c0,4.852,6.41,4.852,6.41,0v-24.291h2.042  l-0.01,65.915c0,2.515,2.041,4.556,4.555,4.556c2.521,0,4.559-2.041,4.559-4.556l0.006-38.233h2.029l-0.013,38.233  c0,2.515,2.042,4.556,4.559,4.556c2.515,0,4.557-2.041,4.557-4.556l0.02-65.915h1.999v24.291c0,4.131,4.544,4.755,5.944,1.9  c0.159-0.272,0.304-0.569,0.417-0.915l9.863-25.076h1.689L-305.497,356H-253.121z"/>
</svg>