<svg xmlns="http://www.w3.org/2000/svg" xmlns:xlink="http://www.w3.org/1999/xlink" version="1.1" id="Layer_1" x="0px" y="0px" width="100px" height="100px" viewBox="0 0 100 100" enable-background="new 0 0 100 100" xml:space="preserve">
<path d="M89.1,86.854c0,0-11.915-11.306-23.946-31.394c7.256,2.627,14.144,4.317,14.144,4.317s-9.548-8.681-18.703-24.09  c5.705,2.125,11.353,3.512,11.353,3.512S63.939,32.301,56.896,20.1C49.852,7.899,49.893,1,49.893,1s-0.343,7.563-7.003,19.1  c-6.661,11.536-15.051,19.099-15.051,19.099s5.629-1.374,11.365-3.535c-8.708,14.619-18.717,24.113-18.717,24.113  s6.866-1.675,14.156-4.341C23.181,74.508,10.686,86.854,10.686,86.854s17.974-4.388,30.289-10.648v22.046h17.836V76.286  C70.957,82.396,89.1,86.854,89.1,86.854z"/>
</svg>