<?xml version="1.0" encoding="utf-8"?>
<!-- Generator: Adobe Illustrator 14.0.0, SVG Export Plug-In . SVG Version: 6.00 Build 43363)  -->
<!DOCTYPE svg PUBLIC "-//W3C//DTD SVG 1.0//EN" "http://www.w3.org/TR/2001/REC-SVG-20010904/DTD/svg10.dtd">
<svg version="1.0" id="Layer_1" xmlns="http://www.w3.org/2000/svg" xmlns:xlink="http://www.w3.org/1999/xlink" x="0px" y="0px"
	 width="100px" height="88.28px" viewBox="0 0 100 88.28" enable-background="new 0 0 100 88.28" xml:space="preserve">
<path d="M57.191,0C34.598,0,16.283,18.315,16.283,40.909c0,0.806,0.031,1.604,0.077,2.397c0,0,8.024,0.152,12.544,3.086
	c-0.712,4.247-1.54,8.509-2.567,12.713c-7.953,0.455-15.905,0.909-23.858,1.363c-2.953,0.169-3.022,4.689-0.166,4.696
	c0,6.127,0,12.254,0,18.382c-0.208,0.047-0.417,0.097-0.626,0.143c-2.956,0.651-1.702,5.177,1.248,4.527
	c4.479-0.987,8.949-2.282,13.195-4.017c2.501-1.022,5.273-2.208,7.092-4.29c1.645-1.883,2.659-4.204,3.6-6.491
	c1.306-3.175,2.376-6.475,3.286-9.834c1.534-0.088,3.067-0.176,4.601-0.263c0.052,1.212,0.054,2.097,0.054,2.446
	c0,9.115,7.39,16.506,16.506,16.506c4.404,0,10.395,1.555,26.154-12.863c3.13-3.13,17.181-2.706,17.181-2.706
	C95.752,66.839,100,52.443,100,40.909C100,16.431,86.476,0,57.191,0z M23.014,70.294c-0.758,2.112-1.649,4.212-2.933,6.064
	c-0.236,0.34-1.058,1.105-1.738,1.545c-1.19,0.77-2.501,1.377-3.811,1.911c-2.44,0.997-4.967,1.832-7.525,2.548
	c0-5.819,0-11.639,0-17.459c6.023-0.344,12.046-0.688,18.068-1.032C24.455,66.04,23.772,68.184,23.014,70.294z M31.289,58.823
	c0.536-2.367,1.008-4.749,1.44-7.127c0.805,2.179,1.292,4.669,1.585,6.954C33.306,58.708,32.297,58.765,31.289,58.823z
	 M58.142,58.625c-3.704,0-6.707-3.003-6.707-6.706c0-3.704,3.003-6.707,6.707-6.707c3.703,0,6.706,3.002,6.706,6.707
	C64.848,55.622,61.845,58.625,58.142,58.625z"/>
</svg>
