<svg xmlns="http://www.w3.org/2000/svg" xmlns:xlink="http://www.w3.org/1999/xlink" version="1.1" id="Layer_1" width="100.006" height="92.771" viewBox="0 0 100.006 92.771" overflow="visible" enable-background="new 0 0 100.006 92.771" xml:space="preserve">
<path fill="#000000" d="M99.726,44.949v-3.328H8.936l-2.402-9.014l12.821,7.413l14.827-3.963L13.44,24.103l15.655-4.204L49.9,31.906  l14.826-3.959L43.855,15.914l15.201-4.09l20.914,12.088l10.438-2.797l0.014,0.092l5.866-1.564l-3.01-11.253  c-1.172-4.199-5.88-10.475-16.206-7.707L62.73,4.554L51.588,7.522l0.009,0.005l-15.169,4.09l-0.022-0.013L21.601,15.55l0.066,0.052  l-11.021,2.956C4.071,20.422-1.599,25.69,0.411,33.279l2.563,9.566v1.806v3.068V79.1c0.063,5.094,3.029,13.671,13.658,13.671h69.703  c5.091-0.082,13.67-3.026,13.67-13.671V44.949H99.726z M78.646,6.542c6.55-1.762,8.308,1.828,8.772,3.432l1.821,6.794L73.816,7.838  L78.646,6.542z M93.938,79.1c0,6.755-5.349,7.584-7.626,7.603H16.633c-6.756,0-7.555-5.351-7.589-7.629V47.719h84.894V79.1z   M43.635,54.6v24.7l21.391-12.334L43.635,54.6z"/>
</svg>