<svg xmlns="http://www.w3.org/2000/svg" xmlns:xlink="http://www.w3.org/1999/xlink" version="1.1" id="Layer_1" width="62.937" height="100" viewBox="0 0 62.937 100" overflow="visible" enable-background="new 0 0 62.937 100" xml:space="preserve">
<g>
	<g>
		<path fill="#000000" d="M62.937,31.309C62.926,14.033,48.799-0.007,31.444,0C14.386,0.013,0.53,13.636,0.082,30.518    c-0.013,0-0.082,0-0.082,0v1.66c0,0,0.057,0,0.066,0c0.155,5.857,1.922,11.475,5.161,16.36c-0.006,0.002-0.041,0.031-0.041,0.031    s0.203,0.287,0.345,0.486c0.007,0.01,0.104,0.155,0.183,0.265c0.005,0.008,0.001,0.015,0.008,0.022c0,0,0.016,0.017,0.019,0.022    c0.136,0.195,0.283,0.396,0.283,0.396s0.034-0.022,0.04-0.028c0.764,1.039,1.585,2.055,2.479,2.997    c0.004,0.006,0.029,0.048,0.029,0.048c1.126,1.548,3.73,5.536,3.73,9.177c0,0.01-0.027,3.756-0.027,3.756    c0.001,1.769,0.058,3.64,0.653,5.38c0.625,1.879,1.925,3.354,3.749,4.254c0.534,0.275,1.126,0.498,1.763,0.693l0.013,11.945v0.152    c0.113,2.173,1.684,4.117,4.154,5.492c0.205,1.804,1.896,3.368,4.353,4.229c0.455,1.225,2.809,2.144,4.984,2.144    c2.179-0.001,4.354-0.923,4.81-2.149c2.456-0.868,4.14-2.426,4.343-4.236c2.502-1.388,4.078-3.359,4.157-5.565    c0.118-0.024-0.123-0.048,0-0.081l-0.012-12.149c0.406-0.151,0.79-0.306,1.142-0.486c1.249-0.636,2.242-1.511,2.943-2.604    c1.324-2.076,1.434-4.417,1.447-7.044c0-0.004-0.036-3.736-0.036-3.756c0-3.746,2.726-7.84,3.917-9.446    c0.223-0.284,2.035-2.487,2.258-2.764l0.025,0.018c0,0,0.064-0.096,0.099-0.147c0.079-0.084,0.16-0.165,0.16-0.165    c0.03-0.031,0.015-0.07,0.047-0.103c0.163-0.207,0.368-0.449,0.368-0.449s-0.056-0.04-0.069-0.049    c3.519-5.182,5.394-11.214,5.394-17.486V31.309z M30.128,73.278c-0.079-19.323-5.612-30.791-7.017-33.386    c1.653-0.574,3.724-1.004,6.196-1.006c1.848-0.006,3.92,0.236,6.21,0.85c0.584,0.156,1.177,0.34,1.79,0.543    c-1.649,3.18-6.733,14.482-6.781,33.026C30.404,73.294,30.261,73.29,30.128,73.278z M58.906,31.328    c0,5.537-1.662,10.872-4.81,15.429c-0.024,0.038-0.018,0.08-0.033,0.122c-0.044,0.045-0.142,0.143-0.142,0.143l-2.503,3.058    c-3.151,4.334-4.691,8.224-4.709,11.895c0,0.004,0.041,3.79,0.041,3.825c0,1.889-0.136,3.107-0.431,3.958    c-0.298,0.82-0.686,1.415-1.771,1.986c-0.776,0.394-1.859,0.689-3.203,0.881c-0.163,0.011-8.81,0.682-9.642,0.75    c0.038-18.66,5.235-29.868,6.731-32.699c1.328,0.51,2.725,1.142,4.185,1.916c0.038,0.022,0.083,0.036,0.124,0.046    c0.26,0.074,0.542-0.042,0.672-0.294c0.155-0.29,0.044-0.643-0.245-0.795c-1.479-0.785-6.669-2.773-7.353-2.952    c-2.384-0.646-4.561-0.895-6.509-0.895c-7.608,0.008-11.709,3.895-11.77,3.95c-0.238,0.23-0.248,0.599-0.018,0.844    c0.072,0.076,0.17,0.132,0.27,0.161c0.193,0.053,0.406,0.002,0.562-0.143l0.035-0.032c0.219-0.197,1.439-1.246,3.604-2.163    c1.186,2.146,6.85,13.443,6.948,32.87c-2.87-0.223-7.189-0.554-7.261-0.561c-1.326-0.185-2.402-0.476-3.179-0.874    c-0.64-0.323-1.063-0.692-1.395-1.188c-0.554-0.849-0.809-2.304-0.809-4.708c0-0.05,0.034-3.864,0.034-3.864    c-0.021-3.579-1.49-7.362-4.487-11.564c0,0-2.947-3.574-2.984-3.615c-0.002-0.006,0-0.019-0.004-0.026    C5.7,42.229,4.029,36.886,4.029,31.348c0,0,0-0.012,0-0.014c0-7.287,2.849-14.139,8.022-19.29    c5.181-5.162,12.069-8.009,19.398-8.009c7.329-0.004,14.224,2.829,19.411,7.98c5.184,5.156,8.041,12.008,8.045,19.293V31.328z"/>
	</g>
</g>
</svg>