<svg xmlns="http://www.w3.org/2000/svg" xmlns:xlink="http://www.w3.org/1999/xlink" version="1.0" id="Layer_1" x="0px" y="0px" width="100px" height="100px" viewBox="0 0 100 100" enable-background="new 0 0 100 100" xml:space="preserve">
<polygon fill="#000000" points="69.26,56.221 58.113,41.751 55.267,43.938 66.414,58.412 "/>
<polygon fill="#000000" points="29.813,19.658 40.963,34.132 43.808,31.941 32.661,17.471 "/>
<polygon fill="#000000" points="33.736,16.646 44.881,31.114 47.918,28.775 36.776,14.311 "/>
<polygon fill="#000000" points="58.967,34.708 44.225,46.065 46.396,48.893 61.159,37.554 "/>
<polygon fill="#000000" points="41.219,42.151 43.4,44.991 58.141,33.635 55.956,30.798 "/>
<polygon fill="#000000" points="69.876,80.943 58.599,66.305 55.884,68.396 67.159,83.029 "/>
<polygon fill="#000000" points="59.328,59.486 44.686,70.764 46.883,73.617 61.521,62.343 "/>
<polygon fill="#000000" points="66.086,83.854 54.812,69.222 51.776,71.56 63.045,86.189 "/>
<polygon fill="#000000" points="34.49,41.2 45.74,55.803 48.397,53.763 37.166,39.138 "/>
<polygon fill="#000000" points="40.394,41.076 55.129,29.726 52.811,26.716 38.08,38.064 "/>
<polygon fill="#000000" points="40.875,59.539 29.63,44.943 26.596,47.281 37.836,61.873 "/>
<polygon fill="#000000" points="36.341,38.063 34.146,35.206 19.504,46.485 21.703,49.339 "/>
<polygon fill="#000000" points="30.654,69.156 41.775,83.593 44.62,81.401 33.502,66.969 "/>
<polygon fill="#000000" points="50.966,22.099 62.234,36.728 65.272,34.395 54,19.762 "/>
<polygon fill="#000000" points="34.598,59.889 19.856,71.246 22.027,74.072 25.063,71.74 25.035,71.703 36.762,62.697 "/>
<polygon fill="#000000" points="48.731,78.235 37.617,63.808 34.576,66.144 45.693,80.574 "/>
<rect x="23.168" y="29.136" transform="matrix(-0.6103 -0.7922 0.7922 -0.6103 9.7353 81.5466)" fill="#000000" width="3.516" height="18.485"/>
<polygon fill="#000000" points="50.296,54.012 38.691,62.983 40.885,65.831 55.533,54.547 53.332,51.681 "/>
<rect x="52.829" y="23.497" transform="matrix(0.6103 0.7922 -0.7922 0.6103 44.1603 -39.3455)" fill="#000000" width="18.479" height="3.425"/>
<polygon fill="#000000" points="58.502,58.412 56.359,55.621 41.712,66.905 43.858,69.69 "/>
<polygon fill="#000000" points="59.188,40.925 70.333,55.394 73.371,53.054 62.229,38.59 "/>
<polygon fill="#000000" points="30.704,44.117 41.949,58.714 44.666,56.628 33.417,42.026 "/>
<rect x="12.933" y="57.18" transform="matrix(-0.7922 0.6103 -0.6103 -0.7922 75.9013 92.3098)" fill="#000000" width="18.6" height="3.797"/>
<polygon fill="#000000" points="33.771,58.815 31.587,55.98 16.851,67.333 19.03,70.171 "/>
<polygon fill="#000000" points="40.702,84.419 29.58,69.98 26.963,71.99 38.067,86.449 "/>
<polygon fill="#000000" points="9.365,41.828 20.51,56.296 23.549,53.955 12.407,39.492 "/>
<polygon fill="#000000" points="55.94,79.187 53.623,76.178 38.893,87.524 41.205,90.536 "/>
<polygon fill="#000000" points="15.705,41.553 30.354,30.268 28.152,27.4 13.481,38.667 "/>
<polygon fill="#000000" points="5.443,44.839 16.594,59.313 19.438,57.123 8.291,42.653 "/>
<polygon fill="#000000" points="58.951,83.096 56.768,80.26 42.031,91.611 44.212,94.451 "/>
<polygon fill="#000000" points="65.341,59.239 54.191,44.763 51.575,46.772 62.708,61.268 "/>
<polygon fill="#000000" points="84.311,40.297 95.59,54.936 98.246,52.896 86.987,38.235 "/>
<polygon fill="#000000" points="59.672,65.479 70.95,80.118 73.607,78.077 62.348,63.418 "/>
<polygon fill="#000000" points="61.971,87.015 59.777,84.168 45.037,95.525 47.208,98.353 "/>
<polygon fill="#000000" points="15.521,60.14 4.369,45.665 1.752,47.674 12.885,62.17 "/>
<polygon fill="#000000" points="90.724,58.674 79.451,44.041 76.417,46.378 87.687,61.006 "/>
<polygon fill="#000000" points="86.612,61.83 84.421,58.985 69.678,70.343 71.849,73.17 "/>
<polygon fill="#000000" points="94.517,55.76 83.238,41.124 80.525,43.213 91.798,57.848 "/>
<rect x="70.158" y="48.875" transform="matrix(0.6104 0.7921 -0.7921 0.6104 74.157 -34.4121)" fill="#000000" width="3.798" height="18.595"/>
<polygon fill="#000000" points="83.967,34.303 69.326,45.582 71.525,48.437 86.162,37.161 "/>
<polygon fill="#000000" points="83.594,57.912 81.409,55.076 66.672,66.43 68.852,69.268 "/>
<polygon fill="#000000" points="63.304,37.764 65.526,40.65 80.175,29.366 77.973,26.498 "/>
<polygon fill="#000000" points="40.901,17.444 43.047,20.23 57.69,8.951 55.548,6.161 "/>
<polygon fill="#000000" points="37.851,13.485 40.074,16.371 54.723,5.086 52.521,2.219 "/>
<polygon fill="#000000" points="43.874,21.304 46.073,24.158 60.71,12.883 58.516,10.025 "/>
<polygon fill="#000000" points="58.86,16.017 70.139,30.658 72.794,28.618 61.535,13.957 "/>
<polygon fill="#000000" points="39.89,34.959 28.738,20.484 26.122,22.493 37.255,36.989 "/>
<rect x="72.989" y="28.234" transform="matrix(-0.6104 -0.7921 0.7921 -0.6104 90.6899 119.558)" fill="#000000" width="3.518" height="18.484"/>
</svg>