<?xml version="1.0" encoding="utf-8"?>
<!-- Generator: Adobe Illustrator 15.1.0, SVG Export Plug-In . SVG Version: 6.00 Build 0)  -->
<!DOCTYPE svg PUBLIC "-//W3C//DTD SVG 1.1//EN" "http://www.w3.org/Graphics/SVG/1.1/DTD/svg11.dtd">
<svg version="1.1" id="Layer_1" xmlns="http://www.w3.org/2000/svg" xmlns:xlink="http://www.w3.org/1999/xlink" x="0px" y="0px"
	 width="100px" height="70px" viewBox="0 0 100 70" enable-background="new 0 0 100 70" xml:space="preserve">
<path d="M49.5,30c-5.238,0-9.5,4.262-9.5,9.5s4.262,9.5,9.5,9.5s9.5-4.262,9.5-9.5S54.738,30,49.5,30z"/>
<path d="M90,9H33V0H13v9h-3C4.477,9,0,13.477,0,19v41c0,5.523,4.477,10,10,10h80c5.523,0,10-4.477,10-10V19
	C100,13.477,95.523,9,90,9z M49.5,63C36.542,63,26,52.458,26,39.5S36.542,16,49.5,16S73,26.542,73,39.5S62.458,63,49.5,63z"/>
</svg>
