<svg xmlns="http://www.w3.org/2000/svg" xmlns:xlink="http://www.w3.org/1999/xlink" version="1.1" id="Layer_1" x="0px" y="0px" width="100px" height="55.038px" viewBox="0 0 100 55.038" enable-background="new 0 0 100 55.038" xml:space="preserve">
<g>
	<path fill="#000000" d="M27.119,31.819c-5.732,0-4.884-6.962-4.884-6.962s0.978-2.206,4.884-2.206c3.906,0,4.924,2.206,4.924,2.206   S32.848,31.819,27.119,31.819 M27.136,20.401c-5.986,0-7.729,5.408-7.729,18.103v0.57c2.229,1.438,4.877,2.282,7.729,2.282   c2.851,0,5.499-0.844,7.729-2.282v-0.57C34.865,25.81,33.122,20.401,27.136,20.401"/>
	<path fill="#000000" d="M49.826,31.819c-5.731,0-4.884-6.962-4.884-6.962s0.979-2.206,4.884-2.206c3.906,0,4.924,2.206,4.924,2.206   S55.556,31.819,49.826,31.819 M49.845,20.401c-5.986,0-7.729,5.408-7.729,18.103v0.57c2.229,1.438,4.877,2.282,7.729,2.282   c2.85,0,5.498-0.844,7.729-2.282v-0.57C57.573,25.81,55.829,20.401,49.845,20.401"/>
	<path fill="#000000" d="M72.992,31.819c-5.73,0-4.884-6.962-4.884-6.962s0.979-2.206,4.884-2.206c3.906,0,4.925,2.206,4.925,2.206   S78.722,31.819,72.992,31.819 M73.012,20.401c-5.986,0-7.729,5.408-7.729,18.103v0.57c2.229,1.438,4.878,2.282,7.729,2.282   c2.85,0,5.498-0.844,7.729-2.282v-0.57C80.74,25.81,78.996,20.401,73.012,20.401"/>
	<path fill="#000000" d="M72.56,12.78c-4.629,0-8.745,2.215-11.357,5.636c-2.612-3.421-6.729-5.636-11.358-5.636   c-4.625,0-8.741,2.212-11.354,5.631c-2.613-3.419-6.728-5.631-11.354-5.631c-7.879,0-14.289,6.41-14.289,14.288   c0,0.526,0.426,0.952,0.953,0.952c0.525,0,0.952-0.426,0.952-0.952c0-6.829,5.555-12.382,12.384-12.382   c4.191,0,7.894,2.1,10.135,5.297c0.215,0.457,0.676,0.773,1.214,0.773c0.522,0,0.97-0.3,1.193-0.734   c2.239-3.219,5.956-5.336,10.165-5.336c4.226,0,7.955,2.134,10.19,5.374c0.229,0.413,0.666,0.696,1.173,0.696   c0.531,0,0.987-0.311,1.206-0.76c2.24-3.205,5.947-5.311,10.146-5.311c6.828,0,12.383,5.553,12.383,12.382   c0,0.526,0.427,0.952,0.952,0.952c0.526,0,0.952-0.426,0.952-0.952C86.847,19.19,80.438,12.78,72.56,12.78z"/>
</g>
<polygon fill="#000000" points="3.702,31.692 6.073,31.692 3.113,27.993 9.253,27.993 9.253,26.145 3.113,26.145 6.073,22.445   3.702,22.445 0.004,27.069 "/>
<polygon fill="#000000" points="45.225,3.698 45.225,6.069 48.923,3.109 48.923,9.249 50.772,9.249 50.772,3.109 54.472,6.069   54.472,3.698 49.847,0 "/>
<polygon fill="#000000" points="54.472,51.268 54.472,48.896 50.773,51.856 50.773,45.717 48.924,45.717 48.924,51.856   45.225,48.896 45.225,51.268 49.85,54.966 "/>
<polygon fill="#000000" points="96.297,22.445 93.926,22.445 96.887,26.144 90.746,26.144 90.746,27.993 96.887,27.993   93.926,31.692 96.297,31.692 99.995,27.067 "/>
</svg>