<svg xmlns="http://www.w3.org/2000/svg" xmlns:xlink="http://www.w3.org/1999/xlink" version="1.1" id="Layer_1" x="0px" y="0px" width="86.847px" height="28.521px" viewBox="0 0 86.847 28.521" enable-background="new 0 0 86.847 28.521" xml:space="preserve">
<g>
	<path fill="#000000" d="M27.119,19.039c-5.732,0-4.884-6.962-4.884-6.962s0.978-2.206,4.884-2.206c3.906,0,4.924,2.206,4.924,2.206   S32.848,19.039,27.119,19.039 M27.136,7.621c-5.986,0-7.729,5.408-7.729,18.103v0.57c2.229,1.438,4.877,2.282,7.729,2.282   c2.851,0,5.499-0.844,7.729-2.282v-0.57C34.865,13.029,33.122,7.621,27.136,7.621"/>
	<path fill="#000000" d="M49.826,19.039c-5.731,0-4.884-6.962-4.884-6.962s0.979-2.206,4.884-2.206c3.906,0,4.924,2.206,4.924,2.206   S55.556,19.039,49.826,19.039 M49.845,7.621c-5.986,0-7.729,5.408-7.729,18.103v0.57c2.229,1.438,4.877,2.282,7.729,2.282   c2.85,0,5.498-0.844,7.729-2.282v-0.57C57.573,13.029,55.829,7.621,49.845,7.621"/>
	<path fill="#000000" d="M72.992,19.039c-5.73,0-4.884-6.962-4.884-6.962s0.979-2.206,4.884-2.206c3.906,0,4.925,2.206,4.925,2.206   S78.722,19.039,72.992,19.039 M73.012,7.621c-5.986,0-7.729,5.408-7.729,18.103v0.57c2.229,1.438,4.878,2.282,7.729,2.282   c2.85,0,5.498-0.844,7.729-2.282v-0.57C80.74,13.029,78.996,7.621,73.012,7.621"/>
	<path fill="#000000" d="M72.56,0c-4.629,0-8.745,2.215-11.357,5.636C58.59,2.215,54.473,0,49.844,0   c-4.625,0-8.741,2.212-11.354,5.631C35.877,2.212,31.763,0,27.137,0c-7.879,0-14.289,6.41-14.289,14.288   c0,0.526,0.426,0.952,0.953,0.952c0.525,0,0.952-0.426,0.952-0.952c0-6.829,5.555-12.382,12.384-12.382   c4.191,0,7.894,2.1,10.135,5.297c0.215,0.457,0.676,0.773,1.214,0.773c0.522,0,0.97-0.3,1.193-0.734   c2.239-3.219,5.956-5.336,10.165-5.336c4.226,0,7.955,2.134,10.19,5.374c0.229,0.413,0.666,0.696,1.173,0.696   c0.531,0,0.987-0.311,1.206-0.76c2.24-3.205,5.947-5.311,10.146-5.311c6.828,0,12.383,5.553,12.383,12.382   c0,0.526,0.427,0.952,0.952,0.952c0.526,0,0.952-0.426,0.952-0.952C86.847,6.41,80.438,0,72.56,0z"/>
</g>
<polygon fill="#000000" points="3.702,18.912 6.073,18.912 3.113,15.213 9.253,15.213 9.253,13.364 3.113,13.364 6.073,9.665   3.702,9.665 0.004,14.289 "/>
</svg>