<svg xmlns="http://www.w3.org/2000/svg" xmlns:xlink="http://www.w3.org/1999/xlink" version="1.1" id="Layer_1" x="0px" y="0px" width="87.151px" height="28.521px" viewBox="0 0 87.151 28.521" enable-background="new 0 0 87.151 28.521" xml:space="preserve">
<g>
	<path fill="#000000" d="M14.271,19.039c-5.732,0-4.884-6.962-4.884-6.962s0.978-2.206,4.884-2.206c3.906,0,4.924,2.206,4.924,2.206   S19.999,19.039,14.271,19.039 M14.288,7.621c-5.986,0-7.729,5.408-7.729,18.103v0.57c2.229,1.438,4.877,2.282,7.729,2.282   c2.851,0,5.499-0.844,7.729-2.282v-0.57C22.017,13.029,20.273,7.621,14.288,7.621"/>
	<path fill="#000000" d="M36.977,19.039c-5.731,0-4.884-6.962-4.884-6.962s0.979-2.206,4.884-2.206c3.906,0,4.924,2.206,4.924,2.206   S42.707,19.039,36.977,19.039 M36.996,7.621c-5.986,0-7.729,5.408-7.729,18.103v0.57c2.229,1.438,4.877,2.282,7.729,2.282   c2.85,0,5.498-0.844,7.729-2.282v-0.57C44.725,13.029,42.98,7.621,36.996,7.621"/>
	<path fill="#000000" d="M60.144,19.039c-5.73,0-4.884-6.962-4.884-6.962s0.979-2.206,4.884-2.206c3.906,0,4.925,2.206,4.925,2.206   S65.873,19.039,60.144,19.039 M60.163,7.621c-5.986,0-7.729,5.408-7.729,18.103v0.57c2.229,1.438,4.878,2.282,7.729,2.282   c2.85,0,5.498-0.844,7.729-2.282v-0.57C67.892,13.029,66.147,7.621,60.163,7.621"/>
	<path fill="#000000" d="M59.711,0c-4.629,0-8.745,2.215-11.357,5.636C45.741,2.215,41.624,0,36.996,0   c-4.625,0-8.741,2.212-11.354,5.631C23.029,2.212,18.915,0,14.289,0C6.41,0,0,6.41,0,14.288c0,0.526,0.426,0.952,0.953,0.952   c0.525,0,0.952-0.426,0.952-0.952c0-6.829,5.555-12.382,12.384-12.382c4.191,0,7.894,2.1,10.135,5.297   c0.215,0.457,0.676,0.773,1.214,0.773c0.522,0,0.97-0.3,1.193-0.734c2.239-3.219,5.956-5.336,10.165-5.336   c4.226,0,7.955,2.134,10.19,5.374c0.229,0.413,0.666,0.696,1.173,0.696c0.531,0,0.987-0.311,1.206-0.76   c2.24-3.205,5.947-5.311,10.146-5.311c6.828,0,12.383,5.553,12.383,12.382c0,0.526,0.427,0.952,0.952,0.952   c0.526,0,0.952-0.426,0.952-0.952C73.998,6.41,67.59,0,59.711,0z"/>
</g>
<polygon fill="#000000" points="83.448,9.665 81.077,9.665 84.038,13.363 77.897,13.363 77.897,15.213 84.038,15.213 81.077,18.912   83.448,18.912 87.146,14.287 "/>
</svg>