<svg xmlns="http://www.w3.org/2000/svg" xmlns:xlink="http://www.w3.org/1999/xlink" version="1.1" id="Layer_1" x="0px" y="0px" width="73.998px" height="41.356px" viewBox="0 0 73.998 41.356" enable-background="new 0 0 73.998 41.356" xml:space="preserve">
<g>
	<path fill="#000000" d="M14.271,31.819c-5.732,0-4.884-6.962-4.884-6.962s0.978-2.206,4.884-2.206c3.906,0,4.924,2.206,4.924,2.206   S19.999,31.819,14.271,31.819 M14.288,20.401c-5.986,0-7.729,5.408-7.729,18.103v0.57c2.229,1.438,4.877,2.282,7.729,2.282   c2.851,0,5.499-0.844,7.729-2.282v-0.57C22.017,25.81,20.273,20.401,14.288,20.401"/>
	<path fill="#000000" d="M36.977,31.819c-5.731,0-4.884-6.962-4.884-6.962s0.979-2.206,4.884-2.206c3.906,0,4.924,2.206,4.924,2.206   S42.707,31.819,36.977,31.819 M36.996,20.401c-5.986,0-7.729,5.408-7.729,18.103v0.57c2.229,1.438,4.877,2.282,7.729,2.282   c2.85,0,5.498-0.844,7.729-2.282v-0.57C44.725,25.81,42.98,20.401,36.996,20.401"/>
	<path fill="#000000" d="M60.144,31.819c-5.73,0-4.884-6.962-4.884-6.962s0.979-2.206,4.884-2.206c3.906,0,4.925,2.206,4.925,2.206   S65.873,31.819,60.144,31.819 M60.163,20.401c-5.986,0-7.729,5.408-7.729,18.103v0.57c2.229,1.438,4.878,2.282,7.729,2.282   c2.85,0,5.498-0.844,7.729-2.282v-0.57C67.892,25.81,66.147,20.401,60.163,20.401"/>
	<path fill="#000000" d="M59.711,12.78c-4.629,0-8.745,2.215-11.357,5.636c-2.612-3.421-6.729-5.636-11.358-5.636   c-4.625,0-8.741,2.212-11.354,5.631c-2.613-3.419-6.728-5.631-11.354-5.631C6.41,12.78,0,19.19,0,27.068   c0,0.526,0.426,0.952,0.953,0.952c0.525,0,0.952-0.426,0.952-0.952c0-6.829,5.555-12.382,12.384-12.382   c4.191,0,7.894,2.1,10.135,5.297c0.215,0.457,0.676,0.773,1.214,0.773c0.522,0,0.97-0.3,1.193-0.734   c2.239-3.219,5.956-5.336,10.165-5.336c4.226,0,7.955,2.134,10.19,5.374c0.229,0.413,0.666,0.696,1.173,0.696   c0.531,0,0.987-0.311,1.206-0.76c2.24-3.205,5.947-5.311,10.146-5.311c6.828,0,12.383,5.553,12.383,12.382   c0,0.526,0.427,0.952,0.952,0.952c0.526,0,0.952-0.426,0.952-0.952C73.998,19.19,67.59,12.78,59.711,12.78z"/>
</g>
<polygon fill="#000000" points="32.376,3.698 32.376,6.069 36.075,3.109 36.075,9.249 37.923,9.249 37.923,3.109 41.623,6.069   41.623,3.698 36.998,0 "/>
</svg>