<?xml version="1.0" encoding="utf-8"?>
<!-- Generator: Adobe Illustrator 15.1.0, SVG Export Plug-In . SVG Version: 6.00 Build 0)  -->
<!DOCTYPE svg PUBLIC "-//W3C//DTD SVG 1.1//EN" "http://www.w3.org/Graphics/SVG/1.1/DTD/svg11.dtd">
<svg version="1.1" id="Layer_1" xmlns="http://www.w3.org/2000/svg" xmlns:xlink="http://www.w3.org/1999/xlink" x="0px" y="0px"
	 width="100px" height="91.193px" viewBox="0 0 100 91.193" enable-background="new 0 0 100 91.193" xml:space="preserve">
<path d="M83.423,1.595c-2.734-2.734-8.227-1.673-10.96,1.061c-2.734,2.733-3.795,8.226-1.062,10.96
	c0.878,0.878,2.064,1.962,3.455,3.15L27.61,51.986l1.137,1.525l-13.562,10.08c-1.168-0.875-2.613-1.398-4.185-1.398
	c-3.866,0-7,3.134-7,7H0v22h22v-22h-4c0-0.842-0.156-1.645-0.429-2.393l13.566-10.082l1.254,1.682L54.07,42.239L41.649,91.193h8.253
	l7.104-28h7.986l7.104,28h8.253L65.725,33.552l15.626-11.648c4.313,3.17,9.029,6.165,12.649,7.524v61.765h4V30.141
	c0.54-0.083,0.994-0.277,1.333-0.615C103.222,25.637,89.079,7.252,83.423,1.595z M58.021,59.193L61,47.457l2.979,11.736H58.021z"/>
</svg>
