<svg xmlns:dc="http://purl.org/dc/elements/1.1/" xmlns:cc="http://creativecommons.org/ns#" xmlns:rdf="http://www.w3.org/1999/02/22-rdf-syntax-ns#" xmlns:svg="http://www.w3.org/2000/svg" xmlns="http://www.w3.org/2000/svg" xmlns:sodipodi="http://sodipodi.sourceforge.net/DTD/sodipodi-0.dtd" xmlns:inkscape="http://www.inkscape.org/namespaces/inkscape" version="1.1" width="100" height="100" id="svg2" inkscape:version="0.48.2 r9819" sodipodi:docname="atheism_simple.svg">
  <sodipodi:namedview pagecolor="#ffffff" bordercolor="#666666" borderopacity="1" objecttolerance="10" gridtolerance="10" guidetolerance="10" inkscape:pageopacity="0" inkscape:pageshadow="2" inkscape:window-width="640" inkscape:window-height="480" id="namedview21" showgrid="false" inkscape:zoom="2.36" inkscape:cx="50" inkscape:cy="50" inkscape:window-x="106" inkscape:window-y="0" inkscape:window-maximized="0" inkscape:current-layer="svg2"/>
  <metadata id="metadata8">
    <rdf:RDF>
      <cc:Work rdf:about="">
        <dc:format>image/svg+xml</dc:format>
        <dc:type rdf:resource="http://purl.org/dc/dcmitype/StillImage"/>
        <dc:title/>
      </cc:Work>
    </rdf:RDF>
  </metadata>
  <defs id="defs6">
    <inkscape:path-effect effect="skeletal" id="path-effect3934"/>
    <inkscape:path-effect effect="skeletal" id="path-effect3928"/>
    <inkscape:path-effect effect="skeletal" id="path-effect3922"/>
    <inkscape:path-effect effect="skeletal" id="path-effect3908"/>
    <inkscape:path-effect effect="spiro" id="path-effect3904"/>
    <inkscape:path-effect effect="bend_path" id="path-effect3900"/>
    <inkscape:path-effect effect="sketch" id="path-effect3898"/>
    <inkscape:path-effect effect="spiro" id="path-effect3896"/>
    <inkscape:path-effect effect="spiro" id="path-effect3894"/>
    <inkscape:path-effect effect="spiro" id="path-effect3890"/>
    <inkscape:path-effect effect="envelope" id="path-effect3884"/>
    <inkscape:path-effect effect="skeletal" id="path-effect3858"/>
    <inkscape:path-effect effect="skeletal" id="path-effect3854"/>
    <inkscape:path-effect effect="envelope" id="path-effect3852"/>
    <inkscape:path-effect effect="envelope" id="path-effect3846"/>
  </defs>
  <path d="m 48.713825,2.6302216 c -7.65895,0.19585 -15.37683,2.24755 -22.4688,6.34211 C 3.5507056,22.074892 -4.2420544,51.175372 8.8605056,73.869692 a 2.648326,2.648326 0 1 0 4.5811394,-2.64806 c -11.6714294,-20.21555 -4.7640994,-45.99009 15.45144,-57.66154 20.21555,-11.6714504 45.99008,-4.7641104 57.66153,15.45144 11.67146,20.21554 4.76868,45.99 -15.47129,57.68806 a 2.648326,2.648326 0 0 0 -0.10593,0.06 c -7.4425,4.7498 -17.53597,6.3122 -25.81859,4.6805 -8.28262,-1.6318 -14.37418,-6.0685 -15.5375,-13.2205 -0.3041,-1.86952 0.57253,-7.56584 2.48918,-14.16709 1.91665,-6.60125 4.70498,-14.39348 7.61979,-21.82002 2.91482,-7.42655 5.95937,-14.50269 8.38774,-19.70158 0.80667,-1.727 1.40182,-2.85014 2.039,-4.09787 0.54084,1.5883 1.07538,3.15187 1.76758,5.43514 1.90724,6.29112 4.26567,14.77827 6.50099,23.30956 2.20718,8.42388 4.29028,16.87063 5.72644,23.34266 -0.2016,-0.28184 -0.34452,-0.52853 -0.5561,-0.81428 -4.43164,-5.98528 -11.16233,-12.8735 -20.89982,-14.94831 a 2.6500837,2.6500837 0 0 0 -1.10556,5.18358 c 7.86553,1.67595 13.69471,7.44079 17.74863,12.91592 2.02695,2.73757 3.58179,5.36009 4.75327,7.30869 0.58573,0.9742 1.05963,1.7584 1.55573,2.4362 0.24805,0.3389 0.45838,0.6558 0.97316,1.0592 0.2574,0.2017 0.60599,0.4643 1.26445,0.6024 0.65846,0.1382 1.69234,-0.053 2.30382,-0.523 1.29376,-0.9952 1.07685,-1.6994 1.12542,-2.125 0.0486,-0.4256 0.0404,-0.76 0.0198,-1.1321 -0.041,-0.7442 -0.15074,-1.598 -0.31777,-2.6414 -0.33403,-2.08675 -0.89763,-4.88279 -1.62854,-8.18914 -1.46182,-6.6127 -3.5907,-15.23856 -5.83898,-23.81931 -2.24828,-8.58075 -4.61455,-17.10435 -6.55395,-23.50154 -0.9697,-3.1986 -1.82739,-5.85575 -2.53552,-7.77868 -0.35406,-0.96148 -0.66518,-1.73048 -0.9864,-2.37664 -0.16061,-0.32308 -0.30053,-0.60598 -0.58257,-0.97316 -0.14103,-0.18359 -0.31003,-0.3972 -0.67526,-0.66202 -0.36522,-0.26482 -1.09005,-0.6649004 -2.07211,-0.50975 -1.33295,0.21059 -1.50603,0.70362 -1.76758,0.97978 -0.26155,0.27617 -0.43993,0.52089 -0.62891,0.79442 -0.37797,0.54707 -0.76197,1.20029 -1.20487,2.00591 -0.8858,1.61124 -1.97945,3.81664 -3.22401,6.48113 -2.48914,5.32898 -5.56498,12.47677 -8.52014,20.0061 -2.95516,7.52933 -5.78369,15.42855 -7.77206,22.27682 -1.98837,6.84826 -3.3081,12.35816 -2.63482,16.49738 1.58494,9.7441 10.0764,15.6579 19.74791,17.5633 9.6357,1.8983 20.81781,0.2038 29.59209,-5.3557 0.0243,-0.015 0.0486,-0.031 0.0728,-0.046 0.009,0 0.0179,-0.01 0.0265,-0.013 22.63605,-13.1555 30.394875,-42.19689 17.3117,-64.85762 C 82.134315,10.762232 65.563465,2.2004416 48.713775,2.6313216 z" id="path3943" style="font-size:medium;font-style:normal;font-variant:normal;font-weight:normal;font-stretch:normal;text-indent:0;text-align:start;text-decoration:none;line-height:normal;letter-spacing:normal;word-spacing:normal;text-transform:none;direction:ltr;block-progression:tb;writing-mode:lr-tb;text-anchor:start;baseline-shift:baseline;color:#000000;fill:#000000;fill-opacity:1;stroke:none;stroke-width:25;marker:none;visibility:visible;display:inline;overflow:visible;enable-background:accumulate;font-family:Sans;-inkscape-font-specification:Sans"/>
</svg>