<svg xmlns:dc="http://purl.org/dc/elements/1.1/" xmlns:cc="http://creativecommons.org/ns#" xmlns:rdf="http://www.w3.org/1999/02/22-rdf-syntax-ns#" xmlns:svg="http://www.w3.org/2000/svg" xmlns="http://www.w3.org/2000/svg" xmlns:sodipodi="http://sodipodi.sourceforge.net/DTD/sodipodi-0.dtd" xmlns:inkscape="http://www.inkscape.org/namespaces/inkscape" version="1.1" width="100" height="100" id="svg2" inkscape:version="0.48.2 r9819" sodipodi:docname="atheism_curved.svg">
  <sodipodi:namedview pagecolor="#ffffff" bordercolor="#666666" borderopacity="1" objecttolerance="10" gridtolerance="10" guidetolerance="10" inkscape:pageopacity="0" inkscape:pageshadow="2" inkscape:window-width="640" inkscape:window-height="480" id="namedview6" showgrid="false" inkscape:zoom="2.36" inkscape:cx="50" inkscape:cy="50" inkscape:window-x="220" inkscape:window-y="0" inkscape:window-maximized="0" inkscape:current-layer="svg2"/>
  <metadata id="metadata8">
    <rdf:RDF>
      <cc:Work rdf:about="">
        <dc:format>image/svg+xml</dc:format>
        <dc:type rdf:resource="http://purl.org/dc/dcmitype/StillImage"/>
        <dc:title/>
      </cc:Work>
    </rdf:RDF>
  </metadata>
  <defs id="defs6"/>
  <path d="m 50.001152,1.8432583 c -2.290689,-0.01976 -4.569821,0.127173 -6.808085,0.432807 -6.416889,0.877388 -12.48729,3.07667 -17.793078,6.2379132 -2.781665,1.6573375 -5.355607,3.5808265 -7.680564,5.7020575 -2.324957,2.121232 -4.401027,4.440907 -6.203533,6.904299 -1.8460809,2.523441 -3.4015999,5.189249 -4.6715419,7.92792 -1.269942,2.738674 -2.257912,5.548001 -2.960933,8.367598 -1.0702331,4.292473 -1.4913041,8.602108 -1.3602431,12.743754 0.05766,1.822212 0.222357,3.530572 0.453414,5.111242 0.240912,1.648295 0.5540211,3.158479 0.9068291,4.541036 0.352808,1.382557 0.742856,2.630812 1.140406,3.757862 0.7951,2.254097 1.614275,4.011898 2.308291,5.34482 0.694016,1.332922 1.269883,2.245091 1.64878,2.796069 0.378896,0.550979 0.568732,0.745074 0.563333,0.611425 -0.0054,-0.133648 -0.207181,-0.594684 -0.556464,-1.373989 -0.349282,-0.779305 -0.851685,-1.881324 -1.415202,-3.311316 -0.563516,-1.429989 -1.189889,-3.187544 -1.758698,-5.28299 -0.568809,-2.095447 -1.077828,-4.527932 -1.367113,-7.268405 -0.258507,-2.442026 -0.340279,-5.128972 -0.137398,-8.01036 0.202881,-2.881388 0.692104,-5.96039 1.58008,-9.123292 0.711823,-2.535891 1.681834,-5.129361 2.947193,-7.708083 1.2653599,-2.578721 2.8278319,-5.143072 4.7127619,-7.591293 1.703228,-2.213893 3.672117,-4.33078 5.901256,-6.286003 2.229141,-1.955223 4.713225,-3.748584 7.426378,-5.28986 2.465784,-1.4007245 5.123988,-2.5938115 7.927881,-3.5311547 2.803894,-0.937339 5.759153,-1.61921 8.80036,-1.978545 2.740353,-0.324956 5.55609,-0.390518 8.395035,-0.185488 2.838946,0.20503 5.70015,0.680648 8.518694,1.449559 5.355618,1.4607052 10.5745,3.9793827 15.18251,7.4882447 4.58781,3.490248 8.57577,7.988552 11.54833,13.169691 2.88216,5.023704 4.8201,10.700988 5.53715,16.590926 0.67962,5.560653 0.2829,11.327155 -1.20224,16.838244 -1.46266,5.429124 -3.98785,10.627472 -7.4195,15.161976 -3.53619,4.665827 -8.05127,8.64063 -13.16276,11.596474 -3.93669,2.523277 -8.4852,4.159412 -13.176496,4.994452 -4.585737,0.796697 -9.303537,0.831523 -13.808528,-0.05496 -4.07892,-0.825332 -7.994604,-2.334962 -10.998733,-4.843314 -1.392179,-1.149281 -2.603135,-2.494342 -3.496786,-3.99144 -0.925137,-1.532933 -1.545197,-3.267243 -1.841138,-5.049411 -0.119281,-0.645907 -0.101512,-1.411369 -0.06183,-2.267083 0.06289,-1.109262 0.2206,-2.247965 0.419065,-3.414364 0.522555,-3.056584 1.318859,-6.095328 2.191503,-9.143901 1.067899,-3.721086 2.275146,-7.397829 3.538006,-11.033138 1.37085,-3.945151 2.814253,-7.83149 4.300566,-11.665172 2.741008,-7.068107 5.592379,-13.935972 8.621743,-20.513667 0.880723,-1.910068 1.751744,-3.775748 2.686136,-5.564658 0.302635,0.838936 0.594346,1.692843 0.879349,2.548751 0.491644,1.477349 0.956321,2.954913 1.415203,4.431116 1.17778,3.789051 2.275594,7.533085 3.331908,11.211756 1.269404,4.420991 2.470146,8.740507 3.613575,12.942984 1.219822,4.483334 2.375742,8.830581 3.455567,13.025422 1.020005,3.962725 1.973483,7.783764 2.837275,11.459075 0.369192,1.570911 0.726469,3.110855 1.051096,4.623475 0.121966,0.568725 0.237919,1.132556 0.350366,1.690007 -0.583704,-0.922091 -1.165822,-1.829916 -1.758697,-2.70676 -1.109457,-1.640767 -2.240845,-3.183719 -3.393738,-4.609736 -1.579832,-1.95799 -3.205889,-3.703006 -4.836419,-5.200551 -1.630531,-1.497548 -3.266433,-2.746955 -4.85016,-3.771602 -2.300878,-1.486731 -4.489213,-2.472999 -6.375281,-3.098346 -1.753112,-0.580818 -3.239939,-0.855878 -4.383005,-0.989273 -1.143068,-0.133396 -1.941968,-0.124842 -2.37012,-0.0687 -0.480615,0.06302 -0.687957,0.156074 -0.632032,0.267928 0.05592,0.111854 0.372059,0.24488 0.920568,0.412197 0.548509,0.167317 1.33541,0.37513 2.322031,0.686995 0.986621,0.311865 2.173742,0.722255 3.510526,1.3259 1.701945,0.767368 3.646219,1.854253 5.68142,3.373145 1.410702,1.050302 2.85933,2.307216 4.307436,3.792211 1.448107,1.484995 2.898655,3.195726 4.321176,5.111242 1.034851,1.398078 2.055773,2.911464 3.063982,4.527296 0.762464,1.222046 1.514762,2.515769 2.294551,3.860912 0.286868,0.495132 0.581492,1.004522 0.893089,1.525128 0.225604,0.378975 0.474875,0.78907 0.769431,1.21598 0.136738,0.234612 0.416998,0.58714 0.886218,1.016753 0.106591,0.14732 0.443381,0.33581 1.016748,0.535856 0.608015,0.16511 1.252919,0.03751 1.916709,-0.391587 0.51945,-0.511991 0.76876,-0.875882 0.76256,-1.071712 0.097,-0.307301 0.14467,-0.531464 0.15114,-0.666385 0.0455,-0.442999 0.046,-0.802316 0.0275,-1.064842 -0.0446,-0.948691 -0.1694,-1.843624 -0.29541,-2.67928 -0.18433,-1.249266 -0.40331,-2.496332 -0.6389,-3.750993 -0.29145,-1.553415 -0.6125,-3.129927 -0.94805,-4.726524 C 67.889348,66.185837 67.012208,62.310423 66.063012,58.307367 65.059187,54.073612 63.971239,49.689679 62.813543,45.165154 61.730242,40.931268 60.58232,36.570994 59.357976,32.105382 58.341655,28.3982 57.27843,24.615103 56.122246,20.763097 55.672288,19.263913 55.205652,17.745379 54.713914,16.222061 54.339361,15.060878 53.947425,13.882109 53.511679,12.690908 53.350413,12.2498 53.177205,11.796996 52.989565,11.337528 52.852675,10.999772 52.692668,10.633303 52.501801,10.245207 52.407081,10.025289 52.225675,9.6956825 51.917858,9.2696735 51.849588,9.1436305 51.629507,8.9255535 51.258347,8.6238985 51.121441,8.5065855 50.87408,8.3765925 50.516396,8.2391815 50.20608,8.1131163 49.786732,8.0733193 49.259202,8.1292613 48.562113,8.3109845 48.16368,8.4825135 48.056967,8.6307685 c -0.254379,0.193748 -0.426267,0.34775 -0.515244,0.453416 -0.295474,0.323095 -0.498679,0.599106 -0.632032,0.803784 -0.493038,0.7185205 -0.892608,1.4178035 -1.243455,2.0609845 -1.214796,2.20572 -2.29587,4.459021 -3.345648,6.705071 -3.116938,6.660512 -6.044676,13.609029 -8.84158,20.754114 -1.515142,3.86961 -2.98655,7.809633 -4.389875,11.823182 -1.289091,3.685851 -2.527539,7.444502 -3.634185,11.287325 -0.901579,3.122687 -1.738915,6.342327 -2.315161,9.679758 -0.220802,1.273338 -0.398501,2.593881 -0.480894,3.96396 -0.07039,1.02331 -0.07171,2.152824 0.116789,3.366274 0.393113,2.381962 1.233656,4.702992 2.493779,6.801249 1.226085,2.025604 2.803846,3.794272 4.602842,5.262381 3.855605,3.119117 8.502547,4.960941 13.197106,5.839456 5.144508,0.985937 10.454059,0.945217 15.587835,0.0206 5.207215,-0.919944 10.302897,-2.786299 14.818407,-5.695187 5.59468,-3.275864 10.52924,-7.675155 14.39934,-12.874284 3.74808,-5.0296 6.48967,-10.769561 8.05841,-16.797023 1.57747,-6.062136 1.96645,-12.392207 1.15414,-18.535122 -0.85327,-6.437483 -3.02642,-12.629406 -6.26536,-18.122925 C 87.529631,19.843238 83.139971,14.991853 78.044141,11.220729 73.018481,7.5034943 67.334865,4.8399493 61.4533,3.3340383 57.672725,2.3661783 53.818967,1.8761913 50.001152,1.8432593 z M 68.879681,80.985067 c 0.0412,0.02108 0.0589,0.03973 0.0481,0.04809 -0.01,0.0015 -0.0256,-0.02163 -0.0481,-0.04809 z" id="path3932" style="color:#000000;fill:#000000;fill-opacity:1;stroke:none;stroke-width:59.40000152999999727;marker:none;visibility:visible;display:inline;overflow:visible;enable-background:accumulate"/>
</svg>