<svg xmlns="http://www.w3.org/2000/svg" xmlns:xlink="http://www.w3.org/1999/xlink" version="1.1" id="Layer_1" x="0px" y="0px" width="100px" height="87.4534161491px" viewBox="0 0 2415.12 2112" enable-background="new 0 0 2415.12 2112" xml:space="preserve">
<path d="M663.402,218.008c0,0-208.605,5.109-229.168,300.406c-20.633,295.25,30.848,1195.055,30.848,1195.055l170.227-0.203v94.391  c0,31.656,25.676,57.328,57.328,57.328h69.691c31.652,0,57.324-25.672,57.324-57.328v-94.594l830.383-1.008v95.602  c0,31.656,25.605,57.328,57.324,57.328h69.625c31.656,0,57.395-25.672,57.395-57.328v-95.805l148.188-0.133  c0,0,51.477-899.734,30.914-1195.047c-20.566-295.305-229.168-300.406-229.168-300.406S1545,179.875,1223,179.875  C875,179.875,663.402,218.008,663.402,218.008z M919.25,228.563h629.441c33.668,0,60.953,25.203,60.953,56.18  c0,31.055-27.285,56.25-60.953,56.25H919.25c-33.668,0-60.953-25.195-60.953-56.25C858.297,253.766,885.582,228.563,919.25,228.563z   M724.492,1483.156c-45.164,0-81.723-36.555-81.723-81.719s36.559-81.789,81.723-81.789c45.16,0,81.719,36.625,81.719,81.789  S769.652,1483.156,724.492,1483.156z M1743.785,1483.094c-45.094,0-81.719-36.492-81.719-81.727  c0-45.156,36.625-81.719,81.719-81.719c45.164,0,81.789,36.563,81.789,81.719  C1825.574,1446.602,1788.949,1483.094,1743.785,1483.094z M1872.887,1044.578c0,67.273-54.504,121.773-121.773,121.773H711.789  c-67.273,0-121.773-54.5-121.773-121.773V515.125c0-67.273,54.5-121.781,121.773-121.781h1039.324  c67.27,0,121.773,54.508,121.773,121.781V1044.578z"/>
</svg>