<svg xmlns="http://www.w3.org/2000/svg" xmlns:xlink="http://www.w3.org/1999/xlink" version="1.1" id="Calque_1" x="0px" y="0px" width="100px" height="100px" viewBox="0 0 100 100" enable-background="new 0 0 100 100" xml:space="preserve">
<path d="M68.019,80.941C45.114,94.165,18.605,91.054,8.75,73.984s0.704-41.582,23.609-54.806  C55.264,5.955,81.771,9.066,91.627,26.135C101.481,43.205,90.922,67.718,68.019,80.941z M84.728,30.119  c-8.21-14.219-30.319-16.814-49.399-5.798S7.44,55.781,15.65,70.001c8.209,14.219,30.319,16.814,49.4,5.799  C84.13,64.783,92.937,44.338,84.728,30.119z M62.072,70.643c-15.277,8.819-32.929,6.748-39.502-4.638  c-6.573-11.384,0.459-27.708,15.735-36.527c15.277-8.82,32.929-6.748,39.502,4.636C84.381,45.499,77.349,61.822,62.072,70.643z   M70.907,38.098c-4.928-8.534-18.182-10.09-29.633-3.479C29.822,41.231,24.542,53.487,29.47,62.021  c4.928,8.535,18.182,10.092,29.634,3.479C70.556,58.89,75.835,46.633,70.907,38.098z"/>
<g>
</g>
</svg>