<svg xmlns="http://www.w3.org/2000/svg" xmlns:xlink="http://www.w3.org/1999/xlink" version="1.1" id="Layer_1" x="0px" y="0px" width="87.502px" height="100px" viewBox="0 0 87.502 100" enable-background="new 0 0 87.502 100" xml:space="preserve">
<g>
	<path fill="#000000" d="M87.502,9.376v46.872L43.75,31.25H0V9.376C0,4.197,4.197,0,9.375,0h68.751   C83.302,0,87.502,4.197,87.502,9.376z M78.126,21.874V9.376c0-1.727-1.397-3.128-3.13-3.128H50.002   c-1.729,0-3.128,1.401-3.128,3.128v12.498c0,1.724,1.398,3.125,3.128,3.125h24.994C76.729,24.999,78.126,23.599,78.126,21.874z    M40.628,21.874V9.376c0-1.727-1.402-3.128-3.128-3.128H12.5c-1.727,0-3.125,1.401-3.125,3.128v12.498   c0,1.724,1.398,3.125,3.125,3.125H37.5C39.226,24.999,40.628,23.599,40.628,21.874z"/>
	<path fill="#000000" d="M87.502,56.248v34.377c0,5.176-4.2,9.375-9.376,9.375H9.375C4.197,100,0,95.801,0,90.625V32.812h43.75   v23.437H87.502L87.502,56.248z"/>
</g>
</svg>