<svg xmlns="http://www.w3.org/2000/svg" xmlns:xlink="http://www.w3.org/1999/xlink" version="1.1" id="Layer_1" width="100" height="82.438" viewBox="0 0 100 82.438" overflow="visible" enable-background="new 0 0 100 82.438" xml:space="preserve">
<g>
	<path fill="#000000" d="M25.015,76.187l1.487,0.787c0,0,9.247-18.743,9.835-19.942c1.123,0.592,9.415,4.865,9.415,4.865   l0.888-1.331l-11.108-5.87L25.015,76.187z"/>
	<polygon fill="#000000" points="35.532,54.695 36.912,56.068 94.658,5.65 93.666,4.568  "/>
	<g>
		<g>
			<g>
				<path fill="#000000" d="M4.635,42.104c0,0,20.038,11.119,20.934,11.61c-0.031,0.986-0.636,24.503-0.636,24.503      s20.02-15.202,20.884-15.867c0.97,0.484,16.544,8.269,16.544,8.269L95.689,3.997L4.635,42.104z M91.953,7.446      c-1.943,3.89-29.65,59.282-30.412,60.81c-1.481-0.749-15.924-7.964-15.924-7.964S29.4,72.599,26.824,74.554      c0.084-3.129,0.57-21.827,0.57-21.827S11.28,43.78,8.641,42.317C11.723,41.03,87.807,9.185,91.953,7.446z"/>
			</g>
			<path fill="#000000" d="M0,41.846c0,0,21.516,11.943,23.446,13.017c-0.055,2.162-0.71,27.575-0.71,27.575     s21.413-16.25,23.317-17.698c2.055,1.02,17.259,8.615,17.259,8.615L100,0L0,41.846z M91.37,7.995     c-4.058,8.112-28.327,56.636-29.952,59.887c-2.984-1.486-15.827-7.906-15.827-7.906S31.968,70.316,27.119,73.996     c0.16-5.832,0.562-21.431,0.562-21.431S14.2,45.096,9.269,42.361C15.834,39.599,82.618,11.65,91.37,7.995z"/>
		</g>
	</g>
	<polygon fill="#000000" points="25.646,53.153 26.512,54.39 91.96,7.832 91.105,6.609  "/>
</g>
</svg>