<svg xmlns="http://www.w3.org/2000/svg" xmlns:xlink="http://www.w3.org/1999/xlink" version="1.1" id="Layer_1" width="100" height="81.09" viewBox="0 0 100 81.09" overflow="visible" enable-background="new 0 0 100 81.09" xml:space="preserve">
<path fill="#000000" d="M61,29.282c0.01-0.001,0.021-0.002,0.031-0.003c-0.705-0.461-1.449-0.869-2.207-1.245  c-0.212-0.106-0.425-0.212-0.641-0.311c-0.305-0.138-0.611-0.268-0.923-0.394c-0.298-0.114-0.601-0.222-0.903-0.329  c-0.257-0.087-0.513-0.185-0.773-0.265c-0.55-0.166-1.109-0.31-1.679-0.432c-0.208-0.045-0.419-0.08-0.629-0.118  c-0.444-0.08-0.89-0.148-1.343-0.203c-0.199-0.024-0.398-0.05-0.6-0.067c-0.643-0.06-1.289-0.098-1.947-0.098  c-0.689,0-1.367,0.038-2.038,0.101c-0.239,0.023-0.474,0.064-0.711,0.094c-0.422,0.054-0.843,0.114-1.257,0.191  c-0.289,0.056-0.573,0.124-0.859,0.188c-0.346,0.082-0.688,0.168-1.027,0.266c-0.316,0.091-0.628,0.187-0.938,0.29  c-0.284,0.098-0.564,0.202-0.842,0.311c-0.338,0.13-0.677,0.261-1.009,0.409c-0.21,0.095-0.414,0.199-0.622,0.299  c-1.438,0.701-2.794,1.543-4.034,2.532c-4.904,3.92-8.053,9.94-8.053,16.708c0,11.815,9.574,21.391,21.391,21.391  c11.814,0,21.39-9.575,21.39-21.391C70.777,39.682,66.877,33.091,61,29.282z M47.247,48.686c-4.135,0-7.487-3.354-7.487-7.491  c0-4.132,3.353-7.485,7.487-7.485c4.136,0,7.487,3.354,7.487,7.485C54.734,45.331,51.383,48.686,47.247,48.686z M99.198,10.446  c0-0.002-0.002-0.004-0.002-0.005c-0.145-0.314-0.306-0.612-0.483-0.895c-0.209-0.314-0.425-0.623-0.688-0.888  c-1.344-1.34-3.278-1.983-5.92-1.983h-51.45c0,0-0.224-0.014-0.349-0.019c-0.097-0.387-0.277-1.082-0.277-1.082  c-0.392-1.463-0.872-3.25-3.054-4.553C35.715,0.306,34.062,0,31.575,0H18.566c-3.458,0-4.845,0.396-5.858,0.987  c-1.929,1.129-2.709,3.326-3.126,4.88c0,0-0.079,0.313-0.155,0.614c-0.307,0-0.727,0-0.727,0s0,0.166,0,0.194  c-0.369,0-0.771,0-0.771,0C3.112,6.676,0,9.798,0,14.637v28.402v34.287c0,2.076,1.688,3.764,3.763,3.764h92.476  c2.073,0,3.762-1.688,3.762-3.764V14.604C100,12.936,99.714,11.579,99.198,10.446z M95.145,76.237c-2.104,0-88.188,0-90.291,0  c0-1.176,0-20.178,0-36.771c0-3.159,0-6.23,0-9.074h22.418c5.082-6.671,13.083-10.994,22.115-10.994c0.9,0,1.787,0.053,2.664,0.139  c0.13,0.012,0.258,0.02,0.387,0.033c0.836,0.092,1.656,0.224,2.467,0.389c0.146,0.03,0.295,0.062,0.441,0.092  c0.811,0.18,1.609,0.388,2.393,0.635c0.102,0.033,0.202,0.069,0.301,0.103c1.643,0.54,3.216,1.23,4.705,2.052  c0.092,0.052,0.186,0.1,0.276,0.15c0.714,0.406,1.407,0.843,2.079,1.306c0.1,0.069,0.197,0.139,0.296,0.208  c0.674,0.479,1.329,0.984,1.958,1.518c0.055,0.045,0.108,0.1,0.162,0.144c0.651,0.564,1.279,1.151,1.877,1.771  c0.001,0.003,0.003,0.003,0.004,0.007c0.001,0,0.002,0,0.002,0c0.744,0.775,1.449,1.592,2.1,2.449h23.646  C95.145,48.188,95.145,74.84,95.145,76.237z"/>
</svg>