<svg xmlns="http://www.w3.org/2000/svg" xmlns:xlink="http://www.w3.org/1999/xlink" version="1.1" id="Layer_1" x="0px" y="0px" width="100px" height="100px" viewBox="-14.5 0 100 100" enable-background="new -14.5 0 100 100" xml:space="preserve">
<g>
	<g>
		<path fill="#000000" d="M35.457,17.197L1.981,31.953c-0.641-0.547-1.462-0.891-2.373-0.891c-1.982,0-3.589,1.579-3.654,3.547    l-10.407,4.587l10.391,4.58v14.875h-1.986l-2.068,22.035H3.421L1.353,58.651h-1.949V45.305l8.749,3.856c0,5.062,0,15.424,0,19.398    c0,6.781,27.307,12.277,27.307,12.277s27.308-5.496,27.308-12.277c0-3.976,0-14.341,0-19.401l22.602-9.962L35.457,17.197z     M35.46,40.768c14.529,0,22.142,5.286,22.142,7.115v19.866c-2.295,2.216-12.143,5.7-22.142,7.815    c-9.834-2.079-19.849-5.623-22.142-7.816V47.883C13.318,46.054,20.931,40.768,35.46,40.768z"/>
	</g>
</g>
</svg>