<svg xmlns="http://www.w3.org/2000/svg" xmlns:xlink="http://www.w3.org/1999/xlink" version="1.1" id="Layer_1" x="0px" y="0px" width="100px" height="100px" viewBox="0 0 100 100" enable-background="new 0 0 100 100" xml:space="preserve">
<path stroke="#000000" stroke-width="2.4236" stroke-miterlimit="10" d="M79.544,68.781"/>
<path fill="none" d="M60.054,20.167v1.792h-6.666v-2.728H33.711v2.728h-2.726v20.163h2.726v2.806h19.676v-2.806h6.666v1.851  c1.497-0.504,2.773-1.199,3.791-2.104c1.947-1.731,3.062-4.466,3.339-8.131h-2.585v-6.664h2.081  c-0.551-2.048-1.489-3.676-2.829-4.845C62.831,21.343,61.553,20.663,60.054,20.167z"/>
<path d="M79.784,56.637c1.632,1.419,2.981,3.118,4.011,5.049c1.038,1.941,1.805,4.118,2.283,6.462  c0.48,2.366,0.815,4.771,0.992,7.142c0.089,1.519,0.178,3.297,0.268,5.346c0.086,2.056,0.244,4.188,0.471,6.331  c0.225,2.16,0.59,4.239,1.087,6.177c0.124,0.486,0.271,0.949,0.425,1.402h1.294c-0.204-0.543-0.392-1.104-0.543-1.703  c-0.484-1.881-0.84-3.899-1.057-6.003c-0.224-2.12-0.381-4.224-0.467-6.258c-0.09-2.055-0.179-3.84-0.269-5.371  c-0.18-2.432-0.522-4.89-1.015-7.304c-0.501-2.46-1.309-4.744-2.401-6.791c-1.099-2.062-2.54-3.876-4.286-5.394  c-1.004-0.872-2.181-1.61-3.492-2.23v1.339C78.09,55.351,78.994,55.95,79.784,56.637z"/>
<path d="M72.253,4.932c2.485,1.002,4.722,2.293,6.684,3.845V8.191h1.181c-2.158-1.784-4.632-3.263-7.411-4.384  c-1.687-0.678-3.485-1.191-5.383-1.544V3.5C69.059,3.837,70.708,4.311,72.253,4.932z"/>
<path d="M84.809,42.957c-1.728,2.998-4.318,5.479-7.724,7.409v1.381c3.889-2.081,6.837-4.821,8.772-8.185  c1.666-2.888,2.749-6.184,3.268-9.824h-1.224C87.395,37.157,86.369,40.249,84.809,42.957z"/>
<rect x="12.695" y="1.69" width="47.964" height="1.211"/>
<rect x="8.756" y="5.628" width="1.212" height="88.917"/>
<path d="M69.139,86.996c-0.267-4.172-0.674-8.238-1.208-12.095c-0.302-2.086-0.753-3.943-1.335-5.589h-1.29  c0.629,1.661,1.109,3.574,1.424,5.758c0.531,3.823,0.934,7.861,1.198,12.003c0.173,2.719,0.539,5.216,1.09,7.472h1.261  C69.704,92.282,69.314,89.767,69.139,86.996z"/>
<rect x="29.773" y="63.86" width="1.212" height="30.685"/>
<path d="M62.099,62.646c-2.459-1.805-6.045-2.724-10.702-2.724H33.711v1.213h17.685c3.95,0,7.045,0.682,9.263,2.016v-0.505H62.099z"/>
<rect x="12.695" y="97.273" width="14.352" height="1.212"/>
<rect x="73.988" y="97.273" width="14.372" height="1.212"/>
<path d="M63.851,22.229c1.34,1.168,2.278,2.797,2.829,4.845h1.263c-0.598-2.436-1.697-4.366-3.295-5.758  c-1.23-1.07-2.77-1.877-4.594-2.428v1.28C61.553,20.663,62.831,21.343,63.851,22.229z"/>
<rect x="33.711" y="44.928" width="19.676" height="1.211"/>
<rect x="33.711" y="18.02" width="19.676" height="1.211"/>
<rect x="29.773" y="21.959" width="1.212" height="20.163"/>
<path d="M63.845,41.869c-1.018,0.905-2.294,1.6-3.791,2.104v1.283c1.828-0.562,3.368-1.388,4.599-2.481  c2.205-1.963,3.463-4.999,3.751-9.037h-1.22C66.907,37.403,65.792,40.138,63.845,41.869z"/>
<rect x="7.241" y="0.174" width="4.241" height="4.243"/>
<rect x="61.872" y="0.174" width="4.239" height="4.243"/>
<rect x="28.257" y="16.508" width="4.243" height="4.241"/>
<rect x="28.257" y="43.333" width="4.243" height="4.243"/>
<rect x="28.257" y="58.408" width="4.243" height="4.238"/>
<rect x="61.872" y="63.86" width="4.239" height="4.239"/>
<rect x="28.257" y="95.757" width="4.243" height="4.243"/>
<rect x="7.241" y="95.757" width="4.241" height="4.243"/>
<rect x="68.536" y="95.757" width="4.24" height="4.243"/>
<rect x="89.57" y="95.757" width="4.242" height="4.243"/>
<rect x="71.633" y="50.777" width="4.239" height="4.24"/>
<rect x="65.812" y="28.287" width="4.239" height="4.24"/>
<rect x="54.601" y="16.508" width="4.239" height="4.241"/>
<rect x="54.601" y="43.333" width="4.239" height="4.243"/>
<rect x="80.149" y="9.403" width="4.242" height="4.24"/>
<path d="M91.086,32.527v-4.24h-1.623V3.978c0.881-0.262,1.527-1.069,1.527-2.035c0-1.179-0.956-2.133-2.134-2.133  c-1.18,0-2.133,0.954-2.133,2.133c0,0.966,0.645,1.773,1.527,2.035v16.319c-0.221-0.712-0.471-1.413-0.751-2.099  c-0.526-1.288-1.179-2.503-1.897-3.675v0.333h-1.211c0.764,1.205,1.44,2.465,1.986,3.8c1.07,2.624,1.686,5.449,1.85,8.419h0.023  v1.213h-1.404v4.24h1.404V56.7c-0.882,0.26-1.527,1.068-1.527,2.034c0,1.178,0.956,2.133,2.133,2.133  c1.18,0,2.134-0.955,2.134-2.133c0-0.966-0.646-1.774-1.527-2.035V32.527H91.086z"/>
</svg>