<?xml version="1.0" encoding="utf-8"?>
<!-- Generator: Adobe Illustrator 15.1.0, SVG Export Plug-In . SVG Version: 6.00 Build 0)  -->
<!DOCTYPE svg PUBLIC "-//W3C//DTD SVG 1.1//EN" "http://www.w3.org/Graphics/SVG/1.1/DTD/svg11.dtd">
<svg version="1.1" id="Layer_1" xmlns="http://www.w3.org/2000/svg" xmlns:xlink="http://www.w3.org/1999/xlink" x="0px" y="0px"
	 width="59px" height="100px" viewBox="0 0 59 100" enable-background="new 0 0 59 100" xml:space="preserve">
<path d="M57.156,60.263C58.346,57.064,59,53.607,59,50c0-16.267-13.233-29.5-29.5-29.5c-3.533,0-6.923,0.626-10.065,1.77
	c3.453-4.817,7.759-9.96,12.984-15.534l-0.008-0.007C33.082,6.013,33.5,5.058,33.5,4c0-2.209-1.79-4-4-4
	c-1.15,0-2.18,0.493-2.91,1.271l-0.007-0.006C12.752,16.017,4.804,28.292,1.844,39.737C0.654,42.935,0,46.392,0,50
	c0,16.267,13.233,29.5,29.5,29.5c3.533,0,6.923-0.626,10.065-1.77c-3.453,4.816-7.759,9.959-12.984,15.533l0.008,0.008
	C25.918,93.986,25.5,94.941,25.5,96c0,2.209,1.79,4,4,4c1.15,0,2.18-0.492,2.91-1.271l0.007,0.007
	C46.248,83.983,54.197,71.707,57.156,60.263z M9,50c0-11.304,9.196-20.5,20.5-20.5S50,38.696,50,50s-9.196,20.5-20.5,20.5
	S9,61.304,9,50z"/>
</svg>
