<svg xmlns="http://www.w3.org/2000/svg" xmlns:xlink="http://www.w3.org/1999/xlink" version="1.1" id="Layer_1" x="0px" y="0px" width="100px" height="75.0px" viewBox="0 0 800 600" enable-background="new 0 0 800 600" xml:space="preserve">
<path d="M409.564,309.105c2.492-0.166,3.754,1.564,4.649,2.125c0.536,0.336,1.196-0.397,1.196-0.397v-3.574h4.93l3.357-3.013h0.916  l4.744,2.349h6.244l2.656-2.79h2.473l2.258,3.854h3.055l7.174-6.257v-3.587l-3.189-2.789H415.41v-3.587c0,0-0.66-0.733-1.196-0.399  c-0.896,0.561-2.157,2.293-4.649,2.126c-3.985-0.266-3.453-10.229-13.548-10.229c-7.97,0-9.166,4.097-11.956,9.277  c-2.392,0.133-7.971,1.594-8.197,8.921c0.227,7.328,5.806,8.789,8.197,8.922c2.79,5.182,3.986,9.277,11.956,9.277  C406.111,319.334,405.579,309.371,409.564,309.105z M415.251,301.261c-0.191,0-0.347-0.149-0.347-0.333  c0-0.185,0.155-0.334,0.347-0.334h37.139c0.192,0,0.348,0.149,0.348,0.334c0,0.184-0.155,0.333-0.348,0.333H415.251z   M384.233,304.744c-1.993,0-3.609-1.615-3.609-3.609c0-1.993,1.616-3.608,3.609-3.608c1.992,0,3.608,1.615,3.608,3.608  C387.841,303.129,386.225,304.744,384.233,304.744z"/>
</svg>