<svg xmlns="http://www.w3.org/2000/svg" xmlns:xlink="http://www.w3.org/1999/xlink" version="1.1" id="Layer_1" x="0px" y="0px" width="38.281px" height="100px" viewBox="0 0 38.281 100" enable-background="new 0 0 38.281 100" xml:space="preserve">
<g>
	<path d="M31.684,27.101v72.875c3.696-0.316,6.597-3.416,6.597-7.193V34.295C38.281,30.517,35.38,27.418,31.684,27.101z"/>
	<path d="M29.173,27.073H7.223C3.234,27.073,0,30.306,0,34.295v58.488c0,3.989,3.234,7.222,7.223,7.222h21.95V27.073z"/>
</g>
<path d="M29.879-0.008H8.403c-0.998,0-1.806,0.809-1.806,1.805v21.828h25.086V1.797C31.684,0.801,30.875-0.008,29.879-0.008z   M11.462,9.183h4.42v4.42h-4.42V9.183z M21.921,18.387H16.36c-0.27,0-0.49-0.219-0.49-0.491c0-0.271,0.22-0.491,0.49-0.491h5.561  c0.271,0,0.491,0.22,0.491,0.491C22.412,18.168,22.192,18.387,21.921,18.387z M26.819,13.603H22.4v-4.42h4.419V13.603z"/>
<g>
</g>
<g>
</g>
<g>
</g>
<g>
</g>
<g>
</g>
<g>
</g>
</svg>