<svg xmlns="http://www.w3.org/2000/svg" xmlns:xlink="http://www.w3.org/1999/xlink" version="1.1" id="Layer_1" x="0px" y="0px" width="100px" height="100px" viewBox="0 0 100 100" enable-background="new 0 0 100 100" xml:space="preserve">
<path d="M66.355,24.626c-3.578,0-21.418-0.343-21.418-7.102c0-6.758,17.84-7.102,21.418-7.102c3.576,0,21.414,0.343,21.414,7.102  C87.771,24.284,69.932,24.626,66.355,24.626z M50.435,17.525c2.113,1.006,7.612,2.315,15.92,2.315c8.308,0,13.805-1.31,15.916-2.315  c-2.111-1.005-7.61-2.315-15.916-2.315C58.047,15.21,52.548,16.52,50.435,17.525z"/>
<path d="M66.355,31.305c-9.793,0-19.705-1.851-19.705-5.389h1.362c0,1.682,6.977,4.026,18.342,4.026  c11.363,0,18.342-2.344,18.342-4.026h1.363C86.063,29.455,76.146,31.305,66.355,31.305z"/>
<polyline points="67.791,17.463 72.432,17.463 71.627,16.667 67.598,16.667 67.381,15.766 65.259,15.766 65.037,16.667   61.014,16.667 60.201,17.461 64.844,17.463 64.374,19.357 68.248,19.354 "/>
<path d="M35.478,50.891c-16.648,0-26.52-3.285-27.343-4.966v-3.96c6.713,3.205,19.032,4.202,27.343,4.201  c8.318,0,20.649-0.998,27.359-4.208l0.011,3.809c-0.373,0.808-2.5,1.892-6.17,2.855c2.423-0.265,4.583-0.34,5.947-0.34  c1.016,0,2.476,0.042,4.153,0.172c0.532-0.767,0.829-1.606,0.829-2.529v-9.508l-4.76-0.158c-0.85,1.837-10.722,5.121-27.37,5.121  s-26.52-3.283-27.343-4.963H3.349v9.508c0,7.216,17.747,9.473,29.798,9.727c1.601-2.577,5.304-4.091,9.212-4.967  C40.21,50.813,37.927,50.891,35.478,50.891z"/>
<path d="M35.478,48.63c-14.746,0-30.417-2.817-30.417-8.038h1.363c0,3.157,11.933,6.675,29.055,6.675  c17.123,0,29.054-3.518,29.054-6.675h1.363C65.896,45.813,50.224,48.63,35.478,48.63z"/>
<polyline points="43.322,36.814 42.287,34.341 28.673,34.341 27.636,36.812 "/>
<path d="M64.538,67.725c-11.935,0-32.13-2.054-32.13-9.75c0-7.698,20.195-9.75,32.13-9.75c11.933,0,32.128,2.054,32.128,9.75  C96.666,65.671,76.471,67.725,64.538,67.725z M37.26,57.975c1.318,1.863,11.099,4.965,27.278,4.965  c16.179,0,25.958-3.102,27.276-4.965c-1.32-1.863-11.104-4.965-27.276-4.965C48.363,53.01,38.581,56.111,37.26,57.975z"/>
<path d="M64.534,88.805c-11.933,0-32.128-2.053-32.128-9.748V57.975h4.786c0.823,1.68,10.697,4.965,27.342,4.965  c16.646,0,26.521-3.285,27.372-5.123l4.758,0.158v21.082C96.664,86.752,76.468,88.805,64.534,88.805z M37.192,63.523v15.531  c0.821,1.682,10.695,4.963,27.342,4.963c16.649,0,26.521-3.281,27.37-5.121l-0.021-15.379c-6.71,3.211-19.036,4.207-27.351,4.207  C56.225,67.725,43.905,66.729,37.192,63.523z"/>
<path d="M64.534,81.764c-14.744,0-30.417-2.82-30.417-8.041h1.363c0,3.158,11.934,6.678,29.054,6.678  c17.122,0,29.056-3.52,29.056-6.678h1.363C94.953,78.943,79.279,81.764,64.534,81.764z"/>
<polyline points="66.43,57.498 72.379,57.498 71.344,55.898 66.182,55.898 65.9,54.09 63.178,54.09 62.891,55.898 57.73,55.896   56.693,57.495 62.643,57.498 62.045,61.294 67.014,61.294 "/>
<g>
	<g>
		<path d="M35.478,26.665c-11.932,0-32.129,2.055-32.129,9.753c0,7.695,20.196,9.749,32.129,9.749    c11.932,0,32.129-2.054,32.129-9.749C67.607,28.72,47.41,26.665,35.478,26.665z M35.478,41.381    c-16.179,0-25.96-3.102-27.277-4.963c1.316-1.864,11.095-4.967,27.277-4.967c16.181,0,25.961,3.103,27.277,4.967    C61.436,38.279,51.657,41.381,35.478,41.381z"/>
	</g>
</g>
<g>
	<g>
		<path d="M82.986,17.526c0-0.31,0.121-0.525,0.162-0.576c-0.812,0.976-6.748,2.888-16.793,2.888    c-10.047,0-15.981-1.911-16.792-2.888c0.042,0.051,0.163,0.265,0.163,0.576h-4.787v9.827c1.401,0.071,3.053,0.205,4.787,0.442    v-5.416c5.549,2.093,14.249,2.245,16.629,2.245s11.078-0.152,16.631-2.246v8.212c-1.262,1.012-7.096,2.738-16.631,2.738    c-0.111,0-0.214-0.004-0.324-0.004c0.842,1.01,1.344,2.201,1.344,3.614c0,0.41-0.052,0.796-0.131,1.17    c4.968-0.067,20.527-0.782,20.527-7.094V17.526H82.986z"/>
	</g>
</g>
</svg>