<svg xmlns="http://www.w3.org/2000/svg" xmlns:xlink="http://www.w3.org/1999/xlink" version="1.1" id="Layer_1" width="100" height="85.71" viewBox="0 0 100 85.71" overflow="visible" enable-background="new 0 0 100 85.71" xml:space="preserve">
<g id="Discussion_3_">
	<path fill="#000000" d="M18.52,0C9.581,0.15,0,5.967,0,18.539v30.57c0.107,8.405,5.374,17.288,16.449,18.338   c0,3.217,0,18.263,0,18.263s26.046-17.342,27.168-18.062c1.365,0,37.845,0,37.845,0C90.419,67.532,100,61.678,100,49.109V18.515   C99.876,9.567,94.017,0,81.462,0H18.52z M4.688,49.089v-30.55c0-13.274,12.451-13.84,13.871-13.852h62.903   c13.257,0,13.838,12.415,13.851,13.85v30.572c0,13.27-12.472,13.839-13.872,13.851H42.202c0,0-15.825,10.49-21.065,13.989   c0-4.611,0-13.989,0-13.989H18.52C5.266,62.96,4.699,50.488,4.688,49.089z"/>
</g>
</svg>