<svg xmlns="http://www.w3.org/2000/svg" xmlns:xlink="http://www.w3.org/1999/xlink" version="1.1" id="Layer_1" width="44.954" height="99.999" viewBox="0 0 44.954 99.999" overflow="visible" enable-background="new 0 0 44.954 99.999" xml:space="preserve">
<g id="Testtube_2_">
	<g>
		<path fill="#000000" d="M42.487,0.06L2.474,0C1.11-0.004,0.003,1.101,0,2.466C-0.001,3.829,1.102,4.937,2.468,4.94    c2.361,0.001,3.451,5.216,3.593,7.633c0,0.193-0.108,70.461-0.108,70.461c-0.014,9.34,7.571,16.948,16.911,16.965    c9.343,0.014,16.953-7.572,16.966-16.913l0.109-70.558c0.01-3.069,1.01-7.531,2.541-7.527c1.363,0.001,2.47-1.104,2.475-2.467    C44.956,1.17,43.85,0.062,42.487,0.06z M36.341,4.99c-1.275,3.226-1.344,6.973-1.347,7.529l-0.107,70.56    c-0.009,6.614-5.397,11.99-12.016,11.981c-6.615-0.012-11.99-5.402-11.979-12.021L11,12.483c0-0.042-0.001-0.086-0.001-0.132    c-0.115-2.146-0.633-4.985-1.785-7.403C16.816,4.962,29.294,4.98,36.341,4.99z"/>
	</g>
	<g>
		<path fill="#000000" d="M22.451,20.786c-0.78-0.003-1.415,0.628-1.417,1.407c0,0.78,0.633,1.415,1.412,1.417l15.002,0.021    c0.781,0.002,1.414-0.631,1.416-1.41c0-0.781-0.63-1.414-1.412-1.412L22.451,20.786z"/>
	</g>
	<g>
		<path fill="#000000" d="M22.418,41.1c-0.778-0.002-1.413,0.63-1.415,1.41c0,0.78,0.631,1.412,1.41,1.413l15.003,0.023    c0.783,0,1.414-0.631,1.416-1.408c0.002-0.78-0.631-1.415-1.411-1.417L22.418,41.1z"/>
	</g>
	<g>
		<path fill="#000000" d="M22.389,61.105c-0.782-0.002-1.415,0.631-1.415,1.408c-0.002,0.782,0.63,1.415,1.41,1.415l15.005,0.024    c0.777,0,1.41-0.63,1.413-1.412c0.001-0.779-0.63-1.41-1.411-1.412L22.389,61.105z"/>
	</g>
</g>
</svg>