<?xml version="1.0" encoding="utf-8"?>
<!-- Generator: Adobe Illustrator 14.0.0, SVG Export Plug-In . SVG Version: 6.00 Build 43363)  -->
<!DOCTYPE svg PUBLIC "-//W3C//DTD SVG 1.0//EN" "http://www.w3.org/TR/2001/REC-SVG-20010904/DTD/svg10.dtd">
<svg version="1.0" id="Layer_1" xmlns="http://www.w3.org/2000/svg" xmlns:xlink="http://www.w3.org/1999/xlink" x="0px" y="0px"
	 width="100.001px" height="68.444px" viewBox="0 0 100.001 68.444" enable-background="new 0 0 100.001 68.444"
	 xml:space="preserve">
<path d="M99.916,35.466c0-1.655,0.39-3.862-0.504-5.35c-1.207-2.012-2.414-4.024-3.621-6.035c-0.123-0.206-0.265-0.373-0.414-0.522
	c-0.401-0.429-0.979-0.715-1.743-0.715c-3.182,0-6.362,0-9.542,0c-1.362,0-2.499,1.137-2.499,2.499c0,1.269,0,2.538,0,3.807
	c-0.674,0-1.349,0-2.023,0c0-1.27,0-2.539,0-3.807c0-1.362-1.136-2.499-2.498-2.499c-1.64,0-3.28,0-4.92,0
	c-1.142-1.586-2.282-3.172-3.424-4.757c-1.08-1.501-2.733-4.997-4.906-4.999c-4.115-0.004-8.229-0.008-12.345-0.012
	c0-0.774,0-1.549,0-2.323c4.129,0,8.258,0,12.388,0c1.362,0,2.498-1.136,2.498-2.499c0-1.919,0-3.836,0-5.754
	C66.362,1.137,65.227,0,63.864,0C51.054,0,38.244,0,25.433,0c-1.362,0-2.499,1.137-2.499,2.499c0,1.918,0,3.835,0,5.754
	c0,1.362,1.137,2.499,2.499,2.499c4.992,0,9.984,0,14.977,0c0,0.774,0,1.548,0,2.322c-4.993,0.004-9.985,0.008-14.977,0.013
	c-1.362,0-2.499,1.135-2.499,2.499c0,1.348,0,2.696,0,4.045c-2.519,0-5.037,0-7.556,0c-1.362,0-2.499,1.137-2.499,2.499
	c0,2.34,0,4.68,0,7.021c-0.773,0-1.547,0-2.32,0c0-2.34,0-4.68,0-7.021c0-1.362-1.137-2.499-2.499-2.499c-1.854,0-3.708,0-5.562,0
	C1.137,19.63,0,20.767,0,22.129c0,11.245,0,22.488,0,33.732c0,1.362,1.137,2.498,2.499,2.498c1.854,0,3.708,0,5.562,0
	c1.362,0,2.499-1.136,2.499-2.498c0-5.216,0-10.431,0-15.646c0.773,0,1.547,0,2.32,0c0,5.215,0,10.43,0,15.646
	c0,1.362,1.137,2.498,2.499,2.498c4.159,0,8.317,0,12.476,0c1.008,1.401,2.016,2.802,3.024,4.203
	c1.037,1.441,2.699,4.942,4.599,5.465c3.21,0.883,7.579,0.089,10.855,0.089c10.246,0,20.493,0,30.739,0
	c1.362,0,2.498-1.137,2.498-2.498c0-3.521,0-7.041,0-10.561c0.675,0,1.35,0,2.023,0c0,1.27,0,2.538,0,3.807
	c0,1.362,1.137,2.499,2.499,2.499c2.146,0,4.295,0,6.442,0c1.766,0,4.225,0.482,5.299-1.308c1.193-1.988,2.387-3.978,3.579-5.966
	c0.894-1.487,0.504-3.694,0.504-5.349C99.916,44.316,99.916,39.891,99.916,35.466z M92.219,56.366c-1.877,0-3.753,0-5.629,0
	c0-1.27,0-2.538,0-3.808c0-1.361-1.137-2.499-2.498-2.499c-2.34,0-4.681,0-7.021,0c-1.362,0-2.499,1.138-2.499,2.499
	c0,3.52,0,7.041,0,10.561c-12.387,0-24.776,0-37.164,0c-1.008-1.4-2.016-2.802-3.024-4.202c-1.037-1.441-2.699-4.942-4.599-5.465
	c-2.15-0.592-4.986-0.09-7.18-0.09c-1.576,0-3.152,0-4.728,0c0-5.215,0-10.43,0-15.646c0-1.362-1.137-2.499-2.499-2.499
	c-2.439,0-4.878,0-7.317,0c-1.362,0-2.499,1.137-2.499,2.499c0,5.216,0,10.431,0,15.646c-0.188,0-0.377,0-0.565,0
	c0-9.578,0-19.156,0-28.735c0.188,0,0.377,0,0.565,0c0,2.34,0,4.68,0,7.021c0,1.361,1.137,2.499,2.499,2.499
	c2.439,0,4.878,0,7.317,0c1.362,0,2.499-1.137,2.499-2.499c0-2.34,0-4.68,0-7.021c2.519,0,5.037,0,7.556,0
	c1.362,0,2.499-1.137,2.499-2.499c0-1.349,0-2.698,0-4.047c4.993-0.004,9.984-0.009,14.977-0.013
	c1.362-0.001,2.499-1.136,2.499-2.499c0-2.439,0-4.879,0-7.317c0-1.362-1.137-2.499-2.499-2.499c-4.993,0-9.984,0-14.977,0
	c0-0.252,0-0.504,0-0.757c11.145,0,22.29,0,33.434,0c0,0.252,0,0.505,0,0.757c-4.129,0-8.259,0-12.388,0
	c-1.362,0-2.499,1.137-2.499,2.499c0,2.438,0,4.878,0,7.317c0,1.363,1.137,2.497,2.499,2.499c4.54,0.004,9.079,0.009,13.619,0.013
	c1.816,2.526,3.634,5.052,5.451,7.578c1.662,2.309,3.986,2.372,6.524,2.266c0,1.241,0,2.482,0,3.722
	c0,1.361,1.137,2.499,2.499,2.499c2.34,0,4.681,0,7.021,0c1.361,0,2.498-1.137,2.498-2.499c0-1.27,0-2.539,0-3.807
	c1.876,0,3.752,0,5.629,0c0.501,0.834,1.001,1.669,1.502,2.503c0.396,0.661,0.793,1.322,1.189,1.983
	c0.004,0.005,0.005,0.007,0.008,0.012c0,3.254,0,6.509,0,9.764c0,3.182,0,6.362,0,9.544c0,0.093-0.004,0.159-0.008,0.232
	c-0.282,0.472-0.564,0.941-0.848,1.413C93.448,54.317,92.833,55.341,92.219,56.366z M94.905,52.018
	C94.865,52.521,94.757,52.443,94.905,52.018L94.905,52.018z"/>
</svg>
