<svg xmlns="http://www.w3.org/2000/svg" xmlns:xlink="http://www.w3.org/1999/xlink" version="1.1" id="Layer_1" x="0px" y="0px" width="100px" height="100px" viewBox="0 0 100 100" enable-background="new 0 0 100 100" xml:space="preserve">
<g>
	<g>
		<path fill="#000000" d="M99.953,39.266l-0.145-0.064l0.015-0.006L49.91,17.197L16.434,31.953    c-0.641-0.547-1.462-0.891-2.373-0.891c-1.982,0-3.589,1.579-3.654,3.547L0,39.196l10.391,4.58V58.65H8.405L6.337,83.688h11.537    L15.806,58.65h-1.949V45.305l2.722,1.2l-0.014,0.004l6.042,2.663c0,5.064,0,15.416,0,19.387c0,6.781,26.095,15.566,27.307,15.566    s27.308-8.785,27.308-15.566c0-3.944,0-14.172,0-19.274L99.953,39.266z M72.055,67.749c-2.295,2.216-12.143,7.702-22.142,9.817    c-9.834-2.08-19.849-7.625-22.142-9.818v-16.3l22.27,9.815l22.014-9.702V67.749z"/>
	</g>
</g>
</svg>