<svg xmlns="http://www.w3.org/2000/svg" xmlns:xlink="http://www.w3.org/1999/xlink" version="1.1" id="Layer_1" x="0px" y="0px" width="100px" height="100px" viewBox="0 0 100 100" enable-background="new 0 0 100 100" xml:space="preserve">
<path d="M79.178,64.209v10.652c0.176-0.012,0.346-0.024,0.508-0.051V64.209H79.178z M50.813,14.803v58.031  c0.026,0,0.06,0.007,0.092,0.007c1.371,0.117,2.679,0.487,3.867,1.048c1.269,0.56,2.651,0.922,4.104,0.993  c0.091,0.007,0.193,0.013,0.285,0.013c0.104,0,0.208,0.008,0.313,0.008c0.09,0,0.174-0.008,0.266-0.008  c0.099,0,0.195-0.006,0.294-0.013c1.454-0.071,2.834-0.437,4.089-0.993c1.354-0.639,2.88-1.027,4.479-1.08h0.221V14.803H50.813z   M59.848,27.478c1.397,0,2.528,1.131,2.528,2.528c0,1.398-1.131,2.529-2.528,2.529c-1.396,0-2.529-1.131-2.529-2.529  S58.45,27.478,59.848,27.478z M65.75,33.724c0,1.515-1.061,2.996-2.711,3.276l0.007,0.039V56.48c0,2.016-2.958,1.955-2.958,0V45.196  h-0.507V56.48c0,1.955-2.938,2.016-2.938,0V37.013c-1.553-0.241-2.729-1.593-2.729-3.244v-7.768c0-1.508,2.204-1.508,2.204,0V33.1  h7.442v-7.098c0-1.521,2.195-1.521,2.189,0V33.724z M11.813,14.803v58.019c0.143-0.014,0.286-0.014,0.429-0.014  c1.709,0,3.347,0.396,4.797,1.08c1.397,0.622,2.99,1.006,4.608,1.014h0.033c0.091,0,0.182-0.008,0.273-0.008  c0.201-0.006,0.39-0.014,0.585-0.031c1.345-0.104,2.639-0.455,3.809-0.975c0.975-0.455,2.035-0.787,3.146-0.949V14.803H11.813z   M20.601,35.115c1.397,0,2.528,1.131,2.528,2.528s-1.131,2.528-2.528,2.528c-1.391,0-2.529-1.131-2.529-2.528  S19.209,35.115,20.601,35.115z M26.509,41.361c0,1.515-1.06,2.997-2.71,3.276l0.007,0.039v19.441c0,2.015-2.958,1.956-2.958,0  V52.834H20.34v11.284c0,1.956-2.944,2.015-2.944,0V44.677l0.006-0.026c-1.553-0.24-2.736-1.592-2.736-3.244V33.64  c0-1.508,2.21-1.508,2.21,0v7.098h7.442V33.64c0-1.521,2.197-1.521,2.19,0L26.509,41.361L26.509,41.361z M31.118,14.803v58.005  h0.292c1.593,0.047,3.121,0.44,4.479,1.08c1.248,0.559,2.652,0.922,4.095,0.992c0.098,0.008,0.195,0.014,0.292,0.014  c0.098,0,0.202,0.008,0.305,0.008c0.085,0,0.169-0.008,0.26-0.008c0.098,0,0.189-0.006,0.286-0.014  c1.45-0.07,2.847-0.438,4.102-0.992c1.209-0.565,2.554-0.938,3.958-1.056v-58.03H31.118z M40.263,42.103  c1.397,0,2.529,1.131,2.529,2.528c0,1.398-1.131,2.529-2.529,2.529c-1.391,0-2.528-1.131-2.528-2.529  C37.734,43.233,38.872,42.103,40.263,42.103z M46.171,48.349c0,1.515-1.06,2.997-2.71,3.276l0.007,0.039v19.441  c0,2.016-2.958,1.955-2.958,0V59.82h-0.507v11.285c0,1.955-2.945,2.016-2.945,0V51.664l0.007-0.025  c-1.554-0.24-2.736-1.593-2.736-3.244v-7.768c0-1.508,2.21-1.508,2.21,0v7.098h7.442v-7.098c0-1.521,2.197-1.521,2.19,0V48.349z   M70.441,14.803v58.116c1.132,0.162,2.224,0.501,3.229,0.97c0.808,0.356,1.671,0.637,2.567,0.805V56.025  c-1.555-0.24-2.736-1.592-2.736-3.243v-7.768c0-1.508,2.21-1.508,2.21,0v7.097h7.44v-7.097c0-1.521,2.197-1.521,2.191,0v7.722  c0,1.515-1.061,2.996-2.711,3.274l0.006,0.038v17.975c0.11-0.045,0.221-0.09,0.325-0.138c1.443-0.683,3.081-1.077,4.798-1.077  c0.145,0,0.285,0,0.422,0.012V14.803H70.441z M79.443,51.547c-1.396,0-2.527-1.131-2.527-2.528s1.132-2.528,2.527-2.528  c1.397,0,2.529,1.131,2.529,2.528S80.843,51.547,79.443,51.547z M87.766,76.059c-1.717,0-3.354,0.396-4.798,1.08  c-1.403,0.623-2.97,1.006-4.614,1.014c-0.104,0-0.209-0.008-0.313-0.008c-0.195-0.006-0.384-0.013-0.579-0.03  c-1.338-0.104-2.626-0.455-3.789-0.976c-1.378-0.639-2.899-1.033-4.479-1.08h-0.598c-1.599,0.053-3.127,0.441-4.479,1.08  c-1.256,0.56-2.633,0.922-4.09,0.993c-0.098,0.007-0.194,0.013-0.291,0.013c-0.092,0-0.176,0.008-0.269,0.008  c-0.104,0-0.206-0.008-0.313-0.008c-0.092,0-0.193-0.006-0.284-0.013c-1.45-0.071-2.835-0.437-4.104-0.993  c-1.188-0.561-2.496-0.931-3.867-1.048c-0.199-0.013-0.389-0.026-0.589-0.032h-0.604c-1.593,0.053-3.12,0.441-4.479,1.08  c-1.254,0.56-2.652,0.922-4.102,0.993c-0.097,0.007-0.188,0.013-0.286,0.013c-0.091,0-0.175,0.008-0.26,0.008  c-0.104,0-0.208-0.008-0.305-0.008s-0.195-0.006-0.292-0.013c-1.443-0.071-2.847-0.437-4.095-0.993  c-1.358-0.639-2.886-1.033-4.479-1.08h-0.585c-1.599,0.053-3.12,0.441-4.479,1.08c-1.17,0.521-2.463,0.87-3.809,0.976  c-0.195,0.02-0.384,0.024-0.585,0.03c-0.091,0-0.182,0.008-0.273,0.008h-0.033c-1.619-0.008-3.211-0.391-4.608-1.014  c-1.45-0.684-3.087-1.08-4.797-1.08c-0.144,0-0.286,0-0.429,0.015v3.729h76.375v-3.729C88.051,76.059,87.908,76.059,87.766,76.059z"/>
<path d="M97.203,78.15v7.047c-1.651,0-3.23-0.37-4.646-1.026c-1.442-0.663-3.082-1.06-4.791-1.06c-1.717,0-3.354,0.402-4.798,1.06  c-1.403,0.649-2.97,1.026-4.614,1.026h-0.313c-0.091-0.008-0.195-0.008-0.286-0.014c-1.437-0.078-2.808-0.437-4.05-1.015  c-1.364-0.624-2.898-1.021-4.512-1.062h-0.598c-1.611,0.045-3.146,0.438-4.519,1.062c-1.235,0.578-2.62,0.937-4.052,1.015  c-0.098,0.006-0.193,0.006-0.291,0.014h-0.578c-0.092-0.008-0.194-0.008-0.285-0.014c-1.438-0.078-2.811-0.437-4.051-1.015  c-1.385-0.624-2.92-1.017-4.51-1.062h-0.604c-1.605,0.045-3.146,0.441-4.511,1.062c-1.241,0.578-2.626,0.937-4.069,1.015  c-0.091,0.006-0.188,0.006-0.286,0.014h-0.565c-0.097-0.008-0.195-0.008-0.292-0.014c-1.437-0.078-2.808-0.437-4.063-1.015  c-1.372-0.624-2.912-1.021-4.511-1.062h-0.585c-1.599,0.039-3.139,0.438-4.511,1.062c-1.261,0.578-2.633,0.937-4.063,1.015  c-0.098,0.006-0.195,0.006-0.292,0.014h-0.312c-1.619,0-3.211-0.377-4.608-1.026c-1.45-0.663-3.087-1.06-4.797-1.06  c-1.697,0-3.328,0.402-4.778,1.06c-1.437,0.656-3.009,1.026-4.667,1.026V78.15c1.651,0,3.23-0.383,4.667-1.015  c1.326-0.622,2.808-1.008,4.349-1.065c0.143-0.012,0.286-0.012,0.429-0.012c1.709,0,3.347,0.396,4.797,1.077  c1.397,0.624,2.99,1.009,4.608,1.015h0.033c0.091,0,0.182-0.006,0.273-0.006c0.201-0.006,0.39-0.015,0.585-0.033  c1.345-0.104,2.639-0.454,3.809-0.975c1.359-0.639,2.88-1.027,4.479-1.078h0.585c1.593,0.045,3.121,0.439,4.479,1.078  c1.248,0.559,2.652,0.924,4.095,0.993c0.098,0.009,0.195,0.015,0.292,0.015c0.098,0,0.202,0.006,0.305,0.006  c0.085,0,0.169-0.006,0.26-0.006c0.098,0,0.189-0.006,0.286-0.015c1.45-0.069,2.847-0.437,4.102-0.993  c1.358-0.639,2.886-1.027,4.479-1.078h0.604c0.204,0.006,0.39,0.02,0.59,0.03c1.371,0.117,2.679,0.487,3.867,1.047  c1.269,0.56,2.651,0.925,4.104,0.994c0.091,0.009,0.193,0.015,0.285,0.015c0.104,0,0.208,0.006,0.313,0.006  c0.09,0,0.174-0.006,0.268-0.006c0.097,0,0.193-0.006,0.291-0.015c1.455-0.069,2.835-0.437,4.09-0.994  c1.354-0.638,2.88-1.026,4.479-1.077h0.598c1.578,0.045,3.102,0.439,4.479,1.077c1.163,0.521,2.451,0.871,3.789,0.976  c0.195,0.021,0.386,0.027,0.579,0.033c0.104,0,0.208,0.006,0.313,0.006c1.646-0.006,3.211-0.391,4.615-1.015  c1.442-0.683,3.08-1.077,4.797-1.077c0.145,0,0.287,0,0.424,0.012c1.561,0.054,3.041,0.443,4.367,1.065  C93.973,77.768,95.552,78.15,97.203,78.15z"/>
</svg>