<svg xmlns="http://www.w3.org/2000/svg" xmlns:xlink="http://www.w3.org/1999/xlink" version="1.1" id="Layer_1" x="0px" y="0px" width="100px" height="100px" viewBox="0 0 100 100" enable-background="new 0 0 100 100" xml:space="preserve">
<path d="M10.625,38.75v22.5h5.625C23.945,51.001,36.2,44.375,50,44.375c13.801,0,26.056,6.626,33.75,16.875h5.625v-22.5   M18.876,53.885c-0.751,0.928-1.733,1.898-2.626,2.912V44.375h2.626V53.885z M24.501,49.35c-0.751,0.658-1.718,1.354-2.626,2.081  v-7.056h2.626V49.35z M27.5,47.581v-3.206h6.809C31.938,45.255,29.663,46.329,27.5,47.581z M72.5,47.581  c-2.163-1.251-4.438-2.326-6.809-3.206H72.5V47.581z M78.125,51.431c-0.908-0.728-1.875-1.423-2.999-2.081v-4.975h2.999V51.431z   M83.75,56.797c-0.891-1.014-1.875-1.984-2.999-2.912v-9.51h2.999V56.797z"/>
</svg>