<svg xmlns="http://www.w3.org/2000/svg" xmlns:xlink="http://www.w3.org/1999/xlink" version="1.1" id="Layer_1" x="0px" y="0px" width="100px" height="100px" viewBox="0 0 100 100" enable-background="new 0 0 100 100" xml:space="preserve">
<rect x="39.985" y="59.514" width="38.813" height="3.277"/>
<path d="M75.693,49.442v8.996H43.436V45.5h6.532c0.267,1.145,1.295,1.999,2.521,1.999c1.229,0,2.254-0.854,2.521-1.999h6.263  L75.693,49.442z"/>
<path fill-rule="evenodd" clip-rule="evenodd" d="M92.078,41.687c-1.769-0.002-2.587,0.743-3.298,1.941  c-0.849-2.261-1.161-3.827-1.748-5.435c-0.518-1.424-3.006-1.293-3.739,0.335l-75.266,2.56c-1.173-1.279-2.714-1.18-3.404,0.518  v7.28c0.69,1.48,2.495,1.48,3.498,0.28l34.452,0.57v-4.754h7.33C49.9,44.959,49.9,44.934,49.9,44.911  c0-1.428,1.16-2.587,2.588-2.587c1.431,0,2.588,1.159,2.588,2.587c0,0.023,0,0.048-0.002,0.071h6.716l14.766,3.942v2.612  l6.548,0.175c0.582,1.78,3.308,1.327,3.89,0.032c0.731-1.624,0.973-2.638,1.59-4.786c0,0,1.587,1.801,3.332,1.778  c1.813-0.021,3.457-1.792,3.462-3.298C95.381,43.802,93.804,41.687,92.078,41.687z"/>
<circle cx="52.49" cy="44.911" r="1.94"/>
</svg>