<svg xmlns="http://www.w3.org/2000/svg" xmlns:xlink="http://www.w3.org/1999/xlink" version="1.1" id="Layer_1" x="0px" y="0px" width="100px" height="100px" viewBox="0 0 100 100" enable-background="new 0 0 100 100" xml:space="preserve">
<path fill="#000000" d="M64.651,81.93c2.306-2.034,5.116-6.816,8.538-5.116c3.409,2.558,4.253,6.826,5.115,10.244  c1.697,4.257,6.834,6.815,5.122,11.942c-12.808,0-24.74,0-37.548,0C50.15,91.314,57.824,87.9,64.651,81.93"/>
<path fill="#000000" d="M85.427,18.642c1.354-1.16-1.124-3.36,0.133-7.401c0.359-1.17,0.831-3.082,0.175-4.494l0,0  c-1.035-2.557-3.412-4.001-3.412-4.001c-4.273-2.558-9.385-2.558-12.807,0.858c-2.559,2.559-0.843,6.827-2.559,10.243  c-9.99-3.164-15.535-5.731-24.064-3.164c-6.828,2.56-14.879,4.931-20.305,11.697c-1.336,2.433-0.974,6.567,2.558,5.969  c6.217-0.456,10.35-6.155,16.318-6.155c3.412,0,10.14-1.529,10.14,1.887c-3.422,12.796-13.649,19.2-24.102,29.429  c-3.566,3.5-14.299-0.409-18.563,2.149C7.229,56.683,4,67.273,4,71.708c0.701,0.858,1.69,1.137,2.558,0  c1.847-2.467,2.382-5.816,4.94-6.66c6.827-0.857,14.291,2.336,21.117,0.636c4.273-0.858,7.044-6.619,11.313-10.025  c0.842,0,1.695,0,1.695,0.848c0,4.259,1.716,9.386-0.854,13.659c-3.416,5.116-12.509,9.396-13.644,14.491  c-0.288,1.297,4.399,19.915,8.532,12.81C38.095,85.805,53.313,82.964,57.571,74.43c5.127-10.241-1.695-28.163,12.808-33.279  c0.853,3.405,2.559,6.832,3.411,10.231c1.704,4.274,6.826,5.979,10.244,7.681c1.7,0.868,6.85,6.74,9.944,4.41  c3.986-2.983-1.428-7.816-3.119-9.532c-2.568-3.4-5.979-5.959-6.826-9.386c-1.711-5.116-2.559-10.232-4.269-15.35  c-0.858-1.71-3.417-2.568-4.269-5.127c0-0.848,0.854-3.416,1.704-3.416c0,0,2.669,2.109,3.66,1.111c1.003-1,1.8-4.184,2.568-3.417  C84.564,19.199,85.427,18.642,85.427,18.642"/>
</svg>