<svg xmlns="http://www.w3.org/2000/svg" xmlns:xlink="http://www.w3.org/1999/xlink" version="1.1" id="Layer_1" x="0px" y="0px" width="100px" height="100px" viewBox="0 0 100 100" enable-background="new 0 0 100 100" xml:space="preserve">
<g>
	<path d="M43.83,33.192c-5.858,0-10.608,4.75-10.608,10.608c0,5.859,4.75,10.608,10.608,10.608S54.438,49.659,54.438,43.8   C54.438,37.942,49.688,33.192,43.83,33.192z M43.83,46.303c-1.382,0-2.502-1.121-2.502-2.503s1.121-2.502,2.502-2.502   c1.382,0,2.503,1.12,2.503,2.502S45.212,46.303,43.83,46.303z"/>
	<path d="M6,6v88h88V6H6z M25,88H12v-7h13V88z M44,88H31v-7h13V88z M12.483,43.8c0-17.312,14.034-31.347,31.347-31.347   c17.312,0,31.347,14.034,31.347,31.347c0,17.312-14.035,31.347-31.347,31.347C26.517,75.147,12.483,61.112,12.483,43.8z M85,28.441   v35.672c0,5.716-3.042,9.374-5.349,11.438c-1.728,1.545-3.675,2.437-4.601,2.848c0.156,0.82-0.312,1.666-1.112,2.005l-11.365,4.798   c-0.921,0.39-1.994-0.041-2.384-0.963l-0.855-2.002c-0.391-0.921,0.031-1.984,0.953-2.373l11.329-4.8   c0.735-0.31,1.448-0.097,1.949,0.47C75.256,74.798,81,71.69,81,64.113V28.603c-1-0.483-3.006-1.901-3.406-3.802   c-0.566-2.71,1.302-5.368,4.012-5.936s5.61,1.168,6.179,3.878C88.295,25.181,87,27.572,85,28.441z"/>
</g>
</svg>