<svg xmlns="http://www.w3.org/2000/svg" xmlns:xlink="http://www.w3.org/1999/xlink" version="1.1" id="Layer_1" x="0px" y="0px" width="100px" height="100px" viewBox="0 0 100 100" enable-background="new 0 0 100 100" xml:space="preserve">
<path d="M91.75,61c0-8.09-2.284-11.903-9.75-14.042v-4.596c0-8.745-3.569-16.658-9.309-22.446c0.101-0.09,0.203-0.177,0.293-0.283  c1.07-1.265,0.913-3.158-0.353-4.228c-6.56-5.551-14.433-8.485-22.767-8.485c-8.547,0-16.672,3.049-23.496,8.817  c-1.266,1.069-1.424,2.962-0.354,4.228c0.047,0.056,0.106,0.096,0.156,0.148C20.514,25.914,17,33.793,17,42.467v4.51  C9.634,49.137,7.25,52.935,7.25,61c0,8.359,3.611,13.175,10.75,14.415v1.335c0,2.348,1.903,4.25,4.25,4.25h0.5  c2.347,0,4.25-1.902,4.25-4.25v-31.5c0-2.348-1.903-4.25-4.25-4.25h-0.5c-0.073,0-0.14,0.018-0.212,0.021  c0.76-14.636,12.998-26.318,27.817-26.318c14.854,0,26.443,11.64,27.112,26.319C76.895,41.018,76.824,41,76.75,41h-0.5  C73.902,41,72,42.902,72,45.25v31.5c0,1.909,1.267,3.506,3,4.042V94h2V80.975c2.229-0.132,4-1.963,4-4.225v-1.323  C88.262,74.204,91.75,69.384,91.75,61z"/>
</svg>