<svg xmlns="http://www.w3.org/2000/svg" version="1.0" width="60.0308641975px" height="100px" viewBox="0 0 389 648" preserveAspectRatio="xMidYMid meet">
<metadata>
Created by potrace 1.8, written by Peter Selinger 2001-2007
</metadata>
<g transform="translate(0,648) scale(0.648000,-0.648000)" fill="#000000" stroke="none">
<path d="M0 500 l0 -500 25 0 c24 0 24 1 27 98 3 91 4 97 25 100 12 2 34 -4 48 -14 21 -13 31 -15 50 -6 24 11 25 11 25 -32 0 -66 -24 -77 -107 -51 -22 7 -23 5 -23 -44 l0 -51 80 0 79 0 3 98 c3 91 4 97 25 100 12 2 34 -4 48 -14 21 -13 31 -15 50 -6 24 11 25 11 25 -32 0 -66 -24 -77 -107 -51 -22 7 -23 5 -23 -44 l0 -51 80 0 79 0 3 97 c3 92 4 98 25 101 12 2 34 -4 48 -14 21 -13 31 -15 50 -6 24 11 25 11 25 -32 0 -66 -24 -77 -107 -51 -22 7 -23 5 -23 -44 l0 -51 85 0 85 0 0 500 0 500 -300 0 -300 0 0 -500z"/>
</g>
</svg>