<svg xmlns:dc="http://purl.org/dc/elements/1.1/" xmlns:cc="http://creativecommons.org/ns#" xmlns:rdf="http://www.w3.org/1999/02/22-rdf-syntax-ns#" xmlns:svg="http://www.w3.org/2000/svg" xmlns="http://www.w3.org/2000/svg" xmlns:sodipodi="http://sodipodi.sourceforge.net/DTD/sodipodi-0.dtd" xmlns:inkscape="http://www.inkscape.org/namespaces/inkscape" width="100" height="100" id="svg4036" version="1.1" inkscape:version="0.48.1 " sodipodi:docname="New document 6">
  <defs id="defs4038"/>
  <sodipodi:namedview id="base" pagecolor="#ffffff" bordercolor="#666666" borderopacity="1.0" inkscape:pageopacity="0.0" inkscape:pageshadow="2" inkscape:zoom="2.8" inkscape:cx="75.426149" inkscape:cy="20.811456" inkscape:document-units="px" inkscape:current-layer="layer1" showgrid="false" inkscape:window-width="1366" inkscape:window-height="706" inkscape:window-x="-8" inkscape:window-y="-8" inkscape:window-maximized="1"/>
  <metadata id="metadata4041">
    <rdf:RDF>
      <cc:Work rdf:about="">
        <dc:format>image/svg+xml</dc:format>
        <dc:type rdf:resource="http://purl.org/dc/dcmitype/StillImage"/>
        <dc:title/>
      </cc:Work>
    </rdf:RDF>
  </metadata>
  <g inkscape:label="Layer 1" inkscape:groupmode="layer" id="layer1" transform="translate(0,-952.36218)">
    <path inkscape:connector-curvature="0" style="font-size:72.38095092999999700px;font-style:normal;font-variant:normal;font-weight:normal;font-stretch:normal;line-height:125%;letter-spacing:0px;word-spacing:0px;fill:#000000;fill-opacity:1;stroke:none;font-family:Century Gothic;-inkscape-font-specification:Century Gothic" d="m 50.68176,959.54535 c -0.579637,0 -1.138376,9.2e-4 -1.719828,0.0332 -25.25593,-0.29678 -46.2602923,26.1372 -40.5008857,50.65115 4.2497507,22.7951 29.5305137,39.1674 52.1350807,32.6773 22.165452,-5.4641 37.528819,-31.0989 29.945708,-53.24797 -5.098005,-17.13822 -21.897436,-30.14731 -39.860075,-30.114 z m -0.674425,5.56438 c 20.346292,0 36.825016,16.47842 36.825016,36.82507 0,20.3459 -16.478724,36.8586 -36.825016,36.8586 -20.346292,0 -36.858933,-16.5123 -36.858933,-36.8586 0,-20.34634 16.512641,-36.82507 36.858933,-36.82507 z m -2.832764,7.55373 0,43.46854 5.53046,0 0,-43.46854 -5.53046,0 z m 2.832764,49.10014 c -1.296761,0 -2.423324,0.4672 -3.338506,1.3827 -0.915484,0.9156 -1.349151,2.0162 -1.349151,3.3385 0,1.2967 0.433667,2.4106 1.349151,3.3385 0.915182,0.9278 2.041745,1.4163 3.338506,1.4163 1.29676,0 2.389406,-0.4885 3.304891,-1.4163 0.915181,-0.9279 1.382464,-2.0418 1.382464,-3.3385 0,-1.3223 -0.467283,-2.4229 -1.382464,-3.3385 -0.915485,-0.9155 -2.008131,-1.3827 -3.304891,-1.3827 z" id="text4358-0" inkscape:export-filename="C:\Users\D'C\Desktop\Icon 256x256\Warning1.png" inkscape:export-xdpi="822.85712" inkscape:export-ydpi="822.85712"/>
  </g>
</svg>