<svg xmlns:dc="http://purl.org/dc/elements/1.1/" xmlns:cc="http://creativecommons.org/ns#" xmlns:rdf="http://www.w3.org/1999/02/22-rdf-syntax-ns#" xmlns:svg="http://www.w3.org/2000/svg" xmlns="http://www.w3.org/2000/svg" xmlns:sodipodi="http://sodipodi.sourceforge.net/DTD/sodipodi-0.dtd" xmlns:inkscape="http://www.inkscape.org/namespaces/inkscape" width="100" height="100" id="svg4068" version="1.1" inkscape:version="0.48.1 " sodipodi:docname="New document 9">
  <defs id="defs4070"/>
  <sodipodi:namedview id="base" pagecolor="#ffffff" bordercolor="#666666" borderopacity="1.0" inkscape:pageopacity="0.0" inkscape:pageshadow="2" inkscape:zoom="2.8" inkscape:cx="93.769893" inkscape:cy="68.973923" inkscape:document-units="px" inkscape:current-layer="layer1" showgrid="false" inkscape:window-width="1366" inkscape:window-height="706" inkscape:window-x="-8" inkscape:window-y="-8" inkscape:window-maximized="1"/>
  <metadata id="metadata4073">
    <rdf:RDF>
      <cc:Work rdf:about="">
        <dc:format>image/svg+xml</dc:format>
        <dc:type rdf:resource="http://purl.org/dc/dcmitype/StillImage"/>
        <dc:title/>
      </cc:Work>
    </rdf:RDF>
  </metadata>
  <g inkscape:label="Layer 1" inkscape:groupmode="layer" id="layer1" transform="translate(0,-952.36218)">
    <path style="font-size:76.13861083999999800px;font-style:normal;font-variant:normal;font-weight:normal;font-stretch:normal;line-height:125%;letter-spacing:0px;word-spacing:0px;fill:#000000;fill-opacity:1;stroke:none;font-family:Ubuntu;-inkscape-font-specification:Ubuntu" d="m 50.608867,959.57711 c -0.579517,0 -1.138392,9.1e-4 -1.720035,0.0334 -25.255923,-0.2975 -46.2597209,26.20033 -40.5006689,50.77349 4.2499989,22.8501 29.5302069,39.2618 52.1350409,32.7563 22.165563,-5.4773 37.529013,-31.1741 29.945793,-53.37665 -5.09787,-17.17971 -21.89721,-30.22023 -39.86013,-30.18714 z m -0.674535,5.57782 c 20.346265,0 36.825025,16.51853 36.825025,36.91397 0,20.3954 -16.47876,36.948 -36.825025,36.948 -20.346263,0 -36.858724,-16.5523 -36.858724,-36.948 0,-20.39514 16.512461,-36.91397 36.858724,-36.91397 z m 0.06679,7.97785 c -5.623963,0 -10.135337,1.40432 -13.55689,4.22541 -3.421249,2.8214 -5.478249,6.86345 -6.170999,12.16957 l 7.688856,0.87884 c 0.664821,-3.96009 2.048196,-6.89168 4.181695,-8.755 2.132892,-1.86393 4.806142,-2.77221 7.99182,-2.77221 3.297088,0 6.05807,1.01848 8.329694,3.07639 2.271928,2.05761 3.406071,4.44854 3.406071,7.16641 0,1.50116 -0.370964,2.8897 -1.146893,4.15771 -0.775321,1.26832 -2.467731,2.96924 -5.058106,5.10456 -2.590374,2.13534 -4.364445,3.75484 -5.361981,4.86774 -1.357571,1.527 -2.358142,3.0287 -2.96741,4.5299 -0.831178,1.993 -1.247982,4.355 -1.247982,7.0987 0,0.466 0,1.1642 0.03339,2.0959 l 7.216802,0 c 0.05464,-2.7953 0.245893,-4.8083 0.607143,-6.0511 0.360036,-1.2422 0.904339,-2.3211 1.652339,-3.2789 0.748,-0.9578 2.350856,-2.4434 4.788534,-4.4622 3.629196,-3.0023 6.071123,-5.57688 7.317583,-7.67335 1.24677,-2.09676 1.85483,-4.3775 1.85483,-6.86223 0,-4.29675 -1.74827,-7.95812 -5.294289,-10.98624 -3.54632,-3.02874 -8.308444,-4.5299 -14.264514,-4.5299 z m -4.316785,49.92872 0,7.9438 8.531873,0 0,-7.9438 -8.531873,0 z" id="text5431-2-5-1-6" inkscape:connector-curvature="0" inkscape:export-filename="C:\Users\D'C\Desktop\Icon 256x256\Help1.png" inkscape:export-xdpi="705.25165" inkscape:export-ydpi="705.25165"/>
  </g>
</svg>