<svg xmlns:dc="http://purl.org/dc/elements/1.1/" xmlns:cc="http://creativecommons.org/ns#" xmlns:rdf="http://www.w3.org/1999/02/22-rdf-syntax-ns#" xmlns:svg="http://www.w3.org/2000/svg" xmlns="http://www.w3.org/2000/svg" xmlns:sodipodi="http://sodipodi.sourceforge.net/DTD/sodipodi-0.dtd" xmlns:inkscape="http://www.inkscape.org/namespaces/inkscape" width="100" height="100" id="svg4120" version="1.1" inkscape:version="0.48.1 " sodipodi:docname="New document 13">
  <defs id="defs4122"/>
  <sodipodi:namedview id="base" pagecolor="#ffffff" bordercolor="#666666" borderopacity="1.0" inkscape:pageopacity="0.0" inkscape:pageshadow="2" inkscape:zoom="2.8" inkscape:cx="75.722016" inkscape:cy="55.871676" inkscape:document-units="px" inkscape:current-layer="layer1" showgrid="false" inkscape:window-width="1366" inkscape:window-height="706" inkscape:window-x="-8" inkscape:window-y="-8" inkscape:window-maximized="1"/>
  <metadata id="metadata4125">
    <rdf:RDF>
      <cc:Work rdf:about="">
        <dc:format>image/svg+xml</dc:format>
        <dc:type rdf:resource="http://purl.org/dc/dcmitype/StillImage"/>
        <dc:title/>
      </cc:Work>
    </rdf:RDF>
  </metadata>
  <g inkscape:label="Layer 1" inkscape:groupmode="layer" id="layer1" transform="translate(0,-952.36218)">
    <path style="fill:#000000;fill-opacity:1;stroke:none" d="m 50.932291,960.13916 c -0.579635,0 -1.138375,3e-4 -1.719827,0.0333 -25.256232,-0.29678 -46.2602889,26.13719 -40.5008819,50.65134 4.2497499,22.7948 29.5305119,39.1669 52.1350769,32.6771 22.165448,-5.4642 37.528808,-31.099 29.945698,-53.24806 -5.0977,-17.13822 -21.897429,-30.14761 -39.860066,-30.1143 z m -0.674424,5.56407 c 20.346288,0 36.82501,16.47872 36.82501,36.82517 0,20.346 -16.478722,36.8587 -36.82501,36.8587 -20.346595,0 -36.858932,-16.5127 -36.858932,-36.8587 0,-20.34614 16.512337,-36.82517 36.858932,-36.82517 z m -23.403459,33.01459 c -0.178675,0 -0.337363,0.15748 -0.337363,0.33706 l 0,6.98072 c 0,0.1787 0.157476,0.3035 0.337363,0.3035 l 46.806914,0 c 0.178676,0 0.303446,-0.1242 0.303446,-0.3035 l 0,-6.98072 c 0,-0.17867 -0.124164,-0.33706 -0.303446,-0.33706 l -46.806914,0 z" id="path4052-4" inkscape:connector-curvature="0" inkscape:export-filename="C:\Users\D'C\Desktop\Icon 256x256\Remove.png" inkscape:export-xdpi="822.85712" inkscape:export-ydpi="822.85712"/>
  </g>
</svg>