<svg xmlns:dc="http://purl.org/dc/elements/1.1/" xmlns:cc="http://creativecommons.org/ns#" xmlns:rdf="http://www.w3.org/1999/02/22-rdf-syntax-ns#" xmlns:svg="http://www.w3.org/2000/svg" xmlns="http://www.w3.org/2000/svg" xmlns:sodipodi="http://sodipodi.sourceforge.net/DTD/sodipodi-0.dtd" xmlns:inkscape="http://www.inkscape.org/namespaces/inkscape" width="100" height="100" id="svg4146" version="1.1" inkscape:version="0.48.1 " sodipodi:docname="New document 15">
  <defs id="defs4148"/>
  <sodipodi:namedview id="base" pagecolor="#ffffff" bordercolor="#666666" borderopacity="1.0" inkscape:pageopacity="0.0" inkscape:pageshadow="2" inkscape:zoom="2.8" inkscape:cx="82.083153" inkscape:cy="62.801278" inkscape:document-units="px" inkscape:current-layer="layer1" showgrid="false" inkscape:window-width="1366" inkscape:window-height="706" inkscape:window-x="-8" inkscape:window-y="-8" inkscape:window-maximized="1"/>
  <metadata id="metadata4151">
    <rdf:RDF>
      <cc:Work rdf:about="">
        <dc:format>image/svg+xml</dc:format>
        <dc:type rdf:resource="http://purl.org/dc/dcmitype/StillImage"/>
        <dc:title/>
      </cc:Work>
    </rdf:RDF>
  </metadata>
  <g inkscape:label="Layer 1" inkscape:groupmode="layer" id="layer1" transform="translate(0,-952.36218)">
    <path style="fill:#000000;fill-opacity:1;stroke:none" d="m 50.932287,960.13919 c -0.579636,0 -1.138375,3e-4 -1.719827,0.0333 -25.255931,-0.29679 -46.260293,26.13704 -40.500886,50.65101 4.249751,22.7951 29.530514,39.1672 52.135082,32.6774 22.165454,-5.4642 37.528814,-31.099 29.945704,-53.24809 -5.0977,-17.13831 -21.897434,-30.14755 -39.860073,-30.11424 z m -0.674425,5.56437 c 20.346292,0 36.825018,16.47827 36.825018,36.82484 0,20.346 -16.478726,36.859 -36.825018,36.859 -20.346291,0 -36.858934,-16.5126 -36.858934,-36.859 0,-20.34626 16.512643,-36.82484 36.858934,-36.82484 z M 36.296645,983.1379 c -0.08177,0 -0.172619,0.0363 -0.236215,0.10296 l -4.923266,4.92357 c -0.127193,0.12417 -0.127193,0.31163 0,0.43821 l 13.725002,13.89396 -13.893684,13.7587 c -0.127193,0.1241 -0.127193,0.3119 0,0.4385 l 4.889651,4.9572 c 0.124164,0.1272 0.345843,0.1272 0.472127,0 l 13.893684,-13.7251 13.725306,13.8938 c 0.127192,0.1271 0.344631,0.1271 0.472127,0 l 4.957184,-4.89 c 0.127193,-0.1242 0.127193,-0.345 0,-0.4721 l -13.75892,-13.8937 13.893684,-13.75866 c 0.127193,-0.12416 0.127193,-0.31253 0,-0.43851 l -4.889651,-4.95718 c -0.124164,-0.1272 -0.312228,-0.1272 -0.438512,0 l -13.9273,13.75892 -13.725305,-13.92761 c -0.0636,-0.0636 -0.154448,-0.10296 -0.236215,-0.10296 z" id="path4050-3" inkscape:connector-curvature="0" inkscape:export-filename="C:\Users\D'C\Desktop\Icon 256x256\Close.png" inkscape:export-xdpi="822.85712" inkscape:export-ydpi="822.85712"/>
  </g>
</svg>