<svg xmlns:dc="http://purl.org/dc/elements/1.1/" xmlns:cc="http://creativecommons.org/ns#" xmlns:rdf="http://www.w3.org/1999/02/22-rdf-syntax-ns#" xmlns:svg="http://www.w3.org/2000/svg" xmlns="http://www.w3.org/2000/svg" xmlns:sodipodi="http://sodipodi.sourceforge.net/DTD/sodipodi-0.dtd" xmlns:inkscape="http://www.inkscape.org/namespaces/inkscape" width="100" height="100" id="svg4204" version="1.1" inkscape:version="0.48.1 " sodipodi:docname="New document 19">
  <defs id="defs4206"/>
  <sodipodi:namedview id="base" pagecolor="#ffffff" bordercolor="#666666" borderopacity="1.0" inkscape:pageopacity="0.0" inkscape:pageshadow="2" inkscape:zoom="1.979899" inkscape:cx="102.6937" inkscape:cy="9.7948359" inkscape:document-units="px" inkscape:current-layer="layer1" showgrid="false" inkscape:window-width="1366" inkscape:window-height="706" inkscape:window-x="-8" inkscape:window-y="-8" inkscape:window-maximized="1"/>
  <metadata id="metadata4209">
    <rdf:RDF>
      <cc:Work rdf:about="">
        <dc:format>image/svg+xml</dc:format>
        <dc:type rdf:resource="http://purl.org/dc/dcmitype/StillImage"/>
        <dc:title/>
      </cc:Work>
    </rdf:RDF>
  </metadata>
  <g inkscape:label="Layer 1" inkscape:groupmode="layer" id="layer1" transform="translate(0,-952.36218)">
    <path inkscape:connector-curvature="0" style="fill:#000000;fill-opacity:1;stroke:#ffffff;stroke-width:0;stroke-linecap:round;stroke-linejoin:round;stroke-miterlimit:4;stroke-opacity:1;stroke-dasharray:none" d="m 8.7290932,1001.3982 c 0,0.5807 0,1.1408 0.03339,1.724 -0.2975,25.3169 26.2003198,46.3718 50.7734978,40.5988 22.850113,-4.2604 39.261773,-29.6019 32.756243,-52.26111 -5.47733,-22.21898 -31.17403,-37.65345 -53.37662,-30.05203 -17.179702,5.11032 -30.2205138,21.98402 -30.1871208,39.99034 z m 5.5438168,0.6761 c 0,-20.39547 16.55222,-36.948 36.947955,-36.948 20.395128,0 36.913959,16.55253 36.913959,36.948 0,20.3954 -16.518831,36.914 -36.913959,36.914 -20.395735,0 -36.947955,-16.5186 -36.947955,-36.914 z m 9.634136,-0.1336 15.347042,15.2793 15.347043,15.2794 0,-20.3499 23.93325,0.033 0,-20.31622 -23.93325,-0.0334 -0.03339,-20.1808 -15.313346,15.14425 -15.347042,15.14427 z" id="path5206-1-0-8-6-7-0-0-1-8-0-3-0" inkscape:export-filename="C:\Users\D'C\Desktop\Icon 256x256\Arrow.png" inkscape:export-xdpi="817.50397" inkscape:export-ydpi="817.50397"/>
  </g>
</svg>