<svg xmlns="http://www.w3.org/2000/svg" xmlns:xlink="http://www.w3.org/1999/xlink" version="1.1" id="Layer_1" x="0px" y="0px" width="100px" height="90px" viewBox="0 0 100 90" enable-background="new 0 0 100 90" xml:space="preserve">
<g id="Icon_Radio">
	<path d="M88.87,5.345c0,2.855-2.316,5.172-5.172,5.172S78.525,8.2,78.525,5.345s2.317-5.172,5.173-5.172S88.87,2.489,88.87,5.345z    M68.181,59H54.388c-1.896,0-3.448,1.604-3.448,3.5c0,1.896,1.553,3.5,3.448,3.5h13.793c1.896,0,3.448-1.604,3.448-3.5   C71.629,60.604,70.077,59,68.181,59z M54.388,45h13.793c1.896,0,3.448-1.604,3.448-3.5c0-1.896-1.552-3.5-3.448-3.5H54.388   c-1.896,0-3.448,1.604-3.448,3.5C50.939,43.396,52.492,45,54.388,45z M100,76.207C100,83.824,93.824,90,86.207,90H13.793   C6.175,90,0,83.824,0,76.207V27.793C0,20.175,6.175,14,13.793,14h72.414C93.824,14,100,20.175,100,27.793V76.207z M19.905,48.448   c0-3.809-3.088-6.896-6.897-6.896s-6.896,3.088-6.896,6.896s3.088,6.896,6.896,6.896S19.905,52.257,19.905,48.448z M19.905,27.759   c0-3.809-3.088-6.897-6.897-6.897s-6.896,3.088-6.896,6.897s3.088,6.896,6.896,6.896S19.905,31.567,19.905,27.759z M92.318,51.896   c0-17.113-13.921-31.035-31.034-31.035S30.25,34.783,30.25,51.896s13.921,31.034,31.034,31.034S92.318,69.01,92.318,51.896z    M47.491,48c-1.896,0-3.448,1.604-3.448,3.5s1.552,3.5,3.448,3.5h27.586c1.896,0,3.448-1.604,3.448-3.5S76.974,48,75.077,48H47.491   z M85.422,51.896c0,13.309-10.829,24.138-24.138,24.138c-13.308,0-24.138-10.829-24.138-24.138   c0-13.308,10.83-24.138,24.138-24.138C74.593,27.759,85.422,38.588,85.422,51.896z M81.974,51.896   c0-11.426-9.264-20.689-20.689-20.689s-20.689,9.264-20.689,20.689s9.264,20.689,20.689,20.689S81.974,63.322,81.974,51.896z"/>
</g>
</svg>