<svg xmlns="http://www.w3.org/2000/svg" xmlns:xlink="http://www.w3.org/1999/xlink" version="1.1" id="Layer_1" x="0px" y="0px" width="100px" height="100px" viewBox="0 0 100 100" enable-background="new 0 0 100 100" xml:space="preserve">
<g>
	<path fill="#000000" d="M44.551,5.625c-1.96,1.617-3.199,4.038-3.199,6.858v55.808c-3.922,2.947-6.239,7.387-6.257,12.262   c-0.016,6.461,3.915,11.891,9.457,14.178V78.258c-0.426,0.249-0.92,0.398-1.452,0.398c-1.567,0-2.846-1.283-2.846-2.851   c0-0.182,0.017-0.364,0.053-0.54c-0.083,0.027-0.174,0.041-0.267,0.041c-0.47,0-0.854-0.379-0.854-0.854   c0-0.469,0.384-0.854,0.854-0.854c0.345,0,0.646,0.208,0.778,0.506c0.521-0.695,1.353-1.145,2.282-1.145   c0.531,0,1.026,0.146,1.452,0.401V62.721h-2.352v-1.547h2.352V52.89h-2.352v-1.546h2.352v-8.28h-2.352v-1.546h2.352v-8.283h-2.352   V31.69h2.352v-8.288h-2.352v-1.541h2.352v-1.739h-2.352v-7.629c0-2.203,0.894-4.229,2.352-5.707V5.625z M44.551,94.73   c1.794,0.741,3.754,1.155,5.806,1.166c1.847,0.011,3.61-0.311,5.233-0.908V94.09c-1.641,0.659-3.423,1.007-5.27,0.986   c-1.382-0.024-2.718-0.229-3.979-0.601l0.304-0.98c1.185,0.349,2.441,0.534,3.737,0.534c1.845,0,3.606-0.378,5.207-1.061V20.123   H44.551v1.739h2.35v1.541h-2.35v8.288h2.35v1.544h-2.35v8.283h2.35v1.546h-2.35v8.28h2.35v1.546h-2.35v8.284h2.35v1.547h-2.35   v10.641c0.835,0.493,1.396,1.404,1.396,2.444c0,1.039-0.561,1.952-1.396,2.452V94.73z M55.59,5.095   c-1.479-0.978-3.281-1.552-5.204-1.601c-2.236,0.056-4.265,0.834-5.835,2.13v1.161c1.475-1.497,3.529-2.434,5.839-2.438   c1.977,0,3.789,0.656,5.2,1.759V5.095z M65.671,80.856c0.08-4.963-2.234-9.547-6.256-12.565l-0.011-56.227   c0-2.979-1.519-5.455-3.814-6.969v1.012c1.816,1.415,2.968,3.565,2.971,6v8.016H55.59v72.846c0.904-0.377,1.756-0.853,2.538-1.413   c-0.837-0.443-1.484-1.348-1.484-2.354c0-1.452,1.178-2.633,2.627-2.633c0.989,0,1.873,0.573,2.322,1.387   c1.385-2.109,2.188-4.625,2.188-7.326c0-0.452-0.02-0.897-0.064-1.339l1.044-0.162c0.054,0.499,0.083,1.005,0.088,1.515   c0.032,5.952-3.879,11.313-9.258,13.446v0.898C61.45,92.852,65.565,87.189,65.671,80.856"/>
</g>
</svg>