<svg xmlns="http://www.w3.org/2000/svg" xmlns:xlink="http://www.w3.org/1999/xlink" version="1.1" id="Layer_1" x="0px" y="0px" width="100px" height="100px" viewBox="0 0 100 100" enable-background="new 0 0 100 100" xml:space="preserve">
<path d="M27.917,86.769v4.421l-8.622,4.199L27.917,86.769z M27.917,41.38v17.243L5.222,81.317L20.479,50L5.222,18.685L27.917,41.38z   M27.917,8.813v4.42L19.295,4.61L27.917,8.813z M27.917,58.623V41.38L36.541,50L27.917,58.623z M73.306,86.769v4.421L50.61,80.134  L27.917,91.189v-4.421L50.61,64.074L73.306,86.769z M73.306,41.38v17.243L64.684,50L73.306,41.38z M73.306,8.813v4.42L50.61,35.929  L27.917,13.234v-4.42L50.61,19.869L73.306,8.813z M50.61,40.051c5.482,0,9.95,4.47,9.95,9.949c0,5.481-4.468,9.951-9.95,9.951  c-5.48,0-9.95-4.47-9.95-9.951C40.66,44.521,45.13,40.051,50.61,40.051 M73.306,13.234v-4.42l8.622-4.203L73.306,13.234z   M73.306,58.623V41.38l22.695-22.695L80.745,50l15.256,31.317L73.306,58.623z M73.306,91.189v-4.421l8.622,8.62L73.306,91.189z"/>
</svg>