<svg xmlns="http://www.w3.org/2000/svg" xmlns:xlink="http://www.w3.org/1999/xlink" version="1.1" id="Layer_1" x="0px" y="0px" width="100px" height="100px" viewBox="0 0 100 100" enable-background="new 0 0 100 100" xml:space="preserve">
<path fill="#000000" d="M2.871,12.253h7.341v76.402H2.871V12.253z M25.947,36.744c-1.331,0.718-2.234,2.1-2.234,3.909v14.703  c0,1.793,0.914,3.174,2.234,3.896V36.744z M25.947,14.816v3.12h-4.474v65.038h4.474v3.121h-7.6V14.816H25.947z M27.725,36.198h0.004  H27.725z M27.725,59.811h0.004H27.725z M25.947,59.252V36.744c0.661-0.352,1.423-0.545,2.235-0.545v23.612  C27.376,59.811,26.612,59.617,25.947,59.252 M32.808,86.095h-6.859v-3.121h6.859V86.095z M32.808,80.48h-2.837V56.871h2.837V80.48z   M32.808,54.642h-2.837V36.2h2.837V54.642z M32.808,21.608v12.075c-1.976-1.289-3.284-3.517-3.284-6.036  C29.524,25.126,30.832,22.9,32.808,21.608 M32.808,17.936h-6.859v-3.118h6.859V17.936z M32.808,56.871h2.836V80.48h-2.836V56.871z   M36.763,86.095h-3.955v-3.121h3.955V86.095z M36.763,54.642h-3.955V36.2h3.955V54.642z M36.763,20.43v14.431  c-1.457,0-2.818-0.43-3.955-1.178V21.608C33.945,20.865,35.306,20.43,36.763,20.43z M36.763,17.936h-3.955v-3.118h3.955V17.936z   M40.712,86.095h-3.949v-3.121h3.949V86.095z M40.712,80.48h-2.839V56.871h2.839V80.48z M40.712,54.642h-3.949V36.2h3.949V54.642z   M40.712,21.603v12.084c-1.136,0.744-2.494,1.174-3.949,1.174V20.43C38.218,20.43,39.576,20.862,40.712,21.603 M40.712,17.936  h-3.949v-3.118h3.949V17.936z M44.881,36.198h0.004H44.881z M44.881,59.811h0.004H44.881z M40.712,33.687V21.603  c1.979,1.293,3.292,3.521,3.292,6.044C44.003,30.171,42.691,32.398,40.712,33.687 M40.712,36.198h2.838v18.443h-2.838V36.198z   M40.712,56.871h2.838V80.48h-2.838V56.871z M47.571,88.644v5.147l-0.236-0.408L44.6,88.644H47.571z M47.571,86.095h-6.859v-3.121  h6.859V86.095z M47.571,17.936h-6.859v-3.118h6.859V17.936z M47.571,7.059v5.16h-2.981L47.571,7.059z M45.337,59.811  c0.806,0,1.57-0.193,2.234-0.559V36.744c-0.66-0.352-1.424-0.545-2.234-0.545V59.811z M63.368,82.974v3.121H52.115v2.549h3.428  l-2.735,4.739l-2.737,4.741l-2.5-4.333v-5.147h0.44v-2.549h-0.44v-3.121H63.368z M63.368,59.811v20.67H52.645l5.359-20.67H63.368z   M63.368,36.71v20.794h-6.312V44.918c-0.72,0-1.355,0.485-1.355,1.35v13.475c-2.896-2.284-4.979-5.538-5.114-9.892  c-0.223-7.242,5.509-13.141,12.778-13.141H63.368z M63.368,20.43v14.431c-3.986,0-7.239-3.239-7.239-7.213  C56.129,23.671,59.382,20.43,63.368,20.43 M63.368,14.816v3.12H47.571v-3.12h0.44v-2.597h-0.44v-5.16l2.493-4.318l5.473,9.479  h-3.422v2.597H63.368z M47.571,59.252c1.32-0.723,2.233-2.104,2.233-3.896V40.653c0-1.81-0.903-3.191-2.233-3.909V59.252z   M89.916,12.253h7.34v76.402h-7.34V12.253z M70.075,44.665h0.004H70.075z M63.368,34.861c3.988,0,7.241-3.239,7.241-7.213  c0-3.977-3.253-7.217-7.241-7.217V34.861z M63.368,57.505h6.31V44.918c0.704,0,1.353,0.485,1.353,1.35v13.475  c3.107-2.456,4.976-5.597,5.116-9.892c0.23-7.242-5.509-13.139-12.778-13.141V57.505z M63.368,80.48h10.72l-5.36-20.67h-5.359V80.48  z M63.368,86.095v-3.121h15.285V17.936H63.368v-3.12h18.413v71.279H63.368z"/>
</svg>