<svg xmlns="http://www.w3.org/2000/svg" xmlns:xlink="http://www.w3.org/1999/xlink" version="1.1" id="Layer_1" x="0px" y="0px" width="100px" height="100px" viewBox="0 0 100 100" enable-background="new 0 0 100 100" xml:space="preserve">
<path fill="#000000" d="M14.438,38.714c5.281,0,9.811,3.332,11.591,8h4.038l1.091-1.018h6.409l0.803,1.018  c28.423-0.11,53.465-6.217,57.961-16.676v-2.256c0-0.67,0.416-1.048,0.985-1.048s1.007,0.428,1.01,1.077l0.041,46.621  c0.003,0.648-0.44,1.077-1.01,1.077c-0.57,0-0.983-0.38-0.983-1.05v-2.254c-4.498-10.46-29.539-16.568-57.964-16.678l-0.8,1.019  h-6.407l-1.093-1.019h-4.083c-1.782,4.669-6.311,7.995-11.589,7.995c-6.834,0-12.405-5.572-12.405-12.407  C2.033,44.286,7.604,38.714,14.438,38.714"/>
</svg>