<svg xmlns="http://www.w3.org/2000/svg" xmlns:xlink="http://www.w3.org/1999/xlink" version="1.1" id="Layer_1" x="0px" y="0px" width="100px" height="100px" viewBox="0 0 100 100" enable-background="new 0 0 100 100" xml:space="preserve">
<path fill="#000000" d="M34.552,79.756c-0.112-0.349-0.219-0.701-0.319-1.056c-0.906-0.006-1.82-0.058-2.731-0.157  c-0.523,1.254-1.136,2.514-1.708,3.409c-0.448-0.071-0.895-0.14-1.343-0.229c-0.454-0.089-0.895-0.184-1.337-0.287  c-0.199-1.045-0.299-2.433-0.328-3.793c-0.886-0.248-1.751-0.538-2.6-0.86c-0.833,1.07-1.748,2.125-2.53,2.844  c-0.836-0.364-1.656-0.758-2.45-1.189c0.075-1.062,0.334-2.438,0.664-3.758c-0.788-0.464-1.549-0.97-2.286-1.507  c-1.075,0.824-2.231,1.606-3.171,2.096c-0.719-0.569-1.41-1.17-2.067-1.795c0.348-1.01,0.96-2.262,1.613-3.452  c-0.63-0.653-1.231-1.329-1.803-2.036c-1.253,0.512-2.573,0.966-3.614,1.202c-0.543-0.737-1.055-1.495-1.539-2.275  c0.595-0.877,1.516-1.938,2.45-2.914C9.014,63.208,8.6,62.4,8.234,61.572c-1.349,0.17-2.743,0.271-3.81,0.221  c-0.337-0.845-0.636-1.704-0.9-2.584c0.805-0.693,1.956-1.479,3.12-2.178c-0.227-0.879-0.411-1.773-0.558-2.674  c-1.348-0.189-2.72-0.453-3.735-0.77c-0.103-0.903-0.169-1.809-0.192-2.724c0.946-0.457,2.271-0.917,3.58-1.294  c0.012-0.909,0.063-1.82,0.158-2.731c-1.254-0.532-2.508-1.145-3.401-1.714c0.063-0.448,0.14-0.891,0.227-1.337  c0.084-0.454,0.184-0.903,0.285-1.337c1.041-0.207,2.433-0.307,3.793-0.33c0.253-0.889,0.541-1.754,0.865-2.597  c-1.078-0.836-2.134-1.748-2.847-2.533c0.36-0.843,0.762-1.66,1.19-2.456c1.061,0.078,2.432,0.336,3.752,0.667  c0.472-0.785,0.972-1.55,1.506-2.28c-0.82-1.084-1.602-2.231-2.09-3.18c0.572-0.713,1.167-1.4,1.791-2.067  c1.006,0.348,2.266,0.96,3.457,1.621c0.646-0.638,1.331-1.239,2.036-1.809c-0.518-1.253-0.978-2.573-1.205-3.611  c0.736-0.546,1.495-1.058,2.277-1.542c0.877,0.601,1.932,1.513,2.91,2.45c0.788-0.443,1.601-0.848,2.432-1.219  c-0.172-1.354-0.278-2.746-0.229-3.804c0.848-0.342,1.713-0.636,2.585-0.909c0.693,0.808,1.478,1.961,2.18,3.128  c0.883-0.23,1.771-0.417,2.676-0.561c0.185-1.348,0.449-2.725,0.768-3.732c0.9-0.105,1.806-0.169,2.72-0.201  c0.342,0.696,0.676,1.59,0.978,2.527v25.668c-1.973,0-3.741,1.404-4.129,3.411c-0.434,2.277,1.067,4.485,3.339,4.922  c0.268,0.052,0.532,0.078,0.791,0.078V79.756z M40.66,18.054c0.445,0.089,0.895,0.181,1.337,0.288  c0.198,1.043,0.299,2.433,0.328,3.792c0.883,0.248,1.754,0.538,2.597,0.86c0.837-1.072,1.75-2.131,2.534-2.844  c0.836,0.365,1.656,0.759,2.449,1.19c-0.071,1.058-0.337,2.432-0.666,3.755c0.79,0.466,1.548,0.972,2.285,1.509  c1.079-0.825,2.23-1.606,3.175-2.095c0.713,0.569,1.4,1.164,2.067,1.793c-0.348,1.007-0.955,2.264-1.619,3.451  c0.636,0.655,1.236,1.331,1.806,2.038c1.256-0.511,2.574-0.971,3.61-1.201c0.547,0.736,1.062,1.495,1.542,2.274  c-0.593,0.877-1.507,1.935-2.455,2.908c0.448,0.791,0.859,1.601,1.225,2.432c1.354-0.169,2.746-0.27,3.804-0.224  c0.343,0.848,0.645,1.708,0.909,2.585c-0.803,0.696-1.955,1.478-3.122,2.18c0.229,0.877,0.413,1.773,0.56,2.673  c1.349,0.182,2.72,0.455,3.732,0.771c0.106,0.903,0.172,1.802,0.194,2.72c-0.954,0.46-2.273,0.92-3.579,1.298  c-0.011,0.905-0.065,1.818-0.16,2.73c1.257,0.531,2.511,1.145,3.403,1.713c-0.067,0.449-0.141,0.89-0.224,1.344  c-0.086,0.448-0.186,0.889-0.288,1.332c-1.041,0.207-2.438,0.307-3.798,0.33c-0.247,0.889-0.534,1.754-0.86,2.602  c1.072,0.831,2.131,1.743,2.845,2.527c-0.36,0.841-0.76,1.654-1.188,2.457c-1.056-0.078-2.433-0.338-3.758-0.668  c-0.467,0.782-0.967,1.55-1.507,2.28c0.822,1.076,1.606,2.237,2.096,3.18c-0.571,0.71-1.168,1.4-1.797,2.064  c-1.001-0.351-2.26-0.957-3.45-1.618c-0.653,0.635-1.332,1.236-2.039,1.802c0.513,1.261,0.978,2.574,1.209,3.614  c-0.737,0.55-1.496,1.062-2.279,1.545c-0.879-0.602-1.931-1.513-2.909-2.455c-0.792,0.448-1.602,0.854-2.432,1.224  c0.169,1.35,0.275,2.744,0.229,3.804c-0.848,0.343-1.714,0.637-2.59,0.901c-0.69-0.799-1.478-1.955-2.18-3.114  c-0.877,0.224-1.771,0.411-2.674,0.552c-0.181,1.348-0.445,2.729-0.765,3.74c-0.9,0.102-1.809,0.164-2.72,0.193  c-0.342-0.699-0.678-1.588-0.983-2.53V54.094c1.978,0,3.749-1.404,4.132-3.41c0.437-2.28-1.064-4.488-3.339-4.923  c-0.265-0.055-0.529-0.078-0.793-0.078V20.015c0.112,0.354,0.224,0.708,0.322,1.056c0.909,0.011,1.819,0.063,2.734,0.164  c0.529-1.254,1.136-2.516,1.708-3.41C39.762,17.896,40.211,17.965,40.66,18.054"/>
<path fill="#000000" d="M80.523,76.279h-0.082c-0.493-1.061-0.974-2.466-1.342-3.811c-0.408-0.034-0.808-0.1-1.213-0.171  c-0.331-0.063-0.656-0.143-0.978-0.228c-0.831,1.118-1.775,2.266-2.611,3.085c-0.94-0.354-1.837-0.784-2.686-1.28  c0.106-1.164,0.408-2.625,0.75-3.974c-0.594-0.437-1.161-0.919-1.679-1.442c-1.279,0.555-2.667,1.065-3.799,1.359  c-0.629-0.775-1.196-1.602-1.685-2.468c0.679-0.948,1.662-2.062,2.64-3.049c-0.302-0.67-0.549-1.372-0.735-2.092  c-1.387-0.164-2.858-0.417-3.978-0.736c-0.157-0.971-0.242-1.96-0.227-2.966c1.063-0.484,2.479-0.949,3.821-1.314  c0.04-0.371,0.092-0.742,0.169-1.113c0.072-0.365,0.152-0.719,0.248-1.069c-1.113-0.837-2.256-1.792-3.069-2.634  c0.36-0.938,0.797-1.831,1.304-2.673c1.158,0.117,2.619,0.425,3.968,0.779c0.366-0.495,0.759-0.96,1.18-1.397  c-0.579-1.266-1.121-2.643-1.438-3.77c0.76-0.647,1.573-1.231,2.433-1.736c0.96,0.661,2.096,1.621,3.102,2.573  c0.67-0.311,1.36-0.569,2.073-0.782c0.136-1.383,0.36-2.856,0.653-3.989c0.966-0.181,1.964-0.276,2.961-0.287l0.22,0.466v14.403  c-1.277,0-2.416,0.908-2.668,2.203c-0.276,1.459,0.688,2.887,2.162,3.162c0.159,0.034,0.333,0.052,0.506,0.052V76.279z   M86.458,42.138c0.942,0.339,1.851,0.753,2.702,1.242c-0.092,1.164-0.367,2.625-0.69,3.98c0.599,0.431,1.174,0.908,1.69,1.42  c1.278-0.566,2.658-1.107,3.785-1.409c0.645,0.768,1.219,1.579,1.725,2.438c-0.666,0.96-1.633,2.091-2.599,3.091  c0.311,0.666,0.563,1.36,0.771,2.078c1.379,0.142,2.853,0.377,3.979,0.68c0.173,0.971,0.265,1.961,0.265,2.967  c-1.06,0.494-2.461,0.978-3.796,1.365c-0.047,0.438-0.104,0.872-0.185,1.31c-0.058,0.293-0.126,0.595-0.206,0.882  c1.127,0.819,2.276,1.76,3.104,2.585c-0.345,0.943-0.771,1.843-1.265,2.697c-1.161-0.101-2.623-0.388-3.979-0.724  c-0.426,0.6-0.909,1.166-1.426,1.69c0.563,1.271,1.08,2.661,1.38,3.792c-0.759,0.636-1.587,1.208-2.449,1.702  c-0.956-0.673-2.071-1.65-3.071-2.622c-0.668,0.308-1.369,0.561-2.082,0.753c-0.149,1.387-0.392,2.852-0.713,3.983  c-0.942,0.157-1.898,0.24-2.875,0.24V61.38c1.265,0,2.403-0.906,2.655-2.194c0.277-1.467-0.679-2.893-2.149-3.168  c-0.174-0.037-0.346-0.055-0.506-0.055V41.56c0.425,0.983,0.838,2.18,1.173,3.326c0.471,0.041,0.943,0.107,1.402,0.196  c0.265,0.051,0.53,0.112,0.794,0.175C84.71,44.128,85.63,42.966,86.458,42.138"/>
</svg>