<svg xmlns="http://www.w3.org/2000/svg" xmlns:xlink="http://www.w3.org/1999/xlink" version="1.1" id="Layer_1" x="0px" y="0px" width="100px" height="100px" viewBox="0 0 100 100" enable-background="new 0 0 100 100" xml:space="preserve">
<g>
	<path d="M47.409,76.99L34,69.314v7.728c-9-5.306-15.335-15.254-15.335-26.637c0-14.383,9.995-26.483,23.363-29.811l-7.88-4.557   l12.187-7.014C24.918,10.64,7.878,28.582,7.878,50.405C7.878,67.897,19,82.889,34,88.985v11.033l13.409-7.677l13.294-7.676   L47.409,76.99z"/>
	<path d="M64,11.682V0.687L50.884,8.362l-13.218,7.676l13.167,7.676L64,31.39v-7.822c10,5.252,16.016,15.308,16.016,26.837   c0,14.346-9.782,26.423-23.098,29.786l7.801,4.475l-12.332,7.136c21.529-1.5,38.395-19.492,38.395-41.396   C90.781,32.776,80,17.686,64,11.682z"/>
</g>
</svg>