<svg xmlns="http://www.w3.org/2000/svg" xmlns:xlink="http://www.w3.org/1999/xlink" version="1.1" id="Layer_1" x="0px" y="0px" width="100px" height="100px" viewBox="0 0 100 100" enable-background="new 0 0 100 100" xml:space="preserve">
<path d="M49.687,95.594L8.752,72.262l0.516-33.425l-6.39-27.494l29.223,15.454L45.634,23L55.665,5.044l42.224,20.391L85.924,46.337  l0.523,36.208L49.687,95.594z M36.764,29.262l13.273,7.014l1.633,22.198l0.005,32.558l31.104-11.038l-0.502-34.598l10.524-18.385  L57.169,9.803l-9.1,16.287L36.764,29.262z M12.418,70.172l35.624,20.305V58.607l-1.481-20.06L8.218,18.277l4.69,20.17L12.418,70.172  z"/>
<path d="M49.787,60.484c-0.285,0-0.571-0.067-0.831-0.201L10.181,40.312c-0.893-0.46-1.242-1.554-0.784-2.446  c0.461-0.891,1.56-1.239,2.446-0.784l38.063,19.603l29.798-11.096L46.04,26.856c-0.876-0.489-1.191-1.595-0.704-2.471  c0.487-0.875,1.595-1.188,2.47-0.704L84.91,44.327c0.621,0.346,0.983,1.019,0.93,1.725c-0.054,0.708-0.515,1.318-1.178,1.565  l-34.24,12.753C50.216,60.446,50.002,60.484,49.787,60.484z"/>
<rect x="44.646" y="26.556" width="3.633" height="9.294"/>
</svg>