<svg xmlns="http://www.w3.org/2000/svg" xmlns:xlink="http://www.w3.org/1999/xlink" version="1.1" id="Layer_1" x="0px" y="0px" width="100px" height="100px" viewBox="0 0 100 100" enable-background="new 0 0 100 100" xml:space="preserve">
<g>
	<path d="M71.546,26.437L71.546,26.437l-4.908-9.578H32.695l-4.908,9.578l0,0H2v56.331h30.89v-0.072   c-3.427-2.495-6.281-5.729-8.316-9.476H11.548l0,0V35.985l0,0h22.075l4.908-9.578l0,0h22.271l0,0l4.909,9.578h22.074l0,0v37.234   l0,0H74.759c-2.035,3.747-4.889,6.981-8.315,9.476v0.072h30.89V26.437H71.546z"/>
	<path d="M73.676,59.616c0-13.239-10.771-24.01-24.009-24.01c-13.239,0-24.009,10.771-24.009,24.01   c0,13.239,10.77,24.009,24.009,24.009C62.905,83.625,73.676,72.855,73.676,59.616z M49.667,74.077   c-7.974,0-14.462-6.488-14.462-14.461s6.488-14.461,14.462-14.461c7.974,0,14.461,6.487,14.461,14.461S57.641,74.077,49.667,74.077   z"/>
</g>
</svg>