<svg xmlns="http://www.w3.org/2000/svg" xmlns:xlink="http://www.w3.org/1999/xlink" version="1.1" id="Layer_1" x="0px" y="0px" width="100px" height="100px" viewBox="0 0 100 100" enable-background="new 0 0 100 100" xml:space="preserve">
<path d="M68.633,43.761c-8.556-8.536-13.623-14.791-17.996-27.106c-4.421,12.289-9.545,18.514-18.161,27  c-5.652,5.577-8.636,12.562-8.656,19.138c-0.042,14.594,11.872,26.468,26.603,26.512c14.726,0.043,26.694-11.76,26.74-26.354  C77.182,56.375,74.265,49.372,68.633,43.761 M50.786,80.165L50.78,82.28c-10.465-0.032-18.895-8.447-18.865-18.799l3.355,0.011  c0.521,8.856,6.526,14.921,15.52,15.479L50.786,80.165z"/>
<path d="M73.386,98.218l-46.303-0.136c-4.099-0.014-7.797-3.177-8.423-7.201L6.221,11.311C5.893,9.215,6.464,7.118,7.793,5.563  c1.338-1.565,3.34-2.462,5.492-2.461l74.863,0.009c2.17,0.004,4.165,0.909,5.491,2.475c1.318,1.559,1.877,3.656,1.531,5.755  L81.865,91.085C81.205,95.093,77.481,98.231,73.386,98.218z M88.151,9.769L13.284,9.76c-0.197,0.001-0.358,0.05-0.429,0.132  c-0.063,0.073-0.083,0.213-0.054,0.387L25.24,89.851c0.123,0.789,1.045,1.565,1.863,1.569l46.302,0.136  c0.821,0.002,1.762-0.77,1.89-1.557L88.6,10.253c0.026-0.161,0.01-0.3-0.044-0.364C88.493,9.816,88.338,9.77,88.151,9.769z"/>
</svg>