<svg xmlns="http://www.w3.org/2000/svg" xmlns:xlink="http://www.w3.org/1999/xlink" version="1.1" id="Layer_1" x="0px" y="0px" width="100px" height="100px" viewBox="0 0 100 100" enable-background="new 0 0 100 100" xml:space="preserve">
<path d="M55.947,89.756c7.402-25.661,10.599-52.259,9.481-78.757c-0.203-3.835-3.438-6.691-7.395-6.649  c-3.964,0.043-7.145,2.722-7.513,6.212c-2.263,24.446-8.441,48.275-18.274,70.567c-1.443,3.164,2.635,7.585,9.592,10.334  C48.793,94.211,54.911,93.488,55.947,89.756z M53.295,30.055c0.959,1.482,1.94,2.988,2.941,4.519  c1.341-1.196,2.636-2.419,3.886-3.669c0.455,0.681,0.915,1.367,1.381,2.059c-1.293,16.784-4.337,33.425-9.098,49.65  c-1.646-1.294-3.76-2.417-6.216-3.245c-2.458-0.83-4.812-1.22-6.885-1.234c5.677-15.024,9.767-30.608,12.207-46.498  C52.116,31.115,52.71,30.587,53.295,30.055z M58.009,8.945c2.56,0.044,4.036,1.448,4.181,1.992c0.074,5.142-0.016,10.28-0.27,15.41  c-0.458-0.674-0.911-1.345-1.36-2.01c-1.158,1.292-2.364,2.56-3.614,3.8c-0.986-1.495-1.951-2.966-2.894-4.415  c-0.545,0.553-1.1,1.1-1.664,1.643c0.614-4.87,1.072-9.764,1.374-14.677C53.932,10.184,55.453,8.9,58.009,8.945z"/>
</svg>