<svg xmlns="http://www.w3.org/2000/svg" xmlns:xlink="http://www.w3.org/1999/xlink" version="1.1" id="Layer_1" x="0px" y="0px" width="100px" height="100px" viewBox="0 0 100 100" enable-background="new 0 0 100 100" xml:space="preserve">
<g>
	<path d="M10.929,50.521c0.121,10.333,4.306,19.703,11.03,26.587l26.588-26.587H10.929z M15.06,56.196   c0-2.118,1.717-3.835,3.836-3.835s3.836,1.717,3.836,3.835c0,2.119-1.717,3.836-3.836,3.836S15.06,58.315,15.06,56.196z    M23.958,70.852c-2.119,0-3.835-1.717-3.835-3.836c0-2.118,1.717-3.835,3.835-3.835s3.836,1.717,3.836,3.835   C27.794,69.135,26.077,70.852,23.958,70.852z M31.63,61.034c-2.119,0-3.835-1.717-3.835-3.836c0-2.118,1.717-3.836,3.835-3.836   c2.119,0,3.836,1.718,3.836,3.836C35.466,59.317,33.75,61.034,31.63,61.034z"/>
	<path d="M20.658,21.71l-3.81-3.81C8.822,26.086,3.839,37.259,3.718,49.6h5.37C9.209,38.759,13.6,28.929,20.658,21.71z"/>
	<path d="M49.197,9.489V4.12c-12.34,0.122-23.513,5.105-31.699,13.13l3.81,3.81C28.527,14.002,38.357,9.611,49.197,9.489z"/>
	<path d="M78.007,21.059l3.811-3.81C73.631,9.224,62.458,4.241,50.118,4.12v5.37C60.959,9.611,70.788,14.001,78.007,21.059z"/>
	<path d="M22.61,77.759c6.885,6.725,16.254,10.909,26.587,11.03V51.171L22.61,77.759z M33.047,79.931   c-2.055,0.517-4.139-0.73-4.656-2.785c-0.516-2.054,0.73-4.139,2.786-4.655c2.053-0.516,4.139,0.731,4.654,2.784   C36.348,77.33,35.102,79.413,33.047,79.931z M37.65,69.597c-0.517-2.054,0.729-4.136,2.785-4.654   c2.054-0.517,4.138,0.73,4.654,2.784c0.518,2.056-0.729,4.14-2.783,4.656C40.251,72.898,38.167,71.652,37.65,69.597z    M44.439,84.977c-2.054,0.516-4.139-0.729-4.654-2.785c-0.517-2.054,0.729-4.138,2.785-4.654c2.054-0.516,4.137,0.729,4.653,2.784   C47.741,82.376,46.494,84.461,44.439,84.977z"/>
	<path d="M50.77,49.6h37.617c-0.121-10.333-4.306-19.704-11.03-26.588L50.77,49.6z M67.624,46.451   c-2.117-0.093-3.756-1.885-3.662-4.001c0.095-2.116,1.887-3.755,4.003-3.661c2.116,0.094,3.755,1.886,3.661,4.003   C71.531,44.907,69.74,46.546,67.624,46.451z M84.304,44.357c-0.095,2.116-1.886,3.755-4.002,3.661   c-2.117-0.094-3.756-1.886-3.663-4.002c0.096-2.116,1.887-3.756,4.004-3.662C82.759,40.449,84.397,42.24,84.304,44.357z    M75.725,36.984c-2.117-0.094-3.755-1.885-3.661-4.002c0.093-2.117,1.886-3.756,4.002-3.662s3.756,1.887,3.661,4.003   C79.633,35.44,77.84,37.079,75.725,36.984z"/>
	<path d="M90.228,49.6h5.37c-0.121-12.341-5.104-23.513-13.13-31.699l-3.81,3.81C85.716,28.929,90.106,38.758,90.228,49.6z"/>
	<path d="M77.356,77.107c6.725-6.884,10.909-16.254,11.03-26.587H50.77L77.356,77.107z M77.33,53.181   c1.611-1.377,4.032-1.187,5.408,0.425s1.186,4.031-0.424,5.409c-1.611,1.376-4.032,1.185-5.407-0.426   C75.53,56.979,75.721,54.558,77.33,53.181z M77.803,64.484c1.377,1.609,1.187,4.029-0.425,5.407   c-1.611,1.376-4.031,1.186-5.407-0.425c-1.377-1.61-1.187-4.031,0.423-5.408C74.005,62.684,76.426,62.872,77.803,64.484z    M70.289,54.151c1.379,1.61,1.188,4.031-0.423,5.409c-1.611,1.375-4.031,1.185-5.406-0.426c-1.38-1.61-1.188-4.031,0.423-5.407   S68.914,52.54,70.289,54.151z"/>
	<path d="M50.118,88.789c10.333-0.121,19.703-4.306,26.587-11.03L50.118,51.171V88.789z M67.19,71.949   c2.117,0.087,3.762,1.875,3.675,3.991c-0.089,2.117-1.876,3.761-3.992,3.674c-2.117-0.088-3.761-1.876-3.673-3.991   C63.287,73.506,65.073,71.862,67.19,71.949z M57.699,63.877c2.117,0.087,3.762,1.875,3.672,3.992   c-0.087,2.116-1.874,3.76-3.99,3.673c-2.116-0.089-3.76-1.875-3.673-3.991C53.796,65.434,55.583,63.789,57.699,63.877z    M56.17,76.558c2.116,0.089,3.762,1.875,3.674,3.994c-0.086,2.116-1.874,3.76-3.99,3.673c-2.117-0.09-3.761-1.876-3.673-3.991   C52.268,78.115,54.054,76.473,56.17,76.558z"/>
	<path d="M21.309,79.06l-3.81,3.811C25.685,90.896,36.857,95.879,49.197,96v-5.37C38.357,90.508,28.527,86.117,21.309,79.06z"/>
	<path d="M49.197,11.331c-10.333,0.122-19.703,4.306-26.587,11.03l26.587,26.587V11.331z M32.921,28.3   c-2.118-0.073-3.775-1.847-3.704-3.964c0.073-2.118,1.847-3.775,3.964-3.703c2.117,0.072,3.775,1.846,3.703,3.963   C36.812,26.714,35.038,28.372,32.921,28.3z M42.473,36.301c-2.118-0.072-3.775-1.847-3.704-3.964   c0.072-2.117,1.847-3.775,3.964-3.703c2.117,0.072,3.774,1.846,3.702,3.963C46.364,34.715,44.589,36.373,42.473,36.301z    M43.906,23.607c-2.118-0.072-3.775-1.847-3.704-3.964c0.072-2.117,1.847-3.774,3.964-3.703c2.117,0.072,3.774,1.846,3.703,3.963   C47.797,22.021,46.023,23.679,43.906,23.607z"/>
	<path d="M50.118,90.63V96c12.34-0.121,23.513-5.104,31.699-13.13l-3.811-3.81C70.788,86.118,60.959,90.509,50.118,90.63z"/>
	<path d="M90.228,50.521c-0.122,10.841-4.513,20.67-11.569,27.889l3.81,3.811c8.025-8.187,13.009-19.359,13.13-31.699H90.228z"/>
	<path d="M21.959,23.012C15.234,29.896,11.05,39.266,10.929,49.6h37.618L21.959,23.012z M21.204,46.598   c-1.65,1.328-4.064,1.069-5.394-0.581c-1.329-1.65-1.069-4.064,0.581-5.394c1.65-1.328,4.064-1.068,5.393,0.582   C23.113,42.854,22.853,45.269,21.204,46.598z M26.454,35.868c-1.65,1.329-4.065,1.069-5.394-0.581s-1.069-4.064,0.581-5.393   c1.65-1.329,4.064-1.069,5.393,0.581C28.363,32.125,28.103,34.539,26.454,35.868z M33.662,46.413   c-1.65,1.329-4.065,1.069-5.394-0.58c-1.329-1.651-1.069-4.065,0.582-5.394c1.649-1.329,4.063-1.069,5.392,0.582   C35.572,42.67,35.312,45.085,33.662,46.413z"/>
	<path d="M76.705,22.36c-6.884-6.724-16.254-10.909-26.587-11.03v37.618L76.705,22.36z M64.178,21.817   c1.584-1.406,4.008-1.262,5.415,0.322c1.406,1.584,1.262,4.008-0.322,5.414c-1.585,1.407-4.008,1.263-5.415-0.32   C62.449,25.649,62.593,23.225,64.178,21.817z M59.083,35.26c-1.584,1.407-4.009,1.262-5.415-0.322   c-1.405-1.584-1.262-4.008,0.322-5.415c1.584-1.406,4.008-1.262,5.414,0.322C60.811,31.43,60.667,33.854,59.083,35.26z    M58.624,17.41c1.406,1.584,1.262,4.008-0.322,5.414c-1.584,1.407-4.008,1.263-5.415-0.321c-1.406-1.584-1.263-4.009,0.322-5.416   C54.793,15.682,57.217,15.826,58.624,17.41z"/>
	<path d="M9.087,50.521h-5.37c0.122,12.34,5.105,23.513,13.13,31.699l3.81-3.812C13.6,71.19,9.209,61.361,9.087,50.521z"/>
</g>
</svg>