<?xml version="1.0" encoding="utf-8"?>
<!-- Generator: Adobe Illustrator 15.1.0, SVG Export Plug-In . SVG Version: 6.00 Build 0)  -->
<!DOCTYPE svg PUBLIC "-//W3C//DTD SVG 1.1//EN" "http://www.w3.org/Graphics/SVG/1.1/DTD/svg11.dtd">
<svg version="1.1" id="Layer_1" xmlns="http://www.w3.org/2000/svg" xmlns:xlink="http://www.w3.org/1999/xlink" x="0px" y="0px"
	 width="100px" height="100.001px" viewBox="0 0 100 100.001" enable-background="new 0 0 100 100.001" xml:space="preserve">
<path d="M6.188,6.188c-8.25,8.25-8.25,21.674,0,29.925l28.5,28.5l2.137,2.139l27.789,27.787l0.035-0.037
	c8.294,7.543,21.166,7.334,29.176-0.676c8.011-8.01,8.22-20.882,0.678-29.177l0.035-0.036L66.75,36.825l-2.137-2.138l-28.502-28.5
	C27.861-2.063,14.438-2.062,6.188,6.188z M49.887,28.511c-5.498-0.061-11.014,1.992-15.199,6.177
	c-4.186,4.186-6.238,9.702-6.178,15.198L10.463,31.837c-5.894-5.893-5.894-15.481,0-21.375c5.893-5.894,15.482-5.894,21.375,0
	L49.887,28.511z"/>
</svg>
