<svg xmlns="http://www.w3.org/2000/svg" xmlns:xlink="http://www.w3.org/1999/xlink" version="1.1" id="Layer_1" x="0px" y="0px" width="100px" height="100px" viewBox="0 0 100 100" enable-background="new 0 0 100 100" xml:space="preserve">
<path d="M2.019,46.34l5.624-14.064c1.313-3.376,4.875-6.564,8.439-6.564H91.46c3.561,0,6.561,3.002,6.561,6.564v34.688l-14.623,3.75  c-0.938-5.624-5.814-9.751-11.624-9.751c-5.813,0-10.693,4.127-11.629,9.751H30.519c-0.937-5.624-5.812-9.751-11.626-9.751  c-5.813,0-10.687,4.127-11.623,9.751H2.019V46.34z M6.146,46.34h22.122V29.463H16.083c-2.062,0-4.312,2.438-4.875,4.312L6.146,46.34  z M28.268,72.591c0,5.253-4.124,9.375-9.375,9.375c-5.25,0-9.373-4.122-9.373-9.375c0-5.251,4.123-9.375,9.373-9.375  C24.144,63.216,28.268,67.34,28.268,72.591 M23.582,24.839c0-3.189,1.312-5.626,4.5-5.626c3.189,0,4.502,2.437,4.502,5.626H23.582z   M38.77,50.088h7.502v7.504h7.498v-7.504h7.501v-7.5H53.77V35.09h-7.498v7.499H38.77V50.088z M81.146,72.591  c0,5.253-4.125,9.375-9.372,9.375c-5.253,0-9.379-4.122-9.379-9.375c0-5.251,4.126-9.375,9.379-9.375  C77.021,63.216,81.146,67.34,81.146,72.591"/>
</svg>