<svg xmlns="http://www.w3.org/2000/svg" xmlns:xlink="http://www.w3.org/1999/xlink" version="1.1" id="Layer_1" x="0px" y="0px" width="100px" height="100px" viewBox="0 0 100 100" enable-background="new 0 0 100 100" xml:space="preserve">
<path d="M32.812,78.027c-2.834,5.261-8.463,8.998-14.749,8.998c-9.162,0-16.719-7.601-16.719-16.885  c0-9.242,7.558-16.804,16.719-16.804c4.313,0,8.421,1.726,11.462,4.354l-5.833,2.67c-1.603-0.902-3.738-1.519-5.629-1.519  c-6.121,0-11.174,5.095-11.174,11.298c0,6.243,5.053,11.338,11.174,11.338c3.04,0,5.875-1.396,7.97-3.451H32.812L32.812,78.027z"/>
<g>
	<g>
		<path d="M53.271,67.102c-5.464,0-10.065,4.561-10.065,10.146c0,5.628,4.6,10.148,10.065,10.148c5.543,0,10.104-4.52,10.104-10.148    C63.376,71.663,58.816,67.102,53.271,67.102z M53.23,81.893c-2.549,0-4.521-2.099-4.521-4.645c0-2.587,1.974-4.682,4.521-4.682    c2.504,0,4.641,2.095,4.641,4.682C57.871,79.794,55.734,81.893,53.23,81.893z"/>
	</g>
</g>
<path d="M64.568,76.757c-0.33-6.409-5.137-10.848-11.381-10.848c-6.04,0-11.009,4.889-11.09,10.806H17.406l-2.382-7.85  c-0.657-2.178,0.287-3.529,1.602-4.107l25.881-11.214l10.765,8.381h24.482v12.079c0,2.753-2.425,2.753-4.105,2.753H64.568z"/>
<path d="M74.098,77.988h-6.859c2.877,5.3,8.504,8.996,14.789,8.996c9.16,0,16.763-7.601,16.763-16.844  c0-9.285-7.603-16.845-16.763-16.845c-1.028,0-2.096,0.329-3.08,0.494v5.463c1.068-0.285,2.012-0.409,3.08-0.409  c6.119,0,11.177,5.053,11.177,11.297c0,6.203-5.058,11.297-11.177,11.297C78.947,81.438,76.072,80.001,74.098,77.988"/>
<path d="M63.909,39.905l-6.901-9.656c-1.025-1.314-3.326-1.562-5.215-0.286L36.838,40.644H26.28  c-4.806-0.042-4.765,7.396-0.164,7.396h14.46l7.065-5.219l8.998,7.559L63.909,39.905z"/>
<path d="M77.838,60.238l-0.084-5.01c-0.121-1.645-1.889-3.164-4.148-3.205l-17.828,0.082L48.3,46.681  c-3.902-2.752-8.092,3.33-4.314,5.917l10.683,7.684L77.838,60.238z"/>
<path d="M38.235,33.042l6.859-5.051l-1.15-5.466l-7.064,1.232c0-1.066-0.124-1.93,0.081-2.873c1.355-4.891,6.286-6.739,9.736-6.123  c2.917,0.492,8.012,3.124,7.149,11.38L38.235,37.933V33.042z"/>
<path d="M61.734,47.052l8.584-0.041L72.659,42l-6.364-3.244c0.654-0.822,1.066-1.604,1.807-2.22  c3.942-3.082,8.953-1.644,11.336,0.902c2.058,2.095,4.52,7.314-1.025,13.313l-19.43,0.04L61.734,47.052z"/>
</svg>