<svg xmlns="http://www.w3.org/2000/svg" xmlns:xlink="http://www.w3.org/1999/xlink" version="1.1" id="Layer_1" x="0px" y="0px" width="100px" height="100px" viewBox="0 0 100 100" enable-background="new 0 0 100 100" xml:space="preserve">
<g>
	<g>
		<path d="M32.174,65.666c0.001-0.001-1.418,0.494-2.441,0.445c-2.426-0.114-3.086-0.547-4.457-1.289    c-1.386-0.739-2.772-1.731-5.511-1.698c-2.74,0.019-4.258,0.91-5.728,1.683c-1.519,0.76-2.591,1.305-4.339,1.305    c-2.015,0-3.764-0.856-4.72-1.78c-1.007-0.892-3.036-1.304-4.028-1.304v2.639c0.891,0.197,1.635,0.382,4.143,2.063    c2.541,1.668,6.767,1.783,9.968-0.146c2.111-1.24,2.723-1.566,4.818-1.616c2.113-0.021,3.449,0.726,4.836,1.616    C26.133,68.457,27.801,69,29.93,69c1.469,0,3.118-0.494,3.729-0.742L32.174,65.666z"/>
	</g>
</g>
<g>
	<g>
		<path d="M95.053,64.854c-1.421,0.728-1.98,1.289-4.621,1.271c-1.882,0-3.285-0.396-4.785-1.37    c-1.504-0.974-2.543-1.565-5.25-1.667c-2.721,0.102-3.763,0.693-5.246,1.667s-2.856,1.388-4.672,1.388    c-1.832,0-2.888-0.545-4.438-1.305c-1.503-0.775-2.986-1.667-5.744-1.699c-2.756-0.017-4.145,0.975-5.531,1.717    c-1.383,0.744-2.009,1.287-4.535,1.271c-1.882,0-3.367-0.446-4.837-1.37c-0.907-0.594-1.731-1.27-2.92-1.387l0.793,3.201    c0.428,0.166,0.842,0.449,1.138,0.646c1.633,1.14,3.3,1.781,5.627,1.798c2.229,0.036,3.86-0.543,5.278-1.402    c1.389-0.889,2.775-1.633,4.887-1.615c2.111,0.031,2.757,0.428,4.789,1.615c1.58,0.908,3.695,1.387,5.623,1.387    c2.23,0,3.947-0.643,5.549-1.781c1.139-0.793,2.902-1.32,4.238-1.32c1.338,0,3.104,0.496,4.242,1.32    c1.666,1.139,3.269,1.781,5.594,1.799c2.311,0.035,3.943-0.56,5.33-1.402c0.694-0.432,2.063-1.536,3.334-1.586v-2.592    C97.378,63.436,95.859,64.41,95.053,64.854z"/>
	</g>
</g>
<g>
	<g>
		<path d="M34.797,69.973c-1.072,0.442-2.855,1.088-4.867,1.088c-3.401,0-5.084-0.924-6.735-2.029    c-1.649-1.12-4.553-1.189-6.253,0.05c-1.667,1.251-4.637,1.979-6.882,1.979c-2.259,0-4.833-0.924-5.808-1.516    c-1.8-1.207-2.244-1.504-3.252-1.438v2.722c1.188,0.202,1.387,0.497,3.236,1.685c0.99,0.643,3.547,1.553,5.774,1.553    c2.262,0,5.233-0.729,6.917-1.998c1.666-1.287,4.537-1.205,6.238-0.051c1.667,1.125,3.333,2.049,6.75,2.049    c2.425,0,4.471-0.91,6.32-1.914L34.797,69.973z"/>
	</g>
</g>
<g>
	<g>
		<path d="M96.734,69.547c-0.973,0.607-3.662,1.532-5.957,1.532c-2.277,0-5.297-0.745-7.016-1.979    c-1.697-1.236-4.967-1.236-6.632,0.018c-1.138,0.873-4.159,1.963-6.45,1.963c-2.279,0-5.302-0.725-7.017-1.98    c-1.733-1.236-4.653-1.172-6.372-0.047c-1.684,1.137-3.381,2.027-6.813,2.027c-3.417,0-5.281-0.727-6.239-1.684l-1.915,1.586    c0.578,0.594,0.975,0.938,1.766,1.436c1.139,0.708,3.003,1.664,6.419,1.664c3.419,0,5.083-1.057,6.769-2.161    c1.731-1.171,4.699-1.123,6.418,0.167c1.701,1.27,4.754,1.994,7.031,1.994c2.291,0,4.935-0.924,6.303-1.96    c1.914-1.472,5.05-1.291,6.768-0.034c1.717,1.27,4.753,1.994,7.031,1.994c2.292,0,6.369-1.747,7.177-2.557    c0.298-0.248,0.611-0.494,0.959-0.646v-2.671C98.154,68.404,97.379,68.95,96.734,69.547z"/>
	</g>
</g>
<g>
	<g>
		<path d="M42.078,68.16l-3.416-11.223l-10.479-1.336c0,0,5,11.996,7.822,14.869C38.86,73.374,42.919,71.262,42.078,68.16z"/>
	</g>
</g>
<g>
	<g>
		<path d="M5.474,41.72l11.255,16.042l11.684,1.4l-2.146-4.948l13.153,1.697l1.419,4.737l14.11,2.261    c1.535-0.726,3.219-1.187,5.281-1.188c2.047,0,3.432,0.413,4.869,1.188c1.467,0.759,3.332,1.865,5.578,1.865    c2.26,0,3.332-1.205,5.182-2.063c1.914-0.892,3.117-1.187,5.775-0.989c2.524,0.2,3.811,1.387,5.018,2.264l7.92-9.871L5.474,41.72z    "/>
	</g>
</g>
<g>
	<g>
		<path d="M87.575,41.786l-55.4-7.69L19.122,42.38l69.94,9.834v-8.943C89.063,42.627,88.417,41.884,87.575,41.786z M35.788,42.941    l-10.496-1.402l7.081-4.622l4.275,0.628L35.788,42.941z M50.197,44.971l-12.245-1.65l0.874-5.48l12.162,1.65L50.197,44.971z     M65.165,46.983L52.92,45.317l0.842-5.478l12.245,1.667L65.165,46.983z M79.702,49.01L67.46,47.343l0.855-5.479l12.247,1.667    L79.702,49.01z M87.413,50.004l-5.433-0.709l0.844-5.363l4.589,0.726V50.004z"/>
	</g>
	<g>
		<path fill="none" stroke="#000000" stroke-width="0.288" stroke-linejoin="round" stroke-miterlimit="22.9256" d="M87.575,41.786    l-55.4-7.69L19.122,42.38l69.94,9.834v-8.943C89.063,42.627,88.417,41.884,87.575,41.786z M35.788,42.941l-10.496-1.402    l7.081-4.622l4.275,0.628L35.788,42.941z M50.197,44.971l-12.245-1.65l0.874-5.48l12.162,1.65L50.197,44.971z M65.165,46.983    L52.92,45.317l0.842-5.478l12.245,1.667L65.165,46.983z M79.702,49.01L67.46,47.343l0.855-5.479l12.247,1.667L79.702,49.01z     M87.413,50.004l-5.433-0.709l0.844-5.363l4.589,0.726V50.004z"/>
	</g>
</g>
<g>
	<g>
		<polygon points="68.201,35.152 68.516,32.166 41.037,28.236 34.14,32.759 88.613,40.433 88.613,38.04   "/>
	</g>
</g>
</svg>