<svg xmlns="http://www.w3.org/2000/svg" xmlns:xlink="http://www.w3.org/1999/xlink" version="1.1" id="Layer_1" x="0px" y="0px" width="100px" height="100px" viewBox="0 0 100 100" enable-background="new 0 0 100 100" xml:space="preserve">
<rect x="28.247" y="8.744" width="13.825" height="7.504"/>
<rect x="22.205" y="18.088" width="25.846" height="6.354"/>
<polygon points="35.143,27.989 56.816,35.773 56.816,26.397 13.469,26.397 13.469,35.773 "/>
<path d="M35.143,37.513l26.766,9.967c1.329-2.348,2.317-4.187,3.612-6.255L35.143,30.107L4.766,41.225  c1.279,2.068,2.265,3.908,3.595,6.255L35.143,37.513z"/>
<rect x="71.893" y="72.898" width="26.107" height="17.095"/>
<path d="M35.193,82.816c1.148,0.018,2.676,0.527,3.645,1.361c1.413,1.186,2.824,1.842,4.663,1.855  c1.839,0.033,3.234-0.539,4.45-1.463c1.2-0.899,2.365-1.654,4.154-1.623c1.808,0.05,2.315,0.377,4.104,1.623  c2.741,2.005,6.371,1.875,8.538,0.166c2.152-1.725,2.807-1.952,3.564-2.15v-2.725c-0.854,0-2.597,0.427-3.433,1.361  c-0.839,0.936-2.349,1.871-4.055,1.871c-1.513,0-2.416-0.605-3.712-1.395c-1.279-0.771-2.561-1.707-4.909-1.741  c-2.348-0.019-3.533,1.019-4.713,1.771c-1.182,0.758-1.708,1.365-3.828,1.365c-1.494,0-2.676-0.476-3.955-1.463  c-1.3-0.984-2.168-1.626-4.516-1.723c-2.349,0.097-3.236,0.738-4.515,1.723c-1.282,0.987-2.464,1.463-3.958,1.463  c-2.119,0-2.644-0.607-3.826-1.365c-1.183-0.752-2.381-1.789-4.714-1.771c-2.348,0.034-3.628,0.97-4.923,1.741  c-1.282,0.787-2.186,1.395-3.695,1.395c-1.724,0-3.237-0.937-4.074-1.871c-0.821-0.936-2.562-1.361-3.414-1.361v2.725  c0.755,0.198,1.411,0.428,3.547,2.15c2.166,1.709,5.795,1.839,8.553-0.166c1.792-1.246,2.285-1.573,4.105-1.623  c1.789-0.031,2.94,0.724,4.154,1.623c1.216,0.924,2.596,1.496,4.433,1.463c1.841-0.014,3.254-0.672,4.664-1.855  C32.516,83.344,34.028,82.834,35.193,82.816"/>
<path d="M35.094,87.281c0.623,0,2.133,0.15,3.071,1.15c0.803,0.869,2.413,1.793,5.319,1.793c2.907,0,4.335-0.924,5.747-2.088  c1.447-1.182,3.876-1.264,5.322,0.049c1.428,1.314,3.955,2.039,5.877,2.039c1.905,0,4.071-0.906,4.91-1.563  c1.594-1.23,1.756-1.527,2.775-1.741v-2.84c-0.854-0.083-1.233,0.276-2.811,1.51c-0.805,0.607-2.988,1.56-4.908,1.56  c-1.922,0-4.433-0.721-5.881-2.035c-1.428-1.313-3.873-1.233-5.319-0.049c-1.395,1.147-2.84,2.084-5.747,2.084  c-2.89,0-4.5-0.937-5.305-1.787c-0.935-1.004-2.446-1.168-3.053-1.168c-0.607,0-2.12,0.164-3.055,1.168  c-0.803,0.852-2.413,1.787-5.319,1.787c-2.892,0-4.336-0.937-5.749-2.084c-1.427-1.186-3.875-1.264-5.319,0.049  c-1.428,1.314-3.958,2.035-5.863,2.035c-1.92,0-4.121-0.951-4.926-1.56c-1.559-1.231-1.938-1.593-2.79-1.51v2.84  c1.001,0.214,1.182,0.511,2.775,1.741c0.82,0.654,2.989,1.563,4.908,1.563c1.921,0,4.434-0.725,5.878-2.039  c1.43-1.313,3.877-1.229,5.322-0.049c1.411,1.164,2.84,2.088,5.747,2.088c2.889,0,4.499-0.924,5.319-1.793  C32.944,87.434,34.454,87.281,35.094,87.281"/>
<g>
	<g>
		<path d="M35.143,39.697L9.296,49.269c0.84,1.989,3.581,10.51,4.402,13.532c0.92,3.467,2.612,12.809,3.071,15.993    c2.413-0.461,5.518,0.593,7.439,2.463c1.361,1.115,4.105,0.839,4.86,0c1.182-1.28,3.217-2.724,6.075-2.724    c2.84,0,4.894,1.441,6.076,2.724c0.756,0.839,3.496,1.115,4.861,0c1.919-1.87,5.025-2.924,7.439-2.463    c0.457-3.187,2.135-12.526,3.066-15.993c0.809-3.021,3.564-11.543,4.387-13.532L35.143,39.697z M27.163,53.654    c-1.1,0.101-2.117-1.117-2.234-2.68c-0.132-1.574,0.658-2.938,1.775-3.019c1.1-0.098,2.117,1.118,2.233,2.692    C29.069,52.21,28.279,53.572,27.163,53.654z M45.321,50.975c-0.129,1.563-1.132,2.78-2.248,2.68    c-1.099-0.082-1.906-1.444-1.772-3.006c0.131-1.574,1.148-2.791,2.248-2.692C44.65,48.037,45.456,49.401,45.321,50.975z"/>
	</g>
	<g>
		<path fill="none" stroke="#000000" stroke-width="0.288" stroke-linejoin="round" stroke-miterlimit="22.9256" d="M35.143,39.697    L9.296,49.269c0.84,1.989,3.581,10.51,4.402,13.532c0.92,3.467,2.612,12.809,3.071,15.993c2.413-0.461,5.518,0.593,7.439,2.463    c1.361,1.115,4.105,0.839,4.86,0c1.182-1.28,3.217-2.724,6.075-2.724c2.84,0,4.894,1.441,6.076,2.724    c0.756,0.839,3.496,1.115,4.861,0c1.919-1.87,5.025-2.924,7.439-2.463c0.457-3.187,2.135-12.526,3.066-15.993    c0.809-3.021,3.564-11.543,4.387-13.532L35.143,39.697z M27.163,53.654c-1.1,0.101-2.117-1.117-2.234-2.68    c-0.132-1.574,0.658-2.938,1.775-3.019c1.1-0.098,2.117,1.118,2.233,2.692C29.069,52.21,28.279,53.572,27.163,53.654z     M45.321,50.975c-0.129,1.563-1.132,2.78-2.248,2.68c-1.099-0.082-1.906-1.444-1.772-3.006c0.131-1.574,1.148-2.791,2.248-2.692    C44.65,48.037,45.456,49.401,45.321,50.975z"/>
	</g>
</g>
</svg>