<?xml version="1.0" encoding="utf-8"?>
<!-- Generator: Adobe Illustrator 14.0.0, SVG Export Plug-In . SVG Version: 6.00 Build 43363)  -->
<!DOCTYPE svg PUBLIC "-//W3C//DTD SVG 1.0//EN" "http://www.w3.org/TR/2001/REC-SVG-20010904/DTD/svg10.dtd">
<svg version="1.0" id="Layer_1" xmlns="http://www.w3.org/2000/svg" xmlns:xlink="http://www.w3.org/1999/xlink" x="0px" y="0px"
	 width="100px" height="62.174px" viewBox="0 0 100 62.174" enable-background="new 0 0 100 62.174" xml:space="preserve">
<path d="M28.16,37.777L6.823,25.458C0.298,21.691-1.938,13.348,1.83,6.823c3.767-6.525,12.11-8.76,18.635-4.994l21.336,12.319
	L28.16,37.777z"/>
<path d="M71.84,37.777l21.337-12.318c6.524-3.767,8.761-12.11,4.993-18.635S86.06-1.937,79.534,1.83L58.198,14.148L71.84,37.777z"/>
<circle cx="40.531" cy="42.899" r="2.986"/>
<circle cx="48.16" cy="35.27" r="2.987"/>
<circle cx="61.185" cy="41.244" r="2.986"/>
<circle cx="41.802" cy="54.845" r="2.986"/>
<circle cx="32.028" cy="57.831" r="2.986"/>
<circle cx="55.212" cy="48.872" r="2.986"/>
<circle cx="67.157" cy="59.188" r="2.986"/>
</svg>
