<svg xmlns:x="http://ns.adobe.com/Extensibility/1.0/" xmlns:i="http://ns.adobe.com/AdobeIllustrator/10.0/" xmlns:graph="http://ns.adobe.com/Graphs/1.0/" xmlns="http://www.w3.org/2000/svg" xmlns:xlink="http://www.w3.org/1999/xlink" xmlns:a="http://ns.adobe.com/AdobeSVGViewerExtensions/3.0/" version="1.0" id="Layer_1" x="0px" y="0px" width="100px" height="100px" viewBox="0 0 100 100" enable-background="new 0 0 100 100" xml:space="preserve">
<path fill="#000000" stroke="#98499C" stroke-miterlimit="10" d="M12.147,60.592"/>
<path fill="#000000" stroke="#98499C" stroke-miterlimit="10" d="M42.075,60.592"/>
<path fill="#000000" stroke="#98499C" stroke-miterlimit="10" d="M57.855,36.957"/>
<g>
	<path d="M42.555,61.975h13.97v-1.863h28.111v-6.305v-3.059H58.184h-1.18h-0.5v-3.576H42.528v3.584h-3.602v-0.008h-5.973v-1.463   H18.261v3.834h6.656v0.688H15.73v6.305h26.825V61.975z M44.301,48.823h10.208v9.358H44.301V48.823z"/>
	<path d="M90.52,18.461c0-0.08,0-0.159,0-0.24c0-6.507-1.037-12.049-2.496-14.227c-1.01-2.185-7.535-3.901-15.664-4.085   c-0.004,0-0.006,0-0.008,0c-0.477-0.011-0.957-0.018-1.441-0.018c-0.01,0-0.021,0-0.03,0s-0.021,0-0.028,0   c-0.486,0-0.968,0.006-1.442,0.018c-0.002,0-0.005,0-0.009,0c-8.129,0.184-14.654,1.9-15.664,4.085   c-1.459,2.178-2.495,7.72-2.495,14.227c0,0.081,0.001,0.16,0.002,0.24c-0.017,0.551-0.024,1.109-0.024,1.674   c0,7.813,1.586,14.363,3.721,16.133c0.567,0.521,1.609,0.997,3.004,1.404l1.328,11.151h11.707h0.102h11.706l1.339-11.243   c1.238-0.386,2.174-0.83,2.697-1.312c2.136-1.77,3.722-8.32,3.722-16.133C90.541,19.57,90.532,19.012,90.52,18.461z M83.79,33.077   c-1.412,1.302-6.437,2.264-12.415,2.264c-0.165,0-0.331-0.001-0.496-0.003c-0.164,0.001-0.33,0.003-0.495,0.003   c-5.979,0-11.002-0.962-12.416-2.264c-1.729-1.434-3.015-6.738-3.015-13.066c0-0.458,0.007-0.91,0.02-1.354   c0-0.066-0.002-0.129-0.002-0.195c0-5.27,0.842-9.76,2.021-11.523c0.818-1.77,6.104-3.16,12.688-3.309c0.004,0,0.006,0,0.008,0   c0.387-0.009,0.774-0.015,1.168-0.015c0.008,0,0.017,0,0.023,0c0.008,0,0.018,0,0.023,0c0.394,0,0.783,0.005,1.168,0.015   c0.004,0,0.005,0,0.008,0c6.583,0.149,11.87,1.54,12.688,3.309c1.18,1.764,2.021,6.253,2.021,11.523   c0,0.066-0.002,0.129-0.002,0.195c0.012,0.446,0.02,0.898,0.02,1.354C86.807,26.338,85.521,31.643,83.79,33.077z"/>
	<path d="M57.484,62.934H41.596v-1.865H13.885v38.675h1.845h9.187h59.72h1.424V61.068H57.484V62.934z M65.811,81.986   c0,9.061-7.345,16.406-16.406,16.406c-9.061,0-16.406-7.346-16.406-16.406S40.344,65.58,49.405,65.58   C58.466,65.58,65.811,72.926,65.811,81.986z"/>
	<circle cx="49.404" cy="81.986" r="11.674"/>
</g>
<g>
	<path d="M76.475,20.438L76.475,20.438L76.475,20.438z"/>
</g>
</svg>