<svg xmlns="http://www.w3.org/2000/svg" xmlns:xlink="http://www.w3.org/1999/xlink" version="1.1" id="Layer_1" x="0px" y="0px" width="100px" height="100px" viewBox="0 0 100 100" enable-background="new 0 0 100 100" xml:space="preserve">
<polygon fill="#000000" points="88.859,64.485 83.144,75.344 86.573,75.627 91.717,66.771 "/>
<path fill="#000000" d="M17.739,24.707c0.74,1.747,2.722,2.602,4.501,1.942c1.698-0.844,2.434-2.874,1.672-4.61  c0.702-0.271,1.077-1.045,0.859-1.763c-0.218-0.725-0.745-1.188-1.48-1.019c-1.322,0.082-2.618,0.403-3.826,0.947  c-1.225,0.506-2.347,1.23-3.315,2.14c-0.555,0.512-0.62,1.366-0.152,1.954c0.469,0.593,1.127,0.827,1.753,0.408H17.739z"/>
<polygon fill="#000000" points="58.568,64.485 61.997,65.911 56.282,75.916 52.569,75.916 "/>
<path fill="#000000" d="M28.408,40.345l-2.352-8.688c1.584,0.441,3.276-0.07,4.349-1.306l0.643,9.226l-2.646,0.768H28.408z"/>
<path fill="#000000" d="M17.38,31.462c0.376,0.897,1.214,1.523,2.188,1.616c0.969,0.098,1.916-0.349,2.46-1.159  c0.544-0.812,0.702-1.639,0.245-2.499L17.38,31.462z"/>
<path fill="#000000" d="M24.423,41.423l-5.078-6.652c1.709,0.213,3.375-0.62,4.224-2.117l3.669,7.947L24.423,41.423z"/>
<polygon fill="#000000" points="31.325,43.534 24.412,43.534 24.412,42.168 31.146,40.911 "/>
<path fill="#000000" d="M16.455,33.084c0.604,0.811,1.475,1.382,2.46,1.61l-4.398,7.839l0.033,5.552l4.017-4.458l0.599,16.727  l5.258-16.128l6.979,0.234l3.696,29.638c0.07,0.571-0.169,1.132-0.626,1.48c-0.458,0.349-1.067,0.419-1.595,0.196  c-0.528-0.224-0.898-0.713-0.97-1.279l-4.311-22.377c-0.032-0.152-0.158-0.262-0.305-0.277c-0.152-0.011-0.294,0.07-0.349,0.212  L17.38,76.204c-0.245,0.626-0.85,1.04-1.519,1.04c-0.67,0.005-1.284-0.419-1.535-1.04h-0.898l-5.715,4.001l-6.858,0.571l3.185-21  l7.604-8.447l-0.054-9.553l4.877-8.688L16.455,33.084z"/>
<path fill="#000000" d="M29.6,26.427c0.518,0.844,0.528,1.91,0.027,2.765s-1.437,1.366-2.428,1.323  c-0.99-0.044-2.073-1.192-2.504-2.091l4.91-1.997H29.6z"/>
<path fill="#000000" d="M30.683,29.992c0.583-0.833,0.85-1.846,0.746-2.857l9.106,3.511l2.504,9.052c0.142,0.506,0,1.045-0.37,1.421  c-0.37,0.375-0.909,0.522-1.415,0.392c-0.507-0.131-0.904-0.522-1.046-1.029l-2.106-7.625L30.683,29.992z"/>
<path fill="#000000" d="M79.715,62.482l1.143,1.714l6.858-2.003l6.858,5.144l1.143,8.29h3.43L98.004,65.34L96,56.767v-4.311  l-0.859-1.432l-0.507-2.271c1.791-0.408,2.924-2.171,2.554-3.968c-0.37-1.796-0.67-2.923-2.477-2.591  c-5.443,1.138-11.104-0.343-15.29-4.001l-4.572,0.572c5.187,5.138,12.721,7.103,19.753,5.144c0.594-0.044,1.159,0.245,1.47,0.751  s0.311,1.144,0,1.649s-1.11,0.762-1.698,0.719l-28.364-4.284c-1.698-0.256-3.418,0.262-4.692,1.421L47.421,56.772l-0.289,1.143  l-5.144-0.571l5.433,3.146l2.003,8.572h3.146l4.001-6.858L64,64.779l1.432,6.286l6.004,4.289v-4l-3.429-2.286l1.143-4.572  l10.576-2.003L79.715,62.482z"/>
</svg>