<svg xmlns="http://www.w3.org/2000/svg" xmlns:xlink="http://www.w3.org/1999/xlink" version="1.1" id="Layer_1" x="0px" y="0px" width="100px" height="100px" viewBox="0 0 100 100" enable-background="new 0 0 100 100" xml:space="preserve">
<path fill="#000000" d="M53.762,3.975v27.143c-11.184,0.006-20.337,8.885-20.652,20.063v4.129h-3.54v2.36h3.54v30.683h-8.851v2.951  h-5.9v2.359h35.403v4.721H13.638V3.975l2.068-2.359l2.068,2.359v4.721h4.838V3.975l2.068-2.359l2.068,2.359v4.721h4.839V3.975  l2.124-2.359l2.124,2.359v4.721h4.839V3.975l2.067-2.359l2.068,2.359v4.721h4.838V3.975l2.068-2.359l2.068,2.359H53.762z"/>
<path fill="#000000" d="M53.762,88.354V38.198c-7.316,0.006-13.314,5.782-13.571,13.095v4.018h3.54v2.359h-3.54v30.684H53.762z"/>
<path fill="#000000" d="M67.333,88.354H53.762v5.311h35.403v-2.359h-5.899v-2.951h-8.853V57.67h3.541v-2.359h-3.541V51.18  c-0.332-11.177-9.47-20.068-20.651-20.063v7.081c7.305-0.006,13.307,5.793,13.571,13.095v4.018h-3.541v2.359h3.541V88.354z"/>
</svg>