<svg xmlns="http://www.w3.org/2000/svg" xmlns:xlink="http://www.w3.org/1999/xlink" version="1.1" id="Layer_1" x="0px" y="0px" width="100px" height="100px" viewBox="0 0 100 100" enable-background="new 0 0 100 100" xml:space="preserve">
<path fill-rule="evenodd" clip-rule="evenodd" d="M63.453,11.622c0.57,0.294,0.818,0.587,0.339,1.45  c-3.98,7.268-7.791,14.225-10.599,22.264c-2.763,7.977-4.691,17.218-5.911,25.875c-0.047,0.785-0.431,0.927-0.91,0.88  c-0.54-0.047-1.019-0.245-0.927-1.111c0.818-7.499,3.287-18.823,6.003-26.322c2.76-7.698,7.204-15.922,10.646-22.356  C62.479,11.577,62.819,11.283,63.453,11.622"/>
<path fill-rule="evenodd" clip-rule="evenodd" d="M62.141,67.89c-0.633,2.519-5.229,3.197-7.253,2.717  c-2.234-0.585-1.018-2.947,0.618-2.377c1.559,0.589,4.845-0.384,4.461-1.634c0-3.147-0.588-6.387-0.727-10.307  c-0.292-7.406,0.186-15.351,1.636-20.381c2.377-8.224,5.43-16.201,7.452-23.268c0.293-1.018,0.724-1.311,1.312-1.157  c0.679,0.093,0.973,0.478,0.973,1.497c-0.047,3.765-4.799,15.135-6.728,23.375c-1.897,7.885-2.424,14.024-2.037,19.594  c4.645-0.587,10.694-1.511,20.998,3.966c10.446,5.617,14.272,11.217,13.979,17.311c-0.047,1.853-2.314,1.898-2.314,0.155  c0-3.673-2.516-7.991-5.031-10.215c-3.87-3.378-12.929-8.362-18.052-9.088c3.673,1.837,6.298,3.041,9.83,6.912  c5.509,6.05,3.333,16.356-3.688,21.772c-6.664,5.184-11.848,6.338-17.311,6.202c-2.129-0.047-2.516-2.579,0.278-2.625  c6.155-0.091,8.562-0.865,14.766-5.074c6.142-4.214,9.675-14.659,1.928-20.751c-6.912-5.432-11.309-5.819-13.346-6.25  c1.929,1.497,10.939,4.41,10.939,12.822c0,8.946-13.408,13.886-27.249,13.886c-13.793,0-25.011-4.444-27.863-11.896  c-3.242-8.473,6.278-13.594,6.278-13.594s-2.808-0.061-7.636,3.966c-4.892,4.058-4.845,10.26-1.11,15.136  c3.718,4.889,13.885,8.948,21.043,9.536c1.592,0.093,1.405,2.373,0.047,2.373c-4.166,0-20.135-2.898-24.918-13.159  c-4.844-10.307,2.716-16.601,10.446-19.935c-4.305,0.865-8.793,2.516-11.988,4.875c-3.982,2.964-6.589,6.681-6.294,11.526  c0.139,2.036-1.99,2.42-2.268,0.679c-1.066-6.68,3.625-12.775,9.333-15.967c2.515-1.405,12.914-4.801,20.274-4.074  c1.249-4.829,4.396-13.208,7.836-19.781c3.873-7.452,9.197-15.922,13.842-22.155c0.862-1.172,1.883-1.065,3.718-1.019  c2.807,0.093,1.744,1.928,0.726,3.872c-2.899,5.462-7.792,12.668-11.465,20.506c-3.439,7.452-6.341,16.51-8.223,25.027  c-0.153,0.662-0.54,0.815-1.019,0.768c-0.478-0.105-0.926-0.384-0.817-1.169c0.957-7.393,5.17-19.057,8.456-25.984  c3.688-7.883,7.605-13.253,10.413-19.255c-5.09,6.542-8.901,12.976-12.928,20.707c-3.857,7.406-6.912,16.508-9.335,24.873  c-0.432,1.649-0.479,2.574,1.358,2.174c1.653-0.326,1.836,0.495,1.544,2.576c-0.231,1.837,2.669,1.837,4.706,1.158  c2.515-0.773,3.086,1.589,0.958,2.22c-3.086,0.883-8.61,0.542-7.593-3.578c-4.164-0.247-4.164-3.965-3.24-5.168  c-7.652,1.063-10.892,6.771-10.507,10.105c3.011,9.92,15.539,11.711,24.488,12.096c9.581,0.387,23.126-1.789,26.413-9.72  c0-8.284-7.544-11.14-10.691-12.39C62.326,62.614,62.618,66.009,62.141,67.89"/>
<path fill-rule="evenodd" clip-rule="evenodd" d="M67.202,11.514c0.601,0.248,0.862,0.526,0.447,1.419  c-3.425,7.53-6.729,14.766-8.949,22.975c-2.159,8.161-3.303,18.346-3.873,27.063c0,0.771-0.37,0.954-0.862,0.939  c-0.526-0.014-1.02-0.169-0.988-1.049c0.262-7.527,1.789-19.825,3.949-27.494c2.176-7.884,6.019-16.416,8.979-23.082  C66.23,11.53,66.554,11.221,67.202,11.514"/>
<path fill-rule="evenodd" clip-rule="evenodd" d="M44.089,68.432c0.248,3.193,6.049,3.487,8.131,2.361  c2.084-1.11,0.387-3.087-1.063-2.129c-1.452,0.972-4.213,0.339-4.845-0.435C46.557,65.669,43.657,66.194,44.089,68.432"/>
<path fill-rule="evenodd" clip-rule="evenodd" d="M28.998,63.835c0.865-0.926,2.224,0.231,1.592,1.155  c-0.91,1.266-1.252,2.084-1.252,3.441c0.14,4.105,4.984,6.048,7.254,6.388c1.65,0.232,1.264,2.27-0.14,2.082  c-2.67-0.446-4.752-1.217-6.589-2.867c-1.789-1.544-2.76-3.626-2.655-6.049C27.303,66.256,27.98,64.99,28.998,63.835"/>
<path fill-rule="evenodd" clip-rule="evenodd" d="M63.205,66.147c-1.109-0.954,0.187-2.406,1.545-1.202  c0.924,0.818,1.603,2.176,1.494,3.779c-0.184,2.654-2.699,4.305-5.028,5.31c-3.147,1.401-6.389,2.082-10.354,2.187  c-2.699,0.049-5.276-0.061-7.976-0.583c-1.405-0.246-1.066-2.269,0.231-2.085c2.668,0.339,4.937,0.679,7.36,0.679  c2.899-0.044,5.907-0.431,8.563-1.447c1.789-0.726,3.194-1.205,4.413-2.606C64.115,69.343,65.042,67.706,63.205,66.147"/>
<path fill-rule="evenodd" clip-rule="evenodd" d="M69.839,11.483c1.113,0.093,2.023-0.725,2.855-1.898  c0.818-1.156,5.076-1.204,8.179-1.064c3.039,0.155,11.078,3.981,10.399,11.187c-0.771,8.269,2.22,17.033,4.009,22.063  c1.793,5.031-2.421,8.656-2.991,12.729c-0.586,4.058,5.26,12.189,3.67,17.651c-1.603-4.6-7.975-9.674-15.49-13.207  c-5.799-2.716-12.667-3.966-18.575-2.949c-0.479-4.21-0.187-13.36,1.99-21.105C67.124,23.286,72.107,11.283,69.839,11.483"/>
<path fill-rule="evenodd" clip-rule="evenodd" d="M5.963,18.21c0-2.962,2.994-6.341,5.371-6.68c1.942-0.294,5.415,0.14,7.883,0.231  c9.675,0.401,8.671-1.204,12.591-2.562c4.489-1.543,7.931-1.357,13.839-1.249c2.793,0.045,8.456,1.79,9.812,3.719  c-1.834,3.008-9.487,13.361-14.131,22.695c-4.396,8.856-6.328,14.086-7.93,20.026c-17.267,0.543-26.168,5.71-29.702,14.518  C1.18,62.816,3.742,43.853,2.972,35.429C3.11,30.354,5.963,23.765,5.963,18.21"/>
</svg>