<svg xmlns="http://www.w3.org/2000/svg" xmlns:xlink="http://www.w3.org/1999/xlink" version="1.1" id="Layer_1" x="0px" y="0px" width="100px" height="100px" viewBox="0 0 100 100" enable-background="new 0 0 100 100" xml:space="preserve">
<polygon points="60.063,27.312 37.936,27.312 28.632,99 69.368,99 "/>
<path d="M37.936,22.159v-6.554c0-0.571,0.11-1.137,0.325-1.667C40.032,9.563,44.28,6.701,49,6.701c4.719,0,8.967,2.863,10.738,7.237  c0.216,0.53,0.324,1.096,0.324,1.667v6.554H37.936z"/>
<polygon points="64.459,12.914 95.378,11.701 94.014,2.305 64.005,11.55 "/>
<polygon points="64.309,20.189 79.918,20.189 83.707,26.251 64.459,22.614 "/>
<polygon points="33.541,12.914 2.622,11.701 3.986,2.305 33.995,11.55 "/>
<polygon points="33.692,20.189 18.082,20.189 14.292,26.251 33.541,22.614 "/>
</svg>