<svg xmlns="http://www.w3.org/2000/svg" xmlns:xlink="http://www.w3.org/1999/xlink" version="1.1" id="Layer_1" x="0px" y="0px" width="100px" height="100px" viewBox="0 0 100 100" enable-background="new 0 0 100 100" xml:space="preserve">
<g>
	<path fill-rule="evenodd" clip-rule="evenodd" d="M40.235,52.8c0.073,0.358,0.125,0.698,0.212,1.028   c0.415,1.57,1.476,2.602,2.848,3.359c1.205,0.667,2.501,1.044,3.866,1.218c2.083,0.264,4.114,0.074,6.079-0.671   c1.112-0.42,2.124-1.012,2.932-1.909c0.864-0.96,1.227-2.104,1.291-3.375c0.076-1.521,0.182-3.04,0.281-4.559   c0.095-1.444,0.2-2.887,0.299-4.331c0.046-0.668,0.084-1.337,0.143-2.004c0.008-0.096,0.092-0.215,0.177-0.269   c2.19-1.405,4.385-2.804,6.584-4.197c0.079-0.051,0.226-0.062,0.312-0.025c5.929,2.571,11.854,5.15,17.783,7.721   c0.224,0.097,0.294,0.22,0.292,0.46c-0.012,1.643-0.003,3.286-0.008,4.929c-0.003,1.297-0.026,2.595-0.022,3.891   c0.006,1.772,0.014,3.545,0.049,5.316c0.015,0.704-0.244,1.209-0.817,1.617c-4.301,3.067-8.595,6.146-12.886,9.227   c-5.528,3.971-11.053,7.946-16.576,11.923c-5.76,4.147-11.519,8.298-17.274,12.451c-0.151,0.108-0.26,0.124-0.433,0.034   c-5.351-2.786-10.704-5.567-16.058-8.347c-1.274-0.662-2.549-1.322-3.828-1.973c-0.2-0.102-0.269-0.223-0.269-0.447   c0.007-4.974,0.007-9.946,0.001-14.919c0-0.221,0.068-0.347,0.257-0.467c8.174-5.177,16.345-10.361,24.516-15.543   C40.064,52.891,40.148,52.849,40.235,52.8z"/>
	<path fill-rule="evenodd" clip-rule="evenodd" d="M60.901,19.275c0,2.627-0.017,5.253,0.007,7.88   c0.012,1.281-0.492,2.302-1.41,3.146c-0.301,0.277-0.627,0.53-0.957,0.772c-0.308,0.226-0.479,0.497-0.505,0.89   c-0.161,2.413-0.338,4.825-0.509,7.237c-0.166,2.348-0.337,4.696-0.497,7.044c-0.144,2.122-0.281,4.244-0.408,6.367   c-0.097,1.626-0.905,2.796-2.255,3.643c-1.08,0.677-2.262,1.063-3.51,1.264c-2.416,0.387-4.754,0.162-6.962-0.954   c-1.148-0.581-2.089-1.377-2.555-2.631c-0.253-0.683-0.243-1.396-0.291-2.105c-0.081-1.207-0.185-2.412-0.283-3.616   c-0.142-1.733-0.288-3.465-0.43-5.198c-0.166-2.012-0.333-4.024-0.496-6.037c-0.099-1.216-0.202-2.432-0.28-3.649   c-0.041-0.633-0.307-1.078-0.892-1.347c-1.064-0.489-2.089-1.045-2.887-1.93c-0.23-0.255-0.437-0.537-0.617-0.83   c-0.332-0.542-0.5-1.119-0.499-1.776c0.018-5.427,0.026-10.853-0.003-16.279c-0.006-1.087,0.387-1.956,1.095-2.709   c1.043-1.111,2.369-1.791,3.761-2.349c1.685-0.676,3.456-0.995,5.246-1.242c1.464-0.203,2.938-0.199,4.401-0.125   c2.942,0.15,5.817,0.678,8.438,2.11c0.759,0.415,1.453,0.973,2.108,1.543c0.825,0.717,1.173,1.682,1.171,2.776   c-0.004,2.702-0.001,5.404-0.001,8.106C60.889,19.275,60.895,19.275,60.901,19.275z"/>
</g>
</svg>