<svg xmlns="http://www.w3.org/2000/svg" xmlns:xlink="http://www.w3.org/1999/xlink" version="1.1" id="Layer_1" x="0px" y="0px" width="100px" height="100px" viewBox="0 0 100 100" enable-background="new 0 0 100 100" xml:space="preserve">
<path d="M99.749,43.473L98.8,43.038l-3.783,8.247c-0.007-0.009-0.014-0.02-0.02-0.027l-2.467-8.4l-1,0.295l2.672,9.099  c-1.744,2.74-6.468,9.577-10.509,10.074c-0.352,0.043-0.976,0.081-1.816,0.112c0.006-0.03,0.016-0.061,0.023-0.091  c0.643-2.848,0.961-5.76,0.961-8.66c0.005-5.801-1.292-11.545-3.715-16.723c-2.417-5.181-5.975-9.799-10.33-13.416  c-2.173-1.812-4.545-3.369-7.037-4.649c-0.311-0.163-0.625-0.315-0.94-0.468l-0.523-0.25L59.91,18l-1.052-0.448l-1.017-0.39  c-1.364-0.501-2.764-0.898-4.182-1.209c-5.677-1.229-11.633-0.833-17.007,1.061c-5.383,1.874-10.195,5.242-13.75,9.604  c-1.779,2.171-3.252,4.603-4.351,7.122c-1.182,2.729-1.839,5.517-2.029,8.396c-0.378,5.731,1.295,11.479,4.571,16.043  c1.108,1.554,2.411,2.959,3.842,4.207c-3.874-0.036-6.275-0.061-6.275-0.061L0,72.759h88.027l0.199-0.213  c0,0,10.472-9.779,10.936-12.492c0.341-1.992-2.114-5.868-3.446-7.791L99.749,43.473z M52.607,62.573  c1.411-1.345,2.627-2.886,3.56-4.574c0.167-0.301,0.325-0.604,0.475-0.911l0.111-0.231l0.125-0.271l0.175-0.407  c0.122-0.302,0.284-0.707,0.393-1.035c0.111-0.336,0.221-0.671,0.306-1.014c0.371-1.361,0.536-2.771,0.531-4.17  c-0.026-2.802-0.817-5.557-2.238-7.916c-1.419-2.361-3.485-4.306-5.874-5.582c-2.388-1.323-5.322-1.848-8.014-1.383  c-2.708,0.442-5.22,1.812-7.032,3.806c-0.898,0.997-1.645,2.144-2.153,3.354c-0.546,1.293-0.797,2.637-0.767,3.996  c0.053,2.707,1.291,5.321,3.297,7.039c0.499,0.431,1.041,0.808,1.614,1.123c0.141,0.083,0.29,0.151,0.434,0.225l0.234,0.111  l0.204,0.087c0.319,0.13,0.646,0.246,0.962,0.326c1.286,0.349,2.651,0.336,3.912-0.005c2.537-0.672,4.615-2.712,5.212-5.229  c0.608-2.535-0.703-5.282-2.93-6.398c-1.092-0.593-2.424-0.71-3.573-0.315c-1.156,0.38-2.12,1.247-2.608,2.324  c0.563-1.041,1.563-1.808,2.677-2.09c1.115-0.295,2.316-0.097,3.264,0.506c1.959,1.165,2.879,3.665,2.222,5.729  c-0.642,2.069-2.532,3.666-4.601,4.046c-1.036,0.201-2.11,0.133-3.084-0.207c-0.25-0.083-0.475-0.183-0.696-0.29l-0.198-0.102  c-0.021-0.012-0.09-0.044-0.073-0.039l-0.085-0.051c-0.114-0.068-0.23-0.131-0.339-0.207c-0.443-0.284-0.853-0.615-1.224-0.984  c-1.491-1.466-2.281-3.561-2.176-5.579c0.042-1.003,0.32-2.014,0.754-2.867c0.473-0.939,1.101-1.752,1.83-2.462  c1.472-1.405,3.406-2.274,5.381-2.454c1.991-0.18,3.931,0.302,5.609,1.385c1.707,1.075,3.091,2.592,3.987,4.349  c0.894,1.757,1.301,3.736,1.183,5.655c-0.067,0.96-0.246,1.906-0.563,2.805c-0.071,0.226-0.165,0.445-0.252,0.666  c-0.096,0.225-0.165,0.362-0.277,0.601l-0.204,0.395l-0.049,0.099c-0.035,0.068,0.017-0.038,0.004-0.014l-0.023,0.041l-0.093,0.162  c-0.125,0.216-0.255,0.426-0.391,0.635c-1.079,1.662-2.508,3.059-4.15,4.096c-3.288,2.092-7.429,2.629-11.002,1.519  c-3.581-1.11-6.819-3.799-8.799-7.045c-2.007-3.266-2.817-7.194-2.303-10.872c0.245-1.822,0.841-3.657,1.653-5.208  c0.917-1.75,2.035-3.315,3.353-4.71c2.623-2.785,6.001-4.785,9.624-5.76c3.62-0.99,7.453-0.94,10.948,0.087  c0.873,0.261,1.73,0.571,2.559,0.948l0.617,0.289l0.559,0.288l0.391,0.208l0.098,0.052c-0.123-0.061-0.011-0.004-0.029-0.011  l0.039,0.022l0.156,0.09l0.622,0.366c1.641,0.999,3.163,2.163,4.527,3.478c2.732,2.625,4.846,5.837,6.175,9.324  c1.333,3.484,1.884,7.23,1.613,10.868c-0.132,1.818-0.462,3.612-0.988,5.339c-0.262,0.863-0.571,1.712-0.924,2.54  c-0.176,0.414-0.367,0.822-0.563,1.228l-0.116,0.221C61.524,62.604,57.083,62.593,52.607,62.573z"/>
</svg>