<svg xmlns="http://www.w3.org/2000/svg" xmlns:xlink="http://www.w3.org/1999/xlink" version="1.1" id="Layer_1" x="0px" y="0px" width="100px" height="100px" viewBox="0 0 100 100" enable-background="new 0 0 100 100" xml:space="preserve">
<g>
	<path d="M93.686,37.084h2.271v-8.336c0-0.328-0.267-0.593-0.595-0.593h-6.609c2.949,1.505,4.968,4.573,4.968,8.111   C93.721,36.542,93.709,36.815,93.686,37.084L93.686,37.084z M84.618,28.945c-4.044,0-7.321,3.277-7.321,7.321   c0,4.044,3.277,7.322,7.321,7.322s7.321-3.277,7.321-7.322C91.939,32.223,88.662,28.945,84.618,28.945L84.618,28.945z    M47.84,56.775c0,5.565,4.511,10.078,10.08,10.078c5.565,0,10.078-4.513,10.078-10.078c0-5.567-4.513-10.079-10.078-10.079   C52.352,46.696,47.84,51.208,47.84,56.775L47.84,56.775z M20.062,32.997c0,2.776,2.251,5.029,5.029,5.029   c2.776,0,5.028-2.252,5.028-5.029c0-2.777-2.252-5.028-5.028-5.028C22.313,27.969,20.062,30.22,20.062,32.997L20.062,32.997z    M31.435,41.363c-1.398,1.062-3.072,1.781-4.896,2.033l0,1.8c0,2.063-2.969,2.064-2.97,0.001l0-1.811   c-2.734-0.397-5.128-1.849-6.754-3.927H3.633v33.997c0,0.329,0.266,0.595,0.594,0.595h91.135c0.328,0,0.595-0.266,0.595-0.595   V39.46h-2.812c-1.294,3.452-4.624,5.909-8.527,5.909c-3.904,0-7.234-2.457-8.528-5.909H46.066c0.781,1.247,1.233,2.722,1.233,4.301   c0,0.578-0.06,1.142-0.175,1.686c2.808-2.677,6.609-4.32,10.796-4.32c8.643,0,15.647,7.006,15.647,15.649   c0,8.642-7.005,15.647-15.647,15.647c-8.644,0-15.649-7.006-15.649-15.647c0-2.188,0.448-4.271,1.259-6.161   c-1.255,0.798-2.745,1.26-4.343,1.26c-4.48,0-8.112-3.633-8.112-8.113C31.075,42.927,31.201,42.12,31.435,41.363L31.435,41.363z    M34.409,28.155c0.754,1.448,1.181,3.095,1.181,4.842c0,1.386-0.269,2.708-0.756,3.917c1.258-0.801,2.752-1.266,4.354-1.266   c1.711,0,3.299,0.53,4.607,1.436h31.757c-0.023-0.27-0.036-0.542-0.036-0.818c0-3.538,2.02-6.605,4.968-8.111H34.409L34.409,28.155   z M17.466,25.778c1.914-2.02,4.622-3.28,7.625-3.28c1.884,0,3.652,0.496,5.181,1.365h9.135c0.656,0,1.188,0.532,1.188,1.188v0.727   H74.04v-1.477h-0.736v-2.834l2.852-2.852h5.229c0.171-0.292,0.604-0.5,1.112-0.5h0.3h0.301c0.509,0,0.941,0.208,1.11,0.5h5.23   l2.852,2.852v2.834h-0.737v1.477h3.81c1.64,0,2.969,1.33,2.969,2.97v44.709c0,1.642-1.329,2.971-2.969,2.971h-3.747v2.896H74.062   v-2.896H25.657v2.896H8.104v-2.896H4.227c-1.64,0-2.969-1.329-2.969-2.971V28.748c0-1.64,1.329-2.97,2.969-2.97h7.079v-3.669   c0-0.624,0.481-1.135,1.091-1.184v-1.864c0-0.656,0.532-1.188,1.188-1.188h0.686c0.656,0,1.188,0.531,1.188,1.188v1.86   c0.647,0.011,1.167,0.539,1.167,1.188v3.669H17.466L17.466,25.778z M14.591,32.997c0-1.747,0.427-3.394,1.181-4.842H4.227   c-0.328,0-0.594,0.265-0.594,0.593v8.336h11.783C14.885,35.828,14.591,34.447,14.591,32.997L14.591,32.997z M13.281,54.084   c0-0.812,0.261-1.562,0.704-2.173l-4.202-5.1c-0.756-0.917,0.62-2.05,1.375-1.133l4.19,5.085c0.491-0.242,1.044-0.378,1.63-0.378   c2.042,0,3.697,1.655,3.697,3.698c0,2.041-1.655,3.696-3.697,3.696C14.937,57.78,13.281,56.125,13.281,54.084L13.281,54.084z    M50.787,29.568c0-0.065,0.054-0.119,0.118-0.119h9.303c0.064,0,0.119,0.053,0.119,0.119v6.175c0,0.065-0.055,0.118-0.119,0.118   h-9.303c-0.064,0-0.118-0.053-0.118-0.118V29.568L50.787,29.568z M63.524,29.568c0-0.065,0.053-0.119,0.118-0.119h9.301   c0.066,0,0.119,0.053,0.119,0.119v6.175c0,0.065-0.053,0.118-0.119,0.118h-9.301c-0.065,0-0.118-0.053-0.118-0.118V29.568   L63.524,29.568z M81.015,36.266c0-1.99,1.613-3.603,3.604-3.603c1.989,0,3.603,1.613,3.603,3.603s-1.613,3.604-3.603,3.604   C82.628,39.87,81.015,38.256,81.015,36.266L81.015,36.266z"/>
</g>
</svg>