<svg xmlns="http://www.w3.org/2000/svg" xmlns:xlink="http://www.w3.org/1999/xlink" version="1.1" id="Camada_1" x="0px" y="0px" width="100px" height="100px" viewBox="0 0 100 100" enable-background="new 0 0 100 100" xml:space="preserve">
<path d="M99.479,6.712c0-3.708-3.005-6.71-6.707-6.71c-0.015,0-0.026,0.004-0.042,0.004L92.727,0H6.833L6.825,0.013  c-0.038-0.002-0.072-0.011-0.11-0.011C3.008,0.002,0,3.004,0,6.712c0,1.63,0.606,3.104,1.571,4.265L1.563,11.03l29.999,35.195h26.35  l-23.102,9.41v30.911c0,5.856,9.967,13.337,22.777,13.337c5.857,0,8.133,0,8.133,0V46.226l31.391-34.437  C98.549,10.558,99.479,8.752,99.479,6.712z"/>
</svg>