<svg xmlns="http://www.w3.org/2000/svg" xmlns:xlink="http://www.w3.org/1999/xlink" version="1.1" id="Camada_1" x="0px" y="0px" width="100px" height="100px" viewBox="0 0 100 100" enable-background="new 0 0 100 100" xml:space="preserve">
<path fill="#000000" d="M16.096,86.223c-0.425,0.426-0.66,0.991-0.66,1.593c0,0.6,0.234,1.165,0.659,1.591l0.047,0.045  c0.425,0.426,0.99,0.661,1.591,0.661s1.167-0.235,1.591-0.661L48.957,59.82l-3.229-3.229L16.096,86.223z"/>
<path fill="#000000" d="M97.227,32H3.064C1.372,32,0,33.513,0,35.206v0.096C0,36.994,1.372,38,3.064,38H30.11l51.086,51.405  c0.424,0.426,0.99,0.685,1.592,0.685c0.601,0,1.166-0.225,1.593-0.652l0.044-0.037c0.425-0.426,0.659-0.988,0.659-1.588  c0-0.602-0.234-1.165-0.659-1.591L36.567,38h27.386L51.564,50.571l3.229,3.137L70.411,38h26.815c1.692,0,2.773-1.006,2.773-2.698  v-0.096C100,33.513,98.919,32,97.227,32z"/>
<path fill="#000000" d="M50.526,19.152c-1.867,0-18.417,0-18.417,0c3.922-4.38,8.285-5.532,11.547-6.225h5.405  c1.105,0,2-0.855,2-1.959s-0.895-1.96-2-1.96h-7.036H41.46c-0.179,0-0.349-0.026-0.514,0.017  c-12.004,1.242-25.549,16.179-25.6,16.235c-1.192,1.124-1.891,4.037,1.31,4.037h34.65c1.19,0,2.182-0.966,2.182-2.158v-4.926  C53.488,22.214,53.831,19.152,50.526,19.152z"/>
</svg>