<svg xmlns:x="http://ns.adobe.com/Extensibility/1.0/" xmlns:i="http://ns.adobe.com/AdobeIllustrator/10.0/" xmlns:graph="http://ns.adobe.com/Graphs/1.0/" xmlns="http://www.w3.org/2000/svg" xmlns:xlink="http://www.w3.org/1999/xlink" version="1.1" id="Layer_1" x="0px" y="0px" width="100px" height="84.6153846154px" viewBox="0 0 208 176" enable-background="new 0 0 208 176" xml:space="preserve">
<metadata>
	<sfw xmlns="http://ns.adobe.com/SaveForWeb/1.0/">
		<slices/>
		<sliceSourceBounds width="25.675" height="99.75" x="584.781" y="-470.75" bottomLeftOrigin="true"/>
	</sfw>
</metadata>
<path d="M106.536,137.805c-5.555,0-9.767-1.008-9.767-1.008c-3.138-1.11-2.923-7.202-2.923-7.202l-0.22-42.458  c-0.522-6.143,0.837-7.863,0.837-7.863c3.596-6.405,3.524-8.506,3.785-10.794c0.262-2.288,2.699-25.146,2.699-25.146  c-1.111-0.893-0.023-1.281-0.023-1.281c0.827-0.757,0.195-0.998,0.195-0.998h-1.046c0.523-3,2.614-3,2.614-3h4.038 M106.51,137.805  c5.555,0,9.552-1.008,9.552-1.008c3.137-1.11,2.828-7.202,2.828-7.202l0.174-42.458c0.522-6.143-0.862-7.863-0.862-7.863  c-3.595-6.405-3.535-8.506-3.797-10.794c-0.261-2.288-2.704-25.146-2.704-25.146c1.111-0.893,0.02-1.281,0.02-1.281  c-0.827-0.757-0.196-0.998-0.196-0.998h1.045c-0.523-3-2.614-3-2.614-3h-3.229"/>
</svg>