<svg xmlns:x="http://ns.adobe.com/Extensibility/1.0/" xmlns:i="http://ns.adobe.com/AdobeIllustrator/10.0/" xmlns:graph="http://ns.adobe.com/Graphs/1.0/" xmlns="http://www.w3.org/2000/svg" xmlns:xlink="http://www.w3.org/1999/xlink" version="1.1" id="Layer_1" x="0px" y="0px" width="100px" height="84.6153846154px" viewBox="0 0 208 176" enable-background="new 0 0 208 176" xml:space="preserve">
<metadata>
	<sfw xmlns="http://ns.adobe.com/SaveForWeb/1.0/">
		<slices/>
		<sliceSourceBounds width="51.201" height="100" x="569.675" y="-470.945" bottomLeftOrigin="true"/>
	</sfw>
</metadata>
<path d="M118.44,118.199c0.383,0,0.639,0,0.639,0v-3.562h-2.244c-2.397-5.522-4.22-10.675-5.593-15.327h0.878v-2.734h-1.649  c-3.705-13.713-3.487-22.452-3.487-22.452l-1.232-25.076c0.873-0.572,1.452-1.556,1.452-2.679c0-1.541-1.089-2.827-2.539-3.133V38  h-1.326v5.234c-1.45,0.306-2.54,1.592-2.54,3.133c0,1.123,0.58,2.106,1.453,2.679l-1.232,25.076c0,0,0.218,8.739-3.487,22.452  h-1.649v2.734h0.878c-1.373,4.652-3.195,9.805-5.593,15.327h-2.244v3.562c0,0,0.256,0,0.639,0  C86.643,124.441,82.993,131.094,78.4,138h11.599c0,0,0-15.493,14.002-15.493S118.002,138,118.002,138h11.599  C125.008,131.094,121.358,124.441,118.44,118.199z M104,114.305h-5.8c0,0,1.906-8.036,2.568-11.848H104h3.231  c0.662,3.812,2.568,11.848,2.568,11.848H104z"/>
</svg>