<svg xmlns:x="http://ns.adobe.com/Extensibility/1.0/" xmlns:i="http://ns.adobe.com/AdobeIllustrator/10.0/" xmlns:graph="http://ns.adobe.com/Graphs/1.0/" xmlns="http://www.w3.org/2000/svg" xmlns:xlink="http://www.w3.org/1999/xlink" version="1.1" id="Layer_1" x="0px" y="0px" width="100px" height="84.6153846154px" viewBox="0 0 208 176" enable-background="new 0 0 208 176" xml:space="preserve">
<metadata>
	<sfw xmlns="http://ns.adobe.com/SaveForWeb/1.0/">
		<slices/>
		<sliceSourceBounds width="85.802" height="100.153" x="561.423" y="-471" bottomLeftOrigin="true"/>
	</sfw>
</metadata>
<rect x="103.725" y="135.055" width="28" height="3"/>
<path d="M155.951,103.111l-2.399-2.399c-1.404,2.128-2.996,4.12-4.74,5.966l-3.508-3.509c6.482-6.912,10.46-16.203,10.46-26.428  c0-21.347-17.305-38.651-38.651-38.651c-10.225,0-19.516,3.978-26.428,10.46l-3.509-3.509c1.847-1.744,3.838-3.335,5.966-4.739  l-2.399-2.399c-2.104,1.433-4.082,3.036-5.923,4.782l-3.05-3.049l-1.763,1.763l3.048,3.049  c-7.992,8.423-12.905,19.794-12.905,32.295c0,25.622,20.628,46.504,46.149,46.943c0.241,1.842,0.518,6.742-2.718,10.062h7.272  c0,0-3.035-4.572-2.202-10.066c11.894-0.385,22.672-5.227,30.748-12.889l3.266,3.265l1.763-1.764l-3.263-3.263  C152.91,107.188,154.518,105.215,155.951,103.111z M117.112,120.379c-24.062,0-43.638-19.577-43.638-43.639  c0-11.584,4.549-22.116,11.94-29.935l3.506,3.507c-6.482,6.913-10.459,16.204-10.459,26.428c0,21.346,17.304,38.651,38.651,38.651  c10.225,0,19.516-3.978,26.429-10.46l3.506,3.507C139.227,115.831,128.696,120.379,117.112,120.379z"/>
</svg>