<svg xmlns="http://www.w3.org/2000/svg" xmlns:xlink="http://www.w3.org/1999/xlink" version="1.1" id="Layer_1" x="0px" y="0px" width="69.8250728863px" height="100px" viewBox="0 0 479.977 686.965" enable-background="new 0 0 479.977 686.965" xml:space="preserve">
<g>
	<path fill="#000000" d="M115.556,205.187c19.744,1.745,48.279-15.424,58.692-33.163c19.114-32.562,2.203-66.221-16.803-84.133   c-19.11-18.011-43.839-16.863-63.063-11.999c-20.355,5.152-34.686,26.58-38.983,49.917 M220.991,89.855   c-8.341,9.516-16.021,19.456-18.236,31.34c-4.203,22.553,10.125,39.736,30.564,42.249c18.057,2.221,39.793-17.965,41.65-38.674   c1.919-21.402-10.566-36.074-32.539-39.383 M312.935,177.544c18.419,1.657,38.199-16.848,39.496-36.948   c1.129-17.493-12.323-35.041-27.773-36.229c-18.773-1.443-35.254,15.174-37.008,37.314   C286.188,160.105,297.505,176.154,312.935,177.544z M371.028,215.92c9.193,5.014,18.037,1.557,25.412-5.197   c6.357-5.822,14.308-10.916,18.257-18.136c7.081-12.948-7.233-27.289-17.387-30.022c-19.728-5.308-36.222,6.782-38.118,27.481   C358.263,200.919,361.251,210.59,371.028,215.92z"/>
	<path fill-rule="evenodd" clip-rule="evenodd" d="M333.756,534.405c-18.741,18.59-99.166,45.773-85.166-19.227   c36-89,40.308-127.23,13.857-153.668c-7.879-7.875-49.808-61.214,2.716-83.332c42.236-17.786,84.478,7.589,84.493,7.597   c12.216,6.36,26.628,16.253,31.818,21.064c8.278,7.673,14.698-3.326,14.023-5.688c-3.303-11.549-6.598-23.333-11.902-34.037   c-20.584-41.529-55.284-52.375-117.557-75.082c-52.062-18.983-115.569,21.578-128.751,78.456   c-8.816,38.036,5.717,71.219,34.421,97.354c9.858,8.975,21.355,16.191,32.332,23.889c20.231,14.182,25.176,34.328,25.479,57.779   c0.42,32.322-14.301,60.404-22.262,90.371c-5.596,21.072-7.178,41.318,6.233,61.055c14.271,21.002,33.909,28.922,57.396,24.65   c35.408-7.055,73.857-26.701,91.992-67.223c17.36-38.791,36.052-151.127,29.61-146.141   C370.59,429.178,363.222,505.178,333.756,534.405z"/>
	<path fill-rule="evenodd" clip-rule="evenodd" d="M115.556,205.187c19.744,1.745,48.279-15.424,58.692-33.163   c19.114-32.562,2.203-66.221-16.803-84.133c-19.11-18.011-43.839-16.863-63.063-11.999c-20.355,5.152-34.686,26.58-38.983,49.917   C49.068,160.181,95.399,200.393,115.556,205.187z"/>
	<path fill-rule="evenodd" clip-rule="evenodd" d="M242.431,85.387c-7.439-0.685-17.811,0.781-21.439,4.468   c-9.26,9.408-16.021,19.456-18.236,31.34c-4.203,22.553,10.125,39.736,30.564,42.249c18.057,2.221,39.793-17.965,41.65-38.674   C276.889,103.368,264.403,88.696,242.431,85.387z"/>
	<path fill-rule="evenodd" clip-rule="evenodd" d="M287.649,141.681c-1.461,18.424,9.855,34.473,25.285,35.863   c18.419,1.657,38.199-16.848,39.496-36.948c1.129-17.493-12.323-35.041-27.773-36.229   C305.884,102.923,289.403,119.541,287.649,141.681z"/>
	<path fill-rule="evenodd" clip-rule="evenodd" d="M354.192,194.046c-0.93,10.873,2.059,20.544,11.836,25.874   c9.193,5.014,18.037,1.557,25.412-5.197c6.357-5.822,12.066-7.539,16.016-14.759c7.081-12.948-4.992-30.666-15.146-33.399   C372.583,161.257,356.089,173.347,354.192,194.046z"/>
</g>
</svg>