<svg xmlns="http://www.w3.org/2000/svg" xmlns:xlink="http://www.w3.org/1999/xlink" version="1.1" x="0px" y="0px" width="69.8250728863px" height="100px" viewBox="0 0 479.977 686.965" enable-background="new 0 0 479.977 686.965" xml:space="preserve">
<g id="Layer_1" display="none">
	<g display="inline">
		<path fill="#000000" d="M115.556,205.187c19.744,1.745,48.279-15.424,58.692-33.163c19.114-32.562,2.203-66.221-16.803-84.133    c-19.11-18.011-43.839-16.863-63.063-11.999c-20.355,5.152-34.686,26.58-38.983,49.917 M220.991,89.855    c-8.341,9.516-16.021,19.456-18.236,31.34c-4.203,22.553,10.125,39.736,30.564,42.249c18.057,2.221,39.793-17.965,41.65-38.674    c1.919-21.402-10.566-36.074-32.539-39.383 M312.935,177.544c18.419,1.657,38.199-16.848,39.496-36.948    c1.129-17.493-12.323-35.041-27.773-36.229c-18.773-1.443-35.254,15.174-37.008,37.314    C286.188,160.105,297.505,176.154,312.935,177.544z M371.028,215.92c9.193,5.014,18.037,1.557,25.412-5.197    c6.357-5.822,14.308-10.916,18.257-18.136c7.081-12.948-7.233-27.289-17.387-30.022c-19.728-5.308-36.222,6.782-38.118,27.481    C358.263,200.919,361.251,210.59,371.028,215.92z"/>
		<path fill-rule="evenodd" clip-rule="evenodd" d="M333.756,534.405c-18.741,18.59-99.166,45.773-85.166-19.227    c36-89,40.308-127.23,13.857-153.668c-7.879-7.875-49.808-61.214,2.716-83.332c42.236-17.786,84.478,7.589,84.493,7.597    c12.216,6.36,26.628,16.253,31.818,21.064c8.278,7.673,14.698-3.326,14.023-5.688c-3.303-11.549-6.598-23.333-11.902-34.037    c-20.584-41.529-55.284-52.375-117.557-75.082c-52.062-18.983-115.569,21.578-128.751,78.456    c-8.816,38.036,5.717,71.219,34.421,97.354c9.858,8.975,21.355,16.191,32.332,23.889c20.231,14.182,25.176,34.328,25.479,57.779    c0.42,32.322-14.301,60.404-22.262,90.371c-5.596,21.072-7.178,41.318,6.233,61.055c14.271,21.002,33.909,28.922,57.396,24.65    c35.408-7.055,73.857-26.701,91.992-67.223c17.36-38.791,36.052-151.127,29.61-146.141    C370.59,429.178,363.222,505.178,333.756,534.405z"/>
		<path fill-rule="evenodd" clip-rule="evenodd" d="M115.556,205.187c19.744,1.745,48.279-15.424,58.692-33.163    c19.114-32.562,2.203-66.221-16.803-84.133c-19.11-18.011-43.839-16.863-63.063-11.999c-20.355,5.152-34.686,26.58-38.983,49.917    C49.068,160.181,95.399,200.393,115.556,205.187z"/>
		<path fill-rule="evenodd" clip-rule="evenodd" d="M242.431,85.387c-7.439-0.685-17.811,0.781-21.439,4.468    c-9.26,9.408-16.021,19.456-18.236,31.34c-4.203,22.553,10.125,39.736,30.564,42.249c18.057,2.221,39.793-17.965,41.65-38.674    C276.889,103.368,264.403,88.696,242.431,85.387z"/>
		<path fill-rule="evenodd" clip-rule="evenodd" d="M287.649,141.681c-1.461,18.424,9.855,34.473,25.285,35.863    c18.419,1.657,38.199-16.848,39.496-36.948c1.129-17.493-12.323-35.041-27.773-36.229    C305.884,102.923,289.403,119.541,287.649,141.681z"/>
		<path fill-rule="evenodd" clip-rule="evenodd" d="M354.192,194.046c-0.93,10.873,2.059,20.544,11.836,25.874    c9.193,5.014,18.037,1.557,25.412-5.197c6.357-5.822,12.066-7.539,16.016-14.759c7.081-12.948-4.992-30.666-15.146-33.399    C372.583,161.257,356.089,173.347,354.192,194.046z"/>
	</g>
</g>
<g id="Layer_2">
	<g>
		<path fill="#000000" d="M351.471,285.261c-0.329-3.787-0.457-8.497-1.187-13.112c-4.797-30.373-21.582-53.842-44.604-72.671    c-24.867-20.338-53.313-34.594-84.654-42.296c-16.792-4.125-34.045-4.656-50.265,1.88c-26.741,10.778-41.051,32.426-46.239,59.757    c-4.774,25.155-1.453,49.797,11.671,72.246c7.4,12.659,23.357,23.954,41.067,16.486c22.777-9.604,45.857-7.246,66.482,8.391    c12.713,9.638,20.383,21.937,21.152,38.008c0.733,15.338-4.95,29.163-12.136,42.092c-15.287,27.503-36.451,50.677-57.082,74.12    c-15.991,18.171-27.095,38.972-32.542,62.173c-6.523,27.776-4.247,55.081,12.659,79.386c7.928,11.396,17.137,21.983,31.562,25.251    c36.556,8.279,67.528-8.338,80.974-46.453c7.845-22.239,10.86-45.521,12.329-68.988c2.08-33.229,1.992-66.835,10.654-99.171    c5.644-21.067,14.105-41.426,22.002-61.832C342.616,336.492,350.837,312.303,351.471,285.261z M130.999,103.462    c0.649,3.557,1.41,9.427,2.833,15.131c2.424,9.72,7.911,17.137,18.11,19.462c10.89,2.484,20.398-0.163,28.08-8.864    c11.059-12.526,17.087-27.123,17.809-43.654c0.526-12.075-2.022-24.285-13.531-30.108c-11.376-5.756-23.924-5.62-34.925,2.889    C135.337,69.177,132.372,84.718,130.999,103.462z M254.717,96.123c-0.377-3.107-0.338-7.143-1.412-10.855    c-4.065-14.048-13.822-24.898-30.184-11.72c-11.422,9.2-18.108,29.079-12.962,42.722c2.962,7.85,8.763,12.649,17.448,14.14    c8.015,1.376,13.649-1.708,18.877-7.305C253.501,115.591,253.681,106.251,254.717,96.123z M302.665,120.268    c-0.466-15.462-10.655-22.683-24.768-17.552c-11.817,4.296-19.195,24.134-13.074,35.151c4.25,7.649,11.32,10.806,19.939,8.905    C295.749,144.349,303.064,133.518,302.665,120.268z M334.708,147.673c0.044-7.897-5.062-13.676-12.193-13.804    c-8.199-0.146-17.293,9.641-17.511,18.849c-0.176,7.437,5.614,13.905,12.338,13.783    C325.912,166.345,334.658,156.864,334.708,147.673z M347.274,198.63c8.157-0.261,16.116-9.527,15.723-18.309    c-0.321-7.21-5.267-11.977-12.28-11.838c-7.687,0.152-15.234,9.419-14.851,18.234C336.177,193.829,340.968,198.832,347.274,198.63    z"/>
		<path fill-rule="evenodd" clip-rule="evenodd" d="M351.471,285.261c-0.634,27.042-8.854,51.23-18.156,75.267    c-7.896,20.406-16.358,40.765-22.002,61.832c-8.662,32.336-8.574,65.942-10.654,99.171c-1.469,23.468-4.484,46.749-12.329,68.988    c-13.445,38.115-44.418,54.732-80.974,46.453c-14.425-3.268-23.634-13.854-31.562-25.251    c-16.906-24.305-19.182-51.609-12.659-79.386c5.448-23.201,16.551-44.002,32.542-62.173c20.631-23.443,41.795-46.617,57.082-74.12    c7.186-12.929,12.869-26.754,12.136-42.092c-0.77-16.071-8.439-28.37-21.152-38.008c-20.625-15.637-43.705-17.995-66.482-8.391    c-17.71,7.468-33.667-3.827-41.067-16.486c-13.124-22.449-16.445-47.091-11.671-72.246c5.188-27.332,19.498-48.979,46.239-59.757    c16.22-6.537,33.473-6.005,50.265-1.88c31.341,7.702,59.787,21.958,84.654,42.296c23.021,18.829,39.807,42.298,44.604,72.671    C351.014,276.765,351.142,281.475,351.471,285.261z"/>
		<path fill-rule="evenodd" clip-rule="evenodd" d="M130.999,103.462c1.373-18.745,4.338-34.285,18.375-45.144    c11.001-8.509,23.549-8.646,34.925-2.889c11.509,5.823,14.058,18.033,13.531,30.108c-0.722,16.531-6.75,31.127-17.809,43.654    c-7.682,8.701-17.19,11.348-28.08,8.864c-10.199-2.326-15.686-9.743-18.11-19.462    C132.409,112.889,131.648,107.019,130.999,103.462z"/>
		<path fill-rule="evenodd" clip-rule="evenodd" d="M254.717,96.123c-1.036,10.128-1.216,19.468-8.232,26.982    c-5.228,5.597-10.862,8.681-18.877,7.305c-8.686-1.491-14.486-6.29-17.448-14.14c-5.146-13.643,1.54-33.522,12.962-42.722    c16.361-13.179,26.118-2.329,30.184,11.72C254.379,88.98,254.34,93.016,254.717,96.123z"/>
		<path fill-rule="evenodd" clip-rule="evenodd" d="M302.665,120.268c0.399,13.25-6.916,24.082-17.902,26.504    c-8.619,1.901-15.689-1.256-19.939-8.905c-6.121-11.017,1.257-30.854,13.074-35.151    C292.01,97.585,302.199,104.806,302.665,120.268z"/>
		<path fill-rule="evenodd" clip-rule="evenodd" d="M334.708,147.673c-0.05,9.191-8.796,18.672-17.366,18.828    c-6.724,0.122-12.514-6.347-12.338-13.783c0.218-9.208,9.312-18.995,17.511-18.849    C329.646,133.997,334.752,139.776,334.708,147.673z"/>
		<path fill-rule="evenodd" clip-rule="evenodd" d="M347.274,198.63c-6.307,0.202-11.098-4.802-11.408-11.913    c-0.384-8.815,7.164-18.083,14.851-18.234c7.014-0.139,11.959,4.627,12.28,11.838C363.391,189.103,355.432,198.37,347.274,198.63z    "/>
	</g>
</g>
</svg>