<svg xmlns="http://www.w3.org/2000/svg" xmlns:xlink="http://www.w3.org/1999/xlink" version="1.1" id="Layer_1" x="0px" y="0px" width="100px" height="100px" viewBox="0 0 100 100" enable-background="new 0 0 100 100" xml:space="preserve">
<path fill-rule="evenodd" clip-rule="evenodd" d="M49.016,58.993c1.546-3.426,3.136-6.73,7.104-8.319  c2.382-0.919,5.099,0.462,7.649-0.333c1.922-0.668,4.598-2.005,6.229-3.47l20.27,13.626c-3.174,2.799-8.025,5.266-12.664,6.353  c-3.803,1.004-8.149,0.294-11.285,2.005c-4.307,1.842-8.399,5.435-10.866,9.073L49.016,58.993z M47.093,59.619  c-3.303-1.714-6.605-3.386-10.66-2.255c-2.465,0.752-3.887,3.427-6.352,4.303c-1.965,0.629-4.933,1.298-7.063,1.131l-7.984,23.235  c4.096,0.295,9.363-0.707,13.793-2.673c3.301-1.463,6.646-4.598,10.073-5.392c4.598-1.086,10.072-0.668,14.126,0.835L47.093,59.619z   M55.744,84.448c3.009-4.681,7.189-8.443,12.162-10.702c3.844-1.88,8.277-0.752,11.998-1.798c2.382-0.666,5.222-2.087,8.149-3.55  c2.676-1.422,5.684-4.056,7.396-5.727l-1.379-2.174L70.166,43.946c-3.302,2.884-6.772,4.849-10.201,4.306  c-3.592-0.543-6.604,1.295-8.148,2.422c-1.881,1.757-3.303,3.387-4.723,6.188c-2.719-1.463-4.892-2.007-7.484-2.218  c-1.838-0.123-5.223,0.503-7.856,3.093c-2.507,2.385-6.353,2.928-10.701,2.467l-9.486,27.712l0.083,3.302  c2.467,0.418,5.476-0.209,8.568-0.666c3.094-0.503,6.438-1.046,8.736-1.925c3.553-1.295,6.688-4.555,10.91-5.642  C45.044,81.605,50.479,82.484,55.744,84.448z"/>
<path fill-rule="evenodd" clip-rule="evenodd" d="M56.873,88.124l40.584-20.73l-1.506-2.676c-2.256,2.467-6.979,5.601-10.45,7.065  c-3.758,1.463-7.102,2.968-11.825,2.759c-3.805-0.417-8.192,2.341-10.282,4.262c-2.467,2.341-5.141,5.017-6.979,7.941  c-3.261-1.295-6.773-1.922-10.159-2.297c-2.801-0.294-7.607,0.123-10.574,2.549c-3.679,3.052-8.026,4.139-11.996,4.931  c-4.013,0.838-8.903,1.798-12.288,1.339l-0.334,3.385L56.873,88.124z"/>
<rect x="2.912" y="5.619" fill-rule="evenodd" clip-rule="evenodd" width="12.539" height="44.805"/>
<polygon fill-rule="evenodd" clip-rule="evenodd" points="16.205,9.002 28.409,6.33 37.979,49.464 25.776,52.096 "/>
<path fill-rule="evenodd" clip-rule="evenodd" d="M40.405,5.619H52.86c0,13.709,0,27.251,0,40.96  c-2.382,0.793-4.056,2.509-4.931,3.844h-7.524V5.619z"/>
<path fill-rule="evenodd" clip-rule="evenodd" d="M55.075,5.619h12.414v36.738c-1.254,1.421-4.305,3.092-5.935,3.051  c-2.133-0.083-4.682-0.335-6.521,0.419L55.075,5.619z"/>
<polygon fill-rule="evenodd" clip-rule="evenodd" points="69.622,5.619 82.159,5.619 82.159,49.211 69.622,40.645 "/>
<rect x="84.333" y="5.619" fill-rule="evenodd" clip-rule="evenodd" width="12.54" height="44.805"/>
</svg>