<svg xmlns="http://www.w3.org/2000/svg" xmlns:xlink="http://www.w3.org/1999/xlink" version="1.1" id="Layer_1" x="0px" y="0px" width="100px" height="100px" viewBox="0 0 100 100" enable-background="new 0 0 100 100" xml:space="preserve">
<path d="M42.273,58.445h-2.465v-1.437h2.465V58.445z M42.273,2.1v14.758h-1.411c-4.268,6.602-5.585,12.133-3.398,20.277  c1.08,4.005,2.749,7.408,4.809,10.487v8.116c-11.199-13.682-13.522-27.616-7.244-38.88V2.1H42.273z M58.819,58.445H42.273v-1.437  h16.546V58.445z M52.971,16.858v36.188h1.618c1.527-1.729,2.954-3.514,4.23-5.424v8.116l-0.355,0.433H42.627l-0.354-0.433v-8.116  c1.275,1.91,2.703,3.695,4.228,5.424h1.622V16.858h-5.85V2.1h16.546v14.758H52.971z M58.819,57.009h2.462v1.437h-2.462V57.009z   M58.819,47.622c2.059-3.079,3.73-6.481,4.807-10.487c2.191-8.145,0.868-13.675-3.397-20.277h-1.409V2.1h7.241v14.758  c6.279,11.265,3.955,25.198-7.241,38.88V47.622z"/>
<path d="M44.773,62.612c0.999,0,1.813,0.813,1.813,1.814c0,0.996-0.814,1.811-1.813,1.811c-0.998,0-1.813-0.814-1.813-1.811  C42.96,63.425,43.775,62.612,44.773,62.612 M56.318,62.612c-0.998,0-1.813,0.813-1.813,1.814c0,0.996,0.815,1.811,1.813,1.811  c0.997,0,1.811-0.814,1.811-1.811C58.129,63.425,57.315,62.612,56.318,62.612 M38.921,62.612c0.998,0,1.813,0.813,1.813,1.814  c0,0.996-0.814,1.811-1.813,1.811s-1.813-0.814-1.813-1.811C37.108,63.425,37.923,62.612,38.921,62.612 M62.172,62.612  c-1.001,0-1.814,0.813-1.814,1.814c0,0.996,0.813,1.811,1.814,1.811c0.995,0,1.81-0.814,1.81-1.811  C63.981,63.425,63.167,62.612,62.172,62.612 M43.057,70.371c0.998,0,1.81,0.814,1.81,1.812c0,0.998-0.813,1.813-1.81,1.813  s-1.813-0.815-1.813-1.813C41.245,71.186,42.06,70.371,43.057,70.371 M58.034,70.371c-0.998,0-1.813,0.814-1.813,1.812  c0,0.998,0.815,1.813,1.813,1.813c1,0,1.814-0.815,1.814-1.813C59.849,71.186,59.034,70.371,58.034,70.371 M36.367,70.371  c0.998,0,1.813,0.814,1.813,1.812c0,0.998-0.815,1.813-1.813,1.813c-1,0-1.814-0.815-1.814-1.813  C34.553,71.186,35.366,70.371,36.367,70.371 M64.725,70.371c-0.999,0-1.814,0.814-1.814,1.812c0,0.998,0.815,1.813,1.814,1.813  c0.997,0,1.813-0.815,1.813-1.813C66.537,71.186,65.722,70.371,64.725,70.371 M50.545,62.612c0.999,0,1.814,0.813,1.814,1.814  c0,0.996-0.815,1.811-1.814,1.811c-0.998,0-1.812-0.814-1.812-1.811C48.733,63.425,49.548,62.612,50.545,62.612 M50.545,70.371  c0.999,0,1.814,0.814,1.814,1.812c0,0.998-0.815,1.813-1.814,1.813c-0.998,0-1.812-0.815-1.812-1.813  C48.733,71.186,49.548,70.371,50.545,70.371 M50.545,78.448c0.999,0,1.814,0.814,1.814,1.813s-0.815,1.812-1.814,1.812  c-0.998,0-1.812-0.813-1.812-1.812S49.548,78.448,50.545,78.448 M41.272,78.448c1,0,1.813,0.814,1.813,1.813  s-0.814,1.812-1.813,1.812c-0.998,0-1.811-0.813-1.811-1.812S40.274,78.448,41.272,78.448 M59.819,78.448  c-0.998,0-1.813,0.814-1.813,1.813s0.815,1.812,1.813,1.812s1.814-0.813,1.814-1.812S60.817,78.448,59.819,78.448 M33.679,78.448  c0.997,0,1.813,0.814,1.813,1.813s-0.815,1.812-1.813,1.812c-0.999,0-1.813-0.813-1.813-1.812S32.68,78.448,33.679,78.448   M67.414,78.448c-1.001,0-1.814,0.814-1.814,1.813s0.813,1.812,1.814,1.812c0.997,0,1.812-0.813,1.812-1.812  S68.411,78.448,67.414,78.448 M39.427,86.74c1,0,1.812,0.814,1.812,1.81c0,1.001-0.813,1.814-1.812,1.814  c-0.998,0-1.811-0.813-1.811-1.814C37.617,87.555,38.429,86.74,39.427,86.74 M50.545,86.74c-0.998,0-1.812,0.814-1.812,1.81  c0,1.001,0.814,1.814,1.812,1.814c0.999,0,1.814-0.813,1.814-1.814C52.359,87.555,51.544,86.74,50.545,86.74 M61.663,86.74  c-0.999,0-1.814,0.814-1.814,1.81c0,1.001,0.815,1.814,1.814,1.814c0.997,0,1.813-0.813,1.813-1.814  C63.476,87.555,62.66,86.74,61.663,86.74 M30.925,86.74c0.999,0,1.814,0.814,1.814,1.81c0,1.001-0.815,1.814-1.814,1.814  c-0.998,0-1.812-0.813-1.812-1.814C29.113,87.555,29.927,86.74,30.925,86.74 M70.165,86.74c-0.995,0-1.811,0.814-1.811,1.81  c0,1.001,0.815,1.814,1.811,1.814c0.999,0,1.811-0.813,1.811-1.814C71.976,87.555,71.164,86.74,70.165,86.74 M37.573,95.031  c0.998,0,1.813,0.813,1.813,1.813c0,0.997-0.815,1.813-1.813,1.813c-0.999,0-1.813-0.815-1.813-1.813  C35.76,95.845,36.575,95.031,37.573,95.031 M50.545,95.031c-0.998,0-1.812,0.813-1.812,1.813c0,0.997,0.814,1.813,1.812,1.813  c0.999,0,1.814-0.815,1.814-1.813C52.359,95.845,51.544,95.031,50.545,95.031 M63.52,95.031c-1.002,0-1.814,0.813-1.814,1.813  c0,0.997,0.813,1.813,1.814,1.813c0.996,0,1.811-0.815,1.811-1.813C65.33,95.845,64.516,95.031,63.52,95.031 M28.179,95.031  c0.998,0,1.812,0.813,1.812,1.813c0,0.997-0.814,1.813-1.812,1.813c-0.998,0-1.813-0.815-1.813-1.813  C26.367,95.845,27.181,95.031,28.179,95.031 M72.912,95.031c-0.998,0-1.813,0.813-1.813,1.813c0,0.997,0.815,1.813,1.813,1.813  c0.999,0,1.814-0.815,1.814-1.813C74.727,95.845,73.911,95.031,72.912,95.031"/>
</svg>