<svg xmlns="http://www.w3.org/2000/svg" xmlns:xlink="http://www.w3.org/1999/xlink" version="1.1" id="Group_5_copy_1_" x="0px" y="0px" width="100.0px" height="100px" viewBox="0 0 105 105" enable-background="new 0 0 105 105" xml:space="preserve">
<g id="Cycle_1">
	<g>
		<path d="M21.353,57.557l-12.12,12.12c0,0,2.019,0,6.056,0c0.002,0,0.003,0,0.003,0s0,6.053,0,12.108    c0,11.569,12.12,12.132,12.12,12.132v-24.24c0,0,0.006,0,0.018,0c4.027,0,6.042,0,6.042,0L21.353,57.557z"/>
	</g>
</g>
<g id="Cycle_2">
	<g>
		<path d="M10.311,35.244c0,0,1.427,1.428,4.282,4.283c0.001,0.001,0.002,0.002,0.002,0.002s-4.28,4.28-8.562,8.563    c-8.181,8.181-0.007,17.147-0.007,17.147l17.139-17.14c0,0,0.004,0.004,0.012,0.012c2.848,2.847,4.273,4.272,4.273,4.272v-17.14    H10.311z"/>
	</g>
</g>
<g id="Cycle_3">
	<g>
		<path d="M35.115,33.474l12.12-12.119l-12.12-12.12c0,0,0,2.019,0,6.057c0,0.002,0,0.004,0,0.004s-6.053,0-12.109,0    c-11.568,0-12.13,12.119-12.13,12.119h24.239c0,0,0,0.006,0,0.018C35.115,31.458,35.115,33.474,35.115,33.474z"/>
	</g>
</g>
<g id="Cycle_4">
	<g>
		<path d="M65.21,14.595c-0.001,0.001-0.002,0.002-0.002,0.002s-4.279-4.28-8.563-8.562c-8.18-8.181-17.146-0.007-17.146-0.007    l17.14,17.14c0,0-0.005,0.004-0.013,0.012c-2.847,2.847-4.272,4.273-4.272,4.273h17.139v-17.14    C69.493,10.313,68.066,11.74,65.21,14.595z"/>
	</g>
</g>
<g id="Cycle_5">
	<g>
		<path d="M89.445,35.063c-0.001,0-0.003,0-0.003,0s0-6.053,0-12.109c0-11.568-12.119-12.13-12.119-12.13v24.239    c0,0-0.007,0-0.018,0c-4.026,0-6.043,0-6.043,0l12.12,12.119l12.119-12.119C95.502,35.063,93.483,35.063,89.445,35.063z"/>
	</g>
</g>
<g id="Cycle_6">
	<g>
		<path d="M98.758,56.647c8.18-8.18,0.008-17.146,0.008-17.146L81.625,56.642c0,0-0.004-0.005-0.012-0.014    c-2.847-2.847-4.272-4.271-4.272-4.271v17.14h17.14c0,0-1.427-1.428-4.283-4.283c-0.001-0.002-0.002-0.002-0.002-0.002    S94.476,60.932,98.758,56.647z"/>
	</g>
</g>
<g id="Cycle_7">
	<g>
		<path d="M69.674,77.325c0,0,0-0.007,0-0.019c0-4.026,0-6.042,0-6.042l-12.119,12.12l12.119,12.119c0,0,0-2.02,0-6.057    c0-0.001,0-0.003,0-0.003s6.054,0,12.11,0c11.568,0,12.13-12.119,12.13-12.119H69.674z"/>
	</g>
</g>
<g id="Cycle_8">
	<g>
		<path d="M48.097,81.627c0,0,0.004-0.004,0.012-0.013c2.848-2.847,4.273-4.272,4.273-4.272h-17.14v17.14    c0,0,1.427-1.427,4.283-4.282c0.001-0.001,0.002-0.002,0.002-0.002s4.28,4.28,8.562,8.562c8.181,8.181,17.147,0.009,17.147,0.009    L48.097,81.627z"/>
	</g>
</g>
</svg>