<svg xmlns="http://www.w3.org/2000/svg" xmlns:xlink="http://www.w3.org/1999/xlink" version="1.1" id="Two_Stack_1_" x="0px" y="0px" width="100px" height="100px" viewBox="0 0 100 100" enable-background="new 0 0 100 100" xml:space="preserve">
<g id="Cabinet_1_">
	<g>
		<path fill-rule="evenodd" clip-rule="evenodd" d="M76.768,10.88H23.231c-1.056,0-1.912,0.83-1.912,1.855v74.529    c0,1.023,0.856,1.855,1.912,1.855h53.536c1.056,0,1.912-0.832,1.912-1.855V12.735C78.68,11.71,77.823,10.88,76.768,10.88z     M73.88,85.519H26.359V51.801H73.88V85.519z M73.88,48.2H26.359V14.479H73.88V48.2z"/>
	</g>
</g>
<g id="Bottom_Handle_1_">
	<g>
		<path fill-rule="evenodd" clip-rule="evenodd" d="M57.052,55.428h-1.955v4.395c0,0.346-0.282,0.627-0.63,0.627h-8.82    c-0.348,0-0.63-0.281-0.63-0.627v-4.395h-1.83c-0.346,0-0.627,0.279-0.627,0.623v6.286c0,0.344,0.281,0.623,0.627,0.623h13.865    c0.347,0,0.628-0.279,0.628-0.623v-6.286C57.68,55.707,57.398,55.428,57.052,55.428z"/>
	</g>
</g>
<g id="Top_Handle_1_">
	<g>
		<path fill-rule="evenodd" clip-rule="evenodd" d="M57.052,18.108h-1.955v4.393c0,0.348-0.282,0.629-0.63,0.629h-8.82    c-0.348,0-0.63-0.281-0.63-0.629v-4.393h-1.83c-0.346,0-0.627,0.278-0.627,0.622v6.287c0,0.344,0.281,0.622,0.627,0.622h13.865    c0.347,0,0.628-0.278,0.628-0.622V18.73C57.68,18.387,57.398,18.108,57.052,18.108z"/>
	</g>
</g>
</svg>