<svg xmlns="http://www.w3.org/2000/svg" xmlns:xlink="http://www.w3.org/1999/xlink" version="1.1" x="0px" y="0px" width="100px" height="100px" viewBox="0 0 100 100" enable-background="new 0 0 100 100" xml:space="preserve">
<g id="Background_xA0_Image_1_">
</g>
<g id="Three_Stack_1_" enable-background="new    ">
	<g id="Cabinet">
		<g>
			<path fill-rule="evenodd" clip-rule="evenodd" d="M70.862,5.157H29.139c-0.823,0-1.49,0.667-1.49,1.49v86.706     c0,0.823,0.667,1.49,1.49,1.49h41.723c0.823,0,1.49-0.667,1.49-1.49V6.647C72.352,5.824,71.685,5.157,70.862,5.157z M68.44,92.05     H31.56V65.88h36.88V92.05z M68.44,63.085H31.56v-26.17h36.88V63.085z M68.44,34.121H31.56V7.951h36.88V34.121z"/>
		</g>
	</g>
	<g id="Bottom_Handle">
		<g>
			<path fill-rule="evenodd" clip-rule="evenodd" d="M55.288,68.694H53.77v3.411c0,0.269-0.219,0.487-0.489,0.487h-6.846     c-0.27,0-0.489-0.218-0.489-0.487v-3.411h-1.42c-0.269,0-0.487,0.217-0.487,0.484v4.879c0,0.267,0.218,0.483,0.487,0.483h10.761     c0.269,0,0.487-0.216,0.487-0.483v-4.879C55.774,68.911,55.557,68.694,55.288,68.694z"/>
		</g>
	</g>
	<g id="Middle_Handle">
		<g>
			<path fill-rule="evenodd" clip-rule="evenodd" d="M55.381,39.73h-1.518v3.41c0,0.269-0.219,0.487-0.489,0.487h-6.845     c-0.27,0-0.489-0.218-0.489-0.487v-3.41h-1.42c-0.269,0-0.487,0.216-0.487,0.483v4.879c0,0.267,0.218,0.483,0.487,0.483h10.761     c0.269,0,0.487-0.216,0.487-0.483v-4.879C55.868,39.947,55.649,39.73,55.381,39.73z"/>
		</g>
	</g>
	<g id="Top_Handle">
		<g>
			<path fill-rule="evenodd" clip-rule="evenodd" d="M55.381,10.767h-1.518v3.41c0,0.269-0.219,0.487-0.489,0.487h-6.845     c-0.27,0-0.489-0.218-0.489-0.487v-3.41h-1.42c-0.269,0-0.487,0.216-0.487,0.483v4.879c0,0.267,0.218,0.483,0.487,0.483h10.761     c0.269,0,0.487-0.216,0.487-0.483V11.25C55.868,10.983,55.649,10.767,55.381,10.767z"/>
		</g>
	</g>
</g>
</svg>