<svg xmlns="http://www.w3.org/2000/svg" xmlns:xlink="http://www.w3.org/1999/xlink" version="1.1" id="Layer_1" x="0px" y="0px" width="100px" height="100px" viewBox="0 0 100 100" enable-background="new 0 0 100 100" xml:space="preserve">
<path d="M39.295,34.178c0,0-0.812-11.626,11.717-11.92c4.495-0.103,6.51-2.327,6.51-2.327c2.009-0.418,3.193,1.083,3.193,2.913  c0,1.823-3.193,3.737-3.193,7.789c0,2.83,0,12.6,0,12.6c0,2.015-1.637,3.651-3.646,3.651H42.94c-2.003,0-3.645-1.637-3.645-3.651  V34.178z M48.532,21.357c-3.959-9.575-0.724-9.26,1.508-14.769c1.515,3.459,6.322,7.029,0.181,14.769c0,0,6.314-1.616,6.772-6.9  C57.447,9.171,50.916,1.053,48.99,0c-0.377,5.141-6.294,8.313-5.992,14.355C43.301,20.398,48.104,21.193,48.532,21.357z   M20.835,90.632h58.329c6.039,0,10.132-1.258,10.132-7.292c0,0,1.631-16.498,0.125-17.709c-0.987-0.794-2.183,3.213-12.078,3.127  c-7.476-0.066-11.118-2.355-12.892-4.67c-2.019,2.312-6.121,4.67-14.452,4.67c-8.359,0-12.462-2.369-14.466-4.688  c-1.787,2.319-5.432,4.7-12.878,4.688c-10.019-0.023-11.854-3.559-12.833-2.826C8.845,66.654,9.9,83.34,9.9,83.34  C9.9,89.374,14.797,90.632,20.835,90.632z M22.658,65.107c10.534,0.247,10.927-5.304,10.937-5.521  c0.054-0.978,0.855-1.754,1.825-1.754c0.007,0,0.016,0,0.031,0c0.975,0.022,1.771,0.796,1.79,1.77  c0.018,0.184,0.531,5.506,12.762,5.506c12.232,0,12.745-5.322,12.765-5.552c0.063-0.979,0.876-1.746,1.883-1.717  c0.975,0.041,1.76,0.821,1.76,1.799c0.006,0.199,0.325,5.47,10.936,5.47c19.833,0,9.183-14.582,4.386-14.582h-63.86  C13.073,50.525,1.892,64.618,22.658,65.107z M6.088,93.84V100h87.824v-6.16H6.088z"/>
</svg>