<svg xmlns="http://www.w3.org/2000/svg" xmlns:xlink="http://www.w3.org/1999/xlink" version="1.1" id="Layer_1" x="0px" y="0px" width="100px" height="100px" viewBox="0 0 100 100" enable-background="new 0 0 100 100" xml:space="preserve">
<g>
	<path fill-rule="evenodd" clip-rule="evenodd" fill="#000000" d="M49.356,51.48c0.217,0,0.431,0,0.643-0.005   c0.211,0.005,0.425,0.005,0.641,0.005c6.987,0,12.651-1.534,12.651-5.837c0-7.573-8.993-8.824-11.814-18.929v-7.7h5.885v-2.954   h-5.885v-5.847h-2.953v5.847h-5.885v2.954h5.885v7.786c-2.816,10.293-11.814,11.671-11.814,18.843   C36.709,49.698,42.37,51.48,49.356,51.48z"/>
	<path fill-rule="evenodd" clip-rule="evenodd" fill="#000000" d="M77.211,62.432c-1.652-1.652-3.818-2.479-5.983-2.479H60.175   v-7.319c0,0-3.731,1.256-10.174,1.256c-6.443,0-10.493-1.256-10.493-1.256v7.319H28.689c-1.262,0-2.521,0.292-3.68,0.858   c-0.501,0.225-0.949,0.506-1.344,0.826c-0.312,0.235-0.616,0.485-0.901,0.77c-1.635,1.636-2.454,3.78-2.454,5.925v1.982   c1.22-3.809,4.792-6.574,9-6.574c4.041,0,7.487,2.553,8.836,6.127c1.592-5.031,6.303-8.689,11.853-8.689   c5.551,0,10.263,3.658,11.854,8.689c1.349-3.574,4.795-6.127,8.835-6.127c4.209,0,7.78,2.766,9.001,6.574v-1.899   C79.689,66.25,78.863,64.084,77.211,62.432z"/>
	<path fill-rule="evenodd" clip-rule="evenodd" fill="#000000" d="M70.688,65.818c-4.071,0-7.372,3.301-7.372,7.373v16.595h14.745   V73.191C78.062,69.119,74.762,65.818,70.688,65.818z"/>
	<path fill-rule="evenodd" clip-rule="evenodd" fill="#000000" d="M29.311,65.818c-4.071,0-7.373,3.301-7.373,7.373v16.595h14.746   V73.191C36.684,69.119,33.383,65.818,29.311,65.818z"/>
	<path fill-rule="evenodd" clip-rule="evenodd" fill="#000000" d="M49.999,63.256c-5.715,0-10.35,4.634-10.35,10.351v16.18h20.701   v-16.18C60.351,67.89,55.717,63.256,49.999,63.256z"/>
</g>
</svg>