<svg xmlns="http://www.w3.org/2000/svg" xmlns:xlink="http://www.w3.org/1999/xlink" version="1.1" id="Layer_1" x="0px" y="0px" width="100px" height="100px" viewBox="0 0 100 100" enable-background="new 0 0 100 100" xml:space="preserve">
<path fill="#000000" d="M84.734,67.274l-0.743-22.264c-0.009-0.257-0.093-0.506-0.242-0.716L64.897,17.947  c-0.007-0.01-0.017-0.017-0.023-0.026c-0.054-0.07-0.113-0.136-0.18-0.195c-0.017-0.015-0.033-0.028-0.051-0.042  c-0.062-0.049-0.128-0.092-0.198-0.13c-0.035-0.018-0.07-0.033-0.106-0.048c-0.056-0.023-0.113-0.042-0.174-0.058  c-0.034-0.009-0.067-0.019-0.102-0.025c-0.015-0.002-0.027-0.007-0.042-0.01l-21.556-3.1c-0.137-0.02-0.273-0.015-0.406,0.008  c-0.053,0.009-0.101,0.035-0.152,0.05c-0.084,0.025-0.168,0.05-0.245,0.092c-0.014,0.008-0.03,0.008-0.044,0.016l-6.67,3.916  c-0.287,0.168-0.498,0.439-0.591,0.758L29.841,34.53l-11.045-2.216c-0.021-0.004-0.043-0.003-0.065-0.006  c-0.041-0.006-0.082-0.01-0.122-0.013c-0.036-0.001-0.071-0.002-0.106-0.001c-0.044,0.001-0.087,0.005-0.13,0.01  c-0.033,0.004-0.066,0.01-0.099,0.017c-0.043,0.009-0.086,0.02-0.129,0.034c-0.03,0.01-0.06,0.02-0.089,0.032  c-0.042,0.017-0.083,0.036-0.123,0.056c-0.028,0.016-0.056,0.031-0.084,0.049c-0.037,0.023-0.072,0.047-0.106,0.074  c-0.029,0.021-0.056,0.045-0.082,0.07c-0.03,0.026-0.058,0.054-0.085,0.084s-0.053,0.062-0.077,0.095  c-0.014,0.019-0.03,0.033-0.043,0.053l-6.897,10.29c-0.109,0.163-0.18,0.348-0.207,0.542l-1.1,7.72  c-0.003,0.021,0.001,0.043-0.001,0.064c-0.006,0.068-0.006,0.137-0.001,0.205c0.002,0.04,0.004,0.08,0.01,0.12  c0.011,0.07,0.032,0.138,0.054,0.206c0.012,0.034,0.019,0.068,0.033,0.102c0.036,0.084,0.083,0.162,0.135,0.238  c0.01,0.013,0.016,0.028,0.026,0.041c0,0.002,0.001,0.003,0.002,0.004l25.279,32.789c0.249,0.322,0.632,0.509,1.033,0.509  c0.052,0,0.104-0.003,0.156-0.01l8.007-0.968c0.378-0.045,0.716-0.253,0.928-0.568l3.916-5.846l10.04,6.192  c0.207,0.127,0.443,0.193,0.686,0.193c0.028,0,0.058,0,0.086-0.003l8.158-0.544c0.083-0.006,0.16-0.029,0.238-0.05  c0.028-0.007,0.057-0.005,0.084-0.014c0.004-0.001,0.008-0.005,0.013-0.007c0.12-0.04,0.232-0.097,0.335-0.17  c0.023-0.017,0.04-0.041,0.063-0.06c0.073-0.06,0.144-0.122,0.203-0.197c0.029-0.038,0.05-0.083,0.075-0.124  c0.033-0.054,0.072-0.102,0.098-0.16c0.006-0.013,0.006-0.026,0.012-0.04c0.019-0.047,0.027-0.096,0.04-0.146  c0.021-0.074,0.039-0.148,0.046-0.224c0.001-0.019,0.01-0.035,0.01-0.054l0.772-17.112c0.013-0.294-0.073-0.583-0.245-0.822  L48.198,35.371c-0.01-0.013-0.022-0.023-0.032-0.036c-0.025-0.032-0.055-0.06-0.082-0.089c-0.049-0.051-0.099-0.099-0.153-0.142  c-0.032-0.025-0.067-0.047-0.102-0.069c-0.06-0.037-0.12-0.069-0.185-0.096c-0.037-0.016-0.074-0.031-0.112-0.043  c-0.071-0.022-0.143-0.036-0.217-0.046c-0.027-0.004-0.052-0.015-0.079-0.017l-5.449-0.402l2.459-1.89l4.615,0.529l21.553,29.873  c0.135,0.187,0.316,0.334,0.526,0.428l11.965,5.339c0.17,0.075,0.351,0.113,0.531,0.113c0.005-0.001,0.009-0.001,0.015,0  c0.722,0,1.306-0.585,1.306-1.306C84.757,67.435,84.749,67.354,84.734,67.274z M36.716,20.385l5.309-3.116l0.542,0.598l2.021,2.233  l-1.911,10.355l-5.123,3.938l-3.646,2.117l-1.604-1.025c-0.001,0-0.001,0-0.002,0l-0.018-0.011L36.716,20.385z M25.32,45.537  l1.391-7.17l4.566-0.439l0.724,0.462l-5.923,8.093L25.32,45.537z M18.98,35.279l5.166,2.603l-1.372,7.069l-5.178,2.215l-5.436,2.325  l0.731-5.128L18.98,35.279z M43.075,82.201l-6.674,0.807L12.604,52.141l10.366-4.433l0.546-0.233l1.559,1.99  c0.001,0.002,0.004,0.004,0.006,0.006c0,0.001,0.001,0.003,0.003,0.005l21.741,27.128L43.075,82.201z M59.882,82.057l-10.563-6.515  L28.617,49.658l9.462-1.193l27.026,33.244L59.882,82.057z M37.936,45.852l-8.99,1.133l5.823-7.955l3.817-2.217l6.028,0.444  L37.936,45.852z"/>
<path fill="#000000" d="M81.848,70.877l-10.203-4.86l-0.332,9.857c-0.016,0.453,0.198,0.907,0.604,1.176s0.902,0.29,1.313,0.101  l8.604-3.971c0.434-0.2,0.735-0.638,0.738-1.147C82.575,71.523,82.279,71.082,81.848,70.877z"/>
</svg>