<svg xmlns="http://www.w3.org/2000/svg" xmlns:xlink="http://www.w3.org/1999/xlink" version="1.1" id="Layer_1" x="0px" y="0px" width="100px" height="100px" viewBox="0 0 100 100" enable-background="new 0 0 100 100" xml:space="preserve">
<path d="M86.375,10.22V2H14.227v8.22h3.345l23.366,39.169L17.572,89.231h-3.345v8.456h72.148v-8.456h-2.516L61.474,49.389  L83.859,10.22H86.375z M49.508,73.801c-2.068,1.622-17.753,13.914-17.753,13.914s-1.759,1.375-3.991,1.375H21.87  c0,0-2.232,0-1.125-1.939l19.613-34.337c0,0,1.108-1.939,2.461-0.16c0,0,6.598,7.845,7.458,9.789  C51.14,64.391,50.696,72.869,49.508,73.801z M62.052,52.829l18.594,34.297c0,0,1.063,1.964-1.17,1.964h-6.752  c0,0-2.234,0-3.905-1.48c0,0-15.055-12.617-15.991-14.162c-0.671-1.108-1.208-9.044-0.036-11.039  c1.005-1.711,6.878-9.739,6.878-9.739S60.989,50.866,62.052,52.829z M81.388,12.155l-14.38,25.019c0,0-1.112,1.936-3.341,1.795  c0,0-9.69-0.775-12.122-0.775c-2.431,0-12.94,0.757-12.94,0.757s-2.228,0.16-3.37-1.758l-14.92-25.056c0,0-1.142-1.917,1.091-1.917  h58.862C80.268,10.22,82.501,10.22,81.388,12.155z"/>
</svg>