<svg xmlns="http://www.w3.org/2000/svg" xmlns:xlink="http://www.w3.org/1999/xlink" version="1.1" id="Layer_1" x="0px" y="0px" width="100px" height="100px" viewBox="0 0 100 100" enable-background="new 0 0 100 100" xml:space="preserve">
<path fill="#000000" d="M83.983,28.546C78.62,7.858,53.699-2.698,33.01,2.665c22.7,2.547,34.193,12.322,36.806,28.841  c-4.82-4.885-11.48-7.847-18.703-7.847c-2.225,0-4.451,0.286-6.615,0.847c-1.279,0.332-2.505,0.781-3.702,1.288  C28.93,29.706,20.093,38.951,16.274,50.125h0.005c-2.187,6.764-2.549,14.202-0.637,21.579c5.363,20.688,30.285,31.243,50.974,25.881  c-22.701-2.546-34.193-12.321-36.806-28.84c4.82,4.884,11.48,7.847,18.703,7.847c2.225,0,4.451-0.286,6.615-0.848  c1.28-0.331,2.506-0.781,3.702-1.288c11.865-3.912,20.702-13.157,24.521-24.331h-0.006C85.534,43.361,85.896,35.923,83.983,28.546z   M59.163,55.024c-1.267,2.153-3.297,3.685-5.718,4.312c-0.777,0.202-1.571,0.305-2.36,0.305c-4.255,0-7.975-2.884-9.046-7.012  c-0.217-0.838-0.303-1.679-0.289-2.505c-0.031-1.705,0.397-3.391,1.284-4.899c1.268-2.154,3.297-3.686,5.719-4.313  c0.777-0.202,1.571-0.304,2.36-0.304c4.255,0,7.975,2.883,9.046,7.011c0.217,0.838,0.304,1.678,0.289,2.505  C60.479,51.83,60.05,53.517,59.163,55.024z"/>
</svg>