<svg xmlns="http://www.w3.org/2000/svg" xmlns:xlink="http://www.w3.org/1999/xlink" version="1.1" id="Layer_1" x="0px" y="0px" width="100px" height="100px" viewBox="0 0 100 100" enable-background="new 0 0 100 100" xml:space="preserve">
<path fill-rule="evenodd" clip-rule="evenodd" fill="#000000" d="M45.808,59.405c2.476-9.026,7.876-16.87,11.94-19.047  c4.888-2.618,13.896-8.526,13.785-11.607c-0.109-3.081-0.022-14.219,8.98-15.98c1.849-3.168,3.978-9.657,5.547-9.508  c2.916,0.276,1.408,6.604,2.112,9.904c3.049,0.97,6.147,0.98,7.66,5.283c1.134,0.88,1.854,1.498,3.697,1.652  c1.508,7.416-4.313,6.646-6.47,9.969c-0.209,0.382-0.418,0.761-0.627,1.141c0.396,5.953,2.404,12.019,1.187,17.862  c-1.057,5.076-5.148,9.003-7.724,13.503c0.109,8.079,0.219,17.114,0.328,25.192c0,1.504,0.865,1.67,2.705,1.733  c1.398,0.049,3.313,3.138,0.713,3.78c1.124,0.104,1.12,2.994,0.215,2.972c-5.802-0.143-7.229,0.32-9.677-3.418  c-1.638-2.498-1.359-5.485-3.529-7.016c-1.272,2.094-2.896,4.026-6.194,4.8c3.619-0.352,4.683-0.297,6.491,0.3  c3.036,1.005,2.541,3.538,0.33,5.334c-10.17,0.109-19.512-0.109-29.681,0C20.989,97.225,1.727,97.917,0.276,86.16  c-0.222-1.805,0.16-6.616,3.08-6.68c2.921-0.063,1.176,5.344,2.284,6.958c2.492,3.635,18.463,5.912,38.169,3.104  C45.579,81.709,43.332,68.43,45.808,59.405z"/>
</svg>