<svg xmlns="http://www.w3.org/2000/svg" xmlns:xlink="http://www.w3.org/1999/xlink" version="1.1" id="Layer_1" x="0px" y="0px" width="100px" height="100px" viewBox="0 0 100 100" enable-background="new 0 0 100 100" xml:space="preserve">
<path d="M19.469,64.136v-5.141h-8.424H9.847v5.141H7.721l-5.294,8.771h22.068v-8.771H19.469z M18.698,64.211h-8v-4.327h8V64.211z"/>
<path d="M24.737,73.15H1.997l5.587-9.259h2.021v-5.141h10.106v5.141h5.026V73.15z M2.855,72.664h21.397v-8.286h-5.026v-5.141H10.09  v5.141H7.858L2.855,72.664z M18.939,64.455h-8.484v-4.813h8.484V64.455z M10.94,63.969h7.515v-3.841H10.94V63.969z"/>
<path d="M92.084,64.136H89.03v-5.141h-1.196h-9.621v5.141h-2.9v8.771h22.064L92.084,64.136z M88.184,64.211h-9.199v-4.327h9.199  V64.211z"/>
<path d="M97.807,73.15H75.07v-9.259h2.899v-5.141h11.305v5.141h2.945l0.071,0.118L97.807,73.15z M75.557,72.664h21.391l-5-8.286  h-3.161v-5.141h-10.33v5.141h-2.899V72.664z M88.427,64.455h-9.686v-4.813h9.686V64.455z M79.228,63.969h8.713v-3.841h-8.713V63.969  z"/>
<path d="M26.928,72.791c3.827-0.312,5.644-1.973,7.265-1.973c1.585,0,3.749,2.013,8.079,2.013c4.33,0,6.067-1.972,7.652-1.934  c1.583,0.042,3.979,2.051,8.887,1.973c4.91-0.077,5.642-1.895,7.575-1.931c1.583,0,2.241,1.505,6.414,1.931  c0.039,0,0.039-1.196,0-1.817c-3.21-0.35-3.941-1.932-6.646-1.894c-2.666,0.076-2.979,1.931-7.46,1.894  c-4.483-0.077-6.065-1.894-8.771-1.894c-2.707,0-3.403,1.816-7.652,1.816c-4.254,0-5.604-1.816-8.155-1.816  c-2.591,0-3.246,1.08-7.189,1.816V72.791z"/>
<path d="M58.531,73.115c-3.082,0-5.152-0.809-6.664-1.401c-0.802-0.313-1.438-0.561-1.95-0.574h-0.001  c-0.58,0-1.17,0.265-1.918,0.597c-1.267,0.563-3.002,1.337-5.725,1.337c-2.747,0-4.655-0.804-6.049-1.389  c-0.828-0.35-1.482-0.623-2.03-0.623c-0.634,0-1.324,0.283-2.195,0.641c-1.246,0.511-2.797,1.147-5.05,1.33l-0.262,0.022v-2.28  l0.198-0.037c1.815-0.337,2.946-0.759,3.855-1.096c1.09-0.406,1.949-0.727,3.379-0.727c1.16,0,2.094,0.366,3.083,0.755  c1.275,0.497,2.72,1.063,5.071,1.063c2.311,0,3.554-0.552,4.651-1.038c0.898-0.399,1.748-0.779,3.001-0.779  c1.241,0,2.227,0.36,3.368,0.776c1.384,0.504,2.952,1.076,5.407,1.118l0.128,0.002c2.424,0,3.575-0.578,4.59-1.088  c0.791-0.396,1.54-0.773,2.731-0.809h0.101c1.391,0,2.281,0.422,3.227,0.866c0.901,0.425,1.835,0.865,3.351,1.03l0.202,0.022  l0.014,0.203c0.003,0.018,0.112,1.813-0.062,1.997l-0.073,0.077l-0.106,0.001c-2.54-0.257-3.816-0.906-4.747-1.382  c-0.628-0.318-1.079-0.549-1.667-0.549c-0.686,0.014-1.221,0.273-1.896,0.607c-1.099,0.537-2.6,1.276-5.675,1.323L58.531,73.115z   M49.879,70.653c0.648,0.018,1.317,0.279,2.166,0.609c1.475,0.576,3.496,1.366,6.486,1.366l0.275-0.003  c2.969-0.046,4.355-0.725,5.47-1.273c0.701-0.344,1.309-0.643,2.106-0.657c0.707,0,1.229,0.267,1.889,0.604  c0.868,0.442,2.043,1.04,4.313,1.305c0.008-0.311,0.004-0.89-0.015-1.334c-1.481-0.19-2.444-0.646-3.302-1.05  c-0.933-0.44-1.734-0.819-3.019-0.819l-0.09,0.001c-1.078,0.031-1.749,0.367-2.525,0.758c-1.063,0.532-2.267,1.137-4.807,1.137  h-0.135c-2.537-0.044-4.146-0.632-5.565-1.149c-1.098-0.4-2.047-0.745-3.203-0.745c-1.15,0-1.917,0.34-2.805,0.734  c-1.141,0.507-2.433,1.084-4.847,1.084c-2.443,0-3.933-0.584-5.248-1.099c-0.988-0.386-1.84-0.72-2.907-0.72  c-1.341,0-2.126,0.29-3.21,0.694c-0.893,0.333-1.997,0.742-3.738,1.079v1.351c2.039-0.204,3.479-0.795,4.645-1.273  c0.921-0.376,1.647-0.677,2.379-0.677c0.646,0,1.34,0.294,2.218,0.662c1.356,0.569,3.212,1.35,5.861,1.35  c2.62,0,4.3-0.748,5.527-1.293C48.601,70.937,49.235,70.653,49.879,70.653z"/>
<path d="M26.928,69.235c3.827-0.311,3.246-1.973,7.265-1.973c3.979,0,3.749,2.013,8.079,2.013c4.33,0,3.362-1.934,7.652-1.934  c4.288,0,3.979,2.052,8.887,1.973c4.91-0.077,4.134-1.932,7.575-1.932c3.402,0.038,2.166,1.354,6.414,1.932  c0.039,0,0.039-1.197,0-1.817c-3.21-0.349-2.859-1.894-6.646-1.894c-3.752,0-2.979,1.931-7.46,1.894  c-4.483-0.076-3.864-1.931-8.771-1.894c-4.909,0.076-3.403,1.817-7.652,1.817c-4.254,0-3.635-1.817-8.155-1.817  c-4.523,0-3.246,1.08-7.189,1.817V69.235z"/>
<path d="M58.54,69.561c-2.423,0-3.552-0.533-4.644-1.046c-1.015-0.479-1.973-0.93-3.972-0.93c-2.076,0-2.856,0.451-3.684,0.93  c-0.853,0.493-1.733,1.004-3.968,1.004c-2.27,0-3.324-0.541-4.344-1.065c-0.95-0.486-1.845-0.947-3.735-0.947  c-2.054,0-2.863,0.443-3.72,0.912c-0.816,0.444-1.662,0.908-3.526,1.059l-0.262,0.022v-2.28l0.198-0.038  c1.649-0.306,2.361-0.675,2.989-0.997c0.892-0.459,1.595-0.823,4.246-0.823c2.351,0,3.354,0.486,4.324,0.953  c0.921,0.445,1.792,0.863,3.831,0.863c1.997,0,2.673-0.392,3.39-0.806c0.821-0.476,1.669-0.969,4.258-1.011h0.149  c2.49,0,3.568,0.497,4.61,0.978c0.982,0.453,1.912,0.881,4.02,0.916l0.124,0.002c2.189,0,3.047-0.493,3.874-0.971  c0.792-0.453,1.607-0.925,3.458-0.925c2.137,0,3.023,0.496,3.882,0.972c0.714,0.396,1.387,0.773,2.789,0.924l0.202,0.022  l0.014,0.203c0.003,0.018,0.112,1.813-0.062,1.997l-0.073,0.077l-0.106,0.002c-2.206-0.298-3.008-0.803-3.65-1.206  c-0.633-0.395-1.131-0.707-2.767-0.725c-1.515,0-2.16,0.365-2.91,0.788c-0.91,0.517-1.942,1.099-4.657,1.143L58.54,69.561z   M49.924,67.099c2.107,0,3.163,0.497,4.178,0.976c1.043,0.493,2.124,0.999,4.438,0.999l0.267-0.002  c2.596-0.04,3.528-0.568,4.429-1.079c0.775-0.438,1.508-0.852,3.151-0.852c1.773,0.019,2.353,0.383,3.021,0.802  c0.608,0.381,1.297,0.813,3.176,1.096c0.008-0.312,0.004-0.883-0.015-1.323c-1.364-0.178-2.077-0.574-2.77-0.958  c-0.84-0.47-1.633-0.91-3.645-0.91c-1.721,0-2.447,0.417-3.214,0.858c-0.886,0.51-1.801,1.035-4.118,1.035h-0.131  c-2.214-0.039-3.23-0.508-4.215-0.962c-1.04-0.48-2.025-0.934-4.408-0.934l-0.144,0.002c-2.46,0.038-3.253,0.497-4.021,0.942  c-0.773,0.45-1.505,0.874-3.632,0.874c-2.15,0-3.111-0.465-4.041-0.911c-0.921-0.444-1.875-0.905-4.114-0.905  c-2.532,0-3.19,0.337-4.023,0.767c-0.631,0.326-1.343,0.693-2.924,1.007v1.351c1.582-0.165,2.338-0.578,3.07-0.98  c0.913-0.498,1.775-0.971,3.953-0.971c2.006,0,2.997,0.511,3.956,1.002c0.969,0.497,1.971,1.01,4.123,1.01  c2.105,0,2.892-0.453,3.726-0.936C46.845,67.605,47.719,67.099,49.924,67.099z"/>
<path d="M24.598,63.896l-3.395-3.605l0.775-0.658l-3.434-3.625l35.331-32.91l3.325,3.629l0.732-0.692l3.385,3.601l-0.181,0.167  L24.598,63.896z M21.906,60.33l2.714,2.881l36.009-33.597l-2.718-2.891l-0.737,0.697l-3.324-3.634L19.232,56.029l3.45,3.644  L21.906,60.33z"/>
<path d="M45.774,38.199l-3.109-3.371l11.094-10.379l3.075,3.292l-0.175,0.165L45.774,38.199z M43.348,34.854l2.451,2.657  l10.351-9.791l-2.413-2.586L43.348,34.854z"/>
<path d="M34.606,48.555l-3.115-3.293l10.831-10.148l3.111,3.374L34.606,48.555z M32.177,45.284l2.451,2.586l10.121-9.411  l-2.451-2.659L32.177,45.284z"/>
<path d="M57.922,26.378l-0.734,0.694l-3.326-3.632L18.888,56.019l3.441,3.634l-0.775,0.657l3.055,3.244l36.364-33.929L57.922,26.378  z M23.025,58.995l-2.784-2.938L31.1,45.893l2.784,2.936L23.025,58.995z M34.618,48.212l-2.783-2.938l10.476-9.816l2.78,3.017  L34.618,48.212z M45.787,37.855l-2.78-3.014l10.742-10.05l2.744,2.939L45.787,37.855z"/>
<path d="M23.016,59.337l-3.118-3.29L31.11,45.551l3.118,3.288L23.016,59.337z M20.585,56.068l2.45,2.584l10.505-9.834l-2.45-2.583  L20.585,56.068z"/>
</svg>