<svg xmlns="http://www.w3.org/2000/svg" xmlns:xlink="http://www.w3.org/1999/xlink" version="1.1" id="Layer_1" x="0px" y="0px" width="100px" height="100px" viewBox="0 0 100 100" enable-background="new 0 0 100 100" xml:space="preserve">
<path fill-rule="evenodd" clip-rule="evenodd" d="M20.587,80.34h-6.792c0.916,0.859,1.508,2.099,1.508,3.395  c0,2.641-2.156,4.795-4.798,4.795c-2.641,0-4.799-2.154-4.799-4.795c0-1.24,0.433-2.426,1.349-3.395H2.744v-1.727h4.312v-7.062  h63.281V51.39h23.664v2.484H81.656v10.777h7.385v11.915H74.433c-1.076,0.161-0.97,1.563,0.055,1.671h22.587v2.103H88.18  c0.861,0.859,1.455,2.099,1.455,3.395c0,2.641-2.157,4.795-4.798,4.795c-2.642,0-4.796-2.154-4.796-4.795  c0-1.348,0.594-2.585,1.455-3.395h-7.169c0.055,0.212,0.105,0.431,0.105,0.59c0,4.314-3.557,7.871-7.816,7.871  c-4.257,0-7.76-3.502-7.76-7.871c0-0.159,0.053-0.43,0.053-0.646h-3.612c0,0.268,0.055,0.486,0.055,0.646  c0,4.314-3.557,7.871-7.816,7.871c-4.257,0-7.762-3.502-7.762-7.871c0-0.107,0.055-0.269,0.109-0.59h-3.881  c0,0.267,0.053,0.431,0.053,0.59c0,4.314-3.555,7.871-7.816,7.871c-4.256,0-7.761-3.502-7.761-7.871  C20.477,80.771,20.532,80.606,20.587,80.34"/>
<path d="M20.723,80.366l-0.276-0.055l0.003-0.009l0.003-0.006V80.29l0.003-0.006l0.003-0.006l0.003-0.006l0.003-0.007l0.004-0.006  l0.006-0.007l0.003-0.006l0.006-0.003l0.003-0.006l0.006-0.003l0.003-0.006l0.007-0.006h0.006l0.006-0.006l0.006-0.003l0.006-0.003  l0.006-0.005l0.006-0.003h0.006l0.006-0.003l0.006-0.003h0.009h0.006h0.006h0.006h0.01h0.006h0.006h0.01l0.006,0.003l0.006,0.003  h0.006l0.009,0.003l0.007,0.005l0.006,0.003l0.006,0.003l0.003,0.006l0.006,0.003l0.006,0.003l0.006,0.006l0.003,0.006l0.006,0.003  l0.003,0.003l0.006,0.006l0.003,0.007l0.003,0.006l0.003,0.007l0.003,0.006l0.003,0.006l0.003,0.006l0.003,0.007v0.006l0.003,0.006  v0.009l0.003,0.006v0.007v0.01v0.006v0.006l-0.003,0.006V80.366z M20.587,80.479v-0.28l0.136,0.168l-0.006,0.022l-0.006,0.026  l-0.003,0.026l-0.006,0.025l-0.003,0.018l-0.006,0.025l-0.006,0.023l-0.003,0.019l-0.006,0.019l-0.003,0.024l-0.006,0.018  l-0.003,0.022l-0.006,0.018l-0.003,0.015l-0.003,0.02l-0.006,0.018l-0.003,0.015l-0.004,0.02l-0.003,0.015l-0.003,0.018  l-0.003,0.016l-0.003,0.013l-0.003,0.015v0.013v0.012l-0.003,0.019l-0.003,0.01v0.012v0.015l-0.003,0.015v0.014v0.009h-0.28v-0.018  l0.003-0.02v-0.015v-0.016l0.003-0.019v-0.021l0.003-0.015l0.003-0.019l0.004-0.019l0.003-0.018l0.003-0.02l0.003-0.018l0.003-0.015  l0.003-0.018l0.003-0.017l0.003-0.023l0.006-0.018l0.004-0.017l0.006-0.021l0.003-0.019l0.003-0.019l0.006-0.019l0.003-0.021  l0.006-0.022l0.003-0.021l0.006-0.021l0.006-0.022l0.003-0.021l0.006-0.025l0.006-0.021l0.003-0.023l0.003-0.025L20.587,80.479z   M20.337,80.93h0.28l0.012,0.401l0.03,0.395l0.046,0.387l0.07,0.382l0.085,0.376l0.104,0.365l0.119,0.363l0.14,0.35l0.152,0.343  l0.17,0.335l0.183,0.323l0.201,0.313l0.212,0.304l0.226,0.293l0.24,0.279l0.253,0.269l0.268,0.255l0.276,0.24l0.289,0.229  l0.298,0.217l0.311,0.2l0.319,0.186l0.329,0.17l0.335,0.153l0.347,0.139l0.353,0.122l0.362,0.104l0.365,0.086l0.375,0.066l0.38,0.05  l0.384,0.029l0.389,0.009v0.28l-0.4-0.009L27.436,88.9l-0.393-0.051l-0.389-0.07l-0.38-0.091l-0.371-0.106l-0.369-0.125  l-0.359-0.144l-0.35-0.16l-0.338-0.177l-0.332-0.189l-0.322-0.209l-0.311-0.223l-0.298-0.237l-0.286-0.249l-0.277-0.269L22.4,86.323  l-0.25-0.289l-0.234-0.304l-0.222-0.313l-0.208-0.326l-0.191-0.336l-0.173-0.347l-0.162-0.353l-0.14-0.365l-0.125-0.37l-0.106-0.384  l-0.088-0.389l-0.073-0.394l-0.049-0.401l-0.03-0.411L20.337,80.93z M28.238,88.94v-0.28l0.39-0.009l0.387-0.029l0.379-0.05  l0.375-0.069l0.368-0.089l0.362-0.104l0.356-0.122l0.347-0.139l0.338-0.156l0.332-0.174l0.322-0.185l0.312-0.203l0.301-0.217  l0.292-0.229l0.28-0.243l0.267-0.259l0.256-0.271l0.243-0.28l0.229-0.292l0.215-0.304l0.202-0.314l0.188-0.324l0.17-0.333  l0.156-0.344l0.139-0.347l0.122-0.359l0.104-0.364l0.087-0.372l0.071-0.38l0.047-0.387l0.031-0.389l0.009-0.396h0.28l-0.012,0.407  l-0.028,0.408l-0.055,0.398l-0.069,0.392l-0.091,0.387l-0.106,0.38l-0.129,0.372l-0.143,0.359l-0.162,0.358l-0.176,0.341  L35.03,85.07l-0.208,0.325l-0.224,0.314l-0.239,0.301l-0.252,0.292l-0.264,0.28l-0.277,0.267l-0.289,0.251l-0.301,0.237  l-0.314,0.226l-0.322,0.209l-0.335,0.194l-0.341,0.181l-0.353,0.157l-0.359,0.146l-0.368,0.128l-0.378,0.109l-0.379,0.087  l-0.39,0.071L29.042,88.9l-0.398,0.031L28.238,88.94z M36.196,80.93h-0.28v-0.009v-0.014v-0.015l-0.003-0.015v-0.012L35.91,80.85  v-0.012v-0.012l-0.003-0.019l-0.003-0.012v-0.02L35.9,80.762l-0.003-0.012l-0.003-0.02l-0.003-0.021v-0.018l-0.003-0.012  l-0.003-0.022l-0.003-0.018l-0.004-0.022l-0.003-0.021v-0.021l-0.003-0.021l-0.003-0.019v-0.023l-0.003-0.028v-0.018l-0.003-0.028  v-0.021v-0.023l-0.003-0.031V80.34h0.283l-0.003,0.023l0.003,0.018v0.025v0.023v0.02l0.003,0.023v0.018l0.003,0.02l0.003,0.021  v0.016l0.003,0.021l0.003,0.019v0.015l0.003,0.018l0.003,0.02l0.003,0.018v0.018l0.003,0.017l0.004,0.015l0.003,0.021l0.003,0.017  l0.003,0.018v0.018l0.003,0.013l0.003,0.019v0.021l0.003,0.015v0.019v0.016l0.003,0.015v0.02V80.93z M36.001,80.198v0.28h-0.007  h-0.006h-0.009l-0.006-0.003l-0.006-0.003h-0.006l-0.006-0.003l-0.009-0.003H35.94l-0.004-0.006H35.93l-0.006-0.006l-0.006-0.006  l-0.006-0.003l-0.006-0.005l-0.003-0.006l-0.006-0.003l-0.003-0.006l-0.006-0.003l-0.003-0.006l-0.003-0.006l-0.004-0.006  L35.875,80.4l-0.003-0.006l-0.003-0.006l-0.003-0.008v-0.009l-0.003-0.006V80.36l-0.003-0.009v-0.006V80.34v-0.007v-0.01  l0.003-0.006v-0.009l0.003-0.006v-0.006l0.003-0.007l0.003-0.006l0.003-0.006l0.003-0.006l0.004-0.007l0.003-0.006l0.003-0.007  l0.006-0.006l0.003-0.003l0.006-0.003l0.003-0.006l0.006-0.006l0.006-0.003l0.006-0.003l0.006-0.006l0.006-0.003l0.004-0.003h0.006  l0.009-0.008h0.006l0.006-0.003l0.006-0.003h0.006h0.009h0.006H36.001z M35.86,80.34l0.141-0.142h3.881v0.28h-3.881L35.86,80.34z   M40.02,80.363l-0.276-0.049l0.003-0.006v-0.006l0.003-0.006l0.003-0.007l0.003-0.009l0.003-0.006l0.003-0.007l0.003-0.006  l0.003-0.003l0.003-0.007l0.006-0.006l0.003-0.006l0.006-0.006l0.007-0.003l0.003-0.003l0.006-0.006l0.006-0.003l0.006-0.003  l0.006-0.003l0.006-0.003l0.006-0.005l0.006-0.003h0.006l0.007-0.003h0.006l0.006-0.003h0.009h0.006h0.006h0.009h0.006h0.006  l0.01,0.003l0.006,0.003h0.006l0.006,0.003l0.006,0.005l0.006,0.003l0.006,0.003l0.006,0.003l0.006,0.003l0.008,0.006l0.006,0.003  l0.003,0.003l0.006,0.006l0.003,0.006l0.006,0.006l0.003,0.004l0.003,0.006l0.006,0.006v0.004l0.006,0.006v0.006l0.003,0.009  l0.003,0.007l0.003,0.006v0.009v0.006v0.006l0.004,0.007v0.007v0.009l-0.004,0.006V80.363z M39.883,80.479v-0.28l0.137,0.165  l-0.006,0.028l-0.003,0.029l-0.006,0.031l-0.006,0.026l-0.003,0.025L39.99,80.53l-0.006,0.024l-0.003,0.028l-0.003,0.018  l-0.006,0.025l-0.006,0.023l-0.005,0.018l-0.006,0.025l-0.003,0.015l-0.003,0.021l-0.006,0.02l-0.003,0.015l-0.003,0.015  l-0.003,0.016l-0.003,0.016l-0.003,0.019l-0.003,0.012l-0.003,0.012v0.013l-0.003,0.01v0.012l-0.003,0.009v0.006v0.014v0.009  l-0.003,0.006l0.003,0.003h-0.283l0.003-0.012v-0.02v-0.012v-0.009l0.003-0.016v-0.019l0.003-0.012l0.003-0.019l0.003-0.015  l0.003-0.013l0.003-0.019l0.003-0.012l0.003-0.015l0.003-0.02l0.003-0.018l0.003-0.018l0.007-0.02l0.003-0.018l0.006-0.018  l0.003-0.022l0.003-0.018l0.006-0.021l0.003-0.021l0.006-0.027l0.003-0.021l0.006-0.021l0.003-0.023l0.006-0.028l0.007-0.026  l0.003-0.025l0.006-0.029l0.003-0.031L39.883,80.479z M39.634,80.93h0.283l0.009,0.401l0.029,0.395l0.049,0.387l0.067,0.382  l0.086,0.376l0.104,0.365l0.119,0.363l0.139,0.35l0.153,0.343l0.17,0.335l0.183,0.323l0.2,0.313l0.213,0.304l0.228,0.293l0.24,0.279  l0.249,0.269l0.269,0.255l0.276,0.24l0.289,0.229l0.298,0.217l0.312,0.2l0.319,0.186l0.329,0.17l0.335,0.153l0.347,0.139  l0.353,0.122l0.362,0.104l0.365,0.086l0.375,0.066l0.379,0.05l0.384,0.029l0.389,0.009v0.28l-0.402-0.009L46.736,88.9L46.34,88.85  l-0.387-0.07l-0.382-0.091l-0.373-0.106l-0.368-0.125l-0.358-0.144l-0.35-0.16l-0.338-0.177l-0.333-0.189l-0.322-0.209l-0.311-0.223  l-0.298-0.237l-0.286-0.249l-0.275-0.269l-0.263-0.277l-0.249-0.289l-0.234-0.304l-0.222-0.313l-0.206-0.326l-0.193-0.336  l-0.173-0.347l-0.16-0.353l-0.141-0.365l-0.125-0.37l-0.106-0.384l-0.088-0.389l-0.074-0.394l-0.048-0.401l-0.031-0.411  L39.634,80.93z M47.535,88.94v-0.28l0.393-0.009l0.384-0.029l0.38-0.05l0.375-0.069l0.368-0.089l0.362-0.104l0.356-0.122  l0.347-0.139l0.341-0.156l0.329-0.174l0.322-0.185l0.31-0.203l0.303-0.217l0.292-0.229l0.278-0.243l0.269-0.259l0.255-0.271  l0.245-0.28l0.227-0.292l0.217-0.304l0.204-0.314l0.186-0.324l0.171-0.333l0.154-0.344l0.141-0.347l0.121-0.359l0.107-0.364  l0.084-0.372l0.069-0.38l0.05-0.387l0.03-0.389l0.01-0.396h0.28l-0.01,0.407l-0.03,0.408l-0.056,0.398l-0.069,0.392l-0.092,0.387  l-0.105,0.38l-0.129,0.372l-0.143,0.359l-0.161,0.358l-0.177,0.341l-0.194,0.338l-0.207,0.325l-0.226,0.314l-0.237,0.301  l-0.252,0.292l-0.266,0.28l-0.275,0.267l-0.289,0.251l-0.302,0.237l-0.313,0.226l-0.322,0.209l-0.335,0.194l-0.341,0.181  l-0.353,0.157l-0.359,0.146l-0.368,0.128l-0.375,0.109l-0.383,0.087l-0.39,0.071L48.342,88.9l-0.402,0.031L47.535,88.94z   M55.493,80.93h-0.28v-0.009v-0.014v-0.015l-0.003-0.018v-0.013v-0.019l-0.003-0.012v-0.016l-0.004-0.021L55.2,80.779l-0.003-0.018  v-0.021l-0.003-0.014l-0.003-0.023l-0.003-0.021v-0.022l-0.004-0.015l-0.003-0.021l-0.003-0.022l-0.003-0.023l-0.003-0.022v-0.024  L55.17,80.51l-0.003-0.02v-0.026l-0.004-0.028v-0.021l-0.003-0.026v-0.025V80.34v-0.028l-0.003-0.027h0.283l-0.003,0.024  l0.003,0.021v0.024v0.023V80.4l0.003,0.023v0.018l0.003,0.022l0.004,0.023v0.022l0.003,0.018l0.003,0.024l0.003,0.019v0.019  l0.003,0.021l0.003,0.025l0.003,0.018v0.018l0.003,0.02l0.003,0.021l0.003,0.018l0.004,0.02l0.003,0.021v0.016l0.003,0.019v0.024  l0.004,0.015v0.021v0.016l0.003,0.015v0.02V80.93z M55.297,80.144v0.28h-0.006h-0.006h-0.009h-0.006l-0.006-0.003l-0.006-0.003  h-0.006l-0.011-0.006h-0.006l-0.003-0.006h-0.006L55.222,80.4l-0.006-0.003l-0.006-0.003l-0.007-0.006L55.2,80.381l-0.006-0.003  l-0.003-0.003l-0.003-0.006l-0.007-0.006l-0.003-0.006l-0.003-0.006l-0.003-0.006L55.17,80.34l-0.003-0.007l-0.004-0.007V80.32  l-0.003-0.006v-0.009V80.3l-0.003-0.01v-0.006v-0.006l0.003-0.006v-0.01v-0.006l0.003-0.007v-0.009l0.004-0.006l0.003-0.006  l0.003-0.006l0.003-0.006l0.003-0.006l0.003-0.008l0.007-0.006l0.003-0.003l0.003-0.006l0.006-0.003l0.003-0.006l0.007-0.006  l0.006-0.003l0.006-0.003l0.006-0.006h0.006l0.003-0.006h0.006l0.011-0.003l0.006-0.005h0.006l0.006-0.003l0.006-0.003h0.009h0.006  H55.297z M55.157,80.284l0.14-0.141h3.612v0.28h-3.612L55.157,80.284z M59.05,80.284h-0.28v-0.006l0.003-0.006v-0.01v-0.006  l0.003-0.007v-0.009l0.003-0.006l0.003-0.006l0.003-0.006l0.003-0.006l0.003-0.006l0.003-0.008l0.003-0.003l0.006-0.006l0.005-0.003  l0.006-0.006l0.003-0.006l0.006-0.006l0.006-0.003l0.006-0.003l0.003-0.003l0.006-0.003l0.009-0.003l0.006-0.003l0.008-0.003  l0.006-0.005h0.006l0.006-0.003h0.006l0.009-0.003h0.007h0.006h0.009h0.007l0.006,0.003h0.01l0.006,0.003h0.006l0.006,0.005  l0.006,0.003l0.006,0.003l0.006,0.003l0.008,0.003l0.006,0.003l0.006,0.003l0.003,0.003l0.006,0.006l0.006,0.006l0.003,0.006  l0.006,0.003l0.003,0.006l0.003,0.003l0.006,0.008l0.003,0.006v0.006l0.008,0.006v0.006l0.003,0.006l0.003,0.009v0.007l0.003,0.006  v0.01v0.006V80.284z M58.909,80.424v-0.28l0.141,0.141v0.024v0.021v0.021l-0.003,0.021v0.025l-0.003,0.021v0.023l-0.003,0.025v0.018  l-0.005,0.025l-0.003,0.023v0.021L59.03,80.58l-0.003,0.021l-0.003,0.018l-0.003,0.025v0.023l-0.003,0.02l-0.006,0.023v0.018  l-0.003,0.02v0.021l-0.003,0.019l-0.003,0.021l-0.003,0.019v0.012v0.019l-0.003,0.016v0.015v0.018l-0.003,0.014l0.003,0.012h-0.283  l0.003-0.018v-0.02v-0.018l0.003-0.016v-0.021v-0.019l0.003-0.023l0.003-0.02v-0.018l0.003-0.021l0.003-0.022v-0.018l0.003-0.025  l0.003-0.018l0.003-0.023l0.003-0.02v-0.021l0.005-0.024l0.003-0.021l0.003-0.019l0.003-0.023v-0.02l0.003-0.021l0.003-0.025v-0.018  l0.003-0.021v-0.02l0.003-0.018V80.34v-0.02v-0.018v-0.019L58.909,80.424z M58.715,80.93h0.283l0.009,0.401l0.029,0.395l0.049,0.387  l0.067,0.382l0.086,0.376l0.104,0.365l0.121,0.363l0.137,0.35l0.153,0.343l0.17,0.335l0.186,0.323l0.197,0.313l0.213,0.304  l0.229,0.293l0.24,0.279l0.252,0.269l0.266,0.255l0.277,0.24l0.288,0.229l0.299,0.217l0.311,0.2l0.318,0.186l0.329,0.17l0.338,0.153  l0.344,0.139l0.354,0.122l0.361,0.104l0.365,0.086l0.375,0.066l0.38,0.05l0.384,0.029l0.389,0.009v0.28l-0.4-0.009L65.816,88.9  l-0.396-0.051l-0.387-0.07l-0.38-0.091l-0.375-0.106l-0.368-0.125l-0.358-0.144l-0.35-0.16l-0.339-0.177l-0.332-0.189l-0.318-0.209  L61.9,87.355l-0.295-0.237l-0.289-0.249l-0.274-0.269l-0.265-0.277l-0.249-0.289l-0.234-0.304l-0.223-0.313l-0.203-0.326  l-0.192-0.336l-0.177-0.347l-0.157-0.353l-0.144-0.365l-0.125-0.37l-0.106-0.384l-0.088-0.389l-0.069-0.394l-0.052-0.401  l-0.031-0.411L58.715,80.93z M66.616,88.94v-0.28l0.393-0.009l0.384-0.029l0.38-0.05l0.375-0.069l0.37-0.089l0.359-0.104  l0.355-0.122l0.348-0.139l0.338-0.156l0.332-0.174l0.321-0.185l0.312-0.203l0.301-0.217l0.292-0.229l0.28-0.243l0.268-0.259  l0.256-0.271l0.243-0.28l0.229-0.292l0.215-0.304l0.205-0.314l0.186-0.324l0.17-0.333l0.156-0.344l0.139-0.347l0.122-0.359  l0.106-0.364l0.085-0.372l0.071-0.38l0.047-0.387l0.031-0.389l0.009-0.396h0.28l-0.009,0.407l-0.031,0.408l-0.055,0.398  l-0.069,0.392l-0.088,0.387l-0.109,0.38l-0.126,0.372l-0.146,0.359l-0.162,0.358l-0.176,0.341l-0.194,0.338L73.2,85.396  l-0.226,0.314l-0.237,0.301l-0.252,0.292l-0.264,0.28l-0.277,0.267l-0.289,0.251l-0.301,0.237l-0.314,0.226l-0.321,0.209  l-0.332,0.194l-0.345,0.181l-0.35,0.157l-0.361,0.146l-0.368,0.128l-0.375,0.109l-0.383,0.087l-0.39,0.071L67.422,88.9l-0.401,0.031  L66.616,88.94z M74.573,80.93h-0.28v-0.009v-0.014v-0.015v-0.018l-0.003-0.013V80.85l-0.003-0.018v-0.013l-0.003-0.015l-0.003-0.019  v-0.016l-0.006-0.018v-0.02l-0.006-0.018l-0.003-0.018l-0.003-0.015l-0.005-0.02l-0.003-0.021l-0.006-0.015l-0.003-0.022  l-0.006-0.018l-0.003-0.019l-0.006-0.019l-0.003-0.019l-0.003-0.021l-0.006-0.022l-0.006-0.018l-0.003-0.021l-0.006-0.017  l-0.008-0.023l-0.003-0.021l-0.006-0.02l0.274-0.066l0.003,0.021l0.006,0.02l0.003,0.018l0.006,0.021l0.006,0.022l0.006,0.018  l0.005,0.022l0.006,0.021l0.003,0.021l0.006,0.022l0.003,0.018l0.006,0.019l0.003,0.021l0.006,0.021l0.003,0.018l0.003,0.02  l0.006,0.023l0.003,0.018l0.003,0.022l0.003,0.018l0.005,0.015l0.003,0.022l0.003,0.018l0.003,0.021l0.003,0.021v0.015l0.003,0.021  v0.021l0.003,0.016v0.015v0.02V80.93z M74.327,80.198v0.28h-0.006h-0.011h-0.006l-0.006-0.003l-0.006-0.003h-0.009l-0.006-0.003  l-0.006-0.003h-0.006l-0.008-0.006h-0.006l-0.006-0.006l-0.006-0.006l-0.003-0.003l-0.006-0.005l-0.006-0.006l-0.003-0.003  l-0.003-0.006l-0.006-0.003l-0.003-0.006l-0.006-0.006l-0.005-0.006L74.198,80.4v-0.006l-0.003-0.006l-0.003-0.008l-0.003-0.009  v-0.006l-0.003-0.006v-0.009v-0.006V80.34v-0.007v-0.01v-0.006l0.003-0.009v-0.006l0.003-0.006l0.003-0.007l0.003-0.006v-0.006  l0.003-0.006l0.005-0.007l0.006-0.006l0.003-0.007l0.006-0.006l0.003-0.003l0.003-0.003l0.006-0.006l0.006-0.006l0.003-0.003  l0.006-0.003l0.006-0.006l0.006-0.003l0.008-0.003h0.006l0.006-0.008h0.006l0.009-0.003l0.006-0.003h0.006h0.006h0.011H74.327z   M74.189,80.372l0.138-0.174h7.169v0.28h-7.169L74.189,80.372z M81.593,80.438l-0.194-0.203l0.006-0.003l0.006-0.006l0.006-0.003  l0.006-0.006h0.006l0.006-0.006h0.008l0.006-0.005l0.006-0.003h0.006l0.006-0.003l0.009-0.003h0.006h0.006h0.006h0.008h0.006h0.006  h0.009l0.006,0.003l0.006,0.003h0.006l0.006,0.003l0.011,0.005h0.006l0.003,0.006l0.006,0.003l0.006,0.003l0.006,0.006l0.006,0.003  l0.007,0.003l0.003,0.006l0.006,0.006l0.006,0.006l0.004,0.007l0.003,0.006l0.003,0.007l0.003,0.006l0.003,0.006l0.003,0.006  l0.004,0.007v0.006l0.003,0.006v0.006l0.003,0.006v0.006v0.011v0.006v0.006v0.009l-0.003,0.006v0.006l-0.003,0.006v0.006  l-0.004,0.008l-0.003,0.006L81.62,80.4l-0.003,0.006l-0.003,0.006l-0.003,0.006l-0.007,0.006l-0.003,0.006l-0.006,0.006  L81.593,80.438z M81.496,80.479v-0.28l0.097,0.24l-0.079,0.077l-0.075,0.076l-0.074,0.078l-0.073,0.083l-0.072,0.085l-0.066,0.086  l-0.068,0.084L81.021,81.1l-0.064,0.094l-0.063,0.095l-0.058,0.095l-0.058,0.1l-0.056,0.098l-0.052,0.104l-0.052,0.104l-0.044,0.103  l-0.047,0.104l-0.043,0.109l-0.038,0.11l-0.04,0.109l-0.034,0.112l-0.032,0.113l-0.031,0.115l-0.024,0.116l-0.024,0.115  l-0.021,0.114l-0.018,0.12l-0.014,0.118l-0.015,0.122l-0.006,0.121l-0.006,0.122v0.121h-0.283l0.003-0.13l0.006-0.129l0.009-0.128  l0.014-0.131l0.015-0.121l0.018-0.128l0.022-0.124l0.027-0.126l0.027-0.122l0.03-0.121l0.034-0.119l0.035-0.118l0.043-0.116  l0.043-0.115l0.045-0.115l0.049-0.116l0.049-0.109l0.055-0.108l0.055-0.106l0.059-0.107l0.061-0.104l0.063-0.104l0.063-0.097  l0.067-0.098l0.071-0.098l0.069-0.091l0.075-0.095l0.073-0.088l0.08-0.089l0.078-0.081l0.079-0.086l0.083-0.079L81.496,80.479z   M79.897,83.734h0.283l0,0l0.006,0.24l0.018,0.234l0.031,0.231l0.04,0.231l0.051,0.226l0.065,0.219l0.072,0.216l0.082,0.21  l0.095,0.206l0.104,0.202l0.113,0.194l0.121,0.188l0.131,0.185l0.136,0.176l0.147,0.171l0.154,0.16l0.161,0.155l0.171,0.146  l0.176,0.141l0.183,0.128l0.188,0.121l0.195,0.113l0.2,0.104l0.205,0.094l0.212,0.086l0.217,0.072l0.219,0.061l0.229,0.056  l0.229,0.04l0.231,0.026l0.234,0.02l0.24,0.006v0.28l-0.254-0.008l-0.249-0.018l-0.246-0.03l-0.243-0.043l-0.237-0.058l-0.234-0.063  l-0.231-0.08l-0.223-0.088L82.7,88.183l-0.212-0.109l-0.208-0.119l-0.2-0.127l-0.192-0.137l-0.188-0.149l-0.18-0.154l-0.17-0.165  l-0.165-0.17l-0.154-0.18l-0.146-0.186l-0.14-0.195l-0.129-0.2l-0.118-0.208l-0.108-0.212l-0.102-0.22l-0.086-0.222l-0.078-0.229  l-0.066-0.237l-0.056-0.237l-0.046-0.243l-0.029-0.243l-0.02-0.254L79.9,83.734H79.897z M84.837,88.671v-0.28l0.239-0.006  l0.237-0.02l0.231-0.026l0.229-0.04l0.226-0.056l0.223-0.061l0.215-0.072l0.21-0.086l0.206-0.094l0.202-0.104l0.194-0.113  l0.188-0.121l0.184-0.128l0.176-0.141l0.167-0.146l0.164-0.155l0.152-0.16l0.148-0.171l0.138-0.176l0.131-0.185l0.122-0.188  l0.112-0.194l0.104-0.202l0.091-0.206l0.086-0.21l0.072-0.216l0.064-0.219l0.052-0.226l0.04-0.231l0.029-0.231l0.02-0.234  l0.006-0.24h0.278l-0.006,0.252L89.75,84.24l-0.034,0.243l-0.041,0.243l-0.056,0.237l-0.066,0.237l-0.08,0.229l-0.087,0.222  l-0.099,0.22l-0.112,0.212l-0.118,0.208l-0.125,0.2l-0.14,0.195l-0.149,0.186l-0.156,0.18l-0.159,0.17l-0.174,0.165l-0.18,0.154  l-0.187,0.149l-0.191,0.137l-0.203,0.127l-0.205,0.119l-0.213,0.109l-0.218,0.101l-0.226,0.088l-0.229,0.08l-0.234,0.063  l-0.237,0.058l-0.243,0.043l-0.247,0.03l-0.252,0.018L84.837,88.671z M89.773,83.734h-0.278v-0.118l-0.006-0.119l-0.011-0.115  l-0.012-0.115l-0.012-0.116l-0.018-0.112l-0.022-0.116l-0.023-0.112l-0.025-0.112l-0.03-0.113l-0.033-0.112l-0.033-0.11l-0.04-0.107  l-0.04-0.107l-0.041-0.109l-0.046-0.106l-0.05-0.107l-0.049-0.104l-0.052-0.1l-0.055-0.101l-0.058-0.101l-0.061-0.097l-0.062-0.098  l-0.063-0.095l-0.066-0.091l-0.067-0.092l-0.066-0.091l-0.072-0.089l-0.074-0.084l-0.073-0.083l-0.075-0.085l-0.08-0.08l0.198-0.194  l0.085,0.082l0.08,0.089l0.075,0.084l0.079,0.093l0.077,0.092l0.072,0.096l0.07,0.099l0.069,0.098l0.066,0.1l0.068,0.101  l0.061,0.104l0.062,0.106l0.058,0.105l0.055,0.11l0.051,0.109l0.052,0.109l0.049,0.113l0.046,0.112l0.043,0.115l0.038,0.116  l0.04,0.118l0.034,0.119l0.03,0.118l0.028,0.119l0.023,0.121l0.023,0.122l0.02,0.121l0.015,0.122l0.012,0.124l0.009,0.126  l0.003,0.125L89.773,83.734z M88.18,80.198v0.28h-0.009h-0.006h-0.006l-0.009-0.003l-0.006-0.003h-0.008l-0.006-0.003l-0.006-0.003  h-0.006l-0.006-0.006h-0.006l-0.006-0.006l-0.006-0.006l-0.006-0.003l-0.003-0.005l-0.008-0.006l-0.003-0.003l-0.006-0.006  l-0.003-0.003l-0.006-0.006l-0.003-0.006l-0.003-0.006L88.053,80.4l-0.003-0.006v-0.006l-0.003-0.008l-0.003-0.009l-0.003-0.006  V80.36v-0.009v-0.006V80.34v-0.007v-0.01v-0.006v-0.009l0.003-0.006l0.003-0.006l0.003-0.007v-0.006l0.003-0.006l0.003-0.006  l0.003-0.007l0.003-0.006l0.006-0.007l0.003-0.006l0.006-0.003l0.003-0.003l0.008-0.006l0.003-0.006l0.006-0.003l0.006-0.003  l0.006-0.006l0.006-0.003l0.006-0.003h0.006l0.006-0.008h0.006l0.008-0.003l0.006-0.003h0.009h0.006h0.006H88.18z M88.079,80.436  l0.101-0.237h8.895v0.28H88.18L88.079,80.436z M96.934,80.34h0.28v0.006v0.006l-0.003,0.009v0.006l-0.003,0.006v0.009l-0.003,0.008  l-0.003,0.006L97.199,80.4l-0.003,0.006l-0.003,0.006l-0.003,0.006l-0.003,0.006l-0.008,0.003l-0.003,0.006l-0.006,0.003  l-0.003,0.006l-0.006,0.005l-0.006,0.003l-0.003,0.006l-0.006,0.006h-0.006l-0.006,0.006h-0.007l-0.01,0.003l-0.006,0.003h-0.006  l-0.006,0.003l-0.006,0.003h-0.01H97.08h-0.006h-0.01h-0.006h-0.006l-0.01-0.003l-0.006-0.003h-0.006l-0.006-0.003l-0.006-0.003  h-0.006l-0.008-0.006H97l-0.006-0.006l-0.006-0.006l-0.006-0.003l-0.003-0.005l-0.006-0.006l-0.003-0.003l-0.006-0.006l-0.003-0.003  l-0.006-0.006l-0.003-0.006l-0.005-0.006L96.945,80.4l-0.003-0.006v-0.006l-0.003-0.008l-0.003-0.009v-0.006l-0.003-0.006v-0.009  v-0.006V80.34z M97.074,80.479l-0.141-0.139v-2.103h0.28v2.103L97.074,80.479z M97.074,78.376v-0.28h0.006h0.006l0.01,0.003h0.006  h0.006l0.006,0.003l0.006,0.004h0.01l0.007,0.007h0.006l0.006,0.006h0.006l0.003,0.006l0.006,0.006l0.006,0.003l0.003,0.003  l0.006,0.006l0.003,0.007l0.008,0.006l0.003,0.003l0.003,0.006l0.003,0.006l0.003,0.007l0.003,0.006l0.003,0.01l0.003,0.006v0.006  l0.003,0.006v0.006l0.003,0.006v0.006v0.011v0.006v0.009l-0.003,0.006v0.006l-0.003,0.006v0.006l-0.003,0.006l-0.003,0.011  l-0.003,0.006l-0.003,0.003l-0.003,0.009l-0.003,0.006l-0.003,0.003l-0.008,0.006l-0.003,0.006l-0.006,0.006l-0.003,0.003  l-0.006,0.003l-0.006,0.008l-0.003,0.006h-0.006l-0.006,0.006h-0.006l-0.007,0.006h-0.01l-0.006,0.003l-0.006,0.003h-0.006h-0.006  l-0.01,0.003H97.08H97.074z M97.214,78.237l-0.14,0.139H74.487v-0.28h22.587L97.214,78.237z M74.473,78.376l0.031-0.28l0.006,0.003  h0.006h0.009l0.006,0.003l0.006,0.004h0.006l0.006,0.007h0.008l0.006,0.006h0.006l0.006,0.006l0.003,0.006l0.006,0.003l0.006,0.003  l0.003,0.006l0.006,0.007l0.003,0.006l0.003,0.006l0.007,0.003l0.004,0.006l0.003,0.007v0.006l0.003,0.01l0.003,0.006l0.003,0.006  v0.006l0.003,0.006v0.006v0.006v0.011v0.006v0.009v0.006l-0.003,0.006v0.006l-0.003,0.006l-0.003,0.009l-0.003,0.008v0.006  l-0.003,0.006l-0.004,0.006l-0.007,0.006L74.6,78.318l-0.006,0.006l-0.003,0.006l-0.003,0.006l-0.006,0.003l-0.006,0.003  l-0.003,0.008l-0.006,0.006h-0.006l-0.006,0.006h-0.008l-0.006,0.006h-0.006L74.53,78.37l-0.009,0.003h-0.006H74.51l-0.006,0.003  h-0.011h-0.006h-0.006H74.473z M74.487,78.096v0.28h-0.015l-0.104-0.015l-0.1-0.025l-0.095-0.029l-0.089-0.043l-0.085-0.043  l-0.075-0.055l-0.067-0.054l-0.068-0.065l-0.055-0.069l-0.047-0.069l-0.046-0.076l-0.037-0.077l-0.027-0.078l-0.021-0.082  l-0.016-0.086l-0.009-0.081v-0.083l0.006-0.085l0.012-0.081l0.025-0.083l0.027-0.079l0.037-0.08l0.046-0.072l0.047-0.073  l0.061-0.066l0.068-0.061l0.076-0.055l0.078-0.053l0.092-0.046l0.094-0.037l0.104-0.026l0.11-0.021l0.04,0.278l-0.086,0.017  l-0.079,0.021l-0.072,0.028l-0.067,0.032l-0.058,0.037l-0.052,0.036l-0.046,0.046l-0.043,0.046l-0.035,0.049l-0.031,0.052  l-0.024,0.052l-0.021,0.059l-0.016,0.056l-0.009,0.059l-0.003,0.058v0.065l0.006,0.058l0.012,0.061l0.016,0.058l0.021,0.058  l0.024,0.056l0.031,0.053l0.035,0.052l0.04,0.049l0.046,0.044l0.052,0.043l0.055,0.035l0.059,0.034l0.066,0.029l0.069,0.022  l0.076,0.018l0.083,0.012H74.487z M74.433,76.427v0.278h-0.006h-0.006h-0.009l-0.006-0.003l-0.007-0.003h-0.006l-0.006-0.003  l-0.009-0.003h-0.007l-0.003-0.006l-0.006-0.003l-0.01-0.003l-0.003-0.006l-0.006-0.003l-0.006-0.003l-0.003-0.006l-0.006-0.003  l-0.003-0.006l-0.006-0.005l-0.005-0.006l-0.003-0.006l-0.003-0.006l-0.003-0.006l-0.003-0.006l-0.003-0.006l-0.003-0.006V76.6  l-0.003-0.007v-0.006l-0.003-0.009v-0.006v-0.006V76.56v-0.009l0.003-0.006v-0.01l0.003-0.006v-0.006l0.003-0.007l0.003-0.006  l0.003-0.006l0.003-0.006l0.003-0.006l0.003-0.006l0.005-0.006l0.006-0.008l0.003-0.006l0.006-0.003l0.003-0.003l0.006-0.006  l0.006-0.003l0.003-0.003l0.01-0.006l0.006-0.003l0.003-0.003h0.007l0.009-0.006h0.006l0.006-0.003l0.007-0.003h0.006h0.009h0.006  H74.433z M74.415,76.427h0.018h14.608v0.278H74.433L74.415,76.427z M88.9,76.566h0.28v0.006v0.006v0.009l-0.003,0.006V76.6  l-0.003,0.01l-0.003,0.006v0.006l-0.003,0.006l-0.003,0.006l-0.003,0.006l-0.006,0.006l-0.003,0.006l-0.003,0.005l-0.006,0.006  l-0.003,0.003l-0.008,0.006l-0.006,0.003l-0.003,0.003l-0.006,0.006l-0.006,0.003l-0.006,0.003l-0.006,0.006h-0.007l-0.006,0.003  l-0.006,0.003h-0.01l-0.006,0.003l-0.006,0.003h-0.006h-0.01h-0.006h-0.006h-0.009h-0.006l-0.008-0.003l-0.006-0.003h-0.009  l-0.006-0.003l-0.006-0.003H88.98l-0.006-0.006l-0.006-0.003l-0.006-0.003l-0.008-0.006l-0.003-0.003l-0.006-0.003l-0.003-0.006  l-0.006-0.003l-0.003-0.006l-0.006-0.005l-0.003-0.006l-0.003-0.006l-0.006-0.006v-0.006l-0.003-0.006l-0.003-0.006l-0.003-0.006  l-0.003-0.01v-0.007v-0.006L88.9,76.578v-0.006V76.566z M89.041,76.705L88.9,76.566V64.651h0.28v11.915L89.041,76.705z   M89.041,64.794v-0.283h0.006l0.01,0.003h0.006l0.006,0.003h0.006h0.01l0.006,0.007h0.006l0.007,0.003l0.006,0.003l0.006,0.003  l0.006,0.003l0.006,0.006l0.003,0.003l0.006,0.003l0.008,0.007l0.003,0.006l0.006,0.006l0.003,0.003l0.003,0.006l0.006,0.007  l0.003,0.006l0.003,0.004l0.003,0.006v0.009l0.003,0.006l0.003,0.009v0.006l0.003,0.006v0.008v0.006v0.006v0.009v0.006v0.009  l-0.003,0.006v0.006l-0.003,0.006L89.172,64.7v0.006l-0.003,0.006l-0.003,0.006l-0.003,0.006l-0.006,0.006l-0.003,0.006  l-0.003,0.006l-0.006,0.006l-0.003,0.003l-0.008,0.005l-0.006,0.006l-0.003,0.006L89.12,64.77l-0.006,0.003l-0.006,0.006h-0.006  l-0.007,0.003l-0.006,0.003l-0.006,0.003l-0.01,0.003h-0.006h-0.006h-0.006l-0.01,0.004H89.041z M89.181,64.651l-0.14,0.143h-7.385  v-0.283h7.385L89.181,64.651z M81.517,64.651h0.28v0.009v0.006l-0.003,0.009v0.006v0.006l-0.003,0.006L81.788,64.7l-0.005,0.006  l-0.003,0.006l-0.003,0.006l-0.003,0.006l-0.003,0.006l-0.003,0.006l-0.003,0.006l-0.006,0.006l-0.003,0.003l-0.006,0.005  l-0.006,0.006l-0.006,0.006h-0.003l-0.006,0.006l-0.008,0.003l-0.006,0.003l-0.006,0.003l-0.006,0.003h-0.006l-0.006,0.003  l-0.009,0.003h-0.006h-0.006h-0.011h-0.006H81.65h-0.006h-0.009H81.63l-0.007-0.003l-0.009-0.003h-0.007l-0.006-0.003l-0.006-0.003  l-0.006-0.003l-0.007-0.003l-0.003-0.006h-0.006l-0.006-0.006l-0.006-0.006L81.56,64.75l-0.006-0.003l-0.004-0.006l-0.007-0.006  l-0.003-0.006l-0.003-0.006l-0.003-0.006l-0.003-0.006l-0.003-0.006L81.525,64.7l-0.003-0.008v-0.006l-0.003-0.006v-0.006v-0.009  l-0.003-0.006V64.651z M81.656,64.794l-0.14-0.143V53.874h0.28v10.777L81.656,64.794z M81.656,53.734v0.278H81.65l-0.006-0.003  h-0.009l-0.006-0.003h-0.007h-0.009l-0.007-0.006h-0.006l-0.006-0.003l-0.006-0.003l-0.007-0.003l-0.003-0.003l-0.006-0.006  l-0.006-0.003l-0.006-0.003l-0.003-0.006l-0.006-0.006l-0.004-0.008l-0.007-0.003l-0.003-0.006l-0.003-0.003l-0.003-0.006  l-0.003-0.006l-0.003-0.006l-0.003-0.006l-0.003-0.009v-0.007L81.52,53.9v-0.009v-0.006l-0.003-0.006v-0.006v-0.007l0.003-0.009  V53.85v-0.007l0.003-0.006V53.83l0.003-0.006l0.003-0.006l0.003-0.006l0.003-0.006l0.003-0.006l0.003-0.006l0.003-0.006l0.007-0.008  l0.004-0.003l0.006-0.006l0.003-0.003l0.006-0.006l0.006-0.003l0.006-0.003l0.003-0.006l0.007-0.003l0.006-0.003l0.006-0.003  l0.006-0.003h0.007l0.009-0.003l0.007-0.003h0.006h0.009h0.006H81.656z M81.517,53.874l0.14-0.14h12.345v0.278H81.656L81.517,53.874  z M93.861,53.874h0.279v0.006v0.006l-0.003,0.006V53.9v0.007l-0.003,0.007l-0.003,0.009l-0.004,0.006l-0.003,0.006v0.006  l-0.006,0.006l-0.003,0.006l-0.003,0.003l-0.006,0.006l-0.003,0.008l-0.006,0.003l-0.003,0.006l-0.008,0.003l-0.003,0.003  l-0.006,0.006l-0.006,0.003l-0.006,0.003l-0.006,0.003l-0.006,0.003l-0.006,0.003l-0.006,0.003h-0.011l-0.006,0.003h-0.006  l-0.006,0.003h-0.009h-0.006h-0.006h-0.009L93.98,54.01h-0.008l-0.006-0.003h-0.009l-0.006-0.003l-0.006-0.003l-0.006-0.003  l-0.006-0.003l-0.006-0.003l-0.007-0.003l-0.007-0.006l-0.003-0.003l-0.006-0.003L93.9,53.972l-0.003-0.003l-0.006-0.008  l-0.003-0.006l-0.004-0.003l-0.006-0.006l-0.003-0.006l-0.003-0.006l-0.003-0.006v-0.006l-0.003-0.009l-0.003-0.007V53.9  l-0.003-0.009v-0.006V53.88V53.874z M94.001,54.013l-0.14-0.139V51.39h0.279v2.484L94.001,54.013z M94.001,51.531v-0.28h0.006  l0.009,0.003h0.006h0.006l0.006,0.003h0.011l0.006,0.006h0.006l0.006,0.003l0.006,0.003l0.006,0.003l0.006,0.003l0.006,0.008  l0.003,0.003l0.008,0.003l0.003,0.006l0.006,0.006l0.003,0.003l0.006,0.006l0.003,0.003l0.003,0.009l0.006,0.006v0.003l0.003,0.006  l0.004,0.011l0.003,0.006l0.003,0.006v0.009v0.006l0.003,0.006v0.006v0.006V51.4v0.006l-0.003,0.009v0.006v0.006l-0.003,0.006  l-0.003,0.007l-0.004,0.006l-0.003,0.006v0.007l-0.006,0.006l-0.003,0.006l-0.003,0.006l-0.006,0.007l-0.003,0.006l-0.006,0.003  l-0.003,0.003L94.088,51.5l-0.003,0.006l-0.006,0.003l-0.006,0.003l-0.006,0.004l-0.006,0.004l-0.006,0.003l-0.006,0.003h-0.006  l-0.011,0.003l-0.006,0.003h-0.006h-0.006h-0.009H94.001z M94.141,51.39l-0.14,0.142H70.337v-0.28h23.664L94.141,51.39z   M70.479,51.39h-0.28v-0.006v-0.006v-0.006l0.003-0.006v-0.009l0.003-0.006l0.003-0.006l0.003-0.011l0.003-0.006v-0.003l0.006-0.006  l0.003-0.009l0.003-0.003l0.006-0.006l0.003-0.003l0.008-0.006l0.003-0.006l0.006-0.003l0.003-0.003l0.006-0.008l0.006-0.003  l0.006-0.003l0.006-0.003l0.006-0.003h0.006l0.008-0.006h0.009l0.006-0.003h0.006h0.006l0.009-0.003h0.006h0.006l0.01,0.003h0.007  h0.006l0.006,0.003h0.009l0.007,0.006h0.006l0.006,0.003l0.006,0.003l0.006,0.003l0.007,0.003l0.006,0.008l0.004,0.003l0.006,0.003  l0.006,0.006l0.003,0.006l0.003,0.003l0.006,0.006l0.003,0.003l0.006,0.009l0.003,0.006l0.003,0.003v0.006l0.003,0.011l0.005,0.006  l0.003,0.006v0.009l0.003,0.006v0.006v0.006V51.39z M70.337,51.251l0.142,0.139v20.162h-0.28V51.39L70.337,51.251z M70.337,71.691  v-0.279h0.006h0.01h0.007l0.006,0.003l0.006,0.003h0.009l0.007,0.003l0.006,0.003l0.006,0.003l0.006,0.003l0.006,0.003l0.007,0.003  l0.006,0.006l0.004,0.003l0.006,0.004l0.006,0.006l0.003,0.003l0.003,0.007l0.006,0.003l0.003,0.006l0.006,0.006l0.003,0.006  l0.003,0.007v0.006l0.003,0.006l0.005,0.006l0.003,0.009v0.007l0.003,0.007v0.009v0.006v0.006v0.006v0.009v0.006l-0.003,0.011v0.006  l-0.003,0.006l-0.005,0.006l-0.003,0.006v0.006l-0.003,0.006l-0.003,0.006l-0.006,0.006l-0.003,0.008l-0.006,0.006l-0.003,0.003  l-0.003,0.006l-0.006,0.003l-0.006,0.006l-0.004,0.003l-0.006,0.003l-0.007,0.006l-0.006,0.003l-0.006,0.003h-0.006l-0.006,0.006  H70.38l-0.009,0.003l-0.006,0.004h-0.006h-0.007h-0.01H70.337z M70.479,71.552l-0.142,0.14H7.056v-0.279h63.281L70.479,71.552z   M7.195,71.552h-0.28v-0.006V71.54v-0.009l0.003-0.007v-0.007l0.003-0.009l0.003-0.006l0.003-0.006l0.003-0.006v-0.007l0.006-0.006  l0.003-0.006l0.003-0.006l0.006-0.003l0.003-0.007l0.006-0.003l0.003-0.006l0.007-0.004l0.006-0.003l0.003-0.006l0.006-0.003  l0.006-0.003l0.007-0.003l0.006-0.003l0.006-0.003l0.006-0.003h0.009l0.007-0.003l0.006-0.003H7.04h0.009h0.006h0.006h0.009h0.006  l0.006,0.003l0.006,0.003h0.009l0.006,0.003l0.007,0.003l0.006,0.003l0.006,0.003l0.006,0.003l0.006,0.003l0.007,0.006l0.003,0.003  l0.006,0.004l0.006,0.006l0.003,0.003l0.006,0.007l0.003,0.003l0.004,0.006l0.006,0.006l0.003,0.006l0.003,0.007v0.006l0.003,0.006  l0.003,0.006l0.003,0.009v0.007l0.003,0.007v0.009v0.006V71.552z M7.056,71.412l0.14,0.14v7.062h-0.28v-7.062L7.056,71.412z   M7.056,78.755v-0.283h0.006l0.009,0.003l0.006,0.003h0.006h0.006l0.009,0.003l0.006,0.003h0.007l0.006,0.006h0.006l0.006,0.006  h0.006l0.007,0.006l0.003,0.006L7.15,78.51l0.006,0.003l0.003,0.006l0.006,0.008l0.003,0.006l0.004,0.003l0.006,0.006l0.003,0.006  l0.003,0.006v0.006l0.003,0.006l0.003,0.006l0.003,0.011v0.006l0.003,0.006v0.006v0.006v0.009v0.006v0.009v0.007l-0.003,0.007v0.006  l-0.003,0.006l-0.003,0.006l-0.003,0.009v0.007L7.18,78.678l-0.003,0.009l-0.006,0.003l-0.004,0.007l-0.003,0.006l-0.006,0.006  l-0.003,0.007L7.15,78.718l-0.006,0.003l-0.003,0.006l-0.007,0.003l-0.006,0.003l-0.006,0.006H7.117l-0.006,0.006H7.104  l-0.006,0.003L7.089,78.75H7.083H7.077l-0.006,0.005H7.062H7.056z M7.195,78.613l-0.14,0.142H2.744v-0.283h4.312L7.195,78.613z   M2.884,78.613h-0.28v-0.009v-0.006v-0.006l0.003-0.006v-0.006L2.61,78.57l0.003-0.006l0.003-0.006l0.004-0.006v-0.006l0.006-0.006  l0.003-0.006l0.003-0.003l0.006-0.006l0.003-0.008l0.003-0.006L2.65,78.51l0.006-0.003l0.003-0.006l0.006-0.006h0.006l0.006-0.006  h0.006l0.006-0.006h0.006l0.006-0.003l0.01-0.003h0.006h0.006l0.006-0.003l0.01-0.003h0.006H2.75l0.009,0.003l0.007,0.003h0.006  h0.006l0.009,0.003l0.006,0.003h0.006l0.006,0.006h0.006l0.006,0.006h0.006l0.006,0.006l0.003,0.006l0.006,0.003l0.006,0.003  l0.003,0.006l0.003,0.008l0.007,0.006l0.003,0.003l0.003,0.006l0.006,0.006l0.003,0.006v0.006l0.003,0.006l0.003,0.006l0.003,0.011  v0.006l0.004,0.006v0.006v0.006V78.613z M2.744,78.472l0.14,0.142v1.727h-0.28v-1.727L2.744,78.472z M2.744,80.198v0.28H2.738h-0.01  H2.723l-0.006-0.003l-0.006-0.003h-0.01L2.695,80.47l-0.006-0.003H2.683l-0.006-0.006H2.671l-0.006-0.006l-0.006-0.006l-0.003-0.003  L2.65,80.441l-0.007-0.006L2.64,80.433l-0.003-0.006l-0.006-0.003l-0.003-0.006l-0.003-0.006L2.62,80.406V80.4l-0.004-0.006  l-0.003-0.006L2.61,80.381l-0.003-0.009v-0.006L2.604,80.36v-0.009v-0.006V80.34v-0.007v-0.01v-0.006l0.003-0.009v-0.006  l0.003-0.006l0.003-0.007l0.003-0.006l0.004-0.006v-0.006l0.006-0.007l0.003-0.006l0.003-0.007l0.006-0.006l0.003-0.003l0.003-0.003  l0.007-0.006l0.006-0.006l0.003-0.003l0.006-0.003l0.006-0.006l0.006-0.003l0.006-0.003h0.006l0.006-0.008h0.006l0.01-0.003  l0.006-0.003h0.006h0.006h0.01H2.744z M2.604,80.34l0.14-0.142h4.312v0.28H2.744L2.604,80.34z M7.156,80.436l-0.201-0.194  l0.003-0.006l0.006-0.003l0.006-0.003l0.006-0.006l0.006-0.003l0.006-0.003l0.007-0.006h0.006l0.006-0.005l0.006-0.003h0.006  l0.007-0.003l0.006-0.003H7.04h0.006h0.007h0.006h0.006h0.009H7.08l0.006,0.003l0.006,0.003h0.006l0.006,0.003l0.007,0.005h0.006  l0.006,0.006h0.006l0.006,0.006l0.007,0.003l0.006,0.006l0.006,0.003l0.003,0.006l0.006,0.006l0.003,0.006l0.007,0.007l0.003,0.006  l0.003,0.007l0.003,0.003l0.003,0.006l0.003,0.009l0.003,0.007l0.003,0.006v0.006v0.006l0.003,0.006v0.006v0.007v0.007v0.009v0.009  l-0.003,0.006v0.006v0.006l-0.003,0.006l-0.003,0.008l-0.003,0.006L7.18,80.4l-0.003,0.006l-0.003,0.006l-0.003,0.006l-0.004,0.006  L7.162,80.43L7.156,80.436z M7.056,80.479v-0.28l0.1,0.237l-0.079,0.086l-0.082,0.091l-0.077,0.092l-0.073,0.092l-0.07,0.097  l-0.069,0.095l-0.065,0.094l-0.063,0.098l-0.061,0.098l-0.058,0.097l-0.055,0.104l-0.051,0.098l-0.052,0.104L6.255,81.78  l-0.042,0.102L6.17,81.988l-0.04,0.104l-0.036,0.104l-0.037,0.108l-0.03,0.104L6,82.518l-0.028,0.106l-0.023,0.11l-0.021,0.106  l-0.019,0.108l-0.015,0.112l-0.016,0.112l-0.009,0.11L5.86,83.396L5.854,83.51l-0.006,0.112v0.112H5.568l0.003-0.118l0.003-0.119  l0.006-0.118l0.009-0.118l0.012-0.116l0.015-0.118l0.019-0.119l0.019-0.115l0.021-0.116l0.024-0.115l0.031-0.112l0.027-0.116  l0.036-0.112l0.037-0.113l0.036-0.112l0.042-0.109l0.043-0.11L6,81.665l0.052-0.108L6.1,81.45l0.058-0.107l0.058-0.104l0.061-0.106  L6.34,81.03l0.067-0.104l0.07-0.101l0.073-0.102l0.073-0.099l0.08-0.099l0.082-0.098l0.082-0.093l0.088-0.096L7.056,80.479z   M5.568,83.734h0.279l0,0l0.006,0.24l0.019,0.234l0.03,0.231l0.039,0.231l0.055,0.226l0.061,0.219l0.073,0.216l0.085,0.21  l0.094,0.206l0.104,0.202l0.109,0.194l0.122,0.188l0.13,0.185l0.14,0.176l0.146,0.171l0.155,0.16l0.162,0.155l0.167,0.146  l0.177,0.141l0.183,0.128l0.188,0.121l0.198,0.113l0.201,0.104l0.204,0.094l0.212,0.086l0.217,0.072l0.219,0.061l0.225,0.056  l0.229,0.04l0.234,0.026l0.234,0.02l0.24,0.006v0.28l-0.253-0.008l-0.252-0.018l-0.247-0.03l-0.24-0.043l-0.237-0.058L9.04,88.451  l-0.229-0.08l-0.222-0.088l-0.222-0.101l-0.213-0.109L7.95,87.954l-0.201-0.127L7.555,87.69l-0.186-0.149l-0.18-0.154l-0.17-0.165  l-0.164-0.17l-0.156-0.18L6.55,86.687l-0.137-0.195l-0.128-0.2l-0.119-0.208l-0.113-0.212l-0.097-0.22L5.869,85.43L5.79,85.201  l-0.064-0.237l-0.058-0.237l-0.042-0.243L5.592,84.24l-0.018-0.254L5.568,83.734z M10.506,88.671v-0.28l0.24-0.006l0.234-0.02  l0.231-0.026l0.231-0.04l0.226-0.056l0.219-0.061l0.216-0.072l0.213-0.086l0.204-0.094l0.201-0.104l0.198-0.113l0.186-0.121  l0.182-0.128l0.18-0.141l0.167-0.146l0.162-0.155l0.155-0.16l0.146-0.171l0.14-0.176l0.127-0.185l0.122-0.188l0.116-0.194  l0.101-0.202l0.094-0.206l0.083-0.21l0.076-0.216l0.062-0.219l0.051-0.226l0.043-0.231l0.03-0.231l0.018-0.234l0.007-0.24h0.276  l-0.006,0.252l-0.019,0.254l-0.03,0.243l-0.045,0.243l-0.055,0.237l-0.067,0.237l-0.076,0.229l-0.088,0.222l-0.101,0.22  l-0.109,0.212l-0.119,0.208l-0.128,0.2l-0.14,0.195l-0.146,0.186l-0.155,0.18l-0.165,0.17l-0.17,0.165l-0.179,0.154l-0.187,0.149  l-0.195,0.137l-0.2,0.127l-0.208,0.119l-0.213,0.109l-0.219,0.101l-0.222,0.088l-0.231,0.08l-0.231,0.063l-0.24,0.058l-0.243,0.043  l-0.247,0.03l-0.249,0.018L10.506,88.671z M15.441,83.734h-0.276l-0.003-0.118l-0.007-0.119l-0.006-0.115l-0.012-0.115l-0.016-0.116  l-0.018-0.112l-0.021-0.116l-0.021-0.112l-0.027-0.112l-0.03-0.113l-0.033-0.109l-0.034-0.113l-0.04-0.104l-0.042-0.11l-0.042-0.109  l-0.046-0.104l-0.052-0.107l-0.052-0.104l-0.051-0.1l-0.058-0.104l-0.058-0.098l-0.064-0.097l-0.062-0.098l-0.066-0.095l-0.07-0.094  l-0.07-0.092l-0.073-0.091l-0.073-0.086l-0.079-0.084l-0.077-0.086l-0.082-0.079l-0.083-0.083l0.192-0.203l0.088,0.085l0.085,0.086  l0.082,0.09l0.083,0.093l0.079,0.092l0.076,0.093l0.076,0.096l0.073,0.099l0.07,0.102l0.067,0.104l0.064,0.104l0.063,0.104  l0.058,0.108l0.058,0.107l0.055,0.109l0.055,0.112l0.048,0.113l0.046,0.112l0.042,0.115l0.043,0.116l0.037,0.115l0.036,0.122  l0.03,0.118l0.031,0.119l0.024,0.121l0.021,0.122l0.019,0.121l0.015,0.122l0.016,0.124l0.006,0.126l0.006,0.125V83.734z   M13.795,80.198v0.28h-0.01H13.78l-0.006-0.003h-0.009l-0.006-0.003h-0.006l-0.006-0.003l-0.006-0.003l-0.006-0.003l-0.006-0.003  l-0.006-0.003l-0.006-0.003l-0.006-0.006l-0.003-0.003L13.7,80.441l-0.006-0.006l-0.003-0.006l-0.006-0.003l-0.003-0.006  l-0.006-0.003l-0.003-0.006l-0.004-0.006L13.667,80.4l-0.003-0.006v-0.006l-0.003-0.008l-0.003-0.009v-0.006l-0.003-0.006v-0.009  v-0.006V80.34v-0.007v-0.01v-0.006l0.003-0.009v-0.006l0.003-0.006l0.003-0.007v-0.006l0.003-0.006l0.003-0.006l0.004-0.007  l0.003-0.006l0.006-0.007l0.003-0.003l0.006-0.006l0.003-0.003l0.006-0.006l0.007-0.006l0.003-0.003l0.006-0.003l0.006-0.006h0.006  l0.006-0.006h0.006l0.006-0.005l0.006-0.003h0.006l0.006-0.003l0.009-0.003h0.006h0.006H13.795z M13.697,80.438l0.098-0.24h6.792  v0.28h-6.792L13.697,80.438z"/>
<path fill-rule="evenodd" clip-rule="evenodd" d="M26.624,54.087c-1.294-0.158-2.264-1.078-2.048-2.154l1.938-5.822l-0.322-3.99  h-3.719h-3.721l-0.323,3.99l1.941,5.822c0.217,1.076-0.754,1.996-1.941,2.154h-6.091l-5.282,7.922l5.282,7.927h56.436v-15.9  c-3.772,0.161-3.502-1.402-3.772-2.535H41.499c-0.106,0.864,0,2.587-2.964,2.587H26.624z"/>
<path d="M26.624,53.946v0.28h-0.007h-0.009h-0.006h-0.006l-0.007-0.003l-0.009-0.003h-0.006l-0.006-0.003l-0.006-0.003l-0.006-0.003  l-0.006-0.003l-0.006-0.003l-0.006-0.003l-0.003-0.007l-0.007-0.007l-0.006-0.003l-0.003-0.003l-0.003-0.006l-0.006-0.006  l-0.003-0.006l-0.007-0.006l-0.003-0.007l-0.003-0.006v-0.006l-0.003-0.007l-0.003-0.006l-0.003-0.006v-0.006l-0.003-0.007v-0.009  v-0.006v-0.009v-0.006v-0.008v-0.006l0.003-0.009v-0.006l0.003-0.006l0.003-0.006l0.003-0.009v-0.006l0.003-0.008l0.003-0.006  l0.007-0.006l0.003-0.003l0.006-0.006l0.003-0.003l0.003-0.006l0.006-0.006l0.007-0.003l0.003-0.003l0.006-0.006l0.006-0.003  l0.006-0.003l0.006-0.005l0.006-0.003l0.006-0.003l0.006-0.003h0.009l0.007-0.003h0.006l0.006-0.003h0.009H26.624z M26.605,54.227  l0.019-0.28h11.912v0.28H26.624H26.605z M38.535,53.946v0.28h-0.006h-0.009h-0.006h-0.006l-0.011-0.003l-0.006-0.003h-0.006  l-0.006-0.003l-0.006-0.003l-0.006-0.003l-0.006-0.003l-0.006-0.003l-0.006-0.003l-0.007-0.007l-0.003-0.007l-0.006-0.003  l-0.003-0.003l-0.006-0.006l-0.003-0.006l-0.006-0.006l-0.003-0.006l-0.003-0.007l-0.003-0.006l-0.003-0.006v-0.007l-0.003-0.006  l-0.003-0.006l-0.003-0.006V54.11v-0.009v-0.006v-0.009v-0.006v-0.008v-0.006v-0.009l0.003-0.006l0.003-0.006l0.003-0.006v-0.009  l0.003-0.006l0.003-0.008l0.003-0.006l0.003-0.006l0.006-0.003l0.003-0.006l0.006-0.003l0.003-0.006l0.006-0.006l0.003-0.003  l0.007-0.003l0.006-0.006l0.006-0.003l0.006-0.003l0.006-0.005l0.006-0.003l0.006-0.003l0.006-0.003h0.006l0.011-0.003h0.006  l0.006-0.003h0.009H38.535z M38.535,54.227v-0.28l0.266-0.003l0.246-0.015l0.225-0.025l0.212-0.029l0.199-0.04l0.179-0.045  l0.165-0.055l0.151-0.058l0.141-0.065l0.125-0.07l0.113-0.075l0.103-0.075l0.092-0.083l0.082-0.085l0.077-0.092l0.063-0.091  l0.058-0.092l0.052-0.101l0.042-0.094l0.04-0.104l0.034-0.101l0.027-0.1l0.025-0.104l0.021-0.104l0.018-0.101l0.012-0.1l0.014-0.098  l0.009-0.101l0.009-0.094l0.009-0.092l0.009-0.092l0.009-0.084l0.28,0.037l-0.009,0.078l-0.009,0.085l-0.009,0.095l-0.009,0.095  l-0.013,0.103l-0.012,0.104l-0.015,0.106l-0.018,0.11l-0.022,0.112l-0.027,0.109l-0.031,0.116l-0.035,0.112l-0.046,0.112  l-0.052,0.116l-0.058,0.111l-0.067,0.109l-0.08,0.106l-0.084,0.107l-0.098,0.101l-0.11,0.097l-0.119,0.092l-0.13,0.084l-0.143,0.08  l-0.156,0.073l-0.167,0.066l-0.182,0.055l-0.194,0.052l-0.21,0.043l-0.226,0.033l-0.24,0.025l-0.258,0.012L38.535,54.227z   M41.499,51.36v0.28h-0.006h-0.006h-0.01h-0.006l-0.006-0.006h-0.006l-0.006-0.003l-0.009-0.005h-0.006l-0.006-0.006h-0.006  l-0.008-0.006l-0.003-0.003l-0.006-0.003l-0.006-0.006l-0.003-0.006l-0.006-0.003l-0.003-0.003l-0.006-0.006l-0.003-0.006  l-0.003-0.006l-0.003-0.008l-0.003-0.006l-0.003-0.006l-0.003-0.006l-0.003-0.006v-0.006l-0.004-0.009v-0.006l-0.003-0.011v-0.006  V51.5v-0.006v-0.006l0.003-0.009v-0.007l0.004-0.009v-0.006l0.003-0.007l0.003-0.006l0.003-0.006l0.003-0.007l0.003-0.006  l0.003-0.006l0.003-0.006l0.006-0.006l0.003-0.003l0.006-0.003l0.003-0.006l0.006-0.008l0.006-0.003l0.003-0.003l0.008-0.006h0.006  l0.006-0.006h0.006l0.009-0.003l0.006-0.003h0.006l0.006-0.006h0.006h0.01h0.006H41.499z M41.358,51.482l0.141-0.122h23.502v0.28  H41.499L41.358,51.482z M65.138,51.467l-0.274,0.064v-0.006L64.86,51.52v-0.008v-0.006v-0.009v-0.006v-0.006l0.003-0.01V51.47  l0.003-0.006v-0.006l0.003-0.007l0.005-0.006l0.003-0.006l0.003-0.007l0.003-0.006l0.003-0.006l0.003-0.006l0.006-0.006l0.003-0.006  l0.006-0.003l0.006-0.003l0.003-0.008l0.006-0.006h0.006l0.008-0.006l0.006-0.003l0.006-0.003l0.006-0.003l0.006-0.003h0.006  l0.009-0.003l0.006-0.003h0.006h0.011h0.006h0.006h0.009h0.003h0.009l0.007,0.003l0.006,0.003h0.006l0.007,0.003l0.009,0.003h0.006  l0.007,0.006l0.003,0.003l0.006,0.003l0.006,0.003l0.006,0.003l0.006,0.008l0.003,0.006l0.007,0.003l0.004,0.006l0.006,0.003  l0.003,0.006l0.003,0.006l0.003,0.006l0.003,0.007l0.003,0.006l0.003,0.006l0.003,0.01V51.467z M65.001,51.641v-0.28l0.137,0.106  l0.025,0.113l0.021,0.109l0.021,0.114l0.02,0.112l0.021,0.113l0.018,0.115l0.025,0.11l0.023,0.109l0.028,0.109l0.03,0.104  l0.037,0.106l0.041,0.1l0.046,0.101l0.055,0.095l0.064,0.091l0.066,0.092l0.08,0.084l0.091,0.083l0.104,0.079l0.112,0.075  l0.128,0.067l0.144,0.067l0.154,0.059l0.177,0.055l0.192,0.044l0.212,0.043l0.229,0.034l0.249,0.027l0.271,0.018l0.295,0.006h0.314  l0.34-0.009l0.01,0.277l-0.344,0.012H68.11l-0.301-0.009l-0.28-0.015l-0.261-0.031l-0.242-0.033l-0.224-0.046l-0.208-0.049  l-0.191-0.061l-0.173-0.063l-0.162-0.076l-0.145-0.08l-0.136-0.084l-0.118-0.093l-0.106-0.096l-0.094-0.104l-0.086-0.109  l-0.073-0.109l-0.063-0.113l-0.058-0.112l-0.046-0.118l-0.039-0.119l-0.036-0.115l-0.031-0.116l-0.024-0.121l-0.023-0.116  l-0.022-0.115l-0.018-0.116l-0.022-0.109l-0.018-0.109l-0.021-0.108l-0.025-0.104L65.001,51.641z M68.914,54.035h-0.28v-0.009  v-0.008l0.003-0.006v-0.006l0.003-0.006v-0.009l0.003-0.006l0.003-0.006l0.003-0.009l0.003-0.003l0.003-0.008l0.003-0.006  l0.003-0.006l0.008-0.003l0.003-0.006l0.006-0.006l0.003-0.003l0.006-0.003l0.006-0.006l0.003-0.006l0.009-0.003l0.003-0.004h0.006  l0.006-0.007h0.011l0.006-0.006h0.006h0.006l0.006-0.003h0.01l0.006-0.003h0.006h0.01l0.006,0.003h0.006l0.01,0.003h0.006h0.006  l0.006,0.006h0.006l0.006,0.007h0.007l0.007,0.004l0.006,0.003l0.006,0.006l0.006,0.006l0.003,0.003l0.006,0.003l0.003,0.006  l0.006,0.006l0.003,0.003l0.006,0.006l0.005,0.006l0.003,0.008l0.003,0.003l0.003,0.009l0.003,0.006v0.006l0.003,0.009l0.003,0.006  v0.006v0.006v0.008V54.035z M68.771,53.895l0.144,0.141v15.9h-0.28v-15.9L68.771,53.895z M68.773,70.076v-0.283h0.01l0.006,0.003  h0.006l0.01,0.003h0.006h0.006l0.006,0.006h0.006l0.006,0.003l0.007,0.003l0.007,0.003l0.006,0.003l0.006,0.006l0.006,0.008  l0.003,0.003l0.006,0.003l0.003,0.006l0.006,0.006l0.003,0.003l0.006,0.006l0.005,0.006l0.003,0.007l0.003,0.003l0.003,0.009  l0.003,0.007v0.006l0.003,0.009l0.003,0.007v0.006v0.006v0.006v0.009v0.006v0.011v0.006v0.006l-0.003,0.006l-0.003,0.006v0.006  l-0.003,0.009l-0.003,0.006l-0.003,0.003l-0.003,0.008l-0.005,0.006l-0.006,0.006l-0.003,0.006l-0.006,0.006l-0.003,0.003  l-0.006,0.006l-0.003,0.003l-0.006,0.006l-0.006,0.003l-0.006,0.003l-0.007,0.006h-0.007l-0.006,0.005l-0.006,0.003l-0.006,0.003  l-0.006,0.003h-0.006h-0.01h-0.006l-0.006,0.003H68.773z M68.914,69.936l-0.141,0.141H12.338v-0.283h56.436L68.914,69.936z   M12.222,70.013l0.231-0.156l0.006,0.006l0.003,0.007l0.003,0.009l0.003,0.006l0.003,0.007v0.006l0.003,0.006v0.007l0.004,0.006  v0.006v0.006v0.009v0.006v0.011l-0.004,0.006v0.006v0.006l-0.003,0.006l-0.003,0.006v0.006l-0.003,0.006l-0.003,0.006l-0.003,0.008  l-0.006,0.006l-0.003,0.006l-0.003,0.006l-0.007,0.006l-0.003,0.003l-0.006,0.006l-0.003,0.003l-0.006,0.006l-0.006,0.003  l-0.006,0.003l-0.006,0.006h-0.006l-0.006,0.008h-0.006l-0.009,0.003l-0.006,0.003h-0.006h-0.007h-0.006h-0.009h-0.006h-0.006  h-0.007h-0.006h-0.009l-0.006-0.003l-0.007-0.003h-0.006l-0.006-0.003L12.28,70.06h-0.006l-0.006-0.006l-0.006-0.003l-0.006-0.003  l-0.006-0.006l-0.006-0.003l-0.004-0.003l-0.006-0.006l-0.003-0.006l-0.006-0.006L12.222,70.013z M12.338,70.076l-0.116-0.063  L6.94,62.089l0.231-0.155l5.282,7.923L12.338,70.076z M6.94,61.934l0.231,0.155l-0.004,0.006l-0.003,0.006l-0.006,0.006  l-0.003,0.003L7.15,62.113l-0.006,0.006l-0.007,0.006l-0.003,0.003l-0.006,0.004l-0.006,0.003l-0.006,0.003l-0.006,0.003  l-0.01,0.003H7.098l-0.009,0.003l-0.006,0.003H7.077H7.071H7.062H7.056H7.049H7.043H7.037H7.028l-0.007-0.003l-0.006-0.003H7.01  l-0.006-0.003l-0.006-0.003l-0.007-0.003l-0.006-0.003l-0.006-0.004l-0.006-0.006l-0.006-0.003l-0.007-0.006l-0.006-0.004  l-0.003-0.006l-0.006-0.003l-0.003-0.006L6.94,62.089l-0.003-0.006l-0.006-0.006v-0.008l-0.003-0.006l-0.003-0.006l-0.003-0.006  v-0.006L6.918,62.04v-0.009l-0.003-0.006V62.02v-0.011v-0.006v-0.006v-0.006l0.003-0.006v-0.006l0.003-0.006l0.003-0.009v-0.006  l0.003-0.008l0.003-0.006l0.006-0.006L6.94,61.934z M6.94,62.089v-0.155l5.282-7.924l0.231,0.156l-5.282,7.923H6.94z M12.338,53.946  v0.28h-0.006h-0.007h-0.009h-0.006l-0.006-0.003l-0.007-0.003h-0.009l-0.006-0.003l-0.006-0.003l-0.006-0.003l-0.006-0.003  l-0.006-0.003l-0.003-0.003l-0.006-0.007l-0.006-0.007l-0.004-0.003l-0.006-0.003l-0.003-0.006l-0.006-0.006l-0.003-0.006  l-0.003-0.006l-0.003-0.007l-0.004-0.006l-0.003-0.006l-0.003-0.007l-0.003-0.006v-0.006l-0.003-0.006V54.11l-0.003-0.009v-0.006  v-0.009v-0.006v-0.008l0.003-0.006v-0.009l0.003-0.006v-0.006l0.003-0.006l0.003-0.009l0.003-0.006l0.004-0.008l0.003-0.006  l0.003-0.006l0.003-0.003l0.006-0.006l0.003-0.003l0.006-0.006l0.004-0.006l0.006-0.003l0.006-0.003l0.003-0.006l0.006-0.003  l0.006-0.003l0.006-0.005l0.006-0.003l0.006-0.003l0.009-0.003h0.007l0.006-0.003h0.006l0.009-0.003h0.007H12.338z M12.222,54.01  l0.116-0.063h6.091v0.28h-6.091L12.222,54.01z M18.411,53.949l0.037,0.277h-0.006h-0.006h-0.009H18.42h-0.006h-0.006l-0.009-0.003  l-0.006-0.003h-0.006H18.38l-0.006-0.006h-0.006l-0.007-0.006h-0.006l-0.006-0.006L18.344,54.2l-0.003-0.004l-0.007-0.007  l-0.006-0.006l-0.003-0.003l-0.006-0.006l-0.003-0.003l-0.003-0.006l-0.007-0.006v-0.007l-0.006-0.006v-0.006l-0.003-0.007  l-0.003-0.009l-0.003-0.006v-0.007v-0.009l-0.003-0.006v-0.006v-0.006v-0.006l0.003-0.011v-0.006v-0.009l0.003-0.006l0.003-0.006  v-0.006l0.003-0.006l0.003-0.006l0.003-0.008l0.003-0.006l0.003-0.006l0.006-0.006l0.003-0.003l0.003-0.006l0.006-0.003l0.006-0.006  l0.004-0.003l0.006-0.003l0.006-0.006l0.006-0.003l0.006-0.003l0.007-0.008h0.006l0.006-0.003l0.006-0.003h0.006l0.009-0.003H18.411  z M18.429,54.227v-0.28l-0.019,0.003l0.107-0.015l0.103-0.021l0.101-0.025l0.1-0.027l0.097-0.037l0.098-0.032l0.094-0.04  l0.091-0.043l0.088-0.046l0.085-0.052l0.085-0.048l0.08-0.058l0.076-0.058l0.073-0.061l0.07-0.064l0.063-0.068l0.061-0.066  l0.058-0.069l0.055-0.073l0.049-0.072l0.042-0.08l0.04-0.075l0.034-0.079l0.03-0.083l0.024-0.081l0.021-0.084l0.012-0.084  l0.009-0.089l0.003-0.088l-0.003-0.092l-0.009-0.087l-0.016-0.093l0.274-0.055l0.018,0.11l0.009,0.106l0.006,0.109l-0.003,0.107  l-0.012,0.102l-0.015,0.104l-0.024,0.101l-0.027,0.101l-0.036,0.094l-0.043,0.098l-0.045,0.091l-0.052,0.092l-0.058,0.084  l-0.061,0.086l-0.067,0.082l-0.07,0.077l-0.073,0.075l-0.083,0.073l-0.082,0.069l-0.085,0.068l-0.091,0.061l-0.094,0.058  l-0.094,0.058l-0.101,0.048l-0.1,0.049L19.12,54.05l-0.106,0.043l-0.11,0.033l-0.113,0.034l-0.112,0.026l-0.116,0.022l-0.116,0.018  H18.429z M20.237,51.975l0.265-0.085l0.003,0.006l0.003,0.006v0.006l0.003,0.006v0.006v0.011v0.006v0.009l-0.003,0.006v0.006v0.006  l-0.003,0.007l-0.003,0.006v0.007l-0.003,0.006l-0.004,0.006l-0.003,0.006l-0.006,0.006l-0.003,0.007l-0.003,0.006l-0.003,0.006  l-0.006,0.006l-0.003,0.003l-0.007,0.003l-0.006,0.007l-0.003,0.007h-0.006l-0.006,0.006l-0.006,0.003l-0.006,0.003h-0.006  l-0.009,0.006h-0.006H20.4l-0.006,0.003l-0.009,0.003h-0.007h-0.006h-0.006h-0.009l-0.006-0.003h-0.007l-0.006-0.003h-0.006h-0.006  l-0.01-0.006h-0.006l-0.006-0.003l-0.003-0.003l-0.009-0.006h-0.003l-0.006-0.007l-0.006-0.003l-0.006-0.007l-0.003-0.003  l-0.006-0.006l-0.003-0.006l-0.006-0.006l-0.003-0.003l-0.003-0.007l-0.003-0.006l-0.003-0.006l-0.003-0.006L20.237,51.975z   M20.507,51.904l-0.271,0.07l-1.938-5.82l0.265-0.089l1.938,5.824L20.507,51.904z M18.289,46.1l0.28,0.021v0.006l-0.003,0.007v0.008  v0.007l-0.003,0.006l-0.003,0.007l-0.003,0.006l-0.003,0.006l-0.003,0.006l-0.003,0.006l-0.003,0.004l-0.006,0.006l-0.003,0.004  l-0.006,0.006l-0.003,0.006l-0.006,0.004l-0.006,0.004l-0.004,0.003l-0.006,0.003l-0.006,0.003l-0.006,0.004l-0.006,0.003  l-0.007,0.001l-0.006,0.003l-0.006,0.001l-0.009,0.001l-0.007,0.003h-0.006l-0.006,0.001h-0.009h-0.006H18.42l-0.009-0.001h-0.006  l-0.006-0.003h-0.006l-0.009-0.003l-0.006-0.001l-0.006-0.003l-0.007-0.003l-0.006-0.004l-0.006-0.003l-0.006-0.003l-0.003-0.003  l-0.007-0.004l-0.003-0.006l-0.006-0.004l-0.006-0.006l-0.003-0.006l-0.003-0.004l-0.003-0.006l-0.007-0.006l-0.003-0.004  l-0.003-0.006v-0.006l-0.003-0.007l-0.003-0.006l-0.003-0.009v-0.006v-0.007l-0.003-0.006v-0.007v-0.006V46.1z M18.298,46.155  L18.289,46.1l0.323-3.99l0.279,0.022l-0.322,3.988L18.298,46.155z M18.752,41.981v0.282h-0.007l-0.006-0.001L18.73,42.26h-0.006  l-0.006-0.001l-0.007-0.001l-0.006-0.003l-0.009-0.003l-0.006-0.003l-0.003-0.003l-0.006-0.003l-0.006-0.004l-0.006-0.004  l-0.006-0.004l-0.006-0.004l-0.003-0.004l-0.006-0.003l-0.003-0.006l-0.003-0.006L18.636,42.2l-0.003-0.006l-0.003-0.006  l-0.004-0.006l-0.003-0.007l-0.003-0.007l-0.003-0.006v-0.006l-0.003-0.006v-0.007l-0.003-0.006v-0.007V42.12v-0.006v-0.007  l0.003-0.007v-0.006l0.003-0.006V42.08l0.003-0.006l0.003-0.007l0.003-0.007l0.004-0.004l0.003-0.006l0.003-0.006l0.006-0.006  l0.003-0.004l0.003-0.006l0.006-0.004l0.003-0.004l0.006-0.004l0.006-0.003l0.006-0.004L18.682,42l0.006-0.003l0.003-0.003  l0.006-0.003l0.009-0.001l0.006-0.003l0.007-0.001l0.006-0.001l0.006-0.001h0.009l0.006-0.001H18.752z M18.612,42.11l0.14-0.129  h3.721v0.282h-3.721L18.612,42.11z M22.473,41.981v0.282h-0.009l-0.006-0.001l-0.006-0.001h-0.01l-0.006-0.001l-0.006-0.001  l-0.006-0.003l-0.006-0.003l-0.006-0.003l-0.006-0.003L22.4,42.242l-0.006-0.004l-0.007-0.004l-0.006-0.004l-0.003-0.004  l-0.006-0.004l-0.003-0.003l-0.006-0.006l-0.004-0.006L22.354,42.2l-0.003-0.006l-0.003-0.006l-0.003-0.006l-0.003-0.007v-0.007  l-0.003-0.006l-0.003-0.006l-0.004-0.006v-0.007v-0.006v-0.007V42.12v-0.006v-0.007V42.1v-0.006l0.004-0.006l0.003-0.008  l0.003-0.006v-0.007l0.003-0.007l0.003-0.004l0.003-0.006l0.003-0.006l0.006-0.006l0.004-0.004l0.006-0.006l0.003-0.004l0.006-0.004  l0.003-0.004l0.006-0.003l0.007-0.004L22.4,42l0.006-0.003l0.006-0.003l0.006-0.003l0.006-0.001l0.006-0.003l0.006-0.001  l0.006-0.001l0.01-0.001h0.006l0.006-0.001H22.473z M22.473,41.981L22.473,41.981h3.719v0.282h-3.719V41.981z M26.332,42.11  l-0.28,0.022v-0.006v-0.009V42.11l0.003-0.006v-0.007v-0.006l0.003-0.007v-0.006l0.003-0.006l0.003-0.006l0.003-0.009l0.004-0.004  l0.003-0.006l0.006-0.006l0.003-0.004l0.003-0.006l0.006-0.004l0.003-0.004l0.007-0.004l0.006-0.004l0.003-0.004l0.006-0.004  L26.121,42l0.007-0.003l0.006-0.004l0.006-0.003l0.006-0.001l0.009-0.003h0.006l0.006-0.001l0.006-0.001h0.009h0.007h0.006h0.009  h0.006l0.007,0.001l0.006,0.001l0.009,0.001l0.006,0.001l0.007,0.003l0.006,0.003l0.006,0.003L26.261,42l0.006,0.003l0.006,0.004  l0.003,0.004l0.006,0.004l0.006,0.003l0.003,0.006l0.006,0.004l0.003,0.004l0.003,0.006l0.006,0.005l0.003,0.006l0.003,0.006  l0.003,0.009l0.003,0.006l0.003,0.006v0.006l0.003,0.006v0.007l0.004,0.007V42.11z M26.191,41.981l0.14,0.129l0.322,3.99  l-0.28,0.021l-0.322-3.988L26.191,41.981z M26.647,46.155l-0.265-0.089l0.003-0.008l0.004-0.006v-0.006l0.006-0.006l0.003-0.006  l0.003-0.006l0.003-0.006l0.006-0.005l0.003-0.006l0.006-0.004l0.006-0.004l0.003-0.004l0.006-0.003l0.006-0.003l0.006-0.004  l0.006-0.003l0.006-0.003l0.006-0.001l0.006-0.003l0.007-0.001l0.006-0.001l0.006-0.001l0.006-0.003h0.01l0.006-0.001h0.006h0.006  l0.009,0.001h0.006l0.006,0.004l0.006,0.001l0.009,0.001l0.006,0.003l0.006,0.001l0.006,0.003l0.006,0.003l0.006,0.004l0.007,0.003  L26.602,46l0.003,0.004l0.006,0.004l0.006,0.004l0.003,0.006l0.007,0.004l0.003,0.007l0.003,0.004l0.003,0.006l0.003,0.006  l0.003,0.006l0.003,0.006l0.003,0.008v0.004l0.004,0.007v0.006l0.003,0.007V46.1v0.008v0.006v0.006v0.007v0.007l-0.003,0.006  l-0.004,0.006V46.155z M26.654,46.1l-0.007,0.055l-1.94,5.82l-0.265-0.085l1.94-5.824L26.654,46.1z M24.712,51.959l-0.277-0.055  l0.003-0.009l0.003-0.006v-0.006l0.003-0.006l0.003-0.006l0.003-0.006l0.003-0.008l0.003-0.006l0.007-0.006l0.003-0.006l0.006-0.003  l0.003-0.006l0.006-0.003l0.003-0.006l0.006-0.003l0.007-0.003l0.006-0.006h0.006l0.006-0.008l0.006-0.003l0.007-0.003h0.006  l0.006-0.003l0.006-0.003h0.009h0.006h0.006h0.006h0.01h0.006h0.006h0.009l0.007,0.003l0.006,0.003h0.006l0.009,0.003l0.006,0.003  l0.007,0.008h0.006l0.003,0.006l0.006,0.003l0.006,0.003l0.006,0.006l0.003,0.006l0.006,0.003l0.003,0.003l0.006,0.006l0.003,0.006  l0.003,0.006l0.003,0.008l0.003,0.006l0.003,0.006l0.003,0.006l0.003,0.006v0.006l0.003,0.006v0.009v0.006l0.003,0.011v0.006v0.006  l-0.003,0.006v0.006V51.959z M24.442,51.89l0.265,0.085l0.006-0.016l-0.015,0.093l-0.009,0.087l-0.003,0.092l0.003,0.088  l0.006,0.089l0.016,0.084l0.019,0.08l0.027,0.085l0.03,0.078l0.033,0.08l0.04,0.079l0.046,0.075l0.051,0.077l0.055,0.07l0.058,0.069  l0.064,0.069l0.067,0.064l0.073,0.068l0.076,0.061l0.08,0.055l0.084,0.058l0.089,0.051l0.091,0.049l0.094,0.049l0.097,0.04  l0.101,0.04l0.103,0.035l0.107,0.034l0.106,0.027l0.112,0.024l0.112,0.024l0.116,0.012l-0.036,0.28l-0.125-0.018l-0.123-0.022  l-0.122-0.026l-0.119-0.031l-0.119-0.036l-0.112-0.04l-0.113-0.046l-0.106-0.046l-0.107-0.051l-0.1-0.055l-0.098-0.061l-0.094-0.061  l-0.091-0.068L25.093,53.6l-0.083-0.073l-0.079-0.075l-0.073-0.077l-0.067-0.085l-0.063-0.081l-0.058-0.089l-0.055-0.088  l-0.049-0.095l-0.042-0.095l-0.034-0.097l-0.03-0.101l-0.024-0.098l-0.019-0.107l-0.009-0.102l-0.003-0.107l0.003-0.109l0.012-0.106  l0.015-0.11L24.442,51.89z"/>
<path fill-rule="evenodd" clip-rule="evenodd" d="M24.737,40.451H20.37c0.594-6.037,2.319-10.403,7.168-14.661  c1.243-1.995,0.271-11.482,8.624-12.938c8.195-1.401,8.088,4.637,14.447,5.282c2.75,0.271,5.283-2.208,8.084-2.153  c3.827,0.106,5.446,3.609,8.68,3.771c3.235,0.163,3.881-1.94,7.009-2.047c3.124-0.108,7.384,3.45,7.384,6.793  c0,3.826-0.324,7.868-6.684,9.485c-3.019,0.756-5.659-2.426-8.679-2.317c-2.695,0.053-5.392,2.534-8.033,2.534  c-6.358,0-6.035-3.828-9.592-3.828c-3.719,0-4.528,3.72-10.188,4.043c-3.938,0.216-5.931-2.479-8.626-1.616  C25.707,34.198,25.007,40.451,24.737,40.451"/>
</svg>