<svg xmlns="http://www.w3.org/2000/svg" xmlns:xlink="http://www.w3.org/1999/xlink" version="1.1" id="Layer_1" x="0px" y="0px" width="100px" height="52px" viewBox="0 571.25 100 52" enable-background="new 0 571.25 100 52" xml:space="preserve">
<path d="M85.615,572.219v2.505c-0.718,1.113-1.968,1.853-3.39,1.853c-1.319,0-2.491-0.64-3.226-1.622v-3.704H24.781v0.969H0.094  v1.238c0.93,11.716,11.686,19.36,21.513,20.015c0.221,0.016,0.444,0.025,0.665,0.033c3.686,0.35,6.543,3.495,6.543,7.273  c0,2.02-0.826,3.847-2.157,5.164h-2.266v17.308h54.381v-17.308h-2.266c-2.514-1.188-4.253-3.746-4.253-6.712  c0-4.1,3.324-7.424,7.425-7.424c2.425,0,4.581,1.166,5.937,2.968v0.194h14.291v-22.75H85.615L85.615,572.219z"/>
</svg>