<svg xmlns="http://www.w3.org/2000/svg" xmlns:xlink="http://www.w3.org/1999/xlink" version="1.1" id="Layer_1" x="0px" y="0px" width="100px" height="100px" viewBox="0 0 100 100" enable-background="new 0 0 100 100" xml:space="preserve">
<g>
	<g>
		<path d="M73.922,49.914l-22.798,7.994l-1.087,0.384l-1.087-0.384l-22.686-7.956l-6.448,10.38c-1.158,1.156-1.158,3.038,0,4.195    c0,0,23.729,9.539,30.223,9.539c6.495,0,30.352-9.539,30.352-9.539c1.158-1.157,0.79-2.746,0-4.195L73.922,49.914z"/>
	</g>
	<path d="M50.037,25.263L0.007,37.259l50.03,17.548l50.032-17.548L50.037,25.263z M50.037,42.062c-2.23,0-4.04-0.908-4.04-2.027   c0-1.119,1.809-2.027,4.04-2.027c2.233,0,4.041,0.908,4.041,2.027C54.078,41.154,52.271,42.062,50.037,42.062z"/>
	<polygon points="90.74,44.014 88.958,44.641 88.958,57.481 86.852,70.687 92.847,70.687 90.74,57.489  "/>
</g>
</svg>