<svg xmlns="http://www.w3.org/2000/svg" xmlns:xlink="http://www.w3.org/1999/xlink" version="1.1" id="Layer_1" x="0px" y="0px" width="100px" height="100px" viewBox="0 0 100 100" enable-background="new 0 0 100 100" xml:space="preserve">
<path id="Launch_1_" fill="#000000" d="M74.907,65.612l-0.03-6.117l0.237-0.312c1.37-1.82,2.63-3.707,3.746-5.599  c3.204-5.422,5.532-11.278,6.916-17.408l0.352-1.557l0.896-3.163c1.554-9.862,0.617-20.073-2.709-29.522  c0,0-0.361-1.022-0.649-1.842c-0.855,0.143-1.923,0.319-1.923,0.319C71.86,2.062,62.467,6.17,54.58,12.295l-2.339,2.309  l-1.193,1.059c-4.698,4.174-8.706,9.039-11.908,14.462c-1.177,1.991-2.268,4.115-3.237,6.315l-0.16,0.36l-5.004,2.727  c-6.113,3.328-11.154,8.256-14.635,14.148c-1.861,3.151-3.278,6.577-4.173,10.185c-0.735,2.968-1.114,6.025-1.124,9.093  c0,0-0.004,1.011-0.007,1.822c1.101,0.273,3.66,0.906,5.042,1.248c0.286-1.331,0.773-3.595,0.773-3.595  c0.45-1.816,1.156-3.525,2.079-5.089c2.318-3.926,6.017-6.937,10.534-8.428l1.545-0.511l-0.02,1.629l-0.008,1.468l0.022,1.807  l-0.753,0.29c-3.111,1.199-5.786,3.24-7.733,5.905c0,0-0.84,1.148-1.514,2.066L50.913,89.37c0.479-1.031,1.08-2.318,1.08-2.318  c1.322-2.847,1.848-5.998,1.511-9.114l-0.08-0.777l2.011-1.076l1.467-0.822l1.422-0.717l0.308,1.57  c0.927,4.719,0.087,9.465-2.271,13.457c-0.941,1.593-2.122,3.065-3.529,4.367c0,0-1.655,1.438-2.647,2.3  c0.686,0.781,1.542,1.755,1.542,1.755s1.224,1.327,1.938,2.098c0.708-0.395,1.594-0.886,1.594-0.886  c2.671-1.483,5.168-3.29,7.419-5.373c2.727-2.523,5.042-5.417,6.903-8.568C73.062,79.37,74.943,72.576,74.907,65.612z   M15.742,65.494c-0.004,0.013-0.011,0.025-0.017,0.035c-0.004,0.008-0.012,0.017-0.018,0.025c-0.002,0.003-0.002,0.003-0.002,0.003  c-0.317,0.538-0.572,1.124-0.841,1.695c0.143-0.873,0.269-1.753,0.481-2.613c0.812-3.261,2.085-6.354,3.762-9.203  c0.44-0.749,0.917-1.478,1.415-2.187c0.035-0.048,0.069-0.095,0.104-0.143c1.539-2.16,3.332-4.134,5.331-5.895  c1.254-1.102,6.268-4.415,7.671-5.342c-0.807,2.796-2.741,11.66-2.834,12.63C25.727,56.315,18.394,61.008,15.742,65.494z   M60.959,12.158c6.184-3.963,13.1-6.73,20.351-8.078c2.097,6.32,3.034,12.965,2.846,19.587c-0.053,1.811-0.178,3.623-0.401,5.424  c-2.733-1.615-22.785-13.46-25.524-15.076C59.121,13.367,60.033,12.75,60.959,12.158z M49.31,84.296  c-2.115-1.251-21.208-12.526-23.325-13.777c0.166-0.181,0.336-0.357,0.511-0.531c0.041-0.04,0.082-0.082,0.121-0.121  c0.208-0.199,0.418-0.393,0.638-0.583c1.219-1.055,2.613-1.896,4.154-2.475l18.535,10.949c0.251,1.713,0.173,3.423-0.21,5.076  C49.62,83.326,49.479,83.815,49.31,84.296z M51.252,74.863c-1.113-0.657-16.195-9.565-17.308-10.223  c-0.245-10.996,3.036-23.996,8.212-32.775c0.693-1.172,1.429-2.313,2.204-3.428c0.669-0.967,1.373-1.904,2.1-2.823  c0.198-0.249,0.392-0.503,0.593-0.754c0.049-0.06,0.104-0.12,0.156-0.181c1.767-2.14,6.013-6.602,8.729-8.357l27.163,16.043  c-0.637,2.701-1.627,8.025-3.367,11.525c-0.036,0.07-0.058,0.15-0.083,0.224c-0.121,0.299-0.25,0.591-0.373,0.884  c-0.456,1.08-0.937,2.149-1.459,3.202c-0.6,1.207-1.24,2.396-1.928,3.565C70.698,60.549,62.096,70.418,51.252,74.863z   M65.424,85.298c-0.115,0.167-0.231,0.335-0.351,0.5c-0.322,0.456-0.654,0.9-0.999,1.338c-0.229,0.293-0.465,0.582-0.704,0.867  c-0.315,0.378-0.634,0.753-0.967,1.115c-0.147,0.169-0.301,0.334-0.453,0.495c-0.519,0.55-1.05,1.088-1.607,1.603  c-0.649,0.604-1.358,1.135-2.053,1.687c0.37-0.516,0.757-1.02,1.075-1.56c0.01-0.013,0.016-0.028,0.024-0.044  c0.003-0.006,0.009-0.013,0.011-0.018c0.027-0.045,0.051-0.097,0.078-0.145c0.248-0.428,0.478-0.861,0.693-1.306  c0.124-0.248,0.236-0.5,0.35-0.755c0.104-0.233,0.202-0.466,0.296-0.701c0.135-0.326,0.263-0.656,0.379-0.988  c0.016-0.036,0.024-0.072,0.036-0.108c1.209-3.504,0.87-10.015,0.259-13.823c3.268-2.241,7.646-6.509,10.447-9.305  c-0.091,1.136-0.947,6.66-1.139,7.776c-0.524,2.988-1.419,5.884-2.679,8.616c-0.084,0.184-0.171,0.364-0.258,0.544  c-0.144,0.297-0.289,0.591-0.439,0.883c-0.231,0.438-0.467,0.871-0.717,1.299c-0.034,0.058-0.064,0.119-0.098,0.179  C66.234,84.075,65.834,84.69,65.424,85.298z M67.765,11.765c-1.045-0.617-2.4-0.269-3.02,0.78c-0.618,1.047-0.269,2.4,0.778,3.02  s2.401,0.271,3.021-0.776C69.162,13.739,68.813,12.383,67.765,11.765z M66.112,14.564c-0.495-0.292-0.662-0.934-0.369-1.43  c0.295-0.498,0.936-0.661,1.431-0.368c0.497,0.293,0.666,0.934,0.372,1.432C67.251,14.695,66.61,14.858,66.112,14.564z   M80.971,19.564c-1.05-0.619-2.403-0.271-3.022,0.778c-0.619,1.047-0.271,2.4,0.779,3.021c1.047,0.618,2.402,0.271,3.02-0.776  C82.367,21.539,82.018,20.184,80.971,19.564z M79.316,22.365c-0.496-0.295-0.661-0.936-0.368-1.432  c0.293-0.499,0.934-0.662,1.431-0.367c0.497,0.291,0.663,0.932,0.37,1.43C80.454,22.492,79.813,22.658,79.316,22.365z   M74.622,15.814c-1.047-0.619-2.403-0.27-3.023,0.778c-0.618,1.047-0.269,2.4,0.779,3.021c1.046,0.617,2.402,0.271,3.021-0.777  C76.018,17.788,75.669,16.433,74.622,15.814z M72.968,18.614c-0.496-0.293-0.662-0.936-0.369-1.431  c0.295-0.498,0.936-0.662,1.431-0.368c0.496,0.293,0.665,0.934,0.369,1.432C74.105,18.744,73.463,18.906,72.968,18.614z   M64.952,31.776c-3.85-2.274-8.833-0.992-11.106,2.856c-2.272,3.848-0.991,8.833,2.859,11.105c3.85,2.274,8.833,0.99,11.106-2.857  S68.801,34.05,64.952,31.776z M57.296,44.738c-3.298-1.949-4.397-6.217-2.45-9.515c1.949-3.299,6.218-4.396,9.516-2.447  c3.299,1.947,4.397,6.215,2.449,9.515C64.863,45.589,60.596,46.687,57.296,44.738z"/>
</svg>