<svg xmlns="http://www.w3.org/2000/svg" xmlns:xlink="http://www.w3.org/1999/xlink" version="1.1" id="Layer_1" x="0px" y="0px" width="100px" height="100px" viewBox="0 0 100 100" enable-background="new 0 0 100 100" xml:space="preserve">
<path stroke="#000000" stroke-width="0" stroke-linecap="round" stroke-linejoin="round" stroke-miterlimit="10" d="M93.86,3.004  L54.537,24.108l-0.222-0.407l-3.182-1.083l-8.825,4.736l-0.854,3.25l0.215,0.41L7.577,49.312v3.912L43.3,34.051l0.222,0.406  l3.181,1.084l2.178-1.169v19.781H38.041c-2.722,0-4.929,2.208-4.929,4.931v32.981c0,2.724,2.207,4.93,4.929,4.931h12.676h0.002  h12.678c2.722-0.001,4.929-2.207,4.929-4.931V59.084c0-2.723-2.207-4.931-4.929-4.931H52.599V32.378l2.929-1.572l0.856-3.25  l-0.217-0.41L93.86,6.917V3.004z M58.93,58.263c1.591-0.046,2.917,1.204,2.968,2.793v14.366c-0.051,1.589-1.377,2.839-2.968,2.794  h-8.211h-8.212c-1.59,0.045-2.916-1.205-2.966-2.794V61.056c0.05-1.589,1.376-2.839,2.966-2.793h8.211h0.001H58.93z"/>
</svg>