<?xml version="1.0" encoding="utf-8"?>
<!-- Generator: Adobe Illustrator 14.0.0, SVG Export Plug-In . SVG Version: 6.00 Build 43363)  -->
<!DOCTYPE svg PUBLIC "-//W3C//DTD SVG 1.0//EN" "http://www.w3.org/TR/2001/REC-SVG-20010904/DTD/svg10.dtd">
<svg version="1.0" id="Layer_1" xmlns="http://www.w3.org/2000/svg" xmlns:xlink="http://www.w3.org/1999/xlink" x="0px" y="0px"
	 width="100px" height="31.52px" viewBox="0 0 100 31.52" enable-background="new 0 0 100 31.52" xml:space="preserve">
<path fill-rule="evenodd" clip-rule="evenodd" d="M80.56,17.812c3.772,0,6.851,3.082,6.851,6.855s-3.078,6.853-6.851,6.853
	c-3.774,0-6.852-3.079-6.852-6.853S76.785,17.812,80.56,17.812"/>
<path fill-rule="evenodd" clip-rule="evenodd" d="M20.897,14.729c3.773,0,6.853,3.075,6.853,6.85c0,3.773-3.08,6.854-6.853,6.854
	c-3.774,0-6.853-3.08-6.853-6.854C14.044,17.805,17.123,14.729,20.897,14.729"/>
<g>
	<path fill-rule="evenodd" clip-rule="evenodd" d="M20.897,12.443c3.568,0,6.853,2.07,8.339,5.287l7.285-2.025L56.515,2.364h6.443
		l6.355,10.075h-8.531v13.073l10.693-0.031c-0.368-5.333,3.571-9.951,9.084-9.951c5.854,0,9.13,4.603,9.098,9.984L100,25.479V12.471
		l-11.84-0.01L64.742,0h-9.384l-0.047,1.801l-18.91,12.453v-1.086l-3.429,1.181L30.176,5.86l-9.613,2.166l-9.119-6.52L0,3.261v1.508
		l10.923-1.477l4.267,5.97L0,11.897v12.332l11.804-1.846C11.593,17.053,15.284,12.443,20.897,12.443z M82.568,12.439H71.674
		l-6.263-9.441L82.568,12.439z"/>
</g>
</svg>
