<svg xmlns="http://www.w3.org/2000/svg" xmlns:xlink="http://www.w3.org/1999/xlink" version="1.0" id="Layer_1" x="0px" y="0px" width="100px" height="100px" viewBox="0 0 100 100" enable-background="new 0 0 100 100" xml:space="preserve">
<g>
	<path d="M79.727,69.465l-2.813-0.001l15.094-14.757l-17.853-2.566c0.818-2.455,1.269-5.078,1.269-7.808   c0-13.623-11.045-24.667-24.667-24.667c-13.624,0-24.667,11.043-24.667,24.667c0,2.827,0.482,5.541,1.357,8.069l-1.462,0.009   l-16.479,2.42l15.034,14.611l-1.378-0.001c-8.935,0-16.202,3.641-21.233,9.557l97.654,0.072   C94.693,73.566,88.861,69.465,79.727,69.465z M56.751,63.167l-0.084-5.084h1.492h0.424C58.583,58.083,58.167,61.083,56.751,63.167z    M45.333,63.167c-1.416-2.084-1.833-5.084-1.833-5.084h1.493h0.424L45.333,63.167z"/>
	<path fill="#000000" d="M43.5,58.083c0,0,0.417,3,1.833,5.084l0.084-5.084h-0.424H43.5z"/>
	<path fill="#000000" d="M56.667,58.083l0.084,5.084c1.416-2.084,1.832-5.084,1.832-5.084h-0.424H56.667z"/>
</g>
</svg>