<svg xmlns="http://www.w3.org/2000/svg" xmlns:xlink="http://www.w3.org/1999/xlink" version="1.1" id="Calque_1" x="0px" y="0px" width="100px" height="100px" viewBox="0 0 100 100" enable-background="new 0 0 100 100" xml:space="preserve">
<path d="M77.277,42.076c2.932-2.932,21.205-20.891,21.205-20.891L78.151,0.852c0,0-18.081,17.763-21.209,20.889  c-3.126,3.128-8.638,1.137-8.638,1.137L2.252,68.928l1.161,1.163l-1.798,1.798l0.004,0.004c-0.008,0.007-0.019,0.01-0.027,0.019  c-0.789,0.789-0.789,2.068,0,2.859l22.973,22.972c0.789,0.789,2.069,0.791,2.859,0c0.007-0.007,0.01-0.02,0.018-0.026l0.005,0.004  l1.798-1.798l1.161,1.159l46.053-46.05C76.458,51.031,74.346,45.008,77.277,42.076z M26.99,72.345  c-1.98-1.979-1.962-5.205,0.038-7.205c1.755-1.755,4.453-1.982,6.425-0.68l2.506-2.504c0.484-0.506,0.76-1.192,0.836-1.849  c0,0-0.204-9.335-0.206-9.366c-0.002-0.074,0-0.035,0,0c0.028-1.264,0.52-2.809,1.49-3.779l3.584-3.583  c-0.54-1.13-0.347-2.53,0.6-3.476c1.196-1.195,3.129-1.208,4.315-0.023c1.186,1.186,1.174,3.121-0.021,4.316  c-0.948,0.946-2.345,1.141-3.477,0.599c-0.438,0.438-1.624,1.626-3.624,3.626c-0.483,0.505-0.759,1.193-0.836,1.848l0.194,8.827  l22.167-22.167l-1.767-1.767l6.815-1.86l-1.86,6.815L62.4,38.349L45.653,55.094l8.831,0.195c0.657-0.075,1.344-0.353,1.849-0.838  c2.585-2.585,3.496-3.491,3.496-3.491l-1.437-1.437l4.338-4.338l4.292,4.292l-4.338,4.337l-1.439-1.438l-3.452,3.452  c-0.971,0.971-2.514,1.463-3.781,1.493c-0.028-0.001-9.363-0.21-9.363-0.21c-0.656,0.077-1.341,0.354-1.847,0.834l-5.448,5.448  c-0.007,0.007-0.014,0.014-0.021,0.021l-2.463,2.463c1.307,1.975,1.08,4.673-0.675,6.426C32.194,74.308,28.967,74.323,26.99,72.345z   M26.284,96.505L26.284,96.505c-0.005,0.003-0.006,0.005-0.011,0.013c-0.372,0.369-0.895,0.45-1.168,0.175l-7.972-7.971  c-0.274-0.275-0.195-0.799,0.176-1.169c0.005-0.005,0.009-0.007,0.013-0.011l-0.002-0.002l1.772-1.771l8.964,8.963L26.284,96.505z"/>
</svg>