<svg xmlns="http://www.w3.org/2000/svg" xmlns:xlink="http://www.w3.org/1999/xlink" version="1.1" id="Calque_1" x="0px" y="0px" width="100px" height="100px" viewBox="0 0 100 100" enable-background="new 0 0 100 100" xml:space="preserve">
<path d="M75.102,22.812c0.303,0.302,0.303,0.793,0,1.096l-3.087,3.087c-0.303,0.303-0.794,0.302-1.096,0l-4.673-4.673  c-0.303-0.302-0.303-0.792,0-1.095l3.088-3.088c0.302-0.302,0.793-0.302,1.096,0L75.102,22.812z"/>
<path d="M79.846,18.069c0.301,0.303,0.303,0.793,0,1.095l-3.089,3.088c-0.303,0.302-0.792,0.302-1.095,0l-4.673-4.673  c-0.302-0.303-0.302-0.792,0-1.095l3.088-3.088c0.302-0.302,0.792-0.302,1.095,0L79.846,18.069z"/>
<path d="M85.57,6.673l-4.727,0.42c-0.141-0.022-0.283-0.019-0.416,0.037l-0.094,0.008c-0.014,0.016-0.014,0.044-0.023,0.068  c-0.045,0.029-0.094,0.05-0.134,0.09l-2.544,4.59c-0.019,0.019-0.025,0.042-0.041,0.062l-1.871-0.196  c-0.303,0.303-0.303,0.793,0,1.095l4.672,4.673c0.302,0.302,0.793,0.303,1.096,0l-0.197-1.872c0.021-0.015,0.045-0.022,0.063-0.041  l4.59-2.543c0.04-0.041,0.062-0.09,0.091-0.136c0.022-0.007,0.051-0.007,0.068-0.022l0.006-0.093  c0.058-0.133,0.061-0.276,0.039-0.417l0.42-4.726c0.02-0.021-0.006-0.08-0.057-0.132l-0.809-0.809  C85.649,6.678,85.59,6.652,85.57,6.673z"/>
<path d="M64.68,22.794l-3.088,3.087c-0.011,0.012-0.016,0.026-0.024,0.038c-0.236-0.231-1.616-0.136-1.903-0.104l-0.384-0.384  L44.77,39.942l0,0c-1.108,1.109-1.108,2.907,0.001,4.016l4.513,4.513c1.109,1.108,2.906,1.108,4.016,0.002l0,0l14.51-14.512  l-0.383-0.384c0.032-0.286,0.127-1.667-0.104-1.902c0.012-0.01,0.025-0.014,0.038-0.025l3.087-3.087  c0.303-0.303,0.303-0.793,0-1.095l-4.672-4.673C65.473,22.491,64.982,22.491,64.68,22.794z"/>
<path d="M50.093,44.535c1.209,1.209,1.545,2.835,0.75,3.631l-16.161,16.16c-0.795,0.796-3.184,1.224-4.394,0.014l-0.981-0.981  c-1.21-1.21-0.782-3.599,0.014-4.396l16.159-16.16c0.796-0.795,2.422-0.459,3.632,0.75L50.093,44.535z"/>
<path fill="none" stroke="#000000" stroke-width="6" stroke-miterlimit="10" d="M31.714,61.932c0,0-1.917,1.916-9.377,9.378  c-7.461,7.461-5.02,12.504-0.502,15.652c7.735,6.229,16.085-14.58,24.847-2.122"/>
</svg>