<svg xmlns="http://www.w3.org/2000/svg" xmlns:xlink="http://www.w3.org/1999/xlink" version="1.1" id="Camada_1" x="0px" y="0px" width="85.046728972px" height="100px" viewBox="0 0 182.119 214.785" enable-background="new 0 0 182.119 214.785" xml:space="preserve">
<path d="M181.058,95.585c-3.341-36.954-13.9-59.753-31.461-67.797c-1.86-0.79-4.086-1.544-6.441-2.343  c-5.246-1.779-11.775-3.992-14.542-6.946c-0.637-0.681-1.813-3.462-2.673-5.493c-2.031-4.8-3.412-7.818-5.468-9.251  C116.021,0.651,109.174,0,104.212,0C93.675,0,82.361,2.78,76.698,6.762c-2.345,1.648-3.122,4.85-3.944,8.239  c-0.382,1.578-1.017,4.194-1.607,4.831C46.054,30.448,37.985,51.159,38.75,61.915c-1.826,32.493-13.672,53.533-24.126,72.1  C7.798,146.139,1.902,156.61,0.125,168.09L0,168.901l0.305,0.762c0.178,0.444,0.391,0.875,0.62,1.299  c0.005,0.009,0.01,0.018,0.015,0.026c0.941,1.729,2.308,3.288,4.033,4.628c4.939,4.03,12.66,6.726,20.492,6.726  c7.319,0,14.111-2.229,19.862-6.42c-0.451,1.278-0.907,2.562-1.341,3.781c-4.087,11.499-6.851,19.468-7.192,22.885  c-0.022,0.214-0.035,0.414-0.037,0.596l-0.02,1.898l1.707,0.831c12.256,5.97,28.818,8.871,50.632,8.871  c12.592,0,25.218-0.929,36.356-1.748l3.569-0.262l0.818-1.087c3.304-4.385,2.982-11.671,2.643-19.386  c-0.028-0.636-0.057-1.275-0.083-1.916c0.596,1.07,1.196,2.173,1.792,3.267c5.355,9.84,8.886,15.871,13.772,15.871h0.001  c0.848,0,1.663-0.199,2.428-0.592c1.059-0.469,1.884-1.37,2.34-2.567c1.893-4.97-2.619-18.014-6.114-25.973  c1.314,0.208,2.779,0.492,4.287,0.785c3.941,0.765,8.409,1.632,12.579,1.632c7.84,0,12.722-3.175,14.511-9.436l0.07-0.309  C181.328,154.229,183.532,122.967,181.058,95.585z M112.099,6.759c-4.106,7.507-11.028,14.196-17.753,20.688  c-4.384,4.231-8.572,8.274-11.784,12.367c-2.061-7.252-2.046-21.493-0.715-29.161C86.983,7.941,96.079,6,104.212,6  C107.182,6,109.86,6.269,112.099,6.759z M19.853,136.958c10.262-18.226,23.033-40.909,24.899-74.911l0.011-0.207l-0.017-0.207  c-0.635-7.621,5.58-26.525,28.841-36.319c1.607-0.677,2.637-2.004,3.381-3.633c-0.148,8.251,0.614,17.379,2.831,22.136  c-3.513,5.656-9.933,11.085-15.636,15.904c-3.372,2.849-6.557,5.539-8.986,8.114c-7.83,8.296-5.779,23.657-3.795,38.511  c1.072,8.031,2.085,15.617,1.39,21.293l0.076,0.009c-1.18,6.298-2.53,12.53-1.09,16.4c0.568,1.528,2.236,3.587,1.833,5.167  c-7.333,6.833-22,14-28,17.212c-0.117,2.758,0.561,5.591,1.55,7.915c-5.523,0.813-9.71,0.105-11.598-0.351  c-2.962-0.715-5.501-1.944-7.287-3.455c-0.043-0.039-0.092-0.076-0.135-0.115c-0.039-0.034-0.075-0.069-0.113-0.104  c-0.298-0.279-0.566-0.56-0.814-0.843c1.268-0.674,4.708-1.808,12.167-0.299l0.793-3.921c-6.689-1.353-10.852-0.807-13.35,0.063  C9.028,156.203,14.089,147.195,19.853,136.958z M125.635,207.005l-0.644,0.048c-11.036,0.812-23.544,1.731-35.916,1.731  c-19.666,0-34.736-2.398-45.963-7.321c0.975-3.583,3.749-10.938,5.708-16.13c4.801-12.728,6.547-17.63,6.188-20.081  c3.776-3.103,7.313-5.807,10.248-6.953c7.667,8.128,9.833-3.417,20.5-1c12.467,4.792,30.351,17.071,40.78,21.776l-0.103,1.222  c-0.334,3.963-0.147,8.185,0.033,12.268C126.714,198.153,126.968,203.908,125.635,207.005z M147.22,203.01  c-2.181-1.939-5.747-8.491-7.779-12.225c-2.74-5.035-5.328-9.791-7.896-12.357l-1.77-1.77c1.641-2.44,3.288-4.738,4.481-10.109  c-7.852-3.038-23.333-7.667-28.5-16c10.62-1.427,18.23-4.658,27.981-6.262c0.436,4.279,1.059,8.746,1.676,13.158  c0.941,6.728,1.829,13.081,1.842,17.674l-0.032,0.007l0.033,0.063c0,0.009,0.001,0.019,0.001,0.028h0.015l1.843,3.422  C143.348,186.498,147.092,198.635,147.22,203.01z M172.163,171.87c-0.739,2.466-2.399,4.939-8.699,4.939  c-3.593,0-7.76-0.809-11.436-1.522c-2.569-0.499-4.865-0.941-6.877-1.124c2.963-2.38,9.4-5.434,20.993-1.709l1.225-3.808  c-15.295-4.918-23.211,0.671-26.204,3.756c-0.248-4.453-0.996-9.845-1.789-15.512c-1.432-10.228-3.052-21.803-1.71-29.014  c7.077-13.933,3.745-35.956,0.803-55.402c-1.395-9.219-2.712-17.926-2.712-24.591h-4c0,6.966,1.339,15.818,2.757,25.19  c2.869,18.964,6.121,40.459-0.53,53.219l-0.132,0.253l-0.056,0.28c-0.144,0.718-0.252,1.478-0.345,2.255  c-8.837,0.616-34.665,10.458-53.941,12.408c-8.753-5.271-9.725,0.479-13.468-0.422c-6.177-1.487-9.92-5.338-9.298-12.956  c0.753-6.183-0.291-14.008-1.397-22.293c-1.859-13.926-3.782-28.327,2.74-35.237c2.274-2.41,5.375-5.03,8.659-7.804  c6.235-5.269,13.296-11.237,17.027-17.81c3.101-4.746,8.08-9.553,13.352-14.642c7.131-6.883,14.471-13.984,18.823-22.289  c0.395,0.197,0.757,0.405,1.075,0.627c0.865,0.707,2.448,4.447,3.394,6.682c1.315,3.109,2.452,5.795,3.819,7.255  c3.794,4.053,10.807,6.43,16.994,8.528c2.247,0.762,4.369,1.481,5.945,2.149c19.164,8.78,25.754,39.023,27.907,62.849  C177.843,126.67,174.56,158.02,172.163,171.87z"/>
</svg>