<svg xmlns="http://www.w3.org/2000/svg" xmlns:xlink="http://www.w3.org/1999/xlink" version="1.1" id="Layer_1" x="0px" y="0px" width="92.125px" height="74.625px" viewBox="3.5 12 92.125 74.625" enable-background="new 3.5 12 92.125 74.625" xml:space="preserve">
<path d="M93.328,12.5H72.86c-1.469,0-1.405,1.406-1.405,1.406l0.029,14.156c0,0,0.062,1.405-1.406,1.405L55.923,29.5  c-1.47,0-1.406,1.406-1.406,1.406L54.547,45c0,0,0.062,1.406-1.406,1.406L38.86,46.438c-1.469,0-1.406,1.405-1.406,1.405  l0.031,14.094c0,0,0.062,1.406-1.406,1.406l-14.156,0.031c-1.469,0-1.405,1.406-1.405,1.406l0.03,14.094c0,0,0.05,1.336-1.32,1.396  H5.424c-0.027,0-0.047,0.009-0.072,0.011c-0.09,0.003-0.16,0.02-0.238,0.031H4.986l0.038,0.012  c-0.989,0.187-0.959,1.015-0.959,1.015v3.795c0,1.473,1.362,1.409,1.362,1.409h19.828c0.027,0,0.047-0.009,0.072-0.011  c0.018-0.001,0.03-0.005,0.047-0.006l0.017,0.005c1.469,0,1.406-1.406,1.406-1.406l0.018-14.123c0,0-0.062-1.405,1.406-1.405  l14.106-0.003c1.47,0,1.406-1.405,1.406-1.405l0.019-14.124c0,0-0.062-1.404,1.405-1.404l14.233-0.002  c1.469,0,1.406-1.406,1.406-1.406l-0.045-14.124c0,0-0.062-1.405,1.405-1.405l14.17-0.002c1.47,0,1.406-1.406,1.406-1.406  l-0.045-14.187c0,0-0.062-1.405,1.406-1.405l14.232,0.027c1.47,0,1.407-1.062,1.407-1.062v-3.78  C94.734,12.438,93.328,12.5,93.328,12.5z"/>
</svg>