<svg xmlns="http://www.w3.org/2000/svg" xmlns:xlink="http://www.w3.org/1999/xlink" version="1.1" id="Layer_1" x="0px" y="0px" width="100px" height="100px" viewBox="0 0 100 100" enable-background="new 0 0 100 100" xml:space="preserve">
<path d="M16.129,45.774c22.488,0,3.38-37.293,33.954-37.293c30.573,0,11.328,37.293,33.952,37.293c0.264,0,0.396,0.135,0.459,0.302  C84.203,18.604,65.365,5.27,50.166,5.27c-0.037,0-0.083,0-0.083,0s-0.047,0-0.084,0c-15.2,0-34.037,13.334-34.329,40.807  C15.734,45.91,15.866,45.774,16.129,45.774z"/>
<path d="M15.657,46.716c0-0.216,0.011-0.424,0.013-0.639C15.563,46.361,15.657,46.739,15.657,46.716z"/>
<path d="M84.494,46.077c0.003,0.215,0.014,0.423,0.014,0.639C84.508,46.739,84.602,46.361,84.494,46.077z"/>
<path d="M33.409,44.113c1.529-0.804,3.652-1.218,5.696-1.216c1.625-0.001,3.203,0.259,4.38,0.727  c1.194,0.469,1.902,1.126,2.067,1.762l1.461-0.409c-0.391-1.341-1.566-2.205-2.971-2.764c-1.42-0.56-3.154-0.832-4.938-0.833  c-2.242,0.003-4.56,0.431-6.399,1.389c-1.827,0.937-3.248,2.545-3.24,4.732h1.517C30.991,46.011,31.868,44.938,33.409,44.113z"/>
<path d="M56.68,43.625c1.178-0.468,2.756-0.728,4.38-0.727c2.045-0.002,4.168,0.412,5.697,1.216  c1.541,0.825,2.417,1.898,2.426,3.388h1.517c0.008-2.188-1.413-3.796-3.24-4.732c-1.839-0.958-4.156-1.385-6.399-1.389  c-1.784,0.001-3.518,0.274-4.938,0.833c-1.404,0.559-2.58,1.423-2.971,2.764l1.462,0.409C54.777,44.75,55.485,44.093,56.68,43.625z"/>
<path d="M66.9,71.109c-3.646,0-4.586-3.164-9.883-4.736c0.2-0.137,0.404-0.271,0.569-0.43c0.397-0.426,0.438-0.884,0.448-1.303  c-0.007-0.777-0.255-1.623-0.62-2.37c-0.188-0.371-0.402-0.712-0.678-1c-0.272-0.276-0.634-0.56-1.178-0.571  c-0.444,0-0.804,0.359-0.804,0.803c0,0.422,0.325,0.768,0.739,0.801c0.099,0.07,0.397,0.44,0.579,0.894  c0.22,0.495,0.36,1.098,0.354,1.444c0.001,0.098-0.009,0.172-0.018,0.207c-0.396,0.386-1.312,0.791-2.255,0.921  c-1.184-0.165-2.526-0.261-4.073-0.261c-1.29,0-2.435,0.076-3.469,0.205c-0.153-0.025-0.313-0.043-0.482-0.044  c-0.791,0.003-1.327-0.146-1.577-0.312c-0.24-0.178-0.303-0.271-0.324-0.64c-0.001-0.383-0.032-0.715-0.031-0.986  c0.001-0.348,0.039-0.584,0.164-0.821c0.125-0.235,0.37-0.522,0.939-0.866c0.38-0.227,0.503-0.721,0.276-1.1  c-0.229-0.381-0.721-0.505-1.101-0.276c-0.737,0.439-1.239,0.935-1.533,1.487c-0.296,0.554-0.352,1.114-0.352,1.576  c0.001,0.374,0.032,0.701,0.032,0.986c-0.017,0.635,0.247,1.251,0.689,1.686c-5.128,1.581-6.426,4.706-10.05,4.706  c-8.921,0-17.607-24.394-17.607-24.394s-0.573,13.688,2.344,20.339c8.716,19.876,13.297,17.495,16.334,21.718  c4.748,6.602,12.577,6.705,15.748,6.705c3.169,0,10.999-0.104,15.747-6.705c3.037-4.223,8.829-4.46,16.334-21.718  c2.594-5.965,2.344-20.339,2.344-20.339S78.406,71.109,66.9,71.109z M50.082,78.424c-6.55,0-11.86-1.725-11.86-3.852  s5.31-3.851,11.86-3.851c6.551,0,11.86,1.724,11.86,3.851S56.633,78.424,50.082,78.424z"/>
<path d="M60.028,46.754c-3.005,0-3.836,1.605-3.836,3.39c0,0.936,2.437,0,5.442,0c3.005,0,5.441,0,5.441,0  C67.076,49.208,63.034,46.754,60.028,46.754z"/>
<path d="M40.254,46.754c-3.006,0-7.048,2.454-7.048,3.39c0,0,2.437,0,5.442,0c3.005,0,5.441,0.936,5.441,0  C44.09,48.359,43.259,46.754,40.254,46.754z"/>
</svg>