<svg xmlns="http://www.w3.org/2000/svg" xmlns:xlink="http://www.w3.org/1999/xlink" version="1.1" id="Layer_1" x="0px" y="0px" width="100px" height="100px" viewBox="0 0 100 100" enable-background="new 0 0 100 100" xml:space="preserve">
<g>
	<polygon points="95.838,53.509 93.65,53.509 93.65,31.978 95.838,31.978  "/>
</g>
<g>
	<polygon points="100,53.509 97.814,53.509 97.814,31.978 100,31.978  "/>
</g>
<path d="M64.713,50.98c-3.513-0.743-6.161-4.058-6.161-8.04c0-3.933,2.587-7.215,6.036-8.01c0.161-1.045,0.36-2.085,0.587-3.12  h-3.161C-0.324,31.812,0,42.744,0,42.744s-0.324,10.932,62.014,10.932h3.23C65.043,52.781,64.865,51.882,64.713,50.98z"/>
<path d="M70.885,31.812c-0.333,1.343-0.623,2.694-0.83,4.056c2.271,1.422,3.799,4.054,3.799,7.074c0,2.973-1.481,5.567-3.69,7.004  c0.209,1.252,0.487,2.496,0.802,3.73h20.213V31.812H70.885z"/>
</svg>