<svg xmlns="http://www.w3.org/2000/svg" xmlns:xlink="http://www.w3.org/1999/xlink" version="1.1" id="Layer_1" x="0px" y="0px" width="100px" height="100px" viewBox="0 0 100 100" enable-background="new 0 0 100 100" xml:space="preserve">
<g>
	<path fill="none" d="M81.633,61.989l2.663-2.663C83.258,59.766,82.158,60.56,81.633,61.989z"/>
	
		<rect x="35.945" y="58.648" transform="matrix(0.7069 0.7074 -0.7074 0.7069 54.416 -10.1047)" fill="none" width="6.908" height="3.905"/>
	<path d="M83.238,41.068L43.415,80.896c-0.66,0.657,0.392,3.111,2.556,5.275c2.117,2.116,4.499,3.158,5.22,2.585l2.367,2.369   c0.142,0.143,0.333,0.222,0.531,0.222s0.39-0.079,0.529-0.222l32.566-32.567c0.219-0.217,0.281-0.544,0.16-0.827   c-0.119-0.281-0.411-0.462-0.707-0.456c-1.842,0.046-5.585,1.086-6.58,4.7c-0.11,0.4,0.124,0.813,0.525,0.925   c0.036,0.01,0.077,0.018,0.114,0.021l-26.61,26.612l-1.825-1.821l38.807-38.809L83.238,41.068z M84.296,59.326l-2.663,2.663   C82.158,60.56,83.258,59.766,84.296,59.326z"/>
	<path d="M98.092,1.907c-1.759-1.759-3.951-2.421-4.895-1.477L34.832,58.796L8.661,84.968l-0.373,0.37l-0.37,0.374l0.359,0.355   l-0.765,0.767l2.243,2.242l-0.569,0.569L7.28,87.74l-0.579,0.905l1.742,1.742l-0.569,0.571l-1.619-1.617l-0.579,0.903l1.456,1.456   l-0.57,0.568L5.234,90.94l-0.582,0.907l1.166,1.165l-0.571,0.57l-1.04-1.041l-0.58,0.908l0.877,0.877l-0.569,0.566l-0.752-0.751   l-1.204,1.885l0.412,0.411L1.081,97.75l0.425,0.425L0,99.681L0.319,100l1.506-1.507l0.424,0.426l1.31-1.312l0.383,0.385   l1.861-1.229l-0.701-0.697l0.57-0.57l0.815,0.816l0.894-0.593l-0.967-0.966l0.57-0.571l1.083,1.083l0.894-0.591l-1.232-1.232   l0.568-0.568l1.351,1.35l0.896-0.591l-1.502-1.507l0.57-0.568l1.619,1.618l0.894-0.591l-1.771-1.771l0.568-0.57l2.069,2.068   l0.764-0.765l0.535,0.536l0.372-0.372l0.37-0.372L41.203,65.17L99.569,6.803C100.513,5.859,99.852,3.667,98.092,1.907z    M40.459,64.425l-4.884-4.887l2.76-2.76l4.883,4.884L40.459,64.425z"/>
</g>
</svg>