<svg xmlns="http://www.w3.org/2000/svg" xmlns:xlink="http://www.w3.org/1999/xlink" version="1.1" id="Layer_1" x="0px" y="0px" width="100px" height="100px" viewBox="0 0 100 100" enable-background="new 0 0 100 100" xml:space="preserve">
<g>
	<path fill="none" d="M63.685,26.905l-2.444,2.442C62.193,28.945,63.2,28.216,63.685,26.905z"/>
	<path d="M96.368,4.742c-1.938-1.94-4.122-2.894-4.783-2.369l-2.172-2.172c-0.269-0.268-0.703-0.268-0.973,0L58.589,30.051   c-0.197,0.201-0.258,0.501-0.146,0.759c0.108,0.259,0.366,0.426,0.648,0.418c1.687-0.042,5.117-0.996,6.03-4.308   c0.104-0.366-0.113-0.748-0.479-0.847c-0.036-0.011-0.071-0.017-0.107-0.021L88.926,1.661l1.673,1.673L55.029,38.901l0.669,0.67   L1.311,93.96c-0.606,0.604,0.212,2.402,1.823,4.016c1.614,1.611,3.411,2.43,4.016,1.825l54.389-54.389l0.67,0.67L98.71,9.579   C99.315,8.973,98.353,6.725,96.368,4.742z M61.24,29.348l2.444-2.442C63.2,28.216,62.193,28.945,61.24,29.348z"/>
</g>
</svg>