<svg xmlns="http://www.w3.org/2000/svg" xmlns:xlink="http://www.w3.org/1999/xlink" version="1.1" id="Calque_1" x="0px" y="0px" width="100px" height="100px" viewBox="0 0 100 100" enable-background="new 0 0 100 100" xml:space="preserve">
<path d="M99.18,23.38c-0.852-4.302-13.205-15.039-52.803-7.578C6.78,23.262-0.194,38.547,0.655,42.848  c0.851,4.301,9.952,18.289,55.096,8.916C100.896,42.391,100.027,27.681,99.18,23.38z M53.229,43.248  c-38.191,7.811-45.1-0.024-45.595-2.53c-0.496-2.507,6.096-11.913,39.559-18.313c33.461-6.399,43.247-0.654,43.743,1.853  C91.432,26.763,91.42,35.438,53.229,43.248z"/>
<path d="M19.597,63.051c0,0,7.46,6.121,25.06,6.121c17.6,0,23.719-6.888,23.719-6.888s5.166,11.478-22.38,11.478  C24.38,73.762,19.597,63.051,19.597,63.051z"/>
<path d="M25.336,71.659c0,0,7.077,6.12,19.32,6.12c8.418,0,9.564-1.339,9.564-1.339s-1.531,5.165-12.244,5.165  C31.266,81.605,25.336,74.145,25.336,71.659z"/>
<path d="M28.014,79.309c0,0,4.017,6.312,14.155,5.355c0,0-4.69,4.008-10.139,0.957C27.249,82.943,28.014,79.309,28.014,79.309z"/>
<path d="M79.712,46.561c-3.858,7.757-31.344,12.65-45.748,12.527c-13.772-0.119-23.302-4.217-23.302-4.217s4.704,9.223,30.526,9.444  c25.824,0.222,47.716-9.729,47.789-17.955c0.008-1.238-0.391-2.362-1.093-3.393C85.531,44.179,82.82,45.382,79.712,46.561z"/>
<path d="M56.367,34.411c-15.686-0.135-32.571,5.842-32.571,5.842c12.475-3.883,30.863-3.889,43.222-1.73  c2.646-0.796,4.928-1.588,6.879-2.367C68.544,35.027,62.366,34.464,56.367,34.411z"/>
</svg>