<?xml version="1.0" encoding="utf-8"?>
<!-- Generator: Adobe Illustrator 15.1.0, SVG Export Plug-In . SVG Version: 6.00 Build 0)  -->
<!DOCTYPE svg PUBLIC "-//W3C//DTD SVG 1.1//EN" "http://www.w3.org/Graphics/SVG/1.1/DTD/svg11.dtd">
<svg version="1.1" id="Layer_1" xmlns="http://www.w3.org/2000/svg" xmlns:xlink="http://www.w3.org/1999/xlink" x="0px" y="0px"
	 width="100px" height="100px" viewBox="0 0 100 100" enable-background="new 0 0 100 100" xml:space="preserve">
<path d="M12.486,75.186L0,97.394l1.305,1.304L2.607,100l22.209-12.485l2.318,2.319L100,16.968c-0.062-0.457-0.16-1.006-0.305-1.625
	c-0.592-2.537-2.001-6.243-5.398-9.64c-3.396-3.397-7.102-4.807-9.639-5.397C84.039,0.162,83.49,0.063,83.033,0L10.168,72.865
	L12.486,75.186z M82.684,6.006c1.59,0.277,4.589,1.155,7.373,3.939c2.789,2.789,3.664,5.793,3.939,7.371l-7.215,7.216
	c-0.845-2.115-2.223-4.531-4.502-6.81c-2.279-2.278-4.695-3.656-6.81-4.502L82.684,6.006z M66.423,22.267
	c1.589,0.277,4.589,1.155,7.372,3.938c2.79,2.79,3.665,5.793,3.942,7.371l-3.843,3.843c-3.477-0.066-9.859,3.743-15.883,9.767
	c-6.021,6.023-9.832,12.406-9.766,15.88l-3.884,3.884c-0.845-2.114-2.224-4.531-4.502-6.81s-4.695-3.656-6.81-4.502L66.423,22.267z
	 M24.005,64.686c1.589,0.277,4.589,1.155,7.372,3.939c2.789,2.789,3.665,5.793,3.941,7.37l-6.509,6.509
	c-0.846-2.115-2.224-4.531-4.502-6.811c-2.278-2.277-4.695-3.656-6.81-4.501L24.005,64.686z"/>
</svg>
