<svg xmlns="http://www.w3.org/2000/svg" xmlns:xlink="http://www.w3.org/1999/xlink" version="1.1" id="&#1057;&#1083;&#1086;&#1081;_1" x="0px" y="0px" width="100px" height="96.4285714286px" viewBox="208 199.862 112 108" enable-background="new 208 199.862 112 108" xml:space="preserve">
<path d="M313.017,295.231l-44.325-44.324l1.923-1.923l-21.533-21.533l0,0l-5.181-5.182l6.548-6.547l-2.381-0.458l-7.326,4.487  l-1.603,1.603l-1.488-1.488l1.603-1.603l4.487-7.326l-0.458-2.381l-6.547,6.548l-2.839-2.839l-1.923,1.923l-0.709,0.709  l-5.519,5.518l-0.55,0.549l-3.205,3.205l-8.974,14.652l0.916,4.762l16.94-16.941l7.873,7.873l-16.94,16.941l4.762,0.916  l14.652-8.975l1.465-1.465l12.755,12.754c-0.948,0.947-0.948,2.485,0,3.434c0.948,0.947,2.485,0.947,3.434,0l1.302,1.302l1.74-1.739  l44.325,44.324l2.289-2.29l3.236,3.235l1.188-1.19l-3.234-3.234L313.017,295.231z"/>
</svg>