<svg xmlns="http://www.w3.org/2000/svg" xmlns:xlink="http://www.w3.org/1999/xlink" version="1.1" id="Layer_1" x="0px" y="0px" width="100px" height="100px" viewBox="0 0 100 100" enable-background="new 0 0 100 100" xml:space="preserve">
<path fill-rule="evenodd" clip-rule="evenodd" fill="#000000" d="M5.696,45.244c5.276,5.276,13.668,5.54,19.255,0.788l0.157-0.136  c0.453-0.314,1.078-0.27,1.482,0.134l13.69,13.69l13.69,13.689c0.403,0.403,0.448,1.03,0.134,1.483l-0.137,0.156  c-4.751,5.587-4.488,13.979,0.788,19.255c5.553,5.553,14.556,5.553,20.108,0c4.66-4.66,5.41-11.75,2.247-17.191  c5.442,3.161,12.532,2.412,17.192-2.248c5.553-5.552,5.553-14.556,0-20.109c-5.275-5.275-13.668-5.539-19.255-0.787l-0.156,0.136  c-0.453,0.315-1.079,0.271-1.482-0.133L59.72,40.28L46.03,26.59c-0.404-0.404-0.448-1.029-0.134-1.482l0.136-0.157  c4.751-5.587,4.488-13.979-0.788-19.255c-5.553-5.553-14.556-5.553-20.109,0c-4.66,4.66-5.409,11.75-2.248,17.192  c-5.44-3.162-12.531-2.413-17.191,2.247C0.144,30.688,0.144,39.691,5.696,45.244z"/>
</svg>