<svg xmlns="http://www.w3.org/2000/svg" xmlns:xlink="http://www.w3.org/1999/xlink" version="1.1" id="&#1057;&#1083;&#1086;&#1081;_1" x="0px" y="0px" width="100px" height="64px" viewBox="0 0 100 64" enable-background="new 0 0 100 64" xml:space="preserve">
<g>
	<polygon points="72.36,20.746 71.253,22.666 72.36,24.585 74.577,24.585 75.686,22.666 74.577,20.746  "/>
	<polygon points="72.36,43.543 71.253,45.462 72.36,47.381 74.577,47.381 75.686,45.462 74.577,43.543  "/>
	<polygon points="26.473,43.543 25.365,45.462 26.473,47.381 28.689,47.381 29.797,45.462 28.689,43.543  "/>
	<path d="M87.227,36.877H99.06c0.518,0,0.94-0.417,0.94-0.927s-0.423-0.927-0.94-0.927H87.227c-0.518,0-0.94-0.316-0.94-0.703   c0-0.386,0.423-0.702,0.94-0.702h11.064c0.518,0,0.94-0.417,0.94-0.927s-0.423-0.926-0.94-0.926H87.227   c-0.518,0-0.94-0.316-0.94-0.703c0-0.387,0.423-0.703,0.94-0.703h10.251c0.518,0,0.94-0.417,0.94-0.927   c0-0.509-0.423-0.926-0.94-0.926H87.227c-0.518,0-0.94-0.316-0.94-0.703s0.423-0.703,0.94-0.703h9.074   c0.518,0,0.94-0.417,0.94-0.926c0-0.51-0.423-0.927-0.94-0.927h-9.074c-0.518,0-0.94-0.316-0.94-0.703   c0-0.386,0.423-0.703,0.94-0.703h7.988c0.518,0,0.94-0.417,0.94-0.926c0-0.51-0.423-0.927-0.94-0.927h-7.988   c-0.518,0-0.94-0.316-0.94-0.703s0.423-0.703,0.94-0.703h6.902c0.518,0,0.94-0.417,0.94-0.927s-0.423-0.927-0.94-0.927h-6.902   c-0.518,0-0.94-0.316-0.94-0.702c0-0.387,0.423-0.703,0.94-0.703h5.365c0.518,0,0.94-0.417,0.94-0.927s-0.423-0.927-0.94-0.927   h-5.365c-0.518,0-0.94-0.316-0.94-0.703c0-0.386,0.423-0.702,0.94-0.702h4.399c0.518,0,0.94-0.417,0.94-0.927   s-0.423-0.927-0.94-0.927h-4.399c-0.518,0-0.94-0.305-0.94-0.678s0-0.79,0-0.926s0-0.671,0-1.189V6.372   c0-0.517-0.417-0.94-0.926-0.94c-0.51,0-0.927,0.423-0.927,0.94v3.049c0,0.518-0.353,0.94-0.782,0.94   c-0.431,0-0.783-0.423-0.783-0.94V6.372c0-0.517-0.417-0.94-0.926-0.94c-0.51,0-0.927,0.423-0.927,0.94v3.049   c0,0.518-0.353,0.94-0.782,0.94c-0.431,0-0.783-0.423-0.783-0.94V6.372c0-0.517-0.417-0.94-0.927-0.94s-0.927,0.423-0.927,0.94   v3.049c0,0.518-0.352,0.94-0.782,0.94s-0.782-0.423-0.782-0.94V6.372c0-0.517-0.417-0.94-0.927-0.94s-0.927,0.423-0.927,0.94v3.049   c0,0.518-0.352,0.94-0.782,0.94s-0.782-0.423-0.782-0.94V6.372c0-0.517-0.417-0.94-0.927-0.94s-0.927,0.423-0.927,0.94v3.049   c0,0.518-0.352,0.94-0.782,0.94s-0.782-0.423-0.782-0.94V6.372c0-0.517-0.417-0.94-0.926-0.94c-0.51,0-0.927,0.423-0.927,0.94   v3.049c0,0.518-0.353,0.94-0.782,0.94c-0.431,0-0.783-0.423-0.783-0.94V6.372c0-0.517-0.417-0.94-0.927-0.94   s-0.927,0.423-0.927,0.94v3.049c0,0.518-0.352,0.94-0.782,0.94s-0.782-0.423-0.782-0.94V6.372c0-0.517-0.417-0.94-0.927-0.94   s-0.927,0.423-0.927,0.94v3.049c0,0.518-0.352,0.94-0.782,0.94s-0.782-0.423-0.782-0.94V6.372c0-0.517-0.417-0.94-0.927-0.94   s-0.927,0.423-0.927,0.94v3.049c0,0.518-0.352,0.94-0.782,0.94s-0.782-0.423-0.782-0.94V6.372c0-0.517-0.417-0.94-0.927-0.94   s-0.927,0.423-0.927,0.94v3.049c0,0.518-0.423,0.94-0.94,0.94h-5.607c-0.517,0-0.94-0.423-0.94-0.94V6.372   c0-0.517-0.417-0.94-0.926-0.94c-0.51,0-0.927,0.423-0.927,0.94v3.049c0,0.518-0.352,0.94-0.783,0.94s-0.783-0.423-0.783-0.94   V6.372c0-0.517-0.417-0.94-0.927-0.94c-0.509,0-0.926,0.423-0.926,0.94v3.049c0,0.518-0.352,0.94-0.782,0.94   s-0.782-0.423-0.782-0.94V6.372c0-0.517-0.417-0.94-0.926-0.94c-0.51,0-0.927,0.423-0.927,0.94v3.049   c0,0.518-0.352,0.94-0.782,0.94c-0.431,0-0.783-0.423-0.783-0.94V6.372c0-0.517-0.417-0.94-0.927-0.94s-0.927,0.423-0.927,0.94   v3.049c0,0.518-0.352,0.94-0.783,0.94c-0.43,0-0.782-0.423-0.782-0.94V6.372c0-0.517-0.417-0.94-0.927-0.94   s-0.927,0.423-0.927,0.94v3.049c0,0.518-0.352,0.94-0.782,0.94s-0.782-0.423-0.782-0.94V6.372c0-0.517-0.417-0.94-0.927-0.94   s-0.927,0.423-0.927,0.94v3.049c0,0.518-0.352,0.94-0.782,0.94s-0.782-0.423-0.782-0.94V6.372c0-0.517-0.417-0.94-0.927-0.94   s-0.927,0.423-0.927,0.94v3.049c0,0.518-0.352,0.94-0.782,0.94c-0.431,0-0.783-0.423-0.783-0.94V6.372   c0-0.517-0.417-0.94-0.926-0.94c-0.51,0-0.927,0.423-0.927,0.94v3.049c0,0.518-0.352,0.94-0.782,0.94   c-0.431,0-0.783-0.423-0.783-0.94V6.372c0-0.517-0.417-0.94-0.926-0.94c-0.51,0-0.927,0.423-0.927,0.94v3.049   c0,0.518-0.352,0.94-0.782,0.94c-0.431,0-0.783-0.423-0.783-0.94V6.372c0-0.517-0.417-0.94-0.926-0.94s-0.926,0.423-0.926,0.94   v3.049c0,0.518,0,1.052,0,1.189s0,0.554,0,0.926s-0.423,0.678-0.94,0.678H8.295c-0.518,0-0.94,0.417-0.94,0.927   s0.423,0.927,0.94,0.927h4.333c0.517,0,0.94,0.316,0.94,0.702c0,0.387-0.423,0.703-0.94,0.703H7.34c-0.518,0-0.94,0.417-0.94,0.927   s0.423,0.927,0.94,0.927h5.288c0.517,0,0.94,0.316,0.94,0.703c0,0.386-0.423,0.702-0.94,0.702h-6.81   c-0.518,0-0.94,0.417-0.94,0.927s0.423,0.927,0.94,0.927h6.81c0.517,0,0.94,0.316,0.94,0.703s-0.423,0.703-0.94,0.703H4.743   c-0.517,0-0.94,0.417-0.94,0.927c0,0.509,0.423,0.926,0.94,0.926h7.885c0.517,0,0.94,0.316,0.94,0.703   c0,0.387-0.423,0.703-0.94,0.703H3.67c-0.518,0-0.94,0.417-0.94,0.927c0,0.509,0.423,0.926,0.94,0.926h8.958   c0.517,0,0.94,0.316,0.94,0.703s-0.423,0.703-0.94,0.703H2.507c-0.518,0-0.94,0.417-0.94,0.926c0,0.51,0.423,0.927,0.94,0.927   h10.121c0.517,0,0.94,0.316,0.94,0.703c0,0.386-0.423,0.703-0.94,0.703H1.701c-0.518,0-0.94,0.417-0.94,0.926   s0.423,0.927,0.94,0.927h10.927c0.517,0,0.94,0.316,0.94,0.702c0,0.387-0.423,0.703-0.94,0.703H0.94C0.423,35.023,0,35.44,0,35.95   s0.423,0.927,0.94,0.927h11.688c0.517,0,0.94,0.316,0.94,0.702s-0.423,0.702-0.94,0.702H1.701c-0.518,0-0.94,0.417-0.94,0.928   c0,0.51,0.423,0.927,0.94,0.927h10.927c0.517,0,0.94,0.316,0.94,0.702s-0.423,0.702-0.94,0.702H2.507   c-0.518,0-0.94,0.417-0.94,0.927s0.423,0.927,0.94,0.927h10.121c0.517,0,0.94,0.423,0.94,0.94v2.269c0,0.518-0.423,0.94-0.94,0.94   H4.744c-0.518,0-0.94,0.417-0.94,0.927s0.423,0.927,0.94,0.927h7.884c0.517,0,0.94,0.362,0.94,0.805   c0,0.443-0.423,0.806-0.94,0.806H6.779c-0.518,0-0.94,0.417-0.94,0.927s0.423,0.927,0.94,0.927h5.849   c0.517,0,0.94,0.362,0.94,0.806s-0.423,0.806-0.94,0.806H7.979c-0.517,0-0.94,0.417-0.94,0.927s0.423,0.927,0.94,0.927h4.649   c0.517,0,1.025,0,1.13,0c0.105,0,0.613,0,1.131,0h70.073c0.518,0,1.026,0,1.133,0c0.105,0,0.614,0,1.132,0h4.719   c0.518,0,0.94-0.417,0.94-0.927s-0.423-0.927-0.94-0.927h-4.719c-0.518,0-0.94-0.362-0.94-0.806s0.423-0.806,0.94-0.806h5.932   c0.518,0,0.94-0.417,0.94-0.927s-0.423-0.927-0.94-0.927h-5.932c-0.518,0-0.94-0.362-0.94-0.806c0-0.442,0.423-0.805,0.94-0.805   h7.988c0.518,0,0.94-0.417,0.94-0.927s-0.423-0.927-0.94-0.927h-7.988c-0.518,0-0.94-0.423-0.94-0.94v-2.269   c0-0.518,0.423-0.94,0.94-0.94h10.25c0.518,0,0.94-0.417,0.94-0.927s-0.423-0.927-0.94-0.927h-10.25   c-0.518,0-0.94-0.316-0.94-0.702s0.423-0.702,0.94-0.702h11.064c0.518,0,0.94-0.417,0.94-0.927c0-0.511-0.423-0.928-0.94-0.928   H87.227c-0.518,0-0.94-0.316-0.94-0.702S86.709,36.877,87.227,36.877z M17.987,53.53c-0.855,0-1.548-0.693-1.548-1.548   s0.693-1.548,1.548-1.548c0.854,0,1.547,0.693,1.547,1.548S18.842,53.53,17.987,53.53z M17.987,16.767   c-0.855,0-1.548-0.693-1.548-1.548s0.693-1.548,1.548-1.548c0.854,0,1.547,0.693,1.547,1.548S18.842,16.767,17.987,16.767z    M29.844,49.381h-4.525l-2.263-3.919l2.263-3.919h4.525l2.263,3.919L29.844,49.381z M29.844,26.585h-4.525l-2.263-3.919l2.263-3.92   h4.526l2.263,3.92L29.844,26.585z M50.346,53.53c-0.854,0-1.547-0.693-1.547-1.548s0.693-1.548,1.547-1.548   s1.548,0.693,1.548,1.548S51.2,53.53,50.346,53.53z M50.346,16.767c-0.854,0-1.547-0.693-1.547-1.548s0.693-1.548,1.547-1.548   s1.548,0.693,1.548,1.548S51.2,16.767,50.346,16.767z M75.731,49.381h-4.525l-2.262-3.919l2.262-3.919h4.525l2.263,3.919   L75.731,49.381z M75.731,26.585h-4.525l-2.262-3.919l2.262-3.92h4.525l2.263,3.92L75.731,26.585z M82.704,53.53   c-0.854,0-1.548-0.693-1.548-1.548s0.693-1.548,1.548-1.548c0.855,0,1.548,0.693,1.548,1.548S83.56,53.53,82.704,53.53z    M82.704,16.767c-0.854,0-1.548-0.693-1.548-1.548s0.693-1.548,1.548-1.548c0.855,0,1.548,0.693,1.548,1.548   S83.56,16.767,82.704,16.767z"/>
	<polygon points="26.474,20.746 25.365,22.666 26.473,24.585 28.689,24.585 29.797,22.666 28.689,20.746  "/>
</g>
</svg>