<svg xmlns="http://www.w3.org/2000/svg" xmlns:xlink="http://www.w3.org/1999/xlink" version="1.1" id="&#1057;&#1083;&#1086;&#1081;_1" x="0px" y="0px" width="90.4761904762px" height="100px" viewBox="0 0 114 126" enable-background="new 0 0 114 126" xml:space="preserve">
<path d="M18.333,98.972v4.772v8.344v1.321c0,0.559,0.458,1.017,1.017,1.017h78.356c0.559,0,1.017-0.458,1.017-1.017v-1.321v-8.344  v-4.772H18.333z"/>
<path d="M28.394,120.14c-0.003-0.056-0.007-0.11-0.02-0.168l-0.667-3.041c-0.138-0.628-0.777-1.142-1.419-1.142h-0.52  c-0.643,0-1.281,0.514-1.419,1.142l-0.668,3.041c-0.013,0.058-0.016,0.112-0.02,0.168h-1.644v1.169h7.792v-1.169H28.394z"/>
<path d="M93.41,120.14c-0.004-0.056-0.007-0.11-0.02-0.168l-0.667-3.041c-0.139-0.628-0.776-1.142-1.42-1.142h-0.52  c-0.643,0-1.281,0.514-1.419,1.142l-0.668,3.041c-0.013,0.058-0.016,0.112-0.02,0.168h-1.644v1.169h7.793v-1.169H93.41z"/>
<rect x="8.333" y="90.271" width="37.662" height="2.597"/>
<rect x="70.671" y="90.271" width="37.662" height="2.597"/>
<path d="M98.08,95.725h-4.163v-1.818H76.125v1.818h-8.766v-1.818H49.307v1.818h-8.767v-1.818H22.749v1.818h-3.773  c-0.354,0-0.643,0.289-0.643,0.643v0.283v0.022v1.39h80.39v-1.39V96.65v-0.283C98.723,96.014,98.434,95.725,98.08,95.725z"/>
<g>
	<path d="M70.087,68.436c0-9.836-6.769-11.186-11.754-11.186c-2.998,0-6.499,0.491-8.814,3.02h-0.212v0.24   c-1.416,1.678-2.338,4.188-2.338,7.925s0.922,8.16,2.338,12.21v12.222h18.052v-11.52C68.991,77.112,70.087,72.39,70.087,68.436z"/>
</g>
<path d="M83.131,16.607c-8.766-8.636-40.452-8.632-49.221,0c-1.764,1.736,10.688,33.747,14.498,43.399  c0.315-0.629,0.68-1.183,1.086-1.665v-0.24h0.212c2.315-2.529,5.816-3.02,8.814-3.02c3.539,0,7.974,0.684,10.251,4.597  C72.748,49.663,84.956,18.405,83.131,16.607z M75.617,33.501c-8.128-2.966-25.661-4.037-34.125,0  c-2.818-7.923-5.006-14.854-4.261-15.588c7.586-7.468,34.998-7.471,42.582,0C80.589,18.679,78.426,25.618,75.617,33.501z"/>
<rect x="32.762" y="36.289" transform="matrix(0.3489 0.9372 -0.9372 0.3489 67.9684 -24.4689)" width="37.662" height="0.779"/>
</svg>