<svg xmlns="http://www.w3.org/2000/svg" xmlns:xlink="http://www.w3.org/1999/xlink" version="1.1" id="Layer_1" x="0px" y="0px" width="100.0px" height="100px" viewBox="0 0 300 300" enable-background="new 0 0 300 300" xml:space="preserve">
<g>
	<path d="M181.856,183.783H128.47c-2.727,0-4.86,2.229-4.741,4.952l1.22,27.974c0.118,2.724,2.446,4.952,5.173,4.952h50.081   c2.725,0,5.005-2.229,5.065-4.956l1.437-27.966C186.764,186.014,184.582,183.783,181.856,183.783z M182.174,200.011   c-0.276,5.233-1.102,10.19-1.102,10.19s-0.688-7.712-1.24-12.531c-0.551-4.819-3.442-6.472-13.495-7.021   c-18.595-1.015-32.083-2.206-32.083-2.206s33.323,0,40.484,0C181.898,188.443,182.448,194.777,182.174,200.011z"/>
	<path d="M184.937,181.511c5.601,0.289,25.202-59.937,8.4-94.441c-16.8-34.504-67.506-9.963-76.165-1.881   c-5.346,4.991-7.54,17.163-5.793,34.446c2.218,20.683,3.319,27.292,3.319,27.292s-4.289-10.776-5.344-25.575l-0.06-0.761   c-14.278,8.165-13.616,44.403,12.656,59.802c0,0,1.995,1.119,4.326,1.119S184.937,181.511,184.937,181.511z M170.882,74.634   c13.196,3.024,21.177,20.32,23.397,39.01c-0.298-2.273-6.815-46.923-57.546-33.502C136.732,80.142,157.663,71.604,170.882,74.634z"/>
</g>
</svg>