<?xml version="1.0" encoding="utf-8"?>
<!-- Generator: Adobe Illustrator 15.1.0, SVG Export Plug-In . SVG Version: 6.00 Build 0)  -->
<!DOCTYPE svg PUBLIC "-//W3C//DTD SVG 1.1//EN" "http://www.w3.org/Graphics/SVG/1.1/DTD/svg11.dtd">
<svg version="1.1" id="Layer_1" xmlns="http://www.w3.org/2000/svg" xmlns:xlink="http://www.w3.org/1999/xlink" x="0px" y="0px"
	 width="100px" height="100px" viewBox="0 0 100 100" enable-background="new 0 0 100 100" xml:space="preserve">
<path d="M12.588,83.168L34.367,61.39C24.637,52.818,12.182,48.964,0,49.817C-0.043,61.741,4.156,73.674,12.588,83.168z"/>
<path d="M50,45.757l7.135-7.135c-9.65-10.798-14.091-24.629-13.344-38.227c-9.729,1.21-19.164,5.272-26.959,12.195L50,45.757z"/>
<path d="M45.758,50l-33.17-33.168C5.666,24.628,1.605,34.063,0.395,43.79c13.599-0.745,27.43,3.694,38.228,13.345L45.758,50z"/>
<path d="M61.39,34.368L83.168,12.59C73.674,4.156,61.741-0.043,49.817,0.001C48.963,12.184,52.818,24.638,61.39,34.368z"/>
<path d="M87.411,16.833L65.632,38.611C75.363,47.182,87.817,51.037,100,50.183C100.043,38.259,95.844,26.327,87.411,16.833z"/>
<path d="M61.378,42.865L54.242,50l33.169,33.167c6.923-7.795,10.983-17.23,12.194-26.957C86.007,56.956,72.176,52.516,61.378,42.865
	z"/>
<path d="M16.832,87.411c9.495,8.434,21.427,12.632,33.352,12.589c0.853-12.183-3.002-24.637-11.573-34.367L16.832,87.411z"/>
<path d="M50,54.244l-7.136,7.135c9.651,10.797,14.091,24.629,13.347,38.227c9.726-1.211,19.162-5.271,26.957-12.194L50,54.244z"/>
</svg>
