<svg xmlns="http://www.w3.org/2000/svg" xmlns:xlink="http://www.w3.org/1999/xlink" version="1.1" id="Layer_1" x="0px" y="0px" width="100px" height="100px" viewBox="0 0 100 100" enable-background="new 0 0 100 100" xml:space="preserve">
<g>
	<path fill="#000000" d="M32.163,97.206H13.564c-5.911,0-10.719-4.81-10.719-10.72l0.004-0.163L4.725,50.35   c0.048-5.87,4.838-10.629,10.718-10.629h14.839c5.881,0,10.671,4.759,10.719,10.629l1.88,36.136   C42.882,92.396,38.074,97.206,32.163,97.206z M9.15,86.559c0.039,2.401,2.003,4.344,4.414,4.344h18.599   c2.41,0,4.375-1.94,4.413-4.344L34.697,50.44c0-2.433-1.98-4.413-4.414-4.413H15.444c-2.434,0-4.414,1.98-4.414,4.413l-0.004,0.164   L9.15,86.559z"/>
</g>
<path fill="#000000" d="M23.054,23.076C9.795,23.11,6.311,29.342,6.311,32.825c0,3.482,6.631,3.487,16.743,3.487  c10.112,0,16.743-0.005,16.743-3.487C39.796,29.342,36.312,23.04,23.054,23.076z M13.404,27.815c-1.31,0-2.371-0.34-2.371-0.76  c0-0.419,1.062-0.76,2.371-0.76c1.309,0,2.372,0.341,2.372,0.76C15.776,27.475,14.713,27.815,13.404,27.815z M23.054,27.411  c-1.31,0-2.371-0.34-2.371-0.76s1.062-0.76,2.371-0.76c1.309,0,2.372,0.34,2.372,0.76S24.363,27.411,23.054,27.411z M32.273,27.815  c-1.31,0-2.371-0.34-2.371-0.76c0-0.419,1.062-0.76,2.371-0.76s2.371,0.341,2.371,0.76C34.644,27.475,33.582,27.815,32.273,27.815z"/>
<path fill="#000000" d="M78.663,23.075c-13.259,0.035-16.742,6.266-16.742,9.749c0,3.482,6.631,3.488,16.742,3.488  c10.112,0,16.743-0.006,16.743-3.488C95.406,29.341,91.922,23.04,78.663,23.075z M69.014,27.814c-1.31,0-2.371-0.34-2.371-0.76  c0-0.419,1.062-0.76,2.371-0.76c1.311,0,2.373,0.341,2.373,0.76C71.387,27.474,70.323,27.814,69.014,27.814z M78.663,27.41  c-1.31,0-2.371-0.34-2.371-0.76s1.062-0.76,2.371-0.76s2.372,0.34,2.372,0.76S79.973,27.41,78.663,27.41z M87.883,27.814  c-1.31,0-2.371-0.34-2.371-0.76c0-0.419,1.062-0.76,2.371-0.76s2.371,0.341,2.371,0.76C90.254,27.474,89.191,27.814,87.883,27.814z"/>
<g>
	<path fill="#000000" d="M58.459,86.323l-0.004,0.163c0,5.91,4.809,10.72,10.719,10.72h18.6c5.91,0,10.72-4.81,10.72-10.72   L96.611,50.35c-0.049-5.869-4.838-10.628-10.719-10.628H71.055c-5.882,0-10.672,4.759-10.72,10.628"/>
</g>
</svg>