<svg xmlns="http://www.w3.org/2000/svg" xmlns:xlink="http://www.w3.org/1999/xlink" version="1.1" id="Layer_1" x="0px" y="0px" width="100.0px" height="100px" viewBox="0 0 128 128" enable-background="new 0 0 128 128" xml:space="preserve">
<path fill="#000000" d="M72.818,14.715c0.179,0,0.323-0.141,0.323-0.315s-0.145-0.315-0.323-0.315h-0.174v-2.784  c0-0.523-0.376-0.947-0.841-0.947H57.458c-0.464,0-0.84,0.424-0.84,0.947v2.784h-0.174c-0.179,0-0.323,0.142-0.323,0.315  s0.144,0.315,0.323,0.315h0.174v0.602h-0.175c-0.105,0-0.191,0.083-0.191,0.186c0,0.103,0.085,0.186,0.191,0.186h0.175v1.146h16.027  v-1.146h0.176c0.104,0,0.19-0.083,0.19-0.186c0-0.103-0.086-0.186-0.19-0.186h-0.176v-0.602H72.818z"/>
<path fill="#000000" d="M78.104,25.195c-1.033-1.958-2.268-4.187-4.513-5.873c-0.315-0.236-0.435-1.467-0.435-1.467H56.384  c0,0-0.492,0.349-0.652,0.489c-0.294,0.257-0.408,1.06-0.408,1.06s-4.41,2.493-6.565,4.322c-6.392,5.423-5.176,17.35-5.558,25.079  c-1.052,21.285-1.17,47.709,0,63.489c0.069,0.932,0,1.999,1.48,3.426c0.545,0.525,2.346,0.789,2.346,0.789s3.35-0.481,4.627-0.219  c0.796,0.166,1.183,1.102,2.854,1.306c5.595-0.03,16.711,0.125,24.737,0c3.48-0.055,4.433-1.739,4.675-4.486  c0.71-6.551,2.422-35.231,1.388-49.476c-0.331-4.558-0.216-4.676-0.678-7.747C83.57,46.727,82.089,32.743,78.104,25.195z"/>
</svg>