<svg xmlns:dc="http://purl.org/dc/elements/1.1/" xmlns:cc="http://creativecommons.org/ns#" xmlns:rdf="http://www.w3.org/1999/02/22-rdf-syntax-ns#" xmlns:svg="http://www.w3.org/2000/svg" xmlns="http://www.w3.org/2000/svg" xmlns:sodipodi="http://sodipodi.sourceforge.net/DTD/sodipodi-0.dtd" xmlns:inkscape="http://www.inkscape.org/namespaces/inkscape" width="64px" height="64px" id="svg2985" version="1.1" inkscape:version="0.48.2 r9819" sodipodi:docname="tie.svg">
  <defs id="defs2987"/>
  <sodipodi:namedview id="base" pagecolor="#ffffff" bordercolor="#666666" borderopacity="1.0" inkscape:pageopacity="0.0" inkscape:pageshadow="2" inkscape:zoom="5.5" inkscape:cx="32" inkscape:cy="32" inkscape:current-layer="layer1" showgrid="true" inkscape:document-units="px" inkscape:grid-bbox="true" inkscape:window-width="1280" inkscape:window-height="751" inkscape:window-x="-4" inkscape:window-y="-4" inkscape:window-maximized="1"/>
  <metadata id="metadata2990">
    <rdf:RDF>
      <cc:Work rdf:about="">
        <dc:format>image/svg+xml</dc:format>
        <dc:type rdf:resource="http://purl.org/dc/dcmitype/StillImage"/>
        <dc:title/>
      </cc:Work>
    </rdf:RDF>
  </metadata>
  <g id="layer1" inkscape:label="Layer 1" inkscape:groupmode="layer">
    <path style="fill:#41423b;fill-rule:nonzero;stroke:none" d="m 23.281305,16.224286 c 0.223581,0.901254 1.31023,1.608391 2.473838,1.608391 l 12.86421,0 c 0.135015,0 0.258409,-0.01459 0.411578,-0.03357 l -0.02904,-0.179522 0.121224,0.170035 c 0.04065,-0.0051 0.07985,-0.01022 0.100899,-0.01459 0.975595,-0.12114 1.656479,-0.686705 1.868438,-1.55074 l 2.008536,-8.1543419 c 0.169859,-0.702029 -0.03049,-1.439085 -0.540061,-1.971811 -0.474732,-0.497696 -1.1636,-0.771355 -1.935221,-0.771355 l -16.886361,0 c -0.772345,0 -1.461215,0.273659 -1.935946,0.772086 -0.509574,0.532724 -0.709919,1.269782 -0.536432,1.97108 l 2.014342,8.1543379 z" id="path735" inkscape:connector-curvature="0"/>
    <path style="fill:#41423b;fill-rule:nonzero;stroke:none" d="M 45.17994,45.470875 38.620804,22.832262 c -0.19236,-0.980067 -1.014793,-1.589417 -2.210333,-1.596715 -0.08493,-0.0095 -0.172035,-0.01897 -0.265675,-0.01897 l -7.915822,0 c -1.038748,0 -2.28147,0.648755 -2.47529,1.614958 l -6.572193,22.120482 c -0.272934,1.363191 0.834047,2.354205 1.811819,3.228457 0.193813,0.172224 0.385448,0.344446 0.56329,0.51594 l 8.805762,8.453537 c 0.425371,0.4094 1.08085,0.643653 1.796576,0.643653 0.72226,0 1.393708,-0.232798 1.840855,-0.64 l 8.959652,-8.150688 c 0.162599,-0.147411 0.330272,-0.291904 0.497233,-0.437126 0.979951,-0.842144 1.993293,-1.714206 1.723262,-3.094912 z" id="path737" inkscape:connector-curvature="0"/>
  </g>
</svg>