<svg xmlns:dc="http://purl.org/dc/elements/1.1/" xmlns:cc="http://creativecommons.org/ns#" xmlns:rdf="http://www.w3.org/1999/02/22-rdf-syntax-ns#" xmlns:svg="http://www.w3.org/2000/svg" xmlns="http://www.w3.org/2000/svg" xmlns:sodipodi="http://sodipodi.sourceforge.net/DTD/sodipodi-0.dtd" xmlns:inkscape="http://www.inkscape.org/namespaces/inkscape" width="64px" height="64px" id="svg2985" version="1.1" inkscape:version="0.48.2 r9819" sodipodi:docname="Kopia tie.svg">
  <defs id="defs2987"/>
  <sodipodi:namedview id="base" pagecolor="#ffffff" bordercolor="#666666" borderopacity="1.0" inkscape:pageopacity="0.0" inkscape:pageshadow="2" inkscape:zoom="5.5" inkscape:cx="32" inkscape:cy="24.727273" inkscape:current-layer="layer1" showgrid="true" inkscape:document-units="px" inkscape:grid-bbox="true" inkscape:window-width="1280" inkscape:window-height="751" inkscape:window-x="-4" inkscape:window-y="-4" inkscape:window-maximized="1"/>
  <metadata id="metadata2990">
    <rdf:RDF>
      <cc:Work rdf:about="">
        <dc:format>image/svg+xml</dc:format>
        <dc:type rdf:resource="http://purl.org/dc/dcmitype/StillImage"/>
        <dc:title/>
      </cc:Work>
    </rdf:RDF>
  </metadata>
  <g id="layer1" inkscape:label="Layer 1" inkscape:groupmode="layer">
    <path inkscape:connector-curvature="0" style="fill:#0c1007;fill-rule:nonzero;stroke:none" d="m 42.499999,19.318184 c -1.362415,0 -2.465909,1.103494 -2.465909,2.465909 0,1.362415 1.103494,2.465909 2.465909,2.465909 1.362416,0 2.465909,-1.103494 2.465909,-2.465909 0,-1.362415 -1.103493,-2.465909 -2.465909,-2.465909 z m -19.727272,0 c -1.362414,0 -2.465909,1.103494 -2.465909,2.465909 0,1.362415 1.103495,2.465909 2.465909,2.465909 1.362415,0 2.465909,-1.103494 2.465909,-2.465909 0,-1.362415 -1.103494,-2.465909 -2.465909,-2.465909 z m -9.863635,27.124999 c 0,1.362416 1.103494,2.46591 2.465908,2.46591 l 34.522726,0 c 1.362415,0 2.465909,-1.103494 2.465909,-2.46591 l 0,-14.795454 -39.454543,0 0,14.795454 z M 13.63037,13.665088 c -0.480853,-0.483934 -0.721278,-1.115824 -0.721278,-1.744631 0,-0.631889 0.240425,-1.263778 0.721278,-1.74463 0.483935,-0.4808531 1.112741,-0.7212791 1.74463,-0.7212791 0.63189,0 1.263779,0.240426 1.744631,0.7212791 l 3.424532,3.42453 c 3.338223,-2.595369 7.533351,-4.1458091 12.0922,-4.1458091 4.55885,0 8.750894,1.5504401 12.092202,4.1458091 l 3.42453,-3.42453 c 0.483936,-0.4808531 1.112742,-0.7212791 1.744631,-0.7212791 0.631889,0 1.263778,0.240426 1.74463,0.7212791 0.480853,0.483934 0.721279,1.115823 0.721279,1.74463 0,0.631889 -0.240426,1.263778 -0.721279,1.744631 l -3.424531,3.424531 c 2.59537,3.341307 4.14581,7.533352 4.14581,12.092201 l -39.454543,0 c 0,-4.558849 1.55044,-8.750894 4.145809,-12.092201 L 13.63037,13.665088 z" id="path367"/>
  </g>
</svg>