<svg xmlns:dc="http://purl.org/dc/elements/1.1/" xmlns:cc="http://creativecommons.org/ns#" xmlns:rdf="http://www.w3.org/1999/02/22-rdf-syntax-ns#" xmlns:svg="http://www.w3.org/2000/svg" xmlns="http://www.w3.org/2000/svg" xmlns:sodipodi="http://sodipodi.sourceforge.net/DTD/sodipodi-0.dtd" xmlns:inkscape="http://www.inkscape.org/namespaces/inkscape" width="64px" height="64px" id="svg2985" version="1.1" inkscape:version="0.48.2 r9819" sodipodi:docname="New document 2">
  <defs id="defs2987"/>
  <sodipodi:namedview id="base" pagecolor="#ffffff" bordercolor="#666666" borderopacity="1.0" inkscape:pageopacity="0.0" inkscape:pageshadow="2" inkscape:zoom="5.5" inkscape:cx="32" inkscape:cy="32" inkscape:current-layer="layer1" showgrid="true" inkscape:document-units="px" inkscape:grid-bbox="true" inkscape:window-width="1280" inkscape:window-height="751" inkscape:window-x="-4" inkscape:window-y="-4" inkscape:window-maximized="1"/>
  <metadata id="metadata2990">
    <rdf:RDF>
      <cc:Work rdf:about="">
        <dc:format>image/svg+xml</dc:format>
        <dc:type rdf:resource="http://purl.org/dc/dcmitype/StillImage"/>
        <dc:title/>
      </cc:Work>
    </rdf:RDF>
  </metadata>
  <g id="layer1" inkscape:label="Layer 1" inkscape:groupmode="layer">
    <path style="fill:#41423b;fill-rule:nonzero;stroke:none" d="m 37.444167,39.860402 c -1.858015,2.172349 -3.717436,4.352137 -5.575377,6.524486 -0.04484,0.05208 -0.09109,0.111593 -0.135126,0.16367 -0.13224,-0.15623 -0.265219,-0.312461 -0.397459,-0.468691 -2.115242,-2.49225 -4.229818,-4.9845 -6.34358,-7.46931 -1.891981,-2.231865 -3.785295,-4.46373 -5.675796,-6.688156 -1.79726,-2.112833 -2.075503,-4.009919 -2.142697,-7.104772 -0.197286,-9.068812 8.542592,-16.0024745 17.239179,-14.395531 8.73048,1.614383 15.009014,12.238062 10.634671,20.525721 -2.534383,2.968381 -5.068026,5.936762 -7.603815,8.912583 z m 2.4794,-35.8437575 C 28.092153,-0.74466845 15.363101,5.7054225 10.766942,17.251606 8.6473697,22.578325 8.6408657,31.27516 12.52302,35.850483 c 1.539293,1.807811 3.0757,3.615623 4.61426,5.430873 2.621039,3.087414 5.241485,6.174827 7.862597,9.254802 1.332534,1.569745 2.868201,4.225664 4.789043,5.170487 1.140354,0.565406 2.783767,0.862988 3.898812,0 3.426835,-2.633593 6.066077,-6.665837 8.861314,-9.93924 2.735296,-3.206446 5.470584,-6.412893 8.208033,-9.6119 0.322274,-0.290142 0.614948,-0.647241 0.864323,-1.093614 6.294376,-11.442029 0.0037,-26.3434495 -11.697835,-31.0452465 z" id="path939" inkscape:connector-curvature="0"/>
    <path style="fill:#41423b;fill-rule:nonzero;stroke:none" d="m 31.147199,20.595233 c -2.70207,0 -4.888796,2.202107 -4.888796,4.917544 0,2.715436 2.186726,4.917543 4.888796,4.917543 2.698444,0 4.88813,-2.202107 4.88813,-4.917543 0,-2.715437 -2.189686,-4.917544 -4.88813,-4.917544 z" id="path941" inkscape:connector-curvature="0"/>
  </g>
</svg>