<?xml version="1.0" encoding="utf-8"?>
<!-- Generator: Adobe Illustrator 15.1.0, SVG Export Plug-In . SVG Version: 6.00 Build 0)  -->
<!DOCTYPE svg PUBLIC "-//W3C//DTD SVG 1.1//EN" "http://www.w3.org/Graphics/SVG/1.1/DTD/svg11.dtd">
<svg version="1.1" id="Layer_1" xmlns="http://www.w3.org/2000/svg" xmlns:xlink="http://www.w3.org/1999/xlink" x="0px" y="0px"
	 width="100px" height="60px" viewBox="0 0 100 60" enable-background="new 0 0 100 60" xml:space="preserve">
<path d="M11,60C4.935,60,0,55.065,0,49s4.935-11,11-11s11,4.935,11,11S17.065,60,11,60z M11,42c-3.859,0-7,3.141-7,7s3.141,7,7,7
	s7-3.141,7-7S14.859,42,11,42z"/>
<path d="M79,18c-11.579,0-21,9.42-21,21c0,11.58,9.421,21,21,21s21-9.42,21-21C100,27.42,90.579,18,79,18z M79,52
	c-7.168,0-13-5.832-13-13s5.832-13,13-13s13,5.832,13,13S86.168,52,79,52z"/>
<path d="M64,10l-25,1.786V9h-1V3h-2v6h-1v3.071l-5,0.357V0h-4v12.714L8,14c0,0-1,2.209-1,3c0,6,2,18,3,19
	c2.856,2.855,30.166,2.992,44,3c0-13.786,11.215-25,25-25c3.945,0,7.678,0.922,11,2.557V10H64z"/>
</svg>
