<svg xmlns="http://www.w3.org/2000/svg" xmlns:xlink="http://www.w3.org/1999/xlink" version="1.1" id="Layer_1" x="0px" y="0px" width="100px" height="100px" viewBox="0 0 100 100" enable-background="new 0 0 100 100" xml:space="preserve">
<path fill="#000000" d="M92.359,73.148c-2.523-5.838-5.664-13.104-5.664-26.07c0-23.862-16.676-43.274-37.171-43.274  c-20.495,0-37.17,19.413-37.17,43.274c0,16.334-3.563,25.502-5.921,31.568c-1.254,3.229-2.246,5.781-2.246,8.16  c0,0.604,0.177,1.022,0.54,1.283c0.359,0.258,0.926,0.389,1.685,0.389c1.905,0,4.729-0.815,7.46-1.604  c2.784-0.806,5.663-1.638,7.684-1.638c0.226,0,0.441,0.011,0.641,0.029c4.319,0.443,5.987,3.385,7.46,5.979  c1.026,1.808,1.995,3.517,3.728,4.366c0.531,0.262,1.157,0.39,1.913,0.39c2.435,0,5.67-1.349,8.8-2.651  c3.13-1.304,6.086-2.535,8.364-2.535c3.259,0,6.33,1.912,9.298,3.764c2.434,1.518,4.733,2.947,6.693,2.947  c0.454,0,0.869-0.074,1.268-0.229c3.508-1.359,4.442-3.081,5.436-4.904c0.783-1.438,1.592-2.925,3.68-4.131  c1.914-1.105,4.825-1.197,7.404-1.197c0.419,0,0.838,0.004,1.253,0.006c0.409,0.002,0.815,0.006,1.217,0.006  c4.392,0,6.772-0.438,6.772-2.739C95.48,80.363,94.033,77.021,92.359,73.148z M54.21,45.462c-3.554,0-6.8-2.584-8.079-6.43  c-0.066-0.201-0.255-0.336-0.466-0.336s-0.399,0.136-0.465,0.336c-1.278,3.846-4.525,6.43-8.08,6.43  c-4.771,0-8.652-4.494-8.652-10.016c0-5.522,3.881-10.015,8.652-10.015c3.556,0,6.802,2.581,8.08,6.42  c0.066,0.201,0.254,0.336,0.465,0.336s0.399-0.135,0.466-0.336c1.277-3.84,4.523-6.42,8.079-6.42c4.771,0,8.651,4.493,8.651,10.015  S58.98,45.462,54.21,45.462z"/>
<path id="path2389" fill="#000000" d="M56.001,37.253c0,2.196-1.772,3.976-3.959,3.976c-2.188,0-3.96-1.78-3.96-3.976l0,0  c0-2.195,1.772-3.975,3.96-3.975C54.229,33.278,56.001,35.058,56.001,37.253z"/>
<path id="path2396" fill="#000000" d="M43.437,37.253c0,2.196-1.772,3.976-3.96,3.976c-2.186,0-3.959-1.78-3.959-3.976l0,0  c0-2.195,1.773-3.975,3.959-3.975C41.664,33.278,43.437,35.058,43.437,37.253z"/>
</svg>