<svg xmlns="http://www.w3.org/2000/svg" xmlns:xlink="http://www.w3.org/1999/xlink" version="1.1" id="Layer_1" x="0px" y="0px" width="100px" height="100px" viewBox="0 0 100 100" enable-background="new 0 0 100 100" xml:space="preserve">
<g>
	<path d="M49.694,6.747c0.022,0.005,0.045,0.01,0.069,0.017c0.077,0.021,0.158,0.051,0.235,0.093v-3.33   c0-0.042-0.008-0.081-0.023-0.116v0.101c0,0.179-0.101,0.32-0.229,0.32c-0.128,0-0.229-0.141-0.229-0.32V3.411   c-0.015,0.036-0.023,0.075-0.023,0.116V4.55v0.083v0.085v2c0.034,0.002,0.079,0.007,0.131,0.016   C49.647,6.737,49.67,6.741,49.694,6.747z"/>
	<path d="M49.746,3.678c0.043,0,0.092-0.068,0.092-0.166V3.265V3.184v-0.08V0.943c0-0.098-0.048-0.166-0.092-0.166   c-0.043,0-0.091,0.068-0.091,0.166v2.161v0.08v0.081v0.247C49.655,3.609,49.703,3.678,49.746,3.678z"/>
	<path d="M49.797,7.023c-0.027-0.006-0.052-0.01-0.077-0.015c-0.045-0.008-0.087-0.014-0.121-0.018l0.002,0.513   c0.042-0.004,0.082-0.006,0.116-0.006c0.005,0,0.01,0,0.015,0c0.024,0,0.044,0,0.063,0.001c0.043,0.002,0.07,0.006,0.07,0.006   l0.007,0.001l0.061,0.008l0,0.072l0,0.122l0,0.086l0,0.082l-0.013,2.336l-0.001,0.221l-0.006,1.14l0.054,0.004l0.099,0.007   l-0.013,1.307c0.085,0.006,0.18,0.016,0.281,0.029c0.004-0.684,0.007-1.441,0.009-2.169c0-0.077,0-0.154,0-0.23   c0-0.077,0-0.154,0-0.229c0.003-1.46,0.002-2.699-0.01-2.796c-0.005-0.051-0.019-0.097-0.037-0.139   c-0.02-0.044-0.047-0.082-0.078-0.116c-0.023-0.026-0.049-0.051-0.078-0.072c-0.079-0.059-0.173-0.097-0.266-0.125   C49.848,7.038,49.822,7.029,49.797,7.023z"/>
	<path d="M49.354,11.652c0.031-0.002,0.062-0.003,0.091-0.004c0.011,0,0.021-0.001,0.032-0.001c0.021-0.001,0.04-0.001,0.06-0.001   c0.011,0,0.023,0,0.035,0c0.033,0,0.061,0,0.086,0.001l0.001-0.219l0.004-0.831l0-0.026V10.52l0-0.155l0.012-2.192l0-0.079l0-0.081   V7.97c-0.013,0-0.026,0-0.041,0c-0.004,0-0.009,0-0.013,0c-0.008,0-0.017,0.001-0.024,0.001c-0.025,0.001-0.051,0.001-0.079,0.005   c-0.004,0-0.01,0.001-0.015,0.002c-0.025,0.003-0.05,0.006-0.076,0.012c-0.001,0-0.002,0-0.003,0   c-0.03,0.006-0.059,0.015-0.089,0.024c-0.03,0.01-0.061,0.023-0.091,0.037c-0.023,0.011-0.046,0.021-0.068,0.035   c-0.025,0.016-0.047,0.036-0.07,0.055c-0.113,0.099-0.201,0.25-0.217,0.487l-0.005,0.072c-0.01,0.305-0.008,1.651-0.003,3.02   C49.04,11.682,49.203,11.662,49.354,11.652z"/>
	<path d="M49.915,13.399l-0.016,1.658c0.189,0.025,0.375,0.088,0.549,0.169c0.063,0.029,0.125,0.061,0.183,0.094   c0.063,0.036,0.124,0.072,0.184,0.11c0.034,0.022,0.066,0.044,0.099,0.067c0.002-0.93-0.002-1.646-0.013-1.785l-0.004-0.02   c-0.008-0.043-0.034-0.083-0.075-0.121c-0.045-0.041-0.108-0.076-0.185-0.108c-0.055-0.023-0.116-0.044-0.183-0.063   c-0.033-0.009-0.068-0.018-0.104-0.026c-0.138-0.032-0.289-0.054-0.435-0.067L49.915,13.399z"/>
	<path d="M49.483,15.099c0.001,0,0.002-0.001,0.003-0.001v-0.046l0.008,0l0.037-0.001l0.016-1.575l0.001-0.077l0-0.078l0-0.025   l0.001-0.103l0.003-0.309l0.008-0.828c-0.007,0-0.015,0-0.022,0c-0.02,0-0.04,0-0.06,0.001c-0.01,0-0.021,0.001-0.032,0.001   c-0.031,0.001-0.061,0.003-0.092,0.005c-0.167,0.011-0.331,0.037-0.472,0.079c-0.023,0.007-0.046,0.014-0.068,0.022   c-0.024,0.008-0.047,0.018-0.069,0.027c-0.158,0.071-0.268,0.171-0.286,0.309l-0.009,0.07c-0.015,0.311-0.009,1.694,0.001,2.938   C48.754,15.332,49.131,15.203,49.483,15.099z"/>
	<path d="M41.883,91.432l0.199-9.316l0.368-0.056l-0.2,9.377c0.348,0.006,0.683,0.013,1.003,0.021l0.26-9.416l0.367,0.025   l-0.259,9.399c0.031,0.002,0.063,0.003,0.094,0.003c0.062,0.003,0.124,0.004,0.184,0.006c0.407,0.011,0.777,0.023,1.099,0.035   l0.22-9.349l0.367,0.025l-0.22,9.336c0.031,0.001,0.06,0.003,0.089,0.004c0.064,0.003,0.125,0.005,0.183,0.008   c0.066,0.003,0.126,0.005,0.183,0.008c0.309,0.014,0.487,0.021,0.494,0.021l0.175,0.009v0.962c0.293-0.053,0.602-0.098,0.931-0.131   c0.046-0.006,0.096-0.009,0.144-0.014c0.006-1.637,0.019-5.252,0.036-10.06l0.367,0.025c-0.018,4.761-0.03,8.35-0.036,10.003   c0.228-0.017,0.463-0.027,0.705-0.035c0.061-0.002,0.122-0.005,0.184-0.007c0.061-0.002,0.123-0.003,0.184-0.004   c0.128-0.001,0.256-0.004,0.389-0.004c0.179,0,0.357,0.003,0.534,0.006c-0.005-1.951-0.015-5.431-0.026-9.822l0.035,0.003   l0.016,0.001l0.316-0.039c0.012,4.44,0.021,7.944,0.026,9.868c0.564,0.02,1.103,0.056,1.586,0.097   c0.062,0.005,0.123,0.01,0.183,0.016c0.063,0.006,0.125,0.012,0.186,0.018c0.034,0.004,0.067,0.007,0.102,0.009   c0.062,0.007,0.124,0.014,0.184,0.02c0.063,0.007,0.124,0.014,0.185,0.02c0.366,0.041,0.673,0.08,0.899,0.111v-1.037l0.171-0.014   c0.069-0.006,0.143-0.009,0.214-0.015c0.062-0.004,0.121-0.009,0.184-0.013c0.061-0.005,0.122-0.008,0.183-0.013   c0.057-0.003,0.114-0.006,0.17-0.009l-0.282-9.546l0.366-0.044l0.283,9.57c0.445-0.021,0.92-0.039,1.425-0.053   c0.062-0.001,0.12-0.003,0.183-0.004c0.061-0.002,0.122-0.003,0.184-0.004c0.088-0.001,0.178-0.002,0.267-0.004l-0.463-9.736   l0.272-0.033l0.094,0.004l0.465,9.76c0.169-0.001,0.34-0.004,0.515-0.005l-0.371-9.727l0.368,0.018l0.37,9.708   c0.092-0.001,0.181-0.001,0.273-0.001c0.53,0,1.052,0.004,1.556,0.011l-1.062-17.541c-0.65-0.09-1.113-0.153-1.443-0.205   l0.193,5.033l-0.368-0.009l-0.194-5.088l-0.008-0.214l-0.009-0.21l-0.332-8.71l0.021,0.001l-0.111-2.397h-0.001l-0.229-6.006   c-0.343-0.08-0.625-0.146-0.858-0.203l0.29,6.104l-0.37-0.05l-0.292-6.146l-0.012-0.22l-0.01-0.214l-0.41-8.623l0.018,0.006   l-0.108-2.359l-0.021-0.004l-0.243-5.115l-1.133-0.37l0.155,5.239l-0.37-0.075l-0.155-5.285l-0.007-0.216l-0.006-0.216   l-0.414-14.01l-0.785-0.417l-0.186-0.099l-0.184-0.098l-0.55-0.292c-0.03-0.002-0.081-0.005-0.144-0.005   c-0.293,0-0.588,0.066-0.588,0.214c0,0.022,0.004,1.939,0.013,5.124L49.76,29.02c-0.009-3.35-0.014-5.372-0.014-5.39   c0-0.234,0.124-0.625,0.956-0.625c0.123,0,0.209,0.009,0.209,0.009l0.032,0.003l0.445,0.237l-0.097-6.919   c-0.004-0.004-0.009-0.009-0.013-0.013c-0.043-0.044-0.105-0.105-0.185-0.176c-0.054-0.048-0.114-0.101-0.183-0.155   c-0.032-0.026-0.065-0.052-0.1-0.078c-0.059-0.043-0.119-0.086-0.184-0.128c-0.059-0.038-0.12-0.076-0.184-0.11   c-0.174-0.096-0.362-0.171-0.551-0.202c-0.01-0.002-0.021-0.004-0.031-0.006c-0.002,0-0.004,0-0.007-0.001   c-0.047-0.006-0.094-0.01-0.142-0.01h-0.003h-0.007c-0.007,0.003-0.017,0.006-0.024,0.008c-0.002,0.001-0.005,0.002-0.007,0.002   c-0.03,0.011-0.061,0.021-0.096,0.032c-0.017,0.005-0.033,0.01-0.049,0.015c-0.011,0.004-0.021,0.007-0.03,0.01   c-0.002,0-0.005,0.001-0.007,0.002c-0.535,0.164-0.853,0.32-1.034,0.458c-0.09,0.069-0.148,0.133-0.182,0.191   c-0.026,0.045-0.04,0.087-0.043,0.125c-0.001,0.037-0.003,0.188-0.005,0.442c-0.002,0.337-0.006,0.857-0.009,1.54   c0,0.066,0,0.136-0.001,0.206c0,0.008,0,0.017,0,0.025l-1.135,0.695l-0.001,0.042l-0.013,0.007l-0.248,10.538l-0.008,0.007v0.334   l-0.072,3.068l-0.005,0.211l-0.005,0.217l-0.249,10.532l-0.37,0.116l0.248-10.518L45.2,34.167l-0.438,15.873l-0.006,0.209   l-0.006,0.209l-0.322,11.704l-0.369,0.075l0.322-11.712L43.12,50.76l-0.374,17.492l-0.005,0.209l-0.004,0.209l-0.222,10.399   l-0.368,0.037l0.221-10.372l-1.482,0.264l-0.715,22.421c0.008,0,0.016,0,0.023,0C40.771,91.419,41.339,91.424,41.883,91.432z    M48.215,18.747l0.192-0.118l0.864,0.368l0.057,0.024l0.058-0.018l0.281-0.087l1.455,1.252v0.463l-1.347-1.13l-0.105-0.089   l-0.109,0.084l-0.288,0.224l-0.934-0.418l-0.093-0.042l-0.033,0.027l-0.048,0.037l-0.321,0.254l-0.607,0.481l0.023-0.729   l0.587-0.359L48.215,18.747z M49.827,29.217l0.301-0.218l0.758-0.55l1.619,1.131l0.03,1.235l-1.458-1.182l-0.104-0.085   l-0.106,0.082l-0.735,0.565l-0.367,0.281l-0.01,0.008l-1.276-0.702l-0.105-0.058l-0.09,0.082l-0.117,0.104l-0.368,0.331   l-0.804,0.722v-1.061l0.808-0.658l0.368-0.3l0.217-0.177l1.283,0.471l0.083,0.03l0.009-0.006L49.827,29.217z M49.81,44.499   l-0.009-0.002c-0.014-5.329-0.026-10.128-0.036-13.778l0.004,0.002l0.362-0.278c0.009,3.662,0.022,8.538,0.036,13.965L49.81,44.499   z M47.784,33.51c0-0.073,0-0.146,0.001-0.219c0.003-0.956,0.007-1.883,0.011-2.784l0.369-0.331   c-0.017,4.143-0.036,8.941-0.056,14.005l-0.366-0.069C47.756,40.382,47.77,36.795,47.784,33.51z M47.068,44.404l0.672,0.125   l0.367,0.068l1.695,0.316l0.019,0.004l0.348-0.088l2.111-0.529l0.864,0.174l0.37,0.075l0.878,0.177l0.065,1.446l-0.904-0.31   l-0.372-0.127l-0.778-0.267l-2.23,0.785l-0.367,0.129l-0.045,0.016l-1.659-0.314l-0.367-0.069l-0.686-0.13l-0.614,0.181   l-0.37,0.109l-0.791,0.233l0.047-1.458l0.779-0.245l0.37-0.116L47.068,44.404z M47.701,54.819c0.01-2.816,0.021-5.631,0.031-8.386   l0.367,0.069c-0.021,5.238-0.041,10.689-0.061,15.946l-0.367-0.052C47.682,59.9,47.691,57.359,47.701,54.819z M49.849,62.699   c-0.015-5.343-0.028-10.803-0.042-15.885l0.367-0.129c0.014,5.096,0.028,10.577,0.042,15.938L49.849,62.699z M45.966,50.387   l0.005-0.214l0.005-0.205l0.079-3.363l0.37-0.108l-0.085,3.611l-0.006,0.229L46.056,62.17l-0.366-0.051L45.966,50.387z    M45.076,62.447l0.604,0.085l0.366,0.051l1.625,0.228l0.367,0.052l1.812,0.254h0.002l0.365-0.075l3.457-0.708l0.365-0.076   l0.326-0.066l1.213,0.161l0.37,0.05l0.429,0.057l0.072,1.577l-0.425-0.042l-0.37-0.038l-1.212-0.123l-0.355,0.06l-0.365,0.061   L50.22,64.54l-0.367,0.062l-0.011,0.001l-1.81-0.19l-0.367-0.039l-1.657-0.175l-0.367-0.039l-0.667-0.07l-0.602,0.129l-0.37,0.079   l-0.756,0.162l0-1.636l0.801-0.164l0.37-0.077L45.076,62.447z M50.26,79.591l-0.318,0.045l-0.049-0.004   c-0.011-4.366-0.024-9.396-0.038-14.615l0.367-0.061C50.235,70.183,50.248,75.221,50.26,79.591z M47.664,64.786l0.367,0.039   c-0.02,5.296-0.038,10.322-0.054,14.639l-0.367-0.031C47.626,75.112,47.644,70.085,47.664,64.786z M45.632,64.571l0.367,0.039   l-0.223,9.458l-0.123,5.192l-0.367-0.032L45.632,64.571z M54.168,79.043L53.791,66.3l-0.057-1.934l0.365-0.06l0.435,14.685   L54.168,79.043z M44.36,64.639l-0.103,3.706l-0.006,0.228l-0.29,10.541l-0.367-0.032l0.288-10.456l0.006-0.214l0.005-0.205   l0.096-3.487L44.36,64.639z M42.954,79.438l0.63,0.055l0.367,0.033l1.327,0.115l0.367,0.032l1.964,0.172l0.367,0.032l1.918,0.167   l0.058,0.006l0.31-0.044l3.92-0.55l0.365-0.053l1.832-0.257l0.31-0.043l0.056,0.001l0.632,0.015l0.368,0.009l1.167,0.026   l0.137,2.201L57.826,81.3l-0.369-0.018l-0.611-0.028l-0.087-0.004l-0.279,0.034l-1.87,0.229l-0.367,0.044l-3.977,0.487   l-0.324,0.039l-0.043-0.003l-1.931-0.137l-0.367-0.025l-2.007-0.143l-0.367-0.025l-1.336-0.095l-0.367-0.025l-0.648-0.047h-0.018   l-0.398,0.059l-0.369,0.057l-1.223,0.184l0.075-2.241l1.194-0.121l0.368-0.037L42.954,79.438z M56.463,73.195l0.009,0.207   l0.01,0.209l0.242,5.081l-0.042-0.001h-0.013l-0.311,0.043l-0.238-5l-0.011-0.219l-0.01-0.215l-0.425-8.931l0.369,0.037   L56.463,73.195z M53.835,55.384l0.006,0.218l0.008,0.226l0.178,6.015l-0.364,0.075l-0.181-6.075l-0.007-0.25l-0.279-9.421   l0.371,0.127L53.835,55.384z M47.805,28.321c0.014-3.478,0.026-6.396,0.037-8.49l0.369-0.292c-0.011,2.179-0.025,5.343-0.041,9.151   l-0.368,0.3C47.803,28.767,47.804,28.54,47.805,28.321z"/>
	<path d="M46.122,92.607v-0.64c-0.079-0.004-0.184-0.008-0.309-0.015c-0.057-0.001-0.119-0.004-0.184-0.008   c-0.084-0.003-0.175-0.007-0.274-0.011c-0.059-0.002-0.12-0.005-0.183-0.006c-0.06-0.002-0.12-0.005-0.184-0.007   c-0.322-0.012-0.693-0.024-1.101-0.035c-0.091-0.003-0.184-0.006-0.278-0.009c-0.061-0.001-0.122-0.002-0.184-0.004   c-0.061-0.002-0.122-0.004-0.184-0.005c-0.241-0.006-0.492-0.012-0.749-0.017c-0.083-0.001-0.167-0.003-0.251-0.005   c-0.061,0-0.122-0.001-0.184-0.002c-0.061-0.001-0.122-0.002-0.184-0.003c-0.541-0.008-1.106-0.013-1.68-0.013   c-0.075,0-0.146,0-0.22,0.001c-0.062,0-0.123,0-0.184,0c-1.596,0.007-2.974,0.051-4.099,0.132v1.801   c0.534-0.009,1.086-0.015,1.659-0.015c3.891,0,7.514,0.226,8.312,0.278V93.36v-0.205v-0.119v-0.087V92.83v-0.112l0.143-0.037   c0.079-0.021,0.161-0.038,0.243-0.056C46.073,92.619,46.097,92.612,46.122,92.607z"/>
	<path d="M54.197,93.184v0.206v0.206v0.159v0.206v0.054c0.183-0.02,0.372-0.037,0.565-0.054c0.01-0.001,0.02-0.002,0.031-0.003   c0.061-0.006,0.121-0.011,0.184-0.016c1.552-0.128,3.395-0.193,5.497-0.193c1.385,0,2.736,0.029,3.938,0.068v-1.85   c-0.509-0.024-2.075-0.09-3.979-0.121c-0.06-0.001-0.121-0.002-0.183-0.002c-0.567-0.009-1.161-0.015-1.765-0.015   c-0.087,0-0.171,0-0.258,0.001c-0.062,0-0.122,0-0.184,0c-0.236,0.002-0.468,0.004-0.694,0.006   c-0.061,0.001-0.124,0.001-0.185,0.002c-0.062,0.001-0.122,0.003-0.184,0.004c-0.15,0.002-0.302,0.005-0.447,0.008   c-0.063,0.001-0.122,0.002-0.185,0.004c-0.506,0.014-0.986,0.031-1.434,0.052c-0.062,0.004-0.122,0.007-0.183,0.011   c-0.062,0.003-0.124,0.006-0.184,0.01c-0.122,0.007-0.239,0.014-0.355,0.022c-0.061,0.003-0.124,0.008-0.184,0.012   c-0.01,0-0.019,0.001-0.028,0.002v0.706c0.035,0.005,0.056,0.008,0.057,0.008l0.158,0.027V93.184z"/>
	<path d="M53.616,93.03c-0.219-0.031-0.523-0.071-0.895-0.112c-0.059-0.007-0.122-0.013-0.184-0.02   c-0.061-0.007-0.121-0.014-0.184-0.02c-0.033-0.003-0.066-0.006-0.099-0.009c-0.061-0.006-0.122-0.013-0.186-0.019   c-0.06-0.005-0.121-0.011-0.184-0.016c-0.484-0.042-1.024-0.078-1.593-0.098c-0.062-0.003-0.122-0.004-0.184-0.006   c-0.061-0.002-0.122-0.004-0.184-0.005c-0.177-0.004-0.355-0.007-0.535-0.007c-0.133,0-0.263,0.003-0.392,0.005   c-0.062,0-0.122,0.002-0.183,0.004c-0.062,0.001-0.123,0.004-0.184,0.006c-0.242,0.009-0.478,0.02-0.705,0.037   c-0.049,0.003-0.097,0.008-0.145,0.012c-0.014,0.001-0.026,0.002-0.039,0.003c-0.048,0.005-0.098,0.007-0.145,0.012   c-0.013,0.001-0.026,0.002-0.039,0.003c-0.084,0.009-0.164,0.019-0.246,0.028c-0.29,0.033-0.566,0.073-0.827,0.121   c-0.039,0.008-0.079,0.013-0.117,0.021c-0.022,0.004-0.043,0.01-0.066,0.015c-0.062,0.013-0.124,0.025-0.184,0.039   c-0.014,0.004-0.028,0.006-0.041,0.01c-0.017,0.003-0.035,0.006-0.051,0.011v0.12v0.206v0.776v0.206v0.206v4.592h7.769v-4.592   v-0.206v-0.188v-0.109l0.031-0.004v-0.093v-0.206v-0.123v-0.206V93.22v-0.159c-0.009-0.002-0.021-0.004-0.031-0.005   C53.748,93.048,53.686,93.039,53.616,93.03z"/>
	<path d="M64.779,94.24c-0.061-0.002-0.121-0.004-0.183-0.006c-1.247-0.042-2.666-0.074-4.122-0.074   c-2.103,0-3.94,0.066-5.488,0.195c-0.271,0.021-0.536,0.045-0.789,0.072c-0.01,0.001-0.021,0.002-0.031,0.003v0.131v4.592h0.031   h14.56v-4.715C68.264,94.404,66.751,94.311,64.779,94.24z"/>
	<path d="M37.351,94.16c-0.639,0-1.253,0.007-1.843,0.019c-0.062,0.002-0.122,0.004-0.184,0.005   c-1.627,0.037-3.064,0.119-4.282,0.247v4.723h14.59v-4.592v-0.123c-0.242-0.017-0.732-0.048-1.4-0.083   C42.651,94.271,40.067,94.16,37.351,94.16z"/>
</g>
</svg>