<svg xmlns="http://www.w3.org/2000/svg" xmlns:xlink="http://www.w3.org/1999/xlink" version="1.1" id="Layer_1" x="0px" y="0px" width="100px" height="100px" viewBox="0 0 100 100" enable-background="new 0 0 100 100" xml:space="preserve">
<g>
	<rect x="37.859" y="88.03" fill="#000000" width="1.443" height="7.743"/>
	<rect x="40.085" y="79.639" fill="#000000" width="1.25" height="4.529"/>
	<rect x="42.234" y="34.397" fill="#000000" width="4.426" height="7.897"/>
	<polygon fill="#000000" points="45.584,84.349 45.584,95.773 46.66,95.773 46.66,43.131 42.145,43.131 42.145,84.168    45.404,84.168 45.584,84.168  "/>
	<polygon fill="#000000" points="44.865,84.991 44.865,84.887 40.08,84.887 40.08,95.773 44.865,95.773  "/>
	<rect x="57.583" y="88.03" fill="#000000" width="1.443" height="7.743"/>
	<rect x="55.548" y="79.639" fill="#000000" width="1.251" height="4.529"/>
	<rect x="47.378" y="79.562" fill="#000000" width="2.128" height="16.211"/>
	<polygon fill="#000000" points="47.378,33.859 47.378,78.725 49.506,78.725 49.506,33.859 49.506,33.679 49.687,33.679    53.304,33.679 53.304,31.047 43.579,31.047 43.579,33.679 47.198,33.679 47.378,33.679  "/>
	<polygon fill="#000000" points="48.174,28.924 44.567,28.924 44.567,30.209 48.174,30.209 48.71,30.209 52.318,30.209    52.318,28.924 48.71,28.924  "/>
	<polygon fill="#000000" points="48.174,26.949 45.778,26.949 45.778,28.191 48.174,28.191 48.71,28.191 51.107,28.191    51.107,26.949 48.71,26.949  "/>
	<rect x="50.225" y="34.397" fill="#000000" width="4.427" height="7.897"/>
	<polygon fill="#000000" points="54.741,84.168 54.741,43.131 50.225,43.131 50.225,95.773 51.3,95.773 51.3,84.349 51.3,84.168    51.479,84.168  "/>
	<rect x="52.019" y="84.887" fill="#000000" width="4.786" height="10.887"/>
	<rect x="35.684" y="96.492" fill="#000000" width="25.518" height="3.199"/>
	<path fill="#000000" d="M49.041,17.791l-0.001-0.013v-0.012l0.003-1.078c0-0.189-0.149-0.345-0.341-0.356l-0.038-0.001V0h-0.448   v16.332l-0.033,0.001c-0.192,0.011-0.341,0.167-0.341,0.356v1.056v0.012l-0.001,0.012l-1.118,8.32h3.439L49.041,17.791z"/>
</g>
</svg>