<svg xmlns="http://www.w3.org/2000/svg" xmlns:xlink="http://www.w3.org/1999/xlink" version="1.1" id="Layer_1" x="0px" y="0px" width="100px" height="100px" viewBox="0 0 100 100" enable-background="new 0 0 100 100" xml:space="preserve">
<g>
	<path d="M22.698,46.492c-0.028-0.274-0.049-0.547-0.064-0.82C22.648,45.949,22.67,46.222,22.698,46.492z"/>
	<path d="M65.013,56.903l0.244,0.278l-0.217,0.762l0.984,0.983h2.085c0.454-1.148,1.783-4.838,3.261-11.895   c-0.913-0.215-2.914-0.604-5.448-0.604c-4.157,0-7.977,0.982-11.36,2.92C56.818,50.63,62.21,53.737,65.013,56.903z"/>
	<path d="M34.059,41.792l6.194,14.416l1.183,3.058h2.032c1.053-0.729,5.719-4.169,9.035-9.965c-0.394-0.987-1.736-4.002-4.669-7.436   c-2.067-2.42-4.503-4.559-7.239-6.354c-3.082-2.021-6.561-3.614-10.35-4.738c0.326,0.916,0.86,2.451,1.724,4.949   C32.962,38.594,33.955,41.488,34.059,41.792z"/>
	<path d="M56.853,56.641c0.103,0.471,0.183,0.879,0.251,1.256l6.185-0.675c-1.188-1.423-3.882-4.233-8.472-6.925   c0.336,0.776,0.643,1.568,0.92,2.363C56.407,54.139,56.775,55.449,56.853,56.641z"/>
	<path d="M55.93,58.082c0.031-0.233,0.055-0.497,0.054-0.809c-0.002-1.01-0.269-2.154-0.819-3.501   c-0.415-1.02-0.996-2.151-1.729-3.368c-0.323,0.419-0.779,0.978-1.435,1.752c-1.082,1.281-2.213,2.541-3.22,3.587L55.93,58.082z"/>
	<path d="M89.103,60.462l1.804,0.63l6.206-8.952c-0.62-0.02-1.238-0.031-1.839-0.031c-7.562,0-11.418,1.594-12.934,2.3   C86.423,57.249,88.605,59.839,89.103,60.462z"/>
	<path d="M73.442,53.047c0.169,0.122,4.115,3.021,5.985,5.936c0.322,0.03,1.098,0.054,1.978,0.058   c0.198-0.711,0.551-2.519-0.318-4.339c-0.058-0.026-0.133-0.062-0.233-0.106c-0.885-0.409-3.501-1.621-8.258-2.41l0.172,0.37   L73.442,53.047z"/>
	<polygon points="97.446,61.179 97.578,60.916 93.59,58.732 91.931,61.179  "/>
	<path d="M31.132,49.719c0.739-3.238,1.355-6.204,1.558-7.3c-5.98-3.046-9.868-3.962-11.884-4.229   c4.363,6.044,7.641,16.416,8.407,18.961C29.449,56.498,30,54.68,31.132,49.719z"/>
	<path d="M26.611,56.958c-0.064-0.108-0.127-0.217-0.189-0.325c-1.202-1.511-3.983-5.577-4.248-11.079   c-3.397-2.062-12.978-2.677-16.149-2.828c5.715,4.919,8.76,10.522,9.507,12.01l0.032-0.013h1.359l1.057-2.348   c0,0,4.274,1.28,5.315,1.554l0.796,0.264c0.236,0.283,0.662,0.874,1.263,1.754l0.661,0.866L26.611,56.958z"/>
	<path d="M6.971,55.921l5.264,0.334c1.243-0.775,1.719-0.972,2.261-1.397c-0.857-1.699-1.961-3.481-2.718-4.654l-0.135,1.308   l-0.118,0.152c-0.86,0.776-1.991,2.091-2.46,2.404c-0.739,0.438-1.425,0.756-1.901,1.039C7.079,55.348,6.971,55.921,6.971,55.921z"/>
	<path d="M74.883,55.312c0.173,0.412,0.382,0.921,0.626,1.534l0.137,0.34l-2.749,1.833l5.345-0.079   C77.521,58.031,76.088,56.291,74.883,55.312z"/>
	<path d="M82.438,58.572l3.508-0.36c-0.905-0.768-2.447-2.032-3.788-2.916C82.438,56.177,82.746,57.431,82.438,58.572z"/>
	<polygon points="38.677,55.738 33.614,44.149 30.593,56.675 31.512,54.494  "/>
	<path d="M23.645,49.116c0.487,1.822,1.258,3.588,2.292,5.253c0.47,0.756,0.906,1.346,1.236,1.761   c-0.213-3.918-2.658-9.042-3.646-10.968l-0.445,0.498C23.147,46.805,23.336,47.967,23.645,49.116z"/>
	<polygon points="91.427,62.223 87.252,60.468 39.659,60.544 33.053,60.017 29.675,57.991 25.621,57.314 23.51,55.012    18.489,53.547 17.549,55.638 15.354,55.766 12.395,57.133 6.831,56.913 6.765,56.996 4.811,59.491 2.802,62.327 1.76,64.672    1.76,68.726 98.823,68.726 98.858,62.369 97.712,62.306  "/>
</g>
</svg>