<svg xmlns="http://www.w3.org/2000/svg" xmlns:xlink="http://www.w3.org/1999/xlink" version="1.1" id="Layer_1" x="0px" y="0px" width="100px" height="100px" viewBox="-346 256 100 100" enable-background="new -346 256 100 100" xml:space="preserve">
<g>
	<polygon points="-313.948,340.061 -301.98,340.061 -307.965,324.104  "/>
	<polygon points="-290.087,340.061 -278.116,340.061 -284.102,324.104  "/>
	<path d="M-346,313.747v8.826h9.37V356h81.612v-33.427h8.956v-8.826H-346z M-276.145,341.025c-0.017,0.098-0.054,0.191-0.104,0.282   c-0.007,0.007-0.007,0.023-0.015,0.037c-0.004,0.005-0.012,0.007-0.016,0.012c-0.057,0.077-0.124,0.145-0.205,0.205   c0,0-2.983,3.521-7.617,3.521c-4.545,0-7.616-3.521-7.616-3.521c-0.079-0.061-0.147-0.128-0.205-0.205   c-0.003-0.005-0.01-0.007-0.015-0.012c-0.004-0.014-0.004-0.03-0.014-0.037c-0.051-0.091-0.089-0.185-0.104-0.282   c-0.005-0.028-0.012-0.049-0.017-0.074c-0.01-0.103-0.005-0.208,0.025-0.306c0.005-0.017,0.017-0.023,0.017-0.033   c0.005-0.007,0-0.016,0.005-0.021l6.745-18h-3.229h-6.155l-0.019,24.822h5.738v2.722h-14.325v-2.722h5.868l0.001-24.822h-6.158   h-3.228l6.749,18c0.002,0.005,0,0.014,0.002,0.021c0.002,0.01,0.013,0.017,0.018,0.033c0.027,0.098,0.035,0.203,0.022,0.306   c-0.002,0.025-0.007,0.046-0.012,0.074c-0.02,0.098-0.055,0.191-0.105,0.282c-0.009,0.007-0.009,0.023-0.016,0.037   c-0.002,0.005-0.014,0.007-0.014,0.012c-0.059,0.077-0.124,0.145-0.204,0.205c0,0-3.074,3.521-7.619,3.521   c-4.629,0-7.616-3.521-7.616-3.521c-0.084-0.061-0.149-0.128-0.208-0.205c0-0.005-0.004-0.007-0.009-0.012   c-0.011-0.014-0.011-0.03-0.015-0.037c-0.056-0.091-0.09-0.185-0.107-0.282c-0.006-0.028-0.01-0.049-0.013-0.074   c-0.012-0.103-0.004-0.208,0.026-0.306c0.004-0.017,0.009-0.023,0.015-0.033c0.002-0.007,0-0.016,0.002-0.021l7.161-19.104   c0,0,0.006-0.003,0.011-0.005c0.114-0.306,0.408-0.524,0.754-0.524h4.306h6.259v-2.997h0.013h1.351h0.01h1.347h0.017v2.997h6.26   h4.303c0.348,0,0.642,0.219,0.755,0.524c0.005,0.002,0.01,0.005,0.01,0.005l7.162,19.104c0.005,0.005,0,0.014,0.005,0.021   c0.005,0.01,0.009,0.017,0.017,0.033c0.027,0.098,0.032,0.203,0.022,0.306C-276.135,340.977-276.14,340.997-276.145,341.025z"/>
</g>
<g>
	<path d="M-295.79,271.662c4.853,0,8.78,3.932,8.78,8.782s-3.928,8.782-8.78,8.782c-4.852,0-8.778-3.932-8.778-8.782   S-300.642,271.662-295.79,271.662z"/>
	<path d="M-308.888,310.043v-6.882h2.207v6.882h21.88l0.003-6.882h2.158v6.882h6.873v-7.444c0-5.829-3.429-11.546-10.251-11.546   l-19.684-0.004c-6.215,0-10.112,5.067-10.112,11.392v7.603H-308.888z"/>
</g>
<polygon points="-331.083,302.625 -331.083,297.926 -336.651,297.926 -336.651,310.258 -331.083,310.258 -331.083,305.384   -318.951,305.384 -318.951,302.625 "/>
</svg>