<svg xmlns="http://www.w3.org/2000/svg" xmlns:xlink="http://www.w3.org/1999/xlink" version="1.1" id="Layer_1" x="0px" y="0px" width="100px" height="100px" viewBox="0 0 100 100" enable-background="new 0 0 100 100" xml:space="preserve">
<path d="M77.351,27.207c0-15.087-12.232-27.312-27.312-27.312c-15.093,0-27.318,12.226-27.318,27.312  c0,14.911,11.943,27.032,26.793,27.311c-0.006,1.932-0.125,4.884-0.513,9.301c-0.556-0.162-0.716,0.263-0.716,0.263  s-0.444,1.032-0.068,1.493c-0.221,0.112-0.299,0.316-0.301,0.323c-0.024,0.055-0.539,1.273,0.054,1.741  c-0.273,0.057-0.362,0.292-0.362,0.292s-0.574,1.328,0.13,1.645c0.078,0.035,0.162,0.065,0.247,0.095  c-7.681,8.421-4.582,18.576-4.582,18.576c0.251-1.426,1.776-3.266,1.776-3.266c-0.957,1.214-1.43,4.374-1.43,4.374  c0.883,3.922,5.11,9.456,5.961,10.54c-1.128-3.124-4.757-14.702-1.951-27.7l0.453-2.409h0.255c0.119,0.02,0.236,0.032,0.353,0.038  c-0.099,0.537-1.331,7.322-1.385,12.715c-0.086,8.338,1.59,14.587,2.291,17.046c-0.379-2.196,0.488-8.155,0.488-8.155  c0.018-0.349-0.611-2.909-0.611-2.909c0.294,0.363,0.685,2.346,0.685,2.346c0.196-1.211,1.118-4.391,1.118-4.391  c0.029-0.564-0.76-3.482-0.76-3.482c0.333,0.496,0.968,2.055,0.968,2.055c2.014-8.996-1.241-13.832-2.419-15.229  c0.276-0.028,0.515-0.106,0.668-0.242c0.387-0.341,0.377-1.455,0.03-1.634c0.208-0.048,0.385-0.125,0.508-0.233  c0.33-0.29,0.412-1.006,0.281-1.468c-0.061-0.211-0.167-0.35-0.301-0.409c0.06-0.03,0.115-0.063,0.161-0.104  c0.411-0.36,0.375-1.589-0.034-1.656c-0.133-0.022-0.246-0.024-0.365-0.027c0.134-1.172,0.68-6.092,0.812-9.535  C65.611,54.023,77.351,41.986,77.351,27.207z M67.234,44.41l-9.369,1.273l3.749-6.692l6.857-3.684L67.234,44.41z M50.525,51.161  l-1.001-0.016l-7.013-5.336l7.378-2.082l7.456,2.244L50.525,51.161z M31.526,34.687l2.249-7.474l3.798,4.904l0.578,6.281  L31.526,34.687z M68.544,19.732l-2.25,7.472l-3.798-4.903l-0.576-6.279L68.544,19.732z M57.513,45.718l-7.474-2.25l4.904-3.798  l6.279-0.576L57.513,45.718z M38.443,38.404l-0.561-6.102l4.294,2.448l0.002,0.027l0.045,0.006l2.32,4.396L38.443,38.404z   M38.841,15.617l6.1-0.559l-2.446,4.292l-0.027,0.002l-0.006,0.046l-4.396,2.32L38.841,15.617z M50.316,11.097l4.71,3.918  l-4.765,1.305l-0.021-0.017l-0.037,0.028l-4.749-1.469L50.316,11.097z M61.628,16.015l0.56,6.1l-4.293-2.446l-0.003-0.027  l-0.046-0.005l-2.318-4.397L61.628,16.015z M61.229,38.803l-6.1,0.559l2.446-4.292l0.026-0.003l0.006-0.045l4.397-2.319  L61.229,38.803z M42.576,34.829l3.915,0.503l3.047,2.541l-4.678,1.282L42.576,34.829z M45.25,15.104l4.673,1.445l-3.125,2.413  l-3.95,0.357L45.25,15.104z M57.494,19.591l-3.915-0.503l-3.046-2.541l4.68-1.282L57.494,19.591z M57.971,30.521l-0.815-3.116  l1.004-3.121l2.41,3.123L57.971,30.521z M53.034,35.052l-2.948-0.948l1.97-1.468l2.497-0.182L53.034,35.052z M46.61,34.876  l-1.414-2.756l2.431,0.356l1.895,1.638L46.61,34.876z M47.037,19.367l2.949,0.948l-1.971,1.467l-2.498,0.183L47.037,19.367z   M53.46,19.544l1.413,2.755l-2.43-0.355l-1.894-1.637L53.46,19.544z M55.463,25.188l-0.182-2.496l2.597,1.519l-0.949,2.947  L55.463,25.188z M54.638,32.157l-2.504,0.183l1.012-1.663h0.003v-0.005l0.021-0.033l1.822-0.896L54.638,32.157z M49.792,33.962  l-1.899-1.641l1.891-0.46l0.001,0.002l0.005-0.004l0.037-0.008l1.919,0.655L49.792,33.962z M44.906,29.309l1.662,1.011l0,0.003  l0.006,0.001l0.032,0.02l0.896,1.821l-2.414-0.353L44.906,29.309z M45.434,22.263l2.504-0.184l-1.013,1.663l-0.002,0l-0.001,0.005  l-0.02,0.032l-1.82,0.896L45.434,22.263z M50.281,20.458l1.898,1.641l-1.892,0.46l-0.001-0.002l-0.006,0.003l-0.036,0.009  l-1.92-0.655L50.281,20.458z M55.166,25.112l-1.663-1.013l-0.001-0.003l-0.007-0.001l-0.03-0.019l-0.895-1.821l2.413,0.353  L55.166,25.112z M51.857,32.235l-1.757-0.6l1.158-0.832l0.012,0.005l0.016-0.025l0.009-0.005l1.498-0.083L51.857,32.235z   M46.952,30.385l1.405,0.231l0.006,0.011l0.026-0.005l0.012,0.002l1.12,1.001l-1.75,0.426L46.952,30.385z M48.214,22.184  l1.756,0.599l-1.158,0.832l-0.011-0.004l-0.014,0.021l-0.012,0.009l-1.499,0.083L48.214,22.184z M53.12,24.034l-1.407-0.231  l-0.004-0.01l-0.027,0.006l-0.013-0.002l-1.119-1.002l1.751-0.426L53.12,24.034z M53.118,28.719l-0.986,0.463l0.149-0.821  l0.003-0.001l-0.001-0.007l0.003-0.017l0.6-0.647L53.118,28.719z M46.952,25.701l0.987-0.463l-0.149,0.822l-0.003,0.001l0.002,0.006  l-0.003,0.017l-0.601,0.648L46.952,25.701z M51.82,29.269L51.019,29.3l0.347-0.528l0.595-0.267L51.82,29.269z M49.841,29.929  l-0.589-0.547l0.62-0.127l0.609,0.231L49.841,29.929z M47.945,28.192l0.528,0.348l0.268,0.595l-0.765-0.139L47.945,28.192z   M48.25,25.15l0.802-0.031l-0.347,0.529l-0.594,0.267L48.25,25.15z M51.953,28.189l-0.784,0.353l-0.471,0.716l-0.802-0.304  l-0.84,0.172l-0.353-0.782l-0.716-0.471l0.305-0.802l-0.174-0.84l0.783-0.353l0.471-0.716l0.803,0.305l0.841-0.174l0.351,0.784  l0.718,0.471l-0.305,0.801L51.953,28.189z M47.99,27.046l-0.231,0.609l-0.442-0.641l0.545-0.588L47.99,27.046z M52.081,27.374  l0.231-0.609l0.442,0.64l-0.547,0.588L52.081,27.374z M52.125,26.228l-0.527-0.348l-0.267-0.595l0.764,0.14L52.125,26.228z   M50.199,25.165l-0.609-0.232l0.64-0.441l0.589,0.546L50.199,25.165z M49.26,24.808l-0.002-0.001l-0.002,0.003l-0.016,0.011  l-0.882,0.034l0.564-0.893l1.026,0.371L49.26,24.808z M47.633,27.985l0,0.002l0.004,0.002l0.011,0.016l0.033,0.882l-0.893-0.564  l0.371-1.026L47.633,27.985z M48.886,29.456l0,0.001l0.004-0.001l0.019,0.004l0.648,0.601l-1.031,0.231l-0.463-0.986L48.886,29.456z   M50.812,29.611L50.812,29.611l0.003-0.002l0.017-0.011l0.882-0.034l-0.563,0.893l-1.026-0.369L50.812,29.611z M52.437,26.436  l0.001-0.002l-0.003-0.003l-0.012-0.016l-0.032-0.883l0.892,0.565l-0.369,1.025L52.437,26.436z M51.187,24.963l-0.001-0.002  l-0.003,0.001l-0.021-0.003l-0.648-0.601l1.031-0.231l0.465,0.986L51.187,24.963z M50.229,24.125l-1.084-0.391l1.121-0.805  l1.06,0.949L50.229,24.125z M47.99,24.893l-1.042,0.49l0.224-1.362l1.42-0.079L47.99,24.893z M46.951,27.017l-0.391,1.083  l-0.805-1.121l0.949-1.061L46.951,27.017z M47.718,29.255l0.49,1.042l-1.362-0.223l-0.079-1.42L47.718,29.255z M49.843,30.295  l1.083,0.389l-1.121,0.805l-1.06-0.948L49.843,30.295z M52.08,29.528l1.043-0.49L52.899,30.4l-1.419,0.078L52.08,29.528z   M53.127,27.431L53.127,27.431L53.127,27.431l-0.007-0.027l0.391-1.085l0.805,1.122L53.367,28.5L53.127,27.431z M52.354,25.165  l-0.491-1.042l1.363,0.223l0.078,1.421L52.354,25.165z M46.628,25.531l-0.01,0.006l0.006,0.026l-0.002,0.013l-1.002,1.119  l-0.426-1.751l1.666-0.819L46.628,25.531z M46.44,28.432l-0.004,0.013l0.024,0.014l0.007,0.009l0.083,1.5l-1.539-0.936l0.599-1.757  L46.44,28.432z M53.441,28.888l0.011-0.005l-0.006-0.025l0.002-0.014l1.003-1.12l0.426,1.751l-1.666,0.82L53.441,28.888z   M53.631,25.986l0.004-0.01l-0.021-0.014l-0.008-0.012l-0.084-1.499l1.54,0.937l-0.599,1.756L53.631,25.986z M44.925,25.066  l0.459,1.891l-0.002,0.003l0.004,0.004l0.01,0.037l-0.655,1.919l-1.457-1.956L44.925,25.066z M55.146,29.353l-0.46-1.893  l0.001-0.001l-0.003-0.003l-0.008-0.038l0.654-1.919l1.457,1.956L55.146,29.353z M44.77,24.802l-1.637,1.895l-0.763-2.912  l2.755-1.414L44.77,24.802z M44.609,29.23l0.183,2.497l-2.599-1.519l0.948-2.948L44.609,29.23z M55.303,29.618l1.636-1.895  l0.763,2.912l-2.754,1.414L55.303,29.618z M55.207,22.313l-1.495-2.916l3.911,0.502l0.365,4.04L55.207,22.313z M50.232,20.089  l-3.121-1.003l3.123-2.411l3.114,2.598L50.232,20.089z M45.138,22.038l-2.915,1.496l0.502-3.912l4.04-0.365L45.138,22.038z   M42.099,23.897l0.817,3.117l-1.003,3.12l-2.411-3.122L42.099,23.897z M44.863,32.106l1.496,2.916l-3.912-0.502l-0.366-4.039  L44.863,32.106z M49.838,34.33l3.121,1.003l-3.121,2.411l-3.114-2.597L49.838,34.33z M54.932,32.383l2.914-1.496l-0.502,3.911  l-4.038,0.365L54.932,32.383z M58.156,30.753l2.542-3.047l1.282,4.68l-4.327,2.282L58.156,30.753z M58.283,23.972l-0.357-3.951  l4.217,2.402l-1.446,4.674L58.283,23.972z M41.914,23.665l-2.541,3.047l-1.283-4.679l4.326-2.283L41.914,23.665z M41.787,30.447  l0.357,3.951l-4.215-2.403l1.445-4.671L41.787,30.447z M53.272,35.458l3.95-0.357l-2.402,4.216l-4.671-1.445L53.272,35.458z   M62.23,32.2l-1.306-4.766l0.017-0.02l-0.028-0.037l1.47-4.749l3.766,4.862L62.23,32.2z M37.84,22.219l1.306,4.764l-0.018,0.022  l0.029,0.037l-1.469,4.749l-3.766-4.863L37.84,22.219z M49.809,38.099l0.022,0.018l0.038-0.03l4.746,1.469l-4.861,3.766  l-4.709-3.918L49.809,38.099z M62.317,32.549l4.032-4.846l2.062,7.306l-6.877,3.693L62.317,32.549z M55.374,14.928l-4.846-4.032  l7.306-2.062l3.694,6.876L55.374,14.928z M50.181,10.692l-7.457-2.244l7.312-5.563l7.523,5.725L50.181,10.692z M42.558,8.701  l7.474,2.249l-4.904,3.799l-6.279,0.576L42.558,8.701z M37.753,21.87l-4.033,4.847l-2.062-7.307l6.877-3.693L37.753,21.87z   M44.696,39.492l4.846,4.032l-7.306,2.062l-3.695-6.876L44.696,39.492z M68.636,34.733l-2.083-7.378l2.244-7.456l5.562,7.311  L68.636,34.733z M61.816,15.631l-3.685-6.858l9.104,1.237l1.272,9.37L61.816,15.631z M57.811,8.436l-7.56-5.752  c6.552,0.09,12.482,2.745,16.834,7.012L57.811,8.436z M42.26,8.436l-9.574,1.301c4.412-4.348,10.461-7.038,17.143-7.06L42.26,8.436z   M42.205,8.737l-3.748,6.692l-6.859,3.684l1.237-9.103L42.205,8.737z M31.436,19.686l2.081,7.377l-2.243,7.457l-5.562-7.311  L31.436,19.686z M38.254,38.789l3.685,6.858l-9.104-1.237l-1.273-9.37L38.254,38.789z M42.26,45.983l7.109,5.41  c0.012,0.086,0.026,0.198,0.041,0.339c-6.514-0.13-12.402-2.793-16.721-7.048L42.26,45.983z M50.829,51.294l6.98-5.311l9.271-1.259  c-4.203,4.121-9.879,6.741-16.165,6.994C50.894,51.548,50.864,51.405,50.829,51.294z M67.55,44.249l1.26-9.263l5.623-7.391  C74.332,34.062,71.73,39.92,67.55,44.249z M74.433,26.826l-5.623-7.391l-1.26-9.267C71.731,14.496,74.334,20.355,74.433,26.826z   M32.563,9.854l-1.301,9.581l-5.888,7.738C25.382,20.409,28.127,14.287,32.563,9.854z M25.374,27.247l5.888,7.738l1.3,9.577  C28.129,40.129,25.384,34.009,25.374,27.247z M50.208,67.491c-0.157,0.138-0.455,0.216-0.817,0.216c-0.391,0-0.811-0.087-1.153-0.24  c-0.557-0.249-0.062-1.443-0.053-1.463c0.001-0.002,0.079-0.21,0.34-0.21c0.028,0,0.059,0.005,0.089,0.01  c0.108,0.037,0.219,0.07,0.334,0.097c0.47,0.15,0.731,0.156,0.964,0.161c0.111,0.003,0.216,0.005,0.334,0.023  c0.057,0.01,0.116,0.1,0.155,0.236C50.505,66.682,50.442,67.285,50.208,67.491z"/>
</svg>