<svg xmlns="http://www.w3.org/2000/svg" xmlns:xlink="http://www.w3.org/1999/xlink" version="1.1" id="Layer_1" x="0px" y="0px" width="100px" height="100px" viewBox="0 0 100 100" enable-background="new 0 0 100 100" xml:space="preserve">
<path id="path1356" fill="#000000" d="M70.413,68.525c-2.27-2.436-2.435-3.862-2.858-5.602c1.637,1.839,9.066-1.384,4.853-8.077  c-1.492-2.368-8.338-6.154-12.88-10.741l-6.639-6.707l0.164-1.611c0.143-1.38,1.381-5.4,1.8-5.826  c0.074-0.076,1.428-0.153,3.006-0.17c3.282-0.033,3.734-0.296,3.68-2.149c-0.02-0.701,0.138-1.484,0.35-1.744  c0.214-0.256,0.413-1.143,0.441-1.968c0.028-0.826,0.107-1.541,0.176-1.587s0.547-0.349,1.063-0.672l0.939-0.588l-1.367-2.012  c-1.348-1.985-1.363-2.042-1.155-4.317c0.264-2.884-0.247-4.878-1.722-6.698C59.65,7.298,59.04,6.33,58.909,5.9  c-0.33-1.075-2.418-2.373-4.437-2.756c-0.929-0.176-2.147-0.498-2.707-0.715c-1.41-0.544-5.459-0.559-7.299-0.025  c-1.604,0.465-3.671,2.334-5.571,5.043c-1.138,1.623-2.45,2.095-3.659,1.316c-0.929-0.598-3.809-1.164-2.993-0.588  c0.417,0.295,0.355,0.362-0.338,0.376c-1.003,0.02-2.566,1.014-1.593,1.014c0.771,0,0.724,0.305-0.206,1.338  c-0.912,1.014-1.708,3.165-1.668,4.511c0.016,0.521,0.338,1.342,0.719,1.827c0.382,0.485,1.032,1.93,1.446,3.212l0.483,1.5  c0.289,0.564,0.261,1.126-0.729,1.691c-0.772,0.663-0.862,0.857-0.403,0.857c0.69,0,0.75,0.432,0.205,1.451  c-0.389,0.729-0.504,1.324-0.585,3.026c-0.025,0.534-0.611,1.567-1.401,2.483c-1.267,1.462-1.655,2.476-1.144,2.987  c0.118,0.118,0.512-0.162,0.873-0.622c0.959-1.219,1.24-1.042,1.356,0.849c0.138,2.274,0.828,1.828,1.324-0.857  c0.477-2.588,0.559-2.695,1.367-1.77c0.621,0.711,0.66,0.719,0.514,0.092c-0.464-1.999-0.558-3.225-0.245-3.225  c0.46,0,2.065,2.393,2.065,3.079c0,0.609,1.56,1.458,2.083,1.136c0.185-0.115,0.632,0.06,0.992,0.387  c0.642,0.578,0.659,0.56,0.659-0.645c0-1.282,0.533-1.674,0.917-0.674c0.326,0.85-1.696,4.055-5.668,8.984  c-2.715,3.37-4.417,10.754-4.414,19.126c0.003,3.823-0.96,9.063-2.212,12.06c-0.43,1.026-0.964,2.784-1.19,3.904  c-0.222,1.12-0.767,3.413-1.211,5.092c-0.801,3.043-1.048,4.461-2.011,11.521c-0.746,5.477-1.056,4.944,2.876,4.944h3.381  l0.361-1.443c0.617-2.468,1.375-5.041,2.575-8.741c1.955-6.032,2.098-6.551,2.439-8.827c0.307-2.029,1.014-4.185,2.839-8.657  c0.383-0.934,1.189-3.106,1.792-4.83c0.602-1.723,1.171-3.208,1.261-3.298c0.379-0.38,3.737,6.907,4.165,9.032  c0.488,2.429,1.291,8.056-0.51,10.515c-1.044,1.428-7.37,6.516-8.446,16.036c-0.013,0.117,6.404,0.214,14.23,0.214  c0,0,7.548-0.096,14.231,0C77.291,98.027,81.202,80.11,70.413,68.525z M40.233,27.914c-0.109-0.178,0.112-0.489,0.491-0.69  c0.587-0.315,0.688-0.268,0.688,0.322C41.411,28.247,40.597,28.501,40.233,27.914z M39.713,26.198c0-0.186,0.252-0.339,0.563-0.339  c0.497,0,0.487-0.083-0.084-0.713c-0.355-0.393-1.104-0.952-1.665-1.244c-0.601-0.311-0.839-0.59-0.581-0.677  c0.345-0.116,0.351-0.254,0.029-0.641c-0.225-0.272-0.453-0.906-0.505-1.411c-0.055-0.503-0.28-1.623-0.503-2.486  c-0.411-1.602-0.218-3.353,0.37-3.353c0.181,0,0.414,0.419,0.519,0.934c0.519,2.523,0.96,3.57,2.204,5.226  c1.137,1.513,1.352,2.058,1.352,3.42c0,1.504-0.062,1.623-0.85,1.623C40.096,26.539,39.713,26.385,39.713,26.198z"/>
</svg>