<svg xmlns="http://www.w3.org/2000/svg" xmlns:xlink="http://www.w3.org/1999/xlink" version="1.1" id="Layer_1" x="0px" y="0px" width="100.0px" height="100px" viewBox="0 0 120 120" enable-background="new 0 0 120 120" xml:space="preserve">
<path d="M110.646,56.633c-0.581-6.983-2.023-11.726-3.134-14.471c-2.974-7.384-5.164-10.492-9.123-15.363  c-0.02-0.025-1.957-2.399-5.396-5.362c-1.636-1.408-4-3.058-5.778-4.272c-1.665-1.13-6.379-4.009-14.243-6.234  c-5.739-1.625-11.547-1.666-13.733-1.68c-0.538,0.008-1.077,0.104-1.614,0.283c0.37-0.015,0.74-0.036,1.109-0.041  c1.308-0.015,2.562,0.024,3.756,0.114c-1.249,0.074-2.507,0.372-3.776,0.897c-0.823-0.064-1.69-0.089-2.592-0.079  c-0.081,0.001-0.161,0.007-0.242,0.009c-0.811,0.565-1.612,1.336-2.396,2.32c0.029,0,0.058-0.004,0.086-0.005  c0.466-0.01,0.912,0.005,1.333,0.04c-1.274,1.001-2.533,2.24-3.781,3.727c1.655-1.433,3.32-2.622,4.98-3.568  c0.382,0.069,0.733,0.159,1.061,0.263c-2.007,0.862-4.024,1.962-6.041,3.306c2.319-1.219,4.639-2.201,6.938-2.949  c0.268,0.134,0.511,0.282,0.724,0.446c-2.532,0.604-5.095,1.432-7.662,2.503c2.75-0.892,5.491-1.546,8.197-1.978  c0.149,0.183,0.263,0.381,0.342,0.59c-2.815,0.243-5.67,0.699-8.539,1.388c2.914-0.466,5.808-0.709,8.667-0.733  c0.005,0.223-0.024,0.456-0.094,0.699c-2.83-0.204-5.694-0.193-8.574,0.035c2.765,0.024,5.521,0.263,8.242,0.699  c-0.149,0.248-0.332,0.491-0.55,0.729c-2.542-0.674-5.109-1.16-7.691-1.427c2.329,0.505,4.653,1.219,6.953,2.116  c-0.273,0.218-0.575,0.431-0.902,0.639c-2.007-1.11-4.029-2.032-6.051-2.755c1.665,0.921,3.34,2.042,5.01,3.335  c-0.367,0.179-0.753,0.352-1.155,0.511c-1.298-1.462-2.587-2.75-3.855-3.846c0.842,1.244,1.709,2.681,2.597,4.282  c-0.431,0.129-0.872,0.243-1.323,0.347c-0.456-1.714-0.882-3.266-1.273-4.628c-0.075,1.447-0.109,3.078-0.099,4.872  c-0.461,0.064-0.927,0.114-1.393,0.139c0.441-1.839,0.941-3.519,1.492-5.01c-1.021,1.501-1.982,3.187-2.87,5.03  c-0.451-0.01-0.872-0.045-1.273-0.099c1.303-1.814,2.686-3.464,4.143-4.931c-1.844,1.393-3.603,2.979-5.273,4.723  c-0.352-0.089-0.679-0.193-0.976-0.312c1.987-1.646,4.074-3.122,6.25-4.411c-2.448,1.149-4.807,2.493-7.063,4.004  c-0.243-0.149-0.456-0.313-0.634-0.486c2.458-1.353,5.03-2.533,7.697-3.519c-2.815,0.793-5.536,1.789-8.138,2.958  c-0.114-0.193-0.193-0.401-0.238-0.62c2.681-0.971,5.476-1.759,8.375-2.339c-2.904,0.352-5.709,0.912-8.396,1.665  c0.035-0.238,0.104-0.476,0.213-0.724c2.617-0.515,5.347-0.837,8.182-0.941c-2.681-0.149-5.263-0.075-7.731,0.203  c0.179-0.243,0.396-0.481,0.645-0.709c2.26-0.044,4.628,0.119,7.087,0.506c-2.181-0.615-4.272-1.001-6.264-1.17  c0.297-0.213,0.624-0.416,0.971-0.609c1.675,0.367,3.444,0.957,5.293,1.779c-1.472-1.011-2.87-1.784-4.188-2.33  c0.387-0.173,0.793-0.332,1.209-0.476c0.927,0.704,1.918,1.635,2.979,2.805c-0.62-1.304-1.18-2.369-1.685-3.197  c0.436-0.114,0.892-0.213,1.348-0.297c0.069,0.927,0.178,2.086,0.337,3.494c0.312-1.472,0.664-2.701,1.045-3.688  c0.438-0.042,0.879-0.067,1.317-0.074c0.784-0.984,1.585-1.755,2.396-2.32c-0.827,0.02-1.653,0.068-2.479,0.149  c0.436-0.516,0.902-0.798,1.387-0.863c0.944-0.092,1.89-0.149,2.836-0.187c0.537-0.179,1.076-0.275,1.614-0.283  c-13.653,0.218-26.835,6.021-36.163,15.914C16.4,32.25,13.029,39.785,11.315,45.543l0.933-2.819l1.293-3.177  c0.288-0.639,0.59-1.273,0.917-1.893c-0.545,1.204-0.887,2.379-1.041,3.519c-1.09,2.151-1.978,4.391-2.651,6.701  c0.068-0.514,0.182-1.036,0.322-1.56c-0.555,1.983-0.913,3.731-1.14,5.14C9.047,57.078,9.19,61.691,9.401,64.226  c-0.083-1.813-0.048-3.617,0.111-5.404c0.248,1.229,0.694,2.409,1.338,3.524c-0.203,2.537-0.184,5.095,0.079,7.646  c-0.494-0.862-0.879-1.759-1.148-2.687c0.603,3.946,1.371,6.877,2.434,9.792c0.081,0.155,0.148,0.314,0.236,0.467  c0.139,0.458,0.307,0.898,0.461,1.348c0.344,0.854,0.713,1.723,1.114,2.634c1.959,4.452,5,8.906,8.654,12.848  c0.717,0.595,1.5,1.161,2.363,1.69c1.061,1.34,2.211,2.576,3.439,3.708c1.391,1.106,2.825,2.13,4.287,3.044  c2.671,1.67,5.267,2.981,7.764,4.027c0.667,0.21,1.356,0.406,2.074,0.585c0.458,0.261,0.925,0.496,1.396,0.719  c2.272,0.759,4.445,1.309,6.488,1.692c-1.036-0.375-2.047-0.873-3.028-1.505c1.735,0.229,3.563,0.373,5.486,0.432  c0.986,0.788,2.007,1.368,3.038,1.726c-0.554-0.016-1.085-0.053-1.62-0.086c2.369,0.255,4.516,0.326,6.376,0.324  c5.526-0.006,12.346-1.313,17.375-3.34c1.881-0.76,5.946-2.401,10.512-5.496c0.999-0.845,1.909-1.821,2.712-2.931  c1.397-0.877,2.691-1.794,3.871-2.751c-0.472,0.601-0.974,1.165-1.497,1.706c0.31-0.277,0.618-0.555,0.926-0.847  c4.885-4.646,7.413-8.451,9.537-12.163c-0.691,1.094-1.518,2.171-2.474,3.222c0.922-1.834,1.665-3.796,2.215-5.868  c1.149-1.263,2.136-2.557,2.929-3.875c-0.59,2.06-1.372,4.029-2.32,5.907c0.128-0.228,0.256-0.455,0.382-0.683  c2.858-5.145,4.083-10.373,4.896-13.832C110.577,66.51,110.962,60.479,110.646,56.633z M47.38,11.032  c1.045-0.248,2.448-0.555,3.504-0.763c-0.099,0.015-0.154,0.243-0.174,0.689c-0.887,0.159-1.764,0.352-2.622,0.58  c-0.387-0.367-0.719-0.505-0.996-0.436L47.38,11.032z M105.127,37.241c0.244,0.514,0.493,1.045,0.748,1.598  c0.551,1.121,1.068,2.265,1.516,3.45c-0.425-1.042-0.969-2.262-1.516-3.45c-0.183-0.37-0.353-0.747-0.546-1.11  C105.269,37.565,105.197,37.403,105.127,37.241c-0.13-0.299-0.269-0.596-0.423-0.885C104.858,36.646,104.997,36.942,105.127,37.241z   M99.451,28.403c0.793,1.001,1.407,2.062,1.829,3.177c-1.531-1.913-3.241-3.688-5.104-5.303c-0.387-1.021-0.947-1.992-1.671-2.904  C96.31,24.889,97.965,26.569,99.451,28.403z M101.969,35.053c0.029,1.205-0.133,2.454-0.51,3.737  c-1.542-2.086-3.257-4.069-5.12-5.921c0.343-1.175,0.496-2.314,0.466-3.416C98.688,31.183,100.418,33.056,101.969,35.053z   M94.719,36.47c1.809,1.978,3.474,4.074,4.966,6.254c-0.798,1.323-1.779,2.617-2.93,3.875c-1.427-2.28-3.003-4.48-4.718-6.591  C93.088,38.859,93.99,37.675,94.719,36.47z M57.114,40.188c1.625-0.357,3.221-0.773,4.772-1.244c0.912,2.369,1.81,4.822,2.686,7.345  c-1.854,0.56-3.757,1.056-5.693,1.481C58.283,45.178,57.693,42.641,57.114,40.188z M57.827,81.148  c-2.696,0.375-5.412,0.648-8.127,0.807c-0.451-2.612-0.848-5.282-1.185-7.988c2.637-0.153,5.273-0.417,7.89-0.783  C56.861,75.875,57.332,78.541,57.827,81.148z M67.124,53.97c0.827,2.606,1.626,5.248,2.384,7.9c-2.3,0.693-4.669,1.313-7.071,1.843  c-0.585-2.695-1.18-5.392-1.774-8.058C62.862,55.174,65.023,54.609,67.124,53.97z M71.658,69.829  c0.675,2.646,1.299,5.277,1.869,7.864c-2.508,0.764-5.09,1.438-7.711,2.012c-0.531-2.597-1.086-5.247-1.651-7.919  C66.718,71.221,69.221,70.566,71.658,69.829z M69.989,44.41c-1.15-2.423-2.34-4.777-3.564-7.037  c1.453-0.571,2.851-1.189,4.179-1.849c1.511,2.13,2.974,4.366,4.365,6.685C73.389,42.992,71.724,43.731,69.989,44.41z   M71.426,26.059c-0.772,0.625-1.621,1.224-2.537,1.799c-1.879-1.729-3.806-3.325-5.764-4.768c0.634-0.396,1.219-0.808,1.749-1.239  C67.109,23.095,69.295,24.507,71.426,26.059z M66.312,20.508c0.421-0.456,0.777-0.927,1.065-1.407  c2.622,0.817,5.189,1.814,7.677,2.974c-0.422,0.694-0.941,1.377-1.546,2.042C71.173,22.753,68.77,21.544,66.312,20.508z   M74.36,33.433c1.169-0.734,2.254-1.507,3.245-2.305c1.998,1.828,3.911,3.781,5.72,5.833c-1.18,0.952-2.473,1.874-3.876,2.75  C77.834,37.521,76.129,35.42,74.36,33.433z M80.271,28.641c0.779-0.853,1.443-1.725,1.982-2.617c2.315,1.476,4.53,3.097,6.617,4.846  c-0.64,1.065-1.433,2.107-2.359,3.122C84.539,32.085,82.452,30.296,80.271,28.641z M83.449,23.368  c0.252-0.868,0.366-1.71,0.342-2.523c2.424,1.12,4.737,2.404,6.918,3.851c0.029,0.966-0.109,1.972-0.411,3.008  C88.138,26.108,85.848,24.661,83.449,23.368z M88.688,19.338c0.634,0.803,1.13,1.66,1.467,2.557  c-2.151-1.303-4.436-2.438-6.824-3.395c-0.287-0.753-0.699-1.467-1.234-2.141C84.4,17.163,86.605,18.164,88.688,19.338z   M82.671,14.863l1.036,0.535c0.981,0.521,1.868,1.081,2.661,1.69c-1.963-1.065-4.045-1.943-6.215-2.617  c-0.764-0.585-1.636-1.125-2.611-1.611C79.32,13.367,81.035,14.036,82.671,14.863z M75.985,19.998  c-2.577-0.952-5.238-1.735-7.964-2.324c0.139-0.471,0.197-0.922,0.188-1.358c2.751,0.376,5.441,0.957,8.049,1.714  C76.273,18.665,76.184,19.324,75.985,19.998z M67.957,15.051c-0.154-0.406-0.377-0.792-0.664-1.154c2.611,0,5.164,0.218,7.637,0.629  c0.416,0.53,0.738,1.085,0.961,1.675C73.324,15.622,70.667,15.235,67.957,15.051z M74.315,11.567  c0.376,0.104,0.753,0.213,1.125,0.337l-2.448-0.723C73.442,11.305,73.885,11.434,74.315,11.567z M71.377,11.795  c0.758,0.382,1.441,0.803,2.036,1.259c-2.324-0.268-4.718-0.332-7.166-0.173c-0.411-0.317-0.883-0.604-1.408-0.867  C67.069,11.721,69.25,11.652,71.377,11.795z M65.87,10.046c1.066,0.198,2.062,0.446,2.983,0.744  c-1.873-0.045-3.796,0.129-5.749,0.525c-0.639-0.203-1.328-0.372-2.062-0.511C62.679,10.324,64.29,10.076,65.87,10.046z   M61.103,24.215c1.646,1.616,3.267,3.384,4.856,5.272c-1.04,0.516-2.131,1.002-3.265,1.447c-1.265-2.036-2.548-3.954-3.841-5.724  C59.636,24.904,60.39,24.572,61.103,24.215z M56.41,26.059c0.907,1.902,1.829,3.945,2.741,6.1c-1.209,0.367-2.458,0.694-3.722,0.971  c-0.55-2.25-1.081-4.395-1.586-6.402C54.715,26.534,55.572,26.312,56.41,26.059z M53.967,56.864  c0.356,2.706,0.738,5.442,1.145,8.167c-2.468,0.348-4.956,0.6-7.449,0.744c-0.223-2.746-0.396-5.502-0.505-8.238  C49.432,57.409,51.707,57.181,53.967,56.864z M48.476,27.476c0.902-0.05,1.809-0.144,2.706-0.268  c0.089,2.081,0.218,4.296,0.387,6.621c-1.298,0.178-2.612,0.312-3.925,0.386C47.866,31.856,48.144,29.602,48.476,27.476z   M47.147,41.58c1.68-0.099,3.36-0.268,5.025-0.501c0.238,2.513,0.506,5.11,0.808,7.756c-1.987,0.277-3.99,0.48-5.997,0.595  C46.979,46.754,47.038,44.127,47.147,41.58z M43.316,27.322c0.778,0.104,1.605,0.168,2.473,0.193  c-0.749,2.131-1.427,4.396-2.032,6.759c-1.259-0.04-2.458-0.134-3.593-0.283C41.126,31.654,42.177,29.423,43.316,27.322z   M26.491,46.843c1.021-2.547,2.186-5.036,3.484-7.434c1.076,0.431,2.255,0.808,3.524,1.125c-1.056,2.473-1.993,5.035-2.805,7.647  C29.182,47.805,27.78,47.358,26.491,46.843z M28.662,56.121c-0.545,2.686-0.956,5.392-1.224,8.103  c-1.878-0.466-3.623-1.025-5.219-1.665c0.392-2.667,0.952-5.328,1.67-7.959C25.352,55.184,26.942,55.694,28.662,56.121z   M40.283,65.884c-2.389-0.074-4.663-0.253-6.814-0.535c0.124-2.735,0.362-5.477,0.708-8.197c1.967,0.258,4.044,0.421,6.229,0.491  C40.278,60.377,40.239,63.133,40.283,65.884z M35.556,49.088c0.565-2.656,1.239-5.268,2.012-7.795  c1.452,0.188,2.989,0.307,4.599,0.357c-0.456,2.557-0.833,5.188-1.125,7.87C39.119,49.46,37.285,49.316,35.556,49.088z   M36.988,33.398c-0.991-0.244-1.913-0.541-2.75-0.878c1.546-2.19,3.211-4.271,4.985-6.209c0.58,0.228,1.214,0.431,1.898,0.604  C39.644,28.952,38.261,31.124,36.988,33.398z M31.953,31.386c-0.684-0.421-1.284-0.878-1.794-1.374  c1.953-1.942,4.039-3.766,6.254-5.436c0.352,0.342,0.763,0.659,1.234,0.947C35.625,27.347,33.722,29.31,31.953,31.386z   M28.919,28.438c-0.317-0.555-0.545-1.14-0.664-1.75c2.136-1.616,4.421-3.093,6.844-4.406c0.084,0.421,0.238,0.828,0.461,1.209  C33.211,24.993,30.991,26.653,28.919,28.438z M40.69,74.081c0.228,2.71,0.545,5.382,0.957,7.993  c-2.602-0.079-5.085-0.277-7.429-0.585c-0.376-2.606-0.625-5.272-0.748-7.974C35.749,73.813,38.157,74.006,40.69,74.081z   M43.168,89.647c0.584,2.358,1.239,4.533,1.958,6.527c-2.533-0.081-4.941-0.273-7.221-0.571c-0.818-1.996-1.546-4.177-2.166-6.541  C38.083,89.369,40.566,89.567,43.168,89.647z M43.455,12.207c0.634-0.188,1.343-0.159,2.126,0.089  c-0.808,0.278-1.596,0.59-2.344,0.917c-1.15-0.099-2.215,0.01-3.187,0.327C41.141,13.059,42.281,12.613,43.455,12.207z   M36.933,15.086c1.279-0.466,2.667-0.739,4.148-0.803c-0.674,0.377-1.304,0.773-1.889,1.185c-1.779,0.253-3.454,0.699-5,1.343  C35.035,16.206,35.952,15.631,36.933,15.086z M31.878,18.679c1.779-0.828,3.692-1.472,5.719-1.918  c-0.476,0.441-0.897,0.902-1.254,1.373c-2.225,0.664-4.326,1.511-6.284,2.532C30.575,19.988,31.185,19.324,31.878,18.679z   M28.801,22.758c2.082-1.229,4.312-2.294,6.675-3.182c-0.213,0.476-0.352,0.942-0.411,1.397c-2.429,1.105-4.718,2.384-6.864,3.811  C28.29,24.131,28.488,23.452,28.801,22.758z M22.997,45.104c-1.041-0.639-1.958-1.343-2.735-2.096  c1.333-2.359,2.834-4.639,4.495-6.814c0.649,0.634,1.417,1.219,2.29,1.759C25.544,40.251,24.191,42.646,22.997,45.104z   M18.364,40.599c-0.486-0.848-0.828-1.745-1.011-2.676c1.472-2.101,3.132-4.104,4.961-5.987c0.153,0.779,0.441,1.532,0.853,2.24  C21.396,36.218,19.791,38.363,18.364,40.599z M20.564,28.145l0.248-0.297c1.279-1.447,3.038-3.326,4.406-4.684  c0.555-0.525,1.135-1.021,1.735-1.492c-0.887,0.828-1.665,1.68-2.329,2.552c-1.666,1.353-3.177,2.855-4.515,4.5  C20.257,28.532,20.41,28.338,20.564,28.145z M18.185,31.917c1.432-1.805,3.048-3.479,4.827-5.016  c-0.401,0.887-0.654,1.754-0.768,2.597c-1.829,1.715-3.494,3.563-4.976,5.52C17.407,34.012,17.709,32.977,18.185,31.917z   M19.925,52.631c-0.857,2.558-1.546,5.154-2.047,7.771c-1.293-0.798-2.428-1.67-3.395-2.607c0.58-2.552,1.368-5.08,2.334-7.553  C17.699,51.1,18.74,51.898,19.925,52.631z M12.129,54.807c-0.609-1.056-1.031-2.166-1.264-3.325  c0.669-2.399,1.556-4.738,2.642-7.008c0.213,1.061,0.604,2.077,1.155,3.038C13.616,49.891,12.769,52.329,12.129,54.807z   M13.502,73.248c-0.278-2.566-0.322-5.153-0.154-7.736c1.021,0.991,2.225,1.919,3.598,2.766c-0.114,2.622-0.03,5.238,0.263,7.815  C15.792,75.226,14.552,74.273,13.502,73.248z M17.784,87.6c-1.115-2.111-2.042-4.375-2.76-6.778c1.05,1.025,2.29,1.977,3.707,2.845  c0.704,2.389,1.591,4.629,2.651,6.7C20.009,89.519,18.805,88.591,17.784,87.6z M21.545,70.563c1.69,0.674,3.538,1.269,5.531,1.765  c0.029,2.68,0.213,5.337,0.555,7.938c-2.046-0.51-3.95-1.12-5.689-1.818C21.625,75.855,21.496,73.219,21.545,70.563z M25.981,92.65  c-0.997-2.042-1.839-4.252-2.523-6.631c1.745,0.699,3.647,1.308,5.694,1.819c0.654,2.367,1.442,4.56,2.359,6.575  C29.519,93.919,27.671,93.33,25.981,92.65z M33.553,102.74c-1.506-1.313-2.904-2.814-4.173-4.5c1.596,0.639,3.34,1.194,5.219,1.665  c1.14,1.646,2.389,3.098,3.727,4.356C36.606,103.835,35.015,103.325,33.553,102.74z M43.842,105.292  c-1.14-1.224-2.215-2.646-3.207-4.262c2.151,0.277,4.426,0.461,6.81,0.535c0.833,1.602,1.709,3.009,2.626,4.213  C47.891,105.714,45.809,105.546,43.842,105.292z M52.946,96.055c-0.6-1.987-1.18-4.168-1.725-6.526  c2.716-0.159,5.432-0.431,8.127-0.809c0.505,2.364,1.001,4.551,1.491,6.552C58.224,95.638,55.587,95.901,52.946,96.055z   M54.829,101.456c2.488-0.148,4.98-0.396,7.448-0.743c0.466,1.626,0.917,3.059,1.353,4.287c-2.255,0.317-4.529,0.546-6.809,0.679  C56.142,104.47,55.478,103.063,54.829,101.456z M60.974,110.441c-0.693-0.366-1.392-0.951-2.081-1.744  c2.002-0.114,4.004-0.317,5.992-0.595c0.396,0.823,0.768,1.438,1.114,1.838C64.334,110.174,62.654,110.343,60.974,110.441z   M67.337,87.278c2.622-0.575,5.204-1.249,7.712-2.013c0.432,2.385,0.778,4.604,1.046,6.651c-2.438,0.737-4.941,1.392-7.493,1.957  C68.225,91.852,67.803,89.651,67.337,87.278z M75.718,107.806c-1.556,0.47-3.151,0.887-4.772,1.243  c-0.011-0.461-0.064-1.135-0.169-2.007c1.938-0.432,3.842-0.927,5.695-1.486C76.287,106.501,76.04,107.255,75.718,107.806z   M76.793,102.11c-2.102,0.635-4.267,1.199-6.463,1.686c-0.198-1.273-0.44-2.746-0.728-4.401c2.403-0.529,4.768-1.149,7.071-1.844  C76.788,99.252,76.828,100.772,76.793,102.11z M76.233,59.54c-0.922-2.597-1.913-5.169-2.959-7.702  c1.973-0.773,3.865-1.605,5.659-2.502c1.249,2.443,2.419,4.941,3.489,7.468C80.456,57.781,78.389,58.692,76.233,59.54z   M85.347,64.461c0.872,2.567,1.636,5.145,2.27,7.707c-2.141,1.065-4.4,2.062-6.75,2.988c-0.604-2.577-1.303-5.185-2.081-7.795  C81.07,66.463,83.266,65.497,85.347,64.461z M84.435,104.386c-1.328,0.658-2.726,1.273-4.183,1.848  c0.635-0.658,1.18-1.511,1.631-2.552c1.729-0.684,3.4-1.417,4.98-2.205C86.17,102.632,85.356,103.603,84.435,104.386z   M88.604,97.478c-1.8,0.892-3.693,1.729-5.66,2.502c0.253-1.412,0.406-3.003,0.456-4.758c2.155-0.847,4.223-1.763,6.189-2.74  C89.391,94.31,89.06,95.977,88.604,97.478z M83.226,89.449c-0.168-2.086-0.446-4.326-0.843-6.721  c2.354-0.922,4.609-1.923,6.756-2.989c0.361,2.41,0.575,4.685,0.645,6.81C87.701,87.585,85.505,88.551,83.226,89.449z   M87.988,53.702c-1.209-2.453-2.537-4.862-3.97-7.201c1.592-0.996,3.063-2.037,4.4-3.117c1.586,2.225,3.054,4.535,4.382,6.909  C91.333,51.472,89.724,52.612,87.988,53.702z M91.244,61.176c1.839-1.155,3.549-2.364,5.101-3.618  c1.03,2.468,1.897,4.977,2.591,7.504c-1.596,1.293-3.354,2.537-5.247,3.727C93.019,66.241,92.201,63.698,91.244,61.176z   M98.094,91.521c-1.343,1.086-2.815,2.125-4.401,3.122c0.635-1.602,1.126-3.36,1.463-5.259c1.734-1.089,3.345-2.23,4.812-3.414  C99.517,87.952,98.887,89.81,98.094,91.521z M100.779,79.646c-1.551,1.254-3.261,2.463-5.099,3.617  c0.014-2.175-0.139-4.48-0.472-6.903c1.894-1.189,3.653-2.434,5.253-3.727C100.765,75.077,100.868,77.421,100.779,79.646z   M103.253,61.042c-0.719-2.508-1.631-4.981-2.722-7.39c1.22-1.338,2.266-2.711,3.108-4.108c1.134,2.354,2.081,4.782,2.81,7.271  C105.582,58.251,104.506,59.664,103.253,61.042z M108.074,71.633c-0.842,1.397-1.883,2.77-3.103,4.104  c0.145-2.279,0.085-4.664-0.198-7.122c1.255-1.378,2.33-2.79,3.197-4.227C108.238,66.87,108.269,69.288,108.074,71.633z   M108.382,52.518c-0.738-2.468-1.699-4.852-2.864-7.146c0.401-1.363,0.58-2.681,0.545-3.96c1.17,2.235,2.137,4.584,2.88,7.028  C108.977,49.757,108.794,51.115,108.382,52.518z M109.958,67.46c0.218-2.404,0.203-4.866-0.055-7.37  c0.411-1.403,0.595-2.761,0.56-4.079c0.095,0.947,0.154,1.894,0.185,2.83c-0.025,1.83-0.065,4.262-0.198,6.085  C110.374,65.755,110.211,66.598,109.958,67.46z"/>
</svg>