<svg xmlns="http://www.w3.org/2000/svg" xmlns:xlink="http://www.w3.org/1999/xlink" version="1.1" id="Layer_1" x="0px" y="0px" width="100.0px" height="100px" viewBox="0 0 283.46 283.46" enable-background="new 0 0 283.46 283.46" xml:space="preserve">
<g>
	<path d="M140.938,214.844c-1.19-0.597-1.9-1.488-2.049-2.425c-1.466,1.112-1.723,2.588,0.547,3.77v0.003   c0.034,0.019,0.068,0.036,0.104,0.054c2.756,1.385,6.665,1.814,9.442,0.066c0.066-0.04,0.131-0.082,0.193-0.123   c2.041-1.34,2.223-2.42,1.014-3.47c-0.193,0.676-0.697,1.327-1.542,1.858C146.587,215.875,143.188,215.974,140.938,214.844z"/>
	<path d="M163.845,200.691c-1.189-0.598-1.899-1.488-2.051-2.425c-1.487,1.129-1.729,2.632,0.653,3.825   c0.729,0.367,1.542,0.666,2.392,0.875v0.002c1.705,0.422,3.565,0.482,5.238-0.002v-0.002c0.639-0.188,1.25-0.451,1.812-0.808   c2.222-1.396,2.449-2.51,1.207-3.594c-0.194,0.677-0.699,1.329-1.542,1.858C169.492,201.72,166.094,201.82,163.845,200.691z"/>
	<path d="M94.197,202.974c-1.907,0.777-4.458,0.783-6.368,0h-0.004c-0.147-0.061-0.291-0.126-0.431-0.196   c-1.19-0.597-1.9-1.487-2.05-2.422c-1.018,0.771-1.452,1.717-0.862,2.618v0.003c0.272,0.417,0.762,0.825,1.515,1.203   c2.758,1.386,6.665,1.813,9.444,0.065c0.718-0.453,1.228-0.873,1.546-1.272v-0.002c0.669-0.839,0.502-1.586-0.341-2.317   c-0.194,0.676-0.697,1.327-1.542,1.858C94.825,202.688,94.521,202.841,94.197,202.974z"/>
	<path d="M64.487,216.931c-0.42-0.211-0.781-0.458-1.077-0.736h-0.005c-0.541-0.499-0.871-1.085-0.967-1.688   c-0.67,0.509-1.087,1.093-1.127,1.688v0.003c-0.046,0.73,0.471,1.48,1.778,2.136c2.758,1.385,6.666,1.813,9.444,0.066   c1.291-0.812,1.909-1.525,1.956-2.201l0,0c0-0.002,0-0.002,0-0.004c0,0,0,0,0-0.001c0.031-0.479-0.231-0.937-0.749-1.388   c-0.139,0.484-0.438,0.956-0.907,1.384H72.83c-0.185,0.166-0.394,0.324-0.632,0.476C70.136,217.964,66.737,218.059,64.487,216.931z   "/>
	<path d="M99.389,228.042c3.188-2.008-3.16-4.319-6.413-2.272C89.785,227.776,96.135,230.089,99.389,228.042z"/>
	<path d="M110.842,220.964c3.188-2.006-3.16-4.317-6.413-2.271C101.238,220.701,107.588,223.014,110.842,220.964z"/>
	<path d="M136.325,220.271c3.189-2.007-3.159-4.318-6.413-2.271C126.722,220.005,133.071,222.317,136.325,220.271z"/>
	<path d="M129.484,221.919c-1.189-0.598-1.899-1.487-2.048-2.424c-1.488,1.129-1.73,2.631,0.651,3.825   c2.758,1.386,6.666,1.815,9.443,0.066c2.221-1.397,2.452-2.509,1.207-3.593c-0.194,0.678-0.698,1.328-1.542,1.858   C135.134,222.953,131.734,223.05,129.484,221.919z"/>
	<path d="M78.518,223.312c-1.19-0.598-1.899-1.489-2.049-2.424c-1.488,1.128-1.729,2.631,0.652,3.824   c2.757,1.386,6.666,1.812,9.442,0.065c2.223-1.397,2.451-2.509,1.208-3.592c-0.195,0.676-0.699,1.327-1.542,1.856   C84.167,224.344,80.768,224.44,78.518,223.312z"/>
	<path d="M106.578,236.073c-1.19-0.597-1.899-1.487-2.049-2.423c-1.488,1.127-1.729,2.631,0.651,3.824   c2.759,1.386,6.666,1.814,9.444,0.066c2.221-1.396,2.451-2.512,1.207-3.595c-0.194,0.679-0.699,1.328-1.543,1.859   C112.228,237.104,108.827,237.203,106.578,236.073z"/>
	<path d="M118.031,228.998c-1.189-0.598-1.899-1.488-2.048-2.426c-1.488,1.131-1.729,2.631,0.65,3.827   c2.759,1.386,6.666,1.815,9.444,0.065c2.221-1.396,2.451-2.512,1.207-3.594c-0.194,0.676-0.699,1.326-1.543,1.857   C123.681,230.028,120.281,230.126,118.031,228.998z"/>
	<path d="M113.419,234.423c3.189-2.006-3.16-4.32-6.414-2.271C103.815,234.158,110.165,236.47,113.419,234.423z"/>
	<path d="M92.549,229.693c-1.19-0.597-1.9-1.488-2.05-2.425c-1.488,1.129-1.729,2.631,0.652,3.826   c2.758,1.385,6.665,1.813,9.443,0.065c2.221-1.396,2.45-2.511,1.206-3.594c-0.194,0.676-0.698,1.327-1.542,1.859   C98.197,230.724,94.798,230.823,92.549,229.693z"/>
	<path d="M124.872,227.347c3.189-2.008-3.159-4.32-6.414-2.271C115.269,227.082,121.618,229.395,124.872,227.347z"/>
	<path d="M104.002,222.615c-1.19-0.597-1.9-1.488-2.05-2.423c-1.488,1.128-1.729,2.631,0.651,3.825   c2.758,1.385,6.666,1.814,9.444,0.066c2.221-1.398,2.451-2.511,1.207-3.594c-0.194,0.678-0.699,1.327-1.543,1.858   C109.649,223.647,106.251,223.746,104.002,222.615z"/>
	<path d="M85.358,221.662c3.189-2.009-3.159-4.32-6.414-2.271C75.754,221.396,82.104,223.708,85.358,221.662z"/>
	<path d="M82.781,208.203c3.189-2.007-3.159-4.317-6.413-2.271C73.178,207.938,79.527,210.251,82.781,208.203z"/>
	<path d="M159.231,206.117c3.188-2.008-3.16-4.32-6.413-2.271C149.628,205.852,155.979,208.164,159.231,206.117z"/>
	<path d="M152.392,207.768c-1.189-0.597-1.898-1.489-2.049-2.424c-1.488,1.128-1.729,2.631,0.65,3.827   c2.758,1.382,6.666,1.812,9.443,0.063c2.223-1.397,2.45-2.51,1.207-3.593c-0.193,0.677-0.698,1.327-1.543,1.857   C158.041,208.798,154.642,208.895,152.392,207.768z"/>
	<path d="M101.424,209.158c-1.19-0.597-1.899-1.488-2.048-2.423c-1.489,1.128-1.729,2.63,0.65,3.826   c2.759,1.384,6.666,1.813,9.444,0.065c2.221-1.398,2.451-2.51,1.206-3.595c-0.193,0.677-0.697,1.327-1.542,1.858   C107.073,210.189,103.675,210.287,101.424,209.158z"/>
	<path d="M96.812,214.585c3.189-2.008-3.159-4.319-6.413-2.271C87.207,214.32,93.558,216.634,96.812,214.585z"/>
	<path d="M133.748,206.812c3.189-2.008-3.159-4.32-6.413-2.271C124.145,206.546,130.494,208.861,133.748,206.812z"/>
	<path d="M122.295,213.891c3.189-2.009-3.159-4.321-6.414-2.274C112.691,213.625,119.041,215.938,122.295,213.891z"/>
	<path d="M126.907,208.462c-1.189-0.598-1.899-1.488-2.049-2.424c-1.487,1.129-1.729,2.633,0.652,3.826   c2.758,1.385,6.665,1.814,9.443,0.066c2.222-1.398,2.451-2.51,1.207-3.594c-0.194,0.677-0.698,1.328-1.542,1.856   C132.557,209.496,129.158,209.591,126.907,208.462z"/>
	<path d="M120.69,216.186h-0.024c-1.021,0.177-2.112,0.183-3.135,0.005h-0.018c-0.738-0.126-1.442-0.342-2.059-0.65   c-1.19-0.598-1.9-1.487-2.05-2.424c-1.189,0.901-1.581,2.043-0.475,3.074h-0.001c0.278,0.26,0.65,0.512,1.128,0.751   c2.758,1.384,6.665,1.813,9.443,0.065c0.451-0.282,0.82-0.557,1.111-0.817l0,0c1.143-1.03,1.087-1.913,0.096-2.776   c-0.194,0.678-0.699,1.33-1.543,1.86C122.463,215.714,121.605,216.017,120.69,216.186z"/>
	<path d="M75.941,209.854c-1.19-0.597-1.9-1.489-2.05-2.424c-1.487,1.128-1.729,2.631,0.652,3.827   c2.757,1.384,6.665,1.812,9.443,0.063c2.222-1.396,2.45-2.51,1.207-3.593c-0.194,0.677-0.698,1.327-1.542,1.857   C81.59,210.885,78.19,210.983,75.941,209.854z"/>
	<path d="M183.552,205.294l-17.305,10.894l-10.621,6.685l25.402,13.433c0.312,0.164,0.523,0.256,0.86,0.294l0.373-0.188   l27.377-17.297l-5.515-2.93l-19.828-10.534C184.257,205.63,183.675,205.33,183.552,205.294z"/>
	<path d="M108.265,207.509c3.189-2.01-3.159-4.32-6.414-2.272C98.661,207.242,105.011,209.557,108.265,207.509z"/>
	<path d="M134.531,202.971l-0.192,0.006c0.231,0.125,0.444,0.265,0.635,0.412C134.814,203.253,134.667,203.113,134.531,202.971z"/>
	<path d="M147.779,213.194c3.188-2.008-3.16-4.319-6.414-2.274C138.176,212.929,144.524,215.242,147.779,213.194z"/>
	<path d="M71.328,215.28c3.189-2.007-3.16-4.319-6.414-2.271C61.725,215.016,68.073,217.328,71.328,215.28z"/>
	<path d="M112.877,202.082c-1.189-0.598-1.899-1.488-2.048-2.425c-1.282,0.976-1.639,2.224-0.191,3.314h0.001   c0.232,0.175,0.512,0.346,0.842,0.512c2.758,1.386,6.665,1.813,9.443,0.067c0.31-0.195,0.58-0.383,0.813-0.573h0.007   c1.437-1.138,1.457-2.09,0.387-3.021c-0.194,0.676-0.698,1.326-1.543,1.857C118.525,203.114,115.128,203.21,112.877,202.082z"/>
	<path d="M149.813,194.31c-1.19-0.598-1.899-1.488-2.048-2.423c-1.487,1.128-1.729,2.63,0.65,3.825   c2.758,1.385,6.666,1.812,9.443,0.065c2.223-1.397,2.452-2.51,1.207-3.594c-0.193,0.677-0.697,1.327-1.542,1.858   C155.462,195.339,152.064,195.438,149.813,194.31z"/>
	<path d="M138.36,201.387c-1.189-0.599-1.899-1.488-2.049-2.425c-1.488,1.129-1.729,2.633,0.652,3.826   c0.127,0.063,0.257,0.125,0.389,0.183v0.005c2.658,1.199,6.217,1.527,8.847-0.001h0.012c0.065-0.039,0.133-0.079,0.197-0.12   c2.221-1.396,2.45-2.511,1.206-3.594c-0.194,0.677-0.696,1.328-1.542,1.857C144.009,202.417,140.61,202.515,138.36,201.387z"/>
	<path d="M145.201,199.736c3.189-2.007-3.159-4.32-6.413-2.271C135.599,199.472,141.947,201.785,145.201,199.736z"/>
	<path d="M154.078,179.201c3.189-2.006-3.158-4.316-6.414-2.271C144.475,178.938,150.823,181.25,154.078,179.201z"/>
	<path d="M158.69,173.774c-1.19-0.596-1.899-1.487-2.049-2.422c-1.488,1.127-1.729,2.629,0.651,3.825   c2.758,1.385,6.666,1.814,9.443,0.066c2.221-1.398,2.45-2.513,1.207-3.595c-0.195,0.677-0.699,1.329-1.542,1.858   C164.341,174.807,160.939,174.904,158.69,173.774z"/>
	<path d="M168.746,168.1c2.758,1.385,6.666,1.815,9.444,0.067c2.222-1.396,2.452-2.512,1.206-3.592   c-0.193,0.674-0.698,1.326-1.541,1.856c-2.062,1.298-5.463,1.396-7.711,0.267c-1.189-0.598-1.9-1.488-2.049-2.424   C166.607,165.405,166.367,166.907,168.746,168.1z"/>
	<path d="M165.531,172.125c3.19-2.006-3.158-4.318-6.412-2.271C155.928,171.86,162.276,174.173,165.531,172.125z"/>
	<path d="M176.984,165.048c3.189-2.006-3.158-4.319-6.413-2.271C167.382,164.785,173.73,167.096,176.984,165.048z"/>
	<path d="M119.718,200.432c3.19-2.007-3.159-4.319-6.414-2.271C110.114,200.166,116.464,202.479,119.718,200.432z"/>
	<path d="M148.556,23.004l-0.542,0.332c2.437,0.073,2.294,1.914,2.317,5.672v91.08c0,3.198-2.08,7.141-4.584,8.746l-96.596,61.998   c-3.283,1.943-3.26,2.015-4.405,2.119c0.12,0.16,0.264,0.312,0.438,0.438l0.164,0.083l0.143,0.035   c0.347,0.156,0.778,0.105,1.251-0.061c0.226-0.1,3.459-1.994,3.459-1.994l96.137-61.702c2.836-1.821,5.084-6.122,5.084-9.663   v-91.08c0-2.549,0.022-4.009-0.242-4.885C150.417,22.062,148.556,23.004,148.556,23.004z"/>
	<path d="M131.172,193.355c3.189-2.008-3.16-4.32-6.414-2.271C121.568,193.089,127.917,195.402,131.172,193.355z"/>
	<path d="M156.654,192.66c3.189-2.009-3.158-4.32-6.414-2.271C147.05,192.394,153.399,194.707,156.654,192.66z"/>
	<path d="M135.784,187.928c-1.19-0.597-1.9-1.487-2.05-2.421c-1.487,1.128-1.728,2.63,0.652,3.824   c2.759,1.385,6.666,1.812,9.443,0.064c2.221-1.396,2.45-2.51,1.207-3.592c-0.193,0.675-0.699,1.326-1.541,1.857   C141.433,188.96,138.033,189.058,135.784,187.928z"/>
	<path d="M124.331,195.005c-1.19-0.596-1.9-1.486-2.049-2.424c-1.488,1.129-1.729,2.631,0.651,3.828   c2.758,1.383,6.666,1.812,9.443,0.063c2.222-1.396,2.452-2.511,1.207-3.593c-0.194,0.677-0.697,1.328-1.542,1.856   C129.979,196.037,126.58,196.134,124.331,195.005z"/>
	<path d="M142.625,186.277c3.189-2.006-3.16-4.318-6.414-2.271C133.021,186.014,139.37,188.326,142.625,186.277z"/>
	<path d="M147.237,180.852c-1.188-0.599-1.899-1.487-2.049-2.423c-1.487,1.129-1.729,2.632,0.651,3.826   c2.758,1.384,6.664,1.813,9.443,0.065c2.221-1.397,2.451-2.513,1.207-3.594c-0.195,0.675-0.699,1.326-1.543,1.856   C152.886,181.884,149.487,181.981,147.237,180.852z"/>
	<path d="M191.015,171.429c3.189-2.006-3.159-4.319-6.414-2.271C181.412,171.166,187.761,173.478,191.015,171.429z"/>
	<path d="M117.141,186.974c3.19-2.006-3.159-4.318-6.413-2.271C107.538,186.71,113.887,189.021,117.141,186.974z"/>
	<path d="M110.301,188.623c-1.189-0.597-1.9-1.485-2.049-2.42c-1.488,1.127-1.729,2.629,0.651,3.824   c2.758,1.383,6.666,1.814,9.443,0.064c2.223-1.396,2.451-2.51,1.207-3.592c-0.194,0.676-0.698,1.326-1.543,1.857   C115.948,189.655,112.551,189.753,110.301,188.623z"/>
	<path d="M121.753,181.548c-1.188-0.598-1.899-1.487-2.049-2.424c-1.487,1.129-1.729,2.633,0.652,3.826   c2.758,1.383,6.666,1.812,9.444,0.065c2.222-1.397,2.451-2.513,1.206-3.595c-0.194,0.676-0.698,1.328-1.542,1.858   C127.402,182.58,124.003,182.677,121.753,181.548z"/>
	<path d="M98.848,195.701c-1.19-0.598-1.9-1.488-2.05-2.424c-1.486,1.128-1.729,2.631,0.652,3.826   c2.758,1.385,6.665,1.814,9.443,0.064c2.222-1.396,2.451-2.51,1.206-3.592c-0.193,0.676-0.697,1.327-1.542,1.857   C104.495,196.732,101.097,196.83,98.848,195.701z"/>
	<path d="M94.234,201.128c3.189-2.008-3.159-4.319-6.413-2.272C84.632,200.862,90.98,203.175,94.234,201.128z"/>
	<path d="M128.594,179.897c3.19-2.006-3.159-4.319-6.413-2.271C118.992,179.632,125.341,181.944,128.594,179.897z"/>
	<path d="M161.268,187.234c-1.19-0.599-1.899-1.49-2.049-2.424c-1.488,1.128-1.729,2.631,0.651,3.824   c2.758,1.384,6.666,1.813,9.443,0.066c2.223-1.398,2.451-2.511,1.207-3.593c-0.193,0.675-0.698,1.327-1.542,1.856   C166.917,188.266,163.518,188.361,161.268,187.234z"/>
	<path d="M154.716,161.72c2.759,1.385,6.666,1.814,9.443,0.066c2.223-1.396,2.45-2.511,1.207-3.594   c-0.193,0.676-0.697,1.327-1.543,1.859c-2.062,1.297-5.461,1.395-7.71,0.266c-1.19-0.599-1.899-1.49-2.05-2.425   C152.578,159.023,152.335,160.527,154.716,161.72z"/>
	<path d="M151.5,165.746c3.19-2.008-3.158-4.32-6.412-2.273C141.897,165.479,148.248,167.792,151.5,165.746z"/>
	<path d="M162.955,158.669c3.189-2.008-3.16-4.32-6.414-2.274C153.351,158.403,159.701,160.716,162.955,158.669z"/>
	<path d="M140.047,172.819c3.19-2.006-3.159-4.317-6.413-2.271C130.444,172.556,136.793,174.869,140.047,172.819z"/>
	<path d="M133.207,174.472c-1.189-0.598-1.9-1.49-2.05-2.424c-1.487,1.128-1.728,2.63,0.652,3.826   c2.758,1.385,6.666,1.814,9.444,0.064c2.221-1.396,2.452-2.511,1.208-3.593c-0.195,0.676-0.699,1.325-1.543,1.858   C138.855,175.501,135.456,175.602,133.207,174.472z"/>
	<path d="M144.66,167.395c-1.188-0.599-1.898-1.488-2.049-2.422c-1.487,1.127-1.729,2.629,0.652,3.823   c2.758,1.385,6.665,1.814,9.441,0.066c2.223-1.396,2.453-2.512,1.209-3.593c-0.195,0.676-0.699,1.326-1.543,1.858   C150.309,168.427,146.91,168.524,144.66,167.395z"/>
	<path d="M105.688,194.05c3.189-2.008-3.16-4.317-6.414-2.271C96.085,193.787,102.434,196.099,105.688,194.05z"/>
	<path d="M175.298,193.614c-1.189-0.598-1.9-1.489-2.051-2.424c-1.485,1.128-1.728,2.631,0.653,3.826   c2.757,1.385,6.665,1.813,9.442,0.065c2.222-1.398,2.451-2.511,1.207-3.594c-0.195,0.676-0.697,1.327-1.543,1.856   C180.947,194.646,177.548,194.744,175.298,193.614z"/>
	<path d="M170.684,199.041c3.19-2.008-3.159-4.319-6.413-2.271C161.082,198.775,167.431,201.089,170.684,199.041z"/>
	<path d="M182.776,174.482c2.759,1.385,6.666,1.814,9.444,0.066c2.222-1.397,2.451-2.512,1.205-3.594   c-0.192,0.676-0.696,1.326-1.541,1.857c-2.062,1.298-5.461,1.396-7.711,0.266c-1.19-0.598-1.899-1.488-2.049-2.421   C180.637,171.785,180.396,173.289,182.776,174.482z"/>
	<path d="M172.722,180.156c-1.191-0.598-1.9-1.486-2.051-2.424c-1.487,1.127-1.729,2.632,0.652,3.827   c2.758,1.383,6.665,1.813,9.443,0.065c2.222-1.397,2.451-2.512,1.207-3.594c-0.195,0.676-0.698,1.327-1.542,1.857   C178.369,181.188,174.971,181.285,172.722,180.156z"/>
	<path d="M179.561,178.507c3.188-2.008-3.158-4.32-6.413-2.272C169.958,178.242,176.308,180.555,179.561,178.507z"/>
	<path d="M182.139,191.964c3.188-2.01-3.16-4.32-6.413-2.272C172.535,191.697,178.884,194.013,182.139,191.964z"/>
	<path d="M205.044,177.811c3.189-2.006-3.16-4.319-6.414-2.272C195.441,177.544,201.791,179.858,205.044,177.811z"/>
	<path d="M168.108,185.582c3.188-2.006-3.16-4.317-6.414-2.271C158.503,185.317,164.854,187.63,168.108,185.582z"/>
	<path d="M196.807,180.864c2.759,1.382,6.665,1.812,9.444,0.065c2.221-1.397,2.451-2.51,1.205-3.594   c-0.192,0.676-0.699,1.326-1.541,1.857c-2.062,1.297-5.461,1.395-7.711,0.266c-1.189-0.598-1.899-1.485-2.05-2.422   C194.667,178.166,194.427,179.667,196.807,180.864z"/>
	<path d="M186.751,186.537c-1.19-0.598-1.901-1.488-2.051-2.423c-1.488,1.128-1.728,2.632,0.652,3.825   c2.758,1.385,6.666,1.812,9.443,0.066c2.223-1.397,2.451-2.512,1.207-3.592c-0.193,0.676-0.698,1.326-1.543,1.856   C192.4,187.569,189.001,187.666,186.751,186.537z"/>
	<path d="M193.591,184.887c3.189-2.007-3.159-4.318-6.413-2.271C183.987,184.623,190.337,186.936,193.591,184.887z"/>
	<path d="M97.28,216.191v0.006c-2.081,1.077-5.2,1.098-7.31,0.038c-0.026-0.014-0.052-0.026-0.079-0.043h-0.004   c-1.14-0.597-1.82-1.467-1.966-2.382c-0.927,0.703-1.37,1.553-0.997,2.382h0.001c0.227,0.502,0.752,0.995,1.648,1.445   c2.758,1.384,6.665,1.812,9.443,0.063c0.863-0.543,1.426-1.044,1.718-1.511v-0.004c0.459-0.742,0.249-1.417-0.511-2.078   c-0.195,0.677-0.698,1.328-1.542,1.856C97.553,216.048,97.419,216.125,97.28,216.191z"/>
	<path d="M257.335,193.858L155.41,142.705c-1.306-0.679-2.406-1.062-3.369-1.236l0.006-0.37l3.433-2.202   c2.63-1.688,4.772-5.767,4.772-9.097V6.412c0-1.958-0.722-3.166-1.823-3.51c-3.615-1.459-6.951-3.31-10.964-1.305l-1.899,1.071   L33.676,74.405c-2.921,1.876-5.21,6.266-5.21,9.893l0.001,118.68v4.721c0.184,4.887,2.62,5.025,6.249,6.549l1.136,0.45   c-0.086,0.438-0.18,0.941-0.274,1.494h-0.001c-0.199,1.147-0.402,2.498-0.545,3.884c-0.226,2.188,1.297,3.981,1.083,6.204   l-0.116,1.074c-0.077,0.964,0.144,1.815,1.065,2.258l39.134,19.63l62.806,31.506c3.064,1.537,7.707,1.4,10.507-0.36l49.496-31.154   l52.512-33.049h0.001l4.967-3.126c1.798-1.131,1.964-5.546,2.136-7.419c0.516-0.535,0.453-1.615,0.453-1.615l0.062-1.062   l0.355-6.047c0.03-0.16,0.041-0.322,0.029-0.483C259.462,195.487,258.735,194.561,257.335,193.858z M212.943,219.603l-29.516,18.65   c-1.098,0.58-1.592,0.947-3.422-0.024l-26.84-14.19c-1.109-0.6-1.184-1.384-0.521-1.863l29.932-18.838   c1.129-0.623,2.338,0.176,2.739,0.389c0,0,27.837,14.806,27.897,14.854C213.537,218.82,213.578,219.212,212.943,219.603z    M197.214,174.555c0.162-0.14,0.346-0.273,0.546-0.4c2.063-1.297,5.462-1.396,7.711-0.266c0.618,0.31,1.104,0.698,1.452,1.13   c3.188,1.641,4.488,4.594,0.197,7.295c-3.754,2.361-9.36,1.467-12.113-0.695c0.175,0.151,0.33,0.312,0.464,0.479   c3.187,1.639,4.487,4.594,0.196,7.294c-3.756,2.362-9.362,1.467-12.113-0.695c0.175,0.151,0.328,0.312,0.464,0.478   c3.187,1.64,4.487,4.596,0.198,7.295c-3.758,2.363-9.364,1.468-12.114-0.694c0.175,0.149,0.328,0.312,0.462,0.478   c2.961,1.523,4.296,4.187,1.021,6.719v0.004c-0.248,0.191-0.521,0.381-0.823,0.57c-3.681,2.317-9.144,1.502-11.947-0.573   l-0.01-0.002c-0.056-0.038-0.106-0.077-0.158-0.118c0.044,0.037,0.088,0.077,0.128,0.12l0.008,0.001   c0.118,0.115,0.229,0.234,0.327,0.355c3.187,1.641,4.49,4.596,0.199,7.293c-3.756,2.365-9.362,1.471-12.114-0.693   c0.176,0.15,0.329,0.312,0.463,0.479c2.602,1.34,3.947,3.553,2.019,5.786v0.005c-0.433,0.502-1.032,1.008-1.819,1.502   c-3.757,2.364-9.363,1.469-12.113-0.693c0.174,0.15,0.328,0.311,0.461,0.478c3.188,1.64,4.49,4.595,0.198,7.294   c-3.755,2.363-9.362,1.467-12.112-0.695c0.174,0.15,0.328,0.312,0.462,0.478c3.187,1.642,4.488,4.595,0.197,7.295   c-3.755,2.364-9.362,1.468-12.113-0.696c0.175,0.152,0.329,0.312,0.462,0.479c3.187,1.642,4.489,4.596,0.198,7.294   c-6.706,4.221-19.318-1.952-11.022-7.171c0.356-0.224,0.729-0.419,1.114-0.587c0.164-0.139,0.346-0.272,0.548-0.398   c2.062-1.298,5.461-1.396,7.711-0.268c0.297,0.146,0.563,0.315,0.798,0.496c-1.99-1.691-2.259-4.092,1.282-6.321   c0.356-0.224,0.729-0.417,1.114-0.585c0.164-0.139,0.347-0.273,0.548-0.399c2.062-1.297,5.461-1.396,7.711-0.268   c0.297,0.147,0.562,0.315,0.798,0.498c-1.99-1.693-2.258-4.095,1.281-6.321c0.357-0.225,0.731-0.42,1.116-0.587   c0.163-0.14,0.346-0.272,0.547-0.399c0.258-0.162,0.537-0.307,0.83-0.425v-0.005c1.947-0.824,4.593-0.827,6.539,0.005   c0.116,0.05,0.23,0.103,0.342,0.158c0.297,0.149,0.563,0.315,0.799,0.498c-0.245-0.208-0.464-0.427-0.652-0.656H136.9   c-1.346-1.626-1.169-3.712,1.935-5.666c0.356-0.223,0.729-0.418,1.115-0.586c0.163-0.139,0.346-0.272,0.547-0.399   c2.062-1.297,5.461-1.396,7.711-0.266c0.297,0.146,0.562,0.312,0.799,0.496c-1.99-1.693-2.26-4.094,1.281-6.32   c0.279-0.176,0.57-0.334,0.869-0.478h0.004c0.078-0.037,0.159-0.073,0.241-0.108c0.164-0.141,0.347-0.272,0.548-0.4   c2.062-1.299,5.461-1.396,7.711-0.266c0.297,0.147,0.563,0.313,0.799,0.496c-1.991-1.693-2.26-4.094,1.281-6.32   c0.355-0.225,0.729-0.42,1.114-0.588c0.164-0.14,0.347-0.271,0.548-0.398c2.062-1.299,5.461-1.396,7.709-0.268   c0.299,0.149,0.565,0.316,0.801,0.498c-1.99-1.692-2.26-4.094,1.281-6.322c0.354-0.225,0.73-0.42,1.115-0.586   c0.163-0.139,0.345-0.272,0.548-0.398c2.062-1.298,5.46-1.396,7.709-0.268c0.298,0.148,0.562,0.314,0.8,0.498   c-1.99-1.692-2.26-4.094,1.28-6.321c0.356-0.226,0.729-0.421,1.116-0.587c0.163-0.141,0.345-0.273,0.547-0.399   c2.062-1.299,5.461-1.396,7.71-0.267c0.297,0.15,0.563,0.316,0.799,0.498c-1.991-1.692-2.259-4.096,1.281-6.32   C196.455,174.917,196.828,174.723,197.214,174.555z M183.183,168.173c0.163-0.139,0.347-0.272,0.548-0.399   c2.062-1.298,5.461-1.396,7.711-0.267c0.616,0.312,1.104,0.697,1.451,1.13c3.187,1.642,4.487,4.595,0.198,7.297   c-3.756,2.36-9.362,1.466-12.113-0.695c0.174,0.151,0.328,0.312,0.463,0.478c3.188,1.638,4.488,4.595,0.198,7.295   c-3.757,2.361-9.364,1.466-12.114-0.696c0.173,0.151,0.328,0.312,0.462,0.478c3.187,1.641,4.49,4.595,0.197,7.293   c-3.755,2.365-9.361,1.47-12.112-0.692c0.174,0.149,0.328,0.312,0.463,0.478c3.186,1.64,4.487,4.594,0.197,7.295   c-3.755,2.36-9.361,1.467-12.113-0.695c0.174,0.15,0.327,0.311,0.461,0.479c2.688,1.383,4.037,3.701,1.814,6.021h-0.003   c-0.412,0.427-0.945,0.854-1.612,1.272c-3.756,2.362-9.363,1.469-12.114-0.693c0.175,0.15,0.329,0.311,0.463,0.477   c3.187,1.641,4.488,4.596,0.197,7.295c-3.755,2.363-9.362,1.467-12.112-0.695c0.174,0.151,0.327,0.312,0.462,0.479   c2.33,1.198,3.653,3.101,2.517,5.091v0.001c-0.418,0.732-1.167,1.478-2.319,2.2c-3.756,2.365-9.362,1.469-12.113-0.693   c0.174,0.15,0.328,0.312,0.462,0.478c3.187,1.64,4.489,4.595,0.198,7.293c-3.756,2.366-9.362,1.47-12.113-0.694   c0.174,0.151,0.329,0.312,0.462,0.479c3.187,1.641,4.489,4.595,0.198,7.294c-6.706,4.221-19.318-1.951-11.023-7.173   c0.356-0.224,0.73-0.416,1.116-0.584c0.163-0.14,0.346-0.274,0.547-0.399c2.062-1.298,5.461-1.396,7.711-0.269   c0.296,0.148,0.563,0.314,0.799,0.498c-1.991-1.693-2.26-4.095,1.281-6.321c0.356-0.224,0.729-0.419,1.115-0.586   c0.162-0.14,0.346-0.273,0.547-0.4c2.062-1.298,5.461-1.396,7.711-0.266c0.297,0.147,0.563,0.313,0.798,0.495   c-0.484-0.411-0.867-0.866-1.118-1.35v-0.002c-0.776-1.501-0.277-3.283,2.4-4.969c0.356-0.225,0.729-0.419,1.116-0.587   c0.162-0.14,0.345-0.272,0.546-0.399c2.062-1.298,5.461-1.396,7.71-0.266c0.298,0.146,0.564,0.314,0.799,0.496   c-1.99-1.691-2.258-4.092,1.282-6.322c0.356-0.223,0.729-0.418,1.115-0.586c0.163-0.137,0.346-0.271,0.547-0.398   c0.101-0.062,0.205-0.125,0.312-0.184h0.004c2.081-1.121,5.257-1.156,7.396-0.083c0.057,0.028,0.11,0.058,0.164,0.08h0.192   c-1.567-1.658-1.534-3.854,1.724-5.903c0.356-0.225,0.729-0.42,1.115-0.587c0.163-0.14,0.345-0.272,0.547-0.399   c2.062-1.299,5.46-1.396,7.71-0.268c0.298,0.15,0.562,0.316,0.8,0.498c-1.991-1.691-2.259-4.094,1.28-6.322   c0.356-0.225,0.729-0.418,1.115-0.586c0.164-0.139,0.346-0.271,0.547-0.398c2.062-1.297,5.463-1.396,7.711-0.268   c0.299,0.148,0.562,0.315,0.801,0.498c-1.992-1.693-2.26-4.095,1.279-6.322c0.356-0.224,0.729-0.42,1.117-0.586   c0.161-0.14,0.344-0.271,0.547-0.399c2.062-1.298,5.461-1.396,7.711-0.267c0.295,0.149,0.562,0.315,0.797,0.496   c-1.989-1.689-2.258-4.093,1.283-6.318c0.354-0.227,0.729-0.422,1.114-0.588c0.162-0.141,0.347-0.273,0.547-0.4   c2.062-1.297,5.462-1.395,7.712-0.265c0.295,0.147,0.562,0.315,0.799,0.497c-1.992-1.692-2.26-4.094,1.279-6.321   C182.425,168.535,182.798,168.339,183.183,168.173z M169.153,161.792c0.162-0.14,0.347-0.272,0.546-0.398   c2.064-1.298,5.463-1.396,7.713-0.268c0.616,0.311,1.104,0.697,1.451,1.131c3.186,1.642,4.488,4.594,0.197,7.295   c-3.755,2.361-9.363,1.466-12.111-0.695c0.172,0.15,0.326,0.311,0.459,0.477c3.188,1.641,4.49,4.595,0.199,7.297   c-3.755,2.361-9.363,1.466-12.113-0.696c0.174,0.151,0.328,0.312,0.463,0.478c3.187,1.642,4.487,4.594,0.197,7.295   c-3.755,2.362-9.363,1.467-12.113-0.694c0.174,0.151,0.33,0.311,0.463,0.476c3.187,1.643,4.488,4.596,0.197,7.295   c-3.756,2.363-9.363,1.469-12.113-0.693c0.174,0.152,0.328,0.312,0.462,0.478c3.186,1.64,4.489,4.595,0.198,7.295   c-3.756,2.362-9.363,1.468-12.113-0.694c0.174,0.149,0.328,0.31,0.462,0.477c2.419,1.247,3.752,3.249,2.375,5.327h-0.002   c-0.438,0.655-1.146,1.319-2.176,1.967c-3.755,2.362-9.362,1.468-12.113-0.694c0.175,0.15,0.329,0.312,0.462,0.478   c3.187,1.64,4.489,4.595,0.198,7.295c-3.756,2.362-9.363,1.469-12.113-0.695c0.175,0.151,0.328,0.312,0.462,0.479   c2.057,1.058,3.328,2.662,2.817,4.396c-0.28,0.952-1.099,1.941-2.619,2.897c-3.756,2.363-9.363,1.468-12.113-0.694   c0.175,0.151,0.329,0.312,0.462,0.478c3.187,1.641,4.489,4.596,0.198,7.293c-6.706,4.222-19.318-1.951-11.022-7.172   c0.355-0.223,0.729-0.418,1.115-0.586c0.163-0.139,0.345-0.271,0.547-0.399c2.062-1.298,5.461-1.396,7.71-0.267   c0.298,0.149,0.564,0.315,0.8,0.498c-0.712-0.604-1.203-1.301-1.38-2.045v-0.002c-0.316-1.34,0.386-2.844,2.661-4.273   c0.355-0.225,0.729-0.42,1.115-0.588c0.163-0.139,0.345-0.272,0.547-0.398c2.062-1.299,5.462-1.396,7.711-0.268   c0.296,0.147,0.563,0.315,0.799,0.496c-1.991-1.691-2.26-4.094,1.281-6.32c0.356-0.225,0.729-0.417,1.115-0.588   c0.163-0.137,0.345-0.271,0.547-0.397c0.657-0.413,1.451-0.705,2.299-0.877h0.013c1.157-0.229,2.416-0.229,3.574-0.003v0.005   c0.652,0.128,1.273,0.331,1.825,0.608c0.296,0.148,0.563,0.316,0.799,0.498c-0.404-0.346-0.737-0.719-0.982-1.111   c-0.96-1.55-0.557-3.436,2.263-5.211c0.357-0.225,0.73-0.419,1.116-0.586c0.163-0.141,0.346-0.271,0.547-0.4   c2.062-1.298,5.462-1.395,7.711-0.266c0.297,0.15,0.562,0.316,0.8,0.497c-1.992-1.691-2.26-4.093,1.279-6.321   c0.357-0.225,0.73-0.419,1.116-0.586c0.163-0.141,0.346-0.271,0.547-0.4c2.062-1.297,5.461-1.396,7.712-0.266   c0.296,0.148,0.562,0.314,0.799,0.497c-1.992-1.692-2.26-4.097,1.28-6.321c0.357-0.225,0.729-0.42,1.115-0.587   c0.164-0.14,0.346-0.271,0.547-0.399c2.062-1.297,5.462-1.396,7.711-0.267c0.298,0.149,0.562,0.316,0.8,0.498   c-1.992-1.692-2.26-4.095,1.28-6.321c0.355-0.225,0.729-0.42,1.115-0.588c0.164-0.139,0.346-0.271,0.547-0.397   c2.062-1.298,5.461-1.396,7.711-0.269c0.298,0.149,0.563,0.316,0.8,0.498c-1.991-1.691-2.259-4.093,1.28-6.32   c0.356-0.227,0.729-0.42,1.115-0.588c0.162-0.139,0.346-0.271,0.547-0.398c2.063-1.297,5.461-1.396,7.711-0.268   c0.297,0.148,0.562,0.316,0.799,0.498c-1.991-1.691-2.258-4.095,1.281-6.32C168.395,162.155,168.767,161.96,169.153,161.792z    M154.007,155.998c0.356-0.225,0.73-0.418,1.115-0.586c0.164-0.139,0.347-0.273,0.547-0.399c2.062-1.296,5.461-1.394,7.711-0.267   c0.617,0.311,1.104,0.698,1.451,1.131c3.188,1.64,4.489,4.594,0.198,7.293c-3.756,2.365-9.362,1.469-12.112-0.693   c0.174,0.15,0.328,0.311,0.461,0.477c3.187,1.642,4.49,4.596,0.199,7.295c-3.757,2.363-9.363,1.467-12.115-0.694   c0.176,0.151,0.33,0.312,0.463,0.479c3.186,1.639,4.49,4.592,0.198,7.293c-3.755,2.361-9.362,1.467-12.114-0.693   c0.175,0.15,0.33,0.31,0.463,0.476c3.187,1.642,4.489,4.595,0.198,7.295c-3.755,2.362-9.362,1.468-12.114-0.694   c0.175,0.15,0.329,0.311,0.463,0.477c3.187,1.641,4.488,4.596,0.198,7.295c-3.755,2.362-9.362,1.467-12.113-0.693   c0.174,0.15,0.328,0.311,0.462,0.478c3.186,1.638,4.488,4.594,0.198,7.294c-3.755,2.361-9.362,1.466-12.114-0.695   c0.174,0.15,0.328,0.311,0.463,0.477c2.146,1.105,3.438,2.81,2.739,4.632h-0.002c-0.339,0.879-1.144,1.784-2.539,2.663   c-3.756,2.363-9.363,1.468-12.114-0.693c0.174,0.148,0.329,0.311,0.463,0.479c3.186,1.638,4.487,4.594,0.197,7.293   c-3.755,2.361-9.362,1.468-12.113-0.694c0.174,0.149,0.329,0.31,0.463,0.478c1.778,0.916,2.971,2.242,2.93,3.705   c-0.034,1.155-0.838,2.397-2.732,3.588c-5.176,3.258-13.872,0.324-13.754-3.586c0.035-1.154,0.84-2.396,2.73-3.584   c0.357-0.224,0.73-0.42,1.115-0.586c0.164-0.14,0.347-0.272,0.547-0.4c2.062-1.299,5.462-1.396,7.712-0.268   c0.297,0.148,0.562,0.316,0.799,0.497c-1.991-1.69-2.259-4.093,1.28-6.321c0.357-0.225,0.73-0.418,1.116-0.586   c0.163-0.14,0.346-0.271,0.547-0.399c2.062-1.298,5.461-1.396,7.712-0.267c0.296,0.148,0.562,0.314,0.798,0.498   c-0.636-0.541-1.096-1.154-1.312-1.807v-0.005c-0.462-1.397,0.184-2.996,2.594-4.511c0.355-0.226,0.729-0.42,1.115-0.588   c0.162-0.14,0.346-0.271,0.547-0.398c2.062-1.298,5.461-1.396,7.711-0.266c0.297,0.147,0.563,0.314,0.799,0.496   c-1.991-1.691-2.259-4.093,1.281-6.32c0.356-0.225,0.729-0.42,1.115-0.588c0.163-0.139,0.346-0.271,0.547-0.398   c2.062-1.298,5.461-1.396,7.711-0.268c0.297,0.15,0.564,0.316,0.8,0.498c-1.992-1.692-2.26-4.094,1.28-6.32   c0.356-0.227,0.729-0.421,1.116-0.587c0.162-0.14,0.345-0.271,0.547-0.399c2.062-1.3,5.46-1.396,7.711-0.267   c0.296,0.147,0.562,0.315,0.799,0.497c-1.993-1.693-2.259-4.096,1.28-6.32c0.356-0.225,0.729-0.42,1.116-0.587   c0.162-0.14,0.345-0.272,0.547-0.399c2.062-1.297,5.46-1.397,7.711-0.27c0.296,0.15,0.562,0.316,0.799,0.499   c-1.992-1.69-2.259-4.093,1.281-6.321c0.356-0.225,0.729-0.418,1.115-0.586c0.162-0.139,0.345-0.273,0.547-0.4   c2.062-1.295,5.461-1.395,7.711-0.267c0.297,0.147,0.562,0.315,0.799,0.498c-1.992-1.692-2.259-4.095,1.281-6.321   c0.355-0.225,0.729-0.42,1.115-0.586c0.162-0.141,0.346-0.272,0.547-0.398c2.062-1.299,5.461-1.396,7.711-0.27   c0.296,0.15,0.562,0.318,0.798,0.5C150.734,160.626,150.468,158.227,154.007,155.998z M153.178,120.884   c0,3.714-2.331,8.193-5.337,10.122l-99.07,63.585c-3.533,2.268-6.513,0.146-6.513-3.916V95.776c0-3.713,2.331-8.193,5.336-10.121   l99.069-63.586c3.534-2.269,6.515-0.146,6.515,3.916V120.884L153.178,120.884z M258.854,197.28c0,0-0.042,0.117-0.173,0.33   c-1.167,1.892-5.068,4.138-6.854,5.222l-102.16,64.252c-2.455,1.545-6.689,1.688-9.437,0.309L104.06,249.24l-65.762-33.005   c-0.026-0.012-0.053-0.026-0.078-0.039c-0.222-0.114-0.435-0.237-0.634-0.37c-0.887-0.775-0.833-1.221-0.911-1.994   c-0.023-0.234-0.331-0.486-0.844-1c-0.405-0.608-0.641-1.479-0.641-2.595V86.85c0-3.33,2.146-7.408,4.775-9.097L154.312,4.358   l0.723-0.457l1.611-1.009c1.086-0.682,2.107,0.946,1.021,1.628l-1.888,1.187l-0.444,0.278L41.005,79.371   c-2.038,1.31-3.89,4.755-3.89,7.479v123.386c0,2.001,0.578,1.977,1.674,1.273L145.065,143.3l3.856-2.376   c1.088-0.677,2.104,0.956,1.016,1.632l-4.547,2.824L39.828,213.126c-0.232,0.148-0.462,0.272-0.687,0.375l-0.37,0.15l-0.58,0.233   c0.273,0.243,0.553,0.422,0.97,0.631l3.345,1.679l65.841,33.044l32.746,16.433c2.187,1.098,5.702,0.947,7.551-0.217l25.775-16.22   h0.002l52.524-33.053l0,0l26.931-16.946l0.902-0.595c0.697-0.464,1.789-1.271,2.266-2.04   C257.559,195.367,259.337,196.094,258.854,197.28z"/>
</g>
</svg>