<svg xmlns="http://www.w3.org/2000/svg" xmlns:xlink="http://www.w3.org/1999/xlink" version="1.1" id="Layer_1" x="0px" y="0px" width="100px" height="100px" viewBox="0 0 100 100" enable-background="new 0 0 100 100" xml:space="preserve">
<rect fill="none" width="100" height="100"/>
<path fill="none" d="M18.029,74.038c-3.159,0-5.724,2.419-5.724,5.405c0,2.979,2.565,5.397,5.724,5.397  c3.167,0,5.732-2.419,5.732-5.397C23.761,76.457,21.195,74.038,18.029,74.038z"/>
<ellipse fill="none" cx="25.286" cy="56.772" rx="9.525" ry="8.594"/>
<path fill="none" d="M50.248,62.891c0-2.986-2.565-5.405-5.732-5.405c-3.159,0-5.724,2.419-5.724,5.405  c0,2.979,2.565,5.397,5.724,5.397C47.683,68.288,50.248,65.869,50.248,62.891z"/>
<path fill="none" d="M48.877,26.491c-1.296,1.465-4.053,2.483-7.271,2.483c-4.458,0-8.072-1.942-8.072-4.342  c0-1.423,1.292-2.678,3.26-3.47l-6.295-2.776c-11.494,4.312-17.86,11.985-21.207,17.77h61.501L48.877,26.491z"/>
<path fill="none" d="M79.759,66.47c-3.159,0-5.724,2.419-5.724,5.405c0,2.979,2.565,5.397,5.724,5.397  c3.167,0,5.732-2.419,5.732-5.397C85.491,68.889,82.925,66.47,79.759,66.47z"/>
<path fill="none" d="M57.084,71.236c-5.176,0-9.372,4.244-9.372,9.469c0,5.229,4.196,9.466,9.372,9.466  c5.179,0,9.375-4.237,9.375-9.466C66.459,75.48,62.263,71.236,57.084,71.236z"/>
<path fill="none" d="M55.213,42.308c-0.462,0.98-0.732,2.055-0.732,3.196c0,4.342,3.737,7.865,8.342,7.865  c4.608,0,8.346-3.523,8.346-7.865c0-1.142-0.271-2.216-0.732-3.196H55.213z"/>
<path d="M100,54.211V42.308L30.769,11.779C5.394,19.911,0,42.308,0,42.308V92.45c0,2.018,1.566,3.558,3.546,3.558  c0.098,0,0.199-0.004,0.3-0.012l92.308-7.234c2.119-0.165,3.846-2.028,3.846-4.146v-14.81c0,0-7.831-2.193-7.831-7.798  C92.169,56.404,100,54.211,100,54.211z M30.499,18.386l6.295,2.776c-1.968,0.792-3.26,2.047-3.26,3.47  c0,2.4,3.613,4.342,8.072,4.342c3.219,0,5.976-1.018,7.271-2.483l21.917,9.664H9.292C12.639,30.371,19.005,22.698,30.499,18.386z   M18.029,84.841c-3.159,0-5.724-2.419-5.724-5.397c0-2.986,2.565-5.405,5.724-5.405c3.167,0,5.732,2.419,5.732,5.405  C23.761,82.422,21.195,84.841,18.029,84.841z M25.286,65.366c-5.259,0-9.525-3.847-9.525-8.591c0-4.747,4.267-8.597,9.525-8.597  c5.262,0,9.529,3.85,9.529,8.597C34.814,61.52,30.548,65.366,25.286,65.366z M38.792,62.891c0-2.986,2.565-5.405,5.724-5.405  c3.167,0,5.732,2.419,5.732,5.405c0,2.979-2.565,5.397-5.732,5.397C41.357,68.288,38.792,65.869,38.792,62.891z M57.084,90.171  c-5.176,0-9.372-4.237-9.372-9.466c0-5.225,4.196-9.469,9.372-9.469c5.179,0,9.375,4.244,9.375,9.469  C66.459,85.934,62.263,90.171,57.084,90.171z M62.823,53.369c-4.605,0-8.342-3.523-8.342-7.865c0-1.142,0.271-2.216,0.732-3.196  h15.223c0.462,0.98,0.732,2.055,0.732,3.196C71.169,49.846,67.432,53.369,62.823,53.369z M79.759,77.272  c-3.159,0-5.724-2.419-5.724-5.397c0-2.986,2.565-5.405,5.724-5.405c3.167,0,5.732,2.419,5.732,5.405  C85.491,74.854,82.925,77.272,79.759,77.272z"/>
</svg>