<svg xmlns="http://www.w3.org/2000/svg" xmlns:xlink="http://www.w3.org/1999/xlink" version="1.1" x="0px" y="0px" width="90px" height="90px" viewBox="0 0 90 90" enable-background="new 0 0 90 90" xml:space="preserve">
<g id="Livello_1" display="none">
	<path display="inline" d="M19.835,78.261c-0.524,0-0.949,0.419-0.949,0.947c0,0.521,0.425,0.938,0.949,0.938h4.159v2.545   c0,1.194,1.282,2.157,2.865,2.157h3.195c1.292,0,2.378-0.637,2.736-1.529h32.233c3.988,0,5.492-3.18,5.729-4.872l0.021-0.132V11.85   c0.026-0.551,0.051-2.94-1.567-4.694c-0.707-0.775-1.995-1.684-4.132-1.753c-0.043,0-0.091-0.008-0.137-0.008   c-0.022,0-0.043,0.008-0.061,0.008c-0.024,0-0.049-0.008-0.071-0.008c-0.046,0-0.093,0.008-0.135,0.008   c-2.138,0.07-3.426,0.978-4.133,1.753c-1.617,1.754-1.598,4.143-1.568,4.702v11.126c-0.007,0.07-0.014,0.147-0.014,0.225v19.327   v0.055l0.007,0.077c0.023,0.35-0.038,1.382-0.577,1.948c-0.12,0.14-0.494,0.527-1.602,0.527c-1.11,0-1.479-0.388-1.607-0.527   c-0.536-0.566-0.597-1.599-0.578-1.939l0.009-0.069V23.209c0-0.078-0.009-0.163-0.017-0.225V11.857   c0.032-0.559,0.059-2.948-1.563-4.702c-0.709-0.775-1.996-1.684-4.134-1.753c-0.045,0-0.089-0.008-0.134-0.008   c-0.024,0-0.045,0.008-0.066,0.008c-0.021,0-0.041-0.008-0.064-0.008c-0.045,0-0.09,0.008-0.139,0.008   c-2.137,0.07-3.423,0.978-4.131,1.753c-1.619,1.754-1.596,4.143-1.565,4.702v56.774c-0.115,0.513-0.652,2.142-2.673,2.142h-7.203   v-0.155c0-1.194-1.282-2.156-2.864-2.156h-3.195c-1.583,0-2.865,0.962-2.865,2.156v3.313h-4.159c-0.524,0-0.949,0.436-0.949,0.946   c0,0.52,0.425,0.946,0.949,0.946h4.159v2.437H19.835z M32.918,74.552h7.203c4.372,0,6.118-3.553,6.434-5.423l0.023-0.155V11.795   l-0.006-0.155c-0.018-0.232,0.02-1.327,0.571-1.924c0.118-0.132,0.478-0.52,1.55-0.528c1.062,0.008,1.42,0.396,1.543,0.52   c0.535,0.575,0.597,1.598,0.576,1.932l-0.006,0.078v19.398c0,0.078,0.006,0.155,0.019,0.233v11.126   c-0.032,0.559-0.058,2.933,1.566,4.702c0.735,0.791,2.087,1.748,4.377,1.748c0.007,0,0.007,0,0.007,0h0.009c0,0,0,0,0.002,0h0.009   c2.289,0,3.646-0.957,4.38-1.748c1.622-1.77,1.598-4.144,1.567-4.702V31.34c0.007-0.069,0.016-0.147,0.016-0.225v-19.32   l0.004-0.054l-0.008-0.085c-0.022-0.35,0.039-1.374,0.577-1.948c0.116-0.124,0.479-0.512,1.546-0.52   c1.058,0.008,1.42,0.396,1.535,0.52c0.539,0.575,0.601,1.598,0.582,1.932l-0.007,0.078v66.294c-0.125,0.536-0.536,1.53-1.964,1.53   H32.918V74.552z"/>
</g>
<g id="Livello_2" display="none">
	<g display="inline">
		<path d="M46.703,54.63c0,0-3.732-10.09,8.427-16.31c12.164-6.22,27.095-5.528,27.095-5.528S77.25,53.109,70.061,58.638    c-6.633,6.224-11.47,6.361-17.142,4.424c9.676-5.803,9.538-14.607,9.538-14.607S51.128,47.444,46.703,54.63z"/>
		<path d="M48.188,22.658c0,0-2.569-6.386,4.763-10.689c7.33-4.303,16.551-4.238,16.551-4.238s-2.531,13.175-6.817,16.904    c-3.924,4.165-6.9,4.375-10.44,3.276c5.806-3.971,5.49-9.621,5.49-9.621S50.723,17.93,48.188,22.658z"/>
		<path d="M36.007,22.751c0,0-5.113-0.724-5.156-7.097c-0.05-6.377,3.44-12.343,3.44-12.343s7.612,6.58,8.433,10.761    c1.232,4.109,0.258,6.119-1.784,8.011c-0.404-5.262-4.197-7.17-4.197-7.17S33.889,19.33,36.007,22.751z"/>
		<path d="M29.88,44.957c0,0-8.258,3.567-14.13-5.868c-5.872-9.431-6.102-21.482-6.102-21.482s17.305,2.854,22.331,8.327    c5.568,4.986,5.949,8.872,4.634,13.54c-5.391-7.453-12.762-6.847-12.762-6.847S23.616,41.803,29.88,44.957z"/>
		<path d="M40.759,84.35h6.996c0,0-6.58-13.135-6.722-16.863c1.048-1.456,15.212-9.989,16.861-14.515l-0.549-0.829    c0,0-10.092,8.569-16.586,10.365c-3.733-11.057,3.869-31.791,12.022-38.977c0,0,1.11-1.84-0.829-0.78    c-1.937,1.055-7.044,7.093-7.877,10.021c-0.829,2.924-4.975-9.656-5.391-12.144c-0.138-0.72-0.687-1.242-0.687,0    c0,0,1.803,9.35,4.087,13.245c-0.136,2.487-3.162,7.53-4.84,13.155c0,0-6.438-8.432-7.958-9.261c-1.522-0.829-1.522,0.554,0,2.074    c1.52,1.521,7.449,10.394,7.274,11.085C36.391,51.617,33.568,69.557,40.759,84.35z"/>
	</g>
</g>
<g id="Livello_3">
	<path d="M29.391,58.71c0.723,2.091,1.25,9.099,1.25,9.099s-1.778,2.614-0.528,5.02c1.259,2.403,8.268,0.52,9.209-0.423   c0.941-0.934,2.086-3.387,3.345-5.855c1.251-2.46,1.722-4.352,2.56-4.183c3.49,0.942,8.948,0.634,12.39,0.212   c3.452-0.422,7.423-1.048,7.423-1.048s2.728,7.738,2.826,9.729c0.105,1.985,0.739,2.193,0.942,2.615   c0.211,0.414,4.182,0.836,5.123,0.73c0.942-0.105,0.837-0.312,1.99-2.095c1.145-1.774,1.672-4.808,2.924-6.898   c1.258-2.092,1.047-4.812,1.258-6.902s1.673-1.467,4.499-8.368c2.817-6.898,1.884-15.368,1.583-17.772   c-0.301-2.407-1.899-4.811-1.899-4.811s0.941,0,1.568-0.641c0.632-0.646,0.314-3.126-0.521-4.483   c-0.838-1.356-2.412-1.989-3.662-1.989c-1.251,0-2.51,1.048-4.078,0.21c-1.565-0.836-7.844-3.451-12.343-4.6   c-7.421-1.465-14.356-0.833-19.659,0c-5.294,0.836-14.641,4.6-16.623,7.532c0,0-3.134-2.615-4.288-3.244   c-1.153-0.629-2.087-1.149-2.509-0.629c-0.414,0.523,0,1.145,0,1.145s-1.355,0.113-3.345,0.008c-1.99-0.105-1.99,1.148-1.99,1.148   c-0.236,1.255,0,3.139,1.259,6.379c-3.557,1.356-5.652,5.961-7.008,8.052c-1.356,2.092-3.451,1.677-4.077,1.884   c-0.634,0.208-1.884-0.523-3.143,0c-1.25,0.524,0.422,6.898,1.364,7.946c0.666,0.742,3.395,1.434,4.621,1.697   c-1.08-0.127-2.972-0.114-3.679-0.024c-0.836,0.105,0.414,0.941,0.731,0.941c0.316,0,1.153-0.21,3.865,2.197   c2.721,2.403,6.903,1.566,7.114,2.301c0.211,0.731,1.461,2.713,3.663,3.448L29.391,58.71z M61.271,19.28   c-8.144-1.665-14.372,0.106-16.492,0.853l-0.723-1.202c2.891-1.523,11.094-2.899,17.769-0.958L61.271,19.28z"/>
</g>
</svg>