<svg xmlns="http://www.w3.org/2000/svg" xmlns:xlink="http://www.w3.org/1999/xlink" version="1.1" id="Layer_1" x="0px" y="0px" width="78.776290631px" height="100px" viewBox="0 0 412 523" enable-background="new 0 0 412 523" xml:space="preserve">
<g transform="matrix(-1,0,0,1,412,0)">
	<path d="M257.874,274.394c79.166-8.333,65.869-131.132,2.083-164.583c-42.259-22.162-99.311-21.194-137.5-6.25   C50.02,131.906,30.791,168.144,20.374,238.978S44.86,497.182,128.707,518.144c75,18.75,103.944-17.607,95.833-52.083   c-8.333-35.417-49.408-81.295-52.083-112.5C166.207,280.644,257.874,274.394,257.874,274.394z"/>
	<path d="M398.935,101.504c-21.207,30.801-61.446,39.899-89.876,20.324c-28.432-19.575-34.287-60.412-13.08-91.212   s61.444-39.898,89.876-20.323C414.284,29.868,420.141,70.705,398.935,101.504z"/>
	<path d="M235.454,82.105c-18.148,3.09-35.288-8.655-38.282-26.236s8.592-44.006,26.739-47.096   c18.148-3.092,35.288,8.655,38.282,26.235C265.187,52.59,253.601,79.014,235.454,82.105z"/>
	<path d="M176.599,69.41c-10.276,14.576-25.334,17.381-40.38,6.774c-15.047-10.607-18.586-40.858-8.31-55.436   c10.276-14.575,25.333-17.38,40.38-6.772C183.336,24.583,186.875,54.834,176.599,69.41z"/>
	<path d="M113.752,80.36c-3.157,15.209-18.958,24.79-35.295,21.398c-16.336-3.391-29.615-26.454-26.459-41.663   c3.157-15.209,18.958-24.79,35.293-21.399C103.627,42.087,116.908,65.151,113.752,80.36z"/>
	<path d="M47.389,102.138c9.291,13.856,7.524,31.323-3.943,39.013c-11.468,7.688-28.296,2.688-37.587-11.17   c-9.29-13.857-7.523-31.324,3.944-39.012C21.271,83.281,38.099,88.281,47.389,102.138z"/>
</g>
</svg>