<svg xmlns="http://www.w3.org/2000/svg" xmlns:xlink="http://www.w3.org/1999/xlink" version="1.1" id="Layer_1" x="0px" y="0px" width="100px" height="100px" viewBox="0 0 100 100" enable-background="new 0 0 100 100" xml:space="preserve">
<path d="M50.907,27.313v-7.557h5.805v-2.915h-5.805v-5.769h-2.914v5.769h-5.807v2.915h5.807v7.72  c-2.791,10.12-11.646,11.485-11.646,18.554c0,4,5.586,5.759,12.479,5.759c0.214,0,0.425,0,0.635-0.005  c0.208,0.005,0.419,0.005,0.632,0.005c6.894,0,12.482-1.514,12.482-5.759C62.575,38.547,53.678,37.32,50.907,27.313z"/>
<path fill-rule="evenodd" clip-rule="evenodd" d="M71.349,60.44H59.643v-5.828H39.252v5.828H27.645l-7.334,6.834l1.426,0.016  c0,0,2.015-3.839,7.331-3.839c5.316,0,7.334,3,7.334,3l2.784-0.058c0,0,2.47-5.873,10.418-5.873c7.951,0,10.097,5.782,10.097,5.782  l2.838,0.065c0,0,1.27-2.826,7.316-2.826c6.048,0,7.32,3.828,7.32,3.828l1.722-0.067L71.349,60.44z"/>
<path fill-rule="evenodd" clip-rule="evenodd" d="M49.604,63.406c-5.606,0-10.328,4.545-10.328,10.153c0,5.607,0,16.017,0,16.017  h20.419c0,0,0-10.409,0-16.017C59.695,67.951,55.213,63.406,49.604,63.406z"/>
<path fill-rule="evenodd" clip-rule="evenodd" d="M69.854,66.429c-4.075,0-7.319,3.304-7.319,7.376c0,4.076,0,15.771,0,15.771  h14.607c0,0,0-11.695,0-15.771C77.143,69.732,73.93,66.429,69.854,66.429z"/>
<path fill-rule="evenodd" clip-rule="evenodd" d="M29.039,66.429c-4.075,0-7.32,3.304-7.32,7.376c0,4.076,0,15.771,0,15.771h14.608  c0,0,0-11.695,0-15.771C36.327,69.732,33.114,66.429,29.039,66.429z"/>
</svg>