<svg xmlns="http://www.w3.org/2000/svg" xmlns:xlink="http://www.w3.org/1999/xlink" version="1.1" id="Layer_1" x="0px" y="0px" width="100px" height="100px" viewBox="0 0 100 100" enable-background="new 0 0 100 100" xml:space="preserve">
<path d="M99.499,93.058c0,3.834-2.687,6.942-6,6.942s-6-3.108-6-6.942c0-3.835,6-6.799,6-13.308  C97.124,85.825,99.499,89.223,99.499,93.058z"/>
<g>
	<path d="M49.994,5.425c-24.579,0-44.576,19.998-44.576,44.577c0,24.579,19.997,44.577,44.576,44.577S94.57,74.581,94.57,50.002   C94.57,25.422,74.573,5.425,49.994,5.425z M88.8,68.117c-0.615,0.665-1.422,1.107-2.577,1.106   c-1.036-0.002-2.585-0.424-3.366-0.874c-1.295-0.743-2.59-1.488-3.885-2.232c-5.907-3.396-11.812-6.789-17.717-10.184   c-2.089-1.201-4.178-2.401-6.267-3.602c-0.709-0.408-0.845-0.257-0.651-1.058c0.194-0.809,0.233-0.61,1.038-0.612   c5.856-0.011,11.714-0.022,17.573-0.033c5-0.01,10.005-0.02,15.006-0.029c1.895-0.004,3.973,0.756,4.688,2.618   C92.262,58.508,90.926,63.531,88.8,68.117z M87.432,30.85c0.43,0.14,0.774,0.349,1.07,0.6c2.262,4.672,3.69,9.821,4.118,15.252   c-0.091,0.244-0.205,0.485-0.374,0.724c-1.074,1.533-3.448,2.067-5.08,2.071c-5.596,0.011-11.19,0.021-16.786,0.032   c-5.251,0.01-10.499,0.02-15.75,0.03c-0.41,0-0.242-0.426-0.354-0.794c-0.138-0.451-0.214-0.331,0.089-0.507   c0.59-0.342,1.18-0.684,1.771-1.026c2.427-1.407,4.853-2.815,7.28-4.223c5.782-3.354,11.566-6.708,17.35-10.061   c1.177-0.683,2.394-1.619,3.712-2.013C85.427,30.652,86.471,30.542,87.432,30.85z M85.273,25.896   c0.013,0.085,0.03,0.168,0.036,0.257c0.065,1.066-0.398,2.063-1.067,2.868c-0.484,0.581-1.434,1.464-1.953,1.765   c-4.334,2.512-8.665,5.025-12.999,7.538c-5.03,2.917-10.062,5.834-15.092,8.752c-0.177,0.103-0.354,0.205-0.53,0.307   c-0.253,0.147-0.902-0.854-0.949-0.773c0.196-0.342,0.395-0.684,0.591-1.026c1.226-2.134,2.452-4.268,3.679-6.401   c3.419-5.95,6.837-11.899,10.258-17.848c0.842-1.463,1.682-2.926,2.523-4.391c0.768-1.337,2.535-2.424,4.081-2.295   c0.064,0.005,0.125,0.021,0.188,0.031C78.442,17.688,82.256,21.497,85.273,25.896z M68.837,88.149   c-0.175,0.284-0.389,0.521-0.626,0.727c-4.342,2.057-9.086,3.407-14.083,3.897c-0.523-0.053-1.03-0.206-1.524-0.554   c-1.628-1.143-1.97-3.31-1.974-5.15c-0.004-2.175-0.009-4.349-0.013-6.524c-0.013-6.863-0.027-13.728-0.04-20.592   c-0.004-1.782-0.006-3.564-0.011-5.346c0-0.333,1.245-0.3,1.186-0.401c0.06,0.103,0.12,0.205,0.179,0.308   c0.371,0.639,0.741,1.276,1.111,1.915c3.257,5.615,6.513,11.231,9.77,16.847c1.486,2.565,2.974,5.129,4.461,7.692   c0.776,1.341,1.693,2.617,1.989,4.166C69.456,86.153,69.392,87.246,68.837,88.149z M33.059,89.549   c-1.344-0.706-2.338-1.742-2.245-3.594c0.086-1.725,1.006-2.984,1.835-4.426c1.453-2.528,2.906-5.057,4.359-7.585   c3.28-5.706,6.56-11.413,9.839-17.119c0.411-0.716,0.822-1.432,1.233-2.146c0.085-0.147,0.169-0.296,0.255-0.443   c0.078-0.136,1.125,0.287,1.125,0.263c0.003,1.581,0.006,3.163,0.008,4.745c0.014,6.836,0.027,13.673,0.041,20.509   c0.004,2.396,0.009,4.792,0.013,7.189c0.004,1.95-0.269,4.227-2.07,5.376c-0.479,0.305-0.967,0.438-1.465,0.48   C41.436,92.388,37.088,91.271,33.059,89.549z M30.855,12.68c0.178-0.601,0.483-1.048,0.869-1.408   c4.581-2.147,9.604-3.501,14.896-3.901c0.189,0.062,0.375,0.137,0.558,0.241c1.923,1.091,2.198,3.377,2.202,5.358   c0.005,2.5,0.011,5,0.015,7.499c0.013,6.829,0.027,13.657,0.04,20.485c0.003,1.598,0.006,3.196,0.009,4.794   c0,0.077-1.131,0.325-1.128,0.328c-0.084-0.145-0.168-0.291-0.252-0.435c-0.415-0.714-0.829-1.427-1.243-2.142   c-3.323-5.73-6.646-11.459-9.969-17.189c-1.407-2.426-2.813-4.852-4.221-7.277c-0.721-1.243-1.327-2.245-1.706-3.61   C30.679,14.536,30.59,13.573,30.855,12.68z M51.797,46c-0.067,0.117-1.248-0.302-1.248-0.233c0-0.137,0-0.274-0.001-0.411   c-0.003-2.079-0.007-4.157-0.012-6.235c-0.013-6.887-0.026-13.773-0.04-20.66c-0.006-3.085-0.993-9.7,2.768-11.083   c5.401,0.421,10.527,1.831,15.185,4.068c0.225,0.263,0.419,0.569,0.559,0.942c0.565,1.502,0.096,3.281-0.647,4.641   c-1.972,3.616-4.264,7.571-6.388,11.266c-3.121,5.431-6.243,10.863-9.365,16.294C52.336,45.06,52.066,45.529,51.797,46z    M25.475,14.871c0.484-0.155,1.006-0.206,1.59-0.089c1.234,0.247,2.517,1.196,3.151,2.29c0.934,1.61,1.867,3.219,2.8,4.829   c3.459,5.964,6.917,11.928,10.376,17.891c1.176,2.029,2.353,4.056,3.529,6.085c0.464,0.801,0.562,0.605-0.093,1.33   c-0.404,0.449-0.634,0.072-1.147-0.222c-9.354-5.376-18.706-10.751-28.059-16.127c-0.733-0.421-1.906-1.626-2.405-2.483   c-0.668-1.145-0.622-2.192-0.218-3.166C17.871,21.19,21.416,17.69,25.475,14.871z M10.957,67.987   c-0.042-0.051-0.071-0.118-0.111-0.173c-0.413-0.909-0.802-1.83-1.151-2.771c-0.005-0.017-0.011-0.036-0.017-0.053   c-0.006-0.019-0.013-0.022-0.019-0.038c-0.972-2.634-1.694-5.389-2.134-8.237c-0.006-0.039-0.013-0.079-0.02-0.117   C7.4,55.901,7.31,55.201,7.238,54.495c0.083-2.549,2.517-3.743,4.918-3.749c11.125-0.022,22.25-0.043,33.375-0.065   c0.315,0,0.193-0.057,0.282,0.39c0.091,0.459,0.399,0.638,0.02,0.856c-0.587,0.341-1.174,0.682-1.761,1.022   c-2.458,1.425-4.917,2.852-7.375,4.277c-5.691,3.3-11.381,6.601-17.072,9.9c-1.143,0.662-2.19,1.222-3.271,1.666   C14.535,69.543,12.313,69.654,10.957,67.987z M45.63,49.577c-10.865,0.021-21.729,0.042-32.592,0.063   c-1.577,0.003-3.777-0.444-4.964-1.746c-0.548-0.6-0.793-1.288-0.847-2.03c0.48-4.882,1.784-9.518,3.762-13.779   c0.234-0.302,0.51-0.574,0.863-0.788c0.995-0.604,2.204-0.614,3.306-0.351c1.387,0.331,2.635,1.282,3.854,1.983   c5.787,3.326,11.574,6.651,17.361,9.979c2.483,1.426,4.966,2.854,7.449,4.281c0.632,0.363,1.266,0.727,1.899,1.092   c0.099,0.057,0.2,0.114,0.3,0.173C45.932,48.403,45.958,49.577,45.63,49.577z M15.162,75.236c-0.226-0.432-0.384-0.893-0.414-1.396   c-0.084-1.417,0.855-3.104,2.093-3.821c9.602-5.568,19.204-11.137,28.807-16.706c0.157-0.092,0.752-0.577,0.943-0.547   c0.728,0.96,0.967,0.605,0.431,1.539c-1.158,2.015-2.316,4.029-3.474,6.044c-3.406,5.927-6.812,11.854-10.219,17.779   c-0.813,1.416-1.627,2.832-2.441,4.247c-0.368,0.642-1.386,1.679-2.095,2.184c-0.807,0.575-1.777,0.908-2.773,0.771   c-0.362-0.05-0.701-0.17-1.025-0.328C21.213,82.299,17.89,79,15.162,75.236z M74.621,85.12c-0.458,0.154-0.948,0.215-1.507,0.123   c-1.006-0.165-1.882-0.759-2.588-1.471c-0.481-0.486-0.995-1.113-1.304-1.646c-0.938-1.618-1.879-3.238-2.818-4.857   c-3.446-5.941-6.891-11.885-10.337-17.826c-1.049-1.808-2.098-3.615-3.146-5.424c-0.067-0.117-0.135-0.233-0.203-0.35   c0.024,0.041,0.803-0.906,0.917-0.841c0.459,0.264,0.918,0.527,1.377,0.791c5.382,3.094,10.765,6.188,16.147,9.28   c4.022,2.312,8.043,4.624,12.066,6.937c1.666,0.957,2.396,2.924,1.934,4.644C82.295,78.615,78.726,82.217,74.621,85.12z"/>
	<path d="M49.998,0.006C22.385,0.006,0,22.39,0,50.003C0,77.615,22.385,100,49.998,100c27.612,0,49.997-22.385,49.997-49.997   C99.994,22.39,77.609,0.006,49.998,0.006z M49.994,95.684c-25.189,0-45.681-20.493-45.681-45.682   c0-25.189,20.492-45.682,45.681-45.682c25.189,0,45.682,20.493,45.682,45.682C95.676,75.19,75.184,95.684,49.994,95.684z"/>
</g>
</svg>