<?xml version="1.0" encoding="utf-8"?>
<!-- Generator: Adobe Illustrator 14.0.0, SVG Export Plug-In . SVG Version: 6.00 Build 43363)  -->
<!DOCTYPE svg PUBLIC "-//W3C//DTD SVG 1.0//EN" "http://www.w3.org/TR/2001/REC-SVG-20010904/DTD/svg10.dtd">
<svg version="1.0" id="Layer_1" xmlns="http://www.w3.org/2000/svg" xmlns:xlink="http://www.w3.org/1999/xlink" x="0px" y="0px"
	 width="51.46px" height="100px" viewBox="0 0 51.46 100" enable-background="new 0 0 51.46 100" xml:space="preserve">
<path d="M41.446,8.067H25.729H10.014C4.483,8.067,0,12.55,0,18.081v46.175c0,5.011,3.68,9.161,8.484,9.898v0.115v5.424v4.173H3.783
	v3.895h4.701v4.173H3.783v3.895h4.701V100h5.424v-4.172h11.822h11.822V100h5.424v-4.172h4.7v-3.895h-4.7V87.76h4.7v-3.895h-4.7
	v-4.173v-5.424v-0.115c4.804-0.737,8.484-4.888,8.484-9.898V18.081C51.46,12.55,46.976,8.067,41.446,8.067z M11.503,68.15
	c-3.034,0-5.494-2.46-5.494-5.494s2.46-5.493,5.494-5.493c3.034,0,5.494,2.459,5.494,5.493S14.537,68.15,11.503,68.15z
	 M37.552,91.933H25.729H13.908V87.76h11.822h11.822V91.933z M37.552,83.866H25.729H13.908v-4.173h11.822h11.822V83.866z
	 M39.956,68.15c-3.034,0-5.493-2.46-5.493-5.494s2.459-5.493,5.493-5.493s5.493,2.459,5.493,5.493S42.99,68.15,39.956,68.15z"/>
<circle cx="21.14" cy="3.338" r="3.338"/>
<circle cx="30.319" cy="3.338" r="3.338"/>
</svg>
