<svg xmlns="http://www.w3.org/2000/svg" xmlns:xlink="http://www.w3.org/1999/xlink" version="1.1" id="Layer_1" x="0px" y="0px" width="100px" height="100px" viewBox="0 0 100 100" enable-background="new 0 0 100 100" xml:space="preserve">
<path fill="#000000" d="M61.864,83.241v-0.07c0.074-0.042,0.126-0.118,0.126-0.21v-4.295c0-0.136-0.109-0.246-0.245-0.246h-2.377  l-4.239-14.837h0.432c0.405,0,0.733-0.328,0.733-0.73v-0.188v-0.239c0-0.23-0.109-0.435-0.278-0.569  c-0.125-0.1-0.28-0.161-0.455-0.161h-0.434c-2.586-11.488-3.438-42.58-3.515-45.589l1.21-1.402v-2.786l-2.02-1.97l-0.001-0.015  V2.669c0-0.339-0.379-0.615-0.846-0.615S49.11,2.33,49.11,2.669v7.187l-0.011,0.091l-2.08,1.97v2.786l1.329,1.541  c-0.097,3.713-0.961,34.12-3.511,45.451H44.41c-0.173,0-0.33,0.062-0.455,0.161c-0.167,0.135-0.276,0.339-0.276,0.569v0.266v0.162  c0,0.402,0.327,0.73,0.731,0.73h0.424L40.595,78.42h-2.349c-0.135,0-0.244,0.11-0.244,0.246v4.295c0,0.079,0.04,0.146,0.097,0.19  v0.09l-8.722,15.654h8.722c0,0,0.886-11.491,11.883-11.625c10.997,0.134,11.883,11.625,11.883,11.625h8.721L61.864,83.241z   M46.033,78.545l1.593-10.351h2.111h0.488h2.111l1.593,10.351H46.033z"/>
</svg>