<svg xmlns:dc="http://purl.org/dc/elements/1.1/" xmlns:cc="http://creativecommons.org/ns#" xmlns:rdf="http://www.w3.org/1999/02/22-rdf-syntax-ns#" xmlns:svg="http://www.w3.org/2000/svg" xmlns="http://www.w3.org/2000/svg" xmlns:sodipodi="http://sodipodi.sourceforge.net/DTD/sodipodi-0.dtd" xmlns:inkscape="http://www.inkscape.org/namespaces/inkscape" id="svg2" version="1.1" inkscape:version="0.48.2 r9819" width="100" height="100" sodipodi:docname="Evolution_3.svg">
  <metadata id="metadata8">
    <rdf:RDF>
      <cc:Work rdf:about="">
        <dc:format>image/svg+xml</dc:format>
        <dc:type rdf:resource="http://purl.org/dc/dcmitype/StillImage"/>
        <dc:title/>
      </cc:Work>
    </rdf:RDF>
  </metadata>
  <defs id="defs6">
    <inkscape:perspective sodipodi:type="inkscape:persp3d" inkscape:vp_x="-55.223881 : 41.791045 : 1" inkscape:vp_y="0 : 1000 : 0" inkscape:vp_z="133.95522 : 45.708955 : 1" inkscape:persp3d-origin="50 : 33.333333 : 1" id="perspective6203"/>
    <inkscape:path-effect fuse_tolerance="0" vertical_pattern="false" prop_units="false" tang_offset="0" normal_offset="0" spacing="0" scale_y_rel="false" prop_scale="1" copytype="single_stretched" pattern="m -1488.1177,1523.0237 c 0,-2.76 2.24,-5 5,-5 2.76,0 5,2.24 5,5 0,2.76 -2.24,5 -5,5 -2.76,0 -5,-2.24 -5,-5 z" is_visible="true" id="path-effect4391" effect="skeletal"/>
    <inkscape:path-effect fuse_tolerance="0" vertical_pattern="false" prop_units="false" tang_offset="0" normal_offset="0" spacing="0" scale_y_rel="false" prop_scale="1" copytype="single_stretched" pattern="m -978.72218,-131.14338 c 0,-2.76 2.24,-5 5,-5 2.76,0 5,2.24 5,5 0,2.76 -2.24,5 -5,5 -2.76,0 -5,-2.24 -5,-5 z" is_visible="true" id="path-effect4388" effect="skeletal"/>
    <inkscape:path-effect fuse_tolerance="0" vertical_pattern="false" prop_units="false" tang_offset="0" normal_offset="0" spacing="0" scale_y_rel="false" prop_scale="1" copytype="single_stretched" pattern="m -978.72218,-131.14338 c 0,-2.76 2.24,-5 5,-5 2.76,0 5,2.24 5,5 0,2.76 -2.24,5 -5,5 -2.76,0 -5,-2.24 -5,-5 z" is_visible="true" id="path-effect4385" effect="skeletal"/>
    <inkscape:path-effect effect="skeletal" id="path-effect4382" is_visible="true" pattern="m -1217.4257,1523.0237 c 0,-2.76 2.24,-5 5,-5 2.76,0 5,2.24 5,5 0,2.76 -2.24,5 -5,5 -2.76,0 -5,-2.24 -5,-5 z" copytype="single_stretched" prop_scale="1" scale_y_rel="false" spacing="0" normal_offset="0" tang_offset="0" prop_units="false" vertical_pattern="false" fuse_tolerance="0"/>
    <inkscape:path-effect fuse_tolerance="0" vertical_pattern="false" prop_units="false" tang_offset="0" normal_offset="0" spacing="0" scale_y_rel="false" prop_scale="1" copytype="single_stretched" pattern="m -978.72218,-131.14338 c 0,-2.76 2.24,-5 5,-5 2.76,0 5,2.24 5,5 0,2.76 -2.24,5 -5,5 -2.76,0 -5,-2.24 -5,-5 z" is_visible="true" id="path-effect4379" effect="skeletal"/>
    <inkscape:path-effect fuse_tolerance="0" vertical_pattern="false" prop_units="false" tang_offset="0" normal_offset="0" spacing="0" scale_y_rel="false" prop_scale="1" copytype="single_stretched" pattern="m -1488.1177,1523.0237 c 0,-2.76 2.24,-5 5,-5 2.76,0 5,2.24 5,5 0,2.76 -2.24,5 -5,5 -2.76,0 -5,-2.24 -5,-5 z" is_visible="true" id="path-effect4375" effect="skeletal"/>
    <inkscape:path-effect fuse_tolerance="0" vertical_pattern="false" prop_units="false" tang_offset="0" normal_offset="0" spacing="0" scale_y_rel="false" prop_scale="1" copytype="single_stretched" pattern="m -978.72218,-131.14338 c 0,-2.76 2.24,-5 5,-5 2.76,0 5,2.24 5,5 0,2.76 -2.24,5 -5,5 -2.76,0 -5,-2.24 -5,-5 z" is_visible="true" id="path-effect4372" effect="skeletal"/>
    <inkscape:path-effect fuse_tolerance="0" vertical_pattern="false" prop_units="false" tang_offset="0" normal_offset="0" spacing="0" scale_y_rel="false" prop_scale="1" copytype="single_stretched" pattern="m -978.72218,-131.14338 c 0,-2.76 2.24,-5 5,-5 2.76,0 5,2.24 5,5 0,2.76 -2.24,5 -5,5 -2.76,0 -5,-2.24 -5,-5 z" is_visible="true" id="path-effect4369" effect="skeletal"/>
    <inkscape:path-effect effect="skeletal" id="path-effect4366" is_visible="true" pattern="m -1217.4257,1523.0237 c 0,-2.76 2.24,-5 5,-5 2.76,0 5,2.24 5,5 0,2.76 -2.24,5 -5,5 -2.76,0 -5,-2.24 -5,-5 z" copytype="single_stretched" prop_scale="1" scale_y_rel="false" spacing="0" normal_offset="0" tang_offset="0" prop_units="false" vertical_pattern="false" fuse_tolerance="0"/>
    <inkscape:path-effect fuse_tolerance="0" vertical_pattern="false" prop_units="false" tang_offset="0" normal_offset="0" spacing="0" scale_y_rel="false" prop_scale="1" copytype="single_stretched" pattern="m -978.72218,-131.14338 c 0,-2.76 2.24,-5 5,-5 2.76,0 5,2.24 5,5 0,2.76 -2.24,5 -5,5 -2.76,0 -5,-2.24 -5,-5 z" is_visible="true" id="path-effect4363" effect="skeletal"/>
    <inkscape:path-effect fuse_tolerance="0" vertical_pattern="false" prop_units="false" tang_offset="0" normal_offset="0" spacing="0" scale_y_rel="false" prop_scale="1" copytype="single_stretched" pattern="m -1488.1177,1523.0237 c 0,-2.76 2.24,-5 5,-5 2.76,0 5,2.24 5,5 0,2.76 -2.24,5 -5,5 -2.76,0 -5,-2.24 -5,-5 z" is_visible="true" id="path-effect4359" effect="skeletal"/>
    <inkscape:path-effect fuse_tolerance="0" vertical_pattern="false" prop_units="false" tang_offset="0" normal_offset="0" spacing="0" scale_y_rel="false" prop_scale="1" copytype="single_stretched" pattern="m -978.72218,-131.14338 c 0,-2.76 2.24,-5 5,-5 2.76,0 5,2.24 5,5 0,2.76 -2.24,5 -5,5 -2.76,0 -5,-2.24 -5,-5 z" is_visible="true" id="path-effect4356" effect="skeletal"/>
    <inkscape:path-effect fuse_tolerance="0" vertical_pattern="false" prop_units="false" tang_offset="0" normal_offset="0" spacing="0" scale_y_rel="false" prop_scale="1" copytype="single_stretched" pattern="m -978.72218,-131.14338 c 0,-2.76 2.24,-5 5,-5 2.76,0 5,2.24 5,5 0,2.76 -2.24,5 -5,5 -2.76,0 -5,-2.24 -5,-5 z" is_visible="true" id="path-effect4353" effect="skeletal"/>
    <inkscape:path-effect effect="skeletal" id="path-effect4350" is_visible="true" pattern="m -1217.4257,1523.0237 c 0,-2.76 2.24,-5 5,-5 2.76,0 5,2.24 5,5 0,2.76 -2.24,5 -5,5 -2.76,0 -5,-2.24 -5,-5 z" copytype="single_stretched" prop_scale="1" scale_y_rel="false" spacing="0" normal_offset="0" tang_offset="0" prop_units="false" vertical_pattern="false" fuse_tolerance="0"/>
    <inkscape:path-effect fuse_tolerance="0" vertical_pattern="false" prop_units="false" tang_offset="0" normal_offset="0" spacing="0" scale_y_rel="false" prop_scale="1" copytype="single_stretched" pattern="m -978.72218,-131.14338 c 0,-2.76 2.24,-5 5,-5 2.76,0 5,2.24 5,5 0,2.76 -2.24,5 -5,5 -2.76,0 -5,-2.24 -5,-5 z" is_visible="true" id="path-effect4347" effect="skeletal"/>
    <inkscape:path-effect fuse_tolerance="0" vertical_pattern="false" prop_units="false" tang_offset="0" normal_offset="0" spacing="0" scale_y_rel="false" prop_scale="1" copytype="single_stretched" pattern="m -1488.1177,1523.0237 c 0,-2.76 2.24,-5 5,-5 2.76,0 5,2.24 5,5 0,2.76 -2.24,5 -5,5 -2.76,0 -5,-2.24 -5,-5 z" is_visible="true" id="path-effect4342" effect="skeletal"/>
    <inkscape:path-effect fuse_tolerance="0" vertical_pattern="false" prop_units="false" tang_offset="0" normal_offset="0" spacing="0" scale_y_rel="false" prop_scale="1" copytype="single_stretched" pattern="m -978.72218,-131.14338 c 0,-2.76 2.24,-5 5,-5 2.76,0 5,2.24 5,5 0,2.76 -2.24,5 -5,5 -2.76,0 -5,-2.24 -5,-5 z" is_visible="true" id="path-effect4339" effect="skeletal"/>
    <inkscape:path-effect fuse_tolerance="0" vertical_pattern="false" prop_units="false" tang_offset="0" normal_offset="0" spacing="0" scale_y_rel="false" prop_scale="1" copytype="single_stretched" pattern="m -978.72218,-131.14338 c 0,-2.76 2.24,-5 5,-5 2.76,0 5,2.24 5,5 0,2.76 -2.24,5 -5,5 -2.76,0 -5,-2.24 -5,-5 z" is_visible="true" id="path-effect4336" effect="skeletal"/>
    <inkscape:path-effect fuse_tolerance="0" vertical_pattern="false" prop_units="false" tang_offset="0" normal_offset="0" spacing="0" scale_y_rel="false" prop_scale="1" copytype="single_stretched" pattern="m -978.72218,-131.14338 c 0,-2.76 2.24,-5 5,-5 2.76,0 5,2.24 5,5 0,2.76 -2.24,5 -5,5 -2.76,0 -5,-2.24 -5,-5 z" is_visible="true" id="path-effect4333" effect="skeletal"/>
    <inkscape:path-effect effect="skeletal" id="path-effect4330" is_visible="true" pattern="m -1217.4257,1523.0237 c 0,-2.76 2.24,-5 5,-5 2.76,0 5,2.24 5,5 0,2.76 -2.24,5 -5,5 -2.76,0 -5,-2.24 -5,-5 z" copytype="single_stretched" prop_scale="1" scale_y_rel="false" spacing="0" normal_offset="0" tang_offset="0" prop_units="false" vertical_pattern="false" fuse_tolerance="0"/>
    <inkscape:path-effect fuse_tolerance="0" vertical_pattern="false" prop_units="false" tang_offset="0" normal_offset="0" spacing="0" scale_y_rel="false" prop_scale="1" copytype="single_stretched" pattern="m -1488.1177,1523.0237 c 0,-2.76 2.24,-5 5,-5 2.76,0 5,2.24 5,5 0,2.76 -2.24,5 -5,5 -2.76,0 -5,-2.24 -5,-5 z" is_visible="true" id="path-effect4326" effect="skeletal"/>
    <inkscape:path-effect fuse_tolerance="0" vertical_pattern="false" prop_units="false" tang_offset="0" normal_offset="0" spacing="0" scale_y_rel="false" prop_scale="1" copytype="single_stretched" pattern="m -978.72218,-131.14338 c 0,-2.76 2.24,-5 5,-5 2.76,0 5,2.24 5,5 0,2.76 -2.24,5 -5,5 -2.76,0 -5,-2.24 -5,-5 z" is_visible="true" id="path-effect4323" effect="skeletal"/>
    <inkscape:path-effect fuse_tolerance="0" vertical_pattern="false" prop_units="false" tang_offset="0" normal_offset="0" spacing="0" scale_y_rel="false" prop_scale="1" copytype="single_stretched" pattern="m -978.72218,-131.14338 c 0,-2.76 2.24,-5 5,-5 2.76,0 5,2.24 5,5 0,2.76 -2.24,5 -5,5 -2.76,0 -5,-2.24 -5,-5 z" is_visible="true" id="path-effect4320" effect="skeletal"/>
    <inkscape:path-effect effect="skeletal" id="path-effect4317" is_visible="true" pattern="m -1217.4257,1523.0237 c 0,-2.76 2.24,-5 5,-5 2.76,0 5,2.24 5,5 0,2.76 -2.24,5 -5,5 -2.76,0 -5,-2.24 -5,-5 z" copytype="single_stretched" prop_scale="1" scale_y_rel="false" spacing="0" normal_offset="0" tang_offset="0" prop_units="false" vertical_pattern="false" fuse_tolerance="0"/>
    <inkscape:path-effect fuse_tolerance="0" vertical_pattern="false" prop_units="false" tang_offset="0" normal_offset="0" spacing="0" scale_y_rel="false" prop_scale="1" copytype="single_stretched" pattern="m -978.72218,-131.14338 c 0,-2.76 2.24,-5 5,-5 2.76,0 5,2.24 5,5 0,2.76 -2.24,5 -5,5 -2.76,0 -5,-2.24 -5,-5 z" is_visible="true" id="path-effect4314" effect="skeletal"/>
    <inkscape:path-effect fuse_tolerance="0" vertical_pattern="false" prop_units="false" tang_offset="0" normal_offset="0" spacing="0" scale_y_rel="false" prop_scale="1" copytype="single_stretched" pattern="m -1504.4927,-4.0406143 c 0,-2.76 2.24,-5 5,-5 2.76,0 5,2.24 5,5 0,2.76 -2.24,4.99999996 -5,4.99999996 -2.76,0 -5,-2.23999996 -5,-4.99999996 z" is_visible="true" id="path-effect5699" effect="skeletal"/>
    <inkscape:path-effect effect="skeletal" id="path-effect5625" is_visible="true" pattern="m -1657.0629,-431.14338 c 0,-2.76 2.24,-5 5,-5 2.76,0 5,2.24 5,5 0,2.76 -2.24,5 -5,5 -2.76,0 -5,-2.24 -5,-5 z" copytype="single_stretched" prop_scale="1" scale_y_rel="false" spacing="0" normal_offset="0" tang_offset="0" prop_units="false" vertical_pattern="false" fuse_tolerance="0"/>
    <inkscape:path-effect effect="skeletal" id="path-effect5623" is_visible="true" pattern="m -978.72218,-431.14338 c 0,-2.76 2.24,-5 5,-5 2.76,0 5,2.24 5,5 0,2.76 -2.24,5 -5,5 -2.76,0 -5,-2.24 -5,-5 z" copytype="single_stretched" prop_scale="1" scale_y_rel="false" spacing="0" normal_offset="0" tang_offset="0" prop_units="false" vertical_pattern="false" fuse_tolerance="0"/>
    <inkscape:path-effect fuse_tolerance="0" vertical_pattern="false" prop_units="false" tang_offset="0" normal_offset="0" spacing="0" scale_y_rel="false" prop_scale="1" copytype="single_stretched" pattern="m -1217.4257,1223.0237 c 0,-2.76 2.24,-5 5,-5 2.76,0 5,2.24 5,5 0,2.76 -2.24,5 -5,5 -2.76,0 -5,-2.24 -5,-5 z" is_visible="true" id="path-effect5621" effect="skeletal"/>
    <inkscape:path-effect effect="skeletal" id="path-effect5619" is_visible="true" pattern="m -1488.1177,1223.0237 c 0,-2.76 2.24,-5 5,-5 2.76,0 5,2.24 5,5 0,2.76 -2.24,5 -5,5 -2.76,0 -5,-2.24 -5,-5 z" copytype="single_stretched" prop_scale="1" scale_y_rel="false" spacing="0" normal_offset="0" tang_offset="0" prop_units="false" vertical_pattern="false" fuse_tolerance="0"/>
    <inkscape:path-effect fuse_tolerance="0" vertical_pattern="false" prop_units="false" tang_offset="0" normal_offset="0" spacing="0" scale_y_rel="false" prop_scale="1" copytype="single_stretched" pattern="m -1488.1177,1223.0237 c 0,-2.76 2.24,-5 5,-5 2.76,0 5,2.24 5,5 0,2.76 -2.24,5 -5,5 -2.76,0 -5,-2.24 -5,-5 z" is_visible="true" id="path-effect3123" effect="skeletal"/>
    <inkscape:path-effect effect="skeletal" id="path-effect3121" is_visible="true" pattern="m -1217.4257,1223.0237 c 0,-2.76 2.24,-5 5,-5 2.76,0 5,2.24 5,5 0,2.76 -2.24,5 -5,5 -2.76,0 -5,-2.24 -5,-5 z" copytype="single_stretched" prop_scale="1" scale_y_rel="false" spacing="0" normal_offset="0" tang_offset="0" prop_units="false" vertical_pattern="false" fuse_tolerance="0"/>
    <inkscape:path-effect fuse_tolerance="0" vertical_pattern="false" prop_units="false" tang_offset="0" normal_offset="0" spacing="0" scale_y_rel="false" prop_scale="1" copytype="single_stretched" pattern="m -1657.0629,-431.14338 c 0,-2.76 2.24,-5 5,-5 2.76,0 5,2.24 5,5 0,2.76 -2.24,5 -5,5 -2.76,0 -5,-2.24 -5,-5 z" is_visible="true" id="path-effect3119" effect="skeletal"/>
    <inkscape:path-effect effect="skeletal" id="path-effect3117" is_visible="true" pattern="m -1504.4927,-4.0406143 c 0,-2.76 2.24,-5 5,-5 2.76,0 5,2.24 5,5 0,2.76 -2.24,4.99999996 -5,4.99999996 -2.76,0 -5,-2.23999996 -5,-4.99999996 z" copytype="single_stretched" prop_scale="1" scale_y_rel="false" spacing="0" normal_offset="0" tang_offset="0" prop_units="false" vertical_pattern="false" fuse_tolerance="0"/>
    <inkscape:path-effect fuse_tolerance="0" vertical_pattern="false" prop_units="false" tang_offset="0" normal_offset="0" spacing="0" scale_y_rel="false" prop_scale="1" copytype="single_stretched" pattern="m -978.72218,-431.14338 c 0,-2.76 2.24,-5 5,-5 2.76,0 5,2.24 5,5 0,2.76 -2.24,5 -5,5 -2.76,0 -5,-2.24 -5,-5 z" is_visible="true" id="path-effect3115" effect="skeletal"/>
    <inkscape:path-effect fuse_tolerance="0" vertical_pattern="false" prop_units="false" tang_offset="0" normal_offset="0" spacing="0" scale_y_rel="false" prop_scale="1" copytype="single_stretched" pattern="m -3328.6497,-523.77692 c 0,-2.76 2.24,-5 5,-5 2.76,0 5,2.24 5,5 0,2.76 -2.24,5 -5,5 -2.76,0 -5,-2.24 -5,-5 z" is_visible="true" id="path-effect4063" effect="skeletal"/>
    <inkscape:path-effect fuse_tolerance="0" vertical_pattern="false" prop_units="false" tang_offset="0" normal_offset="0" spacing="0" scale_y_rel="false" prop_scale="1" copytype="single_stretched" pattern="m -3997.641,-690.15568 c 0,-2.76 2.24,-5 5,-5 2.76,0 5,2.24 5,5 0,2.76 -2.24,5 -5,5 -2.76,0 -5,-2.24 -5,-5 z" is_visible="true" id="path-effect4061" effect="skeletal"/>
    <inkscape:path-effect fuse_tolerance="0" vertical_pattern="false" prop_units="false" tang_offset="0" normal_offset="0" spacing="0" scale_y_rel="false" prop_scale="1" copytype="single_stretched" pattern="m -3594.8033,-4.0406143 c 0,-2.76 2.24,-5 5,-5 2.76,0 5,2.24 5,5 0,2.76 -2.24,4.99999996 -5,4.99999996 -2.76,0 -5,-2.23999996 -5,-4.99999996 z" is_visible="true" id="path-effect4059" effect="skeletal"/>
    <inkscape:path-effect fuse_tolerance="0" vertical_pattern="false" prop_units="false" tang_offset="0" normal_offset="0" spacing="0" scale_y_rel="false" prop_scale="1" copytype="single_stretched" pattern="m -3307.7363,1223.0237 c 0,-2.76 2.24,-5 5,-5 2.76,0 5,2.24 5,5 0,2.76 -2.24,5 -5,5 -2.76,0 -5,-2.24 -5,-5 z" is_visible="true" id="path-effect4057" effect="skeletal"/>
    <inkscape:path-effect effect="skeletal" id="path-effect4055" is_visible="true" pattern="m -3578.4283,1223.0237 c 0,-2.76 2.24,-5 5,-5 2.76,0 5,2.24 5,5 0,2.76 -2.24,5 -5,5 -2.76,0 -5,-2.24 -5,-5 z" copytype="single_stretched" prop_scale="1" scale_y_rel="false" spacing="0" normal_offset="0" tang_offset="0" prop_units="false" vertical_pattern="false" fuse_tolerance="0"/>
    <inkscape:path-effect fuse_tolerance="0" vertical_pattern="false" prop_units="false" tang_offset="0" normal_offset="0" spacing="0" scale_y_rel="false" prop_scale="1" copytype="single_stretched" pattern="m -1488.1177,1223.0237 c 0,-2.76 2.24,-5 5,-5 2.76,0 5,2.24 5,5 0,2.76 -2.24,5 -5,5 -2.76,0 -5,-2.24 -5,-5 z" is_visible="true" id="path-effect4031" effect="skeletal"/>
    <inkscape:path-effect effect="skeletal" id="path-effect4028" is_visible="true" pattern="m -1217.4257,1223.0237 c 0,-2.76 2.24,-5 5,-5 2.76,0 5,2.24 5,5 0,2.76 -2.24,5 -5,5 -2.76,0 -5,-2.24 -5,-5 z" copytype="single_stretched" prop_scale="1" scale_y_rel="false" spacing="0" normal_offset="0" tang_offset="0" prop_units="false" vertical_pattern="false" fuse_tolerance="0"/>
    <inkscape:path-effect effect="skeletal" id="path-effect4025" is_visible="true" pattern="m -1504.4927,-4.0406143 c 0,-2.76 2.24,-5 5,-5 2.76,0 5,2.24 5,5 0,2.76 -2.24,4.99999996 -5,4.99999996 -2.76,0 -5,-2.23999996 -5,-4.99999996 z" copytype="single_stretched" prop_scale="1" scale_y_rel="false" spacing="0" normal_offset="0" tang_offset="0" prop_units="false" vertical_pattern="false" fuse_tolerance="0"/>
    <inkscape:path-effect effect="skeletal" id="path-effect4011" is_visible="true" pattern="m -1907.3304,-690.15568 c 0,-2.76 2.24,-5 5,-5 2.76,0 5,2.24 5,5 0,2.76 -2.24,5 -5,5 -2.76,0 -5,-2.24 -5,-5 z" copytype="single_stretched" prop_scale="1" scale_y_rel="false" spacing="0" normal_offset="0" tang_offset="0" prop_units="false" vertical_pattern="false" fuse_tolerance="0"/>
    <inkscape:path-effect fuse_tolerance="0" vertical_pattern="false" prop_units="false" tang_offset="0" normal_offset="0" spacing="0" scale_y_rel="false" prop_scale="1" copytype="single_stretched" pattern="m -549.60174,849.49486 c 0,-2.76 2.24,-5 5,-5 2.76,0 5,2.24 5,5 0,2.76 -2.24,5 -5,5 -2.76,0 -5,-2.24 -5,-5 z" is_visible="true" id="path-effect4007" effect="skeletal"/>
    <inkscape:path-effect effect="skeletal" id="path-effect4002" is_visible="true" pattern="m -1238.3391,-523.77692 c 0,-2.76 2.24,-5 5,-5 2.76,0 5,2.24 5,5 0,2.76 -2.24,5 -5,5 -2.76,0 -5,-2.24 -5,-5 z" copytype="single_stretched" prop_scale="1" scale_y_rel="false" spacing="0" normal_offset="0" tang_offset="0" prop_units="false" vertical_pattern="false" fuse_tolerance="0"/>
    <inkscape:path-effect fuse_tolerance="0" vertical_pattern="false" prop_units="false" tang_offset="0" normal_offset="0" spacing="0" scale_y_rel="false" prop_scale="1" copytype="single_stretched" pattern="m 414.81814,-431.14338 c 0,-2.76 2.24,-5 5,-5 2.76,0 5,2.24 5,5 0,2.76 -2.24,5 -5,5 -2.76,0 -5,-2.24 -5,-5 z" is_visible="true" id="path-effect3998" effect="skeletal"/>
    <inkscape:path-effect fuse_tolerance="0" vertical_pattern="false" prop_units="false" tang_offset="0" normal_offset="0" spacing="0" scale_y_rel="false" prop_scale="1" copytype="single_stretched" pattern="m 147.16835,-544.04551 c 0,-2.76 2.24,-5 5,-5 2.76,0 5,2.24 5,5 0,2.76 -2.24,5 -5,5 -2.76,0 -5,-2.24 -5,-5 z" is_visible="true" id="path-effect3996" effect="skeletal"/>
    <inkscape:path-effect fuse_tolerance="0" vertical_pattern="false" prop_units="false" tang_offset="0" normal_offset="0" spacing="0" scale_y_rel="false" prop_scale="1" copytype="single_stretched" pattern="m -1327.1072,-361.4663 c 0,-2.76 2.24,-5 5,-5 2.76,0 5,2.24 5,5 0,2.76 -2.24,5 -5,5 -2.76,0 -5,-2.24 -5,-5 z" is_visible="true" id="path-effect3992" effect="skeletal"/>
    <inkscape:path-effect fuse_tolerance="0" vertical_pattern="false" prop_units="false" tang_offset="0" normal_offset="0" spacing="0" scale_y_rel="false" prop_scale="1" copytype="single_stretched" pattern="m -263.52258,-1824.6837 c 0,-2.76 2.24,-5 5,-5 2.76,0 5,2.24 5,5 0,2.76 -2.24,5 -5,5 -2.76,0 -5,-2.24 -5,-5 z" is_visible="true" id="path-effect3987" effect="skeletal"/>
    <inkscape:path-effect fuse_tolerance="0" vertical_pattern="false" prop_units="false" tang_offset="0" normal_offset="0" spacing="0" scale_y_rel="false" prop_scale="1" copytype="single_stretched" pattern="m -1217.4257,1223.0237 c 0,-2.76 2.24,-5 5,-5 2.76,0 5,2.24 5,5 0,2.76 -2.24,5 -5,5 -2.76,0 -5,-2.24 -5,-5 z" is_visible="true" id="path-effect3891" effect="skeletal"/>
    <inkscape:path-effect effect="skeletal" id="path-effect3889" is_visible="true" pattern="m -1488.1177,1223.0237 c 0,-2.76 2.24,-5 5,-5 2.76,0 5,2.24 5,5 0,2.76 -2.24,5 -5,5 -2.76,0 -5,-2.24 -5,-5 z" copytype="single_stretched" prop_scale="1" scale_y_rel="false" spacing="0" normal_offset="0" tang_offset="0" prop_units="false" vertical_pattern="false" fuse_tolerance="0"/>
    <inkscape:path-effect effect="skeletal" id="path-effect3887" is_visible="true" pattern="m -978.72218,-431.14338 c 0,-2.76 2.24,-5 5,-5 2.76,0 5,2.24 5,5 0,2.76 -2.24,5 -5,5 -2.76,0 -5,-2.24 -5,-5 z" copytype="single_stretched" prop_scale="1" scale_y_rel="false" spacing="0" normal_offset="0" tang_offset="0" prop_units="false" vertical_pattern="false" fuse_tolerance="0"/>
    <inkscape:path-effect fuse_tolerance="0" vertical_pattern="false" prop_units="false" tang_offset="0" normal_offset="0" spacing="0" scale_y_rel="false" prop_scale="1" copytype="single_stretched" pattern="m -1504.4927,-4.0406143 c 0,-2.76 2.24,-5 5,-5 2.76,0 5,2.24 5,5 0,2.76 -2.24,4.99999996 -5,4.99999996 -2.76,0 -5,-2.23999996 -5,-4.99999996 z" is_visible="true" id="path-effect3885" effect="skeletal"/>
    <inkscape:path-effect fuse_tolerance="0" vertical_pattern="false" prop_units="false" tang_offset="0" normal_offset="0" spacing="0" scale_y_rel="false" prop_scale="1" copytype="single_stretched" pattern="m -700.01413,-431.14338 c 0,-2.76 2.24,-5 5,-5 2.76,0 5,2.24 5,5 0,2.76 -2.24,5 -5,5 -2.76,0 -5,-2.24 -5,-5 z" is_visible="true" id="path-effect3825" effect="skeletal"/>
    <inkscape:path-effect effect="skeletal" id="path-effect3821" is_visible="true" pattern="m -1186.524,-918.88256 c 0,-2.76 2.24,-5 5,-5 2.76,0 5,2.24 5,5 0,2.76 -2.24,5 -5,5 -2.76,0 -5,-2.24 -5,-5 z" copytype="single_stretched" prop_scale="1" scale_y_rel="false" spacing="0" normal_offset="0" tang_offset="0" prop_units="false" vertical_pattern="false" fuse_tolerance="0"/>
    <inkscape:path-effect effect="skeletal" id="path-effect3815" is_visible="true" pattern="m -1657.0629,-431.14338 c 0,-2.76 2.24,-5 5,-5 2.76,0 5,2.24 5,5 0,2.76 -2.24,5 -5,5 -2.76,0 -5,-2.24 -5,-5 z" copytype="single_stretched" prop_scale="1" scale_y_rel="false" spacing="0" normal_offset="0" tang_offset="0" prop_units="false" vertical_pattern="false" fuse_tolerance="0"/>
    <inkscape:path-effect effect="skeletal" id="path-effect3805" is_visible="true" pattern="m -1365.1387,-4.0406143 c 0,-2.76 2.24,-5 5,-5 2.76,0 5,2.24 5,5 0,2.76 -2.24,4.99999996 -5,4.99999996 -2.76,0 -5,-2.23999996 -5,-4.99999996 z" copytype="single_stretched" prop_scale="1" scale_y_rel="false" spacing="0" normal_offset="0" tang_offset="0" prop_units="false" vertical_pattern="false" fuse_tolerance="0"/>
    <inkscape:path-effect fuse_tolerance="0" vertical_pattern="false" prop_units="false" tang_offset="0" normal_offset="0" spacing="0" scale_y_rel="false" prop_scale="1" copytype="single_stretched" pattern="m -698.78493,-431.14338 c 0,-2.76 2.24,-5 5,-5 2.76,0 5,2.24 5,5 0,2.76 -2.24,5 -5,5 -2.76,0 -5,-2.24 -5,-5 z" is_visible="true" id="path-effect3801" effect="skeletal"/>
    <inkscape:path-effect fuse_tolerance="0" vertical_pattern="false" prop_units="false" tang_offset="0" normal_offset="0" spacing="0" scale_y_rel="false" prop_scale="1" copytype="single_stretched" pattern="m 410.30107,-13.081268 c 0,-2.76 2.24,-5 5,-5 2.76,0 5,2.24 5,5 0,2.76 -2.24,5 -5,5 -2.76,0 -5,-2.24 -5,-5 z" is_visible="true" id="path-effect3797" effect="skeletal"/>
    <inkscape:path-effect fuse_tolerance="0" vertical_pattern="false" prop_units="false" tang_offset="0" normal_offset="0" spacing="0" scale_y_rel="false" prop_scale="1" copytype="single_stretched" pattern="m -1348.7637,1223.0237 c 0,-2.76 2.24,-5 5,-5 2.76,0 5,2.24 5,5 0,2.76 -2.24,5 -5,5 -2.76,0 -5,-2.24 -5,-5 z" is_visible="true" id="path-effect3793" effect="skeletal"/>
    <inkscape:path-effect effect="skeletal" id="path-effect3789" is_visible="true" pattern="m -1008.3947,1223.0237 c 0,-2.76 2.24,-5 5,-5 2.76,0 4.99997,2.24 4.99997,5 0,2.76 -2.23997,5 -4.99997,5 -2.76,0 -5,-2.24 -5,-5 z" copytype="single_stretched" prop_scale="1" scale_y_rel="false" spacing="0" normal_offset="0" tang_offset="0" prop_units="false" vertical_pattern="false" fuse_tolerance="0"/>
    <inkscape:path-effect fuse_tolerance="0" vertical_pattern="false" prop_units="false" tang_offset="0" normal_offset="0" spacing="0" scale_y_rel="false" prop_scale="1" copytype="single_stretched" pattern="m -277.42842,-13.081307 c 0,-2.76 2.24,-5 5,-5 2.76,0 5,2.24 5,5 0,2.76 -2.24,4.9999997 -5,4.9999997 -2.76,0 -5,-2.2399997 -5,-4.9999997 z" is_visible="true" id="path-effect3785" effect="skeletal"/>
    <inkscape:path-effect effect="skeletal" id="path-effect3013" is_visible="true" pattern="m 698.04977,-13.081307 c 0,-2.76 2.24,-5 5,-5 2.76,0 5,2.24 5,5 0,2.76 -2.24,4.9999997 -5,4.9999997 -2.76,0 -5,-2.2399997 -5,-4.9999997 z" copytype="single_stretched" prop_scale="1" scale_y_rel="false" spacing="0" normal_offset="0" tang_offset="0" prop_units="false" vertical_pattern="false" fuse_tolerance="0"/>
    <clipPath clipPathUnits="userSpaceOnUse" id="clipPath5355">
      <rect style="color:#000000;fill:#000000;fill-opacity:1;fill-rule:nonzero;stroke:none;marker:none;visibility:visible;display:inline;overflow:visible;enable-background:accumulate" id="rect5357" width="73.742592" height="34.065872" x="20.239136" y="29.263216"/>
    </clipPath>
  </defs>
  <sodipodi:namedview pagecolor="#ffffff" bordercolor="#666666" borderopacity="1" objecttolerance="10" gridtolerance="10" guidetolerance="10" inkscape:pageopacity="0" inkscape:pageshadow="2" inkscape:window-width="1314" inkscape:window-height="724" id="namedview4" showgrid="false" inkscape:zoom="21.043258" inkscape:cx="24.280293" inkscape:cy="42.396615" inkscape:window-x="49" inkscape:window-y="0" inkscape:window-maximized="0" inkscape:current-layer="svg2" showguides="true" inkscape:guide-bbox="true" inkscape:snap-bbox="false" fit-margin-top="30" fit-margin-left="30" fit-margin-right="30" fit-margin-bottom="30" units="px" inkscape:object-paths="false">
    <sodipodi:guide orientation="0,1" position="-39.179104,31.716418" id="guide3098"/>
  </sodipodi:namedview>
  <path id="path3071" style="fill:#000000;fill-opacity:1" d="m 68.509045,40.229028 c 0.0022,0.0094 -0.002,0.02189 0,0.03125 0.07701,0.366412 0.1639,0.807245 0.25,1.25 l 3.40625,1.84375 0.2,-0.97475 z m 2.125,-0.5625 c -0.07326,-0.002 -0.146351,0.02045 -0.21875,0.03125 -0.01986,0.003 -0.04277,-0.004 -0.0625,0 -6.1e-5,1e-5 -0.04506,0.02465 -0.0625,0.03125 -0.09504,0.0248 -0.19244,0.04345 -0.28125,0.09375 -0.01745,0.007 -0.06241,0.03125 -0.0625,0.03125 -0.08027,0.0519 -0.147418,0.11155 -0.21875,0.1875 -0.0776,0.0739 -0.102,0.0975 -0.125,0.125 -0.01568,0.0169 -0.01909,0.04495 -0.03125,0.0625 l 2.40625,1.3125 c 0.0062,-0.0164 0.02046,-0.07145 0.03125,-0.09375 0.02158,-0.0447 0.0439,-0.0717 0.0625,-0.1875 0.0056,-0.0347 0.0016,-0.0947 0,-0.125 -3.91e-4,-0.008 -2e-6,-0.03125 0,-0.03125 0.0037,-0.0745 0.01013,-0.14703 0,-0.21875 -0.0028,-0.0195 0.0037,-0.0433 0,-0.0625 -2e-5,-1.4e-4 -0.04752,-0.16108 -0.09375,-0.28125 -0.0062,-0.0138 -0.02454,-0.01775 -0.03125,-0.03125 -0.01243,-0.0323 -0.03123,-0.09375 -0.03125,-0.09375 -2.6e-5,-5e-5 -0.08775,-0.10901 -0.15625,-0.1875 -0.01238,-0.0142 -0.01801,-0.01615 -0.03125,-0.03125 -0.0096,-0.0105 -0.02139,-0.02105 -0.03125,-0.03125 -0.102998,-0.11792 -0.193275,-0.22173 -0.21875,-0.25 -1e-5,0 -0.02745,-0.03005 -0.03125,-0.03125 -0.04991,-0.0191 -0.307754,-0.10042 -0.46875,-0.15625 -0.05479,-0.019 -0.156214,-0.0625 -0.15625,-0.0625 -6e-5,-10e-6 -0.09806,-0.006 -0.1875,0 z m -5.875,-2.09375 c -0.577422,0.02935 -1.129166,0.138505 -1.625,0.25 -0.02016,0.005 -0.04259,-0.005 -0.0625,0 l -0.15625,0.0625 -0.1875,0.03125 c -1.500318,0.37243 -2.998105,0.76529 -4.5,1.125 -1.139066,0.40973 -1.315537,1.73607 -1.84375,2.6875 -0.719765,1.89864 -1.622089,3.76576 -2.1875,5.71875 -0.103073,1.7683 -0.307768,3.5493 -0.3125,5.3125 0.10893,1.33282 2.135121,1.57989 2.625,0.375 0.353244,-1.32435 0.304039,-2.73767 0.5,-4.09375 -0.0223,-1.57052 0.851922,-2.92613 1.34375,-4.375 0.467626,-1.48722 0.177816,0.97044 0.25,1.53125 0.0063,1.61976 -0.02974,3.25614 0,4.875 -0.0046,0.0846 -0.03098,0.1649 -0.03125,0.25 -0.0012,0.0924 0.01376,0.19062 0.03125,0.28125 0.05245,0.27189 0.179297,0.52256 0.375,0.71875 -0.007,0.0429 -0.02505,0.0844 -0.03125,0.125 -0.0187,0.12027 -0.0377,0.28224 -0.0625,0.46875 -0.0496,0.37302 -0.10894,0.8804 -0.1875,1.53125 -0.15039,1.24596 -0.34821,2.99874 -0.5625,4.90625 -0.05122,0.11764 -0.09627,0.23437 -0.125,0.34375 -0.443355,1.2732 -0.894272,2.53917 -1.34375,3.8125 -0.150492,0.42889 -0.374202,1.04482 -0.5,1.40625 -0.144886,0.42684 -0.300237,0.85252 -0.4375,1.28125 -0.02828,0.0863 -0.06858,0.23738 -0.09375,0.3125 -0.0467,0.13931 -0.06145,0.24262 -0.09375,0.34375 -0.0029,0.009 0.0029,0.02185 0,0.03125 -0.01681,0.0343 -0.05386,0.06615 -0.0625,0.09375 -0.0192,0.0618 -0.0428,0.11349 -0.0625,0.1875 -0.01,0.037 -0.01295,0.0849 -0.03125,0.1875 -0.009,0.0513 -0.02795,0.0996 -0.03125,0.28125 -0.0015,0.0529 -0.0037,0.10419 0,0.15625 3e-5,3.5e-4 0.0624,0.31225 0.0625,0.3125 3e-6,1e-5 -9.72e-4,0.02885 0,0.03125 0.02626,0.0906 0.08432,0.16519 0.125,0.25 0.05362,0.13789 0.0937,0.28118 0.09375,0.28125 3.9e-5,5e-5 0.189436,0.1811 0.28125,0.28125 0.02573,0.0281 0.06249,0.09375 0.0625,0.09375 3e-5,2e-5 0.140641,0.0781 0.28125,0.15625 0.140609,0.0781 0.281215,0.15624 0.28125,0.15625 10e-6,0 0.07079,-0.003 0.09375,0 0.01276,0.004 0.01839,0.02745 0.03125,0.03125 0.131497,0.0197 0.304471,0.0472 0.40625,0.0625 0.02921,9.73e-4 0.06436,6.23e-4 0.09375,0 l 0.375,-0.03125 c 0.02354,-0.005 0.03967,-0.02545 0.0625,-0.03125 l 0.0625,0 c 0.07984,-0.0234 0.147451,-0.0921 0.21875,-0.125 0.04193,-0.0222 0.05182,-0.0091 0.09375,-0.03125 0.01331,-0.007 0.01824,-0.02385 0.03125,-0.03125 0.0841,-0.0445 0.187427,-0.09375 0.1875,-0.09375 1.2e-4,-9e-5 0.06383,-0.0638 0.125,-0.125 0.03263,-0.0306 0.06337,-0.06085 0.09375,-0.09375 2.4e-4,-2.5e-4 0.0972,-0.0896 0.125,-0.125 0.04663,-0.0593 0.04088,-0.06395 0.0625,-0.09375 0.02956,-0.0424 0.06642,-0.0805 0.09375,-0.125 0.0505,-0.0905 0.07795,-0.12149 0.09375,-0.15625 0.03072,-0.0574 0.03435,-0.12781 0.0625,-0.1875 0.0486,-0.11986 0.11489,-0.27785 0.1875,-0.46875 0.02623,-0.069 0.09506,-0.2019 0.125,-0.28125 0.100722,-0.2882 0.172988,-0.58607 0.28125,-0.84375 0.05604,-0.15858 0.130512,-0.31044 0.1875,-0.46875 0.266063,-0.72485 0.681895,-1.84519 1.03125,-2.8125 0.288534,-0.78808 0.582714,-1.57858 0.84375,-2.375 0.064,-0.17922 0.12468,-0.38641 0.1875,-0.5625 0.04466,-0.12112 0.07619,-0.2471 0.09375,-0.375 0.22398,-2.0163 0.42857,-3.84928 0.5625,-5.15625 0.03,-0.29307 0.038,-0.45301 0.0625,-0.6875 0.226976,0.0471 0.465721,0.03595 0.6875,-0.03125 0.246722,0.79174 0.608284,1.9726 0.96875,3.125 -0.0027,0.008 0.0028,0.02355 0,0.03125 0.854789,2.75814 1.223635,5.63383 1.90625,8.4375 0.231091,1.14884 0.437688,2.67149 1.84375,2.90625 1.204195,0.17215 2.368678,-1.01731 2,-2.21875 -0.536637,-3.01828 -1.19974,-6.02366 -1.8125,-9.03125 -0.731996,-2.13029 -1.373102,-4.31183 -2.1875,-6.40625 -0.0162,-0.01592 -0.02332,-0.0508 -0.03125,-0.0625 -0.003,-0.004 0.0034,-0.02645 0,-0.03125 -0.02759,-0.0389 -0.0441,-0.0562 -0.125,-0.15625 -0.0247,-0.0305 -0.06755,-0.0922 -0.09375,-0.125 0.03515,-0.11136 0.0562,-0.22715 0.0625,-0.34375 -0.0039,-1.20639 0.0056,-2.15437 0,-3.25 -2.15e-4,-0.0421 2.15e-4,-0.0831 0,-0.125 -0.0047,-1.1247 -0.02873,-2.2503 -0.03125,-3.375 -0.001,-0.26498 0.002,-0.39285 0,-0.625 0.15568,0.72348 0.31876,1.5165 0.5,2.34375 0.0492,0.22439 0.13973,0.43833 0.1875,0.65625 0.004,0.0193 -0.004,0.0432 0,0.0625 0.01,0.0211 0.02045,0.0419 0.03125,0.0625 -4.7e-4,0.0208 -4.7e-4,0.0417 0,0.0625 0.01,0.0211 0.02045,0.0419 0.03125,0.0625 0.0331,0.0872 0.0751,0.17114 0.125,0.25 0.01,0.0211 0.02045,0.0419 0.03125,0.0625 0.0547,0.0791 0.11766,0.15258 0.1875,0.21875 0.0206,0.0109 0.0414,0.02145 0.0625,0.03125 0.51393,0.41159 1.32814,0.38351 1.8125,-0.0625 0.0321,-0.0196 0.06345,-0.0404 0.09375,-0.0625 1.2e-4,-0.0104 1.2e-4,-0.02085 0,-0.03125 0.0327,-0.0297 0.06415,-0.06105 0.09375,-0.09375 0.0104,1.2e-4 0.02085,1.2e-4 0.03125,0 0.279229,-0.4117 0.527061,-0.77703 0.78125,-1.15625 0.143668,-0.21434 0.303028,-0.45642 0.4375,-0.65625 0.319183,-0.47432 0.59594,-0.87243 0.84375,-1.25 0.02657,-0.0396 0.04106,-0.08427 0.0625,-0.125 l -2.53125,-1.375 c -0.0181,0.02597 -0.04449,0.03675 -0.0625,0.0625 -0.0092,-0.0454 -0.02225,-0.07974 -0.03125,-0.125 l 0,-0.03125 c -0.101943,-0.514701 -0.195104,-1.027637 -0.28125,-1.4375 -0.0304,-0.14248 -0.0833,-0.28013 -0.15625,-0.40625 -0.29049,-0.51491 -0.51537,-0.92381 -0.6875,-1.21875 -0.0567,-0.0972 -0.11269,-0.14636 -0.15625,-0.21875 -0.0226,-0.0375 -0.0426,-0.0929 -0.0625,-0.125 -0.0292,-0.0471 -0.05405,-0.0989 -0.09375,-0.15625 -0.0143,-0.0207 -0.0347,-0.05825 -0.0625,-0.09375 -1e-5,-10e-6 -0.02565,-0.02635 -0.03125,-0.03125 -0.0317,-0.0371 -0.0588,-0.0843 -0.1875,-0.1875 -0.0322,-0.0258 -0.12474,-0.09365 -0.125,-0.09375 -1.9e-4,-1.2e-4 -0.11722,-0.05885 -0.1875,-0.09375 -0.292953,-0.0938 -0.595715,-0.13873 -0.90625,-0.15625 -0.192616,-0.01087 -0.401276,-0.0098 -0.59375,0 z m -8.75,-3.53125 1.4375,1.34375 1.25,0.6875 c -0.19306,-0.330405 -0.32672,-0.705126 -0.40625,-1.09375 -0.01924,-0.09403 -0.02176,-0.187701 -0.03125,-0.28125 l -0.28125,-0.15625 z m 5.96875,-3.09375 c -0.674147,0 -1.292672,0.210793 -1.8125,0.5625 -0.519828,0.351707 -0.940174,0.852221 -1.1875,1.4375 -0.164884,0.390186 -0.25,0.831007 -0.25,1.28125 0,0.225064 0.01909,0.444113 0.0625,0.65625 0.130229,0.63641 0.432874,1.183135 0.875,1.625 0.29475,0.294577 0.6729,0.554083 1.0625,0.71875 0.3896,0.164667 0.800569,0.25 1.25,0.25 0.224947,0 0.44405,-0.01917 0.65625,-0.0625 1.485398,-0.303291 2.59375,-1.611651 2.59375,-3.1875 0,-1.80097 -1.450886,-3.28125 -3.25,-3.28125 z" inkscape:connector-curvature="0"/>
  <path id="path3059" style="fill:#000000;fill-opacity:1" d="m 41.884045,51.657802 c -0.0205,0.5749 -0.0403,1.02633 -0.0625,1.625 -0.0218,0.39 0.12981,0.78653 0.40625,1.0625 -0.002,0.0146 0.002,0.0496 0,0.0625 -0.0022,0.0196 0.0022,0.0425 0,0.0625 -0.0082,0.0431 -0.02774,0.0848 -0.03125,0.125 -0.003,0.0338 0.0029,0.0874 0,0.125 -0.0072,0.0676 -0.02426,0.11477 -0.03125,0.1875 -0.003,0.0449 0.0032,0.0742 0,0.125 -0.02464,0.27551 -0.05651,0.58239 -0.0625,0.9375 -0.116203,1.98116 -0.145504,3.95581 -0.25,5.9375 -0.697746,1.66069 -1.430059,3.29562 -2.09375,4.96875 -0.286662,0.60507 -0.186741,1.3152 0.15625,1.875 0.539698,0.58091 1.405719,0.892181 2.15625,0.5625 0.965108,-0.37451 1.179989,-1.50949 1.59375,-2.34375 0.610798,-1.41831 1.260471,-2.80883 1.8125,-4.25 0.144308,-1.76348 0.14935,-3.54271 0.21875,-5.3125 -0.01206,-0.01 -0.0197,-0.02125 -0.03125,-0.03125 0.01981,-0.24306 0.05519,-0.48128 0.0625,-0.71875 0.006,-0.19765 0.02315,-0.29725 0.03125,-0.46875 0.207108,0.037 0.422609,0.02625 0.625,-0.03125 0.01023,0.0298 0.02079,0.06335 0.03125,0.09375 0.408937,1.25547 0.867795,2.49153 1.25,3.75 0.174981,2.43405 0.233971,4.89152 0.53125,7.3125 0.145195,0.62402 0.726739,1.08091 1.375,1.21875 0.648261,0.13784 1.372008,-0.12338 1.8125,-0.625 0.571919,-0.72679 0.253644,-1.68998 0.3125,-2.53125 -0.0985,-2.07491 -0.177427,-4.15089 -0.375,-6.21875 -0.388604,-1.16473 -0.797325,-2.31375 -1.21875,-3.46875 -0.03531,-0.14098 -0.07957,-0.27008 -0.125,-0.40625 -0.04998,-0.13535 -0.105723,-0.27112 -0.15625,-0.40625 -0.1882,-0.51179 -0.35541,-0.92369 -0.46875,-1.21875 -0.01191,-0.031 -0.04626,-0.0393 -0.0625,-0.0625 -0.01826,-0.0261 -0.01844,-0.06665 -0.03125,-0.09375 -0.03545,0.0253 -0.05676,0.07035 -0.09375,0.09375 -0.007,0.004 -0.02367,-0.004 -0.03125,0 -0.213671,0.0376 -0.500121,0.24441 -0.75,0.1875 -0.533031,0.0286 -0.988185,-0.20975 -1.5,-0.34375 -1.679456,-0.56626 -3.337734,-1.16713 -5,-1.78125 z m 10.21875,-0.0625 -1.65625,0.25 c 0.347241,0.186449 0.84067,0.236042 1.15625,0.09375 0.182556,-0.06899 0.351931,-0.205055 0.5,-0.34375 z m 0.09375,-1.65625 -2.5,0.53125 c 0.335285,0.489649 0.329257,0.800386 0.375,1.09375 l 2.3125,-0.375 1.0625,-0.5 -0.03125,-0.625 z m -8.15625,-10.1875 c -2.217451,0.583877 -4.094913,3.075485 -3.875,5.71875 0.144093,1.089946 0.264414,2.81461 0.40625,4.21875 0.07899,0.59774 0.486972,1.16385 1.09375,1.3125 2.128789,0.75052 4.251356,1.55972 6.40625,2.21875 0.639066,0.0889 1.3618,-0.29944 1.53125,-0.9375 0.162247,-0.6095 -0.01473,-1.30131 -0.59375,-1.625 -1.032286,-0.50027 -2.146542,-0.82836 -3.21875,-1.25 -0.81037,-0.29155 -1.627695,-0.58191 -2.4375,-0.875 -0.10609,-1.13626 -0.219293,-2.27184 -0.34375,-3.40625 0.101294,-0.35499 0.34733,-1.33238 0.6875,-1.125 0.01358,0.663735 -0.104006,1.1341 -0.0625,1.71875 0.09236,0.79728 0.173847,1.60729 0.25,2.40625 1.614855,0.60319 3.250466,1.15371 4.84375,1.8125 0.05981,-0.30925 -0.0068,-0.93994 0,-1.375 -0.02729,-1.61279 -0.156234,-2.830682 -0.125,-4.443492 0.02768,-0.31972 0.08476,-1.05323 0.21875,-1.09375 0.129598,0.375002 0.241376,0.723215 0.260781,1.06913 l 0.145469,2.593112 c 0.04445,1.16699 0.08411,2.33288 0.125,3.5 0.07314,0.05754 0.122192,0.126698 0.1875,0.1875 0.0033,-0.240478 0.196192,-0.471725 0.4375,-0.5 l 2.125,-0.34375 -1.529958,-2.705063 -0.126292,-4.201187 c -0.03409,-1.134135 -0.442662,-1.86515 -1.25,-2.625 -0.647233,0.62312 -1.505564,1.03125 -2.46875,1.03125 -0.812306,0 -1.561312,-0.28193 -2.15625,-0.75 -0.198494,-0.15599 -0.366603,-0.3409 -0.53125,-0.53125 z m 2.6875,-5.40625 c -0.425953,0 -0.818253,0.09356 -1.1875,0.25 -0.184624,0.07822 -0.367026,0.170138 -0.53125,0.28125 -0.164224,0.111112 -0.329073,0.235145 -0.46875,0.375 -0.139677,0.139855 -0.26402,0.304298 -0.375,0.46875 -0.11098,0.164452 -0.203115,0.346348 -0.28125,0.53125 -0.07814,0.184902 -0.146358,0.361295 -0.1875,0.5625 -0.04114,0.201205 -0.0625,0.411639 -0.0625,0.625 0,0.639919 0.198309,1.226154 0.53125,1.71875 0.11098,0.164199 0.235323,0.329156 0.375,0.46875 0.139677,0.139594 0.304526,0.264128 0.46875,0.375 0.492673,0.332616 1.07982,0.53125 1.71875,0.53125 1.705571,0 3.09375,-1.38686 3.09375,-3.09375 0,-1.70689 -1.38862,-3.09375 -3.09375,-3.09375 z" inkscape:connector-curvature="0" sodipodi:nodetypes="ccccccccccccccccccccccccsccccccccccccccccccccccccccccccccccccccccccsccccccscsccssssscssssssss"/>
  <path id="path3055" style="fill:#000000;fill-opacity:1" d="m 26.384045,52.929351 c -0.106774,0.68728 -0.284828,1.37325 -0.375,2.0625 -0.0096,0.0368 -0.02309,0.05185 -0.03125,0.09375 -0.02015,0.11228 -0.03983,0.23019 -0.03125,0.34375 0.02575,0.34068 0.190563,0.66932 0.4375,0.90625 -1.17e-4,0.0104 -1.17e-4,0.02085 0,0.03125 -0.027,0.17131 -0.03265,0.2549 -0.03125,0.3125 0.003,0.12662 0.02605,0.17726 0.03125,0.21875 0.0054,0.0426 0.02587,0.06365 0.03125,0.09375 0.0051,0.0286 -0.0049,0.06675 0,0.09375 4.66e-4,0.003 0.02874,-0.003 0.03125,0 0.309567,1.69653 0.710573,3.38143 1.09375,5.0625 -1.173735,1.52521 -2.381162,3.02996 -3.5,4.59375 -0.389278,0.57794 -0.423796,1.4061 0.0625,1.9375 0.344162,0.67594 1.246675,0.874932 1.9375,0.71875 0.829619,-0.21365 1.203613,-1.01514 1.75,-1.59375 1.121518,-1.40998 2.239913,-2.82674 3.34375,-4.25 0.562596,-0.83982 0.08674,-1.84191 -0.09375,-2.71875 -0.215472,-0.87534 -0.437755,-1.75041 -0.65625,-2.625 0.202966,-0.0401 0.396704,-0.12624 0.5625,-0.25 0.021,0.0282 0.0407,0.0334 0.0625,0.0625 0.253643,0.33877 0.664779,0.83917 1.03125,1.3125 0.196204,0.25341 0.328,0.45305 0.53125,0.71875 l -0.15625,1.0625 c -0.186816,1.7314 -0.434121,3.44856 -0.53125,5.1875 0.02781,0.68608 0.482935,1.40371 1.15625,1.59375 0.703403,0.33767 1.645795,0.0352 2.09375,-0.59375 0.438947,-0.63575 0.364904,-1.46018 0.53125,-2.1875 0.235785,-1.87517 0.49044,-3.74362 0.65625,-5.625 -0.01376,-0.32926 -0.116995,-0.5282 -0.3125,-0.875 -0.195505,-0.3468 -0.659964,-0.95675 -0.96875,-1.34375 -0.0597,-0.0787 -0.124799,-0.16753 -0.1875,-0.25 -0.0174,0.0158 -0.09375,0.0625 -0.09375,0.0625 -0.517233,0.25483 -0.887748,0.23943 -1.3125,0.1875 -0.01055,-10e-4 -0.02059,0.001 -0.03125,0 -0.168823,-0.0246 -0.315376,-0.0581 -0.46875,-0.125 -0.008,-0.003 -0.02329,0.004 -0.03125,0 -0.04319,-0.021 -0.06734,-0.0375 -0.09375,-0.0625 -0.02506,-0.0125 -0.0377,-0.0493 -0.0625,-0.0625 -0.05579,-0.0311 -0.163298,-0.0896 -0.28125,-0.15625 -0.01958,-0.0123 -0.043,-0.01875 -0.0625,-0.03125 -0.13898,-0.0827 -0.373847,-0.2282 -0.5625,-0.34375 -0.102689,-0.064 -0.205967,-0.13388 -0.3125,-0.1875 -0.08301,-0.0522 -0.166804,-0.10435 -0.25,-0.15625 -1.556431,-0.97101 -3.146823,-1.89666 -4.65625,-2.9375 -0.09475,-0.0827 -0.174875,-0.18022 -0.25,-0.28125 z m 3.84375,-9.1875 c -2.837299,0.793614 -4.120692,2.882054 -4.46875,5.25 -0.116004,0.78921 0.472526,1.69649 0.6875,2.53125 0.132597,0.71373 0.449122,1.39162 1.15625,1.6875 1.85608,1.17294 3.737906,2.35152 5.625,3.46875 0.589164,0.27807 1.270181,0.0364 1.65625,-0.46875 0.357808,-0.51078 0.420128,-1.26673 -0.03125,-1.75 -0.618898,-0.57024 -1.373809,-0.92484 -2.0625,-1.40625 l -3.3125,-2.09375 c -0.09318,-0.10577 -0.410178,-1.024296 -0.608215,-1.891536 l 0.05413,-0.904772 0.366589,-0.266192 -0.03125,1.09375 0.4375,1.46875 0.59375,0.375 c 0.962988,0.61715 1.94223,1.19687 2.90625,1.8125 0.163135,-1.56285 0.359455,-3.12239 0.5,-4.6875 0.673203,0.90914 1.346637,1.81815 2.03125,2.71875 0.605052,1.80512 1.191898,3.6176 1.84375,5.40625 0.299293,0.66858 1.069515,0.924 1.75,0.78125 0.60523,-0.27937 1.099668,-0.93444 0.90625,-1.625 -0.533734,-1.97384 -1.220152,-3.89465 -1.84375,-5.84375 -0.615407,-0.95555 -1.388447,-1.83262 -2.0625,-2.75 -0.205064,-0.20907 -0.332364,-0.45489 -0.4375,-0.71875 -0.08865,-0.22248 -0.147513,-0.45715 -0.21875,-0.6875 -0.08934,-0.444065 -0.386073,-0.75614 -0.59375,-1.0625 -0.148491,0.13171 -0.302168,0.23702 -0.46875,0.34375 -0.285966,0.18321 -0.60394,0.31786 -0.9375,0.40625 -0.262777,0.0669 -0.542485,0.1272 -0.8125,0.125 -1.008942,-0.008 -2.004828,-0.48537 -2.625004,-1.3125 z m 2.65625,-4.96875 c -0.198611,0 -0.375175,0.02409 -0.5625,0.0625 -0.187325,0.03841 -0.390329,0.08331 -0.5625,0.15625 -1.033025,0.437671 -1.75,1.46243 -1.75,2.65625 0,0.397838 0.07302,0.780543 0.21875,1.125 0.07287,0.172228 0.177755,0.346877 0.28125,0.5 0.103495,0.153123 0.213495,0.307322 0.34375,0.4375 0.130255,0.130178 0.284353,0.240356 0.4375,0.34375 0.459442,0.310181 0.997916,0.5 1.59375,0.5 0.198816,0 0.4062,-0.02421 0.59375,-0.0625 1.312847,-0.268058 2.28125,-1.45096 2.28125,-2.84375 0,-1.59176 -1.284881,-2.875 -2.875,-2.875 z" inkscape:connector-curvature="0" sodipodi:nodetypes="cccccccccccccccccccccscccccccscccccccccccccccccscccccccccccccccccccccsccccccsscscsssscss"/>
  <path id="path3051" style="fill:#000000;fill-opacity:1" d="m 14.910631,65.199386 c 0.01423,0.54202 -0.07753,1.08521 -0.03125,1.625 -0.01734,0.427713 0.166489,0.775942 0.34375,1.09375 0.136788,0.245244 0.395343,0.4274 0.65625,0.53125 0.435353,0.17328 0.95869,0.201239 1.40625,0.0625 0.349048,-0.108201 0.644978,-0.37229 0.875,-0.65625 0.134178,-0.16564 0.195526,-0.3691 0.28125,-0.5625 -0.139146,-0.0853 -0.305423,-0.14189 -0.4375,-0.21875 -0.278841,-0.12558 -0.547137,-0.31614 -0.8125,-0.46875 -0.768667,-0.46736 -1.520034,-0.92691 -2.28125,-1.40625 z m -4.28125,-8.375 c -0.586814,0.55616 -1.2288984,1.06707 -1.7812504,1.65625 -0.381192,0.53699 -0.346021,1.34008 0.125,1.8125 l 0.0625,3.59375 -2.34375,2.6875 c -0.340839,0.38096 -0.4301913,0.923645 -0.34375,1.40625 0.092607,0.517029 0.4612298,0.982175 0.9375,1.25 0.4907876,0.275989 1.099138,0.281498 1.59375,0.0625 0.5849151,-0.258982 0.9592542,-0.812051 1.3750004,-1.28125 l 2.1875,-2.46875 c 0.366451,-0.51869 0.281032,-1.1549 0.25,-1.75 -0.588607,-0.34798 -1.252537,-0.70585 -1.46875,-1.40625 -0.320417,-0.97742 -0.59117,-1.97889 -0.875,-2.96875 -0.109947,-0.68771 0.118868,-1.38106 0.1875,-2.0625 0.0274,-0.17828 0.06776,-0.35277 0.09375,-0.53125 z m 9.71875,-4.5 c 0.402714,1.71367 -1.142542,3.46598 -2.875,3.40625 -1.349879,0.0302 -2.614437,-1.01392 -2.84375,-2.34375 -0.708831,0.18751 -1.450392,0.06555 -2.15625,0.15625 -0.467115,0.14574 -0.860809,0.62356 -0.96875,1.125 -0.232633,1.46004 -0.502109,2.93664 -0.65625,4.40625 0.213972,1.01758 0.569288,1.99546 0.84375,3 0.228375,0.81926 1.097629,1.07767 1.71875,1.53125 1.579477,0.98191 3.131554,2.02241 4.75,2.9375 0.663628,0.43555 1.630996,0.10852 1.96875,-0.5625 0.398851,-0.80678 -0.05308,-1.68604 -0.84375,-2.03125 -1.635125,-1.0799 -3.282804,-2.13781 -4.9375,-3.1875 l -0.53125,-2.15625 c 0.128804,-0.81081 0.241091,-1.63674 0.625,-2.375 0.200048,0.85665 0.0122,1.73716 -0.09375,2.59375 l 0.523697,1.56357 c 1.167465,0.74828 2.676033,1.71505 3.820053,2.49893 0.139291,-0.69628 -0.393351,-1.31179 -0.84375,-1.78125 -0.719185,-0.79176 -1.3794,-1.65884 -2.1875,-2.34375 0.851494,-0.93051 1.687542,-1.87496 2.53125,-2.8125 0.112062,0.67199 0.07287,1.45002 0.59375,1.96875 0.685324,0.92236 1.359025,1.84127 2.0625,2.75 0.614301,1.81057 0.847224,2.428248 1.558623,4.20195 0.285125,0.710891 1.21194,0.91153 1.875,0.59375 0.662982,-0.317743 0.915698,-1.21526 0.625,-1.8125 -0.09303,-0.191132 -0.342127,-1.18112 -0.5,-1.71875 -0.426382,-1.30527 -0.362609,-1.484814 -0.996123,-2.70195 -0.573729,-1.102274 -1.502062,-1.9755 -2.25,-2.96875 -0.166106,-1.17029 -0.368196,-2.33723 -0.5625,-3.5 -0.04963,-0.16047 -0.145241,-0.30903 -0.25,-0.4375 z m -2.875,-1.9375 c -0.1673,0 -0.310956,0.03015 -0.46875,0.0625 -0.946763,0.194108 -1.71234,0.926681 -1.90625,1.875 -0.03232,0.158053 -0.03125,0.332397 -0.03125,0.5 0,0.8378 0.41748,1.56453 1.0625,2 0.387012,0.261282 0.841849,0.40625 1.34375,0.40625 0.167473,0 0.342017,0.001 0.5,-0.03125 1.105878,-0.225801 1.9375,-1.201783 1.9375,-2.375 0,-1.34082 -1.098062,-2.4375 -2.4375,-2.4375 z" inkscape:connector-curvature="0" sodipodi:nodetypes="csssssscccccccccsssccccccccccccccccccccccccccccsssccsccssscssscs"/>
  <path id="path6059" style="fill:#000000;fill-opacity:1" d="m 83.634045,66.395369 -0.40625,1.8125 1,0.25 0.0625,-0.28125 c -0.031,-0.04245 -0.06555,-0.07964 -0.09375,-0.125 -0.0118,-0.02007 -0.02225,-0.04097 -0.03125,-0.0625 -0.20342,-0.525215 -0.37419,-1.057508 -0.53125,-1.59375 z m 6.28125,-20.75 -0.5,2.21875 c 0.375489,-0.106076 0.699706,-0.344783 0.875,-0.84375 0.157377,-0.6293 -0.02379,-1.061439 -0.375,-1.375 z m -7.9375,-8.09375 c -0.264403,0.008 -0.539436,0.03185 -0.78125,0.03125 -1.445668,0.17702 -3.193524,0.40981 -4.3125,0.6875 -1.118976,0.27769 -1.697504,0.55973 -2.28125,1.1875 -0.07621,0.082 -0.149946,0.16177 -0.21875,0.25 3.69e-4,-5.6e-4 -3.85e-4,0.03075 0,0.03125 -0.01809,0.0235 -0.04491,0.0386 -0.0625,0.0625 -0.0023,0.006 0.0033,0.02525 0,0.03125 -0.611755,0.84147 -0.957354,1.92812 -1.15625,2.9375 -0.01458,0.0969 -0.01805,0.18508 -0.03125,0.28125 -0.08409,0.42067 -0.148733,0.84023 -0.21875,1.25 -0.12511,0.74116 -0.26744,1.53412 -0.40625,2.375 -0.0362,0.21914 -0.05875,0.44255 -0.09375,0.65625 -0.07793,0.43459 0.06624,0.90314 0.375,1.21875 0.60251,0.60236 1.16894,1.17306 1.6875,1.6875 0.05701,0.0694 0.133236,0.11578 0.1875,0.1875 0.07525,0.0741 0.146097,0.11643 0.21875,0.1875 0.170772,0.15848 0.335285,0.33351 0.5,0.5 0.151623,0.14729 0.333506,0.33626 0.46875,0.46875 0.53423,0.54716 1.077823,1.092 1.71875,1.5 1.337775,0.60058 2.588458,-1.31827 1.5,-2.3125 -0.775856,-0.80262 -1.582742,-1.58234 -2.375,-2.375 -0.0261,-0.0409 -0.05868,-0.0841 -0.09375,-0.125 -0.02085,-0.0208 -0.04164,-0.0417 -0.0625,-0.0625 -0.35322,-0.35371 -0.75806,-0.75978 -1.15625,-1.15625 0.13714,-0.80528 0.2563,-1.56882 0.375,-2.28125 0.1123,-0.67405 0.22387,-1.2946 0.3125,-1.84375 0.23278,-0.55684 0.33256,-0.80335 0.71875,-1.03125 l -0.15625,1.1875 c -0.162735,0.57564 -0.23983,1.15748 -0.34375,1.78125 -0.10361,0.62185 -0.22643,1.29886 -0.34375,2 1.245649,1.2947 2.61618,2.4746 3.78125,3.84375 0.481479,0.70931 0.361883,1.64845 -0.15625,2.3125 -0.250308,0.26459 -0.551742,0.46598 -0.90625,0.59375 -0.10948,0.0395 -0.229638,0.07385 -0.34375,0.09375 -0.02193,0.002 -0.0408,-0.002 -0.0625,0 -0.894439,0.0633 -1.601084,-0.57417 -2.25,-1.1875 -0.004,0.0189 0.002,0.042 0,0.0625 -0.0103,0.12629 -0.01945,0.26946 -0.03125,0.46875 -0.0045,0.0754 -0.02595,0.22562 -0.03125,0.3125 -0.02125,0.36361 -0.0435,0.73002 -0.0625,1.09375 -0.0051,0.0985 0.0051,0.14532 0,0.25 -4.75e-4,0.01 2.42e-4,0.02145 0,0.03125 -0.0845,1.66191 -0.150242,3.33742 -0.21875,5 -1.38715,2.41422 -2.856891,4.79274 -4.15625,7.25 -0.453783,1.22664 0.632668,2.652995 1.9375,2.4375 1.318267,-0.30451 1.719042,-1.69237 2.375,-2.75 0.03442,-0.0555 0.08899,-0.10282 0.125,-0.15625 0.03861,-0.065 0.116148,-0.18253 0.15625,-0.25 0.03541,-0.0614 0.05888,-0.12617 0.09375,-0.1875 0.735219,-1.23634 1.653434,-2.75693 2.6875,-4.53125 0.0728,-0.12487 0.14698,-0.25175 0.21875,-0.375 0.151621,-0.25467 0.238412,-0.54759 0.25,-0.84375 0.0869,-2.14899 0.14245,-4.07083 0.1875,-5.46875 0.01,-0.30339 0.02075,-0.47003 0.03125,-0.71875 0.23953,0.0425 0.490146,0.0207 0.71875,-0.0625 0.011,0.0265 0.02015,0.0355 0.03125,0.0625 0.318164,0.76821 0.79761,1.91869 1.28125,3.0625 -4.19e-4,0.007 4.03e-4,0.02435 0,0.03125 0.772548,1.83302 1.062378,3.81463 1.625,5.71875 0.451188,1.61631 0.801168,3.28146 1.40625,4.84375 0.620425,0.99531 2.160159,1.07861 2.875,0.15625 0.864674,-1.05594 0.08782,-2.40411 -0.09375,-3.5625 -0.710049,-2.70516 -1.273599,-5.44355 -2.15625,-8.09375 -0.808957,-1.81864 -1.544937,-3.6957 -2.4375,-5.46875 -0.0281,-0.0416 -0.0864,-0.11239 -0.1875,-0.21875 0.02729,-0.12282 0.03787,-0.24936 0.03125,-0.375 -0.0036,-1.11361 -0.0017,-1.97944 0,-3 0.01585,-0.21713 0.01295,-0.42225 0,-0.59375 0.0031,-1.05323 0.0011,-2.10302 0,-3.15625 -0.001,-0.38422 0.003,-0.58693 0,-0.90625 0.16659,0.64427 0.30783,1.21908 0.5,1.96875 0.10674,0.4164 0.21205,0.79891 0.3125,1.1875 0.11272,0.46426 0.48147,0.8576 0.9375,1 1.058565,0.3237 1.977516,0.53728 2.6875,0.78125 0.07726,0.02655 0.173077,0.06579 0.25,0.09375 l 0.625,-2.78125 c -0.160008,-0.04868 -0.316585,-0.109979 -0.46875,-0.15625 -0.462902,-0.14077 -0.90954,-0.27647 -1.4375,-0.4375 -0.0388,-0.15604 -0.0852,-0.30928 -0.125,-0.46875 -0.213631,-0.85526 -0.407163,-1.66398 -0.59375,-2.375 -0.0039,-0.0149 -0.02624,-0.01695 -0.03125,-0.03125 -0.26334,-1.0837 -0.68608,-2.09829 -1.3125,-3.03125 -0.426955,-0.75537 -1.238041,-0.80417 -2.03125,-0.78125 z m 9.6875,-4.3125 -1.375,3.71875 -4.4375,19.625 c 0.2117,0.662996 0.41271,1.33215 0.59375,2 l 4.8125,-21.1875 z m -12.46875,-2.6875 c -0.224715,0 -0.444304,0.01905 -0.65625,0.0625 -0.423892,0.08691 -0.809698,0.265529 -1.15625,0.5 -0.173276,0.117236 -0.352625,0.258687 -0.5,0.40625 -0.442126,0.44269 -0.744771,1.019366 -0.875,1.65625 -0.04341,0.212295 -0.0625,0.431129 -0.0625,0.65625 0,0.450128 0.08512,0.86027 0.25,1.25 0.08244,0.194865 0.195403,0.389251 0.3125,0.5625 0.117097,0.173249 0.227625,0.321462 0.375,0.46875 0.589501,0.589154 1.413638,0.96875 2.3125,0.96875 0.224947,0 0.44405,-0.01917 0.65625,-0.0625 1.485399,-0.303291 2.59375,-1.611651 2.59375,-3.1875 0,-1.80097 -1.450886,-3.28125 -3.25,-3.28125 z" inkscape:connector-curvature="0"/>
</svg>