<svg xmlns="http://www.w3.org/2000/svg" xmlns:xlink="http://www.w3.org/1999/xlink" version="1.1" id="Layer_1" x="0px" y="0px" width="100px" height="100px" viewBox="0 0 100 100" enable-background="new 0 0 100 100" xml:space="preserve">
<g>
	<path d="M42.009,74.42l-0.73,7.343c-0.026,0.261,0.168,0.429,0.435,0.372l40.39-8.307c0.264-0.059,0.504-0.313,0.531-0.582   l1.434-7.377c0.027-0.261-0.168-0.428-0.434-0.373l-41.096,8.352C42.272,73.903,42.036,74.159,42.009,74.42L42.009,74.42z    M31.418,61.609h-2.385v5.991h2.385V61.609L31.418,61.609z M32.363,67.66l5.423,3.128c0,0,0.879,0.603,1.877,0.503   C40,71.257,57.408,68.037,80.33,63.522c2.041-0.401,4.125-0.813,6.246-1.235c0.619-2.472,1.08-4.322,1.08-4.322   s0.012-0.041,0.018-0.086c0.041-0.281-0.049-0.519-0.324-0.656C86.523,56.809,76.808,51.4,76.808,51.4   c-0.094-0.052-0.244-0.314-0.243-0.421l0.149-23.636l-15.853,1.645v1.884c0,0.522-0.423,0.983-0.945,1.03l-9.264,0.834   c-0.521,0.047-0.944-0.338-0.944-0.859v-1.73l-21.029,2.182v26.175l6.655,3.766l-1.8,0.402l4.499,2.467   c0,0,0.204,0.137,0.493,0.252c0.305,0.121,0.695,0.222,1.09,0.182c0.371-0.037,20.136-3.519,46.364-8.262   c0.621-0.112,0.789,0.816,0.17,0.93c-26.271,4.75-46.07,8.235-46.44,8.272c-0.732,0.073-1.554-0.167-2.169-0.567l-5.722-3.138   l-0.018,4.528L32.363,67.66L32.363,67.66z M79.033,20.585l-0.395,7.818c0,0-0.08,1.396-0.752,1.869l-0.373,20.441   c1.518,0.844,9.514,5.293,10.26,5.665c0.707,0.353,0.994,1.106,0.797,1.827c0,0-0.59,2.364-1.332,5.317   c-1.064,4.24-2.445,9.694-2.852,11.104c-0.512,1.791-2.332,2.748-4.06,2.873c-22.89,4.775-40.28,8.389-40.617,8.421   c-0.712,0.071-1.602-0.173-2.193-0.583L8.24,64.815c0,0-0.33-0.245-1.001-1.013c-0.835-0.953-1.159-2.752-1.147-3.997L5.815,47.714   c-0.005-0.255,0.102-0.429,0.268-0.488l12.066-7.186c0,0,0.045-1.926,0.369-6.892c0.081-1.241,0.475-2.378,1.254-3.034   c0.39-0.329,0.839-0.588,1.292-0.793l0.267,4.511c0.008,0.442,0.214,0.63,0.37,0.689l4.384,1.79   c1.368,0.561,2.029-0.193,1.99-1.519v-6.638l14.127-1.442l8.794-3.176l1.219-0.128l17.233,2.535l0.029-4.352L79.033,20.585   L79.033,20.585z M11.907,55.859c0.059-1.268,0.74-2.371,1.745-3.014l-6.861-3.762l0.088,3.875L11.907,55.859L11.907,55.859z    M82.967,66.6l-1.213,6.214c0,0-0.006,0.038-0.029,0.06c-0.027,0.021-0.061,0.037-0.061,0.037l-1.71-2.084   c0,0-25.399,5.125-37.398,7.492l0.382-3.686L82.967,66.6L82.967,66.6z M63.824,47.827l0.195-16.659   c0.006-0.521,0.434-0.985,0.953-1.038l9.387-0.94c0.52-0.053,0.938,0.327,0.932,0.848l-0.219,18.615   c-0.008,0.521-0.434,0.986-0.953,1.038l-9.388,1.347c-0.52,0.052-0.937-0.328-0.931-0.85L63.824,47.827L63.824,47.827z    M69.352,40.883c3.727-0.39,4.818-0.371,4.895-2.042l0.085-7.035v-1.665l-1.243,0.148l-0.062,5.059   c-0.209,1.013-0.939,1.256-1.93,1.383v-6.266l-0.942,0.094c-0.081,2.963-0.183,6.47-0.183,6.47l-5.098,1.95l0.003,2.375   C65.738,41.27,67.144,41.113,69.352,40.883L69.352,40.883z M60.232,33.975l-28.797,2.879c-0.306,0.031-0.562,0.315-0.562,0.616   v13.342c0,0.26,0.199,0.443,0.459,0.43l28.801-3.96c0.307-0.031,0.574-0.316,0.574-0.618V34.402   C60.709,34.134,60.506,33.948,60.232,33.975L60.232,33.975z M61.135,46.665c0,0.521-0.424,0.987-0.945,1.039l-28.796,3.959   c-0.522,0.052-0.944-0.329-0.944-0.851V37.471c0-0.521,0.422-0.987,0.944-1.039l28.796-2.88c0.521-0.052,0.945,0.329,0.945,0.85   V46.665L61.135,46.665z M48.381,43.877l-17.036,2.044l0-8.451c0-0.057,0.071-0.14,0.136-0.146l16.899-1.717V43.877L48.381,43.877z    M48.381,48.422l-17.036,2.344l0-3.892l17.036-2.045V48.422L48.381,48.422z M49.326,35.511l10.913-1.109l-0.002,12.262   c0,0.047-0.076,0.141-0.152,0.148l-10.758,1.48V35.511L49.326,35.511z M55.723,36.24c-2.218,0.337-4.223,1.007-5.871,1.918v3.968   c0.571,0.592,1.3,0.932,2.111,0.909c2.007-0.057,3.756-2.304,3.906-5.019C55.903,37.387,55.85,36.788,55.723,36.24L55.723,36.24z    M57.732,36.032c-0.318,0.018-0.633,0.042-0.945,0.074c0.219,0.7,0.322,1.5,0.273,2.372c-0.177,3.186-2.3,5.583-4.461,5.643   c-1.053,0.03-2.043-0.51-2.748-1.455v1.325c0.755,0.64,1.695,1.007,2.766,0.977c2.912-0.082,5.196-3.102,5.383-6.458   C58.049,37.643,57.953,36.801,57.732,36.032L57.732,36.032z M48.853,50.379c0.003-0.26,0.217-0.503,0.478-0.542l9.734-1.374   c0.261-0.039,0.471,0.141,0.467,0.401l-0.032,3.305c-0.003,0.261-0.216,0.505-0.478,0.544l-9.734,1.457   c-0.261,0.039-0.471-0.141-0.468-0.402L48.853,50.379L48.853,50.379z M75.752,51.477l-45.135,6.885   c-0.312,0.048-0.383-0.419-0.072-0.466l45.136-6.887C75.992,50.962,76.062,51.429,75.752,51.477L75.752,51.477z M30.772,2.749   l48.486-1.73l5.779,1.377l-46.872,2.25l-6.942-1.875L30.772,2.749L30.772,2.749z M22.005,33.933   c-0.006-0.027-0.012-0.071-0.013-0.118c-0.121-2.028-0.761-12.767-0.761-13.827c0-0.529,1.082-4.784,2.198-9.003   c0.902-3.413,1.805-6.727,2.105-7.825l5.585,0.267l6.973,1.884l49.103-2.356L85.18,19.273l-49.295,5.189l-8.471-2.623V34.8   c0.021,0.518,0.008,1.101-0.659,1.009c-0.229-0.032-0.419-0.109-0.419-0.109L22.005,33.933L22.005,33.933z M38.436,6.221   c0.08-0.625-0.857-0.744-0.936-0.12l-2.171,17.053c-0.08,0.625,0.857,0.744,0.937,0.119L38.436,6.221L38.436,6.221z M68.894,7.017   l-1.259,11.018c-0.068,0.562,0.298,0.973,0.818,0.917l13.604-1.398c0.521-0.055,1-0.557,1.066-1.118L84.41,6.196   c0.068-0.562-0.297-0.972-0.818-0.917L69.961,5.898C69.44,5.954,68.963,6.455,68.894,7.017L68.894,7.017z M79.488,5.937   l-0.06,0.476l0.408-0.018l-0.579,4.702l-0.117-0.023l-0.277-0.069l-0.783,6.36l-0.34,0.022l0.031-0.249l0.141-0.008l0.76-6.168   l0.56-4.54l0.058-0.479L79.488,5.937L79.488,5.937z M83.258,5.802l-0.055,0.439l0.256-0.012l-0.33,2.605   c-0.088,0.024-0.174,0.055-0.254,0.088l-1.01,8.194l-0.34,0.021l0.031-0.248l0.141-0.009l0.969-7.862l0.34-2.769l0.055-0.44   L83.258,5.802L83.258,5.802z M80.75,16.943l0.881-7.15l0.432-3.5l0.055-0.45l0.199-0.007L82.26,6.285l0.408-0.019l-0.365,2.97   c-0.064,0.044-0.125,0.09-0.186,0.136c-0.09,0.069-0.178,0.142-0.264,0.217l-0.936,7.589l-0.338,0.022l0.031-0.249L80.75,16.943   L80.75,16.943z M81.25,10.161l-0.141,0.136c-0.109,0.102-0.213,0.197-0.316,0.283l-0.82,6.661l-0.34,0.022l0.031-0.248l0.141-0.009   l0.77-6.255l0.545-4.414l0.057-0.46l0.197-0.007l-0.055,0.457l0.406-0.018L81.25,10.161L81.25,10.161z M80.43,5.902L80.373,6.37   l0.408-0.019l-0.569,4.616c-0.134,0.063-0.274,0.108-0.421,0.133l-0.766,6.203l-0.338,0.022l0.031-0.248l0.139-0.01l0.732-5.948   l0.586-4.739l0.057-0.47L80.43,5.902L80.43,5.902z M78.344,10.898c-1.072-0.184-1.98-0.126-2.779,0.048   c-0.488,0.107-0.932,0.256-1.348,0.417c-0.396,0.153-0.764,0.319-1.117,0.464c-1.232,0.506-2.168,0.769-3.738-0.841l0.471-3.864   c0.018-0.154,0.16-0.265,0.213-0.282l8.848-0.403L78.344,10.898L78.344,10.898z"/>
</g>
</svg>