<?xml version="1.0" encoding="utf-8"?>
<!-- Generator: Adobe Illustrator 14.0.0, SVG Export Plug-In . SVG Version: 6.00 Build 43363)  -->
<!DOCTYPE svg PUBLIC "-//W3C//DTD SVG 1.0//EN" "http://www.w3.org/TR/2001/REC-SVG-20010904/DTD/svg10.dtd">
<svg version="1.0" id="Layer_1" xmlns="http://www.w3.org/2000/svg" xmlns:xlink="http://www.w3.org/1999/xlink" x="0px" y="0px"
	 width="88.002px" height="100px" viewBox="0 0 88.002 100" enable-background="new 0 0 88.002 100" xml:space="preserve">
<path d="M69.919,20.562c4.362,0.002,7.906-3.54,7.902-7.905c0.004-4.371-3.54-7.91-7.902-7.9c-4.371-0.01-7.914,3.529-7.902,7.9
	C62.006,17.022,65.549,20.564,69.919,20.562L69.919,20.562z"/>
<path d="M59.74,35.111l0.048,60.385c0.015,6.026,8.898,5.973,8.877-0.141l0.047-35.139h1.72v35.095
	c-0.02,6.142,8.968,6.296,8.974,0.186V34.832h1.58v21.664c-0.02,5.206,7.034,5.206,7.018,0.093V32.927
	c0.017-6.386-4.724-10.137-9.715-10.134H64.203c-3.337-0.001-5.758,1.319-7.809,4.231L49.28,37.39H36.962
	c-4.981-0.001-4.704,7.038-0.092,7.02h14.224c1.106,0.018,2.461-0.397,3.254-1.582L59.74,35.111L59.74,35.111z"/>
<path d="M28.474,51.334"/>
<polygon points="30.193,39.442 23.578,39.442 23.578,0 0,0 0,100 23.578,100 23.578,42.244 30.193,42.244 "/>
</svg>
