<svg xmlns="http://www.w3.org/2000/svg" xmlns:xlink="http://www.w3.org/1999/xlink" version="1.1" id="Calque_1" x="0px" y="0px" width="70.7491082045px" height="100px" viewBox="0 0 595.28 841.89" enable-background="new 0 0 595.28 841.89" xml:space="preserve">
<path d="M419.26,251.21H176.021c-26.574,0-48.115,21.541-48.115,48.11v243.244c0,26.568,21.541,48.115,48.115,48.115H419.26  c26.573,0,48.114-21.547,48.114-48.115V299.321C467.374,272.751,445.833,251.21,419.26,251.21z M353.98,296.282  c0-5.5,4.459-9.954,9.955-9.954h50.326c5.495,0,9.954,4.454,9.954,9.954v50.326c0,5.496-4.459,9.954-9.954,9.954h-50.326  c-5.496,0-9.955-4.458-9.955-9.954V296.282z M297.64,346.218c36.365,0,65.844,29.479,65.844,65.845  c0,36.365-29.479,65.843-65.844,65.843s-65.845-29.479-65.845-65.843C231.795,375.698,261.275,346.218,297.64,346.218z   M426.406,513.209c0,20.156-16.346,36.498-36.502,36.498H205.376c-20.156,0-36.501-16.342-36.501-36.498V388.751h34.62  c-3.455,10.1-5.354,20.923-5.354,32.188c0,54.957,44.548,99.505,99.5,99.505c54.952,0,99.5-44.549,99.5-99.505  c0-11.266-1.899-22.089-5.354-32.188h34.62V513.209z"/>
</svg>