<svg xmlns="http://www.w3.org/2000/svg" xmlns:xlink="http://www.w3.org/1999/xlink" version="1.1" id="Layer_1" x="0px" y="0px" width="100px" height="100px" viewBox="0 0 100 100" enable-background="new 0 0 100 100" xml:space="preserve">
<path fill="#000000" d="M12.401,46.105c0-3.145-2.549-5.693-5.693-5.693s-5.694,2.549-5.694,5.693s2.549,5.693,5.694,5.693  S12.401,49.25,12.401,46.105L12.401,46.105z"/>
<path fill="#000000" d="M10.299,33.642c0-1.987-1.61-3.597-3.597-3.597c-1.987,0-3.597,1.61-3.597,3.597  c0,1.986,1.61,3.597,3.597,3.597C8.689,37.239,10.299,35.628,10.299,33.642L10.299,33.642z"/>
<path fill="#000000" d="M39.079,59.617c-0.012,4.037,12.062,7.346,26.968,7.39s26.999-3.192,27.012-7.229  c0.012-4.039-12.063-7.346-26.969-7.391C51.184,52.344,39.09,55.58,39.079,59.617"/>
<path fill="#000000" d="M6.703,37.286c-2.009,0-3.644-1.635-3.644-3.644c0-2.009,1.635-3.644,3.644-3.644  c2.009,0,3.644,1.635,3.644,3.644C10.347,35.651,8.712,37.286,6.703,37.286z M6.703,30.092c-1.957,0-3.55,1.593-3.55,3.55  s1.593,3.55,3.55,3.55s3.55-1.593,3.55-3.55S8.66,30.092,6.703,30.092z"/>
<path fill="#000000" d="M6.708,51.848c-3.166,0-5.741-2.576-5.741-5.742s2.575-5.741,5.741-5.741s5.741,2.575,5.741,5.741  C12.448,49.271,9.873,51.848,6.708,51.848z M6.708,40.459c-3.113,0-5.646,2.533-5.646,5.646c0,3.114,2.533,5.646,5.646,5.646  s5.646-2.533,5.646-5.646S9.821,40.459,6.708,40.459z"/>
<path fill="#000000" d="M82.033,30.613c-10.043-5.564-22.264-5.484-32.232,0.213L38.663,19.685l1.945-1.86  c0.658-0.631,0.68-1.677,0.049-2.335c-0.007-0.007-0.014-0.015-0.021-0.022L34.291,9.13c-0.64-0.639-1.676-0.644-2.321-0.008  L15.472,25.438c-0.646,0.645-0.65,1.689-0.01,2.339l6.347,6.338c0.637,0.637,1.668,0.641,2.311,0.009l1.984-1.957L37.36,43.434  c-8.795,15.876-3.056,35.876,12.821,44.673c15.875,8.795,35.875,3.056,44.672-12.82C103.648,59.41,97.91,39.409,82.033,30.613z   M94.27,63.27c-2.193,1.639-4.651,2.89-7.269,3.697c-2.862,0.885-5.796,1.521-8.769,1.902c-4.021,0.514-8.068,0.771-12.121,0.771  c-4.051,0-8.1-0.259-12.118-0.771c-2.974-0.383-5.907-1.018-8.77-1.902c-2.616-0.809-5.074-2.06-7.268-3.697  c-0.872-0.649-1.385-1.674-1.385-2.761c-0.229-5.797,1.252-11.531,4.258-16.492c0.392-0.651,0.289-1.485-0.25-2.021L27.273,28.688  c-0.633-0.638-1.664-0.642-2.301-0.008c-0.002,0.003-1.99,1.951-1.993,1.954l-4.016-4.016L33.122,12.61l3.998,3.998l-1.948,1.86  c-0.659,0.634-0.68,1.682-0.046,2.341c0.006,0.006,0.012,0.013,0.019,0.02l13.241,13.228c0.541,0.541,1.383,0.637,2.031,0.231  c5.042-3.158,10.918-4.722,16.862-4.487c16.314,0.644,29.02,14.393,28.375,30.709C95.654,61.596,95.141,62.619,94.27,63.27z"/>
<path fill="#000000" d="M66.079,92.275c-0.001,0-0.002,0-0.002,0c-5.539,0-11.044-1.428-15.92-4.129  c-7.689-4.26-13.26-11.26-15.685-19.709C32.051,60,33.056,51.124,37.301,43.442L26.104,32.234l-1.951,1.924  c-0.318,0.313-0.738,0.485-1.184,0.485c-0.451,0-0.875-0.176-1.193-0.495l-6.347-6.338c-0.657-0.666-0.652-1.745,0.01-2.405  L31.937,9.088C32.255,8.774,32.678,8.6,33.126,8.6c0.453,0,0.878,0.176,1.198,0.497l6.367,6.359c0.649,0.677,0.626,1.754-0.05,2.402  l-1.91,1.827L49.81,30.768c4.958-2.826,10.59-4.319,16.297-4.319c5.565,0,11.08,1.426,15.949,4.123  c7.688,4.26,13.26,11.26,15.686,19.709c2.425,8.45,1.414,17.339-2.848,25.028C89.096,85.775,78.055,92.275,66.079,92.275z   M26.104,32.121c0.012,0,0.024,0.004,0.033,0.014L37.393,43.4c0.015,0.015,0.019,0.038,0.008,0.056  c-8.769,15.828-3.026,35.839,12.802,44.608c4.861,2.692,10.352,4.117,15.874,4.117c11.94,0.002,22.952-6.481,28.733-16.92  c4.248-7.666,5.256-16.529,2.838-24.955c-2.416-8.426-7.971-15.405-15.64-19.653c-4.854-2.69-10.353-4.111-15.901-4.111  c-5.703,0-11.334,1.495-16.283,4.324c-0.02,0.011-0.042,0.007-0.057-0.008L38.63,19.718c-0.009-0.009-0.014-0.021-0.014-0.034  c0-0.013,0.005-0.025,0.014-0.034l1.945-1.86c0.638-0.612,0.66-1.629,0.048-2.268l-0.02-0.022l-6.345-6.337  c-0.302-0.302-0.704-0.469-1.131-0.469c-0.423,0-0.822,0.164-1.123,0.46L15.505,25.472c-0.625,0.624-0.629,1.643-0.009,2.272  l6.347,6.338c0.301,0.301,0.702,0.466,1.127,0.466c0.42,0,0.817-0.163,1.117-0.458l1.985-1.957  C26.08,32.125,26.092,32.121,26.104,32.121z M66.111,69.688c-4.035,0-8.114-0.26-12.125-0.771c-2.969-0.381-5.922-1.021-8.777-1.904  c-2.627-0.813-5.077-2.059-7.282-3.703c-0.879-0.656-1.404-1.703-1.404-2.8c-0.23-5.819,1.245-11.532,4.265-16.516  c0.381-0.634,0.282-1.441-0.242-1.963L27.24,28.721c-0.299-0.301-0.698-0.467-1.122-0.467c-0.42,0-0.815,0.163-1.113,0.459  c-0.001,0.001-0.499,0.489-0.996,0.977c-0.496,0.486-0.991,0.971-0.997,0.977c-0.019,0.018-0.048,0.018-0.066,0l-4.016-4.016  c-0.009-0.009-0.014-0.021-0.014-0.033c0-0.012,0.005-0.025,0.014-0.034l14.159-14.008c0.019-0.019,0.048-0.018,0.066,0l3.998,3.998  c0.009,0.009,0.014,0.021,0.014,0.034c0,0.013-0.005,0.025-0.014,0.034l-1.948,1.86c-0.31,0.298-0.485,0.698-0.494,1.128  c-0.008,0.43,0.151,0.837,0.449,1.146l0.018,0.019l13.241,13.228c0.301,0.301,0.702,0.467,1.128,0.467  c0.299,0,0.592-0.084,0.846-0.243c4.716-2.956,10.153-4.517,15.718-4.517c0.39,0,0.783,0.007,1.171,0.023  c7.903,0.312,15.212,3.683,20.579,9.493c5.369,5.809,8.152,13.361,7.841,21.266c0,1.094-0.524,2.141-1.403,2.797  c-2.205,1.646-4.656,2.892-7.283,3.703c-2.854,0.883-5.808,1.523-8.775,1.904C74.229,69.428,70.148,69.688,66.111,69.688z   M26.118,28.16c0.449,0,0.871,0.176,1.188,0.495l13.306,13.308c0.555,0.553,0.661,1.408,0.257,2.079  c-3.011,4.968-4.48,10.662-4.252,16.465c0,1.068,0.511,2.087,1.366,2.726c2.197,1.64,4.637,2.881,7.253,3.688  c2.85,0.882,5.798,1.521,8.762,1.899c4.006,0.514,8.082,0.773,12.113,0.773s8.106-0.261,12.113-0.773  c2.963-0.379,5.912-1.018,8.762-1.899c2.615-0.81,5.057-2.05,7.254-3.688c0.855-0.639,1.365-1.656,1.365-2.724  c0.312-7.881-2.465-15.409-7.814-21.199c-5.352-5.791-12.637-9.152-20.516-9.463c-0.387-0.015-0.778-0.023-1.166-0.023  c-5.547,0-10.967,1.557-15.669,4.503c-0.268,0.168-0.578,0.258-0.895,0.258c-0.451,0-0.876-0.176-1.194-0.496l-13.26-13.247  c-0.316-0.328-0.485-0.759-0.476-1.214c0.009-0.455,0.195-0.879,0.523-1.194l1.913-1.827l-3.93-3.93L19.03,26.618l3.95,3.95  c0.12-0.118,0.542-0.531,0.963-0.944c0.496-0.486,0.991-0.972,0.996-0.977C25.254,28.333,25.673,28.16,26.118,28.16z"/>
<path fill="#000000" d="M66.346,67.055c-0.002,0-0.002,0-0.003,0h-0.296c-7.213-0.021-13.992-0.803-19.091-2.199  c-5.116-1.401-7.931-3.262-7.925-5.237c0.006-1.964,2.796-3.798,7.858-5.165c5.039-1.363,11.753-2.114,18.905-2.114l0.296,0.001  c7.215,0.021,13.994,0.803,19.092,2.199c5.114,1.4,7.93,3.264,7.924,5.238c-0.006,1.963-2.797,3.795-7.856,5.164  C80.209,66.305,73.495,67.055,66.346,67.055z M65.794,52.434c-14.692,0-26.656,3.223-26.668,7.185  c-0.005,1.929,2.784,3.757,7.855,5.146c5.089,1.396,11.861,2.176,19.066,2.196h0.296c14.693,0.001,26.656-3.222,26.669-7.185  c0.006-1.93-2.783-3.756-7.854-5.146c-5.089-1.395-11.86-2.175-19.066-2.195H65.794z"/>
</svg>