<svg xmlns="http://www.w3.org/2000/svg" xmlns:xlink="http://www.w3.org/1999/xlink" version="1.1" id="Camada_1" x="0px" y="0px" width="100px" height="100px" viewBox="0 0 100 100" enable-background="new 0 0 100 100" xml:space="preserve">
<path d="M100,23.375C100,19.854,97.146,17,93.625,17H6.375C2.854,17,0,19.854,0,23.375v52.25C0,79.146,2.854,82,6.375,82h87.25  c3.521,0,6.375-2.854,6.375-6.375V23.375z M6.438,21h87.187C94.769,21,96,22.231,96,23.375V29H4v-5.625C4,22.231,5.295,21,6.438,21z   M93.625,77H6.438C5.295,77,4,76.284,4,75.141V44h92v31.141C96,76.284,94.769,77,93.625,77z"/>
</svg>