<svg xmlns="http://www.w3.org/2000/svg" xmlns:xlink="http://www.w3.org/1999/xlink" version="1.1" id="Livello_1" x="0px" y="0px" width="100px" height="100px" viewBox="0 0 100 100" enable-background="new 0 0 100 100" xml:space="preserve">
<path d="M50.175,99c5.233,0,4.633,0.969,8.152,0.969c4.832,0,8.226-5.412,9.164-10.655c0.939-5.243,1.046-14.02-1.481-25.934  c-3.602-17.037-2.246-26.291-2.246-26.291c14.495,0.254,21.04,8.153,21.04,15.989c0,7.893-5.635,8.671-5.635,8.671  c3.757-8.007-2.015-11.677-5.433-11.677c-3.427,0-5.838,2.952-5.838,7.468c0,8.918,8.951,11.761,16.383,9.466  c7.044-2.174,14.785-10.336,14.785-22.712c0-12.379-3.994-22.441-14.06-32.051C74.938,2.633,60.239,0,50.175,0h-0.039  C40.071,0,25.373,2.633,15.303,12.243C5.239,21.853,1.245,31.544,1.245,43.921c0,12.379,7.741,20.727,14.785,22.905  c7.431,2.294,16.382-0.455,16.382-9.377c0-4.512-2.411-7.414-5.838-7.414c-3.418,0-9.188,3.7-5.432,11.707  c0,0-5.635-0.75-5.635-8.644c0-7.835,6.545-15.692,21.04-15.946c0,0,1.36,9.322-2.247,26.358  c-2.522,11.914-2.42,20.822-1.477,26.069c0.939,5.238,4.328,10.389,9.16,10.389c3.524,0,2.919-0.969,8.152-0.969H50.175z"/>
</svg>