<svg xmlns="http://www.w3.org/2000/svg" xmlns:xlink="http://www.w3.org/1999/xlink" version="1.1" id="Livello_1" x="0px" y="0px" width="100px" height="100px" viewBox="0 0 100 100" enable-background="new 0 0 100 100" xml:space="preserve">
<path d="M85.356,12.044C75.266,2.415,60.536,0,50.45,0h-0.039C40.325,0,25.596,2.415,15.504,12.044  C5.418,21.675,1.416,31.275,1.416,43.678c0,12.406,7.758,20.719,14.812,22.893c7.45,2.3,16.42-0.481,16.42-9.418  c0-4.523-2.416-7.445-5.846-7.445c-1.667,0-3.886,0.884-5.298,2.696c-1.807-2.195-3.714-3.611-4.956-4.402  c0.342-0.941,0.791-1.853,1.349-2.731c1.058,1.225,2.673,3.305,3.881,5.788c0.366-0.526,0.621-0.781,1.092-1.234  c-1.262-2.814-2.833-5.002-3.77-6.178c0.63-0.742,1.354-1.446,2.168-2.099c0.815,1.618,1.979,4.287,2.741,7.642  c0,0,1.009-0.754,1.538-1.084c-0.825-3.416-2.03-6.057-2.838-7.595c0.718-0.466,1.494-0.897,2.331-1.288  c0.57,1.531,1.453,4.41,1.832,8.313c0.558-0.284,1.128-0.402,1.701-0.638c-0.435-3.845-1.337-6.761-1.924-8.35  c0.781-0.291,1.606-0.551,2.474-0.776c0.359,1.577,0.888,4.534,0.941,8.398c0.592-0.194,1.176-0.364,1.739-0.512  c-0.09-3.772-0.602-6.651-0.973-8.272c0.732-0.141,1.489-0.259,2.278-0.352c0.216,2.324,0.405,5.4,0.301,8.534  c0.655-0.141,1.249-0.252,1.763-0.339c0.078-3.09-0.102-6.077-0.315-8.357c0.628-0.043,1.276-0.07,1.936-0.083  c0,0,1.358,9.339-2.253,26.414c-2.528,11.936-2.423,20.867-1.48,26.121c0.941,5.254,4.34,10.529,9.182,10.529  c3.527,0,2.925-0.853,8.17-0.853h0.039c5.244,0,4.638,0.853,8.17,0.853c4.842,0,8.238-5.483,9.179-10.737  c0.946-5.254,1.048-14.079-1.479-26.019c-3.614-17.073-2.251-26.361-2.251-26.361c0.641,0.012,1.271,0.071,1.883,0.11  c-0.219,2.295-0.408,5.333-0.325,8.468c0.514,0.087,1.11,0.202,1.761,0.345c-0.102-3.178,0.092-6.291,0.311-8.624  c0.796,0.092,1.558,0.209,2.29,0.35c-0.369,1.601-0.902,4.527-0.99,8.372c0.559,0.148,1.146,0.318,1.737,0.512  c0.054-3.947,0.606-6.947,0.966-8.498c0.873,0.226,1.702,0.485,2.488,0.779c-0.587,1.562-1.519,4.517-1.965,8.447  c0.577,0.235,1.146,0.354,1.703,0.638c0.388-3.993,1.3-6.914,1.868-8.415c0.839,0.393,1.625,0.825,2.343,1.293  c-0.806,1.523-2.042,4.204-2.892,7.69c0.534,0.332,1.543,1.086,1.543,1.086c0.776-3.425,1.975-6.135,2.795-7.741  c0.819,0.658,1.547,1.363,2.183,2.111c-0.927,1.157-2.547,3.384-3.837,6.268c0.47,0.451,0.723,0.706,1.091,1.235  c1.232-2.54,2.896-4.658,3.949-5.868c0.563,0.888,1.02,1.814,1.358,2.766c-1.223,0.771-3.134,2.181-4.963,4.376  c-1.412-1.822-3.639-2.695-5.308-2.695c-3.43,0-5.846,2.955-5.846,7.477c0,8.941,8.97,11.789,16.417,9.489  c7.06-2.178,14.816-10.611,14.816-23.015C99.445,31.285,95.443,21.675,85.356,12.044z M20.128,56.57c0,0.247,0.01,0.51,0.034,0.771  c-1.647,0-2.778,0.116-3.522,0.232c-0.342-0.737-0.616-1.61-0.776-2.639C16.892,55.158,18.483,55.634,20.128,56.57z M17.664,59.205  c0.674-0.068,1.596-0.117,2.816-0.112c0.199,0.743,0.485,1.523,0.876,2.354C21.355,61.446,19.298,61.17,17.664,59.205z   M20.574,54.067c-0.078,0.206-0.148,0.419-0.208,0.643c-1.902-0.98-3.666-1.414-4.655-1.597c-0.002-0.111-0.002-0.226-0.002-0.339  c0-1.005,0.107-2.011,0.325-3.003C17.251,50.601,18.988,51.998,20.574,54.067z M80.733,56.634c1.645-0.932,3.236-1.393,4.25-1.611  c-0.17,1.038-0.451,1.922-0.811,2.654c-0.737-0.121-1.853-0.229-3.483-0.238C80.719,57.162,80.729,56.896,80.733,56.634z   M84.838,49.822c0.209,0.975,0.315,1.967,0.315,2.959c0,0.141,0,0.281-0.005,0.42c-0.966,0.175-2.727,0.597-4.643,1.569  c-0.059-0.24-0.132-0.471-0.214-0.691C81.893,52.018,83.63,50.635,84.838,49.822z M79.506,61.456  c0.374-0.801,0.65-1.553,0.849-2.261c1.189-0.01,2.097,0.043,2.761,0.111C81.5,61.185,79.506,61.456,79.506,61.456z"/>
</svg>