<svg xmlns="http://www.w3.org/2000/svg" xmlns:xlink="http://www.w3.org/1999/xlink" version="1.1" id="Livello_1" x="0px" y="0px" width="100px" height="100px" viewBox="0 0 100 100" enable-background="new 0 0 100 100" xml:space="preserve">
<g>
	<path d="M51.827,83.34c-0.034-1.104-0.044-2.266-0.044-3.423c0-3.584-0.156-5.923-2.344-7.593c-1.089-0.83-2.729-1.377-3.398-1.533   c-0.337-0.078-0.679-0.205-1.035-0.313c-0.176-0.059-0.356-0.117-0.537-0.176c-0.181-0.068-0.361-0.146-0.547-0.22   c-0.181-0.073-0.366-0.151-0.557-0.229c-0.19-0.068-0.366-0.177-0.557-0.27c-0.371-0.19-0.752-0.376-1.118-0.61   c-0.181-0.117-0.366-0.234-0.557-0.347c-0.181-0.122-0.356-0.259-0.537-0.391c-0.176-0.132-0.361-0.259-0.532-0.405   s-0.342-0.293-0.513-0.444c-0.347-0.288-0.645-0.635-0.967-0.957c-0.162-0.161-0.298-0.347-0.445-0.522   c-0.142-0.176-0.298-0.342-0.425-0.532c-0.264-0.371-0.537-0.737-0.757-1.128c-0.117-0.195-0.239-0.381-0.342-0.576   c-0.103-0.2-0.205-0.4-0.308-0.596c-0.391-0.791-0.723-1.597-0.967-2.393c-0.264-0.791-0.439-1.572-0.591-2.319   c-0.142-0.747-0.234-1.45-0.298-2.109c-0.122-1.313-0.107-2.407-0.078-3.169c0.034-0.762,0.093-1.191,0.093-1.191   s-0.02,0.43,0.015,1.191s0.122,1.846,0.356,3.115c0.117,0.635,0.273,1.318,0.474,2.031c0.21,0.703,0.449,1.445,0.767,2.178   c0.303,0.742,0.684,1.47,1.113,2.178c0.112,0.176,0.225,0.352,0.337,0.527c0.107,0.176,0.244,0.332,0.361,0.508   c0.239,0.342,0.522,0.649,0.787,0.967c0.132,0.166,0.288,0.303,0.43,0.449c0.151,0.146,0.283,0.303,0.444,0.435   c0.317,0.259,0.605,0.552,0.942,0.776c0.166,0.117,0.327,0.234,0.488,0.356c0.166,0.112,0.337,0.21,0.508,0.317   c0.171,0.098,0.332,0.205,0.503,0.298c0.176,0.083,0.347,0.171,0.518,0.259c0.337,0.186,0.693,0.313,1.035,0.449   c0.171,0.068,0.337,0.146,0.508,0.195c0.176,0.054,0.347,0.107,0.513,0.156s0.332,0.103,0.493,0.156   c0.171,0.034,0.332,0.068,0.498,0.107c0.322,0.068,0.63,0.156,0.938,0.195c1.118,0.156,2.588,0.225,2.378-2.017   c-0.02-0.171-0.034-0.342-0.049-0.513c-0.308-2.939-0.518-6.055-0.776-9.263c-0.059-0.806-0.122-1.616-0.186-2.427   c-0.044-0.566-0.088-1.133-0.127-1.709c0-0.005,0-0.01,0-0.02c-0.039-0.557-0.107-1.696-1.328-2.349   c-0.02-0.01-0.039-0.021-0.063-0.034c-0.029-0.015-0.059-0.031-0.093-0.046V50.36c-0.171-0.09-0.352-0.186-0.547-0.288   c-0.503-0.242-1.03-0.596-1.616-0.957c-0.293-0.178-0.576-0.41-0.879-0.625c-0.151-0.11-0.303-0.222-0.454-0.337   c-0.146-0.127-0.298-0.254-0.449-0.386c-0.146-0.129-0.298-0.261-0.454-0.393c-0.156-0.129-0.293-0.288-0.439-0.435   c-0.293-0.298-0.596-0.593-0.864-0.938c-0.137-0.166-0.278-0.334-0.415-0.503c-0.142-0.173-0.259-0.361-0.386-0.542   c-0.127-0.183-0.259-0.361-0.381-0.552c-0.112-0.195-0.225-0.391-0.337-0.586c-0.244-0.383-0.415-0.811-0.616-1.216   c-0.103-0.205-0.171-0.425-0.254-0.635c-0.078-0.215-0.176-0.422-0.234-0.642c-0.127-0.437-0.269-0.869-0.356-1.312   c-0.044-0.222-0.107-0.437-0.137-0.659c-0.039-0.22-0.068-0.439-0.107-0.659c-0.112-0.876-0.166-1.743-0.146-2.576   c0.005-0.835,0.083-1.636,0.181-2.388c0.107-0.75,0.239-1.453,0.391-2.092c0.303-1.282,0.664-2.317,0.938-3.03   c0.278-0.71,0.469-1.101,0.469-1.101S39,27.916,38.79,28.646s-0.474,1.785-0.655,3.069c-0.093,0.64-0.166,1.335-0.2,2.073   c-0.029,0.737-0.039,1.514,0.029,2.31c0.054,0.798,0.181,1.611,0.356,2.419c0.054,0.2,0.103,0.403,0.152,0.605   c0.049,0.203,0.127,0.398,0.186,0.596c0.112,0.401,0.283,0.784,0.435,1.17c0.068,0.195,0.176,0.376,0.264,0.564   c0.093,0.183,0.171,0.376,0.278,0.552c0.22,0.349,0.4,0.715,0.649,1.038c0.117,0.166,0.229,0.33,0.347,0.493   c0.122,0.159,0.254,0.308,0.381,0.459s0.244,0.308,0.381,0.447s0.273,0.276,0.41,0.413c0.259,0.281,0.552,0.518,0.835,0.757   c0.142,0.115,0.269,0.244,0.42,0.347c0.146,0.105,0.293,0.208,0.435,0.31s0.283,0.205,0.42,0.305   c0.146,0.088,0.288,0.176,0.435,0.261c0.283,0.166,0.547,0.349,0.825,0.483c0.391,0.193,0.747,0.386,1.094,0.544   c1.191,0.491,1.143-0.364,1.094-1.147V46.71c-0.098-1.58-0.195-3.169-0.298-4.768l-0.02-0.337l-0.015-0.32l-0.024-0.64   c-0.02-0.43-0.044-0.852-0.049-1.294c-0.02-0.876-0.039-1.753-0.024-2.617c0.01-3.467,0.181-6.912,0.42-10.293   c0.244-3.381,0.562-6.697,0.903-9.9c0.64-5.803,1.382-11.233,2.085-15.989l0,0C50.372,0.315,50.416,0.02,49.933,0   c-6.216,0.252-7.5,9.07-9.136,12.342c-1.66,3.32-6.221,13.924-7.051,19.732s-2.261,13.187-2.998,15.953   c-0.737,2.767-1.846,8.848,0.83,14.937c2.676,6.084,1.108,8.668,0.186,9.869c-0.923,1.196,1.567,3.223,3.228,3.779   c1.66,0.552,3.315,2.578,6.358,2.578c3.047,0,4.849-0.903,5.903,1.475c0.42,0.952,1.045,1.538,1.108,6.548   C48.424,92.422,48.009,100,50.201,100C52.398,100,51.983,88.364,51.827,83.34z"/>
	<path d="M68.424,62.963c2.672-6.089,1.568-12.17,0.83-14.937c-0.736-2.766-2.168-10.145-2.998-15.953S60.86,15.662,59.2,12.342   C57.711,9.361,56.515,1.78,51.612,0.264c-0.244-0.061-0.562-0.037-0.62,0.549c-0.498,4.736-1.001,10.125-1.392,15.864   c-0.225,3.198-0.41,6.507-0.527,9.864c-0.073,2.234-0.112,4.49-0.098,6.748c0.044,1.011,0.581,0.833,1.123,0.542   c0.01-0.005,0.02-0.01,0.029-0.015c0.029-0.017,0.059-0.034,0.088-0.051c0.005,0,0.005-0.002,0.01-0.002   c0.029-0.017,0.059-0.034,0.093-0.051c0.205-0.11,0.4-0.256,0.615-0.388c0.103-0.071,0.21-0.139,0.317-0.212   c0.103-0.078,0.205-0.159,0.313-0.239c0.21-0.164,0.435-0.327,0.63-0.522c0.21-0.188,0.425-0.376,0.615-0.596   c0.098-0.107,0.2-0.215,0.298-0.322c0.098-0.11,0.186-0.232,0.278-0.349c0.093-0.12,0.19-0.234,0.278-0.359   c0.083-0.127,0.166-0.254,0.249-0.383c0.181-0.251,0.308-0.535,0.464-0.806c0.137-0.281,0.269-0.569,0.386-0.864   c0.103-0.298,0.22-0.593,0.298-0.903c0.093-0.305,0.156-0.618,0.22-0.928c0.117-0.623,0.195-1.25,0.21-1.863   c0.029-0.613,0-1.211-0.039-1.777c-0.049-0.566-0.127-1.101-0.215-1.592c-0.176-0.984-0.41-1.79-0.591-2.349   c-0.181-0.557-0.317-0.867-0.317-0.867s0.171,0.291,0.42,0.828c0.244,0.538,0.571,1.319,0.869,2.295   c0.146,0.488,0.288,1.025,0.405,1.602c0.112,0.579,0.21,1.196,0.254,1.843c0.059,0.647,0.059,1.321,0.01,2.012   c-0.029,0.344-0.059,0.691-0.122,1.038c-0.049,0.349-0.137,0.693-0.22,1.04c-0.088,0.344-0.2,0.686-0.317,1.023   c-0.137,0.33-0.254,0.671-0.42,0.984c-0.083,0.159-0.161,0.317-0.239,0.474c-0.083,0.156-0.181,0.303-0.269,0.454   c-0.093,0.146-0.181,0.3-0.278,0.442c-0.103,0.139-0.2,0.278-0.303,0.415c-0.195,0.283-0.415,0.53-0.635,0.779   c-0.205,0.254-0.439,0.476-0.659,0.693c-0.112,0.107-0.225,0.215-0.332,0.322c-0.117,0.098-0.229,0.193-0.342,0.286   c-0.229,0.183-0.439,0.381-0.659,0.535c-0.439,0.31-0.84,0.613-1.221,0.828c-0.078,0.046-0.151,0.09-0.225,0.137   c-0.889,0.579-0.967,1.165-0.933,1.978c0.015,0.273,0.029,0.549,0.049,0.823c0.015,0.413,0.059,0.843,0.093,1.27l0.049,0.637   l0.029,0.32l0.005,0.081c0,0.017,0-0.007,0.005,0.022l0.005,0.039l0.015,0.159c0.19,1.694,0.376,3.381,0.562,5.056   s0.371,3.335,0.552,4.973c0.083,0.82,0.186,1.636,0.288,2.441c0.103,0.811,0.205,1.611,0.308,2.407   c0.078,0.63,0.156,1.245,0.234,1.86l0,0c0.127,1.001,0.63,0.845,1.24,0.508c0.195-0.117,0.4-0.229,0.61-0.352   c0.273-0.146,0.527-0.342,0.806-0.522c0.137-0.093,0.273-0.19,0.415-0.283c0.137-0.107,0.269-0.215,0.405-0.327   c0.142-0.107,0.278-0.215,0.42-0.332c0.146-0.107,0.269-0.244,0.405-0.366c0.264-0.249,0.547-0.503,0.796-0.796   c0.127-0.146,0.254-0.288,0.386-0.43c0.127-0.146,0.239-0.313,0.361-0.469c0.117-0.156,0.244-0.313,0.356-0.479   c0.103-0.166,0.215-0.337,0.322-0.508c0.229-0.332,0.396-0.713,0.591-1.069c0.098-0.181,0.166-0.376,0.254-0.562   c0.078-0.195,0.176-0.381,0.234-0.576c0.132-0.396,0.283-0.786,0.376-1.193c0.049-0.2,0.117-0.4,0.151-0.606   c0.044-0.203,0.083-0.408,0.122-0.61c0.142-0.815,0.225-1.636,0.239-2.434c0.024-0.798-0.02-1.575-0.088-2.307   c-0.073-0.735-0.176-1.428-0.303-2.063c-0.244-1.272-0.562-2.312-0.806-3.032c-0.249-0.718-0.425-1.116-0.425-1.116   s0.215,0.381,0.527,1.077c0.303,0.698,0.718,1.714,1.084,2.979c0.181,0.632,0.352,1.328,0.493,2.073   c0.137,0.745,0.254,1.541,0.303,2.373c0.063,0.833,0.049,1.699-0.02,2.583c-0.024,0.22-0.049,0.439-0.073,0.662   c-0.02,0.223-0.068,0.442-0.103,0.664c-0.063,0.447-0.186,0.884-0.293,1.328c-0.049,0.22-0.132,0.435-0.2,0.649   c-0.073,0.215-0.132,0.439-0.225,0.649c-0.181,0.415-0.327,0.854-0.552,1.245c-0.103,0.205-0.205,0.4-0.308,0.605   c-0.107,0.195-0.234,0.381-0.352,0.566s-0.229,0.381-0.356,0.562c-0.132,0.176-0.264,0.347-0.391,0.522   c-0.249,0.361-0.542,0.669-0.815,0.981c-0.142,0.151-0.273,0.317-0.42,0.454c-0.146,0.142-0.293,0.283-0.435,0.42   c-0.146,0.137-0.288,0.273-0.425,0.4c-0.151,0.127-0.298,0.244-0.439,0.361c-0.293,0.234-0.562,0.479-0.845,0.674   c-0.4,0.269-0.767,0.537-1.123,0.762c0,0,0,0.005-0.005,0.005c-0.547,0.371-1.44,0.845-1.25,2.397   c0.103,0.752,0.205,1.504,0.313,2.236c0.405,2.91,1.226,8.478,1.25,8.619c0.229,1.484,0.83,4.219,3.481,4.707   c0.508,0.039,1.055,0.073,1.65,0.073c3.042,0,4.702-2.026,6.362-2.578c1.66-0.557,4.151-2.583,3.228-3.779   C67.315,71.631,65.748,69.047,68.424,62.963z"/>
</g>
</svg>