<?xml version="1.0" encoding="utf-8"?>
<!-- Generator: Adobe Illustrator 14.0.0, SVG Export Plug-In . SVG Version: 6.00 Build 43363)  -->
<!DOCTYPE svg PUBLIC "-//W3C//DTD SVG 1.0//EN" "http://www.w3.org/TR/2001/REC-SVG-20010904/DTD/svg10.dtd">
<svg version="1.0" id="Layer_1" xmlns="http://www.w3.org/2000/svg" xmlns:xlink="http://www.w3.org/1999/xlink" x="0px" y="0px"
	 width="69.133px" height="100px" viewBox="0 0 69.133 100" enable-background="new 0 0 69.133 100" xml:space="preserve">
<path d="M68.801,39.64H54.387V29.58c0,0,17.337-15.127,14.414-20.721H54.387V5.405C54.387,2.421,51.965,0,48.98,0H20.152
	c-2.984,0-5.406,2.421-5.406,5.405v3.454H0.332C-2.591,14.453,14.746,29.58,14.746,29.58v10.06H0.332
	C-2.591,45.233,14.746,60.36,14.746,60.36v10.06H0.332c-2.923,5.594,14.414,20.721,14.414,20.721v3.454
	c0,2.984,2.422,5.405,5.406,5.405H48.98c2.984,0,5.406-2.421,5.406-5.405v-3.454c0,0,17.337-15.127,14.414-20.721H54.387V60.36
	C54.387,60.36,71.724,45.233,68.801,39.64z M50.934,80.771c0,9.039-7.326,16.367-16.367,16.367s-16.367-7.328-16.367-16.367V19.23
	c0-9.039,7.326-16.368,16.367-16.368s16.367,7.329,16.367,16.368V80.771z"/>
<circle cx="34.627" cy="19.654" r="11.111"/>
<circle cx="34.627" cy="80.465" r="11.111"/>
<circle cx="34.627" cy="50.06" r="11.111"/>
</svg>
