<svg xmlns="http://www.w3.org/2000/svg" xmlns:xlink="http://www.w3.org/1999/xlink" version="1.1" id="Layer_1" x="0px" y="0px" width="100px" height="100px" viewBox="0 0 100 100" enable-background="new 0 0 100 100" xml:space="preserve">
<g>
	<path fill="#000000" d="M63.122,28.415l0.331,0.92l2.594-0.829l-0.144-0.399l4.346-0.767c0.504-0.089,0.916-0.455,1.064-0.945   c0.149-0.49,0.01-1.022-0.359-1.377l-2.115-2.026c-0.543-0.52-1.404-0.502-1.923,0.041c-0.521,0.542-0.502,1.404,0.04,1.924   l0.179,0.171l-3.793,0.669c-0.74,0.131-1.234,0.836-1.103,1.577C62.327,27.871,62.677,28.256,63.122,28.415z"/>
	<path fill="#000000" d="M52.855,63.701c-0.199,0.014-0.385,0.066-0.56,0.14l-3.451-1c0-0.021,0.006-0.039,0.006-0.059   c0-0.81-0.221-1.561-0.578-2.229l17.579-25.678l2.177-0.859l-1.521-4.229l-2.594,0.829l0.188,0.525L40.077,41.212l-0.323-1.148   c0.244-0.069,0.405-0.308,0.359-0.563c-0.049-0.272-0.305-0.452-0.581-0.403l-0.579,0.104l-2.839-10.026   c0.391-0.114,0.804-0.204,1.24-0.293c4.219-0.86,4.219-0.86,5.303-0.925c0.85-0.052,1.018-0.003,1.01-0.291   c-0.016-0.539-0.651-1.077-1.91-1.089c-1.258-0.013-4.868-0.073-6.998-0.135c-3.561-0.106-5.654-1.046-6.253-0.732   c-0.583,0.306-0.521,0.978,0.261,1.702c1.099,1.018,1.241,1.149,2.734,2.341c0.832,0.664,1.812,0.375,3.053-0.06l2.786,9.799   l-0.427,0.077c-0.271,0.049-0.452,0.309-0.403,0.581c0.044,0.242,0.254,0.411,0.492,0.411c0.029,0,0.059-0.002,0.089-0.008   l0.045-0.008l0.488,1.756c-0.049,0.035-0.106,0.051-0.151,0.093l-3.231,3.017l-0.174-0.094l-0.351-0.489l-0.546-0.253L32.79,44.11   l-0.562-0.218l-0.409-0.442l-0.574-0.182l-0.436-0.415l-0.585-0.146l-0.46-0.387l-0.592-0.109l-0.484-0.357l-0.598-0.071   l-0.506-0.326l-0.601-0.034l-0.526-0.294l-0.602,0.004l-0.543-0.26l-0.601,0.042l-0.558-0.226l-0.597,0.08l-0.571-0.19l-0.59,0.117   l-0.583-0.154l-0.582,0.154l-0.59-0.117l-0.572,0.19l-0.596-0.08l-0.558,0.226l-0.601-0.042l-0.543,0.26l-0.602-0.004l-0.526,0.294   l-0.601,0.034l-0.506,0.326l-0.598,0.071l-0.485,0.357l-0.592,0.109l-0.46,0.387l-0.585,0.146l-0.436,0.415l-0.574,0.182   l-0.409,0.442l-0.562,0.218l-0.38,0.466l-0.546,0.253l-0.351,0.489l-0.529,0.286l-0.319,0.511l-0.511,0.319l-0.287,0.529   l-0.489,0.351L7.17,47.861l-0.466,0.38l-0.218,0.562l-0.442,0.409l-0.182,0.574l-0.416,0.436l-0.146,0.583l-0.387,0.462   l-0.108,0.593l-0.358,0.484l-0.071,0.598l-0.326,0.506l-0.033,0.602l-0.294,0.525l0.004,0.602l-0.26,0.543l0.042,0.6l-0.226,0.56   l0.08,0.597l-0.189,0.57l0.117,0.592l-0.154,0.582l0.154,0.582l-0.117,0.59l0.189,0.571l-0.08,0.598l0.226,0.558l-0.042,0.601   l0.26,0.543l-0.004,0.603l0.294,0.525l0.033,0.601l0.326,0.506l0.071,0.598l0.358,0.485l0.108,0.591l0.387,0.462l0.146,0.584   l0.416,0.436l0.182,0.575l0.442,0.409l0.218,0.561l0.466,0.38l0.252,0.548l0.489,0.35l0.287,0.529l0.511,0.32l0.319,0.51   l0.529,0.286l0.351,0.489l0.546,0.253l0.38,0.467l0.562,0.217l0.409,0.442l0.574,0.182l0.436,0.416l0.585,0.146l0.46,0.387   l0.592,0.108l0.485,0.357l0.598,0.071l0.506,0.326l0.601,0.033l0.526,0.294l0.602-0.004l0.543,0.26l0.601-0.042l0.558,0.226   l0.596-0.079l0.572,0.19l0.59-0.118l0.582,0.154l0.583-0.154l0.59,0.118l0.571-0.19l0.596,0.079l0.558-0.226l0.601,0.042   l0.543-0.26l0.602,0.004l0.526-0.294l0.601-0.033l0.506-0.326l0.598-0.071l0.484-0.357l0.592-0.108l0.46-0.387l0.585-0.146   l0.436-0.416l0.574-0.182l0.409-0.442l0.562-0.217l0.381-0.467l0.546-0.253l0.351-0.489l0.529-0.286l0.32-0.51l0.51-0.32   l0.287-0.529l0.489-0.35l0.253-0.547l0.466-0.381l0.218-0.561l0.442-0.409l0.183-0.575l0.415-0.436l0.146-0.584l0.387-0.462   l0.109-0.591l0.357-0.485l0.071-0.598l0.326-0.506l0.034-0.601l0.014-0.025c0.654,1.848,2.398,3.179,4.47,3.179   c1.645,0,3.094-0.834,3.949-2.103l3.497,1.013c0.34,0.488,0.915,0.795,1.553,0.753c0.967-0.065,1.699-0.902,1.634-1.869   C54.659,64.368,53.822,63.637,52.855,63.701z M21.812,73.943c-8.132,0-14.725-6.593-14.725-14.725   c0-8.133,6.592-14.725,14.725-14.725c3.667,0,7.014,1.349,9.592,3.567l-6.593,6.155c-0.925-0.664-2.055-1.061-3.278-1.061   c-3.107,0-5.635,2.527-5.635,5.635c0,3.106,2.528,5.635,5.635,5.635c2.204,0,4.112-1.275,5.037-3.124l9.471,1.648   C34.387,69.272,28.653,73.943,21.812,73.943z M21.533,62.301c1.139,0,2.141-0.551,2.782-1.392l0.83,0.145   c-0.757,1.203-2.088,2.012-3.612,2.012c-2.357,0-4.274-1.918-4.274-4.274c0-2.357,1.917-4.274,4.274-4.274   c0.829,0,1.597,0.247,2.253,0.657l-0.585,0.547c-0.498-0.271-1.061-0.439-1.667-0.439c-1.939,0-3.51,1.57-3.51,3.51   C18.023,60.729,19.594,62.301,21.533,62.301z M36.485,60.244l-9.327-1.648c-0.026-0.768-0.206-1.496-0.511-2.157l6.747-6.293   c1.962,2.502,3.143,5.646,3.143,9.073C36.537,59.564,36.508,59.904,36.485,60.244z M40.349,59.874l-0.015-0.073l0.154-0.582   l-0.154-0.582l0.117-0.592l-0.19-0.57l0.08-0.597l-0.226-0.56l0.042-0.6l-0.26-0.543l0.004-0.602l-0.294-0.525l-0.034-0.602   l-0.326-0.506l-0.071-0.598l-0.357-0.484l-0.109-0.593l-0.387-0.462l-0.146-0.583l-0.415-0.436l-0.183-0.574l-0.442-0.409   l-0.218-0.562l-0.466-0.38l-0.185-0.399l2.213-2.064l3.629,13.066C41.414,58.786,40.815,59.273,40.349,59.874z M46.315,58.598   c-0.46-0.245-0.959-0.419-1.495-0.502l-4.002-14.244l21.865-9.166L46.315,58.598z"/>
	<path fill="#000000" d="M97.16,59.801l0.154-0.582l-0.154-0.582l0.118-0.592l-0.191-0.57l0.08-0.597l-0.226-0.56l0.042-0.6   l-0.26-0.543l0.004-0.602l-0.294-0.525L96.4,53.447l-0.326-0.506l-0.071-0.598l-0.357-0.484l-0.108-0.593l-0.387-0.462   l-0.146-0.583l-0.416-0.436l-0.182-0.574l-0.441-0.409l-0.218-0.562l-0.467-0.38l-0.253-0.547l-0.489-0.351l-0.286-0.529   l-0.51-0.319l-0.32-0.511l-0.529-0.286l-0.351-0.489l-0.546-0.253l-0.381-0.466l-0.562-0.218l-0.408-0.442l-0.574-0.182   l-0.437-0.415l-0.584-0.146l-0.461-0.387l-0.592-0.109l-0.485-0.357l-0.598-0.071l-0.506-0.326l-0.602-0.034l-0.525-0.294   l-0.603,0.004l-0.542-0.26l-0.601,0.042l-0.559-0.226l-0.597,0.08l-0.571-0.19l-0.59,0.117l-0.582-0.154l-0.583,0.154l-0.59-0.117   l-0.571,0.19l-0.598-0.08l-0.558,0.226l-0.601-0.042l-0.543,0.26l-0.603-0.004l-0.525,0.294l-0.253,0.014   c-0.12-0.327-0.235-0.642-0.343-0.937c-0.264-0.721-0.851-1.226-1.535-1.423c-0.265-0.728-0.466-1.288-0.577-1.609   c-0.236-0.681-0.523-1.196-0.831-1.6c-0.527,0.065-0.932-0.103-1.207-0.541l-2.749,0.961c0.189,0.663,0.835,1.081,1.509,0.977   c0.109,0.031,0.424,0.274,0.707,1.093c0.115,0.334,0.322,0.908,0.594,1.655c-0.395,0.592-0.518,1.354-0.255,2.074   c0.142,0.388,0.296,0.808,0.458,1.25l-0.354,0.112l-0.41,0.442l-0.561,0.218l-0.381,0.466l-0.546,0.253l-0.351,0.489l-0.529,0.286   l-0.319,0.511l-0.511,0.319l-0.287,0.529l-0.489,0.351l-0.252,0.547l-0.467,0.38l-0.217,0.562l-0.441,0.409l-0.184,0.574   l-0.414,0.436l-0.146,0.583l-0.387,0.462l-0.108,0.593l-0.358,0.484l-0.07,0.598l-0.326,0.506l-0.033,0.602l-0.294,0.525   l0.004,0.602l-0.261,0.543l0.043,0.6l-0.226,0.56l0.079,0.597l-0.189,0.57l0.116,0.592l-0.153,0.582l0.153,0.582l-0.116,0.59   l0.189,0.571l-0.079,0.598l0.226,0.558l-0.043,0.601l0.261,0.543l-0.004,0.603l0.294,0.525l0.033,0.601l0.326,0.506l0.07,0.598   l0.358,0.485l0.108,0.591l0.387,0.462l0.146,0.584l0.414,0.436l0.184,0.575l0.441,0.409l0.217,0.561l0.467,0.38l0.252,0.548   l0.489,0.35l0.287,0.529l0.511,0.32l0.319,0.51l0.529,0.286l0.351,0.489l0.546,0.253l0.381,0.467l0.561,0.217l0.41,0.442   l0.573,0.182l0.437,0.416l0.584,0.146l0.461,0.387l0.592,0.108l0.484,0.357l0.598,0.071l0.507,0.326l0.601,0.033l0.525,0.294   l0.603-0.004l0.543,0.26l0.601-0.042l0.558,0.226l0.598-0.079l0.571,0.19l0.59-0.118l0.583,0.154l0.582-0.154l0.59,0.118   l0.571-0.19l0.597,0.079l0.559-0.226l0.601,0.042l0.542-0.26l0.603,0.004l0.525-0.294l0.602-0.033l0.506-0.326l0.598-0.071   l0.485-0.357l0.592-0.108l0.461-0.387l0.584-0.146l0.437-0.416l0.574-0.182l0.408-0.442l0.562-0.217l0.381-0.467l0.546-0.253   l0.351-0.489l0.529-0.286l0.32-0.51l0.51-0.32l0.286-0.529l0.489-0.35l0.253-0.547l0.467-0.381l0.218-0.561l0.441-0.409   l0.182-0.575l0.416-0.436l0.146-0.584l0.387-0.462l0.108-0.591l0.357-0.485l0.071-0.598l0.326-0.506l0.033-0.601l0.294-0.525   l-0.004-0.603l0.26-0.543l-0.042-0.601l0.226-0.558l-0.08-0.598l0.191-0.571L97.16,59.801z M74.277,57.592   c0.242,0.648,0.451,1.209,0.618,1.655c0.226,1.721,1.682,3.054,3.464,3.054c1.938,0,3.511-1.571,3.511-3.51   c0-1.939-1.572-3.51-3.511-3.51c-0.002,0-0.005,0.001-0.007,0.001c-0.089-0.238-0.181-0.482-0.275-0.737   c0.095-0.006,0.186-0.028,0.282-0.028c2.357,0,4.274,1.917,4.274,4.274c0,2.356-1.917,4.274-4.274,4.274   c-2.356,0-4.274-1.918-4.274-4.274C74.085,58.372,74.164,57.975,74.277,57.592z M78.639,73.943   c-8.132,0-14.725-6.593-14.725-14.725c0-5.06,2.554-9.521,6.44-12.172c1.089,2.94,2.296,6.181,3.248,8.737   c-0.552,0.871-0.877,1.9-0.877,3.007c0,3.106,2.526,5.635,5.634,5.635s5.635-2.528,5.635-5.635c0-3.107-2.527-5.635-5.635-5.635   c-0.265,0-0.522,0.024-0.777,0.061c-0.928-2.49-2.033-5.461-3.023-8.137c1.297-0.374,2.663-0.585,4.08-0.585   c8.132,0,14.725,6.592,14.725,14.725C93.363,67.351,86.771,73.943,78.639,73.943z"/>
</g>
</svg>