<svg xmlns="http://www.w3.org/2000/svg" xmlns:xlink="http://www.w3.org/1999/xlink" version="1.1" id="Layer_1" x="0px" y="0px" width="100px" height="100px" viewBox="0 0 100 100" enable-background="new 0 0 100 100" xml:space="preserve">
<path id="ant-shape" fill="#000000" d="M9.918,20.837c-0.87,0.715,6.135,9.581,6.567,10.098c5.985,7.161,11.91,7.407,12.643,8.476  c0.738,1.063,4.269,4.617,10.547,5.661c0.024,1.632,0.115,3.175,0.282,4.64c-3.86-1.063-8.206-1.975-10.637-1.969  c-2.563-0.007-11.244,2.419-12.798,3.145c-0.546,0.258-10.463,0.007-10.463,1.086c0,1.094,9.875,1.496,10.283,0.943  c3.583,0.57,13.734-1.285,14.815-1.094c1.08,0.205,9.394,2.623,9.454,2.637c0.625,2.869,1.531,4.436,2.605,6.352  c-4.13-0.121-11.544,3.967-15.68,8.104c-3.434,3.434-9.155,8.986-10.019,10.211c-3.23,4.563-1.783,18.832,0.005,18.832  c1.405,0-1.957-12.775,1.273-17.338c0.931-1.314,11.334-8.416,12.546-9.809c1.212-1.393,7.66-3.385,10.361-5.402  c-2.72,1.758-4.581,4.508-4.581,8.289c0,14.047,7.33,19.709,12.834,19.775c0,0,0.006,0.016,0.018,0.018c0.012,0,0.024-0.002,0.037,0  c0.012,0,0.024,0,0.036-0.002c0.013,0,0.024,0.002,0.036,0c5.5-0.07,12.793-5.744,12.793-19.766  c0.005-3.523-1.621-6.172-4.034-7.936c2.936,1.879,8.691,3.721,9.832,5.029c1.219,1.387,11.574,8.488,12.51,9.809  c3.236,4.557-0.119,17.35,1.299,17.348c1.775,0.002,3.229-14.273-0.002-18.836c-0.869-1.219-6.586-6.766-10.018-10.199  c-4.143-4.143-11.545-8.23-15.681-8.104c1.075-1.916,1.975-3.523,2.606-6.4c0.053-0.004,8.367-2.387,9.453-2.586  s11.232,1.664,14.822,1.086c0.4,0.559,10.283,0.15,10.277-0.936c0.006-1.087-9.941-0.854-10.488-1.112  c-1.549-0.733-10.186-3.151-12.756-3.151c-2.432,0.006-6.813,0.919-10.674,1.969c0.168-1.453,0.295-2.995,0.318-4.627  c6.279-1.057,9.814-4.604,10.541-5.667c0.738-1.063,6.664-1.31,12.648-8.482c0.428-0.511,7.438-9.383,6.561-10.091  c-1.025-0.834-7.449,7.438-7.707,8.165c-1.74,0.864-10.014,6.375-11.01,6.771c-1.002,0.39-6.045,2.191-11.405,5.403  c-0.822-3.14-2.894-5.271-5.427-6.399c3.5-0.006,6.045-0.691,6.045-4.544c0-4.214-0.81-8.098-2.174-11.213  c3.729-1.939,6.432-4.016,7.242-4.311c0.809-0.306,1.121-1.422-0.416-4.244c-2.533-4.635-5.275-8.651-5.871-8.429  c-0.594,0.235,2.18,9.263,4.557,11.208c-2.816,0.498-4.664,1.411-7.011,3.037c-1.85-2.797-4.227-4.478-6.85-4.52  c-0.006-0.006-0.013-0.024-0.019-0.018c-0.023,0-0.053-0.006-0.077-0.007c-2.629,0.037-5.054,1.741-6.898,4.545  c-2.353-1.621-4.189-2.558-6.999-3.062c2.377-1.932,5.168-10.955,4.573-11.177c-0.593-0.223-3.355,3.763-5.889,8.397  c-1.542,2.828-1.206,3.968-0.396,4.262c0.816,0.3,3.518,2.377,7.245,4.316c-1.368,3.109-2.179,7.005-2.179,11.22  c0,3.841,2.546,4.538,6.04,4.538c-2.527,1.134-4.598,3.265-5.421,6.393c-5.36-3.211-10.426-4.988-11.423-5.385  c-1.002-0.39-9.269-5.943-11.009-6.807C17.362,28.257,10.951,19.998,9.918,20.837z"/>
</svg>