<svg xmlns="http://www.w3.org/2000/svg" xmlns:xlink="http://www.w3.org/1999/xlink" version="1.1" id="Layer_1" x="0px" y="0px" width="100px" height="100px" viewBox="0 0 100 100" enable-background="new 0 0 100 100" xml:space="preserve">
<path id="path10" fill="#000000" d="M35.878,29.56l0.026,0.007v0.001c1.039,0.28,2.063,0.595,3.055,0.943  c0.999,0.348,1.927,0.716,2.774,1.09c0.47,0.204,0.919,0.417,1.352,0.637c0.871,0.722,1.85,1.319,2.908,1.761l0.035,0.026h-1.435  h-0.008v0.004c-0.931,0.003-1.809,0.246-2.566,0.68c-0.435-0.215-0.891-0.428-1.371-0.641c-0.824-0.36-1.686-0.702-2.573-1.013  c-0.896-0.312-1.857-0.607-2.873-0.883h-0.007l-0.028-0.006l0.003-0.003l-0.057-0.012c-3.525-0.942-6.819-1.335-9.296-1.211  c-2.009,0.102-3.327,0.44-3.483,0.992h-0.001l0,0l0.001,0.002c-0.074,0.284,0.277,0.782,0.949,1.406  c0.186,0.174,0.384,0.339,0.585,0.497c0.193,0.154,0.434,0.323,0.72,0.516l0.015,0.01l1.907,1.29l-2.055,1.037  c-0.235,0.119-0.394,0.235-0.462,0.346l-0.018,0.026l-0.006,0.014v0.004h0.003c-0.082,0.309,0.319,0.848,1.079,1.523  c0.217,0.193,0.435,0.372,0.649,0.534c0.223,0.165,0.487,0.349,0.789,0.543l0.017,0.011l1.496,0.961l-1.332,1.182  c-0.054,0.046-0.093,0.091-0.114,0.134h0.003c-0.013,0.024-0.006,0.004-0.01,0.018l-0.004,0.008h0.001  c-0.134,0.498,0.692,1.357,2.151,2.36l0.003-0.003c0.373,0.255,0.758,0.498,1.149,0.725c0.401,0.232,0.855,0.47,1.354,0.719  l0.006,0.003l0.021,0.011l0.563,0.284v5.301c-1.456-1.155-2.356-2.379-2.536-3.567c-0.252-0.133-0.502-0.272-0.75-0.417  c-0.499-0.287-0.947-0.565-1.329-0.83v-0.008c-2.442-1.676-3.703-3.548-3.241-5.273l0.006-0.008l0.001-0.007v-0.004l0.02-0.074  c-0.269-0.208-0.508-0.403-0.712-0.581c-1.545-1.377-2.264-2.842-1.892-4.24l0.008-0.004l0.003-0.01  c0.038-0.144,0.087-0.277,0.144-0.403c0.056-0.127,0.123-0.252,0.195-0.365l0.018-0.031c-0.101-0.085-0.193-0.172-0.285-0.256  c-1.426-1.328-2.08-2.733-1.719-4.076l0.006-0.007l0.004-0.018v-0.01c0.504-1.797,2.741-2.794,5.951-2.956  c2.736-0.134,6.324,0.286,10.112,1.295l0.067,0.017H35.878L35.878,29.56z M50.401,1.49h0.011v0.006c3.052,0,5.84,0.419,7.869,1.099  l0,0c2.47,0.826,4,2.142,4.007,3.755h0.006v0.005v0.003h-0.006c-0.007,1.615-1.537,2.935-4.019,3.758  c-2.023,0.675-4.806,1.096-7.852,1.099v0.003h-0.017h-0.008v-0.003c-3.052-0.003-5.834-0.423-7.867-1.1  c-2.472-0.824-4.005-2.142-4.009-3.756h-0.004V6.354V6.351h0.004c0.004-1.616,1.538-2.935,4.012-3.758  c2.03-0.678,4.807-1.097,7.857-1.097V1.49H50.401L50.401,1.49z M50.412,4.188v0.006h-0.011h-0.015V4.188  c-2.759,0.001-5.238,0.369-7.012,0.961c-1.335,0.446-2.161,0.882-2.162,1.203h0.004v0.003v0.003h-0.004  c0.001,0.321,0.825,0.757,2.159,1.202c1.777,0.592,4.258,0.959,7.022,0.959V8.515h0.008h0.017v0.003  c2.758,0,5.234-0.367,7.009-0.959c1.341-0.445,2.165-0.88,2.165-1.202h-0.006V6.354V6.349h0.006c0-0.318-0.824-0.754-2.16-1.199  h-0.005C55.646,4.557,53.168,4.188,50.412,4.188L50.412,4.188z M49.059,70.322v27.683h-4.465c-2.13,0-3.874-1.744-3.874-3.872  c0-18.297,0-36.588,0-54.88c0-2.131,1.744-3.875,3.874-3.875h11.619c2.128,0,3.872,1.744,3.872,3.875c0,18.292,0,36.583,0,54.88  c0,2.128-1.744,3.872-3.872,3.872h-4.468V70.322H49.059z M35.042,37.227h1.53c1.045,0,1.896,0.855,1.896,1.896v26.161  c0,1.044-0.855,1.896-1.896,1.896h-1.53c-1.041,0-1.896-0.853-1.896-1.896V39.123C33.146,38.08,34,37.227,35.042,37.227z   M50.401,13.343c5.573,0,10.095,4.519,10.095,10.094c0,5.575-4.521,10.095-10.095,10.095c-5.576,0-10.094-4.52-10.094-10.095  C40.307,17.862,44.828,13.343,50.401,13.343z M64.229,37.227h1.525c1.049,0,1.901,0.855,1.901,1.896v26.161  c0,1.044-0.858,1.896-1.901,1.896h-1.525c-1.044,0-1.901-0.853-1.901-1.896V39.123C62.328,38.08,63.186,37.227,64.229,37.227z   M65.633,32.168l-0.029,0.006l0,0c-1.02,0.275-1.982,0.571-2.875,0.883c-0.894,0.312-1.751,0.653-2.574,1.013  c-0.479,0.216-0.939,0.428-1.374,0.641c-0.754-0.434-1.635-0.677-2.563-0.68v-0.004h-0.005h-1.438l0.038-0.028  c1.058-0.442,2.038-1.037,2.907-1.759c0.436-0.22,0.881-0.433,1.352-0.637c0.843-0.374,1.773-0.743,2.771-1.09  c0.991-0.348,2.019-0.664,3.062-0.943l-0.006-0.001l0.029-0.007h0.012l0.063-0.017c3.792-1.009,7.375-1.429,10.111-1.295  c3.211,0.161,5.449,1.16,5.953,2.956v0.013l0.006,0.015l0.007,0.007c0.358,1.342-0.297,2.751-1.723,4.076  c-0.087,0.084-0.186,0.171-0.289,0.256l0.022,0.031c0.075,0.113,0.14,0.238,0.197,0.365c0.052,0.126,0.104,0.259,0.145,0.403v0.01  l0.006,0.004c0.371,1.398-0.342,2.863-1.891,4.24c-0.202,0.18-0.44,0.373-0.712,0.581l0.022,0.074v0.004v0.01l0.006,0.006  c0.458,1.725-0.8,3.597-3.234,5.273v0.008c-0.395,0.264-0.835,0.542-1.34,0.83c-0.243,0.145-0.498,0.284-0.748,0.417  c-0.18,1.191-1.078,2.412-2.533,3.567V46.09l0.568-0.281l0.018-0.011l0.005-0.003c0.499-0.247,0.951-0.487,1.352-0.719  c0.395-0.227,0.776-0.47,1.153-0.725v0.003c1.461-1.003,2.285-1.863,2.151-2.36h0.006l-0.006-0.008  c-0.007-0.014,0,0.006-0.012-0.018l0,0c-0.018-0.042-0.059-0.087-0.11-0.134l-1.339-1.182l1.502-0.961l0.017-0.011  c0.302-0.194,0.563-0.378,0.788-0.543c0.209-0.162,0.435-0.341,0.649-0.534c0.76-0.675,1.16-1.215,1.078-1.523l0,0v-0.004  l-0.006-0.014l-0.011-0.026c-0.069-0.111-0.232-0.23-0.464-0.346l-2.058-1.037l1.906-1.29l0.018-0.01  c0.284-0.19,0.528-0.362,0.72-0.513c0.202-0.161,0.394-0.326,0.585-0.5c0.673-0.625,1.021-1.122,0.945-1.406l0.006-0.002l0,0h-0.006  c-0.15-0.551-1.473-0.89-3.479-0.992c-2.476-0.124-5.774,0.269-9.299,1.211l-0.053,0.012V32.168L65.633,32.168z"/>
</svg>