<svg xmlns="http://www.w3.org/2000/svg" xmlns:xlink="http://www.w3.org/1999/xlink" xmlns:a="http://ns.adobe.com/AdobeSVGViewerExtensions/3.0/" version="1.1" x="0px" y="0px" width="100px" height="100px" viewBox="-30.92 -1.324 100 100" enable-background="new -30.92 -1.324 100 100" xml:space="preserve">
<defs>
</defs>
<path d="M44.371,31.271l8.693,0.556l-6.222-6.615c0.104-0.605,0.184-1.22,0.214-1.849c0.073-1.497-0.082-2.95-0.418-4.336  l6.254-6.887l-9.328,0.763c-1.291-1.566-2.886-2.873-4.706-3.832L37.39,0L32.48,7.306C32.46,7.305,32.44,7.301,32.42,7.3  c-2.485-0.121-4.854,0.366-6.982,1.306l-7.204-4.055l2.351,7.44c-1.999,2.067-3.417,4.694-4,7.644l-6.736,2.729l6.6,2.539  c0.481,3.19,1.963,6.067,4.121,8.309l-2.022,6.815l6.283-3.685c1.848,0.915,3.906,1.48,6.099,1.587  c0.812,0.04,1.606-0.003,2.39-0.086l4.464,6.396l1.167-8.125C41.119,34.953,42.979,33.292,44.371,31.271z"/>
<g>
	<path d="M30.38,38.167c-0.123-0.215-0.73-0.725-1.019-0.652c-0.497,0.14-0.129,0.784-0.201,1.192   c-0.091,0.8-0.869,1.852-1.611,2.281c-0.166-0.232-0.709-0.675-0.98-0.606c-0.258,0.073-0.282,0.281-0.257,0.521   c-0.043-0.071-0.075-0.147-0.098-0.235c0.018-0.005,0.037-0.012,0.055-0.017l0.059-0.134c-0.049-0.026-0.104-0.04-0.156-0.059   c-0.023-0.336,0.073-0.729,0.29-1.065c0.583-0.824,1.771-1.377,2.601-1.61l0.06-0.134c-1.256-0.667-3.81,1.138-4.014,2.816   c-1.149,0.32-2.443,1.456-2.744,2.6c-1.248,0.33-2.68,1.635-2.83,2.875c-1.15,0.32-2.443,1.456-2.744,2.6   c-1.248,0.329-2.678,1.634-2.829,2.875c-1.149,0.319-2.443,1.455-2.745,2.599c-1.248,0.33-2.679,1.635-2.829,2.876   c-1.149,0.319-2.444,1.455-2.745,2.6c-1.247,0.329-2.677,1.634-2.829,2.876c-1.407,0.391-3.039,2.007-2.789,3.361   c0.157,0.869,1.358,1.766,2.16,1.918c1.074,0.197,2.104-1.389,2.658-2.227c0.104-0.164,0.209-0.391,0.301-0.643   c1.012,0.02,1.967-1.43,2.493-2.225c0.066-0.104,0.132-0.237,0.195-0.382c1.047,0.115,2.044-1.407,2.585-2.226   c0.104-0.164,0.208-0.392,0.3-0.643c1.014,0.02,1.968-1.43,2.493-2.225c0.066-0.104,0.132-0.237,0.195-0.382   c1.047,0.115,2.044-1.407,2.584-2.226c0.104-0.164,0.209-0.391,0.301-0.643c1.014,0.021,1.968-1.43,2.493-2.225   c0.066-0.104,0.132-0.237,0.195-0.382c1.048,0.114,2.045-1.406,2.585-2.225c0.104-0.165,0.209-0.393,0.301-0.645   c1.014,0.02,1.968-1.43,2.492-2.224c0.066-0.104,0.133-0.238,0.196-0.382c1.048,0.116,2.044-1.407,2.584-2.225   c0.104-0.165,0.21-0.392,0.301-0.644c1.015,0.019,1.969-1.431,2.492-2.225C30.287,40.09,30.672,38.818,30.38,38.167z M2.247,65.872   c-1.175,0.52-1.457-0.809-0.874-1.711c0.349-0.492,0.914-0.875,1.489-1.164c0.135,0.447,0.519,0.887,0.97,1.223   C3.486,64.923,2.833,65.629,2.247,65.872z M5.256,62.89c-0.164-0.231-0.709-0.675-0.98-0.608c-0.258,0.073-0.283,0.281-0.258,0.521   c-0.042-0.07-0.075-0.146-0.098-0.233c0.017-0.005,0.038-0.014,0.055-0.019l0.06-0.135c-0.049-0.026-0.104-0.04-0.157-0.059   c-0.023-0.336,0.073-0.729,0.29-1.064c0.336-0.475,0.873-0.847,1.426-1.133c0.003,0.03,0.001,0.061,0.006,0.09   c0.083,0.465,0.465,0.932,0.922,1.293C6.207,62.096,5.727,62.617,5.256,62.89z M8.132,60.228c-0.014-0.054-0.025-0.111-0.046-0.159   c-0.124-0.215-0.731-0.727-1.017-0.654c-0.386,0.108-0.254,0.517-0.208,0.887c-0.125-0.144-0.191-0.348-0.202-0.579   c0.034-0.011,0.075-0.028,0.108-0.038l0.059-0.135c-0.049-0.026-0.105-0.04-0.158-0.059c0.027-0.27,0.115-0.554,0.278-0.807   c0.349-0.49,0.914-0.873,1.49-1.162c0.136,0.448,0.519,0.887,0.97,1.223C9.121,59.327,8.627,59.908,8.132,60.228z M10.828,57.414   c-0.166-0.231-0.709-0.675-0.979-0.606c-0.258,0.072-0.283,0.281-0.258,0.521c-0.042-0.07-0.075-0.146-0.098-0.234   c0.017-0.005,0.038-0.014,0.054-0.019l0.06-0.133c-0.049-0.026-0.104-0.04-0.156-0.059c-0.024-0.336,0.073-0.73,0.29-1.066   c0.335-0.473,0.872-0.854,1.424-1.14c0.004,0.032,0.001,0.066,0.007,0.099c0.084,0.464,0.466,0.931,0.923,1.292   C11.78,56.622,11.3,57.142,10.828,57.414z M13.707,54.753c-0.015-0.055-0.025-0.112-0.047-0.161   c-0.123-0.215-0.731-0.727-1.017-0.652c-0.386,0.108-0.255,0.517-0.208,0.886c-0.125-0.145-0.191-0.351-0.202-0.584   c0.036-0.011,0.074-0.024,0.108-0.034l0.06-0.135c-0.049-0.026-0.105-0.04-0.158-0.059c0.027-0.269,0.116-0.551,0.278-0.803   c0.348-0.492,0.912-0.885,1.486-1.174c0.133,0.451,0.519,0.894,0.973,1.231C14.694,53.85,14.201,54.431,13.707,54.753z    M16.402,51.94c-0.166-0.232-0.709-0.676-0.98-0.607c-0.258,0.073-0.283,0.282-0.257,0.522c-0.042-0.071-0.076-0.148-0.098-0.235   c0.018-0.006,0.037-0.013,0.055-0.018l0.06-0.135c-0.049-0.026-0.104-0.04-0.157-0.059c-0.023-0.336,0.073-0.73,0.29-1.065   c0.335-0.474,0.871-0.855,1.424-1.141c0.004,0.033,0.001,0.066,0.007,0.098c0.083,0.464,0.465,0.93,0.923,1.292   C17.353,51.146,16.873,51.667,16.402,51.94z M19.28,49.278c-0.014-0.055-0.025-0.113-0.047-0.161   c-0.124-0.215-0.731-0.724-1.019-0.651c-0.384,0.107-0.253,0.516-0.207,0.885c-0.125-0.144-0.191-0.35-0.202-0.582   c0.036-0.011,0.074-0.024,0.108-0.034l0.059-0.134c-0.049-0.026-0.105-0.041-0.158-0.059c0.027-0.269,0.116-0.553,0.279-0.805   c0.348-0.491,0.912-0.884,1.486-1.172c0.134,0.452,0.52,0.894,0.974,1.231C20.268,48.376,19.774,48.957,19.28,49.278z    M21.976,46.464c-0.167-0.232-0.71-0.675-0.98-0.606c-0.257,0.072-0.282,0.279-0.258,0.518c-0.042-0.07-0.075-0.146-0.097-0.234   c0.018-0.005,0.037-0.012,0.055-0.017l0.06-0.134c-0.049-0.026-0.104-0.04-0.157-0.059c-0.022-0.336,0.073-0.729,0.29-1.065   c0.335-0.473,0.872-0.846,1.424-1.131c0.004,0.03,0.001,0.061,0.007,0.09c0.084,0.463,0.466,0.93,0.924,1.292   C22.927,45.671,22.446,46.192,21.976,46.464z M24.854,43.803c-0.015-0.054-0.025-0.112-0.047-0.16   c-0.125-0.216-0.731-0.725-1.019-0.652c-0.385,0.107-0.254,0.516-0.208,0.885c-0.124-0.144-0.19-0.348-0.202-0.579   c0.035-0.011,0.076-0.029,0.109-0.038l0.059-0.134c-0.049-0.026-0.104-0.041-0.158-0.059c0.028-0.269,0.116-0.552,0.279-0.804   c0.348-0.491,0.911-0.883,1.485-1.172c0.134,0.451,0.52,0.894,0.974,1.231C25.841,42.901,25.348,43.481,24.854,43.803z"/>
</g>
<path d="M22.233,96.274l-1.654-2.856l0.362-0.196c0.581-0.316,0.839-0.93,0.571-1.368c-0.269-0.44-0.957-0.54-1.541-0.223  l-0.326,0.177l-0.298-0.516l0.281-0.152c0.583-0.317,0.839-0.93,0.572-1.369c-0.269-0.44-0.958-0.54-1.541-0.223l-0.245,0.133  l-0.301-0.521l0.191-0.104c0.583-0.316,0.84-0.93,0.572-1.369s-0.957-0.539-1.541-0.223l-0.155,0.084L4.262,65.239l-0.686,0.354  c-0.247-0.667-0.873-1.157-1.628-1.193c-1.011-0.049-1.87,0.73-1.919,1.74l-0.021,0.426c-0.014,0.282,0.043,0.551,0.146,0.795  l-0.093,0.048L13.05,89.839c-0.409,0.336-0.577,0.824-0.35,1.198c0.222,0.365,0.734,0.479,1.236,0.332l0.356,0.614  c-0.352,0.333-0.48,0.787-0.268,1.136c0.208,0.342,0.668,0.471,1.138,0.367l0.37,0.639c-0.302,0.325-0.395,0.749-0.196,1.077  c0.193,0.318,0.608,0.451,1.042,0.385l1.653,2.855L22.233,96.274z"/>
</svg>