<svg xmlns="http://www.w3.org/2000/svg" xmlns:xlink="http://www.w3.org/1999/xlink" version="1.1" id="Layer_1" x="0px" y="0px" width="100px" height="100px" viewBox="-346 256 100 100" enable-background="new -346 256 100 100" xml:space="preserve">
<path d="M-319.938,322.426h-24.171v4.771l13.113,3.342c-0.363,1.13-0.611,2.311-0.611,3.559c0,6.445,5.223,11.671,11.669,11.671  c6.447,0,11.673-5.226,11.673-11.671C-308.265,327.651-313.491,322.426-319.938,322.426z"/>
<circle cx="-284.944" cy="288.66" r="11.307"/>
<path d="M-246.281,347.882l-12.071-36.877l-0.019,0.005c-1.882-5.495-7.512-8.682-15.446-8.682h-1.915v9.298l-8.961-9.271  l-8.962,9.271v-9.307l-4.824-0.002l-0.002-0.03h-42.22c-6.748,0-6.748,10.857,0,10.857h37.505L-303.2,356h35.697l0.145-37.605  l10.762,32.866C-254.496,357.677-244.177,354.292-246.281,347.882z"/>
</svg>