<svg xmlns="http://www.w3.org/2000/svg" xmlns:xlink="http://www.w3.org/1999/xlink" version="1.1" id="Layer_1" x="0px" y="0px" width="100px" height="100px" viewBox="-346 256 100 100" enable-background="new -346 256 100 100" xml:space="preserve">
<path d="M-320.825,321.851h-24.165v4.77l13.114,3.341c-0.364,1.128-0.612,2.311-0.612,3.559c0,6.442,5.218,11.667,11.663,11.667  c6.445,0,11.671-5.225,11.671-11.667C-309.153,327.074-314.38,321.851-320.825,321.851z"/>
<g>
	<polygon points="-287.351,356 -287.351,302.334 -287.433,302.334 -292.939,309.553 -292.939,356  "/>
	<polygon points="-277.129,309.621 -282.686,302.336 -282.798,302.336 -282.798,356 -277.129,356  "/>
	<path d="M-297.496,356v-53.67h-0.994l-0.005-0.032h-42.209c-6.747,0-6.747,10.854,0,10.854h37.101L-303.607,356H-297.496z"/>
	<path d="M-246.309,347.885l-12.031-36.754c-1.879-5.314-6.947-8.399-14.234-8.726V356h6.364l0.142-36.64l10.469,31.978   C-253.496,357.75-244.203,354.292-246.309,347.885z"/>
</g>
<circle cx="-284.961" cy="288.558" r="11.307"/>
</svg>