<svg xmlns="http://www.w3.org/2000/svg" xmlns:xlink="http://www.w3.org/1999/xlink" xmlns:a="http://ns.adobe.com/AdobeSVGViewerExtensions/3.0/" version="1.1" x="0px" y="0px" width="100px" height="100px" viewBox="-10.819 -8.578 100 100" enable-background="new -10.819 -8.578 100 100" xml:space="preserve">
<defs>
</defs>
<g>
	<path d="M19.914,9.534c-0.325,1.424-0.226,2.976,0.371,4.44c1.127,3.053,2.664,4.906,5.84,4.579   c0.734-0.081,1.405-0.216,2.023-0.415l0.856,0.895c-1.544,2.04-2.288,4.37-0.473,6.567c2.171,2.578,5.699,7.734,9.498,6.92   c2.17-0.542,2.035-1.899,2.849-3.664c1.086-2.713,1.086-3.392-1.492-4.885c-3.121-2.035-5.97-2.985-7.463-6.784l-0.678-0.542   c-0.468,0.421-0.929,0.872-1.363,1.342l-0.416-0.435c1.239-0.695,2.247-1.76,3.114-3.36c0.02-0.039,0.039-0.083,0.059-0.123   c-0.11,0.156-0.231,0.307-0.366,0.45c-1.227,1.392-4.019,0.907-5.826-0.122l-1.902-1.988c-1.022-1.833-1.647-4.537-0.981-6.395   l-0.615-0.763c-1.133,0.689-1.99,1.687-2.535,2.84l-7.702-8.048c-0.111-0.116-0.42,0-0.692,0.26   c-0.271,0.258-0.399,0.562-0.289,0.679L19.914,9.534z"/>
</g>
<g>
	<path d="M43.728,24.786l-0.543,0.407c-0.407,1.357-0.271,2.578-0.813,3.935c-0.407,1.085-1.493,2.171-1.9,3.121   c0.361,0.241,0.765,0.428,1.194,0.568c-0.063,0.069-0.105,0.119-0.1,0.126l2.871,2.999c0.014,0.015,0.244-0.183,0.515-0.441   c0.271-0.261,0.479-0.481,0.466-0.497l-1.797-1.877c2.611,0.046,5.419-1.209,6.077-3.184   C51.327,25.193,47.391,24.786,43.728,24.786z"/>
</g>
<g>
	<path d="M35.858,19.223c2.035,1.492,3.663,3.392,5.97,4.342l0.136,0.95c1.764-2.035,5.834-1.085,7.598,0.407   c0-2.578-3.527-4.613-5.291-5.97c-2.442-2.036-3.121-2.85-6.242-2.714c-0.95,0-3.392-0.271-3.935,0.407   C33.009,17.595,34.773,18.544,35.858,19.223z"/>
</g>
<g>
	<path d="M61.217,47.207c-3.121-2.035-5.97-2.985-7.463-6.784l-0.679-0.542c-0.466,0.419-0.926,0.869-1.358,1.338l-1.15-1.202   c-0.014-0.014-0.244,0.185-0.516,0.444c-0.271,0.259-0.478,0.479-0.465,0.495l1.252,1.309c-1.546,2.041-2.292,4.372-0.476,6.57   c2.17,2.578,5.698,7.734,9.498,6.92c2.17-0.543,2.034-1.898,2.849-3.664C63.795,49.377,63.795,48.7,61.217,47.207z"/>
</g>
<g>
	<path d="M57.689,42.458c2.035,1.492,3.663,3.393,5.971,4.342l0.136,0.95c1.764-2.035,5.834-1.085,7.598,0.407   c0-2.578-3.527-4.613-5.291-5.971c-2.442-2.035-3.121-2.849-6.241-2.713c-0.95,0-3.393-0.271-3.936,0.407   C54.839,40.83,56.604,41.78,57.689,42.458z"/>
</g>
<g>
	<path d="M24.076,5.47c1.752,0,3.899,0.062,5.813,0.496C28.077,5.287,25.87,5.47,24.076,5.47z"/>
</g>
<g>
	<path d="M31.761,6.561c-0.579-0.251-1.212-0.445-1.872-0.594c0.568,0.213,1.1,0.505,1.564,0.921   c1.314,1.119,2.117,3.043,1.988,4.855C33.871,9.716,33.67,7.464,31.761,6.561z"/>
</g>
<g>
	<path d="M32.64,14.069c0.492-0.693,0.743-1.498,0.802-2.327C33.26,12.6,32.965,13.413,32.64,14.069z"/>
</g>
<g>
	<path d="M46.545,35.401c0.846-1.217,4.041-4.312,5.779-4.333c0.657,0.033,1.318,1.11,1.898,1.277   c0.775,0.484,1.316,0.588,1.513,1.427c-1.002,0.441-2.123,0.432-3.088,0.936c0.157,0.514,0.544,0.888,0.432,1.48   c-4.708,1.407-6.078,6.697-9.783,7.924c-3.859,1.236,2.717-6.727,2.519-8.088l0.611-1.597c-0.997,1.747-2.034,3.43-3.032,5.176   c-0.613,1.075-2.844,3.665-2.493,4.497c0.194,0.316,2.745,0.32,3.748-0.119c0.888-0.371,2.966-2.17,3.659-2.857   c1.463-1.248,2.348-2.401,3.81-3.648c1.272-1.042,2.35-2.14,3.582-3.245c1.308-1.239,2.773-2.226,1.609-3.082   c-0.581-0.428-2.939-0.9-3.944-0.981C51.084,30.085,44.538,35.5,46.545,35.401z"/>
</g>
<g>
	<path d="M71.454,55.416c1.751,0,3.898,0.062,5.812,0.495C75.454,55.233,73.247,55.416,71.454,55.416z"/>
</g>
<g>
	<path d="M80.019,64.01c0.49-0.692,0.741-1.495,0.8-2.321C80.638,62.544,80.344,63.354,80.019,64.01z"/>
</g>
<g>
	<path d="M79.138,56.505c-0.579-0.252-1.213-0.444-1.873-0.595c0.568,0.214,1.102,0.506,1.566,0.923   c1.313,1.118,2.117,3.043,1.987,4.855C81.249,59.663,81.048,57.409,79.138,56.505z"/>
</g>
<g>
	<path d="M81.177,72.223l-0.453-0.93l-0.013,0.013c-0.003-0.007,0.001-0.02-0.004-0.025l-3.705-3.872   c1.167-0.697,2.125-1.739,2.956-3.271c0.021-0.04,0.04-0.086,0.061-0.127c-0.111,0.157-0.232,0.311-0.369,0.455   c-1.122,1.272-3.553,0.975-5.342,0.128l-2.681-2.801c-0.84-1.794-1.286-4.159-0.687-5.832l-0.615-0.763   c-1.077,0.655-1.908,1.586-2.456,2.667L66.39,56.32c2.312-0.227,4.56-1.404,5.139-3.144c1.629-4.748-2.307-5.155-5.97-5.155   l-0.543,0.407c-0.407,1.355-0.271,2.578-0.813,3.934c-0.407,1.086-1.493,2.172-1.9,3.121c0.621,0.414,1.369,0.666,2.162,0.788   l2.878,3.008c-0.383,1.479-0.306,3.106,0.319,4.641c1.127,3.053,2.664,4.906,5.841,4.579c0.808-0.089,1.533-0.25,2.202-0.482   l4.022,4.203c0.012,0.012,0.036,0.01,0.058,0.011l-0.006,0.006l0.923,0.455l0.923,0.458L81.177,72.223z"/>
</g>
<g>
	<path d="M22.401,38.418c1.65-2.412,1.798-3.074-0.394-5.092c-2.603-2.666-5.177-4.213-5.808-8.246l-0.543-0.677   c-0.548,0.309-1.097,0.648-1.623,1.014l-0.312-0.515c1.361-0.409,2.576-1.229,3.771-2.603c0.028-0.033,0.056-0.071,0.083-0.106   c-0.142,0.128-0.292,0.249-0.455,0.359c-1.501,1.092-4.12,0.01-5.66-1.387l-1.424-2.354c-0.599-2.012-0.62-4.786,0.434-6.455   l-0.434-0.878c-1.256,0.426-2.309,1.213-3.092,2.221L1.18,4.168C1.097,4.031,0.77,4.077,0.449,4.271   c-0.32,0.193-0.513,0.462-0.43,0.6l6.125,10.126c-0.627,1.319-0.868,2.855-0.604,4.415c0.436,3.225,1.532,5.368,4.704,5.741   c0.734,0.081,1.418,0.095,2.065,0.035l0.641,1.06c-1.951,1.655-3.185,3.767-1.891,6.306c1.558,2.989,3.879,8.79,7.765,8.821   C21.06,41.317,21.223,39.964,22.401,38.418z"/>
</g>
<g>
	<path d="M30.773,41.397c2.624-4.28-1.129-5.533-4.705-6.33l-0.619,0.278c-0.692,1.234-0.826,2.458-1.65,3.663   c-0.634,0.972-1.93,1.795-2.534,2.632c0.3,0.314,0.653,0.585,1.042,0.815c-0.078,0.054-0.129,0.094-0.125,0.102l2.15,3.552   c0.01,0.019,0.278-0.124,0.599-0.318c0.321-0.194,0.571-0.365,0.562-0.383l-1.346-2.226C26.686,43.795,29.701,43.181,30.773,41.397   z"/>
</g>
<g>
	<path d="M27.868,29.49c-1.941-2.518-2.426-3.46-5.501-4.007c-0.927-0.207-3.252-1.003-3.93-0.459   c-1.266,0.691,0.249,2.001,1.161,2.9c1.662,1.899,2.837,4.108,4.882,5.537l-0.074,0.957c2.164-1.603,5.93,0.21,7.327,2.052   C32.294,33.953,29.294,31.198,27.868,29.49z"/>
</g>
<g>
	<path d="M38.258,60.755c-2.603-2.665-5.176-4.213-5.807-8.246l-0.544-0.677c-0.546,0.308-1.093,0.646-1.617,1.011l-0.861-1.424   c-0.01-0.017-0.279,0.128-0.6,0.322c-0.32,0.193-0.57,0.363-0.561,0.382l0.937,1.55c-1.953,1.655-3.188,3.769-1.894,6.309   c1.557,2.989,3.878,8.789,7.765,8.821c2.236-0.058,2.398-1.41,3.577-2.956C40.302,63.435,40.45,62.774,38.258,60.755z"/>
</g>
<g>
	<path d="M47.984,63.897c0.561-2.517-2.439-5.27-3.865-6.979c-1.94-2.519-2.426-3.461-5.5-4.007c-0.928-0.207-3.252-1.003-3.93-0.46   c-1.267,0.692,0.249,2.003,1.161,2.9c1.662,1.9,2.835,4.108,4.882,5.537l-0.075,0.958C42.821,60.245,46.586,62.057,47.984,63.897z"/>
</g>
<g>
	<path d="M18.354,14.673c-0.509-0.371-1.085-0.697-1.697-0.987c0.508,0.331,0.963,0.732,1.326,1.239   c1.039,1.378,1.404,3.431,0.883,5.172C19.728,18.214,20.022,15.971,18.354,14.673z"/>
</g>
<g>
	<path d="M17.577,22.194c0.631-0.569,1.052-1.3,1.29-2.096C18.503,20.896,18.038,21.625,17.577,22.194z"/>
</g>
<g>
	<path d="M16.658,13.687c-1.621-1.058-3.815-1.359-5.566-1.75C12.801,12.318,14.884,12.846,16.658,13.687z"/>
</g>
<g>
	<path d="M31.495,49.279c1.469-0.741,2.759-1.578,4.203-2.39c1.547-0.924,3.191-1.569,2.241-2.657   c-0.475-0.544-2.673-1.519-3.636-1.815c-2.208-0.578-9.776,3.283-7.795,3.623c1.09-1.004,4.883-3.33,6.583-2.971   c0.635,0.174,1.045,1.37,1.575,1.66c0.652,0.64,1.157,0.86,1.166,1.721c-1.074,0.213-2.166-0.041-3.217,0.241   c0.041,0.537,0.337,0.986,0.099,1.539c-4.901,0.35-7.39,5.214-11.273,5.604c-4.036,0.367,4.115-5.974,4.218-7.346l0.944-1.424   c-1.353,1.487-2.732,2.904-4.086,4.392c-0.833,0.914-3.573,2.957-3.412,3.845c0.121,0.352,2.609,0.91,3.684,0.7   c0.947-0.17,3.367-1.473,4.193-1.992C28.682,51.111,29.797,50.177,31.495,49.279z"/>
</g>
<g>
	<path d="M52.495,81.612c-1.374,1-3.683,0.178-5.245-1.039l-2.004-3.312c-0.431-1.934-0.351-4.341,0.599-5.844l-0.434-0.879   c-1.194,0.405-2.209,1.134-2.979,2.07l-1.108-1.832c2.307,0.282,4.758-0.378,5.702-1.949c2.623-4.28-1.13-5.533-4.706-6.33   l-0.618,0.278c-0.692,1.234-0.826,2.457-1.649,3.661c-0.635,0.972-1.931,1.796-2.534,2.634c0.516,0.539,1.19,0.946,1.938,1.239   l2.155,3.563c-0.695,1.359-0.974,2.965-0.697,4.599c0.435,3.225,1.532,5.368,4.703,5.739c0.808,0.089,1.551,0.091,2.254,0.009   l3.012,4.978c0.055,0.093,0.359,0.01,0.681-0.185s0.535-0.425,0.479-0.517l-2.774-4.586c1.292-0.427,2.455-1.235,3.6-2.551   c0.028-0.034,0.057-0.073,0.086-0.108C52.81,81.379,52.659,81.5,52.495,81.612z"/>
</g>
<g>
	<path d="M53.727,73.732c-0.511-0.372-1.087-0.698-1.7-0.988c0.51,0.332,0.966,0.733,1.329,1.242   c1.039,1.378,1.404,3.433,0.883,5.174C55.1,77.275,55.396,75.03,53.727,73.732z"/>
</g>
<g>
	<path d="M52.027,72.744c-1.62-1.056-3.813-1.357-5.563-1.747C48.172,71.376,50.254,71.905,52.027,72.744z"/>
</g>
<g>
	<path d="M52.953,81.25c0.629-0.568,1.049-1.297,1.286-2.091C53.875,79.955,53.412,80.681,52.953,81.25z"/>
</g>
</svg>