<svg xmlns="http://www.w3.org/2000/svg" xmlns:xlink="http://www.w3.org/1999/xlink" version="1.1" id="&#1057;&#1083;&#1086;&#1081;_1" x="0px" y="0px" width="100px" height="100px" viewBox="0 0 100 100" enable-background="new 0 0 100 100" xml:space="preserve">
<path fill="#000000" d="M98.507,49.869c-0.001-0.075-0.002-0.149-0.003-0.225c0.004-0.399,0.015-0.787,0.015-1.193h-0.029  c-0.3-15.353-3.529-26.057-10.108-33.533C81.099,6.641,69.41,2.242,52.724,1.481c-0.244-0.907-0.992-1.637-1.979-1.802  c-1.27-0.213-2.463,0.587-2.789,1.806C31.329,2.262,19.679,6.659,12.411,14.918C6.18,22,2.958,31.981,2.379,46.06  c-0.915,0.24-1.651,0.991-1.816,1.984c-0.208,1.239,0.546,2.404,1.712,2.765c0,0.01,0,0.019,0,0.029h0.029  c0.3,15.354,3.528,26.056,10.107,33.533c7.265,8.255,18.908,12.653,35.523,13.433c0.243,0.91,0.992,1.643,1.981,1.808  c1.266,0.212,2.459-0.585,2.788-1.801C69.4,97.05,81.096,92.65,88.381,84.37c6.062-6.888,9.284-16.508,9.988-29.986  c0.771-0.313,1.371-0.999,1.519-1.881C100.073,51.389,99.478,50.333,98.507,49.869z M97.04,49.645c0,0.005,0,0.011,0,0.017  c-0.188,0.031-0.371,0.08-0.544,0.151C96.588,27.59,80.548,7.878,57.937,4.1c-1.839-0.308-3.701-0.501-5.559-0.586  c0.12-0.176,0.218-0.368,0.29-0.575C83.756,4.332,96.722,18.023,97.04,49.645z M50.377,93.636c-2.431,0-4.889-0.205-7.305-0.609  c-2.583-0.432-5.088-1.094-7.506-1.949l5.203-14.701c1.57,0.558,3.198,0.988,4.876,1.269c1.559,0.26,3.144,0.393,4.712,0.393  c3.477,0,6.821-0.624,9.916-1.773l5.471,14.623C60.947,92.67,55.767,93.636,50.377,93.636z M50.271,5.654  c2.43,0,4.888,0.205,7.305,0.609c2.581,0.432,5.066,1.093,7.452,1.938L59.826,22.9c-1.544-0.547-3.152-0.976-4.823-1.255  c-1.559-0.261-3.145-0.393-4.712-0.393c-3.482,0-6.83,0.625-9.927,1.778l-5.47-14.623C39.692,6.622,44.877,5.654,50.271,5.654z   M76.161,53.963C74.04,66.642,63.188,75.844,50.357,75.844c-1.447,0-2.911-0.122-4.351-0.363C39.104,74.328,33.065,70.556,29,64.86  c-4.064-5.695-5.667-12.633-4.513-19.534c2.119-12.679,12.971-21.881,25.803-21.881c1.448,0,2.912,0.122,4.351,0.363  C68.888,26.189,78.541,39.717,76.161,53.963z M8.854,34.965l14.705,5.204c-0.54,1.537-0.958,3.138-1.234,4.796  c-0.833,4.986-0.332,9.987,1.395,14.598L9.11,65.027c-2.681-7.147-3.46-14.902-2.168-22.633C7.371,39.827,8.018,37.346,8.854,34.965  z M91.781,64.359l-14.704-5.203c0.546-1.548,0.968-3.161,1.247-4.832c0.852-5.092,0.275-10.097-1.422-14.614l14.599-5.462  c2.631,7.001,3.523,14.756,2.204,22.648C93.273,59.477,92.623,61.969,91.781,64.359z M48.01,2.943  c0.07,0.199,0.16,0.389,0.277,0.562C26.536,4.422,8.404,20.339,4.779,42.033c-0.239,1.432-0.406,2.865-0.511,4.294  c-0.133-0.079-0.274-0.147-0.424-0.201C5.078,17.041,18.18,4.311,48.01,2.943z M3.767,50.798c0.134-0.043,0.263-0.096,0.387-0.162  c0.179,9.218,3.11,18.162,8.582,25.83c7.164,10.041,17.81,16.689,29.975,18.723c1.843,0.308,3.708,0.503,5.569,0.588  c-0.119,0.174-0.215,0.363-0.288,0.568C17.377,94.938,4.387,81.558,3.767,50.798z M52.651,96.352  c-0.07-0.201-0.16-0.393-0.278-0.567c21.744-0.921,39.87-16.838,43.496-38.526c0.168-1.002,0.289-2.001,0.39-2.998  c0.196,0.106,0.407,0.188,0.634,0.239C95.316,82.689,82.115,95.035,52.651,96.352z"/>
</svg>