<?xml version="1.0" encoding="utf-8"?>
<!-- Generator: Adobe Illustrator 15.1.0, SVG Export Plug-In . SVG Version: 6.00 Build 0)  -->
<!DOCTYPE svg PUBLIC "-//W3C//DTD SVG 1.1//EN" "http://www.w3.org/Graphics/SVG/1.1/DTD/svg11.dtd">
<svg version="1.1" id="Layer_1" xmlns="http://www.w3.org/2000/svg" xmlns:xlink="http://www.w3.org/1999/xlink" x="0px" y="0px"
	 width="100px" height="36px" viewBox="0 0 100 36" enable-background="new 0 0 100 36" xml:space="preserve">
<path d="M94.725,18C97.849,16.444,100,13.228,100,9.5c0-5.247-4.253-9.5-9.5-9.5C85.254,0,81,4.253,81,9.5
	c0,0.512,0.052,1.011,0.13,1.5H18.87c0.078-0.49,0.13-0.989,0.13-1.5C19,4.253,14.747,0,9.5,0C4.254,0,0,4.253,0,9.5
	c0,3.728,2.152,6.944,5.276,8.5C2.152,19.556,0,22.772,0,26.5C0,31.747,4.254,36,9.5,36c5.247,0,9.5-4.253,9.5-9.5
	c0-0.512-0.052-1.01-0.13-1.5h62.26C81.052,25.49,81,25.988,81,26.5c0,5.247,4.254,9.5,9.5,9.5c5.247,0,9.5-4.253,9.5-9.5
	C100,22.772,97.849,19.556,94.725,18z"/>
</svg>
