<svg xmlns="http://www.w3.org/2000/svg" xmlns:xlink="http://www.w3.org/1999/xlink" version="1.1" id="Layer_1" x="0px" y="0px" width="100px" height="67.3267326733px" viewBox="0 0 101.046 68.012" enable-background="new 0 0 101.046 68.012" xml:space="preserve">
<path stroke="#000000" stroke-miterlimit="10" d="M99.244,51.884H97.65v-5.507c0.047-0.422,0.073-0.852,0.073-1.286  c0-5.058-3.232-9.36-7.74-10.96c1.688-1.377,2.767-3.473,2.767-5.821c0-4.147-3.363-7.509-7.512-7.509  c-4.146,0-7.51,3.361-7.51,7.509c0,2.622,1.347,4.929,3.384,6.272c-0.31,0.147-0.613,0.308-0.904,0.481L68.751,23.608  c0.23-1.507-0.233-3.098-1.394-4.258c-0.943-0.944-2.172-1.426-3.409-1.45v-3.905h12.124V2.493H63.948v-1.99H62.28v1.99H49.989  v11.501H62.28v4.161c-0.705,0.236-1.367,0.633-1.929,1.194c-1.935,1.934-1.935,5.071,0,7.005c0.562,0.561,1.224,0.958,1.929,1.194  v19.575c-0.834-0.67-1.787-1.197-2.822-1.547c0.628-0.886,0.998-1.967,0.998-3.136c0-3.001-2.433-5.434-5.434-5.434  c-1.972,0-3.697,1.05-4.649,2.622l-4.553-4.553c0.109-0.708-0.108-1.456-0.653-2c-0.462-0.462-1.07-0.688-1.677-0.68v-4.459h6.494  V19.72H43.49v-2.232h-0.436v2.232h-6.495v8.216h6.495v4.506c-0.433,0.088-0.844,0.298-1.178,0.633c-0.909,0.909-0.909,2.382,0,3.292  c0.334,0.334,0.746,0.544,1.178,0.633v13.981c-1.17-2.691-3.323-4.853-6.005-6.036c0.685-1.202,1.077-2.59,1.077-4.072  c0-4.552-3.69-8.242-8.243-8.242c-2.276,0-4.336,0.923-5.828,2.414l-6.826-6.825c0.181-1.186-0.183-2.439-1.096-3.353  c-0.792-0.792-1.839-1.168-2.876-1.136v-4.862h11.756V7.978H13.258v-2.04h-1.668v2.04H0.562v10.892h11.027v5.29  c-0.35,0.18-0.678,0.416-0.971,0.709c-1.523,1.522-1.523,3.992,0,5.515c0.293,0.293,0.621,0.528,0.971,0.709v20.793H1.855  c-0.69,0-1.249,0.708-1.249,1.582v12.658c0,0.874,0.559,1.583,1.249,1.583h97.389c0.689,0,1.249-0.708,1.249-1.583V53.466  C100.493,52.593,99.934,51.884,99.244,51.884z M64.611,27.748l11.457,11.457c-1.017,1.725-1.602,3.732-1.604,5.879h-0.072v6.801  h-8.989c-0.3-1.101-0.797-2.12-1.454-3.017V27.803C64.17,27.799,64.391,27.782,64.611,27.748z M43.875,37.021l5.721,5.721  c0.085,1.534,0.804,2.896,1.901,3.833c-1.876,1.217-3.281,3.097-3.885,5.31H43.49V37.043C43.619,37.045,43.749,37.041,43.875,37.021  z M13.258,31.521c0.238,0.007,0.476-0.006,0.712-0.042l7.823,7.822c-0.098,0.51-0.151,1.036-0.151,1.573  c0,2.462,1.081,4.671,2.792,6.181c-1.415,1.309-2.503,2.963-3.135,4.83h-8.04V31.521z"/>
</svg>