<svg xmlns="http://www.w3.org/2000/svg" xmlns:xlink="http://www.w3.org/1999/xlink" version="1.1" x="0px" y="0px" width="50.003px" height="50.004px" viewBox="0 0 50.003 50.004" enable-background="new 0 0 50.003 50.004" xml:space="preserve">
<g id="Background_xA0_Image_1_">
	
		</g>
<g id="Shape_9_1_" enable-background="new    ">
	<g id="Shape_9">
		<g>
			<path d="M49.003,16.96C49.003,10.355,43.63,5,37.002,5c-5.219,0-10.142,3.341-12.02,7.977C23.11,8.344,18.217,5,13.001,5     C6.373,5,1,10.355,1,16.96c0,0.02,0.006,0.039,0.006,0.059c0,0.018-0.006,0.03-0.006,0.048c0,0.542,0.099,1.093,0.177,1.642     c0.033,0.226,0.028,0.462,0.074,0.683c2.473,12.661,23.751,26.612,23.751,26.612S46.28,32.052,48.753,19.391     c0.046-0.221,0.04-0.458,0.073-0.683c0.077-0.549,0.177-1.1,0.177-1.642c0-0.019-0.006-0.032-0.006-0.051     S49.003,16.979,49.003,16.96z M39.73,19.347c0,0.325-0.06,0.656-0.106,0.985c-0.02,0.135-0.017,0.277-0.044,0.41     c-1.49,7.596-14.305,15.967-14.305,15.967S12.459,28.338,10.97,20.742c-0.028-0.133-0.024-0.275-0.044-0.41     c-0.047-0.329-0.107-0.66-0.107-0.985c0-0.011,0.004-0.018,0.004-0.029c0-0.012-0.004-0.023-0.004-0.035     c0-3.963,3.236-7.176,7.228-7.176c3.141,0,6.088,2.006,7.217,4.787c1.13-2.782,4.095-4.787,7.239-4.787     c3.992,0,7.228,3.213,7.228,7.176c0,0.011-0.003,0.022-0.003,0.033S39.73,19.335,39.73,19.347z"/>
		</g>
	</g>
</g>
</svg>