<svg xmlns="http://www.w3.org/2000/svg" xmlns:xlink="http://www.w3.org/1999/xlink" version="1.1" id="Layer_2" x="0px" y="0px" width="58px" height="52px" viewBox="0 0 58 52" enable-background="new 0 0 58 52" xml:space="preserve">
<path d="M19.417,17.596l7.597,3.497c0.999,0.46,2.634,0.46,3.632,0l6.411-2.951l10.514-5.014c-0.221-0.166-0.447-0.315-0.686-0.424  L31.559,5.647c-1.498-0.69-3.951-0.69-5.45,0l-15.331,7.057c-0.245,0.112-0.477,0.267-0.703,0.438L19.417,17.596L19.417,17.596z"/>
<path d="M28.098,24.693c0-1.102-0.817-2.376-1.816-2.837L14.71,16.532c-0.01-0.004-0.018-0.012-0.028-0.017L9.45,14.104v17.992  c0,1.65,1.227,3.564,2.726,4.255l15.331,7.058c0.136,0.063,0.288,0.113,0.438,0.164l0.152-9.367V24.693z"/>
<path d="M42.465,16.466c-0.021,0.011-0.039,0.026-0.062,0.037l-11.574,5.327c-1,0.459-1.816,1.736-1.816,2.836v7.836l0.023-0.001  L29,43.608c0.216-0.065,0.421-0.142,0.61-0.229l15.33-7.058c1.498-0.69,2.726-2.604,2.726-4.255l-0.003-17.999L42.465,16.466z"/>
</svg>