<svg xmlns="http://www.w3.org/2000/svg" xmlns:xlink="http://www.w3.org/1999/xlink" version="1.1" id="Layer_1" x="0px" y="0px" width="98.546px" height="93.746px" viewBox="0 0 98.546 93.746" enable-background="new 0 0 98.546 93.746" xml:space="preserve">
<path fill-rule="evenodd" clip-rule="evenodd" d="M43.58,45.366c0.84-2.52,3-3.89,4.7-3.04c1.6,0.8,2.14,3.28,1.3,5.52  c-0.81,2.18-2.7,3.49-4.31,2.95C43.57,50.226,42.76,47.815,43.58,45.366z"/>
<path fill-rule="evenodd" clip-rule="evenodd" d="M51.66,47.846c-0.84-2.24-0.3-4.72,1.3-5.52c1.7-0.85,3.86,0.52,4.7,3.04  c0.82,2.45,0.01,4.86-1.69,5.43C54.36,51.335,52.47,50.025,51.66,47.846z"/>
<g>
	<ellipse fill-rule="evenodd" clip-rule="evenodd" fill="#000000" cx="37.12" cy="35.746" rx="4" ry="5"/>
</g>
<path fill-rule="evenodd" clip-rule="evenodd" d="M57.729,34.746c0-3.87,2.55-7,5.69-7c3.15,0,5.7,3.13,5.7,7s-2.55,7-5.7,7  C60.28,41.746,57.729,38.616,57.729,34.746z"/>
<path fill-rule="evenodd" clip-rule="evenodd" d="M31.12,34.746c0-3.87,2.55-7,5.7-7c3.14,0,5.69,3.13,5.69,7s-2.55,7-5.69,7  C33.669,41.746,31.12,38.616,31.12,34.746z"/>
<path fill-rule="evenodd" clip-rule="evenodd" d="M10.669,30.516c-4.88-1.38-5.58,4.97-5.58,4.97l2.79-3.31c0,0-1.31,4.69,0.47,6.21  S15.55,31.896,10.669,30.516z"/>
<path fill-rule="evenodd" clip-rule="evenodd" d="M87.8,30.516c-4.88,1.38,0.54,9.39,2.32,7.87s0.46-6.21,0.46-6.21l2.79,3.31  C93.37,35.486,92.669,29.136,87.8,30.516z"/>
<path fill-rule="evenodd" clip-rule="evenodd" d="M27.12,37.166c-10.77,4.67-19,13.15-19,26.08c0,21.27,22.25,30.5,41.5,30.5  s41.5-9.23,41.5-30.5c0-3.17-0.49-6.07-1.4-8.71c-0.81-2.37-3.51-6.58-4.7-8.76c-0.18-0.33-0.32-0.66-0.39-0.99  c20.09,5.43,17.14-31.51-0.61-21.23c-2.88-8.1-8.96-11.87-16.23-14.67c13.21-1.89-5.38-2.81-6.57-2.99c0.18-0.68,3.7-2.79-6.72-2.27  c10.62-6.38-32.13-6.88-40.23,19.96c-17.7-10.32-19.4,25.91-2.48,20.99c2.13-0.96,2.48-1.86,2.65-2.68  c0.25-1.21-0.81-1.85-1.92-1.36c-13.14,5.82-13.1-20.7,1.71-10.65c0.84,0.56,1.74,0.24,2.06-0.74c3.52-10.81,11.96-15.93,21.9-18.94  c-1.1,0.88-0.36,2.83,1.28,2.43c3.57-0.87,6.6-1.37,9.48-1.57c-2.85,1.26-2.38,3.96-0.12,3.19c13.72-4.73,28.95,0.38,33.11,14.84  c0.29,1.02,1.22,1.39,2.07,0.78c14.03-10.17,15.25,16.53,0.38,11.38c-1.02-0.36-8.65-2.24-10.17-3.11c-0.38-0.2-0.77-0.38-1.17-0.56  c2.74,2.87,10.4,11.83,10.85,25.66c0.48,14.56-15.64,26.25-34.28,26.25c-3.18,0-6.27-0.34-9.22-0.97c3.41-1.7,5.72-5,5.72-8.78  c0-5.52-4.92-10-11-10s-11,4.48-11,10c0,0.35,0.02,0.69,0.06,1.03c-5.47-4.63-8.84-10.77-8.84-17.53  C15.34,54.636,19.169,44.625,27.12,37.166z"/>
</svg>