<svg xmlns="http://www.w3.org/2000/svg" xmlns:xlink="http://www.w3.org/1999/xlink" version="1.1" id="Layer_1" x="0px" y="0px" width="100px" height="100px" viewBox="0 0 100 100" enable-background="new 0 0 100 100" xml:space="preserve">
<g>
	<g>
		<g>
			<path fill="#000000" d="M3.952,45.66c1.467,10.175,6.598,19.098,13.967,25.353h50.545c7.248-6.241,12.287-15.288,13.745-25.353     H3.952z M6.38,47.337h5.746c-1.265,12.999,6.311,21.381,6.311,21.381C8.735,61.184,6.38,47.337,6.38,47.337z M68.42,68.719     c0,0,7.576-8.383,6.312-21.381h5.745C80.477,47.337,78.122,61.184,68.42,68.719z"/>
		</g>
	</g>
	<g>
		<g>
			<path fill="#000000" d="M68.464,71.873H17.919c-3.685,3.128-6.056,6.928-7.69,11.219h65.767     C74.401,78.843,72.085,74.99,68.464,71.873z M14.544,82.094h-1.837c1.171-4.394,6.122-9.042,6.122-9.042     C14.967,77.148,14.544,82.094,14.544,82.094z M67.572,73.052c0,0,4.952,4.648,6.122,9.042h-1.836     C71.858,82.094,71.435,77.148,67.572,73.052z"/>
		</g>
	</g>
	<g>
		<g>
			<path fill="#000000" d="M82.392,40.054H3.788c-1.353,0-2.466,1.097-2.466,2.449c0,1.352,1.891,2.449,2.245,2.449h79.042     c0.353,0,2.232-1.097,2.232-2.449C84.841,41.15,83.744,40.054,82.392,40.054z"/>
		</g>
	</g>
	<g>
		<g>
			<path fill="#000000" d="M93.193,13.617c-1.825,0-3.445,0.879-4.458,2.238l-8.259,12.738l-4.615,4.522l6.348,5.274l3.26-5.086     l11.312-9.887c1.206-1.019,1.97-2.542,1.97-4.242C98.75,16.105,96.262,13.617,93.193,13.617z"/>
		</g>
	</g>
	<polygon fill="#000000" points="75.249,33.633 68.892,39.284 81.811,39.279 81.811,39.279  "/>
</g>
</svg>