<svg xmlns:dc="http://purl.org/dc/elements/1.1/" xmlns:cc="http://creativecommons.org/ns#" xmlns:rdf="http://www.w3.org/1999/02/22-rdf-syntax-ns#" xmlns:svg="http://www.w3.org/2000/svg" xmlns="http://www.w3.org/2000/svg" xmlns:sodipodi="http://sodipodi.sourceforge.net/DTD/sodipodi-0.dtd" xmlns:inkscape="http://www.inkscape.org/namespaces/inkscape" width="100" height="100" id="svg3786" version="1.1" inkscape:version="0.48.2 r9819" sodipodi:docname="second-thought.svg">
  <defs id="defs3788"/>
  <sodipodi:namedview id="base" pagecolor="#ffffff" bordercolor="#666666" borderopacity="1.0" inkscape:pageopacity="0.0" inkscape:pageshadow="2" inkscape:zoom="2.7454379" inkscape:cx="66.706284" inkscape:cy="51.620362" inkscape:document-units="px" inkscape:current-layer="layer1" showgrid="false" inkscape:window-width="1440" inkscape:window-height="874" inkscape:window-x="-8" inkscape:window-y="-8" inkscape:window-maximized="1"/>
  <metadata id="metadata3791">
    <rdf:RDF>
      <cc:Work rdf:about="">
        <dc:format>image/svg+xml</dc:format>
        <dc:type rdf:resource="http://purl.org/dc/dcmitype/StillImage"/>
        <dc:title/>
      </cc:Work>
    </rdf:RDF>
  </metadata>
  <g inkscape:label="Layer 1" inkscape:groupmode="layer" id="layer1" transform="translate(0,-952.36218)">
    <g transform="matrix(0.88756011,0,0,0.96712286,27.865109,980.52345)" id="g3003" style="fill:#000000;fill-opacity:1;stroke:none">
      <path style="fill:#000000;fill-opacity:1;fill-rule:evenodd;stroke:none" inkscape:connector-curvature="0" clip-rule="evenodd" d="m 28.127,4.943 c 0.506,0 1.015,0 1.52,0 4.026,0.508 6.542,2.199 7.688,4.966 6.712,-0.369 11.592,4.863 8.618,9.998 0.989,1.079 1.814,2.286 2.112,3.906 0,0.464 0,0.927 0,1.391 -0.888,4.123 -4.709,6.909 -10.982,6.159 -1.614,2.117 -4.486,4.237 -8.955,3.973 -2.31,-0.139 -3.917,-0.944 -5.324,-1.922 -1.482,0.813 -3.087,1.451 -5.406,1.458 -5.365,0.012 -8.954,-3.12 -9.041,-7.416 -3.449,-1.005 -5.785,-2.881 -6.421,-6.091 0,-0.464 0,-0.929 0,-1.391 0.702,-3.181 2.911,-5.179 6.589,-6.026 -0.221,-5.366 7.136,-8.719 13.18,-6.355 1.439,-1.169 3.475,-2.444 6.422,-2.65 z" id="path3005"/>
    </g>
    <circle transform="matrix(0.93718869,0,0,0.96712286,27.053619,979.93284)" style="fill:#000000;fill-opacity:1;fill-rule:nonzero;stroke:none" sodipodi:ry="1.857" sodipodi:rx="1.857" sodipodi:cy="37.334999" sodipodi:cx="10.343" clip-rule="evenodd" cx="10.343" cy="37.334999" r="1.857" id="circle3007" d="m 12.2,37.334999 c 0,1.025593 -0.831407,1.857 -1.857,1.857 -1.0255924,0 -1.8569996,-0.831407 -1.8569996,-1.857 0,-1.025593 0.8314072,-1.857 1.8569996,-1.857 1.025593,0 1.857,0.831407 1.857,1.857 z"/>
    <circle transform="matrix(0.93718869,0,0,0.96712286,27.053619,979.93284)" style="fill:#000000;fill-opacity:1;fill-rule:nonzero;stroke:none" sodipodi:ry="1.3200001" sodipodi:rx="1.3200001" sodipodi:cy="41.109001" sodipodi:cx="6.7589998" clip-rule="evenodd" cx="6.7589998" cy="41.109001" r="1.3200001" id="circle3009" d="m 8.0789999,41.109001 c 0,0.729016 -0.5909842,1.32 -1.3200001,1.32 -0.7290159,0 -1.32,-0.590984 -1.32,-1.32 0,-0.729016 0.5909841,-1.32 1.32,-1.32 0.7290159,0 1.3200001,0.590984 1.3200001,1.32 z"/>
    <circle transform="matrix(0.93718869,0,0,0.96712286,27.053619,979.93284)" style="fill:#000000;fill-opacity:1;fill-rule:nonzero;stroke:none" sodipodi:ry="0.949" sodipodi:rx="0.949" sodipodi:cy="44.230999" sodipodi:cx="3.6819999" clip-rule="evenodd" cx="3.6819999" cy="44.230999" r="0.949" id="circle3011" d="m 4.6309999,44.230999 c 0,0.524118 -0.4248818,0.949 -0.949,0.949 -0.5241182,0 -0.949,-0.424882 -0.949,-0.949 0,-0.524118 0.4248818,-0.949 0.949,-0.949 0.5241182,0 0.949,0.424882 0.949,0.949 z"/>
    <path style="fill:#000000;fill-opacity:1;stroke:none" inkscape:connector-curvature="0" d="m 50.395469,966.24652 c 6.271,0 12.43856,1.64562 17.83855,4.7582 l 0.92743,0.53483 3.20191,-5.55751 -0.92508,-0.53483 c -6.36973,-3.67444 -13.64574,-5.61627 -21.04164,-5.61627 -23.24442,0 -42.1573198,18.91526 -42.1749598,42.17606 h -6.99272 l 10.5143598,17.1098 10.33686,-17.1098 h -7.44409 c -10e-4,-19.71919 16.04129,-35.76048 35.75938,-35.76048 z" id="path6163"/>
    <path style="fill:#000000;fill-opacity:1;stroke:none" inkscape:connector-curvature="0" d="m 99.424449,1002.6829 -10.51435,-17.10854 -10.33687,17.10854 h 7.56634 c -0.36321,19.4066 -16.2517,35.0835 -35.7441,35.0835 -6.24396,0 -12.39154,-1.6315 -17.77508,-4.7229 l -0.9286,-0.5325 -3.19251,5.5634 0.92743,0.5325 c 6.35328,3.6485 13.60342,5.5739 20.96876,5.5739 11.25253,0 21.83976,-4.3938 29.80928,-12.3739 7.72973,-7.7379 12.0918,-17.9384 12.35275,-28.8242 l 0.002,-0.301 h 6.8646 z" id="path6165"/>
  </g>
</svg>