<svg xmlns="http://www.w3.org/2000/svg" xmlns:xlink="http://www.w3.org/1999/xlink" version="1.1" id="Layer_1" x="0px" y="0px" width="100px" height="100px" viewBox="0 0 100 100" enable-background="new 0 0 100 100" xml:space="preserve">
<g>
	<path fill="#000000" d="M52,30.484V26h-4v4.55c-1,0.088-3.217,0.45-4.817,1.087c-1.602,0.638-2.897,1.494-4.103,2.57   c-1.207,1.076-2.117,2.383-2.841,3.92c-0.724,1.538-1.06,3.272-1.06,5.205c0,2.065,0.386,3.822,1.133,5.271   c0.745,1.449,1.728,2.692,2.935,3.723c1.205,1.032,2.396,1.89,3.998,2.57C44.846,55.579,47,56.161,48,56.644v16.737   c0,0-1.419-0.12-2.317-0.362c-0.899-0.24-1.679-0.592-2.556-1.053c-0.879-0.46-1.68-1.02-2.513-1.678   c-0.834-0.657-1.51-1.403-2.079-2.236l-4.789,4.079c1.843,2.002,3.805,3.557,6.305,4.661c2.5,1.104,4.949,1.7,7.949,1.786V83h4   v-4.422c2-0.044,3.489-0.361,5.156-0.954c1.667-0.592,3.072-1.457,4.322-2.599c1.25-1.14,2.21-2.521,2.934-4.145   c0.724-1.622,1.073-3.465,1.073-5.526c0-2.149-0.401-3.991-1.191-5.527c-0.789-1.534-1.836-2.839-3.129-3.914   c-1.294-1.074-2.657-1.963-4.303-2.665C55.218,52.547,53,51.911,52,51.34V35.682c1,0.044,2.975,0.395,4.531,1.053   c1.557,0.658,2.787,1.623,3.797,2.895l4.446-4.145c-1.668-1.667-3.58-2.905-5.927-3.717C56.501,30.957,54,30.529,52,30.484z    M48,50.354c-2-0.614-3.489-1.48-4.771-2.599c-1.281-1.119-1.813-2.73-1.813-4.836c0-2.192,0.511-3.915,1.857-5.165   S47,35.813,48,35.682V50.354z M57.156,60.432c1.403,1.234,2.053,2.907,2.053,5.021c0,1.321-0.235,2.467-0.652,3.436   s-0.978,1.772-1.657,2.411c-0.681,0.639-1.359,1.134-2.236,1.486C53.785,73.139,53,73.338,52,73.381V57.524   C54,58.23,55.752,59.198,57.156,60.432z"/>
	<path fill="#000000" d="M88,26L62,0v0.002L61.998,0H12v100h76V26.001L87.998,26H88z M83,95H17V5h45v21h21V95z"/>
</g>
</svg>