<svg xmlns="http://www.w3.org/2000/svg" xmlns:xlink="http://www.w3.org/1999/xlink" version="1.1" id="Layer_1" x="0px" y="0px" width="47.7707006369px" height="100px" viewBox="0 0 75 157.75" enable-background="new 0 0 75 157.75" xml:space="preserve">
<path fill="#000000" d="M37.5,18.75L56.25,37.5V25c3.441,0,6.25,2.809,6.25,6.25v95.25c0,3.441-2.809,6.25-6.25,6.25H50v12.5h6.25  c10.34,0,18.75-8.41,18.75-18.75V31.25c0-10.34-8.41-18.75-18.75-18.75V0L37.5,18.75z"/>
<path fill="#000000" d="M0,31.25v95.25c0,10.34,8.41,18.75,18.75,18.75h0.195v12.5L37.5,139l-18.555-18.75v12.5H18.75  c-3.441,0-6.25-2.809-6.25-6.25V31.25c0-3.441,2.809-6.25,6.25-6.25H25V12.5h-6.25C8.41,12.5,0,20.91,0,31.25z"/>
</svg>