<svg xmlns="http://www.w3.org/2000/svg" xmlns:xlink="http://www.w3.org/1999/xlink" version="1.1" id="Layer_1" x="0px" y="0px" width="100px" height="100px" viewBox="0 0 100 100" enable-background="new 0 0 100 100" xml:space="preserve">
<g>
	<path fill="#000000" d="M94.553,81.774l-11.437-5.192c-1.526-0.879-2.658-2.361-3.05-4.131l-0.013-0.006L74.908,36.73L60.792,5.895   c-1.084-2.528-4.013-3.699-6.542-2.617c-2.528,1.084-3.701,4.013-2.616,6.542l8.401,21.218c1.691,1.258,2.795,3.372,3.25,5.936   c0.739,4.165,2.854,16.832,2.854,16.832l-2.215,0.002c0,0-2.347-13.664-2.853-16.832c-0.252-1.578-0.8-2.812-1.619-3.657   c-0.89-0.822-2.068-1.329-3.367-1.321c-2.751,0.002-4.979,2.234-4.978,4.986L51.06,53.236v17.179   c0.017,0.125,0.032,0.25,0.059,0.37c0.574,4.775,3.562,8.939,7.858,11.03l-0.015,0.022l26.074,15.529   c0.944,0.576,1.952,0.961,2.978,1.165c3.649,0.726,7.525-0.841,9.578-4.202C100.219,90.024,98.859,84.402,94.553,81.774z"/>
</g>
<g>
	<path fill="#000000" d="M5.35,81.81l11.437-5.193c1.526-0.879,2.659-2.36,3.049-4.131l0.013-0.005l5.146-35.715L39.111,5.929   c1.084-2.528,4.013-3.699,6.542-2.616c2.529,1.084,3.701,4.013,2.617,6.542l-8.401,21.219c-1.691,1.258-2.795,3.373-3.251,5.936   c-0.739,4.165-2.854,16.832-2.854,16.832l2.215,0.001c0,0,2.347-13.664,2.853-16.832c0.252-1.579,0.799-2.812,1.619-3.657   c0.889-0.822,2.068-1.33,3.367-1.321c2.752,0.002,4.98,2.234,4.979,4.985l0.047,16.253v17.18c-0.017,0.124-0.033,0.249-0.058,0.37   c-0.575,4.775-3.563,8.939-7.86,11.03l0.015,0.021l-26.074,15.53c-0.944,0.575-1.952,0.96-2.977,1.164   c-3.65,0.726-7.526-0.841-9.579-4.202C-0.316,90.059,1.044,84.438,5.35,81.81z"/>
</g>
</svg>