<svg xmlns="http://www.w3.org/2000/svg" xmlns:xlink="http://www.w3.org/1999/xlink" version="1.1" id="Layer_1" x="0px" y="0px" width="100px" height="100px" viewBox="0 0 100 100" enable-background="new 0 0 100 100" xml:space="preserve">
<polygon points="50.946,44.951 64.615,38.28 65.194,39.908 53.201,47.555 "/>
<path d="M20.135,75.997l6.28-21.181l2.676,0.977c0,0,2.476-10.13,13.353-17.643l-1.449-2.129l2.434-1.853l2.044,2.872l1.356-0.941  l-2.035-2.926l1.324-1.016l2.207,3.121l1.355-0.941l-2.238-3.195l1.354-1.047l2.289,3.293l1.355-0.941l-2.32-3.337l1.323-0.985  l2.314,3.246l1.355-0.942l-2.314-3.351L77.684,8.045l1.222,1.824l3.128-0.984l0.351,0.553L93.875,1.5l3.775,5.434l-11.48,7.954  l0.453,0.604l-2.054,2.382l1.257,1.719l-13.319,8.551l-1.981,5.411l-23.32,11.567l-1.518-2.157c0,0-6.558,3.171-11.237,14.746  l2.463,0.924l-8.651,20.288L20.135,75.997z"/>
<polygon points="12.034,66.578 19.25,75 18.688,77.188 22.375,78.562 22.002,83.961 25.125,79.562 28.938,80.812 31.25,75.625   43.444,67.849 43.254,75.463 73.208,68.355 58.738,78.255 96.559,79.016 64.134,84.347 99.541,92.406 48.838,90.185 46.808,97.292   39.446,91.2 30.88,97.989 27.517,93.104 14.826,98.815 15.396,93.04 1.69,98.435 12.795,84.347 0.04,81.11 10.891,75.906 "/>
</svg>