<svg xmlns="http://www.w3.org/2000/svg" xmlns:xlink="http://www.w3.org/1999/xlink" version="1.1" id="Layer_1" x="0px" y="0px" width="100px" height="100px" viewBox="0 0 100 100" enable-background="new 0 0 100 100" xml:space="preserve">
<polygon points="83.621,62.538 35.533,61.113 35.481,63.304 83.485,64.521 "/>
<polygon points="33.505,61.075 33.505,63.322 23.943,64.006 23.943,62.538 "/>
<g>
	<g>
		<path d="M23.947,20.078v7.264l0.052,1.429c1.623,1.371,2.775,5.346,2.738,10.021c-0.035,4.389-1.306,8.481-2.794,10.043    l0.004,1.953v10.287l9.558-1.761V12.563C33.505,12.563,23.694,17.313,23.947,20.078z"/>
	</g>
</g>
<path d="M19.554,38.737c-0.036,4.46,1.334,8.084,3.057,8.101c1.724,0.012,3.152-3.592,3.188-8.052  c0.034-4.456-1.334-8.085-3.058-8.096C21.016,30.68,19.589,34.278,19.554,38.737z"/>
<path d="M96.133,95.967V70.63c0,0,0.499-4.209-3.521-4.524L24.7,65.101c0,0-6.791-1.26-7.043,4.777v26.089H96.133z"/>
<path d="M16.217,95.967V69.965c0,0,0.185-3.438-2.972-3.344c0,0-8.32-0.002-10.03,6.975v22.371H16.217z"/>
<path d="M78.775,12.285l-37.224-1.763c0,0-5.783-0.754-6.287,4.527v41.498v2.768l48.29,1.01V17.815  C83.555,17.815,83.555,12.786,78.775,12.285z M49.68,37.806c-2.648,0-4.795-2.148-4.795-4.798c0-2.647,2.147-4.793,4.795-4.793  c2.649,0,4.795,2.146,4.795,4.793C54.476,35.658,52.329,37.806,49.68,37.806z M71.869,37.806c-2.648,0-4.796-2.148-4.796-4.798  c0-2.647,2.147-4.793,4.796-4.793c2.649,0,4.797,2.146,4.797,4.793C76.666,35.658,74.519,37.806,71.869,37.806z"/>
</svg>