<svg xmlns="http://www.w3.org/2000/svg" xmlns:xlink="http://www.w3.org/1999/xlink" version="1.1" id="Layer_1" x="0px" y="0px" width="100px" height="100px" viewBox="0 0 100 100" enable-background="new 0 0 100 100" xml:space="preserve">
<polygon fill="#000000" points="31.003,22.142 31.003,26.001 45.221,26.001 45.221,83.48 49.283,83.48 49.283,26.001 63.906,26.001   63.906,22.142 49.283,22.142 49.283,17.268 45.221,17.268 45.221,22.142 "/>
<polygon fill="#000000" points="11.574,38.662 11.574,42.521 25.791,42.521 25.791,100 29.853,100 29.853,42.521 44.476,42.521   44.476,38.662 29.853,38.662 29.853,33.787 25.791,33.787 25.791,38.662 "/>
<g>
	<path fill="#000000" d="M42.422,39.753l-0.091-0.491l4.062-0.754c0.069-0.009,5.266-0.633,8.418-3.215   c4.065-3.33,7.409-11.138,7.442-11.216l0.461,0.195c-0.139,0.325-3.427,8-7.587,11.408c-3.268,2.676-8.442,3.297-8.661,3.323   L42.422,39.753z"/>
</g>
<g>
	<path fill="#000000" d="M32.675,40.362l-0.095-0.491l4.062-0.784c0.07-0.009,5.265-0.659,8.416-3.343   c4.065-3.463,7.412-11.584,7.445-11.666l0.463,0.189c-0.138,0.338-3.425,8.315-7.584,11.858c-3.268,2.782-8.444,3.43-8.663,3.456   L32.675,40.362z"/>
</g>
<g>
	<path fill="#000000" d="M20.284,39.855l-0.09-0.492l4.062-0.739c0.069-0.008,5.266-0.622,8.418-3.152   c4.065-3.264,7.409-10.916,7.442-10.992l0.459,0.198c-0.138,0.319-3.427,7.842-7.588,11.184c-3.267,2.622-8.44,3.232-8.659,3.257   L20.284,39.855z"/>
</g>
<g>
	<path fill="#000000" d="M11.957,40.058l-0.091-0.492l4.062-0.749c0.069-0.008,5.266-0.631,8.418-3.194   c4.064-3.307,7.409-11.064,7.442-11.142l0.46,0.196C32.11,25,28.822,32.625,24.662,36.011c-3.267,2.657-8.441,3.276-8.66,3.301   L11.957,40.058z"/>
</g>
<polygon fill="#000000" points="51.313,6.707 51.313,10.565 65.531,10.565 65.531,68.043 69.593,68.043 69.593,10.565   84.216,10.565 84.216,6.707 69.593,6.707 69.593,1.832 65.531,1.832 65.531,6.707 "/>
<g>
	<path fill="#000000" d="M62.733,24.317l-0.092-0.491l4.062-0.755c0.069-0.009,5.267-0.633,8.419-3.215   c4.065-3.331,7.408-11.138,7.441-11.216l0.461,0.195c-0.139,0.325-3.426,8-7.586,11.408c-3.268,2.676-8.442,3.297-8.661,3.322   L62.733,24.317z"/>
</g>
<g>
	<path fill="#000000" d="M52.985,24.926l-0.095-0.491l4.062-0.784c0.069-0.009,5.265-0.659,8.416-3.342   c4.065-3.463,7.411-11.584,7.444-11.666l0.463,0.188c-0.138,0.338-3.424,8.314-7.583,11.858c-3.268,2.783-8.445,3.429-8.664,3.455   L52.985,24.926z"/>
</g>
<g>
	<path fill="#000000" d="M40.594,24.419l-0.09-0.492l4.062-0.74c0.069-0.008,5.266-0.621,8.419-3.151   c4.064-3.265,7.409-10.916,7.442-10.993l0.459,0.199c-0.138,0.318-3.428,7.841-7.589,11.183c-3.267,2.622-8.44,3.231-8.659,3.256   L40.594,24.419z"/>
</g>
<g>
	<path fill="#000000" d="M32.268,24.623l-0.091-0.492l4.062-0.749c0.069-0.008,5.266-0.63,8.417-3.194   c4.065-3.308,7.409-11.063,7.443-11.142l0.459,0.196c-0.138,0.323-3.426,7.948-7.587,11.333c-3.267,2.658-8.44,3.276-8.659,3.301   L32.268,24.623z"/>
</g>
</svg>