<svg xmlns="http://www.w3.org/2000/svg" xmlns:xlink="http://www.w3.org/1999/xlink" version="1.1" id="Layer_1" x="0px" y="0px" width="100px" height="78.4172661871px" viewBox="0 0 139.333 109.333" enable-background="new 0 0 139.333 109.333" xml:space="preserve">
<g id="color">
</g>
<g id="guides">
</g>
<g id="icons">
</g>
<g id="Layer_5">
</g>
<g id="header_x5F_footer">
</g>
<path d="M63.674,43.48c-0.492-0.178-0.79-0.963-0.663-1.744l0.157-0.967c0.127-0.781-0.405-1.545-1.182-1.697l-39.388-7.697  c-0.777-0.152-1.512,0.364-1.633,1.146l-0.577,3.729c-0.121,0.782,0.417,1.544,1.194,1.692l42.451,8.077  c0.778,0.148,1.217-0.29,0.975-0.973C64.765,44.363,64.165,43.658,63.674,43.48z"/>
<path d="M25.582,23.055c-0.775-0.162-1.511,0.344-1.635,1.126l-0.602,3.786c-0.124,0.782,0.411,1.545,1.188,1.696l41.247,8.012  c0.777,0.151,1.917-0.133,2.533-0.631l1.065-0.862c0.616-0.498,0.672-1.374,0.125-1.946l-1.338-1.4  c-0.547-0.572-1.629-1.175-2.404-1.337L25.582,23.055z"/>
<path d="M28.808,14.752c-0.775-0.163-1.521,0.343-1.657,1.123l-0.655,3.752c-0.136,0.78,0.387,1.552,1.162,1.715l38.149,8.01  c0.775,0.163,1.006-0.211,0.513-0.831l-1.355-1.702c-0.493-0.62-0.308-1.398,0.411-1.729l2.643-1.219  c0.719-0.331,0.673-0.735-0.102-0.898L28.808,14.752z"/>
<path d="M72.938,44.274c0.658,0.01,1.407,0.135,1.664,0.277c0.257,0.142,1.174,1.28,1.951,1.128l41.199-8.1  c0.777-0.152,1.283-0.912,1.123-1.688l-0.764-3.718c-0.16-0.775-0.924-1.278-1.699-1.117l-44.476,9.245  c-0.774,0.161-1.206,0.908-0.957,1.66l0.308,0.927C71.538,43.642,72.28,44.265,72.938,44.274z"/>
<path d="M75.182,33.531c0.706,0.359,0.931,1.198,0.501,1.863l-0.713,1.104c-0.431,0.665-0.147,1.077,0.628,0.916l39.874-8.291  c0.774-0.161,1.276-0.928,1.114-1.702l-0.73-3.498c-0.162-0.774-0.93-1.277-1.704-1.116l-40.517,8.421  c-0.775,0.161-1.428,0.396-1.452,0.522c-0.022,0.125,0.536,0.523,1.241,0.883L75.182,33.531z"/>
<path d="M69.947,28.718c0.687,0.394,1.884,0.585,2.66,0.425l40.19-8.277c0.777-0.16,1.279-0.926,1.117-1.701l-0.729-3.512  c-0.161-0.775-0.925-1.269-1.698-1.095L71.143,23.61c-0.773,0.174-1.835,0.8-2.361,1.393l-0.837,0.943  c-0.525,0.593-0.393,1.399,0.294,1.793L69.947,28.718z"/>
<path d="M33.388,45.153c-1.98,0-3.6,1.62-3.6,3.6v40.738c0,1.979,1.62,3.6,3.6,3.6h18.145c1.98,0,3.6-1.619,3.6-3.6V48.753  c0-1.979-1.62-3.6-3.6-3.6H33.388z M49.794,84.922c0,1.979-1.62,3.601-3.6,3.601h-7.466c-1.98,0-3.6-1.62-3.6-3.601V74.459  c0-1.979,1.62-3.6,3.6-3.6h7.466c1.98,0,3.6,1.62,3.6,3.6V84.922z M49.794,63.78c0,1.979-1.62,3.6-3.6,3.6h-7.466  c-1.98,0-3.6-1.619-3.6-3.6V53.321c0-1.979,1.62-3.6,3.6-3.6h7.466c1.98,0,3.6,1.62,3.6,3.6V63.78z"/>
<path d="M87.799,45.153c-1.98,0-3.6,1.62-3.6,3.6v40.738c0,1.979,1.619,3.6,3.6,3.6h18.146c1.979,0,3.601-1.619,3.601-3.6V48.753  c0-1.979-1.621-3.6-3.601-3.6H87.799z M104.206,84.922c0,1.979-1.619,3.601-3.6,3.601h-7.467c-1.98,0-3.6-1.62-3.6-3.601V74.459  c0-1.979,1.619-3.6,3.6-3.6h7.467c1.98,0,3.6,1.62,3.6,3.6V84.922z M104.206,63.78c0,1.979-1.619,3.6-3.6,3.6h-7.467  c-1.98,0-3.6-1.619-3.6-3.6V53.321c0-1.979,1.619-3.6,3.6-3.6h7.467c1.98,0,3.6,1.62,3.6,3.6V63.78z"/>
</svg>