<svg xmlns="http://www.w3.org/2000/svg" xmlns:xlink="http://www.w3.org/1999/xlink" version="1.1" id="Layer_1" x="0px" y="0px" width="100.0px" height="100px" viewBox="0 0 400 400" enable-background="new 0 0 400 400" xml:space="preserve">
<path d="M398.59,237.048c-23.512,0-62.648-70.479-62.648-70.479c-42.954,19.55-79.93,30.068-111.404,34.69l-2.719-75.297  l52.016-7.852c-58.627,6.694-93.011-98.826-93.011-98.826c-13.225,83.313-75.38,100.946-75.38,100.946l48.049,5.29v76.302  c-54.009-8.271-77.583-35.264-77.583-35.264C56.513,208.037,1.41,237.048,1.41,237.048c29.531,3.526,42.171,0,42.171,0v143.668  h311.653l-6.02-143.668H398.59z M201.529,127.877c13.002,3.32,9.477,60.412,9.477,60.412H192.05  C192.05,188.289,188.522,124.557,201.529,127.877z M178.839,127.877c13.004,3.32,9.479,60.412,9.479,60.412h-18.955  C169.362,188.289,165.835,124.557,178.839,127.877z M83.885,192.442c20.767,7.936,18.56,42.759,18.56,42.759H65.323  C65.323,235.201,63.118,184.508,83.885,192.442z M124.413,378.026H79.436c0,0-11.241-95.217,22.488-93.012  C135.653,287.219,124.413,378.026,124.413,378.026z M299.119,327.992h-35.533c0,0-4.297-46.945,17.768-46.877  C303.418,281.185,299.119,327.992,299.119,327.992z M339.676,327.992h-35.535c0,0-4.299-46.945,17.768-46.877  C343.975,281.185,339.676,327.992,339.676,327.992z"/>
</svg>