<svg xmlns="http://www.w3.org/2000/svg" xmlns:xlink="http://www.w3.org/1999/xlink" version="1.1" id="Ebene_1" x="0px" y="0px" width="43.333px" height="43.333px" viewBox="0 0 43.333 43.333" enable-background="new 0 0 43.333 43.333" xml:space="preserve">
<path d="M31.523,18.762c-0.477,0-0.941,0.049-1.391,0.14l-0.688-2.297c-0.077-0.26-0.316-0.416-0.588-0.416H14.769l1.56-4.295h3.228  v-1.228h-4.088l-3.039,8.347c-0.565-0.149-1.159-0.24-1.771-0.24c-3.852,0-6.986,3.127-6.986,6.98s3.134,6.983,6.986,6.983  c3.853,0,6.986-3.136,6.986-6.988c0-2.808-1.667-5.232-4.061-6.342l0.589-1.624l6.555,8.206c0.115,0.144,0.289,0.205,0.474,0.207  l3.352,0.022c0.243,3.633,3.275,6.516,6.969,6.516c3.852,0,6.985-3.134,6.985-6.986S35.375,18.762,31.523,18.762z M16.418,25.749  c0,3.175-2.583,5.758-5.759,5.758S4.9,28.923,4.9,25.749s2.583-5.759,5.759-5.759c0.465,0,0.915,0.062,1.348,0.166l-2.125,5.855  l1.154,0.418l2.127-5.859C15.086,21.503,16.418,23.471,16.418,25.749z M29.306,20.435l1.392,4.69l-4.89-0.056  C26.055,22.975,27.428,21.22,29.306,20.435z M21.507,25.043l-6.104-7.626h12.995l0.558,1.859c-2.38,0.944-4.123,3.158-4.384,5.803  L21.507,25.043z M31.523,31.506c-3.014,0-5.489-2.304-5.734-5.255l5.727,0.063h0.007c0.193,0,0.374-0.067,0.49-0.221  c0.117-0.155,0.153-0.321,0.099-0.509l-1.627-5.491c0.337-0.062,0.684-0.102,1.039-0.102c3.175,0,5.758,2.582,5.758,5.757  C37.281,28.925,34.698,31.506,31.523,31.506z M32.427,13.622l-0.851-0.884c-2.632,2.532-5.806,1.212-5.939,1.154l-0.489,1.126  c0.085,0.037,1.17,0.497,2.647,0.497C29.166,15.515,30.871,15.119,32.427,13.622z"/>
</svg>