<svg xmlns:dc="http://purl.org/dc/elements/1.1/" xmlns:cc="http://creativecommons.org/ns#" xmlns:rdf="http://www.w3.org/1999/02/22-rdf-syntax-ns#" xmlns:svg="http://www.w3.org/2000/svg" xmlns="http://www.w3.org/2000/svg" xmlns:sodipodi="http://sodipodi.sourceforge.net/DTD/sodipodi-0.dtd" xmlns:inkscape="http://www.inkscape.org/namespaces/inkscape" version="1.0" width="59.795219" height="100" id="svg2" sodipodi:version="0.32" inkscape:version="0.46" sodipodi:docname="Infusionsflasche_3D.svg" inkscape:output_extension="org.inkscape.output.svg.inkscape">
  <metadata id="metadata7">
    <rdf:RDF>
      <cc:Work rdf:about="">
        <dc:format>image/svg+xml</dc:format>
        <dc:type rdf:resource="http://purl.org/dc/dcmitype/StillImage"/>
      </cc:Work>
    </rdf:RDF>
  </metadata>
  <sodipodi:namedview inkscape:window-height="749" inkscape:window-width="1228" inkscape:pageshadow="2" inkscape:pageopacity="0.0" guidetolerance="10.0" gridtolerance="10.0" objecttolerance="10.0" borderopacity="1.0" bordercolor="#666666" pagecolor="#ffffff" id="base" showgrid="false" inkscape:zoom="4.62" inkscape:cx="50" inkscape:cy="58.658009" inkscape:window-x="-4" inkscape:window-y="-4" inkscape:current-layer="svg2"/>
  <defs id="defs4">
    <inkscape:perspective sodipodi:type="inkscape:persp3d" inkscape:vp_x="0 : 50 : 1" inkscape:vp_y="0 : 1000 : 0" inkscape:vp_z="100 : 50 : 1" inkscape:persp3d-origin="50 : 33.333333 : 1" id="perspective9"/>
  </defs>
  <g id="layer1" transform="matrix(1.4948805,0,0,1.4948805,-44.846415,-24.744031)">
    <path d="M 50,16.552513 C 43.717485,16.552523 38.625001,17.493183 38.625,18.677513 C 38.624998,17.493193 38.624998,25.493183 38.625,26.677513 C 38.624999,27.072293 39.231622,27.451823 40.21875,27.771263 C 39.212137,30.097073 37.8027,32.326453 36.3125,34.583763 C 33.50365,38.838513 30.44048,43.251993 30,48.802513 L 30,48.833763 L 30,48.865013 L 30,49.677513 L 30,51.958763 L 30,62.833763 L 30,71.958763 L 30,72.302513 L 30,77.958763 L 30,78.302513 L 30.21875,78.552513 C 30.21875,78.552513 30.63905,79.001873 31.15625,79.490013 C 31.67345,79.978153 32.21356,80.528173 32.96875,80.802513 C 42.67604,84.329143 57.323961,84.329163 67.03125,80.802513 C 67.786427,80.528163 68.357798,79.978153 68.875,79.490013 C 69.392204,79.001873 69.78125,78.552513 69.78125,78.552513 L 70,78.302513 L 70,77.958763 L 70,48.865013 L 70,48.833763 L 70,48.771263 C 69.546812,43.160533 66.49301,38.807053 63.6875,34.583763 C 62.190143,32.329703 60.781075,30.109723 59.78125,27.771263 C 60.768378,27.451823 61.375,27.072293 61.375,26.677513 C 61.374998,25.493193 61.368306,17.497853 61.375,18.677513 C 61.381694,17.488533 56.282513,16.552513 50,16.552513 z M 50,17.365013 C 53.108009,17.365023 55.906101,17.581713 57.90625,17.958763 C 58.906322,18.147303 59.727235,18.396073 60.21875,18.615013 C 60.289065,18.646343 60.287085,18.647193 60.34375,18.677513 C 60.28468,18.709443 60.293142,18.738123 60.21875,18.771263 C 59.727233,18.990213 58.906325,19.207733 57.90625,19.396263 C 55.906098,19.773323 53.108011,20.021263 50,20.021263 C 46.891986,20.021273 44.062649,19.773313 42.0625,19.396263 C 41.062421,19.207743 40.272765,18.990203 39.78125,18.771263 C 39.706856,18.738133 39.684069,18.709433 39.625,18.677513 C 39.681663,18.647203 39.710934,18.646333 39.78125,18.615013 C 40.272764,18.396083 41.062424,18.147293 42.0625,17.958763 C 44.062646,17.581723 46.89199,17.365013 50,17.365013 z M 41.90625,28.177513 C 43.970139,28.576643 46.821788,28.833763 50,28.833763 C 53.174516,28.833763 56.030381,28.607083 58.09375,28.208763 C 59.16084,30.825663 60.673388,33.226193 62.21875,35.552513 C 65.024573,39.776273 67.824565,43.849063 68.25,48.865013 L 68.21875,48.865013 L 68.21875,61.615013 C 68.086321,61.763503 67.979072,61.906713 67.65625,62.208763 C 67.193901,62.641363 66.531363,63.100813 66.40625,63.146263 C 64.208441,63.944713 61.697285,64.540533 59.03125,64.958763 L 59.03125,55.990013 L 59.03125,54.990013 L 58.03125,55.115013 C 49.799794,56.247123 40.279091,55.575023 33.59375,53.146263 C 33.46863,53.100813 32.8061,52.641363 32.34375,52.208763 C 32.02093,51.906713 31.91368,51.763503 31.78125,51.615013 L 31.78125,48.927513 L 31.78125,48.865013 C 32.19453,43.916323 34.9726,39.806953 37.78125,35.552513 C 39.327533,33.210263 40.83967,30.793623 41.90625,28.177513 z M 31.78125,53.958763 C 32.14597,54.279053 32.47841,54.624383 32.96875,54.802513 C 39.784686,57.278723 49.016593,57.948883 57.28125,56.958763 L 57.28125,75.177513 C 54.911687,75.468603 52.471804,75.646273 50,75.646263 C 44.079021,75.646263 38.171363,74.809303 33.59375,73.146263 C 33.46863,73.100803 32.8061,72.641363 32.34375,72.208763 C 32.02093,71.906713 31.90221,71.747433 31.78125,71.615013 L 31.78125,53.958763 z M 68.21875,64.052513 L 68.21875,77.615013 C 68.084723,77.759063 67.975887,77.907083 67.65625,78.208763 C 67.19846,78.640833 66.5609,79.101433 66.4375,79.146263 C 57.281195,82.472733 42.75006,82.472733 33.59375,79.146263 C 33.47036,79.101433 32.83279,78.640833 32.375,78.208763 C 32.03809,77.890783 31.90673,77.719253 31.78125,77.583763 L 31.78125,74.052513 C 32.12997,74.354143 32.50175,74.632863 32.96875,74.802513 C 37.822931,76.566023 43.911977,77.427513 50,77.427513 C 52.798784,77.427523 55.598174,77.234023 58.28125,76.865013 L 59.03125,76.771263 L 59.03125,75.990013 L 59.03125,66.740013 C 61.896813,66.305653 64.62439,65.676923 67.03125,64.802513 C 67.498252,64.632863 67.870034,64.354143 68.21875,64.052513 z" id="path3642" style="fill:#000000;fill-opacity:1;fill-rule:evenodd;stroke:none;stroke-width:1.77165341;stroke-linejoin:miter;stroke-miterlimit:4;stroke-opacity:1"/>
  </g>
</svg>