<svg xmlns:dc="http://purl.org/dc/elements/1.1/" xmlns:cc="http://creativecommons.org/ns#" xmlns:rdf="http://www.w3.org/1999/02/22-rdf-syntax-ns#" xmlns:svg="http://www.w3.org/2000/svg" xmlns="http://www.w3.org/2000/svg" xmlns:sodipodi="http://sodipodi.sourceforge.net/DTD/sodipodi-0.dtd" xmlns:inkscape="http://www.inkscape.org/namespaces/inkscape" version="1.0" width="24.390251" height="100" id="svg2" sodipodi:version="0.32" inkscape:version="0.46" sodipodi:docname="Tropf_3D.svg" inkscape:output_extension="org.inkscape.output.svg.inkscape">
  <metadata id="metadata7">
    <rdf:RDF>
      <cc:Work rdf:about="">
        <dc:format>image/svg+xml</dc:format>
        <dc:type rdf:resource="http://purl.org/dc/dcmitype/StillImage"/>
      </cc:Work>
    </rdf:RDF>
  </metadata>
  <sodipodi:namedview inkscape:window-height="749" inkscape:window-width="1228" inkscape:pageshadow="2" inkscape:pageopacity="0.0" guidetolerance="10.0" gridtolerance="10.0" objecttolerance="10.0" borderopacity="1.0" bordercolor="#666666" pagecolor="#ffffff" id="base" showgrid="false" inkscape:zoom="21.439999" inkscape:cx="18.253357" inkscape:cy="89.709318" inkscape:window-x="-4" inkscape:window-y="-4" inkscape:current-layer="svg2"/>
  <defs id="defs4">
    <inkscape:perspective sodipodi:type="inkscape:persp3d" inkscape:vp_x="0 : 50 : 1" inkscape:vp_y="0 : 1000 : 0" inkscape:vp_z="100 : 50 : 1" inkscape:persp3d-origin="50 : 33.333333 : 1" id="perspective9"/>
  </defs>
  <g id="layer1" transform="matrix(1.0416667,0,0,1.0416667,-39.888207,-2.0833333)">
    <path d="M 49.999999,2 C 46.436949,2 42.871639,2.5043986 40.030489,3.5365854 C 39.588429,3.6971799 39.253959,4.0191381 38.951219,4.304878 C 38.648469,4.590618 38.420729,4.8536585 38.420729,4.8536585 L 38.292679,5 L 38.292679,5.2012195 L 38.292679,22.25 L 38.292679,22.268293 L 38.292679,22.286586 C 38.557949,25.570914 40.345549,28.119295 41.987799,30.591464 C 42.867659,31.91595 43.688779,33.222895 44.274389,34.597561 C 43.697769,34.784409 43.341459,34.988686 43.341459,35.219512 C 43.341459,35.912779 43.345379,40.592972 43.341459,39.902439 C 43.338199,40.481202 45.415689,40.965704 48.225599,41.109756 L 48.225599,40.780488 L 48.225599,40.634146 C 47.131739,40.579608 46.142569,40.468441 45.371949,40.323171 C 44.786539,40.212812 44.305999,40.067185 44.018289,39.939025 C 43.977119,39.920691 43.978289,39.920187 43.945119,39.902439 C 43.979699,39.883754 43.974739,39.86696 44.018289,39.847561 C 44.305999,39.719401 44.786529,39.592066 45.371949,39.481707 C 46.542759,39.260995 48.180669,39.115854 49.999999,39.115854 C 51.819319,39.115854 53.475519,39.260995 54.646339,39.481707 C 55.231749,39.592066 55.693989,39.719401 55.981709,39.847561 C 56.025249,39.86696 56.038589,39.883754 56.073159,39.902439 C 56.039989,39.920187 56.022869,39.920691 55.981709,39.939025 C 55.693979,40.067185 55.231749,40.212812 54.646339,40.323171 C 53.872959,40.468962 52.878449,40.579772 51.774389,40.634146 L 51.774389,40.780488 L 51.774389,41.109756 C 54.583479,40.965129 56.658539,40.478931 56.658539,39.902439 C 56.658539,40.595706 56.658539,35.912779 56.658539,35.219512 C 56.658539,34.988686 56.302219,34.784409 55.725599,34.597561 C 56.315229,33.230367 57.136529,31.917892 58.012199,30.591464 C 59.656389,28.100879 61.449479,25.535674 61.707319,22.286586 L 61.707319,22.268293 L 61.707319,22.25 L 61.707319,21.756098 L 61.707319,20.420732 L 61.707319,14.054878 L 61.707319,8.7134146 L 61.707319,8.5121952 L 61.707319,5.2012195 L 61.707319,5 L 61.579259,4.8536585 C 61.579259,4.8536585 61.333239,4.5906174 61.030489,4.304878 C 60.727729,4.0191387 60.411559,3.6971805 59.969509,3.5365854 C 57.128349,2.5043992 53.563049,2 49.999999,2 z M 49.999999,3.0609756 C 53.466619,3.0609756 56.923759,3.550791 59.603649,4.5243902 C 59.675889,4.5506304 60.049089,4.8019602 60.317069,5.054878 C 60.514289,5.2410109 60.591179,5.3414205 60.664629,5.4207317 L 60.664629,7.4878048 C 60.460499,7.3112421 60.242869,7.1480913 59.969509,7.0487805 C 57.128039,6.0164832 53.563709,5.5304878 49.999999,5.5304878 C 48.361679,5.5304878 46.723019,5.6254552 45.152439,5.8414634 L 44.713409,5.8963414 L 44.713409,6.3536586 L 44.713409,11.621951 C 44.538309,11.562116 44.330459,11.472506 44.109749,11.365854 C 43.668339,11.152549 43.132569,10.864594 42.481709,11.018293 C 41.830839,11.171987 41.404479,11.662764 40.999999,12.079268 C 40.595499,12.495772 40.188339,12.845092 40.030489,12.902439 C 39.916139,12.943982 39.607529,12.977915 39.353659,12.957317 C 39.346289,12.956719 39.342609,12.957966 39.335369,12.957317 L 39.335369,5.402439 C 39.413819,5.31812 39.477529,5.2314695 39.664629,5.054878 C 39.932599,4.8019614 40.305809,4.5506328 40.378039,4.5243902 C 43.057929,3.5507899 46.533379,3.0609756 49.999999,3.0609756 z M 49.999999,6.554878 C 53.465939,6.554878 56.924079,7.0631032 59.603649,8.0365854 C 59.676899,8.0631938 60.064719,8.3321354 60.335369,8.5853659 C 60.522729,8.7606788 60.593199,8.8381947 60.664629,8.9146341 L 60.664629,19.25 C 60.451139,19.062513 60.256539,18.860372 59.969509,18.756098 C 55.979699,17.306611 50.575639,16.914325 45.737799,17.493902 L 45.737799,6.8292682 C 47.124869,6.6588718 48.553079,6.554878 49.999999,6.554878 z M 42.719499,12.02439 C 42.908979,11.97965 43.235409,12.088416 43.670729,12.29878 C 43.969129,12.442978 44.313789,12.627189 44.713409,12.70122 L 44.713409,18.060975 L 44.713409,18.664634 L 45.298779,18.573171 C 50.117189,17.910477 55.690289,18.322188 59.603649,19.743902 C 59.676899,19.770511 60.064719,20.039452 60.335369,20.292682 C 60.522729,20.467996 60.586439,20.539764 60.664629,20.621952 L 60.664629,22.195122 C 60.663179,22.21345 60.666199,22.231711 60.664629,22.25 C 60.417399,25.138606 58.793059,27.539233 57.152439,30.024391 C 56.248989,31.392892 55.361709,32.795191 54.737799,34.323171 C 53.530009,34.09005 51.858059,33.957318 49.999999,33.957318 C 48.141939,33.957318 46.469989,34.09005 45.262189,34.323171 C 44.637699,32.788653 43.753539,31.388222 42.847559,30.024391 C 41.209229,27.558115 39.590619,25.176069 39.335369,22.25 L 39.335369,13.981707 C 39.647479,14.006186 40.017069,14.028032 40.396329,13.890244 C 40.983669,13.676871 41.358009,13.196322 41.749989,12.792683 C 42.141989,12.389044 42.530049,12.069128 42.719499,12.02439 z M 48.719499,26.859756 L 48.719499,28.615854 L 48.719499,33.70122 C 49.057149,33.688231 49.408529,33.685449 49.762189,33.682927 L 49.762189,30.353659 L 50.237799,31.085366 L 50.237799,33.682927 C 50.591469,33.685449 50.942839,33.688231 51.280479,33.70122 L 51.280479,30.957318 L 51.280479,30.792682 L 51.189029,30.664634 L 49.670729,28.323171 L 48.719499,26.859756 z M 49.762189,39.591464 C 49.405449,39.593718 49.058809,39.597938 48.719499,39.609756 L 48.719499,43.195122 C 48.029639,43.27795 47.548769,43.414138 47.548769,43.579268 C 47.548769,43.83512 47.550219,47.236546 47.548769,46.981707 C 47.547839,47.147486 48.029319,47.285277 48.719499,47.365854 L 48.719499,48.024391 C 46.975179,48.585169 45.646339,50.248745 45.646339,52.213414 L 45.646339,60.810975 C 44.548749,61.023587 43.871949,61.316989 43.871949,61.634146 C 43.871949,62.272178 43.875549,63.879416 43.871949,63.243902 C 43.870169,63.559086 44.565909,63.842404 45.646339,64.04878 L 45.646339,77.804878 C 45.646339,78.967884 47.046939,79.663865 48.719499,79.890244 L 48.719499,97.469512 L 48.719499,98 L 49.231699,98 L 50.768289,98 L 51.280479,98 L 51.280479,97.469512 L 51.280479,79.871952 C 52.920439,79.635397 54.280479,78.950916 54.280479,77.804878 L 54.280479,64.067073 C 55.405339,63.859439 56.128049,63.56529 56.128049,63.243902 C 56.128049,63.881928 56.128049,62.272178 56.128049,61.634146 C 56.128049,61.310467 55.418149,61.024641 54.280479,60.810975 L 54.280479,52.213414 C 54.280479,50.256463 53.006279,48.587391 51.280479,48.024391 L 51.280479,47.365854 C 51.970359,47.285061 52.451219,47.146837 52.451219,46.981707 C 52.451209,47.237559 52.451219,43.83512 52.451219,43.579268 C 52.451219,43.414138 51.970359,43.27795 51.280479,43.195122 L 51.280479,39.609756 C 50.944209,39.598254 50.590009,39.593653 50.237799,39.591464 L 50.237799,43.121952 C 50.155299,43.120355 50.084699,43.121952 49.999999,43.121952 C 49.915289,43.121952 49.844679,43.120355 49.762189,43.121952 L 49.762189,39.591464 z M 49.762189,47.439025 C 49.844689,47.440564 49.915289,47.439025 49.999999,47.439025 C 50.084699,47.439025 50.155299,47.44057 50.237799,47.439025 L 50.237799,47.841464 C 50.159579,47.836985 50.079179,47.823171 49.999999,47.823171 C 49.920819,47.823171 49.840579,47.837005 49.762189,47.841464 L 49.762189,47.439025 z M 49.999999,48.756098 C 50.081289,48.756098 50.157709,48.768168 50.237799,48.774391 L 50.237799,50.128048 L 49.762189,50.128048 L 49.762189,48.774391 C 49.842569,48.768133 49.918689,48.756098 49.999999,48.756098 z M 48.701219,49.030488 C 48.706499,49.028188 48.714219,49.032761 48.719499,49.030488 L 48.719499,50.640244 L 48.719499,51.170732 L 49.231699,51.170732 L 50.768289,51.170732 L 51.280479,51.170732 L 51.280479,50.640244 L 51.280479,49.030488 C 52.469819,49.555884 53.329269,50.783099 53.329269,52.213414 L 53.329269,60.646341 C 52.368679,60.525835 51.231729,60.463414 49.999999,60.463414 C 48.738139,60.463417 47.572259,60.538688 46.597559,60.664634 L 46.597559,52.213414 C 46.597559,50.790045 47.491289,49.558055 48.701219,49.030488 z M 49.999999,51.957318 C 49.591019,52.665704 48.518289,54.523491 48.518289,55.341464 C 48.518289,56.159436 49.182029,56.823172 49.999999,56.823171 C 50.817979,56.823171 51.481709,56.159435 51.481709,55.341464 C 51.481709,54.523491 50.408989,52.665704 49.999999,51.957318 z M 49.999999,62.804878 C 50.846129,62.804878 51.644899,62.837284 52.378039,62.896341 C 52.712139,62.923257 53.028299,62.950234 53.329269,62.987805 L 53.329269,68.841464 C 53.028299,68.803893 52.712139,68.776915 52.378039,68.75 C 51.644899,68.690942 50.846129,68.658536 49.999999,68.658536 C 49.153869,68.658536 48.355099,68.690942 47.621949,68.75 C 47.261729,68.779014 46.918729,68.818712 46.597559,68.859756 L 46.597559,63.006098 C 46.918729,62.965053 47.261729,62.925355 47.621949,62.896341 C 48.355099,62.837284 49.153869,62.804878 49.999999,62.804878 z M 49.762189,79.963414 C 49.921399,79.966747 50.078739,79.967954 50.237799,79.963414 L 50.237799,96.957318 L 49.762189,96.957318 L 49.762189,79.963414 z" id="path4359" style="fill:#000000;fill-opacity:1;fill-rule:evenodd;stroke:none;stroke-width:1.77165341;stroke-linejoin:miter;stroke-miterlimit:4;stroke-opacity:1" sodipodi:nodetypes="cssccccccscsscccssssssssssscccsscscccccccccccssccssccssccccsssssccssccssccsccccsccccssccsscscsccsscccccccccccccccccssccccssccccccccccccssccccssccccscccsccscccccccccccccccccccsccccsssccsccsssccscccccc"/>
  </g>
</svg>