<?xml version="1.0" encoding="utf-8"?>
<!-- Generator: Adobe Illustrator 15.1.0, SVG Export Plug-In . SVG Version: 6.00 Build 0)  -->
<!DOCTYPE svg PUBLIC "-//W3C//DTD SVG 1.1//EN" "http://www.w3.org/Graphics/SVG/1.1/DTD/svg11.dtd">
<svg version="1.1" id="Layer_1" xmlns="http://www.w3.org/2000/svg" xmlns:xlink="http://www.w3.org/1999/xlink" x="0px" y="0px"
	 width="100px" height="58px" viewBox="0 0 100 58" enable-background="new 0 0 100 58" xml:space="preserve">
<path d="M85.223,20c3.537-8.282,3.324-16.613,3.308-17.094L88.43,0.107l-2.798-0.101c0,0-0.185-0.006-0.528-0.006
	c-2.732,0-16.817,0.452-25.734,9.369C56.214,12.523,54.122,16.303,52.73,20H0v3C0,23,0,23,0,23c0,13.607,18.71,23.851,25,26.91V58
	h50v-8.09c6.29-3.059,25-13.303,25-26.91c0,0,0,0,0-0.001v-3H85.223z M63.611,13.611C69.3,7.923,77.876,6.475,82.42,6.115
	C82.152,9.455,81.287,15.024,78.562,20c-0.962,1.757-2.151,3.442-3.636,4.926c-0.379,0.378-0.771,0.735-1.173,1.077
	c-3.846,3.271-8.674,4.908-12.702,5.727l13.874-13.874l-4.242-4.243L56.84,27.455c0.097-0.477,0.197-0.957,0.318-1.452
	c0.475-1.936,1.148-3.995,2.088-6.003C60.314,17.715,61.725,15.497,63.611,13.611z M70.787,45.257l-1.784,0.791L69,52H31
	l-0.003-5.952l-1.784-0.791C23.417,42.688,9.322,34.707,6.498,26c5.461,0.001,25.101,0.002,44.494,0.002
	c-1.102,5.218-0.996,9.296-0.985,9.628l0.1,2.8l2.8,0.1c0,0,0.184,0.007,0.525,0.007c2.732,0,16.819-0.452,25.736-9.37
	c1-1,1.888-2.063,2.686-3.166c5.41,0,9.564,0,11.648-0.001C90.678,34.707,76.583,42.688,70.787,45.257z"/>
</svg>
