<svg xmlns="http://www.w3.org/2000/svg" xmlns:xlink="http://www.w3.org/1999/xlink" version="1.1" x="0px" y="0px" width="100px" height="100px" viewBox="0 0 100 100" enable-background="new 0 0 100 100" xml:space="preserve">
<g id="Layer_1" display="none">
	<path display="inline" d="M53.208,26.833c8.301-9.13,9.961-24.069,9.961-24.069h-3.97c0,0-1.628,14.524-9.636,23.682   c-1.261-1.442-2.362-3.013-3.325-4.644h4.865c0.845-1.431,1.59-2.897,2.231-4.361h-9.327c-0.806-1.839-1.458-3.652-1.989-5.356   h13.304c0.495-1.586,0.887-3.067,1.186-4.362H40.834c-0.682-2.963-0.908-4.959-0.908-4.959H35.96c0,0,1.66,14.939,9.959,24.069   c0.571,0.627,1.123,1.236,1.661,1.834c-7.296,8.099-11.62,13.674-11.62,21.402c0,7.725,4.324,13.302,11.62,21.404   c-0.538,0.598-1.09,1.206-1.661,1.833c-8.299,9.13-9.959,24.068-9.959,24.068h3.966c0,0,0.21-1.826,0.82-4.563h15.849   c-0.286-1.284-0.659-2.759-1.147-4.363H41.895c0.514-1.693,1.15-3.51,1.939-5.354h9.675c-0.623-1.459-1.343-2.928-2.166-4.363   h-5.344c1.017-1.771,2.201-3.478,3.564-5.036c8.008,9.156,9.636,23.681,9.636,23.681h3.97c0,0-1.66-14.938-9.961-24.068   c-0.57-0.627-1.122-1.235-1.661-1.835c7.297-8.1,11.622-13.677,11.622-21.402c0-7.727-4.325-13.303-11.622-21.402   C52.086,28.069,52.638,27.46,53.208,26.833z M54.82,37.472h-8.522c-1.012,1.469-1.854,2.91-2.526,4.365h13.574   c0.929,2.009,1.521,4.052,1.743,6.247h-17.06c-0.065,0.649-0.111,1.306-0.111,1.985c0,0.816,0.062,1.604,0.157,2.378h16.968   c-0.269,2.188-0.897,4.231-1.876,6.249H43.95c0.704,1.449,1.588,2.89,2.626,4.363h7.964c-1.384,1.96-3.055,3.988-4.978,6.181   c-6.086-6.939-9.637-12.177-9.637-19.171c0-6.996,3.551-12.232,9.637-19.17C51.615,33.237,53.386,35.389,54.82,37.472z"/>
</g>
<g id="Layer_2" display="none">
	<g display="inline">
		<path d="M29.438,62.382c0,0,6.197,1.921,8.561,7.894C38,70.275,36.845,62.963,29.438,62.382z M92.883,7.014    c0,0-5.263-5.475-7.925-4.195c-2.662,1.281,0.294,5.301,0.294,5.301L71.918,21.325c0,0-3.896-3.044-5.222-1.948    c-2.236,1.852-0.407,4.148-0.407,4.148L28.402,61.738c0,0-1.097,0.806,1.019,3.53l-2.586,2.915c0,0-0.496,0.702,0.207,1.198    l-4.311,4.856c0,0-0.69,1.973-0.552,2.771c0,0-19.626,19.328-19.206,19.975c0.42,0.648,19.626-19.326,19.626-19.326    s1.75,0.009,2.151-0.061c0.399-0.069,5.409-5.048,5.409-5.048s0.872,0.879,1.337,0.595c0.466-0.287,3.021-2.784,3.021-2.784    s2.095,2.007,3.439,0.849c1.345-1.156,37.889-38.212,37.889-38.212s2.56,1.721,4.27,0.296c1.71-1.427-2.064-6.026-2.064-6.026    l13.404-13.008c0,0,3.149,2.751,4.971,0.175C98.244,11.855,92.883,7.014,92.883,7.014z M23.763,77.251    c-0.122-0.904-1.019-1.129-1.019-1.129C24.938,75.188,23.763,77.251,23.763,77.251z M30.373,65.721c0,0,1.983,0.758,3.799,3.737    L30.373,65.721z M38,70.275c-1.428,1.275-3.422-0.749-3.422-0.749c-1.35-3.061-4.24-4.313-4.24-4.313    c-2.281-2.489-1.267-3.179-1.267-3.179l12.298-12.268c0,0,0.514,2.554,3.187,5.764c2.904,2.519,5.495,2.828,5.495,2.828    S39.427,69.002,38,70.275z M50.851,56.437c-1.908-4.509-7.424-7.265-7.424-7.265C49.42,50.508,50.851,56.437,50.851,56.437z     M52.213,55.379c-2.734-6.322-7.71-7.73-7.71-7.73C50.544,48.668,52.213,55.379,52.213,55.379z M54.182,54.451    c-0.447-0.694-4.479-6.772-9.413-8.565l0.461-0.42c5.211,1.838,9.417,8.509,9.417,8.509L54.182,54.451z M88.378,6.348l1.036,3.631    L75.361,24.023c-1.342-1.96-2.808-2.345-2.808-2.345L88.378,6.348z M79.558,32.46c-1.526,1.292-2.867,0.082-2.867,0.082    s2.841-2.032-2.74-7.556s-7.146-2.064-7.146-2.064s-1.345-1.827,0.317-2.936c1.663-1.109,7.511,4.78,7.511,4.78    S81.085,31.169,79.558,32.46z M77.627,26.618c0,0-0.467-1.178-1.723-2.037l13.979-14.067l3.274,1.084L77.627,26.618z"/>
	</g>
</g>
<g id="Layer_3" display="none">
	<path display="inline" d="M24.342,31.218c0,0-0.541-1.895-2.436-2.976c-1.894-1.082-1.622-1.758-2.435-1.758   s-2.706,0.134-2.977,0.946s-0.271,1.623-0.676,2.3c-0.406,0.675-0.677,2.84-0.542,3.517c0.136,0.677,0.677,1.217,0.406,1.624   c-0.27,0.405-2.3,2.842-2.977,3.923c-0.676,1.083-4.464,5.817-5.141,6.9c-0.676,1.083-1.623,1.489-1.353,2.3   c0.271,0.811,1.623,0.54,2.3,0.676c0.676,0.135,2.705,0.678,4.059,0.678c1.353,0,2.164-0.271,2.57-0.137   c0,0-0.406,0.948,0.542,0.948s2.841-0.677,3.653-0.407c0.811,0.271,5.141,1.084,6.899,0.541c0,0,2.029,1.488,2.3,2.572   c0.271,1.081,0.812,2.84,1.894,4.058c1.083,1.218,3.652,4.06,5.411,4.871c0,0-8.928,0-9.605-0.271   c-0.676-0.272-2.299-1.219-3.111-0.541c-0.812,0.675-1.759,0.945-2.299,0.945s-2.03,0.543-2.301,0.947c0,0,1.894-0.541,2.165,0.135   c0,0-1.624,1.354-1.758,2.031c0,0,1.487-0.812,2.029-0.678C21.5,64.5,21.5,64.5,21.5,64.5s0.676,0.541,1.488,0.404   c0,0-1.353,0.947-1.624,1.759c0,0,1.624-0.945,2.299-0.541c0,0,1.218,0.137,2.3,0c0,0-0.405,0.271-0.541,0.812   c0,0,0.811-0.404,1.352-0.135c0.542,0.271,0.542,0.271,0.542,0.271s0.677,0,1.489-0.137c0.812-0.135,1.353-0.945,2.435-0.812   c1.083,0.137,3.111,0.137,3.924,0c0.812-0.134,1.218-0.812,3.517-0.677c2.3,0.137,6.765,0.137,9.064-2.436   c0,0,8.793-3.247,18.399,2.436c0,0,3.924,3.654,7.713,4.06c0,0-2.301,1.622-2.842,1.758c-0.542,0.136-1.76,0-2.164,0.405   c0,0-0.277,0.122-1.176-0.156c-0.896-0.276-2.207-1.172-2.76-0.828c-0.552,0.346-1.103,0.828-1.793,0.896   c-0.69,0.071-1.863,0.967-1.933,1.242c-0.068,0.277-1.587,1.175-1.725,1.519c0,0,1.863-0.275,2.139-0.136   c0.275,0.136-0.966,0.895-1.311,1.792c0,0,1.517-1.173,2.346-0.76c0,0,2.07,0,2.345-0.138c0,0-1.931,0.967-2,1.863   c0,0,1.587-1.104,2.276-0.759c0,0,1.312,0.068,1.795-0.207c0,0-0.208,0.621-0.208,0.896c0,0,0.553-0.413,0.966-0.482   c0,0,2.071-0.483,2.623-0.967c0,0,4.209-0.689,4.829-0.62c0.622,0.069,6.763,1.312,6.624-0.69   c-0.138-2.001-0.345-3.864,0.139-4.484c0.482-0.621,0.688,2.346,0.688,3.312c0,0.967,1.863,7.591-13.66,6.693   c0,0-4.692,0.551-11.178-3.312s-13.938-4.762-16.283-4.69c-2.346,0.068-9.867,0.827-15.248,2.827   c-5.383,2.002-10.765,1.933-11.385,1.863c0,0,1.035,1.656,11.178-0.483c10.142-2.139,14.972-3.104,19.94-1.653   c4.967,1.446,14.835,6.76,17.042,7.38c2.207,0.623,12.765,3.38,19.664-0.827c0,0,4.104-1.547,4.605-8.765   c0.007-0.088,0.012-0.182,0.018-0.273c0,0,1.448-1.174,1.655-1.795s2.346-3.793,3.312-4.346c0.966-0.552,0.966-1.034,0.966-1.45   c0-0.413-0.207-1.654-0.07-2.139c0,0,0.276-0.345-0.412-0.413c-0.69-0.069-2.278-0.553-2.416-0.896c0,0,0.552-2.07,0.483-3.106   c-0.069-1.034,0.759,0.553,0.759,1.036c0,0.481,0.36-2.233-0.276-3.244c-0.636-1.008-0.137-3.312-0.552-4.761   c-0.414-1.448,1.141,2.19,1.191,2.718s-0.501-3.478-1.743-4.993c0,0,1.655,1.447,1.655,1.932c0,0.482-0.758-2.484-1.793-3.519   c-1.035-1.036-0.966-1.657-0.966-1.657s1.587,1.31,1.725,1.795c0.137,0.482-0.829-1.45-1.794-2.899   c-0.967-1.448-1.104-1.793-1.104-1.793s2.346,1.793,2.553,2.346c0.208,0.552-1.655-2.829-2.69-3.45   c-1.036-0.621-1.862-1.449-1.862-1.449s2.207,1.449,2.622,1.725c0.413,0.276-2.103-2.296-2.88-2.838   c-0.778-0.543-1.95-1.44-1.95-1.44s1.189,0.078,1.725,0.552c0.536,0.474-1.173-1.38-2.07-1.725   c-0.896-0.345,0.069-0.759,0.551-0.483c0.485,0.275-1.378-1.173-2.275-1.656s-1.449-0.759-1.449-0.759s3.104,1.242,3.312,1.449   c0.208,0.207-3.312-2.415-3.933-2.553c-0.62-0.137,1.555,0.258,1.951,0.404c0.396,0.148-3.952-2.06-4.573-2.198   c-0.621-0.139-0.552-0.69-0.552-0.69s2.554,0.414,3.035,0.69c0.484,0.276-5.587-2.484-6.208-2.484s1.311-0.207,1.654-0.138   c0.346,0.069-3.587-0.759-3.933-0.759c-0.345,0,1.795-0.345,1.795-0.345s-4.347-0.069-4.554-0.276   c-0.207-0.208-3.313-0.69-4.278-0.621c-0.966,0.068,1.587-0.483,1.932-0.415c0.346,0.07-4.277,0.346-5.175,0.622   c-0.896,0.275-1.241,0.069-1.241,0.069s1.518-0.759,1.862-0.759s-4.348,0-5.105,0.415c-0.76,0.413-5.037,0.759-5.727,0.966   s-1.103,0.345-1.103,0.345s1.517-0.898,2.068-0.967c0.553-0.069-5.104,1.38-5.519,1.794c-0.415,0.415-1.726,1.035-2.07,1.243   c-0.345,0.206-3.45,1.862-4.347,2.069c-0.897,0.208-5.037,1.726-7.314,1.381c0,0-0.494-2.16-1.48-3.27   c-0.057-0.064-0.116-0.125-0.175-0.18c-1.104-1.037-0.828-0.76-1.449-1.037c-0.621-0.275-1.794-0.896-2.277-0.414   C26.417,27.837,24.889,30.667,24.342,31.218z"/>
</g>
<g id="Layer_4" display="none">
	<path display="inline" d="M50.235,76.173c0.004,0.002,0.017,0.009,0.017,0.009S50.301,76.017,50.235,76.173z M52.759,84.166   c0.25-0.253,1.745-0.167,1.745-0.167c-0.83-1.081-4.652-0.499-5.4-0.747s-0.334-3.24,0.083-4.321   c0.415-1.081,0.665-1.745,0.914-2.409c0.068-0.186,0.109-0.289,0.135-0.349c-0.182-0.089-4.098-1.989-4.018-1.504   c0.19,1.143-0.852,4.845-1.435,6.09c-0.582,1.248-1.412,1.745-2.492,1.911c-1.081,0.167-2.576-0.332-4.071-0.25   c-1.496,0.084-2.077,1.164-1.663,0.998c0.416-0.166,0.665-0.085,0.915,0.082c0.248,0.168,1.163,1.08,1.163,1.08   c-3.905,0.084-4.404,0.914-4.404,0.914c-1.496,0.416-1.745,1.165-1.745,1.165c0.416-0.5,1.496-0.335,1.496-0.335   c0.249,1.082,5.566,0.335,5.566,0.335c-2.161,1.494-1.66,2.324-1.66,2.324c0.249-0.581,1.078-0.414,1.078-0.414   c0.915,1.329,3.49-0.499,5.816-1.58c2.326-1.079,5.565-1.411,6.978-1.495C53.177,85.411,52.508,84.415,52.759,84.166z    M64.694,89.814c0,0-1.771-0.221-2.657-0.442c-0.886-0.221-1.329-2.437-0.665-3.323c0.665-0.886,1.261-3.457,1.261-3.457   s-2.812,1.25-5.14-0.325c0.891,3.287-1.578,6.469-1.91,6.884c-0.332,0.416-2.988,0.332-5.315-0.083   c-2.326-0.416-3.242,0.747-3.242,0.747c1.082-0.248,1.911,0.498,1.911,0.498c-0.415,0.334,0.167,1.414,0.167,1.414   c-3.406,0.581-3.822,1.746-3.822,1.746c0.499-0.419,1.496,0,1.496,0c0.583,0.829,1.495,0.911,2.242,0.578   c0.749-0.33,4.487,0,4.487,0s-0.58,0.417-1.746,0.997c-1.163,0.582-0.995,2.078-0.995,2.078c0.084-0.581,0.638-0.223,2.188-0.223   c1.551,0,8.419-4.207,10.411-4.431c1.997-0.222,1.997-0.887,1.997-0.887c-0.667-1.992,2.434-1.771,2.434-1.771   C66.023,88.485,64.694,89.814,64.694,89.814z M16.205,22.852l0.665-4.068l-4.238-3.325l-1.412,0.082c0,0-4.985,1.994-3.489,8.307   C9.226,30.164,11.8,29.5,11.8,29.5l0.083-1.912C11.884,27.588,15.706,27.006,16.205,22.852z M89.953,34.207   c-3.769-5.097-9.087-1.551-9.087-1.551c-5.095-5.538-7.528,3.322-7.528,3.322c-6.205-3.986-13.737-6.424-21.715-7.309   c-7.974-0.889-19.051,3.322-19.051,3.322c-1.551-1.108-1.109-9.304-0.887-10.635c0.222-1.33,0.665-6.646-1.993-12.85   c-2.659-6.204-9.527-5.98-9.527-5.98c-3.434,0.027-4.126,0.552-6.952,1.715c-2.825,1.164-1.329,2.908-1.329,2.908   c-0.166-0.665,0.25-1.577,0.25-1.577c8.971-1.829,12.128,2.906,12.128,2.906c0.997-0.081,3.571,1.831,4.485,2.825   c0.915,0.999-0.414,4.072-1.993,7.229c-1.58,3.156-5.235,1.495-6.729,1.164c-1.495-0.333-3.156,2.243-3.156,2.243   c0.248,0.251,0.747,0.251,0.747,0.251c0.25,2.244-1.662,5.729-2.742,8.14c-1.08,2.41-0.913,6.73-1.162,9.885   c-0.249,3.161,0.582,5.901,0.831,6.567c0.249,0.663,1.246,1.992,1.329,2.74c0.083,0.748,0.25,1.496,0.581,1.745   c0.333,0.248,0.666,0.248,1.415,1.161c0.747,0.916,0.914,1.663,1.33,2.078c0.414,0.415,1.078,0.749,1.078,1.497   c0,0.746,0.416,0.913,0.832,0.58c0.415-0.332,1.246,0.251,1.745,0.832c0.498,0.579,0.58,0.167,0.664,1.827   c0.083,1.659,0.582-0.167,1.163,0.747c0.582,0.912,4.569,6.396,4.985,7.312c0.417,0.913,0.831,0.166,3.158,1.827   c2.326,1.661,7.725,3.903,8.639,4.072c0.916,0.164,4.239-0.169,4.653,0.913c0,0,1.995-0.085,2.409,0.497   c0.415,0.582,0.665,0.915,2.16,0.666c0.901-0.15,3.075,2.906,4.238,4.404c1.161,1.493,2.243,2.074,2.243,2.074   c-0.082-0.665,2.326,0.749,2.824,0.833c0.497,0.082,2.936-0.969,2.936-0.969c1.107-0.665,1.33-3.104,1.33-3.104   c2.656,0.444,6.204-1.771,6.204-1.771c1.771,0.886,2.435-0.444,2.435-0.444c-1.33-2.215,2.438-2.657,2.438-2.657   c2.215-0.223,1.993-2.883,1.993-2.883c1.108,0,2.438-0.886,2.879-2.212c0.444-1.331,1.773-2.66,1.773-2.66   c1.551-4.434,1.551,0,1.551,0c1.108-0.222,0.887-3.768,0.887-3.768c0.887,0,1.106-2.437,1.106-2.437   c-1.106-1.328,0.887-1.993,0.887-1.993c-1.33,0-1.771-2.214-1.771-2.214c0.885,0.442-0.665-3.987,0-3.769   c0.665,0.224,0.885-1.107,0.885-1.107l1.554-0.443c-1.108-0.663-2.66-4.431-2.66-4.431c1.993-0.885,3.769,2.439,5.981,1.775   c2.216-0.667,0.665-7.313,0.665-7.313S93.72,39.304,89.953,34.207z M63.31,58.246c0,0-0.249,1.743-1.412,2.075   c0,0,0.084,1.246-0.583,1.329c0,0-0.081,1.746-0.744,1.912c0,0-1.248,1.994-2.827,0.831c0,0-0.662,2.991-2.905,1.494   c0,0-2.162,1.162-3.741-0.331c-1.577-1.498-5.233-5.735-6.147-6.647c-0.914-0.915-4.652-5.314-5.4-6.978   c-0.747-1.663-2.409-6.066,0.083-10.221c0,0,0.266,2.66,0.68,4.489c0.416,1.827,0.5,4.32,1.248,5.648   c0.747,1.33,3.057,4.472,4.221,5.384c1.164,0.915,4.654,5.816,5.732,6.231c1.082,0.415,3.076,1.745,2.908,0.333   c0,0,3.24,2.077,2.242-1.746c0,0,3.158,1.911,3.158-0.166c0,0,1.08,0.083,0.663-1.909c0,0,0.998-0.084,0.83-1.33   c0,0,1.248-0.251,1.082-1.745c0,0,1.08,0.845,0-1.147c-1.082-1.994-1.163-1.162-1.661-3.073s-2.742-2.825-2.742-2.825   s3.673-0.498,5,3.324C64.323,56.999,64.391,56.916,63.31,58.246z M89.191,39.791c0.735,2.349,0.516,6.211-0.221,6.514   c-0.736,0.304-3.166-1.514-3.752-1.895c-0.59-0.378-1.916,0.381-1.916,0.381l1.841,3.937c0,0-0.588-0.452-0.588,0.303   c0,0.759-0.812,1.212-0.812,1.212l-0.071-0.755c0,0-0.517-1.061-0.517-2.047c0-0.983-0.811-2.118-1.106-3.331   c-0.294-1.212-2.132-2.044-2.5-2.575s-0.146-1.513-0.368-1.666c-0.222-0.15-0.957,0.227-1.253-0.378   c-0.293-0.605,0.371-0.909,0.296-1.212c-0.071-0.302-1.251-0.682-1.691-0.756c-0.441-0.075-1.842-1.058-1.842-1.058   c0.589-2.882,2.282-4.395,3.237-4.47c0.959-0.077,2.799,1.817,2.799,1.817c1.028-0.607,2.429-1.439,4.637-1.136   c2.207,0.303,4.562,4.921,4.783,5.754C90.37,39.261,89.191,39.791,89.191,39.791z"/>
</g>
<g id="Layer_5" display="none">
	<path display="inline" d="M62.765,54.896c-0.247-3.712,2.228-19.551,0-25.491C60.538,23.466,52.123,0.698,38.017,3.173   C23.911,5.648,25.396,31.138,25.643,35.84s4.95,16.582,8.415,20.541c3.464,3.96,4.702,5.939,5.197,9.652   c0.495,3.712,1.237,16.334,7.672,24.005c0,0,3.217,6.683,11.136,6.435c7.92-0.247,13.611-7.424,13.859-14.105   C72.17,75.685,63.013,58.608,62.765,54.896z M69.277,78.824c-0.209-0.347-2.354-1.637-2.354-1.637   c0.482-0.766,1.638-1.02,1.638-1.02L69.277,78.824z M68.292,74.299l0.103,0.996l-4.228,2.948l-1.241-0.027   c-0.016-0.715-1.954-5.665-1.954-5.665s3.898,0.646,5.292,0.833C67.656,73.57,68.292,74.299,68.292,74.299z M67.865,72.582   c0,0-2.671-1.334-3.127-1.81l1.978-0.918C66.716,69.854,67.533,72.17,67.865,72.582z M66.21,68.88l-4.191,2.731l-1.43,0.03   c0,0-1.064-3.781-4.645-4.731c-3.581-0.95-6.88-1.987-8.071-1.517c-1.19,0.47,0.198,3.637,0.523,4.358l-1.913-0.539l-2.386-4.401   c0,0,0.086-1.054,0.858-0.882c0.772,0.174,2.549,1.27,6.446,0.581c0,0,13.528,1.888,13.89,2.393   C65.652,67.408,66.21,68.88,66.21,68.88z M45.659,76.864l8.259,1.459l5.836,5.597c0,0-4.093-0.278-5.421-0.588   C53.004,83.022,45.659,76.864,45.659,76.864z M51.546,82.959c0,0-1.587,0.182-2.635-0.215l0.043-0.526L51.546,82.959z    M39.817,25.96l0.4,4.294l-4.235,1.923l-0.844,0.26l-0.242-4.446L39.817,25.96z M34.691,24.665c0,0,0.409-3.003,0.387-3.407   c-0.022-0.404,0.483-0.766,0.483-0.766s3.226-1.201,3.694-1.346c0.47-0.145,0.456,0.476,0.456,0.476l-0.091,4.035   c0,0-3.976,1.432-4.351,1.548S34.691,24.665,34.691,24.665z M36.349,11.722l2.013-1.135c0,0,1.047,0.396,1.221,0.959   s0.254,2.49,0.254,2.49S38.018,13.467,36.349,11.722z M36.012,33.607c0.657-0.203,4.336-2.263,4.336-2.263l0.992,4.215   c0,0,0.232,0.75-0.302,1.018c-0.534,0.268-3.644,1.844-3.644,1.844s-0.938,0.29-1.112-0.273s-0.818-3.652-0.818-3.652   S35.355,33.81,36.012,33.607z M58.112,38.193c-0.505,0.361,0.353,2.699,0.387,3.031s1.313-0.405,1.313-0.405l-0.094-3.19   l1.125-0.347l-0.204,3.556c0,0-1.51,0.877-2.029,0.969c-0.52,0.092-0.747-1.756-0.95-2.857c-0.203-1.102,0.957-1.117,0.957-1.117   C58.607,38.245,58.617,37.832,58.112,38.193z M59.181,38.548l0.184,1.929l-0.562,0.174l-0.454-1.915L59.181,38.548z M60.473,42.293   l-8.016,4.322l-1.654-1.031l0.946-0.6c0,0,0.628,1.039,1.696,0.504C54.513,44.954,60.473,42.293,60.473,42.293z M56.551,47.784   c-1,1.199-3.422-0.657-3.422-0.657c0.615-0.669,5.906-3.055,5.906-3.055s0.573,1.193,0.353,1.809   c-0.221,0.616-4.483,1.452-4.483,1.452C55.193,48.271,56.551,47.784,56.551,47.784z M59.837,60.88l-4.949,3.273   c0,0-1.595-0.843-1.394-1.521S55.99,60.731,59.837,60.88z M48.681,35.041c0,0,1.28,3.817,1.302,4.221   c0.022,0.404-2.958,1.734-3.239,1.821s-2.651-3.6-2.651-3.6L48.681,35.041z M43.21,35.291l-0.949-3.406l-0.124-1.4   c0,0,3.414-1.258,4.135-1.583c0.721-0.326,1.111,0.273,1.111,0.273s0.564,2.497,0.738,3.06s-0.359,0.831-0.359,0.831L43.21,35.291z    M50.49,41.572c-0.043,0.527-1.393,1.148-1.393,1.148s-0.758,0.542-0.996,0.102C47.863,42.382,50.49,41.572,50.49,41.572z    M51.083,42.827l0.312,1.343l-1.292,0.809l-1.278-1.147C50.469,42.503,51.083,42.827,51.083,42.827z M56.495,42.39   c-0.1,0.339-1.86,1.293-2.518,1.496c-0.656,0.202-0.802-0.267-0.802-0.267l-0.773-2.843c0.007-0.311,1.832-1.387,2.583-1.619   c0.75-0.232,0.896,0.237,0.896,0.237S56.597,42.051,56.495,42.39z M51.649,38.337l-1.093-3.875c0,0,2.698-1.244,3.168-1.388   c0.469-0.145,0.996-0.102,0.996-0.102l0.594,3.926C54.774,37.476,51.649,38.337,51.649,38.337z M50.461,31.82   c-0.657,0.203-0.772-0.172-0.772-0.172l-0.725-3.681c0,0,2.85-1.085,3.507-1.287c0.656-0.203,0.707,0.295,0.707,0.295l0.854,3.436   C54.032,30.41,51.118,31.618,50.461,31.82z M49.121,26.48c0,0-0.844,0.26-1.047-0.396c-0.202-0.657-0.68-2.873-0.68-2.873   l4.12-0.963l1.113,2.944L49.121,26.48z M46.389,20.953l-1.359-3.074c0,0,0.072-0.433,0.447-0.549   c0.375-0.116,3.37-0.731,3.37-0.731l1.576,3.109L46.389,20.953z M46.514,23.688c0,0,0.196,2.303,0.218,2.707   c0.022,0.404-0.302,1.018-0.302,1.018s-3.203,1.605-3.86,1.808c-0.656,0.203-0.794-0.577-0.794-0.577s-0.198-3.638,0.271-3.783   C42.516,24.717,46.514,23.688,46.514,23.688z M40.405,10.881c0.13-0.246,0.771-1.163,0.771-1.163l2.085-0.233l-1.866,4.275   C41.396,13.761,40.275,11.127,40.405,10.881z M37.685,40.693c0,0,4.055-2.175,4.365-2.168c0.311,0.007,1.612,4.229,1.612,4.229   l-4.458,2.197C39.204,44.951,37.425,41.185,37.685,40.693z M44.43,44.572l-0.072,0.433c0,0-2.107,1.164-2.547,1.402   c-0.44,0.238-1.35,0.622-1.35,0.622C40.258,46.373,44.43,44.572,44.43,44.572z M44.618,45.849c0,0,0.34,1.437,0.087,1.617   c-0.252,0.18-3.146,1.792-3.146,1.792l-0.657-1.132L44.618,45.849z M44.555,48.643l-1.441,3.321c0,0-0.557-1.472-0.982-1.854   L44.555,48.643z M42.877,63.853c0.498-0.052,1.677,2.771,1.677,2.771l-1.406,1.77l-0.584-0.231   C42.563,68.161,42.379,63.903,42.877,63.853z M49.083,70.979c0,0,3.462,6.227,3.802,6.327l-3.43-0.791l-5.469-6.737L49.083,70.979z    M52.951,70.196c0.505-0.361,2.83,1.182,3.431,2.127c0.6,0.945,3.253,7.216,3.253,7.216s-3.64-2.474-5.013-4.927   C53.248,72.159,52.446,70.558,52.951,70.196z M62.271,61.773c0.665,0.822,2.486,4.062,2.486,4.062s-5.417-3.568-5.979-3.396   l2.33-1.438C61.107,61.002,61.605,60.951,62.271,61.773z M60.886,34.974c0,0-3.037,1.143-3.507,1.288   c-0.469,0.145-0.483-0.57-0.483-0.57l-0.667-3.493l4.099-1.368C60.667,32.268,60.886,34.974,60.886,34.974z M59.604,28.486   c0,0-1.812,0.456-2.937,0.804c-1.126,0.347-1.206-0.245-1.206-0.245l-0.558-2.808c-0.022-0.404,3.723-1.251,3.723-1.251   L59.604,28.486z M58.034,23.73c0,0-2.562,0.688-3.126,0.861c-0.562,0.173-0.765-0.483-0.765-0.483l-0.724-2.346l3.283-1.013   L58.034,23.73z M53.277,15.643l2.01,3.182l-3.118,0.551l-1.417-3.262C50.752,16.114,52.505,15.47,53.277,15.643z M52.411,14.164   c-0.462-0.166-6.531,1.81-7.217,1.918c-0.686,0.109-1.501,0.463-1.731,1.048s1.144,4.373,1.144,4.373   c-0.657,0.203-2.857,1.396-2.857,1.396c-0.067-2.548,1.496-7.14,1.496-7.14c2.101,0.482,8.682-2.165,8.682-2.165L52.411,14.164z    M46.127,9.116l1.155-0.253l0.643,0.418c-0.845,0.26-2.245,0.384-2.245,0.384L46.127,9.116z M45.298,10.091   c0,0,0.679,0.201,1.141,0.367c0.463,0.166,2.281-0.601,2.281-0.601l1.062,1.111c0,0-3.161,1.078-3.847,1.187   c-0.686,0.108-1.328-0.31-1.328-0.31L45.298,10.091z M45.632,13.172c1.271,0.122,4.72-1.353,4.72-1.353l1.004,0.923   c0,0-5.693,1.859-6.596,1.932c-0.902,0.073-1.205-0.244-1.205-0.244l0.851-1.906C44.405,12.524,44.361,13.051,45.632,13.172z    M44.473,6.75l-0.634,1.942l-2.144,0.045l1.507-2.109L44.473,6.75z M39.044,6.472c0.145,0.469,0.831,1.696,0.232,2.086   s-0.975-0.83-0.975-0.83L37.81,6.134C37.81,6.134,38.9,6.003,39.044,6.472z M36.858,7.044c0,0,0.801,0.267,1.126,0.988   c0.326,0.722,0.81,1.292,1.279,1.147c0.469-0.145,1.833-0.052,0.784-3.119l2.137,0.266c0,0-1.369,2.888-2.56,3.358   c-1.191,0.47-2.57-0.337-2.57-0.337l-1.899-1.161L36.858,7.044z M34.391,9.038l2.859,1.275l-1.609,1.113   c0,0-0.513-0.664-1.062-1.111C34.03,9.869,34.391,9.038,34.391,9.038z M33.231,12.272c0.657-0.203,1.451,0.375,1.451,0.375   s-0.202,0.678-0.83,0.975c-0.627,0.297-2.374,0.63-2.374,0.63S32.575,12.476,33.231,12.272z M31.277,14.93   c0,0,1.646,0.006,2.303-0.196c0.656-0.203,1.45-0.961,1.681-1.546c0.23-0.585,0.578,0.541,0.578,0.541l0.694,0.917   c0,0-0.765,0.852-2.013,1.135c-1.249,0.282-3.991,0.718-3.991,0.718L31.277,14.93z M30.225,17.515c0,0,2.858-0.06,3.609-0.292   s3.319-1.229,3.305-1.944l1.126,0.988c0,0-0.173,0.772-0.736,0.946c-0.562,0.173-7.267,1.42-7.462,1.789L30.225,17.515z    M29.765,20.021c0,0,0.786-0.448,1.718-0.427c0.931,0.021,5.146-0.971,5.585-1.21c0.44-0.238,1.926-1.416,1.926-1.416l0.788,0.887   c0,0-4.315,1.332-5.968,1.636s-3.962,0.811-4.063,1.151L29.765,20.021z M29.276,22.431l4.128-1.273l-0.321,4.62l-4.705,2.068   L29.276,22.431z M28.134,30.386l4.792-1.787l0.458,4.482l-5.31,2.769C27.892,34.263,28.134,30.386,28.134,30.386z M28.53,37.662   l5.094-2.805c0,0,0.267,0.534,0.225,1.061c-0.043,0.527,0.919,3.312,0.919,3.312s-0.007,0.31-0.577,0.794s-4.415,3.006-4.415,3.006   S28.545,38.376,28.53,37.662z M30.867,45.571c0,0,4.177-3.446,5.05-3.613l1.8,4.171l-4.646,3.591   C33.072,49.72,31.012,46.04,30.867,45.571z M41.456,55.249c-0.289,0.397-0.657,0.203-1.054-0.085   c-0.397-0.289-3.119-0.784-3.552-0.856s-2.817-3.138-2.817-3.138l3.859-3.143c0,0,0.621,0.014,0.708,0.295   c0.087,0.282-1.991,1.539-2.337,1.748c-0.347,0.21-0.642,0.918-0.216,1.301c0.427,0.382,3.125-2.197,3.125-2.197l0.78,1.197   c0,0-0.916,0.694-1.197,0.78c-0.282,0.087-1.162,0.564-0.995,1.438c0.167,0.873,1.918-1.105,2.359-1.345   c0.44-0.238,0.816,0.981,1.019,1.638c0.203,0.657,1.026,1.328,1.026,1.328S41.745,54.852,41.456,55.249z M42.412,69.338   l0.866,0.144l2.587,3.724c-0.311-0.008-1.594,1.826-1.594,1.826l-1.054-0.086L42.412,69.338z M43.226,75.971   c0,0,0.96,0.115,1.264,0.433s4.103,3.974,4.103,3.974l-1.232,2.333l-2.382-0.396L43.226,75.971z M45.6,83.664   c0.549,0.446,15.158,1.179,15.158,1.179s3.084,2.337,3.503,3.029s0.283,1.248,0.283,1.248l-4.201,0.371   c0,0-7.834-3.747-8.412-4.288c-0.578-0.54-1.697-0.504-1.697-0.504l3.582,2.285c-0.253,0.182-1.65,2.976-1.65,2.976l-2.923,0.183   C48.483,89.349,45.6,83.664,45.6,83.664z M57.016,89.696c0,0-2.865,0.37-3.457,0.45l0.302-1.018L57.016,89.696z M58.274,94.445   c-4.013,0.312-8.426-3.668-8.426-3.668c4.519,0.661,9.758-0.339,9.758-0.339l3.849,1.483   C63.455,91.922,62.287,94.132,58.274,94.445z M64.184,91.286l-2.714-0.807c0,0,3.089-0.645,3.11-0.24   C64.603,90.644,64.184,91.286,64.184,91.286z M68.697,85.271c-0.259,0.491-1.247,1.617-2.265,1.315   c-1.018-0.303-1.481-1.804-1.481-1.804l3.039,0.192C67.99,84.975,68.958,84.779,68.697,85.271z M69.072,83.819l-0.946-0.736   l1.161-0.563L69.072,83.819z M65.369,84.14c-0.375,0.116-0.743-0.079-0.888-0.548c-0.145-0.47-1.419-4.597-1.419-4.597l6.317,0.825   c0,0,0.239,1.774-0.042,1.862C69.057,81.77,65.745,84.023,65.369,84.14z"/>
</g>
<g id="Layer_6" display="none">
	<path display="inline" d="M50.175,96.885c0,0,4.454-0.134,4.971-3.718c0.518-3.587-3.03-49.196-3.034-50.749   c-0.008-1.554,0.403-5.855,2.095-8.129c1.688-2.274,2.852-3.234,2.736-6.1c-0.117-2.866-1.041-25.078-1.783-25.075   s0.291,23.287-1.726,23.295c-2.014,0.005-0.397-23.169-1.668-23.165c-1.273,0.006,0.504,23.408-1.829,23.416h0.11   c-2.333,0.006-0.715-23.408-1.987-23.404c-1.272,0.006,0.503,23.169-1.514,23.177c-2.015,0.006-1.137-23.285-1.879-23.284   c-0.743,0.003-1.518,22.221-1.613,25.087c-0.096,2.867,1.074,3.819,2.778,6.081c1.707,2.265,2.144,6.562,2.148,8.114   c0.006,1.553-3.235,47.187-2.691,50.768c0.542,3.584,4.995,3.688,4.995,3.688L50.175,96.885z"/>
</g>
<g id="Layer_7" display="none">
	<path display="inline" d="M96.229,32.846c-1.522-2.027-4.056-2.027-6.084-3.549c-2.027-1.52,0-5.068-3.043-5.068   s-4.057-0.505-5.575-3.042c-1.521-2.538-3.549-3.549-6.592-3.549c-3.041,0-11.407-6.087-15.97-6.087s-3.803-2.534-8.873-2.534   h-0.186c-5.072,0-4.311,2.534-8.873,2.534c-4.563,0-12.928,6.087-15.969,6.087c-3.042,0-5.07,1.011-6.591,3.549   c-1.521,2.537-2.535,3.042-5.578,3.042c-3.041,0-1.014,3.549-3.041,5.068c-2.028,1.521-4.562,1.521-6.083,3.549   c-1.521,2.027-2.535,13.687,1.521,14.191c4.055,0.51,7.604,3.046,10.14,3.552c2.535,0.505,7.603,0.505,11.154,1.013   c3.547,0.505,7.096,3.548,11.152,2.028c4.056-1.523,8.62,0,8.62,0c1.015,6.593,0.507,10.648,0.507,10.648   c-15.844,0-15.716,5.237-15.716,5.237c0,3.931,15.97,4.014,15.97,4.014c0,14.575-3.519,16.829-5.088,17.11h4.115   c0.703-1.028,2.471-4.798,2.471-16.731h2.752c0,11.934,1.768,15.703,2.47,16.731h4.131c-1.568-0.281-5.086-2.535-5.086-17.11   c0,0,15.953,0.254,15.953-3.843c0,0,0.143-5.408-15.701-5.408c0,0-0.509-4.056,0.505-10.648c0,0,4.564-1.523,8.622,0   c4.055,1.52,7.604-1.523,11.151-2.028c3.549-0.508,8.619-0.508,11.155-1.013c2.534-0.506,6.083-3.042,10.139-3.552   C98.767,46.532,97.749,34.873,96.229,32.846z M53.2,66.844l-0.155-1.383c0,0,12.956,0.922,12.956,3.688s-12.491,2.767-15.145,2.767   h-1.562c-2.654,0-15.143,0-15.143-2.767s12.958-3.688,12.958-3.688l-0.158,1.383c0,0-4.372-0.308-4.372,1.075   c0,1.386,5.309,1.074,7.183,1.074c1.875,0,7.182,0.312,7.182-0.919S53.2,66.844,53.2,66.844z M51.448,67.992h-2.913   c0-23.149-2.913-26.197-2.913-26.197s3.885-1.176,8.74,0C54.362,41.795,51.448,44.674,51.448,67.992z M86.92,47.716   c-3.889,2.199-6.76,2.199-8.449,1.693c-1.691-0.509-7.271,0.503-9.806,2.026c-3.485,2.095-11.491-0.679-11.491-0.679   c0-3.209,1.691-4.731,1.691-4.731s12-1.521,12-3.551c0-2.027-13.185-2.532-20.789-2.532c-7.605,0-21.293,1.352-21.293,3.551   c0,2.195,14.195,2.363,14.195,2.363c0.845,1.181,1.183,5.237,1.183,5.237c-0.676-0.505-8.281,0.847-10.647,1.185   c-2.366,0.338-4.224-1.521-7.266-2.535c-3.042-1.014-8.451-0.676-10.816-1.014c-2.366-0.337-5.239-1.183-6.929-3.041   c-1.69-1.86-2.196-3.042,2.535-3.381c4.731-0.339,2.196-1.521,4.394-2.194c2.197-0.68,6.928-1.354,9.125-2.368   c2.197-1.015,1.014-3.551,3.211-3.717c2.197-0.169,5.407-0.507,7.267-1.858c1.859-1.352,5.07-0.847,8.111-1.352   c3.043-0.507,5.07-0.167,5.916,1.014c0.845,1.184,4.057,0.506,5.916,0.338c1.86-0.168,5.746,1.013,7.099,1.858   c1.351,0.845,3.717,1.857,6.254,1.012c2.535-0.844,6.421-0.167,7.602-0.167c1.184,0,2.536,1.521,5.071,1.183   c2.534-0.338,4.228-3.55,6.929-1.016c2.704,2.536,7.771,5.751,7.771,5.751C95.702,44.847,90.806,45.519,86.92,47.716z"/>
</g>
<g id="Layer_8" display="none">
	<path display="inline" d="M96.717,76.456c-5.032,0.929-28.58-15.289-37.227-21.229l-0.854,1.241   c3.138,2.155,30.094,20.524,37.701,20.524c0.236,0,0.455-0.018,0.652-0.055L96.717,76.456z M54.919,59.626   c5.879,8.718,21.926,32.453,20.981,37.516l0.48,0.275c1.23-6.587-18.014-35.373-20.213-38.634L54.919,59.626z M29.86,3.535   c0.134-0.586,0.228-0.952,0.228-0.952C29.977,2.731,29.904,3.07,29.86,3.535z M4.118,29.134c-0.546,0.023-0.943,0.088-1.108,0.212   C3.01,29.346,3.442,29.255,4.118,29.134z M53.691,57.045c0.905-0.403,1.85-0.373,2.104,0.067c0.188,0.321-0.048,0.771-0.541,1.147   c0.626-0.207,1.247-0.564,1.829-1.145c0.676-0.675,1.085-1.379,1.308-2.072c-0.363,0.538-0.823,0.859-1.18,0.767   c-0.49-0.128-0.597-0.986-0.239-1.916c0.334-0.866,0.954-1.479,1.435-1.455c-0.478-1.594-1.728-2.728-2.52-2.604   c-0.198-0.798-0.461-1.676-0.762-2.646c-0.476-1.536-1.363-2.502-2.478-2.899c-0.151-0.55-0.376-1.122-0.665-1.71l0.088,0.168   c0,0,2.911,0.424,3.693-0.357c0.78-0.783,0.328-1.87,0.91-3.482c0.583-1.613,2.898-3.674,2.898-3.674l2.317-2.064   c0,0-2.202,0.921-2.672,1.391c-0.469,0.47-3.054,3.831-3.054,3.831l-1.013,3.067c0,0-1.729,0.443-3.612,0.276l0.187,0.354   c-0.151-0.271-0.304-0.543-0.489-0.82c-0.063-0.095-0.14-0.205-0.21-0.308c0.314-0.07,1.307-0.337,1.746-1.026   c0.52-0.82-1.377-6.583-1.398-7.199c0,0,1.255-3.055,3.201-4.488c0,0-1.843,0.304-3.838,3.843c0,0,1.616,5.985,0.849,6.756   c-0.516,0.515-1.309,0.478-1.781,0.397c-2.551-3.465-7.043-8.946-11.881-13.174c0.431-0.46,1.689-1.869,2.531-3.557   c1.028-2.059-0.63-3.478-0.63-3.478l-9.467-5.425c0,0-0.762-7.318-0.499-10.074c-0.524,2.301-1.683,8.162-0.397,10.201   c0.894,1.418,0.381,1.16,0.894,1.418c0.511,0.26,8.954,4.909,8.954,4.909l-3.015,4.641c-2.835-2.262-5.723-3.968-8.361-4.502   c0.274-0.678,0.819-2.148,0.625-2.734c-0.203-0.616-1.466,1.624-1.972,2.562c-1.66-0.069-3.188,0.415-4.5,1.627l-0.012-0.012   c-0.023,0.023-0.039,0.049-0.062,0.072c-0.019,0.019-0.04,0.03-0.058,0.049l0.009,0.009c-1.233,1.309-1.648,2.909-1.465,4.684   c-0.475,0.191-2.286,0.954-2.602,1.586c-0.259,0.519,1.68,0.027,2.823-0.3c0.629,2.55,2.303,5.375,4.467,8.17l-4.865,3.168   c0,0-4.593-8.506-4.849-9.021c-0.255-0.517,0,0-1.407-0.905c-1.977-1.27-7.568-0.447-9.95-0.021c2.85-0.119,9.82,0.924,9.82,0.924   l5.361,9.536c0,0,1.405,1.675,3.455,0.651c2.049-1.028,3.717-2.697,3.717-2.697l-0.078-0.138c0.523,0.626,1.067,1.247,1.623,1.86   c0.057-0.131,0.734-1.682,1.306-2.255l0.238,0.722l-1.537,1.54c3.826,4.219,8.273,8.057,11.264,10.362   c0.089,0.45,0.178,1.348-0.382,1.909c-0.767,0.765-6.714-0.885-6.714-0.885c-3.53,1.994-3.837,3.845-3.837,3.845   c1.433-1.95,4.476-3.198,4.476-3.198c0.614,0.021,6.337,1.951,7.157,1.429c0.746-0.476,1.002-1.608,1.043-1.812   c0.112,0.078,0.229,0.162,0.331,0.231c0.201,0.137,0.397,0.243,0.595,0.361c0.133,1.806-0.266,3.421-0.266,3.421l-3.016,0.968   c0,0-3.3,2.533-3.762,2.996c-0.46,0.46-1.356,2.642-1.356,2.642l2.019-2.279c0,0,2.021-2.283,3.609-2.843   c1.585-0.56,2.66-0.095,3.426-0.862c0.658-0.659,0.436-2.877,0.358-3.504c0.444,0.204,0.88,0.377,1.301,0.5   c0.41,1.081,1.359,1.942,2.844,2.413c0.93,0.295,1.77,0.551,2.54,0.75c-0.306,0.601,1.004,2,2.802,2.543   C52.498,57.854,52.972,57.363,53.691,57.045z M55.719,54.637c0,0-0.075,1.169-1.221,1.285   C53.354,56.04,55.566,55.039,55.719,54.637z M39.604,27.679l-1.555,1.557l-0.716-0.241C37.932,28.396,39.604,27.679,39.604,27.679z    M37.22,25.753c-1.312,0.118-2.63,2.396-2.63,2.396C34.359,24.788,38.535,25.636,37.22,25.753z M30.413,28.501   c-0.471-2.641,4.306-4.791,4.306-4.791L30.413,28.501z M27.18,20.119l-6.403,6.69C21.169,24.192,27.18,20.119,27.18,20.119z    M29.95,20.821c0,0-4.905,7.069-8.488,8.021L29.95,20.821z M26.1,36.892c-0.121,1.318-0.947-2.883,2.395-2.638   C28.495,34.254,26.222,35.571,26.1,36.892z M24.076,34.367c0,0,2.158-4.794,4.782-4.31L24.076,34.367z M22.412,31.483l10.161-9.219   C32.572,22.265,24.681,30.889,22.412,31.483z M31.414,30.195c4.349-4.356,13.798,4.087,13.798,4.087s-9.451-7.474-13.258-3.663   c-3.806,3.813,1.665,13.584,1.665,13.584S27.065,34.553,31.414,30.195z M49.89,51.154c-1.525,0.153,1.42-1.175,1.622-1.711   C51.512,49.443,51.414,51,49.89,51.154z M47.54,46.251c0.228-0.159,0.45-0.286,0.622-0.32c0,0,1.546,1.324,0.232,1.922   c-1.173,0.533-1.862-0.363-1.997-0.562c-1.312,1.3-2.439,2.853-2.762,4.553c0,0-1.194-0.001-9.444-7.381l0.506-1.533   c0,0,0.299,0.982,2.563,0.771s2.04,0.014,2.67,2.467c0.63,2.454,2.135,3.516,2.697,2.952c0.281-0.281,0.657-1.925,1.541-3.425   c0.014-0.084,0.032-0.197,0.057-0.369c0.242-1.68-8.693-10.694-4.879-8.528c3.816,2.167,6.432,6.732,6.432,6.732   c-0.958,0.367-1.417,1.6-1.571,2.1c0.897-1.493,2.307-2.822,4.646-2.488c0,0,1.15-2.695-1.766-3.371   c-2.917-0.675-1.956-0.611-1.82-2.289s-0.217-1.581-0.953-1.87c-0.74-0.29,1.286-0.521,1.286-0.521s5.259,6.162,6.125,8.35   C51.727,43.438,49.617,44.514,47.54,46.251z M57.697,54.021c0,0,0.807-0.273,0.676-1.105   C58.244,52.083,57.953,53.835,57.697,54.021z M52.933,58.204c0.829,0.137,1.101-0.676,1.101-0.676   C53.853,57.783,52.106,58.07,52.933,58.204z"/>
</g>
<g id="Layer_9" display="none">
	<path display="inline" d="M97.414,50.499c0-8.042-34.193-8.85-34.193-8.85l0.963,1.679c0,0,22.6-0.374,22.836,6.98   c0.183,5.702-36.427,5.706-36.427,5.706h-1.187c0,0-36.529-0.002-36.426-5.706c0.132-7.274,22.567-7.136,22.678-7.135   C34.66,45.241,34.085,47.55,34.085,50c0,0.688,0.06,1.361,0.147,2.027c-4.597-0.484-8.438-1.289-8.438-2.637   c0-3.356,8.704-3.356,8.704-3.356l0.373-0.997c0,0-15.875-0.011-15.875,4.466c0,4.474,30.506,4.474,30.506,4.474h0.993   c0,0,30.506,0,30.506-4.474c0-4.477-16.164-4.478-16.164-4.478l0.247,1.006c0,0,9.119,0.003,9.119,3.359   c0,1.381-4.029,2.192-8.772,2.672c0.09-0.678,0.152-1.362,0.152-2.062c0-8.698-7.052-15.75-15.75-15.75   c-5.787,0-10.831,3.131-13.568,7.782l0.284-0.54c0,0-33.964,0.528-33.964,9.005c0,4.953,19.774,6.679,33.575,7.283   c2.709,4.754,7.809,7.969,13.673,7.969c5.857,0,10.954-3.207,13.665-7.955C77.313,57.207,97.414,55.49,97.414,50.499z"/>
</g>
<g id="Layer_10" display="none">
	<path display="inline" d="M96.967,50.388l-22.684-8.507c0,0-5.41,4.64-4.122,11.598l22.68,8.248   C92.841,61.727,97.995,59.407,96.967,50.388z M37.429,42.655l3.998,1.57l0.125,0.749c0.258,9.535,5.413,12.63,11.599,12.63   c5.192,0,7.652-4.165,8.312-5.508l4.832,1.899c0,0,0.259-11.599,6.701-14.951L43.098,27.189   C43.098,27.189,35.881,32.087,37.429,42.655z M40.523,24.355L9.85,13.015c0,0-8.505,7.217-6.701,18.814l29.64,11.083   C32.789,42.912,30.986,29.769,40.523,24.355z M46.192,60.181L29.694,79.769h4.898L49.799,67.14v19.846h6.443V67.14l15.206,12.629   h4.898L59.852,60.181H46.192z"/>
</g>
<g id="Layer_11" display="none">
	<path display="inline" d="M55.076,58.882c0.312-0.886,42.339,5.116,42.339,5.116s-35.836-7.542-35.551-8.636   c0.286-1.093,24.489,4.403,24.489,4.403c-5.571-2.935-36.591-8.504-36.123-9.493c0.466-0.989,16.533,2.909,16.533,2.909   S21.372,37.468,19.012,36.638c-2.36-0.831-13.836-2.643-16.16,8.687c-2.315,11.285,11.183,13.59,11.183,13.59l60.994,4.392   C75.028,63.307,54.765,59.766,55.076,58.882z M40.63,53.299c0.519-1.589,19.415,4.068,19.415,4.068S40.112,54.887,40.63,53.299z    M49.741,57.48c0,0-25.423-1.748-25.163-2.712C24.837,53.807,49.741,57.48,49.741,57.48z M26.578,51.177   c-0.131-0.702,9.212,1.631,9.212,1.631S26.708,51.879,26.578,51.177z M52.312,53.056c0,0-25.631-3.414-25.034-5.392   C27.874,45.686,52.312,53.056,52.312,53.056z M25.739,43.502c0.155-1.12,24.308,5.651,24.308,5.651S25.583,44.621,25.739,43.502z    M37.605,44.376c0.155-0.78,9.057,2.413,9.057,2.413S37.449,45.158,37.605,44.376z M36.381,43.728c0,0-14-2.721-13.794-3.762   C22.794,38.924,36.381,43.728,36.381,43.728z M21.561,57.686c0.338-1.354,33.777,2.939,33.777,2.939S21.224,59.038,21.561,57.686z"/>
</g>
<g id="Layer_12">
	<path d="M58.999,65.475c-0.046,0.027-2.896,1.703-5.236,1.996c1.526-0.072,4.478-0.266,4.98-0.692   C58.827,66.336,58.914,65.899,58.999,65.475z M58.532,73.087c0.011,0.011,0.019,0.02,0.028,0.028   c-0.077-0.226-0.145-0.447-0.2-0.666c-0.008,0.017-0.015,0.033-0.022,0.05C58.378,72.778,58.44,72.994,58.532,73.087z    M53.844,75.591c0.99,0.125,2.037,0.062,2.946-0.059c0.466-0.679,0.875-1.469,1.131-2.368   C56.962,74.358,55.151,75.147,53.844,75.591z M58.167,70.479c0,0-1.223,0.26-2.736,0.399c-2.188,1.082-4.46,3.355-4.46,3.355   c0.37,0.45,0.854,0.768,1.401,0.989C56.376,74.519,58.167,70.479,58.167,70.479z M58.259,69.801   c0.059-0.529,0.142-1.098,0.241-1.684l-0.124,0.589c0,0-0.377,0.243-0.996,0.541c0.574-0.119,0.943-0.177,0.943-0.177l-0.082,0.745   C58.247,69.811,58.252,69.806,58.259,69.801z M59.106,77.989c-0.445,0.116-0.878,0.19-1.296,0.233   c-0.44,0.47-0.933,0.888-1.409,1.244c0.073,0.028,0.147,0.058,0.224,0.087C57.992,78.903,59.106,77.989,59.106,77.989z    M58.181,71.611c0.004-0.046,0.005-0.093,0.007-0.138c-0.009-0.112-0.016-0.225-0.016-0.334c0-0.134,0.005-0.277,0.012-0.424   c-0.004-0.078-0.01-0.157-0.017-0.236C58.058,70.81,58.103,71.243,58.181,71.611z M56.444,77.475   c0.13,0.009,0.259,0.017,0.388,0.023c0.828-0.723,1.491-1.387,1.491-1.387c-0.333,0.16-0.657,0.289-0.972,0.394   C57.104,76.84,56.803,77.169,56.444,77.475z M53.774,70.326c-0.184,0.019-0.367,0.03-0.555,0.037   c0.14,0.003,0.288,0.007,0.446,0.009C53.702,70.356,53.738,70.341,53.774,70.326z M56.303,85.732   c-0.143-0.427-0.274-0.808-0.274-0.808c0.614,0.187,1.703-0.145,2.623-0.514c-1.441-0.132-2.918-0.879-3.445-1.168   c0.603,1.286,1.432,3.122,1.705,4.849c-0.026-0.204-0.048-0.351-0.048-0.351c0.698,0.257,2.04-0.132,2.775-0.385   c-1.285,0.316-2.938-0.273-2.984-0.502c-0.026-0.135-0.192-0.643-0.346-1.104c-0.006-0.006-0.012-0.012-0.02-0.018   C56.289,85.733,56.296,85.732,56.303,85.732z M56.303,85.732c0.002,0.006,0.004,0.013,0.006,0.019   c2.155,2.13,4.933,0.618,5.199,0.465c0.058-0.896,0.132-2.04,0.168-3.16C61.297,85.359,56.563,85.714,56.303,85.732z M56.915,90.27   c2.153,0,4.091,0.899,4.559,1.3c0.026-1.023,0.008-1.982-0.012-2.729C60.758,89.979,56.915,90.27,56.915,90.27z M56.993,88.314   c0.862,1.148,3.961,0.52,4.466,0.407c-0.012-0.452-0.023-0.818-0.023-1.059c0-0.273,0.029-0.767,0.069-1.385   C60.74,88.542,56.993,88.314,56.993,88.314z M61.678,82.996c0.002-0.082,0.005-0.165,0.007-0.246   c-0.045,0.099-0.092,0.185-0.132,0.252C61.617,82.999,61.66,82.997,61.678,82.996z M61.64,81.136   c0.019,0.03,0.034,0.061,0.05,0.092c-0.002-0.097-0.006-0.192-0.01-0.285C61.67,81.006,61.657,81.069,61.64,81.136z M54.465,77.943   c-0.923-0.25-1.482-0.552-1.485-0.554l0.909,1.706c0,0,0.009,0.073,0.029,0.201c0.083,0.019,0.181,0.016,0.293-0.013   c-0.214-0.231-0.41-0.486-0.58-0.773C53.631,78.511,53.971,78.317,54.465,77.943z M55.854,80.471   c-0.929,0.255-1.599,0.335-1.599,0.335c1.118,1.756,4.154,2.136,5.982,2.199c1.09-0.761,1.401-1.869,1.401-1.869   S58.398,81.672,55.854,80.471z M58.584,73.296c0,0-0.051,0.918-0.543,2.022c0.74-0.154,1.222-0.302,1.222-0.302   c0.043,0.911-0.323,1.762-0.874,2.516c1.077-0.007,1.936-0.064,2.197-0.085c-0.653-1.314-1.457-2.764-1.953-4.126   C58.606,73.308,58.584,73.296,58.584,73.296z M39.881,41.25c-0.011,0.195-0.033,0.399-0.064,0.61   C39.853,41.656,39.872,41.452,39.881,41.25z M35.576,84.573c-0.09,0.462-0.189,0.936-0.274,1.394   c0.208-0.004,1.012-0.026,1.947-0.192C36.458,85.325,35.688,84.67,35.576,84.573z M39.159,44.9   c2.098,0.173,4.017,0.069,5.736-0.196c-2.647-1.008-4.85-2.043-5.193-2.206c-0.179,0.864-0.45,1.806-0.649,2.7   C39.109,44.989,39.159,44.9,39.159,44.9z M35.172,86.758c0.035-0.071,0.076-0.086,0.076-0.086c0.076,0.034,0.175,0.054,0.288,0.064   c-0.131-0.188-0.222-0.391-0.265-0.607C35.233,86.344,35.199,86.554,35.172,86.758z M35.291,89.88   c0.107,1.012,0.292,2.213,0.683,3.272c0.898-0.509,1.976-0.862,2.936-1.101C37.456,91.674,35.896,91.016,35.291,89.88z    M50.797,52.052c-2.065,0.192-4.618,0.229-7.752-0.015c0.947,0.72,1.991,1.374,3.08,1.966c1.582-0.377,2.772-0.537,2.772-0.537   c0.222-0.138,0.657-0.297,1.228-0.466C50.354,52.685,50.578,52.368,50.797,52.052z M48.444,55.145   c0.282-0.333,0.557-0.671,0.824-1.013c-0.188,0.073-0.293,0.116-0.293,0.116c-0.556,0.058-1.114,0.185-1.668,0.364   C47.685,54.797,48.063,54.975,48.444,55.145z M38.745,49.785l0.042-1.24c-0.006-0.015-0.008-0.028-0.012-0.042   C38.768,48.904,38.757,49.337,38.745,49.785z M54.569,78.562c0,0,0.189,0.119,0.517,0.294c0.279-0.179,0.578-0.397,0.878-0.635   c-0.175-0.018-0.344-0.039-0.508-0.065C55.185,78.307,54.891,78.443,54.569,78.562z M38.591,55.229c0,0.412-0.209,2.028-0.31,3.919   c0.049-0.312,0.096-0.521,0.096-0.521c0.521-2.152,3.715-3.507,6.447-4.286c-1.133-0.829-2.14-1.652-2.992-2.411   c-0.992-0.096-2.035-0.218-3.138-0.371C38.643,53.262,38.591,54.816,38.591,55.229z M52.573,76.629l0.402,0.756   c-0.023-0.051-0.264-0.552-0.362-0.7C52.603,76.669,52.589,76.649,52.573,76.629z M61.558,79.866c0,0,0.005,0.012,0.015,0.035   c-0.153-0.688-0.518-1.506-0.952-2.385c-0.736,1.103-1.904,1.851-3.042,2.351C58.824,80.217,60.274,80.375,61.558,79.866z    M55.189,77.344c0.17-0.152,0.346-0.322,0.523-0.505c-1.416,0.11-2.547-0.277-3.324-0.659   C52.828,76.812,53.929,77.16,55.189,77.344z M56.726,90.937c0.146-0.302,0.242-1.162,0.242-1.162   c0.678,0.156,2.451-0.417,2.451-0.417c-1.199,0.104-2.399-0.104-2.399-0.104c0-0.133-0.016-0.335-0.037-0.548   c0.031,0.415,0.024,0.818-0.034,1.201C56.897,90.231,56.82,90.578,56.726,90.937z M59.601,62.104c0.021-0.24,0.023-0.43,0-0.551   V62.104z M37.979,70.937l-0.114-1.026C37.854,70.224,37.884,70.561,37.979,70.937z M41.854,73.051   c-2.352-0.677-3.876-2.114-3.876-2.114c0.066,0.27,0.08,0.516,0.056,0.748c0.204,0.812,0.853,1.59,1.62,2.261   c1.732-0.048,3.572-0.259,3.572-0.259C42.782,73.572,42.317,73.344,41.854,73.051z M37.622,90.881l3.746,0.726   c0.037-0.004,0.06-0.007,0.06-0.007l0.01,0.021l0.134,0.025c-0.237-0.543-0.506-1.058-0.769-1.558   C40.487,90.296,39.218,91.052,37.622,90.881z M57.152,32.384c0.031-1.008,0.289-1.954,0.662-2.813   c-2.061-0.703-4.637-1.645-7.229-2.754c-0.622,0.282-1.247,0.521-1.868,0.721L57.152,32.384z M52.457,16.062L52.457,16.062   c-0.001,0-0.001,0.001-0.002,0.001C52.456,16.062,52.456,16.062,52.457,16.062z M52.455,16.062   c-0.099,0.11-0.138,0.204-0.136,0.283C52.365,16.25,52.41,16.157,52.455,16.062z M48.702,16.687c2.444,0,3.747-0.622,3.754-0.625   c0.101-0.211,0.199-0.419,0.291-0.624c-0.007,0.002-0.011,0.003-0.018,0.005c-0.079,0.175-0.142,0.306-0.142,0.306   C51.727,16.113,48.702,16.687,48.702,16.687z M53.578,12.489c-1.198,1.573-5.945,1.855-8.527,1.889   c4.032,1.248,7.979,0.302,7.979,0.302c-0.046,0.182-0.188,0.514-0.3,0.759c0.007-0.001,0.012-0.002,0.017-0.004   c0.517-1.156,0.881-2.217,1.118-3.188C53.738,12.436,53.578,12.489,53.578,12.489z M52.88,16.733   c-0.143-0.081-0.302-0.152-0.478-0.211C52.519,16.635,52.729,16.7,52.88,16.733z M45.09,14.999c0.062,0.537,0.145,1.09,0.249,1.662   c0,0-0.019,0.008-0.049,0.022c2.522,0.093,6.696-1.034,7.439-1.241c0-0.001,0.001-0.002,0.001-0.004   C49.917,16.185,46.918,15.561,45.09,14.999z M53.996,18.121c-2.172,1.017-4.589,1.173-6.607,1.032   c0.713,0.339,1.396,0.677,2.046,1.011C52.159,19.19,53.996,18.121,53.996,18.121z M45.94,23.292   c2.557,0.52,4.823,0.443,6.713,0.105c0.223-0.207,0.433-0.415,0.63-0.621c-0.875-0.485-1.751-0.937-2.603-1.351   c-2.24,0.799-4.511,1-6.028,1.026C45.037,22.72,45.465,23.001,45.94,23.292z M51.248,24.552c-1.22-0.007-2.437-0.117-3.61-0.292   c0.691,0.368,1.455,0.748,2.301,1.134C50.405,25.129,50.842,24.846,51.248,24.552z M53.671,17.395   c-0.162-0.198-0.379-0.407-0.663-0.586c-0.868,0.731-5.479,1.833-5.479,1.833C49.252,19.048,53.435,17.484,53.671,17.395z    M59.437,28.826c0.608,0.176,1.235,0.352,1.885,0.526c-0.346-0.532-0.758-1.051-1.223-1.556   C59.871,28.125,59.647,28.475,59.437,28.826z M59.566,26.8c1.003-1.194,1.938-1.899,1.938-1.899   c0.046,0.035,0.088,0.077,0.127,0.122c-0.461-1.046-1.15-2.029-1.876-2.881c-1.176,0.865-2.48,1.457-3.851,1.837   C57.438,25.03,58.641,25.987,59.566,26.8z M39.133,28.342c-0.895-0.462-1.789-0.369-2.605-0.007   c0.772,0.965,1.633,1.864,2.329,2.132c0.121,0.047,0.236,0.074,0.347,0.081c2.243-0.816,18.153,3.876,18.153,3.876   s-4.904-3.453-10.53-6.381C42.663,28.937,39.133,28.342,39.133,28.342z M54.192,10.236c-0.065,0.256-0.161,0.502-0.304,0.729   c0.075,0.236,0.112,0.435,0.124,0.605C54.102,11.104,54.161,10.659,54.192,10.236z M62.252,33.138   c0.006-0.102,0.012-0.206,0.019-0.314c-3.284,0.572-4.583,0.482-5.051,0.239l0.137,1.361   C57.356,34.424,61.257,34.252,62.252,33.138z M60.254,38.876c2.919,0.522,3.337-1.564,3.337-1.564l0.51,0.708   c-0.467-0.734-0.895-1.457-1.223-2.077c0.054,0.143,0.087,0.222,0.087,0.222C63.069,37.833,60.254,38.876,60.254,38.876z    M38.249,62.017c0.018-0.372,0.049-0.611,0.049-0.611c-0.028-0.098-0.051-0.2-0.069-0.308   C38.23,61.405,38.236,61.714,38.249,62.017z M51.368,7.07c-2.017,0.613-4.499,1.824-6.296,2.771   c-0.114,0.957-0.166,2.009-0.129,3.157c3.633,0.291,8.945-2.033,8.945-2.033S53.267,8.706,51.368,7.07z M53.769,6.881   c0.02,0.05,0.04,0.099,0.059,0.15C53.806,6.975,53.786,6.925,53.769,6.881z M53.685,6.682c0,0,0.033,0.072,0.084,0.199   c-0.092-0.245-0.192-0.479-0.306-0.699L53.685,6.682z M46.172,5.439c-0.266,0.66-0.525,1.442-0.739,2.346   c1.34-0.657,2.889-1.288,4.226-1.796C48.703,5.572,47.553,5.342,46.172,5.439z M39.863,20.259c0,0,0.039-0.036,0.106-0.091   c-0.584,0.368-1.208,0.78-1.828,1.234c1.078,0.227,2.172,0.321,3.257,0.315C40.808,21.239,40.288,20.752,39.863,20.259z    M42.467,9.742c0.312-0.391,0.888-0.812,1.612-1.236c0.183-0.951,0.457-1.929,0.854-2.898c-0.702,0.139-1.454,0.355-2.263,0.667   c-0.661,0.881-0.488,2.358-0.126,4.012L42.467,9.742z M60.319,27.486c1.384,1.31,1.915,2.108,1.915,2.108s0.163,0.413,0.115,0.831   c-0.012,0.471-0.219,0.524-0.219,0.524s-1.312-0.377-3.315-1.042c-0.51,0.933-0.857,1.667-0.857,1.667   c1.982,1.251,4.381,0.104,4.381,0.104c-0.048,0.352-0.064,0.701-0.062,1.04c0.118-1.799,0.344-4.43-0.282-6.67   C61.513,26.075,60.91,26.683,60.319,27.486z M46.277,3.102c0,0,0.008-0.005,0.021-0.013c-1.633,0.599-2.738,2-3.628,3.186   c0,0,1.04-0.832,2.605-1.438C45.559,4.249,45.89,3.668,46.277,3.102z M58.702,21.004c-1.16-1.155-2.162-1.879-2.162-1.879   l-0.083-0.035c0.604,0.404,1.188,1.116,1.188,1.116c-0.412,0.771-0.867,1.47-1.354,2.108   C57.601,21.756,58.436,21.194,58.702,21.004z M51.874,5.184c0.308-0.107,0.557-0.191,0.728-0.25   c-1.275-1.427-3.031-2.043-4.221-2.128c-0.264-0.019-0.518-0.019-0.762-0.001C47.543,2.9,47.12,3.439,46.631,4.419   C48.198,4.063,50.058,4.089,51.874,5.184z M54.183,49.662c1.762-0.921,2.606-2.031,3.009-2.909   c-0.591,0.173-1.167,0.33-1.728,0.472C55.083,48.057,54.653,48.87,54.183,49.662z M58.034,46.491   c-0.168-0.522-0.332-0.972-0.474-1.256l0.386,1.256C57.985,46.491,58.016,46.491,58.034,46.491z M55.842,46.346   c0.607,0.069,1.102,0.105,1.47,0.124c0.275-0.727,0.249-1.235,0.249-1.235c-0.267-0.532-0.417-1.911-0.502-3.3   C56.843,43.448,56.419,44.923,55.842,46.346z M52.785,51.798c-0.151,0.214-0.307,0.425-0.464,0.635   c3.024-0.705,6.863-1.393,6.863-1.393v1.564c-2.305-0.548-5.394,0.103-7.567,0.74c-0.642,0.802-1.312,1.572-1.994,2.308   c0.158,0.065,0.317,0.129,0.476,0.192c1.083-1.021,4.243-3.349,9.164-1.637l0.038,1.683c0,0-5.13-1.608-8.356,0.281   c1.5,0.564,2.943,1.023,4.198,1.382c1.39,0.029,2.877,0.299,4.236,1.035c0.006,0.146,0.034,0.456,0.069,0.794   c-0.143-3.191-0.256-8.641-0.256-8.641s-0.6-2.517-1.155-4.244c-0.027,0.008-0.054,0.016-0.081,0.024l0.421,1.364   c-1.248,0.944-2.48,1.673-3.669,2.232c1.26-0.154,2.615-0.351,4.076-0.601C58.784,49.518,57.362,51.046,52.785,51.798z    M44.97,18.477c3.231-0.144,6.825-1.777,7.302-1.999c-0.002-0.001-0.005-0.002-0.008-0.003c-2.151,0.814-5.437,0.477-7.032,0.24   c-0.281,0.156-1.015,0.671-0.952,1.734C44.514,18.457,44.75,18.467,44.97,18.477z M35.776,27.342   c1.733-0.56,3.722-0.251,3.722-0.251c2.039,0.291,3.851,0.263,5.458,0.015c-3.411-1.645-6.915-2.947-9.637-3.075   c-0.547,0.699-0.984,1.458-1.239,2.282c0.102-0.299,0.238-0.631,0.412-0.891C34.492,25.422,35.03,26.308,35.776,27.342z    M42.739,11.13c0.163,0.683,0.341,1.382,0.488,2.073c0.006-0.335,0.025-0.61,0.025-0.61c0.165,0.078,0.342,0.143,0.525,0.198   c-0.028-0.697-0.024-1.462,0.035-2.27C43.27,10.822,42.887,11.043,42.739,11.13z M53.566,22.469   c1.571-1.74,2.291-3.339,2.396-3.584l-0.75-0.313c-1.122,1.191-2.48,2.023-3.881,2.602C52.13,21.614,52.872,22.047,53.566,22.469z    M44.23,16.645c0.021-0.03,0.042-0.059,0.065-0.088c0,0-0.207-0.747-0.363-1.955c-0.222-0.085-0.385-0.153-0.479-0.193   c0.012,0.077,0.022,0.153,0.033,0.229C43.585,15.38,43.854,16.049,44.23,16.645z M48.743,25.999   c-1.694-0.78-3.343-1.625-4.802-2.515c-3.015-0.803-5.286-1.805-5.835-2.056c-0.003,0.003-0.007,0.005-0.01,0.008l9.011,5.177   C47.685,26.435,48.229,26.229,48.743,25.999z M43.505,21.59c1.82-0.207,3.559-0.642,5.079-1.136   c-2.026-0.896-3.712-1.523-4.55-1.821c-0.687-0.166-1.094-0.304-1.094-0.304c0.17,0.038,0.346,0.066,0.522,0.09   c0.016-0.112,0.144-0.913,0.745-1.745l-0.11,0.003c0,0-1.02,0.408-1.224,1.428c-0.06,0.3-0.793,0.76-1.817,1.39   c0.125-0.047,0.25-0.083,0.371-0.096C41.428,19.399,41.867,20.26,43.505,21.59z M58.355,28.507c0.313-0.536,0.66-1.025,1.006-1.457   c-1.117-1.064-2.453-2.057-3.871-2.962c-0.342,0.083-0.687,0.156-1.035,0.216c-0.841,0.756-1.736,1.381-2.654,1.897   C53.649,26.961,55.817,27.739,58.355,28.507z M33.734,48.544c-1.839-0.916-3.046-0.458-3.371-0.298   c-0.16,1.371-0.276,2.636-0.329,3.734C30.255,51.674,31.854,49.513,33.734,48.544z M41.854,92.354   c-0.022-0.062-0.046-0.122-0.068-0.184c0.022,0.13,0.058,0.263,0.11,0.368l0.065,0.132C41.929,92.567,41.893,92.462,41.854,92.354z    M36.734,94.572c-0.214-0.285-0.395-0.601-0.529-0.862c0.521,1.106,1.323,1.963,2.59,2.112c3.259,0.383,3.995-0.495,3.226-2.974   C38.909,92.554,36.734,94.572,36.734,94.572z M40.225,88.958c-0.018-0.036-0.035-0.073-0.052-0.11   c-0.435-0.077-2.537-0.489-3.853-1.375c-0.722,0.125-1.151,0.06-1.151,0.06c-0.026-0.131-0.04-0.242-0.048-0.337   c-0.027,0.32-0.031,0.615,0.001,0.876c0.049,0.389,0.087,1.012,0.162,1.737C35.69,89.902,39.663,90.761,40.225,88.958z    M38.062,78.72c1.498,0.938,3.3,1.322,3.566,1.374c0.016-0.118,0.022-0.183,0.022-0.183s1.348-1.35,1.236-3.672   C41.343,78.15,39.41,78.644,38.062,78.72z M38.533,67.663c0,1.323,1.399,2.681,2.882,3.749c1.838,0.624,3.438,0.57,3.788,0.549   c0.166-0.571,0.284-1.188,0.322-1.841l1.02-2.652c0,0,0.009-0.012,0.021-0.032C43.727,69.876,38.533,67.663,38.533,67.663z    M42.129,62.302c-1.378,1.024-2.479,1.751-3.077,2.134c1.943,2.162,7.063,2.847,7.572,2.909c0.267-0.431,1.114-1.902,0.941-2.936   c-0.12-0.716,0.18-1.36,0.448-1.772C46.117,61.975,43.937,62.038,42.129,62.302z M44.933,72.752l-0.245,0.573   C44.772,73.142,44.855,72.95,44.933,72.752z M49.961,62.304l-0.046-0.233c0,0,1.314-2.134,9.604-1.341c0-0.001,0-0.002,0-0.003   c-1.675-0.213-3.319-0.618-4.905-1.158c-1.512-0.166-3.251-0.191-5.052,0.116c0,0-1.355-0.473-3.234-0.806   c-0.787,0.704-1.559,1.354-2.291,1.945c2.591,0.378,5.056,1.05,5.056,1.05c-0.122,0.021-0.233,0.059-0.332,0.104   C49.12,61.847,49.648,61.775,49.961,62.304z M51.01,72.709c0.159-0.712,0.774-1.307,1.587-1.794   c-0.972-0.092-1.838-0.326-2.356-0.801c0,0,6.049-0.104,8.292-2.555c0,0-6.311,1.407-8.136-0.209c0,0,6.568-0.429,8.989-3.836   c0.021-0.114,0.041-0.226,0.06-0.333c-1.129-0.024-8.104-0.152-9.229,0.411c0,2.652-0.612,3.468,0,3.672   c0.612,0.203-1.428,1.836,0,2.855l0.815,2.448C51.032,72.568,51.022,72.62,51.01,72.709z M30.641,56.728   c0.502,0.062,2.534,0.245,2.809-0.851c0,0-2.497,0.312-3.335-0.935c0.031,0.184,0.068,0.349,0.113,0.491   C30.356,55.843,30.495,56.277,30.641,56.728z M36.369,38.668c-0.354,0.088-0.712,0.128-1.065,0.134   c0.13,0.067,0.262,0.141,0.393,0.216C36.104,38.82,36.369,38.668,36.369,38.668z M34.706,37.672   c1.657-0.307,3.279-0.047,3.279-0.047c-0.16-0.94-0.582-1.624-1.12-2.122c-1.927,1.445-4.34,1.41-4.721,1.394l-0.012,0.089   C32.384,37.433,33.508,37.612,34.706,37.672z M35.326,69.228c-0.093-0.463-0.039-2.608,0.02-4.281   c0.452-0.602,0.599-1.618,0.185-2.169c-0.611-0.816-0.431-3.559-0.431-3.559s0.839,2.742,1.655,2.335   c0.815-0.408-1.225-5.509-1.225-5.509s-1.02-1.428-0.815-3.672c0.048-0.529,0.244-1.572,0.516-2.855   c-0.032,0.004-4.786,0.584-5.192,3.825c0.006,0.171,0.013,0.341,0.02,0.5c0.308,0.304,1.998,1.787,4.538,0.47   c0,0-0.521,4.381-3.337,4.067c0,0,1.669,3.442,3.754,2.921c0,0-0.104,1.146,0.418,1.564c0,0-2.086-0.417-3.442-2.086l-1.206-3.361   c-0.035,2.236-0.205,11.845-0.619,15.017c-0.469,3.599,0.469,8.293,0.312,9.387c-0.156,1.096,1.252,0.313,1.252,0.313   s-0.626-7.822-0.156-11.265c0.269-1.971,0.486-6.3,0.623-9.641c0.852,2.26,1.701,4.085,2.266,4.189   c-0.39,1.532-0.765,2.969-0.542,3.339C34.387,69.54,35.482,70.01,35.326,69.228z M36.6,34.129c0.252-0.221,0.421-0.389,0.478-0.446   c-1.164-0.327-2.377-0.048-2.377-0.048C35.479,33.655,36.103,33.849,36.6,34.129z M32.122,36.896c0.008,0,0.013,0,0.022,0.001   l0.072-0.528C32.186,36.544,32.154,36.72,32.122,36.896z M30.009,53.75c0.002-0.141,0.013-0.275,0.029-0.407   c-0.011-0.283-0.02-0.573-0.025-0.842C29.999,52.953,29.997,53.371,30.009,53.75z M35.782,34.784   c-1.442-0.681-3.037-0.601-3.037-0.601c0.938-1.225,2.49-1.383,3.76-1.254c-1.287-1.001-3.483-0.257-3.623-0.208   c-0.176,0.957-0.363,1.977-0.555,3.036C33.436,36.204,34.797,35.496,35.782,34.784z M30.11,54.917   c-0.006-0.102-0.029-0.538-0.053-1.074c-0.029-0.028-0.044-0.044-0.048-0.049C30.024,54.222,30.058,54.598,30.11,54.917z    M38.019,71.814c-0.13,0.769-0.679,1.391-1.17,2.169c0.113-0.133,0.198-0.219,0.198-0.219c0.373,0.124,0.981,0.177,1.674,0.188   c-0.569-0.822-0.771-1.564-0.735-1.674C38.012,72.198,38.02,72.019,38.019,71.814z M38.591,33.404   c0.309,0.669,0.739,1.269,1.262,1.808c4.748-0.738,17.011,3.091,17.011,3.091c-0.594,0.653-1.305,1.18-2.095,1.603   c1.345,0.075,2.199,0.066,2.199,0.066l0.015,0.257c-0.034-1.097-0.034-1.931-0.034-1.931l0.816-2.039   c0,0-10.199-2.448-13.055-2.856C41.854,32.995,38.591,33.404,38.591,33.404z M63.732,51.589l0.064-1.62   C63.759,50.521,63.732,51.083,63.732,51.589z M69.008,45.781c-0.016-0.15-0.024-0.267-0.024-0.342c0-0.815-0.408-2.651-1.428-3.06   c-0.385-0.154-1.203-1.118-2.085-2.337c0.11,3.645-3.966,4.258-3.966,4.258l-1.564-1.564c5.215-0.313,4.589-3.963,4.589-3.963   c-3.441,3.129-6.779-0.313-6.779-0.313c3.253,0.39,4.278-1.912,4.59-3.699c-0.044-0.13-0.074-0.244-0.088-0.337   c0,0-0.204,2.04-4.487,1.836c0,0-0.612,4.284,1.428,5.916c0.552,0.441,1.164,1.003,1.763,1.586   c0.149,2.685,0.576,10.654,0.576,13.498c0,3.442-0.938,5.162-0.938,5.162l1.095,0.312c0,0,1.095-3.128,0.781-5.475   c-0.223-1.678-0.207-8.43-0.18-12.146c0.023,0.023,0.044,0.045,0.066,0.069c-0.026-0.031-0.043-0.048-0.043-0.048   s4.694-0.47,4.694-3.051c0,0,0.626,0.313,0.938,0.626c0.306,0.306-3.268,3.443-4.818,3.297c0.011,0.011,0.021,0.024,0.032,0.035   C63.852,46.26,66.996,47.137,69.008,45.781z M38.872,31.784c0,0-2.291-0.874-3.796-2.501c-1.096,0.939-1.861,2.09-1.978,2.269   l-0.003,0.019c2.708-1.34,5.495,1.834,5.495,1.834l0.356-1.665C38.9,31.768,38.872,31.784,38.872,31.784z M34.272,28.181   c-0.173-0.318-0.305-0.657-0.388-1.014c-0.163,1.01-0.446,2.542-0.787,4.385c0.001,0,0.001,0,0.001-0.001l0.454-2.375   C33.731,28.777,33.979,28.45,34.272,28.181z M31.571,40.441c0,0,0.006,0.002,0.016,0.005l0.193-0.839   c0.558,0.507,1.658,0.298,2.642-0.05c-1.335-0.451-2.538-0.368-2.538-0.368c0.255-0.335,0.567-0.604,0.915-0.821   c-0.498-0.171-0.811-0.327-0.811-0.327l0.145-1.055c-0.008-0.014-0.013-0.028-0.019-0.043c-0.272,1.531-0.547,3.12-0.805,4.701   l0.27-1.169C31.577,40.464,31.573,40.453,31.571,40.441z M66.381,56.398l-0.156-0.626c0.329,0.22,1.504-0.099,2.176-0.31   c-1.035,0.203-2.283-0.296-2.329-0.314c0.187,1.195,0.418,2.279,0.668,2.529c0.559,0.56,2.817-0.074,3.206-2.361   C69.921,55.405,69.9,55.46,69.9,55.46C66.772,57.103,66.381,56.398,66.381,56.398z M63.801,49.907   c0.037,0.021,1.433,0.77,3.362-0.157c0,0-2.66-0.156-3.207-1.408c0,0,0.006-0.09,0.008-0.226   C63.91,48.619,63.848,49.252,63.801,49.907z M69.151,46.873c-0.341,0.122-2.584,0.866-4.961,0.217c0,0,2.269,2.347,5.24,2.034   c0,0-2.894,2.269-5.631,1.877c0,0,0.156,1.565,1.564,1.565c0,0-0.235,0.703-0.626,0.781c0,0-0.611-0.536-1.003-1.454   c0.018,0.798,0.113,1.402,0.352,1.5c1.312,0.538,1.542-1.927,1.542-1.927s0.078,0.871,0.209,1.962   c0.784,0.462,2.421-0.628,2.421-0.628c-0.86,0.547-2.348,0.156-2.348,0.156l-0.234-1.252c0.391,1.564,3.989-0.078,3.989-0.078   c-0.392,1.955-3.676,2.503-3.676,2.503c1.095,1.173,3.988,0.078,3.988,0.078c0.008,0.032,0.015,0.063,0.021,0.095   C69.95,52.154,69.426,48.812,69.151,46.873z M56.152,92.891l-0.01,0.029c2.331-0.271,5.154,0.949,5.154,0.949   c0,0.111-0.004,0.223-0.009,0.33c0.103-0.798,0.156-1.637,0.181-2.442c-0.006-0.001-0.01,0-0.016,0   C59.479,91.615,56.699,92.673,56.152,92.891z M59.889,91.131c-0.705-0.353-3.012-0.171-3.173-0.158   c-0.165,0.623-0.379,1.282-0.585,1.927c0.007-0.003,0.013-0.006,0.021-0.009l0.346-1.082   C56.915,91.443,59.889,91.131,59.889,91.131z M55.725,94.228l0.139-0.433c-0.004-0.003-0.008-0.005-0.012-0.007   C55.807,93.938,55.765,94.084,55.725,94.228z M55.879,93.699c0.005-0.001,0.01-0.001,0.015-0.001l0.249-0.778   c-0.007,0.001-0.013,0.002-0.02,0.002C56.038,93.185,55.956,93.444,55.879,93.699z M58.819,83.604   c-2.433-0.271-3.833-1.262-4.136-1.496c0.008,0.016,0.014,0.032,0.021,0.048c0.117,0.271,0.284,0.624,0.478,1.036   C56.722,83.733,57.908,83.793,58.819,83.604z M33.074,31.683l0.021-0.113l-0.001,0C33.088,31.608,33.081,31.646,33.074,31.683z    M49.818,45.096c1.71,0.505,3.225,0.828,4.476,1.034c1.781-3.51,2.674-6.157,2.674-6.157C55.187,42.511,52.54,44.102,49.818,45.096   z M58.637,97.075c-1.018-1.017-3.129-1.877-3.129-1.877l0.104-0.365c0.626-0.052,1.826,0.887,1.826,0.887   c-0.304-0.557-1.682-1.258-1.766-1.3c-0.358,1.354-0.435,2.427,0.46,2.626c1.758,0.391,4.447,0.218,5.033-2.122   c-1.847-1.393-4.6-1.278-5.271-1.226l-0.03,0.097C58.407,95.56,58.637,97.075,58.637,97.075z M51.707,75.806   c-0.104-0.063-0.192-0.119-0.268-0.164c-0.053-0.031-0.1-0.071-0.144-0.118c0.071,1.149,0.427,7.153,0.144,8.566l0.939,1.408   l-0.292-9.449C51.959,76.006,51.827,75.912,51.707,75.806z M66.034,54.899l-0.154-1.136C65.925,54.133,65.978,54.52,66.034,54.899z    M39.643,81.368c0.771,0.324,1.41,0.481,1.581,0.521c0.238-0.801,0.349-1.419,0.396-1.737   C41.128,80.775,40.411,81.15,39.643,81.368z M36.421,78.614c0.399,0.914,1.153,1.597,1.95,2.098   c0.911-0.175,1.648-0.454,1.648-0.454c-1.555-0.216-2.584-0.956-3.194-1.576C36.569,78.649,36.421,78.614,36.421,78.614z    M36.045,76.119c-0.001,0.014-0.002,0.027-0.004,0.041c0.154,0.783,0.607,1.425,1.195,1.946c1.552,0.065,3.641-1.016,4.57-1.55   C38.771,77.437,36.251,76.223,36.045,76.119z M39.601,86.004c-0.847,0.608-1.622,0.982-2.28,1.208   c0.604,0.363,1.439,0.694,2.478,0.709C39.59,87.291,39.494,86.661,39.601,86.004z M38.768,67.038   c2.034,1.095,5.711,0.625,5.711,0.625c-3.051-0.078-5.711-2.425-5.711-2.425c-0.025-0.048-0.047-0.1-0.07-0.15   c0.182,0.979,0.057,1.716-0.146,2.368C38.678,67.208,38.768,67.038,38.768,67.038z M42.316,60.627   c0.925-0.581,1.806-1.236,2.643-1.949c-1.285-0.147-2.699-0.188-4.041,0.021c-1.192,1.092-2.067,2.064-2.433,2.486   C39.136,60.588,40.64,60.495,42.316,60.627z M36.566,86.662c0.906-0.153,1.889-0.46,1.889-0.46c-0.191,0-0.412-0.058-0.646-0.152   c-0.559,0.129-1.146,0.231-1.623,0.231C36.187,86.281,36.316,86.44,36.566,86.662z M46.569,57.188   c-0.956,0.173-2.197,0.442-3.812,0.853c0,0,1.528-0.23,3.204-0.261C46.167,57.586,46.37,57.389,46.569,57.188z M42.875,76.054   c0-0.006,0-0.012-0.001-0.019c0,0,0.838-0.838,1.574-2.229c-0.916,0.596-2.49,0.773-3.987,0.78   C41.497,75.344,42.535,75.885,42.875,76.054z M36.125,77.786c0.051,0.274,0.12,0.563,0.213,0.87   C36.352,78.271,36.18,77.896,36.125,77.786z M39.751,85.419c-0.016,0.028-0.03,0.055-0.045,0.079c0,0-0.262,0.094-0.659,0.216   c0.244,0.049,0.45,0.074,0.594,0.085C39.669,85.674,39.706,85.547,39.751,85.419z M35.795,80.258c0,0,0.045,0.167,0.166,0.424   c0.404,0.151,0.892,0.188,1.387,0.162c-0.812-0.745-1.21-1.542-1.083-1.838c0.041-0.097,0.062-0.197,0.071-0.299   c-0.065,0.121-0.414,0.797-0.593,1.611C35.76,80.297,35.776,80.276,35.795,80.258z M40.88,76.424c-1.742,0-4.224-1.211-4.572-1.386   c-0.073,0.192-0.134,0.396-0.183,0.613C37.771,76.657,40.88,76.424,40.88,76.424z M40.188,84.481   c0.016-0.034,0.03-0.069,0.045-0.104c-0.301-0.079-1.252-0.346-2.213-0.771c-1.17,0.194-2.067,0.015-2.067,0.015   c0.613,1.074,1.567,1.621,2.379,1.9c0.67-0.201,1.318-0.493,1.793-0.915C40.146,84.564,40.167,84.522,40.188,84.481z    M38.387,82.925c0.999-0.231,1.867-0.634,1.867-0.634c-0.708-0.125-1.339-0.378-1.879-0.692c-0.677,0.066-1.319,0.051-1.812,0.015   C36.959,82.082,37.542,82.577,38.387,82.925z M35.735,81.951c0.094,0.329,0.101,0.746,0.058,1.212l0.081-0.481   c0.28,0.263,0.679,0.376,1.121,0.398c-0.647-0.394-1.172-0.866-1.321-1.406C35.688,81.768,35.709,81.859,35.735,81.951z    M41.198,81.974c-0.576,0.595-1.213,0.992-1.839,1.253c0.387,0.085,0.813,0.142,1.286,0.16c0,0-0.19,0.474-0.413,0.99   c0.003,0.001,0.005,0.002,0.007,0.002C40.681,83.494,40.987,82.669,41.198,81.974z M39.202,74.557   c-1.429-0.071-2.546-0.244-2.546-0.244c0.59,1.033,2.948,1.479,4.614,1.667C40.381,75.635,39.703,75.108,39.202,74.557z    M33.486,44.985c-1.13-0.763-2.303-1.178-2.507-1.247c-0.142,0.93-0.273,1.845-0.393,2.731l0.255-0.814   C31.413,46.085,32.721,45.436,33.486,44.985z M47.541,56.173c-0.544-0.336-1.069-0.679-1.575-1.024   c-1.673,0.79-3.249,1.969-4.533,3.09c1.789-0.694,4.029-1.469,5.881-1.816C47.391,56.339,47.466,56.256,47.541,56.173z    M36.108,44.665c-0.095-0.081-0.246-0.157-0.43-0.228C35.943,44.583,36.108,44.665,36.108,44.665z M32.361,41.914   c0.413,0.486,0.935,0.938,1.457,1.33c1.198,0.081,2.229,0.404,2.564,0.52l0.029-0.098C35.603,42.447,33.596,42.046,32.361,41.914z    M31.192,42.372c-0.071,0.448-0.141,0.894-0.208,1.337c0.332-0.167,0.685-0.284,1.045-0.36   C31.604,42.919,31.297,42.513,31.192,42.372z M32.008,41.448c2.064-0.949,4.961-0.069,4.961-0.069   c-0.382-0.538-0.845-0.944-1.333-1.251c-1.888,0.972-3.862,0.378-4.049,0.318l-0.008,0.03   C31.648,40.806,31.799,41.132,32.008,41.448z M30.854,46.647c1.891-0.029,4.126,1.066,4.704,1.367   c0.025-0.113,0.05-0.226,0.076-0.34c-0.168-0.719-0.594-1.34-1.125-1.863C33.138,46.435,31.531,46.603,30.854,46.647z    M38.122,34.201c-0.179,0.257-0.369,0.492-0.573,0.702c0.712,0.809,0.906,1.706,0.906,1.706l-0.704,2.112   c-0.097-0.057-0.213-0.104-0.342-0.146c-0.278,0.383-0.577,0.701-0.888,0.962c0.485,0.324,0.838,0.592,0.838,0.592l-0.469,1.721   c-0.156-0.235-3.363-0.313-2.269-0.235s2.034,1.252,2.034,1.252l-0.244,0.799c0.03,0.046,0.061,0.091,0.087,0.139   c0,0-0.042-0.016-0.116-0.042l-0.274,0.902c-0.198,0.236-0.431,0.443-0.687,0.627c0.365,0.349,0.608,0.625,0.608,0.625   l-0.012,0.077c0.833-3.597,1.756-7.287,1.756-7.287l1.208-3.223l-0.006-0.049C38.787,34.883,38.482,34.486,38.122,34.201z    M40.235,49.281c1.658,0.772,5.052,1.637,11.645,1.122c0.583-0.927,1.116-1.844,1.599-2.727   c-10.006,2.022-14.606-0.977-14.606-0.977C39.168,47.62,39.637,48.479,40.235,49.281z M38.958,45.647   c-0.056,0.289-0.102,0.57-0.13,0.839c0.024-0.127,0.049-0.24,0.071-0.333C38.914,45.959,38.936,45.792,38.958,45.647z    M51.017,58.085c-0.764-0.368-1.505-0.76-2.219-1.167c-0.123,0.003-0.261,0.01-0.417,0.021c-0.302,0.301-0.604,0.594-0.905,0.88   c0.958,0.076,1.825,0.264,2.321,0.652C49.797,58.472,50.26,58.288,51.017,58.085z M52.848,46.751   c-1.377-0.017-3.193-0.446-5.035-1.026c-2.507,0.667-4.913,0.897-6.597,0.969C46.318,48.041,52.848,46.751,52.848,46.751z    M52.415,40.823c-5.465,1.501-12.5-0.121-12.5-0.121c2.578,1.555,5.048,2.692,7.292,3.524c4.623-1.198,7.284-3.394,7.284-3.394   C53.765,40.844,53.075,40.84,52.415,40.823z M39.779,36.82c-0.329,0.058-0.521,0.106-0.575,0.122   c0.156,1.075,0.383,2.488,0.61,3.396c0.033,0.135,0.054,0.281,0.064,0.434c-0.045-1.011-0.329-1.844-0.329-1.844   c2.185,0.639,4.242,0.952,6.105,1.061C42.312,39.14,40.621,37.821,39.779,36.82z M41.614,36.619   c2.869,1.809,6.939,2.643,10.169,3.027c2.212-0.388,3.516-0.926,3.516-0.926C48.724,36.678,44.165,36.472,41.614,36.619z"/>
</g>
</svg>