<svg xmlns="http://www.w3.org/2000/svg" xmlns:xlink="http://www.w3.org/1999/xlink" version="1.1" x="0px" y="0px" width="100px" height="100px" viewBox="0 0 100 100" enable-background="new 0 0 100 100" xml:space="preserve">
<g id="Layer_1" display="none">
	<path display="inline" d="M53.208,26.833c8.301-9.13,9.961-24.069,9.961-24.069h-3.97c0,0-1.628,14.524-9.636,23.682   c-1.261-1.442-2.362-3.013-3.325-4.644h4.865c0.845-1.431,1.59-2.897,2.231-4.361h-9.327c-0.806-1.839-1.458-3.652-1.989-5.356   h13.304c0.495-1.586,0.887-3.067,1.186-4.362H40.834c-0.682-2.963-0.908-4.959-0.908-4.959H35.96c0,0,1.66,14.939,9.959,24.069   c0.571,0.627,1.123,1.236,1.661,1.834c-7.296,8.099-11.62,13.674-11.62,21.402c0,7.725,4.324,13.302,11.62,21.404   c-0.538,0.598-1.09,1.206-1.661,1.833c-8.299,9.13-9.959,24.068-9.959,24.068h3.966c0,0,0.21-1.826,0.82-4.563h15.849   c-0.286-1.284-0.659-2.759-1.147-4.363H41.895c0.514-1.693,1.15-3.51,1.939-5.354h9.675c-0.623-1.459-1.343-2.928-2.166-4.363   h-5.344c1.017-1.771,2.201-3.478,3.564-5.036c8.008,9.156,9.636,23.681,9.636,23.681h3.97c0,0-1.66-14.938-9.961-24.068   c-0.57-0.627-1.122-1.235-1.661-1.835c7.297-8.1,11.622-13.677,11.622-21.402c0-7.727-4.325-13.303-11.622-21.402   C52.086,28.069,52.638,27.46,53.208,26.833z M54.82,37.472h-8.522c-1.012,1.469-1.854,2.91-2.526,4.365h13.574   c0.929,2.009,1.521,4.052,1.743,6.247h-17.06c-0.065,0.649-0.111,1.306-0.111,1.985c0,0.816,0.062,1.604,0.157,2.378h16.968   c-0.269,2.188-0.897,4.231-1.876,6.249H43.95c0.704,1.449,1.588,2.89,2.626,4.363h7.964c-1.384,1.96-3.055,3.988-4.978,6.181   c-6.086-6.939-9.637-12.177-9.637-19.171c0-6.996,3.551-12.232,9.637-19.17C51.615,33.237,53.386,35.389,54.82,37.472z"/>
</g>
<g id="Layer_2">
	<g>
		<path d="M29.438,62.382c0,0,6.197,1.921,8.561,7.894C38,70.275,36.845,62.963,29.438,62.382z M92.883,7.014    c0,0-5.263-5.475-7.925-4.195c-2.662,1.281,0.294,5.301,0.294,5.301L71.918,21.325c0,0-3.896-3.044-5.222-1.948    c-2.236,1.852-0.407,4.148-0.407,4.148L28.402,61.738c0,0-1.097,0.806,1.019,3.53l-2.586,2.915c0,0-0.496,0.702,0.207,1.198    l-4.311,4.856c0,0-0.69,1.973-0.552,2.771c0,0-19.626,19.328-19.206,19.975c0.42,0.648,19.626-19.326,19.626-19.326    s1.75,0.009,2.151-0.061c0.399-0.069,5.409-5.048,5.409-5.048s0.872,0.879,1.337,0.595c0.466-0.287,3.021-2.784,3.021-2.784    s2.095,2.007,3.439,0.849c1.345-1.156,37.889-38.212,37.889-38.212s2.56,1.721,4.27,0.296c1.71-1.427-2.064-6.026-2.064-6.026    l13.404-13.008c0,0,3.149,2.751,4.971,0.175C98.244,11.855,92.883,7.014,92.883,7.014z M23.763,77.251    c-0.122-0.904-1.019-1.129-1.019-1.129C24.938,75.188,23.763,77.251,23.763,77.251z M30.373,65.721c0,0,1.983,0.758,3.799,3.737    L30.373,65.721z M38,70.275c-1.428,1.275-3.422-0.749-3.422-0.749c-1.35-3.061-4.24-4.313-4.24-4.313    c-2.281-2.489-1.267-3.179-1.267-3.179l12.298-12.268c0,0,0.514,2.554,3.187,5.764c2.904,2.519,5.495,2.828,5.495,2.828    S39.427,69.002,38,70.275z M50.851,56.437c-1.908-4.509-7.424-7.265-7.424-7.265C49.42,50.508,50.851,56.437,50.851,56.437z     M52.213,55.379c-2.734-6.322-7.71-7.73-7.71-7.73C50.544,48.668,52.213,55.379,52.213,55.379z M54.182,54.451    c-0.447-0.694-4.479-6.772-9.413-8.565l0.461-0.42c5.211,1.838,9.417,8.509,9.417,8.509L54.182,54.451z M88.378,6.348l1.036,3.631    L75.361,24.023c-1.342-1.96-2.808-2.345-2.808-2.345L88.378,6.348z M79.558,32.46c-1.526,1.292-2.867,0.082-2.867,0.082    s2.841-2.032-2.74-7.556s-7.146-2.064-7.146-2.064s-1.345-1.827,0.317-2.936c1.663-1.109,7.511,4.78,7.511,4.78    S81.085,31.169,79.558,32.46z M77.627,26.618c0,0-0.467-1.178-1.723-2.037l13.979-14.067l3.274,1.084L77.627,26.618z"/>
	</g>
</g>
</svg>