<?xml version="1.0" encoding="utf-8"?>
<!-- Generator: Adobe Illustrator 14.0.0, SVG Export Plug-In . SVG Version: 6.00 Build 43363)  -->
<!DOCTYPE svg PUBLIC "-//W3C//DTD SVG 1.0//EN" "http://www.w3.org/TR/2001/REC-SVG-20010904/DTD/svg10.dtd">
<svg version="1.0" id="Layer_1" xmlns="http://www.w3.org/2000/svg" xmlns:xlink="http://www.w3.org/1999/xlink" x="0px" y="0px"
	 width="100px" height="88.826px" viewBox="0 0 100 88.826" enable-background="new 0 0 100 88.826" xml:space="preserve">
<path d="M38.538,60.042c-0.388,0.178-0.792,0.274-1.206,0.274c-3.097,0-5.607-5.241-5.607-11.707c0-5.978,2.146-10.905,4.917-11.616
	v-0.002l3.66-1.538L27.363,9.958L0,0l32.667,64.373l27.363,9.959l-9.748-19.209l-11.744,4.921V60.042z"/>
<path d="M67.333,24.453L39.97,14.494l8.826,17.394l11.646-4.891c0.124-0.062,0.251-0.115,0.378-0.159l0.027-0.011v0.002
	c0.289-0.097,0.585-0.148,0.887-0.148c3.097,0,5.606,5.24,5.606,11.707c0,5.558-1.854,10.208-4.343,11.405v0.003l-0.059,0.025
	c-0.059,0.026-0.117,0.051-0.177,0.074l-3.982,1.668l13.856,27.305L100,88.826L67.333,24.453z"/>
</svg>
