<svg xmlns="http://www.w3.org/2000/svg" xmlns:xlink="http://www.w3.org/1999/xlink" version="1.1" id="Layer_1" x="0px" y="0px" width="100.0px" height="100px" viewBox="0 0 170.08 170.08" enable-background="new 0 0 170.08 170.08" xml:space="preserve">
<path fill-rule="evenodd" clip-rule="evenodd" fill="#000000" d="M131.836,7.151c11.648,6.917,15.485,21.967,8.567,33.615  l-0.12,0.203l-18.898,31.83l-6.769-4.019l-2.784-27.939L85.97,51.771l-2.495-1.481l-41.84,70.465  c6.868-2.794,14.917-2.453,21.784,1.624c8.683,5.155,13.024,14.83,11.801,24.254l62.791-63.833l9.047-2.109l-78.27,79.568  c-0.111,0.119-0.223,0.236-0.337,0.353c-7.727,7.926-20.14,9.853-30.079,3.95c-11.647-6.916-15.484-21.966-8.568-33.614  c0.016-0.026,0.031-0.053,0.047-0.077c0.025-0.044,0.05-0.083,0.075-0.125l49.277-82.992l7.881-13.273l11.018-18.556l0.119-0.204  C105.138,4.071,120.188,0.234,131.836,7.151L131.836,7.151z M60.881,126.651c-9.287-5.515-21.288-2.456-26.803,6.832  c-5.515,9.288-2.456,21.289,6.832,26.804c9.289,5.515,21.289,2.457,26.804-6.832C73.229,144.167,70.169,132.166,60.881,126.651  L60.881,126.651z M121.182,25.095c-4.043-2.402-9.269-1.07-11.67,2.974c-2.4,4.044-1.069,9.27,2.975,11.671  c4.045,2.4,9.269,1.069,11.67-2.975C126.559,32.72,125.227,27.495,121.182,25.095z"/>
</svg>