<?xml version="1.0" encoding="utf-8"?>
<!-- Generator: Adobe Illustrator 14.0.0, SVG Export Plug-In . SVG Version: 6.00 Build 43363)  -->
<!DOCTYPE svg PUBLIC "-//W3C//DTD SVG 1.0//EN" "http://www.w3.org/TR/2001/REC-SVG-20010904/DTD/svg10.dtd">
<svg version="1.0" id="Layer_1" xmlns="http://www.w3.org/2000/svg" xmlns:xlink="http://www.w3.org/1999/xlink" x="0px" y="0px"
	 width="47.716px" height="100px" viewBox="0 0 47.716 100" enable-background="new 0 0 47.716 100" xml:space="preserve">
<path d="M47.716,23.888c0-1.888-1.147-3.507-2.782-4.199c0.811-0.824,1.312-1.952,1.312-3.199c0-2.505-2.02-4.536-4.52-4.557
	c0.215-0.529,0.335-1.105,0.335-1.711c0-2.518-2.04-4.559-4.559-4.559c-0.602,0-1.174,0.119-1.7,0.331
	c-0.021-2.5-2.052-4.521-4.558-4.521c-1.242,0-2.367,0.499-3.189,1.306C27.362,1.145,25.744,0,23.858,0
	c-1.886,0-3.504,1.145-4.197,2.779c-0.823-0.807-1.948-1.306-3.191-1.306c-2.505,0-4.536,2.02-4.556,4.521
	c-0.526-0.211-1.099-0.331-1.701-0.331c-2.518,0-4.559,2.041-4.559,4.559c0,0.605,0.121,1.182,0.334,1.711
	C3.49,11.954,1.47,13.984,1.47,16.489c0,1.247,0.501,2.375,1.312,3.199C1.148,20.38,0.002,21.998,0,23.884v-0.001
	c0,0.001,0,0.004,0,0.005c0,0.002,0,0.004,0,0.006v-0.001c0.001,1.887,1.148,3.504,2.782,4.196C1.972,28.912,1.47,30.04,1.47,31.287
	c0,2.505,2.02,4.536,4.519,4.557c-0.214,0.529-0.334,1.105-0.334,1.711c0,2.519,2.041,4.559,4.559,4.559
	c0.602,0,1.175-0.119,1.701-0.331c0.017,2.001,1.321,3.691,3.125,4.288L3.588,97.133l7.872-5.165L16.373,100l7.485-33.38L31.343,100
	l4.913-8.031l7.872,5.165L32.677,46.071c1.805-0.597,3.109-2.287,3.126-4.288c0.526,0.212,1.099,0.331,1.7,0.331
	c2.519,0,4.559-2.041,4.559-4.559c0-0.605-0.12-1.182-0.335-1.711c2.5-0.021,4.52-2.052,4.52-4.557c0-1.247-0.502-2.375-1.312-3.199
	C46.569,27.396,47.716,25.777,47.716,23.888z M23.858,38.716c-8.189,0-14.828-6.639-14.828-14.829
	c0-8.188,6.639-14.827,14.828-14.827c8.188,0,14.827,6.639,14.827,14.827C38.685,32.078,32.046,38.716,23.858,38.716z"/>
</svg>
