<svg xmlns="http://www.w3.org/2000/svg" xmlns:xlink="http://www.w3.org/1999/xlink" version="1.1" id="Calque_1" x="0px" y="0px" width="100px" height="100px" viewBox="0 0 100 100" enable-background="new 0 0 100 100" xml:space="preserve">
<path d="M88.336,20.643c-4.807-8.637-15.702-11.742-24.337-6.936c-5.019,2.792-9.165,12.014-11.759,19.25  c1.612-7.521,2.957-17.561,0.161-22.585C47.596,1.736,36.701-1.369,28.065,3.437c-8.635,4.805-11.741,15.7-6.936,24.337  c2.77,4.977,11.864,9.097,19.073,11.694c-7.499-1.595-17.417-2.895-22.4-0.122c-8.636,4.806-11.741,15.702-6.935,24.337  c4.805,8.636,15.7,11.741,24.337,6.937c1.972-1.098,3.807-3.195,5.468-5.769c-4.563,12.725-11.717,27.618-19.09,23.018  c-0.121-0.076-0.187-0.132-0.403,0.084c-0.503,0.503,6.983,13.424,10.826,10.19c2.634-2.216,8.803-18.029,13.19-31.796  c0.07,2.991,0.529,5.672,1.605,7.605c4.805,8.636,15.702,11.742,24.336,6.938c8.636-4.806,11.741-15.703,6.937-24.339  c-2.77-4.977-11.865-9.096-19.075-11.695c7.499,1.596,17.418,2.896,22.401,0.124C90.036,40.174,93.141,29.278,88.336,20.643z"/>
</svg>