<svg xmlns="http://www.w3.org/2000/svg" xmlns:xlink="http://www.w3.org/1999/xlink" version="1.1" id="Layer_1" x="0px" y="0px" width="100.0px" height="100px" viewBox="0 0 128 128" enable-background="new 0 0 128 128" xml:space="preserve">
<path d="M82,28.755c0-3.952-1.758-7.653-5.225-10.427c-2.865-2.292-6.43-3.723-10.373-4.134C65.615,14.066,64.851,14,64.038,14  c-0.806,0-1.581,0.065-2.36,0.19c-3.958,0.406-7.61,1.839-10.483,4.138c-3.467,2.773-5.391,6.475-5.388,10.427  c0.009,11.287,1.837,22.014,5.177,30.031c3.104,7.449,7.204,11.865,11.657,12.626c0.473,0.124,0.953,0.188,1.436,0.188  c0.492,0,0.98-0.066,1.462-0.195c4.437-0.781,8.358-5.193,11.452-12.619C80.332,50.769,82,40.119,82,28.795  C82,28.794,82,28.759,82,28.755z M63,68.857c0-0.4-0.528-0.982-0.868-1.831c-0.814-2.042-1.528-4.989-2.164-8.759  C58.647,50.434,57.932,40,57.932,28.888c0-3.585,0.654-6.939,1.915-9.444C60.763,17.625,62,16.451,63,16.036V68.857z M65,16.033  c1,0.413,2.311,1.587,3.229,3.41c1.262,2.505,1.969,5.859,1.969,9.444c0,11.112-0.721,21.546-2.044,29.379  c-0.636,3.77-1.397,6.717-2.213,8.758C65.6,67.878,65,68.461,65,68.861V16.033z M59.839,16.237c-0.572,0.66-1.1,1.461-1.57,2.396  c-1.386,2.752-2.148,6.394-2.148,10.254c0,11.209,0.736,21.75,2.074,29.679c0.657,3.896,1.428,6.967,2.29,9.127  c0.169,0.425,0.343,0.812,0.521,1.166c-2.256-1.761-4.388-5.411-6.113-10.587c-2.619-7.858-4.062-18.33-4.064-29.486  C50.83,22.965,54.607,18.009,59.839,16.237z M67.143,68.865c0.178-0.354,0.353-0.744,0.523-1.172  c0.863-2.16,1.635-5.231,2.292-9.127c1.339-7.929,2.076-18.469,2.076-29.679c0-3.86-0.763-7.502-2.148-10.254  c-0.471-0.936-0.999-1.737-1.57-2.396c5.231,1.771,9.009,6.728,9.012,12.548c-0.002,11.157-1.445,21.628-4.064,29.487  C71.535,63.455,69.4,67.107,67.143,68.865z M47.213,28.786c0.003-4.216,2.492-7.979,6.367-10.42  c-2.76,2.778-4.425,6.462-4.437,10.381l-0.018,0.285c0.006,11,1.612,21.812,4.28,29.814c0.861,2.584,1.833,4.762,2.872,6.596  c-1.463-1.886-2.798-4.303-3.994-7.173C49.012,50.416,47.216,39.933,47.213,28.786z M75.857,58.247  c-1.19,2.855-2.523,5.241-3.977,7.123c1.032-1.828,1.987-4.039,2.844-6.609c2.669-8.005,4.14-18.647,4.143-29.965l-0.002-0.037  c0-3.92-1.529-7.604-4.283-10.382c3.866,2.441,6.349,6.201,6.352,10.411C80.932,39.933,79.129,50.395,75.857,58.247z"/>
<path d="M66.706,75.041c-0.09,0-0.181-0.018-0.269-0.055l-5.258-2.178c-0.357-0.147-0.527-0.558-0.379-0.916  c0.147-0.357,0.558-0.527,0.916-0.379l5.258,2.178c0.357,0.148,0.527,0.559,0.379,0.916C67.242,74.877,66.98,75.041,66.706,75.041z"/>
<path d="M66.355,76.998c-0.09,0-0.181-0.017-0.269-0.053l-4.557-1.888c-0.357-0.148-0.527-0.559-0.379-0.916  c0.147-0.358,0.558-0.527,0.916-0.38l4.557,1.888c0.357,0.148,0.527,0.559,0.379,0.916C66.892,76.836,66.63,76.998,66.355,76.998z"/>
<path d="M66.005,78.957c-0.09,0-0.181-0.018-0.269-0.055l-3.855-1.596c-0.357-0.148-0.527-0.559-0.379-0.916  c0.147-0.358,0.558-0.527,0.916-0.381l3.855,1.598c0.357,0.148,0.527,0.559,0.379,0.916C66.541,78.793,66.28,78.957,66.005,78.957z"/>
<path d="M65.654,80.914c-0.09,0-0.181-0.017-0.269-0.053l-3.154-1.307c-0.357-0.148-0.527-0.559-0.379-0.916  c0.147-0.357,0.558-0.527,0.916-0.38l3.154,1.307c0.357,0.148,0.527,0.559,0.379,0.916C66.19,80.752,65.93,80.914,65.654,80.914z"/>
<path d="M65.304,82.873c-0.09,0-0.181-0.018-0.269-0.055l-2.453-1.016c-0.357-0.148-0.527-0.559-0.38-0.916  c0.148-0.357,0.559-0.527,0.916-0.379l2.454,1.016c0.357,0.148,0.527,0.559,0.379,0.916C65.84,82.709,65.579,82.873,65.304,82.873z"/>
<path d="M64.953,84.83c-0.09,0-0.181-0.018-0.268-0.053l-1.753-0.727c-0.357-0.148-0.527-0.559-0.38-0.916  c0.148-0.357,0.559-0.527,0.916-0.379l1.753,0.726c0.357,0.148,0.527,0.558,0.379,0.916C65.489,84.668,65.229,84.83,64.953,84.83z"/>
<path d="M64.953,86.934c-0.09,0-0.181-0.018-0.268-0.054l-1.753-0.726c-0.357-0.148-0.527-0.559-0.38-0.916  c0.148-0.357,0.559-0.527,0.916-0.379l1.753,0.725c0.357,0.148,0.527,0.559,0.379,0.916C65.489,86.771,65.229,86.934,64.953,86.934z  "/>
<path d="M64.953,89.037c-0.09,0-0.181-0.018-0.268-0.055l-1.753-0.725c-0.357-0.148-0.527-0.559-0.38-0.916  c0.148-0.358,0.559-0.527,0.916-0.38l1.753,0.726c0.357,0.148,0.527,0.559,0.379,0.916C65.489,88.873,65.229,89.037,64.953,89.037z"/>
<path d="M64.953,91.14c-0.09,0-0.181-0.017-0.268-0.054l-1.753-0.726c-0.357-0.148-0.527-0.558-0.38-0.916  c0.148-0.357,0.559-0.527,0.916-0.38l1.753,0.727c0.357,0.148,0.527,0.559,0.379,0.916C65.489,90.977,65.229,91.14,64.953,91.14z"/>
<path d="M64.953,93.243c-0.09,0-0.181-0.018-0.268-0.054l-1.753-0.727c-0.357-0.147-0.527-0.558-0.38-0.916  c0.148-0.357,0.559-0.527,0.916-0.379l1.753,0.727c0.357,0.148,0.527,0.558,0.379,0.916C65.489,93.08,65.229,93.243,64.953,93.243z"/>
<path d="M64.953,95.346c-0.09,0-0.181-0.017-0.268-0.053l-1.753-0.727c-0.357-0.148-0.527-0.559-0.38-0.916  c0.148-0.357,0.559-0.527,0.916-0.379l1.753,0.726c0.357,0.148,0.527,0.559,0.379,0.916C65.489,95.184,65.229,95.346,64.953,95.346z  "/>
<path d="M64.953,97.449c-0.09,0-0.181-0.018-0.268-0.054l-1.753-0.726c-0.357-0.148-0.527-0.559-0.38-0.916  c0.148-0.357,0.559-0.527,0.916-0.379l1.753,0.726c0.357,0.148,0.527,0.558,0.379,0.916C65.489,97.286,65.229,97.449,64.953,97.449z  "/>
<path d="M65.304,99.697c-0.09,0-0.181-0.017-0.269-0.053l-2.453-1.017c-0.357-0.148-0.527-0.559-0.38-0.916  c0.148-0.357,0.559-0.527,0.916-0.38l2.454,1.017c0.357,0.148,0.527,0.559,0.379,0.916C65.84,99.535,65.579,99.697,65.304,99.697z"/>
<path d="M65.462,101.781c-0.079,0-0.159-0.016-0.236-0.048l-2.769-1.146c-0.237-0.099-0.38-0.328-0.38-0.569  c0-0.078,0.015-0.158,0.047-0.235c0.129-0.314,0.489-0.463,0.804-0.333l2.769,1.146c0.236,0.099,0.38,0.328,0.38,0.569  c0,0.079-0.015,0.159-0.047,0.235C65.933,101.638,65.703,101.781,65.462,101.781z"/>
<path d="M66,103.323c0-0.285,0.024-0.479-0.279-0.649l-2.747-1.369c-0.664-0.289-0.974,0.133-0.974,0.648c0,0,0,8.794,0,8.844  C62,112,62.88,113,64.011,113c1.185,0,1.989-1.067,1.989-2.384C66,110.537,66,103.323,66,103.323z"/>
</svg>