<svg xmlns="http://www.w3.org/2000/svg" xmlns:xlink="http://www.w3.org/1999/xlink" version="1.1" id="Layer_1" x="0px" y="0px" width="100.0px" height="100px" viewBox="0 0 128 128" enable-background="new 0 0 128 128" xml:space="preserve">
<path d="M62.514,71.896c-4.64-0.792-8.801-5.262-11.991-12.917c-3.354-8.052-5.207-18.785-5.216-30.223  c-0.003-4.097,1.977-7.939,5.575-10.818c2.947-2.358,6.663-3.826,10.745-4.245c0.795-0.128,1.593-0.192,2.411-0.192  c0.812,0,1.613,0.065,2.445,0.2c3.982,0.415,7.659,1.881,10.605,4.237c3.49,2.792,5.412,6.634,5.412,10.817  c0,11.694-1.793,22.413-5.047,30.223c-3.188,7.65-7.277,12.118-11.827,12.918C65.141,72.028,63.029,72.031,62.514,71.896z   M65,66.779c0,0,1.808-5.021,2.41-8.595c1.313-7.776,2.162-18.181,2.162-29.296c0-9.117-3.572-12-3.572-12L65,66.779z M69.76,17.378  c0.2,0.326,0.391,0.67,0.572,1.031c1.42,2.819,2.202,6.541,2.202,10.479c0,11.237-0.74,21.806-2.083,29.762  c-0.554,3.281-2.189,6.986-2.895,9.067c1.554-1.969,3.993-5.888,5.231-9.603c2.603-7.809,4.037-18.224,4.039-29.329  C76.824,23.904,74.046,19.512,69.76,17.378z M58.395,17.378c-4.286,2.134-7.065,6.526-7.067,11.408  c0.002,11.104,1.437,21.519,4.039,29.328c1.237,3.708,3.674,7.624,5.225,9.594c-0.703-2.079-2.336-5.781-2.89-9.059  c-1.342-7.954-2.081-18.523-2.081-29.762c0-3.938,0.782-7.659,2.202-10.479C58.004,18.048,58.195,17.704,58.395,17.378z M62,16.899  c0,0-3.693,2.83-3.693,11.989c0,11.133,0.533,21.537,1.842,29.296C60.763,61.824,63,66.593,63,66.593L62,16.899z M77.528,21.5  c1.2,2.205,1.837,4.685,1.837,7.257c-0.001,10.617-1.283,20.619-3.625,28.446c3.028-7.69,4.691-17.734,4.693-28.417  C80.432,26.144,79.404,23.617,77.528,21.5z M50.506,21.627c-1.805,2.091-2.792,4.569-2.793,7.159  c0.003,10.551,1.616,20.466,4.557,28.103c-2.321-7.906-3.639-17.91-3.645-27.857l0.019-0.317  C48.651,26.246,49.296,23.823,50.506,21.627z"/>
<path d="M66,111c0,1.104-0.896,2-2,2l0,0c-1.104,0-2-0.896-2-2V75c0-1.104,0.896-2,2-2l0,0c1.104,0,2,0.896,2,2V111z"/>
</svg>