<svg xmlns="http://www.w3.org/2000/svg" xmlns:xlink="http://www.w3.org/1999/xlink" version="1.1" id="Layer_1" x="0px" y="0px" width="100px" height="100px" viewBox="0 0 100 100" enable-background="new 0 0 100 100" xml:space="preserve">
<path d="M74.823,55.914c-0.282-0.288-0.669-0.45-1.072-0.45c-11.398,0-12.081,0-16.173,7.806c-0.232,0.442-0.229,0.972,0.01,1.411  c0.237,0.439,0.679,0.731,1.177,0.778c0.026,0.003,0.669,0.062,1.642,0.062c2.48,0,7.036-0.395,9.673-3.038  c1.043-1.046,1.686-2.319,1.917-3.795c0.097-0.008,0.189-0.017,0.274-0.023c1.776-0.151,2.95-0.251,2.98-1.669  C75.259,56.593,75.105,56.203,74.823,55.914z"/>
<path d="M42.422,63.27c-4.092-7.806-4.774-7.806-16.173-7.806c-0.403,0-0.79,0.162-1.072,0.45c-0.282,0.289-0.437,0.679-0.428,1.082  c0.03,1.417,1.204,1.518,2.98,1.669c0.084,0.007,0.178,0.016,0.274,0.023c0.232,1.478,0.875,2.749,1.917,3.795  c2.637,2.644,7.192,3.038,9.673,3.038c0,0,0,0,0,0c0.972,0,1.614-0.06,1.641-0.062c0.498-0.047,0.938-0.339,1.177-0.778  S42.654,63.712,42.422,63.27z"/>
<path d="M91.602,2.6C89.618,0.617,85.9,0.676,80.847,2.769C71.742,6.541,59.53,16.797,56.902,27.708  c-2.173-0.196-4.464-0.312-6.902-0.312c-2.439,0-4.73,0.116-6.903,0.312C40.469,16.796,28.257,6.54,19.151,2.768  C14.099,0.676,10.381,0.616,8.399,2.6C4.939,6.06,4.4,15.517,4.989,22.565c0.715,8.546,3.034,15.947,6.327,20.428  c-0.384,4.433-1.589,21.316,1.782,26.772c3.64,5.89,17.941,11.999,21.88,13.596c-0.038,2.791,0.092,9.178,1.93,11.728  c2.554,3.543,9.905,5.076,13.092,5.076c3.188,0,10.54-1.533,13.092-5.076c1.84-2.551,1.96-8.985,1.918-11.795  c3.951-1.586,18.252-7.64,21.893-13.528c3.372-5.456,2.166-22.344,1.782-26.773C96.241,32.681,97.399,8.397,91.602,2.6z   M85.027,44.801c0.23,0.23,0.521,0.343,0.818,0.393c0.486,6.944,0.811,19.261-1.496,22.993C81.7,72.474,70.89,77.617,65,80.06  v-6.631c0-0.828-0.672-1.5-1.5-1.5s-1.5,0.672-1.5,1.5V82v1v0.82c0,0.044,0.01,0.086,0.013,0.129  c0.001,3.531-0.373,8.023-1.354,9.385c-1.239,1.72-5.038,3.068-8.168,3.592c1.58-1.46,3.199-3.74,3.199-5.684  c0-3.143-2.547-4.205-5.689-4.205c-3.142,0-5.69,1.062-5.69,4.205c0,1.943,1.624,4.225,3.204,5.684  c-3.13-0.522-6.932-1.871-8.172-3.592c-0.976-1.354-1.357-5.785-1.365-9.283C37.988,83.976,38,83.899,38,83.82v-1.359  c0-0.018,0.001-0.037,0.001-0.055c0-0.004-0.001-0.008-0.001-0.012v-8.966c0-0.828-0.671-1.5-1.5-1.5s-1.5,0.672-1.5,1.5v6.699  c-5.885-2.464-16.699-7.651-19.351-11.94c-2.305-3.73-1.98-16.049-1.495-22.994c0.298-0.05,0.589-0.163,0.819-0.393  c0.586-0.585,0.586-1.536,0-2.121c-3.615-3.616-6.23-11.229-6.994-20.365C7.306,14.266,8.375,6.867,10.52,4.721  c0.744-0.744,3.148-0.977,7.483,0.819c9.48,3.927,22.613,15.259,22.613,26.325c0,0.829,0.671,1.5,1.5,1.5s1.5-0.671,1.5-1.5  c0-0.396-0.015-0.791-0.044-1.186c2.025-0.18,4.162-0.283,6.427-0.283s4.401,0.104,6.427,0.283  c-0.028,0.395-0.044,0.791-0.044,1.186c0,0.829,0.672,1.5,1.5,1.5s1.5-0.671,1.5-1.5c0-11.064,13.132-22.397,22.612-26.324  c4.332-1.795,6.741-1.563,7.485-0.819c4.514,4.514,3.607,29.897-4.453,37.958C84.441,43.266,84.441,44.215,85.027,44.801z"/>
</svg>