<svg xmlns="http://www.w3.org/2000/svg" xmlns:xlink="http://www.w3.org/1999/xlink" version="1.1" id="Layer_1" x="0px" y="0px" width="100.0px" height="100px" viewBox="0 0 125 125" enable-background="new 0 0 125 125" xml:space="preserve">
<path d="M117.5,55.449c0,0-24.481-38.727-54.998-39.195C32.55,16.743,7.5,55.455,7.5,55.455l54.836,54.291L117.5,55.449z   M89.05,76.184l-1.232-1.113L66.108,96.628l0.007,2.108c-0.105,0.179-3.709,3.944-3.709,3.944l-3.736-3.944l-0.003-2.092  L37.142,75.063l-1.232,1.088l-6.662-6.724l6.645-6.771l1.259,1.114l20.038-20.487l-1.383-1.354l6.731-6.64l6.604,6.614l-1.363,1.293  L87.794,63.77l1.256-1.09l6.609,6.729L89.05,76.184z"/>
<path d="M62.469,64.963c-2.449,0-4.435,1.984-4.435,4.437c0,2.446,1.985,4.433,4.435,4.433s4.435-1.986,4.435-4.433  C66.903,66.947,64.918,64.963,62.469,64.963z M65.318,70.08h-5.699v-1.367h5.699V70.08z"/>
</svg>