<?xml version="1.0" encoding="utf-8"?>
<!-- Generator: Adobe Illustrator 15.1.0, SVG Export Plug-In . SVG Version: 6.00 Build 0)  -->
<!DOCTYPE svg PUBLIC "-//W3C//DTD SVG 1.1//EN" "http://www.w3.org/Graphics/SVG/1.1/DTD/svg11.dtd">
<svg version="1.1" id="Layer_1" xmlns="http://www.w3.org/2000/svg" xmlns:xlink="http://www.w3.org/1999/xlink" x="0px" y="0px"
	 width="60px" height="100px" viewBox="0 0 60 100" enable-background="new 0 0 60 100" xml:space="preserve">
<circle cx="30" cy="72" r="7"/>
<path d="M53,0H7C3.134,0,0,3.134,0,7v86c0,3.866,3.134,7,7,7h46c3.866,0,7-3.134,7-7V7C60,3.134,56.866,0,53,0z M30,91
	c-10.493,0-19-8.506-19-19s8.507-19,19-19c10.494,0,19,8.506,19,19S40.494,91,30,91z M54,43c0,0.552-0.448,1-1,1H7
	c-0.552,0-1-0.448-1-1V7c0-0.552,0.448-1,1-1h46c0.552,0,1,0.448,1,1V43z"/>
</svg>
