<svg xmlns="http://www.w3.org/2000/svg" xmlns:xlink="http://www.w3.org/1999/xlink" version="1.1" id="Layer_1" x="0px" y="0px" width="100px" height="92.316px" viewBox="0 0 100 92.316" enable-background="new 0 0 100 92.316" xml:space="preserve">
<g>
	<path d="M43.341,65.932h15.527v13.864c0,2.265,1.83,4.092,4.095,4.092l0,0c2.265,0,4.111-1.827,4.111-4.092V65.932   c1.226,0,1.344-0.804,1.344-1.743V53.85l-12.973-6.345H27.869l-3.557-2.011c-1.142-0.655-2.593-0.253-3.239,0.888l0,0   c-0.645,1.141-0.25,2.583,0.889,3.239l5.623,3.224v26.951c0,2.265,1.837,4.092,4.103,4.092l0,0c2.266,0,4.103-1.827,4.103-4.092   L35.782,69.24l7.435,12.553c1.158,1.945,3.674,2.582,5.631,1.425l0,0c1.938-1.156,2.576-3.691,1.417-5.639L43.341,65.932z"/>
	<polygon points="56.722,44.687 68.401,50.241 68.401,48.06 77.915,48.044 81.408,40.543 56.722,28.779  "/>
</g>
<path d="M82.703,92.316H17.554c-1.248,0-2.347-0.822-2.703-2.015L6.68,62.805H0.013v-5.639h8.771c1.248,0,2.346,0.819,2.702,2.016  l8.171,27.496h60.946l8.168-27.441c0.356-1.192,1.456-2.013,2.702-2.013h8.512v5.638h-6.41l-8.169,27.439  C85.049,91.498,83.951,92.316,82.703,92.316L82.703,92.316z"/>
<path d="M93.574,49.033l-8.169-27.439c-0.356-1.195-1.455-2.013-2.702-2.013H62.031v-7.44c0-1.556-1.263-2.819-2.819-2.819H41.16  c-1.558,0-2.819,1.263-2.819,2.819v7.44H17.554c-1.248,0-2.347,0.818-2.703,2.015L6.68,49.09H0.013v5.639h8.771  c1.248,0,2.346-0.82,2.702-2.018l8.171-27.492h60.946l8.168,27.438c0.356,1.194,1.456,2.015,2.702,2.015h8.512v-5.638H93.574z   M43.979,14.959h12.414v4.621H43.979V14.959z"/>
</svg>