<svg xmlns="http://www.w3.org/2000/svg" xmlns:xlink="http://www.w3.org/1999/xlink" version="1.1" id="Layer_1" x="0px" y="0px" width="100px" height="100px" viewBox="0 0 100 100" enable-background="new 0 0 100 100" xml:space="preserve">
<path fill-rule="evenodd" clip-rule="evenodd" fill="#000000" d="M40.354,1.984c2.908-1.051,6.118,0.455,7.167,3.362  c1.052,2.909-0.454,6.118-3.361,7.169c-0.654,0.236-1.323,0.343-1.979,0.334l-0.646,3.607c4.663,1.134,8.685,4.509,10.437,9.358  c0.105,0.289,0.199,0.58,0.284,0.87c-4.82,0.469-9.607,2.038-13.983,4.798c-5.125,0.675-9.806,2.525-13.811,5.243  c-0.12-0.278-0.233-0.56-0.336-0.848c-1.752-4.85-0.816-10.017,2.043-13.869l-2.805-2.364c-0.5,0.429-1.085,0.776-1.743,1.014  c-2.908,1.051-6.118-0.455-7.168-3.364c-1.051-2.908,0.455-6.117,3.362-7.168c2.908-1.051,6.118,0.455,7.169,3.363  c0.594,1.644,0.371,3.384-0.46,4.776l2.804,2.364c1.534-1.611,3.455-2.9,5.689-3.708c2.234-0.807,4.535-1.044,6.744-0.785  l0.644-3.604c-1.533-0.537-2.82-1.735-3.416-3.382C35.94,6.244,37.445,3.035,40.354,1.984L40.354,1.984z M39.351,34.468  C21.787,36.778,9.422,52.89,11.733,70.454c2.311,17.564,18.423,29.93,35.987,27.619L39.351,34.468L39.351,34.468z M83.596,44.486  c-9.452-14.983-29.261-19.469-44.245-10.018l34.225,54.262C88.561,79.278,93.046,59.47,83.596,44.486L83.596,44.486z M65.216,80.978  c-2.096,1.92-4.595,3.466-7.435,4.491c-2.838,1.026-5.75,1.435-8.587,1.299l-5.185-39.413L65.216,80.978L65.216,80.978z   M29.793,44.319c2.317-0.838,4.873,0.362,5.711,2.678c0.836,2.317-0.363,4.874-2.679,5.711c-2.317,0.837-4.874-0.362-5.711-2.679  C26.277,47.713,27.477,45.156,29.793,44.319L29.793,44.319z M53,35.933c-2.317,0.836-3.516,3.395-2.68,5.711  c0.838,2.316,3.394,3.516,5.71,2.679c2.317-0.837,3.517-3.395,2.68-5.711C57.873,36.295,55.315,35.096,53,35.933L53,35.933z   M21.749,64.38c2.317-0.837,4.874,0.362,5.711,2.68c0.837,2.315-0.362,4.873-2.679,5.71c-2.317,0.838-4.873-0.361-5.711-2.68  C18.232,67.772,19.432,65.217,21.749,64.38L21.749,64.38z M72.01,46.217c2.317-0.837,4.874,0.362,5.711,2.679  c0.838,2.316-0.363,4.872-2.679,5.71c-2.317,0.838-4.874-0.362-5.711-2.679C68.494,49.612,69.693,47.055,72.01,46.217L72.01,46.217z   M33.836,77.167c2.317-0.837,4.874,0.361,5.71,2.678c0.838,2.316-0.362,4.874-2.679,5.711s-4.873-0.363-5.71-2.68  C30.32,80.56,31.52,78.003,33.836,77.167L33.836,77.167z M70.889,63.777c2.315-0.838,4.873,0.362,5.711,2.678  c0.836,2.318-0.363,4.873-2.681,5.711c-2.315,0.837-4.873-0.362-5.711-2.679C67.373,67.171,68.571,64.614,70.889,63.777z"/>
</svg>