<svg xmlns:dc="http://purl.org/dc/elements/1.1/" xmlns:cc="http://creativecommons.org/ns#" xmlns:rdf="http://www.w3.org/1999/02/22-rdf-syntax-ns#" xmlns:svg="http://www.w3.org/2000/svg" xmlns="http://www.w3.org/2000/svg" xmlns:sodipodi="http://sodipodi.sourceforge.net/DTD/sodipodi-0.dtd" xmlns:inkscape="http://www.inkscape.org/namespaces/inkscape" xml:space="preserve" width="100" height="100" style="fill-rule:evenodd" viewBox="0 0 51.749733 51.749733" id="svg2876" version="1.1" inkscape:version="0.48.2 r9819" sodipodi:docname="puzzle_cube.svg"><metadata id="metadata2890"><rdf:RDF><cc:Work rdf:about=""><dc:format>image/svg+xml</dc:format><dc:type rdf:resource="http://purl.org/dc/dcmitype/StillImage"/><dc:title/></cc:Work></rdf:RDF></metadata><sodipodi:namedview pagecolor="#ffffff" bordercolor="#666666" borderopacity="1" objecttolerance="10" gridtolerance="10" guidetolerance="10" inkscape:pageopacity="0" inkscape:pageshadow="2" inkscape:window-width="667" inkscape:window-height="690" id="namedview2888" showgrid="false" inkscape:zoom="1.8838581" inkscape:cx="52.726636" inkscape:cy="44.29134" inkscape:window-x="683" inkscape:window-y="0" inkscape:window-maximized="0" inkscape:current-layer="g3015"/>
 <defs id="defs2878"><inkscape:perspective sodipodi:type="inkscape:persp3d" inkscape:vp_x="0 : 44.29134 : 1" inkscape:vp_y="0 : 1000 : 0" inkscape:vp_z="88.58268 : 44.29134 : 1" inkscape:persp3d-origin="44.29134 : 29.52756 : 1" id="perspective2892"/>
  <style type="text/css" id="style2880">
   
    .fil1 {fill:black}
    .fil0 {fill:white}
   
  </style>
 
  
  
  
 
 <style id="style3672" type="text/css">
   
    .fil0 {fill:#0A0B0C}
   
  </style>
  <inkscape:perspective id="perspective3682" inkscape:persp3d-origin="45 : 33.333333 : 1" inkscape:vp_z="90 : 50 : 1" inkscape:vp_y="0 : 1000 : 0" inkscape:vp_x="0 : 50 : 1" sodipodi:type="inkscape:persp3d"/>
  
  
 
 <style id="style3731" type="text/css">
   
    .fil1 {fill:black}
    .fil0 {fill:white}
   
  </style>
  <inkscape:perspective id="perspective3743" inkscape:persp3d-origin="44.29134 : 29.52756 : 1" inkscape:vp_z="88.58268 : 44.29134 : 1" inkscape:vp_y="0 : 1000 : 0" inkscape:vp_x="0 : 44.29134 : 1" sodipodi:type="inkscape:persp3d"/>
  
  
  
 
 <style id="style3757" type="text/css">
   
    .fil1 {fill:black}
    .fil0 {fill:white}
   
  </style>
  <inkscape:perspective id="perspective3769" inkscape:persp3d-origin="44.29134 : 29.52756 : 1" inkscape:vp_z="88.58268 : 44.29134 : 1" inkscape:vp_y="0 : 1000 : 0" inkscape:vp_x="0 : 44.29134 : 1" sodipodi:type="inkscape:persp3d"/>
  
  
  
 
 <style id="style3002" type="text/css">
   
    .fil0 {fill:white}
    .fil1 {fill:black}
   
  </style>
  
  
  
  
 </defs>
 
<g style="fill-rule:evenodd" id="g3015" transform="matrix(1.0293389,0,0,1.0293389,-61.574911,3.3832216)"><path style="fill:#000000;fill-rule:evenodd" d="m 78.359934,13.635299 c 0,0 -3.455701,-2.283488 -2.960593,-5.1487768 0.495108,-2.8652704 3.514219,-2.3570926 3.646746,-8.36734278 0,6.78026058 2.497859,7.99510958 3.089498,8.88338278 0.591635,0.8882592 1.158535,3.6045158 -2.531446,4.7630598 2.746422,-1.889132 2.335371,-3.171342 1.561943,-4.1108846 -0.773428,-0.9395378 -1.730866,-1.189305 -2.548737,-3.2708864 -2.218331,1.7244309 -3.298639,4.162163 -0.257408,7.25148 z" id="path4102"/><path style="fill:#000000;fill-rule:evenodd" d="m 96.856706,40.766662 -11.865293,0 c -0.815863,0 -1.483112,-0.667248 -1.483112,-1.483111 l 0,-16.455999 c 0,-0.815863 0.667249,-1.483112 1.483112,-1.483112 l 11.865293,0 c 0.815863,0 1.483112,0.667249 1.483112,1.483112 l 0,16.455999 c 0,0.815863 -0.667249,1.483111 -1.483112,1.483111 z" id="path4100"/><path style="fill:#000000;fill-rule:evenodd" d="m 73.058145,40.766662 9.108833,0 c -0.234683,-0.443827 -0.368012,-0.948585 -0.368012,-1.483111 l 0,-16.455999 c 0,-1.756005 1.436455,-3.19246 3.19246,-3.19246 l 1.415141,0 0,-2.281074 c 0,-0.815863 -0.667248,-1.483112 -1.483111,-1.483112 l -11.865294,0 c -0.815863,0 -1.483111,0.667249 -1.483111,1.483112 l 0,21.929537 c 0,0.815863 0.667248,1.483112 1.483111,1.483112 z" id="path4098"/><path style="fill:#000000;fill-rule:evenodd" d="m 90.324771,18.625576 c 0,0 -3.455701,-2.283488 -2.960593,-5.148776 0.495109,-2.865271 3.514219,-2.357093 3.646747,-8.3673432 0,6.7802602 2.497858,7.9951092 3.089498,8.8833832 0.591635,0.888259 1.158535,3.604515 -2.531446,4.763059 2.746421,-1.889132 2.33537,-3.171342 1.561943,-4.110884 -0.773428,-0.939538 -1.730866,-1.189305 -2.548738,-3.270887 -2.21833,1.724431 -3.298639,4.162163 -0.257407,7.25148 z" id="path3044"/></g></svg>