<svg xmlns:dc="http://purl.org/dc/elements/1.1/" xmlns:cc="http://creativecommons.org/ns#" xmlns:rdf="http://www.w3.org/1999/02/22-rdf-syntax-ns#" xmlns:svg="http://www.w3.org/2000/svg" xmlns="http://www.w3.org/2000/svg" xmlns:sodipodi="http://sodipodi.sourceforge.net/DTD/sodipodi-0.dtd" xmlns:inkscape="http://www.inkscape.org/namespaces/inkscape" xml:space="preserve" width="100" height="100" style="fill-rule:evenodd" viewBox="0 0 51.749733 51.749733" id="svg2876" version="1.1" inkscape:version="0.48.2 r9819" sodipodi:docname="artificial_heart.svg"><metadata id="metadata2890"><rdf:RDF><cc:Work rdf:about=""><dc:format>image/svg+xml</dc:format><dc:type rdf:resource="http://purl.org/dc/dcmitype/StillImage"/><dc:title/></cc:Work></rdf:RDF></metadata><sodipodi:namedview pagecolor="#ffffff" bordercolor="#666666" borderopacity="1" objecttolerance="10" gridtolerance="10" guidetolerance="10" inkscape:pageopacity="0" inkscape:pageshadow="2" inkscape:window-width="667" inkscape:window-height="690" id="namedview2888" showgrid="false" inkscape:zoom="2.6641777" inkscape:cx="52.726636" inkscape:cy="44.29134" inkscape:window-x="683" inkscape:window-y="0" inkscape:window-maximized="1" inkscape:current-layer="g3015"/>
 <defs id="defs2878"><inkscape:perspective sodipodi:type="inkscape:persp3d" inkscape:vp_x="0 : 44.29134 : 1" inkscape:vp_y="0 : 1000 : 0" inkscape:vp_z="88.58268 : 44.29134 : 1" inkscape:persp3d-origin="44.29134 : 29.52756 : 1" id="perspective2892"/>
  <style type="text/css" id="style2880">
   
    .fil1 {fill:black}
    .fil0 {fill:white}
   
  </style>
 
  
  
  
 
 <style id="style3672" type="text/css">
   
    .fil0 {fill:#0A0B0C}
   
  </style>
  <inkscape:perspective id="perspective3682" inkscape:persp3d-origin="45 : 33.333333 : 1" inkscape:vp_z="90 : 50 : 1" inkscape:vp_y="0 : 1000 : 0" inkscape:vp_x="0 : 50 : 1" sodipodi:type="inkscape:persp3d"/>
  
  
 
 <style id="style3731" type="text/css">
   
    .fil1 {fill:black}
    .fil0 {fill:white}
   
  </style>
  <inkscape:perspective id="perspective3743" inkscape:persp3d-origin="44.29134 : 29.52756 : 1" inkscape:vp_z="88.58268 : 44.29134 : 1" inkscape:vp_y="0 : 1000 : 0" inkscape:vp_x="0 : 44.29134 : 1" sodipodi:type="inkscape:persp3d"/>
  
  
  
 
 <style id="style3757" type="text/css">
   
    .fil1 {fill:black}
    .fil0 {fill:white}
   
  </style>
  <inkscape:perspective id="perspective3769" inkscape:persp3d-origin="44.29134 : 29.52756 : 1" inkscape:vp_z="88.58268 : 44.29134 : 1" inkscape:vp_y="0 : 1000 : 0" inkscape:vp_x="0 : 44.29134 : 1" sodipodi:type="inkscape:persp3d"/>
  
  
  
 
 <style id="style3002" type="text/css">
   
    .fil0 {fill:white}
    .fil1 {fill:black}
   
  </style>
  
  
  
  
 </defs>
 
<g style="fill-rule:evenodd" id="g3015" transform="matrix(1.0293389,0,0,1.0293389,-61.574911,3.3832216)"><path style="fill:#000000;fill-rule:evenodd" d="m 68.752357,3.2634257 c -6.599272,15.1930433 7.761161,17.3762033 7.761161,17.3762033 0,0 0.264113,1.010642 0.801253,1.586796 0.522053,0.55825 3.026569,0.03087 3.173593,0 -0.162488,0.06174 -2.79428,1.035684 -4.021979,1.146892 -1.267928,0.113219 -10.69909,-0.612723 -10.69909,-0.612723 4.129973,13.686399 15.4909,5.137448 15.4909,5.137448 4.461571,0.12067 12.654185,-0.841523 14.234033,-8.625258 0,0 0.138135,-2.658688 5.530222,-3.88058 -0.57816,-0.435782 -5.173111,-2.96463 -6.944199,-2.655134 -1.880074,0.268668 -4.98034,3.990556 -4.98034,3.990556 0,0 -2.968808,0.116587 -4.273352,-1.916724 -0.07682,-0.959242 2.349816,-3.093786 -2.403761,-3.707761 C 80.370997,10.642625 70.363159,5.7572533 68.752357,3.2634257 z M 94.282492,13.85254 c 0.04615,-0.0093 0.09243,0 0.141398,0 0.391539,0 0.706988,0.305972 0.706988,0.691278 0,0.385104 -0.315444,0.691277 -0.706988,0.691277 -0.161875,0 -0.304741,-0.05151 -0.424193,-0.141397 -0.120464,-0.07662 -0.216599,-0.187148 -0.251374,-0.329928 -0.02202,-0.06737 -0.03142,-0.145345 -0.03142,-0.219952 0,-0.337143 0.242375,-0.626157 0.565591,-0.691278 z" id="path3504" inkscape:connector-curvature="0"/><path style="fill:#000000;fill-rule:evenodd" d="M 96.654831,27.411006 80.676894,31.605804 83.850486,43.640317 99.812712,39.46123 96.654831,27.411006 z m -1.508242,1.586796 -4.163376,7.17986 c -0.08688,0.149607 -0.257743,0.262328 -0.455615,0.314217 -0.201099,0.05209 -0.411156,0.02886 -0.56559,-0.06284 l -7.101306,-4.210508 12.285887,-3.220725 z m 0.911229,0.722699 2.136676,8.122511 -5.074605,-3.047905 2.937929,-5.074606 z m -13.762706,3.50352 5.121738,3.032195 -2.969352,5.184581 -2.152386,-8.216776 z m 10.243475,2.560869 5.090317,3.047906 -12.191622,3.205014 2.969351,-5.200293 0.974073,0.581302 c 0.414465,0.247332 0.932566,0.317048 1.429688,0.18853 0.003,-0.001 0.01272,0.001 0.01568,0 0.494503,-0.129709 0.904367,-0.44923 1.146893,-0.864097 l 0.56559,-0.958362 z" id="path3502" inkscape:connector-curvature="0"/><path style="fill:#000000;fill-rule:evenodd" d="m 104.14715,0.09960691 c 0,0.80580334 -5.944898,9.05929989 -6.417471,12.34105309 -0.804395,-0.254792 -3.157464,-1.203376 -3.717112,-1.081912 -1.558919,0.222616 -4.198337,3.04505 -5.016206,3.932504 -0.402399,0.514612 -2.366532,0 -2.401126,-0.905146 0.430759,-0.725565 7.039869,-15.16871499 17.551925,-14.28646893 z" id="path3492" inkscape:connector-curvature="0"/></g></svg>