<svg xmlns:dc="http://purl.org/dc/elements/1.1/" xmlns:cc="http://creativecommons.org/ns#" xmlns:rdf="http://www.w3.org/1999/02/22-rdf-syntax-ns#" xmlns:svg="http://www.w3.org/2000/svg" xmlns="http://www.w3.org/2000/svg" xmlns:sodipodi="http://sodipodi.sourceforge.net/DTD/sodipodi-0.dtd" xmlns:inkscape="http://www.inkscape.org/namespaces/inkscape" xml:space="preserve" width="100" height="100" style="fill-rule:evenodd" viewBox="0 0 51.749733 51.749733" id="svg2876" version="1.1" inkscape:version="0.48.2 r9819" sodipodi:docname="laser.svg"><metadata id="metadata2890"><rdf:RDF><cc:Work rdf:about=""><dc:format>image/svg+xml</dc:format><dc:type rdf:resource="http://purl.org/dc/dcmitype/StillImage"/><dc:title/></cc:Work></rdf:RDF></metadata><sodipodi:namedview pagecolor="#ffffff" bordercolor="#666666" borderopacity="1" objecttolerance="10" gridtolerance="10" guidetolerance="10" inkscape:pageopacity="0" inkscape:pageshadow="2" inkscape:window-width="667" inkscape:window-height="690" id="namedview2888" showgrid="false" inkscape:zoom="1.8838581" inkscape:cx="52.726636" inkscape:cy="44.29134" inkscape:window-x="683" inkscape:window-y="0" inkscape:window-maximized="0" inkscape:current-layer="g3015"/>
 <defs id="defs2878"><inkscape:perspective sodipodi:type="inkscape:persp3d" inkscape:vp_x="0 : 44.29134 : 1" inkscape:vp_y="0 : 1000 : 0" inkscape:vp_z="88.58268 : 44.29134 : 1" inkscape:persp3d-origin="44.29134 : 29.52756 : 1" id="perspective2892"/>
  <style type="text/css" id="style2880">
   
    .fil1 {fill:black}
    .fil0 {fill:white}
   
  </style>
 
  
  
  
 
 <style id="style3672" type="text/css">
   
    .fil0 {fill:#0A0B0C}
   
  </style>
  <inkscape:perspective id="perspective3682" inkscape:persp3d-origin="45 : 33.333333 : 1" inkscape:vp_z="90 : 50 : 1" inkscape:vp_y="0 : 1000 : 0" inkscape:vp_x="0 : 50 : 1" sodipodi:type="inkscape:persp3d"/>
  
  
 
 <style id="style3731" type="text/css">
   
    .fil1 {fill:black}
    .fil0 {fill:white}
   
  </style>
  <inkscape:perspective id="perspective3743" inkscape:persp3d-origin="44.29134 : 29.52756 : 1" inkscape:vp_z="88.58268 : 44.29134 : 1" inkscape:vp_y="0 : 1000 : 0" inkscape:vp_x="0 : 44.29134 : 1" sodipodi:type="inkscape:persp3d"/>
  
  
  
 
 <style id="style3757" type="text/css">
   
    .fil1 {fill:black}
    .fil0 {fill:white}
   
  </style>
  <inkscape:perspective id="perspective3769" inkscape:persp3d-origin="44.29134 : 29.52756 : 1" inkscape:vp_z="88.58268 : 44.29134 : 1" inkscape:vp_y="0 : 1000 : 0" inkscape:vp_x="0 : 44.29134 : 1" sodipodi:type="inkscape:persp3d"/>
  
  
  
 
 <style id="style3002" type="text/css">
   
    .fil0 {fill:white}
    .fil1 {fill:black}
   
  </style>
  
  
  
  
 </defs>
 
<g style="fill-rule:evenodd" id="g3015" transform="matrix(1.0293389,0,0,1.0293389,-61.574911,3.3832216)"><path style="fill:#000000;fill-rule:evenodd" d="M 85.559944,19.141914 C 89.111349,11.561289 89.043785,4.1346905 88.924123,3.2349661 88.85957,2.7466979 87.963473,2.3324341 87.577562,2.191665 87.191854,2.0510969 86.239252,1.7918803 85.875457,2.1230903 84.986801,2.9331166 76.791017,12.568169 77.182549,25.030053 c 0.01187,0.369619 -0.03096,0.836571 -0.11523,1.369285 0.954416,-0.634467 1.76223,-1.250639 2.197202,-1.753988 1.842267,-2.129638 3.971499,-3.959838 6.295407,-5.503469 z" id="path4180"/><path style="fill:#000000;fill-rule:evenodd" d="m 72.076495,31.010374 c -0.646734,0.334026 -1.319209,0.681323 -1.961321,1.028219 -0.752511,-0.618781 -1.830606,-0.767795 -2.751441,-0.292599 -1.233141,0.636679 -1.716983,2.153367 -1.080303,3.386904 0.63688,1.233142 2.15357,1.717187 3.386903,1.080304 0.922441,-0.476404 1.425787,-1.445102 1.354001,-2.419017 0.655784,-0.318943 1.32886,-0.663425 1.974585,-0.996847 2.680445,-1.383758 7.196926,-3.524662 9.187812,-3.714101 12.41123,-1.189296 20.931409,-10.538584 21.622509,-11.522795 0.28335,-0.402801 -0.0949,-1.314783 -0.28335,-1.679775 -0.18843,-0.364593 -0.71329,-1.200766 -1.20519,-1.203577 -1.20257,-0.0067 -13.758555,1.525333 -21.915342,10.954862 -1.298697,1.503218 -5.648667,3.99463 -8.328909,5.378388 z" id="path4178"/><path style="fill:#000000;fill-rule:evenodd" d="m 74.702042,34.629355 c -0.249363,0.683536 -0.508579,1.394821 -0.745474,2.08499 -0.972715,0.0549 -1.866799,0.675894 -2.221744,1.649217 -0.475398,1.303923 0.196474,2.747207 1.500598,3.222808 1.303923,0.475398 2.747208,-0.196474 3.222809,-1.500598 0.355542,-0.97533 0.06918,-2.028681 -0.643517,-2.696532 0.266255,-0.67891 0.527684,-1.388183 0.776644,-2.071116 0.337846,-0.926664 0.765382,-2.045976 1.23435,-3.184799 -0.950193,0.42452 -1.890325,0.876189 -2.691102,1.273353 -0.149416,0.434575 -0.295213,0.845822 -0.432564,1.222677 z" id="path3182"/></g></svg>