<svg xmlns:dc="http://purl.org/dc/elements/1.1/" xmlns:cc="http://creativecommons.org/ns#" xmlns:rdf="http://www.w3.org/1999/02/22-rdf-syntax-ns#" xmlns:svg="http://www.w3.org/2000/svg" xmlns="http://www.w3.org/2000/svg" xmlns:sodipodi="http://sodipodi.sourceforge.net/DTD/sodipodi-0.dtd" xmlns:inkscape="http://www.inkscape.org/namespaces/inkscape" xml:space="preserve" width="100" height="100" style="fill-rule:evenodd" viewBox="0 0 51.749733 51.749733" id="svg2876" version="1.1" inkscape:version="0.48.2 r9819" sodipodi:docname="lever.svg"><metadata id="metadata2890"><rdf:RDF><cc:Work rdf:about=""><dc:format>image/svg+xml</dc:format><dc:type rdf:resource="http://purl.org/dc/dcmitype/StillImage"/><dc:title/></cc:Work></rdf:RDF></metadata><sodipodi:namedview pagecolor="#ffffff" bordercolor="#666666" borderopacity="1" objecttolerance="10" gridtolerance="10" guidetolerance="10" inkscape:pageopacity="0" inkscape:pageshadow="2" inkscape:window-width="667" inkscape:window-height="690" id="namedview2888" showgrid="false" inkscape:zoom="2.6641777" inkscape:cx="52.726636" inkscape:cy="44.29134" inkscape:window-x="683" inkscape:window-y="0" inkscape:window-maximized="0" inkscape:current-layer="g3015"/>
 <defs id="defs2878"><inkscape:perspective sodipodi:type="inkscape:persp3d" inkscape:vp_x="0 : 44.29134 : 1" inkscape:vp_y="0 : 1000 : 0" inkscape:vp_z="88.58268 : 44.29134 : 1" inkscape:persp3d-origin="44.29134 : 29.52756 : 1" id="perspective2892"/>
  <style type="text/css" id="style2880">
   
    .fil1 {fill:black}
    .fil0 {fill:white}
   
  </style>
 
  
  
  
 
 <style id="style3672" type="text/css">
   
    .fil0 {fill:#0A0B0C}
   
  </style>
  <inkscape:perspective id="perspective3682" inkscape:persp3d-origin="45 : 33.333333 : 1" inkscape:vp_z="90 : 50 : 1" inkscape:vp_y="0 : 1000 : 0" inkscape:vp_x="0 : 50 : 1" sodipodi:type="inkscape:persp3d"/>
  
  
 
 <style id="style3731" type="text/css">
   
    .fil1 {fill:black}
    .fil0 {fill:white}
   
  </style>
  <inkscape:perspective id="perspective3743" inkscape:persp3d-origin="44.29134 : 29.52756 : 1" inkscape:vp_z="88.58268 : 44.29134 : 1" inkscape:vp_y="0 : 1000 : 0" inkscape:vp_x="0 : 44.29134 : 1" sodipodi:type="inkscape:persp3d"/>
  
  
  
 
 <style id="style3757" type="text/css">
   
    .fil1 {fill:black}
    .fil0 {fill:white}
   
  </style>
  <inkscape:perspective id="perspective3769" inkscape:persp3d-origin="44.29134 : 29.52756 : 1" inkscape:vp_z="88.58268 : 44.29134 : 1" inkscape:vp_y="0 : 1000 : 0" inkscape:vp_x="0 : 44.29134 : 1" sodipodi:type="inkscape:persp3d"/>
  
  
  
 
 <style id="style3002" type="text/css">
   
    .fil0 {fill:white}
    .fil1 {fill:black}
   
  </style>
  
  
  
  
 </defs>
 
<g style="fill-rule:evenodd" id="g3015" transform="matrix(1.0293389,0,0,1.0293389,-61.574911,3.3832216)"><path style="fill:#000000;fill-rule:evenodd" d="m 72.631891,1.2178452 2.171863,0 0,2.1718632 1.628901,0 0,-2.1718632 2.171863,0 0,2.1718632 13.031165,0 0,-2.1718632 2.171868,0 0,2.1718632 1.628901,0 0,-2.1718632 2.171863,0 0,2.1718632 1.085934,0 0,2.4433467 -27.148282,-0.021317 0,-2.4220302 1.085934,0 0,-2.1718632 z" id="path3558" inkscape:connector-curvature="0"/><path style="fill:#000000;fill-rule:evenodd" d="m 101.78923,18.545171 c -2.267594,-0.154846 -4.529158,-0.410845 -6.764367,-0.780264 -2.404334,-0.39717 -4.836826,-0.932093 -7.189879,-1.659061 l 0,1.135209 c 2.299762,0.691981 4.66831,1.208001 7.012716,1.595317 2.293925,0.378876 4.614611,0.640701 6.94153,0.797357 l 0,-1.088543 z" id="path3556" inkscape:connector-curvature="0"/><path style="fill:#000000;fill-rule:evenodd" d="m 68.125249,18.56689 c 2.376793,-0.152232 4.747739,-0.414867 7.090134,-0.801983 2.776372,-0.458706 5.590148,-1.100815 8.275819,-2.010386 l 0,-5.8491576 -4.072248,-2.9863239 11.402298,0 -4.072248,2.9863239 0,4.5741956 c 1.805456,-0.817065 3.612541,-1.853523 5.018821,-3.151818 1.245807,-1.150085 2.31123,-2.6466627 2.31123,-4.4086864 l 1.085934,0 c 0,2.1223929 1.98384,3.7042424 3.68754,4.6071664 0.914196,0.484452 1.906221,0.871965 2.936651,1.173814 l 0,1.128763 c -1.20921,-0.333417 -2.374981,-0.775839 -3.445235,-1.343139 -1.41834,-0.751708 -2.870687,-1.857541 -3.661202,-3.2919796 -0.479414,1.1136856 -1.272755,2.0958476 -2.178303,2.9320166 -1.613618,1.48954 -3.696595,2.648071 -5.755441,3.541548 l 0,26.816063 -3.257802,0 0,-25.58394 c -2.636,0.867139 -5.383418,1.488338 -8.098852,1.936985 -2.400724,0.396768 -4.830994,0.664833 -7.267111,0.818674 l 0,-1.088146 z" id="path3554" inkscape:connector-curvature="0"/><path style="fill:#000000;fill-rule:evenodd" d="m 75.075222,6.9190848 c 0,2.1223929 -1.984041,3.7042422 -3.68754,4.6071712 -1.010321,0.535325 -2.115355,0.952203 -3.262423,1.265917 l 0,1.12354 c 1.325247,-0.342069 2.604839,-0.812032 3.771002,-1.430009 1.418154,-0.751708 2.870692,-1.857546 3.661202,-3.2919844 0.479419,1.1136854 1.27276,2.0958524 2.178308,2.9320224 1.329661,1.227502 2.97827,2.230187 4.669512,3.045241 l 0,-1.211023 C 80.975273,13.235199 79.595941,12.365049 78.472401,11.327781 77.226594,10.177697 76.161172,8.6811185 76.161172,6.9190948 l -1.085935,0 z" id="path3228" inkscape:connector-curvature="0"/></g></svg>