<svg xmlns="http://www.w3.org/2000/svg" xmlns:xlink="http://www.w3.org/1999/xlink" version="1.1" id="Layer_2_1_" x="0px" y="0px" width="100px" height="100px" viewBox="0 0 100 100" enable-background="new 0 0 100 100" xml:space="preserve">
<path d="M17.029,23.904l0.665-4.068l-4.709-4.117c0,0-5.926,2.868-4.43,9.181c1.495,6.316,4.068,5.652,4.068,5.652l0.083-1.912  C12.708,28.64,16.53,28.058,17.029,23.904z M38,88.717c-0.001-0.008,0.002-0.016,0.001-0.023C37.661,88.886,38,88.717,38,88.717z   M85.24,46.777c0,0,10.626-5.742,4.593-11.961c-8.259-8.514-15.671,2.214-15.671,2.214C60.2,23.067,33.396,33.043,33.396,33.043  c-3.429-2.009-1.012-12.745-1.012-16.965S30.324,2.635,18.59,3.577c-7.667,1.108-6.586,6.892-6.586,6.892  c-0.129-4.917,6.816-4.137,6.816-4.137c6.504,0,10.653,3.9,10.653,8.935s-4.663,6.537-6.644,6.009s-3.701,0.09-3.701,0.09  c1.478,1.564-1.545,5.843-1.545,5.843c-5.632,9.343-3.053,16.398-3.053,16.398c8.882,22.392,22.792,29.695,31.489,32.067  c0,0-0.447,6.884-3.905,7.047c-3.457,0.163-4.835-0.712-5.733,0.748c0,0,2.077-0.258,2.077,1.162c0,0-6.148,0.238-6.148,2.079  c0,0,5.832-1.229,7.062,0c0,0-1.506,0.745-1.371,1.982c0.32-0.181,1.242-0.682,3.636-1.954c4.938-2.625,12.691-2.688,12.691-2.688  c-1.559-1.313-4.754-0.124-5.513-0.815s-0.277-1.839-0.277-1.839c0.524-1.862,1.079-3.817,1.384-4.892  c2.491,0.373,4.016,0.297,4.016,0.297c0,3.207,1.87,4.721,3.432,5.431c0.111,1.857,0.071,7.828-5.167,7.165  c-6.19-0.783-6.003,0.592-6.003,0.592s2-0.5,3.438,1.438c0,0-3.748,0.445-4.53,2.098c0,0,4.905-1.16,7.452-0.027  c0,0-2.268,0.619-1.971,2.993c0,0,4.794-3.777,9.111-5.126c4-1.25,7.625-1.375,7.625-1.375c-1.322-0.71-4.101-0.652-5.562-0.625  c-1.483,0.027-1.312-0.438-1.188-2.375c0.093-1.432,1.104-3.645,1.628-4.705c2.109-0.933,2.877-2.719,2.877-2.719  c18.005,0,20.382-26.808,20.382-26.808s4.287,0.388,4.363-2.956S85.24,46.777,85.24,46.777z M61.395,64.614  c-9.18,9.562-19.619-9.459-21.734-13.562s0.798-8.29,0.798-8.29c-0.616,4.96,1.199,7.615,1.199,7.615s8.667,20.175,17.203,13.354  s1.214-13.354,1.214-13.354S70.574,55.052,61.395,64.614z"/>
</svg>