<svg xmlns="http://www.w3.org/2000/svg" xmlns:xlink="http://www.w3.org/1999/xlink" xmlns:a="http://ns.adobe.com/AdobeSVGViewerExtensions/3.0/" version="1.1" x="0px" y="0px" width="100px" height="100px" viewBox="-23.35 -7.87 100 100" enable-background="new -23.35 -7.87 100 100" xml:space="preserve">
<defs>
</defs>
<path d="M52.078,33.02l-2.656-1.562l-2.1-1.235l2.645,0.457l3.333,0.576l-2.654-1.562l-2.656-1.562l-0.155,0.224l1.588,0.934  l2.654,1.562l-3.333-0.576l-1.999-0.346l-0.133,0.19l1.587,0.934l2.657,1.562L47.52,32.04l-1.942-0.334l2.028-3.951L29.71,19.835  l-1.428-1.353l-1.175-1.112c3.204-0.303,5.691-2.338,5.691-4.833c0-0.796-0.258-1.545-0.705-2.209  c2.178-0.368,3.59-0.935,3.59-1.575c0-0.737-1.854-1.379-4.609-1.73V0h-9.391v7c-2.852,0.345-4.78,1-4.78,1.752  c0,0.642,1.419,1.208,3.604,1.576c-0.447,0.664-0.705,1.413-0.705,2.208c0,2.452,2.4,4.464,5.522,4.82l-1.134,1.168l-1.706,1.755  l-16.89,7.474l2.036,3.966l-1.853,0.32l-3.335,0.576l2.657-1.562l1.587-0.934l-0.131-0.19l-2.001,0.346l-3.333,0.576l2.655-1.562  l1.587-0.934l-0.155-0.224l-2.655,1.562L0,31.256l3.333-0.576l2.645-0.457l-2.1,1.235L1.222,33.02l3.334-0.576l2.127-0.368  l-1.688,0.993l-2.656,1.562l3.334-0.577l2.901-0.501l0.006,0.012l0.047-0.021l0.379-0.065L8.952,33.4l10.171-4.5v7.675  c0,1.236,0.364,2.391,0.991,3.386L9.358,70.996L9.289,70.96l-0.047,0.373l-0.09,0.259l0.055,0.017L8.89,74.086l-0.401,3.128  l1.503-2.565l0.958-1.626l-0.256,1.992l-0.4,3.128l1.503-2.565l1.191-2.026l-0.318,2.48l-0.401,3.127l1.505-2.562l1.503-2.562  l-0.251-0.131l-0.899,1.531l-1.504,2.563l0.401-3.126l0.24-1.876l-0.213-0.108l-0.898,1.531l-1.503,2.562l0.4-3.127l0.208-1.633  l4.496,1.341l8.592-24.79v36.677h3.899V48.772l8.593,24.79l4.683-1.398l0.217,1.69l0.398,3.127l-1.502-2.562l-0.899-1.531  l-0.214,0.108l0.24,1.876l0.401,3.126l-1.505-2.563l-0.899-1.531l-0.251,0.131l1.504,2.562l1.505,2.562l-0.4-3.127l-0.319-2.48  l1.191,2.026l1.504,2.565l-0.399-3.128l-0.257-1.992l0.957,1.626l1.504,2.565l-0.401-3.128l-0.398-3.126l-0.193,0.098l0.029,0.224  L32.534,40.132c0.694-1.033,1.102-2.25,1.102-3.557v-7.872l10.69,4.73l-0.031,0.045l0.22,0.038l0.107,0.048l0.014-0.027l2.991,0.516  l3.334,0.577l-2.656-1.562l-1.687-0.994l2.125,0.368L52.078,33.02z M10.347,73.491l-1.505,2.562l0.4-3.126l0.162-1.26l1.712,0.512  L10.347,73.491z M43.542,72.927l0.398,3.126l-1.504-2.562l-0.799-1.362l1.735-0.517L43.542,72.927z M21.773,12.537  c0-0.717,0.226-1.381,0.59-1.965c0.013-0.004,0.026-0.008,0.038-0.012c-0.01-0.001-0.017-0.003-0.027-0.004  c0.399-0.634,0.977-1.157,1.682-1.521c0.669-0.069,1.424-0.111,2.239-0.111c0.823,0,1.585,0.043,2.259,0.114  c1.354,0.701,2.276,1.998,2.276,3.5c0,2.241-2.026,4.057-4.526,4.057c-0.006,0-0.011-0.001-0.016-0.001l-0.114-0.108l-0.087,0.09  C23.687,16.471,21.773,14.712,21.773,12.537z M22.97,20.062l1.602-1.458l1.321-1.203c0.138,0.007,0.269,0.031,0.408,0.031  c0.066,0,0.128-0.013,0.195-0.015l1.371,1.152l1.126,0.949l-0.15-0.066l-0.177,0.346c-0.72-0.222-1.487-0.347-2.287-0.347  c-0.657,0-1.291,0.088-1.896,0.241l-0.123-0.241l-1.381,0.611H22.97z M6.896,33.651l-3.334,0.576l2.656-1.562l1.46-0.859l0.806,1.57  L6.896,33.651z M47.083,32.666l2.655,1.562l-3.334-0.576l-1.678-0.29l0.821-1.599L47.083,32.666z"/>
</svg>