<?xml version="1.0" encoding="utf-8"?>
<!-- Generator: Adobe Illustrator 15.1.0, SVG Export Plug-In . SVG Version: 6.00 Build 0)  -->
<!DOCTYPE svg PUBLIC "-//W3C//DTD SVG 1.1//EN" "http://www.w3.org/Graphics/SVG/1.1/DTD/svg11.dtd">
<svg version="1.1" id="Layer_1" xmlns="http://www.w3.org/2000/svg" xmlns:xlink="http://www.w3.org/1999/xlink" x="0px" y="0px"
	 width="78px" height="100px" viewBox="0 0 78 100" enable-background="new 0 0 78 100" xml:space="preserve">
<path d="M73,0H5C2.238,0,0,2.239,0,5v90c0,2.762,2.238,5,5,5h68c2.762,0,5-2.238,5-5V5C78,2.239,75.762,0,73,0z M39,98.5
	c-1.381,0-2.5-1.119-2.5-2.5s1.119-2.5,2.5-2.5c1.382,0,2.5,1.119,2.5,2.5S40.382,98.5,39,98.5z M70.001,90.963
	c0,0.572-0.464,1.037-1.033,1.037H9.034c-0.569,0-1.033-0.465-1.033-1.037V9.037C8.001,8.464,8.465,8,9.034,8h59.934
	c0.569,0,1.033,0.464,1.033,1.037V90.963z"/>
</svg>
