<svg xmlns="http://www.w3.org/2000/svg" xmlns:xlink="http://www.w3.org/1999/xlink" version="1.1" id="Layer_1" x="0px" y="0px" width="100px" height="59.906px" viewBox="56 33.547 100 59.906" enable-background="new 56 33.547 100 59.906" xml:space="preserve">
<g>
	<path d="M56,33.547v59.906h100V33.547H56z M154.113,92.038H57.887V34.962h96.227V92.038z"/>
	<path d="M152.227,37.321H59.773V89.68h92.453V37.321z M98.924,64.68h-25v3.302h-11.32v-8.962h11.32v3.302h25V64.68z    M112.215,88.221c-0.312,0.758-1.178,1.118-1.937,0.808l-9.016-3.711c-0.757-0.312-1.119-1.18-0.807-1.937   c0.312-0.758,1.179-1.119,1.937-0.808l9.016,3.711C112.165,86.596,112.526,87.463,112.215,88.221z M112.215,84.829   c-0.312,0.758-1.178,1.119-1.937,0.808l-9.016-3.711c-0.757-0.312-1.119-1.179-0.807-1.937c0.312-0.758,1.179-1.119,1.937-0.808   l9.016,3.711C112.165,83.204,112.526,84.071,112.215,84.829z M112.215,81.438c-0.312,0.758-1.178,1.119-1.937,0.808l-9.016-3.711   c-0.757-0.312-1.119-1.179-0.807-1.937s1.179-1.119,1.937-0.807l9.016,3.71C112.165,79.813,112.526,80.68,112.215,81.438z    M112.215,78.047c-0.312,0.758-1.178,1.119-1.937,0.808l-9.016-3.71c-0.757-0.312-1.119-1.18-0.807-1.938   c0.312-0.758,1.179-1.119,1.937-0.807l9.016,3.71C112.165,76.422,112.526,77.289,112.215,78.047z M112.215,74.655   c-0.312,0.758-1.178,1.119-1.937,0.808l-9.016-3.711c-0.757-0.312-1.119-1.179-0.807-1.937c0.312-0.757,1.179-1.119,1.937-0.808   l9.016,3.711C112.165,73.03,112.526,73.897,112.215,74.655z M112.215,71.264c-0.312,0.758-1.178,1.119-1.937,0.808l-9.016-3.711   c-0.757-0.312-1.119-1.179-0.807-1.936c0.312-0.759,1.179-1.119,1.937-0.808l9.016,3.711   C112.165,69.64,112.526,70.507,112.215,71.264z M112.215,67.873c-0.312,0.757-1.178,1.119-1.937,0.808l-9.016-3.711   c-0.757-0.312-1.119-1.179-0.807-1.937c0.312-0.757,1.179-1.119,1.937-0.807l9.016,3.711   C112.165,66.248,112.526,67.115,112.215,67.873z M112.215,64.481c-0.312,0.758-1.178,1.119-1.937,0.808l-9.016-3.711   c-0.757-0.312-1.119-1.179-0.807-1.936c0.312-0.758,1.179-1.119,1.937-0.807l9.016,3.711   C112.165,62.857,112.526,63.724,112.215,64.481z M112.215,61.091c-0.312,0.757-1.178,1.119-1.937,0.807l-9.016-3.71   c-0.757-0.312-1.119-1.179-0.807-1.937s1.179-1.12,1.937-0.807l9.016,3.711C112.165,59.466,112.526,60.333,112.215,61.091z    M112.215,57.7c-0.312,0.757-1.178,1.119-1.937,0.807l-9.016-3.711c-0.757-0.312-1.119-1.18-0.807-1.937   c0.312-0.757,1.179-1.119,1.937-0.807l9.016,3.71C112.165,56.074,112.526,56.941,112.215,57.7z M112.215,54.308   c-0.312,0.758-1.178,1.119-1.937,0.807l-9.016-3.711c-0.757-0.312-1.119-1.179-0.807-1.937s1.179-1.119,1.937-0.807l9.016,3.711   C112.165,52.684,112.526,53.551,112.215,54.308z M112.215,50.917c-0.312,0.757-1.178,1.119-1.937,0.807l-9.016-3.711   c-0.757-0.312-1.119-1.179-0.807-1.937s1.179-1.12,1.937-0.807l9.016,3.71C112.165,49.292,112.526,50.159,112.215,50.917z    M112.215,47.525c-0.312,0.758-1.178,1.119-1.937,0.807l-9.016-3.711c-0.757-0.312-1.119-1.179-0.807-1.936   c0.312-0.758,1.179-1.12,1.937-0.807l9.016,3.71C112.165,45.901,112.526,46.768,112.215,47.525z M112.215,44.134   c-0.312,0.758-1.178,1.12-1.937,0.807l-9.016-3.71c-0.757-0.312-1.119-1.179-0.807-1.937c0.312-0.758,1.179-1.12,1.937-0.807   l9.016,3.711C112.165,42.509,112.526,43.376,112.215,44.134z M149.396,82.041c0,3.363-2.975,5.751-6.339,5.751h-29.982v-1.415   h29.093c3.153,0,5.342-2.921,5.342-6.074V46.364c0-3.153-2.188-5.742-5.342-5.742h-29.093v-1.415h29.982   c3.364,0,6.339,2.902,6.339,6.267V82.041z"/>
</g>
</svg>