<svg xmlns="http://www.w3.org/2000/svg" xmlns:xlink="http://www.w3.org/1999/xlink" xmlns:a="http://ns.adobe.com/AdobeSVGViewerExtensions/3.0/" version="1.1" x="0px" y="0px" width="100px" height="100px" viewBox="-17.336 -17.237 100 100" enable-background="new -17.336 -17.237 100 100" xml:space="preserve">
<defs>
</defs>
<path d="M73.561,37.724c-0.021-0.181-0.061-0.351-0.095-0.523c0-0.002,0-0.004-0.001-0.006c-0.154-0.781-0.414-1.485-0.77-2.04  V24.879c-0.159,0.06-0.323,0.11-0.49,0.154v10.239c-0.181-0.094-0.369-0.159-0.567-0.159c-1.096,0-1.984,1.526-1.984,3.41  c0,1.883,0.889,3.409,1.984,3.409c0.171,0,0.335-0.049,0.493-0.119c-0.322,0.459-0.715,0.735-1.141,0.735  c-1.088,0-1.971-1.757-1.971-3.923c0-1.295,0.319-2.434,0.805-3.148V25.059c-0.366-0.088-0.711-0.222-1.04-0.387v7.365  c-0.402-0.133-0.819-0.211-1.252-0.211c-0.223,0-0.44,0.024-0.656,0.061v-8.87c-0.543-0.805-0.862-1.775-0.862-2.822  c0-0.295,0.037-0.58,0.086-0.861c0.044-0.932,0.319-1.799,0.776-2.538v-2.446l-5.53-7.129L55.749,0h-0.115v64.388v1.221v8.654h11.28  v-9.875h-0.037V46.104c0.216,0.036,0.434,0.061,0.656,0.061c1.811,0,3.406-1.231,4.361-3.108c1.018-0.772,1.728-2.444,1.728-4.398  c0-0.022-0.004-0.042-0.004-0.064c0-0.023,0.004-0.046,0.004-0.07C73.622,38.246,73.597,37.981,73.561,37.724z M67.602,44.18  c-0.248,0-0.489-0.034-0.726-0.087v-0.244c-2.019-0.408-3.572-2.854-3.572-5.82c0-0.501,0.059-0.979,0.143-1.443  c0.563-2.341,2.21-4.037,4.155-4.037c0.412,0,0.805,0.096,1.183,0.238v2.112c-0.677,0.884-1.114,2.231-1.114,3.759  c0,2.241,0.935,4.108,2.197,4.671C69.207,43.865,68.433,44.18,67.602,44.18z M71.402,41.27c-0.674,0-1.22-1.125-1.22-2.512  c0-1.389,0.546-2.514,1.22-2.514s1.219,1.125,1.219,2.514C72.621,40.145,72.076,41.27,71.402,41.27z"/>
<ellipse cx="70.793" cy="20.086" rx="4.558" ry="4.831"/>
<path d="M50.414,15.608h-41V36h41V15.608z M48.791,34.888H10.114v-4.696c0.664,2.015,1.863,3.546,3.331,4.109v0.202h5.176h0.898  h0.354h0.015h1.411h0.737h3.473v0.003h7.431v0.091h0.844v-0.094h0.229h3.311h5.595h0.948h0.374h0.014h0.875h1.396h0.64h0.63v-3.626  v-8.41v-3.624h-0.63h-0.64h-1.396H44.86h-1.942h-5.642h-3.264h-0.229V18.75h-0.844v0.093h-0.371h-1.687h-5.235h-0.138h-3.473h-0.737  h-0.839h-1.839h-5.176v0.204c-1.468,0.563-2.667,2.094-3.331,4.108v-6.434h38.677V34.888z M17.079,29.451  c0.205,1.895,0.608,3.434,1.126,4.303h-4.643v-0.189c-1.459-0.637-2.598-2.625-2.98-5.155v-3.657c0.383-2.53,1.521-4.521,2.98-5.158  v-0.189h4.753c-0.54,0.785-0.97,2.288-1.2,4.167c-0.245,0.917-0.394,1.929-0.394,3.008C16.721,27.605,16.857,28.57,17.079,29.451z   M21.774,33.569v0.185h-0.973h-0.464c-0.178-0.13-0.352-0.266-0.517-0.424c-0.183-0.805-0.323-2.609-0.373-4.849V24.87  c0.05-2.243,0.19-4.049,0.373-4.852c0.165-0.158,0.338-0.294,0.514-0.423h0.043h0.424h0.973v0.184  c-0.471,0.778-0.82,3.566-0.82,6.896C20.954,30.003,21.303,32.794,21.774,33.569z M29.688,31.068  c0.203,1.151,0.482,2.082,0.812,2.688h-4.877v-0.189c-1.217-0.533-2.206-2.014-2.724-3.963c-0.123-0.596-0.21-1.225-0.255-1.884  v-2.094c0.067-0.979,0.218-1.905,0.451-2.733c0.553-1.616,1.452-2.827,2.527-3.296v-0.189H30.6c-0.347,0.55-0.644,1.455-0.863,2.594  c-0.593,1.245-0.953,2.836-0.953,4.578C28.784,28.28,29.123,29.838,29.688,31.068z M31.64,28.481V24.87  c0.048-2.348,0.187-4.212,0.366-4.95c0.128-0.117,0.259-0.227,0.394-0.325h0.093h0.389h0.058v14.159h-0.058H32.4  c-0.135-0.099-0.266-0.209-0.394-0.323C31.827,32.691,31.688,30.827,31.64,28.481z M41.594,31.325  c0.229,1.034,0.532,1.867,0.884,2.429h-5.086v-0.189c-0.899-0.395-1.676-1.305-2.229-2.535c-0.394-1.249-0.634-2.738-0.634-4.358  c0-1.833,0.296-3.519,0.791-4.856c0.54-1.068,1.253-1.864,2.072-2.221v-0.189h5.202c-0.362,0.498-0.676,1.29-0.921,2.281  c-0.689,1.285-1.122,2.994-1.122,4.892C40.551,28.404,40.951,30.056,41.594,31.325z M45.568,33.566v0.185h-0.892h-0.509  c-0.123-0.088-0.242-0.191-0.359-0.294c-0.183-0.721-0.324-2.604-0.373-4.979v-3.611c0.049-2.376,0.19-4.262,0.373-4.98  c0.117-0.103,0.235-0.203,0.358-0.294h0.121h0.389h0.892v0.185c-0.432,0.778-0.752,3.566-0.752,6.895S45.136,32.791,45.568,33.566z   M47.118,26.672c0-0.384,0.016-0.761,0.046-1.129v2.258C47.133,27.433,47.118,27.056,47.118,26.672z"/>
<path d="M5.158,0.198H4.773L2.039,2.092L0,3.505v0.022v9.643h5.158v0.843v25.345l-2.16,4.047l-1.92,3.597H1.038v0.076v0.061V65.41  h4.12h47.495h1.05V0.198H53.69H5.158z M0.766,12.795V3.888h50.047v8.907H0.766z M37.063,64.388H17.688v-5.375h19.375V64.388z   M51.563,64.763H38.688v-8.75H15.813v8.75H2.63V47.501h48.933V64.763z M52.172,38.479H6.754V13.17h45.418V38.479z"/>
<path d="M12.105,21.407l-0.396,0.076c-0.197,1.52,0.148,1.52,0.99,1.52c0.693,0.08,1.385,0.08,2.029,0.156  c-1.238,0.915-1.732,5.481-1.832,7.23c0.594,0.151,1.188,0.23,1.732,0.076c-1.139-3.501,0.841-6.699,2.375-8.754  C15.469,21.253,13.688,21.407,12.105,21.407z"/>
<path d="M24.168,21.407l-0.396,0.076c-0.198,1.522,0.148,1.522,0.989,1.522c0.692,0.077,1.386,0.077,2.029,0.153  c-1.237,0.915-1.732,5.483-1.831,7.233c0.594,0.151,1.188,0.228,1.732,0.077c-1.139-3.501,0.84-6.699,2.375-8.757  C27.532,21.253,25.75,21.407,24.168,21.407z"/>
<path d="M35.936,21.407l-0.397,0.076c-0.197,1.52,0.149,1.52,0.99,1.52c0.693,0.077,1.386,0.077,2.029,0.154  c-1.237,0.914-1.732,5.483-1.831,7.232c0.594,0.151,1.188,0.227,1.732,0.076c-1.139-3.501,0.841-6.699,2.375-8.756  C39.3,21.251,37.518,21.407,35.936,21.407z"/>
<path d="M50.928,48.406h-10.64v5.375h10.64V48.406z M49.442,52.075l-8.275-0.06l0.016-2.304l8.275,0.06L49.442,52.075z"/>
<rect x="43.039" y="50.568" transform="matrix(1 0.0069 -0.0069 1 0.3503 -0.3115)" width="5.127" height="0.71"/>
<rect x="1.914" y="66.108" width="51.789" height="8.154"/>
</svg>