<svg xmlns="http://www.w3.org/2000/svg" xmlns:xlink="http://www.w3.org/1999/xlink" version="1.1" id="Layer_1" x="0px" y="0px" width="77.2727272727px" height="100px" viewBox="0 0 612 792" enable-background="new 0 0 612 792" xml:space="preserve">
<g>
	<path d="M251.105,348.876v6.1h6.099v52.407h97.592v-52.407h6.099v-6.1C324.299,336.677,287.701,336.677,251.105,348.876z    M287.701,401.283h-24.396c0,0,0-35.206,0-40.086c8.133-4.879,16.264-4.879,24.396,0   C287.701,366.077,287.701,401.283,287.701,401.283z M318.199,401.283h-24.398c0,0,0-35.206,0-40.086   c8.133-4.879,16.266-4.879,24.398,0C318.199,366.077,318.199,401.283,318.199,401.283z M348.695,401.283h-24.396   c0,0,0-35.206,0-40.086c8.133-4.879,16.264-4.879,24.396,0C348.695,366.077,348.695,401.283,348.695,401.283z"/>
	<path d="M257.204,410.5v33.25h97.592V410.5H257.204z M306,433.318c-3.369,0-6.1-2.731-6.1-6.1c0-3.369,2.73-6.1,6.1-6.1   s6.1,2.73,6.1,6.1C312.1,430.587,309.369,433.318,306,433.318z"/>
	<path d="M354.796,453.666v-6.1h-11.501h-12.897h-48.795h-12.897h-11.501v6.1h-12.198v6.1h12.198h3.66   c1.341,0,3.216-0.776,4.163-1.725l2.651-2.65c0.782-0.781,2.191-1.439,3.414-1.648c2.111,0.352,2.434,1.899,0.592,3.742   l-10.662,10.662c-2.1,2.1-1.389,3.818,1.582,3.818h86.791c2.971,0,3.682-1.719,1.582-3.818l-10.662-10.662   c-1.842-1.842-1.521-3.391,0.591-3.742c1.224,0.209,2.633,0.867,3.415,1.648l2.651,2.65c0.947,0.948,2.822,1.725,4.163,1.725h3.66   h12.198v-6.1H354.796z"/>
	<path d="M275.503,338.542c24.397-3.05,36.597-3.05,60.994,0v-3.05h6.101c0,0,0,0,0-3.05c-24.398-6.1-48.797-6.1-73.195,0v3.05   h6.101V338.542z"/>
	<path d="M312.1,325.834c-0.143-3.246-2.818-5.833-6.1-5.833s-5.957,2.587-6.1,5.833C303.967,325.481,308.033,325.481,312.1,325.834   z"/>
	<path d="M254,376.487c0-1.373-1.113-2.487-2.488-2.487c-1.373,0-2.486,1.114-2.486,2.487v58.027c0,1.373,1.113,2.486,2.486,2.486   c1.375,0,2.488-1.113,2.488-2.486V376.487z"/>
	<path d="M362.975,376.487c0-1.373-1.113-2.487-2.488-2.487c-1.373,0-2.486,1.114-2.486,2.487v58.027   c0,1.373,1.113,2.486,2.486,2.486c1.375,0,2.488-1.113,2.488-2.486V376.487z"/>
</g>
</svg>