<svg xmlns="http://www.w3.org/2000/svg" xmlns:xlink="http://www.w3.org/1999/xlink" version="1.1" id="Calque_1" x="0px" y="0px" width="100px" height="100px" viewBox="0 0 100 100" enable-background="new 0 0 100 100" xml:space="preserve">
<g>
	<path d="M75.505,84.429V50.402c0.8-0.354,1.358-1.142,1.358-2.062c0-0.92-0.559-1.708-1.358-2.062V16.772   c0.833-0.408,1.421-1.377,1.421-2.51c0-0.255-0.039-0.497-0.096-0.73c-0.031-0.211-0.105-0.419-0.222-0.624   c-0.259-0.527-0.657-0.943-1.144-1.169c-3.604-2.553-13.843-4.396-25.919-4.396c-12,0-22.186,1.819-25.85,4.348   c-0.92,0.354-1.59,1.365-1.59,2.571c0,1.124,0.577,2.088,1.4,2.501v29.491c-0.823,0.345-1.4,1.148-1.4,2.085   c0,0.938,0.577,1.741,1.4,2.086v34.011c-0.823,0.397-1.4,1.323-1.4,2.402c0,0.389,0.08,0.755,0.214,1.086   c1.038,3.321,12.827,5.94,27.226,5.94c15.079,0,27.302-2.871,27.309-6.413c0.042-0.197,0.071-0.401,0.071-0.613   C76.926,85.751,76.338,84.82,75.505,84.429z M49.505,8.501c13.39,0,24.243,2.354,24.243,5.258c0,2.904-10.854,5.259-24.243,5.259   c-13.389,0-24.243-2.354-24.243-5.259C25.262,10.855,36.116,8.501,49.505,8.501z M74.457,87.534   c-4.244,2.42-13.962,3.984-24.757,3.984c-11.273,0-21.153-1.662-25.17-4.234c-0.232-0.148-0.3-0.458-0.151-0.69   c0.148-0.233,0.457-0.302,0.69-0.151c3.808,2.438,13.706,4.076,24.631,4.076c10.634,0,20.157-1.513,24.263-3.854   c0.238-0.136,0.544-0.053,0.682,0.187C74.781,87.092,74.697,87.397,74.457,87.534z M71.918,82.872V57.327   c0-0.972,0.484-1.76,1.083-1.76s1.083,0.788,1.083,1.76v25.545c0,0.972-0.484,1.76-1.083,1.76S71.918,83.844,71.918,82.872z    M74.457,52.083c-4.244,2.42-13.962,3.984-24.757,3.984c-11.273,0-21.153-1.662-25.17-4.234c-0.232-0.148-0.3-0.458-0.151-0.69   c0.148-0.234,0.457-0.301,0.69-0.151c3.808,2.438,13.706,4.076,24.631,4.076c10.634,0,20.157-1.513,24.263-3.854   c0.238-0.136,0.544-0.053,0.682,0.187C74.781,51.641,74.697,51.946,74.457,52.083z M74.457,46.026   c-4.244,2.42-13.962,3.984-24.757,3.984c-11.273,0-21.153-1.662-25.17-4.234c-0.232-0.148-0.3-0.458-0.151-0.69   c0.148-0.233,0.457-0.301,0.69-0.151c3.808,2.438,13.706,4.076,24.631,4.076c10.634,0,20.157-1.513,24.263-3.854   c0.238-0.136,0.544-0.053,0.682,0.187C74.781,45.584,74.697,45.89,74.457,46.026z M71.918,42.295V23.104   c0-0.73,0.484-1.322,1.083-1.322s1.083,0.592,1.083,1.322v19.191c0,0.73-0.484,1.322-1.083,1.322S71.918,43.025,71.918,42.295z    M74.457,17.297c-4.244,2.42-13.962,3.984-24.757,3.984c-11.273,0-21.153-1.662-25.17-4.234c-0.232-0.148-0.3-0.458-0.151-0.69   c0.148-0.233,0.457-0.302,0.69-0.151c3.808,2.438,13.706,4.076,24.631,4.076c10.634,0,20.157-1.513,24.263-3.854   c0.238-0.136,0.544-0.053,0.682,0.187C74.781,16.854,74.697,17.16,74.457,17.297z"/>
	<path d="M49.629,18.027c12.646,0,22.934-1.958,22.934-4.364c0-2.403-10.287-4.36-22.934-4.36c-12.645,0-22.931,1.957-22.931,4.36   C26.698,16.069,36.984,18.027,49.629,18.027z M64.11,12.381c2.243,0,3.807,0.676,3.807,1.282c0,0.608-1.563,1.285-3.807,1.285   s-3.808-0.677-3.808-1.285C60.303,13.057,61.867,12.381,64.11,12.381z"/>
	<path d="M63.74,14.249c0.117,0.005,0.236,0.009,0.358,0.009c1.628,0.011,2.769-0.389,2.774-0.752   c0.005-0.323-0.908-0.712-2.393-0.778c-0.117-0.005-0.237-0.009-0.358-0.009c-1.628-0.01-2.769,0.389-2.774,0.753   C61.342,13.794,62.256,14.183,63.74,14.249z"/>
</g>
</svg>