<svg xmlns="http://www.w3.org/2000/svg" xmlns:xlink="http://www.w3.org/1999/xlink" version="1.1" id="Layer_1" x="0px" y="0px" width="100px" height="100px" viewBox="0 0 100 100" enable-background="new 0 0 100 100" xml:space="preserve">
<g>
	<path d="M80.76,40.75l-0.356,0.662l0.32,0.173l-0.207,0.38l1.062,0.577l0.207-0.381l0.289,0.156l0.358-0.659L80.76,40.75   L80.76,40.75z M73.477,79.922c-0.38,0.698-0.121,1.57,0.577,1.948c0.698,0.377,1.569,0.118,1.947-0.578   c0.377-0.698,0.119-1.569-0.579-1.948C74.725,78.967,73.854,79.225,73.477,79.922L73.477,79.922z M70.972,97.15   c-0.279,0.513-0.09,1.153,0.422,1.431c0.513,0.279,1.154,0.089,1.434-0.423c0.152-0.28,0.163-0.599,0.06-0.877   c-0.261-0.027-0.527-0.07-0.797-0.126l-0.965-0.223C71.066,96.996,71.015,97.07,70.972,97.15L70.972,97.15z M92.28,49.253   c-0.282,0.522-0.089,1.17,0.433,1.453c0.519,0.281,1.169,0.089,1.451-0.431c0.279-0.521,0.089-1.17-0.433-1.451   C93.213,48.541,92.563,48.734,92.28,49.253L92.28,49.253z M55.354,56.211c-2.161,3.48-0.181,6.176,2.829,7.846   c4.279,2.377,6.654,0.785,8.115-1.909c0.747-1.374,0.841-2.838,0.305-4.199c-0.546,1.004-1.08,2.013-1.16,2.146   c-2.1,3.461-5.294,3.246-7.636,1.987l0.107-0.139c2.253,0.84,4.92-0.327,5.701-1.896c1.371-2.766,0.371-4.258-1.075-5.104   C59.355,53.218,56.776,53.91,55.354,56.211L55.354,56.211z M68.464,34.139c-0.252,0.466-0.08,1.048,0.388,1.301   c0.465,0.252,1.045,0.079,1.299-0.386c0.254-0.466,0.08-1.048-0.387-1.3C69.299,33.502,68.717,33.673,68.464,34.139L68.464,34.139z    M92.178,59.062c0.739,0.516,0.987,1.516,0.547,2.326c-0.472,0.874-1.564,1.197-2.437,0.724l-2.456-1.338   c-0.041,0.597-0.131,1.258-0.312,1.9c-0.316,1.11-1.076,2.104-1.923,2.72c-0.833,0.607-2.021,1.42-2.021,1.42l-0.284,0.46   l0.216,0.118l-0.468,0.857l-0.252-0.136c-0.369,0.634-0.713,1.273-0.631,1.317c0.17,0.092,0.056,1.09-0.055,2.076   c-0.112,0.986-0.152,8.713-0.582,16.07c-0.364,6.207-3.478,9.856-7.906,9.755c0.072,0.38,0.02,0.787-0.182,1.153   c-0.459,0.848-1.521,1.162-2.366,0.703c-0.849-0.462-1.16-1.517-0.701-2.365l0.033-0.064c-4.438-1.25-6.376-6.103-4.368-12.076   c2.348-6.988,5.196-14.169,5.461-15.127c0.264-0.959,0.566-2.517,0.413-3.108c-0.14-0.536,0.14-0.764,0.389-1.285   c0,0-0.793-0.88-1.979-1.446c-0.771-0.368-1.633-0.679-2.801-0.278c-0.743,0.256-1.528,1.064-2.378,1.845   c-2.336,2.136-5.966,0.375-5.966,0.375L37.018,53.649c-0.824-0.447-0.304-1.174-0.304-1.174l1.131-2.086   c0.175-0.325,0.555-0.343,0.725-0.653l7.547-13.921c0.355-0.657,0.153-1.319-0.517-2.046c-0.669-0.729-0.591-1.199-0.591-1.199   l0.34-0.627l-2.692-1.461c0,0-1.457-1.517-3.689-3.203c-1.463-1.106-3.032-1.868-3.032-1.868L1.903,7.122   C1.268,6.793,1.019,6.051,1.312,5.417l0.896-1.644C2.55,3.14,3.319,2.884,3.969,3.164l1.024-1.89c0,0,0.415-0.83,1.38-0.407   c0.965,0.425,2.429,1.039,2.429,1.039L7.443,4.989l30.849,16.233c0,0,1.537,0.813,3.283,1.422c0.851,0.295,2.092,0.258,2.092,0.258   l5.957,3.231c0,0-0.047,0.36,0.027,0.928l10.502,5.692c0.791-0.396,1.156-0.879,1.156-0.879l3.621,1.963l1.927-1.313l1.186,0.643   c0.584-0.462,1.41-0.561,2.104-0.182c0.695,0.375,1.066,1.121,0.996,1.863l1.937,1.049l-0.657,1.212l0.398,0.215l0.656-1.211   l0.692,0.375l-0.659,1.211l0.396,0.216l0.656-1.212l0.69,0.374l-0.656,1.212l0.396,0.213l0.657-1.209l0.689,0.374l-0.655,1.211   l0.394,0.216l0.658-1.211l0.691,0.373l-0.656,1.211l0.395,0.215l0.657-1.211l0.69,0.374l-0.655,1.213l0.396,0.213l0.657-1.209   l0.69,0.373l-0.657,1.211l0.396,0.215l0.68-1.249c0.298-0.262,0.731-0.333,1.096-0.136l2.511,1.362   c0.446,0.242,0.613,0.799,0.372,1.244l-0.068,0.124l0.764,0.417l1.712-0.811l0.969,0.526l0.137,0.454l-1.37,1.15l1.202,0.65   l0.509,1.717l1.5,0.816l-1.492,2.752l0.625,0.339l1.926-3.551c0.218-0.234,0.567-0.398,1.094-0.113l2.851,1.544   c0.894,0.547,1.21,1.713,0.697,2.66c-0.384,0.711-1.135,1.101-1.88,1.048c-0.086-0.005-0.172-0.015-0.255-0.033   c-0.533-0.047-1.751-0.015-2.377,1.137l-2.292,4.233l-0.06,0.186l1.751,0.948l0.18-0.333   C91.185,58.516,92.157,59.048,92.178,59.062L92.178,59.062z M73.854,80.13c0.268-0.488,0.875-0.67,1.362-0.405   c0.486,0.264,0.667,0.874,0.404,1.36c-0.265,0.488-0.873,0.668-1.361,0.403C73.772,81.225,73.593,80.615,73.854,80.13L73.854,80.13   z"/>
	<path d="M-98.733,104.198c0,1.634,1.324,2.958,2.958,2.958s2.958-1.324,2.958-2.958s-1.325-2.959-2.958-2.959   S-98.733,102.564-98.733,104.198L-98.733,104.198z M-101.841,183.305c-0.736,12.608,8.597,17.006,19.202,17.112   c15.099,0.152,19.202-7.661,19.202-17.112c0-4.82-1.895-8.918-5.35-11.826c-0.002,3.522,0.033,7.047,0.01,7.522   c-0.604,12.465-9.581,16.578-17.778,16.607l0.091-0.532c7.338-1.037,12.852-8.112,12.66-13.519   c-0.338-9.513-5.247-12.089-10.409-12.256C-95.385,169.302-101.355,174.979-101.841,183.305L-101.841,183.305z M-11.951,110.171   c0,1.823,1.478,3.301,3.301,3.301s3.301-1.478,3.301-3.301s-1.478-3.301-3.301-3.301S-11.951,108.348-11.951,110.171   L-11.951,110.171z M0.667,271.34c0,1.799,1.458,3.257,3.257,3.257s3.257-1.458,3.257-3.257c0-0.982-0.435-1.862-1.122-2.46   c-0.753,0.306-1.535,0.584-2.347,0.832l-2.942,0.809C0.703,270.782,0.667,271.057,0.667,271.34L0.667,271.34z M-17.859,220.951   c0,2.446,1.983,4.429,4.429,4.429s4.429-1.982,4.429-4.429s-1.983-4.429-4.429-4.429S-17.859,218.505-17.859,220.951   L-17.859,220.951z M-55.68,104.05v2.314h1.122v1.338h3.732v-1.338h1.013v-2.314H-55.68L-55.68,104.05z M-1.723,195.686   c15.678,1.078,131.452,8.952,147.574,7.619c17.3-1.43,31.941-1.82,51.841-23.61c11.774-12.893,19.375-26.461,41.822-25.685   c17.294,1.554,115.768,10.725,115.768,10.725l23.22,6.181l30.7,0.13c0,0,12.211-1.174,12.49,6.7c0.391,10.989-4.42,18.41-8,38.569   c-3.58,20.16-2.15,26.601-2.28,35.51c-0.13,8.91-0.26,28.55-1.561,33.82c-1.3,5.271-1.689,8.78-7.999,8.26   c-6.311-0.52-366.181-43.38-366.181-43.38l-4.419,3.64l0.91,5.4c0,0,0.201,2.73-2.47,3.12s-3.71-2.01-4.36-4.939l-0.65-2.931   l-5.054-4.38c-0.684,7.826-4.655,13.986-11.527,17.511c0.753,0.926,1.205,2.107,1.205,3.395c0,2.972-2.409,5.381-5.381,5.381   s-5.381-2.409-5.381-5.381l0.005-0.228c-13.867,3.136-26.259-7.169-29.598-26.314c-3.905-22.393-6.737-46.048-7.426-49.034   c-0.689-2.986-2.162-7.654-3.446-9.033c-1.163-1.249-0.746-2.274-0.84-4.059c0,0-3.442-1.218-7.486-1.012   c-2.629,0.134-5.423,0.561-8,3.365c-1.64,1.784-2.575,5.128-3.736,8.487c-3.192,9.229-15.628,9.792-15.628,9.792h-77.699   c-2.887,0-2.545-2.735-2.545-2.735v-7.316c0-1.14,1.004-1.747,1.004-2.833v-48.836c0-2.301-1.52-3.799-4.407-4.787   c-2.887-0.987-3.365-2.377-3.365-2.377v-2.203h-9.444c0,0-6.176-1.976-14.708-3.268c-5.594-0.847-10.963-0.607-10.963-0.607   l-119.142,0.438c-2.21,0.044-3.976-1.605-4.117-3.758l0.016-5.771c0-2.224,1.706-4.047,3.879-4.236v-6.631   c0,0-0.095-2.86,3.143-3.13c3.238-0.27,8.108-0.756,8.108-0.756l0.853,10.355l107.488-1.333c0,0,5.363-0.054,10.991-0.973   c2.74-0.447,6.047-2.372,6.047-2.372h20.899c0,0,0.402,1.052,1.436,2.479h36.837c1.56-2.234,1.842-4.086,1.842-4.086h12.709   l3.291-6.393h4.16c0.9-2.111,2.996-3.592,5.436-3.592c2.441,0,4.536,1.48,5.437,3.592h6.795v4.249h1.393v-4.249h2.419v4.249h1.393   v-4.249h2.419v4.249h1.393v-4.249h2.42v4.249h1.393v-4.249h2.419v4.249h1.393v-4.249h2.419v4.249h1.394v-4.249h2.419v4.249h1.393   v-4.384c0.427-1.148,1.501-1.981,2.769-1.981h8.813c1.565,0,2.835,1.269,2.835,2.834v0.431h2.684l3.446-4.709h3.406l1.034,1.034   l-2.027,5.128h4.209l3.905,3.905h5.268v9.665h2.191v-12.464c0.245-0.953,0.951-1.91,2.798-1.91h9.999   c3.23,0.167,5.805,2.868,5.805,6.182c0,2.495-1.458,4.646-3.554,5.608c-0.241,0.111-0.491,0.206-0.748,0.283   c-1.506,0.654-4.766,2.537-4.766,6.568v14.852l0.114,0.585h6.141v-1.167c3.735,0.006,7.158,0.014,7.227,0.021   c2.762,0.313,4.907,2.661,4.907,5.508c0,3.06-2.48,5.54-5.541,5.54l-8.631-0.017c0.773,1.679,1.501,3.604,1.945,5.604   c0.775,3.488,0.177,7.298-1.208,10.206c-1.366,2.868-3.392,6.82-3.392,6.82l-0.095,1.665h0.751v3.017h-0.88   c-0.071,2.264-0.067,4.498,0.224,4.498c0.59,0,1.753,2.868,2.901,5.71C-6.397,186.546-4.473,190.305-1.723,195.686L-1.723,195.686z    M-16.523,220.951c0-1.708,1.385-3.093,3.093-3.093s3.093,1.385,3.093,3.093s-1.384,3.093-3.093,3.093   S-16.523,222.659-16.523,220.951L-16.523,220.951z"/>
</g>
</svg>