<?xml version="1.0" encoding="utf-8"?>
<!-- Generator: Adobe Illustrator 15.1.0, SVG Export Plug-In . SVG Version: 6.00 Build 0)  -->
<!DOCTYPE svg PUBLIC "-//W3C//DTD SVG 1.1//EN" "http://www.w3.org/Graphics/SVG/1.1/DTD/svg11.dtd">
<svg version="1.1" id="Layer_1" xmlns="http://www.w3.org/2000/svg" xmlns:xlink="http://www.w3.org/1999/xlink" x="0px" y="0px"
	 width="100px" height="81px" viewBox="0 0 100 81" enable-background="new 0 0 100 81" xml:space="preserve">
<path d="M53,30c-17.484,0-17.047,25.468-39,26.929V20l25-9L14,2c0-1.104-0.896-2-2-2c-1.105,0-2,0.896-2,2v55.181
	C4.334,58.137,0,63.066,0,69c0,6.617,5.383,12,12,12c0,0,0,0,0.001,0C77,81,100,72,100,55C100,41.572,76,30,53,30z M12,77
	c-4.411,0-8-3.589-8-8c0-3.72,2.555-6.846,6-7.736V69c0,1.104,0.895,2,2,2c1.104,0,2-0.896,2-2v-7.736c3.445,0.891,6,4.017,6,7.736
	C20,73.411,16.411,77,12,77z"/>
</svg>
