<?xml version="1.0" encoding="utf-8"?>
<!-- Generator: Adobe Illustrator 15.1.0, SVG Export Plug-In . SVG Version: 6.00 Build 0)  -->
<!DOCTYPE svg PUBLIC "-//W3C//DTD SVG 1.1//EN" "http://www.w3.org/Graphics/SVG/1.1/DTD/svg11.dtd">
<svg version="1.1" id="Layer_1" xmlns="http://www.w3.org/2000/svg" xmlns:xlink="http://www.w3.org/1999/xlink" x="0px" y="0px"
	 width="100px" height="81.699px" viewBox="0 0 100 81.699" enable-background="new 0 0 100 81.699" xml:space="preserve">
<rect x="48.026" y="49.716" width="3.998" height="5.997"/>
<rect x="48.026" y="37.722" width="3.998" height="5.997"/>
<rect x="48.026" y="25.728" width="3.998" height="5.997"/>
<path d="M97.552,29.189c-0.784-0.495-19.093-11.859-45.527-12.429v5.994c19.281,0.45,34.111,7.12,39.8,10.093L73.762,63.812
	c-4.23-1.856-13.125-5.09-23.736-5.101v-0.001c-0.009,0-0.017,0-0.025,0s-0.017,0-0.025,0v0.001
	c-3.861,0.004-7.49,0.437-10.754,1.073L14.543,32.412v0.001c-0.367-0.419-0.899-0.688-1.499-0.688c-1.104,0-1.999,0.895-1.999,1.999
	c0,0.505,0.193,0.96,0.502,1.312l-0.006,0.004L32.3,61.548c-2.507,0.792-4.577,1.612-6.062,2.265L8.176,32.848
	c5.691-2.977,20.544-9.656,39.851-10.095V16.76C21.564,17.316,3.232,28.693,2.447,29.189L0,30.736l23.916,40.998l2.558-1.396
	c0.062-0.034,3.894-2.091,9.806-3.708l10.6,13.535l0.012-0.01c0.731,0.933,1.857,1.543,3.135,1.543c2.208,0,3.998-1.79,3.998-3.998
	c0-0.93-0.331-1.775-0.863-2.454L44.004,65.09c1.91-0.238,3.918-0.381,5.996-0.381c13.065,0.007,23.423,5.573,23.525,5.63
	l2.559,1.396L100,30.736L97.552,29.189z"/>
<path d="M18.168,8.859l-2.823-2.831c-1.602,1.598-2.933,3.426-3.956,5.434l3.562,1.815C15.783,11.645,16.865,10.159,18.168,8.859z"
	/>
<path d="M49.674,11.454c-1.029-2.009-2.357-3.836-3.953-5.431L42.895,8.85c1.299,1.299,2.383,2.788,3.221,4.426L49.674,11.454z"/>
<path d="M27.795,3.949L27.171,0c-2.226,0.353-4.376,1.052-6.392,2.081l1.815,3.562C24.236,4.805,25.986,4.236,27.795,3.949z"/>
<path d="M40.284,2.074c-2.003-1.019-4.153-1.715-6.394-2.069l-0.625,3.949c1.826,0.289,3.577,0.855,5.205,1.684L40.284,2.074z"/>
<path d="M88.659,11.463c-1.024-2.008-2.354-3.836-3.956-5.434l-2.822,2.831c1.301,1.299,2.384,2.786,3.215,4.419L88.659,11.463z"/>
<path d="M57.153,8.85l-2.827-2.827c-1.594,1.595-2.924,3.422-3.953,5.431l3.56,1.822C54.771,11.638,55.854,10.149,57.153,8.85z"/>
<path d="M79.268,2.081C77.253,1.052,75.103,0.353,72.877,0l-0.625,3.949c1.811,0.287,3.559,0.856,5.201,1.693L79.268,2.081z"/>
<path d="M66.781,3.954l-0.625-3.949c-2.24,0.354-4.39,1.051-6.393,2.069l1.813,3.564C63.205,4.809,64.956,4.243,66.781,3.954z"/>
</svg>
