<?xml version="1.0" encoding="utf-8"?>
<!-- Generator: Adobe Illustrator 15.1.0, SVG Export Plug-In . SVG Version: 6.00 Build 0)  -->
<!DOCTYPE svg PUBLIC "-//W3C//DTD SVG 1.1//EN" "http://www.w3.org/Graphics/SVG/1.1/DTD/svg11.dtd">
<svg version="1.1" id="Layer_1" xmlns="http://www.w3.org/2000/svg" xmlns:xlink="http://www.w3.org/1999/xlink" x="0px" y="0px"
	 width="99.298px" height="100px" viewBox="0 0 99.298 100" enable-background="new 0 0 99.298 100" xml:space="preserve">
<path d="M82.867,34.727l-0.705-0.705l10.557-10.556c0,0,10.556-10.555,4.926-16.185l-2.813-2.814l-0.002-0.001l-2.813-2.814
	C86.386-3.977,75.83,6.579,75.83,6.579L65.275,17.135c-1.943-1.943-5.094-1.943-7.037,0l-6.333,6.333
	c-1.942,1.943-1.942,5.095,0,7.037l1.407,1.407L10.414,74.809l-0.156,0.943c-1.253,7.517-8.412,16.07-8.481,16.154L0,94.003
	l1.943,1.942l2.111,2.111L5.998,100l2.096-1.775C8.18,98.152,16.701,91,24.249,89.743l0.942-0.157L68.09,46.688l1.408,1.408
	c1.941,1.942,5.094,1.942,7.036,0l6.333-6.333C84.811,39.82,84.81,36.669,82.867,34.727z M22.295,84.039
	c-3.908,0.837-7.816,2.754-10.992,4.66c1.905-3.178,3.822-7.084,4.659-10.994l41.572-41.572l6.333,6.333L22.295,84.039z"/>
</svg>
