<svg xmlns="http://www.w3.org/2000/svg" xmlns:xlink="http://www.w3.org/1999/xlink" version="1.1" id="Layer_1" x="0px" y="0px" width="100px" height="97.228px" viewBox="0 0 100 97.228" enable-background="new 0 0 100 97.228" xml:space="preserve">
<path d="M100,97.228H0V87.64c19.887-10.828,31.462-27.143,36.116-40.41h27.769C69.025,61.893,73.569,75.014,100,90.667V97.228z"/>
<path d="M58.335,27.789c6.383,2.188,14.85,4.765,16.659-5.558c1.425-8.008,12.115-5.035,16.671-5.555  c8.249-0.942,2.027-16.438-8.336-16.667c-10.489-0.23-15.263,4.371-19.444,13.89c-1.988,4.567-3.7,8.019-11.104,5.555  c-7.41-2.467-12.833,3.619-8.335,11.11c3.992,6.646-0.058,13.89-0.058,13.89h11.167c0,0-0.086-4.13-2.774-8.335  C49.638,31.215,51.798,25.537,58.335,27.789z"/>
</svg>