<svg xmlns:dc="http://purl.org/dc/elements/1.1/" xmlns:cc="http://creativecommons.org/ns#" xmlns:rdf="http://www.w3.org/1999/02/22-rdf-syntax-ns#" xmlns:svg="http://www.w3.org/2000/svg" xmlns="http://www.w3.org/2000/svg" xmlns:sodipodi="http://sodipodi.sourceforge.net/DTD/sodipodi-0.dtd" xmlns:inkscape="http://www.inkscape.org/namespaces/inkscape" xml:space="preserve" width="100" height="100" style="fill-rule:evenodd" viewBox="0 0 51.749733 51.749733" id="svg2876" version="1.1" inkscape:version="0.48.2 r9819" sodipodi:docname="watermill.svg"><metadata id="metadata2890"><rdf:RDF><cc:Work rdf:about=""><dc:format>image/svg+xml</dc:format><dc:type rdf:resource="http://purl.org/dc/dcmitype/StillImage"/><dc:title/></cc:Work></rdf:RDF></metadata><sodipodi:namedview pagecolor="#ffffff" bordercolor="#666666" borderopacity="1" objecttolerance="10" gridtolerance="10" guidetolerance="10" inkscape:pageopacity="0" inkscape:pageshadow="2" inkscape:window-width="667" inkscape:window-height="690" id="namedview2888" showgrid="false" inkscape:zoom="2.6641777" inkscape:cx="52.726636" inkscape:cy="44.29134" inkscape:window-x="683" inkscape:window-y="0" inkscape:window-maximized="1" inkscape:current-layer="g3015"/>
 <defs id="defs2878"><inkscape:perspective sodipodi:type="inkscape:persp3d" inkscape:vp_x="0 : 44.29134 : 1" inkscape:vp_y="0 : 1000 : 0" inkscape:vp_z="88.58268 : 44.29134 : 1" inkscape:persp3d-origin="44.29134 : 29.52756 : 1" id="perspective2892"/>
  <style type="text/css" id="style2880">
   
    .fil1 {fill:black}
    .fil0 {fill:white}
   
  </style>
 
  
  
  
 
 <style id="style3672" type="text/css">
   
    .fil0 {fill:#0A0B0C}
   
  </style>
  <inkscape:perspective id="perspective3682" inkscape:persp3d-origin="45 : 33.333333 : 1" inkscape:vp_z="90 : 50 : 1" inkscape:vp_y="0 : 1000 : 0" inkscape:vp_x="0 : 50 : 1" sodipodi:type="inkscape:persp3d"/>
  
  
 
 <style id="style3731" type="text/css">
   
    .fil1 {fill:black}
    .fil0 {fill:white}
   
  </style>
  <inkscape:perspective id="perspective3743" inkscape:persp3d-origin="44.29134 : 29.52756 : 1" inkscape:vp_z="88.58268 : 44.29134 : 1" inkscape:vp_y="0 : 1000 : 0" inkscape:vp_x="0 : 44.29134 : 1" sodipodi:type="inkscape:persp3d"/>
  
  
  
 
 <style id="style3757" type="text/css">
   
    .fil1 {fill:black}
    .fil0 {fill:white}
   
  </style>
  <inkscape:perspective id="perspective3769" inkscape:persp3d-origin="44.29134 : 29.52756 : 1" inkscape:vp_z="88.58268 : 44.29134 : 1" inkscape:vp_y="0 : 1000 : 0" inkscape:vp_x="0 : 44.29134 : 1" sodipodi:type="inkscape:persp3d"/>
  
  
  
 
 <style id="style3002" type="text/css">
   
    .fil0 {fill:white}
    .fil1 {fill:black}
   
  </style>
  
  
  
  
 </defs>
 
<g style="fill-rule:evenodd" id="g3015" transform="matrix(1.0293389,0,0,1.0293389,-61.574911,3.3832216)"><path style="fill:#000000;fill-rule:evenodd" d="m 85.459972,3.5709964 c -8.606022,0 -16.087912,4.7429074 -16.087912,13.0714296 l 12.977164,18.177456 c -0.289588,0.366 -0.471326,0.819574 -0.471326,1.319712 l 0,1.83817 c 0,1.180857 0.971534,2.152386 2.152387,2.152386 l 1.83817,0 c 1.180857,0 2.152386,-0.971529 2.152386,-2.152386 l 0,-1.83817 c 0,-0.500138 -0.181944,-0.953707 -0.471325,-1.319712 L 100.54239,16.642426 c 0,-8.3285222 -6.476359,-13.0714296 -15.082418,-13.0714296 z M 72.89129,15.134184 c 1.005344,0 2.010889,0.502848 2.513737,1.508242 l 7.55692,17.643287 c -0.200903,0.116653 -0.380937,0.266949 -0.534169,0.439904 L 70.377554,16.642426 c 0.502848,-1.005394 1.508393,-1.508242 2.513736,-1.508242 z m 6.032968,0 c 1.005494,0 2.010989,0.502546 2.513736,1.508242 l 2.482315,17.360492 c -0.28999,0.01619 -0.5682,0.08319 -0.816964,0.204241 L 76.410521,16.642426 c 0.502748,-1.005696 1.508242,-1.508242 2.513737,-1.508242 z m 6.032967,0 c 1.005495,1.01e-4 2.010989,0.502541 2.513737,1.508242 l -1.665351,17.344781 -1.712483,0 -1.649639,-17.344781 c 0.502747,-1.005701 1.508242,-1.508343 2.513736,-1.508242 z m 6.032968,0 c 1.005494,0 2.010989,0.502541 2.513736,1.508242 l -6.692823,17.564733 c -0.24876,-0.121046 -0.52698,-0.188053 -0.816965,-0.204241 l 2.482315,-17.360492 c 0.502747,-1.005701 1.508242,-1.508242 2.513737,-1.508242 z m 6.032967,0 c 1.005344,0 2.010888,0.502848 2.513736,1.508242 L 87.470962,34.725617 c -0.153233,-0.172955 -0.333267,-0.323251 -0.534169,-0.439904 l 7.572631,-17.643287 c 0.502847,-1.005394 1.508392,-1.508242 2.513736,-1.508242 z" id="path3599" inkscape:connector-curvature="0"/></g></svg>