<svg xmlns="http://www.w3.org/2000/svg" xmlns:xlink="http://www.w3.org/1999/xlink" version="1.1" id="Layer_1" x="0px" y="0px" width="100px" height="100px" viewBox="0 0 100 100" enable-background="new 0 0 100 100" xml:space="preserve">
<path fill="none" stroke="#000000" stroke-width="1.7349" stroke-miterlimit="10" d="M40.597,51.359"/>
<path fill="none" stroke="#000000" stroke-width="1.7349" stroke-miterlimit="10" d="M42.158,51.359"/>
<path d="M83.162,37.438c-5.639-9.65-15.944-14.526-24.939-12.554c-0.174-0.412-0.354-0.81-0.537-1.199  c1.936-2.855,2.474-6.62,2.383-9.076c-0.02-0.524-0.452-0.939-0.984-0.914c-0.524,0.02-0.934,0.46-0.914,0.984  c0.01,0.257,0.113,3.997-1.49,7.061c-2.299-4.024-5.168-6.418-8.281-6.418c-3.156,0-6.06,2.46-8.374,6.583  c-1.697-3.093-1.599-6.964-1.589-7.226c0.019-0.524-0.391-0.964-0.915-0.983c-0.514-0.039-0.964,0.389-0.983,0.914  c-0.093,2.503,0.467,6.367,2.495,9.241c-0.156,0.336-0.308,0.681-0.458,1.033c-8.995-1.972-19.3,2.904-24.939,12.554  c-6.771,11.588-4.25,25.663,5.632,31.437c0.074,0.044,0.15,0.081,0.226,0.123l15.34-26.253c-0.072,1.304-0.113,2.629-0.113,3.977  c0,2.737,0.153,5.391,0.439,7.922c-1.212,0.803-2.513,1.472-3.894,1.921c0,0-1.04,11.705-5.828,15.727c0,0,7.765-5.686,8.229-12.028  c0,0,0.912-0.361,2.19-1.002c0.61,3.206,1.443,6.134,2.459,8.675c-1.174,0.889-2.47,1.633-3.868,2.089c0,0-0.811,9.122-4.542,12.256  c0,0,6.051-4.431,6.414-9.373c0,0,1.673-0.664,3.488-1.76c2.349,4.358,5.337,6.974,8.592,6.974s6.243-2.615,8.592-6.974  c1.815,1.096,3.488,1.76,3.488,1.76c0.362,4.942,6.413,9.373,6.413,9.373c-3.731-3.134-4.542-12.256-4.542-12.256  c-1.398-0.456-2.693-1.2-3.868-2.089c1.094-2.736,1.976-5.921,2.595-9.418c1.961,1.098,3.594,1.745,3.594,1.745  c0.465,6.343,8.229,12.028,8.229,12.028c-4.789-4.021-5.829-15.727-5.829-15.727c-1.94-0.632-3.725-1.696-5.326-2.96  c0.216-2.216,0.334-4.517,0.334-6.883c0-1.348-0.042-2.673-0.113-3.977l15.34,26.253c0.075-0.042,0.151-0.079,0.226-0.123  C87.411,63.101,89.933,49.026,83.162,37.438z M19.597,35.436c2.36,0,4.274,1.914,4.274,4.274s-1.914,4.274-4.274,4.274  s-4.274-1.914-4.274-4.274S17.237,35.436,19.597,35.436z M20.125,56.228c-2.36,0-4.274-1.914-4.274-4.274  c0-2.361,1.914-4.275,4.274-4.275c2.361,0,4.274,1.914,4.274,4.275C24.399,54.313,22.485,56.228,20.125,56.228z M29.518,38.074  c-2.36,0-4.274-1.914-4.274-4.274s1.914-4.274,4.274-4.274c2.361,0,4.274,1.914,4.274,4.274S31.878,38.074,29.518,38.074z   M67.619,38.074c-2.361,0-4.275-1.914-4.275-4.274s1.914-4.274,4.275-4.274c2.36,0,4.274,1.914,4.274,4.274  S69.979,38.074,67.619,38.074z M77.012,56.228c-2.36,0-4.274-1.914-4.274-4.274c0-2.361,1.914-4.275,4.274-4.275  s4.274,1.914,4.274,4.275C81.286,54.313,79.372,56.228,77.012,56.228z M77.539,43.984c-2.36,0-4.274-1.914-4.274-4.274  s1.914-4.274,4.274-4.274s4.274,1.914,4.274,4.274S79.899,43.984,77.539,43.984z"/>
</svg>