<?xml version="1.0" encoding="utf-8"?>
<!-- Generator: Adobe Illustrator 14.0.0, SVG Export Plug-In . SVG Version: 6.00 Build 43363)  -->
<!DOCTYPE svg PUBLIC "-//W3C//DTD SVG 1.0//EN" "http://www.w3.org/TR/2001/REC-SVG-20010904/DTD/svg10.dtd">
<svg version="1.0" id="Layer_1" xmlns="http://www.w3.org/2000/svg" xmlns:xlink="http://www.w3.org/1999/xlink" x="0px" y="0px"
	 width="100px" height="82.92px" viewBox="0 0 100 82.92" enable-background="new 0 0 100 82.92" xml:space="preserve">
<path d="M77.958,55.157H11.281C5.062,55.157,0,50.095,0,43.873c0-5.278,3.642-9.721,8.545-10.945
	c2.189-5.471,7.248-9.386,13.149-10.09C22.314,10.14,32.842,0,45.693,0c9.415,0,17.821,5.537,21.721,13.758
	c3.205-1.752,6.813-2.685,10.544-2.685c12.154,0,22.042,9.888,22.042,22.042C100,45.266,90.112,55.157,77.958,55.157L77.958,55.157z
	 M11.209,40.371c-1.897,0.042-3.43,1.598-3.43,3.501c0,1.931,1.57,3.502,3.502,3.502h66.677c7.865,0,14.26-6.397,14.26-14.26
	s-6.395-14.26-14.26-14.26c-3.683,0-7.179,1.405-9.846,3.95l-5.097,4.871l-1.405-6.906c-1.526-7.526-8.222-12.988-15.917-12.988
	c-8.958,0-16.247,7.286-16.247,16.244c0,0.728,0.054,1.482,0.157,2.249l0.73,5.284l-5.257-0.923
	c-0.496-0.086-0.992-0.131-1.474-0.131c-4,0-7.479,2.842-8.266,6.757l-0.65,3.229l-3.291-0.107
	C11.334,40.38,11.271,40.377,11.209,40.371L11.209,40.371z"/>
<path d="M27.843,71.986c-1.266,0-2.524,0-3.784,0c0.63-1.088,1.26-2.178,1.883-3.265c1.42-2.456-2.376-4.663-3.79-2.216
	c-0.63,1.093-1.265,2.189-1.895,3.285c-0.63-1.096-1.266-2.192-1.896-3.285c-1.413-2.447-5.209-0.24-3.79,2.216
	c0.63,1.087,1.254,2.177,1.884,3.265c-1.26,0-2.52,0-3.784,0c-2.828,0-2.828,4.387,0,4.387c1.265,0,2.524,0,3.784,0
	c-0.624,1.09-1.254,2.177-1.884,3.268c-1.419,2.453,2.377,4.663,3.79,2.215c0.63-1.093,1.266-2.188,1.896-3.284
	c0.63,1.096,1.265,2.191,1.895,3.284c1.414,2.448,5.21,0.238,3.79-2.215c-0.63-1.091-1.253-2.178-1.883-3.268
	c1.26,0,2.519,0,3.784,0C30.67,76.373,30.67,71.986,27.843,71.986z"/>
<path d="M57.58,71.986c-1.26,0-2.519,0-3.778,0c0.63-1.088,1.254-2.178,1.883-3.265c1.42-2.456-2.376-4.663-3.79-2.216
	c-0.629,1.093-1.265,2.189-1.895,3.285c-0.63-1.096-1.266-2.192-1.895-3.285c-1.42-2.447-5.21-0.24-3.79,2.216
	c0.623,1.087,1.253,2.177,1.883,3.265c-1.26,0-2.524,0-3.784,0c-2.827,0-2.827,4.387,0,4.387c1.26,0,2.524,0,3.784,0
	c-0.63,1.09-1.253,2.177-1.883,3.268c-1.42,2.453,2.37,4.663,3.79,2.215c0.629-1.093,1.265-2.188,1.895-3.284
	c0.63,1.096,1.266,2.191,1.895,3.284c1.414,2.448,5.21,0.238,3.79-2.215c-0.629-1.091-1.259-2.178-1.883-3.268
	c1.26,0,2.519,0,3.778,0C60.413,76.373,60.413,71.986,57.58,71.986z"/>
<path d="M87.323,71.986c-1.259,0-2.519,0-3.778,0c0.63-1.088,1.254-2.178,1.884-3.265c1.419-2.456-2.377-4.663-3.79-2.216
	c-0.63,1.093-1.266,2.189-1.896,3.285c-0.63-1.096-1.265-2.192-1.895-3.285c-1.42-2.447-5.21-0.24-3.79,2.216
	c0.624,1.087,1.253,2.177,1.883,3.265c-1.259,0-2.524,0-3.784,0c-2.827,0-2.827,4.387,0,4.387c1.26,0,2.525,0,3.784,0
	c-0.63,1.09-1.253,2.177-1.883,3.268c-1.42,2.453,2.37,4.663,3.79,2.215c0.63-1.093,1.265-2.188,1.895-3.284
	c0.63,1.096,1.266,2.191,1.896,3.284c1.413,2.448,5.209,0.238,3.79-2.215c-0.63-1.091-1.26-2.178-1.884-3.268c1.26,0,2.52,0,3.778,0
	C90.157,76.373,90.157,71.986,87.323,71.986z"/>
</svg>
