<?xml version="1.0" encoding="utf-8"?>
<!-- Generator: Adobe Illustrator 14.0.0, SVG Export Plug-In . SVG Version: 6.00 Build 43363)  -->
<!DOCTYPE svg PUBLIC "-//W3C//DTD SVG 1.0//EN" "http://www.w3.org/TR/2001/REC-SVG-20010904/DTD/svg10.dtd">
<svg version="1.0" id="Layer_1" xmlns="http://www.w3.org/2000/svg" xmlns:xlink="http://www.w3.org/1999/xlink" x="0px" y="0px"
	 width="100px" height="82.922px" viewBox="0 0 100 82.922" enable-background="new 0 0 100 82.922" xml:space="preserve">
<path d="M77.958,11.073c-3.73,0-7.339,0.933-10.544,2.685C63.515,5.537,55.108,0,45.693,0C32.842,0,22.314,10.141,21.694,22.838
	c-5.901,0.704-10.96,4.619-13.149,10.09C3.642,34.151,0,38.595,0,43.873c0,6.223,5.062,11.283,11.281,11.283h27.821l-4.238,8.501
	h6.463L28.781,82.922l32.948-23.357l-10.714-0.128l4.004-4.28h22.938c12.154,0,22.042-9.891,22.042-22.042
	C100,20.961,90.112,11.073,77.958,11.073z M77.958,47.375H11.281c-1.932,0-3.502-1.571-3.502-3.502c0-1.904,1.532-3.46,3.43-3.502
	c0.062,0.006,0.125,0.009,0.188,0.012l3.291,0.107l0.65-3.229c0.787-3.915,4.266-6.757,8.266-6.757c0.481,0,0.978,0.044,1.474,0.131
	l5.257,0.924l-0.73-5.284c-0.104-0.766-0.157-1.521-0.157-2.249c0-8.958,7.289-16.244,16.247-16.244
	c7.695,0,14.391,5.462,15.917,12.988l1.405,6.906l5.097-4.871c2.667-2.545,6.163-3.95,9.846-3.95c7.865,0,14.26,6.398,14.26,14.26
	S85.823,47.375,77.958,47.375z"/>
</svg>
