<?xml version="1.0" encoding="utf-8"?>
<!-- Generator: Adobe Illustrator 15.1.0, SVG Export Plug-In . SVG Version: 6.00 Build 0)  -->
<!DOCTYPE svg PUBLIC "-//W3C//DTD SVG 1.1//EN" "http://www.w3.org/Graphics/SVG/1.1/DTD/svg11.dtd">
<svg version="1.1" id="Layer_1" xmlns="http://www.w3.org/2000/svg" xmlns:xlink="http://www.w3.org/1999/xlink" x="0px" y="0px"
	 width="100px" height="100px" viewBox="0 0 100 100" enable-background="new 0 0 100 100" xml:space="preserve">
<path d="M64.026,1.611L1.611,64.026c-3.506,3.506-0.701,10.518,2.806,14.024L78.051,4.417C74.544,0.91,67.533-1.896,64.026,1.611z"
	/>
<path d="M21.949,95.583c3.505,3.508,10.519,6.312,14.025,2.805l62.415-62.414c3.507-3.506,0.701-10.52-2.806-14.026L21.949,95.583z"
	/>
<path d="M92.778,5.117L92.778,5.117c-3.506-3.506-9.115-0.701-11.92,2.104c-0.001,0-73.635,73.635-73.636,73.637
	c-2.805,2.805-5.61,8.414-2.104,11.92l2.105,2.104c3.506,3.507,9.116,0.702,11.921-2.104c0,0,73.634-73.634,73.634-73.634
	c2.806-2.805,5.611-8.415,2.105-11.922l-0.001,0L92.778,5.117z M81.909,18.092L81.909,18.092c-1.181,1.181-1.578,3.501-1.962,5.746
	c-0.469,2.745-0.952,5.584-2.947,7.579c-2.039,2.039-5.163,2.664-8.183,3.267c-1.949,0.391-4.376,0.875-5.142,1.642
	c-0.766,0.765-1.252,3.191-1.641,5.142c-0.604,3.02-1.229,6.143-3.27,8.182c-2.038,2.041-5.162,2.664-8.182,3.268
	c-1.95,0.39-4.376,0.876-5.142,1.641c-0.596,0.595-1.132,3.149-1.49,4.841c-0.665,3.153-1.353,6.418-3.419,8.484
	c-2.067,2.066-5.33,2.755-8.485,3.419c-1.69,0.356-4.244,0.895-4.84,1.489c-0.595,0.595-1.133,3.15-1.489,4.841
	c-0.665,3.153-1.353,6.418-3.419,8.484c-1.162,1.162-3.046,1.16-4.208,0c-1.161-1.162-1.161-3.047,0-4.207
	c0.817-0.817,1.387-3.525,1.806-5.505c0.647-3.072,1.259-5.975,3.104-7.82s4.747-2.458,7.82-3.105
	c1.979-0.416,4.688-0.987,5.504-1.803c0.817-0.817,1.387-3.525,1.806-5.505c0.647-3.072,1.259-5.975,3.103-7.821
	c2.041-2.04,5.162-2.664,8.183-3.268c1.949-0.39,4.377-0.875,5.142-1.641c0.766-0.766,1.252-3.192,1.641-5.142
	c0.604-3.021,1.23-6.144,3.269-8.183c2.039-2.04,5.163-2.665,8.183-3.268c1.949-0.39,4.377-0.875,5.142-1.641
	c0.655-0.654,0.993-2.63,1.29-4.373c0.516-3.015,1.099-6.431,3.619-8.952l0,0c1.162-1.162,3.047-1.162,4.208,0
	C83.07,15.045,83.071,16.929,81.909,18.092z"/>
</svg>
