<?xml version="1.0" encoding="utf-8"?>
<!-- Generator: Adobe Illustrator 14.0.0, SVG Export Plug-In . SVG Version: 6.00 Build 43363)  -->
<!DOCTYPE svg PUBLIC "-//W3C//DTD SVG 1.0//EN" "http://www.w3.org/TR/2001/REC-SVG-20010904/DTD/svg10.dtd">
<svg version="1.0" id="Layer_1" xmlns="http://www.w3.org/2000/svg" xmlns:xlink="http://www.w3.org/1999/xlink" x="0px" y="0px"
	 width="79.52px" height="100px" viewBox="0 0 79.52 100" enable-background="new 0 0 79.52 100" xml:space="preserve">
<path d="M39.51,21.451c-11.348,0-20.579,9.232-20.579,20.58h4.888c0-8.652,7.04-15.691,15.691-15.691s15.691,7.038,15.691,15.691
	c0,4.156-5.193,12.122-8.021,16.4c-0.478,0.723-0.917,1.388-1.298,1.978c-1.056,1.636-1.151,3.942-1.256,6.383
	c-0.114,2.757-0.246,5.884-1.748,6.978c-1.076,0.787-3.178,0.779-6.075-0.021l-1.302,4.712c1.884,0.521,3.566,0.78,5.062,0.78
	c2.083,0,3.801-0.506,5.194-1.52c3.411-2.485,3.6-7.055,3.754-10.726c0.058-1.36,0.144-3.418,0.478-3.937
	c0.373-0.578,0.801-1.227,1.267-1.932c3.546-5.365,8.831-13.471,8.831-19.096C60.09,30.683,50.857,21.451,39.51,21.451z"/>
<g>
	<path d="M29.389,42.031c0-5.58,4.54-10.121,10.121-10.121c5.58,0,10.122,4.54,10.122,10.121c0,1.475-0.321,2.877-0.892,4.142
		l3.401,1.602c0.8-1.751,1.25-3.695,1.25-5.744c0-7.654-6.228-13.881-13.882-13.881s-13.882,6.227-13.882,13.881l0,0H29.389
		L29.389,42.031z"/>
</g>
<path d="M33.627,72.342c-4.451-3.257-8.903-6.515-13.355-9.771c-0.154-0.113-0.306-0.059-0.395,0.059
	c-0.02,0.017-0.038,0.036-0.055,0.06c-6.285,8.596-12.569,17.19-18.854,25.786c-0.302,0.412-0.603,0.824-0.904,1.236
	C0.021,89.771,0.002,89.856,0,89.955c0,0,2.283,7.122,3.142,9.804C3.187,99.898,3.308,100,3.458,100c0.214,0,0.427,0,0.641,0
	c2.519,0,5.038,0,7.558,0h2.058c0.111-0.038,0.201-0.091,0.255-0.164c0.233-0.319,0.467-0.639,0.7-0.957
	c3.534-4.833,7.067-9.666,10.602-14.499c2.825-3.862,5.649-7.726,8.475-11.588C33.858,72.637,33.76,72.438,33.627,72.342z"/>
<path d="M79.508,10.012c-1.042-3.257-2.085-6.514-3.128-9.771C76.335,0.101,76.214,0,76.062,0c-3.408,0-6.816,0-10.225,0
	c-0.13,0-0.219,0.062-0.27,0.146c-0.005,0.006-0.01,0.01-0.015,0.017c-4.775,6.526-9.55,13.053-14.325,19.579
	c-0.103,0.14-0.029,0.374,0.118,0.45c5.246,2.713,9.074,7.484,10.547,13.208c0.076,0.299,0.441,0.295,0.601,0.079
	c2.895-3.957,5.79-7.915,8.685-11.872c1.275-1.744,8.313-11.375,8.313-11.375C79.52,10.152,79.529,10.077,79.508,10.012z"/>
</svg>
