<svg xmlns="http://www.w3.org/2000/svg" xmlns:xlink="http://www.w3.org/1999/xlink" version="1.1" id="Capa_1" x="0px" y="0px" width="100px" height="100px" viewBox="0 0 100 100" enable-background="new 0 0 100 100" xml:space="preserve">
<path d="M59.749,18.936c-0.921-0.387-1.828-0.769-2.706-1.15l-0.306-0.132c-8.579-3.726-12.887-5.598-17.117-1.059  c-5.66,5.27-7.114,17.071-8.284,26.554c-0.905,7.352-1.688,13.701-4.016,14.957c-0.615,0.333-1.338,0.285-2.207-0.145  c-0.187-0.093-0.414-0.017-0.506,0.171c-0.093,0.188-0.016,0.413,0.171,0.507c0.594,0.293,1.155,0.438,1.677,0.438  c0.434,0,0.844-0.102,1.223-0.306c2.672-1.44,3.439-7.658,4.409-15.531c1.154-9.367,2.591-21.024,8.057-26.102l0.019-0.02  c3.87-4.16,7.756-2.472,16.274,1.227l0.305,0.133c0.879,0.382,1.789,0.766,2.714,1.154c8.009,3.369,17.086,7.188,16.146,14.555  c-0.786,6.183-8.994,16.175-13.187,20.928c-1.167-0.752-2.737-0.612-3.747,0.417L43.624,70.822  c-1.229-0.316-2.588,0.011-3.542,0.979c-1.425,1.447-1.404,3.775,0.042,5.2c0.475,0.465,1.042,0.774,1.643,0.933  c-1.263,2.806-1.074,5.777,0.755,7.577c2.572,2.531,7.407,1.786,10.797-1.66c3.389-3.446,4.053-8.29,1.484-10.819  c-0.935-0.917-2.165-1.401-3.514-1.485l11.636-11.828c1.119-1.137,1.137-2.941,0.072-4.104c4.252-4.802,12.531-14.871,13.355-21.331  C77.363,26.347,68.006,22.41,59.749,18.936z M53.113,72.828c0.217-0.01,0.385,0.154,0.396,0.361  c0.007,0.209-0.155,0.385-0.363,0.393c-5.397,0.226-9.592,5.15-9.35,10.979c0.009,0.209-0.154,0.385-0.362,0.393  c-0.005,0-0.01,0-0.016,0c-0.203,0-0.37-0.159-0.377-0.363C42.781,78.347,47.301,73.072,53.113,72.828z"/>
<path fill="none" d="M18.44,25.474c-0.2-0.059-0.411,0.055-0.47,0.255c-0.061,0.201,0.055,0.41,0.255,0.47  c5.595,1.654,8.9,7.214,7.369,12.395c-0.059,0.2,0.056,0.41,0.255,0.47c0.035,0.01,0.073,0.016,0.107,0.016  c0.164,0,0.313-0.106,0.362-0.271C27.968,33.229,24.434,27.247,18.44,25.474z"/>
<path d="M83.897,44.208c-3.018-6.745-12.391-12.576-20.663-17.721c-6.677-4.153-12.982-8.076-13.334-11.171  c-0.088-0.781,0.204-1.495,0.894-2.183c0.149-0.147,0.149-0.387,0.001-0.535c-0.146-0.148-0.387-0.148-0.533-0.001  c-0.854,0.849-1.228,1.792-1.114,2.804c0.394,3.458,6.554,7.291,13.687,11.728c8.185,5.09,17.459,10.86,20.377,17.399l0.013,0.025  c1.502,2.8,2.411,7.371,2.314,11.643c-0.083,3.724-0.922,8.97-4.432,12.826c-6.242,6.853-18.089,7.18-25.489,3.554  c-5.596-2.745-12.4-13.738-15.544-19.244c1.09-0.858,1.464-2.391,0.818-3.68l-9.61-19.176c0.699-1.061,0.829-2.453,0.22-3.669  c-0.911-1.816-3.121-2.55-4.937-1.64c-0.593,0.298-1.07,0.736-1.413,1.252c-2.248-2.103-5.121-2.882-7.416-1.733  c-3.225,1.615-4.083,6.431-1.917,10.753c2.165,4.321,6.536,6.514,9.76,4.899c1.17-0.586,2.025-1.594,2.541-2.844l7.434,14.832  c0.713,1.428,2.415,2.027,3.859,1.396c3.17,5.574,10.025,16.666,15.871,19.532c3.184,1.56,7.035,2.395,10.886,2.395  c0.937,0,1.875-0.049,2.803-0.148c5.192-0.563,9.698-2.683,12.692-5.97C88.29,62.259,86.668,49.385,83.897,44.208z M26.319,38.808  c-0.049,0.165-0.198,0.271-0.362,0.271c-0.035,0-0.073-0.005-0.107-0.016c-0.2-0.06-0.314-0.27-0.255-0.47  c1.531-5.18-1.774-10.74-7.369-12.395c-0.2-0.06-0.315-0.27-0.255-0.47c0.059-0.2,0.27-0.314,0.47-0.255  C24.434,27.247,27.968,33.229,26.319,38.808z"/>
</svg>