<?xml version="1.0" encoding="utf-8"?>
<!-- Generator: Adobe Illustrator 14.0.0, SVG Export Plug-In . SVG Version: 6.00 Build 43363)  -->
<!DOCTYPE svg PUBLIC "-//W3C//DTD SVG 1.0//EN" "http://www.w3.org/TR/2001/REC-SVG-20010904/DTD/svg10.dtd">
<svg version="1.0" id="Layer_1" xmlns="http://www.w3.org/2000/svg" xmlns:xlink="http://www.w3.org/1999/xlink" x="0px" y="0px"
	 width="88.391px" height="100px" viewBox="0 0 88.391 100" enable-background="new 0 0 88.391 100" xml:space="preserve">
<circle cx="28.76" cy="10.554" r="10.554"/>
<path d="M59.675,86.689L38.296,70.886l-6.319-46.769c-1.033,0.244-2.109,0.377-3.217,0.377c-3.374,0-6.468-1.199-8.879-3.193
	L0,43.536l9.235,7.916l-1.584,3.958L9.521,100h6.312l1.317-29.815l6.597,10.026L25.594,100h5.013V76.253l-4.53-11.12L50.34,83.07
	L41.557,100h21.899l24.935-24.274C71.887,71.927,49.405,62.803,59.675,86.689z M11.609,44.987L8.707,42.48l5.277-5.409
	L11.609,44.987z M31.896,66.154l-6.854-5.068l3.191-12.273L31.896,66.154z"/>
</svg>
