<?xml version="1.0" encoding="utf-8"?>
<!-- Generator: Adobe Illustrator 15.1.0, SVG Export Plug-In . SVG Version: 6.00 Build 0)  -->
<!DOCTYPE svg PUBLIC "-//W3C//DTD SVG 1.1//EN" "http://www.w3.org/Graphics/SVG/1.1/DTD/svg11.dtd">
<svg version="1.1" id="Layer_1" xmlns="http://www.w3.org/2000/svg" xmlns:xlink="http://www.w3.org/1999/xlink" x="0px" y="0px"
	 width="100px" height="63.917px" viewBox="0 0 100 63.917" enable-background="new 0 0 100 63.917" xml:space="preserve">
<path d="M24.5,23.92H0.201c0.459,2.177,1.567,3.91,3.623,4.641H21.2C23.079,27.568,23.926,25.798,24.5,23.92z"/>
<path d="M78.8,28.562h17.377c2.055-0.73,3.162-2.463,3.621-4.641H75.5C76.074,25.798,76.921,27.568,78.8,28.562z"/>
<path d="M66.344,20.651v-5.104c2.82,0.423,5.192,0.98,6.268,1.709c0.851,0.576,1.36,1.512,1.746,2.61H100
	c-0.342-4.631-2.314-9.713-4.062-11.773C88.41-0.787,50,0,50,0S11.59-0.787,4.061,8.093C2.314,10.153,0.342,15.235,0,19.867h25.641
	c0.387-1.099,0.896-2.035,1.748-2.611c1.075-0.729,3.447-1.285,6.268-1.709v5.104l-6.862,7.842l-9.995,24.634v4.997v2.938
	c0,1.577,1.278,2.856,2.856,2.856H50h30.347c1.576,0,2.856-1.278,2.856-2.856v-2.938v-4.997l-9.997-24.633L66.344,20.651z
	 M61.012,14.927v4.94H38.988v-4.94C44.587,14.418,55.412,14.418,61.012,14.927z M50,52.869c-7.405,0-13.41-6.003-13.41-13.407
	c0-7.406,6.003-13.41,13.41-13.41c7.407,0,13.41,6.004,13.41,13.41C63.41,46.866,57.405,52.869,50,52.869z"/>
</svg>
