<svg xmlns="http://www.w3.org/2000/svg" xmlns:xlink="http://www.w3.org/1999/xlink" version="1.1" id="Layer_1" x="0px" y="0px" width="100px" height="100px" viewBox="0 0 100 100" enable-background="new 0 0 100 100" xml:space="preserve">
<path fill="#000000" d="M92.604,52.639c-2.17-2.298-5.791-2.403-8.092-0.234L69.255,66.797c-0.469-5.841-2.574-11.229-5.863-15.693  c0.05-0.3,0.094-0.603,0.094-0.918V14.233c0-3.161-2.562-5.724-5.725-5.724s-5.724,2.563-5.724,5.724v27.403  c-1.093-0.532-2.223-0.994-3.382-1.395V6.056c0-3.161-2.563-5.724-5.724-5.724s-5.724,2.563-5.724,5.724v32.538  c-1.184,0.055-2.35,0.178-3.495,0.364V8.546c0-3.161-2.563-5.724-5.724-5.724s-5.723,2.563-5.723,5.724v34.757  c-1.007,0.637-1.976,1.329-2.899,2.075V32.209c0-3.161-2.562-5.724-5.724-5.724c-3.16,0-5.723,2.563-5.723,5.724v35.952  c0,0.076,0.02,0.147,0.022,0.224c-0.008,0.299-0.022,0.594-0.022,0.893C7.919,86.218,21.7,100,38.64,100  c8.775,0,16.699-3.705,22.303-9.624L92.368,60.73C94.667,58.561,94.773,54.938,92.604,52.639z M19.366,69.277  c0-10.629,8.646-19.274,19.274-19.274c10.629,0,19.276,8.645,19.276,19.274c0,5.058-1.974,9.65-5.171,13.094l-0.052,0.049  c-0.058,0.055-0.097,0.119-0.151,0.174c-3.512,3.664-8.44,5.959-13.902,5.959C28.013,88.553,19.366,79.904,19.366,69.277z"/>
</svg>