<svg xmlns="http://www.w3.org/2000/svg" xmlns:xlink="http://www.w3.org/1999/xlink" version="1.1" id="Layer_1" x="0px" y="0px" width="100px" height="100px" viewBox="0 0 100 100" enable-background="new 0 0 100 100" xml:space="preserve">
<g>
	<path d="M29.211,74.403c-3.881,0-7.039-3.156-7.039-7.038s3.158-7.039,7.039-7.039s7.038,3.157,7.038,7.039   S33.093,74.403,29.211,74.403z M29.211,62.995c-2.41,0-4.37,1.961-4.37,4.37s1.96,4.37,4.37,4.37s4.37-1.961,4.37-4.37   S31.621,62.995,29.211,62.995z"/>
</g>
<g>
	<path d="M71.132,74.403c-3.882,0-7.038-3.156-7.038-7.038s3.156-7.039,7.038-7.039s7.039,3.157,7.039,7.039   S75.014,74.403,71.132,74.403z M71.132,62.995c-2.409,0-4.37,1.961-4.37,4.37s1.961,4.37,4.37,4.37s4.37-1.961,4.37-4.37   S73.541,62.995,71.132,62.995z"/>
</g>
<g>
	<rect x="40.488" y="62.431" width="19.195" height="2.669"/>
</g>
<g>
	<rect x="40.488" y="66.315" width="19.195" height="2.669"/>
</g>
<g>
	<rect x="40.488" y="70.025" width="19.195" height="2.669"/>
</g>
<g>
	<rect x="30.614" y="12.274" transform="matrix(0.7071 0.7071 -0.7071 0.7071 19.9553 -20.5637)" width="8.369" height="3.061"/>
</g>
<g>
	<rect x="48.651" y="0.497" width="3.058" height="8.368"/>
</g>
<g>
	<rect x="63.8" y="9.62" transform="matrix(0.7069 0.7073 -0.7073 0.7069 28.9151 -42.164)" width="3.06" height="8.369"/>
</g>
<path d="M95.233,52.043h-8.299l-3.229-22.749H55.146v-8.582h-9.931v8.582H16.658l-3.231,22.749H5.321v9.934h7.602v19.499h5.875  v17.028h2.597V82.711h1.778v15.793h3.22V82.711h1.778v15.793h2.596V81.476h38.817v17.028h2.598V82.711h1.778v15.793h3.219V82.711  h1.778v15.793h2.597V81.476h5.885V61.977h7.794V52.043z M48.274,23.772h3.812v4.523h-3.812V23.772z M19.315,32.354h61.733  l3.009,21.182h-4.893l-22.179-2.678l-0.171,1.412l10.489,1.267H42.675l-22.177-2.678l-0.17,1.412l10.49,1.267h-14.51L19.315,32.354z   M8.381,58.917v-3.814h4.524v0.614v1.518v1.683H8.381z M15.983,78.415V57.234h68.396v21.181H15.983z M92.173,58.917H87.65v-1.683  h0.021l-0.021-0.149v-1.982h4.522V58.917z"/>
</svg>