<svg xmlns="http://www.w3.org/2000/svg" xmlns:xlink="http://www.w3.org/1999/xlink" version="1.1" x="0px" y="0px" width="100px" height="100.006px" viewBox="0 0 100 100.006" enable-background="new 0 0 100 100.006" xml:space="preserve">
<g id="Layer_1">
	<g>
		<path d="M82.21,49.383v-0.26c0-0.09,0-0.17-0.01-0.25c-0.02-0.94-0.09-1.87-0.2-2.79c-1.75-15.05-13.75-27.01-28.82-28.7    c-0.91-0.11-1.84-0.17-2.78-0.2h-0.39c-0.08-0.01-0.16-0.01-0.25-0.01h-0.51c-0.09,0-0.17,0-0.25,0.01c-0.05-0.01-0.09,0-0.13,0    c-0.94,0.01-1.87,0.07-2.79,0.17c-15.18,1.59-27.31,13.6-29.07,28.73c-0.11,0.92-0.18,1.85-0.2,2.79    c-0.01,0.08-0.01,0.16-0.01,0.25v0.26c-0.01,0.08-0.01,0.16-0.01,0.25v0.51c0,0.08,0,0.17,0.01,0.25    c0.01,0.94,0.06,1.87,0.16,2.79c1.54,15.36,13.77,27.63,29.12,29.24c0.92,0.1,1.85,0.16,2.79,0.17c0.04,0,0.08,0.01,0.13,0    c0.08,0.01,0.16,0.01,0.25,0.01h0.51c0.09,0,0.17,0,0.25-0.01h0.39c0.94-0.03,1.87-0.09,2.78-0.2    c15.24-1.7,27.34-13.93,28.87-29.21c0.1-0.92,0.15-1.85,0.16-2.79c0.01-0.08,0.01-0.17,0.01-0.25v-0.51    C82.22,49.543,82.22,49.463,82.21,49.383z M75.11,50.143c0.01,0.08,0.01,0.17,0,0.25c-0.01,0.94-0.08,1.87-0.21,2.79    c-1.46,11.37-10.4,20.43-21.72,22.05c-0.91,0.14-1.84,0.22-2.78,0.25c-0.13,0.01-0.26,0.01-0.39,0.01c-0.08,0.01-0.17,0.01-0.25,0    c-0.04,0.01-0.09,0.01-0.13,0.01h-0.12c-0.09,0-0.17,0-0.26-0.01c-0.08,0.01-0.17,0.01-0.25,0h-0.13    c-0.94-0.02-1.88-0.1-2.79-0.23c-11.44-1.52-20.5-10.63-21.97-22.08c-0.13-0.92-0.2-1.85-0.21-2.79c-0.01-0.08-0.01-0.17,0-0.25    c-0.01-0.08-0.01-0.17-0.01-0.25c0-0.09,0-0.17,0.01-0.26c-0.01-0.08-0.01-0.17,0-0.25c0-0.09,0-0.17,0.01-0.26    c-0.01-0.08,0-0.17,0-0.25c0.04-0.94,0.13-1.87,0.27-2.79c1.67-11.21,10.64-20.07,21.9-21.57c0.91-0.13,1.85-0.21,2.79-0.23H49    c0.08-0.01,0.17-0.01,0.25,0c0.09-0.01,0.17-0.01,0.26-0.01h0.12c0.04,0,0.09,0,0.13,0.01c0.08-0.01,0.17-0.01,0.25,0    c0.13,0,0.26,0,0.39,0.01c0.94,0.03,1.87,0.11,2.78,0.25c11.14,1.6,19.99,10.41,21.65,21.54c0.14,0.92,0.23,1.85,0.27,2.79    c0,0.08,0.01,0.17,0,0.25c0.01,0.09,0.01,0.17,0.01,0.26c0.01,0.08,0.01,0.17,0,0.25c0.01,0.09,0.01,0.17,0.01,0.26    C75.12,49.973,75.12,50.063,75.11,50.143z"/>
	</g>
	<g>
		<line fill="none" x1="49.634" y1="66.879" x2="49.634" y2="90.718"/>
		<path d="M53.18,66.883v23.84c0,1.96-1.58,3.55-3.55,3.55c-1.96,0-3.55-1.59-3.55-3.55v-23.84c0-1.96,1.59-3.55,3.55-3.55    C51.6,63.333,53.18,64.923,53.18,66.883z"/>
	</g>
	<g>
		<line fill="none" x1="49.634" y1="8.55" x2="49.634" y2="32.389"/>
		<path d="M53.18,8.553v23.84c0,1.96-1.58,3.55-3.55,3.55c-1.96,0-3.55-1.59-3.55-3.55V8.553c0-1.96,1.59-3.55,3.55-3.55    C51.6,5.003,53.18,6.593,53.18,8.553z"/>
	</g>
	<g>
		<line fill="none" x1="32.389" y1="49.634" x2="8.55" y2="49.634"/>
		<path d="M35.94,49.633c0,1.96-1.59,3.55-3.55,3.55H8.55c-1.96,0-3.55-1.59-3.55-3.55s1.59-3.55,3.55-3.55h23.84    C34.35,46.083,35.94,47.673,35.94,49.633z"/>
	</g>
	<g>
		<line fill="none" x1="90.718" y1="49.634" x2="66.879" y2="49.634"/>
		<path d="M94.27,49.633c0,1.96-1.59,3.55-3.55,3.55H66.88c-1.96,0-3.55-1.59-3.55-3.55s1.59-3.55,3.55-3.55h23.84    C92.68,46.083,94.27,47.673,94.27,49.633z"/>
	</g>
	<g>
		<path fill="#000000" d="M49.6,46.153h-0.06c-2.36,0.03-4.27,1.96-4.27,4.33s1.91,4.3,4.27,4.33h0.06c2.38,0,4.32-1.94,4.32-4.33    S51.98,46.153,49.6,46.153z M49.47,48.453c1.12,0,2.02,0.91,2.02,2.03s-0.9,2.03-2.02,2.03c-1.12,0-2.03-0.91-2.03-2.03    S48.35,48.453,49.47,48.453z"/>
	</g>
</g>
<g id="Layer_2">
	<g>
		<path d="M79.42,49.633c0.01-0.08,0.01-0.17,0-0.25c0-0.09,0-0.17-0.01-0.26c0.01-0.08,0.01-0.17-0.01-0.25    c-0.02-0.94-0.09-1.87-0.22-2.79c-1.72-13.52-12.48-24.24-26-25.89c-0.91-0.12-1.84-0.19-2.78-0.21    c-0.13-0.01-0.26-0.01-0.39-0.01c-0.08-0.01-0.17-0.01-0.25,0c-0.04-0.01-0.09-0.01-0.13-0.01h-0.12c-0.09,0-0.17,0-0.26,0.01    c-0.08-0.01-0.17-0.01-0.25,0c-0.04,0-0.09,0-0.13,0.01c-0.94,0.01-1.87,0.07-2.79,0.18c-13.64,1.56-24.52,12.32-26.25,25.92    c-0.13,0.92-0.2,1.85-0.22,2.79c-0.02,0.08-0.02,0.17-0.01,0.25c-0.01,0.09-0.01,0.17-0.01,0.26c-0.01,0.08-0.01,0.17,0,0.25    c-0.01,0.09-0.01,0.17-0.01,0.26c0,0.08,0,0.17,0.01,0.25c-0.01,0.08-0.01,0.17,0,0.25c0.01,0.94,0.07,1.87,0.17,2.79    c1.52,13.83,12.51,24.85,26.32,26.43c0.92,0.11,1.85,0.17,2.79,0.18c0.04,0.01,0.09,0.01,0.13,0.01c0.08,0.01,0.17,0.01,0.25,0    c0.09,0.01,0.17,0.01,0.26,0.01h0.12c0.04,0,0.09,0,0.13-0.01c0.08,0.01,0.17,0.01,0.25,0c0.13,0,0.26,0,0.39-0.01    c0.94-0.02,1.87-0.09,2.78-0.21c13.7-1.68,24.56-12.65,26.07-26.4c0.1-0.92,0.16-1.85,0.17-2.79c0.01-0.08,0.01-0.17,0-0.25    c0.01-0.08,0.01-0.17,0.01-0.25C79.43,49.803,79.43,49.723,79.42,49.633z M77.9,50.143c0.01,0.08,0.01,0.17,0,0.25    c-0.01,0.94-0.07,1.87-0.19,2.79c-1.49,12.91-11.67,23.21-24.53,24.86c-0.91,0.13-1.84,0.21-2.78,0.23    c-0.13,0.01-0.26,0.01-0.39,0.01c-0.08,0.01-0.17,0.01-0.25,0c-0.04,0.01-0.09,0.01-0.13,0.01h-0.12c-0.09,0-0.17,0-0.26-0.01    c-0.08,0.01-0.17,0.01-0.25,0c-0.05,0-0.09,0-0.13-0.01c-0.94-0.01-1.87-0.08-2.79-0.2c-12.97-1.56-23.28-11.9-24.78-24.89    c-0.12-0.92-0.18-1.85-0.19-2.79c-0.01-0.08-0.01-0.17,0-0.25c-0.01-0.08-0.01-0.17-0.01-0.25c0-0.09,0-0.17,0.01-0.26    c-0.01-0.08-0.01-0.17,0-0.25c0-0.09,0-0.18,0.01-0.26c-0.01-0.09,0-0.17,0.01-0.25c0.02-0.94,0.1-1.88,0.24-2.79    c1.7-12.75,11.91-22.85,24.71-24.38c0.92-0.12,1.85-0.19,2.79-0.2c0.04-0.01,0.08-0.01,0.13-0.01c0.08-0.01,0.17-0.01,0.25,0    c0.09-0.01,0.17-0.01,0.26-0.01h0.12c0.04,0,0.09,0,0.13,0.01c0.08-0.01,0.17-0.01,0.25,0c0.13,0,0.26,0,0.39,0.01    c0.94,0.02,1.87,0.1,2.78,0.23c12.68,1.63,22.77,11.68,24.46,24.35c0.14,0.91,0.22,1.85,0.24,2.79c0.01,0.08,0.02,0.16,0.01,0.25    c0.01,0.08,0.01,0.17,0.01,0.26c0.01,0.08,0.01,0.17,0,0.25c0.01,0.09,0.01,0.17,0.01,0.26C77.91,49.973,77.91,50.063,77.9,50.143    z"/>
	</g>
	<g>
		<line fill="none" x1="49.634" y1="66.879" x2="49.634" y2="90.718"/>
		<path d="M49.634,91.479c-0.42,0-0.761-0.341-0.761-0.761V66.879c0-0.42,0.34-0.761,0.761-0.761s0.761,0.341,0.761,0.761v23.839    C50.395,91.138,50.055,91.479,49.634,91.479z"/>
	</g>
	<g>
		<line fill="none" x1="49.634" y1="8.55" x2="49.634" y2="32.389"/>
		<path d="M49.634,33.15c-0.42,0-0.761-0.341-0.761-0.761V8.55c0-0.42,0.34-0.761,0.761-0.761s0.761,0.341,0.761,0.761v23.839    C50.395,32.81,50.055,33.15,49.634,33.15z"/>
	</g>
	<g>
		<line fill="none" x1="32.389" y1="49.634" x2="8.55" y2="49.634"/>
		<path d="M32.389,50.395H8.55c-0.42,0-0.761-0.34-0.761-0.761s0.341-0.761,0.761-0.761h23.839c0.42,0,0.761,0.34,0.761,0.761    S32.81,50.395,32.389,50.395z"/>
	</g>
	<g>
		<line fill="none" x1="90.718" y1="49.634" x2="66.879" y2="49.634"/>
		<path d="M90.718,50.395H66.879c-0.42,0-0.761-0.34-0.761-0.761s0.341-0.761,0.761-0.761h23.839c0.42,0,0.761,0.34,0.761,0.761    S91.138,50.395,90.718,50.395z"/>
	</g>
	<g>
		<path fill="#000000" d="M49.6,46.153h-0.06c-2.36,0.03-4.27,1.96-4.27,4.33s1.91,4.3,4.27,4.33h0.06c2.38,0,4.32-1.94,4.32-4.33    S51.98,46.153,49.6,46.153z M49.47,48.453c1.12,0,2.02,0.91,2.02,2.03s-0.9,2.03-2.02,2.03c-1.12,0-2.03-0.91-2.03-2.03    S48.35,48.453,49.47,48.453z"/>
	</g>
</g>
<g id="Layer_3">
	<g>
		<path d="M82.21,49.383v-0.26c0-0.09,0-0.17-0.01-0.25c-0.02-0.94-0.09-1.87-0.2-2.79c-1.75-15.05-13.75-27.01-28.82-28.7    c-0.91-0.11-1.84-0.17-2.78-0.2h-0.39c-0.08-0.01-0.16-0.01-0.25-0.01h-0.51c-0.09,0-0.17,0-0.25,0.01c-0.05-0.01-0.09,0-0.13,0    c-0.94,0.01-1.87,0.07-2.79,0.17c-15.18,1.59-27.31,13.6-29.07,28.73c-0.11,0.92-0.18,1.85-0.2,2.79    c-0.01,0.08-0.01,0.16-0.01,0.25v0.26c-0.01,0.08-0.01,0.16-0.01,0.25v0.51c0,0.08,0,0.17,0.01,0.25    c0.01,0.94,0.06,1.87,0.16,2.79c1.54,15.36,13.77,27.63,29.12,29.24c0.92,0.1,1.85,0.16,2.79,0.17c0.04,0,0.08,0.01,0.13,0    c0.08,0.01,0.16,0.01,0.25,0.01h0.51c0.09,0,0.17,0,0.25-0.01h0.39c0.94-0.03,1.87-0.09,2.78-0.2    c15.24-1.7,27.34-13.93,28.87-29.21c0.1-0.92,0.15-1.85,0.16-2.79c0.01-0.08,0.01-0.17,0.01-0.25v-0.51    C82.22,49.543,82.22,49.463,82.21,49.383z M75.11,50.143c0.01,0.08,0.01,0.17,0,0.25c-0.01,0.94-0.08,1.87-0.21,2.79    c-1.46,11.37-10.4,20.43-21.72,22.05c-0.91,0.14-1.84,0.22-2.78,0.25c-0.13,0.01-0.26,0.01-0.39,0.01c-0.08,0.01-0.17,0.01-0.25,0    c-0.04,0.01-0.09,0.01-0.13,0.01h-0.12c-0.09,0-0.17,0-0.26-0.01c-0.08,0.01-0.17,0.01-0.25,0h-0.13    c-0.94-0.02-1.88-0.1-2.79-0.23c-11.44-1.52-20.5-10.63-21.97-22.08c-0.13-0.92-0.2-1.85-0.21-2.79c-0.01-0.08-0.01-0.17,0-0.25    c-0.01-0.08-0.01-0.17-0.01-0.25c0-0.09,0-0.17,0.01-0.26c-0.01-0.08-0.01-0.17,0-0.25c0-0.09,0-0.17,0.01-0.26    c-0.01-0.08,0-0.17,0-0.25c0.04-0.94,0.13-1.87,0.27-2.79c1.67-11.21,10.64-20.07,21.9-21.57c0.91-0.13,1.85-0.21,2.79-0.23H49    c0.08-0.01,0.17-0.01,0.25,0c0.09-0.01,0.17-0.01,0.26-0.01h0.12c0.04,0,0.09,0,0.13,0.01c0.08-0.01,0.17-0.01,0.25,0    c0.13,0,0.26,0,0.39,0.01c0.94,0.03,1.87,0.11,2.78,0.25c11.14,1.6,19.99,10.41,21.65,21.54c0.14,0.92,0.23,1.85,0.27,2.79    c0,0.08,0.01,0.17,0,0.25c0.01,0.09,0.01,0.17,0.01,0.26c0.01,0.08,0.01,0.17,0,0.25c0.01,0.09,0.01,0.17,0.01,0.26    C75.12,49.973,75.12,50.063,75.11,50.143z"/>
	</g>
	<g>
		<line fill="none" x1="49.634" y1="66.879" x2="49.634" y2="90.718"/>
		<path d="M53.18,66.883v23.84c0,1.96-1.58,3.55-3.55,3.55c-1.96,0-3.55-1.59-3.55-3.55v-23.84c0-1.96,1.59-3.55,3.55-3.55    C51.6,63.333,53.18,64.923,53.18,66.883z"/>
	</g>
	<g>
		<line fill="none" x1="49.634" y1="8.55" x2="49.634" y2="32.389"/>
		<path d="M53.18,8.553v23.84c0,1.96-1.58,3.55-3.55,3.55c-1.96,0-3.55-1.59-3.55-3.55V8.553c0-1.96,1.59-3.55,3.55-3.55    C51.6,5.003,53.18,6.593,53.18,8.553z"/>
	</g>
	<g>
		<line fill="none" x1="32.389" y1="49.634" x2="8.55" y2="49.634"/>
		<path d="M35.94,49.633c0,1.96-1.59,3.55-3.55,3.55H8.55c-1.96,0-3.55-1.59-3.55-3.55s1.59-3.55,3.55-3.55h23.84    C34.35,46.083,35.94,47.673,35.94,49.633z"/>
	</g>
	<g>
		<line fill="none" x1="90.718" y1="49.634" x2="66.879" y2="49.634"/>
		<path d="M94.27,49.633c0,1.96-1.59,3.55-3.55,3.55H66.88c-1.96,0-3.55-1.59-3.55-3.55s1.59-3.55,3.55-3.55h23.84    C92.68,46.083,94.27,47.673,94.27,49.633z"/>
	</g>
	<g>
		<path fill="#000000" d="M49.6,46.153h-0.06c-2.36,0.03-4.27,1.96-4.27,4.33s1.91,4.3,4.27,4.33h0.06c2.38,0,4.32-1.94,4.32-4.33    S51.98,46.153,49.6,46.153z M49.47,48.453c1.12,0,2.02,0.91,2.02,2.03s-0.9,2.03-2.02,2.03c-1.12,0-2.03-0.91-2.03-2.03    S48.35,48.453,49.47,48.453z"/>
	</g>
	<g>
		<path d="M79.42,49.633c0.01-0.08,0.01-0.17,0-0.25c0-0.09,0-0.17-0.01-0.26c0.01-0.08,0.01-0.17-0.01-0.25    c-0.02-0.94-0.09-1.87-0.22-2.79c-1.72-13.52-12.48-24.24-26-25.89c-0.91-0.12-1.84-0.19-2.78-0.21    c-0.13-0.01-0.26-0.01-0.39-0.01c-0.08-0.01-0.17-0.01-0.25,0c-0.04-0.01-0.09-0.01-0.13-0.01h-0.12c-0.09,0-0.17,0-0.26,0.01    c-0.08-0.01-0.17-0.01-0.25,0c-0.04,0-0.09,0-0.13,0.01c-0.94,0.01-1.87,0.07-2.79,0.18c-13.64,1.56-24.52,12.32-26.25,25.92    c-0.13,0.92-0.2,1.85-0.22,2.79c-0.02,0.08-0.02,0.17-0.01,0.25c-0.01,0.09-0.01,0.17-0.01,0.26c-0.01,0.08-0.01,0.17,0,0.25    c-0.01,0.09-0.01,0.17-0.01,0.26c0,0.08,0,0.17,0.01,0.25c-0.01,0.08-0.01,0.17,0,0.25c0.01,0.94,0.07,1.87,0.17,2.79    c1.52,13.83,12.51,24.85,26.32,26.43c0.92,0.11,1.85,0.17,2.79,0.18c0.04,0.01,0.09,0.01,0.13,0.01c0.08,0.01,0.17,0.01,0.25,0    c0.09,0.01,0.17,0.01,0.26,0.01h0.12c0.04,0,0.09,0,0.13-0.01c0.08,0.01,0.17,0.01,0.25,0c0.13,0,0.26,0,0.39-0.01    c0.94-0.02,1.87-0.09,2.78-0.21c13.7-1.68,24.56-12.65,26.07-26.4c0.1-0.92,0.16-1.85,0.17-2.79c0.01-0.08,0.01-0.17,0-0.25    c0.01-0.08,0.01-0.17,0.01-0.25C79.43,49.803,79.43,49.723,79.42,49.633z M77.9,50.143c0.01,0.08,0.01,0.17,0,0.25    c-0.01,0.94-0.07,1.87-0.19,2.79c-1.49,12.91-11.67,23.21-24.53,24.86c-0.91,0.13-1.84,0.21-2.78,0.23    c-0.13,0.01-0.26,0.01-0.39,0.01c-0.08,0.01-0.17,0.01-0.25,0c-0.04,0.01-0.09,0.01-0.13,0.01h-0.12c-0.09,0-0.17,0-0.26-0.01    c-0.08,0.01-0.17,0.01-0.25,0c-0.05,0-0.09,0-0.13-0.01c-0.94-0.01-1.87-0.08-2.79-0.2c-12.97-1.56-23.28-11.9-24.78-24.89    c-0.12-0.92-0.18-1.85-0.19-2.79c-0.01-0.08-0.01-0.17,0-0.25c-0.01-0.08-0.01-0.17-0.01-0.25c0-0.09,0-0.17,0.01-0.26    c-0.01-0.08-0.01-0.17,0-0.25c0-0.09,0-0.18,0.01-0.26c-0.01-0.09,0-0.17,0.01-0.25c0.02-0.94,0.1-1.88,0.24-2.79    c1.7-12.75,11.91-22.85,24.71-24.38c0.92-0.12,1.85-0.19,2.79-0.2c0.04-0.01,0.08-0.01,0.13-0.01c0.08-0.01,0.17-0.01,0.25,0    c0.09-0.01,0.17-0.01,0.26-0.01h0.12c0.04,0,0.09,0,0.13,0.01c0.08-0.01,0.17-0.01,0.25,0c0.13,0,0.26,0,0.39,0.01    c0.94,0.02,1.87,0.1,2.78,0.23c12.68,1.63,22.77,11.68,24.46,24.35c0.14,0.91,0.22,1.85,0.24,2.79c0.01,0.08,0.02,0.16,0.01,0.25    c0.01,0.08,0.01,0.17,0.01,0.26c0.01,0.08,0.01,0.17,0,0.25c0.01,0.09,0.01,0.17,0.01,0.26C77.91,49.973,77.91,50.063,77.9,50.143    z"/>
	</g>
	<g>
		<line fill="none" x1="49.634" y1="66.879" x2="49.634" y2="90.718"/>
		<path d="M49.634,91.479c-0.42,0-0.761-0.341-0.761-0.761V66.879c0-0.42,0.34-0.761,0.761-0.761s0.761,0.341,0.761,0.761v23.839    C50.395,91.138,50.055,91.479,49.634,91.479z"/>
	</g>
	<g>
		<line fill="none" x1="49.634" y1="8.55" x2="49.634" y2="32.389"/>
		<path d="M49.634,33.15c-0.42,0-0.761-0.341-0.761-0.761V8.55c0-0.42,0.34-0.761,0.761-0.761s0.761,0.341,0.761,0.761v23.839    C50.395,32.81,50.055,33.15,49.634,33.15z"/>
	</g>
	<g>
		<line fill="none" x1="32.389" y1="49.634" x2="8.55" y2="49.634"/>
		<path d="M32.389,50.395H8.55c-0.42,0-0.761-0.34-0.761-0.761s0.341-0.761,0.761-0.761h23.839c0.42,0,0.761,0.34,0.761,0.761    S32.81,50.395,32.389,50.395z"/>
	</g>
	<g>
		<line fill="none" x1="90.718" y1="49.634" x2="66.879" y2="49.634"/>
		<path d="M90.718,50.395H66.879c-0.42,0-0.761-0.34-0.761-0.761s0.341-0.761,0.761-0.761h23.839c0.42,0,0.761,0.34,0.761,0.761    S91.138,50.395,90.718,50.395z"/>
	</g>
	<g>
		<path fill="#000000" d="M49.6,46.153h-0.06c-2.36,0.03-4.27,1.96-4.27,4.33s1.91,4.3,4.27,4.33h0.06c2.38,0,4.32-1.94,4.32-4.33    S51.98,46.153,49.6,46.153z M49.47,48.453c1.12,0,2.02,0.91,2.02,2.03s-0.9,2.03-2.02,2.03c-1.12,0-2.03-0.91-2.03-2.03    S48.35,48.453,49.47,48.453z"/>
	</g>
	<g>
		<path fill="#000000" d="M78.79,49.633c0.01-0.09,0.01-0.17,0-0.25c0-0.09,0-0.18-0.01-0.26c0.01-0.09,0.01-0.17-0.01-0.25    c-0.02-0.94-0.1-1.87-0.22-2.79c-1.71-13.19-12.19-23.66-25.37-25.36c-0.91-0.12-1.84-0.2-2.78-0.22    c-0.13-0.02-0.26-0.02-0.39-0.01c-0.08-0.02-0.16-0.02-0.25-0.01c-0.04-0.01-0.08-0.01-0.13,0c-0.04-0.01-0.08-0.01-0.12-0.01    h-0.26c-0.08,0-0.17,0-0.25,0.01c-0.05-0.01-0.09-0.01-0.13,0c-0.94,0.01-1.87,0.07-2.79,0.18c-13.42,1.5-24.14,12.06-25.87,25.42    c-0.12,0.92-0.2,1.85-0.22,2.79c-0.02,0.08-0.02,0.16-0.01,0.25c-0.01,0.08-0.01,0.17-0.01,0.26c-0.01,0.08-0.01,0.16,0,0.25    c-0.01,0.09-0.01,0.17-0.01,0.26c0,0.08,0,0.17,0.01,0.25c-0.01,0.09-0.01,0.17,0,0.25c0.01,0.94,0.07,1.88,0.18,2.79    c1.52,13.6,12.34,24.41,25.93,25.93c0.92,0.11,1.85,0.17,2.79,0.18c0.04,0.01,0.08,0.01,0.13,0c0.08,0.01,0.17,0.01,0.25,0.01    h0.26c0.04,0,0.08,0,0.12-0.01c0.05,0.01,0.09,0.01,0.13,0c0.09,0.01,0.17,0.01,0.25-0.01c0.13,0.01,0.26,0.01,0.39-0.01    c0.94-0.02,1.87-0.1,2.78-0.22c13.36-1.72,23.93-12.44,25.43-25.87c0.11-0.91,0.17-1.85,0.18-2.79c0.01-0.08,0.01-0.16,0-0.25    c0.01-0.08,0.01-0.17,0.01-0.25C78.8,49.803,78.8,49.723,78.79,49.633z M78.28,50.393c-0.01,0.94-0.07,1.87-0.18,2.79    c-1.49,13.15-11.84,23.65-24.92,25.36c-0.91,0.13-1.84,0.21-2.78,0.23c-0.13,0.02-0.26,0.02-0.39,0.01    c-0.08,0.02-0.17,0.02-0.25,0.01c-0.04,0.01-0.09,0.01-0.13,0c-0.04,0.01-0.08,0.01-0.12,0.01h-0.26c-0.08,0-0.17,0-0.25-0.01    c-0.04,0.01-0.09,0.01-0.13,0c-0.94-0.01-1.87-0.07-2.79-0.18c-13.31-1.52-23.91-12.12-25.42-25.43    c-0.11-0.92-0.17-1.85-0.18-2.79c-0.01-0.08-0.01-0.17,0-0.25c-0.01-0.08-0.01-0.17-0.01-0.25c0-0.09,0-0.17,0.01-0.26    c-0.01-0.08-0.01-0.17,0-0.25c0-0.09,0-0.17,0.01-0.26c-0.01-0.08-0.01-0.17,0.01-0.25c0.02-0.94,0.1-1.87,0.23-2.79    c1.72-13.08,12.21-23.42,25.35-24.92c0.92-0.11,1.85-0.17,2.79-0.18c0.04-0.01,0.09-0.01,0.13,0c0.08-0.01,0.17-0.01,0.25-0.01    h0.26c0.04,0,0.08,0,0.12,0.01c0.04-0.01,0.09-0.01,0.13,0c0.08-0.01,0.17-0.01,0.25,0.01c0.13-0.01,0.26-0.01,0.39,0.01    c0.94,0.02,1.87,0.1,2.78,0.23c12.9,1.69,23.15,11.94,24.85,24.85c0.13,0.92,0.21,1.85,0.23,2.79c0.02,0.08,0.02,0.17,0.01,0.25    c0.01,0.09,0.01,0.17,0.01,0.26c0.01,0.08,0.01,0.17,0,0.25c0.01,0.09,0.01,0.17,0.01,0.26c0,0.08,0,0.17-0.01,0.25    C78.29,50.223,78.29,50.313,78.28,50.393z"/>
	</g>
	<g>
		<line fill="none" x1="49.507" y1="66.879" x2="49.507" y2="90.718"/>
		<path fill="#000000" d="M49.507,90.972c-0.14,0-0.253-0.114-0.253-0.254V66.879c0-0.14,0.113-0.253,0.253-0.253    c0.141,0,0.254,0.113,0.254,0.253v23.839C49.761,90.858,49.648,90.972,49.507,90.972z"/>
	</g>
	<g>
		<line fill="none" x1="49.507" y1="8.55" x2="49.507" y2="32.389"/>
		<path fill="#000000" d="M49.507,32.643c-0.14,0-0.253-0.113-0.253-0.253V8.55c0-0.14,0.113-0.254,0.253-0.254    c0.141,0,0.254,0.114,0.254,0.254v23.839C49.761,32.529,49.648,32.643,49.507,32.643z"/>
	</g>
	<g>
		<line fill="none" x1="32.263" y1="49.634" x2="8.423" y2="49.634"/>
		<path fill="#000000" d="M32.263,49.888H8.423c-0.14,0-0.253-0.113-0.253-0.254s0.114-0.254,0.253-0.254h23.839    c0.14,0,0.253,0.113,0.253,0.254S32.402,49.888,32.263,49.888z"/>
	</g>
	<g>
		<line fill="none" x1="90.591" y1="49.634" x2="66.752" y2="49.634"/>
		<path fill="#000000" d="M90.591,49.888H66.752c-0.14,0-0.253-0.113-0.253-0.254s0.113-0.254,0.253-0.254h23.839    c0.141,0,0.254,0.113,0.254,0.254S90.732,49.888,90.591,49.888z"/>
	</g>
	<g>
		<path fill="#000000" d="M49.54,46.153h-0.07c-2.39,0-4.33,1.94-4.33,4.33s1.94,4.33,4.33,4.33h0.07c2.36-0.04,4.26-1.96,4.26-4.33    S51.9,46.193,49.54,46.153z M49.47,52.513c-1.12,0-2.03-0.91-2.03-2.03s0.91-2.03,2.03-2.03c1.12,0,2.02,0.91,2.02,2.03    S50.59,52.513,49.47,52.513z"/>
		<path fill="#000000" d="M49.47,45.903c-2.53,0-4.58,2.05-4.58,4.58s2.05,4.58,4.58,4.58c2.52,0,4.58-2.05,4.58-4.58    S51.99,45.903,49.47,45.903z M45.4,50.483c0-2.25,1.82-4.07,4.07-4.07c2.24,0,4.07,1.82,4.07,4.07s-1.83,4.07-4.07,4.07    C47.22,54.553,45.4,52.733,45.4,50.483z"/>
	</g>
	<g>
		<path fill="#000000" d="M78.79,49.633c0.01-0.09,0.01-0.17,0-0.25c0-0.09,0-0.18-0.01-0.26c0.01-0.09,0.01-0.17-0.01-0.25    c-0.02-0.94-0.1-1.87-0.22-2.79c-1.71-13.19-12.19-23.66-25.37-25.36c-0.91-0.12-1.84-0.2-2.78-0.22    c-0.13-0.02-0.26-0.02-0.39-0.01c-0.08-0.02-0.16-0.02-0.25-0.01c-0.04-0.01-0.08-0.01-0.13,0c-0.04-0.01-0.08-0.01-0.12-0.01    h-0.26c-0.08,0-0.17,0-0.25,0.01c-0.05-0.01-0.09-0.01-0.13,0c-0.94,0.01-1.87,0.07-2.79,0.18c-13.42,1.5-24.14,12.06-25.87,25.42    c-0.12,0.92-0.2,1.85-0.22,2.79c-0.02,0.08-0.02,0.16-0.01,0.25c-0.01,0.08-0.01,0.17-0.01,0.26c-0.01,0.08-0.01,0.16,0,0.25    c-0.01,0.09-0.01,0.17-0.01,0.26c0,0.08,0,0.17,0.01,0.25c-0.01,0.09-0.01,0.17,0,0.25c0.01,0.94,0.07,1.88,0.18,2.79    c1.52,13.6,12.34,24.41,25.93,25.93c0.92,0.11,1.85,0.17,2.79,0.18c0.04,0.01,0.08,0.01,0.13,0c0.08,0.01,0.17,0.01,0.25,0.01    h0.26c0.04,0,0.08,0,0.12-0.01c0.05,0.01,0.09,0.01,0.13,0c0.09,0.01,0.17,0.01,0.25-0.01c0.13,0.01,0.26,0.01,0.39-0.01    c0.94-0.02,1.87-0.1,2.78-0.22c13.36-1.72,23.93-12.44,25.43-25.87c0.11-0.91,0.17-1.85,0.18-2.79c0.01-0.08,0.01-0.16,0-0.25    c0.01-0.08,0.01-0.17,0.01-0.25C78.8,49.803,78.8,49.723,78.79,49.633z M78.28,50.393c-0.01,0.94-0.07,1.87-0.18,2.79    c-1.49,13.15-11.84,23.65-24.92,25.36c-0.91,0.13-1.84,0.21-2.78,0.23c-0.13,0.02-0.26,0.02-0.39,0.01    c-0.08,0.02-0.17,0.02-0.25,0.01c-0.04,0.01-0.09,0.01-0.13,0c-0.04,0.01-0.08,0.01-0.12,0.01h-0.26c-0.08,0-0.17,0-0.25-0.01    c-0.04,0.01-0.09,0.01-0.13,0c-0.94-0.01-1.87-0.07-2.79-0.18c-13.31-1.52-23.91-12.12-25.42-25.43    c-0.11-0.92-0.17-1.85-0.18-2.79c-0.01-0.08-0.01-0.17,0-0.25c-0.01-0.08-0.01-0.17-0.01-0.25c0-0.09,0-0.17,0.01-0.26    c-0.01-0.08-0.01-0.17,0-0.25c0-0.09,0-0.17,0.01-0.26c-0.01-0.08-0.01-0.17,0.01-0.25c0.02-0.94,0.1-1.87,0.23-2.79    c1.72-13.08,12.21-23.42,25.35-24.92c0.92-0.11,1.85-0.17,2.79-0.18c0.04-0.01,0.09-0.01,0.13,0c0.08-0.01,0.17-0.01,0.25-0.01    h0.26c0.04,0,0.08,0,0.12,0.01c0.04-0.01,0.09-0.01,0.13,0c0.08-0.01,0.17-0.01,0.25,0.01c0.13-0.01,0.26-0.01,0.39,0.01    c0.94,0.02,1.87,0.1,2.78,0.23c12.9,1.69,23.15,11.94,24.85,24.85c0.13,0.92,0.21,1.85,0.23,2.79c0.02,0.08,0.02,0.17,0.01,0.25    c0.01,0.09,0.01,0.17,0.01,0.26c0.01,0.08,0.01,0.17,0,0.25c0.01,0.09,0.01,0.17,0.01,0.26c0,0.08,0,0.17-0.01,0.25    C78.29,50.223,78.29,50.313,78.28,50.393z"/>
	</g>
	<g>
		<line fill="none" x1="49.507" y1="66.879" x2="49.507" y2="90.718"/>
		<path fill="#000000" d="M49.507,90.972c-0.14,0-0.253-0.114-0.253-0.254V66.879c0-0.14,0.113-0.253,0.253-0.253    c0.141,0,0.254,0.113,0.254,0.253v23.839C49.761,90.858,49.648,90.972,49.507,90.972z"/>
	</g>
	<g>
		<line fill="none" x1="49.507" y1="8.55" x2="49.507" y2="32.389"/>
		<path fill="#000000" d="M49.507,32.643c-0.14,0-0.253-0.113-0.253-0.253V8.55c0-0.14,0.113-0.254,0.253-0.254    c0.141,0,0.254,0.114,0.254,0.254v23.839C49.761,32.529,49.648,32.643,49.507,32.643z"/>
	</g>
	<g>
		<line fill="none" x1="32.263" y1="49.634" x2="8.423" y2="49.634"/>
		<path fill="#000000" d="M32.263,49.888H8.423c-0.14,0-0.253-0.113-0.253-0.254s0.114-0.254,0.253-0.254h23.839    c0.14,0,0.253,0.113,0.253,0.254S32.402,49.888,32.263,49.888z"/>
	</g>
	<g>
		<line fill="none" x1="90.591" y1="49.634" x2="66.752" y2="49.634"/>
		<path fill="#000000" d="M90.591,49.888H66.752c-0.14,0-0.253-0.113-0.253-0.254s0.113-0.254,0.253-0.254h23.839    c0.141,0,0.254,0.113,0.254,0.254S90.732,49.888,90.591,49.888z"/>
	</g>
	<g>
		<path fill="#000000" d="M49.54,46.153h-0.07c-2.39,0-4.33,1.94-4.33,4.33s1.94,4.33,4.33,4.33h0.07c2.36-0.04,4.26-1.96,4.26-4.33    S51.9,46.193,49.54,46.153z M49.47,52.513c-1.12,0-2.03-0.91-2.03-2.03s0.91-2.03,2.03-2.03c1.12,0,2.02,0.91,2.02,2.03    S50.59,52.513,49.47,52.513z"/>
		<path fill="#000000" d="M49.47,45.903c-2.53,0-4.58,2.05-4.58,4.58s2.05,4.58,4.58,4.58c2.52,0,4.58-2.05,4.58-4.58    S51.99,45.903,49.47,45.903z M45.4,50.483c0-2.25,1.82-4.07,4.07-4.07c2.24,0,4.07,1.82,4.07,4.07s-1.83,4.07-4.07,4.07    C47.22,54.553,45.4,52.733,45.4,50.483z"/>
	</g>
	<g>
		<path fill="#000000" d="M78.79,49.633c0.01-0.09,0.01-0.17,0-0.25c0-0.09,0-0.18-0.01-0.26c0.01-0.09,0.01-0.17-0.01-0.25    c-0.02-0.94-0.1-1.87-0.22-2.79c-1.71-13.19-12.19-23.66-25.37-25.36c-0.91-0.12-1.84-0.2-2.78-0.22    c-0.13-0.02-0.26-0.02-0.39-0.01c-0.08-0.02-0.16-0.02-0.25-0.01c-0.04-0.01-0.08-0.01-0.13,0c-0.04-0.01-0.08-0.01-0.12-0.01    h-0.26c-0.08,0-0.17,0-0.25,0.01c-0.05-0.01-0.09-0.01-0.13,0c-0.94,0.01-1.87,0.07-2.79,0.18c-13.42,1.5-24.14,12.06-25.87,25.42    c-0.12,0.92-0.2,1.85-0.22,2.79c-0.02,0.08-0.02,0.16-0.01,0.25c-0.01,0.08-0.01,0.17-0.01,0.26c-0.01,0.08-0.01,0.16,0,0.25    c-0.01,0.09-0.01,0.17-0.01,0.26c0,0.08,0,0.17,0.01,0.25c-0.01,0.09-0.01,0.17,0,0.25c0.01,0.94,0.07,1.88,0.18,2.79    c1.52,13.6,12.34,24.41,25.93,25.93c0.92,0.11,1.85,0.17,2.79,0.18c0.04,0.01,0.08,0.01,0.13,0c0.08,0.01,0.17,0.01,0.25,0.01    h0.26c0.04,0,0.08,0,0.12-0.01c0.05,0.01,0.09,0.01,0.13,0c0.09,0.01,0.17,0.01,0.25-0.01c0.13,0.01,0.26,0.01,0.39-0.01    c0.94-0.02,1.87-0.1,2.78-0.22c13.36-1.72,23.93-12.44,25.43-25.87c0.11-0.91,0.17-1.85,0.18-2.79c0.01-0.08,0.01-0.16,0-0.25    c0.01-0.08,0.01-0.17,0.01-0.25C78.8,49.803,78.8,49.723,78.79,49.633z M78.28,50.393c-0.01,0.94-0.07,1.87-0.18,2.79    c-1.49,13.15-11.84,23.65-24.92,25.36c-0.91,0.13-1.84,0.21-2.78,0.23c-0.13,0.02-0.26,0.02-0.39,0.01    c-0.08,0.02-0.17,0.02-0.25,0.01c-0.04,0.01-0.09,0.01-0.13,0c-0.04,0.01-0.08,0.01-0.12,0.01h-0.26c-0.08,0-0.17,0-0.25-0.01    c-0.04,0.01-0.09,0.01-0.13,0c-0.94-0.01-1.87-0.07-2.79-0.18c-13.31-1.52-23.91-12.12-25.42-25.43    c-0.11-0.92-0.17-1.85-0.18-2.79c-0.01-0.08-0.01-0.17,0-0.25c-0.01-0.08-0.01-0.17-0.01-0.25c0-0.09,0-0.17,0.01-0.26    c-0.01-0.08-0.01-0.17,0-0.25c0-0.09,0-0.17,0.01-0.26c-0.01-0.08-0.01-0.17,0.01-0.25c0.02-0.94,0.1-1.87,0.23-2.79    c1.72-13.08,12.21-23.42,25.35-24.92c0.92-0.11,1.85-0.17,2.79-0.18c0.04-0.01,0.09-0.01,0.13,0c0.08-0.01,0.17-0.01,0.25-0.01    h0.26c0.04,0,0.08,0,0.12,0.01c0.04-0.01,0.09-0.01,0.13,0c0.08-0.01,0.17-0.01,0.25,0.01c0.13-0.01,0.26-0.01,0.39,0.01    c0.94,0.02,1.87,0.1,2.78,0.23c12.9,1.69,23.15,11.94,24.85,24.85c0.13,0.92,0.21,1.85,0.23,2.79c0.02,0.08,0.02,0.17,0.01,0.25    c0.01,0.09,0.01,0.17,0.01,0.26c0.01,0.08,0.01,0.17,0,0.25c0.01,0.09,0.01,0.17,0.01,0.26c0,0.08,0,0.17-0.01,0.25    C78.29,50.223,78.29,50.313,78.28,50.393z"/>
	</g>
	<g>
		<line fill="none" x1="49.507" y1="66.879" x2="49.507" y2="90.718"/>
		<path fill="#000000" d="M49.507,90.972c-0.14,0-0.253-0.114-0.253-0.254V66.879c0-0.14,0.113-0.253,0.253-0.253    c0.141,0,0.254,0.113,0.254,0.253v23.839C49.761,90.858,49.648,90.972,49.507,90.972z"/>
	</g>
	<g>
		<line fill="none" x1="49.507" y1="8.55" x2="49.507" y2="32.389"/>
		<path fill="#000000" d="M49.507,32.643c-0.14,0-0.253-0.113-0.253-0.253V8.55c0-0.14,0.113-0.254,0.253-0.254    c0.141,0,0.254,0.114,0.254,0.254v23.839C49.761,32.529,49.648,32.643,49.507,32.643z"/>
	</g>
	<g>
		<line fill="none" x1="32.263" y1="49.634" x2="8.423" y2="49.634"/>
		<path fill="#000000" d="M32.263,49.888H8.423c-0.14,0-0.253-0.113-0.253-0.254s0.114-0.254,0.253-0.254h23.839    c0.14,0,0.253,0.113,0.253,0.254S32.402,49.888,32.263,49.888z"/>
	</g>
	<g>
		<line fill="none" x1="90.591" y1="49.634" x2="66.752" y2="49.634"/>
		<path fill="#000000" d="M90.591,49.888H66.752c-0.14,0-0.253-0.113-0.253-0.254s0.113-0.254,0.253-0.254h23.839    c0.141,0,0.254,0.113,0.254,0.254S90.732,49.888,90.591,49.888z"/>
	</g>
	<g>
		<path fill="#000000" d="M49.54,46.153h-0.07c-2.39,0-4.33,1.94-4.33,4.33s1.94,4.33,4.33,4.33h0.07c2.36-0.04,4.26-1.96,4.26-4.33    S51.9,46.193,49.54,46.153z M49.47,52.513c-1.12,0-2.03-0.91-2.03-2.03s0.91-2.03,2.03-2.03c1.12,0,2.02,0.91,2.02,2.03    S50.59,52.513,49.47,52.513z"/>
		<path fill="#000000" d="M49.47,45.903c-2.53,0-4.58,2.05-4.58,4.58s2.05,4.58,4.58,4.58c2.52,0,4.58-2.05,4.58-4.58    S51.99,45.903,49.47,45.903z M45.4,50.483c0-2.25,1.82-4.07,4.07-4.07c2.24,0,4.07,1.82,4.07,4.07s-1.83,4.07-4.07,4.07    C47.22,54.553,45.4,52.733,45.4,50.483z"/>
	</g>
	<g>
		<path fill="#000000" d="M79.04,49.633c0.01-0.08,0.01-0.17,0-0.25c0-0.09,0-0.17-0.01-0.26c0.01-0.08,0.01-0.17-0.01-0.25    c-0.02-0.94-0.1-1.87-0.22-2.79c-1.71-13.33-12.29-23.91-25.62-25.62c-0.91-0.12-1.84-0.2-2.78-0.22    c-0.13-0.02-0.26-0.02-0.39-0.01c-0.08-0.02-0.16-0.02-0.25-0.01c-0.04-0.01-0.08-0.01-0.13,0c-0.04-0.01-0.08-0.01-0.12-0.01    h-0.26c-0.09,0-0.17,0-0.25,0.01c-0.05-0.01-0.09-0.01-0.13,0c-0.94,0.01-1.87,0.07-2.79,0.17    c-13.56,1.51-24.39,12.19-26.12,25.69c-0.12,0.92-0.2,1.85-0.22,2.79c-0.02,0.08-0.02,0.17-0.01,0.25    c-0.01,0.09-0.01,0.17-0.01,0.26c-0.01,0.08-0.01,0.17,0,0.25c-0.01,0.09-0.01,0.17-0.01,0.26c0,0.08,0,0.17,0.01,0.25    c-0.01,0.09-0.01,0.17,0,0.25c0.01,0.94,0.07,1.87,0.17,2.79c1.52,13.73,12.46,24.67,26.19,26.2c0.92,0.1,1.85,0.16,2.79,0.17    c0.04,0.01,0.08,0.01,0.13,0c0.08,0.01,0.16,0.01,0.25,0.01h0.26c0.04,0,0.08,0,0.12-0.01c0.05,0.01,0.09,0.01,0.13,0    c0.09,0.01,0.17,0.01,0.25-0.01c0.13,0.01,0.26,0.01,0.39-0.01c0.94-0.02,1.87-0.1,2.78-0.22c13.5-1.73,24.18-12.56,25.69-26.13    c0.1-0.92,0.16-1.85,0.17-2.79c0.01-0.08,0.01-0.16,0-0.25c0.01-0.08,0.01-0.17,0.01-0.25C79.05,49.803,79.05,49.723,79.04,49.633    z M78.03,50.143c0.01,0.09,0.01,0.17,0,0.25c-0.01,0.94-0.07,1.87-0.19,2.79c-1.48,13-11.72,23.39-24.66,25.1    c-0.91,0.13-1.84,0.21-2.78,0.23c-0.13,0.02-0.26,0.02-0.39,0.01c-0.08,0.01-0.16,0.02-0.25,0.01c-0.04,0.01-0.08,0.01-0.13,0    c-0.04,0.01-0.08,0.01-0.12,0.01h-0.26c-0.08,0-0.17,0-0.25-0.01c-0.05,0.01-0.09,0.01-0.13,0c-0.94-0.01-1.87-0.07-2.79-0.19    c-13.17-1.5-23.66-11.99-25.16-25.16c-0.12-0.92-0.18-1.85-0.19-2.79c-0.01-0.08-0.01-0.16,0-0.25c-0.01-0.08-0.01-0.17-0.01-0.25    c0-0.09,0-0.17,0.01-0.26c-0.01-0.09-0.01-0.17,0-0.25c0-0.09,0-0.18,0.01-0.26c-0.01-0.09,0-0.17,0.01-0.25    c0.02-0.95,0.1-1.88,0.23-2.79c1.72-12.94,12.1-23.17,25.1-24.65c0.92-0.12,1.85-0.18,2.79-0.19c0.04-0.01,0.08-0.01,0.13,0    c0.08-0.01,0.17-0.01,0.25-0.01h0.26c0.04,0,0.08,0,0.12,0.01c0.05-0.01,0.09-0.01,0.13,0c0.09-0.01,0.17,0,0.25,0.01    c0.13-0.01,0.26-0.01,0.39,0.01c0.94,0.02,1.87,0.1,2.78,0.23c12.76,1.69,22.9,11.82,24.6,24.59c0.13,0.91,0.21,1.84,0.23,2.79    c0.01,0.08,0.02,0.16,0.01,0.25c0.01,0.08,0.01,0.17,0.01,0.26c0.01,0.08,0.01,0.16,0,0.25c0.01,0.09,0.01,0.17,0.01,0.26    C78.04,49.973,78.04,50.063,78.03,50.143z"/>
	</g>
	<g>
		<line fill="none" x1="49.507" y1="66.879" x2="49.507" y2="90.718"/>
		<path fill="#000000" d="M49.507,91.225c-0.28,0-0.507-0.227-0.507-0.507V66.879c0-0.28,0.228-0.507,0.507-0.507    c0.28,0,0.507,0.227,0.507,0.507v23.839C50.015,90.999,49.788,91.225,49.507,91.225z"/>
	</g>
	<g>
		<line fill="none" x1="49.507" y1="8.55" x2="49.507" y2="32.389"/>
		<path fill="#000000" d="M49.507,32.896c-0.28,0-0.507-0.227-0.507-0.507V8.55c0-0.28,0.228-0.507,0.507-0.507    c0.28,0,0.507,0.227,0.507,0.507v23.839C50.015,32.669,49.788,32.896,49.507,32.896z"/>
	</g>
	<g>
		<line fill="none" x1="32.263" y1="49.634" x2="8.423" y2="49.634"/>
		<path fill="#000000" d="M32.263,50.142H8.423c-0.28,0-0.507-0.227-0.507-0.507s0.227-0.507,0.507-0.507h23.839    c0.28,0,0.507,0.227,0.507,0.507S32.542,50.142,32.263,50.142z"/>
	</g>
	<g>
		<line fill="none" x1="90.591" y1="49.634" x2="66.752" y2="49.634"/>
		<path fill="#000000" d="M90.591,50.142H66.752c-0.28,0-0.507-0.227-0.507-0.507s0.227-0.507,0.507-0.507h23.839    c0.28,0,0.507,0.227,0.507,0.507S90.872,50.142,90.591,50.142z"/>
	</g>
	<g>
		<path fill="#000000" d="M49.54,46.153h-0.07c-2.39,0-4.33,1.94-4.33,4.33s1.94,4.33,4.33,4.33h0.07c2.36-0.04,4.26-1.96,4.26-4.33    S51.9,46.193,49.54,46.153z M49.47,52.513c-1.12,0-2.03-0.91-2.03-2.03s0.91-2.03,2.03-2.03c1.12,0,2.02,0.91,2.02,2.03    S50.59,52.513,49.47,52.513z"/>
		<path fill="#000000" d="M49.47,45.903c-2.53,0-4.58,2.05-4.58,4.58s2.05,4.58,4.58,4.58c2.52,0,4.58-2.05,4.58-4.58    S51.99,45.903,49.47,45.903z M45.4,50.483c0-2.25,1.82-4.07,4.07-4.07c2.24,0,4.07,1.82,4.07,4.07s-1.83,4.07-4.07,4.07    C47.22,54.553,45.4,52.733,45.4,50.483z"/>
	</g>
	<g>
		<path fill="#000000" stroke="#010202" stroke-miterlimit="10" d="M49.47,48.273c-1.22,0-2.22,0.99-2.22,2.21s1,2.22,2.22,2.22    c1.22,0,2.21-1,2.21-2.22S50.69,48.273,49.47,48.273z M49.47,52.513c-1.12,0-2.03-0.91-2.03-2.03s0.91-2.03,2.03-2.03    c1.12,0,2.02,0.91,2.02,2.03S50.59,52.513,49.47,52.513z"/>
		<path fill="#000000" stroke="#010202" stroke-miterlimit="10" d="M49.47,48.073c-1.33,0-2.41,1.08-2.41,2.41s1.08,2.41,2.41,2.41    c1.33,0,2.4-1.08,2.4-2.41S50.8,48.073,49.47,48.073z M49.47,52.513c-1.12,0-2.03-0.91-2.03-2.03s0.91-2.03,2.03-2.03    c1.12,0,2.02,0.91,2.02,2.03S50.59,52.513,49.47,52.513z"/>
	</g>
</g>
</svg>