<svg xmlns="http://www.w3.org/2000/svg" xmlns:xlink="http://www.w3.org/1999/xlink" version="1.1" id="Capa_1" x="0px" y="0px" width="100px" height="100px" viewBox="0 0 100 100" enable-background="new 0 0 100 100" xml:space="preserve">
<polygon points="67.998,33.527 70.708,23.528 68.545,22.346 63.261,32.014 "/>
<polygon points="70.907,34.457 72.753,24.646 71.146,23.767 68.459,33.675 "/>
<polygon points="63.024,32.448 61.19,35.801 66.654,35.099 67.727,33.949 "/>
<polygon points="62.835,31.782 68.12,22.113 66.026,20.97 59.002,28.612 "/>
<polygon points="67.408,35.002 69.979,34.67 68.236,34.112 "/>
<path d="M63.599,38.181l9.555-1.229l2.58-13.718l-12.247-6.691l-10.151,9.58l4.129,8.711c-2.815-1.061-5.806-1.622-8.81-1.622  c-9.181,0-17.615,5-22.012,13.049c-6.624,12.121-2.152,27.377,9.972,34.008c3.68,2.009,7.829,3.071,11.997,3.071  c9.18,0,17.613-4.998,22.01-13.047C76.68,59.212,73.458,45.517,63.599,38.181z M56.063,26.781c-0.046-0.096-0.021-0.205,0.052-0.275  l-0.002-0.001l7.407-7.26l0.003,0.002c0.075-0.072,0.188-0.095,0.283-0.043l9.334,5.101c0.094,0.052,0.137,0.158,0.119,0.257  l0.003,0l-1.929,10.255h-0.002c-0.021,0.1-0.098,0.182-0.206,0.196l-10.344,1.331c-0.01,0-0.02,0.001-0.031,0.001  c-0.042,0-0.079-0.014-0.112-0.033c-0.011-0.003-0.016-0.007-0.022-0.013c-0.034-0.022-0.062-0.053-0.08-0.089  c-0.001-0.001-0.003-0.001-0.004-0.003L56.063,26.781z M65.515,67.503c-3.378,6.179-9.854,10.018-16.904,10.018  c-3.196,0-6.38-0.815-9.207-2.358c-9.307-5.091-12.74-16.802-7.653-26.11c3.375-6.179,9.852-10.019,16.902-10.019  c3.197,0,6.379,0.817,9.205,2.36C67.167,46.483,70.602,58.195,65.515,67.503z"/>
<polygon points="58.317,30.403 58.401,28.744 56.97,27.56 "/>
<polygon points="62.6,32.215 58.867,29.13 58.755,31.326 60.767,35.568 "/>
<polygon points="63.73,19.715 56.645,26.661 58.629,28.302 65.588,20.731 "/>
</svg>