<svg xmlns="http://www.w3.org/2000/svg" xmlns:xlink="http://www.w3.org/1999/xlink" version="1.1" id="Layer_1" x="0px" y="0px" width="100px" height="100px" viewBox="0 0 100 100" enable-background="new 0 0 100 100" xml:space="preserve">
<g>
	<path d="M36.202,12.527c-12.895,0-23.384,10.492-23.384,23.388c0,0.302,0.245,0.547,0.546,0.547c0.302,0,0.547-0.245,0.547-0.547   c0-12.293,10-22.295,22.291-22.295c0.302,0,0.546-0.245,0.546-0.547C36.749,12.772,36.504,12.527,36.202,12.527z"/>
	<path d="M98.82,92.337L79.354,72.872c-1.142-1.143-2.754-1.503-4.211-1.117L63.547,60.158c-0.211-0.212-0.456-0.371-0.717-0.478   c5.647-6.318,9.09-14.648,9.09-23.769c0-19.693-16.023-35.714-35.718-35.714c-19.692,0-35.711,16.021-35.711,35.714   c0,19.692,16.02,35.713,35.711,35.713c9.124,0,17.455-3.443,23.775-9.092c0.106,0.261,0.266,0.505,0.478,0.717l11.598,11.597   c-0.384,1.456-0.023,3.067,1.118,4.209l19.465,19.466c0.854,0.854,1.974,1.281,3.092,1.281c1.12,0,2.24-0.427,3.093-1.281   C100.528,96.814,100.528,94.045,98.82,92.337z M36.202,68.345c-17.883,0-32.432-14.55-32.432-32.433   c0-17.884,14.549-32.434,32.432-32.434c17.886,0,32.438,14.55,32.438,32.434C68.64,53.795,54.088,68.345,36.202,68.345z"/>
</g>
</svg>