<svg xmlns="http://www.w3.org/2000/svg" xmlns:xlink="http://www.w3.org/1999/xlink" version="1.1" id="Layer_1" x="0px" y="0px" width="100px" height="100px" viewBox="0 0 100 100" enable-background="new 0 0 100 100" xml:space="preserve">
<path d="M88.3,2.51c0.941,1.328,2.626,5.434,4.223,10.4c0.658,2.049,1.209,3.991,1.649,5.673c0.62,1.625,1.29,3.485,1.949,5.534  c1.047,3.258,1.843,6.237,2.271,8.36L65.54,43.024c0.615,1.037,1.091,2.202,1.485,3.436l-0.377,0.126  c-4.182,1.51-7.008,3.071-8.918,4.812c-0.599,0.576-1.094,1.166-1.495,1.76c0.576-0.072,1.145,0.275,1.329,0.852  c0.058,0.178,0.076,0.361,0.054,0.535c-0.097,1.969,0.268,4.262,1.096,6.752c0.566,1.707,1.253,3.277,2.097,4.605  c0.103,0.158,0.184,0.336,0.245,0.523c0.366,1.139-0.263,2.359-1.402,2.727c-0.497,0.16-1.008,0.129-1.456-0.049  c-1.117,1.078-2.341-0.342-2.341-0.342l-1.844-1.895c-5.208-5.393-9.054-7.516-14.366-5.811  c-8.333,2.676-10.197,11.182-7.358,20.025c1.288,4.012,3.582,7.029,6.384,9.225c-10.445,11.256-20.755,10.283-29.681,1.746  C4.982,87.99,2.095,81.932,1.664,75.139c-0.311-4.902,1.152-10.535,3.641-15.998c-0.308-3.965,1.033-8.429,4.025-12.232  c1.492-1.894,3.143-3.347,5.017-4.49c0.201-0.254,0.967-4.752-3.886-7.054c-3.612-1.714-6.95-0.433-6.614-2.891  c0.314-2.299,5.866-3.751,10.343-1.227c3.202,1.805,6.12,0.613,6.12,0.613l1.45,4.517c0.45-0.498,0.688-0.755,0.688-0.755  s-1.184-3.513-1.449-4.336c-0.621-1.937,1.117-3.675,1.117-3.675l5.254-5.816c0.54-0.555,1.219-0.99,2.007-1.243  c2.564-0.823,5.311,0.588,6.135,3.154c0.179,0.558,0.253,1.126,0.232,1.68l40.968-13.154l7.22-8.607  c0.585-0.649,1.226-1.264,1.91-1.534C86.971,1.644,87.646,1.606,88.3,2.51L88.3,2.51z"/>
</svg>