<svg xmlns="http://www.w3.org/2000/svg" xmlns:xlink="http://www.w3.org/1999/xlink" version="1.1" id="Layer_1" x="0px" y="0px" width="100px" height="100px" viewBox="0 0 100 100" enable-background="new 0 0 100 100" xml:space="preserve">
<path d="M-39.35-28.816c0.352,1.115,0.604,4.294,0.604,8.042c0,1.546-0.05,2.996-0.117,4.244c0.067,1.248,0.117,2.668,0.117,4.214  c0,2.458-0.108,4.672-0.282,6.219H-63.82c0.191,0.845,0.262,1.746,0.262,2.677l-0.287,0.004c-3.191,0.114-5.469,0.562-7.156,1.333  c-0.537,0.262-1.005,0.557-1.412,0.875c0.412,0.077,0.725,0.439,0.725,0.875c0,0.134-0.028,0.263-0.082,0.377  c-0.498,1.327-0.752,2.975-0.733,4.86c0.013,1.294,0.138,2.518,0.423,3.613c0.035,0.13,0.053,0.269,0.053,0.41  c0,0.86-0.697,1.558-1.558,1.558c-0.375,0-0.719-0.133-0.987-0.353c-1,0.492-1.525-0.749-1.525-0.749l-0.845-1.701  c-2.378-4.834-4.544-7.13-8.554-7.13c-6.288,0-9.432,5.41-9.432,12.085c0,3.026,0.907,5.594,2.341,7.714  c-9.618,5.404-16.459,2.474-20.69-5.326c-1.85-3.661-2.495-8.439-1.298-13.182c0.864-3.423,3.102-6.956,6.005-10.146  c0.66-2.781,2.558-5.54,5.44-7.484c1.437-0.968,2.886-1.599,4.418-1.97c0.194-0.13,1.706-3.039-1.109-5.68  c-2.095-1.965-4.66-1.822-3.891-3.43c0.72-1.504,4.837-1.278,7.346,1.433c1.794,1.938,4.053,1.764,4.053,1.764v3.409  c0.417-0.242,0.636-0.366,0.636-0.366s-0.039-2.664-0.039-3.284c0-1.462,1.572-2.269,1.572-2.269l4.872-2.826  c0.491-0.261,1.051-0.41,1.646-0.41c1.936,0,3.505,1.569,3.505,3.505c0,0.421-0.074,0.826-0.21,1.2h30.919l6.83-4.303  c0.543-0.316,1.115-0.596,1.643-0.631C-40.069-29.7-39.6-29.579-39.35-28.816L-39.35-28.816z"/>
<path d="M48.459,39.836c-0.854,0.295-5.168,1.74-5.168,1.74c-12.372,4.271-19.543-8.896-12.062-12.062  c0.068-0.02,0.138-0.04,0.206-0.063c2.365-0.817,3.62-3.397,2.803-5.763c-0.816-2.366-3.397-3.622-5.764-2.804  c-0.728,0.251-1.349,0.668-1.837,1.196l-5.115,5.917c-0.021,0.022-1.553,1.653-0.965,3.355c0.281,0.814,1.607,4.479,1.607,4.479  s-3.481,3.926-8.74,10.606C6.737,54.933,1.468,66.637,2.237,75.632c0.574,6.689,3.554,12.595,7.585,16.507  c8.765,8.016,18.615,8.901,28.446-1.658c0.32-0.294,0.051-0.735-0.128-0.883c-2.522-2.113-4.599-4.923-5.859-8.57  c-3.054-8.835-1.412-17.635,7.111-20.577c5.46-1.89,9.479,0.27,14.818,5.559l1.886,1.857c0.088,0.095,1.057,1.1,1.836,0.313  c0.745-0.753,0.704-1.09-0.588-2.578c-1.327-1.537-6.444-8.881-0.234-15.112c1.91-1.824,4.751-3.468,8.909-5.075l0.066-0.022  C64.051,39.759,60.195,35.781,48.459,39.836L48.459,39.836z M33.655,28.991c-0.542,0.525-1.204,0.941-1.964,1.205  c-0.063,0.021-0.138,0.044-0.198,0.062c-1.969,0.847-2.716,2.541-2.477,4.367l61.834-21.363c-0.154-0.466-0.312-0.938-0.478-1.417  c-0.261-0.754-0.521-1.482-0.777-2.18L33.655,28.991L33.655,28.991z M31.089,38.623c1.056,1.092,2.474,2.009,4.188,2.531  L93.268,20.34c-0.379-1.004-0.75-1.946-1.102-2.818L31.089,38.623L31.089,38.623z M94.688,24.363  c-0.152-0.466-0.312-0.935-0.477-1.411c-0.234-0.677-0.467-1.332-0.701-1.963c-7.418,2.855-32.312,12.433-53.707,20.573  c1.026-0.107,2.107-0.342,3.237-0.732c0,0,4.309-1.444,5.161-1.738c3.536-1.222,6.405-1.733,8.754-1.693L94.688,24.363  L94.688,24.363z M87.071,3.238c-0.479-1.09-1.234-2.232-2.676-1.567c-1.277,0.588-3.568,3.632-4.214,4.517  c0.436-0.132,0.876-0.276,1.324-0.432C83.727,4.989,85.679,4.088,87.071,3.238L87.071,3.238z M65.279,42.089  c0.63,1.026,1.129,2.175,1.554,3.397l0.109,0.315l-0.683,0.245c-4.118,1.588-6.855,3.188-8.676,4.92  c-5.763,5.786-1.069,12.641,0.271,14.193c1.289,1.489,1.738,2.303,0.556,3.494c-0.899,0.906-2.069,0.461-2.793-0.313l-1.881-1.85  c-5.296-5.249-9.05-7.156-14.124-5.403c-7.992,2.76-9.697,11.025-6.695,19.721c1.23,3.555,3.189,6.258,6.029,8.561  c0.519,0.453,0.356,0.977,0.172,1.178c-9.216,9.999-19.4,11.562-29.764,2.078c-4.149-4.026-7.203-10.087-7.791-16.938  C1.126,70.558,2.589,64.618,5.13,58.886c-0.185-3.769,1.075-7.945,3.804-11.575c1.445-1.923,3.063-3.408,4.906-4.59  c0.197-0.261,0.863-4.766-4.032-6.958c-3.643-1.629-6.947-0.279-6.666-2.739c0.262-2.302,5.772-3.873,10.296-1.452  c3.237,1.732,6.122,0.478,6.122,0.478l1.42,4.11c0.182-0.211,0.321-0.37,0.413-0.475c-0.267-0.733-1.232-3.41-1.475-4.112  c-0.48-1.392,0.141-2.992,1.097-4.022l5.122-5.926c0.562-0.606,1.281-1.092,2.116-1.379c2.718-0.939,5.685,0.502,6.623,3.222  c0.19,0.551,0.283,1.113,0.287,1.664L75.431,11.22l7.015-8.749c0.57-0.661,1.195-1.289,1.872-1.574  c1.118-0.469,1.791-0.523,2.466,0.364c0.968,1.305,2.74,5.367,4.44,10.289c0.702,2.032,1.292,3.958,1.771,5.627  c0.654,1.607,1.363,3.449,2.067,5.48c1.116,3.229,1.976,6.183,2.452,8.295L65.279,42.089L65.279,42.089z M25.779,43.603  c3.669,1.39,9.896-0.485,11.105-0.835c1.96,0.252,4.168,0.059,6.554-0.766c0.141-0.047,4.328-1.448,5.168-1.739  c8.117-2.805,12.296-1.708,14.736,1.064c-6.952-2.397-35.605,8.54-35.652,8.399c0.064,0.219,0.648,1.877,1.072,3.632  c0.464,1.913-0.228,3.345-0.228,3.345l-6.971-20.182l0.611-0.674l2.341,6.775C24.516,42.623,24.552,43.191,25.779,43.603  L25.779,43.603z M31.598,56.825c-0.537-1.55,0.648-3.37,2.648-4.062c0.528-0.184,1.059-0.266,1.565-0.266l11.381-3.586  c1.386-0.467,2.889,0.271,3.366,1.655c0.481,1.389-0.257,2.902-1.645,3.378c-1.389,0.48-2.903-0.254-3.383-1.643  c-0.011-0.037-0.023-0.075-0.036-0.114l-6.501,2.245c0.032,0.073,0.06,0.15,0.086,0.225c0.479,1.39-0.056,2.833-1.195,3.227  c-0.407,0.139-0.836,0.131-1.24-0.01c-0.175,0.071-0.362,0.143-0.559,0.211C33.479,58.986,32.134,58.378,31.598,56.825  L31.598,56.825z M50.235,51.726c-0.19-0.053-2.893,0.37-4.142,0.744c0.501,0.944,1.629,1.413,2.674,1.053  C49.583,53.242,50.129,52.527,50.235,51.726L50.235,51.726z M32.35,57.247c-0.255,0.089-0.122,0.471,0.132,0.384l6.351-2.196  c0.254-0.089,0.122-0.471-0.133-0.382L32.35,57.247L32.35,57.247z M31.974,56.601c-0.256,0.091-0.125,0.473,0.131,0.385l6.511-2.248  c0.255-0.091,0.124-0.473-0.132-0.384L31.974,56.601L31.974,56.601z M31.826,55.876c-0.255,0.089-0.123,0.475,0.132,0.384  l6.233-2.152c0.257-0.091,0.123-0.473-0.133-0.385L31.826,55.876L31.826,55.876z M32.002,55.041  c-0.254,0.089-0.123,0.471,0.132,0.382l5.426-1.873c0.255-0.089,0.122-0.469-0.133-0.382L32.002,55.041L32.002,55.041z   M32.616,54.054c-0.254,0.087-0.122,0.469,0.133,0.38l3.646-1.258c0.256-0.089,0.124-0.472-0.132-0.383L32.616,54.054L32.616,54.054  z M33.144,57.747c-0.254,0.089-0.122,0.473,0.132,0.385l5.54-1.915c0.257-0.091,0.125-0.471-0.131-0.382L33.144,57.747  L33.144,57.747z M65.362,45.069c-3.946,1.563-6.733,3.192-8.647,5.017c-2.824,2.834-3.429,5.882-3.097,8.557  c-1.056,0.207-2.122,0.492-3.188,0.863c-0.827,0.283-1.622,0.606-2.384,0.967c-2.775-1.416-5.559-1.69-8.838-0.556  c-6.83,2.36-9.592,8.378-9.897,3.66c-0.126-1.952-0.48-3.741-1.142-5.312c0.933-0.524,1.83-1.056,2.688-1.582  c0.027,0.12,0.061,0.24,0.104,0.362c0.712,2.066,2.572,2.636,5.346,1.679c0.129-0.046,0.253-0.091,0.373-0.136  c0.462,0.106,0.951,0.098,1.426-0.065c1.467-0.506,2.066-2.155,1.731-3.664l5.281-1.826c0.766,1.405,2.454,2.093,4.016,1.553  c1.741-0.603,2.664-2.5,2.064-4.241c-0.09-0.258-0.207-0.497-0.349-0.714l0.535-0.202c2.601-1.006,7.626-2.907,13.932-4.474  L65.362,45.069L65.362,45.069z M33.581,23.554l0.125,0.319c1.984,6.037-7.68,4.126-5.896,11.659l-0.224-0.645  C25.586,27.728,35.011,29.23,33.581,23.554L33.581,23.554z M28.127,25.209c0.274,0.792,1.137,1.212,1.929,0.938  c0.793-0.273,1.212-1.136,0.938-1.928c-0.273-0.792-1.136-1.212-1.928-0.938C28.273,23.554,27.855,24.417,28.127,25.209  L28.127,25.209z M27.583,25.573c-0.385-1.118,0.206-2.335,1.323-2.721c1.116-0.385,2.334,0.207,2.72,1.323  c0.385,1.117-0.207,2.334-1.323,2.72C29.186,27.28,27.968,26.688,27.583,25.573L27.583,25.573z M7.785,78.173  c0.249,0.721,0.736,1.292,1.342,1.652c0.507,0.54,1.296,0.916,2.06,1.015c2.239,0.283,3.964-0.802,4.594-3.184  c0.661-2.495-0.467-3.786,0.422-9.721c0.888-5.934,1.503-4.886,5.165-7.411c3.665-2.525,0.348-4.188,0.348-4.188  c-1.049-0.51-2.328-0.871-3.92-1.065c-2.577-0.319-4.475,0.746-5.792,1.974c-0.661,0.616-1.16,1.263-1.496,1.759  c-0.164,0.244-1.664,3.459-2.141,4.764c0,0-1.262,3.366-1.059,5.897c0.204,2.533,0.562,3.025,4.595,3.969  c1.012,0.236,1.066,1.001,1.023,1.495c-0.799-0.892-2.075-1.276-3.27-0.862C8.066,74.816,7.229,76.563,7.785,78.173L7.785,78.173z   M31.324,81.357c1.217,3.528,3.167,6.315,5.538,8.471c0.114,0.101,0.336,0.405,0.098,0.56c-9.229,9.492-18.24,8.512-26.442,1.013  c-3.85-3.739-6.718-9.41-7.271-15.855c-0.437-5.1,1.154-11.19,3.935-17.089c0.008-0.02,3.448-7.238,10.999-6.311  c7.641,0.934,10.285,5.326,10.681,11.46c0.484,7.495,1.356,13.541,1.356,13.541C30.466,78.537,30.839,79.955,31.324,81.357  L31.324,81.357z M8.906,77.933c0.357,1.036,1.486,1.585,2.523,1.227s1.586-1.489,1.228-2.521c-0.358-1.036-1.487-1.589-2.524-1.229  C9.097,75.768,8.548,76.898,8.906,77.933L8.906,77.933z M11.688,79.912c-1.014,0.351-2.091,0.076-2.82-0.611  c-0.304-0.295-0.547-0.663-0.695-1.091c-0.5-1.448,0.268-3.023,1.715-3.526c1.214-0.417,2.522,0.054,3.206,1.074  c0.132,0.187,0.236,0.394,0.314,0.618C13.909,77.828,13.14,79.409,11.688,79.912L11.688,79.912z M12.399,77.026  c0.126,0.77-0.318,1.544-1.084,1.806c-0.781,0.272-1.628-0.084-1.994-0.8c0.288-0.107,0.579-0.214,0.873-0.312  C10.94,77.462,11.677,77.231,12.399,77.026L12.399,77.026z M9.036,77.211c0.031-0.695,0.477-1.335,1.175-1.577  c0.729-0.251,1.512,0.008,1.956,0.589l-0.186,0.064C10.979,76.632,9.994,76.941,9.036,77.211L9.036,77.211z M56.392,52.549  c0.382,0.103,0.707,0.388,0.846,0.792c0.06,0.174,0.08,0.354,0.062,0.532c-0.051,1.968,0.359,4.247,1.241,6.715  c0.604,1.692,1.322,3.242,2.192,4.553c0.107,0.155,0.194,0.328,0.257,0.514c0.391,1.131-0.207,2.363-1.338,2.752  c-0.346,0.122-0.698,0.147-1.033,0.097l0.041-0.042c1.107-1.118,0.729-1.854-0.562-3.341C56.894,63.726,52.908,57.96,56.392,52.549  L56.392,52.549z"/>
</svg>