<svg xmlns="http://www.w3.org/2000/svg" xmlns:xlink="http://www.w3.org/1999/xlink" version="1.1" baseProfile="tiny" id="Ebene_1" x="0px" y="0px" width="100.0px" height="100px" viewBox="0 0 3000 3000" overflow="inherit" xml:space="preserve">
<path d="M2435.502,1975.205c0-89.389,8.158-162.87-88.416-171.556v-213.631h-0.008  c-0.553-556.352-379.591-1007.163-847.082-1007.163c-467.494,0-846.53,450.811-847.083,1007.163h-0.006v213.614  c-96.582,8.692-88.395,82.183-88.395,171.572c0,91.022-8.498,165.565,93.775,171.992c80.851,198.177,41.329,270.752,295.846,270.754  l0-889.887c-145.391,0-194.831,25.119-225.57,83.601v-20.425c0-512.747,340.699-934.282,771.434-934.282  c430.733,0,771.438,421.533,771.438,934.28v20.389c-30.729-58.437-80.175-83.54-225.504-83.54v889.837  c254.496,0,214.955-72.569,295.783-270.73C2443.969,2140.756,2435.502,2066.225,2435.502,1975.205z"/>
</svg>