<svg xmlns="http://www.w3.org/2000/svg" xmlns:xlink="http://www.w3.org/1999/xlink" version="1.1" baseProfile="tiny" id="Ebene_1" x="0px" y="0px" width="100.0px" height="100px" viewBox="0 0 3000 3000" overflow="inherit" xml:space="preserve">
<path d="M2443.834,1412.302l-63.269,107.387l36.144,0.319c-4.54,45.865-24.607,88.44-57.581,121.412  c-37.774,37.775-87.998,58.579-141.42,58.579s-103.646-20.804-141.421-58.578c-9.764-9.764-25.592-9.764-35.355,0  c-9.763,9.763-9.763,25.593,0,35.355c47.219,47.219,109.999,73.223,176.776,73.223s129.558-26.005,176.775-73.224  c42.307-42.305,67.63-97.256,72.398-156.324l38.325,0.338L2443.834,1412.302z"/>
<path d="M2018.381,1483.539c3.808-47.211,23.99-91.043,57.905-124.959c37.774-37.775,87.999-58.579,141.421-58.579  s103.646,20.804,141.422,58.579c9.764,9.763,25.592,9.763,35.355,0c9.763-9.763,9.763-25.592,0-35.355  c-47.219-47.219-110-73.224-176.777-73.224s-129.558,26.005-176.776,73.224c-43.485,43.485-68.921,100.009-72.719,160.758  l-38.325,0.339l63.282,107.385l61.359-108.488L2018.381,1483.539z"/>
</svg>