<svg xmlns:x="http://ns.adobe.com/Extensibility/1.0/" xmlns:i="http://ns.adobe.com/AdobeIllustrator/10.0/" xmlns:graph="http://ns.adobe.com/Graphs/1.0/" xmlns="http://www.w3.org/2000/svg" xmlns:xlink="http://www.w3.org/1999/xlink" xmlns:a="http://ns.adobe.com/AdobeSVGViewerExtensions/3.0/" version="1.0" id="Layer_1" x="0px" y="0px" width="100px" height="100px" viewBox="0 0 100 100" enable-background="new 0 0 100 100" xml:space="preserve">
<g>
	<path d="M48.574,98.35c-0.2,0.024-0.407-0.002-0.604-0.09l-15.188-6.747c-0.297-0.131-0.533-0.384-0.654-0.699   c-0.121-0.314-0.114-0.664,0.016-0.973l10.912-25.753L40.641,47.18l-19.905-1.131l-1.662,24.28c-0.047,0.685-0.602,1.191-1.25,1.15   L1.479,70.406c-0.334-0.021-0.646-0.188-0.859-0.465c-0.213-0.272-0.309-0.624-0.263-0.973l0.575-4.366   c0.076-0.569,0.51-1.005,1.053-1.061l8.018-0.817l1.331-25.773c0.032-0.638,0.52-1.143,1.126-1.168l25.122-1.129l7.222-12.977   l-9.017-7.978l-10.455,0.85l0.372,2.859c0.009,0.04,0.016,0.081,0.021,0.123c0.083,0.688-0.379,1.31-1.034,1.389   c0,0-0.002,0-0.004,0c-0.006,0.001-0.013,0.001-0.02,0.002l-2.688,0.28c-0.408,0.043-0.812-0.139-1.067-0.481l-1.57-2.101   l-3.044,2.181c-0.49,0.352-1.156,0.267-1.56-0.201l-3.019-3.479c-0.409-0.472-0.421-1.187-0.026-1.664l4.996-6.055   c0.199-0.241,0.479-0.394,0.781-0.422l20.712-2.026c0.238-0.024,0.477,0.03,0.687,0.15l17.288,9.92l0.173-0.886   c0.011-0.046,0.022-0.091,0.036-0.135l1.08-3.453c0.068-0.213,0.191-0.405,0.354-0.552l2.977-2.671   c0.098-0.089,0.21-0.161,0.331-0.21l5.048-2.093C66.4,4.921,66.675,4.91,66.932,4.99l5.715,1.786   c0.399,0.124,0.709,0.457,0.823,0.878l1.521,5.755c0.075,0.282,0.053,0.582-0.06,0.846l-2.081,4.875   c-0.103,0.242-0.277,0.442-0.497,0.571l-1.898,1.12l11.208,1.42l5.222-12.294l-2.447-4.117c-0.295-0.496-0.229-1.135,0.16-1.545   l2.122-2.229c0.423-0.447,1.102-0.486,1.579-0.092l2.562,2.113l3.726-2.431c0.517-0.336,1.194-0.208,1.573,0.298l2.872,3.817   c0.361,0.482,0.342,1.167-0.046,1.617l-4.467,5.169l-4.621,18.751c-0.14,0.571-0.64,0.955-1.202,0.925l-21.236-1.124l-12.973,16.58   l1.285,19.462c0.02,0.26-0.038,0.512-0.165,0.729L44.851,86.559l6.562,6.272c0.446,0.424,0.525,1.125,0.189,1.64l-2.191,3.352   C49.213,98.126,48.903,98.31,48.574,98.35z M34.822,89.71l13.161,5.844l1.058-1.62l-6.519-6.231   c-0.427-0.406-0.522-1.069-0.228-1.577l11.07-19.233L52.07,47.329c-0.019-0.317,0.075-0.63,0.267-0.874l13.646-17.442   c0.234-0.302,0.598-0.469,0.973-0.449l20.869,1.102l4.452-18.071c0.05-0.195,0.14-0.373,0.267-0.521l3.988-4.615l-1.573-2.091   l-3.527,2.303c-0.425,0.276-0.974,0.242-1.372-0.085l-2.387-1.969l-0.711,0.749l2.282,3.84c0.212,0.355,0.243,0.796,0.081,1.177   l-5.83,13.733c-0.21,0.496-0.706,0.791-1.221,0.723l-15.729-1.994c-0.514-0.065-0.932-0.471-1.039-1.002   c-0.106-0.533,0.125-1.073,0.574-1.337l4.747-2.796l1.748-4.093l-1.231-4.64l-4.673-1.462L62.19,9.374l-2.578,2.313l-0.957,3.057   l-0.484,2.455c-0.078,0.385-0.32,0.709-0.662,0.872c-0.341,0.164-0.737,0.148-1.069-0.043L38.065,7.486L18.192,9.431l-3.997,4.842   l1.595,1.839l3.109-2.229c0.518-0.371,1.227-0.252,1.617,0.272l1.857,2.484l0.813-0.085l-0.391-2.998   c-0.044-0.34,0.045-0.683,0.249-0.948c0.203-0.267,0.5-0.432,0.828-0.458l12.192-0.991c0.316-0.027,0.628,0.08,0.871,0.295   l10.169,9c0.449,0.396,0.563,1.071,0.271,1.596L39.324,36.52c-0.202,0.363-0.566,0.59-0.968,0.61l-24.696,1.108l-1.326,25.711   c-0.033,0.612-0.486,1.104-1.064,1.167L3.17,65.942L2.9,67.99l13.875,0.908l1.663-24.272c0.045-0.675,0.596-1.182,1.24-1.146   l22.047,1.252c0.571,0.033,1.045,0.485,1.13,1.08l2.612,18.292c0.034,0.237,0.003,0.477-0.088,0.694L34.822,89.71z"/>
</g>
</svg>