<svg xmlns="http://www.w3.org/2000/svg" xmlns:xlink="http://www.w3.org/1999/xlink" version="1.1" x="0px" y="0px" width="100px" height="100px" viewBox="-346 256 100 100" enable-background="new -346 256 100 100" xml:space="preserve">
<g id="Layer_1">
</g>
<g id="Layer_2">
	<path d="M-274.958,287.951v-0.337c0-7.04-4.06-11.809-12.683-11.809h-2.438c-2.155,2.134-5.115,3.455-8.381,3.455   c-3.264,0-6.222-1.321-8.376-3.455h-1.947c-8.624,0-12.682,4.77-12.682,11.809v14.003h8.555v-13.628h2.511l-0.007,40.83h10.845   l0.002-7.18v-5.852h2.694v5.852l0.002,7.18h10.846l-0.006-40.83h2.509v13.628h8.556v-8.78h-3.804v-4.886H-274.958z    M-303.405,302.506c-1.214,0-2.198-0.982-2.198-2.196c0-1.215,0.984-2.197,2.198-2.197s2.197,0.982,2.197,2.197   C-301.208,301.524-302.191,302.506-303.405,302.506z M-303.405,294.073c-1.214,0-2.198-0.982-2.198-2.197   c0-1.213,0.984-2.197,2.198-2.197s2.197,0.984,2.197,2.197C-301.208,293.091-302.191,294.073-303.405,294.073z M-292.851,302.506   c-1.216,0-2.198-0.982-2.198-2.196c0-1.215,0.982-2.197,2.198-2.197c1.213,0,2.196,0.982,2.196,2.197   C-290.654,301.524-291.638,302.506-292.851,302.506z"/>
</g>
<g id="Layer_3">
	<path d="M-310.429,330.733l-0.003,20.136c0,2.731,2.653,4.949,5.385,4.949c2.739,0,5.46-2.218,5.46-4.949l0.004-20.136H-310.429z"/>
	<path d="M-296.885,330.733l0.004,20.136c0,2.731,2.721,4.949,5.459,4.949c2.732,0,5.387-2.218,5.387-4.949l-0.003-20.136H-296.885z   "/>
	<path d="M-283.536,303.531v6.898c0,5.271,8.556,5.288,8.556,0.018v-6.916H-283.536z"/>
	<path d="M-321.487,303.531v6.916c0,5.271,8.555,5.253,8.555-0.018v-6.898H-321.487z"/>
	<g>
		<path d="M-298.784,263.794c-4.354,0.071-7.78,1.157-10.147,2.245c-0.021,0.273-0.042,0.547-0.042,0.826    c0,5.829,4.723,10.558,10.551,10.558c5.83,0,10.561-4.729,10.561-10.558c0-0.245-0.021-0.484-0.036-0.724    C-290.466,264.938-294.212,263.715-298.784,263.794z"/>
		<path d="M-298.813,262.017c4.299-0.07,7.883,0.9,10.553,2.003c-1.245-4.446-5.318-7.71-10.162-7.71    c-4.808,0-8.856,3.218-10.129,7.617C-306.096,262.943-302.833,262.083-298.813,262.017z"/>
	</g>
</g>
</svg>