<?xml version="1.0" encoding="utf-8"?>
<!-- Generator: Adobe Illustrator 14.0.0, SVG Export Plug-In . SVG Version: 6.00 Build 43363)  -->
<!DOCTYPE svg PUBLIC "-//W3C//DTD SVG 1.0//EN" "http://www.w3.org/TR/2001/REC-SVG-20010904/DTD/svg10.dtd">
<svg version="1.0" id="Layer_1" xmlns="http://www.w3.org/2000/svg" xmlns:xlink="http://www.w3.org/1999/xlink" x="0px" y="0px"
	 width="80.979px" height="100px" viewBox="0 0 80.979 100" enable-background="new 0 0 80.979 100" xml:space="preserve">
<circle cx="18.143" cy="23.327" r="7.343"/>
<circle cx="53.77" cy="9.091" r="9.091"/>
<path d="M67.692,61.679l13.286-2.938l-2.797-11.748l-3.928,0.868l2.109-5.624c-3.392-6.573-7.168-22.727-15.944-22.937l-0.317-1.375
	c-1.544,1.21-3.487,1.934-5.602,1.934c-0.607,0-1.199-0.061-1.773-0.174v1.433l-4.755,3.636l-6.153,16.923l-7.808,3.003
	l-0.025-0.206l-5.594-10.07l-6.163-3.41c-1.146,0.74-2.511,1.172-3.977,1.172c-0.946,0-1.85-0.181-2.68-0.507l-3.964,3.304
	L7.692,49.839L0,56.644l1.958,2.518l9.65-6.574l1.958-3.308l0.979,3.867L9.091,70.629l2.378,0.7L6.713,91.516l3.637,1.352
	l7.968-19.851c1.297,0.148,2.642,0.234,3.998,0.271l11.391,20.559l3.496-1.212l-7.533-19.578c1.011-0.086,4.736-0.469,4.736-0.469
	L28.951,60.56h9.51l-1.259-9.23h-2.377l-0.205-1.67l10.694-1.827l2.414-3.636l2.9,11.749l-7.133,16.363l-1.538,24.755l7.133,0.56
	l2.657-20.325l3.916-6.108l2.098,8.672L69.091,100l6.573-1.818l-9.65-18.881L67.692,61.679z M70.629,43.427l-1.416,5.549
	l-2.116,0.468l-0.873-11.681L70.629,43.427z M29.65,51.329h-2.611l1.026-6.667l1.585,1.865V51.329z"/>
</svg>
