<svg xmlns:x="http://ns.adobe.com/Extensibility/1.0/" xmlns:i="http://ns.adobe.com/AdobeIllustrator/10.0/" xmlns:graph="http://ns.adobe.com/Graphs/1.0/" xmlns="http://www.w3.org/2000/svg" xmlns:xlink="http://www.w3.org/1999/xlink" xmlns:a="http://ns.adobe.com/AdobeSVGViewerExtensions/3.0/" version="1.0" id="Layer_1" x="0px" y="0px" width="100px" height="100px" viewBox="0 0 100 100" enable-background="new 0 0 100 100" xml:space="preserve">
<g>
	<path fill="#000000" d="M91.616,6.561c-0.425,0.276-0.974,0.242-1.371-0.085l-2.388-1.969l-0.711,0.749l2.281,3.84   c0.213,0.355,0.242,0.796,0.081,1.177L83.68,24.006c-0.211,0.496-0.707,0.791-1.223,0.723l-15.729-1.994   c-0.515-0.065-0.933-0.471-1.039-1.002c-0.105-0.533,0.125-1.073,0.574-1.337L71.01,17.6l1.748-4.093l-1.23-4.64l-4.674-1.462   l-4.48,1.859l-2.578,2.313l-0.957,3.057l-0.482,2.455c-0.078,0.385-0.319,0.709-0.662,0.872c-0.342,0.164-0.737,0.148-1.069-0.043   L38.247,7.374L18.374,9.319l-3.997,4.842L15.972,16l3.109-2.229c0.518-0.371,1.227-0.252,1.617,0.272l1.857,2.484l0.813-0.085   l-0.391-2.998c-0.044-0.34,0.045-0.683,0.249-0.948c0.203-0.267,0.5-0.432,0.828-0.458l12.192-0.991   c0.316-0.027,0.628,0.08,0.871,0.295l10.169,9c0.449,0.396,0.563,1.071,0.271,1.596l-8.051,14.47   c-0.202,0.363-0.566,0.59-0.968,0.61l-24.696,1.108l-1.326,25.712c-0.033,0.611-0.486,1.104-1.064,1.166l-8.1,0.826l-0.27,2.049   l13.875,0.908l1.663-24.273c0.045-0.675,0.596-1.182,1.24-1.146l22.047,1.252c0.571,0.033,1.045,0.485,1.13,1.08l2.612,18.292   c0.034,0.236,0.003,0.477-0.088,0.693L35.004,89.598l13.161,5.846l1.058-1.62l-6.519-6.23c-0.427-0.405-0.522-1.069-0.228-1.577   l11.07-19.232l-1.293-19.564c-0.021-0.317,0.074-0.63,0.267-0.874l13.646-17.442c0.234-0.302,0.6-0.469,0.975-0.449l20.868,1.102   l4.452-18.071c0.051-0.195,0.141-0.373,0.268-0.521l3.987-4.615l-1.573-2.091L91.616,6.561z"/>
	<path fill="#000000" d="M-2.666-2.667v105.668H103V-2.667H-2.666z M99.168,7.266l-4.467,5.169L90.08,31.186   c-0.141,0.571-0.641,0.955-1.203,0.925l-21.234-1.124l-12.975,16.58l1.285,19.462c0.021,0.26-0.037,0.512-0.164,0.729   L45.033,86.447l6.562,6.271c0.445,0.425,0.523,1.125,0.188,1.642l-2.191,3.352c-0.197,0.303-0.507,0.488-0.836,0.527   c-0.2,0.022-0.407-0.002-0.604-0.09l-15.188-6.746c-0.297-0.133-0.533-0.385-0.654-0.699s-0.114-0.664,0.016-0.975l10.912-25.752   l-2.415-16.909l-19.905-1.131l-1.662,24.28c-0.047,0.686-0.602,1.191-1.25,1.15L1.661,70.295c-0.334-0.021-0.646-0.189-0.859-0.465   c-0.213-0.273-0.309-0.625-0.263-0.975l0.575-4.365c0.076-0.568,0.51-1.004,1.053-1.061l8.018-0.816l1.331-25.774   c0.032-0.638,0.52-1.143,1.126-1.168l25.122-1.129l7.222-12.977l-9.017-7.978l-10.455,0.85l0.372,2.859   c0.009,0.04,0.016,0.081,0.021,0.123c0.083,0.688-0.379,1.31-1.034,1.389c0,0-0.002,0-0.004,0c-0.006,0.001-0.013,0.001-0.02,0.002   l-2.688,0.28c-0.408,0.043-0.812-0.139-1.067-0.481l-1.57-2.101l-3.044,2.181c-0.49,0.352-1.156,0.267-1.56-0.201l-3.019-3.479   c-0.409-0.472-0.421-1.187-0.026-1.664l4.996-6.055c0.199-0.241,0.479-0.394,0.781-0.422l20.712-2.026   c0.238-0.024,0.477,0.03,0.687,0.15l17.289,9.92l0.174-0.886c0.01-0.046,0.021-0.091,0.035-0.135l1.079-3.453   c0.067-0.213,0.19-0.405,0.354-0.552l2.978-2.671c0.099-0.089,0.209-0.161,0.33-0.21l5.049-2.093   c0.244-0.103,0.519-0.114,0.775-0.034l5.715,1.786c0.399,0.124,0.709,0.457,0.823,0.878l1.521,5.755   c0.075,0.282,0.053,0.582-0.06,0.846l-2.082,4.875c-0.103,0.242-0.276,0.442-0.496,0.571l-1.897,1.12l11.207,1.42l5.223-12.294   L84.62,5.718c-0.295-0.496-0.229-1.135,0.159-1.545l2.123-2.229c0.423-0.447,1.103-0.486,1.578-0.092l2.562,2.113l3.727-2.431   c0.517-0.336,1.193-0.208,1.572,0.298l2.872,3.817C99.574,6.131,99.557,6.816,99.168,7.266z"/>
</g>
</svg>