<svg xmlns="http://www.w3.org/2000/svg" xmlns:xlink="http://www.w3.org/1999/xlink" version="1.1" id="Layer_1" x="0px" y="0px" width="100px" height="100px" viewBox="0 0 100 100" enable-background="new 0 0 100 100" xml:space="preserve">
<path d="M80.471,29.75c0,3.619-2.282,6.553-5.098,6.553H20.757c-2.815,0-5.098-2.934-5.098-6.553l0,0  c0-3.619,2.283-6.553,5.098-6.553h54.616C78.188,23.197,80.471,26.131,80.471,29.75L80.471,29.75z"/>
<path d="M57.838,88.516c0,5.5-4.458,9.958-9.958,9.958l0,0c-5.5,0-9.958-4.458-9.958-9.958V11.484c0-5.5,4.458-9.958,9.958-9.958  l0,0c5.5,0,9.958,4.458,9.958,9.958V88.516z"/>
</svg>