<svg xmlns="http://www.w3.org/2000/svg" xmlns:xlink="http://www.w3.org/1999/xlink" version="1.1" id="Layer_1" x="0px" y="0px" width="95.421px" height="90.213px" viewBox="0 0 95.421 90.213" enable-background="new 0 0 95.421 90.213" xml:space="preserve">
<g>
	<g>
		<path fill="#000000" d="M243.3,90.211c-3.482-0.002-6.299-2.817-6.301-6.298l0,0V18.394c0.002-3.481,2.817-6.297,6.301-6.299l0,0    h33.783l-9.004,9H246v60.117l57.471,0.002V69.125l9.002-9l-0.002,23.788c-0.004,3.479-2.818,6.296-6.301,6.3l0,0L243.3,90.211    L243.3,90.211z"/>
		<path fill="#000000" d="M303.171,11.301V0l29.25,29.25l-29.375,29.375v-11.75c0,0-14.586-2.894-29.584,6.458    c-8.209,5.084-13.752,11.773-17.166,17.042c0,0,1.108-18.25,11.608-34.875C281.033,14.716,303.171,11.301,303.171,11.301z"/>
	</g>
	<path d="M45.516,56.854c6.032-0.01,10.919-4.895,10.928-10.928c-0.005-4.064-2.217-7.602-5.508-9.485   c-1.597-0.915-3.448-1.44-5.42-1.445c-1.965,0.004-3.806,0.522-5.396,1.426c-3.308,1.876-5.536,5.427-5.543,9.503   C34.59,51.958,39.475,56.847,45.516,56.854z M68.794,34.898c0.238,0.499,0.463,1.01,0.665,1.527c1.166,2.939,1.81,6.146,1.81,9.501   c-0.005,14.23-11.528,25.75-25.754,25.753c-14.232-0.003-25.758-11.528-25.762-25.753c0-3.351,0.642-6.556,1.807-9.492   c0.202-0.509,0.419-1.012,0.65-1.501c0.005-0.013,0.013-0.021,0.02-0.033h-22.25v51.222c0,2.107,1.707,3.811,3.812,3.811h82.918   c2.106,0,3.81-1.705,3.81-3.811V34.9L68.794,34.898L68.794,34.898z"/>
	<path d="M86.666-0.103H3.747c-2.105,0-3.812,1.704-3.812,3.808v24.087h27.277c4.662-4.683,11.117-7.586,18.257-7.591   c7.133,0.004,13.59,2.908,18.25,7.591h26.756V3.705C90.477,1.6,88.771-0.103,86.666-0.103z M82.359,15.545   c0,2.151-1.74,3.888-3.887,3.888h-4.598c-2.146,0-3.889-1.738-3.889-3.888v-4.593c0-2.152,1.742-3.89,3.889-3.89h4.598   c2.148,0,3.887,1.738,3.887,3.89V15.545z"/>
</g>
</svg>