<svg xmlns="http://www.w3.org/2000/svg" xmlns:xlink="http://www.w3.org/1999/xlink" version="1.1" id="Layer_1" x="0px" y="0px" width="100px" height="100px" viewBox="0 0 100 100" enable-background="new 0 0 100 100" xml:space="preserve">
<g>
	<path d="M89.533,27.231c0.195-0.231,0.388-0.468,0.57-0.723c2.521-3.512,3.087-8.169,1.683-13.841   c-1.049-4.236-2.834-6.742-5.461-7.663c-4.181-1.463-8.47,1.817-12.615,4.99c-2.054,1.573-4.315,3.295-6.213,4.141   c-5.249-2.385-11.43-3.73-17.497-3.73c-6.068,0-12.249,1.346-17.497,3.73c-1.897-0.846-4.159-2.568-6.213-4.141   c-4.146-3.172-8.435-6.453-12.615-4.99c-2.627,0.921-4.412,3.427-5.461,7.663c-1.405,5.671-0.839,10.329,1.683,13.841   c0.183,0.255,0.375,0.491,0.57,0.723c-3.902,3.562-13.99,15.187-9.204,36.942l0.863,3.926l2.182-1.211   c0.938,6.005,3.943,16.163,13.557,22.646l1.638,1.104l3.619-2.336c2.829,1.983,8.473,5.368,14.031,5.368   c0.604,0,1.206-0.056,1.805-0.143c3.086,1.158,6.686,1.827,10.578,1.827c0.159,0,0.308-0.018,0.465-0.021   c0.157,0.003,0.306,0.021,0.465,0.021c3.893,0,7.492-0.669,10.578-1.827c0.599,0.087,1.199,0.143,1.804,0.143   c5.56,0,11.203-3.385,14.032-5.368l3.619,2.336l1.637-1.104c9.614-6.482,12.619-16.641,13.558-22.646l2.182,1.211l0.863-3.926   C103.523,42.418,93.436,30.793,89.533,27.231z M77.349,14.748c2.052-1.571,5.866-4.484,6.995-4.093   c0.236,0.083,0.99,0.864,1.631,3.451c0.957,3.866,0.719,6.85-0.707,8.872c-0.824,1.168-1.967,1.892-2.986,2.338   c-2.475-2.958-5.421-5.587-8.711-7.789C74.847,16.662,76.105,15.7,77.349,14.748z M46.602,16.528v5.165l-7.013-2.216l-1.083,3.426   l7.758,2.449l0.338,0.774v5.292l-0.415-0.579l-18.864-3.627l-0.678,3.527l17.458,3.358l2.499,4.118h3.384h0.029h3.384l2.499-4.118   l17.458-3.358l-0.679-3.527l-18.863,3.627l-0.415,0.579v-5.292l0.338-0.774l7.758-2.449l-1.083-3.426l-7.013,2.216v-5.165   c13.514,1.309,27.486,11.258,30.535,24.895c-4.952,7.711-13.884,9.415-13.983,9.433l0.62,3.538   c0.41-0.071,8.159-1.503,13.972-7.846c0.002,0.13,0.013,0.258,0.013,0.39c0,1.238-0.136,2.526-0.386,3.846   c-5.066,6.479-12.868,7.968-12.961,7.984l0.62,3.539c0.321-0.056,5.175-0.948,10.058-4.404c-2.109,4.854-5.274,9.806-8.803,14.247   c0.032-0.367,0.056-0.738,0.056-1.113c0-6.046-4.391-11.075-10.148-12.095l-2.252-12.745l1.751-0.503   c1.331,2.356,4.031,3.749,6.854,3.274c3.247-0.546,5.531-3.37,5.513-6.56l3.92-1.041l0.918-6.438l-25.79,6.533l3.165,18.363H42.932   l3.165-18.363l-25.79-6.533l1.403,6.567l3.435,0.913c-0.02,3.19,2.266,6.014,5.512,6.56c2.823,0.475,5.523-0.918,6.854-3.274   l1.724,0.656L37.01,58.94c-5.758,1.02-10.149,6.049-10.149,12.095c0,0.375,0.023,0.746,0.057,1.113   c-3.528-4.441-6.693-9.394-8.804-14.247c4.884,3.456,9.736,4.349,10.059,4.404l0.619-3.539c-0.092-0.016-7.895-1.505-12.96-7.984   c-0.25-1.32-0.386-2.607-0.386-3.846c0-0.131,0.01-0.26,0.013-0.39c5.812,6.343,13.562,7.775,13.972,7.846l0.62-3.538   c-0.1-0.018-9.031-1.721-13.983-9.433C19.114,27.786,33.088,17.836,46.602,16.528z M14.025,14.106   c0.641-2.587,1.394-3.368,1.63-3.451c1.13-0.391,4.944,2.522,6.996,4.093c1.242,0.952,2.502,1.914,3.778,2.779   c-3.29,2.201-6.237,4.831-8.711,7.789c-1.021-0.446-2.163-1.169-2.987-2.338C13.307,20.956,13.067,17.972,14.025,14.106z    M25.137,82.335l-1.686-1.37l-3.802,2.451c-9.766-7.873-9.776-21.21-9.775-21.352l0.042-5.135l-3.522,1.951   c-1.747-12.855,2.622-20.844,5.869-24.849c-1.797,4.056-2.805,8.414-2.805,12.905c0,12.214,9.761,26.837,19.344,36.31   c0.096,0.64,0.281,1.26,0.506,1.869C27.504,84.104,25.982,83.021,25.137,82.335z M30.453,71.035c0-3.831,2.489-7.084,5.935-8.243   l-0.488,3.019l11.869,5.792c0.007,0.155,0.011,0.311,0.023,0.465c-0.514,4.313-4.187,7.671-8.636,7.671   C34.356,79.738,30.453,75.834,30.453,71.035z M50,89.354c-4.719,0-15.248-2.637-15.248-6.854c1.369,0.528,2.851,0.83,4.404,0.83   c4.406,0,8.672-2.738,10.844-6.231c0,0-0.005,0.007,0,0c0.006,0.007,0.01-0.007,0.015,0c0,0,0,0-0.015,0   c2.171,3.493,6.438,6.231,10.844,6.231c1.553,0,3.035-0.302,4.404-0.83C65.248,86.717,54.718,89.354,50,89.354z M60.844,79.738   c-4.449,0-8.122-3.357-8.636-7.671c0.013-0.154,0.017-0.31,0.023-0.465l11.869-5.792l-0.488-3.019   c3.444,1.159,5.935,4.412,5.935,8.243C69.547,75.834,65.644,79.738,60.844,79.738z M93.605,58.881l-3.521-1.951l0.042,5.135   c0.001,0.142-0.01,13.479-9.775,21.352l-3.802-2.451l-1.687,1.37c-0.845,0.687-2.366,1.769-4.17,2.781   c0.225-0.609,0.409-1.229,0.506-1.869c9.583-9.473,19.344-24.096,19.344-36.31c0-4.491-1.008-8.849-2.806-12.905   C90.984,38.037,95.353,46.026,93.605,58.881z"/>
</g>
</svg>