<?xml version="1.0" encoding="utf-8"?>
<!-- Generator: Adobe Illustrator 14.0.0, SVG Export Plug-In . SVG Version: 6.00 Build 43363)  -->
<!DOCTYPE svg PUBLIC "-//W3C//DTD SVG 1.0//EN" "http://www.w3.org/TR/2001/REC-SVG-20010904/DTD/svg10.dtd">
<svg version="1.0" id="Layer_1" xmlns="http://www.w3.org/2000/svg" xmlns:xlink="http://www.w3.org/1999/xlink" x="0px" y="0px"
	 width="99.999px" height="33.547px" viewBox="0 0 99.999 33.547" enable-background="new 0 0 99.999 33.547" xml:space="preserve">
<path d="M99.212,10.535L79.778,8.898L75.278,0H40.965l-7.417,9.819L2.454,11.456L0,24.445h7.105
	c0.487-4.882,4.606-8.694,9.617-8.694c5.01,0,9.129,3.812,9.616,8.694h44.283c0.487-4.882,4.606-8.694,9.616-8.694
	c4.988,0,9.093,3.778,9.61,8.628l8.75-1.264C98.599,23.116,101.29,13.016,99.212,10.535z M55.768,10.765H35.21l6.722-8.898h13.836
	V10.765z M57.635,10.765V1.866h12.988l4.501,8.898H57.635z"/>
<path d="M16.723,17.285c-4.491,0-8.132,3.64-8.132,8.131s3.641,8.131,8.132,8.131c4.49,0,8.131-3.64,8.131-8.131
	S21.213,17.285,16.723,17.285z M16.723,30.787c-2.966,0-5.37-2.404-5.37-5.37s2.404-5.37,5.37-5.37c2.965,0,5.369,2.404,5.369,5.37
	S19.688,30.787,16.723,30.787z"/>
<path d="M80.238,17.285c-4.49,0-8.131,3.64-8.131,8.131s3.641,8.131,8.131,8.131c4.491,0,8.132-3.64,8.132-8.131
	S84.729,17.285,80.238,17.285z M80.238,30.787c-2.965,0-5.369-2.404-5.369-5.37s2.404-5.37,5.369-5.37c2.966,0,5.37,2.404,5.37,5.37
	S83.204,30.787,80.238,30.787z"/>
</svg>
