<svg xmlns:dc="http://purl.org/dc/elements/1.1/" xmlns:cc="http://creativecommons.org/ns#" xmlns:rdf="http://www.w3.org/1999/02/22-rdf-syntax-ns#" xmlns:svg="http://www.w3.org/2000/svg" xmlns="http://www.w3.org/2000/svg" version="1.1" width="48" height="48" id="svg2" style="display:inline">
  <defs id="defs4"/>
  <metadata id="metadata7">
    <rdf:RDF>
      <cc:Work rdf:about="">
        <dc:format>image/svg+xml</dc:format>
        <dc:type rdf:resource="http://purl.org/dc/dcmitype/StillImage"/>
        <dc:title/>
        <cc:license rdf:resource="http://creativecommons.org/licenses/publicdomain/"/>
      </cc:Work>
      <cc:License rdf:about="http://creativecommons.org/licenses/publicdomain/">
        <cc:permits rdf:resource="http://creativecommons.org/ns#Reproduction"/>
        <cc:permits rdf:resource="http://creativecommons.org/ns#Distribution"/>
        <cc:permits rdf:resource="http://creativecommons.org/ns#DerivativeWorks"/>
      </cc:License>
    </rdf:RDF>
  </metadata>
  <g transform="matrix(0.08984279,0,0,0.08984374,1.0002197,-47.548156)" id="g2997" style="display:inline">
    <g transform="matrix(-0.70710678,0.70710678,-0.70710678,-0.70710678,1038.0095,650.19534)" id="g2999" style="fill:#ff0060;fill-opacity:1"/>
    <path d="m 288.11203,777.07293 1.5e-4,-42.52614 c 10e-6,-3.49224 -1.48188,-8.65946 -11.93232,-8.65946 -10.45045,0 -11.93232,5.16722 -11.93233,8.65946 l -1.5e-4,42.52614 c -1e-5,3.49224 2.07635,7.48276 11.93248,7.48276 9.85613,0 11.93216,-3.99052 11.93217,-7.48276 z M 249.79402,1050.0088 246.8523,925.44561 c -13.81553,-0.56411 -21.77102,-0.78212 -29.14488,-2.82241 -5.11024,-1.41397 -7.62654,-5.45581 -7.62654,-11.7023 l 0,-178.67233 c 0,-4.11306 -0.33366,-6.56319 -6.32468,-6.51379 -10.15094,0.0836 -49.86205,0.63037 -49.86205,0.63037 l 7.36348,-13.92718 c 1.36794,-2.5873 2.62089,-4.51369 6.18679,-4.51369 2.55277,0 22.68789,2.73111 36.45047,1.26073 7.01051,-0.74899 10.12914,-1.63071 13.27345,-6.85895 5.56863,-9.25929 4.45317,-31.58542 -5.62211,-47.08673 -2.43993,-3.75396 0.19481,-7.07778 4.47028,-5.54714 9.35945,3.35072 25.0351,2.83594 25.0351,2.83594 l 0,-87.46082 c 0,-2.97158 -1.61267,-4.70674 -4.88141,-4.70674 l -56.77507,0 c 0,0 7.7603,-16.62334 18.99244,-18.35836 12.26774,-1.895 38.40082,-1.62703 57.61272,-1.62703 19.2119,0 45.34498,-0.26797 57.61272,1.62703 11.23214,1.73502 18.99244,18.35836 18.99244,18.35836 l -56.77507,0 c -3.26874,0 -4.88141,1.73516 -4.88141,4.70674 l 0,87.46082 c 0,0 15.67565,0.51478 25.0351,-2.83594 4.27547,-1.53064 6.91021,1.79318 4.47028,5.54714 -10.07528,15.50131 -11.19074,37.82744 -5.62211,47.08673 3.14431,5.22824 6.26294,6.10996 13.27345,6.85895 13.76258,1.47038 33.8977,-1.26073 36.45047,-1.26073 3.5659,0 4.81885,1.92639 6.18679,4.51369 l 7.36348,13.92718 c 0,0 -39.71111,-0.54675 -49.86205,-0.63037 -5.99102,-0.0494 -6.32468,2.40073 -6.32468,6.51379 l 0,178.67233 c 0,6.24649 -2.5163,10.28833 -7.62654,11.7023 -7.37386,2.04029 -15.32935,2.2583 -29.14488,2.82241 l -2.94172,124.56319 c -0.0483,2.0457 -2.91639,2.3534 -6.20627,2.3534 -3.28988,0 -6.15797,-0.3077 -6.20627,-2.3534 z m -13.9733,-265.45311 c 9.85613,0 11.93249,-3.99052 11.93248,-7.48276 l -1.5e-4,-42.52614 c -1e-5,-3.49224 -1.48188,-8.65946 -11.93233,-8.65946 -10.45044,0 -11.93233,5.16722 -11.93232,8.65946 l 1.5e-4,42.52614 c 1e-5,3.49224 2.07604,7.48276 11.93217,7.48276 z" id="use3005" style="fill:#000000;fill-opacity:1;stroke:none"/>
  </g>
</svg>