<svg xmlns:dc="http://purl.org/dc/elements/1.1/" xmlns:cc="http://creativecommons.org/ns#" xmlns:rdf="http://www.w3.org/1999/02/22-rdf-syntax-ns#" xmlns:svg="http://www.w3.org/2000/svg" xmlns="http://www.w3.org/2000/svg" version="1.0" width="48" height="48" id="svg2">
  <metadata id="metadata10">
    <rdf:RDF>
      <cc:Work rdf:about="">
        <dc:format>image/svg+xml</dc:format>
        <dc:type rdf:resource="http://purl.org/dc/dcmitype/StillImage"/>
        <dc:title/>
      </cc:Work>
    </rdf:RDF>
  </metadata>
  <defs id="defs8"/>
  <path d="M 21.470602,1.0000007 C 14.419239,1.4705192 9.1089525,7.4006961 9.1089525,14.642783 c 0,1.779135 0.3365853,3.479469 0.9499425,5.037401 0.625319,1.588311 1.435665,3.428713 7.832092,9.493413 l 1.864423,-1.087123 c -0.117174,-0.330918 -0.177373,-0.687802 -0.177373,-1.059241 0,-1.501724 1.042159,-2.757746 2.435947,-3.070238 l 0,-2.178214 c -5.397112,-0.333967 -9.680736,-4.857314 -9.680736,-10.393386 0,-5.4464889 3.863952,-9.9242383 9.137354,-10.3853943 z" id="path2995" style="fill:#000000;fill-opacity:1;stroke:none"/>
  <path d="m 45.640411,38.968034 c 3.122342,-6.404608 0.693986,-14.01575 -5.514114,-17.636793 -1.52512,-0.889567 -3.150981,-1.445251 -4.793159,-1.687581 -1.6742,-0.247054 -3.657013,-0.458271 -12.05404,2.105715 l -2.7e-4,2.174774 c 0.342258,0.06294 0.678287,0.188715 0.996694,0.374434 1.287317,0.750862 1.842931,2.290674 1.413913,3.666367 l 1.86722,1.089108 c 2.984841,-4.555036 9.004182,-6.041173 13.749843,-3.273137 4.668868,2.723244 6.575332,8.342753 4.333945,13.187113 z" id="use2997" style="fill:#000000;fill-opacity:1;stroke:none"/>
  <path d="m 0.99999999,41.107191 c 3.92902211,5.93409 11.66766301,7.615054 17.87576401,3.994011 1.525119,-0.889567 2.814397,-2.034218 3.843216,-3.34982 1.048881,-1.341257 2.221348,-2.970443 4.221949,-11.599127 l -1.864121,-1.087651 c -0.225084,0.267976 -0.500915,0.499086 -0.819322,0.684806 -1.287316,0.750862 -2.885089,0.467071 -3.849859,-0.59613 l -1.86722,1.089107 C 20.952678,35.13139 19.216962,41.140874 14.471301,43.90891 9.8024323,46.632154 4.0320157,45.490396 0.99999999,41.107191 z" id="use2999" style="fill:#000000;fill-opacity:1;stroke:none"/>
  <path d="m 22.692553,14.159685 c -2.841852,0 -5.469401,0.933999 -7.593578,2.51661 0.653224,0.926123 1.465953,1.740496 2.387783,2.390563 1.49497,-0.991146 3.284063,-1.569078 5.205795,-1.569078 2.026195,0 3.90463,0.642195 5.446725,1.734244 1.353938,-0.330668 2.721806,-0.595929 4.108706,-0.743248 -2.344876,-2.655702 -5.755683,-4.329091 -9.555431,-4.329091 z" id="path3792" style="fill:#000000;fill-opacity:1;fill-rule:evenodd;stroke:none"/>
  <path d="m 33.783783,33.577811 c 1.420926,-2.48638 1.934054,-5.252264 1.639488,-7.902045 -1.120509,0.108455 -2.224974,0.412337 -3.243142,0.893827 0.10215,1.803546 -0.296978,3.657818 -1.257845,5.339171 -1.013097,1.77275 -2.50282,3.095125 -4.21,3.898304 -0.393513,1.349916 -0.850057,2.679315 -1.417222,3.966396 3.448973,-0.723718 6.588848,-2.871194 8.488721,-6.195653 z" id="use3794" style="fill:#000000;fill-opacity:1;fill-rule:evenodd;stroke:none"/>
  <path d="m 11.604887,33.558922 c 1.420926,2.48638 3.535347,4.318265 5.95409,5.385436 0.467285,-1.034578 0.759022,-2.152833 0.855359,-3.28439 -1.59712,-0.812401 -2.987084,-2.08874 -3.94795,-3.770093 -1.013098,-1.77275 -1.401809,-3.73732 -1.236725,-5.632548 -0.960425,-1.019249 -1.871748,-2.083386 -2.691484,-3.223148 -1.1040971,3.379419 -0.8331644,7.200284 1.06671,10.524743 z" id="use3796" style="fill:#000000;fill-opacity:1;fill-rule:evenodd;stroke:none"/>
</svg>