<svg xmlns="http://www.w3.org/2000/svg" xmlns:xlink="http://www.w3.org/1999/xlink" version="1.1" id="Layer_1" x="0px" y="0px" width="70.158px" height="89.263px" viewBox="0 0 70.158 89.263" enable-background="new 0 0 70.158 89.263" xml:space="preserve">
<polygon points="29.805,55.829 28.885,56.359 29.596,57.148 28.605,57.529 29.183,58.418 28.145,58.639 28.576,59.608   27.517,59.664 27.791,60.689 26.735,60.577 26.847,61.633 26.091,61.464 29.766,76 24.065,76 21.624,66.517 19.182,76 13.481,76   16.909,62.434 16.871,62.435 16.817,61.367 15.792,61.638 15.902,60.579 14.846,60.69 15.122,59.665 14.061,59.608 14.494,58.639   13.456,58.418 14.034,57.529 13.043,57.148 13.752,56.359 12.833,55.829 13.658,55.161 12.833,54.493 13.752,53.962 13.043,53.173   14.034,52.794 13.456,51.905 14.494,51.683 14.061,50.713 15.122,50.659 14.846,49.634 15.902,49.744 15.792,48.688 16.817,48.964   16.871,47.903 17.84,48.336 18.062,47.297 18.952,47.876 19.331,46.885 20.12,47.595 20.65,46.676 21.318,47.5 21.986,46.676   22.517,47.595 23.306,46.885 23.687,47.876 24.576,47.297 24.796,48.336 25.766,47.903 25.822,48.964 26.847,48.688 26.735,49.744   27.791,49.634 27.517,50.659 28.576,50.713 28.145,51.683 29.183,51.905 28.605,52.794 29.596,53.173 28.885,53.962 29.805,54.493   28.98,55.161 "/>
<path d="M49.791,5H7v77h55V16.799L49.791,5z M50,7.291L59.153,17H50V7.291z M9,7h39v11h12v62H9V7z"/>
</svg>