<?xml version="1.0" encoding="utf-8"?>
<!-- Generator: Adobe Illustrator 14.0.0, SVG Export Plug-In . SVG Version: 6.00 Build 43363)  -->
<!DOCTYPE svg PUBLIC "-//W3C//DTD SVG 1.0//EN" "http://www.w3.org/TR/2001/REC-SVG-20010904/DTD/svg10.dtd">
<svg version="1.0" id="Layer_1" xmlns="http://www.w3.org/2000/svg" xmlns:xlink="http://www.w3.org/1999/xlink" x="0px" y="0px"
	 width="100px" height="26.299px" viewBox="0 0 100 26.299" enable-background="new 0 0 100 26.299" xml:space="preserve">
<path d="M76.849,19.098c-1.988,0-3.601,1.612-3.601,3.601s1.612,3.601,3.601,3.601c1.989,0,3.601-1.612,3.601-3.601
	S78.838,19.098,76.849,19.098z M76.849,24.784c-1.152,0-2.086-0.934-2.086-2.086s0.934-2.086,2.086-2.086s2.086,0.934,2.086,2.086
	S78.001,24.784,76.849,24.784z"/>
<path d="M17.502,19.098c-1.988,0-3.601,1.612-3.601,3.601s1.612,3.601,3.601,3.601s3.601-1.612,3.601-3.601
	S19.49,19.098,17.502,19.098z M17.502,24.784c-1.152,0-2.086-0.934-2.086-2.086s0.934-2.086,2.086-2.086s2.086,0.934,2.086,2.086
	S18.654,24.784,17.502,24.784z"/>
<circle cx="17.502" cy="22.624" r="0.72"/>
<circle cx="76.849" cy="22.624" r="0.72"/>
<rect x="18.905" width="26.163" height="3.874"/>
<polygon points="17.502,0 14.175,2.93 14.175,3.874 18.458,3.874 18.458,0 "/>
<rect x="45.515" width="26.163" height="3.874"/>
<polygon points="73.081,0 76.408,2.93 76.408,3.874 72.125,3.874 72.125,0 "/>
<path d="M100,21.316l-1.152-0.968L97.07,4.271H2.104v3.477H3.57c0,0-1.366,2.459-1.615,4.768l-0.757,9.329l-1.049,0.059L0,24.138
	h13.113c-0.149-0.453-0.23-0.937-0.23-1.439c0-2.552,2.068-4.619,4.619-4.619s4.619,2.067,4.619,4.619
	c0,0.503-0.082,0.986-0.23,1.439h50.568c-0.148-0.453-0.229-0.937-0.229-1.439c0-2.552,2.068-4.619,4.619-4.619
	s4.619,2.067,4.619,4.619c0,0.503-0.082,0.986-0.23,1.439h5.303l12.24-1.37H100V21.316z M12.386,15.05
	c0,0.904-0.733,1.639-1.639,1.639H5.532c-0.905,0-1.64-0.734-1.64-1.639v-5.017c0-0.905,0.734-1.639,1.64-1.639h5.215
	c0.905,0,1.639,0.734,1.639,1.639V15.05z M80.282,8.394h7.351c0.872,0,1.583,0.681,1.635,1.54H78.648
	C78.7,9.075,79.411,8.394,80.282,8.394z M67.366,8.394h7.351c0.872,0,1.583,0.681,1.634,1.54H65.732
	C65.784,9.075,66.494,8.394,67.366,8.394z M54.288,8.394h7.675c0.871,0,1.582,0.681,1.634,1.54H52.654
	C52.706,9.075,53.417,8.394,54.288,8.394z M41.372,8.394h7.674c0.872,0,1.583,0.681,1.635,1.54H39.738
	C39.79,9.075,40.501,8.394,41.372,8.394z M28.456,8.394h7.674c0.872,0,1.583,0.681,1.635,1.54H26.822
	C26.874,9.075,27.585,8.394,28.456,8.394z M15.54,8.394h7.674c0.872,0,1.582,0.681,1.634,1.54H13.906
	C13.958,9.075,14.668,8.394,15.54,8.394z M23.214,16.688H15.54c-0.905,0-1.639-0.734-1.639-1.639v-4.521h10.951v4.521
	C24.853,15.954,24.119,16.688,23.214,16.688z M36.13,16.688h-7.674c-0.905,0-1.639-0.734-1.639-1.639v-4.521H37.77v4.521
	C37.77,15.954,37.035,16.688,36.13,16.688z M49.046,16.688h-7.674c-0.905,0-1.639-0.734-1.639-1.639v-4.521h10.952v4.521
	C50.686,15.954,49.951,16.688,49.046,16.688z M61.963,16.688h-7.675c-0.905,0-1.639-0.734-1.639-1.639v-4.521h10.952v4.521
	C63.602,15.954,62.867,16.688,61.963,16.688z M74.717,15.198h-7.351c-0.905,0-1.64-0.733-1.64-1.639v-3.03h10.63v3.03
	C76.356,14.465,75.622,15.198,74.717,15.198z M87.633,15.198h-7.351c-0.905,0-1.639-0.733-1.639-1.639v-3.03h10.629v3.03
	C89.272,14.465,88.538,15.198,87.633,15.198z"/>
</svg>
