<svg xmlns="http://www.w3.org/2000/svg" xmlns:xlink="http://www.w3.org/1999/xlink" version="1.1" id="Layer_1" x="0px" y="0px" width="77.2727272727px" height="100px" viewBox="0 0 612 792" enable-background="new 0 0 612 792" xml:space="preserve">
<polygon fill="#000000" points="108,288 306,216 504,288 504,324 306,252 108,324 "/>
<polygon fill="#000000" points="108,216 306,144 504,216 504,252 306,180 108,252 "/>
<path fill="#000000" d="M180,432c-39.765,0-72,32.234-72,72s32.235,72,72,72c39.766,0,72-32.234,72-72S219.766,432,180,432z   M180,558c-29.822,0-54-24.178-54-54s24.178-54,54-54s54,24.178,54,54S209.822,558,180,558z"/>
<path fill="#000000" d="M432,432c-39.766,0-72,32.234-72,72s32.234,72,72,72s72-32.234,72-72S471.766,432,432,432z M432,558  c-29.822,0-54-24.178-54-54s24.178-54,54-54s54,24.178,54,54S461.822,558,432,558z"/>
<path fill="#000000" d="M439.773,508.461c0.143-0.248,0.291-0.492,0.408-0.754c0.121-0.264,0.207-0.543,0.303-0.82  c0.094-0.275,0.191-0.547,0.258-0.832c0.062-0.264,0.094-0.537,0.133-0.812c0.045-0.322,0.086-0.641,0.098-0.969  c0.002-0.092,0.027-0.18,0.027-0.273c0-0.176-0.043-0.342-0.053-0.516c-0.018-0.328-0.043-0.652-0.098-0.979  c-0.049-0.289-0.121-0.566-0.195-0.846c-0.076-0.279-0.154-0.555-0.258-0.828c-0.117-0.311-0.26-0.605-0.408-0.898  c-0.08-0.154-0.127-0.316-0.215-0.469L379.42,396l18.354-31.465c2.506-4.293,1.055-9.805-3.238-12.31  c-1.879-1.095-3.982-1.393-5.973-1.068c-0.51-0.089-1.027-0.157-1.562-0.157h-36c-4.971,0-9,4.029-9,9s4.029,9,9,9h23.33l-10.5,18  H258.67l21-36H288c4.971,0,9-4.029,9-9s-4.029-9-9-9h-45c-4.971,0-9,4.029-9,9s4.029,9,9,9h15.83l-86.604,148.465  c-2.504,4.293-1.054,9.805,3.239,12.309c1.427,0.832,2.986,1.229,4.526,1.229c3.097,0,6.11-1.6,7.783-4.467L243,413.863  l55.227,94.672c0.062,0.109,0.141,0.203,0.209,0.309c0.076,0.123,0.158,0.24,0.24,0.357c0.061,0.084,0.111,0.174,0.176,0.256  c0.223,0.295,0.465,0.566,0.719,0.826c0.029,0.031,0.055,0.068,0.088,0.1c0.078,0.078,0.162,0.146,0.244,0.223  c0.08,0.074,0.166,0.143,0.25,0.215c0.227,0.193,0.459,0.381,0.703,0.551c0.096,0.066,0.195,0.127,0.295,0.191  c0.076,0.047,0.148,0.1,0.227,0.146c0.031,0.02,0.057,0.045,0.088,0.064c0.016,0.008,0.029,0.014,0.043,0.021  c0.246,0.143,0.504,0.26,0.76,0.377c0.029,0.014,0.057,0.031,0.088,0.043c0.059,0.027,0.115,0.062,0.176,0.088  c0.02,0.01,0.041,0.018,0.061,0.025c0.189,0.078,0.389,0.133,0.584,0.197c0.18,0.061,0.359,0.133,0.543,0.182  c0.035,0.008,0.074,0.012,0.109,0.021c0.064,0.016,0.129,0.023,0.195,0.037c0.117,0.027,0.234,0.049,0.352,0.07  c0.539,0.1,1.078,0.166,1.617,0.166c0.002,0,0.004,0,0.008,0s0.006,0,0.008,0c0.012,0,0.021-0.002,0.031-0.002h125.938  c0.012,0,0.021,0.002,0.031,0.002c0.539,0,1.078-0.066,1.615-0.166c0.119-0.021,0.236-0.043,0.354-0.07  c0.504-0.113,1.004-0.258,1.492-0.463c0.061-0.025,0.113-0.059,0.172-0.084c0.303-0.135,0.604-0.275,0.895-0.445  c0.08-0.047,0.143-0.111,0.221-0.16c0.279-0.176,0.535-0.373,0.793-0.576c0.215-0.17,0.434-0.334,0.631-0.521  c0.213-0.201,0.398-0.424,0.592-0.645c0.189-0.221,0.385-0.436,0.553-0.672C439.492,508.965,439.629,508.713,439.773,508.461z   M416.33,495h-94.66L369,413.861L416.33,495z M306,486.137L258.67,405h94.66L306,486.137z"/>
</svg>