<?xml version="1.0" encoding="utf-8"?>
<!-- Generator: Adobe Illustrator 15.1.0, SVG Export Plug-In . SVG Version: 6.00 Build 0)  -->
<!DOCTYPE svg PUBLIC "-//W3C//DTD SVG 1.1//EN" "http://www.w3.org/Graphics/SVG/1.1/DTD/svg11.dtd">
<svg version="1.1" id="Layer_1" xmlns="http://www.w3.org/2000/svg" xmlns:xlink="http://www.w3.org/1999/xlink" x="0px" y="0px"
	 width="100px" height="80px" viewBox="0 0 100 80" enable-background="new 0 0 100 80" xml:space="preserve">
<path d="M89,12H71.88L63.572,0H50H36.428L28.12,12H11C4.925,12,0,16.925,0,23v46c0,6.075,4.925,11,11,11h78c6.075,0,11-4.925,11-11
	V23C100,16.925,95.075,12,89,12z M44,24h-4v-8h4V24z M52,24h-4v-8h4V24z M60,24h-4v-8h4V24z M35.418,12l4.154-6H50h10.428l4.154,6
	H35.418z"/>
</svg>
