<svg xmlns="http://www.w3.org/2000/svg" xmlns:xlink="http://www.w3.org/1999/xlink" version="1.1" id="Layer_1" x="0px" y="0px" width="91.852px" height="100px" viewBox="0 0 91.852 100" enable-background="new 0 0 91.852 100" xml:space="preserve">
<path fill="#000000" d="M54.094,77.23H43.678c-0.588,0-1.066,0.477-1.066,1.067c0,0.586,0.478,1.063,1.066,1.063h10.416  c0.59,0,1.066-0.478,1.066-1.063C55.16,77.707,54.683,77.23,54.094,77.23z"/>
<path fill="#000000" d="M37.299,77.23H12.666c-0.589,0-1.066,0.477-1.066,1.067c0,0.586,0.477,1.063,1.066,1.063h24.633  c0.587,0,1.064-0.478,1.064-1.063C38.363,77.707,37.886,77.23,37.299,77.23z"/>
<path fill="#000000" d="M73.205,61.405c0,0.589,0.478,1.066,1.066,1.066h7.154c0.591,0,1.067-0.478,1.067-1.066  c0-0.587-0.477-1.065-1.067-1.065h-7.154C73.682,60.34,73.205,60.818,73.205,61.405z"/>
<path fill="#000000" d="M71.058,77.23H60.642c-0.589,0-1.066,0.477-1.066,1.067c0,0.586,0.478,1.063,1.066,1.063h10.416  c0.589,0,1.064-0.478,1.064-1.063C72.123,77.707,71.647,77.23,71.058,77.23z"/>
<path fill="#000000" d="M85.905,71.568h-6.912c-0.588,0-1.065,0.476-1.065,1.065c0,0.589,0.478,1.065,1.065,1.065h6.912  c0.587,0,1.065-0.477,1.065-1.065C86.97,72.044,86.492,71.568,85.905,71.568z"/>
<g>
	<path fill="#000000" d="M90.622,65.778H67.724c0.539-1.926,1.313-4.126,2.43-6.338c3.186-6.322,10.441-12.741,10.441-12.741   l-0.132-6.451L33.427,73.699h40.345c0.588,0,1.065-0.477,1.065-1.065c0-0.59-0.478-1.065-1.065-1.065h-7.184   c0.066-0.633,0.231-1.948,0.607-3.658h23.426c0.586,0,1.062-0.478,1.062-1.067C91.684,66.255,91.208,65.778,90.622,65.778z"/>
	<path fill="#000000" d="M70.344,45.113c-0.472,0.064-0.955,0.096-1.445,0.072c-2.08-0.102-3.53-2.396-3.53-2.396l-19.297,12.82   l-5.955-8.865l4.251-2.745l-1.494-2.313l-12.976,8.413l-5.954-8.594l-2.139,1.481l5.909,8.53l-5.87,3.808l-9.957-14.452   l-2.142,1.476l9.915,14.391L6.734,65.12l1.592,2.522l4.414-2.861l4.399,6.787H1.065c-0.588,0-1.066,0.476-1.066,1.065   c0,0.589,0.478,1.065,1.066,1.065h28.876L70.344,45.113z M33.991,53.403l5.774,8.562l-4.268,2.877l-5.774-8.561L33.991,53.403z    M27.365,57.751l5.774,8.56l-4.01,2.704l-5.774-8.56L27.365,57.751z"/>
</g>
</svg>