<svg xmlns:dc="http://purl.org/dc/elements/1.1/" xmlns:cc="http://creativecommons.org/ns#" xmlns:rdf="http://www.w3.org/1999/02/22-rdf-syntax-ns#" xmlns:svg="http://www.w3.org/2000/svg" xmlns="http://www.w3.org/2000/svg" version="1.1" width="51.2px" height="100px" id="svg2985" xml:space="preserve"><metadata id="metadata2991"><rdf:RDF><cc:Work rdf:about=""><dc:format>image/svg+xml</dc:format><dc:type rdf:resource="http://purl.org/dc/dcmitype/StillImage"/><dc:title/></cc:Work></rdf:RDF></metadata><defs id="defs2989"><clipPath id="clipPath2999"><path d="m 0,100 51.977,0 0,-100 L 0,0 0,100 z" id="path3001"/></clipPath></defs><g transform="matrix(1.25,0,0,-1.25,0,125)" id="g2993"><g id="g2995"><g clip-path="url(#clipPath2999)" id="g2997"><path d="m 39.723,67.922 -2.695,0 0,5.401 2.695,0 0,-5.401 z m 0,-6.557 -2.695,0 0,5.402 2.695,0 0,-5.402 z m -3.301,6.557 -2.695,0 0,5.401 2.695,0 0,-5.401 z m 0,-6.557 -2.695,0 0,5.402 2.695,0 0,-5.402 z m -3.302,6.557 -2.693,0 0,5.401 2.693,0 0,-5.401 z m 0,-6.557 -2.693,0 0,5.402 2.693,0 0,-5.402 z M 28.708,39.799 c -0.524,0 -0.95,0.426 -0.95,0.949 0,0.524 0.426,0.949 0.95,0.949 0.523,0 0.947,-0.425 0.947,-0.949 0,-0.523 -0.424,-0.949 -0.947,-0.949 m -7.155,28.123 -2.695,0 0,5.401 2.695,0 0,-5.401 z m 0,-6.557 -2.695,0 0,5.402 2.695,0 0,-5.402 z m -3.301,6.557 -2.695,0 0,5.401 2.695,0 0,-5.401 z m 0,-6.557 -2.695,0 0,5.402 2.695,0 0,-5.402 z m -3.301,6.557 -2.695,0 0,5.401 2.695,0 0,-5.401 z m 0,-6.557 -2.695,0 0,5.402 2.695,0 0,-5.402 z m 13.407,-15.049 -0.6,0 0,4.426 0.6,0 0,-4.426 z m -17.736,39.769 30.734,0 0,-4.089 -30.734,0 0,4.089 z m 12.932,11.554 4.871,0 0,-5.112 -4.871,0 0,5.112 z m 28.415,-94.942 -2.617,0.964 0,77.18 1.807,0 0,6.399 -1.807,0 0,2.397 -2.598,0 0,1.692 -17.101,0 0,1.198 -0.629,0 0,5.112 0.219,0 0.638,0 0,0.599 -0.838,0 C 28.551,99.27 27.374,100 25.989,100 c -1.385,0 -2.564,-0.73 -3.054,-1.762 l -0.838,0 0,-0.599 0.638,0 0.22,0 0,-5.112 -0.63,0 0,-1.198 -17.102,0 0,-1.692 -2.598,0 0,-2.397 -1.768,0 0,-6.399 1.769,0 0,-77.18 L 0.007,2.697 0,2.697 0,0 l 51.977,0 0,2.697 -0.008,0 z" id="path3003" style="fill:#231f20;fill-opacity:1;fill-rule:nonzero;stroke:none"/></g></g></g></svg>