<svg xmlns="http://www.w3.org/2000/svg" xmlns:xlink="http://www.w3.org/1999/xlink" version="1.1" id="Layer_1" x="0px" y="0px" width="100px" height="100px" viewBox="0 0 100 100" enable-background="new 0 0 100 100" xml:space="preserve">
<g>
	<path fill="none" d="M36.934,91.571h-1.605c-0.065,0-0.118,0.053-0.118,0.118c0,0.064,0.053,0.118,0.118,0.118h1.605   c0.065,0,0.118-0.054,0.118-0.118C37.052,91.624,36.999,91.571,36.934,91.571z"/>
	<path fill="none" d="M42.648,9.609h14.784c0.198,0,0.358-0.16,0.358-0.357c0-0.197-0.16-0.357-0.358-0.357H42.648   c-0.198,0-0.358,0.16-0.358,0.357C42.29,9.449,42.45,9.609,42.648,9.609z"/>
	<path fill="none" d="M36.934,92.117h-1.605c-0.065,0-0.118,0.052-0.118,0.117s0.053,0.117,0.118,0.117h1.605   c0.065,0,0.118-0.052,0.118-0.117S36.999,92.117,36.934,92.117z"/>
	<circle fill="none" cx="60.771" cy="9.213" r="0.358"/>
	<circle fill="none" cx="62.46" cy="9.213" r="0.444"/>
	<circle fill="none" cx="65.57" cy="9.213" r="0.699"/>
	<rect x="29.49" y="14.284" fill="none" width="41.61" height="72.52"/>
	<path fill="none" d="M64.954,91.174h-0.952v-0.292l-1.2,0.419l1.2,0.42v-0.312h0.952c0.287,0,0.521,0.233,0.521,0.521   c0,0.287-0.234,0.52-0.521,0.52h-1.807v0.235h1.807c0.418,0,0.757-0.34,0.757-0.755C65.711,91.513,65.372,91.174,64.954,91.174z"/>
	<path fill="none" d="M54.317,90.529h-4.039h-0.294h-4.038c-1.312,0-1.312,0.866-1.312,1.193c0,0.467,0.383,1.841,1.614,2.139   c0.918,0.222,2.816,0.248,3.641,0.248c0.097,0,0.178-0.001,0.243-0.001c0.063,0,0.145,0.001,0.242,0.001   c0.825,0,2.722-0.026,3.64-0.248c1.231-0.298,1.614-1.672,1.614-2.139C55.629,91.396,55.629,90.529,54.317,90.529z M53.902,93.397   c-0.896,0.217-2.885,0.236-3.627,0.234V93.63c-0.003,0-0.056,0.001-0.145,0.002c-0.087-0.001-0.138-0.002-0.142-0.002v0.002   c-0.742,0.002-2.73-0.018-3.627-0.234c-0.942-0.229-1.25-1.323-1.25-1.675c0-0.353,0-0.717,0.835-0.717h4.038h0.294h4.039   c0.835,0,0.835,0.364,0.835,0.717C55.152,92.074,54.844,93.169,53.902,93.397z"/>
	<path fill="none" d="M37.383,90.978h-2.479c-0.124,0-0.224,0.1-0.224,0.224v1.3h0.236v-1.288h2.455v1.288h0.235v-1.3   C37.606,91.077,37.506,90.978,37.383,90.978z"/>
	<g>
		<path d="M54.317,91.006h-4.039h-0.294h-4.038c-0.835,0-0.835,0.364-0.835,0.717c0,0.352,0.308,1.446,1.25,1.675    c0.896,0.217,2.885,0.236,3.627,0.234V93.63c0.004,0,0.055,0.001,0.142,0.002c0.089-0.001,0.142-0.002,0.145-0.002v0.002    c0.742,0.002,2.73-0.018,3.627-0.234c0.941-0.229,1.25-1.323,1.25-1.675C55.152,91.37,55.152,91.006,54.317,91.006z"/>
		<path d="M70.946,7.551c-1.293-1.073-2.902-1.567-4.307-1.909c-2.734-0.665-13.253-0.966-16.071-0.966h-0.293    c-2.818,0-13.337,0.301-16.07,0.966c-1.404,0.342-3.015,0.836-4.307,1.909c-1.562,1.297-2.354,3.207-2.354,5.676v74.72    c0,5.034,4.031,6.481,5.764,6.871c1.911,0.43,6.388,1.435,16.93,1.435h0.367c10.543,0,15.019-1.005,16.931-1.435    c1.732-0.39,5.764-1.837,5.764-6.871v-74.72C73.3,10.758,72.508,8.848,70.946,7.551z M65.57,8.514    c0.386,0,0.698,0.313,0.698,0.699c0,0.386-0.312,0.699-0.698,0.699s-0.699-0.313-0.699-0.699    C64.871,8.827,65.185,8.514,65.57,8.514z M62.46,8.769c0.246,0,0.444,0.199,0.444,0.444s-0.198,0.443-0.444,0.443    c-0.244,0-0.443-0.198-0.443-0.443S62.216,8.769,62.46,8.769z M60.771,8.855c0.198,0,0.358,0.16,0.358,0.357    s-0.16,0.358-0.358,0.358c-0.197,0-0.357-0.16-0.357-0.358S60.573,8.855,60.771,8.855z M42.648,8.894h14.784    c0.198,0,0.358,0.16,0.358,0.357c0,0.198-0.16,0.357-0.358,0.357H42.648c-0.198,0-0.358-0.16-0.358-0.357    C42.29,9.054,42.45,8.894,42.648,8.894z M36.934,92.352h-1.605c-0.065,0-0.118-0.052-0.118-0.117s0.053-0.117,0.118-0.117h1.605    c0.065,0,0.118,0.052,0.118,0.117S36.999,92.352,36.934,92.352z M36.934,91.808h-1.605c-0.065,0-0.118-0.054-0.118-0.118    c0-0.065,0.053-0.118,0.118-0.118h1.605c0.065,0,0.118,0.053,0.118,0.118C37.052,91.754,36.999,91.808,36.934,91.808z     M37.606,92.501h-0.235v-1.288h-2.455v1.288H34.68v-1.3c0-0.124,0.101-0.224,0.224-0.224h2.479c0.123,0,0.224,0.1,0.224,0.224    V92.501z M54.015,93.861c-0.918,0.222-2.815,0.248-3.64,0.248c-0.098,0-0.179-0.001-0.242-0.001c-0.064,0-0.146,0.001-0.243,0.001    c-0.824,0-2.722-0.026-3.641-0.248c-1.231-0.298-1.614-1.672-1.614-2.139c0-0.327,0-1.193,1.312-1.193h4.038h0.294h4.039    c1.312,0,1.312,0.866,1.312,1.193C55.629,92.189,55.246,93.563,54.015,93.861z M64.954,92.686h-1.807V92.45h1.807    c0.287,0,0.521-0.232,0.521-0.52c0-0.288-0.234-0.521-0.521-0.521h-0.952v0.312l-1.2-0.42l1.2-0.419v0.292h0.952    c0.418,0,0.757,0.339,0.757,0.757C65.711,92.346,65.372,92.686,64.954,92.686z M71.101,86.804H29.49v-72.52h41.61V86.804z"/>
	</g>
</g>
</svg>