<svg xmlns="http://www.w3.org/2000/svg" xmlns:xlink="http://www.w3.org/1999/xlink" version="1.1" id="Layer_1" x="0px" y="0px" width="100px" height="100px" viewBox="0 0 100 100" enable-background="new 0 0 100 100" xml:space="preserve">
<path d="M50.159,12.405c-0.034,0-0.073,0.001-0.104,0.001c-0.033,0-0.072-0.001-0.105-0.001  c-7.735-0.041-29.039,2.936-28.976,10.856c0,0,0.355,25.359,7.273,45.727c3.053,8.98,14.477,16.509,17.638,18.889  c1.905,1.435,6.571,1.355,8.338,0c3.538-2.715,14.585-9.908,17.639-18.889c6.918-20.368,7.271-45.727,7.271-45.727  C79.197,15.341,57.895,12.365,50.159,12.405z M31.665,42.875c-0.405-1.169-1.98-4.568,2.711-3.789  c3.446,0.573,9.688,1.993,9.688,3.233c0,1.238-2.831,3.093-6.324,3.093C34.249,45.413,32.369,44.914,31.665,42.875z M50.363,69.32  c-0.104,0-0.205-0.007-0.308-0.009c-0.104,0.002-0.206,0.009-0.311,0.009c-10.047,0-10.445-6.422-10.458-7.072  c0.018,0.561,0.493,4.731,10.319,4.731c0.151,0,0.3-0.003,0.45-0.004c0.148,0.001,0.296,0.004,0.45,0.004  c9.826,0,10.3-4.171,10.32-4.731C60.809,62.898,60.411,69.32,50.363,69.32z M68.442,42.875c-0.704,2.039-2.583,2.537-6.075,2.538  c-3.493-0.001-6.323-1.855-6.323-3.095c0-1.238,6.24-2.659,9.688-3.232C70.424,38.308,68.847,41.707,68.442,42.875z"/>
</svg>