<svg xmlns="http://www.w3.org/2000/svg" xmlns:xlink="http://www.w3.org/1999/xlink" version="1.1" id="Layer_1" x="0px" y="0px" width="51.652892562px" height="100px" viewBox="0 0 125.666 242" enable-background="new 0 0 125.666 242" xml:space="preserve">
<circle cx="59.079" cy="14.21" r="5.818"/>
<path d="M62.101,19.064l0.251,0.755c0,0,1.637,1.132-0.043,1.594c0,0-0.166,1.258,0.462,1.679c0,0,1.551,0.251,1.677,0.88  c0.128,0.63,0.168,1.847,0.168,1.847l26.511,13.716l-1.594,6.879c0,0-1.929,0-1.886,1.133c0.041,1.132,0.462,20.637,0.462,20.637  l0.434,24.544l-57.461,0.1l0.008-5.327l0.055-38.716c0,0-0.498-1.783-2.019-1.683c0,0-1.777-6.288-1.189-6.581  c0.586-0.293,25.796-14.576,25.796-14.576l-0.104-1.866c0,0,1.175-0.713,1.72-0.776c0.545-0.064,0.606-1.741,0.606-1.741  s-1.845-0.525,0.168-1.741l-0.051-0.797C56.071,19.022,58.744,19.651,62.101,19.064 M32.918,46.512l-0.236,21.147l15.046-2.665  l-0.119-21.622L32.918,46.512z M49.101,43.321L48.986,64.59l21.448-0.007V42.974L49.101,43.321z M71.832,43.081l0.177,21.66  l14.4,2.518l-0.234-21.192L71.832,43.081z"/>
<path d="M10.126,227.481c0,0,49.874,25.019,103.568,0.056L91.821,87.879c0,0-28.147,4.571-63.979-0.022L10.126,227.481z"/>
<polyline points="58.875,61.62 57.663,65.186 61.933,65.242 60.696,61.449 "/>
<path d="M64.151,48.726c0,0,1.3,2.788,1.3,6.818c0,4.031-1.3,7.275-1.3,7.275c-4.851,0.704-8.612,0-8.612,0  s-1.583-2.917-1.583-7.275c0-4.358,1.583-6.818,1.583-6.818C60.624,48.045,64.151,48.726,64.151,48.726z M63.022,55.655  c0,3.521,0.294,6.374,0.656,6.374c0.361,0,1.421-2.768,1.421-6.288c0-3.519-1.06-6.458-1.421-6.458  C63.316,49.282,63.022,52.136,63.022,55.655z"/>
</svg>