<svg xmlns="http://www.w3.org/2000/svg" xmlns:xlink="http://www.w3.org/1999/xlink" version="1.1" id="Layer_1" x="0px" y="0px" width="100px" height="100px" viewBox="0 0 100 100" enable-background="new 0 0 100 100" xml:space="preserve">
<path d="M82.359,9.188C79.03,7.192,75.585,5.51,72.022,4.145c-3.563-1.366-7.207-2.397-10.936-3.097C57.354,0.35,53.66,0,49.998,0  c-3.661,0-7.356,0.35-11.086,1.048c-3.727,0.7-7.375,1.731-10.938,3.097c-3.561,1.366-7.007,3.047-10.337,5.043  c-3.33,1.998-6.426,4.329-9.289,6.994l1.798,1.998c3.194-2.532,6.358-4.581,9.487-6.143c3.132-1.567,6.31-2.782,9.54-3.647  c3.23-0.865,6.56-1.447,9.989-1.748c3.43-0.301,7.042-0.45,10.836-0.45c3.797,0,7.407,0.149,10.838,0.45  c3.428,0.301,6.758,0.882,9.989,1.748c3.229,0.866,6.406,2.081,9.54,3.647c3.127,1.562,6.291,3.61,9.488,6.143l1.799-1.998  C88.786,13.517,85.689,11.186,82.359,9.188"/>
<path d="M68.017,40.268H49.998H31.982c-2.378,0-4.096,1.93-3.835,4.307l2.26,20.631c0.262,2.377,2.057,4.307,4.009,4.307h15.583  h15.584c1.951,0,3.746-1.93,4.01-4.307l2.258-20.631C72.11,42.198,70.393,40.268,68.017,40.268"/>
<path d="M79.25,24.245c-0.478-1.376-1.771-2.299-3.226-2.299H59.887l-4.651-7.229l2.731-2.78c0.736-0.747,0.727-1.947-0.021-2.683  c-0.751-0.733-1.951-0.725-2.685,0.024l-3.793,3.858c-0.622,0.632-0.724,1.613-0.243,2.356l4.148,6.453H44.623l4.149-6.453  c0.479-0.744,0.378-1.724-0.244-2.356l-3.794-3.858c-0.733-0.747-1.934-0.757-2.681-0.024c-0.749,0.735-0.759,1.936-0.023,2.683  l2.731,2.78l-4.648,7.229h-16.14c-1.456,0-2.75,0.923-3.227,2.299L16.04,37.844c-0.125,0.36-0.188,0.737-0.188,1.118v54.237  c0,1.143,0.571,2.211,1.524,2.844c2.005,1.331,4.173,2.55,6.447,3.623c1.056,0.501,2.295,0.423,3.286-0.202  c0.989-0.626,1.587-1.714,1.587-2.884h42.606v0.007c0,1.17,0.599,2.258,1.586,2.885c0.555,0.352,1.189,0.529,1.829,0.529  c0.496,0,0.993-0.108,1.46-0.328c2.248-1.064,4.418-2.285,6.443-3.63c0.953-0.633,1.527-1.701,1.527-2.844V38.961  c0-0.38-0.063-0.757-0.188-1.118L79.25,24.245z M80.73,45.291h-3.414h-1.525c-0.791,0-1.521,1.929-1.626,4.307l-0.916,20.631  c-0.104,2.376,0.592,4.305,1.556,4.305h2.512h3.414v18.665c-1.876,1.244-3.885,2.38-6.014,3.388V91.44L70.931,80.5H29.068  l-3.786,10.94v5.139c-2.128-1.006-4.139-2.137-6.016-3.381V74.533h3.415h2.512c0.965,0,1.661-1.929,1.555-4.305l-0.916-20.631  c-0.105-2.378-0.835-4.307-1.626-4.307h-1.524h-3.415v-6.33l4.708-13.602h52.051l4.706,13.602V45.291z"/>
</svg>