<svg xmlns="http://www.w3.org/2000/svg" xmlns:xlink="http://www.w3.org/1999/xlink" version="1.1" id="Layer_1" x="0px" y="0px" width="100px" height="100px" viewBox="0 0 100 100" enable-background="new 0 0 100 100" xml:space="preserve">
<path d="M32.063,78.226c-2.024,0-3.661,1.64-3.661,3.664c0,2.021,1.636,3.66,3.661,3.66c2.023,0,3.66-1.64,3.66-3.66  C35.722,79.865,34.086,78.226,32.063,78.226"/>
<path d="M23.109,79.005c-1.593,0-2.881,1.292-2.881,2.881c0,1.593,1.289,2.882,2.881,2.882c1.589,0,2.877-1.289,2.877-2.882  C25.986,80.297,24.698,79.005,23.109,79.005"/>
<path d="M67.938,85.55c2.024,0,3.665-1.64,3.665-3.664c0-2.021-1.641-3.66-3.665-3.66c-2.02,0-3.66,1.64-3.66,3.66  C64.277,83.91,65.918,85.55,67.938,85.55"/>
<path d="M76.896,84.768c1.589,0,2.881-1.289,2.881-2.878c0-1.593-1.292-2.885-2.881-2.885c-1.594,0-2.881,1.292-2.881,2.885  C74.015,83.479,75.302,84.768,76.896,84.768"/>
<path d="M96.306,16.556c-0.682-2.45-2.797-4.162-5.133-4.162c-0.208,0-0.411,0.03-0.614,0.058c-0.044-0.325-0.079-0.65-0.126-0.975  c-0.207-1.535-1.397-2.755-2.929-2.999c-1.3-0.207-2.606-0.403-3.906-0.591C77.987,3.952,64.826,0,50,0h-0.122h-0.109  C34.948,0,21.782,3.952,16.175,7.887c-1.308,0.188-2.618,0.386-3.911,0.591c-1.531,0.244-2.721,1.464-2.928,2.999  c-0.043,0.317-0.078,0.634-0.121,0.953c-0.129-0.01-0.255-0.036-0.388-0.036c-2.337,0-4.447,1.712-5.133,4.162  c-2.149,7.688-3.229,15.665-3.209,23.715c0.003,3.308,2.411,6.001,5.367,6.001h0.07c0.349-0.004,0.701-0.016,1.05-0.02  c-0.02,13.605,1.01,27.221,3.108,40.734c0.227,1.473,1.362,2.643,2.83,2.918c1.061,0.195,2.125,0.376,3.187,0.556v6.26  c0,1.813,1.468,3.28,3.281,3.28h5.743c1.809,0,3.281-1.467,3.281-3.28v-4.553c7.172,0.775,14.355,1.179,21.484,1.179  c7.204,0,14.461-0.411,21.716-1.203v4.577c0,1.813,1.468,3.28,3.28,3.28h5.738c1.813,0,3.282-1.467,3.282-3.28v-6.299  c0.986-0.169,1.972-0.333,2.956-0.517c1.468-0.275,2.602-1.445,2.829-2.918c2.1-13.514,3.129-27.129,3.108-40.738  c0.427,0.008,0.857,0.02,1.28,0.023h0.07c2.956,0,5.364-2.693,5.367-6.001C99.535,32.221,98.455,24.243,96.306,16.556 M12.82,11.95  c1.578-0.253,3.16-0.487,4.741-0.709c4.205-3.452,17.131-7.726,32.208-7.726h0.117H50c15.072,0,28.007,4.273,32.207,7.726  c1.582,0.222,3.164,0.456,4.745,0.709c0.071,0.524,0.129,1.053,0.2,1.579c-0.627,0.222-1.246,0.448-1.872,0.664  c-0.959,0.341-1.761,0.93-2.372,1.67c-9.595-3.709-20.902-5.859-33.022-5.859c-12.05,0-23.289,2.126-32.849,5.795  c-0.604-0.709-1.386-1.276-2.318-1.605c-0.701-0.242-1.394-0.495-2.09-0.744C12.695,12.95,12.75,12.451,12.82,11.95 M16.978,24.2  h66.043l0.415,2.606c-0.09,0.02-0.18,0.029-0.273,0.029H16.837c-0.093,0-0.184-0.01-0.274-0.029L16.978,24.2z M10.362,42.674  c-1.488,0.043-2.979,0.066-4.486,0.082H5.853C4.979,42.756,4,41.69,4,40.262c-0.016-7.726,1.018-15.385,3.081-22.76  c0.263-0.937,0.979-1.593,1.747-1.593c0.157,0,0.313,0.03,0.477,0.091c1.421,0.519,2.843,1.023,4.256,1.509  c0.959,0.341,1.496,1.397,1.217,2.404c-1.848,6.71-2.76,13.672-2.705,20.698C12.081,41.715,11.305,42.643,10.362,42.674   M86.217,86.446c-12.113,2.256-24.223,3.384-36.331,3.384c-12.112,0-24.221-1.128-36.333-3.384  c-0.795-5.132-1.429-10.263-1.918-15.396h6.636c1.667,0,3.762-1.064,4.419-2.624c1.472-3.495-1.312-8.632-2.888-11.627  c-2.071-3.926-4.452-7.705-6.28-11.753c1.061-0.855,1.793-2.122,2-3.578c6.91,15.915,20.984,29.582,34.615,29.582  c16.474,0,33.166-7.066,38.733-9.653C88.393,69.746,87.512,78.097,86.217,86.446 M94.147,42.756h-0.019  c-1.512-0.016-3.004-0.039-4.492-0.082c-0.942-0.031-1.714-0.959-1.709-2.063c0.055-7.026-0.858-13.988-2.706-20.698  c-0.274-1.007,0.259-2.063,1.218-2.404c1.413-0.485,2.838-0.99,4.26-1.509c0.16-0.061,0.316-0.091,0.474-0.091  c0.768,0,1.488,0.656,1.746,1.593c2.063,7.375,3.101,15.034,3.08,22.76C95.999,41.69,95.021,42.756,94.147,42.756"/>
</svg>