<svg xmlns="http://www.w3.org/2000/svg" xmlns:xlink="http://www.w3.org/1999/xlink" version="1.1" id="Layer_1" x="0px" y="0px" width="100px" height="100px" viewBox="0 0 100 100" enable-background="new 0 0 100 100" xml:space="preserve">
<path d="M41.794,59.997h1.307c-0.463,0.153-0.895,0.38-1.281,0.663C41.353,60.66,41.353,59.997,41.794,59.997z M50.657,62.628  c0-2.517,2.041-4.557,4.557-4.557c0.688,0,1.34,0.151,1.922,0.425c0.748,0.763,1.514,1.562,2.297,2.403  c0.217,0.533,0.338,1.117,0.338,1.729c0,2.517-2.041,4.557-4.557,4.557S50.657,65.145,50.657,62.628z M74.817,45.457h1.746v-6.021  c7,0,12.672,3.216,12.672,7.184c0,0.061-0.002,0.122-0.004,0.184H76.563l-3.811-0.002c0.174-0.065,0.34-0.133,0.496-0.203  C73.944,46.287,74.456,45.899,74.817,45.457z M67.663,67.723c-0.031-0.157-0.059-0.314-0.086-0.473l-2.621,0.201  c0.258-0.276,0.51-0.565,0.766-0.866l0.305,0.467c1.178-0.581,2.195-1.051,3.105-2.033c0.59-0.845,0.318-1.256-0.158-2.144  c-0.455-0.688-0.748-1.232-1.252-1.724c0.17-0.78,0.396-1.54,0.674-2.276c-0.771,0.143-1.58,0.217-2.416,0.217  c-0.119,0-0.234-0.001-0.352-0.004c-1.973-2.438-3.385-4.576-4.768-6.418c-0.891-1.189-1.781-2.274-2.805-3.245  c0.348-0.386,0.754-0.745,1.213-1.07c3.662-0.07,8.541-0.31,11.846-1.076l0.08,0.213c1.752,0.812,3.078,2.021,3.699,3.438  c2.486-1.569,5.432-2.477,8.59-2.477c8.908,0,16.127,7.219,16.127,16.125c0,8.907-7.219,16.127-16.127,16.127  c-6.32,0-11.791-3.636-14.436-8.93l-26.256-1.047c-1.438-0.106-2.686-1.081-3.305-2.366c-1.35-2.949-4.785-10.36-4.785-10.36  c-0.17-0.446-0.238-0.926-0.238-1.344c0-1.842,1.252-3.322,2.875-4.056l0.82,1.812c-1.109,0.501-1.705,1.38-1.705,2.243  c0,0.23,0.029,0.418,0.084,0.577c0.262,0.564,3.445,7.435,4.748,10.272c0.295,0.613,0.883,1.163,1.584,1.233l13.75-0.564  c-0.605,0.729-0.943,1.545-0.223,2.146c1.064,0.887,4.072-0.133,5.139-0.499c1.266-0.433,2.193-1.129,3.039-1.976L67.663,67.723z   M75.149,53.813c-0.162,0.652-0.469,1.269-0.895,1.834l0.482,1.291l0.525,1.396l-0.473,0.179l1.867,4.98  c0.176,0.471,0.02,0.861-0.271,1.102l1.783-0.132c0.061-2.883,2.416-5.201,5.314-5.201c2.938,0,5.316,2.381,5.316,5.316  c0,2.937-2.379,5.318-5.316,5.318c-2.283,0-4.23-1.44-4.984-3.464c-1.82,0.135-3.959,0.292-6.105,0.452l-2.297,0.173  c0.033,0.188,0.072,0.374,0.113,0.559l8.166-0.335v4.865l-6.377-0.255c2.418,3.788,6.658,6.301,11.484,6.301  c7.52,0,13.615-6.095,13.615-13.614c0-7.519-6.096-13.612-13.615-13.612C80.345,50.967,77.452,52.029,75.149,53.813z M71.827,57.681  l-0.121,0.065c-1.168,2.01-1.836,4.343-1.836,6.833c0,0.168,0.004,0.334,0.01,0.499l2.365-0.176l2.918-0.217  c-0.152-0.107-0.285-0.269-0.369-0.495l-1.867-4.979l-0.459,0.173l-0.525-1.397L71.827,57.681z M19.423,36.713l0.111-0.001  c3.443,0,6.236,1.817,6.236,4.058s-2.793,4.058-6.236,4.058l-0.111-0.001V36.713z M42.136,58.684h3.324h0.139h3.322  c0.443,0,0.443,0.662,0,0.662h-3.322H45.46h-3.324C41.694,59.346,41.694,58.684,42.136,58.684z M41.714,57.37h3.746h0.139h3.744  c0.443,0,0.443,0.662,0,0.662h-3.744H45.46h-3.746C41.272,58.032,41.272,57.37,41.714,57.37z M41.149,56.055h4.311h0.139h4.311  c0.441,0,0.441,0.665,0,0.665h-4.311H45.46h-4.311C40.708,56.72,40.708,56.055,41.149,56.055z M40.265,54.741h5.195h0.139h5.193  c0.443,0,0.443,0.664,0,0.664h-5.193H45.46h-5.195C39.823,55.405,39.823,54.741,40.265,54.741z M39.853,53.428h5.607h0.139h5.605  c0.443,0,0.443,0.663,0,0.663h-5.605H45.46h-5.607C39.409,54.091,39.409,53.428,39.853,53.428z M40.335,52.113h5.125h0.139h5.023  l0.193,0.187l0.23,0.222c-0.029,0.137-0.137,0.255-0.324,0.255h-5.123H45.46h-5.125C39.894,52.776,39.894,52.113,40.335,52.113z   M46.009,59.997h3.254c0.443,0,0.443,0.663,0,0.663h-1.971C46.905,60.377,46.474,60.15,46.009,59.997z M41.173,64.389  c0-1.868,1.514-3.383,3.381-3.383c1.869,0,3.383,1.515,3.383,3.383c0,1.867-1.514,3.381-3.383,3.381  C42.687,67.77,41.173,66.256,41.173,64.389z M50.073,51.592h-9.949v-2.308c0-0.383,0.322-0.693,0.721-0.693h6.449  C48.146,49.71,49.278,50.832,50.073,51.592z M30.12,65.108h-6.66c-0.27,3.6-3.275,6.436-6.943,6.436  c-3.846,0-6.963-3.117-6.963-6.965c0-2.881,1.748-5.354,4.242-6.412l-2.154-6.301c-5.111,1.96-8.738,6.913-8.738,12.713  c0,7.52,6.094,13.614,13.613,13.614C23.858,78.193,29.843,72.382,30.12,65.108z M23.479,64.445h6.65  c-0.045-4.597-2.367-8.648-5.895-11.079l-3.121,5.983C22.532,60.598,23.44,62.415,23.479,64.445z M12.265,51.644l2.154,6.293  c0.664-0.208,1.367-0.32,2.098-0.32c0.57,0,1.127,0.069,1.656,0.199l3.125-5.985c-1.488-0.559-3.1-0.863-4.781-0.863  C15.032,50.967,13.603,51.204,12.265,51.644z M33.794,45.293c0.439,0.248,0.898,0.104,1.186-0.205  c1.283,0.373,2.289-0.185,3.146-1.054l0.146,0.096l0.357-0.213c4.057-2.422,5.699-3.822,6.85-4.811  c4.215,0.37,7.447,0.889,9.914,1.483c-4.344,1.333-9.104,3.35-9.289,5.647c0.02,0.176,0.064,0.36,0.133,0.553l-13.764-0.007  l2.695,5.614c-0.59,0.48-1.064,1.082-1.352,1.772c-0.02-0.034-0.039-0.069-0.057-0.104l-3.502-7.298  c-1.043-0.043-1.662-0.822-1.637-1.808l-2.832,5.429c4.623,3.026,7.678,8.252,7.678,14.19c0,1.049-0.094,2.073-0.277,3.068  c-0.254-0.209-0.494-0.468-0.709-0.772c-1.115,7.819-7.836,13.831-15.965,13.831c-8.906,0-16.127-7.22-16.127-16.127  c0-6.154,3.449-11.505,8.52-14.222c-0.324-0.128-0.621-0.279-0.893-0.448c2.5-1.45,5.402-2.28,8.5-2.28  c2.24,0,4.377,0.434,6.334,1.223l4.789-9.176c0.961-1.3,3.041-0.741,3.154,0.6l0.334-0.631c0.531-1.138,2.016-1.293,6.617-1.051  l-2.25,2.396c-1.199-0.59-1.9-0.983-3.416-0.51c-0.289,0.09-0.518,0.189-0.699,0.298c-0.111-0.023-0.223-0.024-0.33-0.007  l-0.938-0.808c-0.67-0.578-1.535,0.428-0.865,1.005l0.939,0.809c-0.004,0.258,0.102,0.525,0.361,0.75l0.104,0.089  c-0.006,0.327-0.018,0.69-0.076,1.096l2.525,1.977L33.794,45.293z M54.997,14.5c-0.123,0.584-0.322,1.153-0.598,1.69  c-0.414,0.812-0.115,1.741,0.312,2.494l0.328-0.145c0.334-0.102,0.506,1.196,0.801,1.312c5.205,1.297,6.514,4.664,15.486,16.766  c1.34,1.808,6.08,7.383,1.648,9.377c-4.428,1.994-18.367,1.711-18.367,1.711c4.914,2.734,6.436,7.143,11.73,13.264  c1.455,0.783,1.891,1.98,2.064,2.245c0.57,1.064,0.453,1.041,0.213,1.387c-0.514,0.551-1.039,0.945-2.355,1.595l-0.451-0.694  c0,0-0.713,0.726-1.293,1.55c-0.582,0.824-2.279,1.832-3.195,2.147c-4.928,1.69-6.244,0.661-2.475-2.128  c0.875-0.849,1.98-1.262,2.738-3.136c0.51-1.021-0.045-1.705-0.264-1.951c-7.641-8.519-14.293-13.326-14.551-15.755  c0.152-1.89,6-4.696,14.459-6.456c-0.057-0.099-0.082-0.204-0.07-0.309c0.008-0.075,0.033-0.146,0.076-0.212  c-1.686-0.828-5.697-3.267-9.299-9.003c-3.33,4.729-3.547,5.586-5.188,7.032c-2.008,1.25-2.352,2.421-8.459,6.066l-0.248-0.163  c-0.201,0.193-0.516,0.505-0.867,0.884c-0.689,0.746-1.699,0.487-1.912,0.422c0.002-0.021,0.004-0.044,0.002-0.065  c0.012-0.265-0.09-0.542-0.359-0.773c0,0-0.605-0.528-0.891-0.677c-0.389-0.203-1.471,0.356-1.072,1.271  c0.055,0.127,0.092,0.295,0.133,0.379c0.033,0.071,0.061,0.122,0.084,0.158c0.055,0.049,0.092,0.078,0.092,0.078l-0.197,0.118  l-1.916-1.577c0,0,0.199-1.341,0.148-1.708c-0.061-0.435,1.738-1.199,2.789-0.667c0.84,0.427,1.295,0.638,1.527,0.748  c0.029-0.004,0.061-0.007,0.092-0.007c0.078,0,0.154,0.014,0.223,0.038l0.289-0.228l-0.195-0.17l7.979-8.509  c3.273-4.632,3.498-6.955,5.289-9.391c0.381-0.516,0.74-0.982,1.082-1.396l-0.537,0.238c0,0-0.551,0.179-0.83-0.447  c-0.277-0.626,0.48-0.925,0.48-0.925l0.807-0.335c-0.398-0.468-0.984-0.583-1.604-0.553l0.023-0.084  c0.055-0.196,0.119-0.51,0.188-0.87c1.01-0.251,0.986-1.792,2.494-2.52c1.545-0.747,2.139,0.231,3.297-1.483  C54.806,14.947,54.911,14.729,54.997,14.5z M44.731,11.918c-0.623-0.16-1.006-0.269-1.006-0.269  c0.561-3.295,2.688-5.893,5.896-5.774c5.25,0.193,6.143,3.092,6.215,7.181v0.06c0,0-0.184,0.019-0.502,0.041l-0.191,0.013  c-1.113,0.07-3.383,0.146-5.482-0.192c-1.297-0.209-2.609-0.493-3.67-0.746c0.732,0.392,1.842,1.261,1.52,2.832  c-0.342,1.66-0.451,3.445,0.391,3.952c-0.059,0.301-0.115,0.56-0.16,0.729l-0.139,0.506c-0.727,0.152-1.375,0.339-1.689,0.203  c-0.785-0.338-0.436-0.904-0.504-1.26c-0.125-0.655-0.453-0.465-0.502-0.633c-0.082-0.276,0.15-0.336,0.146-0.38  c-0.021-0.112-0.424-0.153-0.385-0.325c0.033-0.142,0.145-0.514,0.176-0.658c0.061-0.317-1.186-0.133-1.033-0.561  c0.111-0.308,0.643-1.442,0.83-1.82c0.287-0.583,0.158-0.769-0.111-1.122c-0.135-0.174,0.197-0.71,0.189-0.91  C44.706,12.495,44.71,12.203,44.731,11.918z"/>
</svg>