<svg xmlns="http://www.w3.org/2000/svg" xmlns:xlink="http://www.w3.org/1999/xlink" version="1.1" id="Layer_1" x="0px" y="0px" width="100px" height="100px" viewBox="0 0 100 100" enable-background="new 0 0 100 100" xml:space="preserve">
<path d="M66.688,0.857c-2.193,8.046-4.056,14.815-5.695,20.604l-13.621-5.43l-2.805,7.037l14.319,5.709  c-6.667,22.667-9.474,26.635-18.23,36.51c-5.708,6.443-8.088,1.068-10.672,1.874c-4.495,1.398-0.707,20.926-4.526,22.052  c-4.205,1.238-13.701-7.264-14.232-1.901c-0.453,4.557,4.496,7.619,12.794,10.086c6.719,1.998,21.542,2.634,28.041,0  c6.915-2.804,10.156-14.774,10.888-35.689c0.66-18.764,8.677-14.191,8.677-14.191l-2.612,49.88h6.235  c4.435-56.098,15.349-58.433,15.232-71.817C90.292,4.304,66.688,0.857,66.688,0.857z"/>
</svg>