<?xml version="1.0" encoding="utf-8"?>
<!-- Generator: Adobe Illustrator 15.1.0, SVG Export Plug-In . SVG Version: 6.00 Build 0)  -->
<!DOCTYPE svg PUBLIC "-//W3C//DTD SVG 1.1//EN" "http://www.w3.org/Graphics/SVG/1.1/DTD/svg11.dtd">
<svg version="1.1" id="Layer_1" xmlns="http://www.w3.org/2000/svg" xmlns:xlink="http://www.w3.org/1999/xlink" x="0px" y="0px"
	 width="100px" height="100px" viewBox="0 0 100 100" enable-background="new 0 0 100 100" xml:space="preserve">
<path d="M50,0C22.386,0,0,22.386,0,50s22.386,50,50,50s50-22.386,50-50S77.614,0,50,0z M74.658,11.198
	c5.683,3.625,10.519,8.459,14.143,14.143L78.556,35.586C75.47,29.5,70.499,24.529,64.413,21.444L74.658,11.198z M25.34,11.198
	l10.245,10.246c-6.086,3.085-11.057,8.056-14.143,14.143L11.197,25.341C14.821,19.658,19.657,14.823,25.34,11.198z M25.34,88.802
	c-5.683-3.624-10.519-8.46-14.143-14.143l10.245-10.245c3.086,6.086,8.057,11.057,14.143,14.143L25.34,88.802z M49.999,78
	c-15.465,0-28-12.535-28-28s12.535-28,28-28c15.466,0,28,12.535,28,28S65.465,78,49.999,78z M74.658,88.802L64.413,78.557
	c6.086-3.086,11.057-8.057,14.143-14.143l10.245,10.245C85.177,80.342,80.341,85.178,74.658,88.802z"/>
</svg>
