<svg xmlns="http://www.w3.org/2000/svg" xmlns:xlink="http://www.w3.org/1999/xlink" version="1.1" x="0px" y="0px" width="70px" height="70px" viewBox="0 0 70 70" enable-background="new 0 0 70 70" xml:space="preserve">
<g id="Livello_1" display="none">
	<g display="inline">
		<circle fill="#000000" cx="35" cy="49.948" r="6.947"/>
		<path fill="#000000" stroke="#81BC00" stroke-width="7.9392" stroke-linecap="round" stroke-miterlimit="10" d="M15.441,35.135    c4.484-5.913,11.565-9.749,19.559-9.749c7.993,0,15.075,3.836,19.558,9.748"/>
		<path fill="#000000" stroke="#81BC00" stroke-width="9.924" stroke-linecap="round" stroke-miterlimit="10" d="M64.34,27.729    C57.61,18.859,46.989,13.105,35,13.105c-11.99,0-22.611,5.754-29.339,14.623"/>
		<path fill="#000000" stroke="#81BC00" stroke-width="5.9544" stroke-linecap="round" stroke-miterlimit="10" d="M21.96,42.057    c2.99-3.943,7.71-6.498,13.04-6.498c5.329,0,10.05,2.555,13.041,6.498"/>
		<path fill="#000000" stroke="#81BC00" stroke-width="7.9392" stroke-linecap="round" stroke-miterlimit="10" d="M54.558,35.134    C50.074,29.222,42.992,25.386,35,25.386c-7.994,0-15.075,3.836-19.559,9.749"/>
		<path fill="#000000" stroke="#1D1D1B" stroke-width="7.9392" stroke-miterlimit="10" d="M35,49.948"/>
	</g>
</g>
<g id="Livello_2" display="none">
	<g display="inline">
		
			<rect x="6.75" y="15.219" fill="#000000" stroke="#81BC00" stroke-width="4" stroke-linejoin="round" stroke-miterlimit="10" width="56.5" height="35.013"/>
		
			<rect x="24.406" y="49.962" fill="#000000" stroke="#81BC00" stroke-width="2" stroke-linejoin="round" stroke-miterlimit="10" width="21.188" height="4.819"/>
		<circle fill="#000000" cx="35" cy="49.962" r="1.009"/>
		<text transform="matrix(1 0 0 1 26.0679 36.0566)" fill="#000000" font-family="'Abel-Regular'" font-size="12">LCD</text>
	</g>
</g>
<g id="Livello_3" display="none">
	<g display="inline">
		
			<rect x="18.667" y="4.917" fill="#000000" stroke="#81BC00" stroke-width="4" stroke-linejoin="round" stroke-miterlimit="10" width="32.666" height="56.5"/>
		<g>
			<path fill="#000000" d="M50.285,62.257v1.779H19.714v-1.779H50.285 M51.333,61.209H18.667v3.875h32.666V61.209L51.333,61.209z"/>
		</g>
		
			<line fill="#000000" stroke="#81BC00" stroke-width="3" stroke-linecap="round" stroke-linejoin="round" stroke-miterlimit="10" x1="23.625" y1="19.167" x2="23.625" y2="50.916"/>
	</g>
</g>
<g id="Livello_4">
	<g>
		<path fill="#000000" d="M18.32,48.139c-0.274-0.037-0.526,0.152-0.564,0.427l-0.206,1.485c-0.038,0.273,0.153,0.525,0.426,0.563    c0.023,0.003,0.046,0.005,0.069,0.005c0.246,0,0.46-0.181,0.495-0.432l0.206-1.485C18.784,48.429,18.593,48.177,18.32,48.139z"/>
		<path fill="#000000" d="M20.335,33.598c-0.272-0.039-0.526,0.153-0.564,0.426l-0.504,3.636c-0.038,0.273,0.153,0.525,0.426,0.563    c0.023,0.003,0.046,0.005,0.069,0.005c0.246,0,0.46-0.181,0.495-0.432l0.504-3.635C20.8,33.888,20.609,33.636,20.335,33.598z"/>
		<path fill="#000000" d="M19.328,40.868c-0.276-0.035-0.526,0.152-0.564,0.427L18.26,44.93c-0.038,0.273,0.153,0.525,0.426,0.563    c0.023,0.003,0.046,0.005,0.069,0.005c0.246,0,0.46-0.181,0.495-0.432l0.504-3.635C19.792,41.158,19.601,40.906,19.328,40.868z"/>
		<path fill="#000000" d="M22.351,19.059c-0.277-0.042-0.526,0.153-0.564,0.426l-0.504,3.635c-0.038,0.274,0.153,0.526,0.426,0.564    c0.023,0.003,0.046,0.005,0.069,0.005c0.246,0,0.46-0.181,0.495-0.431l0.504-3.635C22.815,19.349,22.625,19.097,22.351,19.059z"/>
		<path fill="#000000" d="M21.343,26.329c-0.274-0.043-0.526,0.153-0.564,0.426l-0.504,3.635c-0.038,0.274,0.153,0.526,0.426,0.564    c0.023,0.003,0.046,0.005,0.069,0.005c0.246,0,0.46-0.181,0.495-0.431l0.504-3.635C21.808,26.619,21.617,26.367,21.343,26.329z"/>
		<path fill="#000000" d="M25.709,15.85l-0.504-3.635c-0.007-0.047-0.027-0.088-0.045-0.129h3.833c0.552,0,1-0.448,1-1V9.914    c0-0.552-0.448-1-1-1h-4.235C24.902,8.741,25,8.525,25,8.281V3.5c0-0.316-0.149-0.613-0.402-0.802    c-0.253-0.188-0.582-0.246-0.883-0.157L7.34,7.417C6.916,7.543,6.625,7.933,6.625,8.375v56.5c0,0.553,0.448,1,1,1s1-0.447,1-1    V9.121L23,4.841v3.44c0,0.244,0.098,0.459,0.243,0.633h-4.235c-0.552,0-1,0.448-1,1v1.172c0,0.552,0.448,1,1,1h3.833    c-0.018,0.042-0.039,0.083-0.045,0.13l-0.504,3.635c-0.038,0.274,0.153,0.526,0.426,0.564c0.023,0.003,0.046,0.005,0.069,0.005    c0.246,0,0.46-0.181,0.495-0.431l0.504-3.635c0.013-0.096-0.009-0.185-0.046-0.268h0.521c-0.037,0.082-0.059,0.171-0.046,0.267    l0.504,3.635c0.035,0.25,0.249,0.431,0.495,0.431c0.023,0,0.046-0.001,0.069-0.005C25.556,16.376,25.747,16.124,25.709,15.85z"/>
		<path fill="#000000" d="M26.717,23.12l-0.504-3.635c-0.039-0.273-0.294-0.469-0.564-0.426c-0.273,0.038-0.464,0.29-0.426,0.564    l0.504,3.635c0.035,0.25,0.249,0.431,0.495,0.431c0.023,0,0.046-0.001,0.069-0.005C26.564,23.646,26.755,23.394,26.717,23.12z"/>
		<path fill="#000000" d="M28.732,37.659l-0.504-3.635c-0.038-0.273-0.293-0.466-0.564-0.426c-0.273,0.038-0.464,0.29-0.426,0.564    l0.504,3.634c0.035,0.251,0.249,0.432,0.495,0.432c0.023,0,0.046-0.002,0.069-0.005C28.58,38.185,28.771,37.933,28.732,37.659z"/>
		<path fill="#000000" d="M27.725,30.389l-0.504-3.635c-0.038-0.273-0.291-0.47-0.564-0.426c-0.273,0.038-0.464,0.29-0.426,0.564    l0.504,3.635c0.035,0.25,0.249,0.431,0.495,0.431c0.023,0,0.046-0.001,0.069-0.005C27.572,30.916,27.763,30.663,27.725,30.389z"/>
		<path fill="#000000" d="M29.74,44.929l-0.504-3.635c-0.038-0.274-0.29-0.462-0.564-0.427c-0.273,0.038-0.464,0.29-0.426,0.563    l0.504,3.635c0.035,0.251,0.249,0.432,0.495,0.432c0.023,0,0.046-0.002,0.069-0.005C29.587,45.454,29.778,45.202,29.74,44.929z"/>
		<path fill="#000000" d="M30.244,48.563c-0.038-0.274-0.292-0.464-0.564-0.427c-0.273,0.038-0.464,0.29-0.426,0.563l0.206,1.485    c0.035,0.251,0.249,0.432,0.495,0.432c0.023,0,0.046-0.002,0.069-0.005c0.273-0.038,0.464-0.29,0.426-0.563L30.244,48.563z"/>
	</g>
	<g>
		<path fill="#000000" d="M61.021,52.645H49.938c-0.276,0-0.5,0.224-0.5,0.5v4.084c0,0.071,0.017,0.14,0.047,0.201    c0.167,1.358,0.804,2.604,1.787,3.564v3.984c0,0.276,0.224,0.5,0.5,0.5h7.416c0.276,0,0.5-0.224,0.5-0.5v-3.984    c0.98-0.958,1.616-2.198,1.786-3.551c0.03-0.065,0.048-0.138,0.048-0.215v-4.084C61.521,52.868,61.298,52.645,61.021,52.645z     M60.521,53.645v1.167H50.438v-1.167H60.521z M58.688,64.479h-6.416v-2.675c1.912,1.203,4.504,1.204,6.416,0V64.479z     M60.496,57.18c-0.121,1.248-0.705,2.402-1.644,3.25c-1.858,1.676-4.892,1.676-6.746,0c-0.938-0.847-1.522-2.001-1.644-3.25    c-0.004-0.038-0.013-0.074-0.025-0.109v-1.259h10.084v1.254C60.509,57.102,60.5,57.14,60.496,57.18z"/>
		<path fill="#000000" d="M46.188,52.645H35.104c-0.276,0-0.5,0.224-0.5,0.5v4.084c0,0.071,0.017,0.14,0.046,0.201    c0.167,1.358,0.805,2.604,1.788,3.564v3.984c0,0.276,0.224,0.5,0.5,0.5h7.416c0.276,0,0.5-0.224,0.5-0.5v-3.984    c0.98-0.958,1.616-2.198,1.786-3.551c0.03-0.065,0.048-0.138,0.048-0.215v-4.084C46.688,52.868,46.464,52.645,46.188,52.645z     M43.854,64.479h-6.416v-2.675c1.912,1.203,4.504,1.204,6.416,0V64.479z M45.688,57.065c-0.013,0.036-0.021,0.074-0.025,0.114    c-0.121,1.248-0.705,2.402-1.644,3.25c-1.858,1.676-4.891,1.676-6.746,0c-0.938-0.847-1.522-2.001-1.644-3.25    c-0.003-0.038-0.012-0.074-0.025-0.109v-3.426h10.084V57.065z"/>
	</g>
</g>
<g id="Livello_5" display="none">
	<g display="inline">
		<path fill="#000000" d="M66.833,19.237H39.605c-0.679,0-1.229,0.55-1.229,1.228v10.032c0,0.176,0.042,0.343,0.115,0.494    c0.412,3.347,1.964,6.431,4.391,8.793v9.751c0,0.679,0.55,1.229,1.229,1.229h18.217c0.679,0,1.229-0.55,1.229-1.229v-9.752    c2.419-2.355,3.969-5.428,4.386-8.759c0.076-0.16,0.119-0.339,0.119-0.527V20.465C68.062,19.787,67.512,19.237,66.833,19.237z     M65.604,21.693v2.867H40.834v-2.867H65.604z M61.1,48.307H45.34v-6.569c2.348,1.477,5.07,2.271,7.88,2.271    c2.808,0,5.531-0.795,7.88-2.271V48.307z M65.543,30.378c-0.298,3.065-1.732,5.899-4.037,7.982l0,0    c-2.282,2.058-5.225,3.19-8.286,3.19c-3.064,0-6.007-1.133-8.285-3.19c-0.001-0.001-0.002-0.001-0.003-0.002    c-2.304-2.079-3.737-4.913-4.036-7.98c-0.01-0.094-0.03-0.185-0.062-0.271v-3.091h24.771v3.079    C65.574,30.185,65.553,30.28,65.543,30.378z"/>
		<path fill="#000000" d="M30.394,19.237H3.167c-0.678,0-1.228,0.55-1.228,1.228v10.032c0,0.176,0.041,0.342,0.114,0.494    c0.412,3.347,1.963,6.431,4.391,8.794v9.75c0,0.679,0.55,1.229,1.228,1.229h18.217c0.678,0,1.228-0.55,1.228-1.229v-9.751    c2.419-2.355,3.969-5.429,4.387-8.761c0.076-0.159,0.118-0.338,0.118-0.526V20.465C31.622,19.787,31.072,19.237,30.394,19.237z     M24.661,48.307H8.9v-6.57c2.348,1.477,5.072,2.271,7.881,2.271c2.807,0,5.531-0.795,7.88-2.271V48.307z M29.166,30.097    c-0.031,0.089-0.052,0.184-0.062,0.281c-0.298,3.065-1.732,5.899-4.038,7.982l0,0c-2.283,2.058-5.226,3.19-8.286,3.19    c-3.063,0-6.006-1.133-8.286-3.19c-2.306-2.08-3.739-4.915-4.038-7.982c-0.009-0.094-0.03-0.185-0.062-0.271v-8.415h24.771V30.097    z"/>
	</g>
</g>
<g id="Livello_6" display="none">
	<g display="inline">
		<path fill="#000000" d="M55.583,9.397H14.417c-0.678,0-1.228,0.55-1.228,1.228v48.75c0,0.679,0.55,1.229,1.228,1.229h41.166    c0.679,0,1.229-0.55,1.229-1.229v-48.75C56.812,9.947,56.262,9.397,55.583,9.397z M54.354,28.201H15.645v-0.718h38.709V28.201z     M15.645,29.549h32.91l-32.91,6.409V29.549z M15.645,58.146V37.33l38.709-7.537v28.354H15.645z M54.354,11.853v14.08H15.645    v-14.08H54.354z"/>
		<path fill="#000000" d="M19.25,24.125h13.5c0.552,0,1-0.448,1-1v-7.956c0-0.552-0.448-1-1-1h-13.5c-0.552,0-1,0.448-1,1v7.956    C18.25,23.677,18.698,24.125,19.25,24.125z M20.25,16.169h11.5v5.956h-11.5V16.169z"/>
		<path fill="#000000" d="M37.25,24.125h13.5c0.553,0,1-0.448,1-1v-7.956c0-0.552-0.447-1-1-1h-13.5c-0.553,0-1,0.448-1,1v7.956    C36.25,23.677,36.697,24.125,37.25,24.125z M38.25,16.169h11.5v5.956h-11.5V16.169z"/>
	</g>
</g>
<g id="Livello_7" display="none">
	<g display="inline">
		<path fill="#000000" d="M46.583,9.397H23.417c-0.678,0-1.228,0.55-1.228,1.228v48.75c0,0.679,0.55,1.229,1.228,1.229h23.166    c0.679,0,1.229-0.55,1.229-1.229v-48.75C47.812,9.947,47.262,9.397,46.583,9.397z M45.354,28.201H24.645v-0.718h20.709V28.201z     M24.645,29.549h17.894L24.645,35.75V29.549z M24.645,58.146v-20.97L45.354,30v28.146H24.645z M45.354,11.853v14.08H24.645v-14.08    H45.354z"/>
		<path fill="#000000" d="M28.25,24.125h13.5c0.553,0,1-0.448,1-1v-7.956c0-0.552-0.447-1-1-1h-13.5c-0.552,0-1,0.448-1,1v7.956    C27.25,23.677,27.698,24.125,28.25,24.125z M29.25,16.169h11.5v5.956h-11.5V16.169z"/>
	</g>
</g>
<g id="Livello_8" display="none">
	<g display="inline">
		
			<polyline fill="#000000" stroke="#81BC00" stroke-width="3.2027" stroke-linecap="round" stroke-linejoin="round" stroke-miterlimit="10" points="    60.854,21.121 60.854,27.927 26.226,27.927 26.226,21.121 60.854,21.121   "/>
		
			<rect x="39.637" y="27.927" fill="#000000" stroke="#81BC00" stroke-width="3.2027" stroke-linecap="round" stroke-linejoin="round" stroke-miterlimit="10" width="21.218" height="32.227"/>
		
			<polyline fill="#000000" stroke="#81BC00" stroke-width="3.3573" stroke-linecap="round" stroke-linejoin="round" stroke-miterlimit="10" points="    60.854,21.121 60.854,10.521 60.854,9.847 43.906,9.847   "/>
		
			<path fill="#000000" stroke="#81BC00" stroke-width="3.3573" stroke-linecap="round" stroke-linejoin="round" stroke-miterlimit="10" d="    M43.906,9.847c-3.729,2.667-4.795,7.137-4.795,10.649"/>
		
			<rect x="10.479" y="32.465" fill="#000000" stroke="#81BC00" stroke-width="3.3573" stroke-linecap="round" stroke-linejoin="round" stroke-miterlimit="10" width="12.944" height="2.668"/>
		
			<rect x="16.952" y="35.133" fill="#000000" stroke="#81BC00" stroke-width="3.3573" stroke-linecap="round" stroke-linejoin="round" stroke-miterlimit="10" width="0" height="18.149"/>
		<g>
			
				<path fill="#000000" stroke="#81BC00" stroke-width="3.3573" stroke-linecap="round" stroke-linejoin="round" stroke-miterlimit="10" d="     M25.024,60.153c0-3.057-3.554-5.537-7.938-5.537c-4.386,0-7.94,2.48-7.94,5.537"/>
		</g>
	</g>
</g>
<g id="Livello_9" display="none">
	<path display="inline" fill="#000000" d="M67.692,52.756L36.1,33.078v-4.643c0-0.607-0.492-1.1-1.1-1.1   c-1.838,0-3.391-2.351-3.391-5.132c0-2.782,1.553-5.133,3.391-5.133s3.392,2.351,3.392,5.133c0,0.607,0.492,1.1,1.1,1.1   s1.1-0.492,1.1-1.1c0-4.043-2.508-7.332-5.591-7.332c-3.083,0-5.59,3.289-5.59,7.332c0,3.549,1.933,6.518,4.49,7.189v3.686   L2.308,52.756c-0.568,0.354-0.833,1.042-0.649,1.686c0.184,0.645,0.773,1.088,1.442,1.088h40.67c0.828,0,1.5-0.672,1.5-1.5   s-0.672-1.5-1.5-1.5H8.346L35,35.928l31.106,19.375c0.247,0.153,0.521,0.227,0.792,0.227c0.5,0,0.99-0.251,1.274-0.707   C68.61,54.119,68.396,53.194,67.692,52.756z"/>
</g>
<g id="ac" display="none">
	<path display="inline" fill="#000000" d="M62.001,33.122h-7.173l3.189-2.467c0.82-0.635,0.971-1.814,0.336-2.635   c-0.635-0.821-1.816-0.972-2.635-0.336l-7.028,5.438h-9.155l6.129-6.129c3.934-0.537,8.219-1.101,8.995-1.166   c0.238,0.007,0.488-0.035,0.728-0.127c0.967-0.375,1.445-1.464,1.07-2.431c-0.541-1.393-1.601-1.262-3.514-1.026   c-0.803,0.099-1.84,0.233-2.902,0.373l5.38-5.38c0.733-0.733,0.733-1.923,0-2.656c-0.734-0.733-1.922-0.733-2.656,0l-5.201,5.202   l0.521-4.08c0.131-1.029-0.597-1.97-1.626-2.101c-1.022-0.128-1.969,0.597-2.101,1.625l-1.135,8.896l-6.344,6.343V21.69   c2.37-3.117,4.923-6.443,5.417-7.028c0.177-0.168,0.323-0.373,0.427-0.61c0.415-0.951-0.021-2.058-0.971-2.473   c-1.364-0.594-2.018,0.242-3.204,1.762c-0.468,0.599-1.059,1.364-1.669,2.159V8c0-1.037-0.841-1.878-1.878-1.878   S33.123,6.963,33.123,8v7.56l-2.636-3.408c-0.635-0.821-1.814-0.971-2.635-0.336c-0.82,0.635-0.971,1.814-0.336,2.635l5.607,7.247   v8.768l-6.351-6.351c-0.521-3.824-1.049-7.856-1.112-8.606c0.006-0.242-0.035-0.49-0.129-0.729   c-0.378-0.966-1.468-1.443-2.433-1.066c-1.388,0.542-1.258,1.598-1.022,3.513c0.086,0.705,0.2,1.589,0.322,2.514l-5.162-5.161   c-0.733-0.733-1.923-0.733-2.656,0s-0.733,1.923,0,2.656l5.42,5.419l-4.465-0.57c-1.023-0.128-1.969,0.596-2.101,1.625   c-0.131,1.029,0.597,1.97,1.625,2.101l9.282,1.185l6.125,6.125h-9.164c-3.051-2.32-6.235-4.765-6.807-5.249   c-0.166-0.174-0.368-0.32-0.602-0.423c-0.95-0.42-2.059,0.011-2.477,0.959c-0.604,1.368,0.234,2.023,1.758,3.212   c0.544,0.425,1.225,0.951,1.941,1.501H7.999c-1.038,0-1.878,0.841-1.878,1.878s0.841,1.878,1.878,1.878h7.61l-3.625,2.805   c-0.82,0.635-0.971,1.814-0.336,2.635c0.37,0.479,0.925,0.729,1.487,0.729c0.401,0,0.806-0.128,1.148-0.393l7.465-5.775h8.718   l-6.519,6.519c-3.823,0.521-7.856,1.051-8.605,1.113c-0.248-0.018-0.49,0.035-0.729,0.129c-0.966,0.377-1.443,1.467-1.066,2.433   c0.542,1.389,1.598,1.257,3.513,1.022c0.705-0.087,1.588-0.2,2.513-0.322l-4.991,4.991c-0.733,0.733-0.733,1.923,0,2.656   c0.367,0.367,0.848,0.55,1.328,0.55s0.961-0.183,1.328-0.55l5.251-5.251l-0.57,4.468c-0.131,1.028,0.597,1.969,1.625,2.101   c0.081,0.01,0.161,0.016,0.24,0.016c0.931,0,1.74-0.693,1.861-1.642l1.185-9.283l6.293-6.294v9.112   c-2.371,3.119-4.926,6.446-5.419,7.029c-0.177,0.169-0.324,0.376-0.427,0.614c-0.412,0.952,0.026,2.058,0.978,2.47   c0.299,0.129,0.563,0.19,0.807,0.19c0.867,0,1.467-0.77,2.393-1.955c0.468-0.599,1.059-1.365,1.669-2.16V62   c0,1.037,0.841,1.878,1.878,1.878s1.878-0.841,1.878-1.878v-7.222l2.636,3.407c0.634,0.82,1.814,0.97,2.635,0.336   c0.82-0.635,0.971-1.814,0.336-2.635l-5.606-7.247v-9.104l6.297,6.297c0.537,3.936,1.101,8.222,1.166,8.997   c-0.007,0.248,0.037,0.502,0.136,0.747c0.294,0.732,0.999,1.178,1.743,1.178c0.233,0,0.471-0.044,0.7-0.137   c1.368-0.55,1.231-1.663,1.005-3.506c-0.099-0.803-0.232-1.839-0.373-2.902l5.212,5.211c0.367,0.367,0.848,0.55,1.328,0.55   s0.961-0.183,1.328-0.55c0.733-0.733,0.733-1.923,0-2.656l-5.032-5.032l4.08,0.521c1.023,0.128,1.969-0.597,2.101-1.626   c0.131-1.028-0.597-1.969-1.626-2.101l-8.896-1.135l-6.512-6.513h8.721c3.181,2.417,6.653,5.082,7.252,5.588   c0.17,0.178,0.378,0.326,0.618,0.43c0.242,0.104,0.493,0.153,0.741,0.153c0.728,0,1.421-0.426,1.727-1.137   c0.585-1.359-0.25-2.012-1.767-3.195c-0.653-0.511-1.507-1.168-2.38-1.839h7.554c1.037,0,1.878-0.841,1.878-1.878   C63.879,33.962,63.038,33.122,62.001,33.122z"/>
</g>
</svg>