<svg xmlns="http://www.w3.org/2000/svg" xmlns:xlink="http://www.w3.org/1999/xlink" version="1.1" x="0px" y="0px" width="70px" height="70px" viewBox="0 0 70 70" enable-background="new 0 0 70 70" xml:space="preserve">
<g id="Livello_1" display="none">
	<g display="inline">
		<circle fill="#000000" cx="35" cy="49.948" r="6.947"/>
		<path fill="#000000" stroke="#81BC00" stroke-width="7.9392" stroke-linecap="round" stroke-miterlimit="10" d="M15.441,35.135    c4.484-5.913,11.565-9.749,19.559-9.749c7.993,0,15.075,3.836,19.558,9.748"/>
		<path fill="#000000" stroke="#81BC00" stroke-width="9.924" stroke-linecap="round" stroke-miterlimit="10" d="M64.34,27.729    C57.61,18.859,46.989,13.105,35,13.105c-11.99,0-22.611,5.754-29.339,14.623"/>
		<path fill="#000000" stroke="#81BC00" stroke-width="5.9544" stroke-linecap="round" stroke-miterlimit="10" d="M21.96,42.057    c2.99-3.943,7.71-6.498,13.04-6.498c5.329,0,10.05,2.555,13.041,6.498"/>
		<path fill="#000000" stroke="#81BC00" stroke-width="7.9392" stroke-linecap="round" stroke-miterlimit="10" d="M54.558,35.134    C50.074,29.222,42.992,25.386,35,25.386c-7.994,0-15.075,3.836-19.559,9.749"/>
		<path fill="#000000" stroke="#1D1D1B" stroke-width="7.9392" stroke-miterlimit="10" d="M35,49.948"/>
	</g>
</g>
<g id="Livello_2" display="none">
	<g display="inline">
		
			<rect x="6.75" y="15.219" fill="#000000" stroke="#81BC00" stroke-width="4" stroke-linejoin="round" stroke-miterlimit="10" width="56.5" height="35.013"/>
		
			<rect x="24.406" y="49.962" fill="#000000" stroke="#81BC00" stroke-width="2" stroke-linejoin="round" stroke-miterlimit="10" width="21.188" height="4.819"/>
		<circle fill="#000000" cx="35" cy="49.962" r="1.009"/>
		<text transform="matrix(1 0 0 1 26.0679 36.0566)" fill="#000000" font-family="'Abel-Regular'" font-size="12">LCD</text>
	</g>
</g>
<g id="Livello_3" display="none">
	<g display="inline">
		
			<rect x="18.667" y="4.917" fill="#000000" stroke="#81BC00" stroke-width="4" stroke-linejoin="round" stroke-miterlimit="10" width="32.666" height="56.5"/>
		<g>
			<path fill="#000000" d="M50.285,62.257v1.779H19.714v-1.779H50.285 M51.333,61.209H18.667v3.875h32.666V61.209L51.333,61.209z"/>
		</g>
		
			<line fill="#000000" stroke="#81BC00" stroke-width="3" stroke-linecap="round" stroke-linejoin="round" stroke-miterlimit="10" x1="23.625" y1="19.167" x2="23.625" y2="50.916"/>
	</g>
</g>
<g id="Livello_4" display="none">
	<g display="inline">
		
			<polyline fill="#000000" stroke="#81BC00" stroke-width="2" stroke-linecap="round" stroke-linejoin="round" stroke-miterlimit="10" points="    7.625,64.875 7.625,8.375 24,3.5 24,8.281   "/>
		
			<rect x="19.008" y="9.914" fill="#000000" stroke="#81BC00" stroke-width="2" stroke-linecap="round" stroke-linejoin="round" stroke-miterlimit="10" width="9.984" height="1.172"/>
		<g>
			<g>
				
					<line fill="#000000" stroke="#81BC00" stroke-linecap="round" stroke-linejoin="round" x1="18.045" y1="50.119" x2="18.251" y2="48.634"/>
				
					<line fill="#000000" stroke="#81BC00" stroke-linecap="round" stroke-linejoin="round" stroke-dasharray="3.6697,3.6697,3.6697,3.6697" x1="18.755" y1="44.998" x2="20.519" y2="32.276"/>
				
					<line fill="#000000" stroke="#81BC00" stroke-linecap="round" stroke-linejoin="round" stroke-dasharray="3.6697,3.6697,3.6697,3.6697,3.6697,3.6697" x1="20.771" y1="30.459" x2="23.542" y2="10.467"/>
				<polyline fill="#000000" stroke="#81BC00" stroke-linecap="round" stroke-linejoin="round" points="23.794,8.649 24,7.164       24.206,8.649     "/>
				
					<line fill="#000000" stroke="#81BC00" stroke-linecap="round" stroke-linejoin="round" stroke-dasharray="3.6695,3.6695,3.6695,3.6695" x1="24.71" y1="12.284" x2="26.474" y2="25.006"/>
				
					<line fill="#000000" stroke="#81BC00" stroke-linecap="round" stroke-linejoin="round" stroke-dasharray="3.6695,3.6695,3.6695,3.6695,3.6695,3.6695" x1="26.726" y1="26.823" x2="29.497" y2="46.814"/>
				
					<line fill="#000000" stroke="#81BC00" stroke-linecap="round" stroke-linejoin="round" x1="29.749" y1="48.632" x2="29.955" y2="50.117"/>
			</g>
		</g>
	</g>
	<g display="inline">
		<path fill="#000000" stroke="#81BC00" stroke-linecap="round" stroke-linejoin="round" stroke-miterlimit="10" d="M59.188,60.801    c0.998-0.901,1.669-2.158,1.807-3.572h0.027v-4.084H49.938v4.084h0.027c0.138,1.414,0.808,2.671,1.807,3.572"/>
		<path fill="#000000" stroke="#81BC00" stroke-linecap="round" stroke-linejoin="round" stroke-miterlimit="10" d="M51.771,60.801    v4.178h7.416v-4.178c-0.982,0.886-2.281,1.428-3.708,1.428C54.052,62.229,52.753,61.687,51.771,60.801z"/>
	</g>
	<g display="inline">
		<path fill="#000000" stroke="#81BC00" stroke-linecap="round" stroke-linejoin="round" stroke-miterlimit="10" d="M44.354,60.801    c0.998-0.901,1.669-2.158,1.807-3.572h0.027v-4.084H35.104v4.084h0.027c0.138,1.414,0.808,2.671,1.807,3.572"/>
		<path fill="#000000" stroke="#81BC00" stroke-linecap="round" stroke-linejoin="round" stroke-miterlimit="10" d="M36.938,60.801    v4.178h7.416v-4.178c-0.982,0.886-2.281,1.428-3.708,1.428C39.218,62.229,37.919,61.687,36.938,60.801z"/>
	</g>
	
		<line display="inline" fill="#000000" stroke="#81BC00" stroke-linecap="round" stroke-linejoin="round" stroke-miterlimit="10" x1="61.021" y1="55.312" x2="49.938" y2="55.312"/>
</g>
<g id="Livello_5" display="none">
	<g display="inline">
		<g>
			
				<path fill="#000000" stroke="#81BC00" stroke-width="2.4564" stroke-linecap="round" stroke-linejoin="round" stroke-miterlimit="10" d="     M62.328,39.272c2.451-2.214,4.1-5.302,4.438-8.775h0.067V20.465H39.605v10.032h0.067c0.339,3.474,1.984,6.562,4.438,8.775"/>
			
				<path fill="#000000" stroke="#81BC00" stroke-width="2.4564" stroke-linecap="round" stroke-linejoin="round" stroke-miterlimit="10" d="     M44.111,39.272v10.263h18.217V39.272c-2.413,2.176-5.604,3.507-9.108,3.507C49.712,42.779,46.521,41.448,44.111,39.272z"/>
		</g>
		<g>
			
				<path fill="#000000" stroke="#81BC00" stroke-width="2.4564" stroke-linecap="round" stroke-linejoin="round" stroke-miterlimit="10" d="     M25.889,39.272c2.452-2.214,4.1-5.302,4.438-8.775h0.067V20.465H3.167v10.032h0.067c0.338,3.474,1.984,6.562,4.438,8.775"/>
			
				<path fill="#000000" stroke="#81BC00" stroke-width="2.4564" stroke-linecap="round" stroke-linejoin="round" stroke-miterlimit="10" d="     M7.672,39.272v10.263h18.217V39.272c-2.414,2.176-5.604,3.507-9.108,3.507C13.273,42.779,10.083,41.448,7.672,39.272z"/>
		</g>
		
			<line fill="#000000" stroke="#81BC00" stroke-width="2.4564" stroke-linecap="round" stroke-linejoin="round" stroke-miterlimit="10" x1="66.833" y1="25.788" x2="39.605" y2="25.788"/>
	</g>
</g>
<g id="Livello_6" display="none">
	<g display="inline">
		
			<rect x="14.417" y="10.625" fill="#000000" stroke="#81BC00" stroke-width="2.4564" stroke-linecap="round" stroke-linejoin="round" stroke-miterlimit="10" width="41.166" height="48.75"/>
		<g>
			
				<rect x="19.25" y="15.169" fill="#000000" stroke="#81BC00" stroke-width="2" stroke-linecap="round" stroke-linejoin="round" stroke-miterlimit="10" width="13.5" height="7.956"/>
			
				<rect x="37.25" y="15.169" fill="#000000" stroke="#81BC00" stroke-width="2" stroke-linecap="round" stroke-linejoin="round" stroke-miterlimit="10" width="13.5" height="7.956"/>
		</g>
		
			<rect x="14.417" y="26.708" fill="#000000" stroke="#81BC00" stroke-width="1.55" stroke-linecap="round" stroke-linejoin="round" stroke-miterlimit="10" width="41.166" height="32.667"/>
		
			<polygon fill="#000000" stroke="#81BC00" stroke-width="1.3479" stroke-linecap="round" stroke-linejoin="round" stroke-miterlimit="10" points="    55.542,28.875 14.458,36.875 14.458,28.875 55.542,28.875   "/>
	</g>
</g>
<g id="Livello_7">
	<g>
		<path fill="#000000" d="M46.583,9.397H23.417c-0.678,0-1.228,0.55-1.228,1.228v48.75c0,0.679,0.55,1.229,1.228,1.229h23.166    c0.679,0,1.229-0.55,1.229-1.229v-48.75C47.812,9.947,47.262,9.397,46.583,9.397z M45.354,28.201H24.645v-0.718h20.709V28.201z     M24.645,29.549h17.894L24.645,35.75V29.549z M24.645,58.146v-20.97L45.354,30v28.146H24.645z M45.354,11.853v14.08H24.645v-14.08    H45.354z"/>
		<path fill="#000000" d="M28.25,24.125h13.5c0.553,0,1-0.448,1-1v-7.956c0-0.552-0.447-1-1-1h-13.5c-0.552,0-1,0.448-1,1v7.956    C27.25,23.677,27.698,24.125,28.25,24.125z M29.25,16.169h11.5v5.956h-11.5V16.169z"/>
	</g>
</g>
<g id="Livello_8" display="none">
	<g display="inline">
		
			<polyline fill="#000000" stroke="#81BC00" stroke-width="3.2027" stroke-linecap="round" stroke-linejoin="round" stroke-miterlimit="10" points="    60.854,21.121 60.854,27.927 26.226,27.927 26.226,21.121 60.854,21.121   "/>
		
			<rect x="39.637" y="27.927" fill="#000000" stroke="#81BC00" stroke-width="3.2027" stroke-linecap="round" stroke-linejoin="round" stroke-miterlimit="10" width="21.218" height="32.227"/>
		
			<polyline fill="#000000" stroke="#81BC00" stroke-width="3.3573" stroke-linecap="round" stroke-linejoin="round" stroke-miterlimit="10" points="    60.854,21.121 60.854,10.521 60.854,9.847 43.906,9.847   "/>
		
			<path fill="#000000" stroke="#81BC00" stroke-width="3.3573" stroke-linecap="round" stroke-linejoin="round" stroke-miterlimit="10" d="    M43.906,9.847c-3.729,2.667-4.795,7.137-4.795,10.649"/>
		
			<rect x="10.479" y="32.465" fill="#000000" stroke="#81BC00" stroke-width="3.3573" stroke-linecap="round" stroke-linejoin="round" stroke-miterlimit="10" width="12.944" height="2.668"/>
		
			<rect x="16.952" y="35.133" fill="#000000" stroke="#81BC00" stroke-width="3.3573" stroke-linecap="round" stroke-linejoin="round" stroke-miterlimit="10" width="0" height="18.149"/>
		<g>
			
				<path fill="#000000" stroke="#81BC00" stroke-width="3.3573" stroke-linecap="round" stroke-linejoin="round" stroke-miterlimit="10" d="     M25.024,60.153c0-3.057-3.554-5.537-7.938-5.537c-4.386,0-7.94,2.48-7.94,5.537"/>
		</g>
	</g>
</g>
<g id="Livello_9" display="none">
	<path display="inline" fill="#000000" d="M67.692,52.756L36.1,33.078v-4.643c0-0.607-0.492-1.1-1.1-1.1   c-1.838,0-3.391-2.351-3.391-5.132c0-2.782,1.553-5.133,3.391-5.133s3.392,2.351,3.392,5.133c0,0.607,0.492,1.1,1.1,1.1   s1.1-0.492,1.1-1.1c0-4.043-2.508-7.332-5.591-7.332c-3.083,0-5.59,3.289-5.59,7.332c0,3.549,1.933,6.518,4.49,7.189v3.686   L2.308,52.756c-0.568,0.354-0.833,1.042-0.649,1.686c0.184,0.645,0.773,1.088,1.442,1.088h40.67c0.828,0,1.5-0.672,1.5-1.5   s-0.672-1.5-1.5-1.5H8.346L35,35.928l31.106,19.375c0.247,0.153,0.521,0.227,0.792,0.227c0.5,0,0.99-0.251,1.274-0.707   C68.61,54.119,68.396,53.194,67.692,52.756z"/>
</g>
<g id="ac" display="none">
	<path display="inline" fill="#000000" d="M62.001,33.122h-7.173l3.189-2.467c0.82-0.635,0.971-1.814,0.336-2.635   c-0.635-0.821-1.816-0.972-2.635-0.336l-7.028,5.438h-9.155l6.129-6.129c3.934-0.537,8.219-1.101,8.995-1.166   c0.238,0.007,0.488-0.035,0.728-0.127c0.967-0.375,1.445-1.464,1.07-2.431c-0.541-1.393-1.601-1.262-3.514-1.026   c-0.803,0.099-1.84,0.233-2.902,0.373l5.38-5.38c0.733-0.733,0.733-1.923,0-2.656c-0.734-0.733-1.922-0.733-2.656,0l-5.201,5.202   l0.521-4.08c0.131-1.029-0.597-1.97-1.626-2.101c-1.022-0.128-1.969,0.597-2.101,1.625l-1.135,8.896l-6.344,6.343V21.69   c2.37-3.117,4.923-6.443,5.417-7.028c0.177-0.168,0.323-0.373,0.427-0.61c0.415-0.951-0.021-2.058-0.971-2.473   c-1.364-0.594-2.018,0.242-3.204,1.762c-0.468,0.599-1.059,1.364-1.669,2.159V8c0-1.037-0.841-1.878-1.878-1.878   S33.123,6.963,33.123,8v7.56l-2.636-3.408c-0.635-0.821-1.814-0.971-2.635-0.336c-0.82,0.635-0.971,1.814-0.336,2.635l5.607,7.247   v8.768l-6.351-6.351c-0.521-3.824-1.049-7.856-1.112-8.606c0.006-0.242-0.035-0.49-0.129-0.729   c-0.378-0.966-1.468-1.443-2.433-1.066c-1.388,0.542-1.258,1.598-1.022,3.513c0.086,0.705,0.2,1.589,0.322,2.514l-5.162-5.161   c-0.733-0.733-1.923-0.733-2.656,0s-0.733,1.923,0,2.656l5.42,5.419l-4.465-0.57c-1.023-0.128-1.969,0.596-2.101,1.625   c-0.131,1.029,0.597,1.97,1.625,2.101l9.282,1.185l6.125,6.125h-9.164c-3.051-2.32-6.235-4.765-6.807-5.249   c-0.166-0.174-0.368-0.32-0.602-0.423c-0.95-0.42-2.059,0.011-2.477,0.959c-0.604,1.368,0.234,2.023,1.758,3.212   c0.544,0.425,1.225,0.951,1.941,1.501H7.999c-1.038,0-1.878,0.841-1.878,1.878s0.841,1.878,1.878,1.878h7.61l-3.625,2.805   c-0.82,0.635-0.971,1.814-0.336,2.635c0.37,0.479,0.925,0.729,1.487,0.729c0.401,0,0.806-0.128,1.148-0.393l7.465-5.775h8.718   l-6.519,6.519c-3.823,0.521-7.856,1.051-8.605,1.113c-0.248-0.018-0.49,0.035-0.729,0.129c-0.966,0.377-1.443,1.467-1.066,2.433   c0.542,1.389,1.598,1.257,3.513,1.022c0.705-0.087,1.588-0.2,2.513-0.322l-4.991,4.991c-0.733,0.733-0.733,1.923,0,2.656   c0.367,0.367,0.848,0.55,1.328,0.55s0.961-0.183,1.328-0.55l5.251-5.251l-0.57,4.468c-0.131,1.028,0.597,1.969,1.625,2.101   c0.081,0.01,0.161,0.016,0.24,0.016c0.931,0,1.74-0.693,1.861-1.642l1.185-9.283l6.293-6.294v9.112   c-2.371,3.119-4.926,6.446-5.419,7.029c-0.177,0.169-0.324,0.376-0.427,0.614c-0.412,0.952,0.026,2.058,0.978,2.47   c0.299,0.129,0.563,0.19,0.807,0.19c0.867,0,1.467-0.77,2.393-1.955c0.468-0.599,1.059-1.365,1.669-2.16V62   c0,1.037,0.841,1.878,1.878,1.878s1.878-0.841,1.878-1.878v-7.222l2.636,3.407c0.634,0.82,1.814,0.97,2.635,0.336   c0.82-0.635,0.971-1.814,0.336-2.635l-5.606-7.247v-9.104l6.297,6.297c0.537,3.936,1.101,8.222,1.166,8.997   c-0.007,0.248,0.037,0.502,0.136,0.747c0.294,0.732,0.999,1.178,1.743,1.178c0.233,0,0.471-0.044,0.7-0.137   c1.368-0.55,1.231-1.663,1.005-3.506c-0.099-0.803-0.232-1.839-0.373-2.902l5.212,5.211c0.367,0.367,0.848,0.55,1.328,0.55   s0.961-0.183,1.328-0.55c0.733-0.733,0.733-1.923,0-2.656l-5.032-5.032l4.08,0.521c1.023,0.128,1.969-0.597,2.101-1.626   c0.131-1.028-0.597-1.969-1.626-2.101l-8.896-1.135l-6.512-6.513h8.721c3.181,2.417,6.653,5.082,7.252,5.588   c0.17,0.178,0.378,0.326,0.618,0.43c0.242,0.104,0.493,0.153,0.741,0.153c0.728,0,1.421-0.426,1.727-1.137   c0.585-1.359-0.25-2.012-1.767-3.195c-0.653-0.511-1.507-1.168-2.38-1.839h7.554c1.037,0,1.878-0.841,1.878-1.878   C63.879,33.962,63.038,33.122,62.001,33.122z"/>
</g>
</svg>