<svg xmlns="http://www.w3.org/2000/svg" xmlns:xlink="http://www.w3.org/1999/xlink" version="1.1" id="Layer_1" x="0px" y="0px" width="100px" height="100px" viewBox="0 0 100 100" enable-background="new 0 0 100 100" xml:space="preserve">
<g>
	<path d="M89.949,23.002c0-2.596-2.104-4.701-4.703-4.701H14.814c-2.596,0-4.702,2.105-4.702,4.701v45.25h79.837V23.002z    M84.422,62.392H15.64V24.164h68.782V62.392z"/>
	<path d="M0.076,71.585v5.181c0,1.618,1.312,2.931,2.931,2.931h94.046c1.619,0,2.931-1.312,2.931-2.931v-5.181H0.076z    M95.266,76.779h-7.128c-0.628,0-1.139-0.51-1.139-1.14c0-0.628,0.511-1.139,1.139-1.139h7.128c0.628,0,1.139,0.511,1.139,1.139   C96.404,76.27,95.894,76.779,95.266,76.779z"/>
</g>
</svg>