<svg xmlns="http://www.w3.org/2000/svg" xmlns:xlink="http://www.w3.org/1999/xlink" version="1.1" id="Layer_1" x="0px" y="0px" width="100px" height="100px" viewBox="0 0 100 100" enable-background="new 0 0 100 100" xml:space="preserve">
<path d="M74.916-0.072H25.229c-2.599,0-4.704,2.105-4.704,4.702v90.595c0,2.598,2.107,4.703,4.704,4.703h49.688  c2.599,0,4.704-2.105,4.704-4.703V4.63C79.62,2.033,77.513-0.072,74.916-0.072z M51.787,3.964c0.63,0,1.14,0.511,1.14,1.139  c0,0.629-0.51,1.14-1.14,1.14c-0.628,0-1.138-0.511-1.138-1.14C50.649,4.475,51.159,3.964,51.787,3.964z M48.356,3.964  c0.629,0,1.139,0.511,1.139,1.139c0,0.629-0.51,1.14-1.139,1.14c-0.631,0-1.14-0.511-1.14-1.14  C47.217,4.475,47.726,3.964,48.356,3.964z M50.072,90.709c-2.599,0-4.704-2.105-4.704-4.705c0-2.596,2.105-4.699,4.704-4.699  c2.598,0,4.704,2.104,4.704,4.699C54.776,88.604,52.67,90.709,50.072,90.709z M73.757,75.982H26.389V9.334h47.368V75.982z"/>
</svg>