<svg xmlns="http://www.w3.org/2000/svg" xmlns:xlink="http://www.w3.org/1999/xlink" version="1.1" id="Layer_1" x="0px" y="0px" width="100px" height="100px" viewBox="0 0 100 100" enable-background="new 0 0 100 100" xml:space="preserve">
<g>
	<path d="M50.211,31.645c5.466,0,9.895-4.431,9.895-9.896c0-5.464-4.429-9.895-9.895-9.895c-5.464,0-9.895,4.431-9.895,9.895   C40.316,27.214,44.747,31.645,50.211,31.645z M50.211,18.812c1.622,0,2.938,1.314,2.938,2.937s-1.315,2.938-2.938,2.938   c-1.623,0-2.937-1.315-2.937-2.938S48.588,18.812,50.211,18.812z"/>
	<path d="M50.213,53.833c-9.232,0-16.717,7.483-16.717,16.717s7.484,16.717,16.717,16.717s16.715-7.483,16.715-16.717   S59.445,53.833,50.213,53.833z M50.212,75.195c-2.604,0-4.713-2.109-4.713-4.712c0-2.602,2.109-4.712,4.713-4.712   c2.601,0,4.712,2.11,4.712,4.712C54.924,73.086,52.812,75.195,50.212,75.195z"/>
	<circle cx="67.837" cy="41.819" r="2.937"/>
	<path d="M18.997,0.27v98.904h62.429V0.27H18.997z M50.212,9.693c6.699,0,12.128,5.43,12.128,12.127   c0,6.699-5.429,12.129-12.128,12.129c-6.697,0-12.128-5.43-12.128-12.129C38.084,15.123,43.515,9.693,50.212,9.693z M23.911,95.433   c-0.63,0-1.14-0.511-1.14-1.142c0-0.63,0.51-1.142,1.14-1.142c0.632,0,1.142,0.512,1.142,1.142   C25.053,94.922,24.543,95.433,23.911,95.433z M23.911,6.294c-0.63,0-1.14-0.511-1.14-1.142c0-0.63,0.51-1.142,1.14-1.142   c0.632,0,1.142,0.512,1.142,1.142C25.053,5.783,24.543,6.294,23.911,6.294z M32.587,89.94c-1.011,0-1.831-0.82-1.831-1.832   s0.82-1.831,1.831-1.831s1.831,0.819,1.831,1.831S33.598,89.94,32.587,89.94z M50.213,89.94c-10.745,0-19.457-8.711-19.457-19.457   s8.712-19.457,19.457-19.457s19.455,8.711,19.455,19.457S60.958,89.94,50.213,89.94z M67.837,54.689   c-1.011,0-1.831-0.82-1.831-1.832s0.82-1.831,1.831-1.831s1.831,0.819,1.831,1.831S68.848,54.689,67.837,54.689z M67.838,46.53   c-2.604,0-4.713-2.109-4.713-4.712c0-2.602,2.109-4.712,4.713-4.712c2.601,0,4.712,2.11,4.712,4.712   C72.55,44.421,70.438,46.53,67.838,46.53z M76.541,95.433c-0.63,0-1.14-0.511-1.14-1.142c0-0.63,0.51-1.142,1.14-1.142   c0.632,0,1.142,0.512,1.142,1.142C77.683,94.922,77.173,95.433,76.541,95.433z M76.541,6.294c-0.63,0-1.14-0.511-1.14-1.142   c0-0.63,0.51-1.142,1.14-1.142c0.632,0,1.142,0.512,1.142,1.142C77.683,5.783,77.173,6.294,76.541,6.294z"/>
</g>
</svg>