<svg xmlns="http://www.w3.org/2000/svg" xmlns:xlink="http://www.w3.org/1999/xlink" version="1.1" id="Layer_1" x="0px" y="0px" width="100.0px" height="100px" viewBox="0 0 368.504 368.504" enable-background="new 0 0 368.504 368.504" xml:space="preserve">
<g>
	<path d="M309.336,177.083h-4.904l-35.85-98.607H107.218L71.24,177.42c-14.235,2.058-25.19,14.275-25.19,29.085v32.493   c0,16.251,13.171,29.422,29.42,29.422h2.752v11.937c0,14.041,11.388,25.433,25.431,25.433c14.049,0,25.431-11.392,25.431-25.433   v-11.937h126.629v11.937c0,14.041,11.387,25.433,25.436,25.433c14.043,0,25.424-11.392,25.424-25.433v-11.937h2.764   c16.246,0,29.416-13.171,29.416-29.422v-32.493C338.752,190.258,325.582,177.083,309.336,177.083z M78.737,235.726   c-12.605,0-22.826-10.222-22.826-22.832s10.221-22.837,22.826-22.837c12.616,0,22.842,10.227,22.842,22.837   S91.353,235.726,78.737,235.726z M263.064,173.45H259.9c-0.025-1.594-0.098-4.578-0.186-5.107h3.35V173.45z M209.521,173.45h-3.165   v-5.304c0.565,0.127,3.361,0.197,3.361,0.197C209.622,168.872,209.547,171.856,209.521,173.45z M282.539,155.647   c-0.861-9.642-8.877-17.234-18.742-17.234h-58.166c-9.869,0-17.887,7.592-18.745,17.234h-0.174v17.803H82.072   c6.342-17.413,28.023-77.04,31.327-86.149h148.999c3.309,9.109,24.992,68.736,31.32,86.149h-11.014v-17.803H282.539z    M306.057,235.726c-12.609,0-22.832-10.222-22.832-22.832s10.223-22.837,22.832-22.837c12.615,0,22.832,10.227,22.832,22.837   S318.672,235.726,306.057,235.726z"/>
	<path d="M234.711,90.605c-12.279,0-22.238,9.958-22.238,22.233c0,12.287,9.959,22.244,22.238,22.244   c12.283,0,22.244-9.957,22.244-22.244C256.955,100.563,246.994,90.605,234.711,90.605z"/>
</g>
</svg>