<svg xmlns="http://www.w3.org/2000/svg" xmlns:xlink="http://www.w3.org/1999/xlink" version="1.1" id="Layer_1" x="0px" y="0px" width="100.0px" height="100px" viewBox="0 0 368.504 368.504" enable-background="new 0 0 368.504 368.504" xml:space="preserve">
<path d="M184.063,91.169c15.371,0,27.832-12.457,27.832-27.828c0-15.357-12.461-27.815-27.832-27.815  c-15.362,0-27.822,12.458-27.822,27.815C156.24,78.713,168.701,91.169,184.063,91.169z"/>
<path d="M234.533,173.994H208.85c1.166-2.717,1.789-5.688,1.961-8.782h7.594c0.064,0,0.113-0.036,0.178-0.036h27.484  c4.057,0,7.334-3.283,7.334-7.335c0-4.056-3.277-7.341-7.334-7.341h-1.961v-33.602h-0.208  c-1.076-12.063-11.104-21.561-23.444-21.561h-72.772c-12.346,0-22.377,9.498-23.451,21.561h-0.214V150.5h-1.609  c-4.056,0-7.337,3.285-7.337,7.341c0,4.052,3.281,7.335,7.337,7.335h29.498c0.068,0,0.117,0.036,0.185,0.036h7.058  c0.172,3.094,0.788,6.064,1.955,8.782h-25.688c-10.443,0-18.899,7.567-18.899,16.887l11.64,73.977  c2.581,9.227,8.459,16.885,18.896,16.885h16.993v17.031c0,11.556,9.371,20.933,20.936,20.933c11.555,0,20.922-9.377,20.922-20.933  v-17.031h16.819c10.441,0,18.91-7.567,18.91-16.885l11.802-73.977C253.434,181.562,244.968,173.994,234.533,173.994z   M219.536,137.762V150.5h-3.943v-10.184c0-0.882-0.107-1.715-0.25-2.555H219.536z M152.535,140.317V150.5h-3.943v-12.985  c0.707,0.159,1.424,0.247,2.169,0.247h2.037C152.642,138.602,152.535,139.435,152.535,140.317z M184.98,180.783  c-9.406,0-17.025-7.618-17.025-17.016c0-9.402,7.619-17.021,17.025-17.021c9.399,0,17.018,7.619,17.018,17.021  C201.998,173.166,194.379,180.783,184.98,180.783z"/>
</svg>