<svg xmlns="http://www.w3.org/2000/svg" xmlns:xlink="http://www.w3.org/1999/xlink" version="1.1" id="Layer_1" x="0px" y="0px" width="100.0px" height="100px" viewBox="0 0 368.504 368.504" enable-background="new 0 0 368.504 368.504" xml:space="preserve">
<g>
	<path d="M194.229,123.458c0.039-9.4,0.082-18.776,0.126-28.179c0.014-3.813-5.895-3.837-5.913-0.022   c-0.039,9.399-0.082,18.774-0.121,28.174C188.306,127.245,194.214,127.272,194.229,123.458z"/>
	<path d="M108.741,202.872c-9.4,0.024-18.787,0.063-28.189,0.085c-3.815,0.012-3.798,5.92,0.015,5.91   c9.402-0.024,18.79-0.063,28.191-0.088C112.571,208.771,112.559,202.862,108.741,202.872z"/>
	<path d="M301.27,202.383c-9.404,0.024-18.779,0.048-28.18,0.075c-3.815,0.01-3.797,5.917,0.015,5.908   c9.399-0.022,18.775-0.049,28.175-0.073C305.096,208.281,305.08,202.373,301.27,202.383z"/>
	<path d="M115.322,125.168c-2.688-2.708-6.881,1.454-4.196,4.163c6.617,6.674,13.218,13.334,19.834,20.01   c2.688,2.708,6.886-1.452,4.199-4.158C128.539,138.506,121.939,131.848,115.322,125.168z"/>
	<path d="M266.654,125.303c-6.63,6.665-13.245,13.313-19.874,19.977c-2.688,2.705,1.501,6.872,4.188,4.169   c6.635-6.665,13.245-13.311,19.875-19.976C273.53,126.767,269.347,122.599,266.654,125.303z"/>
	<path d="M116.336,170.979c-8.664-3.648-17.3-7.292-25.961-10.948c-3.518-1.479-5.813,3.968-2.295,5.448   c8.661,3.65,17.3,7.294,25.961,10.945C117.557,177.903,119.853,172.459,116.336,170.979z"/>
	<path d="M230.344,102.508c-3.592,8.688-7.172,17.354-10.764,26.04c-1.454,3.523,4.009,5.782,5.461,2.26   c3.594-8.688,7.172-17.352,10.766-26.041C237.265,101.242,231.807,98.981,230.344,102.508z"/>
	<path d="M292.02,161.294c-8.706,3.543-17.403,7.07-26.111,10.613c-3.534,1.439-1.313,6.912,2.224,5.474   c8.706-3.545,17.408-7.071,26.116-10.611C297.778,165.333,295.555,159.855,292.02,161.294z"/>
	<path d="M162.146,128.593c-3.608-8.686-7.202-17.343-10.804-26.028c-1.462-3.522-6.92-1.262-5.458,2.266   c3.598,8.683,7.196,17.342,10.799,26.025C158.146,134.375,163.609,132.109,162.146,128.593z"/>
	<path d="M189.633,77.56C116,77.56,56.092,137.468,56.092,211.104c0,38.659,69.227,56.267,133.541,56.267   c64.319,0,133.544-17.607,133.544-56.267C323.177,137.468,263.27,77.56,189.633,77.56z M189.633,233.791   c-64.75,0-130.301-8.798-130.301-22.688c0-71.848,58.452-130.301,130.301-130.301c71.85,0,130.305,58.454,130.305,130.301   C319.938,224.993,254.389,233.791,189.633,233.791z"/>
	<path d="M201.061,180.053c0.975-2.724,1.907-5.607,2.741-8.626c0.87-3.171,1.596-6.496,2.303-9.884   c0.708-3.387,1.448-6.822,2.254-10.239c0.808-3.416,1.615-6.833,2.41-10.195c0.809-3.359,1.545-6.682,2.274-9.893   c1.468-6.418,2.779-12.425,3.91-17.572c2.242-10.3,3.635-17.195,3.635-17.195c0.044-0.215-0.074-0.436-0.286-0.513   c-0.234-0.086-0.493,0.034-0.579,0.268c0,0-2.423,6.604-5.904,16.554c-1.73,4.978-3.757,10.782-5.865,17.02   c-1.06,3.118-2.172,6.334-3.24,9.619c-1.083,3.281-2.184,6.615-3.283,9.949c-1.102,3.333-2.27,6.647-3.439,9.904   c-1.171,3.256-2.293,6.47-3.212,9.627c-0.905,3.132-1.645,6.198-2.254,9.134c-0.953-0.088-1.916-0.139-2.892-0.139   c-17.143,0-31.036,13.896-31.036,31.034c0,17.143,62.072,17.143,62.072,0C220.669,195.804,212.545,184.605,201.061,180.053z"/>
</g>
</svg>