<svg xmlns="http://www.w3.org/2000/svg" xmlns:xlink="http://www.w3.org/1999/xlink" version="1.1" id="Layer_1" x="0px" y="0px" width="100.0px" height="100px" viewBox="0 0 368.504 368.504" enable-background="new 0 0 368.504 368.504" xml:space="preserve">
<g>
	<path d="M65.226,247.01l35.413,37.678l69.775-65.562l-35.417-37.685L65.226,247.01z M101.021,274.525L75.36,247.22l26.942-25.323   l25.662,27.31L101.021,274.525z M133.323,244.17l-0.073,0.059l-25.624-27.334l26.953-25.331l25.668,27.295L133.323,244.17z"/>
	<path d="M306.931,90.796l-35.426-37.677l-69.758,65.572l35.411,37.687L306.931,90.796z M271.1,63.251l25.66,27.308l-26.954,25.329   l-25.653-27.304L271.1,63.251z M238.826,93.584l25.661,27.306l-26.955,25.323l-25.648-27.307L238.826,93.584z"/>
	<path d="M227.891,209.723c11.073-11.238,15.41-24.799,9.756-30.817l-53.957-57.453c-2.218-2.375-5.601-3.176-9.735-2.738   l-8.206-25.254c-10.443-2.439-23.468,0.642-36.748,13.123c-11.665,10.955-17.593,24.308-15.604,36.184l23.615,10.671   c-0.691,4.092-0.241,7.647,1.988,10.021l54.037,57.384c5.563,5.929,19.098,2.446,30.893-7.543l19.542,20.798   c0.414,0.448,1.826-0.203,2.699-1.015c0.87-0.819,1.607-2.197,1.181-2.631L227.891,209.723z M119.191,137.364   c0.071-6.55,5.856-18.713,13.938-26.31c8.088-7.61,19.154-12.727,26.684-12.027l7.427,21.114   c-5.049,2.058-11.229,6.697-16.191,11.36c-4.663,4.384-9.509,10.333-11.845,14.945L119.191,137.364z M192.643,210.523   l-49.157-52.213c-0.108-6.504,4.967-15.7,11.876-22.192c6.91-6.501,13.103-12.029,21.206-12.311l50.369,53.549   c-5.798-0.128-16.154,5.41-22.271,11.169C198.641,194.199,193.235,204.867,192.643,210.523z M222.963,204.509l-6.343-6.767   c-0.412-0.443-1.836,0.204-2.703,1.024c-0.873,0.81-1.603,2.189-1.188,2.635l6.335,6.687c-7.95,6.637-16.235,9.385-19.251,6.163   c-3.313-3.519,0.94-12.896,9.503-20.945c8.562-8.054,18.186-11.722,21.498-8.193C233.919,188.403,230.445,196.854,222.963,204.509z   "/>
</g>
</svg>