<svg xmlns="http://www.w3.org/2000/svg" xmlns:xlink="http://www.w3.org/1999/xlink" version="1.1" id="Capa_1" x="0px" y="0px" width="89.864px" height="100px" viewBox="0 0 89.864 100" enable-background="new 0 0 89.864 100" xml:space="preserve">
<path d="M43.959,27.265c0,0.482,0.392,0.875,0.875,0.875l0,0c0.483,0,0.875-0.392,0.875-0.875v-7.684  c0-0.484-0.392-0.876-0.875-0.876l0,0c-0.483,0-0.875,0.393-0.875,0.876V27.265z"/>
<path d="M43.959,90.578c0,0.482,0.392,0.873,0.875,0.873l0,0c0.483,0,0.875-0.391,0.875-0.873v-7.686  c0-0.48-0.392-0.875-0.875-0.875l0,0c-0.483,0-0.875,0.395-0.875,0.875V90.578z"/>
<path d="M80.333,55.663c0.484,0,0.877-0.394,0.877-0.877l0,0c0-0.481-0.393-0.874-0.877-0.874H72.65  c-0.483,0-0.875,0.393-0.875,0.874l0,0c0,0.483,0.392,0.877,0.875,0.877H80.333z"/>
<path d="M16.631,55.663c0.483,0,0.876-0.394,0.876-0.877l0,0c0-0.481-0.393-0.874-0.876-0.874H8.947  c-0.483,0-0.874,0.393-0.874,0.874l0,0c0,0.483,0.391,0.877,0.874,0.877H16.631z"/>
<path d="M42.111,54.593c0,1.504,1.22,2.722,2.723,2.722l0,0c1.505,0,2.724-1.218,2.724-2.722l-2.724-18.802l0,0L42.111,54.593z"/>
<circle fill="none" cx="44.932" cy="54.787" r="38.124"/>
<path d="M48.044,9.974V5.316c0-0.044-0.011-0.085-0.013-0.129h-6.197c-0.002,0.044-0.013,0.085-0.013,0.129v4.658  c1.029-0.07,2.064-0.119,3.112-0.119S47.015,9.904,48.044,9.974z"/>
<path d="M48.044,9.974c-1.029-0.07-2.064-0.119-3.112-0.119S42.85,9.904,41.82,9.974C18.458,11.574,0,31.019,0,54.786  C0,79.603,20.117,99.72,44.932,99.72s44.932-20.117,44.932-44.934C89.864,31.019,71.406,11.574,48.044,9.974z M44.932,92.91  c-21.056,0-38.124-17.066-38.124-38.124c0-21.054,17.067-38.123,38.124-38.123c21.055,0,38.124,17.069,38.124,38.123  C83.056,75.844,65.987,92.91,44.932,92.91z"/>
<path d="M49.267,5.187c1.432,0,2.593-1.162,2.593-2.593C51.86,1.161,50.699,0,49.267,0h-8.819c-1.431,0-2.593,1.161-2.593,2.594  c0,1.432,1.162,2.593,2.593,2.593h1.386h6.197H49.267z"/>
</svg>