<svg xmlns="http://www.w3.org/2000/svg" xmlns:xlink="http://www.w3.org/1999/xlink" version="1.0" id="Layer_1" x="0px" y="0px" width="100px" height="100px" viewBox="0 0 100 100" enable-background="new 0 0 100 100" xml:space="preserve">
<g id="Layer_1_1_">
</g>
<g>
	<path d="M59.527,94.471c-2.305,1.557-1.916,2.831,0.867,2.831h7.016c2.781,0,6.044-0.362,8.096-1.724   c1.6-1.061,3.035-8.253,3.035-11.036v-0.091c0-2.782-1.648-3.489-3.665-1.571L59.527,94.471z"/>
	<path d="M39.08,94.471c2.306,1.557,1.916,2.831-0.867,2.831h-7.015c-2.783,0-6.044-0.362-8.096-1.724   c-1.6-1.061-3.036-8.253-3.036-11.036v-0.091c0-2.782,1.649-3.489,3.665-1.571L39.08,94.471z"/>
	<path d="M0.994,59.039c-2.259-5.707,1.274-9.056,3.888-11.797c-4.609-8.074-0.179-18.657,11.991-17.663   c-3.192-12.902,9.533-20.514,19.732-11.992c2.553-9.304,19.663-14.706,26.72-0.333c10.958-8.189,23.206-0.577,19.464,12.325   c11.096-1.033,16.507,8.236,11.99,17.663c4.609,4.101,6.128,9.035,4.008,12.078c-2.094,3.007-45.941,38.266-49.23,38.266   C44.331,97.585,2.035,61.668,0.994,59.039z"/>
</g>
</svg>