<svg xmlns="http://www.w3.org/2000/svg" xmlns:xlink="http://www.w3.org/1999/xlink" version="1.1" id="Layer_1" x="0px" y="0px" width="80.5px" height="77.5px" viewBox="0 0 80.5 77.5" enable-background="new 0 0 80.5 77.5" xml:space="preserve">
<g>
	<g>
		<rect x="28.051" y="3.333" width="1.256" height="71.124"/>
	</g>
	<g>
		<rect x="52.545" y="3.333" width="1.256" height="71.124"/>
	</g>
</g>
<g>
	<g>
		<rect x="5.364" y="50.513" width="71.123" height="1.257"/>
	</g>
	<g>
		<rect x="5.364" y="26.02" width="71.123" height="1.256"/>
	</g>
</g>
<g>
	<polygon points="48.968,8.784 46.932,6.748 40.926,12.753 34.921,6.748 32.885,8.784 38.89,14.79 32.987,20.692 35.022,22.729    40.926,16.825 46.83,22.729 48.864,20.692 42.962,14.79  "/>
</g>
<g>
	<polygon points="24.324,32.941 22.289,30.905 16.284,36.91 10.278,30.905 8.243,32.941 14.248,38.945 8.344,44.849 10.38,46.885    16.284,40.982 22.187,46.885 24.223,44.849 18.319,38.945  "/>
</g>
<g>
	<circle cx="65.019" cy="63.516" r="8.148"/>
</g>
<g>
	<circle cx="40.926" cy="38.895" r="8.148"/>
</g>
</svg>