<svg xmlns="http://www.w3.org/2000/svg" xmlns:xlink="http://www.w3.org/1999/xlink" version="1.1" id="Layer_1" x="0px" y="0px" width="77.2727272727px" height="100px" viewBox="0 0 612 792" enable-background="new 0 0 612 792" xml:space="preserve">
<path d="M416.25,189l-220.5,0c-18.64,0-33.75,15.11-33.75,33.75v202.5c0,18.641,15.11,33.75,33.75,33.75h220.5  c18.641,0,33.75-15.109,33.75-33.75v-202.5C450,204.11,434.891,189,416.25,189z M423,425.25c0,3.729-3.021,6.75-6.75,6.75h-220.5  c-3.728,0-6.75-3.021-6.75-6.75v-202.5c0-3.728,3.022-6.75,6.75-6.75l220.5,0c3.729,0,6.75,3.022,6.75,6.75V425.25z"/>
<circle cx="243" cy="256.5" r="13.5"/>
<circle cx="306" cy="256.5" r="13.5"/>
<circle cx="369" cy="256.5" r="13.5"/>
<g>
	<rect x="108" y="171" width="27" height="450"/>
	<rect x="477" y="171" width="27" height="450"/>
</g>
<path d="M261,274.5h-36c-4.971,0-9,4.317-9,9.643v48.215c0,4.491,2.87,8.255,6.75,9.326V400.5c0,4.971,4.029,9,9,9s9-4.029,9-9V342  h4.5v58.5c0,4.971,4.029,9,9,9s9-4.029,9-9v-58.816c3.88-1.071,6.75-4.835,6.75-9.326v-48.215C270,278.817,265.971,274.5,261,274.5z  "/>
<path d="M324,274.5h-36c-4.971,0-9,4.317-9,9.643v48.215c0,4.491,2.87,8.255,6.75,9.326V400.5c0,4.971,4.029,9,9,9s9-4.029,9-9V342  h4.5v58.5c0,4.971,4.029,9,9,9s9-4.029,9-9v-58.816c3.88-1.071,6.75-4.835,6.75-9.326v-48.215C333,278.817,328.971,274.5,324,274.5z  "/>
<path d="M387,274.5h-36c-4.971,0-9,4.317-9,9.643v48.215c0,4.491,2.87,8.255,6.75,9.326V400.5c0,4.971,4.029,9,9,9s9-4.029,9-9V342  h4.5v58.5c0,4.971,4.029,9,9,9s9-4.029,9-9v-58.816c3.88-1.071,6.75-4.835,6.75-9.326v-48.215C396,278.817,391.971,274.5,387,274.5z  "/>
<g>
	<rect x="108" y="171" width="27" height="450"/>
	<rect x="477" y="171" width="27" height="450"/>
</g>
<path d="M363.729,545.271c-7.029-7.029-18.428-7.029-25.457,0L324,559.543v-64.542c0-9.941-8.06-18.002-18-18.002  c-9.94,0-18,8.061-18,18.001v64.542l-14.271-14.27c-7.029-7.029-18.427-7.029-25.456,0s-7.029,18.426,0,25.455l44.994,44.995  c0.002,0.001,0.003,0.003,0.005,0.005c1.318,1.318,2.79,2.389,4.357,3.213c6.793,3.57,15.388,2.499,21.099-3.213  c0.002-0.001,0.003-0.003,0.005-0.004l44.995-44.996C370.758,563.698,370.758,552.301,363.729,545.271z"/>
</svg>