<svg xmlns="http://www.w3.org/2000/svg" xmlns:xlink="http://www.w3.org/1999/xlink" xmlns:a="http://ns.adobe.com/AdobeSVGViewerExtensions/3.0/" version="1.1" x="0px" y="0px" width="100px" height="100px" viewBox="-10.286 -18.403 100 100" enable-background="new -10.286 -18.403 100 100" xml:space="preserve">
<defs>
</defs>
<path d="M76.651,40.941L49.243,19.582l-0.068,0.088L24.374,0L7.058,18.87l1.623,1.288L0,27.949l32.202,10.865l2.108,1.672  l0.206-0.225L61.06,60.946L76.651,40.941z M24.179,2.164l23.813,19.022l-8.427,10.813l-4.858,5.248L9.983,17.497L24.179,2.164z"/>
<rect x="26.671" y="22.451" transform="matrix(-0.7797 -0.6262 0.6262 -0.7797 45.583 61.7334)" width="13.963" height="0.793"/>
<rect x="15.75" y="9.844" transform="matrix(0.6637 -0.748 0.748 0.6637 -3.7049 21.8634)" width="13.422" height="10.416"/>
<rect x="25.379" y="24.466" transform="matrix(-0.7797 -0.6262 0.6262 -0.7797 41.4751 64.3177)" width="13.348" height="0.793"/>
<rect x="29.351" y="20.364" transform="matrix(0.6263 -0.7795 0.7795 0.6263 -9.8782 33.2528)" width="0.794" height="13.134"/>
<rect x="21.158" y="11.456" transform="matrix(0.7797 0.6262 -0.6262 0.7797 14.826 -18.4313)" width="24.894" height="0.793"/>
</svg>