<svg xmlns="http://www.w3.org/2000/svg" xmlns:xlink="http://www.w3.org/1999/xlink" xmlns:a="http://ns.adobe.com/AdobeSVGViewerExtensions/3.0/" version="1.1" x="0px" y="0px" width="100px" height="100px" viewBox="-8.007 -24.408 100 100" enable-background="new -8.007 -24.408 100 100" xml:space="preserve">
<defs>
</defs>
<path d="M0,0v56.038h83.854V0H0z M83.039,54.953H0.814V1.493h82.225V54.953z"/>
<rect x="41.993" y="5.834" width="0.748" height="46.676"/>
<rect x="49.661" y="24.846" width="26.187" height="1.493"/>
<rect x="49.661" y="29.173" width="26.187" height="1.493"/>
<rect x="49.661" y="33.801" width="26.187" height="1.493"/>
<rect x="5.188" y="21.589" width="31.718" height="1.493"/>
<rect x="5.188" y="25.593" width="30.904" height="1.493"/>
<rect x="5.188" y="29.92" width="30.905" height="1.493"/>
<rect x="5.188" y="34.548" width="21.678" height="1.493"/>
<rect x="5.187" y="41.916" width="14.759" height="1.492"/>
<path d="M76.934,4.749h-9.498v8.956h9.498V4.749z M76.05,12.315h-7.841V5.984h7.841V12.315z"/>
<rect x="5.187" y="13.705" width="12.045" height="1.492"/>
</svg>