<svg xmlns="http://www.w3.org/2000/svg" xmlns:xlink="http://www.w3.org/1999/xlink" version="1.1" id="Layer_1" x="0px" y="0px" width="100px" height="100px" viewBox="0 0 100 100" enable-background="new 0 0 100 100" xml:space="preserve">
<path d="M98.873,11.507c-1.231-1.437-3.194-1.938-5.406-1.258l-11.936,3.694l0.089-0.996c0.09-0.723,0.173-2.709-1.25-4.406  c-0.794-0.947-2.305-2.075-4.982-2.075c-0.601,0-1.251,0.058-1.93,0.17c-4.396,0.733-25.665,6.135-31.792,7.699L32.93,7.209  c-0.725-0.592-1.666-0.847-2.593-0.705l-18.171,2.81c-0.977,0.151-1.834,0.731-2.338,1.581L0.533,26.59  c-0.392,0.663-0.541,1.441-0.42,2.202c0.026,0.163,2.625,16.496,5.695,32.771c5.77,30.576,8.083,34.776,10.2,35.837  c0.14,0.105,0.292,0.204,0.46,0.294c0.693,0.404,1.51,0.618,2.363,0.618c1.314,0,2.716-0.484,4.284-1.479  c0.004-0.004,0.013-0.01,0.022-0.016c0.251-0.148,0.506-0.307,0.71-0.444c7.028-4.357,54.494-33.394,54.972-33.687  c0.575-0.352,1.029-0.871,1.302-1.489l19.615-44.602c0.115-0.263,0.197-0.542,0.241-0.826  C100.07,15.178,100.26,13.125,98.873,11.507z M16.328,79.922C13.472,67.497,9.82,47.659,6.827,28.931l7.892-13.325l15.174-2.347  l8.888,7.25c0.812,0.664,1.892,0.9,2.909,0.641c9.698-2.488,29.045-7.36,32.854-7.995c0.151-0.025,0.296-0.044,0.429-0.058  l-0.426,4.803c-8.02,2.483-15.485,4.794-15.485,4.794c-0.334,0.103-0.631,0.299-0.86,0.564c-0.343,0.4-8.181,9.522-9.618,11.239  c-1.663,1.038-13.447,5.564-24.168,9.449c-0.937,0.203-4.735,1.215-5.058,4.281C17.79,62.882,16.86,72.954,16.328,79.922z"/>
</svg>