<?xml version="1.0" encoding="utf-8"?>
<!-- Generator: Adobe Illustrator 15.1.0, SVG Export Plug-In . SVG Version: 6.00 Build 0)  -->
<!DOCTYPE svg PUBLIC "-//W3C//DTD SVG 1.1//EN" "http://www.w3.org/Graphics/SVG/1.1/DTD/svg11.dtd">
<svg version="1.1" id="Layer_1" xmlns="http://www.w3.org/2000/svg" xmlns:xlink="http://www.w3.org/1999/xlink" x="0px" y="0px"
	 width="41.939px" height="100px" viewBox="0 0 41.939 100" enable-background="new 0 0 41.939 100" xml:space="preserve">
<path d="M37.945,23.965c-2.206,0-3.994,1.787-3.994,3.994v13.979h-7.987V4.85h-0.015C25.871,2.159,23.679,0,20.97,0
	s-4.901,2.159-4.979,4.851h-0.013v0.132c0,0.003-0.001,0.006-0.001,0.01s0.001,0.006,0.001,0.01v45.924h-7.99V36.946
	c0-2.207-1.789-3.994-3.994-3.994C1.788,32.952,0,34.74,0,36.946V54.92c0,2.207,1.786,3.992,3.989,3.994c0.002,0,0.003,0,0.005,0
	s0.003,0,0.005,0h11.979V100h9.986V49.927c0,0,11.984,0,11.986,0c2.203-0.002,3.989-1.789,3.989-3.994V27.959
	C41.939,25.752,40.151,23.965,37.945,23.965z"/>
</svg>
