<svg xmlns:x="http://ns.adobe.com/Extensibility/1.0/" xmlns:i="http://ns.adobe.com/AdobeIllustrator/10.0/" xmlns:graph="http://ns.adobe.com/Graphs/1.0/" xmlns="http://www.w3.org/2000/svg" xmlns:xlink="http://www.w3.org/1999/xlink" version="1.1" id="Calque_1" x="0px" y="0px" width="100px" height="100px" viewBox="0 0 100 100" enable-background="new 0 0 100 100" xml:space="preserve">
<metadata>
	<sfw xmlns="http://ns.adobe.com/SaveForWeb/1.0/">
		<slices/>
		<sliceSourceBounds height="100.042" width="100.042" y="247.458" x="370.471" bottomLeftOrigin="true"/>
	</sfw>
</metadata>
<g>
	<path fill="#000000" d="M49.992,0C22.366,0-0.029,22.395-0.029,50.021c0,27.625,22.395,50.021,50.021,50.021   s50.021-22.396,50.021-50.021C100.014,22.395,77.618,0,49.992,0z M49.992,94.389c-24.502,0-44.365-19.863-44.365-44.367   c0-1.994,0.144-3.953,0.399-5.876l6.315,9.444h4.524v-5.68h5.396c2.218,0,4.015-1.798,4.015-4.015h4.6l4.812-4.812v-4.459   l-4.76-4.76h-4.844v3.958H21.39c-2.499,0-4.524-2.025-4.524-4.525c0-2.499,2.025-4.524,4.524-4.524v-4.638h-4.185   c8.113-8.896,19.797-14.479,32.787-14.479c12.785,0,24.303,5.417,32.398,14.072l-8.084,4.944c-1.459-1.93-3.773-3.178-6.381-3.178   c-4.414,0-7.992,3.58-7.992,7.994l3.41,1.226l-0.367,1.022l-1.912-0.579l-3.168,2.188l2.037,4.146h1.732   c1.886,0,3.414,1.528,3.414,3.413v4.505h3.439l5.217-2.609c1.441,0,2.609,1.168,2.609,2.609H68.52l8.221,10.935l6.539-6.539h3.311   c1.374,0,2.488,1.112,2.488,2.487l-0.028-0.104c0,1.377,1.115,2.49,2.49,2.49v6.038l1.298,0.822   C87.768,80.456,70.51,94.389,49.992,94.389z"/>
	<path fill="#000000" d="M21.747,62.381c0,2.938,2.381,5.314,5.317,5.314v17.537l4.507,2.205V84.1l8.087-8.088v-3.902   c2.936,0,5.316-2.381,5.316-5.315l0.018-3.787H40.28l-9.219-9.391l-14.196-0.027l4.864,5.005L21.747,62.381z"/>
	<path fill="#000000" d="M53.146,44.278c3.748,0,6.787-3.039,6.787-6.787h-6.787V44.278z"/>
	<path fill="#000000" d="M67.307,47.596H50.714c-1.75,0-3.167,1.417-3.167,3.167v3.043c0,5.271,4.271,9.541,9.54,9.541h4.864V74.63   l4.468,4.47h4.468v-4.922l4.524-4.523v-8.125c1.655,0,2.998-1.342,2.998-3h-2.886L67.307,47.596z"/>
	<path fill="#000000" d="M33.142,14.718l-3.469,5.278l1.968,3.017l0.042,4.738l4.761,4.761l2.85-6.546   c4.63,0,8.383-3.753,8.383-8.381L33.142,14.718z"/>
	<path fill="#000000" d="M72.695,76.385V79.1c1.5,0,2.716-1.218,2.716-2.715V73.67C73.912,73.67,72.695,74.885,72.695,76.385z"/>
	<path fill="#000000" d="M54.504,33.344h3.395V29.95C56.023,29.95,54.504,31.47,54.504,33.344z"/>
</g>
</svg>