<svg xmlns:x="http://ns.adobe.com/Extensibility/1.0/" xmlns:i="http://ns.adobe.com/AdobeIllustrator/10.0/" xmlns:graph="http://ns.adobe.com/Graphs/1.0/" xmlns="http://www.w3.org/2000/svg" xmlns:xlink="http://www.w3.org/1999/xlink" version="1.1" id="Calque_1" x="0px" y="0px" width="100px" height="100px" viewBox="0 0 100 100" enable-background="new 0 0 100 100" xml:space="preserve">
<metadata>
	<sfw xmlns="http://ns.adobe.com/SaveForWeb/1.0/">
		<slices/>
		<sliceSourceBounds height="99.936" width="49.377" y="247.506" x="396.455" bottomLeftOrigin="true"/>
	</sfw>
</metadata>
<path fill="#000000" d="M55.127,18.807v-8.378c0-0.646,0.525-1.172,1.175-1.172h16.054c0.086,0,0.172-0.013,0.25-0.024  c0.006,0,0.013,0,0.019,0c1.618,0,2.708-1.845,2.708-4.59c0-2.744-1.09-4.585-2.708-4.585c-0.006,0-0.013,0-0.019,0  s-0.013,0-0.019,0h-17.14c-5.253,0-9.527,4.274-9.527,9.526v9.239c-9.825,0.739-19.965,4.031-19.965,9.777v8.452  c0,1.517,0.701,2.872,1.926,4.053c-0.001,0.07-0.004,0.136,0.004,0.204l5.34,47.738C33.3,93.55,39.39,99.994,50.347,99.994  c10.952,0,17.042-6.438,17.12-10.941l5.598-47.664c1.418-1.248,2.236-2.696,2.236-4.338V28.6  C75.301,22.808,65.031,19.516,55.127,18.807z M71.762,2.874h0.452c0.13,0.3,0.3,0.909,0.3,1.769c0,0.888-0.176,1.506-0.309,1.796  h-0.434c-0.137-0.291-0.309-0.909-0.309-1.793C71.463,3.783,71.629,3.174,71.762,2.874z M48.735,9.583  c0-3.698,3.011-6.709,6.712-6.709h13.371c-0.109,0.533-0.174,1.127-0.174,1.772c0,0.651,0.063,1.254,0.18,1.793H56.302  c-2.198,0-3.993,1.791-3.993,3.99V35.71c-0.551,0.015-1.113,0.027-1.68,0.027c-0.64,0-1.27-0.012-1.894-0.034V9.583z M55.127,33.234  c2.996,0.176,5.839,0.527,8.344,1.024c-2.425,0.616-5.242,1.079-8.344,1.312V33.234z M45.92,21.645v5.62  c-0.01,1.666-1.191,3.052-2.764,3.377c-0.229,0.021-0.454,0.045-0.682,0.07c-0.004,0-0.009,0-0.014,0  c-3.619,0.388-6.907,1.033-9.542,1.881c-2.628-1.215-4.147-2.636-4.147-3.993C28.771,25.816,35.292,22.46,45.92,21.645z   M45.92,33.246v2.305c-3.02-0.236-5.766-0.693-8.133-1.293C40.23,33.771,42.995,33.425,45.92,33.246z M64.661,88.799  c-0.007,0.055-0.013,0.108-0.013,0.163c0,2.947-4.779,8.216-14.302,8.216c-9.526,0-14.305-5.269-14.305-8.216  c0-0.052-0.003-0.104-0.009-0.157l-5.101-45.588c4.798,2.486,12.388,3.788,19.697,3.788c7.142,0,14.556-1.245,19.364-3.622  L64.661,88.799z M72.484,37.051c0,3.369-9.35,7.136-21.855,7.136c-12.509,0-21.858-3.768-21.858-7.136v-3.638  c4.411,3.366,13.324,5.141,21.858,5.141c8.532,0,17.443-1.774,21.855-5.141V37.051z M68.309,32.608  c-0.078-0.043-0.158-0.076-0.242-0.104c-2.653-0.827-5.955-1.451-9.563-1.824l0.056-0.014c-1.76,0-3.213-1.321-3.432-3.023V21.63  c10.754,0.785,17.357,4.162,17.357,6.97C72.484,29.963,70.957,31.39,68.309,32.608z"/>
</svg>