<svg xmlns:x="http://ns.adobe.com/Extensibility/1.0/" xmlns:i="http://ns.adobe.com/AdobeIllustrator/10.0/" xmlns:graph="http://ns.adobe.com/Graphs/1.0/" xmlns="http://www.w3.org/2000/svg" xmlns:xlink="http://www.w3.org/1999/xlink" version="1.1" id="Calque_1" x="0px" y="0px" width="100px" height="100px" viewBox="0 0 100 100" enable-background="new 0 0 100 100" xml:space="preserve">
<metadata>
	<sfw xmlns="http://ns.adobe.com/SaveForWeb/1.0/">
		<slices/>
		<sliceSourceBounds height="100.005" width="47.881" y="247.668" x="396.337" bottomLeftOrigin="true"/>
	</sfw>
</metadata>
<path fill="#000000" d="M73.638,75.022c-0.044-0.509-0.317-0.972-0.75-1.255l-14.995-9.767V36.162  c1.851-1.935,3.018-4.525,3.117-7.384c7.534-4.033,12.673-11.979,12.673-21.106c0-5.39-12.4-7.845-23.922-7.845  S25.837,2.282,25.837,7.672c0,9.127,5.139,17.073,12.674,21.106c0.098,2.858,1.266,5.449,3.117,7.384v27.906l-14.665,9.707  c-0.002,0.002-0.003,0.003-0.005,0.005c-0.009,0.005-0.018,0.012-0.027,0.019c-0.071,0.05-0.136,0.104-0.198,0.164  c-0.016,0.015-0.031,0.028-0.046,0.045c-0.064,0.066-0.125,0.138-0.176,0.214c-0.01,0.014-0.018,0.029-0.027,0.043  c-0.045,0.071-0.083,0.143-0.118,0.218c-0.008,0.018-0.018,0.035-0.025,0.053c-0.035,0.087-0.062,0.175-0.083,0.267  c-0.005,0.021-0.008,0.044-0.012,0.066c-0.018,0.096-0.03,0.193-0.03,0.293c0,0.001,0,0.002,0,0.004v0.002v8.16  c0,0.558,0.279,1.079,0.743,1.39l22.254,14.835c0.28,0.187,0.604,0.28,0.926,0.28c0.321,0,0.642-0.092,0.921-0.276L72.97,85.062  c0.468-0.31,0.749-0.831,0.749-1.392v-8.16C73.719,75.34,73.686,75.178,73.638,75.022z M44.973,72.09  c0-0.018-0.005-0.035-0.005-0.053V38.573c0.982,0.464,2.042,0.791,3.156,0.953c-0.021,0.106-0.034,0.215-0.034,0.327V76.57  C46.273,75.892,44.973,74.142,44.973,72.09z M51.396,39.526c1.113-0.163,2.174-0.489,3.156-0.953v33.471  c0,0.015-0.004,0.03-0.004,0.046c0,2.052-1.301,3.802-3.119,4.48V39.853C51.43,39.741,51.418,39.632,51.396,39.526z M34.471,4.915  c4.062-1.127,9.492-1.748,15.289-1.748c5.798,0,11.228,0.621,15.29,1.748c4.352,1.208,5.294,2.501,5.294,2.758  c0,0.255-0.942,1.55-5.294,2.757c-4.062,1.127-9.492,1.749-15.29,1.749c-5.797,0-11.227-0.621-15.289-1.749  c-4.352-1.208-5.295-2.502-5.295-2.757C29.176,7.416,30.119,6.122,34.471,4.915z M29.686,12.206  c4.564,2.253,12.509,3.312,20.075,3.312s15.51-1.059,20.074-3.312C67.763,21.38,59.553,28.256,49.76,28.256  C39.968,28.256,31.757,21.38,29.686,12.206z M49.76,31.596c2.686,0,5.267-0.452,7.679-1.272c-0.867,3.434-3.98,5.984-7.679,5.984  c-3.699,0-6.813-2.55-7.679-5.984C44.493,31.144,47.075,31.596,49.76,31.596z M41.628,68.072v4.018c0,0.023,0.006,0.045,0.007,0.068  c0.037,4.449,3.667,8.059,8.125,8.059c4.462,0,8.093-3.614,8.125-8.066c0.002-0.021,0.007-0.04,0.007-0.061v-4.103l11.06,7.202  l-19.021,12.8L30.893,75.18L41.628,68.072z M50.143,96.158L29.555,82.434v-4.13L49,91.388c0.282,0.19,0.606,0.284,0.932,0.284  c0.325,0,0.651-0.094,0.932-0.284l19.516-13.133v4.518L50.143,96.158z"/>
</svg>