<svg xmlns:x="http://ns.adobe.com/Extensibility/1.0/" xmlns:i="http://ns.adobe.com/AdobeIllustrator/10.0/" xmlns:graph="http://ns.adobe.com/Graphs/1.0/" xmlns="http://www.w3.org/2000/svg" xmlns:xlink="http://www.w3.org/1999/xlink" version="1.1" id="Calque_1" x="0px" y="0px" width="100px" height="100px" viewBox="0 0 100 100" enable-background="new 0 0 100 100" xml:space="preserve">
<metadata>
	<sfw xmlns="http://ns.adobe.com/SaveForWeb/1.0/">
		<slices/>
		<sliceSourceBounds height="89.73" width="99.609" y="252" x="370.891" bottomLeftOrigin="true"/>
	</sfw>
</metadata>
<path fill="#000000" d="M100,41.894c0-6.156-3.95-11.423-9.502-13.517c-0.354-5.205-0.873-9.649-1.523-12.971  c-0.447-2.287-0.952-4.048-1.545-5.385c-1.638-3.699-4.194-4.251-5.573-4.251c-0.015,0-0.029,0.001-0.044,0.001  c-0.274-0.003-0.55,0.018-0.824,0.066c-1,0.154-1.9,0.583-2.697,1.283l-22.03,13.486H21.672c-11.734,0-21.281,9.548-21.281,21.285  c0,9.264,5.95,17.163,14.229,20.079c0.289,7.947,1.629,15.373,3.848,21.185c1.331,3.488,2.939,6.29,4.78,8.329  c2.995,3.32,6.07,4.017,8.122,4.017h12.31c1.672,0,3.203-0.938,3.97-2.424c0.767-1.486,0.637-3.28-0.332-4.645  c-0.086-0.121-7.846-11.187-9.305-25.259h18.46l21.789,13.648c1.279,1.014,2.588,1.196,3.362,1.196c1.364,0,3.905-0.547,5.593-4.212  c0.626-1.357,1.165-3.139,1.647-5.444c0.715-3.421,1.271-7.854,1.629-12.949C96.048,53.318,100,48.05,100,41.894z M28.837,54.232  h-5.208V29.546h5.208V54.232z M35.905,86.56h-4.536c-0.637,0-2.666-1.66-4.548-6.593c-1.713-4.488-2.833-10.44-3.193-16.794h5.405  C29.853,72.747,33.133,81.048,35.905,86.56z M57.758,54.232h-19.98V29.546h19.743c0.824,0,1.631-0.227,2.334-0.658l13.79-8.441  c-0.868,6.047-1.343,13.581-1.343,21.447c0,7.93,0.438,15.453,1.238,21.419l-13.409-8.399C59.42,54.468,58.597,54.232,57.758,54.232  z M85.181,47.437h-3.862c-0.049-1.756-0.075-3.604-0.075-5.542c0-1.863,0.03-3.719,0.086-5.543h3.852  c3.242,0,5.879,2.486,5.879,5.543C91.06,44.95,88.422,47.437,85.181,47.437z"/>
</svg>