<svg xmlns="http://www.w3.org/2000/svg" xmlns:xlink="http://www.w3.org/1999/xlink" version="1.1" id="Layer_1" x="0px" y="0px" width="100px" height="100px" viewBox="0 0 100 100" enable-background="new 0 0 100 100" xml:space="preserve">
<path d="M51.338,89.031c0.103,1.881,0.174,3.098,0.174,3.098s-0.777,1.16-2.827,1.16c-2.138,0-2.827-1.16-2.827-1.16  s0.072-1.217,0.175-3.098c-11.839,0.152-20.699,1.498-20.699,3.136c0,1.74,10.453,3.15,23.347,3.15  c12.895,0,23.347-1.41,23.347-3.15C72.026,90.529,63.174,89.186,51.338,89.031z"/>
<path fill="#000000" d="M72.02,9.184c0-0.163-0.092-0.323-0.269-0.48c-1.71-1.517-11.385-2.7-23.071-2.7  c-11.521,0-21.077,1.125-22.982,2.606c-0.227,0.176-0.352,0.357-0.352,0.543c0,0.016-0.005,0.031-0.003,0.046  c0,0-0.009,0.294-0.009,0.441c0,11.177,3.21,22.57,8.263,30.517c0.036,0.056,0.071,0.115,0.107,0.171  c0.21,0.327,0.425,0.644,0.642,0.958c0.068,0.1,0.136,0.202,0.205,0.3c0.199,0.284,0.403,0.559,0.607,0.832  c0.092,0.123,0.183,0.247,0.275,0.367c0.191,0.249,0.386,0.489,0.582,0.729c0.111,0.136,0.222,0.272,0.334,0.405  c0.186,0.218,0.373,0.43,0.562,0.64c0.128,0.143,0.257,0.284,0.387,0.422c0.18,0.191,0.361,0.378,0.544,0.562  c0.144,0.144,0.288,0.285,0.434,0.424c0.176,0.168,0.354,0.333,0.532,0.493c0.156,0.14,0.313,0.275,0.471,0.409  c0.175,0.148,0.35,0.294,0.527,0.435c0.06,0.047,0.118,0.1,0.178,0.147c0.162,0.125,0.326,0.242,0.489,0.361  c0.077,0.056,0.153,0.116,0.231,0.17c0.306,0.215,0.615,0.417,0.926,0.608c0.099,0.061,0.198,0.118,0.298,0.176  c0.239,0.14,0.479,0.273,0.721,0.399c0.101,0.053,0.201,0.106,0.302,0.156c0.318,0.157,0.639,0.304,0.963,0.436  c0.085,0.035,0.171,0.063,0.257,0.096c0.255,0.098,0.51,0.188,0.768,0.27c0.116,0.037,0.233,0.073,0.35,0.107  c0.284,0.082,0.569,0.153,0.856,0.215c0.061,0.013,0.12,0.03,0.181,0.042h0c0.206,3.651,0.845,15.306,0.845,20.258  c0,5.913-0.909,21.377-0.909,21.377s0.938,0.757,2.425,0.757c1.456,0,2.425-0.757,2.425-0.757s-0.908-15.464-0.908-21.377  c0-4.953,0.639-16.61,0.847-20.26c0.069-0.014,0.138-0.035,0.207-0.05c0.27-0.059,0.538-0.125,0.805-0.202  c0.128-0.037,0.256-0.076,0.384-0.117c0.238-0.076,0.476-0.16,0.711-0.25c0.102-0.039,0.204-0.074,0.306-0.115  c0.316-0.129,0.63-0.272,0.941-0.426c0.11-0.054,0.219-0.113,0.329-0.17c0.23-0.121,0.46-0.248,0.688-0.381  c0.106-0.063,0.214-0.124,0.32-0.189c0.308-0.19,0.613-0.389,0.916-0.602c0.08-0.057,0.159-0.119,0.239-0.177  c0.161-0.117,0.323-0.232,0.482-0.356c0.059-0.046,0.116-0.098,0.175-0.144c0.182-0.144,0.361-0.294,0.541-0.447  c0.15-0.128,0.301-0.257,0.449-0.391c0.188-0.167,0.373-0.34,0.559-0.517c0.134-0.129,0.268-0.259,0.4-0.392  c0.194-0.195,0.388-0.394,0.579-0.598c0.116-0.124,0.231-0.25,0.346-0.378c0.203-0.224,0.403-0.451,0.602-0.685  c0.098-0.115,0.192-0.232,0.289-0.349c0.211-0.257,0.42-0.517,0.627-0.785c0.074-0.098,0.148-0.199,0.223-0.297  c0.222-0.295,0.441-0.593,0.657-0.9c0.05-0.071,0.098-0.144,0.146-0.215c0.236-0.341,0.47-0.687,0.699-1.043  c0.01-0.016,0.02-0.033,0.03-0.049c5.091-7.951,8.328-19.396,8.328-30.622C72.026,9.494,72.02,9.2,72.02,9.184z M48.683,12.029  c-11.058,0-20.301-1.016-22.612-2.374c-0.148-0.129-0.23-0.261-0.23-0.396c0-1.551,10.227-2.809,22.842-2.809  c12.616,0,22.844,1.258,22.844,2.809c0,0.134-0.081,0.266-0.229,0.395C68.99,11.013,59.744,12.029,48.683,12.029z"/>
</svg>