<svg xmlns="http://www.w3.org/2000/svg" xmlns:xlink="http://www.w3.org/1999/xlink" version="1.1" id="Layer_3" x="0px" y="0px" width="77.2727272727px" height="100px" viewBox="0 0 612 792" enable-background="new 0 0 612 792" xml:space="preserve">
<polygon fill="#000000" points="108.5,288.5 306.5,207.5 504.5,288.5 504.5,324.5 306.5,243.5 108.5,324.5 "/>
<polygon fill="#000000" points="108.5,216.5 306.5,135.5 504.5,216.5 504.5,252.5 306.5,171.5 108.5,252.5 "/>
<circle fill="#000000" cx="266" cy="338" r="31.5"/>
<path fill="#000000" d="M397.592,461.234c5.35-5.35,7.979-12.384,7.901-19.393c0.062-4.698-1.095-9.475-3.614-13.839  c-2.08-3.603-4.866-6.542-8.08-8.75l-59.847-59.845c-0.015-0.015-0.03-0.028-0.045-0.043c-0.225-0.222-0.454-0.438-0.688-0.652  c-0.114-0.107-0.229-0.217-0.346-0.322c-0.144-0.128-0.292-0.251-0.438-0.377c-0.219-0.188-0.438-0.376-0.66-0.556  c-0.022-0.018-0.047-0.036-0.068-0.054c-2.534-2.029-5.349-3.533-8.3-4.515c-0.039-0.013-0.841-0.268-1.205-0.371  c-0.113-0.032-0.228-0.061-0.339-0.092c-0.293-0.078-0.585-0.153-0.88-0.222c-0.171-0.04-0.344-0.076-0.515-0.112  c-0.241-0.051-0.482-0.101-0.726-0.145c-0.21-0.039-0.42-0.073-0.631-0.106c-0.209-0.033-1.095-0.153-1.326-0.177  c-0.196-0.021-0.394-0.042-0.588-0.059c-0.237-0.021-0.475-0.037-0.71-0.051c-0.2-0.012-1.051-0.043-1.275-0.046  c-0.219-0.002-0.438-0.003-0.656-0.001c-0.198,0.002-0.397,0.007-0.597,0.014c-0.25,0.008-0.499,0.02-0.749,0.035  c-0.163,0.01-0.326,0.022-0.489,0.035c-0.288,0.023-0.575,0.05-0.862,0.082c-0.121,0.014-0.241,0.028-0.361,0.043  c-0.329,0.041-0.657,0.088-0.984,0.141c-0.078,0.013-0.155,0.026-0.233,0.04c-0.366,0.062-0.731,0.133-1.097,0.211  c-0.039,0.008-0.078,0.017-0.116,0.025c-0.396,0.087-0.79,0.183-1.184,0.287c-0.011,0.003-0.021,0.006-0.032,0.009  c-1.235,0.331-2.452,0.751-3.64,1.26c-0.013,0.005-0.025,0.011-0.038,0.017c-0.371,0.16-0.74,0.328-1.104,0.505  c-0.048,0.023-0.096,0.047-0.144,0.071c-0.324,0.16-0.645,0.325-0.963,0.498c-0.099,0.054-0.197,0.109-0.295,0.165  c-0.262,0.147-0.523,0.296-0.781,0.453c-0.163,0.099-0.324,0.202-0.486,0.304c-0.188,0.12-0.377,0.239-0.563,0.364  c-0.238,0.159-0.472,0.325-0.706,0.492c-0.107,0.077-0.215,0.152-0.321,0.23c-0.313,0.231-0.622,0.471-0.926,0.717  c-0.028,0.023-0.057,0.045-0.086,0.068c-1.395,1.136-2.689,2.422-3.855,3.854c-0.011,0.013-0.023,0.026-0.034,0.04  c-0.203,0.25-0.397,0.507-0.592,0.765c-0.094,0.125-0.192,0.248-0.284,0.373c-0.106,0.146-0.207,0.296-0.31,0.445  c-0.17,0.243-0.34,0.486-0.501,0.733c-0.042,0.064-0.081,0.13-0.122,0.194c-0.212,0.331-0.418,0.665-0.614,1.003  c-0.005,0.008-0.01,0.016-0.015,0.024L257.701,423.5L212,423.501c-7.456-0.001-13.499,6.043-13.5,13.5  c0,7.455,6.045,13.499,13.5,13.499h54v-0.013c4.662-0.004,9.195-2.412,11.693-6.739l23.51-40.721l39.529,39.529l-40.979,23.786  c-7.42,4.282-11.475,12.153-11.243,20.156H288.5v90c0,9.941,8.059,18,18,18c9.941,0,18-8.059,18-18V504.01l62.559-36.262  C390.908,466.466,394.527,464.298,397.592,461.234z"/>
<path fill="#000000" d="M185,477.5c-47.22,0-85.5,38.278-85.5,85.5s38.28,85.5,85.5,85.5c47.222,0,85.5-38.278,85.5-85.5  S232.222,477.5,185,477.5z M185,626c-34.794,0-63-28.205-63-63s28.206-63,63-63c34.795,0,63,28.205,63,63S219.795,626,185,626z"/>
<path fill="#000000" d="M428,477.5c-47.221,0-85.5,38.278-85.5,85.5s38.279,85.5,85.5,85.5c47.222,0,85.5-38.278,85.5-85.5  S475.222,477.5,428,477.5z M428,626c-34.794,0-63-28.205-63-63s28.206-63,63-63c34.795,0,63,28.205,63,63S462.795,626,428,626z"/>
</svg>