<svg xmlns="http://www.w3.org/2000/svg" xmlns:xlink="http://www.w3.org/1999/xlink" version="1.1" id="Layer_1" x="0px" y="0px" width="90.1204819277px" height="100px" viewBox="0 0 374 415.5" enable-background="new 0 0 374 415.5" xml:space="preserve">
<path d="M167.835,145.902C158.35,45.003,148.805,7.576,89.941,17.127c-56.424,9.155-84.915,42.289-75.43,143.188  c9.485,100.899,49.558,181.659,106.469,176.309C177.891,331.275,177.32,246.801,167.835,145.902z M161.79,149.343  c-0.891,36.283-21.935,68.328-33.356,72.856c-11.419,4.528-16.824-0.179-11.238-15.581c5.585-15.401,40.605-46.275,36.292-59.875  c-4.312-13.6-15.453-31.413-25.488-42.47C117.964,93.216,92.22,72.527,85.221,72.22c-7.701-0.338-57.734,68.993-55.546,83.06  c2.188,14.066,31.814,42.188,32.773,52.289c0.959,10.101,4.337,13.043-0.661,15.059c-4.998,2.016-24.279-6.095-36.135-39.584  c-11.857-33.489-5.561-65.065,5.046-83.04c10.608-17.975,33.484-43.793,46.377-49.934c0,0-1.106-6.754,3.817-7.097  c4.925-0.342,4.632,6.35,4.632,6.35s16.198-1.524,45.774,27.714C160.876,106.275,162.684,113.06,161.79,149.343z"/>
<path d="M286.79,90.434c-58.33-12.404-69.684,24.515-84.066,124.833c-14.381,100.318-19.06,184.664,37.523,192.776  c56.584,8.111,100.537-70.604,114.919-170.922C369.547,136.803,342.702,102.322,286.79,90.434z M342.934,259.279  c-13.47,32.873-33.125,40.037-38.019,37.78c-4.894-2.256-1.377-5.031,0.074-15.073c1.448-10.042,32.407-36.689,35.275-50.633  c2.87-13.943-43.731-85.625-51.439-85.663c-7.006-0.034-33.727,19.378-44.287,29.934c-10.561,10.557-22.557,27.806-27.523,41.18  c-4.971,13.375,28.507,45.915,33.336,61.569c4.831,15.656-0.797,20.094-11.983,15.016s-30.647-38.109-29.771-74.393  c0.873-36.284,3.007-42.973,33.972-70.738c30.963-27.765,47.068-25.455,47.068-25.455s0.032-6.699,4.936-6.117  c4.9,0.582,3.467,7.274,3.467,7.274c12.58,6.76,34.174,33.661,43.896,52.13C351.652,194.562,356.406,226.406,342.934,259.279z"/>
</svg>