<svg xmlns="http://www.w3.org/2000/svg" xmlns:xlink="http://www.w3.org/1999/xlink" version="1.1" id="Layer_1" x="0px" y="0px" width="100px" height="100px" viewBox="-346 256 100 100" enable-background="new -346 256 100 100" xml:space="preserve">
<path d="M-325.548,283.064c-0.736,3.183-1.571,11.5-1.571,11.5l-7.954,20.077c-0.159,0.357-0.235,0.77-0.235,1.194  c0,1.694,1.369,3.071,3.071,3.071h5.118v10.666c0,8.32,6.729,15.06,15.04,15.06h2.649l16.177-0.027v-88.57  C-308.84,257.954-322.509,269.941-325.548,283.064z M-318.367,302.164c-2.055,0-3.721-1.667-3.721-3.721  c0-2.056,1.666-3.72,3.721-3.72s3.721,1.665,3.721,3.72C-314.646,300.498-316.312,302.164-318.367,302.164z"/>
<path fill="#000000" stroke="#FFFFFF" stroke-width="2.02" stroke-linecap="round" stroke-linejoin="round" d="M-311.515,350.445"/>
<path d="M-287.818,260.97c-1.003,0-1.279,0.051-2.268,0.146v86.63h-16.244V356h39.817v-33.397  c8.027-6.312,13.189-16.125,13.189-27.126C-253.323,276.416-268.758,260.97-287.818,260.97z"/>
</svg>