<svg xmlns="http://www.w3.org/2000/svg" xmlns:xlink="http://www.w3.org/1999/xlink" version="1.1" id="Layer_1" x="0px" y="0px" width="100px" height="99.988px" viewBox="0 0 100 99.988" enable-background="new 0 0 100 99.988" xml:space="preserve">
<path d="M61.912,76.213c-10.18,0-19.749-3.964-26.945-11.162c-7.197-7.196-11.162-16.767-11.162-26.944  c0-10.179,3.965-19.748,11.162-26.945C42.162,3.963,51.73,0,61.911,0C72.09,0,81.659,3.963,88.855,11.162  c14.857,14.855,14.857,39.031,0.002,53.889C81.66,72.25,72.091,76.213,61.912,76.213L61.912,76.213z M61.912,9.927  c-7.528,0-14.605,2.93-19.926,8.252c-10.988,10.988-10.988,28.867,0,39.855c5.323,5.321,12.398,8.252,19.927,8.252  c7.527,0,14.604-2.931,19.927-8.252c5.322-5.323,8.254-12.401,8.254-19.929s-2.932-14.603-8.255-19.927  C76.516,12.858,69.438,9.927,61.912,9.927L61.912,9.927z"/>
<polygon points="7.742,99.988 0,92.248 27.928,64.319 35.67,72.06 "/>
</svg>