<svg xmlns="http://www.w3.org/2000/svg" xmlns:xlink="http://www.w3.org/1999/xlink" version="1.1" baseProfile="basic" id="Layer_1" x="0px" y="0px" width="100px" height="100px" viewBox="0 0 100 100" xml:space="preserve">
<g>
	<rect x="19.704" y="11.094" width="57.949" height="77.83"/>
	<path d="M82.75,0.516L14.511,0.573c-2.462,0-4.458,1.996-4.458,4.458v89.954c0,2.459,1.996,4.459,4.458,4.459l68.796-0.058   c2.462,0,3.901-2,3.901-4.459V4.974C87.209,2.512,85.213,0.516,82.75,0.516z M85.67,94.001c0,2.15-1.75,3.9-3.902,3.9H55.715   c-2.152,0-3.901-1.75-3.901-3.9v-0.419H51.28c0.005,0.069,0.021,0.136,0.021,0.206c0,1.446-1.174,2.618-2.623,2.618   s-2.624-1.172-2.624-2.618c0-0.07,0.015-0.137,0.021-0.206h-0.532v0.419c0,2.15-1.751,3.9-3.901,3.9H15.587   c-2.151,0-3.901-1.75-3.901-3.9V5.806c0-2.151,1.75-3.901,3.901-3.901h66.18c2.152,0,3.902,1.75,3.902,3.901V94.001z"/>
	<path d="M48.678,90.645c-1.537,0-3.134,1.403-3.134,2.938h0.532c0.107-1.354,1.225-2.419,2.603-2.419s2.496,1.065,2.602,2.419   h0.533C51.813,92.048,50.214,90.645,48.678,90.645z"/>
	<path d="M48.135,94.484h1.115c0.078,0,0.139-0.063,0.139-0.141v-0.762h-1.393v0.762C47.997,94.421,48.06,94.484,48.135,94.484z"/>
	<path d="M49.39,93.229c0-0.079-0.062-0.139-0.139-0.139h-1.115c-0.076,0-0.139,0.06-0.139,0.139v0.353h1.393V93.229z"/>
	<circle cx="48.678" cy="6.796" r="0.59"/>
	<path d="M81.768,3.02h-66.18c-1.537,0-2.787,1.25-2.787,2.786v88.195c0,1.535,1.25,2.786,2.787,2.786h26.055   c1.536,0,2.786-1.251,2.786-2.786v-0.419c0-0.175,0.015-0.345,0.038-0.515c0.005-0.043,0.011-0.083,0.02-0.126   c0.025-0.152,0.057-0.3,0.099-0.444c0.005-0.016,0.008-0.031,0.013-0.047c0.049-0.164,0.111-0.32,0.181-0.472   c0.012-0.029,0.025-0.056,0.039-0.083c0.068-0.144,0.145-0.282,0.23-0.414c0.005-0.006,0.009-0.016,0.015-0.022   c0.097-0.149,0.203-0.289,0.319-0.424c0.004-0.004,0.01-0.01,0.014-0.014c0.356-0.41,0.794-0.74,1.29-0.971H19.35   c-0.462,0-0.837-0.373-0.837-0.835V10.773c0-0.462,0.375-0.836,0.837-0.836h58.657c0.461,0,0.836,0.374,0.836,0.836v78.443   c0,0.462-0.375,0.835-0.836,0.835H50.67c0.333,0.154,0.641,0.355,0.914,0.594c0,0,0,0,0.001,0c0.133,0.116,0.257,0.243,0.375,0.373   c0.003,0.008,0.009,0.014,0.014,0.018c0.114,0.135,0.222,0.274,0.318,0.424c0.007,0.007,0.012,0.017,0.018,0.022   c0.084,0.136,0.159,0.271,0.229,0.414c0.014,0.027,0.026,0.054,0.038,0.083c0.07,0.151,0.133,0.308,0.183,0.472   c0.004,0.016,0.007,0.031,0.011,0.047c0.043,0.145,0.076,0.292,0.1,0.444c0.007,0.043,0.017,0.083,0.021,0.126   c0.023,0.17,0.039,0.34,0.039,0.515v0.419c0,1.535,1.249,2.786,2.786,2.786h26.053c1.537,0,2.787-1.251,2.787-2.786V5.806   C84.555,4.271,83.305,3.02,81.768,3.02z M50.203,6.843c0,0.84-0.684,1.525-1.525,1.525c-0.842,0-1.526-0.686-1.526-1.525V4.83   c0-0.841,0.684-1.526,1.526-1.526c0.841,0,1.525,0.685,1.525,1.526V6.843z"/>
	<path d="M48.678,3.583c-0.688,0-1.247,0.559-1.247,1.247v2.014c0,0.688,0.559,1.247,1.247,1.247c0.688,0,1.247-0.559,1.247-1.247   V4.83C49.925,4.142,49.366,3.583,48.678,3.583z M49.747,6.787c0,0.589-0.479,1.068-1.068,1.068c-0.59,0-1.069-0.479-1.069-1.068   V4.885c0-0.59,0.479-1.069,1.069-1.069c0.589,0,1.068,0.479,1.068,1.069V6.787z"/>
</g>
</svg>