<svg xmlns="http://www.w3.org/2000/svg" xmlns:xlink="http://www.w3.org/1999/xlink" version="1.1" id="Layer_1" x="0px" y="0px" width="100px" height="100px" viewBox="-346 256 100 100" enable-background="new -346 256 100 100" xml:space="preserve">
<circle cx="-316.286" cy="264.201" r="8.126"/>
<g>
	<circle cx="-477.799" cy="283.509" r="4.971"/>
	<path d="M-483.97,336.678c0,1.537,1.248,2.785,2.785,2.785c1.542,0,2.506-1.248,2.506-2.785l0.004-23.381l1.599,0.01l-0.008,23.447   c0,1.537,1.172,2.709,2.711,2.709c1.538,0,2.786-1.248,2.786-2.785l0.012-40.308h1.598v14.855c0,2.986,3.897,2.986,3.89,0v-15.171   c0-3.301-2.315-6.537-6.178-6.537l-11.143-0.004c-3.519,0-6.242,2.869-6.242,6.449v15.263c0,2.965,3.919,2.965,3.919,0V296.37   h1.768L-483.97,336.678z"/>
</g>
<path fill="#000000" d="M-145.584,286.704c3.857,0,6.974-3.115,6.974-6.949c0-3.858-3.116-6.973-6.974-6.973  c-3.834,0-6.949,3.115-6.949,6.973C-152.533,283.589-149.418,286.704-145.584,286.704"/>
<path fill="#000000" d="M-93.849,306.762l-7.381-1.415l-4.289,8.531c0.694,0.168,1.414,0.24,2.156,0.24  C-98.783,314.118-94.949,311.003-93.849,306.762 M-184.5,321.163c0-5.654,4.578-10.256,10.231-10.256h21.593v-15.504  c0-3.858,3.113-6.973,6.973-6.973c3.856,0,6.973,3.115,6.973,6.973v2.396l10.281,2.636c1.797,0.408,2.947,2.205,2.539,4.002  c-0.407,1.821-2.204,2.947-4.025,2.539l-8.795-2.061v5.991h10.354l28.322-29.307l-0.839,7.62l13.947,9.273  c2.3,1.318,3.139,4.289,1.819,6.602c-1.029,1.833-3.092,2.72-5.031,2.36l-1.127-0.215c-1.342,5.438-6.254,9.44-12.077,9.44  c-1.149,0-2.275-0.166-3.33-0.455l-10.567,21.58v29.629c0,2.541-2.085,4.602-4.625,4.602c-2.539,0-4.601-2.061-4.601-4.602v-30.288  h-23.315l-4.171,7.141l8.724,20.8c1.27,2.229,0.479,5.032-1.726,6.278c-2.229,1.271-5.032,0.479-6.303-1.749l-10.185-23.986v-7.645  l-4.553,7.165v22.284c0,2.541-2.062,4.602-4.601,4.602c-2.541,0-4.625-2.061-4.625-4.602v-25.735l3.811-5.967v-20.2l-3.786,5.799  v16.822h-7.285V321.163z"/>
<g>
	<circle cx="-429.466" cy="283.509" r="4.971"/>
	<path d="M-435.637,336.678c0,1.537,1.248,2.785,2.785,2.785c1.542,0,2.506-1.248,2.506-2.785l0.004-23.381l1.599,0.01   l-0.008,23.447c0,1.537,1.172,2.709,2.711,2.709c1.538,0,2.786-1.248,2.786-2.785l0.012-40.308h1.598v14.855   c0,2.986,3.897,2.986,3.89,0v-15.171c0-3.301-2.315-6.537-6.178-6.537l-11.143-0.004c-3.519,0-6.242,2.869-6.242,6.449v15.263   c0,2.965,3.919,2.965,3.919,0V296.37h1.768L-435.637,336.678z"/>
</g>
<path fill="#000000" d="M-388.273,319.117v-10.202c0-3.395-2.75-6.158-6.144-6.158h-27.556l-1.277-1.321l0.141,17.076h14  l2.505,4.288l-5.239,12.489c-0.762,1.339-0.286,3.021,1.037,3.771c1.338,0.762,3.021,0.287,3.785-1.051l6.114-14.402v-4.591  l2.733,4.303v13.381c0,1.525,1.239,2.763,2.764,2.763c1.525,0,2.776-1.237,2.776-2.763v-15.454l-2.288-3.582v-12.129l2.273,3.482  v10.102H-388.273z"/>
<path d="M-253.854,324.834V309.37c0-5.143-5.184-9.333-10.329-9.333h-28.868v8.594c0.006,2-0.874,3.664-2.414,4.559  c-0.759,0.438-1.631,0.658-2.501,0.658c-0.867,0-1.735-0.218-2.492-0.653c-1.548-0.891-2.435-2.557-2.435-4.563v-8.594h-2.508  l0.004-14.814l4.248,0.011v14.803h-0.007v8.594c0,1.391,0.557,2.477,1.565,3.058c0.991,0.57,2.268,0.566,3.255-0.003  c1.002-0.581,1.551-1.666,1.547-3.051v-8.598h-0.002v-15.514c0-6.443-3.801-10.503-11.735-10.503l-19.806-0.006  c-6.792,0-11.253,3.658-11.253,10.542v24.951c0,4.847,6.406,4.847,6.406,0v-24.283h3.939l-0.01,65.891  c0,2.513,2.04,4.553,4.553,4.553c2.521,0,4.096-2.04,4.096-4.553l0.007-27.465l4.205,0.03l-0.013,27.559  c0,2.514,1.916,4.429,4.432,4.429c2.514,0,4.554-2.04,4.554-4.553l0.008-27.198h18.96l3.795,6.499l-7.94,18.926  c-1.152,2.03-0.434,4.581,1.57,5.715c2.03,1.154,4.582,0.435,5.739-1.591l9.267-21.829v-6.957l4.143,6.522v20.279  c0,2.312,1.878,4.185,4.187,4.185c2.312,0,4.208-1.873,4.208-4.185v-23.424l-3.467-5.426v-18.386l4.464,5.276v15.312H-253.854z"/>
<path fill="#000000" stroke="#FFFFFF" stroke-width="0.8687" d="M-241.432,303.083v7.809c0,3.28,4.762,3.28,4.752,0v-7.74"/>
</svg>