<svg xmlns:x="http://ns.adobe.com/Extensibility/1.0/" xmlns:i="http://ns.adobe.com/AdobeIllustrator/10.0/" xmlns:graph="http://ns.adobe.com/Graphs/1.0/" xmlns="http://www.w3.org/2000/svg" xmlns:xlink="http://www.w3.org/1999/xlink" xmlns:a="http://ns.adobe.com/AdobeSVGViewerExtensions/3.0/" version="1.0" id="Layer_1" x="0px" y="0px" width="100px" height="100px" viewBox="0 0 100 100" enable-background="new 0 0 100 100" xml:space="preserve">
<g>
	<polygon points="48.727,71.584 48.727,63.643 45.259,70.402  "/>
	<polygon points="51.431,63.475 51.431,71.613 54.985,70.402  "/>
	<path d="M50.713,77.372c0.126-0.148,0.211-0.334,0.211-0.544v-2.722l6.25-2.129c0.232-0.08,0.419-0.254,0.512-0.482   c0.091-0.229,0.08-0.484-0.032-0.702l-6.721-13.104c0-0.001-0.001-0.001-0.001-0.002l-0.007-0.016V54.67   c0-0.467-0.379-0.845-0.845-0.845c-0.467,0-0.846,0.378-0.846,0.845v3.17l-6.643,12.953c-0.113,0.218-0.125,0.474-0.032,0.702   c0.092,0.229,0.279,0.402,0.511,0.482l6.164,2.101v2.75c0,0.21,0.084,0.396,0.211,0.544v4.455h-5.046   c1.006,1.769,3.192,2.997,5.731,2.997c2.541,0,4.727-1.229,5.732-2.997h-5.149V77.372z M50.924,61.375l4.778,9.318l-4.778,1.629   V61.375z M49.233,72.293l-4.693-1.6l4.693-9.151V72.293z"/>
	<path d="M53.265,29.908l-0.337-3.534h-5.925l-0.336,3.534h-6.315l5.757,5.854l-1.34,14.05h5.197h5.196l-1.339-14.05l5.756-5.854   H53.265z M46.847,37.876l0.78-10.566h4.675l0.78,10.566H46.847z"/>
	<circle cx="71.174" cy="40.37" r="1.083"/>
	<circle cx="31.305" cy="18.211" r="1.471"/>
	<circle cx="50.081" cy="16.15" r="1.244"/>
	<path d="M93.352,81.827l-2.264-4.831c0.053-0.187,0.05-0.391-0.04-0.581l-9.148-19.523l-9.113-4.064V52.27h-4.093h-5.148v-1.208   h1.198v-0.364h6.61l5.352-3.066v-2.519v-4.45v-2.52l-5.352-2.727h-6.61V24.121l-2.641-2.561h-9.082v-1.465h1.783v-1.181h-1.548   c0.648-0.743,1.055-1.702,1.055-2.763c0-2.333-1.897-4.229-4.23-4.229c-2.332,0-4.229,1.897-4.229,4.229   c0,1.061,0.406,2.021,1.054,2.763h-1.499v1.181h1.759v1.465h-9.102l-0.047,0.046h-4.324c1.067-0.754,1.771-1.991,1.771-3.395   c0-2.294-1.867-4.16-4.16-4.16s-4.16,1.866-4.16,4.16c0,2.149,1.645,3.902,3.739,4.117v2.089h-0.862v1.984h2.592v-1.984h-0.886   v-1.708l3.697,2.089v13.16h-4.601l-0.852,0.38l0.526-2.369h-2.062l0.652,2.762l-1.193,0.532v0.668l-2.13-0.474v2.062l2.13-0.503   v0.635l1.259,0.357l-0.639,2.877h2.062l-0.626-2.651l5.474,1.555v7.271h1.199v1.208h-5.149h-4.093v0.484l-9.28,4.138L8.953,76.415   c-0.089,0.19-0.091,0.395-0.04,0.581l-2.264,4.831H1.342c1.007,1.769,3.191,2.997,5.731,2.997c2.541,0,4.727-1.229,5.732-2.997   H8.049l2.011-4.29c0.178-0.079,0.334-0.214,0.423-0.405l1.128-2.406c0.035-0.005,0.071-0.004,0.107-0.013l9.691-2.583h10.065v1.929   h16.13l-4.698-1.601c-0.373-0.128-0.671-0.408-0.817-0.773c-0.148-0.365-0.129-0.774,0.05-1.124l6.587-12.843V54.67   c0-0.745,0.606-1.353,1.353-1.353c0.746,0,1.352,0.607,1.352,1.353v2.883l6.674,13.009c0.18,0.349,0.198,0.758,0.05,1.123   c-0.146,0.365-0.444,0.646-0.817,0.773l-4.697,1.601h16.054V72.13h9.899l9.691,2.583c0.035,0.009,0.071,0.008,0.107,0.013   l1.127,2.406c0.089,0.191,0.243,0.326,0.423,0.405l2.011,4.29h-4.756c1.006,1.769,3.19,2.997,5.732,2.997   c2.54,0,4.725-1.229,5.731-2.997H93.352z M64.858,37.893h4.954l0.852,0.38l-0.525-2.369H72.2l-0.652,2.763l1.191,0.531v0.668   l2.131-0.474v2.062l-2.131-0.503v0.635l-1.259,0.358l0.641,2.877H70.06l0.625-2.651l-5.872,1.667L64.858,37.893z M29.461,41.519   c-0.598,0-1.083-0.484-1.083-1.083c0-0.599,0.484-1.084,1.083-1.084s1.083,0.485,1.083,1.084   C30.544,41.035,30.06,41.519,29.461,41.519z M20.871,70.553l-8.333,2.196l6.36-13.571l6.539,8.147L20.871,70.553z M27.381,70.439   h-3.424l3.424-2.419V70.439z M27.381,67.05l-7.356-9.167l7.356-3.278V67.05z M46.697,16.15c0-1.867,1.518-3.384,3.384-3.384   c1.866,0,3.384,1.518,3.384,3.384c0,1.866-1.519,3.383-3.384,3.383C48.214,19.534,46.697,18.017,46.697,16.15z M31.305,21.526   c-1.827,0-3.315-1.487-3.315-3.314c0-1.828,1.488-3.315,3.315-3.315c1.828,0,3.315,1.487,3.315,3.315   C34.62,20.039,33.132,21.526,31.305,21.526z M35.615,23.936l-2.626-1.485h4.158L35.615,23.936z M50.093,51.322   c-7.425,0-13.445-6.02-13.445-13.446c0-7.425,6.02-13.445,13.445-13.445c7.427,0,13.445,6.02,13.445,13.445   C63.538,45.302,57.52,51.322,50.093,51.322z M72.786,54.678l7.189,3.205l-7.189,8.96V54.678z M72.786,70.439v-2.303l3.258,2.303   H72.786z M79.13,70.553l-4.564-3.228l6.539-8.147l6.36,13.571L79.13,70.553z"/>
</g>
</svg>