<svg xmlns="http://www.w3.org/2000/svg" version="1.0" width="77.24609375px" height="100px" viewBox="0 0 791.000000 1024.000000" preserveAspectRatio="xMidYMid meet">
<metadata>
Created by potrace 1.10, written by Peter Selinger 2001-2011
</metadata>
<g transform="translate(0.000000,1024.000000) scale(0.100000,-0.100000)" fill="#000000" stroke="none">
<path d="M3809 7101 c-177 -57 -321 -213 -358 -389 -48 -231 61 -462 267 -565 95 -47 165 -61 285 -55 89 5 104 8 180 46 258 127 364 432 242 690 -62 132 -192 242 -329 278 -72 19 -218 17 -287 -5z"/>
<path d="M2161 4154 c-144 -39 -307 -175 -376 -316 -33 -69 -38 -88 -43 -172 -6 -114 17 -200 76 -291 73 -114 213 -217 332 -244 75 -17 201 -13 271 9 158 48 301 191 349 348 24 77 28 219 9 298 -41 171 -192 324 -364 369 -73 19 -182 18 -254 -1z"/>
<path d="M5511 4144 c-83 -22 -150 -63 -221 -134 -108 -107 -150 -212 -150 -370 0 -149 50 -268 154 -368 111 -107 219 -146 385 -140 98 3 112 6 185 41 139 66 263 216 295 357 15 66 13 187 -4 255 -44 169 -193 313 -370 360 -73 19 -202 18 -274 -1z"/>
</g>
</svg>