<svg xmlns:dc="http://purl.org/dc/elements/1.1/" xmlns:cc="http://creativecommons.org/ns#" xmlns:rdf="http://www.w3.org/1999/02/22-rdf-syntax-ns#" xmlns:svg="http://www.w3.org/2000/svg" xmlns="http://www.w3.org/2000/svg" xmlns:sodipodi="http://sodipodi.sourceforge.net/DTD/sodipodi-0.dtd" xmlns:inkscape="http://www.inkscape.org/namespaces/inkscape" width="85.047539" height="99.999382" id="svg2" version="1.1" inkscape:version="0.48.3.1 r9886" sodipodi:docname="mosca.svg">
  <defs id="defs4"/>
  <sodipodi:namedview id="base" pagecolor="#ffffff" bordercolor="#666666" borderopacity="1.0" inkscape:pageopacity="0.0" inkscape:pageshadow="2" inkscape:zoom="0.35" inkscape:cx="-599.54241" inkscape:cy="104.35581" inkscape:document-units="px" inkscape:current-layer="g2996" showgrid="false" fit-margin-top="0" fit-margin-left="0" fit-margin-right="0" fit-margin-bottom="0" inkscape:window-width="1225" inkscape:window-height="1000" inkscape:window-x="55" inkscape:window-y="24" inkscape:window-maximized="1"/>
  <metadata id="metadata7">
    <rdf:RDF>
      <cc:Work rdf:about="">
        <dc:format>image/svg+xml</dc:format>
        <dc:type rdf:resource="http://purl.org/dc/dcmitype/StillImage"/>
        <dc:title/>
      </cc:Work>
    </rdf:RDF>
  </metadata>
  <g inkscape:label="Capa 1" inkscape:groupmode="layer" id="layer1" transform="translate(-419.54241,-536.71865)">
    <g id="g2996" transform="translate(-725.71429,-562.85714)" inkscape:export-filename="/home/felipe/Descargas/mosca_vec.png" inkscape:export-xdpi="300" inkscape:export-ydpi="300">
      <path style="fill:#000000;fill-opacity:1" d="m 1187.1089,1199.5186 c -0.7456,-0.1399 -2.4794,-0.7994 -3.617,-1.3759 -1.4219,-0.7205 -3.8272,-3.0841 -5.1281,-5.0393 -0.6096,-0.9162 -1.1812,-1.7109 -1.2702,-1.7659 -0.089,-0.055 -0.7796,0.2625 -1.5347,0.7055 -1.9856,1.1647 -3.5904,1.6169 -6.1817,1.7416 -2.5515,0.1229 -3.8876,-0.1 -5.6751,-0.9449 -2.488,-1.1766 -4.2589,-3.7094 -4.9332,-7.0553 -0.6825,-3.3867 -0.021,-12.3142 1.1033,-14.885 0.096,-0.2204 0.549,-1.5277 1.0058,-2.9052 0.4568,-1.3775 1.2783,-3.4963 1.8255,-4.7084 1.5534,-3.4409 1.5796,-3.5063 1.4062,-3.5063 -0.2659,0 -1.3201,1.213 -2.1765,2.5045 -0.4385,0.6612 -1.303,1.9499 -1.9213,2.8638 -1.2505,1.8485 -2.5985,4.5309 -3.7965,7.5548 -2.4506,6.1855 -4.7801,9.5102 -8.2228,11.7353 -0.9633,0.6226 -1.4073,0.7923 -1.9526,0.7464 -0.6716,-0.057 -0.7087,-0.099 -0.7659,-0.8811 -0.06,-0.8197 -0.056,-0.8246 1.5957,-2.0036 3.01,-2.1485 4.7997,-4.7711 7.0959,-10.3984 1.539,-3.7718 2.753,-6.1888 4.1317,-8.2255 2.8617,-4.2278 3.3413,-4.8733 4.3838,-5.8998 2.3607,-2.3244 3.3265,-3.1506 4.3915,-3.7569 1.2667,-0.7211 2.3619,-1.8058 3.6816,-3.6463 1.2701,-1.7713 1.2354,-2.0021 -0.433,-2.8788 -1.8821,-0.9891 -2.7529,-1.7374 -4.6174,-3.968 -1.9208,-2.2979 -3.0579,-4.0219 -4.3396,-6.5795 -2.4292,-4.8474 -5.277,-9.3557 -8.9276,-14.133 -1.5116,-1.978 -1.9908,-2.7517 -1.9921,-3.2158 0,-0.7641 0.3148,-1.0919 1.0554,-1.0919 0.655,0 0.5958,-0.062 3.2628,3.4061 3.2944,4.2835 5.6347,8.0071 8.6262,13.7245 0.8072,1.5428 1.7634,3.225 2.1249,3.7383 1.3816,1.962 3.6038,4.5501 4.3192,5.0304 1.4757,0.9909 3.3991,1.9505 3.9094,1.9505 0.6131,0 1.1442,-0.6557 1.1442,-1.4123 0,-0.287 0.259,-1.4616 0.5755,-2.6102 0.3165,-1.1486 0.6256,-2.2991 0.687,-2.5565 0.087,-0.3658 -0.1152,-0.7161 -0.9261,-1.6036 -3.4208,-3.7436 -6.5609,-8.7605 -7.8862,-12.5997 -0.4472,-1.2956 -0.5389,-1.9116 -0.5448,-3.6614 -0.01,-2.6454 0.2774,-3.3748 2.999,-7.6418 3.0288,-4.7486 3.2969,-5.7591 2.7966,-10.5421 -0.3372,-3.2237 -0.2862,-3.6374 0.5004,-4.0583 0.4598,-0.2461 1.0809,0.01 1.3696,0.558 0.3144,0.6 0.6833,5.0832 0.5895,7.1643 -0.1241,2.7542 -0.6543,4.1195 -3.0715,7.9081 -1.0898,1.708 -2.1858,3.6014 -2.4356,4.2075 -1.2812,3.108 0.1137,7.2057 4.5695,13.424 0.7502,1.0469 1.6373,2.219 1.9713,2.6047 l 0.6074,0.7012 0.9264,-1.0587 c 1.2798,-1.4628 2.3557,-2.1495 4.4197,-2.8211 l 1.7683,-0.5753 -1.4026,-0.1514 c -1.5533,-0.1678 -1.9943,-0.3401 -2.6451,-1.034 -0.2978,-0.3174 -0.666,-0.4704 -1.1323,-0.4704 -0.5537,0 -0.8676,-0.1792 -1.58,-0.9017 -0.4889,-0.4959 -1.1512,-1.4201 -1.4717,-2.0537 -0.5332,-1.0539 -0.5828,-1.3312 -0.5835,-3.2557 0,-1.923 0.05,-2.2069 0.5884,-3.3034 1.3771,-2.8048 4.4078,-4.6606 7.7553,-4.7488 1.115,-0.029 1.3388,-0.1037 1.8041,-0.599 0.2921,-0.3109 0.6192,-0.5653 0.7269,-0.5653 0.1076,0 0.3236,-0.1926 0.4798,-0.4279 0.2535,-0.3818 0.3315,-0.3984 0.7225,-0.1542 0.3805,0.2376 0.4835,0.2285 0.7809,-0.069 0.3174,-0.3174 0.3693,-0.3185 0.7045,-0.015 0.3355,0.3036 0.3906,0.3015 0.7556,-0.029 0.3808,-0.3445 0.4018,-0.3385 0.6388,0.1816 0.1936,0.4248 0.3425,0.5134 0.7083,0.4216 0.362,-0.091 0.4631,-0.033 0.4631,0.2638 0,0.6854 0.4984,0.8869 1.8521,0.7489 3.6865,-0.3759 7.4492,1.6566 9.024,4.8747 0.595,1.2159 0.6445,1.471 0.6445,3.3207 0,1.7545 -0.067,2.146 -0.537,3.1492 -0.2953,0.6301 -0.9613,1.5994 -1.48,2.1539 -0.8095,0.8655 -1.0499,1.0082 -1.6981,1.0082 -0.5636,0 -0.9595,0.1708 -1.5615,0.6738 -0.6482,0.5415 -1.0493,0.7012 -2.0436,0.8137 -0.6804,0.077 -1.1913,0.1858 -1.1353,0.2418 0.056,0.056 0.624,0.2382 1.2623,0.4048 1.6151,0.4218 2.8956,1.1114 3.999,2.1536 0.5177,0.4891 1.0633,0.8425 1.2123,0.7853 0.7026,-0.2696 5.4595,-7.9731 6.2612,-10.1396 0.9874,-2.6681 0.2828,-5.6329 -2.3973,-10.0891 -1.6555,-2.7524 -2.1692,-4.0307 -2.3432,-5.8307 -0.2869,-2.9677 0.3996,-6.902 1.3745,-7.8769 0.5445,-0.5445 1.3107,-0.4973 1.7054,0.1051 0.3013,0.4599 0.2953,0.5811 -0.088,1.7531 -0.8962,2.7417 -1.0201,5.4049 -0.341,7.3299 0.1529,0.4333 0.6808,1.4536 1.1732,2.2673 3.8585,6.3767 4.5699,10.0968 2.7156,14.2008 -0.8997,1.9913 -4.7857,8.3806 -6.3376,10.42 -0.9598,1.2614 -1.0511,2.3303 -0.366,4.2846 0.1589,0.4535 0.3957,1.4803 0.5261,2.2818 0.2707,1.6632 0.5811,2.1028 1.3657,1.9337 1.5082,-0.325 3.2387,-0.9247 3.8421,-1.3314 0.3727,-0.2512 1.4671,-1.5658 2.432,-2.9213 1.9353,-2.7185 2.7024,-4.4148 3.3849,-7.4851 1.2637,-5.6847 3.3227,-9.4031 7.2791,-13.1454 1.8101,-1.7123 3.7883,-3.2077 4.4693,-3.3786 0.636,-0.1596 1.2686,0.4136 1.2686,1.1495 0,0.4668 -0.3259,0.8245 -1.9535,2.1443 -5.2788,4.2807 -7.2667,7.4529 -8.8638,14.1441 -0.9475,3.9694 -1.4708,5.037 -4.4589,9.0961 -1.5533,2.1099 -2.5209,2.8377 -4.6249,3.4785 -0.7524,0.2292 -1.4162,0.5421 -1.475,0.6954 -0.1101,0.287 1.4627,2.5088 3.1969,4.5163 0.5402,0.6253 1.9728,2.0228 3.1835,3.1055 1.5962,1.4275 2.6942,2.64 3.9945,4.4109 2.1838,2.9742 3.4673,5.0306 3.9747,6.368 1.9311,5.0902 4.6507,10.1631 7.739,14.4358 1.4861,2.0561 2.8427,4.0103 3.0147,4.3429 0.6266,1.2119 -0.3417,2.3903 -1.3964,1.6993 -0.2699,-0.1768 -1.8638,-2.2408 -3.5421,-4.5866 -2.5932,-3.6246 -3.3156,-4.8067 -4.8103,-7.8715 -0.9674,-1.9836 -2.0925,-4.4179 -2.5004,-5.4097 -0.9545,-2.3212 -1.3851,-3.1881 -2.1643,-4.3574 -0.6176,-0.9268 -1.3278,-1.3372 -1.0409,-0.6015 0.7038,1.8052 2.5595,7.5112 2.7952,8.595 1.0907,5.0156 1.1919,11.2632 0.2308,14.2457 -0.9754,3.0271 -2.7998,5.0446 -5.5034,6.0859 -0.8192,0.3155 -1.7186,0.4568 -3.3267,0.5226 -2.8729,0.1176 -4.6379,-0.2477 -7.0479,-1.4586 -1.0376,-0.5214 -2.0402,-0.8951 -2.3014,-0.8579 -0.3103,0.044 -0.8792,0.6269 -1.7272,1.769 -1.5525,2.091 -3.0435,3.629 -4.3052,4.441 -2.0376,1.3113 -4.8428,2.1225 -6.3572,1.8383 z m -16.8082,-8.0867 c 5.1082,-0.9687 8.3603,-5.6172 10.1594,-14.5218 0.334,-1.6529 0.752,-4.1774 0.929,-5.61 0.1769,-1.4326 0.406,-3.1456 0.5092,-3.8068 0.1031,-0.6612 0.2449,-1.7682 0.3151,-2.46 0.1276,-1.2579 0.1276,-1.2579 -0.6799,-2.1339 -2.7737,-3.0091 -4.9988,-7.5293 -5.8532,-11.8905 -0.1354,-0.6914 -0.3336,-1.3111 -0.4404,-1.3771 -0.3779,-0.2335 -1.4309,1.1445 -4.889,6.3985 -2.2255,3.3813 -3.3022,5.3561 -4.1467,7.6058 -0.3827,1.0195 -1.1017,2.8023 -1.5978,3.9618 -1.8004,4.208 -2.7732,9.0105 -2.7997,13.8203 -0.026,4.6775 0.6614,6.879 2.7264,8.7357 1.5015,1.3499 3.294,1.7472 5.7676,1.278 z m 39.9939,-0.098 c 2.048,-0.6081 3.6365,-2.6009 4.3906,-5.5078 0.4407,-1.6989 0.4445,-6.3494 0.01,-9.1439 -0.4781,-3.0568 -1.4733,-6.7793 -2.3227,-8.688 -0.4169,-0.9367 -1.1779,-2.7903 -1.6912,-4.1192 -1.0327,-2.6739 -2.1685,-4.7585 -4.5041,-8.2676 -2.2574,-3.3914 -3.8391,-5.4783 -4.0892,-5.3949 -0.12,0.04 -0.4648,1.0143 -0.7661,2.1651 -1.1851,4.5267 -2.7947,7.5844 -5.4365,10.3272 l -1.3702,1.4226 0.3082,2.7849 c 0.2883,2.6064 1.1025,8.1629 1.5204,10.3769 0.9386,4.9726 3.291,9.9813 5.6035,11.9313 2.3831,2.0095 5.7934,2.8726 8.35,2.1134 z" id="path3000" inkscape:connector-curvature="0"/>
    </g>
  </g>
</svg>