<svg xmlns="http://www.w3.org/2000/svg" xmlns:xlink="http://www.w3.org/1999/xlink" version="1.1" id="Layer_1" x="0px" y="0px" width="100px" height="100px" viewBox="0 0 100 100" enable-background="new 0 0 100 100" xml:space="preserve">
<circle cx="71.441" cy="80.535" r="5.556"/>
<polygon points="90.437,73.745 83.969,60.417 82.8,60.987 80.644,56.544 73.32,60.095 81.941,77.866 "/>
<polygon points="84.809,60.01 91.275,73.338 100.158,69.028 91.537,51.26 84.214,54.812 86.368,59.253 "/>
<path d="M96.872,72.476L81.38,79.991l-14.52-29.93c0.039-0.05,0.083-0.094,0.12-0.146c0.907-1.28,0.799-2.747-0.245-3.271  l-7.889-3.952l-2.599-11.696c-0.045-0.4-0.129-0.783-0.255-1.143l-0.061-0.277c-0.155-0.694-0.549-1.21-1.063-1.5  c-0.547-0.517-1.238-0.898-2.069-1.092c-0.485-0.114-0.992-0.15-1.509-0.13c-0.447-0.015-0.946,0.053-1.476,0.226  c-0.842,0.221-1.673,0.594-2.458,1.096l-15.205,7.057c-0.273,0.126-0.526,0.276-0.768,0.434c-0.747,0.352-1.41,0.975-1.766,1.759  L24.62,48.469c-0.625,1.383-0.067,2.714,1.246,2.975c1.314,0.259,2.884-0.648,3.509-2.031l4.689-10.362l8.165-3.79l-6.93,14.314  c-0.21,0.434-0.354,0.846-0.449,1.238l-6.327,14.93c-0.072,0.07-0.149,0.132-0.218,0.208l-13.227,14.5  c-1.655,1.811-2.018,4.049-0.812,4.994c1.208,0.941,3.525,0.237,5.181-1.577l13.229-14.498c0.417-0.455,0.753-0.941,1-1.425  c0.177-0.255,0.34-0.523,0.464-0.813l4.693-11.08c0.203,0.061,0.405,0.115,0.611,0.163c0.697,0.164,1.28,0.42,1.786,0.681  l6.723,11.72L47.17,83.082c-0.098,1.837,1.274,3.039,3.068,2.685c1.792-0.361,3.326-2.136,3.423-3.976l0.793-14.688  c0.033-0.58-0.096-1.087-0.326-1.511c-0.063-0.201-0.145-0.399-0.251-0.584l-7.011-12.224l6.134-12.669l1.113,5.002  c0.031,0.151,0.084,0.29,0.141,0.424c-0.02,0.688,0.263,1.283,0.848,1.576l8.343,4.178c0.439,0.221,0.974,0.229,1.513,0.081  l14.366,29.613l0.998,2.058L97.87,74.53L96.872,72.476z"/>
<path d="M55.196,26.177c3.42,0,6.927-2.773,7.829-6.194s-1.14-6.194-4.56-6.194c-3.422,0-6.928,2.773-7.83,6.194  C49.733,23.404,51.774,26.177,55.196,26.177z"/>
<rect y="13.787" width="42.42" height="1.75"/>
<rect y="22.44" width="39.341" height="2.458"/>
<rect y="30.536" width="27.3" height="2.107"/>
<rect y="39.817" width="20.86" height="1.931"/>
<rect y="50.001" width="17.78" height="1.229"/>
<rect y="56.357" width="24.081" height="2.599"/>
<rect y="68.086" width="18.62" height="1.58"/>
<rect y="83.759" width="8.26" height="1.709"/>
<rect y="75.46" width="10.78" height="2.635"/>
</svg>