<svg xmlns="http://www.w3.org/2000/svg" xmlns:xlink="http://www.w3.org/1999/xlink" version="1.1" id="Layer_1" x="0px" y="0px" width="100px" height="100px" viewBox="0 0 100 100" enable-background="new 0 0 100 100" xml:space="preserve">
<path d="M67.389,50.208c0-0.071,0.008-0.137,0.01-0.208c-0.002-0.071-0.01-0.138-0.01-0.209c0-9.126,6.164-13.45,6.164-13.45h23.262  c0-3.121-14.895-11.633-25.125-11.633c-8.271,0-14.307,13.423-21.861,13.485c-4.137,0.033-37.201,0.008-46.643,0v8.624h44.174  c0,0,1.771,0,1.771,2.998c0,0.065-0.004,0.122-0.008,0.185c0.004,0.063,0.008,0.119,0.008,0.185c0,2.998-1.771,2.998-1.771,2.998  H3.186v8.623c9.441-0.007,42.506-0.032,46.643,0.002c7.555,0.062,13.59,13.483,21.861,13.483c10.23,0,25.125-8.511,25.125-11.632  H73.553C73.553,63.66,67.389,59.336,67.389,50.208z"/>
</svg>