<svg xmlns="http://www.w3.org/2000/svg" xmlns:xlink="http://www.w3.org/1999/xlink" version="1.1" id="Layer_1" x="0px" y="0px" width="100px" height="100px" viewBox="0 0 100 100" enable-background="new 0 0 100 100" xml:space="preserve">
<g>
	<path d="M59.988,61.45c-0.554-4.579-2.297-10.714-3.937-15.252c-0.439-1.214-1.505-2.692-2.568-4.484   c-1.436-2.416-3.122-4.191-3.458-3.762c-0.589,0.753,2.286,8.467,3.705,12.482c3.36,9.518,4.482,25.04,2.421,34.987   c-1.283,6.188-4.579,11.682-0.558,12.26c4.199,0.596,4.462-4.484,4.839-7.906C61.416,80.705,61.249,72.033,59.988,61.45z"/>
	<path d="M38.744,34.31c-1.612,0.032-5.723,0.201-9.491,1.315c-4.57,1.349-11.01,3.9-14.986,9.077   c-3.979,5.167-4.635,11.542,0.067,15.854c4.856,4.471,10.759,2.403,13.771,0.718c0,0-1.818,12.433,8.589,14.598   c9.114,1.374,15.098-7.177,14.465-18.757c-0.576-10.614-2.8-16.014-3.654-16.771c-1.073-0.949-2.345-0.895-4.381,1.719   c-1.796,2.309-10.982,14.35-10.982,14.35s7.214-13.893,9.282-16.869c2.395-3.456,1.492-4.14,0.714-4.574   C41.161,34.419,39.866,34.292,38.744,34.31z"/>
	<path d="M50.284,29.573c1.256-1.488,5.378-4.276,8.919-5.976c5.596-2.678,11.572-5.284,18.082-5.66   c6.999-0.395,13.014,4.342,12.041,10.649c-0.993,6.53-6.521,7.532-9.931,8.1c0,0,11.337,5.67,5.759,15.135   c-5.414,9.188-16.92,7.253-25.427-1.298c-3.467-3.486-5.067-6.529-6.532-8.336c-1.767-2.172-2.728-2.663-3.093-3.24   c-0.211-0.333-0.17-1.002-0.113-1.239c0.168-0.745,0.44-2.034,3.347-1.738c3.184,0.317,8.478,0.258,8.478,0.258   s1.448-0.059-9.793-2.373C48.046,32.694,49.353,30.671,50.284,29.573z"/>
	<path d="M49.207,29.032c0.864-1.741,2.206-6.106,1.311-9.934c-1.292-5.507-2.421-7.619-4.714-10.839   C42.02,2.95,37.928,1.172,32.6,2.921c-6.28,2.048-7.813,7.442-6.979,10.797c0,0-9.332-3.491-14.178,5.979   c-3.748,8.428,5.28,13.467,13.427,13.742c13.411,0.456,15.724-0.084,16.52-0.651c0.961-0.685,1.104-1.994-0.825-4.186   c-1.938-2.194-9.298-8.141-9.298-8.141s6.579,2.22,13.322,8.679C47.23,32.328,48.57,30.327,49.207,29.032z"/>
</g>
</svg>