<svg xmlns="http://www.w3.org/2000/svg" xmlns:xlink="http://www.w3.org/1999/xlink" version="1.1" id="Layer_1" x="0px" y="0px" width="100px" height="100px" viewBox="0 0 100 100" enable-background="new 0 0 100 100" xml:space="preserve">
<g>
	<path d="M49.604,62.112c0,0-6.757-7.304,6.694-17.438C56.298,44.673,59.168,57.791,49.604,62.112z"/>
	<path d="M45.58,54.46c0,0-8.172-1.917-6.837-19.671C38.743,34.789,51.871,45.456,45.58,54.46z"/>
	<path d="M48.47,46.345c0,0-2.509-10.254,10.988-16.622C59.458,29.723,61.241,41.789,48.47,46.345z"/>
	<path d="M51.057,31.516c0,0-3.345-10.099,9.855-15.496C60.912,16.02,64.736,26.883,51.057,31.516z"/>
	<path d="M48.745,20.664c0,0-3.92-12.076,10.104-19.996C58.849,0.668,62.425,16.031,48.745,20.664z"/>
	<path d="M45.511,39.838c0,0-10.397-9.818-0.464-23.384C45.047,16.454,53.567,27.852,45.511,39.838z"/>
	<path d="M46.381,67.686c0,0-8.41-0.767-5.624-13.688C40.757,53.998,51.008,58.163,46.381,67.686z"/>
	<path d="M51.239,73.798c0,0-5.887-6.058,4.635-14.052C55.874,59.746,60.95,69.576,51.239,73.798z"/>
	<path d="M52.365,80.358c0,0-2.298-5.993,4.022-7.295C56.388,73.063,57.882,78.634,52.365,80.358z"/>
	<path d="M52.312,82.787c0,0-5.69,0.554-7.571-5.19C44.74,77.597,50.904,77.181,52.312,82.787z"/>
	<path d="M50.132,76.877c0,0-7.213,2.034-8.981-8.738C41.15,68.139,49.845,68.693,50.132,76.877z"/>
	<path d="M53.527,97.433c0.795-4.115,1.784-7.898,0.013-15.339c-0.243-1.025,3.487,3.127,2.827,12.22   C55.979,99.666,52.88,100.787,53.527,97.433z"/>
</g>
</svg>