<svg xmlns="http://www.w3.org/2000/svg" xmlns:xlink="http://www.w3.org/1999/xlink" version="1.1" id="Layer_1" x="0px" y="0px" width="100px" height="100px" viewBox="0 0 100 100" enable-background="new 0 0 100 100" xml:space="preserve">
<g>
	<path d="M61.412,20.748L55.919,1.5H44.522l-5.44,19.229l-0.053,0.021c-1.097,0.418-1.951,0.773-2.693,1.127l-0.435,0.178   l2.479,3.593l0.248-0.054l0.091-0.026c3.632-1.628,7.502-2.455,11.501-2.455c4,0,7.87,0.827,11.58,2.479l0.261,0.057l2.212-3.205   l0.229-0.376l-0.401-0.192C63.369,21.527,62.516,21.168,61.412,20.748z M55.67,19.159c-1.228-0.193-3.349-0.415-5.352-0.424h-0.23   c-1.977,0.009-4.092,0.23-5.34,0.43l-0.226,0.05l3.254-12.748h4.888l3.255,12.748L55.67,19.159z"/>
	<path d="M30.374,25.491l-19.416-4.868l-5.698,9.87l13.933,14.328l-0.009,0.057c-0.187,1.159-0.304,2.075-0.371,2.894l-0.062,0.468   l4.351-0.353l0.078-0.24l0.021-0.092c0.406-3.961,1.626-7.723,3.625-11.188c2.002-3.463,4.65-6.404,7.937-8.788l0.179-0.198   l-1.67-3.519l-0.21-0.389l-0.368,0.255C32.026,24.186,31.29,24.747,30.374,25.491z M26.127,29.671   c-0.781,0.963-2.037,2.688-3.043,4.42l-0.116,0.199c-0.981,1.716-1.845,3.661-2.298,4.838l-0.069,0.223l-9.413-9.193l2.443-4.23   l12.67,3.554L26.127,29.671z"/>
	<path d="M18.963,54.744L5.039,69.123l5.698,9.869l19.374-4.9l0.045,0.035c0.91,0.741,1.645,1.302,2.321,1.767l0.373,0.288   l1.868-3.943l-0.168-0.189l-0.069-0.062c-3.226-2.33-5.874-5.271-7.874-8.733c-2.002-3.466-3.222-7.229-3.644-11.27l-0.083-0.252   l-3.883-0.313l-0.439-0.013l0.035,0.445C18.659,52.66,18.774,53.576,18.963,54.744z M20.459,60.51   c0.444,1.159,1.312,3.106,2.306,4.847l0.116,0.199c0.993,1.707,2.247,3.427,3.041,4.408l0.157,0.172l-12.668,3.555l-2.444-4.23   l9.414-9.196L20.459,60.51z"/>
	<path d="M38.59,79.25l5.491,19.25h11.396l5.441-19.229l0.054-0.021c1.097-0.418,1.949-0.773,2.691-1.127l0.436-0.181l-2.48-3.59   l-0.248,0.054l-0.089,0.026c-3.632,1.628-7.502,2.451-11.503,2.451c-4,0.003-7.868-0.823-11.58-2.478l-0.26-0.054l-2.213,3.205   l-0.229,0.376l0.402,0.189C36.633,78.473,37.484,78.832,38.59,79.25z M44.33,80.838c1.228,0.196,3.349,0.418,5.352,0.427   l0.23-0.003c1.975-0.006,4.092-0.23,5.34-0.427l0.229-0.05l-3.257,12.748h-4.888l-3.255-12.751L44.33,80.838z"/>
	<path d="M69.628,74.506l19.414,4.868l5.696-9.87L80.808,55.179l0.009-0.057c0.187-1.159,0.306-2.075,0.371-2.896l0.062-0.465   l-4.351,0.353l-0.078,0.24l-0.02,0.092c-0.406,3.958-1.628,7.723-3.627,11.188c-1.998,3.463-4.648,6.401-7.937,8.788l-0.179,0.198   l1.67,3.519l0.212,0.386l0.366-0.252C67.974,75.814,68.712,75.253,69.628,74.506z M73.873,70.329   c0.783-0.963,2.035-2.688,3.045-4.42l0.112-0.202c0.984-1.71,1.847-3.658,2.301-4.838l0.069-0.223l9.412,9.193l-2.443,4.233   l-12.67-3.554L73.873,70.329z"/>
	<path d="M81.036,45.253l13.925-14.376l-5.698-9.869l-19.374,4.9l-0.045-0.035c-0.91-0.741-1.644-1.302-2.321-1.767l-0.373-0.288   l-1.869,3.943l0.17,0.189l0.068,0.062c3.226,2.33,5.874,5.271,7.876,8.733c2.001,3.463,3.221,7.229,3.642,11.27l0.083,0.252   l3.883,0.313l0.439,0.009l-0.035-0.441C81.341,47.34,81.227,46.421,81.036,45.253z M79.543,39.49   c-0.444-1.159-1.312-3.106-2.308-4.847l-0.116-0.199c-0.99-1.707-2.244-3.427-3.04-4.411l-0.158-0.172l12.668-3.552l2.442,4.23   l-9.412,9.193L79.543,39.49z"/>
	<path d="M50.008,31.633c-10.131,0-18.379,8.236-18.379,18.366c0,10.131,8.248,18.367,18.379,18.367   c10.124,0,18.363-8.236,18.363-18.367C68.371,39.87,60.132,31.633,50.008,31.633z M50.008,63.717   c-7.569,0-13.727-6.154-13.727-13.718c0-7.56,6.157-13.717,13.727-13.717c7.56,0,13.711,6.157,13.711,13.717   C63.719,57.563,57.567,63.717,50.008,63.717z"/>
</g>
</svg>