<svg xmlns:dc="http://purl.org/dc/elements/1.1/" xmlns:cc="http://creativecommons.org/ns#" xmlns:rdf="http://www.w3.org/1999/02/22-rdf-syntax-ns#" xmlns:svg="http://www.w3.org/2000/svg" xmlns="http://www.w3.org/2000/svg" xmlns:sodipodi="http://sodipodi.sourceforge.net/DTD/sodipodi-0.dtd" xmlns:inkscape="http://www.inkscape.org/namespaces/inkscape" width="70.9923664122px" height="100px" id="svg2" version="1.1" inkscape:version="0.48.2 r9819" sodipodi:docname="seaturtle.svg">
  <defs id="defs4"/>
  <sodipodi:namedview id="base" pagecolor="#ffffff" bordercolor="#666666" borderopacity="1.0" inkscape:pageopacity="0.0" inkscape:pageshadow="2" inkscape:zoom="1.4142136" inkscape:cx="224.9197" inkscape:cy="324.51977" inkscape:document-units="px" inkscape:current-layer="layer3" showgrid="false" inkscape:window-width="1347" inkscape:window-height="832" inkscape:window-x="0" inkscape:window-y="0" inkscape:window-maximized="0"/>
  <metadata id="metadata7">
    <rdf:RDF>
      <cc:Work rdf:about="">
        <dc:format>image/svg+xml</dc:format>
        <dc:type rdf:resource="http://purl.org/dc/dcmitype/StillImage"/>
        <dc:title/>
      </cc:Work>
    </rdf:RDF>
  </metadata>
  <g inkscape:groupmode="layer" id="layer3" inkscape:label="Layer" style="display:inline" transform="translate(0,-527.95271)">
    <path style="fill:#000000;fill-opacity:1;stroke:none;display:inline" d="m 49.181429,527.95303 c -13.093662,7.55963 -6.701677,16.49644 -6.701677,16.49644 l 0.582637,0 c -1.916297,0.88983 -3.665691,1.91602 -5.246427,3.05818 0.797127,-2.09014 3.668849,-11.21346 -7.818626,-9.33026 -12.951056,2.12312 -24.4174303,6.79297 -24.4174303,6.79297 -8.280181,2.76006 -8.8965273,8.77189 8.9167783,5.52029 17.532316,-3.20031 16.988124,-4.67184 16.988124,-4.67184 0,0 4.877976,-1.21705 0.708832,7.08831 -8.655355,11.13844 -7.146825,27.80943 4.610089,41.40489 l -2.400361,14.74852 c 4.726187,0.96707 7.642307,-5.22488 7.195713,-9.8941 2.293251,2.04181 4.850608,3.97726 7.673637,5.76999 3.397324,-1.96144 6.440257,-4.08165 9.131575,-6.31504 -0.74285,4.71455 2.213124,11.44439 7.125905,10.43915 l -2.405731,-14.77806 c -0.01987,-10e-4 -0.03933,-0.002 -0.05907,-0.003 13.195593,-13.842 14.372152,-30.68881 4.142906,-41.8667 -3.729874,-7.76182 0.950478,-6.59428 0.950478,-6.59428 0,0 -0.715604,1.64295 17.330947,4.67184 17.857852,2.99723 17.196952,-2.76023 8.916779,-5.52029 0,0 -11.809198,-4.66985 -24.760254,-6.79297 -12.652,-2.0741 -7.892774,9.19399 -7.665582,9.7169 -1.870937,-1.28776 -3.955687,-2.44422 -6.255974,-3.44481 l 0.502088,0 c 0,0 6.246678,-8.82229 -7.045356,-16.49645 z m 5.152453,22.78195 c 0.204983,-0.004 0.40597,0.12822 0.483306,0.3181 0.07734,0.18988 0.02597,0.42495 -0.123519,0.56526 -1.402519,1.40251 -2.796544,2.05478 -4.065041,2.25 0.04396,0.68593 0.319805,2.53509 1.970765,4.37113 2.079409,2.31252 6.399621,4.61804 15.564758,4.10263 0.328952,-0.0298 0.653606,0.25032 0.672285,0.58009 0.01868,0.32977 -0.272263,0.64478 -0.602476,0.65231 -5.993223,0.33703 -10.105805,-0.51625 -12.91738,-1.86337 -1.603419,1.54806 -3.193836,2.2628 -4.639624,2.46748 0.03922,0.78192 0.303559,3.05671 1.994932,5.26523 2.085894,2.72366 6.350112,5.39578 15.484208,4.79266 0.349821,-0.0228 0.688897,0.27451 0.712077,0.62431 0.02318,0.34979 -0.273706,0.68922 -0.623474,0.71281 -4.881227,0.3223 -8.530158,-0.28482 -11.244644,-1.37471 -0.02014,0.0228 -0.04167,0.0443 -0.06444,0.0644 -2.242273,2.24228 -4.472123,3.17327 -6.460031,3.35084 1.71e-4,0.008 1.71e-4,0.0161 0,0.0242 0,0 -0.06636,2.16902 1.535802,4.26104 1.602157,2.09202 4.875899,4.14434 11.891721,3.68109 0.270484,-0.0212 0.535302,0.2081 0.553021,0.47883 0.01772,0.27074 -0.214958,0.53259 -0.485898,0.54683 -3.928186,0.25937 -6.817282,-0.2632 -8.930202,-1.17602 -0.01955,0.0299 -0.04207,0.0578 -0.06712,0.0832 -1.647463,1.64746 -3.286018,2.31581 -4.741652,2.42989 -3.42e-4,0.0146 -0.03522,1.41413 0.94511,2.75746 0.985457,1.35037 2.988182,2.66908 7.29237,2.37083 0.173417,-0.021 0.349072,0.12397 0.361413,0.29821 0.01234,0.17425 -0.141126,0.3425 -0.315768,0.34618 -2.277505,0.15782 -3.987082,-0.13516 -5.265221,-0.66318 -1.809062,1.79337 -3.597717,1.83464 -4.857106,1.36396 -1.09341,-0.40865 -1.822398,-1.16328 -2.000301,-1.36128 -1.277789,0.52717 -2.986962,0.81818 -5.262537,0.6605 -0.174642,-0.004 -0.328112,-0.17193 -0.315768,-0.34618 0.01234,-0.17424 0.187996,-0.31918 0.361413,-0.29821 4.30419,0.29825 6.306914,-1.02046 7.292372,-2.37083 0.964926,-1.32223 0.946301,-2.69251 0.945108,-2.7494 -0.625623,-0.0382 -1.20611,-0.17338 -1.726435,-0.36784 -1.887667,-0.70549 -3.047437,-2.10502 -3.047437,-2.10502 -0.01251,-0.0154 -0.02417,-0.0316 -0.0349,-0.0483 -2.11292,0.91282 -5.002016,1.43539 -8.930202,1.17602 -0.27094,-0.0143 -0.503615,-0.27609 -0.485898,-0.54683 0.01772,-0.27073 0.282537,-0.50002 0.553021,-0.47883 7.015822,0.46325 10.289564,-1.58907 11.891723,-3.68109 1.602157,-2.09202 1.5358,-4.26104 1.5358,-4.26104 -5.8e-5,-0.004 -5.8e-5,-0.009 0,-0.0134 -0.829723,-0.0599 -1.601968,-0.24284 -2.295647,-0.50209 -2.607293,-0.97445 -4.210028,-2.90782 -4.210028,-2.90782 -0.0055,-0.006 -0.01085,-0.0125 -0.01611,-0.0188 -2.714824,1.09071 -6.364147,1.69982 -11.247329,1.37739 -0.349768,-0.0236 -0.646652,-0.36301 -0.623473,-0.71281 0.02318,-0.34979 0.362255,-0.64707 0.712076,-0.6243 9.134098,0.60311 13.398314,-2.06901 15.48421,-4.79267 1.681123,-2.19513 1.953203,-4.454 1.99493,-5.24911 -0.532925,-0.0665 -1.03339,-0.19713 -1.490158,-0.36784 -1.622661,-0.60645 -2.744968,-1.67002 -3.160206,-2.1077 -2.811279,1.34381 -6.921895,2.19187 -12.90664,1.85531 -0.330213,-0.008 -0.621156,-0.32253 -0.602475,-0.6523 0.01868,-0.32978 0.343333,-0.60991 0.672284,-0.5801 9.165138,0.51541 13.485349,-1.79011 15.564758,-4.10263 1.640847,-1.82479 1.924198,-3.66179 1.970767,-4.3577 -0.433016,-0.0597 -0.840006,-0.16646 -1.213606,-0.30609 -1.785808,-0.66742 -2.883655,-1.98956 -2.883655,-1.98956 -0.127052,-0.14641 -0.159562,-0.36811 -0.0799,-0.54484 0.07966,-0.17672 0.267319,-0.29917 0.461162,-0.30093 0.153254,-0.002 0.305872,0.0692 0.402746,0.18795 0,0 0.958376,1.13154 2.456745,1.69153 0.460704,0.17219 0.967222,0.29716 1.514321,0.31951 0.109734,0.004 0.219865,0.004 0.332937,0 0.0036,-3e-5 0.0072,-3e-5 0.01075,0 8.57e-4,0 0.0018,0 0.0027,0 1.153522,-0.0467 2.479144,-0.57013 3.952272,-2.04326 0.09295,-0.099 0.226708,-0.15844 0.36247,-0.16109 z m -4.510744,5.17393 c -0.322932,0.94869 -0.884875,2.07233 -1.860683,3.15753 -0.653369,0.72661 -1.489232,1.43441 -2.55072,2.06742 0.462259,0.43767 1.333383,1.15257 2.480911,1.58145 1.647369,0.61568 3.786691,0.70943 6.320413,-1.59487 -1.052009,-0.62997 -1.882651,-1.33194 -2.531925,-2.054 -0.975526,-1.08489 -1.535022,-2.20902 -1.857996,-3.15753 z m 0,10.87949 c -0.327978,1.05378 -0.876992,2.27568 -1.790874,3.46898 -0.914044,1.19352 -2.195914,2.3498 -3.963012,3.28372 0.502706,0.5065 1.69657,1.57633 3.326674,2.18556 2.117455,0.79137 4.878367,0.90115 8.156932,-2.1963 -1.756166,-0.93195 -3.03114,-2.08423 -3.941532,-3.27298 -0.913665,-1.19302 -1.460185,-2.41537 -1.788188,-3.46898 z m 0,13.07042 c -0.251733,0.80995 -0.672611,1.74942 -1.374704,2.66618 -0.667036,0.87098 -1.589243,1.71413 -2.843381,2.4111 0.319694,0.33344 1.206856,1.16969 2.45943,1.63783 1.544818,0.57736 3.562879,0.65007 5.960628,-1.64589 -1.247146,-0.69549 -2.16535,-1.53523 -2.829956,-2.40304 -0.701869,-0.91647 -1.12026,-1.85641 -1.372017,-2.66618 z m 0,9.53701 c -0.155144,0.51345 -0.41194,1.10641 -0.835025,1.68616 -0.43664,0.59832 -1.053157,1.17705 -1.906328,1.6432 0.26597,0.25979 0.816932,0.73353 1.562652,1.01223 1.016219,0.3798 2.338426,0.43544 3.906626,-1.0176 -0.847707,-0.46516 -1.460745,-1.04197 -1.895587,-1.63783 -0.422887,-0.57948 -0.677175,-1.17287 -0.832338,-1.68616 z" id="path3809" inkscape:connector-curvature="0" sodipodi:nodetypes="ccccscsccccccccccccscsccccccsccscscccscscccccscsccccscsccsccscscscccscsccscccscscsccscscscsccsccccccccscscsccscscsccscscsccscscsc"/>
  </g>
</svg>