<svg xmlns="http://www.w3.org/2000/svg" xmlns:xlink="http://www.w3.org/1999/xlink" xmlns:a="http://ns.adobe.com/AdobeSVGViewerExtensions/3.0/" version="1.1" x="0px" y="0px" width="100px" height="100px" viewBox="0 -4.831 100 100" overflow="visible" enable-background="new 0 -4.831 100 100" xml:space="preserve">
<defs>
</defs>
<path fill="#000000" d="M98.2,17.305c-2.493-6.252-7.495-11.51-14.416-14.766C77.667-0.34,71.076-0.686,65.085,1.073  C59.096,2.832,53.71,7.626,50,13.168C46.291,7.626,40.905,2.832,34.916,1.073S22.334-0.34,16.217,2.539  C9.297,5.794,4.295,11.053,1.801,17.305c-2.493,6.252-2.504,13.511,0.638,20.73C9.161,53.477,49.787,89.719,50,90.338  c0.213-0.619,40.84-36.861,47.561-52.303C100.705,30.815,100.693,23.557,98.2,17.305z"/>
</svg>