<svg xmlns="http://www.w3.org/2000/svg" xmlns:xlink="http://www.w3.org/1999/xlink" version="1.1" id="Layer_1" x="0px" y="0px" width="100px" height="100px" viewBox="0 0 100 100" enable-background="new 0 0 100 100" xml:space="preserve">
<g id="right_hand">
	<path fill="#000000" d="M38.266,77.212c-1.956,1.231-2.554,3.838-1.33,5.806c0.777,1.246,2.12,1.992,3.592,1.992   c0.786,0,1.556-0.221,2.227-0.641l4.74-2.951l-7.992-4.977L38.266,77.212z"/>
	<path fill="#000000" d="M96.06,27.059c-3.663-5.885-10.038-9.447-17.126-9.62c-0.181-0.004-0.359-0.017-0.54-0.017   c-0.41,0-0.822,0.012-1.229,0.035c-0.01,0-0.021,0.001-0.031,0.001c-0.591,0.034-1.228,0.062-1.899,0.089l0.001,0   c-0.642,0.025-1.307,0.046-1.988,0.063c-0.018,0-0.036,0.001-0.055,0.001c-0.663,0.017-1.344,0.031-2.035,0.042   c-0.69,0.011-1.406,0.019-2.149,0.024c-0.062,0-0.125,0-0.188,0.001c-0.71,0.005-1.427,0.007-2.146,0.007   c-0.176,0-0.352,0-0.527-0.001c-0.335,0-0.669-0.001-1.003-0.002c-0.332-0.001-0.664-0.003-0.994-0.005   c-3.665-0.024-7.225-0.094-10.059-0.166c-1.422-0.036-2.666-0.071-3.64-0.102c-0.708-0.022-1.423-0.1-2.138-0.202   c-1.398-0.2-2.787-0.523-4.098-0.895c-1.336-0.378-2.593-0.795-3.684-1.161c-0.31-0.104-0.622-0.208-0.926-0.307   c-0.594-0.195-1.18-0.377-1.635-0.494c-0.018-0.004-0.038-0.01-0.055-0.015c-0.015-0.004-0.027-0.006-0.042-0.009   c-0.211-0.052-0.392-0.088-0.522-0.1c0,0-0.001,0.001-0.001,0.001c-0.026,0.023-0.046,0.044-0.072,0.067   c-0.155,0.133-0.293,0.264-0.417,0.392c-0.072,0.075-0.133,0.147-0.197,0.221c-0.066,0.077-0.131,0.153-0.187,0.228   c-0.055,0.072-0.106,0.144-0.152,0.214c-0.05,0.076-0.094,0.149-0.134,0.222c-0.034,0.06-0.069,0.121-0.097,0.178   c-0.044,0.094-0.08,0.184-0.11,0.271c-0.011,0.032-0.027,0.065-0.037,0.097c-0.035,0.111-0.061,0.219-0.077,0.322   c-0.001,0.006-0.002,0.013-0.003,0.019c-0.007,0.044-0.007,0.085-0.011,0.127c-0.005,0.053-0.012,0.108-0.013,0.156   c0,0.089,0.004,0.174,0.015,0.254c0.019,0.145,0.05,0.292,0.091,0.443c0.001,0.002,0.001,0.005,0.002,0.008   c0.002,0.009,0.005,0.018,0.007,0.027c0.088,0.309,0.223,0.63,0.403,0.962c0.091,0.167,0.194,0.337,0.307,0.509   c1.384,2.102,4.438,4.596,8.743,7.227c1.422,0.869,2.839,1.659,4.117,2.336c0.401,0.212,0.783,0.41,1.152,0.599   c0.412,0.21,0.8,0.406,1.162,0.584c0.187,0.092,0.366,0.18,0.537,0.263c-0.101,0.178-0.229,0.336-0.4,0.441   c-0.035,0.021-0.19,0.119-0.428,0.267c-0.079,0.049-0.176,0.109-0.275,0.171c1.099,0.685,32.46,20.234,32.587,20.312   c1.413,0.878,2.398,2.255,2.774,3.877c0.149,0.645,0.19,1.297,0.137,1.938l2.725-1.696C99.087,49.295,102.029,36.643,96.06,27.059z   "/>
	<path fill="#000000" d="M29.264,70.065l-3.483,2.169c-1.95,1.231-2.546,3.836-1.323,5.803c0.778,1.247,2.121,1.991,3.592,1.991   c0.786,0,1.557-0.222,2.228-0.64l6.979-4.346L29.264,70.065z"/>
	<path fill="#000000" d="M19.025,63.69l-4.359,2.714c-0.959,0.598-1.626,1.529-1.883,2.63c-0.256,1.099-0.067,2.231,0.529,3.189   c0.777,1.248,2.12,1.993,3.592,1.993c0.786,0,1.556-0.223,2.228-0.639l7.887-4.91L19.025,63.69z"/>
</g>
<g id="left_hand">
	<path fill="#000000" d="M85.333,67.167L50.857,45.698c-0.557-0.346-0.726-1.077-0.38-1.635c0.226-0.36,0.613-0.559,1.011-0.559   c0.214,0,0.43,0.058,0.625,0.179l26.229,16.332c0.672,0.418,1.442,0.639,2.229,0.639c0.103,0,0.202-0.012,0.303-0.02   c1.352-0.095,2.565-0.812,3.289-1.973c0.021-0.035,0.033-0.073,0.054-0.108c0.546-0.935,0.721-2.021,0.475-3.08   c-0.255-1.099-0.923-2.034-1.882-2.63c-0.307-0.19-27.03-16.85-33.421-20.833c-0.82-0.511-1.323-0.824-1.374-0.855   c-0.279-0.174-0.483-0.458-0.544-0.8c-0.042-0.226,0-0.444,0.08-0.645c-1.02-0.558-2.096-1.172-3.179-1.833   c-5.817-3.555-9.171-6.654-10.194-9.431c-0.29,0-0.581,0.001-0.871,0.001c-4.264,0-7.786-0.077-10.469-0.23   c-0.408-0.023-0.822-0.033-1.23-0.033c-7.306,0-13.911,3.602-17.667,9.635c-5.967,9.585-3.025,22.238,6.558,28.204l46.746,29.107   c0.674,0.42,1.442,0.641,2.229,0.641c1.473,0,2.814-0.746,3.592-1.993c1.225-1.967,0.627-4.573-1.335-5.808L39.414,64.077   c-0.086-0.054-0.145-0.13-0.212-0.2c0-0.001-0.001-0.001-0.002-0.002c0,0,0,0,0,0c-0.364-0.383-0.457-0.964-0.166-1.434   c0.226-0.361,0.613-0.561,1.01-0.561c0.214,0,0.431,0.058,0.625,0.18l0.722,0.449l0,0.001l0.002,0.001L69.722,80.15   c0.673,0.418,1.443,0.641,2.228,0.641c1.473,0,2.815-0.746,3.593-1.992c1.223-1.965,0.627-4.571-1.33-5.807L45.137,54.887   c-0.557-0.345-0.728-1.078-0.38-1.635c0.225-0.361,0.611-0.56,1.008-0.56c0.215,0,0.432,0.059,0.628,0.181l29.081,18.108   l5.395,3.358c0.672,0.418,1.441,0.639,2.229,0.639c1.471,0,2.814-0.746,3.59-1.993c0.598-0.958,0.785-2.091,0.529-3.19   C86.96,68.697,86.29,67.764,85.333,67.167z"/>
	<path fill="#000000" d="M63.337,15.671c0.415,0.003,0.832,0.006,1.25,0.008c-0.307-0.5-0.733-0.986-1.29-1.454l-0.32-0.27   l-0.416,0.039c-0.656,0.062-1.776,0.425-3.431,0.979c-0.575,0.192-1.203,0.401-1.858,0.609c0.972,0.019,1.99,0.037,3.037,0.052   C61.298,15.65,62.311,15.663,63.337,15.671z"/>
</g>
</svg>