<svg xmlns="http://www.w3.org/2000/svg" xmlns:xlink="http://www.w3.org/1999/xlink" version="1.1" id="Layer_1" x="0px" y="0px" width="100px" height="100px" viewBox="0 0 100 100" enable-background="new 0 0 100 100" xml:space="preserve">
<path d="M49.324,22.562c1.714-0.466,3.194-1.367,4.352-2.552l0.661,0.114l2.068-1.088c0.253-0.597,0.468-1.171,0.646-1.724  l2.029,0.395l0.985-5.058l-2.096-0.408c0.028-1.208-0.112-1.897-0.112-1.897c-3.157-5.416-6.13-5.862-6.13-5.862l-0.573,0.204  l0.002,0.013c-2.053-1.042-4.482-1.357-6.878-0.706c-5.128,1.392-8.156,6.679-6.763,11.807  C38.91,20.926,44.195,23.954,49.324,22.562z M52.817,6.403c0.003-0.001,0.101-0.052,0.241-0.09c0.362-0.098,0.683-0.034,0.896,0.182  l2.592,2.883l-0.01,0.061c-0.008,0.055-0.215,1.348-1.092,1.686l-0.046,0.017L51.07,9.526l-0.021-0.059  c-0.013-0.037-0.312-0.921,0.266-1.517l1.482-1.537L52.817,6.403z"/>
<path d="M61.886,19.708l2.803,0.545c0.286,0.056,0.563-0.13,0.618-0.417l1.349-6.915c0.056-0.287-0.131-0.564-0.418-0.619  l-2.803-0.546c-0.286-0.056-0.562,0.131-0.619,0.417l-1.347,6.916C61.414,19.375,61.601,19.652,61.886,19.708z"/>
<polygon points="59.718,15.901 59.355,17.76 61.184,19.097 61.729,16.293 61.989,14.952 62.536,12.15 60.341,12.702 59.979,14.561   "/>
<path d="M87.484,19.828c-0.655-2.236-2.813-3.624-5.052-3.387v9.816l1.829-0.536C86.78,24.983,88.222,22.345,87.484,19.828z"/>
<path d="M85.822,6.481L85.9,6.334c0.08-0.152,0.13-0.311,0.151-0.472l0.014-0.04l-0.008-0.003c0.058-0.555-0.218-1.117-0.74-1.396  c-0.688-0.366-1.544-0.105-1.911,0.583l-2.769,5.202l-2.771-5.202c-0.367-0.688-1.223-0.949-1.911-0.583  c-0.688,0.367-0.949,1.222-0.583,1.911l0.56,1.05l-1.229,11.24l-22.291,6.532h-0.52h-3.182h-8.914c-1.458,0-2.64,1.182-2.64,2.64  v38.448l-7.281,19.351H11.545c-2.916,0-5.28,2.364-5.28,5.28v0.192c0,2.916,2.364,5.279,5.28,5.279h22.01  c1.468,0,2.796-0.6,3.752-1.567h0.001c0,0,0.016-0.018,0.047-0.05c0.285-0.296,0.535-0.623,0.744-0.977  c0.318-0.489,0.679-1.142,0.981-1.945l7.363-19.567h21.127v18.827c0,2.916,2.362,5.279,5.278,5.279h0.243  c2.915,0,5.279-2.363,5.279-5.279V66.962v-0.243c0-2.916-2.364-5.279-5.279-5.279H72.85H54.533V49.215l3.008,3.615  c0,0,4.324,5.412,8.799,0.832l12.711-13.013c1.896-1.941,1.86-5.052-0.082-6.95c-0.773-0.755-1.734-1.204-2.73-1.347l1.779-4.802  l0.807-0.236c-0.004-0.052-0.008-0.104-0.008-0.157v-9.738l-3.586,1.05l1.125-10.291l2.768,5.198  c0.026,0.051,0.057,0.098,0.089,0.143v13.638c0,0.779,0.633,1.412,1.412,1.412c0.781,0,1.413-0.633,1.413-1.412V16.701L85.822,6.481  z M62.314,43.717l-7.738-9.297l19.011-5.571l-0.445,4.074c-0.403,0.226-0.782,0.511-1.122,0.858L62.314,43.717z M77.412,27.728  l-1.695,4.578c-0.692-0.026-1.388,0.095-2.037,0.36l0.434-3.97L77.412,27.728z M82.151,13.376l1.896-3.563l-2.01,5.428v-1.688  C82.078,13.498,82.117,13.439,82.151,13.376z"/>
<path d="M28.491,55.667h5.336c1.458,0,2.641-1.181,2.641-2.639V30.013c0-1.459-1.183-2.64-2.641-2.64h-5.336  c-1.458,0-2.639,1.181-2.639,2.64v23.015C25.852,54.486,27.033,55.667,28.491,55.667z"/>
</svg>