<svg xmlns="http://www.w3.org/2000/svg" xmlns:xlink="http://www.w3.org/1999/xlink" xmlns:a="http://ns.adobe.com/AdobeSVGViewerExtensions/3.0/" version="1.1" x="0px" y="0px" width="100px" height="100px" viewBox="-7.89 -2.392 100 100" enable-background="new -7.89 -2.392 100 100" xml:space="preserve">
<defs>
</defs>
<polygon points="31.694,26.695 34.553,30.713 36.414,33.327 34.033,36.892 30.693,41.895 34.077,46.865 37.458,51.838   37.411,41.864 37.381,34.687 37.411,34.73 37.374,26.67 37.34,18.612 34.516,22.654 "/>
<path d="M26.588,27.641c0.6-3.327-1.359-6.456-4.584-7.108c-3.222-0.652-6.482,1.422-7.505,4.664l-0.027-0.004l-0.068,0.261  c-0.012,0.053-0.041,0.1-0.05,0.151l0.015,0.001L0,83.396l12.216,2.469l14.47-58.206L26.588,27.641z"/>
<rect x="16.207" y="71.637" width="13.538" height="4.236"/>
<path d="M29.333,42.589l4.186-5.458l2.583-3.371l-1.622-2.266l-3.645-5.095l3.6-5.126l2.749-3.917v-0.29l-14.93,3.231  c0.109,0.017,0.217,0.011,0.325,0.033c3.226,0.662,5.186,3.83,4.583,7.204l0.1,0.018l-10.757,43.84h13.597v4.79H16.207v8.464v2.418  c0,2.541,2.146,4.597,4.793,4.597h10.516v-0.084c0.285,0.046,0.575,0.084,0.876,0.084c2.646,0,4.792-2.056,4.792-4.597v-2.418  v-20.62V52.651l-3.618-4.64L29.333,42.589z M35.37,57.77c0.716,0,1.295,0.551,1.295,1.229c0,0.68-0.58,1.23-1.295,1.23  c-0.714,0-1.293-0.551-1.293-1.23C34.077,58.32,34.656,57.77,35.37,57.77z M35.37,64.88c0.716,0,1.293,0.55,1.293,1.229  s-0.577,1.229-1.293,1.229c-0.716,0-1.293-0.551-1.293-1.229S34.654,64.88,35.37,64.88z"/>
<polygon points="55.273,41.894 51.935,36.891 49.558,33.325 51.412,30.712 54.273,26.694 51.452,22.652 48.627,18.612 48.593,26.67   48.553,34.729 48.586,34.686 48.553,41.864 48.509,51.838 51.888,46.865 "/>
<path d="M71.601,25.603l0.013,0c-0.011-0.052-0.038-0.098-0.051-0.151l-0.067-0.26l-0.023,0.003  c-1.028-3.24-4.285-5.315-7.508-4.664c-3.226,0.654-5.188,3.783-4.586,7.108l-0.101,0.021l14.476,58.206l12.213-2.469L71.601,25.603  z"/>
<rect x="56.224" y="71.635" width="13.537" height="4.238"/>
<path d="M55.864,71.39h13.597L58.705,27.551l0.098-0.02c-0.601-3.373,1.36-6.542,4.584-7.203c0.111-0.024,0.218-0.016,0.327-0.033  L48.78,17.065v0.289l2.753,3.917l3.601,5.127l-3.648,5.094l-1.619,2.266l2.579,3.371l4.188,5.459l-4.235,5.423L48.78,52.65v11.373  v20.622v2.418c0,2.541,2.147,4.597,4.793,4.597c0.302,0,0.593-0.038,0.878-0.084v0.084h10.517c2.643,0,4.793-2.056,4.793-4.597  v-2.418v-8.47H55.864V71.39z M51.891,58.998c0,0.103-0.034,0.191-0.062,0.287h-2.465c-0.029-0.096-0.064-0.185-0.064-0.287H51.891z   M49.302,66.105c0-0.099,0.033-0.19,0.062-0.283h2.466c0.026,0.093,0.062,0.185,0.062,0.283H49.302z"/>
<path d="M43.826,16.982l0.218-5.685c0.498-0.393,0.955-0.875,1.346-1.454c1.924-2.848,1.556-6.756-0.82-8.728  c-2.378-1.972-5.866-1.262-7.791,1.586c-0.528,0.782-0.867,1.646-1.055,2.526h1.877c0.139-0.467,0.337-0.926,0.622-1.348  c1.295-1.918,3.632-2.408,5.216-1.092c1.584,1.315,1.817,3.935,0.522,5.852c-0.386,0.573-0.871,1.001-1.396,1.31l-0.002,0.06  l-0.338-0.015l-0.269,6.986h-3.595v1.71h9.214v-1.71H43.826z"/>
<rect x="38.361" y="28.774" width="9.214" height="1.709"/>
</svg>