<svg xmlns="http://www.w3.org/2000/svg" xmlns:xlink="http://www.w3.org/1999/xlink" version="1.0" x="0px" y="0px" width="100px" height="100px" viewBox="0 0 100 100" overflow="" enable-background="new 0 0 100 100" xml:space="preserve">
    <path d="M87.591,30.211c-1.506-1.51-4.225-1.228-6.074,0.621c-1.04,1.038-1.588,2.347-1.597,3.564l0.009-0.014 c-0.014,2.689-0.935,5.207-2.809,7.071c-4.334,4.346-12.153,3.567-17.451-1.735c-5.303-5.303-6.083-13.117-1.735-17.451 c1.869-1.879,4.382-2.795,7.071-2.809l-0.01,0.014c1.219-0.014,2.527-0.565,3.558-1.598c1.851-1.851,2.134-4.579,0.628-6.084 l-0.048-0.062L58.394,0.969c-1.51-1.505-4.229-1.228-6.084,0.629L40.506,13.416l0,0c-1.582,1.573-3.907,1.807-5.187,0.527 c-0.446-0.441-0.709-1.007-0.796-1.61c-0.053-1.809-0.6-3.362-1.716-4.479c-3.74-3.735-12.36-1.184-19.244,5.707 C6.674,20.45,4.109,29.07,7.858,32.809c1.107,1.117,2.661,1.668,4.473,1.717c0.614,0.091,1.166,0.35,1.611,0.786 c1.285,1.285,1.05,3.615-0.533,5.192l0,0L1.592,52.31c-1.851,1.854-2.129,4.581-0.619,6.086l10.753,10.74l0.058,0.047 c1.51,1.511,4.238,1.229,6.089-0.628c1.035-1.03,1.577-2.344,1.586-3.562l-0.009,0.016c0.02-2.686,0.939-5.202,2.81-7.077 c4.339-4.338,12.153-3.557,17.451,1.743c5.302,5.305,6.088,13.114,1.745,17.453c-1.875,1.869-4.387,2.795-7.071,2.809l0.005-0.014 c-1.218,0.014-2.522,0.557-3.562,1.597c-1.856,1.851-2.129,4.574-0.624,6.077l0.043,0.063l10.744,10.754 c1.51,1.506,4.233,1.228,6.084-0.618l11.813-11.822l0,0c1.572-1.572,3.897-1.812,5.183-0.527c0.441,0.441,0.695,1.001,0.791,1.615 c0.048,1.803,0.599,3.355,1.711,4.474c3.745,3.738,12.365,1.184,19.254-5.706c6.885-6.889,9.439-15.504,5.7-19.245 c-1.117-1.115-2.67-1.672-4.473-1.72c-0.614-0.096-1.17-0.35-1.61-0.79c-1.285-1.281-1.046-3.605,0.532-5.184v-0.004l11.817-11.804 c1.846-1.855,2.133-4.578,0.628-6.084L87.662,30.254L87.591,30.211z"/>
</svg>