<svg xmlns="http://www.w3.org/2000/svg" xmlns:xlink="http://www.w3.org/1999/xlink" version="1.0" x="0px" y="0px" width="100px" height="100px" viewBox="0 0 100 100" overflow="" enable-background="new 0 0 100 100" xml:space="preserve">
    <path d="M94.81,35.888h-6.222v-3.585c0-4.73-3.834-8.566-8.563-8.566H8.564C3.833,23.737,0,27.573,0,32.303v35.763 c0,4.729,3.833,8.563,8.564,8.563h71.46c4.729,0,8.563-3.834,8.563-8.563v-3.75h6.222c2.365,0,4.284-1.919,4.284-4.282v-19.86 C99.094,37.807,97.175,35.888,94.81,35.888z M80.024,68.066H8.564V32.303h71.46V68.066z"/>
    <rect x="15.176" y="38.728" width="8.643" height="22.915"/>
    <rect x="31.221" y="38.728" width="8.647" height="22.915"/>
    <rect x="47.27" y="38.728" width="8.642" height="22.915"/>
</svg>