<svg xmlns="http://www.w3.org/2000/svg" xmlns:xlink="http://www.w3.org/1999/xlink" version="1.0" x="0px" y="0px" width="100px" height="100px" viewBox="0 0 100 100" overflow="" enable-background="new 0 0 100 100" xml:space="preserve">
    <path d="M71.088,62.825c0.64-0.177,1.019-0.827,0.844-1.467c-0.171-0.64-0.827-1.013-1.459-0.847 c-0.64,0.172-1.021,0.827-0.849,1.465C69.793,62.616,70.445,62.994,71.088,62.825z"/>
    <rect x="30.037" y="42.463" width="23.893" height="4.234"/>
    <rect x="20.703" y="42.463" width="4.442" height="4.234"/>
    <rect x="20.703" y="54.266" width="4.442" height="4.234"/>
    <rect x="20.703" y="66.067" width="4.442" height="4.235"/>
    <path d="M78.756,60.512c-0.637-0.166-1.296,0.207-1.467,0.844c-0.169,0.643,0.206,1.293,0.844,1.47 c0.639,0.169,1.295-0.209,1.464-0.849C79.773,61.339,79.39,60.684,78.756,60.512z"/>
    <rect x="30.037" y="42.463" width="23.893" height="4.234"/>
    <rect x="20.703" y="42.463" width="4.442" height="4.234"/>
    <rect x="20.703" y="54.266" width="4.442" height="4.234"/>
    <rect x="20.703" y="66.067" width="4.442" height="4.235"/>
    <path d="M84.237,64.654c-0.465,0.471-0.465,1.223,0,1.69c0.466,0.468,1.223,0.468,1.69,0 c0.466-0.468,0.466-1.22,0-1.69C85.46,64.189,84.703,64.189,84.237,64.654z"/>
    <rect x="30.037" y="42.463" width="23.893" height="4.234"/>
    <rect x="20.703" y="42.463" width="4.442" height="4.234"/>
    <rect x="20.703" y="54.266" width="4.442" height="4.234"/>
    <rect x="20.703" y="66.067" width="4.442" height="4.235"/>
    <path d="M89.222,73.297c0.642-0.175,1.021-0.833,0.846-1.465c-0.166-0.637-0.824-1.018-1.461-0.85 c-0.638,0.175-1.016,0.828-0.85,1.468C87.932,73.093,88.584,73.463,89.222,73.297z"/>
    <rect x="30.037" y="42.463" width="23.893" height="4.234"/>
    <rect x="20.703" y="42.463" width="4.442" height="4.234"/>
    <rect x="20.703" y="54.266" width="4.442" height="4.234"/>
    <rect x="20.703" y="66.067" width="4.442" height="4.235"/>
    <path d="M88.606,80.959c0.637,0.171,1.295-0.204,1.461-0.847c0.175-0.637-0.204-1.29-0.841-1.462 c-0.643-0.172-1.295,0.204-1.47,0.841C87.591,80.134,87.969,80.787,88.606,80.959z"/>
    <rect x="30.037" y="42.463" width="23.893" height="4.234"/>
    <rect x="20.703" y="42.463" width="4.442" height="4.234"/>
    <rect x="20.703" y="54.266" width="4.442" height="4.234"/>
    <rect x="20.703" y="66.067" width="4.442" height="4.235"/>
    <path d="M84.237,85.6c-0.465,0.465-0.465,1.225,0,1.688c0.466,0.468,1.223,0.468,1.69,0 c0.466-0.463,0.466-1.223,0-1.688C85.46,85.129,84.703,85.129,84.237,85.6z"/>
    <rect x="30.037" y="42.463" width="23.893" height="4.234"/>
    <rect x="20.703" y="42.463" width="4.442" height="4.234"/>
    <rect x="20.703" y="54.266" width="4.442" height="4.234"/>
    <rect x="20.703" y="66.067" width="4.442" height="4.235"/>
    <path d="M78.133,89.121c-0.638,0.169-1.013,0.825-0.844,1.462c0.171,0.643,0.821,1.019,1.467,0.85 c0.634-0.172,1.018-0.83,0.841-1.467C79.428,89.328,78.771,88.953,78.133,89.121z"/>
    <rect x="30.037" y="42.463" width="23.893" height="4.234"/>
    <rect x="20.703" y="42.463" width="4.442" height="4.234"/>
    <rect x="20.703" y="54.266" width="4.442" height="4.234"/>
    <rect x="20.703" y="66.067" width="4.442" height="4.235"/>
    <path d="M71.088,89.121c-0.643-0.168-1.295,0.207-1.464,0.845c-0.172,0.637,0.209,1.295,0.849,1.467 c0.632,0.169,1.288-0.21,1.459-0.85C72.106,89.946,71.728,89.29,71.088,89.121z"/>
    <rect x="30.037" y="42.463" width="23.893" height="4.234"/>
    <rect x="20.703" y="42.463" width="4.442" height="4.234"/>
    <rect x="20.703" y="54.266" width="4.442" height="4.234"/>
    <rect x="20.703" y="66.067" width="4.442" height="4.235"/>
    <path d="M63.298,85.6c-0.468,0.465-0.468,1.225,0,1.688c0.463,0.468,1.22,0.468,1.69,0 c0.463-0.463,0.463-1.223,0-1.688C64.518,85.129,63.761,85.129,63.298,85.6z"/>
    <rect x="30.037" y="42.463" width="23.893" height="4.234"/>
    <rect x="20.703" y="42.463" width="4.442" height="4.234"/>
    <rect x="20.703" y="54.266" width="4.442" height="4.234"/>
    <rect x="20.703" y="66.067" width="4.442" height="4.235"/>
    <path d="M59.999,78.65c-0.637,0.172-1.018,0.825-0.844,1.462c0.169,0.643,0.827,1.015,1.464,0.847 c0.638-0.172,1.016-0.825,0.845-1.468C61.295,78.854,60.639,78.479,59.999,78.65z"/>
    <rect x="30.037" y="42.463" width="23.893" height="4.234"/>
    <rect x="20.703" y="42.463" width="4.442" height="4.234"/>
    <rect x="20.703" y="54.266" width="4.442" height="4.234"/>
    <rect x="20.703" y="66.067" width="4.442" height="4.235"/>
    <path d="M60.619,70.982c-0.637-0.168-1.295,0.213-1.464,0.85c-0.174,0.632,0.207,1.29,0.844,1.465 c0.64,0.166,1.296-0.204,1.465-0.847C61.635,71.811,61.257,71.157,60.619,70.982z"/>
    <rect x="30.037" y="42.463" width="23.893" height="4.234"/>
    <rect x="20.703" y="42.463" width="4.442" height="4.234"/>
    <rect x="20.703" y="54.266" width="4.442" height="4.234"/>
    <rect x="20.703" y="66.067" width="4.442" height="4.235"/>
    <path d="M76.894,73.688c-0.139-0.145-0.294-0.261-0.451-0.37l0.008-0.021l-11.462-8.643 c-0.471-0.465-1.228-0.465-1.69,0c-0.468,0.471-0.468,1.223,0,1.69l8.642,11.47l0.014-0.016c0.115,0.163,0.231,0.311,0.379,0.454 c1.255,1.261,3.305,1.261,4.562,0C78.151,76.993,78.151,74.951,76.894,73.688z"/>
    <rect x="30.037" y="42.463" width="23.893" height="4.234"/>
    <rect x="20.703" y="42.463" width="4.442" height="4.234"/>
    <rect x="20.703" y="54.266" width="4.442" height="4.234"/>
    <rect x="20.703" y="66.067" width="4.442" height="4.235"/>
    <path d="M37.617,14.049c2.409,0,4.35-1.941,4.35-4.347c0-2.399-1.941-4.35-4.35-4.35 c-2.393,0-4.336,1.95-4.336,4.35C33.281,12.108,35.225,14.049,37.617,14.049z"/>
    <rect x="30.037" y="42.463" width="23.893" height="4.234"/>
    <rect x="20.703" y="42.463" width="4.442" height="4.234"/>
    <rect x="20.703" y="54.266" width="4.442" height="4.234"/>
    <rect x="20.703" y="66.067" width="4.442" height="4.235"/>
    <path d="M93.334,60.267l1.206-1.206l0.416,0.414c0.352,0.354,0.917,0.354,1.266,0l1.582-1.573 c0.34-0.354,0.34-0.92,0-1.263l-0.011-0.011l-3.762-3.762c-0.349-0.349-0.918-0.349-1.269,0l-1.576,1.576 c-0.352,0.354-0.352,0.914,0,1.266l0.405,0.408l-1.194,1.197c-2.828-2.393-6.203-4.153-9.913-5.068 c2.096-1.705,3.438-4.304,3.438-7.221c0-5.145-4.164-9.312-9.309-9.312c-0.062,0-0.126,0.016-0.188,0.019V17.319 c0-6.666-5.399-12.074-12.063-12.074h-12.92c-1.315-2.614-3.751-4.568-6.682-5.214c-0.027-0.011-0.046-0.011-0.058-0.028 c-0.062-0.005-0.125-0.021-0.185-0.021c-0.39,0-0.708,0.317-0.708,0.704c0,0.299,0.193,0.559,0.463,0.655 c3.089,1.677,5.204,4.94,5.204,8.71h8.206c5.463,0,9.892,4.436,9.892,9.894v3.119c0,1.648-1.345,2.999-2.997,2.999H12.589 c-1.658,0-2.994-1.351-2.994-2.999v-3.119c0-5.458,4.426-9.894,9.889-9.894h8.207c0-1.745,0.457-3.376,1.249-4.806H13.289 c-6.666,0-12.061,5.408-12.061,12.074v61.974v0.003c0,6.668,5.395,12.063,12.061,12.063h42.347 c4.478,5.52,11.312,9.053,18.978,9.053c13.495,0,24.434-10.942,24.434-24.439C99.047,69.989,96.905,64.513,93.334,60.267z M74.613,38.764c3.454,0,6.26,2.805,6.26,6.261c0,2.709-1.726,5.014-4.129,5.888v-3.999h0.591c0.492,0,0.896-0.401,0.896-0.896 v-2.232c0-0.495-0.403-0.894-0.896-0.894h-0.014h-5.313H72c-0.49,0-0.891,0.399-0.891,0.894v2.232c0,0.494,0.4,0.896,0.891,0.896 h0.58v4.03c-2.458-0.843-4.228-3.174-4.228-5.919C68.353,41.569,71.156,38.764,74.613,38.764z M52.288,66.067H30.037v4.235h20.825 c-0.433,1.823-0.683,3.713-0.683,5.67c0,1.668,0.168,3.29,0.487,4.863H17.268c-1.655,0-2.997-1.339-2.997-2.996V35.918 c0-1.653,1.342-2.997,2.997-2.997h41.691c1.66,0,3.003,1.343,3.003,2.997v19.186c-1.098,0.664-2.159,1.383-3.134,2.21l-1.197-1.197 l0.406-0.408c0.348-0.352,0.348-0.912,0-1.266l-1.582-1.576c-0.349-0.349-0.912-0.349-1.258,0l-1.398,1.399H30.037V58.5h21.99 l0.972,0.975c0.354,0.354,0.923,0.354,1.269,0l0.422-0.414l1.203,1.206C54.428,62.006,53.225,63.966,52.288,66.067z M74.613,94.44 c-10.169,0-18.411-8.242-18.411-18.417c0-10.163,8.242-18.405,18.411-18.405c10.163,0,18.413,8.242,18.413,18.405 C93.026,86.198,84.776,94.44,74.613,94.44z"/>
    <rect x="30.037" y="42.463" width="23.893" height="4.234"/>
    <rect x="20.703" y="42.463" width="4.442" height="4.234"/>
    <rect x="20.703" y="54.266" width="4.442" height="4.234"/>
    <rect x="20.703" y="66.067" width="4.442" height="4.235"/>
</svg>