<svg xmlns="http://www.w3.org/2000/svg" xmlns:xlink="http://www.w3.org/1999/xlink" version="1.0" x="0px" y="0px" width="100px" height="100px" viewBox="0 0 100 100" overflow="" enable-background="new 0 0 100 100" xml:space="preserve">
    <path d="M85.872,0H14.606c-2.239,0-4.06,1.827-4.06,4.064v91.863c0,2.241,1.821,4.073,4.06,4.073h71.266 c2.245,0,4.066-1.832,4.066-4.073V4.064C89.938,1.827,88.117,0,85.872,0z M24.257,88.896h-6.853V77.784h6.853V88.896z M24.257,55.561v11.104h-6.853V55.561v-0.009h6.853V55.561z M24.257,44.431v0.013h-6.853v-0.013V33.336h6.853V44.431z M24.257,22.209h-6.853V11.104h6.853V22.209z M69.372,88.896H31.113V55.561h38.259V88.896z M69.372,44.431H31.113V11.104h38.259 V44.431z M83.077,88.896h-6.852V77.784h6.852V88.896z M83.077,55.561v11.104h-6.852V55.561v-0.009h6.852V55.561z M83.077,44.431 v0.013h-6.852v-0.013V33.336h6.852V44.431z M83.077,22.209h-6.852V11.104h6.852V22.209z"/>
</svg>