<svg xmlns="http://www.w3.org/2000/svg" xmlns:xlink="http://www.w3.org/1999/xlink" version="1.1" id="Layer_1" x="0px" y="0px" width="100px" height="100px" viewBox="0 0 100 100" enable-background="new 0 0 100 100" xml:space="preserve">
<g>
	<path fill="#000000" d="M59.127,78.07H41.383c-2.442,0-2.863,1.646-2.863,2.729c0,1.084,0.362,3.079,2.979,3.079h3.257   l-4.872,1.274c-1.027,0.333-1.593,1.315-1.259,2.344c0.267,0.83,1.076,1.375,1.866,1.123c11.601-3.707,19.244-6.32,19.244-6.32   c0.917-0.297,1.331-1.021,1.331-2.301C61.066,78.544,60.093,78.07,59.127,78.07z"/>
	<path fill="#000000" d="M59.104,90.174l-3.215,0.033l3.822-1.729c1.027-0.332,1.593-1.874,1.256-2.905   c-0.334-1.027-1.438-1.812-2.468-1.478l-18.627,5.935c-0.917,0.301-1.482,1.616-1.332,2.57c0.15,0.952,0.974,2.047,1.938,2.047   h1.692l4.01,3.918h7.149l4.058-3.918h1.716c1.085,0,1.96-1.155,1.96-2.237C61.064,91.328,60.189,90.174,59.104,90.174z"/>
	<path fill="#000000" d="M77.33,35.106c-0.769-2.113-3.104-3.202-5.217-2.433L24.684,49.936c-0.032,0.012-0.058,0.031-0.089,0.043   c-0.14,0.055-0.27,0.124-0.402,0.194c-0.108,0.057-0.22,0.108-0.321,0.174c-0.111,0.072-0.212,0.158-0.315,0.24   c-0.104,0.082-0.21,0.16-0.305,0.252c-0.094,0.09-0.173,0.191-0.257,0.29c-0.084,0.099-0.172,0.192-0.246,0.299   c-0.081,0.114-0.144,0.238-0.212,0.36c-0.058,0.104-0.122,0.205-0.17,0.313c-0.057,0.127-0.097,0.263-0.141,0.396   c-0.039,0.118-0.083,0.233-0.11,0.355c-0.028,0.123-0.04,0.251-0.057,0.379c-0.019,0.143-0.039,0.283-0.043,0.428   c-0.001,0.034-0.01,0.066-0.01,0.102c0,0.099,0.022,0.192,0.029,0.289c0.01,0.136,0.017,0.271,0.041,0.406   c0.028,0.16,0.073,0.312,0.119,0.466c0.022,0.076,0.031,0.153,0.058,0.229c0.01,0.026,0.026,0.049,0.036,0.075   c0.062,0.159,0.141,0.309,0.221,0.458c0.048,0.09,0.091,0.183,0.145,0.268c0.084,0.131,0.183,0.25,0.282,0.37   c0.069,0.085,0.133,0.174,0.208,0.253c0.106,0.11,0.226,0.206,0.344,0.305c0.082,0.067,0.158,0.141,0.244,0.201   c0.131,0.093,0.273,0.167,0.414,0.244c0.087,0.047,0.17,0.101,0.261,0.142c0.141,0.063,0.29,0.108,0.439,0.155   c0.104,0.034,0.207,0.073,0.313,0.098c0.133,0.031,0.271,0.044,0.41,0.062c0.133,0.017,0.264,0.036,0.399,0.04   c0.036,0.001,0.07,0.011,0.106,0.011h12.56v3.673H37.43c0,0-1.628,0-4.187,0c-2.559,0-2.559,0.931-2.559,2.094   s-0.291,3.78,3.373,7.442c3.664,3.664,0.814,5.283,6.396,5.283h18.72c5.582,0,2.732-1.619,6.396-5.283   c3.663-3.662,3.372-6.279,3.372-7.442s0-2.094-2.559-2.094s-4.187,0-4.187,0H61.09v-5.062l13.808-5.025   c2.112-0.77,3.2-3.105,2.432-5.218C76.561,44.09,74.226,43,72.113,43.77L61.09,47.782l-8.141,2.962v8.664v2.099h-6.174v-7.744   c0-1.085-0.431-2.064-1.123-2.794l29.245-10.645C77.01,39.554,78.098,37.218,77.33,35.106z"/>
	<path fill="#000000" d="M72.113,22.089L24.684,39.352c-2.112,0.77-3.202,3.105-2.433,5.218c0.769,2.112,3.104,3.202,5.217,2.433   L74.898,29.74c2.112-0.769,3.2-3.104,2.432-5.217S74.226,21.321,72.113,22.089z"/>
	<path fill="#000000" d="M72.113,11.506L24.684,28.769c-2.112,0.77-3.202,3.105-2.433,5.217c0.769,2.113,3.104,3.202,5.217,2.433   l47.429-17.263c2.112-0.769,3.2-3.105,2.432-5.217C76.561,11.827,74.226,10.738,72.113,11.506z"/>
	<path fill="#000000" d="M27.469,25.835L74.898,8.573c2.112-0.769,3.2-3.104,2.432-5.217c-0.769-2.112-3.104-3.202-5.217-2.433   L24.684,18.186c-2.112,0.769-3.202,3.104-2.433,5.217C23.02,25.515,25.356,26.605,27.469,25.835z"/>
	<path fill="#000000" d="M27.469,15.136l19.889-7.239c2.113-0.77,3.202-3.105,2.433-5.218c-0.769-2.112-3.105-3.202-5.217-2.432   l-19.89,7.239c-2.112,0.77-3.202,3.104-2.432,5.217C23.02,14.816,25.356,15.905,27.469,15.136z"/>
	<path fill="#000000" d="M49.791,100c1.836,0,3.159-0.988,3.159-0.988h-6.174C46.776,99.012,47.954,100,49.791,100z"/>
</g>
</svg>