<svg xmlns="http://www.w3.org/2000/svg" xmlns:xlink="http://www.w3.org/1999/xlink" version="1.1" id="Layer_1" x="0px" y="0px" width="100px" height="100px" viewBox="0 0 100 100" enable-background="new 0 0 100 100" xml:space="preserve">
<path d="M93.296,58.818c-0.684,5.245-2.63,9.416-7.309,9.323c-8.756-0.446-4.741-15.062-13.25-19.455  c0.048,0.167,0.064,0.37,0.031,0.621c-0.099,0.751-1.62,0.161-1.706,3.026c-0.047,1.555,1.814,3.724-1.295,5.692  c-3.108,1.969-13.373-3.283-15.579,5.441c5.356,1.352,2.847,4.781,5.33,9.873c2.987,6.122,6.788,8.596,2.308,6.505  c-1.646-0.768,3.584,3.435,5.973,10.005c2.389,6.569,3.3,9.557,3.3,9.557L7.328,99.406c0,0-0.507-15.951,8.66-24.189  c4.319-3.882,5.793-5.115,5.077-5.673c-1.345-1.046,8.047-15.519,11.182-13.429c0.109,0.073,0.264,0.17,0.459,0.292  c1.079-3.356,0.903-7.022-1.828-10.771c-1.249-1.715-2.302-3.556-3.146-5.482c-13.496,11.172-4.607-6.646-4.607-6.646  s0.993-1.746,1-12.785c0.783-5.804,4.656-11.12,12.336-14.882c-0.534-0.11-1.094-0.156-1.673-0.129l0.584-2.184  c1.11-0.053,2.11,0.202,3.001,0.67c0.15-1.226,0.633-2.354,1.602-3.267l3.001,0.652c-0.693,0.654-1.221,1.432-1.599,2.282  C51.811,0.935,59.389,2.883,64.04,7.753c6.826,9.084,8.325,9.756,8.325,9.756s19.296,10.042-2.413,7.87  c0.503,0.984,1.498,2.369,1.147,3.016c-0.913,1.682-1.331,2.558,0.279,4.838c1.048,1.485,4.073,5.943,4.747,7.174  c0.939,1.714-4.479,1.768-4.003,3.071c0.217,0.596,0.946,2.096,1.182,2.678c0.181,0.446-0.432,0.789-0.905,1.106  c3.842,1.069,6.809,3.931,8.38,9.369c1.504,5.206,2.956,5.553,3.58,5.58c1.302-0.064,1.634-1.739,1.719-4.178  c0.095-0.507,1.739-0.75,3.712-0.543c1.991,0.209,3.56,0.798,3.507,1.318L93.296,58.818z"/>
</svg>