<svg xmlns="http://www.w3.org/2000/svg" xmlns:xlink="http://www.w3.org/1999/xlink" version="1.1" id="Layer_1" x="0px" y="0px" width="100px" height="100px" viewBox="0 0 100 100" enable-background="new 0 0 100 100" xml:space="preserve">
<path d="M53.272,71.413h4.361c1.63,0,2.951-1.321,2.951-2.951v-6.27l7.842-12.849l-3.331-11.631V0H62.18v27.535l-2.967-10.358  H40.788l-2.862,9.995V0H35.01v37.349l-3.435,11.994l7.912,12.963v6.155c0,1.63,1.321,2.951,2.95,2.951h4.776  c0.121,3.692,0.843,6.963,4.73,9.369c5.101,3.157,3.886,9.785-1.943,9.785c-6.87,0-5.136-10.202-10.618-10.202  c-3.123,0-0.312,3.437-0.312,7.287c0,16.552,25.295,16.344,25.295,0.104C64.366,76.655,54.941,76.881,53.272,71.413z M62.667,46.689  h1.942l0.971,1.682l-0.971,1.683h-1.942l-0.972-1.683L62.667,46.689z M37.439,50.054h-1.942l-0.971-1.683l0.971-1.682h1.942  l0.971,1.682L37.439,50.054z M42.263,23.682L41.292,22l0.971-1.682h1.942L45.176,22l-0.971,1.682H42.263z M47.19,66.291h-0.172  c-1.241,0-2.302-0.768-2.737-1.853h2.909C47.19,65.053,47.19,65.675,47.19,66.291z M55.171,20.318h1.942L58.084,22l-0.971,1.682  h-1.942L54.2,22L55.171,20.318z M50,59.941c-1.139,0-2.061-0.923-2.061-2.062c0-1.138,0.922-2.061,2.061-2.061  s2.061,0.923,2.061,2.061C52.061,59.018,51.139,59.941,50,59.941z M50,43.236c-1.342,0-2.429-1.087-2.429-2.429  s1.087-2.429,2.429-2.429s2.429,1.088,2.429,2.429S51.342,43.236,50,43.236z M53.053,66.291h-0.034c0-0.652,0-1.27,0-1.853h2.771  C55.354,65.523,54.293,66.291,53.053,66.291z"/>
</svg>