<svg xmlns="http://www.w3.org/2000/svg" xmlns:xlink="http://www.w3.org/1999/xlink" version="1.1" id="Layer_1" x="0px" y="0px" width="100px" height="100px" viewBox="0 0 100 100" enable-background="new 0 0 100 100" xml:space="preserve">
<path fill="#000000" d="M44.741,89.59l14.36-2.597c0.019-0.175,0.027-0.359,0.027-0.543v-1.39l-15.06,2.715  C44.199,88.421,44.429,89.028,44.741,89.59z"/>
<polygon fill="#000000" points="43.931,86.396 59.131,83.652 59.131,81.729 43.931,84.463 "/>
<path fill="#000000" d="M47.125,92.048v2.954h8.819v-2.954c1.345-0.81,2.375-2.081,2.872-3.591l-13.182,2.375  C46.066,91.312,46.563,91.717,47.125,92.048z"/>
<path fill="#000000" d="M65.78,46.248l-8.007,1.06l-5.107,10.425c-1.188-0.032-2.382-0.015-3.558,0.054l-6.327-8.495l-6.976,0.924  c-0.235,0.031-0.469,0.046-0.701,0.046c-0.595,0-1.17-0.104-1.711-0.29l7.067,9.488c-2.749,1.077-4.562,2.653-4.562,4.73  c0,6.148,2.372,10.645,8.033,13.452v5.422l15.198-2.743v-2.679c5.662-2.808,8.033-7.303,8.033-13.452  c0-2.474-2.569-4.236-6.232-5.293l6.426-13.116C66.87,46.011,66.342,46.173,65.78,46.248z"/>
<path fill="#000000" d="M64.564,37.071L34.59,41.038c-2.172,0.288-3.7,2.281-3.413,4.454c0.264,1.996,1.968,3.447,3.928,3.447  c0.173,0,0.349-0.012,0.525-0.034l29.975-3.967c2.172-0.288,3.7-2.281,3.413-4.454C68.73,38.312,66.731,36.787,64.564,37.071z"/>
<path fill="#000000" d="M64.564,27.649L34.59,31.616c-2.172,0.288-3.7,2.281-3.413,4.453c0.264,1.996,1.968,3.447,3.928,3.447  c0.173,0,0.349-0.011,0.525-0.035l29.975-3.967c2.172-0.288,3.7-2.281,3.413-4.453C68.73,28.889,66.731,27.365,64.564,27.649z"/>
<path fill="#000000" d="M64.564,18.227L34.59,22.194c-2.172,0.288-3.7,2.281-3.413,4.454c0.264,1.996,1.968,3.447,3.928,3.447  c0.173,0,0.349-0.011,0.525-0.034l29.975-3.967c2.172-0.288,3.7-2.281,3.413-4.454C68.73,19.467,66.731,17.943,64.564,18.227z"/>
<path fill="#000000" d="M63.194,7.74L45.91,5.07c-2.165-0.335-4.192,1.149-4.526,3.315c-0.12,0.777-0.002,1.534,0.293,2.204  L63.194,7.74z"/>
<path fill="#000000" d="M34.94,20.782c0.173,0,0.349-0.011,0.525-0.035l29.975-3.967c2.172-0.288,3.7-2.282,3.413-4.454  c-0.288-2.172-2.287-3.695-4.454-3.413l-29.975,3.967c-2.172,0.288-3.7,2.281-3.413,4.453C31.276,19.331,32.981,20.782,34.94,20.782  z"/>
</svg>