<svg xmlns="http://www.w3.org/2000/svg" xmlns:xlink="http://www.w3.org/1999/xlink" version="1.1" id="Layer_1" x="0px" y="0px" width="100px" height="100px" viewBox="0 0 100 100" enable-background="new 0 0 100 100" xml:space="preserve">
<path d="M31.817,80.507c-9.595-5.144-18.634-8.716-19.989-6.198c-1.35,2.523,5.506,10.178,15.095,15.321  c9.594,5.144,19.239,7.048,20.596,4.524C48.868,91.637,41.405,85.648,31.817,80.507z M34.782,88.275  c-0.419,0.781-3.414,0.191-6.391-1.407s-5.109-3.976-4.689-4.757c0.42-0.782,3.227,0.328,6.21,1.922  C32.889,85.632,35.202,87.491,34.782,88.275z"/>
<path d="M54.107,82.866l-5.782,10.077c1.271-2.979-6.365-8.436-15.953-13.578c-8.988-4.819-17.494-8.256-19.644-6.6l8.857-10.222  c2.313-2.438,12.027-1.336,20.477,3.188C50.98,70.52,55.839,79.641,54.107,82.866z"/>
<path d="M51.32,69.042l-1.411,2.459c0.348-2.628-12.021-11.213-18.258-10.043l1.5-2.823c1.277-1.349,6.336-0.654,11.002,1.844  C49.08,63.123,52.275,67.26,51.32,69.042z"/>
<g>
	<path d="M59.09,8.9C45.435,6.348,38.302,20.054,38.234,20.309c-8.864,3.192-12.759,8.103-11.488,17.885   c0.76,3.753,3.027,7.252,4.904,9.815c0,0,0.006,0.011,0.018,0.028c0.175,0.283,1.655,2.857,1.52,9.379   c1.553-1.253,6.748-0.486,11.551,2.053c4.728,2.506,7.955,6.295,7.779,8.381c2.273-2.387,5.256-5.289,7.344-5.188   c10.808,0.533,18.275-7.688,19.705-17.436l0.175-9.249C79.74,31.287,76.859,11.735,59.09,8.9z M30.277,34.887   c0-2.784,1.917-5.12,4.497-5.772c-1.774,1.219-2.943,3.266-2.943,5.58c0,2.705,1.594,5.047,3.896,6.124   C32.677,40.564,30.277,38.006,30.277,34.887z M37.695,40.66c-2.893-0.437-5.126-2.943-5.126-5.965c0-2.682,1.757-4.956,4.178-5.738   c3.052,0.26,5.439,2.818,5.439,5.931C42.187,37.672,40.275,40.008,37.695,40.66z M52.477,34.513c0-3.731,2.729-6.816,6.295-7.377   c-2.512,1.582-4.179,4.377-4.179,7.559c0,2.858,1.351,5.41,3.447,7.037C54.836,40.893,52.477,37.978,52.477,34.513z M60.025,41.976   c-0.006,0-0.006,0-0.006,0c-2.705-1.31-4.576-4.077-4.576-7.281c0-3.493,2.229-6.481,5.342-7.599   c3.725,0.414,6.622,3.573,6.622,7.417C67.407,38.607,64.107,41.93,60.025,41.976z"/>
</g>
<g>
	<path d="M61.277,4.738l0.006,0.011c0.007,0,0.018-0.006,0.029-0.006L61.277,4.738z"/>
</g>
<path d="M69.816,6.02c0,0-3.686-1.23-8.176-1.276c-0.103-0.005-0.205-0.005-0.307,0.006c-0.012,0-0.018-0.006-0.021-0.006  c-0.013,0-0.022,0.006-0.029,0.006c-2.086,0.187-4.649,3.158-4.649,3.158s5.173,0,8.507,1.843c0.107-0.408,0.362-0.805,0.709-1.179  c1.344,0.51,2.807,1.293,3.969,2.455C71.213,8.027,69.816,6.02,69.816,6.02z M69.598,10.057c-1.027-0.862-2.195-1.486-3.301-1.928  c0.936-0.822,2.188-1.485,2.919-1.837C69.523,6.586,70.182,8.276,69.598,10.057z"/>
<path d="M88.061,43.302c0,0-2.314-1.803-5.473-1.803c-0.107,0-0.21,0-0.318,0.005c0.233,1.417,0.131,2.728-0.067,3.776  c-1.281,0.335-2.035,0.492-2.035,0.492s-1.744,5.869-2.502,6.885c3.022-0.556,9.636-3.334,9.636-3.334s0.006-0.017,0.022-0.051  C87.492,48.882,88.564,46.24,88.061,43.302z M82.809,45.117c0.147-0.884,0.223-1.922,0.107-3.045  c2.184,0.097,3.912,1.089,4.542,1.497C85.962,44.204,84.227,44.737,82.809,45.117z"/>
<g>
	<path d="M86.54,19.674c0,0-0.312-0.011-0.795-0.011c-1.321,0-3.929,0.096-4.854,0.811c0.534,0.323,0.977,0.68,1.344,1.032   c-2.289,0.98-4.659,1.996-4.762,2.041c0.428,0.403,2.086,5.046,2.268,7.706c0.777-0.403,8.363-5.013,8.363-5.013   C88.688,25.157,88.195,19.578,86.54,19.674z M82.803,21.267c-0.222-0.232-0.476-0.459-0.766-0.686   c0.742-0.198,1.859-0.318,3.181-0.346C84.555,20.519,83.699,20.881,82.803,21.267z"/>
</g>
</svg>