<svg xmlns="http://www.w3.org/2000/svg" xmlns:xlink="http://www.w3.org/1999/xlink" version="1.1" id="Layer_1" x="0px" y="0px" width="100px" height="100px" viewBox="0 0 100 100" enable-background="new 0 0 100 100" xml:space="preserve">
<path d="M58.854,12.364c-1.034,4.046-1.745,8.349-2.233,12.386C57.304,19.514,58.104,15.443,58.854,12.364z"/>
<path d="M77.934,5.073H62.49c-0.68,1.697-1.494,4.1-2.304,7.38c-1.814,7.356-3.979,20.745-3.979,42.752v42.418l21.727-14.334V5.073z  "/>
<path d="M46.6,36.107c-0.002,0-0.004,0-0.005,0l-19.062-2.646l1.655,2.554l17.307,2.605C46.521,37.833,46.556,36.994,46.6,36.107z"/>
<path d="M54.999,46.859l-8.288-1.345c-0.18-0.029-0.313-0.183-0.316-0.365c-0.001-0.031-0.007-0.505-0.005-1.33l-23.167-4.014  c-0.18-0.031-0.312-0.188-0.312-0.372c0-0.179,0.055-18.117,3.967-30.897c0.038-0.125,0.139-0.222,0.266-0.254  c0.118-0.031,12.007-3,31.603-0.527c0.114,0.015,0.215,0.081,0.274,0.179c0.061,0.098,0.071,0.218,0.031,0.326l-0.33,0.888h0.965  c0.008,0,0.016,0.001,0.022,0.002c0.972-3.332,1.887-5.481,2.523-6.754c-2.411-0.366-20.296-2.87-33.867,0.983  c0,0-6.114,7.149-6.302,37.623V89.16l32.825,9.376V55.205C54.891,52.272,54.929,49.494,54.999,46.859z M54.046,53.795  c0,0.112-0.051,0.218-0.136,0.289c-0.068,0.057-0.154,0.087-0.24,0.087c-0.023,0-0.046-0.001-0.069-0.006l-12.435-2.29  c-0.395,0.081-2.245,0.428-4.698,0.428c-1.395,0-2.734-0.113-3.983-0.338c-4.015-0.724-5.809-2.582-6.229-3.083l-2.85-0.55  c-0.177-0.034-0.305-0.188-0.305-0.369v-5.361c0-0.111,0.049-0.217,0.134-0.288c0.085-0.072,0.198-0.103,0.307-0.083l30.192,5.315  c0.18,0.031,0.312,0.188,0.312,0.37V53.795z"/>
<path d="M58.854,12.364c0.034-0.139,0.067-0.277,0.102-0.412c0.181-0.727,0.362-1.408,0.542-2.051h-7.948  c-4.407,12.245-4.424,32.181-4.404,34.922l7.876,1.277c0.255-8.629,0.859-15.674,1.6-21.35  C57.108,20.713,57.819,16.41,58.854,12.364z M54.42,32.081c-0.023,0.191-0.186,0.331-0.373,0.331c-0.016,0-0.031-0.001-0.046-0.002  l-4.702-0.565c-0.207-0.024-0.354-0.212-0.329-0.418c0.025-0.207,0.212-0.353,0.418-0.329l4.703,0.565  C54.297,31.687,54.444,31.875,54.42,32.081z M55.112,27.208c-0.012,0-0.023-0.001-0.034-0.002l-5.832-0.533  c-0.208-0.02-0.359-0.202-0.341-0.409c0.02-0.207,0.204-0.36,0.41-0.34l5.831,0.532c0.207,0.019,0.359,0.202,0.341,0.409  C55.469,27.061,55.305,27.208,55.112,27.208z"/>
<path d="M23.853,47.653l2.56,0.493c0.535-0.231,2.649-0.892,7.944,0.026c5.218,0.906,6.674,2.424,7.044,2.981l11.892,2.189v-5.11  l-29.44-5.182V47.653z M26.527,44.225c0.086-0.071,0.199-0.101,0.309-0.081l16.319,3.026c0.178,0.033,0.308,0.189,0.308,0.37  l0,1.027c0.002,0.018,0.004,0.035,0.004,0.054c0,0.207-0.168,0.375-0.376,0.375c-0.001,0-0.002,0-0.003,0  c-0.024,0-0.048-0.001-0.072-0.006l-16.318-3.151c-0.177-0.034-0.305-0.189-0.305-0.369l-0.001-0.956  C26.391,44.403,26.441,44.296,26.527,44.225z"/>
<polygon points="42.71,48.164 42.71,47.852 27.144,44.967 27.144,45.159 "/>
<path d="M34.229,48.915c-4.182-0.725-6.266-0.435-7.107-0.213c0.673,0.65,2.361,1.958,5.497,2.521c1.205,0.218,2.5,0.328,3.85,0.328  c1.76,0,3.222-0.189,4.002-0.315C39.854,50.663,38.228,49.607,34.229,48.915z"/>
<path d="M30.805,16.498l17.977,0.734c0.572-2.786,1.277-5.46,2.153-7.837c0.054-0.148,0.195-0.247,0.353-0.247h6.635l0.261-0.705  C41.252,6.37,30.257,8.377,27.837,8.896L30.805,16.498z"/>
<path d="M23.689,39.113l4.747-2.872l-1.984-3.061c-0.008-0.012-0.013-0.025-0.02-0.038c-0.004-0.008-0.009-0.017-0.013-0.025  c-0.007-0.018-0.011-0.036-0.016-0.054c-0.002-0.007-0.004-0.013-0.005-0.019c-0.01-0.05-0.008-0.101,0.002-0.15  c0-0.001,0-0.002,0.001-0.003l3.7-16.115c0-0.002,0.001-0.003,0.001-0.005L27.33,9.666c-3.341,11.651-3.637,27.061-3.663,29.452  l0.012,0.001C23.683,39.118,23.686,39.116,23.689,39.113z"/>
<path d="M46.458,39.373c-0.018,0-0.037-0.003-0.056-0.005l-17.36-2.612l-4.234,2.561l21.587,3.74  c0.008-0.959,0.029-2.211,0.074-3.686C46.466,39.371,46.462,39.373,46.458,39.373z"/>
<path d="M30.765,17.25l-3.538,15.41l19.411,2.694c0.041-0.764,0.088-1.555,0.144-2.371l-0.073-0.008L30.28,30.969l2.445-10.722  l15.342,0.932c0.17-1.075,0.358-2.145,0.564-3.2L30.765,17.25z M30.247,29.143c-0.021,0.192-0.184,0.336-0.374,0.336  c-0.013,0-0.027-0.001-0.041-0.003l-0.909-0.097c-0.207-0.023-0.356-0.208-0.334-0.414c0.023-0.207,0.209-0.357,0.415-0.334  l0.909,0.098C30.12,28.75,30.269,28.936,30.247,29.143z M30.575,27.736c-0.021,0.192-0.184,0.335-0.374,0.335  c-0.014,0-0.027,0-0.041-0.001l-0.909-0.099c-0.206-0.022-0.355-0.207-0.333-0.414c0.022-0.206,0.207-0.356,0.414-0.333l0.909,0.098  C30.447,27.344,30.597,27.529,30.575,27.736z M30.864,26.291c-0.021,0.193-0.184,0.336-0.374,0.336c-0.013,0-0.027,0-0.041-0.002  l-0.909-0.098c-0.206-0.021-0.356-0.208-0.333-0.414c0.022-0.207,0.209-0.357,0.414-0.333l0.909,0.098  C30.737,25.899,30.886,26.084,30.864,26.291z"/>
</svg>