<svg xmlns="http://www.w3.org/2000/svg" xmlns:xlink="http://www.w3.org/1999/xlink" version="1.1" id="mariachi" x="0px" y="0px" width="100px" height="100px" viewBox="0 0 100 100" enable-background="new 0 0 100 100" xml:space="preserve">
<g>
	<path d="M90.708,59.318c-1.75-1.417-1-4.084-1-4.084s-2.129,0.712-3.666-0.166c-1.75-1-1.752-3.504-1.752-3.504   s-1.381,1.029-2.915,0.17c-2.084-1.167-2.046-3.203-2.046-3.203s-1.204,1.69-3.537,0.37s-1.655-3.417-1.655-3.417   s-2.595,1.583-4.762,0.5s-2.201-3.676-2.201-3.676s-1.549,1.676-4.549,1.093c-2.484-0.483-3.086-2.96-3.086-2.96   s-1.914,2.043-4.581,1.627c-3.22-0.503-3.771-3.25-3.771-3.25s-1.562,2.25-3.896,2.25c-2.451,0-4.167-1.875-4.167-1.875   s-0.75,2.312-3.062,2.75c-1.826,0.345-3.375-1.688-3.375-1.688s-0.424,2.41-2.375,3.125c-1.875,0.688-3.812-0.812-3.812-0.812   s-0.091,2.457-2.341,3.394c-2.098,0.874-3.846-0.394-3.846-0.394s0.062,2.142-2.125,3.517s-3.938,0.108-3.938,0.108   s0.188,2.313-1.312,3.5s-3.562,0.188-3.562,0.188S14,54.818,12.75,55.943c-1.678,1.51-3.25,0.375-3.25,0.375s0.625,2.062-1.062,3.5   s-3.562-0.25-3.562-0.25s20.75-24,48-21.25s42.25,21.5,42.25,21.5S92.724,60.949,90.708,59.318z"/>
	<path d="M6.93,60.898c-1.31,0-2.346-0.919-2.39-0.958l-0.364-0.328l0.32-0.371c0.052-0.06,1.512-1.724,4.123-4.104l-0.028-0.091   l0.071,0.052c5.281-4.81,15.218-12.507,27.7-15.854l0.034-0.187l0.113,0.147c4.643-1.231,9.705-1.848,14.852-1.513l0.086-0.123   l0.025,0.13c0.486,0.033,0.971,0.074,1.452,0.122C80.07,40.56,95.364,59.316,95.516,59.506l0.396,0.495l-0.573,0.27   c-0.037,0.018-0.926,0.43-2.099,0.43c-1.074,0-2.031-0.334-2.846-0.993c-1.363-1.104-1.42-2.811-1.311-3.809   c-0.328,0.059-0.735,0.108-1.175,0.108c-0.817,0-1.528-0.17-2.114-0.504c-1.338-0.766-1.783-2.244-1.931-3.157   c-0.691,0.266-1.827,0.332-2.732-0.175c-1.38-0.773-1.934-1.885-2.155-2.679c-0.365,0.222-0.861,0.413-1.486,0.413   c-0.622,0-1.276-0.191-1.943-0.569c-1.497-0.847-1.958-2.062-2.003-3.006c-0.619,0.255-1.513,0.533-2.478,0.533   c-0.697,0-1.341-0.145-1.914-0.432c-1.573-0.786-2.147-2.248-2.357-3.203c-0.61,0.376-1.592,0.795-2.932,0.795   c-0.433,0-0.881-0.044-1.333-0.132c-1.887-0.367-2.804-1.73-3.205-2.597c-0.813,0.631-2.423,1.58-4.443,1.267   c-2.348-0.367-3.413-1.807-3.87-2.765c-0.708,0.73-2.017,1.771-3.719,1.771c-1.827,0-3.26-0.936-3.996-1.54   c-0.435,0.805-1.383,2.073-3.141,2.406c-1.35,0.256-2.547-0.564-3.236-1.201c-0.33,0.86-1.032,2.103-2.434,2.616   c-0.382,0.14-0.791,0.211-1.215,0.211c-0.959,0-1.83-0.36-2.398-0.668c-0.225,0.904-0.839,2.331-2.521,3.031   c-0.551,0.229-1.127,0.346-1.713,0.346c-0.785,0-1.452-0.208-1.917-0.412c-0.18,0.841-0.71,2.172-2.268,3.151   c-0.757,0.476-1.549,0.717-2.355,0.717c-0.542,0-1.008-0.112-1.365-0.241c-0.078,0.872-0.386,2.23-1.485,3.1   c-0.578,0.458-1.279,0.689-2.085,0.689c-0.425,0-0.82-0.065-1.146-0.147c0.064,0.773-0.04,1.885-0.932,2.688   c-0.673,0.605-1.414,0.912-2.201,0.912c-0.286,0-0.545-0.041-0.77-0.1c0.021,0.84-0.188,2.079-1.352,3.071   C8.217,60.663,7.601,60.898,6.93,60.898z M5.622,59.488c0.32,0.193,0.794,0.41,1.309,0.41c0.432,0,0.819-0.15,1.183-0.461   c1.422-1.211,0.914-2.957,0.908-2.975L8.94,56.196C7.297,57.716,6.166,58.9,5.622,59.488z M90.16,55.495   c-0.108,0.507-0.408,2.405,0.862,3.435C91.654,59.44,92.4,59.7,93.239,59.7c0.389,0,0.74-0.057,1.021-0.123   C93.588,58.817,92.21,57.336,90.16,55.495z M9.489,55.694l0.303,0.219c0.002,0.001,0.458,0.314,1.091,0.314   c0.533,0,1.048-0.221,1.532-0.656c0.998-0.897,0.489-2.521,0.483-2.537l-0.065-0.203C11.574,53.851,10.456,54.818,9.489,55.694z    M84.787,51.159l0.003,0.404c0,0.021,0.028,2.229,1.5,3.07c0.433,0.248,0.978,0.373,1.618,0.373c0.643,0,1.205-0.126,1.475-0.198   C88.08,53.677,86.546,52.436,84.787,51.159z M13.431,52.354l0.161,0.077c0.007,0.003,0.729,0.344,1.571,0.344   c0.575,0,1.068-0.159,1.464-0.473c1.268-1.004,1.126-3.049,1.125-3.069l-0.005-0.066C16.178,50.242,14.735,51.318,13.431,52.354z    M79.84,47.883l-0.011,0.657c-0.001,0.069,0.008,1.76,1.79,2.757c0.33,0.186,0.68,0.279,1.04,0.279   c0.756,0,1.328-0.411,1.334-0.415l0.397-0.289C83.006,49.883,81.488,48.875,79.84,47.883z M18.427,48.704l0.116,0.084   c0.003,0.002,0.631,0.438,1.555,0.438c0.615,0,1.228-0.19,1.823-0.564c1.903-1.196,1.893-3.005,1.891-3.082l-0.002-0.15   C21.893,46.48,20.093,47.588,18.427,48.704z M74.778,45.124l-0.166,0.514c-0.021,0.067-0.507,1.735,1.426,2.828   c0.516,0.292,1.003,0.439,1.45,0.439c0.931,0,1.416-0.641,1.437-0.668l0.462-0.624C77.947,46.762,76.409,45.924,74.778,45.124z    M67.67,42.135l0.004,0.166c0.002,0.094,0.064,2.307,1.925,3.237c0.433,0.216,0.927,0.326,1.467,0.326   c1.473,0,2.798-0.798,2.811-0.806l0.34-0.207C72.177,43.873,69.992,42.954,67.67,42.135z M24.476,45.069l0.13,0.094   c0.007,0.005,0.864,0.606,2.032,0.606c0.453,0,0.9-0.09,1.328-0.269C29.898,44.695,30,42.571,30,42.549l0.003-0.092   C28.073,43.253,26.227,44.136,24.476,45.069z M30.773,42.147l0.032,0.025c0.012,0.009,1.173,0.889,2.465,0.889   c0.307,0,0.6-0.05,0.87-0.149c1.378-0.505,1.885-2.064,2.017-2.578C34.302,40.849,32.504,41.462,30.773,42.147z M59.929,39.939   l0.096,0.382c0.022,0.089,0.567,2.176,2.696,2.589c0.389,0.076,0.773,0.114,1.142,0.114c1.922,0,2.905-1.015,2.946-1.058   l0.093-0.097C64.698,41.123,62.372,40.468,59.929,39.939z M51.677,38.715l0.001,0.004c0.021,0.096,0.539,2.414,3.357,2.854   c2.374,0.372,4.123-1.459,4.14-1.476l0.252-0.266c-2.114-0.44-4.314-0.786-6.602-1.017C52.443,38.777,52.061,38.744,51.677,38.715z    M37.176,40.062c0.331,0.384,1.499,1.631,2.794,1.39c1.998-0.378,2.673-2.393,2.68-2.413l0.015-0.047   C40.788,39.242,38.956,39.606,37.176,40.062z M43.522,38.885c0.227,0.23,1.741,1.683,3.769,1.683c1.753,0,3.048-1.476,3.394-1.914   C48.263,38.53,45.851,38.618,43.522,38.885z"/>
</g>
<g>
	<path d="M37.958,39.985c0,0,1.239,1.206,3.167-0.417c3.167-2.667,9.892-3.777,18.417-1.833c-0.5-3.53-5.408-3.859-6.075-5.359   s-2.888-3.338-6.092-2.725c-3.917,0.75-6.658,3.225-6.917,3.75C39.065,36.228,37.958,39.985,37.958,39.985z"/>
</g>
<g>
	<path d="M10.542,60.9c1.45-1.678,0.042-3.082,0.042-3.082s1.984,1.359,3.561-0.162c1.731-1.672,0.314-3.505,0.314-3.505   s1.737,1.669,4-0.001c1.75-1.291,0.833-3.499,0.833-3.499s2.354,1.743,4.604,0.118c1.697-1.226,1.146-3.785,1.146-3.785   s1.985,2.108,4.5,0.875c2.208-1.083,1.708-3.583,1.708-3.583s1.333,2.208,4.056,1.231c1.956-0.702,1.819-3.356,1.819-3.356   s0.833,2.708,4.138,1.908c2.257-0.547,2.154-3.366,2.154-3.366s0.748,2.962,4.125,2.792c2.458-0.125,3.333-3.069,3.333-3.069   s0.25,3.361,3.167,3.986c3.62,0.775,5.125-2.417,5.125-2.417s-0.438,2.854,2.708,3.875c2.894,0.939,4.719-1.979,4.719-1.979   s-0.494,3.112,1.698,4.229c2.872,1.463,5.052-1.479,5.052-1.479s-0.911,2.866,1.125,4.156c2.229,1.413,4.323-0.802,4.323-0.802   s-0.681,2.244,1.239,3.333c1.914,1.086,3.677-0.417,3.677-0.417s-1.333,2.258,0.584,3.997c1.667,1.514,3.958-0.143,3.958-0.143   s-0.938,1.812,0.292,3.643c0.941,1.4,4.302,1.357,4.302,1.357s-4.719,0.812-7.594,1.312s-20.25,1-20.25,1s-2.875-6.75-13.375-6.75   c-10.542,0-13.131,6.973-14.75,8.75c-2.875-0.25-19.5-0.625-23.125-1.625s-5.875-2.75-5.875-2.75S9.75,61.818,10.542,60.9z    M53.041,55.843c-0.001-0.001-0.387-1.594-1.599-1.855c-1.488-0.321-2.692,0.568-2.968,2.011   C50.343,55.934,53.041,55.843,53.041,55.843z M53.376,55.358c0,0,1.11,0.887,2.543-0.088   C54.973,54.687,53.376,55.358,53.376,55.358z M52.952,54.644c0,0,1.357,0.423,2.336-1.007   C54.194,53.437,52.952,54.644,52.952,54.644z M52.354,54.032c0,0,1.419,0.103,2.047-1.512   C53.291,52.573,52.354,54.032,52.354,54.032z M51.765,53.273c0,0,1.415-0.14,1.758-1.839   C52.438,51.677,51.765,53.273,51.765,53.273z M50.871,53.009c0,0,1.327-0.511,1.208-2.239   C51.098,51.292,50.871,53.009,50.871,53.009z M45.607,55.515c1.38,1.048,2.535,0.22,2.535,0.22S46.582,54.98,45.607,55.515z    M45.943,53.952c0.903,1.479,2.281,1.127,2.281,1.127S47.045,53.809,45.943,53.952z M46.685,52.725   c0.543,1.646,1.966,1.616,1.966,1.616S47.792,52.835,46.685,52.725z M47.442,51.616c0.254,1.714,1.66,1.928,1.66,1.928   S48.513,51.914,47.442,51.616z M48.535,50.909c-0.109,1.729,1.221,2.231,1.221,2.231S49.52,51.425,48.535,50.909z M50.199,52.868   c0,0,0.917-1.086-0.019-2.544C49.571,51.252,50.199,52.868,50.199,52.868z M63.006,59.96c0.001-0.001,0.604-1.452-0.186-2.342   c-0.97-1.092-2.406-1.085-3.437-0.123C60.867,58.502,63.006,59.96,63.006,59.96z M63.541,59.774c0,0,0.355,1.315,2.017,1.372   C65.156,60.158,63.541,59.774,63.541,59.774z M63.616,58.981c0,0,0.812,1.096,2.379,0.543   C65.261,58.751,63.616,58.981,63.616,58.981z M63.5,58.169c0,0,1.04,0.883,2.44-0.009C65.051,57.57,63.5,58.169,63.5,58.169z    M63.473,57.249c0,0,1.175,0.693,2.403-0.429C64.898,56.394,63.473,57.249,63.473,57.249z M62.933,56.537   c0,0,1.316,0.356,2.202-1.048C64.08,55.338,62.933,56.537,62.933,56.537z M57.439,55.496c0.474,1.592,1.837,1.605,1.837,1.605   S58.496,55.635,57.439,55.496z M58.584,54.478c-0.139,1.654,1.127,2.163,1.127,2.163S59.518,54.99,58.584,54.478z M59.853,53.946   c-0.51,1.582,0.607,2.363,0.607,2.363S60.647,54.658,59.853,53.946z M61.066,53.518c-0.772,1.472,0.193,2.433,0.193,2.433   S61.728,54.355,61.066,53.518z M62.313,53.59c-1.064,1.275-0.319,2.418-0.319,2.418S62.782,54.547,62.313,53.59z M62.491,56.049   c0,0,1.324-0.321,1.426-1.979C62.921,54.441,62.491,56.049,62.491,56.049z M42.763,58.288c-1.112-0.867-2.543-0.747-3.413,0.427   c-0.708,0.955,0.022,2.348,0.023,2.349C39.373,61.063,41.374,59.423,42.763,58.288z M36.936,62.471   c1.65-0.203,1.887-1.544,1.887-1.544S37.248,61.45,36.936,62.471z M36.356,60.894c1.609,0.412,2.322-0.751,2.322-0.751   S37.02,60.058,36.356,60.894z M36.29,59.53c1.475,0.764,2.433-0.207,2.433-0.207S37.125,58.864,36.29,59.53z M36.236,58.189   c1.323,1.009,2.432,0.214,2.432,0.214S37.172,57.678,36.236,58.189z M36.857,56.798c1.006,1.321,2.286,0.849,2.286,0.849   S37.895,56.554,36.857,56.798z M42.834,57.888c0,0,1.357-0.134,1.688-1.762C43.482,56.356,42.834,57.888,42.834,57.888z    M42.362,57.466c0,0,1.215-0.618,0.931-2.254C42.408,55.805,42.362,57.466,42.362,57.466z M41.586,57.203   c0,0,1.043-0.878,0.396-2.408C41.253,55.575,41.586,57.203,41.586,57.203z M40.757,56.915c0,0,0.877-1.042-0.022-2.439   C40.15,55.368,40.757,56.915,40.757,56.915z M40.031,57.038c0,0,0.641-1.204-0.532-2.382   C39.117,55.651,40.031,57.038,40.031,57.038z M37.944,55.276c0.249,1.642,1.596,1.847,1.596,1.847S38.97,55.559,37.944,55.276z"/>
</g>
</svg>