<svg xmlns="http://www.w3.org/2000/svg" xmlns:xlink="http://www.w3.org/1999/xlink" version="1.1" id="Layer_1" x="0px" y="0px" width="100px" height="100px" viewBox="0 0 100 100" enable-background="new 0 0 100 100" xml:space="preserve">
<path fill="#000000" d="M45.77,33.185c-1.471,0.117-2.912,0.261-4.344,0.416v11.812c0,2.815-2.405,5.845-7.685,5.845  c-5.278,0-7.683-3.03-7.683-5.845v-9.391c-7.75,1.664-14.612,3.879-20.275,6.524C3.688,43.524,1.75,44.559,0,45.652v38.915  L63.261,100V60.503L45.77,33.185z M57.475,92.656L5.783,80.039V68.396l51.692,12.843V92.656z M57.475,75.279L5.812,62.437  l-0.03-11.644l51.692,12.861V75.279z"/>
<path fill="#000000" d="M33.741,46.579c1.662,0,3.008-0.522,3.008-1.167V17.562c0-0.413-1.346-0.748-3.008-0.748  c-1.66,0-3.006,0.335-3.006,0.748v27.849C30.735,46.057,32.081,46.579,33.741,46.579z"/>
<path fill="#000000" d="M37.416,8.574c0,2.03-1.646,3.674-3.674,3.674c-2.029,0-3.675-1.645-3.675-3.674  C30.067,6.544,31.712,0,33.742,0C35.771,0,37.416,6.544,37.416,8.574z"/>
</svg>