<svg xmlns="http://www.w3.org/2000/svg" xmlns:xlink="http://www.w3.org/1999/xlink" version="1.0" x="0px" y="0px" width="100px" height="100px" viewBox="0 0 100 100" overflow="" enable-background="new 0 0 100 100" xml:space="preserve">
    <path d="M51.642,8.291c-1.498,0-2.822,0.703-3.699,1.781l-0.016-0.023L37.32,20.66H25.843 c-5.188,0-9.389,4.203-9.389,9.389v3.933H5.153c-2.588,0-4.691,2.099-4.691,4.692v22.363c0,2.592,2.104,4.695,4.691,4.695h11.301 v3.932c0,5.188,4.201,9.391,9.389,9.391H37.32l10.606,10.611l0.016-0.025c0.877,1.078,2.201,1.783,3.699,1.783 c2.648,0,4.793-2.145,4.793-4.795V13.084C56.435,10.435,54.29,8.291,51.642,8.291z M46.853,75.305l-2.898-2.895 c-1.805-1.803-4.163-2.711-6.531-2.74v-0.006h-0.077c-0.021,0-0.04,0-0.062,0H25.843V30.049h11.441c0.021,0,0.041,0,0.062,0h0.077 v-0.008c2.368-0.028,4.727-0.935,6.531-2.738l2.898-2.896V75.305z"/>
    <path d="M74.03,27.527c-0.004,0-0.004-0.002-0.004-0.005s0-0.002-0.004-0.002c0,0,0-0.003-0.006-0.003l0,0 c-1.793-1.788-4.691-1.788-6.484,0.005c-1.801,1.793-1.801,4.702,0,6.496c0.004,0.01,0.008,0.013,0.014,0.021 c4.213,4.223,6.531,9.842,6.527,15.818c0.004,5.983-2.338,11.625-6.582,15.87c-1.793,1.797-1.793,4.703,0,6.498 s4.701,1.795,6.494,0l0.025,0.025C86.345,59.92,86.345,39.856,74.03,27.527z"/>
    <path d="M85.54,16.009c-1.793-1.793-4.703-1.793-6.496,0c-1.797,1.796-1.797,4.705,0,6.498 c15.055,15.06,15.066,39.571,0.031,54.675c-0.025,0.023-0.051,0.039-0.07,0.059c-1.795,1.793-1.795,4.701,0,6.498 c1.793,1.797,4.701,1.797,6.494,0l0.025,0.025C104.202,65.084,104.212,34.686,85.54,16.009z"/>
</svg>