<svg xmlns="http://www.w3.org/2000/svg" xmlns:xlink="http://www.w3.org/1999/xlink" version="1.0" x="0px" y="0px" width="100px" height="100px" viewBox="0 0 100 100" overflow="" enable-background="new 0 0 100 100" xml:space="preserve">
    <path d="M94.516,35.103L81.932,24.839V21.69c0-5.285-4.284-9.569-9.561-9.569h-6.039l-7.961-6.493 c-2.145-1.736-4.862-2.771-7.818-2.804V2.819c-0.026,0-0.046,0.005-0.079,0.005c-0.016,0-0.042-0.005-0.072-0.005v0.005 c-2.954,0.034-5.669,1.068-7.816,2.804l-8.029,6.493h-5.981c-5.281,0-9.565,4.284-9.565,9.569v3.01l-13.4,10.837 C3.4,36.95,1.932,39.426,1.932,42.241v47.382c0,4.4,3.566,7.972,7.966,7.972h81.105c4.4,0,7.97-3.571,7.97-7.972V42.241 C98.973,39.108,97.153,36.401,94.516,35.103z M92.168,86.379c0.617,1.48-0.066,3.183-1.552,3.806 c-1.469,0.629-3.183-0.067-3.797-1.541L72.663,64.91H28.288L14.135,88.644c-0.618,1.474-2.327,2.17-3.794,1.541 c-1.492-0.623-2.171-2.325-1.554-3.806l14.507-24.195L8.983,48.478c-0.996-1.252-0.787-3.077,0.475-4.078 c1.251-0.996,3.078-0.784,4.071,0.467l10.91,10.43V21.178c0-1.813,1.48-3.292,3.3-3.292h45.469c1.819,0,3.294,1.479,3.294,3.292 v34.127l10.924-10.438c0.987-1.251,2.817-1.463,4.069-0.467c1.263,1.001,1.469,2.826,0.473,4.078L77.659,62.184L92.168,86.379z"/>
    <path d="M34.366,31.259h10.847c1.686,0,3.043-1.362,3.043-3.049c0-1.68-1.358-3.043-3.043-3.043H34.366 c-1.686,0-3.049,1.363-3.049,3.043C31.317,29.897,32.681,31.259,34.366,31.259z"/>
    <path d="M34.366,44.662h32.255c1.686,0,3.043-1.358,3.043-3.039c0-1.686-1.357-3.048-3.043-3.048H34.366 c-1.686,0-3.049,1.363-3.049,3.048C31.317,43.304,32.681,44.662,34.366,44.662z"/>
    <path d="M34.366,58.129h32.255c1.686,0,3.043-1.36,3.043-3.044c0-1.686-1.357-3.049-3.043-3.049H34.366 c-1.686,0-3.049,1.363-3.049,3.049C31.317,56.769,32.681,58.129,34.366,58.129z"/>
</svg>