<svg xmlns="http://www.w3.org/2000/svg" xmlns:xlink="http://www.w3.org/1999/xlink" version="1.1" id="starfish_outline" x="0px" y="0px" width="100px" height="100px" viewBox="0 0 100 100" enable-background="new 0 0 100 100" xml:space="preserve">
<path d="M67.054,97c4.825-2.331-1.407-12.343-2.123-22.65c-0.507-7.278-2.184-10.712-2.721-12.924  c-0.686-2.821,1.718-1.459,15.938-6.875c14.084-5.364,20.678-3.446,19.844-10.105c-0.508-4.052-10.001-4.896-23.179-4.375  c-2.294,0.09-11.244,0.566-13.228,0.104c-2.24-0.521-1.98-2.344-1.428-7.987c0.331-3.389,1.434-7.432,1.845-16.389  C62.522,4.445,60.439,2.882,57.679,2.57c-2.76-0.312-4.022,1.593-5.052,4.74c-2.812,8.593-6.252,14.629-10.236,23.663  c-1.432,3.248-1.431,5.088-4.075,4.074c-2.755-1.056-13.37-3.454-14.856-3.83c-4.114-1.042-6.839-2.229-12.574-4.611  c-4.823-2.003-6.739-1.487-7.843-0.337c-1.014,1.055-2.312,2.994,1.146,7.188c7.149,8.672,14.766,11.68,18.178,13.959  c10.58,7.067,8.542,2.585,0.377,17.565c-3.639,6.68-6.132,10.704-11.159,16.446c-2.397,2.739-1.716,5.424-0.112,6.858  c3.602,3.221,12.202-3.851,16.362-7.17c2.972-2.371,9.896-9.167,13.343-11.603c1.899-1.342,3.038-1.575,4.99,2.176  c1.905,3.658,6.81,12.976,8.985,16.146C56.984,90.502,61.664,99.604,67.054,97z"/>
</svg>