<svg xmlns="http://www.w3.org/2000/svg" xmlns:xlink="http://www.w3.org/1999/xlink" version="1.1" id="Layer_1" x="0px" y="0px" width="100px" height="100px" viewBox="0 0 100 100" enable-background="new 0 0 100 100" xml:space="preserve">
<path d="M90.316,5.201H8.889c-2.253,0-4.085,1.833-4.085,4.085v81.427c0,2.253,1.833,4.086,4.085,4.086h81.427  c2.252,0,4.085-1.833,4.085-4.086V9.286C94.401,7.034,92.568,5.201,90.316,5.201z M80.474,75.446c0,2.992-2.435,5.427-5.427,5.427  h-50.89c-2.993,0-5.428-2.435-5.428-5.427V24.555c0-2.993,2.435-5.427,5.428-5.427h50.89c2.992,0,5.427,2.435,5.427,5.427V75.446z"/>
<path d="M94.846,0H4.358C1.731,0-0.398,2.129-0.398,4.756v90.489c0,2.626,2.129,4.756,4.756,4.756h90.488  c2.626,0,4.756-2.13,4.756-4.756V4.756C99.602,2.129,97.472,0,94.846,0z M95.743,90.713c0,2.993-2.435,5.428-5.427,5.428H8.889  c-2.993,0-5.428-2.435-5.428-5.428V9.286c0-2.993,2.435-5.427,5.428-5.427h81.427c2.992,0,5.427,2.435,5.427,5.427V90.713z"/>
<circle cx="37.58" cy="50" r="3.495"/>
<circle cx="61.461" cy="50" r="3.495"/>
<path d="M75.047,20.47h-50.89c-2.253,0-4.085,1.833-4.085,4.085v50.891c0,2.252,1.833,4.084,4.085,4.084h50.89  c2.252,0,4.085-1.832,4.085-4.084V24.555C79.132,22.302,77.299,20.47,75.047,20.47z M74.015,53.495h-3.633v9.783  c-4.015,6.27-10.781,10.6-18.599,11.285V70.19h-4.363v4.373c-8.072-0.708-15.028-5.299-18.985-11.899v-9.169h-3.248  c-0.162-1.142-0.251-2.308-0.251-3.495s0.089-2.353,0.251-3.495h3.248v-9.168c3.957-6.6,10.913-11.191,18.985-11.899v4.513h4.363  v-4.513c7.817,0.686,14.584,5.016,18.599,11.285v9.783h3.633c0.162,1.142,0.251,2.308,0.251,3.495S74.177,52.353,74.015,53.495z"/>
<path d="M47.13,47.528c-1.223,1.223-1.347,3.126-0.378,4.491l4.868-4.869C50.256,46.182,48.354,46.305,47.13,47.528z"/>
<path d="M47.583,52.85c1.365,0.969,3.268,0.844,4.491-0.379c1.223-1.223,1.347-3.125,0.377-4.49L47.583,52.85z"/>
</svg>