<svg xmlns="http://www.w3.org/2000/svg" xmlns:xlink="http://www.w3.org/1999/xlink" version="1.1" id="Layer_1" x="0px" y="0px" width="100px" height="100px" viewBox="0 0 100 100" enable-background="new 0 0 100 100" xml:space="preserve">
<path d="M83,93.679C83,93.856,82.856,94,82.68,94H18.32C18.144,94,18,93.856,18,93.679V70.321C18,70.144,18.144,70,18.32,70H82.68  c0.177,0,0.32,0.144,0.32,0.321V93.679z M79,74.321C79,74.144,78.856,74,78.679,74H22.321C22.144,74,22,74.144,22,74.321v15.357  C22,89.856,22.144,90,22.321,90h56.357C78.856,90,79,89.856,79,89.679V74.321z"/>
<path d="M76.227,76H24.773C24.419,76,24,76.406,24,76.76v10.657C24,87.772,24.419,88,24.773,88h51.454  C76.581,88,77,87.772,77,87.417V76.76C77,76.406,76.581,76,76.227,76z M26.893,83c0,0,1.805-1.284,4.774-1.284  c3.049,0,4.854,1.284,4.854,1.284H26.893z M63.484,83c0,0,1.805-1.284,4.773-1.284c3.049,0,4.854,1.284,4.854,1.284H63.484z"/>
<path d="M74.484,95.314C74.436,95.145,74.541,95,74.718,95h5.136c0.177,0,0.281,0.145,0.232,0.314c0,0-1.089,2.604-1.107,4.127  C78.977,99.617,78.746,100,78.569,100h-2.568c-0.177,0-0.409-0.383-0.408-0.559C75.6,97.865,74.484,95.314,74.484,95.314z"/>
<path d="M19.919,95.314C19.871,95.145,19.975,95,20.152,95h5.135c0.177,0,0.282,0.145,0.233,0.314c0,0-1.089,2.604-1.107,4.127  C24.411,99.617,24.181,100,24.003,100h-2.567c-0.177,0-0.41-0.383-0.41-0.559C21.035,97.865,19.919,95.314,19.919,95.314z"/>
<g>
	<path d="M76,68c0,2-52,2-52,0V26.64C24,11.95,35.488-0.001,50-0.001c14.512,0,26,11.951,26,26.641V68z M27,65h46V26.64   C73,13.72,62.743,3.208,50,3.208c-12.742,0-23,10.511-23,23.432V65z"/>
</g>
</svg>