<?xml version="1.0" encoding="utf-8"?>
<!-- Generator: Adobe Illustrator 14.0.0, SVG Export Plug-In . SVG Version: 6.00 Build 43363)  -->
<!DOCTYPE svg PUBLIC "-//W3C//DTD SVG 1.0//EN" "http://www.w3.org/TR/2001/REC-SVG-20010904/DTD/svg10.dtd">
<svg version="1.0" id="Layer_1" xmlns="http://www.w3.org/2000/svg" xmlns:xlink="http://www.w3.org/1999/xlink" x="0px" y="0px"
	 width="52.639px" height="100px" viewBox="0 0 52.639 100" enable-background="new 0 0 52.639 100" xml:space="preserve">
<polygon points="7.52,65.205 2.771,65.205 0,77.276 2.771,77.276 7.52,77.276 10.29,77.276 "/>
<path d="M52.639,3.431V0H37.432H24.965v7.124H17.05c-7.856,0-14.248,6.392-14.248,14.248v40.765H7.52l0.031-40.765
	c0-5.238,4.261-9.499,9.499-9.499h7.915v7.124h-8.342c-1.394,3.687-2.314,9.674-2.903,16.769V100h17.479h17.479V35.766
	c-0.588-7.095-1.509-13.082-2.902-16.769h-8.343v-7.124c0,0,8.149,0.065,15.207,3.431v-3.693C46.57,7.124,37.432,7.124,37.432,7.124
	V4.881L52.639,3.431z"/>
</svg>
