<svg xmlns="http://www.w3.org/2000/svg" xmlns:xlink="http://www.w3.org/1999/xlink" version="1.1" id="Layer_1" x="0px" y="0px" width="100px" height="100px" viewBox="0 0 100 100" enable-background="new 0 0 100 100" xml:space="preserve">
<g>
	<circle cx="17.781" cy="19.458" r="4.7"/>
	<circle cx="28.953" cy="19.458" r="4.7"/>
	<circle cx="40.717" cy="19.458" r="4.7"/>
	<rect x="77" y="14.789" width="9.371" height="9.37"/>
	<path d="M69.418,24.155c1.606,0.076,2.972-1.166,3.048-2.773c0.075-1.607-1.167-2.973-2.773-3.048   c-1.609-0.076-2.974,1.166-3.05,2.773C66.567,22.716,67.809,24.081,69.418,24.155z M69.555,19.418c1.009,0,1.827,0.817,1.827,1.827   c0,1.008-0.818,1.826-1.827,1.826c-1.008,0-1.826-0.818-1.826-1.826C67.729,20.236,68.547,19.418,69.555,19.418z"/>
	<path d="M62.351,24.155c1.608,0.076,2.973-1.166,3.049-2.773c0.074-1.607-1.167-2.973-2.773-3.048   c-1.609-0.076-2.973,1.166-3.049,2.773C59.501,22.716,60.743,24.081,62.351,24.155z M62.488,19.418   c1.009,0,1.827,0.817,1.827,1.827c0,1.008-0.818,1.826-1.827,1.826c-1.008,0-1.826-0.818-1.826-1.826   C60.662,20.236,61.48,19.418,62.488,19.418z"/>
	<path d="M54.479,24.155c1.606,0.076,2.972-1.166,3.048-2.773c0.075-1.607-1.167-2.973-2.773-3.048   c-1.609-0.076-2.974,1.166-3.05,2.773C51.628,22.716,52.869,24.081,54.479,24.155z M54.615,19.418c1.009,0,1.827,0.817,1.827,1.827   c0,1.008-0.818,1.826-1.827,1.826c-1.008,0-1.826-0.818-1.826-1.826C52.789,20.236,53.607,19.418,54.615,19.418z"/>
	<path d="M92.458,4.64h-8.774C83.65,2.073,81.562,0,78.989,0h-7.128c-1.105,0-2.109,0.397-2.912,1.036H31.05   C30.247,0.397,29.245,0,28.14,0h-7.128c-2.576,0-4.662,2.073-4.695,4.64H7.54C3.376,4.64,0,8.017,0,12.181V86.51   c0,4.164,3.376,7.54,7.54,7.54h8.416c-0.001,0.043-0.013,0.085-0.013,0.128c0,2.691,2.181,4.871,4.871,4.871   s4.872-2.18,4.872-4.871c0-0.043-0.012-0.085-0.013-0.128h48.352c-0.001,0.043-0.013,0.085-0.013,0.128   c0,2.691,2.181,4.871,4.871,4.871c2.689,0,4.872-2.18,4.872-4.871c0-0.043-0.012-0.085-0.013-0.128h8.717   c4.163,0,7.542-3.376,7.542-7.54V12.181C100,8.017,96.621,4.64,92.458,4.64z M90.313,83.906h-2.126V28.413h-2.054v55.493H84.06   V28.413h-2.054v55.493h-2.077V28.413h-2.053v55.493H75.8V28.413h-2.053v55.493h-2.075V28.413h-2.054v55.493h-2.074V28.413H65.49   v55.493h-2.076V28.413H61.36v55.493h-2.076V28.413h-2.053v55.493h-2.075V28.413h-2.054v55.493h-2.074V28.413h-2.054v55.493h-2.076   V28.413h-2.053v55.493h-2.076V28.413h-2.054v55.493H38.64V28.413h-2.053v55.493h-2.075V43h-2.054v40.906h-2.076V43h-2.053v40.906   h-2.076V43H24.2v40.906h-2.075V43h-2.053v40.906h-2.075V43h-2.054v40.906h-2.076V28.413h-2.054v55.493H9.687V10.479h80.627V83.906z   "/>
	<rect x="20.071" y="28.413" width="2.053" height="5.217"/>
	<rect x="15.943" y="28.413" width="2.054" height="5.217"/>
	<rect x="32.458" y="28.413" width="2.054" height="5.217"/>
	<rect x="24.2" y="28.413" width="2.054" height="5.217"/>
	<rect x="28.329" y="28.413" width="2.053" height="5.217"/>
</g>
</svg>