<svg xmlns="http://www.w3.org/2000/svg" xmlns:xlink="http://www.w3.org/1999/xlink" version="1.1" id="Layer_1" x="0px" y="0px" width="79.335px" height="97.397px" viewBox="0 0 79.335 97.397" enable-background="new 0 0 79.335 97.397" xml:space="preserve">
<g>
	<path fill-rule="evenodd" clip-rule="evenodd" d="M68.679,39.593c12.656-1.919,10.082,13.726,10.082,25.489   c0,5.205,0,9.195,0,14.266c0,5.801,0.92,13.701-2.854,16.168c-3.25,2.127-11.898,1.332-17.69,1.332c-13.707,0-24.092,0-38.043,0   c-7.001,0-16.105,1.084-18.641-3.234c-1.196-2.033-0.951-7.98-0.951-11.793c0-8.445,0-16.5,0-25.297   c0-5.863-0.725-12.076,2.092-14.648c1.757-1.604,4.532-2.151,7.989-2.093C9.186,16.142,18.795-0.402,41.478,0.409   C62.56,1.162,70.043,17.299,68.679,39.593z M37.864,8.208C23.102,9.413,18.018,23.386,19.223,39.782c13.505,0,27.01,0,40.516,0   C62.228,21.317,56.316,6.7,37.864,8.208z M8.38,51.576c0,9.082,0,18.533,0,27.201c0,3.027-0.792,8.924,0.571,10.271   c1.022,1.012,4.544,0.57,7.038,0.57c13.9,0,25.268,0,38.995,0c2.891,0,13.524,0.918,15.026-0.57   c1.289-1.275,0.571-7.426,0.571-10.082c0-8.172,0-13.52,0-21.494c0-3.135,0.485-9.224-0.571-10.271   c-1.326-1.316-10.921-0.571-14.456-0.571c-13.519,0-24.754,0-38.043,0c-2.442,0-6.548-0.309-7.799,0.19   C7.996,47.505,8.38,49.41,8.38,51.576z"/>
	<path fill-rule="evenodd" clip-rule="evenodd" d="M67.157,49.676c0.634,11.355,0.634,25.354,0,36.709   c-17.541,0.631-37.802,0.635-55.543,0c-0.977-2.238-0.57-5.781-0.57-9.131c0-5.748,0-12.646,0-19.02   c0-3.258-0.767-8.484,1.522-9.131c3.008-0.853,10.419,0,13.886,0c9.176,0,18.419,0,27.581,0   C58.502,49.104,63.044,48.644,67.157,49.676z M45.472,65.652c4.222-8.588-8.457-13.096-12.173-6.469   c-0.654,1.166-1.306,3.846-0.191,6.277c0.587,1.281,1.59,1.734,2.473,3.045c-1.141,4.115-3.788,8.559-3.424,12.934   c4.263,0.201,10.315,0.559,14.267-0.189c-0.045-4.598-2.465-8.434-3.424-12.744C44.042,67.053,44.839,66.941,45.472,65.652z"/>
	<path fill-rule="evenodd" clip-rule="evenodd" d="M69.25,39.022c9.547,0.276,9.891,5.962,9.891,16.359c0,8.697,0,16.643,0,25.107   c0,3.15,0.632,9.09-0.379,11.984c-2.207,6.311-12.204,4.756-20.925,4.756c-13.832,0-22.372,0-36.521,0   c-8.547,0-18.069,1.424-20.544-4.375c-1.169-2.74-0.57-8.588-0.57-11.793c0-8.586,0-15.885,0-24.729   c0-3.645-0.647-9.182,0.381-11.985c1.243-3.39,4.641-4.974,9.701-4.945C8.854,15.622,19.015-0.774,41.478,0.028   C62.421,0.776,70.099,16.55,69.25,39.022z M41.478,0.218C18.943-0.586,9.031,15.817,10.473,39.593   c-4.82-0.109-8.455,1.36-9.701,4.754c-0.985,2.688-0.38,8.137-0.38,11.985c0,9.205,0,16.172,0,25.107   c0,3.572-0.37,9.492,0.761,11.795c2.55,5.189,11.958,3.805,19.592,3.805c13.117,0,23.568,0,36.521,0   c5.394,0,14.048,0.863,17.69-0.762c4.894-2.186,3.994-9.277,3.994-16.17c0-9.072,0-16.691,0-25.488   c0-3.777,0.162-9.148-1.331-11.602c-1.504-2.472-4.839-3.85-8.751-3.615C70.298,17.03,62.347,0.963,41.478,0.218z"/>
	<path fill-rule="evenodd" clip-rule="evenodd" d="M68.869,39.402c3.912-0.235,7.247,1.143,8.751,3.615   c1.493,2.454,1.331,7.825,1.331,11.602c0,8.797,0,16.416,0,25.488c0,6.893,0.899,13.984-3.994,16.17   c-3.643,1.625-12.297,0.762-17.69,0.762c-12.953,0-23.404,0-36.521,0c-7.635,0-17.042,1.385-19.592-3.805   c-1.131-2.303-0.761-8.223-0.761-11.795c0-8.936,0-15.902,0-25.107c0-3.848-0.605-9.297,0.38-11.985   c1.246-3.395,4.881-4.863,9.701-4.754C9.031,15.817,18.943-0.586,41.478,0.218C62.347,0.963,70.298,17.03,68.869,39.402z    M41.478,0.409C18.795-0.402,9.186,16.142,10.663,39.782c-3.457-0.058-6.231,0.489-7.989,2.093   c-2.817,2.572-2.092,8.785-2.092,14.648c0,8.797,0,16.852,0,25.297c0,3.812-0.245,9.76,0.951,11.793   c2.536,4.318,11.639,3.234,18.641,3.234c13.951,0,24.336,0,38.043,0c5.792,0,14.44,0.795,17.69-1.332   c3.773-2.467,2.854-10.367,2.854-16.168c0-5.07,0-9.061,0-14.266c0-11.764,2.574-27.408-10.082-25.489   C70.043,17.299,62.56,1.162,41.478,0.409z"/>
	<path fill-rule="evenodd" clip-rule="evenodd" d="M59.739,39.782c-13.506,0-27.011,0-40.516,0   C18.018,23.386,23.102,9.413,37.864,8.208C56.316,6.7,62.228,21.317,59.739,39.782z M37.864,8.397   C23.15,9.599,18.531,23.119,19.223,39.593c13.505,0,27.01,0,40.516,0C61.758,21.04,56.212,6.898,37.864,8.397z"/>
	<path fill-rule="evenodd" clip-rule="evenodd" d="M59.739,39.593c-13.506,0-27.011,0-40.516,0   C18.531,23.119,23.15,9.599,37.864,8.397C56.212,6.898,61.758,21.04,59.739,39.593z M37.864,8.588   c-14.59,1.191-19.105,14.529-18.451,30.814c13.378,0,26.757,0,40.135,0C61.544,21.021,56.071,7.1,37.864,8.588z"/>
	<path fill-rule="evenodd" clip-rule="evenodd" d="M43,68.506c0.959,4.311,3.379,8.146,3.424,12.744   c-3.951,0.748-10.003,0.391-14.267,0.189c-0.364-4.375,2.283-8.818,3.424-12.934c-0.883-1.311-1.886-1.764-2.473-3.045   c-1.115-2.432-0.463-5.111,0.191-6.277c3.716-6.627,16.395-2.119,12.173,6.469C44.839,66.941,44.042,67.053,43,68.506z    M36.723,56.332c-4.699,1.842-5.312,9.145-0.952,12.174c-1.141,4.115-3.788,8.559-3.424,12.934   c4.568-0.123,9.636,0.252,13.886-0.189c-0.027-4.676-2.557-8.467-3.424-12.936C49.247,64.367,44.592,53.25,36.723,56.332z"/>
</g>
</svg>