<svg xmlns="http://www.w3.org/2000/svg" xmlns:xlink="http://www.w3.org/1999/xlink" version="1.1" id="Layer_1" x="0px" y="0px" width="77.496px" height="77.5px" viewBox="0 0 77.496 77.5" enable-background="new 0 0 77.496 77.5" xml:space="preserve">
<g>
	<path fill="#000000" d="M37.324,0.056c0.169-0.092,0.508-0.018,0.744-0.045c0,0.013,0,0.026,0,0.039   C37.82,0.052,37.572,0.054,37.324,0.056z"/>
	<path fill="#000000" d="M38.068,0.05c0-0.013,0-0.026,0-0.039c0.248-0.002,0.495-0.004,0.743-0.006c0,0.013,0,0.026,0,0.039   C38.564,0.046,38.317,0.048,38.068,0.05z"/>
	<path fill="#000000" d="M38.812,0.044c0-0.013,0-0.026,0-0.039c0.236,0.024,0.574-0.056,0.744,0.033   C39.307,0.04,39.06,0.042,38.812,0.044z"/>
	<path d="M36.972,0.059c0.117-0.001,0.234-0.001,0.353-0.002c0.248-0.002,0.496-0.004,0.744-0.006s0.495-0.004,0.743-0.006   c0.248-0.002,0.495-0.004,0.743-0.006c0.118-0.001,0.235-0.001,0.354-0.002c0.133,0.088,0.431,0.011,0.628,0.034   c0.064,0,0.13-0.001,0.195-0.001c0.066,0.088,0.299,0.012,0.43,0.036C51.27,0.86,58.391,4.652,64.302,9.67   c0.096,0.154,0.266,0.229,0.396,0.35c0.174,0.231,0.424,0.386,0.632,0.582c0.364,0.392,0.746,0.767,1.144,1.126   c0.201,0.204,0.357,0.452,0.593,0.623c0.13,0.144,0.226,0.323,0.396,0.427c5.072,5.806,8.956,12.82,9.893,22.83   c0.024,0.119-0.049,0.338,0.042,0.392c0,0.065,0.001,0.131,0.001,0.196c0.026,0.17-0.047,0.442,0.044,0.548   c0.001,0.104,0.002,0.209,0.002,0.313c0.029,0.392-0.045,0.888,0.049,1.214c0.001,0.131,0.002,0.261,0.004,0.392   c-0.09,0.314-0.008,0.797-0.03,1.176c0.001,0.116,0.002,0.233,0.003,0.353c-0.089,0.094-0.012,0.353-0.035,0.51   c0.001,0.064,0.001,0.131,0.002,0.195c-0.09,0.066-0.013,0.299-0.036,0.431c-0.802,10.154-4.661,17.298-9.762,23.222   c-0.426,0.423-0.83,0.866-1.243,1.303c0,0.013,0,0.024,0.001,0.039c-0.045,0.008-0.061,0.044-0.078,0.079c-0.014,0-0.025,0-0.039,0   c-0.249,0.221-0.482,0.457-0.699,0.711c-5.925,5.486-13.166,9.677-23.645,10.681c-0.119,0.025-0.338-0.047-0.393,0.043   c-0.078,0-0.156,0.001-0.234,0.001c-0.157,0.027-0.416-0.047-0.509,0.044c-0.104,0-0.209,0.001-0.312,0.002   c-0.365,0.029-0.837-0.045-1.136,0.048c-0.195,0.002-0.393,0.004-0.587,0.005c-0.302-0.088-0.771-0.007-1.137-0.03   c-0.104,0.001-0.209,0.002-0.313,0.003c-0.093-0.089-0.351-0.011-0.509-0.035c-0.079,0.001-0.157,0.001-0.235,0.002   c-0.056-0.089-0.273-0.013-0.393-0.036C25.706,76.571,18.41,72.51,12.405,67.14c-0.233-0.264-0.483-0.51-0.75-0.738   c-0.013,0-0.026,0-0.039,0c-0.008-0.044-0.043-0.061-0.079-0.077c0-0.015,0-0.026,0-0.039c-0.234-0.264-0.484-0.51-0.75-0.738   c-5.469-5.922-9.646-13.15-10.645-23.609c-0.026-0.132,0.047-0.363-0.043-0.431c0-0.064-0.001-0.13-0.001-0.195   c-0.026-0.146,0.048-0.391-0.042-0.469c-0.001-0.118-0.002-0.235-0.003-0.354c-0.029-0.365,0.045-0.835-0.048-1.135   C0.002,39.16,0,38.962-0.001,38.768c0.088-0.301,0.007-0.771,0.03-1.136c0-0.104-0.001-0.209-0.002-0.313   c0.089-0.093,0.011-0.352,0.035-0.509c0-0.065-0.001-0.131-0.001-0.196c0.088-0.055,0.012-0.272,0.037-0.393   c0.84-10.634,4.999-18.001,10.5-24.049c0.405-0.378,0.793-0.773,1.166-1.185c0.194-0.185,0.428-0.331,0.583-0.553   c0.127-0.121,0.298-0.199,0.389-0.356c5.832-5.113,12.892-9.016,22.986-9.933c0.132-0.026,0.365,0.047,0.431-0.042   c0.065,0,0.13-0.001,0.196-0.001C36.541,0.076,36.84,0.15,36.972,0.059z M37.131,5.344c-0.117,0.001-0.234,0.002-0.353,0.003   c-0.132,0.026-0.363-0.047-0.431,0.042C27.333,6.1,21.168,9.616,16.054,14.165c-0.159,0.128-0.301,0.273-0.428,0.435   c-0.12,0.089-0.224,0.194-0.311,0.315c-0.013,0-0.026,0-0.04,0c-0.561,0.535-1.093,1.1-1.592,1.697   c-0.191,0.162-0.322,0.38-0.504,0.552c0,0.013,0,0.026,0,0.04c0.05,0.245,0.517,0.586,0.79,0.855   c0.881,0.867,1.795,1.76,2.566,2.604c-0.023,0.002-0.046,0.007-0.04,0.04c-0.166,0.108-0.262,0.287-0.428,0.396   c-1.102-1.117-2.221-2.217-3.354-3.302c-3.866,4.781-6.846,10.772-7.369,18.973c-0.088,0.055-0.013,0.272-0.036,0.393   c0,0.078,0.001,0.156,0.002,0.234c-0.088,0.367-0.006,0.9-0.03,1.332c-0.009,0.271-0.008,0.315,0.005,0.587   c0.028,0.248-0.046,0.6,0.046,0.783c1.031-0.009,2.062-0.017,3.093-0.024c-0.02,0.835,0.065,1.774-0.019,2.545   c-0.966,0.008-1.932,0.015-2.898,0.022c0.979,8.06,4.213,13.825,8.45,18.574c0.103,0.171,0.235,0.312,0.395,0.428   c0.089,0.119,0.194,0.224,0.315,0.31c0,0.013,0,0.026,0,0.039c0.142,0.172,0.3,0.328,0.474,0.467   c0.048,0.081,0.115,0.146,0.197,0.194c0-0.014,0-0.026,0-0.039c1.118-1.05,2.114-2.219,3.264-3.237   c0.123,0.18,0.313,0.287,0.435,0.467c-1.059,1.07-2.257,2.207-3.185,3.275c0.005,0.049,0.012,0.094,0.08,0.077   c0.089,0.121,0.194,0.226,0.315,0.312c0.117,0.156,0.261,0.287,0.434,0.388c5.087,4.37,11.238,7.661,20.038,8.262   c0.067,0.089,0.299,0.011,0.432,0.034c0.078-0.001,0.156-0.001,0.234-0.002c0.289,0.063,0.849,0.059,1.135-0.009   c0.018-1.108-0.07-2.323,0.013-3.366c0.822,0.018,1.749-0.068,2.508,0.019c0.009,1.108,0.018,2.219,0.026,3.327   c8.283-0.678,14.209-3.678,19.088-7.709c-0.015,0-0.027,0-0.039,0c-0.854-0.923-1.826-1.725-2.646-2.681   c0.179-0.122,0.288-0.314,0.467-0.435c0.912,0.902,1.786,1.841,2.762,2.679c0-0.039,0.031-0.047,0.038-0.078   c0.451-0.32,0.847-0.695,1.206-1.105c0.014,0,0.025,0,0.039,0c0.186-0.156,0.353-0.327,0.504-0.514   c0.082-0.05,0.146-0.114,0.196-0.197c0.31-0.252,0.548-0.573,0.814-0.867c4.411-4.918,7.693-10.946,8.578-19.335   c-1.174,0.01-2.35,0.019-3.523,0.028c-0.007-0.85-0.014-1.697-0.021-2.547c1.214-0.01,2.428-0.02,3.643-0.029   c0.089-0.117,0.011-0.403,0.034-0.587c0.01-0.271,0.01-0.316-0.004-0.587c-0.029-0.418,0.045-0.94-0.05-1.292   c-0.001-0.091-0.001-0.183-0.002-0.273c-0.025-0.119,0.048-0.338-0.042-0.392c-0.694-8.414-3.827-14.349-7.985-19.242   c-0.019-0.113-0.083-0.179-0.197-0.195c-0.738,0.694-1.563,1.589-2.33,2.368c-0.236,0.241-0.688,0.75-0.856,0.712   c-0.108-0.166-0.286-0.262-0.396-0.428c0.545-0.497,1.059-1.076,1.593-1.618c0.529-0.539,1.138-1.032,1.515-1.617   c-0.509-0.589-1.051-1.145-1.619-1.671c-0.014,0-0.025,0-0.039,0c-0.089-0.121-0.193-0.224-0.315-0.311   c-0.128-0.159-0.273-0.302-0.435-0.428c-5.187-4.506-11.497-7.871-20.508-8.491c0.009,1.083,0.018,2.167,0.026,3.25   c-0.836-0.02-1.775,0.065-2.547-0.02c-0.009-1.07-0.017-2.141-0.025-3.211C37.795,5.273,37.326,5.277,37.131,5.344z"/>
	<path d="M37.475,38.822c0.109-0.158-0.036-0.959,0.072-0.862c0.001,0.092,0.001,0.183,0.002,0.274   c-0.012,0.07,0.036,0.08,0.039,0.039c-0.038-4.797-0.081-10.25-0.121-15.271c-0.006-0.748-0.11-1.548,0.022-2.116   c0.299-1.285,2.096-2.474,3.668-1.713c0.618,0.299,1.378,1.112,1.502,1.711c0.156,0.765,0.014,1.79,0.021,2.702   c0.043,5.402,0.083,10.508,0.127,16.054c0.008,0.916,0.121,1.937-0.059,2.585c-0.227,0.815-0.971,1.553-1.865,1.776   c-0.883,0.222-2.072,0.136-3.249,0.145c-6.764,0.054-13.515,0.107-20.205,0.16c-1.13,0.01-2.304,0.128-3.29-0.052   c-1.37-0.253-2.621-1.749-2.025-3.508c0.271-0.803,1.102-1.606,2.1-1.741c0.924-0.125,1.965-0.016,2.937-0.023   C23.996,38.929,30.574,38.877,37.475,38.822z"/>
	<path fill="#000000" d="M72.209,38.781c-0.023,0.184,0.055,0.468-0.034,0.587C72.199,39.187,72.121,38.901,72.209,38.781z"/>
	<path fill="#000000" d="M66.354,11.573c-0.292-0.255-0.567-0.527-0.828-0.816C65.819,11.013,66.094,11.285,66.354,11.573z"/>
	<path fill="#000000" d="M65.328,10.602c0.092,0.025,0.105,0.129,0.196,0.155c0.261,0.289,0.537,0.561,0.829,0.816   c0.013,0.08,0.106,0.077,0.118,0.156C66.076,11.37,65.694,10.994,65.328,10.602z"/>
	<path fill="#000000" d="M64.302,9.671c0.13,0.119,0.301,0.194,0.396,0.35C64.568,9.901,64.396,9.825,64.302,9.671z"/>
	<path fill="#000000" d="M10.711,12.015c0.269-0.306,0.554-0.595,0.854-0.869C11.298,11.452,11.014,11.741,10.711,12.015z"/>
	<path fill="#000000" d="M10.596,12.173c0.011-0.08,0.105-0.078,0.117-0.157c0.301-0.273,0.585-0.562,0.854-0.869   c0.091-0.026,0.104-0.131,0.195-0.159C11.389,11.399,11.001,11.794,10.596,12.173z"/>
	<path fill="#000000" d="M67.065,12.352c0.167,0.106,0.259,0.29,0.396,0.428C67.292,12.674,67.195,12.495,67.065,12.352z"/>
	<path fill="#000000" d="M66.393,65.848c0.413-0.436,0.817-0.88,1.243-1.303c-0.182,0.212-0.37,0.413-0.543,0.631   C66.836,65.378,66.65,65.647,66.393,65.848z"/>
	<path fill="#000000" d="M65.578,66.677c0.217-0.254,0.45-0.49,0.699-0.711c-0.197,0.26-0.463,0.451-0.66,0.71   C65.603,66.677,65.591,66.677,65.578,66.677z"/>
	<path fill="#000000" d="M12.324,67.1c-0.201-0.257-0.471-0.443-0.671-0.7c0.267,0.229,0.517,0.476,0.75,0.738   C12.371,67.13,12.363,67.099,12.324,67.1z"/>
	<path fill="#000000" d="M11.535,66.283c-0.259-0.196-0.451-0.463-0.71-0.66c-0.007-0.03-0.039-0.039-0.039-0.077   C11.051,65.775,11.301,66.021,11.535,66.283z"/>
	<path fill="#000000" d="M12.344,10.436c0.092-0.156,0.261-0.235,0.389-0.356C12.642,10.236,12.472,10.314,12.344,10.436z"/>
	<path fill="#000000" d="M15.627,14.6c0.125-0.161,0.269-0.306,0.428-0.435C15.929,14.326,15.787,14.472,15.627,14.6z"/>
	<path fill="#000000" d="M13.685,16.612c0.499-0.597,1.032-1.162,1.592-1.697c-0.222,0.286-0.515,0.503-0.737,0.789   C14.271,16.022,13.958,16.298,13.685,16.612z"/>
	<path fill="#000000" d="M13.181,17.203c0,0.013,0,0.026,0,0.039c1.109,1.149,2.286,2.23,3.395,3.38   c-0.018,0.036-0.035,0.071-0.079,0.079c-0.007-0.033,0.016-0.038,0.04-0.04c-0.771-0.844-1.685-1.737-2.565-2.604   C13.698,17.79,13.231,17.448,13.181,17.203z"/>
	<path fill="#000000" d="M12.716,17.795c1.133,1.084,2.252,2.185,3.354,3.302C14.937,20.013,13.818,18.911,12.716,17.795z"/>
	<path fill="#000000" d="M13.962,61.213c0.144,0.13,0.264,0.283,0.395,0.427C14.197,61.526,14.065,61.384,13.962,61.213z"/>
	<path fill="#000000" d="M14.672,61.989c0.168,0.105,0.267,0.282,0.435,0.389c0.007,0.031,0.039,0.039,0.04,0.078   C14.973,62.317,14.814,62.161,14.672,61.989z"/>
	<path fill="#000000" d="M15.342,62.611c0.501-0.565,1.085-1.103,1.632-1.658c0.543-0.552,1.04-1.181,1.632-1.579   C17.456,60.393,16.46,61.562,15.342,62.611z"/>
	<path fill="#000000" d="M15.856,63.116c0.928-1.068,2.126-2.205,3.185-3.275C18.003,60.955,16.895,62.002,15.856,63.116z"/>
	<path fill="#000000" d="M16.251,63.506c0.146,0.129,0.302,0.246,0.434,0.388C16.512,63.793,16.367,63.663,16.251,63.506z"/>
	<path fill="#000000" d="M57.472,61.769c0.82,0.956,1.792,1.757,2.646,2.681c-0.429-0.406-0.903-0.85-1.382-1.32   C58.307,62.705,57.671,62.116,57.472,61.769z"/>
	<path fill="#000000" d="M57.937,61.333c0.014,0,0.027,0,0.039-0.001c0.879,0.897,1.774,1.779,2.686,2.644   c0.031-0.009,0.038-0.04,0.077-0.04c-0.008,0.031-0.038,0.039-0.038,0.078C59.725,63.175,58.851,62.235,57.937,61.333z"/>
	<path fill="#000000" d="M61.984,62.828c0.105-0.167,0.281-0.266,0.389-0.434c0.052-0.016,0.061-0.07,0.115-0.079   C62.336,62.503,62.168,62.674,61.984,62.828z"/>
	<path fill="#000000" d="M62.684,62.117c0.007-0.031,0.038-0.039,0.038-0.078c0.158-0.128,0.301-0.273,0.427-0.435   c0.101-0.134,0.218-0.252,0.351-0.354C63.23,61.545,62.993,61.867,62.684,62.117z"/>
	<path fill="#000000" d="M60.742,19.881c0.169,0.039,0.619-0.471,0.855-0.712c0.767-0.779,1.592-1.675,2.331-2.368   c-1.02,1.069-2.055,2.121-3.108,3.157C60.786,19.941,60.75,19.925,60.742,19.881z"/>
	<path fill="#000000" d="M60.347,19.453c1.007-1.108,2.134-2.096,3.107-3.236c-0.377,0.585-0.984,1.079-1.514,1.617   C61.406,18.377,60.892,18.957,60.347,19.453z"/>
	<path fill="#000000" d="M62.585,15.323c-0.229-0.282-0.523-0.495-0.75-0.777c0.568,0.526,1.112,1.082,1.619,1.671   C63.176,15.907,62.86,15.637,62.585,15.323z"/>
	<path fill="#000000" d="M61.046,13.808c0.161,0.125,0.307,0.269,0.435,0.428C61.319,14.11,61.174,13.967,61.046,13.808z"/>
	<path fill="#000000" d="M61.796,14.546c0.014,0,0.025,0,0.039,0c0.227,0.282,0.523,0.495,0.75,0.777   C62.306,15.081,62.042,14.821,61.796,14.546z"/>
	<path fill="#000000" d="M60.82,19.958c1.054-1.036,2.089-2.088,3.108-3.157c0.113,0.016,0.18,0.082,0.196,0.195   c-0.09-0.027-0.104-0.129-0.195-0.156c-1.021,1.069-2.056,2.121-3.108,3.158C60.82,19.984,60.82,19.971,60.82,19.958z"/>
	<path fill="#000000" d="M62.722,62.039c0.126-0.161,0.269-0.306,0.427-0.435C63.023,61.766,62.88,61.911,62.722,62.039z"/>
	<path fill="#000000" d="M61.943,62.828c0.126-0.161,0.27-0.306,0.429-0.434c-0.106,0.168-0.282,0.267-0.39,0.434   C61.97,62.828,61.957,62.828,61.943,62.828z"/>
	<path fill="#000000" d="M60.662,63.976c-0.911-0.864-1.807-1.746-2.686-2.644C58.889,62.196,59.783,63.078,60.662,63.976z"/>
	<path fill="#000000" d="M15.856,63.116c1.039-1.114,2.147-2.162,3.185-3.275c-0.476,0.611-1.64,1.704-2.37,2.446   c-0.265,0.27-0.786,0.751-0.736,0.906C15.868,63.21,15.861,63.165,15.856,63.116z"/>
	<path fill="#000000" d="M15.106,62.378c-0.168-0.105-0.267-0.281-0.435-0.389c0-0.013,0-0.026,0-0.039   C14.833,62.076,14.978,62.219,15.106,62.378z"/>
	<path fill="#000000" d="M16.577,20.622c-1.109-1.15-2.286-2.23-3.395-3.38c1.18,1.104,2.292,2.276,3.473,3.379   C16.628,20.622,16.603,20.622,16.577,20.622z"/>
	<path fill="#000000" d="M14.541,15.705c0.223-0.286,0.515-0.503,0.737-0.789c0.013,0,0.026,0,0.04,0   C15.074,15.194,14.815,15.458,14.541,15.705z"/>
	<path fill="#000000" d="M65.617,66.676c0.197-0.259,0.463-0.45,0.66-0.71c0.014,0,0.025,0,0.039,0   C66.099,66.22,65.867,66.455,65.617,66.676z"/>
	<path fill="#000000" d="M66.393,65.848c0.257-0.2,0.443-0.47,0.7-0.672c-0.217,0.254-0.449,0.49-0.7,0.711   C66.393,65.873,66.393,65.861,66.393,65.848z"/>
	<path fill="#000000" d="M10.824,65.623c0.26,0.197,0.451,0.464,0.71,0.66c0,0.014,0,0.025,0,0.039   C11.281,66.105,11.045,65.873,10.824,65.623z"/>
	<path fill="#000000" d="M11.614,66.399c0.013,0,0.026,0,0.039,0c0.201,0.257,0.47,0.443,0.671,0.7   C12.072,66.883,11.834,66.65,11.614,66.399z"/>
	<path fill="#000000" d="M36.345,0.103c0.131-0.091,0.43-0.018,0.626-0.044C36.84,0.15,36.541,0.076,36.345,0.103z"/>
	<path fill="#000000" d="M39.907,0.036c0.198,0.023,0.496-0.055,0.628,0.034C40.338,0.046,40.041,0.124,39.907,0.036z"/>
	<path fill="#000000" d="M35.718,0.147c0.066-0.089,0.299-0.017,0.431-0.042C36.083,0.194,35.851,0.121,35.718,0.147z"/>
	<path fill="#000000" d="M40.732,0.068c0.131,0.024,0.362-0.053,0.43,0.036C41.029,0.08,40.798,0.156,40.732,0.068z"/>
	<path fill="#000000" d="M36.348,5.389c0.067-0.089,0.299-0.017,0.431-0.042C36.712,5.437,36.48,5.364,36.348,5.389z"/>
	<path fill="#000000" d="M0.097,36.222c-0.024,0.12,0.053,0.337-0.037,0.393C0.084,36.494,0.007,36.276,0.097,36.222z"/>
	<path fill="#000000" d="M77.353,35.608c0.09,0.055,0.017,0.272,0.042,0.392C77.306,35.946,77.378,35.728,77.353,35.608z"/>
	<path fill="#000000" d="M0.062,36.809c-0.024,0.157,0.054,0.416-0.035,0.509C0.05,37.161-0.028,36.903,0.062,36.809z"/>
	<path fill="#000000" d="M5.349,36.767c-0.023,0.119,0.052,0.336-0.036,0.393C5.335,37.04,5.258,36.822,5.349,36.767z"/>
	<path fill="#000000" d="M72.11,36.237c0.09,0.054,0.018,0.272,0.042,0.392C72.063,36.574,72.136,36.357,72.11,36.237z"/>
	<path fill="#000000" d="M77.396,36.195c0.093,0.104,0.02,0.377,0.044,0.548C77.349,36.638,77.423,36.365,77.396,36.195z"/>
	<path fill="#000000" d="M5.29,39.312c0.092,0.184,0.018,0.535,0.046,0.783C5.243,39.912,5.317,39.561,5.29,39.312z"/>
	<path fill="#000000" d="M77.497,38.661c0.003,0.393,0.006,0.783,0.009,1.176c-0.015,0-0.027,0-0.041,0   C77.488,39.458,77.406,38.976,77.497,38.661z"/>
	<path fill="#000000" d="M0.003,39.354c0.093,0.3,0.02,0.77,0.048,1.137c-0.013,0-0.026,0-0.039,0   C0.01,40.112,0.006,39.733,0.003,39.354z"/>
	<path fill="#000000" d="M0.055,40.844c0.09,0.078,0.017,0.324,0.042,0.469C0.006,41.232,0.081,40.986,0.055,40.844z"/>
	<path fill="#000000" d="M77.467,40.189c-0.022,0.157,0.056,0.416-0.035,0.51C77.457,40.54,77.378,40.282,77.467,40.189z"/>
	<path fill="#000000" d="M0.099,41.508c0.09,0.066,0.017,0.299,0.043,0.431C0.051,41.872,0.125,41.64,0.099,41.508z"/>
	<path fill="#000000" d="M77.434,40.895c-0.022,0.132,0.054,0.362-0.036,0.431C77.422,41.193,77.346,40.961,77.434,40.895z"/>
	<path fill="#000000" d="M36.722,72.153c0.132,0.022,0.362-0.054,0.432,0.035C37.02,72.165,36.789,72.243,36.722,72.153z"/>
	<path fill="#000000" d="M36.176,77.404c0.119,0.023,0.336-0.053,0.393,0.036C36.449,77.418,36.23,77.494,36.176,77.404z"/>
	<path fill="#000000" d="M41.541,77.401c0.055-0.09,0.271-0.018,0.393-0.043C41.878,77.449,41.66,77.377,41.541,77.401z"/>
	<path fill="#000000" d="M36.803,77.438c0.158,0.024,0.416-0.054,0.509,0.035C37.154,77.449,36.896,77.527,36.803,77.438z"/>
	<path fill="#000000" d="M40.797,77.446c0.093-0.091,0.352-0.017,0.509-0.044C41.213,77.493,40.954,77.419,40.797,77.446z"/>
	<path fill="#000000" d="M39.348,77.496c0.3-0.093,0.771-0.02,1.137-0.048c0,0.014,0,0.025,0,0.039   C40.104,77.49,39.727,77.493,39.348,77.496z"/>
	<path fill="#000000" d="M5.314,37.394c-0.023,0.431,0.059,0.965-0.03,1.332C5.307,38.294,5.225,37.761,5.314,37.394z"/>
	<path fill="#000000" d="M72.154,36.902c0.095,0.352,0.021,0.875,0.05,1.292C72.111,37.842,72.184,37.319,72.154,36.902z"/>
	<path fill="#000000" d="M37.388,72.187c0.379-0.003,0.757-0.006,1.135-0.009C38.236,72.246,37.676,72.251,37.388,72.187z"/>
	<path fill="#000000" d="M37.131,5.344c0.195-0.066,0.665-0.07,0.861-0.007C37.705,5.339,37.418,5.341,37.131,5.344z"/>
	<path fill="#000000" d="M0.029,37.632c-0.023,0.365,0.059,0.835-0.03,1.135c-0.003-0.379-0.006-0.758-0.009-1.136   C0.003,37.633,0.016,37.633,0.029,37.632z"/>
	<path fill="#000000" d="M77.483,37.057c0.004,0.404,0.007,0.809,0.01,1.214c-0.095-0.326-0.021-0.822-0.051-1.213   C77.456,37.057,77.468,37.057,77.483,37.057z"/>
	<path fill="#000000" d="M37.625,77.471c0.366,0.022,0.835-0.058,1.137,0.03c-0.379,0.003-0.757,0.006-1.136,0.009   C37.625,77.498,37.625,77.484,37.625,77.471z"/>
</g>
</svg>