<svg xmlns="http://www.w3.org/2000/svg" xmlns:xlink="http://www.w3.org/1999/xlink" version="1.1" id="Capa_1" x="0px" y="0px" width="100px" height="100px" viewBox="0 0 100 100" enable-background="new 0 0 100 100" xml:space="preserve">
<g>
	<path d="M98.008,47.958c0-26.472-21.535-48.008-48.006-48.008c-26.473,0-48.01,21.536-48.01,48.008   c0,25.64,20.207,46.651,45.533,47.944c0.59,1.106,1.385,1.853,2.477,1.853c1.091,0,1.885-0.746,2.474-1.853   C77.801,94.61,98.008,73.6,98.008,47.958z M53.779,91.196c0.284-2.093,0.325-4.113,0.325-5.066c0-2.405-0.744-3.378-0.978-3.686   c-0.233-0.307-0.655-1.28-0.655-1.894c0-0.614,0.329-1.484,0.655-2.048c0.326-0.562,1.818-2.561,1.818-2.561h-4.944h-4.947   c0,0,1.496,1.998,1.822,2.561c0.326,0.563,0.652,1.434,0.652,2.048c0,0.613-0.419,1.587-0.652,1.894   c-0.233,0.308-0.981,1.28-0.981,3.686c0,0.953,0.041,2.974,0.325,5.066C24.046,89.272,6.586,70.621,6.586,47.958   c0-23.938,19.476-43.414,43.416-43.414c23.938,0,43.412,19.476,43.412,43.414C93.414,70.622,75.953,89.274,53.779,91.196z"/>
	<ellipse cx="37.5" cy="43.014" rx="6.81" ry="2.705"/>
	<ellipse cx="21.874" cy="50.242" rx="7.043" ry="3.59"/>
	<path d="M32.649,28.024c4.259,0.187,9.289,4.132,10.602,5.132c1.307,0.994,2.871,1.283,3.732,0.466   c0.589-0.561,0.559-1.866-0.777-3.142c-1.337-1.274-7.866-5.566-13.649-5.566c-5.784,0-10.946,4.26-12.812,10.074   C22.23,29.517,28.92,27.861,32.649,28.024z"/>
	<path d="M55.689,43.014c0,1.494,3.051,2.705,6.813,2.705c3.759,0,6.81-1.211,6.81-2.705c0-1.495-3.051-2.707-6.81-2.707   C58.74,40.307,55.689,41.519,55.689,43.014z"/>
	<ellipse cx="78.126" cy="50.243" rx="7.043" ry="3.591"/>
	<path d="M56.748,33.157c1.313-1,6.344-4.945,10.605-5.132c3.727-0.163,10.416,1.493,12.904,6.965   c-1.866-5.814-7.027-10.074-12.812-10.074s-12.315,4.292-13.652,5.566c-1.337,1.275-1.367,2.581-0.778,3.142   C53.877,34.439,55.441,34.151,56.748,33.157z"/>
	<path d="M70.431,65.122c-0.403,0.526-1.118,1.866-2.007,1.866c-0.885,0-7.694,0-8.347,0c-1.073,0-1.821-0.654-2.8-2.007   c-0.849-1.174-2.799-3.871-2.799-3.871c-1.073,0.605-3.266,1.213-4.477,1.213c-1.214,0-3.406-0.607-4.48-1.213   c0,0-1.947,2.697-2.796,3.871c-0.981,1.353-1.726,2.007-2.799,2.007c-0.652,0-7.464,0-8.35,0s-1.603-1.34-2.007-1.866   c-0.604-0.792-4.384-6.343-4.384-6.343h-4.57c0,0,6.81,9.469,7.557,10.494c0.775,1.067,2.097,1.585,3.03,1.585s11.942,0,12.594,0   c0.655,0,1.259-0.141,1.821-0.839c0.559-0.7,1.304-1.68,2.145-2.892c0.84-1.213,1.726-1.539,2.24-1.539   c0.511,0,1.4,0.326,2.237,1.539c0.841,1.212,1.588,2.191,2.147,2.892c0.56,0.698,1.166,0.839,1.818,0.839s11.661,0,12.594,0   c0.934,0,2.255-0.518,3.032-1.585c0.745-1.025,7.555-10.494,7.555-10.494h-4.569C74.815,58.779,71.038,64.33,70.431,65.122z"/>
</g>
</svg>