<svg xmlns="http://www.w3.org/2000/svg" xmlns:xlink="http://www.w3.org/1999/xlink" version="1.1" id="Layer_1" x="0px" y="0px" width="100px" height="100px" viewBox="0 0 100 100" enable-background="new 0 0 100 100" xml:space="preserve">
<g>
	<g>
		<path d="M85.383,71.978L65.086,59.557c-3.092,5.057-8.664,8.434-15.026,8.434c-9.718,0-17.598-7.879-17.598-17.598    c0-0.138,0.002-0.275,0.005-0.414h7.846L20.565,38.082L0.816,49.979h7.852h0.005c-0.002,0.138-0.005,0.275-0.005,0.414    c0,22.859,18.532,41.391,41.392,41.391C65.011,91.783,78.108,83.856,85.383,71.978z"/>
	</g>
	<g>
		<path d="M51.615,8.284c0,0.05,0.103,0.087,0.166,0.105c6.205,1.49,12.362,12.061,14.038,23.519    c1.032,7.05,1.662,11.146,1.715,17.372c0.001,0.095,0.003,0.19,0.003,0.286c0,0.039-0.001,0.079-0.001,0.118    c0,0.098,0.001,0.196,0.001,0.294h-0.005h-7.847l19.748,11.897l19.749-11.897h-7.851h-0.007c0.002-0.137,0.007-0.275,0.007-0.413    c0-22.241-17.542-40.381-39.543-41.349C51.727,8.22,51.615,8.232,51.615,8.284z"/>
	</g>
	<g>
		<path d="M63.736,31.616c-2.917-14.268-9.244-21.93-15.901-23.333c-0.037-0.01-0.075-0.019-0.111-0.027    c-14.023,0.74-26.194,8.458-33.107,19.747l20.296,12.422c3.092-5.058,8.665-8.434,15.026-8.434c6.435,0,12.063,3.455,15.13,8.611    C64.842,37.924,64.451,35.103,63.736,31.616z"/>
	</g>
</g>
</svg>