<?xml version="1.0" encoding="utf-8"?>
<!-- Generator: Adobe Illustrator 14.0.0, SVG Export Plug-In . SVG Version: 6.00 Build 43363)  -->
<!DOCTYPE svg PUBLIC "-//W3C//DTD SVG 1.0//EN" "http://www.w3.org/TR/2001/REC-SVG-20010904/DTD/svg10.dtd">
<svg version="1.0" id="Layer_1" xmlns="http://www.w3.org/2000/svg" xmlns:xlink="http://www.w3.org/1999/xlink" x="0px" y="0px"
	 width="100px" height="49.831px" viewBox="0 0 100 49.831" enable-background="new 0 0 100 49.831" xml:space="preserve">
<path id="path29926" d="M9.191,44.902c0.042,6.562,9.44,6.562,9.44,0.059"/>
<path id="path30815" d="M28.662,44.9c0.042,6.562,9.44,6.562,9.44,0.059"/>
<path id="path30821" d="M19.649,47.896h7.906c-0.402-0.697-0.586-1.436-0.56-2.95h-6.653C20.295,46.481,20.055,47.194,19.649,47.896
	z"/>
<path id="path29926_1_" d="M81.521,44.961c0,6.502,9.398,6.502,9.44-0.059"/>
<path id="path30815_1_" d="M62.051,44.959c0,6.502,9.397,6.502,9.439-0.059"/>
<path id="path30821_1_" d="M79.81,44.946h-6.652c0.025,1.514-0.158,2.253-0.561,2.95h7.906
	C80.098,47.194,79.856,46.481,79.81,44.946z"/>
<path d="M93.675,20.05h1.834v-2.988H78.725l-0.833-0.999h-7.793l11.343-7.458L68.378,0L55.599,8.598l11.083,7.465h-7.507
	l-0.952,0.999H50h-8.223l-0.952-0.999h-7.507l11.083-7.465L31.622,0L18.559,8.604l11.343,7.458h-7.793l-0.833,0.999H4.492v2.988
	h1.834L0,32.636v7.731c0,1.396,1.646,2.851,2.904,2.847H50h47.096c1.258,0.004,2.904-1.451,2.904-2.847v-7.731L93.675,20.05z
	 M12.065,32.897h-5.46c-1.258,0-3.381-1.509-2.62-4.35l4.183-8.498h3.909L12.065,32.897z M21.312,39.623
	c-0.168,0.956-0.836,1.132-1.372,1.645h-4.542c-0.538-0.526-1.219-0.696-1.389-1.662L14,21.333c0-0.412,0.575-0.817,1.241-1.284
	h4.814c0.676,0.474,1.265,0.884,1.265,1.301L21.312,39.623z M20.526,8.604l11.09-7.305l10.849,7.299L31.624,15.9L20.526,8.604z
	 M39.73,31.262c-0.167,0.942-0.818,1.127-1.35,1.625H24.778c-0.538-0.521-1.234-0.653-1.404-1.615l-0.089,0.001l0.021-9.96
	c0-0.368,0.606-0.794,1.273-1.263h13.94c0.657,0.461,1.22,0.862,1.22,1.269L39.73,31.262z M58.273,31.287
	c-0.154,0.95-0.827,1.104-1.36,1.6H50h-6.913c-0.534-0.496-1.206-0.65-1.36-1.6l-0.002-10.006c0-0.359,0.58-0.775,1.228-1.231H50
	h7.048c0.648,0.456,1.228,0.872,1.228,1.231L58.273,31.287z M57.535,8.598l10.85-7.299l11.09,7.305L68.377,15.9L57.535,8.598z
	 M76.626,31.271c-0.17,0.962-0.866,1.094-1.404,1.615H61.619c-0.531-0.498-1.183-0.682-1.35-1.625l-0.009-9.943
	c0-0.407,0.564-0.808,1.221-1.269h13.939c0.667,0.468,1.273,0.895,1.273,1.263l0.021,9.96L76.626,31.271z M85.991,39.605
	c-0.171,0.966-0.852,1.136-1.389,1.662H80.06c-0.535-0.513-1.203-0.689-1.371-1.645L78.68,21.351c0-0.417,0.589-0.827,1.265-1.301
	h4.814C85.424,20.517,86,20.922,86,21.333L85.991,39.605z M93.396,32.897h-5.46L87.923,20.05h3.909l4.183,8.498
	C96.776,31.389,94.652,32.897,93.396,32.897z"/>
</svg>
