<svg xmlns="http://www.w3.org/2000/svg" xmlns:xlink="http://www.w3.org/1999/xlink" version="1.0" x="0px" y="0px" width="100px" height="100px" viewBox="0 0 100 100" overflow="" enable-background="new 0 0 100 100" xml:space="preserve">
    <path d="M2.732,27.675v57.479c0,7.815,6.328,14.143,14.137,14.143h66.556c7.814,0,14.149-6.327,14.149-14.143 V27.675c0-7.804-6.335-14.136-14.149-14.136h-2.901V5.03c0-2.378-1.929-4.305-4.305-4.305c-2.378,0-4.311,1.927-4.311,4.305v17.326 c0,2.125-1.72,3.843-3.843,3.843c-2.113,0-3.825-1.718-3.825-3.843v-8.817h-7.461V5.03c0-2.378-1.927-4.305-4.304-4.305 c-2.385,0-4.306,1.927-4.306,4.305v17.326c0,2.125-1.713,3.843-3.843,3.843c-2.113,0-3.826-1.718-3.826-3.843v-8.817h-7.364V5.03 c0-2.378-1.933-4.305-4.305-4.305c-2.383,0-4.31,1.927-4.31,4.305v17.326c0,2.125-1.713,3.843-3.837,3.843 c-2.119,0-3.832-1.718-3.832-3.843v-8.817C9.054,13.55,2.732,19.872,2.732,27.675z M87.285,83.407c0,2.514-2.039,4.552-4.554,4.552 H18.171c-2.513,0-4.558-2.038-4.558-4.552v-37.06h73.672V83.407z"/>
    <path d="M58.147,81.548H37.919l8.065-10.673c0.918-1.211,1.688-2.3,2.314-3.258 c0.624-0.951,1.112-1.791,1.471-2.526c0.704-1.376,1.049-2.796,1.049-4.248c0-0.803-0.162-1.435-0.495-1.896 c-0.332-0.468-0.782-0.704-1.356-0.704c-1.271,0-1.902,1.201-1.902,3.598c0,0.123,0,0.279,0.007,0.455 c0.006,0.182,0.013,0.392,0.026,0.632h-7.701l-0.039-1.075c0-2.93,0.913-5.302,2.729-7.096c1.838-1.811,4.184-2.715,7.044-2.715 c2.755,0,5.016,0.9,6.755,2.69c1.76,1.759,2.638,4.046,2.638,6.879c0,2.273-0.598,4.483-1.79,6.632 c-0.606,1.076-1.388,2.203-2.352,3.383c-0.966,1.18-2.131,2.424-3.507,3.72c1.187-0.313,2.379-0.54,3.578-0.67 c1.205-0.136,2.437-0.203,3.692-0.203V81.548z"/>
</svg>