<svg xmlns="http://www.w3.org/2000/svg" xmlns:xlink="http://www.w3.org/1999/xlink" version="1.0" x="0px" y="0px" width="100px" height="100px" viewBox="0 0 100 100" overflow="" enable-background="new 0 0 100 100" xml:space="preserve">
    <path d="M49.784,1.479c-26.749,0-48.442,21.686-48.442,48.435c0,26.755,21.693,48.447,48.442,48.447 c26.75,0,48.442-21.692,48.442-48.447C98.227,23.165,76.534,1.479,49.784,1.479z M30.54,73.25l-5.885,5.884 c-1.028,1.028-2.698,1.028-3.722,0c-1.028-1.034-1.028-2.694,0-3.723l3.772-3.777c-4.437-5.19-7.298-11.768-7.862-18.979h-5.342 c-1.458,0-2.632-1.186-2.632-2.641c0-1.456,1.174-2.638,2.632-2.638h5.342c0.357-4.554,1.626-8.846,3.621-12.696l3.828,5.44 c-1.173,3.07-1.833,6.4-1.833,9.893c0,7.625,3.09,14.52,8.081,19.507C31.568,70.557,31.568,72.221,30.54,73.25z M88.609,52.655 h-5.336c-0.571,7.211-3.431,13.788-7.874,18.979l3.777,3.777c1.029,1.028,1.029,2.688,0,3.723c-1.027,1.028-2.698,1.028-3.721,0 l-5.891-5.884c-1.022-1.029-1.022-2.693,0-3.729c4.996-4.991,8.086-11.882,8.086-19.507c0-15.235-12.354-27.604-27.593-27.604 c-5.711,0-11.013,1.737-15.417,4.71L56.054,41.75L56.01,41.8c0.502,0.357,0.984,0.737,1.43,1.185 c3.985,3.978,3.985,10.441,0,14.411c-0.111,0.116-0.229,0.229-0.351,0.337c-4.059,3.614-10.277,3.474-14.171-0.41L21.431,27.014 c-1.168-1.475-1.067-3.629,0.296-4.995c1.369-1.369,3.521-1.464,5.007-0.302l2.895,1.984c4.99-3.884,11.114-6.379,17.792-6.901 V11.46c0-1.455,1.179-2.633,2.637-2.633c1.454,0,2.632,1.179,2.632,2.633V16.8c7.226,0.559,13.797,3.434,18.993,7.862l3.772-3.777 c1.022-1.028,2.693-1.028,3.721,0c1.029,1.028,1.029,2.699,0,3.727l-3.777,3.771c4.443,5.2,7.303,11.774,7.874,18.994h5.336 c1.453,0,2.633,1.182,2.633,2.638C91.242,51.47,90.062,52.655,88.609,52.655z"/>
    <circle cx="50.374" cy="50.429" r="4.071"/>
</svg>