<svg xmlns="http://www.w3.org/2000/svg" xmlns:xlink="http://www.w3.org/1999/xlink" version="1.1" id="&#1057;&#1083;&#1086;&#1081;_1" x="0px" y="0px" width="100px" height="100px" viewBox="0 0 100 100" enable-background="new 0 0 100 100" xml:space="preserve">
<circle cx="15.668" cy="63.018" r="8.417"/>
<path d="M26.035,64c-0.497,5.285-4.955,9.435-10.367,9.435S5.798,69.285,5.301,64H1v12h98V64H26.035z"/>
<path d="M1,50v12h4.304c0.513-5.268,4.964-9.398,10.364-9.398S25.519,56.732,26.032,62H99V50H1z M55,57c0,0.55-0.45,1-1,1H40  c-0.55,0-1-0.45-1-1v-2c0-0.55,0.45-1,1-1h14c0.55,0,1,0.45,1,1V57z"/>
</svg>