<svg xmlns="http://www.w3.org/2000/svg" xmlns:xlink="http://www.w3.org/1999/xlink" version="1.1" id="Layer_1" x="0px" y="0px" width="100px" height="100px" viewBox="0 0 100 100" enable-background="new 0 0 100 100" xml:space="preserve">
<path fill="#000000" d="M97.162,80.194c-0.818-6.079-2.577-12.045-4.481-17.862c-1.032-3.154-2.13-6.295-3.361-9.378  c-0.009-0.022-0.022-0.041-0.032-0.062c-0.016-0.051-0.032-0.101-0.058-0.152c-2.138-4.276-4.276-8.551-6.413-12.826  c-0.139-0.277-0.476-0.445-0.776-0.445c-0.774,0-1.55,0-2.325,0c-0.081-3.43-0.59-6.891-1.264-10.238  c-1.419-7.054-4.075-14.091-8.82-19.597c-5.782-6.709-14.508-9.423-23.184-8.44c-8.3,0.941-15.036,5.803-19.325,12.85  c-3.199,5.255-5.004,11.324-6.022,17.356c-0.447,2.65-0.797,5.369-0.865,8.068c-0.774,0-1.549,0-2.323,0  c-0.3,0-0.636,0.168-0.775,0.445c-1.371,2.741-2.741,5.482-4.111,8.223c-0.878,1.756-1.878,3.491-2.591,5.324  C7.897,59.98,5.699,66.676,4.08,73.482c-0.948,3.982-1.752,8.12-1.681,12.23c0.026,1.518,0.201,3.091,0.756,4.513  c0.584,1.5,1.643,2.512,2.942,3.429c4.293,3.03,10.154,3.781,15.228,4.375c7.409,0.869,14.913,0.912,22.364,0.944  c7.947,0.034,15.905,0.081,23.848-0.185c6.528-0.218,13.206-0.595,19.549-2.26c3.495-0.917,8.144-2.526,9.655-6.161  C98.044,87.232,97.603,83.46,97.162,80.194z M31.43,39.47c-0.891-3.372-1.281-6.935-1.33-10.403  c-0.09-6.441,1.435-13.56,6.862-17.64c3.535-2.658,8.02-3.532,12.354-3.631c4.496-0.103,9.142,0.644,12.965,3.132  c5.771,3.754,7.518,10.915,7.575,17.395c0.033,3.704-0.371,7.544-1.325,11.147c-12.158,0-24.316,0-36.474,0  C31.849,39.47,31.639,39.47,31.43,39.47z"/>
</svg>