<svg xmlns="http://www.w3.org/2000/svg" xmlns:xlink="http://www.w3.org/1999/xlink" version="1.1" id="Layer_1" x="0px" y="0px" width="100px" height="100px" viewBox="0 0 100 100" enable-background="new 0 0 100 100" xml:space="preserve">
<g>
	<rect x="31.445" y="0.118" width="37.11" height="51.988"/>
	<polygon points="72.152,97.54 71.779,97.638 61.924,60.863 62.324,60.755 61.749,58.609 61.349,58.715 60.404,55.184    69.154,55.184 69.154,52.961 30.847,52.961 30.847,55.184 39.596,55.184 38.649,58.715 38.25,58.609 37.675,60.755 38.074,60.863    28.22,97.638 27.849,97.54 27.273,99.687 28.885,100.118 29.459,97.971 29.088,97.872 38.942,61.095 39.286,61.187 39.861,59.04    39.517,58.948 40.525,55.184 49.166,55.184 49.166,56.295 49.551,56.295 49.551,89.601 49.166,89.601 49.166,91.824 50.833,91.824    50.833,89.601 50.448,89.601 50.448,56.295 50.833,56.295 50.833,55.184 59.474,55.184 60.482,58.948 60.139,59.04 60.714,61.187    61.057,61.095 70.911,97.872 70.541,97.971 71.116,100.118 72.727,99.687  "/>
</g>
</svg>