<svg xmlns="http://www.w3.org/2000/svg" xmlns:xlink="http://www.w3.org/1999/xlink" version="1.1" id="&#1084;&#1072;&#1088;&#1082;&#1077;&#1088;_xA0_Image_1_" x="0px" y="0px" width="100px" height="100px" viewBox="0 0 100 100" enable-background="new 0 0 100 100" xml:space="preserve">
<g>
	<path d="M75.921,92.307c0.484-0.225,0.694-0.801,0.468-1.285l-1.644-3.524c0.013-0.004,0.026-0.012,0.036-0.016   c1.047-0.488-1.105-2.452-0.696-8.263c0.364-5.187,0.652-7.11,1.452-8.48c0.035-0.061,0.053-0.114,0.072-0.169   c0.389-0.542,0.488-1.267,0.186-1.915l-1.043-2.235c-0.446-0.957-1.582-1.37-2.538-0.924L49.708,75.99   c-0.956,0.446-1.369,1.583-0.923,2.538l1.041,2.236c0.343,0.733,1.094,1.145,1.856,1.095c0,0,0.002,0.001,0.004,0.001   c1.563,0.269,4.171,0.843,8.377,3.897c4.713,3.422,4.835,6.333,5.881,5.845l1.645,3.522c0.225,0.485,0.801,0.694,1.284,0.469   L75.921,92.307z M68.009,79.042c-0.069-0.927-0.074-1.888-0.082-2.817c-0.01-1.452-0.02-2.826-0.293-3.412l-1.514-3.245   c-0.111-0.239,0.321-0.44,0.433-0.202l1.514,3.246c0.317,0.679,0.327,2.038,0.339,3.611c0.007,0.922,0.014,1.874,0.079,2.785   c0.183,2.452,1.605,5.853,4.726,12.545c0.056,0.119,0.004,0.263-0.115,0.316c-0.119,0.057-0.262,0.005-0.318-0.114   C69.568,84.873,68.197,81.584,68.009,79.042z"/>
	<path d="M49.473,75.485L71.978,64.99c0.957-0.446,1.37-1.583,0.925-2.538L41.412,1.7c-0.445-0.957-3.676-3.555-12.405,0.516   c-8.729,4.07-8.814,8.215-8.369,9.171L46.935,74.56C47.38,75.516,48.517,75.93,49.473,75.485z M35.273,6.056   c-1.507-3.235-1.282-4.23-1.25-4.333c0.037-0.126,0.171-0.197,0.297-0.161c0.125,0.038,0.196,0.167,0.162,0.291   c-0.006,0.031-0.182,0.984,1.225,4.001c1.496,3.207,29.286,60.19,29.566,60.767c0.058,0.119,0.009,0.262-0.11,0.32   c-0.001,0-0.003,0.001-0.004,0.001c-0.117,0.055-0.258,0.005-0.314-0.112C64.563,66.254,36.771,9.267,35.273,6.056z"/>
	<path d="M79.107,97.889c-0.538-1.153-2.59-5.556-2.59-5.556l-7.755,3.617c0,0,0.639,1.371,1.109,2.38   c0.471,1.012,0.773,1.66,3.017,1.669c2.244,0.006,3.954-0.088,5.453-0.172C79.84,99.744,79.646,99.043,79.107,97.889z    M78.317,98.739c0,0.001-0.001,0.001-0.002,0.002c-0.119,0.055-0.261,0-0.315-0.119c-0.039-0.086-0.997-2.131-3.454-2.328   c-2.441-0.195-3.463,1.671-3.508,1.748c-0.061,0.115-0.206,0.162-0.322,0.1c-0.117-0.062-0.16-0.206-0.1-0.321   c0.013-0.023,1.21-2.222,3.966-2.001c2.746,0.22,3.81,2.509,3.854,2.606C78.488,98.545,78.437,98.684,78.317,98.739z"/>
</g>
</svg>