<svg xmlns:dc="http://purl.org/dc/elements/1.1/" xmlns:cc="http://creativecommons.org/ns#" xmlns:rdf="http://www.w3.org/1999/02/22-rdf-syntax-ns#" xmlns:svg="http://www.w3.org/2000/svg" xmlns="http://www.w3.org/2000/svg" xmlns:sodipodi="http://sodipodi.sourceforge.net/DTD/sodipodi-0.dtd" xmlns:inkscape="http://www.inkscape.org/namespaces/inkscape" width="100" height="100" id="svg3005" version="1.1" inkscape:version="0.48.3.1 r9886" sodipodi:docname="classic_sail_boat2.svg">
  <defs id="defs3007"/>
  <sodipodi:namedview id="base" pagecolor="#ffffff" bordercolor="#666666" borderopacity="1.0" inkscape:pageopacity="0.0" inkscape:pageshadow="2" inkscape:zoom="15.839192" inkscape:cx="65.207654" inkscape:cy="12.907449" inkscape:document-units="px" inkscape:current-layer="layer1" showgrid="false" inkscape:window-width="1280" inkscape:window-height="691" inkscape:window-x="137" inkscape:window-y="79" inkscape:window-maximized="0"/>
  <metadata id="metadata3010">
    <rdf:RDF>
      <cc:Work rdf:about="">
        <dc:format>image/svg+xml</dc:format>
        <dc:type rdf:resource="http://purl.org/dc/dcmitype/StillImage"/>
        <dc:title/>
      </cc:Work>
    </rdf:RDF>
  </metadata>
  <g inkscape:label="Layer 1" inkscape:groupmode="layer" id="layer1" transform="translate(0,-952.36218)">
    <path style="fill:#000000;fill-opacity:1;stroke:#000000;stroke-width:0.68979788;stroke-linecap:round;stroke-linejoin:miter;stroke-miterlimit:4;stroke-opacity:1;stroke-dasharray:none" d="m 90.33959,1045.6466 c 0,0 -85.4906413,-2.9885 -82.7786978,-2.8553 2.7119438,0.133 10.9858598,0.461 11.4935428,0.6832 2.276931,0.997 9.289884,5.0653 11.569295,5.6038 2.279411,0.5388 40.90223,0.9582 49.263841,0.1918 0,0 5.10181,-1.3327 10.591376,-3.6235" id="path3846" inkscape:connector-curvature="0" sodipodi:nodetypes="csszcc"/>
    <path style="fill:none;stroke:#000000;stroke-width:1.66443419;stroke-linecap:round;stroke-linejoin:miter;stroke-miterlimit:4;stroke-opacity:1;stroke-dasharray:none" d="m 46.580478,955.80169 c -0.836164,41.40285 -0.836164,41.40285 -0.836164,41.40285 l 0.836164,-10.73408 -1.25424,57.50384 0,0" id="path3848" inkscape:connector-curvature="0"/>
    <path style="fill:#000000;fill-opacity:1;stroke:#000000;stroke-width:0.13795958px;stroke-linecap:butt;stroke-linejoin:miter;stroke-opacity:1" d="M 7.6292936,1042.5111 45.628804,996.44859 c 0.06446,-0.0826 -2.9242,16.80781 -16.538034,37.56141 -17.350317,5.1097 -21.4614764,8.5011 -21.4614764,8.5011 z" id="path3852" inkscape:connector-curvature="0" sodipodi:nodetypes="cccc"/>
    <path style="fill:#000000;fill-opacity:1;stroke:#000000;stroke-width:0.13795958px;stroke-linecap:butt;stroke-linejoin:miter;stroke-opacity:1" d="m 18.638604,1022.3738 26.060364,-52.67825 c 0,0 -5.546591,15.69537 -6.689294,46.26755 -17.350315,5.1098 -19.37107,6.4107 -19.37107,6.4107 z" id="path3852-6" inkscape:connector-curvature="0" sodipodi:nodetypes="cccc"/>
    <path style="fill:#000000;fill-opacity:1;stroke:#000000;stroke-width:0.13795958px;stroke-linecap:butt;stroke-linejoin:miter;stroke-opacity:1" d="m 23.795079,1042.9988 21.646668,-45.58643 c 0,0 -4.477541,22.40043 -2.275595,44.47163 -8.013182,0.093 -19.371073,1.1148 -19.371073,1.1148 z" id="path3852-6-8" inkscape:connector-curvature="0" sodipodi:nodetypes="cccc"/>
    <path style="fill:#000000;fill-opacity:1;stroke:#000000;stroke-width:0.13795958px;stroke-linecap:butt;stroke-linejoin:miter;stroke-opacity:1" d="m 65.258788,970.51449 c -6.368183,13.93173 -11.809225,20.70895 -19.740803,32.62691 0,0 0.47539,-18.59282 0.305153,-49.26779 10.601294,11.2756 19.43565,16.64088 19.43565,16.64088 z" id="path3852-6-5" inkscape:connector-curvature="0" sodipodi:nodetypes="cccc"/>
    <path style="fill:#000000;fill-opacity:1;stroke:#000000;stroke-width:0.13795958px;stroke-linecap:butt;stroke-linejoin:miter;stroke-opacity:1" d="m 45.557001,1039.4755 0.827418,-36.6975 18.661288,-23.188 c 0,0 3.651185,12.35072 22.855078,58.1131 0.128664,0.058 -42.343784,1.7724 -42.343784,1.7724 z" id="path3852-6-2" inkscape:connector-curvature="0" sodipodi:nodetypes="ccccc"/>
  </g>
</svg>