<svg xmlns="http://www.w3.org/2000/svg" xmlns:xlink="http://www.w3.org/1999/xlink" version="1.1" id="Layer_1" x="0px" y="0px" width="100.0px" height="100px" viewBox="0 0 126 126" enable-background="new 0 0 126 126" xml:space="preserve">
<path d="M91.267,68.739c0.005-0.027,0.017-0.055,0.021-0.085c1.146-10.874,1.296-22.453-0.952-33.179  c-0.705-3.363-1.827-6.532-3.525-9.522c-2.048-3.608-5.532-5.751-9.083-7.687c-5.474-2.985-11.409-5.25-17.715-5.266  c-3.894-0.01-7.365,1.481-10.604,3.527c-4.768,3.01-7.758,8.732-10.383,13.541c-1.954,3.579-3.755,7.265-5.355,11.017  c-0.536,1.257,1.044,2.694,3.232,3.743c-0.234,0.876-0.53,2.029-0.841,3.345l-0.179-0.014l-1.133,5.171h0.242  c-0.297,1.687-0.534,3.399-0.649,4.979c-3.429,2.325-7.087,5.843-7.455,10.428c-0.708,8.818,0,14.342,0,14.342  s2.125,6.249,5.736,8.649c3.613,2.4,8.854,2.967,10.767,2.684c0.971-0.144,3.22-0.982,5.389-2.179  c-1.904,8.54,0.604,17.705,10.156,19.977c5.926,1.409,10.935,0.886,15.161-1.15c0.383,0.145,0.813,0.228,1.296,0.228  c2.451,0,5.16-1.984,6.052-4.436c0.254-0.7,0.326-1.36,0.251-1.948c1.848-2.248,3.466-4.902,4.878-7.889  c1.927-4.072,3.871-7.417,2.794-11.921c-0.186-0.775-0.394-1.599-0.633-2.445c1.395,0.437,2.492,0.793,2.789,0.925  c0.473,0.21,1.558,0.539,2.781,0.539c0.807,0,1.676-0.143,2.467-0.556c1.34-0.7,2.203-2.013,2.567-3.903  C100.291,74.69,93.443,70.069,91.267,68.739z M42.825,46.307c0.243,0.776,0.881,2.209,2.5,3.462  c0.995,0.771,2.231,1.481,3.225,2.053c0.277,0.159,0.569,0.328,0.82,0.478c-1.914,0.392-6.12,1.771-6.564,2.215  c-0.097,0.096-0.279,0.284-0.493,0.505c-1.216-0.125-1.828,0.008-1.828,0.008s-0.166,0.063-0.447,0.182  c0.096-0.572,0.209-1.209,0.332-1.881h0.115l0.424-2.838c0.293-1.509,0.595-3.008,0.847-4.243  C42.125,46.288,42.483,46.308,42.825,46.307z M37.688,45.176c1.034,0.425,2.152,0.761,3.227,0.952  c-0.14,0.679-0.306,1.501-0.485,2.393l-3.511-0.281C37.199,47.051,37.469,45.999,37.688,45.176z M35.853,53.329h3.652  c-0.152,0.832-0.289,1.615-0.396,2.293c-0.973,0.449-2.363,1.151-3.867,2.096C35.373,56.304,35.591,54.807,35.853,53.329z   M51.425,81.56c-1.904,3.814-5.797,6.509-9.735,6.617c1.749-0.834,3.218-2.011,4.401-3.339c1.18-1.335,2.037-2.854,2.571-4.468  c0.537-1.624,0.774-3.302,0.804-5.074c0.021-0.915,0.038-1.82-0.006-2.708c-0.027-0.886-0.097-1.755-0.233-2.581  c-0.123-0.827-0.323-1.607-0.606-2.294c-0.274-0.693-0.651-1.268-1.124-1.763c-0.476-0.494-1.088-0.895-1.808-1.241  c-0.728-0.335-1.539-0.606-2.418-0.838c-0.659-0.192-1.305-0.214-1.972,0.002c-0.667,0.213-1.346,0.675-1.955,1.279  c-1.231,1.222-2.219,2.874-3.074,4.609c0.021-0.977,0.168-1.956,0.423-2.919c0.255-0.966,0.622-1.919,1.167-2.831  c0.55-0.9,1.296-1.784,2.357-2.396c1.05-0.629,2.394-0.854,3.606-0.689c0.995,0.112,2.046,0.294,3.095,0.655  c1.051,0.348,2.121,0.913,3.043,1.721c0.926,0.804,1.631,1.847,2.114,2.902c0.478,1.064,0.748,2.147,0.927,3.2  c0.32,2.115,0.27,4.145,0.083,6.122C52.904,77.554,52.401,79.678,51.425,81.56z M65.681,84.094  c-3.329,2.021-6.113,4.878-7.916,8.301c-0.932,1.726-1.769,3.506-2.427,5.339c-0.668,1.823-1.144,3.726-1.212,5.632  c-0.061,1.893,0.411,3.835,1.708,5.245c1.274,1.436,3.179,2.228,5.105,2.675c-0.993-0.091-1.985-0.287-2.938-0.642  c-0.949-0.354-1.854-0.882-2.615-1.595c-0.756-0.72-1.344-1.627-1.709-2.613c-0.374-0.986-0.519-2.036-0.547-3.073  c-0.047-2.081,0.441-4.102,1.068-6.026c0.653-1.926,1.505-3.762,2.443-5.545c0.978-1.798,2.202-3.47,3.65-4.915  c1.456-1.438,3.105-2.676,4.895-3.641c1.782-0.979,3.687-1.703,5.633-2.21c1.952-0.485,3.95-0.797,5.949-0.764  c-1.978,0.246-3.909,0.721-5.77,1.36C69.134,82.256,67.347,83.084,65.681,84.094z M79.472,103.211c-2.449,0-5.159,1.985-6.05,4.437  c-0.456,1.251-0.347,2.379,0.193,3.186c-1.213-0.72-1.682-2.23-1.044-3.983c0.892-2.45,3.601-4.436,6.05-4.436  c1.198,0,2.11,0.476,2.627,1.248C80.766,103.376,80.168,103.211,79.472,103.211z M81.267,71.546  c-7.72-3.35-18.409,1.534-24.957,7.604c0.705-3.406,1.158-7.172,0.892-10.415c-0.566-6.907-3.825-9.314-5.1-10.52  c-1.084-1.023-6.424-2.51-8.777-3.018c0.024-0.024,0.045-0.047,0.063-0.064c0.479-0.351,5.667-2.089,6.731-2.089  c0.454,0,0.605-0.21,0.653-0.385c0.125-0.47-0.282-0.704-1.795-1.574c-0.972-0.56-2.181-1.255-3.13-1.989  c-1.306-1.011-1.889-2.158-2.141-2.85c1.014-0.141,1.791-0.54,2.109-1.286c2.317-5.433,5.005-10.768,8.125-15.785  c1.815-2.922,3.843-5.719,6.765-7.608c1.398-0.904,2.449-1.475,3.985-1.985c0.291-0.096,0.588-0.171,0.886-0.242  c-0.375,0.097,0.593-0.088,0.695-0.098c0.094-0.01,0.369-0.009,0.577-0.008c0.072,0.005,0.145,0.012,0.217,0.019  c0.056,0.01,0.116,0.021,0.189,0.034c0.023,0.004,0.042,0.007,0.063,0.012c0.065,0.021,0.14,0.044,0.23,0.072  c0.149,0.045,0.261,0.078,0.345,0.102c0.054,0.022,0.112,0.046,0.18,0.073c1.122,0.454,2.063,0.93,2.817,1.342  c0.682,0.372,1.35,0.771,2.018,1.167c0.061,0.036,0.441,0.3,0.707,0.479c0.123,0.129,0.503,0.499,0.604,0.62  c1.777,2.126,2.695,4.816,3.507,7.848c1.843,6.88,2.138,14.215,2.067,21.303c-0.042,4.155-0.214,8.336-0.65,12.472  c-0.134,1.275,0.985,2.439,2.594,3.338C81.606,69.185,81.43,70.439,81.267,71.546z M86.499,76.832  c-1.09-2.044-2.52-3.822-4.431-4.895c0.16-1.068,0.336-2.311,0.474-3.415c1.372,0.639,2.969,1.095,4.422,1.302  C86.852,71.824,86.689,74.474,86.499,76.832z M98.503,79.491c-0.313,1.622-1.028,2.736-2.125,3.309  c-1.689,0.883-3.876,0.277-4.511-0.005c-0.372-0.165-1.793-0.622-3.423-1.128c-0.343-1.114-0.742-2.245-1.221-3.338  c0.242-2.649,0.451-5.995,0.586-8.411c1.287,0.096,2.377-0.043,2.979-0.47C92.796,70.683,99.35,75.089,98.503,79.491z"/>
</svg>