<?xml version="1.0" encoding="utf-8"?>
<!-- Generator: Adobe Illustrator 14.0.0, SVG Export Plug-In . SVG Version: 6.00 Build 43363)  -->
<!DOCTYPE svg PUBLIC "-//W3C//DTD SVG 1.0//EN" "http://www.w3.org/TR/2001/REC-SVG-20010904/DTD/svg10.dtd">
<svg version="1.0" id="Layer_1" xmlns="http://www.w3.org/2000/svg" xmlns:xlink="http://www.w3.org/1999/xlink" x="0px" y="0px"
	 width="97.96px" height="100px" viewBox="0 0 97.96 100" enable-background="new 0 0 97.96 100" xml:space="preserve">
<path id="path27_2_" d="M50.915,0.889C50.43,0.325,49.724,0,48.98,0c-0.744,0-1.451,0.325-1.936,0.889
	c-2.702,3.146-4.188,7.155-4.188,11.302v22.503L0,68.367v10.204l42.857-16.326v15.306c0,1.424,0.351,2.826,1.021,4.082
	L28.572,91.837V100l20.408-8.163L69.388,100v-8.163L54.082,81.633c0.67-1.256,1.021-2.658,1.021-4.082V62.245L97.96,78.571V68.367
	L55.103,34.694V12.191C55.103,8.044,53.617,4.035,50.915,0.889"/>
</svg>
