<svg xmlns="http://www.w3.org/2000/svg" xmlns:xlink="http://www.w3.org/1999/xlink" version="1.1" id="Calque_1" x="0px" y="0px" width="100px" height="100px" viewBox="0 0 100 100" enable-background="new 0 0 100 100" xml:space="preserve">
<g>
	<path d="M65.857,29.21h0.006c0-4.436-3.588-8.023-8.023-8.023H40.818c-4.431,0-8.016,3.58-8.023,8.009h-0.006l-0.008,23.421   c0,1.621,1.314,2.936,2.936,2.936s2.934-1.314,2.934-2.936v-20.48h1.562v55.429c0,2.307,1.87,4.177,4.177,4.177   s4.176-1.87,4.176-4.177V55.384h1.661v32.168c0,2.306,1.869,4.176,4.176,4.176c2.305,0,4.176-1.87,4.176-4.176V32.136h1.426   c-0.002,0.034-0.006,0.066-0.006,0.102V45.14c0,1.621,1.314,2.936,2.934,2.936c1.621,0,2.936-1.314,2.936-2.936L65.857,29.21z"/>
	<rect x="61.91" y="50.32" width="1.799" height="40.148"/>
	<circle cx="49.42" cy="12.699" r="6.446"/>
</g>
</svg>