<svg xmlns="http://www.w3.org/2000/svg" xmlns:xlink="http://www.w3.org/1999/xlink" version="1.1" id="Calque_1" x="0px" y="0px" width="100px" height="100px" viewBox="0 0 100 100" enable-background="new 0 0 100 100" xml:space="preserve">
<g>
	<path d="M76.406,61.003c-1.992-0.615-3.168-0.795-3.873-0.795c-0.098-1.844-0.297-3.484-0.598-4.785   c-0.006-0.012-0.016-0.02-0.033-0.016c-0.584,0.877-5.135,5.125-6.779,10.396c-1.641,5.273-3.385,25.592,0.994,21.939   c4.682-4.154,6.703-17.141,6.471-26.195c0.871,0.9,1.926,2.486,1.781,4.85c0,0,1.887-0.219,3.027-1.338   C78.582,63.89,78.977,61.8,76.406,61.003z"/>
	<path d="M53.357,64.306c-10.474,0.512-26.886-0.477-31.692-8.98c-0.603,2.725-0.788,6.887-0.524,11.365   c-0.86-0.908-1.867-2.479-1.727-4.791c0,0-1.889,0.221-3.025,1.34c-1.188,1.17-1.581,3.258,0.986,4.051   c1.98,0.613,3.156,0.797,3.862,0.799c0.627,7.951,2.649,16.531,6.261,19.734c7.432,6.592,25.447,10.463,30.005,0.84   c1.438-3.037,2.062-11.127,2.398-16.699C60.004,70.364,61.08,64.017,53.357,64.306z"/>
	<path d="M80.4,4.933c-1.346,22.415-23.838,13.582-20.676,33.261C60.533,18.783,84.803,32.649,80.4,4.933z"/>
	<path d="M43.056,39.674c0.394,0.298,3.799,3.122,5.033,3.122s4.786-2.745,5.084-2.951c0.297-0.206,0.5-0.535,0.463-0.832   l-0.09-0.702c-0.031-0.253-0.148-0.533-0.514-0.619c-0.625-0.155-2.132-0.583-4.944-0.583s-4.497,0.482-4.785,0.583   c-0.289,0.1-0.484,0.366-0.519,0.619l-0.096,0.702C42.654,39.278,42.792,39.524,43.056,39.674z"/>
	<path d="M27.37,56.073c12.604,7.275,37.421,4.9,42.519-3.279c3.516-5.644-2.902-8.314-9.639-9.547   c0.016-0.051,0.035-0.098,0.035-0.158c0-1.665,0.311-1.479,0.311-1.972c0-0.495-1.914-0.496-1.914,0   c0,0.479,0.291,0.323,0.309,1.834c-1.096-0.311-2.244-0.571-3.385-0.762c-0.16,0.148-0.332,0.291-0.518,0.419l-0.131,0.097   c-3.398,2.518-5.26,3.453-6.868,3.453c-1.678,0-3.481-0.96-6.894-3.67l-0.091-0.072c-0.163-0.11-0.315-0.232-0.458-0.361   c-2.306,0.308-4.583,0.818-6.955,1.721c-4.521,1.704-5.91,5.307-1.089,7.959c9.263,5.349,27.502,3.599,31.249-2.412   c1.143-1.835,0.74-3.244-0.496-4.329c4.527,2.085,5.662,5.948,0.404,8.841c-10.705,6.182-31.787,4.162-36.116-2.786   c-1.821-2.922-0.257-4.917,2.562-6.269c-0.451,0.153-0.899,0.29-1.355,0.464C22.7,47.562,20.808,52.466,27.37,56.073z"/>
</g>
</svg>