<svg xmlns="http://www.w3.org/2000/svg" xmlns:xlink="http://www.w3.org/1999/xlink" version="1.1" id="Calque_1" x="0px" y="0px" width="100px" height="100px" viewBox="0 0 100 100" enable-background="new 0 0 100 100" xml:space="preserve">
<g>
	<path d="M48.379,17.292c3.559,0,6.453-2.895,6.453-6.453s-2.895-6.453-6.453-6.453c-3.558,0-6.452,2.895-6.452,6.453   S44.821,17.292,48.379,17.292z"/>
	<path d="M65.454,26.896H49.822c-1.724,0-3.127,1.402-3.127,3.127v11.368c0,0.132,0.023,0.257,0.039,0.385l0.284,0.036l1.762,0.001   l4.108-1.37c0.254-0.083,0.528-0.063,0.764,0.055c0.238,0.119,0.418,0.327,0.502,0.579c0.072,0.217,0.599,1.928-0.024,3.441h11.324   c1.724,0,3.127-1.402,3.127-3.127V30.023C68.581,28.298,67.178,26.896,65.454,26.896z M54.363,29.455h7.106   c0.314,0,0.568,0.255,0.568,0.568c0,0.314-0.254,0.568-0.568,0.568h-7.106c-0.314,0-0.568-0.254-0.568-0.568   C53.795,29.709,54.049,29.455,54.363,29.455z M49.798,32.296h4.266c0.313,0,0.568,0.255,0.568,0.568   c0,0.314-0.255,0.568-0.568,0.568h-4.266c-0.313,0-0.568-0.254-0.568-0.568C49.229,32.551,49.484,32.296,49.798,32.296z    M59.746,35.138c0.313,0,0.568,0.255,0.568,0.568c0,0.314-0.255,0.568-0.568,0.568h-5.684c-0.314,0-0.568-0.254-0.568-0.568   c0-0.313,0.254-0.568,0.568-0.568H59.746z M49.798,35.138h1.421c0.314,0,0.568,0.255,0.568,0.568c0,0.314-0.254,0.568-0.568,0.568   h-1.421c-0.313,0-0.568-0.254-0.568-0.568C49.229,35.393,49.484,35.138,49.798,35.138z M56.905,39.118h-7.107   c-0.313,0-0.568-0.255-0.568-0.569c0-0.313,0.255-0.568,0.568-0.568h7.107c0.313,0,0.568,0.255,0.568,0.568   C57.474,38.863,57.219,39.118,56.905,39.118z M65.43,39.118h-5.684c-0.314,0-0.568-0.255-0.568-0.569   c0-0.313,0.254-0.568,0.568-0.568h5.684c0.314,0,0.568,0.255,0.568,0.568C65.998,38.863,65.744,39.118,65.43,39.118z M65.43,36.275   h-2.841c-0.314,0-0.568-0.254-0.568-0.568c0-0.313,0.254-0.568,0.568-0.568h2.841c0.314,0,0.568,0.255,0.568,0.568   C65.998,36.021,65.744,36.275,65.43,36.275z M65.43,33.433h-8.525c-0.314,0-0.568-0.254-0.568-0.568   c0-0.313,0.254-0.568,0.568-0.568h8.525c0.314,0,0.568,0.255,0.568,0.568C65.998,33.179,65.744,33.433,65.43,33.433z"/>
	<path d="M51.22,18.655l-0.745,5.968h12.713c-0.852-2.705-1.979-4.547-3.442-4.547h-5.683L51.22,18.655z"/>
	<path d="M47.304,46.153l2.493-0.499h0.568c4.255,0,2.84-4.262,2.84-4.262l-4.263,1.421l-1.986-0.001l-2.439-0.306   c-0.076-0.36-0.119-0.732-0.119-1.115V30.023c0-1.699,0.805-3.199,2.036-4.19l-0.897-7.178l-2.845,1.421h-5.683   c-4.263,0-5.686,15.631-5.683,22.736l-0.003,1.422l0.002,0.001c0.001,2.355,1.906,4.262,4.263,4.262h1.422l-1.422,7.105h1.274   l-4.115,39.789h0.711v1.422h7.814c0-1.107-0.432-2.107-1.123-2.863l7.934-38.35h0.243l-1.37,38.371h0.713v2.842h11.368   c0-2.312-1.84-4.182-4.137-4.252L58.198,55.6h0.126h0.607l-0.609,2.129c1.575,0,2.935-0.861,3.673-2.129h0.592l1.958-8.808H49.798   C48.894,46.792,48.054,46.546,47.304,46.153z"/>
</g>
</svg>