<?xml version="1.0" encoding="utf-8"?>
<!-- Generator: Adobe Illustrator 14.0.0, SVG Export Plug-In . SVG Version: 6.00 Build 43363)  -->
<!DOCTYPE svg PUBLIC "-//W3C//DTD SVG 1.0//EN" "http://www.w3.org/TR/2001/REC-SVG-20010904/DTD/svg10.dtd">
<svg version="1.0" id="Layer_1" xmlns="http://www.w3.org/2000/svg" xmlns:xlink="http://www.w3.org/1999/xlink" x="0px" y="0px"
	 width="100px" height="52.782px" viewBox="0 0 100 52.782" enable-background="new 0 0 100 52.782" xml:space="preserve">
<path d="M96.111,33.793l-2.195-4.209H37.922l1.347-4.205h52.433l-2.192-4.23h-4.65V10.644h-8.316l-5.884,10.505H45.179l-3.432-3.69
	l3.215-10.19h4.366V4.32h-3.432L47.264,0h-2.085l-9.732,17.369h-9.055l-3.933,8.01h8.514l-2.366,4.205h-8.212l-2.085,4.209H0
	l11.959,18.988l0.127-0.006c0.132,0.003,0.264,0.007,0.396,0.007c0.735,0,1.46-0.043,2.175-0.118l0.38-0.017l1.521-0.246
	l0.205-0.066c1.397-0.297,2.742-0.736,4.019-1.301l0.225-0.073l0.246-0.146c1.16-0.549,2.259-1.203,3.287-1.95l0.485-0.288
	l0.071,0.045c2.058,1.56,4.417,2.738,6.977,3.437l0.012,0.005l0.013,0.002c1.457,0.396,2.977,0.637,4.544,0.7l0.114,0.018
	l0.156-0.012c0.189,0.005,0.38,0.012,0.57,0.012c1.274,0,2.52-0.12,3.729-0.342l0.236-0.019l0.208-0.066
	c1.437-0.297,2.819-0.743,4.13-1.323l0.156-0.05l0.182-0.107c1.214-0.564,2.362-1.243,3.434-2.023l0.468-0.275l0.054,0.032
	c2.444,1.856,5.317,3.176,8.445,3.788l0.081,0.025l0.092,0.008c1.228,0.229,2.492,0.353,3.786,0.353
	c0.214,0,0.426-0.007,0.638-0.014l0.175,0.014l0.275-0.032c0.868-0.045,1.722-0.144,2.558-0.294l0.295-0.034l0.172-0.055
	c1.477-0.301,2.895-0.758,4.237-1.356l0.088-0.028l0.101-0.06c1.285-0.589,2.497-1.306,3.623-2.135l0.359-0.212l0.242,0.155
	c1.578,1.175,3.331,2.127,5.213,2.812l0.104,0.047l0.089,0.024c0.91,0.321,1.85,0.578,2.812,0.77l0.136,0.037l0.099,0.008
	c1.227,0.229,2.49,0.353,3.784,0.353c0.213,0,0.425-0.007,0.637-0.014l0.175,0.014l0.155-0.024c1.493-0.069,2.944-0.3,4.337-0.672
	l0.155-0.023L93.094,52c1.435-0.407,2.807-0.964,4.095-1.657l0.139-0.057l0.277-0.177c0.634-0.361,1.248-0.753,1.838-1.177
	L100,48.576v-0.056v-6.202v-8.525H96.111z"/>
</svg>
