<svg xmlns="http://www.w3.org/2000/svg" xmlns:xlink="http://www.w3.org/1999/xlink" version="1.1" id="Layer_1" x="0px" y="0px" width="100.0px" height="100px" viewBox="0 0 360 360" enable-background="new 0 0 360 360" xml:space="preserve">
<path fill="none" d="M190.966,175.763c0,0.107-0.007,0.213-0.009,0.321c1.619,0.296,3.284,0.59,4.991,0.882  c23.028,3.936,27.017-10.795,27.696-15.358l-33.09,10.696C190.82,173.414,190.966,174.571,190.966,175.763z"/>
<path fill="none" d="M176.189,165.797c-3.799,0-7.107,2.137-8.788,5.272c5.075,1.25,11.367,2.673,18.734,4.105  C185.829,169.953,181.486,165.797,176.189,165.797z"/>
<path d="M226.017,185.901l3.437-25.946l-5.67,0.344l-33.977,9.719c-2.242-5.307-7.495-9.031-13.618-9.031  c-6.062,0-11.269,3.651-13.547,8.873c-6.487-1.704-9.993-2.859-9.993-2.859l-11.339-4.295l-4.467-1.547l-7.389,24.743l1.203,0.172  v1.202l-0.859,0.516l1.718,9.965l1.374,2.75l2.749,0.687l87.113-0.344l2.578-12.37l-0.859-0.688l0.172-1.718L226.017,185.901z   M176.189,165.797c5.297,0,9.64,4.155,9.947,9.377c-7.367-1.432-13.659-2.856-18.734-4.105  C169.082,167.935,172.39,165.797,176.189,165.797z M220.703,187.76l-87.784-0.313l0.005-1.25l87.784,0.313L220.703,187.76z   M195.948,176.966c-1.707-0.292-3.372-0.586-4.991-0.882c0.002-0.107,0.009-0.213,0.009-0.321c0-1.192-0.146-2.349-0.411-3.459  l33.09-10.696C222.965,166.17,218.977,180.901,195.948,176.966z"/>
</svg>