<svg xmlns="http://www.w3.org/2000/svg" xmlns:xlink="http://www.w3.org/1999/xlink" version="1.1" id="Layer_1" x="0px" y="0px" width="100px" height="100px" viewBox="0 0 100 100" enable-background="new 0 0 100 100" xml:space="preserve">
<path d="M35.68,59.581c-1.597-1.298-3.942-1.055-5.238,0.544L19.298,73.849c-0.659,0.813-0.948,1.866-0.792,2.902l3.029,20.08  c0.276,1.845,1.866,3.169,3.678,3.169c0.184,0,0.371-0.015,0.56-0.043c2.032-0.308,3.434-2.203,3.126-4.238l-2.784-18.453  L36.222,64.82C37.52,63.223,37.275,60.877,35.68,59.581z"/>
<path d="M49.5,61.776c-1.141-1.71-3.455-2.172-5.164-1.025c-1.712,1.141-2.171,3.454-1.026,5.164l20.878,31.25  c0.719,1.075,1.9,1.656,3.101,1.656c0.712,0,1.431-0.203,2.065-0.63c1.711-1.141,2.17-3.454,1.026-5.163L49.5,61.776z"/>
<circle cx="38.335" cy="25.027" r="7.951"/>
<path d="M85.39,35.856c-0.133-1.47-1.066-2.658-2.336-3.199C79.016,13.847,66.035,0,56.639,0c-0.555,0-1.102,0.048-1.625,0.143  c-0.518,0.094-0.917,0.509-0.99,1.029l-4.821,34.041l-31.083,2.784c-2.128,0.19-3.699,2.07-3.509,4.199  c0.181,2.011,1.868,3.523,3.851,3.523c0.115,0,0.231-0.005,0.35-0.016l30.776-2.757L67.559,75.92  c0.217,0.396,0.631,0.637,1.072,0.637c0.071,0,0.145-0.007,0.218-0.021c4.872-0.883,9.529-6.137,12.457-14.057  c2.606-7.052,3.528-15.191,2.732-23.337C84.96,38.355,85.505,37.154,85.39,35.856z M56.308,2.449  c8.156-0.365,20.194,12.67,24.183,29.961l-28.791,2.579L56.308,2.449z M79.015,61.633c-2.402,6.502-6.081,11.099-9.764,12.29  L52.239,42.71l29.429-2.636C82.311,47.621,81.421,55.123,79.015,61.633z"/>
</svg>