<svg xmlns="http://www.w3.org/2000/svg" xmlns:xlink="http://www.w3.org/1999/xlink" version="1.1" id="Layer_1" x="0px" y="0px" width="100px" height="100px" viewBox="0 0 100 100" enable-background="new 0 0 100 100" xml:space="preserve">
<path d="M57.826,40.333l-6.557-0.948l-0.105-5.818c-0.025-1.346-1.092-2.439-2.437-2.496l-15.792-0.666  c-1.382-0.089-2.59,1.029-2.649,2.434s1.031,2.59,2.434,2.648l13.399,0.566l0.047,2.594l-19.32-2.794  c-1.389-0.197-2.68,0.763-2.883,2.153c-0.2,1.391,0.765,2.682,2.155,2.883l20.142,2.912l0.066,3.662  c0.024,1.39,1.159,2.498,2.543,2.498c0.015,0,0.03,0,0.047,0c1.404-0.025,2.522-1.184,2.499-2.589l-0.053-2.833l5.738,0.83  c0.123,0.018,0.244,0.025,0.365,0.025c1.244,0,2.332-0.912,2.516-2.18C60.182,41.824,59.219,40.533,57.826,40.333z"/>
<path d="M34.02,5.732c-0.173-0.238-0.383-0.455-0.642-0.627c-0.65-0.434-1.424-0.517-2.12-0.313C21.673,1.686,11.458,0,0.856,0  C0.448,0,0.118,0.33,0.118,0.738s0.33,0.74,0.738,0.74c10.077,0,19.801,1.54,28.953,4.396L18.332,23.121  c-0.777,1.17-0.462,2.749,0.708,3.527c0.435,0.289,0.923,0.427,1.408,0.427c0.822,0,1.63-0.398,2.12-1.135L34.085,8.633  c0.24-0.36,0.364-0.76,0.403-1.163c37.268,13.764,63.918,49.716,63.918,91.792c0,0.407,0.33,0.738,0.738,0.738  s0.738-0.331,0.738-0.738C99.883,56.184,72.361,19.433,34.02,5.732z"/>
<circle cx="10.328" cy="17.078" r="5.415"/>
</svg>