<svg xmlns:x="http://ns.adobe.com/Extensibility/1.0/" xmlns:i="http://ns.adobe.com/AdobeIllustrator/10.0/" xmlns:graph="http://ns.adobe.com/Graphs/1.0/" xmlns="http://www.w3.org/2000/svg" xmlns:xlink="http://www.w3.org/1999/xlink" xmlns:a="http://ns.adobe.com/AdobeSVGViewerExtensions/3.0/" version="1.1" baseProfile="basic" id="Calque_1" x="0px" y="0px" width="100px" height="100px" viewBox="0 0 100 100" xml:space="preserve">
<path d="M69.836,21.211c1.596,0.763,3.6,1.12,3.539,3.54c-2.516-3.272-8.186-0.001-7.08,3.775c0.723,2.462,5.844,2.869,7.316,0.472  c0.223-1.022-0.346-2.472,0-2.832c0.836,0.829,0.772,2.168,0.234,3.303c2.733,1.827,5.641,3.483,5.661,8.023  c6.05,1.424,11.347,3.599,11.8,10.618c1.805,1.493,5.2,1.155,6.37,3.067c1.054,1.724-0.049,3.486,0.236,6.37  c-3.283,3.773-3.062,11.684-5.899,16.047c-2.382,3.658-5.041,3.938-10.146,4.954c-1.714,0.341-5.81,2.351-8.022,0.236  c-1.011,1.19-3.47,0.937-5.662,0.942c-2.021,1.281-3.938,2.672-6.136,3.774c-0.83-2.642,1.57-3.88,2.356-5.664  c-2.366,0.388-6.647,0.115-7.784,0.945c0.28-1.136,0.666-2.166,1.416-2.833c6.748,0.387,9.603-2.197,14.157-4.012  c3.541-1.41,6.705-2.102,8.494-4.721c2.65-3.875,3.125-10,7.549-11.796c1.009-0.407,2.824-0.097,3.306-1.181  c-9.694,0.057-8.451,10.797-14.155,14.863c-1.662,1.185-3.271,0.986-6.138,2.125c-2.461,0.979-4.36,2.864-6.606,3.539  c-5.615,1.686-12.396-0.479-17.932-0.474c-3.192,0.007-5.774,0.417-8.258,0.235c-3.814-0.277-6.45-1.942-9.911-3.066  c-2.614-0.852-4.297-0.689-6.134-1.888c-6.235-4.058-4.704-15.854-14.393-14.625c8.826,0.461,7.323,10.958,13.685,15.101  c3.141,2.047,7.037,2.281,10.854,3.54c2.58,0.851,5.144,2.64,9.674,2.357c0.797,0.696,0.942,2.047,1.416,3.065  c-1.522-1.464-5.386-0.59-7.786-1.18c0.049,1.266,3.64,3.363,1.887,5.664c-1.91-0.805-3.634-3.264-6.134-3.775  c-1.845-0.377-3.999,0.596-5.428-0.941c-2.206,2.091-5.794,0.244-8.258-0.236c-4.816-0.941-7.777-1.841-9.91-5.427  c-1.045-1.759-1.823-3.82-2.36-5.9c-0.516-1.997-0.511-4.614-1.416-6.843c-0.409-1.009-1.962-1.764-2.359-2.831  c-0.863-2.319-0.173-5.274,0.472-7.076c2.793-0.197,4.246-1.734,6.607-2.361c0.324-7.147,5.744-9.199,11.797-10.618  c-0.182-4.825,3.202-6.08,5.664-8.259c-0.865-0.608-0.589-2.953,0.473-3.067c-0.446,0.884-0.572,1.996-0.237,3.067  c2.424,2.46,7.291,1.386,7.315-1.887c0.024-3.298-4.749-4.838-7.315-3.303c0.676-1.45,2.018-2.23,3.54-2.832  c1.102,0,2.203,0,3.304,0c1.888,0.628,4.126,0.907,4.955,2.596c2.921-1.592,9.276-1.996,11.562,0.236  c1.958-2.151,9.243-1.894,11.563-0.236c0.461-1.2,3.119-2.006,4.953-2.596C67.635,21.211,68.736,21.211,69.836,21.211z   M66.768,44.57c-6.473,0.929-10.024-6.425-16.517-7.078c-5.145-0.519-8.014,4.061-11.797,5.663  c-2.689,1.138-8.255,1.766-9.675-0.708c-0.14-0.489,0.292-1.55-0.236-1.653c-0.863,4.164,4.101,4.61,6.843,4.249  c5.026-0.666,8.975-6.549,13.921-6.608c7.335-0.085,17.444,14.142,21.944,3.303C70.168,42.519,68.717,44.291,66.768,44.57z   M17.688,57.311c3.542-0.703,4.816-3.679,6.843-5.896C21.446,52.577,20.659,56.037,17.688,57.311z M79.746,57.547  c-3.195-1.13-5.73-2.921-8.023-4.955C72.283,55.425,75.738,57.379,79.746,57.547z"/>
</svg>