<svg xmlns:x="http://ns.adobe.com/Extensibility/1.0/" xmlns:i="http://ns.adobe.com/AdobeIllustrator/10.0/" xmlns:graph="http://ns.adobe.com/Graphs/1.0/" xmlns="http://www.w3.org/2000/svg" xmlns:xlink="http://www.w3.org/1999/xlink" xmlns:a="http://ns.adobe.com/AdobeSVGViewerExtensions/3.0/" version="1.1" baseProfile="basic" id="Calque_1" x="0px" y="0px" width="100px" height="100px" viewBox="0 0 100 100" xml:space="preserve">
<g>
	<g>
		<path fill-rule="evenodd" clip-rule="evenodd" d="M27.8,7c0.08,0,0.16,0,0.24,0c3.782,8.218,8.224,15.776,12,24    c6.381-0.5,13.83,0.07,20.16-0.48C64.254,22.813,68.174,14.973,71.96,7c0.08,0,0.16,0,0.24,0    c7.237,17.172,21.862,33.197,23.04,56.16c0.241,4.696-0.587,8.264-1.68,12.24c-4.015,0.306-9.261-0.621-12.48,0.479    c1.035,1.296,3.424,0.721,5.521,0.721c2.093,0,4.413,0,6.239,0c-0.838,2.361-2.18,4.22-3.84,5.76    c-3.039-0.208-6.306-2.591-8.88-1.681c1.859,1.661,5.277,1.764,7.92,2.641c-1.594,1.446-3.442,2.638-5.52,3.6    c-1.924-0.636-2.944-2.176-5.04-2.64c-0.549,1.868,2.394,1.999,3.359,3.12c-8.327,4.393-19.208,1.431-24-5.04    c-0.794-1.073-1.03-2.364-1.439-3.36c-2.436,3.593-5.646,6.279-10.32,8.641c-6.24,3.151-11.692,4.345-18.96,1.199    c2.201-1.959,5.494-2.825,7.44-5.04c-2.929-0.438-6.17,3.498-9.36,4.561c-2.765-1.155-5.445-2.395-7.92-3.84    c4.169-2.231,10.464-2.337,14.4-4.801c-0.732-1.116-2.44-0.08-3.6,0.24c-3.561,0.982-8.259,2.354-12,3.36    c-3.046-1.754-5.072-4.528-6.96-7.44c6.196-0.872,14.938,0.549,21.12-0.72c-0.593-1.306-3.322-0.72-5.04-0.72    c-5.187,0-11.452,0-16.8,0c-1.154-2.446-1.785-5.415-2.4-8.4c0-2.32,0-4.64,0-6.96C8.612,37.732,20.173,24.333,27.8,7z     M15.08,35.32c5.439-3.361,12.757-4.843,21.36-5.04c-2.758-7.242-5.683-14.318-9.12-20.88C23.27,18.07,18.997,26.517,15.08,35.32z     M63.08,30.28c8.713,0.007,16.575,2.145,21.6,5.04c-4.483-8.396-8.175-17.584-12.72-25.92    C68.947,16.149,65.377,23.614,63.08,30.28z M32.36,61.96c4.751-0.141,4.103-16.594-0.72-15.12    C27.843,48.001,28.048,62.088,32.36,61.96z M72.92,59.8c4.796-0.21,4.04-14.687-0.96-12.96C68.407,48.067,68.26,60.004,72.92,59.8    z M55.64,78.04c2.686-5.315,5.897-10.104,8.641-15.36c-5.681,0.16-12-0.319-17.28,0.24C50.132,67.708,52.521,73.24,55.64,78.04z"/>
		<path fill-rule="evenodd" clip-rule="evenodd" d="M47,92.68c-3.04,0-6.08,0-9.12,0c5.233-1.309,9.748-3.471,13.681-6.479    c0.828-0.634,3.181-3.151,3.6-3.12c-0.026-0.002,2.421,2.446,2.64,2.64c3.234,2.859,6.17,4.809,10.32,6    C61.367,92.327,53.867,92.188,47,92.68z"/>
	</g>
</g>
</svg>