<svg xmlns="http://www.w3.org/2000/svg" xmlns:xlink="http://www.w3.org/1999/xlink" version="1.1" id="Layer_1" x="0px" y="0px" width="100px" height="100px" viewBox="0 0 100 100" enable-background="new 0 0 100 100" xml:space="preserve">
<g>
	<path fill-rule="evenodd" clip-rule="evenodd" d="M68.097,29.563c-0.893-0.333-1.65-0.799-2.491-1.182   c1.225-2.554,2.158-5.044,1.938-8.642c-0.275-4.475-2.172-8.087-4.891-10.825c-3.035-3.057-7.231-5.333-13.103-5.003   c-8.595,0.482-15.943,7.451-15.963,16.646c-0.007,3.152,0.751,5.371,1.938,7.823c-0.624,0.567-1.504,0.882-2.307,1.273   c-1.566-2.871-2.338-6.02-2.215-9.915c0.11-3.444,1.412-6.961,2.861-9.278c2.979-4.764,8.35-8.588,15.225-9.188   c0.967-0.084,1.829-0.076,2.86,0c6.894,0.505,12.396,4.309,15.41,9.096C70.454,15.285,71.635,23.739,68.097,29.563z"/>
	<path fill-rule="evenodd" clip-rule="evenodd" d="M62.099,26.652c-0.605-0.222-1.159-0.495-1.661-0.819   c2.99-7.502-1.993-14.831-9.135-15.373c-3.642-0.277-6.698,0.991-8.858,3.093c-2.566,2.496-4.57,8.171-2.215,12.371   c-0.315,0.478-1.064,0.527-1.476,0.91c-0.942-1.971-1.464-3.542-1.292-6.277c0.4-6.343,5.636-11.371,11.903-11.825   C59.136,8.024,65.884,17.715,62.099,26.652z"/>
	<path fill-rule="evenodd" clip-rule="evenodd" d="M56.562,24.014c-0.29-0.108-0.488-0.307-0.831-0.364   c1.138-2.196,0.478-5.28-0.923-6.822c-3.621-3.989-11.159-1.334-10.519,4.821c0.083,0.803,0.477,1.127,0.461,2.092   c-0.236,0.041-0.424,0.127-0.554,0.272c-0.357-0.258-0.527-0.764-0.646-1.182c-1.231-4.347,1.977-8.4,5.813-8.824   C55.117,13.374,58.949,18.804,56.562,24.014z"/>
	<path fill-rule="evenodd" clip-rule="evenodd" d="M49.642,18.193c1.581-0.352,3.018,0.579,3.229,1.91   c0.583,3.659-5.091,4.06-5.167,0.546C47.674,19.26,48.467,18.454,49.642,18.193z M50.472,22.377   c2.237-0.187,1.966-3.823-0.461-3.457C47.611,19.283,48.324,22.557,50.472,22.377z"/>
	<path fill-rule="evenodd" clip-rule="evenodd" d="M49.826,19.284c0.921-0.259,1.869,0.236,1.938,1.183   c0.137,1.877-2.891,2.193-2.953,0.182C48.79,19.973,49.118,19.483,49.826,19.284z"/>
	<path fill-rule="evenodd" clip-rule="evenodd" d="M80.917,97.615c-1.48-1.302-3.009-2.545-4.577-3.749   c-0.174-0.109-0.354-0.212-0.492-0.355V93.5c-0.036-0.018-0.072-0.034-0.107-0.052l-0.062,0.017l-0.058-0.073   c-0.048-0.023-0.096-0.045-0.144-0.068c-1.173-0.575-2.222-1.537-3.485-1.884c-0.159-0.044-0.259-0.141-0.311-0.256   c-0.141-0.084-0.278-0.166-0.408-0.236c-0.088-0.02-0.175-0.024-0.263-0.039l-0.038,0.01L70.959,90.9   c-0.153-0.024-0.309-0.06-0.459-0.068c-0.254-0.016-0.403-0.183-0.457-0.375c-0.117-0.049-0.236-0.096-0.353-0.145   c-0.077-0.004-0.156-0.022-0.231-0.021c-0.209,0.004-0.343-0.104-0.417-0.244c-0.042-0.017-0.083-0.034-0.125-0.051   c-0.125-0.01-0.249-0.029-0.375-0.037c-0.578-0.037-0.633-0.85-0.164-0.978C62.801,67.213,57.221,45.448,51.764,23.56   c-0.995,0.297-1.957,0.297-2.953,0C43.783,44.088,38.25,64.961,33.125,85.232c-0.279,1.105-0.435,2.27-0.949,3.288   c-0.02,0.045-0.025,0.092-0.041,0.137c0.025,0.152-0.004,0.314-0.103,0.432c-0.014,0.108-0.028,0.217-0.032,0.328   c-0.004,0.156-0.068,0.273-0.16,0.354c0,0.188-0.033,0.343-0.192,0.374c-0.012-0.017-0.024-0.033-0.037-0.05   c-0.081,0.093-0.201,0.155-0.361,0.155c-0.037,0-0.064-0.014-0.097-0.02c-0.014,0.002-0.022,0.012-0.037,0.013   c0.025,0.027,0.05,0.053,0.07,0.084c-0.495,0.118-0.769,0.454-1.292,0.546l-0.108,0.136l-0.169-0.045   c-0.568,0.319-1.094,0.681-1.753,0.909c0.01-0.031,0.037-0.046,0.052-0.072c-1.104,0.809-2.342,1.422-3.397,2.303   c-0.066,0.056-0.136,0.088-0.207,0.105c-0.021,0.019-0.034,0.04-0.061,0.056c-0.301,0.18-0.586,0.381-0.872,0.582   c-1.466,1.228-2.833,2.565-4.092,4.03c20.826-0.055,41.875,0.113,62.555-0.086C81.553,98.385,81.229,98.004,80.917,97.615z    M63.852,83.231c-3.665-2.147-7.972-3.663-12.18-5.275c3.18-1.383,6.668-2.463,9.873-3.82   C62.313,77.167,63.083,80.199,63.852,83.231z M59.884,67.858c-2.762-1.188-5.406-2.493-8.212-3.638   c1.989-1.192,4.482-1.888,6.459-3.093C58.846,63.242,59.387,65.529,59.884,67.858z M55.824,51.576   c0.356,1.681,0.843,3.231,1.199,4.912c-1.959-0.828-3.766-1.806-5.721-2.638c0.473-0.608,1.316-0.738,2.03-1.092   c0.775-0.385,1.537-0.826,2.307-1.183H55.824z M54.993,48.393c-1.354-0.667-2.706-1.334-4.06-2.001   c0.699-0.796,2.008-0.993,2.86-1.638h0.276L54.993,48.393z M46.693,42.498c0.842-1.352,1.099-3.456,1.492-4.993   c0.5-1.954,1.087-3.843,1.106-5.879c0.003-0.271,0.183-0.422,0.389-0.464c-0.014-0.15-0.026-0.299-0.014-0.452   c0.026-0.315,0.284-0.475,0.532-0.479c-0.002-0.01-0.001-0.02-0.004-0.03c0.024,0.006,0.047,0.022,0.068,0.038   c0.227,0.023,0.428,0.175,0.403,0.471c-0.015,0.183,0,0.364,0.022,0.544c0.12,0.049,0.219,0.149,0.252,0.323   c0.346,1.832,1.37,3.656,1.448,5.521c0.074,1.776,0.722,3.761,1.385,5.438c0.094,0.237-0.003,0.417-0.165,0.516   c-0.002,0.024,0.007,0.038,0,0.067c0.021,0.05,0.021,0.081,0.018,0.106c0.093,0.124,0.12,0.29,0.086,0.442   c0.049,0.008,0.086,0.027,0.081,0.088c0.204,0.729-0.969,1.023-1.477,1.273c-0.698,0.344-1.439,0.709-2.03,1   c-0.647-0.188-1.215-0.597-1.845-0.91c-0.598-0.296-1.475-0.415-1.753-1.091c0.001-0.113,0.055-0.175,0.128-0.218   c-0.032-0.145-0.007-0.298,0.075-0.419h-0.019c-0.002-0.089,0.029-0.146,0.056-0.206C46.681,43.074,46.508,42.796,46.693,42.498z    M46.504,44.754c1.04,0.46,1.958,1.041,3.045,1.456c-0.445,0.539-1.185,0.781-1.846,1.092c-0.654,0.307-1.356,0.646-2.03,0.909   C45.876,46.985,46.24,45.919,46.504,44.754z M47.519,47.938c0.996-0.458,2.019-1.152,2.768-1.274   c1.336,0.575,2.746,1.289,4.061,2.001c0.431,0.233,1.052,0.316,0.923,1c-3.423,0.069-6.561-0.143-9.966-0.091   C45.337,48.598,46.655,48.335,47.519,47.938z M45.212,50.121c2.833-0.074,5.49,0.091,8.305,0.091c0.678,0,1.431-0.149,2.029,0.182   c0.154,0.655-0.605,0.812-1.015,1.001c-0.933,0.429-1.715,0.785-2.769,1.273c-0.479,0.222-1.028,0.629-1.384,0.637   c-0.517,0.011-2.167-0.896-2.769-1.183c-0.947-0.451-1.822-0.86-2.583-1.364C45.019,50.476,45.07,50.253,45.212,50.121z    M44.751,51.576c0.825,0.166,1.672,0.707,2.492,1.092c0.753,0.354,1.627,0.579,2.122,1.183c-2.005,0.812-3.802,1.831-5.813,2.638   C43.871,54.771,44.373,53.235,44.751,51.576z M44.382,56.943c1.846-0.876,4.017-1.976,5.905-2.82   c2.396,1.035,4.659,2.199,7.014,3.275c-0.005,0.432,0.336,0.896,0.185,1.182c-4.078-0.232-9.854,0.062-14.487-0.182   C42.975,57.458,43.701,57.267,44.382,56.943z M42.906,59.217c4.987,0.026,10.123-0.094,14.856,0.183   c0.158,0.208,0.088,0.641,0.276,0.818c-1.627,1.021-3.523,1.748-5.536,2.638c-0.544,0.241-1.408,0.809-1.846,0.819   c-0.453,0.011-1.541-0.562-2.122-0.819c-2.004-0.883-4.055-1.869-5.905-2.819C42.688,59.729,42.694,59.373,42.906,59.217z    M42.352,60.945c2.47,0.931,4.619,2.178,7.105,3.093c-0.56,0.609-1.479,0.771-2.214,1.092c-2.168,0.947-4.513,2.025-6.644,3.093   C40.94,65.922,41.839,63.382,42.352,60.945z M40.229,69.224c3.311-1.679,6.871-3.112,10.335-4.64   c3.266,1.42,6.567,2.805,9.688,4.366c0.061,0.607,0.27,1.069,0.369,1.638c-6.914-0.103-14.349-0.214-20.669,0.182   C39.827,70.374,40.206,69.767,40.229,69.224z M39.676,71.588c6.666-0.304,14.748-0.388,21.224-0.091   c0.082,0.556,0.255,1.022,0.369,1.547c-2.584,1.24-5.325,2.142-8.305,3.274c-0.859,0.326-2.083,1-2.861,1.001   c-0.8,0.001-1.879-0.661-2.768-1.001c-2.725-1.042-5.469-1.935-8.028-3.093C39.332,72.583,39.529,72.11,39.676,71.588z    M39.03,74.136c2.993,1.354,6.131,2.566,9.412,3.638c-0.297,0.45-0.918,0.548-1.384,0.729c-3.472,1.34-7.277,2.621-10.243,4.548   C37.332,80.224,38.274,77.028,39.03,74.136z M65.117,89.108c-0.642-0.165-1.249-0.432-1.871-0.652   c-4.235-0.807-8.713-2.01-13.027-1.581c-2.138,0.213-4.199,0.354-6.344,0.469c-2.607,0.14-5.045,0.858-7.555,1.514   c-0.066,0.018-0.127,0.021-0.185,0.016c-0.064,0.052-0.136,0.094-0.199,0.147c-0.489,0.414-1.2-0.29-0.707-0.707   c0.056-0.048,0.119-0.085,0.176-0.132c0.369-1.325,0.681-2.706,1.041-4.04c4.123-2.364,8.883-4.1,13.749-5.731   c4.781,1.927,9.996,3.427,14.025,6.095c0.245,1.235,0.547,2.415,0.889,3.555c0.091,0.027,0.181,0.061,0.273,0.084   C66.007,88.305,65.742,89.27,65.117,89.108z"/>
	<g>
		<path fill-rule="evenodd" clip-rule="evenodd" fill="none" stroke="#000000" stroke-width="0.35" stroke-linecap="round" d="    M41.475,84.369"/>
		<path fill-rule="evenodd" clip-rule="evenodd" fill="none" stroke="#000000" stroke-width="0.35" stroke-linecap="round" d="    M58.639,84.369"/>
	</g>
</g>
<polygon fill-rule="evenodd" clip-rule="evenodd" fill="none" stroke="#000000" stroke-width="0.35" stroke-linecap="round" points="  46.874,43.39 50,29.875 50.298,29.333 53.834,43.39 50.703,29.654 50.298,28.583 49.417,29.25 49.458,29.875 46.458,43.39   45.917,43.556 46.625,43.556 49.875,29.167 "/>
<path fill-rule="evenodd" clip-rule="evenodd" fill="none" stroke="#000000" stroke-width="0.35" stroke-linecap="round" d="  M46.699,44.485c-0.538,1.769-1.077,3.539-1.615,5.308c3.486,0,6.972,0,10.458,0c-0.569-2.134-1.139-4.269-1.708-6.403"/>
<path fill-rule="evenodd" clip-rule="evenodd" d="M67.167,89.291l1.375,0.375c9.063,3.026,13.302,9.125,13.302,9.125"/>
<polygon fill-rule="evenodd" clip-rule="evenodd" points="67.167,88.041 67.792,88.041 68.137,88.041 68.667,90.207 68.084,89.832   65.584,87.124 65.292,87.416 64.966,87.568 65.542,89.749 66.816,89.541 "/>
<path fill-rule="evenodd" clip-rule="evenodd" d="M65.117,89.108c0,0-7.639-2.108-14.898-2.233  c-7.259-0.125-14.592,2.262-14.592,2.262l-0.417,0.613l19.667,1.541l11.776-1.724l-0.401-0.276l-3.005-0.835  c0,0-5.042-1.167-7.497-1.402s-0.79,2.612-0.79,2.612L65.117,89.108z"/>
<polygon fill-rule="evenodd" clip-rule="evenodd" points="35.688,87.124 35.197,88.954 34.917,90 35.303,86.87 33.709,91.291 "/>
<polygon fill-rule="evenodd" clip-rule="evenodd" points="36.042,92.375 37.049,88.666 34.759,89.081 35.904,92.208 32.899,86.213   31.542,90.708 "/>
<path fill-rule="evenodd" clip-rule="evenodd" d="M19.289,98.877c0,0,4.657-6.532,12.435-8.768s-1.806,2.974-1.806,2.974  L19.289,98.877z"/>
<polygon fill-rule="evenodd" clip-rule="evenodd" points="47.188,42.781 46.604,44.799 46.062,43.79 47.066,42.556 "/>
</svg>