<svg xmlns:dc="http://purl.org/dc/elements/1.1/" xmlns:cc="http://creativecommons.org/ns#" xmlns:rdf="http://www.w3.org/1999/02/22-rdf-syntax-ns#" xmlns:svg="http://www.w3.org/2000/svg" xmlns="http://www.w3.org/2000/svg" xmlns:sodipodi="http://sodipodi.sourceforge.net/DTD/sodipodi-0.dtd" xmlns:inkscape="http://www.inkscape.org/namespaces/inkscape" width="100" height="100" id="svg3257" version="1.1" inkscape:version="0.47 r22583" sodipodi:docname="New document 14">
  <defs id="defs3259">
    <inkscape:perspective sodipodi:type="inkscape:persp3d" inkscape:vp_x="0 : 526.18109 : 1" inkscape:vp_y="0 : 1000 : 0" inkscape:vp_z="744.09448 : 526.18109 : 1" inkscape:persp3d-origin="372.04724 : 350.78739 : 1" id="perspective3265"/>
    <inkscape:perspective id="perspective3275" inkscape:persp3d-origin="0.5 : 0.33333333 : 1" inkscape:vp_z="1 : 0.5 : 1" inkscape:vp_y="0 : 1000 : 0" inkscape:vp_x="0 : 0.5 : 1" sodipodi:type="inkscape:persp3d"/>
  </defs>
  <sodipodi:namedview id="base" pagecolor="#ffffff" bordercolor="#666666" borderopacity="1.0" inkscape:pageopacity="0.0" inkscape:pageshadow="2" inkscape:zoom="2.49" inkscape:cx="50" inkscape:cy="55.81686" inkscape:document-units="px" inkscape:current-layer="layer1" showgrid="false" inkscape:window-width="1097" inkscape:window-height="766" inkscape:window-x="329" inkscape:window-y="34" inkscape:window-maximized="0"/>
  <metadata id="metadata3262">
    <rdf:RDF>
      <cc:Work rdf:about="">
        <dc:format>image/svg+xml</dc:format>
        <dc:type rdf:resource="http://purl.org/dc/dcmitype/StillImage"/>
        <dc:title/>
      </cc:Work>
    </rdf:RDF>
  </metadata>
  <g inkscape:label="Layer 1" inkscape:groupmode="layer" id="layer1" transform="translate(0,-952.36218)">
    <g transform="matrix(0.50378088,0,0,0.50378044,-55.458214,773.05846)" id="Deadlift">
      <g id="g2967">
        <polyline points="290.75,453.416 290.75,464.083 127.75,464.083 127.75,453.416 290.75,453.416    " id="polyline2969"/>
        <path d="m 143.75,485.75 c 0,3.313 -2.687,6 -6,6 h -4 c -3.314,0 -6,-2.687 -6,-6 v -52 c 0,-3.314 2.686,-6 6,-6 h 4 c 3.313,0 6,2.686 6,6 v 52 z" id="path2971"/>
        <path d="m 121.75,477.916 c 0,3.222 -2.612,5.834 -5.833,5.834 l 0,0 c -3.222,0 -5.833,-2.612 -5.833,-5.834 v -36.333 c 0,-3.222 2.611,-5.833 5.833,-5.833 l 0,0 c 3.222,0 5.833,2.611 5.833,5.833 v 36.333 z" id="path2973"/>
        <path d="m 274.916,433.75 c 0,-3.313 2.687,-6 6,-6 h 4 c 3.314,0 6,2.687 6,6 v 52 c 0,3.313 -2.686,6 -6,6 h -4 c -3.313,0 -6,-2.687 -6,-6 v -52 z" id="path2975"/>
        <path d="m 296.917,441.583 c 0,-3.222 2.611,-5.833 5.833,-5.833 l 0,0 c 3.222,0 5.833,2.611 5.833,5.833 v 36.333 c 0,3.222 -2.611,5.834 -5.833,5.834 l 0,0 c -3.222,0 -5.833,-2.612 -5.833,-5.834 v -36.333 z" id="path2977"/>
      </g>
      <circle d="m 221.66699,379.41599 c 0,6.81188 -5.52212,12.33399 -12.334,12.33399 -6.81188,0 -12.334,-5.52211 -12.334,-12.33399 0,-6.81188 5.52212,-12.334 12.334,-12.334 6.81188,0 12.334,5.52212 12.334,12.334 z" sodipodi:ry="12.334" sodipodi:rx="12.334" sodipodi:cy="379.41599" sodipodi:cx="209.33299" cx="209.33299" cy="379.41599" r="12.334" id="circle2979"/>
      <path d="m 207.333,469.583 h 4 l 5,67.333 c 0,0 3,6.334 10,6.334 7,0 9.667,-7 9.667,-7 l -11.5,-87.667 7.167,-29 c 0,0 13.5,35.5 15.25,42.25 1.75,6.75 11.75,3.5 11.75,-2.75 0,-9.014 -19.5,-56.5 -22.5,-59.5 -3,-3 -11.667,-7.5 -11.667,-7.5 0,0 -8.167,7.167 -15.167,7.167 -0.223,0 -0.445,-0.006 -0.667,-0.016" id="path2981"/>
      <path d="m 211.666,469.583 h -4 l -5,67.333 c 0,0 -3,6.334 -10,6.334 -7,0 -9.667,-7 -9.667,-7 l 11.5,-87.667 -7.167,-29 c 0,0 -13.5,35.5 -15.25,42.25 -1.75,6.75 -11.75,3.5 -11.75,-2.75 0,-9.014 18.833,-55.833 22.5,-59.5 3.667,-3.667 11.667,-7.5 11.667,-7.5 0,0 8.167,7.167 15.167,7.167" id="path2983"/>
    </g>
  </g>
</svg>