<svg xmlns:dc="http://purl.org/dc/elements/1.1/" xmlns:cc="http://creativecommons.org/ns#" xmlns:rdf="http://www.w3.org/1999/02/22-rdf-syntax-ns#" xmlns:svg="http://www.w3.org/2000/svg" xmlns="http://www.w3.org/2000/svg" xmlns:sodipodi="http://sodipodi.sourceforge.net/DTD/sodipodi-0.dtd" xmlns:inkscape="http://www.inkscape.org/namespaces/inkscape" width="100" height="100" id="svg3337" version="1.1" inkscape:version="0.47 r22583" sodipodi:docname="New document 17">
  <defs id="defs3339">
    <inkscape:perspective sodipodi:type="inkscape:persp3d" inkscape:vp_x="0 : 526.18109 : 1" inkscape:vp_y="0 : 1000 : 0" inkscape:vp_z="744.09448 : 526.18109 : 1" inkscape:persp3d-origin="372.04724 : 350.78739 : 1" id="perspective3345"/>
    <inkscape:perspective id="perspective3275" inkscape:persp3d-origin="0.5 : 0.33333333 : 1" inkscape:vp_z="1 : 0.5 : 1" inkscape:vp_y="0 : 1000 : 0" inkscape:vp_x="0 : 0.5 : 1" sodipodi:type="inkscape:persp3d"/>
    <inkscape:perspective id="perspective3409" inkscape:persp3d-origin="0.5 : 0.33333333 : 1" inkscape:vp_z="1 : 0.5 : 1" inkscape:vp_y="0 : 1000 : 0" inkscape:vp_x="0 : 0.5 : 1" sodipodi:type="inkscape:persp3d"/>
  </defs>
  <sodipodi:namedview id="base" pagecolor="#ffffff" bordercolor="#666666" borderopacity="1.0" inkscape:pageopacity="0.0" inkscape:pageshadow="2" inkscape:zoom="2.77" inkscape:cx="50" inkscape:cy="50" inkscape:document-units="px" inkscape:current-layer="layer1" showgrid="false" showguides="true" inkscape:guide-bbox="true" inkscape:window-width="1006" inkscape:window-height="802" inkscape:window-x="349" inkscape:window-y="54" inkscape:window-maximized="0"/>
  <metadata id="metadata3342">
    <rdf:RDF>
      <cc:Work rdf:about="">
        <dc:format>image/svg+xml</dc:format>
        <dc:type rdf:resource="http://purl.org/dc/dcmitype/StillImage"/>
        <dc:title/>
      </cc:Work>
    </rdf:RDF>
  </metadata>
  <g inkscape:label="Layer 1" inkscape:groupmode="layer" id="layer1" transform="translate(0,-952.36218)">
    <g transform="matrix(0.50377834,0,0,0.50377531,-259.06801,761.93624)" id="Squat">
      <g id="g2986">
        <g id="g2988">
          <g id="g2990">
            <path d="m 520.084,418.667 c -3.223,0 -5.834,2.611 -5.834,5.833 v 36.333 c 0,3.222 2.611,5.834 5.834,5.834 3.221,0 5.833,-2.612 5.833,-5.834 V 424.5 c 0,-3.222 -2.612,-5.833 -5.833,-5.833 z" id="path2992"/>
            <path d="m 689.083,410.667 h -4 c -3.313,0 -6,2.687 -6,6 v 19.667 h -15.685 c -0.595,-0.142 -1.287,-0.146 -2.093,0 h -29.304 c -1.561,-0.94 -2.668,-1.584 -2.668,-1.584 0,0 -0.76,0.664 -2.004,1.584 h -26.465 c -1.244,-0.92 -2.004,-1.584 -2.004,-1.584 0,0 -1.107,0.644 -2.668,1.584 h -29.306 c -0.806,-0.146 -1.498,-0.142 -2.093,0 h -16.878 v -19.667 c 0,-3.313 -2.687,-6 -6,-6 h -4 c -3.313,0 -6,2.687 -6,6 V 436.334 447 468.667 c 0,3.313 2.687,6 6,6 h 4 c 3.313,0 6,-2.687 6,-6 V 447 h 13.968 c 1.969,7.717 7.697,22.466 13.559,29.5 6.1,-2.164 16.25,-14.25 16.25,-14.25 l 7.168,29 c 0,0 -21.001,-5 -32.001,0.667 -2,8 7.667,44.333 7.667,44.333 0,0 2.666,7 9.666,7 7,0 6.334,-7.666 6.334,-7.666 l -7.667,-27.667 19,4.333 h 10.307 3.86 10.307 l 19,-4.333 -7.666,27.667 c 0,0 -0.667,7.666 6.333,7.666 7,0 9.667,-7 9.667,-7 0,0 9.666,-36.333 7.666,-44.333 -11,-5.667 -32,-0.667 -32,-0.667 l 7.166,-29 c 0,0 10.15,12.086 16.25,14.25 5.861,-7.034 11.59,-21.783 13.56,-29.5 h 12.773 v 21.667 c 0,3.313 2.687,6 6,6 h 4 c 3.314,0 6,-2.687 6,-6 v -52 c 10e-4,-3.313 -2.685,-6 -5.999,-6 z m -111.64,46.083 c 0,0 -2.018,-4.687 -4.271,-9.75 h 10.571 c -2.831,4.24 -6.3,9.75 -6.3,9.75 z m 73.307,0 c 0,0 -3.469,-5.51 -6.301,-9.75 h 10.571 c -2.252,5.063 -4.27,9.75 -4.27,9.75 z" id="path2994"/>
            <path d="m 706.916,418.667 c -3.221,0 -5.832,2.611 -5.832,5.833 v 36.333 c 0,3.222 2.611,5.834 5.832,5.834 3.223,0 5.834,-2.612 5.834,-5.834 V 424.5 c 0,-3.222 -2.611,-5.833 -5.834,-5.833 z" id="path2996"/>
            <circle d="m 626.35998,422.08301 c 0,6.81133 -5.52167,12.333 -12.333,12.333 -6.81133,0 -12.333,-5.52167 -12.333,-12.333 0,-6.81133 5.52167,-12.333 12.333,-12.333 6.81133,0 12.333,5.52167 12.333,12.333 z" sodipodi:ry="12.333" sodipodi:rx="12.333" sodipodi:cy="422.08301" sodipodi:cx="614.02698" cx="614.02698" cy="422.08301" r="12.333" id="circle2998"/>
          </g>
        </g>
      </g>
    </g>
  </g>
</svg>