<svg xmlns:dc="http://purl.org/dc/elements/1.1/" xmlns:cc="http://creativecommons.org/ns#" xmlns:rdf="http://www.w3.org/1999/02/22-rdf-syntax-ns#" xmlns:svg="http://www.w3.org/2000/svg" xmlns="http://www.w3.org/2000/svg" xmlns:sodipodi="http://sodipodi.sourceforge.net/DTD/sodipodi-0.dtd" xmlns:inkscape="http://www.inkscape.org/namespaces/inkscape" width="100" height="100" id="svg3501" version="1.1" inkscape:version="0.47 r22583" sodipodi:docname="Benchpress.svg">
  <defs id="defs3503"/>
  <sodipodi:namedview id="base" pagecolor="#ffffff" bordercolor="#666666" borderopacity="1.0" inkscape:pageopacity="0.0" inkscape:pageshadow="2" inkscape:zoom="1" inkscape:cx="18.613221" inkscape:cy="60.41526" inkscape:document-units="px" inkscape:current-layer="layer1" showgrid="false" inkscape:window-width="873" inkscape:window-height="785" inkscape:window-x="369" inkscape:window-y="74" inkscape:window-maximized="0"/>
  <metadata id="metadata3506">
    <rdf:RDF>
      <cc:Work rdf:about="">
        <dc:format>image/svg+xml</dc:format>
        <dc:type rdf:resource="http://purl.org/dc/dcmitype/StillImage"/>
        <dc:title/>
      </cc:Work>
    </rdf:RDF>
  </metadata>
  <g inkscape:label="Layer 1" inkscape:groupmode="layer" id="layer1" transform="translate(0,-952.36218)">
    <path style="fill:#000000;stroke:none" d="m 38.03125,12.46875 c -2.756014,0.278217 -4.90625,2.605732 -4.90625,5.4375 l 0,57.0625 c 0,3.020553 2.448197,5.46875 5.46875,5.46875 l 22.625,0 c 3.020553,0 5.46875,-2.448197 5.46875,-5.46875 l 0,-57.0625 c 0,-3.020553 -2.448197,-5.4375 -5.46875,-5.4375 l -22.625,0 c -0.188785,0 -0.378766,-0.01855 -0.5625,0 z m 2.25,4.9375 19.25,0 c 1.13172,0 2.03125,0.93078 2.03125,2.0625 l 0,53.59375 c 0,1.13172 -0.89953,2.0625 -2.03125,2.0625 l -19.25,0 C 39.14953,75.125 38.25,74.19422 38.25,73.0625 l 0,-53.59375 c 0,-1.13172 0.89953,-2.0625 2.03125,-2.0625 z" transform="translate(0,952.36218)" id="rect3606" sodipodi:nodetypes="ccccccccccccccccccc"/>
    <g transform="matrix(0.50377834,0,0,0.50377834,-260.57935,931.57956)" id="Benchpress">
      <path d="m 692.083,85.688 h -4 c -3.313,0 -6,2.687 -6,6 v 19.667 H 550.916 V 91.688 c 0,-3.313 -2.686,-6 -6,-6 h -4 c -3.312,0 -6,2.687 -6,6 v 19.667 10.667 21.667 c 0,3.313 2.688,6 6,6 h 4 c 3.314,0 6,-2.687 6,-6 v -21.667 h 131.167 v 21.667 c 0,3.313 2.687,6 6,6 h 4 c 3.314,0 6,-2.687 6,-6 v -52 c 0,-3.315 -2.686,-6.001 -6,-6.001 z" id="path3020"/>
      <path d="m 704.084,99.521 c 0,-3.222 2.611,-5.834 5.832,-5.834 l 0,0 c 3.223,0 5.834,2.612 5.834,5.834 v 36.333 c 0,3.222 -2.611,5.834 -5.834,5.834 l 0,0 c -3.221,0 -5.832,-2.612 -5.832,-5.834 V 99.521 z" id="path3022"/>
      <path d="m 528.916,135.854 c 0,3.222 -2.611,5.834 -5.832,5.834 l 0,0 c -3.223,0 -5.834,-2.612 -5.834,-5.834 V 99.521 c 0,-3.222 2.611,-5.834 5.834,-5.834 l 0,0 c 3.221,0 5.832,2.612 5.832,5.834 v 36.333 z" id="path3024"/>
      <circle d="m 629.36098,97.103996 c 0,6.811884 -5.52212,12.334004 -12.334,12.334004 -6.81188,0 -12.334,-5.52212 -12.334,-12.334004 0,-6.81188 5.52212,-12.333999 12.334,-12.333999 6.81188,0 12.334,5.522119 12.334,12.333999 z" sodipodi:ry="12.334" sodipodi:rx="12.334" sodipodi:cy="97.103996" sodipodi:cx="617.02698" cx="617.02698" cy="97.103996" r="12.334" id="circle3026"/>
      <g id="g3028">
        <g id="g3030">
          <path d="m 669.334,117.521 c -0.75,-4.75 0,-8.75 -7,-8.75 -7,0 -6,5 -6,5 0,0 -11.75,4.5 -13,3.5 -3.313,-2.65 -11.668,-7.5 -11.668,-7.5 0,0 -8.166,7.167 -15.166,7.167 -0.041,0 -0.083,-0.002 -0.124,-0.003 l -0.013,-0.679 c -0.223,0.01 -0.445,0.015 -0.668,0.015 -7,0 -15.166,-7.166 -15.166,-7.166 0,0 -8.354,4.85 -11.668,7.5 -1.25,1 -13,-3.5 -13,-3.5 0,0 1,-5 -6,-5 -7,0 -6.25,4 -7,8.75 -0.531,3.368 6.5,19.75 11,16 4.5,-3.75 19.5,3.75 19.5,3.75 l 7.168,29 c 0,0 -6.668,22.208 -6.668,28.5 0,6.292 -1.125,19.375 5.875,19.375 7,0 9.375,-6.875 9.375,-6.875 l 1.875,-6.875 4.94,-9.666 5.282,10.333 1.875,6.875 c 0,0 2.375,6.875 9.375,6.875 7,0 5.875,-13.083 5.875,-19.375 0,-6.292 -6.668,-28.5 -6.668,-28.5 l 7.168,-29 c 0,0 15,-7.5 19.5,-3.75 4.5,3.75 11.532,-12.632 11.001,-16.001 z" id="path3032"/>
        </g>
      </g>
    </g>
  </g>
</svg>