<svg xmlns="http://www.w3.org/2000/svg" xmlns:xlink="http://www.w3.org/1999/xlink" version="1.1" id="Layer_1" x="0px" y="0px" width="60px" height="60px" viewBox="0 0 60 60" enable-background="new 0 0 60 60" xml:space="preserve">
<path d="M27.181,12.406L16.918,22.631c0,0,0,0-0.002,0.002c-0.287,0.288-0.443,0.683-0.433,1.09l0.066,2.141  c-0.088-0.012-0.167-0.049-0.258-0.046c-0.915,0.021-1.642,0.784-1.619,1.699l0.072,2.89c0.021,0.918,0.782,1.641,1.701,1.616  c0.102-0.002,0.19-0.043,0.289-0.064l0.06,1.932c0.011,0.374,0.165,0.731,0.43,0.998l13.529,13.528c0.576,0.576,1.51,0.576,2.086,0  l15.173-15.173c0.578-0.577,0.577-1.512,0-2.088L29.265,12.409C28.69,11.833,27.758,11.831,27.181,12.406z M43.839,32.702  c0.005,0.374-0.296,0.677-0.671,0.68l-9.362,0.051l0.051,9.363c0.001,0.372-0.298,0.676-0.672,0.677  c-0.375,0.004-0.677-0.298-0.678-0.669l-0.051-9.364l-9.363,0.052c-0.375,0-0.678-0.299-0.679-0.674  c-0.002-0.373,0.3-0.678,0.669-0.678l9.366-0.053l-0.052-9.363c-0.001-0.373,0.299-0.677,0.672-0.679  c0.374-0.004,0.677,0.299,0.679,0.672l0.051,9.363l9.362-0.051C43.537,32.027,43.839,32.328,43.839,32.702z M29.66,18.291  l-5.698,5.698c-0.638,0.638-1.862,0.449-2.734-0.424c-0.872-0.871-1.061-2.097-0.422-2.734l5.697-5.698  c0.638-0.638,1.863-0.448,2.734,0.423C30.11,16.429,30.3,17.652,29.66,18.291z"/>
</svg>