<?xml version="1.0" encoding="utf-8"?>
<!-- Generator: Adobe Illustrator 14.0.0, SVG Export Plug-In . SVG Version: 6.00 Build 43363)  -->
<!DOCTYPE svg PUBLIC "-//W3C//DTD SVG 1.0//EN" "http://www.w3.org/TR/2001/REC-SVG-20010904/DTD/svg10.dtd">
<svg version="1.0" id="Layer_1" xmlns="http://www.w3.org/2000/svg" xmlns:xlink="http://www.w3.org/1999/xlink" x="0px" y="0px"
	 width="100px" height="49.896px" viewBox="0 0 100 49.896" enable-background="new 0 0 100 49.896" xml:space="preserve">
<path fill-rule="evenodd" clip-rule="evenodd" d="M89.246,39.297H100V0H31.951v6.746h-9.34c-3.82,0-6.197,0-7.777,5.325
	l-2.604,10.389H6.154c-2.98,0-2.98,0-2.98,2.907c0,4.639,0,9.277,0,13.931H0v3.215h11.399c0.595,4.394,3.354,7.384,7.716,7.384
	c4.333,0,7.272-3.059,8.25-7.384h4.585v-3.215h40.103c-0.079,0.419-0.115,1.313-0.115,1.768c0,4.87,3.928,8.831,8.744,8.831
	c4.812,0,8.729-3.961,8.729-8.831C89.412,40.517,89.351,39.81,89.246,39.297"/>
</svg>
