<svg xmlns="http://www.w3.org/2000/svg" xmlns:xlink="http://www.w3.org/1999/xlink" version="1.1" id="Layer_1" x="0px" y="0px" width="100px" height="100px" viewBox="0 0 100 100" enable-background="new 0 0 100 100" xml:space="preserve">
<g>
	<path d="M71.9,59.185c0-4.275,3.466-7.743,7.742-7.743c4.277,0,7.742,3.468,7.742,7.743s-3.465,7.742-7.742,7.742   C75.366,66.927,71.9,63.46,71.9,59.185L71.9,59.185z M74.744,59.185c0,2.706,2.193,4.897,4.898,4.897   c2.704,0,4.899-2.191,4.899-4.897c0-2.707-2.195-4.898-4.899-4.898C76.938,54.286,74.744,56.478,74.744,59.185L74.744,59.185z    M84.412,59.185c0,2.634-2.135,4.769-4.77,4.769c-2.414,0-4.409-1.793-4.726-4.121c0.41,2.174,2.361,3.818,4.707,3.818   c2.575,0,4.674-1.981,4.784-4.466H84.412L84.412,59.185z M83.564,57.339c0.264,0.56,0.412,1.186,0.412,1.846   c0,2.393-1.941,4.333-4.334,4.333c-2.394,0-4.333-1.94-4.333-4.333c0-0.634,0.136-1.233,0.378-1.775   c0.606-1.592,2.148-2.724,3.953-2.724C81.417,54.686,82.938,55.782,83.564,57.339L83.564,57.339z M79.643,54.959   c-2.334,0-4.224,1.893-4.224,4.226s1.89,4.224,4.224,4.224s4.225-1.891,4.225-4.224S81.977,54.959,79.643,54.959L79.643,54.959z    M77.377,59.483l0.95,0.152c0.097,0.298,0.299,0.563,0.588,0.738c0.293,0.176,0.627,0.229,0.939,0.172l0.576,0.763   c0.044,0.075,0.123,0.109,0.181,0.076l0.322-0.18c0.06-0.033,0.072-0.117,0.033-0.192l-0.344-0.896   c0.057-0.063,0.106-0.132,0.151-0.206c0.308-0.512,0.237-1.143-0.128-1.574l0.373-0.881c0.045-0.073,0.032-0.159-0.024-0.194   l-0.315-0.188c-0.058-0.034-0.142-0.004-0.184,0.068l-0.605,0.744c-0.549-0.113-1.134,0.123-1.438,0.631   c-0.048,0.076-0.086,0.158-0.115,0.24l-0.95,0.117c-0.085-0.001-0.154,0.051-0.154,0.117l-0.007,0.37   C77.226,59.427,77.292,59.482,77.377,59.483L77.377,59.483z M82.104,59.274c-0.016,0.468-0.166,0.917-0.42,1.295l0.821,0.557   c0.36-0.532,0.569-1.159,0.593-1.815L82.104,59.274L82.104,59.274z M79.038,56.182l0.333,0.71c0.045,0.108,0.07,0.156,0.154,0.156   h0.233c0.085,0,0.109-0.048,0.154-0.156l0.331-0.71c0-0.085-0.067-0.153-0.155-0.153h-0.895   C79.108,56.028,79.038,56.097,79.038,56.182L79.038,56.182z M76.602,58.829l0.622-0.075c0.041-0.021,0.092-0.034,0.153-0.037   l0.155-0.019c0.021-0.014,0.032-0.034,0.042-0.064l0.072-0.221c0.027-0.081-0.012-0.119-0.099-0.195l-0.574-0.535   c-0.083-0.026-0.17,0.019-0.196,0.1l-0.275,0.852C76.474,58.716,76.52,58.805,76.602,58.829L76.602,58.829z M78.366,61.967   l0.148-0.769c0.027-0.114,0.036-0.167-0.034-0.218l-0.188-0.137c-0.068-0.051-0.115-0.025-0.217,0.035l-0.686,0.38   c-0.05,0.07-0.034,0.168,0.034,0.217l0.725,0.526C78.217,62.053,78.313,62.038,78.366,61.967L78.366,61.967z M81.896,61.259   l-0.687-0.38c-0.066-0.039-0.108-0.063-0.151-0.062l0.051,0.132c0.104,0.208-0.069,0.426-0.285,0.529l0.097,0.488   c0.052,0.071,0.148,0.086,0.217,0.035l0.724-0.526C81.93,61.427,81.944,61.329,81.896,61.259L81.896,61.259z M82.312,57.683   l-0.574,0.535c-0.089,0.076-0.126,0.114-0.1,0.195l0.073,0.221c0.024,0.082,0.08,0.091,0.195,0.101l0.778,0.095   c0.081-0.024,0.126-0.113,0.1-0.195l-0.277-0.851C82.482,57.701,82.394,57.656,82.312,57.683L82.312,57.683z M80.485,56.873   l0.068,0.027c0.083-0.021,0.192,0.006,0.349,0.088c0.223,0.107,0.312,0.205,0.32,0.312c0.135,0.112,0.256,0.237,0.363,0.374   l0.783-0.61c-0.394-0.506-0.929-0.9-1.545-1.123L80.485,56.873L80.485,56.873z M77.699,57.673c0.289-0.367,0.674-0.643,1.104-0.8   l-0.338-0.934c-0.604,0.221-1.144,0.604-1.548,1.121L77.699,57.673L77.699,57.673z M77.6,60.567   c-0.2-0.295-0.329-0.628-0.387-0.973c-0.081-0.047-0.144-0.125-0.142-0.236c0-0.027,0-0.053-0.001-0.082l-0.884,0.031   c0.023,0.64,0.223,1.272,0.59,1.816L77.6,60.567L77.6,60.567z M80.321,61.558c-0.449,0.129-0.921,0.125-1.359-0.002l-0.276,0.955   c0.617,0.178,1.281,0.183,1.91,0.002L80.321,61.558L80.321,61.558z M75.968,59.185c0-0.358,0.052-0.703,0.146-1.031l0.206,0.036   c0.108,0.021,0.159,0.029,0.167,0.004l0.022-0.069c0.008-0.025-0.037-0.047-0.138-0.095l-0.188-0.091   c0.499-1.383,1.806-2.381,3.346-2.426l0.032,0.204c0.013,0.111,0.021,0.16,0.048,0.16h0.072c0.026,0,0.032-0.049,0.048-0.16   l0.03-0.204c1.542,0.047,2.845,1.048,3.342,2.432l-0.187,0.09c-0.103,0.048-0.146,0.071-0.139,0.097l0.023,0.069   c0.008,0.026,0.059,0.018,0.167-0.004l0.203-0.035c0.095,0.324,0.146,0.668,0.146,1.023c0,1.181-0.56,2.234-1.427,2.904   l-0.144-0.147c-0.076-0.082-0.111-0.116-0.134-0.102l-0.058,0.043c-0.022,0.016,0.001,0.061,0.055,0.159l0.097,0.183   c-0.59,0.399-1.299,0.633-2.063,0.633c-0.768,0-1.479-0.234-2.069-0.636l0.098-0.184c0.054-0.099,0.076-0.144,0.054-0.158   l-0.058-0.043c-0.021-0.017-0.058,0.019-0.135,0.101l-0.144,0.146C76.524,61.414,75.968,60.363,75.968,59.185L75.968,59.185z    M79.258,58.477c0.397-0.211,0.891-0.06,1.101,0.337c0.211,0.396,0.061,0.889-0.337,1.1c-0.396,0.211-0.889,0.062-1.102-0.336   C78.709,59.18,78.862,58.688,79.258,58.477L79.258,58.477z M12.853,59.185c0-4.275,3.467-7.743,7.743-7.743   s7.742,3.468,7.742,7.743s-3.466,7.742-7.742,7.742S12.853,63.46,12.853,59.185L12.853,59.185z M15.807,59.185   c0,2.706,2.192,4.897,4.898,4.897c2.705,0,4.9-2.191,4.9-4.897c0-2.707-2.195-4.898-4.9-4.898   C18,54.286,15.807,56.478,15.807,59.185L15.807,59.185z M25.475,59.185c0,2.634-2.135,4.769-4.77,4.769   c-2.415,0-4.409-1.793-4.725-4.121c0.41,2.174,2.362,3.818,4.708,3.818c2.574,0,4.673-1.981,4.782-4.466H25.475L25.475,59.185z    M16.751,57.409c0.606-1.592,2.147-2.724,3.952-2.724c1.778,0,3.298,1.097,3.923,2.653c0.265,0.56,0.414,1.186,0.414,1.846   c0,2.393-1.941,4.333-4.334,4.333c-2.393,0-4.333-1.94-4.333-4.333C16.372,58.551,16.508,57.951,16.751,57.409L16.751,57.409z    M20.705,54.959c-2.333,0-4.223,1.893-4.223,4.226s1.89,4.224,4.223,4.224c2.333,0,4.223-1.891,4.223-4.224   S23.039,54.959,20.705,54.959L20.705,54.959z M17.032,59.185c0-0.358,0.051-0.703,0.146-1.031l0.205,0.036   c0.11,0.021,0.16,0.029,0.168,0.004l0.022-0.069c0.008-0.025-0.036-0.047-0.137-0.095l-0.186-0.091   c0.499-1.383,1.803-2.381,3.346-2.426l0.03,0.204c0.014,0.111,0.022,0.16,0.047,0.16h0.074c0.026,0,0.033-0.049,0.048-0.16   l0.03-0.204c1.542,0.047,2.845,1.048,3.341,2.432l-0.187,0.09c-0.101,0.048-0.146,0.071-0.137,0.097l0.022,0.069   c0.008,0.026,0.058,0.018,0.167-0.004l0.206-0.035c0.092,0.324,0.144,0.668,0.144,1.023c0,1.181-0.56,2.234-1.426,2.904   l-0.144-0.147c-0.076-0.082-0.111-0.116-0.133-0.102l-0.059,0.043c-0.022,0.016,0.001,0.061,0.055,0.159l0.097,0.183   c-0.588,0.399-1.299,0.633-2.064,0.633c-0.767,0-1.479-0.234-2.068-0.636l0.097-0.184c0.053-0.099,0.076-0.144,0.054-0.158   l-0.058-0.043c-0.023-0.017-0.058,0.019-0.134,0.101l-0.143,0.146C17.587,61.414,17.032,60.363,17.032,59.185L17.032,59.185z    M21.385,61.558c-0.448,0.129-0.921,0.125-1.361-0.002l-0.275,0.955c0.618,0.178,1.28,0.183,1.911,0.002L21.385,61.558   L21.385,61.558z M18.664,60.567c-0.263-0.387-0.405-0.838-0.42-1.295l-0.992,0.035c0.021,0.64,0.221,1.272,0.587,1.816   L18.664,60.567L18.664,60.567z M18.764,57.673c0.102-0.13,0.215-0.248,0.337-0.354c0.015-0.106,0.097-0.206,0.278-0.303   c0.184-0.106,0.303-0.138,0.396-0.108c0.03-0.012,0.061-0.023,0.092-0.035l-0.338-0.934c-0.604,0.221-1.145,0.604-1.549,1.121   L18.764,57.673L18.764,57.673z M21.549,56.873c0.438,0.161,0.819,0.441,1.1,0.802l0.784-0.61c-0.396-0.506-0.93-0.9-1.545-1.123   L21.549,56.873L21.549,56.873z M23.375,57.683l-0.573,0.535c-0.089,0.076-0.126,0.114-0.101,0.195l0.073,0.221   c0.008,0.028,0.02,0.047,0.036,0.061l0.135,0.017c0.051,0.002,0.095,0.014,0.135,0.037l0.667,0.081   c0.081-0.024,0.126-0.113,0.101-0.195l-0.277-0.851C23.544,57.701,23.456,57.656,23.375,57.683L23.375,57.683z M22.958,61.259   l-0.686-0.38c-0.101-0.061-0.147-0.086-0.217-0.035l-0.188,0.137c-0.07,0.051-0.062,0.105-0.035,0.218l0.149,0.769   c0.051,0.071,0.148,0.086,0.217,0.035l0.725-0.526C22.993,61.427,23.008,61.329,22.958,61.259L22.958,61.259z M19.429,61.967   l0.098-0.499c-0.204-0.103-0.441-0.235-0.303-0.51l0.053-0.141c-0.038,0.003-0.079,0.025-0.137,0.062l-0.685,0.38   c-0.052,0.07-0.035,0.168,0.033,0.217l0.725,0.526C19.281,62.053,19.378,62.038,19.429,61.967L19.429,61.967z M17.664,58.829   l0.778-0.095c0.117-0.01,0.17-0.019,0.197-0.101l0.071-0.221c0.026-0.081-0.013-0.119-0.1-0.195l-0.574-0.535   c-0.082-0.026-0.169,0.019-0.196,0.1l-0.276,0.852C17.537,58.716,17.582,58.805,17.664,58.829L17.664,58.829z M20.102,56.182   l0.333,0.71c0.046,0.108,0.068,0.156,0.155,0.156h0.232c0.084,0,0.109-0.048,0.154-0.156l0.332-0.71   c0-0.085-0.068-0.153-0.155-0.153h-0.895C20.172,56.028,20.102,56.097,20.102,56.182L20.102,56.182z M23.143,59.554   c-0.056,0.366-0.192,0.712-0.396,1.016l0.823,0.557c0.359-0.532,0.569-1.159,0.591-1.815l-0.89-0.032   C23.255,59.388,23.211,59.487,23.143,59.554L23.143,59.554z M19.899,61.318l0.58-0.768c0.309,0.054,0.637,0,0.927-0.174   c0.294-0.176,0.497-0.445,0.592-0.748l0.947-0.151c0.084,0,0.151-0.057,0.15-0.124l-0.006-0.369   c-0.002-0.065-0.072-0.119-0.155-0.117l-0.954-0.118c-0.029-0.079-0.065-0.157-0.11-0.23c-0.307-0.511-0.897-0.747-1.449-0.627   l-0.604-0.742c-0.044-0.073-0.125-0.104-0.182-0.069l-0.316,0.19c-0.059,0.035-0.069,0.12-0.026,0.193l0.374,0.886   c-0.359,0.43-0.425,1.058-0.12,1.564c0.046,0.078,0.1,0.148,0.158,0.212l-0.342,0.896c-0.041,0.074-0.027,0.159,0.032,0.193   l0.324,0.179C19.778,61.427,19.857,61.392,19.899,61.318L19.899,61.318z M19.892,59.185c0-0.449,0.365-0.814,0.813-0.814   c0.45,0,0.813,0.365,0.813,0.814s-0.363,0.812-0.813,0.812C20.257,59.997,19.892,59.634,19.892,59.185L19.892,59.185z    M2.055,58.607c-0.581-0.6-0.991-1.21-1.187-1.784l0.085,0.01c0.378,0.038,0.747,0.059,1.081,0.114   c0.043,0.217,0.108,0.438,0.195,0.666c0.112,0.295,0.254,0.572,0.417,0.825c0.285,0.023,0.647,0.039,1.111,0.043   c0.013,0.035,0.023,0.067,0.031,0.1c0,0,0.04,0.11-0.068,0.11C2.92,58.688,2.406,58.654,2.055,58.607L2.055,58.607z M95.775,49.754   c0.533-0.024,1.053-0.034,1.374-0.009c0.952,0.072,1.521,0.074,1.757,0.366c-0.071-0.018-0.155-0.01-0.23,0.002   c-0.385,0.061-0.684,0.16-1.089,0.064L95.775,49.754L95.775,49.754z M55.47,62.807c0.509-0.009,3.531,0.093,4.891,0.187   c0.535,0.038,1.172,0.262,1.172,0.262s0.35,0.14,0.691-0.327c0.78-1.074,1.017-1.462,1.426-2.333   c0.305-0.647,0.391-0.885,0.019-0.938c-0.371-0.051-0.294-0.024-0.294-0.024l-2.1,2.871L55.47,62.807L55.47,62.807z M70.741,59.267   l-0.131,4.315h-8.83l-0.767-0.247h-2.715c0,0-27.646,0.247-27.974,0.247c-0.329,0-0.442-0.165-0.442-0.165v-3.664   C34.765,59.697,66.665,59.316,70.741,59.267L70.741,59.267z M63.7,50.317c-0.071,0.192-0.166,0.429-0.29,0.719   c-0.527,1.247-1.794,4.207-4.31,8.214l-22.375,0.269c-0.017-0.822-0.131-7.421,0.502-9.089l0.009-0.021   c8.527,0.464,26.203-0.085,26.203-0.085L63.7,50.317L63.7,50.317z M69.271,59.129l-9.985,0.119c2.486-3.973,3.742-6.91,4.27-8.15   c0.135-0.318,0.237-0.578,0.315-0.792c0.129-0.024,0.627-0.114,2.556-0.409c0.686-0.104,1.138-0.169,1.443-0.209   C67.916,52.38,68.52,55.855,69.271,59.129L69.271,59.129z M67.882,48.59l-0.006,0.22c-0.433,0.083-0.838,0.164-1.217,0.241   c-0.94,0.194-1.803,0.319-2.552,0.397l0.003-0.019c0.006-0.014,0.057-0.102,0.13-0.239C65.262,49.048,66.513,48.851,67.882,48.59   L67.882,48.59z M38.802,49.233c-0.366,0.012-0.717,0.112-1.013,0.294c-5.023-0.298-11.149-0.681-14.838-0.631   c-5.483,0.072-9.975,1.743-12.639,2.91c-2.667,1.166-3.596,1.79-2.652,1.536c0.805-0.216,1.632-0.476,2.745-0.967   c1.164-0.517,3.069-1.459,6.426-2.015c8.11-1.341,11.407-0.561,19.531-0.006c0.229,0.017,0.465,0.031,0.71,0.045   c-0.34,0.93-0.463,3.224-0.504,5.274c-0.036,1.814-0.007,3.458,0.001,3.846l-6.688,0.078c-0.615-4.592-4.04-8.358-9.238-8.386   c-5.633-0.029-8.474,3.274-8.484,7.672c-0.057,1.475-0.171,2.602-0.574,3.575c-0.116,0.274-0.253,0.227-0.253,0.227   c-3.343-0.26-6.555-1.729-8.549-3.402c0.288,0.021,0.606,0.032,0.941,0.029c1.35-0.01,0.523-1.435-0.135-2.243   C2.929,56.26,1.776,56.3,1.091,56.203c-0.126-0.02-0.244-0.035-0.353-0.054v-0.051c0-0.507,1.847-1.946,6.349-3.534   c-0.13,0.064-0.246,0.129-0.34,0.191c-0.678,0.454-0.821,0.652-0.821,0.652s-1.613,0.736-2.278,1.06   c-0.666,0.326-1.09,0.852-1.062,0.95c0.028,0.1-0.015,0.142,0.934-0.397c0.712-0.403,4.132-2.261,6.584-3.589   c3.344-1.735,7.607-2.922,14.955-2.989c6.438-0.057,9.634,0.323,9.634,0.323s0.399,0.257,1.471,0.342   C36.952,49.17,37.877,49.208,38.802,49.233L38.802,49.233z M20.571,50.854c4.922,0.025,8.252,3.402,9.116,7.659   c-0.864-4.262-4.142-8.13-9.062-8.156c-5.385-0.028-8.274,3.456-8.519,7.588C12.349,53.842,15.188,50.824,20.571,50.854   L20.571,50.854z M62.242,47.685l1.608,0.025l-0.933-0.712c-0.188,0.208-0.388,0.414-0.6,0.617L62.242,47.685L62.242,47.685z    M79.415,50.719c5.933,0,8.692,2.608,9.091,5.835c-0.398-3.227-3.095-6.196-9.027-6.196c-5.375,0-8.342,3.123-8.646,5.912   C71.135,53.504,74.042,50.719,79.415,50.719L79.415,50.719z M66.299,43.192l0.154-0.53c0,0-6.135-0.499-9.017-0.464l0.389,0.017   c3.535,0.176,7.513,0.718,7.513,0.718s0.633,0.082,0.865,0.112l-0.035,0.12c-0.2-0.024-0.66-0.077-1.662-0.184   c-1.225-0.153-4.027-0.478-6.688-0.609c-2.954-0.148-4.679,0-4.679,0s-2.176,1.501-4.082,3.036   c-1.685,1.358-4.695,3.931-4.695,3.931s11.061-0.083,11.959-0.083c3.567,0,4.466-0.401,5.891-1.754   c1.765-1.678,2.629-3.68,2.856-4.268l0.152,0.02c0.117,0.014,0.246,0.029,0.386,0.043l-0.086,0.279l-0.327-0.251   c-0.071,0.179-0.168,0.408-0.286,0.663l0.48,0.008l-0.126,0.394l-0.401-0.306c-0.079,0.168-0.168,0.345-0.267,0.527l-0.035,0.064   l0.605,0.01c-0.053,0.155-0.105,0.312-0.158,0.468l-0.502-0.382c-0.113,0.203-0.242,0.418-0.385,0.64l0.791,0.013   c-0.069,0.195-0.14,0.387-0.21,0.574l-0.642-0.491c-0.142,0.216-0.295,0.438-0.462,0.661l1.032,0.017   c-0.098,0.248-0.192,0.486-0.287,0.706l-0.817-0.625c-0.162,0.211-0.335,0.425-0.521,0.636l1.322,0.021   c-0.119,0.271-0.236,0.511-0.35,0.71c-0.235,0.417-0.46,0.745-0.719,1.001l-0.189-0.144c0-0.167-0.122-0.291-0.277-0.291   c-0.03,0-0.058,0.005-0.087,0.013l-0.565-0.431c-0.896,0.822-1.634,1.267-3.003,1.477l0.052-0.001   c1.729-0.019,2.836-0.059,3.584-0.16c0.114-0.065,0.228-0.138,0.34-0.22c0.389-0.285,0.685-0.682,1.001-1.244   c0.549-0.971,1.2-2.934,1.625-4.321c0.117,0.012,0.241,0.024,0.375,0.038c-0.348,1.153-1.043,3.442-1.373,4.387L64.23,47.74   c-0.305,0.527-0.614,0.89-0.964,1.212c-0.324,0.301-0.686,0.347-1.007,0.463c0.159-0.001,0.531-0.036,1.063-0.103   c0.225-0.028,0.47-0.061,0.73-0.095c-0.067,0.126-0.118,0.217-0.137,0.252c-1.673,0.165-2.725,0.106-2.725,0.106   s-15.016,0.418-20.345,0.128c-0.889-0.049-1.854-0.104-2.868-0.165c0.567-0.329,1.191-0.292,1.195-0.291   c-0.031-0.004-0.062-0.007-0.094-0.01c2.245,0.052,4.388,0.017,4.388,0.017s2.168-1.813,4.48-3.583   c2.312-1.77,4.331-3.169,4.331-3.169s0.203-0.149,0.168-0.233c-0.026-0.068-0.459-0.286-1.631-0.38   c1.186-0.306,3.84-0.709,8.962-0.303c3.065,0.244,5.147,0.461,6.543,0.632c0.146,0.114,0.28,0.239,0.381,0.378   c0.032,0.047,0.043,0.071,0.043,0.071l0.136,0.023c-0.067-0.145-0.229-0.309-0.399-0.451c1.93,0.241,2.456,0.39,2.456,0.39   l0.129,0.13c0.726,0.042,2.24,0.138,2.815,0.226c0.188,0.028,0.538,0.116,0.981,0.68c0.693,0.053,1.445,0.119,1.808,0.174   c0.177,0.028,0.497,0.107,0.902,0.585c0.727,0.056,1.543,0.126,1.925,0.184c0.173,0.026,0.482,0.103,0.876,0.553   c0.703,0.054,1.476,0.121,1.841,0.177c0.181,0.028,0.506,0.107,0.919,0.603l0.027,0.007c0.664,0.053,1.366,0.114,1.711,0.167   c0.172,0.026,0.478,0.102,0.867,0.543c0.712,0.054,1.501,0.122,1.875,0.179c0.185,0.029,0.525,0.113,0.959,0.652   c4.367,1.229,7.16,1.869,10.994,2.765c0.73,0.171,1.317-0.261,1.426,0.028c0.043,0.107,0.005,0.83-0.2,1.859   c0.167,0.005,0.279,0.143,0.254,0.311l-0.245,1.581c-0.027,0.172-0.188,0.311-0.36,0.311h-0.251   c-0.369,1.055-0.893,2.187-1.618,3.227c-0.608,0.867-1.39,1.654-2.311,2.298h2.773c0.171,0,0.257,0.14,0.189,0.31l-0.229,0.588   c-0.067,0.171-0.261,0.31-0.433,0.31h-4.71c-0.724,0.243-1.494,0.4-2.304,0.458c-0.793,0.057-0.649-0.142-0.649-0.142l-0.395-4.444   c-0.398-3.227-3.158-5.837-9.091-5.837c-5.556,0-8.475,2.979-8.605,5.836l-0.064,2.167l-1.313,0.016   c-0.758-3.286-1.364-6.774-1.405-9.46c0.642-0.083,0.461-0.037,0.84-0.124c0.555-0.129,5.203-0.518,10.436-0.647   c5.232-0.128,13.897,1.307,15.258,1.371s-0.114-0.467-3.071-1.216c-2.954-0.749-4.753-0.965-10.801-1.279   c-4.873-0.253-9.45,0.405-12.654,1.009l0.005-0.222c0.957-0.185,1.967-0.401,2.995-0.651c1.553-0.379-1.646-0.254-2.755-0.221   l-0.213,0.005c0.08-2.282,0.215-4.788,0.215-4.788l-0.169-0.02c0,0-0.125,2.522-0.202,4.812c-0.756,0.016-1.996,0.028-3.006,0.038   C65.258,46.695,65.979,44.268,66.299,43.192L66.299,43.192z M62.621,48.476c0-0.096,0.075-0.172,0.17-0.172   c0.097,0,0.171,0.077,0.171,0.172c0,0.094-0.074,0.17-0.171,0.17C62.696,48.646,62.621,48.57,62.621,48.476L62.621,48.476z    M61.29,48.596h1.25c0.041,0.083,0.12,0.142,0.216,0.154H61.29C61.186,48.75,61.186,48.596,61.29,48.596L61.29,48.596z    M62.082,47.105l-0.129,0.125c-1.329,1.263-2.12,1.653-5.632,1.653c-0.73,0-8.172,0.054-10.937,0.075   c0.269-0.229,0.591-0.502,0.943-0.797c1.352-0.136,3.987-0.351,8.226-0.431C59.427,47.638,61.371,47.294,62.082,47.105   L62.082,47.105z M57.8,42.745c2.766,0.136,5.69,0.483,6.809,0.626c-0.105,0.248-0.263,0.589-0.479,0.986   c-0.296,0.543-0.697,1.186-1.221,1.834c-0.938-0.058-4.232-0.248-7.789-0.347c-3.742-0.105-5.959,0.486-7.084,0.885   c0.451-0.375,0.885-0.732,1.255-1.031c1.677-1.35,3.565-2.674,3.979-2.963C53.669,42.708,55.282,42.619,57.8,42.745L57.8,42.745z    M39.731,48.786c1.624,0.027,3.089,0.012,3.567,0.006c0.28-0.234,1-0.828,1.932-1.577C42.851,47.241,40.793,47.87,39.731,48.786   L39.731,48.786z M37.125,48.703c0.247,0.014,0.504,0.025,0.763,0.035c2.796-1.362,7.583-3.674,9.852-4.572   c0.843-0.333,2.186-0.969,3.717-1.73c-0.155-0.026-0.341-0.049-0.556-0.07c-0.843,0.337-1.646,0.657-2.342,0.933l-3.666,1.58   C42.279,46.102,39.02,47.744,37.125,48.703L37.125,48.703z M51.775,42.402c-0.642,0.452-2.259,1.603-4.052,2.975   c-2.024,1.546-3.937,3.131-4.391,3.508c-0.777,0.012-4.829,0.061-7.327-0.136c-0.445-0.035-0.759-0.081-0.972-0.129l14.849-6.399   c0.902,0.014,1.5,0.093,1.872,0.176L51.775,42.402L51.775,42.402z"/>
</g>
</svg>