<svg xmlns="http://www.w3.org/2000/svg" xmlns:xlink="http://www.w3.org/1999/xlink" version="1.1" id="Layer_1" x="0px" y="0px" width="100px" height="100px" viewBox="0 0 100 100" enable-background="new 0 0 100 100" xml:space="preserve">
<path fill="#000000" d="M96.459,68.311c-0.96-0.664-0.946-0.97-0.527-3.55c0.037-0.229,0.076-0.474,0.118-0.731  c0.021-0.13,0.006-0.256-0.029-0.374c0.295-2.133-0.449-4.419-2.225-6.811c-3.011-4.056-10.657-13.575-16.61-14.385  c-3.595-0.487-10.833-0.561-14.828-0.561H61.55c-0.424,0-1.472,0.078-3.057,0.195c-3.074,0.229-7.72,0.572-11.092,0.572  c-1.043,0-1.894-0.033-2.531-0.1c-3.944-0.409-6.71-2.492-6.736-2.512c-0.011-0.008-0.024-0.012-0.035-0.02  c0.439-1.135,1.31-3.858,1.495-5.537c2.023-0.529,6.185-2.049,8.692-4.085c1.343-1.09,4.434-3.852,4.149-5.927  c-0.092-0.676-0.521-1.211-1.205-1.509c-0.875-0.38-2.656-0.626-4.539-0.626c-2.268,0-7.706,0.373-10.746,3.71  c-0.567-0.193-1.167-0.455-1.794-0.728c-1.892-0.823-4.246-1.848-7.493-1.848c-0.184,0-0.37,0.003-0.555,0.01  c-3.883,0.137-7.678,1.679-9.41,2.482c-2.462-2.64-8.027-3.053-11.264-3.053c-0.879,0-1.766,0.029-2.638,0.087  c-0.968,0.064-1.665,0.555-1.91,1.345c-0.445,1.435,0.786,3.652,2.993,5.395c2.807,2.214,6.697,4.846,9.42,4.93  c0.428,0.804,0.464,1.8,0.497,2.692c0.026,0.685,0.05,1.332,0.252,1.861c0.098,0.254,0.284,0.648,0.54,1.194  c0.94,1.998,2.688,5.717,2.943,8.508c0.167,1.838,1.024,3.399,2.479,4.519c0.385,0.296,0.809,0.538,1.248,0.752  c-0.003,0.771-0.033,1.535-0.065,2.27c-0.083,1.9-0.156,3.547,0.324,4.694c0.09,0.369,0.499,1.992,1.158,3.993  c-0.938,0.979-1.601,2.415-1.303,4.796c0.254,2.035,2.668,5.046,7.041,5.047h0.001c0.324,0,0.654-0.021,0.987-0.055  c1.268,0.442,2.529,0.658,3.941,0.676c0.201,0.221,0.414,0.43,0.649,0.616c1.183,0.934,2.717,1.401,4.581,1.401  c0.657,0,1.355-0.057,2.092-0.174c3.446-0.545,6.59-0.658,8.67-0.732c1.385-0.05,2.3-0.082,2.838-0.209  c0.772-0.183,1.545-0.759,2.291-1.316c0.301-0.225,0.708-0.528,1.003-0.698c0.034,0.062,0.056,0.116,0.092,0.182  c0.206,0.372,0.438,0.794,0.682,1.34c0.203,0.451,0.656,0.945,1.666,0.945c0.169-0.001,0.354-0.014,0.556-0.045  c0.742-0.111,1.679-0.416,2.764-0.771c1.212-0.395,2.584-0.844,4.121-1.18c5.263-1.151,9.237-1.32,12.743-1.469  c2.275-0.098,4.426-0.189,6.635-0.535c1.823-0.284,2.069-0.243,2.798-0.12c0.323,0.055,0.725,0.122,1.34,0.187  c0.805,0.086,1.639,0.471,2.521,0.879c1.207,0.558,2.456,1.134,3.877,1.078c1.552-0.062,3.422-0.819,3.86-2.334  C99.521,71.277,98.627,69.809,96.459,68.311z M21.167,52.167c-1.03-0.751-1.786-1.881-1.923-3.385  c-0.28-3.095-2.113-6.992-3.099-9.086c-0.224-0.476-0.416-0.885-0.491-1.08c-0.1-0.261-0.119-0.791-0.139-1.305  c-0.042-1.157-0.101-2.742-1.074-4.027c-0.164-0.218-0.419-0.343-0.688-0.343c-0.03,0-0.059,0.002-0.09,0.005  c-0.075,0.008-0.155,0.012-0.238,0.012c-1.716,0-4.809-1.662-8.483-4.561c-1.876-1.48-2.558-3.06-2.414-3.528  c0.032-0.102,0.295-0.127,0.375-0.132c0.833-0.056,1.682-0.083,2.523-0.083c5.313,0,9.069,1.051,10.305,2.883  c0.243,0.359,0.719,0.48,1.107,0.286c1.147-0.573,5.21-2.457,9.322-2.601c0.164-0.006,0.33-0.009,0.494-0.009  c2.888,0,4.968,0.905,6.805,1.704c0.88,0.383,1.713,0.745,2.55,0.971c0.334,0.09,0.69-0.03,0.904-0.303  c2.543-3.254,8.125-3.507,9.775-3.507c1.883,0,3.316,0.25,3.851,0.483c0.171,0.074,0.178,0.125,0.183,0.159  c0.076,0.556-0.968,2.272-3.527,4.353c-2.52,2.046-7.229,3.626-8.594,3.882c-0.43,0.081-0.731,0.47-0.703,0.906  c0.068,1.024-0.903,4.29-1.456,5.669c-0.083,0.209-0.307,0.629-0.584,1.133c-0.203,0.368-0.431,0.775-0.671,1.204  c-0.295,0.524-0.574,1.024-0.843,1.512c-1.348,2.44-2.321,4.382-2.422,5.487c-0.109,1.205-3.85,4.036-6.729,4.356  c-0.202,0.021-0.409,0.033-0.615,0.033c-0.542,0-1.09-0.088-1.622-0.237C22.317,52.84,21.705,52.56,21.167,52.167z M23.079,69.747  c-0.146-1.168-0.018-1.982,0.286-2.609c0.993,2.631,2,4.562,3.044,5.827C24.312,72.293,23.196,70.678,23.079,69.747z M44.69,44.285  c0.697,0.073,1.609,0.108,2.711,0.108c3.436,0,8.119-0.347,11.22-0.576c1.436-0.107,2.569-0.191,2.929-0.191h0.808  c3.951,0,11.102,0.07,14.595,0.545c3.625,0.493,9.548,5.744,15.457,13.703c1.473,1.982,2.108,3.821,1.906,5.479  c-0.005,0.386-0.028,0.765-0.088,1.129c0.004-0.021,0.008-0.047,0.013-0.08c-0.004,0.026-0.009,0.057-0.013,0.082  c-0.218,1.339-0.375,2.335-0.229,3.165c0.139,0.797,0.555,1.441,1.479,2.081c1.654,1.144,2.107,2.022,1.979,2.462  c-0.156,0.539-1.217,1.048-2.271,1.09c-1.005,0.041-2.015-0.425-3.082-0.919c-0.972-0.45-1.976-0.914-3.065-1.028  c-0.561-0.06-0.935-0.122-1.233-0.174c-0.929-0.156-1.353-0.194-3.352,0.118c-2.113,0.331-4.216,0.42-6.441,0.515  c-3.576,0.153-7.63,0.325-13.038,1.508c-1.623,0.355-3.1,0.838-4.288,1.226c-1.107,0.36-2.474,0.807-2.907,0.732  c-0.127-0.278-0.249-0.524-0.365-0.748c-0.089-0.171-0.167-0.315-0.246-0.46c-0.021-0.037-0.044-0.083-0.063-0.118  c0.23-0.109,0.508-0.248,0.832-0.416c0.65-0.337,1.503-0.802,2.645-1.454c0.399-0.229,0.791-0.455,1.168-0.675  c1.436-0.837,2.597-1.54,2.61-1.549c0.3-0.182,0.459-0.523,0.405-0.869c-0.052-0.345-0.308-0.624-0.646-0.707  c-0.113-0.028-0.226-0.059-0.339-0.088h0.001c3.054-1.395,7.228-2.274,10.153-2.803c0.067-0.013,0.134-0.024,0.2-0.036  c0.164-0.029,0.321-0.058,0.477-0.085c0.101-0.017,0.195-0.033,0.292-0.05c0.131-0.023,0.261-0.046,0.384-0.066  c0.192-0.033,0.375-0.063,0.546-0.093c0.967-0.162,1.442-0.244,1.703-0.319c0.367-0.108,0.62-0.446,0.62-0.829  c0-1.45-1.175-2.994-3.593-4.721c-0.389-0.277-0.928-0.188-1.204,0.2c-0.277,0.389-0.187,0.928,0.2,1.205  c1.667,1.19,2.388,2.058,2.682,2.645c-0.214,0.036-0.451,0.077-0.695,0.118c-0.217,0.036-0.45,0.076-0.691,0.117  c-0.149,0.025-0.31,0.054-0.467,0.081c-0.101,0.017-0.198,0.033-0.302,0.052c-0.197,0.035-0.404,0.072-0.613,0.109  c-0.07,0.013-0.139,0.025-0.21,0.038c-0.231,0.043-0.47,0.088-0.711,0.134c-0.052,0.01-0.103,0.02-0.155,0.029  c-0.262,0.051-0.529,0.104-0.801,0.158c-0.03,0.007-0.061,0.013-0.091,0.019c-0.293,0.061-0.591,0.123-0.893,0.188  c-0.001,0-0.001,0-0.002,0c-2.844,0.619-6.012,1.5-8.423,2.77c-0.003,0.002-0.007,0.004-0.01,0.005  c-0.265,0.14-0.52,0.284-0.765,0.433c-0.002,0.001-0.003,0.002-0.005,0.003c-0.137-0.046-0.267-0.091-0.396-0.137  c-0.02-0.007-0.04-0.014-0.06-0.021c-0.115-0.041-0.224-0.081-0.331-0.121c-0.101-0.038-0.196-0.074-0.289-0.111  c-0.107-0.042-0.21-0.083-0.307-0.123c-0.116-0.049-0.225-0.097-0.325-0.143c-0.045-0.021-0.09-0.041-0.131-0.062  c-0.125-0.061-0.231-0.117-0.321-0.171c-0.021-0.012-0.038-0.023-0.057-0.035c-0.088-0.057-0.16-0.109-0.2-0.155  c-0.59-0.869-1.273-1.065-1.743-1.077c-0.692-0.017-1.356,0.355-1.877,1.05c-0.392,0.521-1.695,1.625-4.106,2.461  c-1.863,0.645-3.916,1.228-6.731,0.659c-0.468-0.095-0.923,0.209-1.018,0.677s0.209,0.923,0.677,1.016  c3.239,0.654,5.641-0.029,7.637-0.721c3.382-1.172,4.694-2.751,4.923-3.056c0.217-0.288,0.387-0.361,0.452-0.36  c0.054,0.002,0.189,0.071,0.36,0.324c0.032,0.047,0.07,0.097,0.112,0.146c0.02,0.022,0.042,0.045,0.063,0.068  c0.025,0.027,0.054,0.056,0.084,0.084c0.034,0.032,0.071,0.064,0.112,0.099c0.021,0.018,0.045,0.035,0.068,0.054  c0.25,0.192,0.615,0.408,1.174,0.656c0.014,0.006,0.028,0.013,0.043,0.02c0.142,0.062,0.295,0.125,0.461,0.191  c0.004,0.002,0.008,0.003,0.012,0.005c0.014,0.005,0.029,0.011,0.043,0.017c0.18,0.07,0.369,0.142,0.577,0.217  c0.238,0.084,0.487,0.171,0.769,0.262c0.2,0.064,0.396,0.126,0.588,0.185c0.022,0.006,0.046,0.014,0.067,0.021  c-0.146,0.087-0.291,0.17-0.438,0.256c-0.405,0.238-0.804,0.47-1.195,0.694c-0.027,0.016-0.055,0.031-0.081,0.047  c-0.396,0.227-0.78,0.445-1.146,0.65c-0.002,0.001-0.005,0.003-0.007,0.004c-0.61,0.271-1.092,0.5-1.469,0.779  c0.018-0.002,0.035-0.004,0.053-0.005c-0.079,0.043-0.16,0.086-0.236,0.126c-0.07,0.037-0.135,0.07-0.201,0.104  c-0.155,0.08-0.302,0.154-0.437,0.221c-0.038,0.02-0.08,0.041-0.116,0.059c-0.16,0.078-0.299,0.141-0.42,0.193  c-0.03,0.013-0.058,0.024-0.085,0.036c-0.116,0.048-0.218,0.086-0.285,0.103c-0.262,0.01-0.524,0.102-0.79,0.226  c-0.463,0.214-0.938,0.555-1.459,0.943c-0.067,0.051-0.142,0.104-0.212,0.157c-0.504,0.374-1.07,0.774-1.442,0.862  s-1.358,0.123-2.502,0.164c-2.122,0.076-5.33,0.19-8.88,0.753c-1.726,0.273-3.155,0.181-4.271-0.271  c-0.392-0.158-0.747-0.359-1.061-0.606c-0.379-0.3-0.663-0.644-0.886-1.002c0,0,0,0,0,0c-0.12-0.191-0.219-0.388-0.304-0.584  c-0.243-0.568-0.351-1.14-0.388-1.616c-0.058-0.747,0.405-1.63,1.148-2.528c1.434-1.731,3.931-3.518,5.897-4.493  c0.427-0.213,0.601-0.729,0.39-1.158c-0.212-0.426-0.73-0.601-1.157-0.389c-1.359,0.675-3.419,1.955-5.124,3.526  c-0.296,0.272-0.562,0.542-0.812,0.809c-0.47,0.501-0.855,0.99-1.166,1.47c-0.659,1.019-0.967,1.987-0.897,2.896  c0.02,0.253,0.067,0.494,0.112,0.736c-0.102,0.045-0.199,0.091-0.317,0.133c-0.665,0.238-1.313,0.396-1.945,0.491  c-0.204-0.079-0.407-0.149-0.613-0.243c-1.545-0.702-3.122-3.913-4.31-7.216c-0.203-0.564-0.395-1.129-0.573-1.687  c-0.381-1.194-0.702-2.348-0.938-3.338c-0.012-0.054-0.029-0.105-0.052-0.154c-0.35-0.776-0.281-2.337-0.208-3.989  c0.024-0.559,0.049-1.151,0.061-1.761c0.525,0.112,1.06,0.19,1.605,0.19c0.27,0,0.541-0.015,0.806-0.045  c3.222-0.358,8.037-3.478,8.258-5.915c0.096-1.064,1.944-4.348,3.049-6.311c0.152-0.27,0.291-0.516,0.422-0.752l0.425-0.217"/>
</svg>