<svg xmlns="http://www.w3.org/2000/svg" xmlns:xlink="http://www.w3.org/1999/xlink" version="1.1" id="Layer_1" x="0px" y="0px" width="100px" height="100px" viewBox="0 0 100 100" enable-background="new 0 0 100 100" xml:space="preserve">
<path fill-rule="evenodd" clip-rule="evenodd" d="M35.793,22.67l2.324,4.025l0.695-0.401l1.923,3.331l25.014-14.441l0.039-0.022  c10.655-6.152,24.28-2.501,30.432,8.153c6.152,10.656,2.502,24.28-8.154,30.432c-5.607,3.238-12.037,3.761-17.768,1.976  L44.807,70.439c-1.32,5.854-4.987,11.162-10.595,14.399C23.557,90.991,9.932,87.34,3.78,76.685  c-6.151-10.655-2.501-24.279,8.154-30.432l0.04-0.022l25.014-14.442l-1.923-3.33l0.695-0.402l-2.324-4.024L35.793,22.67  L35.793,22.67z M46.42,62.32L46.42,62.32c0.767,0.206,1.562-0.253,1.767-1.02l1.701-6.347c0.205-0.767-0.254-1.562-1.02-1.768l0,0  c-0.767-0.205-1.562,0.254-1.767,1.021l-1.701,6.348C45.195,61.32,45.654,62.115,46.42,62.32L46.42,62.32z M56.692,56.391  L56.692,56.391c0.766,0.206,1.561-0.254,1.767-1.021l1.7-6.347c0.206-0.767-0.254-1.562-1.02-1.767l0,0  c-0.767-0.205-1.562,0.254-1.767,1.021l-1.701,6.347C55.467,55.391,55.926,56.186,56.692,56.391L56.692,56.391z M83.778,46.32  c1.84-1.062,2.471-3.414,1.408-5.254s-3.414-2.471-5.254-1.408s-2.471,3.415-1.408,5.255S81.938,47.383,83.778,46.32L83.778,46.32z   M87.387,32.856c1.84-1.063,2.47-3.415,1.408-5.255c-1.063-1.84-3.415-2.47-5.255-1.407c-1.84,1.062-2.471,3.414-1.408,5.254  S85.547,33.919,87.387,32.856L87.387,32.856z M73.923,29.249c1.84-1.063,2.469-3.415,1.407-5.255s-3.415-2.471-5.255-1.408  s-2.47,3.415-1.408,5.255C69.729,29.681,72.083,30.311,73.923,29.249L73.923,29.249z M70.314,42.713  c1.839-1.062,2.47-3.414,1.408-5.254c-1.063-1.84-3.415-2.471-5.255-1.408c-1.84,1.062-2.471,3.415-1.408,5.255  C66.122,43.145,68.475,43.775,70.314,42.713L70.314,42.713z M21.406,55.127l-6.523,3.766l3.045,5.275l-5.274,3.045l3.766,6.523  l5.274-3.046l3.045,5.274l6.523-3.766l-3.045-5.274l5.274-3.046l-3.767-6.522l-5.274,3.045L21.406,55.127z"/>
</svg>