<svg xmlns="http://www.w3.org/2000/svg" xmlns:xlink="http://www.w3.org/1999/xlink" version="1.1" id="Layer_1" x="0px" y="0px" width="100px" height="100px" viewBox="0 0 100 100" enable-background="new 0 0 100 100" xml:space="preserve">
<polygon points="67.832,0 31.734,11.017 67.832,11.792 "/>
<path d="M24.345,13.271v85.522L80.5,100V14.478L24.345,13.271z M43.512,39.851c1.278,0.054,2.396,0.68,3.119,1.62  c1.123-2.23,3.475-3.717,6.129-3.602c2.562,0.111,4.709,1.683,5.689,3.873c0.787-0.733,1.857-1.163,3.018-1.113  c2.298,0.102,4.081,2.044,3.98,4.343c-0.099,2.299-2.044,4.082-4.342,3.981c-1.159-0.051-2.188-0.573-2.91-1.372  c-1.166,2.099-3.441,3.477-6.003,3.366c-2.657-0.115-4.868-1.8-5.793-4.119c-0.802,0.873-1.969,1.4-3.249,1.343  c-2.297-0.1-4.078-2.043-3.979-4.34C39.272,41.533,41.216,39.75,43.512,39.851z M70.59,69.542c-0.008,0-0.016,0-0.024,0  L34.37,68.736c-0.625-0.014-1.122-0.532-1.108-1.158c0.014-0.625,0.528-1.119,1.158-1.108l36.195,0.805  c0.625,0.015,1.121,0.533,1.108,1.158C71.71,69.05,71.205,69.542,70.59,69.542z M70.59,61.498c-0.008,0-0.016,0-0.024,0  L34.37,60.693c-0.625-0.015-1.122-0.533-1.108-1.158c0.014-0.626,0.528-1.089,1.158-1.109l36.195,0.805  c0.625,0.015,1.121,0.533,1.108,1.158C71.71,61.007,71.205,61.498,70.59,61.498z"/>
</svg>