<svg xmlns="http://www.w3.org/2000/svg" xmlns:xlink="http://www.w3.org/1999/xlink" version="1.1" id="Layer_1" x="0px" y="0px" width="100px" height="100px" viewBox="0 0 100 100" enable-background="new 0 0 100 100" xml:space="preserve">
<path fill="#000000" d="M41.997,42.492H22.614H11.306H3.23c-1.777,0-3.23,1.455-3.23,3.232v45.26c0,1.776,1.454,3.232,3.23,3.232  h58.148c1.776,0,3.23-1.456,3.23-3.232v-45.26c0-1.777-1.454-3.232-3.23-3.232h-8.076H41.997z M36.144,79.458h-5.911V68.073  c-2.485-0.894-3.865-3.248-3.865-6.046c0-3.564,2.887-6.449,6.448-6.449c3.562,0,6.445,2.885,6.445,6.449  c0,2.798-0.63,5.152-3.117,6.046V79.458z"/>
<path fill="#000000" d="M99.987,33.434C99.82,16.984,88.971,5.507,73.569,5.507c-15.404,0-26.253,11.481-26.422,27.937  c-0.01,0.041-0.013,0.085-0.013,0.129v5.067c0,0.445,0.364,0.809,0.809,0.809h10.553c0.444,0,0.808-0.363,0.808-0.809v-4.856  c0.007-0.04,0.01-0.077,0.01-0.119c0.063-9.25,5.659-15.226,14.256-15.226c8.594,0,14.19,5.976,14.257,15.226  c0,0.042,0.003,0.081,0.01,0.121v16.789c0,0.445,0.358,0.809,0.808,0.809h10.549c0.448,0,0.808-0.363,0.808-0.809v-17  C100,33.525,99.997,33.48,99.987,33.434z"/>
</svg>