<svg xmlns="http://www.w3.org/2000/svg" xmlns:xlink="http://www.w3.org/1999/xlink" version="1.1" id="Layer_1" x="0px" y="0px" width="100px" height="63.7931034483px" viewBox="0 0 116.528 74.291" enable-background="new 0 0 116.528 74.291" xml:space="preserve">
<path d="M106.57,52.033L92.218,38.14l-1.396-1.438l0.459-1.316l-9.089-9.621l-1.128-0.395l-3.126,1.358l-2.898-7.372  c0,0-3.888-5.479-7.735-1.123c-3.844,4.352-5.483,6.985-5.485,6.988l-4.676,2.44l-2.947,5.22l-2.138-0.93l0.366-0.775l-1.621-0.766  l-0.391,0.825l-1.656-0.721l0.381-0.805l-1.621-0.767l-0.405,0.856l-1.535-0.668l0.465-0.98l-1.622-0.768l-0.487,1.033l-1.506-0.655  l0.419-0.886l-1.621-0.767l-0.445,0.938l-1.778-0.773l0.367-0.773l-1.621-0.767l-0.391,0.824l-1.382-0.601l0.389-0.825l-1.622-0.767  l-0.414,0.875l-1.656-0.72l0.405-0.854l-1.622-0.767l-0.428,0.906l-1.491-0.649l0.295-0.626l-1.621-0.767l-0.32,0.677l-1.52-0.661  l0.316-0.667l-1.621-0.767l-0.34,0.718l-1.384-0.601l0.341-0.719l-1.622-0.768l-0.364,0.77l-1.382-0.601l0.362-0.77l-1.622-0.767  l-0.387,0.819l-1.097-0.477l0.334-0.705l-1.621-0.767l-0.358,0.756l-1.233-0.537l0.298-0.631l-1.621-0.767l-0.331,0.7  c-0.526-0.174-1.066-0.235-1.592-0.195l-0.577-1.039l-1.568,0.872l0.395,0.708c-0.359,0.208-0.688,0.469-0.973,0.781L7.701,15.57  l-0.855,1.576l0.985,0.535c-0.179,0.571-0.226,1.158-0.154,1.725l-0.665,0.072l0.194,1.784l1.103-0.121  c0.314,0.485,0.734,0.908,1.243,1.231l-0.444,0.939l1.622,0.767l0.447-0.946l1.233,0.536l-0.389,0.821l1.621,0.767l0.414-0.872  l1.096,0.476l-0.358,0.757l1.621,0.766l0.383-0.808l1.383,0.602l-0.383,0.809l1.622,0.767l0.406-0.859l1.384,0.602l-0.406,0.858  l1.621,0.767l0.43-0.91l1.52,0.661l-0.426,0.899l1.622,0.768l0.45-0.952l1.49,0.649l-0.316,0.671l1.621,0.767l0.342-0.723  l1.656,0.721l-0.332,0.702l1.621,0.767l0.356-0.752l1.383,0.602l-0.357,0.752l1.622,0.767l0.38-0.804l1.778,0.773l-0.303,0.639  l1.622,0.768l0.326-0.69l1.506,0.655l-0.258,0.545l1.621,0.767l0.282-0.596l1.535,0.667l-0.342,0.721l1.622,0.768l0.365-0.772  l1.656,0.721l-0.355,0.752l1.621,0.768l0.38-0.805l3.596,1.564c-0.204,0.842-0.433,1.844-0.589,2.699  c-0.343,1.885,2.172,4.351,2.172,4.351l6.136,2.675l8.268,3.527l13.34,3.507l1.609-0.071c0,0,14.243,4.246,16.974,4.886  c2.732,0.641,4.754-1.819,4.754-1.819s0.494-1.411,1.515-4.326C107.337,53.46,106.57,52.033,106.57,52.033z M73.452,26.612  l-5.845-1.096L66.42,25.29l3.09-4.914c0,0,1.702-2.149,3.01,1.053c0.839,2.056,1.467,4.21,1.812,5.491L73.452,26.612z   M103.066,58.721c-1.083,1.908-1.946,1.642-1.946,1.642l-7.172-3.036l-4.66-2.37l-2.194-2.773l1.382-3.951l1.85-1.358  c0,0,0.1-0.057,0.279-0.13c1.913,3.023,1.892,4.479,1.892,4.479s2.166-1.568,3.262-3.413c0.011,0.01,0.023,0.017,0.034,0.028  c2.959,2.406,6.722,5.83,6.722,5.83S105.197,54.979,103.066,58.721z"/>
</svg>