<svg xmlns="http://www.w3.org/2000/svg" xmlns:xlink="http://www.w3.org/1999/xlink" version="1.1" id="Layer_1" x="0px" y="0px" width="100px" height="58.4905660377px" viewBox="0 0 106.833 62.167" enable-background="new 0 0 106.833 62.167" xml:space="preserve">
<g>
	<path d="M83.926,41.634c-0.554-4.028-1.56-11.697-1.56-14.213c0-3.47,1.385-5.074,1.385-5.074s4.388,0.462,4.966,0.462   c0.576,0,3.925-1.27,3.809-2.886c-0.114-1.616-0.461-1.732-2.886-2.655c-2.424-0.924-3.463-3.464-5.427-5.08   c-1.963-1.616-6.118,0.346-7.67,2.771c-1.212,1.894,0.039,18.09,0.645,25.088C79.259,40.977,81.534,41.531,83.926,41.634z"/>
	<path d="M103.015,28.891c-1.148,9.08-8.895,16.104-18.286,16.104c-0.271,0-0.536-0.014-0.803-0.024   c-2.392-0.104-4.667-0.656-6.738-1.588c-3.019-1.356-5.608-3.501-7.504-6.173c-0.794,1.118-1.711,2.142-2.729,3.057   c-3.265,2.937-7.578,4.729-12.316,4.729c-4.407,0-8.447-1.555-11.619-4.135c-2.036-1.657-3.717-3.733-4.896-6.105   c-3.019,6.067-9.279,10.24-16.517,10.24c-9.393,0-17.139-7.024-18.287-16.104c-0.097,0.766-0.152,1.545-0.152,2.336   c0,10.185,8.255,18.439,18.439,18.439c7.238,0,13.498-4.172,16.517-10.24c1.33,2.673,3.29,4.979,5.685,6.721   c3.041,2.213,6.782,3.52,10.831,3.52c5.329,0,10.122-2.267,13.488-5.883c0.559-0.6,1.081-1.232,1.557-1.901   c3.342,4.708,8.832,7.784,15.045,7.784c10.183,0,18.438-8.255,18.438-18.439C103.167,30.436,103.112,29.657,103.015,28.891z"/>
	<path d="M66.955,36.93c-1.685-2.744-4.955-4.605-8.714-4.605c-0.513,0-1.012,0.045-1.503,0.112   c-1.463-1.205-3.337-1.929-5.38-1.929c-4.182,0-7.646,3.031-8.338,7.016c3.172,2.581,7.212,4.135,11.619,4.135   C59.377,41.659,63.69,39.867,66.955,36.93z"/>
</g>
</svg>