<svg xmlns="http://www.w3.org/2000/svg" xmlns:xlink="http://www.w3.org/1999/xlink" version="1.1" id="Layer_1" x="0px" y="0px" width="100px" height="100px" viewBox="0 0 100 100" enable-background="new 0 0 100 100" xml:space="preserve">
<path d="M36.137,50H21.803V38.917h14.334V50z M22.803,49h12.334v-9.083H22.803V49z"/>
<path d="M52.137,50H37.803V38.917h14.334V50z M38.803,49h12.334v-9.083H38.803V49z"/>
<path d="M68.137,50H53.803V38.917h14.334V50z M54.803,49h12.334v-9.083H54.803V49z"/>
<path d="M88.719,34.5h-71.5c-2.481,0-4.5,2.019-4.5,4.5v0.823H6.281v16.688h6.438v0.823c0,2.481,2.019,4.5,4.5,4.5h2.072  c0.19,2.623,2.363,4.707,5.035,4.707c2.671,0,4.843-2.084,5.033-4.707h4.004c0.19,2.623,2.363,4.707,5.035,4.707  c2.671,0,4.843-2.084,5.033-4.707h4.697c0.19,2.623,2.363,4.707,5.035,4.707c2.671,0,4.843-2.084,5.033-4.707h0.51h3.799  c0.19,2.623,2.363,4.707,5.035,4.707c2.671,0,4.843-2.084,5.033-4.707h4.004c0.19,2.623,2.363,4.707,5.035,4.707  c2.671,0,4.843-2.084,5.033-4.707h2.072c2.481,0,4.5-2.019,4.5-4.5V39C93.219,36.519,91.2,34.5,88.719,34.5z M9.5,55.511H7.281  V40.823H9.5V55.511z M10.5,55.511V40.823h2.219v14.688H10.5z M24.326,65.541c-2.123,0-3.871-1.632-4.056-3.707h8.109  C28.195,63.909,26.448,65.541,24.326,65.541z M38.398,65.541c-2.123,0-3.871-1.632-4.056-3.707h0.698h7.411  C42.268,63.909,40.521,65.541,38.398,65.541z M53.164,65.541c-2.123,0-3.871-1.632-4.056-3.707h8.109  C57.033,63.909,55.286,65.541,53.164,65.541z M67.541,65.541c-2.123,0-3.871-1.632-4.056-3.707h4.704h3.405  C71.41,63.909,69.663,65.541,67.541,65.541z M81.613,65.541c-2.123,0-3.871-1.632-4.056-3.707h5.983h2.126  C85.482,63.909,83.735,65.541,81.613,65.541z M92.219,57.334c0,1.93-1.57,3.5-3.5,3.5h-2.064h-3.113h-6.492h-4.443h-4.416h-5.213  h-4.27h-0.479H48.6h-5.16h-0.084h-8.314h-1.207h-4.443h-9.629h-0.072h-2.471c-1.93,0-3.5-1.57-3.5-3.5v-0.823V39.823V39  c0-1.93,1.57-3.5,3.5-3.5h64.465V50h10.535V57.334z M92.219,49h-9.535V35.5h6.035c1.93,0,3.5,1.57,3.5,3.5V49z"/>
<path d="M88.889,55.25c-1.068,0-1.938-0.869-1.938-1.938s0.869-1.938,1.938-1.938s1.938,0.869,1.938,1.938  S89.957,55.25,88.889,55.25z M88.889,52.375c-0.517,0-0.938,0.421-0.938,0.938s0.421,0.938,0.938,0.938s0.938-0.421,0.938-0.938  S89.405,52.375,88.889,52.375z"/>
</svg>