<svg xmlns="http://www.w3.org/2000/svg" xmlns:xlink="http://www.w3.org/1999/xlink" version="1.1" id="Calque_1" x="0px" y="0px" width="100px" height="100px" viewBox="0 0 100 100" enable-background="new 0 0 100 100" xml:space="preserve">
<g>
	<rect x="50.167" y="68.15" width="23.999" height="2.667"/>
	<rect x="24.835" y="68.15" width="2.667" height="2.667"/>
	<g>
		<path d="M74.166,17.484c0-1.474-1.192-2.666-2.666-2.666H28.834c-1.473,0-2.665,1.192-2.665,2.666v32    c0,1.475,1.192,2.667,2.665,2.667L71.5,52.15c1.474,0,2.666-1.192,2.666-2.667V17.484z"/>
	</g>
	<path d="M79.5,97.385H20.833c-0.682,0-1.235-0.553-1.235-1.234V85.482c0-0.682,0.553-1.234,1.235-1.234s1.235,0.553,1.235,1.234   v9.432h56.196v-9.43c0-0.683,0.554-1.236,1.235-1.236s1.235,0.554,1.235,1.236V96.15C80.735,96.832,80.182,97.385,79.5,97.385   L79.5,97.385z"/>
	<path d="M80.833,86.719H19.502c-2.152,0-3.902-1.75-3.902-3.901V6.819c0-2.151,1.75-3.902,3.901-3.902h61.332   c2.151,0,3.901,1.751,3.901,3.902v75.998C84.734,84.969,82.984,86.719,80.833,86.719L80.833,86.719z M20.833,84.248h60   c0.789,0,1.431-0.642,1.431-1.431V6.819c0-0.79-0.642-1.432-1.431-1.432H19.501c-0.789,0-1.432,0.642-1.432,1.432v75.998   c0,0.789,0.643,1.431,1.432,1.431H20.833L20.833,84.248z"/>
</g>
</svg>