<svg xmlns="http://www.w3.org/2000/svg" xmlns:xlink="http://www.w3.org/1999/xlink" version="1.1" id="Calque_1" x="0px" y="0px" width="100px" height="100px" viewBox="0 0 100 100" enable-background="new 0 0 100 100" xml:space="preserve">
<g>
	<polygon points="40.854,46.124 8.556,35.455 17.652,41.894 49.951,52.562  "/>
	<polygon points="18.14,71.511 54.285,83.45 54.285,55.799 18.09,43.842  "/>
	<path d="M41.513,44.537c0.081,0.027,0.157,0.065,0.226,0.114l1.298,0.919V31.485l-16.981,7.946L41.513,44.537z"/>
	<polygon points="55.998,55.707 55.998,83.29 81.008,71.586 80.985,44.014  "/>
	<polygon points="58.964,52.427 81.337,41.958 87.934,35.134 65.562,45.603  "/>
	<path d="M64.692,44.118l7.751-3.627L44.75,31.344v15.438l10.265,7.265l9.424-9.749C64.511,44.224,64.597,44.162,64.692,44.118z"/>
	<path d="M93.613,31.095c-0.307-0.43-0.754-0.731-1.254-0.861l0.809-1.279c0.369-0.583,0.447-1.291,0.215-1.941   c-0.232-0.65-0.742-1.147-1.398-1.364L54.127,13.145c-0.227-0.075-0.461-0.113-0.698-0.113c-0.769,0-1.472,0.388-1.882,1.037   l-7.708,12.184l-8.329-11.076c-0.419-0.557-1.084-0.889-1.781-0.889c-0.327,0-0.645,0.071-0.943,0.21L6.063,27.003   c-0.611,0.286-1.054,0.824-1.218,1.479c-0.163,0.654-0.024,1.338,0.382,1.877l0.743,0.988l-1.863-0.615   c-0.226-0.075-0.46-0.112-0.697-0.112c-0.846,0-1.608,0.469-1.988,1.223c-0.494,0.977-0.192,2.189,0.701,2.821l12.883,9.119   l0.052,28.352c0.001,0.961,0.616,1.81,1.528,2.111l37.857,12.506c0.227,0.073,0.462,0.111,0.699,0.111   c0.323,0,0.648-0.072,0.943-0.21l26.723-12.505c0.779-0.365,1.283-1.157,1.283-2.02l-0.023-28.537l9.334-9.655   C94.148,33.164,94.236,31.969,93.613,31.095z M92.394,32.984l-9.696,10.03l0.023,29.115c0,0.332-0.191,0.635-0.493,0.777   L55.506,85.411c-0.005,0.003-0.012,0.001-0.017,0.004c-0.106,0.047-0.223,0.076-0.347,0.076c-0.092,0-0.182-0.014-0.27-0.043   L17.017,72.944c-0.351-0.116-0.588-0.443-0.588-0.812l-0.053-29.043L2.892,33.545c-0.346-0.245-0.461-0.706-0.27-1.085   s0.631-0.56,1.033-0.428l6.046,1.997l-3.379-4.494c-0.156-0.207-0.209-0.472-0.146-0.722c0.062-0.251,0.234-0.46,0.468-0.569   l26.723-12.505c0.366-0.172,0.804-0.063,1.047,0.261l9.522,12.662l8.77-13.861c0.21-0.333,0.619-0.478,0.992-0.355L91.555,26.95   c0.251,0.083,0.449,0.277,0.537,0.525c0.09,0.248,0.059,0.524-0.082,0.747l-2.798,4.423l2.203-1.031   c0.374-0.175,0.82-0.059,1.06,0.278S92.681,32.687,92.394,32.984z"/>
</g>
</svg>