<svg xmlns="http://www.w3.org/2000/svg" xmlns:xlink="http://www.w3.org/1999/xlink" version="1.1" id="Layer_1" x="0px" y="0px" width="100px" height="74.2857142857px" viewBox="93.5 114.5 210 156" enable-background="new 93.5 114.5 210 156" xml:space="preserve">
<g>
	<path fill="#000000" d="M250.986,182.953c-4.657,0-9.082,0.99-13.084,2.759l-1.771-4.252c0.303-0.716,0.331-1.547,0.01-2.321   l-3.271-7.846c-0.318-0.763-0.916-1.325-1.624-1.618l-4.295-10.63l4.871-1.91c1.08-0.423,1.611-1.642,1.188-2.722   s-1.642-1.614-2.722-1.188l-1.847,0.724c-2.256-4.063-5.002-6.069-8.387-6.069h-6c-1.16,0-2.101,0.94-2.101,2.1   s0.938,2.1,2.101,2.1h6c0.625,0,2.401,0.012,4.446,3.414l-4.414,1.731c-1.08,0.423-1.612,1.642-1.188,2.722   c0.326,0.828,1.117,1.334,1.957,1.334c0.254,0,0.514-0.047,0.766-0.146l1.419-0.556l0.701,1.735   c-4.245,2.264-25.829,13.756-29.514,15.335c-0.603,0.258-1.191,0.554-1.79,0.856c-3.234,1.635-6.596,3.304-16.495-1.635   l-7.093-21.548l-3.989,1.313l11.708,35.564l-6.282,3.882c-5.903-7.964-15.37-13.129-26.044-13.129   c-17.894,0-32.4,14.506-32.4,32.399c0,17.895,14.506,32.399,32.4,32.399c17.302,0,31.435-13.563,32.351-30.637l1.767-0.019   c0.957,3.465,4.125,6.014,7.896,6.014c3.832,0,7.041-2.633,7.94-6.186l10.166-0.109c1.16-0.012,2.09-0.963,2.076-2.121   c-0.012-1.152-0.949-2.077-2.1-2.077c-0.007,0-0.015,0-0.021,0l-10.164,0.108c-0.236-0.853-0.598-1.65-1.078-2.367l34.137-38.678   c-0.164,0.616-0.146,1.286,0.119,1.919l3.271,7.846c0.321,0.771,0.932,1.333,1.65,1.623l1.911,4.588   c-9.34,5.686-15.577,15.961-15.577,27.696c0,17.894,14.506,32.398,32.4,32.398c17.894,0,32.4-14.506,32.4-32.398   S268.88,182.953,250.986,182.953z M225.669,167.083l-35.748,40.502c-1.104-0.554-2.346-0.873-3.666-0.873   c-0.162,0-0.321,0.015-0.48,0.024l-3.893-11.825l6.14-3.794c0.832-0.514,1.314-1.371,1.399-2.276l2.528-1.562   c0.166-0.103,0.302-0.232,0.421-0.374c5.081-3.103,6.704-4.805,6.247-6.701c6.881-3.42,22.374-11.665,26.705-13.975   L225.669,167.083z M186.771,184.375c1.359,0,2.526-0.188,3.572-0.473l0.071,0.148c-0.122,0.042-0.242,0.096-0.356,0.167   l-2.529,1.563c-0.847-0.328-1.829-0.28-2.66,0.233l-4.916,3.038l-2.225-6.759C181.501,183.817,184.419,184.375,186.771,184.375z    M177.919,196.303l3.865,11.741c-1.7,1.108-2.957,2.832-3.469,4.854l-1.774,0.019c-0.357-4.802-1.757-9.312-3.979-13.303   L177.919,196.303z M150.581,213.197l16.251-10.043c1.609,2.974,2.644,6.302,2.965,9.836L150.581,213.197z M144.255,241   c-14.168,0-25.654-11.486-25.654-25.654s11.486-25.654,25.654-25.654c8.249,0,15.583,3.898,20.276,9.947l-16.652,10.291   c-1.026-0.684-2.258-1.082-3.583-1.082c-3.577,0-6.477,2.898-6.477,6.477c0,1.133,0.292,2.195,0.803,3.122   c-1.199,0.485-2.046,1.657-2.046,3.03c0,1.809,1.465,3.272,3.273,3.272c1.736,0,3.142-1.354,3.252-3.063   c0.388,0.073,0.787,0.115,1.196,0.115c2.851,0,5.266-1.844,6.131-4.4l19.409-0.211C168.891,230.496,157.803,241,144.255,241z    M251,241c-14.168,0-25.654-11.486-25.654-25.654c0-8.585,4.223-16.18,10.697-20.836l9.844,23.625   c0.479,1.152,1.596,1.848,2.771,1.848c0.385,0,0.774-0.074,1.153-0.231c1.182-0.492,1.873-1.651,1.836-2.86   c0.604-0.252,1.026-0.849,1.026-1.543c0-0.924-0.749-1.673-1.673-1.673c-0.154,0-0.302,0.028-0.443,0.067l-9.23-22.155   c2.986-1.217,6.251-1.894,9.675-1.894c14.168,0,25.654,11.487,25.654,25.655S265.168,241,251,241z"/>
	<path fill="#000000" d="M152.929,151.744c1.767,0,6.688,2.65,9.022,2.65s6.94-2.335,8.265-2.335c1.325,0,6.688,1.263,9.969,1.263   c3.281,0-1.073-3.407-3.659-3.407c-2.587,0-23.977,0-23.977,0C151.159,149.915,151.162,151.744,152.929,151.744z"/>
</g>
</svg>