<?xml version="1.0" encoding="utf-8"?>
<!-- Generator: Adobe Illustrator 15.1.0, SVG Export Plug-In . SVG Version: 6.00 Build 0)  -->
<!DOCTYPE svg PUBLIC "-//W3C//DTD SVG 1.1//EN" "http://www.w3.org/Graphics/SVG/1.1/DTD/svg11.dtd">
<svg version="1.1" id="Layer_1" xmlns="http://www.w3.org/2000/svg" xmlns:xlink="http://www.w3.org/1999/xlink" x="0px" y="0px"
	 width="59px" height="100px" viewBox="0 0 59 100" enable-background="new 0 0 59 100" xml:space="preserve">
<path d="M29.5,20.5c-3.533,0-6.923,0.626-10.064,1.77c3.453-4.817,7.758-9.96,12.983-15.534l-0.008-0.007
	C33.082,6.013,33.5,5.058,33.5,4c0-2.209-1.79-4-4-4c-1.15,0-2.18,0.493-2.91,1.271l-0.007-0.006
	C12.752,16.017,4.805,28.292,1.844,39.737C0.654,42.935,0,46.392,0,50c0,16.268,13.232,29.5,29.5,29.5
	c3.533,0,6.923-0.626,10.064-1.77c-3.453,4.815-7.758,9.959-12.983,15.533l0.008,0.008C25.918,93.986,25.5,94.941,25.5,96
	c0,2.209,1.79,4,4,4c1.15,0,2.18-0.492,2.91-1.271l0.007,0.008c13.831-14.754,21.78-27.029,24.739-38.473
	C58.346,57.064,59,53.607,59,50C59,33.733,45.768,20.5,29.5,20.5z"/>
</svg>
