<svg xmlns="http://www.w3.org/2000/svg" xmlns:xlink="http://www.w3.org/1999/xlink" version="1.1" id="Calque_1" x="0px" y="0px" width="100px" height="100px" viewBox="0 0 100 100" enable-background="new 0 0 100 100" xml:space="preserve">
<g>
	<path fill="#000000" d="M86.662,80.784L73.988,14.644l-0.054-0.216l-1.551-4.663l-0.226-1.16c-0.118-0.59-0.509-1.099-1.056-1.348   c-0.541-0.258-1.182-0.231-1.709,0.071c-6.062,3.474-14.387,2.953-23.193,3.422c-8.742,0.471-18.209,2.274-25.594,11.325   c-0.354,0.433-0.499,1.002-0.393,1.541l0.018,0.074c-0.167-0.022-0.313-0.062-0.488-0.067c-0.39,0-0.814,0.045-1.252,0.129   c-3.755,0.728-4.354,4.218-4.247,5.198c0,0.269,0.018,0.452,0.031,0.524c0.126,0.825,0.831,1.418,1.648,1.418   c0.085,0,0.166-0.006,0.257-0.02c0.915-0.144,1.536-1,1.394-1.912V28.95c0.103-0.584-0.004-1.591,1.581-1.921   c0.216-0.04,0.404-0.058,0.588-0.058c0.582,0.009,0.921,0.196,1.212,0.444l0.417,2.143c-0.161-0.015-0.302-0.059-0.474-0.062   c-0.39,0-0.812,0.047-1.252,0.127c-3.758,0.726-4.356,4.212-4.253,5.193c0,0.275,0.022,0.459,0.033,0.527   c0.13,0.827,0.837,1.416,1.65,1.416c0.089,0,0.173-0.01,0.253-0.021c0.92-0.14,1.543-0.994,1.402-1.905v-0.017   c0.1-0.582-0.018-1.588,1.578-1.909c0.218-0.049,0.405-0.063,0.588-0.063c0.578,0.012,0.905,0.197,1.197,0.434l0.417,2.143   c-0.153-0.008-0.296-0.051-0.465-0.057c-0.39,0-0.812,0.041-1.253,0.138c-3.749,0.723-4.35,4.205-4.25,5.188   c0,0.27,0.025,0.455,0.037,0.522c0.123,0.828,0.837,1.423,1.65,1.423c0.089,0,0.172-0.009,0.259-0.021   c0.911-0.146,1.538-1.001,1.396-1.915v-0.009c0.1-0.581-0.019-1.587,1.578-1.912c0.218-0.051,0.399-0.065,0.582-0.065   c0.564,0.006,0.896,0.188,1.184,0.422l0.422,2.169c-0.15-0.015-0.282-0.06-0.448-0.06c-0.39,0-0.806,0.037-1.251,0.125   c-3.755,0.724-4.354,4.204-4.252,5.188c0,0.255,0.015,0.433,0.03,0.485c0.1,0.842,0.821,1.468,1.652,1.468   c0.071,0,0.144-0.01,0.216-0.018c0.911-0.12,1.564-0.958,1.45-1.872c-0.006,0-0.006-0.063-0.006-0.063   c0.103-0.59-0.022-1.579,1.576-1.906c0.209-0.048,0.401-0.068,0.584-0.068c0.551,0.013,0.884,0.188,1.167,0.413l0.422,2.176   c-0.145-0.015-0.276-0.052-0.434-0.059c-0.395,0-0.817,0.04-1.256,0.132c-3.745,0.72-4.345,4.203-4.247,5.18   c0,0.275,0.021,0.467,0.031,0.527c0.129,0.832,0.843,1.422,1.651,1.422c0.087,0,0.17-0.006,0.259-0.015   c0.911-0.141,1.538-1.001,1.396-1.912v-0.022c0.098-0.582-0.015-1.576,1.578-1.905c0.219-0.047,0.41-0.067,0.588-0.067   c0.547,0.012,0.871,0.184,1.152,0.405l0.422,2.186c-0.141-0.019-0.267-0.056-0.416-0.06c-0.393,0-0.809,0.037-1.252,0.129   c-3.755,0.72-4.354,4.208-4.253,5.185c0,0.275,0.024,0.467,0.036,0.528c0.121,0.83,0.84,1.424,1.646,1.424   c0.083,0,0.17-0.008,0.255-0.022c0.917-0.138,1.545-1,1.407-1.906v-0.023c0.098-0.585-0.023-1.581,1.57-1.908   c0.219-0.046,0.411-0.062,0.591-0.062c0.536,0.009,0.854,0.177,1.135,0.387l0.427,2.197c-0.141-0.009-0.261-0.054-0.406-0.054   c-0.396,0-0.813,0.045-1.25,0.125c-3.766,0.726-4.354,4.223-4.259,5.196c0,0.258,0.014,0.431,0.026,0.487   c0.114,0.843,0.825,1.451,1.655,1.451c0.072,0,0.15,0,0.227-0.009c0.909-0.127,1.558-0.967,1.438-1.881   c-0.005,0-0.005-0.049-0.005-0.049c0.098-0.582-0.014-1.587,1.579-1.914c0.218-0.051,0.404-0.062,0.588-0.062   c0.521,0.012,0.837,0.166,1.112,0.369l0.429,2.202c-0.135-0.01-0.251-0.047-0.397-0.047c-0.39,0-0.812,0.041-1.253,0.132   c-3.745,0.719-4.348,4.207-4.25,5.186c0,0.276,0.025,0.458,0.034,0.526c0.133,0.828,0.846,1.419,1.651,1.419   c0.089,0,0.174-0.009,0.261-0.018c0.911-0.143,1.536-1.002,1.397-1.906c0-0.013,0-0.021,0-0.021   c0.101-0.579-0.016-1.583,1.577-1.912c0.22-0.047,0.406-0.062,0.582-0.062c0.521,0.011,0.834,0.166,1.109,0.366l0.427,2.213   c-0.124-0.01-0.23-0.044-0.373-0.047c-0.392,0-0.812,0.031-1.25,0.124c-3.756,0.719-4.359,4.207-4.255,5.188   c0,0.275,0.027,0.461,0.033,0.53c0.123,0.828,0.832,1.421,1.649,1.421c0.085,0,0.165-0.008,0.254-0.021   c0.918-0.142,1.545-0.999,1.407-1.904c-0.011,0,0-0.026,0-0.026c0.099-0.576-0.021-1.579,1.571-1.906   c0.224-0.048,0.406-0.063,0.59-0.063c0.505,0.009,0.817,0.157,1.087,0.345l0.427,2.234c-0.123-0.011-0.228-0.046-0.359-0.046   c-0.396,0-0.812,0.035-1.248,0.13c-3.761,0.713-4.359,4.196-4.256,5.18c0,0.277,0.021,0.452,0.033,0.527   c0.13,0.821,0.837,1.415,1.65,1.415c0.087,0,0.172-0.005,0.261-0.021c0.904-0.14,1.531-0.991,1.394-1.905v-0.017   c0.101-0.588-0.009-1.582,1.579-1.904c0.213-0.055,0.404-0.066,0.587-0.066c0.491,0.004,0.798,0.147,1.069,0.336l0.431,2.233   c-0.118-0.006-0.219-0.035-0.347-0.043c-0.391,0-0.817,0.037-1.252,0.131c-3.759,0.718-4.354,4.213-4.252,5.188   c0,0.262,0.013,0.427,0.023,0.484l0.127,0.653c0.062,0.23,1.012,3.74,4.914,3.861c0.391,0,0.771-0.046,1.162-0.115   c0.696-0.138,1.251-0.384,1.75-0.667c0.12,0.47,0.442,0.882,0.874,1.097c0.244,0.123,0.511,0.182,0.777,0.182   c0.217,0,0.443-0.044,0.646-0.121c5.062-2.103,15.21-3.482,25.089-4.864c9.941-1.432,19.548-2.778,24.667-5.565   C86.459,82.235,86.8,81.505,86.662,80.784z M80.51,66.812l-3.813,2.348l-1.106-5.394l3.879-2.393L80.51,66.812z M78.714,57.443   l-3.923,2.416l-1.105-5.394l3.989-2.452L78.714,57.443z M76.926,48.083l-4.043,2.48l-1.104-5.394l4.1-2.52L76.926,48.083z    M74.08,33.278l1.049,5.434l-4.152,2.554l-1.102-5.396L74.08,33.278z M72.04,22.611l1.292,6.74l-4.262,2.616l-1.593-7.771   L72.04,22.611z M31.396,89.255c-0.22,0.042-0.406,0.054-0.548,0.054c-0.698-0.012-0.968-0.266-1.286-0.621   c-0.143-0.184-0.255-0.385-0.315-0.524c-0.063-0.141-0.054-0.164-0.063-0.164l-0.061-0.332c0,0.011,0-0.01,0-0.01   c0.102-0.578-0.014-1.588,1.569-1.911c0.224-0.046,0.414-0.066,0.596-0.066c0.483,0.007,0.791,0.15,1.057,0.327l0.469,2.428   C32.558,88.795,32.137,89.125,31.396,89.255z M60.671,84.794c-8.009,1.133-16.122,2.193-22.062,3.817   c5.94-4.792,12.19-5.342,18.794-5.372c2.024,0,4.07,0.06,6.107,0.06c5.185,0,9.332-0.86,14.066-3.895   c0.64-0.413,0.973-1.187,0.823-1.943l-0.9-4.395l3.767-2.318l1.808,9.409C78.617,82.127,69.7,83.548,60.671,84.794z"/>
</g>
</svg>