<svg xmlns="http://www.w3.org/2000/svg" xmlns:xlink="http://www.w3.org/1999/xlink" version="1.1" id="Calque_1" x="0px" y="0px" width="100px" height="100px" viewBox="0 0 100 100" enable-background="new 0 0 100 100" xml:space="preserve">
<g>
	<path d="M95.705,36.46c-0.004-0.002-1.844-1.618-3.584-3.583c-1.426-1.608-3.01-3.482-4.418-4.987   c-0.705-0.757-1.361-1.42-1.98-1.942c-0.166-0.121-0.314-0.243-0.465-0.359c0.252-0.228,0.496-0.455,0.727-0.677   c1.527-1.532,2.504-3.002,2.545-3.059c0.516-0.772,0.305-1.813-0.467-2.328c-0.771-0.517-1.812-0.309-2.332,0.466   c0,0-0.191,0.29-0.57,0.775c-0.561,0.725-1.506,1.825-2.559,2.683c-0.412,0.346-0.83,0.617-1.242,0.845   c-0.49-0.135-1.051-0.248-1.697-0.281c-1.002-0.024-2.193,0.419-3.061,1.323c-0.062,0.104-0.834,0.576-2.109,0.954   c-3.871,1.225-12.211,2.294-24.704,2.286c-8.353,0-11.945-0.459-14.406-0.904c-2.437-0.443-4.126-0.968-8.002-0.96   c-3.831,0.013-6.072,0.311-7.788,1.164c-1.753,0.875-2.496,2.367-3.049,3.498c-0.017,0.031-0.024,0.064-0.039,0.094   c-0.019,0.043-0.039,0.087-0.053,0.131c-0.442,1.007-0.59,2.083-0.603,3.199c-0.252,1.203-0.601,2.694-1.058,4.345   c-1.122,4.071-2.957,9.021-5.517,12.451c-0.627,0.649-3.924,4.067-5.804,7.786c-0.325,0.649-0.196,1.427,0.316,1.94   c0.322,0.321,0.751,0.494,1.188,0.494c0.255,0,0.512-0.058,0.751-0.179c4.06-2.155,5.858-6.906,6.324-8.143   c2.255-3.101,3.9-6.917,5.072-10.453c0.589,2.491,1.125,4.819,1.107,5.89c-0.001,1.58-0.377,2.727-0.845,4.134   c-0.465,1.392-1.024,3.048-1.021,5.201c0.026,4.165,1.913,11.536,1.919,11.612l1.865,7.467c0.187,0.749,0.859,1.271,1.631,1.271   h1.868c0.539,0,1.046-0.258,1.362-0.694c0.313-0.44,0.401-1.003,0.233-1.515c-0.005-0.004-0.46-1.371-0.915-2.966   c-0.458-1.552-0.895-3.494-0.869-3.971c-0.002-1.275,0.195-2.532,0.523-3.699c0.714,0.239,1.391,0.405,2.039,0.512l0.665,2.661   c0.189,0.764,0.874,1.271,1.627,1.271c0.135,0,0.271-0.017,0.408-0.052c0.901-0.223,1.447-1.134,1.226-2.036l-0.489-1.951   c1.275-0.348,2.3-1.029,3.051-1.851l1.409,0.939c0.286,0.192,0.61,0.283,0.931,0.283c0.544,0,1.078-0.265,1.401-0.752   c0.513-0.77,0.307-1.813-0.468-2.329l-1.643-1.093c0.196-0.606,0.312-1.167,0.389-1.646c3.255,0.634,6.576,2.045,11.526,2.086   c3.554-0.009,7.217-1.104,10.417-2.144c3.145-1.052,6.006-2.021,7.021-1.974c0.021,0,0.043,0,0.061,0   c0.178,0.51,0.492,1.896,0.652,3.472c0.703,5.933,0.703,15.753,0.703,15.77c0,0.44,0.182,0.874,0.494,1.188   c0.316,0.312,0.748,0.489,1.186,0.489h1.869c0.453,0,0.873-0.172,1.191-0.489c0.318-0.319,0.49-0.741,0.49-1.191v-5.478   l1.67-11.702c1.355-0.348,2.533-1.136,3.525-2.082c3.959-3.823,6.344-10.979,7.697-13.593c0.17-0.354,0.621-0.733,1.531-1.012   c0.883-0.277,2.09-0.398,3.27-0.395c1.178,0,2.344,0.109,3.195,0.218c0.857,0.111,1.371,0.218,1.373,0.218   c0.74,0.147,1.494-0.221,1.834-0.897l1.869-3.734C96.443,37.791,96.283,36.969,95.705,36.46z M30.673,61.037   c-0.006,0.013-0.016,0.021-0.023,0.028c-0.066,0.103-0.119,0.207-0.163,0.315c-0.067,0.121-0.127,0.248-0.204,0.356   c-0.59,0.782-1.201,1.296-2.705,1.33c-0.608,0-1.38-0.112-2.322-0.409c0.936-1.731,2.248-2.773,2.533-2.763   c1.245-0.312,2.343-0.442,3.378-0.463C31.073,59.93,30.918,60.503,30.673,61.037z M55.814,55.251   c-0.062,0.022-4.932,2.951-9.677,2.974c-0.373,0-0.745-0.019-1.109-0.057c-7.908-0.926-11.172-4.911-14.559-4.79   c-0.343,0-0.692,0.036-1.053,0.109c-0.452,0.093-0.9-0.201-0.99-0.656c-0.095-0.454,0.196-0.899,0.655-0.992   c0.473-0.099,0.938-0.142,1.388-0.142c4.606,0.127,7.357,4.024,14.739,4.798c0.304,0.033,0.612,0.049,0.929,0.049   c2.021,0.002,4.257-0.673,5.962-1.365c1.705-0.689,2.859-1.371,2.863-1.375c0.398-0.231,0.914-0.099,1.15,0.301   C56.35,54.502,56.211,55.018,55.814,55.251z M86.195,33.992c-0.516,0-0.936-0.418-0.936-0.934c0-0.517,0.42-0.933,0.936-0.933   s0.934,0.416,0.934,0.933C87.129,33.574,86.711,33.992,86.195,33.992z"/>
</g>
</svg>