<svg xmlns="http://www.w3.org/2000/svg" xmlns:xlink="http://www.w3.org/1999/xlink" version="1.1" id="Calque_1" x="0px" y="0px" width="100px" height="100px" viewBox="0 0 100 100" enable-background="new 0 0 100 100" xml:space="preserve">
<path d="M89.088,44.474c0-0.042-0.01-0.083-0.013-0.126c-0.005-0.093-0.011-0.186-0.027-0.276c-0.011-0.063-0.027-0.124-0.044-0.186  c-0.021-0.083-0.044-0.167-0.074-0.247c-0.026-0.07-0.059-0.136-0.092-0.204c-0.032-0.065-0.064-0.131-0.103-0.193  c-0.044-0.073-0.095-0.141-0.147-0.209c-0.04-0.052-0.079-0.103-0.123-0.151c-0.023-0.025-0.04-0.054-0.064-0.078  c-0.038-0.038-0.084-0.067-0.124-0.102c-0.051-0.044-0.102-0.088-0.156-0.128c-0.072-0.053-0.147-0.099-0.226-0.144  c-0.055-0.031-0.108-0.062-0.166-0.089c-0.094-0.044-0.189-0.079-0.288-0.11c-0.032-0.01-0.06-0.027-0.093-0.036l-27.209-7.422  l-2.245-16.841h13.327v5.523c0,1.305,1.059,2.365,2.367,2.365c1.305,0,2.363-1.061,2.363-2.365v-7.887  c0-0.055-0.012-0.108-0.016-0.162c-0.005-0.07-0.01-0.14-0.021-0.209c-0.015-0.09-0.037-0.177-0.062-0.264  c-0.016-0.057-0.03-0.112-0.051-0.167c-0.032-0.089-0.072-0.175-0.115-0.259c-0.025-0.052-0.051-0.103-0.081-0.152  c-0.048-0.08-0.102-0.154-0.159-0.229c-0.037-0.048-0.074-0.096-0.115-0.141c-0.025-0.028-0.045-0.061-0.072-0.088  c-0.043-0.042-0.092-0.074-0.137-0.112c-0.043-0.037-0.084-0.073-0.13-0.106c-0.089-0.066-0.181-0.123-0.276-0.175  c-0.025-0.014-0.046-0.032-0.072-0.045l-15.77-7.885c-0.32-0.164-0.697-0.251-1.055-0.251H42.054c-0.362,0-0.734,0.087-1.058,0.251  l-15.768,7.879c-0.053,0.027-0.098,0.063-0.148,0.094c-0.059,0.035-0.116,0.069-0.171,0.109c-0.07,0.05-0.134,0.104-0.196,0.16  c-0.033,0.029-0.07,0.052-0.101,0.083c-0.021,0.021-0.035,0.046-0.055,0.067c-0.058,0.062-0.11,0.128-0.16,0.196  c-0.041,0.054-0.08,0.107-0.115,0.165c-0.048,0.077-0.088,0.157-0.127,0.238c-0.026,0.056-0.052,0.11-0.074,0.167  c-0.032,0.085-0.057,0.172-0.079,0.261c-0.016,0.061-0.031,0.121-0.042,0.183c-0.015,0.086-0.021,0.172-0.026,0.26  c-0.002,0.044-0.013,0.088-0.013,0.133v7.887c0,1.305,1.058,2.365,2.365,2.365c1.305,0,2.366-1.061,2.366-2.365h-0.004v-5.523h13.33  l-2.245,16.841L12.522,42.19c-0.054,0.015-0.102,0.041-0.154,0.06c-0.065,0.023-0.13,0.046-0.194,0.075  c-0.084,0.038-0.163,0.082-0.241,0.129c-0.054,0.032-0.106,0.064-0.157,0.101c-0.076,0.054-0.146,0.113-0.214,0.175  c-0.028,0.026-0.062,0.046-0.089,0.073c-0.018,0.018-0.03,0.04-0.048,0.058c-0.06,0.063-0.113,0.131-0.165,0.201  c-0.041,0.054-0.081,0.107-0.116,0.165c-0.046,0.074-0.085,0.152-0.124,0.231c-0.027,0.057-0.054,0.112-0.077,0.17  c-0.034,0.088-0.059,0.178-0.082,0.271c-0.014,0.056-0.029,0.111-0.039,0.168c-0.017,0.094-0.023,0.188-0.028,0.285  c-0.002,0.041-0.012,0.081-0.012,0.122v7.886c0,1.305,1.057,2.363,2.365,2.363c1.304,0,2.364-1.059,2.364-2.363v-5.521h8.437  c-0.01,0.088-0.026,0.173-0.026,0.264v5.257c0,1.305,1.058,2.363,2.365,2.363c1.304,0,2.365-1.059,2.365-2.363v-5.257  c0-0.09-0.017-0.176-0.027-0.264h9.499L31.826,94.09c-0.173,1.295,0.735,2.485,2.031,2.659c1.213,0.159,2.321-0.634,2.601-1.799  l13.48-7.352l13.474,7.35c0.25,1.064,1.199,1.82,2.289,1.82c0.102,0,0.209-0.006,0.312-0.02c1.293-0.174,2.205-1.364,2.033-2.659  l-6.3-47.251h9.498c-0.01,0.088-0.026,0.173-0.026,0.264v5.257c0,1.305,1.061,2.363,2.369,2.363c1.305,0,2.363-1.059,2.363-2.363  v-5.257c0-0.09-0.017-0.176-0.026-0.264h8.435v5.521c0,1.305,1.061,2.363,2.367,2.363s2.365-1.059,2.365-2.363L89.088,44.474z   M55.613,46.918l-5.676,4.865l-5.677-4.866l0.065-0.078h11.222L55.613,46.918z M48.269,42.106l1.667-2l1.667,2H48.269z   M46.715,31.313l3.22-4.023l3.223,4.026l-2.424,2.908h-1.593L46.715,31.313z M49.936,22.245l-3.225-4.032l0.038-0.281h6.373  l0.038,0.286L49.936,22.245z M53.736,22.542l0.712,5.345l-2.494-3.119L53.736,22.542z M47.917,24.768l-2.495,3.118l0.712-5.346  L47.917,24.768z M55.23,33.753l0.063,0.472h-0.456L55.23,33.753z M44.64,33.752l0.394,0.472h-0.457L44.64,33.752z M43.947,38.951  h2.848l-2.629,3.155h-0.639L43.947,38.951z M42.529,49.589l4.984,4.272l-6.27,5.374L42.529,49.589z M49.935,55.938l7.903,6.773  l-7.902,5.269l-7.903-5.27L49.935,55.938z M40.418,65.427l6.673,4.449l-7.975,5.316L40.418,65.427z M49.936,71.772l10.093,6.729  l-10.093,5.507L39.84,78.502L49.936,71.772z M52.78,69.876l6.674-4.448l1.303,9.767L52.78,69.876z M52.359,53.86l4.983-4.271  l1.286,9.646L52.359,53.86z M55.709,42.106l-2.629-3.155h2.844l0.421,3.155H55.709z M42.61,10.049h14.652l6.312,3.157h-8.37  c-0.004,0-0.007-0.001-0.011-0.001H44.679c-0.003,0-0.007,0.001-0.011,0.001h-8.371L42.61,10.049z M30.804,42.106l8.252-2.251  l-0.3,2.251H30.804z M37,91.064l1.308-9.81l8.338,4.548L37,91.064z M61.565,81.257l1.307,9.806l-9.644-5.259L61.565,81.257z   M60.816,39.855l8.251,2.251h-7.951L60.816,39.855z"/>
</svg>