<svg xmlns="http://www.w3.org/2000/svg" xmlns:xlink="http://www.w3.org/1999/xlink" version="1.1" id="Calque_1" x="0px" y="0px" width="100px" height="100px" viewBox="0 0 100 100" enable-background="new 0 0 100 100" xml:space="preserve">
<g>
	<path d="M65.768,58.107h-1.582V7.556c0-0.178-0.072-4.35-6.326-4.35c-6.257,0-6.328,4.172-6.328,4.35v39.151h-3.163V7.556   c0-0.178-0.072-4.35-6.326-4.35c-6.256,0-6.328,4.172-6.328,4.35v50.552h-1.582c-1.566,0-2.837,1.27-2.837,2.836v7.911   c0,0.752,0.299,1.474,0.832,2.006l7.907,7.906c0.396,0.396,2.383,2.122,7.061,2.65l-3.776,1.618   c-0.904,0.388-1.322,1.434-0.936,2.337c0.29,0.676,0.946,1.079,1.637,1.079c0.234,0,0.472-0.047,0.7-0.144l13.841-5.933   c0.591-0.253,0.969-0.79,1.056-1.383c0.11-0.094,0.195-0.173,0.249-0.226l7.908-7.909c0.531-0.531,0.831-1.253,0.831-2.005v-7.909   C68.604,59.377,67.334,58.107,65.768,58.107z M40.46,8.154c0.264-0.094,0.768-0.202,1.582-0.202c0.813,0,1.316,0.108,1.581,0.202   V49.08c0,1.31,1.062,2.372,2.372,2.372h7.909c1.31,0,2.372-1.062,2.372-2.372V8.154c0.265-0.094,0.769-0.202,1.583-0.202   c0.813,0,1.316,0.108,1.58,0.202v49.953H40.46V8.154z"/>
	<path d="M57.158,83.035l-13.84,5.933c-0.904,0.387-1.322,1.433-0.936,2.337c0.29,0.675,0.946,1.078,1.637,1.078   c0.234,0,0.472-0.046,0.7-0.144l13.841-5.932c0.903-0.387,1.321-1.434,0.935-2.337C59.108,83.065,58.06,82.651,57.158,83.035z"/>
	<path d="M53.106,90.988l-3.952,1.979c-0.879,0.44-1.234,1.51-0.795,2.39c0.312,0.622,0.94,0.982,1.593,0.982   c0.268,0,0.54-0.061,0.795-0.188l3.954-1.979c0.878-0.44,1.233-1.51,0.795-2.389C55.055,90.906,53.987,90.552,53.106,90.988z"/>
</g>
</svg>