<?xml version="1.0" encoding="utf-8"?>
<!-- Generator: Adobe Illustrator 15.1.0, SVG Export Plug-In . SVG Version: 6.00 Build 0)  -->
<!DOCTYPE svg PUBLIC "-//W3C//DTD SVG 1.1//EN" "http://www.w3.org/Graphics/SVG/1.1/DTD/svg11.dtd">
<svg version="1.1" id="Layer_1" xmlns="http://www.w3.org/2000/svg" xmlns:xlink="http://www.w3.org/1999/xlink" x="0px" y="0px"
	 width="100px" height="93px" viewBox="0 0 100 93" enable-background="new 0 0 100 93" xml:space="preserve">
<path d="M95.113,0H18.887C16.188,0,14,2.239,14,5v5H3c-1.657,0-3,1.343-3,3v23c0,1.657,1.343,3,3,3h51v14h-4v33c0,3.866,3.135,7,7,7
	c3.866,0,7-3.134,7-7V53h-4V36c0-1.657-1.343-3-3-3H6V16h8v5c0,2.761,2.188,5,4.887,5h76.227c2.699,0,4.887-2.239,4.887-5V5
	C100,2.239,97.812,0,95.113,0z"/>
</svg>
