<svg xmlns="http://www.w3.org/2000/svg" xmlns:xlink="http://www.w3.org/1999/xlink" version="1.1" id="Calque_1" x="0px" y="0px" width="100px" height="100px" viewBox="0 0 100 100" enable-background="new 0 0 100 100" xml:space="preserve">
<g>
	<path d="M18.736,62.948c-2.909,0-5.275,2.366-5.275,5.275c0,2.908,2.367,5.275,5.275,5.275s5.275-2.367,5.275-5.275   C24.012,65.314,21.645,62.948,18.736,62.948z M18.736,71.182c-1.634,0-2.958-1.325-2.958-2.958c0-1.634,1.324-2.958,2.958-2.958   s2.958,1.324,2.958,2.958C21.694,69.856,20.37,71.182,18.736,71.182z"/>
	<circle cx="18.736" cy="68.223" r="0.833"/>
	<path d="M55.528,30.363c-1.459,0-2.642,0.688-2.642,1.537h5.282C58.169,31.051,56.986,30.363,55.528,30.363z"/>
	<path d="M68.06,30.363c-1.458,0-2.641,0.688-2.641,1.537H70.7C70.7,31.051,69.519,30.363,68.06,30.363z"/>
	<path d="M70.282,62.948c-2.909,0-5.275,2.366-5.275,5.275c0,2.908,2.366,5.275,5.275,5.275c2.908,0,5.275-2.367,5.275-5.275   C75.558,65.314,73.19,62.948,70.282,62.948z M70.282,71.182c-1.635,0-2.959-1.325-2.959-2.958c0-1.634,1.324-2.958,2.959-2.958   c1.633,0,2.958,1.324,2.958,2.958C73.24,69.856,71.915,71.182,70.282,71.182z"/>
	<circle cx="70.282" cy="68.223" r="0.833"/>
	<path d="M18.442,34.343H92.47c-0.068-1.202-0.969-1.916-2.441-1.916H21.011c-1.774,0-2.556,1.416-2.588,1.476   c-0.06,0.111-0.068,0.244-0.022,0.361C18.411,34.292,18.425,34.318,18.442,34.343z"/>
	<path d="M24.474,66.114c0,0.022-0.003,0.045-0.006,0.066l1.978,3.001c0.08,0.121,0.216,0.194,0.361,0.194h11.28V39.341H24.474   V66.114z M26.389,40.817h9.771c0.254,0,0.46,0.206,0.46,0.46l0.003,7.067H25.929l0-7.067   C25.929,41.023,26.135,40.817,26.389,40.817z M25.929,50.865c0-0.239,0.193-0.432,0.432-0.432c0.239,0,0.433,0.193,0.433,0.432   v1.872c0,0.239-0.194,0.433-0.433,0.433c-0.238,0-0.432-0.193-0.432-0.433V50.865z"/>
	<path d="M38.95,55.331h53.526v-4.257c0.167-0.052,0.288-0.205,0.288-0.388v-0.479c0-0.184-0.121-0.337-0.288-0.389v-11.72   c0.167-0.051,0.288-0.205,0.288-0.388V37.23c0-0.184-0.121-0.337-0.288-0.388v-2.066H19.081L14.91,51.071   c-0.13,0.064-0.326,0.161-0.567,0.28v-0.702c0-0.12-0.097-0.216-0.216-0.216c-0.119,0-0.216,0.097-0.216,0.216v0.917   c-1.514,0.75-4.028,1.995-4.683,2.323c-1.315,0.658-1.484,1.732-1.484,2.595v0.456c0.016-0.004,0.032-0.006,0.048-0.006H8.47   c0.119,0,0.216,0.097,0.216,0.217c0,0.119-0.097,0.216-0.216,0.216H7.792c-0.017,0-0.033-0.003-0.048-0.006v0.538   c0.016-0.003,0.032-0.006,0.048-0.006H8.47c0.119,0,0.216,0.098,0.216,0.217s-0.097,0.216-0.216,0.216H7.792   c-0.017,0-0.033-0.003-0.048-0.006v0.539c0.016-0.004,0.032-0.007,0.048-0.007H8.47c0.119,0,0.216,0.098,0.216,0.217   s-0.097,0.217-0.216,0.217H7.792c-0.017,0-0.033-0.003-0.048-0.007v0.539c0.016-0.003,0.032-0.006,0.048-0.006H8.47   c0.119,0,0.216,0.097,0.216,0.216s-0.097,0.217-0.216,0.217H7.792c-0.017,0-0.033-0.003-0.048-0.006v0.538   c0.016-0.003,0.032-0.006,0.048-0.006H8.47c0.119,0,0.216,0.097,0.216,0.216c0,0.12-0.097,0.217-0.216,0.217H7.792   c-0.017,0-0.033-0.002-0.048-0.006v0.539c0.016-0.004,0.032-0.006,0.048-0.006H8.47c0.119,0,0.216,0.097,0.216,0.216   s-0.097,0.216-0.216,0.216H7.792c-0.017,0-0.033-0.002-0.048-0.006v0.539c0.016-0.004,0.032-0.006,0.048-0.006H8.47   c0.119,0,0.216,0.097,0.216,0.216c0,0.12-0.097,0.216-0.216,0.216H7.792c-0.017,0-0.033-0.002-0.048-0.006v0.662   c-0.039-0.012-0.08-0.021-0.124-0.021h-1.2c-0.226,0-0.409,0.183-0.409,0.408v3.169c0,0.225,0.183,0.408,0.409,0.408h1.2   c0.226,0,0.408-0.184,0.408-0.408v-0.229h4.342c0.159,0,0.305-0.086,0.38-0.227l0.601-1.119c0.016-0.021,0.032-0.046,0.044-0.071   c0.057-0.12,0.118-0.235,0.183-0.351l0.017-0.03c1.042-1.832,3.016-2.995,5.141-2.995c1.952,0,3.771,0.962,4.874,2.568V38.909   c0-0.238,0.194-0.432,0.432-0.432h14.477c0.238,0,0.432,0.193,0.432,0.432V55.331z M10.363,62.942   c-0.385,0-0.696-0.764-0.696-1.705s0.312-1.705,0.696-1.705c0.384,0,0.696,0.764,0.696,1.705S10.748,62.942,10.363,62.942z    M11.155,58.382c0,0.107-0.087,0.195-0.196,0.195H9.863c-0.108,0-0.196-0.088-0.196-0.195v-0.439c0-0.107,0.088-0.195,0.196-0.195   h1.097c0.108,0,0.196,0.088,0.196,0.195V58.382z M22.408,48.85c0,0.492-0.4,0.893-0.893,0.893h-3.687   c-0.492,0-0.893-0.401-0.893-0.893c0-0.107,0.019-0.211,0.055-0.31l2.564-10.502c0.166-0.646,0.743-1.094,1.406-1.094   c0.8,0,1.45,0.65,1.45,1.45L22.408,48.85z"/>
	<path d="M92.86,66.04h-0.384v-1.989c0.167-0.052,0.288-0.205,0.288-0.389v-0.479c0-0.184-0.121-0.336-0.288-0.389v-6.6H38.95   v13.182h24.384c0.239,0,0.433-0.193,0.433-0.432v-0.721c0-3.711,2.922-6.73,6.516-6.73c3.593,0,6.516,3.02,6.516,6.74l0.014,0.712   c0.004,0.235,0.196,0.425,0.432,0.425h14.369v0.247c0,0.226,0.184,0.407,0.408,0.407h0.84c0.227,0,0.408-0.182,0.408-0.407v-3.169   C93.269,66.223,93.087,66.04,92.86,66.04z M87.075,64.552h-9.291c-0.119,0-0.217-0.098-0.217-0.217s0.098-0.216,0.217-0.216h9.291   c0.119,0,0.216,0.097,0.216,0.216S87.194,64.552,87.075,64.552z M87.075,62.967h-9.291c-0.119,0-0.217-0.097-0.217-0.216   s0.098-0.217,0.217-0.217h9.291c0.119,0,0.216,0.098,0.216,0.217S87.194,62.967,87.075,62.967z M87.075,61.382h-9.291   c-0.119,0-0.217-0.097-0.217-0.216c0-0.12,0.098-0.216,0.217-0.216h9.291c0.119,0,0.216,0.096,0.216,0.216   C87.291,61.285,87.194,61.382,87.075,61.382z"/>
</g>
</svg>