<svg xmlns="http://www.w3.org/2000/svg" xmlns:xlink="http://www.w3.org/1999/xlink" version="1.1" id="Calque_1" x="0px" y="0px" width="100px" height="100px" viewBox="0 0 100 100" enable-background="new 0 0 100 100" xml:space="preserve">
<g>
	<path d="M80.932,43.649c-0.789-0.789-2.078-1.277-3.977-1.273c-1.898-0.004-3.188,0.484-3.979,1.273   c-0.787,0.788-0.861,1.662-0.854,1.893l-0.627,16.915c-0.113,0.036-0.226,0.08-0.328,0.145l-13.888,8.584l-0.002-7.31   c0-0.524-0.279-1.019-0.73-1.285c-0.449-0.271-1.016-0.282-1.479-0.034L38.7,71.365v-7.489c0-0.524-0.279-1.017-0.73-1.285   c-0.452-0.271-1.016-0.282-1.48-0.034l-18.58,10c-0.607,0.326-0.912,1.019-0.744,1.688c0.168,0.667,0.768,1.132,1.455,1.132h0.048   v15.169c0,0.394,0.162,0.78,0.441,1.06c0.279,0.28,0.666,0.44,1.061,0.44c0,0,51.466-0.011,51.729-0.001   c0.019,0.001,0.037,0.001,0.056,0.001c0.803,0.001,1.469-0.638,1.498-1.444l1.66-44.847c0.103-0.094,0.5-0.366,1.842-0.377   c1.34,0.004,1.758,0.304,1.843,0.381L80.456,90.6c0.03,0.827,0.724,1.475,1.554,1.445c0.828-0.029,1.475-0.729,1.444-1.554v-0.002   l-1.667-45.001C81.794,45.312,81.721,44.438,80.932,43.649z"/>
	<path d="M60.17,30.99c2.275,0,4.434-0.366,6.379-1.022c1.057,1.146,2.479,1.994,4.105,2.48c-0.161,0.505-0.244,1.028-0.242,1.552   c-0.006,1.696,0.865,3.349,2.383,4.429c0.264,0.19,0.57,0.282,0.873,0.282c0.467,0,0.926-0.216,1.219-0.623   c0.483-0.673,0.331-1.609-0.342-2.093c-0.812-0.597-1.127-1.308-1.134-1.995c0.002-0.535,0.194-1.078,0.677-1.601   c0.391-0.421,0.512-1.024,0.305-1.562c-0.205-0.535-0.697-0.909-1.27-0.958c-2.23-0.188-4.025-1.27-4.816-2.514   c-0.393-0.605-1.158-0.846-1.828-0.573c-1.834,0.752-3.99,1.198-6.309,1.198c-4.854,0.014-8.996-1.957-10.908-4.506   c-0.861-1.137-1.304-2.349-1.306-3.626c0-0.829-0.672-1.502-1.5-1.502c-0.829,0-1.5,0.673-1.5,1.502   c-0.004,1.999,0.722,3.875,1.916,5.44C49.578,28.816,54.543,30.976,60.17,30.99z"/>
	<path d="M60.171,11.726c3.499-0.005,6.646,1.007,8.832,2.549c2.2,1.556,3.381,3.531,3.379,5.583v0.002   c0,0.401,0.157,0.777,0.44,1.062c0.283,0.283,0.658,0.438,1.061,0.438c1.797-0.002,3.395,0.561,4.479,1.388   c1.095,0.84,1.638,1.852,1.638,2.894c0.007,0.879-0.024,1.592-0.168,2.062c-0.156,0.475-0.306,0.734-0.847,1.1   c-0.491,0.312-0.756,0.878-0.68,1.458c0.03,0.246,0.121,0.475,0.258,0.67c0.131,0.427,0.443,0.882,0.75,1.051   c0.814,0.591,1.138,1.312,1.142,2.006c-0.004,0.565-0.212,1.139-0.756,1.682c-0.589,0.583-0.593,1.532-0.011,2.123   c0.293,0.296,0.681,0.444,1.066,0.444c0.381,0,0.764-0.145,1.055-0.434c1.072-1.055,1.65-2.437,1.646-3.815   c0.003-1.383-0.573-2.735-1.602-3.773c0.414-0.522,0.699-1.102,0.854-1.671c0.297-1.033,0.285-2.002,0.29-2.902   c0.002-2.152-1.159-4.031-2.825-5.282c-1.346-1.021-3.043-1.691-4.911-1.915c-0.457-2.669-2.178-4.977-4.533-6.623   c-2.777-1.945-6.487-3.091-10.559-3.095c-0.829,0-1.501,0.672-1.501,1.501C58.67,11.053,59.342,11.726,60.171,11.726z"/>
</g>
</svg>