<svg xmlns="http://www.w3.org/2000/svg" xmlns:xlink="http://www.w3.org/1999/xlink" version="1.1" id="Layer_1" x="0px" y="0px" width="100px" height="100px" viewBox="0 0 100 100" enable-background="new 0 0 100 100" xml:space="preserve">
<path d="M98.098,29.927c-0.665-3.008-2.901-5.712-3.078-5.976c-0.175-0.263-1.224-7.27-3.016-11.952  C89.302,4.942,84.75,0.976,84.302,1.981c-0.864,1.937,1.524,4.209,2.899,7.118c3.405,7.202,3.162,13.182,3.162,13.182  s-2.983,0.755-4.878,0.164c-2.977-0.931-6.625-3.389-7.951-4.559c-2.009-1.772-5.255-4.095-3.299,0.188  c0.887,1.947,1.939,3.905,9.714,7.458c2.682,1.226,7.031,1.009,7.908,5.888c0.722,4-1.1,6.541-9.815,11.415  c-12.848,7.183-18.041,6.336-18.566,5.546c-0.529-0.791-0.699-12.193-1.671-17.576c-0.394-2.175-1.346-5.302-3.163-7.821  c-2.201-3.053-5.449-4.57-5.979-3.779c-0.526,0.791,3.523,6.159,4.134,8.701c1.876,7.853,1.229,20.738,1.053,22.408  c-0.175,1.669-1.405,4.219-2.021,4.13C55.213,54.356,50,53.831,50,53.831s-5.213,0.525-5.829,0.613  c-0.614,0.089-1.844-2.461-2.02-4.13c-0.177-1.67-0.824-14.555,1.054-22.408c0.607-2.542,4.658-7.91,4.13-8.701  c-0.527-0.791-3.774,0.727-5.976,3.779c-1.816,2.519-2.77,5.646-3.163,7.821c-0.973,5.383-1.143,16.785-1.67,17.576  c-0.527,0.79-5.72,1.637-18.568-5.546c-8.717-4.875-10.536-7.415-9.816-11.415c0.878-4.878,5.228-4.662,7.909-5.888  c7.772-3.553,8.825-5.511,9.714-7.458c1.955-4.283-1.29-1.96-3.3-0.188c-1.325,1.17-4.972,3.628-7.952,4.559  c-1.892,0.591-4.877-0.164-4.877-0.164S9.393,16.301,12.8,9.1c1.376-2.909,3.762-5.181,2.9-7.118  C15.252,0.976,10.696,4.942,7.995,12c-1.792,4.682-2.84,11.689-3.017,11.952c-0.176,0.264-2.411,2.968-3.076,5.976  c-0.795,3.598-1.054,10.721,7.206,14.938c8.261,4.218,26.056,11.094,26.605,13.631c0,0-16.832-1.979-18.247-1.273  c-1.414,0.709,0,3.82,1.133,5.235c1.131,1.414,5.912,8.908,7.694,8.908c1.783,0,4.894-0.987,6.449-1.13  c1.556-0.142,2.971,1.13,2.971,1.13s-0.565,4.672,0,7.073c0.566,2.405,3.395,6.507,4.103,8.629c0.707,2.122,2.404,5.942,2.969,7.639  c0.567,1.699,3.396,2.971,4.527,3.254c1.131,0.281,4.244,0.281,5.376,0c1.132-0.283,3.961-1.555,4.525-3.254  c0.566-1.696,2.263-5.517,2.971-7.639s3.538-6.224,4.103-8.629c0.565-2.401,0-7.073,0-7.073s1.414-1.271,2.969-1.13  c1.558,0.143,4.669,1.13,6.451,1.13c1.781,0,6.563-7.494,7.694-8.908c1.132-1.415,2.546-4.526,1.132-5.235  c-1.417-0.706-18.246,1.273-18.246,1.273c0.548-2.537,18.344-9.413,26.604-13.631C99.15,40.648,98.892,33.525,98.098,29.927z"/>
</svg>