<svg xmlns="http://www.w3.org/2000/svg" xmlns:xlink="http://www.w3.org/1999/xlink" version="1.1" id="Layer_1" x="0px" y="0px" width="100px" height="100px" viewBox="0 0 100 100" enable-background="new 0 0 100 100" xml:space="preserve">
<g>
	<path d="M93.552,40.541c-1.074-5.269-3.114-10.17-5.869-14.583l4.223-4.221L78.528,8.358l-4.001,4.002   c-4.513-3.001-9.602-5.189-15.067-6.388V0H40.54v5.901C34.969,7.087,29.785,9.31,25.198,12.36l-4.002-4.002L7.817,21.735   l4.221,4.223c-2.75,4.413-4.793,9.314-5.864,14.583H0V59.46h6.427c1.22,5.326,3.362,10.293,6.298,14.703L7.817,79.07l13.379,13.379   l5.129-5.129c4.31,2.688,9.087,4.686,14.215,5.775V100h18.92v-6.976c5.022-1.101,9.71-3.067,13.94-5.706l5.128,5.128l13.377-13.379   l-4.906-4.906c2.932-4.411,5.08-9.378,6.295-14.701H100V40.541H93.552z M50.045,80.036c-16.485,0-29.852-13.366-29.852-29.852   S33.56,20.334,50.045,20.334s29.851,13.365,29.851,29.851S66.53,80.036,50.045,80.036z"/>
	<path d="M64.704,50.188c0,8.095-6.564,14.659-14.656,14.659c-8.098,0-14.662-6.564-14.662-14.659   c0-8.098,6.564-14.662,14.662-14.662C58.14,35.525,64.704,42.09,64.704,50.188z"/>
</g>
</svg>