<svg xmlns="http://www.w3.org/2000/svg" xmlns:xlink="http://www.w3.org/1999/xlink" version="1.1" id="Layer_1" x="0px" y="0px" width="100px" height="81.7391304348px" viewBox="0 0 115.157 94.56" enable-background="new 0 0 115.157 94.56" xml:space="preserve">
<path d="M65.13,0L15.157,86.507h100L65.13,0z M59.812,31.839c0.908-0.975,2.112-1.465,3.599-1.465c1.798,0,3.002,0.627,3.612,1.87  c0.61,1.247,0.909,3.043,0.909,5.39c0,1.385-0.073,2.784-0.221,4.212l-1.345,15.487c-0.148,1.845-0.463,3.258-0.944,4.244  c-0.488,0.984-1.276,1.478-2.385,1.478c-1.137,0-1.92-0.478-2.363-1.433c-0.44-0.953-0.752-2.404-0.94-4.352l-1.01-15.049  c-0.187-2.934-0.282-5.038-0.282-6.316C58.441,34.169,58.896,32.812,59.812,31.839z M66.522,76.687  c-0.946,0.841-2.04,1.26-3.303,1.26c-1.278,0-2.392-0.414-3.345-1.244c-0.954-0.826-1.434-1.982-1.434-3.469  c0-1.298,0.455-2.405,1.37-3.316c0.908-0.91,2.027-1.364,3.349-1.364c1.322,0,2.441,0.454,3.379,1.364  c0.932,0.911,1.393,2.019,1.393,3.316C67.932,74.701,67.463,75.85,66.522,76.687z"/>
<polygon points="9.631,89.461 53.317,13.835 49.973,8.052 0,94.56 100,94.56 97.052,89.461 "/>
</svg>