<svg xmlns="http://www.w3.org/2000/svg" xmlns:xlink="http://www.w3.org/1999/xlink" version="1.1" id="Layer_1" x="0px" y="0px" width="100px" height="100px" viewBox="-545.275 791.89 100 100" enable-background="new -545.275 791.89 100 100" xml:space="preserve">
<path fill="#000000" d="M-491.946,891.89c8.812,0,11.418-0.457,16.058-4.766c2.741-2.545,1.175-4.699,1.175-4.699  s1.544-1.697,0.445-4.243c1.317-2.807,0.338-5.417,0.077-5.548c0-2.48,0-31.071,0-31.071s1.044-0.914,1.044-2.741  s-0.914-2.285-0.914-2.285s0.914-0.587,0.914-2.415s-1.175-2.676-1.175-2.676s1.175-0.261,1.175-3.655  c0-1.502-0.652-2.48-0.652-2.48s1.24-3.003-2.872-9.856c-4.112-6.854-7.05-10.835-12.337-14.491c0-1.762,0-3.72,0-3.72h0.979  c0,0,0-2.285,0-3.264c0-0.979-0.652-2.089-2.938-2.089h-8.616c-2.285,0-2.938,1.109-2.938,2.089c0,0.979,0,3.264,0,3.264h0.979  c0,0,0,1.958,0,3.72c-5.288,3.656-8.225,7.637-12.337,14.491c-4.112,6.854-2.872,9.856-2.872,9.856s-0.653,0.979-0.653,2.48  c0,3.394,1.175,3.655,1.175,3.655s-1.175,0.849-1.175,2.676s0.914,2.415,0.914,2.415s-0.914,0.457-0.914,2.285  s1.044,2.741,1.044,2.741s0,28.59,0,31.071c-0.261,0.131-1.24,2.741,0.077,5.548c-1.098,2.546,0.445,4.243,0.445,4.243  s-1.566,2.154,1.175,4.699c4.64,4.309,7.245,4.766,16.057,4.766H-491.946z"/>
</svg>