<svg xmlns="http://www.w3.org/2000/svg" xmlns:xlink="http://www.w3.org/1999/xlink" version="1.1" id="Layer_1" x="0px" y="0px" width="100px" height="100px" viewBox="-545.275 791.89 100 100" enable-background="new -545.275 791.89 100 100" xml:space="preserve">
<path fill="#000000" d="M-462.189,829.644c-9.03,0-8.547,6.066-13.441,6.066c-4.896,0-4.274-5.721-4.274-5.721h1.861v-3.723h-3.91  c-2.855-5.971-8.461-10.359-15.186-11.527c0.585-0.763,0.945-1.706,0.945-2.742c0-2.499-2.026-4.525-4.526-4.525  c-2.5,0-4.525,2.026-4.525,4.525c0,1.036,0.362,1.979,0.948,2.742c-6.728,1.168-12.332,5.556-15.189,11.527h-0.256h-3.724v3.723  c0,0,0.689,0,1.93,0c0.896,0.896-1.034,7.444-3.034,6.961c-1.999-0.481-11.787-7.927-11.787-7.927l-7.167,6.135  c0,0,3.584,3.032,6.134,5.1c2.55,2.069,5.628,7.332,2.688,12.408c-3.822,6.599-1.123,14.002,3.999,15.991  c7.68,2.982,7.169,7.65,7.169,7.65h45.492c0-5.583,5.239-2.64,11.167-10.566c13.727,2.273,19.852-6.977,19.852-18.177  C-447.025,834.652-453.159,829.644-462.189,829.644z M-465.154,860.867c0,0,1.744-7.468-3.031-12.13  c-4.965-4.848-2.09-13.223,5.789-13.786c9.558-0.684,10.271,7.307,10.271,12.476C-452.126,854.015-454.65,862.14-465.154,860.867z"/>
</svg>