<svg xmlns="http://www.w3.org/2000/svg" xmlns:xlink="http://www.w3.org/1999/xlink" version="1.1" id="Layer_1" x="0px" y="0px" width="100px" height="100px" viewBox="0 0 100 100" enable-background="new 0 0 100 100" xml:space="preserve">
<path d="M87.855,13.118C79.58,5.738,68.35,2.924,58.141,7.94c-3.365,1.653-6.006,3.684-8.191,6.002  c-2.703-2.913-6.057-5.327-10.566-7.087C28.8,2.722,17.508,7.335,9.984,15.146c-8.918,9.26-10.868,22.127-8.06,34.38  c2.711,11.829,8.988,20.479,18.983,26.554c-0.827,1.939-1.653,3.881-2.48,5.821c-2.083,4.887-3.33,12.792,4.709,12.792  c4.796,0,6.245-4.234,7.796-7.875c0.643-1.506,1.285-3.014,1.927-4.521c0.059-0.138,7.385,1.328,8.194,1.423  c2.7,0.313,5.37,0.458,8.011,0.447c3.821,0.112,7.67-0.112,11.506-0.665c1.763-0.255,6.077-2.232,6.843-0.438  c0.651,1.526,1.301,3.054,1.952,4.579c1.459,3.425,3.018,7.05,7.444,7.05c8.443,0,6.61-8.33,4.507-13.267  c-0.753-1.769-1.507-3.536-2.26-5.304C100.449,63.844,107.17,30.34,87.855,13.118z M49.908,70.756  c-3.832-0.068-7.747-0.538-11.504-1.47c3.137-7.364,6.275-14.728,9.413-22.092c0.714-1.677,1.425-3.356,2.143-5.033  c0.622,1.443,1.255,2.879,1.871,4.325c3.233,7.591,6.469,15.183,9.703,22.772C57.742,70.213,53.788,70.692,49.908,70.756z   M14.847,32.772c1.715-6.807,8.772-14.058,16.16-14.058c5.503,0,8.932,3.112,11.448,7.127c-1.106,2.393-2.163,4.893-3.299,7.464  c-4.484,10.143-8.72,20.401-13.064,30.604c-3.354-2.34-6.159-5.33-8.081-9.062C14.646,48.313,13.025,39.999,14.847,32.772z   M82.611,53.453c-1.972,4.338-5.051,7.759-8.79,10.379c-0.165-0.386-0.329-0.771-0.493-1.156  c-4.546-10.667-9.01-21.373-13.694-31.979c-0.743-1.683-1.472-3.312-2.214-4.891c1.547-2.266,3.512-4.219,6.266-5.621  c8.033-4.088,17.421,2.409,20.58,10.044C87.261,37.472,85.764,46.52,82.611,53.453z"/>
</svg>