<svg xmlns="http://www.w3.org/2000/svg" xmlns:xlink="http://www.w3.org/1999/xlink" version="1.1" id="Layer_1" x="0px" y="0px" width="100px" height="100px" viewBox="-6.292 0 100 100" enable-background="new -6.292 0 100 100" xml:space="preserve">
<path d="M53.681,31.895h-7.943V2.486h4.037c0.391,0,0.707-0.316,0.707-0.707V0.603c0-0.391-0.316-0.707-0.707-0.707H37.693  c-0.391,0-0.708,0.316-0.708,0.707V1.78c0,0.39,0.317,0.707,0.708,0.707h4.037v29.409h-7.943c-0.39,0-0.708,0.316-0.708,0.707v0.526  c0,0.39,0.317,0.707,0.708,0.707h4.429v37.427c0,1.35,1.098,2.448,2.447,2.448h1.45v4.358c0,0.39,0.316,0.707,0.707,0.707h0.105  v18.151l1.618,2.969v-21.12h0.105c0.391,0,0.707-0.317,0.707-0.707V73.71h1.449c1.35,0,2.447-1.099,2.447-2.448V33.835h4.429  c0.39,0,0.706-0.316,0.706-0.707v-0.526C54.387,32.211,54.07,31.895,53.681,31.895z M43.032,2.486h1.403v29.409h-1.403V2.486z   M46.978,66.736h0.973v3.948h-8.432V41.292c0.074,0.048,0.156,0.083,0.25,0.083h7.931c0.095,0,0.178-0.035,0.251-0.083v0.683h-2.595  c-0.181,0-0.326,0.146-0.326,0.326c0,0.18,0.146,0.325,0.326,0.325h2.595v1.584h-0.973c-0.18,0-0.325,0.146-0.325,0.326  c0,0.18,0.146,0.325,0.325,0.325h0.973v1.489h-2.595c-0.181,0-0.326,0.146-0.326,0.326s0.146,0.326,0.326,0.326h2.595v1.584h-0.973  c-0.18,0-0.325,0.146-0.325,0.325c0,0.18,0.146,0.326,0.325,0.326h0.973v1.489h-2.595c-0.181,0-0.326,0.146-0.326,0.326  c0,0.18,0.146,0.325,0.326,0.325h2.595v1.584h-0.973c-0.18,0-0.325,0.146-0.325,0.325c0,0.181,0.146,0.326,0.325,0.326h0.973v1.489  h-2.595c-0.181,0-0.326,0.146-0.326,0.325s0.146,0.325,0.326,0.325h2.595v1.584h-0.973c-0.18,0-0.325,0.146-0.325,0.326  c0,0.18,0.146,0.325,0.325,0.325h0.973v1.489h-2.595c-0.181,0-0.326,0.146-0.326,0.325s0.146,0.325,0.326,0.325h2.595v1.584h-0.973  c-0.18,0-0.325,0.146-0.325,0.326s0.146,0.325,0.325,0.325h0.973v1.489h-2.595c-0.181,0-0.326,0.146-0.326,0.325  c0,0.181,0.146,0.326,0.326,0.326h2.595v1.584h-0.973c-0.18,0-0.325,0.146-0.325,0.325S46.798,66.736,46.978,66.736z M47.95,39.193  h-1.739V38.25h1.739V39.193z M43.032,36.046v-2.211h1.403v2.211H43.032z M41.73,33.835v2.211h-0.009  c-0.256,0-0.464,0.208-0.464,0.464v3.164h-1.488c-0.094,0-0.177,0.035-0.25,0.083v-5.922H41.73z M47.95,35.459h-0.973  c-0.18,0-0.325,0.146-0.325,0.326c0,0.18,0.146,0.325,0.325,0.325h0.973v1.49h-1.739v-1.089c0-0.256-0.208-0.464-0.464-0.464h-0.01  v-2.211h2.213V35.459z"/>
</svg>