<svg xmlns="http://www.w3.org/2000/svg" xmlns:xlink="http://www.w3.org/1999/xlink" version="1.1" id="Layer_1" x="0px" y="0px" width="100px" height="100px" viewBox="-6.292 0 100 100" enable-background="new -6.292 0 100 100" xml:space="preserve">
<path d="M53.847,17.681h-7.942v-0.376h4.037c0.39,0,0.707-0.316,0.707-0.707v-1.177c0-0.39-0.317-0.707-0.707-0.707H37.86  c-0.39,0-0.708,0.317-0.708,0.707v1.177c0,0.39,0.317,0.707,0.708,0.707h4.037v0.376h-7.942c-0.391,0-0.708,0.316-0.708,0.707v0.526  c0,0.391,0.317,0.707,0.708,0.707h4.428v37.426c0,1.35,1.098,2.448,2.447,2.448h1.45v4.358c0,0.39,0.316,0.707,0.707,0.707h0.105  v18.151l1.619,2.969v-21.12h0.105c0.39,0,0.706-0.317,0.706-0.707v-4.358h1.45c1.349,0,2.447-1.099,2.447-2.448V19.621h4.428  c0.39,0,0.707-0.316,0.707-0.707v-0.526C54.554,17.997,54.236,17.681,53.847,17.681z M43.199,17.305h1.404v0.376h-1.404V17.305z   M39.685,56.47V56.11c0.074,0.048,0.156,0.083,0.25,0.083h7.931c0.094,0,0.177-0.035,0.25-0.084v0.36H39.685z M47.145,35.021h0.972  v1.489h-2.212v-3.724h2.212v1.584h-0.972c-0.18,0-0.326,0.146-0.326,0.326C46.818,34.875,46.965,35.021,47.145,35.021z   M47.145,39.396h0.972v1.489h-2.212v-3.725h2.212v1.584h-0.972c-0.18,0-0.326,0.146-0.326,0.325  C46.818,39.251,46.965,39.396,47.145,39.396z M47.145,43.771h0.972v1.489h-2.212v-3.724h2.212v1.584h-0.972  c-0.18,0-0.326,0.146-0.326,0.325C46.818,43.626,46.965,43.771,47.145,43.771z M45.904,45.912h2.212v1.584h-0.972  c-0.18,0-0.326,0.146-0.326,0.326c0,0.18,0.146,0.325,0.326,0.325h0.972v1.489h-2.212V45.912z M48.116,29.995h-0.972  c-0.18,0-0.326,0.146-0.326,0.325c0,0.18,0.146,0.326,0.326,0.326h0.972v1.489h-2.212v-3.724h2.212V29.995z M46.378,54.011v-2.682  c0-0.257-0.209-0.465-0.465-0.465h-0.009v-0.577h2.212v1.584h-0.972c-0.18,0-0.326,0.146-0.326,0.325s0.146,0.325,0.326,0.325h0.972  v1.489H46.378z M48.116,25.62h-0.972c-0.18,0-0.326,0.146-0.326,0.326s0.146,0.325,0.326,0.325h0.972v1.49h-2.212v-3.725h2.212  V25.62z M44.603,50.864h-1.404V19.621h1.404V50.864z M41.897,19.621v31.244h-0.009c-0.256,0-0.464,0.208-0.464,0.465v3.163h-1.488  c-0.094,0-0.177,0.035-0.25,0.083V19.621H41.897z M48.116,21.245h-0.972c-0.18,0-0.326,0.146-0.326,0.326  c0,0.18,0.146,0.325,0.326,0.325h0.972v1.489h-2.212v-3.764h2.212V21.245z"/>
</svg>