<svg xmlns="http://www.w3.org/2000/svg" xmlns:xlink="http://www.w3.org/1999/xlink" version="1.1" id="Layer_1" x="0px" y="0px" width="100px" height="100px" viewBox="0 0 100 100" enable-background="new 0 0 100 100" xml:space="preserve">
<path d="M72.02,66.468c0,0.726-0.602,1.327-1.334,1.327H40.221c-0.731,0-1.331-0.602-1.331-1.327v-3.159  c0-0.731,0.599-1.327,1.331-1.327h30.464c0.732,0,1.334,0.596,1.334,1.327V66.468z"/>
<path d="M27.161,68.565c1.463,0,2.654,1.191,2.654,2.654c0,1.47-1.191,2.66-2.654,2.66c-1.466,0-2.657-1.19-2.657-2.66  C24.503,69.757,25.694,68.565,27.161,68.565 M27.161,63.257c-4.402,0-7.972,3.567-7.972,7.969c0,4.402,3.57,7.97,7.972,7.97  s7.969-3.567,7.969-7.97C35.126,66.824,31.562,63.257,27.161,63.257L27.161,63.257z"/>
<path d="M82.727,68.565c1.463,0,2.654,1.191,2.654,2.654c0,1.47-1.191,2.66-2.654,2.66c-1.469,0-2.66-1.19-2.66-2.66  C80.066,69.757,81.258,68.565,82.727,68.565 M82.727,63.257c-4.408,0-7.975,3.567-7.975,7.969c0,4.402,3.566,7.97,7.975,7.97  c4.396,0,7.963-3.567,7.963-7.97C90.689,66.824,87.123,63.257,82.727,63.257L82.727,63.257z"/>
<path d="M20.937,30.494c-0.731,0-1.632,0.511-2.004,1.139l-2.689,16.825c-0.369,0.635-8.468,2.713-8.468,3.444v17.602  c0,0.731,0.599,1.327,1.327,1.327h4.124c0.731,0,1.583-0.466,1.842-1.229c0.469-1.379,1.408-10.332,11.315-10.332h8.522  c0.731,0,1.331-0.596,1.331-1.327V31.821c0-0.731-0.599-1.327-1.331-1.327H20.937L20.937,30.494z"/>
<path d="M42.788,30.189c2.094,0,3.793,6.37,3.793,14.223s-1.699,14.216-3.793,14.216s-3.793-6.363-3.793-14.216  S40.694,30.189,42.788,30.189z M85.019,30.189c2.091,0,3.794,6.37,3.794,14.223s-1.703,14.216-3.794,14.216  c-2.098,0-3.794-6.363-3.794-14.216S82.921,30.189,85.019,30.189z M42.788,30.189h42.23v28.438h-42.23V30.189z"/>
</svg>