<svg xmlns="http://www.w3.org/2000/svg" xmlns:xlink="http://www.w3.org/1999/xlink" version="1.1" id="Layer_1" x="0px" y="0px" width="100px" height="100px" viewBox="0 0 100 100" enable-background="new 0 0 100 100" xml:space="preserve">
<path id="path2806" d="M72.826,48.901c4.571,1.073,8.004,4.997,8.004,9.67v35.874c0,1.102-0.963,1.999-2.1,1.999H58.169  c-1.138,0-2.081-0.897-2.081-1.999V58.571c0-4.683,3.396-8.615,8.003-9.67V32.847h8.735V48.901z"/>
<path id="path2808" d="M63.47,28.031h9.978v3.958H63.47V28.031z"/>
<g>
	<g>
		<path fill-rule="evenodd" clip-rule="evenodd" d="M52.064,26.192c0.037-0.008,0.032,0.024,0.034,0.051    c-0.014-0.003-0.017-0.017-0.034-0.017C52.064,26.215,52.064,26.204,52.064,26.192z"/>
	</g>
</g>
<path d="M68.817,6.379c0,0,6.32-2.775,7.305,4.28c0.6,4.299-5.573,16.512-5.573,16.512h-1.731V6.379z"/>
<path d="M61.153,4.725l5.115,22.446h2.049V4.295C68.317,4.295,63.83,2.373,61.153,4.725z"/>
<path d="M46.718,28.258c0.774-0.292,1.565-0.61,2.362-0.947c3.907-1.68,8.933-4.403,14.719-8.808l-2.89-12.679  c0,0-6.616-2.67-11.282,10.01c-4.665,12.68-9.389,14.146-9.389,14.146c0.002,0,0.005,0,0.007,0  C40.391,29.966,42.739,29.729,46.718,28.258z"/>
<path d="M40.245,29.98"/>
<path d="M55.973,24.829c1.322,4.036-0.743,7.139-5.176,8.398c-4.433,1.259-5.817,3.87-5.817,3.87  c-0.775-3.674,1.984-5.346,1.984-5.346c-7.68-1.739-11.174,4.877-11.174,4.877s0.169-5.517,4.455-7.879  c1.382-0.762,2.269-1.608,2.836-2.406c0.903-1.149,1-2.352,0.994-2.872c-0.001-0.17-0.015-0.266-0.015-0.266  c-2.729,4.24-6.057,3.113-6.057,3.113s2.595-1.245,3.196-3.718c1.785-7.34,6.931-5.498,6.931-5.498s-14.09-9.505-20.269,4.453  s-11.58,13.525-11.58,13.525c8.396,4.064,12.661-1.583,12.661-1.583c-0.404,17.871-13.773,20.338-13.773,20.338  c11.866,4.957,18.292-3.808,21.204-8.456s7.822-4.646,7.822-4.646c-9.192,5.105-6.406,12.424-6.406,12.424  c3.733-6.135,6.318-6.112,9.063-6.218c3.187-0.122,8.863-0.54,11.405-5.72C63.208,31.125,55.973,24.829,55.973,24.829z"/>
</svg>