<svg xmlns="http://www.w3.org/2000/svg" xmlns:xlink="http://www.w3.org/1999/xlink" version="1.1" id="Layer_1" x="0px" y="0px" width="100px" height="100px" viewBox="0 0 100 100" enable-background="new 0 0 100 100" xml:space="preserve">
<g>
	<path fill="#000000" d="M38.421,21.933h6.558c-0.75-0.326-1.316-0.91-1.645-1.732c-0.405-1.033-0.472-2.485,1.291-3.783   c-0.081-0.368-0.067-0.7-0.103-1.054c-0.302,0.03-0.649,0.169-1.062,0.472l-0.679,0.479l-0.605-0.553   c-0.486-0.45-0.974-0.693-1.379-0.693c-0.228,0-0.42,0.081-0.604,0.258c-0.184,0.169-0.354,0.479-0.428,0.767   c-0.066,0.259-0.051,0.576,0.517,1.217l0.649,0.723l-0.693,0.686C39.175,19.772,38.583,20.828,38.421,21.933z"/>
	<line fill="#000000" x1="38.421" y1="21.933" x2="44.979" y2="21.933"/>
</g>
<g>
	<path fill-rule="evenodd" clip-rule="evenodd" fill="#000000" d="M46.681,14.198c0.03-0.369-0.006-0.723-0.028-1.069   c-0.089,0.295-0.104,0.634-0.125,0.958C46.579,14.139,46.63,14.139,46.681,14.198z"/>
	<path fill-rule="evenodd" clip-rule="evenodd" fill="#000000" d="M45.782,10.468c-0.405-0.62-0.899-1.195-1.621-1.688   c-1.777-1.225-4.144-1.173-5.862,0.14c-0.62,0.472-1.099,0.988-1.475,1.541c0.332,0.14,0.678,0.25,0.981,0.458   c0.988,0.678,1.681,1.504,2.189,2.418c0.937-0.281,1.954-0.265,2.942,0.413c0.575-0.302,1.121-0.45,1.652-0.465   C44.78,12.259,45.133,11.3,45.782,10.468z"/>
</g>
<g>
	<path fill-rule="evenodd" clip-rule="evenodd" fill="#000000" d="M59.4,13.749c0.612-0.325,1.242-0.539,1.763-0.494   s1.011,0.568,1.011,0.568c0.065-1.792-0.612-3.163-2.124-4.203c-1.387-0.951-3.318-0.907-4.661,0.11   c-0.029,0.022-0.043,0.044-0.065,0.067c0.937,0.929,1.444,2.057,1.718,3.303C57.815,13.041,58.626,13.218,59.4,13.749z"/>
</g>
<path fill-rule="evenodd" clip-rule="evenodd" fill="#000000" d="M54.652,17.922c-0.354-0.568-0.656-1.387-0.397-2.345  c0.161-0.626,0.509-1.202,0.937-1.629c-0.148-1.393-0.798-2.521-2.072-3.392c-1.394-0.958-3.319-0.907-4.66,0.117  c-1.91,1.453-2.448,3.333-1.674,5.899l0.229,0.782l-0.701,0.405c-1.423,0.818-1.223,1.32-1.077,1.688  c0.192,0.501,0.753,0.929,2.131,0.634l0.885-0.192l0.288,0.855c0.213,0.605,0.501,0.753,0.781,0.812  c0.281,0.066,0.531,0.162,1.105-0.405l0.679-0.656l0.717,0.627c0.375,0.339,0.736,0.516,1.01,0.516c0.007,0,0.014-0.016,0.021-0.016  C53.045,20.34,53.635,19.102,54.652,17.922z"/>
<g>
	<path fill-rule="evenodd" clip-rule="evenodd" fill="#000000" d="M70.733,18.976c-0.081-0.257-0.626-0.801-1.025-0.925   s-1.003-0.092-1.003-0.092l0.222-0.944c0.59-2.595-0.029-4.41-1.947-5.721c-0.958-0.664-2.13-0.664-3.236-0.376   c0.486,1.165,0.627,2.492,0.406,3.989c0.885,0.162,1.305,0.612,1.688,0.996c0.428,0.427,0.876,1.128,0.862,2.145   c1.394,0.708,1.865,1.645,1.998,2.478l0.184,0.03c1.018,0.177,1.74-0.067,1.903-0.701C70.844,19.61,70.821,19.256,70.733,18.976z"/>
</g>
<path fill="#000000" d="M66.7,21.306c0.059-0.317,0.206-1.054-1.46-1.667l-0.848-0.317l0.206-0.885  c0.154-0.619-0.016-0.892-0.214-1.099c-0.295-0.302-0.634-0.361-1.149-0.25l-0.93,0.192l-0.266-0.914  c-0.383-1.298-1.076-1.283-2.108-0.531l-0.679,0.479l-0.612-0.553c-0.486-0.45-0.973-0.693-1.378-0.693  c-0.229,0-0.421,0.081-0.604,0.258c-0.178,0.169-0.354,0.479-0.428,0.767c-0.066,0.259-0.052,0.576,0.523,1.217l0.648,0.723  l-0.693,0.686c-1.066,1.054-1.659,2.11-1.823,3.214h11.438C66.607,21.758,66.662,21.515,66.7,21.306z"/>
<path fill="#000000" d="M32.503,21.933h-3.104c-4.572,0-8.28,3.701-8.28,8.273l8.288,53.618c0,2.61,1.21,4.936,3.097,6.454V21.933z"/>
<rect x="39.574" y="21.933" fill="#000000" width="7.063" height="70.171"/>
<path fill="#000000" d="M70.607,21.933h-2.757V89.97c1.68-1.516,2.743-3.704,2.743-6.146l8.287-53.618  C78.881,25.634,75.172,21.933,70.607,21.933z"/>
<g>
	<rect x="39.574" y="21.933" fill="none" width="7.063" height="70.171"/>
</g>
<rect x="53.709" y="21.933" fill="#000000" width="7.077" height="70.171"/>
<g>
	<rect x="53.709" y="21.933" fill="none" width="7.077" height="70.171"/>
</g>
<path fill="#000000" d="M37.783,15.577c0.103-0.376,0.361-0.656,0.567-0.981c-0.354-0.759-0.885-1.438-1.703-1.998  c-1.386-0.944-3.318-0.9-4.652,0.118c-1.917,1.46-2.448,3.34-1.681,5.914l0.235,0.774l-0.7,0.406  c-1.423,0.812-1.224,1.32-1.083,1.689c0.063,0.161,0.169,0.311,0.321,0.435h7.28c0.128-1.399,0.723-2.739,1.821-4.011  C37.842,17.354,37.532,16.535,37.783,15.577z"/>
</svg>