<svg xmlns="http://www.w3.org/2000/svg" xmlns:xlink="http://www.w3.org/1999/xlink" version="1.1" x="0px" y="0px" width="100px" height="100px" viewBox="0 0 100 100" enable-background="new 0 0 100 100" xml:space="preserve">
<g id="Layer_2" display="none">
	<rect x="-4.507" y="20.493" display="inline" fill-rule="evenodd" clip-rule="evenodd" width="109.733" height="61.53"/>
</g>
<g id="Layer_1">
	<g id="BSkks6_1_">
		<g>
			<path d="M99.98,52.631c0,0.098,0,0.195,0,0.293c-0.609,0.581-1.211,1.167-1.828,1.74c-0.373,0.348-0.797,0.646-1.146,1.018     c-0.57,0.607-1.082,1.272-1.654,1.878c-0.197,0.207-0.502,0.314-0.762,0.457c-0.814,0.447-1.645,0.871-2.445,1.341     c-0.537,0.314-1.037,0.691-1.668,1.118c0.018-0.106-0.018-0.031-0.004,0.032c0.242,1.021-0.156,1.644-1.139,1.986     c-0.232,0.081-0.508,0.398-0.539,0.637c-0.211,1.54-0.188,1.558-1.721,1.924c-0.652,0.155-1.32,0.233-1.51,1.038     c-0.047,0.197-0.07,0.407-0.156,0.586c-0.076,0.156-0.199,0.35-0.346,0.402c-0.648,0.232-1.303,0.464-1.975,0.612     c-0.783,0.172-1.266,1.007-2.195,0.879c-0.945-0.131-1.717,0.464-2.361,1.001c-0.426,0.354-0.793,0.578-1.301,0.587     c-3.473,0.058-6.947,0.15-10.422,0.134c-2.418-0.011-4.834-0.244-7.252-0.255c-1.881-0.008-3.764,0.243-5.645,0.255     c-2.672,0.017-5.342-0.081-8.012-0.13c-0.097-0.002-0.194-0.006-0.292-0.012c-1.59-0.093-3.178-0.203-4.769-0.265     c-0.307-0.012-0.733,0.347-0.912,0.232c-0.451-0.287-0.846-0.138-1.291-0.117c-1.743,0.084-3.489,0.128-5.233,0.157     c-1.437,0.023-2.875,0.005-4.312,0.005c-2.06,0-4.119,0-6.236,0c-0.05-0.075-0.151-0.391-0.292-0.408     c-0.817-0.104-1.644-0.14-2.291-0.186c0.062,1.037,0.118,1.99,0.174,2.943c-2.681,0-5.361,0-8.041,0     c-0.072-0.051-0.144-0.144-0.216-0.145c-2.938-0.058-5.875-0.115-8.813-0.148c-0.433-0.005-0.867,0.105-1.375,0.172     c0.243-0.8,0.428-1.462,0.655-2.107c0.04-0.114,0.251-0.208,0.397-0.237c0.493-0.098,0.558,0.303,0.73,0.623     c0.108,0.2,0.348,0.437,0.543,0.45c0.183,0.014,0.451-0.205,0.565-0.393c0.229-0.377,0.379-0.803,0.585-1.262     c-0.053-0.131-0.13-0.357-0.232-0.572c-0.333-0.705-0.245-0.848,0.542-0.912c0.114-0.01,0.22-0.114,0.33-0.175     c-0.104-0.092-0.195-0.217-0.316-0.271c-0.545-0.241-0.76-0.729-0.374-0.926c0.96-0.49,0.723-1.437,1.031-2.184     c-1.038-0.303-1.436-0.914-0.76-1.895c0.417-0.605,0.927-1.147,1.386-1.725c0.611-0.77,1.338-0.965,2.19-0.519     c0.638,0.333,1.221,0.779,1.875,1.073c0.889,0.399,1.879,0.56,2.529,1.441c0.117,0.159,0.932,0.066,1.164-0.168     c0.652-0.661,0.515-1.462-0.124-2.252c-0.442-0.546-0.798-1.152-0.273-1.885c0.126-0.177,0.127-0.451,0.162-0.685     c0.098-0.653,0.738-0.984,1.35-0.718c0.119,0.053,0.369,0.025,0.438-0.061c0.763-0.949,1.884-0.729,2.875-0.863     c0.501-0.067,0.821-0.159,0.778-0.651c-0.379-0.551-0.715-1.113-0.958-1.714c-0.358-0.885-0.211-1.305,0.606-1.828     c0.392-0.252,0.685-0.518,0.77-1.007c0.083-0.485,0.407-0.474,0.754-0.249c0.137,0.089,0.253,0.21,0.366,0.305     c0.561-0.472,0.858-0.925,0.251-1.572c-0.078-0.084,0.2-0.663,0.44-0.841c0.276-0.204,0.542-0.061,0.674,0.361     c0.134,0.43,0.502,0.472,0.936,0.292c1.378-0.57,1.4-0.547,1.397,0.769c0,0.018,0.028,0.035,0.136,0.165     c0.215-0.091,0.525-0.145,0.709-0.327c0.118-0.116,0.151-0.528,0.049-0.626c-0.67-0.638-0.13-1.082,0.195-1.707     c0.146,0.28,0.238,0.455,0.329,0.631c0.319,0.615,0.643,0.742,1.167,0.359c0.475-0.346,0.813-0.262,1.356-0.041     c0.954,0.388,1.499,1.529,2.699,1.423c0.071-0.006,0.161,0.214,0.244,0.327c0.158,0.214,0.317,0.427,0.476,0.64     c0.202-0.244,0.431-0.471,0.596-0.738c0.107-0.175,0.184-0.412,0.167-0.612c-0.075-0.887,0.627-0.908,1.178-1.14     c0.335-0.141,0.626-0.386,0.938-0.584c0.293-0.186,0.571-0.438,0.891-0.52c0.111-0.028,0.346,0.36,0.495,0.579     c0.092,0.134,0.139,0.303,0.188,0.462c0.165,0.537,0.458,0.651,0.972,0.427c0.175-0.076,0.403-0.035,0.638-0.05     c-0.042,0.435-0.076,0.78-0.11,1.126c0.08,0.021,0.16,0.043,0.24,0.064c0.111-0.236,0.317-0.476,0.312-0.71     c-0.01-0.541,0.233-0.684,0.712-0.645c0.151,0.013,0.309-0.045,0.404-0.061c-0.032-0.68-0.06-1.298-0.088-1.902     c0.443-0.112,0.807-0.205,1.159-0.295c0.071-0.829,0.402-1.16,1.213-1.433c0.168-0.129,0.336-0.258,0.504-0.387     c0.157,0.284,0.448,0.57,0.444,0.853c-0.01,0.698,0.716,1.711,1.369,1.596c0.736-0.13,1.205,0.081,1.437,0.581     c0.313-0.149,0.568-0.337,0.85-0.393c0.476-0.094,0.686-0.284,0.842-0.798c0.313-1.028-0.266-2.337,0.931-3.093     c0.029-0.019,0.025-0.09,0.035-0.137c0.202-0.925,0.505-1.049,1.315-0.537c0.985-0.651,1.239-0.999,1.321-1.818     c0.096-0.951,0.348-1.068,1.223-1.425c0.594-0.241,1.039-0.852,1.539-1.311c0.051-0.046,0.031-0.192,0.01-0.284     c-0.156-0.668-0.283-1.347-0.498-1.996c-0.174-0.532-0.006-0.888,0.473-1.007c0.531-0.133,1.098-0.178,1.645-0.159     c0.242,0.008,0.529,0.221,0.705,0.42c0.348,0.394,0.971,0.541,1.309,0.2c1.09-1.104,2.363-1.739,3.971-1.612     c-0.018-0.384-0.354-0.739,0.236-1.095c0.297-0.18-0.084-0.599-0.555-0.604c-0.18-0.001-0.359-0.158-0.539-0.244     c0.104-0.14,0.248-0.265,0.299-0.421c0.084-0.265,0.225-0.595,0.135-0.813c-0.182-0.448-0.502-0.84-0.74-1.218     c0.605-0.529,1.176-1.023,1.74-1.523c0.023-0.021,0.002-0.093,0.004-0.142c0.145,0,0.291,0,0.438,0     c0.174,0.202,0.309,0.478,0.527,0.591c0.533,0.276,1,0.995,1.764,0.246c0.121-0.119,0.611-0.207,0.914-0.405     c0.111-0.074,0.553,0.087,0.557,0.151c0.031,0.919,0.736,1.065,1.391,1.294c0.105,0.037,0.195,0.183,0.248,0.298     c0.174,0.373,0.229,0.875,0.51,1.108c0.555,0.461,0.666,1.004,0.672,1.651c0.002,0.196,0.107,0.535,0.225,0.564     c0.785,0.188,1.65,0.565,2.361,0.384c0.73-0.188,1.35-0.06,1.898,0.172c0.547,0.23,1.129,0.73,1.367,1.26     c0.383,0.844,1.098,0.627,1.676,0.927c0.137-0.883,1.418-1.732,1.871-1.281c0.457,0.455,0.969,0.395,1.479,0.534     c0.355,0.097,0.646,0.436,0.955,0.681c0.115,0.093,0.199,0.227,0.176,0.197c0.443-0.142,0.771-0.357,1.068-0.319     c0.609,0.079,0.99,0.025,1.291-0.629c0.225-0.492,0.752-0.847,1.148-1.258c0.025-0.026,0.098,0.001,0.143-0.016     c0.404-0.147,0.826-0.268,1.209-0.46c0.328-0.164,0.562-0.188,0.652,0.217c0.119,0.532,0.229,1.069,0.297,1.609     c0.119,0.926,0.408,1.176,1.316,1.286c0.346,0.042,0.693,0.27,0.982,0.487c0.287,0.217,0.51,0.521,0.748,0.798     c0.166,0.192,0.402,0.384,0.451,0.609c0.109,0.517-0.057,1.178,0.207,1.557c0.734,1.046-0.354,1.961-0.062,2.935     c0.01,0.031-0.033,0.111-0.064,0.119c-0.859,0.207-0.107,0.494-0.012,0.7c0.094,0.199,0.275,0.39,0.467,0.504     c0.678,0.404,0.59,1.483,1.5,1.688c0.053,0.012,0.102,0.287,0.061,0.41c-0.15,0.463-0.123,0.789,0.402,1.016     c0.23,0.099,0.547,0.458,0.51,0.634c-0.117,0.574,0.311,0.719,0.604,0.979c0.248,0.221,0.518,0.421,0.781,0.635     c-0.295,0.636,0.064,1.103,0.475,1.442c0.346,0.284,0.838,0.393,1.451,0.661C97.689,52.622,98.576,53.062,99.98,52.631z"/>
			<path fill-rule="evenodd" clip-rule="evenodd" d="M0.019,71.275c0.218-0.166,0.443-0.476,0.653-0.466     c0.421,0.019,0.911,0.21,0.874,0.741c-0.023,0.342-0.03,0.854-0.67,0.816C0.242,72.33,0.191,71.899,0.019,71.275z"/>
		</g>
	</g>
</g>
</svg>