<?xml version="1.0" encoding="utf-8"?>
<!-- Generator: Adobe Illustrator 14.0.0, SVG Export Plug-In . SVG Version: 6.00 Build 43363)  -->
<!DOCTYPE svg PUBLIC "-//W3C//DTD SVG 1.0//EN" "http://www.w3.org/TR/2001/REC-SVG-20010904/DTD/svg10.dtd">
<svg version="1.0" id="Layer_1" xmlns="http://www.w3.org/2000/svg" xmlns:xlink="http://www.w3.org/1999/xlink" x="0px" y="0px"
	 width="56.768px" height="100px" viewBox="0 0 56.768 100" enable-background="new 0 0 56.768 100" xml:space="preserve">
<path d="M56.73,51.016C50.203,34.18,43.675,17.343,37.147,0.507C37.034,0.217,36.813,0,36.481,0C29.968,0,23.454,0,16.94,0
	c-0.177,0-0.309,0.063-0.415,0.151c-0.235,0.134-0.382,0.386-0.251,0.723c4.069,10.478,8.138,20.958,12.208,31.435
	c-0.501,0-1.002,0-1.504,0c-3.309,0-6.618,0-9.927,0c-5.449,0-10.899,0-16.35,0c-0.414,0-0.831,0.448-0.665,0.875
	c3.629,9.346,7.258,18.692,10.886,28.038c2.173,5.597,4.346,11.191,6.518,16.787c0.438,1.128,0.876,2.255,1.314,3.383
	c-0.428,0.167-0.855,0.332-1.283,0.498c-1.219,0.473-2.439,0.945-3.658,1.419c-0.568,0.219-0.682,0.905-0.166,1.261
	c7.404,5.11,14.809,10.221,22.212,15.331c0.361,0.248,0.919,0.001,1.015-0.412c2.017-8.763,4.034-17.525,6.051-26.288
	c0.106-0.466-0.328-1.052-0.849-0.85c-0.942,0.364-1.883,0.729-2.823,1.093c-0.747,0.288-1.492,0.576-2.237,0.865
	c-0.005,0.002-0.007,0.004-0.011,0.006c-0.784-2.021-1.568-4.039-2.353-6.06c-2.118-5.454-4.236-10.909-6.355-16.364
	c0.705,0,1.41,0,2.115,0c3.429,0,6.857,0,10.287,0c5.121,0,10.243,0,15.366,0C56.479,51.891,56.896,51.443,56.73,51.016z"/>
</svg>
