<svg xmlns="http://www.w3.org/2000/svg" xmlns:xlink="http://www.w3.org/1999/xlink" version="1.1" id="Layer_1" x="0px" y="0px" width="100px" height="80.369px" viewBox="0 0 100 80.369" enable-background="new 0 0 100 80.369" xml:space="preserve">
<path d="M40.972,35.417c-0.924-6.163-4.894-10.677-8.866-10.082c-3.973,0.597-6.443,6.075-5.519,12.238  c0.924,6.164,4.894,10.677,8.866,10.082C39.425,47.058,41.896,41.58,40.972,35.417z M34.689,44.589  c-2.646,0.396-5.305-2.696-5.936-6.908c-0.632-4.212,1.001-7.948,3.648-8.346c2.646-0.396,5.304,2.696,5.936,6.908  C38.969,40.456,37.335,44.192,34.689,44.589z"/>
<g>
	<path d="M87.125,40.543c-1.729-1.131-3.701-2.162-5.871-3.069c-0.137,2.67-0.569,5.192-1.291,7.513   c2.676,0.799,4.928,2.014,6.707,3.617C86.956,46.053,87.108,43.346,87.125,40.543z"/>
	<path d="M80.92,30.145c0.258,1.92,0.386,3.802,0.379,5.604c2.156,0.613,4.106,1.446,5.811,2.482   c-0.046-2.358-0.184-4.767-0.409-7.171C84.49,30.602,82.409,30.315,80.92,30.145z"/>
	<path d="M76.16,18.517C45.763-1.748,31.26,0.04,31.26,0.04C25.3,0.437,15.564,14.543,15.564,14.543   C-1.918,43.152,0.068,56.265,0.068,56.265c0.476,14.251,28.012,24.039,28.012,24.039c22.053,0.992,47.681-9.735,47.681-9.735   C97.417,62.622,100,34.411,100,34.411C97.616,23.285,76.16,18.517,76.16,18.517z M68.429,63.372c0,0-13.701,10.369-34.068,12.405   c0,0-11.479,2.407-23.144-9.998c0,0-10.111-8.565-6.295-19.441L15.104,24.86c0,0,11.109-29.438,26.292-16.849   c0,0,20.18,10.369,29.809,36.846C71.206,44.857,80.278,56.891,68.429,63.372z M88.241,31.408c0.481,2.718,0.758,5.467,0.823,8.181   c4.105,3.264,5.021,6.854,5.059,7.008l0.55,2.25l-1.175-1.997c-1.029-1.75-2.518-3.401-4.431-4.914   c-0.06,2.827-0.346,5.618-0.853,8.309c1.97,2.469,2.33,4.7,2.345,4.795L89.9,55.202c-0.389-1.124-1.069-2.242-2.024-3.33   c-1.726,7.7-4.733,12.285-4.764,12.332l-0.589-0.342c1.865-3.729,3.182-8.243,3.915-13.42c-2.193-1.94-4.869-3.404-6.852-4.335   c-1.096,3.025-2.305,4.543-2.358,4.608l-0.556-0.392c0.736-1.201,1.33-2.792,1.767-4.732c-0.959-0.412-1.582-0.631-1.588-0.634   l0.17-0.657c0.538,0.092,1.069,0.2,1.616,0.33c0.42-2.231,0.659-4.887,0.712-7.902c-2.724-0.997-4.732-1.443-4.753-1.447l0.1-0.673   c1.607,0.124,3.174,0.347,4.665,0.663c-0.004-1.678-0.062-3.457-0.172-5.301c-0.161-0.015-0.28-0.023-0.358-0.029l0.1,0.147   l-0.165-0.152c-0.024-0.002-0.039-0.003-0.039-0.003l-0.001-0.035l-1.992-1.839c-1.02-0.941-2.6-1.807-4.702-2.577   c0.246,6.291-0.839,13.021-0.851,13.09l-0.677-0.047l-0.337-13.66c-2.409-0.718-4.455-1.052-4.476-1.056l-2.016-0.325l2.012-0.347   c1.521-0.262,3.014-0.255,4.438,0.021l-0.175-7.077l0.698,1.65c0.636,1.502,1.063,3.497,1.272,5.928   c3.475,1.289,5.249,3.846,5.325,3.957l1.478,2.166l-0.012-0.528c0.146-0.016,0.288-0.029,0.43-0.041   c-0.277-4.137-0.725-7.188-0.729-7.22l0.663-0.149c0.748,2.439,1.316,4.876,1.69,7.249c2.043-0.105,3.974-0.021,5.759,0.251   c-0.345-3.083-0.713-5.021-0.716-5.042l0.66-0.165c0.554,1.775,1.017,3.562,1.415,5.453c6.983,1.498,9.416,5.522,9.518,5.695   l-0.575,0.364C95.662,33.951,92.699,32.488,88.241,31.408z"/>
</g>
</svg>