<svg xmlns="http://www.w3.org/2000/svg" xmlns:xlink="http://www.w3.org/1999/xlink" version="1.1" id="Livello_1" x="0px" y="0px" width="100px" height="100px" viewBox="0 0 100 100" enable-background="new 0 0 100 100" xml:space="preserve">
<g>
	<polygon fill="#000000" points="12.522,29.067 8.633,25.084 8.633,47.803 12.522,43.821  "/>
	<polygon fill="#000000" points="30.384,43.821 34.274,47.803 34.274,25.084 30.384,29.067  "/>
	<polygon fill="#000000" points="29.466,28.158 33.357,24.175 9.551,24.175 13.439,28.158  "/>
	<polygon fill="#000000" points="9.551,48.712 33.356,48.712 29.466,44.729 13.439,44.729  "/>
	<rect x="13.814" y="29.45" fill="#000000" width="15.278" height="13.987"/>
	<polygon fill="#000000" points="41.07,29.067 37.18,25.084 37.18,47.803 41.07,43.821  "/>
	<polygon fill="#000000" points="58.931,43.821 62.82,47.803 62.82,25.084 58.931,29.067  "/>
	<polygon fill="#000000" points="58.014,28.158 61.903,24.175 38.098,24.175 41.987,28.158  "/>
	<polygon fill="#000000" points="38.098,48.712 61.903,48.712 58.014,44.729 41.987,44.729  "/>
	<rect x="42.361" y="29.45" fill="#000000" width="15.276" height="13.987"/>
	<polygon fill="#000000" points="12.522,56.179 8.633,52.196 8.633,74.916 12.522,70.933  "/>
	<polygon fill="#000000" points="30.384,70.933 34.274,74.916 34.274,52.196 30.384,56.179  "/>
	<polygon fill="#000000" points="13.439,55.271 29.466,55.271 33.356,51.287 9.551,51.287  "/>
	<polygon fill="#000000" points="13.439,71.842 9.551,75.823 33.356,75.823 29.466,71.842  "/>
	<rect x="13.814" y="56.563" fill="#000000" width="15.277" height="13.987"/>
	<polygon fill="#000000" points="69.615,29.067 65.728,25.084 65.728,47.803 69.615,43.821  "/>
	<polygon fill="#000000" points="87.478,43.821 91.367,47.803 91.367,25.084 87.478,29.067  "/>
	<polygon fill="#000000" points="86.561,28.158 90.45,24.175 66.645,24.175 70.532,28.158  "/>
	<polygon fill="#000000" points="66.645,48.712 90.45,48.712 86.561,44.729 70.532,44.729  "/>
	<rect x="70.907" y="29.45" fill="#000000" width="15.277" height="13.987"/>
	<polygon fill="#000000" points="41.069,56.179 37.18,52.196 37.18,74.916 41.069,70.933  "/>
	<polygon fill="#000000" points="58.931,70.933 62.82,74.916 62.82,52.196 58.931,56.179  "/>
	<polygon fill="#000000" points="41.986,55.271 58.014,55.271 61.903,51.287 38.098,51.287  "/>
	<polygon fill="#000000" points="41.986,71.842 38.098,75.823 61.903,75.823 58.014,71.842  "/>
	<rect x="42.361" y="56.563" fill="#000000" width="15.276" height="13.987"/>
	<polygon fill="#000000" points="69.615,56.179 65.726,52.196 65.726,74.916 69.615,70.933  "/>
	<polygon fill="#000000" points="87.478,70.933 91.367,74.916 91.367,52.196 87.478,56.179  "/>
	<polygon fill="#000000" points="70.532,55.271 86.561,55.271 90.45,51.287 66.644,51.287  "/>
	<polygon fill="#000000" points="70.532,71.842 66.644,75.823 90.45,75.823 86.561,71.842  "/>
	<rect x="70.907" y="56.563" fill="#000000" width="15.277" height="13.987"/>
	<path fill="#000000" d="M92.521,18.93H7.479H3.664v3.815v54.51v3.815h3.814h85.042h3.815v-3.815v-54.51V18.93H92.521z    M92.521,77.255H7.479v-54.51h85.042V77.255z"/>
</g>
</svg>