<svg xmlns="http://www.w3.org/2000/svg" xmlns:xlink="http://www.w3.org/1999/xlink" version="1.1" id="Layer_1" x="0px" y="0px" width="100px" height="100px" viewBox="0 0 100 100" enable-background="new 0 0 100 100" xml:space="preserve">
<path fill-rule="evenodd" clip-rule="evenodd" d="M64.969,2.348c-6.092-0.022-11.739,0.036-11.739,0.036L52.54,2.383  c-0.147-0.975-0.981-1.724-1.997-1.724c-1.016,0-1.85,0.749-1.997,1.724c-1.662-0.007-5.896-0.055-11.518-0.035  C37.028,1.327,36.404,0,34.702,0c-1.701,0-2.269,1.837-2.269,1.837s0.049,5.452,0.096,10.658  c-0.047,5.206-0.096,10.658-0.096,10.658s0.568,1.838,2.269,1.838c1.702,0,2.326-1.328,2.326-2.349  c5.805,0.021,10.576-0.031,11.649-0.036c0.032,0.38,0.09,1.209,0.09,2.314c0,1.531-2.216,2.326-2.216,2.326s0,41.725,0,42.745  s0.986,0.775,0.986,2.879c0,1.373-1.207,2.326-1.207,2.326l-0.068,20.699c0,0-2.212,0.34-2.042,2.381  c0.17,2.042,2.383,1.702,2.383,1.702l4.396-0.019l4.396,0.019c0,0,2.213,0.34,2.383-1.702c0.17-2.041-2.042-2.381-2.042-2.381  l-0.067-20.699c0,0-1.208-0.953-1.208-2.326c0-2.104,0.986-1.858,0.986-2.879s0-42.745,0-42.745s-2.216-0.795-2.216-2.326  c0-1.105,0.059-1.935,0.09-2.314c1.072,0.005,5.843,0.057,11.649,0.036c0,1.021,0.623,2.349,2.325,2.349  c1.701,0,2.268-1.838,2.268-1.838s-0.049-5.452-0.095-10.658c0.046-5.206,0.095-10.658,0.095-10.658S68.995,0,67.294,0  C65.592,0,64.969,1.327,64.969,2.348z"/>
</svg>