<svg xmlns="http://www.w3.org/2000/svg" xmlns:xlink="http://www.w3.org/1999/xlink" version="1.1" id="Layer_1" x="0px" y="0px" width="100.0px" height="100px" viewBox="0 0 108 108" enable-background="new 0 0 108 108" xml:space="preserve">
<g>
	<path d="M82.822,75.221c-0.209-1.529-0.461-3.039-0.818-4.525c-0.367-1.482-0.771-2.953-1.313-4.396   c-0.52-1.451-1.135-2.879-1.912-4.305c-0.381-0.717-0.822-1.424-1.355-2.15c-0.266-0.365-0.561-0.734-0.91-1.117   c-0.18-0.191-0.371-0.387-0.594-0.584c-0.113-0.1-0.234-0.199-0.365-0.301c-0.131-0.1-0.262-0.197-0.482-0.344l-0.07-0.045   l-0.029-0.016l-0.061-0.029L74.898,57.4c0.053,0.037-0.092-0.059-0.086-0.053l-0.049-0.025l-0.096-0.047   c-0.127-0.064-0.256-0.125-0.389-0.18c-0.264-0.115-0.539-0.211-0.816-0.291c-0.557-0.16-1.129-0.256-1.684-0.26   c-1.115-0.018-2.123,0.23-2.977,0.592c-0.533,0.234-1.016,0.506-1.463,0.797v-2.5c0-5.593-9.498-8.064-21.218-8.064   c-11.718,0-20.435,3.342-21.218,8.064v39.75c0,0.424,0.017,0.826,0.041,1.219c0.03,0.484,0.081,0.938,0.148,1.373   C26.464,101.287,35.352,104,46.122,104c10.771,0,19.659-2.713,21.028-6.225c0.068-0.436,0.119-0.889,0.148-1.373   c0.025-0.393,0.041-0.795,0.041-1.219V93.93c0.777,0.271,1.57,0.484,2.363,0.641c0.428,0.082,0.809,0.148,1.273,0.203l0.604,0.072   l0.266,0.031l0.428,0.021c1.059,0.039,2.219-0.111,3.355-0.514c1.131-0.398,2.217-1.045,3.066-1.84   c0.859-0.787,1.525-1.672,2.049-2.551c1.043-1.77,1.527-3.529,1.885-5.199c0.32-1.682,0.434-3.307,0.467-4.898   C83.096,78.309,82.996,76.752,82.822,75.221z M64.438,54.916c-0.111,0.301-0.273,0.572-0.463,0.822   c-0.082,0.109-0.17,0.219-0.266,0.32c-1.945,1.988-8.6,3.465-16.572,3.516c-0.145,0.002-0.288,0.004-0.434,0.004   c-0.542,0-1.079-0.008-1.608-0.021c-7.676-0.188-13.924-1.699-15.556-3.678c-0.063-0.08-0.125-0.164-0.182-0.252   c-0.005-0.008-0.011-0.014-0.015-0.021c-0.011-0.02-0.021-0.037-0.032-0.057c-0.109-0.174-0.204-0.357-0.277-0.551   c-0.321-0.885-0.128-1.848,0.303-2.605c-0.267,0.693-0.377,1.463-0.174,2.145c0.607-2.46,8.225-4.406,17.541-4.406   c9.391,0,17.061,1.977,17.559,4.464c0.266-0.715,0.16-1.544-0.127-2.285C64.566,53.068,64.76,54.032,64.438,54.916z M78.121,84.004   c-0.234,1.357-0.605,2.699-1.24,3.885c-0.629,1.186-1.574,2.195-2.791,2.684c-0.604,0.25-1.262,0.369-1.926,0.393   c-0.68,0.01-1.381-0.02-2.063-0.09c-0.938-0.09-1.865-0.277-2.762-0.553V60.455c0.682-0.381,1.391-0.691,2.127-0.885   c0.65-0.174,1.318-0.248,1.963-0.166c0.645,0.078,1.266,0.326,1.787,0.699c0.471,0.363,0.879,0.947,1.223,1.525   c0.348,0.588,0.646,1.213,0.922,1.852c1.078,2.563,1.793,5.295,2.313,8.043c0.508,2.752,0.803,5.551,0.773,8.336   C78.441,81.252,78.352,82.643,78.121,84.004z"/>
	<path d="M32.456,45.153c1.078-2.23,1.236-4.616,1.001-6.887c-0.271-2.281-0.968-4.502-1.93-6.627   c-1.024-2.263-1.804-4.855-1.638-7.491c0.117-2.597,1.32-5.313,3.515-6.597c-1.498,1.987-1.91,4.354-1.737,6.588   c0.2,2.263,0.931,4.431,1.942,6.58c1.003,2.327,1.697,4.874,1.617,7.479C35.165,40.756,34.338,43.459,32.456,45.153z"/>
	<path d="M43.032,43.553c1.719-3.08,2.091-6.567,1.817-9.884c-0.312-3.339-1.309-6.592-2.696-9.681   c-1.464-3.218-2.572-6.841-2.414-10.537C39.844,9.809,41.397,5.992,44.39,4c-2.296,2.695-3.058,6.163-2.875,9.442   c0.208,3.324,1.266,6.522,2.718,9.626c1.43,3.291,2.423,6.87,2.384,10.533C46.595,37.205,45.555,41.009,43.032,43.553z"/>
	<path d="M55.363,45.438c1.107-2.271,1.277-4.708,1.039-7.03c-0.271-2.332-0.984-4.602-1.965-6.772   c-1.044-2.308-1.841-4.949-1.675-7.635c0.116-2.646,1.335-5.416,3.568-6.733c-1.535,2.021-1.964,4.44-1.791,6.724   c0.201,2.313,0.947,4.53,1.979,6.726c1.023,2.372,1.732,4.969,1.654,7.624C58.111,40.948,57.275,43.703,55.363,45.438z"/>
</g>
</svg>