<svg xmlns="http://www.w3.org/2000/svg" xmlns:xlink="http://www.w3.org/1999/xlink" version="1.1" id="Layer_1" x="0px" y="0px" width="100px" height="100px" viewBox="0 0 100 100" enable-background="new 0 0 100 100" xml:space="preserve">
<path fill="#000000" d="M70.893,51.562c0,1.598-0.155,4.202-0.346,5.788l-0.18,1.495c-0.19,1.586-0.346,4.19-0.346,5.788v27.492  c0,1.598-1.307,2.904-2.904,2.904H30.718c-1.597,0-2.904-1.307-2.904-2.904V24.555c0-1.597,1.307-2.904,2.904-2.904h37.271  c1.598,0,2.904,1.307,2.904,2.904V51.562z"/>
<path fill="#000000" d="M70.603,36.167v11.915c1.301-1.636,2.079-3.705,2.079-5.958S71.903,37.803,70.603,36.167z"/>
<g>
	<g>
		<circle fill="#000000" cx="31.589" cy="70.78" r="0.871"/>
		<circle fill="#000000" cx="35.074" cy="70.78" r="0.871"/>
		<circle fill="#000000" cx="38.559" cy="70.78" r="0.871"/>
		<circle fill="#000000" cx="42.044" cy="70.78" r="0.871"/>
		<circle fill="#000000" cx="45.529" cy="70.78" r="0.871"/>
		<circle fill="#000000" cx="49.014" cy="70.78" r="0.871"/>
		<circle fill="#000000" cx="52.499" cy="70.78" r="0.871"/>
		<circle fill="#000000" cx="55.984" cy="70.78" r="0.871"/>
		<circle fill="#000000" cx="59.469" cy="70.78" r="0.872"/>
		<circle fill="#000000" cx="62.954" cy="70.78" r="0.871"/>
		<circle fill="#000000" cx="66.439" cy="70.78" r="0.871"/>
	</g>
	<g>
		<circle fill="#000000" cx="31.589" cy="74.266" r="0.871"/>
		<circle fill="#000000" cx="35.074" cy="74.266" r="0.871"/>
		<circle fill="#000000" cx="38.559" cy="74.266" r="0.871"/>
		<circle fill="#000000" cx="42.044" cy="74.266" r="0.871"/>
		<circle fill="#000000" cx="45.529" cy="74.266" r="0.871"/>
		<circle fill="#000000" cx="49.014" cy="74.266" r="0.871"/>
		<circle fill="#000000" cx="52.499" cy="74.266" r="0.871"/>
		<circle fill="#000000" cx="55.984" cy="74.266" r="0.871"/>
		<circle fill="#000000" cx="59.469" cy="74.266" r="0.872"/>
		<circle fill="#000000" cx="62.954" cy="74.266" r="0.871"/>
		<circle fill="#000000" cx="66.439" cy="74.266" r="0.871"/>
	</g>
	<g>
		<circle fill="#000000" cx="31.589" cy="77.751" r="0.871"/>
		<circle fill="#000000" cx="35.074" cy="77.751" r="0.871"/>
		<circle fill="#000000" cx="38.559" cy="77.751" r="0.871"/>
		<circle fill="#000000" cx="42.044" cy="77.751" r="0.871"/>
		<circle fill="#000000" cx="45.529" cy="77.751" r="0.871"/>
		<circle fill="#000000" cx="49.014" cy="77.751" r="0.871"/>
		<circle fill="#000000" cx="52.499" cy="77.751" r="0.871"/>
		<circle fill="#000000" cx="55.984" cy="77.751" r="0.871"/>
		<circle fill="#000000" cx="59.469" cy="77.751" r="0.872"/>
		<circle fill="#000000" cx="62.954" cy="77.751" r="0.871"/>
		<circle fill="#000000" cx="66.439" cy="77.751" r="0.871"/>
	</g>
	<g>
		<circle fill="#000000" cx="31.589" cy="81.235" r="0.871"/>
		<circle fill="#000000" cx="35.074" cy="81.235" r="0.871"/>
		<circle fill="#000000" cx="38.559" cy="81.235" r="0.871"/>
		<circle fill="#000000" cx="42.044" cy="81.235" r="0.871"/>
		<circle fill="#000000" cx="45.529" cy="81.235" r="0.871"/>
		<circle fill="#000000" cx="49.014" cy="81.235" r="0.871"/>
		<circle fill="#000000" cx="52.499" cy="81.235" r="0.871"/>
		<circle fill="#000000" cx="55.984" cy="81.235" r="0.871"/>
		<circle fill="#000000" cx="59.469" cy="81.235" r="0.872"/>
		<circle fill="#000000" cx="62.954" cy="81.235" r="0.871"/>
		<circle fill="#000000" cx="66.439" cy="81.235" r="0.871"/>
	</g>
	<g>
		<circle fill="#000000" cx="31.589" cy="84.721" r="0.871"/>
		<circle fill="#000000" cx="35.074" cy="84.721" r="0.871"/>
		<circle fill="#000000" cx="38.559" cy="84.721" r="0.871"/>
		<circle fill="#000000" cx="42.044" cy="84.721" r="0.871"/>
		<circle fill="#000000" cx="45.529" cy="84.721" r="0.871"/>
		<circle fill="#000000" cx="49.014" cy="84.721" r="0.871"/>
		<circle fill="#000000" cx="52.499" cy="84.721" r="0.871"/>
		<circle fill="#000000" cx="55.984" cy="84.721" r="0.871"/>
		<circle fill="#000000" cx="59.469" cy="84.721" r="0.872"/>
		<circle fill="#000000" cx="62.954" cy="84.721" r="0.871"/>
		<circle fill="#000000" cx="66.439" cy="84.721" r="0.871"/>
	</g>
	<g>
		<circle fill="#000000" cx="31.589" cy="88.206" r="0.871"/>
		<circle fill="#000000" cx="35.074" cy="88.206" r="0.871"/>
		<circle fill="#000000" cx="38.559" cy="88.206" r="0.871"/>
		<circle fill="#000000" cx="42.044" cy="88.206" r="0.871"/>
		<circle fill="#000000" cx="45.529" cy="88.206" r="0.871"/>
		<circle fill="#000000" cx="49.014" cy="88.206" r="0.871"/>
		<circle fill="#000000" cx="52.499" cy="88.206" r="0.871"/>
		<circle fill="#000000" cx="55.984" cy="88.206" r="0.871"/>
		<circle fill="#000000" cx="59.469" cy="88.206" r="0.872"/>
		<circle fill="#000000" cx="62.954" cy="88.206" r="0.871"/>
		<circle fill="#000000" cx="66.439" cy="88.206" r="0.871"/>
	</g>
	<g>
		<circle fill="#000000" cx="31.589" cy="91.69" r="0.871"/>
		<circle fill="#000000" cx="35.074" cy="91.69" r="0.871"/>
		<circle fill="#000000" cx="38.559" cy="91.69" r="0.871"/>
		<circle fill="#000000" cx="42.044" cy="91.69" r="0.871"/>
		<circle fill="#000000" cx="45.529" cy="91.69" r="0.871"/>
		<circle fill="#000000" cx="49.014" cy="91.69" r="0.871"/>
		<circle fill="#000000" cx="52.499" cy="91.69" r="0.871"/>
		<circle fill="#000000" cx="55.984" cy="91.69" r="0.871"/>
		<circle fill="#000000" cx="59.469" cy="91.69" r="0.872"/>
		<circle fill="#000000" cx="62.954" cy="91.69" r="0.871"/>
		<circle fill="#000000" cx="66.439" cy="91.69" r="0.871"/>
	</g>
	<g>
		<circle fill="#000000" cx="31.589" cy="67.296" r="0.871"/>
		<circle fill="#000000" cx="35.074" cy="67.296" r="0.871"/>
		<circle fill="#000000" cx="38.559" cy="67.296" r="0.871"/>
		<circle fill="#000000" cx="42.044" cy="67.296" r="0.871"/>
		<circle fill="#000000" cx="45.529" cy="67.296" r="0.871"/>
		<circle fill="#000000" cx="49.014" cy="67.296" r="0.871"/>
		<circle fill="#000000" cx="52.499" cy="67.296" r="0.871"/>
		<circle fill="#000000" cx="55.984" cy="67.296" r="0.871"/>
		<circle fill="#000000" cx="59.469" cy="67.296" r="0.872"/>
		<circle fill="#000000" cx="62.954" cy="67.296" r="0.871"/>
		<circle fill="#000000" cx="66.439" cy="67.296" r="0.871"/>
	</g>
	<g>
		<circle fill="#000000" cx="31.589" cy="63.811" r="0.871"/>
		<circle fill="#000000" cx="35.074" cy="63.811" r="0.871"/>
		<circle fill="#000000" cx="38.559" cy="63.811" r="0.871"/>
		<circle fill="#000000" cx="42.044" cy="63.811" r="0.871"/>
		<circle fill="#000000" cx="45.529" cy="63.811" r="0.871"/>
		<circle fill="#000000" cx="49.014" cy="63.811" r="0.871"/>
		<circle fill="#000000" cx="52.499" cy="63.811" r="0.871"/>
		<circle fill="#000000" cx="55.984" cy="63.811" r="0.871"/>
		<circle fill="#000000" cx="59.469" cy="63.811" r="0.872"/>
		<circle fill="#000000" cx="62.954" cy="63.811" r="0.871"/>
		<circle fill="#000000" cx="66.439" cy="63.811" r="0.871"/>
	</g>
</g>
<g>
	<path fill="#000000" d="M66.066,29.782h-4.894H40.728c-3.588,0-6.525,2.936-6.525,6.525v14.791c0,3.589,2.937,6.524,6.525,6.524   h20.445h4.894c0.897,0,1.632-0.733,1.632-1.631v-4.894V36.307v-4.894C67.698,30.516,66.964,29.782,66.066,29.782z"/>
	<g>
		<path fill="#000000" d="M63.511,37.513c0,0.442-0.358,0.801-0.801,0.801H40.619c-0.442,0-0.801-0.358-0.801-0.801v-0.099    c0-0.443,0.358-0.802,0.801-0.802H62.71c0.442,0,0.801,0.359,0.801,0.802V37.513z"/>
		<circle fill="#000000" cx="40.409" cy="40.019" r="0.591"/>
		<circle fill="#000000" cx="42.66" cy="40.019" r="0.36"/>
		<circle fill="#000000" cx="44.911" cy="40.019" r="0.36"/>
		<circle fill="#000000" cx="47.162" cy="40.019" r="0.36"/>
		<circle fill="#000000" cx="49.414" cy="40.019" r="0.36"/>
		<circle fill="#000000" cx="53.916" cy="40.019" r="0.36"/>
		<circle fill="#000000" cx="56.167" cy="40.019" r="0.36"/>
		<circle fill="#000000" cx="58.417" cy="40.019" r="0.36"/>
		<circle fill="#000000" cx="60.668" cy="40.019" r="0.36"/>
		<circle fill="#000000" cx="51.665" cy="40.019" r="0.591"/>
		<circle fill="#000000" cx="62.919" cy="40.019" r="0.591"/>
	</g>
	<rect x="44.422" y="35.818" fill="#000000" width="0.979" height="2.936"/>
</g>
<polygon fill="#000000" points="35.036,7.047 35.036,4.466 31.333,4.466 31.333,7.047 32.422,7.047 32.422,10.803 32.077,10.803   32.077,11.653 31.684,11.653 31.684,12.502 31.333,12.502 31.333,21.941 35.036,21.941 35.036,12.502 34.685,12.502 34.685,11.653   34.292,11.653 34.292,10.803 33.929,10.803 33.929,7.047 "/>
</svg>