<svg xmlns="http://www.w3.org/2000/svg" xmlns:xlink="http://www.w3.org/1999/xlink" version="1.1" id="Layer_1" x="0px" y="0px" width="100px" height="100px" viewBox="0 0 100 100" enable-background="new 0 0 100 100" xml:space="preserve">
<path fill="#000000" d="M43.758,60.575l1.002,17.536h0.912L44.1,59.92c-0.098,0.238-0.232,0.455-0.384,0.658L43.758,60.575z"/>
<path fill="#000000" d="M43.917,44.248l2.925,33.864h1.387l-4.107-34.285C44.065,43.974,43.994,44.112,43.917,44.248z"/>
<polygon fill="#000000" points="44.349,98.032 44.297,100.113 45.77,100.113 45.77,98.032 "/>
<rect x="46.937" y="98.032" fill="#000000" width="1.426" height="2.081"/>
<polygon fill="#000000" points="43.129,100.099 43.182,98.032 41.169,98.032 41.169,100.113 43.713,100.113 "/>
<polygon fill="#000000" points="43.628,80.361 41.169,80.361 41.169,95.782 43.238,95.782 "/>
<polygon fill="#000000" points="44.406,95.782 45.77,95.782 45.77,80.361 44.794,80.361 "/>
<polygon fill="#000000" points="52.122,98.032 52.122,100.072 50.955,100.108 50.955,98.032 49.529,98.032 49.53,100.113   53.547,100.113 53.547,98.032 "/>
<rect x="46.937" y="80.361" fill="#000000" width="1.426" height="15.421"/>
<path fill="#000000" d="M66.016,36.526c-1.469,0.284-1.773,2.552-1.773,2.552h-0.486c0.213-4.509,0.437-9.174,0.656-13.638h0.616  c0,0,0.306,2.268,1.773,2.552c1.447,0.281,4.714-0.429,4.787-3.583c-0.073-3.153-3.34-3.864-4.787-3.583  c-1.468,0.284-1.773,2.552-1.773,2.552h-0.516c0.105-2.143,0.209-4.226,0.309-6.201c-0.045-0.332-0.061-0.692-0.078-1.061  c-0.073-1.591-0.183-3.996-3.15-4.117l-22.726,0c-2.943,0.121-3.053,2.525-3.125,4.116c-0.017,0.368-0.033,0.729-0.081,1.167  c0.098,1.94,0.201,3.988,0.306,6.095h-0.994c0,0-0.305-2.268-1.772-2.552c-1.448-0.282-4.717,0.429-4.789,3.583  c0.072,3.154,3.341,3.863,4.789,3.583c1.467-0.284,1.772-2.552,1.772-2.552h1.095c0.22,4.458,0.446,9.124,0.658,13.638h-0.966  c0,0-0.306-2.268-1.772-2.552c-1.448-0.281-4.718,0.429-4.79,3.583c0.072,3.152,3.342,3.863,4.79,3.583  c1.467-0.284,1.772-2.552,1.772-2.552h1.063c0.233,4.99,0.445,9.704,0.61,13.636h-0.886c0,0-0.307-2.267-1.773-2.55  c-1.448-0.283-4.715,0.429-4.788,3.582c0.073,3.152,3.34,3.863,4.788,3.583c1.467-0.285,1.773-2.552,1.773-2.552h0.972  c0.186,4.6,0.288,7.784,0.25,8.493c-0.182,0.352-0.031,1.266,1.917,9.082c0.415,1.664,0.84,3.369,0.894,3.696h3.014l-0.953-16.647  c-0.388,0.187-0.817,0.301-1.276,0.301c-1.632,0-2.958-1.333-2.958-2.979c0-1.645,1.325-2.977,2.958-2.977  c1.056,0,1.977,0.56,2.5,1.397L42.839,45.33c-0.436,0.254-0.934,0.41-1.474,0.41c-1.632,0-2.958-1.333-2.958-2.978  c0-1.645,1.325-2.978,2.958-2.978c1.005,0,1.891,0.507,2.425,1.278l-1.384-11.56c-0.327,0.125-0.671,0.213-1.041,0.213  c-1.632,0-2.958-1.332-2.958-2.978c0-1.645,1.325-2.978,2.958-2.978c1.635,0,2.959,1.333,2.959,2.978c0,0.8-0.319,1.518-0.829,2.053  l5.903,49.322h1.68l5.427-49.319c-0.51-0.535-0.83-1.255-0.83-2.056c0-1.645,1.324-2.978,2.959-2.978  c1.632,0,2.958,1.333,2.958,2.978c0,1.646-1.326,2.978-2.958,2.978c-0.367,0-0.708-0.087-1.033-0.209l-1.253,11.389  c0.541-0.672,1.358-1.11,2.286-1.11c1.632,0,2.958,1.333,2.958,2.978c0,1.645-1.326,2.978-2.958,2.978  c-0.531,0-1.021-0.152-1.452-0.398l-0.844,11.587c0.543-0.677,1.363-1.119,2.296-1.119c1.632,0,2.958,1.332,2.958,2.977  c0,1.646-1.326,2.979-2.958,2.979c-0.45,0-0.872-0.109-1.254-0.29l-0.539,16.637h3.062c0.054-0.327,0.479-2.033,0.895-3.697  c1.95-7.817,2.101-8.73,1.918-9.081c-0.038-0.709,0.063-3.892,0.251-8.493h0.486c0,0,0.308,2.267,1.773,2.552  c1.45,0.28,4.716-0.431,4.789-3.583c-0.073-3.153-3.339-3.865-4.789-3.582c-1.466,0.283-1.773,2.55-1.773,2.55h-0.402  c0.165-3.931,0.377-8.644,0.609-13.636h0.582c0,0,0.305,2.268,1.773,2.552c1.447,0.28,4.716-0.43,4.789-3.583  C70.731,36.956,67.463,36.245,66.016,36.526z"/>
<rect x="52.121" y="80.361" fill="#000000" width="1.426" height="15.421"/>
<polygon fill="#000000" points="56.111,98.032 54.714,98.032 54.714,100.113 56.164,100.113 "/>
<polygon fill="#000000" points="57.278,98.032 57.331,100.099 56.747,100.113 59.313,100.113 59.313,98.032 "/>
<polygon fill="#000000" points="59.313,80.361 56.831,80.361 57.222,95.782 59.313,95.782 "/>
<polygon fill="#000000" points="54.713,80.361 54.714,95.782 56.054,95.782 55.666,80.361 "/>
<path fill="#000000" d="M54.798,78.111h0.876l0.567-17.522l0.055,0.003c-0.074-0.097-0.141-0.196-0.202-0.3L54.798,78.111z"/>
<rect x="49.526" y="80.361" fill="#000000" width="1.429" height="15.421"/>
<path fill="#000000" d="M52.25,78.111h1.379l2.462-33.853c-0.033-0.057-0.065-0.115-0.095-0.174L52.25,78.111z"/>
</svg>