<svg xmlns="http://www.w3.org/2000/svg" xmlns:xlink="http://www.w3.org/1999/xlink" version="1.1" x="0px" y="0px" width="100px" height="100px" viewBox="0 0 100 100" enable-background="new 0 0 100 100" xml:space="preserve">
<g id="Layer_1">
</g>
<g id="Layer_2">
	<path fill="#000000" d="M86.292,82.303c-0.698-1.147-2.224-3.733-3.991-6.728c-2.481-4.206-5.571-9.441-7.57-12.73   c-2.063-3.394-6.219-5.854-9.885-8.026c-2.902-1.719-5.644-3.343-6.664-5.02c-0.694-1.143-2.933-4.819-5.837-9.587   C60.046,27.521,71.151,9.217,71.828,8.102c0.565-0.929,0.269-2.145-0.66-2.709s-2.145-0.269-2.709,0.66   C68.3,6.313,57.822,23.517,50,36.36C42.178,23.517,31.7,6.313,31.541,6.053c-0.564-0.929-1.78-1.225-2.709-0.66   s-1.226,1.78-0.66,2.709c0.677,1.115,11.782,19.419,19.483,32.109c-2.904,4.769-5.143,8.445-5.837,9.587   c-1.021,1.677-3.762,3.301-6.664,5.02c-3.666,2.172-7.821,4.633-9.885,8.026c-1.999,3.289-5.089,8.524-7.57,12.73   c-1.768,2.994-3.293,5.58-3.991,6.728c-0.801,1.317-1.604,2.874-0.993,4.679c0.578,1.707,2.304,3.359,5.595,5.36   s5.553,2.771,7.333,2.499c1.884-0.288,2.896-1.718,3.696-3.035c0.698-1.147,2.291-3.693,4.136-6.64   c2.592-4.14,5.817-9.292,7.816-12.58c2.063-3.394,2.336-8.216,2.576-12.471c0.189-3.368,0.369-6.549,1.389-8.227   c0.609-1.001,2.383-3.923,4.744-7.813c2.361,3.89,4.135,6.812,4.744,7.813c1.02,1.678,1.199,4.858,1.389,8.227   c0.24,4.255,0.513,9.077,2.576,12.471c1.999,3.288,5.225,8.44,7.816,12.58c1.845,2.946,3.438,5.492,4.136,6.64   c0.801,1.317,1.812,2.747,3.696,3.035c1.78,0.272,4.042-0.498,7.333-2.499s5.017-3.653,5.595-5.36   C87.896,85.177,87.093,83.62,86.292,82.303z"/>
</g>
</svg>