<svg xmlns="http://www.w3.org/2000/svg" xmlns:xlink="http://www.w3.org/1999/xlink" version="1.1" x="0px" y="0px" width="100px" height="100px" viewBox="0 0 100 100" enable-background="new 0 0 100 100" xml:space="preserve">
<g id="Layer_1">
	<path d="M81.519,60.447c-3.647-0.405-19.759-0.507-25.23-0.912c-3.222-0.238-12.768-1.918-20.301-3.3   c5.105-17.356,12.497-42.482,12.497-42.482c0.009-0.031,0.013-0.062,0.018-0.094c0.456,0.026,0.807-0.081,0.873-0.306   c0.096-0.326-0.435-0.77-1.186-0.99c-0.751-0.221-1.438-0.136-1.533,0.19c-0.066,0.225,0.17,0.505,0.568,0.73   c-0.014,0.029-0.027,0.057-0.036,0.088c0,0-7.43,25.258-12.537,42.618c-4.633-0.854-8.241-1.546-8.66-1.622   c-1.114-0.202-8.309,0.608-10.74,0.912c-0.901,0.112-3.305,1.204-2.635,2.229c1.139,1.741,6.926,4,13.375,6.079   c1.751,0.564,3.777,1.139,5.925,1.7c-1.13,3.844-1.874,6.371-1.966,6.684c-0.459,1.562-3.8,5.437-4.969,7.76   c-1.168,2.323-1.965,4.236-1.545,5.693s2.016,1.801,2.674,1.994s2.186,0.769,3.327-0.229c1.143-0.997,1.509-3.038,1.784-5.624   c0.275-2.585-0.435-7.651,0.024-9.214c0.093-0.312,0.841-2.858,1.979-6.728c8.446,2.142,18.237,4.024,20.529,4.347   c6.485,0.912,15.401,1.014,23.913-0.607c8.512-1.622,9.728-4.661,9.829-5.877C87.599,62.271,85.166,60.853,81.519,60.447z"/>
</g>
<g id="Layer_2">
</g>
</svg>