<svg xmlns="http://www.w3.org/2000/svg" xmlns:xlink="http://www.w3.org/1999/xlink" version="1.1" x="0px" y="0px" width="100px" height="100px" viewBox="0 0 100 100" enable-background="new 0 0 100 100" xml:space="preserve">
<g id="Layer_1">
	<circle cx="50.005" cy="53.835" r="4.616"/>
	<path d="M86.539,32.419l0.961-0.562c-0.028-0.28-0.069-0.523-0.113-0.78c-0.049-0.251-0.107-0.497-0.169-0.744   c-0.121-0.494-0.278-0.974-0.452-1.448c-0.349-0.947-0.78-1.86-1.271-2.743c-0.985-1.76-2.206-3.387-3.577-4.87   s-2.895-2.819-4.512-4.016c-1.617-1.197-3.334-2.241-5.101-3.164c-3.544-1.827-7.296-3.138-11.085-3.991   C57.429,9.242,53.6,8.816,49.815,8.734c-3.77-0.081-7.59,0.175-11.421,0.878c-3.822,0.708-7.659,1.865-11.312,3.65   c-1.825,0.888-3.598,1.943-5.271,3.164c-1.671,1.222-3.239,2.624-4.614,4.208c-1.375,1.581-2.555,3.352-3.409,5.263   c-0.425,0.957-0.77,1.946-0.998,2.961c-0.111,0.509-0.201,1.021-0.246,1.542c-0.022,0.26-0.038,0.521-0.044,0.781   c0,0.132,0.002,0.264,0.007,0.396c0.002,0.137,0.015,0.257,0.023,0.417l0.857,0.3l15.931,23.643   c-0.218,0.804-0.013,1.697,0.617,2.328l5.511,5.51c0.225,0.225,0.483,0.394,0.759,0.511c0.004,0.002,0.006,0.003,0.01,0.005   c0.061,0.025,0.123,0.047,0.186,0.067c0.014,0.005,0.025,0.01,0.039,0.014c0.058,0.018,0.115,0.032,0.174,0.045   c0.02,0.005,0.038,0.01,0.058,0.015c0.06,0.012,0.119,0.02,0.179,0.027c0.02,0.002,0.038,0.006,0.058,0.008   c0.079,0.008,0.159,0.012,0.238,0.012c0.001,0,0.002,0,0.003,0h7.69v10.704v1.42v12.274c0,1.327,1.075,2.402,2.403,2.402   c1.326,0,2.402-1.075,2.402-2.402V76.604h0.722v12.274c0,1.327,1.075,2.402,2.402,2.402s2.402-1.075,2.402-2.402V76.604v-1.42   V64.479h7.691c0.001,0,0.001,0,0.002,0c0.08,0,0.159-0.004,0.239-0.012c0.02-0.002,0.039-0.006,0.059-0.009   c0.059-0.007,0.118-0.015,0.177-0.026c0.021-0.005,0.04-0.011,0.06-0.015c0.058-0.014,0.115-0.027,0.172-0.045   c0.015-0.004,0.027-0.01,0.042-0.014c0.062-0.021,0.123-0.042,0.183-0.067c0.005-0.002,0.009-0.005,0.014-0.006   c0.274-0.117,0.531-0.286,0.755-0.51l5.511-5.51c0.631-0.631,0.835-1.524,0.618-2.328L86.539,32.419z M81.589,30.466   c0.79,0.273,1.584,0.577,2.385,0.915c0.283,0.119,0.565,0.245,0.851,0.374L70.549,52.941l1.571-24.81   c0.078,0.013,0.156,0.024,0.234,0.037c1.514,0.252,3.033,0.556,4.569,0.929C78.46,29.472,80.014,29.914,81.589,30.466z    M67.835,27.538c0.835,0.092,1.67,0.199,2.506,0.319l-1.507,23.794L60.33,26.935C62.844,27.067,65.341,27.249,67.835,27.538z    M39.747,26.737l-8.571,24.914L29.637,27.34c0.582-0.063,1.164-0.121,1.748-0.172C34.137,26.932,36.919,26.808,39.747,26.737z    M18.128,29.951c1.502-0.609,2.991-1.057,4.463-1.421c1.764-0.429,3.512-0.738,5.263-0.974l1.607,25.386L15.002,31.482   c0.287-0.168,0.574-0.331,0.862-0.481C16.622,30.602,17.376,30.255,18.128,29.951z M61.87,59.675h-6.699h-0.102H44.94h-0.102   h-6.698l-4.807-4.807c-0.328-0.327-0.729-0.538-1.149-0.637l9.472-27.532c2.6-0.045,5.24-0.053,7.912-0.044   c2.982,0.014,5.922,0.067,8.834,0.188l9.423,27.389c-0.421,0.099-0.82,0.31-1.148,0.637L61.87,59.675z"/>
</g>
<g id="Layer_2">
</g>
</svg>