<svg xmlns="http://www.w3.org/2000/svg" xmlns:xlink="http://www.w3.org/1999/xlink" version="1.1" x="0px" y="0px" width="100px" height="100px" viewBox="0 0 100 100" enable-background="new 0 0 100 100" xml:space="preserve">
<g id="Layer_1">
	<path d="M86.939,74.021c-0.169-0.169-0.539-0.553-0.975-1.002c-0.627-0.646-1.384-1.429-1.878-1.923   c-0.619-0.619-1.77-1.035-2.883-1.438c-0.544-0.195-1.365-0.492-1.544-0.646l-5.982-5.975c0.044-0.492,0.076-0.981,0.089-1.468   c0.028-1.069-0.018-2.126-0.132-3.159l-0.047-0.387l-0.058-0.419l-0.053-0.314l-0.049-0.278l-0.199-1.115l-0.645-3.619   c1.677,1.679,2.982,2.985,3.187,3.189c0.158,0.183,0.455,1.005,0.651,1.548c0.402,1.115,0.818,2.268,1.438,2.887   c0.498,0.497,1.288,1.263,1.938,1.892c0.443,0.428,0.82,0.791,0.987,0.958c0.169,0.171,0.564,0.566,1.199,0.566   c0.609,0,1.206-0.348,2.06-1.2c0.63-0.632,1.944-1.947,0.634-3.256c-0.17-0.171-0.54-0.552-0.974-1.001   c-0.626-0.648-1.384-1.432-1.878-1.925c-0.619-0.62-1.771-1.035-2.883-1.437c-0.545-0.197-1.366-0.494-1.545-0.648l-5.489-5.48   c-0.339-1.955-0.682-3.908-1.005-5.862l-0.375-2.234l-0.287-1.768c1.715,1.717,3.061,3.062,3.269,3.27   c0.157,0.184,0.454,1.006,0.65,1.549c0.402,1.115,0.819,2.268,1.438,2.887c0.497,0.497,1.286,1.261,1.937,1.889   c0.443,0.43,0.821,0.796,0.989,0.963c0.169,0.169,0.564,0.564,1.197,0.564c0.609,0,1.206-0.348,2.061-1.2   c0.631-0.632,1.943-1.947,0.636-3.256c-0.166-0.165-0.52-0.531-0.938-0.965c-0.634-0.653-1.413-1.459-1.916-1.962   c-0.619-0.619-1.771-1.035-2.886-1.438c-0.543-0.195-1.363-0.492-1.541-0.645l-5.621-5.614c-0.141-0.571-0.295-1.137-0.478-1.692   c-0.592-1.795-1.409-3.495-2.407-5.065c-0.997-1.572-2.179-3.017-3.522-4.295c-1.345-1.276-2.845-2.401-4.491-3.306   c-1.645-0.903-3.434-1.591-5.312-1.984c-1.076-0.226-2.184-0.229-3.293-0.249v-0.002c-0.004,0-0.007,0-0.013,0.002   c-0.003-0.002-0.007-0.002-0.011-0.002v0.002c-1.11,0.02-2.219,0.023-3.295,0.249c-1.879,0.394-3.668,1.081-5.312,1.984   c-1.646,0.904-3.147,2.029-4.491,3.306c-1.344,1.278-2.526,2.723-3.522,4.295c-0.998,1.57-1.815,3.271-2.407,5.065   c-0.184,0.556-0.338,1.121-0.478,1.69l-5.616,5.61c-0.184,0.158-1.004,0.455-1.547,0.65c-1.114,0.402-2.267,0.818-2.886,1.438   c-0.503,0.503-1.282,1.309-1.916,1.962c-0.418,0.434-0.771,0.8-0.937,0.965c-1.309,1.309,0.004,2.624,0.636,3.258   c0.854,0.851,1.45,1.198,2.06,1.198c0.633,0,1.028-0.396,1.196-0.562c0.169-0.169,0.547-0.535,0.99-0.965   c0.65-0.628,1.439-1.392,1.937-1.889c0.618-0.619,1.035-1.771,1.438-2.887c0.196-0.543,0.493-1.365,0.645-1.541   c0.209-0.21,1.558-1.56,3.275-3.277l-0.287,1.768l-0.374,2.234c-0.324,1.954-0.667,3.907-1.005,5.86   c-2.659,2.654-5.194,5.187-5.486,5.479c-0.184,0.157-1.005,0.454-1.55,0.651c-1.113,0.401-2.264,0.816-2.883,1.437   c-0.494,0.493-1.252,1.276-1.878,1.925c-0.434,0.449-0.804,0.83-0.974,1.001c-1.311,1.309,0.004,2.624,0.635,3.256   c0.853,0.853,1.449,1.2,2.059,1.2c0.635,0,1.03-0.396,1.197-0.564c0.169-0.169,0.546-0.532,0.989-0.96   c0.649-0.629,1.44-1.395,1.938-1.892c0.619-0.619,1.035-1.771,1.438-2.887c0.196-0.543,0.493-1.365,0.645-1.541   c0.206-0.206,1.516-1.517,3.194-3.196l-0.645,3.619l-0.199,1.115l-0.05,0.278l-0.052,0.314l-0.057,0.419l-0.048,0.387   c-0.114,1.033-0.16,2.09-0.133,3.159c0.013,0.486,0.045,0.976,0.09,1.466l-5.979,5.972c-0.184,0.159-1.005,0.456-1.549,0.651   c-1.113,0.402-2.264,0.818-2.883,1.438c-0.494,0.494-1.252,1.277-1.878,1.923c-0.436,0.449-0.806,0.833-0.975,1.002   c-1.31,1.311,0.004,2.624,0.637,3.256c0.853,0.853,1.449,1.2,2.059,1.2c0.633,0,1.028-0.396,1.196-0.562   c0.167-0.167,0.539-0.527,0.977-0.95c0.652-0.632,1.449-1.402,1.949-1.903c0.621-0.619,1.036-1.771,1.439-2.887   c0.196-0.543,0.491-1.363,0.645-1.541l4.798-4.803c0.161,0.735,0.346,1.469,0.586,2.196c0.353,1.065,0.787,2.12,1.318,3.138   c0.524,1.021,1.146,2.006,1.849,2.939c1.405,1.87,3.167,3.531,5.186,4.82c2.018,1.291,4.285,2.204,6.606,2.682   c1.158,0.243,2.331,0.372,3.492,0.411l0.668,0.015c0.188,0.005,0.377,0.009,0.565,0.009c0.377,0.004,0.754,0.004,1.13,0   c0.614-0.005,1.228-0.021,1.84-0.043c0.614,0.021,1.227,0.038,1.84,0.043c0.377,0.004,0.754,0.004,1.131,0   c0.188,0,0.377-0.004,0.565-0.009l0.668-0.015c1.16-0.039,2.334-0.168,3.492-0.411c2.321-0.478,4.588-1.391,6.605-2.682   c2.021-1.289,3.781-2.95,5.188-4.82c0.702-0.934,1.323-1.919,1.848-2.939c0.531-1.018,0.966-2.072,1.318-3.138   c0.24-0.728,0.425-1.461,0.586-2.196l4.792,4.796c0.158,0.185,0.453,1.005,0.649,1.548c0.403,1.115,0.818,2.268,1.439,2.887   c0.5,0.501,1.297,1.271,1.949,1.903c0.438,0.423,0.809,0.783,0.976,0.948c0.169,0.169,0.563,0.564,1.197,0.564   c0.609,0,1.206-0.348,2.059-1.2C86.936,76.646,88.249,75.332,86.939,74.021z M61.938,59.182c-0.016,0.469-0.072,0.925-0.174,1.358   c-0.201,0.868-0.582,1.646-1.081,2.276c-0.248,0.317-0.533,0.593-0.826,0.838c-0.299,0.239-0.613,0.445-0.937,0.614   c-0.646,0.339-1.32,0.527-1.97,0.64c-0.653,0.107-1.289,0.144-1.943,0.148c-0.328-0.002-0.662-0.003-1.009-0.024   c-0.042-0.002-0.283-0.007-0.462-0.011c-0.188-0.006-0.377-0.007-0.565-0.007c-0.377-0.006-0.754-0.006-1.131-0.002   c-0.613,0.005-1.226,0.021-1.84,0.042c-0.612-0.021-1.226-0.037-1.84-0.042c-0.376-0.004-0.753-0.004-1.13,0.002   c-0.188,0-0.377,0.001-0.565,0.007c-0.179,0.004-0.42,0.009-0.462,0.011c-0.347,0.021-0.682,0.022-1.009,0.024   c-0.655-0.005-1.29-0.041-1.943-0.148c-0.648-0.112-1.323-0.301-1.97-0.64c-0.323-0.169-0.638-0.375-0.937-0.614   c-0.293-0.245-0.578-0.521-0.826-0.838c-0.499-0.631-0.88-1.408-1.082-2.276c-0.1-0.434-0.158-0.89-0.173-1.358l-0.009-0.321   l0.006-0.142l0.001-0.034c0.003-0.021-0.006,0.045-0.002,0l0.005-0.071l0.014-0.282l0.059-1.131l0.236-4.525   c0.171-3.014,0.336-6.029,0.53-9.041l0.141-2.26l0.152-2.259l0.078-1.129c0.029-0.421,0.036-0.64,0.065-0.929   c0.05-0.552,0.144-1.106,0.272-1.653c0.261-1.097,0.662-2.178,1.2-3.202c0.542-1.021,1.213-1.983,1.99-2.847   c1.559-1.724,3.556-3.025,5.67-3.622c0.505-0.144,1.09-0.147,1.527-0.147c0.439,0,1.023,0.004,1.529,0.147   c2.114,0.597,4.111,1.898,5.669,3.622c0.778,0.863,1.449,1.825,1.991,2.847c0.537,1.024,0.939,2.105,1.2,3.202   c0.129,0.547,0.223,1.102,0.273,1.653c0.027,0.289,0.035,0.508,0.065,0.929l0.077,1.129l0.152,2.259l0.141,2.26   c0.193,3.012,0.359,6.026,0.53,9.041l0.235,4.525l0.059,1.131l0.016,0.282l0.004,0.071c0.003,0.045-0.004-0.021-0.002,0   l0.001,0.034l0.006,0.142L61.938,59.182z"/>
</g>
<g id="Layer_2">
</g>
</svg>