<?xml version="1.0" encoding="utf-8"?>
<!-- Generator: Adobe Illustrator 15.1.0, SVG Export Plug-In . SVG Version: 6.00 Build 0)  -->
<!DOCTYPE svg PUBLIC "-//W3C//DTD SVG 1.1//EN" "http://www.w3.org/Graphics/SVG/1.1/DTD/svg11.dtd">
<svg version="1.1" id="Layer_1" xmlns="http://www.w3.org/2000/svg" xmlns:xlink="http://www.w3.org/1999/xlink" x="0px" y="0px"
	 width="100px" height="83px" viewBox="0 0 100 83" enable-background="new 0 0 100 83" xml:space="preserve">
<rect x="26.943" width="8.25" height="4.979"/>
<path d="M77.311,75c0.276,0,0.5-0.224,0.5-0.5s-0.224-0.5-0.5-0.5c0,0-8-0.5-8.5-4.5v-11c-0.5-10,16.5-5,7.5-33.5h-8.5h-8.5
	c-9,28.5,8,23.5,7.5,33.5v11c-0.5,4-8.5,4.5-8.5,4.5c-0.276,0-0.5,0.224-0.5,0.5s0.224,0.5,0.5,0.5H37.444
	c2.249,0,3.749-2.25,3.749-3.75c0-9.75,0-33,0-42.751c0-5.249-6-5.999-6-8.249c0-3,0-11.271,0-11.271h-8.25c0,0,0,8.271,0,11.271
	c0,2.25-6,3-6,8.249c0,11.251,0,33.751,0,42.751c0,1.5,1.5,3.75,3.749,3.75H-0.057v8h100v-8H77.311z"/>
</svg>
