<svg xmlns="http://www.w3.org/2000/svg" xmlns:xlink="http://www.w3.org/1999/xlink" version="1.1" id="Layer_1" x="0px" y="0px" width="100px" height="100px" viewBox="0 0 100 100" enable-background="new 0 0 100 100" xml:space="preserve">
<path d="M81.374,31.215c-0.047-0.229-0.039-0.374-0.148-0.579c-0.091-0.172-0.14-0.346-0.213-0.515  c-0.18-0.42-0.383-0.783-0.662-1.155c-0.11-0.147-0.318-0.259-0.431-0.418c-0.119-0.169-0.201-0.507-0.242-0.702  c-0.047-0.225-0.123-0.386-0.151-0.6c-0.036-0.271,0.003-0.577,0.003-0.852c0-0.566-0.003-0.981-0.334-1.454  c-0.337-0.483-0.633-0.881-1.114-1.239c-0.438-0.327-0.867-0.647-1.345-0.912c-0.166-0.091-0.313-0.193-0.473-0.301  c-0.323-0.217-0.37-0.325-0.518-0.666c-0.258-0.594-0.28-1.304-0.57-1.874c-0.184-0.362-0.407-0.71-0.763-0.918  c-0.185-0.108-0.301-0.109-0.464-0.267c-0.152-0.148-0.241-0.317-0.357-0.49c-0.299-0.448-0.629-0.848-1.094-1.121  c-0.275-0.162-0.351-0.213-0.689-0.21c-0.631,0.006-1.223-0.06-1.849-0.118c-0.352-0.033-0.652-0.161-0.993-0.226  c-0.151-0.027-0.295,0-0.437-0.043c-0.108-0.034-0.218-0.162-0.359-0.195c-0.171-0.039-0.318,0.007-0.486-0.018  c-0.659-0.096-1.268-0.262-1.754-0.729c-0.33-0.318-0.661-0.65-1.066-0.885c-0.356-0.207-0.583-0.53-0.872-0.815  c-0.801-0.787-1.813-0.733-2.882-0.727c-0.307,0.002-0.524-0.096-0.821-0.128c-0.253-0.027-0.504,0.043-0.754-0.021  c-0.243-0.062-0.479-0.159-0.727-0.219c-0.288-0.069-0.555-0.078-0.852-0.115c-0.437-0.055-0.87-0.296-1.33-0.372  c-0.118-0.02-0.252,0.04-0.369,0.012c-0.11-0.025-0.12-0.108-0.229-0.134c-0.108-0.024-0.231,0.003-0.344-0.021  c-0.13-0.026-0.211-0.096-0.391-0.094c-0.236,0.004-0.496-0.034-0.729-0.003c-0.213,0.028-0.383,0.1-0.604,0.151  c-0.419,0.096-0.75,0.372-1.087,0.608c-0.401,0.28-0.876,0.595-1.13,1.034c-0.267,0.462-0.386,1-0.604,1.48  c-0.22,0.486-0.209,1.011-0.209,1.546c0,0.778-0.055,1.569,0.095,2.329c0.044,0.221,0.017,0.42,0.024,0.642  c0.006,0.206,0.062,0.346,0.097,0.543c0.063,0.361-0.019,0.726,0.021,1.087c0.043,0.399,0.13,0.741,0.128,1.15  c-0.002,0.413,0,0.826,0,1.239c0,0.791,0.01,1.582,0.001,2.372c-0.006,0.406,0.082,0.53,0.271,0.873  c0.192,0.35,0.407,0.674,0.575,1.033c0.15,0.321,0.374,0.591,0.519,0.905c0.144,0.316,0.298,0.644,0.421,0.973  c0.225,0.6,0.491,1.177,0.633,1.787c0.115,0.498,0.415,1.002,0.64,1.455c0.274,0.551,0.688,0.979,1.057,1.451  c0.342,0.436,0.773,0.748,1.125,1.181c0.074,0.094,0.148,0.168,0.222,0.245c-0.938,1.307-1.688,2.651-2.296,3.949  c-0.635-1.328-1.564-2.87-2.82-3.93c-1.878-1.583-4.477-2.229-7.093-2.529c-0.558-0.422-1.131-1.162-1.6-1.869  c0.313-0.155,0.624-0.321,0.923-0.533c0.895-0.631,0.841-1.729,0.845-2.744c0.003-0.665-0.026-1.099-0.364-1.69  c-0.315-0.55-0.528-1.21-0.944-1.683c-0.879-0.998-1.908-1.824-2.926-2.698c-0.821-0.704-1.416-1.576-2.159-2.328  c-0.317-0.32-0.641-0.609-0.992-0.885c-0.529-0.415-0.823-0.761-1.215-1.28c-0.188-0.247-0.445-0.369-0.645-0.622  c-0.194-0.248-0.345-0.578-0.521-0.846c-0.377-0.57-0.512-1.323-0.96-1.84c-0.123,0.368-0.043,0.854-0.043,1.248  c-0.001,0.891,0,1.782,0,2.674c0,0.557,0.091,1.18-0.046,1.719c-0.091,0.351-0.24,0.7-0.329,1.052  c-0.168,0.66-0.045,1.476-0.047,2.159c-0.004,1.229,0.377,2.389,0.428,3.594c0.033,0.789,0.125,1.435,0.623,2.056  c0.477,0.595,0.859,1.253,1.323,1.847c0.428,0.549,0.752,0.872,1.271,1.346c0.586,0.532,1.03,0.681,1.845,0.687l0.119,0.015  c0.542-0.004,0.229,0.032,0.743,0.011c0.484-0.02,0.647-0.044,1.056-0.246c0.128,0.2,0.265,0.408,0.415,0.62  c-0.368-0.017-0.731-0.031-1.086-0.046c-3.178-0.129-6.476-0.079-8.702,0.1c-0.215-0.183-0.433-0.365-0.657-0.551  c-0.485-0.399-1.128-0.518-1.651-0.848c-0.411-0.26-0.899-0.486-1.366-0.634c-0.164-0.053-0.316-0.047-0.479-0.087  c-0.206-0.052-0.276-0.159-0.476-0.244c-0.24-0.102-0.611-0.208-0.871-0.258c-0.703-0.137-1.535-0.354-2.258-0.317  c-0.395,0.021-0.756,0.008-1.154,0.001c-0.229-0.005-0.601,0.001-0.787,0.036c-0.837,0.153-1.691,0.66-2.483,0.989  c-0.754,0.313-1.508,0.626-2.261,0.939c-0.317,0.132-0.653,0.24-0.933,0.431c-0.028,0.02-0.262,0.236-0.301,0.27  c-0.152,0.088-0.291,0.196-0.414,0.323c-0.994,0.738-2.05,1.567-2.771,2.592c-0.838,1.191-1.714,2.383-2.609,3.542  c-0.926,1.2-2.336,2.096-3.597,2.879c0.133,0.222,0.651-0.117,0.859-0.207c0.328-0.141,0.54-0.161,0.873-0.212  C8.781,42.043,9.322,42.059,9.905,42c0.732-0.071,1.431-0.046,2.154,0.067c0.265,0.041,0.509,0.138,0.783,0.159  c0.252,0.021,0.524,0.008,0.791,0.053c1.14,0.196,2.286,0.483,3.412,0.597c1.062,0.106,2.428,0.25,3.408-0.013  c0.609-0.164,1.224-0.514,1.807-0.756c0.273-0.113,0.545-0.232,0.819-0.342c0.322-0.128,0.341-0.269,0.576-0.44  c0.136-0.099,0.356-0.122,0.508-0.196c0.208-0.103,0.288-0.204,0.474-0.347c0.283-0.218,0.581-0.407,0.866-0.6  c0.226-0.152,0.34-0.305,0.58-0.438c0.295-0.166,0.503-0.26,0.757-0.503c0.813-0.779,1.7-1.447,2.561-2.171  c0.457-0.384,0.933-0.828,1.486-1.049c0.149-0.059,0.363-0.178,0.595-0.291c1.857-0.155,5.084-0.259,8.69-0.113  c0.659,0.026,1.349,0.055,2.05,0.098c-0.104,0.088-0.202,0.274-0.305,0.369c-1.23-0.363-2.558-0.235-3.703,0.037  c-0.46,0.108-1,0.282-1.455,0.481c-0.236,0.104-0.735,0.279-1.122,0.502l-0.233,0.206c-0.663,0.363-0.879,0.628-1.242,1.315  c-0.205,0.389-0.463,0.811-0.614,1.223c-0.136,0.373-0.377,0.848-0.461,1.207c-0.166,0.715,0.011,1.7,0.011,2.44  c0,1.12-0.064,2.165-0.248,3.252c-0.086,0.509-0.161,0.898-0.159,1.421c0.003,0.483-0.105,0.763-0.214,1.217  s-0.106,0.955-0.242,1.432c-0.138,0.484-0.387,0.937-0.558,1.409c-0.15,0.417-0.277,0.822-0.4,1.229  c-0.053,0.176-0.177,0.204-0.22,0.384c-0.06,0.256,0.025,0.608,0.017,0.872c-0.012,0.303-0.12,0.4-0.164,0.609  c-0.038,0.185-0.011,0.376-0.078,0.56c-0.077,0.207-0.291,0.397-0.383,0.613c-0.084,0.202,0.028,0.349-0.172,0.528  c0.547-0.385,1.206-0.557,1.806-0.886c0.821-0.447,1.303-1.32,2.029-1.89c0.309-0.242,0.7-0.312,0.97-0.594  c0.276-0.288,0.536-0.533,0.856-0.817c0.334-0.294,0.685-0.514,1.016-0.812c0.397-0.357,0.821-0.507,1.269-0.803  c1.104-0.729,2.026-1.631,3.048-2.453c0.446-0.36,0.985-0.625,1.377-1.051c0.398-0.437,0.824-0.921,1.215-1.375  c0.536-0.622,0.733-1.292,0.955-2.023c0.235-0.776,0.425-1.643,0.454-2.44c0.011-0.264,0.023-0.549,0.006-0.812  c-0.024-0.367-0.196-0.646-0.212-1.014c-0.018-0.387-0.105-0.476-0.204-0.803c-0.118-0.396-0.109-0.867-0.351-1.248  c-0.151-0.241-0.402-0.501-0.656-0.724c0.625-0.478,1.616-0.957,2.062-1.143c1.66,0.315,3.185,0.843,4.285,1.771  c1.729,1.459,2.762,4.31,3.056,5.215c-0.623,1.844-0.95,3.387-1.102,4.268c-2.302,0.082-4.05,0.44-4.158,0.877  c-0.14,0.12-0.232,0.26-0.251,0.427c-0.13,1.171,0.693,3.21,0.304,3.904c-0.391,0.694-6.508,4.338-8.199,7.981  c-1.691,3.645-1.908,4.338-2.038,7.417c-0.13,3.08,0.174,12.71,0.304,14.532c0.13,1.821,0.954,5.292,4.121,5.379  c3.167,0.086,9.192-0.304,10.843-0.304s7.676,0.39,10.843,0.304c3.167-0.087,3.991-3.558,4.121-5.379  c0.13-1.822,0.434-11.452,0.304-14.532c-0.13-3.079-0.348-3.772-2.038-7.417c-1.691-3.644-7.809-7.287-8.199-7.981  c-0.39-0.694,0.434-2.733,0.304-3.904c-0.013-0.11-0.062-0.207-0.131-0.295c0.016-0.029,0.025-0.059,0.025-0.089  c0-0.438-1.65-0.803-3.88-0.906c0.387-2.008,1.559-6.598,4.615-10.538c0.157,0.102,0.333,0.2,0.488,0.284  c0.516,0.275,1.049,0.498,1.578,0.723c0.463,0.197,0.855,0.479,1.36,0.609c0.313,0.081,0.627,0.172,0.942,0.242  c0.403,0.091,0.78,0.108,1.182,0.179c0.793,0.138,1.612,0.095,2.427,0.095c0.457,0,0.936,0.047,1.387-0.028  c0.294-0.048,0.594-0.066,0.886-0.115c0.392-0.065,0.821-0.307,1.183-0.466c0.374-0.164,0.843-0.283,1.183-0.509  c0.144-0.096,0.224-0.24,0.357-0.343c0.113-0.088,0.245-0.12,0.34-0.229c0.147-0.173,0.305-0.53,0.391-0.733  c0.111-0.268,0.266-0.564,0.333-0.849c0.036-0.154,0.042-0.461,0.163-0.578c0.207-0.201,0.689-0.173,0.957-0.271  c0.533-0.194,1.132-0.12,1.7-0.12c0.606,0,1.091,0.006,1.66-0.213c0.737-0.283,1.409-0.624,2.086-1.026  c0.532-0.315,1.123-0.646,1.461-1.158c0.086-0.128,0.258-0.271,0.337-0.414C81.574,31.706,81.413,31.407,81.374,31.215z   M68.88,20.931c0.325-0.251,0.794-0.19,1.045,0.136c0.158,0.206,0.326,0.402,0.494,0.599c0.204,0.24,0.409,0.481,0.601,0.736  c0.457,0.607,0.546,1.047,0.554,1.69c0.005,0.411-0.325,0.749-0.736,0.754c-0.003,0-0.006,0-0.009,0  c-0.408,0-0.74-0.327-0.746-0.736c-0.005-0.424-0.035-0.521-0.254-0.812c-0.174-0.231-0.359-0.448-0.545-0.666  c-0.183-0.215-0.365-0.43-0.539-0.655C68.493,21.65,68.554,21.183,68.88,20.931z M59.405,16.833c0.299-0.529,0.916-0.72,1.323-0.847  l0.143-0.045c0.444-0.151,0.86-0.154,1.262-0.159l0.126-0.001c0.561,0.011,1.05,0.166,1.462,0.338  c0.231,0.097,0.37,0.172,0.571,0.312c0.129,0.09,0.139,0.092,0.307,0.139l0.136,0.038c0.145,0.042,0.318,0.104,0.466,0.158  c0.17,0.062,0.283,0.083,0.398,0.107l0.215,0.046c0.332,0.079,0.956,0.254,1.402,0.543c0.375,0.242,0.604,0.546,0.807,0.812  c0.08,0.105,0.159,0.213,0.251,0.312c0.281,0.301,0.266,0.772-0.034,1.054c-0.145,0.134-0.327,0.2-0.51,0.2  c-0.199,0-0.397-0.079-0.545-0.236c-0.128-0.137-0.239-0.283-0.351-0.429c-0.152-0.202-0.273-0.361-0.429-0.461  c-0.184-0.12-0.541-0.251-0.935-0.344l-0.175-0.038c-0.183-0.038-0.36-0.076-0.552-0.146c-0.173-0.063-0.309-0.113-0.426-0.147  l-0.116-0.033c-0.265-0.072-0.448-0.133-0.761-0.352c-0.111-0.077-0.158-0.103-0.294-0.158c-0.285-0.12-0.572-0.226-0.866-0.225  l-0.134,0.002c-0.336,0.003-0.579,0.006-0.799,0.08L61.17,17.41c-0.105,0.032-0.298,0.092-0.416,0.148  c0.001,0.006,0.001,0.012,0.001,0.017c0.008,0.087,0.014,0.172,0.012,0.246c-0.001,0.074-0.003,0.129,0.001,0.173  c-0.006-0.058-0.034-0.124-0.074-0.184l-0.19,0.643l-0.334,0.669c-0.705-0.278-0.905-0.575-0.893-1.325  c0.001-0.03-0.004-0.064-0.007-0.101C59.252,17.479,59.226,17.15,59.405,16.833z M64.509,21.482c0.006,0.106,0.104,0.34,0.361,0.647  c0.135,0.161,0.515,0.263,0.852,0.352c0.268,0.07,0.544,0.145,0.803,0.264c0.374,0.173,0.537,0.615,0.364,0.989  c-0.126,0.272-0.396,0.433-0.678,0.433c-0.104,0-0.211-0.021-0.312-0.068c-0.141-0.065-0.344-0.119-0.56-0.176  c-0.523-0.14-1.175-0.312-1.614-0.837c-0.441-0.53-0.679-1.041-0.704-1.521c-0.027-0.477-0.037-0.981,0.161-1.453  c0.229-0.541,0.547-0.848,0.946-0.912c0.323-0.055,0.643,0.068,0.876,0.333c0.272,0.309,0.243,0.78-0.065,1.053  c-0.119,0.105-0.262,0.165-0.408,0.182C64.48,20.968,64.497,21.272,64.509,21.482z M70.557,32.585c-0.028,0-0.059-0.001-0.089-0.005  c-0.656-0.079-1.226-0.436-1.742-1.089c-0.418-0.531-0.889-0.859-1.57-1.098c-0.549-0.191-1.088-0.409-1.628-0.627  c-0.42-0.17-0.841-0.34-1.267-0.497c-0.434-0.159-0.854-0.327-1.269-0.494c-0.433-0.174-0.861-0.346-1.297-0.503  c-0.42-0.151-0.809-0.364-1.151-0.552l-0.114-0.062c-0.38-0.205-0.66-0.473-0.931-0.732l-0.188-0.177  c-0.245-0.226-0.396-0.475-0.53-0.694c-0.053-0.086-0.105-0.175-0.167-0.26c-0.268-0.372-0.674-0.727-0.998-0.995l-0.208-0.168  c-0.215-0.172-0.429-0.346-0.628-0.533c-0.115-0.108-0.234-0.204-0.354-0.301c-0.188-0.152-0.4-0.324-0.604-0.539  c-0.4-0.43-0.577-0.888-0.723-1.319l-0.033-0.091c-0.069-0.184-0.127-0.358-0.127-0.665c0-0.125-0.031-0.25-0.069-0.408  c-0.036-0.149-0.071-0.302-0.094-0.467c-0.038-0.282-0.023-0.552-0.012-0.791c0.012-0.211,0.022-0.41-0.008-0.562  c-0.015-0.071-0.059-0.143-0.144-0.271c-0.065-0.098-0.131-0.198-0.189-0.31c-0.23-0.431-0.229-0.876-0.228-1.201  c0-0.41,0.334-0.743,0.745-0.743c0.001,0,0.001,0,0.002,0c0.411,0.001,0.744,0.336,0.743,0.748  c-0.001,0.176-0.001,0.395,0.053,0.495c0.037,0.069,0.078,0.131,0.117,0.19c0.123,0.186,0.291,0.44,0.362,0.8  c0.066,0.335,0.05,0.652,0.035,0.933c-0.01,0.189-0.02,0.368,0,0.514c0.015,0.113,0.041,0.215,0.065,0.314  c0.052,0.213,0.109,0.455,0.11,0.755c0,0.06,0,0.06,0.03,0.14l0.052,0.142c0.126,0.373,0.218,0.584,0.399,0.779  c0.142,0.151,0.298,0.274,0.453,0.399c0.147,0.12,0.295,0.24,0.437,0.374c0.171,0.16,0.356,0.309,0.54,0.457l0.222,0.18  c0.42,0.347,0.896,0.767,1.26,1.272c0.084,0.117,0.158,0.238,0.231,0.357c0.094,0.154,0.175,0.288,0.267,0.372l0.208,0.196  c0.218,0.209,0.407,0.389,0.61,0.5l0.118,0.063c0.311,0.17,0.632,0.346,0.943,0.458c0.453,0.164,0.897,0.342,1.346,0.521  c0.403,0.162,0.809,0.325,1.229,0.479c0.439,0.162,0.874,0.338,1.309,0.513c0.519,0.21,1.035,0.419,1.561,0.603  c0.945,0.329,1.66,0.832,2.251,1.582c0.345,0.438,0.592,0.513,0.749,0.531c0.408,0.05,0.7,0.42,0.651,0.829  C71.251,32.307,70.929,32.585,70.557,32.585z M75.66,27.089c-0.073,0.107-0.131,0.191-0.158,0.274  c-0.104,0.312-0.396,0.507-0.706,0.507c-0.079,0-0.159-0.013-0.238-0.039c-0.003-0.002-0.006-0.004-0.009-0.005  c-0.037,0.023-0.074,0.045-0.112,0.068c-0.251,0.159-0.535,0.339-0.87,0.427c-0.257,0.067-0.488,0.06-0.676,0.054  c-0.057-0.002-0.112-0.005-0.17-0.002c-0.146,0.003-0.281,0.032-0.417,0.059c-0.207,0.039-0.415,0.075-0.637,0.083  c-0.202,0.007-0.398,0.011-0.588,0.011c-0.813,0-1.517-0.063-2.139-0.19c-0.396-0.083-0.698-0.257-0.965-0.411l-0.148-0.071  c-0.785-0.269-0.902-0.756-0.862-1.118c0.046-0.41,0.422-0.697,0.823-0.659c0.251,0.028,0.46,0.179,0.572,0.385  c0.098,0.035,0.188,0.073,0.259,0.113l0.104,0.06c0.193,0.112,0.359,0.209,0.519,0.242c0.649,0.133,1.43,0.18,2.376,0.15  c0.143-0.005,0.275-0.033,0.408-0.059c0.192-0.037,0.41-0.078,0.659-0.084c0.082-0.002,0.167,0.001,0.252,0.003  c0.101,0.003,0.205,0.006,0.252-0.007c0.112-0.029,0.285-0.139,0.452-0.244c0.221-0.14,0.472-0.298,0.76-0.392  c0.012-0.003,0.023,0,0.035-0.004c0.128-0.189,0.129-0.202,0.116-0.269c-0.014-0.08-0.069-0.231-0.186-0.425  c-0.02-0.028-0.046-0.056-0.071-0.085c-0.15-0.171-0.401-0.458-0.405-0.899c-0.004-0.412,0.328-0.748,0.739-0.752  c0.343-0.007,0.68,0.264,0.74,0.617c0.015,0.018,0.031,0.034,0.047,0.053c0.085,0.098,0.167,0.196,0.229,0.301  c0.199,0.33,0.325,0.644,0.376,0.931C76.14,26.384,75.852,26.809,75.66,27.089z"/>
</svg>