<svg xmlns="http://www.w3.org/2000/svg" xmlns:xlink="http://www.w3.org/1999/xlink" version="1.1" id="Layer_1" x="0px" y="0px" width="100px" height="100px" viewBox="0 0 100 100" enable-background="new 0 0 100 100" xml:space="preserve">
<g>
	<path d="M30.306,24.222c0.365,1.968,2.209,3.279,4.124,2.927c1.73-0.317,2.92-1.887,2.865-3.64l6.454,0.011L33.405,13.152   l-9.68,10.334l6.521,0.012C30.242,23.736,30.261,23.979,30.306,24.222z"/>
	<path d="M100.054,56.592l-3.924,0.012l-1.554,7.646l-8.105,0.772l-0.296-0.414c-0.815-1.599-1.854-3.062-3.085-4.348l-3.919-8.058   c0,0-0.739-2.271-2.805-2.613c-2.068-0.338-3.982,0.044-3.982,0.044l-22.385,4.14L43.7,37.316L31.72,27.407l-3.605-1l-8.644,21.205   l2.414,3.747l-2.521,6.985c-1.316-0.372-2.703-0.574-4.137-0.574c-8.38,0-15.173,6.784-15.173,15.156   c0,8.369,6.792,15.155,15.173,15.155c6.067,0,11.301-3.561,13.727-8.702l0.965-2.663c0.188-0.729,0.323-1.481,0.402-2.249   l0.187-0.657l1.195,0.003c0.501,2.184,2.456,3.813,4.793,3.813c2.276,0,4.186-1.545,4.749-3.645h10.167   c0.55,9.656,8.559,17.316,18.363,17.316c10.156,0,18.393-8.226,18.393-18.372c0-1.968-0.315-3.86-0.884-5.637l1.098-0.097   l-0.004-0.01l9.812-0.884L100.054,56.592z M15.095,83.559C9.216,83.559,4.45,78.8,4.45,72.926c0-5.875,4.766-10.634,10.645-10.634   c0.966,0,1.901,0.132,2.792,0.373l-2.514,6.958c-0.117-0.014-0.233-0.036-0.354-0.036c-1.739,0-3.15,1.409-3.15,3.146   c0,1.736,1.411,3.146,3.15,3.146c1.43,0,2.623-0.959,3.008-2.263l5.94,0.018l-0.677,3.654l1.324,0.39   C22.867,81.164,19.262,83.559,15.095,83.559z M24.423,71.683l-6.453-0.018c-0.161-0.443-0.409-0.843-0.739-1.168l2.587-7.163   c2.313,1.054,4.168,2.939,5.175,5.276L24.423,71.683z M27.886,64.574c-1.595-2.408-3.859-4.333-6.53-5.513l1.972-5.461l5.122,7.944   L27.886,64.574z M77.654,61.533c1.818,1.258,3.322,2.938,4.365,4.897l-7.813,0.685L77.654,61.533z M69.775,59.075   c2.267,0,4.404,0.549,6.295,1.513l-4.157,6.728l-6.48,0.565l-5.699-4.497C62.259,60.731,65.822,59.075,69.775,59.075z M58.552,64.8   l4.203,3.315l-6.169,0.54C57.041,67.26,57.707,65.961,58.552,64.8z M33.667,62.787l0.819-2.853l-3.507-6.649l5.375,2.925   l-0.863,11.688L33.667,62.787z M51.981,68.25l-9.084,0.795l-2.638-1.223l1.38-16.486l-11.721-6.698l3.398-9.899l9.782,5.856   l9.159,26.715C52.157,67.62,52.065,67.933,51.981,68.25z M69.775,86.773c-7.345,0-13.354-5.709-13.83-12.928h10.839   c0.451,1.187,1.593,2.033,2.938,2.033c1.737,0,3.148-1.409,3.148-3.146c0-0.816-0.319-1.555-0.83-2.113l0.958-1.551l9.816-0.857   c0.531,1.472,0.824,3.059,0.824,4.714C83.64,80.572,77.432,86.773,69.775,86.773z"/>
</g>
</svg>