<svg xmlns="http://www.w3.org/2000/svg" xmlns:xlink="http://www.w3.org/1999/xlink" version="1.1" id="Layer_1" x="0px" y="0px" width="100px" height="39.3700787402px" viewBox="0 0 127.5 50.5" enable-background="new 0 0 127.5 50.5" xml:space="preserve">
<path d="M107.471,11.849H20.029c-3.468,0-6.279,2.812-6.279,6.279v18.996c0,3.469,2.812,6.279,6.279,6.279h87.441  c3.468,0,6.279-2.811,6.279-6.279V18.128C113.75,14.661,110.938,11.849,107.471,11.849z M108.753,33.434  c0,2.428-1.969,4.396-4.396,4.396H23.143c-2.428,0-4.396-1.969-4.396-4.396V21.816c0-2.428,1.968-4.395,4.396-4.395h81.214  c2.428,0,4.396,1.967,4.396,4.395V33.434z"/>
<path d="M86.981,21.664H40.519c-3.434,0-6.219,2.669-6.219,5.962s2.785,5.962,6.219,5.962h46.463c3.435,0,6.219-2.669,6.219-5.962  S90.416,21.664,86.981,21.664z M42.086,31.388c-2.077,0-3.762-1.685-3.762-3.762s1.685-3.762,3.762-3.762  c2.078,0,3.762,1.685,3.762,3.762S44.164,31.388,42.086,31.388z M52.918,31.388c-2.076,0-3.762-1.685-3.762-3.762  s1.686-3.762,3.762-3.762c2.078,0,3.762,1.685,3.762,3.762S54.996,31.388,52.918,31.388z M63.751,31.388  c-2.077,0-3.762-1.685-3.762-3.762s1.685-3.762,3.762-3.762s3.762,1.685,3.762,3.762S65.828,31.388,63.751,31.388z M74.583,31.388  c-2.077,0-3.762-1.685-3.762-3.762s1.685-3.762,3.762-3.762s3.762,1.685,3.762,3.762S76.66,31.388,74.583,31.388z M85.415,31.388  c-2.076,0-3.762-1.685-3.762-3.762s1.686-3.762,3.762-3.762c2.078,0,3.762,1.685,3.762,3.762S87.493,31.388,85.415,31.388z"/>
</svg>