<svg xmlns="http://www.w3.org/2000/svg" xmlns:xlink="http://www.w3.org/1999/xlink" version="1.1" id="Layer_1" x="0px" y="0px" width="100px" height="100px" viewBox="0 0 100 100" enable-background="new 0 0 100 100" xml:space="preserve">
<path d="M65.694,16.141L50.607,1.057L36.541,16.141h9.594c0.074,2.644,2.229,4.767,4.892,4.767c2.662,0,4.816-2.124,4.891-4.767  H65.694z"/>
<path d="M61.111,100c-0.038,0.042-0.122-16.122-0.122-21.079c0-4.379,0.171-17.778-0.879-21.755  c-0.546-2.055-1.267-4.062-1.958-6.037c-0.682-1.945-1.636-3.649-2.396-5.53c-1.348-3.328-0.829-6.859,0.637-9.962  c0.297-0.626,0.55-1.277,0.779-1.94l1.186,15.885h2.032c0,0,0-17.753,0-22.298c0-4.475-3.93-4.896-4.052-4.908  c-0.001,0-0.001-0.001-0.001-0.001h-5.221h-5.225c0,0,0,0.001,0,0.001c-0.138,0.014-4.051,0.443-4.051,4.908  c0,4.544,0,22.298,0,22.298h2.032l1.187-15.89c0.229,0.665,0.483,1.317,0.78,1.945c1.465,3.103,1.986,6.634,0.64,9.962  c-0.762,1.88-1.718,3.584-2.399,5.53c-0.688,1.975-1.412,3.982-1.957,6.037c-1.05,3.977-0.88,17.562-0.88,21.755  c0,4.957-0.084,21.121-0.119,21.079H61.111z"/>
</svg>