<svg xmlns="http://www.w3.org/2000/svg" xmlns:xlink="http://www.w3.org/1999/xlink" version="1.1" id="Layer_1" x="0px" y="0px" width="30.4761904762px" height="100px" viewBox="0 0 32.334 105.665" enable-background="new 0 0 32.334 105.665" xml:space="preserve">
<rect x="3.761" y="25.23" fill="#000000" width="24.198" height="45.28"/>
<polygon fill="#000000" points="21.185,72.312 10.537,72.312 10.537,96.752 12.593,96.752 12.593,102.379 19.127,102.379   19.127,96.752 21.185,96.752 "/>
<path fill="none" d="M8.671,11.393c0,0.199-0.163,0.362-0.364,0.362c-0.2,0-0.362-0.163-0.362-0.362V6.836  c0-0.202,0.162-0.363,0.362-0.363c0.201,0,0.364,0.161,0.364,0.363V11.393z"/>
<path fill="none" d="M10.828,11.393c0,0.199-0.161,0.362-0.361,0.362c-0.201,0-0.364-0.163-0.364-0.362V6.836  c0-0.202,0.163-0.363,0.364-0.363c0.2,0,0.361,0.161,0.361,0.363V11.393z"/>
<path fill="none" d="M12.987,11.393c0,0.199-0.163,0.362-0.363,0.362c-0.201,0-0.363-0.163-0.363-0.362V6.836  c0-0.202,0.162-0.363,0.363-0.363c0.2,0,0.363,0.161,0.363,0.363V11.393z"/>
<path fill="none" d="M15.144,11.393c0,0.199-0.163,0.362-0.363,0.362c-0.2,0-0.362-0.163-0.362-0.362V6.836  c0-0.202,0.162-0.363,0.362-0.363c0.2,0,0.363,0.161,0.363,0.363V11.393z"/>
<path fill="none" d="M17.302,11.393c0,0.199-0.162,0.362-0.363,0.362s-0.362-0.163-0.362-0.362V6.836  c0-0.202,0.161-0.363,0.362-0.363s0.363,0.161,0.363,0.363V11.393z"/>
<path fill="none" d="M19.459,11.393c0,0.199-0.161,0.362-0.362,0.362s-0.363-0.163-0.363-0.362V6.836  c0-0.202,0.162-0.363,0.363-0.363s0.362,0.161,0.362,0.363V11.393z"/>
<path fill="none" d="M21.618,11.393c0,0.199-0.163,0.362-0.363,0.362c-0.199,0-0.363-0.163-0.363-0.362V6.836  c0-0.202,0.162-0.363,0.363-0.363s0.363,0.161,0.363,0.363V11.393z"/>
<path fill="none" d="M23.774,11.393c0,0.199-0.162,0.362-0.361,0.362c-0.202,0-0.364-0.163-0.364-0.362V6.836  c0-0.202,0.163-0.363,0.364-0.363c0.199,0,0.361,0.161,0.361,0.363V11.393z"/>
<path fill="#000000" d="M16.938,6.473c-0.201,0-0.362,0.161-0.362,0.363v4.557c0,0.199,0.161,0.362,0.362,0.362  s0.363-0.163,0.363-0.362V6.836C17.302,6.634,17.14,6.473,16.938,6.473z"/>
<path fill="#000000" d="M12.624,6.473c-0.201,0-0.363,0.161-0.363,0.363v4.557c0,0.199,0.162,0.362,0.363,0.362  c0.2,0,0.363-0.163,0.363-0.362V6.836C12.987,6.634,12.824,6.473,12.624,6.473z"/>
<path fill="#000000" d="M14.781,6.473c-0.201,0-0.362,0.161-0.362,0.363v4.557c0,0.199,0.162,0.362,0.362,0.362  c0.2,0,0.363-0.163,0.363-0.362V6.836C15.144,6.634,14.981,6.473,14.781,6.473z"/>
<path fill="#000000" d="M8.308,6.473c-0.2,0-0.362,0.161-0.362,0.363v4.557c0,0.199,0.162,0.362,0.362,0.362  c0.201,0,0.364-0.163,0.364-0.362V6.836C8.671,6.634,8.509,6.473,8.308,6.473z"/>
<path fill="#000000" d="M10.466,6.473c-0.201,0-0.364,0.161-0.364,0.363v4.557c0,0.199,0.163,0.362,0.364,0.362  c0.2,0,0.361-0.163,0.361-0.362V6.836C10.828,6.634,10.667,6.473,10.466,6.473z"/>
<path fill="#000000" d="M23.413,6.473c-0.202,0-0.364,0.161-0.364,0.363v4.557c0,0.199,0.163,0.362,0.364,0.362  c0.199,0,0.361-0.163,0.361-0.362V6.836C23.774,6.634,23.612,6.473,23.413,6.473z"/>
<path fill="none" d="M22.636,4.475H9.084c-1.336,0-2.42,1.084-2.42,2.421v4.438c0,1.335,1.083,2.419,2.42,2.419h13.551  c1.337,0,2.419-1.084,2.419-2.419V6.896C25.056,5.559,23.972,4.475,22.636,4.475z"/>
<path fill="#000000" d="M24.511,2.379H7.209c-1.336,0-2.419,1.154-2.419,2.578v2.708v0.128v15.599h22.141V7.793V7.665V4.957  C26.931,3.533,25.849,2.379,24.511,2.379z M25.056,11.333c0,1.335-1.084,2.419-2.42,2.419H9.084c-1.336,0-2.42-1.084-2.42-2.419  V6.896c0-1.337,1.083-2.421,2.42-2.421h13.551c1.337,0,2.419,1.084,2.419,2.421v4.437H25.056z"/>
<path fill="#000000" d="M21.254,6.473c-0.201,0-0.362,0.161-0.362,0.363v4.557c0,0.199,0.161,0.362,0.362,0.362  s0.363-0.163,0.363-0.362V6.836C21.618,6.634,21.455,6.473,21.254,6.473z"/>
<path fill="#000000" d="M19.097,6.473c-0.201,0-0.363,0.161-0.363,0.363v4.557c0,0.199,0.162,0.362,0.363,0.362  s0.362-0.163,0.362-0.362V6.836C19.459,6.634,19.298,6.473,19.097,6.473z"/>
<path fill="#000000" d="M17.97,39.551l1.939-4.218l-4.69,1.332l-2.438,7.563c0.501-0.164,1.009-0.333,1.52-0.502l-1.794,4.535  l1.201-0.362l-1.9,7.444l7.521-13.011c-0.533,0.137-1.068,0.268-1.604,0.396l1.969-3.93L17.97,39.551z"/>
</svg>