<svg xmlns="http://www.w3.org/2000/svg" xmlns:xlink="http://www.w3.org/1999/xlink" version="1.1" id="Layer_1" x="0px" y="0px" width="100px" height="100px" viewBox="0 0 100 100" enable-background="new 0 0 100 100" xml:space="preserve">
<path d="M47.165,75h-5.33C40.27,75,39,76.27,39,77.834v13.332C39,92.73,40.27,94,41.835,94h5.33C48.73,94,50,92.73,50,91.166V77.834  C50,76.27,48.73,75,47.165,75z"/>
<path d="M91.597,0H8.403C3.762,0,0,3.801,0,8.488v73.023C3.634,85.145,15.081,96.678,18.403,100h73.193  c4.641,0,8.403-3.801,8.403-8.488V8.488C100,3.801,96.237,0,91.597,0z M85,3v11H15V3H85z M85,15v12H15V15H85z M85,97H33V76.67  c0-3.132,2.538-5.67,5.669-5.67h40.662C82.462,71,85,73.538,85,76.67V97z M81.995,42h-63.99C16.346,42,15,40.655,15,38.996V28h70  v10.996C85,40.655,83.654,42,81.995,42z"/>
</svg>