<svg xmlns="http://www.w3.org/2000/svg" xmlns:xlink="http://www.w3.org/1999/xlink" version="1.1" id="Layer_1" x="0px" y="0px" width="60px" height="100px" viewBox="0 0 60 100" enable-background="new 0 0 60 100" xml:space="preserve">
<path d="M57.514,0H2.486C1.113,0,0,1.113,0,2.486v95.027C0,98.887,1.113,100,2.486,100h55.027C58.887,100,60,98.887,60,97.514V2.486  C60,1.113,58.887,0,57.514,0z M30.234,95.21c-2.961,0-5.359-2.399-5.359-5.359s2.398-5.359,5.359-5.359  c2.959,0,5.359,2.399,5.359,5.359S33.193,95.21,30.234,95.21z M54,78.346C54,79.812,52.812,81,51.346,81H8.654  C7.188,81,6,79.812,6,78.346V10.655C6,9.188,7.188,8,8.654,8h42.691C52.812,8,54,9.188,54,10.655V78.346z"/>
</svg>