<svg xmlns="http://www.w3.org/2000/svg" xmlns:xlink="http://www.w3.org/1999/xlink" version="1.1" id="Layer_1" x="0px" y="0px" width="100px" height="100px" viewBox="0 0 100 100" enable-background="new 0 0 100 100" xml:space="preserve">
<g>
	<path d="M43.651,29.667c0,0-4.492,2.273-7.018,4.56c-4.64,4.195-7.222,7.568-8.656,10.076c0.459,0.365,0.776,0.627,0.816,0.687   c0.036,0.06-0.357-0.104-0.982-0.386c-0.343,0.622-0.613,1.19-0.826,1.7c0.593,0.14,1.008,0.249,1.07,0.288   c0.062,0.04-0.433,0.06-1.211,0.064c-1.232,2.695-1.289,3.804-1.289,3.804s1.485-1.237,5.156-2.767   c-0.264-1.312-0.49-2.494-0.471-2.618c0.014-0.11,0.471,0.883,1.05,2.192c2.293-1.766,5.289-4.798,8.824-10.015   C42.024,34.432,43.651,29.667,43.651,29.667L43.651,29.667z M73.795,40.01l0.344-1.715l-9.902-1.971l-0.344,1.713L73.795,40.01   L73.795,40.01z M73.303,42.907l0.1-1.746l-9.285-0.531l-0.1,1.749L73.303,42.907L73.303,42.907z M28.156,38.395l-0.5,0.263   c-1.325-1.28-2.373-2.283-2.506-2.388c-0.124-0.097,0.374,1.224,1.111,3.075c-2.475,1.167-4.541,1.869-6.212,2.283   c-0.382-1.329-0.688-2.323-0.773-2.447c-0.081-0.117-0.055,0.984,0.023,2.619c-3.237,0.676-6.229,0.981-6.229,0.981   s1.736-3.018,4.875-6.662c1.314,0.759,2.335,1.327,2.491,1.356c0.143,0.03-0.692-0.792-1.946-1.97   c0.622-0.683,1.343-1.411,2.176-2.178c1.287,1.294,2.35,2.336,2.512,2.415c0.138,0.067-0.503-1.353-1.458-3.354   c2.554-2.198,6.007-4.677,10.678-7.336c0.269-2.997,0.916-5.945,2.148-8.827c0.518-1.209,1.106-2.272,1.761-3.207   c3.412-5.676,9.467-10.081,19.224-11.393c5.35-0.719,10.57-0.513,15.299,0.467L70.6,3.857l0.625-1.68   c0.611,0.134,1.215,0.279,1.807,0.438l-1.369,3.762l2.254-3.516c0.988,0.29,1.947,0.615,2.879,0.976   c-1.443,2.502-2.928,5.073-4.254,7.356c3.174,1.988,5.865,5.069,7.217,9.754c0.123,0.757,0.252,1.519,0.338,2.275   c0.1,0.873,1.881,2.949,1.504,3.847c-0.98,1.815,0.984,2.957,2.666,5.337c1.092,1.549,1.846,5.973,2.549,7.255   c0.982,1.792-4.672,1.849-4.176,3.208c0.229,0.623,0.988,2.188,1.234,2.794c0.295,0.734-1.461,1.2-1.473,1.709   c0.002,0.198,1.084,0.303,0.914,1.581c-0.105,0.783-1.689,0.169-1.781,3.159c-0.049,1.622,1.895,3.885-1.352,5.94   c-3.49,2.207-15.615-4.299-16.631,7.999c-0.141,1.726-0.096,3.159,0.08,4.378c0,0,0.443,2.58,1.863,4.962   c6.068,5.721,10.922,13.627,13.936,22.876H19.569c-0.026-3.531-1.417-14.38,11.307-27.795l0.357-0.373l3.019-3.199   c-3.864-0.512-0.973-3.183-0.624-4.91c0.205-1.009,0.36-2.018,0.473-3.029l4.856,0.534c-0.015,0.704-0.045,1.387-0.091,2.049   c3.13-4.574,4.948-10.101,1.13-15.85c-0.191,1.209-0.382,2.462-0.547,3.766c-1.938,0.007-3.759,0.018-5.27,0.027   c-0.084-1.133-0.192-2.267-0.314-3.399c-2.898,3.959-5.502,6.754-7.721,8.719c-1.12-2.118-2.001-3.727-2.014-3.545   c-0.016,0.214,0.5,2.167,1.094,4.33c-5.965,2.989-8.302,5.233-8.302,5.233s-0.035-1.856,1.712-6.514   c1.303-0.104,2.13-0.193,2.02-0.249c-0.109-0.059-0.816-0.195-1.826-0.358c0.296-0.88,0.681-1.859,1.182-2.943   c1.082,0.399,1.758,0.626,1.688,0.535c-0.072-0.096-0.633-0.497-1.443-1.055C21.765,47.109,24.209,43.165,28.156,38.395   L28.156,38.395z M31.993,34.025c-0.451-0.302-0.754-0.493-0.833-0.516c-0.083-0.023,0.147,0.275,0.583,0.786L31.993,34.025   L31.993,34.025z M39.064,53.447c-0.028,0.435-0.052,0.874-0.07,1.321l-3.707-0.824L39.064,53.447L39.064,53.447z M34.341,52.595   c-0.017-0.556-0.04-1.117-0.071-1.679c1.405-0.009,3.126-0.016,5.013-0.022c-0.037,0.352-0.072,0.705-0.104,1.062L34.341,52.595   L34.341,52.595z M38.96,57.627l0.004,0.434l-4.729-0.523c0.058-0.771,0.095-1.546,0.112-2.317l4.609,1.026   C38.951,56.698,38.953,57.16,38.96,57.627L38.96,57.627z"/>
</g>
</svg>