<svg xmlns="http://www.w3.org/2000/svg" xmlns:xlink="http://www.w3.org/1999/xlink" version="1.1" id="Calque_1" x="0px" y="0px" width="100px" height="100px" viewBox="0 0 100 100" enable-background="new 0 0 100 100" xml:space="preserve">
<g>
	<path d="M84.939,0.595H15.061c-1.739,0-3.153,1.414-3.153,3.153v92.503c0,1.739,1.414,3.153,3.153,3.153h69.879   c1.739,0,3.153-1.414,3.153-3.153V3.749C88.093,2.009,86.679,0.595,84.939,0.595z M87.922,96.252c0,1.645-1.337,2.983-2.982,2.983   H15.061c-1.645,0-2.983-1.339-2.983-2.983V3.749c0-1.646,1.338-2.983,2.983-2.983h69.879c1.646,0,2.982,1.338,2.982,2.983V96.252z"/>
	<rect x="19.667" y="9.627" width="60.667" height="80.876"/>
	<circle cx="50" cy="5.286" r="0.599"/>
	<path d="M50.33,94.094h-0.66c-0.282,0-0.512,0.229-0.512,0.511v0.649c0,0.283,0.229,0.512,0.512,0.512h0.66   c0.282,0,0.511-0.229,0.511-0.512v-0.649C50.841,94.322,50.612,94.094,50.33,94.094z M50.68,95.192   c0,0.229-0.185,0.413-0.412,0.413h-0.535c-0.228,0-0.413-0.185-0.413-0.413v-0.525c0-0.229,0.186-0.414,0.413-0.414h0.535   c0.228,0,0.412,0.186,0.412,0.414V95.192z"/>
</g>
</svg>