<svg xmlns="http://www.w3.org/2000/svg" xmlns:xlink="http://www.w3.org/1999/xlink" version="1.1" id="Layer_1" x="0px" y="0px" width="100px" height="100px" viewBox="0 0 100 100" enable-background="new 0 0 100 100" xml:space="preserve">
<path d="M80.909,43.213c-1.412,0-2.786,0.168-4.103,0.481c0.045-0.564,0.068-1.135,0.068-1.711c0-11.809-9.573-21.383-21.383-21.383  c-8.698,0-16.183,5.194-19.523,12.649c-3.499-1.975-7.538-3.104-11.842-3.104C10.802,30.146,0,40.75,0,54.074  C0,67.4,10.802,79,24.127,79c0.681,0,2.021,0,2.021,0s43.337,0,55.717,0S100,69.752,100,60.607  C100,50.89,90.626,43.213,80.909,43.213z M42.981,70.531L47.233,54h-9.979l19.772-21.648L52.102,48h10.645L42.981,70.531z"/>
</svg>