<svg xmlns="http://www.w3.org/2000/svg" xmlns:xlink="http://www.w3.org/1999/xlink" version="1.1" id="Layer_1" x="0px" y="0px" width="100px" height="100px" viewBox="0 0 100 100" enable-background="new 0 0 100 100" xml:space="preserve">
<g id="Layer_2">
</g>
<path d="M65.422,2.099V1.869c0-0.269-0.219-0.488-0.487-0.488h-6.829c-0.27,0-0.489,0.219-0.489,0.488v0.188H35.503  c-4.068,0-7.378,3.309-7.378,7.376v5.483h-0.313c-0.269,0-0.487,0.219-0.487,0.488v3.092c0,0.269,0.218,0.487,0.487,0.487h0.313  v5.175h-0.313c-0.269,0-0.487,0.218-0.487,0.488v1.845c0,0.27,0.218,0.488,0.487,0.488h0.313v4.655h-0.313  c-0.269,0-0.487,0.219-0.487,0.489v1.845c0,0.269,0.218,0.487,0.487,0.487h0.313v54.307c0,4.066,3.31,7.377,7.378,7.377h29.138  c4.066,0,8.033-3.311,8.033-7.377V9.434C72.675,5.627,69.2,2.486,65.422,2.099z M50.398,5.802c0.43,0,0.779,0.349,0.779,0.779  s-0.35,0.779-0.779,0.779c-0.43,0-0.779-0.349-0.779-0.779S49.968,5.802,50.398,5.802z M47.013,9.333h6.771  c0.509,0,0.926,0.36,0.926,0.805c0,0.444-0.417,0.804-0.926,0.804h-6.771c-0.51,0-0.925-0.36-0.925-0.804  C46.087,9.694,46.502,9.333,47.013,9.333z M50.431,93.35c-2.202,0-3.986-1.787-3.986-3.988s1.784-3.986,3.986-3.986  c2.201,0,3.987,1.785,3.987,3.986S52.632,93.35,50.431,93.35z M69.405,82.752h-38.01V15.504h38.01V82.752z"/>
</svg>