<svg xmlns="http://www.w3.org/2000/svg" xmlns:xlink="http://www.w3.org/1999/xlink" xmlns:a="http://ns.adobe.com/AdobeSVGViewerExtensions/3.0/" version="1.1" x="0px" y="0px" width="100px" height="100px" viewBox="-32.827 -4.837 100 100" enable-background="new -32.827 -4.837 100 100" xml:space="preserve">
<defs>
</defs>
<path d="M25.336,30.603H9.008C4.033,30.603,0,34.591,0,39.512V82.2c0,4.919,4.033,8.908,9.008,8.908h16.328  c4.976,0,9.009-3.989,9.009-8.908V39.512C34.345,34.591,30.312,30.603,25.336,30.603z M17.282,86.325h-1.101  c-1.398,0-2.531-1.151-2.531-2.57c0-1.42,1.133-2.571,2.531-2.571h1.101c1.398,0,2.532,1.151,2.532,2.571  C19.814,85.174,18.681,86.325,17.282,86.325z M28.621,79.629H4.844V37.06h23.777V79.629z"/>
<path d="M17.171,2.706c6.963,0,12.81,1.612,14.553,3.801c0.345-0.432,0.543-0.884,0.543-1.353C32.267,2.308,25.508,0,17.171,0  S2.075,2.308,2.075,5.154c0,0.469,0.2,0.921,0.543,1.353C4.361,4.318,10.209,2.706,17.171,2.706z"/>
<path d="M26.04,19.521c0.21-0.431,0.331-0.884,0.331-1.353c0-2.846-4.119-5.154-9.201-5.154c-5.081,0-9.2,2.309-9.2,5.154  c0,0.469,0.122,0.922,0.331,1.353c1.062-2.189,4.626-3.801,8.869-3.801C21.414,15.72,24.978,17.332,26.04,19.521z"/>
<path d="M10.091,23.604c0,0.371,0.094,0.729,0.255,1.071c0.818-1.734,3.561-3.011,6.826-3.011c3.267,0,6.009,1.277,6.826,3.011  c0.162-0.342,0.255-0.7,0.255-1.071c0-2.254-3.171-4.083-7.081-4.083S10.091,21.35,10.091,23.604z"/>
<path d="M29.206,13.014c0.285-0.431,0.449-0.884,0.449-1.353c0-2.846-5.59-5.154-12.485-5.154c-6.895,0-12.484,2.308-12.484,5.154  c0,0.469,0.165,0.921,0.449,1.353c1.441-2.189,6.277-3.801,12.035-3.801C22.929,9.213,27.765,10.825,29.206,13.014z"/>
<path d="M26.371,41.099H7.97v34.75h18.401V41.099z M25.148,73.599H9.196v-30.25h15.952V73.599z"/>
<polygon points="24.049,51.301 20.586,47.78 17.124,44.261 13.709,47.828 10.296,51.396 17.173,51.349 "/>
<path d="M12.563,61.296h-1.424h-0.815v1.319v7.926h0.815v-3.632h2.239v-0.66h0.001v-4.953H12.97H12.563z M12.563,65.589h-1.424  v-2.974h1.424V65.589z"/>
<polygon points="16.434,64.397 14.353,61.206 13.946,61.825 16.073,65.088 16.073,69.883 14.787,69.883 14.787,68.433   14.154,68.433 14.154,69.883 14.154,70.529 14.154,70.632 16.802,70.632 16.802,70.256 16.802,69.883 16.802,65.24 18.957,61.905   18.495,61.206 "/>
<path d="M21.248,57.477l1.56,1.068l0.057-0.11l0.868-0.03l-0.04-1.586l-0.684,0.021l-1.632-1.116l-0.008,0.017l-0.006-0.017  l-2.059,0.922h-0.236v9.527v1.588h0.996h1.931h0.533h0.532v-5.955v-0.794h-2.996v-3.006L21.248,57.477z M21.995,62.599v3.574h-1.931  v-3.574H21.995z"/>
</svg>