<svg xmlns="http://www.w3.org/2000/svg" xmlns:xlink="http://www.w3.org/1999/xlink" xmlns:a="http://ns.adobe.com/AdobeSVGViewerExtensions/3.0/" version="1.1" x="0px" y="0px" width="100px" height="100px" viewBox="-32.827 -4.837 100 100" enable-background="new -32.827 -4.837 100 100" xml:space="preserve">
<defs>
</defs>
<path d="M25.336,30.603H9.008C4.033,30.603,0,34.591,0,39.512V82.2c0,4.919,4.033,8.908,9.008,8.908h16.328  c4.976,0,9.009-3.989,9.009-8.908V39.512C34.345,34.591,30.312,30.603,25.336,30.603z M17.282,86.325h-1.101  c-1.398,0-2.531-1.151-2.531-2.57c0-1.42,1.133-2.571,2.531-2.571h1.101c1.398,0,2.532,1.151,2.532,2.571  C19.814,85.174,18.681,86.325,17.282,86.325z M28.621,79.629H4.844V37.06h23.777V79.629z"/>
<path d="M17.171,2.706c6.963,0,12.81,1.612,14.553,3.801c0.345-0.432,0.543-0.884,0.543-1.353C32.267,2.308,25.508,0,17.171,0  S2.075,2.308,2.075,5.154c0,0.469,0.2,0.921,0.543,1.353C4.361,4.318,10.209,2.706,17.171,2.706z"/>
<path d="M26.04,19.521c0.21-0.431,0.331-0.884,0.331-1.353c0-2.846-4.119-5.154-9.201-5.154c-5.081,0-9.2,2.309-9.2,5.154  c0,0.469,0.122,0.922,0.331,1.353c1.062-2.189,4.626-3.801,8.869-3.801C21.414,15.72,24.978,17.332,26.04,19.521z"/>
<path d="M10.091,23.604c0,0.371,0.094,0.729,0.255,1.071c0.818-1.734,3.561-3.011,6.826-3.011c3.267,0,6.009,1.277,6.826,3.011  c0.162-0.342,0.255-0.7,0.255-1.071c0-2.254-3.171-4.083-7.081-4.083S10.091,21.35,10.091,23.604z"/>
<path d="M29.206,13.014c0.285-0.431,0.449-0.884,0.449-1.353c0-2.846-5.59-5.154-12.485-5.154c-6.895,0-12.484,2.308-12.484,5.154  c0,0.469,0.165,0.921,0.449,1.353c1.441-2.189,6.277-3.801,12.035-3.801C22.929,9.213,27.765,10.825,29.206,13.014z"/>
<path d="M26.371,41.099H7.97v34.75h18.401V41.099z M25.148,73.599H9.196v-30.25h15.952V73.599z"/>
<polygon points="24.049,51.301 20.586,47.78 17.124,44.261 13.709,47.828 10.296,51.396 17.173,51.349 "/>
<path d="M21.134,57.286h-2.228h-2.674v-2.561h-1.727v2.561h-1.237v-0.839h-1.808v0.839v1.611v3.818v1.611v3.816v1.611v0.511h1.808  v-0.511h1.237v2.562h1.727v-2.562h4.515h2.138v-1.611v-5.429h-1.751V57.286z M14.506,68.144h-1.237v-3.816h1.237V68.144z   M14.506,62.716h-1.237v-3.818h1.237V62.716z M16.232,58.897h2.674v3.818h-2.674V58.897z M20.747,68.144h-4.515v-3.816h4.515V68.144  z"/>
</svg>