<?xml version="1.0" encoding="utf-8"?>
<!-- Generator: Adobe Illustrator 14.0.0, SVG Export Plug-In . SVG Version: 6.00 Build 43363)  -->
<!DOCTYPE svg PUBLIC "-//W3C//DTD SVG 1.0//EN" "http://www.w3.org/TR/2001/REC-SVG-20010904/DTD/svg10.dtd">
<svg version="1.0" id="Layer_1" xmlns="http://www.w3.org/2000/svg" xmlns:xlink="http://www.w3.org/1999/xlink" x="0px" y="0px"
	 width="57.26px" height="100px" viewBox="0 0 57.26 100" enable-background="new 0 0 57.26 100" xml:space="preserve">
<path d="M50.344,3.879c-7.229-3.029-2.939,13.4-15.782,15.408c0.437-2.312,0.762-5.173,0.897-8.719
	C35.719,3.719,32.543,0.005,28.945,0c-3.599,0.005-6.774,3.719-6.514,10.568c0.137,3.591,0.469,6.48,0.914,8.807
	C9.711,17.825,14.265,0.8,6.917,3.879c-14.49,6.072-2.465,74.597,2.346,73.695c3.645-0.684-2.288-31.234,9.63-40.353
	C18,62.328,11.54,100,11.54,100h17.405h17.405c0,0-6.37-37.144-7.333-62.245c11.051,9.716,5.403,39.148,8.979,39.819
	C52.808,78.476,64.833,9.951,50.344,3.879z"/>
</svg>
