<svg xmlns="http://www.w3.org/2000/svg" xmlns:xlink="http://www.w3.org/1999/xlink" version="1.1" id="Layer_1" x="0px" y="0px" width="85px" height="100px" viewBox="0 0 85 100" enable-background="new 0 0 85 100" xml:space="preserve">
<path d="M0,7v93h85V7H0z M63.964,24.809c-0.257,10.914-2.023,19.417-5.271,25.292c-3.979,7.196-9.194,8.706-12.87,8.706  c-11.356,0-24.458-14.545-25.715-33.8c-1.587-0.167-2.829-1.494-2.829-3.126c0-1.745,1.414-3.159,3.158-3.159  c1.745,0,3.16,1.414,3.16,3.159c0,1.138-0.607,2.127-1.51,2.683c1.085,18.074,13.43,32.243,23.736,32.243  c4.499,0,8.344-2.653,11.119-7.674c3.078-5.565,4.76-13.708,5.019-24.217c-1.339-0.366-2.329-1.58-2.329-3.035  c0-1.745,1.414-3.159,3.158-3.159c1.746,0,3.16,1.414,3.16,3.159C65.949,23.209,65.126,24.342,63.964,24.809z"/>
<polygon points="8.178,4.048 1.73,0 82.908,0 76.322,4.013 "/>
</svg>