<svg xmlns="http://www.w3.org/2000/svg" xmlns:xlink="http://www.w3.org/1999/xlink" version="1.1" id="Layer_1" x="0px" y="0px" width="100px" height="100px" viewBox="0 0 100 100" enable-background="new 0 0 100 100" xml:space="preserve">
<path d="M56.129,39.651c-3.331,0.479-6.094,2.729-6.094,6.094c0,3.365,2.791,6.736,6.094,6.094  c12.513-2.433,16.559,9.848,31.332,9.848c13.233,0,16.312-13.542,7.848-22.036c8.096,8.187,1.907,16.743-6.371,16.743  C75.273,56.395,69.196,37.773,56.129,39.651z"/>
<path d="M43.941,39.651c3.332,0.479,6.094,2.729,6.094,6.094c0,3.365-2.79,6.736-6.094,6.094  c-12.513-2.433-16.558,9.848-31.332,9.848c-13.234,0-16.312-13.542-7.848-22.036c-8.095,8.187-1.908,16.743,6.371,16.743  C24.797,56.395,30.874,37.773,43.941,39.651z"/>
</svg>