<svg xmlns="http://www.w3.org/2000/svg" xmlns:xlink="http://www.w3.org/1999/xlink" version="1.1" id="Layer_1" x="0px" y="0px" width="100px" height="100px" viewBox="0 0 100 100" enable-background="new 0 0 100 100" xml:space="preserve">
<path d="M77.562,63.443c-1.571-8.058,1.604-16.552-2.933-27.592h-0.067l-0.044-0.302l-0.088-0.694  c-0.253-1.847-0.639-3.676-1.156-5.47c-1.037-3.585-2.618-7.03-4.767-10.116c-2.146-3.076-4.88-5.802-8.146-7.759  c-0.302-0.183-0.613-0.351-0.925-0.519c0.001-0.03,0.003-0.058,0.003-0.087c0-9.079,0.511-9.856-9.973-9.856  c-10.483,0-9.972,0.777-9.972,9.856c0,0.028,0.002,0.054,0.002,0.083c-0.312,0.168-0.624,0.336-0.927,0.519  c-3.27,1.957-6.003,4.682-8.153,7.758c-2.151,3.084-3.731,6.532-4.772,10.118c-0.521,1.798-0.904,3.618-1.16,5.48  c-0.048,0.337-0.086,0.687-0.126,0.99H24.26c-4.535,11.04-1.337,19.534-2.908,27.592c-2.766,14.193-2.186,16.554-2.186,16.554  s4.013,10.628,11.955,14.475c7.942,3.849,18.42,4.062,18.42,4.062s10.381-0.193,18.323-4.04c7.941-3.846,11.907-14.5,11.907-14.5  S80.327,77.637,77.562,63.443z M54.088,81.64L52,75.464h-4.623l-2.097,6.204c-4.614-0.942-7.747-3.683-9.979-7.416  c0.513-0.45,0.963-0.984,1.327-1.533c0.805-1.229,1.365-2.528,1.739-3.737c0.385-1.207,0.69-2.362,0.922-3.332  c0.093-0.419,0.196-0.819,0.289-1.145c0.452-0.338,1.056-1.214,1.693-1.527c1.598-0.869,5.479-1.15,7.383-4.398h1.777  c1.904,3.248,5.785,3.53,7.383,4.398c0.626,0.308,1.18,0.852,1.628,1.143c0.108,0.346,0.239,0.923,0.354,1.444  c0.231,0.971,0.536,2.168,0.922,3.376c0.374,1.21,0.934,2.532,1.738,3.76c0.387,0.582,0.87,1.155,1.42,1.626  C61.744,77.979,58.701,80.679,54.088,81.64z M73.04,53.764c-0.262,1.378-3.901,2.716-4.165,4.113  c-0.625,3.334-1.295,6.695-2.223,9.773c0.028-0.876,0.066-1.781,0.029-2.779c-0.03-1.2-0.045-2.44-0.612-4.159  c-0.16-0.441-0.347-0.895-0.655-1.39l-0.235-0.363c-0.123-0.164-0.255-0.321-0.394-0.47c-0.366-0.393-0.305-0.302-0.444-0.439  l-0.228-0.186l-0.07-0.047l-0.141-0.093l-0.281-0.173c-0.174-0.096-0.36-0.207-0.523-0.278c-0.339-0.162-0.662-0.29-0.97-0.393  c-1.229-0.448-2.352-0.71-3.433-0.778c-2.175,0.029-6.275,1.179-8.307,1.179h-1.693c-2.031,0-6.131-1.149-8.307-1.179  c-1.083,0.068-2.205,0.221-3.433,0.672c-0.309,0.104-0.631,0.281-0.97,0.443c-0.162,0.073-0.351,0.214-0.524,0.308l-0.28,0.188  l-0.141,0.099l-0.07,0.05l-0.228,0.188c-0.138,0.138-0.077,0.047-0.444,0.441c-0.139,0.148-0.27,0.307-0.394,0.474l-0.235,0.362  c-0.309,0.494-0.495,0.952-0.655,1.393c-0.568,1.718-0.583,2.968-0.612,4.167c-0.038,0.99,0,1.904,0.029,2.774  c-0.981-3.073-1.696-6.397-2.321-9.727c-0.263-1.396-4.001-2.791-4.262-4.169c-1.175-6.21-0.712-11.326-0.135-14.479  c0.103-0.42,0.234-0.854,0.378-1.33c0.126-0.44,0.26-0.899,0.36-1.404c0.048-0.24,0.079-0.455,0.105-0.662  c0.008-0.023,0.014-0.039,0.014-0.039h-0.008c0.031-0.244,0.056-0.474,0.09-0.708c0.236-1.729,0.6-3.469,1.089-5.154  c0.978-3.377,2.462-6.61,4.461-9.48c1.997-2.862,4.52-5.366,7.483-7.141c0.009-0.005,0.019-0.009,0.028-0.015  c1.326,7.124,8.272,9.34,9.751,9.34c1.481,0,8.43-2.218,9.754-9.346c0.009,0.005,0.019,0.01,0.029,0.016  c2.965,1.773,5.491,4.277,7.489,7.139c2,2.87,3.49,6.102,4.469,9.48c0.489,1.69,0.853,3.418,1.094,5.165l0.084,0.655l0.008,0.048  h-0.075c0,0,0.058,0.16,0.15,0.458c0.016,0.089,0.031,0.177,0.05,0.253c0.105,0.49,0.236,0.946,0.359,1.381  c0.034,0.114,0.064,0.224,0.097,0.335C73.624,41.279,74.349,46.843,73.04,53.764z"/>
<ellipse cx="-313.501" cy="7.958" rx="12.667" ry="7.958"/>
<g>
	<path d="M40.704,67.161c1.389-0.815,2.944-1.407,4.604-1.56c0.84-0.086,1.684,0.059,2.467,0.144l2.4,0.272l-0.211,0.012h0.001   c0.799-0.166,1.577-0.275,2.376-0.345c0.793-0.064,1.6-0.087,2.398,0.009c1.605,0.234,3.066,0.815,4.486,1.468   c-1.471-0.497-3.009-0.913-4.517-0.969c-1.512-0.001-3.042,0.357-4.479,0.802l0,0l-0.14,0.027l-0.071-0.016l-2.368-0.521   c-0.803-0.172-1.548-0.384-2.327-0.383C43.759,66.081,42.166,66.493,40.704,67.161z"/>
</g>
<path d="M47.125,69.285c0,0,1.786,1.299,2.841,1.299c1.056,0,2.842-1.299,2.842-1.299s-2.599,0-3.085,0  C49.235,69.285,47.125,69.285,47.125,69.285z"/>
<path d="M45.327,55.649c0,0,2.726,1.138,4.123,1.138c1.396,0,4.156-1.138,4.156-1.138s-3.449,0.568-4.14,0.568  C48.777,56.218,45.327,55.649,45.327,55.649z"/>
<path d="M72.685,40.83c0,0,0.161-3.728,0.024-3.866s-12.88,0.275-12.88,0.275l-10.512,0.138l-10.514-0.138  c0,0-12.742-0.413-12.879-0.275s0.024,3.866,0.024,3.866s-0.22-0.294,0.662,1.212c0.881,1.505,0.955,8.594,4.885,9.806  c3.93,1.213,8.264,1.287,10.981-0.184c0,0,3.526-2.02,4.848-6.941c0,0,0.364-2.359,1.993-2.386c1.629,0.027,1.993,2.386,1.993,2.386  c1.322,4.921,4.848,6.941,4.848,6.941c2.717,1.471,7.052,1.396,10.981,0.184c3.931-1.212,4.004-8.3,4.886-9.806  C72.905,40.536,72.685,40.83,72.685,40.83z M41.925,50.562c-1.212,0.735-3.306,1.322-8.191,0.587  c-4.885-0.733-4.958-6.684-4.481-9.732c0.478-3.049,7.603-2.645,7.603-2.645c7.97,0.185,8.3,2.681,8.3,2.681  C46.296,46.155,43.137,49.828,41.925,50.562z M64.898,51.149c-4.885,0.735-6.979,0.148-8.19-0.587  c-1.212-0.734-4.371-4.407-3.232-9.108c0,0,0.331-2.497,8.3-2.681c0,0,7.126-0.404,7.604,2.645  C69.856,44.466,69.783,50.416,64.898,51.149z M70.664,37.932c0,0-5.881,0.165-11.481,0.245c-4.817,0.068-9.429,0.062-9.866,0.049  c-0.438,0.013-5.049,0.02-9.867-0.049c-5.6-0.081-11.482-0.245-11.482-0.245c-0.293-0.555,0.147-0.555,0.147-0.555  c1.042,0.171,20.382,0.343,21.202,0.35c0.82-0.007,20.158-0.179,21.201-0.35C70.518,37.377,70.958,37.377,70.664,37.932z"/>
<path d="M-158.213,125.064c-2.419-12.407,2.469-25.489-4.516-42.489h-3.561c0,0,4.18,11.378,1.112,27.583  c-0.402,2.123-6.007,4.185-6.412,6.336c-0.964,5.134-1.995,10.31-3.423,15.052c0.044-1.352,0.102-2.744,0.045-4.281  c-0.047-1.85-0.07-3.76-0.944-6.405c-0.246-0.679-0.532-1.378-1.009-2.14l-0.362-0.559c-0.19-0.254-0.393-0.495-0.606-0.725  c-0.564-0.604-0.469-0.465-0.684-0.678l-0.351-0.285l-0.108-0.071l-0.217-0.144l-0.432-0.268c-0.268-0.146-0.557-0.316-0.807-0.427  c-0.523-0.25-1.021-0.446-1.494-0.605c-1.893-0.69-3.621-1.094-5.287-1.198c-3.348,0.045-9.662,1.814-12.791,1.814h-2.606  c-3.127,0-9.442-1.77-12.792-1.814c-1.667,0.104-3.395,0.34-5.285,1.035c-0.476,0.16-0.972,0.434-1.495,0.684  c-0.25,0.111-0.541,0.328-0.807,0.473l-0.431,0.287l-0.217,0.154l-0.108,0.076l-0.351,0.289c-0.213,0.213-0.118,0.073-0.683,0.68  c-0.214,0.229-0.416,0.474-0.606,0.729l-0.363,0.559c-0.476,0.763-0.762,1.468-1.009,2.146c-0.875,2.645-0.897,4.568-0.943,6.417  c-0.058,1.525,0,2.931,0.044,4.272c-1.511-4.733-2.611-9.854-3.574-14.979c-0.405-2.15-6.161-4.3-6.562-6.423  c-3.069-16.207,1.112-27.585,1.112-27.585h-3.56c-6.984,17-2.059,30.082-4.478,42.489c-4.259,21.858-3.366,25.493-3.366,25.493  s6.18,16.367,18.411,22.291c12.23,5.925,28.367,6.254,28.367,6.254s15.986-0.297,28.217-6.221  c12.229-5.924,18.336-22.33,18.336-22.33S-153.954,146.923-158.213,125.064z M-194.361,153.087l-3.215-9.512h-7.12l-3.229,9.555  c-7.105-1.449-11.929-5.669-15.367-11.419c0.789-0.694,1.484-1.517,2.044-2.362c1.239-1.892,2.101-3.892,2.677-5.754  c0.594-1.859,1.063-3.637,1.42-5.131c0.142-0.646,0.302-1.264,0.445-1.765c0.695-0.521,1.625-1.869,2.607-2.351  c2.46-1.34,8.437-1.773,11.368-6.773h2.739c2.932,5,8.908,5.436,11.368,6.773c0.962,0.473,1.817,1.312,2.509,1.759  c0.165,0.532,0.367,1.422,0.545,2.225c0.355,1.495,0.824,3.339,1.42,5.199c0.575,1.862,1.438,3.897,2.676,5.79  c0.595,0.896,1.339,1.779,2.188,2.501C-182.572,147.449-187.257,151.606-194.361,153.087z"/>
<g>
	<path d="M-241.337,89.436c-0.075-1.609,0.342-3.187,0.675-4.503c0.177-0.669,0.346-1.307,0.45-1.902   c0.094-0.542,0.162-1.278,0.263-1.979c0.394-2.869,0.984-5.672,1.786-8.439c1.603-5.521,4.037-10.83,7.349-15.582   c3.311-4.736,7.521-8.934,12.555-11.947c5.009-3.025,10.874-4.771,16.781-4.751c5.907-0.017,11.771,1.731,16.777,4.759   c5.031,3.015,9.238,7.211,12.546,11.95c3.307,4.752,5.742,10.057,7.339,15.578c0.799,2.763,1.39,5.581,1.78,8.426l0.137,1.066   l0.064,0.471l0.077,0.425c0.121,0.614,0.291,1.26,0.47,1.936c0.338,1.353,0.723,2.863,0.67,4.538h-3   c-0.066-1.13-0.414-2.348-0.81-3.681c-0.188-0.671-0.39-1.373-0.552-2.127c-0.043-0.179-0.08-0.4-0.118-0.604l-0.087-0.565   l-0.129-1.01c-0.371-2.689-0.931-5.351-1.685-7.953c-1.508-5.203-3.802-10.18-6.881-14.6c-3.08-4.408-6.968-8.263-11.535-10.994   c-4.549-2.744-9.783-4.291-15.064-4.276c-5.281-0.011-10.513,1.539-15.06,4.284c-4.564,2.732-8.449,6.59-11.524,10.997   c-3.078,4.419-5.364,9.397-6.869,14.597c-0.752,2.597-1.313,5.274-1.677,7.938c-0.1,0.681-0.146,1.339-0.309,2.17   c-0.154,0.777-0.361,1.485-0.555,2.162c-0.414,1.364-0.776,2.508-0.866,3.704L-241.337,89.436z"/>
</g>
<path d="M-216.835,44.156c0-13.98-0.787-15.178,15.356-15.178c16.145,0,15.357,1.197,15.357,15.178  c0,13.979-12.834,18.157-15.357,18.157C-204,62.312-216.835,58.135-216.835,44.156z"/>
<g>
	<path d="M-214.971,130.79c1.075-0.621,2.222-1.121,3.408-1.516c1.186-0.391,2.421-0.667,3.687-0.749   c1.277-0.108,2.549,0.133,3.761,0.285l3.688,0.485l-0.211,0.012c1.207-0.272,2.399-0.463,3.615-0.59   c1.21-0.12,2.439-0.175,3.658-0.051c1.23,0.139,2.399,0.453,3.551,0.821c1.147,0.373,2.271,0.807,3.367,1.302   c-1.126-0.418-2.275-0.771-3.437-1.062c-1.159-0.285-2.344-0.513-3.511-0.562c-1.181-0.038-2.359,0.097-3.528,0.295   c-1.164,0.203-2.333,0.476-3.45,0.812l-0.109,0.032l-0.103-0.021l-3.655-0.733c-1.232-0.24-2.406-0.549-3.621-0.526   c-1.216-0.002-2.439,0.184-3.632,0.49C-212.686,129.824-213.858,130.242-214.971,130.79z"/>
</g>
<path d="M-205.084,134.062c0,0,2.75,2,4.375,2s4.375-2,4.375-2s-4,0-4.75,0S-205.084,134.062-205.084,134.062z"/>
<path d="M-207.853,113.064c0,0,4.197,1.75,6.349,1.75c2.15,0,6.4-1.75,6.4-1.75s-5.312,0.875-6.375,0.875  C-202.541,113.939-207.853,113.064-207.853,113.064z"/>
<path d="M-165.724,90.241c0,0,0.248-5.74,0.038-5.953c-0.21-0.212-19.833,0.425-19.833,0.425l-16.19,0.212l-16.19-0.212  c0,0-19.624-0.637-19.833-0.425c-0.21,0.213,0.038,5.953,0.038,5.953s-0.339-0.452,1.018,1.866  c1.357,2.319,1.471,13.235,7.522,15.102c6.052,1.867,12.726,1.98,16.911-0.283c0,0,5.43-3.11,7.466-10.689  c0,0,0.56-3.634,3.069-3.675c2.508,0.041,3.068,3.675,3.068,3.675c2.036,7.579,7.466,10.689,7.466,10.689  c4.185,2.264,10.859,2.15,16.911,0.283c6.052-1.866,6.165-12.782,7.522-15.102C-165.384,89.789-165.724,90.241-165.724,90.241z"/>
<path fill="#000000" d="M-182.521,87.074c0,0,10.973-0.622,11.708,4.072s0.622,13.856-6.9,14.988  c-7.522,1.131-10.746,0.227-12.612-0.905c-1.867-1.131-6.73-6.787-4.978-14.026C-195.304,91.203-194.795,87.357-182.521,87.074z"/>
<path fill="#000000" d="M-220.897,87.074c0,0-10.973-0.622-11.708,4.072c-0.735,4.694-0.622,13.856,6.9,14.988  c7.522,1.131,10.746,0.227,12.613-0.905c1.866-1.131,6.73-6.787,4.977-14.026C-208.115,91.203-208.624,87.357-220.897,87.074z"/>
<path fill="#000000" d="M-169.06,84.925c-1.605,0.264-31.388,0.528-32.649,0.539c-1.262-0.011-31.044-0.275-32.649-0.539  c0,0-0.679,0-0.226,0.854c0,0,9.059,0.253,17.682,0.377c7.419,0.106,14.519,0.096,15.194,0.075  c0.674,0.021,7.774,0.031,15.193-0.075c8.623-0.124,17.682-0.377,17.682-0.377C-168.382,84.925-169.06,84.925-169.06,84.925z"/>
</svg>