<svg xmlns="http://www.w3.org/2000/svg" xmlns:xlink="http://www.w3.org/1999/xlink" version="1.1" id="Layer_1" x="0px" y="0px" width="100px" height="100px" viewBox="0 0 100 100" enable-background="new 0 0 100 100" xml:space="preserve">
<path d="M98.535,33.739c0,0,0.332-7.743,0.048-8.03c-0.283-0.286-26.75,0.572-26.75,0.572L50,26.568l-21.834-0.286  c0,0-26.464-0.858-26.749-0.572c-0.284,0.287,0.05,8.03,0.05,8.03s-0.458-0.61,1.375,2.517c1.83,3.125,1.983,17.848,10.146,20.365  c8.162,2.52,17.163,2.673,22.806-0.381c0,0,7.323-4.196,10.069-14.416c0,0,0.754-4.899,4.137-4.956  c3.383,0.057,4.141,4.956,4.141,4.956C56.886,52.044,64.21,56.24,64.21,56.24c5.643,3.054,14.645,2.9,22.805,0.381  c8.165-2.515,8.315-17.237,10.148-20.365C98.989,33.129,98.535,33.739,98.535,33.739z M34.648,53.952  c-2.517,1.525-6.866,2.745-17.011,1.217C7.492,53.648,7.34,41.288,8.331,34.958c0.993-6.332,15.791-5.493,15.791-5.493  c16.553,0.385,17.238,5.569,17.238,5.569C43.727,44.798,37.167,52.428,34.648,53.952z M82.361,55.169  c-10.145,1.528-14.495,0.309-17.01-1.217c-2.517-1.524-9.078-9.154-6.712-18.917c0,0,0.686-5.186,17.235-5.568  c0,0,14.802-0.839,15.794,5.493C92.657,41.29,92.507,53.648,82.361,55.169z M94.337,27.721c0,0-12.215,0.343-23.844,0.508  C60.488,28.371,50.908,28.358,50,28.331c-0.909,0.027-10.485,0.042-20.491-0.102c-11.631-0.168-23.848-0.508-23.848-0.508  c-0.608-1.153,0.306-1.153,0.306-1.153C8.132,26.923,48.298,27.28,50,27.294c1.704-0.014,41.865-0.372,44.032-0.727  C94.032,26.568,94.946,26.568,94.337,27.721z"/>
</svg>