<svg xmlns="http://www.w3.org/2000/svg" xmlns:xlink="http://www.w3.org/1999/xlink" version="1.1" id="Layer_1" x="0px" y="0px" width="100px" height="100px" viewBox="0 0 100 100" enable-background="new 0 0 100 100" xml:space="preserve">
<g>
	<path d="M44.414,44.431c1.985,0.146,9.797,0.146,11.78,0c5.099-0.374,13.678-0.684,12.932-10.506   c-0.746-9.822-1.803-19.023-2.735-23.499c-0.934-4.477-2.611-9.263-12.186-9.263h-7.801c-9.574,0-11.252,4.787-12.185,9.263   c-0.933,4.476-1.989,13.676-2.735,23.499C30.737,43.748,39.316,44.058,44.414,44.431z"/>
	<path d="M29.183,51.9c0,3.038,5.036,6.581,18.339,6.581h5.564c13.304,0,18.339-3.543,18.339-6.581c0-3.039-5.906-2.247-9.449-2.247   c-3.544,0-19.8,0-23.343,0C35.089,49.653,29.183,48.861,29.183,51.9z"/>
	<rect x="46.963" y="44.869" width="6.341" height="4.536"/>
	<rect x="48.144" y="60.843" width="3.979" height="1.211"/>
	<rect x="47.833" y="62.288" width="4.601" height="6.932"/>
	<path d="M71.476,53.855c0.052-0.499,0.013-0.636-0.245-0.16c-1.417,2.622-6.888,5.159-18.145,5.159h-5.564   c-11.257,0-16.728-2.537-18.145-5.159c-0.257-0.476-0.298-0.352-0.247,0.14c0.365,3.56,1.484,5.606,12.93,6.469   c-0.484,0.814-1.154,1.653-1.79,1.653c-0.569,0-2.764,0.256-4.051,0.412l-0.026-0.24l-5.547,0.586   c-0.755,0.081-0.566,0.508,0.047,0.442c0.613-0.065,2.38,0.169,2.38,0.169s0.506,0.499,1.474,0.396   c0.968-0.103,1.764-0.476,1.764-0.476l-0.011-0.107l4.049-0.429c1.046,0,2.062-1.434,2.603-2.345   c1.371,0.091,2.877,0.168,4.539,0.229h5.626C69.641,59.986,71.057,57.898,71.476,53.855z"/>
	<path d="M27.007,53.695c1.182,0,1.755-0.109,1.75-1.133c-0.013-2.295,0.924-2.66,0.924-2.66s0.279-14.609,0.279-16.381   c0-1.772-1.367-2.207-2.735-2.207c-1.368,0-2.798,0-2.798,3.295s0.404,12.247,0.684,15.977   C25.264,52.625,25.826,53.695,27.007,53.695z"/>
	<path d="M71.852,52.562c0,1.023,0.568,1.133,1.749,1.133c1.182,0,1.744-1.07,1.896-3.109c0.28-3.73,0.684-12.682,0.684-15.977   s-1.43-3.295-2.797-3.295c-1.368,0-2.735,0.435-2.735,2.207c0,1.771,0.279,16.381,0.279,16.381S71.852,50.313,71.852,52.562z"/>
	<path d="M80.805,89.545V88.12c0-0.206-0.167-0.373-0.373-0.373h-1.808c0,0,0.372-2.519-1.772-3.077   c-1.754-0.458-3.105-1.011-7.98-2.165v-0.517c0-0.206-0.167-0.373-0.373-0.373h-3.45c-0.534-2.078-4.198-2.634-6.894-2.634   c-2.703,0-4.801,0.28-4.801,0.28h-0.236v-9.809h-5.968v9.809h-0.311c0,0-2.099-0.28-4.803-0.28c-2.677,0-6.311,0.549-6.882,2.595   h-0.275c-0.139,0-0.259,0.077-0.323,0.19c-7.605,1.678-9.124,2.357-11.216,2.903c-1.899,0.495-1.824,2.526-1.782,2.983h-0.176   c-0.206,0-0.373,0.167-0.373,0.373v1.912c0,0.206,0.167,0.373,0.373,0.373h0.104c-0.006,0.076-0.011,0.154-0.011,0.233   c0,1.396,1.013,2.529,2.262,2.529c0.15,0,0.295-0.018,0.438-0.049c0.41,0.468,0.981,0.76,1.614,0.76   c1.249,0,2.261-1.133,2.261-2.529c0-0.706-0.259-1.345-0.676-1.803v-1.427c0-0.206-0.167-0.373-0.373-0.373H25.16   c0.133-0.231,0.565-0.829,1.537-0.979c0.812-0.124,4.454-0.96,8.436-1.274c0.332,0.935,1.146,1.598,2.101,1.598   c0.15,0,0.296-0.018,0.438-0.049c0.41,0.468,0.982,0.76,1.614,0.76c1.14,0,2.08-0.944,2.236-2.171   c4.989,0.671,4.991,0.671,4.991,0.671l-1.259,6.015h-0.07c-0.206,0-0.373,0.167-0.373,0.373v1.911c0,0.206,0.167,0.373,0.373,0.373   h0.104c-0.006,0.077-0.011,0.155-0.011,0.233c0,1.397,1.013,2.53,2.261,2.53c0.15,0,0.296-0.018,0.438-0.049   c0.411,0.468,0.982,0.76,1.614,0.76c1.249,0,2.262-1.133,2.262-2.53c0-0.706-0.259-1.344-0.677-1.802v-1.427   c0-0.206-0.167-0.373-0.373-0.373h-1.539l1.353-5.082c0,0,1.886-0.047,3.064-0.933c0,0,0,0,5.549-0.746   c1.221-0.164,2.536-0.206,3.858-0.17c0.296,1.012,1.146,1.744,2.148,1.744c0.149,0,0.296-0.018,0.438-0.049   c0.411,0.468,0.981,0.76,1.614,0.76c1.025,0,1.89-0.764,2.167-1.81c2.017,0.323,3.549,0.661,4.041,0.736   c1.213,0.188,1.586,1.073,1.586,1.073h-0.268c-0.206,0-0.373,0.167-0.373,0.373v1.911c0,0.206,0.167,0.373,0.373,0.373h0.104   c-0.007,0.077-0.01,0.154-0.01,0.233c0,1.397,1.012,2.529,2.261,2.529c0.149,0,0.296-0.017,0.438-0.049   c0.411,0.469,0.981,0.76,1.614,0.76c1.248,0,2.261-1.132,2.261-2.529C81.481,90.642,81.222,90.004,80.805,89.545z"/>
</g>
</svg>