<svg xmlns="http://www.w3.org/2000/svg" xmlns:xlink="http://www.w3.org/1999/xlink" version="1.1" id="Layer_1" x="0px" y="0px" width="97.334px" height="97.334px" viewBox="0 0 97.334 97.334" enable-background="new 0 0 97.334 97.334" xml:space="preserve">
<polygon points="48.988,50.507 48.871,50.445 17.126,33.645 17.126,70.471 48.988,87.333 80.85,70.471 80.85,33.645 "/>
<g>
	<path d="M48.988,16.783L17.661,33.362l31.328,16.58l31.327-16.58L48.988,16.783z M55.188,31.054l-12.639,6.688l-3.254-2.007   l1.894-1.002l-3.208-7.562l0.697-0.227L38.167,25.5L52.5,19.834l0.659,8.564l2.028-1.073V31.054z M55.688,27.282l3.061,1.888   l-3.061,1.62V27.282z"/>
	<polygon points="49.592,23.989 47.191,24.667 46.564,26.678 44.989,25.29 42.589,25.969 45.889,28.852 44.546,33.16 46.946,32.481    47.605,30.362 49.29,31.819 51.69,31.14 48.29,28.173  "/>
</g>
</svg>