<?xml version="1.0" encoding="utf-8"?>
<!-- Generator: Adobe Illustrator 15.1.0, SVG Export Plug-In . SVG Version: 6.00 Build 0)  -->
<!DOCTYPE svg PUBLIC "-//W3C//DTD SVG 1.1//EN" "http://www.w3.org/Graphics/SVG/1.1/DTD/svg11.dtd">
<svg version="1.1" id="Layer_1" xmlns="http://www.w3.org/2000/svg" xmlns:xlink="http://www.w3.org/1999/xlink" x="0px" y="0px"
	 width="60px" height="100px" viewBox="0 0 60 100" enable-background="new 0 0 60 100" xml:space="preserve">
<path d="M4,0C1.79,0,0,1.79,0,4v92c0,2.21,1.79,4,4,4c2.209,0,4-1.79,4-4V4C8,1.79,6.209,0,4,0z"/>
<path d="M43.874,2.883C40.384,1.531,36.428,0,31,0c-9.154,0-15.979,4.423-19,6.812v30.622C13.476,36.095,20.75,30,31,30
	c5.054,0,8.662,1.397,12.152,2.748c4.894,1.896,9.537,3.689,16.848,0.77V3.343C52.994,6.396,48.948,4.848,43.874,2.883z"/>
</svg>
