<svg xmlns="http://www.w3.org/2000/svg" xmlns:xlink="http://www.w3.org/1999/xlink" version="1.1" id="Layer_1" x="0px" y="0px" width="100px" height="100px" viewBox="0 0 100 100" enable-background="new 0 0 100 100" xml:space="preserve">
<path d="M98.462,59.656c0,0-30.976,0-41.359,0c-0.815,0-3.113-0.131-2.16-2.441l0,0c0,0,3.075-6.998,4.146-9.31  c0.219-0.471,0.366-1.403,0.372-2.054c0.001-0.099,0.012-0.197,0.012-0.295c0-5.991-4.874-10.865-10.866-10.865  c-4.449,0-8.385,2.651-10.061,6.766c-0.101,0.199-0.179,0.406-0.232,0.621c-0.013,0.036-0.024,0.071-0.036,0.106  c-0.131,0.399-0.125,0.827,0.011,1.218c0.282,1.333,1.468,2.336,2.883,2.336c1.017,0,1.94-0.512,2.479-1.355  c0.107-0.146,0.195-0.311,0.258-0.489c0.703-1.986,2.591-3.32,4.698-3.32c2.748,0,4.983,2.235,4.983,4.982  c0,0.202-0.032,0.827-0.051,0.919c-0.578,2.882-4.784,10.74-4.784,10.74c-0.001,0.004-1.275,2.441-4.579,2.441H1.539  c-0.574,0-1.039,0.465-1.039,1.039v3.574c0,0.574,0.465,1.039,1.039,1.039h96.923c0.573,0,1.038-0.465,1.038-1.039v-3.574  C99.5,60.121,99.035,59.656,98.462,59.656z"/>
</svg>