<?xml version="1.0" encoding="utf-8"?>
<!-- Generator: Adobe Illustrator 15.1.0, SVG Export Plug-In . SVG Version: 6.00 Build 0)  -->
<!DOCTYPE svg PUBLIC "-//W3C//DTD SVG 1.1//EN" "http://www.w3.org/Graphics/SVG/1.1/DTD/svg11.dtd">
<svg version="1.1" id="Layer_1" xmlns="http://www.w3.org/2000/svg" xmlns:xlink="http://www.w3.org/1999/xlink" x="0px" y="0px"
	 width="100px" height="72px" viewBox="0 0 100 72" enable-background="new 0 0 100 72" xml:space="preserve">
<path d="M100,20c0-2.209-1.791-4-4-4c-1.104,0-2.104,0.448-2.828,1.171L84.344,26H15.656l-8.828-8.829C6.104,16.448,5.104,16,4,16
	c-2.209,0-4,1.791-4,4c0,1.104,0.447,2.104,1.172,2.829L14,35.657V53c0,10.493,8.506,19,19,19h34c10.494,0,19-8.507,19-19V35.657
	l12.828-12.828C99.553,22.104,100,21.104,100,20z"/>
<path d="M54,11.2V4c0-2.208-1.792-4-4-4c-2.209,0-4,1.792-4,4v7.2C30.434,12.668,16,22,16,22h34h34C84,22,69.566,12.668,54,11.2z"/>
</svg>
