<svg xmlns="http://www.w3.org/2000/svg" xmlns:xlink="http://www.w3.org/1999/xlink" version="1.1" id="Layer_1" x="0px" y="0px" width="100px" height="100px" viewBox="0 0 100 100" enable-background="new 0 0 100 100" xml:space="preserve">
<g>
	<g>
		<path fill="#000000" d="M27.018,65.3c-2.988-4.695-8.04-7.868-16.242-10.165l1.364,13.027l18.456,11.059    c-0.149-5.745-1.29-10.227-3.458-13.728L27.018,65.3z"/>
		<path fill="#000000" d="M13.321,79.452l16.683,9.997c0.329-2.629,0.522-5.062,0.585-7.323L12.464,71.265L13.321,79.452z"/>
		<polygon fill="#000000" points="30.589,82.126 30.591,82.127 30.591,82.123 30.59,82.117   "/>
		<polygon fill="#000000" points="78.417,57.773 78.418,57.773 78.417,57.771   "/>
		<path fill="#000000" d="M55.951,28.442l-0.087,0.047L54.328,4.025c-0.026-0.423-0.267-0.804-0.637-1.011    c-0.37-0.207-0.819-0.211-1.194-0.012L22.162,19.161c-0.431,0.229-0.688,0.69-0.658,1.179l1.615,25.73l-12.16,6.528    c9.03,2.458,14.646,5.945,18.058,11.199l0.226,0.299l0.167,0.331c2.317,3.861,3.53,8.711,3.677,14.844h0.017l45.352-24.35    C78.267,38.464,70.452,32.1,55.951,28.442z M25.93,51.029l-0.393-6.256l0,0l-1.493-23.788L51.96,6.115l1.886,30.045L25.93,51.029z     M71.202,44.771c-0.669,1.665-2.481,1.949-3.752,0.768c-1.056-0.979-1.292-2.614-0.704-3.74c0.561-1.075,1.798-1.537,2.936-1.008    C71.025,41.418,71.83,43.212,71.202,44.771z"/>
		<path fill="#000000" d="M94.743,79.256L75.096,67.81l2.496-1.34c0.453-3.156,0.726-6.043,0.825-8.696L33.085,82.114l-0.738,8.648    l9.938-5.335l20.879,12.164c0.193,0.113,0.411,0.17,0.628,0.17c0.201,0,0.403-0.05,0.588-0.146l30.321-16.182    c0.399-0.212,0.652-0.625,0.66-1.077C95.37,79.904,95.133,79.484,94.743,79.256z M63.818,95.086L44.863,84.043l0,0l-3.98-2.32    l27.736-14.8l22.936,13.363L63.818,95.086z"/>
	</g>
	<path fill="#000000" d="M51.708,82.447c-0.385,0-0.758-0.206-0.952-0.569c-0.282-0.525-0.084-1.181,0.441-1.463l15.306-8.211   c0.528-0.281,1.181-0.084,1.463,0.441s0.085,1.181-0.44,1.463l-15.308,8.211C52.056,82.406,51.881,82.447,51.708,82.447z"/>
	<path fill="#000000" d="M58.566,86.19c-0.385,0-0.757-0.206-0.951-0.569c-0.282-0.526-0.086-1.181,0.44-1.462l15.306-8.212   c0.526-0.282,1.181-0.085,1.463,0.44c0.282,0.526,0.085,1.181-0.44,1.463l-15.308,8.211C58.914,86.148,58.739,86.19,58.566,86.19z"/>
	<path fill="#000000" d="M65.425,89.934c-0.385,0-0.757-0.206-0.952-0.57c-0.282-0.524-0.085-1.179,0.44-1.461l15.307-8.213   c0.526-0.282,1.18-0.084,1.462,0.441c0.283,0.525,0.086,1.18-0.44,1.462l-15.307,8.212C65.772,89.892,65.598,89.934,65.425,89.934z   "/>
	<path fill="#000000" d="M31.062,26.518c-0.386,0-0.758-0.207-0.953-0.57c-0.282-0.526-0.084-1.181,0.442-1.462l15.313-8.201   c0.525-0.283,1.181-0.084,1.462,0.442s0.083,1.18-0.442,1.461L31.571,26.39C31.409,26.477,31.234,26.518,31.062,26.518z"/>
	<path fill="#000000" d="M31.363,33.739c-0.385,0-0.758-0.207-0.953-0.57c-0.282-0.526-0.084-1.181,0.442-1.462l15.312-8.201   c0.526-0.283,1.18-0.083,1.461,0.442c0.282,0.526,0.084,1.181-0.442,1.462l-15.312,8.201   C31.709,33.698,31.535,33.739,31.363,33.739z"/>
	<path fill="#000000" d="M31.968,40.94c-0.386,0-0.758-0.207-0.953-0.57c-0.282-0.525-0.084-1.18,0.441-1.461l15.312-8.201   c0.526-0.282,1.181-0.084,1.462,0.442c0.282,0.525,0.084,1.18-0.442,1.461l-15.312,8.2C32.314,40.899,32.14,40.94,31.968,40.94z"/>
</g>
</svg>