<svg xmlns="http://www.w3.org/2000/svg" xmlns:xlink="http://www.w3.org/1999/xlink" version="1.1" id="Layer_1" x="0px" y="0px" width="100px" height="100px" viewBox="0 0 100 100" enable-background="new 0 0 100 100" xml:space="preserve">
<path fill="#000000" d="M85.235,4.888l-21.907,8.898l-0.291,0.119l-0.164-0.073L47.042,6.114l-1.064-0.472v-0.07l-1.682-0.735  l-0.08,0.023l-0.021-0.01l-2.327,0.647v0.018l-0.561,0.157L14.06,13.282l-2.692,0.752v2.794v75.6v4.851l4.672-1.305l27.246-7.609  l0.723-0.202l0.003,0.002l15.831,7.979l0.788,0.361l2.254,1.019l2.177-0.883V96.63l1.038-0.421l21.906-8.899l2.297-0.932v-2.479  V8.299V2.83L85.235,4.888z M41.867,9.48v75.34v0.12L15.05,92.429v-75.6l26.817-7.49V9.48z M61.032,17.197v75.439l-15.055-7.62V84.82  V9.669l15.055,7.374V17.197z M86.621,83.899l-21.56,8.756V17.197v-0.142l21.56-8.757V83.899z"/>
<path fill="#000000" d="M29.89,58.547c-4.102-6.664-8.007-10.318-12.079-11.338v40.874l5.006-1.384  C23.746,77.324,27.463,65.938,29.89,58.547z"/>
<path fill="#000000" d="M28.194,33.715l-10.383-3.71v14.194c2.747,0.52,5.33,1.891,7.865,4.226L28.194,33.715z"/>
<path fill="#000000" d="M31.866,61.987c-2.059,6.359-4.978,15.914-5.976,23.862l13.031-3.603V71.175  C34.21,68.887,32.25,63.244,31.866,61.987z"/>
<path fill="#000000" d="M28.817,30.08c0.065-0.417,1.054-7.196-2.713-13.271l-0.008-0.006l-8.285,2.291v7.783l10.888,3.89  L28.817,30.08z"/>
<path fill="#000000" d="M28.997,16.001l-0.004,0.013c3.861,6.958,2.75,14.433,2.73,14.549l-3.438,20.08l-0.09,0.438  c2.243,2.556,4.015,5.354,6.313,9.566l0.083,0.152l0.045,0.168c0.015,0.056,1.245,4.402,4.285,6.758V13.257L28.997,16.001z"/>
<path fill="#000000" d="M53.392,72.14c-2.32-1.894-1.858-6.787-0.888-14.034c0.351-2.621,0.859-6.424,0.618-7.881  c-0.212,0.136-0.517,0.362-0.928,0.736c-2.143,1.946-3.249,4.535-3.903,7.193v24.63l10.181,5.007V72.855  c-0.72,0.13-1.403,0.215-2.025,0.215C55.22,73.07,54.19,72.793,53.392,72.14z"/>
<path fill="#000000" d="M55.332,35.167c-2.194,2.464-0.69,11.213-0.058,12.752c1.278,1.521,0.91,4.889,0.148,10.576  c-0.484,3.623-1.387,10.366-0.169,11.362c0.521,0.423,1.706,0.351,3.219,0.003V34.98c-0.143-0.061-0.284-0.13-0.432-0.175  C56.169,34.232,55.562,34.911,55.332,35.167z"/>
<path fill="#000000" d="M48.292,14.501v36.447c0.552-0.766,1.182-1.496,1.922-2.168c0.373-0.338,1.07-0.967,1.899-1.359  c-0.841-3.53-1.732-10.538,0.724-13.847c0.744-1.003,2.449-2.506,5.637-1.701V19.508L48.292,14.501z"/>
<path fill="#000000" d="M55.21,47.844c0.009,0.01,0.02,0.019,0.029,0.029c-0.008-0.01-0.015-0.027-0.021-0.035L55.21,47.844z"/>
<path fill="#000000" d="M68.225,69.615c-0.199,0.079-0.389,0.151-0.585,0.229v18.791l16.384-7.002V66.119  c-0.157-0.051-0.307-0.099-0.465-0.152C80.323,64.887,73.896,67.4,68.225,69.615z"/>
<path fill="#000000" d="M67.64,19.895v23.254c0.638,1.593,1.229,3.226,1.802,4.811c1.455,4.026,3.465,9.531,5.017,9.284  c1.009-0.166,1.409-1.033,2.298-3.472c1.056-2.896,2.542-6.961,7.268-10.535V12.893L67.64,19.895z"/>
<path fill="#000000" d="M74.934,60.15c-0.216,0.035-0.428,0.053-0.633,0.053c-3.031,0-4.852-3.782-6.661-8.602v15.08  c6.056-2.363,12.239-4.699,16.384-3.633V47.126c-2.67,2.646-3.688,5.43-4.5,7.654C78.603,57.306,77.733,59.692,74.934,60.15z"/>
</svg>