<svg xmlns="http://www.w3.org/2000/svg" xmlns:xlink="http://www.w3.org/1999/xlink" version="1.1" id="Layer_1" x="0px" y="0px" width="100px" height="56.5px" viewBox="0 0 100 56.5" enable-background="new 0 0 100 56.5" xml:space="preserve">
<path fill="#000000" d="M82.185,37.945c-4.74,0-8.583,3.841-8.583,8.583c0,4.737,3.843,8.583,8.583,8.583  c4.744,0,8.581-3.846,8.581-8.583C90.766,41.786,86.929,37.945,82.185,37.945z M82.184,50.225c-2.041,0-3.693-1.659-3.693-3.696  c0-2.047,1.652-3.701,3.693-3.701c2.042,0,3.703,1.654,3.703,3.701C85.887,48.565,84.226,50.225,82.184,50.225z"/>
<path fill="#000000" d="M87.805,12.175H76.264V5.976l-0.677-2.738L73.69,1.149l-1.674,2.96l0.837,1.866v6.199h-3.667v31.472h2.717  c1.26-4.494,5.389-7.809,10.281-7.809c4.896,0,9.021,3.314,10.284,7.809h4.598V25.801L87.805,12.175z M81.843,25.801V14.227h4.251  l7.865,11.574H81.843z"/>
<path fill="#000000" d="M17.904,37.945c-0.02,0-0.035,0-0.054,0c-4.717,0-8.55,3.81-8.581,8.532  c-0.028,4.736,3.792,8.598,8.53,8.634c0.021,0,0.039,0,0.054,0c4.713,0,8.552-3.814,8.582-8.532  C26.463,41.837,22.643,37.971,17.904,37.945z M17.83,50.08c-1.964-0.012-3.545-1.607-3.534-3.571  c0.013-1.971,1.612-3.553,3.579-3.537c1.961,0.01,3.544,1.614,3.533,3.577C21.398,48.514,19.794,50.09,17.83,50.08z"/>
<path fill="#000000" d="M37.657,37.949c-4.735,0.135-8.468,4.085-8.332,8.826c0.135,4.734,4.089,8.469,8.825,8.333  c4.736-0.137,8.463-4.09,8.327-8.827C46.342,41.541,42.395,37.813,37.657,37.949z M38.005,50.078  c-1.962,0.056-3.6-1.484-3.657-3.447c-0.057-1.964,1.49-3.602,3.454-3.657c1.963-0.057,3.596,1.49,3.653,3.453  C41.511,48.39,39.968,50.021,38.005,50.078z"/>
<path fill="#000000" d="M3.865,43.646h3.709c0.266-0.943,0.682-1.819,1.18-2.639H3.865V43.646z"/>
<path fill="#000000" d="M48.185,43.646h18.621v-2.639H47.008C47.505,41.827,47.92,42.703,48.185,43.646z"/>
<path fill="#000000" d="M27.877,42.857c0.24-0.652,0.562-1.262,0.918-1.85h-1.837C27.316,41.596,27.638,42.205,27.877,42.857z"/>
<path fill="#000000" d="M3.865,32.265v6.934h6.231c1.947-2.067,4.704-3.36,7.755-3.36h0.065c3.028,0.02,5.735,1.319,7.663,3.36  h4.598c1.944-2.057,4.676-3.36,7.728-3.36c3.057,0,5.814,1.293,7.763,3.36h21.139v-6.934H62.46H3.865z"/>
</svg>