<svg xmlns="http://www.w3.org/2000/svg" xmlns:xlink="http://www.w3.org/1999/xlink" version="1.1" x="0px" y="0px" width="90px" height="51px" viewBox="0 0 90 51" enable-background="new 0 0 90 51" xml:space="preserve">
<g id="Layer_1">
	
		<path fill="#000000" d="M20.881,40.152c0,0,3.401-2.725,12.688-1.853c2.652,0.249,3.055,0.143,4.763-0.585   c2.95-1.259,10.729,0.58,10.729,0.58s1.495-3.307,4.646-4.646c2.395-1.018,8.671,0.774,8.671,0.774s3.101-15.375,7.122-18.116   c0.704-0.48,3.407,0,3.407,0s5.109,5.11,3.715,9.445c-0.474,1.474-2.013,4.955-2.013,4.955l6.039,12.387   c0,0,5.374,1.184,4.335,1.649C84.866,44.797,82.662,45,82.662,45h-4.181l-6.503-10.63c0,0-2.168,5.446-9.91,7.923   c-7.742,2.478-41.109,0.237-41.109,0.237s-5.387,1.283-7.239,1.537c-1.112,0.152-4.452,0.422-4.452,0.422s-2.185,0.563-2.323,0   c-0.538-2.204,8.051-4.182,8.051-4.182s0.396-1.427,1.549-1.858C17.637,38.041,20.881,40.152,20.881,40.152z"/>
	<circle fill="#000000" stroke="#000000" stroke-width="0.33" stroke-miterlimit="10" cx="72.462" cy="10.537" r="4.537"/>
</g>
<g id="Layer_2">
</g>
</svg>