<?xml version="1.0" encoding="utf-8"?>
<!-- Generator: Adobe Illustrator 15.1.0, SVG Export Plug-In . SVG Version: 6.00 Build 0)  -->
<!DOCTYPE svg PUBLIC "-//W3C//DTD SVG 1.1//EN" "http://www.w3.org/Graphics/SVG/1.1/DTD/svg11.dtd">
<svg version="1.1" id="Layer_1" xmlns="http://www.w3.org/2000/svg" xmlns:xlink="http://www.w3.org/1999/xlink" x="0px" y="0px"
	 width="100px" height="19.061px" viewBox="0 0 100 19.061" enable-background="new 0 0 100 19.061" xml:space="preserve">
<path d="M97.994,0H61.88h-4.014H21.752C6.642,0,1.125,10.687,0.897,11.141L0,12.936l1.795,0.897
	c0.427,0.214,10.793,5.228,40.022,5.228c5.46,0,11.105,0,20.198-1.006c1.688-0.07,1.827-1.463,2.018-3.371l0.618-6.185
	c0.499-0.282,0.932-0.474,1.241-0.474c3.01,0,8.025,3.01,13.042,3.01c5.016,0,9.028-3.01,12.038-3.01c2.006,0,3.009,3.01,5.016,3.01
	S100,9.029,100,6.019C100,2.006,97.994,0,97.994,0z M60.046,14.229c-7.993,0.819-13.191,0.819-18.229,0.819
	c-20.839,0-31.765-2.628-36.041-3.996c2.119-2.619,7.022-7.039,15.977-7.039H57.56c-0.105,2.874,0.045,6.349,1.311,7.022
	c0.396,0.212,0.919,0.15,1.501-0.057C60.253,12.161,60.136,13.332,60.046,14.229z M65.892,6.019c-1.107,0-2.006-0.898-2.006-2.006
	s0.898-2.006,2.006-2.006c1.108,0,2.007,0.898,2.007,2.006S67,6.019,65.892,6.019z M78.934,6.019c-1.108,0-2.007-0.898-2.007-2.006
	s0.898-2.006,2.007-2.006c1.107,0,2.006,0.898,2.006,2.006S80.041,6.019,78.934,6.019z M90.972,6.019
	c-1.108,0-2.007-0.898-2.007-2.006s0.898-2.006,2.007-2.006c1.107,0,2.006,0.898,2.006,2.006S92.079,6.019,90.972,6.019z"/>
</svg>
