<svg xmlns="http://www.w3.org/2000/svg" xmlns:xlink="http://www.w3.org/1999/xlink" version="1.1" id="Layer_1" x="0px" y="0px" width="65.350877193px" height="100px" viewBox="0 0 149 228" enable-background="new 0 0 149 228" xml:space="preserve">
<path d="M87.297,205.26c0,5.248-6.104,7.74-11.352,7.74h-1.584c-5.248,0-11.351-2.492-11.351-7.74l0.938-68.501l1.715-53.843  l-0.806-12.281c0-5.248-0.994-9.635,4.255-9.635h12.08c5.249,0,4.255,4.365,4.255,9.613l-0.89,12.952l1.799,53.232L87.297,205.26z"/>
<path d="M85.38,30.823"/>
<circle cx="75.191" cy="38.548" r="17.74"/>
<path d="M54,43.145C54,48.588,49.299,53,44.025,53h-15.12C23.631,53,22,52.696,22,47.252V29.18c0-5.444,1.631-6.18,6.905-6.18h15.12  c3.8,0,7.295,2.507,8.832,5.825C53.453,30.112,54,31.767,54,33.288V43.145z"/>
<path d="M52.26,28.213c5.307,7.538,8.74,0.091,8.74,0.091v20.521c0,0-4.369-7.53-8.674-0.484"/>
<path d="M97,43.145c0,5.444,4.354,9.857,9.798,9.857l0,0c5.443,0,14.961-9.342,14.961-14.786l0,0  c0-5.444-9.562-14.786-15.007-14.786l0,0c-3.924,0-7.259,2.292-8.846,5.61C97.292,30.327,97,31.767,97,33.288V43.145z"/>
<path d="M98.628,28.213C93.15,35.751,90,28.305,90,28.305v20.521c0,0,4.314-7.53,8.757-0.484"/>
</svg>