<svg xmlns:x="http://ns.adobe.com/Extensibility/1.0/" xmlns:i="http://ns.adobe.com/AdobeIllustrator/10.0/" xmlns:graph="http://ns.adobe.com/Graphs/1.0/" xmlns="http://www.w3.org/2000/svg" xmlns:xlink="http://www.w3.org/1999/xlink" xmlns:a="http://ns.adobe.com/AdobeSVGViewerExtensions/3.0/" version="1.0" id="Layer_1" x="0px" y="0px" width="100px" height="100px" viewBox="0 0 100 100" enable-background="new 0 0 100 100" xml:space="preserve">
<g>
	<path d="M55.389,70.984c1.231,0.369,2.551,1.009,3.318,2.115c1.736,2.506,6.361,4.9,8.213,4.604c1.852-0.295,1.391,1.864-2.9,2.821   c-3.408,0.763-6.468-1.569-8.063-3.547c0.817,2.445-0.562,4.357,0.812,5.715c1.562,1.541,1.361,2.988-2.267,1.464   c-0.169-0.074-0.336-0.146-0.497-0.22c5.812,6.597,7.344,13.467,7.63,15.049H35.021c-0.032-8.342-1.925-14.143-6.095-17.454   c-3.812-2.396-9.267-2.693-14.193,0.377c-2.944,3.526-4.893,10.104-4.961,17.077h-1.66c0.134-6.977,1.559-13.77,3.77-17.043   c2.312-3.698,5.988-7.854,11.775-12.34l1.019-1.143c0.639,0.199,1.342,0.422,2.093,0.666c-1.656-1.096-2.615-2.477-2.412-4.32   c0.199-1.815,1.345-2.471,2.53-2.649c0.047-0.134,0.105-0.269,0.18-0.404c1.772-3.226,3.449-2.354,4.198-1.68   c0.572-1.496,0.901-3.062,0.862-4.673c-0.737-0.104-1.552-0.289-2.448-0.577c-3.458-1.111-4.556-4.326-4.556-4.326   s4.055,2.026,4.055-0.502c0-1.318-2.537-5.85-3.798-8.27c-0.462-0.886-0.847-2.436-1.148-4.051   c-10.795-0.479-17.618-2.345-17.937-5.896c-0.491-5.515,10.797-13.09,36.512-15.339c11.444-1.002,26.352-0.141,33.085,4.571   c0,0,0.866,0.663,2.127,1.587c0.547-0.025,1.104-0.037,1.67-0.037c6.785,0,12.285,1.827,12.285,4.082   c0,1.838-3.652,3.407-8.675,3.919c-3.838,0.513-8.444,1.013-14.284,1.606c-0.774,1.458-1.041,2.345,0.438,4.438   c1.027,1.458,3.994,5.83,4.652,7.036c0.922,1.682-4.389,1.735-3.924,3.013c0.211,0.584,0.93,2.056,1.157,2.625   c0.279,0.689-1.37,1.128-1.382,1.608c0.001,0.186,1.018,0.282,0.857,1.485c-0.098,0.735-1.588,0.157-1.672,2.967   c-0.049,1.527,1.776,3.652-1.271,5.584c-3.275,2.076-14.676-4.039-15.629,7.521c-0.02,0.236-0.038,0.396-0.053,0.5   c0.102,0.008,0.199,0.018,0.297,0.027C54.79,69.239,55.32,69.973,55.389,70.984L55.389,70.984z M49.786,79.904   c-0.268-0.823-0.391-1.79-0.383-2.948c0.006-1.168,0.113-2.133,0.264-2.912c-2.229,0.229-6.216,0.086-13.133-1.539l-0.83-0.194   c3.738,1.479,7.522,3.196,10.467,5.026C47.48,78.152,48.683,79.016,49.786,79.904L49.786,79.904z M79.334,23.573   c2.102,1.476,4.743,3.149,6.627,3.734c3.169,0.984,8.113-0.229,3.669-2.251C86.631,23.69,82.018,23.531,79.334,23.573   L79.334,23.573z M26.112,18.324l-1.467-7.6c0,0,1.857-9.163,20.423-9.558c14.564-0.311,21.903,2.899,22.255,4.92   c0.204,1.18,0.667,6.756,1.019,11.208c-7.572-1.98-17.546-2.484-25.556-1.783C36.363,16.074,30.813,17.064,26.112,18.324   L26.112,18.324z M60.854,81.124c0.217,0.228,0.424,0.451,0.625,0.676c7.998,7.068,5.369,10.447,7.354,17.425h-1.656   c-1.302-4.72-5.11-14.187-10.298-19.621c0.021-0.229,0.041-0.447,0.043-0.642C57.993,79.891,59.339,80.73,60.854,81.124   L60.854,81.124z"/>
</g>
</svg>