<svg xmlns:x="http://ns.adobe.com/Extensibility/1.0/" xmlns:i="http://ns.adobe.com/AdobeIllustrator/10.0/" xmlns:graph="http://ns.adobe.com/Graphs/1.0/" xmlns="http://www.w3.org/2000/svg" xmlns:xlink="http://www.w3.org/1999/xlink" xmlns:a="http://ns.adobe.com/AdobeSVGViewerExtensions/3.0/" version="1.0" id="Layer_1" x="0px" y="0px" width="100px" height="100px" viewBox="0 0 100 100" enable-background="new 0 0 100 100" xml:space="preserve">
<g>
	<path d="M52.535,49.779c-0.023,0.301-0.036,0.61-0.036,0.917c0,9.041,9.112,13.812,16.687,13.812   c13.734-0.028,19.153-10.866,19.153-22.73c0-6.729-4.635-8.555-9.555-6.601c-3.154,1.254-6.281,1.666-9.679,1.711   C61.736,36.916,53.193,41.34,52.535,49.779L52.535,49.779z M50.017,69.816c-7.35,0-24.679,0.888-21.158,13.101   c2.883,10.001,13.872,4.901,21.158,4.901c7.285,0,18.274,5.1,21.156-4.901C74.695,70.704,57.366,69.816,50.017,69.816   L50.017,69.816z M43.561,64.5c-1.215,0.332-1.923,0.843-1.991,1.404c-0.177,1.46,1.134,1.676,2.811,1.742h11.357   c1.676-0.066,2.986-0.282,2.811-1.742c-0.068-0.562-0.775-1.072-1.992-1.404c-0.588-1.45-3.25-2.548-6.525-2.557   C46.821,61.948,44.151,63.046,43.561,64.5L43.561,64.5z M47.562,49.779c-0.658-8.438-9.201-12.863-16.57-12.892   c-3.398-0.045-6.524-0.457-9.679-1.711c-4.92-1.954-9.555-0.128-9.555,6.601c0,11.864,5.419,22.702,19.155,22.729   c7.572,0,16.685-4.771,16.685-13.812C47.598,50.389,47.585,50.08,47.562,49.779L47.562,49.779z M5.893,49.492   c-1.784-26.571,7.6-42.6,29.555-47.151v19.701c0,5.736,4.65,10.386,10.386,10.386h8.445c5.736,0,10.386-4.649,10.386-10.385   L64.68,2.36c21.887,4.578,31.242,20.599,29.461,47.132C92.417,75.158,74.309,98.91,50.017,98.91   C25.725,98.91,7.615,75.158,5.893,49.492L5.893,49.492z M69.18,42.426c12.907-0.171,13.62-5.217,13.62-0.649   c0,4.563-0.792,17.165-13.62,17.189c-6.154,0-11.142-3.702-11.142-8.271c0-0.162,0.007-0.323,0.019-0.486   C58.396,45.868,63.246,42.426,69.18,42.426L69.18,42.426z M36.549,77.098c3.857-1.111,8.511-1.742,13.468-1.742   c4.956,0,9.609,0.631,13.467,1.742c4.437,1.278,2.518,7.932-1.918,6.652c-3.146-0.907-7.144-1.469-11.549-1.469   c-4.407,0-8.404,0.562-11.55,1.469C34.032,85.029,32.114,78.376,36.549,77.098L36.549,77.098z M30.918,42.426   c5.934,0,10.783,3.442,11.122,7.782c0.013,0.163,0.019,0.324,0.019,0.485c0,4.568-4.988,8.271-11.141,8.271   c-12.828-0.025-13.62-12.625-13.62-17.188C17.298,37.209,18.01,42.255,30.918,42.426L30.918,42.426z M40.987,1.466   c2.79-0.314,5.752-0.472,8.888-0.472h0.141h0.141c3.172,0,6.166,0.161,8.983,0.482L59.126,22.04c0,2.677-2.17,4.848-4.849,4.848   h-8.444c-2.677,0-4.847-2.17-4.847-4.847L40.987,1.466L40.987,1.466z"/>
</g>
</svg>