<svg xmlns:x="http://ns.adobe.com/Extensibility/1.0/" xmlns:i="http://ns.adobe.com/AdobeIllustrator/10.0/" xmlns:graph="http://ns.adobe.com/Graphs/1.0/" xmlns="http://www.w3.org/2000/svg" xmlns:xlink="http://www.w3.org/1999/xlink" xmlns:a="http://ns.adobe.com/AdobeSVGViewerExtensions/3.0/" version="1.0" id="Layer_1" x="0px" y="0px" width="100px" height="100px" viewBox="0 0 100 100" enable-background="new 0 0 100 100" xml:space="preserve">
<g>
	<path d="M52.781,50.229c-0.023,0.305-0.036,0.61-0.036,0.919c0,2.354,0.618,4.416,1.665,6.184c-1.541-0.354-3.02-0.473-4.141-0.475   c-1.11,0-2.565,0.117-4.085,0.465c1.044-1.764,1.659-3.824,1.659-6.174c0-0.31-0.012-0.614-0.036-0.919   c-0.657-8.437-9.2-12.862-16.569-12.89c-3.398-0.044-6.524-0.457-9.68-1.71c-4.921-1.955-9.554-0.128-9.554,6.601   c0,11.861,5.418,22.7,19.155,22.729c1.802,0,3.69-0.271,5.524-0.807c-1.033,2.479-0.448,5.34,1.7,7.268   c-6.138,1.456-11.365,4.719-9.279,11.95c2.883,10,13.871,4.901,21.157,4.901c7.285,0,18.274,5.099,21.157-4.901   c2.079-7.211-3.111-10.474-9.225-11.937c2.162-1.927,2.772-4.787,1.742-7.271c1.822,0.527,3.701,0.796,5.49,0.796   c13.737-0.028,19.155-10.867,19.155-22.729c0-6.729-4.633-8.556-9.554-6.601c-3.154,1.253-6.281,1.666-9.68,1.71   C61.982,37.368,53.439,41.793,52.781,50.229L52.781,50.229z M6.139,49.945C4.004,18.146,17.863,1.446,50.122,1.446h0.141h0.141   c32.259,0,46.118,16.7,43.983,48.499c-1.723,25.665-19.834,49.417-44.124,49.417C25.971,99.361,7.861,75.609,6.139,49.945   L6.139,49.945z M43.807,64.952c0.59-1.453,3.261-2.55,6.468-2.558c3.278,0.01,5.939,1.105,6.527,2.558   c1.218,0.333,1.925,0.844,1.991,1.405c0.178,1.461-1.134,1.675-2.811,1.742H44.627c-1.676-0.067-2.987-0.281-2.811-1.742   C41.884,65.796,42.592,65.285,43.807,64.952L43.807,64.952z M36.794,77.548c3.858-1.11,8.512-1.739,13.469-1.739   c4.958,0,9.609,0.629,13.467,1.739c4.436,1.28,2.519,7.935-1.918,6.655c-3.146-0.907-7.143-1.473-11.549-1.473   c-4.407,0-8.403,0.564-11.55,1.473C34.277,85.48,32.359,78.828,36.794,77.548L36.794,77.548z M31.165,42.878   c5.933,0,10.782,3.443,11.12,7.783c0.014,0.161,0.02,0.323,0.02,0.487c0,4.565-4.988,8.269-11.14,8.269   c-12.829-0.022-13.622-12.625-13.622-17.188C17.543,37.661,18.257,42.708,31.165,42.878L31.165,42.878z M69.425,42.878   c12.907-0.17,13.621-5.217,13.621-0.648c0,4.563-0.792,17.165-13.621,17.188c-6.151,0-11.141-3.702-11.141-8.27   c0-0.162,0.006-0.325,0.021-0.486C58.643,46.321,63.492,42.878,69.425,42.878L69.425,42.878z"/>
</g>
</svg>