<svg xmlns:x="http://ns.adobe.com/Extensibility/1.0/" xmlns:i="http://ns.adobe.com/AdobeIllustrator/10.0/" xmlns:graph="http://ns.adobe.com/Graphs/1.0/" xmlns="http://www.w3.org/2000/svg" xmlns:xlink="http://www.w3.org/1999/xlink" xmlns:a="http://ns.adobe.com/AdobeSVGViewerExtensions/3.0/" version="1.0" id="Layer_1" x="0px" y="0px" width="100px" height="100px" viewBox="0 0 100 100" enable-background="new 0 0 100 100" xml:space="preserve">
<g>
	<path d="M38.186,5.512C17.47,9.03,9.018,22.94,10.696,47.942c1.624,24.207,18.508,44.896,39.287,44.896   c20.781,0,37.664-20.688,39.289-44.896c1.67-24.879-6.896-38.758-27.408-42.37v26.144c0,4.206-3.409,7.616-7.614,7.616h-8.446   c-4.207,0-7.617-3.41-7.617-7.616V5.512L38.186,5.512z M5.861,48.267C4.003,20.601,14.252,4.364,38.193,0.612   c1.374-0.216,2.794-0.39,4.257-0.523c-0.071,0.277-0.11,0.567-0.11,0.866v30.762c0,1.912,1.55,3.461,3.463,3.461h8.446   c1.911,0,3.461-1.55,3.461-3.461V0.955c0-0.295-0.035-0.583-0.104-0.858c1.463,0.135,2.881,0.311,4.252,0.528   c23.883,3.778,34.105,20.009,32.25,47.643c-1.723,25.667-19.832,49.417-44.124,49.417C25.692,97.686,7.583,73.934,5.861,48.267   L5.861,48.267z M43.529,63.273c-1.217,0.332-1.924,0.844-1.991,1.404c-0.178,1.461,1.135,1.676,2.811,1.743h11.357   c1.674-0.067,2.985-0.282,2.81-1.743c-0.067-0.562-0.775-1.072-1.992-1.404c-0.588-1.449-3.248-2.547-6.528-2.556   C46.789,60.725,44.117,61.82,43.529,63.273L43.529,63.273z M36.517,75.871c-4.435,1.279-2.519,7.932,1.916,6.652   c3.147-0.906,7.145-1.471,11.551-1.471c4.407,0,8.405,0.563,11.551,1.471c4.436,1.278,6.354-5.373,1.917-6.652   c-3.856-1.111-8.511-1.739-13.468-1.739C45.027,74.132,40.374,74.76,36.517,75.871L36.517,75.871z M69.146,41.201   c-5.934,0-10.782,3.442-11.121,7.784c-0.012,0.16-0.021,0.322-0.021,0.486c0,4.567,4.988,8.271,11.142,8.271   c12.83-0.024,13.621-12.626,13.621-17.189C82.768,35.984,82.053,41.03,69.146,41.201L69.146,41.201z M30.886,41.201   c-12.907-0.171-13.62-5.216-13.62-0.649c0,4.563,0.792,17.165,13.62,17.189c6.151,0,11.141-3.703,11.141-8.271   c0-0.164-0.007-0.326-0.02-0.486C41.669,44.643,36.819,41.201,30.886,41.201L30.886,41.201z M52.503,48.553   c0.658-8.438,9.199-12.862,16.57-12.892c3.397-0.044,6.522-0.457,9.68-1.71c4.92-1.955,9.554-0.128,9.554,6.601   c0,11.86-5.418,22.702-19.154,22.728c-1.793,0-3.67-0.268-5.491-0.793c1.028,2.481,0.419,5.345-1.743,7.269   c6.114,1.466,11.305,4.728,9.225,11.938c-2.883,9.998-13.871,4.902-21.158,4.902c-7.286,0-18.274,5.096-21.156-4.902   c-2.086-7.232,3.141-10.493,9.278-11.95c-2.148-1.929-2.732-4.79-1.698-7.267c-1.834,0.533-3.725,0.804-5.526,0.804   c-13.737-0.025-19.155-10.867-19.155-22.729c0-6.729,4.634-8.555,9.555-6.601c3.155,1.253,6.28,1.666,9.679,1.71   c7.37,0.029,15.914,4.453,16.57,12.892c0.023,0.303,0.036,0.61,0.036,0.917c0,2.348-0.616,4.41-1.659,6.174   c1.52-0.347,2.976-0.465,4.086-0.467c1.118,0.004,2.598,0.122,4.142,0.479c-1.049-1.768-1.668-3.833-1.668-6.186   C52.466,49.164,52.479,48.856,52.503,48.553L52.503,48.553z M47.731,4.771l2.295,2.294l2.292-2.294   c1.959-1.959,4.896,0.979,2.938,2.938l-2.295,2.294l2.293,2.293c1.959,1.958-0.979,4.896-2.938,2.938l-2.292-2.293l-2.295,2.293   c-1.958,1.958-4.895-0.979-2.938-2.938l2.292-2.293l-2.293-2.294C42.835,5.749,45.771,2.812,47.731,4.771L47.731,4.771z    M47.731,19.631l2.295,2.294l2.292-2.294c1.959-1.958,4.896,0.979,2.938,2.938l-2.295,2.294l2.293,2.294   c1.959,1.958-0.979,4.896-2.938,2.938L50.026,27.8l-2.295,2.294c-1.958,1.958-4.895-0.979-2.938-2.938l2.292-2.294l-2.293-2.294   C42.835,20.61,45.771,17.672,47.731,19.631L47.731,19.631z"/>
</g>
</svg>