<svg xmlns:x="http://ns.adobe.com/Extensibility/1.0/" xmlns:i="http://ns.adobe.com/AdobeIllustrator/10.0/" xmlns:graph="http://ns.adobe.com/Graphs/1.0/" xmlns="http://www.w3.org/2000/svg" xmlns:xlink="http://www.w3.org/1999/xlink" xmlns:a="http://ns.adobe.com/AdobeSVGViewerExtensions/3.0/" version="1.0" id="Layer_1" x="0px" y="0px" width="100px" height="100px" viewBox="0 0 100 100" enable-background="new 0 0 100 100" xml:space="preserve">
<g>
	<path d="M48.171,20.258l2.295,2.294l2.294-2.294c1.961-1.958,4.896,0.979,2.938,2.938l-2.296,2.294l2.295,2.293   c1.955,1.958-0.979,4.896-2.938,2.938l-2.294-2.293l-2.294,2.293c-1.958,1.959-4.896-0.979-2.938-2.938l2.294-2.293l-2.294-2.294   C43.275,21.237,46.214,18.299,48.171,20.258L48.171,20.258z M6.302,48.894C4.444,21.228,14.694,4.991,38.636,1.238   c1.372-0.215,2.792-0.389,4.257-0.522c-0.073,0.277-0.111,0.566-0.111,0.866v30.761c0,1.912,1.55,3.462,3.462,3.462h8.447   c1.91,0,3.461-1.55,3.461-3.462V1.582c0-0.296-0.036-0.584-0.107-0.858c1.465,0.135,2.883,0.311,4.256,0.528   C86.18,5.029,96.404,21.26,94.549,48.894c-1.724,25.667-19.833,49.417-44.123,49.417C26.134,98.311,8.023,74.561,6.302,48.894   L6.302,48.894z M52.943,49.18c-0.025,0.303-0.035,0.608-0.035,0.916c0,2.356,0.617,4.419,1.665,6.187   c-1.542-0.354-3.021-0.473-4.141-0.477c-1.111,0.002-2.567,0.118-4.085,0.467c1.044-1.766,1.658-3.824,1.658-6.177   c0-0.307-0.012-0.612-0.036-0.916c-0.657-8.438-9.2-12.863-16.57-12.891c-3.397-0.045-6.522-0.458-9.679-1.71   c-4.92-1.956-9.553-0.128-9.553,6.6c0,11.86,5.418,22.703,19.154,22.727c1.802,0,3.691-0.27,5.525-0.803   c-1.034,2.478-0.45,5.338,1.7,7.268c-6.138,1.455-11.365,4.716-9.28,11.947c2.884,10.002,13.872,4.902,21.158,4.902   c7.285,0,18.273,5.1,21.156-4.902c2.08-7.211-3.111-10.473-9.225-11.937c2.162-1.924,2.773-4.786,1.742-7.271   c1.822,0.529,3.701,0.793,5.491,0.793c13.737-0.022,19.156-10.865,19.156-22.727c0-6.729-4.634-8.556-9.556-6.6   c-3.155,1.253-6.28,1.665-9.68,1.71C62.145,36.317,53.602,40.742,52.943,49.18L52.943,49.18z M69.588,41.827   c12.907-0.17,13.62-5.216,13.62-0.648c0,4.563-0.792,17.165-13.62,17.188c-6.152,0-11.141-3.703-11.141-8.271   c0-0.163,0.006-0.325,0.019-0.485C58.805,45.27,63.654,41.827,69.588,41.827L69.588,41.827z M36.958,76.499   c3.856-1.11,8.511-1.741,13.468-1.741c4.954,0,9.609,0.631,13.467,1.741c4.437,1.278,2.519,7.933-1.918,6.651   c-3.145-0.904-7.143-1.471-11.549-1.471c-4.408,0-8.404,0.565-11.551,1.471C34.44,84.432,32.522,77.777,36.958,76.499   L36.958,76.499z M31.327,41.827c5.934,0,10.783,3.442,11.121,7.784c0.012,0.16,0.018,0.322,0.018,0.485   c0,4.568-4.986,8.271-11.139,8.271c-12.829-0.023-13.621-12.625-13.621-17.188C17.706,36.611,18.418,41.657,31.327,41.827   L31.327,41.827z M43.97,63.9c0.59-1.452,3.259-2.549,6.467-2.555c3.279,0.01,5.94,1.104,6.528,2.555   c1.217,0.334,1.924,0.843,1.99,1.404c0.178,1.463-1.133,1.674-2.811,1.743H44.79c-1.678-0.069-2.988-0.28-2.812-1.743   C42.047,64.743,42.754,64.234,43.97,63.9L43.97,63.9z M48.171,5.397l2.295,2.294l2.294-2.294c1.961-1.958,4.896,0.979,2.938,2.938   l-2.296,2.294l2.295,2.294c1.955,1.958-0.979,4.896-2.938,2.937l-2.294-2.293l-2.294,2.293c-1.958,1.958-4.896-0.979-2.938-2.937   l2.294-2.294l-2.294-2.294C43.275,6.376,46.214,3.438,48.171,5.397L48.171,5.397z"/>
</g>
</svg>