<svg xmlns="http://www.w3.org/2000/svg" xmlns:xlink="http://www.w3.org/1999/xlink" version="1.0" id="Layer_1" x="0px" y="0px" width="100px" height="100px" viewBox="0 0 100 100" enable-background="new 0 0 100 100" xml:space="preserve">
<path d="M60.115,4.213c-0.123-0.291-0.516-0.492-0.963-0.492H40.848c-0.446,0-0.839,0.201-0.962,0.492  c-0.191,0.455-4.697,33.615-4.092,44.316c0.295,5.213,3.76,9.662,7.029,11.362c1.162,0.604,2.071,0.997,2.801,1.313  c1.023,0.442,1.641,0.709,2.201,1.211C48.715,63.212,49,63.872,49,65.136c0,0.027,0.013,0.05,0.016,0.076l-0.03,29.067h-7.692  c-0.553,0-1,0.447-1,1c0,0.554,0.447,1,1,1h8.69h0.001h8.719c0.553,0,1-0.446,1-1c0-0.553-0.447-1-1-1h-7.718l0.029-29.364  c0.035-1.111,0.327-1.757,1.158-2.5c0.561-0.5,1.178-0.769,2.201-1.209c0.73-0.315,1.639-0.709,2.803-1.313  c3.27-1.701,6.733-6.15,7.028-11.362C64.813,37.829,60.307,4.669,60.115,4.213z M41.61,5.077h16.781  c0.596,1.497,1.315,9.769,2.148,16.139H39.462C40.295,14.847,41.016,6.575,41.61,5.077z M62.211,48.416  c-0.25,4.419-3.256,8.298-5.957,9.702c-1.1,0.572-1.971,0.948-2.671,1.252c-1.126,0.485-1.938,0.836-2.742,1.555  c-0.327,0.293-0.606,0.591-0.841,0.897c-0.234-0.308-0.514-0.604-0.841-0.897c-0.803-0.719-1.616-1.068-2.742-1.555  c-0.7-0.304-1.572-0.681-2.671-1.252c-2.7-1.404-5.706-5.281-5.956-9.702c-0.149-2.646,1.233-23.56,1.56-26.298h21.303  C60.978,24.855,62.359,45.768,62.211,48.416z"/>
</svg>