<svg xmlns="http://www.w3.org/2000/svg" xmlns:xlink="http://www.w3.org/1999/xlink" version="1.1" id="Layer_1" x="0px" y="0px" width="100px" height="100px" viewBox="0 0 100 100" enable-background="new 0 0 100 100" xml:space="preserve">
<g>
	<path d="M5.437,49.369C3.55,21.261,13.964,4.766,38.286,0.953c1.395-0.219,2.838-0.396,4.323-0.531C42.538,0.704,42.5,1,42.5,1.302   v31.253c0,1.942,1.574,3.515,3.517,3.515h8.582c1.941,0,3.517-1.572,3.517-3.515V1.302c0-0.299-0.037-0.593-0.109-0.872   c1.488,0.137,2.927,0.315,4.323,0.536C86.59,4.804,96.976,21.294,95.092,49.369c-1.749,26.076-20.148,50.208-44.826,50.208   C25.585,99.577,7.187,75.445,5.437,49.369L5.437,49.369z M38.278,5.932C17.231,9.507,8.645,23.639,10.35,49.039   C12,73.634,29.153,94.65,50.266,94.65c21.109,0,38.266-21.017,39.915-45.611c1.695-25.275-7.008-39.376-27.844-43.045v26.561   c0,4.273-3.466,7.735-7.738,7.735h-8.582c-4.272,0-7.738-3.462-7.738-7.735V5.932L38.278,5.932z M36.394,77.019   c-4.634,1.489-2.63,9.247,2.004,7.757c1.498-0.481,3.194-0.799,5.034-1c-0.815-0.56-1.453-1.212-1.866-1.929   c2.307,0.833,5.515,1.35,9.062,1.35c3.62,0,6.888-0.538,9.203-1.403c-0.419,0.753-1.087,1.438-1.949,2.021   c1.683,0.203,3.243,0.508,4.65,0.962c4.635,1.49,6.641-6.268,2.005-7.757c-4.03-1.299-8.895-2.032-14.072-2.032   C45.288,74.986,40.425,75.72,36.394,77.019L36.394,77.019z M43.707,64.616c-1.235,0.34-1.954,0.856-2.022,1.427   c-0.181,1.485,1.151,1.7,2.854,1.771h11.54c1.702-0.07,3.034-0.285,2.852-1.771c-0.067-0.57-0.784-1.087-2.021-1.427   c-0.597-1.475-3.301-2.586-6.631-2.596C47.019,62.026,44.306,63.14,43.707,64.616L43.707,64.616z M52.824,49.659   c0.669-8.572,9.346-13.066,16.835-13.096c3.451-0.046,6.627-0.465,9.832-1.737c4.999-1.987,9.708-0.133,9.708,6.704   c0,12.052-5.506,23.066-19.463,23.093c-1.816,0-3.726-0.271-5.578-0.808c1.047,2.522,0.427,5.431-1.769,7.387   c6.21,1.485,11.481,4.801,9.368,12.126c-2.926,10.157-14.093,4.979-21.492,4.979c-7.403,0-18.566,5.178-21.496-4.979   c-2.118-7.349,3.193-10.662,9.428-12.141c-2.183-1.958-2.777-4.864-1.726-7.384c-1.864,0.544-3.784,0.819-5.614,0.819   C16.901,64.597,11.396,53.582,11.396,41.53c0-6.837,4.708-8.691,9.707-6.704c3.206,1.272,6.381,1.691,9.834,1.737   c7.487,0.029,16.164,4.523,16.833,13.096c0.023,0.31,0.036,0.62,0.036,0.934c0,2.386-0.625,4.48-1.686,6.272   c1.544-0.353,3.022-0.471,4.152-0.473c1.136,0.004,2.64,0.124,4.207,0.482c-1.067-1.793-1.692-3.891-1.692-6.282   C52.788,50.279,52.801,49.969,52.824,49.659L52.824,49.659z M72.983,51.335c-0.862,1.585-3.36,2.968-6.331,3.354   c-2.944,0.383-5.47-0.335-6.41-1.667c1.043,0.209,2.348,0.3,3.805,0.251c-0.349-0.412-0.601-0.923-0.701-1.495   c-0.163-0.918,0.09-1.814,0.623-2.494c-1.997,0.67-3.846,1.436-5.481,2.259c0.633,4.194,5.425,7.451,11.244,7.451   c13.034-0.024,13.84-12.827,13.84-17.463c0-4.641-0.726,0.486-13.84,0.659c-5.183,0-9.554,2.587-10.894,6.118   c1.725-1.276,3.887-2.346,6.327-3.048c5.578-1.597,10.934-0.781,13.473,1.756c-3.019-0.237-6.943,0.16-11.15,1.23   c1.047,0.365,1.866,1.269,2.074,2.435c0.115,0.666,0.016,1.318-0.251,1.889C70.727,52.236,71.982,51.81,72.983,51.335   L72.983,51.335z M21.91,47.016c2.54-2.537,7.896-3.353,13.473-1.756c2.473,0.71,4.656,1.799,6.392,3.096   c-1.318-3.555-5.705-6.166-10.912-6.166c-13.114-0.173-13.838-5.3-13.838-0.659c0,4.636,0.804,17.438,13.838,17.463   c5.808,0,10.596-3.246,11.243-7.429c-1.647-0.832-3.511-1.605-5.525-2.281c0.533,0.68,0.784,1.576,0.624,2.494   c-0.101,0.572-0.352,1.083-0.703,1.495c1.457,0.049,2.761-0.042,3.805-0.251c-0.938,1.332-3.465,2.05-6.411,1.667   c-2.969-0.386-5.468-1.769-6.331-3.354c1,0.475,2.258,0.901,3.676,1.234c-0.268-0.57-0.369-1.223-0.251-1.889   c0.205-1.166,1.027-2.069,2.072-2.435C28.854,47.176,24.928,46.778,21.91,47.016L21.91,47.016z M38.058,79.739   c0.449-1.073,3.496-3.069,6.729-3.576c3.579-0.561,5.218,0.187,5.872,1.033c0.654-0.847,2.294-1.594,5.871-1.033   c3.286,0.516,6.379,2.568,6.75,3.627c-3.693-1.014-8.044-1.6-12.705-1.6C45.993,78.19,41.709,78.757,38.058,79.739L38.058,79.739z    M47.975,20.276l2.333,2.331l2.328-2.331c1.99-1.989,4.976,0.995,2.985,2.984l-2.331,2.331l2.33,2.331   c1.989,1.989-0.994,4.974-2.984,2.984l-2.328-2.331l-2.332,2.331c-1.989,1.989-4.973-0.995-2.983-2.984l2.329-2.331l-2.329-2.331   C43.002,21.271,45.985,18.287,47.975,20.276L47.975,20.276z M47.975,5.178l2.333,2.332l2.328-2.332   c1.99-1.99,4.976,0.995,2.985,2.985l-2.331,2.331l2.33,2.33c1.989,1.99-0.994,4.974-2.984,2.985l-2.328-2.331l-2.332,2.331   c-1.989,1.989-4.973-0.995-2.983-2.985l2.329-2.33l-2.329-2.331C43.002,6.173,45.985,3.188,47.975,5.178L47.975,5.178z"/>
</g>
</svg>