<svg xmlns="http://www.w3.org/2000/svg" xmlns:xlink="http://www.w3.org/1999/xlink" version="1.1" x="0px" y="0px" width="100px" height="100px" viewBox="0 0 100 100" enable-background="new 0 0 100 100" xml:space="preserve">
<g id="Calque_1">
</g>
<g id="Layer_1">
	<path d="M57.816,57.973c0-5.662-3.713-13.065-8.251-16.451L17.076,17.288c-4.539-3.385-8.252-1.522-8.252,4.14v36.197   c0,5.662,3.713,13.065,8.252,16.451L49.565,98.31c4.539,3.386,8.251,1.522,8.251-4.14V57.973z"/>
	<polygon points="26.89,18.187 29.753,20.322 26.89,18.187  "/>
	<path d="M79.539,15.329H63.606L52.863,0L30.972,15.329h-7.913l7.664,5.716L51.748,6.323l16.324,23.286H42.203l8.474,6.321h20.618   c1.504,0,2.724,1.22,2.724,2.724s-1.22,2.724-2.724,2.724H56.694c3.754,4.689,6.271,11.067,6.271,16.595v17.41h16.574   c2.832,0,5.148-2.316,5.148-5.147V20.476C84.688,17.645,82.371,15.329,79.539,15.329z"/>
</g>
</svg>