<svg xmlns="http://www.w3.org/2000/svg" xmlns:xlink="http://www.w3.org/1999/xlink" version="1.1" id="Layer_1" x="0px" y="0px" width="100.0px" height="100px" viewBox="0 0 512 512" enable-background="new 0 0 512 512" xml:space="preserve">
<path d="M255.912,503.354c-65.873,0-127.802-25.651-174.381-72.231C34.951,384.543,9.299,322.613,9.299,256.741  S34.951,128.939,81.531,82.36c46.579-46.579,108.508-72.231,174.381-72.231c65.872,0,127.801,25.652,174.379,72.231  c46.58,46.579,72.232,108.509,72.232,174.381s-25.652,127.802-72.232,174.381C383.713,477.702,321.783,503.354,255.912,503.354z   M255.912,39.94c-119.545,0-216.802,97.256-216.802,216.801c0,119.546,97.257,216.803,216.802,216.803  c119.545,0,216.801-97.257,216.801-216.803C472.713,137.196,375.457,39.94,255.912,39.94z"/>
<circle cx="100.54" cy="147.305" r="18.915"/>
<circle cx="339.679" cy="101.369" r="18.915"/>
<path d="M362.41,162.806c-8.568-51.903-263.58-8.181-254.608,42.03c8.973,50.211,72.51,84.567,142.817,72.961  C320.926,266.191,370.977,214.709,362.41,162.806z M207.455,268.227c-2.278-12.259,13.5-25.473,35.243-29.514  c21.74-4.041,41.214,2.621,43.492,14.879C288.469,265.852,209.734,280.486,207.455,268.227z M348.539,168.42  c-1.002,7.223-4.676,12.683-8.213,12.193l-6.395-0.885l2.023,0.414c1.947,0.397,2.674,4.895,1.621,10.042  c-1.053,5.148-3.488,8.998-5.436,8.6l-3.65-0.747c0.736,1.323,0.889,4.01,0.281,6.976c-0.818,4.01-2.715,7.006-4.234,6.696  l-13.064-2.675c-1.518-0.311-2.084-3.812-1.262-7.82c0.785-3.848,2.561-6.752,4.045-6.709c-1.072-1.595-1.334-5.194-0.514-9.197  c0.734-3.598,2.145-6.554,3.594-7.876l-7.445-1.031c-1.535-0.212-2.791-1.512-3.639-3.503c-1.09,2.212-2.576,3.59-4.244,3.622  l-30.143,0.576c-1.49,0.028-2.879-1.024-3.996-2.796c-0.787,2.794-2.209,4.686-4.049,4.936l-29.758,4.041  c-1.625,0.22-3.279-0.885-4.681-2.856c-0.573,2.473-1.691,4.154-3.232,4.46l-27.042,5.378c-1.64,0.326-3.429-0.969-4.969-3.287  c-0.225,2.363-1.053,4.075-2.473,4.606l-26.037,9.754c-1.245,0.467-2.746-0.054-4.258-1.289c0.139,2.794-0.564,4.944-2.146,5.734  l-2.121,1.058c1.649,1.068,3.561,3.446,5.048,6.503c1.572,3.229,2.261,6.368,1.97,8.311l1.622-0.789  c1.391-0.678,3.975,1.755,5.765,5.434c1.792,3.68,2.113,7.212,0.722,7.891l-11.992,5.836c-1.393,0.678-3.975-1.753-5.766-5.434  c-1.146-2.353-1.688-4.642-1.566-6.166l-5.226,2.543c-1.788,0.871-5.104-2.253-7.403-6.978c-1.43-2.934-2.128-5.794-2.025-7.75  l-5.188,2.587c-3.041,1.517-8.143-2.544-11.396-9.07c-3.255-6.526-3.428-13.046-0.389-14.561l26.163-13.047  c1.731-0.864,4.136,0.09,6.485,2.275c-0.4-3.979,0.436-7.066,2.437-7.816l26.038-9.753c2.274-0.852,5.397,1.546,7.894,5.69  c0.089-4.432,1.432-7.737,3.659-8.181l27.043-5.378c1.75-0.348,3.673,1.144,5.279,3.767c0.736-3.181,2.242-5.369,4.232-5.639  l29.762-4.04c2.033-0.276,4.111,1.518,5.682,4.507c1.008-4.061,3.027-6.835,5.408-6.881l30.141-0.575  c2.262-0.043,4.289,2.388,5.482,6.072c1.648-3.856,4.117-6.281,6.523-5.949l30.436,4.214  C347.48,154.944,349.537,161.196,348.539,168.42z"/>
</svg>