<svg xmlns="http://www.w3.org/2000/svg" xmlns:xlink="http://www.w3.org/1999/xlink" version="1.1" id="Layer_1" x="0px" y="0px" width="100px" height="100px" viewBox="0 0 100 100" enable-background="new 0 0 100 100" xml:space="preserve">
<path d="M7.657,51.805l-0.142,0.709c-0.041,0.204-0.062,0.41-0.062,0.612c0,1.718,1.397,3.114,3.114,3.114  c0.801,0,1.564-0.309,2.149-0.869l0.5-0.48l0.174,0.673c0.355,1.378,1.591,2.339,3.004,2.339c0.879,0,1.695-0.365,2.298-1.031  l0.489-0.539l0.203,0.7c0.383,1.329,1.608,2.257,2.978,2.257c0.93,0,1.807-0.425,2.407-1.164l0.453-0.559l0.244,0.676  c0.446,1.232,1.619,2.061,2.918,2.061c1.057,0,2.033-0.533,2.611-1.428l0.393-0.607l0.314,0.65c0.527,1.092,1.598,1.77,2.796,1.77  c1.057,0,2.033-0.534,2.612-1.428l0.392-0.607l0.314,0.65c0.527,1.092,1.598,1.769,2.796,1.769c1.057,0,2.033-0.534,2.611-1.429  l0.393-0.606l0.314,0.651c0.527,1.09,1.598,1.768,2.795,1.768c1.142,0,2.189-0.635,2.735-1.657l0.343-0.642l0.366,0.629  c0.569,0.973,1.572,1.555,2.679,1.555c1.174,0,2.236-0.661,2.771-1.725l0.326-0.648l0.383,0.617  c0.575,0.928,1.562,1.482,2.642,1.482c1.188,0,2.255-0.671,2.785-1.751l0.319-0.651l0.389,0.613  c0.576,0.907,1.557,1.449,2.622,1.449c0.314,0,0.612-0.061,0.898-0.146v-3.723c0,0-11.983,0.766-17.78,0.766  c-23.184,0-41.979-4.365-41.979-9.75l0.057,4.343c0.226-0.03,0.456-0.077,0.693-0.165L7.657,51.805z"/>
<path d="M84.88,54.466c1.396,0.863,2.609,0.872,3.756,0.123c0.779-0.508,1.283-1.342,1.381-2.288l0.075-0.715l0.574,0.434  c0.021,0.015,0.042,0.027,0.062,0.043v-2.7c-1.625,2.167-4.919,3.521-6.399,4.03l0.001,0.627l0.017-0.011L84.88,54.466z"/>
<path d="M90.711,53.007c-0.247,0.931-0.821,1.735-1.631,2.263c-1.266,0.824-2.842,0.945-4.748-0.17l0.031,24.26l-18.376-4.805  v-8.058l17.234,3.856v-6.229l-17.234-3.413v0.731c-0.272,0.062-0.606,0.096-0.898,0.096c-1.132,0-2.187-0.482-2.925-1.317  c-0.729,1.036-1.903,1.657-3.19,1.657c-1.149,0-2.215-0.496-2.955-1.353c-0.732,1.016-1.897,1.626-3.167,1.626  c-1.188,0-2.276-0.526-3.017-1.434c-0.735,0.969-1.877,1.549-3.106,1.549c-1.299,0-2.479-0.629-3.206-1.678  c-0.739,0.82-1.787,1.294-2.907,1.294c-1.3,0-2.48-0.63-3.208-1.678C36.668,61.025,35.621,61.5,34.5,61.5  c-1.3,0-2.48-0.63-3.207-1.68c-0.74,0.82-1.787,1.295-2.907,1.295c-1.428,0-2.734-0.791-3.42-2.02  c-0.716,0.645-1.636,1.006-2.603,1.006c-1.516,0-2.889-0.898-3.531-2.246c-0.693,0.559-1.538,0.859-2.437,0.859  c-1.577,0-2.978-0.947-3.592-2.367c-0.654,0.459-1.43,0.705-2.236,0.705c-2.165,0-3.927-1.762-3.927-3.927  c0-0.046,0-0.091,0.002-0.137c-0.117,0.024-0.232,0.022-0.348,0.035l0.279,21.291c4.919,8.512,35.614,10.932,59.412,8.868v-7.651  c0,0,18.239,4.744,18.449,4.688c2.571-0.688,4.587-1.96,6.292-2.826V53.015C90.723,53.012,90.717,53.01,90.711,53.007z"/>
<path d="M81.046,40.719V24.586l-1.625-0.812l-1.625,0.812v15.288c-3.611-0.833-7.876-1.513-12.594-2V22.148l-1.625-0.812  l-1.625,0.812v15.428c-4.022-0.324-8.323-0.509-12.797-0.532V21.539l-1.625-0.812l-1.625,0.812v15.515  c-4.415,0.056-8.646,0.271-12.594,0.619V22.148l-1.625-0.812l-1.625,0.812v15.846c-4.949,0.552-9.359,1.323-13,2.258V24.992  l-1.625-0.812l-1.625,0.812v16.21c-4.773,1.582-7.584,3.508-7.584,5.586c0,5.385,18.795,9.75,41.979,9.75  c5.797,0,16.341-0.766,16.341-0.766l-17.965-10.88l36.435,7.347c4.526-1.556,7.169-3.432,7.169-5.451  C90.187,44.494,86.762,42.385,81.046,40.719z"/>
<path d="M15.31,23.621c0.827,0,1.498-0.67,1.498-1.498s-0.762-1.041-1.473-4.24c-0.711,2.895-1.523,3.413-1.523,4.24  S14.483,23.621,15.31,23.621z"/>
<path d="M31.56,20.777c0.827,0,1.498-0.67,1.498-1.498s-0.762-1.041-1.473-4.24c-0.711,2.895-1.523,3.413-1.523,4.24  S30.733,20.777,31.56,20.777z"/>
<path d="M47.403,20.168c0.827,0,1.498-0.67,1.498-1.498s-0.762-1.041-1.473-4.24c-0.711,2.895-1.523,3.413-1.523,4.24  S46.577,20.168,47.403,20.168z"/>
<path d="M63.45,20.777c0.827,0,1.498-0.67,1.498-1.498s-0.762-1.041-1.473-4.24c-0.711,2.895-1.523,3.413-1.523,4.24  S62.623,20.777,63.45,20.777z"/>
<path d="M79.294,23.215c0.827,0,1.498-0.67,1.498-1.498s-0.762-1.041-1.473-4.24c-0.711,2.895-1.523,3.413-1.523,4.24  S78.467,23.215,79.294,23.215z"/>
</svg>