<?xml version="1.0" encoding="utf-8"?>
<!-- Generator: Adobe Illustrator 14.0.0, SVG Export Plug-In . SVG Version: 6.00 Build 43363)  -->
<!DOCTYPE svg PUBLIC "-//W3C//DTD SVG 1.0//EN" "http://www.w3.org/TR/2001/REC-SVG-20010904/DTD/svg10.dtd">
<svg version="1.0" id="Layer_1" xmlns="http://www.w3.org/2000/svg" xmlns:xlink="http://www.w3.org/1999/xlink" x="0px" y="0px"
	 width="100px" height="75.933px" viewBox="0 0 100 75.933" enable-background="new 0 0 100 75.933" xml:space="preserve">
<path d="M91.045,0H44.403c-2.016,0-3.87,0.674-5.368,1.799V1.798l-0.003,0.002C38.436,2.25,2.45,36.904,1.995,37.468L1.992,37.47
	l0,0C0.748,39.008,0,40.964,0,43.097v23.88c0,4.946,4.01,8.956,8.955,8.956h82.09c4.945,0,8.955-4.01,8.955-8.956V61.38V43.097
	v-13.06v-14.18V8.955C100,4.01,95.99,0,91.045,0z M87.005,65.832c0,2.062-1.672,3.731-3.733,3.731H71.204l-5.224-6.218H18.469
	c0,0-5.472-2.861-5.472-8.458c0-1.243,3.979-2.985,3.979-2.985h5.29l4.785,5.721l0,0l4.785-5.721h10.206l4.785,5.721l0,0
	l4.785-5.721H65.98l5.224-6.219h12.067c2.062,0,3.733,1.671,3.733,3.733V65.832z M94.837,39.149H8.147l35.191-33.93h51.498V39.149z"
	/>
<path d="M80.779,48.357c-1.236,0-2.239,1.002-2.239,2.239v14.055c0,1.236,1.003,2.239,2.239,2.239c1.237,0,2.238-1.003,2.238-2.239
	V50.596C83.018,49.359,82.017,48.357,80.779,48.357z"/>
</svg>
