<svg xmlns="http://www.w3.org/2000/svg" xmlns:xlink="http://www.w3.org/1999/xlink" version="1.1" id="Layer_1" x="0px" y="0px" width="100px" height="100px" viewBox="0 0 100 100" enable-background="new 0 0 100 100" xml:space="preserve">
<g>
	<path d="M92.913,7.087v61.004H7.086V7.087H92.913 M96.921,0H3.078C1.378,0,0,1.378,0,3.078V72.1c0,1.7,1.378,3.078,3.078,3.078   h93.843c1.701,0,3.078-1.378,3.078-3.078V3.078C99.999,1.378,98.622,0,96.921,0L96.921,0z"/>
</g>
<g>
	<path d="M55.724,54.294V33.5c0-0.541-0.438-0.979-0.979-0.979H37.13c-0.54,0-0.978,0.438-0.978,0.979v4.167   c0,0.54,0.438,0.978,0.978,0.978h7.69v15.649h-7.69c-0.54,0-0.978,0.438-0.978,0.979v4.167c0,0.54,0.438,0.979,1.147,0.979h25.737   c0.371,0,0.81-0.438,0.81-0.979v-4.167c0-0.541-0.438-0.979-0.979-0.979H55.724z"/>
	<circle fill-rule="evenodd" clip-rule="evenodd" cx="50.191" cy="22.118" r="6.771"/>
</g>
<g>
	<path d="M87.685,83.967c0,0.559-0.453,1.012-1.013,1.012H13.328c-0.559,0-1.012-0.453-1.012-1.012V80.32   c0-0.559,0.453-1.012,1.012-1.012h73.344c0.56,0,1.013,0.453,1.013,1.012V83.967z"/>
</g>
</svg>