<svg xmlns="http://www.w3.org/2000/svg" xmlns:xlink="http://www.w3.org/1999/xlink" version="1.1" id="Layer_1" x="0px" y="0px" width="60.0px" height="100px" viewBox="0 0 69 115" enable-background="new 0 0 69 115" xml:space="preserve">
<path fill="#000000" d="M55.408,5.776H11.83c-1.761,0-3.189,1.428-3.189,3.189v93.622c0,1.761,1.428,3.189,3.189,3.189h43.579  c1.761,0,3.189-1.428,3.189-3.189V8.965C58.597,7.204,57.169,5.776,55.408,5.776z M33.619,102.254c-3.369,0-6.1-2.731-6.1-6.1  s2.73-6.1,6.1-6.1c3.369,0,6.1,2.731,6.1,6.1S36.988,102.254,33.619,102.254z M54.647,86.012H12.591v-75.7h42.056V86.012z"/>
</svg>