<svg xmlns="http://www.w3.org/2000/svg" xmlns:xlink="http://www.w3.org/1999/xlink" version="1.1" id="Layer_2" x="0px" y="0px" width="87.791px" height="100px" viewBox="0 0 87.791 100" enable-background="new 0 0 87.791 100" xml:space="preserve">
<g>
	<g>
		<path fill="#000000" d="M85.346,77.026v-0.857l-0.605-0.656l-0.403-1.211l-1.666-1.413v-1.614L65.623,56.859    c-0.014,0.038-0.032,0.08-0.052,0.124l-6.65-5.623L36.493,32.396L35.685,0H1.876L1.573,0.177c0,0,0.227,0.479,0.303,0.681    C1.952,1.06,2.128,1.665,1.649,2.094C1.169,2.523,1.372,2.851,1.372,2.851s0.53,0.378,0.883,0.555    C2.608,3.583,2.986,5.5,2.986,6.055S2.532,8.149,2.28,9.033c-0.252,0.883,0.025,1.564,0.227,1.942    c0.202,0.379-1.11,2.801-1.11,2.801s-1.735,3.028-1.337,3.558c0.398,0.53,0.328,1.917,0.328,1.917l2.17,1.968v0.707    c0,0,2.069,2.17,1.968,2.347c-0.101,0.177,0.151,1.186,0.353,1.539c0.202,0.353-0.227,2.145-0.227,2.145v1.539    c0,0,0.454,1.64,0.808,2.145c0.353,0.505-0.151,1.716-0.151,1.716s-0.101,0.353,0,0.504c0.101,0.151,2.523,3.129,2.901,3.381    c0.378,0.252,2.397,2.447,2.397,2.447v0.833l0.58,0.277l0.53,1.009c0,0,0,0,0.025,0.142c1.741,1.112,0.039,0.221,0.076,0.439    c0.101,0.58-0.631,0.908-0.631,0.908v0.731l0.555-0.025c0,0,0.504-0.505,1.161,0.126c0.656,0.631,1.489,0.883,1.489,0.883    s0.479,0.858,1.009,1.009c0.53,0.151,0.176,2.246,0.176,2.246v0.984l0.6,0.883c0,0,0.182,0.151,0.056,0.865    c-0.126,0.713,0,1.533,0,1.533l1.64,1.816l1.312,1.082c0,0,0.227,0.229,1.312,0.028c1.085-0.202,0.984,0.757,0.984,0.757    l0.277,1.286l-0.53,1.287c0,0,0.202-0.706-0.656-0.228c-0.857,0.479,0.126,2.146,0.126,2.146v1.286c0,0,0.807,1.388,1.362,1.338    c0.555-0.051,1.64,2.169,1.64,2.169l0.656,0.151l0.177,1.136l0.328,0.253c0,0,0.833,0.555,0.958,1.135    c0.126,0.58-0.504,0.908,0.757,1.211c1.262,0.303,0.631-0.126,0.858,0.454c0.227,0.581,1.438,1.59,1.438,1.59l0.883,1.665    c-0.126,0.177,0,0.984,0,0.984l0.757,0.529l1.262,0.177c0,0,0.177,0.277,0.177,0.682c0,0.403-0.303,1.388-0.303,1.917    c0,0.53,1.312,0.328,0.656,0.53c-0.656,0.202-0.308,1.11-0.308,1.11s0.51-0.202,0.157,1.06s0,1.06,0,1.06s0.757-0.101,1.009,0.656    s1.009,0.605,1.009,0.605s0.858-0.151,2.019-0.303s2.725,0.454,2.725,0.454s3.078,0.353,3.331,0.353    c0.193,0,0.945,0.001,1.492,0.474c0.005,0.106,0.011,0.212,0.017,0.318c0.581,0.31,1.238,0.644,1.374,0.644    c0.252,0-0.354,0.757,1.564,0.252c1.918-0.504,2.221-0.151,2.221-0.151s1.16,1.716,0.908,2.069    c-0.253,0.354-0.151,0.857,0.101,0.857s0.605,0.505,1.161,0.556c0.555,0.05,0.555-0.908,0.555-0.908s0.303-0.505,1.06,0.151    c0.757,0.655,1.918,1.412,1.918,1.412s0.655,1.01,2.22,1.615s3.785,5.097,3.532,6.056c-0.252,0.958,0.202,0.958,0.202,0.958    s-0.202,0.505,0.605,0.909c0.808,0.403,0.252,2.472,0.959,1.715c0.706-0.757,21.193-2.068,23.161-3.986    c1.969-1.917-0.05-3.936-0.201-3.582c-0.151,0.353-1.767,0.504-1.262-0.404s0.101-1.614,0.101-1.614s-0.555-1.312-0.252-1.312    s0.656-0.857,0.808-1.262c0.151-0.403,0.201-1.109,0.201-1.109s0.051-1.515,0.404-1.413c0.353,0.101-1.564-0.908-0.303-2.423    c1.262-1.514-0.656-1.009,0.655-1.614c1.312-0.605,2.019-1.716,2.321-2.372C88.07,78.086,85.346,77.026,85.346,77.026z"/>
	</g>
</g>
</svg>