<svg xmlns="http://www.w3.org/2000/svg" xmlns:xlink="http://www.w3.org/1999/xlink" version="1.1" id="Layer_1" x="0px" y="0px" width="100px" height="100px" viewBox="0 0 100 100" enable-background="new 0 0 100 100" xml:space="preserve">
<g>
	<path d="M51.965,77.06c-4.617-1.276-5.5-3.712-5.5-3.712s-0.461-1.174-0.375-2.083c0.762,0.081,1.274,0.02,1.35-0.235   c0.048-0.169,0.47-1.665,1.028-3.658h0.001c1.185-4.217,2.981-10.64,3.126-11.345c0.174-0.851,0.007-1.457-0.158-2.104   c-0.429-1.929-4.558-2.434-4.558-2.434c-3.29-0.529-5.823-0.803-12.839-0.834c-0.336,0.236-0.778,0.581-1.347,1.085   c-1.963,1.739-6.053,2.816-8.176,2.856c0.272,0.696,0.724,1.339,1.428,1.874c0.258,0.196,0.524,0.376,0.806,0.538   c-0.079,0.262-0.021,0.563,0.263,0.798c1.146,0.94,3.486,2.095,7.349,1.058l0.168-0.043c0.865-0.234,1.827-0.51,2.786-0.793   c1.631-0.188,3.454-0.461,5.505-0.812c0.336-0.058,3.021-0.891,2.885,0.062c-0.18,2.489-3.018,7.526-4.516,10.087h-0.002   c-0.473,0.803-0.812,1.359-0.894,1.517c-0.096,0.316,0.737,0.866,2.005,1.377c-0.369,0.952-0.801,2.073-0.894,2.348   c-0.169,0.499-0.88,1.608-0.757,2.754c0.101,0.938,0.142,1.23,0.142,1.23l2.577,0.577l0.116-0.975c0,0,1.537,1.513,2.736,1.817   c1.198,0.306,3.953,0.421,5.441,0.399C53.151,78.386,53.951,77.608,51.965,77.06z M43.633,70.728   c-0.332-0.102-0.649-0.21-0.948-0.32l1.532-3.04l3.247-6.438l-1.094,6.438l-0.654,3.848C45.11,71.125,44.392,70.96,43.633,70.728z"/>
	<path d="M40.341,77.003c0,0-0.089-0.641-0.19-1.591c-0.134-1.241,0.411-1.881,0.779-2.966c0.034-0.103,0.114-0.318,0.221-0.598   c-0.973-1.784-2.305-3.303-3.877-4.481v-0.002c-1.86-1.398-4.053-2.331-6.385-2.679l0.129-2.164l11.951-4.855l-0.237,0.046   c-1.905,0.367-4.269,0.799-6.688,1.008c-0.75,0.218-1.486,0.425-2.159,0.606c-3.609,0.967-5.769-0.244-6.731-1.036   c-1.57-1.288-6.962,2.16-12.87,5.646c-5.131,3.031,10.179-0.372,14.298-1.318l-0.114,1.92c-1.086,0.027-2.186,0.184-3.282,0.478   c-1.799,0.482-3.421,1.292-4.823,2.351h-0.001c-4.433,3.345-6.635,9.16-5.108,14.854c1.221,4.559,4.55,7.988,8.656,9.525h9.824   c5.886-2.188,9.558-8.022,9.102-14.185L40.341,77.003z M29.953,72.272l0.485,0.029l0.227-3.831   c3.372,0.617,6.312,2.907,7.663,6.206l-4.93,1.679c-0.696-1.433-2.015-2.435-3.523-2.76L29.953,72.272z M31.48,88.513   c-5.483,1.471-11.12-1.784-12.589-7.269c-1.47-5.482,1.785-11.119,7.268-12.588c0.695-0.186,1.392-0.296,2.082-0.337l-0.228,3.84   l0.485,0.027l-0.078,1.31c-0.312,0.022-0.628,0.077-0.943,0.16c-2.729,0.732-4.347,3.534-3.616,6.264   c0.73,2.728,3.535,4.346,6.263,3.616c2.572-0.69,4.158-3.22,3.718-5.793l4.941-1.682C40.163,81.5,36.918,87.055,31.48,88.513z"/>
	<path d="M48.581,69.296c-0.063,0.059-0.126,0.121-0.184,0.186l-0.472,1.673c-0.067,0.216-0.193,0.362-0.354,0.46   c0,0.387,0.069,0.78,0.218,1.164c0.63,1.643,2.451,2.474,4.071,1.853c0.159-0.062,11.081-4.55,11.305-4.679   c1.133-0.474,1.858-1.497,1.936-2.581h0.001c0-0.001,0-0.002,0-0.003v-0.001c0.024-0.378-0.026-0.76-0.168-1.129   c-0.561-1.461-2.304-2.151-3.894-1.541l-7.796,2.67l-3.354,1.147C49.298,68.709,48.877,68.982,48.581,69.296z M52.165,71.286   c0.197,0.731-0.238,1.481-0.969,1.678c-0.73,0.195-1.482-0.238-1.679-0.969c-0.195-0.73,0.239-1.481,0.97-1.678   C51.217,70.121,51.969,70.555,52.165,71.286z"/>
	<path d="M56.953,56.571c0.017,0.094,0.087,0.177,0.218,0.182l3.487,0.12l0.095,0.005l3.485,0.123   c0.127,0.004,0.204-0.074,0.225-0.17c0.029-0.125-0.039-0.277-0.277-0.285l-3.422-0.119l-0.093-0.003l-3.483-0.121   C57.014,56.295,56.936,56.44,56.953,56.571z"/>
	<polygon points="32.232,50.721 32.264,51.34 32.597,50.83 33.183,51.006 32.8,50.517 33.128,50.012 32.563,50.214 32.18,49.725    32.212,50.339 31.641,50.544  "/>
	<path d="M63.826,56.178l0.498,0.016l0.055-1.568c0.01-0.262-0.203-0.48-0.474-0.488l-1.9-0.068l-2.488-0.086l-1.9-0.066   c-0.27-0.01-0.498,0.194-0.505,0.456l-0.055,1.569l0.498,0.019L63.826,56.178z"/>
	<path d="M56.811,57.635l3.817,0.133l0.093,0.004l3.815,0.134c0.301,0.011,0.317-0.441,0.018-0.452l-3.817-0.133l-0.095-0.004   l-3.814-0.134C56.526,57.172,56.51,57.625,56.811,57.635z"/>
	<path d="M35.654,64.305c0.466,1.736,2.711,2.694,5.299,2.403c1.304-2.252,2.982-5.148,3.789-7.482   c-1.223-0.458-2.822-0.523-4.463-0.085C37.183,59.973,35.112,62.283,35.654,64.305z"/>
	<path d="M22.418,36.646c1.606-1.789,3.479-3.27,5.99-3.685c1.117-0.189,2.096-0.229,2.949-0.164   c-2.288-1.32-5.817-1.937-10.845,0.97c-9.479,5.48-15.954,6.611-20.279,6.073c0.4,0.156,0.788,0.389,1.158,0.686   c8.301-0.281,13.919-3.711,13.919-3.711s-4.622,3.368-13.219,4.378c0.267,0.295,0.545,0.662,0.82,1.084   c11.076-1.706,16.282-6.426,16.282-6.426s-4.232,6.179-14.863,9.246c0.624,1.625,1.032,3.465,0.923,5.156   C13.367,49.214,21.626,37.525,22.418,36.646z"/>
	<path d="M55.274,59.561l-2.591,1.378l-0.083,0.045l-2.141,1.138l-0.168,0.602l2.521-1.343l0.083-0.043l2.592-1.378   C55.753,59.817,55.541,59.419,55.274,59.561z"/>
	<polygon points="26.429,51.696 26.003,50.457 25.677,51.693 24.472,51.689 25.478,52.452 25.156,53.676 26.103,52.928    27.118,53.698 26.692,52.461 27.653,51.7  "/>
	<polygon points="29.346,51.883 29.391,52.768 29.865,52.039 30.703,52.29 30.156,51.591 30.625,50.871 29.817,51.159    29.271,50.459 29.315,51.339 28.5,51.63  "/>
	<path d="M63.608,59.212l-2.934-0.103l-0.096-0.005l-2.932-0.102c-0.301-0.01-0.316,0.44-0.018,0.45l2.933,0.104l0.097,0.003   l2.932,0.102C63.892,59.673,63.909,59.222,63.608,59.212z"/>
	<path d="M55.521,61.455l-1.998,1.063l-0.085,0.043l-1.995,1.063c-0.266,0.141-0.055,0.538,0.212,0.398l1.998-1.063l0.083-0.043   l1.998-1.062C55.999,61.713,55.788,61.314,55.521,61.455z"/>
	<path d="M55.387,58.486l-3.122,1.662l-0.084,0.044l-1.392,0.738l-0.167,0.603l1.77-0.941l0.085-0.045l3.124-1.66   C55.864,58.745,55.653,58.346,55.387,58.486z"/>
	<path d="M56.385,63.081l-4.079,2.168c-0.265,0.143-0.052,0.541,0.213,0.398l4.079-2.169C56.864,63.338,56.651,62.938,56.385,63.081   z"/>
	<path d="M55.954,62.269l-4.079,2.168c-0.266,0.141-0.055,0.541,0.212,0.398l4.078-2.169C56.432,62.526,56.219,62.127,55.954,62.269   z"/>
	<path d="M53.103,61.729l-0.082,0.042l-2.251,1.198c-0.267,0.143-0.055,0.541,0.212,0.399l2.252-1.197l0.083-0.044l2.251-1.197   c0.268-0.142,0.054-0.541-0.211-0.4L53.103,61.729z"/>
	<path d="M54.444,56.962l-3,1.595l-0.164,0.6l0.272-0.145l0.084-0.045l3.079-1.637c0.113-0.062,0.14-0.167,0.109-0.26   C54.789,56.947,54.654,56.851,54.444,56.962z"/>
	<path d="M55.215,57.565l-3.371,1.793l-0.083,0.045l-0.643,0.34l-0.164,0.6l1.019-0.542l0.084-0.044l3.369-1.793   C55.692,57.823,55.481,57.425,55.215,57.565z"/>
	<path d="M52.995,55.016l-0.828,0.44c-0.007,0.211-0.032,0.431-0.081,0.67c-0.044,0.212-0.234,0.936-0.514,1.962l2.375-1.264   l0.439-0.234l-0.735-1.389C53.527,54.972,53.234,54.888,52.995,55.016z"/>
	<path d="M52.73,66.044c-0.267,0.143-0.055,0.542,0.21,0.399l4.079-2.169c0.267-0.142,0.055-0.539-0.212-0.399L52.73,66.044z"/>
	<path d="M62.809,62.814l-4.617-0.16c-0.301-0.012-0.316,0.44-0.016,0.45l4.617,0.161C63.093,63.276,63.11,62.825,62.809,62.814z"/>
	<path d="M62.842,61.896l-4.618-0.161c-0.3-0.009-0.316,0.44-0.017,0.452l4.618,0.16C63.126,62.356,63.142,61.905,62.842,61.896z"/>
	<path d="M62.776,63.716l-4.615-0.163c-0.302-0.009-0.315,0.443-0.015,0.453l4.614,0.16C63.062,64.177,63.077,63.726,62.776,63.716z   "/>
	<path d="M62.874,60.975l-2.263-0.077l-0.093-0.004l-2.263-0.08c-0.3-0.01-0.316,0.442-0.015,0.452l2.259,0.079l0.096,0.003   l2.261,0.078C63.157,61.438,63.173,60.987,62.874,60.975z"/>
	<path d="M64.238,58.338l-3.532-0.123l-0.096-0.004l-3.533-0.123c-0.302-0.011-0.316,0.439-0.015,0.45l3.532,0.123l0.096,0.005   l3.535,0.122C64.526,58.8,64.541,58.349,64.238,58.338z"/>
	<path d="M63.192,60.093l-2.549-0.09L60.549,60L58,59.909c-0.302-0.009-0.316,0.442-0.017,0.452l2.55,0.09l0.095,0.002l2.549,0.09   C63.477,60.554,63.493,60.103,63.192,60.093z"/>
	<path d="M99.098,59.754c-1.905-7.102-9.204-11.317-16.307-9.414c-1.853,0.497-3.513,1.362-4.916,2.498l-1.604-1.64l-0.347,0.34   l-3.355-3.43c0.029-0.281-0.062-0.583-0.327-0.854l-1.163-1.191c-0.266-0.269-0.567-0.366-0.848-0.345l-3.414-3.485   c0.029-0.282-0.062-0.585-0.326-0.854l-0.586-0.599c-0.074-0.091-0.23-0.283-0.463-0.53c-0.262-0.279-0.564-0.382-0.852-0.362   c-2.564-2.41-6.217-3.33-9.506-0.932l-0.253,0.184c-0.271-0.176-0.543-0.355-0.766-0.538c-0.422-0.296-1.572,1.021-2.812,1.714   c-0.298-0.281-0.555-0.446-1.068-0.335c0,0-4.593,1.12-9.243,1.509c-0.984,0.082-3.438-2.819-5.167-5.048   c0.408,0.104,0.782,0.166,1.108,0.172c0.417,0.02,0.564-0.12,0.42-0.275c-1.184-2.119,1.03-2.542-1.082-3.43   c1.424,0.401,2.693,0.702,3.369,0.752c0.778,0.058,1.739-2.355,1.023-2.603c-0.186-0.065-0.377-0.117-0.569-0.165   c-0.043-0.075-0.123-0.102-0.12-0.125c0.014-0.096,0.355-0.143,0.317-0.288c-0.032-0.119-0.14-0.434-0.168-0.556   c-0.062-0.268,1.005-0.146,0.86-0.507c-0.103-0.258-0.589-1.207-0.76-1.525c-0.261-0.487-0.158-0.649,0.062-0.957   c0.063-0.089-0.011-0.277-0.085-0.452l1.161,0.269c0,0,0.116,0.036,0.213-0.012c0.077-0.039,0.087-0.188,0.087-0.188   c0.093-3.812-2.119-5.336-5.661-5.778c-3.881-0.483-7.309,1.533-7.392,5.716c-0.024,1.221,0.398,2.37,0.858,3.487   c-0.631-0.325-0.647,0.326-0.647,0.326s0.063,0.303-0.75,0.918l-0.114,0.091c3.96,0.476,6.506,2.99,7.513,4.348   c-0.759-0.903-2.672-2.448-6.849-1.74c-0.98,0.161-1.859,0.508-2.667,0.995c-1.808,5.982-1.26,14.188-1.26,14.188   c-0.069,0.296-0.142,0.612-0.208,0.944l1.271,0.052c3.578,0.135,7.735-1.164,8.741-0.9c0.421-1.334,0.738-3.394,0.968-5.427   c-2.081-2.547-4.589-5.847-4.589-5.847c-0.189-0.253-0.344-0.505-0.467-0.751l6.034,6.234c2.138,2.192,2.707,1.731,14.133,0   c0.447-0.069,0.699-0.299,0.861-0.535c-0.371-0.26-0.515-0.857-0.018-1.209c0,0,0.242-0.172,0.507-0.377   c0.767-0.596,1.659,0.555,0.894,1.151l-0.275,0.208c0.956,0.322,0.829,0.021,1.574-0.37c0.489-0.258,1.587-1.109,1.925-1.419   c-0.17,0.245-0.325,0.493-0.463,0.737c-0.215,0.057-0.342,0.278-0.285,0.492c0.057,0.216,0.278,0.343,0.492,0.285   s0.342-0.279,0.264-0.553c0.634-1.164,2.054-2.409,3.539-2.766c1.489,0.108,2.892,0.834,3.996,1.841   c-0.027,0.246,0.037,0.507,0.226,0.752c-0.464,0.091-0.755,0.495-0.243,1.081c0.123,0.141,0.217,0.264,0.217,0.264l1.118,1.142   l-1.902,0.794l-0.073-0.173c-0.836-1.933-1.361-3.172-8.829,0.303c-3.594,1.67-6.048,3.823-7.706,5.838l0.61,0.097   c1.513,0.196,4.552,0.944,4.97,2.82l0.05,0.194l12.167-4.943l0.074,0.074c0.308,2.517,1.059,9.43,1.214,18.23   c0.001,0.051,0.002,0.103,0.003,0.153c0.083,5.007-11.514,7.493-15.587,8.212c0.754,0.367,1.541,0.646,2.251,0.843   c0.137,0.036,0.266,0.079,0.384,0.123c2.335-0.546,4.801-1.244,5.148-1.358c4.263-1.392,9.327-3.815,9.261-7.844   c0-0.044-0.002-0.088-0.005-0.129v-0.003c-0.162-9.381-1.001-16.644-1.273-18.802l2.555-1.049l1.518,1.551   c0.401,0.412,0.93,0.223,1.154-0.143c0.22,0.164,0.461,0.224,0.688,0.207l3.355,3.428l-0.348,0.339l1.598,1.634   c-2.759,3.223-3.936,7.707-2.753,12.114c0.065,0.244,0.136,0.483,0.214,0.724h0.002c2.188,6.662,9.23,10.528,16.089,8.691   c4.496-1.205,7.836-4.575,9.197-8.689h0.001C99.671,64.988,99.796,62.356,99.098,59.754z M30.319,30.12   c-0.232-0.56-0.472-1.127-0.657-1.706c-0.21-0.652-0.338-1.281-0.324-1.91c0.07-3.584,2.946-5.403,6.518-4.959   c3.073,0.383,4.802,1.524,4.971,4.297l-1.147-0.267c-4.972-1.092-5.23,4.571-0.456,5.909c0.283,0.08,0.578,0.141,0.862,0.222   c-0.023,0.128-0.071,0.297-0.145,0.479c-0.101,0.258-0.232,0.482-0.412,0.688C37.758,32.683,32.322,30.968,30.319,30.12z    M56.275,40.474c0.012-0.142-0.065-0.287-0.202-0.434c0.399-0.274,0.801-0.488,1.204-0.646   C56.909,39.715,56.574,40.086,56.275,40.474z M95.4,67.367c-1.202,2.642-3.535,4.744-6.556,5.554   c-4.826,1.293-9.771-1.147-11.768-5.554h-0.003c-0.226-0.497-0.411-1.02-0.559-1.562c-0.865-3.235-0.056-6.524,1.9-8.943   l5.294,5.409c-0.182,0.504-0.222,1.067-0.071,1.626c0.386,1.434,1.86,2.287,3.297,1.902c1.435-0.386,2.288-1.861,1.901-3.297   c-0.385-1.435-1.859-2.287-3.35-1.887l-5.327-5.443c1.008-0.763,2.177-1.348,3.473-1.695c5.371-1.438,10.888,1.748,12.328,7.118   C96.589,62.94,96.334,65.316,95.4,67.367z"/>
</g>
</svg>