<svg xmlns="http://www.w3.org/2000/svg" xmlns:xlink="http://www.w3.org/1999/xlink" version="1.1" id="Layer_1" x="0px" y="0px" width="99px" height="80.027px" viewBox="24.486 2.409 99 80.027" enable-background="new 24.486 2.409 99 80.027" xml:space="preserve">
<path fill="#000000" d="M52.593,68.231c2.349,0,4.25,1.903,4.25,4.252c0,2.346-1.901,4.246-4.25,4.246  c-2.345,0-4.246-1.9-4.246-4.246C48.347,70.135,50.248,68.231,52.593,68.231z"/>
<path fill="#000000" d="M52.589,62.634c-5.44,0-9.852,4.412-9.852,9.857c0,5.442,4.411,9.854,9.852,9.854  c5.443,0,9.857-4.411,9.857-9.854C62.446,67.048,58.032,62.634,52.589,62.634z M52.589,78.229c-3.162,0-5.736-2.575-5.736-5.738  c0-3.164,2.575-5.742,5.736-5.742c3.168,0,5.742,2.578,5.742,5.742C58.331,75.654,55.757,78.229,52.589,78.229z"/>
<g id="XMLID_4_">
	<g>
		<polygon fill="#000000" points="36.358,19.783 35.069,50.283 32.548,50.179 33.829,19.679   "/>
	</g>
</g>
<g id="XMLID_3_">
	<g>
		<polygon fill="#000000" points="32.316,19.631 31.028,50.115 28.507,50.011 29.795,19.527   "/>
	</g>
</g>
<g id="XMLID_1_">
	<g>
		<polygon fill="#000000" points="28.299,19.455 27.01,49.938 24.489,49.827 25.778,19.351   "/>
	</g>
</g>
<g id="XMLID_2_">
	<g>
		<polygon fill="#000000" points="36.334,50.331 37.623,19.823 105.425,22.712 87.29,52.476   "/>
	</g>
</g>
<g id="XMLID_5_">
	<g>
		<polygon fill="#000000" points="96.533,52.852 114.637,23.08 118.454,23.256 117.166,53.748   "/>
	</g>
</g>
<g id="XMLID_7_">
	<g>
		<polygon fill="#000000" points="89.066,65.425 94.101,56.909 109.955,56.909 109.955,72.46 96.365,72.46   "/>
	</g>
</g>
<g id="XMLID_6_">
	<g>
		<path fill="#000000" d="M36.342,72.46V56.909h48.211l-3.354,5.475c-0.984,1.729-1.744,4.417,0.568,6.402l4.042,3.674H63.873    c0-6.211-5.042-11.237-11.261-11.237c-6.234,0-11.269,5.026-11.269,11.237H36.342z"/>
	</g>
</g>
<g id="XMLID_8_">
	<g>
		<path fill="#000000" d="M82.44,64.04l36.366-60.392c0.504-0.616,1.561-1.857,3.457-0.864c1.232,0.576,1.568,2.104,0.856,3.457    L87.186,65.608l13.334,13.086c0,0,1.408,1.473,0,3.104c-1.497,1.44-3.153,0-3.153,0L83,67.682    C82.063,66.801,81.487,65.721,82.44,64.04z"/>
	</g>
</g>
</svg>