<svg xmlns="http://www.w3.org/2000/svg" xmlns:xlink="http://www.w3.org/1999/xlink" version="1.1" id="Layer_1" x="0px" y="0px" width="100px" height="90.9090909091px" viewBox="0 0 110 100" enable-background="new 0 0 110 100" xml:space="preserve">
<path d="M52.501,54.307C52.475,54.993,52.501,54.307,52.501,54.307c-0.359,9.396-1.151,26.995-1.666,34.314  c-0.468,6.66,0.403,9.781,3.671,9.828v0.001c0.006,0,0.011-0.001,0.016-0.001c0.006,0,0.011,0.001,0.016,0.001v-0.001  c3.27-0.047,4.141-3.168,3.672-9.828c-0.515-7.319-1.011-28.798-1.011-34.826l-0.066-5.182c-0.14-7.193,0.041-43.278,0.041-45.137  c0-2.139-2.086-2.994-4.004-0.029c0,0-4.693,5.731-4.693,31.535c0,8.91,4.076,5.488,4.076,13.971  C52.553,48.953,52.544,53.164,52.501,54.307z"/>
<path d="M35.584,52.168L35.584,52.168c-0.076-1.974-0.132-3.488-0.162-4.339c0.113-4.011,0.498-4.243,1.614-5.719  c2.423-3.208,3.182-2.174,2.887-8.233c0,0-1.448-19.3-3.107-19.3c-1.131,0,1.483,20.634,0.358,20.634  c-0.88,0-1.076-1.783-1.63-15.699c-0.063-1.588-0.648-7.874-1.27-3.131c-0.229,1.756,0.528,18.808-0.71,18.808  c-1.608,0-0.481-17.052-0.71-18.808c-0.621-4.743-1.207,1.543-1.27,3.131c-0.554,13.916-0.75,15.699-1.63,15.699  c-1.125,0,1.489-20.634,0.357-20.634c-1.659,0-3.107,19.3-3.107,19.3c-0.295,6.06,0.463,5.025,2.887,8.233  c1.115,1.476,1.501,1.708,1.613,5.719c-0.03,0.851-0.086,2.365-0.162,4.339l0,0c-0.358,9.396-1.151,29.134-1.666,36.454  c-0.469,6.659,0.403,9.78,3.671,9.827v0.001c0.005,0,0.01-0.001,0.016-0.001s0.01,0.001,0.016,0.001v-0.001  c3.268-0.047,4.14-3.168,3.671-9.827C36.735,81.302,35.943,61.564,35.584,52.168z"/>
<path d="M77.262,62.877c-0.076-1.974-0.132-3.488-0.162-4.339c0.112-4.012,0.498-4.243,1.614-5.719  c0.25-0.331,0.48-0.613,0.695-0.866c2.076-2.413,3.448-4.435,3.448-9.165c0-7.46-3.41-10.941-7.617-10.941  s-7.617,3.481-7.617,10.942c0,4.734,1.375,6.76,3.455,9.172c0.213,0.251,0.441,0.53,0.689,0.858c1.115,1.476,1.5,1.707,1.613,5.719  c-0.03,0.851-0.087,2.365-0.162,4.339c-0.358,9.396-1.15,18.44-1.665,25.761c-0.469,6.659,0.402,9.78,3.671,9.827v0.001  c0.006,0,0.011-0.001,0.016-0.001s0.011,0.001,0.016,0.001v-0.001c3.269-0.047,4.14-3.168,3.672-9.827  C78.413,81.317,77.621,72.273,77.262,62.877z"/>
</svg>