<svg xmlns="http://www.w3.org/2000/svg" xmlns:xlink="http://www.w3.org/1999/xlink" version="1.1" id="&#1057;&#1083;&#1086;&#1081;_1" x="0px" y="0px" width="100px" height="100px" viewBox="0 0 100 100" enable-background="new 0 0 100 100" xml:space="preserve">
<g>
	<path d="M93.473,19.808l-0.121-2.229l1.252-0.06C97.301,17.374,99,17.294,100,17.266v-2.008c0,0-87.968,3.084-87.968,18.785   c0,15.699,33.588,33.737,33.433,42.737C45.249,89.027,11.313,95,0.099,99h44.515c1.339-1,2.815-1.641,4.516-2.619l0.966-0.463   l1.113,1.98l-0.968,0.396C49.727,98.589,49.239,99,48.765,99h31.332c0,0,15.591-8.984,15.233-22.398   c-0.448-16.711-55.191-33.709-54.953-42.424C40.629,25.006,100,21.984,100,21.984V19.5c-1,0.032-2.707,0.109-5.276,0.248   L93.473,19.808z M28.988,42.236l-0.646-0.91c-2.03-2.86-3.017-5.472-3.017-7.985c0-1.406,0.7-2.729,2.082-3.934l0.841-0.734   l1.467,1.682l-0.841,0.733c-0.874,0.762-1.316,1.52-1.316,2.252c0,2.006,0.876,4.258,2.605,6.694l0.646,0.91L28.988,42.236z    M67.396,88.024c-2.809,2.599-6.474,4.67-9.985,6.57l-0.982,0.53l-1.061-1.964l0.981-0.53c3.388-1.831,6.913-3.822,9.532-6.245   l0.818-0.758l1.516,1.638L67.396,88.024z M66.639,68.916l0.845,0.729c3.519,3.043,5.088,5.313,5.088,7.36   c-0.022,1.326-0.192,2.546-0.503,3.689l-0.292,1.077l-2.154-0.586l0.293-1.077c0.262-0.965,0.404-2,0.423-3.077   c0.001-0.911-0.748-2.613-4.314-5.698l-0.844-0.729L66.639,68.916z M50.316,57.262l3.842,2.643   c2.381,1.631,4.629,3.173,6.736,4.675l0.908,0.648l-1.297,1.817l-0.908-0.647c-2.09-1.491-4.33-3.026-6.701-4.652L49.05,59.1   L50.316,57.262z M44.557,53.175l0.901,0.66l-1.318,1.801l-0.901-0.658c-3.781-2.765-6.799-5.194-9.227-7.426l-0.822-0.755   l1.511-1.644l0.821,0.755C37.888,48.083,40.843,50.46,44.557,53.175z M47.013,24.865c-4.467,0.867-8.243,1.812-11.223,2.809   l-1.059,0.354l-0.708-2.116l1.059-0.354c3.072-1.028,6.943-1.998,11.506-2.884l1.095-0.212l0.425,2.191L47.013,24.865z    M66.637,21.999c-4.145,0.461-8.042,0.964-11.582,1.495l-1.104,0.166l-0.332-2.207l1.104-0.166   c3.567-0.536,7.493-1.042,11.667-1.506l1.109-0.124l0.246,2.219L66.637,21.999z M86.441,20.248c-4,0.276-7.924,0.588-11.664,0.93   l-1.111,0.102l-0.202-2.223l1.111-0.102c3.756-0.343,7.696-0.657,11.713-0.934l1.112-0.077l0.154,2.227L86.441,20.248z"/>
</g>
</svg>