<svg xmlns="http://www.w3.org/2000/svg" xmlns:xlink="http://www.w3.org/1999/xlink" version="1.1" baseProfile="tiny" x="0px" y="0px" width="100px" height="77.7777777778px" viewBox="0 0 315 245" overflow="inherit" xml:space="preserve">
<g id="Ebene_1">
</g>
<g id="Ebene_2">
	<g>
		<path d="M119.645,66.321c-7.064-7.063-16.456-10.954-26.445-10.954s-19.381,3.89-26.444,10.954    c-7.064,7.063-10.954,16.455-10.954,26.444c0,9.99,3.89,19.381,10.954,26.445c7.063,7.063,16.455,10.954,26.444,10.954    s19.381-3.89,26.445-10.954c7.063-7.063,10.954-16.455,10.954-26.445C130.599,82.776,126.708,73.385,119.645,66.321z     M93.2,123.181c-16.798,0-30.416-13.617-30.416-30.416c0-16.798,13.618-30.416,30.416-30.416    c16.798,0,30.416,13.618,30.416,30.416C123.616,109.564,109.999,123.181,93.2,123.181z"/>
		<path d="M45.868,96.058c-0.156-2.269-0.15-4.568,0.018-6.833l0.083-1.122L22.217,88.04c-2.496,0-4.532,2.031-4.539,4.527    c-0.003,1.212,0.466,2.354,1.321,3.213c0.855,0.859,1.994,1.334,3.206,1.337l23.741,0.063L45.868,96.058z"/>
		<path d="M140.532,89.474c0.157,2.267,0.151,4.566-0.018,6.833l-0.083,1.122l23.742,0.063h0.01c1.209,0,2.347-0.469,3.202-1.321    c0.859-0.854,1.335-1.993,1.339-3.207c0.006-2.503-2.025-4.544-4.527-4.551l-23.741-0.062L140.532,89.474z"/>
		<path d="M57.24,123.718l-0.734-0.853l-16.832,16.743c-1.774,1.765-1.781,4.645-0.017,6.418c0.858,0.863,2.001,1.338,3.218,1.338    l0,0c1.208,0,2.344-0.469,3.201-1.321l16.831-16.743l-0.848-0.739C60.342,127.065,58.72,125.436,57.24,123.718z"/>
		<path d="M129.162,61.814l0.734,0.852l16.831-16.743c0.859-0.855,1.334-1.994,1.338-3.206c0.003-1.211-0.466-2.353-1.321-3.213    c-0.858-0.862-2.001-1.337-3.218-1.337c-1.208,0-2.344,0.469-3.2,1.321L123.494,56.23l0.848,0.739    C126.054,58.461,127.676,60.091,129.162,61.814z"/>
		<path d="M89.66,140.08l-1.123-0.084l-0.063,23.742c-0.006,2.501,2.025,4.543,4.528,4.551h0.01c0,0,0,0,0,0    c2.496,0,4.533-2.031,4.539-4.528l0.063-23.74l-1.122,0.077C94.224,140.254,91.918,140.248,89.66,140.08z"/>
		<path d="M96.743,45.452l1.122,0.083l0.062-23.741c0.003-1.212-0.466-2.354-1.32-3.212c-0.855-0.86-1.994-1.335-3.218-1.338    c-2.496,0-4.532,2.031-4.539,4.527l-0.062,23.74l1.122-0.077C92.172,45.278,94.478,45.284,96.743,45.452z"/>
		<path d="M146.479,139.891l-16.742-16.832l-0.739,0.848c-1.498,1.718-3.128,3.339-4.845,4.82l-0.852,0.734l16.742,16.832    c0.859,0.863,2.001,1.337,3.218,1.337c1.208,0,2.344-0.469,3.201-1.321C148.237,144.544,148.244,141.664,146.479,139.891z"/>
		<path d="M56.665,62.473l0.739-0.848c1.493-1.713,3.123-3.334,4.845-4.819l0.852-0.734L46.358,39.24    c-0.855-0.86-1.994-1.335-3.218-1.338c-1.208,0-2.344,0.469-3.201,1.321c-1.774,1.765-1.782,4.644-0.017,6.419L56.665,62.473z"/>
		<path d="M298.421,94.407c-1.704-1.705-4.468-1.705-6.172,0l-82.39,82.389v-46.319c0-0.134-0.008-0.267-0.02-0.398l29.5-29.5    c1.704-1.705,1.704-4.468,0-6.172c-1.704-1.705-4.468-1.705-6.172,0l-88.188,88.188c-1.704,1.704-1.704,4.468,0,6.172    c0.852,0.853,1.969,1.278,3.086,1.278s2.234-0.426,3.086-1.278l49.979-49.979v86.689c0,2.41,1.954,4.364,4.364,4.364    s4.364-1.954,4.364-4.364v-36.38c0.129-0.103,0.254-0.211,0.373-0.33l49.979-49.979v86.689c0,2.41,1.954,4.364,4.364,4.364    s4.364-1.954,4.364-4.364v-95c0-0.134-0.009-0.267-0.021-0.398l29.501-29.5C300.125,98.874,300.125,96.111,298.421,94.407z"/>
	</g>
</g>
</svg>