<svg xmlns="http://www.w3.org/2000/svg" xmlns:xlink="http://www.w3.org/1999/xlink" version="1.1" id="Layer_1" x="0px" y="0px" width="100px" height="100px" viewBox="0 0 100 100" enable-background="new 0 0 100 100" xml:space="preserve">
<path d="M46.491,8.561c0,0,0-4.355-0.44-7.542c2.092,4.459,3.798,11.065,3.798,11.065s2.037-3.083,3.963-4.625  c0.826,3.083,0.716,5.835,0.716,5.835s7.763-10.239,8.588-12.276c0.44,2.037-6,18.552-6,18.552s3.91-9.069,12.382-12.523  c-7.386,7.036-9.465,13.184-9.465,13.184s2.079-2.438,7.727-3.333c-8.827,6.396-10.475,15.613-10.475,15.613  c4.217-7.809,13.263-7.399,13.263-7.399s-7.351,2.399-12.248,12.129c5.622-5.503,10.483-4.352,10.483-4.352  s-7.281,2.814-9.851,9.141c4.265-4.919,8.918-4.162,8.918-4.162s-6.824,2.182-9.046,8.198c2.697-2.814,5.743-1.063,5.743-1.063  s-5.102,0.484-7.707,7.817c-3.708-0.313-5.177,2.202-5.177,2.202s-1.085-2.474-5.338-2.202c-1.005-1.319-3.55-5.367-7.762-5.725  c3.44,0.083,6.028,0.963,6.028,0.963s-5.099-6.275-9.585-6.358c4.625-1.101,9.999,2.037,9.999,2.037s-2.808-6.056-13.102-7.569  c4.156,0.33,6.606-0.496,11.203,1.458c-2.202-3.22-5.163-6.643-13.652-7.432c4.321-0.991,11.34-0.661,12.606,0.385  c-3.055-6.358-6.264-9.23-9.182-11.707c4.542,3.44,8.859,3.745,12.478,10.79C42.931,16.084,34.496,13.828,31.703,7.897  c2.67,2.808,6.282,1.544,9.035,4.627c0,0-1.988-6.276-8.835-12.524c6.92,2.284,10.698,8.854,12.588,12.707  c-0.734-3.376-2.129-6.459-3.414-7.854c1.468,0.917,1.799,0.973,1.799,0.973L42.38,2.945C42.38,2.945,44.839,4.67,46.491,8.561z"/>
<g>
	<path d="M52.749,97.838l1.813,1.814c2.334,0.74,4.962,0.295,6.939-1.339L56.887,93.7L52.749,97.838z"/>
	<path d="M50.578,56.046L50.578,56.046c-3.053-3.161-6.785-2.146-8.792-0.515l4.653,4.653L50.578,56.046z"/>
	<path d="M57.973,92.615l4.603,4.603c0.644-0.807,1.098-1.715,1.354-2.667c1.013-0.256,1.98-0.733,2.831-1.425l-4.649-4.649   L57.973,92.615z"/>
	<path d="M40.13,66.495l-4.653-4.653c-1.631,2.007-2.051,4.67-1.261,7.017l1.775,1.775L40.13,66.495z"/>
	<path d="M34.216,79.306l1.775,1.775l4.139-4.139l-4.139-4.139l-1.775,1.775C33.7,76.11,33.7,77.775,34.216,79.306z"/>
	<path d="M35.991,83.252l-1.775,1.774c-0.79,2.347-0.371,5.01,1.261,7.017l4.653-4.652L35.991,83.252z"/>
	<path d="M46.439,93.7l-4.653,4.653c2.007,1.631,4.671,2.051,7.018,1.26l1.774-1.774L46.439,93.7z"/>
	<path d="M45.354,61.27l-4.65-4.65c-0.67,0.825-1.138,1.76-1.399,2.739c-0.979,0.262-1.914,0.729-2.739,1.399l4.65,4.65   L45.354,61.27z"/>
	<path d="M41.215,88.476l-4.65,4.65c0.826,0.67,1.76,1.138,2.739,1.399c0.262,0.979,0.73,1.914,1.4,2.738l4.65-4.649L41.215,88.476z   "/>
	<path d="M56.887,60.185l4.614-4.614c-1.978-1.635-5.699-2.698-8.753,0.476l0,0L56.887,60.185z"/>
	<rect x="48.737" y="89.688" transform="matrix(-0.7071 -0.7071 0.7071 -0.7071 22.7067 194.6349)" width="5.853" height="5.853"/>
	<rect x="43.513" y="84.464" transform="matrix(0.7071 -0.7071 0.7071 0.7071 -48.1927 58.4338)" width="5.853" height="5.852"/>
	<rect x="38.289" y="79.24" transform="matrix(0.7071 -0.7071 0.7071 0.7071 -46.0288 53.2097)" width="5.853" height="5.853"/>
	<rect x="38.289" y="68.792" transform="matrix(0.7071 0.7071 -0.7071 0.7071 62.7842 -8.1378)" width="5.853" height="5.853"/>
	<rect x="59.185" y="68.792" transform="matrix(-0.7071 0.7071 -0.7071 -0.7071 156.744 78.511)" width="5.853" height="5.853"/>
	<rect x="53.961" y="84.465" transform="matrix(-0.7072 -0.707 0.707 -0.7072 35.3297 189.4138)" width="5.852" height="5.852"/>
	<rect x="43.513" y="63.568" transform="matrix(0.7071 0.7071 -0.7071 0.7071 60.6206 -13.3618)" width="5.853" height="5.853"/>
	<rect x="53.961" y="63.568" transform="matrix(-0.7071 -0.7071 0.7071 -0.7071 50.0937 153.7388)" width="5.853" height="5.853"/>
	<rect x="59.185" y="79.24" transform="matrix(-0.7071 -0.7071 0.7071 -0.7071 47.931 184.1867)" width="5.853" height="5.853"/>
	<path d="M63.197,87.391l4.653,4.652c1.632-2.007,2.051-4.671,1.261-7.017l-1.775-1.774L63.197,87.391z"/>
	<path d="M67.335,70.633l1.775-1.775c0.79-2.346,0.371-5.01-1.261-7.017l-4.653,4.653L67.335,70.633z"/>
	<rect x="48.737" y="58.344" transform="matrix(0.7071 0.7071 -0.7071 0.7071 58.4564 -18.5861)" width="5.853" height="5.853"/>
	<rect x="48.737" y="68.792" transform="matrix(-0.7071 -0.7071 0.7071 -0.7071 37.4828 158.9624)" width="5.853" height="5.853"/>
	<path d="M69.111,74.579l-1.775-1.774l-4.139,4.139l4.139,4.139l1.775-1.775C69.625,77.775,69.626,76.11,69.111,74.579z"/>
	<path d="M62.112,65.409l4.65-4.65c-0.852-0.69-1.819-1.168-2.832-1.424c-0.257-0.952-0.71-1.861-1.354-2.668l-4.604,4.604   L62.112,65.409z"/>
	<rect x="48.737" y="79.24" transform="matrix(0.7071 0.7071 -0.7071 0.7071 73.2324 -12.4657)" width="5.853" height="5.853"/>
	<rect x="53.961" y="74.016" transform="matrix(0.7071 0.7071 -0.7071 0.7071 71.0687 -17.6893)" width="5.853" height="5.853"/>
	<rect x="43.513" y="74.016" transform="matrix(-0.7071 -0.7071 0.7071 -0.7071 24.8703 164.1873)" width="5.853" height="5.853"/>
</g>
</svg>