<svg xmlns="http://www.w3.org/2000/svg" xmlns:xlink="http://www.w3.org/1999/xlink" version="1.1" id="Layer_1" x="0px" y="0px" width="100px" height="100px" viewBox="0 0 100 100" enable-background="new 0 0 100 100" xml:space="preserve">
<g>
	<path d="M43.293,66.01c-1.177,0.322-1.862,0.816-1.929,1.36c-0.171,1.416,1.099,1.622,2.722,1.688h11   c1.623-0.065,2.895-0.271,2.723-1.688c-0.064-0.544-0.75-1.038-1.929-1.36c-0.571-1.404-3.147-2.465-6.323-2.476   C46.451,63.541,43.865,64.604,43.293,66.01L43.293,66.01z M36.322,77.832c-4.418,1.422-2.508,8.818,1.91,7.395   c1.346-0.433,2.859-0.724,4.495-0.916c-0.801-0.539-1.428-1.176-1.828-1.875c2.198,0.795,5.257,1.287,8.638,1.287   c3.451,0,6.568-0.514,8.775-1.337c-0.392,0.704-1.013,1.345-1.808,1.892c1.722,0.19,3.312,0.492,4.737,0.949   c4.419,1.424,6.328-5.973,1.91-7.395c-3.842-1.236-8.479-1.938-13.416-1.938S40.165,76.596,36.322,77.832L36.322,77.832z    M31.048,44.628C18.545,44.463,17.854,39.575,17.854,44c0,4.42,0.767,16.627,13.193,16.648c5.538,0,10.101-3.097,10.719-7.084   c-1.571-0.789-3.347-1.526-5.268-2.174c0.508,0.65,0.749,1.502,0.594,2.379c-0.096,0.547-0.334,1.029-0.669,1.424   c1.39,0.047,2.632-0.037,3.628-0.236c-0.896,1.271-3.303,1.955-6.113,1.589c-2.831-0.366-5.213-1.688-6.035-3.196   c0.952,0.452,2.151,0.858,3.502,1.176c-0.255-0.543-0.351-1.166-0.239-1.801c0.196-1.113,0.98-1.975,1.977-2.32   c-4.012-1.02-7.755-1.401-10.632-1.176c2.422-2.417,7.528-3.196,12.845-1.671c2.357,0.676,4.439,1.714,6.094,2.951   C40.194,47.117,36.012,44.628,31.048,44.628L31.048,44.628z M68.105,44.628c-4.942,0-9.108,2.467-10.388,5.834   c1.646-1.217,3.705-2.238,6.033-2.906c5.315-1.524,10.424-0.746,12.845,1.671c-2.875-0.225-6.619,0.156-10.632,1.176   c0.997,0.346,1.781,1.207,1.979,2.32c0.109,0.635,0.016,1.258-0.239,1.801c1.351-0.316,2.549-0.724,3.502-1.176   c-0.822,1.508-3.205,2.829-6.034,3.196c-2.811,0.366-5.218-0.317-6.113-1.589c0.996,0.199,2.237,0.283,3.627,0.236   c-0.334-0.395-0.571-0.877-0.67-1.424c-0.152-0.877,0.088-1.729,0.594-2.379c-1.901,0.641-3.664,1.372-5.226,2.154   c0.604,3.997,5.175,7.104,10.724,7.104C80.533,60.627,81.3,48.419,81.3,44C81.3,39.575,80.607,44.463,68.105,44.628L68.105,44.628z    M6.887,51.475C4.819,20.673,18.242,0.376,49.488,0.376h0.136h0.136c31.245,0,44.67,20.296,42.602,51.099   c-1.67,24.858-19.209,47.864-42.737,47.864C26.096,99.339,8.555,76.334,6.887,51.475L6.887,51.475z M31.179,41.275   c6.63,0.057,13.467,4.008,13.984,10.632c0.019,0.241,0.029,0.487,0.029,0.733c0,1.908-0.496,3.551-1.326,4.953l-2.386,4.031   l4.565-1.044c1.306-0.3,2.553-0.399,3.508-0.399c0.962,0.002,2.233,0.104,3.56,0.409l4.576,1.048l-2.396-4.037   c-0.834-1.404-1.331-3.051-1.331-4.961c0-0.246,0.01-0.492,0.027-0.733c0.517-6.607,7.32-10.555,13.935-10.631   c9.343-0.559,13.925-10.34,12.3-18.745C76.221,1.794,51.677,9.298,54.309,22.828c2.727,14.005,17.379,8.692,16.129,1.787   c-1.312-7.246-7.541-4.655-6.101-2.064c0,0,1.34,2.265-0.42,3.266c-2.251,1.28-3.503-0.893-3.503-0.893   c-5.01-9.002,11.828-15.836,14.48-1.186c2.373,13.112-21.145,20.009-25.032,0.031C48.1,14.708,54.195,7.875,61.807,5.715   c-1.834-0.429-3.767-0.755-5.798-0.976c-0.771,0.271-1.416,0.519-1.931,0.745c-0.771,0.337-1.37,0.668-1.795,0.994   c-0.426,0.332-0.855,0.8-1.287,1.406c-0.428,0.595-0.907,1.397-1.441,2.409c-0.534-1.012-1.014-1.814-1.442-2.409   c-0.433-0.606-0.861-1.075-1.286-1.406c-0.425-0.326-1.023-0.657-1.795-0.994c-0.524-0.228-1.178-0.48-1.964-0.756   c-2.042,0.218-3.981,0.542-5.82,0.971c7.638,2.142,13.768,8.987,12,18.07c-3.888,19.979-27.404,13.082-25.03-0.031   c2.652-14.65,19.49-7.816,14.479,1.186c0,0-1.252,2.172-3.503,0.893c-1.76-1.001-0.42-3.266-0.42-3.266   c1.442-2.59-4.788-5.181-6.1,2.064c-1.25,6.905,13.402,12.219,16.128-1.787c2.633-13.53-21.913-21.034-25.916-0.297   C17.265,30.934,21.843,40.711,31.179,41.275L31.179,41.275z M26.217,63.402C18.017,61.221,14.501,53.335,14.501,44   c0-4.172,2.087-5.61,5.044-4.974c-3.529-3.521-5.584-8.321-5.497-13.71c-2.817,7.124-3.82,15.86-3.147,25.888   c0.491,7.313,2.412,14.526,5.442,21.002c0.386-2.633,1.772-5.115,4.025-6.754C22.441,63.941,24.429,63.35,26.217,63.402   L26.217,63.402z M32.374,76.994c1.367-1.258,3.479-2.135,6.131-2.762l3.739-0.89l-2.859-2.567   c-1.445-1.295-1.805-3.153-1.134-4.765l1.62-3.883l-4.039,1.177c-1.599,0.463-3.239,0.697-4.788,0.697   c-0.891-0.002-1.742-0.059-2.554-0.159C33.511,65.691,36.019,72.857,32.374,76.994L32.374,76.994z M72.945,63.4   c1.764-0.031,3.718,0.567,5.755,2.051c2.338,1.699,3.743,4.309,4.063,7.053c3.112-6.551,5.084-13.873,5.584-21.301   c0.676-10.098-0.381-18.887-3.289-26.037c0.129,5.456-1.937,10.316-5.506,13.871c2.986-0.665,5.1,0.766,5.1,4.962   C84.652,53.333,81.141,61.217,72.945,63.4L72.945,63.4z M66.615,76.904c-3.518-4.141-1.033-11.189,3.922-13.045   c-0.773,0.092-1.583,0.142-2.428,0.144c-1.541,0-3.17-0.229-4.758-0.69l-4.023-1.162l1.605,3.867   c0.666,1.604,0.293,3.465-1.168,4.767l-2.875,2.562l3.744,0.898C63.199,74.855,65.254,75.701,66.615,76.904L66.615,76.904z    M71.746,74.793c-4.37-1.327-1.074-9.27,4.367-5.209c4.867,3.63-0.653,13.979-8.232,8.486c-0.214-0.155-0.415-0.318-0.604-0.49   c1.179,1.422,1.531,3.275,0.828,5.71c-1.06,3.673-3.349,4.573-6.701,4.554c-3.896-0.025-8.325-1.261-11.857-1.261   c-3.532,0-7.961,1.235-11.858,1.261c-3.353,0.021-5.643-0.881-6.702-4.554c-0.717-2.487-0.334-4.366,0.908-5.802   c-0.218,0.203-0.453,0.396-0.707,0.582c-7.578,5.492-13.099-4.856-8.232-8.486c5.441-4.061,8.737,3.882,4.367,5.209   c0,0-0.944,0.121-1.257-0.654c-0.313-0.774,0.767-1.285,0.767-1.285c0.96-0.293,0.603-1.266,0.155-1.896   c-1.131-1.593-5.853,0.771-3.066,5.125c2.707,4.229,11.516-0.845,6.986-8.008c-4.242-6.704-15.711,0.61-12.197,8.651   c7.056,12.107,18.204,20.681,30.915,20.681c12.278,0,23.101-7.998,30.183-19.458c5.199-8.52-7.195-16.906-11.645-9.874   c-4.53,7.163,4.279,12.237,6.986,8.008c2.787-4.354-1.937-6.718-3.065-5.125c-0.45,0.631-0.808,1.604,0.154,1.896   c0,0,1.079,0.511,0.767,1.285C72.689,74.914,71.746,74.793,71.746,74.793L71.746,74.793z M37.553,80.428   c0.428-1.023,3.333-2.926,6.417-3.408c3.412-0.535,4.974,0.176,5.598,0.983c0.623-0.808,2.186-1.521,5.597-0.983   c3.134,0.49,6.083,2.446,6.437,3.457c-3.521-0.966-7.67-1.524-12.114-1.524C45.119,78.951,41.034,79.491,37.553,80.428   L37.553,80.428z M48.12,36.392c0.426-0.761,0.906-1.788,1.438-3.083c0.532,1.295,1.012,2.322,1.438,3.083   c0.43,0.775,0.857,1.375,1.281,1.799c0.425,0.416,1.021,0.84,1.789,1.271c0.769,0.431,1.82,0.926,3.156,1.486   c-1.336,0.56-2.389,1.056-3.156,1.487c-0.77,0.432-1.364,0.854-1.789,1.271c-0.424,0.425-0.853,1.024-1.281,1.799   c-0.426,0.761-0.905,1.788-1.438,3.083c-0.532-1.295-1.011-2.322-1.438-3.083c-0.431-0.775-0.858-1.375-1.282-1.799   c-0.424-0.417-1.02-0.839-1.789-1.271c-0.769-0.431-1.82-0.927-3.157-1.487c1.337-0.561,2.389-1.056,3.157-1.486   c0.769-0.432,1.365-0.855,1.789-1.271C47.262,37.767,47.689,37.167,48.12,36.392L48.12,36.392z"/>
</g>
</svg>