<svg xmlns="http://www.w3.org/2000/svg" xmlns:xlink="http://www.w3.org/1999/xlink" xml:space="preserve" width="95px" height="95px" style="shape-rendering:geometricPrecision; text-rendering:geometricPrecision; image-rendering:optimizeQuality; fill-rule:evenodd; clip-rule:evenodd" viewBox="0 0 21.4581 14.264">
 <defs>
  <style type="text/css">
   
    .str0 {stroke:black;stroke-width:1.54197;stroke-linecap:round}
    .str1 {stroke:black;stroke-width:2.10724}
    .fil0 {fill:none}
    .fil1 {fill:black}
   
  </style>
 </defs>
<symbol id="New_Symbol_4" viewBox="-72.6854 118.136 25.1854 4.25054">
 <path class="fil0 str0" d="M-71.8181 119.876c0,0 1.43476,1.88455 4.94715,1.73475 3.51239,-0.149803 4.62591,-1.43476 7.32438,-2.24868 4.66879,-1.37053 11.1793,0.770937 11.1793,0.770937"/>
 <polygon class="fil0" points="-72.6854,122.317 -47.5,122.317 -47.5,118.205 -72.6854,118.205 " display="none"/>
</symbol>
<symbol id="New_Symbol" viewBox="-68.5724 101.996 21.0724 20.3858">
 <path class="fil1 str1" d="M-49.3206 103.394c-1.39505,-1.38236 -6.4271,1.43505 -11.2401,6.2922 -4.81081,4.85715 -7.58187,9.91458 -6.18682,11.2969 1.39505,1.38236 6.4271,-1.43505 11.2379,-6.2922 4.81292,-4.85725 7.58399,-9.91458 6.18903,-11.2969z"/>
 <polygon class="fil0" points="-68.5724,120.619 -47.5,120.619 -47.5,103.761 -68.5724,103.761 " display="none"/>
</symbol>
<symbol id="New_Symbol_1" viewBox="-72.6854 104.471 25.1854 17.9185">
 <path class="fil1" d="M-54.4908 105.045c0.166341,0 0.294414,0.228935 0.377007,0.307394 0.277395,0.407006 1.14554,2.323 1.15631,4.59264 0.00740361,1.61524 -1.20967,2.78481 -0.0251915,3.95785 1.18371,1.17294 5.39338,5.33675 5.39338,5.33675 0,0 -1.03516,0.317778 -2.00186,1.22775 -0.966699,0.909971 1.11891,-1.13112 0.13038,-0.133361 -0.869299,0.78959 -1.25631,2.05628 -1.25631,2.05628 0,0 -4.20996,-4.17102 -5.39367,-5.34406 -1.1841,-1.17294 -2.31339,0.0103843 -3.92824,0.0181725 -2.27002,0.0103843 -3.91555,-0.495176 -4.58889,-1.15746 -0.673344,-0.662286 -5.16752,-5.0807 -7.9683,-7.84561 0,0 2.38338,-0.0707669 4.49668,-0.995545 2.1133,-0.924778 4.666,-2.0208 4.666,-2.0208 0,0 1.03151,-0.357777 2.40483,-0.517002 2.36377,-0.269991 6.53787,0.517002 6.53787,0.517002z"/>
 <polygon class="fil0" points="-72.6854,122.32 -47.5,122.32 -47.5,104.542 -72.6854,104.542 " display="none"/>
</symbol>
<symbol id="New_Symbol_2" viewBox="-72.6854 118.136 25.1854 4.25054">
 <path class="fil0 str0" d="M-71.8181 119.876c0,0 1.43476,1.88455 4.94715,1.73475 3.51239,-0.149803 4.62591,-1.43476 7.32438,-2.24868 4.66879,-1.37053 11.1793,0.770937 11.1793,0.770937"/>
 <polygon class="fil0" points="-72.6854,122.317 -47.5,122.317 -47.5,118.205 -72.6854,118.205 " display="none"/>
</symbol>
<symbol id="New_Symbol_3" viewBox="-72.6854 118.136 25.1854 4.25054">
 <path class="fil0 str0" d="M-71.8181 119.876c0,0 1.43476,1.88455 4.94715,1.73475 3.51239,-0.149803 4.62591,-1.43476 7.32438,-2.24868 4.66879,-1.37053 11.1793,0.770937 11.1793,0.770937"/>
 <polygon class="fil0" points="-72.6854,122.317 -47.5,122.317 -47.5,118.205 -72.6854,118.205 " display="none"/>
</symbol>
 <g id="Layer_x0020_1">
  <metadata id="CorelCorpID_0Corel-Layer"/>
  <polygon class="fil1" points="7.74465,14.264 9.58517,11.8099 11.4256,14.264 "/>
  <polygon class="fil1" points="2.0982,11.4471 7.86301,9.34883 5.76501,3.58373 -0,5.68203 "/>
  <polygon class="fil1" points="15.4731,0 15.4731,2.53069 14.2077,2.53069 16.7385,5.06137 19.2692,2.53069 18.0037,2.53069 18.0037,0 "/>
  <polygon class="fil1" points="1.74379,13.8806 21.4581,6.70526 21.0384,5.55222 1.32419,12.7277 "/>
 </g>
</svg>