<svg xmlns="http://www.w3.org/2000/svg" xmlns:xlink="http://www.w3.org/1999/xlink" xml:space="preserve" width="90px" height="90px" style="shape-rendering:geometricPrecision; text-rendering:geometricPrecision; image-rendering:optimizeQuality; fill-rule:evenodd; clip-rule:evenodd" viewBox="0 0 11.9722 13.3148">
 <defs>
  <style type="text/css">
   
    .str0 {stroke:black;stroke-width:1.21998;stroke-linecap:round}
    .str1 {stroke:black;stroke-width:1.66722}
    .fil0 {fill:none}
    .fil1 {fill:black}
   
  </style>
 </defs>
<symbol id="New_Symbol_4" viewBox="-64.9263 55.3665 19.9263 3.36296">
 <path class="fil0 str0" d="M-64.2401 56.7429c0,0 1.13516,1.49103 3.91411,1.37251 2.77895,-0.118522 3.65995,-1.13516 5.79494,-1.77912 3.69388,-1.08434 8.84486,0.609953 8.84486,0.609953"/>
 <polygon class="fil0" points="-64.9263,58.6745 -45,58.6745 -45,55.4212 -64.9263,55.4212 " display="none"/>
</symbol>
<symbol id="New_Symbol" viewBox="-61.6722 42.5965 16.6722 16.1289">
 <path class="fil1 str1" d="M-46.4404 43.7029c-1.10374,-1.0937 -5.08502,1.13539 -8.89301,4.97829 -3.80624,3.8429 -5.99866,7.84427 -4.89492,8.93797 1.10374,1.0937 5.08502,-1.13539 8.89126,-4.97829 3.80791,-3.84298 6.00033,-7.84427 4.89667,-8.93797z"/>
 <polygon class="fil0" points="-61.6722,57.3308 -45,57.3308 -45,43.9929 -61.6722,43.9929 " display="none"/>
</symbol>
<symbol id="New_Symbol_1" viewBox="-64.9263 44.5551 19.9263 14.1768">
 <path class="fil1" d="M-50.531 45.0086c0.131606,0 0.232936,0.18113 0.298282,0.243205 0.219471,0.322017 0.906334,1.83792 0.914854,3.63363 0.00585762,1.27795 -0.957075,2.2033 -0.0199311,3.13139 0.936535,0.928015 4.26716,4.22236 4.26716,4.22236 0,0 -0.819002,0.251421 -1.58384,0.971376 -0.764838,0.719955 0.885262,-0.894923 0.103155,-0.105513 -0.687776,0.624712 -0.99397,1.6269 -0.99397,1.6269 0,0 -3.33086,-3.30005 -4.26739,-4.22814 -0.936839,-0.928015 -1.83032,0.00821589 -3.10796,0.0143778 -1.79601,0.00821589 -3.09792,-0.391776 -3.63066,-0.915767 -0.532739,-0.523991 -4.08847,-4.01977 -6.3044,-6.20733 0,0 1.8857,-0.0559897 3.55771,-0.78766 1.67201,-0.73167 3.69167,-1.59883 3.69167,-1.59883 0,0 0.816111,-0.283068 1.90266,-0.409045 1.87018,-0.213613 5.17266,0.409045 5.17266,0.409045z"/>
 <polygon class="fil0" points="-64.9263,58.6763 -45,58.6763 -45,44.6107 -64.9263,44.6107 " display="none"/>
</symbol>
<symbol id="New_Symbol_2" viewBox="-64.9263 55.3665 19.9263 3.36296">
 <path class="fil0 str0" d="M-64.2401 56.7429c0,0 1.13516,1.49103 3.91411,1.37251 2.77895,-0.118522 3.65995,-1.13516 5.79494,-1.77912 3.69388,-1.08434 8.84486,0.609953 8.84486,0.609953"/>
 <polygon class="fil0" points="-64.9263,58.6745 -45,58.6745 -45,55.4212 -64.9263,55.4212 " display="none"/>
</symbol>
<symbol id="New_Symbol_3" viewBox="-64.9263 55.3665 19.9263 3.36296">
 <path class="fil0 str0" d="M-64.2401 56.7429c0,0 1.13516,1.49103 3.91411,1.37251 2.77895,-0.118522 3.65995,-1.13516 5.79494,-1.77912 3.69388,-1.08434 8.84486,0.609953 8.84486,0.609953"/>
 <polygon class="fil0" points="-64.9263,58.6745 -45,58.6745 -45,55.4212 -64.9263,55.4212 " display="none"/>
</symbol>
 <g id="Layer_x0020_1">
  <metadata id="CorelCorpID_0Corel-Layer"/>
  <path class="fil1" d="M0.270516 8.14491l1.26258 0.629656c0.148799,0.0742473 0.270516,-0.0178011 0.270516,-0.20456l0 -1.58483c0,-0.186835 -0.121717,-0.400296 -0.270516,-0.474543l-1.26258 -0.629732c-0.148875,-0.0742473 -0.270516,0.0178772 -0.270516,0.204712l0 1.58475c0,0.186835 0.121641,0.400296 0.270516,0.474543z"/>
  <path class="fil1" d="M0.270516 5.6294l1.26258 0.629656c0.148799,0.0741712 0.270516,-0.0178772 0.270516,-0.204636l0 -1.58483c0,-0.186759 -0.121717,-0.400296 -0.270516,-0.474543l-1.26258 -0.629656c-0.148875,-0.0742473 -0.270516,0.0178772 -0.270516,0.204636l0 1.58483c0,0.186759 0.121641,0.40022 0.270516,0.474543z"/>
  <path class="fil1" d="M2.27458 11.6599l1.26258 0.629656c0.148799,0.0743233 0.270516,-0.0178011 0.270516,-0.204636l0 -1.58475c0,-0.186835 -0.121717,-0.400296 -0.270516,-0.474543l-1.26258 -0.629732c-0.148875,-0.0741712 -0.270516,0.0178772 -0.270516,0.204712l0 1.58475c0,0.186835 0.121641,0.400296 0.270516,0.474543z"/>
  <path class="fil1" d="M2.27458 9.14443l1.26258 0.629656c0.148799,0.0742473 0.270516,-0.0178772 0.270516,-0.204636l0 -1.58483c0,-0.186835 -0.121717,-0.400296 -0.270516,-0.474543l-1.26258 -0.629656c-0.148875,-0.0742473 -0.270516,0.0178772 -0.270516,0.204636l0 1.58483c0,0.186759 0.121641,0.400296 0.270516,0.474543z"/>
  <path class="fil1" d="M2.27458 6.62885l1.26258 0.629656c0.148799,0.0743233 0.270516,-0.0178011 0.270516,-0.204636l0 -1.58475c0,-0.186835 -0.121717,-0.400296 -0.270516,-0.474543l-1.26258 -0.629732c-0.148875,-0.0741712 -0.270516,0.0178772 -0.270516,0.204712l0 1.58475c0,0.186759 0.121641,0.400296 0.270516,0.474543z"/>
  <path class="fil1" d="M4.27865 12.6595l1.26258 0.629656c0.148799,0.0742473 0.270516,-0.0178011 0.270516,-0.204636l0 -1.58483c0,-0.186759 -0.121717,-0.400296 -0.270516,-0.474467l-1.26258 -0.629732c-0.148799,-0.0741712 -0.270516,0.0178772 -0.270516,0.204712l0 1.58475c0,0.186835 0.121717,0.400372 0.270516,0.474543z"/>
  <path class="fil1" d="M4.27865 10.1439l1.26258 0.629732c0.148799,0.0742473 0.270516,-0.0178011 0.270516,-0.204712l0 -1.58475c0,-0.186835 -0.121717,-0.400372 -0.270516,-0.474467l-1.26258 -0.629732c-0.148799,-0.0742473 -0.270516,0.0178011 -0.270516,0.204636l0 1.58483c0,0.186759 0.121717,0.400296 0.270516,0.474467z"/>
  <path class="fil1" d="M4.27865 7.62837l1.26258 0.629656c0.148799,0.0742473 0.270516,-0.0178011 0.270516,-0.204636l0 -1.58475c0,-0.186835 -0.121717,-0.400372 -0.270516,-0.474543l-1.26258 -0.629732c-0.148799,-0.0742473 -0.270516,0.0178772 -0.270516,0.204712l0 1.58483c0,0.186759 0.121717,0.400296 0.270516,0.474467z"/>
  <path class="fil1" d="M11.7017 8.14491l-1.26258 0.629656c-0.148799,0.0742473 -0.270516,-0.0178011 -0.270516,-0.204636l0 -1.58475c0,-0.186835 0.121717,-0.400296 0.270516,-0.474543l1.26258 -0.629732c0.148799,-0.0741712 0.270516,0.0178772 0.270516,0.204712l0 1.58475c0,0.186759 -0.121717,0.400296 -0.270516,0.474543z"/>
  <path class="fil1" d="M11.7017 5.6294l-1.26258 0.629656c-0.148799,0.0741712 -0.270516,-0.0178772 -0.270516,-0.204636l0 -1.58483c0,-0.186759 0.121717,-0.400296 0.270516,-0.474543l1.26258 -0.629732c0.148799,-0.0741712 0.270516,0.0179532 0.270516,0.204712l0 1.58483c0,0.186759 -0.121717,0.400296 -0.270516,0.474543z"/>
  <path class="fil1" d="M9.69764 11.6599l-1.26258 0.629656c-0.148799,0.0743233 -0.270516,-0.0178011 -0.270516,-0.204636l0 -1.58475c0,-0.186835 0.121717,-0.400372 0.270516,-0.474543l1.26258 -0.629656c0.148799,-0.0742473 0.270516,0.0178011 0.270516,0.204636l0 1.58483c0,0.186759 -0.121717,0.400296 -0.270516,0.474467z"/>
  <path class="fil1" d="M9.69764 9.14443l-1.26258 0.629656c-0.148799,0.0742473 -0.270516,-0.0178011 -0.270516,-0.204636l0 -1.58475c0,-0.186911 0.121717,-0.400372 0.270516,-0.474543l1.26258 -0.629732c0.148799,-0.0742473 0.270516,0.0178772 0.270516,0.204712l0 1.58475c0,0.186759 -0.121717,0.400296 -0.270516,0.474543z"/>
  <path class="fil1" d="M9.69764 6.62893l-1.26258 0.62958c-0.148799,0.0742473 -0.270516,-0.0178011 -0.270516,-0.20456l0 -1.58483c0,-0.186835 0.121717,-0.400296 0.270516,-0.474543l1.26258 -0.629732c0.148799,-0.0741712 0.270516,0.0179532 0.270516,0.204712l0 1.58483c0,0.186759 -0.121717,0.40022 -0.270516,0.474543z"/>
  <path class="fil1" d="M7.69357 12.6595l-1.26258 0.629656c-0.148799,0.0742473 -0.270516,-0.0178011 -0.270516,-0.204636l0 -1.58483c0,-0.186759 0.121717,-0.400296 0.270516,-0.474467l1.26258 -0.629732c0.148799,-0.0742473 0.270516,0.0178772 0.270516,0.204712l0 1.58475c0,0.186835 -0.121717,0.400372 -0.270516,0.474543z"/>
  <path class="fil1" d="M7.69357 10.1439l-1.26258 0.629732c-0.148799,0.0742473 -0.270516,-0.0178011 -0.270516,-0.204712l0 -1.58475c0,-0.186835 0.121717,-0.400296 0.270516,-0.474467l1.26258 -0.629732c0.148799,-0.0742473 0.270516,0.0178011 0.270516,0.204636l0 1.58483c0,0.186759 -0.121717,0.400296 -0.270516,0.474467z"/>
  <path class="fil1" d="M7.69357 7.62837l-1.26258 0.629656c-0.148799,0.0742473 -0.270516,-0.0178011 -0.270516,-0.204636l0 -1.58475c0,-0.186835 0.121717,-0.400372 0.270516,-0.474543l1.26258 -0.629732c0.148799,-0.0742473 0.270516,0.0178772 0.270516,0.204712l0 1.58483c0,0.186759 -0.121717,0.40022 -0.270516,0.474467z"/>
  <path class="fil1" d="M11.7017 10.6605l-1.26258 0.62958c-0.148799,0.0743233 -0.270516,-0.0178011 -0.270516,-0.20456l0 -1.58483c0,-0.186835 0.121717,-0.400296 0.270516,-0.474543l1.26258 -0.629656c0.148799,-0.0742473 0.270516,0.0178772 0.270516,0.204636l0 1.58483c0,0.186759 -0.121717,0.400296 -0.270516,0.474543z"/>
  <path class="fil1" d="M4.20874 4.71128l1.29446 -0.647305c0.152602,-0.0762252 0.152602,-0.201061 0,-0.277286l-1.29446 -0.647305c-0.152602,-0.0763012 -0.402198,-0.0763012 -0.5548,0l-1.29453 0.647305c-0.152602,0.0762252 -0.152602,0.201061 0,0.277286l1.29453 0.647305c0.152602,0.0763012 0.402198,0.0763012 0.5548,0z"/>
  <path class="fil1" d="M2.15393 3.68391l1.29453 -0.647305c0.152602,-0.0763012 0.152602,-0.201061 0,-0.277362l-1.29453 -0.647229c-0.152526,-0.0763012 -0.402198,-0.0763012 -0.5548,0l-1.29453 0.647229c-0.152526,0.0763012 -0.152526,0.201061 0,0.277362l1.29453 0.647305c0.152602,0.0762252 0.402274,0.0762252 0.5548,0z"/>
  <path class="fil1" d="M8.31828 4.71128l1.29446 -0.647305c0.152602,-0.0762252 0.152602,-0.201061 0,-0.277286l-1.29446 -0.647305c-0.152602,-0.0763012 -0.402198,-0.0763012 -0.5548,0l-1.29446 0.647305c-0.152679,0.0762252 -0.152679,0.201061 0,0.277286l1.29446 0.647305c0.152602,0.0763012 0.402198,0.0763012 0.5548,0z"/>
  <path class="fil1" d="M6.26347 3.68391l1.29453 -0.647305c0.152526,-0.0763012 0.152526,-0.201061 0,-0.277362l-1.29453 -0.647229c-0.152602,-0.0763012 -0.402122,-0.0763012 -0.5548,0l-1.29446 0.647229c-0.152602,0.0763012 -0.152602,0.201061 0,0.277362l1.29446 0.647305c0.152679,0.0762252 0.402198,0.0762252 0.5548,0z"/>
  <path class="fil1" d="M4.20874 2.65647l1.29446 -0.647153c0.152602,-0.0763773 0.152602,-0.201137 0,-0.277438l-1.29446 -0.647229c-0.152602,-0.0763773 -0.402198,-0.0763773 -0.5548,0l-1.29453 0.647229c-0.152602,0.0763012 -0.152602,0.201061 0,0.277438l1.29453 0.647153c0.152602,0.0763012 0.402198,0.0763012 0.5548,0z"/>
  <path class="fil1" d="M10.3731 3.68391l1.29446 -0.647305c0.152602,-0.0763012 0.152602,-0.201061 0,-0.277362l-1.29446 -0.647229c-0.152679,-0.0763012 -0.402274,-0.0763012 -0.5548,0l-1.29453 0.647229c-0.152602,0.0763012 -0.152602,0.201061 0,0.277362l1.29453 0.647305c0.152526,0.0762252 0.402122,0.0762252 0.5548,0z"/>
  <path class="fil1" d="M8.31828 2.65647l1.29446 -0.647153c0.152602,-0.0763773 0.152602,-0.201137 0,-0.277438l-1.29446 -0.647229c-0.152602,-0.0763773 -0.402198,-0.0763773 -0.5548,0l-1.29446 0.647229c-0.152679,0.0763012 -0.152679,0.201061 0,0.277438l1.29446 0.647153c0.152602,0.0763012 0.402198,0.0763012 0.5548,0z"/>
  <path class="fil1" d="M6.26347 1.6291l1.29453 -0.647229c0.152526,-0.0763012 0.152526,-0.201061 0,-0.277438l-1.29453 -0.647229c-0.152602,-0.0763012 -0.402122,-0.0763012 -0.5548,0l-1.29446 0.647229c-0.152602,0.0763773 -0.152602,0.201137 0,0.277438l1.29446 0.647229c0.152679,0.0763773 0.402198,0.0763773 0.5548,0z"/>
  <path class="fil1" d="M6.26347 5.73872l1.29453 -0.647305c0.152526,-0.0763012 0.152526,-0.201137 0,-0.277362l-1.29453 -0.647305c-0.152602,-0.0762252 -0.402122,-0.0762252 -0.5548,0l-1.29446 0.647305c-0.152602,0.0762252 -0.152602,0.201061 0,0.277362l1.29446 0.647305c0.152679,0.0762252 0.402198,0.0762252 0.5548,0z"/>
  <path class="fil1" d="M0.270516 10.6605l1.26258 0.629656c0.148799,0.0742473 0.270516,-0.0178772 0.270516,-0.204636l0 -1.58483c0,-0.186835 -0.121717,-0.400296 -0.270516,-0.474543l-1.26258 -0.629656c-0.148875,-0.0742473 -0.270516,0.0178772 -0.270516,0.204636l0 1.58483c0,0.186759 0.121641,0.40022 0.270516,0.474543z"/>
 </g>
</svg>