<?xml version="1.0" encoding="utf-8"?>
<!-- Generator: Adobe Illustrator 15.1.0, SVG Export Plug-In . SVG Version: 6.00 Build 0)  -->
<!DOCTYPE svg PUBLIC "-//W3C//DTD SVG 1.1//EN" "http://www.w3.org/Graphics/SVG/1.1/DTD/svg11.dtd">
<svg version="1.1" id="Layer_1" xmlns="http://www.w3.org/2000/svg" xmlns:xlink="http://www.w3.org/1999/xlink" x="0px" y="0px"
	 width="100px" height="53px" viewBox="0 0 100 53" enable-background="new 0 0 100 53" xml:space="preserve">
<path d="M68.739,47C67.294,37.947,59.453,31,50,31s-17.294,6.947-18.739,16H0v6h100v-6H68.739z M37.363,47
	C38.723,41.276,43.866,37,50,37s11.277,4.276,12.637,10H37.363z"/>
<rect x="47" width="6" height="23"/>
<rect x="66.25" y="5.04" transform="matrix(0.866 0.5001 -0.5001 0.866 17.5514 -32.4126)" width="5.999" height="23"/>
<rect x="80.46" y="19.25" transform="matrix(0.5001 0.866 -0.866 0.5001 68.3539 -56.902)" width="5.999" height="23"/>
<rect x="19.25" y="13.541" transform="matrix(0.5 0.866 -0.866 0.5 29.6998 -18.36)" width="23" height="5.999"/>
<rect x="5.04" y="27.75" transform="matrix(0.866 0.5 -0.5 0.866 17.5907 -4.1506)" width="23" height="5.999"/>
</svg>
