<svg xmlns="http://www.w3.org/2000/svg" xmlns:xlink="http://www.w3.org/1999/xlink" version="1.1" baseProfile="tiny" id="Ebene_1" x="0px" y="0px" width="92.638px" height="100.817px" viewBox="0 0 92.638 100.817" overflow="inherit" xml:space="preserve">
<path d="M46.769,20.261c0.547,0,1.095,0.181,1.513,0.542l12.837,11.105c0.306,0.264,0.59,0.39,0.827,0.39  c0.413,0,0.686-0.381,0.686-1.082v-2.679c0-1.104,0.896-2,2-2h4.995c1.104,0,2,0.896,2,2v10.46c0,1.104,0.677,2.586,1.513,3.309  l6.235,5.394c0.836,0.723,0.617,1.309-0.487,1.309h-5.261c-1.104,0-2,0.793-2,1.771s0,1.771,0,1.771v26.289c0,1.104-0.896,2-2,2  H23.912c-1.104,0-2-0.896-2-2v-27.83c0-1.104-0.896-2-2-2h-5.261c-1.104,0-1.323-0.586-0.487-1.309l31.093-26.897  C45.674,20.441,46.222,20.261,46.769,20.261 M46.769,17.261c-1.291,0-2.525,0.452-3.475,1.272L12.201,45.432  c-2.044,1.767-1.537,3.692-1.333,4.24c0.204,0.549,1.08,2.337,3.783,2.337h4.261v26.83c0,2.757,2.243,5,5,5h45.715  c2.757,0,5-2.243,5-5V52.55v-0.541h4.261c2.703,0,3.579-1.788,3.783-2.337c0.204-0.548,0.711-2.474-1.334-4.241l-6.234-5.394  c-0.19-0.18-0.464-0.779-0.476-1.046V28.537c0-2.757-2.243-5-5-5h-4.995c-2.182,0-4.042,1.405-4.723,3.357l-9.664-8.36  C49.294,17.713,48.06,17.261,46.769,17.261L46.769,17.261z"/>
</svg>