<svg xmlns="http://www.w3.org/2000/svg" xmlns:xlink="http://www.w3.org/1999/xlink" version="1.1" id="Ebene_1" x="0px" y="0px" width="100px" height="75.0px" viewBox="0 0 800 600" enable-background="new 0 0 800 600" xml:space="preserve">
<path fill="#000000" d="M442.011,263.618c-5.711-5.707-13.217-8.583-20.701-8.58c-7.486-0.003-15.002,2.855-20.718,8.572  c-5.716-5.714-13.229-8.578-20.717-8.575c-7.488-0.002-14.993,2.869-20.702,8.583c-5.711,5.71-8.582,13.217-8.582,20.704  c-0.005,7.492,2.86,15.006,8.578,20.726l41.423,41.417l1.802-1.8l39.617-39.617c5.721-5.72,8.581-13.234,8.581-20.726  C450.592,276.836,447.718,269.328,442.011,263.618z M438.41,301.443l-37.818,37.819l-37.818-37.819  c-4.733-4.733-7.085-10.916-7.087-17.122c0.002-6.198,2.359-12.372,7.089-17.102c4.729-4.732,10.904-7.087,17.1-7.087  c6.206,0,12.387,2.355,17.124,7.085l0.311,0.312c-3.529,5.026-5.305,10.92-5.305,16.8l5.092,0.004  c0.007-6.18,2.346-12.335,7.04-17.062l0.053-0.051c4.73-4.732,10.913-7.083,17.122-7.087c6.196,0,12.367,2.362,17.097,7.092  c4.727,4.724,7.088,10.9,7.089,17.098C445.488,290.528,443.142,296.71,438.41,301.443z"/>
</svg>