<svg xmlns="http://www.w3.org/2000/svg" xmlns:xlink="http://www.w3.org/1999/xlink" version="1.1" id="Ebene_1" x="0px" y="0px" width="100px" height="100px" viewBox="0 0 100 100" enable-background="new 0 0 100 100" xml:space="preserve">
<path fill="#000000" d="M92.559,45.057c-4.079-4.08-9.443-6.133-14.788-6.131c-3.45-0.002-6.905,0.854-10.021,2.553  c-0.113-11.463-9.433-20.717-20.922-20.719c-10.65,0.002-19.432,7.959-20.748,18.252c-0.621-0.056-1.244-0.086-1.867-0.086v0.001  c-5.348-0.001-10.715,2.048-14.796,6.13c-4.082,4.076-6.133,9.441-6.131,14.79c-0.002,5.353,2.043,10.723,6.13,14.807  c4.082,4.082,9.448,6.131,14.797,6.128h53.556c5.772,0.001,11.011-2.345,14.791-6.126c4.087-4.088,6.131-9.456,6.131-14.807  C98.689,54.499,96.64,49.138,92.559,45.057z M89.986,72.079c-3.135,3.13-7.444,5.063-12.225,5.063h-53.55  c-4.428,0-8.844-1.683-12.224-5.064c-3.38-3.38-5.061-7.797-5.062-12.231c0.002-4.427,1.686-8.838,5.063-12.216  c3.381-3.381,7.795-5.063,12.225-5.064c4.43,0.001,8.844,1.684,12.224,5.064l2.573-2.575c-2.682-2.684-5.921-4.481-9.343-5.402  c1.02-8.586,8.304-15.237,17.159-15.254c9.549,0.017,17.271,7.741,17.289,17.288c0,0.836-0.061,1.656-0.175,2.458  c-0.332,0.292-0.659,0.594-0.977,0.911l2.572,2.572c3.384-3.38,7.798-5.062,12.233-5.062c4.427,0.001,8.835,1.687,12.215,5.064  c3.378,3.381,5.061,7.79,5.065,12.218C95.046,64.281,93.367,68.698,89.986,72.079z"/>
</svg>