<svg xmlns="http://www.w3.org/2000/svg" xmlns:xlink="http://www.w3.org/1999/xlink" version="1.1" id="Ebene_1" x="0px" y="0px" width="100px" height="100px" viewBox="0 0 100 100" enable-background="new 0 0 100 100" xml:space="preserve">
<path d="M82.571,42.598c0.002-2.784-1.072-5.586-3.195-7.709c-2.13-2.13-4.935-3.201-7.722-3.2c-0.732,0-1.466,0.079-2.185,0.225  c0.146-0.722,0.224-1.454,0.223-2.188c0.003-2.786-1.068-5.59-3.197-7.718c-2.129-2.132-4.938-3.2-7.727-3.197  c-2.784-0.003-5.585,1.07-7.709,3.195c-2.133-2.13-4.94-3.198-7.727-3.195c-2.786-0.003-5.587,1.072-7.71,3.197  c-2.131,2.128-3.202,4.933-3.198,7.723c0,0.731,0.077,1.461,0.222,2.182c-0.722-0.146-1.454-0.226-2.186-0.225  c-2.788-0.002-5.59,1.072-7.717,3.201c-2.132,2.128-3.201,4.935-3.197,7.724c-0.003,2.786,1.068,5.587,3.192,7.713  c-2.131,2.127-3.195,4.936-3.192,7.724c-0.003,2.787,1.073,5.589,3.197,7.711c2.127,2.128,4.934,3.199,7.72,3.199h0.007  c0.73,0,1.458-0.077,2.176-0.225c-0.146,0.722-0.224,1.456-0.222,2.188c-0.004,2.788,1.07,5.591,3.199,7.718  c2.124,2.127,4.931,3.199,7.719,3.198c2.787,0.001,5.588-1.069,7.717-3.193c2.125,2.124,4.931,3.194,7.716,3.193h0.006  c2.786,0,5.589-1.072,7.717-3.198c2.122-2.127,3.197-4.926,3.197-7.712c0-0.734-0.078-1.469-0.226-2.194  c0.723,0.148,1.456,0.226,2.189,0.226h0.005c2.786,0,5.588-1.071,7.712-3.198c2.128-2.131,3.199-4.938,3.195-7.726  c0.002-2.785-1.069-5.586-3.192-7.71C81.508,48.192,82.573,45.386,82.571,42.598z M38.197,24.583  c1.425-1.424,3.273-2.131,5.136-2.133c1.874,0.002,3.729,0.705,5.159,2.133l2.566,2.569l2.569-2.569  c1.427-1.424,3.275-2.131,5.141-2.133c1.874,0.002,3.727,0.705,5.154,2.133c1.424,1.426,2.13,3.275,2.131,5.143  c-0.001,1.872-0.707,3.725-2.131,5.153L51.06,47.741L38.197,34.878c-1.427-1.428-2.131-3.279-2.131-5.147  C36.066,27.858,36.771,26.008,38.197,24.583z M30.464,65.318c-1.868-0.001-3.72-0.706-5.144-2.132  c-1.427-1.425-2.132-3.273-2.134-5.138c0.002-1.874,0.704-3.73,2.13-5.154l2.572-2.568l-2.568-2.57  c-1.427-1.428-2.134-3.278-2.135-5.144c0.003-1.873,0.705-3.724,2.131-5.15c1.428-1.425,3.278-2.133,5.145-2.134  c1.87,0.001,3.725,0.704,5.15,2.133l12.865,12.863L35.614,63.187C34.188,64.612,32.333,65.317,30.464,65.318z M63.923,76.066  c-1.427,1.425-3.278,2.132-5.147,2.132c-1.868,0-3.723-0.707-5.147-2.132l-2.567-2.57l-2.568,2.57  c-1.428,1.425-3.281,2.132-5.149,2.132c-1.869,0-3.721-0.707-5.146-2.132c-1.425-1.426-2.131-3.277-2.134-5.145  c0.003-1.874,0.706-3.726,2.131-5.149L51.06,52.908L63.923,65.77c1.426,1.427,2.128,3.282,2.133,5.158  C66.054,72.791,65.346,74.641,63.923,76.066z M76.8,63.19c-1.423,1.422-3.275,2.127-5.141,2.13  c-1.874-0.003-3.729-0.708-5.152-2.131L53.643,50.325l12.864-12.864c1.427-1.424,3.276-2.13,5.147-2.133  c1.867,0.003,3.719,0.709,5.147,2.133c1.423,1.424,2.127,3.274,2.13,5.137c-0.003,1.875-0.707,3.73-2.132,5.16l-2.568,2.564  l2.568,2.572c1.425,1.424,2.132,3.274,2.133,5.141C78.929,59.906,78.227,61.76,76.8,63.19z"/>
</svg>