<svg xmlns="http://www.w3.org/2000/svg" xmlns:xlink="http://www.w3.org/1999/xlink" version="1.1" id="Ebene_1" x="0px" y="0px" width="100px" height="100px" viewBox="0 0 100 100" enable-background="new 0 0 100 100" xml:space="preserve">
<path d="M70.517,17.892C69.676,7.872,61.29,0.002,51.055,0C40.816,0.002,32.436,7.872,31.597,17.89  c-7.925,2.491-13.672,9.895-13.672,18.645c0,9.786,7.191,17.891,16.571,19.319L51.051,100l16.557-44.146  c9.389-1.426,16.58-9.533,16.58-19.319C84.188,27.786,78.44,20.384,70.517,17.892z M51.055,3.397  c8.098,0,14.795,5.969,15.954,13.744c-0.774-0.094-1.562-0.148-2.361-0.148c-5.287,0-10.078,2.104-13.597,5.515  c-3.514-3.408-8.312-5.515-13.594-5.515c-0.797,0-1.583,0.055-2.356,0.146C36.26,9.364,42.957,3.397,51.055,3.397z M21.324,36.535  c0.016-8.914,7.227-16.126,16.133-16.143c4.439,0.002,8.442,1.792,11.364,4.69c-2.333,3.22-3.713,7.174-3.713,11.453  s1.381,8.235,3.713,11.454c-2.922,2.9-6.925,4.689-11.364,4.689C28.55,52.662,21.339,45.449,21.324,36.535z M51.051,90.322  L38.203,56.057c4.986-0.188,9.5-2.248,12.848-5.492c3.351,3.248,7.86,5.307,12.851,5.494L51.051,90.322z M64.647,52.678  c-8.915-0.016-16.126-7.228-16.141-16.143c0.015-8.914,7.226-16.126,16.141-16.143c8.916,0.017,16.126,7.229,16.142,16.143  C80.773,45.45,73.563,52.662,64.647,52.678z"/>
</svg>