<svg xmlns="http://www.w3.org/2000/svg" xmlns:xlink="http://www.w3.org/1999/xlink" version="1.1" id="Ebene_1" x="0px" y="0px" width="100px" height="100px" viewBox="0 0 100 100" enable-background="new 0 0 100 100" xml:space="preserve">
<path d="M100.084,48.593h-3.527c-0.873-10.142-9.375-18.102-19.746-18.102c-8.658,0-16.014,5.549-18.717,13.283  c-1.895-2.319-4.779-3.801-8.008-3.801c-3.232,0-6.112,1.48-8.011,3.799c-2.703-7.734-10.058-13.281-18.715-13.281  c-10.369,0-18.871,7.96-19.746,18.102h-3.53v3.448h3.53c0.875,10.143,9.377,18.102,19.746,18.104  c10.951-0.003,19.826-8.877,19.828-19.827l0,0c0.008-3.809,3.088-6.89,6.898-6.898c3.805,0.008,6.887,3.089,6.895,6.898h0.004  c0.002,10.949,8.875,19.825,19.826,19.825c10.367,0,18.871-7.96,19.746-18.102h3.527V48.593z M23.359,66.696  c-9.044-0.017-16.361-7.335-16.377-16.38c0.016-9.045,7.333-16.362,16.377-16.378c9.046,0.016,16.362,7.334,16.379,16.378  C39.721,59.361,32.405,66.68,23.359,66.696z M76.811,66.696c-9.045-0.016-16.361-7.333-16.379-16.381  c0.018-9.044,7.334-16.36,16.379-16.377c9.045,0.017,16.363,7.334,16.377,16.377C93.174,59.363,85.855,66.681,76.811,66.696z"/>
</svg>