<svg xmlns="http://www.w3.org/2000/svg" xmlns:xlink="http://www.w3.org/1999/xlink" version="1.1" id="Ebene_1" x="0px" y="0px" width="100px" height="100px" viewBox="0 0 100 100" enable-background="new 0 0 100 100" xml:space="preserve">
<path d="M96.873,45.474c-0.006,3.568-2.891,6.455-6.459,6.46c-3.568-0.006-6.455-2.892-6.461-6.46h-3.211l0,0H80.74  c-0.006,3.568-2.891,6.455-6.459,6.46c-3.566-0.006-6.453-2.892-6.461-6.46h-3.209c-0.006,3.567-2.895,6.455-6.461,6.46  c-3.568-0.006-6.451-2.89-6.461-6.453c0-0.003,0-0.005,0-0.008h-3.211c-0.007,3.568-2.894,6.455-6.459,6.46  c-3.568-0.006-6.455-2.892-6.461-6.46h-0.001l0,0h-3.21c-0.007,3.566-2.893,6.455-6.459,6.46c-3.567-0.006-6.454-2.894-6.461-6.46  h-3.209l0,0h-0.001c-0.008,3.567-2.894,6.455-6.462,6.46c-3.566-0.006-6.452-2.893-6.459-6.46h-3.21c0,5.343,4.328,9.67,9.669,9.672  c3.373-0.002,6.336-1.729,8.068-4.343c1.729,2.615,4.694,4.341,8.065,4.343c3.369-0.002,6.335-1.729,8.065-4.343  c1.731,2.614,4.695,4.341,8.067,4.341c3.369,0,6.333-1.726,8.064-4.341c1.731,2.615,4.696,4.341,8.067,4.341  s6.334-1.726,8.066-4.339c1.73,2.613,4.693,4.339,8.064,4.341c3.373-0.002,6.336-1.728,8.066-4.341  c1.73,2.613,4.695,4.339,8.066,4.342c5.342-0.003,9.67-4.33,9.67-9.673H96.873z"/>
</svg>