<svg xmlns="http://www.w3.org/2000/svg" xmlns:xlink="http://www.w3.org/1999/xlink" version="1.1" id="Ebene_1" x="0px" y="0px" width="100px" height="100px" viewBox="0 0 100 100" enable-background="new 0 0 100 100" xml:space="preserve">
<path d="M65.828,29.395c-5.662,0.002-10.793,2.253-14.561,5.904c-3.767-3.65-8.897-5.9-14.559-5.902  c-11.559,0.002-20.925,9.369-20.927,20.928c0.002,11.559,9.368,20.928,20.927,20.929c5.661,0,10.792-2.251,14.56-5.903  c3.767,3.652,8.897,5.902,14.56,5.903c11.559-0.003,20.915-9.371,20.915-20.927C86.743,38.765,77.387,29.398,65.828,29.395z   M51.268,59.623c-1.718-2.684-2.721-5.872-2.726-9.297c0.005-3.428,1.008-6.616,2.727-9.299c1.718,2.683,2.722,5.871,2.728,9.297  C53.99,53.75,52.986,56.939,51.268,59.623z M19.422,50.324c0.017-9.548,7.739-17.272,17.287-17.288  c4.748,0.008,9.045,1.924,12.167,5.023c-2.497,3.446-3.975,7.682-3.976,12.267c0.001,4.581,1.479,8.816,3.976,12.263  c-3.122,3.1-7.419,5.016-12.167,5.024C27.161,67.595,19.438,59.871,19.422,50.324z M65.828,67.614  c-4.749-0.009-9.046-1.926-12.168-5.024c2.498-3.447,3.975-7.683,3.977-12.266c-0.002-4.583-1.479-8.818-3.977-12.265  c3.122-3.099,7.419-5.016,12.168-5.023c9.546,0.018,17.265,7.741,17.281,17.29C83.093,59.871,75.374,67.598,65.828,67.614z"/>
</svg>