<svg xmlns="http://www.w3.org/2000/svg" xmlns:xlink="http://www.w3.org/1999/xlink" version="1.1" id="Ebene_1" x="0px" y="0px" width="100px" height="100px" viewBox="0 0 100 100" enable-background="new 0 0 100 100" xml:space="preserve">
<path d="M9.152,50.321C9.158,27.014,28.047,8.117,51.354,8.117l0,0c23.31,0,42.198,18.898,42.198,42.204l0,0  c0,23.31-18.889,42.204-42.198,42.208l0,0C28.047,92.525,9.158,73.633,9.152,50.321L9.152,50.321z M16.49,50.321  c0.042,19.255,15.613,34.831,34.864,34.868l0,0c19.253-0.037,34.827-15.613,34.86-34.868l0,0  c-0.033-19.251-15.607-34.829-34.86-34.864l0,0C32.104,15.493,16.532,31.07,16.49,50.321L16.49,50.321z"/>
<path d="M51.351,72.325c-5.617,0.002-11.271-2.156-15.556-6.445l0,0c-4.282-4.282-6.448-9.924-6.446-15.539l0,0  c-0.002-5.623,2.15-11.287,6.45-15.574l0,0c4.285-4.295,9.939-6.452,15.552-6.444l0,0c5.623-0.008,11.274,2.154,15.562,6.444l0,0  l-5.162,5.166c-2.883-2.879-6.625-4.303-10.4-4.307l0,0c-3.771,0.004-7.509,1.428-10.393,4.307l0,0  c-2.877,2.875-4.299,6.621-4.303,10.408l0,0c0.004,3.766,1.432,7.498,4.309,10.379l0,0c2.874,2.871,6.613,4.297,10.387,4.301l0,0  c3.775-0.004,7.518-1.43,10.393-4.305l0,0l0.008,0.004l5.16,5.16c-4.286,4.289-9.93,6.445-15.547,6.445l0,0  C51.362,72.325,51.356,72.325,51.351,72.325L51.351,72.325z"/>
</svg>