<svg xmlns="http://www.w3.org/2000/svg" xmlns:xlink="http://www.w3.org/1999/xlink" version="1.1" id="Layer_1" x="0px" y="0px" width="100.0px" height="100px" viewBox="0 0 108 108" enable-background="new 0 0 108 108" xml:space="preserve">
<g>
	<path d="M80.396,30.399c-2.775-11.896-1.066-13.724,1.272-14.763l-0.722-1.625c-4.2,1.867-4.775,6.104-2.283,16.792   c1.649,7.068-2.903,12.437-5.985,15.149c-1.854-1.347-4.458-1.189-6.131,0.482l-4.404,4.405c-4.493-2.822-9.804-4.46-15.501-4.46   c-16.119,0-29.185,13.067-29.185,29.185c0,16.119,13.066,29.186,29.185,29.186c16.118,0,29.184-13.066,29.184-29.186   c0-6.993-2.462-13.409-6.562-18.436l3.988-3.989c1.603-1.603,1.815-4.066,0.644-5.9C77.285,44.234,82.24,38.303,80.396,30.399z    M31.501,59.756c-4.208,4.578-5.349,10.578-6.93,9.125c-1.581-1.453-0.328-7.249,3.88-11.828c4.208-4.577,9.778-6.203,11.359-4.75   C41.392,53.756,35.709,55.18,31.501,59.756z"/>
	<path d="M79.976,8.231c0.004,0,0.009,0,0.014,0c0.164-0.008,0.29-0.147,0.281-0.311l-0.148-2.889   c-0.009-0.163-0.126-0.294-0.311-0.281c-0.164,0.008-0.289,0.148-0.281,0.311l0.148,2.889C79.687,8.108,79.818,8.231,79.976,8.231z   "/>
	<path d="M75.241,11.218c0.054,0.041,0.116,0.059,0.179,0.059c0.088,0,0.178-0.041,0.236-0.118c0.098-0.131,0.07-0.317-0.06-0.415   l-2.794-2.092c-0.13-0.098-0.317-0.071-0.416,0.06c-0.098,0.13-0.07,0.316,0.06,0.415L75.241,11.218z"/>
	<path d="M70.089,15.86l3.646,0.222c0.006,0,0.013,0,0.018,0c0.156,0,0.286-0.121,0.297-0.278c0.009-0.164-0.114-0.304-0.278-0.313   l-3.646-0.223c-0.163-0.013-0.303,0.115-0.313,0.278C69.803,15.709,69.928,15.851,70.089,15.86z"/>
	<path d="M74.083,21.188l-2.341,1.926c-0.126,0.104-0.145,0.29-0.04,0.417c0.058,0.071,0.143,0.108,0.229,0.108   c0.065,0,0.133-0.022,0.188-0.068l2.342-1.926c0.126-0.104,0.143-0.29,0.039-0.416C74.395,21.102,74.209,21.083,74.083,21.188z"/>
	<path d="M83.347,21.793c-0.08-0.144-0.257-0.196-0.402-0.119c-0.144,0.077-0.197,0.257-0.119,0.401l1.927,3.556   c0.052,0.099,0.155,0.155,0.26,0.155c0.047,0,0.097-0.012,0.141-0.036c0.144-0.078,0.198-0.258,0.12-0.401L83.347,21.793z"/>
	<path d="M88.8,18.824l-3.777-0.148c-0.191-0.001-0.301,0.122-0.307,0.285c-0.007,0.163,0.121,0.302,0.283,0.308l3.777,0.148   c0.006,0,0.011,0,0.014,0c0.158,0,0.288-0.125,0.296-0.285C89.092,18.968,88.964,18.83,88.8,18.824z"/>
	<path d="M90.174,11.675c-0.06-0.152-0.234-0.225-0.385-0.163l-4,1.63c-0.152,0.062-0.226,0.234-0.163,0.386   c0.047,0.115,0.157,0.185,0.274,0.185c0.038,0,0.074-0.007,0.111-0.022l4.001-1.629C90.163,11.999,90.236,11.827,90.174,11.675z"/>
	<path d="M83.334,10.205c0.039,0.018,0.081,0.026,0.122,0.026c0.112,0,0.222-0.064,0.271-0.174l1.557-3.444   c0.065-0.149,0-0.324-0.148-0.392c-0.151-0.067-0.325-0.001-0.394,0.148l-1.556,3.444C83.118,9.962,83.186,10.138,83.334,10.205z"/>
</g>
</svg>