<?xml version="1.0" encoding="utf-8"?>
<!-- Generator: Adobe Illustrator 15.1.0, SVG Export Plug-In . SVG Version: 6.00 Build 0)  -->
<!DOCTYPE svg PUBLIC "-//W3C//DTD SVG 1.1//EN" "http://www.w3.org/Graphics/SVG/1.1/DTD/svg11.dtd">
<svg version="1.1" id="Layer_1" xmlns="http://www.w3.org/2000/svg" xmlns:xlink="http://www.w3.org/1999/xlink" x="0px" y="0px"
	 width="99.974px" height="64px" viewBox="0 0 99.974 64" enable-background="new 0 0 99.974 64" xml:space="preserve">
<path d="M63.174,19.803c-0.641-1.265-1.491-1.4-3.558-1.4c-0.063-0.001-0.126,0-0.189,0c-1.199,0-2.43-0.025-3.509-0.721
	c-0.571-0.367-1.131-0.845-1.725-1.35C52.908,15.239,51.453,14,50,14s-2.908,1.239-4.193,2.332c-0.594,0.505-1.153,0.982-1.724,1.35
	c-1.124,0.724-2.403,0.729-3.655,0.721c-0.015,0-0.029,0-0.044,0c-2.067,0-2.917,0.136-3.595,1.492
	c-0.08,0.332,0.055,1.345,0.32,2.562C40.021,20.97,44.703,20,50,20c5.294,0,9.973,0.969,12.885,2.454
	C63.147,21.224,63.275,20.187,63.174,19.803z"/>
<path d="M8.264,38.018c1.141,0.153,3.214-0.251,5.217-0.641c3.426-0.668,6.969-1.354,9.395-0.176
	c2.281,1.11,4.255,3.818,6.346,6.685c1.93,2.648,4.332,5.943,5.998,6.126c1.451,0.183,4.293-1.735,6.592-3.257
	C44.73,44.824,47.489,43,50,43v-0.02c2.511,0,5.27,1.824,8.189,3.755c2.299,1.522,5.169,3.436,6.592,3.257
	c1.666-0.183,4.068-3.478,5.998-6.126c2.091-2.866,4.064-5.574,6.345-6.684c2.427-1.182,5.968-0.493,9.396,0.175
	c2.004,0.39,4.075,0.793,5.217,0.641c1.37-0.183,4.815-2.555,8.237-5.336C99.98,32.441,100,32.222,100,32c0-17.673-22.386-32-50-32
	S0,14.327,0,32c0,0.229,0.02,0.454,0.027,0.682C3.449,35.463,6.896,37.836,8.264,38.018z M33.211,18.105
	c1.854-3.707,5.209-3.698,7.22-3.703c0.513,0,1.291,0.001,1.511-0.098c0.322-0.209,0.783-0.603,1.272-1.019
	C44.844,11.899,47.075,10,50,10s5.156,1.899,6.786,3.286c0.489,0.416,0.95,0.81,1.297,1.032c0.196,0.086,0.972,0.083,1.486,0.084
	c1.988,0.005,5.366-0.004,7.22,3.703c0.996,1.994-0.097,6.098-0.861,8.431C65.203,29.599,58.354,32,50,32
	s-15.203-2.401-15.928-5.464C33.308,24.203,32.215,20.1,33.211,18.105z"/>
<path d="M92.264,41.963c-1.789,0.241-4.082-0.207-6.508-0.68c-2.389-0.465-5.655-1.102-6.881-0.504
	c-1.385,0.674-3.232,3.208-4.863,5.443c-2.641,3.624-5.373,7.37-8.793,7.746c-0.198,0.021-0.396,0.032-0.597,0.032
	c-2.7,0-5.591-1.912-8.64-3.929C53.9,48.694,51.308,46.98,50,46.98V47c-1.308,0-3.9,1.714-5.982,3.092
	c-3.049,2.017-5.94,3.929-8.64,3.929c-0.2,0-0.398-0.011-0.597-0.032c-3.42-0.376-6.152-4.122-8.793-7.746
	c-1.631-2.235-3.479-4.77-4.863-5.444c-1.225-0.595-4.494,0.04-6.881,0.505c-2.426,0.473-4.717,0.919-6.508,0.68
	C6,41.752,3.482,40.259,1.037,38.509C5.736,53.061,25.871,64,50,64c24.144,0,44.289-10.952,48.972-25.517
	C96.524,40.235,94.002,41.732,92.264,41.963z"/>
</svg>
