<svg xmlns="http://www.w3.org/2000/svg" xmlns:xlink="http://www.w3.org/1999/xlink" version="1.1" id="Isolation_Mode" x="0px" y="0px" width="100px" height="100px" viewBox="0 0 100 100" enable-background="new 0 0 100 100" xml:space="preserve">
<pattern width="13.5" height="13.5" patternUnits="userSpaceOnUse" id="New_Pattern_Swatch_2" viewBox="0.957 -14.234 13.5 13.5" overflow="visible">
	<g>
		<polygon fill="none" points="14.457,-0.734 0.957,-0.734 0.957,-14.234 14.457,-14.234   "/>
		<g>
			<path fill="#000000" d="M4.989-11.566c-0.012,0-0.023,0-0.023,0.012c-0.049,0.232-0.123,0.403-0.293,0.562     c-0.196,0.195-0.416,0.256-0.502,0.269c-0.037,0.012-0.037,0.012-0.037,0.024c0,0.012,0,0.024,0.037,0.024     c0.172,0.036,0.354,0.122,0.514,0.269c0.146,0.158,0.244,0.366,0.281,0.537c0,0.024,0.012,0.024,0.023,0.024     c0,0,0.013,0,0.013-0.012c0.024-0.171,0.134-0.392,0.293-0.55c0.159-0.159,0.366-0.244,0.525-0.281     c0.013,0,0.013-0.012,0.013-0.012c0-0.013,0-0.013-0.013-0.013c-0.208-0.049-0.392-0.146-0.525-0.28     c-0.159-0.172-0.257-0.392-0.293-0.55C5.002-11.566,4.989-11.566,4.989-11.566z"/>
			<path fill="#000000" d="M5.304-9.549c0,0-0.012,0-0.012,0.012C5.267-9.414,5.23-9.329,5.133-9.231     c-0.11,0.11-0.231,0.135-0.28,0.146c-0.014,0-0.014,0.013-0.014,0.013s0,0.012,0.014,0.012c0.098,0.024,0.195,0.073,0.28,0.159     c0.085,0.073,0.146,0.195,0.159,0.293l0.012,0.013l0.012-0.013C5.328-8.706,5.39-8.816,5.475-8.914     C5.56-8.999,5.671-9.048,5.769-9.061L5.78-9.072L5.769-9.085C5.646-9.109,5.548-9.158,5.475-9.231     C5.39-9.329,5.328-9.451,5.315-9.537C5.315-9.549,5.304-9.549,5.304-9.549z"/>
			<path fill="#000000" d="M7.522-8.349c-0.012,0-0.012,0.013-0.012,0.013C7.474-8.153,7.412-8.019,7.278-7.885     C7.119-7.726,6.937-7.689,6.874-7.677C6.851-7.664,6.851-7.664,6.851-7.652s0,0.012,0.023,0.024     c0.135,0.024,0.281,0.098,0.404,0.22c0.121,0.11,0.207,0.281,0.232,0.428c0,0.012,0,0.012,0.012,0.012s0.012,0,0.012-0.012     C7.56-7.115,7.644-7.286,7.767-7.42C7.901-7.543,8.06-7.615,8.194-7.641c0.012,0,0.012-0.012,0.012-0.012s0-0.012-0.012-0.012     c-0.172-0.037-0.306-0.11-0.428-0.221C7.644-8.019,7.56-8.202,7.534-8.336C7.534-8.336,7.534-8.349,7.522-8.349z"/>
			<path fill="#000000" d="M7.707-10.146c-0.013,0-0.013,0.013-0.013,0.013c-0.023,0.109-0.061,0.195-0.146,0.28     C7.45-9.755,7.341-9.73,7.304-9.718c-0.023,0-0.023,0-0.023,0.012c0,0,0,0.013,0.012,0.013C7.39-9.682,7.476-9.633,7.548-9.559     c0.086,0.072,0.135,0.183,0.146,0.268c0,0.013,0,0.013,0.013,0.013c0,0,0,0,0-0.013C7.731-9.376,7.78-9.486,7.854-9.559     c0.084-0.086,0.182-0.123,0.268-0.135c0.012-0.013,0.012-0.013,0.012-0.013s0-0.012-0.012-0.012     C8.013-9.742,7.927-9.791,7.866-9.853c-0.086-0.085-0.135-0.195-0.159-0.28C7.707-10.146,7.707-10.146,7.707-10.146z"/>
			<path fill="#000000" d="M5.357-7.756c-0.012,0-0.012,0.013-0.012,0.013C5.309-7.561,5.247-7.426,5.113-7.291     C4.954-7.133,4.771-7.096,4.71-7.084C4.686-7.071,4.686-7.071,4.686-7.059c0,0.012,0,0.012,0.024,0.023     C4.845-7.01,4.991-6.938,5.113-6.814c0.122,0.109,0.208,0.281,0.232,0.428c0,0.012,0,0.012,0.012,0.012     c0.013,0,0.013,0,0.013-0.012c0.024-0.135,0.109-0.307,0.231-0.439c0.135-0.123,0.294-0.196,0.428-0.221     c0.013,0,0.013-0.012,0.013-0.012s0-0.013-0.013-0.013c-0.171-0.036-0.306-0.11-0.428-0.22C5.479-7.426,5.395-7.609,5.37-7.743     C5.37-7.743,5.37-7.756,5.357-7.756z"/>
			<path fill="#000000" d="M6.22-8.596c-0.012,0-0.012,0.012-0.012,0.012c-0.025,0.11-0.062,0.195-0.146,0.281     C5.964-8.205,5.853-8.181,5.817-8.168c-0.025,0-0.025,0-0.025,0.012c0,0,0,0.012,0.012,0.012C5.901-8.132,5.987-8.083,6.062-8.01     c0.085,0.073,0.134,0.184,0.146,0.269c0,0.013,0,0.013,0.012,0.013c0,0,0,0,0-0.013C6.244-7.826,6.293-7.937,6.366-8.01     c0.086-0.085,0.184-0.122,0.27-0.135c0.012-0.012,0.012-0.012,0.012-0.012s0-0.012-0.012-0.012     C6.524-8.193,6.44-8.242,6.378-8.303C6.293-8.389,6.244-8.498,6.22-8.584C6.22-8.596,6.22-8.596,6.22-8.596z"/>
			<path fill="#000000" d="M9.538-6.98c-0.013,0-0.013,0-0.013,0.012C9.477-6.761,9.403-6.59,9.245-6.443     C9.062-6.248,8.841-6.199,8.769-6.187C8.731-6.174,8.731-6.174,8.731-6.162s0,0.012,0.037,0.024     c0.158,0.024,0.342,0.11,0.488,0.257c0.135,0.146,0.232,0.354,0.269,0.513c0,0.013,0,0.013,0.013,0.013     c0.012,0,0.012,0,0.012-0.013c0.037-0.159,0.135-0.366,0.281-0.513c0.158-0.146,0.342-0.232,0.5-0.27     c0.013,0,0.025-0.012,0.025-0.012s-0.013-0.012-0.025-0.012c-0.195-0.049-0.365-0.135-0.5-0.27     C9.685-6.602,9.587-6.81,9.55-6.969C9.55-6.98,9.55-6.98,9.538-6.98z"/>
			<path fill="#000000" d="M14.733-9.408c-0.012,0-0.012,0-0.012,0.012c-0.049,0.208-0.123,0.379-0.281,0.525     c-0.184,0.195-0.402,0.244-0.477,0.257c-0.036,0.012-0.036,0.012-0.036,0.024c0,0.012,0,0.012,0.036,0.024     c0.159,0.024,0.342,0.109,0.488,0.257c0.135,0.146,0.232,0.354,0.27,0.513c0,0.012,0,0.012,0.012,0.012     c0.013,0,0.013,0,0.013-0.012c0.036-0.159,0.134-0.366,0.28-0.513c0.16-0.147,0.342-0.232,0.502-0.27     c0.012,0,0.023-0.012,0.023-0.012s-0.012-0.013-0.023-0.013c-0.195-0.049-0.367-0.134-0.502-0.269     c-0.146-0.158-0.244-0.366-0.28-0.525C14.746-9.408,14.746-9.408,14.733-9.408z"/>
			<path fill="#000000" d="M1.234-9.408c-0.012,0-0.012,0-0.012,0.012C1.173-9.188,1.099-9.018,0.941-8.871     C0.757-8.676,0.538-8.627,0.464-8.614C0.428-8.603,0.428-8.603,0.428-8.59c0,0.012,0,0.012,0.037,0.024     c0.159,0.024,0.342,0.109,0.488,0.257c0.135,0.146,0.232,0.354,0.269,0.513c0,0.012,0,0.012,0.012,0.012s0.012,0,0.012-0.012     C1.283-7.955,1.38-8.162,1.527-8.309c0.159-0.147,0.342-0.232,0.501-0.27c0.012,0,0.024-0.012,0.024-0.012     S2.04-8.603,2.028-8.603C1.833-8.651,1.662-8.736,1.527-8.871C1.38-9.029,1.283-9.237,1.246-9.396     C1.246-9.408,1.246-9.408,1.234-9.408z"/>
			<path fill="#000000" d="M6.979-5.604c-0.013,0-0.013,0-0.013,0.013c-0.049,0.208-0.122,0.378-0.28,0.524     C6.503-4.87,6.282-4.821,6.21-4.809C6.173-4.797,6.173-4.797,6.173-4.785c0,0.013,0,0.013,0.037,0.025     C6.368-4.736,6.552-4.65,6.698-4.504C6.833-4.357,6.931-4.15,6.967-3.99c0,0.012,0,0.012,0.013,0.012     c0.012,0,0.012,0,0.012-0.012c0.037-0.16,0.135-0.367,0.281-0.514c0.158-0.146,0.342-0.232,0.5-0.269     c0.013,0,0.025-0.013,0.025-0.013S7.785-4.797,7.772-4.797c-0.195-0.049-0.365-0.135-0.5-0.27     C7.126-5.225,7.028-5.432,6.991-5.591C6.991-5.604,6.991-5.604,6.979-5.604z"/>
			<path fill="#000000" d="M14.306-14.027c-0.012,0-0.012,0-0.012,0.012c-0.049,0.208-0.123,0.379-0.281,0.525     c-0.184,0.195-0.402,0.244-0.477,0.257C13.5-13.221,13.5-13.221,13.5-13.209s0,0.012,0.036,0.024     c0.159,0.024,0.342,0.11,0.488,0.257c0.135,0.146,0.232,0.354,0.27,0.513c0,0.013,0,0.013,0.012,0.013     c0.013,0,0.013,0,0.013-0.013c0.036-0.159,0.134-0.366,0.28-0.513c0.16-0.146,0.342-0.232,0.502-0.27     c0.012,0,0.023-0.012,0.023-0.012s-0.012-0.012-0.023-0.012c-0.195-0.049-0.367-0.135-0.502-0.27     c-0.146-0.158-0.244-0.366-0.28-0.525C14.318-14.027,14.318-14.027,14.306-14.027z"/>
			<path fill="#000000" d="M0.806-14.027c-0.012,0-0.012,0-0.012,0.012c-0.049,0.208-0.123,0.379-0.281,0.525     c-0.184,0.195-0.403,0.244-0.477,0.257C0-13.221,0-13.221,0-13.209s0,0.012,0.037,0.024c0.159,0.024,0.342,0.11,0.488,0.257     c0.135,0.146,0.232,0.354,0.269,0.513c0,0.013,0,0.013,0.012,0.013s0.012,0,0.012-0.013c0.037-0.159,0.134-0.366,0.281-0.513     c0.159-0.146,0.342-0.232,0.501-0.27c0.012,0,0.024-0.012,0.024-0.012S1.612-13.221,1.6-13.221     c-0.195-0.049-0.366-0.135-0.501-0.27c-0.146-0.158-0.244-0.366-0.281-0.525C0.818-14.027,0.818-14.027,0.806-14.027z"/>
			<path fill="#000000" d="M9.319-9.062c0,0-0.012,0-0.012,0.012C9.296-8.965,9.247-8.855,9.161-8.77     C9.101-8.709,9.003-8.66,8.905-8.635c-0.014,0-0.014,0-0.014,0.012c0,0,0,0,0.014,0c0.084,0.024,0.183,0.061,0.256,0.146     c0.086,0.073,0.135,0.184,0.146,0.269c0,0.013,0.012,0.013,0.012,0.013s0.013,0,0.013-0.013c0.013-0.085,0.062-0.195,0.147-0.269     C9.552-8.55,9.638-8.599,9.724-8.611c0.023,0,0.023-0.012,0.023-0.012c0-0.012,0-0.012-0.023-0.012     C9.687-8.647,9.577-8.672,9.479-8.77C9.394-8.855,9.356-8.94,9.332-9.051C9.332-9.062,9.332-9.062,9.319-9.062z"/>
			<path fill="#000000" d="M8.862-3.391c0,0-0.013,0-0.013,0.012C8.837-3.293,8.788-3.183,8.703-3.098     c-0.062,0.062-0.159,0.11-0.257,0.135c-0.012,0-0.012,0-0.012,0.012c0,0,0,0,0.012,0C8.532-2.927,8.63-2.89,8.703-2.805     C8.788-2.73,8.837-2.621,8.85-2.535c0,0.012,0.013,0.012,0.013,0.012s0.012,0,0.012-0.012c0.012-0.086,0.061-0.195,0.146-0.27     c0.074-0.073,0.158-0.122,0.244-0.134c0.025,0,0.025-0.013,0.025-0.013c0-0.012,0-0.012-0.025-0.012     C9.228-2.976,9.118-3,9.021-3.098C8.935-3.183,8.898-3.269,8.874-3.379C8.874-3.391,8.874-3.391,8.862-3.391z"/>
			<path fill="#000000" d="M13.5-7.109c0,0-0.013,0-0.013,0.012c-0.012,0.086-0.061,0.196-0.146,0.281     c-0.061,0.062-0.158,0.11-0.256,0.135c-0.013,0-0.013,0-0.013,0.012c0,0,0,0,0.013,0c0.085,0.024,0.184,0.062,0.256,0.146     c0.086,0.074,0.135,0.184,0.146,0.27c0,0.012,0.013,0.012,0.013,0.012s0.013,0,0.013-0.012c0.012-0.086,0.061-0.195,0.146-0.27     c0.073-0.073,0.158-0.122,0.244-0.134c0.024,0,0.024-0.013,0.024-0.013c0-0.012,0-0.012-0.024-0.012     c-0.037-0.013-0.146-0.037-0.244-0.135c-0.086-0.085-0.123-0.171-0.146-0.281C13.513-7.109,13.513-7.109,13.5-7.109z"/>
		</g>
		<g>
			<path fill="#000000" d="M9.392-14.054c-0.01,0-0.018,0-0.018,0.009c-0.035,0.168-0.089,0.291-0.212,0.405     c-0.142,0.142-0.3,0.186-0.361,0.194c-0.026,0.009-0.026,0.009-0.026,0.018s0,0.018,0.026,0.018     c0.123,0.026,0.255,0.088,0.37,0.193c0.105,0.115,0.176,0.265,0.203,0.389c0,0.018,0.008,0.018,0.018,0.018     c0,0,0.008,0,0.008-0.01c0.018-0.123,0.098-0.281,0.212-0.396c0.114-0.114,0.265-0.176,0.379-0.202     c0.009,0,0.009-0.009,0.009-0.009c0-0.009,0-0.009-0.009-0.009c-0.149-0.035-0.282-0.106-0.379-0.203     c-0.114-0.123-0.185-0.282-0.212-0.396C9.399-14.054,9.392-14.054,9.392-14.054z"/>
			<path fill="#000000" d="M9.618-12.381c0,0-0.01,0-0.01,0.009c-0.018,0.089-0.043,0.15-0.114,0.221     c-0.079,0.079-0.167,0.097-0.202,0.105c-0.01,0-0.01,0.009-0.01,0.009s0,0.009,0.01,0.009c0.07,0.018,0.141,0.053,0.202,0.114     c0.062,0.053,0.106,0.142,0.114,0.212l0.01,0.009l0.008-0.009c0.01-0.07,0.053-0.149,0.115-0.22     c0.061-0.062,0.141-0.098,0.211-0.106l0.009-0.009l-0.009-0.009c-0.088-0.018-0.158-0.053-0.211-0.105     c-0.062-0.07-0.105-0.159-0.115-0.221C9.626-12.381,9.618-12.381,9.618-12.381z"/>
			<path fill="#000000" d="M10.841-10.705c-0.008,0-0.008,0.008-0.008,0.008c-0.027,0.133-0.071,0.229-0.168,0.326     c-0.115,0.115-0.247,0.142-0.291,0.15c-0.018,0.009-0.018,0.009-0.018,0.018s0,0.009,0.018,0.018     c0.098,0.018,0.203,0.07,0.291,0.158c0.088,0.08,0.15,0.203,0.168,0.309c0,0.009,0,0.009,0.008,0.009c0.01,0,0.01,0,0.01-0.009     c0.018-0.098,0.078-0.221,0.166-0.316c0.098-0.089,0.212-0.142,0.309-0.159c0.01,0,0.01-0.009,0.01-0.009s0-0.009-0.01-0.009     c-0.123-0.026-0.22-0.079-0.309-0.159c-0.088-0.097-0.148-0.229-0.166-0.326C10.851-10.697,10.851-10.705,10.841-10.705z"/>
			<path fill="#000000" d="M2.823-9.355c-0.008,0-0.008,0.008-0.008,0.008c-0.027,0.133-0.07,0.229-0.168,0.326     C2.533-8.906,2.401-8.88,2.356-8.871C2.339-8.862,2.339-8.862,2.339-8.854s0,0.009,0.018,0.018     c0.098,0.018,0.203,0.07,0.291,0.158c0.088,0.08,0.15,0.203,0.168,0.309c0,0.009,0,0.009,0.008,0.009c0.01,0,0.01,0,0.01-0.009     C2.851-8.467,2.911-8.59,3-8.686c0.097-0.089,0.212-0.142,0.309-0.159c0.009,0,0.009-0.009,0.009-0.009s0-0.009-0.009-0.009     C3.185-8.889,3.089-8.941,3-9.021C2.911-9.118,2.851-9.25,2.833-9.348C2.833-9.348,2.833-9.355,2.823-9.355z"/>
			<path fill="#000000" d="M6.224-13.433c-0.009,0-0.018,0-0.018,0.009c-0.035,0.168-0.088,0.291-0.211,0.405     c-0.141,0.142-0.3,0.186-0.361,0.194c-0.027,0.009-0.027,0.009-0.027,0.018s0,0.018,0.027,0.018     c0.123,0.026,0.256,0.088,0.369,0.193c0.106,0.115,0.177,0.265,0.203,0.389c0,0.018,0.009,0.018,0.018,0.018     c0,0,0.01,0,0.01-0.01c0.018-0.123,0.096-0.281,0.211-0.396c0.114-0.114,0.264-0.176,0.379-0.202     c0.009,0,0.009-0.009,0.009-0.009c0-0.009,0-0.009-0.009-0.009c-0.15-0.035-0.282-0.106-0.379-0.203     c-0.115-0.123-0.186-0.282-0.211-0.396C6.233-13.433,6.224-13.433,6.224-13.433z"/>
			<path fill="#000000" d="M8.051-11.515c-0.009,0-0.009,0.009-0.009,0.009c-0.026,0.132-0.07,0.229-0.168,0.326     c-0.113,0.114-0.246,0.141-0.291,0.149c-0.018,0.009-0.018,0.009-0.018,0.018s0,0.009,0.018,0.018     c0.098,0.018,0.203,0.071,0.291,0.159c0.089,0.079,0.15,0.203,0.168,0.309c0,0.008,0,0.008,0.009,0.008s0.009,0,0.009-0.008     c0.018-0.098,0.079-0.221,0.168-0.317c0.097-0.089,0.211-0.142,0.309-0.159c0.008,0,0.008-0.009,0.008-0.009s0-0.009-0.008-0.009     c-0.124-0.026-0.221-0.079-0.309-0.158c-0.089-0.097-0.15-0.229-0.168-0.326C8.06-11.506,8.06-11.515,8.051-11.515z"/>
			<path fill="#000000" d="M11.351-12.811c-0.008,0-0.008,0.008-0.008,0.008c-0.018,0.08-0.045,0.142-0.105,0.203     c-0.07,0.07-0.15,0.088-0.177,0.097c-0.018,0-0.018,0-0.018,0.009c0,0,0,0.01,0.009,0.01c0.07,0.008,0.133,0.044,0.186,0.097     c0.061,0.053,0.096,0.132,0.105,0.193c0,0.009,0,0.009,0.008,0.009c0,0,0,0,0-0.009c0.018-0.062,0.054-0.141,0.107-0.193     c0.061-0.062,0.131-0.089,0.193-0.097c0.008-0.01,0.008-0.01,0.008-0.01s0-0.009-0.008-0.009     c-0.08-0.018-0.141-0.053-0.186-0.097c-0.062-0.062-0.098-0.141-0.115-0.203C11.351-12.811,11.351-12.811,11.351-12.811z"/>
			<path fill="#000000" d="M12.672-10.527c-0.009,0-0.009,0-0.009,0.008c-0.035,0.15-0.088,0.273-0.203,0.379     c-0.132,0.142-0.291,0.177-0.344,0.186c-0.025,0.009-0.025,0.009-0.025,0.018s0,0.009,0.025,0.018     c0.115,0.018,0.247,0.079,0.353,0.186c0.097,0.105,0.168,0.255,0.194,0.369c0,0.01,0,0.01,0.009,0.01s0.009,0,0.009-0.01     c0.026-0.114,0.097-0.264,0.203-0.369c0.114-0.106,0.246-0.168,0.361-0.194c0.008,0,0.018-0.009,0.018-0.009     s-0.01-0.009-0.018-0.009c-0.142-0.035-0.265-0.097-0.361-0.194c-0.106-0.113-0.177-0.264-0.203-0.379     C12.681-10.527,12.681-10.527,12.672-10.527z"/>
			<path fill="#000000" d="M12.515-12.029c0,0-0.009,0-0.009,0.008c-0.009,0.062-0.044,0.142-0.105,0.203     c-0.044,0.044-0.114,0.079-0.185,0.097c-0.01,0-0.01,0-0.01,0.009c0,0,0,0,0.01,0c0.061,0.018,0.132,0.044,0.185,0.105     c0.062,0.053,0.097,0.133,0.105,0.194c0,0.009,0.009,0.009,0.009,0.009s0.009,0,0.009-0.009c0.009-0.062,0.044-0.142,0.106-0.194     c0.053-0.053,0.113-0.088,0.176-0.097c0.018,0,0.018-0.009,0.018-0.009c0-0.009,0-0.009-0.018-0.009     c-0.027-0.009-0.105-0.026-0.176-0.097c-0.062-0.062-0.089-0.123-0.106-0.203C12.523-12.029,12.523-12.029,12.515-12.029z"/>
			<path fill="#000000" d="M12.185-8.276c0,0-0.01,0-0.01,0.009c-0.008,0.062-0.043,0.142-0.105,0.203     c-0.043,0.044-0.113,0.079-0.185,0.097c-0.009,0-0.009,0-0.009,0.009c0,0,0,0,0.009,0c0.062,0.018,0.132,0.044,0.185,0.105     c0.062,0.053,0.098,0.133,0.105,0.194c0,0.009,0.01,0.009,0.01,0.009s0.009,0,0.009-0.009c0.009-0.062,0.044-0.142,0.106-0.194     c0.053-0.053,0.113-0.088,0.176-0.097c0.018,0,0.018-0.009,0.018-0.009c0-0.009,0-0.009-0.018-0.009     C12.448-7.977,12.37-7.994,12.3-8.064c-0.062-0.062-0.089-0.123-0.106-0.203C12.193-8.276,12.193-8.276,12.185-8.276z"/>
		</g>
		<g>
			<path fill="#000000" d="M11.12-6.1c-0.006,0-0.013,0-0.013,0.006c-0.025,0.122-0.063,0.211-0.153,0.294     c-0.102,0.103-0.217,0.135-0.262,0.142c-0.02,0.006-0.02,0.006-0.02,0.012c0,0.007,0,0.014,0.02,0.014     c0.09,0.019,0.186,0.062,0.268,0.14c0.077,0.083,0.129,0.191,0.147,0.28c0,0.014,0.007,0.014,0.013,0.014     c0,0,0.007,0,0.007-0.007c0.013-0.089,0.069-0.204,0.153-0.287c0.082-0.083,0.191-0.128,0.273-0.146     c0.007,0,0.007-0.007,0.007-0.007c0-0.006,0-0.006-0.007-0.006C11.446-5.678,11.351-5.729,11.28-5.8     c-0.084-0.089-0.135-0.204-0.153-0.287C11.127-6.1,11.12-6.1,11.12-6.1z"/>
			<path fill="#000000" d="M5.85-15.125c-0.013,0-0.013,0-0.013,0.012c-0.049,0.208-0.122,0.379-0.28,0.525     c-0.184,0.195-0.403,0.244-0.477,0.257c-0.036,0.013-0.036,0.013-0.036,0.024s0,0.012,0.036,0.024     c0.159,0.024,0.342,0.11,0.488,0.257c0.135,0.146,0.232,0.354,0.269,0.513c0,0.013,0,0.013,0.013,0.013s0.013,0,0.013-0.013     c0.036-0.159,0.134-0.366,0.28-0.513c0.159-0.146,0.342-0.232,0.501-0.27c0.012,0,0.024-0.012,0.024-0.012     s-0.013-0.012-0.024-0.012c-0.195-0.049-0.366-0.135-0.501-0.27c-0.146-0.158-0.244-0.366-0.28-0.525     C5.862-15.125,5.862-15.125,5.85-15.125z"/>
			<path fill="#000000" d="M7.433-13.951c-0.007,0-0.014,0-0.014,0.007c-0.025,0.122-0.063,0.211-0.152,0.294     c-0.103,0.102-0.217,0.135-0.262,0.141c-0.02,0.006-0.02,0.006-0.02,0.013s0,0.013,0.02,0.013     c0.089,0.02,0.186,0.063,0.268,0.141c0.076,0.083,0.128,0.191,0.146,0.28c0,0.013,0.007,0.013,0.014,0.013     c0,0,0.006,0,0.006-0.006c0.014-0.09,0.07-0.204,0.153-0.287c0.083-0.084,0.191-0.128,0.274-0.146     c0.006,0,0.006-0.007,0.006-0.007c0-0.007,0-0.007-0.006-0.007c-0.108-0.025-0.204-0.076-0.274-0.146     c-0.083-0.09-0.134-0.205-0.153-0.287C7.438-13.951,7.433-13.951,7.433-13.951z"/>
			<path fill="#000000" d="M5.85-1.625c-0.013,0-0.013,0-0.013,0.012c-0.049,0.208-0.122,0.379-0.28,0.525     C5.373-0.893,5.153-0.844,5.08-0.831C5.044-0.818,5.044-0.818,5.044-0.807s0,0.012,0.036,0.024     c0.159,0.024,0.342,0.11,0.488,0.257c0.135,0.146,0.232,0.354,0.269,0.513C5.837,0,5.837,0,5.85,0s0.013,0,0.013-0.013     c0.036-0.159,0.134-0.366,0.28-0.513c0.159-0.146,0.342-0.232,0.501-0.27c0.012,0,0.024-0.012,0.024-0.012     S6.655-0.818,6.644-0.818c-0.195-0.049-0.366-0.135-0.501-0.27c-0.146-0.158-0.244-0.366-0.28-0.525     C5.862-1.625,5.862-1.625,5.85-1.625z"/>
			<path fill="#000000" d="M11.284-5.045c0,0-0.006,0-0.006,0.006c-0.014,0.064-0.032,0.109-0.084,0.16     c-0.057,0.057-0.12,0.07-0.146,0.076c-0.006,0-0.006,0.007-0.006,0.007s0,0.007,0.006,0.007c0.052,0.012,0.103,0.037,0.146,0.082     c0.045,0.039,0.078,0.103,0.084,0.153l0.006,0.007l0.007-0.007c0.007-0.051,0.038-0.108,0.083-0.159     c0.044-0.045,0.102-0.07,0.152-0.076l0.007-0.007l-0.007-0.007c-0.063-0.012-0.114-0.038-0.152-0.076     c-0.045-0.051-0.076-0.115-0.083-0.16C11.291-5.045,11.284-5.045,11.284-5.045z"/>
			<path fill="#000000" d="M12.443-4.418c-0.006,0-0.006,0.006-0.006,0.006c-0.02,0.097-0.052,0.166-0.122,0.236     c-0.082,0.084-0.178,0.103-0.211,0.109c-0.012,0.006-0.012,0.006-0.012,0.013s0,0.007,0.012,0.013     c0.071,0.013,0.147,0.051,0.211,0.114c0.064,0.058,0.109,0.147,0.122,0.224c0,0.006,0,0.006,0.006,0.006     c0.007,0,0.007,0,0.007-0.006c0.013-0.07,0.057-0.16,0.121-0.229c0.07-0.063,0.152-0.103,0.223-0.114     c0.008,0,0.008-0.007,0.008-0.007s0-0.007-0.008-0.007c-0.089-0.019-0.158-0.057-0.223-0.115     c-0.064-0.07-0.108-0.166-0.121-0.236C12.45-4.412,12.45-4.418,12.443-4.418z"/>
			<path fill="#000000" d="M11.038-3.318c-0.006,0-0.006,0.007-0.006,0.007c-0.02,0.097-0.051,0.166-0.121,0.235     c-0.083,0.084-0.179,0.104-0.211,0.109c-0.013,0.007-0.013,0.007-0.013,0.014c0,0.006,0,0.006,0.013,0.012     c0.07,0.014,0.146,0.051,0.211,0.115c0.064,0.058,0.109,0.146,0.121,0.223c0,0.007,0,0.007,0.006,0.007     c0.008,0,0.008,0,0.008-0.007c0.012-0.07,0.057-0.159,0.121-0.229c0.07-0.064,0.152-0.103,0.223-0.115     c0.007,0,0.007-0.006,0.007-0.006s0-0.007-0.007-0.007c-0.09-0.019-0.159-0.058-0.223-0.116     c-0.064-0.069-0.109-0.165-0.121-0.235C11.046-3.312,11.046-3.318,11.038-3.318z"/>
			<path fill="#000000" d="M10.479-1.771c0,0-0.006,0-0.006,0.006c-0.014,0.064-0.032,0.108-0.084,0.159     c-0.057,0.058-0.12,0.071-0.146,0.077c-0.006,0-0.006,0.006-0.006,0.006s0,0.007,0.006,0.007     c0.052,0.013,0.103,0.038,0.146,0.083c0.045,0.038,0.078,0.102,0.084,0.152l0.006,0.007l0.007-0.007     c0.007-0.051,0.038-0.107,0.083-0.158c0.044-0.045,0.102-0.07,0.152-0.077l0.007-0.007l-0.007-0.006     c-0.063-0.013-0.114-0.039-0.152-0.077c-0.045-0.051-0.076-0.114-0.083-0.159C10.486-1.771,10.479-1.771,10.479-1.771z"/>
			<path fill="#000000" d="M11.639-1.145c-0.006,0-0.006,0.006-0.006,0.006c-0.02,0.096-0.052,0.166-0.122,0.236     c-0.082,0.083-0.178,0.102-0.211,0.109c-0.012,0.006-0.012,0.006-0.012,0.012c0,0.007,0,0.007,0.012,0.014     c0.071,0.012,0.147,0.051,0.211,0.113c0.064,0.059,0.109,0.148,0.122,0.225c0,0.006,0,0.006,0.006,0.006     c0.007,0,0.007,0,0.007-0.006c0.013-0.07,0.057-0.16,0.121-0.23c0.07-0.063,0.152-0.102,0.223-0.114     c0.008,0,0.008-0.007,0.008-0.007s0-0.006-0.008-0.006c-0.089-0.02-0.158-0.058-0.223-0.115c-0.064-0.07-0.108-0.166-0.121-0.236     C11.646-1.139,11.646-1.145,11.639-1.145z"/>
			<path fill="#000000" d="M11.639-14.645c-0.006,0-0.006,0.006-0.006,0.006c-0.02,0.096-0.052,0.166-0.122,0.236     c-0.082,0.083-0.178,0.102-0.211,0.109c-0.012,0.006-0.012,0.006-0.012,0.012c0,0.007,0,0.007,0.012,0.014     c0.071,0.012,0.147,0.051,0.211,0.113c0.064,0.059,0.109,0.148,0.122,0.225c0,0.006,0,0.006,0.006,0.006     c0.007,0,0.007,0,0.007-0.006c0.013-0.07,0.057-0.16,0.121-0.23c0.07-0.063,0.152-0.102,0.223-0.114     c0.008,0,0.008-0.007,0.008-0.007s0-0.006-0.008-0.006c-0.089-0.02-0.158-0.058-0.223-0.115c-0.064-0.07-0.108-0.166-0.121-0.236     C11.646-14.639,11.646-14.645,11.639-14.645z"/>
			<path fill="#000000" d="M12.54-5.357c-0.006,0-0.006,0.007-0.006,0.007c-0.014,0.058-0.032,0.103-0.076,0.147     c-0.052,0.051-0.109,0.063-0.129,0.07c-0.012,0-0.012,0-0.012,0.006c0,0,0,0.006,0.006,0.006c0.051,0.007,0.096,0.032,0.135,0.07     c0.044,0.039,0.069,0.096,0.076,0.141c0,0.007,0,0.007,0.006,0.007c0,0,0,0,0-0.007c0.013-0.045,0.039-0.102,0.077-0.141     c0.044-0.045,0.095-0.063,0.14-0.07c0.007-0.006,0.007-0.006,0.007-0.006s0-0.006-0.007-0.006     c-0.057-0.014-0.102-0.039-0.134-0.07c-0.044-0.045-0.07-0.103-0.083-0.147C12.54-5.357,12.54-5.357,12.54-5.357z"/>
			<path fill="#000000" d="M13.497-3.703c-0.007,0-0.007,0-0.007,0.006c-0.025,0.109-0.063,0.199-0.146,0.275     c-0.097,0.102-0.211,0.127-0.249,0.134c-0.02,0.007-0.02,0.007-0.02,0.013c0,0.007,0,0.007,0.02,0.014     c0.082,0.012,0.178,0.057,0.255,0.133c0.07,0.077,0.122,0.186,0.141,0.269c0,0.007,0,0.007,0.007,0.007     c0.006,0,0.006,0,0.006-0.007c0.02-0.083,0.07-0.191,0.146-0.269c0.084-0.076,0.18-0.121,0.262-0.14     c0.007,0,0.014-0.007,0.014-0.007s-0.007-0.006-0.014-0.006c-0.102-0.025-0.191-0.07-0.262-0.141     c-0.076-0.083-0.127-0.191-0.146-0.275C13.503-3.703,13.503-3.703,13.497-3.703z"/>
			<path fill="#000000" d="M13.383-4.791c0,0-0.007,0-0.007,0.006C13.37-4.74,13.345-4.683,13.3-4.638     c-0.031,0.032-0.083,0.058-0.134,0.07c-0.007,0-0.007,0-0.007,0.007c0,0,0,0,0.007,0c0.044,0.012,0.096,0.031,0.134,0.076     c0.045,0.038,0.07,0.096,0.076,0.14c0,0.007,0.007,0.007,0.007,0.007s0.007,0,0.007-0.007c0.006-0.044,0.031-0.102,0.076-0.14     c0.039-0.039,0.083-0.064,0.128-0.07c0.013,0,0.013-0.006,0.013-0.006c0-0.007,0-0.007-0.013-0.007     c-0.02-0.007-0.077-0.019-0.128-0.07c-0.045-0.045-0.064-0.09-0.076-0.147C13.39-4.791,13.39-4.791,13.383-4.791z"/>
			<path fill="#000000" d="M7.144-2.582c-0.006,0-0.006,0.006-0.006,0.006C7.125-2.518,7.106-2.473,7.062-2.428     C7.011-2.377,6.952-2.365,6.934-2.358c-0.013,0-0.013,0-0.013,0.007c0,0,0,0.006,0.006,0.006c0.051,0.006,0.096,0.031,0.135,0.07     c0.045,0.038,0.07,0.096,0.076,0.141c0,0.006,0,0.006,0.006,0.006c0,0,0,0,0-0.006C7.157-2.18,7.183-2.237,7.222-2.275     c0.043-0.045,0.095-0.064,0.14-0.07c0.007-0.006,0.007-0.006,0.007-0.006s0-0.007-0.007-0.007     C7.304-2.371,7.259-2.396,7.228-2.428c-0.045-0.045-0.07-0.104-0.084-0.148C7.144-2.582,7.144-2.582,7.144-2.582z"/>
			<path fill="#000000" d="M7.987-2.016c0,0-0.007,0-0.007,0.006C7.974-1.965,7.948-1.908,7.904-1.863     c-0.032,0.032-0.083,0.059-0.134,0.07c-0.008,0-0.008,0-0.008,0.007c0,0,0,0,0.008,0C7.814-1.773,7.866-1.754,7.904-1.71     C7.948-1.672,7.974-1.613,7.98-1.57c0,0.008,0.007,0.008,0.007,0.008s0.006,0,0.006-0.008c0.006-0.043,0.031-0.102,0.076-0.14     c0.039-0.038,0.084-0.063,0.129-0.069c0.012,0,0.012-0.007,0.012-0.007c0-0.007,0-0.007-0.012-0.007     c-0.02-0.006-0.077-0.019-0.129-0.07C8.024-1.908,8.006-1.953,7.993-2.01C7.993-2.016,7.993-2.016,7.987-2.016z"/>
			<path fill="#000000" d="M1.625-4.773c0,0-0.006,0-0.006,0.006C1.612-4.723,1.586-4.666,1.542-4.621     C1.51-4.589,1.458-4.562,1.408-4.551c-0.007,0-0.007,0-0.007,0.007c0,0,0,0,0.007,0c0.044,0.013,0.096,0.032,0.134,0.076     c0.044,0.038,0.07,0.097,0.076,0.14c0,0.008,0.006,0.008,0.006,0.008s0.006,0,0.006-0.008c0.006-0.043,0.032-0.102,0.077-0.14     c0.039-0.038,0.083-0.063,0.128-0.069c0.013,0,0.013-0.007,0.013-0.007c0-0.007,0-0.007-0.013-0.007     c-0.02-0.006-0.077-0.019-0.128-0.07c-0.045-0.045-0.064-0.09-0.077-0.146C1.631-4.773,1.631-4.773,1.625-4.773z"/>
			<path fill="#000000" d="M13.144-2.072c0,0-0.006,0-0.006,0.006c-0.007,0.045-0.033,0.104-0.077,0.147     c-0.032,0.032-0.083,0.058-0.134,0.07c-0.006,0-0.006,0-0.006,0.007c0,0,0,0,0.006,0c0.045,0.012,0.096,0.031,0.134,0.076     c0.044,0.038,0.07,0.096,0.077,0.141c0,0.006,0.006,0.006,0.006,0.006s0.006,0,0.006-0.006c0.007-0.045,0.033-0.103,0.078-0.141     c0.037-0.039,0.082-0.064,0.127-0.07c0.012,0,0.012-0.006,0.012-0.006c0-0.007,0-0.007-0.012-0.007     c-0.02-0.007-0.076-0.02-0.127-0.07c-0.045-0.044-0.064-0.089-0.078-0.147C13.149-2.072,13.149-2.072,13.144-2.072z"/>
		</g>
		<g>
			<path fill="#000000" d="M2.079-7.484c-0.009,0-0.018,0-0.018,0.009C2.026-7.309,1.973-7.186,1.85-7.07     C1.708-6.93,1.55-6.886,1.488-6.877C1.461-6.868,1.461-6.868,1.461-6.859c0,0.01,0,0.018,0.027,0.018     c0.123,0.027,0.255,0.088,0.37,0.194C1.964-6.533,2.034-6.383,2.061-6.26c0,0.018,0.008,0.018,0.018,0.018     c0,0,0.009,0,0.009-0.009c0.018-0.123,0.097-0.282,0.211-0.396C2.413-6.762,2.563-6.824,2.678-6.85     c0.009,0,0.009-0.01,0.009-0.01c0-0.009,0-0.009-0.009-0.009C2.528-6.903,2.396-6.974,2.299-7.07     C2.184-7.193,2.114-7.353,2.087-7.467C2.087-7.484,2.079-7.484,2.079-7.484z"/>
			<path fill="#000000" d="M2.306-6.029c0,0-0.01,0-0.01,0.009C2.278-5.932,2.253-5.87,2.182-5.8     C2.103-5.721,2.015-5.703,1.979-5.694c-0.009,0-0.009,0.009-0.009,0.009s0,0.009,0.009,0.009C2.05-5.659,2.12-5.624,2.182-5.562     C2.243-5.51,2.288-5.421,2.296-5.351l0.01,0.009l0.008-0.009c0.01-0.07,0.053-0.149,0.115-0.22     C2.489-5.633,2.569-5.668,2.64-5.677l0.009-0.009L2.64-5.694C2.552-5.712,2.481-5.747,2.429-5.8     C2.366-5.87,2.323-5.959,2.313-6.021C2.313-6.029,2.306-6.029,2.306-6.029z"/>
			<path fill="#000000" d="M3.905-5.163c-0.008,0-0.008,0.009-0.008,0.009C3.87-5.022,3.826-4.925,3.729-4.828     C3.614-4.714,3.482-4.688,3.438-4.679C3.421-4.67,3.421-4.67,3.421-4.661s0,0.009,0.018,0.018     c0.098,0.018,0.203,0.071,0.291,0.159c0.088,0.079,0.15,0.203,0.168,0.309c0,0.008,0,0.008,0.008,0.008c0.01,0,0.01,0,0.01-0.008     c0.018-0.098,0.078-0.221,0.166-0.317C4.179-4.582,4.293-4.635,4.39-4.652c0.01,0,0.01-0.009,0.01-0.009s0-0.009-0.01-0.009     C4.267-4.696,4.17-4.749,4.081-4.828C3.993-4.925,3.933-5.058,3.915-5.154C3.915-5.154,3.915-5.163,3.905-5.163z"/>
			<path fill="#000000" d="M4.038-6.459c-0.008,0-0.008,0.008-0.008,0.008C4.013-6.371,3.985-6.31,3.925-6.248     c-0.07,0.07-0.15,0.088-0.177,0.097c-0.018,0-0.018,0-0.018,0.009c0,0,0,0.01,0.009,0.01c0.07,0.008,0.133,0.044,0.186,0.097     C3.985-5.983,4.021-5.904,4.03-5.843c0,0.009,0,0.009,0.008,0.009c0,0,0,0,0-0.009c0.018-0.062,0.054-0.141,0.107-0.193     c0.061-0.062,0.131-0.089,0.193-0.097c0.008-0.01,0.008-0.01,0.008-0.01s0-0.009-0.008-0.009     c-0.08-0.018-0.141-0.053-0.186-0.097C4.092-6.31,4.056-6.389,4.038-6.451C4.038-6.459,4.038-6.459,4.038-6.459z"/>
			<path fill="#000000" d="M5.359-4.176c-0.009,0-0.009,0-0.009,0.008c-0.035,0.15-0.088,0.273-0.203,0.379     C5.016-3.647,4.856-3.612,4.804-3.604C4.778-3.595,4.778-3.595,4.778-3.586s0,0.009,0.025,0.018     c0.115,0.018,0.247,0.079,0.353,0.186c0.097,0.105,0.168,0.255,0.194,0.369c0,0.01,0,0.01,0.009,0.01s0.009,0,0.009-0.01     c0.026-0.114,0.097-0.264,0.203-0.369c0.114-0.106,0.246-0.168,0.361-0.194c0.008,0,0.018-0.009,0.018-0.009     S5.94-3.595,5.933-3.595C5.791-3.63,5.668-3.691,5.571-3.789C5.465-3.902,5.395-4.053,5.368-4.168     C5.368-4.176,5.368-4.176,5.359-4.176z"/>
			<path fill="#000000" d="M5.202-5.678c0,0-0.009,0-0.009,0.008C5.185-5.607,5.149-5.528,5.088-5.467     C5.044-5.423,4.974-5.388,4.903-5.37c-0.01,0-0.01,0-0.01,0.009c0,0,0,0,0.01,0c0.061,0.018,0.132,0.044,0.185,0.105     c0.062,0.053,0.097,0.133,0.105,0.194c0,0.009,0.009,0.009,0.009,0.009s0.009,0,0.009-0.009C5.22-5.123,5.255-5.203,5.317-5.256     C5.37-5.309,5.431-5.344,5.493-5.353c0.018,0,0.018-0.009,0.018-0.009c0-0.009,0-0.009-0.018-0.009     C5.466-5.379,5.388-5.396,5.317-5.467C5.255-5.528,5.229-5.59,5.211-5.67C5.211-5.678,5.211-5.678,5.202-5.678z"/>
			<path fill="#000000" d="M4.872-1.925c0,0-0.01,0-0.01,0.009C4.854-1.854,4.819-1.774,4.757-1.713     C4.714-1.669,4.644-1.634,4.572-1.616c-0.009,0-0.009,0-0.009,0.009c0,0,0,0,0.009,0C4.634-1.59,4.704-1.563,4.757-1.502     c0.062,0.053,0.098,0.133,0.105,0.194c0,0.009,0.01,0.009,0.01,0.009s0.009,0,0.009-0.009C4.89-1.369,4.925-1.449,4.987-1.502     C5.04-1.555,5.101-1.59,5.163-1.599c0.018,0,0.018-0.009,0.018-0.009c0-0.009,0-0.009-0.018-0.009     C5.136-1.625,5.058-1.643,4.987-1.713C4.925-1.774,4.898-1.836,4.881-1.916C4.881-1.925,4.881-1.925,4.872-1.925z"/>
		</g>
		<g>
			<path fill="#000000" d="M2.17-14.757c-0.008,0-0.008,0.009-0.008,0.009c-0.027,0.132-0.071,0.229-0.168,0.326     c-0.114,0.114-0.247,0.141-0.291,0.149c-0.018,0.009-0.018,0.009-0.018,0.018s0,0.009,0.018,0.018     c0.098,0.018,0.203,0.071,0.291,0.159c0.088,0.079,0.15,0.203,0.168,0.309c0,0.008,0,0.008,0.008,0.008     c0.009,0,0.009,0,0.009-0.008c0.018-0.098,0.079-0.221,0.167-0.317c0.097-0.089,0.211-0.142,0.309-0.159     c0.008,0,0.008-0.009,0.008-0.009s0-0.009-0.008-0.009c-0.124-0.026-0.221-0.079-0.309-0.158     c-0.089-0.097-0.15-0.229-0.167-0.326C2.179-14.748,2.179-14.757,2.17-14.757z"/>
			<path fill="#000000" d="M3.624-13.77c-0.009,0-0.009,0-0.009,0.008c-0.035,0.15-0.089,0.273-0.202,0.379     c-0.133,0.142-0.291,0.177-0.344,0.186c-0.027,0.009-0.027,0.009-0.027,0.018s0,0.009,0.027,0.018     c0.113,0.018,0.246,0.079,0.352,0.186c0.098,0.105,0.168,0.255,0.194,0.369c0,0.01,0,0.01,0.009,0.01s0.009,0,0.009-0.01     c0.026-0.114,0.097-0.264,0.202-0.369c0.115-0.106,0.247-0.168,0.361-0.194c0.01,0,0.018-0.009,0.018-0.009     s-0.008-0.009-0.018-0.009c-0.141-0.035-0.264-0.097-0.361-0.194c-0.105-0.113-0.176-0.264-0.202-0.379     C3.633-13.77,3.633-13.77,3.624-13.77z"/>
			<path fill="#000000" d="M3.137-11.519c0,0-0.009,0-0.009,0.009c-0.01,0.062-0.045,0.142-0.105,0.203     c-0.045,0.044-0.115,0.079-0.186,0.097c-0.009,0-0.009,0-0.009,0.009c0,0,0,0,0.009,0c0.062,0.018,0.133,0.044,0.186,0.105     c0.061,0.053,0.096,0.133,0.105,0.194c0,0.009,0.009,0.009,0.009,0.009s0.009,0,0.009-0.009c0.009-0.062,0.044-0.142,0.105-0.194     c0.053-0.053,0.114-0.088,0.176-0.097c0.018,0,0.018-0.009,0.018-0.009c0-0.009,0-0.009-0.018-0.009     c-0.025-0.009-0.105-0.026-0.176-0.097c-0.062-0.062-0.088-0.123-0.105-0.203C3.146-11.519,3.146-11.519,3.137-11.519z"/>
		</g>
		<g>
			<path fill="#000000" d="M2.17-1.257c-0.008,0-0.008,0.009-0.008,0.009C2.135-1.116,2.091-1.019,1.994-0.922     C1.879-0.808,1.747-0.781,1.703-0.772C1.685-0.764,1.685-0.764,1.685-0.755s0,0.009,0.018,0.018     C1.8-0.72,1.906-0.666,1.994-0.578c0.088,0.079,0.15,0.203,0.168,0.309c0,0.008,0,0.008,0.008,0.008c0.009,0,0.009,0,0.009-0.008     C2.197-0.367,2.258-0.49,2.347-0.587c0.097-0.089,0.211-0.142,0.309-0.159c0.008,0,0.008-0.009,0.008-0.009s0-0.009-0.008-0.009     C2.531-0.79,2.435-0.843,2.347-0.922c-0.089-0.097-0.15-0.229-0.167-0.326C2.179-1.248,2.179-1.257,2.17-1.257z"/>
			<path fill="#000000" d="M2.304-2.553c-0.01,0-0.01,0.008-0.01,0.008c-0.018,0.08-0.043,0.142-0.105,0.203     c-0.07,0.07-0.15,0.088-0.176,0.097c-0.018,0-0.018,0-0.018,0.009c0,0,0,0.01,0.009,0.01c0.07,0.008,0.132,0.044,0.185,0.097     c0.062,0.053,0.097,0.132,0.105,0.193c0,0.009,0,0.009,0.01,0.009c0,0,0,0,0-0.009C2.321-1.998,2.356-2.077,2.409-2.13     c0.062-0.062,0.132-0.089,0.193-0.097c0.01-0.01,0.01-0.01,0.01-0.01s0-0.009-0.01-0.009C2.523-2.263,2.462-2.298,2.418-2.342     C2.356-2.403,2.321-2.482,2.304-2.545C2.304-2.553,2.304-2.553,2.304-2.553z"/>
			<path fill="#000000" d="M3.467-1.771c0,0-0.009,0-0.009,0.008C3.449-1.701,3.414-1.622,3.353-1.561     C3.309-1.517,3.237-1.481,3.167-1.464c-0.009,0-0.009,0-0.009,0.009c0,0,0,0,0.009,0C3.229-1.438,3.3-1.411,3.353-1.35     c0.062,0.053,0.097,0.133,0.105,0.194c0,0.009,0.009,0.009,0.009,0.009s0.009,0,0.009-0.009C3.484-1.217,3.52-1.297,3.581-1.35     c0.054-0.053,0.115-0.088,0.177-0.097c0.018,0,0.018-0.009,0.018-0.009c0-0.009,0-0.009-0.018-0.009     C3.731-1.473,3.652-1.49,3.581-1.561C3.52-1.622,3.493-1.684,3.476-1.764C3.476-1.771,3.476-1.771,3.467-1.771z"/>
		</g>
	</g>
</pattern>
<pattern width="7.885" height="7.884" patternUnits="userSpaceOnUse" id="New_Pattern_Swatch_3" viewBox="0.559 -8.312 7.885 7.884" overflow="visible">
	<g>
		<polygon fill="none" points="8.443,-0.429 0.559,-0.429 0.559,-8.312 8.443,-8.312   "/>
		<g>
			<path fill="#000000" d="M2.913-6.754c-0.007,0-0.014,0-0.014,0.007C2.871-6.611,2.828-6.512,2.729-6.419     C2.614-6.305,2.485-6.27,2.436-6.262C2.414-6.255,2.414-6.255,2.414-6.248c0,0.008,0,0.015,0.021,0.015     c0.1,0.021,0.207,0.071,0.3,0.157C2.82-5.984,2.878-5.863,2.899-5.763c0,0.015,0.007,0.015,0.014,0.015c0,0,0.009,0,0.009-0.008     c0.014-0.1,0.077-0.229,0.17-0.32C3.185-6.17,3.306-6.219,3.398-6.24c0.008,0,0.008-0.008,0.008-0.008     c0-0.007,0-0.007-0.008-0.007C3.277-6.283,3.17-6.341,3.092-6.419C2.999-6.52,2.941-6.647,2.922-6.74     C2.922-6.754,2.913-6.754,2.913-6.754z"/>
			<path fill="#000000" d="M3.097-5.576c0,0-0.007,0-0.007,0.008C3.075-5.497,3.055-5.447,2.998-5.391     C2.933-5.326,2.861-5.312,2.834-5.305c-0.009,0-0.009,0.008-0.009,0.008s0,0.006,0.009,0.006     c0.057,0.015,0.113,0.043,0.164,0.094c0.049,0.043,0.085,0.113,0.092,0.17L3.097-5.02l0.007-0.008     c0.008-0.057,0.043-0.121,0.094-0.178c0.049-0.05,0.114-0.078,0.171-0.086l0.007-0.006L3.368-5.305     C3.297-5.319,3.239-5.348,3.197-5.391C3.146-5.447,3.111-5.52,3.104-5.568C3.104-5.576,3.097-5.576,3.097-5.576z"/>
			<path fill="#000000" d="M4.393-4.875c-0.007,0-0.007,0.008-0.007,0.008C4.364-4.761,4.328-4.682,4.25-4.604     C4.158-4.512,4.051-4.49,4.014-4.482C4-4.475,4-4.475,4-4.469c0,0.008,0,0.008,0.014,0.015C4.093-4.439,4.178-4.396,4.25-4.326     c0.07,0.064,0.121,0.164,0.136,0.25c0,0.007,0,0.007,0.007,0.007s0.007,0,0.007-0.007c0.015-0.078,0.063-0.178,0.136-0.256     c0.078-0.072,0.171-0.115,0.25-0.129c0.007,0,0.007-0.008,0.007-0.008s0-0.006-0.007-0.006c-0.101-0.022-0.178-0.064-0.25-0.129     C4.463-4.682,4.414-4.789,4.399-4.867C4.399-4.867,4.399-4.875,4.393-4.875z"/>
			<path fill="#000000" d="M4.501-5.924c-0.008,0-0.008,0.007-0.008,0.007C4.479-5.854,4.457-5.803,4.407-5.754     c-0.057,0.058-0.12,0.072-0.143,0.08c-0.014,0-0.014,0-0.014,0.006c0,0,0,0.008,0.007,0.008c0.057,0.007,0.107,0.035,0.149,0.078     c0.05,0.043,0.079,0.107,0.086,0.156c0,0.008,0,0.008,0.008,0.008c0,0,0,0,0-0.008c0.014-0.049,0.042-0.113,0.085-0.156     c0.049-0.05,0.106-0.071,0.156-0.078C4.75-5.668,4.75-5.668,4.75-5.668s0-0.006-0.008-0.006c-0.063-0.016-0.113-0.043-0.148-0.08     C4.543-5.803,4.515-5.867,4.501-5.917C4.501-5.924,4.501-5.924,4.501-5.924z"/>
			<path fill="#000000" d="M3.129-4.529c-0.007,0-0.007,0.008-0.007,0.008C3.1-4.414,3.064-4.336,2.986-4.258     C2.893-4.165,2.787-4.143,2.75-4.137C2.736-4.129,2.736-4.129,2.736-4.121c0,0.006,0,0.006,0.014,0.014     c0.078,0.014,0.164,0.057,0.236,0.129c0.07,0.063,0.121,0.164,0.136,0.249c0,0.007,0,0.007,0.007,0.007s0.007,0,0.007-0.007     C3.15-3.809,3.199-3.908,3.271-3.986c0.078-0.071,0.171-0.114,0.25-0.129c0.006,0,0.006-0.006,0.006-0.006s0-0.008-0.006-0.008     c-0.101-0.021-0.18-0.064-0.25-0.129C3.199-4.336,3.15-4.443,3.136-4.521C3.136-4.521,3.136-4.529,3.129-4.529z"/>
			<path fill="#000000" d="M3.632-5.02c-0.007,0-0.007,0.008-0.007,0.008C3.61-4.947,3.59-4.898,3.539-4.848     C3.482-4.791,3.418-4.777,3.396-4.77c-0.015,0-0.015,0-0.015,0.007c0,0,0,0.007,0.007,0.007c0.057,0.008,0.107,0.036,0.15,0.078     C3.59-4.635,3.618-4.57,3.625-4.52c0,0.007,0,0.007,0.007,0.007c0,0,0,0,0-0.007C3.646-4.57,3.676-4.635,3.717-4.678     c0.051-0.049,0.107-0.07,0.158-0.078c0.006-0.007,0.006-0.007,0.006-0.007s0-0.007-0.006-0.007     C3.81-4.784,3.761-4.812,3.725-4.848C3.676-4.898,3.646-4.963,3.632-5.012C3.632-5.02,3.632-5.02,3.632-5.02z"/>
			<path fill="#000000" d="M5.57-4.076c-0.008,0-0.008,0-0.008,0.007C5.534-3.947,5.49-3.848,5.398-3.762     C5.291-3.648,5.162-3.619,5.12-3.612C5.099-3.605,5.099-3.605,5.099-3.598c0,0.006,0,0.006,0.021,0.014     c0.093,0.014,0.2,0.064,0.285,0.15c0.079,0.086,0.136,0.206,0.157,0.299c0,0.008,0,0.008,0.008,0.008     c0.006,0,0.006,0,0.006-0.008C5.598-3.228,5.655-3.348,5.74-3.434C5.833-3.52,5.94-3.57,6.033-3.592     c0.008,0,0.014-0.006,0.014-0.006S6.041-3.605,6.033-3.605C5.918-3.633,5.819-3.684,5.74-3.762     C5.655-3.855,5.598-3.977,5.576-4.069C5.576-4.076,5.576-4.076,5.57-4.076z"/>
			<path fill="#000000" d="M8.604-5.494c-0.007,0-0.007,0-0.007,0.008C8.568-5.365,8.525-5.266,8.433-5.18     C8.325-5.066,8.197-5.037,8.154-5.03C8.134-5.023,8.134-5.023,8.134-5.016c0,0.007,0,0.007,0.021,0.014     c0.094,0.015,0.199,0.064,0.285,0.15c0.078,0.086,0.136,0.207,0.157,0.299c0,0.008,0,0.008,0.007,0.008     c0.008,0,0.008,0,0.008-0.008c0.021-0.092,0.078-0.213,0.163-0.299c0.094-0.086,0.2-0.136,0.294-0.157     c0.006,0,0.014-0.007,0.014-0.007S9.074-5.023,9.068-5.023C8.953-5.052,8.854-5.102,8.774-5.18     C8.689-5.272,8.632-5.395,8.611-5.486C8.611-5.494,8.611-5.494,8.604-5.494z"/>
			<path fill="#000000" d="M0.721-5.494c-0.008,0-0.008,0-0.008,0.008C0.685-5.365,0.643-5.266,0.55-5.18     C0.443-5.066,0.314-5.037,0.271-5.03C0.25-5.023,0.25-5.023,0.25-5.016c0,0.007,0,0.007,0.021,0.014     c0.093,0.015,0.199,0.064,0.285,0.15c0.079,0.086,0.136,0.207,0.156,0.299c0,0.008,0,0.008,0.008,0.008s0.008,0,0.008-0.008     C0.75-4.645,0.807-4.766,0.893-4.852c0.092-0.086,0.199-0.136,0.291-0.157c0.008,0,0.016-0.007,0.016-0.007     S1.191-5.023,1.184-5.023C1.07-5.052,0.971-5.102,0.893-5.18C0.807-5.272,0.75-5.395,0.729-5.486     C0.729-5.494,0.729-5.494,0.721-5.494z"/>
			<path fill="#000000" d="M4.076-3.271c-0.008,0-0.008,0-0.008,0.007C4.04-3.143,3.996-3.044,3.904-2.959     C3.797-2.844,3.668-2.814,3.626-2.808C3.604-2.801,3.604-2.801,3.604-2.794s0,0.007,0.021,0.015     c0.093,0.014,0.2,0.064,0.285,0.149c0.079,0.085,0.136,0.206,0.157,0.3c0,0.008,0,0.008,0.008,0.008c0.006,0,0.006,0,0.006-0.008     c0.021-0.094,0.079-0.215,0.164-0.3c0.093-0.085,0.2-0.136,0.293-0.157c0.008,0,0.014-0.007,0.014-0.007S4.547-2.801,4.539-2.801     C4.424-2.83,4.325-2.879,4.246-2.959C4.161-3.051,4.104-3.172,4.082-3.265C4.082-3.271,4.082-3.271,4.076-3.271z"/>
			<path fill="#000000" d="M8.354-8.191c-0.007,0-0.007,0-0.007,0.008C8.318-8.062,8.275-7.963,8.183-7.877     C8.075-7.764,7.947-7.734,7.904-7.728C7.884-7.721,7.884-7.721,7.884-7.713c0,0.006,0,0.006,0.021,0.014     c0.094,0.015,0.199,0.064,0.285,0.15C8.268-7.463,8.325-7.343,8.347-7.25c0,0.008,0,0.008,0.007,0.008     c0.008,0,0.008,0,0.008-0.008c0.021-0.093,0.078-0.213,0.164-0.299c0.093-0.086,0.199-0.136,0.293-0.158     c0.006,0,0.014-0.006,0.014-0.006S8.824-7.721,8.818-7.721C8.704-7.748,8.604-7.799,8.525-7.877     C8.439-7.97,8.383-8.092,8.361-8.184C8.361-8.191,8.361-8.191,8.354-8.191z"/>
			<path fill="#000000" d="M0.471-8.191c-0.008,0-0.008,0-0.008,0.008c-0.027,0.121-0.07,0.221-0.162,0.307     C0.193-7.764,0.064-7.734,0.021-7.728C0-7.721,0-7.721,0-7.713c0,0.006,0,0.006,0.021,0.014c0.093,0.015,0.2,0.064,0.285,0.15     C0.386-7.463,0.443-7.343,0.463-7.25c0,0.008,0,0.008,0.008,0.008s0.008,0,0.008-0.008C0.5-7.343,0.557-7.463,0.643-7.549     c0.092-0.086,0.199-0.136,0.292-0.158c0.007,0,0.015-0.006,0.015-0.006S0.941-7.721,0.935-7.721     C0.82-7.748,0.721-7.799,0.643-7.877C0.557-7.97,0.5-8.092,0.479-8.184C0.479-8.191,0.479-8.191,0.471-8.191z"/>
			<path fill="#000000" d="M5.441-5.292c0,0-0.006,0-0.006,0.007C5.428-5.234,5.4-5.171,5.35-5.121     C5.314-5.086,5.258-5.057,5.2-5.042c-0.009,0-0.009,0-0.009,0.007c0,0,0,0,0.009,0C5.249-5.021,5.307-5,5.35-4.949     C5.4-4.906,5.428-4.842,5.436-4.793c0,0.008,0.006,0.008,0.006,0.008s0.008,0,0.008-0.008c0.008-0.049,0.036-0.113,0.086-0.156     c0.043-0.043,0.093-0.072,0.143-0.079c0.014,0,0.014-0.007,0.014-0.007c0-0.007,0-0.007-0.014-0.007     C5.656-5.049,5.592-5.064,5.535-5.121c-0.05-0.05-0.072-0.1-0.086-0.164C5.449-5.292,5.449-5.292,5.441-5.292z"/>
			<path fill="#000000" d="M5.175-1.979c0,0-0.007,0-0.007,0.007C5.16-1.923,5.132-1.858,5.082-1.809     C5.046-1.772,4.989-1.744,4.932-1.73c-0.006,0-0.006,0-0.006,0.008c0,0,0,0,0.006,0c0.051,0.014,0.107,0.035,0.15,0.085     C5.132-1.594,5.16-1.53,5.168-1.48c0,0.008,0.007,0.008,0.007,0.008s0.007,0,0.007-0.008c0.007-0.05,0.035-0.113,0.086-0.157     C5.311-1.68,5.359-1.709,5.41-1.716c0.015,0,0.015-0.007,0.015-0.007c0-0.008,0-0.008-0.015-0.008     C5.389-1.737,5.324-1.752,5.268-1.809c-0.051-0.05-0.07-0.1-0.086-0.164C5.182-1.979,5.182-1.979,5.175-1.979z"/>
			<path fill="#000000" d="M7.884-4.151c0,0-0.008,0-0.008,0.007C7.869-4.094,7.84-4.029,7.79-3.98     C7.755-3.944,7.697-3.916,7.641-3.901c-0.007,0-0.007,0-0.007,0.007c0,0,0,0,0.007,0C7.691-3.881,7.748-3.859,7.79-3.809     c0.05,0.043,0.079,0.106,0.086,0.156c0,0.008,0.008,0.008,0.008,0.008s0.007,0,0.007-0.008c0.007-0.05,0.035-0.113,0.086-0.156     C8.02-3.852,8.068-3.881,8.119-3.887c0.015,0,0.015-0.008,0.015-0.008c0-0.007,0-0.007-0.015-0.007     C8.098-3.908,8.033-3.924,7.977-3.98c-0.051-0.049-0.072-0.1-0.086-0.164C7.891-4.151,7.891-4.151,7.884-4.151z"/>
		</g>
		<g>
			<path fill="#000000" d="M5.484-8.207c-0.006,0-0.011,0-0.011,0.006c-0.021,0.098-0.052,0.17-0.123,0.236     C5.268-7.882,5.175-7.856,5.14-7.852C5.123-7.846,5.123-7.846,5.123-7.841s0,0.011,0.017,0.011     c0.071,0.015,0.148,0.051,0.216,0.112C5.417-7.65,5.458-7.563,5.474-7.49c0,0.01,0.005,0.01,0.011,0.01c0,0,0.004,0,0.004-0.006     C5.499-7.559,5.546-7.65,5.613-7.718C5.68-7.785,5.768-7.82,5.834-7.836c0.005,0,0.005-0.005,0.005-0.005     c0-0.005,0-0.005-0.005-0.005C5.746-7.867,5.669-7.908,5.613-7.965C5.546-8.037,5.504-8.129,5.488-8.196     C5.488-8.207,5.484-8.207,5.484-8.207z"/>
			<path fill="#000000" d="M5.616-7.229c0,0-0.005,0-0.005,0.005C5.601-7.173,5.586-7.137,5.545-7.096     C5.498-7.049,5.446-7.039,5.426-7.034c-0.006,0-0.006,0.005-0.006,0.005s0,0.006,0.006,0.006c0.041,0.01,0.082,0.03,0.119,0.066     C5.58-6.926,5.605-6.875,5.611-6.834l0.005,0.006l0.005-0.006C5.627-6.875,5.652-6.92,5.688-6.961     c0.036-0.037,0.083-0.058,0.124-0.062l0.005-0.006L5.812-7.034C5.76-7.045,5.719-7.064,5.688-7.096     C5.652-7.137,5.627-7.188,5.621-7.225C5.621-7.229,5.616-7.229,5.616-7.229z"/>
			<path fill="#000000" d="M6.33-6.251c-0.004,0-0.004,0.005-0.004,0.005C6.311-6.169,6.285-6.112,6.228-6.057     C6.16-5.988,6.084-5.973,6.058-5.969C6.047-5.963,6.047-5.963,6.047-5.958s0,0.005,0.011,0.011     c0.058,0.01,0.118,0.041,0.17,0.092c0.052,0.047,0.088,0.119,0.099,0.18c0,0.006,0,0.006,0.004,0.006     c0.006,0,0.006,0,0.006-0.006c0.01-0.057,0.046-0.128,0.098-0.184c0.057-0.053,0.123-0.083,0.18-0.094     c0.006,0,0.006-0.005,0.006-0.005s0-0.005-0.006-0.005C6.541-5.979,6.485-6.01,6.434-6.057C6.382-6.112,6.346-6.189,6.336-6.246     C6.336-6.246,6.336-6.251,6.33-6.251z"/>
			<path fill="#000000" d="M1.648-5.463c-0.004,0-0.004,0.004-0.004,0.004C1.628-5.381,1.603-5.324,1.546-5.268     C1.479-5.201,1.402-5.186,1.376-5.18C1.365-5.175,1.365-5.175,1.365-5.17c0,0.006,0,0.006,0.011,0.01     c0.057,0.011,0.118,0.041,0.17,0.093c0.052,0.047,0.088,0.118,0.099,0.181c0,0.005,0,0.005,0.004,0.005     c0.006,0,0.006,0,0.006-0.005c0.01-0.057,0.045-0.129,0.098-0.186c0.057-0.051,0.123-0.082,0.181-0.092     c0.005,0,0.005-0.006,0.005-0.006s0-0.005-0.005-0.005C1.859-5.19,1.804-5.221,1.752-5.268C1.699-5.324,1.664-5.401,1.654-5.459     C1.654-5.459,1.654-5.463,1.648-5.463z"/>
			<path fill="#000000" d="M3.635-7.844c-0.006,0-0.011,0-0.011,0.005C3.604-7.74,3.572-7.669,3.5-7.602     C3.418-7.52,3.326-7.494,3.289-7.488c-0.016,0.005-0.016,0.005-0.016,0.01c0,0.006,0,0.01,0.016,0.01     c0.072,0.016,0.15,0.053,0.217,0.113c0.062,0.068,0.104,0.154,0.118,0.228c0,0.011,0.005,0.011,0.011,0.011     c0,0,0.005,0,0.005-0.006C3.65-7.195,3.695-7.287,3.764-7.355C3.83-7.422,3.917-7.457,3.984-7.473     c0.006,0,0.006-0.006,0.006-0.006c0-0.005,0-0.005-0.006-0.005C3.896-7.504,3.82-7.545,3.764-7.602     C3.695-7.674,3.654-7.768,3.64-7.834C3.64-7.844,3.635-7.844,3.635-7.844z"/>
			<path fill="#000000" d="M4.701-6.724c-0.006,0-0.006,0.005-0.006,0.005c-0.014,0.077-0.041,0.135-0.098,0.19     c-0.066,0.067-0.144,0.082-0.17,0.087c-0.01,0.006-0.01,0.006-0.01,0.011s0,0.005,0.01,0.011c0.057,0.01,0.119,0.041,0.17,0.092     C4.65-6.281,4.686-6.209,4.695-6.147c0,0.005,0,0.005,0.006,0.005c0.005,0,0.005,0,0.005-0.005     c0.011-0.057,0.047-0.129,0.099-0.185c0.057-0.053,0.123-0.084,0.18-0.094c0.005,0,0.005-0.005,0.005-0.005s0-0.005-0.005-0.005     c-0.072-0.016-0.129-0.047-0.18-0.093c-0.052-0.056-0.088-0.134-0.099-0.19C4.706-6.719,4.706-6.724,4.701-6.724z"/>
			<path fill="#000000" d="M6.628-7.48c-0.005,0-0.005,0.004-0.005,0.004C6.613-7.43,6.598-7.394,6.562-7.357     C6.521-7.316,6.475-7.307,6.459-7.301c-0.01,0-0.01,0-0.01,0.005c0,0,0,0.006,0.004,0.006c0.041,0.005,0.078,0.025,0.109,0.057     c0.035,0.03,0.055,0.077,0.061,0.112c0,0.006,0,0.006,0.005,0.006c0,0,0,0,0-0.006C6.639-7.156,6.66-7.203,6.691-7.233     C6.727-7.27,6.768-7.285,6.804-7.29c0.005-0.006,0.005-0.006,0.005-0.006s0-0.005-0.005-0.005     c-0.047-0.01-0.082-0.031-0.108-0.057C6.66-7.394,6.639-7.439,6.628-7.477C6.628-7.48,6.628-7.48,6.628-7.48z"/>
			<path fill="#000000" d="M7.4-6.147c-0.006,0-0.006,0-0.006,0.005c-0.021,0.088-0.051,0.16-0.119,0.221     c-0.076,0.083-0.17,0.104-0.2,0.109c-0.015,0.004-0.015,0.004-0.015,0.01c0,0.005,0,0.005,0.015,0.01     c0.067,0.011,0.146,0.047,0.206,0.109C7.338-5.623,7.38-5.535,7.395-5.469c0,0.006,0,0.006,0.006,0.006     c0.004,0,0.004,0,0.004-0.006c0.017-0.066,0.058-0.154,0.119-0.215c0.067-0.062,0.144-0.099,0.211-0.114     c0.004,0,0.01-0.005,0.01-0.005s-0.006-0.006-0.01-0.006C7.652-5.828,7.58-5.864,7.523-5.922     C7.462-5.988,7.421-6.075,7.404-6.143C7.404-6.147,7.404-6.147,7.4-6.147z"/>
			<path fill="#000000" d="M7.308-7.024c0,0-0.005,0-0.005,0.005C7.297-6.983,7.277-6.938,7.242-6.901     C7.215-6.875,7.174-6.855,7.133-6.845c-0.006,0-0.006,0-0.006,0.005c0,0,0,0,0.006,0c0.035,0.011,0.078,0.025,0.109,0.062     C7.277-6.747,7.297-6.7,7.303-6.664c0,0.005,0.005,0.005,0.005,0.005s0.006,0,0.006-0.005C7.318-6.7,7.338-6.747,7.375-6.777     c0.031-0.031,0.066-0.052,0.103-0.057c0.011,0,0.011-0.006,0.011-0.006c0-0.005,0-0.005-0.011-0.005     C7.462-6.85,7.416-6.86,7.375-6.901C7.338-6.938,7.324-6.973,7.313-7.02C7.313-7.024,7.313-7.024,7.308-7.024z"/>
			<path fill="#000000" d="M7.115-4.833c0,0-0.006,0-0.006,0.005C7.105-4.791,7.084-4.745,7.048-4.709     C7.022-4.684,6.981-4.662,6.94-4.652c-0.005,0-0.005,0-0.005,0.005c0,0,0,0,0.005,0c0.036,0.011,0.077,0.026,0.107,0.062     c0.036,0.031,0.058,0.078,0.062,0.113c0,0.006,0.006,0.006,0.006,0.006s0.006,0,0.006-0.006c0.004-0.035,0.025-0.082,0.061-0.113     c0.031-0.031,0.066-0.051,0.104-0.057c0.01,0,0.01-0.005,0.01-0.005c0-0.005,0-0.005-0.01-0.005     C7.27-4.658,7.224-4.668,7.182-4.709C7.146-4.745,7.131-4.781,7.121-4.828C7.121-4.833,7.121-4.833,7.115-4.833z"/>
		</g>
		<g>
			<path fill="#000000" d="M6.494-3.562c-0.004,0-0.008,0-0.008,0.003c-0.015,0.072-0.037,0.123-0.09,0.172     C6.338-3.326,6.27-3.308,6.244-3.304C6.232-3.301,6.232-3.301,6.232-3.297s0,0.008,0.012,0.008     C6.297-3.278,6.352-3.252,6.4-3.207c0.045,0.048,0.074,0.111,0.086,0.163c0,0.009,0.004,0.009,0.008,0.009     c0,0,0.004,0,0.004-0.005c0.007-0.052,0.04-0.119,0.089-0.167c0.048-0.049,0.112-0.075,0.159-0.086     c0.006,0,0.006-0.004,0.006-0.004c0-0.004,0-0.004-0.006-0.004C6.684-3.315,6.628-3.346,6.587-3.387     C6.538-3.438,6.508-3.506,6.498-3.555C6.498-3.562,6.494-3.562,6.494-3.562z"/>
			<path fill="#000000" d="M3.416-8.832c-0.008,0-0.008,0-0.008,0.007C3.38-8.703,3.338-8.604,3.245-8.519     C3.139-8.404,3.01-8.376,2.967-8.369C2.945-8.361,2.945-8.361,2.945-8.354c0,0.006,0,0.006,0.021,0.014     c0.092,0.014,0.199,0.064,0.285,0.15C3.33-8.104,3.388-7.983,3.408-7.891c0,0.008,0,0.008,0.008,0.008     c0.007,0,0.007,0,0.007-0.008c0.022-0.093,0.079-0.214,0.165-0.299C3.68-8.275,3.787-8.326,3.879-8.348     c0.008,0,0.016-0.006,0.016-0.006S3.887-8.361,3.879-8.361C3.766-8.39,3.666-8.439,3.588-8.519     C3.502-8.611,3.445-8.732,3.423-8.825C3.423-8.832,3.423-8.832,3.416-8.832z"/>
			<path fill="#000000" d="M4.34-8.146c-0.003,0-0.008,0-0.008,0.004C4.317-8.071,4.295-8.02,4.243-7.971     C4.184-7.912,4.117-7.893,4.09-7.889C4.079-7.885,4.079-7.885,4.079-7.881s0,0.007,0.011,0.007     c0.053,0.011,0.109,0.037,0.156,0.082C4.291-7.744,4.322-7.68,4.332-7.629c0,0.008,0.005,0.008,0.008,0.008     c0,0,0.004,0,0.004-0.004c0.008-0.052,0.041-0.119,0.09-0.167c0.048-0.049,0.111-0.075,0.16-0.085     c0.003,0,0.003-0.004,0.003-0.004c0-0.004,0-0.004-0.003-0.004C4.531-7.9,4.475-7.93,4.434-7.971     c-0.049-0.053-0.078-0.12-0.09-0.168C4.344-8.146,4.34-8.146,4.34-8.146z"/>
			<path fill="#000000" d="M3.416-0.949c-0.008,0-0.008,0-0.008,0.008C3.38-0.82,3.338-0.721,3.245-0.635     C3.139-0.521,3.01-0.492,2.967-0.484C2.945-0.478,2.945-0.478,2.945-0.471s0,0.007,0.021,0.014     c0.092,0.015,0.199,0.064,0.285,0.15C3.33-0.221,3.388-0.1,3.408-0.007C3.408,0,3.408,0,3.416,0c0.007,0,0.007,0,0.007-0.007     c0.022-0.093,0.079-0.214,0.165-0.3C3.68-0.393,3.787-0.442,3.879-0.464c0.008,0,0.016-0.007,0.016-0.007     S3.887-0.478,3.879-0.478C3.766-0.506,3.666-0.557,3.588-0.635C3.502-0.728,3.445-0.849,3.423-0.941     C3.423-0.949,3.423-0.949,3.416-0.949z"/>
			<path fill="#000000" d="M6.59-2.945c0,0-0.004,0-0.004,0.003C6.578-2.904,6.567-2.879,6.537-2.849     c-0.033,0.032-0.07,0.041-0.086,0.044c-0.004,0-0.004,0.004-0.004,0.004s0,0.004,0.004,0.004     c0.031,0.008,0.061,0.022,0.086,0.049c0.025,0.022,0.045,0.06,0.049,0.09L6.59-2.654l0.004-0.004     c0.004-0.03,0.021-0.064,0.048-0.094c0.026-0.025,0.06-0.041,0.089-0.045l0.005-0.004L6.73-2.805     C6.694-2.811,6.664-2.826,6.642-2.849c-0.026-0.03-0.044-0.067-0.048-0.094C6.594-2.945,6.59-2.945,6.59-2.945z"/>
			<path fill="#000000" d="M7.267-2.58c-0.003,0-0.003,0.004-0.003,0.004C7.252-2.52,7.232-2.479,7.191-2.438     C7.144-2.389,7.088-2.379,7.068-2.375C7.062-2.371,7.062-2.371,7.062-2.367s0,0.004,0.007,0.008     C7.11-2.352,7.154-2.33,7.191-2.293C7.229-2.26,7.256-2.207,7.264-2.162c0,0.004,0,0.004,0.003,0.004s0.003,0,0.003-0.004     c0.009-0.041,0.033-0.094,0.071-0.135c0.041-0.036,0.089-0.059,0.13-0.066c0.005,0,0.005-0.004,0.005-0.004s0-0.004-0.005-0.004     C7.42-2.382,7.379-2.404,7.341-2.438C7.303-2.479,7.278-2.535,7.27-2.576C7.27-2.576,7.27-2.58,7.267-2.58z"/>
			<path fill="#000000" d="M6.445-1.938c-0.003,0-0.003,0.004-0.003,0.004c-0.012,0.057-0.03,0.098-0.071,0.138     C6.324-1.747,6.268-1.735,6.248-1.732C6.241-1.729,6.241-1.729,6.241-1.725s0,0.004,0.007,0.008     C6.289-1.709,6.334-1.688,6.371-1.65C6.409-1.616,6.436-1.564,6.442-1.52c0,0.004,0,0.004,0.003,0.004     c0.005,0,0.005,0,0.005-0.004c0.007-0.041,0.033-0.094,0.071-0.134c0.041-0.038,0.088-0.06,0.129-0.067     c0.005,0,0.005-0.004,0.005-0.004s0-0.004-0.005-0.004c-0.052-0.01-0.092-0.033-0.129-0.067C6.483-1.836,6.457-1.893,6.45-1.934     C6.45-1.934,6.45-1.938,6.445-1.938z"/>
			<path fill="#000000" d="M6.119-1.034c0,0-0.004,0-0.004,0.003C6.107-0.993,6.098-0.967,6.066-0.938     C6.033-0.904,5.998-0.896,5.981-0.893c-0.003,0-0.003,0.004-0.003,0.004s0,0.004,0.003,0.004c0.03,0.007,0.061,0.021,0.085,0.048     c0.027,0.022,0.046,0.06,0.049,0.089l0.004,0.004l0.005-0.004C6.127-0.777,6.146-0.811,6.172-0.84     C6.198-0.867,6.23-0.881,6.261-0.885l0.005-0.004L6.261-0.893C6.225-0.9,6.195-0.916,6.172-0.938     C6.146-0.967,6.127-1.004,6.124-1.031C6.124-1.034,6.119-1.034,6.119-1.034z"/>
			<path fill="#000000" d="M6.797-0.668c-0.004,0-0.004,0.004-0.004,0.004c-0.011,0.055-0.03,0.096-0.071,0.138     c-0.048,0.048-0.104,0.06-0.123,0.063C6.592-0.459,6.592-0.459,6.592-0.456c0,0.005,0,0.005,0.007,0.009     c0.042,0.006,0.087,0.029,0.123,0.065C6.76-0.348,6.785-0.295,6.793-0.25c0,0.003,0,0.003,0.004,0.003s0.004,0,0.004-0.003     c0.008-0.041,0.033-0.094,0.07-0.135c0.041-0.037,0.089-0.06,0.13-0.066c0.005,0,0.005-0.005,0.005-0.005s0-0.003-0.005-0.003     c-0.052-0.012-0.093-0.034-0.13-0.067c-0.037-0.042-0.062-0.097-0.07-0.138C6.801-0.664,6.801-0.668,6.797-0.668z"/>
			<path fill="#000000" d="M6.797-8.552c-0.004,0-0.004,0.003-0.004,0.003C6.782-8.492,6.763-8.451,6.722-8.41     c-0.048,0.049-0.104,0.06-0.123,0.064C6.592-8.343,6.592-8.343,6.592-8.34c0,0.004,0,0.004,0.007,0.008     c0.042,0.008,0.087,0.03,0.123,0.066C6.76-8.23,6.785-8.179,6.793-8.135c0,0.004,0,0.004,0.004,0.004s0.004,0,0.004-0.004     c0.008-0.041,0.033-0.093,0.07-0.134c0.041-0.037,0.089-0.06,0.13-0.067c0.005,0,0.005-0.004,0.005-0.004s0-0.003-0.005-0.003     C6.949-8.354,6.908-8.377,6.871-8.41c-0.037-0.041-0.062-0.097-0.07-0.139C6.801-8.549,6.801-8.552,6.797-8.552z"/>
			<path fill="#000000" d="M7.322-3.129c-0.003,0-0.003,0.005-0.003,0.005C7.311-3.09,7.301-3.064,7.275-3.038     c-0.03,0.03-0.064,0.037-0.076,0.041c-0.007,0-0.007,0-0.007,0.003c0,0,0,0.004,0.004,0.004c0.029,0.004,0.056,0.02,0.079,0.041     c0.025,0.023,0.041,0.057,0.044,0.082c0,0.004,0,0.004,0.003,0.004c0,0,0,0,0-0.004C7.33-2.893,7.346-2.926,7.368-2.949     C7.394-2.976,7.423-2.986,7.449-2.99c0.004-0.004,0.004-0.004,0.004-0.004s0-0.003-0.004-0.003     C7.416-3.005,7.391-3.02,7.371-3.038C7.346-3.064,7.33-3.098,7.322-3.124C7.322-3.129,7.322-3.129,7.322-3.129z"/>
			<path fill="#000000" d="M7.881-2.162c-0.003,0-0.003,0-0.003,0.004C7.863-2.095,7.84-2.043,7.793-1.998     C7.735-1.938,7.67-1.924,7.646-1.92C7.635-1.916,7.635-1.916,7.635-1.912s0,0.004,0.012,0.008     C7.694-1.897,7.75-1.871,7.796-1.826C7.837-1.781,7.867-1.719,7.878-1.67c0,0.004,0,0.004,0.003,0.004     c0.004,0,0.004,0,0.004-0.004c0.012-0.049,0.041-0.111,0.086-0.156C8.02-1.871,8.075-1.897,8.123-1.908     c0.005,0,0.008-0.004,0.008-0.004S8.128-1.916,8.123-1.916C8.064-1.931,8.012-1.957,7.971-1.998     c-0.045-0.049-0.074-0.111-0.086-0.16C7.885-2.162,7.885-2.162,7.881-2.162z"/>
			<path fill="#000000" d="M7.815-2.797c0,0-0.005,0-0.005,0.003c-0.003,0.026-0.018,0.06-0.045,0.086     C7.748-2.689,7.719-2.674,7.689-2.667c-0.006,0-0.006,0-0.006,0.004c0,0,0,0,0.006,0c0.024,0.007,0.055,0.019,0.076,0.045     c0.027,0.022,0.042,0.056,0.045,0.081c0,0.004,0.005,0.004,0.005,0.004s0.003,0,0.003-0.004c0.004-0.025,0.019-0.059,0.045-0.081     C7.887-2.641,7.912-2.656,7.938-2.66c0.007,0,0.007-0.003,0.007-0.003c0-0.004,0-0.004-0.007-0.004     C7.928-2.671,7.893-2.678,7.863-2.708C7.837-2.734,7.826-2.76,7.818-2.794C7.818-2.797,7.818-2.797,7.815-2.797z"/>
			<path fill="#000000" d="M4.172-1.508c-0.004,0-0.004,0.004-0.004,0.004C4.161-1.47,4.149-1.443,4.123-1.418     C4.094-1.388,4.06-1.381,4.049-1.377c-0.008,0-0.008,0-0.008,0.004c0,0,0,0.004,0.004,0.004c0.029,0.003,0.056,0.018,0.078,0.041     c0.026,0.021,0.041,0.056,0.045,0.082c0,0.004,0,0.004,0.004,0.004c0,0,0,0,0-0.004C4.18-1.272,4.194-1.307,4.217-1.328     c0.025-0.026,0.057-0.038,0.082-0.041c0.004-0.004,0.004-0.004,0.004-0.004s0-0.004-0.004-0.004     C4.265-1.385,4.238-1.398,4.221-1.418C4.194-1.443,4.18-1.479,4.172-1.504C4.172-1.508,4.172-1.508,4.172-1.508z"/>
			<path fill="#000000" d="M4.664-1.177c0,0-0.004,0-0.004,0.003c-0.004,0.027-0.02,0.061-0.044,0.086     c-0.02,0.02-0.05,0.034-0.079,0.041c-0.004,0-0.004,0-0.004,0.004c0,0,0,0,0.004,0c0.026,0.008,0.057,0.02,0.079,0.045     c0.024,0.021,0.04,0.057,0.044,0.082c0,0.004,0.004,0.004,0.004,0.004s0.004,0,0.004-0.004c0.003-0.025,0.018-0.061,0.044-0.082     c0.022-0.022,0.049-0.037,0.075-0.041c0.007,0,0.007-0.004,0.007-0.004c0-0.004,0-0.004-0.007-0.004     C4.775-1.051,4.742-1.058,4.712-1.088C4.686-1.113,4.676-1.141,4.668-1.174C4.668-1.177,4.668-1.177,4.664-1.177z"/>
			<path fill="#000000" d="M0.949-2.787c0,0-0.004,0-0.004,0.004C0.941-2.758,0.926-2.725,0.9-2.698     C0.882-2.68,0.852-2.664,0.822-2.657c-0.004,0-0.004,0-0.004,0.004c0,0,0,0,0.004,0C0.848-2.646,0.879-2.635,0.9-2.609     c0.025,0.023,0.041,0.057,0.045,0.082c0,0.005,0.004,0.005,0.004,0.005s0.004,0,0.004-0.005c0.003-0.025,0.018-0.059,0.044-0.082     c0.022-0.021,0.05-0.037,0.075-0.04c0.007,0,0.007-0.004,0.007-0.004c0-0.004,0-0.004-0.007-0.004     C1.061-2.66,1.027-2.668,0.997-2.698C0.971-2.725,0.959-2.75,0.953-2.783C0.953-2.787,0.953-2.787,0.949-2.787z"/>
			<path fill="#000000" d="M7.676-1.21c0,0-0.004,0-0.004,0.003C7.668-1.18,7.652-1.146,7.627-1.12     c-0.02,0.019-0.049,0.034-0.078,0.041c-0.004,0-0.004,0-0.004,0.004c0,0,0,0,0.004,0c0.025,0.007,0.056,0.019,0.078,0.044     c0.025,0.023,0.041,0.057,0.045,0.082c0,0.004,0.004,0.004,0.004,0.004s0.003,0,0.003-0.004c0.005-0.025,0.019-0.059,0.046-0.082     c0.021-0.022,0.047-0.037,0.074-0.041c0.006,0,0.006-0.003,0.006-0.003c0-0.004,0-0.004-0.006-0.004     C7.787-1.083,7.754-1.091,7.725-1.12C7.697-1.146,7.687-1.172,7.679-1.207C7.679-1.21,7.679-1.21,7.676-1.21z"/>
		</g>
		<g>
			<path fill="#000000" d="M1.214-4.37c-0.006,0-0.011,0-0.011,0.005c-0.02,0.098-0.051,0.17-0.123,0.236     C0.998-4.047,0.904-4.021,0.869-4.016C0.854-4.01,0.854-4.01,0.854-4.006c0,0.006,0,0.011,0.016,0.011     c0.072,0.017,0.149,0.052,0.216,0.114c0.062,0.066,0.103,0.154,0.118,0.226c0,0.011,0.005,0.011,0.011,0.011     c0,0,0.006,0,0.006-0.006c0.011-0.071,0.056-0.164,0.123-0.23C1.408-3.948,1.496-3.984,1.564-4c0.004,0,0.004-0.006,0.004-0.006     c0-0.004,0-0.004-0.004-0.004C1.477-4.031,1.398-4.072,1.343-4.129C1.275-4.2,1.234-4.293,1.22-4.359     C1.22-4.37,1.214-4.37,1.214-4.37z"/>
			<path fill="#000000" d="M1.346-3.521c0,0-0.006,0-0.006,0.005C1.33-3.463,1.315-3.428,1.274-3.387     C1.228-3.34,1.176-3.33,1.156-3.325C1.15-3.325,1.15-3.32,1.15-3.32s0,0.006,0.006,0.006c0.041,0.01,0.082,0.031,0.118,0.066     C1.31-3.217,1.336-3.165,1.34-3.124l0.006,0.005l0.005-0.005c0.006-0.041,0.03-0.087,0.067-0.128     C1.453-3.289,1.5-3.31,1.541-3.314L1.547-3.32L1.541-3.325C1.49-3.336,1.449-3.355,1.418-3.387     C1.381-3.428,1.356-3.479,1.351-3.516C1.351-3.521,1.346-3.521,1.346-3.521z"/>
			<path fill="#000000" d="M2.28-3.015c-0.005,0-0.005,0.005-0.005,0.005C2.26-2.933,2.234-2.875,2.178-2.819     C2.11-2.752,2.033-2.736,2.008-2.732c-0.01,0.006-0.01,0.006-0.01,0.011s0,0.005,0.01,0.011c0.057,0.01,0.119,0.041,0.17,0.093     C2.229-2.572,2.266-2.5,2.275-2.438c0,0.004,0,0.004,0.005,0.004c0.006,0,0.006,0,0.006-0.004     c0.011-0.058,0.046-0.129,0.097-0.186c0.057-0.053,0.125-0.083,0.18-0.094c0.006,0,0.006-0.005,0.006-0.005s0-0.005-0.006-0.005     c-0.071-0.016-0.127-0.047-0.18-0.093C2.332-2.875,2.297-2.953,2.286-3.01C2.286-3.01,2.286-3.015,2.28-3.015z"/>
			<path fill="#000000" d="M2.357-3.771c-0.004,0-0.004,0.004-0.004,0.004C2.343-3.721,2.327-3.684,2.291-3.648     C2.25-3.607,2.203-3.598,2.189-3.592c-0.011,0-0.011,0-0.011,0.005c0,0,0,0.006,0.005,0.006c0.041,0.005,0.077,0.026,0.107,0.057     c0.036,0.03,0.057,0.077,0.062,0.112c0,0.006,0,0.006,0.004,0.006c0,0,0,0,0-0.006C2.368-3.447,2.39-3.494,2.42-3.524     c0.036-0.036,0.077-0.052,0.113-0.057c0.005-0.006,0.005-0.006,0.005-0.006s0-0.005-0.005-0.005     c-0.047-0.01-0.082-0.031-0.107-0.057C2.39-3.684,2.368-3.73,2.357-3.768C2.357-3.771,2.357-3.771,2.357-3.771z"/>
			<path fill="#000000" d="M3.13-2.438c-0.006,0-0.006,0-0.006,0.004c-0.021,0.088-0.052,0.16-0.118,0.221     C2.93-2.13,2.836-2.109,2.805-2.104C2.79-2.099,2.79-2.099,2.79-2.094c0,0.006,0,0.006,0.015,0.01     c0.067,0.011,0.145,0.047,0.207,0.109C3.067-1.914,3.109-1.826,3.124-1.76c0,0.006,0,0.006,0.006,0.006     c0.005,0,0.005,0,0.005-0.006C3.15-1.826,3.191-1.914,3.253-1.975C3.32-2.037,3.396-2.073,3.465-2.088     c0.004,0,0.01-0.006,0.01-0.006s-0.006-0.005-0.01-0.005C3.382-2.119,3.311-2.155,3.253-2.213     C3.191-2.278,3.15-2.366,3.135-2.434C3.135-2.438,3.135-2.438,3.13-2.438z"/>
			<path fill="#000000" d="M3.037-3.315c0,0-0.004,0-0.004,0.005C3.027-3.274,3.007-3.229,2.971-3.191     C2.945-3.166,2.904-3.146,2.863-3.136c-0.006,0-0.006,0-0.006,0.005c0,0,0,0,0.006,0C2.898-3.12,2.94-3.105,2.971-3.068     c0.036,0.03,0.057,0.077,0.062,0.113c0,0.005,0.004,0.005,0.004,0.005s0.006,0,0.006-0.005c0.005-0.036,0.025-0.083,0.062-0.113     C3.136-3.1,3.171-3.12,3.207-3.125c0.011,0,0.011-0.006,0.011-0.006c0-0.005,0-0.005-0.011-0.005     C3.191-3.141,3.146-3.15,3.105-3.191C3.068-3.229,3.054-3.264,3.043-3.311C3.043-3.315,3.043-3.315,3.037-3.315z"/>
			<path fill="#000000" d="M2.845-1.123c0,0-0.005,0-0.005,0.004C2.834-1.082,2.814-1.035,2.777-1     C2.752-0.975,2.711-0.953,2.67-0.943c-0.006,0-0.006,0-0.006,0.005c0,0,0,0,0.006,0c0.035,0.011,0.076,0.026,0.107,0.062     C2.814-0.846,2.834-0.799,2.84-0.764c0,0.006,0.005,0.006,0.005,0.006s0.006,0,0.006-0.006c0.005-0.035,0.024-0.082,0.062-0.113     c0.031-0.031,0.066-0.051,0.103-0.057c0.011,0,0.011-0.005,0.011-0.005c0-0.005,0-0.005-0.011-0.005     C2.999-0.949,2.953-0.959,2.912-1C2.875-1.035,2.861-1.072,2.851-1.119C2.851-1.123,2.851-1.123,2.845-1.123z"/>
		</g>
		<g>
			<path fill="#000000" d="M1.268-8.617c-0.005,0-0.005,0.006-0.005,0.006C1.247-8.535,1.221-8.479,1.164-8.422     C1.098-8.355,1.02-8.34,0.994-8.334c-0.01,0.005-0.01,0.005-0.01,0.01c0,0.006,0,0.006,0.01,0.01     c0.058,0.011,0.119,0.043,0.17,0.094c0.053,0.046,0.088,0.119,0.099,0.18c0,0.005,0,0.005,0.005,0.005     c0.006,0,0.006,0,0.006-0.005C1.283-8.098,1.318-8.17,1.37-8.227c0.058-0.051,0.123-0.082,0.181-0.092     c0.004,0,0.004-0.006,0.004-0.006s0-0.005-0.004-0.005C1.479-8.345,1.422-8.375,1.37-8.422C1.318-8.479,1.283-8.556,1.273-8.611     C1.273-8.611,1.273-8.617,1.268-8.617z"/>
			<path fill="#000000" d="M2.116-8.041c-0.005,0-0.005,0-0.005,0.005C2.091-7.948,2.059-7.877,1.992-7.814     c-0.077,0.082-0.17,0.104-0.2,0.107C1.775-7.701,1.775-7.701,1.775-7.696s0,0.005,0.017,0.011     c0.066,0.01,0.144,0.046,0.206,0.107c0.057,0.062,0.098,0.149,0.113,0.217c0,0.005,0,0.005,0.005,0.005s0.005,0,0.005-0.005     c0.016-0.067,0.057-0.154,0.118-0.217C2.307-7.64,2.385-7.676,2.45-7.691c0.006,0,0.011-0.005,0.011-0.005     S2.456-7.701,2.45-7.701C2.368-7.722,2.297-7.758,2.239-7.814C2.178-7.881,2.137-7.969,2.121-8.036     C2.121-8.041,2.121-8.041,2.116-8.041z"/>
			<path fill="#000000" d="M1.832-6.727c0,0-0.006,0-0.006,0.006C1.82-6.685,1.801-6.639,1.765-6.603     C1.738-6.576,1.697-6.557,1.656-6.546c-0.004,0-0.004,0-0.004,0.005c0,0,0,0,0.004,0C1.693-6.53,1.734-6.516,1.765-6.479     c0.036,0.03,0.056,0.077,0.062,0.113c0,0.005,0.006,0.005,0.006,0.005s0.004,0,0.004-0.005c0.006-0.036,0.027-0.083,0.062-0.113     C1.93-6.51,1.965-6.53,2.001-6.535c0.011,0,0.011-0.006,0.011-0.006c0-0.005,0-0.005-0.011-0.005     C1.986-6.551,1.939-6.562,1.898-6.603C1.863-6.639,1.847-6.674,1.836-6.721C1.836-6.727,1.836-6.727,1.832-6.727z"/>
		</g>
		<g>
			<path fill="#000000" d="M1.268-0.733c-0.005,0-0.005,0.005-0.005,0.005c-0.016,0.077-0.042,0.135-0.099,0.19     C1.098-0.471,1.02-0.456,0.994-0.451c-0.01,0.006-0.01,0.006-0.01,0.011s0,0.005,0.01,0.011c0.058,0.01,0.119,0.041,0.17,0.092     c0.053,0.047,0.088,0.119,0.099,0.181c0,0.005,0,0.005,0.005,0.005c0.006,0,0.006,0,0.006-0.005     c0.01-0.057,0.045-0.129,0.097-0.185c0.058-0.053,0.123-0.084,0.181-0.094c0.004,0,0.004-0.005,0.004-0.005s0-0.005-0.004-0.005     C1.479-0.461,1.422-0.492,1.37-0.538c-0.052-0.056-0.087-0.134-0.097-0.19C1.273-0.729,1.273-0.733,1.268-0.733z"/>
			<path fill="#000000" d="M1.346-1.49C1.34-1.49,1.34-1.486,1.34-1.486C1.329-1.439,1.314-1.403,1.279-1.367     C1.238-1.326,1.191-1.316,1.175-1.311c-0.011,0-0.011,0-0.011,0.005c0,0,0,0.006,0.006,0.006     c0.041,0.005,0.078,0.025,0.109,0.056C1.314-1.213,1.335-1.166,1.34-1.131c0,0.006,0,0.006,0.006,0.006c0,0,0,0,0-0.006     c0.01-0.035,0.03-0.082,0.061-0.113C1.443-1.279,1.484-1.295,1.52-1.3c0.006-0.006,0.006-0.006,0.006-0.006s0-0.005-0.006-0.005     C1.474-1.32,1.438-1.342,1.412-1.367C1.376-1.403,1.355-1.449,1.346-1.486C1.346-1.49,1.346-1.49,1.346-1.49z"/>
			<path fill="#000000" d="M2.025-1.034c0,0-0.006,0-0.006,0.005C2.015-0.993,1.994-0.947,1.957-0.911     C1.933-0.885,1.891-0.865,1.85-0.854c-0.005,0-0.005,0-0.005,0.005c0,0,0,0,0.005,0c0.036,0.011,0.077,0.025,0.107,0.062     c0.037,0.03,0.058,0.076,0.062,0.113c0,0.005,0.006,0.005,0.006,0.005s0.004,0,0.004-0.005c0.006-0.037,0.026-0.083,0.062-0.113     c0.032-0.031,0.067-0.052,0.104-0.057c0.01,0,0.01-0.006,0.01-0.006c0-0.005,0-0.005-0.01-0.005     C2.179-0.859,2.133-0.87,2.091-0.911C2.056-0.947,2.039-0.982,2.029-1.029C2.029-1.034,2.029-1.034,2.025-1.034z"/>
		</g>
	</g>
</pattern>
<path d="M53.261,0.576c55.79,16.958,5.614,48.965,6.671,72.852c0.487,10.922,7.67,23.922-9.44,25.363  c-19.51,1.646-25.1-18.739-20.289-31.218C39.121,44.424,90.331,28.21,53.261,0.576z"/>
<path d="M77.319,45.523c0.279-0.825-4.332,5.553-6.941,10.299c-1.415,2.572-4.94,8.451-5.554,15.315  c-0.587,6.619,1.922,21.115,5.414,24.151c2.479,2.151,4.549,1.95,6.465,1.888c5.146-0.171,5.811-4.274,5.646-7.947  c-0.225-5.1-4.664-13.368-6.881-18.092C70.236,59.974,77.183,45.917,77.319,45.523z"/>
<path d="M54.731,32.823c1.687-3.233-18.888,11.867-27.58,18.794c-8.795,7.003-13.94,12.378-13.94,19.97  c0,15.156,14.395,24.04,15.779,23.88c1.383-0.159-6.676-13.813-4.596-25.187c0.696-3.808,2.827-8.998,7.695-14.419  C39.964,47.092,52.99,36.174,54.731,32.823z"/>
</svg>