<svg xmlns:dc="http://purl.org/dc/elements/1.1/" xmlns:cc="http://creativecommons.org/ns#" xmlns:rdf="http://www.w3.org/1999/02/22-rdf-syntax-ns#" xmlns:svg="http://www.w3.org/2000/svg" xmlns="http://www.w3.org/2000/svg" xmlns:sodipodi="http://sodipodi.sourceforge.net/DTD/sodipodi-0.dtd" xmlns:inkscape="http://www.inkscape.org/namespaces/inkscape" sodipodi:docname="trichechusmanatuscuba.svg" inkscape:version="0.48.2 r9819" id="svg2" version="1.1" viewBox="0 0 887 300" height="33.8218714769px" width="100px">
  <metadata id="metadata12">
    <rdf:RDF>
      <cc:Work rdf:about="">
        <dc:format>image/svg+xml</dc:format>
        <dc:type rdf:resource="http://purl.org/dc/dcmitype/StillImage"/>
      </cc:Work>
    </rdf:RDF>
  </metadata>
  <defs id="defs10"/>
  <sodipodi:namedview pagecolor="#ffffff" bordercolor="#666666" borderopacity="1" objecttolerance="10" gridtolerance="10" guidetolerance="10" inkscape:pageopacity="0" inkscape:pageshadow="2" inkscape:window-width="1600" inkscape:window-height="878" id="namedview8" showgrid="false" inkscape:zoom="1" inkscape:cx="375.375" inkscape:cy="187.5" inkscape:window-x="-8" inkscape:window-y="-8" inkscape:window-maximized="1" inkscape:current-layer="layer1"/>
  <path fill="#000000" opacity="1.00" d=" M 0.00 0.00 L 0.42 0.00 C 0.31 0.10 0.10 0.31 0.00 0.42 L 0.00 0.00 Z" id="path4"/>
  <g inkscape:groupmode="layer" id="layer1" inkscape:label="Manatee">
    <path d="m 43.820712,1.07385 c 0.695326,-0.0599 1.39699,0.0188 2.086884,-0.13853 0.710718,-0.12679 1.427774,0.005 2.141208,0.0153 0.887266,0.001 1.754612,0.29232 2.640067,0.32167 0.628329,0.034 1.249415,0.16671 1.874123,0.25828 0.904468,0.1397 1.775436,0.49894 2.657269,0.77835 0.621991,0.12796 1.220443,0.39328 1.837907,0.55764 0.503388,0.14205 1.014924,0.22775 1.517405,0.38037 0.350379,0.10918 0.711623,0.11505 1.070151,0.1491 0.411945,0.0376 0.801256,0.23832 1.212296,0.29349 0.305109,0.0411 0.608412,0.11623 0.89813,0.25593 0.329556,0.15732 0.68627,0.11505 1.029406,0.18432 0.966938,0.26414 1.936594,0.52477 2.91802,0.69265 1.0783,0.23127 2.076018,0.8347 3.121724,1.22446 0.419188,0.15144 0.78315,0.46959 1.178794,0.69617 0.499768,0.29702 1.055668,0.44142 1.510162,0.85936 0.630144,0.57407 1.349913,0.96149 1.959232,1.57431 0.217288,0.22423 0.401081,0.49542 0.598449,0.749 0.2698,0.35571 0.572195,0.66917 0.827513,1.04367 0.354,0.51185 0.679026,1.08358 1.14077,1.444 0.3205,0.21718 0.6736,0.34867 0.9778,0.60929 0.478036,0.4015 0.98233,0.7537 1.426868,1.21742 0.299681,0.30641 0.629237,0.59404 0.818456,1.0378 0.367581,0.70204 0.444537,1.55788 0.645532,2.34679 0.1005,0.3745 0.04891,0.77718 -0.06699,1.13407 -0.183794,0.56938 -0.2698,1.21625 -0.605694,1.67997 -0.402894,0.58464 -0.851056,1.15989 -1.419626,1.46043 -0.427336,0.23245 -0.876405,0.43203 -1.34448,0.43085 -0.462644,-0.006 -0.895412,0.2395 -1.35082,0.28528 -0.6066,-0.0153 -1.204142,-0.17727 -1.797161,-0.32519 -0.276139,-0.0728 -0.564956,-0.0833 -0.824795,-0.22893 -0.320505,-0.23127 -0.54413,-0.63278 -0.870061,-0.85231 -0.365775,-0.24301 -0.785869,-0.35806 -1.194188,-0.28645 -0.702569,0.11622 -1.404237,0.24301 -2.102281,0.39094 -0.897219,0.0798 -1.808026,0.11152 -2.682619,0.41441 -0.481656,0.15262 -0.980519,0.11035 -1.472137,0.11623 0.121325,0.5412 0.177456,1.10706 0.349474,1.62948 0.363963,1.14816 0.674507,2.32449 0.899944,3.53252 0.299675,1.07536 0.281568,2.25169 0.105924,3.35876 -0.256217,1.2949 -0.94068,2.34327 -1.657736,3.26367 -0.567669,0.6046 -1.330894,0.83705 -2.055194,0.75604 -0.473512,0.0118 -0.928914,-0.29232 -1.235835,-0.749 -0.358528,-0.57642 -0.431863,-1.35008 -0.762324,-1.94763 -0.252599,-0.4649 -0.531455,-0.91571 -0.699853,-1.44635 -0.08873,-0.25475 -0.03712,-0.53768 -0.02988,-0.80418 0.04889,-0.64569 0.03259,-1.29607 -0.04165,-1.93707 -0.22906,0.45668 -0.32684,1.01315 -0.608411,1.42522 -0.3875,0.5095 -0.833849,0.98614 -1.382505,1.15989 -0.574006,0.30171 -1.207767,0.10449 -1.766382,-0.15379 -0.271612,-0.25476 -0.41285,-0.69735 -0.527833,-1.09415 -0.09144,-0.76074 0.05885,-1.5344 -0.02444,-2.29749 -0.06156,-0.49307 -0.318691,-0.97088 -0.197371,-1.48156 0.118604,-0.52712 0.265274,-1.04719 0.446349,-1.54379 0.197371,-0.54707 0.642815,-0.87579 0.792201,-1.45691 -0.569479,0.081 -1.14077,0.14323 -1.712966,0.19723 -0.861915,0.0869 -1.730167,-0.047 -2.589366,0.10331 -0.624707,0.0857 -1.253037,0.027 -1.879555,0.0458 -0.409228,0.0141 -0.807592,-0.10331 -1.207767,-0.18784 -0.521495,-0.10918 -1.052043,0.0517 -1.570822,-0.081 -0.42462,-0.10565 -0.857388,-0.0787 -1.286535,-0.11035 -1.052043,-0.13149 -2.118573,-0.14205 -3.148888,-0.47312 -1.052043,-0.14087 -2.063345,-0.5682 -3.106334,-0.78069 -0.411945,-0.0446 -0.805782,-0.21484 -1.210484,-0.30641 -0.854672,-0.16084 -1.690331,-0.45199 -2.528707,-0.71144 -0.420998,-0.0916 -0.856482,0.0423 -1.270238,-0.12679 -0.576722,-0.22657 -1.186944,-0.21366 -1.768193,-0.40854 -0.419188,-0.14323 -0.854672,-0.0986 -1.282914,-0.10097 -0.362149,0.001 -0.718866,-0.0951 -1.08011,-0.1127 -0.423715,-0.0282 -0.845618,0.0317 -1.268427,0.02 -0.499766,-0.009 -1.003154,-0.0822 -1.499298,0.0211 -0.570385,0.12679 -1.151635,0.0364 -1.725641,0.10566 -0.64372,0.0716 -1.291062,0.10331 -1.936593,0.0716 -0.315069,-0.02 -0.627423,0.0376 -0.937966,0.0986 -0.342231,0.081 -0.67903,-0.13501 -1.021261,-0.0528 -0.339515,0.0822 -0.684462,0.12327 -1.030314,0.0881 -0.574006,-0.054 -1.139865,0.10566 -1.700291,0.23832 -0.347663,0.0822 -0.683556,0.24301 -0.979614,0.49425 -1.220442,1.03662 -2.618338,1.62244 -3.935656,2.40549 -0.446349,0.26532 -0.853766,0.62221 -1.272048,0.9521 -0.446349,0.34397 -0.810309,0.83235 -1.23674,1.21037 -0.321407,0.28293 -0.599357,0.63982 -0.920764,0.92158 -0.7632298,0.62572 -1.4884328,1.36768 -2.3503488,1.75744 -0.967844,0.34515 -2.104992,0.38037 -2.955137,-0.4062 C 4.9765902,26.61515 4.5564974,26.35687 4.1952536,25.9812 3.7760648,25.548 3.3442022,25.13476 2.9557971,24.6546 2.6878067,24.32823 2.511259,23.9056 2.2803888,23.53932 1.5361722,22.46747 1.0608514,21.09391 0.88701984,19.67339 0.73401184,18.7119 0.77294284,17.68114 1.0825804,16.776 1.2799517,16.07044 1.666546,15.50106 1.9635083,14.86828 2.2333094,14.32355 2.4723279,13.74713 2.800073,13.25523 c 0.3485685,-0.53768 0.8166462,-0.90631 1.23855,-1.33599 0.4744156,-0.48016 1.0022482,-0.86523 1.5554312,-1.16811 0.491618,-0.27237 1.028504,-0.35807 1.554525,-0.42968 1.347195,-0.0963 2.703444,0.1127 4.0098968,0.53651 0.64372,0.2888 1.318223,0.43789 1.9547,0.75252 0.57129,0.26415 1.163406,0.47194 1.695764,0.85818 0.220911,0.14205 0.428242,0.32754 0.66726,0.41325 0.445443,-0.0153 0.859199,-0.25711 1.272954,-0.44494 0.88274,-0.3792 1.780869,-0.69618 2.646406,-1.13877 0.292435,-0.14088 0.59664,-0.23597 0.88817,-0.38154 0.787676,-0.40855 1.606132,-0.70909 2.392901,-1.12233 0.804877,-0.35806 1.592551,-0.77718 2.406483,-1.10237 0.484373,-0.18549 0.946113,-0.46607 1.443164,-0.59638 0.254409,-0.0587 0.474416,-0.23597 0.701664,-0.38389 0.325933,-0.21954 0.725204,-0.15966 1.036652,-0.42968 0.465361,-0.38859 1.004058,-0.5729 1.503824,-0.86523 0.463552,-0.27001 0.956073,-0.44728 1.40876,-0.749 0.422809,-0.28997 0.89632,-0.43789 1.306453,-0.76191 0.3033,-0.23832 0.640099,-0.39681 0.986857,-0.49073 0.486186,-0.135 0.92348,-0.44846 1.386126,-0.67151 0.358528,-0.17962 0.735164,-0.28293 1.099122,-0.44612 1.456746,-0.65743 2.927978,-1.31251 4.460774,-1.60248 0.561332,0.0786 1.069245,-0.30641 1.61609,-0.38389 0.199182,-0.0329 0.400175,-0.0387 0.601168,-0.0493 0.401986,-0.005 0.784054,-0.21484 1.186944,-0.18784 z" id="manatee" inkscape:connector-curvature="0" style="fill:#000000">
      <desc id="desc3004">Trichechus Manatus Manatus Linneous Cubanus</desc>
      <title id="title3002">Manatee</title>
    </path>
  </g>
</svg>