<svg xmlns="http://www.w3.org/2000/svg" xmlns:xlink="http://www.w3.org/1999/xlink" version="1.1" id="Layer_1" x="0px" y="0px" width="93.689px" height="100px" viewBox="0 0 93.689 100" enable-background="new 0 0 93.689 100" xml:space="preserve">
<path fill="#000000" d="M91.808,30.718h-0.864V18.635c0-1.363-2.028-1.363-2.028,0v12.083h-0.591  c-2.163-0.212-12.326-1.298-14.288-2.312c-1.973-1.034-4.043-2.205-5.973-3.197c-1.773-0.887-2.808-0.822-4.729-0.497  c-1.086,0.212-7.481,1.404-13.675,2.977c-7.651,1.931-17.097,6.385-17.097,6.385l-10.796,0.042c-2.47-0.717-3.44-5.34-4.518-7.375  l-2.72-5.487c-0.201-0.455-0.698-0.591-1.173-0.614l-6.881-0.411c-1.033-0.063-0.643,0.803-0.496,1.298l4.718,18.499  c0.495,2.068,3.367,4.042,5.382,4.254l27.786,4.262h3.83l0.045-7.318l0.481-0.144c0.309-0.092,7.895-2.343,10.651-2.154  c4.378,0.299,7.589,6.667,8.851,9.616l2.555,6.75c-1.119,0.716-1.865,1.964-1.865,3.39c0,2.228,1.805,4.031,4.032,4.031  c2.226,0,4.03-1.804,4.03-4.031c0-2.21-1.781-4.002-3.985-4.025l-2.305-6.179c2.448-0.391,7.071-1.129,9.73-1.889  c1.147-0.295,2.322-1.487,2.659-2.173l6.341-9.667v12.105c0,1.361,2.028,1.361,2.028,0V34.359h0.864  C94.235,34.359,94.235,30.718,91.808,30.718z M44.004,34.96c-0.411,0-0.843-0.244-0.843-0.887v-1.012c0-0.549,0.23-0.887,0.728-1.13  c0.57-0.262,3.979-1.624,6.037-2.163c3.713-0.929,7.607-1.774,10.342-2.312l2.542,7.503H44.004z M73.194,31.583  c-0.244,0.413-1.625,2.777-1.625,2.777s-0.295,0.602-1.235,0.602h-4.728l-2.702-8.021c0.211-0.042,0.432-0.084,0.579-0.105  c1.689-0.306,2.271-0.306,3.525,0.336c0,0,5.383,2.777,5.753,2.987C73.216,30.38,73.499,31.046,73.194,31.583z"/>
<path fill="#000000" d="M48.056,60.485c-1.062-0.295-1.676-1.395-1.374-2.464c0.304-1.069,1.408-1.698,2.47-1.403  c1.062,0.292,1.678,1.396,1.375,2.464C50.223,60.148,49.118,60.782,48.056,60.485z"/>
<path fill="#000000" d="M21.456,71.783c1.062,0.292,1.676,1.396,1.374,2.464c-0.302,1.069-1.408,1.698-2.469,1.405  c-1.062-0.292-1.678-1.396-1.375-2.463C19.288,72.12,20.395,71.491,21.456,71.783z"/>
<path fill="#000000" d="M27.286,64.923c0.304-1.067,1.411-1.698,2.471-1.404c1.064,0.29,1.677,1.395,1.375,2.464  c-0.302,1.066-1.408,1.695-2.468,1.403C27.6,67.094,26.983,65.992,27.286,64.923z"/>
<path fill="#000000" d="M28.972,75.966c-1.062-0.297-1.676-1.398-1.374-2.463c0.302-1.072,1.408-1.701,2.47-1.406  c1.062,0.292,1.676,1.394,1.374,2.463S30.035,76.258,28.972,75.966z"/>
<path fill="#000000" d="M24.921,80.148c-1.062-0.294-1.677-1.396-1.373-2.463c0.303-1.069,1.408-1.7,2.47-1.404  c1.059,0.292,1.674,1.395,1.374,2.462C27.089,79.81,25.983,80.441,24.921,80.148z"/>
<path fill="#000000" d="M21.066,84.605c-1.062-0.295-1.677-1.397-1.373-2.464c0.303-1.069,1.408-1.698,2.47-1.404  c1.059,0.292,1.674,1.395,1.375,2.464C23.234,84.269,22.128,84.897,21.066,84.605z"/>
<path fill="#000000" d="M16.816,88.993c-1.062-0.295-1.677-1.397-1.373-2.464c0.303-1.069,1.408-1.7,2.47-1.404  c1.059,0.293,1.674,1.395,1.375,2.462C18.984,88.653,17.878,89.285,16.816,88.993z"/>
<path fill="#000000" d="M25.816,67.701c1.06,0.293,1.676,1.397,1.374,2.464c-0.302,1.069-1.408,1.698-2.47,1.404  c-1.062-0.293-1.676-1.395-1.375-2.462C23.648,68.038,24.753,67.409,25.816,67.701z"/>
<path fill="#000000" d="M41.697,69.364c-1.063-0.292-1.676-1.395-1.375-2.464c0.303-1.068,1.409-1.697,2.47-1.403  c1.062,0.292,1.677,1.396,1.375,2.464C43.864,69.027,42.759,69.659,41.697,69.364z"/>
<path fill="#000000" d="M35.339,78.079c-1.062-0.295-1.676-1.397-1.375-2.467c0.303-1.066,1.409-1.695,2.471-1.403  c1.062,0.292,1.676,1.396,1.374,2.466C37.505,77.739,36.401,78.371,35.339,78.079z"/>
<path fill="#000000" d="M31.721,82.313c-1.062-0.295-1.676-1.396-1.375-2.466c0.303-1.067,1.409-1.696,2.471-1.404  c1.062,0.292,1.676,1.397,1.374,2.466C33.887,81.975,32.783,82.605,31.721,82.313z"/>
<path fill="#000000" d="M44.877,64.925c-1.062-0.294-1.676-1.395-1.375-2.464c0.303-1.069,1.408-1.695,2.471-1.403  c1.062,0.292,1.677,1.395,1.374,2.464C47.043,64.588,45.94,65.219,44.877,64.925z"/>
<path fill="#000000" d="M22.685,58.82c-0.302,1.064-1.407,1.693-2.47,1.401c-1.063-0.292-1.676-1.395-1.373-2.466  c0.301-1.067,1.406-1.693,2.469-1.404C22.372,56.646,22.987,57.751,22.685,58.82z"/>
<path fill="#000000" d="M38.517,73.804c-1.062-0.294-1.675-1.396-1.374-2.463c0.303-1.069,1.409-1.698,2.469-1.404  c1.062,0.292,1.678,1.395,1.376,2.461C40.684,73.467,39.58,74.099,38.517,73.804z"/>
<path fill="#000000" d="M18.131,62.619c-0.302,1.069-1.409,1.698-2.469,1.406c-1.061-0.295-1.676-1.399-1.375-2.464  c0.304-1.069,1.408-1.698,2.469-1.406C17.82,60.447,18.432,61.552,18.131,62.619z"/>
<path fill="#000000" d="M44.266,54.68c1.062,0.292,1.676,1.395,1.375,2.466c-0.303,1.067-1.409,1.696-2.471,1.401  c-1.061-0.292-1.677-1.395-1.373-2.464C42.1,55.017,43.205,54.388,44.266,54.68z"/>
<path fill="#000000" d="M23.184,53.839c0.303-1.067,1.408-1.696,2.471-1.404c1.062,0.293,1.676,1.397,1.373,2.464  c-0.301,1.069-1.407,1.696-2.47,1.404C23.496,56.013,22.883,54.908,23.184,53.839z"/>
<path fill="#000000" d="M32.806,71.545c-1.062-0.294-1.678-1.396-1.376-2.463c0.305-1.072,1.41-1.698,2.471-1.408  c1.062,0.294,1.678,1.398,1.375,2.466C34.973,71.209,33.866,71.837,32.806,71.545z"/>
<path fill="#000000" d="M41.117,59.011c1.063,0.292,1.677,1.396,1.375,2.464c-0.303,1.069-1.41,1.695-2.471,1.403  c-1.06-0.292-1.675-1.395-1.374-2.463C38.951,59.348,40.056,58.719,41.117,59.011z"/>
<path fill="#000000" d="M8.503,70.195c-0.304,1.072-1.409,1.698-2.472,1.406c-1.061-0.289-1.677-1.394-1.375-2.463  c0.303-1.069,1.409-1.698,2.471-1.406C8.188,68.024,8.805,69.127,8.503,70.195z"/>
<path fill="#000000" d="M13.359,66.399c-0.302,1.069-1.408,1.698-2.469,1.403c-1.061-0.292-1.675-1.396-1.373-2.464  c0.302-1.068,1.407-1.697,2.467-1.405C13.047,64.228,13.661,65.332,13.359,66.399z"/>
<path fill="#000000" d="M29.917,48.534c1.062,0.294,1.676,1.395,1.374,2.463c-0.301,1.069-1.406,1.697-2.47,1.405  c-1.061-0.294-1.676-1.396-1.375-2.463C27.75,48.869,28.855,48.241,29.917,48.534z"/>
<path fill="#000000" d="M41.177,50.248c1.064,0.294,1.679,1.396,1.374,2.465c-0.301,1.069-1.407,1.696-2.467,1.406  c-1.062-0.297-1.679-1.396-1.375-2.467C39.01,50.584,40.118,49.956,41.177,50.248z"/>
<path fill="#000000" d="M35.059,64.645c0.303-1.066,1.409-1.695,2.469-1.401c1.063,0.292,1.678,1.395,1.375,2.464  c-0.302,1.066-1.41,1.695-2.47,1.401C35.371,66.816,34.756,65.714,35.059,64.645z"/>
<path fill="#000000" d="M35.856,49.703c1.062,0.294,1.677,1.395,1.373,2.464c-0.303,1.069-1.407,1.698-2.47,1.405  c-1.059-0.292-1.676-1.396-1.373-2.465C33.689,50.039,34.793,49.41,35.856,49.703z"/>
<path fill="#000000" d="M31.973,53.437c1.063,0.294,1.677,1.394,1.373,2.463c-0.303,1.069-1.407,1.698-2.47,1.406  c-1.059-0.294-1.676-1.396-1.373-2.466C29.806,53.771,30.911,53.142,31.973,53.437z"/>
<path fill="#000000" d="M28.091,57.317c1.063,0.295,1.677,1.395,1.373,2.466c-0.303,1.067-1.407,1.698-2.47,1.404  c-1.059-0.292-1.676-1.395-1.373-2.467C25.924,57.654,27.029,57.025,28.091,57.317z"/>
<path fill="#000000" d="M23.91,61.051c1.062,0.294,1.677,1.396,1.373,2.466c-0.303,1.066-1.407,1.698-2.47,1.403  c-1.059-0.292-1.676-1.395-1.373-2.463C21.742,61.388,22.847,60.759,23.91,61.051z"/>
<path fill="#000000" d="M19.878,64.937c1.063,0.295,1.677,1.395,1.373,2.464c-0.303,1.069-1.407,1.698-2.47,1.406  c-1.059-0.293-1.676-1.397-1.373-2.467C17.711,65.273,18.816,64.645,19.878,64.937z"/>
<path fill="#000000" d="M15.596,68.722c1.063,0.292,1.677,1.394,1.374,2.463s-1.407,1.698-2.47,1.404  c-1.059-0.292-1.676-1.395-1.373-2.464S14.534,68.427,15.596,68.722z"/>
<path fill="#000000" d="M11.52,72.405c1.062,0.294,1.676,1.394,1.373,2.466c-0.303,1.066-1.407,1.698-2.47,1.403  c-1.059-0.292-1.676-1.395-1.373-2.466C9.352,72.742,10.457,72.113,11.52,72.405z"/>
<path fill="#000000" d="M7.297,76.234c1.063,0.295,1.677,1.396,1.373,2.466c-0.302,1.067-1.407,1.698-2.469,1.404  c-1.059-0.292-1.676-1.395-1.373-2.464C5.131,76.571,6.235,75.942,7.297,76.234z"/>
<path fill="#000000" d="M2.815,80.22c1.063,0.292,1.677,1.395,1.373,2.464c-0.302,1.068-1.407,1.697-2.47,1.403  c-1.059-0.292-1.676-1.395-1.373-2.464C0.648,80.554,1.753,79.925,2.815,80.22z"/>
<path fill="#000000" d="M32.968,63.116c-1.063-0.295-1.679-1.396-1.376-2.466c0.304-1.072,1.41-1.696,2.471-1.404  s1.675,1.395,1.373,2.464C35.135,62.779,34.028,63.408,32.968,63.116z"/>
<path fill="#000000" d="M37.636,54.771c1.062,0.292,1.675,1.396,1.374,2.464c-0.302,1.066-1.408,1.695-2.471,1.403  c-1.061-0.292-1.677-1.395-1.374-2.464C35.469,55.105,36.574,54.478,37.636,54.771z"/>
<path fill="#000000" d="M18.597,78.178c-0.303,1.069-1.408,1.7-2.471,1.406c-1.059-0.292-1.676-1.395-1.372-2.464  c0.303-1.069,1.407-1.698,2.468-1.403C18.284,76.009,18.899,77.11,18.597,78.178z"/>
<path fill="#000000" d="M14.312,82.36c-0.302,1.069-1.407,1.698-2.47,1.403c-1.059-0.292-1.676-1.394-1.373-2.463  c0.303-1.067,1.407-1.696,2.469-1.404C14,80.189,14.615,81.294,14.312,82.36z"/>
<path fill="#000000" d="M10.291,86.781c-0.302,1.069-1.407,1.7-2.47,1.406c-1.059-0.292-1.677-1.395-1.373-2.464  c0.303-1.069,1.407-1.698,2.469-1.403C9.979,84.612,10.594,85.714,10.291,86.781z"/>
<path fill="#000000" d="M5.469,91.004c-0.302,1.069-1.407,1.698-2.47,1.404c-1.059-0.292-1.676-1.395-1.372-2.464  c0.303-1.067,1.407-1.696,2.469-1.403C5.156,88.833,5.771,89.938,5.469,91.004z"/>
<path fill="#000000" d="M3.921,74.112c-0.303,1.069-1.409,1.698-2.469,1.404c-1.062-0.29-1.677-1.395-1.375-2.462  c0.302-1.066,1.408-1.698,2.469-1.405C3.609,71.941,4.223,73.046,3.921,74.112z"/>
<path fill="#000000" d="M58.782,40.267c-2.166-0.154-7.986,1.47-9.696,1.96l-0.023,7.952h-3.644l0.025,2.061l7.297,3.474v-7.172  h13.491C64.722,45.276,61.855,40.472,58.782,40.267z"/>
</svg>