<svg xmlns="http://www.w3.org/2000/svg" xmlns:xlink="http://www.w3.org/1999/xlink" version="1.1" id="Ebene_1" x="0px" y="0px" width="99.5391705069px" height="100px" viewBox="0 0 216 217.333" enable-background="new 0 0 216 217.333" xml:space="preserve">
<g>
	<path d="M171.81,13.667h-129c-16.542,0-30,13.458-30,30v129c0,16.542,13.458,30,30,30h129c16.542,0,30-13.458,30-30v-129   C201.81,27.125,188.352,13.667,171.81,13.667z M193.81,172.667c0,12.131-9.869,22-22,22h-129c-12.131,0-22-9.869-22-22v-129   c0-12.131,9.869-22,22-22h129c12.131,0,22,9.869,22,22V172.667z"/>
	<path d="M142.784,56.391h-70.95c-8.988,0-16.3,7.312-16.3,16.301v70.949c0,8.988,7.312,16.301,16.3,16.301h55.731   c1.104,0,2-0.896,2-2s-0.896-2-2-2H71.834c-6.782,0-12.3-5.519-12.3-12.301V72.692c0-6.782,5.518-12.301,12.3-12.301h70.95   c6.782,0,12.301,5.519,12.301,12.301v33.475h-11.576v-23.8c0-5.744-4.656-10.4-10.399-10.4H81.509   c-5.743,0-10.399,4.656-10.399,10.4v51.6c0,5.744,4.656,10.4,10.399,10.4h51.601c5.743,0,10.399-4.656,10.399-10.4v-23.8h13.576   c1.104,0,2-0.896,2-2V72.692C159.085,63.704,151.772,56.391,142.784,56.391z"/>
	<path d="M152.46,44.816h-90.3c-10.052,0-18.2,8.148-18.2,18.2v90.301c0,10.051,8.148,18.199,18.2,18.199h70.3l38.199-38.199V63.016   C170.659,52.965,162.511,44.816,152.46,44.816z M166.659,131.66l-35.856,35.856H62.16c-7.83,0-14.2-6.37-14.2-14.199V63.016   c0-7.83,6.37-14.2,14.2-14.2h90.3c7.829,0,14.199,6.37,14.199,14.2V131.66z"/>
	<path d="M162.135,31.241H52.484c-12.206,0-22.1,9.895-22.1,22.1v109.649c0,12.206,9.895,22.101,22.1,22.101h89.65l42.101-42.101   V53.341C184.235,41.136,174.341,31.241,162.135,31.241z M180.235,141.333l-39.758,39.758H52.484c-9.98,0-18.1-8.12-18.1-18.101   V53.341c0-9.98,8.12-18.1,18.1-18.1h109.65c9.98,0,18.101,8.12,18.101,18.1V141.333z"/>
</g>
</svg>