<svg xmlns="http://www.w3.org/2000/svg" xmlns:xlink="http://www.w3.org/1999/xlink" version="1.1" id="toilet_xA0_Image_1_" x="0px" y="0px" width="75.4545454545px" height="100px" viewBox="0 0 83.04 110.88" enable-background="new 0 0 83.04 110.88" xml:space="preserve">
<path d="M76.038,44.528c0,13.545-2.578,30.614-26.523,30.614c-23.948,0-43.36-10.981-43.36-24.526  c-0.001-1.396-0.428-6.397,1.011-6.559C8.714,43.882,76.038,44.185,76.038,44.528z"/>
<path d="M57.274,42.592c0-0.101-49.942-0.101-49.942,0l0,0c0-1.188,0.842-2.151,1.882-2.151h46.178  C56.431,40.441,57.274,41.404,57.274,42.592L57.274,42.592z"/>
<path d="M77.537,19.255c0.289,0-36.815,0-36.468,0l0,0c0-2.845-0.385-5.148,0.374-5.148h35.719  C77.921,14.107,77.537,16.411,77.537,19.255L77.537,19.255z"/>
<path d="M79.245,99.937c0-0.168-52.28-0.168-52.28,0l0,0c0-6.251-0.118-11.306,0.97-11.306h50.34  C79.362,88.631,79.245,93.686,79.245,99.937L79.245,99.937z"/>
<path d="M76.233,93.914h-33.86V18.3h33.86V93.914z"/>
<path stroke="#FFFFFF" stroke-width="0.75" stroke-miterlimit="10" d="M45.516,22.471c0.817,0.082,1.419,0.74,1.345,1.468l0,0  c-0.073,0.729-0.795,1.251-1.611,1.168l-4.256-0.432c-0.818-0.083-1.42-0.74-1.347-1.467l0,0c0.075-0.73,0.798-1.252,1.616-1.17  L45.516,22.471z" fill="#000000"/>
</svg>