<svg xmlns="http://www.w3.org/2000/svg" xmlns:xlink="http://www.w3.org/1999/xlink" version="1.1" id="Layer_1" x="0px" y="0px" width="100px" height="29.411px" viewBox="0 0 100 29.411" enable-background="new 0 0 100 29.411" xml:space="preserve">
<g>
	<path d="M97.725,0c-0.858,0-1.636,0.552-2.02,1.376L17.294,1.42c-0.382-0.03-0.724-0.044-1.045-0.044   c-6.002,0-11.185,3.94-12.813,9.656C1.52,11.159,0,12.758,0,14.706s1.52,3.546,3.436,3.673c1.628,5.716,6.811,9.655,12.813,9.655   c0.321,0,0.663-0.014,1.045-0.044l78.41,0.044c0.385,0.825,1.162,1.377,2.021,1.377c1.255,0,2.275-1.139,2.275-2.539V2.54   C100,1.139,98.979,0,97.725,0z M98.477,26.872c0,0.551-0.344,1.016-0.752,1.016c-0.332,0-0.639-0.32-0.727-0.764l-0.121-0.612   l-79.612-0.045h-0.031l-0.03,0.003c-0.354,0.027-0.666,0.041-0.955,0.041c-5.5,0-10.224-3.734-11.487-9.082l-0.156-0.659   l-0.673,0.078c-0.095,0.011-0.177,0.017-0.252,0.017c-1.19,0-2.158-0.969-2.158-2.158c0-1.19,0.968-2.158,2.158-2.158   c0.075,0,0.158,0.005,0.252,0.016l0.673,0.078l0.156-0.659c1.263-5.348,5.986-9.083,11.487-9.083c0.289,0,0.601,0.014,0.955,0.043   l0.03,0.002l79.643-0.045l0.121-0.613c0.088-0.441,0.395-0.762,0.727-0.762c0.408,0,0.752,0.465,0.752,1.016V26.872z"/>
	<path d="M94.162,24.77H16.563c-0.025,0-0.049,0.005-0.074,0.008V24.77c-2.937,0-5.683-1.303-7.563-3.436   c-0.122-0.271-0.394-0.461-0.71-0.461c-0.431,0-0.78,0.35-0.78,0.78c0,0.226,0.097,0.427,0.25,0.569   c2.167,2.523,5.37,4.07,8.803,4.07v-0.008c0.025,0.002,0.049,0.008,0.074,0.008h77.599c0.419,0,0.762-0.343,0.762-0.762   S94.581,24.77,94.162,24.77z"/>
	<circle cx="7.238" cy="20.094" r="0.78"/>
	<circle cx="6.163" cy="18.592" r="0.564"/>
	<circle cx="95.992" cy="25.513" r="0.78"/>
	<path d="M3.841,15.971c-0.055,0-0.103,0.021-0.145,0.049c-0.103,0.02-0.208,0.03-0.317,0.03c-0.586,0-1.105-0.284-1.431-0.72   c0.253,0.677,0.905,1.16,1.671,1.16c0.058,0,0.114-0.005,0.171-0.01c0.017,0.003,0.032,0.01,0.05,0.01   c0.144,0,0.26-0.117,0.26-0.26C4.101,16.087,3.984,15.971,3.841,15.971z"/>
</g>
</svg>