<svg xmlns="http://www.w3.org/2000/svg" xmlns:xlink="http://www.w3.org/1999/xlink" version="1.1" id="Layer_1" x="0px" y="0px" width="100px" height="22.02px" viewBox="0 0 100 22.02" enable-background="new 0 0 100 22.02" xml:space="preserve">
<g>
	<path d="M99.389,1.135c-1.041-1.337-3.064-1.52-4.497-0.404l-5.313,4.135H10.42L5.108,0.731C3.675-0.384,1.652-0.202,0.611,1.135   c-1.041,1.337-0.72,3.343,0.713,4.458l6.061,4.717c0.719,0.56,1.586,0.792,2.403,0.717h80.425c0.198,0.019,0.397,0.019,0.599,0   h0.157v-0.019c0.577-0.079,1.147-0.31,1.647-0.698l6.061-4.717C100.108,4.478,100.43,2.472,99.389,1.135z"/>
	<path d="M19.139,12.337c-2.674,0-4.841,2.167-4.841,4.841s2.167,4.842,4.841,4.842c2.673,0,4.841-2.168,4.841-4.842   S21.812,12.337,19.139,12.337z M19.139,19.928c-1.519,0-2.75-1.23-2.75-2.75s1.231-2.75,2.75-2.75s2.75,1.23,2.75,2.75   S20.658,19.928,19.139,19.928z"/>
	<circle cx="19.139" cy="17.179" r="1.412"/>
	<path d="M80.86,12.337c-2.674,0-4.841,2.167-4.841,4.841s2.167,4.842,4.841,4.842c2.673,0,4.841-2.168,4.841-4.842   S83.533,12.337,80.86,12.337z M80.86,19.928c-1.519,0-2.751-1.23-2.751-2.75s1.232-2.75,2.751-2.75s2.751,1.23,2.751,2.75   S82.379,19.928,80.86,19.928z"/>
	<circle cx="80.86" cy="17.179" r="1.412"/>
</g>
</svg>