<svg xmlns="http://www.w3.org/2000/svg" xmlns:xlink="http://www.w3.org/1999/xlink" version="1.1" id="Livello_1" x="0px" y="0px" width="100px" height="100px" viewBox="0 0 100 100" enable-background="new 0 0 100 100" xml:space="preserve">
<path d="M97.826,17.032l-13.085-7.007c-0.39-0.205-0.85-0.309-1.265-0.335l-5.564,0.026c-0.54-0.67-10.253,0.08-10.253,0.08  c-0.541,0-0.979,0.438-0.979,1.004c0,0.284,0.129,0.542,0.335,0.722l6.389,6.362L65.7,29.735h-0.229  c-1.01-6.332-7.365-11.24-15.116-11.24c-3.762,0-7.245,1.174-9.908,3.158c-2.682-1.967-6.147-3.158-9.928-3.158  c-7.838,0-14.268,5.032-15.155,11.494c-1.349,0.368-2.546,1.128-3.47,2.149C5.397,35.256,0.962,40.681,0.962,47.001  c0.026,6.584,4.734,12.105,11.623,15.156c0.062,0.067,0.132,0.125,0.195,0.19l-2.776,4.405l0.026,19.244  c0,2.731,2.214,4.921,4.921,4.921c2.729,0,4.946-2.189,4.946-4.921V67.834l0.532-0.713c1.605,0.557,3.301,0.954,5.058,1.171v0.598  L36.721,88.16c1.339,2.371,4.353,3.221,6.723,1.881c2.371-1.34,3.221-4.353,1.88-6.724l-9.056-15.769  c1.588-0.405,3.162-0.926,4.692-1.597c0.46,0.377,1.013,0.573,1.501,0.896l5.161,2.225c3.601,0.858,7.494,0.716,11.022-0.807v18.091  c0,2.703,2.19,4.92,4.921,4.92s4.945-2.215,4.945-4.92V64.896c2.914-1.345,4.905-3.935,5.014-6.908  c5.138-1.797,8.79-5.729,8.657-10.337c-0.067-2.073-0.882-3.96-2.218-5.562l7.325-17.972h8.528c2.112,0,3.837-1.7,3.837-3.837  C99.654,18.913,98.907,17.703,97.826,17.032z M71.577,55.98l-1.075,0.301l0.097,0.962c0.02,0.169,0.033,0.288,0.034,0.327  c0.078,3.012-2.577,5.521-6.032,5.8c-0.156,0.013-0.311,0.026-0.47,0.03c-1.519,0.031-2.934-0.382-4.083-1.096  c-0.596,0.645-1.301,1.223-2.114,1.724h-0.001c-0.002,0.002-0.006,0.004-0.008,0.005c-0.239,0.147-0.466,0.307-0.724,0.439  c-2.972,1.522-6.411,1.547-9.396,0.521c-1.513-0.513-2.928-1.244-4.062-2.309c-0.153-0.143-0.319-0.271-0.46-0.428L42.688,61.6  l-0.723-0.775l-1.867,1.049c-8.361,4.277-18.12,3.25-23.281-1.543c-0.42-0.391-0.807-0.806-1.162-1.246  c-1.564-0.615-2.996-1.376-4.254-2.26c-3.615-2.536-5.831-6.05-5.841-9.821c-0.019-5.778,5.123-10.92,12.723-12.953l1.731-0.444  l-0.111-1.54c-0.021-0.27-0.038-0.461-0.038-0.524c0.017-5.03,4.767-9.095,10.653-9.095c3.259,0,6.183,1.27,8.158,3.253l1.75,1.779  l1.787-1.779c1.957-1.983,4.863-3.253,8.141-3.253c5.777,0,10.418,3.894,10.651,8.732c0.006,0.106,0.021,0.21,0.021,0.316  c0,0.746-0.117,1.471-0.32,2.164c1.28,0.354,2.389,1.039,3.216,1.929c0.087,0.094,0.164,0.193,0.246,0.291  c0.602,0.7,1.071,1.486,1.22,2.392l0.085,0.516l0.111,0.613l1.396-0.079c6.807-0.132,12.178,3.78,12.324,8.39  C79.421,51.325,76.297,54.61,71.577,55.98z"/>
</svg>