<svg xmlns="http://www.w3.org/2000/svg" xmlns:xlink="http://www.w3.org/1999/xlink" version="1.1" id="Layer_1" x="0px" y="0px" width="32px" height="32px" viewBox="0 0 32 32" enable-background="new 0 0 32 32" xml:space="preserve">
<path id="book" d="M26.254,5.123c-0.232-0.161-0.536-0.198-0.802-0.097L12.66,9.906c-0.557,0.213-1.253,0.316-1.968,0.316  c-0.997,0.002-2.029-0.202-2.747-0.48C7.688,9.645,7.472,9.537,7.321,9.439c0.056-0.024,0.12-0.05,0.193-0.075l11.634-4.438  l1.729,0.654V3.668c0-0.284-0.143-0.554-0.374-0.714c-0.229-0.161-0.538-0.198-0.802-0.097l-12.79,4.88  C6.517,7.879,6.18,8.049,5.892,8.302c-0.281,0.244-0.524,0.645-0.52,1.091c0,0.012,0.004,0.031,0.004,0.031v17.189  c0,0.008-0.003,0.015-0.003,0.021c0,0.009,0.003,0.013,0.003,0.021v0.017h0.002c0.028,0.604,0.371,0.983,0.699,1.256  c1.034,0.805,2.769,1.254,4.614,1.272c0.874,0,1.761-0.115,2.583-0.429L26.07,23.89c0.337-0.144,0.558-0.449,0.558-0.812V5.837  C26.628,5.554,26.488,5.284,26.254,5.123z M6.172,12.232c0.035,0.086,0.064,0.176,0.069,0.273l0.004,0.054  c0.016,0.264,0.13,0.406,0.363,0.611c0.783,0.626,2.382,1.08,4.083,1.093c0.669,0,1.326-0.083,1.931-0.264v1.791  c-0.647,0.143-1.301,0.206-1.942,0.206c-1.674-0.026-3.266-0.353-4.509-1.053L6.172,12.232L6.172,12.232z M10.681,25.085  c-1.674-0.027-3.266-0.354-4.508-1.055v-2.713c0.035,0.087,0.065,0.177,0.07,0.271l0.002,0.058c0.018,0.271,0.13,0.408,0.364,0.608  c0.783,0.625,2.381,1.079,4.083,1.097c0.67,0,1.327-0.082,1.932-0.268v1.789C11.976,25.022,11.321,25.085,10.681,25.085z"/>
</svg>