<svg xmlns="http://www.w3.org/2000/svg" xmlns:xlink="http://www.w3.org/1999/xlink" version="1.1" id="Layer_1" x="0px" y="0px" width="100px" height="100px" viewBox="0 0 100 100" enable-background="new 0 0 100 100" xml:space="preserve">
<path d="M10,89V21.013l1.471-1.173l41.75-2.104l0.757,0.643l0.103,0.854l-0.457,0.526l-22.688,4.655l-0.721,1.01l0.083,24.362  c0,0,23.469-15.712,31.782-20.104c5.274-2.786,14.152-6.119,23.098-5.998c2.627,0.036,5.872,0.271,7.638,1.747  c0.821,0.687,1.758,1.478,1.838,2.644c0.439,6.383,0.06,7.926,0.06,7.926H94v1h-8v-1h-0.539c0,0-0.161-4.014-2.509-4.018  c-3.926-0.006-8.152,1.987-11.731,4.189C56.735,45.083,31,72.652,31,81.202C31,84.023,31,89,31,89H10z"/>
</svg>