<svg xmlns="http://www.w3.org/2000/svg" xmlns:xlink="http://www.w3.org/1999/xlink" version="1.1" id="Layer_1" x="0px" y="0px" width="100px" height="100px" viewBox="0 0 100 100" enable-background="new 0 0 100 100" xml:space="preserve">
<polygon points="50.707,52.943 50.816,53.416 48.544,53.92 48.444,53.447 "/>
<path d="M54.525,56.795l-4.358-15.381L38.671,0.828c-5.155,4.028-5.669,10.058-4.693,15.104l9.512,35.96l2.194,5.014l4.458,8.191  c1.117,2.068,1.908,4.053,2.472,5.971l4.441-1.186C56.602,66.467,55.938,62.035,54.525,56.795z M49.629,55.072  c-0.908,0-1.64-0.732-1.64-1.641s0.731-1.639,1.64-1.639s1.648,0.73,1.648,1.639S50.538,55.072,49.629,55.072z"/>
<path d="M43.019,70.219c-0.689,4.869-0.984,7.66-2.59,7.762c-2.161,0.152-1.841-1.893-7.459-1.219c-5.399,0.654-9,6.627-8.25,12  c0.361,5.398,4.852,10.723,10.512,10.396c5.719,0.016,10.664-5.164,10.622-10.9c0.37-4.904-0.286-10.529,1.615-16.92L43.019,70.219z   M33.819,95.473c-4.786-0.689-6.981-6.846-5.105-10.881c2.742-5.896,11.328-6.006,13.406-0.203  C44.356,89.619,39.689,96.803,33.819,95.473z"/>
<path d="M67.098,76.619c-5.619-0.707-5.307,1.328-7.469,1.178c-1.572-0.119-1.875-2.76-2.498-7.402l-4.398,1.086  c1.732,6.248,1.076,11.756,1.414,16.551c-0.076,5.736,4.826,10.949,10.545,10.965c5.66,0.354,10.193-4.936,10.58-10.334  C76.053,83.295,72.488,77.291,67.098,76.619z M66.139,95.322c-5.887,1.285-10.504-5.914-8.242-11.127  c2.119-5.803,10.705-5.643,13.404,0.27C73.152,88.52,70.924,94.666,66.139,95.322z"/>
<path d="M45.466,57.713l4.374,7.904c-0.984,1.826-1.7,3.592-2.237,5.299l-4.5-1.211C43.549,66.502,44.197,62.447,45.466,57.713z"/>
<path d="M54.801,55.721l-4.364-15.223v-0.009L61.479,2.417c1.582-1.943,2.406,0.336,2.406,0.336l-7.148,49.124L54.801,55.721z"/>
</svg>