<svg xmlns="http://www.w3.org/2000/svg" xmlns:xlink="http://www.w3.org/1999/xlink" version="1.1" id="Layer_1" x="0px" y="0px" width="100px" height="100px" viewBox="0 0 100 100" enable-background="new 0 0 100 100" xml:space="preserve">
<path d="M45.592,56.866L94.591,82.91c0,0,2.732,0,1.279-2.428L54.465,50.378L45.592,56.866z"/>
<path d="M28.407,39.462c2.176,1.653,4.332,3.706,6.393,6.346l2.993,3.81l6.745-6.45l-0.256-0.189  c-4.959-3.553-9.386-6.004-12.854-7.837L28.407,39.462z"/>
<g>
	<path d="M23.66,29.13c0.67-2.36,2.71-1.23,4.16-7.46c1.38-5.99-3.59-12.1-9.59-13.37C12.36,6.61,4.98,9.35,3.16,15.48   c-2.22,6.07,1.39,13.31,7.5,15.47c5.06,2.27,11.3,3.73,17.36,8.21l2.89-4.31C26,32.26,23.15,30.88,23.66,29.13z M16.2,28.46   c-6.41,0.37-12.26-7.34-8.59-13.07c2.57-4.82,9.95-4.79,13.52-1.25C26.35,19.32,23.16,28.48,16.2,28.46z"/>
</g>
<g>
	<path d="M79.66,19.31L45.19,43.35l-7.16,6.84l-2.88,3.66c-2.18,2.78-4.47,4.92-6.77,6.61l2.98,4.25c3.54-1.85,8.1-4.33,13.25-8   l9.53-6.9L97.5,18.44C91.23,14.52,84.63,16.32,79.66,19.31z M45.19,51.54c-0.99,0-1.8-0.81-1.8-1.81s0.81-1.8,1.8-1.8   c1,0,1.81,0.8,1.81,1.8S46.19,51.54,45.19,51.54z"/>
</g>
<g>
	<path d="M23.96,70.51c-0.48-1.71,2.2-3.06,6.89-5.52l-2.86-4.25c-5.96,4.27-12.06,5.7-17.02,7.92C4.86,70.8,1.23,78.03,3.43,84.1   C5.25,90.24,12.62,93,18.5,91.32c5.99-1.25,10.98-7.36,9.6-13.34C26.68,71.74,24.63,72.86,23.96,70.51z M21.41,85.48   c-3.59,3.529-10.97,3.55-13.52-1.271c-3.65-5.74,2.2-13.43,8.61-13.05C23.48,71.16,26.64,80.32,21.41,85.48z"/>
</g>
<rect x="44.918" y="48.431" transform="matrix(-0.8423 0.5391 -0.5391 -0.8423 110.0682 67.2669)" width="0.551" height="2.612"/>
</svg>