<svg xmlns="http://www.w3.org/2000/svg" xmlns:xlink="http://www.w3.org/1999/xlink" version="1.1" id="Layer_1" x="0px" y="0px" width="100px" height="100px" viewBox="0 0 100 100" enable-background="new 0 0 100 100" xml:space="preserve">
<path d="M40.432,54.379l23.104,16.19c3.404,2.061,7.931,3.301,12.243,0.625L46.524,49.923L40.432,54.379z"/>
<path d="M28.632,42.428c1.494,1.135,2.974,2.544,4.39,4.358l2.055,2.615l4.631-4.429l-0.176-0.13  c-3.405-2.44-6.444-4.123-8.825-5.382L28.632,42.428z"/>
<path d="M25.37,35.33c0.46-1.62,1.87-0.84,2.86-5.12c0.94-4.11-2.47-8.31-6.58-9.18c-4.04-1.16-9.1,0.72-10.36,4.93  c-1.52,4.17,0.96,9.14,5.16,10.62c3.47,1.56,7.75,2.57,11.91,5.64l1.99-2.96C26.98,37.48,25.02,36.53,25.37,35.33z M20.25,34.88  c-4.4,0.25-8.41-5.05-5.9-8.98c1.76-3.31,6.83-3.29,9.29-0.85C27.22,28.6,25.03,34.89,20.25,34.88z"/>
<path d="M63.82,28.59L40.16,45.1l-4.92,4.69l-1.98,2.52c-1.5,1.91-3.07,3.37-4.65,4.53l2.05,2.93c2.43-1.27,5.56-2.979,9.1-5.5  l6.54-4.74L76.07,27.99C71.77,25.31,67.23,26.54,63.82,28.59z M40.16,50.72c-0.69,0-1.24-0.55-1.24-1.24s0.55-1.24,1.24-1.24  c0.68,0,1.24,0.55,1.24,1.24S40.84,50.72,40.16,50.72z"/>
<path d="M25.58,63.75c-0.33-1.18,1.51-2.1,4.73-3.79l-1.97-2.92c-4.08,2.93-8.27,3.91-11.68,5.43c-4.2,1.48-6.69,6.44-5.18,10.61  c1.25,4.21,6.31,6.11,10.35,4.96c4.11-0.86,7.54-5.06,6.59-9.17C27.44,64.59,26.04,65.36,25.58,63.75z M23.83,74.03  c-2.46,2.42-7.53,2.43-9.29-0.88c-2.5-3.94,1.52-9.221,5.92-8.96C25.25,64.19,27.42,70.48,23.83,74.03z"/>
<rect x="39.969" y="48.587" transform="matrix(-0.8428 0.5382 -0.5382 -0.8428 100.6354 69.5747)" width="0.378" height="1.793"/>
<rect x="95.124" y="48.505" width="4.566" height="1.957"/>
<rect x="85.992" y="48.505" width="4.566" height="1.957"/>
<rect x="76.86" y="48.505" width="4.565" height="1.957"/>
<rect x="67.728" y="48.505" width="4.567" height="1.957"/>
<rect x="58.597" y="48.505" width="4.566" height="1.957"/>
<rect x="49.465" y="48.505" width="4.565" height="1.957"/>
<rect x="27.396" y="48.505" width="4.566" height="1.957"/>
<rect x="18.264" y="48.505" width="4.566" height="1.957"/>
<rect x="9.132" y="48.505" width="4.565" height="1.957"/>
<rect y="48.505" width="4.566" height="1.957"/>
</svg>