<svg xmlns="http://www.w3.org/2000/svg" xmlns:xlink="http://www.w3.org/1999/xlink" version="1.1" id="Layer_1" x="0px" y="0px" width="100px" height="100px" viewBox="0 0 100 100" enable-background="new 0 0 100 100" xml:space="preserve">
<polygon points="48.717,74.606 48.717,76.437 38.542,76.437 32.453,62.125 39.493,61.6 44.758,74.606 "/>
<path d="M29.001,46.801c0.625,1.64,1.102,3.491,1.328,5.631l0.337,3.092l5.867-1.224l-0.076-0.189  c-1.496-3.622-3.075-6.461-4.342-8.638L29.001,46.801z"/>
<g>
	<path d="M34.72,36.9c2.79-2.79,2.16-7.81-0.68-10.54c-2.62-2.91-7.58-3.93-10.65-1.2c-3.27,2.55-3.77,7.72-1.17,10.97   c1.99,2.96,4.89,5.88,6.67,10.37l3.04-1.36c-1.79-3.08-2.87-4.8-2.01-5.58C31.09,38.5,31.82,39.81,34.72,36.9z M26.08,36.66   c-3.62-1.98-4.18-8.17-0.23-10.04c3.03-1.76,7.04,0.77,7.79,3.91C34.72,35.12,29.87,39.03,26.08,36.66z"/>
</g>
<g>
	<path d="M63.78,53.23l-26.95,1.39l-6.23,1.3l-2.81,1.021c-2.14,0.77-4.11,1.149-5.94,1.29l0.18,3.34   c2.56,0.189,5.89,0.39,9.95,0.13l7.53-0.521L73.8,58.82C71.71,54.55,67.5,53.29,63.78,53.23z M35.64,58.71   c-0.34,0.55-1.05,0.71-1.59,0.37c-0.55-0.33-0.71-1.05-0.37-1.59c0.34-0.55,1.05-0.71,1.59-0.37   C35.82,57.46,35.98,58.17,35.64,58.71z"/>
</g>
<g>
	<path d="M21.66,61.54l-0.12-3.28c-4.69,0.3-8.5-0.99-11.96-1.47c-4.06-0.91-8.49,1.8-9.36,5.85c-1.09,3.971,1.99,7.98,5.76,9.061   c3.7,1.35,8.49-0.28,9.77-4.01c1.34-3.881-0.15-3.971,0.28-5.48C16.35,61.11,18.27,61.29,21.66,61.54z M9.55,69.5   c-3.15,0.71-7.18-1.79-6.93-5.29c-0.04-4.36,5.76-6.57,9.13-4.18C15.55,62.4,14.16,68.47,9.55,69.5z"/>
</g>
<rect x="34.482" y="57.265" transform="matrix(-0.9999 0.0166 -0.0166 -0.9999 70.275 115.6247)" width="0.354" height="1.678"/>
<rect x="95.691" y="74.604" width="4.271" height="1.83"/>
<rect x="87.15" y="74.604" width="4.271" height="1.83"/>
<rect x="78.609" y="74.604" width="4.271" height="1.83"/>
<rect x="70.068" y="74.604" width="4.271" height="1.83"/>
<rect x="61.527" y="74.604" width="4.271" height="1.83"/>
<rect x="52.986" y="74.604" width="4.271" height="1.83"/>
</svg>