<svg xmlns="http://www.w3.org/2000/svg" xmlns:xlink="http://www.w3.org/1999/xlink" version="1.1" id="Layer_1" x="0px" y="0px" width="100px" height="100px" viewBox="0 0 100 100" enable-background="new 0 0 100 100" xml:space="preserve">
<path d="M92.832,66.14c-1.434-2.244-25.777-12.962-31.615-17.525c-3.382-2.644-6.34-8.972-10.685-8.838  c0.001-0.576,0.003-1.057,0.01-1.284c0.008-0.296,0.79-1.119,1.653-1.736c1.402-1.056,2.208-2.668,2.208-4.422  c0-3.05-2.48-5.53-5.529-5.53h0c-1.759,0-3.374,0.809-4.429,2.218c-0.72,0.962-1.101,2.106-1.101,3.312  c0,0.301,0.243,0.545,0.544,0.545l0,0c0.3,0,0.544-0.244,0.544-0.544c0-0.969,0.306-1.889,0.884-2.66  c0.848-1.133,2.145-1.782,3.558-1.782h0c2.448,0,4.441,1.992,4.441,4.442c0,1.409-0.647,2.704-1.765,3.544  c-0.484,0.347-2.069,1.557-2.097,2.585c-0.006,0.237-0.009,0.728-0.01,1.312c-4.332-0.109-7.285,6.2-10.661,8.839  C32.946,53.178,8.601,63.896,7.168,66.14C5.735,68.384,6.7,70.3,6.7,70.3c1.544,0.164,2.841-0.561,5.439-2.252l-0.002,2.998h-0.525  c-0.47,0-0.85,0.381-0.85,0.85c0,0.471,0.38,0.852,0.85,0.852h0.555c0.182,0.27,0.491,0.449,0.841,0.449  c0.35,0,0.656-0.18,0.837-0.449h72.308c0.182,0.27,0.486,0.449,0.836,0.449c0.352,0,0.66-0.18,0.842-0.449h0.556  c0.47,0,0.851-0.381,0.851-0.852c0-0.469-0.381-0.85-0.851-0.85h-0.524l-0.002-2.998c2.598,1.691,3.895,2.416,5.438,2.252  C93.3,70.3,94.265,68.384,92.832,66.14z M86.691,70.296l-0.443,0.75H13.751l-0.442-0.75v-3.014  c5.116-3.357,14.673-9.584,36.428-19.1c0.09-0.016,0.176-0.038,0.263-0.06c0.087,0.021,0.173,0.044,0.263,0.06  c21.754,9.516,31.311,15.742,36.428,19.1V70.296z"/>
</svg>