<svg xmlns="http://www.w3.org/2000/svg" xmlns:xlink="http://www.w3.org/1999/xlink" version="1.1" id="Layer_1" x="0px" y="0px" width="100px" height="100px" viewBox="0 0 100 100" enable-background="new 0 0 100 100" xml:space="preserve">
<path d="M67.116,55.936c0.001-0.089,0.014-0.176,0.014-0.265h-0.026c-0.134-3.996-1.648-7.631-4.33-10.279  c-2.574-2.542-6.047-4.057-9.908-4.365v-9.495c10.354-9.005,9.716-18.829,9.514-20.535c-0.105-4.029-3.416-7.275-7.47-7.275  c-4.019,0-7.417,3.415-7.533,7.504h-0.011V28.75c-4.434,3.02-17.729,13.221-17.594,26.92h-0.01c0,0.451,0.036,0.894,0.071,1.336  c0.004,0.062,0.003,0.12,0.008,0.182h0.001c0.779,8.81,8.252,15.802,17.523,16.312v12.317c0,1.84-1.497,3.337-3.337,3.337  c-1.84,0-3.337-1.497-3.337-3.337c0-1.841,1.497-3.338,3.337-3.338v-5.5c-4.873,0-8.837,3.965-8.837,8.838s3.964,8.837,8.837,8.837  c4.676,0,8.504-3.652,8.808-8.252h0.029V73.027c7.986-1.864,13.965-8.641,14.234-16.788h0.03  C67.13,56.137,67.118,56.037,67.116,55.936z M54.909,9.223c1.088,0,1.973,0.885,1.973,1.973l0.032,0.418  c0.04,0.283,0.752,5.769-4.049,11.978V11.441C52.865,10.301,53.858,9.223,54.909,9.223z M35.319,56.737h0.003  c-0.754-9.164,6.97-17,12.043-21.11v5.807c-6.444,1.534-10.563,6.794-10.563,14.02c0,1.257,0.16,2.506,0.474,3.713l5.322-1.389  c-0.197-0.753-0.296-1.535-0.296-2.324c0-4.123,1.837-7.033,5.063-8.292v20.84C40.976,67.512,35.867,62.732,35.319,56.737z   M52.865,67.322V46.548c2.374,0.27,4.498,1.23,6.043,2.756c1.712,1.691,2.639,3.976,2.708,6.618  C61.503,61.183,57.884,65.638,52.865,67.322z"/>
</svg>