<svg xmlns="http://www.w3.org/2000/svg" xmlns:xlink="http://www.w3.org/1999/xlink" version="1.1" id="Layer_1" x="0px" y="0px" width="100px" height="100px" viewBox="0 0 100 100" enable-background="new 0 0 100 100" xml:space="preserve">
<g>
	<path d="M27.238,46.362c8.124,13.547,37.697,16.728,45.901,6.058c3.763-4.889,2.218-9.307-0.049-12.116   c-0.944,3.966-2.907,7.559-2.907,7.559c-6.584,8.644-21.521,4.46-21.521,4.46c-20.356-5.328-20.187-16.481-20.187-16.481   c-0.058-2.21,0.622-4.359,1.477-6.134C25.915,30.224,19.791,33.941,27.238,46.362z"/>
	<path d="M56.167,50.606c0.646-2.57,1.37-6.161,1.89-9.065c-2.38-0.137-4.933-0.496-7.557-1.125   c-1.445-0.347-2.839-0.762-4.167-1.229l-2.947,8.966c1.698,0.633,3.606,1.224,5.753,1.752   C49.14,49.905,52.155,50.625,56.167,50.606z"/>
	<path d="M51.596,35.122c7.912,2.004,15.055,0.749,15.954-2.801c0.899-3.554-4.785-8.055-12.695-10.06   c-7.912-2.004-15.055-0.749-15.956,2.803C38,28.614,43.684,33.117,51.596,35.122z M54.547,23.276   c5.228,1.324,8.984,4.303,8.389,6.648c-0.593,2.348-5.312,3.175-10.542,1.851c-5.227-1.326-8.983-4.303-8.387-6.647   C44.6,22.782,49.319,21.953,54.547,23.276z"/>
	<ellipse transform="matrix(-0.2456 0.9694 -0.9694 -0.2456 92.7335 -18.6747)" cx="53.634" cy="26.749" rx="2.875" ry="6.404"/>
	<path d="M69.476,45.581c1.31-2.553,1.637-4.199,1.72-6.328c-1.366,1.202-4.172,1.876-7.779,2.212l-2.354,8.717   C64.327,49.603,66.821,49.008,69.476,45.581z"/>
	<path d="M90.807,37.641c-3.967-4.153-8.138-5.318-8.138-5.318s-5.882-1.678-12.064-3.195c-2.979-3.148-8.632-6.152-15.469-7.886   c-10.187-2.58-19.405-1.42-21.545,2.525c-6.048-1.49-14.265-3.486-16.471-3.869c-6.948-1.209-22.296,4.769-6.55,31.03   C25.313,75.523,77.269,80.445,92.162,61.08C99.671,51.314,95.529,42.585,90.807,37.641z M55.017,21.713   c9.304,2.356,15.987,7.653,14.93,11.83c-1.058,4.174-9.457,5.651-18.761,3.292c-9.302-2.356-15.987-7.651-14.93-11.828   S45.713,19.357,55.017,21.713z M88.328,59.547c-13.561,17.631-60.863,13.15-74.288-9.24c-14.337-23.914-0.361-29.355,5.965-28.255   c1.789,0.311,7.935,1.79,13.148,3.066c-0.069,0.56-0.012,1.137,0.157,1.721c-0.007,0-0.013-0.002-0.02-0.002   c0.07,0.228,0.165,0.46,0.271,0.692c1.738,4.02,8.548,8.33,17.309,10.549c10.916,2.767,20.72,1.238,21.897-3.41   c0.269-1.053,0.062-2.181-0.532-3.322c4.145,1.073,7.45,2.016,7.45,2.016s3.797,1.06,7.409,4.844   C91.393,42.708,95.166,50.654,88.328,59.547z"/>
	<path d="M37.574,45.389l4.049-8.188c-4.455-2.219-7.659-4.882-8.808-6.966c-1.399,1.265-2.561,3.721-2.787,6.344   C30.648,38.807,32.444,42.265,37.574,45.389z"/>
	<path d="M82.938,38.883c-3.216-3.367-6.596-4.311-6.596-4.311s-1.278-0.363-3.199-0.884c0.308,0.852,0.441,1.801,0.445,2.792   c1.044,0.546,2.442,1.448,3.807,2.877c3.186,3.335,5.982,9.225,0.913,15.813c-10.05,13.068-45.107,9.748-55.056-6.848   c-10.626-17.722-0.27-21.756,4.419-20.939c0.567,0.099,1.729,0.358,3.173,0.691c0.375-0.611,0.748-1.143,1.079-1.569   c-3.773-0.915-7.445-1.781-8.703-2c-5.631-0.98-18.068,3.865-5.309,25.147c11.95,19.93,54.054,23.92,66.122,8.227   C90.119,49.964,86.762,42.89,82.938,38.883z"/>
</g>
</svg>