<svg xmlns="http://www.w3.org/2000/svg" xmlns:xlink="http://www.w3.org/1999/xlink" version="1.1" id="Calque_1" x="0px" y="0px" width="100px" height="100px" viewBox="0 0 100 100" enable-background="new 0 0 100 100" xml:space="preserve">
<path fill="#000000" d="M13.386,59.68c0,7.838,6.376,14.215,14.214,14.215c7.837,0,14.214-6.377,14.214-14.215  c0-7.837-6.376-14.214-14.214-14.214C19.763,45.466,13.386,51.843,13.386,59.68z M29.84,59.68c0,1.237-1.002,2.241-2.239,2.241  c-1.238,0-2.241-1.004-2.241-2.241s1.003-2.239,2.241-2.239C28.837,57.44,29.84,58.442,29.84,59.68z M79.311,52.537  c0.397,0,0.722-0.324,0.722-0.722v-3.38c0-0.398-0.324-0.722-0.722-0.722H50.077c-0.397,0-0.722,0.324-0.722,0.722v3.38  c0,0.397,0.324,0.722,0.722,0.722h22.485v-2.974c0-0.622,0.502-1.125,1.124-1.125c0.62,0,1.123,0.503,1.123,1.125v2.974H79.311z   M27.601,76.939c-3.916,0-7.53-1.312-10.429-3.517H9.615c-0.14,0-0.254-0.114-0.254-0.254c0-0.141,0.114-0.254,0.254-0.254h6.92  c-3.784-3.169-6.194-7.926-6.194-13.235s2.411-10.066,6.194-13.234h-6.92c-0.14,0-0.254-0.114-0.254-0.254s0.114-0.254,0.254-0.254  h7.556c2.899-2.206,6.513-3.517,10.429-3.517c3.915,0,7.529,1.312,10.429,3.517h9.231c0.69-0.778,1.697-1.269,2.816-1.269h29.233  c1.119,0,2.126,0.491,2.816,1.269h6.175v-4.246c0-1.24-1.004-2.245-2.244-2.245h-2.979v-2.248c0-0.707-0.486-1.32-1.175-1.482  l-38.218-8.993c-0.736-0.173-1.472,0.221-1.753,0.898l-26.259-6.06c0-0.005,0.001-0.009,0.001-0.014c0-0.85-0.689-1.539-1.539-1.539  c-0.85,0-1.538,0.689-1.538,1.539c0,0.849,0.688,1.538,1.538,1.538c0.669,0,1.237-0.428,1.449-1.024l26.234,6.054  c-0.002,0.031-0.005,0.061-0.005,0.091c0,0.69,0.473,1.315,1.174,1.48c0,0,34.838,8.198,37.044,8.717c0,0.518,0,1.042,0,1.042H9.611  c-1.239,0-2.245,1.005-2.245,2.245v31.478c0,0,0.001,6.744,6.745,6.744h67.446c5.96,0,6.653-5.265,6.733-6.49H38.029  C35.13,75.628,31.516,76.939,27.601,76.939z M90.551,48.439h-2.249v-1.994h-5.795c0.361,0.578,0.571,1.26,0.571,1.99v3.38  c0,2.077-1.69,3.767-3.768,3.767H50.077c-2.077,0-3.767-1.689-3.767-3.767v-3.38c0-0.73,0.209-1.412,0.571-1.99h-8.216  c3.784,3.168,6.195,7.925,6.195,13.234s-2.411,10.066-6.195,13.235h49.637V59.68h2.249c1.239,0,2.244-1.005,2.244-2.244v-6.751  C92.795,49.444,91.79,48.439,90.551,48.439z M84.926,68.927c-0.76,0-1.377-0.618-1.377-1.378c0-0.761,0.617-1.378,1.377-1.378  c0.761,0,1.379,0.617,1.379,1.378C86.305,68.309,85.687,68.927,84.926,68.927z M84.926,66.678c-0.479,0-0.869,0.391-0.869,0.871  c0,0.479,0.39,0.87,0.869,0.87c0.48,0,0.871-0.391,0.871-0.87C85.797,67.068,85.406,66.678,84.926,66.678z"/>
</svg>