<svg xmlns="http://www.w3.org/2000/svg" xmlns:xlink="http://www.w3.org/1999/xlink" version="1.1" id="Layer_1" x="0px" y="0px" width="32px" height="32px" viewBox="0 0 32 32" enable-background="new 0 0 32 32" xml:space="preserve">
<path id="Clip" d="M27.017,2.123c-2.222-1.592-5.316-1.081-6.91,1.143L7.609,20.713c-1.138,1.589-0.773,3.802,0.816,4.924  c1.589,1.146,3.797,0.782,4.935-0.807l8.815-12.322l-1.149-0.823l-8.82,12.319l0,0c-0.684,0.95-2.009,1.171-2.96,0.5  c-0.952-0.677-1.17-2.019-0.488-2.972l0,0L21.253,4.084l0,0L21.25,4.082c1.136-1.583,3.347-1.948,4.93-0.815  c1.562,1.138,1.951,3.352,0.796,4.938V8.202L13.297,27.328l0.001,0.002c-1.59,2.215-4.692,2.73-6.912,1.15  c-2.219-1.592-2.73-4.687-1.142-6.92l9.953-13.89l-1.146-0.819L4.106,20.74c-2.047,2.858-1.389,6.833,1.47,8.871  c2.859,2.051,6.834,1.386,8.881-1.457L28.152,9.025C29.752,6.808,29.241,3.715,27.017,2.123z"/>
</svg>