<svg xmlns="http://www.w3.org/2000/svg" xmlns:xlink="http://www.w3.org/1999/xlink" version="1.1" id="Layer_1" x="0px" y="0px" width="32px" height="32px" viewBox="0 0 32 32" enable-background="new 0 0 32 32" xml:space="preserve">
<path id="clock" d="M16,2.874C8.751,2.875,2.876,8.75,2.875,16C2.876,23.248,8.751,29.123,16,29.127  C23.25,29.123,29.125,23.248,29.125,16C29.125,8.75,23.25,2.875,16,2.874z M16,26.123C10.41,26.115,5.885,21.59,5.875,16  C5.885,10.409,10.41,5.883,16,5.874c5.589,0.01,10.115,4.535,10.125,10.125C26.115,21.59,21.592,26.115,16,26.123z M9.125,16  C9.125,15.448,8.677,15,8.125,15c-0.553,0-1,0.448-1,1c0,0.553,0.449,1,1,1C8.676,17,9.125,16.552,9.125,16z M8.68,19.072  c-0.478,0.277-0.642,0.889-0.365,1.367c0.275,0.479,0.889,0.641,1.365,0.365c0.479-0.275,0.643-0.896,0.367-1.367  C9.771,18.961,9.159,18.797,8.68,19.072z M9.681,11.195c-0.479-0.276-1.09-0.112-1.366,0.366s-0.111,1.09,0.365,1.366  c0.479,0.276,1.09,0.113,1.367-0.366C10.321,12.083,10.158,11.473,9.681,11.195z M23.322,12.927  c0.479-0.275,0.643-0.888,0.365-1.366c-0.273-0.478-0.896-0.642-1.365-0.366c-0.479,0.278-0.643,0.89-0.365,1.367  C22.232,13.04,22.844,13.205,23.322,12.927z M12.562,21.955c-0.478-0.275-1.089-0.111-1.366,0.367  c-0.275,0.479-0.111,1.09,0.366,1.365c0.478,0.27,1.091,0.104,1.365-0.365C13.205,22.844,13.041,22.232,12.562,21.955z   M12.562,10.044c0.479-0.276,0.642-0.888,0.366-1.366c-0.276-0.478-0.888-0.642-1.366-0.366s-0.642,0.888-0.366,1.366  C11.474,10.158,12.084,10.322,12.562,10.044z M23.324,19.072c-0.48-0.275-1.094-0.111-1.367,0.365  c-0.275,0.479-0.113,1.092,0.367,1.367c0.477,0.27,1.088,0.104,1.363-0.365C23.965,19.961,23.801,19.348,23.324,19.072z   M20.438,8.312c-0.477-0.276-1.09-0.111-1.354,0.366c-0.271,0.48-0.107,1.091,0.355,1.367c0.479,0.276,1.088,0.112,1.365-0.366  S20.918,8.588,20.438,8.312z M23.879,15c-0.555,0.002-1.002,0.45-1.002,1c0.002,0.552,0.449,1,1.002,1c0.551,0,1-0.447,1-1  C24.879,15.449,24.43,15,23.879,15z M16.001,7.124c-0.552,0-1,0.448-1,1l-0.466,7.343l-3.004,1.959  c-0.478,0.277-0.642,0.891-0.365,1.365c0.275,0.48,0.889,0.645,1.365,0.367l3.305-1.676c0.054,0.008,0.108,0.018,0.165,0.018  c0.828,0,1.5-0.671,1.5-1.5l-0.5-7.876C17.002,7.572,16.553,7.124,16.001,7.124z M16.001,22.877c-0.552,0-1,0.447-1,1s0.448,1,1,1  s1-0.447,1-1S16.553,22.877,16.001,22.877z M19.439,21.955c-0.479,0.277-0.646,0.889-0.365,1.367  c0.273,0.477,0.887,0.643,1.365,0.365c0.479-0.275,0.643-0.896,0.365-1.365C20.527,21.844,19.918,21.68,19.439,21.955z"/>
</svg>