<svg xmlns="http://www.w3.org/2000/svg" xmlns:xlink="http://www.w3.org/1999/xlink" version="1.1" id="Layer_1" x="0px" y="0px" width="32px" height="32px" viewBox="0 0 32 32" enable-background="new 0 0 32 32" xml:space="preserve">
<path id="cloud2" d="M8.063,25.377c-3.313,0-6-2.688-6-6l0,0c0.002-2.668,1.733-4.899,4.127-5.688l0,0  c0.083-2.26,1.937-4.063,4.216-4.065l0,0c0.729,0,1.415,0.189,2.01,0.517l0,0c1.267-2.104,3.57-3.517,6.208-3.517l0,0  c3.947,0.002,7.156,3.154,7.248,7.078l0,0c2.361,0.805,4.062,3.034,4.064,5.667l0,0c0,3.312-2.688,6-6,6l0,0H8.063V25.377z   M24.665,15.451c-0.512-0.096-0.864-0.562-0.814-1.078l0,0c0.021-0.172,0.026-0.336,0.026-0.498l0,0  c-0.007-2.898-2.353-5.244-5.251-5.248l0,0c-2.249-0.002-4.162,1.418-4.911,3.41l0,0c-0.122,0.322-0.405,0.563-0.748,0.629l0,0  c-0.34,0.066-0.693-0.052-0.927-0.309l0,0c-0.416-0.453-0.985-0.73-1.633-0.73l0,0c-1.225,0.002-2.216,0.992-2.22,2.217l0,0  c0,0.137,0.017,0.277,0.045,0.425l0,0c0.049,0.267-0.008,0.54-0.163,0.762l0,0c-0.155,0.224-0.393,0.371-0.657,0.414l0,0  c-1.899,0.312-3.352,1.95-3.35,3.93l0,0c0.004,2.209,1.792,3.996,4.001,4.002l0,0h15.875c2.209-0.006,3.994-1.793,3.998-4.002l0,0  C27.938,17.418,26.524,15.794,24.665,15.451L24.665,15.451"/>
</svg>