<svg xmlns="http://www.w3.org/2000/svg" xmlns:xlink="http://www.w3.org/1999/xlink" version="1.1" id="Layer_1" x="0px" y="0px" width="32px" height="32px" viewBox="0 0 32 32" enable-background="new 0 0 32 32" xml:space="preserve">
<path id="db" d="M15.999,23.938c-3.846,0-7.708-0.979-9.534-3.117c-0.054,0.236-0.09,0.48-0.09,0.738v3.877  c0,3.438,4.988,4.998,9.625,4.998c4.637,0,9.625-1.562,9.625-4.998v-3.877c0-0.259-0.036-0.502-0.09-0.738  C23.709,22.951,19.848,23.938,15.999,23.938z M15.999,16.443c-3.846,0-7.708-0.987-9.533-3.117  c-0.054,0.236-0.091,0.479-0.091,0.736v3.877c0,3.435,4.988,4.998,9.625,4.998c4.637,0,9.625-1.563,9.625-4.998v-3.877  c0-0.257-0.036-0.501-0.09-0.737C23.709,15.456,19.848,16.443,15.999,16.443z M16,1.566c-4.637,0-9.625,1.564-9.625,5.001v3.876  c0,3.435,4.988,4.998,9.625,4.998c4.637,0,9.625-1.563,9.625-4.998V6.567C25.625,3.132,20.637,1.566,16,1.566z M16,9.566  c-4.211,0-7.625-1.343-7.625-3c0-1.656,3.414-3,7.625-3s7.625,1.344,7.625,3C23.625,8.225,20.211,9.566,16,9.566z"/>
</svg>