<svg xmlns="http://www.w3.org/2000/svg" xmlns:xlink="http://www.w3.org/1999/xlink" version="1.1" id="Layer_1" x="0px" y="0px" width="32px" height="32px" viewBox="0 0 32 32" enable-background="new 0 0 32 32" xml:space="preserve">
<path id="detour" d="M29.265,15.965l-7.556-4.363v2.614h-3.036c-1.441-0.004-2.423,1.002-2.875,1.784  c-0.734,1.222-1.056,2.56-1.44,3.521c-0.136,0.354-0.278,0.646-0.376,0.812c-1.626,0-0.998,0-2.769,0  c-0.213-0.396-0.57-1.562-0.923-2.689c-0.237-0.68-0.5-1.385-1.013-2.075c-0.477-0.68-1.464-1.384-2.604-1.36H2.735v3.5  c0,0,0.357,0,1.03,0h2.741c0.008,0.012,0.019,0.023,0.029,0.045c0.291,0.396,0.634,1.664,1.031,2.893  c0.218,0.623,0.455,1.262,0.92,1.896c0.417,0.611,1.318,1.293,2.383,1.293h0.053c2.25,0,1.249,0,3.374,0  c0.696,0.01,1.371-0.285,1.81-0.656c1.438-1.338,1.607-2.887,2.129-4.127c0.219-0.607,0.453-1.113,0.604-1.312  c0.006-0.01,0.014-0.021,0.02-0.021h2.854v2.615L29.265,15.965z M10.096,15.004c0.568,0.76,0.874,1.559,1.138,2.31  c0.04,0.129,0.082,0.271,0.125,0.4h2.58c0.246-0.697,0.553-1.479,1.005-2.229c0.252-0.438,0.621-0.887,1.08-1.272h-6.67  C9.658,14.468,9.913,14.742,10.096,15.004z"/>
</svg>