<svg xmlns="http://www.w3.org/2000/svg" xmlns:xlink="http://www.w3.org/1999/xlink" version="1.1" id="Layer_1" x="0px" y="0px" width="32px" height="32px" viewBox="0 0 32 32" enable-background="new 0 0 32 32" xml:space="preserve">
<path id="flag" d="M26.028,7.602c0.139-0.532,0.148-1.407,0.027-1.942l-0.403-1.771c-0.122-0.537-0.665-1.052-1.207-1.147  l-3.724-0.643c-0.543-0.094-1.43-0.091-1.971,0.007l-4.033,0.726c-0.542,0.099-1.43,0.109-1.974,0.023L8.8,2.24  c0.005,0.02,0.014,0.037,0.018,0.056l2.701,12.831l1.236,0.215c0.542,0.094,1.428,0.09,1.97-0.008l4.032-0.729  c0.541-0.097,1.438-0.106,1.979-0.021l4.321,0.676c0.552,0.084,0.906-0.289,0.812-0.83l-0.479-2.625  c-0.104-0.541-0.062-1.419,0.062-1.952L26.028,7.602z M6.654,1.73C6.113,1.844,5.768,2.373,5.882,2.914l5.763,27.377h2.043  L7.841,2.505C7.724,1.963,7.195,1.617,6.654,1.73z"/>
</svg>