<svg xmlns="http://www.w3.org/2000/svg" xmlns:xlink="http://www.w3.org/1999/xlink" version="1.1" id="Layer_1" x="0px" y="0px" width="32px" height="32px" viewBox="0 0 32 32" enable-background="new 0 0 32 32" xml:space="preserve">
<path d="M26.907,16.791l3.771-1.992c-0.072-0.737-0.225-1.453-0.396-2.156l-4.185-0.579c-0.362-0.872-0.845-1.681-1.399-2.423  l1.596-3.922c-0.521-0.51-1.09-0.978-1.688-1.405l-3.553,2.229c-0.833-0.438-1.729-0.771-2.678-0.984l-1.277-3.977  c-0.365-0.027-0.729-0.057-1.101-0.057s-0.733,0.028-1.099,0.057l-1.271,3.94c-0.967,0.207-1.884,0.543-2.737,0.986L7.392,4.313  C6.796,4.741,6.23,5.209,5.706,5.719L7.257,9.53c-0.604,0.775-1.11,1.629-1.49,2.552l-4.05,0.559  c-0.179,0.703-0.322,1.419-0.396,2.158l3.635,1.922c0.041,1.014,0.209,1.996,0.506,2.918L2.721,22.67  c0.318,0.662,0.674,1.305,1.085,1.896l4.037-0.857c0.661,0.719,1.416,1.352,2.248,1.873l-0.153,4.131  c0.663,0.299,1.352,0.549,2.062,0.748l2.555-3.283c0.453,0.061,0.912,0.1,1.379,0.1c0.507,0,1.003-0.045,1.491-0.104l2.567,3.301  c0.711-0.188,1.396-0.438,2.062-0.746l-0.156-4.203c0.793-0.518,1.513-1.129,2.146-1.812l4.146,0.896  c0.411-0.604,0.77-1.229,1.085-1.896l-2.831-3.142C26.71,18.668,26.862,17.742,26.907,16.791z M20.649,21.572l-1.785,1.162  l-1.098-1.688c-0.57,0.224-1.186,0.354-1.834,0.354c-2.831,0-5.125-2.295-5.125-5.126s2.294-5.125,5.125-5.125  c2.83,0,5.125,2.294,5.125,5.125c0,1.415-0.573,2.692-1.499,3.622L20.649,21.572z"/>
</svg>