<svg xmlns="http://www.w3.org/2000/svg" xmlns:xlink="http://www.w3.org/1999/xlink" version="1.1" id="Layer_1" x="0px" y="0px" width="32px" height="32px" viewBox="0 0 32 32" enable-background="new 0 0 32 32" xml:space="preserve">
<path id="run" d="M18.005,20.701l-0.778-2.723c0.228-0.199,0.442-0.414,0.644-0.643l2.725,0.777  c0.287-0.418,0.534-0.861,0.755-1.326l-2.022-1.959c0.104-0.288,0.188-0.581,0.24-0.883l2.729-0.684  c0.021-0.252,0.036-0.505,0.036-0.763c0-0.258-0.021-0.51-0.036-0.762l-2.729-0.684c-0.062-0.302-0.146-0.595-0.24-0.883l2.023-1.96  c-0.225-0.457-0.472-0.902-0.759-1.32L17.87,7.666c-0.2-0.228-0.416-0.442-0.646-0.643l0.778-2.722  c-0.419-0.286-0.863-0.534-1.324-0.755l-1.96,2.026c-0.287-0.097-0.581-0.18-0.883-0.241l-0.683-2.73  c-0.253-0.019-0.506-0.039-0.764-0.039s-0.51,0.02-0.762,0.039l-0.684,2.73c-0.303,0.061-0.596,0.144-0.884,0.241L8.1,3.546  c-0.457,0.224-0.9,0.471-1.318,0.758l0.777,2.722c-0.228,0.2-0.442,0.415-0.643,0.642L4.194,6.89  C3.907,7.308,3.66,7.753,3.439,8.214l2.025,1.96c-0.096,0.288-0.18,0.581-0.241,0.883l-2.729,0.684  c-0.02,0.252-0.039,0.505-0.039,0.762c0,0.257,0.02,0.51,0.039,0.763l2.729,0.684c0.062,0.302,0.146,0.595,0.241,0.883l-2.025,1.96  c0.221,0.458,0.468,0.904,0.755,1.322l2.722-0.77c0.2,0.229,0.415,0.438,0.643,0.645l-0.777,2.717  c0.418,0.287,0.862,0.533,1.322,0.756l1.961-2.025c0.287,0.096,0.58,0.18,0.883,0.24l0.684,2.729  c0.252,0.021,0.505,0.039,0.763,0.039c0.259,0,0.511-0.02,0.764-0.039l0.683-2.729c0.302-0.061,0.596-0.145,0.883-0.24l1.96,2.025  C17.142,21.234,17.587,20.988,18.005,20.701z M12.393,15.901c-1.877,0-3.398-1.521-3.398-3.399c0-1.877,1.521-3.398,3.398-3.398  s3.398,1.521,3.398,3.398C15.791,14.379,14.27,15.901,12.393,15.901z M27.885,23.006c0.019-0.547-0.06-1.104-0.229-1.654  l1.244-1.773c-0.188-0.35-0.4-0.682-0.642-0.979l-2.122,0.439c-0.428-0.357-0.915-0.646-1.436-0.854l-0.611-2.079  c-0.387-0.068-0.777-0.104-1.174-0.104l-0.973,1.937c-0.279,0.059-0.562,0.131-0.832,0.232c-0.271,0.098-0.498,0.221-0.729,0.354  l-2.004-0.818c-0.298,0.266-0.568,0.545-0.813,0.854l0.907,1.971c-0.259,0.492-0.437,1.025-0.519,1.586l-1.896,1.062  c0.02,0.389,0.076,0.771,0.164,1.166l2.104,0.52c0.229,0.523,0.541,0.992,0.916,1.396L18.886,28.4  c0.318,0.23,0.66,0.432,1.016,0.605l1.715-1.318c0.537,0.145,1.104,0.193,1.662,0.146l1.453,1.604  c0.196-0.062,0.396-0.115,0.596-0.188c0.188-0.064,0.354-0.146,0.521-0.229l0.021-2.166c0.455-0.338,0.854-0.744,1.146-1.203  l2.161-0.137c0.146-0.355,0.273-0.73,0.368-1.111L27.885,23.006z M23.722,25.014c-1.201,0.457-2.545-0.145-3.004-1.346  s0.143-2.547,1.344-3.006c1.201-0.457,2.547,0.145,3.006,1.346S24.923,24.555,23.722,25.014z"/>
</svg>