<svg xmlns="http://www.w3.org/2000/svg" xmlns:xlink="http://www.w3.org/1999/xlink" version="1.1" id="Layer_1" x="0px" y="0px" width="32px" height="32px" viewBox="0 0 32 32" enable-background="new 0 0 32 32" xml:space="preserve">
<path id="help" d="M5.334,5.333L5.334,5.333c-5.89,5.891-5.891,15.442,0,21.333s15.439,5.888,21.33-0.002  c5.891-5.892,5.893-15.44,0.002-21.331C20.775-0.557,11.226-0.557,5.334,5.333z M25.959,6.042c0.834,0.836,1.523,1.757,2.104,2.726  l-4.08,4.08c-0.418-1.062-1.053-2.06-1.912-2.918c-0.854-0.859-1.854-1.494-2.92-1.913l4.08-4.08  C24.201,4.518,25.123,5.208,25.959,6.042z M10.64,21.361c-2.958-2.967-2.959-7.758-0.001-10.725c2.966-2.957,7.756-2.957,10.725,0  c2.953,2.965,2.955,7.758-0.002,10.725C18.396,24.318,13.604,24.316,10.64,21.361z M6.042,25.959  C5.209,25.122,4.519,24.2,3.938,23.23l4.081-4.08c0.418,1.062,1.055,2.06,1.914,2.918c0.858,0.854,1.855,1.494,2.917,1.914  l-4.081,4.08C7.799,27.482,6.879,26.792,6.042,25.959z M8.769,3.935l4.082,4.082c-1.062,0.418-2.06,1.054-2.92,1.913  c-0.858,0.859-1.494,1.855-1.912,2.918L3.937,8.767c0.58-0.969,1.271-1.89,2.105-2.727C6.877,5.207,7.799,4.516,8.769,3.935z   M23.232,28.062L19.15,23.98c1.062-0.418,2.061-1.062,2.918-1.912c0.854-0.858,1.496-1.856,1.914-2.92l4.082,4.082  c-0.58,0.97-1.271,1.892-2.105,2.729C25.123,26.792,24.201,27.482,23.232,28.062z"/>
</svg>