<svg xmlns="http://www.w3.org/2000/svg" xmlns:xlink="http://www.w3.org/1999/xlink" version="1.1" id="Layer_1" x="0px" y="0px" width="32px" height="32px" viewBox="0 0 32 32" enable-background="new 0 0 32 32" xml:space="preserve">
<path id="timeback" d="M11.167,18.793c0.275,0.479,0.889,0.644,1.365,0.367l3.305-1.677c0.054,0.008,0.108,0.018,0.165,0.018  c0.828,0,1.5-0.671,1.5-1.5l-0.5-7.876c0-0.552-0.448-1-1-1s-1,0.448-1,1l-0.466,7.343l-3.004,1.96  C11.054,17.705,10.89,18.317,11.167,18.793z M12.562,10.046c0.479-0.276,0.642-0.888,0.366-1.366  c-0.276-0.478-0.888-0.642-1.366-0.366S10.92,9.202,11.196,9.68C11.474,10.159,12.084,10.323,12.562,10.046z M8.68,19.073  c-0.478,0.277-0.642,0.889-0.365,1.367c0.275,0.479,0.889,0.641,1.365,0.365c0.479-0.275,0.643-0.896,0.367-1.367  C9.771,18.962,9.159,18.798,8.68,19.073z M9.681,11.197c-0.479-0.276-1.09-0.112-1.366,0.366s-0.111,1.09,0.365,1.366  c0.479,0.276,1.09,0.113,1.367-0.366C10.321,12.085,10.158,11.474,9.681,11.197z M7.125,16.001c0,0.553,0.449,1,1,1  c0.552,0,1-0.447,1.001-1c-0.001-0.552-0.448-0.999-1.001-1C7.571,15.001,7.125,15.449,7.125,16.001z M15.001,23.878  c0,0.553,0.448,1,1,1s1-0.447,1-1s-0.448-1-1-1S15.001,23.325,15.001,23.878z M11.196,22.323c-0.275,0.479-0.111,1.09,0.366,1.365  c0.478,0.271,1.091,0.104,1.365-0.365c0.277-0.479,0.113-1.09-0.365-1.367C12.084,21.681,11.474,21.845,11.196,22.323z   M22.322,11.197c-0.479,0.278-0.643,0.89-0.366,1.367s0.888,0.642,1.366,0.365c0.478-0.275,0.643-0.888,0.365-1.366  C23.413,11.085,22.798,10.921,22.322,11.197z M21.956,19.438c-0.274,0.479-0.112,1.104,0.367,1.367  c0.477,0.274,1.089,0.112,1.364-0.365c0.271-0.479,0.104-1.092-0.364-1.354C22.843,18.798,22.23,18.962,21.956,19.438z   M24.878,16.001c0-0.551-0.448-1-1-1c-0.554,0.002-1.001,0.45-1.001,1c0.001,0.552,0.448,1,1.001,1  C24.43,17.001,24.878,16.554,24.878,16.001z M19.073,23.323c0.274,0.477,0.888,0.643,1.366,0.365  c0.478-0.275,0.642-0.896,0.365-1.365c-0.277-0.479-0.896-0.643-1.365-0.367C18.96,22.233,18.796,22.845,19.073,23.323z   M19.439,10.047c0.477,0.276,1.088,0.112,1.365-0.366c0.271-0.478,0.104-1.091-0.367-1.367c-0.479-0.276-1.09-0.111-1.364,0.366  C18.798,9.16,18.962,9.771,19.439,10.047z M29.203,14.865C28.574,7.573,22.154,2.171,14.864,2.796  c-3.254,0.281-6.118,1.726-8.25,3.877L4.841,5.182l-1.309,7.364l7.031-2.548L8.927,8.621C10.555,7.054,12.694,6,15.122,5.788  c5.64-0.477,10.594,3.694,11.088,9.335c0.478,5.64-3.692,10.595-9.333,11.09c-5.643,0.476-10.599-3.694-11.092-9.333  c-0.102-1.204,0.019-2.373,0.31-3.478l-3.27,1.186c-0.089,0.832-0.106,1.684-0.031,2.55c0.629,7.29,7.048,12.691,14.34,12.066  C24.426,28.575,29.828,22.155,29.203,14.865z"/>
</svg>