<svg xmlns="http://www.w3.org/2000/svg" xmlns:xlink="http://www.w3.org/1999/xlink" version="1.1" id="Layer_1" x="0px" y="0px" width="32px" height="32px" viewBox="0 0 32 32" enable-background="new 0 0 32 32" xml:space="preserve">
<path id="jigsaw" d="M4.111,14.181c0,0,3.516-4.669,5.592-3.642c2.077,1.027-0.414,2.795,1.598,3.719  c2.011,0.924,5.048-0.229,4.376-2.899c-0.672-2.67-1.866-0.776-2.798-2.208c-0.934-1.432,4.585-4.59,4.585-4.59  s3.361,6.651,4.316,4.911c1.157-2.105,3.192-4.265,5.305-1.025c0,0,1.813,2.412,0.246,3.434s-2.917,0.443-3.506,1.553  c-0.586,1.112,3.784,4.093,3.784,4.093s-2.987,4.811-4.926,3.549c-1.939-1.263,0.354-3.365-2.604-3.99  c-1.288-0.229-3.438,0.539-3.817,2.354c-0.13,2.709,1.604,2.021,2.791,3.479c1.191,1.455-4.478,4.521-4.478,4.521  s-1.584-3.927-3.811-4.653c-2.227-0.729-0.893,2.146-2.917,2.523c-2.024,0.396-4.816-2.396-3.46-4.786  c1.359-2.396,3.276-0.046,3.442-1.95C8.001,16.648,4.111,14.181,4.111,14.181z"/>
</svg>