<svg xmlns="http://www.w3.org/2000/svg" xmlns:xlink="http://www.w3.org/1999/xlink" version="1.1" id="Layer_1" x="0px" y="0px" width="32px" height="32px" viewBox="0 0 32 32" enable-background="new 0 0 32 32" xml:space="preserve">
<path id="landing" d="M23.822,19.992c0,0,1.902,0.342,0.299-1.869c-1.354-1.866-5.262-3.104-5.262-3.104L14.647,6.79l-2.47-0.395  l0.973,5.449L9.741,10.61L9.272,7.773L7.508,6.803c0,0-0.496,2.742-0.149,5.271C7.359,12.074,14.465,18.5,23.822,19.992z   M3.751,23.606v1.998h24.498v-1.998H3.751z M14.5,18.44c0,0.414,0.336,0.75,0.75,0.75S16,18.854,16,18.44s-0.336-0.75-0.75-0.75  S14.5,18.026,14.5,18.44z"/>
</svg>