<svg xmlns="http://www.w3.org/2000/svg" xmlns:xlink="http://www.w3.org/1999/xlink" version="1.1" id="Layer_1" x="0px" y="0px" width="32px" height="32px" viewBox="0 0 32 32" enable-background="new 0 0 32 32" xml:space="preserve">
<path id="books" d="M26.941,8.352c-0.177-0.138-0.404-0.17-0.604-0.083l-9.66,4.183c-0.42,0.183-0.946,0.271-1.486,0.271  c-0.753,0.002-1.532-0.173-2.075-0.412c-0.194-0.083-0.356-0.176-0.471-0.259c0.042-0.021,0.09-0.042,0.146-0.064l8.788-3.804  l1.312,0.561V7.106c0-0.244-0.104-0.475-0.281-0.612c-0.178-0.138-0.406-0.17-0.604-0.083l-9.669,4.183  c-0.298,0.121-0.554,0.268-0.771,0.483c-0.213,0.208-0.397,0.552-0.394,0.934c0,0.01,0.003,0.027,0.003,0.027v14.729  c0,0.006-0.002,0.013-0.002,0.02c0,0.005,0.002,0.007,0.002,0.012v0.016h0.002c0.021,0.521,0.28,0.854,0.528,1.074  c0.781,0.688,2.091,1.073,3.484,1.104c0.66,0,1.33-0.104,1.95-0.366l9.662-4.188c0.255-0.104,0.422-0.383,0.422-0.688V8.965  C27.223,8.721,27.117,8.49,26.941,8.352z M20.814,5.552c-0.017-0.221-0.107-0.429-0.271-0.556c-0.177-0.138-0.404-0.17-0.606-0.083  l-9.659,4.183c-0.42,0.182-0.947,0.271-1.486,0.271C8.039,9.368,7.26,9.193,6.717,8.954C6.524,8.872,6.361,8.779,6.246,8.696  c0.042-0.021,0.091-0.042,0.146-0.064l8.787-3.804l1.31,0.561V3.75c0-0.244-0.106-0.475-0.284-0.612  C16.029,3,15.798,2.968,15.599,3.055l-9.66,4.183c-0.298,0.12-0.553,0.267-0.77,0.483C4.955,7.929,4.772,8.273,4.775,8.655  c0,0.011,0.003,0.027,0.003,0.027v14.73c0,0.006-0.001,0.014-0.001,0.02c0,0.004,0.001,0.006,0.001,0.021v0.02H4.78  c0.021,0.521,0.28,0.854,0.528,1.071c0.781,0.688,2.091,1.062,3.485,1.097c0.376,0,0.754-0.049,1.126-0.119V12.042  c-0.01-0.7,0.27-1.372,0.762-1.856C11,9.871,11.389,9.622,11.871,9.43L20.814,5.552z"/>
</svg>