<svg xmlns="http://www.w3.org/2000/svg" xmlns:xlink="http://www.w3.org/1999/xlink" version="1.1" id="Layer_1" x="0px" y="0px" width="32px" height="32px" viewBox="0 0 32 32" enable-background="new 0 0 32 32" xml:space="preserve">
<path id="merge" d="M29.265,16.001l-7.556-4.363v2.613h-1.411c-0.788-0.01-1.331-0.241-2.02-0.743  c-1.021-0.745-2.093-2.181-3.55-3.568c-1.438-1.379-3.515-2.709-6.306-2.69H2.735v3.5h5.688c2.231,0.012,3.441,1.185,5.07,2.934  c0.697,0.753,1.428,1.58,2.324,2.323c-1.396,1.166-2.412,2.516-3.484,3.501c-1.183,1.081-2.202,1.724-3.912,1.741H2.736v3.5h5.716  c3.752,0.001,6.035-2.318,7.619-4.066c0.816-0.895,1.537-1.688,2.209-2.188c0.686-0.502,1.229-0.732,2.017-0.742h1.412v2.614  L29.265,16.001z"/>
</svg>