<svg xmlns="http://www.w3.org/2000/svg" xmlns:xlink="http://www.w3.org/1999/xlink" version="1.1" id="Layer_1" x="0px" y="0px" width="32px" height="32px" viewBox="0 0 32 32" enable-background="new 0 0 32 32" xml:space="preserve">
<path id="music" d="M10.96,8.042v6.041v9.862c-0.677-0.45-1.636-0.736-2.708-0.736c-2.048,0-3.708,1.025-3.708,2.292  c0,1.265,1.66,2.291,3.708,2.291s3.708-1.026,3.708-2.291V13.786l10.916-3.24v9.565c-0.678-0.45-1.635-0.736-2.709-0.736  c-2.047,0-3.707,1.025-3.707,2.292c0,1.265,1.66,2.291,3.707,2.291c2.049,0,3.709-1.026,3.709-2.291V10.249V4.208L10.96,8.042z"/>
</svg>