<svg xmlns="http://www.w3.org/2000/svg" xmlns:xlink="http://www.w3.org/1999/xlink" version="1.1" id="Layer_1" x="0px" y="0px" width="32px" height="32px" viewBox="0 0 32 32" enable-background="new 0 0 32 32" xml:space="preserve">
<path id="no_view" d="M11.479,17.601c-0.172-0.494-0.285-1.021-0.285-1.568c0-2.649,2.158-4.807,4.807-4.807  c0.552,0,1.074,0.113,1.567,0.285l2.283-2.283C18.541,8.679,17.227,8.318,16,8.318c-7.545,0-13.5,7.714-13.5,7.714  s2.167,2.791,5.53,5.019L11.479,17.601z M23.518,11.218l-3.056,3.056c0.218,0.546,0.345,1.138,0.345,1.76  c0,2.647-2.158,4.809-4.807,4.809c-0.622,0-1.213-0.129-1.76-0.347l-2.469,2.472c1.327,0.479,2.745,0.782,4.229,0.782  c5.771,0,13.5-7.716,13.5-7.716S26.859,13.405,23.518,11.218z M25.542,4.948L4.855,25.636l1.415,1.416L26.956,6.363L25.542,4.948z"/>
</svg>