<svg xmlns="http://www.w3.org/2000/svg" xmlns:xlink="http://www.w3.org/1999/xlink" version="1.1" id="Layer_1" x="0px" y="0px" width="32px" height="32px" viewBox="0 0 32 32" enable-background="new 0 0 32 32" xml:space="preserve">
<path id="Page2" d="M22.4,5.766c-1.744-1.693-3.625-3.051-5.168-3.236c-0.084-0.012-0.17-0.019-0.271-0.021H6.814  c-0.162,0-0.321,0.062-0.436,0.181C6.266,2.803,6.198,2.963,6.198,3.127v25.75c0,0.146,0.063,0.312,0.181,0.435  c0.117,0.116,0.271,0.18,0.436,0.18h18.364c0.162,0,0.317-0.062,0.435-0.18c0.117-0.115,0.188-0.271,0.188-0.435V11.74  C25.759,9.754,24.202,7.585,22.4,5.766z M24.561,28.258H7.429V3.74h9.542v0.002c0.416-0.024,0.775,0.387,1.051,1.326  c0.25,0.896,0.312,2.062,0.312,2.871c0.002,0.592-0.025,0.99-0.025,0.99l-0.051,0.651l0.656,0.008c0.003,0,1.516,0.019,3,0.354  c1.426,0.31,2.541,0.922,2.646,1.617c0.004,0.062,0.004,0.124,0.004,0.182v16.517H24.561z"/>
</svg>