<svg xmlns="http://www.w3.org/2000/svg" xmlns:xlink="http://www.w3.org/1999/xlink" version="1.1" id="Layer_1" x="0px" y="0px" width="32px" height="32px" viewBox="0 0 32 32" enable-background="new 0 0 32 32" xml:space="preserve">
<path id="pallete" d="M16.153,7.75c-3.417,0-8.577,0.983-8.577,3.282c0,1.91,2.704,3.229,1.691,3.889  c-1.021,0.666-2.685-1.848-4.048-1.848c-1.653,0-2.815,1.434-2.815,2.926c0,4.557,6.326,8.25,13.749,8.25  c7.424,0,13.442-3.693,13.442-8.25C29.596,11.444,23.577,7.75,16.153,7.75z M10.809,14.021c0-0.645,0.887-1.166,1.979-1.166  s1.979,0.521,1.979,1.166c0,0.644-0.887,1.166-1.979,1.166S10.809,14.665,10.809,14.021z M14.789,22.799  c-1.058,0-1.914-0.68-1.914-1.518s0.856-1.518,1.914-1.518s1.914,0.68,1.914,1.518S15.847,22.799,14.789,22.799z M20.111,22.271  c-1.057,0-1.913-0.688-1.913-1.521c0-0.84,0.856-1.521,1.913-1.521c1.059,0,1.914,0.689,1.914,1.521  C22.025,21.584,21.17,22.271,20.111,22.271z M20.575,11.161c0-0.838,0.856-1.518,1.913-1.518c1.059,0,1.914,0.68,1.914,1.518  c0,0.839-0.855,1.518-1.914,1.518C21.434,12.678,20.575,12,20.575,11.161z M24.775,19.982c-1.062,0-1.914-0.688-1.914-1.521  c0-0.832,0.854-1.517,1.914-1.517c1.059,0,1.914,0.679,1.914,1.517S25.834,19.982,24.775,19.982z M25.786,15.976  c-1.058,0-1.914-0.68-1.914-1.519c0-0.838,0.856-1.518,1.914-1.518c1.057,0,1.913,0.68,1.913,1.518  C27.699,15.295,26.843,15.976,25.786,15.976z"/>
</svg>