<svg xmlns="http://www.w3.org/2000/svg" xmlns:xlink="http://www.w3.org/1999/xlink" version="1.1" id="Layer_1" x="0px" y="0px" width="32px" height="32px" viewBox="0 0 32 32" enable-background="new 0 0 32 32" xml:space="preserve">
<path id="parent" d="M14.922,12.67c-0.875,0.641-1.941,1.031-3.102,1.031c-1.164,0-2.231-0.392-3.104-1.031  c-0.75,0.625-1.498,1.519-2.111,2.623c-1.422,2.562-1.578,5.191-0.35,5.874c0.549,0.312,1.127,0.078,1.723-0.496  c-0.105,0.582-0.166,1.213-0.166,1.873c0,2.938,1.139,5.312,2.543,5.312c0.846,0,1.265-0.854,1.466-2.188  c0.2,1.314,0.62,2.188,1.461,2.188c1.396,0,2.545-2.375,2.545-5.312c0-0.66-0.062-1.291-0.168-1.873  c0.6,0.574,1.176,0.812,1.726,0.496c1.229-0.683,1.067-3.312-0.354-5.874C16.42,14.188,15.672,13.295,14.922,12.67z M11.819,12.701  c2.361,0,4.277-1.916,4.277-4.279s-1.916-4.279-4.277-4.279c-2.363,0-4.28,1.916-4.28,4.279S9.457,12.701,11.819,12.701z   M22.485,18.171c1.509,0,2.729-1.226,2.729-2.735s-1.225-2.734-2.729-2.734c-1.51,0-2.735,1.225-2.735,2.734  S20.976,18.171,22.485,18.171z M25.817,19.827c-0.396-0.705-0.869-1.277-1.354-1.677c-0.562,0.41-1.235,0.658-1.979,0.658  c-0.729,0-1.426-0.25-1.979-0.658c-0.479,0.396-0.958,0.972-1.354,1.677c-0.905,1.638-1.01,3.317-0.229,3.754  c0.354,0.2,0.726,0.05,1.104-0.317c-0.062,0.372-0.104,0.775-0.104,1.197c0,1.878,0.729,3.396,1.625,3.396  c0.54,0,0.812-0.553,0.938-1.398c0.132,0.841,0.396,1.398,0.938,1.398c0.896,0,1.627-1.521,1.627-3.396  c0-0.422-0.037-0.825-0.104-1.197c0.387,0.367,0.752,0.521,1.104,0.317C26.827,23.146,26.726,21.465,25.817,19.827z"/>
</svg>