<svg xmlns="http://www.w3.org/2000/svg" xmlns:xlink="http://www.w3.org/1999/xlink" version="1.1" id="Layer_1" x="0px" y="0px" width="32px" height="32px" viewBox="0 0 32 32" enable-background="new 0 0 32 32" xml:space="preserve">
<path id="cloudy" d="M14.817,7.893c0.41,0.988,1.938,0.346,1.524-0.648c-0.194-0.466-0.387-0.933-0.582-1.398  c-0.289-0.695-0.875-3.233-2.042-2.748c-1.03,0.434-0.128,1.847,0.142,2.494C14.18,6.359,14.5,7.126,14.817,7.893 M21.239,8.333  c1.095,0.453,1.538-1.551,1.813-2.216c0.281-0.677,1.478-2.565,0.357-3.028c-1.104-0.453-1.537,1.547-1.813,2.215  C21.315,5.983,20.119,7.866,21.239,8.333 M18.576,7.802c1.184,0,0.829-2.02,0.829-2.742c0-0.732,0.384-2.936-0.829-2.936  c-1.183,0-0.828,2.02-0.828,2.742C17.748,5.602,17.365,7.802,18.576,7.802 M23.498,9.839c0.854,0.851,2.146-0.972,2.658-1.489  c0.512-0.513,2.188-1.688,1.352-2.524C26.674,4.99,25.496,6.67,24.987,7.18C24.467,7.694,22.639,8.984,23.498,9.839 M25.004,12.095  c0.449,1.092,2.185-0.01,2.851-0.285c0.676-0.28,2.856-0.771,2.396-1.891c-0.455-1.091-2.183,0.008-2.851,0.285  C26.722,10.486,24.541,10.978,25.004,12.095 M12.477,9.854c0.752,0.75,1.932-0.415,1.17-1.174C13.394,8.333,13,8.034,12.697,7.734  c-0.541-0.54-2.162-2.799-3.068-1.889c-0.79,0.791,0.586,1.755,1.083,2.25C11.298,8.679,11.886,9.268,12.477,9.854 M29.806,18.508  c-0.769-0.316-1.534-0.641-2.304-0.957c-0.646-0.27-2.068-1.17-2.494-0.135c-0.48,1.166,2.055,1.75,2.75,2.041  c0.455,0.188,0.912,0.377,1.367,0.562C30.141,20.443,30.818,18.928,29.806,18.508 M30.381,13.927c-0.83,0-1.658,0-2.488,0  c-0.701,0-2.355-0.289-2.354,0.83c0,1.262,2.562,0.826,3.312,0.826c0.491,0,0.979,0,1.479,0  C31.431,15.583,31.482,13.925,30.381,13.927 M24.674,19.68c-0.674-0.674-1.772,0.188-1.28,1.008c-0.295-0.266-0.614-0.5-0.961-0.688  c3.896-2.865,3.327-9.007-1.021-11.107c-2.023-0.978-4.48-0.827-6.375,0.396c-0.87,0.562-1.602,1.335-2.118,2.235  c-0.262,0.456-0.468,0.943-0.612,1.449c-0.074,0.258-0.131,0.521-0.172,0.785c-0.083,0.534-0.109,0.553-0.553,0.871  c-0.182-0.957-1.64-0.675-2.326-0.674C8.44,13.956,7.292,13.737,6.503,14C5.64,14.29,5.854,15.615,6.77,15.613  c0.324,0.053,0.701,0,1.028,0c0.904-0.002,1.809-0.002,2.713-0.004c-0.308,0.354-0.496,0.97-0.94,0.771  c-0.467-0.209-0.978-0.32-1.49-0.32c-0.951,0-1.877,0.375-2.561,1.038c-0.681,0.658-1.088,1.568-1.123,2.518  c-0.944,0.312-1.791,0.896-2.421,1.658c-2.756,3.354-0.265,8.553,4.058,8.553v-0.002c3.597,0,7.194,0,10.792,0  c1.336,0,2.838,0.168,4.167-0.104c3.646-0.771,5.354-5.211,3.133-8.229c0.547,0.549,1.104,1.097,1.646,1.646  c0.188,0.187,0.363,0.427,0.575,0.571c0.552,0.555,1.521,0.062,1.397-0.715c-0.104-0.622-1.041-1.271-1.445-1.674  C25.758,20.764,25.215,20.221,24.674,19.68 M18.576,9.898c4.559,0.009,6.576,5.979,2.912,8.734c-0.637-3.506-4.16-5.831-7.629-5.03  C14.382,11.479,16.292,9.902,18.576,9.898 M23.334,25.191c-0.633,3.354-4.146,2.879-6.68,2.879c-3.017,0-6.033,0-9.049,0  c-0.767,0-1.62,0.084-2.373-0.094c-2.274-0.539-3.416-3.242-2.172-5.236c0.678-1.086,1.568-1.188,2.626-1.67  c0.604-0.271,0.456-0.807,0.456-1.33c0.002-0.598,0.284-1.17,0.756-1.521c0.787-0.608,1.943-0.498,2.611,0.229  c1.098,1.205,1.96-1.354,2.507-1.897c2.025-2.024,5.475-1.707,7.067,0.686c0.344,0.516,0.582,1.103,0.688,1.707  c0.104,0.522-0.109,1.354,0.188,1.797c0.291,0.479,0.94,0.479,1.396,0.688c0.514,0.229,0.965,0.593,1.309,1.033  C23.273,23.236,23.504,24.219,23.334,25.191 M7.347,11.027c0.881,0.364,1.763,0.728,2.644,1.091c0.353,0.146,0.707,0.292,1.06,0.438  c0.997,0.412,1.637-1.119,0.642-1.526c-0.782-0.478-1.796-0.743-2.643-1.091c-0.354-0.147-0.707-0.292-1.06-0.438  C6.995,9.089,6.353,10.614,7.347,11.027"/>
</svg>