<svg xmlns="http://www.w3.org/2000/svg" xmlns:xlink="http://www.w3.org/1999/xlink" version="1.1" id="Layer_1" x="0px" y="0px" width="32px" height="32px" viewBox="0 0 32 32" enable-background="new 0 0 32 32" xml:space="preserve">
<path id="Pen" d="M14.057,12.171c-0.049-0.074-0.11-0.147-0.188-0.202c-0.333-0.243-0.803-0.169-1.047,0.166  c-0.244,0.336-0.167,0.805,0.167,1.048c0.303,0.221,0.708,0.167,0.966-0.091L6.868,22.86l-2.203,7.996l6.917-4.576L27.335,4.563  l-4.717-3.42L21.097,3.24c-0.087-0.35-0.279-0.677-0.596-0.908c-0.73-0.527-1.752-0.367-2.28,0.363  C15.191,6.879,16.872,7.992,14.057,12.171z M10.589,25.244L7.03,27.598l1.133-4.107L10.589,25.244z M14.779,11.955  c2.184-3.225,1.976-4.099,3.843-6.961c0.31,0.211,0.664,0.287,1.013,0.27L14.779,11.955z"/>
</svg>