<?xml version="1.0" encoding="utf-8"?>
<!-- Generator: Adobe Illustrator 15.1.0, SVG Export Plug-In . SVG Version: 6.00 Build 0)  -->
<!DOCTYPE svg PUBLIC "-//W3C//DTD SVG 1.1//EN" "http://www.w3.org/Graphics/SVG/1.1/DTD/svg11.dtd">
<svg version="1.1" id="Layer_1" xmlns="http://www.w3.org/2000/svg" xmlns:xlink="http://www.w3.org/1999/xlink" x="0px" y="0px"
	 width="100px" height="87px" viewBox="0 0 100 87" enable-background="new 0 0 100 87" xml:space="preserve">
<path d="M95.454,21.046l0.001-0.025l-37.454-4.766L55.533,7H61V5h-6h-2l-3-5l-3,5h-2h-6v2h5.467l-2.468,9.255L4.545,21.021
	l0.001,0.025C2,21.278,0,23.394,0,26c0,2.762,2.238,5,5,5l37.031,1.899L45,70c0,0-13,4-13,11h14l4,6l4-6h14c0-7-13-11-13-11
	l2.969-37.101L95,31c2.762,0,5-2.238,5-5C100,23.394,98,21.278,95.454,21.046z"/>
</svg>
