<svg xmlns="http://www.w3.org/2000/svg" xmlns:xlink="http://www.w3.org/1999/xlink" version="1.1" id="Layer_1" x="0px" y="0px" width="32px" height="32px" viewBox="0 0 32 32" enable-background="new 0 0 32 32" xml:space="preserve">
<path id="people" d="M21.566,21.167c1.227-0.683,1.062-3.312-0.354-5.874c-0.61-1.104-1.358-1.998-2.108-2.623  c-0.875,0.642-1.938,1.031-3.102,1.031c-1.165,0-2.231-0.391-3.104-1.031c-0.75,0.625-1.498,1.52-2.111,2.623  c-1.422,2.562-1.578,5.191-0.35,5.874c0.549,0.312,1.127,0.078,1.723-0.496c-0.105,0.582-0.166,1.213-0.166,1.873  c0,2.938,1.139,5.312,2.543,5.312c0.846,0,1.265-0.854,1.466-2.188c0.2,1.314,0.62,2.188,1.46,2.188  c1.396,0,2.545-2.375,2.545-5.312c0-0.66-0.062-1.291-0.168-1.873C20.439,21.245,21.016,21.482,21.566,21.167z M16,12.701  c2.361,0,4.277-1.916,4.277-4.279c0-2.362-1.916-4.277-4.277-4.277c-2.363,0-4.28,1.916-4.28,4.278  C11.721,10.786,13.638,12.701,16,12.701z M24.594,15.414c1.938,0,3.512-1.573,3.512-3.513s-1.562-3.513-3.512-3.513  c-1.939,0-3.513,1.572-3.513,3.513C21.081,13.841,22.652,15.414,24.594,15.414z M28.874,17.543  c-0.502-0.907-1.116-1.641-1.731-2.153c-0.719,0.525-1.595,0.846-2.547,0.846c-0.756,0-1.459-0.207-2.076-0.55  c0.496,1.092,0.812,2.199,0.861,3.189c0.094,1.516-0.381,2.641-1.329,3.165c-0.204,0.117-0.426,0.183-0.653,0.224  c-0.056,0.396-0.094,0.801-0.094,1.231c0,2.412,0.938,4.36,2.088,4.36c0.693,0,1.039-0.709,1.203-1.795  c0.163,1.078,0.508,1.795,1.199,1.795c1.146,0,2.09-1.949,2.09-4.36c0-0.542-0.052-1.06-0.139-1.538  c0.492,0.473,0.966,0.667,1.418,0.407C30.171,21.805,30.041,19.646,28.874,17.543z M7.406,15.414c1.939,0,3.512-1.573,3.512-3.513  S9.346,8.389,7.406,8.389c-1.94,0-3.514,1.572-3.514,3.513C3.893,13.841,5.466,15.414,7.406,15.414z M9.941,22.036  c-1.593-0.886-1.739-3.524-0.457-6.354c-0.619,0.346-1.322,0.553-2.078,0.553c-0.956,0-1.832-0.321-2.549-0.846  c-0.616,0.513-1.229,1.246-1.733,2.153c-1.167,2.104-1.295,4.262-0.287,4.821c0.451,0.257,0.925,0.062,1.414-0.407  c-0.086,0.479-0.136,0.996-0.136,1.538c0,2.412,0.935,4.36,2.088,4.36c0.694,0,1.039-0.709,1.204-1.795  c0.165,1.078,0.509,1.795,1.201,1.795c1.146,0,2.089-1.949,2.089-4.36c0-0.433-0.04-0.841-0.097-1.233  C10.375,22.221,10.151,22.156,9.941,22.036z"/>
</svg>