<svg xmlns="http://www.w3.org/2000/svg" xmlns:xlink="http://www.w3.org/1999/xlink" version="1.1" id="Layer_1" x="0px" y="0px" width="32px" height="32px" viewBox="0 0 32 32" enable-background="new 0 0 32 32" xml:space="preserve">
<path id="plane" d="M21.984,5.393L18,9.378l-5.5-1.236c0.519-0.725,1.314-2.416,0.666-3.063c-0.744-0.742-2.84,0.398-3.308,0.867  L8.548,7.256l-3.86-0.867l-2.9,2.9l3.203,1.522l-0.118,0.118l2.441,2.441l0.987-0.986l4.541,2.158l-4.198,5.402l-5.686-0.058  l-1.632,1.633l5.167,1.361l2.626,2.626l1.359,5.165l1.632-1.633l-0.057-6.045l5.403-3.832l2.158,4.541l-0.986,0.987l2.443,2.439  l0.116-0.116l1.523,3.203l2.901-2.901l-0.868-3.857l1.31-1.309c0.468-0.469,1.608-2.568,0.866-3.31  c-0.628-0.65-2.341,0.145-3.064,0.664l-1.236-5.507l3.986-3.985c1.358-1.359,5.173-6.979,3.759-8.38  C28.963,0.229,23.344,4.034,21.984,5.393z"/>
</svg>