<svg xmlns="http://www.w3.org/2000/svg" xmlns:xlink="http://www.w3.org/1999/xlink" version="1.1" id="Layer_1" x="0px" y="0px" width="32px" height="32px" viewBox="0 0 32 32" enable-background="new 0 0 32 32" xml:space="preserve">
<path id="rain" d="M25.872,7.756c-0.093-3.925-3.302-7.078-7.248-7.08c-2.638,0.002-4.942,1.412-6.208,3.518  c-0.596-0.327-1.28-0.518-2.011-0.518C8.127,3.678,6.272,5.483,6.189,7.742c-2.393,0.786-4.125,3.025-4.127,5.686  c0,3.312,2.688,6,6,6v-0.002h15.875c3.312,0,6-2.688,6-6C29.934,10.788,28.232,8.559,25.872,7.756z M23.936,17.428H8.062  c-2.209-0.006-3.997-1.793-4.001-4c-0.002-1.983,1.45-3.619,3.351-3.933c0.265-0.043,0.502-0.19,0.656-0.414  C8.223,8.859,8.279,8.584,8.23,8.319C8.203,8.17,8.186,8.031,8.186,7.895c0.004-1.225,0.995-2.217,2.22-2.219  c0.647,0,1.218,0.278,1.634,0.731c0.232,0.257,0.587,0.375,0.927,0.31c0.342-0.066,0.626-0.308,0.748-0.631  c0.749-1.992,2.662-3.412,4.911-3.41c2.898,0.004,5.244,2.351,5.251,5.25c0,0.16-0.009,0.325-0.026,0.496  c-0.05,0.518,0.305,0.984,0.814,1.079c1.859,0.345,3.273,1.966,3.271,3.923C27.93,15.635,26.145,17.422,23.936,17.428z   M9.528,27.131c0-1.115,0.021-5.426,0.021-5.434c0.002-0.408-0.247-0.777-0.628-0.938c-0.38-0.146-0.815-0.062-1.099,0.239  c-0.007,0.009-1.037,1.099-2.081,2.343c-0.523,0.627-1.049,1.287-1.464,1.896c-0.398,0.646-0.753,1.062-0.811,1.896  c0.004,1.671,1.357,3.023,3.032,3.027C8.172,30.158,9.528,28.803,9.528,27.131z M5.472,27.176c0.091-0.35,1.081-1.721,1.993-2.766  c0.025-0.027,0.051-0.062,0.076-0.088c-0.005,1.123-0.011,2.293-0.011,2.809c0,0.566-0.461,1.027-1.028,1.029  C5.946,28.158,5.498,27.723,5.472,27.176z M16.925,27.131c0-1.115,0.021-5.426,0.021-5.432c0.003-0.41-0.246-0.777-0.627-0.938  c-0.381-0.147-0.814-0.062-1.101,0.242c-0.006,0.008-1.034,1.094-2.08,2.342c-0.521,0.623-1.047,1.285-1.463,1.896  c-0.399,0.646-0.753,1.065-0.809,1.896c0,1.672,1.354,3.021,3.028,3.021C15.568,30.158,16.925,28.803,16.925,27.131z M12.866,27.178  c0.092-0.35,1.081-1.721,1.993-2.766c0.024-0.029,0.05-0.062,0.074-0.09c-0.004,1.123-0.011,2.295-0.011,2.809  c-0.002,0.566-0.461,1.025-1.028,1.027C13.34,28.156,12.893,27.723,12.866,27.178z M23.771,20.766  c-0.381-0.152-0.815-0.062-1.104,0.24c-0.009,0.008-1.037,1.098-2.08,2.342c-0.521,0.625-1.049,1.285-1.462,1.896  c-0.396,0.646-0.754,1.062-0.812,1.888c0,1.672,1.354,3.026,3.027,3.026c1.676,0,3.026-1.354,3.026-3.026  c0-1.115,0.021-5.427,0.021-5.433C24.4,21.287,24.15,20.92,23.771,20.766z M22.379,27.131c-0.004,0.566-0.463,1.025-1.031,1.027  c-0.553-0.002-1.002-0.438-1.027-0.98c0.104-0.352,1.08-1.723,1.992-2.768c0.025-0.025,0.062-0.062,0.074-0.088  C22.383,25.447,22.379,26.615,22.379,27.131z"/>
</svg>