<svg xmlns="http://www.w3.org/2000/svg" xmlns:xlink="http://www.w3.org/1999/xlink" version="1.1" id="Layer_1" x="0px" y="0px" width="32px" height="32px" viewBox="0 0 32 32" enable-background="new 0 0 32 32" xml:space="preserve">
<path id="refresh_1_" d="M24.584,16.001c-0.01,4.739-3.846,8.574-8.583,8.583c-4.741-0.009-8.577-3.844-8.585-8.583  C7.423,11.26,11.259,7.424,16,7.416c1.914,0,3.666,0.629,5.089,1.686l-1.781,1.783l8.428,2.256l-2.26-8.427l-1.889,1.89  C21.516,4.927,18.871,3.916,16,3.916C9.327,3.919,3.918,9.327,3.917,16.001C3.918,22.676,9.327,28.084,16,28.084  c6.673,0,12.083-5.408,12.083-12.083H24.584z"/>
</svg>