<svg xmlns="http://www.w3.org/2000/svg" xmlns:xlink="http://www.w3.org/1999/xlink" version="1.1" id="Layer_1" x="0px" y="0px" width="32px" height="32px" viewBox="0 0 32 32" enable-background="new 0 0 32 32" xml:space="preserve">
<path id="settings_1_" d="M29.051,10.359c-0.473-0.259-1.127-0.252-1.609-0.523c-0.943-0.534-1.186-1.315-1.226-2.475  c-2.06-2.215-5.138-4.176-9.425-4.114c-1.161,0.018-2.255-0.035-3.157,0.436c-0.258,0.354-0.004,0.516,0.288,0.599  c-0.29,0.138-0.692,0.146-0.626,0.697c2.72-0.384,7.475,0.624,7.117,2.966c-0.08,0.521-0.735,1.076-1.188,1.562  c-1.263,1.383-2.599,2.45-3.761,3.667l0.336,0.336c0.742-0.521,1.44-0.784,2.104-0.784c0.707,0,1.121,0.297,1.271,0.433  c0.574-0.618,1.166-1.244,1.841-1.853c0.485-0.444,1.049-1.1,1.562-1.179l0.947-0.101c1.153,0.047,1.938,0.29,2.475,1.231  c0.271,0.481,0.271,1.14,0.521,1.613c0.178,0.324,0.938,1.218,1.312,1.229c0.295,0.009,0.604-0.199,0.896-0.49l1.031-1.034  c0.291-0.294,0.502-0.6,0.489-0.896C30.268,11.301,29.375,10.535,29.051,10.359z M13.534,15.854l-0.741-0.741  c-3.139,2.643-6.52,5.737-9.531,8.589c-0.473,0.443-1.452,1.021-1.506,1.539c-0.083,0.781,0.95,1.465,1.506,2  c0.556,0.533,1.212,1.602,1.994,1.51c0.509-0.043,1.095-1.029,1.544-1.502c2.255-2.374,4.664-4.977,6.883-7.509  c-0.312-0.371-0.498-0.597-0.498-0.597C13.048,18.951,12.292,17.771,13.534,15.854z M21.154,16.143  c-0.367-0.317-1.467,0.144-1.771-0.121c-0.312-0.267,0.171-1.259-0.062-1.455c-0.479-0.406-0.771-0.646-0.771-0.646  s-0.862-0.829-2.812,0.929L7.953,7.069C7.558,6.673,7.716,5.246,7.716,5.246l-3.686-2.1L3.136,4.041l2.1,3.687  c0,0,1.428-0.158,1.824,0.236l7.792,7.793c-1.548,1.831-0.895,2.752-0.895,2.752s0.238,0.288,0.646,0.771  c0.196,0.229,1.188-0.245,1.455,0.062c0.264,0.312-0.196,1.41,0.12,1.777c2.667,3.062,6.926,7.734,8.125,7.734  c0.892,0,2.021-0.729,2.948-1.646c0.925-0.917,1.639-2.057,1.639-2.939C28.891,23.066,24.218,18.809,21.154,16.143z"/>
</svg>