<svg xmlns="http://www.w3.org/2000/svg" xmlns:xlink="http://www.w3.org/1999/xlink" version="1.1" id="Layer_1" x="0px" y="0px" width="32px" height="32px" viewBox="0 0 32 32" enable-background="new 0 0 32 32" xml:space="preserve">
<path id="skull" d="M26.447,11.635c0-5.174-3.979-9.406-10.613-9.406c-6.633,0-10.282,4.232-10.282,9.406s1.459,4.511,1.459,7.43  c0,1.095-1.061,0.562-1.061,2.919c0,2.587,3.615,2.223,4.677,3.282c1.061,1.062,0.961,3.02,0.961,3.02s0.199,0.796,0.564,0.562  c0,0,0.232,0.562,0.498,0.229c0,0,0.265,0.562,0.531,0.104c0,0,0.265,0.631,0.696,0.166c0,0,0.431,0.631,0.929,0.133  c0,0,0.564,0.531,1.194,0.146c0.63,0.396,1.193-0.146,1.193-0.146c0.498,0.498,0.93-0.133,0.93-0.133  c0.432,0.465,0.695-0.166,0.695-0.166c0.268,0.465,0.531-0.104,0.531-0.104c0.266,0.332,0.498-0.229,0.498-0.229  c0.354,0.229,0.562-0.562,0.562-0.562s-0.104-1.957,0.961-3.02c1.061-1.062,4.676-0.695,4.676-3.282  c0-2.354-1.062-1.824-1.062-2.919C24.988,16.146,26.447,16.81,26.447,11.635z M10.833,21.487c-1.783,0.285-2.59-0.215-2.785-1.492  c-0.508-3.328,2.555-3.866,4.079-3.683c0.731,0.088,1.99,0.863,1.99,1.826C14.118,20.724,12.493,21.222,10.833,21.487z   M16.961,25.798c-0.331,0-0.862-0.431-0.895-1.227c-0.033,0.796-0.63,1.227-0.961,1.227c-0.332,0-0.83-0.33-0.863-1.127  c-0.033-0.796,1.028-4.013,1.792-4.013c0.762,0,1.823,3.217,1.792,4.013C17.793,25.468,17.295,25.798,16.961,25.798z M23.861,19.995  c-0.195,1.277-1.004,1.777-2.787,1.492c-1.658-0.266-3.283-0.764-3.283-3.35c0-0.963,1.258-1.75,1.99-1.833  C21.305,16.129,24.369,16.667,23.861,19.995z"/>
</svg>