<svg xmlns="http://www.w3.org/2000/svg" xmlns:xlink="http://www.w3.org/1999/xlink" version="1.1" id="Layer_1" x="0px" y="0px" width="32px" height="32px" viewBox="0 0 32 32" enable-background="new 0 0 32 32" xml:space="preserve">
<path id="stopwatch" d="M27.718,19.033c0-3.637-1.655-6.884-4.253-9.033l0.732-0.998l0.479,0.354  c0.198,0.146,0.48,0.104,0.633-0.097l0.438-0.604c0.146-0.198,0.104-0.482-0.103-0.628l-2.043-1.506  c-0.199-0.146-0.479-0.103-0.629,0.097l-0.441,0.605c-0.146,0.199-0.104,0.482,0.104,0.628l0.479,0.354l-0.733,1.003  c-1.28-0.834-2.733-1.419-4.298-1.699c0.848-0.635,1.398-1.638,1.4-2.778h-0.002c0-1.922-1.562-3.48-3.479-3.48  c-1.925,0-3.48,1.559-3.48,3.48c0,1.141,0.557,2.144,1.401,2.778c-1.549,0.277-2.99,0.857-4.265,1.68L8.926,8.184L9.41,7.831  c0.197-0.145,0.244-0.428,0.098-0.628l-0.44-0.604c-0.146-0.2-0.43-0.244-0.629-0.098L6.383,8c-0.2,0.146-0.243,0.428-0.099,0.628  l0.441,0.604c0.146,0.2,0.428,0.244,0.627,0.099l0.483-0.354l0.729,0.999c-2.614,2.149-4.282,5.407-4.282,9.058  c0,6.471,5.245,11.715,11.719,11.715C22.471,30.748,27.717,25.506,27.718,19.033L27.718,19.033z M13.42,4.73  c0.002-1.425,1.155-2.58,2.582-2.582c1.426,0.002,2.579,1.157,2.581,2.582c-0.002,1.192-0.812,2.184-1.908,2.482v-1.77h0.601  c0.246,0,0.449-0.203,0.449-0.449V4.246c0-0.247-0.203-0.449-0.449-0.449h-2.544c-0.247,0-0.449,0.202-0.449,0.449v0.749  c0,0.246,0.202,0.449,0.449,0.449h0.6v1.77C14.23,6.915,13.421,5.923,13.42,4.73z M16.002,28.055  c-4.983-0.01-9.016-4.039-9.022-9.021c0.008-4.982,4.039-9.013,9.022-9.021c4.98,0.01,9.014,4.04,9.021,9.021  C25.016,24.014,20.982,28.045,16.002,28.055z M16.002,12.638c0.476,0,0.861-0.385,0.861-0.86s-0.387-0.861-0.861-0.861  c-0.476,0-0.861,0.386-0.861,0.861S15.525,12.638,16.002,12.638z M16.002,25.426c-0.477,0-0.861,0.387-0.861,0.861  c0,0.477,0.386,0.861,0.861,0.861c0.475,0,0.861-0.385,0.861-0.861C16.863,25.812,16.478,25.426,16.002,25.426z M13.12,12.317  c-0.237-0.412-0.765-0.553-1.177-0.315c-0.412,0.238-0.554,0.765-0.314,1.177l2.867,6.723c0.48,0.83,1.543,1.115,2.375,0.637  c0.829-0.479,1.113-1.543,0.635-2.375L13.12,12.317z M19.2,24.57c-0.412,0.236-0.556,0.764-0.316,1.176  c0.237,0.412,0.765,0.553,1.177,0.314s0.553-0.771,0.315-1.189C20.137,24.475,19.609,24.332,19.2,24.57z M9.289,16.149  c0.412,0.238,0.938,0.097,1.176-0.315c0.237-0.413,0.097-0.938-0.314-1.176c-0.412-0.239-0.938-0.098-1.177,0.313  C8.735,15.385,8.877,15.912,9.289,16.149z M22.717,21.912c-0.412-0.236-0.938-0.096-1.176,0.316s-0.1,0.938,0.314,1.176  c0.41,0.238,0.937,0.098,1.176-0.314C23.27,22.678,23.127,22.152,22.717,21.912z M9.608,19.031c-0.002-0.477-0.387-0.861-0.86-0.861  c-0.478,0-0.862,0.387-0.862,0.861c0.001,0.475,0.386,0.859,0.861,0.861C9.224,19.893,9.607,19.508,9.608,19.031z M22.398,19.031  c0,0.477,0.383,0.861,0.854,0.859c0.479,0.002,0.861-0.396,0.861-0.859c0-0.477-0.391-0.859-0.861-0.861  C22.781,18.17,22.398,18.557,22.398,19.031z M9.289,21.912c-0.412,0.238-0.555,0.766-0.316,1.176  c0.239,0.412,0.765,0.555,1.177,0.316c0.413-0.238,0.554-0.764,0.315-1.178C10.227,21.816,9.7,21.676,9.289,21.912z M21.854,14.657  c-0.41,0.238-0.551,0.764-0.312,1.176c0.237,0.413,0.765,0.555,1.174,0.315c0.412-0.236,0.556-0.762,0.315-1.176  C22.792,14.56,22.268,14.42,21.854,14.657z M12.806,24.566c-0.413-0.234-0.938-0.105-1.176,0.311  c-0.238,0.414-0.099,0.939,0.312,1.184c0.413,0.23,0.939,0.104,1.179-0.312C13.358,25.332,13.217,24.809,12.806,24.566z   M19.2,13.492c0.409,0.238,0.938,0.099,1.174-0.313c0.237-0.411,0.101-0.938-0.313-1.177c-0.414-0.238-0.938-0.097-1.178,0.315  C18.646,12.729,18.788,13.254,19.2,13.492z"/>
</svg>