<svg xmlns="http://www.w3.org/2000/svg" xmlns:xlink="http://www.w3.org/1999/xlink" version="1.1" id="Layer_1" x="0px" y="0px" width="32px" height="32px" viewBox="0 0 32 32" enable-background="new 0 0 32 32" xml:space="preserve">
<path id="glasses" d="M14.575,13.168c0,0-2.705-1.438-5.158-1.438s-4.862,0.593-4.862,0.593l-0.084,1.183c0,0,0.19,0.19,0.528,0.53  c0.338,0.336,0.485,3.742,1.838,5.095c1.353,1.354,4.82,1.396,5.963,0.676c1.14-0.718,2.241-3.466,2.241-4.693  c0-0.38,0-0.676,0-0.676c0.273-0.275,1.615-0.303,1.917,0c0,0,0,0.296,0,0.676c0,1.227,1.101,3.976,2.241,4.693  c1.144,0.72,4.611,0.679,5.963-0.676c1.355-1.353,1.501-4.758,1.839-5.095c0.338-0.34,0.528-0.53,0.528-0.53l-0.084-1.183  c0,0-2.408-0.593-4.862-0.593c-2.453,0-5.158,1.438-5.158,1.438C16.818,12.929,15.236,12.957,14.575,13.168z"/>
</svg>