<svg xmlns="http://www.w3.org/2000/svg" xmlns:xlink="http://www.w3.org/1999/xlink" version="1.1" id="Layer_1" x="0px" y="0px" width="32px" height="32px" viewBox="0 0 32 32" enable-background="new 0 0 32 32" xml:space="preserve">
<path id="trash_1_" d="M22.968,3.251l0.519,1.553c2.013,0.752,3.384,1.883,3.384,3.434c0,3.145-5.639,4.574-10.87,4.574  c-5.23,0-10.867-1.429-10.867-4.574c0-1.663,1.582-2.842,3.841-3.591l0.508-1.523C6.288,3.972,3.825,5.577,3.825,8.236v2.961  c0,1.6,0.896,2.817,2.3,3.719l0.518,12.115c0,1.806,4.282,3.269,9.561,3.269c5.281,0,9.562-1.463,9.562-3.269l0.53-12.414  c1.156-0.867,1.879-1.988,1.879-3.42V8.235C28.181,5.703,25.943,4.127,22.968,3.251z M10.241,27.28  c-0.622-0.374-1.336-1.105-1.525-1.617c-1.316-3.609-0.955-6.436-0.691-9.819c0.977,0.366,2.066,0.642,3.204,0.84  c-0.283,3.476-0.562,6.436,0.004,10.235C11.317,27.477,10.86,27.651,10.241,27.28z M18.251,27.545  c-0.024,0.58-0.904,1.119-1.983,1.119c-1.083,0-1.959-0.541-1.984-1.122c-0.165-3.918-0.042-6.959,0.089-10.512  c0.546,0.029,1.092,0.049,1.629,0.049c0.71,0,1.435-0.027,2.16-0.078C18.293,20.568,18.417,23.617,18.251,27.545z M23.818,25.666  c-0.188,0.519-0.898,1.241-1.524,1.614c-0.619,0.371-1.062,0.196-0.986-0.36c0.574-3.832,0.281-6.811-0.006-10.324  c1.153-0.227,2.233-0.545,3.19-0.956C24.756,19.115,25.16,21.983,23.818,25.666z M10.561,8.17c0.687,0.226,1.428-0.143,1.658-0.827  h-0.003l1.008-3.029h5.964l1.009,3.029c0.184,0.548,0.692,0.895,1.238,0.895c0.136,0,0.278-0.022,0.414-0.068  c0.681-0.229,1.058-0.97,0.827-1.653l-1.31-3.924c-0.192-0.533-0.683-0.894-1.233-0.894h-7.85c-0.559,0-1.061,0.36-1.239,0.894  L9.737,6.514C9.508,7.2,9.877,7.941,10.561,8.17z"/>
</svg>