<svg xmlns="http://www.w3.org/2000/svg" xmlns:xlink="http://www.w3.org/1999/xlink" version="1.1" id="Layer_1" x="0px" y="0px" width="32px" height="32px" viewBox="0 0 32 32" enable-background="new 0 0 32 32" xml:space="preserve">
<path id="video_1_" d="M27.688,5.375v1.094h-4.5V5.375H8.562v1.094h-4.5V5.375h-1v21.25h1v-1.094h4.5v1.094h14.625v-1.094h4.5v1.094  h1.25V5.375H27.688z M8.562,24.219h-4.5v-3.125h4.5V24.219z M8.562,19.781h-4.5v-3.125h4.5V19.781z M8.562,15.344h-4.5v-3.125h4.5  V15.344z M8.562,10.906h-4.5V7.781h4.5V10.906z M11.747,21.09V10.254l9.382,5.418L11.747,21.09z M27.688,24.219h-4.5v-3.125h4.5  V24.219z M27.688,19.781h-4.5v-3.125h4.5V19.781z M27.688,15.344h-4.5v-3.125h4.5V15.344z M27.688,10.906h-4.5V7.781h4.5V10.906z"/>
</svg>