<svg xmlns="http://www.w3.org/2000/svg" xmlns:xlink="http://www.w3.org/1999/xlink" version="1.1" id="Layer_1" x="0px" y="0px" width="100px" height="100px" viewBox="0 0 100 100" enable-background="new 0 0 100 100" xml:space="preserve">
<g>
	<path d="M44.212,43.993h2.281c-0.018,0.048-0.027,0.097-0.027,0.149c0,0.233,0.189,0.423,0.424,0.423   c0.233,0,0.423-0.189,0.423-0.423c0-0.053-0.01-0.102-0.027-0.149h0.249c0.269,0,0.269-0.402,0-0.402h-3.322   C43.942,43.591,43.942,43.993,44.212,43.993z M46.89,43.902c0.133,0,0.24,0.107,0.24,0.24c0,0.134-0.107,0.241-0.24,0.241   c-0.134,0-0.241-0.107-0.241-0.241C46.648,44.01,46.756,43.902,46.89,43.902z"/>
	<path d="M42.725,47.25c2.579-0.157,3.795-0.353,3.911-0.57l-3.977-0.031C42.702,46.833,42.725,47.028,42.725,47.25z"/>
	<path d="M43.631,49.84c-0.022,0.191-0.081,0.359-0.169,0.506l5.57-0.026l-0.038-0.506L43.631,49.84z"/>
	<path d="M32.621,49.892l-5.506,0.027l0.032,0.503l5.677-0.025C32.721,50.242,32.651,50.075,32.621,49.892z"/>
	<path d="M33.922,43.506c0.295,0.05,0.549,0.085,0.786,0.104l0.617,0.003c0.336-0.028,0.686-0.107,1.132-0.262   c0.599-0.21,1.014-0.328,1.664-0.328c1.604,0,2.008,0.836,4.025,0.511l0.174-0.027l0.072,0.128l1.445,0.004   c0.053-0.136,0.178-0.249,0.374-0.249h3.322c0.198,0,0.325,0.117,0.376,0.256l0.847,0.001c-0.022-0.289-0.061-0.544-0.126-0.759   c-6.093-0.008-12.326-0.016-18.099-0.06c-1.088-0.009-2.162-0.012-3.222-0.009c-0.061,0.213-0.113,0.462-0.158,0.753   c1.106,0.002,2.232,0.005,3.375,0.013L33.922,43.506z"/>
	<path d="M60.303,35.062c-0.287-0.304-0.841-0.469-1.228-0.505c-0.456-0.042-5.508-0.203-10.015-0.345l-0.125-0.005l-0.26,6.067   h0.133c6.737-0.021,12.746-0.057,12.746-0.057c0.699,0.011,2.438-0.108,3.036-0.422c0-0.075,0.002-0.107-0.04-0.195   C63.027,37.98,60.303,35.062,60.303,35.062z M48.987,38.899l0.189-4.432c4.469,0.142,9.425,0.3,9.875,0.341   c0.356,0.032,0.756,0.156,1.066,0.426l2.802,2.995C60.189,38.164,56.28,38.387,48.987,38.899z"/>
	<path d="M33.665,40.155c0.003-0.087,0.014-0.218,0.036-0.361l-0.462,0.049l4.137-4.626l-0.151,4.257   c-0.816,0.064-1.607,0.133-2.368,0.204c0.046,0.239,0.061,0.473,0.061,0.601l2.41,0.009h0.121l0.206-5.759l-5.127,5.732   l0.278,0.003l0.704,0.005L33.665,40.155z"/>
	<path d="M37.73,40.289c2.986,0.004,6.431,0,9.819-0.011l0.286-6.121c-3.194-0.098-6.392-0.138-9.584-0.298l-0.447,0.501   L37.6,40.287L37.73,40.289z M38.054,34.46l0.306-0.342c3.065,0.152,6.146,0.191,9.213,0.284l-0.213,4.546   c-3.41,0.1-6.602,0.262-9.478,0.475L38.054,34.46z"/>
	<path d="M31.145,39.982l2.607-2.83c0.944-1.028,2.295-2.499,3.04-3.324l-0.709-0.069c-0.435-0.057-0.77-0.11-1.022-0.155   l-7.54,5.816c0.63,0.21,1.235,0.38,1.378,0.403C30.206,40.051,30.898,40.013,31.145,39.982z"/>
	<path d="M39.932,31.023c0.404,0,0.731-0.327,0.731-0.732c0-0.404-0.327-0.73-0.731-0.73s-0.731,0.326-0.731,0.73   C39.2,30.696,39.527,31.023,39.932,31.023z M39.812,30.076c0.118,0,0.215,0.097,0.215,0.215s-0.097,0.215-0.215,0.215   c-0.119,0-0.215-0.097-0.215-0.215S39.692,30.076,39.812,30.076z"/>
	<circle cx="64.956" cy="44.143" r="0.241"/>
	<path d="M41.797,48.637c-0.098,0.149-0.211,0.291-0.341,0.424c-0.515,0.533-1.188,0.826-1.93,0.826   c-0.812,0-1.309-0.376-1.309-0.855c0-0.37,0.304-0.65,0.771-0.65c0.37,0,0.586,0.185,0.586,0.465c0,0.18-0.078,0.336-0.21,0.455   c-0.089,0.078-0.179,0.113-0.179,0.228c0,0.124,0.132,0.239,0.329,0.239c0.483,0,0.759-0.652,0.998-1.991   c-0.222,0.274-0.538,0.426-0.938,0.426c-0.724,0-1.267-0.509-1.267-1.172c0-0.293,0.107-0.585,0.311-0.844   c0.37-0.465,1.01-0.757,1.727-0.757c0.513,0,0.947,0.147,1.27,0.41c0.134-0.4,0.342-0.758,0.608-1.036l-0.286-0.51   c-0.863,0.113-1.559,0.025-2.389-0.264c-0.521-0.18-0.861-0.283-1.427-0.283s-0.905,0.104-1.428,0.283   c-0.823,0.288-1.53,0.377-2.388,0.264l-0.287,0.51c0.357,0.371,0.61,0.88,0.722,1.45c0.514-0.532,1.189-0.824,1.931-0.824   c0.812,0,1.313,0.376,1.313,0.853c0,0.371-0.311,0.652-0.776,0.652c-0.371,0-0.58-0.186-0.58-0.466c0-0.18,0.072-0.335,0.203-0.454   c0.09-0.078,0.186-0.114,0.186-0.228c0-0.125-0.138-0.239-0.334-0.239c-0.484,0-0.76,0.65-0.998,1.99   c0.221-0.276,0.543-0.424,0.943-0.424c0.724,0,1.262,0.515,1.262,1.172c0,0.292-0.108,0.586-0.323,0.848   c-0.371,0.46-1.004,0.746-1.715,0.746c-0.775,0-1.373-0.338-1.674-0.894c-0.2,0.193-0.46,0.325-0.799,0.362   c-0.032,0.079-0.052,0.172-0.056,0.274c-0.012,0.338,0.203,0.773,1.682,1.137c1.062,0.261,2.257,0.43,3.112,1.176   c0.842-0.742,2.073-0.92,3.12-1.176c0.47-0.114,2.014-0.479,1.625-1.411C42.348,49.293,42.013,49.014,41.797,48.637z    M37.649,45.448l0.184-0.565l-0.48-0.35h0.595l0.184-0.565l0.184,0.565h0.595l-0.481,0.35l0.184,0.565l-0.48-0.351L37.649,45.448z"/>
	<path d="M32.976,41.644c-0.333-0.002-0.503-0.004-0.584-0.013l1.406-1.104c0.044,0.592,0.248,1.04,0.492,1.04   c0.276,0,0.501-0.576,0.501-1.287c0-0.71-0.225-1.285-0.501-1.285c-0.27,0-0.488,0.543-0.501,1.227l-2.383,1.747h2.605   C34.012,41.969,33.889,41.655,32.976,41.644z"/>
	<path d="M14.545,50.781c-1.236,0-2.238,1.002-2.238,2.24c0,0.028,0.001,0.056,0.002,0.088c0.047,1.195,1.029,2.148,2.236,2.148   c1.208,0,2.192-0.955,2.237-2.148v-0.002c0.001-0.03,0.001-0.058,0.001-0.086C16.783,51.783,15.781,50.781,14.545,50.781z    M15.374,52.837c0.013,0.059,0.02,0.12,0.02,0.183c0,0.029-0.001,0.056-0.004,0.088c-0.043,0.428-0.405,0.761-0.845,0.761   s-0.802-0.333-0.845-0.759v-0.002c-0.003-0.03-0.004-0.058-0.004-0.088c0-0.059,0.006-0.117,0.018-0.171   c-0.451-0.178-0.752-0.492-0.752-0.853c0-0.55,0.703-0.996,1.569-0.996c0.867,0,1.57,0.446,1.57,0.996   C16.102,52.352,15.812,52.659,15.374,52.837z"/>
	<path d="M71.69,52.172c-0.408,0-0.751,0.291-0.831,0.677c0.238,0.092,0.52,0.144,0.817,0.144c0.311,0,0.6-0.057,0.843-0.155   C72.436,52.458,72.097,52.172,71.69,52.172z"/>
	<path d="M40.1,46.229c-0.179,0.782-0.233,1.256-0.233,1.374c0,0.215,0.066,0.317,0.216,0.317c0.173,0,0.329-0.138,0.454-0.42   c0.054-0.119,0.102-0.322,0.161-0.602c0.132-0.598,0.155-0.944,0.155-1.011c0-0.21-0.102-0.316-0.293-0.316   C40.303,45.572,40.201,45.782,40.1,46.229z"/>
	<path d="M36.097,49.085c0.179-0.781,0.238-1.255,0.238-1.373c0-0.215-0.071-0.321-0.22-0.321c-0.174,0-0.329,0.142-0.455,0.422   c-0.054,0.119-0.096,0.323-0.155,0.604c-0.131,0.598-0.161,0.945-0.161,1.01c0,0.209,0.102,0.316,0.293,0.316   C35.894,49.742,35.995,49.534,36.097,49.085z"/>
	<path d="M42.206,48.41c0.171-0.362,0.266-0.76,0.266-1.177c0-0.499-0.146-0.932-0.404-1.271c0.158-0.459,0.427-0.831,0.755-1.055   l-0.636-1.126c-0.315,0.053-0.594,0.086-0.8,0.091c-1.566,0.037-1.836-0.598-3.266-0.598s-1.699,0.635-3.266,0.598   c-0.205-0.005-0.484-0.038-0.8-0.091l-0.635,1.126c0.429,0.292,0.753,0.839,0.868,1.502c-0.353,0.473-0.565,1.051-0.565,1.671   c0,0.216,0.027,0.418,0.079,0.606c-0.172,0.141-0.396,0.218-0.683,0.198c-0.171,0.199-0.257,0.449-0.267,0.722   c-0.024,0.722,0.557,1.243,2.04,1.607c1.476,0.365,2.51,0.505,3.237,1.381c0.708-0.876,1.742-1.016,3.219-1.381   c1.483-0.364,2.063-0.886,2.038-1.607c-0.009-0.272-0.095-0.522-0.265-0.722C42.681,48.915,42.392,48.72,42.206,48.41z    M41.28,50.937c-1.113,0.273-2.288,0.431-3.162,1.243c-0.891-0.817-2.025-0.965-3.156-1.243c-1.482-0.365-1.837-0.834-1.82-1.319   c0.006-0.168,0.044-0.292,0.12-0.439c0.364-0.029,0.635-0.166,0.833-0.372c-0.086-0.216-0.132-0.459-0.132-0.725   c0-0.58,0.215-1.162,0.622-1.653c-0.091-0.6-0.345-1.156-0.793-1.592l0.416-0.737c0.916,0.124,1.523,0.076,2.427-0.238   c0.541-0.188,0.898-0.296,1.486-0.296c0.587,0,0.945,0.108,1.486,0.296c0.903,0.314,1.511,0.362,2.427,0.238l0.415,0.737   c-0.332,0.323-0.558,0.714-0.688,1.138c0.302,0.313,0.472,0.748,0.472,1.26c0,0.419-0.111,0.84-0.328,1.226   c0.2,0.391,0.532,0.677,1.077,0.719C43.557,50.3,42.048,50.749,41.28,50.937z"/>
	<path d="M14.545,52.172c-0.408,0-0.75,0.291-0.831,0.677c0.238,0.092,0.519,0.144,0.817,0.144c0.311,0,0.6-0.057,0.843-0.155   C15.29,52.458,14.95,52.172,14.545,52.172z"/>
	<path d="M14.545,50.168c-1.576,0-2.853,1.276-2.853,2.852c0,0.03,0,0.062,0.002,0.09v0.004c0.049,1.532,1.307,2.76,2.851,2.76   c1.543,0,2.8-1.226,2.851-2.76h0.001c0.001-0.031,0.001-0.063,0.001-0.094C17.397,51.444,16.12,50.168,14.545,50.168z    M17.164,53.107c-0.045,1.406-1.2,2.534-2.619,2.534s-2.574-1.128-2.619-2.532v-0.002c-0.001-0.03-0.001-0.058-0.001-0.088   c0-1.447,1.173-2.621,2.62-2.621s2.621,1.174,2.621,2.621C17.166,53.049,17.165,53.075,17.164,53.107z"/>
	<path d="M14.545,49.276c-2.067,0-3.743,1.677-3.743,3.745c0,0.028,0.001,0.061,0.001,0.088v0.002   c0.049,2.025,1.706,3.653,3.742,3.653c2.035,0,3.691-1.626,3.741-3.653h0.001c0.001-0.029,0.001-0.062,0.001-0.09   C18.288,50.953,16.612,49.276,14.545,49.276z M18.116,53.107c-0.047,1.933-1.628,3.483-3.571,3.483s-3.524-1.551-3.57-3.481v-0.002   c-0.001-0.028-0.001-0.058-0.001-0.086c0-1.974,1.599-3.572,3.571-3.572s3.572,1.599,3.572,3.572   C18.117,53.049,18.116,53.079,18.116,53.107z"/>
	<path d="M99.986,47.896l-0.439-0.004c-0.021-0.866,0.039-2.206-1.2-3.91c-1.837-2.523-24.183-4.015-24.183-4.015l-9.58-6.822   c0,0-2.557-0.962-13.47-1.118c-4.059-0.059-7.045-0.009-9.241,0.096v-0.137c0.087-0.008,0.154-0.081,0.154-0.169v-0.367   c0-0.075-0.046-0.138-0.112-0.162l-0.178-2.027c-0.003-0.393-0.322-0.71-0.716-0.71h-2.135c-0.392,0-0.709,0.313-0.715,0.704   l-0.175,2.023c-0.095,0-0.173,0.077-0.173,0.172v0.367c0,0.093,0.078,0.169,0.231,0.169v0.282c0,0.06,0.018,0.114,0.049,0.16   c-2.201,0.291-2.332,0.626-2.332,0.626l-0.277,0.213l0.632,0.09c0.482,0.044,0.988,0.106,1.502,0.137   c-0.243,0.3-2.289,2.524-3.579,3.932l-2.703,2.935c0,0-0.711,0.176-2.518-0.138c-0.192-0.033-0.97-0.253-1.7-0.501   c0,0-7.565,0.206-14.464,0.883c-4.916,0.48-8.359,1.233-9.858,1.815c-1.964,0.765-1.795,1.269-1.795,1.269l0.838,0.855   c-0.727,0.174-1.237,0.647-1.237,1.662c0,1.214,0.794,1.652,1.81,1.704v0.799l-0.136,0.005c0,0-2.665,0.271-2.056,1.291   c0.691,1.154-0.233,2.858,3.737,3.075c1.847,0.101,2.229,0.099,2.386-0.472c0.797,0.113,1.244,0.097,1.244,0.097   s-0.651-4.302,4.163-4.895c-1.858,0.996-3.123,2.956-3.123,5.212c0,0.028,0.001,0.056,0.001,0.088   c0.048,3.222,2.674,5.817,5.906,5.817c3.234,0,5.861-2.599,5.906-5.817v-0.005c0.001-0.029,0.001-0.055,0.001-0.083   c0-1.277-0.405-2.46-1.094-3.426c1.745,1.08,3.038,2.438,3.891,3.514v0.004c0.835,1.057,1.247,1.846,1.247,1.846l39.444,0.227   c0,0-0.046-1.016,0.572-2.076v-0.002c0.297-0.513,0.749-1.034,1.431-1.46c-0.104,0.44-0.159,0.9-0.159,1.374   c0,0.028,0,0.056,0,0.088c0.048,3.222,2.673,5.817,5.906,5.817c3.235,0,5.86-2.599,5.907-5.817v-0.005c0-0.029,0-0.055,0-0.083   c0-0.397-0.04-0.783-0.114-1.157c1.337,0.43,2.261,0.896,2.839,1.245h0.005c0.524,0.312,0.761,0.528,0.761,0.528   s0.387,0.354,1.231,0.321c0.404-0.015,5.127-0.476,8.949-0.85v-0.002c2.653-0.263,4.871-0.485,4.91-0.491   c-0.02,0.215,0.344,0.157,1.079-0.44c0.803-0.653,1.854-1.774,2.328-2.762C99.944,48.663,100.038,48.188,99.986,47.896z    M38.457,29.271c0-0.237,0.193-0.437,0.43-0.437h2.135c0.237,0,0.43,0.199,0.43,0.437l0.177,2.006h-0.481l-0.131-1.592   c0-0.203-0.154-0.374-0.344-0.374h-0.375c0.356,0.179,0.601,0.549,0.601,0.976c0,0.438-0.258,0.815-0.628,0.99h-0.927   c-0.372-0.175-0.63-0.552-0.63-0.99c0-0.427,0.245-0.797,0.602-0.976h-0.354c-0.189,0-0.343,0.171-0.343,0.374l-0.132,1.592h-0.205   L38.457,29.271z M36.137,33.16c0.068-0.075,0.106-0.113,0.446-0.216c1.175-0.325,4.598-0.809,14.528-0.667   c10.198,0.147,13.053,0.994,13.354,1.095l1.28,1.016c0,0-0.19,0.142,0.046,0.326c0.266,0.203,7.183,5.394,7.183,5.394   s0.326,0.252,0.556-0.056l0.104-0.151l0.515,0.317c0.006,0,8.655,0.58,15.616,1.621c1.339,0.189,2.955,0.442,3.885,0.637   c-2.071-0.221-4.996-0.494-7.732-0.675c-3.612-0.238-19.828-0.812-19.828-0.812s-0.055-0.127-0.324-0.651   c-0.271-0.522-0.683-0.982-0.81-1.118c-1.522-1.619-4.244-4.535-4.244-4.535s-0.518-0.584-1.587-0.681   c-0.826-0.075-16.215-0.551-17.524-0.582C39.935,33.381,37.882,33.317,36.137,33.16z M64.746,40.117   c-0.818,0.41-2.982,0.432-3.193,0.429c-0.16,0.002-6.27,0.038-13.034,0.059h-0.186l0.288-6.737l0.176,0.007   c4.582,0.144,9.842,0.313,10.307,0.356c0.496,0.046,0.86,0.203,1.098,0.346c0.119,0.07,0.247,0.158,0.342,0.26   c0,0,2.725,2.92,4.247,4.54C65.109,39.716,65.09,39.945,64.746,40.117z M2.17,47.634c-0.793-0.104-1.305-0.502-1.305-1.429   c0-0.12,0.008-0.229,0.022-0.33C1.3,45.9,1.728,45.923,2.17,45.938V47.634z M6.103,52.567c-0.042,0.135-0.088,0.187-0.159,0.222   c-0.226,0.113-0.711,0.106-1.962,0.038c-0.514-0.028-0.938-0.08-1.288-0.153c1.061-0.072,2.211-0.123,3.421-0.146L6.103,52.567z    M5.767,50.116c-0.503,0.15-3.053-0.029-4.523-0.128c-1.47-0.097-0.815-0.57-0.263-0.84c0.29-0.14,0.92-0.246,1.441-0.314v0.201   L2.1,49.067c-0.374,0.036-0.466,0.254-0.421,0.254s3.721,0.172,4.366,0.232C6.691,49.613,6.271,49.966,5.767,50.116z    M18.434,53.109v0.006c-0.05,2.104-1.771,3.795-3.889,3.795s-3.84-1.69-3.889-3.801c-0.001-0.03-0.001-0.06-0.001-0.088   c0-2.149,1.741-3.892,3.89-3.892s3.891,1.742,3.891,3.892C18.436,53.052,18.435,53.083,18.434,53.109z M75.579,53.109v0.006   c-0.05,2.104-1.772,3.795-3.889,3.795c-2.117,0-3.839-1.69-3.891-3.801c0-0.03,0-0.06,0-0.088c0-0.829,0.259-1.596,0.698-2.225   l0.199-0.025c-0.471,0.626-0.749,1.404-0.749,2.25c0,0.028,0,0.061,0,0.088v0.002c0.049,2.025,1.706,3.653,3.742,3.653   s3.69-1.626,3.742-3.653c0-0.029,0-0.062,0-0.09c0-0.649-0.165-1.26-0.454-1.793l0.185,0.036c0.268,0.528,0.417,1.124,0.417,1.757   C75.58,53.052,75.58,53.083,75.579,53.109z M72.538,53.02c0,0.029-0.001,0.056-0.003,0.088c-0.042,0.428-0.405,0.761-0.845,0.761   c-0.44,0-0.801-0.333-0.845-0.759v-0.002c-0.002-0.03-0.004-0.058-0.004-0.088c0-0.059,0.005-0.117,0.018-0.171   c-0.451-0.178-0.753-0.492-0.753-0.853c0-0.55,0.704-0.996,1.57-0.996s1.569,0.446,1.569,0.996c0,0.355-0.289,0.663-0.727,0.841   C72.532,52.896,72.538,52.957,72.538,53.02z M69.451,53.021c0,0.028,0.002,0.056,0.002,0.088h0.001   c0.047,1.195,1.028,2.148,2.236,2.148c1.207,0,2.191-0.955,2.236-2.148v-0.002c0.001-0.03,0.002-0.058,0.002-0.086   c0-1.072-0.753-1.97-1.759-2.188c0.395,0.036,0.774,0.079,1.14,0.126c0.61,0.48,1.001,1.224,1.001,2.06   c0,0.029,0,0.056-0.002,0.088c-0.044,1.406-1.2,2.534-2.618,2.534c-1.419,0-2.574-1.128-2.62-2.532v-0.002c0-0.03,0-0.058,0-0.088   c0-0.992,0.554-1.857,1.485-2.299c0.354,0.019,0.698,0.038,1.03,0.063C70.398,50.839,69.451,51.818,69.451,53.021z M68.838,53.02   c0,0.03,0,0.062,0.002,0.09v0.004c0.049,1.532,1.306,2.76,2.851,2.76c1.542,0,2.799-1.226,2.852-2.76   c0.001-0.031,0.002-0.063,0.002-0.094c0-0.779-0.315-1.486-0.822-2.004c0.36,0.054,0.704,0.11,1.035,0.172   c0.32,0.534,0.506,1.164,0.506,1.834c0,0.027,0,0.058-0.002,0.086c-0.047,1.933-1.628,3.483-3.57,3.483   c-1.944,0-3.524-1.551-3.57-3.481v-0.002c0-0.028-0.003-0.058-0.003-0.086c0-0.864,0.308-1.654,0.817-2.272   c0.337-0.031,0.7-0.045,1.085-0.043C69.305,51.225,68.838,52.067,68.838,53.02z M74.468,50.197   c3.655,0.736,5.521,2.083,6.176,2.644c-1.02-0.688-4.058-2.334-10.129-2.612l-0.52-0.016l-0.15,0.008h-0.433   c-3.283,0.128-4.637,1.576-5.166,2.794c0.231-0.904,0.858-2.105,2.524-2.78l-17.738,0.085c0.07,0.888,0.158,1.845,0.273,2.79v0.004   c0.058,0.476,0.123,0.948,0.195,1.41l-21.977-0.126c-0.051-0.413-0.1-0.844-0.146-1.288c-0.089-0.856-0.169-1.762-0.23-2.688   l-5.168,0.026c1.065,0.942,1.867,1.913,2.406,2.661h0.004c0.555,0.765,0.831,1.29,0.831,1.29h-0.527c0,0-0.276-0.526-0.836-1.29   c-1.478-2.021-4.935-5.705-10.529-5.781c-1.589-0.019-3.28,0.332-4.089,0.808c0.82-0.596,2.661-1.036,4.481-1.012   c3.243,0.043,5.791,1.335,7.656,2.818l5.738-0.023c-0.048-0.785-0.082-1.584-0.1-2.369c2.264-0.012,4.476-0.027,6.514-0.051   c0.065-0.329,0.186-0.638,0.348-0.922L2.422,46.329v-1.2c2.843-0.021,14.727-0.099,24.6,0.013c0.02-0.628,0.065-1.145,0.131-1.57   c-14.474-0.005-25.526,0.613-25.526,0.613l-0.445-0.424c0,0,11.504-0.914,26.13-0.942c0.346-1.214,0.914-1.291,1.299-1.494   c0.297-0.158,0.435-0.426,0.498-0.641c0.295,0.047,0.625,0.078,0.992,0.09c0.607,0.021,1.521,0.034,2.66,0.046l0.307-0.226   l-1.266-0.013l6.312-7.057c3.29,0.169,6.596,0.207,9.889,0.31l0.179,0.006l-0.316,6.769h-0.168c-4.252,0.011-8.534,0.025-12.798,0   l-0.032,0.225c3.652,0.019,8.585,0.014,13.217,0c0.032,0.177,0.221,1.155,0.549,2.054c10.917,0.016,21.387,0.027,27.967,0.215   c10.256,0.29,18.437,0.838,19.863,0.917c1.526,0.083,2.023,1.308,2.649,3.213h-0.346c-0.333-0.863-1.205-2.394-2.346-2.457   c-1.425-0.079-9.597-0.625-19.843-0.916c-2.879-0.081-6.504-0.13-10.583-0.159c-0.036-0.16-0.167-0.311-0.393-0.311h-3.322   c-0.215,0-0.344,0.135-0.388,0.287c-4.134-0.019-8.594-0.023-13.134-0.03c0.058,0.747,0.009,1.725,0.036,2.829l48.046,0.181   c0,0,0.55-0.027,0.557,0.206c0.006,0.192-0.563,0.174-0.563,0.174l-48.021-0.058l0.02,0.348c0.042,0.648,0.093,1.516,0.164,2.488   l20.668-0.098l0.321-0.002l26.452-0.126c1.224-0.182,1.745-0.856,2.365-1.829l0.383-0.012c-0.127,0.28-1.073,2.209-2.714,2.346   L74.468,50.197z M65.379,44.143c0,0.233-0.188,0.423-0.423,0.423s-0.423-0.189-0.423-0.423c0-0.053,0.01-0.102,0.027-0.149h-2.282   c-0.269,0-0.269-0.402,0-0.402h3.322c0.269,0,0.269,0.402,0,0.402h-0.249C65.37,44.041,65.379,44.09,65.379,44.143z M96.422,52.286   c0.099-0.387,0.215-1.189,0.239-1.42c0.007-0.069,0.037-0.099,0.091-0.131c0.1-0.008,0.649-0.072,1.364-0.616   c0.83-0.634,1.316-1.746,1.447-2.076l0.203,0.004C99.732,48.246,99.012,50.754,96.422,52.286z"/>
</g>
</svg>