<svg xmlns="http://www.w3.org/2000/svg" xmlns:xlink="http://www.w3.org/1999/xlink" version="1.1" id="Layer_1" x="0px" y="0px" width="99.999px" height="100px" viewBox="0 0 99.999 100" enable-background="new 0 0 99.999 100" xml:space="preserve">
<path d="M91.191,8.749c-11.746-11.665-30.787-11.665-42.532,0c-9.604,9.537-11.35,23.919-5.245,35.225L26.079,61.189  c0,0-3.064,4.035-4.6,4.567c-1.832,0.636-6.506-0.733-7.721,0.769c-1.186,1.465,0.727,6.149-0.597,7.492  c-1.356,1.375-6.263-0.502-7.721,0.769c-1.532,1.335-0.218,6.206-1.126,8.018C3.635,84.16,0,87.088,0,87.088l1.969,10.234  L11.613,100l44.108-43.803c11.383,6.061,25.864,4.328,35.469-5.211C102.936,39.322,102.936,20.412,91.191,8.749z M74.893,24.934  c-2.85-2.831-2.85-7.419,0-10.25c2.851-2.831,7.471-2.831,10.321,0s2.851,7.419,0,10.25C82.363,27.764,77.743,27.764,74.893,24.934z  "/>
<path fill="#000000" d="M49.176,51.297L6.858,93.323c-0.949,0.942,4.553,2.31,5.504,1.366l40.591-40.313  C51.631,53.465,50.368,52.443,49.176,51.297z"/>
</svg>