<svg xmlns="http://www.w3.org/2000/svg" xmlns:xlink="http://www.w3.org/1999/xlink" version="1.1" id="Layer_1" x="0px" y="0px" width="100px" height="100px" viewBox="0 0 100 100" enable-background="new 0 0 100 100" xml:space="preserve">
<path d="M30.923,7.952c17.592,13.723,16.728,26.5,5.733,49.673c-2.6-3.144-16.193-15.334-10.434-32.496  C30.97,10.982,30.923,7.952,30.923,7.952z"/>
<path d="M39.983,60.619c0,0,27.776-16.885,51.777,3.274c0,0-23.861,12.148-36.348,3.979C42.928,59.7,39.983,60.619,39.983,60.619z"/>
<path d="M45.435,49.984c-2.528,3.677-16.5,18.565-37.263,37.975l1.121,4.01c0,0,24.2-28.532,37.117-40.066l-0.007-0.026  c1.787-0.164,5.492-0.504,13.193-1.212c18.1-1.662,20.21-17.711,26.045-29.101C54.688,20.708,52.767,28.403,45.435,49.984z"/>
</svg>