<?xml version="1.0" encoding="utf-8"?>
<!-- Generator: Adobe Illustrator 15.1.0, SVG Export Plug-In . SVG Version: 6.00 Build 0)  -->
<!DOCTYPE svg PUBLIC "-//W3C//DTD SVG 1.1//EN" "http://www.w3.org/Graphics/SVG/1.1/DTD/svg11.dtd">
<svg version="1.1" id="Layer_1" xmlns="http://www.w3.org/2000/svg" xmlns:xlink="http://www.w3.org/1999/xlink" x="0px" y="0px"
	 width="82px" height="100px" viewBox="0 0 82 100" enable-background="new 0 0 82 100" xml:space="preserve">
<path d="M43.999,6.27V0h-6v6.27C29.489,7.701,23,15.083,23,24h36C59,15.083,52.51,7.7,43.999,6.27z"/>
<path d="M5.523,44H0v6h5.523c1.236,3.493,4.56,6,8.477,6V38C10.083,38,6.76,40.507,5.523,44z"/>
<path d="M82,44h-5.523c-1.236-3.493-4.56-6-8.477-6v18c3.917,0,7.24-2.507,8.477-6H82V44z"/>
<path d="M41,40c-3.859,0-7,3.141-7,7s3.141,7,7,7s7-3.141,7-7S44.859,40,41,40z"/>
<path d="M59,38V28H23v10h-5v18h5v44h36V56h5V38H59z M41,58c-6.065,0-11-4.935-11-11s4.935-11,11-11s11,4.935,11,11S47.065,58,41,58z
	"/>
</svg>
