<svg xmlns="http://www.w3.org/2000/svg" xmlns:xlink="http://www.w3.org/1999/xlink" version="1.1" id="Layer_1" x="0px" y="0px" width="100px" height="100px" viewBox="0 0 100 100" enable-background="new 0 0 100 100" xml:space="preserve">
<path d="M71.572,8.681c-9.434,18.44-2.953,5.056-31.36,35.339c-17.038,18.163-10.77,33.007-6.875,39.164  c-1.17,1.175-6.203,6.046-9.3,6.281l-1.622,1.307c0,0-0.325,0.654,1.938,0.469c4.417-0.362,8.56-4.841,10.43-7.009  C78.452,62.141,52.948,60.925,71.572,8.681z M57.168,39.308l0.335-0.607C57.615,38.539,57.518,38.793,57.168,39.308z M53.917,44.843  l-18.54,36.103C36.608,74.753,48.303,54.342,53.917,44.843z"/>
</svg>