<svg xmlns="http://www.w3.org/2000/svg" xmlns:xlink="http://www.w3.org/1999/xlink" version="1.1" id="Layer_1" x="0px" y="0px" width="100px" height="60.5px" viewBox="0 0 100 60.5" enable-background="new 0 0 100 60.5" xml:space="preserve">
<rect x="12.84" y="10.878" fill="#000000" width="6.559" height="38.243"/>
<path fill="#000000" d="M89.855,57.135H10.144c-3.127,0-5.67-2.543-5.67-5.67V8.535c0-3.125,2.543-5.669,5.67-5.669h79.713  c3.127,0,5.67,2.544,5.67,5.669v42.93C95.525,54.592,92.982,57.135,89.855,57.135z M10.144,6.201c-1.288,0-2.335,1.047-2.335,2.334  v42.93c0,1.287,1.047,2.334,2.335,2.334h79.713c1.287,0,2.336-1.047,2.336-2.334V8.535c0-1.287-1.049-2.334-2.336-2.334H10.144z"/>
<rect x="26.293" y="10.878" fill="#000000" width="3.223" height="38.243"/>
<rect x="22.67" y="10.878" fill="#000000" width="1.418" height="38.243"/>
<rect x="33.521" y="10.878" fill="#000000" width="7.669" height="38.243"/>
<rect x="44.414" y="10.878" fill="#000000" width="3.336" height="38.243"/>
<rect x="65.48" y="10.878" fill="#000000" width="7.672" height="38.243"/>
<rect x="58.923" y="10.878" fill="#000000" width="3.335" height="38.243"/>
<rect x="52.029" y="10.878" fill="#000000" width="3.334" height="38.243"/>
<rect x="83.157" y="10.878" fill="#000000" width="3.335" height="38.243"/>
<rect x="76.268" y="10.878" fill="#000000" width="3.332" height="38.243"/>
</svg>