<svg xmlns="http://www.w3.org/2000/svg" xmlns:xlink="http://www.w3.org/1999/xlink" version="1.1" id="Layer_1" x="0px" y="0px" width="100px" height="100px" viewBox="0 0 100 100" enable-background="new 0 0 100 100" xml:space="preserve">
<polygon fill="#000000" points="75.509,7.883 75.509,33.886 95.191,18.394 "/>
<polygon fill="#000000" points="52.221,7.883 52.221,33.311 52.221,34.279 73.686,34.279 73.686,7.883 66.846,15.985 "/>
<polygon fill="#000000" points="27.088,34.279 27.088,7.883 4.808,34.279 "/>
<polygon fill="#000000" points="29.288,7.883 29.288,34.279 29.288,34.279 29.288,34.279 50.021,34.279 50.021,7.883 43.416,15.71   "/>
<path fill="#000000" d="M75.509,36.216v55.724l19.685-15.491V20.724L75.509,36.216z M85.025,67.427l-4.338,3.291v-6.889l4.338-3.292  V67.427z M85.025,58.875l-4.338,3.291v-7.294l4.338-3.292V58.875z M90.465,63.297l-4.335,3.292v-6.89l4.335-3.291V63.297z   M90.465,54.745l-4.335,3.292v-7.295l4.335-3.291V54.745z"/>
<path fill="#000000" d="M5,36v56h34.944L65,71.96V92h8V36H5z M21,72h-7v-7h7V72z M21,63h-7v-7h7V63z M29,72h-6v-7h6V72z M29,63h-6  v-7h6V63z M40,89.854V56h25v13.666L40,89.854z"/>
</svg>