<svg xmlns="http://www.w3.org/2000/svg" xmlns:xlink="http://www.w3.org/1999/xlink" version="1.1" id="Layer_1" x="0px" y="0px" width="100px" height="100px" viewBox="0 0 100 100" enable-background="new 0 0 100 100" xml:space="preserve">
<g>
	<g>
		<g>
			<path fill="#000000" d="M80.544,28.646H20.593c-8.269,0-15.029,6.763-15.029,15.03v2.517c0,4.044,1.625,7.723,4.247,10.432     h12.391c1.702-1.402,3.853-2.279,6.232-2.279c2.378,0,4.528,0.877,6.233,2.279h6.102c1.705-1.402,3.855-2.279,6.235-2.279     c2.377,0,4.528,0.877,6.233,2.279h38.086c2.621-2.709,4.249-6.387,4.249-10.432v-2.517     C95.572,35.409,88.808,28.646,80.544,28.646z M10.958,48.461C9.957,47.76,6.217,31.299,25.315,31.299     C25.315,31.299,12.062,34.104,10.958,48.461z"/>
			<g>
				<g>
					<path fill="#000000" d="M36.482,58.539l0.001,0.002c0.2,0.283,0.365,0.588,0.53,0.894c0.074,0.136,0.153,0.272,0.223,0.411       c0.183,0.384,0.351,0.778,0.491,1.185v0.001c0.301-0.891,0.692-1.736,1.227-2.492H36.482z"/>
					<path fill="#000000" d="M19.624,59.858c0.062-0.12,0.128-0.236,0.196-0.354c0.172-0.331,0.351-0.659,0.565-0.965h-8.323       c2.043,1.42,4.459,2.309,7.057,2.568C19.264,60.677,19.433,60.263,19.624,59.858z"/>
				</g>
				<path fill="#000000" d="M55.054,58.539c0.57,0.811,0.992,1.719,1.301,2.684h24.189c3.163,0,6.101-0.996,8.531-2.684H55.054z"/>
			</g>
		</g>
		<rect x="82.357" y="58.539" fill="#000000" width="9.243" height="2.444"/>
		<polygon fill="#000000" points="84.129,70.864 82.804,60.661 81.49,60.832 80.178,60.661 78.854,70.864 80.703,70.864     81.49,64.785 82.278,70.864   "/>
		<path fill="#000000" d="M47.004,56.261c-4.39,0-7.949,3.559-7.949,7.947s3.559,7.946,7.949,7.946c4.387,0,7.944-3.558,7.944-7.946    S51.392,56.261,47.004,56.261z M47.004,67.54c-1.844,0-3.335-1.491-3.335-3.332s1.491-3.332,3.335-3.332    c1.837,0,3.333,1.491,3.333,3.332S48.842,67.54,47.004,67.54z"/>
		<path fill="#000000" d="M28.435,56.261c-4.39,0-7.946,3.559-7.946,7.947s3.557,7.946,7.946,7.946c4.39,0,7.947-3.558,7.947-7.946    S32.825,56.261,28.435,56.261z M28.435,67.54c-1.841,0-3.334-1.491-3.334-3.332s1.494-3.332,3.334-3.332    c1.84,0,3.333,1.491,3.333,3.332S30.275,67.54,28.435,67.54z"/>
	</g>
</g>
</svg>