<svg xmlns="http://www.w3.org/2000/svg" xmlns:xlink="http://www.w3.org/1999/xlink" version="1.1" id="Calque_1" x="0px" y="0px" width="100.0px" height="100px" viewBox="0 0 796.363 796.363" enable-background="new 0 0 796.363 796.363" xml:space="preserve">
<path d="M589.566,246.56c55.164-57.1,101.846-104.81-58.496-58.497c21.727-90.761,36.951-178.318-71.944-19.277  c-77.35-66.695-158.499-70.849-204.517,54.801c-93.878-65.384-108.06-55.935-52.666,52.665  c-121.481-22.207-142.183,2.719-21.412,79.91c-142.848,71.135-140.944,105.4,38.555,143.883  c7.649,28.552,29.949,50.85,58.496,58.498c-1.512,206.433,63.648,165.605,143.887,38.555c28.549,7.647,59.012-0.513,79.908-21.412  c156.8,66.201,175.179,36.694,105.332-105.329c20.898-20.901,29.062-51.361,21.412-79.91  C777.949,319.033,772.526,286.623,589.566,246.56z M408.133,260.048c12.09,0,21.889,20.027,21.889,44.73  c0,24.705-9.799,44.732-21.889,44.732c-12.089,0-21.89-20.027-21.89-44.732C386.243,280.075,396.044,260.048,408.133,260.048z   M320.573,260.048c12.089,0,21.89,20.027,21.89,44.73c0,24.705-9.801,44.732-21.89,44.732s-21.888-20.027-21.888-44.732  C298.686,280.075,308.484,260.048,320.573,260.048z M468.74,393.927c-27.73,27.729-64.156,41.593-100.58,41.593  c-36.423,0-72.845-13.862-100.574-41.591c-5.026-5.028-5.026-13.178,0-18.205c5.028-5.027,13.181-5.027,18.207,0  c45.418,45.42,119.322,45.417,164.741-0.003c5.024-5.026,13.181-5.026,18.207,0C473.766,380.748,473.766,388.899,468.74,393.927z"/>
</svg>