<svg xmlns="http://www.w3.org/2000/svg" xmlns:xlink="http://www.w3.org/1999/xlink" version="1.1" id="Layer_1" x="0px" y="0px" width="100px" height="100px" viewBox="0 0 100 100" enable-background="new 0 0 100 100" xml:space="preserve">
<path d="M85.355,14.645C75.912,5.201,63.355,0,50,0S24.088,5.201,14.645,14.645S0,36.645,0,50s5.201,25.911,14.645,35.355  C24.088,94.799,36.645,100,50,100s25.912-5.201,35.355-14.645C94.799,75.911,100,63.355,100,50S94.799,24.088,85.355,14.645z   M54.105,54.43l-0.925,0.682l-1.023,0.53l-1.172,0.303l-1.213,0.092l-1.14-0.173l-1.096-0.349l-1.045-0.615l-0.923-0.793  l-0.681-0.925l-0.531-1.024l-0.302-1.17l-0.092-1.217l0.172-1.135l0.349-1.1l0.614-1.042l0.796-0.925l0.922-0.68l1.025-0.531  l1.174-0.303l1.212-0.092l1.143,0.174l1.091,0.346l1.047,0.617l0.921,0.793l0.684,0.927l0.528,1.021l0.304,1.175l0.091,1.21  l-0.173,1.144l-0.347,1.093l-0.616,1.045L54.105,54.43z M57.994,48.679l0.25-0.786l0.984,0.581l-0.746,0.867L57.994,48.679z   M54.719,43.412l-0.379-0.731l1.106-0.285l0.086,1.141L54.719,43.412z M51.849,42.066l-0.555-0.477l0.802-0.591l0.458,0.885  L51.849,42.066z M48.679,42.005l-0.786-0.249l0.581-0.985l0.867,0.746L48.679,42.005z M45.696,43.083l-0.729,0.055l0.149-0.984  l0.949,0.301L45.696,43.083z M42.065,48.151l-0.476,0.554l-0.591-0.802l0.884-0.457L42.065,48.151z M40.775,49.653l-1.071,1.244  l-2.097-1.236l2.297-1.189L40.775,49.653z M41.517,50.659l0.488,0.662l-0.249,0.786l-0.985-0.581L41.517,50.659z M45.281,56.588  l0.379,0.731l-1.107,0.285l-0.085-1.141L45.281,56.588z M48.151,57.935l0.554,0.476l-0.802,0.591l-0.458-0.885L48.151,57.935z   M51.321,57.995l0.785,0.249l-0.58,0.985l-0.868-0.746L51.321,57.995z M54.303,56.917l0.728-0.055l-0.148,0.984l-0.949-0.301  L54.303,56.917z M57.934,51.849l0.477-0.554L59,52.097l-0.884,0.457L57.934,51.849z M59.225,50.347l1.07-1.244l2.098,1.236  l-2.298,1.19L59.225,50.347z M61.103,48.164l1.942-2.259l6.115,0.926l-5.491,2.846L61.103,48.164z M60.035,47.535l-1.413-0.833  l0.444-1.399l2.556,0.388L60.035,47.535z M57.545,46.067l-0.628-0.371l-0.055-0.727l0.984,0.148L57.545,46.067z M56.768,43.723  l-0.123-1.638l2.357-0.607l-0.782,2.465L56.768,43.723z M56.552,40.852l-0.224-2.972l4.98-3.67l-1.871,5.897L56.552,40.852z   M55.354,41.161l-1.589,0.41l-0.676-1.305l2.082-1.533L55.354,41.161z M52.521,39.173l-1.453-2.805l3.48-5.903l0.515,6.835  L52.521,39.173z M51.528,39.904l-1.182,0.87l-1.245-1.07l1.236-2.098L51.528,39.904z M48.163,38.897l-2.258-1.943l0.926-6.116  l2.846,5.493L48.163,38.897z M47.535,39.964l-0.834,1.414l-1.399-0.445l0.388-2.557L47.535,39.964z M44.126,40.561l-3.01-0.956  l-1.713-6.635l5.195,4.469L44.126,40.561z M43.941,41.78l-0.22,1.451l-1.638,0.123l-0.607-2.357L43.941,41.78z M43.534,44.468  l-0.123,0.814l-0.731,0.379l-0.285-1.107L43.534,44.468z M41.57,46.235l-1.303,0.676l-1.535-2.082l2.428-0.183L41.57,46.235z   M39.173,47.478l-2.805,1.453l-5.902-3.48l6.834-0.514L39.173,47.478z M35.092,49.593l-6.303,3.266l-22.69-3.437  c0.009-0.72,0.035-1.434,0.079-2.144l22.16-1.668L35.092,49.593z M36.331,50.323l2.565,1.512l-1.942,2.26l-6.115-0.926  L36.331,50.323z M39.964,52.464l1.414,0.834l-0.444,1.399l-2.557-0.388L39.964,52.464z M42.454,53.933l0.629,0.371l0.055,0.728  l-0.984-0.149L42.454,53.933z M43.231,56.277l0.123,1.638l-2.357,0.608l0.783-2.466L43.231,56.277z M43.447,59.149l0.224,2.971  l-4.979,3.67l1.871-5.896L43.447,59.149z M44.646,58.839l1.59-0.41l0.675,1.304l-2.082,1.534L44.646,58.839z M47.478,60.827  l1.453,2.804l-3.48,5.903L44.937,62.7L47.478,60.827z M48.471,60.095l1.182-0.87l1.245,1.071l-1.236,2.096L48.471,60.095z   M51.835,61.103l2.26,1.943l-0.927,6.115l-2.846-5.492L51.835,61.103z M52.464,60.036l0.834-1.414l1.398,0.443l-0.387,2.558  L52.464,60.036z M55.872,59.439l3.011,0.955l1.714,6.636l-5.197-4.469L55.872,59.439z M56.058,58.22l0.22-1.451l1.637-0.123  l0.609,2.357L56.058,58.22z M56.464,55.532l0.124-0.813l0.731-0.38l0.286,1.107L56.464,55.532z M58.429,53.765l1.304-0.676  l1.534,2.082l-2.428,0.183L58.429,53.765z M60.826,52.522l2.805-1.453l5.903,3.48l-6.835,0.514L60.826,52.522z M64.907,50.407  l6.303-3.266l22.691,3.437c-0.009,0.72-0.035,1.435-0.079,2.145L71.661,54.39L64.907,50.407z M73.051,46.188l18.734-9.707  c1.313,4.061,2.05,8.381,2.115,12.864L73.051,46.188z M71.001,45.878l-7.019-1.063l5.113-5.945l21.527-5.559  c0.271,0.66,0.526,1.327,0.767,2.002L71.001,45.878z M62.561,44.6l-3.121-0.473l0.955-3.01l6.635-1.713L62.561,44.6z M60.829,39.747  l2.148-6.767l18.475-13.615c0.499,0.512,0.985,1.037,1.46,1.574L68.42,37.787L60.829,39.747z M63.604,31.005l6.383-20.112  c3.907,2.001,7.473,4.572,10.593,7.601L63.604,31.005z M61.936,32.234l-5.715,4.212l-0.588-7.819L66.925,9.474  c0.661,0.276,1.313,0.568,1.957,0.875L61.936,32.234z M55.473,26.5L53.951,6.27c4.135,0.369,8.104,1.31,11.83,2.746L55.473,26.5z   M54.389,28.338l-3.981,6.754l-3.266-6.303l3.436-22.69c0.719,0.009,1.435,0.036,2.146,0.079L54.389,28.338z M46.188,26.948  L36.481,8.215c4.062-1.313,8.381-2.05,12.863-2.116L46.188,26.948z M45.877,28.998l-1.063,7.019l-5.945-5.114L33.312,9.377  c0.659-0.271,1.327-0.527,2.002-0.767L45.877,28.998z M37.252,29.512L21.873,16.284c3.101-2.59,6.565-4.76,10.305-6.423  L37.252,29.512z M37.786,31.579l1.96,7.592l-6.767-2.148L19.365,18.548c0.513-0.499,1.036-0.986,1.573-1.46L37.786,31.579z   M40.105,40.562l0.745,2.887l-2.971,0.223l-3.671-4.98L40.105,40.562z M36.446,43.778l-7.818,0.589L9.474,33.075  c0.276-0.661,0.567-1.313,0.875-1.958l21.887,6.946L36.446,43.778z M26.501,44.527L6.27,46.05c0.369-4.136,1.311-8.105,2.746-11.831  L26.501,44.527z M26.949,53.812L8.215,63.519c-1.313-4.062-2.05-8.381-2.115-12.864L26.949,53.812z M28.998,54.122l7.019,1.063  l-5.113,5.945L9.377,66.688c-0.271-0.66-0.526-1.328-0.767-2.002L28.998,54.122z M37.438,55.4l3.122,0.473l-0.955,3.01l-6.636,1.714  L37.438,55.4z M39.17,60.253l-2.147,6.766L18.548,80.635c-0.499-0.513-0.986-1.037-1.46-1.573l14.491-16.848L39.17,60.253z   M36.396,68.994l-6.383,20.112c-3.907-2.001-7.474-4.572-10.594-7.602L36.396,68.994z M38.064,67.765l5.714-4.211l0.588,7.818  L33.074,90.526c-0.66-0.276-1.313-0.568-1.957-0.875L38.064,67.765z M44.526,73.499l1.521,20.231  c-4.135-0.369-8.104-1.311-11.829-2.746L44.526,73.499z M45.61,71.661l3.981-6.753l3.267,6.303l-3.437,22.69  c-0.72-0.009-1.435-0.035-2.145-0.079L45.61,71.661z M53.812,73.051l9.707,18.734c-4.062,1.313-8.382,2.05-12.864,2.115  L53.812,73.051z M54.122,71.001l1.063-7.018l5.945,5.113l5.559,21.526c-0.66,0.271-1.327,0.527-2.003,0.767L54.122,71.001z   M62.747,70.487l15.38,13.229c-3.102,2.591-6.565,4.761-10.306,6.423L62.747,70.487z M62.214,68.421l-1.961-7.592l6.767,2.148  l13.615,18.475c-0.513,0.5-1.037,0.986-1.573,1.46L62.214,68.421z M59.894,59.437l-0.745-2.885l2.972-0.223l3.669,4.98  L59.894,59.437z M63.553,56.222l7.819-0.589l19.154,11.292c-0.276,0.661-0.568,1.314-0.876,1.957l-21.886-6.946L63.553,56.222z   M73.499,55.474l20.231-1.522c-0.369,4.136-1.311,8.104-2.746,11.83L73.499,55.474z M90.14,32.179l-19.653,5.074l13.229-15.38  C86.306,24.975,88.477,28.438,90.14,32.179z M18.494,19.419l12.511,16.976l-20.111-6.383C12.895,26.105,15.466,22.54,18.494,19.419z   M9.86,67.821l19.652-5.074l-13.229,15.38C13.693,75.025,11.523,71.562,9.86,67.821z M81.505,80.58L68.993,63.604l20.113,6.383  C87.105,73.896,84.534,77.461,81.505,80.58z"/>
<circle cx="50" cy="50.001" r="1.65"/>
</svg>