<svg xmlns="http://www.w3.org/2000/svg" xmlns:xlink="http://www.w3.org/1999/xlink" version="1.1" id="Ebene_1" x="0px" y="0px" width="100px" height="100px" viewBox="0 0 100 100" enable-background="new 0 0 100 100" xml:space="preserve">
<path fill-rule="evenodd" clip-rule="evenodd" fill="#000000" d="M70.232,22.923c-0.104-3.721-1.637-12.875-4.28-15.612  C63.169,4.429,56.667,4.014,50,3.974V3.973c-0.013,0-0.031,0-0.043,0s-0.021,0-0.034,0v0.001  c-6.667,0.041-13.168,0.456-15.952,3.337c-2.643,2.737-4.176,11.892-4.28,15.612c0,4.314-0.067,45.924-0.067,58.497  c0,4.322,0.107,8.727,2.22,10.866c2.075,2.102,10.457,4.093,18.113,4.093c7.518,0,16.048-1.991,18.123-4.093  c2.112-2.14,2.22-6.544,2.22-10.866C70.299,68.848,70.232,27.238,70.232,22.923z M49.957,25.182c11.637,0,16.282,3.422,16.282,3.422  l-4.524,15.37c0,0-1.121-0.225-2.812-0.598c-1.599-0.354-5.361-1.015-8.946-1.084c-3.584,0.07-7.415,0.731-9.014,1.084  c-1.69,0.374-2.811,0.598-2.811,0.598l-4.525-15.37C33.607,28.604,38.272,25.182,49.957,25.182z M32.035,39.398l3.896,11.203V58.3  l-3.896-1.492V39.398z M32.035,62.773l3.896,1.137V77.14l-3.896,2.672V62.773z M49.957,88.764c-0.012,0-0.022,0-0.034,0  s-0.022,0-0.034,0c-8.118,0-15.051-2.189-15.051-2.189l3.535-4.448c0,0,5.484,1.403,11.583,1.403c5.831,0,11.516-1.403,11.516-1.403  l3.535,4.448C65.008,86.574,57.923,88.764,49.957,88.764z M67.811,79.812l-3.896-2.672V63.91l3.896-1.137V79.812z M67.811,56.808  L63.915,58.3v-7.698l3.896-11.203V56.808z"/>
</svg>