<svg xmlns="http://www.w3.org/2000/svg" xmlns:xlink="http://www.w3.org/1999/xlink" version="1.1" id="Ebene_2" x="0px" y="0px" width="100px" height="100px" viewBox="0 0 100 100" enable-background="new 0 0 100 100" xml:space="preserve">
<path fill-rule="evenodd" clip-rule="evenodd" d="M94.674,47.862c0,0-0.721-0.769-1.496-0.486  c-2.563,0.935-13.542,5.033-13.542,5.033l0.626-10.328c0,0-2.73-1.425-3.473-0.536c-2.025,2.426-7.823,9.412-7.823,9.412  l-8.448-3.034l33.528-19.116c0,0-3.648-2.033-5.437-1.238c-0.792,0.352-37.188,14.795-37.188,14.795s-4.11-1.521-5.577-1.912  c-1.172-0.312-2.848-0.507-3.812,0.5c-0.154,0.161-0.571,0.685-0.571,0.685s-12.685-4.083-16.978-5.214  c-2.161-0.57-8.871-2.27-10.203-1.816c0,0-0.873,0.237-1.499,0.685c-0.355,0.254-0.995,0.265-1.474,0.303  c-0.542,0.042-2.13,0.308-2.83,0.466c-1.054,0.239-1.637,0.524-2,0.666c-0.364,0.142-0.728,0.484-0.951,0.908  s-0.082,0.926,0.335,1.438c0.664,0.684,1.291,1.496,2.393,2.322c1.838,1.379,6.07,3.566,9.127,4.777  c2.766,1.096,18.521,6.229,21.674,7.097l-1.648,2.966c0,0-4.28-1.323-4.919-1.422c-1.221-0.188-2.335-0.284-3.275,0.081  c-0.556,0.216-1.122,0.74-1.478,1.388c-0.189,0.344-0.871,2.053-0.031,3.421c0.672,1.095,3.391,1.767,4.921,2.021  c0.629,0.104,2.691,0.52,2.691,0.52s-2.686,6.399-3.516,8.559c-0.377,0.98,4.037,0.405,4.037,0.405l12.395-15.304l23.05,3.973  c0,0-2.616,3.872-2.673,3.959c-0.515,0.791,1.411,0.583,1.411,0.583l5.732-4.284c0,0,2.045-0.023,4.031-0.047  c0.546-0.007,1.406-0.313,1.552-1.21c0.115-0.69,0.058-1.419-0.404-1.799C80.811,56.98,94.674,47.862,94.674,47.862z M29.737,57.803  c-0.27,1.008-0.851,1.727-1.298,1.605c-0.447-0.119-0.591-1.033-0.322-2.039c0.271-1.006,0.851-1.725,1.299-1.605  C29.863,55.883,30.007,56.797,29.737,57.803z M23.112,37.802l-9.305-2.129l0.573-0.362l2.121,0.305l6.732,1.657L23.112,37.802z   M40.891,43.234l-16.644-5.176l0.052-0.538l16.779,5.073L40.891,43.234z M43.548,43.427c-0.265,1.026-0.914,1.737-1.447,1.59  c-0.534-0.148-0.751-1.1-0.485-2.125c0.266-1.027,0.913-1.738,1.447-1.591C43.597,41.449,43.814,42.401,43.548,43.427z   M60.541,49.793v-0.599l14.127,5.293l0.136,0.623L60.541,49.793z"/>
</svg>