<svg xmlns="http://www.w3.org/2000/svg" xmlns:xlink="http://www.w3.org/1999/xlink" version="1.1" id="Ebene_2" x="0px" y="0px" width="100px" height="100px" viewBox="0 0 100 100" enable-background="new 0 0 100 100" xml:space="preserve">
<g>
	<path fill-rule="evenodd" clip-rule="evenodd" d="M54.471,80.611c-2.142,5.416-3.774,12.949,2.423,14.6   c9.52,2.531,10.871-11.773,10.871-11.773L54.471,80.611z M75.903,62.082c1.422-7.408,1.339-20.046-7.552-23.184   c-2.191-0.774-10.468-2.745-13.809,11.828C52.121,61.328,55.9,74.043,55.9,74.043l13.444,2.859   C69.345,76.902,74.949,67.039,75.903,62.082z"/>
	<path fill-rule="evenodd" clip-rule="evenodd" d="M39.953,47.414c1.567,5.607,2.404,13.27-3.936,14.264   c-9.728,1.523-9.577-12.844-9.577-12.844L39.953,47.414z M20.579,26.743c-0.64-7.515,0.762-20.075,9.935-22.27   c2.257-0.541,10.694-1.632,12.493,13.21c1.306,10.798-3.79,23.047-3.79,23.047l-13.668,1.438   C25.549,42.168,21.005,31.775,20.579,26.743z"/>
</g>
</svg>