<svg xmlns="http://www.w3.org/2000/svg" xmlns:xlink="http://www.w3.org/1999/xlink" version="1.1" id="Ebene_1" x="0px" y="0px" width="100px" height="100px" viewBox="0 0 100 100" enable-background="new 0 0 100 100" xml:space="preserve">
<g>
	<path fill="#000000" d="M98.492,25.326H95.98v-2.149h-5.217v-3.732h-10.26v3.732H56.439v-4.317h-15.87v4.317H15.233v-4.317H8.799   v4.317h-3.11v2.149H3.178v4.417h2.511v44.258H95.98V29.744h2.512V25.326z M82.504,21.444h6.26v1.732h-6.26V21.444z M42.569,20.859   h11.87v2.317h-11.87V20.859z M10.799,20.859h2.435v2.317h-2.435V20.859z M93.98,72.002H7.689v-5.246h17.094V42.896H7.689v-17.72   H93.98V72.002z"/>
	<path fill="#000000" d="M71.268,37.986v-6.968h18.719v9.238h-6.91c1.081,0.667,2.089,1.441,2.991,2.327h6.573V27.917H35.229v14.666   h27.059C64.695,40.223,67.802,38.586,71.268,37.986z M53.033,34.611h-8.333v-3.592h8.333V34.611z M57.941,31.019h8.334v3.592   h-8.334V31.019z"/>
	<circle fill="#000000" cx="74.178" cy="54.711" r="7.207"/>
	<path fill="#000000" d="M74.178,41.062c-7.525,0-13.648,6.123-13.648,13.648s6.123,13.647,13.648,13.647   s13.648-6.122,13.648-13.647S81.703,41.062,74.178,41.062z M74.178,65.357c-5.871,0-10.648-4.776-10.648-10.647   s4.777-10.648,10.648-10.648s10.648,4.777,10.648,10.648S80.049,65.357,74.178,65.357z"/>
</g>
</svg>