<svg xmlns="http://www.w3.org/2000/svg" xmlns:xlink="http://www.w3.org/1999/xlink" version="1.1" id="Ebene_1" x="0px" y="0px" width="100px" height="100px" viewBox="0 0 100 100" enable-background="new 0 0 100 100" xml:space="preserve">
<g>
	<path fill="#000000" d="M75.195,53.583c-3.242,0-5.88,2.638-5.88,5.879c0,3.243,2.638,5.881,5.88,5.881   c3.241,0,5.879-2.638,5.879-5.881C81.074,56.221,78.437,53.583,75.195,53.583z"/>
	<path fill="#000000" d="M23.466,53.583c-3.242,0-5.879,2.638-5.879,5.879c0,3.243,2.638,5.881,5.879,5.881   c3.242,0,5.88-2.638,5.88-5.881C29.346,56.221,26.708,53.583,23.466,53.583z M23.466,63.343c-2.139,0-3.879-1.741-3.879-3.881   c0-2.139,1.74-3.879,3.879-3.879s3.88,1.74,3.88,3.879C27.346,61.602,25.605,63.343,23.466,63.343z"/>
	<circle fill="#000000" cx="23.466" cy="59.463" r="2.275"/>
	<path fill="#000000" d="M59.044,34.326H39.431c-3.144,0-5.701,2.557-5.701,5.701v19.615c0,3.144,2.557,5.701,5.701,5.701h19.613   c3.144,0,5.701-2.558,5.701-5.701V40.026C64.745,36.883,62.188,34.326,59.044,34.326z M62.745,59.642   c0,2.041-1.66,3.701-3.701,3.701H39.431c-2.041,0-3.701-1.66-3.701-3.701V40.026c0-2.041,1.66-3.701,3.701-3.701h19.613   c2.041,0,3.701,1.66,3.701,3.701V59.642z"/>
	<path fill="#000000" d="M56.982,38.377h-15.49c-2.05,0-3.712,1.662-3.712,3.712v15.49c0,2.051,1.662,3.713,3.712,3.713h15.49   c2.051,0,3.712-1.662,3.712-3.713v-15.49C60.694,40.04,59.033,38.377,56.982,38.377z"/>
	<rect x="16.784" y="75.564" fill="#000000" width="65.278" height="3.041"/>
	<path fill="#000000" d="M83.727,28.128H14.935c-3.144,0-5.701,2.557-5.701,5.701v32.01l0,0.294   c-0.002,1.792-0.005,3.485,1.042,4.534c0.342,0.344,0.781,0.573,1.291,0.715v8.106c0,2.596,2.104,4.697,4.698,4.697h17.084h31.991   h17.084c2.595,0,4.698-2.102,4.698-4.697v-8.185c2.298-0.821,2.307-3.656,2.307-5.465v-32.01   C89.428,30.686,86.87,28.128,83.727,28.128z M84.062,78.822c0,0.983-0.801,1.783-1.784,1.783H16.567   c-0.983,0-1.783-0.8-1.783-1.783v-3.475c0-0.983,0.8-1.783,1.783-1.783h65.711c0.983,0,1.784,0.8,1.784,1.783V78.822z    M87.428,65.839c0,3.191-0.419,3.702-1.766,3.702H12.724c-0.496,0-0.843-0.097-1.034-0.287c-0.461-0.462-0.459-1.752-0.457-3.118   l0-32.307c0-2.041,1.66-3.701,3.701-3.701h68.792c2.041,0,3.701,1.66,3.701,3.701V65.839z"/>
</g>
</svg>