<svg xmlns="http://www.w3.org/2000/svg" xmlns:xlink="http://www.w3.org/1999/xlink" version="1.1" id="Layer_1" x="0px" y="0px" width="100px" height="100px" viewBox="0 0 100 100" enable-background="new 0 0 100 100" xml:space="preserve">
<path d="M45.205,79.862c0,9.546-7.737,17.283-17.283,17.283s-17.283-7.737-17.283-17.283s7.737-17.285,17.283-17.285  S45.205,70.316,45.205,79.862z M27.92,88.219c4.609,0,8.357-3.749,8.357-8.356c0-4.609-3.748-8.355-8.357-8.355  c-4.605,0-8.352,3.746-8.352,8.355C19.568,84.47,23.314,88.219,27.92,88.219L27.92,88.219z"/>
<path d="M89.36,79.862c0,9.546-7.739,17.283-17.285,17.283s-17.283-7.737-17.283-17.283s7.737-17.285,17.283-17.285  S89.36,70.316,89.36,79.862z M72.075,88.219c4.607,0,8.356-3.749,8.356-8.356c0-4.609-3.749-8.355-8.356-8.355  c-4.605,0-8.352,3.746-8.352,8.355C63.724,84.47,67.47,88.219,72.075,88.219L72.075,88.219z"/>
<path d="M76.462,23.776l0.279-20.922L51.913,45.536h-1.674L24.295,2.854l-0.837,2.231v18.412l16.459,35.429l4.464,1.953  l-6.416,4.185l-0.483,0.384l5.696,6.553l6.364-6.239l8.229,6.229l5.908-6.387l-9.256-4.446h5.3L76.462,23.776z M50.518,60.601  c-2.771,0-5.021-2.249-5.021-5.021s2.249-5.021,5.021-5.021c2.772,0,5.021,2.249,5.021,5.021S53.29,60.601,50.518,60.601z"/>
</svg>