<svg xmlns="http://www.w3.org/2000/svg" xmlns:xlink="http://www.w3.org/1999/xlink" version="1.1" id="Layer_1" x="0px" y="0px" width="100px" height="100px" viewBox="0 0 100 100" enable-background="new 0 0 100 100" xml:space="preserve">
<path d="M84.889,17.604l-16.903-0.252c0,0,2.85-15.303-10.651-15.303c-13.505,0-18.006,0-18.006,0s-10.5,0.404-7.351,14.978H16.051  c-7.824,0-7.778,7.777-7.778,7.777v5.802c0,3.978,3.222,7.2,7.2,7.2h69.415c3.978,0,7.2-3.223,7.2-7.2v-5.802  C92.089,20.827,88.866,17.604,84.889,17.604z M58.382,13.236H41.878c-1.821,0-3.299-1.477-3.299-3.3s1.478-3.301,3.299-3.301h16.503  c1.824,0,3.302,1.477,3.302,3.301S60.206,13.236,58.382,13.236z"/>
<path d="M12.188,41.238v49.614c0,4.573,3.708,8.279,8.286,8.279l58.814,0.005c4.572-0.005,8.279-3.711,8.279-8.284l0.005-49.614  H12.188z M31.611,88.449c0,1.769-1.432,3.202-3.2,3.202c-1.77,0-3.202-1.434-3.202-3.202V50.045c0-1.771,1.433-3.204,3.202-3.204  c1.768,0,3.2,1.433,3.2,3.204V88.449z M54.32,88.449c0,1.769-1.433,3.202-3.202,3.202c-1.768,0-3.201-1.434-3.201-3.202V50.045  c0-1.771,1.433-3.204,3.201-3.204c1.77,0,3.202,1.433,3.202,3.204V88.449z M76.025,88c0,1.77-1.433,3.199-3.204,3.199  c-1.767,0-3.199-1.43-3.199-3.199V49.592c0-1.77,1.433-3.202,3.199-3.202c1.771,0,3.204,1.432,3.204,3.202V88z"/>
</svg>