<svg xmlns="http://www.w3.org/2000/svg" xmlns:xlink="http://www.w3.org/1999/xlink" version="1.1" id="Layer_1" x="0px" y="0px" width="100px" height="100px" viewBox="0 0 100 100" enable-background="new 0 0 100 100" xml:space="preserve">
<g>
	<path d="M83.322,86.608c1.36,1.742,0.49,4.693-1.466,6.223l0,0c-1.954,1.529-5.03,1.662-6.392-0.078l-7.038-8.998   c-1.359-1.74,0.303-3.683,2.258-5.211l0,0c1.956-1.529,4.239-2.674,5.601-0.935L83.322,86.608z"/>
	
		<rect x="74.463" y="89.215" transform="matrix(0.7877 -0.616 0.616 0.7877 -38.4293 68.0122)" fill="#000000" width="10.025" height="1.108"/>
	<polygon fill="#000000" points="81.258,84.014 73.406,90.154 74.527,89.278 80.135,84.892  "/>
	<line fill="#000000" x1="80.324" y1="82.775" x2="72.467" y2="88.919"/>
	<line fill="#000000" x1="78.277" y1="80.155" x2="70.418" y2="86.299"/>
	<line fill="#000000" x1="76.912" y1="78.409" x2="69.053" y2="84.554"/>
	<line fill="#000000" x1="76.228" y1="77.536" x2="68.37" y2="83.681"/>
	<path d="M70.604,78.504c-3.18,2.487-6.386,3.81-7.865,3.373l3.014,3.852l13.096-10.239l-3.083-3.945   C76.572,72.579,73.882,75.942,70.604,78.504z"/>
	<path d="M16.149,8.918l-0.879,12.252l52.15,60.438l7.08-5.537L28.42,10.889L16.149,8.918z M73.226,76.351l-3.941-0.498l0.72,0.922   l-0.872,0.684l-0.569-0.729l-0.942,3.729l-1.236-0.319l1.174-4.694L23.393,18.963l0.873-0.683L68.15,74.401l5.226,0.694   L73.226,76.351z"/>
	<line fill="#000000" x1="79.188" y1="81.308" x2="71.326" y2="87.456"/>
</g>
</svg>