<svg xmlns="http://www.w3.org/2000/svg" xmlns:xlink="http://www.w3.org/1999/xlink" version="1.1" x="0px" y="0px" width="100px" height="100px" viewBox="0 0 100 100" enable-background="new 0 0 100 100" xml:space="preserve">
<g id="Ebene_1">
	<path fill="#000000" d="M70.662,26.902c-4.007-4.107-9.664-6.363-16.808-6.758c0.552-0.601,0.897-1.395,0.897-2.272   c0-1.859-1.512-3.372-3.37-3.372c-1.859,0-3.371,1.513-3.371,3.372c0,0.884,0.35,1.684,0.909,2.286   c-22.613,1.512-23.083,22.265-23.085,22.489v47.387h5.152h7.133h7.579h11.363h7.579h7.133h5.152V42.665   C76.936,42.293,77.078,33.479,70.662,26.902z M75.427,42.646v40.656h-3.652V42.661c0.009-0.433,0.134-10.688-6.339-17.289   c-0.512-0.522-1.06-0.994-1.625-1.439c2.209,1.015,4.141,2.343,5.766,4.005C75.552,34.051,75.429,42.543,75.427,42.646z    M70.274,42.646v40.656h-5.633L64.641,51.38c0.232-1.586,0.63-3.051,1.329-3.794l2.784-0.767l-2.602-1.509l2.602-1.821   c0,0-2.652-0.068-4.11-0.442c-0.001-0.002-0.002-0.003-0.003-0.005v-0.352c0.031-0.53,0.702-13.055-5.145-19.259   c-0.203-0.215-0.416-0.412-0.63-0.606c2.099,0.811,3.937,2.006,5.491,3.59C70.389,32.559,70.276,42.532,70.274,42.646z    M39.62,42.616c-0.005-0.124-0.444-12.489,5.047-18.208c1.188-1.237,2.585-2.066,4.168-2.497   c-2.927,4.831-3.13,17.688-3.136,20.735V57.58c-2.382,2.558-4.747,5.273-6.079,7.543L39.62,42.616z M51.381,21.568   c0.003,0,0.005,0,0.008,0c0.016,0,0.03-0.001,0.045-0.001c0.286,0.004,0.561,0.139,0.839,0.419   c2.768,2.781,3.313,15.854,3.29,20.661v2.681c-0.88,1.42-1.798,3.021-2.927,4.673c-0.846,1.237-3.033,3.459-5.437,5.986V42.648   C47.216,33.932,48.525,21.679,51.381,21.568z M50.104,69.76c1.342,0.32,3.256,0.589,5.458,0.427v13.116h-8.363V68.941   C48.605,69.25,49.672,69.657,50.104,69.76z M57.062,83.303V70.008c0.6-0.098,1.209-0.218,1.836-0.393   c2.06-0.576,3.391-1.701,4.243-3.04v16.728H57.062z M58.359,41.663c-0.457,0.415-0.883,0.907-1.297,1.449V42.65   c0.008-1.703-0.017-15.807-3.005-20.766c1.667,0.427,3.125,1.28,4.345,2.574c4.349,4.611,4.772,13.467,4.768,16.838   C61.836,40.456,60.01,40.546,58.359,41.663z M39.95,69.373c1.969-0.854,4.006-0.909,5.75-0.692v14.622H39.62V69.756L39.95,69.373z    M43.584,23.369c-5.928,6.176-5.485,18.774-5.464,19.277v24.656l-4.503,0.332l2.659,1.977l-1.705,5.999l3.549-4.116v11.809h-5.633   v-40.65c0.006-0.728,0.283-15.279,11.618-19.776C43.93,23.038,43.752,23.194,43.584,23.369z M51.382,16   c1.031,0,1.87,0.839,1.87,1.872c0,1.031-0.839,1.87-1.87,1.87c-1.032,0-1.871-0.839-1.871-1.87C49.511,16.84,50.35,16,51.382,16z    M39.342,23.938c-8.13,6.409-8.354,18.538-8.355,18.708v40.656h-3.652V42.653C27.341,41.976,27.634,29.306,39.342,23.938z"/>
</g>
<g id="Ebene_3" display="none">
	<path display="inline" fill-rule="evenodd" clip-rule="evenodd" fill="#000000" d="M55.338,62.156   c0.242,0.32-2.025,4.226-1.627,4.49c0.903,0.601,0.898,1.117,1.645,1.312c0.747,0.194,1.073,0.105,1.594,0.222   c0.521,0.116,0.516,0.29,0.96,0.261c0.444-0.028,0.484,0.119,0.624,0.63c0.055,0.202,0.073,0.558-0.102,0.889   s-0.284,0.57-0.323,0.415c-0.038-0.153-0.045-0.754-0.153-1.026c-0.108-0.271-0.248-0.287-0.692-0.355   c-0.821-0.126-0.61-0.442-1.055,0.079c-0.445,0.521-0.123,0.441-0.282,1.078c-0.121,0.486-0.179,1.261-0.391,1.067   c-0.213-0.193-0.464-0.402-0.372-0.905c0.083-0.448,0.117-0.846,0.098-1.251c-0.02-0.406-0.248-0.556-0.486-0.752   c-0.283-0.234-0.541-0.524-0.792-0.742c-0.789-0.688-1.529-0.975-0.838-1.742c0.04-0.046,0.429-1.032-0.198-1.08   c-0.629-0.05-0.277-0.923-0.064-1.058C53.094,63.551,55.338,62.156,55.338,62.156z"/>
	<path display="inline" fill-rule="evenodd" clip-rule="evenodd" fill="#000000" d="M57.562,58.711   c0.044,0.399-1.697,3.355-1.493,3.787c0.466,0.979,0.195,1.421,0.735,1.972c0.539,0.551,0.864,0.643,1.252,1.011   c0.387,0.369,0.412,0.25,0.688,0.719c0.226,0.384,0.353,0.352,0.21,0.86c-0.058,0.201-0.224,0.516-0.545,0.71   c-0.32,0.193-0.537,0.342-0.491,0.189c0.047-0.152,0.352-0.67,0.397-0.959c0.047-0.288-0.064-0.373-0.409-0.66   c-0.641-0.532-0.296-0.695-0.946-0.478c-0.648,0.218-0.135,0.102-0.6,0.565c-0.354,0.354-0.329,1.508-0.411,1.232   c-0.083-0.275-0.617-0.85-0.279-1.233c0.302-0.342,0.291-0.703,0.484-1.062c0.192-0.357-0.304-0.911-0.406-1.202   c-0.122-0.347,0.183-0.421,0.081-0.736c-0.323-0.996-0.81-1.623,0.178-1.926c0.059-0.018,0.899-0.663,0.386-1.028   c-0.512-0.365,0.238-0.933,0.49-0.938C57.136,59.527,57.562,58.711,57.562,58.711z"/>
</g>
<g id="Ebene_2" display="none">
	<path display="inline" fill-rule="evenodd" clip-rule="evenodd" fill="#000000" d="M60.175,73.102c0,0-0.172,1.703-1.29,1.531   c-1.226-0.188-0.927-1.978-0.927-1.978l0.817-9.19l2.546-0.784L60.175,73.102z"/>
</g>
</svg>