<svg xmlns:dc="http://purl.org/dc/elements/1.1/" xmlns:cc="http://creativecommons.org/ns#" xmlns:rdf="http://www.w3.org/1999/02/22-rdf-syntax-ns#" xmlns:svg="http://www.w3.org/2000/svg" xmlns="http://www.w3.org/2000/svg" version="1.1" width="70.7224334601px" height="100px" id="svg3991">
  <defs id="defs3993"/>
  <metadata id="metadata3996">
    <rdf:RDF>
      <cc:Work rdf:about="">
        <dc:format>image/svg+xml</dc:format>
        <dc:type rdf:resource="http://purl.org/dc/dcmitype/StillImage"/>
        <dc:title/>
      </cc:Work>
    </rdf:RDF>
  </metadata>
  <g id="layer1">
    <path d="m 8.4165616,46.905834 a 12.570787,20.33996 0 0 1 2e-7,39.293785" transform="matrix(0.42433052,0,0,0.26225071,111.62735,808.89937)" id="path3962" style="fill:none;stroke:#000000;stroke-width:2.99770927;stroke-linecap:butt;stroke-linejoin:round;stroke-miterlimit:4;stroke-opacity:1;stroke-dasharray:none;stroke-dashoffset:0"/>
    <path d="m 8.4165616,46.905834 a 12.570787,20.33996 0 0 1 2e-7,39.293785" transform="matrix(0.22207664,0,0,0.13725092,112.44497,817.21844)" id="path3964" style="fill:none;stroke:#000000;stroke-width:5.7278409;stroke-linecap:butt;stroke-linejoin:round;stroke-miterlimit:4;stroke-opacity:1;stroke-dasharray:none;stroke-dashoffset:0"/>
    <path d="m 111.79723,819.24168 c -0.18754,0.009 -0.36143,0.0966 -0.53125,0.25 l -4.90625,4.40625 -3.15625,0 0,5.5 2.9375,0 c 0.0529,0.0387 0.10256,0.0785 0.15625,0.125 l 4.96875,4.28125 c 0.45897,0.39779 1.125,0.37085 1.125,-0.4375 l 0,-13.4375 c 0,-0.50521 -0.28117,-0.70177 -0.59375,-0.6875 z" id="rect3967" style="fill:#000000;stroke:none"/>
  </g>
</svg>