<svg xmlns="http://www.w3.org/2000/svg" xmlns:xlink="http://www.w3.org/1999/xlink" version="1.1" id="Calque_1" x="0px" y="0px" width="100px" height="100px" viewBox="0 0 100 100" enable-background="new 0 0 100 100" xml:space="preserve">
<path d="M31.219,22.738c-15.691,0-28.411,12.719-28.411,28.411c0,15.692,12.72,28.411,28.411,28.411  c15.692,0,28.411-12.719,28.411-28.411C59.63,35.458,46.911,22.738,31.219,22.738z M42.216,37.894c2.501,0,4.533,2.03,4.533,4.532  c0,2.506-2.032,4.532-4.533,4.532c-2.502,0-4.532-2.025-4.532-4.532C37.684,39.924,39.714,37.894,42.216,37.894z M20.223,37.894  c2.501,0,4.532,2.03,4.532,4.532c0,2.506-2.03,4.532-4.532,4.532s-4.531-2.025-4.531-4.532  C15.691,39.924,17.721,37.894,20.223,37.894z M31.219,74.912c-12.667,0-22.936-10.988-22.936-22.937h45.873  C54.155,63.924,43.887,74.912,31.219,74.912z"/>
<g>
	<path d="M79.088,41.602c-0.475,0-0.915,0.119-1.32,0.357c-0.404,0.237-0.754,0.545-1.043,0.924   c-0.29,0.379-0.516,0.797-0.674,1.254c-0.158,0.458-0.237,0.908-0.237,1.347c0,0.705,0.188,1.272,0.567,1.704   c0.377,0.431,0.876,0.646,1.492,0.646c0.475,0,0.91-0.123,1.307-0.37c0.397-0.246,0.739-0.559,1.029-0.938   c0.292-0.378,0.517-0.805,0.675-1.281c0.159-0.476,0.238-0.942,0.238-1.4c0-0.651-0.198-1.188-0.595-1.611   C80.131,41.813,79.651,41.602,79.088,41.602z"/>
	<path d="M88.519,27.457H65.986c-4.343,0-7.883,3.536-7.883,7.886v0.819c2.488,4.438,3.917,9.547,3.917,14.987   c0,2.628-0.365,5.166-0.989,7.604c0.985,0.798,2.16,1.375,3.454,1.626l0.014,4.912v0.453c-0.074,0.366,0.045,0.714,0.271,0.98   v0.021c0.019,0.017,0.042,0.021,0.061,0.04c0.107,0.107,0.228,0.19,0.379,0.251c0.686,0.369,1.548,0.291,2.128-0.291l7.365-6.216   l15.149-0.04c3.837-0.529,6.55-3.837,6.55-7.818V35.343C96.401,30.993,92.862,27.457,88.519,27.457z M87.579,46.145   c-0.485,0.969-1.065,1.761-1.742,2.377c-0.679,0.617-1.365,1.07-2.062,1.36c-0.695,0.291-1.254,0.437-1.677,0.437   c-0.562,0-1.017-0.141-1.361-0.423c-0.342-0.28-0.532-0.643-0.566-1.083h-0.054c-0.316,0.528-0.73,0.916-1.241,1.163   s-1.048,0.37-1.61,0.37c-0.564,0-1.097-0.119-1.598-0.356c-0.502-0.237-0.942-0.563-1.32-0.977c-0.38-0.415-0.68-0.894-0.899-1.44   c-0.22-0.545-0.33-1.126-0.33-1.743c0-0.827,0.137-1.647,0.409-2.456c0.274-0.811,0.661-1.532,1.162-2.166   c0.502-0.634,1.11-1.145,1.823-1.532c0.713-0.387,1.5-0.582,2.363-0.582c0.564,0,1.145,0.138,1.744,0.41   c0.598,0.273,1.047,0.752,1.347,1.439l0.424-1.427h2.165l-1.664,6.814c-0.054,0.177-0.102,0.365-0.146,0.568   c-0.042,0.203-0.065,0.392-0.065,0.568c0,0.176,0.034,0.321,0.105,0.436c0.07,0.115,0.185,0.172,0.345,0.172   c0.368,0,0.733-0.119,1.095-0.357c0.36-0.237,0.688-0.571,0.978-1.003s0.528-0.946,0.713-1.545c0.185-0.598,0.276-1.25,0.276-1.954   c0-1.057-0.185-1.985-0.553-2.786c-0.371-0.802-0.877-1.479-1.52-2.034c-0.643-0.555-1.396-0.972-2.257-1.254   c-0.864-0.282-1.788-0.423-2.774-0.423c-1.127,0-2.152,0.198-3.076,0.594c-0.926,0.397-1.713,0.943-2.365,1.638   c-0.651,0.696-1.153,1.523-1.505,2.482c-0.352,0.96-0.528,1.994-0.528,3.104c0,1.162,0.194,2.214,0.581,3.156   s0.924,1.752,1.611,2.429c0.686,0.679,1.509,1.202,2.469,1.572s2.004,0.556,3.13,0.556c1.11,0,2.16-0.189,3.157-0.568   c0.993-0.379,1.834-0.911,2.522-1.598h2.218c-0.898,1.374-2.052,2.425-3.459,3.157c-1.41,0.73-2.941,1.096-4.596,1.096   c-1.41,0-2.73-0.247-3.962-0.74c-1.234-0.491-2.312-1.179-3.236-2.06c-0.925-0.88-1.651-1.923-2.179-3.13   c-0.528-1.206-0.793-2.513-0.793-3.922c0-1.391,0.265-2.689,0.793-3.895c0.527-1.207,1.249-2.25,2.166-3.13   c0.915-0.88,1.98-1.576,3.195-2.086c1.214-0.511,2.509-0.767,3.883-0.767c1.196,0,2.35,0.194,3.461,0.582   c1.107,0.387,2.086,0.929,2.931,1.625c0.846,0.695,1.522,1.541,2.033,2.536c0.511,0.995,0.767,2.099,0.767,3.314   C88.306,44.015,88.063,45.177,87.579,46.145z"/>
</g>
</svg>