<svg xmlns="http://www.w3.org/2000/svg" xmlns:xlink="http://www.w3.org/1999/xlink" version="1.1" id="Layer_1" x="0px" y="0px" width="100px" height="100px" viewBox="0 0 100 100" enable-background="new 0 0 100 100" xml:space="preserve">
<g>
	<path d="M19.652,27.902c-0.708-0.039-1.312,0.502-1.352,1.21l-0.285,5.16l3.342-6.276L19.652,27.902z"/>
	<polygon points="68.254,30.586 60.468,30.157 56.761,37.12 64.547,37.549  "/>
	<polygon points="52.622,29.723 44.836,29.293 41.128,36.256 48.914,36.686  "/>
	<polygon points="36.989,28.859 29.203,28.43 25.495,35.393 33.282,35.823  "/>
</g>
<path d="M81.026,31.584L75.877,31.3l-3.706,6.962l2.846,0.158v0.808h-2.66l-0.125,0.271l3.491,7.535h-7.857l-3.493-7.535  l0.126-0.271H56.7l-0.125,0.271l3.492,7.535h-7.858l-3.492-7.535l0.125-0.271h-7.798l-0.126,0.271l3.493,7.535h-7.858l-3.493-7.535  l0.125-0.271h-7.798l-0.125,0.271l3.493,7.535h-7.858l-3.137-6.767v33.219c0,0.709,0.574,1.283,1.283,1.283h61.691  c0.709,0,1.282-0.574,1.282-1.283V41.854v-2.626v-2.31l0.222-3.982C82.276,32.229,81.734,31.624,81.026,31.584z M78.458,36.05  c-0.498,0-0.902-0.404-0.902-0.903s0.404-0.902,0.902-0.902s0.901,0.404,0.901,0.902S78.956,36.05,78.458,36.05z"/>
</svg>