<svg xmlns="http://www.w3.org/2000/svg" xmlns:xlink="http://www.w3.org/1999/xlink" version="1.1" id="Layer_2" x="0px" y="0px" width="100px" height="100px" viewBox="0 0 100 100" enable-background="new 0 0 100 100" xml:space="preserve">
<g>
	<path d="M100.153,33.297C100.153,16.012,86.141,2,68.855,2H62.65C46.054,5.668,33.316,21.908,37.409,39.64   c4.495,19.476,23.987,29.971,42.725,23.655c1.039-0.982,3.23-0.551,3.221,1.301c-0.053,10.434-0.105,20.865-0.158,31.298h4.439   h12.519L100.153,33.297L100.153,33.297z M81.378,42.436c-2.423,0-2.423-3.756,0-3.756C83.799,38.68,83.799,42.436,81.378,42.436z"/>
	<path d="M33.422,38.467C31.445,22.917,39.297,8.91,51.906,2H31.298C14.013,2,0,16.012,0,33.297v62.596h16.597   c0-4.533,0-9.068,0-13.602c0-2.422,3.756-2.422,3.756,0c0,4.533,0,9.068,0,13.602H38.81c0-4.533,0-9.068,0-13.602   c0-2.422,3.756-2.422,3.756,0c0,4.533,0,9.068,0,13.602h16.899c0-4.533,0-9.068,0-13.602c0-2.422,3.756-2.422,3.756,0   c0,4.534,0,9.068,0,13.603h8.447h3.445h4.329c0.047-9.497,0.094-18.993,0.144-28.491C59.144,73.303,36.236,60.61,33.422,38.467z"/>
</g>
</svg>