<svg xmlns="http://www.w3.org/2000/svg" xmlns:xlink="http://www.w3.org/1999/xlink" version="1.1" id="Layer_1" x="0px" y="0px" width="100px" height="100px" viewBox="0 0 100 100" enable-background="new 0 0 100 100" xml:space="preserve">
<path fill="#000000" d="M55.342,3.331c-0.292,0-0.529,0.236-0.529,0.528s0.237,0.529,0.529,0.529c-0.292,0-0.529,0.236-0.529,0.528  s0.237,0.528,0.529,0.528v3.172c-0.292,0-0.529,0.236-0.529,0.528s0.237,0.528,0.529,0.528v15.571c0,0,0.093,3.916,2.517,6.526  c2.425,2.61,4.941,6.293,4.988,13.192s0.094,50.068,0.094,50.068v0.373C62.94,97.942,57.146,100,50,100s-12.94-2.058-12.94-4.595  v-0.373c0,0,0.047-43.169,0.093-50.068c0.047-6.899,2.564-10.582,4.988-13.192s2.518-6.526,2.518-6.526l0-15.571  c0.292,0,0.529-0.236,0.529-0.528s-0.237-0.528-0.529-0.528V5.445c0.292,0,0.529-0.236,0.529-0.528s-0.237-0.528-0.529-0.528  c0.292,0,0.529-0.237,0.529-0.529s-0.237-0.528-0.529-0.528l-0.003-1.435C44.655,0.849,47.047,0,49.999,0  c2.95,0,5.342,0.849,5.342,1.896L55.342,3.331z"/>
</svg>