<svg xmlns="http://www.w3.org/2000/svg" xmlns:xlink="http://www.w3.org/1999/xlink" version="1.1" x="0px" y="0px" width="100px" height="70.7491082045px" viewBox="0 0 841.89 595.28" enable-background="new 0 0 841.89 595.28" xml:space="preserve">
<g id="Calque_2">
	<g>
		<polygon stroke="#000000" stroke-width="0.2841" points="227.194,187.145 227.336,185.795 233.303,182.883 233.303,182.244     231.599,181.818 231.599,180.184 233.374,176.632 236.001,176.49 240.973,174.999 242.394,170.879 248.43,167.755     252.764,167.612 260.149,165.694 261.358,165.694 267.253,169.033 275.562,170.667 284.228,170.454 289.341,174.644     291.401,174.786 293.532,174.005 295.236,173.934 302.694,176.847 307.026,175.284 307.098,174.431 306.316,172.513     308.234,171.235 309.371,171.164 309.797,171.732 310.009,174.359 314.129,175.284 314.414,174.289 315.479,174.075     316.544,175.284 316.402,176.349 314.342,178.622 308.163,179.048 304.257,181.747 298.433,183.38 296.586,185.937     294.668,189.275 294.243,191.761 296.87,193.537 299.143,195.81 300.99,196.022 300.99,197.514 299.853,199.93 299.782,201.705     302.339,201.42 305.038,196.377 308.092,194.459 308.447,191.975 313.207,185.439 317.183,185.298 319.313,188.636 319.03,189.63     318.675,190.695 321.445,191.051 323.362,188.565 324.144,188.565 324.64,193.679 327.269,199.646 327.553,201.207     326.629,202.912 321.089,205.54 318.958,205.682 318.319,205.043 313.987,205.114 307.878,208.807 307.878,209.73 308.518,209.73     312.496,207.528 315.905,207.315 315.621,207.955 314.555,209.092 314.697,211.222 317.183,212.359 317.041,213.707     313.49,214.489 312.496,215.199 312.496,215.91 311.714,215.768 311.572,214.915 313.207,213.992 313.276,212.501     310.222,213.282 305.89,215.768 304.328,218.324 301.132,218.751 298.006,223.155 296.941,224.787 295.805,225 296.302,222.94     295.379,222.94 293.746,227.913 289.555,231.037 286.5,234.376 286.003,238.069 285.293,242.402 285.008,244.035 284.085,244.106     282.949,241.124 282.807,236.578 281.031,235.725 278.262,235.584 276.273,236.081 276.131,237.714 274.213,237.856     272.082,236.933 268.104,236.862 264.554,240.271 262.139,244.604 261.428,249.647 262.565,252.771 263.559,254.477     267.963,254.548 269.951,251.352 274.64,250.57 274.64,252.274 271.159,258.383 270.946,259.519 277.409,259.661 276.628,265.485     276.628,268.255 277.835,268.823 278.545,270.172 279.966,271.025 281.315,270.457 282.452,269.817 283.446,270.243     284.228,271.237 284.299,271.735 285.506,271.735 286.855,268.042 288.773,267.474 290.904,266.266 292.396,265.2     293.105,265.414 293.035,266.337 292.182,266.977 291.969,268.042 291.472,268.61 291.365,269.959 292.182,270.706     293.354,270.279 293.354,267.616 294.243,265.698 295.343,265.84 298.575,268.504 301.061,268.965 302.623,268.326     303.795,268.148 304.399,268.361 305.5,270.208 307.346,272.02 308.767,273.191 310.791,275.429 315.585,276.458 317.29,278.27     318.782,280.116 319.633,282.709 319.101,284.591 318.284,285.834 317.467,287.006 317.539,287.681 318.354,287.716     318.354,286.971 320.166,286.011 320.841,285.62 322.013,285.728 322.155,286.296 322.226,286.936 321.8,287.787 320.947,288.106     320.166,288.143 320.166,288.604 320.166,289.207 321.8,289.137 322.9,288.178 323.398,286.615 324.499,286.366 325.707,287.787     327.056,288.568 330.855,290.131 333.768,290.451 337.922,292.937 339.591,292.972 340.479,298.618 335.472,305.508     336.147,308.597 336.111,312.219 334.478,317.547 333.661,321.134 329.222,322.838 325.564,325.146 325.032,330.828     323.683,334.913 322.226,338.712 320.628,340.878 319.42,340.985 316.366,339.138 315.088,339.031 318.462,343.257     317.183,345.282 316.011,346.879 314.058,347.021 312.638,347.591 312.638,348.407 313.312,348.798 312.744,350.289     311.039,350.929 310.685,351.106 310.685,352.101 312.069,353.485 311.537,356.433 310.151,358.741 313.207,360.907     313.17,362.187 312.425,363.606 312.389,366.518 313.241,368.649 312.105,370.283 312.105,371.312 311.146,371.419     309.512,370.105 309.158,368.542 307.914,368.294 303.653,361.014 302.872,360.623 302.304,360.517 302.375,359.63     303.404,358.776 303.511,357.604 301.771,352.562 299.179,351.07 298.966,349.686 298.681,347.732 298.113,346.205     298.433,342.547 298.752,342.334 298.717,337.753 297.687,336.12 297.651,331.29 297.296,329.052 296.977,326.708     296.657,323.939 296.408,321.168 296.195,318.825 295.521,316.41 294.917,315.345 292.004,312.788 290.371,311.438     287.211,307.993 285.435,305.543 284.263,303.412 282.771,300.571 282.097,299.188 281.386,297.233 278.901,295.67     278.794,292.227 280.214,290.77 280.25,289.847 279.185,289.847 279.149,287.716 280.001,283.952 283.375,280.471     283.446,275.749 283.375,273.795 282.878,272.339 282.346,271.807 281.741,271.735 281.031,272.268 280.854,273.759     279.327,273.902 276.77,271.487 274.427,269.889 273.432,268.646 273.254,267.048 272.295,265.308 271.514,263.78 269.88,263.852     267.395,262.04 266.365,261.365 265.299,260.584 264.305,259.199 263.274,258.454 262.529,258.985 261.18,259.625 256.066,256.82     253.438,255.15 251.378,253.482 250.349,251.706 250.668,250.286 250.455,246.521 248.253,241.869 246.726,238.141     245.98,235.157 245.945,231.074 245.874,228.979 245.377,228.979 244.844,230.505 244.098,233.347 243.885,235.229     244.454,237.11 245.803,241.407 246.797,245.314 246.833,246.308 245.59,246.237 244.844,243.929 243.672,241.905     242.465,239.597 242.252,237.962 243.104,235.655 242.5,234.163 242.181,231.783 241.896,230.435 241.79,228.268 239.766,226.28     239.695,223.118 240.192,219.639 241.542,216.123 245.306,209.801 247.685,205.646 249.496,203.267 250.739,203.267     251.023,204.154 251.663,204.262 251.698,203.019 252.231,199.893 251.485,197.976 251.521,195.702 252.835,191.548     254.148,188.139 254.824,186.398 254.788,185.439 254.148,185.546 253.367,185.973 252.302,185.973 251.875,185.298     251.627,184.41 251.201,183.273 249.781,182.954 247.969,181.712 247.152,181.001 246.371,181.001 245.554,181.854     244.17,182.563 243.281,182.918 242.358,183.024 241.115,182.954 240.867,182.457 241.648,181.676 242.571,181.285     243.565,180.468 244.489,179.9 244.56,179.26 243.743,179.26 241.471,180.29 232.841,184.693 229.29,186.505 227.976,187.145       "/>
		<polygon stroke="#000000" stroke-width="0.2841" points="222.649,187.783 222.649,186.647 224.282,186.221 225.418,186.79     225.49,187.499 224.566,187.783   "/>
		<polygon stroke="#000000" stroke-width="0.2841" points="248.786,199.646 248.644,198.296 250.135,198.438 250.419,199.361     251.272,200.426 251.272,202.485 250.775,202.557 249.639,201.349 249.639,199.857   "/>
		<polygon fill="#000000" stroke="#000000" stroke-width="0.2841" points="292.04,214.56 292.892,214.631 294.029,212.501     294.597,212.43 295.307,213.21 295.947,213.141 295.947,211.791 294.739,209.943 292.75,209.73 292.253,209.021 292.04,206.818     290.691,205.398 288.417,205.896 285.08,207.528 285.151,208.311 286.287,208.665 288.276,208.238 289.91,208.807     291.401,209.305 291.472,210.369 288.276,210.583 286.998,211.506 286.216,213.354 285.151,215.626 285.435,216.763     287.353,215.271 287.779,213.495 289.271,212.074 290.691,211.648 291.898,212.146   "/>
		<polygon fill="#000000" stroke="#000000" stroke-width="0.2841" points="289.91,217.543 289.91,216.62 291.898,216.265     293.674,215.91 295.521,215.412 297.58,214.986 298.646,214.276 299.995,214.134 299.853,214.915 298.29,215.839 295.449,216.052     294.597,216.975 291.685,217.686   "/>
		<polygon stroke="#000000" stroke-width="0.2841" points="321.8,207.386 326.487,204.048 327.553,203.693 327.766,204.403     327.056,206.321 327.766,207.244 328.05,209.517 327.694,211.506 325.849,210.512 324.499,209.73 322.369,209.73 321.8,208.097       "/>
		<polygon stroke="#000000" stroke-width="0.2841" points="346.304,155.041 346.445,155.822 342.965,158.024 339.414,158.166     335.65,159.444 331.814,163.351 330.039,163.564 327.411,163.777 326.346,162.57 326.203,161.575 328.121,159.871     331.389,158.521 334.229,157.598 334.3,156.889 331.814,156.461 328.405,156.816 326.701,156.533 326.701,155.609     329.328,155.041 332.099,154.117 335.437,154.117 337.07,155.183 339.556,155.183 342.184,155.183 345.309,154.971   "/>
		<polygon stroke="#000000" stroke-width="0.2841" points="307.595,183.309 306.671,182.386 306.671,181.604 309.299,179.9     310.72,179.9 311.43,180.396 311.43,181.959 311.998,182.67 312.069,183.664 311.146,183.806 310.507,182.67 309.371,182.457     308.66,182.812 308.447,183.451   "/>
		<polygon stroke="#000000" stroke-width="0.2841" points="286.642,169.033 289.413,168.891 291.117,167.186 295.449,165.908     295.379,165.269 292.75,163.777 290.335,164.487 288.133,166.548 286.003,168.181   "/>
		<polygon stroke="#000000" stroke-width="0.2841" points="299.143,163.564 299.143,165.553 303.618,165.411 305.535,164.984     306.813,163.493 306.245,162.001 305.109,161.931 304.044,163.493 303.618,163.493 303.333,163.28 302.339,162.144     301.061,162.356   "/>
		<polyline stroke="#000000" stroke-width="0.2841" points="291.188,170.099 291.188,169.175 294.456,167.258 296.372,167.115     299.498,168.394 301.416,169.033 301.416,170.099 300.35,171.092 300.776,171.732 301.061,172.513 300.635,172.868     299.143,173.082 298.148,173.934 296.799,173.579 295.663,173.01 292.963,173.01 290.193,173.223 288.631,172.017     288.702,171.164 291.188,170.951 292.821,171.306 292.892,170.524 291.472,170.099   "/>
		<polygon stroke="#000000" stroke-width="0.2841" points="304.47,167.968 307.098,166.405 309.867,166.973 309.583,168.109     308.874,169.46 307.595,170.737 305.606,170.667 304.47,169.53   "/>
		<polygon stroke="#000000" stroke-width="0.2841" points="310.365,168.678 310.507,169.956 311.572,170.027 313.348,169.175     315.55,168.038 315.55,166.973 313.207,167.115 311.785,167.542   "/>
		<polygon stroke="#000000" stroke-width="0.2841" points="310.436,163.777 310.791,165.979 311.643,165.837 313.418,164.629     313.49,163.707 312.638,162.997 311.572,162.712 310.649,163.066   "/>
		<polygon stroke="#000000" stroke-width="0.2841" points="316.047,163.209 316.899,165.623 320.308,166.548 326.416,166.548     325.849,165.126 319.882,165.056 318.106,162.783   "/>
		<polygon stroke="#000000" stroke-width="0.2841" points="314.555,172.229 314.272,170.312 318.106,167.684 320.451,167.755     321.729,167.825 321.942,168.464 321.658,169.104 322.369,170.099 325.422,169.53 326.559,170.879 329.044,172.229     330.394,173.862 330.11,174.999 329.187,175.923 329.187,176.49 332.951,178.835 332.737,179.9 328.902,182.172 327.766,181.533     326.914,180.042 326.487,180.184 326.346,182.386 324.286,186.292 323.504,186.576 322.155,185.512 319.101,182.527     315.479,182.527 314.768,181.818 316.544,180.042 317.467,180.042 319.527,180.042 323.362,176.136 324.57,174.999     323.93,173.934 320.166,173.508 317.041,173.01   "/>
		<polygon stroke="#000000" stroke-width="0.2841" points="278.119,249.292 278.119,248.724 279.61,247.87 285.008,248.084     291.046,252.274 291.046,253.127 290.833,253.482 286.5,253.482 286.927,252.417 286.146,251.848 284.725,250.782     283.659,249.362   "/>
		<polygon stroke="#000000" stroke-width="0.2841" points="284.795,255.329 287.069,255.257 286.927,256.536 285.506,256.536     284.725,256.11   "/>
		<polyline stroke="#000000" stroke-width="0.2841" points="289.838,255.542 289.91,256.039 291.827,256.11 293.46,256.394     293.958,256.606 295.379,255.896 298.078,255.613 298.078,254.831 296.586,254.689 294.953,253.41 292.892,253.766     291.898,253.908 292.182,255.187 289.981,255.257   "/>
		<polygon stroke="#000000" stroke-width="0.2841" points="300.208,255.684 301.558,255.613 302.126,256.464 300.208,256.749     299.498,256.251   "/>
		<polyline stroke="#000000" stroke-width="0.2841" points="305.322,258.383 305.961,260.016 307.026,259.731 307.098,258.81     306.529,258.312 305.251,258.099   "/>
		<polygon stroke="#000000" stroke-width="0.2841" points="305.819,260.584 306.885,260.584 306.956,263.141 306.104,262.998     305.819,261.934   "/>
		<polygon stroke="#000000" stroke-width="0.2841" points="364.272,153.407 374.5,153.691 374.5,154.473 373.506,155.112     371.375,155.538 371.375,156.107 372.583,156.746 374.216,157.527 375.565,158.521 377.199,158.095 378.833,157.172     381.461,157.313 383.237,157.527 383.379,158.38 382.171,158.592 379.331,159.729 378.904,160.651 376.063,162.215     373.435,164.274 373.506,166.334 375.779,167.612 375.779,168.322 374.216,170.454 373.009,171.661 371.801,171.661     371.233,171.092 370.026,171.661 370.097,172.868 371.446,174.075 371.446,174.786 370.026,174.929 369.245,174.359     368.677,174.359 368.677,175.354 370.381,176.064 371.517,176.206 371.091,177.556 367.966,177.769 363.065,178.479     357.597,180.609 352.909,182.102 346.587,189.985 345.238,190.695 343.321,188.777 341.119,187.499 341.119,181.747     344.172,177.556 346.232,173.934 344.883,170.879 344.03,166.689 341.544,164.771 339.556,164.842 337.852,164.842     337.639,162.997 339.13,161.931 339.982,162.144 342.042,162.144 343.037,161.361 343.037,159.871 354.613,155.041     356.602,154.898 358.377,156.035 362.853,155.822   "/>
		<polygon stroke="#000000" stroke-width="0.2841" points="367.753,181.959 368.748,180.965 369.812,180.895 370.665,182.315     371.73,182.315 373.151,181.676 375.851,181.249 376.773,182.527 376.347,184.445 374.287,185.795 370.949,185.653     368.818,185.014 368.818,184.019 368.037,183.664   "/>
		<polygon stroke="#000000" stroke-width="0.2841" points="377.768,204.972 378.336,203.764 377.768,203.408 378.265,201.989     379.543,199.857 381.177,199.147 382.668,199.147 383.45,199.361 382.597,201.207 381.816,203.125 380.111,205.256     379.473,205.185 378.975,204.759 378.336,204.972   "/>
		<polygon stroke="#000000" stroke-width="0.2841" points="386.859,193.396 386.859,193.963 386.433,194.531 387.569,195.028     388.066,196.022 386.859,196.663 387.001,197.656 387.924,199.219 388.706,201.136 389.558,202.77 391.12,202.983     391.049,204.048 390.055,205.398 387.782,206.037 384.941,206.464 382.668,206.96 382.81,206.108 384.444,205.611     384.444,204.901 383.947,204.262 384.657,202.628 386.291,201.491 386.362,199.787 385.296,199.502 383.662,197.727     383.662,195.454 384.657,193.537   "/>
		<polygon stroke="#000000" stroke-width="0.2841" points="377.484,227.132 377.484,219.319 377.697,217.686 379.331,217.188     381.816,217.188 384.23,217.757 385.438,217.97 386.859,217.188 386.504,216.123 387.214,214.915 387.072,212.501     385.509,211.506 384.088,210.796 383.592,210.369 383.45,209.375 386.006,209.375 386.291,208.238 385.793,207.6 386.93,207.528     387.569,208.452 388.918,208.452 391.617,205.611 392.683,205.114 393.393,204.048 394.174,203.551 394.459,204.546     394.956,204.475 394.885,202.273 396.376,201.847 398.294,201.278 398.72,199.646 398.578,197.229 398.437,195.951     399.573,195.17 400.637,194.957 400.993,196.236 400.993,197.798 400.283,198.579 400.283,199.93 401.277,200.354     403.195,200.568 404.544,200.497 406.177,199.93 407.527,199.787 409.232,199.716 410.298,200.071 411.007,199.93     411.504,198.082 412.285,196.165 412.925,195.241 413.848,195.312 414.204,195.667 415.269,195.241 415.269,194.318     414.842,192.685 417.399,192.4 418.677,192.4 420.169,191.619 419.602,190.695 419.105,190.553 417.826,190.625 416.761,190.979     415.482,191.619 413.777,191.548 411.931,187.926 411.931,186.79 413.494,185.298 414.701,183.877 414.701,182.102     413.99,182.102 412.997,181.676 411.718,183.024 410.51,184.517 410.439,185.512 409.019,186.435 407.882,188.849     408.592,190.625 408.592,191.975 407.456,193.892 406.675,195.81 406.675,196.663 405.965,197.442 405.112,197.94     404.687,198.722 403.409,198.792 403.053,197.302 402.626,195.88 401.774,195.17 401.774,193.608 401.277,193.749     401.277,192.685 399.999,193.396 399.288,193.537 398.791,194.247 397.229,194.318 396.376,193.181 396.376,189.134     398.294,187.783 399.999,186.15 403.409,182.954 405.894,180.468 409.16,177.343 414.63,173.65 417.045,173.65 419.318,174.715     420.667,175.354 424.36,176.774 427.556,178.977 428.48,178.977 429.119,179.971 429.688,180.256 429.688,181.462     429.119,182.172 427.627,182.244 425.924,181.392 424.36,180.822 422.728,180.325 422.655,181.747 423.721,182.599     424.999,183.309 426.917,185.298 428.196,185.298 430.61,182.812 431.392,182.599 432.67,181.462 432.954,181.959     434.091,182.031 434.091,180.681 433.381,180.042 433.381,179.048 432.527,178.55 432.527,177.272 433.381,177.272     434.942,178.266 435.014,179.758 435.654,179.829 438.068,179.19 440.909,178.053 443.182,177.343 446.733,176.349     450.284,176.064 452.132,177.2 453.622,177.059 453.622,176.136 452.486,174.572 451.562,174.359 451.492,173.01 453.622,170.879     453.978,170.24 455.754,170.099 456.108,170.667 455.968,172.442 459.375,176.988 459.375,178.622 458.097,179.26     457.671,180.113 459.447,180.113 460.654,179.048 460.726,176.988 462.571,176.988 463.354,176.774 463.211,175.994     460.584,175.213 458.666,173.862 457.743,171.874 462.005,169.46 463.779,167.968 466.193,165.979 472.231,164.062     474.646,163.564 483.95,163.493 485.37,163.919 485.016,165.34 483.026,168.038 483.169,168.322 483.879,168.394 487.289,166.759     491.267,166.548 504.833,168.891 506.394,169.175 509.804,168.891 510.301,167.542 511.012,166.405 513.142,166.548     518.822,167.896 524.222,167.684 528.057,167.542 532.248,168.82 535.729,168.749 539.634,166.973 543.043,167.045     551.212,167.968 556.822,169.53 559.948,170.24 561.509,171.732 561.509,172.442 560.23,172.442 558.526,171.945 557.177,171.945     556.325,172.017 555.544,171.732 554.833,171.945 554.762,173.791 557.035,174.715 559.022,175.213 559.876,175.852     559.664,176.917 557.391,180.325 557.391,180.965 554.266,181.249 552.702,182.244 553.484,183.593 556.183,186.221     558.668,190.127 559.806,193.679 559.806,195.951 558.952,195.88 557.533,194.247 555.116,191.761 551.921,188.99     549.507,187.429 549.578,185.368 550.571,183.947 550.146,181.604 549.079,179.687 548.37,179.615 547.589,180.681     547.092,180.681 546.312,180.113 545.102,180.325 544.89,182.244 545.742,184.019 544.25,185.227 541.622,185.653     539.207,185.795 536.793,185.937 534.52,186.576 533.951,187.216 534.023,192.188 535.869,194.176 536.793,194.247     537.148,193.749 538.568,193.749 540.203,195.099 542.546,197.94 544.322,201.065 545.457,203.977 546.24,207.884     546.312,211.648 542.901,212.784 542.263,215.768 541.978,218.324 543.47,220.669 545.457,223.438 545.885,224.148     545.885,225.285 544.535,226.351 543.327,226.989 543.256,225.711 541.978,223.509 540.914,221.592 539.35,220.455     537.148,218.253 536.58,218.253 535.229,219.746 534.023,219.247 534.023,217.898 534.379,217.33 532.958,217.188     530.756,219.461 530.685,220.669 532.105,222.018 535.088,222.23 536.58,222.657 536.366,223.651 535.585,224.006     535.729,225.711 538.568,230.327 539.989,233.311 539.136,233.808 540.06,234.589 540.983,235.584 540.983,240.911     539.492,242.899 535.655,246.734 532.318,248.935 531.112,250.782 530.187,250.782 529.691,249.575 528.696,248.794     527.347,249.433 525.784,253.197 526.14,254.689 529.335,257.602 531.537,260.087 531.678,264.846 530.685,266.621     529.619,267.971 528.128,269.25 527.489,270.387 526.565,270.457 526.494,269.179 525.926,268.113 524.861,267.474     523.583,266.266 523.44,264.846 522.304,264.42 521.239,263.709 520.812,262.787 519.32,262.787 519.961,266.479 519.961,269.392     521.31,272.302 522.587,274.293 524.15,276.636 525.215,279.051 526.068,280.613 525.713,281.68 524.791,281.75 523.512,280.4     522.872,280.4 520.6,275.429 519.463,273.866 517.476,271.807 517.404,266.691 517.12,263.213 516.054,260.016 514.776,256.891     514.064,257.104 513.07,258.312 511.862,258.738 510.797,258.24 511.225,255.115 508.667,252.274 507.317,251.066     507.104,249.931 507.033,247.942 505.471,247.942 504.051,249.859 502.914,249.718 502.416,249.008 501.068,249.647     499.789,252.417 498.014,254.76 496.379,256.82 493.964,260.3 493.042,264.988 492.543,268.255 491.621,272.374 490.627,272.232     489.562,271.664 488.284,268.397 486.649,265.343 483.808,258.951 482.742,254.618 482.458,250.144 481.251,250.144     481.04,252.203 480.257,252.487 478.979,251.777 476.848,249.575 476.138,248.297 475.428,247.089 473.794,245.526 465.2,245.456     463.637,244.959 461.791,244.249 461.791,242.828 460.726,242.047 459.163,242.26 458.311,243.042 456.038,243.042     454.972,241.976 452.486,239.632 451.137,238.212 449.575,238.354 448.721,239.349 448.936,240.057 450.64,241.55     451.492,243.183 452.344,243.538 452.558,244.604 453.268,244.817 454.333,244.249 454.972,244.888 454.972,246.806     455.968,247.019 457.884,247.231 458.666,246.167 459.59,244.675 460.938,244.675 460.868,246.451 461.15,247.587     462.288,248.084 463.779,248.368 464.562,248.794 465.058,249.647 463.708,253.766 461.791,256.251 459.803,258.099     458.382,258.951 455.826,260.655 453.978,262.502 452.203,263.709 447.231,264.846 445.739,265.2 444.247,262.787     443.607,261.507 442.969,256.963 439.347,252.062 433.948,243.538 432.457,239.632 431.747,240.413 431.32,240.271     431.249,239.845 429.829,239.774 430.185,241.124 430.967,243.396 433.664,248.581 435.938,252.203 436.009,254.689     438.991,257.743 439.702,260.939 440.554,261.437 442.614,263.567 444.532,265.627 444.462,268.61 445.669,268.751     448.438,268.042 452.913,266.55 455.256,266.195 455.398,267.332 451.208,277.56 447.585,282.389 443.254,286.863     439.914,290.983 439.632,296.026 441.193,305.686 441.335,308.313 438.424,311.438 435.299,314.066 432.67,316.268     433.381,319.677 433.31,323.229 430.042,325.359 430.042,326.496 427.627,331.112 424.218,335.018 421.59,337.079     418.891,337.434 415.411,338.285 413.777,339.636 412.783,339.493 412.356,338.712 410.368,337.292 410.084,333.669     406.746,327.703 405.965,322.305 405.467,319.677 402.698,313.498 402.769,307.745 405.325,302.773 404.188,295.813     402.201,291.622 398.578,286.153 399.217,283.313 400.069,280.897 400.212,279.122 398.223,278.838 396.021,278.838     393.677,275.5 391.262,275.784 385.865,277.204 379.117,279.335 376.489,278.838 370.594,272.517 366.333,267.26 364.912,264.136     364.912,260.727 365.835,257.245 365.764,253.553 366.119,250.641 369.6,243.681 371.446,241.55 372.654,241.55 375.495,238.141     375.92,235.796 376.419,234.589 378.762,232.956 379.615,231.819 381.035,229.546 381.958,229.546 383.308,230.256     384.941,230.186 388.918,228.694 392.186,227.983 394.104,227.559 396.021,227.061 398.791,227.061 401.987,227.273     401.845,228.979 401.064,231.037 401.348,231.891 402.698,233.097 404.26,233.666 406.604,233.95 407.313,234.163     407.811,235.939 409.587,236.933 412.356,237.43 413.423,237.43 413.563,236.436 413.067,236.436 413.139,235.157 414.63,234.305     416.831,233.808 418.039,234.731 419.602,235.868 421.732,237.217 423.649,237.217 424.929,236.508 427.06,236.081     428.054,236.151 429.332,236.293 429.971,236.72 430.753,235.37 431.249,233.879 431.89,231.748 431.89,230.541 431.89,228.836     432.386,228.481 432.386,227.842 429.616,228.055 427.627,227.983 425.354,228.268 422.939,228.339 421.946,227.345 421.306,225     420.667,222.657 421.946,222.657 422.728,221.876 423.366,221.449 424.36,221.449 425.994,221.165 426.704,220.526     427.556,219.958 428.409,219.177 430.255,219.177 431.392,219.887 433.097,220.171 434.304,220.455 435.654,220.669     437.926,220.597 437.855,219.177 438.21,218.467 437.429,217.757 436.576,217.757 435.512,216.903 434.73,216.194     433.238,215.341 432.6,214.631 432.812,213.495 433.807,212.501 434.518,212.074 434.518,211.435 433.664,211.222     433.025,211.506 430.042,212.998 430.895,213.85 430.895,214.773 429.475,215.626 428.55,215.626 427.627,214.702     426.988,212.643 426.633,212.074 425.781,212.359 424.005,213.141 423.083,215.768 422.088,217.614 422.088,219.532     422.655,220.597 421.021,222.089 420.027,222.089 419.105,221.449 417.187,221.876 416.831,222.94 416.619,224.646     416.619,225.427 416.619,228.126 414.984,228.41 413.919,227.415 413.919,225.427 414.771,225.214 413.563,224.575     412.783,223.368 411.86,221.236 410.652,219.603 409.089,218.608 406.888,216.548 405.538,215.98 404.757,215.128     404.331,214.418 403.55,214.418 403.266,215.555 403.976,216.265 404.757,217.686 404.97,218.467 406.533,219.247     407.882,219.746 407.882,220.739 409.516,221.805 410.439,222.728 410.937,223.793 410.439,223.793 409.8,223.155     409.302,223.155 409.089,225.641 408.734,226.208 408.096,226.208 407.953,224.22 407.03,223.083 405.894,221.876     404.687,220.952 403.195,220.81 402.201,220.241 400.851,218.041 400.354,216.903 399.359,216.123 398.365,216.548     396.802,218.253 395.453,218.537 394.743,217.757 392.967,218.537 392.612,219.958 388.99,223.013 387.569,226.066     385.935,228.766 384.941,228.694 383.662,228.126 382.526,228.41 380.893,228.694 379.401,227.983 378.407,227.771   "/>
		<polygon stroke="#000000" stroke-width="0.2841" points="399.431,217.472 398.437,218.608 398.578,220.03 398.578,220.526     399.644,220.526 399.928,220.1 399.928,218.751   "/>
		<polygon stroke="#000000" stroke-width="0.2841" points="398.223,222.018 398.791,221.521 399.786,221.308 399.856,221.876     399.501,222.94 399.786,223.155 399.359,224.148 398.791,224.29 398.437,223.936 398.152,222.799   "/>
		<polygon stroke="#000000" stroke-width="0.2841" points="403.621,225.996 403.763,226.422 405.112,227.345 406.177,228.268     407.456,228.126 407.599,226.634 406.888,225.854 405.751,225.854   "/>
		<polygon stroke="#000000" stroke-width="0.2841" points="416.902,230.186 416.902,229.688 418.181,230.186 420.667,230.114     420.88,230.612 419.602,231.251 418.82,230.753 417.968,230.541   "/>
		<polygon stroke="#000000" stroke-width="0.2841" points="428.054,230.896 428.835,229.688 430.967,229.05 431.179,229.831     430.469,230.753 429.261,231.464 428.55,231.535   "/>
		<polygon stroke="#000000" stroke-width="0.2841" points="438.495,170.17 437.926,173.152 440.839,173.65 441.548,174.146     444.034,174.075 444.034,173.508 442.188,173.082 441.762,172.513 441.122,170.027   "/>
		<polygon stroke="#000000" stroke-width="0.2841" points="439.418,169.388 441.619,169.317 442.756,168.252 443.182,168.252     444.462,167.258 445.669,167.258 448.154,165.411 448.226,163.564 447.585,163.493 445.171,165.766 443.892,165.766     442.046,165.623 441.193,166.619 440.554,167.612 439.632,167.755   "/>
		<polygon stroke="#000000" stroke-width="0.2841" points="541.127,193.749 541.339,193.04 542.263,193.11 542.973,193.82     544.25,195.667 545.67,197.158 546.381,197.158 548.867,199.857 549.933,200.426 549.791,200.994 549.436,201.775 550.43,203.551     551.283,204.332 552.205,205.043 552.205,206.037 551.565,206.037 551.565,206.392 550.785,206.392 549.862,204.19     548.583,203.408 547.589,201.989 545.885,199.93 544.037,197.869 542.334,195.028   "/>
		<polygon stroke="#000000" stroke-width="0.2841" points="551.779,208.807 551.921,208.097 553.058,207.6 553.91,208.025     554.905,208.025 556.396,208.311 557.035,208.594 558.029,209.446 558.029,210.653 557.177,211.577 556.893,212.288     555.97,212.43 555.259,211.933 554.549,211.933 554.479,213.354 553.341,213.354 552.702,212.43 552.277,211.577 552.489,210.725     552.845,210.085 552.702,209.588   "/>
		<polygon stroke="#000000" stroke-width="0.2841" points="554.123,214.276 555.259,214.205 556.537,215.341 557.957,217.614     558.812,220.384 559.45,222.23 559.095,224.858 557.248,225.072 556.183,224.006 554.194,224.006 552.277,225.143     552.205,227.061 550.928,227.629 549.647,227.415 549.507,226.492 550.785,224.93 553.769,222.728 553.839,220.952     554.479,220.952 555.544,221.379 556.183,219.247 555.188,218.396 554.407,215.91   "/>
		<polyline stroke="#000000" stroke-width="0.2841" points="549.15,229.618 550.217,229.688 550.358,230.327 550.714,231.606     551.212,232.388 552.205,232.316 552.915,231.181 551.992,229.972 551.141,228.268 549.933,228.126 549.223,228.339     549.009,229.333   "/>
		<polygon stroke="#000000" stroke-width="0.2841" points="553.058,226.705 554.479,226.563 555.188,226.137 556.183,225.143     555.4,224.787 553.98,225.072 553.271,225.641   "/>
		<polygon fill="#000000" stroke="#000000" stroke-width="0.2841" points="507.033,195.454 507.602,194.815 507.956,195.454     507.886,198.438 507.39,199.857 506.607,200.781 505.541,201.065 505.541,200.214 506.607,199.219 507.176,197.656   "/>
		<polygon fill="#000000" stroke="#000000" stroke-width="0.2841" points="450.854,213.636 450.143,213.636 449.929,214.489     449.077,214.986 448.438,215.483 448.651,216.123 449.504,216.763 451.208,219.105 451.208,221.308 452.415,222.302     453.41,223.793 453.906,225.711 454.617,226.634 454.547,227.345 453.268,228.126 452.273,228.126 449.718,226.705     448.084,226.28 448.084,223.936 448.936,221.521 447.018,219.461 444.105,216.335 444.034,214.276 446.023,212.643     448.863,211.719 449.929,211.364 450.925,211.577 451.421,212.216 451.351,213.068   "/>
		<polygon fill="#000000" stroke="#000000" stroke-width="0.2841" points="459.163,211.079 460.797,211.079 461.081,211.577     461.364,214.134 460.584,215.626 459.447,215.98 458.097,215.98 457.671,214.347 457.743,212.714 458.524,211.861   "/>
		<polygon fill="#000000" stroke="#000000" stroke-width="0.2841" points="474.576,211.577 473.864,211.719 474.006,212.571     474.646,212.784 475.215,213.424 475.782,213.495 475.996,212.571 475.996,211.861 477.984,211.791 479.547,211.648     480.896,211.222 480.896,210.512 479.831,210.512 479.263,210.867 478.482,210.653 477.487,210.299 476.777,210.015     475.854,210.015 475.144,210.583   "/>
		<polygon fill="#000000" stroke="#000000" stroke-width="0.2841" points="429.971,285.017 431.747,284.378 432.67,284.449     433.807,284.804 433.735,285.373 433.168,286.296 432.386,287.361 432.386,289.137 430.967,289.279 429.688,288.143   "/>
		<polygon fill="#000000" stroke="#000000" stroke-width="0.2841" points="426.633,291.907 426.562,295.103 427.77,297.446     428.55,297.518 428.55,296.026 427.556,294.179 427.556,292.759 427.272,291.765   "/>
		<polygon fill="#000000" stroke="#000000" stroke-width="0.2841" points="431.89,300.217 432.741,299.933 432.812,301.495     433.168,304.762 433.451,307.177 432.741,306.893 432.245,306.04 432.103,304.265 432.174,301.921   "/>
		<polygon stroke="#000000" stroke-width="0.2841" points="445.241,315.912 445.313,313.995 444.817,313.782 445.597,310.87     447.656,309.308 448.863,308.384 449.929,306.68 452.629,303.768 453.196,303.625 453.268,305.756 453.339,310.16 450.64,317.547     449.007,323.584 446.308,324.508 444.817,324.578 443.679,322.092 443.538,319.677   "/>
		<polygon stroke="#000000" stroke-width="0.2841" points="459.447,317.121 459.59,318.114 460.37,318.612 461.293,318.612     461.435,317.973 460.37,317.121   "/>
		<polygon stroke="#000000" stroke-width="0.2841" points="462.927,315.7 463.425,315.7 463.637,316.553 463.211,317.263     462.5,317.191   "/>
		<polygon stroke="#000000" stroke-width="0.2841" points="543.043,242.473 544.181,242.189 544.749,244.035 544.749,244.888     545.315,247.587 544.322,247.587 543.043,246.451 542.475,244.745   "/>
		<polygon stroke="#000000" stroke-width="0.2841" points="544.605,253.269 546.594,253.127 548.016,254.974 547.163,257.245     548.016,259.945 550.004,260.513 551.707,261.934 551.992,262.929 550.856,262.929 549.15,261.224 546.879,261.365     544.89,258.524 544.605,257.104 545.173,256.394 544.89,254.405   "/>
		<polygon stroke="#000000" stroke-width="0.2841" points="494.177,269.036 495.74,271.451 497.02,272.872 496.167,274.86     494.036,275.429 493.042,273.581 493.326,271.451 493.752,269.746   "/>
		<polygon stroke="#000000" stroke-width="0.2841" points="515.485,275.854 520.173,279.69 524.435,284.235 527.134,287.219     528.837,289.207 528.555,291.338 528.555,293.042 526.707,293.469 523.583,290.486 520.03,284.804 517.332,280.827     515.201,277.701 514.349,277.701 514.207,276.423   "/>
		<polygon stroke="#000000" stroke-width="0.2841" points="526.85,295.6 527.56,294.321 529.832,293.61 531.537,294.321     534.946,294.747 536.937,295.6 539.207,297.446 539.776,299.292 538.355,299.152 536.937,298.299 534.946,298.157     533.099,297.446 529.691,296.594 528.555,295.6   "/>
		<polyline stroke="#000000" stroke-width="0.2841" points="546.326,266.059 545.988,267.67 544.971,269.45 544.123,269.45     544.207,268.094 545.055,267.076 545.395,266.059 546.241,265.805   "/>
		<polygon stroke="#000000" stroke-width="0.2841" points="549.378,264.534 550.988,264.788 550.988,265.551 550.226,266.653     549.293,266.907 549.039,265.636   "/>
		<polygon stroke="#000000" stroke-width="0.2841" points="547.937,270.552 548.616,269.536 549.463,269.026 550.057,269.026     550.649,268.772 551.159,267.755 552.091,267.755 552.43,268.688 553.108,269.958 551.498,272.502 549.887,272.586     549.802,271.146 549.547,270.807 548.276,270.891   "/>
		<polygon stroke="#000000" stroke-width="0.2841" points="543.867,273.604 544.717,274.366 545.309,275.13 546.072,276.231     544.631,277.503 544.207,279.706 545.225,281.062 545.818,282.928 544.293,284.453 542.937,287.505 541.749,290.557     540.903,291.235 539.29,291.235 534.714,289.115 533.781,286.234 533.188,283.437 533.188,281.91 533.867,281.91 537.681,279.453     540.055,276.655 541.324,274.96 541.749,273.519   "/>
		<polygon stroke="#000000" stroke-width="0.2841" points="558.787,280.639 559.348,281.571 559.348,283.86 558.873,285.131     558.278,285.131 557.601,283.944 557.517,282.588 557.686,281.232 558.449,280.47   "/>
		<polygon stroke="#000000" stroke-width="0.2841" points="553.786,282.42 554.38,282.334 554.463,282.927 553.786,283.691     552.092,283.775 548.616,284.029 548.191,286.742 549.971,285.894 551.413,285.131 552.601,285.302 552.514,285.979     551.666,286.064 549.971,287.336 549.803,288.522 551.073,290.217 551.413,291.404 550.736,292.591 549.125,293.015     549.039,291.828 548.869,289.201 547.937,289.201 547.598,290.726 548.022,293.438 547.853,293.862 546.667,293.862     546.667,291.404 545.988,289.879 545.988,287.166 547.259,283.605 548.022,282.504 549.971,282.504 550.226,283.098     552.008,283.098   "/>
		<polygon stroke="#000000" stroke-width="0.2841" points="541.156,299.372 541.833,298.439 542.682,298.016 544.802,298.016     544.972,298.778 544.208,299.456   "/>
		<polygon stroke="#000000" stroke-width="0.2841" points="546.497,298.439 546.497,299.202 547.259,299.796 549.125,299.711     550.904,298.439 550.988,297.508 550.312,297.508 549.04,298.27   "/>
		<polygon stroke="#000000" stroke-width="0.2841" points="551.498,300.389 551.498,301.745 552.685,301.575 553.786,300.812     555.736,299.796 556.33,299.542 556.33,298.609 555.567,298.609 553.786,299.202 552.685,299.542 552.345,300.22   "/>
		<polygon stroke="#000000" stroke-width="0.2841" points="558.449,289.031 560.058,289.2 561.415,289.879 561.498,290.641     559.804,290.811 558.533,290.217   "/>
		<polygon stroke="#000000" stroke-width="0.2841" points="562.433,286.488 563.788,289.793 565.822,290.217 568.197,292.337     570.485,293.862 571.079,294.88 571.163,297.508 573.368,299.202 575.571,299.711 576.927,300.389 578.791,298.101     579.724,298.016 581.506,300.136 582.437,301.915 584.303,302.763 586.166,302.847 586.422,301.745 584.556,299.118     583.455,297.338 583.114,296.49 583.455,295.303 580.318,292.676 577.521,290.557 575.486,289.793 573.199,288.776     570.061,288.183 568.197,289.37 566.67,289.539 566.757,288.522 566.757,287.25 566.416,286.656 565.145,286.064 564.042,285.64     563.365,285.809   "/>
		<polygon stroke="#000000" stroke-width="0.2841" points="584.388,295.473 588.285,295.473 589.303,294.117 589.303,291.573     588.626,291.658 588.455,292.676 587.947,293.607 587.947,294.201 587.438,294.201 586.676,293.607 586.166,293.607     585.912,294.117 585.149,294.287 584.556,294.795   "/>
		<polygon stroke="#000000" stroke-width="0.2841" points="575.825,302.933 576.589,302.933 576.844,309.374 577.521,315.562     580.233,322.428 581.759,330.651 579.725,335.566 575.147,342.941 569.215,349.299 567.942,349.978 566.163,350.315     564.723,351.503 563.281,352.097 562.178,351.841 562.178,350.91 560.907,350.91 559.974,352.182 558.873,351.333     557.431,349.129 556.924,346.502 556.245,344.044 558.025,342.518 558.11,341.67 557.177,341.67 555.312,342.602 554.974,343.704     554.127,344.044 553.955,342.434 554.041,339.891 553.023,338.873 545.649,339.127 539.971,340.229 534.799,342.518     532.85,342.857 531.578,342.941 530.221,341.161 532.087,334.719 533.189,327.684 533.782,321.411 539.122,318.614     543.784,317.766 549.973,312.087 553.871,308.611 555.821,308.527 555.821,309.798 558.278,309.798 557.431,308.781     557.602,307.679 559.042,307.17 561.075,304.628 562.094,303.355 563.281,303.355 564.297,304.288 566.926,304.713 567.35,305.73     565.822,309.629 565.992,311.154 566.926,312.172 569.553,314.8 571.079,314.546 573.283,310.223 573.877,306.747     574.723,304.119   "/>
		<polygon stroke="#000000" stroke-width="0.2841" points="558.787,354.979 559.721,354.809 560.483,355.487 561.755,355.063     562.518,355.063 563.111,355.148 563.365,356.504 561.755,357.86 561.331,358.708 560.229,359.641 558.787,359.811     557.517,359.641 557.517,357.86 558.278,355.827 558.364,354.809   "/>
		<polygon stroke="#000000" stroke-width="0.2841" points="596.593,347.859 597.271,348.791 597.779,352.183 597.779,354.047     599.646,354.385 599.646,355.572 597.949,355.488 596.255,356.674 594.388,358.708 593.118,360.403 591.762,360.149     591.932,358.539 592.524,356.419 594.136,355.657 595.406,353.962 595.914,351.418 596.169,348.791   "/>
		<polygon stroke="#000000" stroke-width="0.2841" points="589.643,358.369 590.744,359.641 590.828,361.082 588.965,361.76     585.828,362.777 583.455,364.642 582.099,365.575 581.08,367.016 579.979,367.609 577.775,367.694 576.758,367.524     576.503,365.829 577.775,364.98 580.912,363.965 582.861,362.353 585.489,361.251 587.524,359.047   "/>
	</g>
</g>
<g id="Calque_5">
</g>
<g id="Calque_3">
</g>
<g id="Calque_4">
</g>
<g id="Calque_1">
</g>
<g id="Calque_6">
</g>
</svg>