<svg xmlns="http://www.w3.org/2000/svg" xmlns:xlink="http://www.w3.org/1999/xlink" version="1.1" id="Layer_1" x="0px" y="0px" width="100px" height="100px" viewBox="0 0 100 100" enable-background="new 0 0 100 100" xml:space="preserve">
<path d="M87.695,34.742L57.368,4.415H21.377c-4.448,0-8.054,3.605-8.054,8.054v75.503c0,4.447,3.606,8.053,8.054,8.053h58.389  c4.448,0,8.054-3.606,8.054-8.053L87.695,34.742z M77.755,88.253h-54.37c-1.585,0-2.88-1.297-2.88-2.881V15.065  c0-1.586,1.294-2.881,2.88-2.881h31.013h1.009v1.008v18.359c-0.008,0.127-0.213,2.306,1.123,3.782  c0.877,0.968,2.26,1.459,4.123,1.459c6.87,0,18.769,0.34,18.89,0.34l0.975,0.028l0.006,0.975l0.114,47.247  C80.638,86.967,79.343,88.253,77.755,88.253z"/>
<polyline points="62.688,85.763 60.166,70.34 50.38,76.865 57.053,67.226 40.889,64.78 57.127,63.148 49.935,53.063 59.723,59.438   62.393,43.87 64.616,59.438 74.032,52.693 67.435,62.259 83.747,65 67.805,66.928 74.85,77.605 64.024,69.821 "/>
<polyline fill="#000000" points="62.715,83.776 60.447,69.909 51.648,75.776 57.646,67.109 43.117,64.91 57.715,63.444   51.248,54.377 60.048,60.11 62.448,46.112 64.448,60.11 72.912,54.045 66.98,62.644 81.646,65.11 67.313,66.842 73.648,76.442   63.914,69.442 "/>
<polyline points="62.783,82.1 60.675,69.387 52.485,74.765 58.07,66.821 44.547,64.805 58.129,63.461 52.113,55.15 60.301,60.402   62.534,47.573 64.396,60.402 72.271,54.844 66.755,62.727 80.397,64.987 67.063,66.575 72.955,75.376 63.898,68.96 "/>
</svg>