<svg xmlns="http://www.w3.org/2000/svg" xmlns:xlink="http://www.w3.org/1999/xlink" version="1.1" id="Layer_1" x="0px" y="0px" width="100px" height="100px" viewBox="0 0 100 100" enable-background="new 0 0 100 100" xml:space="preserve">
<path d="M87.949,5.556H12.065c-3.587,0-6.5,2.913-6.5,6.5V87.94c0,3.592,2.913,6.505,6.5,6.505h75.884  c3.588,0,6.509-2.913,6.509-6.505V12.056C94.458,8.469,91.537,5.556,87.949,5.556z M22.005,5.736h54.934v24.036  c0,3.592-2.913,6.505-6.509,6.505h-41.92c-3.591,0-6.504-2.913-6.504-6.505V5.736z M80.999,92.921h-62.61V53.619  c0-3.59,2.913-6.504,6.509-6.504h49.601c3.596,0,6.5,2.914,6.5,6.504V92.921z"/>
<path d="M54.159,12.57v14.133h7.451V12.57H54.159z M60.069,25.162h-4.366V14.115h4.366V25.162z"/>
<rect x="21.555" y="55.614" width="56.291" height="2.528"/>
<rect x="21.916" y="68.583" width="56.29" height="2.532"/>
<rect x="21.916" y="81.637" width="56.29" height="2.527"/>
</svg>