<svg xmlns="http://www.w3.org/2000/svg" xmlns:xlink="http://www.w3.org/1999/xlink" version="1.1" id="&#1057;&#1083;&#1086;&#1081;_1" x="0px" y="0px" width="42.218px" height="100px" viewBox="0 0 42.218 100" enable-background="new 0 0 42.218 100" xml:space="preserve">
<g id="XMLID_3_">
	<g>
		<polygon points="42.218,14.176 42.218,25.223 34.852,29.708 31.856,29.708 31.856,9.029 34.852,9.029   "/>
		<polygon points="30.326,9.034 30.326,29.729 29.228,29.729 21.969,18.815 28.995,9.029   "/>
		<polygon points="26.101,29.729 26.101,75.783 21.109,75.783 16.116,75.783 16.116,29.729 14.833,29.729 21.109,20.413     27.386,29.729   "/>
		<polygon points="27.187,8.923 21.109,17.393 15.029,8.923 16.223,8.923 16.223,3.027 21.109,0 25.993,3.027 25.993,8.923   "/>
		<polygon points="26.018,89.763 26.018,90.421 21.144,90.421 21.074,90.421 16.199,90.421 16.199,89.763 21.074,87.564     21.144,87.564   "/>
		<polygon points="26.018,91.95 25.993,97.721 22.655,99.985 21.109,100 19.561,99.985 16.223,97.721 16.199,91.95 21.074,91.95     21.144,91.95   "/>
		<polygon points="25.993,85.343 25.993,88.102 22.981,86.723   "/>
		<polygon points="25.993,80.104 25.993,83.661 21.144,85.882 21.074,85.882 16.223,83.661 16.223,80.104 21.074,80.104     21.144,80.104   "/>
		<polygon points="25.993,77.313 25.993,78.575 21.147,78.575 21.071,78.575 16.223,78.575 16.223,77.313 21.109,77.313   "/>
		<polygon points="13.223,9.029 20.248,18.815 12.988,29.729 11.892,29.729 11.892,9.034   "/>
		<polygon points="19.237,86.723 16.223,88.102 16.223,85.343   "/>
		<polygon points="10.362,9.029 10.362,29.708 7.367,29.708 0,25.223 0,14.176 7.367,9.029   "/>
	</g>
</g>
</svg>