<?xml version="1.0" encoding="utf-8"?>
<!-- Generator: Adobe Illustrator 14.0.0, SVG Export Plug-In . SVG Version: 6.00 Build 43363)  -->
<!DOCTYPE svg PUBLIC "-//W3C//DTD SVG 1.0//EN" "http://www.w3.org/TR/2001/REC-SVG-20010904/DTD/svg10.dtd">
<svg version="1.0" id="Layer_1" xmlns="http://www.w3.org/2000/svg" xmlns:xlink="http://www.w3.org/1999/xlink" x="0px" y="0px"
	 width="77.112px" height="100px" viewBox="0 0 77.112 100" enable-background="new 0 0 77.112 100" xml:space="preserve">
<path d="M47.619,76.362c14.407-5.309,23.655-13.404,27.485-24.063c7.05-19.616-6.332-42.57-11.369-51.212L63.102,0h-49.09
	l-0.634,1.087C8.341,9.729-5.041,32.683,2.009,52.299C5.84,62.958,15.087,71.054,29.495,76.362c2.614,0.963,3.512,4.074,3.776,5.367
	c0.576,2.818-0.041,4.84-0.392,5.194c-2.619,1.736-6.206,2.32-10.743,3.061c-3.272,0.534-6.982,1.139-11.262,2.301
	c-0.683,0.186-1.253,0.663-1.563,1.311c-0.227,0.47-0.755,1.571,0.773,5.088L10.657,100h55.799l0.572-1.316
	c1.528-3.517,1-4.618,0.774-5.088c-0.312-0.647-0.881-1.125-1.564-1.311c-4.279-1.162-7.988-1.767-11.262-2.301
	c-4.537-0.74-8.124-1.324-10.742-3.061c-0.352-0.354-0.969-2.376-0.393-5.194C44.106,80.437,45.004,77.325,47.619,76.362z
	 M5.107,47.24C1.583,31.055,11.744,12.631,16.528,4.378h44.057C65.37,12.631,75.53,31.055,72.006,47.24H60.595
	c0.002-0.088,0.007-0.177,0.007-0.266c0-5.361-4.347-9.707-9.707-9.707s-9.706,4.346-9.706,9.707c0,0.089,0.004,0.177,0.006,0.266
	H5.107z M39.339,82.181c-0.356,3.021,0.099,6.808,2.445,8.372c3.409,2.273,7.416,2.927,12.488,3.753
	c2.186,0.356,4.574,0.746,7.179,1.315H15.663c2.604-0.569,4.992-0.959,7.179-1.315c5.072-0.826,9.079-1.479,12.487-3.753
	c2.348-1.564,2.803-5.351,2.445-8.372c-0.439-3.729-2.031-6.775-4.397-8.604h10.359C41.37,75.405,39.779,78.451,39.339,82.181z"/>
</svg>
