<svg xmlns="http://www.w3.org/2000/svg" xmlns:xlink="http://www.w3.org/1999/xlink" version="1.1" id="Layer_1" x="0px" y="0px" width="100px" height="100px" viewBox="0 0 100 100" enable-background="new 0 0 100 100" xml:space="preserve">
<path d="M50.003,1.587c-26.602,0-48.167,21.56-48.167,48.162s21.565,48.162,48.167,48.162c26.597,0,48.161-21.561,48.161-48.162  S76.6,1.587,50.003,1.587z M50.008,92.757C26.291,92.757,7,73.467,7,49.749C7,26.041,26.291,6.75,50.008,6.75  c23.702,0,42.994,19.291,42.994,42.999C93.002,73.467,73.71,92.757,50.008,92.757z"/>
<path d="M50.008,11.268c-21.217,0-38.496,17.264-38.496,38.486c0,21.223,17.279,38.486,38.496,38.486  c21.211,0,38.481-17.264,38.481-38.486C88.489,28.532,71.22,11.268,50.008,11.268z M66.894,55.014h-11.34v10.824  c0,3.051-2.476,5.531-5.525,5.531c-3.056,0-5.531-2.48-5.531-5.531V55.014H34.403c-3.051,0-5.526-2.471-5.526-5.527  c0-3.055,2.476-5.525,5.526-5.525h10.094V33.352c0-3.055,2.476-5.526,5.531-5.526c3.05,0,5.525,2.471,5.525,5.526v10.609h11.34  c3.051,0,5.525,2.47,5.525,5.525C72.419,52.543,69.944,55.014,66.894,55.014z"/>
</svg>