<svg xmlns="http://www.w3.org/2000/svg" xmlns:xlink="http://www.w3.org/1999/xlink" version="1.1" x="0px" y="0px" width="100px" height="100px" viewBox="0 0 100 100" enable-background="new 0 0 100 100" xml:space="preserve">
<g id="Layer_1" display="none">
	<path display="inline" d="M94.52,7.213c-3.867-3.869-8.576,0.838-8.576,0.838S62.406,31.594,57.699,36.304   c-4.707,4.709-18.14,10.112-18.14,10.112l15.458,15.458c0,0,5.699-13.125,10.412-17.843c4.701-4.704,28.241-28.246,28.241-28.246   S98.383,11.077,94.52,7.213z"/>
	<path display="inline" d="M21.956,61.873C14.809,78.971,15.98,88.717,3.958,91.682C50.312,99.732,50.312,66.58,50.312,66.58   l-15.46-15.465C34.852,51.115,25.467,53.479,21.956,61.873z M17.492,86.547c3.537-4.099,9.075-23.742,16.196-28.673   C38.714,61.227,33.501,76.864,17.492,86.547z"/>
</g>
<g id="Layer_2" display="none">
	<path display="inline" fill="#000000" d="M75.116,30.644l-0.513-0.003H52.968c-4.603,0.302-1.882-4.569-1.882-4.569L63.987,0   l-22.04,4.569c0,0-17.202,37.091-19.083,41.123s2.688,4.16,2.688,4.16h16.664c4.2,0,2.419,3.097,2.419,3.097L22.865,99.703   l54.517-64.86C81.122,30.305,75.649,30.657,75.116,30.644"/>
	<path display="inline" fill="#000000" d="M75.007,30.73"/>
</g>
<g id="Layer_3" display="none">
	<path display="inline" d="M66.199,0H10v100h79V21.715L66.199,0z M80.25,91.25H18.5V42.5h61.75V91.25z M66.195,21.719V6L83,21.719   H66.195z"/>
	
		<rect x="48.166" y="52.333" transform="matrix(0.954 0.2999 -0.2999 0.954 22.4241 -11.7689)" display="inline" width="2.771" height="29.667"/>
</g>
<g id="Layer_4">
	<rect x="45.842" y="2.062" width="8.254" height="37.667"/>
	<path d="M59.325,19.025v8.344c8.483,3.634,14.43,12.055,14.43,21.868c0,13.136-10.648,23.785-23.785,23.785   c-13.136,0-23.786-10.649-23.786-23.785c0-9.689,5.802-18.01,14.114-21.717v-8.392c-12.732,4.087-21.949,16.019-21.949,30.108   c0,17.463,14.157,31.621,31.621,31.621c17.462,0,31.62-14.158,31.62-31.621C81.59,35.031,72.223,23.014,59.325,19.025z"/>
	<path d="M64.46,2.062v12.921c13.139,5.629,22.345,18.67,22.345,33.868c0,20.342-16.491,36.835-36.835,36.835   S13.134,69.193,13.134,48.851c0-15.005,8.985-27.891,21.858-33.633V2.223C15.274,8.553,1,27.031,1,48.851   c0,27.044,21.924,48.97,48.97,48.97c27.044,0,48.97-21.926,48.97-48.97C98.939,26.85,84.431,8.24,64.46,2.062z"/>
</g>
</svg>