<svg xmlns="http://www.w3.org/2000/svg" xmlns:xlink="http://www.w3.org/1999/xlink" version="1.1" id="Layer_1" x="0px" y="0px" width="84.331px" height="100px" viewBox="0 0 84.331 100" enable-background="new 0 0 84.331 100" xml:space="preserve">
<path d="M72.014,12.294C55.533-4.187,28.902-4.053,12.42,12.428C-4.062,28.909-4.179,55.599,12.303,70.392L42.082,100l29.843-29.843  C88.406,55.365,88.497,28.776,72.014,12.294z M51.843,65.115V54.099h1.931c0.789-9,1.167-14.946,1.136-16.871  c-0.031-5.928-1.246-10.201-3.58-12.597c-0.947-1.01-2.486-1.734-3.486-1.955v30.957l0,0v12.901c-2,0.526-4.067,0.808-6.27,0.808  c-1.305,0-1.73-0.099-3.73-0.289V46.47c0-0.946,1.078-2.058,2.717-3.335s2.668-2.909,2.668-4.896c0-5.393-0.386-10.715-3.386-15.563  v13.423h-2v-13h-3v13h-2V22.676c-2,4.536-3.51,10.17-3.51,15.563c0,1.987,0.616,3.619,2.255,4.896s2.255,2.389,2.255,3.335v19.627  c-10-3.31-17.286-12.865-17.286-24.145c0-14.022,11.491-25.39,25.514-25.39c14.021,0,25.077,11.368,25.077,25.39  C67.149,52.269,60.843,61.141,51.843,65.115z"/>
</svg>