<svg xmlns="http://www.w3.org/2000/svg" xmlns:xlink="http://www.w3.org/1999/xlink" version="1.1" id="Layer_1" x="0px" y="0px" width="100px" height="100px" viewBox="0 0 100 100" enable-background="new 0 0 100 100" xml:space="preserve">
<path d="M63.016,32.394L52.218,0.497v44.346c2.852,0.689,4.972,3.248,4.972,6.31c0,3.591-2.91,6.499-6.5,6.499  c-3.589,0-6.5-2.908-6.5-6.499c0-3.061,2.119-5.62,4.968-6.309V0.499L38.361,32.394L26.057,68.739  c6.816,0.021,12.337,8.855,12.337,19.752c0,3.518-0.579,6.818-1.588,9.68h27.528c-1.009-2.861-1.587-6.162-1.587-9.68  c0-10.908,5.532-19.752,12.36-19.752c0.071,0,0.143,0.006,0.215,0.01L63.016,32.394z"/>
</svg>