<?xml version="1.0" encoding="utf-8"?>
<!-- Generator: Adobe Illustrator 15.1.0, SVG Export Plug-In . SVG Version: 6.00 Build 0)  -->
<!DOCTYPE svg PUBLIC "-//W3C//DTD SVG 1.1//EN" "http://www.w3.org/Graphics/SVG/1.1/DTD/svg11.dtd">
<svg version="1.1" id="Layer_1" xmlns="http://www.w3.org/2000/svg" xmlns:xlink="http://www.w3.org/1999/xlink" x="0px" y="0px"
	 width="100px" height="42px" viewBox="0 0 100 42" enable-background="new 0 0 100 42" xml:space="preserve">
<path d="M85,21c0-3.72-2.555-6.845-6-7.736V7H65c-4.756,0-8.95,2.376-11.48,6H8c-4.418,0-8,3.582-8,8s3.582,8,8,8h45.52
	c2.53,3.624,6.725,6,11.48,6h14v-6.264C82.445,27.845,85,24.72,85,21z M81,21c0,1.475-0.811,2.75-2,3.443v-6.887
	C80.189,18.25,81,19.525,81,21z"/>
<rect x="89" y="19" width="11" height="4"/>
<rect x="86.42" y="27.665" transform="matrix(-0.866 -0.5 0.5 -0.866 157.0086 101.4014)" width="11.34" height="4.001"/>
<rect x="79.994" y="34.089" transform="matrix(-0.4998 -0.8661 0.8661 -0.4998 97.2252 128.3234)" width="11.339" height="4.001"/>
<rect x="86.42" y="10.335" transform="matrix(-0.866 0.5 -0.5 -0.866 178.009 -23.0286)" width="11.34" height="4.001"/>
<rect x="83.664" y="0.241" transform="matrix(0.8661 0.4999 -0.4999 0.8661 14.4277 -42.0336)" width="4.001" height="11.339"/>
<path d="M46,7h-2c-2,0-4,2-4,4h10C50,9,48,7,46,7z"/>
</svg>
