<svg xmlns="http://www.w3.org/2000/svg" xmlns:xlink="http://www.w3.org/1999/xlink" version="1.1" id="Layer_1" x="0px" y="0px" width="100px" height="100px" viewBox="0 0 100 100" enable-background="new 0 0 100 100" xml:space="preserve">
<g>
	<circle cx="23.44" cy="2.046" r="1.897"/>
	<circle cx="75.925" cy="2.046" r="1.897"/>
	<path d="M83.034,18.414l-10.25-5.209l1.821-5.939c0.175-0.57-0.072-1.185-0.593-1.475c-0.193-0.108-0.406-0.161-0.615-0.161   c-0.354,0-0.704,0.149-0.95,0.43l-5.735,6.526h-33.45l-6.16-6.557c-0.246-0.262-0.582-0.399-0.922-0.399   c-0.22,0-0.442,0.057-0.643,0.175c-0.509,0.301-0.742,0.915-0.561,1.478l1.917,5.941l-9.942,5.197   c-0.516,0.27-0.781,0.857-0.642,1.422c0.086,0.353,0.316,0.64,0.618,0.806c-0.043,0.105-0.068,0.221-0.068,0.341v2.53   c0,0.49,0.399,0.889,0.889,0.889c0.491,0,0.889-0.399,0.889-0.889v-2.53c0-0.063-0.007-0.125-0.02-0.184h10.722l12.632,39.143   l-3.142,38.535c-0.028,0.352,0.091,0.699,0.331,0.959c0.24,0.26,0.577,0.408,0.93,0.408H60.96c0.357,0,0.698-0.15,0.938-0.416   c0.24-0.264,0.356-0.617,0.321-0.973L58.45,59.932l12.002-39.125H81.38c-0.013,0.06-0.02,0.121-0.02,0.184v2.53   c0,0.49,0.398,0.889,0.89,0.889c0.49,0,0.889-0.399,0.889-0.889v-2.53c0-0.121-0.025-0.235-0.068-0.341   c0.304-0.167,0.535-0.458,0.621-0.814C83.827,19.267,83.555,18.679,83.034,18.414z M73.396,6.895l-1.765,5.753   c-0.12-0.037-0.243-0.062-0.369-0.062h-2.867L73.396,6.895z M66.453,13.85l-3.869,4.542l-2.186-4.542H66.453z M50.213,81.438   l-7.148-3.787l7.026-3.729l6.926,3.777L50.213,81.438z M50.224,82.873l8.318,4.406l-8.087,4.637l-8.225-4.652L50.224,82.873z    M43.67,68.98l6.535-4.084l6.513,4.076l-6.62,3.514L43.67,68.98z M49.013,64.152l-6.441,4.023l0.625-7.664L49.013,64.152z    M45.458,60.434h9.504l-4.755,2.973L45.458,60.434z M51.398,64.152l5.837-3.648l0.76,7.775L51.398,64.152z M44.66,59.17   l5.637-6.801c0.063,0.025,0.129,0.043,0.198,0.047l5.598,6.754H44.66z M53.852,45.909c-0.105,0.073-0.191,0.176-0.236,0.303   c-0.007,0.017-0.007,0.036-0.012,0.054l-3.093,4.443l-7.484-10.074c0-0.001-0.001-0.001-0.001-0.002L33.82,28.242l3.063-7.436   h12.303c-0.048,0.109-0.075,0.229-0.075,0.355v2.529c0,0.491,0.399,0.89,0.889,0.89c0.491,0,0.89-0.399,0.89-0.89v-2.529   c0-0.126-0.027-0.246-0.075-0.355h11.55l3.764,7.473L53.852,45.909z M58.15,41.949l2.601,3.445l-5.222,0.319L58.15,41.949z    M58.303,51.158h-6.565l2.604-3.737L58.303,51.158z M49.27,51.158h-6.821l4.01-3.783L49.27,51.158z M45.224,45.713L40,45.394   l2.513-3.329L45.224,45.713z M41.074,40.127l-3.428-0.573l0.686-3.119L41.074,40.127z M61.733,19.542h-4.277l2.219-4.277   L61.733,19.542z M58.983,13.85l-2.276,4.389l-2.6-4.389H58.983z M56.01,19.542h-5.474l2.819-4.479L56.01,19.542z M52.625,13.85   l-2.836,4.504l-2.836-4.504H52.625z M49.042,19.542h-5.473l2.654-4.479L49.042,19.542z M45.471,13.85l-2.601,4.389l-2.275-4.389   H45.471z M42.121,19.542h-4.677l2.419-4.354L42.121,19.542z M39.158,13.85l-2.501,4.503l-3.168-4.503H39.158z M26.181,6.895   l5.347,5.691h-3.102c-0.132,0-0.261,0.028-0.386,0.068L26.181,6.895z M17.539,19.542l9.75-5.097l1.645,5.097H17.539z M28.426,13.85   h3.668c0,0.126,0.026,0.253,0.104,0.364l3.749,5.327h-5.685L28.426,13.85z M30.67,20.806h4.844L32.798,27.4L30.67,20.806z    M33.704,30.207l3.629,4.885l-0.832,3.783L33.704,30.207z M37.105,40.746l4.279,0.716l-2.835,3.756L37.105,40.746z M38.994,46.599   l6.052,0.37l-4.548,4.292L38.994,46.599z M40.874,52.424h7.735l-5.567,6.717L40.874,52.424z M42.443,69.752l6.316,3.445   l-6.896,3.658L42.443,69.752z M41.74,78.381l7.146,3.785l-7.805,4.285L41.74,78.381z M40.956,87.996l8.222,4.652l-9.023,5.174   L40.956,87.996z M41.364,98.586l9.095-5.213l9.218,5.213H41.364z M60.885,97.818l-9.152-5.178l8.188-4.693L60.885,97.818z    M59.778,86.502l-8.229-4.357l7.088-3.893c0.146-0.08,0.25-0.213,0.297-0.367L59.778,86.502z M58.889,77.4   c-0.058-0.107-0.143-0.199-0.253-0.258l-7.207-3.932l6.701-3.555L58.889,77.4z M57.461,58.84l-5.317-6.416h7.286L57.461,58.84z    M59.892,50.918l-4.187-3.949l5.501-0.336L59.892,50.918z M61.803,44.688l-2.436-3.226l3.611-0.604L61.803,44.688z M59.385,40.176   l2.932-4.21l0.789,3.588L59.385,40.176z M63.974,37.613l-0.617-2.803c-0.016-0.077-0.05-0.145-0.091-0.207l2.915-4.186   L63.974,37.613z M67.104,27.406l-3.324-6.6h5.349L67.104,27.406z M69.517,19.542h-6.25l4.499-5.281   c0.102-0.119,0.144-0.265,0.144-0.41h3.354L69.517,19.542z M72.407,14.432l10.053,5.109H70.84L72.407,14.432z"/>
</g>
</svg>