<svg xmlns="http://www.w3.org/2000/svg" xmlns:xlink="http://www.w3.org/1999/xlink" version="1.1" id="Layer_1" x="0px" y="0px" width="97.194px" height="99.991px" viewBox="0 0 97.194 99.991" enable-background="new 0 0 97.194 99.991" xml:space="preserve">
<path d="M96.591,89.202c-8.952-8.69-19.876-14.818-31.628-17.75c-0.295-0.165-0.632-0.248-0.977-0.248h-1.065  c-0.027,0-0.056,0.005-0.085,0.008l4.826,10.456L57.6,100.008h37.569c1.128,0,2.042-0.912,2.042-2.043V90.67  C97.211,90.116,96.986,89.587,96.591,89.202z"/>
<path d="M34.403,71.211c-0.042,0-0.077-0.011-0.116-0.011h-0.775c-0.157,0-0.313,0.018-0.468,0.054  C20.983,74.108,9.771,80.315,0.621,89.202C0.223,89.589,0,90.116,0,90.67v7.295c0,1.131,0.915,2.043,2.042,2.043h37.319  l-9.878-18.11L34.403,71.211z"/>
<path d="M47.951,53.999c-1.147,0-2.133,0.646-2.645,1.59C33.294,54.35,29.459,43.914,29.459,43.914c0.016,0.211,0.016,0.211,0,0  c-0.023,0-0.042,0-0.066,0c-2.075,0-3.756-1.782-3.756-3.979c0-1.625,0.916-3.017,2.226-3.638c0,0,5.681-11.243,8.49-24.42  c0,0,2.65,20.705,33.028,24.303c-0.012,0.038-0.02,0.079-0.032,0.118c1.309,0.621,2.223,2.013,2.223,3.638  c0,2.197-1.682,3.979-3.756,3.979c-0.021,0-0.044,0-0.065,0c-0.437,5.884-3.229,11.773-7.381,15.812v5.035  c14.645-0.674,24.63-7.337,24.63-7.337C71.208,48.998,83.05,20.656,67.84,7.402C52.629-5.852,48.605,2.735,48.605,2.735  s-4.023-8.586-19.233,4.667c-15.21,13.254-3.369,41.595-17.16,50.021c0,0,9.912,6.612,24.467,7.329v-5.2  c-2.25-2.235-4.072-5.024-5.339-8.048c2.727,2.966,7.099,6.005,13.822,6.674c0.455,1.095,1.532,1.863,2.79,1.863  c1.668,0,3.021-1.353,3.021-3.021C50.973,55.352,49.619,53.999,47.951,53.999z"/>
</svg>