<svg xmlns="http://www.w3.org/2000/svg" xmlns:xlink="http://www.w3.org/1999/xlink" version="1.1" id="Layer_1" x="0px" y="0px" width="74.368px" height="100px" viewBox="0 0 74.368 100" enable-background="new 0 0 74.368 100" xml:space="preserve">
<g>
	<path d="M48.463,27.374l-7.017,7.663C54.942,37.091,65.28,48.744,65.28,62.812c0,15.517-12.579,28.096-28.097,28.096   c-15.517,0-28.096-12.579-28.096-28.096c0-14.067,10.338-25.721,23.833-27.775l-7.017-7.663C10.883,32.152,0,46.208,0,62.812   c0,20.536,16.647,37.184,37.184,37.184s37.185-16.647,37.185-37.184C74.368,46.208,63.485,32.152,48.463,27.374z"/>
	<polygon points="59.05,9.061 51.027,1.008 47.356,9.061  "/>
	<polygon points="30.829,11.736 35.317,25.674 37.133,31.31 38.949,25.672 43.437,11.736  "/>
	<polygon points="48.549,-0.005 38.832,-0.005 44.972,7.839  "/>
	<polygon points="59.156,11.736 46.249,11.736 41.685,25.908 39.245,33.477 45.558,26.585  "/>
	<polygon points="35.434,-0.005 25.813,-0.005 29.308,7.823  "/>
	<polygon points="23.335,1.011 15.317,9.061 26.928,9.061  "/>
	<polygon points="42.529,9.061 37.133,2.166 31.738,9.061  "/>
	<polygon points="34.965,33.307 32.586,25.92 28.016,11.736 15.21,11.736 28.809,26.585  "/>
</g>
</svg>