<svg xmlns="http://www.w3.org/2000/svg" xmlns:xlink="http://www.w3.org/1999/xlink" version="1.1" id="Layer_1" x="0px" y="0px" width="100px" height="100px" viewBox="0 0 100 100" enable-background="new 0 0 100 100" xml:space="preserve">
<path d="M90.907,0.021H9.136c-5.034,0-9.114,4.081-9.114,9.114v22.241v10.036v49.496c0,5.034,4.08,9.113,9.114,9.113h81.771  c5.033,0,9.114-4.079,9.114-9.113V41.412V31.375V9.134C100.021,4.101,95.94,0.021,90.907,0.021z M66.515,31.771  c-0.554,3.027-1.919,5.771-3.864,8l-1.351-1.35c-0.445-0.445-1.168-0.445-1.611,0c-0.445,0.446-0.445,1.167,0,1.612l1.35,1.349  c-2.948,2.577-6.803,4.143-11.018,4.143c-4.214,0-8.068-1.566-11.018-4.143l1.351-1.349c0.445-0.446,0.445-1.166,0-1.612  c-0.445-0.445-1.166-0.445-1.611,0l-1.351,1.35c-1.945-2.228-3.312-4.972-3.864-8c-0.113-0.616-0.192-1.242-0.235-1.879h1.919  c0.624,0,1.129-0.501,1.138-1.123c0-0.006,0.001-0.011,0.001-0.016c0-0.629-0.511-1.139-1.139-1.139h-1.907  c0.027-0.396,0.07-0.79,0.124-1.181c0.194-1.392,0.543-2.754,1.083-4.064c0.713-1.729,1.695-3.282,2.875-4.638l1.356,1.356  c0.223,0.222,0.514,0.333,0.806,0.333s0.583-0.111,0.805-0.333c0.445-0.445,0.445-1.166,0-1.611l-1.36-1.361  c2.715-2.371,6.164-3.84,9.889-4.09v1.918c0,0.629,0.51,1.139,1.139,1.139s1.14-0.51,1.14-1.139v-1.918  c3.724,0.25,7.172,1.718,9.887,4.089l-1.359,1.361c-0.445,0.445-0.445,1.166,0,1.611c0.222,0.222,0.514,0.333,0.805,0.333  c0.292,0,0.583-0.111,0.806-0.333l1.358-1.356c1.179,1.355,2.161,2.909,2.873,4.638c0.541,1.31,0.891,2.672,1.084,4.064  c0.054,0.392,0.097,0.785,0.123,1.181l-1.904,0c-0.63,0-1.141,0.51-1.141,1.139c0,0.005,0.003,0.01,0.003,0.016  c0.008,0.622,0.514,1.123,1.138,1.123l1.917,0C66.706,30.528,66.627,31.155,66.515,31.771z M68.664,22.056  c-0.102-0.283-0.209-0.565-0.325-0.846C65.268,13.759,58.077,8.944,50.021,8.944c-8.056,0-15.246,4.814-18.319,12.267  c-0.116,0.28-0.223,0.562-0.325,0.845c-9.229,1.389-17.975,3.783-26.039,7.031V9.134c0-2.094,1.704-3.797,3.798-3.797h81.771  c2.094,0,3.797,1.704,3.797,3.797v19.953C86.64,25.839,77.892,23.444,68.664,22.056z M91.535,94.071H8.246  c-1.049,0-1.899-0.851-1.899-1.899c0-1.048,0.85-1.897,1.899-1.897h83.29c1.049,0,1.898,0.85,1.898,1.897  C93.434,93.221,92.584,94.071,91.535,94.071z"/>
<path d="M51.676,25.781l-0.093-0.391L50.89,22.47l-0.995-4.19L48.9,22.47l-0.693,2.922l-0.132,0.555  c-0.711,0.495-1.227,1.25-1.404,2.129c-0.044,0.219-0.068,0.445-0.068,0.676c0,0.738,0.238,1.415,0.635,1.973  c0.619,0.872,1.633,1.444,2.783,1.444c1.151,0,2.163-0.572,2.783-1.444c0.397-0.558,0.635-1.235,0.635-1.973  c0-0.231-0.024-0.458-0.068-0.676C53.171,27.084,52.533,26.26,51.676,25.781z"/>
</svg>