<svg xmlns="http://www.w3.org/2000/svg" xmlns:xlink="http://www.w3.org/1999/xlink" version="1.1" id="Layer_1" x="0px" y="0px" width="100px" height="100px" viewBox="0 0 100 100" enable-background="new 0 0 100 100" xml:space="preserve">
<path d="M93.308,14.563h-1.593h-0.105v-3.087h-1.389H88.63h-0.106v-0.105V8.969V8.391h-1.39h-1.591h-0.105V8.284V6.392V5.305H57.769  v1.509v1.471v0.106h-3.087v1.49v1.49v0.105h-3.085v1.779v1.201v0.106h-1.261H48.51h-0.105v-3.087h-0.858h-2.122h-0.106v-0.105v-0.4  v-2.58h-3.086V8.305h0.002l0.009-2.98h-27.66l-0.02,3.066h-0.106h-1.489h-1.49v3.084H8.375v2.362v0.616v0.11H8.284H6.161H5.305  v3.085v2.98v0.106v2.98v0.106v2.979v0.106v2.979v0.106v2.979v0.106v2.98v0.105v2.98v0.106v2.979v0.105v2.979v0.107v2.98v0.102v2.98  h1.264v0.004h1.822v0.104v0.548v2.43h3.086v0.004v0.107v2.98h3.086v0.105v2.979h3.086v0.105V61.4v0.397v2.037h3.087v0.106v0.547  v2.432h3.085v0.104v1.063v1.917h3.087v0.109v1.061v1.92h3.086v0.104v1.062v1.915h3.087v0.005v0.106v1.059v1.922h3.085v0.104v1.061  v1.921h3.086v0.104v1.061v1.921h3.087v0.105v1.06v1.921h3.086v0.105v1.06v1.921h3.086v3.085h2.979V91.61h0.107h1.805h1.175v-0.95  v-2.03v-0.105h3.086v-0.947v-2.033v-0.105h3.085v-1.12v-1.861v-0.104h3.087v-1.491v-1.49v-0.104h3.086v-1.49v-1.49v-0.111h3.087  v-1.921v-1.057v-0.104h3.085v-1.709v-1.271v-0.109h3.088v-1.242v-1.738V66.92h3.085v-1.489v-1.489v-0.106h3.087v-1.49v-1.49v-0.105  h3.086v-0.846V57.77v-0.105h3.086v-0.523v-2.457v-0.111h3.086v-0.884v-2.094v-0.104h1.166v-0.004h1.92v-2.98v-0.102v-2.98v-0.107  v-2.979v-0.105v-2.979v-0.106v-2.98v-0.105v-2.98v-0.106v-2.979v-0.106v-2.979v-0.106v-2.979v-0.106v-2.98v-0.106v-2.98v-3.085  H93.308z M26.8,11.371h-9.258v0.019v3.067h-3.086v0.02v3.066H11.37v12.345H8.284V17.562v-0.02h0.857v-0.004h2.213v0.004h0.016  v-3.069h-0.016v-0.021h0.122v0.004h2.979V11.39v-0.019h3.086V8.305H26.8V11.371z"/>
</svg>