<svg xmlns="http://www.w3.org/2000/svg" xmlns:xlink="http://www.w3.org/1999/xlink" version="1.1" id="Calque_1" x="0px" y="0px" width="100px" height="100px" viewBox="0 0 100 100" enable-background="new 0 0 100 100" xml:space="preserve">
<g>
	<g>
		<path d="M42.041,58.965c0.003-0.832,0.812-1.502,1.827-1.5l4.686-0.004l-0.008-3.002l-4.689,0.018    c-1.013,0.006-1.828-0.65-1.833-1.48c-0.006-0.825,0.808-1.497,1.816-1.502l4.699-0.015l-0.007-2.993l-4.694,0.018    c-1.013,0.002-1.838-0.666-1.838-1.487c0.006-0.832,0.819-1.496,1.825-1.501l4.699-0.013l-0.009-2.991l-4.698,0.016    c-1.008,0.006-1.829-0.656-1.829-1.485c-0.005-0.82,0.811-1.496,1.819-1.499l4.694-0.012l-0.114-37.82    C33.03,3.162,18.458,26.398,18.528,50.074c0.041,11.902,3.71,24.212,10.081,33.797c5.755,8.652,12.99,13.781,20.072,14.386    l-0.114-37.821l-4.683,0.014C42.865,60.449,42.05,59.786,42.041,58.965z"/>
		<path d="M51.322,1.699l0.114,37.818l4.692-0.007c1.011,0,1.814,0.657,1.83,1.49c0.005,0.821-0.817,1.484-1.819,1.494l-4.701,0.006    l0.019,2.988l4.687-0.014c1.011-0.006,1.832,0.665,1.832,1.492c-0.004,0.828-0.815,1.497-1.819,1.5l-4.691,0.012l0.007,2.98    l4.692-0.003c0.999-0.013,1.827,0.662,1.831,1.49c-0.008,0.823-0.817,1.487-1.818,1.487l-4.701,0.013l0.019,2.999l4.689-0.016    c1.007,0,1.836,0.659,1.832,1.48c-0.004,0.83-0.812,1.5-1.817,1.503l-4.697,0.011l0.119,37.821    c15.343-1.466,29.912-24.696,29.853-48.365C81.398,26.215,66.688,3.08,51.322,1.699z"/>
	</g>
</g>
</svg>