<svg xmlns="http://www.w3.org/2000/svg" xmlns:xlink="http://www.w3.org/1999/xlink" version="1.1" id="Layer_1" x="0px" y="0px" width="100px" height="100px" viewBox="0 0 100 100" enable-background="new 0 0 100 100" xml:space="preserve">
<g>
	<path d="M57.508,39.244v-3.085h-6.064v3.085h-3.087v2.979v9.365v2.98h3.087v3.086h6.064v-3.086h0.107h0.916h2.064v-2.98v-9.365   v-2.979H57.508z"/>
	<path d="M29.737,39.245v-3.086H23.67v3.086h-3.085v2.98v9.365v2.98h3.085v3.086h6.066V54.57h0.107h0.915h2.063v-2.98v-9.365v-2.98   H29.737z"/>
	<path d="M91.715,36.166h-0.105v-6.173h-3.086v-6.171h-3.088v-3.085H82.35V17.65h-3.084v-3.087h-3.088v-3.087h-3.086V8.39h-9.258   V5.304H36.166V8.39h-9.259v3.086H23.82v3.086h-3.087v3.087h-3.085v3.086H14.56v3.085h-3.084v6.171H8.39v6.173H5.304V66.92H8.39   v6.174h3.086v3.086h3.084v6.174h3.088v3.084h2.981h0.104h2.981h0.105l0,0v3.086h3.087v3.086h9.259v3.086h27.668v-3.086h9.258   v-3.086h3.086v-3.086h6.172v-3.084h3.086V76.18h3.088v-3.086h3.086V66.92h3.086V36.166H91.715z M91.715,46.411v4.664v12.867h-3.086   v6.172h-3.086v2.98v0.105h-0.107h-2.59h-0.389v1.25v1.73v0.105v2.98v0.105H82.35h-1.975h-1.004v0.553v2.533h-6.174v3.086h-3.086   v3.088h-9.258v3.084H39.145v-0.105v-1.176v-1.803h-9.259v-0.107v-0.975v-2.006h-1.359h-1.62H26.8v-0.105v-1.488v-1.492h-1.489   H23.82h-0.105h-2.981h-0.104v-0.104v-1.287v-1.695h-3.088v-6.172h-3.085v-3.086H11.37v-6.172H8.283V39.146l0,0h3.087v-6.172l0,0   h0.106h2.98v-6.172l0,0h3.085v-3.086l0,0h3.088v-2.979v-0.107l0,0h0.104l0,0h2.981V17.65v-0.107H26.8v-3.086l0,0h3.086v-3.086   h9.259V8.285V8.283H60.85l0.004,3.087h9.256l0.002,3.086h3.086v3.086h3.088v3.086h3.086v3.086h3.086v3.086h3.086v6.172h3.086v6.172   h3.086V46.411z"/>
	<rect x="42.33" y="63.934" width="9.153" height="2.98"/>
	<g>
		<rect x="23.67" y="26.841" width="2.979" height="2.98"/>
		<rect x="54.533" y="26.841" width="2.979" height="2.98"/>
		<rect x="26.757" y="23.755" width="2.979" height="2.979"/>
		<rect x="51.447" y="23.755" width="2.979" height="2.979"/>
		<rect x="57.619" y="29.926" width="2.979" height="2.98"/>
		<rect x="20.585" y="29.926" width="2.979" height="2.98"/>
	</g>
</g>
</svg>