<svg xmlns="http://www.w3.org/2000/svg" xmlns:xlink="http://www.w3.org/1999/xlink" version="1.1" id="Layer_1" x="0px" y="0px" width="100px" height="100px" viewBox="0 0 100 100" enable-background="new 0 0 100 100" xml:space="preserve">
<g>
	<path d="M54.427,39.244v-3.086H48.36v3.086h-3.086v2.98v9.364v2.979h3.086v3.089h6.066v-3.089h0.105h0.915h2.065v-2.979v-9.364   v-2.98H54.427z"/>
	<path d="M26.654,39.245v-3.086h-6.066v3.086h-3.085v2.979v9.365v2.979h3.085v3.088h6.066v-3.088h0.107h0.914h2.064v-2.979v-9.365   v-2.979H26.654z"/>
	<path d="M91.716,36.165h-0.107v-6.171h-3.085v-6.172h-3.088v-3.086h-3.085v-3.086h-3.086v-3.086h-3.087v-3.086h-3.086V8.39h-9.259   V5.304H36.165V8.39h-9.258v3.087h-3.088v3.086h-3.086v3.086h-3.086v3.086h-3.086v3.086h-3.087v6.172H8.389v6.171H5.304v30.757   h3.085v6.172h3.086v3.085h3.087v6.172h3.086v3.087h2.98h0.105h2.98h0.105l0,0v3.086h3.088v3.087h9.258v3.086h27.668V91.61h9.259   v-3.087h3.086v-3.086h6.173v-3.087h3.085v-6.172h3.088v-3.085h3.085v-6.173h3.088V36.165H91.716z M91.716,46.411v4.664V63.94   h-3.087v6.172h-3.085v2.981v0.104h-0.108h-2.589h-0.39v1.249v1.731v0.105v2.981v0.106h-0.106h-1.977h-1.003v0.55v2.536h-6.173   v3.086h-3.087v3.086h-9.259v3.087H39.146V91.61v-1.177V88.63h-9.26v-0.106v-0.975v-2.005h-1.358h-1.62h-0.108v-0.106v-1.49v-1.489   h-1.488h-1.491h-0.105h-2.98h-0.105v-0.107v-1.285v-1.693h-3.087v-6.174h-3.085v-3.085H11.37V63.94H8.283V39.145l0,0h3.087v-6.171   l0,0h0.104h2.981v-6.173l0,0h3.085v-3.086l0,0h3.087v-2.98v-0.107l0,0h0.105l0,0h2.98v-2.979v-0.106h3.085v-3.086l0,0h3.087V11.37   h9.26V8.284l0,0h21.705l0.002,3.086h9.256l0.003,3.086h3.087v3.086h3.087v3.085h3.086v3.087h3.085l0.001,3.086h3.087v6.173h3.085   v6.171h3.087V46.411z"/>
	<rect x="51.45" y="26.839" width="2.979" height="2.98"/>
	<rect x="48.364" y="23.754" width="2.979" height="2.979"/>
	<rect x="54.536" y="29.926" width="2.979" height="2.979"/>
	<g>
		<rect x="20.588" y="26.839" width="2.98" height="2.98"/>
		<rect x="23.674" y="23.754" width="2.98" height="2.979"/>
		<rect x="17.503" y="29.926" width="2.979" height="2.979"/>
	</g>
	<path d="M82.479,39.188V39.17v-3.068h-3.086v-0.018v-0.151V33.07v-3.14h-3.086v-0.018v-0.469v-2.545v-3.141h-3.191v3.141v2.545   v0.469v0.018h-3.087v3.14v1.818v1.197v0.018h-3.087v3.068v0.018h-3.086v6.316v2.177v0.872h3.086v0.036v3.05h3.087v0.036v3.051   h6.315h0.988h2.061v-3.051v-0.036h3.086v-3.05v-0.036h3.087v-1.126v-1.923v-6.316H82.479z M76.307,48.553h-3.191h-1.404h-1.683   v-9.365h3.087v3.193v2.979h3.191V48.553z"/>
	<polygon points="54.566,64.466 51.481,64.466 50.045,64.466 48.501,64.466 48.501,67.552 45.308,67.552 44.46,67.552    42.329,67.552 42.329,70.638 39.242,70.638 39.242,73.618 42.329,73.618 44.142,73.618 45.308,73.618 45.308,71.751 45.308,70.638    45.308,70.531 48.501,70.531 50.045,70.531 51.481,70.531 51.481,68.936 51.481,67.552 51.481,67.446 54.566,67.446  "/>
</g>
</svg>