<svg xmlns="http://www.w3.org/2000/svg" xmlns:xlink="http://www.w3.org/1999/xlink" version="1.1" id="Layer_1" x="0px" y="0px" width="100px" height="100px" viewBox="0 0 100 100" enable-background="new 0 0 100 100" xml:space="preserve">
<rect x="33.08" y="20.735" width="2.979" height="2.98"/>
<rect x="63.941" y="20.735" width="2.979" height="2.98"/>
<rect x="36.165" y="17.649" width="2.979" height="2.979"/>
<rect x="60.854" y="17.649" width="2.979" height="2.979"/>
<rect x="67.026" y="23.822" width="2.98" height="2.979"/>
<rect x="29.992" y="23.822" width="2.98" height="2.979"/>
<polygon points="57.662,60.854 54.976,60.854 54.682,60.854 54.576,60.854 54.576,57.77 45.424,57.77 45.424,60.854 45.317,60.854   44.029,60.854 42.338,60.854 42.338,66.923 44.029,66.923 45.317,66.923 45.424,66.923 45.424,70.007 54.576,70.007 54.576,66.922   54.682,66.922 54.682,66.923 57.662,66.923 "/>
<path d="M91.715,36.166h-0.105v-6.172h-3.086v-6.172h-3.086v-3.087h-3.086v-3.086h-3.087v-3.086H76.18v-3.086h-3.088V8.391h-9.258  V5.304H36.165v3.087h-9.259v3.087H23.82v3.086h-3.086v3.086h-3.086v3.086h-3.086v3.087h-3.086v6.172H8.391v6.172H5.305v30.757h3.086  v6.171h3.086v3.086h3.086v6.173h3.086v3.087h2.98h0.105h2.98h0.105l0,0v3.085h3.086v3.086h9.259v3.086h27.669V91.61h9.258v-3.086  h3.088v-3.085h6.172v-3.087h3.086V76.18h3.086v-3.086h3.086v-6.171h3.086V36.166H91.715z M91.715,46.413v4.663v12.866H88.63v6.172  h-3.087v2.979V73.2h-0.105h-2.591h-0.39v1.248v1.731v0.106v2.98v0.105h-0.105h-1.976h-1.005v0.551v2.536h-6.172v3.085h-3.086v3.086  h-9.259v3.088h-21.71V91.61v-1.176v-1.804h-9.258v-0.106V87.55v-2.006h-1.359h-1.621h-0.105v-0.104v-1.491v-1.489h-1.49h-1.49  h-0.105h-2.98h-0.105v-0.106v-1.286v-1.694h-3.087V73.2h-3.086v-3.086h-3.087v-6.172H8.283V39.146l0,0h3.086v-6.173l0,0h0.107h2.979  v-6.172l0,0h3.086v-3.086l0,0h3.087v-2.98v-0.106l0,0h0.105l0,0h2.98v-2.979v-0.106h3.086v-3.086l0,0h3.086v-3.086h9.258V8.285  V8.284h21.707l0.003,3.087h9.254l0.005,3.086h3.086v3.086h3.085v3.086h3.087v3.087h3.085l0.001,3.086h3.086v6.172h3.087v6.173h3.085  V46.413z"/>
<path d="M73.092,33.076V29.99h-6.065v3.086H66.92h-2.979h-0.053v-3.09h-6.12v3.09h-3.087v3.087v2.98v0.105v2.98v0.003h3.087v0.104  v2.873v0.106h0.007v0.002h3.079v0.104v2.874v0.106h0.006v0.004h3.081v3.082v0.004h2.979v-0.004v-3.082h3.087v-0.004v-0.213v-2.768  v-0.104h3.085v-0.002v-0.106v-2.873v-0.104h3.088v-0.003v-2.98v-0.105v-2.98v-3.087H73.092z M60.847,37.4v1.743v3.086h-3.071v-3.086  V37.4v-1.345h3.071V37.4z M63.941,45.317H60.86v-3.085h3.081V45.317z"/>
<path d="M42.159,33.076V29.99v-0.004h-6.065v0.004v3.086h-0.106h-2.979h-0.054v-3.09h-6.12v3.09h-3.086v3.087v2.98v0.105v2.98v0.003  h3.086v0.104v2.873v0.106h0.008v0.002h3.08v0.104v2.874v0.106h0.006v0.004h3.08v3.082v0.004h2.979v-0.004v-3.082h3.086v-0.004  v-0.213v-2.768v-0.104h3.086v-0.002v-0.106v-2.873v-0.104h3.087v-0.003v-2.98v-0.105v-2.98v-3.087H42.159z M29.914,37.4v1.743v3.086  h-3.072v-3.086V37.4v-1.345h3.072V37.4z M33.008,45.317h-3.08v-3.085h3.08V45.317z"/>
</svg>