<svg xmlns="http://www.w3.org/2000/svg" xmlns:xlink="http://www.w3.org/1999/xlink" version="1.1" id="Layer_1" x="0px" y="0px" width="100px" height="100px" viewBox="0 0 100 100" enable-background="new 0 0 100 100" xml:space="preserve">
<g>
	<path d="M91.715,36.165h-0.105v-6.172h-3.086V23.82h-3.086v-3.086h-3.086v-3.086h-3.086v-3.086h-3.088v-3.086h-3.084V8.39h-9.258   V5.304h-27.67V8.39h-9.257v3.087h-3.088v3.086h-3.085v3.086h-3.087v3.087h-3.087v3.085h-3.085v6.173H8.39v6.172H5.304v30.756H8.39   v6.172h3.087v3.086h3.085v6.173h3.087v3.087h2.979h0.107h2.979h0.106l0,0v3.086h3.088v3.086h9.257v3.086h27.67V91.61h9.258v-3.086   h3.084v-3.086h6.174v-3.087h3.086v-6.173h3.086v-3.086h3.086v-6.172h3.086V36.165H91.715z M91.715,46.411v4.664v12.866h-3.086   v6.173h-3.086v2.979V73.2h-0.105h-2.59h-0.391v1.248v1.73v0.107v2.979v0.106h-0.105h-1.977h-1.004v0.551v2.535h-6.172v3.086h-3.086   v3.086h-9.26v3.086H39.145V91.61v-1.178V88.63h-9.258v-0.105V87.55v-2.006h-1.36h-1.618h-0.107v-0.105v-1.49v-1.49H25.31h-1.489   h-0.106h-2.979h-0.107v-0.106v-1.286v-1.693h-3.086V73.2h-3.086v-3.086H11.37v-6.173H8.285V39.146l0,0h3.085v-6.172l0,0h0.107   h2.979v-6.173l0,0h3.086v-3.086l0,0h3.086v-2.979v-0.106l0,0h0.107l0,0h2.979v-2.98v-0.105h3.087v-3.087l0,0h3.086v-3.085h9.258   V8.284l0,0h21.707l0.002,3.086h9.254l0.006,3.086h3.086v3.087h3.086v3.086h3.086v3.086h3.086v3.086h3.086v6.173h3.086v6.172h3.086   V46.411z"/>
	<rect x="45.424" y="57.769" width="9.152" height="2.98"/>
	<g>
		<polygon points="42.22,29.993 29.981,29.993 29.981,32.974 33.069,32.974 33.069,51.49 39.134,51.49 39.134,32.974 42.22,32.974       "/>
		<polygon points="70.018,29.993 57.779,29.993 57.779,32.974 60.865,32.974 60.865,51.49 66.932,51.49 66.932,32.974     70.018,32.974   "/>
	</g>
</g>
</svg>