<svg xmlns="http://www.w3.org/2000/svg" xmlns:xlink="http://www.w3.org/1999/xlink" version="1.1" id="Layer_1" x="0px" y="0px" width="100px" height="100px" viewBox="0 0 100 100" enable-background="new 0 0 100 100" xml:space="preserve">
<path d="M66.916,33.078v-3.086h-6.065v3.086h-3.087v2.98v9.364v2.98h3.087v3.087h6.065v-3.087h0.107h0.915h2.064v-2.98v-9.364v-2.98  H66.916z"/>
<rect x="33.078" y="20.735" width="2.979" height="2.98"/>
<rect x="63.94" y="20.735" width="2.979" height="2.98"/>
<rect x="29.993" y="17.649" width="2.979" height="2.979"/>
<rect x="67.025" y="17.649" width="2.98" height="2.979"/>
<rect x="60.853" y="23.822" width="2.98" height="2.979"/>
<rect x="36.165" y="23.822" width="2.98" height="2.979"/>
<path d="M39.146,33.08v-3.086h-6.067v3.086h-3.085v2.98v9.364v2.98h3.085v3.086h6.067v-3.086h0.105h0.916h2.064v-2.98v-9.364v-2.98  H39.146z"/>
<path d="M91.716,36.166h-0.107v-6.172h-3.085v-6.172h-3.088v-3.087h-3.085v-3.086h-3.086v-3.086h-3.087v-3.086h-3.086V8.391h-9.259  V5.304H36.165v3.087h-9.258v3.087h-3.088v3.086h-3.086v3.086h-3.086v3.086h-3.086v3.087h-3.087v6.172H8.389v6.172H5.304v30.757  h3.085v6.171h3.086v3.086h3.087v6.173h3.086v3.086h2.98h0.105h2.98h0.105l0,0v3.086h3.088v3.086h9.258v3.086h27.668V91.61h9.259  v-3.086h3.086v-3.086h6.173v-3.086h3.085V76.18h3.088v-3.086h3.085v-6.172h3.088V36.166H91.716z M91.716,46.413v4.663v12.866h-3.087  v6.172h-3.085v2.979V73.2h-0.108h-2.589h-0.39v1.248v1.731v0.106v2.98v0.105h-0.106h-1.977h-1.003v0.551v2.536h-6.173v3.085h-3.087  v3.086h-9.259v3.088H39.146V91.61v-1.176V88.63h-9.26v-0.105V87.55v-2.006h-1.358h-1.62h-0.108v-0.105v-1.49v-1.489h-1.488h-1.491  h-0.105h-2.98h-0.105v-0.106v-1.286v-1.694h-3.087V73.2h-3.085v-3.086H11.37v-6.172H8.283V39.146l0,0h3.087v-6.173l0,0h0.104h2.981  v-6.172l0,0h3.085v-3.086l0,0h3.087v-2.98v-0.106l0,0h0.105l0,0h2.98v-2.979v-0.106h3.085v-3.086l0,0h3.087v-3.086h9.26V8.284l0,0  h21.705l0.002,3.087h9.256l0.003,3.086h3.087v3.086h3.087v3.086h3.086v3.087h3.085l0.001,3.086h3.087v6.172h3.085v6.173h3.087  V46.413z"/>
<g>
	<rect x="42.336" y="60.854" width="2.981" height="2.98"/>
	<rect x="54.682" y="60.854" width="2.979" height="2.98"/>
	<rect x="45.424" y="57.77" width="9.151" height="2.979"/>
</g>
</svg>