<svg xmlns="http://www.w3.org/2000/svg" xmlns:xlink="http://www.w3.org/1999/xlink" version="1.1" id="Layer_1" x="0px" y="0px" width="100px" height="100px" viewBox="0 0 100 100" enable-background="new 0 0 100 100" xml:space="preserve">
<path d="M66.917,33.079v-3.087h-6.066v3.087h-3.086v2.979v9.365v2.979h3.086v3.087h6.066v-3.087h0.106h0.915h2.064v-2.979v-9.365  v-2.979H66.917z"/>
<rect x="33.08" y="20.735" width="2.979" height="2.98"/>
<rect x="63.941" y="20.735" width="2.979" height="2.98"/>
<rect x="36.165" y="17.649" width="2.979" height="2.979"/>
<rect x="60.854" y="17.649" width="2.979" height="2.979"/>
<rect x="67.026" y="23.822" width="2.98" height="2.979"/>
<rect x="29.992" y="23.822" width="2.98" height="2.979"/>
<path d="M39.145,33.08v-3.087H33.08v3.087h-3.088v2.98v9.363v2.98h3.088v3.086h6.064v-3.086h0.106h0.916h2.064v-2.98v-9.363v-2.98  H39.145z"/>
<polygon points="57.662,60.855 54.976,60.855 54.682,60.855 54.576,60.855 54.576,57.769 45.424,57.769 45.424,60.855   45.317,60.855 44.029,60.855 42.338,60.855 42.338,66.922 44.029,66.922 45.317,66.922 45.424,66.922 45.424,70.008 54.576,70.008   54.576,66.921 54.682,66.921 54.682,66.922 57.662,66.922 "/>
<path d="M91.715,36.166h-0.105v-6.173h-3.086v-6.171h-3.086v-3.087h-3.086v-3.086h-3.087v-3.086H76.18v-3.087h-3.088V8.392h-9.258  V5.305H36.165v3.087h-9.259v3.085H23.82v3.087h-3.086v3.086h-3.086v3.087h-3.086v3.086h-3.086v6.171H8.391v6.173H5.305v30.756h3.086  v6.172h3.086v3.086h3.086v6.172h3.086v3.087h2.98h0.105h2.98h0.105l0,0v3.086h3.086v3.085h9.259v3.086h27.669v-3.086h9.258v-3.085  h3.088v-3.086h6.172v-3.087h3.086V76.18h3.086v-3.086h3.086v-6.172h3.086V36.166H91.715z M91.715,46.412v4.664v12.865H88.63v6.172  h-3.087v2.98v0.105h-0.105h-2.591h-0.39v1.25v1.73v0.106v2.979v0.105h-0.105h-1.976h-1.005v0.551v2.536h-6.172v3.087h-3.086v3.085  h-9.259v3.087h-21.71v-0.107v-1.176V88.63h-9.258v-0.105V87.55v-2.005h-1.359h-1.621H26.8v-0.106v-1.49v-1.489h-1.489h-1.49h-0.105  h-2.98h-0.105v-0.107v-1.285v-1.694h-3.087v-6.173h-3.086v-3.086h-3.087v-6.172H8.283V39.146l0,0h3.086v-6.173l0,0h0.107h2.979  v-6.172l0,0h3.086v-3.086l0,0h3.087v-2.979v-0.107l0,0h0.105l0,0h2.98v-2.979v-0.106H26.8v-3.086l0,0h3.087v-3.086h9.258V8.285l0,0  h21.707l0.003,3.086h9.254l0.005,3.086h3.086v3.086h3.085v3.086h3.087v3.087h3.085l0.001,3.086h3.086v6.172h3.087v6.173h3.085  V46.412z"/>
</svg>