<svg xmlns="http://www.w3.org/2000/svg" xmlns:xlink="http://www.w3.org/1999/xlink" version="1.1" id="Layer_1" x="0px" y="0px" width="100px" height="100px" viewBox="0 0 100 100" enable-background="new 0 0 100 100" xml:space="preserve">
<path d="M57.51,33.079v-3.087h-6.066v3.087h-3.085v2.979v9.365v2.979h3.085v3.087h6.066v-3.087h0.107h0.914h2.064v-2.979v-9.365  v-2.979H57.51z"/>
<path d="M29.738,33.08v-3.087h-6.064v3.087h-3.087v2.98v9.363v2.98h3.087v3.086h6.064v-3.086h0.106h0.915h2.066v-2.98v-9.363v-2.98  H29.738z"/>
<path d="M91.715,36.166h-0.105v-6.173h-3.086v-6.171h-3.086v-3.087h-3.086v-3.086h-3.086v-3.086h-3.088v-3.087h-3.084V8.392h-9.258  V5.305h-27.67v3.087h-9.257v3.085h-3.088v3.087h-3.085v3.086h-3.087v3.087h-3.087v3.086h-3.085v6.171H8.39v6.173H5.304v30.756H8.39  v6.172h3.087v3.086h3.085v6.172h3.087v3.087h2.979h0.107h2.979h0.106l0,0v3.086h3.088v3.086h9.257v3.085h27.67V91.61h9.258v-3.086  h3.084v-3.086h6.174v-3.087h3.086V76.18h3.086v-3.086h3.086v-6.172h3.086V36.166H91.715z M91.715,46.412v4.664v12.865h-3.086v6.172  h-3.086v2.98v0.105h-0.105h-2.59h-0.391v1.25v1.73v0.106v2.979v0.105h-0.105h-1.977h-1.004v0.551v2.536h-6.172v3.087h-3.086v3.085  h-9.26v3.087H39.145V91.61v-1.177V88.63h-9.258v-0.105V87.55v-2.005h-1.36h-1.618h-0.107v-0.106v-1.49v-1.489H25.31h-1.489h-0.106  h-2.979h-0.107v-0.107v-1.285v-1.694h-3.086v-6.173h-3.086v-3.086H11.37v-6.172H8.285V39.146l0,0h3.085v-6.173l0,0h0.107h2.979  v-6.172l0,0h3.086v-3.086l0,0h3.086v-2.979v-0.107l0,0h0.107l0,0h2.979v-2.979v-0.106h3.087v-3.086l0,0h3.086v-3.086h9.258V8.285  l0,0h21.707l0.002,3.086h9.254l0.006,3.086h3.086v3.086h3.086v3.086h3.086v3.087h3.086v3.086h3.086v6.172h3.086v6.173h3.086V46.412z  "/>
<rect x="42.33" y="63.935" width="9.153" height="2.979"/>
</svg>