<?xml version="1.0" encoding="utf-8"?>
<!-- Generator: Adobe Illustrator 15.1.0, SVG Export Plug-In . SVG Version: 6.00 Build 0)  -->
<!DOCTYPE svg PUBLIC "-//W3C//DTD SVG 1.1//EN" "http://www.w3.org/Graphics/SVG/1.1/DTD/svg11.dtd">
<svg version="1.1" id="Layer_1" xmlns="http://www.w3.org/2000/svg" xmlns:xlink="http://www.w3.org/1999/xlink" x="0px" y="0px"
	 width="100px" height="30px" viewBox="0 0 100 30" enable-background="new 0 0 100 30" xml:space="preserve">
<path d="M88,0C75.241,0,55.361,9.094,50,11.662C44.639,9.094,24.759,0,12,0C2.508,0,0,9.812,0,15s2.508,15,12,15
	c12.759,0,32.639-9.094,38-11.662C55.361,20.906,75.241,30,88,30c9.492,0,12-9.812,12-15S97.492,0,88,0z M6,15
	c0.003-0.422,0.145-9,6-9c9.094,0,23.065,5.55,30.872,9C35.065,18.45,21.094,24,12,24C6.145,24,6.003,15.422,6,15z M88,24
	c-9.094,0-23.065-5.55-30.872-9C64.935,11.55,78.906,6,88,6c5.855,0,5.997,8.578,6,9C93.997,15.422,93.855,24,88,24z"/>
</svg>
