<svg xmlns="http://www.w3.org/2000/svg" xmlns:xlink="http://www.w3.org/1999/xlink" version="1.1" id="Layer_1" x="0px" y="0px" width="100px" height="100px" viewBox="0 0 100 100" enable-background="new 0 0 100 100" xml:space="preserve">
<path d="M83.916,33.317l5.666-12.618l-11.33-0.817V3.962l-27.294,10.3l-6.695-10.3l-11.33,7.21l-7.21-7.21l-3.604,15.92l-7.21,2.619  l3.979,11.54c-5.289,6.538-8.47,14.854-8.47,23.919c0,21.031,17.047,38.078,38.078,38.078c21.03,0,38.079-17.047,38.079-38.078  c0-5.255-1.066-10.26-2.99-14.812l5.998-2.822L83.916,33.317z M69.309,46.268c0,3.36-2.725,6.076-6.076,6.076  s-6.074-2.716-6.074-6.076c0-1.702,0.707-3.238,1.836-4.341c1.096-1.068,2.59-1.733,4.238-1.733c2.148,0,4.027,1.125,5.111,2.811  C68.947,43.951,69.309,45.065,69.309,46.268z M39.833,46.268c0,3.36-2.724,6.076-6.075,6.076c-3.351,0-6.074-2.716-6.074-6.076  c0-3.353,2.724-6.074,6.074-6.074C37.109,40.194,39.833,42.915,39.833,46.268z M48.496,89.808  c-16.979,0-30.739-14.726-30.739-30.741h61.478C79.234,75.082,65.475,89.808,48.496,89.808z"/>
</svg>