<svg xmlns="http://www.w3.org/2000/svg" xmlns:xlink="http://www.w3.org/1999/xlink" version="1.1" id="Layer_1" x="0px" y="0px" width="100px" height="100px" viewBox="0 0 100 100" enable-background="new 0 0 100 100" xml:space="preserve">
<path d="M46.974,70.064c-2.406,0-4.363,1.957-4.363,4.362c0,2.406,1.957,4.362,4.363,4.362c2.404,0,4.364-1.956,4.364-4.362  C51.338,72.021,49.378,70.064,46.974,70.064z"/>
<path d="M62.066,70.064c-2.405,0-4.362,1.957-4.362,4.362c0,2.406,1.957,4.362,4.362,4.362s4.363-1.956,4.363-4.362  C66.43,72.021,64.472,70.064,62.066,70.064z"/>
<path d="M77.159,70.064c-2.406,0-4.362,1.957-4.362,4.362c0,2.406,1.956,4.362,4.362,4.362c2.404,0,4.363-1.956,4.363-4.362  C81.522,72.021,79.563,70.064,77.159,70.064z"/>
<polygon points="33.963,39.486 39.468,39.486 39.468,27.891 39.465,27.891 35.665,21.709 30.975,24.591 33.963,29.453 "/>
<path d="M77.159,62.282H46.974c-6.566,0-11.909,5.343-11.909,11.909c0,6.565,5.343,11.908,11.909,11.908h30.185  c6.566,0,11.909-5.343,11.909-11.908C89.068,67.625,83.726,62.282,77.159,62.282z M77.159,82.326H46.974  c-4.488,0-8.136-3.649-8.136-8.135c0-4.487,3.648-8.137,8.136-8.137h30.185c4.484,0,8.136,3.649,8.136,8.137  C85.295,78.677,81.644,82.326,77.159,82.326z"/>
<path d="M79.872,40.822V21.956V14.41h-11.32h-5.66h-9.433l-9.426,26.413H23.745v14.387h-3.839  c-1.253-8.158-8.254-14.442-16.756-14.442v5.393c6.407,0,11.626,5.215,11.626,11.622c0,6.41-5.219,11.625-11.626,11.625v5.393  c8.502,0,15.503-6.284,16.756-14.441h3.839V74.78h9.462c-0.009-0.197-0.029-0.391-0.029-0.589c0-7.607,6.186-13.796,13.795-13.796  h30.185c7.605,0,13.796,6.188,13.796,13.796c0,0.198-0.022,0.392-0.029,0.589h5.925V40.822H79.872z M72.325,40.822h-3.538v11.319  H55.424V40.822h-3.852l6.736-20.752h14.017V40.822z M92.134,54.264h-9.433v-1.886h9.433V54.264z M92.134,50.491h-9.433v-1.887h9.433  V50.491z M92.134,46.718h-9.433v-1.887h9.433V46.718z"/>
</svg>