<svg xmlns="http://www.w3.org/2000/svg" xmlns:xlink="http://www.w3.org/1999/xlink" version="1.1" id="Layer_1" x="0px" y="0px" width="100px" height="100px" viewBox="0 0 100 100" enable-background="new 0 0 100 100" xml:space="preserve">
<g>
	<g>
		<path d="M78.812,39.016v4.441l-0.426,0.426c-0.479,0.477-1.112,0.734-1.783,0.734c-0.626,0-1.214-0.221-1.676-0.63l-10.768-7.38    l-0.091-0.091c-0.484-0.48-0.748-1.12-0.744-1.798c0-0.674,0.264-1.309,0.744-1.788l0.096-0.091l1.479-1.014h-5.886    c0-2.586-2.582-2.586-2.582-2.586H41.663c-2.59,0-2.59,2.586-2.59,2.586H23.564c-2.856,0-5.167,2.318-5.167,5.161v23.6    c0.896,0.173,1.83,0.309,2.789,0.399v-4.442l0.43-0.426c0.481-0.476,1.116-0.733,1.79-0.733c0.62,0,1.208,0.222,1.672,0.63    l10.763,7.381l0.099,0.09c0.481,0.48,0.742,1.119,0.742,1.799c-0.004,0.674-0.268,1.309-0.746,1.787l-0.095,0.091l-1.241,0.852    h40.667c2.856,0,5.175-2.308,5.175-5.167V39.219C79.908,39.137,79.368,39.065,78.812,39.016z M28.064,44.747    c-2.131,0-3.874-1.738-3.874-3.873c0-2.145,1.743-3.888,3.874-3.888c2.142,0,3.877,1.743,3.877,3.888    C31.941,43.009,30.206,44.747,28.064,44.747z M49.42,64.604c-7.468,0-13.531-6.057-13.531-13.525    c0-7.471,6.062-13.525,13.531-13.525c7.476,0,13.521,6.054,13.521,13.525C62.941,58.547,56.896,64.604,49.42,64.604z"/>
		<path d="M49.42,42.344c-4.787,0-8.691,3.894-8.691,8.686c0,4.789,3.904,8.689,8.691,8.689c4.796,0,8.681-3.9,8.681-8.689    C58.101,46.237,54.216,42.344,49.42,42.344z"/>
	</g>
	<path d="M65.087,35.494l10.744,7.361c0.426,0.426,1.11,0.426,1.541,0v-5.384c8.631,0.372,15.409,4.026,15.409,8.491   c0,3.711-4.696,6.862-11.244,8.033v0.233c9.261-1.477,15.977-5.85,15.977-11.02c0-5.919-8.803-10.791-20.146-11.464v-5.155   c-0.421-0.419-1.11-0.426-1.536,0l-10.744,7.367C64.656,34.378,64.661,35.068,65.087,35.494z"/>
	<path d="M24.171,57.146c-0.421-0.426-1.108-0.426-1.535,0v5.384c-8.632-0.372-15.414-4.026-15.414-8.491   c0-3.432,4.02-6.38,9.798-7.733v-0.272c-8.503,1.68-14.534,5.863-14.534,10.758c0,5.919,8.811,10.791,20.15,11.466v5.153   c0.426,0.42,1.113,0.426,1.539,0l10.74-7.363c0.426-0.426,0.426-1.115,0-1.54L24.171,57.146z"/>
</g>
</svg>