<svg xmlns="http://www.w3.org/2000/svg" xmlns:xlink="http://www.w3.org/1999/xlink" version="1.1" id="Layer_1" x="0px" y="0px" width="100px" height="100px" viewBox="0 0 100 100" enable-background="new 0 0 100 100" xml:space="preserve">
<g>
	<path d="M50,7.106c-23.69,0-42.894,19.201-42.894,42.892C7.106,73.689,26.31,92.894,50,92.894s42.894-19.204,42.894-42.896   C92.894,26.308,73.69,7.106,50,7.106z M66.602,29.987c3.776,0,6.844,3.065,6.844,6.842c0,3.783-3.067,6.842-6.844,6.842   c-3.777,0-6.842-3.059-6.842-6.842C59.76,33.053,62.824,29.987,66.602,29.987z M33.398,29.987c3.777,0,6.841,3.065,6.841,6.842   c0,3.783-3.064,6.842-6.841,6.842s-6.841-3.059-6.841-6.842C26.557,33.053,29.622,29.987,33.398,29.987z M50,85.874   c-19.125,0-34.627-16.59-34.627-34.627h69.255C84.628,69.284,69.125,85.874,50,85.874z"/>
</g>
</svg>