<svg xmlns="http://www.w3.org/2000/svg" xmlns:xlink="http://www.w3.org/1999/xlink" version="1.1" id="Layer_1" x="0px" y="0px" width="100px" height="100px" viewBox="0 0 100 100" enable-background="new 0 0 100 100" xml:space="preserve">
<g>
	<path d="M49.999,3.5C24.565,3.5,3.876,24.194,3.876,49.623c0,25.434,20.688,46.127,46.122,46.127   c25.437,0,46.125-20.693,46.125-46.127C96.123,24.194,75.436,3.5,49.999,3.5z M84.979,68.969c0.011-0.108,0.05-0.155,0.07-0.244   c-6.768,12.401-19.928,20.812-35.05,20.812c-22.04,0-39.909-17.868-39.909-39.915c0-2.438,0.253-4.805,0.663-7.122   c0.315,0,0.435,1.267,0.832,1.371c0.318,0.089,0.667-0.872,0.861-0.122c0.268,0.054,0.137,1.348,0.246,1.609   c0.273,0.682,0.787,1.05,1.316,1.224c-0.165,0.582-0.075,1.067-0.033,1.659c0.051,0.636-0.491,1.292-0.337,1.903   c0.055,0.014,0.097,0.034,0.157,0.049c-0.013-0.069,0.037-0.207,0.099-0.29c0.604,0.2,0.211,3.273,1.016,3.603   c0.407,0.174,0.474-1.803,1.318-1.51c0.405,0.154,0.067,1.211,0.107,1.505c0.005,0.015,0.67-0.606,0.732-0.705   c-0.144-0.492-0.161-1.848-1.055-1.463c-1.877,0.812-1.068-2.469-0.695-3.447c0.434-1.125,2.053-3.192-0.129-3.321   c-1.8-0.109,0.28-1.798,0.507-2.205c0.174-0.194,0.318-0.362,0.483-0.721c0.253-0.521,0.699-0.914,0.961-1.445   c-2.036-0.362-2.123,2.284-4.005,1.873c-1.378-0.288,1.606-5.25,1.761-5.607c0.002,0,0.017,0.004,0.028,0.01   c0.581-1.021,1.323-1.5,2.334-2.041c0.678-0.373,1.145,0.656,1.641,0.432c-0.075-0.168,0.152-0.335,0.33-0.619   c-0.111,0.05-0.089,0.05-0.188-0.017c0.293-0.094,0.562-0.03,0.824-0.094c-0.097,0.161,1.617,0.437,1.629,0.472   c0.067,0.249-1.09,3.204-0.474,3.293c0.687,0.087,1.229-1.965,1.283-2.434c0.189-1.823,1.57-2.475,3.095-3.139   c-0.01-0.014-0.015-0.021-0.025-0.034c0.383-0.254,0.843-0.316,1.202-0.599c-0.278-0.316,0.147-0.213,0.304-0.432   c-0.072-0.022-0.129-0.042-0.129-0.167c0.214-0.05,0.348-0.184,0.419-0.367c-0.032,0-0.074,0-0.109-0.002   c-0.047-0.127,0.415-0.917,0.536-1.026c-0.022,0.057-0.208,0.82-0.236,0.812c0.536,0.017,0.631-0.874,0.899-1.04   c-0.084-0.214,1.418-0.761,1.769-0.848c-0.09-0.099-0.437-0.007-0.557-0.015c0.606-0.261,1.428-0.231,1.989-0.434   c-0.906,0.03,0.733-1.337,1.274-1.222c0.521,0.114,1.588-0.626,2.229-0.646c-0.125,0.169-0.082,0.239,0.146,0.209   c-0.856,0.04-1.53,1.123-0.884,0.787c0.39-0.206,2.121-0.477,2.287-0.807c0.098-0.191-1.925-0.059-1.028-1.171   c-0.08,0-0.238-0.035-0.378-0.035c0.251-0.164,0.731-0.094,0.899-0.397c0.2-0.357-2.319,0.227-2.451,0.233   c1.045-0.829,6.065-0.656,5.565-2.349c-0.152,0.045-1.782,0.475-1.817,0.275c0.373-0.108,1.303-0.198,1.498-0.38   c0.127-0.148-1.302-0.03-1.019-0.501l0.021-0.02c-0.335,0.002-0.45-0.119-0.586-0.202c0.854-0.27-0.219-1.708-0.717-1.037   c0.064,0.079,0.138,0.136,0.225,0.175c-0.221-0.075-0.387-0.129-0.136-0.571c-0.412,0.754-2.083,0.269-2.643,0.011   c-1.941-0.939-1.351,0.352-2.811,0.682c0.029,0.692,1.016,0.692-0.333,1.234c-1.088,0.437-0.444,0.671-1,1.279   c-0.487,0.013-0.67-0.032-0.72-0.106c0.091,0.029,0.179,0.05,0.271,0.044c0.116-0.149-0.132-0.149-0.276-0.12   c0.044-0.21,0.601-0.556,0.216-0.829c-1.132,0.042-0.993-0.783-2.406-0.723c0.387-0.401,0.45-0.639-0.146-0.537   c0.768-0.514,2.24-0.974,2.841-1.522c-0.038-0.05-0.102-0.08-0.159-0.099c0.695,0.06,1.875-0.065,2.329-0.463   c-0.325-0.037-0.738,0.011-0.698-0.161c0.331,0.099,0.728,0.097,1.145,0.042c-0.367,0.159-0.872,0.437-1.056,0.596   c0.098-0.015,0.333-0.044,0.495-0.027c-0.092,0.067-0.202,0.135-0.06,0.131c0.551-0.029,1.473-0.121,2.019-0.283   c-0.03-0.064-0.272-0.029-0.379-0.099c-0.04-0.02,0.04-0.062,0.027-0.104c-0.049-0.145-0.591-0.219-0.718-0.165   c0.013-0.035,0-0.069,0.008-0.102c0.129-0.027,0.255-0.066,0.385-0.096c-0.052,0.039-0.013,0.076,0.129,0.076   c-0.02-0.049,0.05-0.116-0.106-0.081c0.764-0.216,1.498-0.574,1.867-0.887c-0.193,0-0.419-0.092-0.613-0.107   c0.283-0.007,0.517-0.017,0.651-0.013c-0.184,0.138,0.718-0.099,0.951,0.033c-0.01,0-0.017,0.005-0.025,0.005   c0.072,0.017,0.144,0.041,0.209,0.108c-0.095,0.024-0.194,0.058-0.281,0.078c0.007-0.018,0.571,0.002,0.696,0.065   c-0.231-0.023-0.445,0.024-0.639,0.156c-0.015,0.016,0.757,0.228,0.765-0.085c0.48,0.346-0.943,0.606-0.551,0.74   c-0.504,0.221-1.452,0.074-1.806,0.547c-0.057,0.079,1.565-0.1,1.721-0.026c0.385,0.189,1.112,0.632,1.723,0.498   c0.489-0.109-0.432-0.556-0.427-0.551c0.835-0.138,0.805,0.28,1.028-0.433c-0.29,0.03-0.38-0.244-0.582-0.226   c0.048-0.142,0.115-0.057,0.165-0.152c0.387,0.06,1.174,0.281,1.242-0.208c0.005-0.03-1.048-0.392-1.125-0.422   c0.09-0.054,0.146-0.059,0.271-0.099c-0.092-0.05-0.193-0.06-0.3-0.037c0.08-0.047,0.167-0.047,0.267-0.062   c-0.076-0.085-0.169-0.109-0.275-0.085c0.009-0.024,0.02-0.044,0.028-0.06c-0.873-0.037-1.628-0.311-2.549-0.323   c0.049,0,0.146-0.184,0.136-0.205c-0.134-0.371-2.289,0.364-1.781,0.138c-0.245,0,0.534-0.206,0.703-0.24   c-0.454-0.025-0.862-0.025-1.321,0.065c0.156-0.051,0.315-0.085,0.459-0.165c-0.958,0.04-1.313,0.035-2.014,0.529   c0.23,0.01,0.441-0.042,0.646-0.171c-0.042,0.005-0.092,0.007-0.136,0.007c0.248-0.116,0.675-0.082,0.911-0.156   c-0.144,0.08-1.008,0.179-0.881,0.447c0,0,0.606,0.005,0.673,0.037c-0.188,0.159-0.43,0.182-0.702,0.065   c-0.246,0.198,1.723,0.216,1.736,0.216c-0.251,0.067-1.202,0.934-1.535,0.628c-0.049-0.217,0.072-0.311,0.345-0.3   c0.229-0.189-0.944,0.083-0.886,0.082c0.292-0.233-0.241-0.134,0.201-0.261c-0.105-0.05-0.403,0.021-0.43-0.055   c0.139-0.042,0.278-0.089,0.42-0.131c0.317-0.236-1.018-0.207-1.391,0.072c-0.097,0.064,0.484,0.121,0.382,0.204   c-0.097,0.049-0.189,0.104-0.286,0.156c0.097-0.024,0.174-0.032,0.286-0.064c-0.146,0.21-0.697,0.142-1.043,0.41   c-0.208,0.035-0.174-0.007-0.089-0.054c-0.481,0.131-1.83-0.025-2.667-0.057c-0.315,0.253-0.869,0.302-1.053,0.235   c-1.075-0.364-1.925,0.383-2.638,1.016c-1.042,0.937-2.031,1.93-2.972,2.968C27.701,14.841,38.227,9.71,49.999,9.71   c22.046,0,39.914,17.87,39.914,39.912c0,6.656-1.649,12.918-4.531,18.434c0.054-0.053,0.104-0.125,0.162-0.162   C85.362,68.25,85.173,68.609,84.979,68.969z"/>
	<path d="M49.454,17.087c-0.051-0.003-0.099-0.035-0.088-0.065c0.215-0.02,0.449-0.067,0.546-0.134   c-0.159,0.018-0.283-0.014-0.41-0.08c0.057-0.163,0.33,0.03,0.41-0.173c0.074-0.219-0.435-0.181-0.41-0.243   c0.12-0.26,0.934,0.104,1.048-0.165c-0.137-0.064-0.272-0.108-0.419-0.126c0.062-0.007,0.147-0.017,0.211-0.033   c-0.246-0.064-0.486-0.075-0.732-0.046c0.28-0.151,1.844-0.5,1.96-0.703c0.436-0.018,1.253-0.078,1.372-0.258   c0.042-0.065-3.83,0.401-4.06,0.441c0.054-0.042,0.854-0.298,0.869-0.323c0.015-0.027-0.151-0.009-0.372,0.012   c0.271-0.047,0.503-0.124,0.648-0.25c-2.042-0.04-4.257-0.162-6.258,0.3c0.023,0.021,0.082,0.021,0.117,0.04   c-0.111-0.005-0.208,0.007-0.306,0.047c0.097,0.075,0.204,0.104,0.323,0.094c-0.159,0.01-0.961-0.146-1.058,0   c-0.023,0.032,0.007,0.047,0.007,0.077c-0.154-0.067-0.369-0.102-0.452,0.037c-0.295,0.015-2.307,0.104-2.521,0.516   c0.122,0.053,0.244,0.065,0.38,0.035c-0.218,0.412-1.14,0.05-1.308,0.424c-0.065,0.117,0.817,0.049,0.898,0.049   c-0.171,0.199-0.665-0.02-0.816,0.199c0.127-0.018,0.249-0.003,0.362,0.046c-0.032,0.025-0.072,0.03-0.129,0.055   c0.124,0.067,0.251,0.087,0.38,0.049c-0.014,0-0.032-0.009-0.042-0.02c0.39-0.109,1.842-0.109,1.577,0.589   c0.178,0.047,0.169,0.102-0.015,0.201c0.154-0.012,0.598,0.242,0.652,0.249c-0.122,0.194-0.382-0.035-0.556,0.005   c-0.02,0.117,0.442,0.136,0.628,0.179c-0.201,0.238-0.732,0.312-0.829,0.63c0.04-0.02,0.089-0.014,0.121,0   c-0.251,0.354,0.184,0.403,0.303,0.541c-0.554,0.298,0.963,0.994,1.175,1.009c0.329,0.029,1.063-1.227,1.687-1.338   c-0.013,0.021-0.022,0.057-0.033,0.096c0.671,0.01,1.01-0.362,1.591-0.534c0.902,0.012,1.851-0.144,2.705-0.433   c-0.213-0.041-1.115-0.021-1.072-0.171c0.288-0.028,0.132-0.028,0.178-0.188c0.129,0.042,1.107,0.401,1.178,0.188   c0.083-0.312-0.718-0.451-0.865-0.53c0.097-0.302,0.683,0.486,0.849,0c-0.161-0.09-0.325-0.165-0.501-0.209   C48.677,17.173,49.184,17.404,49.454,17.087z"/>
	<path d="M88.213,46.15c-0.714,0.244-1.426,0.634-2.186,0.8c-1.351,0.24-1.866,0.63-2.237-0.998   c-0.266-1.132-2.203-1.91-2.465-3.114c-0.193-0.918-0.426-1.234-1.024-1.902c-0.551-0.621-0.353-1.699-0.793-2.464   c-0.395-0.67-0.48-1.376-0.84-2.063c-0.533-1.021-1.63-2.401-1.688-3.554c0.354,0.389,0.744,1.436,1.164,1.505   c0.262-1.123,0.301-1.41-0.137-2.486c-0.729,0.194-1.374-0.266-2.079-0.007c-0.945,0.347-1.682,0.229-2.631-0.109   c-0.678-0.241-3.382-1.822-3.346,0.009c0.038,2.131-2.493-0.632-3.146-0.848c-0.705-0.224-1.877,0.173-1.861-1.043   c0-0.691,0.259-1.223,0.3-1.832c-0.198,0.196-0.386,0.183-0.552-0.042c-0.305-0.475-0.742,0.15-1.087,0.161   c-0.713,0.02-1.351,0.005-2.05,0.03c-1.047,0.042-2.166,0.596-3.063,1.105c-1.115,0.65-2.105-0.301-2.735,0.551   c0.012,0,0.021,0,0.039-0.003c-0.562,0.745-1.213,1.406-1.753,2.161c-0.38,0.522-0.243,1.197-0.438,1.78   c-0.169,0.549-0.792,1.076-1.317,1.27c-0.944,0.352-1.324,1.431-1.719,2.295c-0.318,0.694-0.574,1.348-0.946,2.013   c-0.5,0.867,0.171,2.258,0.131,3.206c-0.017,0.668-0.268,1.448-0.63,2.009c-0.35,0.554,0.109,1.22,0.09,1.949   c-0.016,0-0.035,0-0.058,0c0.371,0.581,0.808,1.103,1.27,1.615c0.818,0.903,0.998,2.115,1.862,2.995   c0.662,0.666,1.439,1.704,2.491,1.341c0.477-0.169,0.862-0.462,1.396-0.481c0.443-0.011,0.784,0.382,1.22,0.37   c1.02-0.023,2.037-1.453,3.271-1.483c0.899-0.019,0.819,1.525,1.601,1.504c2.527-0.049,2.23,1.751,1.584,3.513   c-0.412,1.124,0.694,2.189,1.323,2.979c0.623,0.796,0.696,1.987,0.954,2.953c0.241,0.907,0.68,2.317,0.463,3.257   c-0.222,0.928-1,1.588-1.176,2.544c-0.248,1.349,0.272,2.67,0.865,3.853c0.566,1.119,0.601,1.591,0.737,2.83   c0.282,2.677,2.334,4.604,2.301,7.172c0.268-0.154,1.097,0.365,1.819-0.02c0.756-0.402,1.41-0.214,2.19-0.293   c0.058-0.328,1.507-0.837,1.799-1.229c0.693-0.946,1.098-2.044,1.865-2.928c0.815-0.979-0.113-1.688,0.854-2.498   c0.911-0.753,1.201-0.454,1.254-1.917c0.024-0.636-1.18-2.185,0.121-2.447c0.153-0.916,1.065-1.323,1.775-1.765   c2.015-1.237,0.457-3.005,1.28-4.748c0.295-0.644-0.672-1.38-0.665-2.076c0.017-0.676-0.141-1.329-0.141-1.997   c0-0.658,0.552-0.997,0.688-1.608c0.506-2.325,2.49-2.955,3.712-4.742C86.923,51.68,89,48.023,88.213,46.15z"/>
</g>
</svg>