<svg xmlns="http://www.w3.org/2000/svg" xmlns:xlink="http://www.w3.org/1999/xlink" version="1.1" id="Layer_1" x="0px" y="0px" width="100px" height="100px" viewBox="0 0 100 100" enable-background="new 0 0 100 100" xml:space="preserve">
<path d="M31.636,47.989c0,4.491-3.72,8.146-8.292,8.146c-4.574,0-8.296-3.654-8.296-8.146c0-4.482,3.722-8.128,8.296-8.128  C27.916,39.861,31.636,43.507,31.636,47.989z"/>
<path d="M9.751,76.038h80.331V59.821L65.863,59.73H49.875l5.323,5.2c1.451,1.426,1.755,2.896,1.755,3.874  c0,1.919-1.144,3.636-2.915,4.377c-1.854,0.778-3.93,0.283-5.555-1.317L35.332,58.941c-1.51-1.488-2.182-3.057-2.182-5.09v-5.862  c0,5.331-4.394,9.66-9.807,9.66c-5.418,0-9.811-4.329-9.811-9.66c0-5.329,4.393-9.643,9.811-9.643c5.413,0,9.807,4.313,9.807,9.643  v-5.726c0-2.059,0.689-3.708,2.172-5.19l0.429-0.422h-26V76.038z"/>
<path d="M84.473,43.566c0,1.905-1.223,3.697-3.042,4.459c-1.907,0.799-4,0.341-5.598-1.23l-6.354-5.949l-6.326,6.354  c-0.004,0.088-0.005,0.494,0.004,0.571c0.01,0.059,0.021,0.111,0.03,0.157l26.896,2.165V36.651H79.433l3.328,3.151  C84.179,41.202,84.473,42.62,84.473,43.566z"/>
<path d="M49.671,25.094L36.393,38.143c-1.079,1.08-1.729,2.305-1.729,4.121V48v0.006v5.845c0,1.825,0.678,2.975,1.729,4.01  l13.154,12.925c3.583,3.534,8.175-1.247,4.595-4.773l-7.981-7.795h19.707l27.273,0.1c5.018,0.032,4.966-6.415,0.11-6.451  L62.38,49.383c0,0-0.489-0.046-0.72-1.376c-0.062-0.358,0-1.455,0-1.455l7.781-7.812l7.453,6.978  c3.458,3.399,8.396-1.293,4.826-4.813l-9.635-9.12c-2.035-1.964-5.783-2.505-7.917-0.405c-0.006,0.009-6.162,6.055-6.601,6.487  H46.121l8.148-8.007C57.722,26.64,53.092,21.726,49.671,25.094z"/>
<g>
	<path d="M95.56,74.534c0.878,0,1.587-0.708,1.587-1.583s-0.709-1.586-1.587-1.586h-3.977v3.169H95.56z"/>
	<path d="M4.438,71.365c-0.877,0-1.585,0.711-1.585,1.586s0.708,1.583,1.585,1.583h3.797v-3.169H4.438z"/>
</g>
<g>
	<path d="M95.56,41.49c0.878,0,1.587-0.709,1.587-1.586c0-0.876-0.709-1.585-1.587-1.585h-3.977v3.171H95.56z"/>
	<path d="M4.438,38.319c-0.877,0-1.585,0.709-1.585,1.585c0,0.877,0.708,1.586,1.585,1.586h3.797v-3.171H4.438z"/>
</g>
</svg>