<svg xmlns="http://www.w3.org/2000/svg" xmlns:xlink="http://www.w3.org/1999/xlink" version="1.0" x="0px" y="0px" width="100px" height="100px" viewBox="0 0 100 100" overflow="" enable-background="new 0 0 100 100" xml:space="preserve">
    <path d="M86.543,51.266c0,0,0.165-2.698-2.383-3.833c-6.121-2.734-10.44,3.812-11.031,4.765 c-0.018,0.01-0.035,0.02-0.058,0.031c-0.132-1.485-0.481-2.976-1.15-4.372c-4.147-8.657-6.885-7.508-18.624-21.655 C41.565,12.053,48.649,0.025,48.649,0.025c-9.388,4.471-8.927,15.771-8.927,15.771c-2.499-3.335-5.232-3.865-5.232-3.865 c-1.918,6.566,0.652,12.758,0.652,12.758c-3.043-2.179-6.194-1.38-6.194-1.38c-0.017,3.194,2.982,8.871,3.204,9.291 c-15.066-5.819-15.726-18.366-15.726-18.366c-5.361,8.924,1.262,18.086,1.262,18.086c-3.925-1.397-6.499-0.331-6.499-0.331 c2.023,6.54,7.584,10.274,7.584,10.274c-3.739-0.128-5.923,2.28-5.923,2.28c1.808,2.773,7.819,5.991,7.819,5.991 c-3.109,1.784-5.453,6.249-5.453,6.249c3.154,0.67,8.013,0.585,11.022,0.442c-2.942,2.882-5.57,9.483-5.57,9.483 c5.542-0.904,11.749-4.174,11.749-4.174c-1.82,5.108-1.253,12.375-1.253,12.375s5.454-5.372,6.996-10.459 c0,0-0.054,5.179,1.213,8.377c-1.488,0.892-3.168,1.938-5.103,3.238C23.518,83.24,19.277,99.691,19.277,99.691 c5.01-7.453,8.923-9.379,15.683-11.164c6.76-1.788,17.353-0.447,27.861-6.023c10.512-5.565,13.636-13.951,17.145-20.995 c3.507-7.046,9.866-8.447,9.866-8.447C88.271,51.284,86.543,51.266,86.543,51.266z M65.289,57.178 c-0.86,0.21-1.719-0.319-1.928-1.175h-0.009c-1.2-4.964-4.331-9.57-11.284-11.583c-21.542-6.253-27.51-4.759-34.735-20.432 c8.205,15.18,20.932,13.58,36.039,17.732c8.142,2.234,11.664,7.729,13.028,13.323c0.022,0.07,0.05,0.134,0.063,0.206 C66.672,56.104,66.145,56.972,65.289,57.178z M80.672,52.719c-0.699,0-1.266-0.566-1.266-1.266s0.566-1.266,1.266-1.266 s1.266,0.566,1.266,1.266S81.371,52.719,80.672,52.719z"/>
</svg>