<svg xmlns="http://www.w3.org/2000/svg" xmlns:xlink="http://www.w3.org/1999/xlink" version="1.1" id="Layer_1" x="0px" y="0px" width="100px" height="100px" viewBox="0 0 100 100" enable-background="new 0 0 100 100" xml:space="preserve">
<path d="M34.094,19.843c1.095,0,1.973-0.878,1.973-1.973V7.813c0-1.087-0.877-1.973-1.973-1.973c-1.095,0-1.98,0.886-1.98,1.973  V17.87C32.113,18.965,32.999,19.843,34.094,19.843z"/>
<path d="M22.83,30.809c0-1.095-0.886-1.981-1.981-1.981H10.801c-1.095,0-1.981,0.886-1.981,1.981c0,1.095,0.886,1.98,1.981,1.98  h10.048C21.944,32.79,22.83,31.904,22.83,30.809z"/>
<path d="M23.514,23.329c0.773,0.773,2.021,0.773,2.794,0c0.773-0.772,0.773-2.021,0-2.802l-7.105-7.109  c-0.769-0.765-2.025-0.765-2.798,0c-0.773,0.781-0.773,2.037,0,2.81L23.514,23.329z"/>
<path fill="none" d="M68.258,44.464c-6.047,0-11.152,8.39-11.152,18.318c0,9.936,5.105,18.333,11.152,18.333  s11.15-8.397,11.15-18.333C79.408,52.854,74.305,44.464,68.258,44.464z"/>
<polygon fill="none" points="68.854,26.348 43.885,26.445 38.659,31.775 63.471,31.775 "/>
<path d="M78.152,42.782L91.18,12.234l-3.502-8.527H57.846c0,0-29.396,24.042-39.146,43.157c-0.246,0.483-0.511,0.934-0.737,1.433  c-0.052,0.121-0.137,0.258-0.189,0.378l0.056-0.008c-1.695,3.954-2.713,8.591-2.713,13.607c0,14.18,7.842,25.677,17.528,25.677  c1.458,0,3.262,0,5.186,0c-0.024,0.218-0.068,0.427-0.068,0.652c0,4.243,3.45,7.689,7.693,7.689s7.689-3.446,7.689-7.689  c0-0.226-0.045-0.435-0.064-0.652c5.25,0,10.242,0,13.664,0c9.686,0,17.535-11.497,17.535-25.677c0-7.842-2.451-14.774-6.236-19.485  L78.152,42.782z M45.455,93.145c-2.508,0-4.533-2.037-4.533-4.541c0-0.241,0.097-0.435,0.129-0.652c2.794,0,5.789,0,8.808,0  c0.032,0.218,0.129,0.411,0.129,0.652C49.988,91.107,47.963,93.145,45.455,93.145z M38.659,31.775l5.226-5.33l24.969-0.097  l-5.383,5.427H38.659z M79.408,62.782c0,9.936-5.104,18.333-11.15,18.333s-11.152-8.397-11.152-18.333  c0-9.928,5.105-18.318,11.152-18.318S79.408,52.854,79.408,62.782z"/>
</svg>