<svg xmlns="http://www.w3.org/2000/svg" xmlns:xlink="http://www.w3.org/1999/xlink" version="1.1" id="Layer_1" x="0px" y="0px" width="100px" height="100px" viewBox="0 0 100 100" enable-background="new 0 0 100 100" xml:space="preserve">
<path d="M84.449,56.341c4.127,18.39-7.435,36.645-25.825,40.772c-18.39,4.129-36.643-7.434-40.77-25.826  c-4.129-18.391,7.435-36.647,25.825-40.772C62.069,26.388,80.329,37.95,84.449,56.341z"/>
<path d="M16.156,23.792c0,0,15.341,14.465,15.417,14.542c0.494,0.501,1.562,1.02,2.362,0.513c0.793-0.51,1.029-1.567,0.513-2.361  l-11.114-17.3L16.156,23.792z"/>
<path d="M39.819,2c0,0,7.298,7.222,4.61,17.474C41.57,30.333,31.831,32.43,31.831,32.43s-7.808-5.289-4.605-17.473  C30.512,2.444,39.819,2,39.819,2z"/>
</svg>