<svg xmlns="http://www.w3.org/2000/svg" xmlns:xlink="http://www.w3.org/1999/xlink" version="1.1" id="Layer_1" x="0px" y="0px" width="100px" height="100px" viewBox="0 0 100 100" enable-background="new 0 0 100 100" xml:space="preserve">
<path d="M74.699,24.005C67.32,10.864,58.344,3.33,50.073,3.333c-8.271,0.003-17.241,7.546-24.608,20.695  C18.933,35.682,14.549,50.46,14.554,60.803c0.008,19.6,15.962,35.539,35.563,35.53c19.599-0.01,35.537-15.964,35.528-35.563  C85.64,50.427,81.241,35.653,74.699,24.005z M50.239,90.306h-0.13c-16.447,0-29.837-13.214-29.844-29.662  c-0.004-9.302,4.183-23.197,10.182-33.901C36.576,15.807,44.083,9.035,50.042,9.007c5.995-0.003,13.524,6.82,19.677,17.775  c6.009,10.698,10.206,24.521,10.212,33.824C79.938,76.985,66.624,90.306,50.239,90.306z"/>
<path d="M51.133,43.502c-10.688-0.418-19.691,7.91-20.106,18.597c-0.417,10.69,7.908,19.692,18.597,20.108  c10.689,0.416,19.69-7.911,20.106-18.599C70.15,52.922,61.821,43.918,51.133,43.502z"/>
</svg>