<svg xmlns="http://www.w3.org/2000/svg" xmlns:xlink="http://www.w3.org/1999/xlink" version="1.1" id="Layer_1" x="0px" y="0px" width="100px" height="100px" viewBox="0 0 100 100" enable-background="new 0 0 100 100" xml:space="preserve">
<g>
	<path d="M89.729,42.463c-1.666-8.184-9.644-13.459-17.827-11.793l-4.393,0.894C62.608,17.417,52.241,7.616,40.448,7.616   c-16.885,0-30.488,19.083-30.488,42.39c0,23.319,13.604,42.377,30.488,42.377c13.434,0,24.998-12.697,28.788-30.042   c0.651-3.402,1.002-6.988,1.002-10.681c0-2.222-0.132-4.418-0.351-6.555c2.934,5.382,3.937,9.559,3.633,16.088l4.418-0.904   C86.12,58.625,91.408,50.634,89.729,42.463z M29.971,62.499c-3.911,0-7.061-4.43-7.061-9.825c0-5.384,3.15-9.801,7.061-9.801   c3.826,0,6.976,4.417,6.976,9.801C36.947,58.069,33.797,62.499,29.971,62.499z"/>
</g>
</svg>