<svg xmlns="http://www.w3.org/2000/svg" xmlns:xlink="http://www.w3.org/1999/xlink" version="1.1" id="Layer_1" x="0px" y="0px" width="100px" height="100px" viewBox="0 0 100 100" enable-background="new 0 0 100 100" xml:space="preserve">
<g>
	<path fill="#000000" d="M62.823,69.561c3.051-3.562,8.317-8.192,16.079-10.012c0.939-0.223,1.222-0.361,1.293-0.439   c0.139-0.174,0.123-0.276,0.117-0.315c-0.051-0.364-0.688-0.826-1.151-1.164c-0.243-0.176-0.468-0.34-0.632-0.487   c-0.905-0.836-1.735-1.761-2.43-2.552c-0.748-0.862-2.615-4.843-4.308-8.506l-0.491-1.06c-0.998-2.131-2.167-4.195-3.473-6.136   c-2.604-3.874-5.803-7.347-9.505-10.323c-6.625-5.323-14.591-8.137-23.036-8.137c-1.353,0-2.726,0.075-4.08,0.223   c-9.799,1.07-18.595,5.889-24.77,13.571c-10.109,12.603-8.093,31.087,4.496,41.2c4.112,3.297,9.284,5.113,14.562,5.113   c3.002,0,5.933-0.57,8.71-1.697c3.661-1.489,6.901-3.903,9.369-6.981c3.07-3.822,4.466-8.607,3.932-13.478   c-0.531-4.871-2.926-9.242-6.745-12.309c-2.549-2.051-5.757-3.181-9.033-3.181c-4.417,0-8.535,1.968-11.295,5.398   c-3.905,4.869-3.119,12.019,1.752,15.938c1.837,1.479,4.124,2.152,6.492,1.894c2.35-0.259,4.46-1.414,5.941-3.257   c2.359-2.952,1.887-7.271-1.054-9.625c-1.097-0.881-2.457-1.276-3.867-1.133c-1.396,0.154-2.648,0.84-3.522,1.931l-0.139,0.118   c-0.042,0.025-0.268,0.148-0.576,0.148c-0.313,0-0.604-0.125-0.84-0.361c-0.409-0.409-0.37-0.93-0.281-1.172l0.081-0.145   c1.256-1.562,3.045-2.542,5.038-2.757c2.009-0.215,3.952,0.357,5.516,1.614c3.91,3.129,4.54,8.867,1.403,12.791   c-1.864,2.314-4.51,3.767-7.451,4.086c-2.98,0.322-5.849-0.521-8.154-2.377c-5.83-4.7-6.77-13.271-2.096-19.106   c3.192-3.966,7.949-6.239,13.052-6.239c3.789,0,7.499,1.308,10.447,3.682c4.286,3.438,6.976,8.344,7.574,13.811   c0.599,5.474-0.969,10.849-4.415,15.136c-1.032,1.282-2.192,2.469-3.449,3.528c-0.205,0.17-0.547,0.406-0.943,0.676   c-0.609,0.416-2.227,1.521-2.273,1.943c-0.003,0.062,0.005,0.139,0.095,0.237c0.428,0.474,1.794,0.754,4.061,0.841l0.104,0.004   c4.071,0.164,7.68-0.771,11.002-2.854C57.628,75.326,61.089,71.586,62.823,69.561z"/>
	<path fill="#000000" d="M96.025,51.352c-0.525-0.66-2.004-3.324-2.398-4.322c-0.846-2.131-0.977-5.165-0.343-7.919l0.179-0.758   c0.189-0.797,0.371-1.548,0.482-2.372c0.093-0.677-0.12-1.131-0.672-1.427c-0.424-0.228-0.912-0.271-1.506-0.133l-0.17,0.04v-9.953   c0.666-0.224,1.156-0.834,1.156-1.577c0-0.93-0.755-1.683-1.684-1.683c-0.93,0-1.686,0.753-1.686,1.683   c0,0.71,0.452,1.294,1.074,1.541v10.471c-0.453,0.238-0.902,0.512-1.301,0.762l-0.354,0.22c-0.201,0.127-0.393,0.265-0.582,0.406   l-0.289,0.215v-7.99c0.623-0.247,1.072-0.835,1.072-1.545c0-0.93-0.754-1.684-1.684-1.684s-1.684,0.754-1.684,1.684   c0,0.743,0.49,1.353,1.158,1.576v9.12c-0.898,1.085-1.525,2.4-1.874,4.037c-0.378,1.779-0.457,3.65-0.233,5.56   c0.069,0.607,0.164,1.207,0.258,1.804c0.166,1.052,0.337,2.14,0.371,3.265l0.011,0.223c0.062,1.187,0.245,4.783-2.579,7.4   c-0.857,0.793-2.258,1.172-3.738,1.57c-0.789,0.213-1.604,0.434-2.389,0.727c-1.253,0.465-2.557,1.084-4.102,1.951   c-2.588,1.447-5.043,3.395-7.299,5.783c-0.678,0.719-1.371,1.477-2.055,2.225c-1.658,1.811-3.223,3.521-4.436,4.537   c-1.743,1.459-3.414,2.625-6.353,3.92l-0.019,0.008c0.406,0.023,0.814,0.043,1.225,0.062c1.025,0.053,2.048,0.1,3.072,0.141   c0.796,0.033,2.648,0.051,4.959,0.051h0.001c5.356,0,12.817-0.098,17.69-0.375C89.305,80.023,100,72.68,100,62.652   C100,58.553,98.589,54.539,96.025,51.352z"/>
</g>
</svg>