<svg xmlns="http://www.w3.org/2000/svg" xmlns:xlink="http://www.w3.org/1999/xlink" version="1.1" id="Layer_1" x="0px" y="0px" width="100px" height="100px" viewBox="0 0 100 100" enable-background="new 0 0 100 100" xml:space="preserve">
<g>
	<path d="M40.725,22.478c1.329,4.629,4.94,8.089,9.271,8.089c4.327,0,7.939-3.458,9.268-8.085c-0.966,0.279-2.135,0.562-2.135,0.562   c1.445-2.786,3.442-7.982-0.372-11.079c-3.512-2.851-6.754,1.504-6.754,1.504c-0.004,0-3.245-4.355-6.756-1.504   c-3.815,3.097-1.818,8.293-0.374,11.079C42.874,23.043,41.694,22.759,40.725,22.478L40.725,22.478z M70.32,66.783   c-4.391,1.475-8.536,2.635-13.415,3.236v1.684c0,0.945-0.343,1.809-0.914,2.473c4.914,1.055,9.947,3.514,7.389,8.832   c-1.223,2.537-3.209,3.846-5.036,5.828c-1.003,1.09-1.017,1.441,0.164,2.025c1.245,0.617,3.953,0.295,5.705,1.004   c1.751,0.707,3.118,2.055,4.826,2.828c1.3,0.592,8.045,1.408,9.142,0.328c0.07-0.07,0.359-0.4-0.928-1.514   c-1.848-1.6-13.557-3.525-11.669-6.402c0.56-0.85,1.501-1.572,2.225-2.266c1.33-1.273,2.935-2.926,4.072-4.951   C74.597,75.055,73.201,70.641,70.32,66.783L70.32,66.783z M29.127,57.23c0.765,0.287,1.898,0.693,3.374,1.127   c-1.14-1.512-1.873-3.203-2.188-5c4.421,6.502,8.745,9.637,19.688,9.637c10.943,0,15.267-3.135,19.688-9.637   c-0.314,1.797-1.049,3.488-2.187,5c1.475-0.434,2.607-0.84,3.372-1.127c2.521-4.781,3.197-10.213,1.87-15.873   c20.338-1.275,15.563,18.967,11.838,19.297c-1.781,0.156-3.479,1.012-4.401,1.945c-1.203,1.217-0.71,1.703,0.469,2.277   c-2.329,3.008-2.439,7.891,2.987,4.318c6.486,4.57,11.081-2.703,11.159-7.816c3.041-4.699,3.326-11.432,3.103-16.74   c-0.311-7.44,0.145-8.279-7.51-11.64c-10.69-4.694-17.983-12.023-28.123-15.561l-1.596,3.938   c-1.743,5.729-5.816,10.999-10.665,10.999c-4.852,0-8.926-5.269-10.667-10.999l-1.598-3.938   C27.597,20.974,20.305,28.304,9.613,32.999c-3.807,1.672-5.509,2.598-6.38,4.028c-1.098,1.802-1.045,5.587-1.131,7.612   c-0.222,5.308,0.062,12.041,3.103,16.74c0.079,5.113,4.672,12.387,11.161,7.816c5.426,3.572,5.317-1.311,2.987-4.318   c1.178-0.574,1.672-1.061,0.469-2.277c-0.924-0.934-2.62-1.789-4.402-1.945c-2.169-0.193-3.907-5.686-3.057-10.299   c1.39-7.542,7.967-9.432,14.896-8.998C25.931,47.017,26.606,52.449,29.127,57.23L29.127,57.23z M28.253,66.295l-0.311-0.107   c-0.993-0.346-0.539-0.52-0.393-4.318c0.093-2.436-1.204-4.459-0.171-4.939c-2.043-4.398-2.75-9.385-1.866-14.234   c-8.069-0.155-11.008,3.88-11.752,7.917c-0.9,4.887,1.255,8.578,1.785,8.625c2.099,0.186,4.114,1.176,5.287,2.361   c0.907,0.916,1.669,2.49,0.547,3.674c2.006,3.469,0.745,8.99-4.99,5.621c-6.893,4.273-12.35-3.283-12.596-9.084   C0.742,56.895,0.459,49.892,0.682,44.58c0.329-7.842,0.046-9.233,8.36-12.884c6.156-2.703,11.595-6.585,17.275-10.113   c3.749-2.328,7.213-4.193,10.875-5.495l-2.101-5.18c0,0,6.052-4.438,11.585-4.782C46.751,4.502,46.903,3.024,50,3.023   c3.103,0.001,3.254,1.479,3.328,3.102c5.532,0.345,11.585,4.782,11.585,4.782l-2.104,5.19c3.242,1.137,6.178,2.647,9.018,4.331   c3.055,1.809,6,3.82,9.107,5.785c3.096,1.957,6.349,3.868,10.024,5.482c4.007,1.759,6.098,2.983,7.157,4.842   c1.198,2.097,1.104,5.66,1.203,8.042c0.224,5.312-0.061,12.315-3.109,17.231c-0.246,5.801-5.704,13.357-12.598,9.084   c-5.734,3.369-6.996-2.152-4.99-5.621c-1.121-1.184-0.359-2.758,0.548-3.674c1.173-1.186,3.188-2.176,5.288-2.361   c0.529-0.047,2.685-3.738,1.783-8.625c-0.744-4.038-3.683-8.072-11.752-7.917c0.883,4.849,0.177,9.835-1.867,14.234   c1.034,0.48-0.263,2.504-0.169,4.939c0.145,3.799,0.599,3.973-0.394,4.318l-0.311,0.107c4.281,6.002,4.184,12.074-1.437,17.98   c-1.115,1.174-2.368,2.213-3.418,3.447l-0.055,0.064c1.03,1.264,9.376,2.941,11.346,4.646c3.455,2.988,0.602,4.465-2.472,4.539   c-2.633,0.062-6.207-0.504-7.262-0.984c-3.25-1.473-3.235-2.924-7.529-3.27c-2.738-0.221-6.893-1.301-3.624-4.846   c1.644-1.783,3.723-3.242,4.8-5.482c2.182-4.531-3.242-6.389-7.753-7.098c-0.386,0.131-0.801,0.203-1.23,0.203h-5.896   c-0.478,0-0.935-0.086-1.355-0.248c-5.882,0.881-12.176,3.58-5.8,10.025c0.865,0.875,1.803,1.691,2.64,2.6   c3.268,3.545-0.886,4.625-3.624,4.846c-4.315,0.348-4.312,1.812-7.529,3.27c-1.609,0.73-8.968,1.775-10.727,0.049   c-1.226-1.207-0.095-2.662,0.994-3.604c1.986-1.719,10.267-3.342,11.341-4.664c-0.225-0.287-0.535-0.6-0.868-0.912   c-2.043-1.91-4.014-3.787-5.411-6.271C24.778,76.846,24.171,72.025,28.253,66.295L28.253,66.295z M43.426,70.062   c-5.023-0.59-9.258-1.771-13.749-3.281c-4.792,6.387-3.853,11.963,2.514,18.059c1.846,1.768,4.151,3.068,0.5,4.85   c-2.25,1.1-8.571,2.633-9.944,3.818c-1.287,1.113-0.998,1.443-0.927,1.514c1.097,1.08,7.842,0.264,9.143-0.328   c2.301-1.043,3.638-2.809,6.387-3.227c1.105-0.164,3.208-0.145,4.143-0.605c1.182-0.584,1.168-0.936,0.165-2.025   c-1.829-1.982-3.814-3.291-5.036-5.828c-2.608-5.418,2.67-7.873,7.67-8.891c-0.541-0.656-0.866-1.498-0.866-2.414V70.062   L43.426,70.062z M53.079,19.483c1.191-0.564,2.351-0.127,2.422-0.068c-0.62,0.125-1.344,0.371-2.079,0.731   C52.475,20.608,51.96,20.013,53.079,19.483L53.079,19.483z M56.604,17.729c-0.665-0.274-1.61-0.464-2.663-0.501   c-0.82-0.029-1.581,0.04-2.2,0.178c0.044-0.083,0.926-0.952,2.243-0.922C55.222,16.513,56.256,17.048,56.604,17.729L56.604,17.729z    M46.921,19.483c1.12,0.53,0.606,1.125-0.341,0.663c-0.737-0.36-1.459-0.606-2.082-0.731C44.572,19.356,45.73,18.919,46.921,19.483   L46.921,19.483z M43.396,17.729c0.349-0.682,1.382-1.216,2.621-1.245c1.317-0.03,2.198,0.838,2.242,0.922   c-0.618-0.139-1.379-0.207-2.199-0.178C45.007,17.266,44.062,17.455,43.396,17.729L43.396,17.729z M52.224,27.508   c-0.311,0.561-1.189,0.965-2.227,0.965c-1.03,0-1.904-0.398-2.222-0.952c0.562,0.204,1.343,0.329,2.208,0.329   C50.864,27.85,51.66,27.719,52.224,27.508L52.224,27.508z M46.92,27.009c0.109-0.262,0.852-0.749,1.64-0.873   c0.871-0.136,1.27,0.046,1.43,0.252c0.16-0.206,0.559-0.388,1.431-0.252c0.8,0.126,1.555,0.626,1.645,0.884   c-0.898-0.247-1.961-0.389-3.096-0.389C48.853,26.631,47.81,26.769,46.92,27.009L46.92,27.009z M72.1,39.41   c-0.376,1.871-2.408,3.142-5.207,3.559c-3.771-1.305-8.12-2.518-12.798-3.52c-1.114-0.967-1.862-2.04-2.123-3.111   c1.574,1.62,4.287,3.038,7.522,3.748c5.513,1.21,10.451-0.091,11.03-2.907c0.144-0.696,0.009-1.416-0.359-2.127   C71.636,36.41,72.392,37.958,72.1,39.41L72.1,39.41z M27.747,39.41c-0.293-1.451,0.463-3,1.934-4.36   c-0.368,0.711-0.503,1.432-0.36,2.127c0.579,2.816,5.518,4.118,11.03,2.907c3.235-0.71,5.949-2.127,7.522-3.748   c-0.26,1.072-1.009,2.145-2.121,3.111c-4.679,1.002-9.028,2.215-12.799,3.52C30.154,42.552,28.123,41.28,27.747,39.41L27.747,39.41   z"/>
</g>
</svg>