<svg xmlns="http://www.w3.org/2000/svg" xmlns:xlink="http://www.w3.org/1999/xlink" version="1.1" id="Layer_1" x="0px" y="0px" width="100px" height="100px" viewBox="0 0 100 100" enable-background="new 0 0 100 100" xml:space="preserve">
<path fill="#000000" d="M40.926,88.348c-0.978,0.438-2.358,0.67-3.792,0.67c-0.969,0-1.888-0.104-2.671-0.295  c-0.264,0.41-0.81,0.834-1.743,1.289c-2.256,1.102-8.596,2.64-9.974,3.831c-1.289,1.115-1,1.448-0.93,1.517  c1.101,1.084,7.865,0.265,9.17-0.328c2.309-1.047,3.649-2.818,6.407-3.236c1.108-0.167,3.216-0.145,4.154-0.607  c1.185-0.586,1.172-0.938,0.166-2.031C41.453,88.875,41.19,88.606,40.926,88.348L40.926,88.348z M34.314,87.2  c0.711,0.235,1.702,0.393,2.819,0.393c1.067,0,1.979-0.142,2.651-0.343c-0.801-0.765-1.57-1.525-2.232-2.445  c-1.131,0.758-2.418,1.392-3.713,1.843C34.022,86.832,34.184,87.016,34.314,87.2L34.314,87.2z M36.04,79.845  c-2.685,0.455-6.098-0.06-8.623-1.247c0.107,0.268,0.226,0.535,0.356,0.803c2.087,1.631,5.659,2.741,8.392,2.601  C35.95,81.212,35.919,80.495,36.04,79.845L36.04,79.845z M32.632,85.531c1.435-0.41,2.917-1.099,4.169-1.94  c-0.034-0.065-0.068-0.133-0.101-0.2c-2.25,0.224-5.012-0.342-7.315-1.389c0.779,1.037,1.725,2.084,2.833,3.146  C32.355,85.278,32.494,85.407,32.632,85.531L32.632,85.531z M64.117,79.829c0.124,0.653,0.096,1.374-0.12,2.168  c2.715,0.166,6.295-0.928,8.412-2.548c0.132-0.275,0.253-0.551,0.359-0.823C70.223,79.808,66.795,80.307,64.117,79.829  L64.117,79.829z M63.465,83.38l-0.084,0.169c1.247,0.849,2.728,1.544,4.167,1.964c0.136-0.122,0.269-0.243,0.395-0.365  c0.905-0.866,1.936-1.907,2.86-3.119C68.486,83.07,65.71,83.627,63.465,83.38L63.465,83.38z M62.636,84.768  c-0.662,0.929-1.435,1.695-2.24,2.463c0.679,0.211,1.614,0.362,2.716,0.362c1.075,0,2.031-0.146,2.737-0.368  c0.151-0.204,0.323-0.403,0.508-0.596C65.056,86.173,63.767,85.529,62.636,84.768L62.636,84.768z M59.261,88.322  c-0.272,0.267-0.544,0.542-0.812,0.834c-1.005,1.093-1.021,1.445,0.165,2.031c1.25,0.616,3.965,0.297,5.722,1.007  c1.756,0.709,3.128,2.061,4.839,2.837c1.306,0.593,8.069,1.412,9.17,0.328c0.071-0.068,0.36-0.401-0.93-1.517  c-1.558-1.35-10.102-2.931-11.665-5.112c-0.775,0.186-1.682,0.287-2.638,0.287C61.649,89.018,60.241,88.776,59.261,88.322  L59.261,88.322z M43.587,74.562c-0.513-0.734-0.814-1.626-0.814-2.587v-1.019c-4.911-0.63-9.097-1.823-13.514-3.314  c-2.189,3.132-2.986,6.075-2.425,8.992c2.458,1.687,7.029,2.453,9.884,1.594C38.004,76.351,40.773,75.219,43.587,74.562  L43.587,74.562z M70.897,67.642c-4.315,1.458-8.411,2.63-13.178,3.271v1.062c0,0.991-0.319,1.909-0.861,2.654  c2.697,0.662,5.31,1.77,6.562,3.565c2.814,0.899,7.396,0.165,9.906-1.502C73.929,73.437,72.815,70.403,70.897,67.642L70.897,67.642z   M28.68,56.523l0.074,0.027c1.031,0.387,2.069,0.741,3.113,1.065c-0.769-1.256-1.282-2.618-1.532-4.045  c4.434,6.523,8.77,9.67,19.745,9.67c10.975,0,15.312-3.146,19.746-9.67c-0.249,1.427-0.763,2.789-1.532,4.045  c1.044-0.324,2.083-0.679,3.112-1.065l0.075-0.027c2.142-4.566,2.654-9.675,1.408-14.986c20.397-1.279,15.609,19.023,11.874,19.354  c-1.787,0.158-3.487,1.017-4.415,1.952c-1.206,1.218-0.711,1.707,0.471,2.285c-2.336,3.014-2.447,7.912,2.997,4.327  c6.507,4.585,11.113-2.709,11.193-7.836c3.048-4.714,3.334-11.468,3.111-16.792c-0.314-7.463,0.144-8.303-7.534-11.675  c-10.722-4.708-18.035-12.058-28.206-15.606l-1.601,3.95c-1.746,5.746-5.834,11.031-10.696,11.031  c-4.866,0-8.953-5.285-10.699-11.031l-1.602-3.951C27.61,21.094,20.297,28.444,9.574,33.153c-3.819,1.678-5.526,2.606-6.399,4.041  c-1.102,1.808-1.049,5.604-1.134,7.634c-0.224,5.324,0.062,12.077,3.111,16.792c0.08,5.127,4.687,12.421,11.193,7.836  c5.444,3.585,5.333-1.313,2.997-4.327c1.181-0.578,1.676-1.067,0.47-2.285c-0.927-0.936-2.628-1.794-4.415-1.952  c-2.177-0.192-3.919-5.703-3.066-10.329c1.394-7.564,7.99-9.459,14.938-9.024C26.026,46.848,26.538,51.957,28.68,56.523  L28.68,56.523z M27.723,67.114c-0.742-0.258-1.116-0.634-1.104-1.552c0.024-1.788,0.405-3.499,0.068-5.288  c-0.242-1.283-0.788-3.447,0.356-3.904c-1.779-4.216-2.356-8.913-1.523-13.489c-8.093-0.158-11.04,3.89-11.787,7.938  c-0.903,4.904,1.258,8.604,1.789,8.649c2.106,0.188,4.127,1.182,5.303,2.37c0.91,0.919,1.675,2.498,0.55,3.685  c2.011,3.479,0.747,9.02-5.005,5.638c-6.914,4.288-12.387-3.292-12.633-9.109c-3.06-4.932-3.344-11.954-3.121-17.284  c0.33-7.864,0.048-9.259,8.386-12.92c6.174-2.712,11.628-6.605,17.326-10.144c3.759-2.335,7.234-4.206,10.907-5.511l-2.107-5.196  c0,0,6.07-4.451,11.62-4.797c0.075-1.627,0.228-3.11,3.333-3.111c3.11,0.001,3.264,1.484,3.338,3.111  c5.549,0.346,11.62,4.797,11.62,4.797l-2.112,5.206c3.253,1.139,6.198,2.654,9.045,4.342c3.063,1.815,6.019,3.833,9.135,5.804  c3.104,1.963,6.367,3.879,10.054,5.499c4.019,1.764,6.114,2.991,7.18,4.855c1.2,2.104,1.105,5.677,1.207,8.065  c0.224,5.33-0.061,12.353-3.121,17.284c-0.247,5.817-5.721,13.397-12.633,9.109c-5.752,3.382-7.018-2.159-5.006-5.638  c-1.125-1.187-0.361-2.766,0.55-3.685c1.176-1.188,3.197-2.183,5.303-2.37c0.531-0.046,2.692-3.745,1.789-8.649  c-0.747-4.049-3.692-8.097-11.787-7.938c0.835,4.587,0.254,9.298-1.535,13.521c1.477,0.67,0.154,4.361,0.205,5.68  c0.073,1.915,0.224,2.917,0.23,3.481c0.013,0.918-0.36,1.294-1.104,1.552l-0.125,0.043c3.86,5.82,3.586,11.701-1.861,17.427  c-1.117,1.174-2.373,2.216-3.428,3.454l-0.054,0.066c1.032,1.265,9.402,2.949,11.379,4.659c3.464,2.998,0.604,4.479-2.479,4.552  c-2.642,0.062-6.227-0.505-7.284-0.985c-3.258-1.479-3.245-2.936-7.551-3.283c-2.747-0.221-6.914-1.301-3.636-4.857  c1.647-1.786,3.734-3.252,4.815-5.497c1.998-4.151-2.367-6.064-6.586-6.907c-0.7,0.446-1.534,0.706-2.426,0.706H47.29  c-0.932,0-1.797-0.284-2.517-0.767c-5.512,1.059-10.637,3.813-4.66,9.859c0.868,0.876,1.808,1.696,2.648,2.605  c3.276,3.557-0.888,4.637-3.635,4.857c-4.328,0.35-4.325,1.819-7.552,3.283c-1.614,0.733-8.996,1.782-10.76,0.046  c-1.228-1.21-0.095-2.669,0.998-3.612c1.992-1.722,10.297-3.353,11.374-4.68c-0.225-0.287-0.536-0.6-0.87-0.911  c-2.049-1.917-4.026-3.799-5.426-6.291c-2.032-3.618-2.671-8.245,0.959-13.725L27.723,67.114L27.723,67.114z M28.114,65.992  c5.161,1.793,9.798,3.201,15.428,3.862l0.42,0.048v2.072c0,1.836,1.49,3.326,3.328,3.326h5.914c1.839,0,3.329-1.49,3.329-3.326  l-0.001-2.108l0.418-0.052c5.481-0.677,10.038-2.064,15.1-3.822c0.116-0.042,0.188-0.07,0.234-0.097  c0.022-0.013,0.049-0.063,0.057-0.068c0.009-0.047,0.016-0.121,0.013-0.246c-0.006-0.562-0.156-1.556-0.23-3.455  c-0.027-0.747,0.065-1.45,0.184-2.071c0.112-0.602,0.253-1.145,0.334-1.601c0.153-0.872,0.033-0.908-0.485-0.911  c-0.082,0.028-0.191,0.068-0.33,0.12c-0.288,0.108-0.694,0.264-1.213,0.449c-0.862,0.312-2.035,0.709-3.499,1.12  c-3.173,3.684-8.919,6.141-17.032,6.141c-8.113,0-13.858-2.457-17.032-6.141c-1.463-0.411-2.636-0.808-3.5-1.12  c-0.518-0.186-0.923-0.341-1.212-0.449c-0.137-0.052-0.259-0.11-0.341-0.139c-0.519,0.003-0.627,0.058-0.473,0.93  c0.08,0.456,0.22,0.999,0.333,1.601c0.118,0.621,0.211,1.324,0.183,2.071c-0.072,1.899-0.223,2.894-0.23,3.455  c-0.002,0.125,0.005,0.199,0.014,0.246c0.003,0.014,0.052,0.056,0.056,0.068C27.925,65.922,27.995,65.95,28.114,65.992  L28.114,65.992z M40.777,22.601c1.333,4.643,4.956,8.114,9.299,8.114c4.34,0,7.963-3.469,9.297-8.11  c-0.969,0.281-2.143,0.563-2.143,0.563c1.45-2.794,3.454-8.006-0.373-11.112c-3.522-2.859-6.773,1.509-6.773,1.509  c-0.004,0-3.255-4.369-6.777-1.509c-3.826,3.106-1.823,8.317-0.374,11.112C42.933,23.168,41.749,22.883,40.777,22.601L40.777,22.601  z M27.76,39.582c-0.293-1.454,0.464-3.007,1.94-4.372c-0.369,0.714-0.505,1.438-0.361,2.134c0.581,2.825,5.533,4.13,11.062,2.917  c3.245-0.713,5.967-2.135,7.544-3.759c-0.26,1.074-1.011,2.15-2.127,3.12c-4.692,1.004-9.056,2.221-12.837,3.53  C30.175,42.735,28.138,41.459,27.76,39.582L27.76,39.582z M72.245,39.583c-0.378,1.877-2.416,3.153-5.223,3.57  c-3.781-1.309-8.144-2.526-12.836-3.53c-1.117-0.97-1.867-2.046-2.129-3.12c1.578,1.625,4.3,3.046,7.545,3.759  c5.528,1.213,10.482-0.092,11.063-2.917c0.144-0.696,0.008-1.42-0.361-2.134C71.78,36.574,72.538,38.127,72.245,39.583  L72.245,39.583z M53.168,19.598c1.195-0.565,2.357-0.127,2.431-0.069c-0.623,0.125-1.349,0.373-2.087,0.733  C52.561,20.726,52.046,20.13,53.168,19.598L53.168,19.598z M46.991,27.145c0.109-0.263,0.854-0.75,1.644-0.874  c0.875-0.138,1.275,0.046,1.436,0.252c0.159-0.206,0.56-0.39,1.435-0.252c0.803,0.126,1.56,0.626,1.648,0.886  c-0.9-0.248-1.965-0.391-3.104-0.391C48.93,26.766,47.882,26.905,46.991,27.145L46.991,27.145z M52.311,27.646  c-0.312,0.563-1.195,0.968-2.234,0.968c-1.032,0-1.909-0.399-2.228-0.955c0.563,0.203,1.347,0.33,2.214,0.33  C50.946,27.99,51.746,27.857,52.311,27.646L52.311,27.646z M43.458,17.84c0.349-0.685,1.386-1.22,2.628-1.249  c1.32-0.031,2.204,0.841,2.248,0.925c-0.621-0.139-1.383-0.208-2.205-0.179C45.072,17.374,44.124,17.564,43.458,17.84L43.458,17.84z   M46.992,19.598c1.123,0.532,0.608,1.128-0.342,0.664c-0.739-0.36-1.464-0.608-2.088-0.733  C44.636,19.47,45.798,19.033,46.992,19.598L46.992,19.598z M56.703,17.84c-0.667-0.276-1.614-0.466-2.672-0.503  c-0.82-0.029-1.584,0.04-2.205,0.179c0.044-0.083,0.929-0.956,2.249-0.925C55.318,16.62,56.354,17.155,56.703,17.84L56.703,17.84z"/>
</svg>