<svg xmlns="http://www.w3.org/2000/svg" xmlns:xlink="http://www.w3.org/1999/xlink" version="1.1" id="Layer_1" x="0px" y="0px" width="100px" height="100px" viewBox="0 0 100 100" enable-background="new 0 0 100 100" xml:space="preserve">
<path d="M100,49.028c0-3.138-2.553-5.692-5.691-5.692c-2.438,0-4.516,1.544-5.325,3.703l-24.35,1.388  c-0.95-1.823-2.854-3.074-5.049-3.074c-1.444,0-2.762,0.545-3.766,1.436l-7.735-3.506c0-0.015,0.002-0.028,0.002-0.043  c0-3.139-2.554-5.692-5.692-5.692c-1.188,0-2.291,0.367-3.204,0.991l-4.137-2.562c0.034-0.252,0.059-0.509,0.059-0.771  c0-3.139-2.554-5.692-5.693-5.692c-2.586,0-4.771,1.735-5.461,4.102l-13.44,1.82c-1.006-1.61-2.791-2.688-4.827-2.688  C2.553,32.749,0,35.302,0,38.441c0,3.139,2.553,5.693,5.691,5.693c2.595,0,4.786-1.747,5.469-4.124l13.423-1.818  c1.003,1.621,2.793,2.707,4.836,2.707c1.189,0,2.293-0.368,3.208-0.994l4.134,2.56c-0.034,0.254-0.059,0.511-0.059,0.775  c0,3.139,2.554,5.692,5.693,5.692c1.45,0,2.772-0.55,3.778-1.446l7.724,3.501c0,0.02-0.003,0.039-0.003,0.059  c0,2.76,1.975,5.065,4.583,5.583l1.167,5.164c-1.394,1.037-2.301,2.692-2.301,4.561c0,3.139,2.553,5.692,5.689,5.692  c2.316,0,4.312-1.393,5.199-3.384h16.906c0.888,1.991,2.883,3.384,5.198,3.384c3.139,0,5.692-2.554,5.692-5.692  c0-1.853-0.894-3.497-2.269-4.536l1.646-7.204C98.021,54.1,100,51.791,100,49.028z M85.139,64.044H68.23  c-0.741-1.662-2.254-2.908-4.085-3.273l-1.166-5.167c0.868-0.648,1.544-1.536,1.931-2.568l24.352-1.387  c0.396,0.762,0.961,1.42,1.644,1.932l-1.642,7.186C87.416,61.119,85.886,62.369,85.139,64.044z"/>
</svg>