<svg xmlns="http://www.w3.org/2000/svg" xmlns:xlink="http://www.w3.org/1999/xlink" version="1.1" id="Ebene_1" x="0px" y="0px" width="100px" height="100px" viewBox="0 0 100 100" enable-background="new 0 0 100 100" xml:space="preserve">
<circle cx="22.5" cy="19.998" r="3.5"/>
<circle cx="22.5" cy="47" r="3.5"/>
<path d="M0,100h45V0H0V100z M22.5,9.998c5.523,0,10,4.477,10,10s-4.477,10-10,10s-10-4.477-10-10S16.977,9.998,22.5,9.998z M22.5,37  c5.523,0,10,4.477,10,10s-4.477,10-10,10s-10-4.478-10-10S16.977,37,22.5,37z M22.5,63.169c8.192,0,14.833,6.642,14.833,14.833  c0,8.192-6.641,14.834-14.833,14.834c-8.192,0-14.833-6.642-14.833-14.834C7.667,69.811,14.308,63.169,22.5,63.169z"/>
<path d="M22.5,89.253c6.213,0,11.25-5.037,11.25-11.251c0-6.213-5.037-11.25-11.25-11.25c-6.213,0-11.25,5.037-11.25,11.25  C11.25,84.216,16.287,89.253,22.5,89.253z M22.5,74.064c2.175,0,3.938,1.764,3.938,3.938c0,2.175-1.763,3.938-3.938,3.938  s-3.938-1.764-3.938-3.938C18.562,75.828,20.325,74.064,22.5,74.064z"/>
<circle cx="77.5" cy="19.998" r="3.5"/>
<circle cx="77.5" cy="47" r="3.5"/>
<path d="M55,0v100h45V0H55z M77.5,9.998c5.522,0,10,4.477,10,10s-4.478,10-10,10s-10-4.477-10-10S71.978,9.998,77.5,9.998z M77.5,37  c5.522,0,10,4.477,10,10s-4.478,10-10,10s-10-4.478-10-10S71.978,37,77.5,37z M77.5,92.836c-8.192,0-14.833-6.642-14.833-14.834  c0-8.191,6.641-14.833,14.833-14.833s14.833,6.642,14.833,14.833C92.333,86.194,85.692,92.836,77.5,92.836z"/>
<path d="M77.5,66.752c-6.213,0-11.25,5.037-11.25,11.25c0,6.214,5.037,11.251,11.25,11.251s11.25-5.037,11.25-11.251  C88.75,71.789,83.713,66.752,77.5,66.752z M77.5,81.94c-2.175,0-3.938-1.764-3.938-3.938c0-2.174,1.763-3.938,3.938-3.938  s3.938,1.764,3.938,3.938C81.438,80.177,79.675,81.94,77.5,81.94z"/>
</svg>