<svg xmlns="http://www.w3.org/2000/svg" xmlns:xlink="http://www.w3.org/1999/xlink" version="1.1" id="Ebene_1" x="0px" y="0px" width="100px" height="100px" viewBox="0 0 100 100" enable-background="new 0 0 100 100" xml:space="preserve">
<g>
	<path d="M30.856,22.223h-6.349c-2.63,0-4.762,2.132-4.762,4.762v46.031c0,2.63,2.132,4.762,4.762,4.762h6.349   c2.63,0,4.762-2.132,4.762-4.762V26.984C35.618,24.354,33.486,22.223,30.856,22.223z"/>
	<path d="M11.805,30.159H9.423c-2.63,0-4.762,2.132-4.762,4.762V46H2c-1.104,0-2,0.896-2,2v4c0,1.104,0.896,2,2,2h2.662v11.079   c0,2.63,2.132,4.763,4.762,4.763h2.381c2.629,0,4.762-2.133,4.762-4.763V34.921C16.566,32.291,14.434,30.159,11.805,30.159z"/>
	<path d="M75.494,22.223h-6.35c-2.63,0-4.762,2.132-4.762,4.762v46.031c0,2.63,2.132,4.762,4.762,4.762h6.35   c2.629,0,4.762-2.132,4.762-4.762V26.984C80.256,24.354,78.123,22.223,75.494,22.223z"/>
	<path d="M98,46h-2.661V34.921c0-2.63-2.132-4.762-4.762-4.762h-2.381c-2.63,0-4.762,2.132-4.762,4.762v30.158   c0,2.63,2.132,4.763,4.762,4.763h2.381c2.63,0,4.762-2.133,4.762-4.763V54H98c1.104,0,2-0.896,2-2v-4C100,46.896,99.104,46,98,46z"/>
	<rect x="39" y="46" width="22" height="8"/>
</g>
</svg>