<svg xmlns="http://www.w3.org/2000/svg" xmlns:xlink="http://www.w3.org/1999/xlink" version="1.1" id="Layer_1" x="0px" y="0px" width="100px" height="46.7289719626px" viewBox="0 0 107.96 50.667" enable-background="new 0 0 107.96 50.667" xml:space="preserve">
<path d="M103.054,19.154L103.054,19.154c-0.105-0.184-0.193-0.324-0.289-0.482l-0.282-0.456l-0.57-0.897  c-0.383-0.594-0.773-1.182-1.172-1.765c-0.796-1.167-1.623-2.315-2.499-3.443c-0.879-1.127-1.802-2.235-2.837-3.303  c-0.52-0.533-1.067-1.056-1.676-1.559c-0.614-0.5-1.277-0.99-2.125-1.401l-0.208-0.101c-0.344-0.167-0.747-0.213-1.144-0.101l0,0  c-0.56,0.127-0.972,0.321-1.34,0.516c-0.364,0.198-0.682,0.406-0.978,0.619c-0.589,0.426-1.098,0.87-1.581,1.324  c-0.48,0.454-0.932,0.918-1.366,1.392c-0.217,0.236-0.43,0.476-0.64,0.718c-0.214,0.248-0.409,0.478-0.634,0.757  c-0.647,0.807-0.528,1.987,0.272,2.646c0.808,0.664,2,0.548,2.664-0.259l0.017-0.02c0.157-0.19,0.354-0.42,0.538-0.628  c0.188-0.212,0.379-0.422,0.572-0.629c0.387-0.412,0.784-0.811,1.186-1.181c0.401-0.37,0.812-0.714,1.206-0.992  c0.06-0.042,0.116-0.077,0.174-0.116c0.152,0.157,0.305,0.325,0.455,0.503c0.366,0.437,0.723,0.924,1.065,1.434  c0.687,1.022,1.32,2.136,1.919,3.277c0.598,1.143,1.16,2.32,1.692,3.512c0.113,0.254,0.22,0.51,0.33,0.766  c0,0-1.679,1.052-1.775,1.126c-1.946-0.58-4.887-1.078-9.252-1.078c-1.145,0-2.363,0.035-3.621,0.103  c-10.438,0.568-16.938,2.081-22.186,5.188c-1.31,0.257-2.929,0.468-4.725,0.468c-1.913,0-3.67-0.238-5.073-0.519  c-5.233-3.073-11.718-4.572-22.1-5.138c-1.257-0.068-2.476-0.103-3.621-0.103c-4.297,0-7.213,0.483-9.16,1.051  c-0.084-0.062-1.74-1.099-1.74-1.099c0.111-0.256,0.216-0.512,0.33-0.766c0.533-1.192,1.095-2.369,1.693-3.512  c0.598-1.141,1.233-2.254,1.918-3.277c0.343-0.51,0.699-0.998,1.066-1.434c0.149-0.179,0.303-0.347,0.455-0.503  c0.058,0.038,0.114,0.074,0.174,0.116c0.395,0.278,0.805,0.623,1.206,0.992c0.402,0.371,0.799,0.77,1.187,1.181  c0.193,0.207,0.384,0.417,0.573,0.629c0.184,0.208,0.382,0.438,0.537,0.628l0.017,0.021c0.658,0.799,1.838,0.921,2.646,0.271  c0.814-0.654,0.944-1.845,0.29-2.66c-0.225-0.279-0.419-0.509-0.633-0.756c-0.21-0.243-0.423-0.48-0.64-0.717  c-0.435-0.474-0.886-0.936-1.367-1.389c-0.483-0.454-0.992-0.893-1.581-1.319c-0.295-0.213-0.613-0.411-0.978-0.608  c-0.368-0.195-0.78-0.496-1.338-0.496h-0.001c-0.368-0.231-0.776-0.098-1.146,0.082l-0.205,0.08  c-0.848,0.412-1.511,0.901-2.125,1.401c-0.609,0.503-1.157,1.026-1.676,1.559c-1.035,1.068-1.958,2.176-2.837,3.303  c-0.876,1.128-1.704,2.277-2.5,3.443c-0.398,0.583-0.789,1.171-1.171,1.765l-0.57,0.897l-0.282,0.456  c-0.096,0.158-0.184,0.299-0.29,0.481v0.001c-0.656,1.087-0.55,2.522,0.355,3.501l0.537,0.581c0,0,3.176,3.325,3.517,3.647  c-0.121,3.442,0.131,8.723,2.434,11.8c3.823,5.106,11.939,6.179,18.075,6.179c5.021,0,9.409-0.695,11.84-1.346  c6.192-1.657,7.762-8.619,8.537-12.898c1.073-0.642,2.37-1.224,3.551-1.224c1.158,0,2.42,0.56,3.474,1.186  c0.771,4.277,2.333,11.274,8.543,12.937c2.433,0.65,6.82,1.346,11.841,1.346l0,0c6.136,0,14.253-1.072,18.075-6.179  c2.284-3.053,2.551-8.276,2.437-11.721c0.435-0.401,3.642-3.727,3.642-3.727l0.54-0.583  C103.562,21.72,103.743,20.296,103.054,19.154z M40.57,37.937c-1.982,0.53-5.882,1.15-10.348,1.15  c-6.71,0-11.613-1.409-13.451-3.865c-1.201-1.604-1.434-5.893-1.231-9.176c1.196-0.397,3.611-0.937,7.912-0.937  c1.042,0,2.155,0.031,3.307,0.095c10.121,0.551,15.039,2.025,18.282,3.683C44.494,31.986,43.577,37.133,40.57,37.937z   M91.458,35.222c-1.837,2.456-6.74,3.865-13.45,3.865c-4.466,0-8.365-0.62-10.348-1.15c-3.008-0.804-3.925-5.951-4.471-9.05  c3.242-1.657,8.159-3.132,18.281-3.683c1.153-0.063,2.265-0.095,3.307-0.095c4.301,0,6.717,0.539,7.913,0.937  C92.893,29.331,92.659,33.618,91.458,35.222z"/>
</svg>