<svg xmlns="http://www.w3.org/2000/svg" xmlns:xlink="http://www.w3.org/1999/xlink" version="1.1" id="Layer_1" x="0px" y="0px" width="97.2727272727px" height="100px" viewBox="0 -24.5 107.96 110" enable-background="new 0 -24.5 107.96 110" xml:space="preserve">
<path d="M85.833-16.009L63.126,6.698c-2.128,2.127-2.047,3.828-3.727,5.509c-1.668,1.668-3.683,2.787-5.47,3.706l-1.203-1.203  c-1.254-1.255-3.735-0.873-5.044,0.437l-1.242,1.241c-1.309,1.31-1.525,3.625-0.271,4.879l5.565,5.565L17.525,61.04l-2.664,0.612  L3.828,75.973l4.464,4.465l14.319-11.036l0.623-2.703l34.184-34.184l5.3,5.3c1.255,1.253,3.835,1.302,5.146-0.006l1.24-1.243  c1.31-1.308,1.426-4.055,0.173-5.31l-0.928-0.928l0.038-0.038c0.908-1.782,2.031-3.762,3.683-5.413  c1.654-1.652,3.356-1.626,5.414-3.685l22.775-22.776C108.128-9.452,93.703-23.878,85.833-16.009z"/>
</svg>