<svg xmlns="http://www.w3.org/2000/svg" xmlns:xlink="http://www.w3.org/1999/xlink" version="1.1" id="Layer_1" x="0px" y="0px" width="97.2727272727px" height="100px" viewBox="0 -24.5 107.96 110" enable-background="new 0 -24.5 107.96 110" xml:space="preserve">
<g>
	<path d="M10.884,71.454c-2.932,0-5.644-1.896-6.548-4.842c-1.111-3.618,0.918-7.45,4.535-8.563l0,0   c0.164-0.05,15.84-4.937,30.696-13.82c-3.704-6.539-4.709-12.829-4.881-17.056C33.966,9.567,45.761-9.13,58.953-11.3   c3.194-0.528,13.967-1.066,18.407,14.072c5.338,18.199-4.196,32.867-17.446,43.881c8.374,5.945,21.146,9.754,37.822,11.117   c3.773,0.307,6.58,3.614,6.273,7.386c-0.308,3.771-3.615,6.582-7.387,6.271c-24.346-1.986-39.205-8.678-48.238-16.529   C31.821,65.213,14.396,70.688,12.898,71.15C12.228,71.355,11.55,71.454,10.884,71.454z M61.334,2.209   c-0.052,0-0.104,0.004-0.155,0.013c-4.692,0.771-13.322,11.604-12.8,24.392c0.145,3.538,0.972,6.813,2.457,9.809   c11.846-9.678,16.342-19.671,13.374-29.795C63.897,5.569,62.794,2.209,61.334,2.209z"/>
</g>
</svg>