<svg xmlns="http://www.w3.org/2000/svg" xmlns:xlink="http://www.w3.org/1999/xlink" version="1.1" id="Layer_1" x="0px" y="0px" width="100px" height="100px" viewBox="0 0 100 100" enable-background="new 0 0 100 100" xml:space="preserve">
<g>
	<circle cx="38.973" cy="14.426" r="14.426"/>
</g>
<g>
	<path d="M71.498,88.69c-0.621,0.395-1.342,0.604-2.082,0.604c-1.316,0-2.535-0.646-3.262-1.729l-3.279-4.896   c-0.043-0.064-0.07-0.135-0.107-0.201H34.643V30.475C17.412,30.475,11,45.658,11,51.941S11,100,11,100h46.982l3.164-3.164   c2.422,1.048,5.535,0.81,8.197-0.896c3.156-2.018,4.717-5.469,4.141-8.51L71.498,88.69z"/>
</g>
<path d="M89.57,72.659l-3.279-4.897c-0.441-0.658-1.182-1.018-1.932-1.018c-0.422,0-0.846,0.113-1.223,0.354L64.854,78.701  c-1.045,0.663-1.338,2.048-0.646,3.075l3.279,4.896c0.439,0.658,1.182,1.018,1.93,1.018c0.422,0,0.848-0.113,1.225-0.354  l18.281-11.602C89.965,75.072,90.256,73.688,89.57,72.659z"/>
<g>
	<path d="M73.803,67.868l-3.445-5.407l2.703-1.723l3.445,5.406L73.803,67.868z M66.914,57.055l-3.445-5.406l2.703-1.724l3.443,5.407   L66.914,57.055z M60.021,46.24l-3.443-5.407l2.703-1.723l3.443,5.407L60.021,46.24z M53.133,35.426l-3.445-5.407l2.703-1.723   l3.445,5.407L53.133,35.426z"/>
</g>
</svg>