<svg xmlns="http://www.w3.org/2000/svg" xmlns:xlink="http://www.w3.org/1999/xlink" version="1.1" x="0px" y="0px" width="100px" height="93.75px" viewBox="0 0 176.5 165" enable-background="new 0 0 176.5 165" xml:space="preserve">
<g id="Layer_2" display="none">
	<path display="inline" d="M89.754,7.495L85.5,10.604c0,0,9.044,13.562,10.25,24.896c1.25,11.75-0.25,16-0.25,16   s-16.099-7.989-25.125-9.668C54.469,38.872,35.5,41.75,35.5,41.75s12,11,28.347,13.931c8.224,1.475,30.052,0,30.052,0   s0.672,0.675-1.149,6.069c-1.172,3.471-4.032,7.921-4.032,7.921S83.145,63.322,79,61.25s-11.75-3-15,1.25   c-4.341,5.677,1.399,14.185,6.625,15.972c5.964,2.039,14.767,1.043,14.875-0.511s2.182,2.072-4.036,6.736s-6.218,4.664-6.218,4.664   S66.218,81.235,60,78.127s-18.433-2.756-18.433-2.756S50.429,84.925,55,87.287C60.25,90,74,90.75,74,90.75S73.321,95.5,68.786,98   s-4.536,2.5-4.536,2.5s-4-8.25-8.5-10.5s-13.095-3.997-15.5,1.25c-2.75,6,2.75,11,7.75,13.25c0,0,11.75,0.5,13.25-0.5s0-0.5-4,3   s-13.005,7.75-20,14.25s-10.008,27.509-10.008,27.509S38,143.25,44.75,135s12-22.5,12-22.5s4.5-6,9.25-8.5s7.5-6,7.5-6l0.75,3.5   c0,0-4.881,2.168-8.25,6.5c-5.25,6.75-2.051,14.458,2.786,15.5c6.964,1.5,11.464-2.25,11.964-10C81.362,104.006,76,101,76,101   l-1.25-4.25L81.5,90c0,0-0.25,9.5,4,18.25s15.25,19,15.25,19s-0.988-18.453-2.25-23.5c-1.25-5-13-16.463-13-16.463L92.75,73   L96,61.25l0,0c0,0-2.213,11.889-0.5,16.877c1.614,4.7,8.378,9.754,15.987,5.453c5.75-3.25,5.078-11.95-0.237-18.08   c-5.241-6.044-13.5-5.75-13.5-5.75s2.5-7.75,2.5-9.75s0.913-2.624,0.913-2.624S109.255,61.424,122.75,71   c13.655,9.689,26.75,13.5,26.75,13.5s-10.898-19.667-20.297-27.604C117.953,47.396,102,41.25,102,41.25s0.513-2.308-2.25-14.25   C97.604,17.723,91.637,9.38,89.754,7.495z"/>
</g>
<g id="Layer_2_copy">
	<path d="M89.754,7.495L85.5,10.604c0,0,9.044,13.562,10.25,24.896c1.25,11.75-0.25,16-0.25,16s-16.099-7.989-25.125-9.668   C54.469,38.872,35.5,41.75,35.5,41.75s12,11,28.347,13.931c8.224,1.475,30.052,0,30.052,0s0.672,0.675-1.149,6.069   c-1.172,3.471-4.032,7.921-4.032,7.921S83.145,63.322,79,61.25s-11.75-3-15,1.25c-4.341,5.677,1.399,14.185,6.625,15.972   c5.964,2.039,13.875,0.066,15.875-2.139c1.047-1.154-0.333,5.333-5.036,8.364c-6.533,4.211-6.218,4.664-6.218,4.664   S66.218,81.235,60,78.127s-18.433-2.756-18.433-2.756S50.429,84.925,55,87.287C60.25,90,74,90.75,74,90.75S73.321,95.5,68.786,98   s-4.536,2.5-4.536,2.5s-4-8.25-8.5-10.5s-13.095-3.997-15.5,1.25c-2.75,6,4.416,12.083,7.25,12.916S59.75,105,61.25,104s0-0.5-4,3   s-13.005,7.75-20,14.25s-10.008,27.509-10.008,27.509S38,143.25,44.75,135s12-22.5,12-22.5s4.5-6,9.25-8.5s7.5-6,7.5-6l0.75,3.5   c0,0-4.881,2.168-8.25,6.5c-5.25,6.75-2.051,14.458,2.786,15.5c6.964,1.5,11.464-2.25,11.964-10C81.362,104.006,76,101,76,101   l-1.25-4.25L81.5,90c0,0-0.25,9.5,4,18.25s15.25,19,15.25,19s-0.988-18.453-2.25-23.5c-1.25-5-13-16.463-13-16.463L92.75,73   L96,61.25l0,0c0,0-2.213,11.889-0.5,16.877c1.614,4.7,8.378,9.754,15.987,5.453c5.75-3.25,5.078-11.95-0.237-18.08   c-5.241-6.044-13.5-5.75-13.5-5.75s2.5-7.75,2.5-9.75s0.913-2.624,0.913-2.624S109.255,61.424,122.75,71   c13.655,9.689,26.75,13.5,26.75,13.5s-10.898-19.667-20.297-27.604C117.953,47.396,102,41.25,102,41.25s0.513-2.308-2.25-14.25   C97.604,17.723,91.637,9.38,89.754,7.495z"/>
</g>
</svg>