<svg xmlns="http://www.w3.org/2000/svg" xmlns:xlink="http://www.w3.org/1999/xlink" version="1.1" id="Layer_1" x="0px" y="0px" width="100.0px" height="100px" viewBox="-35 -35 115 115" enable-background="new -35 -35 115 115" xml:space="preserve">
<polygon points="72.5,-1.726 55.606,-1.726 72.5,15.306 "/>
<path d="M55.573,16.918L36.93-1.726H24.78l18.49,18.644H24.753L6.103-1.726H-6.046l18.498,18.644H-6.072L-24.715-1.726h-1.674  v66.779c0,6.053,4.948,11.005,11.002,11.005h76.875c6.053,0,11.013-4.952,11.013-11.005V16.918H55.573z M59.288,64.599H-13.02  v-5.033h72.308V64.599z M59.288,33.478H27.742v12.725h31.546v5.037H-13.02v-5.037h35.723V33.478H-13.02v-5.043h72.308V33.478z"/>
<polygon points="-8.41,-22.183 13.415,-6.768 25.608,-8.367 3.635,-23.753 "/>
<path d="M-27.422-9.557l1.039,7.977l21.425-2.798l-19.323-13.537C-26.57-15.752-27.836-12.717-27.422-9.557z"/>
<path d="M71.088-22.404c-0.717-5.49-6.214-9.336-12.22-8.553l-6.146,0.802l19.115,13.507L71.088-22.404z"/>
<polygon points="22.154,-26.167 43.979,-10.753 56.18,-12.348 34.194,-27.74 "/>
</svg>