<svg xmlns="http://www.w3.org/2000/svg" xmlns:xlink="http://www.w3.org/1999/xlink" version="1.1" id="Layer_1" x="0px" y="0px" width="100.0px" height="100px" viewBox="0 0 14400 14400" enable-background="new 0 0 14400 14400" xml:space="preserve">
<g>
	<path d="M7233.109,7217.048l0.399-0.185l0.341-0.992c0,0-10.883,4.65-33.855,4.65c-22.972,0-35.497-9.301-35.497-9.301l0.342,1.585   c0,0,0.569,0.66,3.855,2.488c0.506,1.26,1.093,2.403,1.715,3.444c5.529,1.468,16.418,3.382,30.824,3.382   C7214.905,7222.12,7228.367,7218.473,7233.109,7217.048z"/>
	<path d="M7201.234,7222.744c-15.433,0-25.896-2.125-30.631-3.346c2.005,3.245,4.35,5.405,5.723,6.535   c1.849,1.521,4.881,3.08,5.862,3.113c2.247,0.073,45.07-0.176,45.07-0.176l2.064-3.608l3.262-7.422   C7227.362,7219.376,7214.396,7222.744,7201.234,7222.744z"/>
</g>
<g>
	<path d="M7177.922,7211.553c0,0-0.683-23.252,17.112-42.844c8.867,10.85,16.68,18.962,16.68,18.962l0.433,27.664L7177.922,7211.553   z"/>
	<g>
		<path d="M7206.428,7171.133h-0.911l-0.182,8.914c0.591,0.725,0.979,1.11,1.509,1.762L7206.428,7171.133z"/>
	</g>
</g>
<g>
	<path d="M7174.636,7210.84l-13.579-1.426c0,0-1.984-12.959,8.123-22.693c3.72,5.828,5.084,8.308,5.084,8.308L7174.636,7210.84z"/>
	<g>
		<path d="M7171.907,7186.062h-0.186l-0.046,3.798c0.098,0.157,0.193,0.312,0.286,0.462L7171.907,7186.062z"/>
		<g>
			<g>
				<path d="M7207.243,7215.466l-2.506-0.277l-0.057,4.641c0.892-0.025,1.765-0.059,2.614-0.099L7207.243,7215.466z"/>
				<g>
					<path d="M7188.71,7216.09h-7.502v1.529c2.279,0.579,4.784,1.09,7.502,1.481V7216.09z"/>
				</g>
			</g>
			<path d="M7172.21,7211.059l-0.791-0.083l-0.041,3.316c0.283,0.123,0.575,0.248,0.876,0.375L7172.21,7211.059z"/>
		</g>
	</g>
</g>
<g>
	<path d="M7214.566,7215.338c0,0-1.427-22.569,7.254-34.351c7.999,6.138,14.633,11.471,14.633,11.471l1.922,19.779   L7214.566,7215.338z"/>
	<g>
		<g>
			<path d="M7228.058,7214.219l-1.042,0.137l-0.42,3.123c0.396-0.088,0.773-0.176,1.136-0.261L7228.058,7214.219z"/>
		</g>
		<path d="M7231.532,7181.858l-0.224-0.027l-0.729,5.424c0.114,0.088,0.225,0.175,0.335,0.262L7231.532,7181.858z"/>
	</g>
</g>
</svg>