<svg xmlns="http://www.w3.org/2000/svg" xmlns:xlink="http://www.w3.org/1999/xlink" version="1.1" x="0px" y="0px" width="100px" height="100px" viewBox="0 0 100 100" enable-background="new 0 0 100 100" xml:space="preserve">
<g id="Thing" display="none">
	<g display="inline">
		<path d="M72.332,82.157C57.311,97.18,32.867,97.18,17.844,82.156l-3.199,3.199c16.787,16.787,44.101,16.786,60.887,0    c16.787-16.787,16.787-44.101,0-60.888c-11.388-11.388-29.852-11.388-41.239,0c-11.388,11.388-11.388,29.851,0,41.239    l-6.625,6.625c-15.023-15.023-15.023-39.467-0.001-54.49c15.023-15.023,39.467-15.023,54.49,0l3.199-3.198    c-16.787-16.787-44.101-16.787-60.887,0c-16.787,16.787-16.787,44.1,0,60.887c11.387,11.388,29.851,11.387,41.238,0    c11.389-11.389,11.389-29.852,0-41.239l6.625-6.625C87.355,42.69,87.355,67.134,72.332,82.157z"/>
	</g>
</g>
<g id="Pen">
	<polygon fill="none" points="24.915,8.758 25.071,9.504 27.642,8.021 27.124,7.481  "/>
	<polygon fill="none" points="24.915,8.758 25.071,9.504 27.642,8.021 27.124,7.481  "/>
	<path d="M28.326,8.378c-0.429-0.404-0.379-0.142-0.356-0.055c-0.056-0.093-0.118-0.194-0.169-0.279l-0.658-0.689l-2.344,1.352   l0.203,0.953c2.858,5.126,13.707,26.239,18.389,33.155l0.083-0.047l3.874-2.237l0.083-0.048   c-2.616-5.574-10.23-17.554-15.342-25.604c0.171-0.016,0.469-0.027,0.634,0.101c0.179,0.14,0.545,0.59,0.768,0.879   c1.129,1.46,6.684,9.866,7.628,11.943c0.19,0.42-0.085,1.147-0.033,1.267c0.089,0.201,1.515,2.598,2.248,3.233   c0.329,0.284,0.131-0.459-0.03-0.847C39.849,23.087,28.627,8.663,28.326,8.378z M25.071,9.504l-0.157-0.746l2.209-1.277   l0.518,0.541L25.071,9.504z"/>
	<path d="M71.813,90.823c0,0,0.433,0.077,0.573,0.321c0.066,0.115,2.295,3.447,2.295,3.447l1.872-1.081c0,0-1.771-3.596-1.837-3.711   c-0.141-0.244,0.066-0.69,0.066-0.69l-0.025-0.044l-2.971,1.713L71.813,90.823z"/>
	<polygon points="71.762,90.735 74.733,89.02 47.38,40.584 43.505,42.821  "/>
</g>
</svg>