<svg xmlns="http://www.w3.org/2000/svg" xmlns:xlink="http://www.w3.org/1999/xlink" version="1.1" id="Layer_1" x="0px" y="0px" width="100.0px" height="100px" viewBox="0 0 115 115" enable-background="new 0 0 115 115" xml:space="preserve">
<rect x="8.368" y="77.181" fill="#000000" width="98.263" height="6.408"/>
<path fill="#000000" d="M10.969,47.455H8.368v4.511l2.283,2.282h3.521v0.009c0.052-0.002,0.104-0.009,0.155-0.009  c2.006,0,3.633,1.627,3.633,3.633c0,2.007-1.626,3.631-3.633,3.631c-0.052,0-0.104-0.004-0.155-0.006v0.006h-3.56l-2.243,2.245  v12.714h98.264V63.227l-1.714-1.715h-3.904c-2.007,0-3.632-1.624-3.632-3.631c0-2.006,1.625-3.633,3.632-3.633h3.867l1.751-1.751  v-5.041h-2.602c1.908,0,3.469-1.561,3.469-3.469v-2.891v-1.301v-6.938c0-0.795-0.648-1.445-1.444-1.445H8.945  c-0.794,0-1.444,0.65-1.444,1.445v6.938v1.301v2.891C7.5,45.894,9.062,47.455,10.969,47.455z M54.23,54.834h0.008  c-0.002-0.047-0.008-0.093-0.008-0.141c0-1.805,1.464-3.269,3.27-3.269c1.806,0,3.27,1.463,3.27,3.269  c0,0.047-0.006,0.094-0.008,0.141h0.008v10.282c0,1.805-1.464,3.27-3.27,3.27c-1.805,0-3.27-1.465-3.27-3.27V54.834z"/>
</svg>