<svg xmlns="http://www.w3.org/2000/svg" xmlns:xlink="http://www.w3.org/1999/xlink" version="1.1" id="Layer_1" x="0px" y="0px" width="100.0px" height="100px" viewBox="0 0 115 115" enable-background="new 0 0 115 115" xml:space="preserve">
<path fill="#000000" d="M81.858,30.772h-0.533c-0.296,0-0.533-0.24-0.533-0.535c0-0.294,0.237-0.531,0.533-0.531h0.533  c0.293,0,0.533,0.236,0.533,0.531C82.392,30.533,82.151,30.772,81.858,30.772L81.858,30.772z"/>
<path fill="#000000" d="M78.659,30.772h-0.535c-0.294,0-0.533-0.24-0.533-0.535c0-0.294,0.239-0.531,0.533-0.531h0.535  c0.292,0,0.531,0.236,0.531,0.531C79.19,30.533,78.951,30.772,78.659,30.772L78.659,30.772z"/>
<path fill="#000000" d="M75.458,30.772h-0.532c-0.298,0-0.534-0.24-0.534-0.535c0-0.294,0.236-0.531,0.534-0.531h0.532  c0.294,0,0.534,0.236,0.534,0.531C75.992,30.533,75.752,30.772,75.458,30.772L75.458,30.772z"/>
<path fill="#000000" d="M72.258,30.772h-0.533c-0.296,0-0.533-0.24-0.533-0.535c0-0.294,0.237-0.531,0.533-0.531h0.533  c0.295,0,0.533,0.236,0.533,0.531C72.791,30.533,72.553,30.772,72.258,30.772L72.258,30.772z"/>
<path fill="#000000" d="M69.059,30.772h-0.535c-0.294,0-0.533-0.24-0.533-0.535c0-0.294,0.239-0.531,0.533-0.531h0.535  c0.293,0,0.533,0.236,0.533,0.531C69.592,30.533,69.352,30.772,69.059,30.772L69.059,30.772z"/>
<path fill="#000000" d="M65.857,30.772h-0.531c-0.297,0-0.535-0.24-0.535-0.535c0-0.294,0.238-0.531,0.535-0.531h0.531  c0.296,0,0.535,0.236,0.535,0.531C66.393,30.533,66.153,30.772,65.857,30.772L65.857,30.772z"/>
<path fill="#000000" d="M62.658,30.772h-0.534c-0.294,0-0.533-0.24-0.533-0.535c0-0.294,0.239-0.531,0.533-0.531h0.534  c0.294,0,0.533,0.236,0.533,0.531C63.191,30.533,62.952,30.772,62.658,30.772L62.658,30.772z"/>
<path fill="#000000" d="M59.458,30.772h-0.535c-0.292,0-0.531-0.24-0.531-0.535c0-0.294,0.239-0.531,0.531-0.531h0.535  c0.295,0,0.533,0.236,0.533,0.531C59.991,30.533,59.753,30.772,59.458,30.772L59.458,30.772z"/>
<path fill="#000000" d="M56.259,30.772h-0.535c-0.294,0-0.533-0.24-0.533-0.535c0-0.294,0.239-0.531,0.533-0.531h0.535  c0.292,0,0.531,0.236,0.531,0.531C56.79,30.533,56.551,30.772,56.259,30.772L56.259,30.772z"/>
<path fill="#000000" d="M53.057,30.772h-0.533c-0.294,0-0.533-0.24-0.533-0.535c0-0.294,0.239-0.531,0.533-0.531h0.533  c0.296,0,0.534,0.236,0.534,0.531C53.591,30.533,53.354,30.772,53.057,30.772L53.057,30.772z"/>
<path fill="#000000" d="M49.858,30.772h-0.533c-0.296,0-0.534-0.24-0.534-0.535c0-0.294,0.237-0.531,0.534-0.531h0.533  c0.294,0,0.533,0.236,0.533,0.531C50.391,30.533,50.152,30.772,49.858,30.772L49.858,30.772z"/>
<path fill="#000000" d="M46.658,30.772h-0.533c-0.296,0-0.533-0.24-0.533-0.535c0-0.294,0.237-0.531,0.533-0.531h0.533  c0.294,0,0.533,0.236,0.533,0.531C47.191,30.533,46.953,30.772,46.658,30.772L46.658,30.772z"/>
<path fill="#000000" d="M43.457,30.772h-0.533c-0.294,0-0.533-0.24-0.533-0.535c0-0.294,0.239-0.531,0.533-0.531h0.533  c0.294,0,0.533,0.236,0.533,0.531C43.99,30.533,43.751,30.772,43.457,30.772L43.457,30.772z"/>
<path fill="#000000" d="M40.257,30.772h-0.533c-0.294,0-0.533-0.24-0.533-0.535c0-0.294,0.239-0.531,0.533-0.531h0.533  c0.294,0,0.533,0.236,0.533,0.531C40.791,30.533,40.552,30.772,40.257,30.772L40.257,30.772z"/>
<path fill="#000000" d="M37.058,30.772h-0.533c-0.294,0-0.533-0.24-0.533-0.535c0-0.294,0.239-0.531,0.533-0.531h0.533  c0.294,0,0.534,0.236,0.534,0.531C37.591,30.533,37.352,30.772,37.058,30.772L37.058,30.772z"/>
<path fill="#000000" d="M33.858,30.772h-0.535c-0.294,0-0.533-0.24-0.533-0.535c0-0.294,0.239-0.531,0.533-0.531h0.535  c0.294,0,0.533,0.236,0.533,0.531C34.392,30.533,34.152,30.772,33.858,30.772L33.858,30.772z"/>
<path fill="#000000" d="M28.458,30.772h-0.533c-0.294,0-0.533-0.24-0.533-0.535c0-0.294,0.239-0.531,0.533-0.531h0.533  c0.294,0,0.533,0.236,0.533,0.531C28.991,30.533,28.752,30.772,28.458,30.772L28.458,30.772z"/>
<path fill="#000000" d="M24.924,30.772h-0.533c-0.294,0-0.533-0.24-0.533-0.535c0-0.294,0.239-0.531,0.533-0.531h0.533  c0.294,0,0.533,0.236,0.533,0.531C25.458,30.533,25.219,30.772,24.924,30.772L24.924,30.772z"/>
<path fill="#000000" d="M21.39,30.772h-0.533c-0.294,0-0.533-0.24-0.533-0.535c0-0.294,0.239-0.531,0.533-0.531h0.533  c0.294,0,0.534,0.236,0.534,0.531C21.924,30.533,21.685,30.772,21.39,30.772L21.39,30.772z"/>
<path fill="#000000" d="M17.857,30.772h-0.533c-0.294,0-0.533-0.24-0.533-0.535c0-0.294,0.239-0.531,0.533-0.531h0.533  c0.296,0,0.533,0.236,0.533,0.531C18.39,30.533,18.153,30.772,17.857,30.772L17.857,30.772z"/>
<g>
	<path fill="#000000" d="M51.194,52.988h-0.533c-0.296,0-0.533-0.239-0.533-0.533s0.237-0.533,0.533-0.533h0.533   c0.294,0,0.533,0.239,0.533,0.533S51.489,52.988,51.194,52.988L51.194,52.988z M47.995,52.988h-0.533   c-0.296,0-0.533-0.239-0.533-0.533s0.237-0.533,0.533-0.533h0.533c0.294,0,0.532,0.239,0.532,0.533S48.289,52.988,47.995,52.988   L47.995,52.988z M44.793,52.988H44.26c-0.294,0-0.533-0.239-0.533-0.533s0.239-0.533,0.533-0.533h0.533   c0.294,0,0.533,0.239,0.533,0.533S45.088,52.988,44.793,52.988L44.793,52.988z M41.594,52.988h-0.533   c-0.294,0-0.533-0.239-0.533-0.533s0.239-0.533,0.533-0.533h0.533c0.294,0,0.534,0.239,0.534,0.533S41.888,52.988,41.594,52.988   L41.594,52.988z M22.393,52.988H21.86c-0.294,0-0.531-0.239-0.531-0.533s0.237-0.533,0.531-0.533h0.533   c0.296,0,0.535,0.239,0.535,0.533S22.689,52.988,22.393,52.988L22.393,52.988z M19.194,52.988H18.66   c-0.294,0-0.533-0.239-0.533-0.533s0.239-0.533,0.533-0.533h0.534c0.296,0,0.533,0.239,0.533,0.533S19.49,52.988,19.194,52.988   L19.194,52.988z"/>
</g>
<path fill="#000000" d="M100.034,75.203c-0.292,0-0.552-0.239-0.552-0.533c0-0.295,0.22-0.533,0.514-0.533h0.038  c0.296,0,0.535,0.238,0.535,0.533C100.569,74.964,100.33,75.203,100.034,75.203L100.034,75.203z"/>
<path fill="#000000" d="M97.33,75.203h-0.531c-0.298,0-0.535-0.239-0.535-0.533c0-0.295,0.237-0.533,0.535-0.533h0.531  c0.294,0,0.535,0.238,0.535,0.533C97.865,74.964,97.624,75.203,97.33,75.203L97.33,75.203z"/>
<path fill="#000000" d="M94.131,75.203h-0.534c-0.294,0-0.533-0.239-0.533-0.533c0-0.295,0.239-0.533,0.533-0.533h0.534  c0.294,0,0.533,0.238,0.533,0.533C94.664,74.964,94.425,75.203,94.131,75.203L94.131,75.203z"/>
<path fill="#000000" d="M90.931,75.203h-0.533c-0.296,0-0.533-0.239-0.533-0.533c0-0.295,0.237-0.533,0.533-0.533h0.533  c0.293,0,0.533,0.238,0.533,0.533C91.464,74.964,91.224,75.203,90.931,75.203L90.931,75.203z"/>
<path fill="#000000" d="M87.731,75.203h-0.533c-0.296,0-0.533-0.239-0.533-0.533c0-0.295,0.237-0.533,0.533-0.533h0.533  c0.294,0,0.533,0.238,0.533,0.533C88.265,74.964,88.025,75.203,87.731,75.203L87.731,75.203z"/>
<path fill="#000000" d="M84.53,75.203h-0.532c-0.297,0-0.534-0.239-0.534-0.533c0-0.295,0.237-0.533,0.534-0.533h0.532  c0.294,0,0.535,0.238,0.535,0.533C85.065,74.964,84.824,75.203,84.53,75.203L84.53,75.203z"/>
<path fill="#000000" d="M81.332,75.203h-0.535c-0.294,0-0.531-0.239-0.531-0.533c0-0.295,0.237-0.533,0.531-0.533h0.535  c0.293,0,0.531,0.238,0.531,0.533C81.863,74.964,81.625,75.203,81.332,75.203L81.332,75.203z"/>
<path fill="#000000" d="M78.131,75.203h-0.533c-0.296,0-0.533-0.239-0.533-0.533c0-0.295,0.237-0.533,0.533-0.533h0.533  c0.294,0,0.533,0.238,0.533,0.533C78.664,74.964,78.425,75.203,78.131,75.203L78.131,75.203z"/>
<path fill="#000000" d="M74.932,75.203h-0.533c-0.297,0-0.535-0.239-0.535-0.533c0-0.295,0.238-0.533,0.535-0.533h0.533  c0.294,0,0.533,0.238,0.533,0.533C75.465,74.964,75.226,75.203,74.932,75.203L74.932,75.203z"/>
<path fill="#000000" d="M52.531,75.203h-0.533c-0.296,0-0.535-0.239-0.535-0.533c0-0.295,0.239-0.533,0.535-0.533h0.533  c0.294,0,0.534,0.238,0.534,0.533C53.064,74.964,52.825,75.203,52.531,75.203L52.531,75.203z"/>
<path fill="#000000" d="M49.33,75.203h-0.533c-0.294,0-0.533-0.239-0.533-0.533c0-0.295,0.239-0.533,0.533-0.533h0.533  c0.296,0,0.533,0.238,0.533,0.533C49.863,74.964,49.626,75.203,49.33,75.203L49.33,75.203z"/>
<path fill="#000000" d="M46.13,75.203h-0.534c-0.294,0-0.533-0.239-0.533-0.533c0-0.295,0.239-0.533,0.533-0.533h0.534  c0.294,0,0.533,0.238,0.533,0.533C46.664,74.964,46.424,75.203,46.13,75.203L46.13,75.203z"/>
<path fill="#000000" d="M42.931,75.203h-0.533c-0.294,0-0.533-0.239-0.533-0.533c0-0.295,0.239-0.533,0.533-0.533h0.533  c0.294,0,0.533,0.238,0.533,0.533C43.464,74.964,43.225,75.203,42.931,75.203L42.931,75.203z"/>
<path fill="#000000" d="M20.53,75.203h-0.533c-0.294,0-0.533-0.239-0.533-0.533c0-0.295,0.239-0.533,0.533-0.533h0.533  c0.296,0,0.535,0.238,0.535,0.533C21.065,74.964,20.826,75.203,20.53,75.203L20.53,75.203z"/>
<path fill="#000000" d="M31.293,94.342c-0.294,0-0.534-0.237-0.534-0.532c0-0.292,0.239-0.552,0.534-0.552  c0.296,0,0.535,0.218,0.535,0.512v0.04C31.828,94.104,31.589,94.342,31.293,94.342L31.293,94.342z"/>
<path fill="#000000" d="M31.293,91.637c-0.294,0-0.534-0.238-0.534-0.533V90.57c0-0.294,0.239-0.533,0.534-0.533  c0.296,0,0.535,0.239,0.535,0.533v0.533C31.828,91.398,31.589,91.637,31.293,91.637L31.293,91.637z"/>
<path fill="#000000" d="M31.293,69.236c-0.294,0-0.534-0.238-0.534-0.533V68.17c0-0.294,0.239-0.533,0.534-0.533  c0.296,0,0.535,0.239,0.535,0.533v0.533C31.828,68.998,31.589,69.236,31.293,69.236L31.293,69.236z"/>
<path fill="#000000" d="M31.293,46.838c-0.294,0-0.534-0.237-0.534-0.533v-0.533c0-0.292,0.239-0.533,0.534-0.533  c0.296,0,0.535,0.241,0.535,0.533v0.533C31.828,46.601,31.589,46.838,31.293,46.838L31.293,46.838z"/>
<path fill="#000000" d="M31.293,43.639c-0.294,0-0.534-0.24-0.534-0.533v-0.534c0-0.295,0.239-0.533,0.534-0.533  c0.296,0,0.535,0.238,0.535,0.533v0.534C31.828,43.399,31.589,43.639,31.293,43.639L31.293,43.639z"/>
<path fill="#000000" d="M31.293,40.438c-0.294,0-0.534-0.239-0.534-0.533v-0.533c0-0.294,0.239-0.533,0.534-0.533  c0.296,0,0.535,0.239,0.535,0.533v0.533C31.828,40.199,31.589,40.438,31.293,40.438L31.293,40.438z"/>
<path fill="#000000" d="M31.293,37.238c-0.294,0-0.534-0.239-0.534-0.534v-0.533c0-0.294,0.239-0.532,0.534-0.532  c0.296,0,0.535,0.238,0.535,0.532v0.533C31.828,37,31.589,37.238,31.293,37.238L31.293,37.238z"/>
<path fill="#000000" d="M31.293,34.038c-0.294,0-0.534-0.237-0.534-0.533v-0.533c0-0.295,0.239-0.534,0.534-0.534  c0.296,0,0.535,0.238,0.535,0.534v0.533C31.828,33.801,31.589,34.038,31.293,34.038L31.293,34.038z"/>
<path fill="#000000" d="M31.293,30.838c-0.294,0-0.534-0.24-0.534-0.533v-0.532c0-0.296,0.239-0.533,0.534-0.533  c0.296,0,0.535,0.237,0.535,0.533v0.532C31.828,30.599,31.589,30.838,31.293,30.838L31.293,30.838z"/>
<path fill="#000000" d="M31.293,27.638c-0.294,0-0.534-0.237-0.534-0.533v-0.534c0-0.294,0.239-0.533,0.534-0.533  c0.296,0,0.535,0.239,0.535,0.533v0.534C31.828,27.401,31.589,27.638,31.293,27.638L31.293,27.638z"/>
<path fill="#000000" d="M31.293,24.439c-0.294,0-0.534-0.239-0.534-0.534v-0.533c0-0.294,0.239-0.533,0.534-0.533  c0.296,0,0.535,0.239,0.535,0.533v0.533C31.828,24.2,31.589,24.439,31.293,24.439L31.293,24.439z"/>
<path fill="#000000" d="M31.293,21.238c-0.294,0-0.534-0.239-0.534-0.534v-0.533c0-0.294,0.239-0.533,0.534-0.533  c0.296,0,0.535,0.239,0.535,0.533v0.533C31.828,20.999,31.589,21.238,31.293,21.238L31.293,21.238z"/>
<path fill="#000000" d="M31.293,18.038c-0.294,0-0.534-0.237-0.534-0.532v-0.534c0-0.294,0.239-0.533,0.534-0.533  c0.296,0,0.535,0.238,0.535,0.533v0.534C31.828,17.8,31.589,18.038,31.293,18.038L31.293,18.038z"/>
<path fill="#000000" d="M61.285,94.342c-0.295,0-0.533-0.237-0.533-0.532c0-0.292,0.238-0.552,0.533-0.552  c0.296,0,0.534,0.218,0.534,0.512v0.04C61.819,94.104,61.581,94.342,61.285,94.342L61.285,94.342z"/>
<path fill="#000000" d="M61.285,91.637c-0.295,0-0.533-0.238-0.533-0.533V90.57c0-0.294,0.238-0.533,0.533-0.533  c0.296,0,0.534,0.239,0.534,0.533v0.533C61.819,91.398,61.581,91.637,61.285,91.637L61.285,91.637z"/>
<path fill="#000000" d="M61.285,88.438c-0.295,0-0.533-0.239-0.533-0.533v-0.533c0-0.295,0.238-0.533,0.533-0.533  c0.296,0,0.534,0.238,0.534,0.533v0.533C61.819,88.198,61.581,88.438,61.285,88.438L61.285,88.438z"/>
<path fill="#000000" d="M61.285,85.238c-0.295,0-0.533-0.237-0.533-0.534v-0.533c0-0.294,0.238-0.533,0.533-0.533  c0.296,0,0.534,0.239,0.534,0.533v0.533C61.819,85.001,61.581,85.238,61.285,85.238L61.285,85.238z"/>
<path fill="#000000" d="M61.285,62.839c-0.295,0-0.533-0.24-0.533-0.533v-0.535c0-0.294,0.238-0.533,0.533-0.533  c0.296,0,0.534,0.239,0.534,0.533v0.535C61.819,62.599,61.581,62.839,61.285,62.839L61.285,62.839z"/>
<path fill="#000000" d="M61.285,40.438c-0.295,0-0.533-0.239-0.533-0.533v-0.533c0-0.294,0.238-0.533,0.533-0.533  c0.296,0,0.534,0.239,0.534,0.533v0.533C61.819,40.199,61.581,40.438,61.285,40.438L61.285,40.438z"/>
<path fill="#000000" d="M61.285,37.238c-0.295,0-0.533-0.239-0.533-0.534v-0.533c0-0.294,0.238-0.532,0.533-0.532  c0.296,0,0.534,0.238,0.534,0.532v0.533C61.819,37,61.581,37.238,61.285,37.238L61.285,37.238z"/>
<path fill="#000000" d="M61.285,34.038c-0.295,0-0.533-0.237-0.533-0.533v-0.533c0-0.295,0.238-0.534,0.533-0.534  c0.296,0,0.534,0.238,0.534,0.534v0.533C61.819,33.801,61.581,34.038,61.285,34.038L61.285,34.038z"/>
<path fill="#000000" d="M61.285,27.638c-0.295,0-0.533-0.237-0.533-0.533v-0.534c0-0.294,0.238-0.533,0.533-0.533  c0.296,0,0.534,0.239,0.534,0.533v0.534C61.819,27.401,61.581,27.638,61.285,27.638L61.285,27.638z"/>
<path fill="#000000" d="M61.285,24.439c-0.295,0-0.533-0.239-0.533-0.534v-0.533c0-0.294,0.238-0.533,0.533-0.533  c0.296,0,0.534,0.239,0.534,0.533v0.533C61.819,24.2,61.581,24.439,61.285,24.439L61.285,24.439z"/>
<path fill="#000000" d="M61.285,21.238c-0.295,0-0.533-0.239-0.533-0.534v-0.533c0-0.294,0.238-0.533,0.533-0.533  c0.296,0,0.534,0.239,0.534,0.533v0.533C61.819,20.999,61.581,21.238,61.285,21.238L61.285,21.238z"/>
<path fill="#000000" d="M61.285,18.038c-0.295,0-0.533-0.237-0.533-0.532v-0.534c0-0.294,0.238-0.533,0.533-0.533  c0.296,0,0.534,0.238,0.534,0.533v0.534C61.819,17.8,61.581,18.038,61.285,18.038L61.285,18.038z"/>
<path fill="#000000" d="M92.129,94.342c-0.294,0-0.533-0.237-0.533-0.532c0-0.292,0.239-0.552,0.533-0.552  c0.296,0,0.535,0.218,0.535,0.512v0.04C92.664,94.104,92.425,94.342,92.129,94.342L92.129,94.342z"/>
<path fill="#000000" d="M92.129,91.637c-0.294,0-0.533-0.238-0.533-0.533V90.57c0-0.294,0.239-0.533,0.533-0.533  c0.296,0,0.535,0.239,0.535,0.533v0.533C92.664,91.398,92.425,91.637,92.129,91.637L92.129,91.637z"/>
<path fill="#000000" d="M92.129,88.438c-0.294,0-0.533-0.239-0.533-0.533v-0.533c0-0.295,0.239-0.533,0.533-0.533  c0.296,0,0.535,0.238,0.535,0.533v0.533C92.664,88.198,92.425,88.438,92.129,88.438L92.129,88.438z"/>
<path fill="#000000" d="M92.129,85.238c-0.294,0-0.533-0.237-0.533-0.534v-0.533c0-0.294,0.239-0.533,0.533-0.533  c0.296,0,0.535,0.239,0.535,0.533v0.533C92.664,85.001,92.425,85.238,92.129,85.238L92.129,85.238z"/>
<path fill="#000000" d="M92.129,82.038c-0.294,0-0.533-0.238-0.533-0.533v-0.533c0-0.296,0.239-0.533,0.533-0.533  c0.296,0,0.535,0.237,0.535,0.533v0.533C92.664,81.8,92.425,82.038,92.129,82.038L92.129,82.038z"/>
<path fill="#000000" d="M92.129,78.839c-0.294,0-0.533-0.239-0.533-0.533v-0.533c0-0.295,0.239-0.533,0.533-0.533  c0.296,0,0.535,0.238,0.535,0.533v0.533C92.664,78.6,92.425,78.839,92.129,78.839L92.129,78.839z"/>
<path fill="#000000" d="M92.129,72.439c-0.294,0-0.533-0.238-0.533-0.535v-0.533c0-0.294,0.239-0.533,0.533-0.533  c0.296,0,0.535,0.239,0.535,0.533v0.533C92.664,72.201,92.425,72.439,92.129,72.439L92.129,72.439z"/>
<path fill="#000000" d="M92.129,69.236c-0.294,0-0.533-0.238-0.533-0.533V68.17c0-0.294,0.239-0.533,0.533-0.533  c0.296,0,0.535,0.239,0.535,0.533v0.533C92.664,68.998,92.425,69.236,92.129,69.236L92.129,69.236z"/>
<path fill="#000000" d="M92.129,66.037c-0.294,0-0.533-0.235-0.533-0.533v-0.533c0-0.295,0.239-0.533,0.533-0.533  c0.296,0,0.535,0.238,0.535,0.533v0.533C92.664,65.802,92.425,66.037,92.129,66.037L92.129,66.037z"/>
<path fill="#000000" d="M92.129,43.639c-0.294,0-0.533-0.24-0.533-0.533v-0.534c0-0.295,0.239-0.533,0.533-0.533  c0.296,0,0.535,0.238,0.535,0.533v0.534C92.664,43.399,92.425,43.639,92.129,43.639L92.129,43.639z"/>
<path fill="#000000" d="M92.129,21.238c-0.294,0-0.533-0.239-0.533-0.534v-0.533c0-0.294,0.239-0.533,0.533-0.533  c0.296,0,0.535,0.239,0.535,0.533v0.533C92.664,20.999,92.425,21.238,92.129,21.238L92.129,21.238z"/>
<path fill="#000000" d="M92.129,18.038c-0.294,0-0.533-0.237-0.533-0.532v-0.534c0-0.294,0.239-0.533,0.533-0.533  c0.296,0,0.535,0.238,0.535,0.533v0.534C92.664,17.8,92.425,18.038,92.129,18.038L92.129,18.038z"/>
<path fill="#000000" d="M92.073,23.743c-4.617,0-8.372,3.751-8.372,8.368c0,2.024,0.722,3.88,1.918,5.329  c-4.045,5.673-15.726,22.046-19.504,27.344c-0.914-0.343-1.901-0.54-2.933-0.54c-2.591,0-4.909,1.183-6.446,3.037l-17.71-8.117  c0.076-0.457,0.126-0.921,0.126-1.402c0-4.617-3.755-8.368-8.37-8.368c-4.616,0-8.371,3.751-8.371,8.368  c0,4.616,3.755,8.37,8.371,8.37c2.59,0,4.91-1.185,6.448-3.039l17.708,8.118c-0.078,0.456-0.128,0.922-0.128,1.401  c0,4.617,3.757,8.371,8.372,8.371s8.369-3.754,8.369-8.371c0-2.052-0.746-3.934-1.976-5.39c1.687-2.22,4.585-6.278,9.901-13.736  l9.663-13.545c0.916,0.343,1.901,0.541,2.933,0.541c4.612,0,8.368-3.754,8.368-8.371S96.686,23.743,92.073,23.743z M30.783,61.812  c-2.231,0-4.051-1.818-4.051-4.051s1.82-4.048,4.051-4.048c2.233,0,4.048,1.815,4.048,4.048S33.017,61.812,30.783,61.812z   M63.183,76.661c-2.232,0-4.05-1.816-4.05-4.05c0-2.229,1.817-4.048,4.05-4.048c2.233,0,4.05,1.819,4.05,4.048  C67.232,74.845,65.416,76.661,63.183,76.661z M92.073,36.16c-2.233,0-4.051-1.814-4.051-4.049c0-2.231,1.817-4.047,4.051-4.047  c2.232,0,4.048,1.815,4.048,4.047C96.121,34.345,94.306,36.16,92.073,36.16z"/>
<path fill="#000000" d="M90.991,45.88c-3.646,0-6.745,2.349-7.89,5.609l-13.557-1.016c-0.647-3.975-4.095-7.021-8.252-7.021  c-4.614,0-8.369,3.754-8.369,8.369c0,1.326,0.317,2.575,0.868,3.691c-1.586,1.381-4.055,3.579-7.859,6.993l-11.616,10.42  c-1.324-0.877-2.909-1.389-4.614-1.389c-4.614,0-8.368,3.75-8.368,8.365c0,4.616,3.753,8.37,8.368,8.37  c4.616,0,8.371-3.754,8.371-8.37c0-1.342-0.326-2.607-0.89-3.732c4.818-4.297,15.202-13.55,19.49-17.372  c1.326,0.881,2.914,1.396,4.619,1.396c3.576,0,6.626-2.257,7.822-5.419l13.657,1.022c0.728,3.88,4.133,6.825,8.219,6.825  c4.618,0,8.371-3.752,8.371-8.37C99.362,49.638,95.609,45.88,90.991,45.88z M29.703,83.949c-2.233,0-4.048-1.815-4.048-4.048  c0-2.231,1.814-4.048,4.048-4.048s4.051,1.816,4.051,4.048C33.754,82.134,31.937,83.949,29.703,83.949z M61.293,55.871  c-1.57,0-2.92-0.907-3.59-2.216l-0.075-0.288l-0.054,0.055c-0.211-0.493-0.332-1.034-0.332-1.601c0-2.232,1.817-4.05,4.051-4.05  c2.23,0,4.049,1.818,4.049,4.05C65.342,54.055,63.523,55.871,61.293,55.871z M90.991,58.302c-2.231,0-4.048-1.816-4.048-4.05  c0-2.232,1.816-4.05,4.048-4.05c2.233,0,4.05,1.818,4.05,4.05C95.041,56.485,93.225,58.302,90.991,58.302z"/>
<path fill="#000000" d="M104.834,103.277H10.167c-1.474,0-2.667-1.193-2.667-2.665V15.011c0-1.473,1.193-2.665,2.667-2.665  c1.473,0,2.666,1.192,2.666,2.665v82.933h92.001c1.472,0,2.666,1.193,2.666,2.668C107.5,102.084,106.306,103.277,104.834,103.277  L104.834,103.277z"/>
</svg>