<svg xmlns="http://www.w3.org/2000/svg" xmlns:xlink="http://www.w3.org/1999/xlink" version="1.1" id="Layer_1" x="0px" y="0px" width="100.0px" height="100px" viewBox="0 0 115 115" enable-background="new 0 0 115 115" xml:space="preserve">
<path fill="#000000" d="M33.06,69.02c-1.888,1.568-4.281,2.547-6.932,2.547c-6.035,0-10.924-4.889-10.924-10.924  c0-5.158,3.584-9.45,8.391-10.597c-0.258-1.671-0.399-3.371-0.399-5.085c0-0.914,0.062-1.814,0.138-2.71  C14.375,43.6,7.5,51.307,7.5,60.645c0,7.467,4.399,13.885,10.742,16.855l7.885,17.977l7.911-17.99  c1.888-0.887,3.571-2.105,5.047-3.545C36.886,72.52,34.863,70.869,33.06,69.02z"/>
<path fill="#000000" d="M91.982,42.293c0.066,0.882,0.137,1.768,0.137,2.667c0,1.747-0.15,3.471-0.416,5.175  c4.652,1.25,8.096,5.453,8.096,10.506c0,6.036-4.889,10.926-10.924,10.926c-2.564,0-4.898-0.918-6.762-2.401  c-1.816,1.849-3.857,3.481-6.081,4.894c1.459,1.394,3.11,2.575,4.959,3.442l7.884,17.978l7.912-17.99  c6.324-2.973,10.713-9.387,10.713-16.842C107.504,51.414,100.786,43.775,91.982,42.293z"/>
<path fill="#000000" d="M85.598,42.318C84.266,28.072,72.249,16.88,57.655,16.88c-14.604,0-26.628,11.217-27.948,25.486  c-0.073,0.854-0.124,1.716-0.124,2.593c0,1.882,0.198,3.739,0.568,5.546c0.989,4.835,3.247,9.31,6.479,12.981  c1.793,2.035,3.887,3.826,6.235,5.283c0.816,0.51,1.657,0.996,2.537,1.424l12.255,27.926l12.292-27.943  c0.785-0.387,1.535-0.809,2.275-1.264c2.34-1.428,4.43-3.174,6.23-5.17c3.373-3.746,5.727-8.354,6.729-13.339  c0.352-1.777,0.553-3.598,0.553-5.444C85.732,44.071,85.677,43.193,85.598,42.318z M57.655,59.738  c-8.149,0-14.778-6.632-14.778-14.781c0-8.146,6.629-14.774,14.778-14.774c8.147,0,14.779,6.628,14.779,14.774  C72.436,53.106,65.803,59.738,57.655,59.738z"/>
</svg>