<svg xmlns="http://www.w3.org/2000/svg" xmlns:xlink="http://www.w3.org/1999/xlink" version="1.1" id="Livello_1" x="0px" y="0px" width="100px" height="100px" viewBox="0 0 100 100" enable-background="new 0 0 100 100" xml:space="preserve">
<path d="M-117.134-149.928h-12.322v-2.226c0-4.569-3.713-8.285-8.285-8.285c-4.571,0-8.285,3.716-8.285,8.285v2.226h-2.651  c-5.775,0-10.472,4.697-10.472,10.473v60.775c0,5.776,4.697,10.472,10.472,10.472h47.271c5.777,0,10.473-4.695,10.473-10.472  v-47.091L-117.134-149.928z M-95.565-126.598c-4.097,0-12.598,0-12.598,0c-4.38,0-7.943-3.566-7.943-7.945c0,0,0-7.372,0-10.993  C-112.918-142.597-99.099-129.855-95.565-126.598z M-143.5-152.154c0-3.172,2.584-5.756,5.758-5.756  c3.174,0,5.755,2.584,5.755,5.756v2.226H-143.5V-152.154z M-101.407-70.736h-47.271c-4.378,0-7.942-3.564-7.942-7.943v-60.775  c0-4.38,3.564-7.943,7.942-7.943c0,0,1.004,0,2.651,0v23.789c0,4.569,3.713,8.287,8.285,8.287c4.572,0,8.285-3.717,8.285-8.287  v-18.071h-2.53v18.071c0,3.176-2.581,5.758-5.755,5.758c-3.174,0-5.758-2.582-5.758-5.758v-23.789h24.87v12.855  c0,5.774,4.698,10.474,10.468,10.474h14.702c0,5.418,0,45.39,0,45.39C-93.46-74.301-97.029-70.736-101.407-70.736z"/>
<path d="M-492.014,102.829h-49.306c-3.94,0-7.146,3.212-7.146,7.151v39.051c0,3.939,3.206,7.141,7.146,7.141h17.358l-2.77,9.866  c-1.174,0.384-1.953,1.204-1.953,2.213c0,1.388,1.481,2.429,3.443,2.429h17.441c1.962,0,3.441-1.041,3.441-2.429  c0-1.149-1.013-2.062-2.47-2.348l-2.729-9.731h17.542c3.939,0,7.146-3.201,7.146-7.141V109.98  C-484.868,106.041-488.074,102.829-492.014,102.829z M-506.457,168.251c-0.151,0.146-0.607,0.389-1.342,0.389h-17.441  c-0.734,0-1.19-0.243-1.344-0.389c0.113-0.107,0.386-0.27,0.804-0.34l0.043-0.011c0.168-0.027,0.332-0.038,0.497-0.038h17.441  C-507.064,167.862-506.608,168.1-506.457,168.251z M-508.978,165.812h-15.562c0.554-1.965,2.384-8.49,2.704-9.64h10.152  C-511.358,157.327-509.515,163.9-508.978,165.812z M-486.911,149.031c0,2.807-2.291,5.101-5.103,5.101h-49.306  c-2.81,0-5.101-2.294-5.101-5.101V109.98c0-2.812,2.291-5.101,5.101-5.101h49.306c2.812,0,5.103,2.289,5.103,5.101V149.031z   M-498.315,109.425h-36.702c-3.943,0-7.149,3.206-7.149,7.151v18.379c0,3.945,3.206,7.151,7.149,7.151h36.702  c3.942,0,7.148-3.206,7.148-7.151v-18.379C-491.167,112.631-494.373,109.425-498.315,109.425z M-493.215,134.955  c0,2.817-2.288,5.1-5.101,5.1h-36.702c-2.812,0-5.101-2.282-5.101-5.1v-18.379c0-2.812,2.288-5.101,5.101-5.101h36.702  c2.812,0,5.101,2.289,5.101,5.101V134.955z M-516.812,144.162c-1.535,0-2.782,1.247-2.782,2.78c0,1.538,1.247,2.779,2.782,2.779  c1.533,0,2.782-1.241,2.782-2.779C-514.03,145.409-515.279,144.162-516.812,144.162z M-516.812,147.676  c-0.404,0-0.733-0.323-0.733-0.733c0-0.405,0.329-0.734,0.733-0.734c0.405,0,0.734,0.329,0.734,0.734  C-516.078,147.353-516.407,147.676-516.812,147.676z"/>
<g>
	<path d="M-5.22-125.245h-32.758c-1.718,0-3.113,1.398-3.113,3.115v32.754c0,1.268,0.75,2.398,1.923,2.883   c1.169,0.482,2.5,0.217,3.394-0.679l32.757-32.752c0.896-0.896,1.157-2.228,0.678-3.4C-2.822-124.49-3.951-125.245-5.22-125.245z    M-4.64-121.548l-32.757,32.754c-0.233,0.239-0.585,0.31-0.896,0.181c-0.307-0.128-0.503-0.429-0.503-0.762v-32.754   c0-0.454,0.366-0.82,0.819-0.82H-5.22c0.334,0,0.632,0.197,0.757,0.503C-4.333-122.135-4.402-121.784-4.64-121.548z    M-56.814-140.968v98.377l98.372-98.377H-56.814z M-54.521-48.133v-90.544h7.004v3.178h2.291v-3.178h6.899v3.178h2.295v-3.178   h6.904v3.178h2.298v-3.178h6.899v3.178h2.295v-3.178h6.899v3.178h2.298v-3.178h6.9v3.178h2.295v-3.178h6.899l-0.004,3.178h2.3   v-3.178h6.903v3.178h2.299v-3.178h16.864C32.342-134.997-50.843-51.811-54.521-48.133z"/>
</g>
<g>
	<path fill-rule="evenodd" clip-rule="evenodd" d="M-396.701-7.982h-1.139l-0.187,0.792c-0.799,3.448-3.722,5.86-7.108,5.866   c-3.384-0.005-6.31-2.418-7.11-5.866l-0.184-0.792h-1.296l-0.148,0.046c-0.915,0.283-22.496,6.946-23.484,7.265l-0.026,0.005   l-0.03,0.011c-0.812,0.318-1.595,1.155-2.037,2.197c-0.494,1.155-0.516,2.38-0.065,3.457l-0.029-0.078   c1.01,3.117,2.28,7.896,2.758,9.694l0.2,0.761c0.367,1.29,1.899,2.173,3.486,2.008c0,0,5.379-0.551,7.768-0.796   c0,2.124,0,33.566,0,33.566c0,1.994,1.411,4.121,4.028,4.121h32.342c2.617,0,4.032-2.127,4.032-4.121c0,0,0-31.442,0-33.566   c1.719,0.178,7.761,0.796,7.761,0.796c1.59,0.165,3.123-0.718,3.487-2.008l0.205-0.764c0.475-1.8,1.746-6.577,2.755-9.691   l-0.032,0.078c0.451-1.076,0.429-2.302-0.062-3.457c-0.443-1.042-1.226-1.878-2.038-2.197l-0.029-0.011l-0.027-0.005   c-0.99-0.319-22.569-6.982-23.486-7.265l-0.148-0.046H-396.701z M-413.962-5.767c1.309,3.856,4.809,6.482,8.827,6.493   c4.019-0.011,7.519-2.637,8.825-6.493c3.737,1.152,21.484,6.633,22.723,7.027c0.2,0.081,0.613,0.44,0.886,1.085   c0.1,0.232,0.221,0.607,0.221,1.042c0,0.259-0.043,0.539-0.162,0.82l-0.016,0.038l-0.014,0.043   c-1.025,3.162-2.305,7.982-2.788,9.796l-0.194,0.729c-0.054,0.2-0.606,0.604-1.306,0.534l-10.021-1.03v35.836   c0,0.718-0.415,2.069-1.983,2.069h-32.342c-1.567,0-1.983-1.352-1.983-2.069V14.317l-10.021,1.03   c-0.698,0.07-1.252-0.334-1.309-0.534l-0.191-0.723c-0.483-1.816-1.76-6.637-2.788-9.802l-0.016-0.043l-0.014-0.038   c-0.119-0.281-0.165-0.562-0.165-0.82c0-0.435,0.125-0.81,0.225-1.042c0.272-0.645,0.683-1.004,0.882-1.085   C-435.446,0.867-417.697-4.614-413.962-5.767z"/>
</g>
<path d="M-148.277,2.557c-0.718-0.719-20.184-20.186-20.667-20.668c-0.224-1.213-1.284-2.136-2.561-2.136h-31.294  c-1.438,0-2.607,1.169-2.607,2.607v0.425c0,0,21.8,21.802,21.844,21.845c0.82,1.149,2.839,1.905,3.921,1.905h29.705  c1.006,0,2.08-0.805,2.396-1.795C-147.284,3.922-147.562,3.12-148.277,2.557z M-203.25-17.954c0.1-0.146,0.259-0.246,0.451-0.246  h31.294c0.311,0,0.562,0.25,0.562,0.559v0.278h-31.716C-202.978-17.683-203.185-17.889-203.25-17.954z M-149.945,4.488h-29.696  c-0.626,0-2.024-0.604-2.283-1.063l-0.067-0.124c0,0-15.761-15.758-20.154-20.151h31.57l20.938,20.939l0.07,0.052  c0.024,0.014,0.03,0.021,0.043,0.035C-149.6,4.303-149.818,4.473-149.945,4.488z M-150.201,7.068h-30.698  c-1.541,0-3.273,1.695-3.465,1.884c0,0.024-26.442,26.458-27.392,27.411c-0.521,0.475-0.848,1.157-0.848,1.916v6.893  c0,1.436,1.169,2.606,2.606,2.606h31.855c0.843,0,1.593-0.402,2.067-1.028l26.064-26.682l0.729-0.797l-0.032,0.033  c0.855-0.855,1.722-2.321,1.722-3.665V9.678C-147.592,8.239-148.763,7.068-150.201,7.068z M-177.582,45.172  c0,0.051-0.006,0.1-0.022,0.153c-0.002,0.006-0.005,0.017-0.008,0.024c-0.016,0.051-0.04,0.095-0.072,0.138l0.002,0.005  c-0.103,0.146-0.27,0.238-0.459,0.238h-31.855c-0.308,0-0.559-0.252-0.559-0.559v-6.893c0-0.165,0.07-0.311,0.184-0.41l0,0  c0.057-0.052,0.141-0.105,0.246-0.133c0.005,0,0.005,0,0.011,0c0.035-0.011,0.075-0.016,0.118-0.016h31.855  c0.311,0,0.56,0.253,0.56,0.559V45.172z M-149.643,15.64c0,0.68-0.58,1.679-1.12,2.218l-0.014,0.017c0,0-0.701,0.761-0.721,0.788  c-0.021,0.024-20.559,21.05-24.037,24.606v-4.989c0-1.438-1.169-2.61-2.607-2.61h-30.028c3.673-3.673,25.252-25.243,25.252-25.243  c0.724-0.748,1.679-1.307,2.019-1.307h30.698c0.308,0,0.559,0.248,0.559,0.559V15.64z M-197.642,30.695h18.189l16.213-16.88h-18.187  L-197.642,30.695z M-164.438,14.328c-0.785,0.817-15.091,15.706-15.233,15.857h-16.771c0.783-0.815,15.083-15.707,15.231-15.857  H-164.438z"/>
<path d="M-179.259,41.755c0,0.672-0.548,1.223-1.223,1.223c-0.674,0-1.222-0.551-1.222-1.223c0-0.678,0.548-1.226,1.222-1.226  C-179.807,40.529-179.259,41.077-179.259,41.755z"/>
<path d="M-261.68,112.842l-8.366-8.361c-0.32-0.323-0.674-0.485-1.052-0.485c-0.678,0-1.293,0.523-1.857,1.085l-39.428,39.423  c-0.623,0.631-4.62,7.335-7.124,11.669c-6.504,11.254-6.191,11.566-5.8,11.961l0.572,0.566c0.394,0.395,0.701,0.707,11.958-5.797  c4.334-2.504,11.037-6.498,11.666-7.13l39.423-39.423c0.494-0.491,0.756-1.09,0.756-1.727  C-260.932,113.975-261.213,113.311-261.68,112.842z M-306.505,149.895c1.951,1.954,2.987,3.676,3.249,4.647  c-1.824,1.209-7.151,4.339-11.931,7.07c-0.473-0.491-2.572-2.672-3.031-3.146c2.845-4.971,5.905-10.082,7.065-11.82  C-310.187,146.91-308.459,147.946-306.505,149.895z M-309.719,145.048c1.335-1.339,38.361-38.37,38.361-38.37  s0.081-0.064,0.171-0.141c0.688,0.68,7.904,7.902,7.904,7.902c0.064,0.064,0.083,0.113,0.083,0.156c0,0.064-0.04,0.107-0.089,0.156  c0,0-33.21,33.211-38.364,38.365c-0.529-1.317-1.76-3.028-3.4-4.669C-306.696,146.808-308.405,145.576-309.719,145.048z"/>
<path d="M-408.024-73.198c0.563,0,1.022-0.459,1.022-1.026v-7.001c0-0.565-0.459-1.025-1.022-1.025c-0.564,0-1.026,0.46-1.026,1.025  v7.001C-409.051-73.657-408.589-73.198-408.024-73.198z M-401.575-73.198c0.564,0,1.023-0.459,1.023-1.026v-7.001  c0-0.565-0.459-1.025-1.023-1.025c-0.566,0-1.025,0.46-1.025,1.025v7.001C-402.601-73.657-402.142-73.198-401.575-73.198z   M-386.978-62.163h-5.702c-0.567,0-1.026,0.459-1.026,1.024s0.459,1.023,1.026,1.023h5.702c0.566,0,1.025-0.458,1.025-1.023  S-386.411-62.163-386.978-62.163z M-416.92-62.163h-5.705c-0.563,0-1.022,0.459-1.022,1.024s0.459,1.023,1.022,1.023h5.705  c0.564,0,1.025-0.458,1.025-1.023S-416.355-62.163-416.92-62.163z M-369.52-107.421l-11.604,3.468v-2.934l12.189-3.642  c0.543-0.162,0.848-0.734,0.688-1.273c-0.162-0.542-0.733-0.852-1.273-0.688l-11.604,3.467v-2.932l12.189-3.645  c0.543-0.162,0.848-0.733,0.688-1.274c-0.162-0.542-0.733-0.85-1.273-0.688l-11.604,3.47v-3.422c0-1.364-1.112-2.475-2.475-2.475  h-42.402c-1.363,0-2.475,1.111-2.475,2.475v3.565l-13.591-4.876v1.456l0.008,6.629l13.583,5.459v10.5  c0,1.364,1.111,2.473,2.475,2.473h1.12v1.711h-1.12c-1.363,0-2.475,1.109-2.475,2.473v22.731c0,1.364,1.111,2.475,2.475,2.475  h42.402c1.362,0,2.475-1.11,2.475-2.475v-22.731c0-1.364-1.112-2.473-2.475-2.473h-2.343v-1.711h2.343  c1.362,0,2.475-1.109,2.475-2.473v-7.033l12.189-3.643c0.543-0.162,0.848-0.731,0.688-1.275  C-368.408-107.274-368.979-107.583-369.52-107.421z M-428.476-107.489c-2.143-0.862-10.498-4.222-11.534-4.639  c-0.003-0.779-0.003-2.384-0.006-3.788c2.092,0.75,10.444,3.746,11.54,4.138V-107.489z M-398.709-117.516  c0-0.235,0.191-0.426,0.427-0.426h8.573c0.235,0,0.427,0.191,0.427,0.426v3.209c0,0.235-0.191,0.426-0.427,0.426h-8.573  c-0.235,0-0.427-0.191-0.427-0.426V-117.516z M-383.599-88.552c0.231,0,0.426,0.192,0.426,0.426v22.731  c0,0.236-0.194,0.428-0.426,0.428h-42.402c-0.234,0-0.429-0.191-0.429-0.428v-22.731c0-0.234,0.194-0.426,0.429-0.426H-383.599z   M-422.838-90.599v-1.711h34.849v1.711H-422.838z M-383.173-112.994c-0.054,0.184-0.059,0.383,0,0.579v4.491  c-0.054,0.184-0.059,0.386,0,0.582v4.488c-0.054,0.184-0.059,0.386,0,0.583v7.489c0,0.234-0.194,0.425-0.426,0.425h-42.402  c-0.234,0-0.429-0.19-0.429-0.425v-22.733c0-0.235,0.194-0.426,0.429-0.426h25.284c-0.024,0.139-0.038,0.281-0.038,0.426v3.209  c0,1.364,1.106,2.473,2.473,2.473h8.573c1.363,0,2.475-1.109,2.475-2.473v-3.209c0-0.146-0.016-0.287-0.04-0.426h3.676  c0.231,0,0.426,0.191,0.426,0.426V-112.994z M-427.688-121.396h45.465c0.564,0,1.022-0.46,1.022-1.025  c0-0.564-0.458-1.021-1.022-1.021h-45.465c-0.567,0-1.025,0.458-1.025,1.021C-428.713-121.855-428.255-121.396-427.688-121.396z"/>
<path d="M-488.973-103.441l-23.37-23.372c-0.554-0.553-1.277-0.767-1.989-0.584c-0.834,0.211-1.436,0.895-1.604,1.459l-0.79,2.646  c-0.284,0.971-0.217,2.298,0.569,3.086l1.514,1.511l-13.354,20.908c-2.561-2.562-4.409-4.411-4.409-4.411  c-1.379-1.377-3.347-1.506-4.726-1.163l-0.021,0.007l-1.752,0.52c-0.782,0.212-1.405,0.804-1.6,1.537  c-0.111,0.418-0.176,1.243,0.658,2.078c0,0,5.341,5.341,10.919,10.917l-15.855,15.854c-0.401,0.401-0.401,1.049,0,1.448  c0.397,0.4,1.048,0.4,1.444,0l15.854-15.854c5.608,5.606,11.009,11.005,11.009,11.005c0.556,0.553,1.276,0.765,1.988,0.585  c0.831-0.212,1.438-0.895,1.604-1.46l0.79-2.646c0.281-0.968,0.219-2.297-0.569-3.084c0,0-2.153-2.154-5.038-5.037l20.621-13.641  l0.666,0.669c1.379,1.378,3.344,1.503,4.726,1.163l0.021-0.005l1.749-0.522c0.785-0.212,1.408-0.803,1.603-1.534  C-488.2-101.781-488.139-102.608-488.973-103.441z M-514.111-81.008c0.111,0.113,0.192,0.592,0.055,1.058  c0-0.002-0.648,2.175-0.767,2.576c-0.038,0.047-0.108,0.101-0.154,0.117c-0.008-0.007-0.016-0.008-0.048-0.039l-23.371-23.372  c-0.054-0.051-0.084-0.089-0.1-0.119c0.032-0.027,0.078-0.058,0.153-0.079c0.024-0.008,1.561-0.464,1.719-0.511  c0.316-0.077,1.779-0.363,2.77,0.627l9.812,9.812l4.596,4.599h0.003L-514.111-81.008z M-498.559-102.608  c-1.835,1.214-19.363,12.806-20.62,13.638c-1.198-1.196-2.47-2.468-3.732-3.73c-1.579-1.579-3.139-3.144-3.601-3.604  c0.791-1.238,12.147-19.021,13.351-20.908c0.543,0.542,2.369,2.372,4.566,4.568l0.097,0.096  C-504.563-108.616-499.509-103.561-498.559-102.608z M-490.476-101.796c-0.024,0.005-1.56,0.464-1.719,0.513  c-0.318,0.076-1.781,0.359-2.771-0.629l-19.741-19.742c-0.113-0.112-0.192-0.591-0.055-1.057c0,0,0.648-2.175,0.767-2.577  c0.038-0.046,0.108-0.1,0.154-0.116c0.008,0.005,0.019,0.008,0.049,0.041l23.373,23.371c0.051,0.051,0.078,0.089,0.095,0.116  C-490.354-101.849-490.4-101.817-490.476-101.796z"/>
<path d="M-269.919,2.2h-32.873c0.027-0.136,0.044-0.281,0.044-0.427v-2.045c0-1.36-1.112-2.472-2.478-2.472h-5.146  c-1.36,0-2.473,1.112-2.473,2.472v2.045c0,0.146,0.014,0.291,0.041,0.427h-3.223c-2.515,0-4.563,2.348-4.563,5.229v32.541  c0,0.006,0,0.011,0,0.011v0.06c0,2.85,2.049,5.16,4.563,5.16h46.107c2.516,0,4.561-2.343,4.561-5.23V7.43  C-265.358,4.548-267.403,2.2-269.919,2.2z M-310.796-0.272c0-0.232,0.188-0.424,0.424-0.424h5.146c0.237,0,0.426,0.192,0.426,0.424  v2.045c0,0.237-0.188,0.427-0.426,0.427h-5.146c-0.235,0-0.424-0.189-0.424-0.427V-0.272z M-306.872,42.978  c0,0.1-0.081,0.178-0.181,0.178h-8.974c-0.075,0-0.153-0.005-0.229-0.014c-0.532-0.069-1.066-0.366-1.482-0.842  c-0.002,0-0.005-0.003-0.005-0.005c-0.038-0.046-0.073-0.095-0.113-0.144c-0.421-0.566-0.683-1.327-0.686-2.164v-14.19  c0-0.1,0.078-0.178,0.178-0.178h11.311c0.1,0,0.181,0.078,0.181,0.178V42.978z M-267.403,39.971c0,1.76-1.131,3.185-2.516,3.185  h-34.916c0.006-0.06,0.006-0.118,0.006-0.178V25.797c0-1.23-0.996-2.226-2.224-2.226h-11.311c-0.06,0-0.118,0.003-0.178,0.008V7.43  c0-1.754,1.128-3.179,2.515-3.179h46.107c1.385,0,2.516,1.425,2.516,3.179V39.971z M-282.896,10.409  c-7.8,0-14.142,6.348-14.142,14.145c0,7.799,6.342,14.144,14.142,14.144c7.796,0,14.144-6.345,14.144-14.144  C-268.753,16.757-275.101,10.409-282.896,10.409z M-282.896,36.646c-6.672,0-12.099-5.425-12.099-12.093  c0-6.669,5.427-12.099,12.099-12.099c6.668,0,12.096,5.43,12.096,12.099C-270.801,31.222-276.229,36.646-282.896,36.646z   M-282.896,14.665c-5.452,0-9.886,4.437-9.886,9.889c0,5.448,4.434,9.885,9.886,9.885c5.451,0,9.885-4.437,9.885-9.885  C-273.012,19.102-277.445,14.665-282.896,14.665z M-282.896,32.388c-4.321,0-7.837-3.514-7.837-7.834c0-4.321,3.516-7.84,7.837-7.84  c4.32,0,7.837,3.519,7.837,7.84C-275.06,28.874-278.576,32.388-282.896,32.388z M-278.217,25.145c0,2.253-1.833,4.088-4.089,4.088  c-0.566,0-1.025,0.462-1.025,1.026c0,0.563,0.459,1.022,1.025,1.022c3.384,0,6.137-2.753,6.137-6.137  c0-0.566-0.459-1.025-1.022-1.025C-277.759,24.119-278.217,24.578-278.217,25.145z"/>
<path d="M-477.397-0.887h-78.535c-2.208,0-4,1.773-4,3.954v10.425c0,2.181,1.792,3.956,4,3.956h1.241v24.491  c-1.18,0.178-2.094,1.271-2.094,2.599c0,1.457,1.093,2.64,2.437,2.64h6.66c1.342,0,2.435-1.183,2.435-2.64  c0-1.328-0.912-2.421-2.097-2.599V17.447h6.771v24.996c0,2.18,1.611,3.956,3.587,3.956h40.653c1.978,0,3.587-1.776,3.587-3.956  V17.447h6.771v24.491c-1.182,0.178-2.097,1.271-2.097,2.599c0,1.457,1.09,2.64,2.434,2.64h6.664c1.341,0,2.437-1.183,2.437-2.64  c0-1.328-0.918-2.421-2.097-2.599V17.447h1.244c2.202,0,3.999-1.775,3.999-3.956V3.066C-473.398,0.886-475.195-0.887-477.397-0.887z   M-547.688,43.946c0.184,0,0.389,0.251,0.389,0.591c0,0.338-0.205,0.594-0.389,0.594h-6.66c-0.184,0-0.389-0.256-0.389-0.594  c0-0.34,0.205-0.591,0.389-0.591h1.705c0,0,0-24.606,0-26.499h3.247c0,1.893,0,26.499,0,26.499H-547.688z M-494.802,42.443  c0,1.05-0.688,1.905-1.538,1.905h-40.653c-0.848,0-1.535-0.855-1.535-1.905c0,0,0-14.881,0-24.996c0,0,0-7.421,0-9.051h43.727  c0,1.63,0,9.051,0,9.051C-494.802,27.562-494.802,42.443-494.802,42.443z M-478.981,43.946c0.183,0,0.389,0.251,0.389,0.591  c0,0.338-0.206,0.594-0.389,0.594h-6.664c-0.183,0-0.389-0.256-0.389-0.594c0-0.34,0.206-0.591,0.389-0.591h1.709  c0,0,0-24.606,0-26.499h3.246c0,1.893,0,26.499,0,26.499H-478.981z M-475.446,13.491c0,1.053-0.877,1.905-1.951,1.905  c0,0-0.47,0-1.244,0h-14.111v-7h4.393c0.354,0,0.64-0.286,0.64-0.64c0-0.173-0.067-0.329-0.181-0.442  c0.113-0.116,0.181-0.271,0.181-0.443c0-0.354-0.286-0.64-0.64-0.64h-56.61c-0.356,0-0.643,0.286-0.643,0.64  c0,0.173,0.07,0.327,0.179,0.443c-0.108,0.113-0.179,0.27-0.179,0.442c0,0.354,0.286,0.64,0.643,0.64h4.391v7h-14.111  c-0.771,0-1.241,0-1.241,0c-1.077,0-1.951-0.853-1.951-1.905V3.066c0-1.05,0.874-1.908,1.951-1.908h78.535  c1.074,0,1.951,0.858,1.951,1.908V13.491z"/>
<g>
	<path d="M-184.47,125.196c1.778,0,3.35,0.329,4.718,0.977c0.539,0.271,0.966,0.632,1.284,1.106   c0.313,0.476,0.473,0.978,0.473,1.517c0,0.993-0.519,1.9-1.552,2.726c-0.294,0.238-0.44,0.427-0.44,0.562   c0,0.271,0.26,0.454,0.783,0.551c2.475,0.464,3.71,1.835,3.71,4.118c0,1.441-0.504,2.758-1.511,3.951   c-0.953,1.144-2.358,1.986-4.221,2.525c-1.339,0.389-2.807,0.583-4.412,0.583c-1.879,0-3.492-0.265-4.837-0.782   c-0.855-0.335-1.281-0.815-1.281-1.446c0-0.395,0.146-0.724,0.435-0.993c0.288-0.275,0.64-0.41,1.053-0.41   c0.227,0,0.844,0.113,1.854,0.351c0.332,0.075,0.805,0.118,1.417,0.118c1.101,0,1.976-0.253,2.626-0.755   c0.686-0.546,1.03-1.161,1.03-1.857c0-0.652-0.267-1.182-0.799-1.598c-0.528-0.421-1.212-0.631-2.045-0.631   c-0.535,0-1.002,0.06-1.403,0.178c-0.24,0.075-0.419,0.113-0.537,0.113c-0.238,0-0.483-0.243-0.734-0.729   c-0.254-0.485-0.378-0.955-0.378-1.419c0-0.217,0.057-0.367,0.179-0.443c0.115-0.075,0.499-0.231,1.139-0.447   c0.577-0.194,1.133-0.562,1.665-1.102c0.401-0.41,0.604-0.853,0.604-1.333c0-0.523-0.205-0.972-0.621-1.354   c-0.41-0.378-0.906-0.567-1.481-0.567c-0.351,0-0.646,0.038-0.888,0.124c-0.243,0.081-0.691,0.297-1.339,0.643   c-0.194,0.103-0.346,0.151-0.456,0.151c-0.227,0-0.445-0.156-0.65-0.48c-0.208-0.318-0.311-0.658-0.311-1.021   c0-0.62,0.551-1.203,1.649-1.754c0.688-0.351,1.517-0.631,2.482-0.848C-186.3,125.304-185.368,125.196-184.47,125.196z"/>
</g>
<path d="M-144.58,137.551c1.4,2.207,1.514,4.647,0.257,5.44c-1.258,0.805-3.414-0.346-4.812-2.548  c-1.403-2.207-1.514-4.646-0.259-5.44C-148.134,134.199-145.98,135.344-144.58,137.551z"/>
<path d="M-144.82,135.84c-2.677-2.888-6.253-4.707-10.131-5.197c-5.376-11.303-16.812-18.578-29.367-18.578  c-6.677,0-13.095,2.013-18.557,5.812c-5.194,3.616-9.175,8.604-11.553,14.438c-5.557,2.828-9.124,8.604-9.124,14.858  c0,0.939,0.086,1.895,0.248,2.84l0.181,1.062h3.641c0.351,5.301,4.758,9.494,10.145,9.494c4.766,0,8.765-3.275,9.869-7.701h31.961  c1.104,4.426,5.101,7.701,9.866,7.701c5.389,0,9.796-4.193,10.145-9.494h6.688l0.184-1.062c0.164-0.945,0.245-1.9,0.245-2.84  C-140.381,142.953-141.957,138.933-144.82,135.84z M-209.338,157.44c-3.889,0-7.041-3.152-7.041-7.038  c0-3.892,3.152-7.044,7.041-7.044c3.886,0,7.041,3.152,7.041,7.044C-202.297,154.288-205.452,157.44-209.338,157.44z   M-157.642,157.44c-3.889,0-7.041-3.152-7.041-7.038c0-3.892,3.152-7.044,7.041-7.044s7.041,3.152,7.041,7.044  C-150.601,154.288-153.753,157.44-157.642,157.44z M-143.01,148.519h-3.344c-0.898-5.457-5.64-9.569-11.288-9.569  c-6.28,0-11.395,5.089-11.445,11.355h-28.806c-0.052-6.267-5.163-11.355-11.445-11.355c-5.648,0-10.388,4.112-11.289,9.569h-0.291  c-0.046-0.448-0.073-0.901-0.073-1.345c0-5.44,3.179-10.454,8.102-12.78l0.459-0.216l0.186-0.476  c2.17-5.56,5.916-10.309,10.833-13.726c5.033-3.497,10.94-5.349,17.094-5.349c11.793,0,22.528,6.957,27.356,17.72l0.311,0.691  l0.756,0.059c7.265,0.6,12.953,6.774,12.953,14.076C-142.942,147.617-142.966,148.07-143.01,148.519z"/>
<path d="M16.031,53.322c-1.983,0-3.648,0.699-5.002,2.09c-1.349,1.398-2.025,3.042-2.025,4.93c0,1.987,0.677,3.649,2.025,5.003  c1.354,1.353,3.019,2.025,5.002,2.025c1.893,0,3.536-0.673,4.931-2.025c1.394-1.354,2.097-3.016,2.097-5.003  c0-1.888-0.703-3.531-2.097-4.93C19.567,54.021,17.924,53.322,16.031,53.322z M87.482,49.233c-2.343,0-3.514,1.171-3.514,3.513  c0,2.343,1.171,3.514,3.514,3.514c2.339,0,3.514-1.171,3.514-3.514C90.996,50.404,89.821,49.233,87.482,49.233z M81.862,38.472  c-1.084,0-1.625,0.543-1.625,1.625c0,1.08,0.541,1.617,1.625,1.617c1.081,0,1.618-0.537,1.618-1.617  C83.48,39.015,82.943,38.472,81.862,38.472z M52.608,2.812c-8.311-0.297-15.862,3.274-20.926,9.098  c-10.395,1.896-18.278,10.993-18.278,21.935c0,10.812,7.696,19.826,17.91,21.865c1.278,4.736,4.445,8.703,8.641,11.044v17.161  c0,1.624,1.321,2.95,2.955,2.95c1.63,0,2.954-1.326,2.954-2.95V68.787c0.925,0.155,1.876,0.232,2.844,0.232  c1.251,0,2.475-0.123,3.654-0.368v25.597c0,1.631,1.321,2.957,2.955,2.957c1.63,0,2.95-1.326,2.95-2.957V66.276  c5.073-3.185,8.447-8.82,8.458-15.252c1.083-0.743,2.104-1.578,3.062-2.478v9.958c0,1.637,1.324,2.958,2.955,2.958  c1.629,0,2.953-1.321,2.953-2.958V40.361c1.434-3.099,2.287-6.522,2.417-10.153C78.638,15.605,67.217,3.337,52.608,2.812z"/>
</svg>