<svg xmlns="http://www.w3.org/2000/svg" xmlns:xlink="http://www.w3.org/1999/xlink" version="1.1" id="Layer_1" x="0px" y="0px" width="100px" height="100px" viewBox="0 0 100 100" enable-background="new 0 0 100 100" xml:space="preserve">
<ellipse cx="49.993" cy="23.121" rx="19.364" ry="19.577"/>
<polyline points="40.234,57.781 49.815,48.094 60.125,57.629 50.653,87.103 40.234,57.781 "/>
<polyline points="38.729,53.174 39.871,56.089 48.889,47.094 "/>
<polyline points="61.258,53.174 60.304,55.979 50.852,46.984 "/>
<path d="M46.028,96.455L29.224,45.954c0,0-17.101-2.909-19.087,6.916v36.636"/>
<path d="M89.862,89.505V52.869c-1.985-9.825-19.087-6.916-19.087-6.916L53.972,96.455 M82.209,78.002H70.917l-1-10.563h13.292  L82.209,78.002z"/>
<rect x="71.917" y="69.177" width="9.481" height="1.042"/>
</svg>