<svg xmlns="http://www.w3.org/2000/svg" xmlns:xlink="http://www.w3.org/1999/xlink" version="1.1" id="Capa_1" x="0px" y="0px" width="100px" height="100px" viewBox="0 0 100 100" enable-background="new 0 0 100 100" xml:space="preserve">
<path d="M73.179,79.59c-0.713-1.911-1.572-3.985-2.646-5.288c-0.106-0.124-0.511-0.343-0.56-0.419c0.06,0.091,0.068-0.312,0-0.422  c-0.444-0.729-1.035-1.628-1.108-2.499c-0.194-2.214,0.707-3.42,1.527-4.876c0.526-0.931,0.95-1.942,1.251-3.062  c0.166-0.621,0.262-1.662,0.413-2.926c0.128-1.012,0.368-2.153,0.424-3.057c0.312-5.158-0.954-11.244-1.112-18.094  c-0.159-6.576-0.343-13.614-1.809-17.815c-1.448-4.13-4.597-6.527-8.072-8.629c-2.137-1.286-4.472-1.87-6.965-2.643  c-1.297-0.41-2.566-0.972-3.758-1.117c-2.189-0.263-4.797,0.15-7.233,0.697c-1.864,0.419-4.077,0.77-5.568,1.389  c-1.452,0.607-2.917,1.66-4.451,2.647c-1.438,0.919-3.027,2.045-3.765,3.482c-0.455,0.899-0.708,2.218-0.97,3.34  c-0.289,1.209-0.58,2.576-0.693,3.758c-0.276,2.665,0.28,5.582,0,8.629c-0.153,1.618-0.654,3.279-0.977,4.87  c-0.358,1.776-0.511,3.505-0.699,5.288c-0.383,3.614-1.16,7.189-1.112,10.718c0.028,1.901,0.394,4.092,0.693,6.122  c0.299,1.929,0.582,4.018,1.118,5.703c0.42,1.32,1.252,2.14,1.67,3.482c0.419,1.356,0.629,3.244,0.271,5.012  c-0.211,1.097-1.002,2.059-1.389,3.201c-1.215,3.599-2.134,7.263-1.803,11.833c2.723,1.096,5.546,0.254,8.624,0.413  c2.089,0.108,4.28,0.549,6.409,0.836c2.213,0.306,4.379,0.95,6.536,1.115c2.741,0.206,5.302-0.213,7.378-0.418  c1.152-0.114,2.234-0.081,3.344-0.144c5.823-0.311,11.826-1.196,16.558-3.475C74.467,84.323,74.034,81.901,73.179,79.59z   M36.376,45.033c-4.268,0.743-5.418-2.292-4.854-5.791c0.426-2.64,5.105-3.622,8.687-1.533c3.066,1.788,6.728,5.28,6.728,5.28  C45.381,45.338,40.644,44.291,36.376,45.033z M50.049,59.7c-2.541,0.05-4.829-1.771-4.15-4.347c0.829-3.148,2.549-4.726,3.398-6.219  c1.337,1.142,3.728,3.877,4.119,6.463C53.775,57.967,52.587,59.651,50.049,59.7z M63.201,45.8  c-3.996,0.069-11.382-0.582-11.737-2.676c1.604-1.497,6.012-4.076,7.395-4.818c3.109-1.67,7.196-2.47,7.886,0.894  C67.433,42.563,67.197,45.73,63.201,45.8z"/>
</svg>