<svg xmlns="http://www.w3.org/2000/svg" xmlns:xlink="http://www.w3.org/1999/xlink" version="1.1" x="0px" y="0px" width="98.75px" height="100px" viewBox="-30.896 0 98.75 100" enable-background="new -30.896 0 98.75 100" xml:space="preserve">
<g id="Layer_1">
</g>
<g id="Layer_2">
	<path d="M45.977,47.896c1.038,0,1.883-0.843,1.883-1.882c0-1.04-0.845-1.883-1.883-1.883c-0.618,0-1.163,0.301-1.505,0.761   l-9.154-3.895v-6.46c0-0.736-0.072-1.468-0.201-2.185l9.197-2.348c0.33,0.541,0.922,0.906,1.603,0.906   c1.039,0,1.884-0.843,1.884-1.882c0-1.041-0.845-1.883-1.884-1.883c-0.997,0-1.804,0.776-1.87,1.756l-9.185,2.344   c-0.324-1.152-0.827-2.229-1.505-3.166l5.698-4.663c0.313,0.232,0.697,0.374,1.117,0.374c1.039,0,1.882-0.843,1.882-1.882   c0-1.041-0.843-1.884-1.882-1.884c-1.042,0-1.884,0.843-1.884,1.884c0,0.205,0.041,0.399,0.102,0.585l-5.755,4.708   c-0.884-0.929-1.989-1.648-3.31-2.067l3.022-4.073c0.191,0.066,0.394,0.109,0.608,0.109c1.038,0,1.883-0.843,1.883-1.882   c0-1.041-0.845-1.884-1.883-1.884c-1.041,0-1.885,0.843-1.885,1.884c0,0.412,0.137,0.79,0.359,1.1l-3.312,4.465   c-0.484-0.078-0.984-0.132-1.518-0.132L9.863,24.711c-0.07,0-0.137,0.008-0.207,0.01l-3.942-6.216   c0.258-0.323,0.418-0.726,0.418-1.169c0-1.041-0.844-1.883-1.883-1.883c-1.042,0-1.884,0.843-1.884,1.883   c0,1.039,0.842,1.882,1.884,1.882c0.182,0,0.353-0.034,0.519-0.082l3.618,5.705c-1.242,0.206-2.349,0.665-3.298,1.333l-7.439-6.2   c0.06-0.184,0.1-0.375,0.1-0.579c0-1.04-0.844-1.883-1.882-1.883c-1.042,0-1.884,0.843-1.884,1.883   c0,1.039,0.843,1.883,1.884,1.883c0.42,0,0.805-0.143,1.119-0.377l7.2,6c-1.631,1.548-2.637,3.799-2.867,6.365l-7.218-0.926   C-6.088,31.5-6.836,30.87-7.734,30.87c-1.041,0-1.883,0.842-1.883,1.883c0,1.039,0.842,1.882,1.883,1.882   c0.783,0,1.455-0.479,1.738-1.16l7.259,0.931v11.338l-7.197,2.106c-0.334-0.525-0.918-0.877-1.587-0.877   c-1.041,0-1.884,0.843-1.884,1.882s0.843,1.884,1.884,1.884c1.006,0,1.822-0.793,1.874-1.788l6.911-2.023v3.854l-9.716,6.94   c-0.323-0.263-0.729-0.425-1.176-0.425c-1.041,0-1.883,0.844-1.883,1.884c0,1.038,0.842,1.883,1.883,1.883   c1.04,0,1.883-0.845,1.883-1.883c0-0.178-0.033-0.347-0.079-0.51l9.088-6.492v5.146c0,4.456,5.888,4.456,5.888,0V35.014h1.875   L9.021,66.765l-9.857,2.413c-0.333-0.531-0.92-0.889-1.594-0.889c-1.041,0-1.883,0.842-1.883,1.882s0.842,1.883,1.883,1.883   c1.002,0,1.814-0.787,1.872-1.773l9.579-2.346l0,3.765l-5.145,2.144c-0.345-0.437-0.874-0.724-1.474-0.724   c-1.042,0-1.884,0.843-1.884,1.884c0,1.038,0.843,1.882,1.884,1.882c1.039,0,1.883-0.844,1.883-1.882   c0-0.032-0.008-0.062-0.01-0.095l4.746-1.976L9.02,78.348l-13.341,1.841c-0.298-0.649-0.948-1.102-1.708-1.102   c-1.042,0-1.884,0.844-1.884,1.884c0,1.038,0.843,1.883,1.884,1.883c0.921,0,1.685-0.664,1.848-1.538L9.02,79.494l-0.002,16.07   c0,2.31,1.876,4.186,4.186,4.186c2.314,0,4.188-1.876,4.188-4.186l0.003-35.122h1.865l-0.013,35.122   c0,2.31,1.875,4.186,4.187,4.186c2.311,0,4.185-1.876,4.185-4.186l0.001-4.99l5.127,0.897c0.111,0.933,0.896,1.659,1.862,1.659   c1.039,0,1.882-0.843,1.882-1.882c0-1.041-0.843-1.883-1.882-1.883c-0.717,0-1.33,0.402-1.648,0.989l-5.34-0.934v-2.46h9.813   c0.21,0.81,0.939,1.41,1.816,1.41c1.04,0,1.883-0.845,1.883-1.884s-0.843-1.883-1.883-1.883c-0.807,0-1.488,0.508-1.757,1.22   h-9.872l0.002-6.972l6.576-3.382c0.344,0.372,0.832,0.609,1.379,0.609c1.039,0,1.883-0.845,1.883-1.884s-0.844-1.883-1.883-1.883   c-1.041,0-1.884,0.844-1.884,1.883c0,0.084,0.014,0.164,0.024,0.244l-6.094,3.134l0.002-7.534l8.735,0.824   c0.205,0.816,0.938,1.426,1.821,1.426c1.038,0,1.883-0.845,1.883-1.884s-0.845-1.882-1.883-1.882c-0.8,0-1.48,0.5-1.753,1.203   l-8.804-0.831l0.009-33.884h1.838v22.314c0,4.488,5.855,4.488,5.843,0v-2.517l6.492,4.058c-0.036,0.146-0.062,0.299-0.062,0.457   c0,1.038,0.843,1.882,1.884,1.882c1.039,0,1.883-0.844,1.883-1.882c0-1.041-0.844-1.884-1.883-1.884   c-0.47,0-0.894,0.178-1.224,0.462l-7.091-4.433v-6.955l8.233,5.488c-0.059,0.181-0.098,0.371-0.098,0.57   c0,1.04,0.843,1.884,1.884,1.884c1.039,0,1.883-0.844,1.883-1.884c0-1.039-0.844-1.882-1.883-1.882   c-0.426,0-0.814,0.146-1.13,0.384l-8.89-5.926v-2.919l8.78,3.736c0,0.016-0.006,0.03-0.006,0.046   C44.092,47.054,44.936,47.896,45.977,47.896z"/>
	<path d="M33.698,7.195c-1.041,0-1.884,0.843-1.884,1.883c0,0.018,0.004,0.035,0.005,0.053l-7.711,2.501   c-0.52-0.799-1.187-1.493-1.964-2.042l4.546-5.944c0.198,0.071,0.409,0.117,0.634,0.117c1.039,0,1.883-0.843,1.883-1.883   c0-1.04-0.844-1.883-1.883-1.883c-1.041,0-1.884,0.843-1.884,1.883c0,0.402,0.128,0.773,0.344,1.079L21.16,9.007   c-1.001-0.496-2.123-0.782-3.314-0.782c-2.579,0-4.853,1.308-6.195,3.296l-5.477-4.15c0.059-0.182,0.099-0.373,0.099-0.574   c0-1.041-0.844-1.883-1.883-1.883c-1.042,0-1.884,0.842-1.884,1.883c0,1.039,0.842,1.883,1.884,1.883   c0.423,0,0.81-0.146,1.125-0.382l5.576,4.224c-0.453,0.964-0.714,2.036-0.714,3.17c0,4.125,3.343,7.468,7.468,7.468   c4.124,0,7.467-3.343,7.467-7.468c0-1.084-0.235-2.113-0.652-3.044l7.536-2.443c0.344,0.457,0.886,0.756,1.501,0.756   c1.039,0,1.883-0.843,1.883-1.883C35.581,8.039,34.737,7.195,33.698,7.195z"/>
</g>
</svg>