<svg xmlns="http://www.w3.org/2000/svg" xmlns:xlink="http://www.w3.org/1999/xlink" version="1.1" id="Livello_1" x="0px" y="0px" width="100px" height="100px" viewBox="0 0 100 100" enable-background="new 0 0 100 100" xml:space="preserve">
<symbol id="Hool" viewBox="-50 -47 100 93.842">
	<path fill="#000000" d="M16.69,30.235c0-9.171-7.436-16.606-16.607-16.606s-16.606,7.435-16.606,16.606s7.435,16.607,16.606,16.607   S16.69,39.407,16.69,30.235z"/>
	<path fill="#000000" d="M20.882-5.791c0,8.807-9.767,15.818-21.266,15.818C-11.884,10.027-21,2.768-21-6.043V-47h42"/>
	<polyline fill="#000000" points="-19.557,-6.969 -9.372,4.145 -40.424,29.673 -48.018,21.386  "/>
	<polyline fill="#000000" points="19.846,-6.969 9.659,4.145 40.712,29.673 48.307,21.386  "/>
	<path fill="#000000" d="M-38.627,25.523c0-3.098-2.511-5.608-5.609-5.608c-3.097,0-5.608,2.511-5.608,5.608   s2.511,5.608,5.608,5.608C-41.138,31.131-38.627,28.621-38.627,25.523z"/>
	<path fill="#000000" d="M49.845,25.173c0-3.125-2.534-5.66-5.66-5.66c-3.124,0-5.658,2.534-5.658,5.66   c0,3.126,2.534,5.66,5.658,5.66C47.311,30.833,49.845,28.299,49.845,25.173z"/>
	<polygon display="none" fill="none" points="-50,46 50,46 50,-47 -50,-47  "/>
</symbol>
<use xlink:href="#Hool" width="100" height="93.842" x="-50" y="-47" transform="matrix(1 0 0 -1 50 53)" overflow="visible"/>
</svg>