<svg xmlns="http://www.w3.org/2000/svg" xmlns:xlink="http://www.w3.org/1999/xlink" version="1.1" x="0px" y="0px" width="100px" height="100px" viewBox="-346 256 100 100" enable-background="new -346 256 100 100" xml:space="preserve">
<g id="Layer_2_copy">
</g>
<g id="Layer_1">
</g>
<g id="Layer_4">
	<path d="M-284.897,302.657v7.669h5.475v-40.313h-5.475v22.358c-1.557-3.365-4.592-5.903-8.271-6.785v-15.573h-5.474v15.515   c-3.603,0.781-6.614,3.143-8.272,6.324v-21.838h-5.475v40.313h5.475v-7.15c2.046,3.925,6.149,6.606,10.881,6.606   C-291.097,309.782-286.842,306.863-284.897,302.657z"/>
	<path d="M-339.901,270.013v33.781c-3.528,1.705-5.961,5.318-5.961,9.498c0,4.181,2.434,7.792,5.961,9.498v19.333h5.474v-72.109   H-339.901z"/>
	<path d="M-246.15,313.291c0-4.16-2.41-7.756-5.911-9.472v-33.806h-5.474v72.109h5.474v-19.36   C-248.561,321.048-246.15,317.45-246.15,313.291z"/>
	<g>
		<path d="M-284.897,310.371h1.875c-0.271-0.016-0.548-0.025-0.828-0.025l-9.292-0.004v31.747h8.245V310.371z"/>
		<path d="M-271.15,270.013v53.886c-0.234-5.566-3-10.893-8.272-12.805v30.995l13.745,0.033v-72.109H-271.15z"/>
	</g>
	<g>
		<path d="M-320.662,322.067v-52.055h-5.475v72.011l13.733,0.065v-31.081C-316.989,312.59-319.967,316.821-320.662,322.067z"/>
		<path d="M-308.273,310.336c-0.318,0-0.629,0.014-0.938,0.035h2.281v31.718h8.312V310.34L-308.273,310.336z"/>
	</g>
</g>
</svg>