<?xml version="1.0" encoding="utf-8"?>
<!-- Generator: Adobe Illustrator 14.0.0, SVG Export Plug-In . SVG Version: 6.00 Build 43363)  -->
<!DOCTYPE svg PUBLIC "-//W3C//DTD SVG 1.0//EN" "http://www.w3.org/TR/2001/REC-SVG-20010904/DTD/svg10.dtd">
<svg version="1.0" id="Layer_1" xmlns="http://www.w3.org/2000/svg" xmlns:xlink="http://www.w3.org/1999/xlink" x="0px" y="0px"
	 width="100px" height="66.518px" viewBox="0 0 100 66.518" enable-background="new 0 0 100 66.518" xml:space="preserve">
<path d="M88.523,33.871l0.049-0.759c0-2.585-0.707-3.855-2.776-3.855H70.368c0-1.688-0.144-3.571-1.837-5.312l-7.572-7.947
	c-0.939-0.946-1.17-0.99-1.877-1.416c-0.757-0.417-3.959-1.682-4.848-2.06c-0.896-0.337-1.409-0.424-1.93-0.38V9.973
	c0.521-0.932,1.127-0.889,1.174-3.897c0-3.348-2.16-6.075-6.065-6.075s-5.784,2.728-6.163,6.075h1.366v4.694
	c0,1.691,1.659,3.065,3.713,3.065v0.897l-4.235,7.101L38.1,25.499c-1.697,1.6-3.72,0.512-3.248-1.18L38.1,10.771
	c0.232-0.882-0.423-1.785-1.459-0.187l-7.949,12.187c-1.883,3.009-6.774,4.651-9.832,4.651h-3.903v6.406l0.283-0.05
	c2.292,0,4.481,0.463,6.493,1.282l-1.017,1.657c-1.665-0.619-3.458-0.974-5.337-0.974C6.891,35.745,0,42.648,0,51.131
	c0,8.485,6.891,15.386,15.379,15.387c8.491,0,15.382-6.901,15.382-15.386c0-4.537-1.983-8.609-5.115-11.429l0.993-1.61
	c3.664,3.194,6.006,7.867,6.006,13.04c0,3.666,1.736,7.481,7.244,7.481c5.454,0,9.828,0,16.225-0.097h11.631
	c2.614,4.764,7.674,8,13.488,8c8.46,0,15.32-6.85,15.372-15.29H100C100,43.465,95.249,36.783,88.523,33.871z M15.335,60.637
	c-5.246,0-9.508-4.264-9.508-9.506c0.001-5.239,4.262-9.499,9.508-9.499c0.759,0,1.494,0.099,2.202,0.268l-2.089,3.404
	c-0.038-0.001-0.075-0.006-0.113-0.006c-3.224,0-5.837,2.615-5.838,5.833c0,3.218,2.614,5.839,5.838,5.839
	c3.217,0,5.832-2.621,5.832-5.839c0-1.057-0.286-2.047-0.779-2.902l2.073-3.361c1.473,1.674,2.374,3.863,2.374,6.264
	C24.835,56.373,20.578,60.637,15.335,60.637z M47.505,35.703l-9.782-3.958l12.041-6.907c1.366,2.123,2.351,3.111,4.324,4.273
	L47.505,35.703z M66.182,47.839c-0.138,0.744-0.99,0.618-0.99,0v-9.924h6.307c0.751,0,0.841,0.515,0.424,0.932
	C69.053,41.015,66.939,44.172,66.182,47.839z M81.232,60.637c-5.246,0-9.502-4.264-9.502-9.506c0-3.34,1.732-6.275,4.346-7.969
	l1.244,3.652c-1.178,1.068-1.924,2.604-1.924,4.316c0,3.218,2.617,5.839,5.836,5.839c3.217,0,5.828-2.621,5.828-5.839
	c0-2.913-2.141-5.324-4.932-5.757l-1.297-3.722c0.134-0.006,0.266-0.021,0.4-0.021c5.24,0,9.5,4.26,9.5,9.499
	C90.732,56.373,86.473,60.637,81.232,60.637z"/>
</svg>
