<?xml version="1.0" encoding="utf-8"?>
<!-- Generator: Adobe Illustrator 14.0.0, SVG Export Plug-In . SVG Version: 6.00 Build 43363)  -->
<!DOCTYPE svg PUBLIC "-//W3C//DTD SVG 1.0//EN" "http://www.w3.org/TR/2001/REC-SVG-20010904/DTD/svg10.dtd">
<svg version="1.0" id="Layer_1" xmlns="http://www.w3.org/2000/svg" xmlns:xlink="http://www.w3.org/1999/xlink" x="0px" y="0px"
	 width="53.109px" height="100px" viewBox="0 0 53.109 100" enable-background="new 0 0 53.109 100" xml:space="preserve">
<path d="M52.761,24.821c-1.273-6.486-5.699-12.869-10.385-17.554C37.689,2.581,31.455,0,24.821,0C18.187,0,11.953,2.581,7.267,7.267
	C2.581,11.952,0,18.187,0,24.821v50.63h0.003c0.07,6.532,2.642,12.66,7.263,17.282C11.953,97.419,18.187,100,24.821,100l0,0
	c6.741-0.03,13.317-2.891,17.952-7.788c2.443-2.581,4.188-5.563,5.441-8.87c0.501-1.322,0.842-2.702,1.048-4.1
	c0.156-1.059,0.299-2.118,0.351-3.187c0.035-0.713,0.066-1.524-0.162-2.196c-0.516-1.517-1.156-3.001-1.738-4.494
	c-1.268-3.246-2.539-6.491-3.811-9.737c-2.771-7.073-5.548-14.146-8.311-21.223c-0.424-1.085-0.848-2.171-1.269-3.257
	c-0.158-0.409-0.378-0.835-0.48-1.264c0.058,0.431,0.115,0.861,0.174,1.291c-0.001,0,0-0.001-0.001-0.001
	c-0.18-1.347-0.419-2.43-1.422-3.433c-0.906-0.906-2.15-1.422-3.433-1.422s-2.526,0.516-3.433,1.422
	c-0.808,0.808-1.582,2.241-1.422,3.433c0.135,1.009,0.235,1.472,0.572,2.344c0.37,0.958,0.744,1.914,1.116,2.871
	c1.229,3.15,2.463,6.299,3.696,9.447c2.805,7.159,5.615,14.317,8.412,21.479c0.482,1.235,0.965,2.471,1.443,3.707
	c0.122,0.314,0.277,0.639,0.4,0.967c-0.01,0.241-0.03,0.484-0.058,0.727c-0.216,1.442-0.584,2.851-1.103,4.212
	c-0.557,1.202-1.226,2.343-2,3.417c-0.843,1.019-1.776,1.951-2.795,2.794c-1.073,0.774-2.215,1.444-3.416,2.001
	c-1.231,0.47-2.5,0.818-3.799,1.041c-0.649,0.064-1.954,0.091-1.954,0.091c-8.322,0-15.092-6.77-15.092-15.092V24.821
	c0-8.322,6.771-15.092,15.092-15.092c8.322,0,15.092,6.771,15.092,15.092v2.869l0.001,1.38l-0.001,0.936h0.001
	c0.003,0.781,0.63,1.413,1.408,1.427h0.06h1.047h0.39l0,0h1.959c0.793,0,1.435,0.642,1.435,1.434v3.409v0
	c0,0.792-0.642,1.434-1.435,1.434c-0.616,0-1.26-0.811-1.842-0.811c-3.797,0-2.983,5.104,1.843,5.883
	c5.025,0.811,7.667-3.114,7.982-4.49C53.545,34.862,52.761,24.821,52.761,24.821z"/>
</svg>
