<svg xmlns="http://www.w3.org/2000/svg" xmlns:xlink="http://www.w3.org/1999/xlink" version="1.1" id="Layer_1" x="0px" y="0px" width="100px" height="100px" viewBox="0 0 100 100" enable-background="new 0 0 100 100" xml:space="preserve">
<g>
	<path d="M91.905,31.501c0,0.607,0.492,1.094,1.095,1.094v1.91c-0.603,0-1.095,0.488-1.095,1.094s0.492,1.094,1.095,1.094v1.91   c-0.603,0-1.095,0.488-1.095,1.094s0.492,1.094,1.095,1.094v1.91c-3.849,0-6.968,3.119-6.968,6.967   c0,3.848,3.119,6.967,6.968,6.967v1.914c-0.603,0-1.095,0.492-1.095,1.095c0,0.599,0.492,1.09,1.095,1.09v1.914   c-0.603,0-1.095,0.492-1.095,1.095c0,0.599,0.492,1.09,1.095,1.09v1.914c-0.603,0-1.095,0.492-1.095,1.095   c0,0.598,0.492,1.09,1.095,1.09v1.164H7v-1.164c0.603,0,1.09-0.492,1.09-1.09c0-0.603-0.488-1.095-1.09-1.095v-1.914   c0.603,0,1.09-0.491,1.09-1.09c0-0.603-0.488-1.095-1.09-1.095v-1.914c0.603,0,1.09-0.491,1.09-1.09   c0-0.603-0.488-1.095-1.09-1.095v-1.914c3.849,0,6.968-3.119,6.968-6.967c0-3.849-3.119-6.967-6.968-6.967v-1.91   c0.603,0,1.09-0.488,1.09-1.094S7.603,38.604,7,38.604v-1.91c0.603,0,1.09-0.488,1.09-1.094S7.603,34.506,7,34.506v-1.91   c0.603,0,1.09-0.487,1.09-1.094c0-0.606-0.488-1.094-1.09-1.094v-1.229h86v1.229C92.397,30.407,91.905,30.895,91.905,31.501z"/>
</g>
</svg>