<svg xmlns="http://www.w3.org/2000/svg" xmlns:xlink="http://www.w3.org/1999/xlink" version="1.1" id="Layer_1" x="0px" y="0px" width="100px" height="100px" viewBox="0 0 100 100" enable-background="new 0 0 100 100" xml:space="preserve">
<path fill="#000000" d="M90.669,38.51c-5.711-4.039-18.524-14.624-26.463-14.624S53.481,27.3,53.481,27.3S51.254,29.394,50,29.394  c-1.253,0-3.482-2.094-3.482-2.094s-2.786-3.415-10.724-3.415c-7.939,0-20.752,10.585-26.462,14.624C3.621,42.549,0,42.548,0,42.548  c6.546,30.78,41.921,33.566,50,33.566c8.079,0,43.454-2.786,50-33.566C100,42.548,96.379,42.549,90.669,38.51z"/>
</svg>