<svg xmlns="http://www.w3.org/2000/svg" xmlns:xlink="http://www.w3.org/1999/xlink" version="1.1" id="Layer_1" x="0px" y="0px" width="100px" height="100px" viewBox="0 0 100 100" enable-background="new 0 0 100 100" xml:space="preserve">
<path fill="#000000" d="M99.822,41.898c-0.396-0.146-0.375,0.479-0.961,2.183c-2.267,7.157-8.068,9.375-11.174,9.375  c-3.104,0-7.023-1.416-10.749-7.936C73.213,39,68.244,32.323,60.172,32.323c-7.269,0-9.749,4.142-10.172,4.97  c-0.423-0.828-2.902-4.97-10.17-4.97c-8.073,0-13.042,6.677-16.768,13.197c-3.725,6.52-7.646,7.936-10.751,7.936  c-3.104,0-8.906-2.218-11.173-9.375c-0.586-1.704-0.564-2.33-0.959-2.183c-0.206,0.076-0.219,0.62-0.114,1.765  c0.103,1.144,3.59,24.427,26.499,24.427c12.749,0,23.042-6.062,23.042-17.882c0,0-0.015-0.428,0.394-0.478  c0.406,0.05,0.394,0.478,0.394,0.478c0,11.819,10.295,17.882,23.041,17.882c22.911,0,26.397-23.284,26.502-24.427  C100.04,42.518,100.027,41.974,99.822,41.898z"/>
</svg>