<svg xmlns="http://www.w3.org/2000/svg" xmlns:xlink="http://www.w3.org/1999/xlink" version="1.1" id="Layer_1" x="0px" y="0px" width="100px" height="100px" viewBox="0 0 100 100" enable-background="new 0 0 100 100" xml:space="preserve">
<path fill="#000000" d="M81.544,23.003C78.355,10.249,67.422,0,50,0C32.579,0,21.417,10.704,18.456,23.003  c-1.069,4.44-9.452,26.658-9.452,41.085C9.004,90.211,27.358,100,50,100s40.996-9.789,40.996-35.912  C90.996,49.661,82.652,27.434,81.544,23.003z M50.255,52.099c-15.095,0-27.331-8.637-27.331-21.323s7.232-22.97,27.331-22.97  c19.458,0,27.33,10.284,27.33,22.97S65.349,52.099,50.255,52.099z"/>
<g>
	<path fill="#000000" d="M30.026,24.793c1.403,1.295,3.427,2.109,5.676,2.109c2.25,0,4.273-0.813,5.677-2.109   c-1.403-1.295-3.427-2.109-5.677-2.109C33.453,22.684,31.43,23.498,30.026,24.793z"/>
</g>
<g>
	<path fill="#000000" d="M59.317,24.793c1.403,1.295,3.426,2.109,5.677,2.109c2.249,0,4.272-0.813,5.676-2.109   c-1.403-1.295-3.427-2.109-5.676-2.109C62.743,22.684,60.721,23.498,59.317,24.793z"/>
</g>
<circle fill="#000000" cx="66.486" cy="35.731" r="3.24"/>
<circle fill="#000000" cx="33.514" cy="35.731" r="3.24"/>
<path fill="#000000" d="M45.302,39.512c0.162,0.303,2.684,1.493,4.714,1.493c2.317,0,4.629-1.189,4.791-1.493  c0.218-0.408-0.065-0.582-0.412-0.582h-4.341h-4.34C45.367,38.93,45.083,39.104,45.302,39.512z"/>
</svg>