<svg xmlns="http://www.w3.org/2000/svg" xmlns:xlink="http://www.w3.org/1999/xlink" version="1.1" id="Layer_1" x="0px" y="0px" width="100px" height="100px" viewBox="0 0 100 100" enable-background="new 0 0 100 100" xml:space="preserve">
<polygon points="52.476,17.655 54.252,12.663 52.476,1.905 47.52,1.905 45.748,12.663 47.52,17.655 47.52,17.933 52.476,17.933 "/>
<path d="M52.476,46.858v-28.22H47.52v28.22c0.778-0.277,1.603-0.455,2.48-0.455C50.873,46.403,51.701,46.581,52.476,46.858z"/>
<path d="M57.415,54.509c0-3.225-2.07-5.938-4.939-6.959c-0.774-0.279-1.603-0.458-2.476-0.458c-0.877,0-1.702,0.178-2.48,0.458  c-2.869,1.021-4.935,3.734-4.935,6.959v0.232h14.83V54.509z"/>
<path d="M57.415,56.513v34.172c0,4.099-3.32,7.41-7.415,7.41c-4.094,0-7.415-3.312-7.415-7.41V56.513H57.415z M50,92.928  c-0.981,0-1.776,0.795-1.776,1.772c0,0.985,0.795,1.771,1.776,1.771c0.981,0,1.776-0.786,1.776-1.771  C51.776,93.723,50.981,92.928,50,92.928z"/>
</svg>