<svg xmlns="http://www.w3.org/2000/svg" xmlns:xlink="http://www.w3.org/1999/xlink" version="1.1" id="Layer_1" x="0px" y="0px" width="100px" height="100px" viewBox="0 0 100 100" enable-background="new 0 0 100 100" xml:space="preserve">
<path d="M132.083-118.396c-26.248,0-47.524,21.277-47.524,47.524c0,26.247,21.276,47.524,47.524,47.524  c26.246,0,47.523-21.277,47.523-47.524C179.606-97.12,158.329-118.396,132.083-118.396z M132.083-31.113  c-21.958,0-39.759-17.802-39.759-39.759c0-21.958,17.801-39.758,39.759-39.758c21.957,0,39.758,17.8,39.758,39.758  C171.841-48.915,154.04-31.113,132.083-31.113z"/>
<path d="M132.272-87.139c-9.496,0-17.196,7.699-17.196,17.197c0,9.497,7.7,17.198,17.196,17.198c9.498,0,17.197-7.701,17.197-17.198  C149.47-79.439,141.771-87.139,132.272-87.139z M132.272-58.628c-6.248,0-11.313-5.065-11.313-11.314  c0-6.248,5.064-11.313,11.313-11.313c6.25,0,11.314,5.065,11.314,11.313C143.587-63.693,138.522-58.628,132.272-58.628z"/>
<path d="M116.069-66.114c0,0,6.224,9.684,10.292,10.054l-6.209,19.011c0,0-16.265-3.55-22.555-22.555L116.069-66.114z"/>
<path d="M148.21-74.699c0,0-5.803-9.943-9.85-10.487l7.02-18.727c0,0,16.098,4.248,21.563,23.506L148.21-74.699z"/>
<circle cx="132.457" cy="-70.034" r="5.164"/>
<path d="M179.333,169.416c-26.096,0-47.25,21.154-47.25,47.25s21.154,47.25,47.25,47.25s47.25-21.154,47.25-47.25  S205.429,169.416,179.333,169.416z M179.333,238.659c-11.459,0-20.75-9.291-20.75-20.75s9.291-20.75,20.75-20.75  s20.75,9.291,20.75,20.75S190.792,238.659,179.333,238.659z M205.264,256.036l-3.197,1.899l-14.164-20.794l3.197-1.899  L205.264,256.036z M169.629,199.652l-3.197,1.898l-15.426-22.918l3.197-1.9L169.629,199.652z"/>
<path d="M179.333,202.159c-8.697,0-15.75,7.052-15.75,15.75c0,8.697,7.053,15.75,15.75,15.75s15.75-7.053,15.75-15.75  C195.083,209.211,188.03,202.159,179.333,202.159z M179.333,225.989c-4.462,0-8.08-3.618-8.08-8.08c0-4.463,3.618-8.08,8.08-8.08  s8.08,3.617,8.08,8.08C187.413,222.371,183.795,225.989,179.333,225.989z"/>
<rect x="63.923" y="8.105" width="14.809" height="32.543"/>
<path d="M50.374,12.225L4.462,52.009h91.736L50.374,12.225z M50.46,41.334c-3.333,0-6.034-2.701-6.034-6.033  s2.701-6.033,6.034-6.033c3.332,0,6.033,2.701,6.033,6.033S53.792,41.334,50.46,41.334z"/>
<path d="M15.833,52.009v40.885h26.575V68.618h15.843v24.275h26.575V52.009H15.833z M77.928,57.227H22.923V54.56h55.005V57.227z"/>
<polygon points="-265.362,180.859 -221.512,156.16 -177.305,180.859 "/>
<rect x="-253.979" y="97.578" width="3.959" height="0.791"/>
<rect x="-261.773" y="78.933" width="2.018" height="2.018"/>
<path d="M-261.597,183.912v55.099h29.85v-31.345h17.529v31.345h33.148v-55.099H-261.597z M-199.39,223.561h-6.841v-6.841h6.841  V223.561z M-199.39,214.851h-6.841v-6.841h6.841V214.851z M-188.159,223.561H-195v-6.841h6.841V223.561z M-188.159,214.851H-195  v-6.841h6.841V214.851z"/>
<rect x="-227.729" y="211.46" width="9.324" height="27.551"/>
</svg>