<svg xmlns="http://www.w3.org/2000/svg" xmlns:xlink="http://www.w3.org/1999/xlink" version="1.1" id="Layer_1" x="0px" y="0px" width="100px" height="100px" viewBox="0 0 100 100" enable-background="new 0 0 100 100" xml:space="preserve">
<path d="M114.913-117.333c-26.248,0-47.524,21.277-47.524,47.524s21.276,47.525,47.524,47.525c26.246,0,47.523-21.277,47.523-47.525  S141.159-117.333,114.913-117.333z M114.913-30.049c-21.958,0-39.759-17.803-39.759-39.759c0-21.958,17.801-39.758,39.759-39.758  c21.957,0,39.758,17.8,39.758,39.758C154.671-47.852,136.87-30.049,114.913-30.049z"/>
<path d="M115.103-86.075c-9.496,0-17.196,7.699-17.196,17.197c0,9.497,7.7,17.198,17.196,17.198c9.498,0,17.197-7.701,17.197-17.198  C132.3-78.376,124.601-86.075,115.103-86.075z M115.103-57.565c-6.248,0-11.313-5.064-11.313-11.313  c0-6.248,5.064-11.313,11.313-11.313c6.25,0,11.314,5.065,11.314,11.313C126.417-62.629,121.353-57.565,115.103-57.565z"/>
<path d="M98.899-65.051c0,0,6.224,9.684,10.292,10.055l-6.209,19.01c0,0-16.265-3.549-22.555-22.555L98.899-65.051z"/>
<path d="M131.04-73.636c0,0-5.803-9.943-9.85-10.487l7.02-18.727c0,0,16.098,4.248,21.563,23.506L131.04-73.636z"/>
<circle cx="115.287" cy="-68.971" r="5.164"/>
<path d="M50,3.25C23.904,3.25,2.75,24.404,2.75,50.5S23.904,97.75,50,97.75S97.25,76.596,97.25,50.5S76.096,3.25,50,3.25z   M50,71.493c-11.459,0-20.75-9.291-20.75-20.75s9.291-20.75,20.75-20.75s20.75,9.291,20.75,20.75S61.459,71.493,50,71.493z"/>
<path d="M50,34.993c-8.697,0-15.75,7.052-15.75,15.75c0,8.697,7.053,15.75,15.75,15.75s15.75-7.053,15.75-15.75  C65.75,42.045,58.697,34.993,50,34.993z M50,58.823c-4.462,0-8.08-3.618-8.08-8.08c0-4.463,3.618-8.08,8.08-8.08  s8.08,3.617,8.08,8.08C58.08,55.205,54.462,58.823,50,58.823z"/>
<rect x="-27.813" y="183.911" width="14.809" height="32.543"/>
<path d="M-41.362,188.03l-45.911,39.784H4.462L-41.362,188.03z M-41.275,217.14c-3.333,0-6.034-2.701-6.034-6.033  s2.701-6.033,6.034-6.033c3.332,0,6.033,2.701,6.033,6.033S-37.944,217.14-41.275,217.14z"/>
<path d="M-75.903,227.814v40.885h26.575v-24.275h15.843v24.275H-6.91v-40.885H-75.903z M-13.808,233.032h-55.005v-2.667h55.005  V233.032z"/>
<polygon points="-265.362,180.859 -221.512,156.16 -177.305,180.859 "/>
<rect x="-253.979" y="97.578" width="3.959" height="0.791"/>
<rect x="-261.773" y="78.933" width="2.018" height="2.018"/>
<path d="M-261.597,183.912v55.099h29.85v-31.345h17.529v31.345h33.148v-55.099H-261.597z M-199.39,223.561h-6.841v-6.841h6.841  V223.561z M-199.39,214.851h-6.841v-6.841h6.841V214.851z M-188.159,223.561H-195v-6.841h6.841V223.561z M-188.159,214.851H-195  v-6.841h6.841V214.851z"/>
<rect x="-227.729" y="211.46" width="9.324" height="27.551"/>
</svg>