<svg xmlns="http://www.w3.org/2000/svg" xmlns:xlink="http://www.w3.org/1999/xlink" version="1.1" id="Layer_1" x="0px" y="0px" width="100px" height="100px" viewBox="0 0 100 100" enable-background="new 0 0 100 100" xml:space="preserve">
<path d="M46,74.334v10.813c0,1.176,0.824,2.129,2,2.129s2-0.953,2-2.129V74.377c-1,0.023-1.082,0.04-1.627,0.04  C47.577,74.417,47,74.384,46,74.334z"/>
<path d="M29.813,69.583L16.995,96.972c-0.496,1.065-0.087,2.331,0.978,2.828c0.291,0.136,0.571,0.2,0.872,0.2  c0.803,0,1.765-0.455,2.126-1.229l12.801-27.237c-0.035-0.015-0.07-0.026-0.104-0.041C32.338,70.931,31.057,70.287,29.813,69.583z"/>
<path d="M61.786,71.826l12.524,26.944C74.672,99.545,75.4,100,76.203,100c0.301,0,0.588-0.064,0.879-0.2  c1.064-0.497,1.506-1.763,1.01-2.828L65.587,70.08c-0.962,0.511-1.944,0.985-2.954,1.412C62.353,71.61,62.068,71.715,61.786,71.826z  "/>
<path d="M47.54,0C27.759,0,11.723,16.035,11.723,35.817c0,19.78,16.036,35.816,35.817,35.816s35.817-16.036,35.817-35.816  C83.357,16.035,67.321,0,47.54,0z M47.54,66.468c-17.019,0-30.813-13.796-30.813-30.813c0-17.019,13.795-30.813,30.813-30.813  c17.018,0,30.813,13.795,30.813,30.813C78.354,52.672,64.558,66.468,47.54,66.468z"/>
<path d="M47.54,9.996c-14.144,0-25.609,11.466-25.609,25.609S33.396,61.215,47.54,61.215s25.609-11.466,25.609-25.609  S61.684,9.996,47.54,9.996z M47.54,56.049c-11.274,0-20.414-9.14-20.414-20.414s9.14-20.414,20.414-20.414  s20.414,9.14,20.414,20.414S58.814,56.049,47.54,56.049z"/>
<path d="M47.54,20.3c-8.47,0-15.335,6.865-15.335,15.335c0,8.469,6.865,15.335,15.335,15.335c8.469,0,15.335-6.866,15.335-15.335  C62.875,27.165,56.009,20.3,47.54,20.3z M47.54,45.804c-5.616,0-10.169-4.553-10.169-10.169s4.553-10.169,10.169-10.169  s10.169,4.553,10.169,10.169S53.156,45.804,47.54,45.804z"/>
<circle cx="47.541" cy="35.635" r="5.002"/>
</svg>