<svg xmlns="http://www.w3.org/2000/svg" xmlns:xlink="http://www.w3.org/1999/xlink" version="1.1" id="Layer_1" x="0px" y="0px" width="100px" height="100px" viewBox="0 0 100 100" enable-background="new 0 0 100 100" xml:space="preserve">
<g>
	<polygon points="84.04,43.641 84.04,37.448 85.551,37.448 85.551,36.542 13.951,36.542 13.951,37.448 14.555,37.448 14.555,43.641    11.937,43.641 11.937,45.655 14.354,45.655 14.354,50.59 84.443,50.59 84.443,45.655 86.457,45.655 86.457,43.641  "/>
	<rect x="40.071" y="35.692" width="18.856" height="0.793"/>
	<path d="M41.831,34.743C41.799,34.662,41.733,34.497,41.831,34.743L41.831,34.743z"/>
	<path d="M41.846,34.779c-0.006-0.016-0.009-0.023-0.015-0.037C41.839,34.763,41.846,34.779,41.846,34.779z"/>
	<path d="M41.846,34.779c0.32-0.64-0.146-2.073,0.984-1.225c0.684,0.512-0.578,1.689,0.627,1.93c0-0.604,0-1.208,0-1.812   c0.259,0.052,1.071,2.344,1.022,1.522c-0.07-1.171,1.033-3.264,0.085-4.342c-0.539-0.613-1.058-0.034-1.611-0.403   c-0.491-0.328-0.177-1.265-0.61-1.458c-1.617-0.718-1.809,0.934-0.698,1.86C40.883,31.766,41.424,33.723,41.846,34.779z"/>
	<path d="M55.93,33.571c0,0.604,0,1.208,0,1.813c1.205-0.241-0.057-1.418,0.627-1.93c1.13-0.848,0.664,0.585,0.984,1.225   c0.422-1.056,0.963-3.014,0.201-3.927c1.11-0.927,0.919-2.579-0.698-1.86c-0.433,0.192-0.119,1.129-0.61,1.458   c-0.553,0.369-1.072-0.21-1.611,0.403c-0.948,1.077,0.155,3.17,0.085,4.342C54.858,35.915,55.671,33.623,55.93,33.571z"/>
	<path d="M57.556,34.642C57.654,34.396,57.588,34.562,57.556,34.642L57.556,34.642z"/>
	<path d="M57.541,34.679c0,0,0.007-0.016,0.015-0.037C57.551,34.655,57.548,34.663,57.541,34.679z"/>
	<path d="M45.37,30.65c0.033,1.574,0.065,3.147,0.099,4.722c0.004,0.2,0.908,0.264,0.908-0.059c0-0.715,0-1.43,0-2.145   c0.455,0.757,1.098,1.394,0.806,2.316c1.296-0.162,0.176-2.215,1.119-2.215c1.862,0,0.129,2.215,1.248,2.215   c1.026,0-0.266-2.316,0.613-2.316c1.137,0,1.314,1.277,1.048,2.316c0.715-0.219,0.942-1.67,1.007-2.518   c0.269,0.771,0.403,1.601,0.403,2.417c0.168-0.739,0.335-1.477,0.503-2.216c0.073,0.802-0.174,2.065,0.604,2.216   c0.025-1.136,0.697-4.283-0.402-4.733c0.005,0.39-0.168,0.827-0.101,1.208c-0.488-0.989-0.475-1.632-0.334-2.684   c0.032-0.241-0.875-1.42-0.976-1.999c-0.133-0.763-0.215-1.593-0.504-2.316c-0.402-1.008-1.012,0.483-1.007,0.957   c-0.428-0.463-0.106-1.493-0.705-1.643v-1.806c0.063-0.137,0.102-0.295,0.102-0.479s-0.038-0.342-0.102-0.479V11.92h-0.402v9.074   c-0.653-0.387-1.712-0.1-1.712,0.896c0,0.995,1.059,1.282,1.712,0.895v1.421h0.03c-0.459,0.125-1.189,0.458-1.339,0.705   c-1.013,1.674,1.341,3.5-0.503,5.136c0.033-0.606-0.473-1.835-1.31-1.208C45.296,29.497,46.744,30.496,45.37,30.65z"/>
	<path d="M17.929,78.824h-0.352V51.898h1.007V50.69h-4.229v1.208h0.705v26.926h-0.353c-0.445,0-0.806,0.36-0.806,0.805v1.059h4.833   v-1.059C18.734,79.185,18.374,78.824,17.929,78.824z"/>
	<path d="M30.114,78.824h-0.353V51.898h1.007V50.69h-4.229v1.208h0.705v26.926h-0.352c-0.445,0-0.806,0.36-0.806,0.805v1.059h4.834   v-1.059C30.92,79.185,30.559,78.824,30.114,78.824z"/>
	<path d="M43.508,78.824h-0.353V51.898h1.007V50.69h-4.229v1.208h0.705v26.926h-0.353c-0.445,0-0.806,0.36-0.806,0.805v1.059h4.833   v-1.059C44.312,79.185,43.952,78.824,43.508,78.824z"/>
	<path d="M58.612,78.824h-0.352V51.898h1.007V50.69h-4.229v1.208h0.705v26.926h-0.353c-0.445,0-0.806,0.36-0.806,0.805v1.059h4.833   v-1.059C59.418,79.185,59.058,78.824,58.612,78.824z"/>
	<path d="M72.106,78.824h-0.352V51.898h1.007V50.69h-4.229v1.208h0.705v26.926h-0.353c-0.445,0-0.806,0.36-0.806,0.805v1.059h4.833   v-1.059C72.912,79.185,72.552,78.824,72.106,78.824z"/>
	<path d="M84.191,78.824h-0.353V51.898h1.007V50.69h-4.229v1.208h0.705v26.926h-0.353c-0.445,0-0.806,0.36-0.806,0.805v1.059h4.834   v-1.059C84.997,79.185,84.636,78.824,84.191,78.824z"/>
</g>
</svg>