<svg xmlns="http://www.w3.org/2000/svg" xmlns:xlink="http://www.w3.org/1999/xlink" version="1.1" id="Layer_1" x="0px" y="0px" width="100px" height="100px" viewBox="0 0 100 100" enable-background="new 0 0 100 100" xml:space="preserve">
<path d="M57.043,78.967c0,0-5.965-6.556,5.215-17.734c8.98-8.981-4.721-31.371-12.459-31.371c-13.938,0-20.882,25.087-14.808,31.162  c11.49,11.489,7.503,17.943,7.503,17.943H57.043z"/>
<path d="M56.943,81.697c0,0-9.179,0-13.872,0c-1.392,0-1.181-2.73-0.352-2.73c2.632,0,14.324,0,14.324,0  S58.217,80.425,56.943,81.697z"/>
<path d="M56.943,84.429c0,0-9.179,0-13.872,0c-1.392,0-1.181-2.731-0.352-2.731c2.632,0,14.324,0,14.324,0  S58.217,83.156,56.943,84.429z"/>
<path d="M56.943,87.16c0,0-9.179,0-13.872,0c-1.392,0-1.181-2.731-0.352-2.731c2.632,0,14.324,0,14.324,0  S58.217,85.887,56.943,87.16z"/>
<path stroke="#000000" d="M52.732,89.891h-5.627l-2.695-2.73c2.632,0,11.028,0,11.028,0L52.732,89.891z"/>
<polygon fill="#000000" points="50.626,77.529 54.076,56.004 52.391,56.004 51.828,54.414 51.188,56.004 50.506,56.004   49.775,57.775 48.992,56.004 48.405,56.004 47.779,54.414 47.105,56.004 46.346,56.004 45.832,57.719 45.137,56.004 44.519,56.004   43.956,54.414 43.387,56.004 42.062,56.004 48.033,77.529 47.813,77.529 41.752,55.737 43.198,55.737 43.934,53.691 44.644,55.737   45.266,55.737 45.826,56.891 46.146,55.737 47.065,55.737 47.768,54.012 48.53,55.737 49.095,55.737 49.786,57.268 50.464,55.747   51.118,55.747 51.828,54.039 52.465,55.737 54.363,55.737 50.828,77.529 "/>
<polygon points="51.822,11.393 50.513,23.762 49.785,23.762 48.621,11.393 "/>
<path fill="none" stroke="#000000" stroke-width="2" d="M86.255,54.414"/>
<path fill="none" stroke="#000000" stroke-width="2" d="M73.886,54.414"/>
<path fill="none" stroke="#000000" stroke-width="2" d="M83.932,37.781"/>
<path fill="none" stroke="#000000" stroke-width="2" d="M73.219,43.965"/>
<path fill="none" stroke="#000000" stroke-width="2" d="M26.976,44.393"/>
<path fill="none" stroke="#000000" stroke-width="2" d="M16.264,38.208"/>
<polygon points="39.814,28.714 33.056,18.355 35.914,16.961 40.521,28.311 "/>
<polygon points="32.136,37.259 21.445,31.037 23.374,28.509 32.586,36.581 "/>
<polygon points="58.365,27.651 64.586,16.961 67.115,18.889 59.043,28.102 "/>
<polygon points="65.598,37.578 74.689,29.192 76.539,31.779 66.112,38.208 "/>
</svg>