<svg xmlns="http://www.w3.org/2000/svg" xmlns:xlink="http://www.w3.org/1999/xlink" version="1.1" id="Layer_1" x="0px" y="0px" width="100px" height="77px" viewBox="0 0 100 77" enable-background="new 0 0 100 77" xml:space="preserve">
<title>Slice 1</title>
<description>Created with Sketch (http://www.bohemiancoding.com/sketch)</description>
<g id="Page_1">
	<g id="Path_2">
	</g>
	<path id="Path_2_1_" d="M63,25c2-2,12-13,23-13c13,1,24,29-10,24c-3-1-5,0-6,0c2,6,1,12,1,14c0,1-2,3-6,5c0,3,1,9-1,11   c-3,3-11,3-15,0c-1-1-2-4-1-7c-3,0-5,0-6,0c-3,0-5,0-8,0c0,3,0,6-1,7c-3,3-11,3-15,0c-2-2-2-6-1-10c-1,0-3-1-4-2c-5,2-12,3-13,2   c0-3,6-4,11-8c-1-10-4-32,28-31C50,17,58,21,63,25z"/>
	<path id="Path_2_decoration" d="M0,0"/>
</g>
</svg>