<svg xmlns="http://www.w3.org/2000/svg" xmlns:xlink="http://www.w3.org/1999/xlink" version="1.1" id="Calque_1" x="0px" y="0px" width="100px" height="100px" viewBox="0 0 100 100" enable-background="new 0 0 100 100" xml:space="preserve">
<path d="M18.736,60.948c-2.909,0-5.275,2.366-5.275,5.275c0,2.908,2.367,5.275,5.275,5.275s5.275-2.367,5.275-5.275  C24.012,63.314,21.645,60.948,18.736,60.948z M18.736,69.182c-1.634,0-2.958-1.325-2.958-2.958c0-1.634,1.324-2.958,2.958-2.958  s2.958,1.324,2.958,2.958C21.694,67.856,20.37,69.182,18.736,69.182z"/>
<circle cx="18.736" cy="66.223" r="0.833"/>
<path d="M55.528,28.363c-1.459,0-2.642,0.688-2.642,1.537h5.282C58.169,29.051,56.986,28.363,55.528,28.363z"/>
<path d="M68.06,28.363c-1.458,0-2.641,0.688-2.641,1.537H70.7C70.7,29.051,69.519,28.363,68.06,28.363z"/>
<path d="M70.282,60.948c-2.909,0-5.275,2.366-5.275,5.275c0,2.908,2.366,5.275,5.275,5.275c2.908,0,5.275-2.367,5.275-5.275  C75.558,63.314,73.19,60.948,70.282,60.948z M70.282,69.182c-1.635,0-2.959-1.325-2.959-2.958c0-1.634,1.324-2.958,2.959-2.958  c1.633,0,2.958,1.324,2.958,2.958C73.24,67.856,71.915,69.182,70.282,69.182z"/>
<circle cx="70.282" cy="66.223" r="0.833"/>
<path d="M18.442,32.343H92.47c-0.068-1.202-0.969-1.916-2.441-1.916H21.011c-1.774,0-2.556,1.416-2.588,1.476  c-0.06,0.111-0.068,0.244-0.022,0.361C18.411,32.292,18.425,32.318,18.442,32.343z"/>
<path d="M24.474,64.114c0,0.022-0.003,0.045-0.006,0.066l1.978,3.001c0.08,0.121,0.216,0.194,0.361,0.194h11.28V37.341H24.474  V64.114z M26.389,38.817h9.771c0.254,0,0.46,0.206,0.46,0.46l0.003,7.067H25.929l0-7.067C25.929,39.023,26.135,38.817,26.389,38.817  z M25.929,48.865c0-0.239,0.193-0.432,0.432-0.432c0.239,0,0.433,0.193,0.433,0.432v1.872c0,0.239-0.194,0.433-0.433,0.433  c-0.238,0-0.432-0.193-0.432-0.433V48.865z"/>
<path d="M92.86,64.04h-0.384v-1.989c0.167-0.052,0.288-0.205,0.288-0.389v-0.479c0-0.184-0.121-0.336-0.288-0.389v-6.6H38.95v13.182  h24.384c0.239,0,0.433-0.193,0.433-0.432v-0.721c0-3.711,2.922-6.73,6.516-6.73c3.593,0,6.516,3.02,6.516,6.74l0.014,0.712  c0.004,0.235,0.196,0.425,0.432,0.425h14.369v0.247c0,0.226,0.184,0.407,0.408,0.407h0.84c0.227,0,0.408-0.182,0.408-0.407v-3.169  C93.269,64.223,93.087,64.04,92.86,64.04z M87.075,62.552h-9.291c-0.119,0-0.217-0.098-0.217-0.217s0.098-0.216,0.217-0.216h9.291  c0.119,0,0.216,0.097,0.216,0.216S87.194,62.552,87.075,62.552z M87.075,60.967h-9.291c-0.119,0-0.217-0.097-0.217-0.216  s0.098-0.217,0.217-0.217h9.291c0.119,0,0.216,0.098,0.216,0.217S87.194,60.967,87.075,60.967z M87.075,59.382h-9.291  c-0.119,0-0.217-0.097-0.217-0.216c0-0.12,0.098-0.216,0.217-0.216h9.291c0.119,0,0.216,0.096,0.216,0.216  C87.291,59.285,87.194,59.382,87.075,59.382z"/>
<g>
	<circle cx="56.674" cy="42.065" r="1.942"/>
	<rect x="55.223" y="44.807" width="2.904" height="2.408"/>
	<path d="M58.591,47.678v3.905h1.041c0,0,0.878-1.173,1.087-1.456c0.21-0.283,0.281-0.633,0.271-0.859s-0.224-2.605-0.224-2.605   c0-1.025-0.83-1.856-1.855-1.856h-0.319V47.678z"/>
	<path d="M53.72,51.583h1.04V50.18v-5.374h-0.318c-1.025,0-1.855,0.831-1.855,1.856c0,0-0.212,2.379-0.223,2.605   c-0.012,0.227,0.061,0.577,0.27,0.859C52.842,50.41,53.72,51.583,53.72,51.583z"/>
	<path d="M71.981,46.273c-0.007-0.009-0.017-0.013-0.024-0.021c-0.339-0.373-0.824-0.611-1.368-0.611h-0.065   c-1.025,0-1.652,0.846-1.855,1.855l-1.1,4.513H48.938v1.322h26.981v-1.898L71.981,46.273z M72.012,52.009   c0.104-0.885,0.041-1.913,0.041-1.913l1.934,1.913H72.012z"/>
	<circle cx="72.358" cy="43.54" r="1.942"/>
</g>
<path d="M92.765,35.709V35.23c0-0.184-0.121-0.337-0.288-0.388v-2.066H19.081L14.91,49.071c-0.13,0.064-0.326,0.161-0.567,0.28  v-0.702c0-0.12-0.097-0.216-0.216-0.216c-0.119,0-0.216,0.097-0.216,0.216v0.917c-1.514,0.75-4.028,1.995-4.683,2.323  c-1.315,0.658-1.484,1.732-1.484,2.595v0.456c0.016-0.004,0.032-0.006,0.048-0.006H8.47c0.119,0,0.216,0.097,0.216,0.217  c0,0.119-0.097,0.216-0.216,0.216H7.792c-0.017,0-0.033-0.003-0.048-0.006v0.538c0.016-0.003,0.032-0.006,0.048-0.006H8.47  c0.119,0,0.216,0.098,0.216,0.217s-0.097,0.216-0.216,0.216H7.792c-0.017,0-0.033-0.003-0.048-0.006v0.539  c0.016-0.004,0.032-0.007,0.048-0.007H8.47c0.119,0,0.216,0.098,0.216,0.217s-0.097,0.217-0.216,0.217H7.792  c-0.017,0-0.033-0.003-0.048-0.007v0.539c0.016-0.003,0.032-0.006,0.048-0.006H8.47c0.119,0,0.216,0.097,0.216,0.216  s-0.097,0.217-0.216,0.217H7.792c-0.017,0-0.033-0.003-0.048-0.006v0.538c0.016-0.003,0.032-0.006,0.048-0.006H8.47  c0.119,0,0.216,0.097,0.216,0.216c0,0.12-0.097,0.217-0.216,0.217H7.792c-0.017,0-0.033-0.002-0.048-0.006v0.539  c0.016-0.004,0.032-0.006,0.048-0.006H8.47c0.119,0,0.216,0.097,0.216,0.216s-0.097,0.216-0.216,0.216H7.792  c-0.017,0-0.033-0.002-0.048-0.006v0.539c0.016-0.004,0.032-0.006,0.048-0.006H8.47c0.119,0,0.216,0.097,0.216,0.216  c0,0.12-0.097,0.216-0.216,0.216H7.792c-0.017,0-0.033-0.002-0.048-0.006v0.662c-0.039-0.012-0.08-0.021-0.124-0.021h-1.2  c-0.226,0-0.409,0.183-0.409,0.408v3.169c0,0.225,0.183,0.408,0.409,0.408h1.2c0.226,0,0.408-0.184,0.408-0.408v-0.229h4.342  c0.159,0,0.305-0.086,0.38-0.227l0.601-1.119c0.016-0.021,0.032-0.046,0.044-0.071c0.057-0.12,0.118-0.235,0.183-0.351l0.017-0.03  c1.042-1.832,3.016-2.995,5.141-2.995c1.952,0,3.771,0.962,4.874,2.568V36.909c0-0.238,0.194-0.432,0.432-0.432h14.477  c0.238,0,0.432,0.193,0.432,0.432v16.422h9.155V37.833H76.78v15.498h15.696v-4.257c0.167-0.052,0.288-0.205,0.288-0.388v-0.479  c0-0.184-0.121-0.337-0.288-0.389v-11.72C92.644,36.046,92.765,35.893,92.765,35.709z M10.363,60.942  c-0.385,0-0.696-0.764-0.696-1.705s0.312-1.705,0.696-1.705c0.384,0,0.696,0.764,0.696,1.705S10.748,60.942,10.363,60.942z   M11.155,56.382c0,0.107-0.087,0.195-0.196,0.195H9.863c-0.108,0-0.196-0.088-0.196-0.195v-0.439c0-0.107,0.088-0.195,0.196-0.195  h1.097c0.108,0,0.196,0.088,0.196,0.195V56.382z M22.408,46.85c0,0.492-0.4,0.893-0.893,0.893h-3.687  c-0.492,0-0.893-0.401-0.893-0.893c0-0.107,0.019-0.211,0.055-0.31l2.564-10.502c0.166-0.646,0.743-1.094,1.406-1.094  c0.8,0,1.45,0.65,1.45,1.45L22.408,46.85z M85.512,43.98c0.084-0.005,0.168-0.009,0.254-0.009c1.139,0,2.064,0.535,2.064,1.195  h-2.439L85.512,43.98z M76.78,36.25H48.105l-3.611-2h36.104L76.78,36.25z M81.738,41.863c0-0.152-0.021-0.375,1.737-0.376  l0.28-1.096c0.006-0.029,0.027-0.055,0.055-0.07l0.783-0.389c0.041,0,0.079,0.021,0.098,0.059c0.014,0.025,0.017,0.055,0.008,0.084  s-0.029,0.053-0.057,0.066l-0.691,0.384l-0.246,0.965c1.554,0.019,1.579,0.228,1.579,0.374c0,0,0.144,0.138-1.79,0.138  C81.56,42,81.738,41.863,81.738,41.863z M82.275,47.59l-0.534-5.245c0.229,0.061,0.707,0.095,1.753,0.095  c1.062,0,1.545-0.035,1.777-0.096l-0.534,5.246C84.676,48.124,82.342,48.131,82.275,47.59z M87.17,47.319h-1.998l0.064-0.625h2.604  C87.84,47.038,87.541,47.319,87.17,47.319z M87.574,46.182h-2.286l0.05-0.503h2.236c0.146,0,0.268,0.113,0.268,0.251  S87.721,46.182,87.574,46.182z"/>
</svg>