<svg xmlns="http://www.w3.org/2000/svg" xmlns:xlink="http://www.w3.org/1999/xlink" version="1.1" id="Layer_1" x="0px" y="0px" width="100px" height="100px" viewBox="0 0 100 100" enable-background="new 0 0 100 100" xml:space="preserve">
<path fill="#000000" d="M98.88,40.089l-20.965-0.476H52.382c0.033-0.361-0.012-2.196-0.193-6.602  c-0.204-4.969-2.246-7.01-2.246-7.01s-2.042,2.042-2.246,7.01c-0.182,4.406-0.228,6.241-0.194,6.602H21.968L1.005,40.089  c0,0-0.953,0.136-0.953,0.885c0,0.749,0,1.77,0,1.77l18.701,1.565l16.079,0.885c0,0,11.807,0.681,12.456,0.681  c0.487,0,0.633,0.313,0.676,0.726l0.018,0.436l0,0c0,0.011,0,0.022,0.001,0.033l0.79,20.364l-6.386,0.902c0,0-1.02,0.34-1.02,1.088  c0,0.749,0,1.228,0,1.228l7.407,0.749l0.583-0.857l0.401,1.182l0.184,0.354l0.184-0.354l0.4-1.182L51.11,71.4l7.408-0.749  c0,0,0-0.479,0-1.228c0-0.748-1.023-1.088-1.023-1.088l-6.383-0.902l0.79-20.364c0.001-0.01,0.001-0.021,0.001-0.033l0,0  l0.018-0.436c0.042-0.413,0.188-0.726,0.675-0.726c0.648,0,12.457-0.681,12.457-0.681l16.078-0.885l18.7-1.565c0,0,0-1.021,0-1.77  C99.831,40.226,98.88,40.089,98.88,40.089z M51.206,38.037c0,0-0.187,0.938-1.264,0.988c-1.078-0.05-1.265-0.988-1.265-0.988  s-0.125-3.021,0.124-5.486c0.163-1.602,0.342-2.653,1.141-2.726c0.799,0.073,0.977,1.124,1.141,2.726  C51.332,35.016,51.206,38.037,51.206,38.037z"/>
</svg>