<svg xmlns="http://www.w3.org/2000/svg" xmlns:xlink="http://www.w3.org/1999/xlink" version="1.1" id="Calque_1" x="0px" y="0px" width="100px" height="100px" viewBox="0 0 100 100" enable-background="new 0 0 100 100" xml:space="preserve">
<g>
	<path d="M75.694,20.838c-1.885-1.885-4.94-1.883-6.828-0.002c-1.886,1.888-1.886,4.942-0.002,6.83   c3.496,3.494,5.42,8.142,5.42,13.082c0,4.942-1.925,9.593-5.42,13.084c-1.883,1.888-1.883,4.945,0.002,6.833   c0.944,0.937,2.177,1.407,3.413,1.407c1.235,0,2.474-0.471,3.415-1.412c5.317-5.322,8.245-12.393,8.245-19.912   C83.939,33.231,81.012,26.16,75.694,20.838z M87.05,9.479c-1.885-1.886-4.942-1.886-6.825,0c-1.885,1.885-1.885,4.94,0,6.828   c6.526,6.531,10.123,15.212,10.123,24.44c0,9.235-3.594,17.912-10.123,24.448c-1.885,1.883-1.885,4.938,0,6.823   c0.941,0.944,2.177,1.415,3.413,1.415c1.235,0,2.471-0.471,3.413-1.415C95.4,63.661,100,52.56,100,40.748   C100,28.938,95.403,17.837,87.05,9.479z"/>
	<g>
		<path d="M29.812,26.779c-7.799,0-14.122,6.323-14.122,14.122c0,7.798,6.323,14.121,14.122,14.121s14.122-6.323,14.122-14.121    C43.934,33.102,37.611,26.779,29.812,26.779z M29.812,48.746c-4.332,0-7.845-3.513-7.845-7.845s3.513-7.845,7.845-7.845    s7.845,3.513,7.845,7.845S34.144,48.746,29.812,48.746z"/>
		<path d="M49.581,11.095V5.962C49.581,2.67,46.911,0,43.619,0s-5.962,2.67-5.962,5.962v4.498H14.233C6.405,10.46,0,16.865,0,24.693    v61.074C0,93.595,6.405,100,14.233,100h31.158c7.828,0,14.233-6.405,14.233-14.233V24.693    C59.624,18.321,55.38,12.895,49.581,11.095z M20.714,90.731c-1.583,0-2.866-1.281-2.866-2.865c0-1.581,1.283-2.866,2.866-2.866    s2.862,1.285,2.862,2.866C23.576,89.451,22.296,90.731,20.714,90.731z M29.813,90.731c-1.584,0-2.867-1.281-2.867-2.865    c0-1.581,1.283-2.866,2.867-2.866c1.581,0,2.865,1.285,2.865,2.866C32.678,89.451,31.395,90.731,29.813,90.731z M38.91,90.731    c-1.583,0-2.862-1.281-2.862-2.865c0-1.581,1.28-2.866,2.862-2.866s2.866,1.285,2.866,2.866    C41.776,89.451,40.493,90.731,38.91,90.731z M51.883,47.065c0,7.828-6.405,14.233-14.233,14.233H21.974    c-7.828,0-14.233-6.405-14.233-14.233V34.737c0-7.828,6.405-14.233,14.233-14.233H37.65c7.828,0,14.233,6.405,14.233,14.233    V47.065z"/>
	</g>
</g>
</svg>