<svg xmlns="http://www.w3.org/2000/svg" xmlns:xlink="http://www.w3.org/1999/xlink" version="1.1" id="Calque_1" x="0px" y="0px" width="38.4615384615px" height="100px" viewBox="0 0 100 260.247" enable-background="new 0 0 100 260.247" xml:space="preserve">
<path d="M50,88.98c-19.326,0-36.366-5.481-46.94-14.708C1.357,69.266,0.302,63.914,0,58.338c11.804,7.665,29.823,12.199,50,12.199  s38.196-4.534,50-12.199c-0.302,5.576-1.357,10.928-3.06,15.934C86.366,83.499,69.326,88.98,50,88.98z M91.134,86.382  c-1.706,2.694-3.603,5.232-5.709,7.546c-4.531,4.979-9.929,9.007-15.922,11.793c0,0-10.351,4.045-10.351,11.246  c0,6.624-1.831,99.24-2.124,114.047c7.293,2.189,12.475,7.67,12.475,14.103c0,8.357-8.732,15.13-19.5,15.13  c-10.772,0-19.504-6.773-19.504-15.13c0-6.433,5.182-11.912,12.475-14.103c-0.293-14.837-2.124-107.806-2.124-114.047  c0-6.785-10.351-11.246-10.351-11.246c-5.993-2.786-11.391-6.814-15.922-11.793c-2.108-2.314-4.007-4.853-5.713-7.548  c11.206,6.009,25.525,9.43,41.138,9.43C65.611,95.811,79.928,92.39,91.134,86.382z M50.002,236.038  c-6.464,0-11.703,4.064-11.703,9.079c0,5.014,5.239,9.078,11.703,9.078c6.46,0,11.699-4.064,11.699-9.078  C61.701,240.102,56.462,236.038,50.002,236.038z M50,64.485c21.162,0,39.605-5.08,49.95-13.505  c-0.406-6.123-1.708-11.972-3.788-17.374c-2.538-6.584-6.206-12.514-10.737-17.491c-4.531-4.979-9.929-9.007-15.922-11.792  C63.509,1.541,56.917,0,50.002,0c-6.919,0-13.507,1.541-19.504,4.324c-5.993,2.784-11.391,6.815-15.922,11.792  C10.04,21.092,6.372,27.022,3.838,33.606C1.758,39.008,0.456,44.858,0.05,50.98C10.395,59.405,28.838,64.485,50,64.485z"/>
</svg>