<svg xmlns="http://www.w3.org/2000/svg" xmlns:xlink="http://www.w3.org/1999/xlink" version="1.1" id="Layer_1" x="0px" y="0px" width="100px" height="100px" viewBox="0 0 100 100" enable-background="new 0 0 100 100" xml:space="preserve">
<path d="M19.584,51.143c-4.371,0-7.915,3.544-7.915,7.914s3.543,7.915,7.915,7.915c4.37,0,7.914-3.545,7.914-7.915  S23.955,51.143,19.584,51.143z M19.676,64.16c-2.719,0-4.923-2.203-4.923-4.921c0-2.72,2.204-4.922,4.923-4.922  c2.718,0,4.921,2.202,4.921,4.922C24.597,61.957,22.394,64.16,19.676,64.16z"/>
<path d="M85.573,51.143c-4.37,0-7.914,3.544-7.914,7.914s3.544,7.915,7.914,7.915c4.371,0,7.914-3.545,7.914-7.915  S89.944,51.143,85.573,51.143z M85.664,64.16c-2.719,0-4.921-2.203-4.921-4.921c0-2.72,2.202-4.922,4.921-4.922  s4.922,2.202,4.922,4.922C90.586,61.957,88.383,64.16,85.664,64.16z"/>
<path d="M99.637,50.585c-0.105-2.425-1.459-3.044-1.461-3.045c0.002-0.023,0.014-0.339,0.079-3.44  c0.078-3.675-1.908-5.755-1.908-5.755c-4.859-4.397-10.523-7.01-10.523-7.01c-0.239,0.131,1.412-1.212,1.253-1.252  c-0.434-0.108-5.746-0.451-9.683-0.684c-0.07-0.401,0.668-1.564,0.668-1.564s5.08-7.282,5.184-7.492  c0.211-0.429-0.245,0.019-0.162-0.027c0,0-4.642,6.596-5.185,7.464c-0.439,0.703-1.138,1.346-1.391,1.567  c-0.443-0.025-0.864-0.049-1.243-0.07c-10.387-0.574-22.281,0.179-26.843,0.447c-4.563,0.268-5.409,1.154-5.409,1.154  c-4.66,2.549-12.574,7.649-13.892,8.44c-0.875,0.525-3.695,0.964-3.695,0.964l-13.221,1.924c-8.657,1.274-8.663,3.192-9.267,3.394  c-0.604,0.201-1.902,2.797-2.07,3.637C0.364,49.46,0.37,50.354,0.37,50.354s0,0.922-0.044,1.979  c-0.044,0.614,0.132,1.537,0.132,1.537c-0.067,4.161,2.353,4.376,2.89,4.577c0.537,0.202,7.114,0.269,7.114,0.269  s-0.226-2.618,0.646-4.498c0.873-1.88,3.246-6.978,10.896-5.636c7.65,1.343,7.113,11.477,7.113,11.477l46.856-0.086  c0.658-8.178,3.359-11.708,10.074-11.708c5.057,0,7.626,5.044,7.93,5.627c0,0,0.606,0.991,0.66,4.198  c0.055,0.138,0.982,0.173,1.898-0.072c2.427-0.61,2.236-3.711,2.267-4.145c0.86-0.624,0.825-1.091,0.819-1.479  C99.615,52.005,99.653,50.94,99.637,50.585z M8.098,49.7c0,0-6.056,0.202-6.695-0.436c0,0,1.371-3.513,2.255-3.664  c0.884,0.185,3.046,0.501,3.613,0.763c0.572,0.264,1.539,0.353,1.451,1.362C8.633,48.738,8.625,49.26,8.098,49.7z M29.433,39.595  l14.039-8.544c0.448,0.094-0.601,0.743-0.601,0.743s-11.254,8.089-11.737,8.441C30.65,40.587,29.433,39.595,29.433,39.595z   M56.57,45.824l-4.482,0.111c-0.506,0.013-0.512-0.214-0.518-0.493c-0.008-0.278,0.03-0.505,0.492-0.519l4.483-0.111  c0.417-0.01,0.511,0.214,0.518,0.493C57.076,45.767,56.85,45.816,56.57,45.824z M56.185,41.352  c-0.396,0.439-22.816,0.968-22.816,0.968c-0.276,0.024-1.819-0.144-0.439-1.714c1.274-1.452,9.76-7.43,10.156-7.606  c0.395-0.175,1.67-1.275,5.89-1.626c4.221-0.352,8.97-0.483,8.97-0.483S56.582,40.912,56.185,41.352z M60.098,41.22l0.351-9.804  c0-0.879,1.099-0.835,1.099-0.835s12.18,0,12.882-0.044c0.704-0.043,1.055,0.571,1.055,0.571s4.354,6.067,5.848,9.408  C81.331,40.736,60.098,41.22,60.098,41.22z M82.156,44.9l-4.483,0.112c-0.504,0.013-0.511-0.213-0.518-0.493  s0.031-0.506,0.493-0.519l4.482-0.112c0.418-0.011,0.512,0.214,0.518,0.494C82.66,44.843,82.435,44.893,82.156,44.9z M88.125,40.347  c-0.499,0.035-4.744,0.137-5.054,0.013c-2.67-4.344-6.365-9.632-6.365-9.632s2.797,0.111,5.963,2.221  c3.163,2.11,4.028,3.117,5.828,4.729C89.861,38.982,88.993,40.285,88.125,40.347z M97.665,47.583c-0.388-0.037-2.172,0-2.172,0  s-0.267-6.077-0.558-7.758c1.073-0.162,1.946,0.161,1.946,0.161S98.286,41.749,97.665,47.583z"/>
</svg>