<svg xmlns="http://www.w3.org/2000/svg" xmlns:xlink="http://www.w3.org/1999/xlink" version="1.1" id="Layer_1" x="0px" y="0px" width="100px" height="100px" viewBox="0 0 100 100" enable-background="new 0 0 100 100" xml:space="preserve">
<defs>
	<path id="SVGID_1_" d="M1.843,43.513c0.417,1.3,1.808,2.85,6.061,2.85c2.772,0,8.594-0.2,17.32-0.592   c-1.523,1.136-2.579,2.142-3.145,3.006c-0.812,1.237,0.225,3.166,3.458,6.379c-0.776,0.672-1.512,1.655-1.825,2.697   c-0.33,1.105-0.159,2.128,0.496,2.962c0.349,0.443,1.038,1.32,10.097,1.945c2.732,2.178,5.082,3.937,5.866,4.522l0.175,0.132   c0.376,0.28,0.795,0.425,1.246,0.425c1.383,0,2.586-1.361,3.196-2.527c0.058-0.112,0.11-0.221,0.156-0.326   c1.181,0.746,2.303,1.39,3.185,1.479c0.056,0.005,0.111,0.01,0.17,0.01c1.353,0,2.859-1.579,3.658-3.204   c0.67-0.007,1.393-0.014,2.082-0.014c1.293,0,2.211,0.021,2.729,0.06c0.491,0.038,1.316,0.223,2.27,0.435   c1.721,0.387,3.863,0.863,5.723,0.863c0.717,0,1.33-0.068,1.873-0.209c3.258-0.854,5.191-1.597,5.687-1.796l0.376-0.033   c0.836,1.636,3.975,6.354,12.382,6.354c2.338,0,4.926-0.376,7.692-1.119l0.123-0.042c2.268-1.012,5.567-10.041,5.414-16.507   c-0.169-7.174-3.026-13.912-4.842-15.221c-2.352-1.695-5.156-1.793-8.125-1.896c-0.581-0.021-1.182-0.042-1.774-0.075   c-0.182-0.011-0.368-0.016-0.56-0.016c-3.586,0-9.428,2.006-10.494,7.331c-0.146-0.004-0.227-0.013-0.265-0.018   c-0.56-0.107-3.396-1.729-5.897-3.161c-6.822-3.904-12.672-7.135-15.178-7.135c-2.14,0-14.375,2.025-25.112,3.922   c-6.666,1.177-22.254,3.978-23.089,4.574C2.159,40.146,1.337,41.93,1.843,43.513z M91.813,66.332   c-0.743,0.188-1.472,0.349-2.185,0.48l5.592-6.669c-0.434,1.375-0.918,2.607-1.381,3.601L91.813,66.332z M87.962,67.069   c-0.601,0.075-1.188,0.127-1.76,0.159l10.314-13.149c-0.124,1.185-0.331,2.363-0.592,3.496L87.962,67.069z M76.436,64.319   l-0.117,0.117c-0.151-0.132-0.296-0.261-0.431-0.392l0.089-0.087C76.119,64.082,76.27,64.204,76.436,64.319z M78.379,65.141   l-0.434,0.433c-0.26-0.147-0.506-0.302-0.734-0.456l0.248-0.25C77.742,64.98,78.049,65.071,78.379,65.141z M81.096,65.138   l-1.076,1.359c-0.362-0.123-0.704-0.256-1.027-0.398l0.83-0.832c0.072,0,0.143-0.001,0.215-0.005   C80.4,65.243,80.754,65.203,81.096,65.138z M74.562,62.461l0.233-0.021c0.112,0.225,0.255,0.46,0.429,0.697l-0.094,0.094   C74.902,62.954,74.715,62.692,74.562,62.461z M86.051,61.379l0.014-0.002l0.162-0.319c0.102-0.194,0.199-0.395,0.292-0.601   c0.092-0.205,0.177-0.414,0.259-0.627c0.004-0.01,0.008-0.022,0.012-0.032c0.071-0.187,0.14-0.375,0.203-0.566   c0.004-0.012,0.008-0.024,0.012-0.035c0.67-2.034,0.934-4.351,0.876-6.662c-0.001-0.029-0.002-0.061-0.003-0.089   c-0.006-0.191-0.013-0.383-0.021-0.572c-0.004-0.073-0.009-0.143-0.013-0.217c-0.009-0.145-0.019-0.29-0.029-0.435   c-0.009-0.117-0.02-0.232-0.029-0.348c-0.009-0.099-0.018-0.194-0.028-0.293c-0.016-0.161-0.033-0.321-0.053-0.481   c-0.006-0.049-0.012-0.097-0.018-0.146c-0.025-0.205-0.053-0.406-0.084-0.609c0-0.003,0-0.005-0.001-0.008   c-0.427-2.864-1.312-5.514-2.501-7.352c-0.014-0.022-0.029-0.042-0.042-0.062c-0.077-0.116-0.153-0.23-0.232-0.34   c-0.095-0.132-0.19-0.259-0.29-0.381c-0.228-0.28-0.459-0.539-0.693-0.783l-0.152-0.164l-0.008,0.003   c-1.408-1.395-2.934-2.104-4.544-2.104c-1.826,0-3.415,0.956-4.458,1.997c1.597-3.189,5.684-4.429,8.326-4.429   c0.158,0,0.314,0.004,0.465,0.013c0.611,0.035,1.221,0.056,1.812,0.077c2.708,0.094,5.267,0.183,7.207,1.581   c0.999,0.72,3.978,6.621,4.151,13.906c0.005,0.272,0.004,0.546-0.001,0.821L84.766,67.257c-0.446-0.009-0.876-0.028-1.289-0.064   l7.71-10.022l-0.882-0.679l-8.109,10.542c-0.354-0.059-0.692-0.127-1.018-0.204l1.891-2.393   C84.268,63.783,85.271,62.756,86.051,61.379z M45.563,63.402c-0.092-0.059-0.174-0.111-0.251-0.159   c1.678,0.043,2.951,0.063,3.527,0.071c0.018,0,0.039,0,0.057,0c0.01,0,0.017,0,0.025,0c0.156,0.002,0.247,0.004,0.255,0.004   l0.028-0.002c0.009,0,0.324-0.006,0.816-0.015c-0.652,0.954-1.432,1.503-1.722,1.503C47.661,64.741,46.243,63.837,45.563,63.402z    M37.222,62.936c0.11,0.008,0.22,0.014,0.334,0.019c2.11,0.109,4.204,0.187,6.022,0.241l-0.034,0.062   c-0.078,0.146-0.169,0.424-0.017,0.761c-0.12,0.582-1.179,2.151-1.936,2.151c-0.058,0-0.137-0.011-0.246-0.091l-0.177-0.133   C40.578,65.504,39.091,64.394,37.222,62.936z M28.372,45.627c2.081-0.098,4.08-0.193,5.869-0.28l5.436,5.434   c-0.643,0.381-1.158,0.677-1.429,0.812c-0.022,0.01-0.051,0.023-0.082,0.035l-4.602-4.6l-0.785,0.786l4.172,4.172   c-0.537,0.14-1.193,0.298-1.895,0.464l-3.838-3.838l-0.787,0.785l3.348,3.35c-0.896,0.205-1.802,0.406-2.585,0.582   c-0.284,0.062-0.554,0.123-0.812,0.182c-0.052,0.012-0.101,0.022-0.153,0.034c-0.062,0.013-0.124,0.027-0.185,0.042   c-0.077,0.017-0.152,0.033-0.228,0.052c-0.035,0.008-0.068,0.014-0.103,0.022c-0.085,0.02-0.17,0.037-0.251,0.057   c-0.022,0.004-0.043,0.01-0.064,0.015c-0.088,0.021-0.173,0.038-0.258,0.059c-0.009,0.002-0.02,0.003-0.029,0.005   c-0.366,0.085-0.695,0.161-0.982,0.229c-0.015,0.003-0.029,0.007-0.044,0.012c-0.053,0.012-0.102,0.024-0.152,0.035   c-0.026,0.007-0.053,0.014-0.077,0.019c-0.047,0.011-0.09,0.022-0.135,0.033c-0.025,0.006-0.052,0.014-0.078,0.019   c-0.038,0.011-0.076,0.02-0.114,0.028c-0.025,0.009-0.052,0.014-0.077,0.021c-0.035,0.009-0.07,0.018-0.101,0.026   c-0.025,0.006-0.047,0.012-0.07,0.019c-0.031,0.007-0.062,0.016-0.09,0.022c-0.024,0.007-0.046,0.014-0.068,0.019   c-0.023,0.008-0.05,0.014-0.073,0.021c-0.001,0-0.004,0.001-0.005,0.002c-3.582-3.499-3.576-4.514-3.562-4.627   C24.156,48.663,25.886,47.23,28.372,45.627z M44.916,47.013l-1.922-1.922C44.092,45.426,44.646,46.324,44.916,47.013z    M44.282,47.95c-0.362,0.229-0.765,0.481-1.188,0.743l-3.609-3.607c0.832-0.044,1.46-0.075,1.836-0.096L44.282,47.95z    M42.123,49.296c-0.495,0.305-0.993,0.61-1.463,0.895l-4.919-4.918c0.813-0.04,1.566-0.078,2.246-0.111L42.123,49.296z    M3.896,40.961c2.279-0.769,42.942-8.222,47.275-8.222c2.266,0,9.537,4.161,14.35,6.913c3.819,2.187,5.69,3.242,6.473,3.362   c0.393,0.062,1.067,0.055,2.125-0.017l0.726,0.016l0.026-0.072c2.355-0.192,5.629-0.591,8.176-0.921   c0.067,0.078,0.131,0.155,0.193,0.232c2.521,3.107,3.801,10.707,2.316,15.95v-1.65h-1.111v3.296l-1.669,0.148v-4.856h-1.112v4.956   l-1.667,0.15v-6.513h-1.112v6.612l-1.668,0.148v-8.541h-1.111v8.642l-1.669,0.148v-9.751h-1.111v9.851l-1.409,0.127l-0.119,0.05   c-0.002,0.002-0.053,0.022-0.141,0.056V50.993h-1.111v10.492c-0.443,0.153-1,0.341-1.668,0.546v-9.798h-1.111v10.13   c-0.48,0.137-0.996,0.279-1.556,0.426c-0.036,0.009-0.076,0.018-0.112,0.024v-9.619h-1.112v9.746   c-0.075,0.003-0.147,0.006-0.226,0.006c-0.486,0-1.006-0.041-1.535-0.105v-8.107h-1.112v7.945c-0.565-0.096-1.127-0.21-1.668-0.327   v-6.355h-1.112v6.112c-0.618-0.139-1.184-0.264-1.668-0.35v-5.763h-1.111v5.636c-0.418-0.021-0.975-0.034-1.668-0.039V56.83h-1.111   v4.759c-0.375,0.001-0.754,0.004-1.128,0.006l0.002-0.004l-0.543,0.008v-4.213h-1.113v4.23c-0.369,0.005-0.702,0.011-0.98,0.017   c-0.039,0.001-0.075,0.001-0.111,0.001c-0.006,0.002-0.013,0.002-0.02,0.002c-0.243,0.005-0.435,0.009-0.556,0.011v-3.704h-1.113   v3.694c-0.434-0.008-0.998-0.019-1.668-0.034v-3.104h-1.111v3.078c-0.52-0.012-1.077-0.028-1.668-0.044v-2.896h-1.111v2.859   c-0.539-0.018-1.099-0.037-1.669-0.06v-2.521h-1.111v2.477c-0.55-0.022-1.107-0.05-1.669-0.076v-1.705h-1.111v1.649   c-0.558-0.031-1.114-0.064-1.668-0.099v-1.969h-1.112v1.896l-0.536-0.037c-0.388-0.028-0.763-0.058-1.131-0.088v-1.354h-1.111   v1.256c-0.591-0.056-1.147-0.113-1.669-0.172v-1.642h-1.11v1.504c-0.641-0.086-1.197-0.178-1.669-0.272v-0.884h-1.112v0.596   c-0.212-0.075-0.374-0.151-0.467-0.23c-0.303-0.395-0.366-0.864-0.197-1.435c0.326-1.083,1.344-2.046,1.907-2.326   c0.023-0.013,0.042-0.02,0.061-0.028c0.025-0.01,0.051-0.022,0.074-0.029c0.462-0.155,2.28-0.562,4.206-0.992   c4.035-0.903,6.732-1.52,7.438-1.873c1.192-0.596,6.26-3.749,7.456-4.545l0.371-0.25v-0.445c0-0.272-0.084-0.731-0.278-1.255   v-4.306h-1.111v2.458c-0.433-0.474-0.982-0.887-1.668-1.149v-2.42h-1.111v2.151c-0.188-0.022-0.383-0.034-0.586-0.034   c-0.147,0-0.297,0.006-0.452,0.018c-0.008,0-0.229,0.012-0.631,0.032v-3.277h-1.111v3.334c-0.475,0.023-1.036,0.053-1.669,0.085   v-3.978h-1.111v4.033c-0.056,0.002-0.11,0.005-0.166,0.008c-0.067,0.004-0.137,0.008-0.205,0.011   c-0.109,0.005-0.224,0.012-0.338,0.018c-0.062,0.002-0.124,0.005-0.189,0.009c-0.086,0.004-0.173,0.01-0.262,0.014   c-0.111,0.005-0.226,0.011-0.34,0.017c-0.056,0.003-0.111,0.005-0.168,0.008v-3.837h-1.112v3.892   c-0.035,0.002-0.071,0.003-0.107,0.005c-0.089,0.005-0.178,0.009-0.267,0.013c-0.084,0.006-0.168,0.008-0.252,0.013   c-0.152,0.008-0.307,0.016-0.461,0.022c-0.008,0.001-0.013,0.001-0.018,0.001c-0.186,0.01-0.373,0.019-0.562,0.027v-3.139h-1.111   v3.192c-0.548,0.025-1.103,0.052-1.669,0.079V41.45h-1.11v2.489c-0.228,0.011-0.455,0.021-0.683,0.031l-0.224,0.011l0,0   c-0.128,0.005-0.257,0.012-0.385,0.018c-0.127,0.005-0.253,0.011-0.378,0.017v-1.871h-1.112v1.922   c-0.567,0.026-1.122,0.051-1.668,0.075v-1.997h-1.112v2.047c-0.568,0.023-1.125,0.049-1.667,0.071v-1.146h-1.112v1.192   c-0.574,0.024-1.128,0.046-1.668,0.068v-1.4h-1.112v1.444c-0.577,0.021-1.134,0.043-1.667,0.062v-1.646h-1.113v1.686   c-0.583,0.021-1.141,0.04-1.667,0.056v-1.741h-1.113v1.775c-0.599,0.018-1.156,0.032-1.668,0.044v-1.193H9.293v1.216   c-0.529,0.008-0.995,0.013-1.39,0.013c-2.526,0-4.113-0.597-4.469-1.68C3.157,42.168,3.643,41.214,3.896,40.961z"/>
</defs>
<use xlink:href="#SVGID_1_" overflow="visible"/>
<clipPath id="SVGID_2_">
	<use xlink:href="#SVGID_1_" overflow="visible"/>
</clipPath>
</svg>