<?xml version="1.0" encoding="utf-8"?>
<!-- Generator: Adobe Illustrator 15.1.0, SVG Export Plug-In . SVG Version: 6.00 Build 0)  -->
<!DOCTYPE svg PUBLIC "-//W3C//DTD SVG 1.1//EN" "http://www.w3.org/Graphics/SVG/1.1/DTD/svg11.dtd">
<svg version="1.1" id="Layer_1" xmlns="http://www.w3.org/2000/svg" xmlns:xlink="http://www.w3.org/1999/xlink" x="0px" y="0px"
	 width="68px" height="100px" viewBox="0 0 68 100" enable-background="new 0 0 68 100" xml:space="preserve">
<path d="M0,0v100h68V0H0z M60,8v24H8V8H60z M28,72V60h12v12H28z M40,80v12H28V80H40z M40,40v12H28V40H40z M20,52H8V40h12V52z M20,60
	v12H8V60H20z M48,60h12v12H48V60z M48,52V40h12v12H48z M8,80h12v12H8V80z M48,92V80h12v12H48z"/>
</svg>
