<svg xmlns="http://www.w3.org/2000/svg" xmlns:xlink="http://www.w3.org/1999/xlink" version="1.1" id="Layer_1" x="0px" y="0px" width="100px" height="100px" viewBox="0 0 100 100" enable-background="new 0 0 100 100" xml:space="preserve">
<g>
	<path d="M6.932,43.395c0.129-0.096,0.261-0.194,0.422-0.327l35.08-24.878c3.508-2.783,11.711-2.783,15.22,0l35.079,23.879   c0.138,0.114,0.254,0.205,0.366,0.295c0.041,0.394,0.066,0.794,0.066,1.203l0.002-1.15h-0.002v-5.341   c0-3.478-1.479-6.437-4.434-8.871L57.653,7.326c-1.422-1.128-3.619-1.791-5.96-2.004h-3.298c-2.34,0.213-4.538,0.876-5.961,2.004   L11.355,28.205c-2.954,2.433-4.433,5.392-4.433,8.871l-0.09,6.396l0.09,0.104C6.922,43.515,6.931,43.456,6.932,43.395z"/>
	<path d="M54.633,67.592h-9.199c-5.189,0-7.784,2.596-7.784,7.666v19.42h24.648v-19.42C62.299,70.188,59.703,67.592,54.633,67.592z"/>
	<path d="M92.731,48.568L57.652,24.689c-3.51-2.783-11.712-2.783-15.22,0L7.352,49.568c-0.165,0.136-0.301,0.237-0.432,0.334v14.622   v20.721c0,5.189,4.281,9.434,9.513,9.434h7.416h8.549V72.756c0-7.23,3.701-10.932,11.1-10.932h13.116   c7.231,0,10.933,3.701,10.933,10.932v21.922h8.688h7.417c5.232,0,9.514-4.244,9.514-9.434V64.523V48.916   C93.032,48.813,92.895,48.702,92.731,48.568z"/>
</g>
</svg>