<svg xmlns="http://www.w3.org/2000/svg" xmlns:xlink="http://www.w3.org/1999/xlink" version="1.1" id="Livello_1" x="0px" y="0px" width="100px" height="100px" viewBox="0 0 100 100" enable-background="new 0 0 100 100" xml:space="preserve">
<g>
	<path d="M57.895,21.856c0,0-0.71-0.97-1.665-1.941L59.805,9.72l2.926,2.676c0,0,0.878,1.995,3.94,0.049l15.843-6.879v2.411   c0,0,0.031,2.162,1.355,2.44l9.663,1.968l-4.774,5.981c0,0-1.628,1.319,0,2.759l2.673,2.362l-7.143,1.569   c0,0,0.193-5.141-6.405-6.5c0,0-4.981-0.361-6.894,4.026c-0.076,0.171-0.147,0.35-0.21,0.532c-1.728,4.949,0.134-0.361,0.134-0.361   s-1.797-4.49-6.973-4.586C63.94,18.167,60.223,17.68,57.895,21.856z"/>
	<path d="M83.788,28.895l13.46,3.853l-3.503,2.489c0,0-1.951,1.13-0.851,2.61l6.827,9.172l-10.465,0.181   c0,0-3.191-0.501-2.517,2.279l0.163,4.297l-13.66-10.34c0,0,6.406-4.069,1.166-10.964C74.409,32.471,80.656,34.54,83.788,28.895z"/>
	<path d="M68.372,44.367l7.396,10.375l-3.021-0.585c0,0-2.347-0.782-2.582,1.264l-1.888,7.762l-6.209-5.716   c0,0,5.453-0.293,6.848-4.27C68.916,53.196,71.382,49.218,68.372,44.367z"/>
	<path d="M75.361,69.305"/>
	<g>
		
			<g>
			<circle cx="10.363" cy="25.28" r="6.547"/>
		</g>
	</g>
	<g>
		
			<g>
			<path d="M30.294,25.263c0,3.617-2.933,6.544-6.547,6.544c-3.619,0-6.546-2.928-6.546-6.544s2.927-6.544,6.546-6.544     C27.361,18.718,30.294,21.646,30.294,25.263z"/>
		</g>
	</g>
	<g>
		
			<g>
			<path d="M43.677,25.261c0,3.615-2.932,6.546-6.545,6.546c-3.62,0-6.544-2.928-6.544-6.544s2.924-6.544,6.544-6.544     C40.746,18.718,43.677,21.646,43.677,25.261z"/>
		</g>
	</g>
	<g>
		
			<g>
			<path d="M57.061,25.261c0,3.615-2.93,6.546-6.545,6.546c-3.618,0-6.545-2.932-6.545-6.546s2.927-6.542,6.545-6.542     C54.131,18.718,57.061,21.646,57.061,25.261z"/>
		</g>
	</g>
	<g>
		
			<g>
			<path d="M70.49,25.261c0,3.615-2.938,6.546-6.55,6.546c-3.616,0-6.547-2.932-6.547-6.546s2.931-6.542,6.547-6.542     C67.553,18.718,70.49,21.646,70.49,25.261z"/>
		</g>
	</g>
	<g>
		
			<g>
			<path d="M83.869,25.699c0,3.61-2.932,6.541-6.543,6.541c-3.619,0-6.547-2.931-6.547-6.541c0-3.617,2.928-6.547,6.547-6.547     C80.938,19.152,83.869,22.083,83.869,25.699z"/>
		</g>
	</g>
	<g>
		
			<g>
			<circle cx="16.911" cy="37.269" r="6.547"/>
		</g>
	</g>
	<g>
		
			<g>
			<circle cx="30.002" cy="37.269" r="6.544"/>
		</g>
	</g>
	<g>
		
			<g>
			<path d="M49.642,37.269c0,3.614-2.932,6.544-6.549,6.544c-3.615,0-6.54-2.93-6.54-6.544c0-3.617,2.925-6.549,6.54-6.549     C46.709,30.72,49.642,33.652,49.642,37.269z"/>
		</g>
	</g>
	<g>
		
			<g>
			<path d="M62.776,37.269c0,3.614-2.935,6.544-6.547,6.544c-3.617,0-6.546-2.93-6.546-6.544c0-3.617,2.929-6.549,6.546-6.549     C59.842,30.72,62.776,33.652,62.776,37.269z"/>
		</g>
	</g>
	<g>
		
			<g>
			<path d="M75.864,37.269c0,3.614-2.927,6.544-6.543,6.544c-3.618,0-6.548-2.93-6.548-6.544c0-3.617,2.93-6.549,6.548-6.549     C72.938,30.72,75.864,33.652,75.864,37.269z"/>
		</g>
	</g>
	<g>
		
			<g>
			<path d="M30.003,49.603c0,3.612-2.933,6.54-6.545,6.54c-3.619,0-6.547-2.928-6.547-6.54c0-3.616,2.928-6.549,6.547-6.549     C27.07,43.054,30.003,45.987,30.003,49.603z"/>
		</g>
	</g>
	<g>
		
			<g>
			<path d="M43.093,49.755c0,3.614-2.928,6.542-6.54,6.542c-3.617,0-6.55-2.929-6.55-6.542c0-3.615,2.933-6.547,6.55-6.547     C40.165,43.208,43.093,46.141,43.093,49.755z"/>
		</g>
	</g>
	<g>
		
			<g>
			<path d="M56.19,49.603c0,3.612-2.935,6.54-6.549,6.54c-3.619,0-6.549-2.928-6.549-6.54c0-3.616,2.93-6.549,6.549-6.549     C53.256,43.054,56.19,45.987,56.19,49.603z"/>
		</g>
	</g>
	<g>
		
			<g>
			<path d="M69.277,49.755c0,3.614-2.933,6.542-6.547,6.542c-3.612,0-6.546-2.929-6.546-6.542c0-3.615,2.934-6.547,6.546-6.547     C66.345,43.208,69.277,46.141,69.277,49.755z"/>
		</g>
	</g>
	<g>
		
			<g>
			<path d="M36.594,61.97c0,3.612-2.931,6.543-6.547,6.543c-3.612,0-6.545-2.931-6.545-6.543c0-3.619,2.933-6.55,6.545-6.55     C33.664,55.42,36.594,58.351,36.594,61.97z"/>
		</g>
	</g>
	<g>
		
			<g>
			<path d="M49.638,61.97c0,3.612-2.929,6.543-6.545,6.543c-3.615,0-6.547-2.931-6.547-6.543c0-3.619,2.932-6.55,6.547-6.55     C46.709,55.42,49.638,58.351,49.638,61.97z"/>
		</g>
	</g>
	<g>
		
			<g>
			<path d="M62.776,61.97c0,3.612-2.935,6.543-6.547,6.543c-3.617,0-6.546-2.931-6.546-6.543c0-3.619,2.929-6.55,6.546-6.55     C59.842,55.42,62.776,58.351,62.776,61.97z"/>
		</g>
	</g>
	<g>
		
			<g>
			<path d="M43.093,74.048c0,3.614-2.931,6.545-6.547,6.545c-3.612,0-6.547-2.931-6.547-6.545c0-3.616,2.935-6.547,6.547-6.547     C40.162,67.501,43.093,70.432,43.093,74.048z"/>
		</g>
	</g>
	<g>
		
			<g>
			<path d="M56.229,74.339c0,3.614-2.929,6.548-6.546,6.548c-3.613,0-6.544-2.934-6.544-6.548s2.931-6.545,6.544-6.545     C53.301,67.794,56.229,70.725,56.229,74.339z"/>
		</g>
	</g>
	<g>
		
			<g>
			<path d="M49.683,86.55c0,3.614-2.93,6.547-6.544,6.547s-6.552-2.933-6.552-6.547c0-3.612,2.938-6.543,6.552-6.543     S49.683,82.938,49.683,86.55z"/>
		</g>
	</g>
	<path d="M40.331,19.197c0,0,2.279,0.468,3.346,2.803c0,0,1.409-2.239,3.347-2.818c0,0-0.677-5.206,2.185-7.752   c0,0-3.88-0.353-5.87-3.497C43.339,7.933,44.31,18.09,40.331,19.197z"/>
</g>
</svg>