<svg xmlns="http://www.w3.org/2000/svg" xmlns:xlink="http://www.w3.org/1999/xlink" version="1.1" id="Layer_1" x="0px" y="0px" width="100px" height="100px" viewBox="0 0 100 100" enable-background="new 0 0 100 100" xml:space="preserve">
<g>
	<polygon fill="none" points="57.625,29.082 54.676,29.082 54.676,26.133 52.865,26.133 52.865,29.082 49.918,29.082 49.918,30.893    52.865,30.893 52.865,33.841 54.676,33.841 54.676,30.893 57.625,30.893  "/>
	<path fill="none" d="M37.07,30.239c0-4.905,2.355-9.037,7.178-9.037l5.671,0.003l5.671-0.003c4.82,0,7.176,4.132,7.176,9.037   l0.564,7.48h5.42V9.936c0-3.043-2.475-5.52-5.52-5.52H36.769c-3.044,0-5.52,2.476-5.52,5.52v27.783h5.256L37.07,30.239z    M49.901,5.948V5.945c0.006,0,0.012,0.001,0.018,0.001c0.006,0,0.012-0.001,0.018-0.001v0.002c3.4,0.107,6.126,2.89,6.126,6.316   s-2.727,6.209-6.126,6.316v0.002c-0.006,0-0.012-0.001-0.018-0.001c-0.006,0-0.012,0.001-0.018,0.001v-0.002   c-3.401-0.107-6.127-2.89-6.127-6.316S46.5,6.055,49.901,5.948z"/>
	<g>
		<path d="M49.901,18.581v0.002c0.006,0,0.012-0.001,0.018-0.001c0.006,0,0.012,0.001,0.018,0.001v-0.002    c3.4-0.107,6.126-2.89,6.126-6.316s-2.727-6.209-6.126-6.316V5.945c-0.006,0-0.012,0.001-0.018,0.001    c-0.006,0-0.012-0.001-0.018-0.001v0.002c-3.401,0.107-6.127,2.89-6.127,6.316S46.5,18.474,49.901,18.581z"/>
		<path d="M63.23,2.417H36.769c-4.146,0-7.52,3.373-7.52,7.52v80.127c0,4.146,3.373,7.52,7.52,7.52H63.23    c4.146,0,7.52-3.373,7.52-7.52V9.936C70.75,5.79,67.377,2.417,63.23,2.417z M57.625,29.082v1.812h-2.949v2.948h-1.811v-2.948    h-2.947v-1.812h2.947v-2.949h1.811v2.949H57.625z M68.75,37.719h-5.42l-0.564-7.48c0-4.905-2.355-9.037-7.176-9.037l-5.671,0.003    l-5.671-0.003c-4.822,0-7.178,4.132-7.178,9.037l-0.564,7.48H31.25V9.936c0-3.043,2.476-5.52,5.52-5.52H63.23    c3.045,0,5.52,2.476,5.52,5.52V37.719z"/>
	</g>
</g>
</svg>