<svg xmlns="http://www.w3.org/2000/svg" xmlns:xlink="http://www.w3.org/1999/xlink" version="1.1" x="0px" y="0px" width="100px" height="100px" viewBox="0 0 100 100" enable-background="new 0 0 100 100" xml:space="preserve">
<g id="Captions">
</g>
<g id="Your_Icon">
	<g>
		<g>
			<path fill-rule="evenodd" clip-rule="evenodd" d="M64.816,55.141l-0.893-0.893c-0.096-0.096-0.198-0.181-0.298-0.27     c2.301-3.934,3.625-8.507,3.625-13.392c0-14.677-11.896-26.572-26.572-26.572c-14.675,0-26.571,11.896-26.571,26.572     c0,14.673,11.896,26.574,26.571,26.574c4.854,0,9.4-1.309,13.317-3.582c0.093,0.105,0.183,0.213,0.283,0.313l0.931,0.931     c1.761-1.084,4.038-2.612,5.493-4.068C62.252,59.205,63.796,56.843,64.816,55.141z M40.659,59.144     c-10.25,0-18.559-8.309-18.559-18.559c0-10.251,8.309-18.559,18.559-18.559s18.558,8.308,18.558,18.559     C59.217,50.835,50.909,59.144,40.659,59.144z M82.846,73.168L66.623,56.946c-0.68,1.359-1.938,3.222-4.263,5.547     c-2.208,2.209-3.993,3.446-5.332,4.148l16.14,16.142c1.402-1.494,3.3-3.494,4.768-4.962     C79.473,76.285,81.451,74.446,82.846,73.168z M84.589,75.529c-0.828,1.207-2.142,2.836-4.249,4.943     c-1.983,1.983-3.549,3.27-4.732,4.105c2.507,1.118,5.548,0.657,7.605-1.397C85.281,81.11,85.735,78.045,84.589,75.529z"/>
		</g>
	</g>
</g>
</svg>