<svg xmlns="http://www.w3.org/2000/svg" xmlns:xlink="http://www.w3.org/1999/xlink" version="1.1" x="0px" y="0px" width="100px" height="100px" viewBox="0 0 100 100" enable-background="new 0 0 100 100" xml:space="preserve">
<g id="Captions">
</g>
<g id="Your_Icon">
	<g>
		<g>
			<path fill="#000000" d="M80.562,44.988c-1.641,0-3.07,0.895-3.838,2.223h-5.062c-0.458-4.448-2.229-8.5-4.905-11.783l3.786-3.794     c0.365,0.098,0.748,0.155,1.145,0.155c2.452,0,4.438-1.991,4.438-4.446c0-2.456-1.987-4.447-4.438-4.447     s-4.437,1.992-4.437,4.447c0,0.398,0.057,0.78,0.154,1.146l-3.779,3.787c-3.309-2.722-7.407-4.515-11.906-4.96v-5.021     c1.325-0.769,2.218-2.202,2.218-3.846c0-2.456-1.986-4.447-4.437-4.447c-2.449,0-4.437,1.991-4.437,4.447     c0,1.644,0.893,3.077,2.219,3.846v5.022c-4.462,0.444-8.529,2.216-11.823,4.903l-3.724-3.732     c0.097-0.366,0.154-0.749,0.154-1.146c0-2.455-1.987-4.446-4.437-4.446s-4.437,1.991-4.437,4.446s1.987,4.446,4.437,4.446     c0.397,0,0.779-0.057,1.145-0.155l3.715,3.722c-2.708,3.294-4.5,7.374-4.96,11.855h-5.074c-0.767-1.328-2.197-2.224-3.838-2.224     c-2.45,0-4.437,1.99-4.437,4.447c0,2.456,1.987,4.445,4.437,4.445c1.642,0,3.07-0.896,3.838-2.223h5.056     c0.429,4.542,2.225,8.679,4.958,12.016l-3.695,3.703c-0.366-0.099-0.748-0.156-1.145-0.156c-2.45,0-4.437,1.99-4.437,4.445     c0,2.456,1.987,4.447,4.437,4.447s4.437-1.991,4.437-4.447c0-0.397-0.057-0.779-0.155-1.147l3.702-3.708     c3.297,2.698,7.372,4.478,11.845,4.923v4.979c-1.325,0.77-2.219,2.202-2.219,3.847c0,2.455,1.987,4.445,4.437,4.445     c2.45,0,4.438-1.99,4.438-4.445c0-1.645-0.895-3.077-2.219-3.847v-4.976c4.509-0.446,8.616-2.247,11.929-4.979l3.757,3.766     c-0.098,0.365-0.154,0.749-0.154,1.146c0,2.456,1.987,4.447,4.438,4.447s4.437-1.991,4.437-4.447     c0-2.454-1.986-4.445-4.437-4.445c-0.397,0-0.779,0.058-1.146,0.156l-3.768-3.774c2.703-3.323,4.478-7.435,4.905-11.944h5.043     c0.768,1.327,2.198,2.223,3.838,2.223c2.452,0,4.438-1.989,4.438-4.445C85,46.979,83.013,44.988,80.562,44.988z M65.357,47.21     h-6.982v1.07c-0.157-1.198-0.552-2.321-1.132-3.321l5.11-5.121C63.917,41.959,64.981,44.473,65.357,47.21z M51.719,40.681V33.44     c2.814,0.412,5.383,1.558,7.528,3.224l-5.116,5.128c-0.853-0.517-1.795-0.9-2.801-1.11L51.719,40.681L51.719,40.681z      M47.282,33.404v7.276h0.394c-0.974,0.203-1.887,0.567-2.717,1.059l-5.235-5.247C41.888,34.87,44.468,33.771,47.282,33.404z      M36.567,39.62l5.248,5.257c-0.614,1.032-1.031,2.194-1.19,3.439v-1.105H33.39C33.782,44.376,34.911,41.785,36.567,39.62z      M33.387,51.657h7.238v-1.049c0.162,1.266,0.589,2.448,1.219,3.493l-5.222,5.231C34.934,57.149,33.782,54.526,33.387,51.657z      M47.282,58.326v7.15c-2.784-0.362-5.339-1.44-7.49-3.032l5.222-5.232c0.949,0.553,2.005,0.941,3.135,1.113L47.282,58.326     L47.282,58.326z M49.463,54.238c-2.645,0-4.788-2.148-4.788-4.8c0-2.649,2.144-4.798,4.788-4.798c2.646,0,4.79,2.149,4.79,4.798     C54.253,52.09,52.109,54.238,49.463,54.238z M51.719,65.438v-7.111h-0.863c1.164-0.178,2.252-0.583,3.223-1.162l5.099,5.107     C57.047,63.909,54.501,65.031,51.719,65.438z M62.297,59.111l-5.085-5.097c0.598-1.012,1.002-2.151,1.163-3.369v1.011h6.985     C64.981,54.431,63.894,56.974,62.297,59.111z"/>
		</g>
	</g>
</g>
</svg>