<svg xmlns="http://www.w3.org/2000/svg" xmlns:xlink="http://www.w3.org/1999/xlink" version="1.1" id="Layer_1" x="0px" y="0px" width="100px" height="100px" viewBox="0 0 100 100" enable-background="new 0 0 100 100" xml:space="preserve">
<g id="Captions">
</g>
<g id="Your_Icon">
	<path d="M49.049,59.338c1.178,0,2.322-0.127,3.451-0.318v19.246L49.099,83L45.5,78.266V59   C47.579,59.369,48.272,59.338,49.049,59.338z M31.46,46.336c-1.548-2.871-2.46-6.14-2.46-9.637C29,25.543,37.953,16.5,49.001,16.5   C60.048,16.5,69,25.543,69,36.699c0,3.59-0.941,6.951-2.57,9.871c-0.119,0.194-0.223,0.191-0.351,0.38   c-0.037,0.066-0.095,0.332-0.134,0.397c-3.7,5.445-9.901,9.014-16.931,9.014C41.562,56.361,35.054,52.339,31.46,46.336z    M43.594,23.563c-3.07,0-5.559,2.514-5.559,5.614c0,3.101,2.489,5.615,5.559,5.615c3.07,0,5.56-2.515,5.56-5.615   C49.153,26.077,46.664,23.563,43.594,23.563z"/>
</g>
</svg>