<svg xmlns="http://www.w3.org/2000/svg" xmlns:xlink="http://www.w3.org/1999/xlink" version="1.1" id="Layer_1" x="0px" y="0px" width="100px" height="100px" viewBox="0 0 100 100" enable-background="new 0 0 100 100" xml:space="preserve">
<ellipse cx="197.327" cy="15.819" rx="19.364" ry="19.577"/>
<polyline points="187.566,50.479 197.148,40.792 207.458,50.327 197.986,79.801 187.566,50.479 "/>
<polyline points="186.063,45.872 187.203,48.787 196.223,39.792 "/>
<polyline points="208.591,45.872 207.637,48.677 198.186,39.683 "/>
<path d="M193.361,89.152l-16.805-50.5c0,0-17.102-2.909-19.086,6.916v36.636"/>
<path d="M237.195,82.203V45.567c-1.985-9.825-19.088-6.916-19.088-6.916l-16.803,50.501 M229.542,70.7H218.25l-1-10.563h13.292  L229.542,70.7z"/>
<rect x="219.25" y="61.875" width="9.48" height="1.042"/>
<polygon points="-229.52,-264.188 -239.152,-258.821 -205.845,-258.821 -214.84,-264.188 "/>
<path d="M-139.569,138.422c0,1.332-1.08,2.411-2.411,2.411h-4.196c-1.331,0-2.411-1.079-2.411-2.411l0,0  c0-1.332,1.08-2.411,2.411-2.411h4.196C-140.649,136.011-139.569,137.09-139.569,138.422L-139.569,138.422z"/>
<path d="M-91.5,125.875c0,0,3.009,9.75,14.004,9.25"/>
<path d="M-242.995-256.659c-16.44,6.478-5.729,34.149-5.729,34.149l28.013,0.011l-1.44-23.579L-242.995-256.659z"/>
<path d="M-201.49-256.667c16.44,6.478,5.729,34.149,5.729,34.149l-26.527,0.01l0.136-23.57L-201.49-256.667z"/>
<path d="M-54.454,124.383l-2.687-0.73c0,0,4.284-1.814,4.792-2.396c0.508-0.581,0.726-10.528,0.726-10.528s6.752-10.455,15.174,0  v7.986c0,0,2.687,4.938,4.356,5.083c1.669,0.146-1.815,0.585-1.815,0.585s1.705,0.794,2.268,0.794s-3.134,5.519-6.041,3.776  l-1.6-2.979l-0.726-2.031l-2.033-1.309c0,0-2.323-1.017-2.904-1.017s-1.888,0-1.888,0h-1.943l-1.542,0.728l-0.581,0.58l-0.073,0.436  l1.307,1.889c0,0-1.67,4.021-3.267,4.043c0,0-5.308-0.938-3.558-3.825C-54.737,122.579-54.454,124.383-54.454,124.383z"/>
<circle cx="55.13" cy="146.365" r="16.251"/>
<circle cx="92.68" cy="146.365" r="16.251"/>
<polygon points="129.053,174.05 129.053,203.505 110.77,196.396 110.77,181.837 "/>
<path d="M105.574,165.869H43.283c-3.421,0-6.195,2.773-6.195,6.196v33.424c0,3.423,2.774,6.196,6.195,6.196h62.291  c3.422,0,6.195-2.773,6.195-6.196v-25.268v-8.156C111.77,168.643,108.996,165.869,105.574,165.869z M92.55,201.478H56.308v-25.4  H92.55V201.478z M102.152,178.325c-1.882,0-3.407-1.526-3.407-3.408s1.525-3.407,3.407-3.407s3.407,1.525,3.407,3.407  S104.034,178.325,102.152,178.325z"/>
<ellipse cx="-154.561" cy="-47.604" rx="14.969" ry="14.818"/>
<ellipse cx="-184.5" cy="-47.604" rx="14.969" ry="14.818"/>
<polygon points="-130.401,-36.728 -130.401,-11.702 -150.361,-18.089 -150.361,-29.582 "/>
<rect x="-176.244" y="-12.702" width="15.193" height="16.229"/>
<rect x="-171.75" y="2.528" width="6.419" height="26.965"/>
<path d="M-184.162,30.636"/>
<polygon points="-186.719,25.785 -175.211,-2.035 -171.75,3.528 -183.129,28.352 "/>
<polygon points="-150.362,25.785 -161.87,-2.035 -165.331,3.528 -153.952,28.352 "/>
<path d="M-191.784-34.155v22.454h44.151v-16.935v-5.519H-191.784z M-150.361-14.792h-3.075v-16.822h3.075V-14.792z"/>
<path d="M108.932-162.246c-26.371,0-47.75,21.379-47.75,47.75c0,26.372,21.379,47.75,47.75,47.75c26.372,0,47.75-21.378,47.75-47.75  C156.682-140.867,135.304-162.246,108.932-162.246z M92.17-106.848v7.025h-7.025v-7.025H92.17z M99.195-113.881v7.025H92.17v-7.025  H99.195z M106.133-120.943v7.025h-7.025v-7.025H106.133z M113.07-128.006v7.025h-7.025v-7.025H113.07z M120.136-121.006v7.025  h-7.025v-7.025H120.136z M127.161-113.943v7.025h-7.025v-7.025H127.161z M134.16-106.926v7.025h-7.025v-7.025H134.16z"/>
<path d="M50.219,4.716c-26.004,0-47.084,21.08-47.084,47.083c0,26.003,21.08,47.083,47.084,47.083  c26.003,0,47.083-21.08,47.083-47.083C97.302,25.796,76.222,4.716,50.219,4.716z M50.056,92.993  C27.305,92.993,8.861,74.55,8.861,51.8c0-22.75,18.443-41.194,41.194-41.194c22.75,0,41.194,18.443,41.194,41.194  C91.25,74.55,72.806,92.993,50.056,92.993z"/>
<polygon points="29.422,45.979 28.328,47.613 49.65,65.358 50.896,64.049 "/>
<polygon points="49.972,64.886 48.83,63.284 69.621,44.918 70.905,46.191 "/>
<circle cx="-467.445" cy="-104.462" r="5.937"/>
<polygon points="-442.482,-145.438 -439.768,-142.724 -463.188,-108.595 -466.011,-110.399 "/>
<polygon points="-464.563,-98.526 -442.482,-75.359 -437.921,-81.729 -462.274,-101.552 "/>
<rect x="-519.874" y="-108.595" width="15.348" height="5.725"/>
<rect x="-413.016" y="-108.595" width="15.348" height="5.725"/>
<rect x="-472.236" y="-163.616" transform="matrix(0.0151 -0.9999 0.9999 0.0151 -296.8074 -622.8329)" width="15.348" height="5.725"/>
<rect x="-473.684" y="-55.02" transform="matrix(0.0151 -0.9999 0.9999 0.0151 -406.8166 -517.3268)" width="15.348" height="5.725"/>
<polygon points="-499.604,-24.97 -490.047,-20.916 -494.825,-0.066 -509.16,-5.857 "/>
<polygon points="-405.342,-19.757 -395.642,-24.97 -382.321,1.093 -397.668,8.5 "/>
<path d="M-507.986-155.092c0,0-61.704,65.52,57.69,128.066v5.207c0,0-130.809-42.983-64.204-133.273H-507.986z"/>
<path d="M-406.052-182.313c0,0-61.704,65.52,57.69,128.066v5.207c0,0-130.809-42.983-64.204-133.273H-406.052z"/>
<path d="M254.046,282.677h-69.593c-5.055,0-9.154,4.098-9.154,9.154v59.584c0,5.057,4.1,9.154,9.154,9.154h69.593  c5.055,0,9.154-4.098,9.154-9.154v-59.584C263.2,286.774,259.101,282.677,254.046,282.677z M258.511,312.88  c0,5.455-4.515,9.878-10.079,9.878h-58.069c-5.567,0-10.079-4.423-10.079-9.878v-11.207c0-5.455,4.512-9.879,10.079-9.879h58.069  c5.564,0,10.079,4.424,10.079,9.879V312.88z"/>
<path d="M199.584,297.978c0,2.697-2.188,4.885-4.886,4.885l0,0c-2.698,0-4.885-2.188-4.885-4.885v-18.593  c0-2.697,2.187-4.885,4.885-4.885l0,0c2.698,0,4.886,2.188,4.886,4.885V297.978z"/>
<path d="M215.262,297.978c0,2.697-2.188,4.885-4.885,4.885l0,0c-2.699,0-4.885-2.188-4.885-4.885v-18.593  c0-2.697,2.186-4.885,4.885-4.885l0,0c2.697,0,4.885,2.188,4.885,4.885V297.978z"/>
<path d="M232.759,297.978c0,2.697-2.188,4.885-4.887,4.885l0,0c-2.698,0-4.885-2.188-4.885-4.885v-18.593  c0-2.697,2.187-4.885,4.885-4.885l0,0c2.698,0,4.887,2.188,4.887,4.885V297.978z"/>
<path d="M249.118,297.978c0,2.697-2.188,4.885-4.887,4.885l0,0c-2.697,0-4.884-2.188-4.884-4.885v-18.593  c0-2.697,2.187-4.885,4.884-4.885l0,0c2.698,0,4.887,2.188,4.887,4.885V297.978z"/>
<rect x="448.255" y="73.925" width="10.593" height="75.459"/>
<rect x="524.034" y="73.925" width="10.59" height="75.459"/>
<rect x="448.255" y="137.915" width="86.369" height="11.469"/>
<rect x="464.412" y="95.676" width="11.128" height="10.521"/>
<rect x="485.876" y="95.676" width="11.129" height="10.521"/>
<rect x="507.724" y="95.676" width="11.127" height="10.521"/>
<rect x="464.412" y="117.115" width="11.128" height="10.522"/>
<rect x="485.876" y="117.115" width="11.129" height="10.522"/>
<rect x="507.724" y="117.115" width="11.127" height="10.522"/>
<path d="M480.5,79.74c0,3.073-2.49,5.564-5.563,5.564l0,0c-3.073,0-5.564-2.491-5.564-5.564V68.576c0-3.072,2.491-5.563,5.564-5.563  l0,0c3.072,0,5.563,2.491,5.563,5.563V79.74z"/>
<path d="M513.288,79.508c0,3.073-2.492,5.564-5.563,5.564l0,0c-3.074,0-5.564-2.491-5.564-5.564V68.346  c0-3.074,2.49-5.564,5.564-5.564l0,0c3.07,0,5.563,2.49,5.563,5.564V79.508z"/>
<path d="M328.966,355.511v0.685v56.462l49.618,13.174v-53.553L328.966,355.511z M367.291,397.825l-28.401-6.673v-19.334  l28.401,7.357V397.825z"/>
<polyline points="395.063,363.938 395.751,418.039 380.658,425.206 380.658,371.962 "/>
<polygon points="380.25,370.75 330,353.375 338.545,342.521 394.605,362.162 "/>
<rect x="373.127" y="-197.854" width="5.457" height="79.389"/>
<rect x="311.938" y="-123.72" width="66.628" height="5.457"/>
<rect x="311.938" y="-203.243" width="6.435" height="10.559"/>
<rect x="311.938" y="-179.065" width="6.458" height="9.276"/>
<rect x="311.938" y="-159.874" width="6.458" height="9.277"/>
<rect x="312.371" y="-138.467" width="6.024" height="9.359"/>
<rect x="-59.815" y="673.615" width="3.968" height="1.984"/>
<path d="M318.372-203.243v74.136h50.936v-74.136H318.372z M362.577-165.2h-36.565v-26.273h36.565V-165.2z"/>
<rect x="330.562" y="-185.115" width="27.103" height="4.638"/>
<rect x="330.562" y="-176.04" width="27.103" height="4.638"/>
<polygon points="557.964,-48.615 571.741,-34.839 571.741,-11.554 543.922,-11.554 543.922,-35.554 "/>
<polygon points="587.611,-48.18 601.389,-34.403 601.389,-11.118 573.569,-11.118 573.569,-35.118 "/>
<path d="M572.443-84.089c-10.694,0-19.364,8.765-19.364,19.577c0,10.812,8.67,19.576,19.364,19.576s19.364-8.765,19.364-19.576  C591.808-75.324,583.138-84.089,572.443-84.089z M563.522-66.901c-1.471,0-2.662-1.191-2.662-2.662c0-1.47,1.191-2.661,2.662-2.661  c1.47,0,2.661,1.191,2.661,2.661C566.184-68.093,564.992-66.901,563.522-66.901z M566.587-57.114h11.712  C572.205-51.666,566.587-57.114,566.587-57.114z M581.107-66.901c-1.471,0-2.662-1.191-2.662-2.662c0-1.47,1.191-2.661,2.662-2.661  c1.47,0,2.661,1.191,2.661,2.661C583.769-68.093,582.577-66.901,581.107-66.901z"/>
</svg>