<svg xmlns="http://www.w3.org/2000/svg" xmlns:xlink="http://www.w3.org/1999/xlink" version="1.1" id="Layer_1" x="0px" y="0px" width="100px" height="100px" viewBox="0 0 100 100" enable-background="new 0 0 100 100" xml:space="preserve">
<path d="M68.998,97.088c0,0,21.714,0,26.001,0c1.144,0,0.999-1.429,0.999-1.571s-5-41.571-14.714-41.571  c-2.786,0-3.787-9.079-3.787-9.079l3.501-0.064h2.286c0,0,0.144-8,0-8c-0.143,0-14.286,0-14.286,0h-2c0,0-14.143,0-14.285,0  c-0.142,0,0,8,0,8h2.286l3.499,0.064c0,0-1,9.079-3.786,9.079c-9.713,0-14.714,41.429-14.714,41.571s-0.143,1.571,1,1.571  c4.286,0,26,0,26,0H68.998z"/>
<rect x="52.677" y="63.278" fill="#000000" width="30.645" height="14.784"/>
<path d="M26.801,30.776c2.292,0,0.083-6.352,0.083-6.929c0-0.585,0.012-14.983,0.012-14.983l-0.042-7.732  c0,0,7.405,19.266,9.58,28.111c1.035,4.204-4.208,9.546-4.208,9.546c-2.733,3.141-1.399,4.411-1.399,4.411  c0,4.36,5.595,8.441,5.595,8.441l0.651,45.447H16.53l0.651-45.447c0,0,5.595-4.081,5.595-8.441c0,0,1.333-1.27-1.399-4.411  c0,0-5.243-5.342-4.208-9.546c2.174-8.845,9.58-28.111,9.58-28.111l-0.042,7.732c0,0,0.012,14.398,0.012,14.983  C26.719,24.424,24.509,30.776,26.801,30.776"/>
</svg>