<svg xmlns="http://www.w3.org/2000/svg" xmlns:xlink="http://www.w3.org/1999/xlink" version="1.1" id="Calque_1" x="0px" y="0px" width="100.0px" height="100px" viewBox="0 0 900 900" enable-background="new 0 0 900 900" xml:space="preserve">
<g>
	<path d="M205.375,129v25.626h18.271c35.192,61.101,105.064,85.491,166.701,94.525v73.83   c-92.257,26.082-159.859,110.894-159.859,211.5c0,47.188,14.875,90.896,40.187,126.704l-13.123,79.562h20.967v19.69   c0,5.968,4.841,10.807,10.809,10.807h20.319c5.968,0,10.807-4.839,10.807-10.807v-19.69h53.8   c23.686,8.729,49.288,13.502,76.005,13.502c26.719,0,52.32-4.772,76.009-13.502h53.628v19.69c0,5.968,4.841,10.807,10.807,10.807   h20.321c5.965,0,10.807-4.839,10.807-10.807v-19.69h20.967l-13.089-79.364c25.397-35.844,40.326-79.628,40.326-126.902   c0-100.605-67.602-185.418-159.861-211.5v-73.83c61.637-9.035,131.51-33.424,166.702-94.525h18.271V129H205.375z M638.179,534.675   c-0.007,51.893-20.99,98.736-54.993,132.756c-34.02,34.004-80.866,54.986-132.75,54.993c-51.895-0.007-98.734-20.989-132.76-54.993   c-33.999-34.02-54.978-80.863-54.984-132.756c0.007-51.896,20.985-98.729,54.984-132.756   c34.026-34.005,80.866-54.979,132.76-54.991c51.884,0.011,98.731,20.985,132.75,54.991   C617.188,435.945,638.172,482.778,638.179,534.675z M450.259,314.713c-11.96,0-23.691,0.969-35.133,2.808V252.06   c12.601,1.124,24.274,1.677,35.133,1.868c10.863-0.191,22.535-0.744,35.137-1.868v65.462   C473.954,315.682,462.219,314.713,450.259,314.713z"/>
	<path d="M434.001,535.631c0,4.024,1.447,7.676,3.768,10.606l-10.438,42.765c0,0,14.296,13.343,29.558,3.812l2.452-42.188   c5.328-2.91,8.982-8.495,8.982-14.995c0-5.797-2.896-10.9-7.297-14.006l5.393-92.734l-22.246,91.101   C438.188,522.667,434.001,528.65,434.001,535.631z"/>
	<path d="M448.33,379.116v24.233c-2.498,0.038-4.978,0.151-7.442,0.327l-2.111-24.142l-4.011,0.35l2.106,24.1   c-2.484,0.255-4.941,0.595-7.385,0.985l-4.205-23.838l-3.963,0.699l4.207,23.849c-2.45,0.47-4.878,0.993-7.278,1.597l-6.264-23.376   l-3.888,1.042l6.271,23.4c-2.398,0.683-4.764,1.427-7.103,2.239l-8.286-22.763l-3.786,1.375l8.286,22.766   c-2.323,0.89-4.614,1.85-6.873,2.865l-10.245-21.973l-3.649,1.703l10.236,21.952c-2.236,1.09-4.425,2.255-6.591,3.466   l-12.126-21.005l-3.485,2.013l12.122,21c-2.132,1.28-4.227,2.609-6.274,4.003l-13.913-19.865l-3.299,2.31l13.926,19.89   c-2.009,1.458-3.986,2.96-5.908,4.526l-15.605-18.597l-3.083,2.588l15.619,18.615c-1.875,1.625-3.707,3.299-5.488,5.025   l-17.181-17.181l-2.849,2.846l17.182,17.184c-1.725,1.78-3.399,3.612-5.023,5.486l-18.615-15.621l-2.589,3.085l18.597,15.607   c-1.565,1.915-3.067,3.893-4.523,5.903l-19.896-13.927l-2.309,3.3l19.871,13.907c-1.397,2.051-2.726,4.146-4.004,6.277   l-21.003-12.126l-2.016,3.487l21.013,12.131c-1.213,2.164-2.375,4.353-3.467,6.589l-21.959-10.24l-1.702,3.649l21.982,10.249   c-1.017,2.262-1.975,4.55-2.867,6.875l-22.773-8.29l-1.379,3.783l22.778,8.288c-0.814,2.339-1.556,4.708-2.239,7.104l-23.415-6.272   l-1.042,3.888l23.39,6.268c-0.603,2.398-1.126,4.826-1.597,7.273l-23.861-4.206l-0.699,3.965l23.85,4.207   c-0.389,2.441-0.73,4.898-0.985,7.383l-24.116-2.111l-0.35,4.011l24.162,2.114c-0.178,2.461-0.292,4.941-0.328,7.439h-24.248v4.026   h24.248c0.037,2.498,0.15,4.976,0.328,7.439l-24.162,2.113l0.35,4.012l24.118-2.109c0.253,2.484,0.594,4.941,0.985,7.385   l-23.852,4.204l0.699,3.966l23.863-4.209c0.469,2.448,0.992,4.876,1.597,7.276l-23.393,6.268l1.042,3.888l23.415-6.272   c0.683,2.396,1.429,4.765,2.239,7.101l-22.778,8.293l1.379,3.781l22.778-8.29c0.889,2.324,1.847,4.611,2.862,6.87l-21.982,10.252   l1.702,3.649l21.964-10.24c1.092,2.233,2.254,4.427,3.467,6.591l-21.017,12.131l2.016,3.487l21.008-12.129   c1.278,2.128,2.607,4.226,4,6.275l-19.871,13.914l2.307,3.299l19.9-13.933c1.458,2.012,2.96,3.986,4.525,5.908l-18.605,15.612   l2.589,3.082l18.62-15.625c1.629,1.875,3.301,3.706,5.028,5.485l-17.19,17.188l2.848,2.846l17.188-17.186   c1.781,1.727,3.61,3.398,5.487,5.025l-15.625,18.622l3.083,2.586l15.612-18.603c1.92,1.567,3.897,3.066,5.906,4.527l-13.933,19.897   l3.299,2.31l13.914-19.875c2.05,1.395,4.146,2.723,6.275,4.004l-12.128,21.008l3.487,2.014l12.133-21.015   c2.164,1.212,4.352,2.377,6.588,3.465l-10.24,21.964l3.649,1.703l10.251-21.983c2.257,1.017,4.546,1.975,6.871,2.864l-8.291,22.778   l3.781,1.376l8.29-22.775c2.339,0.812,4.705,1.556,7.103,2.238l-6.275,23.413l3.891,1.042l6.268-23.388   c2.4,0.603,4.825,1.128,7.273,1.597l-4.205,23.861l3.963,0.7l4.204-23.854c2.444,0.391,4.901,0.732,7.385,0.987l-2.111,24.115   l4.011,0.351l2.114-24.157c2.466,0.176,4.951,0.289,7.453,0.326v24.233h4.036v-24.233c2.496-0.037,4.976-0.148,7.439-0.326   l2.111,24.142l4.012-0.351l-2.107-24.1c2.482-0.253,4.941-0.594,7.381-0.983l4.204,23.834l3.963-0.698l-4.204-23.846   c2.448-0.469,4.878-0.991,7.275-1.597l6.264,23.369l3.889-1.042l-6.269-23.392c2.394-0.683,4.765-1.427,7.101-2.239l8.284,22.758   l3.783-1.376l-8.284-22.758c2.325-0.892,4.614-1.85,6.873-2.867l10.24,21.969l3.649-1.704l-10.233-21.943   c2.239-1.09,4.428-2.257,6.591-3.465l12.122,20.994l3.487-2.014l-12.117-20.989c2.13-1.278,4.226-2.607,6.275-4.002l13.902,19.854   l3.3-2.31l-13.92-19.882c2.012-1.456,3.984-2.957,5.909-4.522l15.596,18.583l3.082-2.587l-15.609-18.604   c1.875-1.624,3.709-3.299,5.488-5.023l17.17,17.168l2.846-2.847l-17.168-17.17c1.728-1.781,3.399-3.61,5.026-5.487l18.601,15.607   l2.587-3.083l-18.583-15.591c1.567-1.923,3.067-3.899,4.527-5.911l19.875,13.919l2.31-3.299l-19.853-13.898   c1.395-2.052,2.726-4.147,4.007-6.279l20.982,12.115l2.014-3.488l-20.987-12.117c1.21-2.163,2.375-4.354,3.465-6.593l21.937,10.231   l1.701-3.649l-21.954-10.238c1.013-2.262,1.973-4.55,2.864-6.873l22.748,8.279l1.377-3.783l-22.749-8.279   c0.812-2.339,1.559-4.707,2.241-7.105l23.381,6.269l1.042-3.891l-23.358-6.259c0.605-2.398,1.129-4.828,1.598-7.275l23.829,4.201   l0.698-3.963l-23.817-4.199c0.392-2.443,0.732-4.901,0.985-7.386l24.081,2.107l0.351-4.012l-24.123-2.11   c0.176-2.462,0.289-4.942,0.326-7.44h24.213v-4.024h-24.213c-0.037-2.5-0.15-4.978-0.326-7.441l24.121-2.109l-0.351-4.011   l-24.077,2.106c-0.255-2.484-0.594-4.941-0.985-7.385l23.813-4.2l-0.698-3.965l-23.825,4.202c-0.471-2.45-0.994-4.878-1.597-7.276   l23.354-6.259l-1.042-3.89l-23.377,6.266c-0.682-2.396-1.428-4.765-2.24-7.104l22.741-8.276l-1.376-3.783l-22.742,8.276   c-0.89-2.325-1.85-4.616-2.864-6.873l21.948-10.235l-1.704-3.649l-21.928,10.225c-1.087-2.236-2.252-4.428-3.462-6.591   l20.976-12.11l-2.014-3.49l-20.974,12.108c-1.276-2.13-2.607-4.228-4.002-6.275l19.841-13.887l-2.309-3.3l-19.866,13.904   c-1.459-2.009-2.96-3.985-4.525-5.903l18.571-15.584l-2.587-3.085l-18.589,15.6c-1.627-1.875-3.302-3.708-5.028-5.488   l17.158-17.159l-2.848-2.847l-17.159,17.159c-1.781-1.728-3.612-3.401-5.489-5.028l15.598-18.588l-3.083-2.588l-15.584,18.571   c-1.923-1.566-3.897-3.068-5.908-4.526l13.909-19.864l-3.299-2.31l-13.892,19.839c-2.05-1.395-4.147-2.724-6.279-4.002   l12.108-20.973l-3.487-2.013l-12.11,20.976c-2.164-1.21-4.354-2.375-6.591-3.464l10.224-21.925l-3.649-1.703L504.08,414.82   c-2.259-1.016-4.55-1.975-6.875-2.864l8.277-22.737l-3.784-1.378l-8.276,22.738c-2.339-0.814-4.707-1.558-7.105-2.241l6.264-23.372   l-3.891-1.042l-6.256,23.348c-2.398-0.603-4.828-1.126-7.276-1.596l4.2-23.819l-3.964-0.701l-4.199,23.81   c-2.443-0.39-4.9-0.73-7.385-0.984l2.104-24.072l-4.012-0.352l-2.108,24.115c-2.46-0.175-4.935-0.288-7.429-0.325v-24.233H448.33z    M458.627,416.995c1.344,0.093,2.687,0.18,4.016,0.317c2.095,0.217,4.17,0.496,6.23,0.822c1.329,0.21,2.646,0.455,3.961,0.71   c2.066,0.399,4.111,0.845,6.137,1.352c1.306,0.326,2.596,0.689,3.883,1.059c2.023,0.579,4.021,1.208,5.993,1.89   c1.274,0.439,2.534,0.896,3.783,1.379c1.961,0.753,3.891,1.56,5.8,2.413c1.226,0.549,2.449,1.1,3.655,1.689   c1.884,0.921,3.733,1.9,5.561,2.917c1.174,0.654,2.344,1.317,3.49,2.009c1.795,1.082,3.564,2.203,5.296,3.375   c1.113,0.754,2.198,1.544,3.283,2.335c1.692,1.232,3.355,2.502,4.98,3.82c1.042,0.847,2.059,1.721,3.071,2.6   c1.581,1.375,3.124,2.787,4.627,4.241c0.968,0.935,1.916,1.881,2.849,2.846c1.454,1.502,2.867,3.047,4.241,4.625   c0.88,1.013,1.754,2.029,2.601,3.074c1.319,1.624,2.589,3.287,3.819,4.98c0.792,1.085,1.583,2.168,2.337,3.28   c1.172,1.733,2.293,3.501,3.374,5.296c0.691,1.147,1.355,2.316,2.009,3.49c1.019,1.825,1.995,3.679,2.919,5.562   c0.587,1.201,1.14,2.43,1.688,3.654c0.854,1.906,1.661,3.84,2.412,5.799c0.482,1.249,0.941,2.512,1.379,3.781   c0.683,1.975,1.312,3.973,1.89,5.99c0.369,1.29,0.733,2.58,1.061,3.886c0.505,2.025,0.953,4.07,1.352,6.134   c0.255,1.317,0.5,2.635,0.71,3.963c0.327,2.062,0.605,4.139,0.821,6.229c0.139,1.329,0.225,2.673,0.318,4.016   c0.146,2.075,0.236,4.168,0.273,6.274c0.011,0.669,0.05,1.333,0.05,2.007c0,0.676-0.039,1.345-0.05,2.018   c-0.037,2.107-0.128,4.198-0.273,6.275c-0.094,1.342-0.18,2.685-0.318,4.013c-0.219,2.094-0.498,4.168-0.824,6.229   c-0.209,1.329-0.454,2.648-0.709,3.961c-0.398,2.065-0.847,4.111-1.352,6.136c-0.328,1.306-0.691,2.596-1.061,3.884   c-0.58,2.021-1.21,4.018-1.891,5.99c-0.438,1.271-0.898,2.532-1.379,3.783c-0.753,1.957-1.561,3.891-2.413,5.797   c-0.549,1.227-1.102,2.453-1.688,3.656c-0.922,1.884-1.902,3.735-2.917,5.562c-0.655,1.174-1.319,2.341-2.011,3.49   c-1.081,1.795-2.202,3.562-3.376,5.294c-0.753,1.11-1.545,2.195-2.332,3.278c-1.233,1.695-2.505,3.358-3.825,4.982   c-0.844,1.042-1.72,2.057-2.598,3.069c-1.374,1.579-2.787,3.124-4.24,4.627c-0.934,0.965-1.882,1.916-2.849,2.847   c-1.504,1.456-3.047,2.866-4.626,4.241c-1.012,0.88-2.031,1.754-3.073,2.6c-1.624,1.32-3.287,2.587-4.98,3.82   c-1.085,0.792-2.168,1.581-3.28,2.334c-1.731,1.174-3.501,2.293-5.297,3.374c-1.146,0.691-2.315,1.356-3.489,2.009   c-1.825,1.02-3.677,1.995-5.561,2.917c-1.204,0.589-2.428,1.14-3.653,1.688c-1.909,0.854-3.839,1.661-5.797,2.414   c-1.252,0.48-2.512,0.938-3.784,1.377c-1.97,0.683-3.97,1.312-5.988,1.891c-1.287,0.368-2.577,0.732-3.883,1.06   c-2.025,0.506-4.073,0.951-6.134,1.352c-1.317,0.255-2.633,0.498-3.963,0.71c-2.06,0.325-4.135,0.605-6.229,0.823   c-1.326,0.137-2.671,0.224-4.011,0.318c-2.08,0.144-4.171,0.234-6.275,0.271c-0.676,0.011-1.342,0.05-2.022,0.05   c-0.678,0-1.342-0.039-2.013-0.05c-2.111-0.037-4.205-0.128-6.289-0.273c-1.342-0.093-2.685-0.182-4.013-0.318   c-2.093-0.219-4.168-0.498-6.229-0.823c-1.329-0.212-2.644-0.455-3.959-0.71c-2.065-0.4-4.113-0.847-6.136-1.354   c-1.306-0.326-2.596-0.689-3.883-1.061c-2.021-0.578-4.018-1.206-5.991-1.889c-1.271-0.441-2.532-0.898-3.781-1.378   c-1.959-0.756-3.888-1.562-5.795-2.414c-1.229-0.549-2.453-1.099-3.658-1.69c-1.884-0.922-3.731-1.9-5.56-2.914   c-1.174-0.655-2.339-1.317-3.49-2.012c-1.793-1.081-3.563-2.202-5.292-3.374c-1.112-0.753-2.195-1.545-3.28-2.334   c-1.693-1.233-3.354-2.503-4.978-3.82c-1.042-0.846-2.062-1.72-3.071-2.601c-1.579-1.374-3.126-2.786-4.628-4.24   c-0.967-0.936-1.916-1.882-2.848-2.846c-1.452-1.507-2.867-3.049-4.236-4.628c-0.883-1.013-1.756-2.029-2.603-3.071   c-1.317-1.625-2.587-3.288-3.818-4.98c-0.792-1.083-1.583-2.168-2.336-3.278c-1.171-1.733-2.291-3.501-3.374-5.294   c-0.691-1.151-1.356-2.318-2.006-3.492c-1.02-1.825-1.998-3.675-2.917-5.559c-0.589-1.205-1.143-2.43-1.69-3.655   c-0.854-1.907-1.659-3.839-2.414-5.795c-0.482-1.251-0.938-2.514-1.379-3.783c-0.683-1.976-1.31-3.971-1.888-5.988   c-0.369-1.29-0.732-2.58-1.06-3.886c-0.505-2.022-0.953-4.07-1.352-6.136c-0.255-1.313-0.5-2.633-0.71-3.961   c-0.327-2.062-0.605-4.134-0.823-6.229c-0.139-1.329-0.226-2.671-0.319-4.016c-0.146-2.075-0.236-4.168-0.273-6.272   c-0.011-0.673-0.05-1.34-0.05-2.016c0-0.674,0.039-1.34,0.05-2.011c0.037-2.104,0.127-4.195,0.273-6.272   c0.093-1.343,0.18-2.685,0.319-4.014c0.218-2.093,0.496-4.168,0.821-6.229c0.211-1.328,0.457-2.647,0.71-3.963   c0.4-2.063,0.849-4.108,1.354-6.134c0.325-1.306,0.689-2.596,1.06-3.886c0.578-2.018,1.206-4.016,1.888-5.99   c0.437-1.27,0.896-2.532,1.375-3.781c0.755-1.959,1.563-3.891,2.416-5.797c0.548-1.227,1.099-2.452,1.688-3.656   c0.924-1.884,1.897-3.733,2.917-5.561c0.653-1.174,1.317-2.341,2.011-3.489c1.079-1.795,2.2-3.563,3.372-5.297   c0.755-1.11,1.547-2.193,2.334-3.278c1.233-1.692,2.502-3.357,3.822-4.98c0.846-1.041,1.72-2.061,2.598-3.073   c1.374-1.579,2.789-3.124,4.241-4.625c0.933-0.963,1.881-1.911,2.848-2.844c1.502-1.456,3.046-2.867,4.625-4.241   c1.012-0.88,2.027-1.754,3.069-2.6c1.625-1.319,3.29-2.589,4.983-3.822c1.087-0.79,2.17-1.581,3.283-2.335   c1.731-1.172,3.497-2.292,5.294-3.375c1.149-0.691,2.316-1.355,3.49-2.008c1.829-1.018,3.676-1.997,5.56-2.918   c1.206-0.589,2.43-1.141,3.656-1.689c1.909-0.853,3.838-1.661,5.799-2.415c1.249-0.48,2.509-0.938,3.781-1.377   c1.973-0.683,3.97-1.312,5.988-1.891c1.292-0.369,2.58-0.734,3.886-1.061c2.025-0.505,4.072-0.952,6.138-1.351   c1.313-0.255,2.63-0.5,3.961-0.71c2.061-0.327,4.134-0.605,6.231-0.823c1.329-0.139,2.671-0.225,4.013-0.318   c2.077-0.146,4.168-0.237,6.275-0.273c0.671-0.011,1.335-0.051,2.013-0.051c0.681,0,1.347,0.04,2.022,0.051   C454.468,416.759,456.554,416.851,458.627,416.995z"/>
</g>
</svg>