<svg xmlns="http://www.w3.org/2000/svg" xmlns:xlink="http://www.w3.org/1999/xlink" version="1.1" id="Layer_1" x="0px" y="0px" width="100px" height="100px" viewBox="0 0 100 100" enable-background="new 0 0 100 100" xml:space="preserve">
<g>
	<path d="M94.346,92.627H37.719c-2.003,0-3.633-1.63-3.633-3.633V74.121c0-2.004,1.63-3.633,3.633-3.633h56.627   c2.004,0,3.635,1.629,3.635,3.633v14.873C97.979,90.997,96.35,92.627,94.346,92.627z M37.719,72.743   c-0.76,0-1.378,0.618-1.378,1.378v14.873c0,0.759,0.618,1.378,1.378,1.378h56.627c0.762,0,1.379-0.619,1.379-1.378V74.121   c0-0.76-0.617-1.378-1.379-1.378H37.719L37.719,72.743z"/>
</g>
<g>
	<path d="M6.837,65.29c1.076,1.64,5.473,7.987,6.085,7.866c1.456-0.292,56.875-23.798,56.875-23.798s0.986-0.31,1.098-1.292   c0.1-0.901-1.547-6.77-2.074-8.413L6.837,65.29z"/>
	<path d="M25.058,35.134c0,0,1.838,2.114,2.219,4.298c0.381,2.185,1.075,4.542,1.977,5.304c0.901,0.764,3.365,1.989,5.616,1.436   c2.115-0.52,4.4-1.486,5.128-3.22c0.434-1.032,1.182-4.595-1.002-6.605c-1.732-1.594-2.913-2.185-3.225-3.71   c-0.312-1.525-0.312-2.669-0.312-2.669s-1.769,2.777-4.646,4.09C28.421,35.15,25.058,35.134,25.058,35.134z"/>
	<path d="M61.395,24.885c0,0-0.639-1.437-2.076-0.854c-0.275,0.112-10.646,4.496-22.337,9.44c0.342,0.429,0.813,0.833,1.42,1.345   c0.368,0.312,0.787,0.665,1.237,1.08c2.585,2.379,1.583,6.51,1.172,7.486c-0.875,2.083-3.592,3.144-5.718,3.666   c-0.433,0.107-0.892,0.161-1.366,0.161l0,0c-2.109,0-4.124-1.058-4.964-1.769c-1.291-1.093-1.997-4.461-2.241-5.859   c-0.088-0.506-0.261-1.01-0.469-1.488c-11.756,4.973-22.115,9.355-22.115,9.355s-2.395,0.899-1.385,4.202   c0.315,1.031,2.346,8.435,3.51,11.834l61.95-25.623C66.177,34.166,61.395,24.885,61.395,24.885z"/>
	<path d="M24.869,4.77c-1.981,0-4.088,0.379-6.095,1.097c-6.684,2.39-10.842,7.918-9.267,12.32c1.048,2.93,4.452,4.75,8.883,4.75   c1.98,0,4.089-0.379,6.095-1.097c3.271-1.169,6.036-3.118,7.785-5.487c1.706-2.31,2.232-4.737,1.483-6.834   C32.705,6.59,29.301,4.77,24.869,4.77z"/>
	<path d="M18.393,24.356c-2.506,0-4.768-0.563-6.518-1.59l5.226,8.934c0.622,0.379,4.188,2.438,8.17,2.438c0,0,0,0,0.001,0   c1.972,0,4.593-0.597,6.126-1.618c5.375-3.578,6.204-8.682,6.396-9.507l-2.908-9.536c-0.861,3.926-4.767,7.828-10.071,9.724   C22.705,23.958,20.484,24.356,18.393,24.356z"/>
</g>
<path d="M93.868,77.975v-1.397c0-0.937-0.76-1.696-1.696-1.696H40.064c-0.938,0-1.696,0.76-1.696,1.696v1.397H93.868z"/>
<rect x="38.368" y="82.142" width="55.5" height="1.833"/>
<rect x="38.368" y="79.142" width="55.5" height="1.833"/>
<path d="M38.368,85.142v1.398c0,0.937,0.759,1.695,1.696,1.695h52.107c0.937,0,1.696-0.759,1.696-1.695v-1.398H38.368z"/>
</svg>