<svg xmlns="http://www.w3.org/2000/svg" xmlns:xlink="http://www.w3.org/1999/xlink" version="1.1" id="Your_Icon" x="0px" y="0px" width="100px" height="100px" viewBox="0 0 100 100" enable-background="new 0 0 100 100" xml:space="preserve">
<path d="M88.119,57.231H67.184c1.804,0,3.268,2.077,3.268,4.639c0,0-8.416,23.029-10.22,23.029c-5.306,0-15.92,0-21.223,0  c-1.807,0-10.22-23.029-10.22-23.029c0-2.562,1.462-4.639,3.265-4.639H11.119c-3.954,0-7.162,3.208-7.162,7.161l4.775,28.389  c0,3.957,3.207,7.162,7.162,7.162h67.449c3.957,0,7.162-3.205,7.162-7.162l4.773-28.389C95.279,60.439,92.074,57.231,88.119,57.231z  "/>
<path d="M32.043,40.336c0.816,3.756,4.157,6.572,8.157,6.572c4.614,0,8.354-3.741,8.354-8.352c0-0.123-0.014-0.242-0.019-0.363  c1.118-0.208,2.25-0.422,3.392-0.64c-0.108,0.541-0.166,1.098-0.166,1.668c0,4.614,3.738,8.353,8.352,8.353  c4.612,0,8.353-3.739,8.353-8.353c0-1.605-0.461-3.099-1.245-4.373c4.049-0.589,8.047-1.012,11.847-1.106  c2.752-0.067-8.354-7.155-8.354-7.155H27.667c0,0-8.979,4.477-8.357,7.155C20.503,38.882,25.288,40.465,32.043,40.336z"/>
<path d="M67.367,21.094c0,0,3.922-18.116-2.594-19.832c-3.577-0.943-15.402,2.827-15.402,2.827S37.926,0.352,34.429,1.262  c-6.539,1.7-2.594,19.832-2.594,19.832H67.367z"/>
<path d="M46.26,64.313v-4.508c-0.104-0.689-0.416-1.189-0.792-1.189l-3.167-1.384c-0.458,0-0.829,0.741-0.829,1.657v6.337  c0,0.916,0.372,1.656,0.829,1.656l3.167-1.383C45.844,65.499,46.157,64.996,46.26,64.313z"/>
<path d="M57.765,65.226v-6.337c0-0.916-0.37-1.657-0.827-1.657l-3.168,1.384c-0.376,0-0.688,0.5-0.79,1.189v4.508  c0.102,0.684,0.414,1.187,0.79,1.187l3.168,1.383C57.395,66.882,57.765,66.142,57.765,65.226z"/>
<path d="M51.041,60.339H48.2c-0.412,0-0.744,0.267-0.744,0.597l0.619,2.271c0,0.271,0.225,0.496,0.534,0.571h2.021  c0.309-0.075,0.532-0.301,0.532-0.571l0.622-2.271C51.784,60.605,51.452,60.339,51.041,60.339z"/>
<rect x="57.194" y="69.571" transform="matrix(0.9795 0.2015 -0.2015 0.9795 16.3745 -10.0362)" width="0.596" height="11.706"/>
<rect x="35.893" y="75.126" transform="matrix(-0.2046 -0.9788 0.9788 -0.2046 -23.5394 131.721)" width="11.708" height="0.596"/>
</svg>