<svg xmlns="http://www.w3.org/2000/svg" xmlns:xlink="http://www.w3.org/1999/xlink" version="1.1" x="0px" y="0px" width="100px" height="100px" viewBox="0 0 100 100" enable-background="new 0 0 100 100" xml:space="preserve">
<g id="Captions" display="none">
</g>
<g id="Your_Icon">
	<g>
		<path fill="#000000" d="M6.173,99.999c-0.194-0.008-0.389-0.054-0.576-0.141c-0.748-0.351-1.07-1.241-0.719-1.99    c4.485-9.569,9.631-17.564,14.171-24.616c5.532-8.592,9.902-15.38,10.108-20.63c0.123-3.106-1.139-6.524-2.737-10.854    c-3.129-8.478-7.415-20.09-6.112-40.366c0.053-0.824,0.742-1.466,1.589-1.397c0.824,0.053,1.449,0.764,1.397,1.589    c-1.262,19.644,2.896,30.911,5.933,39.138c1.713,4.642,3.066,8.307,2.92,12.007c-0.239,6.067-4.803,13.157-10.582,22.134    c-4.489,6.973-9.577,14.877-13.978,24.266C7.323,99.7,6.756,100.022,6.173,99.999z"/>
	</g>
	<path fill="#000000" d="M85.962,62.87c-0.194-1.346-1.914-11.366-10.469-16.946c-2.976-1.94-6.009-3.598-8.814-4.986   c-7.113-3.825-13.973-7.948-13.818-14.861c0.016-0.722-0.485-1.352-1.192-1.497c-0.707-0.15-1.417,0.232-1.689,0.901   c-0.718,1.77-1.11,3.58-1.193,5.305c-3.106-3.537-5.737-8.411-7.859-14.592c-0.25-0.724-1.005-1.146-1.749-0.972   c-0.746,0.171-1.243,0.877-1.152,1.636c0.922,7.676,3.732,20.455,12.25,26.119c-0.67,0.807-1.311,1.781-1.895,2.904   c-1.862,3.582-3.197,8.453-3.354,13.424c-0.112,3.486,0.458,7.049,1.413,10.195c0.649,2.134,1.479,4.037,2.392,5.587   c-4.098,1.624-6.914,4.1-9.451,9.107c-0.373,0.737-0.079,1.638,0.659,2.01c0.198,0.101,0.407,0.153,0.616,0.161   c0.477,0.019,0.933-0.201,1.232-0.589c0.105-0.104,0.199-0.223,0.272-0.359c3.757-7.01,8.489-7.93,19.918-10.153l0.528-0.103   c13.95-2.716,21.129-6.228,23.279-11.387C86.01,63.476,86.028,63.161,85.962,62.87z M49.982,57.825   C46.743,57,49.651,47.904,51.82,48.28C54.342,48.716,52.626,58.499,49.982,57.825z M60.63,72.168   c-0.709,0.137-1.395,0.271-2.058,0.402c1.297-3.412,2.138-7.913,2.301-12.906c0.165-4.869-0.407-9.341-1.419-12.797   c8.32,3.192,18.349,7.909,22.07,16.194C79.506,66.84,72.664,69.824,60.63,72.168z"/>
</g>
</svg>