<svg xmlns="http://www.w3.org/2000/svg" xmlns:xlink="http://www.w3.org/1999/xlink" version="1.1" x="0px" y="0px" width="100px" height="100px" viewBox="0 0 100 100" enable-background="new 0 0 100 100" xml:space="preserve">
<g id="Captions" display="none">
</g>
<g id="Your_Icon">
	<g>
		<path fill="#000000" d="M93.827,99.999c0.194-0.008,0.39-0.054,0.576-0.141c0.747-0.351,1.07-1.241,0.72-1.99    c-4.486-9.569-9.632-17.564-14.172-24.616c-5.531-8.592-9.901-15.38-10.107-20.63c-0.123-3.106,1.139-6.524,2.736-10.854    c3.129-8.478,7.415-20.09,6.113-40.366c-0.054-0.824-0.742-1.466-1.59-1.397c-0.824,0.053-1.449,0.764-1.396,1.589    c1.262,19.644-2.896,30.911-5.934,39.138c-1.713,4.642-3.065,8.307-2.92,12.007c0.24,6.067,4.804,13.157,10.582,22.134    c4.489,6.973,9.578,14.877,13.979,24.266C92.678,99.7,93.244,100.022,93.827,99.999z"/>
	</g>
	<path fill="#000000" d="M14.114,63.774c2.15,5.159,9.329,8.671,23.279,11.387l0.528,0.103c11.429,2.224,16.161,3.144,19.918,10.153   c0.072,0.137,0.166,0.255,0.271,0.359c0.3,0.388,0.756,0.607,1.232,0.589c0.209-0.008,0.419-0.061,0.616-0.161   c0.738-0.372,1.032-1.272,0.659-2.01c-2.537-5.008-5.353-7.483-9.45-9.107c0.912-1.55,1.742-3.453,2.392-5.587   c0.954-3.146,1.524-6.709,1.412-10.195c-0.157-4.971-1.492-9.842-3.354-13.424c-0.584-1.124-1.225-2.097-1.895-2.904   c8.518-5.664,11.328-18.443,12.25-26.119c0.091-0.759-0.405-1.465-1.151-1.636c-0.744-0.173-1.5,0.249-1.75,0.972   c-2.121,6.181-4.753,11.055-7.858,14.592c-0.083-1.725-0.475-3.535-1.193-5.305c-0.271-0.669-0.981-1.052-1.688-0.901   c-0.707,0.145-1.208,0.775-1.192,1.497c0.154,6.913-6.705,11.036-13.818,14.861c-2.806,1.388-5.839,3.046-8.814,4.986   c-8.555,5.58-10.274,15.601-10.469,16.946C13.972,63.161,13.99,63.476,14.114,63.774z M48.18,48.28   c2.169-0.376,5.077,8.72,1.839,9.545C47.374,58.499,45.658,48.716,48.18,48.28z M18.476,63.062   c3.722-8.285,13.75-13.002,22.07-16.194c-1.012,3.456-1.584,7.928-1.419,12.797c0.163,4.993,1.004,9.494,2.301,12.906   c-0.663-0.132-1.349-0.266-2.058-0.402C27.336,69.824,20.494,66.84,18.476,63.062z"/>
</g>
</svg>