<svg xmlns="http://www.w3.org/2000/svg" xmlns:xlink="http://www.w3.org/1999/xlink" version="1.1" id="Layer_1" x="0px" y="0px" width="100px" height="88.889px" viewBox="0 0 100 88.889" enable-background="new 0 0 100 88.889" xml:space="preserve">
<path fill="#000000" d="M0-5.556v100h100v-100H0z M5.556,5.893l4.478-5.042h7.412L5.556,14.237V5.893z M5.556,22.582L24.857,0.851  h7.412L5.556,30.926V22.582z M5.556,39.271l34.125-38.42h7.412L5.556,47.616V39.271z M5.556,55.96L54.504,0.851h7.412L5.556,64.306  V55.96z M5.556,72.649L69.328,0.851h7.411L5.556,80.995V72.649z M6.71,88.038L84.151,0.851h7.411l-77.44,87.188H6.71z M95,80.427  l-6.761,7.611h-7.411L95,72.083V80.427z M95,63.737L73.416,88.038h-7.411L95,55.394V63.737z M95,47.049L58.593,88.038h-7.412  L95,38.704V47.049z M95,30.359L43.77,88.038h-7.412L95,22.015V30.359z M95,13.67L28.946,88.038h-7.412L95,5.325V13.67z"/>
</svg>