<svg xmlns="http://www.w3.org/2000/svg" xmlns:xlink="http://www.w3.org/1999/xlink" version="1.1" id="Layer_1" x="0px" y="0px" width="46.763px" height="100px" viewBox="0 0 46.763 100" enable-background="new 0 0 46.763 100" xml:space="preserve">
<path d="M4.461,3.476l10.107-3.221c3.722-1.186,8.023,1.88,9.606,6.846l2.093,6.564l-23.59,7.516l-2.093-6.565  C-0.997,9.651,0.738,4.662,4.461,3.476z M21.74,81.013L4.109,25.678l23.591-7.517l17.631,55.334L21.74,81.013z M26.634,73.069  L12.282,28.026L8.912,29.1l14.352,45.042L26.634,73.069z M33.374,70.921L19.022,25.878l-3.37,1.074l14.351,45.042L33.374,70.921z   M40.112,68.774L25.761,23.731l-3.37,1.074l14.352,45.042L40.112,68.774z M46.763,77.99l-4.818,1.535l-1.894,6.909l-6.611,2.106  l-5.542-4.54l-4.818,1.535L40.731,100L46.763,77.99z"/>
</svg>