<svg xmlns:dc="http://purl.org/dc/elements/1.1/" xmlns:rdf="http://www.w3.org/1999/02/22-rdf-syntax-ns#" xmlns:svg="http://www.w3.org/2000/svg" xmlns:sodipodi="http://sodipodi.sourceforge.net/DTD/sodipodi-0.dtd" xmlns:cc="http://creativecommons.org/ns#" xmlns:inkscape="http://www.inkscape.org/namespaces/inkscape" xmlns="http://www.w3.org/2000/svg" xmlns:xlink="http://www.w3.org/1999/xlink" version="1.1" id="svg12385" sodipodi:version="0.32" inkscape:version="0.46+pre4" inkscape:output_extension="org.inkscape.output.svg.inkscape" sodipodi:docname="camera white.svg" x="0px" y="0px" width="99.558px" height="66.801px" viewBox="75.43 172.748 99.558 66.801" enable-background="new 75.43 172.748 99.558 66.801" xml:space="preserve">
<g>
	<rect x="91.362" y="172.748" fill="#000000" width="8.893" height="2.674"/>
	<path fill="#000000" d="M108.071,196.562c3.822-6.332,10.671-10.621,18.605-10.621c7.921,0,14.796,4.314,18.592,10.672   l29.695,0.024v-11.995c0-4.465-3.632-8.085-8.085-8.085H83.49c-4.465,0-8.06,3.621-8.06,8.085l0.026,11.894L108.071,196.562z"/>
	<path fill="#000000" d="M146.428,198.757c1.236,2.725,1.968,5.727,1.968,8.918c0,11.996-9.725,21.733-21.72,21.733   c-12.008,0-21.733-9.737-21.733-21.733c0-3.191,0.719-6.193,1.968-8.93H75.43v32.745c0,4.439,3.595,8.06,8.06,8.06h83.388   c4.453,0,8.085-3.62,8.085-8.06l0.025-32.732H146.428z"/>
</g>
<path fill="#000000" d="M126.704,191.881c-8.792,0-15.918,7.126-15.918,15.918s7.127,15.918,15.918,15.918  c8.791,0,15.918-7.127,15.918-15.918S135.494,191.881,126.704,191.881z M126.704,214.569c-3.739,0-6.771-3.031-6.771-6.77  s3.032-6.77,6.771-6.77s6.77,3.031,6.77,6.77S130.443,214.569,126.704,214.569z"/>
</svg>