<svg xmlns="http://www.w3.org/2000/svg" xmlns:xlink="http://www.w3.org/1999/xlink" version="1.1" x="0px" y="0px" width="100px" height="100px" viewBox="0 0 100 100" enable-background="new 0 0 100 100" xml:space="preserve">
<g id="Captions">
</g>
<g id="Your_Icon">
	<path d="M25.938,25.958C12.66,39.237,12.66,60.765,25.938,74.041c13.278,13.278,34.807,13.279,48.085,0   C87.3,60.765,87.3,39.237,74.021,25.958C60.743,12.68,39.216,12.682,25.938,25.958z M63.988,67.313   c-0.055,0.008-0.108,0.017-0.164,0.021c-0.101,0.01-0.205,0.015-0.313,0.015c-0.003,0.001-0.008,0-0.011,0H39.474   c-2.114,0-3.826-1.712-3.826-3.827c0-2.111,1.713-3.824,3.824-3.824l14.797,0.001L33.751,39.182c-1.493-1.494-1.494-3.917,0-5.412   c1.493-1.493,3.916-1.493,5.41,0.001l20.518,20.518V39.494c-0.002-2.112,1.712-3.826,3.827-3.826   c2.11,0.001,3.822,1.713,3.823,3.824l-0.001,24.031c0.001,0.115-0.005,0.223-0.017,0.328c-0.002,0.045-0.008,0.09-0.013,0.134   c-0.004,0.034-0.009,0.072-0.018,0.105c-0.115,0.782-0.47,1.534-1.072,2.138c-0.605,0.604-1.358,0.959-2.143,1.076   C64.041,67.309,64.015,67.31,63.988,67.313z"/>
</g>
</svg>