<svg xmlns="http://www.w3.org/2000/svg" xmlns:xlink="http://www.w3.org/1999/xlink" version="1.1" x="0px" y="0px" width="100px" height="100px" viewBox="0 0 100 100" enable-background="new 0 0 100 100" xml:space="preserve">
<g id="Captions">
</g>
<g id="Your_Icon">
	<path d="M74.042,74.042c13.277-13.28,13.277-34.807,0.001-48.084C60.765,12.68,39.237,12.679,25.959,25.959   c-13.277,13.277-13.277,34.804,0.002,48.084C39.237,87.32,60.764,87.317,74.042,74.042z M35.993,32.687   c0.054-0.007,0.108-0.017,0.165-0.021c0.101-0.01,0.205-0.015,0.313-0.015c0.003,0,0.008,0,0.011,0h24.024   c2.115,0,3.826,1.712,3.827,3.826c-0.001,2.111-1.714,3.824-3.824,3.824H45.712l20.518,20.516c1.494,1.495,1.494,3.918,0,5.411   c-1.492,1.493-3.915,1.493-5.41-0.002L40.303,45.71v14.797c0.001,2.111-1.713,3.825-3.826,3.826   c-2.111-0.002-3.822-1.714-3.824-3.824l0.001-24.031c-0.001-0.115,0.004-0.222,0.017-0.328c0.002-0.045,0.008-0.09,0.013-0.134   c0.004-0.035,0.009-0.073,0.019-0.105c0.114-0.782,0.469-1.534,1.07-2.139c0.606-0.604,1.358-0.958,2.144-1.075   C35.94,32.691,35.967,32.691,35.993,32.687z"/>
</g>
</svg>