<svg xmlns="http://www.w3.org/2000/svg" xmlns:xlink="http://www.w3.org/1999/xlink" version="1.1" x="0px" y="0px" width="100px" height="100px" viewBox="0 0 100 100" enable-background="new 0 0 100 100" xml:space="preserve">
<g id="Captions">
</g>
<g id="Your_Icon">
	<path d="M84,50.001C83.998,31.222,68.776,16,50,16c-18.778,0-34.001,15.221-34,34.001C16,68.777,31.222,83.999,50.002,84   C68.778,84.001,83.998,68.777,84,50.001z M27.853,47.662c0.033-0.042,0.064-0.088,0.103-0.131c0.063-0.078,0.134-0.155,0.211-0.231   c0.002-0.003,0.006-0.006,0.008-0.008l16.987-16.988c1.496-1.495,3.916-1.495,5.412,0c1.492,1.493,1.492,3.916,0,5.408   L40.109,46.175l29.015-0.001c2.114,0.001,3.827,1.714,3.826,3.826c0.001,2.111-1.712,3.824-3.826,3.824H40.108l10.463,10.463   c1.494,1.492,1.494,3.916,0,5.411c-1.494,1.491-3.914,1.491-5.408,0L28.172,52.705c-0.083-0.081-0.154-0.16-0.221-0.244   c-0.03-0.033-0.058-0.069-0.086-0.104c-0.021-0.027-0.045-0.058-0.062-0.088c-0.472-0.634-0.753-1.416-0.755-2.269   c0.002-0.855,0.283-1.638,0.755-2.276C27.818,47.703,27.837,47.685,27.853,47.662z"/>
</g>
</svg>