<svg xmlns="http://www.w3.org/2000/svg" xmlns:xlink="http://www.w3.org/1999/xlink" version="1.1" x="0px" y="0px" width="100px" height="100px" viewBox="0 0 100 100" enable-background="new 0 0 100 100" xml:space="preserve">
<g id="Captions">
</g>
<g id="Your_Icon">
	<path d="M50.021,15.959c-18.779,0.002-34.001,15.224-34.001,34c0,18.779,15.221,34.002,34.001,34.001   c18.776,0,33.998-15.222,33.999-34.002C84.021,31.181,68.798,15.961,50.021,15.959z M47.684,72.107   c-0.044-0.033-0.089-0.064-0.132-0.102c-0.078-0.064-0.155-0.135-0.231-0.212c-0.003-0.002-0.006-0.006-0.008-0.008L30.324,54.798   c-1.495-1.495-1.495-3.915,0-5.411c1.493-1.493,3.915-1.493,5.408,0L46.195,59.85l-0.001-29.015   c0.001-2.113,1.714-3.826,3.826-3.826c2.111,0,3.824,1.713,3.824,3.826v29.016l10.463-10.462c1.492-1.495,3.916-1.495,5.411,0   c1.491,1.494,1.491,3.914,0,5.407L52.726,71.788c-0.081,0.083-0.16,0.154-0.243,0.221c-0.033,0.03-0.07,0.058-0.104,0.086   c-0.027,0.021-0.058,0.045-0.088,0.062c-0.634,0.472-1.416,0.752-2.269,0.754c-0.856-0.002-1.639-0.282-2.276-0.754   C47.724,72.142,47.705,72.123,47.684,72.107z"/>
</g>
</svg>