<?xml version="1.0" encoding="utf-8"?>
<!-- Generator: Adobe Illustrator 14.0.0, SVG Export Plug-In . SVG Version: 6.00 Build 43363)  -->
<!DOCTYPE svg PUBLIC "-//W3C//DTD SVG 1.0//EN" "http://www.w3.org/TR/2001/REC-SVG-20010904/DTD/svg10.dtd">
<svg version="1.0" id="Layer_1" xmlns="http://www.w3.org/2000/svg" xmlns:xlink="http://www.w3.org/1999/xlink" x="0px" y="0px"
	 width="94.979px" height="100px" viewBox="0 0 94.979 100" enable-background="new 0 0 94.979 100" xml:space="preserve">
<path d="M91.039,55.502c-0.071,2.669-2.113,4.711-4.782,4.782c-2.669-0.071-4.711-2.113-4.783-4.782
	c-0.003-0.126-0.019-0.245-0.04-0.358c0.025-0.133,0.04-0.273,0.04-0.424c0-13.939,0-27.88,0-41.82
	c3.912-2.057,7.824-4.115,11.736-6.172C96.451,5.024,94.881,0,91.388,0c-17.673,0-35.346,0-53.02,0C26.782,0,15.196,0,3.61,0
	c-1.122,0-1.97,0.421-2.551,1.057C0.422,1.638,0,2.488,0,3.61c0,7.357,0,14.715,0,22.072c0,1.968,1.642,3.611,3.61,3.611
	c3.375,0,6.749,0,10.124,0C11.726,46.62,9.717,63.947,7.709,81.273c-0.584,5.039-1.168,10.078-1.752,15.116
	C5.73,98.349,7.771,100,9.568,100c2.14,0,3.384-1.655,3.61-3.61c0.16-1.38,0.32-2.761,0.48-4.141
	c6.387-5.598,12.774-11.195,19.161-16.793c6.343,5.559,12.686,11.118,19.029,16.678c0.044,0.038,0.088,0.077,0.132,0.115
	c0.16,1.38,0.319,2.761,0.48,4.141c0.226,1.955,1.471,3.61,3.61,3.61c1.796,0,3.837-1.65,3.61-3.61
	c-2.148-18.529-4.296-37.06-6.443-55.59c-0.476-4.101-0.951-8.202-1.426-12.302c0.026-0.013,0.053-0.025,0.08-0.039
	c8.548-4.496,17.096-8.991,25.644-13.487c0,13.22,0,26.439,0,39.66c0,0.029,0,0.06,0,0.089c0,0.125,0.012,0.241,0.03,0.354
	c-0.023,0.134-0.034,0.276-0.03,0.429c0.126,4.688,3.651,8.343,8.27,8.688c0.141,0.025,0.291,0.037,0.452,0.033
	c0.161,0.004,0.312-0.008,0.452-0.033c4.618-0.346,8.143-4.001,8.27-8.688C95.047,52.96,91.107,52.967,91.039,55.502z
	 M32.575,29.293c0.163,0,0.325,0,0.487,0c1.636,0,3.271,0,4.907,0c-1.717,1.516-3.434,3.033-5.15,4.549
	c-1.717-1.516-3.433-3.033-5.15-4.549c0.608,0,1.217,0,1.826,0C30.521,29.293,31.548,29.293,32.575,29.293z M20.568,32.637
	c2.269,2.004,4.539,4.009,6.808,6.014c-2.787,2.461-5.574,4.924-8.361,7.386c0.202-1.746,0.405-3.492,0.607-5.237
	C19.937,38.079,20.252,35.357,20.568,32.637z M32.819,43.458c4.246,3.751,8.492,7.501,12.738,11.252
	c-4.246,3.721-8.492,7.442-12.738,11.164c-4.246-3.722-8.492-7.443-12.738-11.164C24.327,50.959,28.573,47.209,32.819,43.458z
	 M38.262,38.65c2.27-2.004,4.539-4.009,6.808-6.014c0.518,4.466,1.035,8.933,1.553,13.4C43.836,43.574,41.049,41.112,38.262,38.65z
	 M14.895,81.584c0.766-6.608,1.532-13.217,2.297-19.825c3.387,2.969,6.774,5.938,10.161,8.905
	C23.2,74.305,19.047,77.945,14.895,81.584z M38.285,70.665c3.387-2.968,6.774-5.937,10.161-8.905
	c0.754,6.505,1.508,13.01,2.262,19.514c0.013,0.104,0.024,0.207,0.036,0.312C46.59,77.945,42.438,74.305,38.285,70.665z
	 M48.534,22.072c-0.22,0-0.439,0-0.659,0c-4.938,0-9.875,0-14.812,0c-0.162,0-0.324,0-0.487,0c-4.937,0-9.875,0-14.812,0
	c-3.514,0-7.028,0-10.542,0c0-4.951,0-9.901,0-14.851c16.47,0,32.939,0,49.409,0c6.714,0,13.429,0,20.143,0
	C67.359,12.171,57.946,17.122,48.534,22.072z"/>
</svg>
