<svg xmlns="http://www.w3.org/2000/svg" xmlns:xlink="http://www.w3.org/1999/xlink" version="1.1" x="0px" y="0px" width="100px" height="100px" viewBox="0 0 100 100" enable-background="new 0 0 100 100" xml:space="preserve">
<g id="Captions">
</g>
<g id="Your_Icon">
	<path d="M37.975,33.58c-0.098,0-0.191,0.005-0.28,0.012c-0.049,0.005-0.097,0.012-0.146,0.019c-0.024,0.003-0.046,0.006-0.071,0.01   c-0.696,0.102-1.366,0.418-1.903,0.954c-0.535,0.536-0.852,1.206-0.955,1.901c-0.005,0.03-0.01,0.063-0.013,0.094   c-0.004,0.04-0.011,0.078-0.013,0.119c-0.01,0.093-0.015,0.188-0.015,0.289V58.34c0,1.877,1.522,3.398,3.399,3.399   c1.878,0.001,3.401-1.521,3.399-3.399l0.001-13.152l18.239,18.237c1.326,1.328,3.48,1.328,4.807,0.001   c1.328-1.327,1.328-3.48-0.002-4.809L46.188,40.38h13.15c1.879,0,3.402-1.523,3.402-3.401s-1.523-3.399-3.4-3.399l-21.357-0.001   C37.98,33.58,37.978,33.578,37.975,33.58z"/>
	<path d="M74.043,73.042c13.277-13.277,13.275-34.806,0-48.084c-13.279-13.277-34.806-13.276-48.084,0   c-13.278,13.278-13.278,34.807,0,48.085C39.236,86.319,60.764,86.32,74.043,73.042z M30.768,29.766   c10.621-10.621,27.843-10.621,38.466,0c10.621,10.622,10.621,27.847,0,38.468c-10.623,10.623-27.846,10.622-38.466,0   C20.145,57.611,20.145,40.389,30.768,29.766z"/>
</g>
</svg>