<svg xmlns="http://www.w3.org/2000/svg" xmlns:xlink="http://www.w3.org/1999/xlink" version="1.1" x="0px" y="0px" width="100px" height="100px" viewBox="0 0 100 100" enable-background="new 0 0 100 100" xml:space="preserve">
<g id="Captions">
</g>
<g id="Your_Icon">
	<path d="M34.579,62.025c0,0.099,0.005,0.191,0.012,0.28c0.005,0.049,0.013,0.097,0.019,0.146c0.004,0.024,0.006,0.045,0.01,0.07   c0.103,0.696,0.419,1.366,0.955,1.903c0.536,0.535,1.206,0.852,1.901,0.954c0.03,0.006,0.062,0.01,0.093,0.013   c0.04,0.005,0.079,0.012,0.12,0.014c0.093,0.01,0.187,0.015,0.289,0.015H59.34c1.877,0,3.398-1.523,3.398-3.399   c0.002-1.878-1.52-3.4-3.399-3.399L46.188,58.62l18.236-18.238c1.329-1.327,1.329-3.48,0.002-4.808s-3.48-1.327-4.809,0.001   L41.38,53.812v-13.15c-0.001-1.879-1.523-3.401-3.401-3.402c-1.879,0-3.399,1.523-3.399,3.4l-0.001,21.357   C34.579,62.021,34.577,62.022,34.579,62.025z"/>
	<path d="M74.042,25.958c-13.277-13.278-34.807-13.277-48.085,0c-13.276,13.278-13.275,34.806,0.001,48.084   c13.277,13.277,34.806,13.277,48.085,0C87.319,60.764,87.32,39.236,74.042,25.958z M30.765,69.232   c-10.621-10.621-10.62-27.844,0-38.468c10.623-10.621,27.848-10.621,38.469,0c10.623,10.624,10.622,27.847,0,38.468   C58.611,79.855,41.388,79.855,30.765,69.232z"/>
</g>
</svg>