<svg xmlns="http://www.w3.org/2000/svg" xmlns:xlink="http://www.w3.org/1999/xlink" version="1.1" id="Layer_1" x="0px" y="0px" width="100px" height="100px" viewBox="0 0 100 100" enable-background="new 0 0 100 100" xml:space="preserve">
<path d="M8.864,43.74c0,0,4.502-17.687,22.332-24.236c17.727-6.513,32.017,12.119,26.318,29.664l9.322,4.792  c0,0,6.958-23.241-16.557-35.903c0,0-20.621-10.673-39.252,17.094c-1.267,1.628-17.582,32.397,9.496,45.492  c22.068,10.672,39.975-11.758,40.428-13.295l-8.857-4.615c0,0-13.688,15.987-26.145,14.021C15.641,75.125,3.075,68.159,8.864,43.74z  "/>
<path d="M54.124,27.236"/>
<path d="M18.474,44.978c0.903-3.014,10.763-27.919,35.65-17.741c0,0-9.09-15.511-28.625-4.115S7.624,55.792,8.314,59.931  c0.691,4.14,3.89,13.566,17.003,16.28C25.317,76.211,11.228,69.168,18.474,44.978z"/>
<path d="M57.425,35.603c0,0-12.301-4.522-16.732-1.538c0,0-3.437,4.522,20.531,17.455c23.967,12.934,31.474,7.869,31.474,7.869  c2.804-2.623-10.944-12.3-16.431-15.255c-4.279-2.304-5.999-3.195-8.622-4.281l-0.271-0.994c0,0,15.345,6.844,20.923,12.059  c0,0,6.512,4.914,7.084,8.622c0.573,3.708-3.949,12.331-9.737,13.145c0,0-12.873,0.211-22.972-5.005  c0,0-23.992-10.306-28.671-21.314c-1.537-3.617,2.921-12.542,4.884-13.476c1.906-0.906,4.348-2.172,18.359,1.99L57.425,35.603z"/>
<path d="M57.696,46.003c0,0,1.266-5.427,0-9.948c0,0-12.965-4.126-16.461-1.628c-1.898,1.356,7.235,8.682,7.235,8.682  S53.977,44.23,57.696,46.003z"/>
<path d="M67.916,50.254c0,0,0.542-4.612-0.091-9.768c0,0,19.047,8.659,24.691,17.636c1.363,2.169-9.303,1.715-10.575,0.993  C81.941,59.115,73.523,53.058,67.916,50.254z"/>
</svg>