<svg xmlns="http://www.w3.org/2000/svg" xmlns:xlink="http://www.w3.org/1999/xlink" version="1.1" id="Layer_1" x="0px" y="0px" width="100px" height="100px" viewBox="0 0 100 100" enable-background="new 0 0 100 100" xml:space="preserve">
<path d="M45.861,53.842l-0.152-0.074L30.241,46.29c-1.026,1.806-2.474,5.122-3.515,10.646c0.953,9.612,41.276,9.612,43.18,3.385  c-0.229-3.579-0.897-7.188-1.531-9.972l-22.347,3.467L45.861,53.842z"/>
<ellipse cx="48.788" cy="41.163" rx="1.896" ry="0.609"/>
<g>
	<path d="M91.894,45.674L51.547,30.84l-0.118-0.043l-0.126,0.013L9.604,35.201l-1.891,0.199l1.711,0.828l13.239,6.4l-0.004-0.302   c-0.006-0.437,0.336-0.801,0.773-0.823l22.608-1.083c0.367-0.019,0.676,0.204,0.796,0.524c0.561-0.75,3.982-0.678,3.982,0.22   c0,0.489-1.022,0.745-2.031,0.745c-0.813,0-1.634-0.167-1.922-0.487c-0.083,0.342-0.379,0.604-0.748,0.622l-21.824,1.045   l0.005,0.33l5.94,2.871c0.095-0.168,0.188-0.325,0.275-0.468l15.429,7.458l22.309-3.459c0.04,0.173,0.081,0.35,0.121,0.529   l23.414-3.632l2.069-0.321L91.894,45.674z"/>
	<path d="M22.725,46.925c-0.149-0.169-0.365-0.278-0.607-0.278c-0.002,0-0.004,0-0.007,0c-0.448,0.004-0.81,0.371-0.805,0.819   l0.271,33.709c0.003,0.446,0.366,0.807,0.812,0.807c0.002,0,0.004,0,0.007,0c0.448-0.005,0.81-0.371,0.805-0.819l-0.019-2.422   l0.019,1.356c0.007,0.445,0.37,0.801,0.813,0.801c0.003,0,0.007,0,0.011,0c0.042-0.001,0.082-0.008,0.121-0.014l0.002,0.693   c0.002,0.447,0.366,0.81,0.812,0.81c0.001,0,0.002,0,0.003,0c0.449-0.002,0.812-0.367,0.81-0.815L25.638,47.32   c-0.002-0.448-0.365-0.81-0.812-0.81c-0.001,0-0.002,0-0.004,0c-0.179,0.001-0.342,0.061-0.476,0.159L24.3,43.418l-1.637-0.791   L22.725,46.925z"/>
	<path d="M46.866,41.421c0.018-0.074,0.029-0.149,0.025-0.229c-0.004-0.088-0.025-0.171-0.055-0.249   c-0.05,0.067-0.08,0.14-0.08,0.22C46.757,41.258,46.796,41.344,46.866,41.421z"/>
</g>
</svg>