<svg xmlns="http://www.w3.org/2000/svg" xmlns:xlink="http://www.w3.org/1999/xlink" version="1.1" x="0px" y="0px" width="100px" height="100px" viewBox="0 0 100 100" enable-background="new 0 0 100 100" xml:space="preserve">
<g id="Captions">
	<rect x="-192" width="185" height="99"/>
	<rect y="-36" width="100" height="30"/>
	<text transform="matrix(1 0 0 1 66 -19.5)" fill="#000000" font-family="'Helvetica'" font-size="2.4">http://thenounproject.com</text>
	<text transform="matrix(1 0 0 1 7.166 -24.5)"><tspan x="0" y="0" fill="#000000" font-family="'Helvetica-Bold'" font-size="6.1578">The Noun Project</tspan><tspan x="1.12" y="4.8" fill="#000000" font-family="'Helvetica-Bold'" font-size="4">Icon Template</tspan></text>
	<text transform="matrix(1 0 0 1 -178.5 10.5)" fill="#000000" font-family="'Helvetica-Bold'" font-size="6.1578">Reminders</text>
	<line fill="#000000" stroke="#FFFFFF" stroke-miterlimit="10" x1="8" y1="-14.5" x2="18" y2="-14.5"/>
	<line fill="#000000" stroke="#FFFFFF" stroke-miterlimit="10" x1="-179" y1="16.5" x2="-162" y2="16.5"/>
	<g>
		<g>
			<g>
				<rect x="-170.802" y="31.318" fill="#000000" width="8.721" height="8.642"/>
				<path fill="#000000" d="M-164.455,42.312h4.747v-4.703h-4.747V42.312z M-159.266,42.749h-5.63V37.17h5.63V42.749      L-159.266,42.749z M-166.221,44.062h8.279v-8.203h-8.279V44.062L-166.221,44.062z M-157.5,44.5h-9.163v-9.079h9.163V44.5      L-157.5,44.5z"/>
				<polygon fill="#000000" points="-166.149,44.133 -166.292,43.991 -158.013,35.787 -157.871,35.929     "/>
			</g>
		</g>
	</g>
	<rect x="-179" y="58" fill="none" width="35" height="32.5"/>
	<text transform="matrix(1 0 0 1 -179 60.1299)"><tspan x="0" y="0" fill="#000000" font-family="'Helvetica-Bold'" font-size="3">Strokes</tspan><tspan x="0" y="5" fill="#000000" font-family="'Helvetica'" font-size="2.4">Try to keep strokes at 4px</tspan><tspan x="0" y="10" fill="#000000" font-family="'Helvetica'" font-size="2.4">Minimum stroke weight is 2px</tspan><tspan x="0" y="14.5" fill="#000000" font-family="'Helvetica'" font-size="2.4">For thicker strokes use even </tspan><tspan x="0" y="17.5" fill="#000000" font-family="'Helvetica'" font-size="2.4">numbers: 6px, 8px etc.</tspan><tspan x="0" y="22" fill="#000000" font-family="'Helvetica-Bold'" font-size="2.4">Remember to expand strokes </tspan><tspan x="0" y="25" fill="#000000" font-family="'Helvetica-Bold'" font-size="2.4">before saving as an SVG </tspan></text>
	<rect x="-136.5" y="58" fill="none" width="35" height="32.5"/>
	<text transform="matrix(1 0 0 1 -136.5 60.1299)"><tspan x="0" y="0" fill="#000000" font-family="'Helvetica-Bold'" font-size="3">Size</tspan><tspan x="0" y="5" fill="#000000" font-family="'Helvetica'" font-size="2.4">Cannot be wider or taller than </tspan><tspan x="0" y="8.5" fill="#000000" font-family="'Helvetica'" font-size="2.4">100px (artboar size)</tspan><tspan x="0" y="13.5" fill="#000000" font-family="'Helvetica'" font-size="2.4">Scale your icon to fill as much of </tspan><tspan x="0" y="16.5" fill="#000000" font-family="'Helvetica'" font-size="2.4">the Safe Area as possible (within </tspan><tspan x="0" y="19.5" fill="#000000" font-family="'Helvetica'" font-size="2.4">the guides)</tspan></text>
	<rect x="-94" y="58" fill="none" width="35" height="32.5"/>
	<text transform="matrix(1 0 0 1 -94 60.1299)"><tspan x="0" y="0" fill="#000000" font-family="'Helvetica-Bold'" font-size="3">Ungroup</tspan><tspan x="0" y="5" fill="#000000" font-family="'Helvetica'" font-size="2.4">If your design has more than one </tspan><tspan x="0" y="8" fill="#000000" font-family="'Helvetica'" font-size="2.4">shape, make sure to ungroup.</tspan></text>
	<rect x="-50" y="58" fill="none" width="35" height="32.5"/>
	<text transform="matrix(1 0 0 1 -50 60.1299)"><tspan x="0" y="0" fill="#000000" font-family="'Helvetica-Bold'" font-size="3">Save as</tspan><tspan x="0" y="5" fill="#000000" font-family="'Helvetica'" font-size="2.4">Save as .SVG and make sure &#8220;Use </tspan><tspan x="0" y="8" fill="#000000" font-family="'Helvetica'" font-size="2.4">Artboards&#8221; is checked.</tspan></text>
	<text transform="matrix(1.0074 0 0 1 -125.542 30.5933)" fill="#000000" font-family="'Helvetica'" font-size="2.5731">100px</text>
	<text transform="matrix(1.0074 0 0 1 -41 39)" fill="#000000" font-family="'Helvetica-Bold'" font-size="5.1462">.SVG</text>
	<rect x="-126.514" y="34.815" fill="#000000" width="10.261" height="10.185"/>
	<rect x="-126.477" y="31.766" fill="#000000" width="0.522" height="2.337"/>
	<rect x="-116.813" y="31.766" fill="#000000" width="0.523" height="2.337"/>
	<rect x="-127" y="32.337" fill="#000000" width="11.233" height="0.572"/>
	<g>
		<rect x="-83.805" y="33.844" fill="#000000" width="10.305" height="10.156"/>
		<rect x="-76.809" y="28.707" fill="#000000" width="3.308" height="3.261"/>
	</g>
	<rect x="-178.5" y="22.5" fill="#000000" stroke="#FFFFFF" stroke-miterlimit="10" width="30" height="30"/>
	<rect x="-136.5" y="22.5" fill="#000000" stroke="#FFFFFF" stroke-miterlimit="10" width="30" height="30"/>
	<rect x="-93.5" y="22.5" fill="#000000" stroke="#FFFFFF" stroke-miterlimit="10" width="30" height="30"/>
	<rect x="-49.5" y="22.5" fill="#000000" stroke="#FFFFFF" stroke-miterlimit="10" width="30" height="30"/>
</g>
<g id="Your_Icon">
	<path fill="#000000" stroke="#000000" stroke-width="3.2399" stroke-miterlimit="10" d="M69.747,24.004   C63.842,24.057,25.137,24,25.137,24c-0.847,0-1.531,0.429-1.531,0.96v52.348c0,0.53,0.684,0.96,1.531,0.96h49.287   c0.845,0,1.529-0.43,1.529-0.96c0,0,0.105-35.181,0-47.487C75.938,27.9,72.043,23.984,69.747,24.004z M68.107,45.292   c-1.157,0.896-35.5,0.922-36.444,0c-0.542-0.53-0.537-13.281,0-13.737c0.909-0.771,35.709-0.739,36.444,0   C68.637,32.087,68.651,44.873,68.107,45.292z"/>
	<g id="XMLID_3_">
		<g>
			<path fill="#000000" d="M69.224,69.682c0.485,0,0.886,0.714,0.886,1.589c0,0.88-0.4,1.594-0.886,1.594h-1.411     c-0.492,0-0.886-0.714-0.886-1.594c0-0.44,0.097-0.835,0.257-1.12c0.16-0.292,0.383-0.469,0.629-0.469H69.224z"/>
		</g>
		<g>
			<path fill="none" stroke="#000000" stroke-width="1.6199" stroke-miterlimit="10" d="M70.109,71.271     c0,0.88-0.4,1.594-0.886,1.594h-1.411c-0.492,0-0.886-0.714-0.886-1.594c0-0.44,0.097-0.835,0.257-1.12     c0.16-0.292,0.383-0.469,0.629-0.469h1.411C69.709,69.682,70.109,70.396,70.109,71.271z"/>
		</g>
	</g>
	<g id="XMLID_2_">
		<g>
			<path fill="#000000" d="M31.104,69.698c0.492,0.014,0.867,0.738,0.844,1.612c-0.023,0.879-0.436,1.583-0.927,1.57l-1.411-0.037     c-0.491-0.013-0.867-0.737-0.843-1.617c0.011-0.44,0.119-0.832,0.286-1.113c0.168-0.287,0.395-0.458,0.641-0.452L31.104,69.698z"/>
		</g>
		<g>
			<path fill="none" stroke="#000000" stroke-width="1.6199" stroke-miterlimit="10" d="M31.948,71.311     c-0.023,0.879-0.436,1.583-0.927,1.57l-1.411-0.037c-0.491-0.013-0.867-0.737-0.843-1.617c0.011-0.44,0.119-0.832,0.286-1.113     c0.168-0.287,0.395-0.458,0.641-0.452l1.411,0.037C31.596,69.712,31.971,70.437,31.948,71.311z"/>
		</g>
	</g>
	<g id="XMLID_1_">
		<g>
			<path d="M63.291,35.797c0.158,0.127,0.132,4.797,0,4.973c-0.044,0.053-2.759,0.066-2.829,0c-0.202-0.185-0.163-4.811,0-4.973     C60.532,35.727,63.172,35.709,63.291,35.797z"/>
		</g>
		<g>
			<path fill="none" stroke="#000000" stroke-width="2.4906" stroke-miterlimit="10" d="M60.462,35.797     c0.07-0.07,2.71-0.088,2.829,0c0.158,0.127,0.132,4.797,0,4.973c-0.044,0.053-2.759,0.066-2.829,0     C60.26,40.586,60.299,35.96,60.462,35.797z"/>
		</g>
	</g>
</g>
</svg>