<svg xmlns="http://www.w3.org/2000/svg" xmlns:xlink="http://www.w3.org/1999/xlink" version="1.1" id="Layer_1" x="0px" y="0px" width="98.0952380952px" height="100px" viewBox="0 0 103.333 105" enable-background="new 0 0 103.333 105" xml:space="preserve">
<g>
	<path fill="#000000" d="M25.342,94.696v-0.404c0,0,0.629-0.23,0.736-0.612c0.108-0.385-0.114-2.481-0.455-4.021   c-0.306-1.374-0.842-1.998-0.842-1.998v-1.035h5.092v1.035c0,0-0.536,0.624-0.841,1.998c-0.342,1.539-0.564,3.636-0.456,4.021   c0.106,0.382,0.736,0.612,0.736,0.612v0.404H25.342z"/>
	<g>
		<path fill="#000000" d="M21.753,25.01c0-1.624,2.047-2.074,2.047-2.074v56.131c0,0-2.047-0.45-2.047-2.074    C21.753,75.371,21.753,26.633,21.753,25.01z"/>
		<path fill="#000000" d="M30.854,25.69c0-1.11,0.9-2.01,2.01-2.01c1.109,0,2.011,0.9,2.011,2.01v50.113    c0,1.111-0.901,2.011-2.011,2.011c-1.11,0-2.01-0.899-2.01-2.011V25.69z"/>
		<path fill="#000000" d="M36.392,25.69c0-1.11,0.9-2.01,2.01-2.01s2.01,0.9,2.01,2.01v50.113c0,1.111-0.9,2.011-2.01,2.011    s-2.01-0.899-2.01-2.011V25.69z"/>
		<path fill="#000000" d="M41.93,25.69c0-1.11,0.899-2.01,2.009-2.01c1.111,0,2.01,0.9,2.01,2.01v50.113    c0,1.111-0.899,2.011-2.01,2.011c-1.11,0-2.009-0.899-2.009-2.011V25.69z"/>
		<path fill="#000000" d="M47.467,25.69c0-1.11,0.9-2.01,2.009-2.01c1.11,0,2.012,0.9,2.012,2.01v50.113    c0,1.111-0.901,2.011-2.012,2.011c-1.108,0-2.009-0.899-2.009-2.011V25.69z"/>
		<path fill="#000000" d="M53.004,25.69c0-1.11,0.899-2.01,2.011-2.01c1.109,0,2.009,0.9,2.009,2.01v50.113    c0,1.111-0.899,2.011-2.009,2.011c-1.111,0-2.011-0.899-2.011-2.011V25.69z"/>
		<path fill="#000000" d="M25.317,25.69c0-1.11,0.9-2.01,2.01-2.01c1.109,0,2.009,0.9,2.009,2.01v58.824h-4.02V25.69z"/>
		<path fill="#000000" d="M71.989,44.932c-1.996,0-3.767,0.963-4.872,2.45v0c0,0-0.003,0.004-0.004,0.006    c-0.063,0.084-0.123,0.171-0.181,0.259c-0.33,0.445-1.038,1.298-1.656,1.298c-0.837,0-3.056,0-3.671,0    c-0.882,0-1.018-1.123-1.018-1.123c0-11.451,0-22.068,0-22.812c0-1.624-2.047-2.074-2.047-2.074v56.131    c0,0,2.047-0.45,2.047-2.074c0-0.744,0-11.36,0-22.811c0,0,0.136-1.123,1.018-1.123c0.615,0,2.834,0,3.671,0    c0.618,0,1.326,0.852,1.656,1.297c0.058,0.088,0.117,0.175,0.181,0.26c0.001,0.001,0.004,0.005,0.004,0.005v0    c1.105,1.487,2.876,2.449,4.872,2.449c3.352,0,6.07-2.716,6.07-6.068C78.06,47.649,75.341,44.932,71.989,44.932z M67.258,49.519    c0.482-1.542,1.698-2.759,3.239-3.246c0.029-0.002,0.93-0.088,0.93,0.641c0,1.317,0,3.158,0,3.237    c0,0.125-0.091,0.198-0.091,0.198l0,0c-0.011,0.01-0.019,0.023-0.027,0.034c-0.031,0.026-0.089,0.064-0.17,0.064    c-0.08,0-1.921,0-3.236,0c-0.741,0-0.642-0.932-0.642-0.932L67.258,49.519z M71.435,55.09c0,0.741-0.932,0.64-0.932,0.64    l0.003,0.003c-1.541-0.483-2.759-1.699-3.245-3.239c-0.002-0.029-0.089-0.929,0.642-0.929c1.315,0,3.156,0,3.236,0    c0.123,0,0.196,0.088,0.197,0.089c0.011,0.01,0.022,0.018,0.032,0.027c0.027,0.031,0.066,0.088,0.066,0.171    C71.435,51.933,71.435,53.773,71.435,55.09z M72.545,46.914c0-0.742,0.931-0.64,0.931-0.64l-0.003-0.003    c1.541,0.483,2.759,1.698,3.245,3.239c0.003,0.019,0.094,0.93-0.64,0.93c-1.317,0-3.159,0-3.238,0    c-0.119,0-0.19-0.083-0.195-0.088c-0.011-0.011-0.023-0.019-0.035-0.029c-0.026-0.032-0.064-0.089-0.064-0.171    C72.545,50.072,72.545,48.23,72.545,46.914z M76.722,52.484c-0.482,1.542-1.699,2.76-3.24,3.246    c-0.026,0.003-0.929,0.089-0.929-0.64c0-1.317,0-3.158,0-3.237c0-0.125,0.09-0.198,0.09-0.198c0.01-0.01,0.019-0.023,0.028-0.034    c0.032-0.027,0.088-0.063,0.169-0.063c0.079,0,1.921,0,3.238,0c0.74,0,0.64,0.931,0.64,0.931L76.722,52.484z"/>
	</g>
</g>
</svg>