<svg xmlns="http://www.w3.org/2000/svg" xmlns:xlink="http://www.w3.org/1999/xlink" version="1.1" id="Ebene_1" x="0px" y="0px" width="70.7491082045px" height="100px" viewBox="0 0 595.28 841.89" enable-background="new 0 0 595.28 841.89" xml:space="preserve">
<path fill="#000000" d="M330.524,394.938h-64.797c-1.421,0-2.274,0.853-2.274,2.273v41.493c0,1.421,1.421,2.273,2.843,2.273h6.507  l-1.752,3.252c-0.281,0.516-0.085,1.163,0.433,1.442l3.281,1.768c0.519,0.283,1.164,0.088,1.445-0.431l3.251-6.031h51.063  c1.422,0,2.272-0.853,2.272-2.273v-41.493C332.797,395.792,331.946,394.938,330.524,394.938z M277.542,396.402  c0.905,0,1.638,0.734,1.638,1.639c0,0.904-0.733,1.638-1.638,1.638c-0.905,0-1.638-0.734-1.638-1.638  C275.904,397.136,276.637,396.402,277.542,396.402z M273.075,396.402c0.906,0,1.639,0.734,1.639,1.639  c0,0.904-0.732,1.638-1.639,1.638c-0.904,0-1.637-0.734-1.637-1.638C271.438,397.136,272.171,396.402,273.075,396.402z   M268.609,396.402c0.905,0,1.638,0.734,1.638,1.639c0,0.904-0.733,1.638-1.638,1.638c-0.905,0-1.638-0.734-1.638-1.638  C266.972,397.136,267.705,396.402,268.609,396.402z M328.542,437.744h-47.337l2.512-4.66l5.992,3.23  c0.322,0.176,0.712,0.167,1.032-0.012c0.318-0.18,0.524-0.515,0.539-0.879l0.92-21.61c0.02-0.403-0.191-0.778-0.545-0.979  c-0.379-0.258-0.785-0.175-1.12,0.053l-18.064,12.37c-0.306,0.206-0.48,0.562-0.46,0.933c0.017,0.375,0.229,0.706,0.556,0.881  l5.989,3.231l-4.01,7.441h-7.328v-29.45h61.324V437.744z M328.542,405.672h-61.324v-3.933h61.324V405.672z"/>
</svg>