<svg xmlns="http://www.w3.org/2000/svg" xmlns:xlink="http://www.w3.org/1999/xlink" version="1.1" id="Ebene_1" x="0px" y="0px" width="58.940397351px" height="100px" viewBox="0 0 89.04 151.391" enable-background="new 0 0 89.04 151.391" xml:space="preserve">
<g>
	<path fill="#000000" d="M44.554,128.084l26.858,23.307h6.643L46.44,42.962H42.6L10.985,151.39h6.705L44.554,128.084z    M72.659,147.175l-25.054-21.737l14.938-12.959L72.659,147.175z M59.872,103.315L47.738,93.64l7.552-6.036L59.872,103.315z    M51.956,76.168l-4.779-5.391l2.412-2.728L51.956,76.168z M44.521,50.667l3.744,12.843l-3.762,4.253l-3.737-4.217L44.521,50.667z    M39.442,68.084l2.391,2.697l-4.739,5.357L39.442,68.084z M44.507,73.795l8.98,10.129l-8.956,7.159l-8.982-7.162L44.507,73.795z    M33.751,87.603l7.576,6.041l-12.175,9.73L33.751,87.603z M44.534,96.202l15.979,12.741l-15.959,13.846l-15.959-13.847   L44.534,96.202z M26.512,112.43l14.99,13.006L16.359,147.25L26.512,112.43z"/>
	<g>
		<path fill="#000000" d="M62.54,44.52c0,4.56-1.721,8.71-4.521,11.89l-1.41-4.84c1.222-2.07,1.931-4.48,1.931-7.05    c0-7.73-6.289-14.011-14.021-14.011c-7.729,0-14.01,6.28-14.01,14.011c0,2.58,0.7,4.97,1.92,7.05l-1.41,4.84    c-2.8-3.18-4.51-7.33-4.51-11.89c0-9.931,8.08-18.011,18.01-18.011C54.45,26.51,62.54,34.59,62.54,44.52z"/>
		<path fill="#000000" d="M75.79,44.52c0,10.729-5.439,20.22-13.699,25.85l-1.182-4.07C67.51,61.32,71.79,53.41,71.79,44.52    c0-15.03-12.229-27.261-27.271-27.261c-15.03,0-27.27,12.23-27.27,27.261c0,8.89,4.279,16.8,10.89,21.779l-1.19,4.07    c-8.26-5.63-13.699-15.12-13.699-25.85c0-17.24,14.029-31.261,31.27-31.261S75.79,27.28,75.79,44.52z"/>
		<path fill="#000000" d="M62.54,44.52c0,4.56-1.721,8.71-4.521,11.89l-1.41-4.84c1.222-2.07,1.931-4.48,1.931-7.05    c0-7.73-6.289-14.011-14.021-14.011c-7.729,0-14.01,6.28-14.01,14.011c0,2.58,0.7,4.97,1.92,7.05l-1.41,4.84    c-2.8-3.18-4.51-7.33-4.51-11.89c0-9.931,8.08-18.011,18.01-18.011C54.45,26.51,62.54,34.59,62.54,44.52z"/>
		<path fill="#000000" d="M89.04,44.52c0,16.79-9.351,31.439-23.109,39.021l-1.15-3.95c12.1-7.021,20.26-20.101,20.26-35.07    C85.04,22.18,66.859,4,44.52,4S4,22.18,4,44.52c0,14.97,8.159,28.05,20.26,35.069l-1.15,3.95C9.35,75.96,0,61.31,0,44.52    C0,19.97,19.97,0,44.52,0S89.04,19.97,89.04,44.52z"/>
		<path fill="#000000" d="M62.54,44.52c0,4.56-1.721,8.71-4.521,11.89l-1.41-4.84c1.222-2.07,1.931-4.48,1.931-7.05    c0-7.73-6.289-14.011-14.021-14.011c-7.729,0-14.01,6.28-14.01,14.011c0,2.58,0.7,4.97,1.92,7.05l-1.41,4.84    c-2.8-3.18-4.51-7.33-4.51-11.89c0-9.931,8.08-18.011,18.01-18.011C54.45,26.51,62.54,34.59,62.54,44.52z"/>
		<path fill="#000000" d="M75.79,44.52c0,10.729-5.439,20.22-13.699,25.85l-1.182-4.07C67.51,61.32,71.79,53.41,71.79,44.52    c0-15.03-12.229-27.261-27.271-27.261c-15.03,0-27.27,12.23-27.27,27.261c0,8.89,4.279,16.8,10.89,21.779l-1.19,4.07    c-8.26-5.63-13.699-15.12-13.699-25.85c0-17.24,14.029-31.261,31.27-31.261S75.79,27.28,75.79,44.52z"/>
	</g>
</g>
</svg>