<svg xmlns="http://www.w3.org/2000/svg" xmlns:xlink="http://www.w3.org/1999/xlink" version="1.1" x="0px" y="0px" width="100px" height="100px" viewBox="0 0 100 100" enable-background="new 0 0 100 100" xml:space="preserve">
<g id="Captions">
</g>
<g id="Your_Icon">
	<path d="M24.838,37.314c-0.452,0.453-1.182,0.495-1.685,0.078c-0.532-0.441-0.606-1.231-0.165-1.765l5.809-7.005l7.055-5.858   c0.533-0.442,1.323-0.369,1.764,0.165c0.442,0.531,0.369,1.324-0.164,1.763l-6.876,5.71l-5.659,6.826   C24.892,37.259,24.866,37.288,24.838,37.314z"/>
	<path d="M26.637,29.365L15.609,18.338c-0.815-0.815-0.815-2.138,0-2.954c0.816-0.815,2.139-0.815,2.954,0L29.59,26.411l-1.674,1.28   L26.637,29.365z"/>
	<path d="M31.939,31.103l43.996,44.312c0.081,0.08,0.081,0.212,0,0.293c-0.083,0.082-0.216,0.082-0.296,0L31.357,31.672   l-1.743,2.049c0,0,49.425,48.242,51.094,49.915C82.379,85.304,85.226,85,85.226,85s0.307-2.843-1.366-4.517   S33.946,29.39,33.946,29.39L31.939,31.103z"/>
	<path d="M62.704,24.613c-0.45-0.451-0.493-1.182-0.076-1.684c0.441-0.534,1.231-0.606,1.765-0.166l7.005,5.809l5.859,7.056   c0.44,0.532,0.368,1.322-0.166,1.764c-0.53,0.443-1.322,0.369-1.762-0.164l-5.712-6.875l-6.826-5.66   C62.761,24.667,62.734,24.642,62.704,24.613z"/>
	<path d="M70.655,26.411l11.026-11.026c0.816-0.815,2.137-0.815,2.954,0c0.815,0.816,0.815,2.138,0,2.953L73.607,29.364   l-1.279-1.673L70.655,26.411z"/>
	<path d="M47.522,52.955L24.606,75.707c-0.081,0.083-0.214,0.083-0.296,0c-0.081-0.08-0.081-0.212,0-0.292L47.078,52.52   c-0.58-0.564-1.153-1.123-1.721-1.68c-13.25,13.572-28.058,28.734-28.971,29.644C14.717,82.153,15.021,85,15.021,85   s2.843,0.308,4.517-1.364c0.916-0.919,16.107-15.757,29.689-29.016C48.653,54.06,48.086,53.506,47.522,52.955z"/>
	<path d="M52.731,46.837l15.616-15.705l-2.047-1.743c0,0-6.759,6.922-15.303,15.673C51.568,45.647,52.146,46.239,52.731,46.837z"/>
	<path d="M54.911,49.069c8.773-8.566,15.722-15.348,15.722-15.348l-1.715-2.007L53.202,47.318   C53.767,47.897,54.335,48.48,54.911,49.069z"/>
</g>
</svg>