<svg xmlns="http://www.w3.org/2000/svg" xmlns:xlink="http://www.w3.org/1999/xlink" version="1.1" id="Layer_1" x="0px" y="0px" width="100px" height="100px" viewBox="0 0 100 100" enable-background="new 0 0 100 100" xml:space="preserve">
<g>
	<path fill="#000000" d="M91.443,41.166c1.617,0.84,2.635,2.232,2.504,3.713c-0.018,0.221-0.051,0.437-0.127,0.642   c0,0-0.174-2.426-2.883-3.837c0,0-0.494-0.286-0.129-0.539C91.076,40.954,91.443,41.166,91.443,41.166L91.443,41.166z    M90.672,37.423c1.619,0.84,2.639,2.233,2.51,3.715c-0.02,0.221-0.055,0.436-0.131,0.641c0,0-0.176-2.426-2.883-3.837   c0,0-0.492-0.286-0.131-0.539C90.309,37.211,90.672,37.423,90.672,37.423L90.672,37.423z M88.932,52.492   c1.621,0.841,2.637,2.232,2.506,3.715c-0.018,0.219-0.051,0.434-0.129,0.639c0,0-0.172-2.424-2.881-3.837   c0,0-0.494-0.282-0.131-0.538C88.568,52.279,88.932,52.492,88.932,52.492L88.932,52.492z M87.625,47.615   c1.619,0.842,2.637,2.232,2.508,3.715c-0.021,0.22-0.055,0.436-0.129,0.643c0,0-0.174-2.427-2.885-3.839   c0,0-0.492-0.285-0.129-0.54C87.262,47.403,87.625,47.615,87.625,47.615L87.625,47.615z M90.188,46.829   c1.617,0.842,2.637,2.232,2.506,3.712c-0.02,0.223-0.053,0.438-0.129,0.643c0,0-0.172-2.425-2.883-3.834   c0,0-0.49-0.286-0.131-0.541C89.824,46.616,90.188,46.829,90.188,46.829L90.188,46.829z M92.084,50.895   c-0.27,1.076-0.592,2.039-0.955,2.891c-0.189-0.262-0.412-0.512-0.662-0.739c0.402-1.019,0.748-2.204,1.014-3.557   c0.275,0.424,0.484,0.888,0.6,1.391L92.084,50.895L92.084,50.895z M92.945,44.177c-0.049,1.527-0.174,2.938-0.367,4.23   c-0.211-0.342-0.475-0.66-0.777-0.95c0.164-1.349,0.258-2.829,0.266-4.44C92.416,43.358,92.715,43.748,92.945,44.177L92.945,44.177   z M88.881,41.953c1.617,0.84,2.635,2.231,2.508,3.713c-0.021,0.221-0.055,0.437-0.131,0.642c0,0-0.174-2.425-2.885-3.837   c0,0-0.49-0.286-0.129-0.539C88.516,41.74,88.881,41.953,88.881,41.953L88.881,41.953z M10.978,41.953c0,0,0.365-0.213,0.637-0.021   c0.363,0.253-0.131,0.539-0.131,0.539c-2.709,1.412-2.881,3.837-2.881,3.837c-0.078-0.205-0.111-0.421-0.131-0.642   C8.341,44.185,9.361,42.793,10.978,41.953L10.978,41.953z M8.417,41.166c0,0,0.363-0.212,0.637-0.021   c0.359,0.253-0.131,0.539-0.131,0.539c-2.709,1.411-2.885,3.837-2.885,3.837c-0.074-0.205-0.107-0.421-0.127-0.642   C5.781,43.398,6.796,42.006,8.417,41.166L8.417,41.166z M9.185,37.423c0,0,0.365-0.212,0.637-0.021   c0.363,0.253-0.131,0.539-0.131,0.539c-2.709,1.411-2.883,3.837-2.883,3.837c-0.076-0.205-0.111-0.42-0.131-0.641   C6.55,39.656,7.568,38.263,9.185,37.423L9.185,37.423z M10.929,52.492c0,0,0.363-0.213,0.635-0.021   c0.361,0.256-0.129,0.538-0.129,0.538c-2.713,1.413-2.883,3.837-2.883,3.837c-0.078-0.205-0.113-0.42-0.133-0.639   C8.291,54.727,9.31,53.333,10.929,52.492L10.929,52.492z M12.234,47.615c0,0,0.365-0.212,0.637-0.021   c0.361,0.255-0.131,0.54-0.131,0.54c-2.711,1.412-2.883,3.839-2.883,3.839c-0.076-0.207-0.111-0.423-0.131-0.643   C9.597,49.848,10.613,48.457,12.234,47.615L12.234,47.615z M7.322,48.345c-0.191-1.299-0.318-2.715-0.359-4.251   c0.222-0.396,0.505-0.758,0.83-1.077c0.009,1.611,0.101,3.092,0.265,4.44C7.773,47.729,7.525,48.029,7.322,48.345L7.322,48.345z    M8.761,53.741c-0.369-0.864-0.697-1.849-0.963-2.947c0.121-0.47,0.322-0.908,0.58-1.306c0.266,1.353,0.611,2.538,1.012,3.557   C9.156,53.264,8.945,53.494,8.761,53.741L8.761,53.741z M9.671,46.829c0,0,0.363-0.213,0.637-0.021   c0.363,0.255-0.131,0.541-0.131,0.541c-2.709,1.41-2.883,3.834-2.883,3.834c-0.076-0.203-0.111-0.42-0.129-0.643   C7.037,49.062,8.05,47.671,9.671,46.829L9.671,46.829z M42.359,49.346c2.43,0.411,4.969,0.631,7.578,0.631   c2.625,0,5.176-0.22,7.618-0.638c-0.014-3.515,2.012-8.401,6.994-10.862c-0.955-3.522-1.516-7.777-1.516-12.359   c0-2.492,0.166-4.887,0.469-7.12c-0.518-0.061-1.064-0.103-1.645-0.123c-0.248,1.971-0.988,5.8-2.398,9.437   c-1.688,4.34-4.629,9.194-9.499,9.175c-4.877,0.028-7.828-4.832-9.51-9.175c-1.416-3.637-2.152-7.466-2.402-9.437   c-0.598,0.021-1.158,0.064-1.693,0.13c0.305,2.23,0.471,4.624,0.471,7.113c0,4.573-0.557,8.819-1.508,12.335   C40.339,40.908,42.378,45.821,42.359,49.346L42.359,49.346z M74.312,56.393c-0.014,0.254-0.043,0.506-0.088,0.748l1.598,0.582   c-0.029-0.81,0.555-1.783,1.594-2.498c1.039-0.711,2.252-0.979,3.137-0.758c3.268-0.697,4.777-14.408-4.65-16.075   c-14.234-2.519-18.148,7.926-17.131,12.319c0,0,0.781,2.553,1.701,3.191c0.602,0.416,1.176,0.83,1.729,1.236   c-0.031,0.203-0.055,0.406-0.062,0.611c-0.012,0.182-0.014,0.359-0.012,0.535c-0.602-0.46-1.234-0.926-1.904-1.396   c-2.615,1.307-4.93,3.652-5.941,6.332c-0.23,0.606-0.379,1.196-0.457,1.762l0.439,0.069c2.314,0.375,5.371,1.099,7.854,2.544   c2.709,1.575,4.389,3.764,4.539,6.557c0.367,0.074,0.742,0.137,1.143,0.176c1.258,0.133,2.58,0.102,3.807-0.26   c0.562-2.446,0.201-5.633-2.916-9.588c0.373-0.002,0.748-0.039,1.115-0.108c3.486,4.668,3.42,8.44,2.291,11.323   c-0.918,2.35-2.594,4.287-4.127,5.818c-0.777,0.779-1.496,1.434-2.027,1.961c-0.273,0.274-0.527,0.543-0.725,0.795   c-0.166,0.222-0.416,0.576-0.453,1.008c-0.057,0.647,0.24,1.162,0.602,1.525c0.346,0.35,0.807,0.623,1.275,0.85   c0.947,0.453,2.227,0.844,3.512,1.223c1.285,0.375,2.67,0.759,3.922,1.203c1.244,0.449,2.24,0.919,2.863,1.438   c0.471,0.389,0.648,0.657,0.707,0.795c-0.084,0.105-0.498,0.373-1.6,0.523c-2.09,0.282-5.133-0.079-6.879-0.921   c-0.924-0.444-1.539-0.825-2.055-1.177c-0.566-0.383-1.023-0.727-1.605-1.066c-1.248-0.732-2.945-1.393-6.766-2.247   c-0.4-0.157-0.512-0.321-0.518-0.339c0.01-0.029,0.062-0.113,0.252-0.294c9.803-9.573,8.381-15.328,3.162-18.368   c-2.33-1.355-5.252-2.059-7.525-2.426c-2.311-0.373-4.084-0.42-4.084-0.42s-1.771,0.047-4.084,0.42   c-2.273,0.367-5.195,1.068-7.525,2.426c-5.219,3.04-6.639,8.795,3.164,18.368c0.187,0.181,0.236,0.294,0.248,0.325   c-0.01,0.016-0.114,0.15-0.514,0.308c-3.82,0.854-5.52,1.515-6.766,2.247c-0.58,0.341-1.041,0.686-1.605,1.066   c-0.518,0.352-1.133,0.731-2.055,1.177c-1.748,0.842-4.791,1.203-6.881,0.921c-1.131-0.152-1.57-0.441-1.631-0.541   c0.055-0.132,0.271-0.389,0.742-0.777c0.619-0.519,1.617-0.986,2.862-1.438c1.25-0.444,2.636-0.828,3.921-1.203   c1.286-0.379,2.563-0.77,3.512-1.223c0.471-0.227,0.934-0.5,1.274-0.85c0.361-0.363,0.66-0.878,0.601-1.525   c-0.037-0.432-0.285-0.786-0.453-1.008c-0.193-0.252-0.449-0.521-0.723-0.795c-0.531-0.527-1.25-1.182-2.029-1.961   c-1.533-1.531-3.207-3.47-4.127-5.818c-1.123-2.877-1.195-6.641,2.271-11.293c0.373,0.062,0.752,0.091,1.131,0.086   c-3.104,3.945-3.475,7.128-2.909,9.568c1.231,0.371,2.571,0.403,3.844,0.271c0.389-0.039,0.748-0.095,1.102-0.167   c0.152-2.803,1.828-4.987,4.543-6.564c2.48-1.445,5.539-2.169,7.855-2.544l0.33-0.053c-0.074-0.576-0.222-1.188-0.443-1.778   c-1.006-2.66-3.295-4.994-5.889-6.304c-0.711,0.501-1.381,0.994-2.017,1.478c0.007-0.209,0.007-0.42-0.006-0.636   c-0.008-0.177-0.022-0.351-0.049-0.521c0.59-0.441,1.209-0.889,1.858-1.338c0.806-0.562,1.564-3.191,1.564-3.191   c1.01-4.394-2.906-14.838-17.139-12.319c-9.428,1.667-7.918,15.377-4.65,16.075c0.883-0.221,2.096,0.046,3.137,0.758   c1.041,0.717,1.627,1.694,1.594,2.506l1.597-0.58c-0.043-0.244-0.076-0.496-0.088-0.754c-0.171-3.187,2.28-5.899,5.469-6.071   c3.188-0.165,5.906,2.28,6.072,5.471c0.17,3.188-2.279,5.906-5.468,6.073c-2.188,0.111-4.153-1.002-5.227-2.744l-2.238,0.812   c0.793,1.545,0.775,3.017-0.18,3.67c-0.904,0.625-2.412,0.349-3.854-0.576c-1.664,1.182-4.019,1.404-6.01,0.561l-2.646,0.962   c0.03,0.204,0.053,0.411,0.063,0.62c0.166,3.188-2.279,5.906-5.467,6.071c-3.189,0.168-5.908-2.282-6.074-5.47   c-0.17-3.187,2.279-5.904,5.465-6.072c2.238-0.116,4.24,1.052,5.297,2.855l1.304-0.472c-1.334-1.59-2.319-4.272-2.334-6.423   c-0.074-0.118-0.149-0.242-0.226-0.366c0.158-0.267,0.345-0.512,0.554-0.737c0.123,0.225,0.252,0.439,0.385,0.644l0.138,0.207v0.25   c0.012,2.46,1.436,5.606,2.934,6.637c1.879,1.292,4.443,1.24,6.127,0.043l0.469-0.333l0.48,0.311   c1.379,0.884,2.463,0.906,2.918,0.594c0.467-0.321,0.742-1.661-0.732-3.583l-0.543-0.706l0.734-0.505   c0.047-0.029,0.082-0.062,0.111-0.097c0.182-0.205,0.293-1.137-1.105-2.102c-0.893-0.611-1.859-0.779-2.451-0.631l-0.189,0.047   l-0.19-0.041c-4.679-0.999-5.149-15.998,4.68-17.737c4.271-0.754,7.707-0.388,10.404,0.676c0.937-3.426,1.487-7.6,1.487-12.115   c0-2.516-0.172-4.932-0.487-7.176c-2.636,0.485-4.498,1.492-6.062,2.615c-0.883,0.639-1.668,1.311-2.432,1.947   c-0.777,0.646-1.57,1.291-2.432,1.825c-7.519,4.64-11.604,5.659-13.883,7.003c-1.484,0.877-2.092,1.817-2.418,5.318   c-0.353,0.271-0.664,0.573-0.924,0.899c0.657-9.289,2.688-5.242,16.776-13.942c3.688-2.278,6.246-6.874,15.133-6.822   c0.062,2.151,2.767,18.672,10.931,18.625c8.165,0.047,10.87-16.474,10.928-18.625c8.885-0.052,11.443,4.544,15.133,6.822   c14.121,8.722,16.131,4.633,16.783,14.012c-0.271-0.356-0.604-0.68-0.98-0.969c-0.326-3.501-0.934-4.441-2.416-5.318   c-2.281-1.344-6.367-2.363-13.885-7.003c-0.863-0.534-1.654-1.179-2.434-1.825c-0.762-0.637-1.547-1.309-2.434-1.947   c-1.557-1.123-3.422-2.13-6.057-2.615c-0.318,2.244-0.486,4.66-0.486,7.176c0,4.516,0.551,8.689,1.488,12.115   c2.699-1.063,6.129-1.43,10.402-0.676c9.832,1.739,9.355,16.738,4.68,17.737l-0.191,0.041l-0.189-0.047   c-0.59-0.148-1.557,0.02-2.451,0.631c-1.4,0.965-1.287,1.896-1.102,2.102c0.027,0.033,0.064,0.066,0.107,0.097l0.732,0.505   l-0.541,0.706c-1.473,1.922-1.201,3.262-0.732,3.583c0.455,0.312,1.539,0.29,2.918-0.594l0.482-0.311l0.465,0.333   c1.686,1.197,4.25,1.249,6.131-0.043c1.498-1.03,2.92-4.177,2.932-6.637v-0.25l0.137-0.207c0.131-0.203,0.26-0.419,0.387-0.644   c0.217,0.236,0.412,0.498,0.578,0.776c-0.07,0.114-0.137,0.222-0.205,0.327c-0.012,2.146-0.998,4.826-2.324,6.417l1.291,0.472   c1.062-1.807,3.062-2.977,5.297-2.855c3.189,0.166,5.639,2.884,5.471,6.072c-0.168,3.188-2.889,5.635-6.074,5.471   c-3.189-0.168-5.641-2.889-5.473-6.076c0.014-0.209,0.033-0.417,0.066-0.618l-2.635-0.958c-1.996,0.848-4.352,0.629-6.018-0.557   c-1.443,0.925-2.951,1.201-3.855,0.576c-0.957-0.655-0.971-2.129-0.176-3.672l-2.242-0.818c-1.07,1.742-3.039,2.857-5.229,2.744   c-3.188-0.166-5.633-2.887-5.467-6.071c0.17-3.192,2.885-5.639,6.074-5.469C72.031,50.484,74.48,53.202,74.312,56.393   L74.312,56.393z M55.283,15.805c-0.434-0.035-0.971,0.003-1.557,0.115c0.059,0.073,0.1,0.161,0.119,0.262   c0.055,0.315-0.156,0.618-0.475,0.672c-0.314,0.058-0.617-0.153-0.672-0.47c-0.016-0.068-0.014-0.136,0-0.2   c-0.475,0.15-0.9,0.331-1.27,0.525l-0.309-0.341c0.344-0.307,1.127-0.729,1.678-0.888C53.826,15.186,54.814,15.337,55.283,15.805   L55.283,15.805z M52.381,17.336c0.326,0.169,0.793,0.273,1.311,0.273c0.26,0,0.508-0.026,0.73-0.074   c-0.203,0.181-0.549,0.3-0.943,0.3C52.951,17.835,52.508,17.622,52.381,17.336L52.381,17.336z M44.839,15.805   c0.467-0.468,1.457-0.619,2.484-0.324c0.551,0.158,1.332,0.581,1.676,0.888l-0.312,0.341c-0.362-0.194-0.791-0.375-1.265-0.525   c0.013,0.064,0.013,0.132,0,0.2c-0.055,0.316-0.356,0.527-0.672,0.47c-0.317-0.054-0.528-0.356-0.475-0.672   c0.018-0.101,0.059-0.188,0.119-0.262C45.814,15.808,45.275,15.77,44.839,15.805L44.839,15.805z M47.746,17.336   c-0.129,0.286-0.572,0.499-1.1,0.499c-0.395,0-0.744-0.119-0.947-0.3c0.225,0.048,0.475,0.074,0.736,0.074   C46.953,17.609,47.416,17.505,47.746,17.336L47.746,17.336z M41.435,13.852c-0.457,0.391-0.375,1.439,0.182,2.342   c0.4,0.652,0.937,1.051,1.379,1.075c-0.035,0.285-0.062,0.581-0.09,0.886c-0.127,1.387,1.498,0.908,1.129,1.815   c-0.039,0.1-0.143,0.299-0.262,0.566c-0.549,0.005-1.117-0.062-1.699-0.245c0.06-0.704,0.119-1.43,0.162-2.168l0.004-0.05   c-0.789-0.934-1.416-2.157-1.637-3.166c-0.326-1.529,0.504-2.685,2.098-1.576c0.082,0.055,0.162,0.117,0.24,0.182   c0.057-0.232,0.111-0.453,0.166-0.668c-0.229-1.512-1.342-2.474-1.32-2.517c0.588-1.242,3.25-2.135,4.652-2.123   c0.164-0.051,0.33-0.091,0.502-0.122c0.871-0.729,1.984-1.165,3.201-1.165c1.237,0,2.37,0.453,3.249,1.208   c0.102,0.024,0.199,0.05,0.295,0.079c1.402-0.014,4.066,0.88,4.656,2.123c0.02,0.043-1.096,1.008-1.32,2.524   c0.053,0.211,0.105,0.432,0.158,0.66c0.082-0.064,0.16-0.127,0.244-0.182c1.592-1.108,2.422,0.047,2.096,1.576   c-0.215,1.009-0.846,2.232-1.637,3.166l0.006,0.05c0.041,0.738,0.105,1.464,0.16,2.168c-0.58,0.183-1.15,0.251-1.699,0.246   c-0.119-0.269-0.221-0.468-0.264-0.567c-0.363-0.907,1.26-0.429,1.133-1.815c-0.029-0.305-0.059-0.601-0.09-0.887   c0.438-0.033,0.969-0.429,1.365-1.074c0.557-0.902,0.639-1.951,0.182-2.342c-0.455-0.391-1.275,0.025-1.832,0.929l-0.057,0.097   c-0.482-2.623-1.182-4.134-2.078-5.009c0.311,0.67,0.484,1.419,0.484,2.211c0,0.645-0.113,1.263-0.326,1.834   c-0.484-1.134-1.236-2.149-2.191-2.987c0.004,0.062,0.006,0.122,0.006,0.186c0,0.414-0.076,0.812-0.209,1.179   c-0.803-1.869-2.739-3.242-5.063-3.454c-1.901,0.418-3.287,1.723-4.078,6.057l-0.063-0.112   C42.712,13.877,41.89,13.461,41.435,13.852L41.435,13.852z M50.062,21.927c0,0-2.717,1.347-5.863,0.462   c-2.615-0.734-3.654-2.53-3.654-2.53s2.691,1.74,5.168,0.692c3.744-1.584,4.351,0.203,4.351,0.203s0.603-1.787,4.347-0.203   c2.479,1.048,5.172-0.692,5.172-0.692s-1.041,1.796-3.654,2.53C52.777,23.273,50.062,21.927,50.062,21.927L50.062,21.927z    M43.197,22.321c-0.229,1.374,0.086,2.965,2.445,3.726c0.076,0.018,0.154,0.036,0.227,0.055c2.129,0.548,3.406-0.827,3.66-2.1   l0.004-0.035l0.012-0.039l0.007-0.043l0.008-0.041l0.002-0.033l0.004-0.048l0.009-0.11c-0.171-0.027-0.33-0.063-0.48-0.11   c-0.49-0.154-0.883-0.409-1.096-0.719c-0.021-0.026-0.035-0.055-0.054-0.081c0.062,0.02,0.115,0.04,0.181,0.059   c0.545,0.169,1.262,0.271,2.043,0.271c0.743,0,1.424-0.092,1.958-0.245c0.105-0.03,0.209-0.063,0.303-0.098   c-0.129,0.232-0.361,0.44-0.658,0.604l-0.031,0.017l-0.037,0.02l-0.035,0.018l-0.033,0.016l-0.09,0.039   c-0.109,0.047-0.203,0.079-0.301,0.108l-0.09,0.026L51.061,23.6l-0.094,0.021l-0.111,0.021c-0.096,0.018-0.193,0.03-0.293,0.042   c0.025,0.416,0.172,0.863,0.426,1.265c0.568,0.896,1.682,1.562,3.275,1.153l0.201-0.049c2.375-0.76,2.695-2.354,2.465-3.731   c0.469-0.199,0.877-0.431,1.223-0.667c0.268,4.402-0.299,7.718-8.088,7.76c-7.791-0.042-8.354-3.358-8.088-7.76   C42.32,21.89,42.726,22.122,43.197,22.321L43.197,22.321z"/>
</g>
</svg>