<svg xmlns="http://www.w3.org/2000/svg" xmlns:xlink="http://www.w3.org/1999/xlink" version="1.1" id="Layer_1" x="0px" y="0px" width="100px" height="100px" viewBox="0 0 100 100" enable-background="new 0 0 100 100" xml:space="preserve">
<g>
	<path fill="#000000" d="M42.022,21.653c-0.269,4.403,0.298,7.718,8.089,7.76c7.788-0.042,8.352-3.358,8.086-7.76   c-0.349,0.235-0.752,0.468-1.224,0.667c0.232,1.377-0.086,2.971-2.463,3.731L54.31,26.1c-2.31,0.594-3.619-1.074-3.7-2.418   c0.163-0.017,0.32-0.043,0.475-0.078c0.084-0.019,0.164-0.044,0.242-0.068c0.145-0.045,0.279-0.099,0.428-0.173l0.068-0.034   l0.034-0.021c0.223-0.126,0.404-0.278,0.531-0.449c0.031-0.042,0.059-0.086,0.084-0.131c-0.092,0.034-0.192,0.068-0.295,0.098   c-0.539,0.153-1.219,0.245-1.959,0.245c-0.785,0-1.502-0.102-2.047-0.271c-0.062-0.021-0.121-0.039-0.18-0.059   c0.246,0.424,0.812,0.758,1.526,0.893l0.035,0.007l0.033,0.006l0.033,0.005c-0.066,1.351-1.375,3.048-3.701,2.449   c-0.073-0.019-0.151-0.037-0.229-0.055c-2.358-0.761-2.674-2.352-2.444-3.726C42.772,22.121,42.371,21.888,42.022,21.653z"/>
	<path fill="#000000" d="M42.291,18.075l-0.008,0.05c-0.043,0.738-0.104,1.464-0.158,2.168c0.58,0.183,1.146,0.25,1.697,0.245   c0.121-0.267,0.223-0.466,0.264-0.566c0.363-0.907-1.26-0.428-1.133-1.815c0.028-0.305,0.059-0.601,0.09-0.886   c-0.44-0.024-0.979-0.423-1.379-1.075c-0.555-0.903-0.639-1.951-0.185-2.342c0.457-0.39,1.279,0.026,1.834,0.929l0.068,0.112   c0.787-4.334,2.174-5.639,4.076-6.057c2.323,0.212,4.258,1.585,5.057,3.454c0.138-0.367,0.213-0.765,0.213-1.179   c0-0.064-0.002-0.124-0.006-0.186c0.955,0.838,1.707,1.853,2.193,2.987c0.213-0.571,0.328-1.189,0.328-1.834   c0-0.792-0.175-1.541-0.484-2.211c0.896,0.875,1.596,2.386,2.076,5.009l0.057-0.097c0.558-0.904,1.377-1.32,1.832-0.929   c0.459,0.391,0.375,1.44-0.18,2.342c-0.396,0.645-0.929,1.041-1.365,1.074c0.029,0.286,0.06,0.582,0.086,0.887   c0.127,1.386-1.496,0.908-1.129,1.815c0.039,0.099,0.14,0.298,0.262,0.567c0.551,0.005,1.117-0.063,1.701-0.245   c-0.058-0.704-0.121-1.43-0.162-2.168l-0.006-0.05c0.791-0.934,1.42-2.157,1.635-3.166c0.328-1.529-0.502-2.684-2.096-1.576   c-0.08,0.055-0.164,0.118-0.242,0.182c-0.051-0.228-0.106-0.449-0.162-0.66c0.229-1.516,1.345-2.481,1.324-2.524   c-0.592-1.243-3.254-2.137-4.656-2.123c-0.098-0.029-0.194-0.055-0.29-0.079c-0.88-0.755-2.017-1.208-3.255-1.208   c-1.217,0-2.329,0.436-3.2,1.165c-0.17,0.031-0.339,0.071-0.5,0.122c-1.402-0.012-4.066,0.881-4.654,2.123   c-0.021,0.043,1.093,1.005,1.32,2.517c-0.056,0.215-0.109,0.436-0.162,0.668c-0.078-0.065-0.16-0.127-0.242-0.182   c-1.592-1.109-2.426,0.047-2.096,1.576C40.867,15.918,41.498,17.141,42.291,18.075z"/>
	<path fill="#000000" d="M59.625,19.859c0,0-2.689,1.74-5.168,0.692c-3.744-1.584-4.346,0.203-4.346,0.203s-0.606-1.787-4.349-0.203   c-2.479,1.048-5.17-0.692-5.17-0.692s1.039,1.796,3.65,2.53c3.146,0.885,5.867-0.462,5.867-0.462s2.717,1.346,5.864,0.462   C58.588,21.655,59.625,19.859,59.625,19.859z"/>
	<path fill="#000000" d="M45.747,17.535c0.203,0.181,0.552,0.3,0.947,0.3c0.527,0,0.971-0.213,1.098-0.499   c-0.326,0.169-0.795,0.273-1.313,0.273C46.22,17.609,45.974,17.583,45.747,17.535z"/>
	<path fill="#000000" d="M52.845,15.48c-0.551,0.159-1.334,0.581-1.674,0.888l0.309,0.341c0.368-0.194,0.791-0.375,1.269-0.525   c-0.017,0.064-0.017,0.132,0,0.2c0.053,0.317,0.354,0.528,0.672,0.47c0.317-0.054,0.528-0.357,0.471-0.672   c-0.017-0.101-0.06-0.189-0.116-0.262c0.586-0.112,1.118-0.15,1.557-0.115C54.86,15.337,53.876,15.186,52.845,15.48z"/>
	<path fill="#000000" d="M49.05,16.369c-0.348-0.307-1.131-0.73-1.678-0.888c-1.029-0.295-2.018-0.144-2.484,0.324   c0.436-0.035,0.975,0.003,1.559,0.116c-0.061,0.074-0.102,0.161-0.121,0.262c-0.053,0.316,0.156,0.618,0.475,0.672   c0.315,0.057,0.615-0.154,0.674-0.47c0.011-0.068,0.011-0.136,0-0.2c0.47,0.15,0.901,0.331,1.265,0.525L49.05,16.369z"/>
	<path fill="#000000" d="M52.429,17.336c0.129,0.286,0.57,0.499,1.095,0.499c0.396,0,0.743-0.119,0.946-0.3   c-0.222,0.048-0.468,0.074-0.729,0.074C53.222,17.609,52.757,17.505,52.429,17.336z"/>
</g>
<path fill="#000000" d="M94.447,59.695c-2.233-0.12-4.238,1.05-5.297,2.856l-1.293-0.472c1.195-1.431,2.108-3.738,2.292-5.753h0.002  c0.019-0.218,0.028-0.435,0.03-0.642l0.131-0.205c1.763-2.72,3.005-7.702,2.671-14.854c-0.065-1.377-0.156-2.496-0.257-3.426  c-0.021-0.212-0.045-0.415-0.071-0.61c-0.867-6.771-3.613-3.967-16.588-11.982c-3.696-2.278-6.252-6.874-15.14-6.822  c-0.058,2.145-2.746,18.576-10.854,18.625c-8.109-0.049-10.798-16.48-10.857-18.625c-8.885-0.052-11.446,4.544-15.135,6.822  C11.105,32.622,8.354,29.819,7.487,36.59c-0.023,0.195-0.047,0.398-0.068,0.61c-0.102,0.93-0.192,2.049-0.258,3.426  C6.827,47.779,8.071,52.76,9.833,55.48l0.129,0.205c0.002,0.206,0.011,0.418,0.031,0.635H9.992c0.18,1.998,1.082,4.294,2.264,5.728  l-1.408,0.511c-1.057-1.804-3.062-2.972-5.295-2.855c-3.188,0.168-5.637,2.886-5.467,6.072c0.166,3.188,2.884,5.638,6.07,5.47  c3.191-0.165,5.637-2.884,5.469-6.071c-0.009-0.209-0.031-0.416-0.062-0.619l2.723-0.99c2.01,0.875,4.392,0.666,6.074-0.532  c1.44,0.925,2.946,1.2,3.854,0.575c0.963-0.66,0.968-2.15,0.154-3.713l2.119-0.77c1.074,1.742,3.039,2.855,5.227,2.744  c3.012-0.157,5.364-2.592,5.473-5.545l0.001-0.004c0.007-0.172,0.007-0.35-0.004-0.525c-0.168-3.191-2.888-5.636-6.075-5.471  c-3.16,0.17-5.596,2.842-5.472,5.998h-0.001c0,0.023,0,0.052,0.002,0.074c0.017,0.258,0.045,0.51,0.09,0.754l-1.452,0.529  c0.004-0.431-0.162-0.902-0.472-1.355l0.002-0.002c-0.066-0.097-0.159-0.188-0.239-0.283v-0.023h-0.02  c-0.24-0.281-0.516-0.555-0.865-0.793c-1.041-0.712-2.252-0.979-3.137-0.758c-3.268-0.697-4.778-14.408,4.648-16.075  c14.237-2.519,18.15,7.925,17.133,12.319c0,0-0.783,2.552-1.701,3.191c-0.652,0.449-1.269,0.895-1.854,1.338  c0.021,0.17,0.038,0.341,0.049,0.521c0.01,0.191,0.012,0.378,0.006,0.562l-0.003,0.003c-0.11,4.229-4,6.674-7.552,6.079  c-3.464,4.654-3.394,8.418-2.271,11.293c0.92,2.35,2.596,4.287,4.127,5.82c0.779,0.778,1.5,1.433,2.029,1.961  c0.273,0.273,0.529,0.543,0.721,0.795c0.172,0.221,0.418,0.576,0.457,1.008c0.058,0.646-0.243,1.162-0.602,1.525  c-0.348,0.348-0.807,0.622-1.277,0.85c-0.946,0.451-2.223,0.843-3.512,1.222c-1.283,0.375-2.67,0.759-3.92,1.203  c-1.244,0.45-2.24,0.919-2.863,1.437c-0.469,0.391-0.65,0.658-0.707,0.795c0.084,0.106,0.496,0.375,1.6,0.524  c2.086,0.282,5.131-0.079,6.879-0.921c0.922-0.445,1.535-0.825,2.052-1.176c0.565-0.383,1.026-0.727,1.606-1.067  c1.25-0.731,2.948-1.394,6.769-2.247c0.398-0.158,0.508-0.32,0.518-0.339c-0.01-0.03-0.066-0.112-0.254-0.294  c-9.801-9.573-8.381-15.328-3.16-18.368c2.33-1.356,5.25-2.059,7.525-2.426c2.309-0.373,4.084-0.42,4.084-0.42  s1.774,0.047,4.084,0.42c2.274,0.367,5.192,1.069,7.522,2.426c5.222,3.04,6.644,8.795-3.162,18.368  c-0.186,0.182-0.239,0.264-0.254,0.294c0.013,0.019,0.124,0.181,0.521,0.339c3.818,0.854,5.52,1.516,6.768,2.247  c0.58,0.34,1.041,0.685,1.607,1.067c0.516,0.351,1.133,0.732,2.051,1.176c1.748,0.842,4.791,1.203,6.881,0.921  c1.101-0.149,1.517-0.418,1.601-0.524c-0.06-0.137-0.236-0.404-0.707-0.795c-0.623-0.518-1.619-0.986-2.865-1.437  c-1.25-0.444-2.637-0.828-3.92-1.203c-1.287-0.379-2.565-0.771-3.513-1.222c-0.47-0.228-0.931-0.502-1.276-0.85  c-0.362-0.363-0.659-0.879-0.601-1.525c0.039-0.432,0.285-0.787,0.453-1.008c0.196-0.252,0.45-0.521,0.724-0.795  c0.53-0.528,1.25-1.183,2.028-1.961c1.529-1.533,3.209-3.47,4.125-5.82c1.131-2.881,1.197-6.654-2.289-11.322  c-3.582,0.671-7.562-1.777-7.674-6.05l0.002-0.005c-0.008-0.183-0.004-0.375,0.004-0.569c0.014-0.205,0.035-0.408,0.064-0.61  c-0.551-0.406-1.123-0.82-1.723-1.238c-0.921-0.637-1.703-3.19-1.703-3.19c-1.018-4.393,2.896-14.838,17.131-12.319  c9.427,1.667,7.918,15.376,4.649,16.075c-0.885-0.221-2.096,0.046-3.135,0.759c-0.479,0.325-0.856,0.705-1.127,1.099h-0.001  c-0.321,0.469-0.487,0.959-0.467,1.397l-1.601-0.582c0.046-0.242,0.076-0.492,0.089-0.746c0.002-0.024,0.004-0.05,0.004-0.069V56.32  c0.129-3.155-2.312-5.838-5.474-6c-3.188-0.17-5.905,2.278-6.073,5.469c-0.011,0.178-0.011,0.354-0.002,0.531h-0.002  c0.115,2.953,2.463,5.383,5.471,5.539c2.186,0.115,4.15-1.002,5.227-2.743l2.242,0.819c-0.793,1.541-0.781,3.016,0.174,3.67  c0.908,0.625,2.412,0.35,3.855-0.576c1.668,1.187,4.021,1.406,6.02,0.558l2.635,0.958c-0.03,0.201-0.056,0.409-0.063,0.618  c-0.17,3.187,2.281,5.907,5.469,6.077c3.186,0.164,5.906-2.284,6.072-5.473C100.08,62.58,97.633,59.861,94.447,59.695z   M34.504,38.232c-2.699-1.064-6.133-1.43-10.404-0.676c-9.834,1.739-9.357,16.738-4.68,17.737l0.191,0.041l0.188-0.047  c0.592-0.148,1.558,0.02,2.453,0.631c0.195,0.139,0.363,0.271,0.504,0.404l-0.002,0.002c0.862,0.806,0.756,1.518,0.603,1.695  c-0.033,0.035-0.068,0.068-0.113,0.098l-0.732,0.505l0.539,0.706c1.475,1.922,1.205,3.262,0.736,3.583  c-0.457,0.313-1.539,0.29-2.918-0.595l-0.482-0.31l-0.467,0.333c-1.682,1.197-4.248,1.249-6.129-0.043  c-1.365-0.938-2.666-3.638-2.898-5.974l0.001-0.003c-0.019-0.223-0.032-0.446-0.032-0.661l-0.002-0.25l-0.138-0.207  c-0.102-0.158-0.203-0.324-0.301-0.499c-1.559-2.819-2.659-7.485-2.352-14.078c0.075-1.627,0.19-2.9,0.313-3.921  c0.347-2.737,0.972-3.581,2.312-4.373c2.279-1.344,6.368-2.363,13.885-7.003c0.862-0.534,1.653-1.179,2.432-1.825  c0.762-0.636,1.547-1.308,2.433-1.947c1.559-1.123,3.424-2.13,6.059-2.615c0.318,2.244,0.49,4.66,0.49,7.176  C35.992,30.632,35.438,34.806,34.504,38.232z M86.356,62.296c-1.884,1.292-4.449,1.24-6.132,0.043l-0.465-0.333l-0.481,0.311  c-1.379,0.884-2.461,0.906-2.92,0.594c-0.468-0.321-0.741-1.661,0.733-3.583l0.541-0.706l-0.731-0.505  c-0.043-0.03-0.08-0.063-0.113-0.097c-0.156-0.178-0.261-0.89,0.602-1.696h0.001c0.142-0.132,0.31-0.265,0.504-0.404  c0.895-0.61,1.859-0.778,2.453-0.631l0.189,0.047l0.188-0.041c4.678-0.999,5.15-15.998-4.68-17.737  c-4.271-0.754-7.703-0.387-10.402,0.676c-0.935-3.426-1.487-7.599-1.487-12.115c0-2.516,0.174-4.932,0.487-7.176  c2.636,0.485,4.5,1.492,6.06,2.615c0.885,0.638,1.67,1.31,2.434,1.947c0.778,0.646,1.573,1.291,2.435,1.825  c7.514,4.64,11.602,5.659,13.883,7.003c1.337,0.792,1.964,1.636,2.312,4.373c0.121,1.021,0.238,2.294,0.312,3.921  c0.304,6.593-0.793,11.259-2.351,14.078c-0.102,0.175-0.2,0.341-0.303,0.499l-0.137,0.207l-0.002,0.25  c0,0.214-0.01,0.436-0.033,0.66h-0.001C89.022,58.658,87.719,61.357,86.356,62.296z"/>
</svg>