<svg xmlns="http://www.w3.org/2000/svg" xmlns:xlink="http://www.w3.org/1999/xlink" version="1.1" id="Layer_1" x="0px" y="0px" width="100px" height="100px" viewBox="0 0 100 100" enable-background="new 0 0 100 100" xml:space="preserve">
<g>
	<path fill="#000000" d="M91.492,41.166c1.615,0.84,2.637,2.232,2.506,3.713c-0.021,0.221-0.053,0.437-0.131,0.642   c0,0-0.172-2.426-2.885-3.837c0,0-0.49-0.286-0.128-0.539C91.125,40.954,91.492,41.166,91.492,41.166L91.492,41.166z    M90.723,37.423c1.617,0.84,2.638,2.233,2.508,3.715c-0.021,0.221-0.055,0.436-0.133,0.641c0,0-0.174-2.426-2.881-3.837   c0,0-0.494-0.286-0.131-0.539C90.355,37.211,90.723,37.423,90.723,37.423L90.723,37.423z M88.98,52.492   c1.619,0.841,2.638,2.232,2.509,3.715c-0.021,0.219-0.056,0.434-0.134,0.639c0,0-0.172-2.424-2.879-3.837   c0,0-0.496-0.282-0.133-0.538C88.615,52.279,88.98,52.492,88.98,52.492L88.98,52.492z M87.676,47.615   c1.617,0.842,2.637,2.232,2.506,3.715c-0.021,0.22-0.055,0.436-0.131,0.643c0,0-0.172-2.427-2.883-3.839c0,0-0.49-0.285-0.131-0.54   C87.311,47.403,87.676,47.615,87.676,47.615L87.676,47.615z M90.238,46.829c1.617,0.842,2.633,2.232,2.504,3.712   c-0.019,0.223-0.053,0.438-0.129,0.643c0,0-0.174-2.425-2.886-3.834c0,0-0.491-0.286-0.131-0.541   C89.871,46.616,90.238,46.829,90.238,46.829L90.238,46.829z M92.133,50.895c-0.268,1.076-0.59,2.039-0.955,2.891   c-0.188-0.262-0.414-0.512-0.662-0.739c0.402-1.019,0.748-2.204,1.013-3.557c0.278,0.424,0.485,0.888,0.604,1.391L92.133,50.895   L92.133,50.895z M92.992,44.177c-0.045,1.527-0.174,2.938-0.367,4.23c-0.207-0.342-0.469-0.66-0.775-0.95   c0.166-1.349,0.261-2.829,0.267-4.44C92.467,43.358,92.764,43.748,92.992,44.177L92.992,44.177z M11.027,41.953   c0,0,0.366-0.213,0.637-0.021c0.361,0.253-0.131,0.539-0.131,0.539c-2.709,1.412-2.883,3.837-2.883,3.837   c-0.076-0.205-0.109-0.421-0.13-0.642C8.393,44.185,9.408,42.793,11.027,41.953L11.027,41.953z M8.465,41.166   c0,0,0.367-0.212,0.635-0.021c0.363,0.253-0.127,0.539-0.127,0.539c-2.711,1.411-2.883,3.837-2.883,3.837   c-0.078-0.205-0.111-0.421-0.129-0.642C5.83,43.398,6.848,42.006,8.465,41.166L8.465,41.166z M9.234,37.423   c0,0,0.362-0.212,0.635-0.021c0.363,0.253-0.129,0.539-0.129,0.539c-2.709,1.411-2.883,3.837-2.883,3.837   c-0.076-0.205-0.109-0.42-0.132-0.641C6.6,39.656,7.615,38.263,9.234,37.423L9.234,37.423z M10.979,52.492   c0,0,0.363-0.213,0.636-0.021c0.36,0.256-0.129,0.538-0.129,0.538c-2.711,1.413-2.888,3.837-2.888,3.837   c-0.073-0.205-0.11-0.42-0.129-0.639C8.34,54.727,9.357,53.333,10.979,52.492L10.979,52.492z M12.281,47.615   c0,0,0.367-0.212,0.639-0.021c0.361,0.255-0.133,0.54-0.133,0.54c-2.709,1.412-2.881,3.839-2.881,3.839   c-0.078-0.207-0.109-0.423-0.131-0.643C9.646,49.848,10.662,48.457,12.281,47.615L12.281,47.615z M7.371,48.345   c-0.191-1.299-0.318-2.715-0.363-4.251c0.228-0.396,0.504-0.758,0.832-1.077c0.008,1.611,0.103,3.092,0.269,4.44   C7.82,47.729,7.574,48.029,7.371,48.345L7.371,48.345z M8.811,53.741c-0.368-0.864-0.694-1.849-0.965-2.947   c0.123-0.47,0.322-0.908,0.582-1.306c0.267,1.353,0.611,2.538,1.013,3.557C9.205,53.264,8.992,53.494,8.811,53.741L8.811,53.741z    M9.723,46.829c0,0,0.361-0.213,0.638-0.021c0.358,0.255-0.134,0.541-0.134,0.541c-2.711,1.41-2.883,3.834-2.883,3.834   c-0.078-0.203-0.108-0.42-0.129-0.643C7.084,49.062,8.102,47.671,9.723,46.829L9.723,46.829z M88.93,41.953   c1.617,0.84,2.636,2.231,2.506,3.713c-0.02,0.221-0.053,0.437-0.131,0.642c0,0-0.174-2.425-2.883-3.837   c0,0-0.492-0.286-0.129-0.539C88.564,41.74,88.93,41.953,88.93,41.953L88.93,41.953z M61.588,20.882h1.744   c0.063-0.639,0.137-1.269,0.221-1.885c-0.518-0.061-1.065-0.103-1.645-0.123C61.838,19.416,61.732,20.1,61.588,20.882   L61.588,20.882z M59.896,27.256h3.197c-0.01-0.378-0.012-0.757-0.012-1.139c0-0.833,0.018-1.657,0.051-2.467h-2.156   C60.688,24.8,60.326,26.026,59.896,27.256L59.896,27.256z M55.055,35.438h8.851c-0.232-1.249-0.422-2.563-0.558-3.929h-5.311   C57.223,32.992,56.238,34.375,55.055,35.438L55.055,35.438z M36.623,20.882h1.795c-0.146-0.783-0.25-1.466-0.322-2.008   c-0.596,0.021-1.155,0.064-1.688,0.13C36.49,19.618,36.564,20.244,36.623,20.882L36.623,20.882z M36.863,27.256h3.244   c-0.431-1.229-0.787-2.456-1.078-3.605H36.82c0.037,0.81,0.055,1.634,0.055,2.467C36.875,26.499,36.871,26.878,36.863,27.256   L36.863,27.256z M36.051,35.438h8.898c-1.185-1.063-2.168-2.446-2.979-3.929h-5.36C36.471,32.875,36.283,34.189,36.051,35.438   L36.051,35.438z M41.074,44.046h17.862c0.81-1.589,2.015-3.121,3.669-4.352H37.404C39.059,40.925,40.262,42.457,41.074,44.046   L41.074,44.046z M42.316,50.551c2.528,0.229,5.127,0.346,7.774,0.346c2.596,0,5.137-0.113,7.609-0.328   c-0.111-0.683-0.127-1.45-0.043-2.269H42.356C42.443,49.11,42.424,49.874,42.316,50.551L42.316,50.551z M39.627,53.902   c0.807-0.562,1.566-3.191,1.566-3.191c1.01-4.394-2.906-14.838-17.142-12.319c-9.428,1.667-7.916,15.377-4.647,16.075   c0.883-0.221,2.098,0.047,3.137,0.758c1.043,0.717,1.625,1.694,1.594,2.506l1.599-0.58c-0.046-0.244-0.078-0.496-0.093-0.754   c-0.168-3.187,2.283-5.899,5.47-6.071c3.188-0.165,5.907,2.28,6.075,5.471c0.166,3.188-2.28,5.906-5.471,6.073   c-2.184,0.111-4.152-1.002-5.225-2.744l-2.24,0.812c0.793,1.545,0.777,3.017-0.18,3.67c-0.9,0.625-2.41,0.349-3.851-0.576   c-1.668,1.182-4.02,1.404-6.012,0.561l-2.646,0.963c0.031,0.203,0.054,0.41,0.062,0.619c0.168,3.188-2.277,5.906-5.465,6.071   c-3.188,0.168-5.906-2.282-6.074-5.47c-0.168-3.187,2.277-5.904,5.467-6.072c2.232-0.116,4.238,1.052,5.295,2.855l1.304-0.472   c-1.336-1.59-2.32-4.272-2.332-6.423c-0.078-0.118-0.154-0.242-0.228-0.366c0.16-0.267,0.342-0.512,0.553-0.737   c0.123,0.225,0.253,0.439,0.388,0.644l0.133,0.207l0.004,0.25c0.01,2.46,1.432,5.606,2.93,6.637   c1.879,1.292,4.449,1.24,6.129,0.043l0.47-0.333l0.479,0.311c1.379,0.884,2.461,0.906,2.92,0.594   c0.468-0.321,0.738-1.661-0.733-3.583l-0.541-0.706l0.729-0.505c0.047-0.029,0.084-0.062,0.113-0.097   c0.184-0.205,0.293-1.137-1.105-2.102c-0.895-0.611-1.858-0.779-2.448-0.631l-0.191,0.047l-0.191-0.041   c-4.678-0.999-5.149-15.998,4.685-17.737c4.266-0.754,7.703-0.388,10.397,0.676c0.938-3.426,1.49-7.6,1.49-12.115   c0-2.516-0.172-4.932-0.49-7.176c-2.633,0.485-4.495,1.492-6.057,2.615c-0.887,0.639-1.672,1.311-2.434,1.947   c-0.777,0.646-1.57,1.291-2.435,1.825c-7.514,4.64-11.604,5.659-13.883,7.003c-1.484,0.877-2.09,1.817-2.418,5.318   c-0.35,0.271-0.662,0.573-0.924,0.899c0.658-9.289,2.69-5.242,16.779-13.942c3.688-2.278,6.245-6.874,15.133-6.822   c0.061,2.151,2.764,18.672,10.93,18.625c8.164,0.047,10.867-16.474,10.926-18.625c8.888-0.052,11.443,4.544,15.136,6.822   c14.12,8.722,16.129,4.633,16.784,14.012c-0.274-0.356-0.604-0.68-0.979-0.969c-0.33-3.501-0.937-4.441-2.418-5.318   c-2.281-1.344-6.369-2.363-13.885-7.003c-0.861-0.534-1.656-1.179-2.433-1.825c-0.764-0.637-1.547-1.309-2.434-1.947   c-1.56-1.123-3.424-2.13-6.058-2.615c-0.319,2.244-0.487,4.66-0.487,7.176c0,4.516,0.551,8.689,1.485,12.115   c2.699-1.063,6.132-1.43,10.402-0.676c9.834,1.739,9.357,16.738,4.684,17.737l-0.19,0.041l-0.191-0.047   c-0.592-0.148-1.559,0.02-2.453,0.631c-1.397,0.965-1.285,1.896-1.102,2.102c0.029,0.033,0.062,0.066,0.109,0.097l0.731,0.505   l-0.541,0.706c-1.471,1.922-1.199,3.262-0.731,3.583c0.457,0.312,1.541,0.29,2.918-0.594l0.481-0.311l0.465,0.333   c1.685,1.197,4.25,1.249,6.131-0.043c1.496-1.03,2.919-4.177,2.933-6.637l0.002-0.25l0.133-0.207   c0.131-0.203,0.264-0.419,0.389-0.644c0.218,0.236,0.412,0.498,0.576,0.776c-0.065,0.114-0.133,0.222-0.203,0.327   c-0.014,2.146-0.998,4.827-2.326,6.417l1.296,0.472c1.055-1.807,3.061-2.977,5.295-2.855c3.188,0.166,5.635,2.884,5.467,6.072   c-0.166,3.188-2.885,5.635-6.072,5.472c-3.188-0.169-5.635-2.89-5.471-6.077c0.012-0.209,0.035-0.417,0.065-0.618l-2.637-0.958   c-1.994,0.848-4.352,0.629-6.016-0.557c-1.441,0.925-2.949,1.201-3.857,0.576c-0.955-0.655-0.969-2.129-0.174-3.672l-2.24-0.818   c-1.074,1.742-3.041,2.857-5.227,2.744c-3.189-0.166-5.638-2.887-5.47-6.073c0.166-3.19,2.884-5.637,6.072-5.467   c3.188,0.164,5.635,2.882,5.469,6.072c-0.014,0.254-0.043,0.506-0.088,0.748l1.599,0.582c-0.031-0.81,0.555-1.783,1.594-2.498   c1.039-0.711,2.25-0.979,3.139-0.758c3.267-0.697,4.773-14.408-4.653-16.075c-14.234-2.519-18.146,7.926-17.128,12.319   c0,0,0.783,2.553,1.697,3.191c0.604,0.416,1.176,0.83,1.728,1.236c-0.029,0.203-0.052,0.406-0.06,0.611   c-0.012,0.182-0.014,0.359-0.01,0.535c-0.6-0.46-1.238-0.926-1.908-1.396c-2.613,1.307-4.928,3.652-5.94,6.332   c-0.23,0.606-0.382,1.196-0.459,1.762l0.44,0.069c2.312,0.375,5.371,1.099,7.854,2.544c2.709,1.575,4.387,3.764,4.539,6.557   c0.366,0.074,0.739,0.137,1.143,0.176c1.26,0.133,2.582,0.102,3.805-0.26c0.566-2.446,0.201-5.633-2.914-9.588   c0.373-0.002,0.746-0.039,1.115-0.108c3.486,4.668,3.418,8.44,2.291,11.323c-0.918,2.35-2.596,4.287-4.127,5.818   c-0.777,0.777-1.498,1.434-2.027,1.961c-0.274,0.274-0.528,0.543-0.723,0.795c-0.17,0.222-0.416,0.576-0.455,1.008   c-0.057,0.647,0.24,1.162,0.601,1.525c0.346,0.35,0.809,0.623,1.276,0.85c0.945,0.453,2.224,0.844,3.513,1.223   c1.284,0.375,2.67,0.759,3.918,1.203c1.247,0.449,2.243,0.919,2.866,1.438c0.47,0.389,0.646,0.657,0.705,0.795   c-0.082,0.105-0.496,0.373-1.598,0.523c-2.09,0.282-5.133-0.079-6.881-0.921c-0.922-0.444-1.535-0.825-2.054-1.177   c-0.562-0.383-1.022-0.727-1.604-1.066c-1.25-0.732-2.949-1.393-6.77-2.247c-0.398-0.157-0.509-0.321-0.517-0.339   c0.01-0.029,0.064-0.113,0.25-0.294c9.808-9.573,8.381-15.328,3.162-18.368c-2.332-1.355-5.25-2.059-7.525-2.426   c-2.309-0.373-4.084-0.42-4.084-0.42s-1.771,0.047-4.082,0.42c-2.274,0.367-5.194,1.068-7.524,2.426   c-5.219,3.04-6.64,8.795,3.164,18.368c0.186,0.181,0.233,0.294,0.246,0.325c-0.009,0.016-0.113,0.15-0.511,0.308   c-3.819,0.854-5.522,1.515-6.77,2.247c-0.578,0.341-1.041,0.686-1.605,1.066c-0.516,0.352-1.133,0.731-2.053,1.177   c-1.75,0.842-4.789,1.203-6.883,0.921c-1.131-0.152-1.566-0.441-1.629-0.541c0.055-0.132,0.271-0.389,0.742-0.777   c0.618-0.519,1.616-0.986,2.862-1.438c1.252-0.444,2.636-0.828,3.92-1.203c1.285-0.379,2.564-0.77,3.511-1.223   c0.471-0.227,0.932-0.5,1.278-0.85c0.359-0.363,0.658-0.878,0.603-1.525c-0.041-0.432-0.289-0.786-0.457-1.008   c-0.195-0.252-0.451-0.521-0.723-0.795c-0.533-0.527-1.25-1.184-2.029-1.961c-1.531-1.531-3.209-3.47-4.125-5.818   c-1.125-2.877-1.197-6.641,2.268-11.293c0.377,0.062,0.756,0.091,1.133,0.086c-3.104,3.945-3.475,7.128-2.909,9.568   c1.231,0.371,2.569,0.403,3.842,0.271c0.389-0.039,0.75-0.095,1.104-0.167c0.152-2.803,1.828-4.987,4.539-6.564   c2.488-1.445,5.543-2.169,7.857-2.544l0.332-0.053c-0.074-0.576-0.221-1.188-0.443-1.778c-1.006-2.66-3.295-4.994-5.889-6.304   c-0.711,0.501-1.383,0.994-2.017,1.478c0.007-0.209,0.007-0.42-0.006-0.636c-0.01-0.177-0.024-0.351-0.047-0.521   C38.359,54.799,38.979,54.354,39.627,53.902L39.627,53.902z M44.889,15.805c0.47-0.468,1.455-0.619,2.482-0.324   c0.551,0.158,1.334,0.581,1.68,0.888L48.74,16.71c-0.365-0.194-0.795-0.375-1.265-0.525c0.011,0.064,0.011,0.132,0,0.2   c-0.057,0.316-0.36,0.527-0.676,0.47c-0.317-0.054-0.529-0.356-0.473-0.672c0.016-0.101,0.057-0.188,0.119-0.262   C45.863,15.808,45.324,15.77,44.889,15.805L44.889,15.805z M47.791,17.336c-0.127,0.286-0.568,0.499-1.096,0.499   c-0.396,0-0.744-0.119-0.945-0.3c0.223,0.048,0.473,0.074,0.729,0.074C46.998,17.609,47.467,17.505,47.791,17.336L47.791,17.336z    M52.43,17.336c0.326,0.169,0.793,0.273,1.312,0.273c0.262,0,0.508-0.026,0.731-0.074c-0.205,0.181-0.551,0.3-0.946,0.3   C53.002,17.835,52.557,17.622,52.43,17.336L52.43,17.336z M55.332,15.805c-0.437-0.035-0.973,0.003-1.555,0.115   c0.057,0.073,0.098,0.161,0.116,0.262c0.056,0.315-0.155,0.618-0.473,0.672c-0.315,0.058-0.619-0.153-0.674-0.47   c-0.012-0.068-0.012-0.136,0-0.2c-0.473,0.15-0.9,0.331-1.269,0.525l-0.309-0.341c0.342-0.307,1.127-0.729,1.678-0.888   C53.877,15.186,54.861,15.337,55.332,15.805L55.332,15.805z M41.482,13.852c-0.457,0.391-0.375,1.439,0.184,2.342   c0.4,0.652,0.938,1.051,1.379,1.075c-0.035,0.285-0.064,0.581-0.09,0.886c-0.129,1.387,1.498,0.908,1.131,1.815   c-0.037,0.1-0.143,0.299-0.266,0.566c-0.545,0.005-1.115-0.062-1.697-0.245c0.057-0.704,0.117-1.43,0.162-2.168l0.004-0.05   c-0.789-0.934-1.418-2.157-1.637-3.166c-0.326-1.529,0.502-2.685,2.098-1.576c0.08,0.055,0.164,0.117,0.24,0.182   c0.057-0.232,0.108-0.453,0.166-0.668c-0.23-1.512-1.345-2.474-1.32-2.517c0.588-1.242,3.25-2.135,4.65-2.123   c0.164-0.051,0.334-0.091,0.504-0.122c0.871-0.729,1.983-1.165,3.196-1.165c1.24,0,2.373,0.453,3.252,1.208   c0.103,0.024,0.197,0.05,0.294,0.079c1.401-0.014,4.069,0.88,4.655,2.123c0.021,0.043-1.096,1.008-1.319,2.524   c0.053,0.211,0.106,0.432,0.157,0.66c0.08-0.064,0.162-0.127,0.244-0.182c1.594-1.108,2.424,0.047,2.099,1.576   c-0.22,1.009-0.849,2.232-1.64,3.166l0.006,0.05c0.045,0.738,0.105,1.464,0.162,2.168c-0.582,0.183-1.149,0.251-1.699,0.246   c-0.12-0.269-0.223-0.468-0.264-0.567c-0.363-0.907,1.262-0.429,1.131-1.815c-0.024-0.305-0.057-0.601-0.09-0.887   c0.438-0.033,0.971-0.429,1.367-1.074c0.557-0.902,0.639-1.951,0.18-2.342c-0.453-0.391-1.272,0.025-1.83,0.929l-0.059,0.097   c-0.48-2.623-1.178-4.134-2.076-5.009c0.314,0.67,0.484,1.419,0.484,2.211c0,0.645-0.115,1.263-0.328,1.834   c-0.484-1.134-1.236-2.149-2.189-2.987c0.004,0.062,0.006,0.122,0.006,0.186c0,0.414-0.073,0.812-0.213,1.179   c-0.799-1.869-2.733-3.242-5.057-3.454c-1.904,0.418-3.289,1.723-4.078,6.057l-0.065-0.112   C42.758,13.877,41.939,13.461,41.482,13.852L41.482,13.852z M43.246,22.321c-0.232,1.374,0.086,2.965,2.447,3.726   c0.073,0.018,0.153,0.036,0.225,0.055c2.328,0.599,3.637-1.098,3.703-2.449c-0.057-0.01-0.107-0.018-0.156-0.027l-0.104-0.023   l-0.136-0.036c-0.069-0.019-0.135-0.04-0.194-0.061c-0.441-0.157-0.789-0.396-0.986-0.682c-0.018-0.026-0.033-0.055-0.053-0.082   c0.215,0.076,0.457,0.142,0.721,0.195l0.033,0.006l0.061,0.01l0.062,0.011l0.037,0.007l0.039,0.007l0.041,0.006l0.061,0.01   L49.102,23l0.084,0.011l0.05,0.006l0.073,0.009l0.035,0.003l0.039,0.004l0.053,0.005l0.054,0.006l0.057,0.004l0.058,0.004   l0.065,0.004l0.096,0.006l0.166,0.006l0.095,0.004l0.192,0.002l0.146-0.001h0.035l0.063-0.003l0.092-0.003l0.095-0.003l0.041-0.002   l0.034-0.003l0.035-0.002l0.035-0.002l0.035-0.002l0.033-0.004l0.032-0.001l0.035-0.004l0.033-0.002l0.033-0.003l0.033-0.003   c0.563-0.055,1.057-0.163,1.444-0.308c-0.024,0.045-0.055,0.09-0.088,0.133c-0.317,0.429-0.981,0.745-1.776,0.823   c0.082,1.344,1.391,3.012,3.7,2.418l0.201-0.049c2.375-0.76,2.695-2.354,2.465-3.731c0.472-0.199,0.875-0.432,1.22-0.667   c0.271,4.402-0.293,7.718-8.086,7.76c-7.789-0.042-8.354-3.357-8.084-7.76C42.369,21.89,42.773,22.122,43.246,22.321L43.246,22.321   z M50.109,21.927c0,0-2.716,1.347-5.863,0.462c-2.615-0.734-3.652-2.53-3.652-2.53s2.693,1.74,5.17,0.692   c3.74-1.584,4.347,0.203,4.347,0.203s0.604-1.787,4.348-0.203c2.479,1.048,5.172-0.692,5.172-0.692s-1.041,1.796-3.652,2.53   C52.828,23.273,50.109,21.927,50.109,21.927L50.109,21.927z"/>
</g>
</svg>