<svg xmlns="http://www.w3.org/2000/svg" xmlns:xlink="http://www.w3.org/1999/xlink" version="1.1" id="Layer_1" x="0px" y="0px" width="100px" height="100px" viewBox="0 0 100 100" enable-background="new 0 0 100 100" xml:space="preserve">
<g>
	<path fill="#000000" d="M73.941,39.435c-1.904-0.146-4.256,0.017-6.812,0.507c0.258,0.321,0.438,0.71,0.514,1.142   c0.246,1.383-0.677,2.703-2.061,2.946c-1.383,0.245-2.702-0.68-2.947-2.062c-0.05-0.297-0.05-0.591-0.002-0.874   c-2.062,0.661-3.938,1.45-5.533,2.297l-1.352-1.485c1.498-1.34,4.92-3.192,7.329-3.884C67.572,36.732,71.893,37.392,73.941,39.435   L73.941,39.435z M61.238,46.138c1.435,0.737,3.473,1.194,5.736,1.194c1.141,0,2.226-0.116,3.205-0.327   c-0.889,0.793-2.414,1.313-4.142,1.313C63.738,48.319,61.799,47.393,61.238,46.138L61.238,46.138z M40.959,46.138   c-0.557,1.255-2.494,2.181-4.795,2.181c-1.733,0-3.255-0.52-4.143-1.313c0.98,0.21,2.064,0.327,3.208,0.327   C37.49,47.333,39.531,46.875,40.959,46.138L40.959,46.138z M28.26,39.435c2.049-2.043,6.367-2.703,10.861-1.413   c2.408,0.691,5.833,2.543,7.333,3.884l-1.352,1.485c-1.595-0.847-3.471-1.636-5.531-2.297c0.048,0.283,0.05,0.577-0.005,0.874   c-0.244,1.382-1.558,2.307-2.943,2.062c-1.385-0.243-2.309-1.563-2.061-2.946c0.074-0.431,0.253-0.82,0.51-1.142   C32.516,39.451,30.164,39.288,28.26,39.435L28.26,39.435z M61.438,69.725c-1.205,2.164-4.328,3.799-8.155,4.17   c0.364,5.891,6.084,13.186,16.188,10.584l0.883-0.213c10.395-3.324,11.787-10.306,10.78-16.326c2.05-0.871,3.823-1.881,5.341-2.912   c1.17,19.248-1.298,33.759-35.373,33.933c-34.08-0.174-36.545-14.685-35.375-33.933c1.517,1.031,3.293,2.041,5.341,2.912   c-1.006,6.009,0.382,12.97,10.708,16.297c0.334,0.078,0.663,0.156,0.99,0.24c10.174,2.619,15.904-4.801,16.195-10.711   c-3.335-0.531-6.006-2.041-7.121-3.986c2.474,0.894,5.915,1.449,9.722,1.449C55.445,71.229,58.953,70.652,61.438,69.725   L61.438,69.725z M51.102,66.214c0,0-11.885,5.894-25.65,2.027c-11.434-3.214-15.977-11.07-15.977-11.07s11.77,7.611,22.613,3.022   c16.371-6.926,19.015,0.894,19.015,0.894s2.642-7.817,19.012-0.894c10.843,4.589,22.613-3.022,22.613-3.022   s-4.543,7.856-15.978,11.07C62.986,72.105,51.102,66.214,51.102,66.214L51.102,66.214z M78.609,60.139   c-0.539-1.173-0.979-2.046-1.157-2.48c-1.597-3.971,5.511-1.879,4.95-7.943c-0.123-1.332-0.256-2.626-0.396-3.876   c1.918-0.137,4.246-1.874,5.979-4.695c2.437-3.954,2.791-8.54,0.796-10.248c-1.996-1.706-5.584,0.112-8.019,4.064l-0.252,0.421   c-2.096-11.471-5.152-18.078-9.082-21.908c1.362,2.929,2.122,6.209,2.122,9.668c0,2.823-0.506,5.526-1.434,8.018   c-2.119-4.956-5.413-9.397-9.586-13.061c0.014,0.269,0.022,0.54,0.022,0.812c0,1.815-0.326,3.555-0.923,5.157   C58.137,15.889,49.668,9.884,39.497,8.953c-8.311,1.835-14.369,7.538-17.825,26.5l-0.293-0.495   c-2.434-3.952-6.019-5.771-8.015-4.064c-1.994,1.708-1.642,6.294,0.795,10.248c1.749,2.849,4.104,4.589,6.033,4.699   c-0.138,1.247-0.271,2.541-0.392,3.872c-0.559,6.064,6.544,3.973,4.948,7.943c-0.175,0.436-0.62,1.303-1.155,2.477   c-2.403,0.021-4.887-0.273-7.429-1.07c0.248-3.082,0.516-6.258,0.702-9.483l0.022-0.217c-3.454-4.08-6.207-9.436-7.157-13.848   c-1.438-6.689,2.206-11.744,9.171-6.901c0.359,0.25,0.711,0.515,1.067,0.799c0.23-1.013,0.467-1.986,0.709-2.918   c-1.004-6.617-5.865-10.825-5.778-11.009c2.575-5.436,14.218-9.344,20.355-9.286c0.713-0.218,1.444-0.394,2.191-0.537   c3.816-3.184,8.686-5.096,13.994-5.096c5.422,0,10.381,1.987,14.229,5.291C66.1,5.959,66.527,6.072,66.945,6.2   c6.131-0.063,17.787,3.846,20.361,9.286c0.092,0.184-4.785,4.409-5.777,11.043c0.238,0.922,0.473,1.884,0.699,2.884   c0.354-0.284,0.707-0.549,1.064-0.799c6.964-4.843,10.609,0.211,9.175,6.901c-0.952,4.412-3.702,9.768-7.159,13.848l0.021,0.217   c0.188,3.227,0.455,6.402,0.702,9.484C83.491,59.859,81.01,60.159,78.609,60.139L78.609,60.139z"/>
</g>
</svg>