<svg xmlns="http://www.w3.org/2000/svg" xmlns:xlink="http://www.w3.org/1999/xlink" version="1.1" id="Gatewa__x28_computer_x29_" x="0px" y="0px" width="100px" height="100px" viewBox="0 0 100 100" enable-background="new 0 0 100 100" xml:space="preserve">
<g>
	<path d="M4,67h29V16L4,32.909V67z M8,36.07l20-10.904V45h-5v4h5v13H8V36.07z"/>
	<polygon points="34,67 38,67 38,19.909 34,16  "/>
	<path d="M4,75l29,5V68H4V75z M27.25,70c1.105,0,2,1.343,2,3s-0.895,3-2,3s-2-1.343-2-3S26.145,70,27.25,70z"/>
	<polygon points="34,80 38,77 38,68 34,68  "/>
	<path d="M67,16v51h29V32.909L67,16z M92,62H72V49h5v-4h-5V25.166L92,36.07V62z"/>
	<polygon points="62,67 66,67 66,16 62,19.909  "/>
	<path d="M67,80l29-5v-7H67V80z M73.25,70c1.105,0,2,1.343,2,3s-0.895,3-2,3s-2-1.343-2-3S72.145,70,73.25,70z"/>
	<polygon points="62,77 66,80 66,68 62,68  "/>
	<rect x="15" y="45" width="6" height="4"/>
	<rect x="39" y="45" width="6" height="4"/>
	<rect x="47" y="45" width="6" height="4"/>
	<rect x="55" y="45" width="6" height="4"/>
	<rect x="79" y="45" width="6" height="4"/>
</g>
</svg>