<svg xmlns="http://www.w3.org/2000/svg" xmlns:xlink="http://www.w3.org/1999/xlink" version="1.1" id="Layer_1" x="0px" y="0px" width="100px" height="90.299px" viewBox="0 0 100 90.299" enable-background="new 0 0 100 90.299" xml:space="preserve">
<g>
	<path fill="#000000" d="M85.57,12.857H11.921c-1.743,0-3.156,1.414-3.156,3.157v1.05v43.138c0,1.742,1.412,3.155,3.156,3.155h1.053   h33.522v2.954H22.778c-0.821,0-1.492,0.672-1.492,1.492v5.112c0,0.82,0.671,1.492,1.492,1.492h53.373   c0.821,0,1.493-0.672,1.493-1.492v-5.112c0-0.82-0.672-1.492-1.493-1.492H50.995v-2.954h33.522h1.053   c1.742,0,3.156-1.413,3.156-3.155V17.065v-1.05C88.727,14.271,87.313,12.857,85.57,12.857z M27.671,71.982   c-0.828,0-1.5-0.672-1.5-1.5s0.672-1.5,1.5-1.5s1.5,0.672,1.5,1.5S28.499,71.982,27.671,71.982z M69.171,68.482   c1.104,0,2,0.896,2,2s-0.896,2-2,2s-2-0.896-2-2S68.066,68.482,69.171,68.482z M60.671,68.982c0.828,0,1.5,0.672,1.5,1.5   s-0.672,1.5-1.5,1.5s-1.5-0.672-1.5-1.5S59.843,68.982,60.671,68.982z M84.518,59.15H12.974V17.065h71.543V59.15z"/>
</g>
</svg>