<?xml version="1.0" encoding="utf-8"?>
<!-- Generator: Adobe Illustrator 14.0.0, SVG Export Plug-In . SVG Version: 6.00 Build 43363)  -->
<!DOCTYPE svg PUBLIC "-//W3C//DTD SVG 1.0//EN" "http://www.w3.org/TR/2001/REC-SVG-20010904/DTD/svg10.dtd">
<svg version="1.0" id="Layer_1" xmlns="http://www.w3.org/2000/svg" xmlns:xlink="http://www.w3.org/1999/xlink" x="0px" y="0px"
	 width="82.828px" height="100px" viewBox="0 0 82.828 100" enable-background="new 0 0 82.828 100" xml:space="preserve">
<path d="M41.463,41.417"/>
<path d="M41.415,53.957c6.926,0,12.539-5.615,12.539-12.54c0-6.927-5.613-12.542-12.539-12.542c-6.927,0-12.541,5.615-12.541,12.542
	C28.875,48.342,34.488,53.957,41.415,53.957L41.415,53.957z"/>
<circle cx="5.439" cy="41.417" r="5.439"/>
<circle cx="77.389" cy="41.417" r="5.438"/>
<circle cx="41.464" cy="5.439" r="5.439"/>
<path d="M81.234,78.635c-2.125-2.123-5.568-2.123-7.693,0l-2.794,2.797V73.23c0-8.33-6.469-16.489-16.219-16.489L41.414,56.73
	l-13.115,0.011c-9.75,0-16.218,8.159-16.218,16.489v8.201l-2.795-2.797c-2.124-2.123-5.568-2.123-7.692,0s-2.124,5.568,0,7.691
	L15.267,100l7.692-7.693V76.295h2.532V100h31.846V76.295h2.532v16.012L67.561,100l13.674-13.674
	C83.359,84.203,83.359,80.758,81.234,78.635z M41.513,82.48c-3.004,0-5.439-2.433-5.439-5.438c0-3.006,2.435-5.438,5.439-5.438
	c3.002,0,5.44,2.433,5.44,5.438C46.953,80.048,44.516,82.48,41.513,82.48z"/>
</svg>
