<svg xmlns="http://www.w3.org/2000/svg" xmlns:xlink="http://www.w3.org/1999/xlink" version="1.1" id="Livello_1" x="0px" y="0px" width="100px" height="75.0922509225px" viewBox="0 0 542.844 407.133" enable-background="new 0 0 542.844 407.133" xml:space="preserve">
<path d="M320.6,194.333c-0.719-3.765-4.457-7.188-8.357-7.636c-4.935-0.515-9.938-0.775-14.875-0.775  c-4.936,0-9.939,0.261-14.897,0.778c-3.878,0.444-7.616,3.868-8.339,7.66c-0.033,0.184-0.062,0.367-0.093,0.55  c-0.729-0.188-1.594-0.304-2.617-0.304s-1.888,0.116-2.617,0.304c-0.032-0.191-0.062-0.384-0.097-0.576  c-0.718-3.766-4.457-7.189-8.356-7.637c-4.936-0.515-9.94-0.775-14.876-0.775c-4.935,0-9.939,0.261-14.897,0.778  c-3.877,0.444-7.616,3.868-8.339,7.66c-1.09,6.108-1.09,12.304,0.005,18.438c0.718,3.766,4.457,7.19,8.356,7.636  c4.936,0.516,9.94,0.775,14.875,0.775c4.936,0,9.94-0.26,14.898-0.777c3.877-0.443,7.616-3.868,8.339-7.66  c0.786-4.405,1.002-8.854,0.653-13.293c0.309-0.161,0.928-0.372,2.056-0.372s1.747,0.211,2.056,0.371  c-0.348,4.435-0.131,8.893,0.658,13.32c0.719,3.766,4.457,7.19,8.357,7.636c4.936,0.516,9.939,0.775,14.875,0.775  c4.937,0,9.94-0.26,14.898-0.777c3.877-0.443,7.615-3.868,8.339-7.66C321.695,206.665,321.695,200.469,320.6,194.333z   M264.287,211.957c-0.345,1.805-2.536,3.788-4.402,4.002c-4.78,0.499-9.629,0.751-14.409,0.751s-9.628-0.252-14.386-0.749  c-1.889-0.216-4.08-2.199-4.42-3.979c-0.996-5.584-0.996-11.246-0.005-16.804c0.345-1.806,2.536-3.789,4.402-4.003  c4.78-0.498,9.628-0.751,14.408-0.751s9.629,0.253,14.387,0.749c1.889,0.216,4.08,2.199,4.419,3.978  C265.278,200.736,265.278,206.398,264.287,211.957z M316.178,211.956c-0.345,1.806-2.535,3.789-4.401,4.003  c-4.781,0.499-9.629,0.751-14.409,0.751c-4.779,0-9.628-0.252-14.386-0.749c-1.889-0.216-4.081-2.199-4.419-3.979  c-0.997-5.584-0.997-11.246-0.006-16.804c0.344-1.806,2.536-3.789,4.402-4.003c4.78-0.498,9.629-0.751,14.408-0.751  c4.78,0,9.628,0.253,14.387,0.749c1.889,0.216,4.079,2.199,4.419,3.978C317.17,200.736,317.17,206.398,316.178,211.956z"/>
</svg>