<svg xmlns="http://www.w3.org/2000/svg" xmlns:xlink="http://www.w3.org/1999/xlink" version="1.1" id="Layer_1" x="0px" y="0px" width="96.083px" height="84px" viewBox="0 0 96.083 84" enable-background="new 0 0 96.083 84" xml:space="preserve">
<g>
	<g>
		<path d="M48.214,35.631c-11.004,0-19.926,8.921-19.926,19.925c0,11.004,8.922,19.926,19.926,19.926    c11.006,0,19.926-8.922,19.926-19.926C68.14,44.552,59.22,35.631,48.214,35.631z M48.028,72.777    c-9.512,0-17.221-7.71-17.221-17.221s7.709-17.221,17.221-17.221s17.221,7.71,17.221,17.221S57.54,72.777,48.028,72.777z"/>
		<circle cx="48.157" cy="55.557" r="13.881"/>
	</g>
	<path d="M80.083,8h-64c-8.836,0-16,7.164-16,16v44c0,8.837,7.164,16,16,16h64c8.837,0,16-7.163,16-16V24   C96.083,15.164,88.92,8,80.083,8z M48.028,80.277c-13.652,0-24.721-11.067-24.721-24.721c0-13.653,11.068-24.721,24.721-24.721   s24.721,11.068,24.721,24.721C72.749,69.21,61.681,80.277,48.028,80.277z M88.157,29.987c0,2.197-1.62,3.978-3.617,3.978H72.96   c-1.997,0-3.617-1.781-3.617-3.978V18.852c0-2.197,1.62-3.977,3.617-3.977h11.58c1.997,0,3.617,1.78,3.617,3.977V29.987z"/>
</g>
<path d="M21.714,0c-0.02,0-0.523,0-1.15,0c0,0-1.439,0-2.514,0c-0.627,0-1.131,0-1.15,0c-1.9,0-2.912,1.111-3.816,1.696V6h4.967  h2.514h5.52V1.696C25.083,1.111,23.614,0,21.714,0z"/>
</svg>