<?xml version="1.0" encoding="utf-8"?>
<!-- Generator: Adobe Illustrator 14.0.0, SVG Export Plug-In . SVG Version: 6.00 Build 43363)  -->
<!DOCTYPE svg PUBLIC "-//W3C//DTD SVG 1.1//EN" "http://www.w3.org/Graphics/SVG/1.1/DTD/svg11.dtd">
<svg version="1.1" id="Layer_1" xmlns="http://www.w3.org/2000/svg" xmlns:xlink="http://www.w3.org/1999/xlink" x="0px" y="0px"
	 width="100px" height="100px" viewBox="0 0 100 100" enable-background="new 0 0 100 100" xml:space="preserve">
<path d="M94.259,90.426c1.949,0,3.387,0.484,4.321,1.451c0.931,0.976,1.396,2.05,1.396,3.23c0,1.183-0.466,2.278-1.396,3.286
	c-0.934,1.017-2.372,1.52-4.321,1.52H5.693c-1.861,0-3.281-0.503-4.256-1.52c-0.974-1.007-1.461-2.104-1.461-3.286
	c0-1.181,0.487-2.255,1.461-3.23c0.974-0.967,2.394-1.451,4.256-1.451H94.259L94.259,90.426z"/>
<path d="M29.004,16.005v59.086c0,1.95-0.488,3.392-1.454,4.324c-0.974,0.93-2.048,1.394-3.227,1.394
	c-1.185,0-2.279-0.464-3.289-1.394c-1.017-0.933-1.516-2.374-1.516-4.324V16.005L9.224,26.043c-0.678,0.763-1.396,1.294-2.158,1.589
	c-0.766,0.295-1.483,0.444-2.161,0.444c-1.356,0-2.478-0.444-3.367-1.332c-0.892-0.891-1.337-2.057-1.337-3.496
	c0-0.593,0.15-1.248,0.445-1.969c0.297-0.721,0.828-1.418,1.588-2.096L19.518,1.774c0.67-0.763,1.405-1.229,2.209-1.397
	c0.804-0.169,1.666-0.256,2.596-0.256c0.841,0,1.639,0.085,2.402,0.256c0.762,0.168,1.517,0.635,2.281,1.397l17.407,17.409
	c0.678,0.678,1.142,1.375,1.397,2.096c0.254,0.721,0.382,1.375,0.382,1.969c0,1.439-0.403,2.605-1.206,3.496
	c-0.806,0.888-1.927,1.332-3.368,1.332c-0.678,0-1.401-0.149-2.162-0.444c-0.762-0.295-1.525-0.827-2.288-1.589L29.004,16.005
	L29.004,16.005z"/>
<path d="M80.507,16.005v59.086c0,1.95-0.521,3.392-1.559,4.324c-1.047,0.93-2.064,1.394-3.059,1.394
	c-1.171,0-2.273-0.464-3.309-1.394c-1.044-0.933-1.559-2.374-1.559-4.324V16.005L60.727,26.043
	c-1.355,1.355-2.839,2.033-4.448,2.033c-1.352,0-2.432-0.444-3.239-1.332c-0.806-0.891-1.209-2.057-1.209-3.496
	c0-0.593,0.13-1.248,0.383-1.969c0.254-0.721,0.719-1.418,1.397-2.096L71.02,1.774c1.164-1.019,2.831-1.524,4.992-1.524
	c1.826,0,3.322,0.505,4.494,1.524l17.409,17.409c1.186,1.355,1.778,2.712,1.778,4.066c0,1.439-0.403,2.605-1.207,3.496
	c-0.804,0.889-1.926,1.332-3.367,1.332c-1.609,0-3.094-0.678-4.45-2.033L80.507,16.005L80.507,16.005z"/>
</svg>
