<svg xmlns="http://www.w3.org/2000/svg" xmlns:xlink="http://www.w3.org/1999/xlink" version="1.1" id="Layer_1" x="0px" y="0px" width="100px" height="100px" viewBox="0 0 100 100" enable-background="new 0 0 100 100" xml:space="preserve">
<path d="M37.039,8.015c-18.678,0-33.82,15.475-33.82,34.563c0,19.089,15.142,34.563,33.82,34.563s33.819-15.475,33.819-34.563  C70.858,23.49,55.717,8.015,37.039,8.015z M37.039,66.988c-13.191,0-23.885-10.931-23.885-24.41c0-13.48,10.694-24.41,23.885-24.41  c13.19,0,23.884,10.93,23.884,24.41C60.923,56.058,50.229,66.988,37.039,66.988z"/>
<path d="M68.53,53.575L56.061,70.68l28.614,21.306c9.936-5.353,10.556,2.86,12.104-13.547L68.53,53.575z M81.988,74.759  L65.927,62.654l1.755-2.561l15.722,12.683L81.988,74.759z"/>
<path d="M36.522,59.661c-6.682,0-12.207-4.9-13.216-11.3c-0.109,0.686-0.18,1.382-0.18,2.099c0,7.398,5.998,13.396,13.396,13.396  s13.396-5.998,13.396-13.396c0-0.716-0.071-1.413-0.18-2.099C48.729,54.761,43.204,59.661,36.522,59.661z"/>
<path d="M79.394,133.75c-18.501,0-33.5,14.998-33.5,33.5s14.999,33.5,33.5,33.5s33.5-14.998,33.5-33.5S97.895,133.75,79.394,133.75z   M79.394,192.766c-14.092,0-25.516-11.424-25.516-25.516s11.424-25.516,25.516-25.516s25.516,11.424,25.516,25.516  S93.485,192.766,79.394,192.766z"/>
<ellipse cx="79.908" cy="167.777" rx="17.252" ry="16.777"/>
<polygon points="93,198 118.766,218.519 126.2,218.519 103.863,183.842 "/>
</svg>