<svg xmlns="http://www.w3.org/2000/svg" xmlns:xlink="http://www.w3.org/1999/xlink" version="1.1" id="Layer_1" x="0px" y="0px" width="100px" height="100px" viewBox="0 0 100 100" enable-background="new 0 0 100 100" xml:space="preserve">
<path d="M227.539,86.015c-18.678,0-33.82,15.476-33.82,34.563c0,19.089,15.143,34.563,33.82,34.563s33.819-15.475,33.819-34.563  C261.358,101.49,246.217,86.015,227.539,86.015z M227.539,144.988c-13.191,0-23.885-10.931-23.885-24.41  c0-13.48,10.693-24.41,23.885-24.41c13.19,0,23.884,10.93,23.884,24.41C251.423,134.058,240.729,144.988,227.539,144.988z"/>
<path d="M259.03,131.575l-12.47,17.104l28.614,21.306c9.936-5.353,10.556,2.86,12.104-13.547L259.03,131.575z M272.488,152.759  l-16.062-12.104l1.755-2.561l15.722,12.683L272.488,152.759z"/>
<path d="M227.022,137.661c-6.682,0-12.207-4.9-13.216-11.3c-0.109,0.686-0.181,1.383-0.181,2.099  c0,7.398,5.998,13.396,13.396,13.396s13.396-5.998,13.396-13.396c0-0.716-0.07-1.413-0.18-2.099  C239.229,132.761,233.704,137.661,227.022,137.661z"/>
<path d="M42.461,2.944C21.496,2.944,4.5,19.939,4.5,40.905s16.996,37.96,37.961,37.96c20.964,0,37.961-16.995,37.961-37.96  S63.425,2.944,42.461,2.944z M42.461,69.818c-15.968,0-28.914-12.945-28.914-28.914s12.945-28.913,28.914-28.913  c15.968,0,28.913,12.945,28.913,28.913S58.429,69.818,42.461,69.818z"/>
<ellipse cx="43.043" cy="41.502" rx="19.55" ry="19.011"/>
<polygon points="57.879,75.749 87.075,99 95.5,99 70.188,59.706 "/>
</svg>