<svg xmlns="http://www.w3.org/2000/svg" xmlns:xlink="http://www.w3.org/1999/xlink" version="1.1" id="Layer_1" x="0px" y="0px" width="100px" height="100px" viewBox="0 0 100 100" enable-background="new 0 0 100 100" xml:space="preserve">
<path d="M36.26,8.015c-18.678,0-33.82,15.476-33.82,34.563c0,19.089,15.143,34.563,33.82,34.563s33.819-15.475,33.819-34.563  C70.079,23.49,54.938,8.015,36.26,8.015z M36.26,66.988c-13.191,0-23.885-10.931-23.885-24.41c0-13.48,10.693-24.41,23.885-24.41  c13.19,0,23.884,10.93,23.884,24.41C60.144,56.058,49.45,66.988,36.26,66.988z"/>
<path d="M67.751,53.575L55.281,70.68l28.614,21.306c9.936-5.353,10.556,2.86,12.104-13.547L67.751,53.575z M81.209,74.759  L65.147,62.654l1.755-2.561l15.722,12.683L81.209,74.759z"/>
<path d="M186.432,50c-18.678,0-33.82,15.476-33.82,34.563c0,19.089,15.143,34.563,33.82,34.563s33.819-15.475,33.819-34.563  C220.251,65.476,205.109,50,186.432,50z M186.432,108.974c-13.191,0-23.885-10.931-23.885-24.41c0-13.48,10.693-24.41,23.885-24.41  c13.19,0,23.884,10.93,23.884,24.41C210.315,98.043,199.622,108.974,186.432,108.974z"/>
<path d="M217.923,95.561l-12.47,17.104l28.614,21.306c9.936-5.353,10.556,2.86,12.104-13.547L217.923,95.561z M231.381,116.744  l-16.062-12.104l1.755-2.561l15.722,12.683L231.381,116.744z"/>
<path d="M185.915,101.646c-6.682,0-12.207-4.9-13.216-11.3c-0.109,0.686-0.181,1.383-0.181,2.099  c0,7.398,5.998,13.396,13.396,13.396s13.396-5.998,13.396-13.396c0-0.716-0.07-1.413-0.18-2.099  C198.121,96.746,192.597,101.646,185.915,101.646z"/>
<path d="M118.383,162.944c-20.965,0-37.961,16.995-37.961,37.96c0,20.966,16.996,37.961,37.961,37.961  c20.964,0,37.961-16.995,37.961-37.961C156.344,179.939,139.347,162.944,118.383,162.944z M118.383,229.818  c-15.969,0-28.914-12.945-28.914-28.914c0-15.968,12.945-28.912,28.914-28.912c15.968,0,28.913,12.944,28.913,28.912  C147.296,216.873,134.351,229.818,118.383,229.818z"/>
<ellipse cx="118.965" cy="201.502" rx="19.549" ry="19.012"/>
<polygon points="133.801,235.749 162.997,259 171.422,259 146.11,219.706 "/>
<rect x="-40.552" y="-11.403" width="5.552" height="22.807"/>
<rect x="25.379" y="40.217" width="21.762" height="5.402"/>
</svg>