<svg xmlns="http://www.w3.org/2000/svg" xmlns:xlink="http://www.w3.org/1999/xlink" version="1.1" x="0px" y="0px" width="100px" height="100px" viewBox="0 0 100 100" enable-background="new 0 0 100 100" xml:space="preserve">
<g id="Captions">
</g>
<g id="Your_Icon">
	<g>
		<ellipse fill-rule="evenodd" clip-rule="evenodd" cx="42.8" cy="38.201" rx="9.6" ry="4.8"/>
		<path fill-rule="evenodd" clip-rule="evenodd" d="M21.2,47.8v-19.2H62v7.2v4.8c0,0-0.149-7.2,7.199-7.2v-4.8    c0-7.2-7.199-7.2-7.199-7.2s-32.475,0-40.8,0c-7.2,0-7.2,7.2-7.2,7.2s0,25.499,0,31.2v12c0,0,0,7.199,7.2,7.199    c8.85,0,28.8,0,28.8,0v-7.199H21.2v-4.8H50v-7.2H21.2V55H50c0-4.8,4.8-7.2,4.8-7.2H21.2z"/>
		<path fill-rule="evenodd" clip-rule="evenodd" d="M83.6,47.8c0,0-2.324,2.4-7.2,2.4V55c0,0,9.601-0.148,9.601-4.8    C86,47.8,83.6,47.8,83.6,47.8z"/>
		<path fill-rule="evenodd" clip-rule="evenodd" d="M83.6,57.4c0,0-2.324,2.4-7.2,2.4v4.8c0,0,9.601-0.15,9.601-4.8    C86,57.4,83.6,57.4,83.6,57.4z"/>
		<path fill-rule="evenodd" clip-rule="evenodd" d="M83.6,67.001c0,0-2.324,2.399-7.2,2.399v4.801c0,0,9.601-0.15,9.601-4.801    C86,67.001,83.6,67.001,83.6,67.001z"/>
		<ellipse fill-rule="evenodd" clip-rule="evenodd" cx="76.4" cy="40.6" rx="9.6" ry="4.8"/>
		<path fill-rule="evenodd" clip-rule="evenodd" d="M71.6,62.2c0,0-2.324,2.4-7.199,2.4c-4.876,0-7.2-2.4-7.2-2.4s-2.4,0-2.4,2.4    c0,4.65,9.601,4.8,9.601,4.8s9.6-0.149,9.6-4.8C74,62.2,71.6,62.2,71.6,62.2z"/>
		<path fill-rule="evenodd" clip-rule="evenodd" d="M71.6,71.801c0,0-2.324,2.4-7.199,2.4c-4.876,0-7.2-2.4-7.2-2.4s-2.4,0-2.4,2.4    C54.8,78.85,64.4,79,64.4,79s9.6-0.15,9.6-4.799C74,71.801,71.6,71.801,71.6,71.801z"/>
		<ellipse fill-rule="evenodd" clip-rule="evenodd" cx="64.4" cy="55" rx="9.601" ry="4.8"/>
	</g>
</g>
</svg>