<svg xmlns="http://www.w3.org/2000/svg" xmlns:xlink="http://www.w3.org/1999/xlink" version="1.1" x="0px" y="0px" width="100px" height="100px" viewBox="0 0 100 100" enable-background="new 0 0 100 100" xml:space="preserve">
<g id="Captions">
	<rect x="-330" y="-138" width="185" height="99"/>
	<rect x="-138" y="-174" width="100" height="30"/>
	<text transform="matrix(1 0 0 1 -72 -157.5)" fill="#000000" font-family="'Helvetica'" font-size="2.4">http://thenounproject.com</text>
	<text transform="matrix(1 0 0 1 -130.834 -162.5)"><tspan x="0" y="0" fill="#000000" font-family="'Helvetica-Bold'" font-size="6.1578">The Noun Project</tspan><tspan x="1.12" y="4.8" fill="#000000" font-family="'Helvetica-Bold'" font-size="4">Icon Template</tspan></text>
	<text transform="matrix(1 0 0 1 -316.5 -127.5)" fill="#000000" font-family="'Helvetica-Bold'" font-size="6.1578">Reminders</text>
	<line fill="#000000" stroke="#FFFFFF" stroke-miterlimit="10" x1="-130" y1="-152.5" x2="-120" y2="-152.5"/>
	<line fill="#000000" stroke="#FFFFFF" stroke-miterlimit="10" x1="-317" y1="-121.5" x2="-300" y2="-121.5"/>
	<g>
		<g>
			<g>
				<rect x="-308.802" y="-106.682" fill="#000000" width="8.721" height="8.642"/>
				<path fill="#000000" d="M-302.455-95.688h4.747v-4.703h-4.747V-95.688z M-297.266-95.251h-5.63v-5.579h5.63V-95.251      L-297.266-95.251z M-304.221-93.938h8.279v-8.203h-8.279V-93.938L-304.221-93.938z M-295.5-93.5h-9.163v-9.079h9.163V-93.5      L-295.5-93.5z"/>
				<polygon fill="#000000" points="-304.149,-93.867 -304.292,-94.009 -296.013,-102.213 -295.871,-102.071     "/>
			</g>
		</g>
	</g>
	<rect x="-317" y="-80" fill="none" width="35" height="32.5"/>
	<text transform="matrix(1 0 0 1 -317 -77.8428)"><tspan x="0" y="0" fill="#000000" font-family="'Helvetica-Bold'" font-size="3">Strokes</tspan><tspan x="0" y="5" fill="#000000" font-family="'Helvetica'" font-size="2.4">Try to keep strokes at 4px</tspan><tspan x="0" y="10" fill="#000000" font-family="'Helvetica'" font-size="2.4">Minimum stroke weight is 2px</tspan><tspan x="0" y="14.5" fill="#000000" font-family="'Helvetica'" font-size="2.4">For thicker strokes use even </tspan><tspan x="0" y="17.5" fill="#000000" font-family="'Helvetica'" font-size="2.4">numbers: 6px, 8px etc.</tspan><tspan x="0" y="22" fill="#000000" font-family="'Helvetica-Bold'" font-size="2.4">Remember to expand strokes </tspan><tspan x="0" y="25" fill="#000000" font-family="'Helvetica-Bold'" font-size="2.4">before saving as an SVG </tspan></text>
	<rect x="-274.5" y="-80" fill="none" width="35" height="32.5"/>
	<text transform="matrix(1 0 0 1 -274.5 -77.8428)"><tspan x="0" y="0" fill="#000000" font-family="'Helvetica-Bold'" font-size="3">Size</tspan><tspan x="0" y="5" fill="#000000" font-family="'Helvetica'" font-size="2.4">Cannot be wider or taller than </tspan><tspan x="0" y="8.5" fill="#000000" font-family="'Helvetica'" font-size="2.4">100px (artboar size)</tspan><tspan x="0" y="13.5" fill="#000000" font-family="'Helvetica'" font-size="2.4">Scale your icon to fill as much of </tspan><tspan x="0" y="16.5" fill="#000000" font-family="'Helvetica'" font-size="2.4">the Safe Area as possible (within </tspan><tspan x="0" y="19.5" fill="#000000" font-family="'Helvetica'" font-size="2.4">the guides)</tspan></text>
	<rect x="-232" y="-80" fill="none" width="35" height="32.5"/>
	<text transform="matrix(1 0 0 1 -232 -77.8428)"><tspan x="0" y="0" fill="#000000" font-family="'Helvetica-Bold'" font-size="3">Ungroup</tspan><tspan x="0" y="5" fill="#000000" font-family="'Helvetica'" font-size="2.4">If your design has more than one </tspan><tspan x="0" y="8" fill="#000000" font-family="'Helvetica'" font-size="2.4">shape, make sure to ungroup.</tspan></text>
	<rect x="-188" y="-80" fill="none" width="35" height="32.5"/>
	<text transform="matrix(1 0 0 1 -188 -77.8428)"><tspan x="0" y="0" fill="#000000" font-family="'Helvetica-Bold'" font-size="3">Save as</tspan><tspan x="0" y="5" fill="#000000" font-family="'Helvetica'" font-size="2.4">Save as .SVG and make sure </tspan><tspan x="0" y="8" fill="#000000" font-family="'Helvetica'" font-size="2.4">&#8220;Use Artboards&#8221; is checked.</tspan></text>
	<text transform="matrix(1.0074 0 0 1 -263.542 -107.4067)" fill="#000000" font-family="'Helvetica'" font-size="2.5731">100px</text>
	<text transform="matrix(1.0074 0 0 1 -179 -99)" fill="#000000" font-family="'Helvetica-Bold'" font-size="5.1462">.SVG</text>
	<rect x="-264.514" y="-103.185" fill="#000000" width="10.261" height="10.185"/>
	<rect x="-264.477" y="-106.234" fill="#000000" width="0.522" height="2.337"/>
	<rect x="-254.812" y="-106.234" fill="#000000" width="0.523" height="2.337"/>
	<rect x="-265" y="-105.663" fill="#000000" width="11.233" height="0.572"/>
	<g>
		<rect x="-221.805" y="-104.156" fill="#000000" width="10.305" height="10.156"/>
		<rect x="-214.809" y="-109.293" fill="#000000" width="3.308" height="3.261"/>
	</g>
	<rect x="-316.5" y="-115.5" fill="#000000" stroke="#FFFFFF" stroke-miterlimit="10" width="30" height="30"/>
	<rect x="-274.5" y="-115.5" fill="#000000" stroke="#FFFFFF" stroke-miterlimit="10" width="30" height="30"/>
	<rect x="-231.5" y="-115.5" fill="#000000" stroke="#FFFFFF" stroke-miterlimit="10" width="30" height="30"/>
	<rect x="-187.5" y="-115.5" fill="#000000" stroke="#FFFFFF" stroke-miterlimit="10" width="30" height="30"/>
</g>
<g id="Your_Icon">
	<path d="M-54.795-80.119l-7.38,3.24c-0.409,0.181-0.417,0.5-0.016,0.701l3.066,1.556c-2.531,2.508-5.867,4.777-9.791,6.454   c-10.669,4.57-16.398,2.176-16.398-4.816c0-3.672,0-16.365,0-25.842l15.017-1.307c0.37-0.055,0.668-0.402,0.668-0.773v-1.281   c0-0.37-0.298-0.719-0.668-0.772l-15.017-1.307c0-1.997,0-3.594,0-4.563c2.861-1.086,4.898-3.845,4.898-7.086   c0-4.188-3.396-7.584-7.586-7.584c-4.188,0-7.585,3.396-7.585,7.584c0,3.24,2.036,5.998,4.895,7.085c0,0.969,0,2.566,0,4.564   l-15.015,1.307c-0.366,0.053-0.666,0.402-0.666,0.772v1.281c0,0.371,0.3,0.718,0.666,0.773l15.015,1.307c0,9.477,0,22.17,0,25.842   c0,6.992-5.725,9.387-16.396,4.816c-3.924-1.677-7.26-3.946-9.793-6.454l3.07-1.556c0.4-0.201,0.391-0.521-0.021-0.701l-7.378-3.24   c-0.409-0.182-0.747,0.038-0.747,0.49v8.582c0,0.45,0.26,0.553,0.577,0.235l1.95-1.987c8.421,7.821,19.107,14.864,31.428,20.299   c12.32-5.435,23.007-12.478,31.428-20.299l1.951,1.987c0.314,0.317,0.578,0.215,0.578-0.235v-8.582   C-54.044-80.081-54.387-80.301-54.795-80.119z M-91.991-115.916c0-2.201,1.79-3.991,3.99-3.991c2.204,0,3.992,1.79,3.992,3.991   c0,2.2-1.788,3.991-3.992,3.991C-90.201-111.925-91.991-113.715-91.991-115.916z"/>
	<path d="M84.716-75.483c-2.209,3.132-11.34,10.726-11.34,10.726l0.001-0.007C64.105-57.845,50.436-52.5,50-52.5   c-0.437,0-14.105-5.345-23.377-12.265l0.002,0.007c0,0-9.134-7.593-11.341-10.726l14.65,1.882l-3.791,2.966   c2.873,3.746,7.179,7.131,11.842,9.452c0.383,0.173,0.834,0.384,1.374,0.649c0.255,0.115,0.512,0.228,0.77,0.335   c6.25,2.386,7.645-6.12,7.645-9.83v-32.236l-14.357,0.471v-1.912v-1.912l14.357,0.475v-2.644c-3.344-0.965-5.791-4.042-5.791-7.696   c0-4.427,3.589-8.017,8.018-8.017c4.428,0,8.017,3.59,8.017,8.017c0,3.654-2.448,6.731-5.79,7.696v2.644l14.357-0.475v1.912v1.912   l-14.357-0.471v32.236c0,3.71,1.395,12.211,7.641,9.832c0.262-0.109,0.521-0.223,0.781-0.339c0.534-0.264,0.979-0.474,1.359-0.644   c4.665-2.322,8.975-5.706,11.851-9.456l-3.793-2.966L84.716-75.483z M54.414-115.483c0-2.438-1.977-4.415-4.414-4.415   c-2.438,0-4.416,1.976-4.416,4.415c0,2.439,1.978,4.415,4.416,4.415C52.438-111.068,54.414-113.044,54.414-115.483z"/>
	<path d="M207.442-70.784l3.68,0.711c-2.787,3.632-6.965,6.915-11.485,9.163c-0.368,0.163-0.8,0.369-1.317,0.624   c-0.252,0.111-0.5,0.224-0.757,0.326c-6.05,2.31-7.405-5.933-7.405-9.525v-29.356l13.913,0.9v-4.598l-13.913,0.91v-3.363   c4.141-0.977,7.225-4.688,7.225-9.125c0-5.18-4.2-9.383-9.384-9.383c-5.183,0-9.385,4.203-9.385,9.383   c0,4.44,3.089,8.153,7.232,9.127v3.361l-13.913-0.91v4.598l13.913-0.9v29.356c0,3.593-1.354,11.837-7.411,9.525   c-0.248-0.103-0.497-0.215-0.748-0.326c-0.523-0.255-0.957-0.461-1.326-0.628c-4.519-2.25-8.692-5.527-11.479-9.159l3.677-0.711   l-14.201-3.988c2.465,6.188,7.208,10.793,7.208,10.793v-3.648c2.087,1.838,3.782,3.25,3.782,3.25v-0.005   c8.984,6.702,22.23,11.883,22.654,11.883s13.667-5.181,22.654-11.883v0.005c0,0,1.694-1.412,3.779-3.25v3.648   c0,0,4.745-4.605,7.209-10.793L207.442-70.784z M181.764-114.117c0-3.44,2.796-6.239,6.234-6.239c3.441,0,6.237,2.799,6.237,6.239   s-2.796,6.236-6.237,6.236C184.56-107.881,181.764-110.677,181.764-114.117z"/>
	<g>
		<path d="M354.948-86.065h-1.329h-1.294c-0.193,2.887-1.167,5.621-2.691,7.98c-1.521,2.37-3.542,4.388-5.772,6.144    c-2.24,1.76-4.692,3.262-7.247,4.646c-1.148,0.623-2.321,1.222-3.521,1.838c-1.206-0.43-3.86-2.814-3.86-5.576v-31.03    c0-1.326,0.312-1.635,1.812-1.635h13.279l0.572-3.531h-14.34c-1.081-0.074-1.324-0.454-1.324-1.62v-2.861    c1.857-1.106,3.105-3.129,3.105-5.448c0-3.499-2.836-6.336-6.336-6.341v0c0,0-0.002,0-0.003,0h-0.003v0    c-3.499,0.005-6.336,2.842-6.336,6.341c0,2.318,1.249,4.341,3.105,5.448v2.861c0,1.166-0.242,1.546-1.324,1.62h-14.34l0.573,3.531    h13.278c1.501,0,1.812,0.309,1.812,1.635v31.03c0,2.762-2.654,5.146-3.859,5.576c-1.2-0.616-2.372-1.215-3.521-1.838    c-2.554-1.385-5.007-2.887-7.247-4.646c-2.23-1.756-4.251-3.773-5.772-6.144c-1.524-2.359-2.498-5.094-2.691-7.98h-1.294h-1.329    l-1.059,6.93l3.338,0.172c0.239,0.707,0.514,1.401,0.828,2.077c1.341,2.889,3.291,5.449,5.471,7.705    c2.186,2.259,16.149,11.986,20.367,16.675v0.007c0.001-0.001,0.002-0.002,0.003-0.003c0.001,0.001,0.003,0.002,0.003,0.003v-0.007    c4.218-4.688,18.183-14.416,20.367-16.675c2.18-2.256,4.13-4.816,5.472-7.705c0.314-0.676,0.588-1.37,0.827-2.077l3.338-0.172    L354.948-86.065z M326-114.897c-1.247-0.003-2.257-1.013-2.257-2.261c0-1.247,1.01-2.257,2.257-2.26    c1.248,0.003,2.258,1.014,2.258,2.26C328.258-115.91,327.248-114.9,326-114.897z"/>
	</g>
	<path d="M489.399-70.031l1.583,1.516l-15.188,6.499c-4.566,1.556-9.401-1.12-9.48-5.942v-36.216h14.527   c0.303,0.333,0.735,0.547,1.221,0.547c0.906,0,1.646-0.737,1.646-1.648c0-0.909-0.74-1.647-1.646-1.647   c-0.485,0-0.919,0.215-1.223,0.55h-14.525v-4.294c1.772-0.86,2.998-2.675,2.998-4.78c0-2.938-2.378-5.316-5.314-5.316   c-2.938,0-5.315,2.378-5.315,5.316c0,2.108,1.229,3.924,3.004,4.783v4.291h-14.526c-0.303-0.334-0.735-0.55-1.221-0.55   c-0.906,0-1.647,0.739-1.647,1.647c0,0.911,0.741,1.648,1.647,1.648c0.485,0,0.918-0.214,1.22-0.547h14.527l0.002,36.216   c-0.08,4.822-4.918,7.498-9.482,5.942l-15.188-6.499l1.585-1.516L428.5-71.334l22.392,13.13c7.209,3.957,19.007,3.957,26.216,0   l22.393-13.13L489.399-70.031z M463.997-118.031c1.425,0,2.584,1.159,2.584,2.583c0,1.425-1.159,2.583-2.584,2.583   c-1.423,0-2.584-1.157-2.584-2.583C461.413-116.872,462.574-118.031,463.997-118.031z"/>
	<path d="M-65.448,68.051l2.656,0.774l-7.685,6.58c-1.354,1.442-4.623,2.858-6.602,2.858h-7.115   c-0.773-0.73-1.541-1.859-1.541-3.102V32.039l13.321-1.418v-1.316v-1.315l-13.321-1.419v-3.822   c1.298-0.774,2.172-2.189,2.172-3.811c0-2.449-1.987-4.436-4.436-4.438c-2.451,0.002-4.438,1.988-4.438,4.438   c0,1.621,0.873,3.036,2.171,3.811v3.822l-13.322,1.419v1.315v1.316l13.322,1.419v43.122c0,1.242-0.769,2.371-1.541,3.102h-7.116   c-1.979,0-5.248-1.416-6.601-2.858l-7.686-6.58l2.656-0.774l-9.812-5.416v7.98l3.24-0.651l8.105,8.72   c2.257,2.405,6.799,4.372,10.096,4.372h8.232c1.111,0.943,2.059,1.741,2.691,2.444c0.631-0.703,1.576-1.502,2.689-2.444h8.23   c3.297,0,7.841-1.967,10.098-4.372l8.104-8.72l3.239,0.651v-7.98L-65.448,68.051z M-87.998,17.355   c0.872,0.001,1.58,0.711,1.58,1.582c0,0.873-0.708,1.582-1.58,1.582c-0.874,0-1.583-0.709-1.583-1.582   C-89.581,18.066-88.872,17.356-87.998,17.355z"/>
	<path d="M75.508,60.325l-0.489,0.545c0.199,0.109,0.34,0.299,0.421,0.574c0.091,0.307-0.021,0.764-0.341,1.375   c-0.143,0.272-0.316,0.554-0.521,0.842l-0.016-0.023c-0.12,0.174-0.24,0.347-0.362,0.518c-0.105,0.129-0.213,0.26-0.329,0.392   l0.013,0.04c-4.563,6.162-11.52,10.451-19.487,11.469h-0.846c-1.188,0-1.433-0.244-1.433-1.292V33.692l16.051-0.014   c0.855,0,1.431,0.139,1.729,0.416c0.297,0.279,0.445,0.662,0.445,1.144h0.669v-6.264h-0.669c0,0.409-0.131,0.634-0.39,0.8   c-0.26,0.168-0.874,0.251-1.84,0.251l-0.502,0.042H53.551c-1.188,0-1.433-0.244-1.433-1.293v-2.268   c2.178-0.851,3.728-2.965,3.728-5.441c0-3.223-2.621-5.844-5.844-5.846l0,0c-0.001,0-0.001,0-0.001,0l0,0c-0.002,0-0.002,0-0.002,0   l0,0c-3.224,0.002-5.844,2.623-5.844,5.846c0,2.477,1.55,4.591,3.727,5.441v2.268c0,1.049-0.244,1.293-1.433,1.293H32.389   l-0.502-0.042c-0.966,0-1.58-0.083-1.84-0.251c-0.258-0.166-0.39-0.391-0.39-0.8h-0.669v6.264h0.669   c0-0.481,0.148-0.864,0.445-1.144c0.299-0.277,0.874-0.416,1.729-0.416l16.051,0.014v41.071c0,1.048-0.244,1.292-1.433,1.292   h-0.845c-7.969-1.018-14.925-5.307-19.488-11.469l0.013-0.04c-0.116-0.132-0.224-0.263-0.329-0.392   c-0.122-0.171-0.242-0.344-0.36-0.518l-0.016,0.023c-0.206-0.288-0.38-0.569-0.522-0.842c-0.319-0.611-0.432-1.068-0.341-1.375   c0.082-0.275,0.222-0.465,0.421-0.574l-0.488-0.545l-4.702,3.398l0.475,0.59c0.245-0.159,0.508-0.199,0.783-0.117   c0.152,0.045,0.407,0.338,0.764,0.875c0.339,0.514,2.25,2.904,2.929,3.592v-0.004c5.581,6.456,13.664,10.688,22.744,11.182   c0.31,0.174,0.396,0.511,0.396,1.127v2.609c-0.033,0.376-0.335,0.567-0.912,0.567v0.636h6.061v-0.636   c-0.577,0-0.878-0.191-0.912-0.567v-2.609c0-0.616,0.087-0.953,0.397-1.127c9.08-0.494,17.162-4.726,22.743-11.182v0.004   c0.68-0.688,2.59-3.078,2.93-3.592c0.355-0.537,0.61-0.83,0.764-0.875c0.274-0.082,0.537-0.042,0.783,0.117l0.474-0.59   L75.508,60.325z M50.001,23.308L50.001,23.308c-1.237,0-2.242-1.006-2.242-2.242s1.005-2.242,2.242-2.242l0,0   c1.235,0,2.242,1.006,2.242,2.242S51.236,23.308,50.001,23.308z"/>
	<path d="M216.348,55.874h-1.174v0.003h-0.021c-0.254,1.613-0.67,3.156-1.27,4.603c-0.602,1.444-1.369,2.797-2.275,4.042   c-1.811,2.496-4.125,4.59-6.682,6.342c-2.559,1.746-5.354,3.178-8.256,4.256c-1.424,0.525-2.873,0.984-4.322,1.303   c-0.896-0.814-1.818-2.123-1.818-3.566V30.191h14.951v-3.586h-14.951v-2.607c1.455-0.868,2.434-2.454,2.434-4.273   c0-2.746-2.227-4.975-4.975-4.977c-2.748,0.002-4.975,2.23-4.975,4.977c0,1.819,0.979,3.405,2.436,4.273v2.607h-14.928v3.586   h14.928v42.664c0,1.443-0.924,2.752-1.82,3.566c-1.451-0.318-2.898-0.777-4.324-1.303c-2.898-1.078-5.697-2.51-8.254-4.256   c-2.557-1.752-4.871-3.846-6.682-6.342c-0.908-1.245-1.674-2.598-2.275-4.042c-0.602-1.443-1.016-2.983-1.27-4.594   c0-0.001,0.002-0.008,0.002-0.008h-0.002v-0.001h-1.197v0.001l-2.455,6.879l2.977,0.153c0.326,1.15,0.76,2.277,1.293,3.349   c1.604,3.25,4.002,6.044,6.725,8.354c0.686,0.575,1.391,1.124,2.113,1.65c0.727,0.52,1.473,1.008,2.234,1.473   c1.518,0.938,3.113,1.741,4.756,2.453c1.645,0.705,3.352,1.279,5.121,1.736c0.844,0.205,1.701,0.379,2.582,0.511   c1.246,1.058,2.307,2.026,3.016,2.815c0.709-0.789,1.77-1.76,3.018-2.815c0.879-0.132,1.736-0.306,2.578-0.511   c1.77-0.457,3.479-1.031,5.121-1.736c1.645-0.712,3.238-1.516,4.758-2.453c0.76-0.465,1.51-0.953,2.234-1.473   c0.723-0.526,1.428-1.075,2.113-1.65c2.723-2.311,5.121-5.104,6.725-8.354c0.531-1.066,0.961-2.187,1.285-3.329l3.008-0.177   L216.348,55.874z M187.988,17.95c0.98,0.001,1.773,0.797,1.773,1.774c0,0.98-0.793,1.773-1.773,1.773s-1.773-0.793-1.773-1.773   C186.215,18.747,187.008,17.951,187.988,17.95z"/>
	<path d="M347.234,66.309c1.014,0.158,3.135,0.983,1.71,2.687c-0.548,0.606-1.164,1.185-1.863,1.687   c-2.527,1.819-3.899,2.818-8.797,3.427c-0.013,0.003-0.024,0.004-0.037,0.006c-9.418,1.181-9.812-7.162-9.823-11.714V30.746   c4.117,0.122,8.87,0.484,8.87,0.484c0.287,0.021,0.521-0.193,0.521-0.481v-1.874c0-0.288-0.232-0.552-0.519-0.586   c0,0-4.489-0.546-8.522-0.76c2.37-1.062,4.023-3.438,4.023-6.201c0-3.754-3.043-6.797-6.797-6.797s-6.797,3.043-6.797,6.797   c0,2.764,1.654,5.14,4.025,6.201c-4.033,0.214-8.524,0.76-8.524,0.76c-0.285,0.034-0.517,0.298-0.517,0.586v1.874   c0,0.288,0.232,0.503,0.52,0.481c0,0,4.753-0.362,8.87-0.484V62.4c-0.013,4.552-0.405,12.895-9.822,11.714   c-0.014-0.002-0.026-0.003-0.039-0.006c-4.896-0.608-6.269-1.607-8.797-3.427c-0.698-0.502-1.314-1.08-1.862-1.687   c-1.426-1.703,0.696-2.528,1.709-2.687c0,0-5.185-0.565-8.527-3.016v7.414c0.923-0.522,1.958-0.801,3.644,1.184   c0.011,0.014,0.02,0.021,0.03,0.033c1.438,1.787,3.119,3.132,4.771,4.092c4.069,2.361,19.472,3.941,21.318,9.453   c1.846-5.512,17.249-7.092,21.316-9.453c1.652-0.96,3.335-2.305,4.772-4.092c0.009-0.012,0.019-0.02,0.028-0.033   c1.687-1.984,2.724-1.706,3.644-1.184v-7.414C352.418,65.743,347.234,66.309,347.234,66.309z M326,17.942   c1.866,0,3.385,1.519,3.385,3.386c0,1.85-1.492,3.353-3.335,3.379l-0.049-0.059l-0.048,0.061c-1.845-0.027-3.337-1.531-3.337-3.381   C322.616,19.461,324.134,17.942,326,17.942z"/>
	<path d="M485.088,66.035l5.375,0.492c-0.785,1.27-1.852,2.596-3.256,3.607c-1.855,1.336-5.172,2.199-8.727,2.785   c-4.797,0.637-11.125,1.482-11.393-5.764c0-0.008,0-0.014-0.002-0.021l-0.947-25.588l14.969-1.176l1.678-2.986h-16.801l-0.26-7.018   c3.178-0.787,5.535-3.648,5.535-7.068c0-4.025-3.264-7.291-7.289-7.291c-4.027,0-7.291,3.266-7.291,7.291   c0,3.441,2.387,6.318,5.594,7.084l-0.26,7.002h-16.859l1.68,2.986l15.025,1.182l-0.947,25.615c-0.273,7.232-6.6,6.389-11.395,5.752   c-3.555-0.586-6.869-1.449-8.725-2.785c-1.406-1.012-2.471-2.338-3.258-3.607l5.377-0.492l-10.252-2.824   c0.9,6.166,4.477,9.926,7.912,11.922c3.812,2.213,21.703,3.691,23.428,8.859c1.723-5.168,19.615-6.646,23.428-8.859   c3.436-1.996,7.012-5.756,7.912-11.922L485.088,66.035z M460.121,23.299c0-2.123,1.727-3.85,3.85-3.85   c2.121,0,3.85,1.727,3.85,3.85s-1.729,3.85-3.85,3.85C461.848,27.148,460.121,25.422,460.121,23.299z"/>
</g>
</svg>