<svg xmlns="http://www.w3.org/2000/svg" xmlns:xlink="http://www.w3.org/1999/xlink" version="1.1" x="0px" y="0px" width="100px" height="100px" viewBox="0 0 100 100" enable-background="new 0 0 100 100" xml:space="preserve">
<g id="Captions">
</g>
<g id="Your_Icon">
	<g>
		<polygon points="32.188,38.371 32.188,38.385 32.186,38.384   "/>
		<polygon points="32.188,38.371 32.188,38.385 32.186,38.384   "/>
		<polygon points="32.188,38.371 32.188,38.385 32.186,38.384   "/>
		<polygon points="49.18,68.633 49.164,68.684 49.133,68.707   "/>
		<polygon points="78.334,48.172 78.238,48.309 78.23,48.301   "/>
		<g>
			<polygon points="78.334,48.172 78.238,48.309 78.23,48.301    "/>
		</g>
		<path d="M85.973,33.872l-0.109-0.054l-0.014,0.014l-0.068-0.027l0.041-0.123l0.041-0.026V33.56l-0.107-0.218l-0.137-0.067    l-0.082,0.014l-0.041,0.054l-0.107,0.027l-0.123-0.04l-0.109-0.436l0.041-0.054l-0.027-0.082l-0.041-0.055h-0.08l-0.041,0.041    l-0.191-0.068h-0.107l-0.055-0.04l-0.082-0.259l-0.014-0.067l-0.598-1.903l-0.529-0.326l-0.137-0.014h-0.137l-0.041,0.082    l-0.041,0.095H83.01l-0.191,0.095l-0.271,0.218l-0.082,0.027l-0.107-0.136l0.027-0.19l-0.055-0.081h-0.082l-0.203,0.081    l-0.436,1.481l-0.027,0.218l0.082,0.108l0.014,0.163l-0.055,0.108l-0.068,0.068L81.5,32.54l0.15,0.599l-0.082,0.19v0.163    l-0.217,0.285l-0.027,0.108l0.08,0.204l-0.012,0.027H81.27l0.014,0.149l-0.041,0.095l-0.068-0.014l-0.094-0.04l-0.123,0.108    l-0.068,0.068l-0.096,0.014l-0.08-0.027l-0.041,0.108h-0.096l-0.027,0.041l0.082,0.108l-0.055,0.326l-2.215,0.558l-1.633,0.407    l-0.025-0.054l-0.068,0.027l-0.123,0.067l-0.395,0.408l-0.393,0.544l-0.068,0.095l0.041,0.082l-0.068,0.217l-0.082,0.082    l-0.408,0.407l-0.041,0.082l0.055,0.163l0.041,0.027l0.109-0.014l0.082,0.054l0.012,0.082l-0.08,0.095l0.041,0.137l0.094,0.149    l-0.027,0.244l-0.258,0.108l-0.381,0.408L74.5,39.527l-0.652,0.189l-0.217-0.081l-0.205-0.041l-0.34,0.041l-0.354,0.067    l-0.379,0.15l-0.178,0.122l-0.068,0.204v0.149l0.258,0.285l0.041,0.041l0.027,0.136l-0.041,0.108l-0.094,0.068l-0.096,0.245    l-0.529,0.543l-0.205,0.149l-0.299,0.286l-0.055,0.027l-0.041-0.055h-0.053l-0.068,0.177l-0.246,0.218L70.6,42.626l-0.652,0.326    l-0.285,0.177l-0.109,0.096l-0.381,0.407L69.063,43.7l-0.107-0.014h-0.219l-0.121,0.026l-0.313,0.272l-0.123-0.027l-0.244-0.081    l-0.068,0.04l-0.096-0.026l0.068-0.109l-0.055-0.014l-0.189-0.027l-0.49-0.163l-0.189,0.041v-0.067l0.027-0.082l0.203-0.408    l0.082-0.108l-0.014-0.271l0.068-0.218l0.217-0.177v-0.231l0.041-0.04v-0.123l0.123-0.108l0.053,0.122l0.041,0.014l0.082-0.054    l0.041-0.055l0.027-0.122l-0.041-0.231l0.027-0.299l-0.082-0.19l-0.055-0.421l-0.381-0.993l-0.379-0.122l-0.15,0.096l-0.178,0.176    l-0.447,0.667h-0.041l-0.041-0.027l-0.176-0.068l-0.055-0.054l-0.068-0.15l0.055-0.271l0.082-0.122l0.217-0.136l0.055-0.123    l0.014-0.095l0.027-0.122l0.107-0.055l0.096-0.218v-0.435l-0.068-0.218l-0.068-0.122l-0.135-0.163l-0.041-0.082l0.027-0.108    l0.148-0.055l0.027-0.041l-0.176-0.313l-0.15-0.081l-0.447-0.177l-0.326-0.055l-0.109-0.136l-0.258-0.055l-0.244-0.081    l-0.178-0.123l-0.109,0.096l-0.135,0.055l-0.137,0.244v0.19l0.027,0.081h0.055l0.027,0.082l-0.055,0.027l-0.109,0.055    l-0.082,0.054l-0.094,0.122l-0.096,0.178l0.027,0.189l0.027,0.177l-0.109,0.204l-0.148,0.082l-0.027-0.15l0.068-0.176l-0.068-0.19    l0.027-0.068l-0.014-0.055l-0.068,0.041l-0.082,0.136l-0.027,0.163l-0.055,0.096h-0.094l-0.164,0.136l-0.055,0.122L63,38.671    l-0.135,0.163l-0.014,0.271l-0.014,0.313l-0.027,0.177l-0.109,0.231l-0.094,0.136l0.027,0.149l0.121,0.381l-0.068,0.23    l0.096,0.204l0.244,0.517l0.178,0.422v0.354l0.082,0.081v0.055l-0.055,0.054l-0.041,0.367l-0.068,0.259l-0.096,0.258l-0.217,0.503    l-0.189,0.163l-0.068,0.068l-0.082,0.067l-0.203,0.082l-0.109,0.055l-0.244,0.04l-0.178-0.136l-0.068-0.041l-0.053-0.108    l-0.082-0.381l-0.055-0.108l-0.123-0.109l-0.121-0.258v-0.313l-0.014-0.19l0.014-0.067l-0.027-0.096l0.041-0.068L61.07,41.96    l-0.082-0.639l0.137-0.435l0.068-0.096L61.18,40.37l-0.055-0.245l0.041-0.108l0.162-0.163l0.014-0.218v-0.313l0.164-0.354v-0.095    l0.041-0.164l0.082-0.108l0.176-0.435l0.027-0.218l-0.041-0.068l-0.068,0.014l-0.055,0.055l-0.053,0.108L61.561,38.1l-0.014,0.096    l0.014,0.122l-0.055,0.108l-0.096,0.082l-0.027,0.095l-0.107,0.055l-0.219,0.177l-0.203,0.381l-0.191,0.095l-0.053-0.041    l0.025-0.108l0.055-0.231l0.164-0.326l0.258-0.258l0.027-0.027l0.027-0.068v-0.19l0.176-0.271l0.082-0.149l0.082-0.245    l0.137-0.244l0.039-0.245l0.041-0.027l0.027,0.19l0.082,0.096l0.082-0.082l0.08-0.204l0.219-0.013v0.108l-0.164,0.218l0.041,0.054    l0.068,0.027l0.381-0.34l0.041-0.081l0.014-0.15l0.189-0.04l0.178,0.04l0.066-0.026l0.041-0.055l0.123-0.068h0.068l0.313-0.23    l0.107,0.054l0.096-0.026l0.449,0.054l0.176,0.163l0.082,0.027l0.041-0.055l-0.041-0.163l0.068-0.054l0.176,0.054l0.299-0.067    l0.109,0.014l0.123,0.04l0.176-0.095h0.055l0.027,0.055l0.096,0.014l0.176-0.014l0.109-0.109l-0.014-0.095l-0.068-0.068h-0.068    l-0.285,0.068l-0.258-0.122l-0.109-0.109l-0.148-0.271l-0.15-0.095l-0.34,0.04l-0.082,0.041l-0.176-0.014l-0.055,0.041    l-0.082-0.027l-0.135-0.258v-0.096l0.08-0.149l-0.053-0.068l-0.137,0.041l-0.285,0.163l-1.088,0.272l-0.34,0.244l-0.055,0.109    l-0.068,0.054v-0.054l-0.107-0.041l-0.041,0.014h-0.096l-0.107-0.055l-0.15-0.027l-0.299,0.041l-0.381-0.408l-0.477-0.203    l-0.094,0.026l-0.15-0.013l-0.217,0.176l-0.041,0.096L59.766,35.3l0.055-0.245l0.068-0.095l0.121-0.108l0.26-0.286l0.08-0.163    l0.055-0.014l0.191-0.136l-0.014-0.041l-0.096-0.026l-0.354,0.067l-0.217,0.108l-0.313,0.354l-0.137,0.027l-0.381,0.395    l-0.326,0.177l-0.461,0.177l-0.109,0.014l-0.055,0.122l-0.258,0.149l-0.123,0.082l-0.244,0.081l-0.137,0.027l-0.148-0.136h-0.123    l-0.23,0.108l0.068-0.245v-0.081l0.053-0.081v-0.137l-0.041-0.067l-0.107,0.014l-0.611,0.313l-0.326,0.19l-0.205,0.014    l-0.162-0.027l-0.123-0.068l0.816-0.748l0.57-0.625l0.148-0.122l0.354-0.149l0.178-0.177l0.162-0.068l0.219-0.054l0.395-0.231    l0.176-0.163l-0.299,0.014l-0.15,0.068l-0.176-0.123l-0.082-0.054l-0.107-0.027l-0.68,0.014l-0.123-0.149l-0.068-0.041    l-0.449,0.313l-0.176,0.041h-0.176l-0.123-0.096l-0.082-0.108l-0.271-0.068l-0.082-0.163l-0.135-0.041l-0.068,0.041l-0.137,0.163    l-0.121-0.067l-0.055-0.231l-0.055-0.055l-0.055,0.027l-0.109-0.095l0.055-0.096h-0.082l-0.326-0.095l-0.502,0.027l-0.109,0.136    l-0.34,0.014v-0.068l-0.055-0.081l-0.217-0.041l-0.203,0.027l-0.082-0.095l-0.178-0.027l-0.094,0.027l-0.258-0.19l0.012-0.231    l-0.066-0.258l-0.027-0.381l-0.246-0.096H51.76l-0.027,0.231l-0.014,0.395l-2.352,0.013l-3.9-0.108l-1.658-0.122l-2.338-0.163    l-5.52-0.571l-3.533-0.598l-3.453-0.585l-1.291-0.217l-1.102-0.218l-2.854-0.707l-1.727-0.462l-1.82-0.503l0.012,0.313    l0.014,0.163h0.15l0.014,0.245l-0.109,0.217l-0.096-0.027l-0.055,0.027l0.016,0.082l0.176,0.476l0.094,0.34l-0.012,0.095    l-0.23,0.231l-0.07,0.177l-0.066,0.082l-0.109,0.38l-0.164,0.082l-0.08-0.068v-0.067l0.041-0.068l0.012-0.082l-0.012-0.081v-0.149    l0.055-0.19l0.135-0.095l0.027-0.096l-0.027-0.421l-0.068-0.109l-0.066-0.04h-0.178l-0.203-0.123l-0.354-0.108l-0.449-0.245    l-0.855-0.598l-0.041,0.244l-0.055,0.177l-0.014,0.326l0.148,0.477l-0.027,0.149l-0.039,0.354l0.012,0.149l0.027,0.163    l-0.039,0.217v0.3l0.121-0.082l0.041,0.041v0.027l0.123,0.108l-0.176,0.041l-0.027,0.041l-0.096-0.027l-0.041,0.027l0.014,0.258    l0.096,0.027l0.055,0.108l-0.07,0.082v0.081l0.016,0.055l-0.164,0.149l-0.014-0.055l0.014-0.04l0.014-0.068l-0.014-0.122    l-0.027-0.014l-0.041,0.014v0.136l-0.041,0.095l-0.055,0.204v0.068l0.043,0.014l0.066,0.014l0.219,0.136l0.027,0.027l-0.082,0.026    l-0.137-0.04l-0.121,0.04v0.068l-0.043,0.231l-0.094,0.258l-0.246,0.748l-0.203,0.598l-0.23,0.408l-0.313,0.965l-0.285,0.53    l-0.164,0.367l-0.326,0.394l-0.053,0.014l-0.027,0.245l-0.069,0.067l-0.067,0.177l-0.068,0.096l-0.108,0.054l-0.082,0.122    l0.055,0.544l-0.108,0.272v0.149l-0.082,0.177l0.096,0.354l0.067,0.081l-0.067,0.095l-0.096,0.231l0.096,0.218l-0.041,0.476    l-0.123,0.204l-0.108,0.095l-0.041,0.218v0.108l-0.489,0.544l-0.177,0.285l0.014,0.177L14,41.647l0.026,0.218l0.055,0.163    l0.081,0.081l0.041,0.096l0.014,0.095l0.163,0.367l0.041,0.367l-0.041,0.095l-0.122,0.19L14.149,43.7l0.026,0.136l0.041,0.163    l-0.108,0.177l0.204,0.53l0.108,0.23l0.271,0.3v0.625l-0.095,0.19l0.19,0.081l0.204,0.285l0.189,0.068l0.055-0.082V46.31    l0.149-0.149l0.04,0.014l-0.026,0.244l0.026,0.191l0.096,0.313l-0.014,0.162l-0.039,0.055l-0.205-0.15l-0.027-0.066v-0.219    l-0.055-0.109l-0.054,0.027l-0.041,0.273l-0.068,0.027l0.027,0.148l-0.04,0.082l-0.014,0.584l0.081,0.205l0.218,0.189l0.217,0.096    l0.096,0.109l-0.027,0.285l-0.15,0.162l-0.08,0.027l-0.082,0.082l-0.027,0.436l0.299,0.434l0.027,0.164l0.082,0.162l0.027,0.205    l0.422,0.746l0.162,0.137l-0.014,0.178h-0.041l-0.041,0.053l0.014,0.191l0.164,0.08l0.053,0.219l-0.039,0.082l-0.041,0.189    l-0.055,0.299L16.16,52.59v0.135l0.164,0.15l0.258,0.176h0.203l0.625,0.287l0.219,0.053l0.217,0.164l0.15,0.381l0.244,0.217    l0.205,0.082l0.34,0.041l0.121,0.135l-0.014,0.096l0.055,0.109l-0.068,0.162l0.109,0.123l0.217-0.014l0.326,0.299l0.15,0.258    l0.162,0.164l0.285,0.611l0.016,0.557l-0.016,0.055l0.055,0.15h0.027l0.041,0.053l-0.027,0.016l-0.041,0.094l0.041,0.164    l0.027,0.055l3.357,0.326L23.5,58.094l5.059,2.91l2.949,0.488l1.264,0.137l0.096-0.762l2.391,0.299l0.273,0.178l0.066,0.176    l0.109,0.244l0.271,0.178l0.803,0.965l0.68,0.543l0.055,0.096l0.039,0.123l-0.012,0.148l0.055,0.082l0.148,0.244l-0.014,0.559    l0.041,0.162l0.244,0.395l1.02,0.748l0.693,0.434l0.191,0.027l0.135-0.066l0.15-0.191l0.121-0.096l0.299-0.68l0.137-0.217    l0.107-0.055l0.246,0.068l0.055-0.014l0.039-0.109l0.07-0.08l0.135,0.053l0.123,0.082l0.395,0.055l0.107,0.055l0.244,0.068    l0.137-0.055l0.313,0.176l0.068,0.178l0.053,0.027l0.027,0.066l0.055,0.016l0.137,0.08l0.176,0.244l0.301,0.26l0.148,0.23    l0.014,0.109l0.447,1.072l0.07,0.219l0.488,0.557l0.041,0.137l0.34,0.367l0.096,0.055l0.135,0.162l0.041,0.096l-0.027,0.367    l0.109,0.135l0.039,0.408l0.109,0.137l0.355,0.68l0.025,0.189l0.244,0.027l0.273,0.164l0.326,0.107l0.49,0.313l0.652,0.055    l0.135,0.014l0.354,0.244l0.176,0.082l0.164-0.203l0.148,0.041L49,72.041v-0.096l-0.148-0.055l0.027-0.055l-0.15-0.176    l-0.217-0.816l-0.109-0.326l0.164-0.488l-0.027-0.164l-0.041-0.027l-0.041-0.014l-0.027-0.027v-0.039l0.027-0.027l0.217-0.137    l0.137-0.449l-0.109-0.041l-0.041-0.217l0.109-0.135l0.148,0.107l0.213-0.152h0.002l0.047-0.074v-0.002l0.051-0.18l-0.121-0.094    l0.055-0.109l0.055,0.027l0.066,0.014l0.055-0.068l0.082,0.041h0.082l0.066-0.027l0.016-0.055V67.99l0.027-0.055l0.066-0.014    l0.027,0.027l0.068,0.014l0.367-0.096l0.041-0.014l0.014-0.068l-0.027-0.041l-0.189-0.107v-0.082l0.338-0.096l0.055-0.066    l0.096-0.027l0.027,0.027l-0.041,0.039l0.055,0.096h0.055l0.066-0.055l0.531-0.162l0.883-0.57l0.041-0.219l0.408-0.354    l0.014-0.055l-0.178-0.244l0.041-0.189l0.271-0.109h0.055l-0.041,0.217l0.027,0.068l0.313-0.041l0.055,0.082l0.625-0.271    l0.367-0.041l0.014-0.014l-0.014-0.041l1.02-0.148l0.449,0.176l0.775,0.137l0.447-0.014l0.055-0.055l-0.137-0.15l0.287-0.258    h0.094l0.027,0.109l0.041,0.027l0.164,0.027l0.053-0.027l0.096,0.027l-0.027,0.08l0.027,0.027l0.014,0.027h0.055l0.082,0.137    l0.203,0.096l0.203,0.039l0.367,0.449l0.246,0.055l0.08,0.055l0.232-0.014l0.203-0.219l0.068-0.014l0.068,0.068l0.148-0.055    l0.068,0.014l0.123,0.178l0.094,0.027l0.232-0.164L59.889,66.1l-0.041-0.039l0.068-0.313l0.121-0.068l0.082,0.053l0.055,0.15    l0.449,0.178l0.23,0.107l0.041,0.326l0.395-0.176l0.107-0.027l0.055-0.123l-0.068-0.096l-0.516-0.203l-0.299-0.176l-0.082-0.123    l0.014-0.162l0.23-0.164l0.219-0.285l0.135-0.096l0.014-0.096l-0.041-0.066l0.041-0.123l-0.068-0.096h-0.066l-0.109,0.055    l-0.299,0.123l-0.123,0.217l-0.068,0.068l-0.08-0.027l-0.109-0.055l-0.027-0.109l0.109-0.094l0.041-0.068l-0.014-0.068    l-0.082,0.014h-0.178l-0.107,0.055l-0.164,0.109l-0.299,0.027l-0.137-0.041l-0.107-0.137l0.014-0.123l0.258-0.23l0.096-0.055    l0.094,0.014l0.354,0.164l0.395,0.08l0.191,0.014l0.285-0.244l0.666-0.203l0.162,0.055l0.232-0.082l0.039,0.068l0.15,0.041    l0.055-0.027l0.068-0.055l0.08-0.055l0.232,0.082l0.055-0.109l0.039-0.367l0.096-0.258l0.15,0.258l-0.014,0.096l0.068,0.203    l0.162,0.232l0.15,0.012l0.121-0.012l0.178-0.191l0.041-0.014v0.109l0.039,0.027l0.219-0.068l0.068-0.055l0.107-0.271l0.096,0.027    h0.082l0.041-0.027l0.066,0.014l-0.012,0.055l-0.15,0.121l0.027,0.027l0.123-0.055l0.176-0.012l0.693-0.232h0.096v0.055    l-0.123,0.109l0.055,0.027l0.299,0.027l0.285,0.107l0.313,0.164l0.082,0.014l-0.014-0.096l0.068-0.055l0.066,0.082l0.178,0.055    l0.041,0.027l0.014,0.027l-0.068,0.039l0.027,0.055l0.381,0.285l0.027,0.109l-0.014,0.096l-0.027,0.068l-0.055-0.055l-0.027-0.068    l-0.027,0.068l0.014,0.082l0.082,0.025l0.529-0.148l0.027-0.068l0.191-0.014l0.434-0.354h0.285v-0.068l-0.039-0.066l0.08-0.191    l0.463-0.055l0.693,0.354l0.014,0.096l0.176,0.137l0.15,0.23l0.436,0.313l0.053,0.123l0.123,0.107l0.326-0.014l0.258,0.381    l0.068,0.055l-0.027,0.109l0.109,0.381l-0.041,0.434l-0.109,0.449l0.014,0.367l0.055,0.121l0.258,0.178l0.082-0.15L71.4,67.393    l-0.066-0.246l0.012-0.041l0.15-0.025l0.109,0.23h0.068l0.025-0.123l0.041-0.027l0.068,0.055l-0.014,0.109l-0.068,0.121    l-0.066,0.109l-0.096,0.285l-0.082,0.041v0.137l0.096,0.107l0.148,0.137l0.232,0.516l0.367,0.232l0.039-0.014l0.014-0.123h0.109    l0.082,0.219l0.014,0.121l0.121,0.271l0.15,0.096l0.162,0.055l0.273,0.734l0.066,0.041l0.367,0.08l0.15,0.082l0.408,0.504    l0.176,0.135h0.068l0.109,0.055l0.027,0.096l-0.082,0.027l-0.068-0.027h-0.041l-0.055,0.027l-0.014,0.066l0.055,0.068l0.205,0.041    l0.107-0.068l0.164-0.014l0.598-0.23l0.137-0.244l0.014-0.055l-0.082-0.326l0.014-0.164l0.121-0.285l0.123,0.027l-0.15-0.598    l0.041-0.299l-0.025-0.557l-0.123-0.449l-0.082-0.164l-0.422-0.543l-0.258-0.611l-0.326-0.436l0.014-0.055L74.5,66.387    l-0.109-0.232v-0.107l0.109-0.15v-0.068l-0.422-0.584l-0.244-0.23l-0.162-0.096l-0.041-0.082l-0.273-0.367l-0.365-0.652    l-0.096-0.381l-0.23-0.529v-0.096l-0.096-0.082l-0.055-0.039l-0.041-0.381l-0.055-0.137l-0.041-0.285l-0.053-0.15v-0.189    l0.027-0.15l0.203-0.598l0.041-0.258l0.096-0.244l0.121-0.244l0.123-0.123l0.068-0.027l0.027-0.082l-0.109-0.027v-0.068    l0.041-0.094l0.121-0.123l0.068-0.041l0.014-0.068l-0.027-0.025l-0.055-0.014l-0.027-0.041l0.014-0.027l0.027-0.027h0.109    l0.109-0.109l0.066-0.135l0.027-0.027l-0.014-0.055l0.041-0.055l0.082-0.027l0.137-0.068l0.08-0.066l0.109-0.109l0.164-0.123    l0.121-0.107l0.137-0.205l0.23-0.162l0.068-0.123l0.096-0.15l0.094-0.107l0.068-0.082l0.123-0.014l0.041-0.082l0.055-0.055v-0.352    l0.066-0.191l0.123-0.271l0.176-0.217l0.123-0.178l0.15-0.096l0.066-0.041l0.055-0.053l0.572-0.109l0.135-0.055l0.068-0.109    l0.082-0.406l0.148-0.34l0.15-0.191l0.271-0.176l-0.014-0.014v-0.055l0.109-0.014l0.23-0.395l0.285-0.041l0.096-0.055l0.244-0.039    l0.205-0.232l0.094-0.217l-0.094-0.082l-0.068-0.027l-0.027,0.096l-0.258,0.123l-0.178,0.053l-0.285,0.014l-0.096-0.066    l0.014-0.055H77.6l0.148,0.055l0.082-0.014l0.258-0.326l-0.039-0.068l0.066-0.123l-0.094-0.107l-0.096-0.014l-0.068-0.096    l0.027,0.027l0.041-0.068l-0.041-0.203l0.041-0.041l0.055,0.014l0.041,0.041v0.053l0.039,0.109h0.027l0.027-0.027l0.082,0.027    l0.23,0.014l0.109-0.068l0.096-0.041l0.135-0.107l0.027-0.068l0.041-0.109l0.178-0.135v-0.055l-0.027-0.082l-0.027-0.271    l-0.068-0.164h-0.109l-0.121,0.15l-0.027,0.068l-0.082,0.027l-0.055-0.041l-0.027-0.055l0.027-0.123l-0.027-0.027l-0.203-0.014    l-0.123,0.082l-0.217,0.055l-0.217,0.109l-0.068,0.014L77.6,51.992v-0.041l0.041-0.137l0.203-0.027l0.191-0.189l0.326-0.15    l0.014-0.041l-0.041-0.066l0.055-0.014l0.066,0.027h0.068l0.109-0.027l0.014,0.053h0.055l-0.014-0.014l0.027-0.053l-0.068-0.164    l-0.055-0.055l-0.055-0.08l-0.068-0.027l-0.094-0.055l-0.027-0.055l-0.055-0.068l-0.014-0.068h0.027l0.121-0.107l-0.162-0.477    l-0.014-0.027h-0.354l-0.15,0.109L77.6,50.293l-0.123-0.109l-0.135-0.068v-0.082l0.203,0.068h0.082l0.162-0.162l-0.041-0.082    L77.6,49.803l-0.164-0.014l-0.066-0.055l0.014-0.039h0.053l0.109-0.043v-0.066l-0.041,0.012l-0.068-0.08l0.027-0.082l0.191,0.041    l0.041-0.055l0.014-0.066l-0.082-0.178l-0.244-0.107v-0.027L77.449,49l0.041-0.039l-0.041-0.219l0.082-0.066l0.014-0.07    l-0.123-0.135l-0.217-0.068l-0.313-0.162l-0.055-0.014l-0.096,0.055l-0.053-0.016l-0.109-0.094l-0.068-0.014v-0.055l0.178-0.041    l0.203,0.014l0.285,0.096l0.137,0.068l0.055-0.014l0.014-0.055l-0.068-0.068L77.191,47.9l-0.123-0.027l-0.012-0.027l0.012-0.055    h0.041l0.055-0.068l-0.148-0.055l-0.109-0.176l-0.096-0.299l-0.027-0.123l-0.027-0.176l0.055-0.301L76.797,46.5l-0.055-0.055    l-0.014-0.082l0.027-0.067l0.041-0.067l0.041-0.109l0.23-0.177l0.041-0.054l0.068-0.231l0.15,0.014l0.055,0.081l-0.109,0.19    l-0.082,0.136l-0.082,0.109l-0.066,0.149l0.066,0.149l0.109,0.041l0.068,0.326l-0.014,0.055l-0.178,0.107l0.027,0.068l0.15,0.055    l0.041,0.068l-0.041,0.148l0.041,0.082l-0.014,0.082l0.082,0.191l0.189,0.135h0.096l0.066-0.055h0.109l0.055,0.027l-0.027,0.107    l0.109,0.191v0.068l0.068,0.107l0.162-0.012l0.02,0.02l0.104-0.129l-0.096,0.137l-0.008-0.008l-0.006,0.008l0.041,0.012    l0.014,0.15l-0.014,0.082l-0.109,0.123l-0.055,0.107l-0.041,0.271l0.041,0.246v0.258l0.068,0.189l0.041-0.258l0.082-0.258    l0.162-0.381l0.068-0.164l0.041-0.148l-0.014-0.219l0.014-0.08l0.189-0.15l0.027-0.066l0.014-0.07l0.027-0.107l0.109-0.572    l-0.014-0.053l-0.027-0.162l-0.096-0.246l-0.162-0.164l-0.244-0.162l-0.082-0.107l-0.055-0.11l-0.191-0.326l-0.08-0.136    l-0.15-0.177l-0.055-0.122l-0.014-0.109l0.014-0.013l0.055-0.027l0.082,0.149l0.109,0.136l0.094,0.108l0.313,0.163l0.096,0.027    l0.217,0.041l0.082,0.014l0.014,0.204l-0.014,0.136l0.082,0.067l0.082-0.095l0.094-0.204l0.014-0.19l0.137-0.244l0.082-0.204    l0.189-0.271l0.082-0.204l0.082-0.19v-0.136l-0.041-0.571l-0.055-0.462l-0.096-0.136l-0.189,0.055l-0.068,0.054l-0.068-0.027    l-0.027-0.026l0.027-0.068l0.178-0.163l0.107,0.014h0.246l0.08-0.068l0.232-0.054l0.326-0.164l0.148-0.149l0.625-0.421    l0.164-0.108l0.137-0.109l0.107-0.04l0.068-0.082l0.137-0.082l0.08-0.054l0.068-0.149l0.014-0.055L81.84,41.77l-0.135,0.136    l-0.137,0.041l-0.164,0.068l-0.094,0.081l-0.055,0.109l-0.15,0.067l-0.025-0.041l0.053-0.108l0.109-0.122l0.123-0.204    l-0.041-0.041l-0.109,0.109l-0.068,0.108l-0.094,0.095l-0.354,0.19L80.25,42.49l-0.367,0.177l-0.137,0.067l-0.135,0.19    l-0.082-0.054l-0.027-0.137l0.055-0.163l0.123-0.095l0.176-0.096l0.449-0.38l0.189-0.218l0.041,0.055l0.326-0.149l0.23-0.041    l0.041-0.014v-0.068l0.041-0.04l0.109,0.014l0.395-0.164l0.148-0.026l0.068,0.014l0.244-0.163l0.15-0.137v-0.108l-0.041-0.067    v-0.164l0.109-0.108l0.039,0.041v0.299l0.041,0.068l0.082-0.014v-0.122h0.055l0.082-0.082l0.121-0.014l0.014-0.014l0.041-0.055    l0.164-0.189l0.121-0.218h0.041l0.041,0.149v0.082l0.041,0.026h0.068l0.217-0.19l0.219-0.095l0.148-0.108l0.123,0.095l0.014-0.149    l-0.123-0.299l-0.203-0.299h-0.178l-0.014,0.081l0.164,0.068l0.121,0.122l0.055,0.041l-0.107,0.203l-0.178,0.082l-0.313-0.014    l-0.123-0.149l-0.094-0.177l-0.273-0.271l-0.162-0.096h-0.178l-0.012-0.095l0.053-0.19l0.082-0.149l0.082-0.055l0.027-0.054    l-0.041-0.082l-0.178-0.136l-0.053-0.204v-0.231l0.027-0.04l0.025-0.068l0.027-0.163l0.027-0.218l0.109-0.217l0.068-0.326    l0.135-0.123l0.014-0.067l-0.066-0.041l-0.068-0.19l0.326-0.299l0.055,0.041l0.053,0.136l0.041,0.04l0.041-0.054v-0.149    l0.027-0.082l0.244-0.027l0.109-0.108v-0.108l0.041-0.055h0.123l0.094-0.055l0.041-0.054l0.055-0.218l-0.027-0.163l0.162-0.177    v-0.108h0.068l0.178,0.026l0.082-0.04l0.053-0.096l0.068-0.163l0.068-0.014l0.109-0.189l0.189,0.013l0.137,0.137l0.189-0.34    l0.164-0.082l0.258-0.231l0.068-0.122l0.041-0.027h0.066l0.123-0.067L86,33.981L85.973,33.872z M32.188,38.385l-0.002-0.001    l0.002-0.013V38.385z"/>
		<polygon points="49.91,68.004 49.123,68.969 49,68.914 49.131,68.707 49.133,68.707 49.18,68.633 49.18,68.631 49.23,68.547   "/>
		<polygon points="18.391,55.906 18.689,56.436 18.539,56.436 18.391,55.906   "/>
		<polygon points="17.07,53.555 17.465,53.826 17.18,53.881 17.07,53.555   "/>
		<polygon points="16.555,53.582 16.73,53.541 16.84,53.771 16.555,53.582   "/>
	</g>
</g>
</svg>