<svg xmlns="http://www.w3.org/2000/svg" xmlns:xlink="http://www.w3.org/1999/xlink" version="1.1" id="Calque_1" x="0px" y="0px" width="100px" height="100px" viewBox="0 0 100 100" enable-background="new 0 0 100 100" xml:space="preserve">
<g>
	<path d="M95.125,15.84c-0.213-0.537-0.82-0.802-1.359-0.588L6.931,49.684c-0.537,0.214-0.8,0.821-0.588,1.359   c0.163,0.411,0.558,0.662,0.975,0.662c0.128,0,0.258-0.024,0.386-0.074l23.527-9.328c-0.016,0.098-0.03,0.195-0.03,0.298   c0,1.085,0.879,1.964,1.963,1.964c0.671,0,1.261-0.337,1.615-0.85v14.847c-3.473,0.058-7.56,0.52-12.034,2.147   c-1.964,0.589-2.971,4.124-2.971,4.124h31.592c0,0-1.006-3.535-2.97-4.124c-4.479-1.629-8.572-2.091-12.047-2.147V42.749   c0.312,0.209,0.688,0.331,1.092,0.331c1.084,0,1.963-0.878,1.963-1.963c0-0.715-0.386-1.334-0.955-1.677l56.09-22.24   C95.074,16.986,95.338,16.378,95.125,15.84z"/>
	<path d="M35.548,72.294H19.773c0.981,5.039,2.618,8.312,4.844,9.751c2.138,1.384,6.001,1.571,10.952,1.571   s8.813-0.188,10.952-1.571c2.225-1.439,3.861-4.712,4.843-9.751H35.592H35.548z"/>
</g>
</svg>