<svg xmlns="http://www.w3.org/2000/svg" xmlns:xlink="http://www.w3.org/1999/xlink" version="1.1" id="Calque_1" x="0px" y="0px" width="100px" height="100px" viewBox="0 0 100 100" enable-background="new 0 0 100 100" xml:space="preserve">
<g>
	<path d="M84.536,71.662c-0.177-0.481-0.76-1.733-3.077-6.648c-5.168-10.956-18.894-40.058-18.93-44.579V9.146   c0-0.011,0.003-0.021,0.003-0.031c0-3.138-4.678-4.779-9.299-4.779c-4.623,0-9.302,1.642-9.302,4.779   c0,0.007,0.002,0.014,0.002,0.021v11.287c-0.036,4.529-13.788,33.61-18.965,44.557c-2.991,6.325-3.115,6.614-3.184,6.973   c-0.001,0.004-0.001,0.007-0.002,0.011c-0.778,1.666-1.172,3.364-1.172,5.053c0,10.63,14.302,18.957,32.561,18.957   c18.258,0,32.561-8.327,32.561-18.957C85.73,75.044,85.34,73.292,84.536,71.662z M53.233,7.335c4.023,0,6.153,1.292,6.297,1.757   c0,0.003-0.001,0.005-0.001,0.008v0.005c-0.146,0.5-2.275,1.789-6.296,1.789c-4.027,0-6.159-1.293-6.3-1.757v-0.01   C47.075,8.628,49.207,7.335,53.233,7.335z M53.17,92.973c-16.3,0-29.561-7.158-29.561-15.957c0-1.351,0.352-2.73,1.046-4.102   c0.08-0.158,0.126-0.325,0.143-0.495c0.375-0.855,1.55-3.339,2.882-6.157c9.978-21.1,19.217-41.254,19.253-45.827v-7.719   c1.738,0.778,4.024,1.178,6.3,1.178c2.274,0,4.559-0.399,6.296-1.177v7.73c0.037,4.564,9.257,24.732,19.216,45.846   c1.489,3.158,2.779,5.893,2.963,6.368c0.025,0.087,0.059,0.171,0.1,0.252c0.621,1.229,0.923,2.571,0.923,4.103   C82.73,85.814,69.47,92.973,53.17,92.973z"/>
	<path d="M53.176,25.354c1.877,0,3.652-0.263,5.135-0.76c0.521-0.175,0.801-0.738,0.626-1.258s-0.734-0.801-1.259-0.626   c-1.263,0.424-2.861,0.657-4.502,0.657c-0.549,0-0.994,0.445-0.994,0.994S52.627,25.354,53.176,25.354z"/>
	<path d="M73.137,58.524c-0.546,1.184-1.614,2.275-3.098,3.231l5.115,16.82c0,0-0.459,2.822-3.223,1.375   c-0.026-0.037-2.545-8.185-5.138-16.587c-3.654,1.432-8.515,2.301-13.94,2.301c-4.792,0-9.451-0.701-13.117-1.973   c-0.469-0.163-0.718-0.675-0.555-1.145c0.164-0.468,0.678-0.713,1.144-0.555c3.482,1.208,7.931,1.873,12.528,1.873   c5.508,0,10.123-0.884,13.421-2.188c-1.215-3.937-2.407-7.806-3.336-10.817c-2.78-0.673-6.083-1.098-9.769-1.098   c-11.05,0-17.696,3.605-18.708,6.043l-0.063,0.141l-8.391,17.574c-0.618,1.224-0.917,2.378-0.917,3.494   c0,7.847,12.858,14.475,28.079,14.475c15.22,0,28.078-6.628,28.078-14.475c0-1.116-0.298-2.271-0.886-3.434L73.137,58.524z"/>
	<path d="M71.755,56.688c0-1.233-0.953-2.272-1.825-2.969c-0.751-0.524-1.691-1.03-2.79-1.496l2.361,7.764   C70.953,58.95,71.755,57.808,71.755,56.688z"/>
</g>
</svg>