<svg xmlns="http://www.w3.org/2000/svg" xmlns:xlink="http://www.w3.org/1999/xlink" version="1.1" id="Calque_1" x="0px" y="0px" width="100px" height="100px" viewBox="0 0 100 100" enable-background="new 0 0 100 100" xml:space="preserve">
<g>
	<circle cx="14.905" cy="56.11" r="1.031"/>
	<path d="M86.769,33.636H35.475c-3.259,0-5.917,2.623-5.974,5.869l-0.854,10.59c-4.535-0.208-8.306-1.016-10.689-1.527   c-1.463-0.313-2.346-0.502-3.051-0.502c-4.422,0-8.019,3.605-8.019,8.036c0,4.43,3.597,8.034,8.019,8.034   c0.705,0,1.588-0.19,3.052-0.503c2.382-0.51,6.151-1.318,10.685-1.527l0.857,10.844c0.056,3.246,2.714,5.869,5.974,5.869h51.293   c3.296,0,5.976-2.68,5.976-5.975V39.611C92.744,36.316,90.064,33.636,86.769,33.636z M88.018,72.844   c0,0.688-0.561,1.248-1.249,1.248H35.475c-0.688,0-1.249-0.56-1.249-1.248c0-0.062-0.002-0.124-0.008-0.187L33.18,59.506   c-0.097-1.229-1.123-2.178-2.356-2.178c-6.001,0-10.917,1.055-13.855,1.684c-0.844,0.181-1.801,0.386-2.062,0.397   c-1.815,0-3.292-1.483-3.292-3.308s1.477-3.309,3.275-3.311c0.277,0.014,1.234,0.218,2.079,0.398   c2.938,0.63,7.854,1.683,13.855,1.683c1.231,0,2.257-0.946,2.355-2.174l1.039-12.897c0.005-0.063,0.008-0.126,0.008-0.189   c0-0.688,0.56-1.249,1.249-1.249h51.293c0.688,0,1.249,0.56,1.249,1.249V72.844z"/>
	<path d="M30.715,23.163c0.244,0.099,0.464,0.303,0.698,0.519c0.296,0.272,0.602,0.554,1.016,0.696   c0.459,0.157,0.978,0.163,1.479,0.169c0.445,0.005,0.865,0.01,1.225,0.112c0.358,0.102,0.708,0.297,1.078,0.504   c0.429,0.24,0.873,0.488,1.366,0.605c0.637,0.151,1.302,0.163,1.944,0.173c0.571,0.009,1.11,0.018,1.63,0.117   c0.481,0.091,0.938,0.273,1.423,0.465c0.525,0.209,1.069,0.425,1.65,0.516c0.586,0.091,1.356,0.089,2.135,0.061   c0.599-0.019,1.19-0.042,1.748,0.026c0.567,0.069,1.148,0.245,1.709,0.415c0.594,0.179,1.206,0.365,1.802,0.421   c0.152,0.015,0.305,0.021,0.454,0.021c0.466,0,0.909-0.06,1.339-0.118c0.48-0.065,0.926-0.128,1.354-0.095   c1.009,0.072,1.925,0.13,2.726,0.173c1.589,0.082,2.73-0.354,3.287-0.63c0.16,0.121,0.341,0.216,0.553,0.244   c0.496,0.063,12.195,1.562,17.136,1.562c5.019,0,11.245-1.642,11.509-1.712c0.326-0.087,0.602-0.309,0.756-0.61   c0.153-0.301,0.173-0.654,0.051-0.971l-1.553-4.059c-0.162-0.424-0.551-0.72-1.002-0.762c-0.209-0.02-5.14-0.483-6.73-0.483H63.395   c-1.468,0-2.243,0.423-2.585,0.683H28.021c-0.15,0-0.281,0.102-0.318,0.247c-0.038,0.145,0.028,0.297,0.16,0.37   C28.712,22.29,29.673,22.741,30.715,23.163z M60.354,21.863c-0.031,0.108-0.065,0.216-0.065,0.331v4.179   c0,0.144,0.028,0.28,0.075,0.409c-0.525,0.239-1.511,0.576-2.838,0.505c-0.798-0.042-1.712-0.099-2.714-0.171   c-0.49-0.035-1,0.033-1.49,0.099c-0.533,0.072-1.078,0.149-1.644,0.095c-0.528-0.05-1.084-0.219-1.672-0.397   c-0.589-0.178-1.197-0.362-1.821-0.438c-0.284-0.035-0.59-0.051-0.962-0.051c-0.292,0-0.589,0.01-0.888,0.02   c-0.736,0.026-1.471,0.031-2.012-0.053c-0.507-0.08-0.994-0.273-1.508-0.478c-0.491-0.195-1-0.397-1.543-0.5   c-0.576-0.109-1.168-0.119-1.743-0.129c-0.635-0.01-1.235-0.02-1.802-0.155c-0.404-0.097-0.79-0.312-1.197-0.54   c-0.387-0.216-0.788-0.44-1.219-0.562c-0.445-0.126-0.929-0.132-1.396-0.138c-0.47-0.006-0.915-0.011-1.273-0.134   c-0.283-0.097-0.526-0.321-0.783-0.558c-0.267-0.246-0.542-0.5-0.897-0.644c-0.551-0.223-1.077-0.455-1.575-0.691H60.354z"/>
</g>
</svg>