<svg xmlns="http://www.w3.org/2000/svg" xmlns:xlink="http://www.w3.org/1999/xlink" version="1.1" id="Calque_1" x="0px" y="0px" width="100px" height="100px" viewBox="0 0 100 100" enable-background="new 0 0 100 100" xml:space="preserve">
<g>
	<path d="M43.293,92.523c0,0-1.231-9.126-0.685-9.673s1.23-0.684,1.23-0.684s3.148,4.651,9.713,4.516   c1.368,0.136,1.368,1.095,1.368,1.095s0.41,2.556,0.82,4.746H43.293z"/>
	<path d="M60.94,87.365c0-0.107-0.013-0.205-0.035-0.291c-0.522-3.963-1.662-1.115-1.853-0.604   c-0.141,0.021-0.286,0.044-0.439,0.075c-1.366,0.273-1.503,0.138-2.598,0.411s-0.684,2.872-0.684,2.872   c-0.138,0.956,0.409,2.695,0.409,2.695h5.199C61.351,89.925,60.94,88.324,60.94,87.365z"/>
	<path d="M54.332,80.515c0,0,1.914,2.554,3.1,2.279c1.186-0.272,2.92-3.192,3.011-4.287c0.092-1.095-1.732-2.826-2.918-2.097   C56.339,77.142,55.244,79.692,54.332,80.515z"/>
	<path d="M56.612,83.89c0,0-1.643-2.646-2.919-2.554c-1.278,0.09-2.829,0.912-3.193,1.368c-0.365,0.457,0.091,1.003-0.456,1.55   c0,0,1.002,2.006,3.192,1.551C55.426,85.349,56.886,84.893,56.612,83.89z"/>
	<path d="M50.044,84.254c0,0-2.645,1.367-6.02-2.554c0.091,0.273-1.458-0.364-1.458-1.644c0-1.276,1.915-3.099,3.648-3.281   c1.003,0,1.094,1.458,1.094,1.458s0.455,0.639,1.276,1.005c0.821,0.363,1.46,1.003,1.46,2.006   C50.044,82.248,50.773,83.161,50.044,84.254z"/>
	<path d="M47.673,76.502c0,0,0.09,5.836,2.371,5.198c2.28-0.639,3.01-1.004,2.644-2.462c-0.364-1.46-0.637-3.924-0.637-4.471   s-0.731-2.189-1.825-2.279c-1.095-0.092-2.063,0.014-2.279,1.095C47.673,74.951,47.491,75.134,47.673,76.502z"/>
	<path d="M51.868,74.404c0,0-0.092-1.005,0.456-1.916c0.548-0.913,0.364-1.824,1.096-2.007c0.729-0.182,2.553,2.007,3.646,2.462   c1.096,0.456,2.372,0.273,2.19,1.095c-0.183,0.822-2.19,1.735-3.466,3.193c-1.277,1.458-1.095,2.554-2.098,2.28   C52.688,79.238,52.234,77.412,51.868,74.404z"/>
	<path d="M44.115,72.853c0,0,0.184-0.364,0.913,0.091c0.729,0.456,1.824,0.729,1.824,1.732c0,1.005-0.184,0.821-0.912,1.368   c-0.729,0.548-2.828,2.281-3.922,2.463c-1.095,0.183-2.736,0.092-2.918-1.186s-0.912-1.824-0.273-2.28   c0.639-0.455,0.456-0.547,1.916-0.912C42.201,73.765,43.477,73.399,44.115,72.853z"/>
	<path d="M41.654,64.463c0,0-0.365,7.021-1.277,8.937c-0.912,1.915-0.183,2.828,0.365,2.736c0.547-0.092,1.094-0.821,2.371-1.46   c1.276-0.638,3.375-0.455,4.013-1.093c0.637-0.64,1.368-1.187-0.457-4.561c-1.824-3.374-2.28-8.208-2.554-11.856   c-0.272-3.648-0.912-6.75-0.638-7.936c0.274-1.185,1.095-2.463,0.456-4.286c-0.637-1.825-1.823-3.102-2.917-2.646   c-1.094,0.456-3.01,1.916-2.918,3.739c0.091,1.825,1.368,3.741,1.55,5.2C39.829,52.695,41.835,62.183,41.654,64.463z"/>
	<path d="M36.819,74.221c0,0,1.277,0.64,1.733,0.273c0.456-0.365,1.186-1.004,2.189-1.277c1.003-0.273,1.642-1.002,1.094-1.732   c-0.547-0.729-2.644-1.55-3.557-3.647c-0.911-2.098-2.827-6.749-2.645-9.395c0.183-2.644-2.462-2.098-2.462-2.098   s-2.645,1.094-2.554,2.279c0.091,1.187,1.003,2.646,1.552,3.832c0.547,1.185,3.009,7.022,3.283,8.391S35.816,73.49,36.819,74.221z"/>
	<path d="M27.06,44.762c0,0-0.547,0.729-0.182,1.641c0.364,0.912,2.554,4.744,2.735,5.929c0.182,1.187,0.091,4.652,1.277,4.744   c1.187,0.091,2.007-1.46,2.828-1.276c0.821,0.182,1.824-0.823,1.46-1.735c-0.365-0.912-3.648-4.194-4.197-6.565   c-0.547-2.372-0.547-4.013-1.186-4.013C29.158,43.485,27.516,43.758,27.06,44.762z"/>
	<path d="M25.875,38.833c0,0,1.003,2.006,0.729,2.917c-0.273,0.912-0.638,2.191,0.456,2.281c1.095,0.091,4.196-1.095,3.466-2.098   c-0.73-1.003-1.916-2.829-2.736-3.921c-0.821-1.095-2.28-4.015-3.101-3.375c-0.822,0.64,0,2.007,0,2.007L25.875,38.833z"/>
	<path d="M36.911,33.542c0,0,0.638,5.107,0.182,6.203c-0.456,1.094-0.182,3.009,0.73,3.101c0.912,0.091,1.642-1.186,2.918-1.186   c1.276,0,3.009,0.456,2.646-1.095c-0.366-1.551-2.828-3.831-2.828-7.569c0-3.74-0.821-3.922-0.821-4.744   c0-0.82,0.274-1.185-0.182-1.915c-0.457-0.729-0.184-1.916-1.278-1.278c-1.094,0.64-1.459,0.64-2.006,0.549   c-0.547-0.091-0.639,0.091-0.82,0.912c-0.183,0.821-0.365,1.276,0.364,2.828C36.546,30.898,36.911,33.086,36.911,33.542z"/>
	<path d="M35.269,14.937c0,0-1.277,0-1.186,0.82c0.091,0.822,0.82,1.55,0.82,2.371c0,0.821-0.091,4.379-0.547,5.292   c-0.456,0.912,0.273,2.004,0.729,1.914s0.955-0.279,1.733-0.182c0.729,0.091,1.277-0.274,1.916-0.093   c0.638,0.184,1.186-1.094,0.821-1.823c-0.365-0.729-1.552-2.646-1.552-4.105c0-1.46,0.548-2.188,0.183-3.008   c-0.364-0.822-0.456-1.278-0.456-1.278S36.272,15.393,35.269,14.937z"/>
	<path d="M34.083,14.663c0,0-0.273,0,0.183-1.094c0.456-1.094,0.547-2.829,0.638-3.831c0.092-1.003,0.274-2.28,0.912-1.734   c0.639,0.548,1.095,0.639,1.095,1.551c0,0.912,0.091,2.097,0.364,2.737c0.273,0.639,1.096,1.003,0.639,1.916   c-0.456,0.911-2.006,1.094-2.645,0.729C34.63,14.572,34.083,14.663,34.083,14.663z"/>
	<path d="M48.676,72.215c0,0-1.003-1.095-1.459-2.827c-0.371-1.413-0.365-0.731,0.091-1.917c0.354-0.92,1.459-7.022,1.186-15.412   c0,0-0.546-2.463-1.276-3.74c-0.729-1.276-0.275-3.102-0.275-3.102s1.095-2.462,2.463-2.462c1.368,0,3.009,0.274,3.375,1.733   c0.365,1.458,0.547,1.458,0.639,2.279c0.09,0.822,0.09,0.912-0.548,2.099c-0.638,1.186-1.552,8.664-1.552,11.856   c0,3.193,0.183,5.474,0.274,6.295c0.092,0.82,0.457,2.098,0.457,2.645s-0.092,1.003-0.822,1.642   C50.5,71.939,49.954,72.305,48.676,72.215z"/>
	<path d="M47.4,35.915c0,0-0.274,3.556-0.821,5.016c-0.547,1.459,0.821,2.28,1.277,2.098c0.455-0.183,1.55-0.912,2.462-0.73   c0.912,0.183,3.01,1.368,2.737-0.82c-0.273-2.189-2.099-3.193-2.008-6.658c0.092-3.466,0.092-7.479,0.092-8.208   c0-0.729,0-1.003-0.183-1.733c-0.183-0.729-0.183-1.002-0.546-1.185c-0.366-0.183-0.731,0.273-1.551,0.183   c-0.821-0.092-1.368-0.639-1.642,0.09c-0.275,0.73-0.638,1.277-0.638,2.189s0.547,1.186,0.547,2.462S47.856,33.542,47.4,35.915z"/>
	<path d="M47.217,16.124c0,0-0.548,3.92-1.094,5.197c-0.547,1.277,0,1.733,0.546,1.824c0.548,0.092,2.098,0.275,2.737,0.183   c0.639-0.091,1.278,0.457,1.733-0.273c0.456-0.729,0.456-1.095,0.091-2.007c-0.365-0.912-1.185-5.837-0.912-6.84   c0.273-1.003,0.547-1.277,0.273-1.824c-0.273-0.548-0.091-0.548-0.729-0.731c-0.639-0.181-2.006-0.364-2.554-0.456   c-0.546-0.09-0.639,0.548-0.639,0.912c0,0.366,0.093,0.912,0.273,1.551C47.126,14.298,47.4,15.21,47.217,16.124z"/>
	<path d="M47.763,6.636c0,0-0.09,1.735-0.821,2.647c-0.729,0.912-0.363,1.368,0.275,1.549c0.639,0.183,3.83,0.82,3.647-0.273   c-0.181-1.094-0.82-1.641-0.82-3.284c0-1.641,0.091-3.008-0.729-3.465C48.494,3.354,47.763,6.636,47.763,6.636z"/>
	<path d="M54.24,61.271c0,0-0.82,4.56-2.464,6.566c-0.939,1.147-1.093,2.645-0.364,3.192c0.729,0.546,5.381,1.641,5.017-1.733   s-0.729-3.466-0.456-5.93c0.273-2.462,1.552-8.207,1.824-9.303c0.273-1.093,0.547-1.549,1.095-2.826   c0.547-1.279,0.456-1.459,0.272-2.19c-0.181-0.729,0.366-1.641-0.181-2.096c-0.547-0.456-3.354-1.976-4.014,0   c-0.547,1.641-0.82,1.915-0.456,2.827c0.365,0.912,0.365,1.733,0.183,3.193C54.514,54.43,54.879,58.442,54.24,61.271z"/>
	<path d="M56.793,37.647c0,0-0.911,3.466-1.549,4.287c-0.639,0.82-1.368,3.647,0.274,3.647c1.64,0,2.552,0.274,3.465,0.73   c0.912,0.455,1.732-0.821,1.459-1.733c-0.273-0.912-0.639-3.192-0.456-5.016c0.183-1.825,0.548-6.293,1.003-7.57   c0.456-1.276,0.548-2.098,0.548-2.644c0-0.548-0.365-1.004-1.095-1.278c-0.73-0.273-1.732-1.185-2.188-0.457   c-0.457,0.731-0.639,1.46-0.639,2.373s0,3.01-0.366,4.104C56.886,35.184,56.886,36.735,56.793,37.647z"/>
	<path d="M60.078,20.317c0,0-1.461,4.286-1.916,4.926c-0.456,0.639-0.638,1.095,0,1.642c0.639,0.547,2.098,1.094,2.827,1.094   c0.73,0,1.095,0.547,1.551-0.273c0.456-0.821,0.273-1.641,0.183-2.646c-0.091-1.003,0.007-4.531,0.638-5.288   c0.912-1.095,0.729-2.828,0.091-3.011c-0.638-0.182-0.911,0.04-1.367-0.326c-0.456-0.364-1.003-0.312-1.459,0.053   c-0.857,0.686-0.273,1.64-0.273,2.28C60.352,19.405,60.078,20.317,60.078,20.317z"/>
	<path d="M61.993,12.108c0,0-0.729,1.825-1.095,2.373c-0.364,0.547-0.82,0.912,0.365,1.459c1.186,0.548,3.373,1.276,3.282,0.273   c-0.092-1.003-0.456-2.554-0.456-3.465c0-0.912,1.187-3.101,0.456-3.74c-0.729-0.638-1.914-0.729-2.006,0.456   C62.449,10.65,61.993,12.108,61.993,12.108z"/>
	<path d="M59.438,61.088c0,0-1.368,3.647-2.007,4.012c-0.639,0.363-1.093,1.003-1.277,1.369c-0.182,0.364-1.275,2.919-1.275,3.192   s-0.456,1.003,0.365,1.459c0.82,0.455,1.642,0.639,2.371,1.55c0.729,0.913,1.186,0.913,1.459,0.183   c0.273-0.729,1.733-2.826,1.824-4.286c0.091-1.459,0.456-4.287,1.003-6.294c0.548-2.006,1.823-6.931,2.553-8.025   c0.73-1.096,0.456-2.098,0.456-2.098s0.093-1.642-0.181-2.191c-0.275-0.545-1.916-1.64-2.463-1.275   c-0.547,0.364-1.551,0.364-1.642,1.459c-0.091,1.095-0.091,1.46,0.183,2.463c0.273,1.002,0.364,2.736-0.092,4.104   C60.26,58.077,59.438,61.088,59.438,61.088z"/>
	<path d="M64.09,44.214c0,0-0.548,0.82-1.367,1.276c-0.821,0.456-1.277,1.096-1.186,1.916c0.091,0.821,0.273,0.639,0.547,0.639   c0.912,0,1.55,0,1.914,0.456c0.365,0.456,0.731,1.094,1.368,1.094c0.639,0,1.552,0.274,1.642,0   c0.093-0.273,0.274-0.821,0.183-2.097c-0.09-1.277,0.092-2.281,1.005-4.013c0.912-1.734,2.644-6.567,2.644-6.933   c0-0.364-0.364-2.098-1.823-1.275c-1.459,0.819-1.55,0.911-1.642,1.641s-0.82,2.553-1.003,3.101   C66.188,40.565,64.729,43.576,64.09,44.214z"/>
	<path d="M68.56,35.823c0,0-0.457-0.364-0.273-1.369c0.183-1.002,0.821-1.824,1.096-2.37c0.272-0.548,0.91-2.098,1.002-2.828   c0.091-0.73,0.091-1.46,1.095-0.82c1.003,0.638,1.551,0.09,1.733,0.912c0.182,0.82,0.456,0.09-0.365,1.732   c-0.821,1.642-1.368,3.74-1.277,4.197c0.091,0.455,0.183,0.911-0.274,1.094C70.839,36.552,69.472,36.552,68.56,35.823z"/>
	<path d="M72.025,24.878c0,0-0.456,0.73-0.82,1.551c-0.366,0.82-0.821,1.277-0.457,1.824c0.364,0.548,1.186,0.729,1.552,0.729   c0.363,0,1.094-0.456,1.094-1.003s-0.182-1.733,0-2.554c0.183-0.821,0.638-2.644,0.638-3.284c0-0.638-0.546-1.824-1.002-1.002   C72.573,21.959,72.573,23.784,72.025,24.878z"/>
</g>
</svg>