<svg xmlns="http://www.w3.org/2000/svg" xmlns:xlink="http://www.w3.org/1999/xlink" version="1.1" id="Calque_1" x="0px" y="0px" width="100px" height="100px" viewBox="0 0 100 100" enable-background="new 0 0 100 100" xml:space="preserve">
<g>
	<path d="M50.209,26.437c-13.093,0-23.746,10.653-23.746,23.747s10.652,23.745,23.746,23.745c13.094,0,23.745-10.651,23.745-23.745   S63.303,26.437,50.209,26.437z"/>
	<path d="M80.527,56.869c0.025-0.188,0.053-0.375,0.08-0.562c0.051-0.202,0.102-0.404,0.152-0.606   c1.407-5.517,10.014-5.517,10.014-5.517s-8.574,0-9.996-5.426c-0.049-0.184-0.094-0.365-0.141-0.548   c-0.029-0.207-0.06-0.413-0.09-0.62c-0.813-5.637,7.139-8.93,7.139-8.93s-7.922,3.281-11.311-1.187   c-0.117-0.154-0.23-0.308-0.346-0.462c-0.105-0.178-0.211-0.354-0.316-0.529c-2.906-4.896,3.18-10.982,3.18-10.982   s-6.063,6.062-10.904,3.231c-0.154-0.09-0.312-0.183-0.47-0.275c-0.173-0.129-0.346-0.257-0.519-0.388   c-4.561-3.41-1.268-11.361-1.268-11.361s-3.281,7.922-8.837,7.158c-0.183-0.024-0.369-0.051-0.556-0.076   c-0.206-0.053-0.412-0.105-0.612-0.157C50.21,18.227,50.21,9.62,50.21,9.62s0,8.573-5.425,9.995   c-0.179,0.046-0.362,0.094-0.545,0.141c-0.209,0.03-0.42,0.061-0.624,0.09c-5.636,0.812-8.93-7.139-8.93-7.139   s3.282,7.922-1.187,11.311c-0.146,0.111-0.299,0.227-0.449,0.34c-0.183,0.107-0.364,0.216-0.541,0.32   C27.613,27.586,21.527,21.5,21.527,21.5s6.062,6.062,3.232,10.904c-0.1,0.169-0.2,0.336-0.301,0.504   c-0.121,0.164-0.244,0.326-0.363,0.485c-3.41,4.56-11.361,1.267-11.361,1.267s7.922,3.281,7.158,8.836   c-0.025,0.188-0.053,0.374-0.079,0.561c-0.052,0.203-0.103,0.405-0.153,0.608c-1.406,5.517-10.014,5.517-10.014,5.517   s8.574,0.002,9.996,5.427c0.048,0.186,0.094,0.37,0.141,0.556c0.031,0.204,0.061,0.406,0.09,0.611   c0.812,5.636-7.139,8.93-7.139,8.93s7.922-3.28,11.311,1.188c0.115,0.153,0.229,0.307,0.344,0.459   c0.105,0.178,0.211,0.354,0.316,0.532c2.908,4.896-3.178,10.98-3.178,10.98s6.062-6.062,10.903-3.229   c0.167,0.098,0.332,0.195,0.499,0.295c0.164,0.121,0.326,0.243,0.49,0.365c4.561,3.412,1.267,11.363,1.267,11.363   s3.282-7.921,8.837-7.158c0.186,0.025,0.369,0.052,0.555,0.078c0.205,0.051,0.408,0.104,0.614,0.155   c5.518,1.405,5.518,10.012,5.518,10.012s0-8.574,5.425-9.995c0.183-0.047,0.365-0.094,0.549-0.141   c0.207-0.029,0.412-0.06,0.62-0.09c5.636-0.812,8.929,7.139,8.929,7.139s-3.281-7.921,1.188-11.311   c0.15-0.115,0.303-0.227,0.455-0.342c0.178-0.105,0.355-0.212,0.535-0.318c4.896-2.907,10.982,3.178,10.982,3.178   s-6.063-6.062-3.232-10.904c0.096-0.162,0.192-0.324,0.289-0.486c0.125-0.168,0.249-0.335,0.375-0.503   c3.409-4.56,11.361-1.267,11.361-1.267S79.764,62.425,80.527,56.869z M50.209,76.399c-14.455,0-26.215-11.761-26.215-26.216   c0-14.456,11.76-26.216,26.215-26.216s26.216,11.761,26.216,26.216C76.425,64.639,64.664,76.399,50.209,76.399z"/>
</g>
</svg>