<svg xmlns="http://www.w3.org/2000/svg" xmlns:xlink="http://www.w3.org/1999/xlink" version="1.1" id="Calque_1" x="0px" y="0px" width="100px" height="100px" viewBox="0 0 100 100" enable-background="new 0 0 100 100" xml:space="preserve">
<polygon points="15.035,79.053 19.764,74.324 19.764,70.4 22.379,67.786 22.379,65.573 21.625,66.328 21.625,62.858 23.914,60.568   23.914,57.727 26.416,60.229 26.416,58.432 24.045,56.062 24.045,54.407 25.324,53.129 25.324,50.283 21.337,46.295 21.337,44.75   19.595,43.008 19.595,41.833 21.138,40.29 17.4,36.551 16.545,36.551 16.545,35.194 14.03,35.194 13.376,34.54 13.376,33.483   8.824,28.932 7.592,28.932 6.724,29.799 5.68,29.799 5.68,27.951 3.769,26.04 6.284,26.04 6.888,25.436 5.932,24.48 7.491,24.48   6.661,23.65 4.272,23.65 4.272,22.216 5.932,20.557 8.799,20.557 13.225,20.557 13.804,19.979 14.683,20.859 18.154,24.329   19.563,24.329 20.92,22.971 23.838,25.889 23.838,23.424 25.296,23.424 25.296,24.933 27.207,24.933 28.113,24.027 27.107,23.022   27.761,22.368 27.761,18.394 26.277,16.91 26.277,13.364 27.899,14.987 27.899,14.069 30.125,14.069 30.729,14.672 29.924,15.477   30.88,16.433 30.88,17.589 32.942,17.589 33.747,18.394 35.858,18.394 37.318,19.853 38.675,19.853 39.958,18.571 41.492,18.571   40.348,17.425 40.348,16.684 41.422,15.609 42.498,15.609 43.57,14.537 48.232,14.537 50.931,11.839 51.074,10.925 51.074,7.228   54.18,4.123 59.297,4.123 59.895,4.72 59.895,7.027 60.451,7.583 62.718,7.583 62.718,9.24 65.986,12.509 68.05,12.509   69.23,13.691 68.502,14.421 69.356,15.276 69.356,16.886 73.18,16.886 73.18,18.998 73.883,19.702 76.499,19.702 76.499,21.211   77.505,22.216 83.139,22.216 83.641,22.72 83.641,25.234 85,26.593 86.156,26.593 90.08,26.593 91.563,28.077 94.605,28.077   96.404,29.875 92.594,33.685 92.594,37.306 92.594,40.424 90.432,42.587 90.432,43.845 89.048,45.228 87.867,45.228 87.867,44.247   86.357,44.247 85.251,45.354 86.056,46.159 86.056,47.063 78.914,54.207 78.914,55.715 80.348,56.041 81.831,56.041 82.598,55.275   83.742,55.275 83.742,58.834 85.451,60.543 83.893,62.104 83.893,63.561 86.434,66.102 85,67.535 83.943,67.535 83.943,68.893   82.435,68.893 81.529,69.799 85.451,73.721 83.037,76.137 83.037,77.645 85.502,80.109 89.174,80.109 89.174,81.266 87.967,82.473   87.967,84.084 86.156,84.084 82.535,87.705 81.026,87.705 80.223,88.509 80.223,90.219 77.002,90.219 76.146,91.074 75.191,90.119   73.381,90.119 71.872,88.609 70.363,88.609 70.363,87.301 68.15,87.301 64.931,87.301 64.931,85.592 62.113,85.592 60.705,84.182   59.801,84.182 57.838,86.145 55.374,86.145 51.175,90.344 51.175,92.733 52.47,94.029 49.037,94.029 47.622,95.444 45.113,92.936   43.907,94.143 42.699,94.143 41.743,93.186 40.889,93.186 40.889,91.426 39.882,90.421 39.078,91.225 36.764,88.911 35.155,88.911   33.595,87.353 33.595,89.213 30.426,89.213 29.219,88.006 27.006,88.006 25.95,86.949 23.184,86.949 23.184,84.889 20.367,84.889   18.657,83.178 16.846,83.178 18.254,81.77 17.249,80.763 16.143,80.763 "/>
</svg>