<svg xmlns="http://www.w3.org/2000/svg" xmlns:xlink="http://www.w3.org/1999/xlink" version="1.1" id="Calque_1" x="0px" y="0px" width="100px" height="100px" viewBox="0 0 100 100" enable-background="new 0 0 100 100" xml:space="preserve">
<polygon points="84.884,28.101 92.485,29.267 92.364,29.147 95.946,28.53 95.918,29.19 96.918,29.671 96.917,30.191 96.397,30.591   95.415,30.451 95.603,34.668 77.356,45.02 77.368,45.423 77.662,45.524 77.659,45.283 77.821,45.253 78.534,46.008 78.269,46.069   78.263,46.149 78.565,46.13 76.62,47.483 76.517,47.234 76.643,47.163 76.879,47.24 77.42,46.694 76.321,46.858 68.856,58.387   69.829,61.17 69.569,61.434 73.091,66.025 70.681,67.971 70.231,67.777 67.278,69.744 67.187,71.045 66.294,71.164 66.057,72.535   66.187,72.686 66.071,73.48 65.706,73.516 65.071,75.121 64.715,75.037 64.534,76.473 65.194,76.801 65.134,75.367 65.234,75.375   65.601,76.748 62.296,77.402 62.257,77.68 59.61,77.838 55.513,83.203 55.067,83.254 53.765,85.193 52.999,85.201 52.208,84.16   48.354,85.459 47.982,85.031 47.871,85.184 28.314,86.652 27.138,88.787 26.393,88.531 26.2,88.697 26.292,89.689 25.154,90.133   19.983,84.963 20.479,84.777 20.449,84.635 20.095,84.529 20.242,83.855 18.555,82.088 19.383,81.67 15.589,77.219 15.375,77.23   16.213,75.977 15.311,76.609 14.928,75.564 14.777,76.949 15.004,77.152 14.941,77.281 13.816,76.506 13.669,76.684 11.446,76.26   13.718,69.014 15.825,68.879 15.949,67.494 16.375,67.236 13.672,64.416 17.277,58.639 16.747,57.652 16.03,57.855 13.341,51.867   17.544,52.027 19.039,48.83 18.002,47.501 18.134,46.626 19.386,46.443 19.523,38.584 25.855,33.857 25.887,33.51 23.256,31.825   23.759,30.701 23.458,30.473 23.682,29.768 23.357,29.335 23.009,29.626 22.457,29.497 22.183,28.949 21.897,29.447 19.785,29.178   19.741,28.771 18.927,28.859 18.96,29.386 16.959,30.135 16.683,29.626 15.589,29.69 15.778,29.384 13.663,29.155 13.752,28.599   11.809,29.151 11.241,28.294 12.286,27.42 12.146,26.723 11.67,26.641 11.699,26.32 11.514,26.143 6.47,28.139 6.586,25.706   7.236,25.618 7.306,25.381 7.044,25.282 7.05,25.202 9.072,23.52 7.02,24.101 7.121,23.812 7.443,23.808 7.515,23.544 7.36,23.454   7.4,23.269 8.117,23.372 8.109,23.104 8.896,22.595 8.792,22.535 7.613,22.908 6.785,22.099 6.801,21.858 7.368,21.818 7.383,21.98   7.246,22.024 7.234,22.184 7.475,22.201 7.577,21.886 7.852,21.798 7.697,21.331 8.483,20.447 8.054,20.444 8.097,20.206   7.946,20.061 7.638,20.63 7.48,20.592 7.396,20.264 6.653,20.909 6.681,21.287 6.406,21.375 6.34,20.781 6.047,20.76 7.659,18.807   6.987,18.814 6.813,18.614 6.543,18.649 6.461,19.045 6.168,19.025 5.883,18.495 6.186,18.382 6.239,18.01 5.917,18.015   6.099,17.33 5.614,16.974 5.528,17.049 5.208,17.026 4.961,17.492 4.86,17.404 5.337,16.338 5.029,15.753 6.25,15.168 5.722,15.05   5.715,14.755 8.033,14.22 7.724,14.037 7.857,13.671 8.095,13.714 8.718,13.248 9.396,13.913 12.186,13.142 12.226,13.333   12.024,13.533 12.127,13.97 12.234,13.977 12.23,13.655 12.428,13.508 12.453,13.161 12.881,13.164 13.245,14.102 13.404,13.362   13.682,13.22 13.693,13.06 12.805,12.729 14.038,12.36 12.658,12.531 12.535,12.362 13.003,11.805 12.839,11.471 14.451,11.047   14.557,10.679 14.689,11.091 14.998,10.898 14.824,10.698 16.491,9.876 16.602,10.206 16.264,10.826 16.31,10.936 17.682,9.718   17.894,9.759 17.623,10.572 17.903,10.404 18.192,10.478 18.319,10.969 18.688,10.673 19.81,11.127 19.858,11.587 20.219,11.799   20.254,12.07 20.664,12.34 20.701,12.584 21.917,12.831 22.062,13.055 26.229,13.32 26.379,13.089 28.201,13.109 28.236,13.379   30.204,13.625 30.217,13.438 30.039,13.292 30.576,12.899 30.591,12.686 30.833,12.676 30.998,13.01 31.211,13.024 32.048,14.102   34.02,14.294 33.73,14.596 45.473,16.116 44.914,16.477 44.994,16.717 45.954,16.756 46.034,16.476 45.794,16.396 46.993,15.595   47.874,16.434 47.755,16.874 48.395,16.954 48.555,17.233 48.875,17.033 50.596,18.112 50.516,17.711 51.088,17.123 58.69,18.516   58.89,18.195 59.56,18.045 60.179,19.075 60.778,19.114 60.819,19.634 62.5,19.953 61.781,21.794 62.702,21.954 62.701,21.393   62.981,21.313 63.142,21.473 63.142,21.792 66.983,22.83 66.984,23.59 68.426,24.668 68.626,24.268 74.604,26.172 75.124,25.652   77.524,26.174 77.245,24.654 82.845,26.938 82.483,27.539 82.804,27.899 82.683,28.699 84.884,28.101 "/>
</svg>