<svg xmlns="http://www.w3.org/2000/svg" xmlns:xlink="http://www.w3.org/1999/xlink" version="1.1" id="Calque_1" x="0px" y="0px" width="100px" height="100px" viewBox="0 0 100 100" enable-background="new 0 0 100 100" xml:space="preserve">
<g>
	<path d="M30.925,62.021c0,1.855,1.509,3.363,3.361,3.363c1.854,0,3.361-1.508,3.361-3.363c0-1.854-1.508-3.359-3.361-3.359   C32.434,58.662,30.925,60.168,30.925,62.021z M34.286,60.166c1.023,0,1.855,0.832,1.855,1.855c0,1.025-0.832,1.859-1.855,1.859   s-1.856-0.834-1.856-1.859C32.43,60.998,33.263,60.166,34.286,60.166z"/>
	<path d="M68.95,50.784c0-1.853-1.508-3.359-3.361-3.359c-1.853,0-3.36,1.507-3.36,3.359c0,1.855,1.508,3.363,3.36,3.363   C67.442,54.146,68.95,52.639,68.95,50.784z M65.589,52.643c-1.022,0-1.856-0.834-1.856-1.859c0-1.022,0.834-1.854,1.856-1.854   c1.023,0,1.857,0.832,1.857,1.854C67.446,51.809,66.612,52.643,65.589,52.643z"/>
	<path d="M62.835,59.715c0-3.184-2.59-5.773-5.773-5.773c-3.185,0-5.774,2.59-5.774,5.773s2.59,5.775,5.774,5.775   C60.245,65.49,62.835,62.898,62.835,59.715z M52.791,59.715c0-2.354,1.916-4.27,4.271-4.27c2.354,0,4.27,1.916,4.27,4.27   s-1.916,4.271-4.27,4.271C54.707,63.986,52.791,62.068,52.791,59.715z"/>
	<path d="M38.601,81.342c3.184,0,5.774-2.59,5.774-5.775s-2.591-5.775-5.774-5.775c-3.185,0-5.775,2.59-5.775,5.775   S35.416,81.342,38.601,81.342z M38.601,71.297c2.354,0,4.27,1.914,4.27,4.27s-1.915,4.271-4.27,4.271   c-2.355,0-4.271-1.916-4.271-4.271S36.245,71.297,38.601,71.297z"/>
	<path d="M38.501,54.635c2.454,0,4.45-1.996,4.45-4.451c0-2.455-1.996-4.453-4.45-4.453c-2.455,0-4.452,1.998-4.452,4.453   C34.049,52.639,36.046,54.635,38.501,54.635z M38.501,47.237c1.624,0,2.945,1.322,2.945,2.947c0,1.625-1.321,2.945-2.945,2.945   c-1.625,0-2.947-1.32-2.947-2.945C35.554,48.559,36.876,47.237,38.501,47.237z"/>
	<path d="M61.375,80.922c2.454,0,4.452-1.998,4.452-4.451c0-2.455-1.998-4.453-4.452-4.453s-4.45,1.998-4.45,4.453   C56.925,78.924,58.921,80.922,61.375,80.922z M61.375,73.521c1.626,0,2.947,1.322,2.947,2.949c0,1.625-1.321,2.947-2.947,2.947   c-1.624,0-2.946-1.322-2.946-2.947C58.429,74.844,59.751,73.521,61.375,73.521z"/>
	<path d="M67.216,32.846c0-1.815-1.476-3.293-3.29-3.293c-1.815,0-3.292,1.478-3.292,3.293s1.477,3.292,3.292,3.292   C65.74,36.138,67.216,34.662,67.216,32.846z M62.138,32.846c0-0.985,0.803-1.787,1.788-1.787c0.984,0,1.786,0.802,1.786,1.787   s-0.802,1.787-1.786,1.787C62.94,34.633,62.138,33.832,62.138,32.846z"/>
	<path d="M48.534,82.582c1.269,0,2.301-1.031,2.301-2.301c0-1.268-1.032-2.301-2.301-2.301c-1.271,0-2.303,1.033-2.303,2.301   C46.231,81.551,47.264,82.582,48.534,82.582z M48.534,79.484c0.438,0,0.796,0.357,0.796,0.797s-0.357,0.797-0.796,0.797   c-0.44,0-0.798-0.357-0.798-0.797S48.094,79.484,48.534,79.484z"/>
	<path d="M48.025,58.613c0-1.271-1.032-2.303-2.3-2.303c-1.271,0-2.304,1.031-2.304,2.303c0,1.268,1.033,2.299,2.304,2.299   C46.993,60.912,48.025,59.881,48.025,58.613z M44.927,58.613c0-0.441,0.358-0.799,0.799-0.799c0.438,0,0.795,0.357,0.795,0.799   c0,0.438-0.356,0.795-0.795,0.795C45.285,59.408,44.927,59.051,44.927,58.613z"/>
	<path d="M41.449,28.161c0-1.35-1.098-2.449-2.447-2.449c-1.351,0-2.449,1.1-2.449,2.449s1.099,2.448,2.449,2.448   C40.352,30.609,41.449,29.51,41.449,28.161z M38.059,28.161c0-0.521,0.423-0.943,0.943-0.943c0.52,0,0.942,0.423,0.942,0.943   c0,0.52-0.423,0.942-0.942,0.942C38.481,29.103,38.059,28.68,38.059,28.161z"/>
	<path d="M52.848,74.77c1.552,0,2.815-1.262,2.815-2.814s-1.264-2.816-2.815-2.816c-1.553,0-2.816,1.264-2.816,2.816   S51.295,74.77,52.848,74.77z M52.848,70.643c0.723,0,1.311,0.588,1.311,1.312c0,0.723-0.588,1.311-1.311,1.311   c-0.724,0-1.312-0.588-1.312-1.311C51.536,71.23,52.124,70.643,52.848,70.643z"/>
	<path d="M59.878,45.067c0-1.554-1.263-2.817-2.816-2.817s-2.816,1.264-2.816,2.817c0,1.553,1.263,2.816,2.816,2.816   S59.878,46.62,59.878,45.067z M55.749,45.067c0-0.724,0.589-1.312,1.312-1.312s1.312,0.589,1.312,1.312s-0.589,1.312-1.312,1.312   S55.749,45.791,55.749,45.067z"/>
	<path d="M69.302,69.754c1.553,0,2.815-1.264,2.815-2.816s-1.263-2.814-2.815-2.814c-1.552,0-2.815,1.262-2.815,2.814   S67.75,69.754,69.302,69.754z M69.302,65.627c0.724,0,1.312,0.588,1.312,1.311c0,0.725-0.588,1.312-1.312,1.312   s-1.311-0.588-1.311-1.312C67.991,66.215,68.578,65.627,69.302,65.627z"/>
	<path d="M78.327,39.046c0-0.416-0.337-0.753-0.752-0.753H50.91c-0.007,0-0.014,0.004-0.02,0.004   c-0.603-0.687-1.476-1.129-2.458-1.129c-0.988,0-1.866,0.448-2.469,1.142c-0.028-0.003-0.053-0.017-0.082-0.017H23.157   c-0.416,0-0.753,0.337-0.753,0.753c0,0.415,0.337,0.753,0.753,0.753h22.058c-0.042,0.211-0.065,0.429-0.065,0.652   c0,1.81,1.473,3.282,3.283,3.282s3.282-1.473,3.282-3.282c0-0.224-0.022-0.441-0.065-0.652h25.926   C77.99,39.799,78.327,39.461,78.327,39.046z M48.433,42.229c-0.98,0-1.778-0.798-1.778-1.777c0-0.98,0.798-1.778,1.778-1.778   s1.777,0.798,1.777,1.778C50.21,41.431,49.413,42.229,48.433,42.229z"/>
	<path d="M12.32,29.236c0.531,0,1.069-0.151,1.545-0.468c8.665-5.764,19.461-9.241,31.222-10.057   c0.919-0.063,1.748-0.576,2.215-1.369c0.467-0.794,0.514-1.768,0.124-2.602l-1.273-2.724h7.974l-1.303,2.641   c-0.412,0.837-0.38,1.826,0.088,2.635c0.468,0.81,1.309,1.33,2.24,1.39c11.797,0.752,22.648,4.18,31.383,9.914   c1.288,0.846,3.021,0.488,3.868-0.802s0.488-3.022-0.803-3.869c-3.568-2.343-7.466-4.311-11.598-5.926   c0.009-0.092,0.028-0.18,0.028-0.272v-2.259c0-1.662-1.348-3.01-3.01-3.01c-1.663,0-3.01,1.348-3.01,3.01v0.479   c-3.962-1.146-8.103-1.979-12.373-2.472l1.489-3.016c0.427-0.866,0.377-1.892-0.133-2.711c-0.511-0.82-1.407-1.319-2.373-1.319   H41.762c-0.955,0-1.844,0.487-2.356,1.294c-0.513,0.806-0.579,1.817-0.174,2.684l1.453,3.108   c-11.175,1.338-21.449,4.969-29.914,10.6c-1.285,0.855-1.634,2.59-0.779,3.874C10.529,28.798,11.416,29.236,12.32,29.236z"/>
	<path d="M87.897,35.723h-2.374l0.019-1.103c0.026-1.662-1.3-3.031-2.962-3.058c-1.613,0.011-3.031,1.299-3.058,2.962l-0.752,47.227   c0,3.08-2.505,5.584-5.584,5.584H27.197c-3.079,0-5.584-2.504-5.584-5.631l-0.751-47.18c-0.027-1.663-1.419-2.991-3.058-2.962   c-1.662,0.026-2.988,1.396-2.962,3.058l0.018,1.103h-2.366c-1.984,0-3.593,1.609-3.593,3.593s1.608,3.592,3.593,3.592h2.48   l0.619,38.844c0,6.398,5.205,11.604,11.604,11.604h45.989c6.398,0,11.603-5.205,11.603-11.555l0.621-38.893h2.487   c1.983,0,3.592-1.608,3.592-3.592S89.881,35.723,87.897,35.723z"/>
</g>
</svg>