<svg xmlns="http://www.w3.org/2000/svg" xmlns:xlink="http://www.w3.org/1999/xlink" version="1.1" id="Calque_1" x="0px" y="0px" width="100px" height="100px" viewBox="0 0 100 100" enable-background="new 0 0 100 100" xml:space="preserve">
<g>
	<g>
		<path d="M15.058,30.811c0.174-2.564-2.327-7.787-4.495-9.062l0.021-0.32h19.018l0.021,0.32c-2.168,1.275-4.669,6.498-4.495,9.062    v3.94h2.298c0-1.735,0-3.108,0-3.94c0-6.256,4.9-7.049,4.9-9.943c0-3.591-10.091-4.104-12.233-4.115    c-2.143,0.011-12.233,0.523-12.233,4.115c0,2.895,4.9,3.687,4.9,9.943c0,0.833,0,2.206,0,3.94h2.298V30.811z"/>
		<path d="M25.128,50.462h-1.23v24.577c0,0.398-0.256,0.711-0.584,0.711s-0.584-0.312-0.584-0.711V50.462h-7.672V39.031H12.76    c0,12.705,0,34.17,0,34.17c0.025,8.412,4.435,8.721,7.333,8.721s7.308-0.309,7.333-8.721c0,0,0-21.465,0-34.17h-2.298V50.462z"/>
		<path d="M55.036,45.542h-1.23v29.498c0,0.398-0.256,0.711-0.584,0.711s-0.584-0.312-0.584-0.711V45.542h-7.673v-6.51h-2.298    c0,12.705,0,34.17,0,34.17c0.025,8.412,4.435,8.721,7.333,8.721c2.899,0,7.308-0.309,7.333-8.721c0,0,0-21.465,0-34.17h-2.297    V45.542z"/>
		<path d="M44.965,30.811c0.174-2.564-2.327-7.787-4.495-9.062l0.021-0.32h19.018l0.021,0.32c-2.168,1.275-4.668,6.498-4.494,9.062    v3.94h2.297c0-1.735,0-3.108,0-3.94c0-6.256,4.9-7.049,4.9-9.943c0-3.591-10.09-4.104-12.233-4.115    c-2.143,0.011-12.233,0.523-12.233,4.115c0,2.895,4.9,3.687,4.9,9.943c0,0.833,0,2.206,0,3.94h2.298V30.811z"/>
		<path d="M74.872,30.811c0.174-2.564-2.328-7.787-4.496-9.062l0.021-0.32h19.02l0.021,0.32c-2.168,1.275-4.67,6.498-4.496,9.062    v3.94h2.299c0-1.735,0-3.108,0-3.94c0-6.256,4.9-7.049,4.9-9.943c0-3.591-10.092-4.104-12.234-4.115    c-2.143,0.011-12.234,0.523-12.234,4.115c0,2.895,4.9,3.687,4.9,9.943c0,0.833,0,2.206,0,3.94h2.299V30.811z"/>
		<path d="M84.942,63.098h-1.23v11.941c0,0.398-0.256,0.711-0.584,0.711s-0.584-0.312-0.584-0.711V63.098h-7.672V39.031h-2.299    c0,12.705,0,34.17,0,34.17c0.025,8.412,4.436,8.721,7.334,8.721s7.309-0.309,7.334-8.721c0,0,0-21.465,0-34.17h-2.299V63.098z"/>
	</g>
	<path d="M9.385,37.98h81.229v-2.279H9.385V37.98L9.385,37.98z"/>
</g>
</svg>