<svg xmlns="http://www.w3.org/2000/svg" xmlns:xlink="http://www.w3.org/1999/xlink" xmlns:a="http://ns.adobe.com/AdobeSVGViewerExtensions/3.0/" version="1.1" x="0px" y="0px" width="100px" height="100px" viewBox="-4.523 -6.137 100 100" enable-background="new -4.523 -6.137 100 100" xml:space="preserve">
<defs>
</defs>
<path d="M48.751,34.371c0.008-0.051,0.021-0.099,0.023-0.151l0.045-1.359c0.033-1.019-0.878-1.875-2.035-1.914  c-1.158-0.038-2.123,0.757-2.156,1.775l-0.045,1.359c-0.003,0.091,0.01,0.178,0.021,0.266c-10.605,0.402-20.704,4.368-20.56,11.828  c0.06,3.092,0.511,6.063,1.288,8.842h0.472c-0.255,0.853-0.368,1.759-0.317,2.718c0.789,14.734,9.892,26.486,20.734,27.32  l1.959,3.032l2.274-3.267c10.448-1.996,17.994-14.259,17.218-28.761c-0.731-13.671-33.32-14.052-40.713-3.407  c3.638-12.786,38.508-12.68,40.854,0.801c0.486-2.426,0.727-4.977,0.676-7.614C68.353,38.678,58.899,34.878,48.751,34.371z"/>
<path d="M39.625,23.914c0.156-0.249,0.281-0.512,0.339-0.797l3.581-17.887c0.33-1.647-1.226-3.185-3.473-3.435  c-2.247-0.25-4.335,0.882-4.665,2.529l-1.731,8.648L29.247,2.048c-0.727-1.791-3.138-2.551-5.383-1.699  c-2.249,0.852-3.482,2.996-2.755,4.787L23,9.803L8.294,3.655C5.628,2.541,2.241,3.831,0.726,6.537  c-1.514,2.707-0.582,5.808,2.084,6.92l13.935,5.828l-9.13,1.68c-2.127,0.391-3.579,2.428-3.24,4.548  c0.339,2.12,2.338,3.521,4.463,3.131l16.898-3.11l-7.7,5.917c-1.437,1.104-1.455,3.252-0.04,4.799  c1.416,1.544,3.728,1.904,5.164,0.799l15.604-11.991C39.167,24.749,39.446,24.352,39.625,23.914z M35.491,20.675L5.306,9.219  C4.675,8.981,4.261,8.541,4.378,8.238c0.118-0.303,0.725-0.354,1.354-0.116l30.185,11.455c0.629,0.239,1.046,0.679,0.929,0.981  C36.728,20.862,36.121,20.914,35.491,20.675z"/>
<path d="M92.106,6.537c-1.516-2.706-4.902-3.996-7.568-2.881L69.832,9.803l1.893-4.667c0.727-1.791-0.507-3.935-2.756-4.787  c-2.245-0.852-4.657-0.091-5.384,1.699l-4.428,10.924l-1.732-8.648c-0.329-1.646-2.418-2.779-4.664-2.529  c-2.248,0.25-3.803,1.788-3.473,3.435l3.58,17.887c0.058,0.285,0.184,0.548,0.339,0.797c0.179,0.438,0.458,0.836,0.86,1.146  L69.672,37.05c1.436,1.104,3.748,0.745,5.164-0.799c1.414-1.547,1.396-3.695-0.04-4.799l-7.7-5.918l16.898,3.109  c2.125,0.391,4.125-1.01,4.463-3.131c0.34-2.12-1.111-4.156-3.239-4.548l-9.13-1.681l13.935-5.828  C92.688,12.345,93.621,9.243,92.106,6.537z M87.525,9.219L57.341,20.675c-0.629,0.238-1.236,0.187-1.354-0.117  c-0.117-0.303,0.3-0.742,0.929-0.98L87.1,8.122c0.63-0.239,1.236-0.187,1.354,0.116C88.571,8.541,88.157,8.981,87.525,9.219z"/>
</svg>