<svg xmlns="http://www.w3.org/2000/svg" xmlns:xlink="http://www.w3.org/1999/xlink" version="1.1" x="0px" y="0px" width="100px" height="100px" viewBox="0 0 100 100" enable-background="new 0 0 100 100" xml:space="preserve">
<g id="Captions">
</g>
<g id="Your_Icon">
	<path d="M50,14c-19.882,0-36,16.118-36,36c0,19.883,16.118,36,36,36c19.883,0,36-16.117,36-36C86,30.118,69.883,14,50,14z    M33.143,41c0-4.971,2.878-9,6.429-9C43.122,32,46,36.03,46,41c0,4.97-2.878,9-6.428,9C36.021,50,33.143,45.97,33.143,41z    M50.322,78.777C43.378,78.777,37.75,74.4,37.75,69s5.628-9.778,12.572-9.778c6.943,0,12.571,4.378,12.571,9.778   S57.265,78.777,50.322,78.777z M60.43,50C56.879,50,54,45.97,54,41c0-4.971,2.879-9,6.43-9c3.55,0,6.428,4.029,6.428,9   C66.857,45.97,63.979,50,60.43,50z"/>
</g>
</svg>