<svg xmlns="http://www.w3.org/2000/svg" xmlns:xlink="http://www.w3.org/1999/xlink" version="1.1" x="0px" y="0px" width="100px" height="100px" viewBox="0 0 100 100" enable-background="new 0 0 100 100" xml:space="preserve">
<g id="Captions">
</g>
<g id="Your_Icon">
	<path d="M50,14c-19.882,0-36,16.118-36,36c0,19.882,16.118,36,36,36c19.883,0,36-16.118,36-36C86,30.118,69.883,14,50,14z    M60.429,32c3.55,0,6.429,4.029,6.429,9c0,4.97-2.879,9-6.429,9C56.878,50,54,45.97,54,41C54,36.029,56.878,32,60.429,32z    M39.571,32C43.122,32,46,36.029,46,41c0,4.97-2.877,9-6.428,9c-3.55,0-6.428-4.03-6.428-9C33.143,36.029,36.021,32,39.571,32z    M69.391,63.927c-0.237,0.355-5.953,8.699-19.391,8.699c-0.002,0-0.005-0.002-0.007-0.002c-0.003,0-0.005,0.002-0.008,0.002   c-13.437,0-19.153-8.344-19.39-8.699c-1.34-2.011-0.797-4.728,1.213-6.066c2.01-1.342,4.727-0.797,6.067,1.213   c0,0,0.004,0.006,0.005,0.007l0.01-0.007l-0.041-0.06c0.144,0.199,3.586,4.858,12.144,4.861c8.558-0.003,12-4.662,12.143-4.861   l-0.04,0.06l0.009,0.007c0.002-0.001,0.005-0.007,0.005-0.007c1.341-2.01,4.058-2.555,6.067-1.213   C70.188,59.199,70.73,61.916,69.391,63.927z"/>
</g>
</svg>