<svg xmlns="http://www.w3.org/2000/svg" xmlns:xlink="http://www.w3.org/1999/xlink" version="1.1" id="phone_on_base" x="0px" y="0px" width="100px" height="100px" viewBox="0 0 100 100" enable-background="new 0 0 100 100" xml:space="preserve">
<g>
	<path d="M54.303,14h-8.606C40.914,14,37,17.914,37,22.697v48.606C37,76.086,40.914,80,45.697,80h8.606   C59.086,80,63,76.086,63,71.303V22.697C63,17.914,59.086,14,54.303,14z M50,18.011c2.751,0,4.989,2.238,4.989,4.989   S52.751,27.989,50,27.989c-2.75,0-4.988-2.238-4.988-4.989S47.249,18.011,50,18.011z M44,67h-2c-0.552,0-1-0.447-1-1s0.448-1,1-1h2   c0.554,0,1,0.447,1,1S44.553,67,44,67z M44,63h-2c-0.552,0-1-0.447-1-1s0.448-1,1-1h2c0.554,0,1,0.447,1,1S44.553,63,44,63z M44,59   h-2c-0.552,0-1-0.447-1-1s0.448-1,1-1h2c0.554,0,1,0.447,1,1S44.553,59,44,59z M44,55h-2c-0.552,0-1-0.447-1-1s0.448-1,1-1h2   c0.554,0,1,0.447,1,1S44.553,55,44,55z M51,63h-2c-0.552,0-1-0.447-1-1s0.448-1,1-1h2c0.554,0,1,0.447,1,1S51.553,63,51,63z M51,59   h-2c-0.552,0-1-0.447-1-1s0.448-1,1-1h2c0.554,0,1,0.447,1,1S51.553,59,51,59z M51,55h-2c-0.552,0-1-0.447-1-1s0.448-1,1-1h2   c0.554,0,1,0.447,1,1S51.553,55,51,55z M58,67h-2c-0.552,0-1-0.447-1-1s0.448-1,1-1h2c0.554,0,1,0.447,1,1S58.553,67,58,67z M58,63   h-2c-0.552,0-1-0.447-1-1s0.448-1,1-1h2c0.554,0,1,0.447,1,1S58.553,63,58,63z M58,59h-2c-0.552,0-1-0.447-1-1s0.448-1,1-1h2   c0.554,0,1,0.447,1,1S58.553,59,58,59z M58,55h-2c-0.552,0-1-0.447-1-1s0.448-1,1-1h2c0.554,0,1,0.447,1,1S58.553,55,58,55z M59,48   H41V32h18V48z"/>
	<path d="M50,25.989c1.648,0,2.989-1.341,2.989-2.989S51.648,20.011,50,20.011c-1.648,0-2.988,1.341-2.988,2.989   S48.352,25.989,50,25.989z"/>
</g>
<path d="M82,72h-4V47c0-2.2-1.8-4-4-4h-9v29h-0.035c-0.361,5.572-4.999,10-10.661,10h-8.606c-5.663,0-10.299-4.428-10.662-10H35V43  h-9c-2.2,0-4,1.8-4,4v25h-4v13h7v1h10v-1h30v1h10v-1h7V72z"/>
</svg>