<svg xmlns="http://www.w3.org/2000/svg" xmlns:xlink="http://www.w3.org/1999/xlink" version="1.1" x="0px" y="0px" width="100px" height="100px" viewBox="0 0 100 100" enable-background="new 0 0 100 100" xml:space="preserve">
<g id="Captions">
</g>
<g id="Your_Icon">
	<g>
		<path d="M41.823,79.071h15.452c1.01-1.13,2.049-2.388,3.072-3.767H38.833C39.727,76.572,40.72,77.833,41.823,79.071z"/>
		<path d="M45.375,57.172h8.531c-0.268-1.707-0.373-3.471-0.352-5.285H45.8C45.8,53.701,45.662,55.464,45.375,57.172z"/>
		<path d="M57.849,67.84H41.284c-0.743,1.161-1.577,2.288-2.5,3.382c-0.162,0.223-0.702,0.877-1.02,1.238H61.28    c-0.291-0.347-0.613-0.743-0.748-0.934C59.524,70.345,58.636,69.111,57.849,67.84z"/>
		<path d="M49.771,86c0,0,2.404-1.683,5.497-4.795H43.874C45.606,82.894,47.554,84.516,49.771,86z"/>
		<path d="M42.869,64.993h13.425c-0.756-1.595-1.344-3.258-1.789-4.977h-9.756C44.277,61.737,43.651,63.396,42.869,64.993z"/>
		<path d="M56.202,36.07c3.311-2.076,5.52-5.745,5.52-9.939c0-6.479-5.258-11.733-11.736-11.733    c-6.478,0-11.735,5.254-11.735,11.733c0,4.125,2.139,7.749,5.36,9.84c-3.025,1.045-5.696,2.841-7.803,5.159    c3.981-1.797,7.014-2.466,7.089-2.483l0.636-0.133l0.19,0.619c1.068,3.452,1.715,6.752,1.965,9.909h8    c0.271-3.047,0.912-6.233,1.941-9.553l0.191-0.619l0.635,0.134c0.082,0.019,3.529,0.776,7.912,2.861    C62.231,39.262,59.427,37.239,56.202,36.07z"/>
		<path d="M42.562,40.196c-3.423,0.901-19.665,5.941-23.798,21.005l-0.161,0.623c-0.036,0.134-0.071,0.265-0.106,0.399l-0.014,0.253    c-0.913,5.752,3.011,11.222,8.754,12.192c3.413,0.575,6.874-0.54,9.324-2.993c0.119-0.12,0.885-1.028,1.1-1.329    C44.478,62.324,46.112,52.196,42.562,40.196z"/>
		<path d="M80.868,62.832l-0.062-0.397l0.006-0.01c-0.021-0.08-0.041-0.163-0.064-0.245l-0.158-0.613    C76.452,46.492,60.212,41.452,56.788,40.55c-3.549,12.002-1.918,22.127,4.863,30.103c0.254,0.348,1.018,1.257,1.139,1.379    c2.449,2.45,5.906,3.567,9.324,2.991C77.854,74.055,81.78,68.586,80.868,62.832z"/>
	</g>
</g>
</svg>