<svg xmlns="http://www.w3.org/2000/svg" xmlns:xlink="http://www.w3.org/1999/xlink" version="1.1" x="0px" y="0px" width="100px" height="100px" viewBox="0 0 100 100" enable-background="new 0 0 100 100" xml:space="preserve">
<g id="Captions">
</g>
<g id="Your_Icon">
	<path fill="#000000" d="M79.907,46.362l6.126-10.61l-6.126-10.609h-12.25l-5.288,9.159h-8.861l-5.288-9.159H37.664l-5.289-9.16   h-12.25L14,26.592l6.125,10.61H30.68l4.329,7.496l-5.413,9.374l5.042,8.732l-5.536,9.587L35.227,83h12.25l5.146-8.911h11.439   l6.126-10.609l-5.359-9.283l4.522-7.834H79.907z M69.348,28.071h8.869l4.436,7.682l-4.436,7.681h-8.869l-4.434-7.681L69.348,28.071   z M17.38,26.592l4.436-7.681h8.87l4.435,7.681l-4.435,7.681h-8.87L17.38,26.592z M37.66,28.071h8.87l4.435,7.682l-4.435,7.681   h-8.87l-4.434-7.681L37.66,28.071z M37.412,46.391h8.87l4.435,7.682l-4.435,7.68h-8.87l-4.435-7.68L37.412,46.391z M45.786,80.073   h-8.869l-4.435-7.682l4.435-7.681h8.869l4.436,7.681L45.786,80.073z M62.375,71.162h-8.87l-4.436-7.683l4.436-7.682h8.87   l4.434,7.682L62.375,71.162z M62.375,52.592h-8.871l-4.435-7.681l4.435-7.68h8.871l4.434,7.68L62.375,52.592z"/>
</g>
</svg>