<svg xmlns="http://www.w3.org/2000/svg" xmlns:xlink="http://www.w3.org/1999/xlink" version="1.1" id="Sword" x="0px" y="0px" width="100px" height="100px" viewBox="0 0 100 100" enable-background="new 0 0 100 100" xml:space="preserve">
<circle cx="50" cy="78" r="2"/>
<rect x="48" y="67" width="4" height="11"/>
<rect x="38" y="65" width="24" height="2"/>
<polygon points="55,24 50,14 45,24 45,40 45,66 50,66 55,66 55,40 "/>
<rect x="43" y="62" width="14" height="4"/>
<g>
	<path d="M50,82c0.551,0,1,0.448,1,1s-0.448,1-1,1s-1-0.448-1-1S49.449,82,50,82 M50,80c-1.657,0-3,1.344-3,3s1.343,3,3,3   s3-1.344,3-3S51.657,80,50,80L50,80z"/>
</g>
<g>
	<path fill="#000000" d="M50,57.9c0,2.265-1.791,4.1-4,4.1h8C51.792,62,50,60.165,50,57.9z"/>
</g>
</svg>