<svg xmlns="http://www.w3.org/2000/svg" xmlns:xlink="http://www.w3.org/1999/xlink" version="1.1" id="Layer_1" x="0px" y="0px" width="100px" height="100px" viewBox="0 0 100 100" enable-background="new 0 0 100 100" xml:space="preserve">
<g>
	<ellipse cx="50" cy="54.534" rx="7.876" ry="2.74"/>
	<ellipse cx="28.924" cy="51.219" rx="7.877" ry="2.74"/>
	<ellipse cx="71.076" cy="51.219" rx="7.876" ry="2.74"/>
	<path d="M100,48.539c0-8.614-12.688-15.998-30.741-19.124C65.068,26.865,58.006,25.19,50,25.19c-8.007,0-15.068,1.675-19.26,4.225   C12.688,32.541,0,39.926,0,48.539c0,5.962,6.085,11.332,15.812,15.112L11.114,74.81l10.147-9.32   c8.132,2.372,18.038,3.77,28.738,3.77c10.7,0,20.606-1.397,28.738-3.77l10.147,9.32l-4.698-11.158   C93.915,59.871,100,54.501,100,48.539z M50,25.91c11.1,0,20.098,3.443,20.098,7.694S61.1,41.3,50,41.3s-20.097-3.444-20.097-7.695   S38.9,25.91,50,25.91z M50,62.409c-23.831,0-43.15-7.397-43.15-16.524c0-6.05,8.491-11.34,21.159-14.219   c-0.836,0.994-1.296,2.062-1.296,3.175c0,5.33,10.426,9.65,23.288,9.65s23.288-4.32,23.288-9.65c0-1.112-0.459-2.179-1.294-3.173   c12.666,2.88,21.157,8.168,21.157,14.217C93.15,55.012,73.831,62.409,50,62.409z"/>
</g>
</svg>