<?xml version="1.0" encoding="utf-8"?>
<!-- Generator: Adobe Illustrator 14.0.0, SVG Export Plug-In . SVG Version: 6.00 Build 43363)  -->
<!DOCTYPE svg PUBLIC "-//W3C//DTD SVG 1.0//EN" "http://www.w3.org/TR/2001/REC-SVG-20010904/DTD/svg10.dtd">
<svg version="1.0" id="Layer_1" xmlns="http://www.w3.org/2000/svg" xmlns:xlink="http://www.w3.org/1999/xlink" x="0px" y="0px"
	 width="100px" height="33.336px" viewBox="0 0 100 33.336" enable-background="new 0 0 100 33.336" xml:space="preserve">
<path fill-rule="evenodd" clip-rule="evenodd" d="M36.443,26.791h6.367l-2.645-3.025H22.006L21.999,6.704h-8.615
	c-2.246,0-3.66,0-4.588,3.275l-1.558,6.408H3.655c-1.765,0-1.765,0-1.765,1.8c0,2.861,0,5.73,0,8.604H0v1.986h6.762
	c0.336,2.702,1.981,4.559,4.568,4.559c2.561,0,4.314-1.895,4.886-4.559h2.708v-1.986h7.332c-0.041,0.255-0.056,0.812-0.056,1.092
	c0,3.006,2.323,5.453,5.175,5.453c2.842,0,5.165-2.447,5.165-5.453C36.54,27.536,36.501,27.108,36.443,26.791"/>
<path fill-rule="evenodd" clip-rule="evenodd" d="M85.854,33.096c3.059,0,5.54-2.626,5.54-5.848c0-0.409-0.031-0.809-0.118-1.195
	H100V0H24.055v21.088h18.111l4.294,4.965h33.976c-0.077,0.387-0.115,0.786-0.115,1.195C80.321,30.47,82.808,33.096,85.854,33.096"/>
</svg>
