<?xml version="1.0" encoding="utf-8"?>
<!-- Generator: Adobe Illustrator 14.0.0, SVG Export Plug-In . SVG Version: 6.00 Build 43363)  -->
<!DOCTYPE svg PUBLIC "-//W3C//DTD SVG 1.0//EN" "http://www.w3.org/TR/2001/REC-SVG-20010904/DTD/svg10.dtd">
<svg version="1.0" id="Layer_1" xmlns="http://www.w3.org/2000/svg" xmlns:xlink="http://www.w3.org/1999/xlink" x="0px" y="0px"
	 width="60.345px" height="100px" viewBox="0 0 60.345 100" enable-background="new 0 0 60.345 100" xml:space="preserve">
<polygon points="30.415,64.436 9.075,64.436 9.075,58.409 30.415,58.409 30.415,64.436 "/>
<path d="M53.887,42.257c-4.338-4.09-9.358-4.166-10.259-4.142l-4.112-0.002v-8.637H0.026v56.716C0.026,93.806,6.22,100,13.834,100
	h11.873c7.614,0,13.809-6.193,13.809-13.808v-1.46l4.111-0.002c0.911,0.023,5.922-0.053,10.26-4.143
	c4.285-4.04,6.458-10.488,6.458-19.165S58.172,46.297,53.887,42.257z M33.488,67.552H6.053V35.504h27.435V67.552z M49.84,76.119
	c-2.76,2.667-5.907,2.584-5.994,2.589l-0.09-0.006l-4.24,0.003V44.14l4.15,0.002l0.054,0.002l0.09-0.005
	c0.13,0.002,3.27-0.081,6.03,2.587c2.929,2.832,4.477,7.913,4.477,14.696S52.769,73.287,49.84,76.119z"/>
<path d="M21.277,12.773V8.77c1.753-0.62,3.01-2.288,3.01-4.253C24.288,2.022,22.266,0,19.771,0s-4.517,2.022-4.517,4.517
	c0,1.965,1.257,3.632,3.009,4.253v4.002C9.522,12.999,0,15.266,0,21.09v5.324h39.49V21.09C39.49,15.278,30.004,13.007,21.277,12.773
	z"/>
</svg>
