<svg xmlns="http://www.w3.org/2000/svg" xmlns:xlink="http://www.w3.org/1999/xlink" version="1.1" x="0px" y="0px" width="100px" height="100px" viewBox="0 0 100 100" enable-background="new 0 0 100 100" xml:space="preserve">
<g id="Captions">
</g>
<g id="Layer_7" display="none">
</g>
<g id="Your_Icon">
	<path d="M71.889,38.007c0.062-0.66,0.101-1.324,0.101-2c0-12.125-9.863-21.988-21.989-21.988s-21.988,9.863-21.988,21.988   c0,0.676,0.042,1.34,0.103,2h-5.102v47.975h53.975V38.007H71.889z M52.499,62.134v9.857h-4.998v-9.857   c-1.488-0.863-2.498-2.46-2.498-4.303c0-2.761,2.238-4.998,4.997-4.998c2.76,0,4.997,2.237,4.997,4.998   C54.997,59.674,53.986,61.271,52.499,62.134z M63.834,38.007H36.166c-0.091-0.656-0.157-1.32-0.157-2   c0-7.713,6.277-13.99,13.991-13.99c7.718,0,13.995,6.277,13.995,13.99C63.995,36.687,63.924,37.351,63.834,38.007z"/>
</g>
<g id="Layer_6" display="none">
	<path display="inline" d="M72.837,33.737h-7.08c-0.921-11.225-7.507-19.672-15.756-19.672c-8.251,0-14.833,8.447-15.759,19.672   H27.16l-2.916,52.197h51.512L72.837,33.737z M50.001,19.817c4.929,0,9.16,6.143,9.979,13.92h-19.96   C40.84,25.96,45.072,19.817,50.001,19.817z"/>
</g>
<g id="Layer_5" display="none">
	<path display="inline" d="M14.023,79.18L37.48,55.721c2.516,2.518,7.019,7.045,7.019,7.045c0,0.002,0,0.006,0,0.008l18.28-18.277   c-0.004,0-0.008-0.002-0.014-0.004c0,0-4.524-4.5-7.045-7.02l23.465-23.455c8.923,8.924,9.045,23.287,0.412,32.389l-0.004,0.043   l-0.391,0.391c-0.008,0.004-0.013,0.012-0.018,0.018c-0.013,0.012-0.018,0.016-0.025,0.025L46.862,79.18   C37.792,88.25,23.09,88.25,14.023,79.18z"/>
</g>
<g id="Layer_4" display="none">
	<path display="inline" d="M20.016,14.018v71.965h59.969V14.018H20.016z M73.066,65.74h-46.13V20.766h46.13V65.74z"/>
</g>
</svg>