<svg xmlns="http://www.w3.org/2000/svg" xmlns:xlink="http://www.w3.org/1999/xlink" version="1.1" x="0px" y="0px" width="100px" height="100px" viewBox="0 0 100 100" enable-background="new 0 0 100 100" xml:space="preserve">
<g id="Captions">
</g>
<g id="Layer_7" display="none">
	<path display="inline" d="M84.938,26.044H15.062c-0.547,0-0.998,0.446-0.998,0.997v45.916c0,0.553,0.451,0.999,0.998,0.999h69.875   c0.555,0,0.998-0.446,0.998-0.999V27.041C85.936,26.49,85.492,26.044,84.938,26.044z M83.777,46.589H16.23v-9.98h67.547V46.589z"/>
</g>
<g id="Your_Icon" display="none">
	<path display="inline" d="M85.98,37.144c0-10.476-8.258-18.719-18.434-18.719c-8.217,0-15.168,5.661-17.549,13.31   c-2.383-7.648-9.334-13.113-17.551-13.113c-10.178,0-18.428,8.008-18.428,18.488c0,5.288,2.107,9.024,5.498,13.022h-0.049   l30.547,31.442l30.543-31.442h-0.08C83.871,46.134,85.98,42.428,85.98,37.144z"/>
</g>
<g id="Layer_6">
	<path d="M50,14.064c-13.23,0-23.957,10.726-23.957,23.957C26.043,51.25,50,85.936,50,85.936S73.957,51.25,73.957,38.021   C73.957,24.79,63.229,14.064,50,14.064z M50,50.497c-6.617,0-11.979-5.359-11.979-11.977c0-6.616,5.361-11.978,11.979-11.978   c6.613,0,11.979,5.362,11.979,11.978C61.979,45.138,56.613,50.497,50,50.497z"/>
</g>
<g id="Layer_5" display="none">
	<polygon display="inline" points="85.982,32.037 85.982,14.051 85.982,14.047 67.993,14.047 67.993,14.047 26.013,14.047    26.013,32.037 50.971,32.037 14.018,68.99 30.98,85.953 67.993,48.942 67.993,74.017 85.982,74.017 85.982,32.037  "/>
</g>
<g id="Layer_4" display="none">
	<polygon display="inline" points="62.011,14.107 38.022,14.107 54.017,38.097 14.034,38.097 14.034,62.082 54.015,62.082    38.022,86.071 62.011,86.071 86,50.087  "/>
</g>
</svg>