<svg xmlns="http://www.w3.org/2000/svg" xmlns:xlink="http://www.w3.org/1999/xlink" version="1.1" x="0px" y="0px" width="100px" height="100px" viewBox="0 0 100 100" enable-background="new 0 0 100 100" xml:space="preserve">
<g id="Captions">
</g>
<g id="Layer_7" display="none">
	<path display="inline" d="M73.957,34.346H60.016c0.92-0.574,1.826-1.25,2.672-2.07c4.373-4.195,5.648-9.969,2.848-12.882   c-1.074-1.116-2.588-1.652-4.295-1.652c-2.75,0-5.996,1.393-8.693,3.981c-1.105,1.062-2.008,2.225-2.701,3.418   c-0.695-1.193-1.598-2.356-2.703-3.418c-2.697-2.589-5.941-3.981-8.691-3.981c-1.709,0-3.227,0.536-4.301,1.652   c-2.799,2.913-1.523,8.687,2.85,12.882c0.848,0.82,1.75,1.496,2.676,2.07H26.043h-2.994v15.972h2.994v31.94h47.914v-31.94h2.994   V34.346H73.957z M39.77,29.403c-1.531-1.473-2.619-3.262-2.984-4.912c-0.23-1.042-0.137-1.932,0.246-2.331   c0.357-0.37,1.039-0.423,1.42-0.423c1.422,0,3.725,0.75,5.924,2.867c1.533,1.473,2.619,3.263,2.982,4.908   c0.23,1.042,0.137,1.932-0.248,2.331c-0.355,0.368-1.041,0.423-1.416,0.423C44.271,32.266,41.973,31.516,39.77,29.403z    M52.844,82.008H46.85V52.061h5.994V82.008z M52.844,48.896H46.85V34.923h5.994V48.896z M53.994,32.266   c-0.375,0-1.059-0.055-1.416-0.423c-0.385-0.399-0.477-1.289-0.246-2.331c0.361-1.646,1.449-3.436,2.982-4.91   c2.199-2.115,4.502-2.865,5.928-2.865c0.375,0,1.059,0.053,1.414,0.423c0.383,0.399,0.479,1.289,0.246,2.331   c-0.363,1.65-1.451,3.439-2.982,4.912C57.719,31.516,55.418,32.266,53.994,32.266z"/>
</g>
<g id="Your_Icon" display="none">
	<path display="inline" d="M77.739,50.002c0-1.302-0.121-2.577-0.295-3.835l8.538-4.931L75.581,23.222l-8.535,4.923   c-2.014-1.569-4.241-2.876-6.646-3.848v-9.839H39.6v9.839c-2.403,0.972-4.631,2.278-6.644,3.848l-8.535-4.923L14.02,41.236   l8.537,4.931c-0.176,1.258-0.297,2.533-0.297,3.835c0,1.304,0.121,2.577,0.297,3.834l-8.539,4.927l10.403,18.021l8.535-4.929   c2.013,1.573,4.24,2.876,6.644,3.851v9.836h20.8v-9.838c2.405-0.973,4.633-2.277,6.646-3.849l8.535,4.929l10.401-18.021   l-8.538-4.927C77.618,52.579,77.739,51.306,77.739,50.002z M50.013,64.624c-8.28,0-14.992-6.714-14.992-14.992   c0-8.279,6.712-14.993,14.992-14.993c8.277,0,14.992,6.714,14.992,14.993C65.005,57.91,58.29,64.624,50.013,64.624z"/>
</g>
<g id="Layer_6">
	<path d="M85.604,64.245V53.926L54.99,36.959V20.987c0-2.758-2.233-6.984-4.991-6.984c-2.755,0-4.989,4.227-4.989,6.984v15.972   L14.396,53.926v10.319l30.613-8.65v17.564l-10.981,7.46v5.378l15.971-4.509l15.972,4.509v-5.378l-10.98-7.46V55.595L85.604,64.245z   "/>
</g>
<g id="Layer_5" display="none">
	<path display="inline" d="M14.631,50.5L37.498,71H85V30H38.703L14.631,50.5z M46.617,58.91l7.274-7.359l-7.245-7.328l6.832-6.909   l7.245,7.332l7.188-7.271l6.542,6.607l-7.361,7.453l7.509,7.592l-6.477,6.555l-7.518-7.602l-7.453,7.543L46.617,58.91z"/>
</g>
<g id="Layer_4" display="none">
	<polygon display="inline" points="39,14 62,14 62,37 84,37 84,63 62,63 62,86 39,86 39,63 16,63 16,37 39,37  "/>
</g>
</svg>