<svg xmlns="http://www.w3.org/2000/svg" xmlns:xlink="http://www.w3.org/1999/xlink" version="1.1" x="0px" y="0px" width="100px" height="100px" viewBox="0 0 100 100" enable-background="new 0 0 100 100" xml:space="preserve">
<g id="Captions">
</g>
<g id="Layer_7" display="none">
	<path display="inline" d="M75.408,75.404l-2.254-15.796c0.002-0.01,0.006-0.021,0.01-0.031L85.936,50l-12.771-9.575   c-0.004-0.012-0.008-0.027-0.01-0.039l2.254-15.802l-15.801,2.258c-0.012-0.002-0.02-0.006-0.027-0.01l-9.582-12.77l-9.572,12.771   c-0.014,0.002-0.021,0.006-0.029,0.01l-15.807-2.26l2.258,15.812c-0.004,0.01-0.004,0.016-0.008,0.023L14.064,50l12.779,9.583   c0,0.006,0.004,0.012,0.004,0.016L24.59,75.404l15.803-2.254c0.008,0.006,0.02,0.008,0.029,0.012l9.576,12.775l9.586-12.775   c0.008-0.004,0.016-0.006,0.023-0.012L75.408,75.404z"/>
</g>
<g id="Your_Icon" display="none">
	<polygon display="inline" points="49.998,15.005 41.692,41.841 14.018,41.841 36.558,57.984 27.836,84.994 49.998,68.314    72.172,84.932 63.647,58.051 85.982,41.841 58.214,41.841  "/>
</g>
<g id="Layer_6" display="none">
	<path display="inline" d="M57.814,42.184L50,14.049l-7.816,28.135l-28.137,7.815l28.137,7.819L50,85.951l7.814-28.133l28.139-7.819   L57.814,42.184z M49.982,55.972c-3.305,0-5.986-2.681-5.986-5.99c0-3.306,2.682-5.986,5.986-5.986c3.309,0,5.99,2.681,5.99,5.986   C55.973,53.291,53.291,55.972,49.982,55.972z"/>
</g>
<g id="Layer_5">
	<polygon points="26.717,41.535 14.018,54.232 39.418,79.631 85.982,33.066 73.276,20.369 39.418,54.232  "/>
</g>
<g id="Layer_4" display="none">
	<polygon display="inline" points="28.023,86.071 52.012,86.071 76,50.087 52.012,14.107 28.023,14.107 52.012,50.087  "/>
</g>
</svg>