<svg xmlns="http://www.w3.org/2000/svg" xmlns:xlink="http://www.w3.org/1999/xlink" version="1.1" x="0px" y="0px" width="100px" height="100px" viewBox="0 0 100 100" enable-background="new 0 0 100 100" xml:space="preserve">
<g id="Captions">
</g>
<g id="Layer_7" display="none">
</g>
<g id="Your_Icon" display="none">
	<polygon display="inline" points="14.025,38.004 14.025,61.993 31.548,61.993 55.537,85.982 55.537,14.018 31.552,38.004  "/>
	<path display="inline" d="M67.41,34.095l-4.243,4.239c6.43,6.432,6.43,16.896,0,23.324L67.41,65.9   C76.179,57.129,76.179,42.864,67.41,34.095z"/>
	<path display="inline" d="M75.89,25.616l-4.241,4.239c11.105,11.105,11.105,29.176,0,40.284l4.241,4.241   C89.337,60.934,89.337,39.06,75.89,25.616z"/>
</g>
<g id="Layer_6" display="none">
	<path display="inline" d="M85.937,39.619h-4.605L71.32,20.85H28.679l-10.011,18.77h-4.604v28.746h7.189V79.15h9.58V68.365h38.335   V79.15h9.577V68.365h7.191V39.619z M32.989,28.043h34.02l6.175,11.576H26.815L32.989,28.043z M26.041,59.977   c-3.307,0-5.985-2.676-5.985-5.984s2.679-5.99,5.985-5.99c3.308,0,5.99,2.682,5.99,5.99S29.349,59.977,26.041,59.977z    M73.958,59.977c-3.311,0-5.989-2.676-5.989-5.984s2.679-5.99,5.989-5.99c3.307,0,5.988,2.682,5.988,5.99   S77.265,59.977,73.958,59.977z"/>
</g>
<g id="Layer_5">
	<polygon points="14.018,14.02 85.982,50.004 14.018,85.98 33.322,50.004  "/>
</g>
<g id="Layer_4" display="none">
	<polygon display="inline" points="85.982,50.002 49.918,13.936 49.918,31.967 14.018,31.967 14.018,68.033 49.918,68.033    49.918,86.064  "/>
</g>
</svg>