<svg xmlns="http://www.w3.org/2000/svg" xmlns:xlink="http://www.w3.org/1999/xlink" version="1.1" id="Layer_1" x="0px" y="0px" width="100px" height="100px" viewBox="0 0 100 100" enable-background="new 0 0 100 100" xml:space="preserve">
<g>
	<path d="M54.746,58.445c5.591-1.018,8.136-5.937,8.136-5.937H49.998h-12.88c0,0,2.543,4.919,8.136,5.937   c5.595,1.021-1.873,9.401-2.154,16.526c-0.228,5.736,2.285,13.671,3.077,15.964c0.792,2.283,1.246,3.669,3.822,3.669   c2.58,0,3.034-1.386,3.826-3.669c0.792-2.293,3.305-10.228,3.078-15.964C56.622,67.847,49.151,59.467,54.746,58.445z"/>
	<path d="M64.688,5.394h-3.523v27.487c0,0.575-0.463,1.046-1.046,1.046c-0.576,0-1.047-0.472-1.047-1.046V5.394H35.31   c-1.057,0-1.923,0.862-1.923,1.923v28.7c0,1.058,0.866,1.922,1.923,1.922h29.378c1.054,0,1.926-0.864,1.926-1.922v-28.7   C66.613,6.256,65.741,5.394,64.688,5.394z"/>
	<path d="M64.688,38.818H35.31c-1.057,0-1.923,0.862-1.923,1.923v8.837c0,1.055,0.866,1.918,1.923,1.918h29.378   c1.054,0,1.926-0.863,1.926-1.918v-8.837C66.613,39.681,65.741,38.818,64.688,38.818z M64.189,48.423H35.94   c-0.283,0-0.511-0.113-0.511-0.253s0.228-0.258,0.511-0.258h28.249c0.279,0,0.505,0.118,0.505,0.258S64.469,48.423,64.189,48.423z    M64.189,45.41H35.94c-0.283,0-0.511-0.113-0.511-0.252s0.228-0.253,0.511-0.253h28.249c0.279,0,0.505,0.113,0.505,0.253   S64.469,45.41,64.189,45.41z M64.189,42.402H35.94c-0.283,0-0.511-0.113-0.511-0.253c0-0.145,0.228-0.258,0.511-0.258h28.249   c0.279,0,0.505,0.113,0.505,0.258C64.694,42.289,64.469,42.402,64.189,42.402z"/>
</g>
</svg>