<?xml version="1.0" encoding="utf-8"?>
<!-- Generator: Adobe Illustrator 14.0.0, SVG Export Plug-In . SVG Version: 6.00 Build 43363)  -->
<!DOCTYPE svg PUBLIC "-//W3C//DTD SVG 1.0//EN" "http://www.w3.org/TR/2001/REC-SVG-20010904/DTD/svg10.dtd">
<svg version="1.0" id="Layer_1" xmlns="http://www.w3.org/2000/svg" xmlns:xlink="http://www.w3.org/1999/xlink" x="0px" y="0px"
	 width="99.782px" height="96.57px" viewBox="0 0 99.782 96.57" enable-background="new 0 0 99.782 96.57" xml:space="preserve">
<path d="M17.699,33.051c0.524-5.296-0.82-10.795-4.189-15.44c-3.37-4.648-8.181-7.632-13.377-8.783
	c-0.527,5.3,0.817,10.795,4.187,15.444C7.689,28.919,12.5,31.903,17.699,33.051z"/>
<g>
	<path d="M15.515,16.157c0.865,1.196,1.612,2.46,2.25,3.77c0.642-1.314,1.382-2.581,2.243-3.77c0.985-1.359,2.105-2.593,3.322-3.713
		C22.803,7.694,20.817,3.391,17.807,0c-3.022,3.408-5.014,7.742-5.527,12.518C13.461,13.617,14.55,14.829,15.515,16.157z"/>
</g>
<path d="M35.39,8.828c-5.196,1.151-10.006,4.135-13.376,8.783c-1.271,1.754-2.254,3.634-2.957,5.575
	c0.948,2.946,1.348,6.054,1.154,9.183c4.267-1.447,8.146-4.173,10.992-8.097C34.573,19.623,35.917,14.127,35.39,8.828z"/>
<path d="M63.489,13.89c-5.034,0-9.113,4.08-9.113,9.117c0,5.031,4.079,9.114,9.113,9.114s9.118-4.083,9.118-9.114
	C72.607,17.969,68.523,13.89,63.489,13.89z"/>
<path d="M87.11,51.954l-4.631-13.206c-0.899-2.488-2.626-4.433-7.498-4.433H53.587c-4.869,0-6.599,1.945-7.495,4.433l-4.631,13.206
	c-0.348,0.854-0.527,2.771,1.357,4.056l10.896,7.185c1.589,1.054,3.732,0.613,4.783-0.976c1.047-1.592,0.609-3.738-0.982-4.786
	l-5.237-3.456l-3.411-2.25l2.436-6.719h3.37l-1.975,5.451l6.564,4.331c1.475,0.972,2.484,2.46,2.84,4.197
	c0.354,1.732,0.014,3.501-0.958,4.976c-0.39,0.586-0.869,1.089-1.402,1.516h9.089c-0.533-0.427-1.013-0.93-1.402-1.516
	c-0.972-1.475-1.312-3.243-0.957-4.976c0.354-1.737,1.364-3.226,2.839-4.197l6.564-4.331l-1.979-5.451h3.37l2.439,6.719l-3.414,2.25
	l-5.234,3.456c-1.592,1.048-2.033,3.194-0.982,4.786c1.051,1.589,3.194,2.029,4.783,0.976l10.896-7.185
	C87.638,54.725,87.455,52.809,87.11,51.954z"/>
<path d="M83.244,71.863c0-4.631,3.752-8.373,8.373-8.373s8.384,3.742,8.384,8.373c0,4.617-3.763,8.376-8.384,8.376
	S83.244,76.48,83.244,71.863z"/>
<g>
	<path d="M1.873,88.65c-1.033,0-1.871,0.838-1.871,1.868v2.502c0,0-0.186,3.55,3.46,3.55c2.767,0,92.838,0,92.838,0
		c3.666,0,3.48-3.463,3.48-3.463v-7.568c0,0-0.313-2.419-3.132-2.419h-9.056c-3.102,0-5.658,5.53-11.571,5.53H1.873z"/>
</g>
<path d="M73.902,69.728H47.86l-10.837,1.66l0.499-10.712h-1.815l0.506,10.836l-7.566,1.158l0.562-11.771h-1.829l0.558,11.881
	l-10.299,1.578l0.541-11.84h-1.785l0.537,11.946L4.582,76.356c-0.087,0-0.169,0.021-0.256,0.028l0.521-11.123H3.048l0.507,11.223
	c-2.033,0.469-3.553,2.287-3.553,4.462c0,2.539,2.051,4.593,4.58,4.593l35.607,0.004c-0.62-1.003-0.995-2.175-0.995-3.436
	c0-3.629,2.949-6.577,6.577-6.577h14.262l11.561-2.416l0.642,3.07l-11.878,2.48H45.771c-1.898,0-3.438,1.54-3.438,3.442
	c0,1.885,1.516,3.411,3.394,3.436l28.238,0.003c4.365-0.034,7.87-3.553,7.87-7.9C81.835,73.276,78.3,69.728,73.902,69.728z"/>
</svg>
