<svg xmlns="http://www.w3.org/2000/svg" xmlns:xlink="http://www.w3.org/1999/xlink" version="1.1" id="Sword_1_" x="0px" y="0px" width="100px" height="100px" viewBox="0 0 100 100" enable-background="new 0 0 100 100" xml:space="preserve">
<path d="M62,63.936v-2.129c-2.241,0.848-4.596,1.463-7.031,1.823V23.771L50,13.833l-4.969,9.938V63.63  c-2.436-0.36-4.79-0.976-7.031-1.823v2.129c3.156,1.119,6.513,1.809,10,2.002V84h-1v2h6v-2h-1V65.938  C55.487,65.744,58.844,65.055,62,63.936z M46.969,24.229L50,18.167l3.031,6.062v39.635C52.032,63.952,51.021,64,50,64  c-1.022,0-2.032-0.048-3.031-0.137V24.229z"/>
</svg>