<svg xmlns="http://www.w3.org/2000/svg" xmlns:xlink="http://www.w3.org/1999/xlink" version="1.1" x="0px" y="0px" width="100px" height="100px" viewBox="0 0 100 100" enable-background="new 0 0 100 100" xml:space="preserve">
<g id="Captions">
</g>
<g id="Your_Icon">
	<g>
		<path d="M41.976,79.218H57.1c0.99-1.106,2.005-2.337,3.008-3.687H39.049C39.924,76.77,40.896,78.005,41.976,79.218z"/>
		<path d="M45.868,52.607c0,1.777-0.135,3.503-0.417,5.174h8.349c-0.261-1.671-0.364-3.397-0.343-5.174H45.868z"/>
		<path d="M57.662,68.223H41.448c-0.728,1.138-1.543,2.241-2.447,3.311c-0.158,0.219-0.688,0.859-0.999,1.213H61.02    c-0.284-0.34-0.601-0.728-0.73-0.913C59.302,70.675,58.434,69.469,57.662,68.223z"/>
		<path d="M49.756,86c0,0,2.352-1.647,5.381-4.693H43.983C45.679,82.959,47.585,84.547,49.756,86z"/>
		<path d="M43,65.438h13.14c-0.738-1.562-1.315-3.189-1.75-4.872h-9.551C44.378,62.25,43.765,63.874,43,65.438z"/>
		<path d="M43.025,39.648l0.622-0.13l0.187,0.606c1.045,3.379,1.679,6.609,1.923,9.699h7.832c0.265-2.982,0.892-6.102,1.899-9.352    l0.188-0.606l0.621,0.131c0.08,0.019,3.454,0.76,7.744,2.801c-2.089-2.548-4.834-4.527-7.99-5.672    c3.24-2.032,5.401-5.623,5.401-9.728c0-3.147-1.269-5.998-3.319-8.072l4.088-4.087c0.271-0.271,0.271-0.709,0-0.979    s-0.709-0.271-0.979,0l-4.145,4.145c-1.961-1.556-4.435-2.492-7.132-2.492c-2.874,0-5.496,1.064-7.511,2.81l-4.371-4.371    c-0.271-0.271-0.709-0.271-0.979,0s-0.271,0.709,0,0.979l4.362,4.362c-1.851,2.039-2.988,4.736-2.988,7.706    c0,4.037,2.094,7.583,5.247,9.631c-2.961,1.022-5.575,2.781-7.638,5.05C39.983,40.321,42.952,39.665,43.025,39.648z"/>
		<path d="M42.699,41.165c-3.35,0.883-19.249,5.815-23.294,20.561l-0.158,0.609c-0.035,0.13-0.069,0.26-0.104,0.393l-0.013,0.246    c-0.894,5.632,2.947,10.985,8.568,11.934c3.341,0.564,6.729-0.528,9.127-2.928c0.116-0.119,0.865-1.007,1.077-1.303    C44.574,62.825,46.174,52.91,42.699,41.165z"/>
		<path d="M80.193,63.322l-0.06-0.391l0.006-0.007c-0.021-0.081-0.041-0.162-0.065-0.24l-0.154-0.601    c-4.049-14.756-19.944-19.69-23.297-20.572c-3.474,11.748-1.876,21.659,4.762,29.466c0.249,0.341,0.995,1.23,1.114,1.35    c2.396,2.396,5.781,3.492,9.125,2.927C77.245,74.306,81.086,68.953,80.193,63.322z"/>
	</g>
</g>
</svg>