<svg xmlns="http://www.w3.org/2000/svg" xmlns:xlink="http://www.w3.org/1999/xlink" version="1.1" id="Ebene_1" x="0px" y="0px" width="100px" height="100px" viewBox="0 0 100 100" enable-background="new 0 0 100 100" xml:space="preserve">
<polygon points="48.305,35.232 48.298,13 29.07,13 "/>
<polygon points="48.318,82.991 48.306,39 30.102,39 "/>
<polygon points="27.853,39 5.015,39 48.2,88.137 "/>
<polygon points="27,37 27,14.125 5.327,37 "/>
<polygon points="46.667,37 29,16.261 29,37 "/>
<polygon points="50.349,35.232 50.354,13 69.583,13 "/>
<polygon points="50.335,82.991 50.348,39 68.551,39 "/>
<polygon points="70.801,39 93.638,39 50.453,88.137 "/>
<polygon points="71,37 71,14.125 93.326,37 "/>
<polygon points="51.986,37 69,16.261 69,37 "/>
</svg>