<svg xmlns="http://www.w3.org/2000/svg" xmlns:xlink="http://www.w3.org/1999/xlink" version="1.1" x="0px" y="0px" width="100px" height="100px" viewBox="0 0 100 100" enable-background="new 0 0 100 100" xml:space="preserve">
<g id="Captions">
	<rect x="-192" width="185" height="99"/>
	<rect y="-36" width="100" height="30"/>
	<text transform="matrix(1 0 0 1 66 -19.5)" fill="#000000" font-family="'Helvetica'" font-size="2.4">http://thenounproject.com</text>
	<text transform="matrix(1 0 0 1 7.166 -24.5)"><tspan x="0" y="0" fill="#000000" font-family="'Helvetica-Bold'" font-size="6.1578">The Noun Project</tspan><tspan x="1.12" y="4.8" fill="#000000" font-family="'Helvetica-Bold'" font-size="4">Icon Template</tspan></text>
	<text transform="matrix(1 0 0 1 -178.5 10.5)" fill="#000000" font-family="'Helvetica-Bold'" font-size="6.1578">Reminders</text>
	<line fill="#000000" stroke="#FFFFFF" stroke-miterlimit="10" x1="8" y1="-14.5" x2="18" y2="-14.5"/>
	<line fill="#000000" stroke="#FFFFFF" stroke-miterlimit="10" x1="-179" y1="16.5" x2="-162" y2="16.5"/>
	<g>
		<g>
			<g>
				<rect x="-170.802" y="31.318" fill="#000000" width="8.721" height="8.642"/>
				<path fill="#000000" d="M-164.455,42.312h4.747v-4.703h-4.747V42.312z M-159.266,42.749h-5.63V37.17h5.63V42.749      L-159.266,42.749z M-166.221,44.062h8.279v-8.203h-8.279V44.062L-166.221,44.062z M-157.5,44.5h-9.163v-9.079h9.163V44.5      L-157.5,44.5z"/>
				<polygon fill="#000000" points="-166.149,44.133 -166.292,43.991 -158.013,35.787 -157.871,35.929     "/>
			</g>
		</g>
	</g>
	<rect x="-179" y="58" fill="none" width="35" height="32.5"/>
	<text transform="matrix(1 0 0 1 -179 60.1572)"><tspan x="0" y="0" fill="#000000" font-family="'Helvetica-Bold'" font-size="3">Strokes</tspan><tspan x="0" y="5" fill="#000000" font-family="'Helvetica'" font-size="2.4">Try to keep strokes at 4px</tspan><tspan x="0" y="10" fill="#000000" font-family="'Helvetica'" font-size="2.4">Minimum stroke weight is 2px</tspan><tspan x="0" y="14.5" fill="#000000" font-family="'Helvetica'" font-size="2.4">For thicker strokes use even </tspan><tspan x="0" y="17.5" fill="#000000" font-family="'Helvetica'" font-size="2.4">numbers: 6px, 8px etc.</tspan><tspan x="0" y="22" fill="#000000" font-family="'Helvetica-Bold'" font-size="2.4">Remember to expand strokes </tspan><tspan x="0" y="25" fill="#000000" font-family="'Helvetica-Bold'" font-size="2.4">before saving as an SVG </tspan></text>
	<rect x="-136.5" y="58" fill="none" width="35" height="32.5"/>
	<text transform="matrix(1 0 0 1 -136.5 60.1572)"><tspan x="0" y="0" fill="#000000" font-family="'Helvetica-Bold'" font-size="3">Size</tspan><tspan x="0" y="5" fill="#000000" font-family="'Helvetica'" font-size="2.4">Cannot be wider or taller than </tspan><tspan x="0" y="8.5" fill="#000000" font-family="'Helvetica'" font-size="2.4">100px (artboar size)</tspan><tspan x="0" y="13.5" fill="#000000" font-family="'Helvetica'" font-size="2.4">Scale your icon to fill as much of </tspan><tspan x="0" y="16.5" fill="#000000" font-family="'Helvetica'" font-size="2.4">the Safe Area as possible (within </tspan><tspan x="0" y="19.5" fill="#000000" font-family="'Helvetica'" font-size="2.4">the guides)</tspan></text>
	<rect x="-94" y="58" fill="none" width="35" height="32.5"/>
	<text transform="matrix(1 0 0 1 -94 60.1572)"><tspan x="0" y="0" fill="#000000" font-family="'Helvetica-Bold'" font-size="3">Ungroup</tspan><tspan x="0" y="5" fill="#000000" font-family="'Helvetica'" font-size="2.4">If your design has more than one </tspan><tspan x="0" y="8" fill="#000000" font-family="'Helvetica'" font-size="2.4">shape, make sure to ungroup.</tspan></text>
	<rect x="-50" y="58" fill="none" width="35" height="32.5"/>
	<text transform="matrix(1 0 0 1 -50 60.1572)"><tspan x="0" y="0" fill="#000000" font-family="'Helvetica-Bold'" font-size="3">Save as</tspan><tspan x="0" y="5" fill="#000000" font-family="'Helvetica'" font-size="2.4">Save as .SVG and make sure </tspan><tspan x="0" y="8" fill="#000000" font-family="'Helvetica'" font-size="2.4">&#8220;Use Artboards&#8221; is checked.</tspan></text>
	<text transform="matrix(1.0074 0 0 1 -125.542 30.5933)" fill="#000000" font-family="'Helvetica'" font-size="2.5731">100px</text>
	<text transform="matrix(1.0074 0 0 1 -41 39)" fill="#000000" font-family="'Helvetica-Bold'" font-size="5.1462">.SVG</text>
	<rect x="-126.514" y="34.815" fill="#000000" width="10.261" height="10.185"/>
	<rect x="-126.477" y="31.766" fill="#000000" width="0.522" height="2.337"/>
	<rect x="-116.812" y="31.766" fill="#000000" width="0.523" height="2.337"/>
	<rect x="-127" y="32.337" fill="#000000" width="11.233" height="0.572"/>
	<g>
		<rect x="-83.805" y="33.844" fill="#000000" width="10.305" height="10.156"/>
		<rect x="-76.809" y="28.707" fill="#000000" width="3.308" height="3.261"/>
	</g>
	<rect x="-178.5" y="22.5" fill="#000000" stroke="#FFFFFF" stroke-miterlimit="10" width="30" height="30"/>
	<rect x="-136.5" y="22.5" fill="#000000" stroke="#FFFFFF" stroke-miterlimit="10" width="30" height="30"/>
	<rect x="-93.5" y="22.5" fill="#000000" stroke="#FFFFFF" stroke-miterlimit="10" width="30" height="30"/>
	<rect x="-49.5" y="22.5" fill="#000000" stroke="#FFFFFF" stroke-miterlimit="10" width="30" height="30"/>
</g>
<g id="Your_Icon">
	<g>
		<path d="M37.57,43.208l-0.019-0.028l-0.018-0.029c-0.854-1.417-1.286-2.845-1.297-4.213c-5.307,1.613-10.613,4.621-15.919,4.621    c-2.075,0-4.15-0.46-6.226-1.645c0.65,1.949,1.3,3.826,1.949,5.641c-0.341,1.479-0.682,2.942-1.022,4.385    c1.766,0.829,3.533,1.164,5.299,1.164c6.763,0,13.525-4.887,20.288-5.544L37.57,43.208z"/>
		<path d="M47.344,39.097c-1.76-0.824-3.521-1.155-5.28-1.155c-0.425,0-0.85,0.021-1.274,0.057l7.417,10.25    C47.919,45.186,47.632,42.134,47.344,39.097z"/>
		<path d="M60.947,61.687c-0.251,0-0.503,0.026-0.754,0.085c-2.315,0.529-1.896,1.287-2.773,1.538    c-0.049,0.014-0.098,0.02-0.146,0.02c-1.042,0-1.828-3.274-4.98-7.691l-0.098-0.134l2.771-3.954    c-1.061-0.441-2.079-1.02-3.063-1.74l-0.248-0.181l-1.86,2.56l-1.259-1.741l-0.719-0.993l-0.644-0.891L39.631,38.14l-0.336-0.463    l-0.331-0.458L38.082,36c-0.32,0.514-0.538,1.035-0.67,1.554c-0.047,0.185-0.082,0.369-0.108,0.553    c-0.026,0.18-0.043,0.36-0.051,0.539c-0.058,1.444,0.46,2.83,1.154,3.979l3.395,4.869l0.353,0.505l0.361,0.519l4.871,6.985    l-0.191,0.264c-3.162,4.406-3.955,7.68-4.997,7.68c-0.048,0-0.097-0.007-0.147-0.021c-0.875-0.253-0.454-1.011-2.77-1.546    c-0.255-0.059-0.51-0.087-0.761-0.087c-1.958,0-3.786,1.673-4.205,3.645c-0.628,2.181,0.391,4.923,2.669,5.599    c0.457,0.167,0.93,0.245,1.402,0.245c1.863,0,3.703-1.22,4.344-3.031c1.162-2.595,1.757-6.022,5.516-8.965l1.579-1.236    l1.409,1.107c3.751,2.951,4.34,6.381,5.497,8.979c0.637,1.816,2.48,3.041,4.347,3.041c0.469,0,0.938-0.077,1.392-0.242    c2.28-0.671,3.304-3.41,2.681-5.594C64.735,63.363,62.906,61.687,60.947,61.687z M38.382,69.804c-0.486,0-0.976-0.13-1.431-0.421    c-1.79-0.952-1.779-3.694-0.461-5.021c0.658-0.664,1.491-0.962,2.3-0.962c1.552,0,3.019,1.095,3.015,2.794    C41.912,68.063,40.167,69.804,38.382,69.804z M62.508,69.279c-0.455,0.289-0.942,0.417-1.427,0.417    c-1.787,0-3.532-1.743-3.421-3.617c0-1.697,1.465-2.787,3.014-2.787c0.812,0,1.647,0.299,2.308,0.968    C64.293,65.591,64.301,68.331,62.508,69.279z"/>
		<path d="M61.949,40.976c0.488-1.498,0.513-3.187-0.5-4.818l-3.384,4.654c0.79,0.151,1.606,0.227,2.459,0.227    C60.999,41.039,61.474,41.016,61.949,40.976z"/>
		<path d="M85.497,41.714c-2.674-1.954-5.347-2.617-8.021-2.617c-4.932,0-9.861,2.255-14.793,2.83    c-0.193,0.023-0.389,0.042-0.582,0.06c-0.193,0.017-0.387,0.031-0.58,0.042c-0.332,0.019-0.665,0.03-0.997,0.03    c-1.039,0-2.079-0.102-3.119-0.34c-0.178-0.041-0.355-0.084-0.533-0.133c-0.173-0.047-0.347-0.098-0.52-0.154    c-1.089-0.35-2.175-0.863-3.263-1.582c-0.143,2.222-0.284,4.44-0.427,6.656c-0.02,0.317-0.04,0.634-0.061,0.952    c-0.02,0.317-0.041,0.634-0.062,0.951c-0.012,0.192-0.023,0.385-0.036,0.576c1.021,0.746,2.041,1.303,3.062,1.706    c0.164,0.066,0.328,0.128,0.492,0.186c0.17,0.06,0.34,0.113,0.508,0.165c1.32,0.398,2.641,0.561,3.96,0.561    c5.648,0,11.298-2.959,16.946-2.959c2.485,0,4.971,0.572,7.456,2.222c-0.569-2.042-1.141-4.028-1.711-5.963    C83.979,43.745,84.737,42.677,85.497,41.714z"/>
	</g>
</g>
</svg>