<svg xmlns="http://www.w3.org/2000/svg" xmlns:xlink="http://www.w3.org/1999/xlink" version="1.1" id="Layer_1" x="0px" y="0px" width="100px" height="100px" viewBox="0 0 100 100" enable-background="new 0 0 100 100" xml:space="preserve">
<path d="M48.429,32.372h3.81l1.991,5.049h8.634c1.327,0,2.922-0.942,3.567-2.102l0.349-0.622l9.426,27.884h-7.062  c-1.327,0-2.925,0.94-3.571,2.1l-1.638,2.947h-3.17L48.429,32.372z M81.912,67.628h3.168l1.638-2.947  c0.645-1.159,2.245-2.1,3.57-2.1h1.408v-25.16h-16.32l-1.993-5.049h-3.806L81.912,67.628z M39.622,67.628h3.166l1.64-2.947  c0.647-1.159,2.243-2.1,3.569-2.1h7.064l-9.426-27.884l-0.347,0.622c-0.645,1.159-2.243,2.102-3.572,2.102h-8.633l-1.989-5.049  h-3.81L39.622,67.628z M8.304,47.943v4.113l10.812,10.188c0.274,0.188,0.766,0.337,1.097,0.337h13.702l-9.426-27.884l-0.347,0.622  c-0.645,1.159-2.243,2.102-3.571,2.102h-0.479c-0.265,0-0.702,0.15-0.976,0.335L8.304,47.943z"/>
</svg>