<svg xmlns="http://www.w3.org/2000/svg" xmlns:xlink="http://www.w3.org/1999/xlink" version="1.1" id="Layer_1" x="0px" y="0px" width="100px" height="100px" viewBox="0 0 100 100" enable-background="new 0 0 100 100" xml:space="preserve">
<g>
	<circle fill="#000000" cx="48.48" cy="8.051" r="8.051"/>
	<path fill="#000000" d="M56.96,44.959v5.993h-0.992v1.214c-0.002,0.043-0.076,1.055,0.579,1.79c0.654,0.74,1.796,0.75,1.807,0.75   l0.917,0.012l0.002-9.758H56.96z"/>
	<path fill="#000000" d="M58.35,55.505c-0.061,0-1.51-0.014-2.4-1.014c-0.89-1.002-0.786-2.306-0.778-2.361v-1.178h-1.009v-5.993   H52.29v5.993h-2.8v-5.993h-1.87v5.993H44.82v-5.993h-1.869v5.993h-2.801v-5.993h-2.223l-0.008,49.995   c0,2.649,2.153,4.801,4.803,4.801c2.654,0,4.804-2.151,4.804-4.801l0.002-36.761h2.14l-0.014,36.761   c0,2.649,2.149,4.801,4.801,4.801c2.652,0,4.803-2.151,4.803-4.801l0.011-39.438L58.35,55.505z"/>
	<path fill="#000000" d="M58.086,17.889L38.888,17.88c-6.063,0-9.863,4.945-9.863,11.114v26.298c0,5.111,6.753,5.111,6.753,0V29.697   h2.15l-0.002,14.088h2.223v-5.993h2.801v5.993h1.869v-5.993h0.99v-4.663c0-0.497,0.897-0.497,0.897,0v4.663h0.914v5.993h1.87   v-5.993h2.8v5.993h1.872v-5.993h2.798v5.993h2.312l0.007-14.088h2.106v25.025h-2.115v0.795v0.007h2.133   c0.207,4.902,6.697,4.834,6.681-0.231v-26.14C68.084,23.462,64.744,17.889,58.086,17.889z M42.549,32.804   c0-0.388,0.315-0.704,0.703-0.704c0.391,0,0.707,0.316,0.707,0.704c0,0.39-0.315,0.706-0.707,0.706   C42.865,33.509,42.549,33.194,42.549,32.804z M43.746,35.663c-0.388,0-0.702-0.316-0.702-0.704c0-0.388,0.314-0.703,0.702-0.703   c0.39,0,0.705,0.315,0.705,0.703C44.451,35.347,44.136,35.663,43.746,35.663z M44.183,31.689c-0.387,0-0.702-0.315-0.702-0.704   c0-0.39,0.314-0.703,0.702-0.703c0.389,0,0.705,0.313,0.705,0.703C44.888,31.374,44.572,31.689,44.183,31.689z M46.132,30.984   c-0.388,0-0.7-0.316-0.7-0.703c0-0.391,0.312-0.706,0.7-0.706c0.392,0,0.707,0.315,0.707,0.706   C46.839,30.668,46.524,30.984,46.132,30.984z M47.467,30.986c0-0.39,0.316-0.704,0.704-0.704c0.392,0,0.706,0.314,0.706,0.704   c0,0.388-0.314,0.706-0.706,0.706C47.783,31.691,47.467,31.374,47.467,30.986z M48.742,35.663c-0.388,0-0.701-0.316-0.701-0.704   c0-0.388,0.313-0.703,0.701-0.703c0.39,0,0.706,0.315,0.706,0.703C49.448,35.347,49.131,35.663,48.742,35.663z M49.186,33.509   c-0.389,0-0.703-0.317-0.703-0.706c0-0.388,0.314-0.702,0.703-0.702s0.706,0.314,0.706,0.702   C49.892,33.192,49.574,33.509,49.186,33.509z"/>
</g>
</svg>