<svg xmlns="http://www.w3.org/2000/svg" xmlns:xlink="http://www.w3.org/1999/xlink" version="1.1" id="Double_axe" x="0px" y="0px" width="100px" height="100px" viewBox="0 0 100 100" enable-background="new 0 0 100 100" xml:space="preserve">
<path d="M57,16v4c2.08,0,4.05,0.469,5.826,1.286c-0.105,3.945-2.354,7.265-5.463,8.487c-1.146-1.99-3.074-3.47-5.363-4.025V21h1v-2  h-1.333L50,14l-1.667,5H47v2h1v4.748c-2.29,0.555-4.217,2.035-5.364,4.025c-3.108-1.221-5.357-4.541-5.463-8.486  C38.95,20.469,40.919,20,43,20v-4c-9.925,0-18,8.075-18,18s8.075,18,18,18v-4c-2.053,0-3.999-0.455-5.757-1.253  c0.44-3.732,2.813-6.752,5.93-7.705c1.167,1.577,2.863,2.734,4.827,3.21V64h-1v2h1v18h-1v2h6v-2h-1V66h1v-2h-1V42.252  c1.964-0.476,3.659-1.634,4.827-3.21c3.117,0.953,5.489,3.973,5.93,7.706C60.998,47.545,59.053,48,57,48v4c9.925,0,18-8.075,18-18  S66.925,16,57,16z M44.5,34c0-2.327,1.455-4.315,3.5-5.118v10.236C45.955,38.315,44.5,36.327,44.5,34z M52,39.118V28.882  c2.045,0.803,3.5,2.792,3.5,5.118S54.045,38.315,52,39.118z"/>
</svg>