<svg xmlns="http://www.w3.org/2000/svg" xmlns:xlink="http://www.w3.org/1999/xlink" version="1.1" id="ninja" x="0px" y="0px" width="100px" height="100px" viewBox="0 0 100 100" enable-background="new 0 0 100 100" xml:space="preserve">
<path d="M72,36.385l14.143-14.142L81.9,18L72,27.9V14h-6v6.91C61.988,16.658,56.306,14,50,14c-12.15,0-22,9.85-22,22  c0,0.006,0,0.013,0,0.019V55h-3v19.998l0,0.002L64,86l11-11V55h-3V36.385z M31.001,51l19-13l19,13H31.001z"/>
<polygon points="41.699,46.814 38,49 45.398,49 "/>
<polygon points="58.301,46.814 54.602,49 62,49 "/>
</svg>