<svg xmlns="http://www.w3.org/2000/svg" xmlns:xlink="http://www.w3.org/1999/xlink" version="1.1" id="Layer_1" x="0px" y="0px" width="100px" height="100px" viewBox="0 0 100 100" enable-background="new 0 0 100 100" xml:space="preserve">
<circle fill="#000000" cx="50.988" cy="13.738" r="13.586"/>
<path fill="#000000" d="M65.298,76.017V86.13h-1.675v2.049c-0.004,0.072-0.127,1.781,0.978,3.02  c1.104,1.251,3.032,1.268,3.046,1.268l1.552,0.018l0.003-16.466L65.298,76.017L65.298,76.017z"/>
<path fill="#000000" d="M67.195,30.338l-32.393-0.016c-10.231,0-16.644,8.345-16.644,18.755V93.45c0,8.629,11.396,8.629,11.396,0  V50.265h3.627l-0.004,23.773h3.752V63.924h4.727v10.114h3.153V63.924h1.67v-7.868c0-0.84,1.514-0.84,1.514,0v7.868h1.542v10.114  h3.155V63.924h4.724v10.114h3.158V63.924h4.724v10.114h3.9l0.013-23.773h3.553v42.228h-3.568v1.345v0.009h3.599  c0.35,8.271,11.302,8.155,11.274-0.392V49.346C84.068,39.742,78.432,30.338,67.195,30.338z M40.979,55.508  c0-0.655,0.532-1.187,1.186-1.187c0.661,0,1.194,0.531,1.194,1.187c0,0.657-0.531,1.189-1.194,1.189  C41.514,56.695,40.979,56.165,40.979,55.508z M43,60.333c-0.656,0-1.186-0.535-1.186-1.189s0.529-1.188,1.186-1.188  c0.658,0,1.189,0.533,1.189,1.188S43.659,60.333,43,60.333z M43.737,53.627c-0.653,0-1.185-0.532-1.185-1.189  c0-0.658,0.53-1.186,1.185-1.186c0.656,0,1.191,0.527,1.191,1.186C44.928,53.095,44.393,53.627,43.737,53.627z M47.026,52.436  c-0.655,0-1.181-0.534-1.181-1.186c0-0.66,0.526-1.191,1.181-1.191c0.661,0,1.192,0.531,1.192,1.191  C48.219,51.901,47.688,52.436,47.026,52.436z M49.278,52.439c0-0.657,0.533-1.188,1.188-1.188c0.662,0,1.191,0.53,1.191,1.188  c0,0.655-0.529,1.192-1.191,1.192C49.811,53.63,49.278,53.095,49.278,52.439z M51.43,60.333c-0.654,0-1.182-0.535-1.182-1.189  s0.528-1.188,1.182-1.188c0.658,0,1.193,0.533,1.193,1.188S52.086,60.333,51.43,60.333z M52.181,56.695  c-0.657,0-1.188-0.534-1.188-1.19s0.531-1.183,1.188-1.183c0.655,0,1.189,0.526,1.189,1.183S52.835,56.695,52.181,56.695z"/>
<path fill="#000000" d="M69.19,99.958l0.005-6.124l-1.553-0.021c-0.103,0-2.548-0.025-4.05-1.711  c-1.499-1.69-1.325-3.891-1.312-3.984V86.13h-1.704V76.017h-3.16V86.13h-4.724V76.017h-3.155V86.13h-4.725V76.017h-3.154V86.13  h-4.727V76.017H33.18l-0.004,23.941H69.19z"/>
</svg>