<svg xmlns="http://www.w3.org/2000/svg" xmlns:xlink="http://www.w3.org/1999/xlink" version="1.1" id="Layer_1" x="0px" y="0px" width="62.304px" height="100px" viewBox="0 0 62.304 100" enable-background="new 0 0 62.304 100" xml:space="preserve">
<path fill="#000000" d="M54.807,3.184c-0.295-0.792-1.051-1.318-1.896-1.318H9.659c-0.845,0-1.601,0.526-1.896,1.318  C3.998,13.32,2.78,24.536,4.142,36.52c1.112,9.783,3.714,17.89,5.113,22.245L9.266,58.8c2.74,8.537,4.922,37.983,4.944,38.28  c0.077,1.057,0.958,1.874,2.017,1.874h30.116c1.061,0,1.939-0.817,2.017-1.874c0.021-0.297,2.204-29.743,4.945-38.28l0.011-0.035  c1.397-4.356,4-12.462,5.111-22.245C59.789,24.536,58.572,13.32,54.807,3.184z M11.083,5.911h40.405  c1.783,5.171,2.875,10.642,3.269,16.368L7.811,22.334C8.201,16.588,9.293,11.099,11.083,5.911z"/>
</svg>