<svg xmlns:inkscape="http://www.inkscape.org/namespaces/inkscape" xmlns:rdf="http://www.w3.org/1999/02/22-rdf-syntax-ns#" xmlns:sodipodi="http://sodipodi.sourceforge.net/DTD/sodipodi-0.dtd" xmlns:svg="http://www.w3.org/2000/svg" xmlns:cc="http://creativecommons.org/ns#" xmlns:dc="http://purl.org/dc/elements/1.1/" xmlns="http://www.w3.org/2000/svg" xmlns:xlink="http://www.w3.org/1999/xlink" version="1.1" id="Layer_1" inkscape:version="0.48.2 r9819" sodipodi:docname="button.svg" x="0px" y="0px" width="100px" height="100px" viewBox="0 0 100 100" enable-background="new 0 0 100 100" xml:space="preserve">
<title id="title3888">Pushing Button</title>
<sodipodi:namedview inkscape:pageopacity="0" inkscape:window-height="713" inkscape:pageshadow="2" inkscape:window-width="1187" id="namedview15" inkscape:cy="50" inkscape:cx="36.545079" inkscape:zoom="5.4255241" showgrid="false" guidetolerance="10" gridtolerance="10" objecttolerance="10" borderopacity="1" pagecolor="#ffffff" bordercolor="#666666" inkscape:window-x="47" inkscape:current-layer="g3080" inkscape:window-maximized="0" inkscape:window-y="0">
	</sodipodi:namedview>
<g>
	<path d="M46.818,95.198c-22.397,0-42.039-20.008-42.039-42.816c0-22.37,18.086-41.268,39.619-41.268   c1.798,0,3.158,1.458,3.158,3.258c0,0,0,31.445,0,34.602c0,3.157,3.446,3.447,3.446,3.447h34.604c1.802,0,3.258,1.364,3.258,3.16   C88.863,77.108,69.608,95.198,46.818,95.198z"/>
</g>
<g>
	<path d="M93.963,43.676H58.289c-1.68,0-2.986-1.308-2.986-2.985V5.016c0-1.676,1.332-3.036,3.012-3.036   c22.791,0,38.698,15.892,38.698,38.684C97.013,42.344,95.64,43.676,93.963,43.676z"/>
</g>
</svg>