<svg xmlns="http://www.w3.org/2000/svg" xmlns:xlink="http://www.w3.org/1999/xlink" version="1.1" x="0px" y="0px" width="100px" height="100px" viewBox="0 0 100 100" enable-background="new 0 0 100 100" xml:space="preserve">
<g id="Captions">
	<rect x="-192" width="185" height="99"/>
	<rect y="-36" width="100" height="30"/>
	<text transform="matrix(1 0 0 1 66 -19.5)" fill="#000000" font-family="'Helvetica'" font-size="2.4">http://thenounproject.com</text>
	<text transform="matrix(1 0 0 1 7.166 -24.5)"><tspan x="0" y="0" fill="#000000" font-family="'Helvetica-Bold'" font-size="6.1578">The Noun Project</tspan><tspan x="1.12" y="4.8" fill="#000000" font-family="'Helvetica-Bold'" font-size="4">Icon Template</tspan></text>
	<text transform="matrix(1 0 0 1 -178.5 10.5)" fill="#000000" font-family="'Helvetica-Bold'" font-size="6.1578">Reminders</text>
	<line fill="#000000" stroke="#FFFFFF" stroke-miterlimit="10" x1="8" y1="-14.5" x2="18" y2="-14.5"/>
	<line fill="#000000" stroke="#FFFFFF" stroke-miterlimit="10" x1="-179" y1="16.5" x2="-162" y2="16.5"/>
	<g>
		<g>
			<g>
				<rect x="-170.802" y="31.318" fill="#000000" width="8.721" height="8.642"/>
				<path fill="#000000" d="M-164.455,42.312h4.747v-4.703h-4.747V42.312z M-159.266,42.749h-5.63V37.17h5.63V42.749      L-159.266,42.749z M-166.221,44.062h8.279v-8.203h-8.279V44.062L-166.221,44.062z M-157.5,44.5h-9.163v-9.079h9.163V44.5      L-157.5,44.5z"/>
				<polygon fill="#000000" points="-166.149,44.133 -166.292,43.991 -158.013,35.787 -157.871,35.929     "/>
			</g>
		</g>
	</g>
	<rect x="-179" y="58" fill="none" width="35" height="32.5"/>
	<text transform="matrix(1 0 0 1 -179 60.1572)"><tspan x="0" y="0" fill="#000000" font-family="'Helvetica-Bold'" font-size="3">Strokes</tspan><tspan x="0" y="5" fill="#000000" font-family="'Helvetica'" font-size="2.4">Try to keep strokes at 4px</tspan><tspan x="0" y="10" fill="#000000" font-family="'Helvetica'" font-size="2.4">Minimum stroke weight is 2px</tspan><tspan x="0" y="14.5" fill="#000000" font-family="'Helvetica'" font-size="2.4">For thicker strokes use even </tspan><tspan x="0" y="17.5" fill="#000000" font-family="'Helvetica'" font-size="2.4">numbers: 6px, 8px etc.</tspan><tspan x="0" y="22" fill="#000000" font-family="'Helvetica-Bold'" font-size="2.4">Remember to expand strokes </tspan><tspan x="0" y="25" fill="#000000" font-family="'Helvetica-Bold'" font-size="2.4">before saving as an SVG </tspan></text>
	<rect x="-136.5" y="58" fill="none" width="35" height="32.5"/>
	<text transform="matrix(1 0 0 1 -136.5 60.1572)"><tspan x="0" y="0" fill="#000000" font-family="'Helvetica-Bold'" font-size="3">Size</tspan><tspan x="0" y="5" fill="#000000" font-family="'Helvetica'" font-size="2.4">Cannot be wider or taller than </tspan><tspan x="0" y="8.5" fill="#000000" font-family="'Helvetica'" font-size="2.4">100px (artboar size)</tspan><tspan x="0" y="13.5" fill="#000000" font-family="'Helvetica'" font-size="2.4">Scale your icon to fill as much of </tspan><tspan x="0" y="16.5" fill="#000000" font-family="'Helvetica'" font-size="2.4">the Safe Area as possible (within </tspan><tspan x="0" y="19.5" fill="#000000" font-family="'Helvetica'" font-size="2.4">the guides)</tspan></text>
	<rect x="-94" y="58" fill="none" width="35" height="32.5"/>
	<text transform="matrix(1 0 0 1 -94 60.1572)"><tspan x="0" y="0" fill="#000000" font-family="'Helvetica-Bold'" font-size="3">Ungroup</tspan><tspan x="0" y="5" fill="#000000" font-family="'Helvetica'" font-size="2.4">If your design has more than one </tspan><tspan x="0" y="8" fill="#000000" font-family="'Helvetica'" font-size="2.4">shape, make sure to ungroup.</tspan></text>
	<rect x="-50" y="58" fill="none" width="35" height="32.5"/>
	<text transform="matrix(1 0 0 1 -50 60.1572)"><tspan x="0" y="0" fill="#000000" font-family="'Helvetica-Bold'" font-size="3">Save as</tspan><tspan x="0" y="5" fill="#000000" font-family="'Helvetica'" font-size="2.4">Save as .SVG and make sure </tspan><tspan x="0" y="8" fill="#000000" font-family="'Helvetica'" font-size="2.4">&#8220;Use Artboards&#8221; is checked.</tspan></text>
	<text transform="matrix(1.0074 0 0 1 -125.542 30.5933)" fill="#000000" font-family="'Helvetica'" font-size="2.5731">100px</text>
	<text transform="matrix(1.0074 0 0 1 -41 39)" fill="#000000" font-family="'Helvetica-Bold'" font-size="5.1462">.SVG</text>
	<rect x="-126.514" y="34.815" fill="#000000" width="10.261" height="10.185"/>
	<rect x="-126.477" y="31.766" fill="#000000" width="0.522" height="2.337"/>
	<rect x="-116.812" y="31.766" fill="#000000" width="0.523" height="2.337"/>
	<rect x="-127" y="32.337" fill="#000000" width="11.233" height="0.572"/>
	<g>
		<rect x="-83.805" y="33.844" fill="#000000" width="10.305" height="10.156"/>
		<rect x="-76.809" y="28.707" fill="#000000" width="3.308" height="3.261"/>
	</g>
	<rect x="-178.5" y="22.5" fill="#000000" stroke="#FFFFFF" stroke-miterlimit="10" width="30" height="30"/>
	<rect x="-136.5" y="22.5" fill="#000000" stroke="#FFFFFF" stroke-miterlimit="10" width="30" height="30"/>
	<rect x="-93.5" y="22.5" fill="#000000" stroke="#FFFFFF" stroke-miterlimit="10" width="30" height="30"/>
	<rect x="-49.5" y="22.5" fill="#000000" stroke="#FFFFFF" stroke-miterlimit="10" width="30" height="30"/>
</g>
<g id="Your_Icon">
	<path fill-rule="evenodd" clip-rule="evenodd" fill="#000000" d="M183.098-163.007c-3.484,0-6.271-2.787-6.271-6.271   s2.787-6.271,6.271-6.271s6.271,2.788,6.271,6.271S186.582-163.007,183.098-163.007z M152.23-156.248   c-1.115,0-2.23-1.115-2.23-2.229v-0.836c0-1.115,1.115-2.229,2.23-2.229h23.826c0.162-0.045,0.326-0.07,0.492-0.07h13.377   c0.779,0,1.559,0.544,1.958,1.253l6.78,7.53l9.05-5.655c0.945-0.591,2.481-0.236,3.072,0.709l0.443,0.708   c0.591,0.946,0.235,2.481-0.709,3.073l-10.876,6.795l-0.02,0.018c-0.171,0.154-0.375,0.273-0.596,0.357   c-0.951,0.472-2.365,0.107-2.928-0.791l-0.3-0.48l-3.646-4.049v9.204h34.84c1.177,0,2.229,0.308,3.081,0.845l2.214-2.656   c0,0,1.812-3.345,6.271-2.508c4.32,0.836,4.32,4.32,4.32,4.32l-0.14,17.699l-6.968,0.14l0.278-16.863c0,0-1.394-2.647-3.065-0.139   c-0.438,0.656-0.847,1.284-1.212,1.853c0.332,0.65,0.515,1.391,0.515,2.188v14.1l4.678,7.198c0.29,0.219,0.454,0.606,0.484,1.056   c0.256,0.36,0.413,0.778,0.413,1.197v16.723c0,1.115-1.115,2.229-2.23,2.229h-2.229c-1.115,0-2.229-1.114-2.229-2.229v-14.472   c-1.189-0.903-3.302-2.493-7.055-5.285c-0.173-0.104-0.353-0.205-0.537-0.305l-0.979,5.117c0.067,0.27-0.125,0.639-0.469,0.975   v0.002l-7.068,15.156c-0.471,1.011-1.952,1.55-2.963,1.078l-2.021-0.942c-1.011-0.471-1.55-1.953-1.078-2.963l6.681-14.327   c-0.284-1.363-0.742-3.119-1.46-4.933c-0.038-0.094-0.079-0.188-0.123-0.284h-26.408v21.74c0,1.115-1.115,2.229-2.23,2.229h-2.229   c-1.115,0-2.229-1.114-2.229-2.229v-21.74h-4.459c-0.039,0-0.077-0.001-0.115-0.003l-10.188,2.539l3.698,7.584   c0.489,1.003-0.024,2.493-1.026,2.981l-2.004,0.979c-1.002,0.488-2.493-0.025-2.982-1.027l-5.863-12.024   c-0.49-1.002,0.023-2.493,1.025-2.981l2.004-0.978c0.113-0.054,0.23-0.097,0.354-0.127c0.172-0.109,0.357-0.193,0.551-0.241   l12.316-3.071v-15.509v-15.399H152.23z"/>
	<path fill-rule="evenodd" clip-rule="evenodd" fill="#000000" d="M37.671,28.786c-3.34,0-6.013-2.672-6.013-6.013   c0-3.341,2.673-6.013,6.013-6.013c3.341,0,6.013,2.672,6.013,6.013C43.684,26.114,41.012,28.786,37.671,28.786z M46.357,48.03   h33.409c1.129,0,2.139,0.294,2.955,0.81l2.122-2.548c0,0,1.738-3.207,6.015-2.405C95,44.689,95,48.03,95,48.03l-0.134,16.971   l-6.682,0.135l0.268-16.17c0,0-1.336-2.54-2.939-0.134c-0.42,0.629-0.813,1.232-1.163,1.777c0.318,0.624,0.493,1.335,0.493,2.099   v13.53l4.259,6.595c0.684,0.474,1.088,1.627,1.088,2.459v16.036c0,1.069-1.069,2.138-2.139,2.138h-2.139   c-1.069,0-2.137-1.068-2.137-2.138V77.304c-1.432-1.214-3.864-3.143-6.824-4.961c-0.146-0.089-0.298-0.174-0.456-0.256l-0.938,4.91   c0.024,0.098,0.012,0.211-0.03,0.331c-0.019,0.212-0.069,0.416-0.158,0.604l-6.775,14.534c-0.452,0.969-1.873,1.485-2.843,1.034   l-1.937-0.904c-0.97-0.451-1.487-1.872-1.034-2.842l6.223-13.344c-0.265-1.354-0.721-3.204-1.479-5.123   c-0.189-0.465-0.452-0.946-0.739-1.427l-22.565-1.637v23.638c0,1.069-1.069,2.139-2.138,2.139h-2.138   c-1.07,0-2.138-1.069-2.138-2.139v-24.09c-0.468-0.051-0.942-0.151-1.417-0.294l-13.224,2.001l2.743,7.536   c0.366,1.004-0.273,2.375-1.278,2.74l-2.01,0.732c-1.004,0.364-2.375-0.274-2.74-1.279l-4.388-12.056   c-0.365-1.004,0.273-2.375,1.278-2.739l0.479-0.174c0.236-0.215,0.512-0.373,0.808-0.447l11.267-2.81   c-0.047-0.224-0.072-0.444-0.072-0.658v-10.29V35.201H8.139C7.069,35.201,6,34.131,6,33.063v-0.802   c0-1.069,0.936-2.138,2.139-2.138h23.252h0.668h12.16c0.748,0,1.495,0.522,1.877,1.202l6.502,7.221l8.679-5.423   c0.906-0.566,2.379-0.226,2.946,0.68l0.424,0.68c0.567,0.907,0.228,2.38-0.68,2.946l-10.429,6.516l-0.019,0.018   c-0.164,0.148-0.359,0.262-0.572,0.343c-0.911,0.453-2.269,0.102-2.806-0.759l-0.288-0.461l-3.496-3.882V48.03z"/>
	<path fill-rule="evenodd" clip-rule="evenodd" fill="#000000" d="M10.009,33.063c0,0.044-0.003,0.088-0.011,0.133   c0.007,0.044,0.011,0.09,0.011,0.134c0,0-0.535,4.811,0,9.755c0.668,7.75,3.475,15.635,3.475,15.635   c0,0.802-0.936,2.004-1.604,2.004l-0.535-0.534c-0.668,0,0.535-0.668,0.535-1.47c0,0-2.806-6.147-4.009-15.635   c-0.401-2.94-0.535-9.354-0.535-9.354c0-0.17,0.079-0.354,0.209-0.535c-0.13-0.182-0.209-0.364-0.209-0.535   c0,0,0.134-6.414,0.535-9.354C9.074,13.82,11.88,7.672,11.88,7.672c0-0.801-1.203-1.47-0.535-1.47l0.535-0.534   c0.668,0,1.604,1.203,1.604,2.004c0,0-2.807,7.885-3.475,15.636C9.475,28.251,10.009,33.063,10.009,33.063z"/>
</g>
</svg>