<?xml version="1.0" encoding="utf-8"?>
<!-- Generator: Adobe Illustrator 14.0.0, SVG Export Plug-In . SVG Version: 6.00 Build 43363)  -->
<!DOCTYPE svg PUBLIC "-//W3C//DTD SVG 1.0//EN" "http://www.w3.org/TR/2001/REC-SVG-20010904/DTD/svg10.dtd">
<svg version="1.0" id="Layer_1" xmlns="http://www.w3.org/2000/svg" xmlns:xlink="http://www.w3.org/1999/xlink" x="0px" y="0px"
	 width="100px" height="27.214px" viewBox="0 0 100 27.214" enable-background="new 0 0 100 27.214" xml:space="preserve">
<path fill-rule="evenodd" clip-rule="evenodd" d="M91.304,27.061c2.65,0,4.815-2.169,4.815-4.831c0-0.308-0.035-0.624-0.096-0.921
	L100,21.312V0H56.8v19.519h-2.32V0L17.505,0.006v3.724H12.39c-2.093,0-3.39,0-4.252,2.894l-1.44,5.641H3.38
	c-1.633,0-1.633,0-1.633,1.582c0,2.52,0,5.048,0,7.569H0v1.755h6.254c0.318,2.379,1.83,4.008,4.228,4.008
	c2.37,0,3.983-1.668,4.515-4.008h2.508v-1.755h16.666c-0.039,0.224-0.055,0.719-0.055,0.962c0,2.646,2.147,4.801,4.79,4.801
	c2.634,0,4.782-2.155,4.782-4.801c0-0.303-0.039-0.68-0.094-0.962l18.054,0.004c-0.062,0.311-0.097,0.644-0.097,0.974
	c0,2.654,2.159,4.821,4.808,4.821c2.649,0,4.803-2.167,4.803-4.821c0-0.326-0.033-0.833-0.094-1.144l15.526,0.048
	c-0.059,0.303-0.094,0.617-0.094,0.933C86.499,24.892,88.662,27.061,91.304,27.061"/>
</svg>
