<svg xmlns="http://www.w3.org/2000/svg" xmlns:xlink="http://www.w3.org/1999/xlink" version="1.0" x="0px" y="0px" width="100px" height="100px" viewBox="0 0 100 100" enable-background="new 0 0 100 100" xml:space="preserve">
<g id="Captions">
</g>
<g id="Your_Icon">
	<g>
		<rect x="66.201" y="26.345" width="4.57" height="4.569"/>
		<path d="M14.142,23v11.419V77h71.999V34.419V23H14.142z M75.477,25.644l0.938-0.938l3.014,3.013l3.013-3.013l0.938,0.938    l-3.013,3.014l3.013,3.013l-0.938,0.938l-3.013-3.013l-3.014,3.013l-0.938-0.938l3.014-3.013L75.477,25.644z M64.874,25.018h7.224    v7.223h-7.224V25.018z M55.495,30.881h6.081v1.326h-6.081V30.881z M83.488,74.347H16.794V34.419h66.694V74.347z"/>
	</g>
</g>
</svg>