<svg xmlns="http://www.w3.org/2000/svg" xmlns:xlink="http://www.w3.org/1999/xlink" version="1.0" id="Ebene_1" x="0px" y="0px" width="100.0px" height="100px" viewBox="0 0 283.46 283.46" enable-background="new 0 0 283.46 283.46" xml:space="preserve">
<g>
	<path d="M233.722,230.196H50.937c-17.003,0-30.837-13.834-30.837-30.838v-96.852c0-17.003,13.834-30.836,30.837-30.836h182.785   c17.003,0,30.837,13.833,30.837,30.836v96.852C264.559,216.362,250.725,230.196,233.722,230.196z M50.937,87.753   c-8.136,0-14.754,6.618-14.754,14.753v96.852c0,8.136,6.618,14.755,14.754,14.755h182.785c8.136,0,14.754-6.619,14.754-14.755   v-96.852c0-8.135-6.618-14.753-14.754-14.753H50.937z"/>
</g>
<g>
	<path d="M142.329,205.613c-30.151,0-54.682-24.53-54.682-54.682c0-30.152,24.53-54.681,54.682-54.681   c30.152,0,54.682,24.529,54.682,54.681C197.011,181.083,172.481,205.613,142.329,205.613z M142.329,112.333   c-21.283,0-38.599,17.315-38.599,38.598s17.315,38.599,38.599,38.599s38.599-17.315,38.599-38.599S163.612,112.333,142.329,112.333   z"/>
</g>
<g>
	<path d="M142.329,145.362c3.072,0,5.571,2.498,5.571,5.569s-2.499,5.57-5.571,5.57s-5.571-2.499-5.571-5.57   S139.257,145.362,142.329,145.362 M142.329,116.413c-19.065,0-34.52,15.453-34.52,34.519c0,19.063,15.455,34.52,34.52,34.52   s34.52-15.456,34.52-34.52C176.849,131.866,161.395,116.413,142.329,116.413L142.329,116.413z"/>
</g>
<g>
	<path d="M226.492,119.918h-26.793c-7.243,0-13.138-5.894-13.138-13.139v-1.063c0-7.245,5.895-13.139,13.138-13.139h26.793   c7.243,0,13.138,5.894,13.138,13.139v1.063C239.63,114.025,233.735,119.918,226.492,119.918z M199.699,100.619   c-2.81,0-5.097,2.287-5.097,5.097v1.063c0,2.811,2.287,5.097,5.097,5.097h26.793c2.81,0,5.097-2.287,5.097-5.097v-1.063   c0-2.811-2.287-5.097-5.097-5.097H199.699z"/>
</g>
<g>
	<path d="M102.926,68.454H53.874c-4.441,0-8.042-3.601-8.042-8.042s3.601-8.042,8.042-8.042h49.053c4.441,0,8.042,3.601,8.042,8.042   S107.367,68.454,102.926,68.454z"/>
</g>
</svg>