<svg xmlns="http://www.w3.org/2000/svg" xmlns:xlink="http://www.w3.org/1999/xlink" version="1.1" x="0px" y="0px" width="100px" height="100px" viewBox="0 0 100 100" enable-background="new 0 0 100 100" xml:space="preserve">
<g id="Captions">
</g>
<g id="Your_Icon">
	<path d="M50,14c-19.882,0-36,16.118-36,36c0,19.882,16.118,36,36,36c19.883,0,36-16.118,36-36C86,30.117,69.883,14,50,14z    M46.673,27.975c0-0.101,0-0.187,0-0.257c0.136-1.165,0.666-2.227,1.592-3.186c0.925-0.959,2.107-1.438,3.548-1.438   c0.067,0,0.149,0,0.253,0s0.189,0,0.26,0c1.166,0.139,2.228,0.669,3.186,1.594c0.959,0.925,1.439,2.104,1.439,3.542   c0,0.07,0,0.156,0,0.257c0,0.103,0,0.189,0,0.256c-0.141,1.166-0.67,2.227-1.595,3.186c-0.926,0.959-2.104,1.438-3.543,1.438   c-0.069,0-0.156,0-0.259,0c-0.104,0-0.189,0-0.258,0c-1.165-0.137-2.227-0.667-3.185-1.592c-0.959-0.925-1.438-2.107-1.438-3.546   C46.673,28.164,46.673,28.078,46.673,27.975z M52.053,76.136c-1.884,0.511-3.373,0.771-4.468,0.771c-2.124,0-3.582-0.38-4.368-1.13   c-0.789-0.752-1.182-1.918-1.182-3.494c0-0.55,0.051-1.169,0.154-1.854c0.103-0.687,0.223-1.44,0.359-2.267l4.524-21.323   c0.137-0.892,0.256-1.544,0.359-1.957c0.101-0.413,0.154-0.755,0.154-1.031c0-0.753-0.19-1.285-0.566-1.595   c-0.376-0.309-0.77-0.499-1.182-0.569c-0.136-0.066-0.273-0.103-0.41-0.103c-0.14,0-0.276,0-0.413,0h-3.39l0.513-2.112   c3.22-0.137,5.856-0.48,7.914-1.026c2.054-0.546,3.938-1.404,5.649-2.57h0.926l-6.885,32.306c0,0.137-0.02,0.257-0.053,0.357   c-0.034,0.104-0.05,0.223-0.05,0.359c0,0.069-0.02,0.122-0.053,0.156c-0.033,0.033-0.05,0.084-0.05,0.15   c0,0.139-0.017,0.293-0.05,0.463c-0.034,0.172-0.05,0.359-0.05,0.562c0,0.14,0,0.277,0,0.413s0.033,0.306,0.1,0.51   c0.067,0.276,0.273,0.55,0.616,0.822c0.343,0.273,0.859,0.409,1.544,0.409c0.613,0,1.299-0.136,2.052-0.409   c0.752-0.272,1.781-0.856,3.086-1.748l1.541,1.646C56.045,74.202,53.938,75.624,52.053,76.136z"/>
</g>
</svg>