<?xml version="1.0" encoding="utf-8"?>
<!-- Generator: Adobe Illustrator 14.0.0, SVG Export Plug-In . SVG Version: 6.00 Build 43363)  -->
<!DOCTYPE svg PUBLIC "-//W3C//DTD SVG 1.0//EN" "http://www.w3.org/TR/2001/REC-SVG-20010904/DTD/svg10.dtd">
<svg version="1.0" id="Layer_1" xmlns="http://www.w3.org/2000/svg" xmlns:xlink="http://www.w3.org/1999/xlink" x="0px" y="0px"
	 width="100px" height="84.763px" viewBox="0 0 100 84.763" enable-background="new 0 0 100 84.763" xml:space="preserve">
<path d="M21.144,8.004c3.345-1.855,6.485-2.371,9.334-1.536c2.953,0.864,5.144,3.009,6.457,4.638
	c-3.362,2.517-5.435,6.527-5.515,10.884c-0.007,0.284,0.042,0.538,0.09,0.791c0.201,1.109,0.881,1.962,2.045,2.461
	c0.066,0.027,0.264,0.09,0.687,0.09c1.154,0,2.562-0.464,2.575-0.468l18.648-5.282c1.432-0.416,2.177-1.189,2.264-2.364l0.027-0.187
	c0-0.01,0-0.024,0-0.035c0.149-0.849-0.752-2.288-1.531-2.718c-1.196-0.669-2.295-1.307-3.321-1.906
	c-3.799-2.211-6.544-3.812-9.32-3.812c-0.305,0-0.613,0.034-0.922,0.073c-1.611-2.316-5.081-6.385-10.413-7.969
	c-4.485-1.334-9.209-0.651-14.048,2.035C16.315,3.744,6.71,8.552,0.045,2.545v7.272C8.98,14.181,18.953,9.221,21.144,8.004z"/>
<path d="M77.119,22.174c-2.669-0.617-9.629-1.317-9.629-1.317l-6.052-2.398c-0.351,1.546-1.449,3.84-4.891,4.842l-18.651,5.283
	c-0.618,0.194-2.149,0.621-3.654,0.621c-0.804,0-1.494-0.118-2.107-0.36c-1.709-0.732-2.96-1.879-3.715-3.317
	c-1.768,2.166-2.839,4.918-2.842,7.931l0.003,5.002l-5.019-0.003C15.823,31.904,8.458,27.38,0,26.486v58.107
	c8.485-0.9,15.875-5.452,20.606-12.037h22.315c5.841,7.428,14.929,12.204,25.12,12.207C85.691,84.76,99.993,70.461,100,52.812
	C100,38.31,89.109,24.954,77.119,22.174z M64.229,27.096c0-0.943,0.787-1.623,1.626-1.623c0.943,0,1.622,0.68,1.622,1.623v7.009
	c0,0.838-0.679,1.625-1.622,1.625c-0.839,0-1.626-0.787-1.626-1.625V27.096z M68.888,56.936c0,5.321-4.312,9.65-9.616,9.65
	c-5.31,0-9.632-4.329-9.632-9.65v-0.728h3.237v0.728c0.007,3.522,2.873,6.399,6.392,6.41c3.519-0.011,6.382-2.888,6.385-6.41v-0.728
	h3.234V56.936z"/>
</svg>
