<svg xmlns="http://www.w3.org/2000/svg" xmlns:xlink="http://www.w3.org/1999/xlink" version="1.0" x="0px" y="0px" width="100px" height="100px" viewBox="0 0 100 100" enable-background="new 0 0 100 100" xml:space="preserve">
<g id="Captions">
</g>
<g id="Your_Icon">
	<polygon points="19,19 19,22 21,22 21,21 64,21 64,79 62,79 62,81 66,81 66,19  "/>
	<polygon points="24,15 24,18 26,18 26,17 69,17 69,75 67,75 67,77 71,77 71,15  "/>
	<g>
		<g>
			<path d="M45.776,22.711H14V86h47.428V38.362L45.776,22.711z M48.143,28.423l7.572,7.573h-7.572V28.423z M59.062,83.634H16.366     V25.077h29.41v13.286h13.285V83.634z"/>
		</g>
		<g>
			<rect x="20.797" y="30.756" width="16.564" height="2.367"/>
		</g>
		<g>
			<rect x="20.797" y="35.725" width="16.564" height="2.367"/>
		</g>
		<g>
			<rect x="20.797" y="48.031" width="33.131" height="2.367"/>
		</g>
		<g>
			<rect x="20.797" y="43.298" width="33.131" height="2.367"/>
		</g>
		<g>
			<rect x="20.797" y="52.764" width="33.131" height="2.366"/>
		</g>
		<g>
			<rect x="20.797" y="57.496" width="33.131" height="2.367"/>
		</g>
		<g>
			<rect x="20.797" y="62.23" width="33.131" height="2.365"/>
		</g>
		<g>
			<rect x="20.797" y="75.482" width="18.931" height="2.367"/>
		</g>
		<g>
			<rect x="20.797" y="66.489" width="9.465" height="2.367"/>
		</g>
	</g>
</g>
</svg>