<svg xmlns="http://www.w3.org/2000/svg" xmlns:xlink="http://www.w3.org/1999/xlink" version="1.0" x="0px" y="0px" width="100px" height="100px" viewBox="0 0 100 100" enable-background="new 0 0 100 100" xml:space="preserve">
<g id="Captions">
</g>
<g id="Your_Icon">
	<g>
		<g>
			<path d="M58.062,18.355H26.286v32.011h47.428V34.007L58.062,18.355z M60.429,24.068l7.572,7.572h-7.572V24.068z M71.348,48     H28.652V20.721h29.41v13.286h13.285V48z"/>
		</g>
		<g>
			<rect x="33.083" y="26.4" width="16.564" height="2.367"/>
		</g>
		<g>
			<rect x="33.083" y="31.369" width="16.564" height="2.367"/>
		</g>
		<g>
			<rect x="33.083" y="43.676" width="33.131" height="2.366"/>
		</g>
		<g>
			<rect x="33.083" y="38.942" width="33.131" height="2.366"/>
		</g>
	</g>
	<g>
		<g>
			<path d="M26.286,54l0.69,11.924l-2.69,6.284l2,9.437h7.08l-2-9.602l2.664-5.997L33.366,54H26.286z M31,79.278h-2.348l-2-7.235     l2.77-6.03l-0.77-9.647L31,57l0.797,9.002L29,71.959L31,79.278z"/>
		</g>
	</g>
	<g>
		<g>
			<path d="M66.256,54l0.69,11.924l-2.69,6.284l2,9.437h7.08l-2-9.602L74,66.046L73.336,54H66.256z M70.97,79.278h-2.348l-2-7.235     l2.77-6.03l-0.77-9.647L70.97,57l0.797,9.002l-2.797,5.957L70.97,79.278z"/>
		</g>
	</g>
	<g>
		<g>
			<path d="M56.264,54l0.69,11.924l-2.69,6.284l2,9.437h7.08l-2-9.602l2.664-5.997L63.344,54H56.264z M60.978,79.278H58.63l-2-7.235     l2.77-6.03l-0.77-9.647L60.978,57l0.797,9.002l-2.797,5.957L60.978,79.278z"/>
		</g>
	</g>
	<g>
		<g>
			<path d="M46.271,54l0.689,11.924l-2.689,6.284l2,9.437h7.08l-2-9.602l2.664-5.997L53.352,54H46.271z M50.984,79.278h-2.348     l-2-7.235l2.77-6.03l-0.77-9.647L50.984,57l0.797,9.002l-2.797,5.957L50.984,79.278z"/>
		</g>
	</g>
	<g>
		<g>
			<path d="M36.278,54l0.69,11.924l-2.69,6.284l2,9.437h7.08l-2-9.602l2.664-5.997L43.358,54H36.278z M40.992,79.278h-2.348     l-2-7.235l2.77-6.03l-0.77-9.647L40.992,57l0.797,9.002l-2.797,5.957L40.992,79.278z"/>
		</g>
	</g>
	<path d="M79,56.086C79,58.598,77.55,61,75.761,61H24.239C22.45,61,21,58.598,21,56.086v-3.537C21,50.037,22.45,48,24.239,48h51.521   C77.55,48,79,50.037,79,52.549V56.086z"/>
</g>
</svg>