<svg xmlns="http://www.w3.org/2000/svg" xmlns:xlink="http://www.w3.org/1999/xlink" version="1.0" x="0px" y="0px" width="100px" height="100px" viewBox="0 0 100 100" enable-background="new 0 0 100 100" xml:space="preserve">
<g id="Captions">
</g>
<g id="Your_Icon">
	<g>
		<g>
			<path d="M58.062,18.355H26.286v32.011h47.428V34.007L58.062,18.355z M60.429,24.068l7.572,7.572h-7.572V24.068z M71.348,48     H28.652V20.721h29.41v13.286h13.285V48z"/>
		</g>
		<g>
			<rect x="33.083" y="26.4" width="16.564" height="2.367"/>
		</g>
		<g>
			<rect x="33.083" y="31.369" width="16.564" height="2.367"/>
		</g>
		<g>
			<rect x="33.083" y="43.676" width="33.131" height="2.366"/>
		</g>
		<g>
			<rect x="33.083" y="38.942" width="33.131" height="2.366"/>
		</g>
	</g>
	<g>
		<g>
			<path d="M26.286,54v27.645h7.08V54H26.286z M31,79.278h-2.348V56.365L31,57V79.278z"/>
		</g>
	</g>
	<g>
		<g>
			<path d="M36.444,54v27.645h7.08V54H36.444z M41.158,79.278h-2.348V56.365L41.158,57V79.278z"/>
		</g>
	</g>
	<g>
		<g>
			<path d="M46.604,54v27.645h7.08V54H46.604z M51.316,79.278h-2.348V56.365L51.316,57V79.278z"/>
		</g>
	</g>
	<g>
		<g>
			<path d="M56.762,54v27.645h7.08V54H56.762z M61.476,79.278h-2.348V56.365L61.476,57V79.278z"/>
		</g>
	</g>
	<g>
		<g>
			<path d="M66.92,54v27.645H74V54H66.92z M71.634,79.278h-2.348V56.365L71.634,57V79.278z"/>
		</g>
	</g>
	<path d="M79,56.086C79,58.598,77.55,61,75.761,61H24.239C22.45,61,21,58.598,21,56.086v-3.537C21,50.037,22.45,48,24.239,48h51.521   C77.55,48,79,50.037,79,52.549V56.086z"/>
</g>
</svg>