<svg xmlns="http://www.w3.org/2000/svg" xmlns:xlink="http://www.w3.org/1999/xlink" version="1.0" x="0px" y="0px" width="100px" height="100px" viewBox="0 0 100 100" enable-background="new 0 0 100 100" xml:space="preserve">
<g id="Captions">
</g>
<g id="Your_Icon">
	<g>
		<g>
			<path d="M58.062,18.355H26.286v63.289h47.428V34.007L58.062,18.355z M60.429,24.068l7.572,7.573h-7.572V24.068z M71.348,79.278     H28.652V20.721h29.41v13.286h13.285V79.278z"/>
		</g>
		<g>
			<rect x="33.083" y="26.4" width="16.564" height="2.367"/>
		</g>
		<g>
			<rect x="33.083" y="31.37" width="16.564" height="2.367"/>
		</g>
		<g>
			<rect x="33.083" y="43.675" width="33.131" height="2.367"/>
		</g>
		<g>
			<rect x="33.083" y="38.942" width="33.131" height="2.367"/>
		</g>
		<g>
			<rect x="33.083" y="48.408" width="33.131" height="2.366"/>
		</g>
		<g>
			<rect x="33.083" y="53.141" width="33.131" height="2.367"/>
		</g>
		<g>
			<rect x="33.083" y="57.875" width="33.131" height="2.365"/>
		</g>
		<g>
			<rect x="33.083" y="71.127" width="18.931" height="2.367"/>
		</g>
		<g>
			<rect x="33.083" y="62.134" width="9.465" height="2.367"/>
		</g>
	</g>
</g>
</svg>