<svg xmlns="http://www.w3.org/2000/svg" xmlns:xlink="http://www.w3.org/1999/xlink" version="1.1" id="Livello_1" x="0px" y="0px" width="100px" height="100px" viewBox="0 0 100 100" enable-background="new 0 0 100 100" xml:space="preserve">
<g>
	<path fill="#000000" d="M89.812,76.811l-0.349-0.039c-23.396-2.625-28.821-10.424-30.605-12.988   c-0.549-0.791-1.093-1.795-1.667-2.859c-1.792-3.316-3.824-7.076-7.188-7.076c-3.37,0-5.402,3.76-7.193,7.076   c-0.575,1.064-1.118,2.068-1.667,2.859c-1.782,2.564-7.209,10.363-30.606,12.988l-0.348,0.039l-0.238-0.26   c-0.864-0.936-0.614-2.496-0.374-4.002c0.171-1.072,0.366-2.285,0.029-2.785c-0.336-0.492-1.529-0.76-2.583-0.996   c-1.494-0.336-3.042-0.684-3.597-1.838c-0.546-1.145,0.147-2.553,0.817-3.918c0.48-0.98,1.023-2.088,0.847-2.67   c-0.173-0.564-1.23-1.166-2.162-1.697c-1.336-0.766-2.718-1.557-2.907-2.834c-0.184-1.238,0.888-2.379,1.924-3.484   c0.749-0.801,1.603-1.705,1.603-2.324c0-0.623-0.854-1.529-1.603-2.33c-1.037-1.104-2.108-2.243-1.924-3.483   c0.189-1.275,1.571-2.066,2.907-2.828c0.931-0.535,1.988-1.139,2.159-1.699c0.179-0.583-0.364-1.692-0.844-2.673   c-0.669-1.364-1.363-2.776-0.817-3.915c0.555-1.155,2.101-1.504,3.597-1.84c1.053-0.238,2.246-0.505,2.583-0.999   c0.337-0.496,0.142-1.712-0.029-2.783c-0.24-1.507-0.49-3.065,0.374-4.003l0.238-0.259l0.348,0.041   c23.397,2.626,28.825,10.424,30.606,12.986c0.549,0.791,1.093,1.797,1.667,2.859c1.792,3.317,3.823,7.078,7.193,7.078   c3.364,0,5.396-3.761,7.188-7.078c0.574-1.062,1.118-2.068,1.667-2.859c1.784-2.562,7.209-10.36,30.605-12.986l0.349-0.041   l0.238,0.259c0.862,0.937,0.614,2.494,0.374,4.002c-0.171,1.072-0.366,2.288-0.027,2.785c0.333,0.493,1.527,0.76,2.583,0.998   c1.496,0.336,3.039,0.685,3.595,1.837c0.545,1.142-0.148,2.554-0.817,3.918c-0.479,0.98-1.025,2.09-0.847,2.673   c0.174,0.561,1.227,1.164,2.16,1.699c1.336,0.762,2.719,1.553,2.907,2.828c0.186,1.24-0.886,2.38-1.921,3.483   c-0.752,0.801-1.604,1.707-1.604,2.33c0,0.619,0.853,1.523,1.604,2.324c1.035,1.104,2.106,2.244,1.921,3.484   c-0.188,1.275-1.571,2.068-2.907,2.834c-0.934,0.531-1.986,1.133-2.16,1.697c-0.177,0.582,0.368,1.689,0.847,2.67   c0.669,1.365,1.362,2.773,0.817,3.918c-0.556,1.154-2.099,1.502-3.595,1.838c-1.056,0.236-2.25,0.504-2.583,0.996   c-0.339,0.5-0.144,1.715,0.027,2.785c0.24,1.506,0.488,3.066-0.374,4.002L89.812,76.811z M10.822,24.661   c-0.191,0.575-0.023,1.625,0.128,2.572c0.223,1.389,0.453,2.828-0.195,3.783c-0.642,0.948-2.059,1.265-3.429,1.575   c-1.116,0.25-2.38,0.534-2.642,1.082c-0.256,0.53,0.309,1.685,0.809,2.704c0.62,1.271,1.264,2.581,0.923,3.689   c-0.333,1.088-1.583,1.805-2.795,2.5c-1,0.572-2.133,1.22-2.223,1.827c-0.085,0.573,0.827,1.547,1.559,2.326   c0.975,1.037,1.982,2.111,1.982,3.281s-1.008,2.242-1.982,3.277c-0.732,0.783-1.645,1.754-1.559,2.326   c0.089,0.609,1.223,1.258,2.223,1.826c1.212,0.697,2.463,1.414,2.799,2.502c0.338,1.107-0.303,2.42-0.927,3.689   c-0.5,1.02-1.065,2.172-0.809,2.707c0.262,0.545,1.526,0.83,2.642,1.078c1.37,0.311,2.788,0.627,3.429,1.574   c0.647,0.955,0.417,2.395,0.195,3.787c-0.151,0.943-0.319,1.998-0.128,2.566c22.395-2.598,27.494-9.928,29.177-12.348   c0.506-0.725,1.031-1.699,1.586-2.725c1.878-3.479,4.217-7.809,8.418-7.809c4.194,0,6.532,4.33,8.413,7.809   c0.553,1.025,1.082,2,1.586,2.725c1.682,2.42,6.779,9.75,29.177,12.348c0.189-0.568,0.023-1.623-0.128-2.566   c-0.225-1.393-0.453-2.832,0.195-3.787c0.644-0.947,2.061-1.264,3.429-1.574c1.114-0.248,2.382-0.533,2.645-1.078   c0.254-0.535-0.312-1.688-0.812-2.707c-0.62-1.27-1.266-2.582-0.925-3.689c0.332-1.088,1.586-1.805,2.799-2.502   c0.998-0.568,2.13-1.217,2.223-1.826c0.083-0.572-0.829-1.545-1.562-2.326c-0.974-1.035-1.98-2.107-1.98-3.277   s1.007-2.244,1.98-3.281c0.732-0.779,1.645-1.753,1.562-2.327c-0.093-0.606-1.225-1.254-2.223-1.826   c-1.213-0.695-2.467-1.412-2.799-2.5c-0.341-1.108,0.305-2.419,0.925-3.689c0.5-1.02,1.065-2.174,0.812-2.704   c-0.263-0.548-1.53-0.832-2.645-1.082c-1.368-0.311-2.785-0.627-3.429-1.575c-0.648-0.955-0.42-2.395-0.195-3.783   c0.151-0.947,0.317-1.997,0.128-2.572c-22.397,2.604-27.495,9.932-29.177,12.354c-0.504,0.723-1.033,1.694-1.586,2.725   c-1.881,3.479-4.219,7.806-8.413,7.806c-4.201,0-6.54-4.327-8.418-7.806c-0.555-1.03-1.081-2.002-1.586-2.725   C38.316,34.593,33.217,27.265,10.822,24.661z"/>
</g>
<path fill="#000000" d="M68.202,39.544c0,0-0.158,0.013-0.461,0.033c-0.149,0.012-0.333,0.05-0.547,0.084  c-0.213,0.045-0.457,0.1-0.727,0.179c-1.083,0.303-2.525,1.023-4.142,2.066c-0.812,0.517-1.667,1.111-2.567,1.755  c-0.897,0.64-1.836,1.333-2.837,2.009c-0.998,0.684-2.051,1.365-3.19,1.953c-1.139,0.566-2.37,1.084-3.739,1.104l-0.482-0.029  l-0.5-0.07c-0.325-0.066-0.644-0.143-0.955-0.248c-0.622-0.205-1.216-0.467-1.787-0.756c-1.134-0.588-2.189-1.27-3.189-1.953  c-1-0.676-1.937-1.368-2.837-2.009c-0.897-0.644-1.756-1.237-2.567-1.755c-1.614-1.04-3.059-1.763-4.14-2.065  c-0.27-0.08-0.516-0.135-0.727-0.18c-0.216-0.034-0.399-0.072-0.547-0.084c-0.301-0.021-0.463-0.033-0.463-0.033  s0.162,0.004,0.463,0.013c0.151,0.005,0.336,0.035,0.553,0.057c0.215,0.04,0.467,0.081,0.738,0.155  c0.551,0.133,1.197,0.374,1.912,0.695c0.721,0.328,1.502,0.751,2.325,1.258c1.653,1.01,3.484,2.325,5.479,3.675  c0.996,0.672,2.045,1.338,3.164,1.906c1.122,0.551,2.313,1.033,3.579,1.041c0.601,0.002,1.233-0.127,1.825-0.318  c0.597-0.189,1.178-0.439,1.736-0.723c1.116-0.568,2.168-1.234,3.164-1.906c1.992-1.348,3.825-2.665,5.475-3.675  c0.827-0.507,1.61-0.928,2.327-1.255c0.718-0.324,1.361-0.565,1.913-0.698c0.271-0.074,0.52-0.115,0.735-0.155  c0.219-0.021,0.406-0.052,0.554-0.057C68.044,39.548,68.202,39.544,68.202,39.544z"/>
<path fill="#000000" d="M31.798,60.455c0,0,0.162-0.01,0.463-0.031c0.147-0.012,0.331-0.051,0.547-0.082  c0.211-0.047,0.457-0.1,0.727-0.182c1.081-0.301,2.526-1.023,4.14-2.064c0.811-0.52,1.669-1.113,2.567-1.754  c0.9-0.645,1.837-1.336,2.841-2.014c0.996-0.68,2.051-1.361,3.189-1.949c1.136-0.568,2.38-1.084,3.73-1.105l0.49,0.027l0.502,0.072  c0.325,0.068,0.645,0.143,0.955,0.248c0.62,0.205,1.215,0.465,1.782,0.758c1.14,0.588,2.192,1.27,3.19,1.949  c1.001,0.678,1.939,1.369,2.841,2.014c0.896,0.639,1.754,1.234,2.563,1.754c1.618,1.041,3.059,1.764,4.142,2.064  c0.27,0.082,0.514,0.135,0.727,0.182c0.214,0.031,0.399,0.07,0.547,0.082c0.303,0.021,0.461,0.031,0.461,0.031  s-0.158-0.002-0.463-0.01c-0.149-0.006-0.335-0.035-0.554-0.059c-0.216-0.039-0.464-0.082-0.735-0.152  c-0.552-0.135-1.195-0.375-1.915-0.701c-0.717-0.326-1.498-0.746-2.325-1.254c-1.649-1.008-3.482-2.326-5.475-3.674  c-0.996-0.67-2.048-1.34-3.164-1.908c-1.116-0.551-2.324-1.033-3.569-1.039c-1.246,0.006-2.457,0.488-3.571,1.039  c-1.118,0.568-2.167,1.234-3.164,1.906c-1.994,1.348-3.825,2.666-5.479,3.676c-0.823,0.508-1.604,0.928-2.325,1.254  c-0.714,0.326-1.36,0.566-1.912,0.701c-0.271,0.07-0.52,0.113-0.738,0.152c-0.216,0.023-0.401,0.053-0.553,0.059  C31.959,60.453,31.798,60.455,31.798,60.455z"/>
</svg>