<svg xmlns="http://www.w3.org/2000/svg" xmlns:xlink="http://www.w3.org/1999/xlink" version="1.1" id="Layer_2" x="0px" y="0px" width="100px" height="100px" viewBox="0 0 100 100" enable-background="new 0 0 100 100" xml:space="preserve">
<g>
	<g>
		<path d="M89.927,30.43l-0.155-2.619l-1.276-1.944l-1.296-1.254l-1.307-0.369L83.927,24l-9.928-1l-55.938,3.878l-1.988,0.985    l-1.343,1.935l-0.709,2.613l-0.76,3.283l-1.027,3.288L11,42.268v2.634l-1,0.659v1.317l1.034,0.659l0.787,15.805L11,64.658v3.951    l1.561,1.43l0.821,1.595L15.439,74h1.976h1.317h1.317h0.658h1.317h0.659l1.976-1h1.317H28c1.317,2.634,1.798,3.607,4.89,3.607    s4.281-0.562,5.598-3.195l0.659-0.221L39.805,73h1.317l28.976-6.311c3.293,5.926,12.48,3.43,12.48-2.826l0.628-0.439l1.913-0.7    L89,62l1-1V42v-2.366v-1.317v-2.634v-2.634L89.927,30.43z M22,30.5l5,0.5l0.414,6L22,36.541V30.5z M18,64.001V71l-3-3v-3.999    L18,62V64.001z M14,56v-8l4,1l0,8L14,56z M15.621,36L17,30l3,0.3v6.071L15.621,36z M23,69l-3,2v-9l3,2V69z M30,55l-6,2h-4v-6.069    L20,49h6l4,0L30,55z M30,31l9-0.643v6L30,37V31z M39,48.472v5.907L33,55v-6L39,48.472z M34.62,73.241    c-1.52,0-2.751-1.459-2.751-3.259s1.232-3.259,2.751-3.259s2.751,1.459,2.751,3.259S36.14,73.241,34.62,73.241z M39.172,69.258    c-0.268-3.057-2.202-5.431-4.552-5.431c-2.35,0-4.285,2.374-4.552,5.431c-0.021-0.237-0.035-0.479-0.035-0.724    c0-3.399,2.053-6.155,4.586-6.155c2.532,0,4.586,2.756,4.586,6.155C39.207,68.779,39.193,69.021,39.172,69.258z M49,53.345    l-8,0.828v-5.876l8-0.704V53.345z M49,35.643l-8,0.572v-6l8-0.572V35.643z M59,52.311l-8,0.828v-5.722l8-0.704V52.311z M59,34.928    L51,35.5v-6l8-0.572V34.928z M64,51.793l-3,0.311v-5.567l3-0.264V51.793z M64,34.571l-3,0.214v-6l3-0.214V34.571z M72,50.966    l-6,0.621v-5.49l6-0.528V50.966z M72,34l-6,0.429v-6L72,28V34z M74,27.857l6-0.429v6l-6,0.429V27.857z M74,45.393l6-0.528v5.273    l-6,0.621V45.393z M78.518,65c-1.086,0-1.966-1.32-1.966-2.948s0.88-2.948,1.966-2.948c1.085,0,1.965,1.32,1.965,2.948    S79.603,65,78.518,65z M81.769,61.396c-0.191-2.766-1.573-4.914-3.251-4.914c-1.679,0-3.061,2.148-3.252,4.914    c-0.015-0.215-0.024-0.434-0.024-0.655c0-3.075,1.467-5.568,3.276-5.568c1.809,0,3.275,2.493,3.275,5.568    C81.793,60.963,81.783,61.182,81.769,61.396z M86,60l-1,0.414V43.379l1-0.656V60z M86,33l-4,0.286v-6L86,27V33z M88,60h-1V42.724    l1-0.789V60z"/>
	</g>
</g>
</svg>