<svg xmlns="http://www.w3.org/2000/svg" xmlns:xlink="http://www.w3.org/1999/xlink" version="1.1" x="0px" y="0px" width="100px" height="100px" viewBox="0 0 100 100" enable-background="new 0 0 100 100" xml:space="preserve">
<g id="Layer_1">
	<path fill-rule="evenodd" clip-rule="evenodd" fill="#000000" d="M57.982,14.233l-0.593-2.188l3.373,3.947v1.697   c2.522,1.077,4.6,2.705,6.236,4.886c-0.723-0.177-1.397-0.327-2.025-0.45c-1.253-0.246-1.668-0.211-1.246,0.103   c0.463,0.367,1.321,1.847,2.576,4.437c1.187,2.494,1.895,4.219,2.126,5.172c0.178,0.737-0.121,2.965-0.898,6.687   c-0.382,1.867-0.783,3.653-1.207,5.357l-0.45,0.735c-0.162,0.437,0.13,0.531,0.879,0.286c0.737-0.245,1.193,0.015,1.37,0.778   c0.095,0.394,0.115,0.811,0.062,1.246l-1.391,4.846c-0.968,3.285-1.595,5.078-1.882,5.379c-0.299,0.298-0.749,0.319-1.35,0.06   c-0.313-0.081-0.49-0.286-0.532-0.613l0.083,0.92c-0.014,0.969-0.13,2.088-0.348,3.354c-0.231,1.269-0.907,2.766-2.023,4.498   l-2.169,2.537c-0.408,1.622-0.668,2.608-0.776,2.964c-0.041,0-0.062,0.02-0.062,0.061c-0.026,0.149-0.008,0.13,0.062-0.061   c0.245,0.015,1.282,0.947,3.107,2.8c1.064,1.052,2.113,2.135,3.149,3.253c15.416,5.139,25.456,8.416,30.118,9.835v7.831H6.333   v-3.19c1.322-0.382,2.618-0.723,3.885-1.021c1.063-0.831,4.151-2.577,9.262-5.235c2.48-1.308,4.873-2.536,7.177-3.681   c0-0.246,0-0.524,0-0.837c0-1.786,0.715-3.45,2.146-4.988c0.709-0.767,1.417-1.35,2.127-1.761c0.612-0.587,1.056-1.31,1.328-2.168   c0.218-0.682,0.443-1.13,0.675-1.348c-0.558-1.35-1.335-2.42-2.33-3.212c-1.65-1.336-2.815-3.646-3.498-6.93   c-0.218-1.038-0.375-2.101-0.47-3.19l-0.062-1.35c-0.967,0.341-1.642,0.457-2.023,0.348c-0.382-0.109-0.934-1.629-1.656-4.56   c-0.791-3.176-1.111-5.732-0.961-7.668c0.136-1.786,0.743-2.645,1.819-2.576c0.532,0.042,1.042,0.26,1.534,0.654   c-0.341-1.077-0.695-2.263-1.064-3.558c-0.735-2.576-1.137-4.621-1.205-6.134c-0.069-1.445,0.708-3.633,2.331-6.564   c0.395-0.708,0.919-1.635,1.574-2.781c0.422-0.804,0.579-1.26,0.47-1.37c-0.176-0.191-0.176-0.435,0-0.736   c0.259-0.422,0.403-0.708,0.43-0.858c0.067-0.504,0.661-1.036,1.779-1.596c0.451-0.231,2.611-1.411,6.481-3.536l0.409-0.594   l-1.084-0.675l-0.756-1.349l-0.593-1.513l3.373,0.715l-0.757-0.206l1.35-0.264c0.327-0.342,0.436-0.512,0.327-0.512l0.082-0.737   l0.592,0.409l0.512-0.163l0.491-0.941l0.246,0.654c0.189,0.505,0.395,0.961,0.613,1.37c0.191,0.382,0.361,0.607,0.512,0.675   c0.272,0.123,0.49,0.266,0.653,0.429c0.288,0.273,0.532,0.354,0.737,0.246c0.096-0.054,0.164-0.136,0.204-0.246   c-0.286-0.504-0.573-0.899-0.858-1.185c-0.163-0.178-0.313-0.471-0.45-0.88l-0.123-0.552l1.431,0.592l1.269,1.104l1.512,0.083   l-0.674-0.92c0-0.34-0.145-0.653-0.429-0.94c-0.178-0.178,0.095-0.089,0.817,0.265c0.355,0.178,0.73,0.375,1.125,0.594l0.838,0.081   l0.53,0.225c0.396,0.218,0.75,0.45,1.064,0.695c0.329,0.246,0.552,0.095,0.675-0.45c0.095-0.682,0.157-1.098,0.183-1.247   c0.028-0.178,0.246-0.328,0.655-0.451c0.203-0.054,0.401-0.102,0.592-0.143l1.37,2.291c0.163,0.273,0.497,0.75,1.001,1.431   l0.309-0.245c0.203-0.191,0.271-0.389,0.203-0.594l-0.858-2.617l0.307,0.042c0.232,0.081,0.443,0.266,0.634,0.552   c0.273,0.436,0.92,1.526,1.943,3.271l1.164,2.024L57.982,14.233z"/>
</g>
<g id="Layer_1_copy" display="none">
	<path display="inline" fill-rule="evenodd" clip-rule="evenodd" fill="#000000" d="M57.809,20.904l-0.511-1.888l2.908,3.404v1.463   c2.176,0.929,3.968,2.333,5.379,4.214c-0.623-0.152-1.205-0.281-1.747-0.388c-1.08-0.212-1.438-0.182-1.074,0.089   c0.399,0.316,1.139,1.593,2.222,3.826c1.022,2.151,1.633,3.639,1.833,4.461c0.153,0.635-0.104,2.557-0.774,5.768   c-0.329,1.61-0.675,3.15-1.041,4.62l-0.389,0.634c-0.14,0.377,0.112,0.458,0.759,0.247c0.635-0.211,1.029,0.013,1.181,0.671   c0.082,0.339,0.1,0.699,0.055,1.074l-1.199,4.18c-0.835,2.832-1.375,4.379-1.624,4.638c-0.257,0.258-0.646,0.276-1.163,0.052   c-0.271-0.07-0.423-0.246-0.459-0.528l0.071,0.793c-0.012,0.835-0.112,1.801-0.3,2.893c-0.199,1.094-0.782,2.385-1.744,3.879   l-1.871,2.188c-0.353,1.398-0.576,2.249-0.67,2.556c-0.035,0-0.054,0.017-0.054,0.053c-0.022,0.128-0.006,0.111,0.054-0.053   c0.211,0.013,1.106,0.817,2.68,2.415c0.918,0.906,1.823,1.841,2.717,2.805C76.341,79.401,85,82.229,89.021,83.453v6.753H13.265   v-2.751c1.141-0.33,2.257-0.623,3.35-0.882c0.917-0.716,3.58-2.223,7.988-4.515c2.14-1.128,4.203-2.188,6.19-3.174   c0-0.213,0-0.453,0-0.723c0-1.54,0.617-2.976,1.851-4.303c0.612-0.66,1.223-1.163,1.835-1.518c0.528-0.507,0.911-1.129,1.146-1.87   c0.188-0.587,0.382-0.974,0.582-1.162c-0.481-1.164-1.152-2.087-2.009-2.771c-1.423-1.152-2.428-3.145-3.017-5.976   c-0.188-0.895-0.323-1.812-0.405-2.752l-0.053-1.164c-0.834,0.294-1.416,0.395-1.745,0.3c-0.33-0.094-0.806-1.404-1.429-3.932   c-0.682-2.74-0.959-4.944-0.829-6.613c0.118-1.541,0.641-2.281,1.569-2.222c0.458,0.036,0.899,0.224,1.323,0.564   c-0.294-0.929-0.6-1.951-0.917-3.068c-0.634-2.221-0.981-3.985-1.04-5.29c-0.06-1.246,0.611-3.134,2.011-5.661   c0.34-0.611,0.792-1.41,1.357-2.398c0.364-0.693,0.5-1.087,0.405-1.182c-0.152-0.165-0.152-0.375,0-0.634   c0.223-0.364,0.347-0.611,0.37-0.741c0.058-0.435,0.571-0.893,1.534-1.376c0.389-0.199,2.252-1.216,5.59-3.049l0.353-0.513   l-0.935-0.582l-0.651-1.163l-0.512-1.305l2.909,0.617l-0.652-0.177l1.165-0.228c0.282-0.295,0.376-0.441,0.282-0.441l0.071-0.635   l0.51,0.353l0.441-0.141l0.424-0.812l0.212,0.564c0.163,0.436,0.34,0.829,0.528,1.182c0.165,0.33,0.312,0.523,0.441,0.582   c0.235,0.106,0.423,0.23,0.564,0.37c0.248,0.236,0.459,0.306,0.635,0.212c0.082-0.046,0.142-0.117,0.176-0.212   c-0.247-0.435-0.494-0.775-0.741-1.021c-0.141-0.153-0.27-0.406-0.388-0.759l-0.106-0.476l1.235,0.511l1.094,0.952l1.304,0.071   L46.699,17.5c0-0.293-0.124-0.563-0.37-0.811c-0.154-0.153,0.083-0.077,0.704,0.229c0.307,0.153,0.63,0.324,0.971,0.512   l0.724,0.069l0.457,0.195c0.342,0.188,0.647,0.387,0.917,0.599c0.284,0.212,0.477,0.082,0.583-0.388   c0.082-0.588,0.135-0.947,0.157-1.075c0.024-0.153,0.213-0.283,0.565-0.389c0.175-0.046,0.346-0.087,0.511-0.123l1.182,1.975   c0.141,0.235,0.429,0.647,0.863,1.234l0.267-0.211c0.174-0.165,0.233-0.335,0.174-0.513l-0.739-2.257l0.265,0.036   c0.2,0.07,0.382,0.229,0.546,0.476c0.236,0.375,0.794,1.316,1.677,2.821l1.004,1.746L57.809,20.904z"/>
	
		<path display="inline" fill-rule="evenodd" clip-rule="evenodd" fill="#000000" stroke="#010101" stroke-width="6" stroke-miterlimit="10" d="   M92.173,78.231c0,6.963-5.646,12.608-12.608,12.608H21.942c-6.964,0-12.609-5.646-12.609-12.608V20.609   C9.333,13.645,14.979,8,21.942,8h57.622c6.963,0,12.608,5.645,12.608,12.609V78.231z"/>
</g>
<g id="Layer_2" display="none">
</g>
</svg>