<svg xmlns="http://www.w3.org/2000/svg" xmlns:xlink="http://www.w3.org/1999/xlink" version="1.1" id="camera" x="0px" y="0px" width="100px" height="100px" viewBox="0 0 100 100" enable-background="new 0 0 100 100" xml:space="preserve">
<path d="M86,31h-4v-2h-7v2h-4.5l-8-10h-10l-8,10H40v-4h-4v-1h-3v1h-4v4h-4v-2h-5v2h-6v9h28.251l-0.5,2H14v32h31.702  C41.029,70.438,38,64.829,38,58.5c0-8.624,5.604-15.927,13.364-18.5h-9.113l0.479-1.917h29.542L72.751,40h-9.115  C71.396,42.573,77,49.876,77,58.5c0,6.329-3.029,11.938-7.702,15.5H86V42H73.251l-0.5-2H86V31z M33.951,64.428l-0.045,0.145  C33.659,65.396,32.904,66,32,66c-1.104,0-2-0.896-2-2c0-0.334,0.09-0.645,0.235-0.922l0.001-0.002  c0.052-0.099,0.11-0.193,0.177-0.281l2.783-4.401c0.182-0.246,0.461-0.417,0.791-0.417c0.552,0,1,0.447,1,1  C34.986,59.025,33.955,64.409,33.951,64.428z"/>
<g>
	<path d="M57.5,47.5c-6.065,0-11,4.935-11,11c0,6.066,4.935,11.001,11,11.001c6.065-0.001,11-4.936,11-11.001S63.565,47.5,57.5,47.5   z M52.54,53.54c-1.091,1.09-2.354,1.596-2.822,1.128c-0.467-0.468,0.038-1.73,1.129-2.821c1.09-1.09,2.353-1.596,2.821-1.128   C54.136,51.186,53.63,52.449,52.54,53.54z M64,65c-0.553,0-1-0.447-1-1s0.447-1,1-1s1,0.447,1,1S64.553,65,64,65z"/>
	<path d="M68.394,70.86c0.046-0.041,0.091-0.083,0.137-0.124c0.802-0.725,1.531-1.524,2.18-2.392   c0.093-0.123,0.188-0.244,0.276-0.37c0.157-0.222,0.305-0.45,0.45-0.681c0.116-0.183,0.229-0.367,0.337-0.555   c0.123-0.212,0.244-0.423,0.357-0.641c0.13-0.248,0.248-0.502,0.365-0.757c0.08-0.175,0.167-0.345,0.24-0.521   c0.179-0.427,0.337-0.862,0.479-1.306c0.049-0.152,0.088-0.309,0.132-0.463c0.095-0.326,0.181-0.655,0.255-0.989   c0.039-0.174,0.073-0.349,0.105-0.524c0.064-0.34,0.116-0.684,0.158-1.031c0.02-0.158,0.042-0.315,0.058-0.476   C73.97,59.526,74,59.017,74,58.5s-0.03-1.026-0.077-1.531c-0.016-0.16-0.038-0.317-0.058-0.477   c-0.042-0.347-0.094-0.689-0.157-1.029c-0.033-0.177-0.067-0.352-0.106-0.525c-0.074-0.335-0.16-0.663-0.255-0.989   c-0.044-0.154-0.083-0.311-0.132-0.463c-0.142-0.443-0.301-0.88-0.479-1.306c-0.073-0.177-0.16-0.346-0.239-0.52   c-0.117-0.256-0.236-0.511-0.366-0.76c-0.113-0.217-0.234-0.428-0.356-0.639c-0.109-0.188-0.223-0.374-0.339-0.558   c-0.146-0.229-0.292-0.457-0.448-0.678c-0.09-0.128-0.187-0.25-0.28-0.375c-0.646-0.865-1.373-1.662-2.173-2.384   c-0.048-0.043-0.095-0.087-0.143-0.13c-0.285-0.251-0.578-0.491-0.879-0.722c-0.027-0.021-0.056-0.041-0.083-0.062   C64.663,43.259,61.229,42,57.5,42c-3.731,0-7.167,1.26-9.934,3.357c-0.025,0.019-0.051,0.038-0.076,0.057   c-0.303,0.232-0.598,0.474-0.884,0.726c-0.046,0.041-0.091,0.083-0.137,0.125c-0.803,0.724-1.532,1.524-2.181,2.392   c-0.092,0.123-0.187,0.243-0.275,0.369c-0.157,0.223-0.305,0.451-0.451,0.682c-0.116,0.182-0.228,0.366-0.336,0.553   c-0.123,0.212-0.245,0.424-0.358,0.643c-0.129,0.248-0.247,0.5-0.364,0.755c-0.08,0.175-0.167,0.345-0.241,0.522   c-0.178,0.426-0.336,0.862-0.478,1.305c-0.049,0.153-0.088,0.311-0.133,0.466c-0.094,0.325-0.18,0.653-0.254,0.986   c-0.039,0.175-0.073,0.35-0.105,0.526c-0.064,0.34-0.115,0.683-0.158,1.029c-0.02,0.159-0.042,0.316-0.057,0.477   C41.031,57.474,41,57.983,41,58.5s0.031,1.026,0.078,1.531c0.015,0.16,0.038,0.317,0.057,0.476   c0.042,0.348,0.094,0.691,0.158,1.031c0.033,0.176,0.067,0.351,0.105,0.524c0.074,0.335,0.161,0.664,0.255,0.991   c0.044,0.153,0.083,0.309,0.131,0.46c0.142,0.444,0.301,0.881,0.479,1.308c0.073,0.175,0.159,0.342,0.237,0.514   c0.118,0.258,0.238,0.516,0.37,0.766c0.112,0.216,0.232,0.426,0.354,0.635c0.11,0.19,0.225,0.378,0.342,0.563   c0.145,0.228,0.29,0.453,0.445,0.673c0.092,0.131,0.191,0.256,0.287,0.384c0.644,0.86,1.368,1.654,2.164,2.373   c0.049,0.045,0.098,0.091,0.148,0.135c0.284,0.25,0.575,0.489,0.875,0.72c0.029,0.022,0.058,0.043,0.087,0.065   c1.306,0.988,2.759,1.783,4.326,2.352l0,0l0,0c1.752,0.636,3.633,1,5.602,1c3.732,0,7.167-1.26,9.935-3.357   c0.024-0.019,0.05-0.037,0.075-0.056C67.813,71.354,68.107,71.112,68.394,70.86z M57.5,71.5c-7.18,0-13-5.82-13-13   c0-3.975,1.788-7.526,4.599-9.911c2.267-1.923,5.196-3.089,8.401-3.089c7.18,0,13,5.82,13,13c0,4.42-2.211,8.319-5.582,10.668   C62.813,70.635,60.26,71.5,57.5,71.5z"/>
</g>
</svg>