<svg xmlns="http://www.w3.org/2000/svg" xmlns:xlink="http://www.w3.org/1999/xlink" version="1.1" id="Layer_1" x="0px" y="0px" width="100px" height="100px" viewBox="0 0 100 100" enable-background="new 0 0 100 100" xml:space="preserve">
<path d="M93.423,45.799l-48.26,48.262c-2.855,2.854-7.487,2.851-10.338,0L6.094,65.327c-2.853-2.852-2.853-7.479,0-10.334  l48.262-48.26c1.609-1.609,3.779-2.278,5.881-2.073l-0.14-0.143l25.111,5.581L85.204,10.1c1.063,0.167,3.622,0.994,4.653,4.7  l5.164,23.075C96.096,40.516,95.563,43.658,93.423,45.799z M81.354,18.798c-2.977-2.974-7.794-2.974-10.763,0  c-2.977,2.975-2.977,7.792-0.007,10.765c2.976,2.976,7.793,2.976,10.77,0C84.33,26.59,84.33,21.772,81.354,18.798z"/>
</svg>