<svg xmlns="http://www.w3.org/2000/svg" xmlns:xlink="http://www.w3.org/1999/xlink" version="1.1" id="Layer_1" x="0px" y="0px" width="100px" height="100px" viewBox="0 0 100 100" enable-background="new 0 0 100 100" xml:space="preserve">
<path d="M91.609,85.407c-4.207-5.085-3.187-12-2.187-15.735c0.942-2.331,1.472-4.812,1.472-7.406c0-4.633-1.631-8.939-4.414-12.549  C83.77,66.564,67.068,79.609,46.761,79.93c4.665,3.282,10.648,5.26,17.174,5.26c4.771,0,9.237-1.063,13.119-2.91  c5.959,3.998,13.379,4.547,13.379,4.547C93.641,86.825,91.609,85.407,91.609,85.407z"/>
<path d="M83.426,44.923c0-17.401-16.789-31.562-37.421-31.562c-20.635,0-37.422,14.161-37.422,31.562  c0,3.4,0.673,6.804,2.003,10.106c1.544,5.688,3.072,15.9-2.8,23.798c1.994-0.214,10.954-1.419,18.195-6.271l0.823-0.55l0.894,0.423  c5.578,2.651,11.908,4.057,18.307,4.057C66.637,76.486,83.426,62.324,83.426,44.923z"/>
</svg>