<svg xmlns="http://www.w3.org/2000/svg" xmlns:xlink="http://www.w3.org/1999/xlink" version="1.1" id="Layer_1" x="0px" y="0px" width="100px" height="100px" viewBox="0 0 100 100" enable-background="new 0 0 100 100" xml:space="preserve">
<path d="M87.62,33.304v2.902c2.507,0.452,4.423,2.641,4.423,5.28l-0.006,39.309l-8.999-9.002H38.143  c-2.625,0-4.809-1.893-5.276-4.38h-2.902c0.498,4.091,3.953,7.282,8.178,7.282h43.694l8.403,8.403  c0.941,0.941,1.752,1.378,2.557,1.378c1.34,0,2.094-1.168,2.147-2.387V41.486C94.944,37.247,91.731,33.782,87.62,33.304z"/>
<path d="M76.014,64.512c4.809,0,8.704-3.899,8.704-8.705V24.021c0-4.807-3.896-8.705-8.704-8.705H14.148  c-4.807,0-8.705,3.897-8.705,8.705v25.136v6.65v19.982c0,0,0.121,2.697,2.841-0.023l11.256-11.254H76.014z"/>
</svg>