<?xml version="1.0" encoding="utf-8"?>
<!-- Generator: Adobe Illustrator 14.0.0, SVG Export Plug-In . SVG Version: 6.00 Build 43363)  -->
<!DOCTYPE svg PUBLIC "-//W3C//DTD SVG 1.0//EN" "http://www.w3.org/TR/2001/REC-SVG-20010904/DTD/svg10.dtd">
<svg version="1.0" id="Layer_1" xmlns="http://www.w3.org/2000/svg" xmlns:xlink="http://www.w3.org/1999/xlink" x="0px" y="0px"
	 width="96.42px" height="100px" viewBox="0 0 96.42 100" enable-background="new 0 0 96.42 100" xml:space="preserve">
<path d="M14.534,56.161c0-3.698,2.99-6.685,6.692-6.685c3.695,0,6.694,2.986,6.694,6.685c0,3.694-2.999,6.69-6.694,6.69
	C17.524,62.851,14.534,59.854,14.534,56.161"/>
<path d="M79.165,52.067c2.945,0,5.321,2.306,5.345,5.229l0.011,14.112H30.812V52.081L79.165,52.067z"/>
<path d="M24.628,71.397c1.815,0,3.292-1.475,3.292-3.291c0-1.815-1.476-3.292-3.292-3.292h-9.517c-1.823,0-3.288,1.477-3.288,3.292
	c0,1.816,1.465,3.291,3.288,3.291H24.628z"/>
<path d="M87.705,85.279V100h8.715V53.321c0-2.401-1.939-4.354-4.347-4.354c-2.414,0-4.368,1.952-4.368,4.354v21.422H9.447V44.516
	c0-2.403-2.098-4.357-4.505-4.357v0.003c-2.402,0-4.293,1.95-4.293,4.354V100h8.798V85.279H87.705z"/>
<path d="M60.086,0c2.791,0,7.355,1.17,9.896,3.953l-3.423,6.578c-1.498-1.936-3.837-3.178-6.474-3.178
	c-2.603,0-4.919,1.215-6.415,3.113l-3.493-6.368C53.118,1.156,57.182,0,60.086,0 M59.099,6.627h1.955V4.674h1.954V2.722h-1.954
	V0.768h-1.955v1.954h-1.954v1.952h1.954V6.627z"/>
<path d="M66.357,15.951c0,3.47-2.814,6.284-6.286,6.284c-3.473,0-6.281-2.813-6.281-6.284c0-3.474,2.809-6.286,6.281-6.286
	C63.543,9.665,66.357,12.477,66.357,15.951"/>
<path d="M54.03,24.027c-4.395,0.024-6.938,3.588-7.513,5.602l-5.352,17.568h5.417l3.945-13.48h2.807l-3.935,13.477h21.316
	L66.81,33.717h2.805l4.053,13.48h5.336L73.63,29.629c-0.569-1.989-3.062-5.486-7.359-5.593L54.03,24.027z"/>
<path d="M13.981,28.066C6.271,28.066,0,21.796,0,14.08C0,6.367,6.271,0.092,13.981,0.092c7.71,0,13.989,6.275,13.989,13.988
	C27.97,21.796,21.691,28.066,13.981,28.066 M13.981,24.604c5.801,0,10.529-4.72,10.529-10.528c0-5.798-4.729-10.526-10.529-10.526
	c-5.804,0-10.522,4.728-10.522,10.526C3.458,19.885,8.177,24.604,13.981,24.604"/>
<path d="M14.053,15.927c-0.312,0.144-0.696,0.128-1.005-0.076c-0.261-0.168-0.426-0.433-0.471-0.726l-0.014-8.127
	c0-0.583,0.474-1.054,1.054-1.054c0.581,0,1.051,0.471,1.051,1.054v6.305l5.393-2.538c0.52-0.252,1.152-0.026,1.398,0.498
	c0.249,0.53,0.022,1.154-0.501,1.403L14.053,15.927z"/>
</svg>
