<svg xmlns="http://www.w3.org/2000/svg" xmlns:xlink="http://www.w3.org/1999/xlink" version="1.1" id="Layer_1" x="0px" y="0px" width="100px" height="100px" viewBox="0 0 100 100" enable-background="new 0 0 100 100" xml:space="preserve">
<path d="M99.453,38.603c-0.414-1.27-1.597-2.129-2.93-2.129H66.029c-1.252-0.332-3.057-1.212-3.947-3.496L52.927,4.8  c-0.412-1.27-1.595-2.129-2.929-2.129c-1.334,0-2.517,0.859-2.93,2.129l-9.319,28.679c-1.221,2.3-3.446,2.861-4.454,2.995H3.471  c-1.334,0-2.517,0.859-2.929,2.129c-0.413,1.27,0.039,2.659,1.119,3.443L26.125,59.82c0.842,0.954,2.123,2.972,1.184,5.753  c-0.068,0.205-0.115,0.363-0.149,0.498l-8.846,27.227c-0.413,1.269,0.04,2.659,1.12,3.443c0.54,0.393,1.175,0.588,1.81,0.588  c0.636,0,1.271-0.196,1.811-0.588l23.764-17.267c1.242-0.731,3.69-1.614,6.638,0.202l23.484,17.064c1.081,0.784,2.543,0.783,3.622,0  c1.08-0.784,1.531-2.175,1.119-3.443l-9.234-28.421c-0.148-0.943-0.302-3.488,1.856-5.371l24.03-17.46  C99.413,41.262,99.864,39.872,99.453,38.603z M60.98,42.635H77.8c0.555,0.111,1.109,0.409,1.24,1.142  c0.185,1.029-0.889,1.739-1.575,2.081l-23.466,7.72c-0.557,0.183-0.94,0.692-0.962,1.276c-0.021,0.585,0.322,1.122,0.864,1.347  l8.376,3.469c0.787,0.398,2.555,1.481,3.038,3.34c0.067,0.257,0.145,0.437,0.226,0.551l4.46,13.726  c0.079,0.646-0.012,1.459-0.849,1.793c-0.778,0.311-1.521-0.214-2.027-0.746L52.272,58.044c-0.347-0.472-0.952-0.677-1.512-0.521  c-0.563,0.161-0.968,0.654-1.013,1.238l-0.745,9.474c-0.146,0.745-0.546,2.154-1.556,3.168L32.81,82.038  c-0.583,0.32-1.423,0.568-2.053-0.132c-0.475-0.525-0.38-1.232-0.146-1.835l15.393-24.103c0.195-0.253,0.306-0.568,0.294-0.902  c-0.019-0.546-0.354-1.022-0.85-1.233c-0.011-0.005-0.022-0.01-0.032-0.015c-0.022-0.009-0.043-0.02-0.066-0.028l-24.094-8.213  c-0.596-0.327-1.383-0.965-1.056-1.943c0.203-0.607,0.763-0.882,1.342-0.999h16.035c0.938,0.073,2.497,0.371,3.58,1.465l6.318,7.347  c0.271,0.315,0.662,0.487,1.062,0.487c0.164,0,0.328-0.028,0.487-0.087c0.549-0.204,0.913-0.728,0.913-1.313V25.765  c0.049-0.673,0.297-1.775,1.395-1.86c0.979-0.077,1.565,0.922,1.859,1.638l4.861,14.964C58.464,41.775,59.646,42.635,60.98,42.635z"/>
</svg>