<svg xmlns="http://www.w3.org/2000/svg" xmlns:xlink="http://www.w3.org/1999/xlink" version="1.1" id="Layer_1" x="0px" y="0px" width="100px" height="100px" viewBox="0 0 100 100" enable-background="new 0 0 100 100" xml:space="preserve">
<g>
	<polygon points="71.354,23.553 71.354,29.444 68.758,30.943 68.758,25.053  "/>
	<polygon points="64.06,27.762 64.06,33.652 61.463,35.152 61.463,29.263  "/>
	<polygon points="56.764,31.972 56.764,37.861 54.165,39.361 54.165,33.472  "/>
	<polygon points="71.354,35.667 71.354,41.556 68.758,43.056 68.758,37.167  "/>
	<polygon points="64.06,39.875 64.06,45.766 61.463,47.266 61.463,41.375  "/>
	<polygon points="71.354,47.782 71.354,53.673 68.758,55.172 68.758,49.28  "/>
	<polygon points="64.06,51.989 64.06,57.88 61.463,59.38 61.463,53.491  "/>
	<polygon points="56.764,56.199 56.764,62.089 54.165,63.589 54.165,57.699  "/>
	<polygon points="64.06,64.104 64.06,69.994 61.463,71.493 61.463,65.604  "/>
	<polygon points="56.764,68.312 56.764,74.202 54.165,75.702 54.165,69.813  "/>
	<polygon points="71.354,72.008 71.354,77.899 68.758,79.399 68.758,73.508  "/>
	<polygon points="56.764,80.427 56.764,86.316 54.165,87.815 54.165,81.927  "/>
	<path d="M50,0.394L28.042,13.07l-3.562,2.059v69.745L50,99.606V29.862H50l25.52-14.733L50,0.394z M31.242,79.397l-2.598-1.5v-5.89   l2.598,1.498V79.397z M31.242,67.284l-2.598-1.5v-5.891l2.598,1.5V67.284z M31.242,43.056l-2.598-1.5v-5.891l2.598,1.499V43.056z    M31.242,30.942l-2.598-1.499v-5.891l2.598,1.5V30.942z M38.538,83.607l-2.599-1.499v-5.892l2.599,1.5V83.607z M38.538,59.38   l-2.599-1.5v-5.891l2.599,1.5V59.38z M38.538,47.266l-2.599-1.501v-5.89l2.599,1.5V47.266z M38.538,35.152l-2.599-1.5v-5.891   l2.599,1.5V35.152z M45.833,87.815l-2.598-1.499v-5.892l2.598,1.5V87.815z M45.833,75.702l-2.598-1.5v-5.89l2.598,1.498V75.702z    M45.833,63.589l-2.598-1.5v-5.891l2.598,1.499V63.589z M45.833,51.474l-2.598-1.499v-5.892l2.598,1.5V51.474z M50.031,6.719   L50,6.703l-17.018,9.825l-2.422-1.399l2.714-1.567L50,3.904l19.438,11.224l-2.423,1.399L50.031,6.719z"/>
</g>
</svg>