<svg xmlns="http://www.w3.org/2000/svg" xmlns:xlink="http://www.w3.org/1999/xlink" version="1.1" id="Layer_1" x="0px" y="0px" width="100px" height="100px" viewBox="0 0 100 100" enable-background="new 0 0 100 100" xml:space="preserve">
<path d="M50,0.394C22.647,0.394,0.394,22.647,0.394,50S22.647,99.606,50,99.606S99.606,77.353,99.606,50S77.353,0.394,50,0.394z   M92.285,32.647c-3.745-4.079-8.764-7.578-14.688-10.245c-2.667-5.923-6.167-10.942-10.245-14.687  C78.624,12.356,87.644,21.376,92.285,32.647z M78.291,37.927c-4.423-0.836-9.29-1.456-14.364-1.854  c-0.398-5.074-1.018-9.941-1.854-14.364c4.518,0.794,8.756,2.025,12.604,3.613C76.266,29.171,77.497,33.41,78.291,37.927z   M79.67,27.708c7.236,3.972,12.518,9.364,14.796,15.498c-3.01-1.776-7.178-3.252-12.104-4.417  C81.758,34.901,80.849,31.188,79.67,27.708z M79.338,50c0,2.705-0.159,5.352-0.45,7.928c-4.227,0.876-9.142,1.602-14.7,2.068  C64.37,56.7,64.465,53.348,64.465,50c0-3.347-0.095-6.7-0.277-9.997c5.559,0.467,10.474,1.193,14.7,2.069  C79.179,44.648,79.338,47.295,79.338,50z M50,60.574c-3.602,0-7.027-0.108-10.276-0.299c-0.19-3.248-0.298-6.674-0.298-10.275  c0-3.602,0.108-7.027,0.298-10.276c3.249-0.19,6.674-0.298,10.276-0.298c3.602,0,7.027,0.108,10.275,0.298  c0.19,3.249,0.299,6.674,0.299,10.276c0,3.602-0.108,7.027-0.299,10.275C57.027,60.466,53.602,60.574,50,60.574z M59.996,64.188  c-0.467,5.559-1.192,10.474-2.068,14.7c-2.576,0.291-5.223,0.45-7.928,0.45s-5.352-0.159-7.928-0.45  c-0.875-4.227-1.602-9.142-2.069-14.7C43.3,64.37,46.653,64.465,50,64.465C53.348,64.465,56.7,64.37,59.996,64.188z M20.662,50  c0-2.705,0.16-5.352,0.45-7.928c4.227-0.875,9.142-1.602,14.7-2.069C35.63,43.3,35.535,46.653,35.535,50  c0,3.348,0.095,6.7,0.277,9.996c-5.559-0.467-10.473-1.192-14.7-2.068C20.822,55.352,20.662,52.705,20.662,50z M40.003,35.812  c0.467-5.559,1.193-10.473,2.069-14.7c2.576-0.291,5.223-0.45,7.928-0.45s5.352,0.16,7.928,0.45c0.876,4.227,1.602,9.142,2.068,14.7  C56.7,35.63,53.348,35.535,50,35.535C46.653,35.535,43.3,35.63,40.003,35.812z M61.21,17.638c-1.164-4.926-2.641-9.094-4.416-12.103  c6.134,2.277,11.525,7.559,15.498,14.795C68.812,19.152,65.1,18.242,61.21,17.638z M57.008,17.109  c-2.291-0.218-4.627-0.338-7.008-0.338c-2.38,0-4.717,0.12-7.008,0.338C45.114,8.91,47.808,4.284,50,4.284  S54.886,8.91,57.008,17.109z M43.207,5.535c-1.776,3.009-3.252,7.177-4.417,12.103c-3.889,0.604-7.601,1.514-11.081,2.692  C31.681,13.094,37.072,7.812,43.207,5.535z M37.927,21.709c-0.836,4.422-1.456,9.29-1.854,14.364  c-5.074,0.399-9.941,1.019-14.364,1.854c0.794-4.518,2.025-8.756,3.613-12.605C29.171,23.734,33.41,22.503,37.927,21.709z   M17.638,38.79c-4.926,1.165-9.094,2.641-12.103,4.417c2.277-6.134,7.559-11.526,14.795-15.498  C19.152,31.188,18.242,34.901,17.638,38.79z M17.109,42.992c-0.218,2.291-0.338,4.628-0.338,7.008c0,2.381,0.12,4.717,0.338,7.008  C8.91,54.886,4.284,52.192,4.284,50S8.91,45.114,17.109,42.992z M17.638,61.21c0.604,3.89,1.514,7.602,2.692,11.082  c-7.236-3.973-12.518-9.364-14.795-15.498C8.543,58.569,12.712,60.046,17.638,61.21z M21.709,62.073  c4.422,0.836,9.29,1.455,14.364,1.854c0.399,5.074,1.019,9.941,1.854,14.364c-4.518-0.794-8.756-2.025-12.605-3.613  C23.734,70.829,22.503,66.591,21.709,62.073z M38.79,82.362c1.165,4.926,2.641,9.094,4.417,12.104  c-6.134-2.278-11.526-7.56-15.498-14.796C31.188,80.849,34.901,81.758,38.79,82.362z M42.992,82.891  c2.291,0.218,4.628,0.338,7.008,0.338c2.381,0,4.717-0.12,7.008-0.338C54.886,91.09,52.192,95.716,50,95.716  S45.114,91.09,42.992,82.891z M56.794,94.466c1.775-3.01,3.252-7.178,4.416-12.104c3.89-0.604,7.602-1.514,11.082-2.692  C68.319,86.906,62.928,92.188,56.794,94.466z M62.073,78.291c0.836-4.423,1.455-9.29,1.854-14.364  c5.074-0.398,9.941-1.018,14.364-1.854c-0.794,4.518-2.025,8.756-3.613,12.604C70.829,76.266,66.591,77.497,62.073,78.291z   M82.362,61.21c4.926-1.164,9.094-2.641,12.104-4.416c-2.278,6.134-7.56,11.525-14.796,15.498  C80.849,68.812,81.758,65.1,82.362,61.21z M82.891,57.008c0.218-2.291,0.338-4.627,0.338-7.008c0-2.38-0.12-4.717-0.338-7.008  C91.09,45.114,95.716,47.808,95.716,50S91.09,54.886,82.891,57.008z M32.647,7.715c-4.079,3.745-7.578,8.764-10.245,14.687  c-5.923,2.667-10.942,6.167-14.687,10.245C12.356,21.376,21.376,12.356,32.647,7.715z M7.715,67.353  c3.745,4.078,8.764,7.578,14.687,10.245c2.667,5.924,6.167,10.942,10.245,14.688C21.376,87.644,12.356,78.624,7.715,67.353z   M67.353,92.285c4.078-3.745,7.578-8.764,10.245-14.688c5.924-2.667,10.942-6.167,14.688-10.245  C87.644,78.624,78.624,87.644,67.353,92.285z"/>
</svg>