<svg xmlns:dc="http://purl.org/dc/elements/1.1/" xmlns:cc="http://creativecommons.org/ns#" xmlns:rdf="http://www.w3.org/1999/02/22-rdf-syntax-ns#" xmlns:svg="http://www.w3.org/2000/svg" xmlns="http://www.w3.org/2000/svg" xmlns:sodipodi="http://sodipodi.sourceforge.net/DTD/sodipodi-0.dtd" xmlns:inkscape="http://www.inkscape.org/namespaces/inkscape" version="1.0" id="Capa_1" x="0px" y="0px" width="100px" height="100px" viewBox="0 0 100 100" enable-background="new 0 0 100 100" xml:space="preserve" inkscape:version="0.48.2 r9819" sodipodi:docname="star.svg"><metadata id="metadata13"><rdf:RDF><cc:Work rdf:about=""><dc:format>image/svg+xml</dc:format><dc:type rdf:resource="http://purl.org/dc/dcmitype/StillImage"/><dc:title/></cc:Work></rdf:RDF></metadata><defs id="defs11"/><sodipodi:namedview pagecolor="#ffffff" bordercolor="#666666" borderopacity="1" objecttolerance="10" gridtolerance="10" guidetolerance="10" inkscape:pageopacity="0" inkscape:pageshadow="2" inkscape:window-width="1440" inkscape:window-height="838" id="namedview9" showgrid="false" inkscape:zoom="2.36" inkscape:cx="50" inkscape:cy="50" inkscape:window-x="-8" inkscape:window-y="-8" inkscape:window-maximized="1" inkscape:current-layer="Capa_1"/>
<g id="g3" transform="matrix(0.9279661,0,0,0.9279661,2.3305085,5.0847458)">
	<path d="M 49.998,100 C 22.429,100 0,77.57 0,49.998 0,22.429 22.429,0 49.998,0 77.57,0 100,22.429 100,49.998 100,77.57 77.57,100 49.998,100 z m 0,-90.909 C 27.442,9.091 9.091,27.442 9.091,49.998 9.091,72.556 27.442,90.91 49.998,90.91 72.556,90.91 90.91,72.556 90.91,49.998 90.91,27.442 72.556,9.091 49.998,9.091 z" id="path5" inkscape:connector-curvature="0" style="fill:#000000" inkscape:export-xdpi="90" inkscape:export-ydpi="90"/>
	<path d="M 29.119,78.442 33.107,55.196 16.216,38.729 39.559,35.336 49.997,14.182 60.437,35.336 83.785,38.729 66.89,55.196 70.883,78.442 49.998,67.466 z M 52.737726,54.683927 36.803603,52.295507 48.961475,24.312877 53.408402,55.289767 48.649443,44.529968 C 39.587062,86.357283 52.10234,32.430953 49.997,27.878 56.930422,85.931549 43.018832,50.91397 39.01679,47.725315 l 12.138018,-14.353356 1.24758,4.639548 -5.190726,8.804548 z" id="path7" inkscape:connector-curvature="0" style="fill:#000000" sodipodi:nodetypes="cccccccccccccccccccccc"/>
</g>
</svg>