<?xml version="1.0" encoding="utf-8"?>
<!-- Generator: Adobe Illustrator 14.0.0, SVG Export Plug-In . SVG Version: 6.00 Build 43363)  -->
<!DOCTYPE svg PUBLIC "-//W3C//DTD SVG 1.0//EN" "http://www.w3.org/TR/2001/REC-SVG-20010904/DTD/svg10.dtd">
<svg version="1.0" id="Layer_1" xmlns="http://www.w3.org/2000/svg" xmlns:xlink="http://www.w3.org/1999/xlink" x="0px" y="0px"
	 width="55.896px" height="100px" viewBox="0 0 55.896 100" enable-background="new 0 0 55.896 100" xml:space="preserve">
<path d="M23.481,16.728c4.607,0.361,8.647-3.081,9.014-7.687c0.357-4.615-3.093-8.65-7.697-9.015
	c-4.608-0.364-8.644,3.081-9.011,7.691C15.426,12.333,18.863,16.361,23.481,16.728"/>
<path d="M25.778,33.52c2.613,0.489,4.577,2.798,4.577,5.56c0,3.127-2.536,5.662-5.663,5.662H6.344c-1.984,0-3.593-1.607-3.593-3.595
	c0-0.481,0.095-0.943,0.265-1.361L5,35.154l22.096-15.827H16.566c-4.042-0.111-6.884,1.293-8.514,4.478
	c-1.106,2.145-6.969,15.246-6.969,15.246c-0.259,0.646-0.402,1.358-0.402,2.097c0,3.127,2.535,5.662,5.663,5.662h7.167
	l-2.113,13.903L0.273,92.857c-0.936,2.852,0.612,5.892,3.44,6.835c2.831,0.945,5.901-0.606,6.836-3.444l12.792-36.257
	c2.494,4.053,7.459,11.318,8.303,12.689c0.194,2.28,1.98,22.389,1.98,22.389c0.272,2.989,2.899,5.167,5.87,4.91
	c2.975-0.254,5.176-2.896,4.91-5.87l-2.103-23.664c-0.071-0.843-0.344-1.649-0.786-2.363l-9.195-14.905l1.463-18.703
	c0,0,2.178,7.401,2.341,7.938c0.467,1.526,1.521,2.622,2.601,3.497c0.633,0.503,11.365,7.81,11.365,7.81
	c0.6,0.275,1.086,0.519,1.726,0.562c2.076,0.172,3.899-1.382,4.066-3.464c0.103-1.334-0.493-2.549-1.477-3.309
	c0,0-10.695-7.343-11.131-7.663c-0.354-0.267-0.634-0.735-0.705-0.98l-4.233-15.246c-0.688-2.307-3.012-4.291-5.952-4.291h-1.266
	L25.778,33.52z"/>
<path d="M24.693,42.673c1.984,0,3.593-1.607,3.593-3.595c0-1.85-1.409-3.359-3.209-3.553l-2.624,7.17L24.693,42.673z"/>
</svg>
