<svg xmlns="http://www.w3.org/2000/svg" xmlns:xlink="http://www.w3.org/1999/xlink" version="1.1" id="Ebene_1" x="0px" y="0px" width="100px" height="100px" viewBox="0 0 100 100" style="enable-background:new 0 0 100 100;" xml:space="preserve">
<style type="text/css">

	.st0{fill:#FFFFFF;}

</style>
<path d="M33.57373,99.90723c-4.64453,0-8.41064-3.8418-8.41064-8.58203V9.33691c0-4.73828,3.76611-8.57959,8.41064-8.57959h33.50635  c4.64453,0,8.41211,3.84131,8.41211,8.57959V91.3252c0,4.74023-3.76758,8.58203-8.41211,8.58203 M25.0957,29.16895  c0,0-0.54785-0.00391-0.54785,0.29248v3.17676c0,0.17627,0.17383,0.34619,0.54785,0.34619V29.16895z M25.0957,20.25879  c0,0-0.54785-0.00195-0.54785,0.29248v3.17676c0,0.17627,0.17383,0.34668,0.54785,0.34668V20.25879z M25.11182,9.95703  c0,0-0.54785-0.00342-0.54785,0.29248v4.12598c0,0.17627,0.17334,0.34668,0.54785,0.34668V9.95703z M66.8457,0.69482  c0,0-0.00781-0.57227-0.30469-0.57227h-7.64453c-0.17578,0-0.33398,0.19873-0.33398,0.57227H66.8457z M50.24463,86.2832  c-0.4873,0-0.95654,0.07812-1.39795,0.21875c-1.85889,0.5918-3.20605,2.33203-3.20605,4.38672s1.34717,3.79297,3.20605,4.38672  c0.44141,0.14062,0.91064,0.21875,1.39795,0.21875c2.54248,0,4.60498-2.0625,4.60498-4.60547S52.78711,86.2832,50.24463,86.2832   M48.62549,91.75391v-1.73047c0-0.41602,0.33838-0.75391,0.75488-0.75391h1.729c0.41602,0,0.75391,0.33789,0.75391,0.75391v1.73047  c0,0.41602-0.33789,0.75391-0.75391,0.75391h-1.729C48.96387,92.50781,48.62549,92.16992,48.62549,91.75391 M51.5625,90.02344  c0-0.25-0.20312-0.45312-0.45312-0.45312h-1.729c-0.25049,0-0.45312,0.20312-0.45312,0.45312v1.73047  c0,0.24805,0.20264,0.45312,0.45312,0.45312h1.729c0.25,0,0.45312-0.20508,0.45312-0.45312V90.02344z M71.64844,16.9209H28.84082  v64.49219h42.80762V16.9209z M42.15576,7.31689c-0.70996,0-1.28613,0.57617-1.28613,1.28613s0.57617,1.28613,1.28613,1.28613  s1.28613-0.57617,1.28613-1.28613S42.86572,7.31689,42.15576,7.31689z M42.15576,8.14502  c-0.25293,0-0.45801,0.20508-0.45801,0.45801s0.20508,0.45801,0.45801,0.45801s0.45801-0.20508,0.45801-0.45801  S42.40869,8.14502,42.15576,8.14502z"/>
<path class="st0" d="M55.65234,8.48096c0,0.89355-0.86523,1.02832-1.0293,1.02832H47.2793  c-0.56689,0-1.02832-0.46045-1.02832-1.02832c0-0.56738,0.46143-1.02783,1.02832-1.02783c-0.16211,0,0.19971,0,0.38721,0  c0.16211,0,1.08789,0,1.25,0c-0.24316,0,1.3125,0,1.5625,0c0.24316,0,0.81982,0,1.06201,0l3.23828,0.01318  C55.52539,7.57764,55.65234,8.31738,55.65234,8.48096"/>
</svg>