<svg xmlns="http://www.w3.org/2000/svg" xmlns:xlink="http://www.w3.org/1999/xlink" version="1.1" id="Layer_1" x="0px" y="0px" width="100px" height="81.1881188119px" viewBox="0 0 101.582 82.889" enable-background="new 0 0 101.582 82.889" xml:space="preserve">
<path d="M95.979,12.856c-2.688-0.094-5.422,2.369-7.996,4.902l-44.333,44.36c-2.195,2.163-3.645,4.762-4.085,7.32  c-0.327,1.896-0.226,4.653,2.111,7.024l0.084,0.099l1.366,1.78l1.592,3.273c0.112-0.141,0.203-0.281,0.279-0.414  c0.445-0.529,1.338-1.346,3.229-2.363L89.01,44.267c4.545-4.479,11.276-14.125,12.073-22.695l-0.726-6.329  C98.869,13.696,97.432,12.909,95.979,12.856z"/>
<path d="M40.16,77.869c-4.963-5.096-2.74-12.509,2.034-17.215l43.074-43.097L47.263,7.329L4.748,46.268  c-4.942,4.032-5.68,11.31-1.646,16.251c0,0,8.321,9.149,14.059,11.698c5.085,2.263,21.113,7.632,25.638,8.171l-1.438-2.953  L40.16,77.869z M41.77,57.349l-9.604-2.897l4.085-3.562l9.407,2.611L41.77,57.349z M44.937,39.277l-3.886,3.849l-9.607-2.898  l4.087-3.562L44.937,39.277z M37.019,34.559l4.087-3.562l9.407,2.613l-3.888,3.849L37.019,34.559z M39.758,44.693l-3.886,3.85  l-9.608-2.897l4.088-3.563L39.758,44.693z M34.182,50.271l-3.887,3.848l-9.606-2.897l4.087-3.562L34.182,50.271z M47.347,51.773  l-9.606-2.898l4.087-3.562l9.406,2.612L47.347,51.773z M52.525,46.356l-9.606-2.897l4.087-3.562l9.406,2.612L52.525,46.356z   M58.102,40.688l-9.605-2.897l4.086-3.562l9.406,2.612L58.102,40.688z M46.793,11.767l31.545,8.762L65.305,33.434l-32.214-9.72  L46.793,11.767z M29.791,27.765l9.406,2.612l-3.887,3.849l-9.607-2.898L29.791,27.765z M24.215,33.434l9.406,2.612l-3.887,3.849  l-9.605-2.898L24.215,33.434z M19.036,38.851l9.407,2.612l-3.888,3.849l-9.606-2.898L19.036,38.851z M13.46,44.427l9.407,2.612  l-3.888,3.85L9.373,47.99L13.46,44.427z M32.613,68.166c-0.638,0.796-0.478,4.144-0.797,4.144  C14.713,69.314,5.529,62.269,3.777,61.155c-1.753-1.114,0.796-6.372,0.796-6.372s8.444,4.779,13.554,6.213  c5.11,1.435,13.85,3.824,14.486,4.144C33.249,65.458,33.251,67.369,32.613,68.166z"/>
<path d="M43.925,82.345l-0.079,0.036C43.876,82.373,43.903,82.359,43.925,82.345z"/>
<path d="M95.984,10.794c-0.137-0.016-0.271-0.023-0.404-0.023L64.584,1.839c-3.979-2.104-9-1.762-12.707,1.264l-2.811,2.574  l37.893,10.197C89.716,13.192,92.663,10.712,95.984,10.794z"/>
</svg>