<svg xmlns="http://www.w3.org/2000/svg" xmlns:xlink="http://www.w3.org/1999/xlink" version="1.1" x="0px" y="0px" width="100px" height="100px" viewBox="0 0 100 100" enable-background="new 0 0 100 100" xml:space="preserve">
<g id="Layer_1" display="none">
	<path display="inline" fill-rule="evenodd" clip-rule="evenodd" fill="#000000" d="M57.982,14.233l-0.593-2.188l3.373,3.947v1.697   c2.522,1.077,4.6,2.705,6.236,4.886c-0.723-0.177-1.397-0.327-2.025-0.45c-1.253-0.246-1.668-0.211-1.246,0.103   c0.463,0.367,1.321,1.847,2.576,4.437c1.187,2.494,1.895,4.219,2.126,5.172c0.178,0.737-0.121,2.965-0.898,6.687   c-0.382,1.867-0.783,3.653-1.207,5.357l-0.45,0.735c-0.162,0.437,0.13,0.531,0.879,0.286c0.737-0.245,1.193,0.015,1.37,0.778   c0.095,0.394,0.115,0.811,0.062,1.246l-1.391,4.846c-0.968,3.285-1.595,5.078-1.882,5.379c-0.299,0.298-0.749,0.319-1.35,0.06   c-0.313-0.081-0.49-0.286-0.532-0.613l0.083,0.92c-0.014,0.969-0.13,2.088-0.348,3.354c-0.231,1.269-0.907,2.766-2.023,4.498   l-2.169,2.537c-0.408,1.622-0.668,2.608-0.776,2.964c-0.041,0-0.062,0.02-0.062,0.061c-0.026,0.149-0.008,0.13,0.062-0.061   c0.245,0.015,1.282,0.947,3.107,2.8c1.064,1.052,2.113,2.135,3.149,3.253c15.416,5.139,25.456,8.416,30.118,9.835v7.831H6.333   v-3.19c1.322-0.382,2.618-0.723,3.885-1.021c1.063-0.831,4.151-2.577,9.262-5.235c2.48-1.308,4.873-2.536,7.177-3.681   c0-0.246,0-0.524,0-0.837c0-1.786,0.715-3.45,2.146-4.988c0.709-0.767,1.417-1.35,2.127-1.761c0.612-0.587,1.056-1.31,1.328-2.168   c0.218-0.682,0.443-1.13,0.675-1.348c-0.558-1.35-1.335-2.42-2.33-3.212c-1.65-1.336-2.815-3.646-3.498-6.93   c-0.218-1.038-0.375-2.101-0.47-3.19l-0.062-1.35c-0.967,0.341-1.642,0.457-2.023,0.348c-0.382-0.109-0.934-1.629-1.656-4.56   c-0.791-3.176-1.111-5.732-0.961-7.668c0.136-1.786,0.743-2.645,1.819-2.576c0.532,0.042,1.042,0.26,1.534,0.654   c-0.341-1.077-0.695-2.263-1.064-3.558c-0.735-2.576-1.137-4.621-1.205-6.134c-0.069-1.445,0.708-3.633,2.331-6.564   c0.395-0.708,0.919-1.635,1.574-2.781c0.422-0.804,0.579-1.26,0.47-1.37c-0.176-0.191-0.176-0.435,0-0.736   c0.259-0.422,0.403-0.708,0.43-0.858c0.067-0.504,0.661-1.036,1.779-1.596c0.451-0.231,2.611-1.411,6.481-3.536l0.409-0.594   l-1.084-0.675l-0.756-1.349l-0.593-1.513l3.373,0.715l-0.757-0.206l1.35-0.264c0.327-0.342,0.436-0.512,0.327-0.512l0.082-0.737   l0.592,0.409l0.512-0.163l0.491-0.941l0.246,0.654c0.189,0.505,0.395,0.961,0.613,1.37c0.191,0.382,0.361,0.607,0.512,0.675   c0.272,0.123,0.49,0.266,0.653,0.429c0.288,0.273,0.532,0.354,0.737,0.246c0.096-0.054,0.164-0.136,0.204-0.246   c-0.286-0.504-0.573-0.899-0.858-1.185c-0.163-0.178-0.313-0.471-0.45-0.88l-0.123-0.552l1.431,0.592l1.269,1.104l1.512,0.083   l-0.674-0.92c0-0.34-0.145-0.653-0.429-0.94c-0.178-0.178,0.095-0.089,0.817,0.265c0.355,0.178,0.73,0.375,1.125,0.594l0.838,0.081   l0.53,0.225c0.396,0.218,0.75,0.45,1.064,0.695c0.329,0.246,0.552,0.095,0.675-0.45c0.095-0.682,0.157-1.098,0.183-1.247   c0.028-0.178,0.246-0.328,0.655-0.451c0.203-0.054,0.401-0.102,0.592-0.143l1.37,2.291c0.163,0.273,0.497,0.75,1.001,1.431   l0.309-0.245c0.203-0.191,0.271-0.389,0.203-0.594l-0.858-2.617l0.307,0.042c0.232,0.081,0.443,0.266,0.634,0.552   c0.273,0.436,0.92,1.526,1.943,3.271l1.164,2.024L57.982,14.233z"/>
</g>
<g id="Layer_1_copy" display="none">
	<g display="inline">
		<g>
			<path fill-rule="evenodd" clip-rule="evenodd" fill="#000000" d="M57.809,20.904l-0.511-1.888l2.908,3.404v1.463     c2.176,0.929,3.968,2.333,5.379,4.214c-0.623-0.152-1.205-0.281-1.747-0.388c-1.08-0.212-1.438-0.182-1.074,0.089     c0.399,0.316,1.139,1.593,2.222,3.826c1.022,2.151,1.633,3.639,1.833,4.461c0.153,0.635-0.104,2.557-0.774,5.768     c-0.329,1.61-0.675,3.15-1.041,4.62l-0.389,0.634c-0.14,0.377,0.112,0.458,0.759,0.247c0.635-0.211,1.029,0.013,1.181,0.671     c0.082,0.339,0.1,0.699,0.055,1.074l-1.199,4.18c-0.835,2.832-1.375,4.379-1.624,4.638c-0.257,0.258-0.646,0.276-1.163,0.052     c-0.271-0.07-0.423-0.246-0.459-0.528l0.071,0.793c-0.012,0.835-0.112,1.801-0.3,2.893c-0.199,1.094-0.782,2.385-1.744,3.879     l-1.871,2.188c-0.353,1.398-0.576,2.249-0.67,2.556c-0.035,0-0.054,0.017-0.054,0.053c-0.022,0.128-0.006,0.111,0.054-0.053     c0.211,0.013,1.106,0.817,2.68,2.415c0.918,0.906,1.823,1.841,2.717,2.805C76.341,79.401,85,82.229,89.021,83.453v6.753H13.265     v-2.751c1.141-0.33,2.257-0.623,3.35-0.882c0.917-0.716,3.58-2.223,7.988-4.515c2.14-1.128,4.203-2.188,6.19-3.174     c0-0.213,0-0.453,0-0.723c0-1.54,0.617-2.976,1.851-4.303c0.612-0.66,1.223-1.163,1.835-1.518     c0.528-0.507,0.911-1.129,1.146-1.87c0.188-0.587,0.382-0.974,0.582-1.162c-0.481-1.164-1.152-2.087-2.009-2.771     c-1.423-1.152-2.428-3.145-3.017-5.976c-0.188-0.895-0.323-1.812-0.405-2.752l-0.053-1.164c-0.834,0.294-1.416,0.395-1.745,0.3     c-0.33-0.094-0.806-1.404-1.429-3.932c-0.682-2.74-0.959-4.944-0.829-6.613c0.118-1.541,0.641-2.281,1.569-2.222     c0.458,0.036,0.899,0.224,1.323,0.564c-0.294-0.929-0.6-1.951-0.917-3.068c-0.634-2.221-0.981-3.985-1.04-5.29     c-0.06-1.246,0.611-3.134,2.011-5.661c0.34-0.611,0.792-1.41,1.357-2.398c0.364-0.693,0.5-1.087,0.405-1.182     c-0.152-0.165-0.152-0.375,0-0.634c0.223-0.364,0.347-0.611,0.37-0.741c0.058-0.435,0.571-0.893,1.534-1.376     c0.389-0.199,2.252-1.216,5.59-3.049l0.353-0.513l-0.935-0.582l-0.651-1.163l-0.512-1.305l2.909,0.617l-0.652-0.177l1.165-0.228     c0.282-0.295,0.376-0.441,0.282-0.441l0.071-0.635l0.51,0.353l0.441-0.141l0.424-0.812l0.212,0.564     c0.163,0.436,0.34,0.829,0.528,1.182c0.165,0.33,0.312,0.523,0.441,0.582c0.235,0.106,0.423,0.23,0.564,0.37     c0.248,0.236,0.459,0.306,0.635,0.212c0.082-0.046,0.142-0.117,0.176-0.212c-0.247-0.435-0.494-0.775-0.741-1.021     c-0.141-0.153-0.27-0.406-0.388-0.759l-0.106-0.476l1.235,0.511l1.094,0.952l1.304,0.071L46.699,17.5     c0-0.293-0.124-0.563-0.37-0.811c-0.154-0.153,0.083-0.077,0.704,0.229c0.307,0.153,0.63,0.324,0.971,0.512l0.724,0.069     l0.457,0.195c0.342,0.188,0.647,0.387,0.917,0.599c0.284,0.212,0.477,0.082,0.583-0.388c0.082-0.588,0.135-0.947,0.157-1.075     c0.024-0.153,0.213-0.283,0.565-0.389c0.175-0.046,0.346-0.087,0.511-0.123l1.182,1.975c0.141,0.235,0.429,0.647,0.863,1.234     l0.267-0.211c0.174-0.165,0.233-0.335,0.174-0.513l-0.739-2.257l0.265,0.036c0.2,0.07,0.382,0.229,0.546,0.476     c0.236,0.375,0.794,1.316,1.677,2.821l1.004,1.746L57.809,20.904z"/>
		</g>
		<path fill-rule="evenodd" clip-rule="evenodd" fill="#000000" stroke="#010101" stroke-width="6" stroke-miterlimit="10" d="    M92.173,78.231c0,6.963-5.646,12.608-12.608,12.608H21.942c-6.964,0-12.609-5.646-12.609-12.608V20.609    C9.333,13.645,14.979,8,21.942,8h57.622c6.963,0,12.608,5.645,12.608,12.609V78.231z"/>
	</g>
</g>
<g id="Layer_2" display="none">
	<polygon display="inline" fill="#000000" points="76.29,47.674 23,6.337 30.471,72.576 46.783,63.711 62.614,89.407 75.771,81.3    60.381,56.32  "/>
</g>
<g id="Layer_2_copy" display="none">
	<polygon display="inline" fill="#000000" stroke="#010101" stroke-width="5" stroke-miterlimit="10" points="76.29,50.674 23,9.337    30.471,75.576 46.783,66.711 62.614,92.407 75.771,84.3 60.381,59.32  "/>
</g>
<g id="Layer_5" display="none">
	<path display="inline" fill-rule="evenodd" clip-rule="evenodd" fill="#000000" d="M89.332,38l-2.045,1.589l2.706,0.438   l1.794-1.443L89.332,38z M84.482,40.139c-3.226-0.732-6.981-0.732-11.268,0c-4.285,0.732-8.057,1.901-11.312,3.506   c-3.258,1.604-4.89,3.686-4.897,6.241c-0.008,2.166,0.756,4.476,2.291,6.931c0.671,1.152,2.036,2.306,4.097,3.459   s5.475,1.461,10.244,0.924c3.311-0.764,6.011-2.069,8.099-3.916c2.097-1.854,3.884-4.99,5.365-9.408   C88.588,43.45,87.716,40.872,84.482,40.139z M53.457,43.424c5.821-2.789,11.994-4.869,18.52-6.242   c6.856-1.091,13.713-1.519,20.57-1.286c2.625,0.593,3.144,2.088,1.554,4.489l-0.386,0.456c-0.451,0.452-0.95,0.822-1.496,1.11   c-0.443,0.452-0.818,1.247-1.122,2.385c-1.052,4.862-3.062,9.022-6.03,12.482c-2.049,2.462-4.874,4.347-8.474,5.656   c-1.137,0.397-2.201,0.705-3.19,0.923c-0.989,0.211-2.867,0.219-5.633,0.024c-6.117-0.71-9.962-2.949-11.536-6.721   c-1.565-3.771-2.007-6.382-1.321-7.831c0.25-0.981-0.334-1.41-1.752-1.285c-1.816,0.283-3.624,0.283-5.424,0   c-1.419-0.128-2.003,0.301-1.753,1.285c0.688,1.446,0.245,4.057-1.326,7.831c-1.572,3.774-5.415,6.015-11.53,6.721   c-2.769,0.19-4.646,0.181-5.633-0.029c-0.987-0.211-2.051-0.517-3.191-0.918c-3.597-1.308-6.422-3.193-8.473-5.656   c-2.967-3.457-4.977-7.617-6.031-12.482c-0.303-1.138-0.679-1.933-1.127-2.385c-0.544-0.288-1.041-0.658-1.491-1.11l-0.386-0.456   c-1.59-2.402-1.072-3.898,1.555-4.489c6.856-0.236,13.713,0.193,20.57,1.286c6.591,1.388,12.824,3.493,18.699,6.317   c0.992,0.188,1.967,0.287,2.923,0.298c0.821,0.011,1.739-0.088,2.752-0.298C53.349,43.473,53.403,43.447,53.457,43.424z    M13.609,39.589L11.564,38l-2.455,0.584l1.806,1.455L13.609,39.589z M27.681,40.139c-4.283-0.734-8.04-0.734-11.272,0   c-3.233,0.736-4.105,3.315-2.618,7.737c1.486,4.421,3.274,7.555,5.364,9.402c2.091,1.849,4.793,3.155,8.105,3.922   c4.765,0.538,8.193,0.243,10.285-0.883c2.094-1.126,3.511-2.293,4.254-3.5c1.4-2.454,2.098-4.765,2.092-6.931   c-0.007-2.557-1.64-4.637-4.897-6.241C35.737,42.04,31.965,40.872,27.681,40.139z"/>
</g>
<g id="Layer_7" display="none">
	<path display="inline" fill-rule="evenodd" clip-rule="evenodd" fill="#000000" d="M34.881,3.315c-0.011,0.001-0.021,0.001-0.032,0   c-0.957,0.117-1.356,0.566-1.198,1.348c-0.001,0.036-0.001,0.072,0,0.107c-0.265,6.437-0.411,12.856-0.438,19.261   c-0.114,18.833,0.72,37.538,2.503,56.114c0.072,2.511,0.7,4.579,1.883,6.206c1.341,1.884,3.425,3.167,6.25,3.853   c0.442,0.1,0.884,0.192,1.327,0.278c2.754,0.371,5.493,0.471,8.218,0.3c2.098-0.144,4.182-0.45,6.25-0.921   c5.25-1.284,7.961-4.637,8.132-10.059c2.395-24.947,3.079-50.136,2.055-75.567c0.189-0.546-0.242-0.853-1.295-0.92   c-5.776,0.304-11.573,0.469-17.389,0.492C45.746,3.817,40.324,3.654,34.881,3.315z M32.227,15.77l0.578-9.887   C32.363,3.4,33.304,2.331,35.63,2.672l16.222,0.407l16.222-0.407c2.326-0.342,3.269,0.728,2.825,3.211l0.407,10.122   c0.09,0.337,0.189,2.723,0.3,7.159c0.108,4.434,0.017,10.593-0.278,18.48l-1.755,50.935c-0.015,2.025-1.17,3.066-3.467,3.124   H37.599c-2.297-0.058-3.453-1.099-3.467-3.124l-1.755-50.935c-0.328-5.821-0.492-11.692-0.492-17.613   C31.871,21.396,31.985,18.642,32.227,15.77z"/>
</g>
<g id="Layer_6" display="none">
	<path display="inline" fill-rule="evenodd" clip-rule="evenodd" fill="#000000" d="M48.985,23.405   c-0.165,0.165-0.254,0.364-0.268,0.597v0.021c0,0.013,0,0.027,0,0.041c0,0.261,0.09,0.48,0.268,0.659   c0.178,0.179,0.397,0.267,0.658,0.267s0.48-0.088,0.659-0.267c0.177-0.178,0.267-0.398,0.267-0.659c0-0.027,0-0.048,0-0.062   c-0.014-0.232-0.103-0.432-0.267-0.597c-0.179-0.178-0.398-0.268-0.659-0.268S49.163,23.227,48.985,23.405z M45.652,24.495   c-0.082-0.068-0.178-0.103-0.287-0.103c-0.11,0-0.199,0.035-0.268,0.103c-0.084,0.068-0.124,0.151-0.124,0.247v0.042   c0,0.109,0.04,0.198,0.124,0.267c0.068,0.083,0.157,0.123,0.268,0.123c0.109,0,0.205-0.041,0.287-0.123   c0.068-0.069,0.103-0.158,0.103-0.267c0-0.014,0-0.028,0-0.042C45.755,24.646,45.721,24.563,45.652,24.495z M44.006,21.471   c-0.26,0-0.479,0.09-0.658,0.268c-0.165,0.165-0.254,0.363-0.268,0.597v0.02c0,0.014,0,0.028,0,0.042   c0,0.261,0.09,0.48,0.268,0.659c0.18,0.178,0.398,0.267,0.658,0.267c0.261,0,0.48-0.089,0.658-0.267   c0.18-0.178,0.268-0.398,0.268-0.659c0-0.028,0-0.048,0-0.062c-0.014-0.234-0.102-0.432-0.268-0.597   C44.486,21.561,44.267,21.471,44.006,21.471z M46.897,21.285c-0.007,0.025-0.011,0.052-0.011,0.082v0.042   c0,0.109,0.041,0.199,0.123,0.268c0.068,0.082,0.158,0.124,0.268,0.124s0.207-0.042,0.289-0.124   c0.067-0.069,0.102-0.158,0.102-0.268c0-0.014,0-0.027,0-0.042c0-0.033-0.003-0.064-0.01-0.092l0.874-0.021   c-0.082-0.143-0.123-0.304-0.123-0.484c0-0.013,0-0.027,0-0.041v-0.021c0.014-0.233,0.104-0.432,0.268-0.597   c0.179-0.178,0.398-0.268,0.658-0.268s0.48,0.089,0.659,0.268c0.164,0.165,0.252,0.364,0.267,0.597c0,0.014,0,0.034,0,0.062   c0,0.167-0.038,0.318-0.113,0.453l2.212-0.042c0.008-0.242,0.098-0.447,0.268-0.617c0.179-0.179,0.398-0.268,0.659-0.268   c0.259,0,0.479,0.089,0.658,0.268c0.163,0.164,0.253,0.362,0.267,0.596h0.947c0.013-0.233,0.103-0.432,0.267-0.596   c0.179-0.179,0.398-0.268,0.658-0.268c0.262,0,0.479,0.089,0.659,0.268c0.164,0.165,0.254,0.363,0.268,0.596h2.509v0.021   c0,0.014,0,0.028,0,0.042c0,0.177,0.042,0.334,0.124,0.473c-0.013,0-0.027,0-0.041,0c-0.138,0-0.254,0.048-0.35,0.145   c-0.096,0.096-0.145,0.219-0.145,0.37c0,0.137,0.049,0.254,0.145,0.35c0.096,0.096,0.212,0.145,0.35,0.145   c0.15,0,0.274-0.048,0.37-0.145c0.096-0.096,0.145-0.212,0.145-0.35c0-0.042-0.004-0.083-0.012-0.124   c0.104,0.042,0.218,0.062,0.341,0.062c0.261,0,0.48-0.089,0.658-0.268s0.268-0.397,0.268-0.658c0-0.028,0-0.048,0-0.062h0.597   c0.019-0.237,0.106-0.437,0.268-0.596c0.178-0.179,0.397-0.268,0.658-0.268s0.48,0.089,0.658,0.268   c0.164,0.165,0.254,0.363,0.268,0.596h1.584c0.553,0.088,0.854,0.294,0.906,0.617c-0.06-5.312-0.197-10.634-0.412-15.966   c0.179-0.521-0.233-0.815-1.235-0.884c-5.555,0.288-11.13,0.446-16.727,0.473C42.751,5.417,37.539,5.259,32.3,4.929h-0.021   c-0.934,0.11-1.316,0.542-1.152,1.296c-0.014,0.042-0.014,0.076,0,0.103c-0.235,5.593-0.376,11.175-0.422,16.748   c0.025-0.837,0.372-1.351,1.039-1.543l9.496-0.154c-0.035-0.102-0.053-0.208-0.053-0.319c0-0.014,0-0.028,0-0.042v-0.02   c0.014-0.233,0.104-0.432,0.268-0.596c0.178-0.179,0.397-0.268,0.658-0.268c0.262,0,0.48,0.089,0.659,0.268   c0.164,0.165,0.253,0.363,0.267,0.596c0,0.014,0,0.034,0,0.062c0,0.101-0.014,0.196-0.041,0.288L46.897,21.285z M38.533,22.994   c-0.178-0.179-0.397-0.268-0.658-0.268c-0.26,0-0.48,0.089-0.658,0.268c-0.164,0.164-0.254,0.363-0.268,0.596v0.021   c0,0.014,0,0.027,0,0.042c0,0.11,0.021,0.219,0.062,0.329c0.015,0.055,0.034,0.11,0.062,0.165c0.042,0.055,0.09,0.109,0.145,0.164   c0.178,0.179,0.398,0.268,0.658,0.268c0.261,0,0.48-0.088,0.658-0.268c0.068-0.068,0.124-0.137,0.166-0.205   c0.026-0.055,0.047-0.11,0.061-0.165c0.027-0.097,0.041-0.192,0.041-0.288c0-0.027,0-0.049,0-0.062   C38.787,23.357,38.699,23.158,38.533,22.994z M58.655,16.451c0.096-0.096,0.213-0.144,0.35-0.144c0.151,0,0.275,0.048,0.371,0.144   c0.096,0.096,0.143,0.22,0.143,0.371c0,0.137-0.047,0.254-0.143,0.35c-0.096,0.096-0.22,0.144-0.371,0.144   c-0.137,0-0.254-0.047-0.35-0.144c-0.096-0.096-0.144-0.213-0.144-0.35C58.512,16.67,58.56,16.546,58.655,16.451z M56.351,18.549   c0.178-0.179,0.397-0.268,0.659-0.268c0.26,0,0.479,0.089,0.657,0.268c0.179,0.178,0.269,0.397,0.269,0.658s-0.09,0.48-0.269,0.658   c-0.178,0.178-0.397,0.268-0.657,0.268c-0.262,0-0.481-0.09-0.659-0.268s-0.268-0.397-0.268-0.658S56.173,18.728,56.351,18.549z    M52.215,19.434c0.098,0.096,0.145,0.219,0.145,0.371c0,0.137-0.047,0.254-0.145,0.35c-0.096,0.096-0.218,0.144-0.369,0.144   c-0.138,0-0.255-0.047-0.35-0.144c-0.098-0.096-0.145-0.213-0.145-0.35c0-0.151,0.047-0.275,0.145-0.371   c0.095-0.096,0.212-0.145,0.35-0.145C51.997,19.29,52.119,19.338,52.215,19.434z M54.438,23.24   c-0.328,0.315-0.508,0.707-0.535,1.173v0.041c0,0.027,0,0.055,0,0.082c0,0.044,0.004,0.089,0.011,0.134   c-0.128-0.062-0.269-0.093-0.422-0.093c-0.262,0-0.479,0.089-0.658,0.268c-0.165,0.164-0.253,0.37-0.269,0.617   c0,0.014,0,0.027,0,0.041c0,0.261,0.09,0.48,0.269,0.659c0.179,0.178,0.396,0.268,0.658,0.268c0.26,0,0.48-0.089,0.658-0.268   c0.112-0.113,0.188-0.243,0.227-0.391c0.021,0.022,0.042,0.042,0.062,0.062c0.343,0.343,0.774,0.514,1.296,0.514   c0.508,0,0.939-0.17,1.296-0.514c0.124-0.137,0.227-0.274,0.31-0.412c0.055-0.109,0.096-0.219,0.124-0.329   c0.054-0.191,0.081-0.377,0.081-0.556c0-0.055,0-0.096,0-0.123c-0.008-0.148-0.032-0.289-0.072-0.422   c0.195-0.03,0.362-0.116,0.505-0.257c0.178-0.178,0.268-0.398,0.268-0.658c0-0.261-0.09-0.48-0.268-0.658   c-0.179-0.179-0.397-0.268-0.659-0.268c-0.261,0-0.479,0.089-0.657,0.268c-0.121,0.119-0.199,0.257-0.237,0.411   c-0.212-0.083-0.442-0.123-0.689-0.123C55.212,22.706,54.78,22.884,54.438,23.24z M52.668,22.252   c-0.082-0.068-0.178-0.103-0.288-0.103c-0.109,0-0.199,0.034-0.268,0.103c-0.055,0.042-0.089,0.096-0.103,0.165   c-0.013,0.027-0.021,0.055-0.021,0.082v0.042c0,0.109,0.041,0.199,0.123,0.267c0.068,0.083,0.158,0.123,0.268,0.123   c0.11,0,0.206-0.041,0.288-0.123c0.068-0.068,0.104-0.158,0.104-0.267c0-0.014,0-0.028,0-0.042c0-0.027,0-0.055,0-0.082   C52.743,22.349,52.709,22.294,52.668,22.252z M59.107,20.709c-0.097,0.096-0.219,0.144-0.37,0.144c-0.138,0-0.254-0.048-0.35-0.144   s-0.144-0.212-0.144-0.35c0-0.151,0.048-0.274,0.144-0.37c0.096-0.096,0.212-0.145,0.35-0.145c0.151,0,0.273,0.049,0.37,0.145   c0.097,0.096,0.145,0.219,0.145,0.37C59.252,20.497,59.204,20.613,59.107,20.709z M29.748,16.903l0.556-9.505   c-0.425-2.386,0.479-3.415,2.716-3.086l15.595,0.391L64.21,4.312c2.237-0.329,3.141,0.7,2.716,3.086l0.391,9.731   c0.083,0.33,0.18,2.627,0.288,6.893c0.11,4.251,0.021,10.17-0.267,17.755L65.65,90.743c-0.014,1.948-1.124,2.949-3.333,3.005   H34.912c-2.207-0.056-3.318-1.057-3.332-3.005l-1.688-48.966c-0.315-5.596-0.473-11.24-0.473-16.932   C29.405,22.308,29.516,19.661,29.748,16.903z M43.76,27.458c-0.082-0.069-0.178-0.103-0.288-0.103s-0.199,0.033-0.268,0.103   c-0.082,0.069-0.124,0.151-0.124,0.247v0.041c0,0.109,0.042,0.199,0.124,0.268c0.068,0.082,0.157,0.123,0.268,0.123   s0.206-0.041,0.288-0.123c0.068-0.068,0.102-0.158,0.102-0.268c0-0.014,0-0.027,0-0.041C43.861,27.609,43.828,27.527,43.76,27.458z    M47.566,26.346c-0.11,0-0.2,0.035-0.268,0.103c-0.082,0.069-0.125,0.152-0.125,0.248v0.04c0,0.11,0.043,0.199,0.125,0.269   c0.067,0.082,0.157,0.123,0.268,0.123c0.109,0,0.205-0.041,0.287-0.123c0.068-0.069,0.104-0.158,0.104-0.269   c0-0.013,0-0.027,0-0.04c0-0.096-0.035-0.179-0.104-0.248C47.771,26.381,47.676,26.346,47.566,26.346z M38.699,26.388   c0-0.096-0.035-0.178-0.104-0.247c-0.082-0.068-0.179-0.103-0.288-0.103c-0.11,0-0.2,0.035-0.268,0.103   c-0.082,0.069-0.124,0.151-0.124,0.247v0.042c0,0.109,0.042,0.198,0.124,0.268c0.067,0.082,0.157,0.123,0.268,0.123   c0.109,0,0.206-0.041,0.288-0.123c0.068-0.069,0.104-0.158,0.104-0.268C38.699,26.415,38.699,26.401,38.699,26.388z M62.358,14.311   c0.179,0.179,0.274,0.398,0.288,0.659c0,0.014,0,0.034,0,0.062c0,0.302-0.097,0.548-0.288,0.741   c-0.206,0.192-0.452,0.288-0.74,0.288c-0.287,0-0.528-0.096-0.721-0.288c-0.205-0.192-0.308-0.438-0.308-0.741   c0-0.014,0-0.028,0-0.042c0.014-0.274,0.116-0.5,0.308-0.679c0.192-0.205,0.434-0.309,0.721-0.309   C61.906,14.002,62.152,14.105,62.358,14.311z M64.375,17.191c0.096,0.096,0.144,0.219,0.144,0.37c0,0.137-0.048,0.254-0.144,0.35   c-0.096,0.096-0.22,0.144-0.37,0.144c-0.138,0-0.254-0.048-0.351-0.144c-0.096-0.096-0.144-0.213-0.144-0.35   c0-0.151,0.048-0.274,0.144-0.37c0.097-0.096,0.213-0.144,0.351-0.144C64.155,17.047,64.279,17.095,64.375,17.191z M60.383,18.549   c0.18-0.179,0.398-0.268,0.659-0.268s0.48,0.089,0.658,0.268c0.179,0.178,0.268,0.397,0.268,0.658s-0.089,0.48-0.268,0.658   c-0.178,0.178-0.397,0.268-0.658,0.268s-0.479-0.09-0.659-0.268c-0.178-0.178-0.267-0.397-0.267-0.658S60.205,18.728,60.383,18.549   z M62.955,18.426c0.097-0.096,0.213-0.145,0.35-0.145c0.151,0,0.275,0.048,0.371,0.145c0.096,0.096,0.144,0.219,0.144,0.37   c0,0.138-0.048,0.254-0.144,0.35s-0.22,0.144-0.371,0.144c-0.137,0-0.253-0.047-0.35-0.144c-0.096-0.096-0.144-0.212-0.144-0.35   C62.812,18.646,62.859,18.522,62.955,18.426z M63.511,22.561v0.021c0,0.014,0,0.028,0,0.042c0,0.261,0.089,0.48,0.268,0.659   c0.178,0.178,0.398,0.267,0.658,0.267s0.479-0.089,0.659-0.267c0.178-0.179,0.266-0.398,0.266-0.659c0-0.028,0-0.048,0-0.062   c-0.013-0.233-0.102-0.432-0.266-0.596c-0.18-0.179-0.399-0.268-0.659-0.268s-0.48,0.089-0.658,0.268   C63.613,22.129,63.524,22.328,63.511,22.561z M61.351,24.001c-0.261,0-0.48,0.089-0.658,0.267   c-0.164,0.166-0.254,0.371-0.268,0.617c0,0.015,0,0.028,0,0.042c0,0.26,0.089,0.479,0.268,0.657   c0.178,0.179,0.397,0.268,0.658,0.268s0.479-0.089,0.658-0.268c0.179-0.178,0.268-0.397,0.268-0.657c0-0.027,0-0.048,0-0.062   c-0.013-0.233-0.103-0.432-0.268-0.597C61.83,24.091,61.611,24.001,61.351,24.001z"/>
</g>
<g id="Layer_8">
	<path fill-rule="evenodd" clip-rule="evenodd" fill="#000000" d="M34.708,4.775c-0.64,0.034-0.952,0.413-0.935,1.137L29.25,45.637   c0,0.101,0.008,0.202,0.025,0.303c0.624,7.784,5.231,13.048,13.823,15.793c2.494,0.607,4.785,0.928,6.874,0.961   c2.089-0.033,4.372-0.354,6.848-0.961c8.592-2.745,13.199-8.01,13.823-15.793c0.017-0.101,0.025-0.202,0.025-0.303L66.168,6.115   l0.025-0.252c0-0.64-0.311-1.062-0.935-1.264L34.708,4.775z M32.458,6.595c0.168-1.601,0.606-2.443,1.314-2.527   c0.69-0.101,1.146-0.126,1.364-0.076h29.945c0.32,0,0.801,0.135,1.44,0.404c0.624,0.253,0.935,0.986,0.935,2.199l4.727,37.424   c0.32,8.945-3.825,16.257-12.434,21.935c-4.061,1.685-5.988,4.742-5.787,9.173l0.102,10.386c-0.135,2.19,0.361,3.689,1.49,4.498   c4.178,0.91,7.683,2.216,10.513,3.917l3.79,0.076c0.994,0.589,0.994,1.297,0,2.123H30.058c-0.994-0.826-0.994-1.534,0-2.123   l3.791-0.076c2.83-1.701,6.334-3.007,10.512-3.917c1.128-0.809,1.625-2.308,1.491-4.498l0.102-10.386   c0.201-4.431-1.727-7.488-5.787-9.173c-8.608-5.678-12.753-12.989-12.433-21.935L32.458,6.595z"/>
</g>
</svg>