<svg xmlns="http://www.w3.org/2000/svg" xmlns:xlink="http://www.w3.org/1999/xlink" version="1.1" x="0px" y="0px" width="100px" height="100px" viewBox="0 0 100 100" enable-background="new 0 0 100 100" xml:space="preserve">
<g id="Captions">
</g>
<g id="Your_Icon">
	<path d="M33.822,100h56.434c0,0-1.412-8.549-11.522-11.821c0,0,0.205-1.28,0.501-3.521c1.458-11.069,5.108-45.614-2.938-65.462   c-1.519-3.251-3.279-5.836-5.217-7.741c-2.807-2.767-5.746-5.075-8.876-6.758c-4.38-2.002-8.413-2.961-12.166-3.044   c-0.012,0-0.026-0.001-0.038-0.001c-0.013,0-0.025,0.001-0.038,0.001c-3.752,0.083-7.786,1.042-12.165,3.044   c-3.13,1.684-6.07,3.991-8.878,6.758c-1.935,1.905-3.697,4.489-5.216,7.74c-8.043,19.845-4.396,54.379-2.937,65.458   c0.295,2.246,0.501,3.527,0.501,3.527C11.158,91.451,9.745,100,9.745,100h16.603c4.184-0.867,9.679-2.755,15.035-4.831   c3.998-1.549,7.918-3.207,11.155-4.621c-8.474,1.694-14.319-2.815-14.319-2.815v-0.594c5.395-4.855,5.152-9.476,4.615-11.644   c1.924,0.972,3.673,1.62,5.018,1.974c0.563,0.134,1.688,0.32,2.817,0.042c0.001,0,0.004,0,0.006-0.002   c1.318-0.381,2.586-0.919,3.804-1.56c0.307-0.16,0.609-0.329,0.909-0.503c0.279-0.16,0.557-0.328,0.83-0.503   c-0.048,0.147-0.097,0.317-0.144,0.503c-0.04,0.157-0.079,0.322-0.112,0.503c-0.441,2.29-0.333,6.547,4.54,11.03l1.6,1.381   c-0.506,0.24-7.335,3.487-15.396,6.809C42.505,96.9,37.972,98.646,33.822,100z M61.162,69.001c-1.174,1.06-2.446,2.082-3.807,2.996   c-1.904,1.278-3.972,2.34-6.174,2.976c-0.003,0-0.005,0.001-0.005,0.001c-0.041,0.012-0.081,0.015-0.121,0.023   c-0.609,0.133-1.205,0.133-1.713,0.088c-0.506,0.045-1.104,0.045-1.712-0.088c-0.042-0.009-0.082-0.012-0.121-0.023   c-0.002,0-0.004-0.001-0.006-0.001c-2.198-0.636-4.27-1.697-6.172-2.976c-1.36-0.914-2.635-1.937-3.806-2.996   c-4.864-4.401-7.979-9.441-8.251-9.805c-0.447-0.595-4.61-2.529-5.949-4.016c-0.445-2.379,1.487-6.726,1.487-6.726l3.717,5.982   c-5.186-18.087,15.645-28.984,20.1-31.083c0,0,0.766-3.653,0.864-5.744l0.625,5.775c4.589,2.172,25.197,13.051,20.035,31.053   l3.719-5.982c0,0,1.933,4.347,1.486,6.726c-1.34,1.486-5.502,3.421-5.948,4.016C69.137,59.56,66.021,64.6,61.162,69.001z"/>
</g>
</svg>