<svg xmlns="http://www.w3.org/2000/svg" xmlns:xlink="http://www.w3.org/1999/xlink" version="1.1" x="0px" y="0px" width="100px" height="100px" viewBox="0 0 100 100" enable-background="new 0 0 100 100" xml:space="preserve">
<g id="Captions">
</g>
<g id="Your_Icon">
	<path d="M53.365,26.734v22.268l2.498,0.008V26.742C55.018,26.842,54.211,26.84,53.365,26.734z"/>
	<path d="M32.404,75.568c-0.057,17.908,8.999,24.314,17.492,24.34c8.492,0.029,17.59-6.322,17.645-24.23l0.019-18.756H32.42   L32.404,75.568z"/>
	<path d="M53.197,24.606c0.127,0.022,0.254,0.042,0.381,0.059l0.02-6.302c-0.148-0.015-0.297-0.033-0.445-0.054   c-2.962-0.445-5.584-2.191-7.157-4.731C46.212,19.745,48.87,23.844,53.197,24.606z"/>
	<path d="M55.662,24.671c0.127-0.016,0.256-0.033,0.381-0.055c4.332-0.736,7.018-4.818,7.275-10.983   c-1.59,2.529-4.223,4.258-7.189,4.684c-0.148,0.021-0.297,0.038-0.447,0.053L55.662,24.671z"/>
	<path d="M53.693,6.915c0.275-2.748,1.48-4.894,3.586-6.386c-0.838-0.288-1.705-0.434-2.582-0.437   c-2.701-0.008-5.19,1.311-6.72,3.544C49.303,3.924,51.891,4.738,53.693,6.915z"/>
	<path d="M61.498,12.603c0.162-0.251,0.314-0.516,0.459-0.812c0.131-0.267,0.246-0.54,0.344-0.811   c0.326-0.895,0.494-1.816,0.496-2.739c0.008-2.612-1.252-5.072-3.377-6.61c-1.711,0.89-3.695,2.731-3.707,6.484l-0.014,4.928   c0,0,0,0.007,0,0.01l-0.012,3.219c0.127-0.019,0.256-0.041,0.381-0.063C58.289,15.825,60.271,14.509,61.498,12.603z"/>
	<path d="M47.368,11.744c0.138,0.286,0.29,0.561,0.453,0.816c1.216,1.913,3.188,3.241,5.406,3.641   c0.125,0.023,0.252,0.045,0.379,0.066l0.012-3.22c0-0.086-0.004-0.169-0.006-0.251l-0.004-0.098   c-0.012-0.31-0.029-0.577-0.057-0.815c-0.031-0.264-0.074-0.529-0.135-0.814c-0.996-4.575-5.396-5.375-6.413-5.5   c-0.298,0.859-0.452,1.741-0.454,2.623c-0.003,0.923,0.157,1.846,0.478,2.742C47.126,11.209,47.24,11.484,47.368,11.744z"/>
	<path d="M65.52,40.726c0.002-0.864-0.133-1.717-0.398-2.535l-0.033-0.014c-1.215,0.155-6.557,1.193-6.576,7.386l-0.01,3.184   C62.508,48.199,65.506,44.791,65.52,40.726z"/>
	<path d="M43.119,21.646l0.01-3.182c0.019-6.219-5.313-7.272-6.525-7.43l-0.038,0.015c-0.271,0.817-0.41,1.67-0.413,2.532   C36.141,17.646,39.119,21.073,43.119,21.646z"/>
	<path d="M50.048,38.032c-1.679,2.683-4.47,4.424-7.635,4.736l-0.007,6.303c0.2-0.024,0.402-0.06,0.604-0.098   C47.206,48.136,49.794,44.071,50.048,38.032z"/>
	<path d="M39.725,48.961c0.202,0.042,0.402,0.075,0.604,0.102v-6.301c-3.162-0.332-5.94-2.091-7.603-4.784   C32.941,44.019,35.535,48.1,39.725,48.961z"/>
	<path d="M38.846,24.911c2.096,1.506,3.287,3.658,3.542,6.408c1.82-2.164,4.412-2.963,5.74-3.243   c-1.516-2.243-3.997-3.577-6.7-3.585C40.554,24.488,39.686,24.629,38.846,24.911z"/>
	<path d="M42.501,36.287c-0.029,0.238-0.048,0.506-0.06,0.814L42.436,37.2c-0.002,0.083-0.005,0.166-0.006,0.251l-0.01,3.222   c2.381-0.297,4.49-1.627,5.81-3.672c0.162-0.254,0.317-0.526,0.456-0.811c0.129-0.259,0.244-0.532,0.346-0.811   c0.326-0.894,0.492-1.817,0.495-2.738c0.003-0.882-0.144-1.764-0.437-2.625c-1.02,0.118-5.423,0.889-6.447,5.459   C42.582,35.75,42.535,36.016,42.501,36.287z"/>
	<path d="M34.097,36.144c0.146,0.298,0.293,0.564,0.453,0.814c1.306,2.054,3.406,3.397,5.788,3.709l0.009-3.221   c0-0.042,0.001-0.083,0.003-0.122l-0.002-0.236l0.014-4.581c0.012-3.766-1.954-5.618-3.652-6.515   c-2.143,1.523-3.422,3.979-3.43,6.596c-0.003,0.922,0.158,1.845,0.477,2.742C33.857,35.61,33.973,35.884,34.097,36.144z"/>
	<path d="M67.762,51.71l-0.057-0.009c-0.021-0.003-0.043-0.006-0.064-0.006H32.37c-0.022,0-0.044,0.006-0.065,0.01l-0.055,0.005   c-0.268,0.023-0.517,0.126-0.722,0.298c-0.305,0.253-0.481,0.621-0.481,1.008l-0.001,0.24c-0.001,0.383,0.173,0.752,0.477,1.008   c0.202,0.173,0.45,0.277,0.717,0.303l0.061,0.008c0.022,0.003,0.041,0.006,0.061,0.006l35.271-0.002   c0.02,0,0.041-0.004,0.063-0.007l0.061-0.007c0.264-0.025,0.516-0.127,0.719-0.297c0.305-0.254,0.48-0.62,0.482-1.007v-0.242   c0.002-0.385-0.172-0.754-0.475-1.009C68.275,51.84,68.027,51.735,67.762,51.71z"/>
</g>
</svg>