<svg xmlns="http://www.w3.org/2000/svg" xmlns:xlink="http://www.w3.org/1999/xlink" version="1.1" id="Layer_1" x="0px" y="0px" width="100px" height="85px" viewBox="0 0 100 85" enable-background="new 0 0 100 85" xml:space="preserve">
<path d="M100,57.918C100,62.382,96.383,66,91.92,66H79.08C74.617,66,71,62.382,71,57.918V8.082C71,3.619,74.617,0,79.08,0h12.84  C96.383,0,100,3.619,100,8.082V57.918z"/>
<path d="M64,56.918C64,61.382,60.383,65,55.921,65H43.079C38.617,65,35,61.382,35,56.918V24.082C35,19.619,38.617,16,43.079,16  h12.842C60.383,16,64,19.619,64,24.082V56.918z"/>
<path d="M29,59.918C29,64.382,25.383,68,20.92,68H8.08C3.617,68,0,64.382,0,59.918V42.082C0,37.619,3.617,34,8.08,34H20.92  c4.462,0,8.08,3.619,8.08,8.082V59.918z"/>
<path d="M100,80.958C100,83.19,98.191,85,95.961,85H4.039C1.809,85,0,83.19,0,80.958v-2.916C0,75.81,1.809,74,4.039,74h91.922  c2.23,0,4.039,1.81,4.039,4.042V80.958z"/>
</svg>