<?xml version="1.0" encoding="utf-8"?>
<!-- Generator: Adobe Illustrator 14.0.0, SVG Export Plug-In . SVG Version: 6.00 Build 43363)  -->
<!DOCTYPE svg PUBLIC "-//W3C//DTD SVG 1.0//EN" "http://www.w3.org/TR/2001/REC-SVG-20010904/DTD/svg10.dtd">
<svg version="1.0" id="Layer_1" xmlns="http://www.w3.org/2000/svg" xmlns:xlink="http://www.w3.org/1999/xlink" x="0px" y="0px"
	 width="100px" height="99.178px" viewBox="0 0 100 99.178" enable-background="new 0 0 100 99.178" xml:space="preserve">
<path d="M86.598,45.604c8.399,0,13.402,5.005,13.402,12.67v35.874c0,2.778-0.25,5.029-0.25,5.029h-9.967H61.388V64.311h-1.564
	l-7.12,10.624c-1.16,1.58-3.514,2.347-5.389,2.347H30.597c-2.778,0-5.03-2.25-5.03-5.024c0-2.77,2.252-4.956,5.03-4.956h15.205
	L56.348,51.35c2.531-3.857,7.216-5.696,11.451-5.696c0,11.217,2.796,15.964,7.85,15.964v18.647c-1.42,0.612-2.419,2.026-2.419,3.674
	c0,2.205,1.762,3.971,3.966,3.971c2.207,0,3.972-1.813,3.972-4.026c0-1.644-0.999-3.057-2.419-3.666V61.562
	C83.799,61.562,86.598,56.82,86.598,45.604"/>
<path d="M83.447,45.604c-0.089,11.5-2.077,13.013-6.251,13.013c-4.168,0-6.159-1.513-6.248-13.013H83.447z"/>
<path d="M77.127,19.708c6.336,0,11.472,5.137,11.472,11.477c0,6.334-5.136,11.474-11.472,11.474c-6.337,0-11.479-5.14-11.479-11.474
	C65.648,24.845,70.791,19.708,77.127,19.708"/>
<path d="M48.926,21.278c1.399,0,2.539-1.139,2.539-2.542c0-1.403-1.14-2.541-2.539-2.541c-1.406,0-2.542,1.137-2.542,2.541
	C46.384,20.139,47.52,21.278,48.926,21.278"/>
<path d="M30.761,7.27c1.998,0,3.62-1.62,3.62-3.621c0-1.999-1.622-3.623-3.62-3.623c-2.002,0-3.623,1.624-3.623,3.623
	C27.138,5.65,28.759,7.27,30.761,7.27"/>
<path d="M11.104,7.293c2.029,0,3.679-1.633,3.679-3.647C14.783,1.633,13.133,0,11.104,0C9.076,0,7.43,1.633,7.43,3.646
	C7.43,5.66,9.076,7.293,11.104,7.293"/>
<path d="M45.477,43.209c0,0.821,0.678,1.491,1.502,1.491c0.821,0,1.489-0.67,1.489-1.491v-8.914h1.166v8.914
	c0,0.821,0.668,1.491,1.492,1.491s1.499-0.67,1.499-1.491V26.548h1.152v5.649c0,0.615,0.496,1.114,1.109,1.114
	c0.615,0,1.098-0.5,1.098-1.114v-6.422c0-1.799-1.584-3.258-3.377-3.258c0,0-6.895,0.005-6.922,0.008l-2.23-0.217l-2.867-9.992
	c-1.157-4.031-4.53-3.903-4.53-3.903h-9.297c0,0-3.373-0.128-4.53,3.903l-1.502,5.234l-1.502-5.234
	c-1.156-4.031-4.53-3.903-4.53-3.903h-7.19c0,0-3.375-0.128-4.532,3.903L0.082,22.401c-0.279,0.939,0.183,1.819,1.006,2.057
	c0.823,0.233,1.727-0.338,1.942-1.092l2.812-9.829h1.375L3.104,30.554h3.637v12.088c0,0.997,0.801,1.805,1.796,1.805
	c1,0,1.814-0.808,1.814-1.805V30.554h1.522v12.088c0,0.997,0.804,1.805,1.803,1.805s1.807-0.808,1.807-1.805V30.554h3.575
	l-4.076-17.017h1.373l2.812,9.829c0.192,0.654,0.791,1.183,1.499,1.122c0.708,0.062,1.431-0.468,1.615-1.122l2.815-9.829h1.267
	v28.756c0,1.172,0.958,2.122,2.135,2.122c1.17,0,2.125-0.95,2.125-2.122V25.931h1.57v16.362c0,1.172,0.951,2.122,2.125,2.122
	s2.132-0.95,2.132-2.122V13.537h1.375l2.614,9.501c0.164,0.572,0.756,1.127,1.389,1.317l3.647,1.021V43.209z"/>
</svg>
