<svg xmlns="http://www.w3.org/2000/svg" xmlns:xlink="http://www.w3.org/1999/xlink" version="1.1" x="0px" y="0px" width="84.753px" height="100px" viewBox="-23.484 0 84.753 100" enable-background="new -23.484 0 84.753 100" xml:space="preserve">
<g id="Layer_1">
	<circle cx="31.854" cy="22.206" r="11.482"/>
</g>
<g id="Layer_2">
	<path d="M45.553,36.238l-27.377-0.015c-8.647,0-15.041,7.055-15.041,15.851V70.02h-21.078c-7.036,0-7.036,9.631,0,9.631H7.921   v-0.03c2.417,0.014,4.844-1.806,4.844-5.466V53.076h3.067l-0.005,37.547h32.659l0.014-37.547h3.004v32.216   c0,7.344,9.577,7.344,9.555,0V52.298C61.058,44.186,55.049,36.238,45.553,36.238z"/>
	<path d="M-11.684,40.553c-6.398,0-11.586,5.188-11.586,11.572c0,4.277,2.335,8.011,5.793,10.015v6.318h1.752v-4.519h1.565v4.519   h1.689v-4.519h1.565v4.519h1.698v-4.465h1.565v4.465h1.748V62.14c3.461-2.004,5.795-5.736,5.795-10.015   C-0.099,45.74-5.286,40.553-11.684,40.553z M-16.061,58.512c-1.783,0-3.229-1.445-3.229-3.229c0-1.779,1.446-3.221,3.229-3.221   c1.784,0,3.229,1.441,3.229,3.221C-12.831,57.066-14.277,58.512-16.061,58.512z M-13.59,61.809l1.907-3.3l1.905,3.3H-13.59z    M-7.298,58.512c-1.785,0-3.229-1.445-3.229-3.229c0-1.779,1.445-3.221,3.229-3.221c1.783,0,3.227,1.441,3.227,3.221   C-4.071,57.066-5.515,58.512-7.298,58.512z"/>
</g>
</svg>