<svg xmlns="http://www.w3.org/2000/svg" xmlns:xlink="http://www.w3.org/1999/xlink" version="1.1" id="Livello_1" x="0px" y="0px" width="100px" height="100px" viewBox="0 0 100 100" enable-background="new 0 0 100 100" xml:space="preserve">
<path d="M97.017,47.808c-0.913,0-2.49,0.317-3.994,0.479v-1.084c0-0.327-0.269-0.596-0.596-0.596c-0.332,0-0.601,0.269-0.601,0.596  v1.172c-1.558,0.063-1.885,0.029-2.759,0.029c-0.376,0-2.046,0-3.901,0c-0.371-8.359-3.647-16.191-9.346-22.329  c1.309-1.309,2.485-2.485,2.749-2.749c0.62-0.62,0.825-0.879,1.973-1.934l0.796,0.791c0.234,0.234,0.61,0.234,0.845,0  c0.229-0.234,0.229-0.61,0-0.84L81.45,20.61c1.177-0.952,2.52-1.846,3.164-2.49c0.786-0.786,2.051-2.163,0.649-3.564  c-1.406-1.406-2.783-0.142-3.569,0.645c-0.645,0.645-1.538,1.992-2.485,3.164l-0.767-0.762c-0.234-0.234-0.61-0.234-0.845,0  s-0.234,0.61,0,0.84l0.825,0.83c-1.055,1.147-1.313,1.357-1.929,1.973c-0.264,0.264-1.45,1.445-2.759,2.759  c-6.172-5.649-14.028-8.872-22.397-9.18c0-1.851,0-3.521,0-3.892c0-0.874-0.039-1.201,0.029-2.764h1.123  c0.327,0,0.596-0.264,0.596-0.596c0-0.327-0.269-0.596-0.596-0.596h-1.035c0.156-1.504,0.479-3.081,0.479-3.994  C51.934,1.87,51.855,0,49.868,0s-2.065,1.87-2.065,2.983c0,0.913,0.322,2.49,0.479,3.994h-1.079c-0.332,0-0.596,0.269-0.596,0.596  c0,0.332,0.264,0.596,0.596,0.596h1.167c0.068,1.563,0.029,1.89,0.029,2.764c0,0.371,0,2.046,0,3.901  c-8.359,0.371-16.191,3.647-22.329,9.346c-1.309-1.309-2.485-2.485-2.749-2.749c-0.62-0.62-0.879-0.825-1.934-1.973l0.796-0.796  c0.229-0.234,0.229-0.61,0-0.845c-0.234-0.234-0.61-0.234-0.845,0l-0.732,0.732c-0.947-1.172-1.841-2.52-2.485-3.164  c-0.786-0.786-2.163-2.051-3.569-0.649c-1.401,1.406-0.137,2.783,0.649,3.569c0.645,0.645,1.987,1.538,3.164,2.49l-0.767,0.762  c-0.229,0.234-0.229,0.61,0,0.845c0.234,0.229,0.61,0.229,0.845,0l0.825-0.825c1.152,1.055,1.357,1.309,1.978,1.934  c0.264,0.259,1.445,1.445,2.754,2.754c-5.645,6.172-8.867,14.028-9.18,22.397c-1.846,0-3.516,0-3.887,0  c-0.874,0-1.206,0.034-2.764-0.029V47.51c0-0.327-0.269-0.596-0.596-0.596c-0.332,0-0.596,0.269-0.596,0.596v1.035  c-1.504-0.161-3.086-0.479-3.999-0.479C1.865,48.066,0,48.145,0,50.132c0,1.982,1.865,2.065,2.979,2.065  c0.913,0,2.495-0.322,3.999-0.483v1.084c0,0.332,0.264,0.596,0.596,0.596c0.327,0,0.596-0.264,0.596-0.596v-1.167  c1.558-0.068,1.89-0.034,2.764-0.034c0.371,0,2.046,0,3.896,0c0.371,8.359,3.652,16.191,9.351,22.334  c-1.309,1.309-2.49,2.485-2.749,2.749c-0.62,0.62-0.83,0.874-1.978,1.929l-0.791-0.791c-0.234-0.234-0.615-0.234-0.845,0  c-0.234,0.234-0.234,0.61,0,0.845l0.732,0.732c-1.177,0.952-2.52,1.841-3.164,2.485c-0.791,0.786-2.056,2.168-0.649,3.569  c1.401,1.401,2.783,0.137,3.569-0.649c0.645-0.645,1.533-1.987,2.485-3.164l0.767,0.762c0.229,0.234,0.61,0.234,0.84,0  c0.234-0.229,0.234-0.605,0-0.84l-0.825-0.83c1.055-1.143,1.313-1.353,1.934-1.973c0.264-0.264,1.445-1.445,2.754-2.754  c6.177,5.645,14.033,8.867,22.402,9.18c0,1.846,0,3.516,0,3.887c0,0.874,0.034,1.206-0.034,2.764H47.51  c-0.332,0-0.596,0.264-0.596,0.596s0.264,0.596,0.596,0.596h1.035c-0.161,1.504-0.479,3.086-0.479,3.994  c0,1.113,0.078,2.983,2.061,2.983c1.987,0,2.065-1.87,2.065-2.983c0-0.908-0.317-2.49-0.479-3.994h1.084  c0.327,0,0.596-0.264,0.596-0.596s-0.269-0.596-0.596-0.596h-1.172c-0.063-1.558-0.029-1.89-0.029-2.764c0-0.371,0-2.046,0-3.896  c8.359-0.371,16.191-3.652,22.329-9.351c1.309,1.309,2.49,2.485,2.749,2.749c0.62,0.62,0.879,0.83,1.934,1.978l-0.791,0.796  c-0.234,0.229-0.234,0.605,0,0.84c0.229,0.234,0.61,0.234,0.84,0l0.732-0.732c0.952,1.177,1.841,2.52,2.49,3.164  c0.786,0.791,2.163,2.051,3.564,0.649c1.406-1.401,0.142-2.778-0.645-3.569c-0.649-0.645-1.992-1.533-3.164-2.485l0.762-0.767  c0.234-0.234,0.234-0.605,0-0.84s-0.61-0.234-0.845,0l-0.825,0.825c-1.147-1.055-1.357-1.313-1.973-1.934  c-0.264-0.264-1.445-1.445-2.759-2.759c5.649-6.172,8.867-14.023,9.18-22.397c1.851,0,3.516,0,3.892,0  c0.874,0,1.201-0.034,2.759,0.034v1.118c0,0.327,0.269,0.601,0.601,0.601c0.327,0,0.596-0.273,0.596-0.601v-1.035  c1.504,0.161,3.081,0.483,3.994,0.483c1.113,0,2.983-0.083,2.983-2.07C100,47.886,98.13,47.808,97.017,47.808z M71.001,68.569  c-0.957-1.128-2.383-2.773-2.725-2.993c-0.522-0.347-0.938-0.073-1.714-0.854c-0.781-0.781-1.377-1.875-1.88-2.471  C64.18,61.66,63.75,61.67,63.75,61.67s0.205-0.415-0.112-0.732c-0.156-0.161-0.332-0.21-0.474-0.21c0-0.146-0.054-0.322-0.215-0.479  c-0.313-0.317-0.732-0.112-0.732-0.112s0.01-0.43-0.581-0.933c-0.596-0.503-1.689-1.099-2.471-1.875  c-0.776-0.781-0.508-1.191-0.854-1.719c-0.254-0.396-1.968-1.772-2.822-2.441c0.317-0.547,0.557-1.143,0.698-1.777  c1.094,0.127,3.203,0.356,3.657,0.264c0.615-0.127,0.713-0.61,1.816-0.61s2.3,0.352,3.071,0.415  c0.776,0.068,1.074-0.249,1.074-0.249s0.151,0.444,0.596,0.444c0.225,0,0.386-0.088,0.488-0.19c0.103,0.103,0.264,0.19,0.488,0.19  c0.444,0,0.596-0.444,0.596-0.444s0.298,0.317,1.074,0.249c0.776-0.063,1.968-0.415,3.071-0.415s1.201,0.483,1.816,0.61  c0.405,0.083,2.598-0.078,4.072-0.195C77.671,58.003,75.083,63.96,71.001,68.569z M28.999,31.431  c0.957,1.128,2.378,2.773,2.72,2.998c0.527,0.342,0.938,0.073,1.719,0.85c0.781,0.781,1.372,1.875,1.875,2.471  s0.938,0.581,0.938,0.581s-0.21,0.42,0.107,0.737c0.161,0.156,0.332,0.21,0.479,0.21c0,0.142,0.049,0.317,0.21,0.474  c0.317,0.322,0.732,0.112,0.732,0.112s-0.01,0.435,0.586,0.933c0.591,0.508,1.685,1.099,2.466,1.88s0.508,1.191,0.854,1.714  c0.259,0.396,1.973,1.772,2.822,2.441c-0.317,0.547-0.552,1.147-0.693,1.777c-1.099-0.127-3.208-0.352-3.657-0.259  c-0.62,0.127-0.718,0.61-1.821,0.61s-2.295-0.352-3.071-0.42c-0.776-0.063-1.074,0.249-1.074,0.249s-0.146-0.439-0.596-0.439  c-0.225,0-0.386,0.083-0.488,0.19c-0.103-0.107-0.259-0.19-0.483-0.19c-0.449,0-0.596,0.439-0.596,0.439s-0.303-0.313-1.074-0.249  c-0.776,0.068-1.968,0.42-3.071,0.42s-1.206-0.483-1.821-0.61c-0.4-0.083-2.598,0.073-4.072,0.195  C22.324,41.997,24.917,36.04,28.999,31.431z M60.137,37.783c0,0-0.435-0.015-0.938,0.581s-1.094,1.689-1.875,2.471  c-0.781,0.776-1.191,0.508-1.719,0.85c-0.391,0.259-1.768,1.973-2.441,2.822c-0.542-0.313-1.143-0.547-1.772-0.693  c0.127-1.094,0.352-3.203,0.259-3.657c-0.127-0.615-0.61-0.718-0.61-1.821s0.356-2.295,0.42-3.066  c0.063-0.776-0.249-1.074-0.249-1.074s0.439-0.151,0.439-0.596c0-0.225-0.083-0.386-0.186-0.488  c0.103-0.103,0.186-0.264,0.186-0.488c0-0.449-0.439-0.596-0.439-0.596s0.313-0.298,0.249-1.074c-0.063-0.771-0.42-1.968-0.42-3.071  s0.483-1.201,0.61-1.821c0.083-0.4-0.073-2.593-0.195-4.072c6.543,0.342,12.505,2.93,17.114,7.012  c-1.128,0.957-2.773,2.383-2.998,2.725c-0.342,0.522-0.073,0.938-0.854,1.714c-0.776,0.781-1.87,1.372-2.466,1.88  c-0.596,0.498-0.581,0.933-0.581,0.933s-0.42-0.21-0.737,0.112c-0.156,0.156-0.21,0.332-0.21,0.479  c-0.146-0.005-0.317,0.049-0.479,0.205C59.927,37.363,60.137,37.783,60.137,37.783z M48.086,26.06c0.127,0.62,0.61,0.718,0.61,1.821  s-0.352,2.3-0.42,3.071c-0.063,0.776,0.249,1.074,0.249,1.074s-0.439,0.146-0.439,0.596c0,0.225,0.083,0.386,0.19,0.488  c-0.107,0.103-0.19,0.264-0.19,0.488c0,0.444,0.439,0.596,0.439,0.596s-0.313,0.298-0.249,1.074c0.068,0.771,0.42,1.963,0.42,3.066  s-0.483,1.206-0.61,1.821c-0.098,0.464,0.142,2.642,0.269,3.721c-0.625,0.166-1.211,0.43-1.748,0.767  c-0.684-0.864-2.012-2.52-2.402-2.773c-0.522-0.342-0.938-0.073-1.714-0.854c-0.781-0.776-1.377-1.87-1.88-2.466  s-0.933-0.586-0.933-0.586s0.205-0.415-0.112-0.732c-0.156-0.156-0.332-0.21-0.474-0.21c0-0.146-0.054-0.317-0.215-0.479  c-0.313-0.317-0.732-0.107-0.732-0.107s0.01-0.435-0.581-0.938c-0.596-0.503-1.689-1.094-2.471-1.875  c-0.776-0.781-0.508-1.191-0.854-1.719c-0.225-0.342-1.875-1.772-3.008-2.729c4.58-4.131,10.518-6.772,17.051-7.168  C48.159,23.481,48.003,25.659,48.086,26.06z M26.06,51.914c0.615-0.127,0.718-0.61,1.821-0.61s2.295,0.352,3.071,0.42  c0.771,0.063,1.069-0.254,1.069-0.254s0.151,0.444,0.601,0.444c0.225,0,0.381-0.083,0.483-0.19c0.103,0.107,0.264,0.19,0.488,0.19  c0.449,0,0.596-0.444,0.596-0.444s0.298,0.317,1.074,0.254c0.776-0.068,1.968-0.42,3.071-0.42s1.201,0.483,1.821,0.61  c0.459,0.098,2.642-0.142,3.721-0.269c0.166,0.625,0.425,1.211,0.767,1.748c-0.869,0.684-2.52,2.012-2.773,2.402  c-0.347,0.522-0.073,0.938-0.854,1.714c-0.781,0.781-1.875,1.372-2.466,1.88c-0.596,0.498-0.586,0.933-0.586,0.933  s-0.415-0.21-0.732,0.112c-0.161,0.156-0.215,0.332-0.21,0.479c-0.146-0.005-0.322,0.049-0.479,0.205  c-0.317,0.317-0.112,0.737-0.112,0.737s-0.43-0.015-0.933,0.581s-1.099,1.689-1.875,2.471c-0.781,0.776-1.191,0.508-1.719,0.85  c-0.342,0.225-1.772,1.885-2.734,3.008c-4.126-4.57-6.768-10.508-7.168-17.046C23.481,51.841,25.659,51.997,26.06,51.914z   M34.424,68.281c0.347-0.527,0.073-0.938,0.854-1.719c0.781-0.776,1.875-1.372,2.466-1.875c0.596-0.503,0.586-0.933,0.586-0.933  s0.415,0.205,0.732-0.112c0.161-0.161,0.215-0.332,0.21-0.479c0.146,0.005,0.322-0.054,0.479-0.21  c0.317-0.317,0.112-0.732,0.112-0.732s0.43,0.01,0.933-0.586s1.099-1.685,1.875-2.466c0.781-0.781,1.191-0.513,1.719-0.854  c0.396-0.259,1.772-1.973,2.441-2.822c0.547,0.313,1.143,0.552,1.777,0.693c-0.127,1.094-0.356,3.208-0.264,3.657  c0.132,0.62,0.61,0.718,0.61,1.821s-0.352,2.295-0.415,3.071s0.249,1.069,0.249,1.069s-0.444,0.151-0.444,0.601  c0,0.225,0.088,0.386,0.19,0.483c-0.103,0.107-0.19,0.264-0.19,0.488c0,0.449,0.444,0.596,0.444,0.596s-0.313,0.303-0.249,1.074  c0.063,0.776,0.415,1.973,0.415,3.071c0,1.104-0.479,1.206-0.61,1.821c-0.083,0.4,0.078,2.598,0.2,4.072  c-6.548-0.337-12.505-2.93-17.114-7.012C32.559,70.044,34.199,68.623,34.424,68.281z M51.914,73.94  c-0.132-0.615-0.61-0.718-0.61-1.821c0-1.099,0.352-2.295,0.415-3.071c0.063-0.771-0.249-1.074-0.249-1.074s0.444-0.146,0.444-0.596  c0-0.225-0.088-0.381-0.19-0.488c0.103-0.098,0.19-0.259,0.19-0.483c0-0.449-0.444-0.601-0.444-0.601s0.313-0.293,0.249-1.069  s-0.415-1.968-0.415-3.071s0.479-1.201,0.61-1.821c0.093-0.459-0.146-2.642-0.273-3.716c0.63-0.171,1.216-0.43,1.748-0.771  c0.684,0.869,2.017,2.52,2.402,2.773c0.527,0.347,0.938,0.078,1.719,0.854c0.781,0.781,1.372,1.875,1.875,2.466  c0.503,0.596,0.938,0.586,0.938,0.586s-0.21,0.42,0.107,0.732c0.161,0.161,0.332,0.215,0.479,0.21c0,0.146,0.049,0.317,0.21,0.479  c0.317,0.317,0.732,0.112,0.732,0.112s-0.01,0.43,0.586,0.933c0.591,0.503,1.685,1.099,2.466,1.88  c0.781,0.776,0.508,1.191,0.854,1.714c0.225,0.347,1.88,1.772,3.008,2.729c-4.575,4.131-10.513,6.772-17.046,7.168  C51.836,76.519,51.997,74.341,51.914,73.94z M73.936,48.091c-0.615,0.127-0.713,0.605-1.816,0.605s-2.295-0.352-3.071-0.415  s-1.074,0.249-1.074,0.249s-0.151-0.439-0.596-0.439c-0.225,0-0.386,0.083-0.488,0.186c-0.103-0.103-0.264-0.186-0.488-0.186  c-0.444,0-0.596,0.439-0.596,0.439s-0.298-0.313-1.074-0.249c-0.771,0.063-1.968,0.415-3.071,0.415s-1.201-0.479-1.816-0.605  c-0.459-0.098-2.646,0.137-3.721,0.264c-0.166-0.625-0.43-1.211-0.767-1.743c0.864-0.684,2.52-2.017,2.773-2.402  c0.342-0.527,0.073-0.938,0.854-1.719c0.776-0.776,1.87-1.372,2.466-1.875s0.581-0.933,0.581-0.933s0.42,0.205,0.737-0.112  c0.156-0.161,0.21-0.332,0.21-0.479c0.146,0,0.317-0.054,0.479-0.21c0.317-0.317,0.107-0.732,0.107-0.732s0.435,0.01,0.938-0.586  s1.094-1.689,1.875-2.466c0.781-0.781,1.191-0.513,1.719-0.854c0.342-0.225,1.772-1.88,2.729-3.008  c4.126,4.575,6.772,10.513,7.168,17.051C76.519,48.159,74.336,48.003,73.936,48.091z"/>
</svg>