<svg xmlns="http://www.w3.org/2000/svg" xmlns:xlink="http://www.w3.org/1999/xlink" version="1.1" id="Layer_1" x="0px" y="0px" width="77.2727272727px" height="100px" viewBox="0 0 612 792" enable-background="new 0 0 612 792" xml:space="preserve">
<path fill="#000000" d="M179.221,269.221c-70.294,70.294-70.293,184.264,0,254.558s184.265,70.294,254.559,0  c70.293-70.293,70.293-184.265,0-254.558C363.485,198.927,249.514,198.928,179.221,269.221z M408.323,498.324  c-56.235,56.229-147.411,56.231-203.646,0c-56.236-56.235-56.235-147.413,0-203.647c56.236-56.236,147.411-56.235,203.647-0.001  C464.559,350.913,464.559,442.088,408.323,498.324z"/>
<g>
	<path fill="#000000" d="M243.5,324.5c0-9.9,7.168-14.228,15.929-9.617l139.143,73.233c8.761,4.611,8.761,12.156,0,16.767   L259.43,478.115c-8.761,4.609-15.929,0.284-15.929-9.616L243.5,324.5z"/>
</g>
</svg>