<svg xmlns="http://www.w3.org/2000/svg" xmlns:xlink="http://www.w3.org/1999/xlink" version="1.1" id="Layer_1" x="0px" y="0px" width="100px" height="100px" viewBox="0 0 100 100" enable-background="new 0 0 100 100" xml:space="preserve">
<path d="M75.086,14.5H25.91c-1.883,0-3.41,1.518-3.41,3.389V28.5h56V17.889C78.5,16.018,76.973,14.5,75.086,14.5z M44.5,22.5h-16v-2  h16V22.5z M69.498,24.5c-1.658,0-2.998-1.343-2.998-2.999c0-1.655,1.34-3.001,2.998-3.001c1.656,0,3.002,1.346,3.002,3.001  C72.5,23.157,71.154,24.5,69.498,24.5z"/>
<g>
	<path d="M50.625,43.115c-6.697,0-12.125,5.43-12.125,12.127c0,2.725,0.911,5.232,2.43,7.258l21.57-9.707   C61.367,47.269,56.482,43.115,50.625,43.115z"/>
</g>
<g>
	<path d="M22.5,30.5v52.611c0,1.873,1.492,3.389,3.326,3.389h49.346c1.84,0,3.328-1.516,3.328-3.389V30.5H22.5z M50.502,72.5   c-9.943,0-18.002-8.061-18.002-18c0-9.94,8.059-18,18.002-18c9.939,0,17.998,8.06,17.998,18C68.5,64.439,60.441,72.5,50.502,72.5z"/>
</g>
</svg>