<svg xmlns="http://www.w3.org/2000/svg" xmlns:xlink="http://www.w3.org/1999/xlink" version="1.1" id="Layer_1" x="0px" y="0px" width="100px" height="100px" viewBox="0 0 100 100" enable-background="new 0 0 100 100" xml:space="preserve">
<path fill="#000000" d="M48.787,86.263c-6.612,0-12.926-0.851-18.899-2.554c-0.349-0.1-0.616-0.38-0.699-0.733  c-0.268-1.141-0.208-2.704,1.319-4.115c-3.335-1.38-6.447-3.145-9.324-5.29C13.104,67.545,9.007,60.136,9.007,51.549  c0-0.227-0.044-0.452-0.136-0.685C8.229,50,8.26,48.964,8.966,47.998c0.466-0.622,1.641-1.455,6.878-2.997  c1.23-0.362,2.516-0.702,3.825-1.011c0.042-0.04,0.084-0.079,0.128-0.117c0.182-0.156,0.414-0.243,0.653-0.243h0.553  c-0.015-0.187-0.022-0.385-0.022-0.597c0-1.165,0.446-2.722,2.574-3.529c0.499-0.219,1.068-0.374,1.69-0.458  c-0.136-1.6,0.1-2.8,0.714-3.65c0.79-1.033,2.154-1.545,4.071-1.545c2.308,0,3.839,0.723,4.553,2.149  c0.012,0.026,0.023,0.051,0.035,0.077c0.525-0.629,0.75-1.078,0.84-1.38c0.127-0.423,0.517-0.712,0.958-0.712  c0.417,0,0.775,0.177,1.089,0.462c0.242-0.435,0.54-0.895,0.896-1.382c0.972-1.434,1.853-2.167,2.737-2.262  c-0.073-1.662,0.452-3.153,1.571-4.453c1.347-1.555,2.854-2.343,4.482-2.343c2.063,0,3.663,1.045,4.626,3.024  c0.405,0.809,0.685,1.668,0.834,2.563c1.061,0.002,1.824,0.705,2.043,1.882c0.011,0.06,0.017,0.121,0.017,0.183v0.514l3.634-0.57  c0.052-0.008,0.104-0.012,0.155-0.012h2.462c0.521,0,0.953,0.399,0.996,0.917l0.027,0.324c0.506-0.157,1.113-0.336,1.831-0.538  c0.089-0.025,0.18-0.038,0.271-0.038h1.397c0.529,0,0.967,0.412,0.998,0.94l0.011,0.179c0.695-0.01,1.75-0.029,3.165-0.054  c0.056-0.001,0.113,0.003,0.17,0.012c2.835,0.436,3.845,1.949,4.169,3.272c0.26-0.017,0.567-0.025,0.934-0.025  c1.345,0,2.157,0.214,2.637,0.693c0.269,0.268,0.361,0.665,0.241,1.024c-0.04,0.12-0.089,0.235-0.145,0.345h0.26  c0.065,0,0.131,0.006,0.195,0.02c0.766,0.152,1.244,0.774,1.536,1.339l0.563-0.134c0.076-0.018,0.154-0.027,0.232-0.027h1.663  c0.306,0,0.594,0.14,0.783,0.378c0.19,0.239,0.26,0.552,0.19,0.849l-0.032,0.138c0.195,0.098,0.379,0.237,0.526,0.435  c0.035,0.048,0.067,0.1,0.094,0.153c0.121,0.246,0.171,0.548,0.171,1.042c0,0.088-0.001,0.17-0.004,0.247  c0.729,0.043,1.258,0.196,1.64,0.464c0.05,0.034,0.096,0.073,0.138,0.116c0.197,0.2,0.304,0.445,0.36,0.711  c2.973,0.949,4.656,1.993,5.274,3.264c0.026,0.052,0.049,0.107,0.065,0.165c0.123,0.337,0.177,0.645,0.177,0.954v0.397  c0,0,0,0.001,0,0.001c0.044,0.716,0.066,1.542,0.066,2.395c0,8.586-4.097,15.995-12.178,22.021  c-3.126,2.331-6.526,4.214-10.186,5.641c0.817,0.848,1.33,1.938,1.529,3.254c0.078,0.512-0.249,0.999-0.752,1.121  C62.636,85.37,55.556,86.263,48.787,86.263z M31.062,81.96c11.32,3.099,23.92,3.07,37.473-0.086  c-0.265-0.744-0.711-1.324-1.351-1.759c-0.054-0.037-0.104-0.078-0.148-0.123c-5.113,1.7-10.7,2.557-16.718,2.557  c-6.377,0-12.269-0.955-17.624-2.85c-0.041,0.036-0.084,0.069-0.132,0.1C31.347,80.575,31.056,81.323,31.062,81.96z M11.016,52.183  c0.199,7.654,4.02,14.308,11.363,19.784c7.636,5.694,17.036,8.582,27.94,8.582c10.861,0,20.238-2.888,27.873-8.582  c7.537-5.62,11.363-12.479,11.373-20.388c-1.105,0.681-2.688,1.295-4.791,1.866c-0.002,0.001-0.004,0.001-0.006,0.002  c-1.665,0.45-3.686,0.882-6.007,1.282c-7.957,1.422-17.707,2.143-28.975,2.143c-11.267,0-21.016-0.721-28.979-2.144  c-1.608-0.276-3.097-0.569-4.418-0.87c-0.016-0.003-0.032-0.007-0.048-0.011C14.13,53.327,12.367,52.777,11.016,52.183z   M20.241,52.598c0.299,0.055,0.603,0.107,0.912,0.161c7.853,1.402,17.484,2.113,28.633,2.113c11.149,0,20.781-0.711,28.629-2.112  c2.114-0.365,3.963-0.754,5.505-1.157c0.322-0.302,0.753-0.447,1.019-0.523c0.049-0.037,0.101-0.124,0.102-0.384  c0,0.001-0.001,0.001-0.001,0.001c-0.008,0-0.065-0.206-0.305-0.724c-0.424-0.769-0.492-0.936-0.492-1.217  c0-0.287,0.072-0.527,0.19-0.718c-0.032-0.036-0.068-0.075-0.11-0.118c-0.717-0.521-1.077-0.799-1.077-1.36  c0-0.572,0.365-1.063,0.64-1.383c0.021-0.029,0.041-0.057,0.059-0.082c-0.332-0.038-0.917-0.05-1.914,0.063  c-0.47,0.055-0.922-0.235-1.066-0.692c-0.145-0.456,0.054-0.95,0.474-1.179c0.204-0.111,0.332-0.194,0.409-0.249  c0-0.021,0.001-0.044,0.001-0.068c-0.304-0.001-0.591-0.141-0.779-0.378c-0.17-0.214-0.243-0.486-0.208-0.753h-0.29l-1.281,0.306  c-0.504,0.122-1.017-0.165-1.181-0.656c-0.178-0.532-0.332-0.76-0.406-0.847h-2.038c-0.326,0-0.632-0.159-0.818-0.426  c-0.188-0.267-0.232-0.608-0.122-0.915c0.098-0.269,0.215-0.509,0.351-0.721c-0.046,0-0.093-0.001-0.142-0.001  c-1.053,0-1.324,0.083-1.352,0.092c-0.308,0.184-0.66,0.172-0.973-0.005c-0.313-0.177-0.473-0.527-0.473-0.887  c0-1.011-0.303-2.091-2.528-2.458c-2.396,0.043-3.747,0.064-4.054,0.064c-0.529,0-0.967-0.412-0.998-0.94l-0.012-0.19h-0.316  c-1.313,0.372-2.246,0.663-2.773,0.865c-0.295,0.112-0.624,0.081-0.89-0.086c-0.267-0.167-0.439-0.451-0.465-0.764l-0.057-0.68  h-1.464l-5.008,0.786c-0.009,0.002-0.02,0.003-0.028,0.004l-0.496,0.066c-0.55,0.069-1.051-0.312-1.124-0.858  c-0.07-0.524,0.279-1.007,0.789-1.112v-0.713c-0.015-0.063-0.03-0.107-0.044-0.138c-0.167,0.319-0.502,0.536-0.886,0.536  c-0.004,0-0.008,0-0.013,0c-0.547-0.007-0.986-0.452-0.987-0.999c-0.002-1.153-0.256-2.245-0.757-3.245  c-0.636-1.306-1.534-1.909-2.833-1.909c-1.036,0-2.007,0.54-2.969,1.65c-1.137,1.319-1.379,2.896-0.739,4.816  c0.154,0.463-0.048,0.969-0.478,1.199c-0.43,0.23-0.962,0.115-1.262-0.271c-0.216-0.279-0.384-0.449-0.507-0.553  c-0.174,0.113-0.572,0.441-1.201,1.367c-0.949,1.302-1.231,2.091-1.304,2.529c-0.071,0.427-0.409,0.761-0.837,0.825  c-0.429,0.066-0.85-0.154-1.043-0.541c-0.066-0.131-0.126-0.247-0.183-0.35c-0.474,0.693-1.151,1.435-2.043,2.241  c-0.315,0.284-0.772,0.339-1.145,0.138c-0.372-0.2-0.578-0.613-0.515-1.031c0.059-0.383-0.002-0.762-0.186-1.159  c-0.333-0.665-1.263-1.016-2.751-1.016c-0.867,0-1.999,0.128-2.465,0.738c-0.267,0.37-0.535,1.251-0.207,3.22  c0.048,0.29-0.033,0.586-0.223,0.811c-0.19,0.224-0.469,0.354-0.763,0.354c-0.789,0-1.482,0.128-2.061,0.382  c-1.177,0.448-1.329,1.098-1.329,1.678c0,0.262,0.015,0.467,0.036,0.625c0.281,0.069,0.523,0.258,0.656,0.524l0.266,0.532  c0.069,0.139,0.105,0.292,0.105,0.447v0.2c0,0.369-0.203,0.708-0.529,0.882c-0.324,0.175-0.72,0.155-1.027-0.05  c-0.328-0.22-0.565-0.399-0.739-0.564h-0.325c-0.229,0.051-0.456,0.104-0.682,0.158c-0.16,0.228-0.255,0.479-0.291,0.76v0.21  c0,0.062,0.01,0.236,0.082,0.674c0.007,0.001,0.015,0.002,0.023,0.004c0.478,0.084,0.827,0.5,0.827,0.985v0.333c0,0.552-0.448,1-1,1  h-0.599c-0.312,0-0.596-0.144-0.781-0.375c-0.123,0.025-0.222,0.065-0.294,0.118c-0.12,0.077-0.138,0.101-0.139,0.102  c0.018,0.354,0.102,0.751,0.274,1.167c0.225,0.542,0.512,0.901,0.881,1.099C20.015,52.021,20.196,52.297,20.241,52.598z   M17.056,51.958c0.053,0.013,0.106,0.024,0.159,0.036c-0.078-0.146-0.15-0.301-0.216-0.463c-0.271-0.653-0.409-1.319-0.409-1.979  c0-0.701,0.356-1.309,1.003-1.713c0.251-0.184,0.561-0.32,0.919-0.402c-0.018-0.124-0.03-0.228-0.039-0.317  c-0.201-0.062-0.427-0.093-0.684-0.093c-1.82,0-2.193,0.77-2.193,1.926C15.596,50.095,16.074,51.08,17.056,51.958z M10.438,49.618  c0.798,0.533,2.002,1.049,3.596,1.542c-0.292-0.689-0.438-1.426-0.438-2.206c0-0.428,0.045-0.825,0.133-1.188  c-2.592,0.889-3.078,1.33-3.158,1.426C10.398,49.428,10.389,49.53,10.438,49.618z M86.438,48.925  c0.025,0.046,0.052,0.095,0.08,0.147c0.399,0.859,0.504,1.247,0.52,1.532c1.735-0.7,2.271-1.275,2.437-1.575l-0.081-0.642  c-0.217-0.342-1.03-1.133-3.854-2.056c0.008,0.006,0.016,0.011,0.023,0.017c0.043,0.031,0.083,0.065,0.12,0.103  c0.411,0.411,0.958,1.042,0.958,1.771C86.642,48.484,86.569,48.725,86.438,48.925z"/>
<path fill-rule="evenodd" clip-rule="evenodd" fill="#000000" d="M91.828,12.7L75.962,54.242L73.8,54.51l14.437-41.411L91.828,12.7z   M85.108,13.764l-15.73,41.277l-2.229,0.266L81.518,14.23L85.108,13.764z"/>
</svg>