<svg xmlns="http://www.w3.org/2000/svg" xmlns:xlink="http://www.w3.org/1999/xlink" version="1.1" id="Layer_1" x="0px" y="0px" width="100px" height="100px" viewBox="0 0 100 100" enable-background="new 0 0 100 100" xml:space="preserve">
<path fill-rule="evenodd" clip-rule="evenodd" d="M76.235,62.765c-11.23-0.864-20.858-7.318-26.131-13.14  c-5.273,5.822-14.9,12.276-26.132,13.14c-11.81,0.907-22.904-4.504-22.082-16.807c0.276-4.161,3.077-9.694,8.899-9.228  c0.537,0.042,1.017,0.151,1.442,0.33c0.015,0,0.028,0.014,0.028,0.014c2.292,0.604,3.982,2.691,3.982,5.177  c0,2.966-2.403,5.369-5.369,5.369c-2.693,0-4.916-1.964-5.301-4.545c-0.015-0.028-0.028-0.055-0.054-0.083  c-1.759,4.71,1.579,9.916,5.272,10.546c12.579,2.183,17.191-17.632,29.002-19.445c4.284-0.659,7.881,0.659,10.312,3.035  c2.431-2.376,6.026-3.694,10.312-3.035c11.808,1.812,16.423,21.627,29.001,19.445c3.691-0.631,7.027-5.836,5.271-10.546  c-0.026,0.027-0.04,0.055-0.053,0.083c-0.388,2.582-2.609,4.545-5.302,4.545c-2.966,0-5.371-2.403-5.371-5.369  c0-2.486,1.689-4.573,3.982-5.177c0,0,0.014-0.014,0.028-0.014c0.426-0.179,0.906-0.288,1.443-0.33  c5.822-0.466,8.622,5.067,8.897,9.228C99.141,58.261,88.045,63.672,76.235,62.765z"/>
</svg>