<svg xmlns="http://www.w3.org/2000/svg" xmlns:xlink="http://www.w3.org/1999/xlink" version="1.1" x="0px" y="0px" width="100px" height="100px" viewBox="0 0 100 100" enable-background="new 0 0 100 100" xml:space="preserve">
<g id="Captions">
</g>
<g id="Your_Icon">
	<g>
		<path d="M85.071,1H14.929c-1.557,0-2.831,1.264-2.831,2.809v23.429h75.805V3.809C87.902,2.264,86.629,1,85.071,1z M34.566,12.151    l-1.513,1.098l-1.514,1.098l0,0l-1.116,0.81l0.423,1.305l0.574,1.77l0.574,1.771c0.233,0.718-0.081,0.944-0.697,0.503l-1.52-1.088    l-2.641-1.892l-2.64,1.892l-1.52,1.088c-0.616,0.441-0.93,0.215-0.698-0.503l0.574-1.771l0.574-1.77l0.423-1.305l-1.116-0.81h0    l-1.513-1.098l-1.514-1.098c-0.613-0.445-0.493-0.811,0.267-0.813l1.875-0.005l1.874-0.006c0,0,0,0,0,0l1.382-0.004l1.016-3.07    l0.584-1.768c0.237-0.716,0.625-0.716,0.862,0l0.584,1.768l1.016,3.07l1.382,0.004l0,0l1.875,0.006l1.875,0.005    C35.06,11.34,35.179,11.706,34.566,12.151z M57.429,12.151l-1.514,1.098l-1.513,1.098l0,0l-1.116,0.81l0.423,1.305l0.574,1.77    l0.574,1.771c0.232,0.718-0.081,0.944-0.697,0.503l-1.52-1.088L50,17.525l-2.64,1.892l-1.52,1.088    c-0.616,0.441-0.93,0.215-0.698-0.503l0.574-1.771l0.574-1.77l0.423-1.305l-1.115-0.81h0l-1.513-1.098l-1.514-1.098    c-0.613-0.445-0.493-0.811,0.266-0.813l1.875-0.005l1.874-0.006c0,0,0,0,0,0l1.382-0.004l1.015-3.07l0.584-1.768    c0.237-0.716,0.625-0.716,0.862,0l0.584,1.768l1.016,3.07l1.382,0.004l0,0l1.875,0.006l1.875,0.005    C57.922,11.34,58.042,11.706,57.429,12.151z M80.292,12.151l-1.514,1.098l-1.514,1.098l0,0l-1.116,0.81l0.424,1.305l0.574,1.77    l0.574,1.771c0.232,0.718-0.082,0.944-0.698,0.503l-1.52-1.088l-2.641-1.892l-2.64,1.892l-1.52,1.088    c-0.616,0.441-0.931,0.215-0.697-0.503l0.574-1.771l0.573-1.77l0.424-1.305l-1.116-0.81l0,0l-1.514-1.098l-1.513-1.098    c-0.613-0.445-0.493-0.811,0.266-0.813l1.875-0.005l1.874-0.006c0.001,0,0.001,0,0.001,0l1.382-0.004l1.016-3.07l0.584-1.768    c0.237-0.716,0.625-0.716,0.862,0l0.584,1.768l1.017,3.07l1.381,0.004c0,0,0,0,0.001,0l1.874,0.006l1.875,0.005    C80.784,11.34,80.904,11.706,80.292,12.151z"/>
		<path d="M29.051,32.69H12.098v43.694c0,1.545,1.117,3.416,2.483,4.158l14.471,7.864V32.69z"/>
		<path d="M58.618,32.69H41.381v62.419l6.136,3.334c1.366,0.742,3.6,0.742,4.965,0l6.136-3.334V32.69z"/>
		<path d="M70.762,88.509l14.658-7.966c1.365-0.742,2.482-2.613,2.482-4.158V32.69H70.762V88.509z"/>
	</g>
</g>
</svg>