<svg xmlns="http://www.w3.org/2000/svg" xmlns:xlink="http://www.w3.org/1999/xlink" version="1.1" x="0px" y="0px" width="100px" height="100px" viewBox="0 0 100 100" enable-background="new 0 0 100 100" xml:space="preserve">
<g id="Captions">
</g>
<g id="Your_Icon">
	<path d="M85.103,1H14.897c-1.559,0-2.833,1.265-2.833,2.81v28.88v5.784v37.911c0,1.544,1.118,3.415,2.484,4.158l32.966,17.899   c1.367,0.743,3.604,0.743,4.971,0l32.966-17.899c1.366-0.743,2.484-2.614,2.484-4.158V38.474V32.69V3.81   C87.936,2.265,86.661,1,85.103,1z M73.824,38.889l-4.854,3.519l-4.854,3.516c0,0,0,0,0,0.002l-3.578,2.592l1.356,4.181l1.843,5.672   l1.84,5.676c0.746,2.298-0.261,3.024-2.236,1.609l-4.873-3.487l-8.469-6.061l-8.466,6.061l-4.874,3.487   c-1.976,1.415-2.983,0.688-2.236-1.609l1.84-5.676l1.842-5.672l1.357-4.181l-3.577-2.592c0-0.002-0.001-0.002-0.002-0.002   l-4.853-3.516l-4.854-3.519c-1.966-1.426-1.582-2.597,0.854-2.606l6.014-0.017l6.01-0.018c0.001,0,0.001,0,0.002,0l4.432-0.014   l3.256-9.837l1.874-5.662c0.761-2.296,2.005-2.296,2.765,0l1.874,5.662l3.258,9.837l4.431,0.014c0.001,0,0.001,0,0.002,0   l6.011,0.018l6.013,0.017C75.404,36.292,75.789,37.463,73.824,38.889z"/>
</g>
</svg>