<svg xmlns="http://www.w3.org/2000/svg" xmlns:xlink="http://www.w3.org/1999/xlink" version="1.1" x="0px" y="0px" width="100px" height="100px" viewBox="0 0 100 100" enable-background="new 0 0 100 100" xml:space="preserve">
<g id="Captions">
</g>
<g id="Your_Icon">
	<path d="M18.16,41.418c-1.948,0-3.535,1.585-3.535,3.535s1.586,3.535,3.535,3.535c1.949,0,3.535-1.586,3.535-3.535   S20.109,41.418,18.16,41.418z"/>
	<path d="M36.797,41.418c-1.949,0-3.535,1.585-3.535,3.535s1.586,3.535,3.535,3.535c1.949,0,3.535-1.586,3.535-3.535   S38.746,41.418,36.797,41.418z"/>
	<path d="M35.39,71.827c1.344-0.527,2.32-1.96,2.32-3.404v-3.308c0-1.78-1.448-3.228-3.228-3.228H20.476   c-1.78,0-3.229,1.447-3.229,3.228v3.308c0,1.444,0.976,2.877,2.321,3.404c0.248,0.098,2.571,0.949,7.911,0.949   S35.142,71.925,35.39,71.827z M21.859,66.498h11.239v1.191c-0.87,0.19-2.668,0.477-5.62,0.477s-4.75-0.286-5.62-0.477V66.498z"/>
	<path d="M51.898,32.712l0.171-0.04l-1.359-2.631c-1.242-2.404-2.847-4.576-4.726-6.458c-0.018-0.018-0.035-0.036-0.053-0.053   c-0.112-0.112-0.225-0.222-0.338-0.332c-0.065-0.062-0.13-0.124-0.196-0.186c-0.087-0.082-0.174-0.163-0.261-0.243   c-0.113-0.104-0.227-0.205-0.342-0.307c-0.048-0.043-0.096-0.087-0.145-0.129c-2.597-2.269-5.646-4.033-8.992-5.138   c-0.029-0.009-0.058-0.019-0.087-0.028c-0.19-0.062-0.382-0.122-0.574-0.18c-0.058-0.018-0.117-0.035-0.175-0.052   c-0.165-0.048-0.331-0.095-0.498-0.141c-0.072-0.02-0.145-0.04-0.217-0.059c-0.161-0.042-0.322-0.082-0.483-0.121   c-0.073-0.018-0.146-0.037-0.218-0.054c-0.224-0.052-0.449-0.101-0.675-0.148c-0.068-0.014-0.137-0.026-0.205-0.039   c-0.167-0.033-0.334-0.065-0.502-0.095c-0.022-0.003-0.044-0.008-0.066-0.012l-2.096-0.363l-0.022,0.086   c-0.778-0.071-1.563-0.108-2.359-0.108c-1.384,0-2.745,0.11-4.071,0.318V16.2c-0.056,0.009-0.112,0.021-0.167,0.029   c-0.185,0.03-0.369,0.062-0.552,0.096c-0.112,0.021-0.226,0.043-0.338,0.064c-0.133,0.027-0.266,0.055-0.398,0.084   c-8.734,1.877-15.915,8.096-19.012,16.55c-0.003,0.008-0.006,0.016-0.009,0.024c-0.033,0.09-0.068,0.179-0.1,0.27L2,35.675   l0.118,0.032c-0.503,2.021-0.772,4.135-0.772,6.31c0,4.623,1.24,11.053,3.346,17.458c-1.257,1.315-1.993,3.084-1.993,4.94   c0,1.973,0.826,3.833,2.21,5.161c-0.252,0.81-0.383,1.656-0.383,2.516c0,4.111,2.948,7.545,6.84,8.301   c0.004,0.078,0.006,0.16,0.006,0.241c0,3.938,3.203,7.14,7.14,7.14c1.707,0,3.347-0.617,4.625-1.704   c1.271,0.314,2.582,0.487,3.911,0.519l0,0c0.004,0,0.008,0,0.012,0c0.009,0.001,0.018,0.001,0.027,0.002v-0.001   c0.127,0.005,0.255,0.008,0.384,0.008c0,0,0,0,0.001,0h0.004l-0.001-4.611c-0.055,0-0.11-0.002-0.165-0.004l-0.125-0.003   c-1.382-0.029-2.733-0.264-4.017-0.698l-1.61-0.545l-0.997,1.378c-0.483,0.667-1.229,1.05-2.05,1.05   c-1.394,0-2.528-1.135-2.528-2.529c0-0.336-0.021-1.213-0.225-2.078c-0.572-2.432-2.271-2.621-2.78-2.621   c-2.118,0-3.842-1.724-3.842-3.843c0-0.729,0.208-1.442,0.6-2.058l1.411-2.215l-2.378-1.112c-0.886-0.416-1.459-1.314-1.459-2.292   c0-0.903,0.466-1.719,1.247-2.179H8.56c0.386-0.229,0.828-0.349,1.279-0.349c0.739,0,1.44,0.322,1.922,0.887l2.218,2.594   l1.579-3.024c2.327-4.461,6.896-7.232,11.92-7.232c3.399,0,6.642,1.271,9.132,3.58c2.478,2.298,3.991,5.41,4.26,8.762l0.182,2.258   l2.26-0.141c0.259-0.016,0.526,0.006,0.781,0.07h0.002c1.124,0.283,1.909,1.291,1.909,2.451c0,1.396-1.135,2.529-2.52,2.529   l-3.033-0.086l0.627,2.879c0.06,0.273,0.09,0.552,0.09,0.826c0,2.118-1.723,3.841-3.842,3.841c-0.865,0-1.684-0.281-2.365-0.815   l-1.064-0.833l-1.247,0.521c-1.64,0.686-3.38,1.032-5.173,1.032v4.611c1.985,0,3.923-0.317,5.779-0.946   c1.24,0.686,2.625,1.044,4.07,1.044c4.454,0,8.114-3.463,8.431-7.836c2.821-0.955,4.857-3.627,4.857-6.767   c0-2.344-1.136-4.468-2.944-5.779c3.589-8.308,5.94-17.824,5.94-24.296C53.611,38.741,53.004,35.604,51.898,32.712z M31.516,24.814   c0.048-0.085,0.096-0.172,0.144-0.262c0.003-0.005,0.005-0.01,0.008-0.015c0-0.001,0.001-0.002,0.002-0.003l0.091-0.172   c0.049-0.09,0.096-0.181,0.14-0.268c0.001-0.001,0.001-0.002,0.001-0.002c0-0.001,0-0.001,0.001-0.002   c0-0.001,0.001-0.002,0.002-0.004c0.031-0.06,0.062-0.12,0.091-0.179c0,0,0-0.001,0-0.002s0.001,0,0.001,0   c0.044-0.089,0.089-0.178,0.131-0.265l0,0c0.001-0.002,0.002-0.005,0.003-0.007c0.031-0.062,0.06-0.125,0.09-0.187   c0.043-0.089,0.085-0.179,0.123-0.263c0.015-0.031,0.029-0.063,0.043-0.094c0.016-0.036,0.032-0.07,0.047-0.104l0,0   c0.001-0.001,0.001-0.001,0.001-0.002c0,0,0,0,0-0.001c0,0,0,0,0,0c0.04-0.089,0.08-0.178,0.118-0.267l0,0l0.002-0.004   c0.026-0.059,0.052-0.119,0.08-0.183l0.003-0.008c0-0.002,0.002-0.004,0.002-0.006c0.038-0.089,0.075-0.179,0.11-0.263   c0.028-0.069,0.057-0.139,0.084-0.206c0.016-0.039,0.03-0.078,0.045-0.117c0.021-0.052,0.042-0.105,0.062-0.158l0.029-0.075   c0.016-0.042,0.032-0.083,0.048-0.125l0.001-0.004c0.034-0.092,0.068-0.185,0.102-0.277l0.005-0.014l0.007-0.021   c0.056,0.015,0.111,0.029,0.167,0.045c0.04,0.012,0.08,0.023,0.12,0.035c0.116,0.033,0.232,0.068,0.347,0.103   c0.053,0.017,0.106,0.033,0.159,0.049c0.098,0.031,0.194,0.062,0.292,0.094c0.066,0.022,0.133,0.044,0.2,0.067   c0.061,0.021,0.123,0.043,0.185,0.065c2.449,0.864,4.72,2.169,6.701,3.831c0.07,0.059,0.141,0.118,0.209,0.178   c0.038,0.033,0.076,0.066,0.114,0.099c0.096,0.084,0.191,0.168,0.286,0.254c0.018,0.016,0.036,0.033,0.054,0.049   c1.062,0.97,2.028,2.044,2.879,3.208c-0.378,0.022-0.757,0.033-1.136,0.033c-4.53,0-8.829-1.549-12.285-4.393L31.516,24.814z    M23.092,20.946c0.042-0.008,0.084-0.017,0.127-0.026c0.133-0.027,0.268-0.053,0.402-0.077c0.076-0.014,0.151-0.026,0.227-0.039   c1.18-0.201,2.394-0.308,3.63-0.308c0.335,0,0.669,0.009,1,0.023c-0.025,0.063-0.052,0.127-0.079,0.19l-0.069,0.161   c-0.032,0.072-0.063,0.144-0.096,0.215v0c-0.009,0.02-0.018,0.039-0.027,0.058c-0.015,0.034-0.03,0.066-0.047,0.103   c-0.033,0.072-0.066,0.143-0.1,0.215c-0.024,0.051-0.048,0.101-0.074,0.153c-0.035,0.072-0.071,0.144-0.108,0.218   c-0.021,0.043-0.043,0.086-0.067,0.132c-0.002,0.005-0.005,0.009-0.007,0.014c0,0,0,0,0,0c-0.038,0.073-0.076,0.146-0.114,0.218   l-0.076,0.142c-0.024,0.044-0.048,0.087-0.073,0.13c-0.016,0.031-0.033,0.061-0.05,0.091l-0.062,0.11l-0.014,0.024   c-0.044,0.078-0.09,0.156-0.137,0.236l-0.069,0.116c-0.05,0.084-0.101,0.167-0.152,0.25l-0.059,0.097   c-0.059,0.095-0.12,0.188-0.18,0.28l-0.042,0.064c-0.074,0.113-0.149,0.226-0.226,0.338l-0.001,0.001   c-0.1,0.146-0.202,0.289-0.304,0.429l-0.033,0.045l-0.031,0.043c-0.099,0.133-0.198,0.266-0.304,0.401L25.877,25l-0.018,0.025   c-0.105,0.135-0.214,0.27-0.324,0.403h0l-0.037,0.044l-0.03,0.036c-0.101,0.122-0.204,0.241-0.302,0.354l-0.024,0.028l-0.021,0.024   c-0.115,0.13-0.231,0.259-0.351,0.388l-0.067,0.072c-0.104,0.112-0.21,0.222-0.316,0.33l-0.057,0.058   c-0.123,0.124-0.247,0.246-0.373,0.367l-0.007,0.005l-0.064,0.061c-0.108,0.103-0.218,0.205-0.325,0.301l-0.043,0.04l-0.033,0.03   c-0.129,0.116-0.259,0.229-0.388,0.338l-0.021,0.019l-0.041,0.035l-0.002,0.001c-0.115,0.097-0.231,0.193-0.354,0.292l0,0   l-0.083,0.066c-0.135,0.107-0.271,0.213-0.414,0.32l-0.046,0.034c-0.124,0.092-0.249,0.182-0.374,0.271l-0.022,0.016l-0.074,0.053   c-0.142,0.099-0.284,0.197-0.429,0.292l-0.031,0.02c-0.135,0.089-0.272,0.176-0.414,0.265l-0.1,0.062   c-0.292,0.18-0.596,0.355-0.901,0.521l0,0l-0.11,0.059l-0.002,0.001c-0.146,0.078-0.292,0.155-0.44,0.229l-0.029,0.015l0,0   l-0.005,0.002c-0.151,0.075-0.304,0.148-0.458,0.219l0,0l-0.12,0.056c-0.139,0.063-0.277,0.126-0.42,0.187l-0.007,0.002   l-0.053,0.024c-0.16,0.067-0.319,0.133-0.476,0.194h-0.001l-0.115,0.045l-0.003,0.001c-0.138,0.054-0.277,0.106-0.424,0.159   l-0.083,0.03c-0.161,0.057-0.323,0.112-0.495,0.167l-0.084,0.027l-0.022,0.007l-0.004,0.001c-0.139,0.044-0.279,0.087-0.418,0.127   l-0.106,0.031c-0.167,0.048-0.334,0.093-0.501,0.136l-0.081,0.021l-0.025,0.006L15.3,31.919c-0.142,0.036-0.284,0.069-0.419,0.1   l0,0l-0.07,0.016l-0.058,0.013c-0.17,0.037-0.342,0.073-0.511,0.105l0,0l-0.028,0.005l-0.074,0.013   c-0.147,0.028-0.295,0.054-0.441,0.078l-0.132,0.021c-0.175,0.027-0.351,0.053-0.524,0.075l0,0l-0.009,0.001l-0.073,0.008   c-0.155,0.02-0.311,0.037-0.47,0.052l0,0l-0.134,0.013l0,0h-0.002c-0.18,0.017-0.36,0.031-0.533,0.042l0,0l-0.047,0.003l-0.011,0   c-0.166,0.011-0.333,0.018-0.498,0.024l0,0l-0.146,0.005c-0.956,0.026-1.922-0.016-2.874-0.13   C11.158,26.59,16.592,22.297,23.092,20.946z M44.378,62.198c-0.976-2.599-2.551-4.958-4.632-6.888   c-3.346-3.103-7.703-4.811-12.268-4.811c-5.854,0-11.245,2.798-14.612,7.449c-0.937-0.438-1.968-0.673-3.027-0.673   c-0.333,0-0.664,0.023-0.991,0.069c-1.824-5.72-2.892-11.327-2.892-15.328c0-1.804,0.225-3.557,0.645-5.232   c1.308,0.218,2.635,0.33,3.967,0.33c0.228,0,0.455-0.004,0.682-0.011l0,0l0.173-0.005h0.003c0.208-0.007,0.414-0.017,0.619-0.03   l0,0l0.047-0.002l0,0l0.017-0.001c0.222-0.014,0.445-0.032,0.664-0.053c0.058-0.005,0.116-0.011,0.171-0.016   c0.192-0.019,0.384-0.04,0.583-0.064l0,0l0.012-0.001l0.083-0.009c0.218-0.028,0.437-0.06,0.651-0.093l0.015-0.003l0.146-0.022l0,0   l0.001-0.001c0.184-0.029,0.367-0.061,0.549-0.095l0.124-0.023c0.214-0.041,0.427-0.085,0.636-0.131l0.038-0.008l0.105-0.023l0,0   l0.008-0.002c0.178-0.041,0.356-0.083,0.524-0.125l0,0l0.141-0.035h0.001c0.21-0.054,0.418-0.111,0.618-0.167l0.096-0.029   l0.04-0.011l0,0c0.175-0.052,0.349-0.104,0.519-0.159h0.001l0.009-0.002l0.024-0.008c0.04-0.013,0.08-0.025,0.111-0.036   c0.205-0.066,0.409-0.136,0.615-0.209l0.071-0.025l0.037-0.014l0,0c0.172-0.062,0.343-0.126,0.51-0.19l0,0l0.146-0.057l0.003-0.001   c0.199-0.079,0.398-0.16,0.603-0.247l0.043-0.019l0.022-0.01c0.176-0.075,0.352-0.153,0.531-0.236v0.001l0.096-0.045l0.041-0.019   c0.196-0.091,0.39-0.185,0.583-0.281l0.015-0.008v0l0.018-0.009l0.003-0.002c0.002-0.001,0.004-0.002,0.006-0.003l0.005-0.002   c0.177-0.089,0.353-0.181,0.526-0.273l0.125-0.068l0.013-0.007c0.377-0.205,0.752-0.422,1.117-0.646l0.127-0.079l0,0l0.005-0.003   l0,0c0.167-0.105,0.334-0.21,0.503-0.322l0.035-0.023c0.18-0.119,0.356-0.24,0.534-0.364l0,0l0.091-0.064l0.026-0.019   c0.155-0.11,0.311-0.223,0.473-0.344l0.055-0.041c0.171-0.128,0.34-0.259,0.511-0.395l0,0l0,0l0.106-0.085l0,0   c0.144-0.115,0.286-0.231,0.424-0.349l0.082-0.069l0,0c0.163-0.138,0.324-0.278,0.487-0.425l0.086-0.078   c0.138-0.125,0.274-0.251,0.413-0.382l0,0l0.047-0.045l0.032-0.03c0.155-0.149,0.309-0.299,0.46-0.453l0.07-0.071   c0.132-0.135,0.263-0.271,0.39-0.406l0.087-0.093l0,0c0.146-0.158,0.291-0.317,0.433-0.479l0.049-0.057   c0.044-0.051,0.087-0.103,0.131-0.154c4.233,3.386,9.452,5.227,14.946,5.227c1.211,0,2.42-0.093,3.613-0.273   C48.404,36.26,49,39.07,49,42.017C49,47.255,47.172,55.074,44.378,62.198z"/>
	<path d="M95.425,24.126H65.909c-1.779,0-3.229,1.448-3.229,3.228v8.991c0,1.78,1.449,3.228,3.229,3.228h12.736l-0.338,16.086   c-0.011,0.508-0.026,1.337-0.035,1.845l-0.374,21.62c-0.01,0.508,0.365,1.083,0.834,1.279l1.854,0.779   c0.467,0.196,1.232,0.196,1.7,0l1.853-0.779c0.468-0.196,0.843-0.771,0.835-1.279l-0.375-21.62   c-0.009-0.508-0.024-1.337-0.035-1.845l-0.339-16.086h11.2c1.779,0,3.228-1.448,3.228-3.228v-8.991   C98.652,25.574,97.204,24.126,95.425,24.126z M94.04,34.961H67.293v-1.995H94.04V34.961z M94.04,30.427H67.293v-1.689H94.04V30.427   z"/>
</g>
</svg>