<svg xmlns="http://www.w3.org/2000/svg" xmlns:xlink="http://www.w3.org/1999/xlink" version="1.1" id="Layer_1" x="0px" y="0px" width="100px" height="100px" viewBox="-346 256 100 100" enable-background="new -346 256 100 100" xml:space="preserve">
<g>
	<circle cx="-296.437" cy="271.369" r="7.841"/>
	<path d="M-306.171,351.443c0,2.426,1.968,4.393,4.393,4.393c2.432,0,3.952-1.967,3.952-4.393l0.006-33.089l2.522,0.014   l-0.012,33.198c0,2.423,1.848,4.27,4.275,4.27c2.425,0,4.393-1.967,4.393-4.393l0.02-59.79h2.521v21.458   c0,4.713,6.146,4.713,6.134,0v-21.957c0-5.207-3.652-10.31-9.743-10.31l-17.576-0.006c-5.55,0-9.845,4.524-9.845,10.172v22.101   c0,4.677,6.181,4.677,6.181,0v-21.457h2.788L-306.171,351.443z"/>
</g>
<path d="M-296.435,261.756c-2.07,0-8.826-0.199-8.826-2.761c0-2.561,6.756-2.76,8.826-2.76s8.824,0.199,8.824,2.76  C-287.611,261.557-294.365,261.756-296.435,261.756L-296.435,261.756z M-302.793,258.995c1.012,0.364,3.202,0.789,6.358,0.789  c3.155,0,5.345-0.424,6.357-0.789c-1.012-0.363-3.202-0.788-6.357-0.788C-299.592,258.207-301.782,258.632-302.793,258.995  L-302.793,258.995z"/>
</svg>