<svg xmlns="http://www.w3.org/2000/svg" xmlns:xlink="http://www.w3.org/1999/xlink" version="1.1" id="Layer_1" x="0px" y="0px" width="100px" height="100px" viewBox="-346 256 100 100" enable-background="new -346 256 100 100" xml:space="preserve">
<path d="M-316.631,309.625v-18.614c0-5.819,3.943-10.508,9.288-11.479c-2.927-3.73-2.559-8.679-6.49-8.679  c-22.167,0-21.762,66.94-16.32,66.648c2.88-0.155,3.36-11.304,3.36-11.304s0.483,2.553,2.241,2.643  c2.88,0.146,2.24-11.891,2.24-11.891s0.791,3.228,2.241,3.228C-316.229,320.177-316.688,309.44-316.631,309.625z"/>
<path d="M-296.595,261.756c-2.07,0-8.826-0.199-8.826-2.761c0-2.561,6.756-2.76,8.826-2.76s8.824,0.199,8.824,2.76  C-287.771,261.557-294.525,261.756-296.595,261.756L-296.595,261.756z M-302.954,258.995c1.012,0.364,3.202,0.789,6.358,0.789  c3.155,0,5.345-0.424,6.357-0.789c-1.012-0.363-3.202-0.788-6.357-0.788C-299.752,258.207-301.942,258.632-302.954,258.995  L-302.954,258.995z"/>
<path d="M-279.184,270.853c-3.934,0-3.563,4.952-6.494,8.683c5.803,1.032,9.211,6.398,9.211,11.619v18.693  c0.116-0.299-0.32,10.329,3.52,10.329c1.451,0,2.242-3.228,2.242-3.228s-0.641,12.036,2.24,11.891c1.758-0.09,2.24-2.643,2.24-2.643  s0.48,11.148,3.36,11.304C-257.422,337.793-257.018,270.853-279.184,270.853z"/>
<circle cx="-296.437" cy="271.369" r="7.841"/>
<path d="M-306.171,351.443c0,2.426,1.968,4.393,4.393,4.393c2.432,0,3.952-1.967,3.952-4.393l0.006-33.089l2.522,0.014  l-0.012,33.198c0,2.423,1.848,4.27,4.275,4.27c2.425,0,4.393-1.967,4.393-4.393l0.02-59.79h2.521v21.458  c0,4.713,6.146,4.713,6.134,0v-21.957c0-5.207-3.652-10.31-9.743-10.31l-17.576-0.006c-5.55,0-9.845,4.524-9.845,10.172v22.101  c0,4.677,6.181,4.677,6.181,0v-21.457h2.788L-306.171,351.443z"/>
</svg>