<svg xmlns="http://www.w3.org/2000/svg" xmlns:xlink="http://www.w3.org/1999/xlink" version="1.1" id="Layer_1" x="0px" y="0px" width="100px" height="100.148px" viewBox="0 0 100 100.148" enable-background="new 0 0 100 100.148" xml:space="preserve">
<path d="M-548.795-496.777c0,0.552-0.448,1-1,1h-70.513c-0.553,0-1-0.448-1-1v-6.205c0-0.552,0.447-1,1-1h70.513  c0.552,0,1,0.448,1,1V-496.777z"/>
<path d="M-548.691-525.777c0,0.553-0.448,1-1,1h-70.513c-0.553,0-1-0.447-1-1v-6.205c0-0.552,0.447-1,1-1h70.513  c0.552,0,1,0.448,1,1V-525.777z"/>
<path d="M-555.376-517.073h-58.436l-7.496,10.938c0,0.552,0.447,1,1,1h70.513c0.552,0,1-0.448,1-1L-555.376-517.073z"/>
<path d="M-548.795-552.777c0,0.552-0.448,1-1,1h-70.513c-0.553,0-1-0.448-1-1v-6.205c0-0.552,0.447-1,1-1h70.513  c0.552,0,1,0.448,1,1V-552.777z"/>
<path d="M-553.376-568.073h-63.436l-4.496,5.938c0,0.552,0.447,1,1,1h70.513c0.552,0,1-0.448,1-1L-553.376-568.073z"/>
<path d="M-554.272-542.778h-60.436l-6.496,7.938c0,0.552,0.447,1,1,1h70.513c0.552,0,1-0.448,1-1L-554.272-542.778z"/>
<path d="M-157.615,57.057c0,0,14.433-8.659,17-16.667c0,0,7.433-17.659,7.333-21.667c0,0-2.05-14.733,0-17.333  c2.05-2.599,11.333-14.667,14-15.333c0,0,9.974-1.408,1.667,8.972c0,0-6.833,7.195-7,8.195c0,0-0.333,4.333,0.5,7.333  c0,0,0.833,2.666,1.167-1.167c0,0,0.954-6.45,3.167-8.667l6-7.833c0,0,7.833-9.833,9-9.833c1.35-0.366,7.184-0.385,4.833,6  c0,0-1.733,3.343-6.5,6.668c0,0-4.682,7.242-5.165,7.5c-0.484,0.258-1,3.75,1.915-0.083c0,0,4.585-6.167,5.585-7.167  c0,0,8.732-8.278,11.332-8.75s6.787,1.403,4.85,5.591c-1.525,3.297-7.948,6.131-8.6,6.659c-0.65,0.528-1.982,5.924-7.602,10.819  c-1.436,1.25-4.452,9.077-1.424,8.146c3.027-0.931,3.027-0.93,7.524-3.382c0,0,4.501-2.584,7.417,1.083l11.666,10.75  c0,0-0.083,5.5-10.333,0.917c0,0-4.917-3.417-5.25-4.25c0,0-8.833,6.87-10.333,8.167c-0.755,0.653-1.055,4.409-1,6.083  c0.082,2.511-0.316,5.445,1.25,6.25c0.94,0.483,9.317,2.827,10.5-0.083c1.184-2.91,2.25-13,9.166-13.75c0,0,4.918-0.75,6.334,1.583  c0,0,1.333,2.5-2.417,6.833c0,0-3.521,8.687-3.75,11c-0.399,4.049-4.274,7.924-15.774,9.174  c-11.438,1.243-12.909,3.877-21.125,4.875l-14.6,13.533C-136.282,77.223-154.532,67.809-157.615,57.057z"/>
<path fill="#000000" d="M68.539,50.453c0-0.592,0.226-1.112,0.538-1.568v-1.034c0-0.294,0.253-0.547,0.544-0.547h3.696  c0.295,0,0.55,0.252,0.55,0.547v1.353c0.195,0.388,0.325,0.802,0.325,1.247v6.741h14.326c1.208,0,2.19-0.977,2.19-2.191V32.9  c0-1.211-0.982-2.191-2.19-2.191H11.482c-1.211,0-2.191,0.979-2.191,2.191V55c0,1.215,0.979,2.191,2.191,2.191h57.057V50.453z   M81.693,37.396c0-0.294,0.249-0.544,0.547-0.544h3.699c0.295,0,0.547,0.25,0.547,0.544v2.66c0,0.294-0.252,0.544-0.547,0.544H82.24  c-0.298,0-0.547-0.25-0.547-0.544V37.396z M81.693,42.625c0-0.297,0.249-0.544,0.547-0.544h3.699c0.295,0,0.547,0.247,0.547,0.544  v2.657c0,0.292-0.252,0.541-0.547,0.541H82.24c-0.298,0-0.547-0.25-0.547-0.541V42.625z M81.693,47.851  c0-0.294,0.249-0.547,0.547-0.547h3.699c0.295,0,0.547,0.252,0.547,0.547v2.657c0,0.294-0.252,0.542-0.547,0.542H82.24  c-0.298,0-0.547-0.247-0.547-0.542V47.851z M75.521,37.396c0-0.294,0.249-0.544,0.547-0.544h3.699c0.295,0,0.544,0.25,0.544,0.544  v2.66c0,0.294-0.249,0.544-0.544,0.544h-3.699c-0.298,0-0.547-0.25-0.547-0.544V37.396z M75.521,42.625  c0-0.297,0.249-0.544,0.547-0.544h3.699c0.295,0,0.544,0.247,0.544,0.544v2.657c0,0.292-0.249,0.541-0.544,0.541h-3.699  c-0.298,0-0.547-0.25-0.547-0.541V42.625z M75.521,47.851c0-0.294,0.249-0.547,0.547-0.547h3.699c0.295,0,0.544,0.252,0.544,0.547  v2.657c0,0.294-0.249,0.542-0.544,0.542h-3.699c-0.298,0-0.547-0.247-0.547-0.542V47.851z M69.077,37.396  c0-0.294,0.253-0.544,0.544-0.544h3.696c0.295,0,0.55,0.25,0.55,0.544v2.66c0,0.294-0.255,0.544-0.55,0.544h-3.696  c-0.291,0-0.544-0.25-0.544-0.544V37.396z M69.077,42.625c0-0.297,0.253-0.544,0.544-0.544h3.696c0.295,0,0.55,0.247,0.55,0.544  v2.657c0,0.292-0.255,0.541-0.55,0.541h-3.696c-0.291,0-0.544-0.25-0.544-0.541V42.625z M46.52,37.396  c0-0.292,0.25-0.541,0.544-0.541h3.706c0.291,0,0.541,0.25,0.541,0.541v2.663c0,0.292-0.25,0.541-0.541,0.541h-3.706  c-0.294,0-0.544-0.25-0.544-0.541V37.396z M46.52,42.625c0-0.297,0.25-0.544,0.544-0.544h3.706c0.291,0,0.541,0.247,0.541,0.544  v2.657c0,0.292-0.25,0.541-0.541,0.541h-3.706c-0.294,0-0.544-0.25-0.544-0.541V42.625z M40.077,37.396  c0-0.292,0.252-0.541,0.544-0.541h3.7c0.297,0,0.547,0.25,0.547,0.541v2.663c0,0.292-0.252,0.541-0.547,0.541h-3.7  c-0.292,0-0.544-0.25-0.544-0.541V37.396z M40.077,42.625c0-0.297,0.252-0.544,0.544-0.544h3.7c0.297,0,0.547,0.247,0.547,0.544  v2.657c0,0.292-0.252,0.541-0.547,0.541h-3.7c-0.292,0-0.544-0.25-0.544-0.541V42.625z M33.63,37.396  c0-0.292,0.252-0.541,0.55-0.541h3.7c0.294,0,0.541,0.25,0.541,0.541v2.663c0,0.292-0.247,0.541-0.541,0.541h-3.7  c-0.297,0-0.55-0.25-0.55-0.541V37.396z M33.63,42.625c0-0.297,0.252-0.544,0.55-0.544h3.7c0.294,0,0.541,0.247,0.541,0.544v2.657  c0,0.292-0.247,0.541-0.541,0.541h-3.7c-0.297,0-0.55-0.25-0.55-0.541V42.625z M27.19,37.396c0-0.294,0.249-0.544,0.547-0.544h3.699  c0.292,0,0.541,0.25,0.541,0.544v2.66c0,0.294-0.25,0.544-0.541,0.544h-3.699c-0.298,0-0.547-0.25-0.547-0.544V37.396z   M27.19,42.622c0-0.294,0.249-0.541,0.547-0.541h3.699c0.292,0,0.541,0.247,0.541,0.544v2.657c0,0.292-0.25,0.541-0.541,0.541  h-3.699c-0.298,0-0.547-0.25-0.547-0.541V42.622z M19.094,50.508c0,0.294-0.252,0.542-0.55,0.542h-3.699  c-0.297,0-0.544-0.247-0.544-0.542v-2.657c0-0.294,0.247-0.547,0.544-0.547h3.699c0.298,0,0.55,0.252,0.55,0.547V50.508z   M19.094,45.281c0,0.292-0.252,0.541-0.55,0.541h-3.699c-0.297,0-0.544-0.25-0.544-0.541v-2.66c0-0.294,0.247-0.541,0.544-0.541  h3.699c0.298,0,0.55,0.247,0.55,0.541V45.281z M19.094,40.055c0,0.294-0.252,0.544-0.55,0.544h-3.699  c-0.297,0-0.544-0.25-0.544-0.544v-2.66c0-0.294,0.247-0.544,0.544-0.544h3.699c0.298,0,0.55,0.25,0.55,0.544V40.055z   M25.534,50.508c0,0.294-0.252,0.542-0.541,0.542h-3.702c-0.294,0-0.547-0.247-0.547-0.542v-2.657c0-0.294,0.252-0.547,0.547-0.547  h3.702c0.289,0,0.541,0.252,0.541,0.547V50.508z M25.534,45.281c0,0.292-0.252,0.541-0.541,0.541h-3.702  c-0.294,0-0.547-0.25-0.547-0.541v-2.66c0-0.294,0.252-0.541,0.547-0.541h3.702c0.289,0,0.541,0.247,0.541,0.541V45.281z   M25.534,40.055c0,0.294-0.252,0.544-0.541,0.544h-3.702c-0.294,0-0.547-0.25-0.547-0.544v-2.66c0-0.294,0.252-0.544,0.547-0.544  h3.702c0.289,0,0.541,0.25,0.541,0.544V40.055z M57.585,50.508c0,0.294-0.261,0.542-0.567,0.542H27.755  c-0.307,0-0.565-0.247-0.565-0.542v-2.657c0-0.294,0.258-0.547,0.565-0.547h29.262c0.307,0,0.567,0.252,0.567,0.547V50.508z   M57.757,45.281c0,0.292-0.256,0.541-0.547,0.541h-3.7c-0.297,0-0.547-0.25-0.547-0.541v-2.657c0-0.297,0.25-0.544,0.547-0.544h3.7  c0.291,0,0.547,0.247,0.547,0.544V45.281z M57.757,40.055c0,0.294-0.256,0.544-0.547,0.544h-3.7c-0.297,0-0.547-0.25-0.547-0.544  v-2.66c0-0.294,0.25-0.544,0.547-0.544h3.7c0.291,0,0.547,0.25,0.547,0.544V40.055z M64.2,50.508c0,0.294-0.247,0.542-0.548,0.542  h-3.696c-0.294,0-0.547-0.247-0.547-0.542v-2.657c0-0.294,0.253-0.547,0.547-0.547h3.696c0.301,0,0.548,0.252,0.548,0.547V50.508z   M64.2,45.281c0,0.292-0.247,0.541-0.548,0.541h-3.696c-0.294,0-0.547-0.25-0.547-0.541v-2.657c0-0.297,0.253-0.544,0.547-0.544  h3.696c0.301,0,0.548,0.247,0.548,0.544V45.281z M63.652,40.599h-3.696c-0.294,0-0.547-0.25-0.547-0.544v-2.66  c0-0.294,0.253-0.544,0.547-0.544h3.696c0.301,0,0.548,0.25,0.548,0.544v2.66C64.2,40.35,63.953,40.599,63.652,40.599z"/>
<g>
	<path fill="#000000" d="M89.017,79.676v-4.654v-2.158v-5.548v-3.648v-1.021c0-0.619-0.243-1.199-0.679-1.638   s-1.016-0.673-1.635-0.673c-0.622,0-1.202,0.234-1.638,0.673c-0.442,0.436-0.683,1.019-0.683,1.641v1.019v0.187H83.95l0.003-3.345   c-0.003-1.28-1.04-2.317-2.32-2.319c-1.273,0.002-2.316,1.039-2.316,2.319v3.345h-0.43v-5.046c0-1.274-1.04-2.311-2.317-2.311   c-1.28,0-2.317,1.036-2.317,2.311v5.046h-0.42h-0.016V50.742c0-0.613-0.24-1.203-0.679-1.638c-0.433-0.439-1.016-0.676-1.632-0.676   l0,0c-1.283,0-2.32,1.04-2.32,2.316v18.326l-1.392-2.626c-0.463-0.869-1.355-1.409-2.341-1.409c-0.43,0-0.856,0.104-1.241,0.303   c-0.622,0.334-1.085,0.887-1.295,1.563c-0.211,0.673-0.142,1.394,0.188,2.013l6.218,11.745c0.346,1.169,1.293,2.059,2.44,2.355   v2.651c0,0.631,0.577,1.145,1.286,1.145h12.929c0.71,0,1.283-0.514,1.283-1.145v-2.984C88.313,82.09,89.017,80.96,89.017,79.676z"/>
</g>
</svg>