<svg xmlns="http://www.w3.org/2000/svg" xmlns:xlink="http://www.w3.org/1999/xlink" version="1.1" id="Layer_1" x="0px" y="0px" width="100px" height="100px" viewBox="0 0 100 100" enable-background="new 0 0 100 100" xml:space="preserve">
<path fill="#000000" d="M43.494,37.254v18.558h17.347V37.254H43.494z M52.17,49.343c-2.618,0-4.737-2.124-4.737-4.74  s2.119-4.736,4.737-4.736c2.615,0,4.73,2.121,4.73,4.736S54.785,49.343,52.17,49.343z"/>
<path fill="#000000" d="M52.17,41.769c-1.566,0-2.837,1.272-2.837,2.834c0,1.562,1.271,2.839,2.837,2.839  c1.561,0,2.836-1.277,2.836-2.839C55.006,43.041,53.73,41.769,52.17,41.769z M52.17,46.199c-0.882,0-1.598-0.717-1.598-1.596  c0-0.878,0.716-1.595,1.598-1.595c0.88,0,1.594,0.717,1.594,1.595C53.764,45.482,53.05,46.199,52.17,46.199z"/>
<polygon fill="#000000" points="65.721,10.613 62.082,14.252 65.721,17.893 55.265,17.893 55.265,10.613 "/>
<path fill="#000000" d="M51.477,19.271h0.032v-3.436V8.153C50.939,7.899,50.54,7.33,50.54,6.666c0-0.897,0.729-1.626,1.63-1.626  c0.897,0,1.627,0.729,1.627,1.626c0,0.665-0.4,1.234-0.97,1.487v7.683v3.436h0.032l7.095,10.509H44.382L51.477,19.271z"/>
<rect x="41.456" y="32.288" fill="#000000" width="21.427" height="2.583"/>
<rect x="24.561" y="64.069" fill="#000000" width="55.213" height="2.583"/>
<path fill="#000000" d="M78.341,90.203V69.159H25.995v21.044h-2.346v3.289h2.346h52.346h2.347v-3.289H78.341z M40.763,90.203h-4.438  V76.165h4.438V90.203z M49.846,90.203h-4.437V76.165h4.437V90.203z M58.929,90.203h-4.438V76.165h4.438V90.203z M68.012,90.203  h-4.439V76.165h4.439V90.203z"/>
<polygon fill="#000000" points="69.833,52.88 63.362,52.88 63.362,58.271 40.973,58.271 40.973,52.88 34.501,52.88 24.561,61.561   79.774,61.561 "/>
</svg>