<svg xmlns="http://www.w3.org/2000/svg" xmlns:xlink="http://www.w3.org/1999/xlink" version="1.1" id="Layer_1" x="0px" y="0px" width="100px" height="100px" viewBox="0 0 100 100" enable-background="new 0 0 100 100" xml:space="preserve">
<circle fill="#000000" cx="61.659" cy="89.6" r="3.151"/>
<circle fill="#000000" cx="38.764" cy="89.6" r="3.153"/>
<polygon fill="#000000" points="37.189,7.249 37.189,26.95 40.34,26.95 40.34,16.041 60.082,16.041 60.082,26.95 63.234,26.95   63.234,7.249 "/>
<path fill="#000000" d="M61.428,30.736H38.573c-5.201,0-9.456,4.256-9.456,9.456v36.011c0,3.812,2.292,7.109,5.563,8.603  c1.102-0.94,2.526-1.511,4.084-1.511c1.986,0,3.757,0.924,4.914,2.364h13.068c1.156-1.44,2.928-2.364,4.912-2.364  c1.486,0,2.85,0.52,3.928,1.382c3.129-1.548,5.297-4.766,5.297-8.474V40.192C70.883,34.992,66.629,30.736,61.428,30.736z   M38.053,44.256c0-1.433,0-5.556,0-5.556h8.107c0,0,0,3.87,0,5.555c0,2.764-4.054,4.022-4.054,4.022S38.053,47.019,38.053,44.256z   M46.386,75.56c-2.488,0-4.503-2.017-4.503-4.504c0-2.488,2.015-4.502,4.502-4.503c2.487,0.001,4.501,2.017,4.503,4.503  C50.888,73.543,48.874,75.56,46.386,75.56z M60.736,54.498l-7.496-2.43l3.039-9.367l7.494,2.43L60.736,54.498z"/>
</svg>