<svg xmlns="http://www.w3.org/2000/svg" xmlns:xlink="http://www.w3.org/1999/xlink" version="1.1" id="Layer_1" x="0px" y="0px" width="100px" height="100px" viewBox="0 0 100 100" enable-background="new 0 0 100 100" xml:space="preserve">
<path fill="#000000" d="M88.904,48.56l-3.111-6.143l-1.381-6.167l-0.503-0.849l-2.996-2.625l-0.098-0.191l-1.513-1.221l-2.107-1.848  l-0.443-0.21l-0.679-0.548l-7.867-1.348l-0.548-1.865l-1.555-1.141l-9.367,0.178l-0.424,0.066l-0.831,0.248l-3.516-2.313  l-0.645,0.095l-0.944-0.65l-1.158-0.259l-18.414,3.004l-0.924,1.775l-2.372,0.979l-6.094,1.19l-0.774,1.647l-1.514,0.626  l-0.438,7.174l2.549,6.899l-7.1,2.872l-0.98,1.276l-0.607,4.868l0.14,0.874l0.971,2.06l-2.76,3.377l3.792,8.301l0.881,7.22  l23.026,2.319l24.54-3.895l19.747-11.002l6.208-6.951L88.904,48.56z M56.766,26.17l9.367-0.176l2.157,7.336l-13.803,2.281  l-9.198-6.009L56.766,26.17z M49.475,23.336l4.121,2.834l-4.203,0.171l-14.271,8.431l-4.062-8.431L49.475,23.336z M29.753,28.709  l4.864,7.213l-2.077,2.609l-7.054-1.388l-3.767-6.868L29.753,28.709z M37.063,67.779l-6.003-1.7l-11.251,0.246l-5.68-12.048  l0.606-4.87l10.751-4.347l15.819,18.075L37.063,67.779z M45.289,51.427l-8.731-10.599l8.731-4.726l7.135,3.426l5.177,7.662  L45.289,51.427z M63.117,50.175L54.624,39.72l15.729-2.766l-1.122-7.377l6.919,1.134l6.712,5.885l1.772,7.915L63.117,50.175z"/>
</svg>