<svg xmlns="http://www.w3.org/2000/svg" xmlns:xlink="http://www.w3.org/1999/xlink" version="1.1" id="Layer_1" x="0px" y="0px" width="100px" height="100px" viewBox="0 0 100 100" enable-background="new 0 0 100 100" xml:space="preserve">
<polygon fill="#000000" points="63.967,31.359 63.967,31.36 70.678,38.072 70.679,38.071 79.99,47.384 88.652,38.722 72.627,22.698   57.18,17.646 53.717,21.11 63.967,31.359 "/>
<rect x="55.636" y="34.341" transform="matrix(0.7071 0.7071 -0.7071 0.7071 47.1416 -30.4944)" fill="#000000" width="9.491" height="14.634"/>
<rect x="29.339" y="53.793" transform="matrix(-0.7071 -0.7071 0.7071 -0.7071 10.1367 140.107)" fill="#000000" width="9.493" height="28.323"/>
<path fill="#000000" d="M64.328,59.488L40.538,35.696l2.07-7.727l-10.03-10.03l-7.728,2.07l8.101,8.102l-1.6,5.973l-5.973,1.6  l-8.102-8.102l-2.072,7.729l10.031,10.03l7.729-2.071l23.789,23.792l-2.07,7.729l10.029,10.029l7.729-2.07l-8.102-8.102l1.602-5.973  l5.971-1.602l8.102,8.104l2.07-7.729L72.057,57.418L64.328,59.488z M38.91,43.437c-0.966,0-1.75-0.783-1.75-1.75  s0.784-1.75,1.75-1.75s1.75,0.783,1.75,1.75S39.875,43.437,38.91,43.437z M58.395,62.832c-0.967,0-1.75-0.783-1.75-1.75  s0.783-1.75,1.75-1.75s1.75,0.783,1.75,1.75S59.361,62.832,58.395,62.832z"/>
</svg>