<svg xmlns="http://www.w3.org/2000/svg" xmlns:xlink="http://www.w3.org/1999/xlink" version="1.1" id="Layer_1" x="0px" y="0px" width="100px" height="100px" viewBox="0 0 100 100" enable-background="new 0 0 100 100" xml:space="preserve">
<path fill="#000000" d="M75.293,73.921l0.004-49.42h-8.302V5.137l-39.7,16.961c-1.749,0.906-2.59,1.979-2.59,2.982  c0,0-0.001,46.49-0.001,46.503c0,9.225,5.628,16.183,14.325,16.183H59.71v7.096l5.018-5.778l4.788,5.778v-7.096h5.781L75.293,73.921  z M30.813,28.53l16.693-7.156v2.666l-16.693,7.156V28.53z M30.813,34.158l16.693-7.156v2.665l-16.693,7.156V34.158z M39.458,85.139  c-5.87,0-10.645-4.775-10.645-10.646c0-4.31,2.572-8.168,6.55-9.826c1.082-0.452,29.591-12.969,29.842-13.076l0.002,2.9  c0,0-27.721,12.177-28.819,12.635c-2.982,1.244-4.91,4.135-4.91,7.367c0,4.399,3.58,7.979,7.979,7.979H59.71v2.667H39.458z   M35.211,77.139H59.71v2.664h-0.589H39.865C37.881,79.803,36.151,78.73,35.211,77.139z M72.63,85.139h-3.114v-2.667h3.114V85.139z   M72.63,79.803h-3.114v-2.664h3.114V79.803z M72.63,74.426l-38.169,0.002c0-0.011-0.001-0.021-0.001-0.029  c0-0.961,0.263-1.856,0.702-2.638H72.63V74.426z M72.63,69.105H38.524l26.989-11.852c0.903-0.389,1.482-1.247,1.482-2.197V27.161  h5.635V69.105z"/>
</svg>