<svg xmlns="http://www.w3.org/2000/svg" xmlns:xlink="http://www.w3.org/1999/xlink" version="1.1" id="Layer_1" x="0px" y="0px" width="100px" height="100px" viewBox="0 0 100 100" enable-background="new 0 0 100 100" xml:space="preserve">
<path fill="#000000" d="M83.546,32.828l-6.238-12.476h-1.379v-3.589h-6.385v3.589h-0.918l-3.468-6.938H44.964V10.38h-3.513v3.034  h-2.477l-3.47,6.938H34.27v-3.589h-6.385v3.589h-1.058l-6.24,12.476h-2.278v4.108h67.198v-4.108H83.546z M34.448,32.718  l-6.491-0.006l-0.021-5.254c0.052-1.24,1.489-2.232,3.256-2.232s3.204,0.992,3.254,2.232h0.003V32.718z M59.556,30.946h-6.159v-6.79  c3.487,0.475,6.159,2.978,6.159,5.993V30.946z M50.771,30.946h-6.51V30.15c0-2.812,2.955-5.399,6.51-5.964V30.946z M64.134,32.817  h-2.688V30.15c0-4.241-3.981-7.972-9.246-7.972c-5.271,0-9.831,3.731-9.831,7.972v2.667h-2.688v-3.338  c0-5.309,5.474-9.615,12.229-9.615c6.749,0,12.224,4.306,12.224,9.615V32.817z M76.585,32.718l-6.51-0.006v-5.254  c0.049-1.24,1.487-2.232,3.255-2.232c1.767,0,3.203,0.992,3.255,2.232V32.718z"/>
<path fill="#000000" d="M20.222,39.563v44.84H83.43v-44.84H20.222z M38.312,75.614l-8.335-0.007l-0.029-9.644  c0.068-1.59,1.912-2.871,4.181-2.871c2.268,0,4.115,1.281,4.181,2.871h0.003V75.614z M38.312,59.22h-8.335l-0.029-9.652  c0.068-1.588,1.912-2.862,4.181-2.862c2.268,0,4.115,1.274,4.181,2.862h0.003V59.22z M50.161,75.614l-8.335-0.007l-0.028-9.644  c0.066-1.59,1.912-2.871,4.18-2.871s4.113,1.281,4.181,2.871h0.003V75.614z M50.161,59.22h-8.335l-0.028-9.652  c0.066-1.588,1.912-2.862,4.18-2.862s4.113,1.274,4.181,2.862h0.003V59.22z M62.011,75.614l-8.337-0.007l-0.027-9.644  c0.065-1.59,1.911-2.871,4.181-2.871c2.268,0,4.111,1.281,4.18,2.871h0.004V75.614z M62.011,59.22h-8.337l-0.027-9.652  c0.065-1.588,1.911-2.862,4.181-2.862c2.268,0,4.111,1.274,4.18,2.862h0.004V59.22z M73.859,75.614l-8.336-0.007l-0.028-9.644  c0.068-1.59,1.912-2.871,4.18-2.871c2.271,0,4.119,1.275,4.185,2.864V75.614z M73.859,59.22h-8.336l-0.028-9.652  c0.068-1.588,1.912-2.862,4.18-2.862c2.271,0,4.116,1.274,4.182,2.862h0.003V59.22z"/>
<path fill="#000000" d="M32.276,72.886l-0.02-6.249c0.013-0.245,0.733-0.819,1.872-0.819c1.14,0,1.86,0.572,1.872,0.885  c0.002,0.01,0.003,6.187,0.003,6.187L32.276,72.886z"/>
<path fill="#000000" d="M32.276,56.497l-0.02-6.254c0.013-0.244,0.733-0.814,1.872-0.814c1.14,0,1.86,0.568,1.872,0.879  c0.002,0.01,0.003,6.189,0.003,6.189H32.276z"/>
<path fill="#000000" d="M44.125,72.886l-0.02-6.249c0.013-0.245,0.734-0.819,1.873-0.819s1.859,0.574,1.873,0.887  c0,0.01,0.001,6.185,0.001,6.185L44.125,72.886z"/>
<path fill="#000000" d="M44.125,56.497l-0.02-6.254c0.013-0.244,0.733-0.814,1.873-0.814c1.139,0,1.859,0.57,1.873,0.881  c0,0.01,0.001,6.188,0.001,6.188H44.125z"/>
<path fill="#000000" d="M55.973,72.886l-0.017-6.248c0.011-0.248,0.731-0.82,1.871-0.82c1.139,0,1.859,0.574,1.873,0.887  c0,0.014,0.002,6.185,0.002,6.185L55.973,72.886z"/>
<path fill="#000000" d="M55.973,56.497l-0.017-6.254c0.011-0.246,0.731-0.814,1.871-0.814c1.139,0,1.859,0.57,1.873,0.881  c0,0.014,0.002,6.188,0.002,6.188H55.973z"/>
<path fill="#000000" d="M67.822,72.886l-0.019-6.249c0.012-0.245,0.733-0.819,1.872-0.819c1.142,0,1.863,0.57,1.876,0.879  l-0.001,6.192L67.822,72.886z"/>
<path fill="#000000" d="M67.822,56.497l-0.019-6.254c0.012-0.244,0.733-0.814,1.872-0.814c1.14,0,1.861,0.568,1.874,0.879  c0,0.006,0,6.189,0,6.189H67.822z"/>
<rect x="18.309" y="86.993" fill="#000000" width="67.198" height="2.627"/>
</svg>