<svg xmlns="http://www.w3.org/2000/svg" xmlns:xlink="http://www.w3.org/1999/xlink" version="1.1" id="Layer_1" x="0px" y="0px" width="100px" height="100px" viewBox="0 0 100 100" enable-background="new 0 0 100 100" xml:space="preserve">
<path fill="#000000" d="M45.277,70.425v14.54h14.541v-14.54H45.277z M56.346,81.689h-7.792V80.46h1.504v-3.547l-1.189,0.505  l1.631-3.865l1.631,3.865l-1.191-0.505v3.547h3.188v-3.547l-1.19,0.505l1.631-3.865l1.631,3.865l-1.19-0.505v3.547h1.338V81.689z"/>
<path fill="#000000" d="M80.651,42.856c0.065-0.154,0.102-0.322,0.102-0.5l-0.001-1.965c-0.799-16.753-13.163-29.877-28.148-29.877  s-27.35,13.124-28.151,29.938v2.099c0,0.413,0.199,0.775,0.501,1.009l15.804,23.911V88.28c0,0.666,0.541,1.205,1.205,1.205h21.169  c0.665,0,1.205-0.539,1.205-1.205V67.474l16.112-24.212C80.54,43.14,80.613,43.006,80.651,42.856z M62.487,65.905h-2.336  l6.947-23.67c0.772-2.411,2.991-4.031,5.524-4.031c2.564,0,4.818,1.718,5.544,4.14L62.487,65.905z M53.808,65.905V42.1  c0.813-2.333,2.985-3.895,5.468-3.895c2.423,0,4.544,1.49,5.4,3.727l-7.034,23.974H53.808z M47.371,65.905l-6.842-23.968  c0.856-2.24,2.979-3.732,5.402-3.732c2.482,0,4.656,1.562,5.469,3.895v23.806H47.371z M52.067,13.089  c0.171-0.09,0.362-0.146,0.569-0.146c4.597,0,8.99,1.453,12.823,4.044c3.113,2.045,5.819,4.804,7.925,8.092  c-0.099-0.108-0.203-0.21-0.304-0.316c1.826,2.74,3.292,5.873,4.29,9.317c0.189,0.652-0.188,1.335-0.84,1.524  c-0.114,0.033-0.23,0.049-0.342,0.049c-0.535,0-1.026-0.35-1.183-0.888c-2.466-8.512-7.978-14.965-14.706-17.791  c-2.449-0.697-5.03-1.075-7.697-1.075c-8.196,0-15.602,3.52-20.755,9.153C36.42,17.927,43.781,13.283,52.067,13.089z M32.585,38.205  c2.532,0,4.751,1.619,5.523,4.031l6.757,23.67H42.61L27.036,42.343C27.764,39.92,30.019,38.205,32.585,38.205z M61.928,87.077  H43.166V68.314h3.293h0.002c0.001,0,0.002,0,0.003,0h12.077c0.001,0,0.002,0,0.002,0c0.002,0,0.002,0,0.003,0h3.382V87.077z"/>
</svg>