<svg xmlns="http://www.w3.org/2000/svg" xmlns:xlink="http://www.w3.org/1999/xlink" version="1.1" id="Layer_1" x="0px" y="0px" width="100px" height="100px" viewBox="0 0 100 100" enable-background="new 0 0 100 100" xml:space="preserve">
<path fill="#000000" d="M53.873,71.974l0.777,8.776c-1.695,1.191-15.421,0.087-23.247-11.749l9.234-5.106  C40.638,63.895,46.69,70.749,53.873,71.974z"/>
<path fill="#000000" d="M39.185,60.875c19.737-6.686,26.532-18.169,26.532-24.042c0-5.873-7.426-10.737-14.289-10.737H5.307  C5.37,28,5.587,29.863,5.931,31.677l10.154,0.015c0.845,0,1.529,0.686,1.528,1.53c0,0.845-0.686,1.529-1.529,1.529  c0,0-0.001,0-0.002,0l-9.432-0.013c0.365,1.292,0.806,2.552,1.307,3.778l12.601,0.02c0.845,0,1.529,0.686,1.529,1.531  c-0.001,0.844-0.687,1.528-1.53,1.528c-0.001,0-0.002,0-0.002,0L9.377,41.578C13.221,51.14,39.185,43.486,39.185,60.875z"/>
<path fill="#000000" d="M94.693,32.455c-4.07-5.795-12.07-7.194-17.863-3.125c-3.395,2.385-6.826,4.822-8.131,9.32  c-4.605,15.871-21.786,22.937-25.338,23.652c12.209,13.135,30.672,6.606,38.016-0.448c6.467-6.213,6.096-12.043,3.109-18.441  C81.502,37.018,94.693,32.455,94.693,32.455z"/>
<path fill="#000000" d="M68.066,31.526c-0.186-0.187-0.424-0.459-0.721-0.803c-2.02-2.343-7.385-8.568-19.479-8.568H20.141v-3.278  h27.727c13.596,0,19.674,7.051,21.963,9.706c0.227,0.266,0.41,0.481,0.557,0.625L68.066,31.526z"/>
</svg>