<svg xmlns="http://www.w3.org/2000/svg" xmlns:xlink="http://www.w3.org/1999/xlink" version="1.1" id="Layer_1" x="0px" y="0px" width="100px" height="100px" viewBox="0 0 100 100" enable-background="new 0 0 100 100" xml:space="preserve">
<path fill="#000000" d="M53.977,27.282c4.021,0,5.567-1.703,7.271-3.404c1.702-1.702,8.511-7.581,4.487-9.902  c-4.023-2.32-7.755,2.655-7.755,2.655c-0.756,1.008-1.791,0.89-2.301-0.262c0,0-3.867-8.736-8.201-8.736  c-4.333,0-4.176,7.891-5.879,8.819c-1.702,0.928-6.449-3.529-8.509-0.154c-1.529,2.503,0.915,4.669,0.915,4.669  c0.942,0.835,2.431,2.259,3.307,3.165c0,0,3.049,3.151,5.369,3.151C45.002,27.282,53.977,27.282,53.977,27.282z"/>
<path fill="#000000" d="M82.567,85.117c0,0-6.003-20.238-8.014-33.699C72.543,37.958,58.927,31.15,54.283,31.15s-3.162,0-8.687,0  c-5.524,0-18.259,6.807-20.271,20.268c-2.01,13.461-8.013,33.699-8.013,33.699c-0.358,1.207,0.264,2.669,1.383,3.247  c0,0,6.064,3.128,29.71,3.356v-6.944c0-0.642-0.383-1.524-0.853-1.962l-2.562-2.39c-0.469-0.438-0.853-1.32-0.853-1.962v-1.777  c0-0.641,0.397-0.822,0.883-0.404l4.034,3.484c0.485,0.42,1.28,0.42,1.766,0.001l4.04-3.485c0.485-0.419,0.883-0.236,0.883,0.404  v1.777c0,0.642-0.384,1.524-0.853,1.962l-2.562,2.39c-0.47,0.438-0.854,1.32-0.854,1.962v6.958  c25.666-0.025,29.889-3.078,29.889-3.078C82.384,87.918,82.926,86.325,82.567,85.117z M42.453,48.45  c0.062-0.542,0.453-0.698,0.87-0.347l4.542,3.826c0.417,0.352,0.759,1.086,0.759,1.631v3.633c0,0.546-0.335,0.697-0.744,0.336  c0,0-3.991-3.523-4.918-4.451C42.036,52.152,42.453,48.45,42.453,48.45z M48.553,74.913c0,0.546-0.334,0.696-0.742,0.333  c0,0-4.261-3.785-4.921-4.445c-0.658-0.658-0.449-4.625-0.449-4.625c0.029-0.545,0.394-0.703,0.811-0.352l4.542,3.826  c0.417,0.352,0.759,1.086,0.759,1.632V74.913z M48.646,66.14c0,0.546-0.335,0.696-0.744,0.336c0,0-4.004-3.533-4.919-4.447  c-0.913-0.914-0.505-4.628-0.505-4.628c0.06-0.543,0.45-0.699,0.867-0.348l4.542,3.826c0.417,0.352,0.759,1.085,0.759,1.631V66.14z   M50.71,48.372c-0.424,0.343-1.119,0.343-1.543,0l-2.051-1.66c-0.424-0.343-0.564-1.019-0.31-1.502l2.67-5.074  c0.254-0.483,0.67-0.483,0.924,0l2.672,5.074c0.255,0.483,0.115,1.159-0.31,1.502L50.71,48.372z M56.842,70.801  c-1.053,0.949-4.926,4.44-4.926,4.44c-0.406,0.365-0.737,0.218-0.737-0.328v-3.631c0-0.546,0.341-1.28,0.759-1.632l4.541-3.826  c0.418-0.352,0.82-0.196,0.896,0.344C57.375,66.168,57.894,69.853,56.842,70.801z M51.271,66.14v-3.63  c0-0.546,0.342-1.279,0.758-1.631l4.542-3.826c0.417-0.352,0.799-0.194,0.847,0.35c0,0,0.34,3.801-0.484,4.626  s-4.919,4.446-4.919,4.446C51.605,66.836,51.271,66.686,51.271,66.14z M56.913,53.078c-0.94,0.848-4.927,4.443-4.927,4.443  c-0.404,0.365-0.736,0.218-0.736-0.328v-3.633c0-0.545,0.342-1.279,0.759-1.631l4.541-3.826c0.417-0.352,0.81-0.195,0.872,0.347  C57.422,48.45,57.854,52.23,56.913,53.078z"/>
</svg>