<svg xmlns="http://www.w3.org/2000/svg" xmlns:xlink="http://www.w3.org/1999/xlink" version="1.1" id="Layer_1" x="0px" y="0px" width="100px" height="100px" viewBox="0 0 100 100" enable-background="new 0 0 100 100" xml:space="preserve">
<path fill="#000000" d="M50,28.651c4.166,0,7.221-0.995,8.332-1.936l6.072-13.256c0-3.433-6.449-6.216-14.404-6.216  s-14.403,2.783-14.403,6.216l6.14,13.312C42.903,27.695,45.917,28.651,50,28.651z"/>
<path fill="#000000" d="M50,4.512c8.516,0,17.137,3.073,17.137,8.947v0.595l-5.893,12.863c0.699,0.944,1.395,1.875,2.082,2.797  c8.877,11.889,16.543,22.156,16.542,35.904c0,16.47-13.399,29.868-29.868,29.868S20.132,82.088,20.132,65.618  c0-13.354,7.623-23.66,16.449-35.594c0.741-1.002,1.49-2.016,2.244-3.043l-5.96-12.923v-0.6C32.865,7.585,41.485,4.512,50,4.512   M50,1.78c-9.568,0-19.866,3.655-19.866,11.679v0.6c0,0.395,0.085,0.785,0.251,1.144l5.285,11.458  c-0.415,0.562-0.827,1.12-1.237,1.675L34.385,28.4C25.271,40.723,17.4,51.364,17.4,65.618c0,17.976,14.624,32.601,32.6,32.601  c17.977,0,32.6-14.625,32.6-32.601c0.002-14.656-7.916-25.26-17.084-37.539l-0.062-0.083c-0.35-0.468-0.7-0.938-1.053-1.412  l5.219-11.394c0.163-0.357,0.248-0.745,0.248-1.138v-0.595C69.867,5.435,59.568,1.78,50,1.78L50,1.78z"/>
<path fill="#000000" d="M59,28.473c-1.979,1.317-5.499,1.999-9,1.999c-3.455,0-6.929-0.665-8.922-1.948  c-9.472,12.914-18.215,23.537-18.215,37.094c0,14.473,11.33,26.295,25.603,27.091v-8.375l-4.269-3.98v-4.109l5.8,5.009l5.805-5.009  v4.109l-4.268,3.98v8.375c14.272-0.796,25.603-12.619,25.603-27.091C77.137,51.725,68.467,41.246,59,28.473z M42.625,48.188  l6.06,5.105v5.616c0,0-4.735-4.181-5.663-5.106C42.096,52.876,42.625,48.188,42.625,48.188z M48.613,76.629  c0,0-5.003-4.443-5.663-5.104c-0.658-0.66-0.396-5.616-0.396-5.616l6.06,5.104L48.613,76.629L48.613,76.629z M48.706,67.855  c0,0-4.748-4.189-5.663-5.104c-0.913-0.914-0.396-5.615-0.396-5.615l6.06,5.104L48.706,67.855L48.706,67.855z M46.404,46.811  l3.594-6.829l3.598,6.829l-3.598,2.908L46.404,46.811z M56.9,71.525c-1.051,0.949-5.662,5.104-5.662,5.104v-5.615l6.059-5.104  C57.297,65.909,57.953,70.576,56.9,71.525z M56.994,62.752c-0.824,0.824-5.662,5.104-5.662,5.104v-5.613l6.059-5.104  C57.391,57.137,57.818,61.928,56.994,62.752z M56.973,53.803c-0.938,0.848-5.662,5.106-5.662,5.106v-5.616l6.06-5.105  C57.369,48.188,57.914,52.954,56.973,53.803z"/>
</svg>