<?xml version="1.0" encoding="utf-8"?>
<!-- Generator: Adobe Illustrator 14.0.0, SVG Export Plug-In . SVG Version: 6.00 Build 43363)  -->
<!DOCTYPE svg PUBLIC "-//W3C//DTD SVG 1.0//EN" "http://www.w3.org/TR/2001/REC-SVG-20010904/DTD/svg10.dtd">
<svg version="1.0" id="Layer_1" xmlns="http://www.w3.org/2000/svg" xmlns:xlink="http://www.w3.org/1999/xlink" x="0px" y="0px"
	 width="72.976px" height="100px" viewBox="0 0 72.976 100" enable-background="new 0 0 72.976 100" xml:space="preserve">
<path d="M45.478,47.563l26.325,4.769l1.173-6.473L46.649,41.09c-0.195-8.899-7.49-16.08-16.436-16.08
	c-0.796,0-1.578,0.06-2.344,0.169L18.838,0l-6.192,2.221l9.033,25.182c-4.739,2.889-7.91,8.107-7.91,14.052
	c0,3.833,1.321,7.361,3.528,10.16L0,72.036l5.019,4.251l17.292-20.414c1.423,0.783,2.975,1.358,4.613,1.692v35.857H10.479V100
	h39.468v-6.578H33.503V57.568C38.962,56.455,43.444,52.628,45.478,47.563z M26.711,50.678c-2.116-0.806-3.886-2.321-5.017-4.254
	c-0.855-1.46-1.348-3.158-1.348-4.969c0-3.078,1.417-5.83,3.632-7.641c1.69-1.382,3.845-2.215,6.19-2.225
	c0.015,0,0.029-0.001,0.045-0.001c4.903,0,8.981,3.596,9.739,8.289c0.083,0.514,0.127,1.041,0.127,1.578
	c0,1.78-0.476,3.45-1.304,4.894c-1.703,2.968-4.902,4.974-8.562,4.974C28.98,51.323,27.801,51.093,26.711,50.678z"/>
</svg>
