<svg xmlns="http://www.w3.org/2000/svg" xmlns:xlink="http://www.w3.org/1999/xlink" version="1.1" id="Layer_1" x="0px" y="0px" width="100px" height="100px" viewBox="0 0 100 100" enable-background="new 0 0 100 100" xml:space="preserve">
<g>
	<path fill="#000000" d="M65.613,0H34.387c-5.382,0-9.76,3.874-9.76,8.636v82.563c0,4.762,4.378,8.636,9.76,8.636h31.226   c5.381,0,9.76-3.874,9.76-8.636V8.635C75.373,3.874,70.994,0,65.613,0z M34.387,1.774h31.226c0.535,0,1.057,0.047,1.562,0.134   c3.684,0.831,6.414,3.749,6.414,7.22V19.66c-5.299,1.486-10.805,3.083-16.461,3.895c-0.361-0.068-0.717-0.122-1.053-0.147   l-0.004-0.006c-1.877-0.27-2.209-0.977-2.254-1.455c-0.004-0.033-0.012-0.06-0.018-0.088c2.152-1.441,3.57-4.009,3.57-6.959   c0-4.44-3.207-8.03-7.304-8.185c-0.054-0.008-0.109-0.008-0.162-0.001c-4.085,0.171-7.277,3.754-7.277,8.184   c0,2.993,1.459,5.595,3.662,7.024c-0.001,0.009-0.004,0.017-0.004,0.026c-0.045,0.478-0.376,1.185-2.255,1.455l0,0.001   c-0.367,0.024-0.756,0.079-1.155,0.153c-5.659-0.811-11.165-2.408-16.466-3.896V9.128c0-3.472,2.732-6.39,6.416-7.221   C33.331,1.821,33.853,1.774,34.387,1.774z M44.257,24.6c0.886-0.133,1.528-0.373,2.006-0.664c0.622-0.38,0.959-0.851,1.117-1.314   c0.072,0,0.152-0.002,0.239-0.004c0.011,0,0.026,0,0.038,0c0.703,0.268,1.456,0.431,2.241,0.464   c0.027,0.003,0.056,0.005,0.083,0.005c0.011,0,0.029,0,0.041,0c0.028,0,0.056-0.002,0.082-0.005   c0.789-0.033,1.541-0.197,2.246-0.466c0.043,0,0.094,0.001,0.135,0.002c0.086,0.002,0.166,0.003,0.238,0.004   c0.156,0.46,0.49,0.929,1.105,1.307c0.467,0.287,1.09,0.524,1.947,0.66c0.066,0.017,0.135,0.029,0.207,0.034   c2.777,0.214,7.588,2.286,8.707,6.934l1.785,10.994l0.143,0.875l0.143,0.877l1.02,6.277c0.287,1.609-0.764,2.192-1.693,2.396   c-0.256,0.057-0.498,0.085-0.721,0.085c-1.461,0-1.9-1.295-2.037-2.09l-1.168-6.12l-0.168-0.879l-0.168-0.879l-1.854-9.706   c-0.111-0.581-0.617-0.991-1.195-0.991c-0.047,0-0.096,0.003-0.143,0.008c-0.635,0.074-1.105,0.625-1.078,1.263l0.006,0.123   c0,0.029,0.004,0.058,0.008,0.086l1.053,9.25l0.039,0.353l-8.57,0.286h-0.182l-8.57-0.286l0.04-0.353l1.054-9.25   c0.003-0.031,0.005-0.062,0.006-0.092l0.005-0.122c0.024-0.637-0.447-1.186-1.081-1.258c-0.047-0.005-0.093-0.008-0.139-0.008   c-0.578,0-1.086,0.411-1.197,0.991l-1.853,9.704l-0.167,0.88l-0.168,0.879l-1.174,6.147c-0.131,0.771-0.569,2.064-2.031,2.064   c-0.223,0-0.464-0.028-0.719-0.085c-0.932-0.204-1.981-0.787-1.691-2.416l1.017-6.258l0.142-0.877l0.143-0.875l1.785-10.993   c1.135-4.713,5.994-6.757,8.798-6.938C44.159,24.616,44.208,24.609,44.257,24.6z M52.107,21.393   c-0.654,0.278-1.361,0.447-2.106,0.473c-0.743-0.025-1.449-0.194-2.104-0.471c-2.383-1.007-4.05-3.525-4.05-6.499   c0-3.779,2.69-6.833,6.128-6.966c0.008,0,0.016,0,0.024,0.001c3.451,0.12,6.152,3.18,6.152,6.968   C56.152,17.87,54.488,20.385,52.107,21.393z M26.431,43.183c1.874,0.12,3.404,0.434,5.009,0.762c0.2,0.041,0.402,0.082,0.603,0.123   l-1.022,6.297c-0.347,1.943,0.671,3.37,2.632,3.802c0.35,0.078,0.677,0.112,0.982,0.112c1.9,0,2.948-1.402,3.233-3.079l1.205-6.311   c0.207,0.003,0.404,0.011,0.619,0.011h7.672l2.525,0.084h0.224l2.525-0.084h7.707c0.203,0,0.389-0.007,0.584-0.01l1.203,6.31   c0.285,1.677,1.334,3.079,3.234,3.079c0.305,0,0.633-0.034,0.982-0.112c1.961-0.433,2.979-1.859,2.631-3.802l-1.021-6.298   c0.199-0.041,0.398-0.081,0.596-0.122c1.604-0.332,3.129-0.647,5.018-0.765v47.92c0,3.782-3.584,6.859-7.988,6.859H34.418   c-4.404,0-7.987-3.077-7.987-6.859V43.183z"/>
	<polygon fill="#000000" points="46.489,81.219 53.512,81.219 53.512,74.011 60.719,74.011 60.719,66.989 53.512,66.989    53.512,59.781 46.489,59.781 46.489,66.989 39.28,66.989 39.28,74.011 46.489,74.011  "/>
</g>
</svg>