<svg xmlns="http://www.w3.org/2000/svg" xmlns:xlink="http://www.w3.org/1999/xlink" version="1.1" id="Layer_1" x="0px" y="0px" width="77.2727272727px" height="100px" viewBox="0 0 612 792" enable-background="new 0 0 612 792" xml:space="preserve">
<path fill="#000000" d="M372.728,162H126v468h360V275.272L372.728,162z M378,192.728L455.272,270H378V192.728z M144,612V180h216v108  h108v324H144z"/>
<path fill="#000000" d="M414,400.5l-45,16.875v-27.031c10.958-8.653,18-22.047,18-37.094c0-26.096-21.154-47.25-47.25-47.25  c-15.734,0-29.662,7.697-38.25,19.523C292.912,313.697,278.984,306,263.25,306c-26.096,0-47.25,21.154-47.25,47.25  c0,15.047,7.042,28.44,18,37.094v75.224c0,3.263,2.7,5.933,6,5.933h38.704l-30.071,54.129c-2.414,4.346-0.849,9.824,3.496,12.238  c1.385,0.77,2.884,1.135,4.363,1.135c3.162,0,6.23-1.671,7.875-4.631l28.133-50.639V548c0,4.971,4.029,9,9,9s9-4.029,9-9v-64.268  l28.133,50.639c1.645,2.96,4.713,4.631,7.875,4.631c1.479,0,2.979-0.365,4.363-1.135c4.345-2.414,5.91-7.893,3.496-12.238  L324.296,471.5H363c3.3,0,6-2.67,6-5.933v-27.942l45,16.875V400.5z"/>
</svg>