<?xml version="1.0" encoding="utf-8"?>
<!-- Generator: Adobe Illustrator 15.1.0, SVG Export Plug-In . SVG Version: 6.00 Build 0)  -->
<!DOCTYPE svg PUBLIC "-//W3C//DTD SVG 1.1//EN" "http://www.w3.org/Graphics/SVG/1.1/DTD/svg11.dtd">
<svg version="1.1" id="Layer_1" xmlns="http://www.w3.org/2000/svg" xmlns:xlink="http://www.w3.org/1999/xlink" x="0px" y="0px"
	 width="33.334px" height="100px" viewBox="0 0 33.334 100" enable-background="new 0 0 33.334 100" xml:space="preserve">
<path d="M19.445,41.667l11.11-11.111c2.778-2.778,2.778-2.778,2.778-13.889l-11.111,11.11
	C19.445,30.556,19.445,30.556,19.445,41.667z"/>
<path d="M33.334,0L22.223,11.111c-2.777,2.777-2.777,2.777-2.777,13.889l11.11-11.111C33.334,11.111,33.334,11.111,33.334,0z"/>
<path d="M13.89,41.667c0-11.111,0-11.111-2.778-13.89L0,16.667c0,11.11,0,11.11,2.778,13.889L13.89,41.667z"/>
<path d="M19.445,58.333l11.11-11.11c2.778-2.778,2.778-2.778,2.778-13.89L22.223,44.444C19.445,47.223,19.445,47.223,19.445,58.333z
	"/>
<path d="M13.89,58.333c0-11.11,0-11.11-2.778-13.889L0,33.333c0,11.111,0,11.111,2.778,13.89L13.89,58.333z"/>
<path d="M19.445,75l11.11-11.111c2.778-2.777,2.778-2.777,2.778-13.889L22.223,61.111C19.445,63.889,19.445,63.889,19.445,75z"/>
<path d="M13.89,75c0-11.111,0-11.111-2.778-13.889L0,50c0,11.111,0,11.111,2.778,13.889L13.89,75z"/>
<path d="M13.89,25c0-11.111,0-11.111-2.778-13.889L0,0c0,11.111,0,11.111,2.778,13.889L13.89,25z"/>
<path d="M16.667,83.333L0,66.667c0,11.11,0,11.11,2.778,13.889L13.89,91.667V100h5.556v-8.333l11.11-11.111
	c2.778-2.778,2.778-2.778,2.778-13.889L16.667,83.333z"/>
</svg>
