<svg xmlns="http://www.w3.org/2000/svg" xmlns:xlink="http://www.w3.org/1999/xlink" version="1.1" id="Layer_1" x="0px" y="0px" width="100px" height="100px" viewBox="0 0 100 100" enable-background="new 0 0 100 100" xml:space="preserve">
<path d="M0.547,45.317l12.323,8.587v8.032v3.935v8.882c0,1.131,0.739,1.541,1.649,0.915l14.902-10.229l6.335,4.415  c0.907,0.631,2.372,0.623,3.272-0.018l60.327-43.014c0.9-0.642,0.757-1.004-0.32-0.808L0.854,43.819  C-0.223,44.015-0.36,44.686,0.547,45.317z M21.061,59.61l-0.032,0.015l-5.436,7.463v-5.179v-8.414v-0.354l12.378-3.777l64.013-19.53  L40.988,51.245L21.061,59.61z"/>
</svg>