<svg xmlns="http://www.w3.org/2000/svg" xmlns:xlink="http://www.w3.org/1999/xlink" version="1.1" id="Layer_1" x="0px" y="0px" width="100px" height="100px" viewBox="0 0 100 100" enable-background="new 0 0 100 100" xml:space="preserve">
<g>
	<path d="M-141.12,41.063c-0.068-9.859-3.511-19.161-9.702-26.201c-6.463-7.351-15.13-11.398-24.399-11.398   c-7.589,0-14.77,2.702-20.764,7.813c-1.795,1.531-3.425,3.243-4.892,5.098l-2.751,2.375c-1.203-0.711-2.372-1.264-4.372-1.622   V7.536c0-2.092-1.407-3.79-3.5-3.79c-2.094,0-3.5,1.697-3.5,3.79v9.592c-2,0.358-2.512,0.903-3.715,1.614l-6.691-6.783   c-1.479-1.48-3.833-1.48-5.312,0c-1.479,1.479-1.458,3.879,0.022,5.359l6.794,7.281c-0.711,1.205-1.245,3.4-1.602,4.4h-9.593   c-2.094,0-3.789,1.407-3.789,3.499c0,2.094,1.695,3.501,3.789,3.501h9.593c0.357,1,0.902,2.485,1.613,3.688l-6.782,6.676   c-1.479,1.48-1.479,3.827,0,5.306c0.74,0.74,1.71,1.084,2.68,1.084c0.971,0,1.939-0.383,2.678-1.123l5.458-5.536   C-218.968,56.145-210.509,64-200.234,64h36.382c12.537,0,22.737-10.152,22.737-22.689   C-141.115,41.212-141.117,41.161-141.12,41.063z M-214.324,30.62c-1.772,1.812-3.151,3.91-4.101,6.186   c-0.954-1.439-1.513-3.162-1.513-5.018c0-5.022,4.072-9.094,9.095-9.094c1.917,0,3.693,0.597,5.16,1.609   c-0.198,0.439-0.402,0.876-0.585,1.324C-209.289,26.596-212.05,28.292-214.324,30.62z M-165,56.676V57h-35.233   c-6.696,0-12.125-5.672-12.125-12.369c0-6.597,5.267-12.077,11.823-12.239c3.379-12.303,13.434-21.289,25.313-21.289   c14.603,0,26.444,13.453,26.522,30.117c0,0.056-0.569,0.177-0.569,0.234C-149.269,49.826-156,56.676-165,56.676z"/>
	<g>
		<path d="M264.409,67.314c-1.871-0.938-4.148-0.178-5.083,1.693l-7.579,15.158c-0.937,1.871-0.179,4.148,1.692,5.084    c0.546,0.271,1.124,0.402,1.692,0.402c1.391,0,2.729-0.77,3.394-2.098l7.578-15.156C267.04,70.525,266.281,68.25,264.409,67.314z"/>
		<path d="M279.566,67.312c-1.871-0.936-4.148-0.176-5.084,1.695l-7.579,15.158c-0.935,1.871-0.177,4.148,1.695,5.084    c0.545,0.271,1.123,0.402,1.692,0.402c1.39,0,2.728-0.77,3.393-2.098l7.579-15.156C282.198,70.525,281.438,68.25,279.566,67.312z"/>
		<path d="M294.726,67.312c-1.872-0.936-4.146-0.176-5.084,1.695l-7.578,15.158c-0.937,1.871-0.177,4.148,1.694,5.084    c0.544,0.271,1.122,0.402,1.691,0.402c1.391,0,2.729-0.77,3.393-2.098l7.58-15.156C297.356,70.525,296.599,68.25,294.726,67.312z"/>
		<path d="M309.885,67.314c-1.87-0.938-4.147-0.178-5.084,1.693l-7.58,15.158c-0.936,1.871-0.177,4.148,1.695,5.084    c0.544,0.271,1.121,0.402,1.691,0.402c1.391,0,2.728-0.77,3.394-2.098l7.579-15.156C312.515,70.525,311.757,68.25,309.885,67.314z    "/>
		<path d="M329.406,40.353c-0.067-9.858-3.512-19.159-9.702-26.199c-6.464-7.352-15.128-11.4-24.4-11.4    c-7.587,0-14.768,2.702-20.762,7.813c-4.482,3.823-7.985,8.725-10.284,14.352c-3.021,0.968-5.782,2.665-8.056,4.991    c-3.62,3.702-5.613,8.399-5.613,13.577c0,10.867,8.84,19.514,19.705,19.514h36.38c12.537,0,22.737-10.008,22.737-22.546    C329.411,40.355,329.409,40.452,329.406,40.353z M308,55.955V57h-37.706c-6.697,0-12.126-6.026-12.126-12.723    c0-6.597,5.266-12.256,11.824-12.417c3.378-12.303,13.432-21.378,25.312-21.378c14.603,0,26.445,13.408,26.524,30.074    c0,0.055,0.667,0.148,0.667,0.204C322.495,49.132,315,55.955,308,55.955z"/>
	</g>
	<g>
		<path d="M388.779,72.975c0-2.092-1.699-3.789-3.789-3.789c-2.094,0-3.791,1.697-3.791,3.789c0,2.094,1.697,3.791,3.791,3.791    C387.08,76.766,388.779,75.068,388.779,72.975z"/>
		<circle cx="398.631" cy="72.975" r="3.789"/>
		<circle cx="412.273" cy="72.975" r="3.789"/>
		<circle cx="425.916" cy="72.976" r="3.79"/>
		<circle cx="375.895" cy="85.366" r="3.79"/>
		<path d="M389.539,81.576c-2.094,0-3.791,1.695-3.791,3.789c0,2.092,1.697,3.791,3.791,3.791c2.09,0,3.787-1.699,3.787-3.791    C393.326,83.271,391.629,81.576,389.539,81.576z"/>
		<circle cx="403.182" cy="85.366" r="3.79"/>
		<circle cx="416.822" cy="85.366" r="3.79"/>
		<path d="M449.408,40.353c-0.068-9.858-3.512-19.159-9.703-26.199c-6.465-7.352-15.129-11.4-24.398-11.4    c-7.59,0-14.77,2.702-20.764,7.813c-4.484,3.823-7.984,8.725-10.283,14.352c-3.021,0.968-5.781,2.665-8.059,4.991    c-3.617,3.702-5.611,8.399-5.611,13.577c0,10.867,8.84,19.514,19.703,19.514h36.381c12.537,0,22.736-10.008,22.736-22.546    C449.41,40.355,449.408,40.452,449.408,40.353z M427,56.422V57h-36.705c-6.697,0-12.127-6.026-12.127-12.723    c0-6.597,5.268-12.256,11.824-12.417c3.379-12.303,13.432-21.378,25.314-21.378c14.6,0,26.443,13.408,26.521,30.074    c0,0.055,0.168,0.38,0.168,0.436C441.996,49.365,434,56.422,427,56.422z"/>
	</g>
	<g>
		<path d="M537.579,80h-7.795l3.299-5.1c1.216-1.703,0.821-4.31-0.881-5.526c-1.704-1.215-4.069-0.942-5.286,0.761l-7.578,10.551    c-0.825,1.156-0.936,2.836-0.286,4.098c0.649,1.264,1.949,2.217,3.368,2.217h7.795l-3.298,4.428    c-1.217,1.703-0.822,3.976,0.882,5.19c0.666,0.479,1.436,0.659,2.197,0.659c1.184,0,2.348-0.574,3.087-1.611l7.579-10.623    c0.826-1.154,0.936-2.199,0.286-3.463C540.299,80.32,538.999,80,537.579,80z"/>
		<path d="M569.406,40.353c-0.066-9.858-3.512-19.159-9.702-26.199c-6.464-7.352-15.128-11.4-24.399-11.4    c-7.589,0-14.767,2.702-20.763,7.813c-4.482,3.823-7.984,8.725-10.282,14.352c-3.022,0.968-5.783,2.665-8.058,4.991    c-3.62,3.702-5.612,8.399-5.612,13.577c0,10.867,8.838,19.514,19.704,19.514h36.38c12.537,0,22.736-10.008,22.736-22.546    C569.41,40.355,569.409,40.452,569.406,40.353z M546.674,57h-36.38c-6.697,0-12.127-6.026-12.127-12.723    c0-6.597,5.268-12.256,11.825-12.417c3.378-12.303,13.432-21.378,25.312-21.378c14.602,0,26.445,13.408,26.523,30.074    c0,0.055,0.004,0.669,0.004,0.725C561.832,49.654,555.046,57,546.674,57z"/>
	</g>
	<path d="M209.406,40.354c-0.067-9.859-3.511-19.16-9.701-26.201c-6.465-7.351-15.13-11.4-24.4-11.4   c-7.589,0-14.768,2.702-20.763,7.814c-4.484,3.822-7.984,8.724-10.284,14.351c-3.022,0.969-5.782,2.664-8.057,4.991   c-3.619,3.702-5.613,8.899-5.613,14.077c0,10.867,8.84,20.013,19.705,20.013h36.38c12.538,0,22.737-10.506,22.737-23.045   C209.411,40.856,209.41,40.452,209.406,40.354z M187,56.691V57h-36.707c-6.697,0-12.125-6.026-12.125-12.724   c0-6.595,5.267-12.255,11.823-12.416c3.378-12.303,13.433-21.378,25.314-21.378c14.602,0,26.444,13.409,26.522,30.074   c0,0.057,0.167,0.516,0.167,0.572C201.995,49.5,195,56.691,187,56.691z"/>
	<g>
		<path d="M-21.12,41.063c-0.068-9.859-3.512-19.161-9.702-26.201c-6.464-7.351-15.13-11.398-24.399-11.398    c-7.589,0-14.769,2.702-20.763,7.813c-1.796,1.531-3.426,3.243-4.893,5.098l-2.751,2.375C-84.831,18.039-86,17.486-88,17.128    V7.536c0-2.092-1.407-3.79-3.5-3.79c-2.093,0-3.5,1.697-3.5,3.79v9.592c-1,0.358-2.512,0.903-3.715,1.614l-6.69-6.783    c-1.479-1.48-3.833-1.48-5.312,0c-1.479,1.479-1.457,3.879,0.023,5.359l6.793,7.281c-0.711,1.205-1.245,3.4-1.603,4.4h-9.592    c-2.094,0-3.79,1.407-3.79,3.499c0,2.094,1.696,3.501,3.79,3.501h9.593c0.357,1,0.903,2.485,1.613,3.688l-6.782,6.676    c-1.479,1.48-1.479,3.827,0,5.306c0.74,0.74,1.71,1.084,2.68,1.084s1.94-0.383,2.678-1.123l5.458-5.536    C-98.968,56.145-90.509,64-80.233,64h36.381c12.537,0,22.738-10.152,22.738-22.689C-21.115,41.212-21.117,41.161-21.12,41.063z     M-94.324,30.62c-1.771,1.812-3.151,3.91-4.101,6.186c-0.954-1.439-1.512-3.162-1.512-5.018c0-5.022,4.072-9.094,9.094-9.094    c1.917,0,3.693,0.597,5.16,1.609c-0.198,0.439-0.402,0.876-0.586,1.324C-89.289,26.596-92.049,28.292-94.324,30.62z     M-28.768,41.449C-28.768,49.82-36,56.676-44,56.676V57h-36.233c-6.697,0-12.125-5.672-12.125-12.369    c0-6.597,5.267-12.077,11.824-12.239c3.378-12.303,13.433-21.289,25.313-21.289c14.602,0,26.484,13.453,26.562,30.117    C-28.659,41.276-28.768,41.392-28.768,41.449z"/>
		<path d="M-60.121,68.023c-1.872-0.938-4.147-0.178-5.084,1.695l-7.579,15.156c-0.935,1.873-0.176,4.148,1.695,5.084    c0.545,0.273,1.123,0.402,1.693,0.402c1.39,0,2.728-0.768,3.393-2.098l7.578-15.156C-57.489,71.234-58.248,68.959-60.121,68.023z"/>
		<path d="M-45.02,67.996c-1.888-0.906-4.151-0.107-5.055,1.779l-3.031,6.326c-0.904,1.887-0.107,4.15,1.781,5.055    c0.528,0.252,1.084,0.373,1.634,0.373c1.413,0,2.769-0.795,3.42-2.154l3.031-6.324C-42.335,71.162-43.133,68.898-45.02,67.996z"/>
		<path d="M-75.337,67.996c-1.886-0.906-4.15-0.107-5.055,1.779l-3.03,6.326c-0.905,1.887-0.107,4.15,1.78,5.055    c0.528,0.252,1.086,0.373,1.634,0.373c1.414,0,2.769-0.795,3.421-2.154l3.03-6.324C-72.652,71.162-73.449,68.898-75.337,67.996z"/>
	</g>
	<g>
		<path d="M89.408,40.353c-0.067-9.859-3.512-19.16-9.703-26.201C73.242,6.801,64.577,2.753,55.306,2.753    c-7.588,0-14.768,2.702-20.763,7.813c-4.483,3.823-7.984,8.724-10.285,14.352c-3.02,0.968-5.78,2.664-8.055,4.991    c-3.62,3.702-5.614,8.399-5.614,13.578C10.589,54.352,19.429,63,30.294,63h36.38c12.537,0,22.736-10.008,22.736-22.544    C89.411,40.357,89.41,40.451,89.408,40.353z M66,55.965V56H30.295c-6.698,0-12.127-5.527-12.127-12.224    c0-6.597,5.268-12.005,11.824-12.167c3.379-12.303,13.434-21.252,25.313-21.252c14.602,0,26.445,13.471,26.523,30.135    c0.001,0.056-0.333,0.186-0.333,0.243C81.496,49.106,74,55.965,66,55.965z"/>
		<path d="M50.129,67.576c-1.873-0.938-4.148-0.178-5.084,1.693l-7.579,15.16c-0.936,1.871-0.176,4.146,1.695,5.084    c0.544,0.271,1.121,0.4,1.691,0.4c1.391,0,2.729-0.768,3.394-2.098l7.579-15.156C52.76,70.787,52.001,68.512,50.129,67.576z"/>
		<path d="M65.228,67.549c-1.887-0.908-4.15-0.109-5.054,1.779l-3.031,6.324c-0.905,1.889-0.107,4.152,1.779,5.055    c0.529,0.254,1.085,0.373,1.635,0.373c1.413,0,2.77-0.793,3.421-2.152l3.031-6.324C67.912,70.715,67.116,68.451,65.228,67.549z"/>
		<path d="M34.912,67.549c-1.887-0.908-4.15-0.109-5.055,1.779l-3.03,6.324c-0.904,1.889-0.108,4.152,1.78,5.055    c0.528,0.254,1.085,0.373,1.635,0.373c1.413,0,2.769-0.793,3.42-2.152l3.03-6.324C37.596,70.715,36.799,68.451,34.912,67.549z"/>
	</g>
	<g>
		<path d="M684.107,41h-24.254c-4.598,0-8.336-4.425-8.336-9.022c0-4.597,3.738-8.68,8.336-8.68c3.807,0,7.125,2.398,8.072,6.075    c0.523,2.028,2.588,3.163,4.615,2.639c2.027-0.522,3.248-2.631,2.725-4.657c-1.811-7.027-8.148-11.958-15.412-11.958    c-8.775,0-15.916,7.026-15.916,15.802c0,8.775,7.141,15.801,15.916,15.801h24.254c2.094,0,3.787-0.906,3.787-2.999    C687.895,41.907,686.201,41,684.107,41z"/>
		<path d="M676.529,53h-50.09c-3.725,0-6.754-2.895-6.754-6.62c0-3.724,3.029-6.687,6.754-6.687s6.756,3.063,6.756,6.789    c0,2.092,1.697,3.807,3.787,3.807c2.096,0,3.791-1.688,3.791-3.781c0-7.904-6.43-14.331-14.334-14.331    s-14.334,6.508-14.334,14.412c0,7.903,6.43,14.411,14.334,14.411h50.09c2.092,0,3.789-1.906,3.789-4    C680.318,54.908,678.621,53,676.529,53z"/>
		<path d="M636.021,29.254c1.027,0,2.049-0.416,2.797-1.234c1.412-1.544,1.305-3.942-0.24-5.354    c-2.775-2.537-2.971-6.86-0.434-9.636c1.211-1.326,2.867-2.111,4.66-2.209c2.09-0.115,3.689-1.904,3.574-3.993    c-0.117-2.09-1.896-3.692-3.992-3.576c-3.787,0.21-7.279,1.866-9.838,4.665c-5.355,5.861-4.945,14.987,0.916,20.344    C634.191,28.926,635.109,29.254,636.021,29.254z"/>
	</g>
	<g>
		<path d="M769.422,65.797c-1.873-0.936-4.15-0.176-5.086,1.695L756.76,82.65c-0.938,1.873-0.18,4.148,1.695,5.084    c0.543,0.271,1.119,0.4,1.689,0.4c1.389,0,2.729-0.768,3.395-2.096l7.578-15.156C772.051,69.01,771.295,66.734,769.422,65.797z"/>
		<path d="M784.52,65.77c-1.887-0.904-4.15-0.107-5.053,1.781l-3.031,6.324c-0.904,1.887-0.107,4.152,1.779,5.055    c0.529,0.254,1.086,0.373,1.637,0.373c1.412,0,2.766-0.793,3.418-2.152l3.031-6.326C787.203,68.936,786.408,66.674,784.52,65.77z"/>
		<path d="M754.205,65.77c-1.887-0.904-4.15-0.107-5.055,1.781l-3.029,6.324c-0.906,1.887-0.109,4.152,1.779,5.055    c0.525,0.254,1.086,0.373,1.633,0.373c1.414,0,2.77-0.793,3.422-2.152l3.029-6.326C756.889,68.936,756.092,66.674,754.205,65.77z"/>
		<path d="M804.107,41h-24.254c-4.598,0-8.336-4.425-8.336-9.022c0-4.597,3.738-8.68,8.336-8.68c3.807,0,7.125,2.398,8.072,6.075    c0.521,2.028,2.586,3.163,4.615,2.639c2.027-0.522,3.246-2.631,2.723-4.657c-1.809-7.027-8.146-11.958-15.41-11.958    c-8.777,0-15.918,7.026-15.918,15.802c0,8.775,7.141,15.801,15.918,15.801h24.254c2.092,0,3.787-0.906,3.787-2.999    C807.895,41.907,806.199,41,804.107,41z"/>
		<path d="M796.527,53h-50.09c-3.723,0-6.754-2.895-6.754-6.62c0-3.724,3.031-6.687,6.754-6.687c3.729,0,6.758,3.063,6.758,6.789    c0,2.092,1.695,3.807,3.787,3.807c2.094,0,3.791-1.688,3.791-3.781c0-7.904-6.43-14.331-14.336-14.331    c-7.902,0-14.332,6.508-14.332,14.412c0,7.903,6.43,14.411,14.332,14.411h50.09c2.092,0,3.789-1.906,3.789-4    C800.316,54.908,798.619,53,796.527,53z"/>
		<path d="M756.02,29.254c1.027,0,2.051-0.416,2.799-1.234c1.412-1.544,1.305-3.942-0.242-5.354    c-2.775-2.537-2.971-6.86-0.434-9.636c1.213-1.326,2.867-2.111,4.66-2.209c2.092-0.115,3.691-1.904,3.574-3.993    c-0.115-2.09-1.895-3.692-3.992-3.576c-3.785,0.21-7.277,1.866-9.836,4.665c-5.357,5.861-4.945,14.987,0.916,20.344    C754.193,28.926,755.107,29.254,756.02,29.254z"/>
	</g>
	<path d="M-287.372,29h-9.593c-0.357-1-0.903-2.958-1.614-4.162l6.782-6.914c1.48-1.479,1.48-3.944,0-5.424   c-1.48-1.481-3.879-1.513-5.359-0.033l-7.363,6.766c-1.204-0.711-2.481-1.273-4.481-1.631V8.011c0-2.093-0.907-3.79-3-3.79   c-2.094,0-3,1.697-3,3.79v9.591c-2,0.358-2.902,0.903-4.106,1.614l-6.886-6.782c-1.48-1.48-3.931-1.48-5.411,0   c-1.48,1.479-1.506,3.879-0.026,5.358l6.77,7.045c-0.711,1.204-1.27,3.162-1.627,4.162h-9.592c-2.092,0-3.79,1.908-3.79,4   c0,2.094,1.697,4,3.79,4h9.592c0.358,1,0.904,2.222,1.615,3.425l-6.782,6.545c-1.48,1.48-1.48,3.761,0,5.241   c0.74,0.74,1.71,1.051,2.68,1.051s1.939-0.398,2.68-1.139l6.989-6.798c1.204,0.711,2.106,1.241,4.106,1.599v9.594   c0,2.092,0.906,3.789,3,3.789c2.093,0,3-1.697,3-3.789v-9.594c2-0.358,3.277-0.902,4.48-1.614l7.072,6.782   c0.74,0.74,1.855,1.11,2.825,1.11c0.97,0,2.013-0.37,2.753-1.11c1.479-1.479,1.516-3.878,0.036-5.358l-6.765-6.309   c0.711-1.203,1.275-2.425,1.633-3.425h9.593c2.093,0,3.789-1.906,3.789-4C-283.583,30.908-285.279,29-287.372,29z M-311.625,41.358   c-5.022,0-9.094-4.072-9.094-9.095c0-5.022,4.072-9.094,9.094-9.094s9.094,4.072,9.094,9.094   C-302.532,37.286-306.603,41.358-311.625,41.358z"/>
</g>
</svg>