<?xml version="1.0" encoding="utf-8"?>
<!-- Generator: Adobe Illustrator 14.0.0, SVG Export Plug-In . SVG Version: 6.00 Build 43363)  -->
<!DOCTYPE svg PUBLIC "-//W3C//DTD SVG 1.0//EN" "http://www.w3.org/TR/2001/REC-SVG-20010904/DTD/svg10.dtd">
<svg version="1.0" id="Layer_1" xmlns="http://www.w3.org/2000/svg" xmlns:xlink="http://www.w3.org/1999/xlink" x="0px" y="0px"
	 width="100px" height="63.701px" viewBox="0 0 100 63.701" enable-background="new 0 0 100 63.701" xml:space="preserve">
<path d="M98.615,52.585c-2.647,6.535-8.806,11.115-15.98,11.115h-65.27c-7.175,0-13.333-4.58-15.98-11.115H98.615z"/>
<path d="M99.575,33.562H0.424C0.149,34.853,0,36.194,0,37.573v3.296v1.26v3.295c0,1.379,0.149,2.719,0.424,4.011h99.151
	c0.275-1.292,0.425-2.632,0.425-4.011v-3.295v-1.26v-3.296C100,36.194,99.851,34.853,99.575,33.562z"/>
<path d="M82.635,19.295h-3.357C77.539,14.078,75.8,8.861,74.061,3.644C73.356,1.532,71.572,0,69.275,0C54.675,0,40.073,0,25.472,0
	c-6.401,0-6.401,9.926,0,9.926c13.411,0,26.471,0,39.601,0c1.636,0,1.729,4.246,1.824,9.369H17.365
	c-7.175,0-13.333,4.581-15.98,11.115h97.23C95.968,23.876,89.81,19.295,82.635,19.295z"/>
</svg>
