<svg xmlns="http://www.w3.org/2000/svg" xmlns:xlink="http://www.w3.org/1999/xlink" version="1.1" id="Your_Icon" x="0px" y="0px" width="100px" height="100px" viewBox="0 0 100 100" enable-background="new 0 0 100 100" xml:space="preserve">
<path fill="#000000" d="M80.225,26.502h-8.656v3.586h-5.313v-3.586H33.733v3.586H28.42v-3.586h-8.661l0,0V77.48  c0,2.869,2.333,5.207,5.207,5.207h50.067c2.869,0,5.207-2.338,5.207-5.207L80.225,26.502z M39.289,80.807H24.966  c-1.833,0-3.326-1.492-3.326-3.326V66.958h17.649V80.807z M39.289,65.075H21.64V51.25h17.649V65.075z M39.289,49.367H21.64  c0,0,0.052-13.723,0.063-13.83h17.586V49.367z M58.828,80.807H41.171V66.958h17.657V80.807z M58.828,65.075H41.171V51.25h17.657  V65.075z M58.828,49.367H41.171v-13.83h17.657V49.367z M78.359,77.48c0,1.832-1.492,3.326-3.326,3.326H60.709V66.958h17.65V77.48z   M78.359,65.075h-17.65V51.25h17.65V65.075z M60.709,49.367v-13.83h17.588c0.012,0.107,0.062,13.83,0.062,13.83H60.709z"/>
<rect x="29.989" y="17.312" fill="#000000" width="2.175" height="11.229"/>
<rect x="67.85" y="17.312" fill="#000000" width="2.176" height="11.229"/>
</svg>