<?xml version="1.0" encoding="utf-8"?>
<!-- Generator: Adobe Illustrator 14.0.0, SVG Export Plug-In . SVG Version: 6.00 Build 43363)  -->
<!DOCTYPE svg PUBLIC "-//W3C//DTD SVG 1.0//EN" "http://www.w3.org/TR/2001/REC-SVG-20010904/DTD/svg10.dtd">
<svg version="1.0" id="Layer_1" xmlns="http://www.w3.org/2000/svg" xmlns:xlink="http://www.w3.org/1999/xlink" x="0px" y="0px"
	 width="100px" height="57.914px" viewBox="0 0 100 57.914" enable-background="new 0 0 100 57.914" xml:space="preserve">
<path d="M91.642,25.768l1.042-3.814l-0.824-1.197H70.567l1.491-5.011l-0.769-1.107H58.043c-1.252,1.098,0.479,3.661,0.479,3.661
	l3.084,1.435l-5.733,14.253H44.795l-1.062-1.203c0,0,1.926-2.254,1.927-2.254l-7.468-15.892H28.124l-1.011-1.153l1.638-4.672
	c0,0,3.181-1.542,3.181-1.542l-0.723-1.542l6.886-3.661L36.988,0L25.378,5.153l-0.819,3.18l-7.253-0.75
	c-0.484,1.015-0.764,2.147-0.764,3.347c0,1.579,0.473,3.045,1.279,4.272l5.195-1.287l-2.499,9.271
	c-1.217-0.254-2.478-0.389-3.77-0.389c-3.197,0-6.204,0.819-8.822,2.255l0.801,1.404C3.528,29.3,0,34.819,0,41.164
	c0,9.25,7.499,16.75,16.749,16.75c7.209,0,13.354-4.557,15.715-10.945l1.504,0.593c0.74-1.992,1.147-4.147,1.147-6.397
	c0-7.768-4.824-14.404-11.638-17.089l0.703-2.071h2.356l15.391,17.839c-0.457,0.785-0.724,1.693-0.724,2.667
	c0,2.934,2.378,5.312,5.312,5.312c0.235,0,0.464-0.021,0.691-0.05l0,0.005l18.346-1.929c2.027,6.97,8.457,12.065,16.08,12.065
	c7.21,0,13.354-4.557,15.716-10.945l1.504,0.593c0.74-1.992,1.147-4.147,1.147-6.397C100,34.714,96.672,29.044,91.642,25.768z
	 M29.393,41.164c0,6.982-5.661,12.644-12.643,12.644S4.106,48.146,4.106,41.164c0-6.983,5.661-12.644,12.644-12.644
	c0.777,0,1.537,0.074,2.275,0.208l-2.56,9.5c-1.534,0.107-2.746,1.383-2.746,2.943c0,1.632,1.323,2.955,2.954,2.955
	c1.632,0,2.955-1.323,2.955-2.955c0-0.955-0.456-1.802-1.159-2.342l3.167-9.33C26.192,31.412,29.393,35.914,29.393,41.164z
	 M69.43,37.858c0.818-3.023,2.728-5.598,5.281-7.272l4.266,7.547L69.43,37.858z M81.634,53.808c-5.493,0-10.166-3.504-11.91-8.397
	l12.21-1.283c1.631,0,2.954-1.323,2.954-2.955c0-1.631-1.323-2.953-2.954-2.953l-0.439-0.013l-4.887-8.645
	c1.541-0.667,3.239-1.041,5.026-1.041c6.981,0,12.643,5.66,12.643,12.644C94.277,48.146,88.616,53.808,81.634,53.808z"/>
</svg>
