<svg xmlns="http://www.w3.org/2000/svg" xmlns:xlink="http://www.w3.org/1999/xlink" version="1.1" id="Layer_1" x="0px" y="0px" width="71.467px" height="71.466px" viewBox="0 0 71.467 71.466" enable-background="new 0 0 71.467 71.466" xml:space="preserve">
<path d="M19.43,4.562C17.566,1.809,14.415,0,10.84,0C5.115,0,0.474,4.641,0.474,10.367c0,3.202,1.454,6.064,3.737,7.965  c1.49-2.389,3.256-4.63,5.299-6.67C12.45,8.719,15.801,6.34,19.43,4.562z"/>
<path d="M64.224,20.318c-1.345-2.184-2.953-4.248-4.842-6.135l-0.001,0.001c-2.465-2.468-5.228-4.469-8.17-6.007  c-4.841-2.529-10.171-3.8-15.483-3.8c-0.008,0-0.017,0-0.024,0c-0.008,0-0.016,0-0.024,0c-5.065,0-10.142,1.165-14.796,3.463  c-3.198,1.58-6.198,3.689-8.851,6.344c-1.828,1.826-3.393,3.819-4.712,5.924C3.928,25.521,2.217,31.702,2.222,37.86  C2.215,46.412,5.5,55.012,12.032,61.535c6.52,6.525,15.115,9.808,23.662,9.808c0.006,0,0.013,0,0.019,0c0.005,0,0.013,0,0.02,0  c8.544,0,17.129-3.288,23.649-9.808c6.529-6.523,9.815-15.123,9.808-23.675C69.194,31.78,67.527,25.682,64.224,20.318z   M52.08,54.231c-4.536,4.531-10.429,6.777-16.367,6.784c-5.948-0.007-11.845-2.252-16.38-6.784  c-4.534-4.534-6.78-10.428-6.784-16.371c0.004-5.943,2.25-11.839,6.783-16.373c4.537-4.531,10.43-6.779,16.372-6.784  c5.946,0.005,11.84,2.25,16.376,6.782v0.002c4.53,4.534,6.776,10.428,6.782,16.373C58.856,43.803,56.61,49.697,52.08,54.231z"/>
<path d="M39.158,35.884l11.116-11.117c-0.231-0.259-0.47-0.512-0.718-0.76l-0.148-0.149c-0.274-0.268-0.557-0.524-0.844-0.774  L37.46,34.186c-0.095,0.095-0.171,0.192-0.235,0.287c-0.465-0.209-0.978-0.332-1.52-0.332c-0.692,0-1.333,0.202-1.888,0.532  l-11.288-5.096c-0.154-0.071-0.374,0.081-0.488,0.334l-1.273,2.82c-0.115,0.253-0.083,0.518,0.071,0.588l11.202,5.058  c0.255,1.805,1.789,3.198,3.664,3.198c2.053,0,3.718-1.665,3.718-3.718c0-0.652-0.184-1.257-0.479-1.791  C39.015,36.014,39.087,35.954,39.158,35.884z"/>
<path d="M52.036,4.562C53.899,1.809,57.051,0,60.626,0c5.725,0,10.366,4.641,10.366,10.367c0,3.202-1.454,6.064-3.737,7.965  c-1.489-2.389-3.255-4.63-5.299-6.67C59.016,8.719,55.665,6.34,52.036,4.562z"/>
</svg>