<svg xmlns="http://www.w3.org/2000/svg" xmlns:xlink="http://www.w3.org/1999/xlink" version="1.1" id="Layer_1" x="0px" y="0px" width="71.467px" height="71.465px" viewBox="0 0 71.467 71.465" enable-background="new 0 0 71.467 71.465" xml:space="preserve">
<path fill="#000000" d="M54.249,2.598H16.953C7.591,2.598,0,10.188,0,19.55v15.258C0,44.171,7.591,51.76,16.953,51.76h13  l15.863,18.705L45.763,51.76h8.486c9.361,0,16.952-7.589,16.952-16.952V19.55C71.201,10.188,63.61,2.598,54.249,2.598z   M64.42,34.808c0,5.618-4.554,10.171-10.171,10.171H16.953c-5.617,0-10.171-4.553-10.171-10.171V19.55  c0-5.617,4.554-10.171,10.171-10.171h37.296c5.617,0,10.171,4.554,10.171,10.171V34.808z"/>
<path fill-rule="evenodd" clip-rule="evenodd" fill="#000000" d="M14.41,33.113h42.382c1.403,0,2.543,1.139,2.543,2.542  c0,1.405-1.14,2.543-2.543,2.543H14.41c-1.405,0-2.543-1.138-2.543-2.543C11.867,34.251,13.005,33.113,14.41,33.113z"/>
<path fill-rule="evenodd" clip-rule="evenodd" fill="#000000" d="M14.41,24.636h42.382c1.403,0,2.543,1.139,2.543,2.543  c0,1.405-1.14,2.543-2.543,2.543H14.41c-1.405,0-2.543-1.138-2.543-2.543C11.867,25.775,13.005,24.636,14.41,24.636z"/>
<path fill-rule="evenodd" clip-rule="evenodd" fill="#000000" d="M14.41,16.16h42.382c1.403,0,2.543,1.138,2.543,2.543  s-1.14,2.543-2.543,2.543H14.41c-1.405,0-2.543-1.138-2.543-2.543S13.005,16.16,14.41,16.16z"/>
</svg>