<svg xmlns="http://www.w3.org/2000/svg" xmlns:xlink="http://www.w3.org/1999/xlink" version="1.1" id="icon" x="0px" y="0px" width="100px" height="100px" viewBox="0 0 100 100" enable-background="new 0 0 100 100" xml:space="preserve">
<g id="XMLID_1_">
	<g>
		<g>
			<path d="M49.324,4.814c-14.332,0-25.954,11.622-25.954,25.954c0,5.836,1.929,11.223,5.174,15.556     c0.011,0.006,0.016,0.017,0.016,0.022c0.617,0.907,20.496,30.058,20.763,49.422c0.268-19.364,20.146-48.515,20.764-49.422     c0.011-0.016,0.016-0.022,0.016-0.022c3.247-4.333,5.174-9.72,5.174-15.556C75.277,16.437,63.657,4.814,49.324,4.814z      M49.324,18.474c6.486,0,11.748,5.262,11.748,11.748c0,6.486-5.262,11.748-11.748,11.748s-11.747-5.262-11.747-11.748     C37.577,23.736,42.838,18.474,49.324,18.474z"/>
		</g>
	</g>
</g>
</svg>