<svg xmlns="http://www.w3.org/2000/svg" xmlns:xlink="http://www.w3.org/1999/xlink" version="1.1" x="0px" y="0px" width="100px" height="100px" viewBox="0 0 100 100" enable-background="new 0 0 100 100" xml:space="preserve">
<g id="Captions">
	<rect x="-192" width="185" height="99"/>
	<rect y="-36" width="100" height="30"/>
	<text transform="matrix(1 0 0 1 66 -19.5)" fill="#000000" font-family="'Helvetica'" font-size="2.4">http://thenounproject.com</text>
	<text transform="matrix(1 0 0 1 7.166 -24.5)"><tspan x="0" y="0" fill="#000000" font-family="'Helvetica-Bold'" font-size="6.1578">The Noun Project</tspan><tspan x="1.12" y="4.8" fill="#000000" font-family="'Helvetica-Bold'" font-size="4">Icon Template</tspan></text>
	<text transform="matrix(1 0 0 1 -178.5 10.5)" fill="#000000" font-family="'Helvetica-Bold'" font-size="6.1578">Reminders</text>
	<line fill="#000000" stroke="#FFFFFF" stroke-miterlimit="10" x1="8" y1="-14.5" x2="18" y2="-14.5"/>
	<line fill="#000000" stroke="#FFFFFF" stroke-miterlimit="10" x1="-179" y1="16.5" x2="-162" y2="16.5"/>
	<g>
		<g>
			<g>
				<rect x="-170.802" y="31.318" fill="#000000" width="8.721" height="8.642"/>
				<path fill="#000000" d="M-164.455,42.312h4.747v-4.703h-4.747V42.312z M-159.266,42.749h-5.63V37.17h5.63V42.749      L-159.266,42.749z M-166.221,44.062h8.279v-8.203h-8.279V44.062L-166.221,44.062z M-157.5,44.5h-9.163v-9.079h9.163V44.5      L-157.5,44.5z"/>
				<polygon fill="#000000" points="-166.149,44.133 -166.292,43.991 -158.013,35.787 -157.871,35.929     "/>
			</g>
		</g>
	</g>
	<rect x="-179" y="58" fill="none" width="35" height="32.5"/>
	<text transform="matrix(1 0 0 1 -179 60.1572)"><tspan x="0" y="0" fill="#000000" font-family="'Helvetica-Bold'" font-size="3">Strokes</tspan><tspan x="0" y="5" fill="#000000" font-family="'Helvetica'" font-size="2.4">Try to keep strokes at 4px</tspan><tspan x="0" y="10" fill="#000000" font-family="'Helvetica'" font-size="2.4">Minimum stroke weight is 2px</tspan><tspan x="0" y="14.5" fill="#000000" font-family="'Helvetica'" font-size="2.4">For thicker strokes use even </tspan><tspan x="0" y="17.5" fill="#000000" font-family="'Helvetica'" font-size="2.4">numbers: 6px, 8px etc.</tspan><tspan x="0" y="22" fill="#000000" font-family="'Helvetica-Bold'" font-size="2.4">Remember to expand strokes </tspan><tspan x="0" y="25" fill="#000000" font-family="'Helvetica-Bold'" font-size="2.4">before saving as an SVG </tspan></text>
	<rect x="-136.5" y="58" fill="none" width="35" height="32.5"/>
	<text transform="matrix(1 0 0 1 -136.5 60.1572)"><tspan x="0" y="0" fill="#000000" font-family="'Helvetica-Bold'" font-size="3">Size</tspan><tspan x="0" y="5" fill="#000000" font-family="'Helvetica'" font-size="2.4">Cannot be wider or taller than </tspan><tspan x="0" y="8.5" fill="#000000" font-family="'Helvetica'" font-size="2.4">100px (artboard size)</tspan><tspan x="0" y="13.5" fill="#000000" font-family="'Helvetica'" font-size="2.4">Scale your icon to fill as much of </tspan><tspan x="0" y="16.5" fill="#000000" font-family="'Helvetica'" font-size="2.4">the artboard as possible</tspan></text>
	<rect x="-94" y="58" fill="none" width="35" height="32.5"/>
	<text transform="matrix(1 0 0 1 -94 60.1572)"><tspan x="0" y="0" fill="#000000" font-family="'Helvetica-Bold'" font-size="3">Ungroup</tspan><tspan x="0" y="5" fill="#000000" font-family="'Helvetica'" font-size="2.4">If your design has more than one </tspan><tspan x="0" y="8" fill="#000000" font-family="'Helvetica'" font-size="2.4">shape, make sure to ungroup</tspan></text>
	<rect x="-50" y="58" fill="none" width="35" height="32.5"/>
	<text transform="matrix(1 0 0 1 -50 60.1572)"><tspan x="0" y="0" fill="#000000" font-family="'Helvetica-Bold'" font-size="3">Save as</tspan><tspan x="0" y="5" fill="#000000" font-family="'Helvetica'" font-size="2.4">Save as .SVG and make sure </tspan><tspan x="0" y="8" fill="#000000" font-family="'Helvetica'" font-size="2.4">&#8220;Use Artboards&#8221; is checked</tspan></text>
	<text transform="matrix(1.0074 0 0 1 -125.542 30.5933)" fill="#000000" font-family="'Helvetica'" font-size="2.5731">100px</text>
	<text transform="matrix(1.0074 0 0 1 -41 39)" fill="#000000" font-family="'Helvetica-Bold'" font-size="5.1462">.SVG</text>
	<rect x="-126.514" y="34.815" fill="#000000" width="10.261" height="10.185"/>
	<rect x="-126.477" y="31.766" fill="#000000" width="0.522" height="2.337"/>
	<rect x="-116.812" y="31.766" fill="#000000" width="0.523" height="2.337"/>
	<rect x="-127" y="32.337" fill="#000000" width="11.233" height="0.572"/>
	<g>
		<rect x="-83.805" y="33.844" fill="#000000" width="10.305" height="10.156"/>
		<rect x="-76.809" y="28.707" fill="#000000" width="3.308" height="3.261"/>
	</g>
	<rect x="-178.5" y="22.5" fill="#000000" stroke="#FFFFFF" stroke-miterlimit="10" width="30" height="30"/>
	<rect x="-136.5" y="22.5" fill="#000000" stroke="#FFFFFF" stroke-miterlimit="10" width="30" height="30"/>
	<rect x="-93.5" y="22.5" fill="#000000" stroke="#FFFFFF" stroke-miterlimit="10" width="30" height="30"/>
	<rect x="-49.5" y="22.5" fill="#000000" stroke="#FFFFFF" stroke-miterlimit="10" width="30" height="30"/>
</g>
<g id="Your_Icon">
	<g>
		<path d="M20.946,35.341c6.427,0,11.638-6.762,11.638-13.189s-5.21-11.637-11.638-11.637c-6.426,0-11.637,5.21-11.637,11.637    S14.52,35.341,20.946,35.341z"/>
	</g>
	<g>
		<path d="M78.889,35.341c6.426,0,11.637-6.762,11.637-13.189s-5.211-11.637-11.637-11.637c-6.428,0-11.638,5.21-11.638,11.637    S72.461,35.341,78.889,35.341z"/>
	</g>
	<path d="M35.115,37.127c0-8.22,6.665-14.884,14.885-14.884c8.221,0,14.885,6.664,14.885,14.884c0,8.221-6.664,16.87-14.885,16.87   C41.78,53.997,35.115,45.348,35.115,37.127z"/>
	<g>
		<path d="M84.441,37.12c-1.697,0.833-3.562,1.324-5.553,1.324c-2.041,0-3.953-0.512-5.686-1.384    c-1.524,0.102-2.982,0.354-4.366,0.719c-0.191,5.361-2.717,10.984-6.732,14.93c1.342,0.276,2.646,0.624,3.896,1.05V51    c0-0.552,0.448-1,1-1s1,0.448,1,1v3.518c4.588,1.936,8.346,4.885,10.768,8.482h3.375C84.137,63,86,62.751,88,62.311V51    c0-0.552,0.448-1,1-1s1,0.448,1,1v10.711c6-2.079,9.918-6.484,9.918-11.71C99.918,43.299,93.123,37.937,84.441,37.12z"/>
	</g>
	<path d="M58.947,55.244c-2.63,1.697-5.661,2.722-8.947,2.722c-3.212,0-6.18-0.98-8.769-2.609C30.942,56.968,23.208,63.86,23.208,72   c0,6.081,4.318,11.465,10.792,14.472V74c0-0.828,0.671-1.5,1.5-1.5S37,73.172,37,74v13.644C39.715,88.516,42.701,89,45.837,89   h9.318c2.758,0,5.4-0.375,7.845-1.059V74c0-0.828,0.672-1.5,1.5-1.5S66,73.172,66,74v12.908C73.021,84.006,77.784,78.387,77.784,72   C77.784,63.647,69.639,56.611,58.947,55.244z"/>
	<g>
		<path d="M38.076,52.881c-4.109-3.944-6.707-9.633-6.913-15.062c-1.434-0.388-2.95-0.653-4.532-0.759    c-1.732,0.872-3.645,1.384-5.686,1.384c-1.99,0-3.855-0.492-5.553-1.324C6.711,37.937,0,43.299,0,50.001    c0,5.226,4.088,9.631,10,11.71V51c0-0.552,0.448-1,1-1s1,0.448,1,1v11.311C13.788,62.751,15.698,63,17.692,63h4.531    c2.246-3.335,5.637-6.115,9.777-8.045V51c0-0.552,0.448-1,1-1s1,0.448,1,1v3.116C35.302,53.622,36.665,53.208,38.076,52.881z"/>
	</g>
</g>
</svg>