<svg xmlns:dc="http://purl.org/dc/elements/1.1/" xmlns:cc="http://creativecommons.org/ns#" xmlns:rdf="http://www.w3.org/1999/02/22-rdf-syntax-ns#" xmlns:svg="http://www.w3.org/2000/svg" xmlns="http://www.w3.org/2000/svg" xmlns:sodipodi="http://sodipodi.sourceforge.net/DTD/sodipodi-0.dtd" xmlns:inkscape="http://www.inkscape.org/namespaces/inkscape" width="100" height="100" viewBox="0 0 80 80" version="1.1" id="svg2" inkscape:version="0.48.2 r9819" sodipodi:docname="tie flowers.svg">
  <metadata id="metadata26">
    <rdf:RDF>
      <cc:Work rdf:about="">
        <dc:format>image/svg+xml</dc:format>
        <dc:type rdf:resource="http://purl.org/dc/dcmitype/StillImage"/>
      </cc:Work>
    </rdf:RDF>
  </metadata>
  <defs id="defs24"/>
  <sodipodi:namedview pagecolor="#ffffff" bordercolor="#666666" borderopacity="1" objecttolerance="10" gridtolerance="10" guidetolerance="10" inkscape:pageopacity="0" inkscape:pageshadow="2" inkscape:window-width="1157" inkscape:window-height="694" id="namedview22" showgrid="false" inkscape:zoom="1.5591446" inkscape:cx="183.80946" inkscape:cy="33.75065" inkscape:window-x="0" inkscape:window-y="0" inkscape:window-maximized="0" inkscape:current-layer="svg2"/>
  <path d="m 30.967096,5.3979758 c 0.662125,0.006 1.288778,-0.34289 1.950903,-0.20101 0.579359,0.0769 1.158717,0.0591 1.732166,-0.0355 -0.153709,0.402 -0.603008,0.53797 -0.898597,0.82174 -0.425654,0.31923 -0.727158,0.78627 -0.987278,1.24739 -0.141881,0.2483 -0.100501,0.54389 -0.100501,0.82174 0.26012,-0.006 0.543889,0.065 0.780361,-0.0768 0.709419,-0.36653 1.19419,-1.02865 1.578457,-1.70851 0.206916,0.10641 0.472947,0.21873 0.360622,0.53206 0.01181,0.76853 0.118236,1.55481 0.490681,2.24058 0.171444,-0.0768 0.502507,0.0118 0.591184,-0.23056 0.372445,-0.62665 0.106411,-1.40702 0.01181,-2.08096 0.384267,0.41973 0.709419,0.91042 1.176452,1.24739 0.153709,0.0887 0.396091,0.28377 0.567535,0.10641 0.283769,-0.19509 0.195092,-0.59709 0.07094,-0.86312 -0.360622,-0.68577 -0.957715,-1.21784 -1.560722,-1.68487 0.01181,-0.0828 0.02366,-0.16553 0.03547,-0.2483 0.69168,0.11824 1.401099,0.0887 2.080959,-0.065 0.715333,-0.15371 1.347899,0.3488 2.063229,0.30742 -0.650301,0.75671 -1.075951,1.67304 -1.619841,2.5007 -0.461122,0.72716 -0.886772,1.47205 -1.330161,2.2110202 -0.206912,0.52024 -0.668035,0.93998 -0.715329,1.53116 -0.02366,0.15371 0.159619,0.23647 0.224648,0.3488 0.537975,0.53798 0.975453,1.15872 1.401103,1.78537 0.67986,1.17646 1.117334,2.47114 1.590281,3.7481 0.277855,0.69759 0.248296,1.46613 0.336973,2.1992 0.212827,1.92725 0.266031,3.86633 0.402005,5.79949 -0.342887,0.30742 -0.638477,0.65622 -0.928156,1.01093 -0.02957,-0.0177 -0.100501,-0.0591 -0.135974,-0.0769 0.03547,-0.87494 0.212827,-1.83857 -0.242382,-2.64258 -0.130061,-0.26603 -0.431564,-0.36654 -0.703509,-0.39018 -0.242386,0.41974 -0.342887,0.91042 -0.348797,1.39519 0.01772,0.60301 0.236472,1.17054 0.455209,1.72625 -0.608918,-0.6503 -1.135069,-1.43657 -1.968634,-1.82084 -0.2483,-0.0769 -0.597097,-0.18918 -0.786275,0.0532 -0.07685,0.0887 -0.147795,0.201 -0.124147,0.31923 0.08868,0.57345 0.508417,1.01093 0.928156,1.37746 -0.620742,-0.1478 -1.282867,-0.18327 -1.87996,0.0532 -0.01772,0.16553 -0.05321,0.31332 -0.07685,0.47885 0.869038,0.91634 2.234668,0.98137 3.399296,0.78628 -0.153705,0.402 -0.603004,0.53797 -0.898597,0.82174 -0.42565,0.31924 -0.727153,0.78036 -0.987274,1.24739 -0.141884,0.2483 -0.100501,0.54389 -0.100501,0.82175 0.26012,-0.006 0.543889,0.065 0.780361,-0.0769 0.709419,-0.36653 1.194187,-1.02865 1.578457,-1.70851 0.206913,0.10641 0.472947,0.21874 0.360622,0.53206 0.01181,0.76854 0.118236,1.55481 0.490682,2.24058 0.171443,-0.0769 0.502502,0.0118 0.591183,-0.23056 0.372442,-0.62665 0.106411,-1.40701 0.01181,-2.08096 0.260121,0.30742 0.555714,0.59118 0.774451,0.93407 0.195089,5.83497 0.29559,11.67585 0.496592,17.51082 -0.691684,0.21874 -1.194187,0.74489 -1.608016,1.31834 -0.03547,-0.0237 -0.106411,-0.0591 -0.141884,-0.0828 0.03547,-0.87495 0.212827,-1.83858 -0.242382,-2.64258 -0.130061,-0.26604 -0.431564,-0.36654 -0.703509,-0.39018 -0.331063,0.59118 -0.431564,1.30059 -0.277855,1.95681 0.07094,0.402 0.248296,0.78036 0.384267,1.16463 -0.608918,-0.6503 -1.135069,-1.43658 -1.968634,-1.82085 -0.2483,-0.0769 -0.597097,-0.18917 -0.786276,0.0532 -0.07685,0.0887 -0.147794,0.19509 -0.124146,0.31924 0.08868,0.57345 0.508417,1.01092 0.928156,1.37746 -0.620742,-0.1478 -1.282867,-0.18327 -1.87996,0.0532 -0.01772,0.16553 -0.05321,0.31333 -0.07685,0.47886 0.869038,0.91633 2.234668,0.98136 3.399296,0.78627 -0.153705,0.40201 -0.603004,0.53798 -0.898597,0.82175 -0.42565,0.31923 -0.727154,0.78036 -0.987274,1.24739 -0.141884,0.2483 -0.100501,0.54389 -0.100501,0.82175 0.26012,-0.006 0.543889,0.065 0.780361,-0.0769 0.709419,-0.36653 1.194187,-1.02866 1.578457,-1.70851 0.206913,0.10641 0.472947,0.21873 0.360622,0.53206 0.01181,0.76853 0.118236,1.55481 0.490682,2.24058 0.171443,-0.0769 0.502502,0.0118 0.591183,-0.23056 0.372442,-0.62665 0.106411,-1.40702 0.01181,-2.08097 0.472947,0.53798 0.892687,1.16464 1.572547,1.46023 0.283769,2.55982 0.419739,5.13146 0.744888,7.68537 0.165533,1.61392 0.402005,3.22194 0.532065,4.84769 0.09459,0.82766 0.189178,1.65531 0.301504,2.48297 0.01772,0.21283 0.09459,0.43747 0.05912,0.65621 -0.106412,0.21283 -0.289679,0.37836 -0.437474,0.56162 -1.61393,1.67896 -3.192384,3.39339 -4.800403,5.07235 -0.685771,0.76854 -1.436573,1.48387 -2.086874,2.28787 -0.147795,-0.0887 -0.289679,-0.19508 -0.419739,-0.3015 -0.218738,-0.201 -0.537976,-0.22465 -0.774448,-0.402 -0.02957,-0.0828 -0.01772,-0.17144 -0.02366,-0.26012 -0.266031,-0.25421 -0.502503,-0.53798 -0.804007,-0.75672 -0.26012,-0.2542 -0.52024,-0.53206 -0.869038,-0.66803 -0.206916,-0.41974 -0.51433,-0.7981 -0.922245,-1.03457 -0.277856,-0.18918 -0.431564,-0.50251 -0.703505,-0.70942 -0.7981,-0.62665 -1.454311,-1.41884 -2.246497,-2.05731 -0.478857,-0.30151 -0.774447,-0.7981 -1.206011,-1.1469 0.05912,-0.33106 0.01772,-0.67395 0.0059,-1.01092 -0.01181,-0.83357 0.01181,-1.66713 -0.01181,-2.5007 0.0532,-0.53206 0.04729,-1.07004 -0.01772,-1.6021 -0.09459,-0.72716 0.03547,-1.45431 0.0059,-2.18147 -0.02366,-0.63256 0.13597,-1.26513 0.02957,-1.89769 0.04138,-0.36654 -0.0059,-0.73307 0.07094,-1.09369 0.112326,-0.52024 0.106412,-1.05822 0.01181,-1.57846 0.886773,0.86313 2.21102,0.93407 3.363827,0.73898 -0.153709,0.402 -0.603007,0.53798 -0.898597,0.82174 -0.42565,0.31924 -0.727154,0.78036 -0.987274,1.2474 -0.141885,0.2483 -0.100501,0.54389 -0.100501,0.82174 0.26012,-0.006 0.543886,0.065 0.780361,-0.0769 0.709419,-0.36653 1.194187,-1.02866 1.578457,-1.70852 0.206913,0.10641 0.472944,0.21874 0.360622,0.53207 0.01181,0.76853 0.118235,1.5548 0.490678,2.24058 0.171443,-0.0769 0.502506,0.0118 0.591183,-0.23057 0.372446,-0.62665 0.106415,-1.40701 0.01181,-2.08096 0.467033,0.4966 0.833568,1.14099 1.48978,1.41293 0.325148,0.0768 0.543886,-0.38427 0.413825,-0.65621 -0.260117,-0.83357 -0.993184,-1.41884 -1.649395,-1.95091 0.01181,-0.0828 0.02366,-0.16553 0.03547,-0.24829 0.886773,0.0828 1.956813,0.23647 2.672146,-0.41383 0.242382,-0.23056 0.09459,-0.67986 -0.195092,-0.7981 -0.496592,-0.17144 -1.028657,-0.0946 -1.548898,-0.0709 0.526151,-0.35471 1.046392,-0.84539 1.046392,-1.53116 -0.455209,-0.18327 -0.916332,0.0769 -1.324247,0.26012 -0.5498,0.23647 -0.922246,0.71533 -1.276953,1.17054 -0.03547,-0.0177 -0.106416,-0.0532 -0.141885,-0.0768 0.03547,-0.87495 0.212827,-1.83858 -0.242386,-2.64259 -0.13006,-0.26603 -0.431564,-0.36653 -0.703505,-0.39018 -0.331062,0.59119 -0.431564,1.3006 -0.277858,1.95682 0.07094,0.402 0.248299,0.78036 0.38427,1.16462 -0.608918,-0.65029 -1.135069,-1.43657 -1.968638,-1.82084 -0.248296,-0.0768 -0.597093,-0.18917 -0.786271,0.0532 -0.07685,0.0887 -0.147795,0.19509 -0.12415,0.31924 0.08868,0.57345 0.508416,1.01092 0.928156,1.37745 -0.603004,-0.14188 -1.247394,-0.17735 -1.832664,0.0355 -0.04138,-0.89268 -0.141884,-1.78537 -0.0059,-2.66623 0.100501,-0.66212 -0.04729,-1.33016 0.118239,-1.98046 0.05912,-0.52615 0.07094,-1.05822 0.02957,-1.58437 0.02957,-0.43156 0.153705,-0.86313 0.0532,-1.29469 -0.01772,-0.63848 0.159619,-1.27104 0.171443,-1.90952 0.03547,-0.57935 -0.100501,-1.1528 -0.08868,-1.73216 0.04138,-0.68577 0.266031,-1.36563 0.13006,-2.05141 -0.07094,-0.47885 0.100502,-0.94589 0.09459,-1.42474 0.01776,-0.3488 -0.01181,-0.6976 0.03547,-1.03457 0.283769,-0.29559 0.673946,-0.47886 0.94589,-0.79219 0.260121,-0.31332 0.484772,-0.6503 0.685774,-1.00501 0.206913,0.10642 0.472944,0.21874 0.360622,0.53207 0.01181,0.76853 0.118236,1.55481 0.490678,2.24058 0.171444,-0.0769 0.502506,0.0118 0.591183,-0.23056 0.372446,-0.62666 0.106415,-1.40702 0.01181,-2.08097 0.467033,0.4966 0.833569,1.14099 1.48978,1.41293 0.325149,0.0768 0.543886,-0.38427 0.413826,-0.65621 -0.260121,-0.83357 -0.993185,-1.41884 -1.649396,-1.9509 0.01181,-0.0828 0.02363,-0.16554 0.03547,-0.2483 0.733068,0.1005 1.507515,0.13597 2.216934,-0.10641 0.248296,-0.15962 0.656211,-0.31333 0.561624,-0.69168 0.01181,-0.17145 -0.135974,-0.2956 -0.26012,-0.3961 -0.508417,-0.19509 -1.058217,-0.11232 -1.590282,-0.0887 0.526151,-0.3547 1.046392,-0.84539 1.046392,-1.53116 -0.455209,-0.18326 -0.916332,0.0769 -1.324247,0.26012 -0.5498,0.23648 -0.922245,0.71533 -1.276953,1.17054 -0.03547,-0.0177 -0.106415,-0.0532 -0.141885,-0.0768 0.03547,-0.87495 0.212827,-1.83858 -0.242385,-2.64259 -0.130061,-0.26603 -0.431564,-0.36653 -0.703505,-0.39018 -0.331063,0.59119 -0.431564,1.3006 -0.277855,1.95682 0.07094,0.402 0.248296,0.78036 0.384266,1.16463 -0.51433,-0.56754 -1.010922,-1.15872 -1.590281,-1.66714 0.266034,-0.96363 0.183268,-1.96863 0.147795,-2.95591 0.147798,-1.57255 0.201002,-3.151 0.325152,-4.72355 -0.07686,-0.0769 -0.147795,-0.15961 -0.224651,-0.23647 0.12415,-0.21874 0.230561,-0.45521 0.183268,-0.71533 -0.02957,-1.08778 0.189178,-2.16964 0.12415,-3.25742 0,-0.50841 0.06503,-1.01092 0.13006,-1.51342 0.141881,0.39018 0.242382,0.79218 0.43156,1.15872 0.177357,-0.0769 0.508417,0.0118 0.597093,-0.23056 0.372446,-0.62666 0.106416,-1.40702 0.01181,-2.08097 0.38427,0.41974 0.709419,0.91042 1.176456,1.2474 0.153705,0.0887 0.396091,0.28377 0.567534,0.10641 0.283766,-0.19509 0.195089,-0.5971 0.07094,-0.86313 -0.360622,-0.68577 -0.957716,-1.21783 -1.560723,-1.68486 0.01181,-0.0828 0.02366,-0.16554 0.03547,-0.2483 0.733067,0.1005 1.507518,0.13597 2.216933,-0.10642 0.2483,-0.15961 0.656215,-0.31332 0.561624,-0.69168 0.01181,-0.17144 -0.13597,-0.29559 -0.26012,-0.39609 -0.508417,-0.19509 -1.058216,-0.11233 -1.590278,-0.0887 0.526151,-0.35471 1.046392,-0.84539 1.046392,-1.53116 -0.502506,-0.19509 -0.999098,0.11823 -1.442486,0.31924 -0.520241,0.24829 -0.833569,0.74489 -1.211925,1.1528 -0.147795,-0.39018 -0.04138,-0.82174 0.01776,-1.22375 0.08276,-0.29558 0.07094,-0.61482 0.195089,-0.89859 0.266034,-0.52024 0.449299,-1.07595 0.68577,-1.60801 0.230562,-0.3488 0.289683,-0.78037 0.526155,-1.11734 0.254206,-0.33698 0.449299,-0.70942 0.632563,-1.08778 0.08277,-0.14188 0.04138,-0.30741 -0.02363,-0.44339 0.03547,-0.0709 0.07094,-0.14188 0.106412,-0.20691 -0.218737,-0.3488 -0.41974,-0.70942 -0.603007,-1.08186 -0.260117,-0.32515 -0.455209,-0.69759 -0.632563,-1.0818602 -0.224651,-0.36654 -0.490682,-0.71533 -0.721243,-1.08778 -0.236472,-0.56754 -0.673946,-1.01093 -1.040482,-1.50161 -0.183264,-0.23056 -0.236472,-0.54979 -0.484768,-0.72715 -0.07094,-0.18918 -0.141884,-0.37836 -0.212827,-0.57345 0.555711,-0.2542 1.140983,-0.49068 1.755811,-0.50841 m 4.345191,6.1423802 c 0.02957,0.0887 0.07094,0.17736 0.08277,0.27195 -0.02957,0.73306 -0.461122,1.3538 -0.68577,2.02775 -0.118239,0.3015 -0.295593,0.58527 -0.301504,0.91634 -0.04138,-0.0118 -0.07685,-0.0177 -0.118235,-0.0296 0.05912,0.41382 0.147794,0.85721 0.52024,1.10551 -0.03547,-0.14189 -0.08277,-0.27786 -0.141884,-0.40792 0.04729,0.0118 0.09459,0.0296 0.141884,0.0414 0.09459,-0.13006 0.201003,-0.25421 0.3015,-0.37836 -0.02957,0.0118 -0.08868,0.0355 -0.124146,0.0414 0.141885,-0.17144 0.254207,-0.37244 0.372446,-0.56753 -0.03547,0.006 -0.100501,0.0236 -0.13006,0.0296 0.08868,-0.17145 0.177354,-0.35472 0.183264,-0.54981 0.08277,-0.0177 0.165533,-0.0355 0.248296,-0.0591 -0.02957,0.38427 0.07686,0.75672 0.0473,1.14099 0.01772,0.53797 0.189179,1.05231 0.301504,1.57846 0.112322,-0.065 0.218737,-0.13006 0.331059,-0.1951 -0.01772,-0.16553 0.100501,-0.27785 0.230562,-0.3547 -0.08277,-0.52615 -0.212824,-1.08187 -0.01772,-1.60802 -0.03547,0.0118 -0.07094,0.0237 -0.106412,0.0355 -0.02957,-0.17145 -0.07686,-0.33698 -0.13006,-0.50251 0.02957,0 0.08276,0 0.112322,0 -0.183264,-0.19509 -0.254206,-0.45521 -0.266031,-0.72124 -0.242385,-0.19509 -0.25421,-0.50842 -0.319238,-0.78627 -0.13006,-0.31924 -0.0059,-0.6503 0,-0.97545 -0.183268,-0.0177 -0.354708,-0.0296 -0.532065,-0.0532 m -1.324247,0.43157 c -0.07685,-0.065 -0.153709,-0.11824 -0.236472,-0.17145 0.02957,0.0828 0.05912,0.16553 0.08868,0.2483 -0.05912,-0.006 -0.12415,-0.006 -0.183268,-0.006 -0.141884,0.27786 -0.372446,0.48477 -0.543885,0.73898 0.342883,0.0473 0.668035,-0.0769 1.005008,-0.13006 0.212827,-0.3961 0.738978,-0.47886 0.934067,-0.89269 -0.372443,-0.0414 -0.71533,0.11233 -1.064127,0.21283 m -0.112326,52.42014 c -0.591183,0.96954 -0.325148,2.15782 0.106412,3.13327 -0.419736,-0.43156 -0.768537,-0.93407 -1.229656,-1.32425 -0.38427,-0.36653 -0.880862,-0.63257 -1.424752,-0.60892 -0.08868,0.16553 -0.254206,0.31924 -0.218737,0.52615 0.08277,0.56163 0.51433,0.97546 0.916332,1.33608 -0.537976,-0.15371 -1.129159,-0.17145 -1.667134,-0.0237 -0.3015,0.0709 -0.384267,0.52616 -0.118236,0.6976 0.863128,0.82174 2.128257,0.79809 3.233767,0.6503 -0.212824,0.43156 -0.71533,0.58527 -1.028658,0.92224 -0.526151,0.51433 -1.11142,1.17054 -0.963625,1.96273 0.236472,0 0.484768,0.0473 0.709419,-0.0296 0.744888,-0.36062 1.247394,-1.05231 1.649399,-1.75581 0.141881,0.0887 0.372443,0.14779 0.366532,0.35471 0.04138,0.79809 0.04138,1.65531 0.472947,2.37064 0.16553,-0.006 0.331063,0 0.496592,0 0.478858,-0.66804 0.224652,-1.51343 0.112326,-2.26423 0.366532,0.43748 0.721243,0.8986 1.182363,1.24739 0.153708,0.0946 0.396094,0.27786 0.561624,0.10642 0.295593,-0.19509 0.189178,-0.59119 0.07685,-0.86313 -0.348797,-0.69759 -0.969539,-1.20601 -1.560719,-1.68487 0.01181,-0.0828 0.02363,-0.15962 0.03547,-0.24238 0.68577,0.11232 1.401103,0.0828 2.086873,-0.065 0.41974,-0.10642 0.756713,-0.47295 0.756713,-0.92225 -0.567535,-0.39609 -1.259215,-0.36653 -1.909516,-0.29559 0.490678,-0.38427 1.064126,-0.84539 1.052302,-1.53708 -0.218737,-0.0532 -0.443385,-0.11823 -0.662125,-0.0118 -0.809917,0.20692 -1.483866,0.74489 -1.933165,1.43658 -0.05321,-0.0237 -0.106412,-0.0473 -0.153705,-0.065 0.04729,-0.83948 0.165529,-1.74399 -0.183268,-2.53618 -0.118236,-0.31332 -0.443388,-0.48476 -0.762627,-0.51432 z" id="path4" inkscape:connector-curvature="0" style="fill:#000000;stroke:#000000;stroke-width:0.00554233"/>
  <path d="m 35.531016,12.580906 c 0.08277,-0.0296 0.112326,0.11232 0.03547,0.14188 -0.08277,0.0237 -0.112325,-0.11232 -0.03547,-0.14188 z" id="path6" inkscape:connector-curvature="0" style="fill:#000000;stroke:#000000;stroke-width:0.00554233"/>
  <path d="m 36.364585,15.755546 c 0.06503,-0.0532 0.153705,0.065 0.08276,0.11824 -0.06503,0.0532 -0.153705,-0.065 -0.08276,-0.11824 z" id="path8" inkscape:connector-curvature="0" style="fill:#000000;stroke:#000000;stroke-width:0.00554233"/>
  <path d="m 30.092144,22.228986 c 0.106415,-0.0237 0.106415,0.19509 0,0.17736 -0.06503,-0.0355 -0.06503,-0.14188 0,-0.17736 z" id="path10" inkscape:connector-curvature="0" style="fill:#000000;stroke:#000000;stroke-width:0.00554233"/>
  <path d="m 40.857567,28.016656 c 0.16553,0.0296 0.325149,0.0532 0.490678,0.0946 0.01181,0.14189 0.02957,0.43157 0.04138,0.57936 -0.224648,-0.17735 -0.561621,-0.33106 -0.532062,-0.67395 z" id="path12" inkscape:connector-curvature="0" style="fill:#000000;stroke:#000000;stroke-width:0.00554233"/>
  <path d="m 41.968987,37.694306 c 1.324247,1.8031 2.577552,3.65942 3.878154,5.48026 0.963626,1.41883 2.004107,2.78446 2.920439,4.23286 0.378356,0.63256 0.963625,1.17054 1.117331,1.90951 0.08277,0.28377 0.189178,0.55571 0.289679,0.82766 -0.608918,-0.6503 -1.135069,-1.43657 -1.968634,-1.82084 -0.248296,-0.0769 -0.597094,-0.18918 -0.786272,0.0532 -0.07685,0.0887 -0.147795,0.1951 -0.12415,0.31924 0.08868,0.57345 0.508417,1.01092 0.928157,1.37746 -0.620739,-0.1478 -1.282864,-0.18327 -1.879958,0.0532 -0.01772,0.16553 -0.05321,0.31333 -0.07685,0.47886 0.869034,0.91633 2.234665,0.98136 3.399292,0.78627 -0.153705,0.402 -0.603003,0.53798 -0.898593,0.82174 -0.425654,0.31924 -0.727154,0.78037 -0.987274,1.2474 -0.141885,0.24829 -0.100501,0.54388 -0.100501,0.82174 0.26012,-0.006 0.543886,0.065 0.780357,-0.0768 0.709419,-0.36654 1.194191,-1.02866 1.578457,-1.70852 0.206913,0.10641 0.472947,0.21874 0.360622,0.53206 0.01181,0.76854 0.118236,1.55481 0.490682,2.24058 0.17144,-0.0768 0.502502,0.0118 0.591179,-0.23055 0.372446,-0.62666 0.106415,-1.40702 0.01181,-2.08097 0.342887,0.39018 0.656211,0.80401 1.040482,1.1469 0.177353,0.12415 0.366532,0.28376 0.591179,0.28376 0.201002,-0.10641 0.277855,-0.32515 0.354711,-0.52024 0.16553,0.30742 0.520238,0.56754 0.443385,0.95772 -0.242386,1.98046 -0.543886,3.96092 -0.815831,5.94137 -1.129158,-0.37835 -2.270137,-0.73306 -3.357913,-1.22374 -0.307414,-0.1478 -0.656211,-0.21283 -0.999098,-0.17736 -0.419736,-0.79218 -0.662122,-1.67895 -1.194187,-2.4061 -0.153705,-0.28968 -0.289679,-0.59119 -0.366532,-0.91043 -0.07685,-0.29559 -0.307414,-0.50841 -0.431564,-0.78036 -0.218737,-0.402 -0.289679,-0.87495 -0.597093,-1.22374 -0.206913,-0.48477 -0.407915,-0.98136 -0.673946,-1.43658 -0.100501,-0.41973 -0.319238,-0.79809 -0.490682,-1.19418 -0.09459,-0.19509 -0.266031,-0.3488 -0.325149,-0.55571 -0.02957,-0.70942 -0.597093,-1.21192 -0.821744,-1.8504 -0.266031,-0.52615 -0.502503,-1.07004 -0.768533,-1.59619 -0.05321,-0.15371 -0.218738,-0.20691 -0.360622,-0.25421 0.07685,-0.8513 -0.68577,-1.48386 -0.579359,-2.34699 -0.05321,-2.37064 -0.147795,-4.74719 -0.171443,-7.11783 z" id="path14" inkscape:connector-curvature="0" style="fill:#000000;stroke:#000000;stroke-width:0.00554233"/>
  <path d="m 29.424112,38.918056 c 0.366532,-0.0296 0.727153,-0.0828 1.087771,-0.11233 -0.195088,0.47295 -0.750798,0.63257 -1.129155,0.92816 0.01181,-0.27195 0.01772,-0.54389 0.04138,-0.81583 z" id="path16" inkscape:connector-curvature="0" style="fill:#000000;stroke:#000000;stroke-width:0.00554233"/>
  <path d="m 40.904861,50.629366 c 0.384266,0.0532 0.774447,0.0709 1.170538,0.0709 0.0059,0.46112 0.01181,0.92224 0.05912,1.38336 -0.38427,-0.43747 -0.792185,-0.86312 -1.265129,-1.20601 0.01181,-0.0828 0.02366,-0.16553 0.03547,-0.24829 z" id="path18" inkscape:connector-curvature="0" style="fill:#000000;stroke:#000000;stroke-width:0.00554233"/>
  <path d="m 51.79443,51.598906 c 0.124147,0.13597 0.248296,0.27194 0.360622,0.41974 -0.141885,-0.0828 -0.283769,-0.16554 -0.425654,-0.24239 0.02366,-0.0591 0.04138,-0.11824 0.06503,-0.17735 z" id="path20" inkscape:connector-curvature="0" style="fill:#000000;stroke:#000000;stroke-width:0.00554233"/>
</svg>