<svg xmlns="http://www.w3.org/2000/svg" xmlns:xlink="http://www.w3.org/1999/xlink" version="1.1" id="Layer_1" x="0px" y="0px" width="70.7491082045px" height="100px" viewBox="0 0 595.28 841.89" enable-background="new 0 0 595.28 841.89" xml:space="preserve">
<path fill-rule="evenodd" clip-rule="evenodd" d="M313.219,420.553l4.192,11.533c0,5.092-4.13,9.225-9.225,9.225h-48.428  c-5.095,0-9.225-4.133-9.225-9.225l4.192-11.533h-22.642v-6.92l18.449-25.366v-41.511h0.104c0.44-10.526,5.31-48.302,33.278-55.418  c27.973,7.116,32.841,44.893,33.282,55.418h0.212v41.511l18.449,25.366v6.92H313.219z M280.513,420.553h6.92v-28.826  c0-1.911-1.552-3.46-3.46-3.46c-1.909,0-3.46,1.55-3.46,3.46V420.553z M301.27,339.838c0-5.093-4.13-9.224-9.225-9.224H275.9  c-5.095,0-9.225,4.131-9.225,9.224v16.143c0,5.095,4.13,9.225,9.225,9.225h16.145c5.095,0,9.225-4.13,9.225-9.225V339.838z   M274.471,445.923c2.554,7.882,9.464,18.921,9.464,18.921s6.913-11.039,9.467-18.921h9.437c0.413,1.579,0.667,3.228,0.667,4.935  c0,10.808-19.57,43.492-19.57,43.492s-19.57-32.685-19.57-43.492c0-1.707,0.257-3.355,0.67-4.935H274.471z"/>
</svg>