<svg xmlns="http://www.w3.org/2000/svg" xmlns:xlink="http://www.w3.org/1999/xlink" version="1.1" id="Layer_1" x="0px" y="0px" width="71.467px" height="71.465px" viewBox="0 0 71.467 71.465" enable-background="new 0 0 71.467 71.465" xml:space="preserve">
<path fill="#000000" d="M35.606,40.553l-0.566-0.168l-21.715-6.428v6.057l22.282,6.595l0,0l22.282-6.595v-6.057l-21.717,6.428  L35.606,40.553z"/>
<path fill="#000000" d="M71.108,27.966L35.606,17.458v0L0.104,27.966l35.502,10.507l0,0l24.081-7.127v27.232  c0,0.458,0.371,0.83,0.83,0.83s0.83-0.372,0.83-0.83V30.855l0.996-0.296v29.909c0,0.458,0.372,0.83,0.83,0.83  c0.46,0,0.831-0.372,0.831-0.83v-30.4l0.997-0.295v28.806c0,0.458,0.371,0.83,0.83,0.83c0.458,0,0.83-0.372,0.83-0.83V29.371  c0-0.029-0.014-0.055-0.018-0.084L71.108,27.966L71.108,27.966z"/>
</svg>