<svg xmlns="http://www.w3.org/2000/svg" xmlns:xlink="http://www.w3.org/1999/xlink" version="1.1" id="Layer_1" x="0px" y="0px" width="71.467px" height="71.465px" viewBox="0 0 71.467 71.465" enable-background="new 0 0 71.467 71.465" xml:space="preserve">
<path fill="#000000" d="M52.256,26.235c-6.711-4.013-16.067-8.302-22.205-8.302c-2.645,0-4.478,0.814-5.45,2.419l-2.024,3.383  c-0.833,1.392-1.238,3.638,0.553,7.008c-9.882,0.463-22.8,2.731-22.8,9.077v0.055v3.863c0,6.754,13.458,10.287,26.752,10.287  c7.883,0,15.822-1.241,20.979-3.662c5.284,2.343,10.189,3.661,13.908,3.662l0,0c3.995,0,5.754-1.534,6.522-2.822l2.01-3.362  C74.223,41.629,60.783,31.337,52.256,26.235z M37.002,40.904c-0.426-0.299-0.838-0.597-1.241-0.895l1.855-3.295  c0.411,0.296,0.824,0.59,1.246,0.883L37.002,40.904z M39.367,37.943c0.418,0.286,0.84,0.568,1.266,0.848l-1.867,3.316  c-0.429-0.282-0.851-0.565-1.262-0.851L39.367,37.943z M35.268,39.64c-0.417-0.314-0.82-0.628-1.213-0.94l1.837-3.265  c0.402,0.307,0.812,0.613,1.227,0.918L35.268,39.64z M33.57,38.312c-0.409-0.333-0.8-0.666-1.184-0.995l1.814-3.222  c0.392,0.321,0.793,0.642,1.202,0.959L33.57,38.312z M31.915,36.909c-0.4-0.354-0.78-0.703-1.15-1.053l1.78-3.162  c0.38,0.334,0.775,0.671,1.177,1.006L31.915,36.909z M30.309,35.421c-0.388-0.378-0.761-0.752-1.111-1.121l1.736-3.086  c0.367,0.353,0.749,0.709,1.144,1.063L30.309,35.421z M28.761,33.828c-0.377-0.413-0.73-0.818-1.058-1.216l1.677-2.979  c0.348,0.376,0.716,0.755,1.102,1.138L28.761,33.828z M27.291,32.097c-0.363-0.464-0.69-0.916-0.98-1.354l1.593-2.831  c0.32,0.409,0.669,0.825,1.044,1.244L27.291,32.097z M25.938,30.158c-0.344-0.567-0.621-1.108-0.831-1.617l1.455-2.587  c0.269,0.464,0.581,0.939,0.939,1.427L25.938,30.158z M24.923,25.175l0.748-1.249c0.122,0.445,0.307,0.912,0.546,1.393l-1.384,2.458  C24.522,26.722,24.542,25.835,24.923,25.175z M4.13,45.846c-0.674-0.681-1.036-1.382-1.047-2.075v-1.456  c0.299,0.287,0.652,0.56,1.047,0.822V45.846z M6.261,47.39c-0.583-0.324-1.09-0.658-1.52-0.998v-2.874  c0.46,0.265,0.968,0.515,1.52,0.752V47.39z M8.39,48.387c-0.544-0.218-1.052-0.444-1.518-0.677v-3.188  c0.479,0.189,0.987,0.369,1.518,0.539V48.387z M10.521,49.137c-0.532-0.165-1.039-0.336-1.519-0.514V45.25  c0.489,0.148,0.996,0.286,1.519,0.418V49.137z M12.649,49.719c-0.566-0.138-1.109-0.281-1.63-0.435h0.113v-3.468  c0.494,0.117,1,0.229,1.518,0.333V49.719z M14.78,50.187c-0.519-0.101-1.028-0.208-1.519-0.32v-3.599  c0.497,0.095,1.004,0.181,1.519,0.264V50.187z M16.91,50.552c-0.518-0.079-1.024-0.161-1.519-0.25v-3.673  c0.5,0.074,1.006,0.145,1.519,0.212V50.552z M19.041,50.834c-0.517-0.06-1.023-0.125-1.52-0.192v-3.728  c0.501,0.059,1.007,0.113,1.52,0.164V50.834z M21.17,51.04c-0.514-0.041-1.021-0.088-1.518-0.14v-3.766  c0.502,0.046,1.009,0.085,1.518,0.121V51.04z M23.301,51.18c-0.514-0.026-1.021-0.057-1.519-0.093v-3.79  c0.504,0.031,1.011,0.061,1.519,0.082V51.18z M25.431,51.253c-0.514-0.009-1.02-0.025-1.518-0.047v-3.802  c0.505,0.019,1.012,0.033,1.518,0.042V51.253z M27.561,51.27c-0.16,0.001-0.317,0.004-0.478,0.004c-0.351,0-0.696-0.004-1.041-0.007  v-3.81c0.347,0.005,0.694,0.007,1.041,0.007c0.159,0,0.319-0.004,0.478-0.004V51.27z M29.691,51.229  c-0.5,0.018-1.006,0.026-1.518,0.035v-3.812c0.505-0.007,1.011-0.018,1.518-0.033V51.229z M31.821,51.124  c-0.499,0.031-1.005,0.058-1.519,0.079v-3.802c0.507-0.02,1.013-0.044,1.519-0.073V51.124z M33.951,50.954  c-0.498,0.05-1.003,0.093-1.519,0.13v-3.791c0.508-0.032,1.015-0.066,1.519-0.11V50.954z M36.081,50.716  c-0.496,0.065-1.002,0.124-1.519,0.179v-3.767c0.51-0.047,1.017-0.098,1.519-0.153V50.716z M38.211,50.399  c-0.492,0.082-1.001,0.162-1.52,0.233v-3.729c0.514-0.061,1.02-0.128,1.52-0.198V50.399z M27.083,46.241  c-14.144,0-24.001-3.384-24.001-6.421c0-2.874,8.841-6.06,21.79-6.39c0.284,0.376,0.59,0.764,0.924,1.163  c3.035,3.621,7.604,7.415,12.976,10.795C35.391,45.92,31.441,46.241,27.083,46.241z M40.342,49.989  c-0.491,0.106-0.999,0.206-1.521,0.301v-3.669c0.517-0.078,1.022-0.161,1.521-0.25V49.989z M38.959,42.238l0.331,0.185l1.857-3.296  c0.424,0.275,0.854,0.544,1.283,0.812l-1.871,3.325C40.013,42.921,39.482,42.579,38.959,42.238z M42.95,40.262  c0.224,0.135,0.448,0.271,0.672,0.405c0.209,0.125,0.423,0.248,0.634,0.374l-1.868,3.317c-0.24-0.139-0.479-0.278-0.721-0.424  c-0.196-0.118-0.39-0.236-0.583-0.354L42.95,40.262z M42.472,49.471c-0.49,0.134-0.994,0.26-1.519,0.381v-3.146  c0.507,0.296,1.012,0.588,1.519,0.867V49.471z M44.784,41.348c0.439,0.253,0.879,0.503,1.321,0.748l-1.863,3.312  c-0.438-0.24-0.881-0.485-1.325-0.74L44.784,41.348z M43.082,49.302v-1.396c0.552,0.299,1.101,0.591,1.647,0.87  C44.21,48.959,43.66,49.136,43.082,49.302z M44.78,45.698l1.863-3.309c0.443,0.241,0.892,0.479,1.34,0.712l-1.858,3.303  C45.683,46.178,45.231,45.941,44.78,45.698z M48.043,47.341c-0.452-0.211-0.908-0.434-1.368-0.663l1.853-3.293  c0.452,0.23,0.907,0.455,1.361,0.677L48.043,47.341z M48.599,47.598l1.841-3.271c0.461,0.222,0.921,0.438,1.382,0.646l-1.826,3.24  C49.534,48.019,49.071,47.813,48.599,47.598z M50.562,48.454l1.818-3.231c0.47,0.209,0.938,0.41,1.403,0.603l-1.799,3.195  C51.519,48.843,51.045,48.655,50.562,48.454z M52.564,49.238l1.79-3.18c0.48,0.196,0.957,0.382,1.43,0.559l-1.763,3.13  C53.546,49.59,53.06,49.422,52.564,49.238z M54.616,49.94l1.75-3.108c0.493,0.178,0.977,0.348,1.457,0.502l-1.714,3.047  C55.623,50.248,55.123,50.1,54.616,49.94z M56.722,50.539l1.696-3.017c0.513,0.159,1.011,0.303,1.501,0.433l-1.652,2.934  C57.769,50.79,57.254,50.674,56.722,50.539z M58.902,51.007l1.628-2.893c0.535,0.129,1.055,0.242,1.556,0.331l-1.563,2.781  C60.012,51.178,59.47,51.104,58.902,51.007z M61.195,51.276l1.532-2.722c0.574,0.087,1.124,0.146,1.644,0.177l-1.423,2.526  C62.415,51.304,61.831,51.312,61.195,51.276z M66.131,49.792c-0.415,0.691-1.247,1.151-2.424,1.368l1.355-2.413  c0.66-0.002,1.265-0.06,1.801-0.182L66.131,49.792z M68.145,46.428c-1.561,2.607-11.757,0.451-23.894-6.81  C32.113,32.356,25.392,24.393,26.95,21.786c1.559-2.607,11.754-0.45,23.893,6.81C62.979,35.858,69.702,43.822,68.145,46.428z"/>
</svg>