<svg xmlns="http://www.w3.org/2000/svg" xmlns:xlink="http://www.w3.org/1999/xlink" version="1.1" id="Layer_1" x="0px" y="0px" width="71.467px" height="71.465px" viewBox="0 0 71.467 71.465" enable-background="new 0 0 71.467 71.465" xml:space="preserve">
<path fill="#000000" d="M71.234,13.542l-56.999,0.002l-2.332-7.772L0,5.772v4.668l8.651,0.001l8.074,22.71l9.258,25.224H57.24  v-4.607H29.208l-2.872-9.26h34.741L71.234,13.542z M24.656,39.9l-2.488-5.277l-5.943-16.437l48.725,0.001L57.603,39.9H24.656z"/>
<path fill="#000000" d="M35.892,66.186c0,2.562-2.077,4.64-4.639,4.64c-2.562,0-4.639-2.077-4.639-4.64  c0-2.562,2.078-4.64,4.639-4.64C33.815,61.546,35.892,63.624,35.892,66.186z"/>
<path fill="#000000" d="M57.097,66.163c0,2.55-2.067,4.616-4.618,4.616c-2.55,0-4.615-2.066-4.615-4.616s2.065-4.617,4.615-4.617  C55.029,61.546,57.097,63.613,57.097,66.163z"/>
</svg>