<svg xmlns="http://www.w3.org/2000/svg" xmlns:xlink="http://www.w3.org/1999/xlink" version="1.1" id="Ok" x="0px" y="0px" width="100px" height="100px" viewBox="0 0 100 100" enable-background="new 0 0 100 100" xml:space="preserve">
<path d="M32.906,61.613c-0.326,0-0.59,0.264-0.59,0.59c0,10.089,8.208,18.297,18.296,18.297c0.326,0,0.589-0.264,0.589-0.59  C51.202,69.821,42.995,61.613,32.906,61.613z"/>
<path d="M50.117,69.13c0.108,0.172,0.297,0.275,0.5,0.275s0.392-0.105,0.5-0.276c1.244-1.981,2.794-3.715,4.605-5.152  c0.178-0.141,0.258-0.37,0.21-0.592c-0.761-3.396-2.455-6.486-4.9-8.933c-0.23-0.23-0.604-0.23-0.834,0  c-2.455,2.451-4.151,5.54-4.905,8.935c-0.049,0.22,0.032,0.449,0.209,0.59C47.321,65.419,48.874,67.152,50.117,69.13z"/>
<path d="M68.319,61.611c-6.982,0-13.454,4.083-16.486,10.4c-0.07,0.148-0.078,0.319-0.017,0.473c0.901,2.282,1.376,4.681,1.41,7.127  c0.003,0.174,0.082,0.338,0.216,0.448c0.106,0.087,0.238,0.134,0.375,0.134c0.035,0,0.07-0.003,0.105-0.009  c8.685-1.588,14.986-9.15,14.986-17.982C68.909,61.876,68.646,61.611,68.319,61.611z"/>
<path d="M78.528,90.5H22.698c-4.947,0-8.972-4.024-8.972-8.972c0-1.773,0.516-3.483,1.493-4.955l23.88-51.938V16.77  c-1.474-0.268-2.594-1.56-2.594-3.11c0-1.743,1.417-3.16,3.16-3.16h21.897c1.742,0,3.16,1.417,3.16,3.16  c0,1.55-1.121,2.843-2.595,3.11v7.863l23.88,51.94c0.978,1.471,1.493,3.181,1.493,4.955C87.5,86.476,83.476,90.5,78.528,90.5z   M41.763,26.021l-23.87,51.916c-0.036,0.077-0.078,0.151-0.125,0.221c-0.682,0.995-1.042,2.16-1.042,3.37  c0,3.293,2.679,5.972,5.972,5.972h55.831c3.293,0,5.972-2.679,5.972-5.972c0-1.211-0.36-2.376-1.042-3.369  c-0.048-0.07-0.09-0.145-0.126-0.222L59.438,25.965c-0.193-0.249-0.311-0.557-0.311-0.89v-9.755c0-0.829,0.672-1.5,1.5-1.5h0.935  c0.088,0,0.16-0.072,0.16-0.161s-0.072-0.16-0.16-0.16H39.665c-0.088,0-0.16,0.072-0.16,0.16s0.072,0.161,0.16,0.161h0.934  c0.829,0,1.5,0.671,1.5,1.5v9.755C42.099,25.434,41.973,25.763,41.763,26.021z"/>
</svg>