<svg xmlns="http://www.w3.org/2000/svg" xmlns:xlink="http://www.w3.org/1999/xlink" version="1.1" id="Layer_1" x="0px" y="0px" width="71.467px" height="71.465px" viewBox="0 0 71.467 71.465" enable-background="new 0 0 71.467 71.465" xml:space="preserve">
<path fill="#000000" d="M71.036,9.118l-8.487-8.488c-0.505-0.504-1.396-0.504-1.901,0l-6.064,6.065c-0.001,0-0.001,0-0.002,0.001  c0,0.001-0.001,0.001-0.001,0.002l-3.007,3.006l0,0v0.001L4.031,57.247c-0.156,0.156-0.271,0.348-0.335,0.557L0.059,69.729  c-0.143,0.468-0.02,0.977,0.32,1.328c0.256,0.264,0.606,0.408,0.965,0.408c0.117,0,0.236-0.016,0.352-0.048l11.924-3.233  c0.227-0.06,0.433-0.18,0.598-0.346l56.819-56.82C71.562,10.494,71.562,9.643,71.036,9.118z M61.012,17.242l-6.587-6.588  l1.106-1.108l6.588,6.588L61.012,17.242z M58.005,20.25l-6.588-6.588l1.106-1.107l6.588,6.588L58.005,20.25z M54.997,23.258  l-6.588-6.588l1.107-1.107l6.588,6.588L54.997,23.258z M13.47,64.785l-6.588-6.588L46.508,18.57l6.588,6.588L13.47,64.785z   M5.614,60.729l5.381,5.382l-7.657,2.075L5.614,60.729z M64.02,14.235l-6.588-6.588l4.167-4.167l6.588,6.587L64.02,14.235z"/>
</svg>