<svg xmlns="http://www.w3.org/2000/svg" xmlns:xlink="http://www.w3.org/1999/xlink" version="1.1" id="Capa_1" x="0px" y="0px" width="100px" height="100px" viewBox="0 0 100 100" enable-background="new 0 0 100 100" xml:space="preserve">
<path fill-rule="evenodd" clip-rule="evenodd" d="M85.583,65.03c-0.401-1.178-0.604-2.399-1.719-3.177  c-0.079-0.056-0.104-0.202-0.133-0.312c-0.311-1.117-0.823-2.08-1.76-2.837c-0.725-0.587-0.633-1.126,0.142-1.71  c0.434-0.325,0.888-0.624,1.319-0.951c0.481-0.364,0.57-0.803,0.275-1.352c-0.48-0.896-0.987-1.771-1.527-2.637  c-1.227-1.97-1.813-4.174-1.527-6.533c0.107-0.883,0.287-1.724,1.166-2.25c0.474-0.284,0.555-0.832,0.531-1.378  c-0.022-0.513-0.073-1.049,0.31-1.472c0.576-0.635,0.434-1.3,0.139-1.992c-0.312-0.731-0.95-0.822-1.583-0.712  c-2.412,0.415-4.84,0.315-7.267,0.332c-0.7,0.004-1.364-0.133-1.979-0.468c-1.697-0.925-3.383-1.83-4.717-3.32  c-1.21-1.353-2.748-1.826-4.56-1.073c-1.26,0.526-2.533,0.639-3.655-0.427c-0.526-0.501-1.116-0.503-1.709-0.052  c-0.452,0.345-0.778,0.122-1.085-0.265c-0.535-0.671-1.203-1.208-1.908-1.685c-0.335-0.228-0.822-0.417-0.817-0.813  c0.011-0.809,0.161-1.613-0.038-2.421c-0.013-0.054,0.209-0.169,0.328-0.248c0.499-0.334,0.644-0.841,0.476-1.358  c-0.263-0.808-0.513-1.627-1.175-2.253c-0.603-0.57-1.118-1.226-1.318-2.067c-0.365-1.53-0.362-1.535-1.889-1.781  c-0.355-0.057-0.734-0.231-0.445-0.582c0.954-1.173,1.082-2.537,1.081-3.949c-0.001-0.352,0.165-0.661,0.388-0.831  c0.86-0.652,0.957-1.624,1.201-2.551c0.18-0.685,0.441-1.275,1.073-1.77c1.045-0.817,2.254-1.671,2.887-2.717  c0.717-1.186,1.601-1.947,2.692-2.578c0.772-0.447,1.62-0.722,2.105-1.583c0.209-0.372,0.773-0.59,0.557-1.126  c-0.206-0.506-0.568-0.864-1.142-1.068c-0.803-0.285-1.531-0.977-2.407-0.178c-0.038,0.035-0.166-0.012-0.245-0.041  c-0.477-0.178-0.718,0.002-0.745,0.491c-0.026,0.46-0.308,0.874-0.683,0.88c-1.079,0.021-1.39,0.865-1.86,1.542  c-0.485,0.701-1.031,1.269-1.928,1.426c-1.124,0.199-2.034,0.928-3.071,1.356c-0.823,0.339-1.568,0.794-2.495,0.733  c-0.464-0.031-0.91-0.002-1.292,0.325c-0.396,0.341-0.826,0.424-1.354,0.25c-0.483-0.16-1.065-0.131-1.203,0.473  c-0.22,0.968-0.833,0.936-1.554,0.768c-0.775-0.18-1.52-0.114-2.271,0.158c-1.682,0.606-2.895,1.763-3.956,3.151  c-0.536,0.7-0.632,1.416-0.266,2.151c0.198,0.398,0.136,0.575-0.156,0.851c-0.754,0.71-1.09,1.526-0.453,2.506  c0.219,0.335,0.02,0.435-0.262,0.628c-0.499,0.34-1.219,0.025-1.586,0.53c-0.363,0.5-0.886,0.799-1.292,1.239  c-0.935,1.013-2.033,1.828-3.256,2.456c-0.942,0.482-1.002,0.573-0.54,1.553c0.258,0.549,0.485,1.101,0.406,1.729  c-0.023,0.177-0.073,0.351-0.271,0.388c-0.195,0.035-0.174-0.204-0.272-0.266c-0.875-0.553-1.237-1.533-1.898-2.262  c-0.465-0.513-0.959-0.603-1.506-0.173c-0.526,0.416-0.365,0.903-0.088,1.381c0.473,0.819,0.417,1.758,0.597,2.643  c0.079,0.39-0.254,0.513-0.526,0.686c-1.006,0.641-2.075,1.195-2.868,2.13c-0.551,0.65-0.498,1.695,0.245,2.093  c1.425,0.764,2.093,2.142,2.932,3.386c0.316,0.469,0.229,0.831-0.271,1.14c-0.829,0.513-0.983,0.947-0.341,1.606  c0.826,0.849,0.557,1.618-0.022,2.3c-0.667,0.788-0.435,1.428-0.133,2.274c0.447,1.251,1.288,2.518,0.37,3.958  c-0.213,0.335-0.33,0.762-0.542,1.137c-0.352,0.626-0.399,1.308,0.152,1.892c0.354,0.375,0.732,0.726,1.088,1.1  c0.284,0.297,0.604,0.697,0.381,1.064c-0.567,0.939-0.524,2.276-1.782,2.781c-0.231,0.093-0.436,0.273-0.624,0.447  c-0.671,0.621-1.595,1.052-1.529,2.212c0.02,0.362-0.292,0.647-0.664,0.687c-1.651,0.169-2.856,1.221-4.187,2.039  c-0.47,0.288-0.493,0.643-0.344,1.096c0.443,1.344,0.31,1.666-0.939,2.312c-0.78,0.403-0.923,0.923-0.418,1.636  c0.65,0.92,1.412,1.706,2.433,2.244c0.678,0.357,1.333,0.782,1.847,1.377c0.518,0.601,1.116,0.805,1.917,0.577  c0.616-0.175,1.366-0.19,1.616,0.554c0.325,0.967,1.148,1.229,1.905,1.57c0.908,0.408,1.853,0.761,2.814,1.021  c1.27,0.345,2.578,0.519,3.804-0.183c0.516-0.296,0.906-0.219,1.295,0.183c0.991,1.025,2.392,1.437,3.49,2.308  c0.159,0.126,0.432,0.135,0.655,0.148c2.457,0.147,4.045,1.606,5.271,3.552c0.556,0.885,1.036,1.777,1.809,2.543  c0.926,0.916,2.099,1.472,3.023,2.377c0.593,0.582,0.936,1.38,1.664,1.826c0.784,0.48,1.046,1.121,0.794,2.042  c-0.253,0.936-0.017,1.392,0.937,1.586c2.053,0.42,4.122,0.314,6.011-0.625c1.42-0.707,2.684-1.107,4.104-0.035  c0.705,0.534,1.566,0.526,2.319-0.037c0.515-0.387,1.047-0.415,1.616-0.2c0.509,0.19,1.027,0.362,1.516,0.595  c1.516,0.723,1.862,2.757,0.672,3.956c-0.679,0.686-1.346,1.36-1.846,2.206c-0.648,1.1-0.226,2.118,1.002,2.232  c0.54,0.05,0.974,0.274,1.294,0.73c0.246,0.349,0.534,0.667,0.81,0.993c0.271,0.321,0.616,0.427,1.002,0.265  c0.367-0.152,0.386-0.496,0.462-0.848c0.283-1.309-0.014-2.681,0.537-3.967c0.97-2.264,1.212-4.68,1.335-7.107  c0.048-0.947,0.144-1.863,0.56-2.741c0.277-0.588,0.47-1.213,0.487-1.896c0.066-2.492-1.368-4.343-2.683-6.212  c-1.229-1.75-2.133-3.642,0.447-5.33c0.66-0.432,1.204-0.796,2.02-0.437c0.315,0.14,0.733,0.053,1.105,0.062  c0.481,0.011,0.629-0.262,0.652-0.708c0.052-1.049-0.875-2.119-1.95-2.208c-1.645-0.139-1.837-0.313-1.837-1.68  c-0.001-1.771,0.448-2.142,2.169-1.816c0.48,0.089,0.986,0.156,1.439-0.05c0.766-0.35,1.471-0.289,2.218,0.083  c0.872,0.434,2.52,0.19,3.023-0.498c0.525-0.719,0.957-0.747,1.701-0.287c0.516,0.319,1.165,0.815,1.881,0.175  c0.331-0.296,0.566-1.049,1.221-0.551c0.396,0.303,0.808,0.635,0.985,1.161c0.123,0.36,0.146,0.723,0.152,1.096  c0.01,0.483-0.001,0.96,0.104,1.448c0.118,0.556,0.352,0.819,0.922,0.735c0.549-0.081,0.89-0.324,0.868-0.951  C85.939,66.32,85.812,65.698,85.583,65.03z"/>
</svg>