<svg xmlns="http://www.w3.org/2000/svg" xmlns:xlink="http://www.w3.org/1999/xlink" version="1.1" id="Capa_1" x="0px" y="0px" width="100px" height="100px" viewBox="0 0 100 100" enable-background="new 0 0 100 100" xml:space="preserve">
<path d="M43.846,81.822c0.778-2.89,1.215-6.119,1.215-9.528c0-12.335-5.697-22.334-12.724-22.334s-12.723,9.999-12.723,22.334  c0,3.409,0.437,6.639,1.214,9.528H43.846z"/>
<path d="M23.029,87.384c1.746,6.414,5.257,10.798,9.308,10.798s7.564-4.384,9.311-10.798H23.029z"/>
<path d="M77.839,32.862c0.777-2.889,1.214-6.118,1.214-9.527C79.053,11,73.357,1,66.33,1S53.606,11,53.606,23.334  c0,3.409,0.437,6.638,1.215,9.527H77.839z"/>
<path d="M57.02,38.423c1.747,6.415,5.259,10.798,9.311,10.798s7.562-4.383,9.309-10.798H57.02z"/>
</svg>