<?xml version="1.0" encoding="utf-8"?>
<!-- Generator: Adobe Illustrator 14.0.0, SVG Export Plug-In . SVG Version: 6.00 Build 43363)  -->
<!DOCTYPE svg PUBLIC "-//W3C//DTD SVG 1.0//EN" "http://www.w3.org/TR/2001/REC-SVG-20010904/DTD/svg10.dtd">
<svg version="1.0" id="Layer_1" xmlns="http://www.w3.org/2000/svg" xmlns:xlink="http://www.w3.org/1999/xlink" x="0px" y="0px"
	 width="100.35px" height="100px" viewBox="0 0 100.35 100" enable-background="new 0 0 100.35 100" xml:space="preserve">
<path d="M50.187,0C32.428,0,17.973,14.456,17.973,32.213c0,17.768,14.455,32.217,32.214,32.217c17.76,0,32.211-14.449,32.211-32.217
	C82.398,14.456,67.947,0,50.187,0z M50.187,61.447c-16.116,0-29.239-13.117-29.239-29.234c0-16.114,13.123-29.234,29.239-29.234
	c16.113,0,29.233,13.12,29.233,29.234C79.42,48.33,66.3,61.447,50.187,61.447z"/>
<path d="M33.511,30.091c1.414,0,4.778,0,6.185,0c0-1.424,0-4.853,0-6.273c-1.406,0-4.771,0-6.185,0
	C33.511,25.238,33.511,28.667,33.511,30.091z"/>
<g>
	<path d="M50.215,6.868c-13.984,0-25.357,11.381-25.357,25.359c0,13.981,11.373,25.352,25.357,25.352
		c13.977,0,25.347-11.371,25.347-25.352C75.562,18.25,64.192,6.868,50.215,6.868z M31.333,32.291V21.618h10.598v10.672H31.333z
		 M42.25,51.801c-2.901,0-5.253-2.348-5.253-5.252c0-2.908,2.352-5.257,5.253-5.257c2.897,0,5.246,2.349,5.246,5.257
		C47.495,49.453,45.147,51.801,42.25,51.801z M48.604,40.133c-2.901,0-5.256-2.352-5.256-5.253c0-2.901,2.355-5.257,5.256-5.257
		c2.894,0,5.246,2.355,5.246,5.257C53.85,37.781,51.498,40.133,48.604,40.133z M52.284,20.229c-3.05,0-5.529-2.483-5.529-5.537
		c0-3.061,2.479-5.533,5.529-5.533c3.057,0,5.529,2.472,5.529,5.533C57.813,17.747,55.341,20.229,52.284,20.229z M61.462,48.412
		c-2.912,0-5.261-2.352-5.261-5.253c0-2.905,2.349-5.257,5.261-5.257c2.896,0,5.249,2.352,5.249,5.257
		C66.711,46.06,64.358,48.412,61.462,48.412z M62.573,32.975c-2.896,0-5.252-2.356-5.252-5.257c0-2.908,2.355-5.257,5.252-5.257
		c2.908,0,5.261,2.349,5.261,5.257C67.834,30.619,65.481,32.975,62.573,32.975z"/>
</g>
<g>
	<path d="M10.467,55.104v-20.28c0-2.876-2.355-5.217-5.249-5.217C2.334,29.606,0,31.947,0,34.823v27.771
		c0,3.84,1.382,7.548,3.861,10.445l17.317,18.392c1.718,1.615,2.14,3.05,2.14,5.221V100h18.847l0.021-7.966
		c0-3.036,0.248-7.089-3.549-11.067L16.666,58.904c-0.783-0.755-1.81-1.166-2.897-1.166c-2.299,0-4.169,1.863-4.169,4.159
		c0,0.991,0.351,1.955,0.992,2.713l10.598,11.352c0.688,0.805,1.849,2.32,2.426,4.18c0.312,0.968,0.4,1.909,0.418,2.99h-3.411
		c-0.014-0.772-0.071-1.389-0.255-1.963c-0.333-1.073-0.999-2.036-1.498-2.656L8.111,66.707c-1.353-1.363-2.093-3.131-2.093-4.987
		C6.018,58.933,7.693,56.368,10.467,55.104z"/>
</g>
<g>
	<path d="M89.883,55.104v-20.28c0-2.876,2.355-5.217,5.249-5.217c2.884,0,5.218,2.341,5.218,5.217v27.771
		c0,3.84-1.382,7.548-3.861,10.445L79.172,91.432c-1.718,1.615-2.14,3.05-2.14,5.221V100H58.186l-0.021-7.966
		c0-3.036-0.248-7.089,3.549-11.067l21.972-22.062c0.782-0.755,1.81-1.166,2.896-1.166c2.299,0,4.17,1.863,4.17,4.159
		c0,0.991-0.352,1.955-0.992,2.713L79.161,75.962c-0.688,0.805-1.849,2.32-2.427,4.18c-0.312,0.968-0.4,1.909-0.418,2.99h3.411
		c0.015-0.772,0.071-1.389,0.255-1.963c0.333-1.073,0.999-2.036,1.499-2.656l10.757-11.806c1.353-1.363,2.093-3.131,2.093-4.987
		C94.331,58.933,92.656,56.368,89.883,55.104z"/>
</g>
</svg>
