<svg xmlns="http://www.w3.org/2000/svg" xmlns:xlink="http://www.w3.org/1999/xlink" version="1.1" id="Capa_1" x="0px" y="0px" width="100px" height="100px" viewBox="0 0 100 100" enable-background="new 0 0 100 100" xml:space="preserve">
<polygon points="93.069,19.58 93.069,15.202 6.931,15.202 6.931,19.58 0.733,19.58 0.733,28.338 99.267,28.338 99.267,19.58 "/>
<path d="M90.411,73.804L89.062,38.12c0-2.237-1.812-4.049-4.051-4.049s-4.051,1.812-4.051,4.049l-1.392,35.684H67.038l-1.35-35.378  c0-2.236-1.818-4.047-4.053-4.047c-2.236,0-4.052,1.812-4.052,4.047l-1.309,35.378H43.762L42.37,38.12  c0-2.237-1.814-4.049-4.052-4.049c-2.238,0-4.053,1.812-4.053,4.049l-1.349,35.684H20.241L18.849,38.12  c0-2.237-1.811-4.049-4.049-4.049c-2.241,0-4.054,1.812-4.054,4.049L9.398,73.804H1.297v11.693h97.406V73.804H90.411z"/>
</svg>