<svg xmlns="http://www.w3.org/2000/svg" xmlns:xlink="http://www.w3.org/1999/xlink" version="1.1" id="Capa_1" x="0px" y="0px" width="100px" height="100px" viewBox="0 0 100 100" enable-background="new 0 0 100 100" xml:space="preserve">
<ellipse cx="50.502" cy="50.329" rx="19.58" ry="15.816"/>
<path d="M50.503,11.518c2.376,0,4.301,1.926,4.301,4.301c0,2.378-1.925,4.302-4.301,4.302c-2.377,0-4.302-1.924-4.302-4.302  C46.201,13.443,48.126,11.518,50.503,11.518z"/>
<path d="M58.216,32.623v-8.454c0-1.854-1.505-3.36-3.36-3.36h-8.706c-1.856,0-3.36,1.506-3.36,3.36v8.454H58.216z"/>
<path d="M50.503,67.352c2.376,0,4.301,1.926,4.301,4.301c0,2.378-1.925,4.302-4.301,4.302c-2.377,0-4.302-1.924-4.302-4.302  C46.201,69.277,48.126,67.352,50.503,67.352z"/>
<path d="M58.216,88.457v-8.454c0-1.854-1.505-3.36-3.36-3.36h-8.706c-1.856,0-3.36,1.506-3.36,3.36v8.454H58.216z"/>
<path d="M80.223,39.31c2.375,0,4.301,1.926,4.301,4.301c0,2.378-1.926,4.302-4.301,4.302c-2.377,0-4.303-1.924-4.303-4.302  C75.92,41.235,77.846,39.31,80.223,39.31z"/>
<path d="M87.936,60.415v-8.454c0-1.854-1.506-3.36-3.361-3.36h-8.705c-1.857,0-3.361,1.506-3.361,3.36v8.454H87.936z"/>
<path d="M19.753,39.31c2.375,0,4.301,1.926,4.301,4.301c0,2.378-1.925,4.302-4.301,4.302c-2.377,0-4.302-1.924-4.302-4.302  C15.451,41.235,17.376,39.31,19.753,39.31z"/>
<path d="M27.466,60.415v-8.454c0-1.854-1.505-3.36-3.36-3.36h-8.706c-1.856,0-3.36,1.506-3.36,3.36v8.454H27.466z"/>
</svg>