<svg xmlns="http://www.w3.org/2000/svg" xmlns:xlink="http://www.w3.org/1999/xlink" version="1.1" id="Capa_1" x="0px" y="0px" width="100px" height="100px" viewBox="0 0 100 100" enable-background="new 0 0 100 100" xml:space="preserve">
<path d="M74.025,51.581h-14.15c-0.872,0-1.579-0.707-1.579-1.579c0-0.872,0.707-1.579,1.579-1.579h14.15  c0.871,0,1.579,0.707,1.579,1.579C75.604,50.875,74.896,51.581,74.025,51.581z"/>
<path d="M96.469,51.581H82.319c-0.872,0-1.58-0.707-1.58-1.579c0-0.872,0.708-1.579,1.58-1.579h14.149  c0.872,0,1.579,0.707,1.579,1.579C98.048,50.875,97.341,51.581,96.469,51.581z"/>
<path d="M54.699,49.777c-0.007-0.076-0.02-0.151-0.034-0.227c-0.014-0.074-0.031-0.146-0.052-0.219  c-0.022-0.073-0.049-0.144-0.077-0.216c-0.029-0.073-0.062-0.143-0.098-0.213c-0.035-0.066-0.074-0.13-0.116-0.194  c-0.045-0.069-0.093-0.135-0.146-0.2c-0.024-0.029-0.04-0.061-0.065-0.089c-0.029-0.032-0.064-0.056-0.094-0.085  c-0.031-0.031-0.055-0.065-0.087-0.094L41.796,37.344c-0.974-0.874-2.471-0.793-3.345,0.18c-0.874,0.974-0.793,2.471,0.18,3.345  l7.533,6.764H1.574v4.738h44.59l-7.258,6.518c-0.974,0.874-1.054,2.372-0.18,3.346c0.468,0.521,1.114,0.786,1.764,0.786  c0.563,0,1.129-0.2,1.582-0.606L53.926,51.77c0.001-0.001,0.002-0.002,0.003-0.003l0.002-0.002c0.001-0.001,0.001-0.001,0.002-0.002  c0.062-0.056,0.122-0.114,0.179-0.178c0.025-0.028,0.042-0.062,0.065-0.09c0.053-0.064,0.101-0.13,0.146-0.199  c0.042-0.063,0.081-0.128,0.116-0.194c0.036-0.07,0.068-0.14,0.098-0.212c0.028-0.071,0.055-0.143,0.077-0.216  c0.021-0.073,0.038-0.145,0.052-0.219c0.015-0.076,0.027-0.15,0.034-0.227c0.007-0.075,0.009-0.15,0.009-0.226  S54.706,49.852,54.699,49.777z"/>
</svg>