<svg xmlns="http://www.w3.org/2000/svg" xmlns:xlink="http://www.w3.org/1999/xlink" version="1.1" id="Capa_1" x="0px" y="0px" width="100px" height="100px" viewBox="0 0 100 100" enable-background="new 0 0 100 100" xml:space="preserve">
<g>
	<path d="M44.942,81.257c-0.047,0-0.094-0.002-0.141-0.006c-0.722-0.071-1.272-0.68-1.272-1.403V42.062l-4.508,9.904   c-0.229,0.503-0.73,0.826-1.284,0.826H2.485c-0.779,0-1.41-0.631-1.41-1.41s0.631-1.41,1.41-1.41H36.83l6.826-14.997   c0.276-0.604,0.935-0.934,1.582-0.794c0.649,0.141,1.112,0.715,1.112,1.378v30.043l9.143-45.726   c0.144-0.711,0.803-1.198,1.521-1.127c0.722,0.072,1.272,0.679,1.272,1.404v38.004l2.151-7.18c0.18-0.596,0.729-1.005,1.351-1.005   h35.479c0.779,0,1.41,0.631,1.41,1.41s-0.631,1.41-1.41,1.41H62.84l-4.612,15.382c-0.201,0.67-0.861,1.095-1.557,0.991   c-0.691-0.102-1.205-0.696-1.205-1.396V34.397l-9.143,45.727C46.19,80.788,45.606,81.257,44.942,81.257z"/>
</g>
</svg>