<svg xmlns="http://www.w3.org/2000/svg" xmlns:xlink="http://www.w3.org/1999/xlink" version="1.1" x="0px" y="0px" width="100px" height="100px" viewBox="0 0 100 100" enable-background="new 0 0 100 100" xml:space="preserve">
<g id="Captions">
</g>
<g id="Your_Icon">
	<g>
		<path d="M49,50c-1.657,0-3,1.343-3,3v32c0,3.321-2.424,4.5-4.5,4.5S37,88.321,37,85c0-1.655,1.123-2.879,1.122-2.879c0,0,0,0,0,0    c1.172-1.171,1.172-3.071,0-4.242c-1.171-1.172-3.071-1.172-4.242,0C33.584,78.173,31,80.876,31,85    c0,3.152,1.19,5.946,3.351,7.867C36.261,94.565,38.8,95.5,41.5,95.5C46.718,95.5,52,91.894,52,85V53C52,51.343,50.657,50,49,50z"/>
		<path d="M18,70.653l-0.464,1.161C17.196,72.664,15.5,76.957,15.5,78c0,1.285,1.215,2.5,2.5,2.5s2.5-1.215,2.5-2.5    c0-1.043-1.696-5.336-2.036-6.186L18,70.653z"/>
		<path d="M72.464,61.814L72,60.653l-0.464,1.161C71.196,62.664,69.5,66.957,69.5,68c0,1.285,1.215,2.5,2.5,2.5s2.5-1.215,2.5-2.5    C74.5,66.957,72.804,62.664,72.464,61.814z"/>
		<path d="M91,52c0-10.268-4.141-20.374-11.359-27.727C72.523,17.024,62.797,12.758,52,12.092V7c0-1.657-1.343-3-3-3s-3,1.343-3,3    v5.092c-10.796,0.667-20.523,4.933-27.641,12.182C11.14,31.626,7,41.732,7,52v1c0,1.657,1.343,3,3,3s3-1.343,3-3    c0-2.619,2.153-4.75,4.8-4.75s4.8,2.131,4.8,4.75c0,1.657,1.343,3,3,3s3-1.343,3-3c0-2.619,2.154-4.75,4.801-4.75    c2.646,0,4.8,2.131,4.8,4.75c0,1.657,1.343,3,3,3s3-1.343,3-3c0-2.619,2.153-4.75,4.8-4.75s4.8,2.131,4.8,4.75    c0,1.657,1.343,3,3,3s3-1.343,3-3c0-2.619,2.153-4.75,4.8-4.75c2.647,0,4.801,2.131,4.801,4.75c0,1.657,1.343,3,3,3s3-1.343,3-3    c0-2.619,2.153-4.75,4.8-4.75S85,50.381,85,53c0,1.657,1.343,3,3,3s3-1.343,3-3c0-0.22-0.007-0.438-0.02-0.654    C90.993,52.232,91,52.117,91,52z M26,41.5c-1.285,0-2.5-1.215-2.5-2.5c0-1.043,1.696-5.336,2.036-6.186L26,31.654l0.464,1.161    c0.34,0.85,2.036,5.142,2.036,6.186C28.5,40.285,27.285,41.5,26,41.5z M55,28.5c-1.285,0-2.5-1.215-2.5-2.5    c0-1.043,1.696-5.336,2.036-6.186L55,18.654l0.464,1.161c0.34,0.85,2.036,5.142,2.036,6.186C57.5,27.285,56.285,28.5,55,28.5z     M65,39.5c-1.285,0-2.5-1.215-2.5-2.5c0-1.043,1.696-5.336,2.036-6.186L65,29.654l0.464,1.161c0.34,0.85,2.036,5.142,2.036,6.186    C67.5,38.285,66.285,39.5,65,39.5z"/>
	</g>
</g>
</svg>