<svg xmlns="http://www.w3.org/2000/svg" xmlns:xlink="http://www.w3.org/1999/xlink" version="1.1" id="Layer_1" x="0px" y="0px" width="32px" height="22px" viewBox="0 0 32 22" enable-background="new 0 0 32 22" xml:space="preserve">
<path d="M28,0H4C1.791,0,0,1.716,0,3.833v14.334C0,20.283,1.791,22,4,22h24c2.209,0,4-1.717,4-3.833V3.833C32,1.716,30.209,0,28,0z   M28.561,16.439c0.586,0.586,0.586,1.535,0,2.121C28.268,18.854,27.884,19,27.5,19s-0.768-0.146-1.061-0.439L21,13.121l-5,5l-5-5  l-5.439,5.439C5.268,18.854,4.884,19,4.5,19s-0.768-0.146-1.061-0.439c-0.586-0.586-0.586-1.535,0-2.121L8.879,11L3.439,5.561  c-0.586-0.585-0.586-1.536,0-2.121c0.586-0.586,1.535-0.586,2.121,0L16,13.879l3.93-3.93c0.003-0.003,0.004-0.008,0.008-0.012  s0.008-0.004,0.012-0.008l6.49-6.49c0.586-0.586,1.535-0.586,2.121,0c0.586,0.585,0.586,1.536,0,2.121L23.121,11L28.561,16.439z"/>
</svg>