<svg xmlns="http://www.w3.org/2000/svg" xmlns:xlink="http://www.w3.org/1999/xlink" version="1.1" id="Layer_1" x="0px" y="0px" width="100px" height="100px" viewBox="0 0 100 100" enable-background="new 0 0 100 100" xml:space="preserve">
<path stroke="#000000" d="M95.312,82.26c0,1.756-0.692,3.177-1.547,3.177H8.098c-0.854,0-1.547-1.421-1.547-3.177l0,0  c0-1.754,0.693-3.175,1.547-3.175h85.668C94.62,79.085,95.312,80.506,95.312,82.26L95.312,82.26z"/>
<g>
	<path stroke="#000000" d="M14.694,76.479V43.417c0,0-1.303-9.121,9.283-9.121s26.955,0,26.955,0v42.182H14.694z"/>
	<path stroke="#000000" d="M86.238,76.479V43.417c0,0,1.303-9.121-9.283-9.121c-10.587,0-26.955,0-26.955,0v42.182H86.238z"/>
</g>
<path stroke="#000000" d="M24.14,31.854"/>
<path stroke="#000000" d="M36.301,30.173c0,1.354-1.097,1.099-2.45,1.099l0,0c-1.354,0-2.451,0.255-2.451-1.099V18.788  c0-1.354,1.097-1.454,2.451-1.454l0,0c1.354,0,2.45,0.1,2.45,1.454V30.173z"/>
<path stroke="#000000" d="M47.464,30.173c0,1.354-1.097,1.099-2.45,1.099l0,0c-1.354,0-2.451,0.255-2.451-1.099V18.788  c0-1.354,1.097-1.454,2.451-1.454l0,0c1.354,0,2.45,0.1,2.45,1.454V30.173z"/>
<path stroke="#000000" d="M59.347,30.173c0,1.354-1.097,1.099-2.45,1.099l0,0c-1.354,0-2.451,0.255-2.451-1.099V18.788  c0-1.354,1.098-1.454,2.451-1.454l0,0c1.354,0,2.45,0.1,2.45,1.454V30.173z"/>
<path stroke="#000000" d="M70.464,30.173c0,1.354-1.097,1.099-2.45,1.099l0,0c-1.354,0-2.451,0.255-2.451-1.099V18.788  c0-1.354,1.098-1.454,2.451-1.454l0,0c1.354,0,2.45,0.1,2.45,1.454V30.173z"/>
<g>
	<path stroke="#000000" stroke-linecap="round" d="M33.851,15.312c0,0-2.288-0.438-1.538-2.125s1.264-2.312,1.538-3.938"/>
	<path stroke="#000000" stroke-linecap="round" d="M33.851,15.312c0,0,2.288-0.438,1.538-2.125s-1.264-2.312-1.538-3.938"/>
</g>
<g>
	<path stroke="#000000" stroke-linecap="round" d="M45.014,15.312c0,0-2.288-0.438-1.538-2.125s1.264-2.312,1.538-3.938"/>
	<path stroke="#000000" stroke-linecap="round" d="M45.014,15.312c0,0,2.288-0.438,1.538-2.125s-1.264-2.312-1.538-3.938"/>
</g>
<g>
	<path stroke="#000000" stroke-linecap="round" d="M57.006,15.312c0,0-2.288-0.438-1.538-2.125s1.264-2.312,1.538-3.938"/>
	<path stroke="#000000" stroke-linecap="round" d="M57.006,15.312c0,0,2.288-0.438,1.538-2.125s-1.264-2.312-1.538-3.938"/>
</g>
<g>
	<path stroke="#000000" stroke-linecap="round" d="M68.014,15.312c0,0-2.288-0.438-1.538-2.125s1.264-2.312,1.538-3.938"/>
	<path stroke="#000000" stroke-linecap="round" d="M68.014,15.312c0,0,2.288-0.438,1.538-2.125s-1.264-2.312-1.538-3.938"/>
</g>
</svg>