<svg xmlns="http://www.w3.org/2000/svg" xmlns:xlink="http://www.w3.org/1999/xlink" version="1.1" id="Layer_1" x="0px" y="0px" width="100px" height="100px" viewBox="0 0 100 100" enable-background="new 0 0 100 100" xml:space="preserve">
<path fill="none" stroke="#000000" stroke-width="4" d="M19.232,45.33c0,0,7.728-16.822,31.608-16.822  c23.879,0,30.785,16.822,30.785,16.822S72.998,63.658,50.84,63.658S19.232,45.33,19.232,45.33z"/>
<ellipse stroke="#000000" stroke-width="3" cx="50.429" cy="44.101" rx="14.232" ry="13.433"/>
<path stroke="#000000" stroke-width="3" d="M50.429,7.98c0.832,0,1.506,0.956,1.506,2.134v9.792c0,1.179-0.674,2.134-1.506,2.134  l0,0c-0.832,0-1.506-0.956-1.506-2.134v-9.792C48.922,8.936,49.597,7.98,50.429,7.98L50.429,7.98z"/>
<path stroke="#000000" stroke-width="3" d="M98.152,33.136c0.436,0.708-0.023,1.784-1.027,2.402l-8.339,5.134  c-1.003,0.618-2.171,0.545-2.606-0.164l0,0c-0.437-0.708,0.023-1.783,1.027-2.401l8.339-5.134  C96.549,32.354,97.716,32.428,98.152,33.136L98.152,33.136z"/>
<path stroke="#000000" stroke-width="3" d="M2.454,33.136c-0.436,0.708,0.024,1.784,1.027,2.402l8.339,5.134  c1.003,0.617,2.171,0.544,2.607-0.164l0,0c0.436-0.708-0.024-1.783-1.028-2.401l-8.339-5.134  C4.057,32.354,2.891,32.428,2.454,33.136L2.454,33.136z"/>
<path stroke="#000000" stroke-width="3" d="M21.645,15.181c-0.704,0.443-0.767,1.611-0.14,2.608l5.208,8.292  c0.627,0.998,1.707,1.448,2.41,1.006l0,0c0.705-0.443,0.767-1.61,0.141-2.608l-5.208-8.292  C23.428,15.189,22.35,14.739,21.645,15.181L21.645,15.181z"/>
<path stroke="#000000" stroke-width="3" d="M79.966,15.181c0.703,0.443,0.767,1.611,0.141,2.608l-5.209,8.292  c-0.627,0.998-1.706,1.448-2.411,1.006l0,0c-0.704-0.443-0.766-1.61-0.14-2.608l5.208-8.292  C78.182,15.189,79.26,14.739,79.966,15.181L79.966,15.181z"/>
</svg>