<svg xmlns="http://www.w3.org/2000/svg" xmlns:xlink="http://www.w3.org/1999/xlink" version="1.1" x="0px" y="0px" width="100px" height="100px" viewBox="0 0 100 100" enable-background="new 0 0 100 100" xml:space="preserve">
<g id="Calque_2">
	<path fill="#000000" stroke="#010202" stroke-width="0.5" stroke-miterlimit="10" d="M9.083,40.75L5.25,44.917L3.833,43.5   c0,0-0.667-0.667,0-1.5s0.666-2.917,0.333-3.5s1.167-1.833,1.167-1.833l0.333-2.583c0,0,0.287-0.25,0.644,0s0.94,0.833,0.94,0.833   S7.667,35,8.583,34.667s4-1.667,8.583,0.167s7.75,5.417,15.25,2.833c0,0,7.167-1.334,9,2.583c0,0,8.417-2.167,8.167,8.583   l-3.301-1.127c0,0,0.884-5.956-3.616-5.873c0,0,1.083,4.01,0.958,4.604s0.594,3.844,0.594,3.844l2.062,2.844l0.031,10.781h-2.469   v-8.969c0,0-4.281-2.531-4.688-3.5c0,0-0.635-0.375-0.927,0.312l0.604,4.312c0,0-0.042,0.459-0.417,0.854s-3.542,6.989-3.542,6.989   h-3.042l3.833-7.219c0,0,0.708-1.457,0.125-2.354s-2.896-5.438-2.896-5.438s-0.417-0.688-1.583,0s-6.396,1.271-7.396,1.438   l-0.083,13.573H21V56c0,0-3.083-5-3.167-5.25l-3.667,2.834c0,0-0.666,1.166-0.083,1.916s1.333,2,1.333,2l-1.25,3.25l-3.583-6.583   c0,0-1-0.834,0.583-1.917l4.333-4.667c0,0-1.583-3-1.25-4.333L9.083,40.75z"/>
</g>
<g id="Calque_3">
	<g>
		<path fill="#000000" stroke="#010202" stroke-width="0.5" stroke-miterlimit="10" d="M95,46"/>
		<path fill="#000000" stroke="#010202" stroke-width="0.5" stroke-miterlimit="10" d="M96.417,46L96.417,46v11.584H84.25h-0.667    c0-4.557-3.693-8.25-8.25-8.25s-8.25,3.693-8.25,8.25H53.75l0.083-4.834l-9.899-3.854l-0.217-2.068l10.116,3.589v-4.833"/>
	</g>
	<circle fill="#000000" stroke="#010202" stroke-width="0.5" stroke-miterlimit="10" cx="75.333" cy="57.584" r="6.322"/>
</g>
<g id="Calque_4">
	<path fill="#000000" stroke="#010202" stroke-width="0.5" stroke-miterlimit="10" d="M68.281,37.829   c-0.094-1.952-1.688-1.892-1.688-1.892v-0.812l0,0c0.681-0.382,1.073-1.102,1.073-1.938c0-1.231-0.998-2.229-2.229-2.229   s-2.229,0.998-2.229,2.229c0,0.979,0.634,1.8,1.511,2.101v0.837c-2,0.125-1.768,1.906-1.768,1.906v2.125H59.25   c-1.156,0.875-0.094,1.562-0.094,1.562s2.094,0,2.812,0s0.969,0.438,0.969,0.438s0.031,0.844,0,1.188S62.219,44,62.219,44   s-2.531,0.032-3.875,0s-1.562,1.562-1.562,1.562h11.5C68.326,42.78,68.519,42.775,68.281,37.829z"/>
</g>
</svg>