<svg xmlns:dc="http://purl.org/dc/elements/1.1/" xmlns:cc="http://creativecommons.org/ns#" xmlns:rdf="http://www.w3.org/1999/02/22-rdf-syntax-ns#" xmlns:svg="http://www.w3.org/2000/svg" xmlns="http://www.w3.org/2000/svg" xmlns:sodipodi="http://sodipodi.sourceforge.net/DTD/sodipodi-0.dtd" xmlns:inkscape="http://www.inkscape.org/namespaces/inkscape" version="1.1" id="Layer_1" x="0px" y="0px" width="32px" height="32px" viewBox="0 0 32 32" enable-background="new 0 0 32 32" xml:space="preserve" inkscape:version="0.48.3.1 r9886" sodipodi:docname="car_robot.svg"><metadata id="metadata3261"><rdf:RDF><cc:Work rdf:about=""><dc:format>image/svg+xml</dc:format><dc:type rdf:resource="http://purl.org/dc/dcmitype/StillImage"/><dc:title/></cc:Work></rdf:RDF></metadata><defs id="defs3259"><inkscape:path-effect effect="spiro" id="path-effect4729" is_visible="true"/><inkscape:path-effect effect="spiro" id="path-effect4725" is_visible="true"/><inkscape:path-effect effect="spiro" id="path-effect4682" is_visible="true"/><inkscape:path-effect effect="spiro" id="path-effect4682-8" is_visible="true"/></defs><sodipodi:namedview pagecolor="#ffffff" bordercolor="#666666" borderopacity="1" objecttolerance="10" gridtolerance="10" guidetolerance="10" inkscape:pageopacity="0" inkscape:pageshadow="2" inkscape:window-width="1027" inkscape:window-height="833" id="namedview3257" showgrid="false" inkscape:zoom="19.28125" inkscape:cx="16" inkscape:cy="16" inkscape:window-x="615" inkscape:window-y="147" inkscape:window-maximized="0" inkscape:current-layer="Layer_1"/><g id="g4778"><path transform="matrix(0.59415486,0,0,0.81386162,2.5307267,32.47252)" d="m 10.781543,-12.611385 a 3.1904566,3.3554802 0 1 1 -6.3809132,0 3.1904566,3.3554802 0 1 1 6.3809132,0 z" sodipodi:ry="3.3554802" sodipodi:rx="3.1904566" sodipodi:cy="-12.611385" sodipodi:cx="7.5910864" id="path4660-6-9" style="fill:#ffffff;fill-opacity:1;stroke:#000000;stroke-width:2.79999995;stroke-miterlimit:4;stroke-opacity:1;stroke-dasharray:none;stroke-dashoffset:0" sodipodi:type="arc"/><path inkscape:connector-curvature="0" inkscape:original-d="m 5.2807556,18.578078 12.5417954,-4.510646 7.371055,2.310331 -0.220032,3.850551 -11.441637,4.510647 -8.0311504,-2.640378 z" inkscape:path-effect="#path-effect4682" id="path4680" d="m 5.2807556,18.578078 12.5417954,-4.510646 7.371055,2.310331 -0.220032,3.850551 -11.441637,4.510647 -8.0311504,-2.640378 -0.220031,-3.520505" style="fill:#ffffff;fill-opacity:1;stroke:#000000;stroke-width:1.39999998;stroke-linecap:butt;stroke-linejoin:round;stroke-miterlimit:4;stroke-opacity:1;stroke-dasharray:none"/><path inkscape:connector-curvature="0" style="fill:#000000;fill-opacity:1;stroke:none" d="m 24.296617,5.0808939 c 2.49147,0 4.503633,1.4880826 4.503633,3.3306334 0,1.8003927 -1.945729,3.2639907 -4.378532,3.3306337 l 0.06265,0.74014 c 2.957766,-0.08097 5.316789,-1.881881 5.316789,-4.0707737 0,-2.2430261 -2.471454,-4.0707741 -5.50444,-4.0707741 l 0,0.7401407 z" id="path37550"/><path inkscape:connector-curvature="0" style="fill:#000000;fill-opacity:1;stroke:none" d="m 21.166433,5.0808939 c -2.49147,0 -4.503633,1.4880826 -4.503633,3.3306334 0,1.8003927 1.945729,3.2639907 4.378532,3.3306337 l -0.06265,0.74014 c -2.957766,-0.08097 -5.316789,-1.881881 -5.316789,-4.0707737 0,-2.2430261 2.471454,-4.0707741 5.50444,-4.0707741 l 0,0.7401407 z" id="path37548"/><path inkscape:connector-curvature="0" style="fill:#000000;fill-opacity:1;stroke:none" d="m 24.294316,6.6745206 c 1.386578,0 2.502018,0.8249165 2.502018,1.8503519 0,1.0025354 -1.084775,1.8132415 -2.439468,1.8503515 l 0.06265,0.740141 c 1.879636,-0.05151 3.377724,-1.1994572 3.377724,-2.5904925 0,-1.4259108 -1.57473,-2.5904927 -3.502825,-2.5904927 l 0,0.7401408 z" id="path37556"/><path inkscape:connector-curvature="0" style="fill:#000000;fill-opacity:1;stroke:none" d="m 21.360309,6.6745206 c -1.386579,0 -2.502018,0.8249165 -2.502018,1.8503519 0,1.0025354 1.084775,1.8132415 2.439467,1.8503515 l -0.06265,0.740141 c -1.879636,-0.05151 -3.377725,-1.1994572 -3.377725,-2.5904925 0,-1.4259108 1.574731,-2.5904927 3.502826,-2.5904927 l 0,0.7401408 z" id="path37554"/><path inkscape:connector-curvature="0" style="fill:#000000;fill-opacity:1;fill-rule:evenodd;stroke:none" d="m 21.836573,8.5431181 0,7.2163719 2.001615,0 0,-7.2163719 -2.001615,0 z" id="path9979"/><path transform="matrix(2.0016146,0,0,1.4802815,18.397779,2.4142408)" d="m 2.4757033,4.1001196 a 0.29708439,0.29708439 0 1 1 -0.5941688,0 0.29708439,0.29708439 0 1 1 0.5941688,0 z" sodipodi:ry="0.29708439" sodipodi:rx="0.29708439" sodipodi:cy="4.1001196" sodipodi:cx="2.1786189" id="path2960" style="fill:none;stroke:#000000;stroke-width:1.38900006;stroke-linejoin:round;stroke-miterlimit:4;stroke-opacity:1;stroke-dasharray:none" sodipodi:type="arc"/><path transform="matrix(0.59415486,0,0,0.81386162,18.943537,32.307497)" d="m 10.781543,-12.611385 a 3.1904566,3.3554802 0 1 1 -6.3809132,0 3.1904566,3.3554802 0 1 1 6.3809132,0 z" sodipodi:ry="3.3554802" sodipodi:rx="3.1904566" sodipodi:cy="-12.611385" sodipodi:cx="7.5910864" id="path4660" style="fill:#ffffff;fill-opacity:1;stroke:#000000;stroke-width:2.79999995;stroke-miterlimit:4;stroke-opacity:1;stroke-dasharray:none;stroke-dashoffset:0" sodipodi:type="arc"/><path transform="matrix(0.59415486,0,0,0.81386162,11.662033,35.332931)" d="m 10.781543,-12.611385 a 3.1904566,3.3554802 0 1 1 -6.3809132,0 3.1904566,3.3554802 0 1 1 6.3809132,0 z" sodipodi:ry="3.3554802" sodipodi:rx="3.1904566" sodipodi:cy="-12.611385" sodipodi:cx="7.5910864" id="path4660-6" style="fill:#ffffff;fill-opacity:1;stroke:#000000;stroke-width:2.79999995;stroke-miterlimit:4;stroke-opacity:1;stroke-dasharray:none;stroke-dashoffset:0" sodipodi:type="arc"/><path sodipodi:nodetypes="ccc" inkscape:connector-curvature="0" inkscape:original-d="m 6.0508655,18.908126 7.8111185,2.310331 11.111591,-4.620661" inkscape:path-effect="#path-effect4725" id="path4723" d="m 6.0508655,18.908126 7.8111185,2.310331 11.111591,-4.620661" style="fill:none;stroke:#000000;stroke-width:1.39999998;stroke-linecap:butt;stroke-linejoin:round;stroke-miterlimit:4;stroke-opacity:1;stroke-dasharray:none"/><path inkscape:connector-curvature="0" inkscape:original-d="m 14.082016,20.448347 0,3.85055" inkscape:path-effect="#path-effect4729" id="path4727" d="m 14.082016,20.448347 0,3.85055" style="fill:none;stroke:#000000;stroke-width:1.39999998;stroke-linecap:butt;stroke-linejoin:round;stroke-miterlimit:4;stroke-opacity:1;stroke-dasharray:none"/></g></svg>