<svg xmlns="http://www.w3.org/2000/svg" xmlns:xlink="http://www.w3.org/1999/xlink" version="1.1" id="Your_Icon" x="0px" y="0px" width="100px" height="100px" viewBox="0 0 100 100" enable-background="new 0 0 100 100" xml:space="preserve">
<path fill="#000000" d="M87.388,12.613c-1.434-6.314-7.056-10.96-13.755-10.961c-7.787,0.001-14.122,6.336-14.122,14.124  c0.001,1.896,0.326,3.632,0.988,5.251l-8.755,8.755c-0.682-0.068-1.373-0.104-2.072-0.104c-7.722,0-33.805,13.664-39.022,18.79  C5.312,53.713,1.999,61.014,2,69.09C2,85.057,14.943,98,30.91,98c8.076,0,15.378-3.312,20.621-8.648  c5.127-5.218,18.792-31.302,18.792-39.023c0-0.7-0.037-1.391-0.104-2.073l8.776-8.776c1.657,0.665,3.431,1.01,5.23,1.011  c7.787,0,14.122-6.335,14.122-14.122C98.348,19.67,93.702,14.048,87.388,12.613z M84.227,34.49c-1.499,0-2.967-0.419-4.246-1.211  l-2.021-1.25l-9.586,9.585c-2.051-4.394-5.595-7.937-9.988-9.988l9.617-9.618l-1.312-2.035c-0.815-1.267-1.18-2.562-1.181-4.2  c0-4.478,3.644-8.122,8.121-8.122c4.348,0,7.906,3.406,8.101,7.753l0.123,2.739l2.739,0.124c4.348,0.195,7.753,3.753,7.753,8.1  C92.348,30.846,88.704,34.49,84.227,34.49z"/>
</svg>