<svg xmlns="http://www.w3.org/2000/svg" xmlns:xlink="http://www.w3.org/1999/xlink" version="1.1" x="0px" y="0px" width="100px" height="100px" viewBox="0 0 100 100" enable-background="new 0 0 100 100" xml:space="preserve">
<g id="Captions">
</g>
<g id="Your_Icon">
	<polygon points="66,50 66,34 50,34 50,43 48,43 48,34 32,34 32,50 41,50 41,52 32,52 32,68 48,68 48,59 50,59 50,68 66,68 66,52    57,52 57,50  "/>
	<polygon points="28,35.438 22.24,29.707 16,35.842 16,16 35.842,16 29.705,22.24 37.425,30 46,30 46,0 0,0 0,46 28,46  "/>
	<polygon points="35.719,72 30.353,77.449 36.621,84 16,84 16,63.379 22.55,69.649 28,64.282 28,54 0,54 0,100 47,100 47,72  "/>
	<polygon points="54,0 54,30 62.571,30 70.293,22.239 64.158,16 84,16 84,35.842 77.76,29.705 70,37.426 70,46 100,46 100,0  "/>
	<polygon points="70,54 70,62.571 77.76,70.293 84,64.158 84,84 64.158,84 70.296,77.76 64.565,72 54,72 54,100 100,100 100,54  "/>
</g>
</svg>