<svg xmlns="http://www.w3.org/2000/svg" xmlns:xlink="http://www.w3.org/1999/xlink" version="1.1" id="icon" x="0px" y="0px" width="100px" height="100px" viewBox="0 0 100 100" enable-background="new 0 0 100 100" xml:space="preserve">
<path fill="none" d="M35.33,45.527c-0.455,1.521-0.703,3.13-0.703,4.798c0,9.252,7.528,16.78,16.781,16.78  c9.253,0,16.78-7.528,16.78-16.78c0-9.253-7.527-16.782-16.78-16.782c-3.979,0-7.636,1.394-10.515,3.716"/>
<path fill="none" d="M43.86,41.089c2.104-1.777,4.823-2.851,7.793-2.851c6.675,0,12.086,5.411,12.086,12.087  c0,6.675-5.411,12.086-12.086,12.086S39.566,57,39.566,50.325c0-1.19,0.175-2.34,0.496-3.426"/>
<path d="M51.653,62.411c6.675,0,12.086-5.411,12.086-12.086c0-6.676-5.411-12.087-12.086-12.087c-2.971,0-5.689,1.074-7.793,2.851  l6.904,8.912l-10.701-3.102c-0.321,1.086-0.496,2.236-0.496,3.426C39.566,57,44.979,62.411,51.653,62.411z"/>
<path d="M95.057,48.825C84.039,33.862,67.672,25.281,50.151,25.281c-16.744,0-32.641,7.963-43.614,21.848l-1.579,1.998l1.51,2.05  C17.487,66.14,33.854,74.72,51.374,74.72c16.744,0,32.641-7.963,43.614-21.847l1.58-1.998L95.057,48.825z M51.408,67.105  c-9.253,0-16.781-7.528-16.781-16.78c0-1.668,0.248-3.277,0.703-4.798l-3.846-1.116c-0.558,1.876-0.862,3.859-0.862,5.914  c0,6.265,2.798,11.878,7.197,15.691c-9.327-2.842-17.789-8.594-24.389-16.745c6.763-7.775,15.339-13.18,24.667-15.7l0.347,0.524  l2.451,3.164c2.879-2.322,6.536-3.716,10.515-3.716c9.253,0,16.78,7.528,16.78,16.782C68.188,59.577,60.661,67.105,51.408,67.105z   M65.076,65.945c4.352-3.813,7.117-9.394,7.117-15.62c0-6.453-2.956-12.228-7.584-16.043c8.969,2.933,17.101,8.561,23.487,16.448  C81.734,58.044,73.765,63.253,65.076,65.945z"/>
</svg>