<svg xmlns="http://www.w3.org/2000/svg" xmlns:xlink="http://www.w3.org/1999/xlink" version="1.1" id="Layer_1" x="0px" y="0px" width="100px" height="91px" viewBox="0 0 100 91" enable-background="new 0 0 100 91" xml:space="preserve">
<path fill="#000000" d="M96.5,37.3h-7V15.8c0-1.9-1.6-3.5-3.5-3.5s-3.5,1.6-3.5,3.5v21.5h-11V15.8c0-1.9-1.6-3.5-3.5-3.5  s-3.5,1.6-3.5,3.5v21.5h-11V15.8c0-1.9-1.6-3.5-3.5-3.5c-1.9,0-3.5,1.6-3.5,3.5v21.5h-11V15.8c0-1.9-1.6-3.5-3.5-3.5  s-3.5,1.6-3.5,3.5v21.5h-11V15.8c0-1.9-1.6-3.5-3.5-3.5s-3.5,1.6-3.5,3.5v21.5h-7c-1.9,0-3.5,1.6-3.5,3.5v46.5  c0,1.9,1.6,3.5,3.5,3.5h93c1.9,0,3.5-1.6,3.5-3.5V40.8C100,38.9,98.4,37.3,96.5,37.3z M7,57.1h86v14H7V57.1z M93,44.3v9.3H7v-9.3H93  z M7,83.8v-9.3h86v9.3H7z"/>
<path fill="#000000" d="M10.5,8.3C10,7.2,10,6,10.5,5c0,0,3.4-5.3,4.2-4.9C15.1,0.3,17.4,5,17.4,5c0.9,1.9,0.1,4.2-1.9,5.1  C13.7,11.1,11.4,10.3,10.5,8.3z"/>
<path fill="#000000" d="M28.5,8.3C28,7.2,28,6,28.5,5l1.9-4c0.4-0.9,1.5-1.3,2.3-0.9c0.4,0.2,0.7,0.5,0.9,0.9l1.9,4  c0.9,1.9,0.1,4.2-1.9,5.1C31.7,11.1,29.4,10.3,28.5,8.3z"/>
<path fill="#000000" d="M46.5,8.3C46,7.2,46,6,46.5,5l1.9-4c0.4-0.9,1.5-1.3,2.3-0.9C51.1,0.3,51.4,0.6,51.6,1l1.9,4  c0.9,1.9,0.1,4.2-1.9,5.1C49.7,11.1,47.4,10.3,46.5,8.3z"/>
<path fill="#000000" d="M64.5,8.3C64,7.2,64,6,64.5,5l1.9-4c0.399-0.9,1.5-1.3,2.3-0.9C69.1,0.3,69.4,0.6,69.6,1l1.9,4  c0.9,1.9,0.1,4.2-1.9,5.1C67.7,11.1,65.4,10.3,64.5,8.3z"/>
<path fill="#000000" d="M82.6,8.3c-0.5-1.1-0.5-2.3,0-3.3l1.9-4c0.4-0.9,1.5-1.3,2.3-0.9c0.4,0.2,0.7,0.5,0.9,0.9L89.6,5  c0.9,1.9,0.101,4.2-1.899,5.1C85.7,11.1,83.5,10.3,82.6,8.3z"/>
</svg>