<svg xmlns="http://www.w3.org/2000/svg" xmlns:xlink="http://www.w3.org/1999/xlink" version="1.1" id="Layer_1" x="0px" y="0px" width="77.2727272727px" height="100px" viewBox="0 0 612 792" enable-background="new 0 0 612 792" xml:space="preserve">
<path d="M504,333l-72,18v-38.281c21.926-17.306,36-44.118,36-74.218c0-52.191-42.309-94.5-94.5-94.5  c-31.46,0-59.323,15.377-76.5,39.02C279.823,159.377,251.959,144,220.5,144c-52.191,0-94.5,42.309-94.5,94.5  c0,30.101,14.075,56.912,36,74.218V450c0,14.912,12.088,27,27,27h63.267l-69.379,107.222c-5.4,8.346-3.013,19.49,5.334,24.891  c3.022,1.956,6.411,2.89,9.761,2.89c5.902,0,11.685-2.899,15.129-8.224L279,501.952V630c0,9.941,8.059,18,18,18s18-8.059,18-18  V501.952l65.888,101.826c3.445,5.324,9.227,8.224,15.129,8.224c3.351,0,6.74-0.935,9.762-2.89c8.347-5.4,10.734-16.545,5.334-24.891  L341.733,477H405c14.912,0,27-12.088,27-27v-27l72,18h18V333L504,333z"/>
</svg>