<svg xmlns="http://www.w3.org/2000/svg" xmlns:xlink="http://www.w3.org/1999/xlink" version="1.1" x="0px" y="0px" width="100px" height="100px" viewBox="0 0 100 100" enable-background="new 0 0 100 100" xml:space="preserve">
<g id="Captions">
</g>
<g id="Your_Icon">
	<path d="M92.684,42.156l-8.372-2.129c-0.721-2.479-1.699-4.849-2.91-7.074l4.421-7.436c0.089-0.156,0.171-0.317,0.246-0.48   c0.846-1.166,0.746-2.804-0.305-3.854l-6.91-6.912c-1.167-1.165-2.818-0.786-4.219,0l-7.428,4.417   c-2.219-1.222-4.582-2.213-7.057-2.946l-2.132-8.385c-0.049-0.173-0.105-0.346-0.165-0.515c-0.228-1.421-1.456-2.509-2.941-2.509   h-9.775c-1.647,0-2.547,1.438-2.982,2.982l-2.128,8.373c-2.479,0.719-4.848,1.699-7.073,2.909l-7.436-4.421   c-0.157-0.089-0.318-0.17-0.48-0.246c-1.166-0.845-2.804-0.746-3.854,0.305l-6.912,6.912c-1.165,1.165-0.785,2.818,0,4.217   l4.417,7.429c-1.222,2.219-2.214,4.582-2.945,7.056l-8.385,2.132c-0.174,0.048-0.346,0.104-0.515,0.166   c-1.421,0.228-2.509,1.455-2.508,2.94v9.775c0,1.647,1.437,2.548,2.982,2.982l8.373,2.13c0.719,2.478,1.699,4.847,2.909,7.072   l-4.421,7.437c-0.089,0.157-0.17,0.317-0.247,0.48c-0.844,1.165-0.745,2.804,0.306,3.854l6.912,6.912   c1.165,1.165,2.817,0.784,4.217,0l7.429-4.417c2.219,1.222,4.581,2.214,7.056,2.946l2.131,8.384   c0.049,0.174,0.105,0.346,0.166,0.515c0.228,1.422,1.456,2.509,2.941,2.509h9.774c1.648,0,2.548-1.438,2.982-2.981l2.13-8.373   c2.479-0.72,4.848-1.699,7.073-2.91l7.437,4.422c0.157,0.088,0.317,0.17,0.48,0.246c1.165,0.845,2.803,0.745,3.853-0.305   l6.912-6.911c1.165-1.166,0.785-2.818,0.001-4.219l-4.418-7.428c1.223-2.219,2.215-4.581,2.947-7.057l8.384-2.131   c0.174-0.049,0.346-0.105,0.515-0.166c1.422-0.228,2.509-1.456,2.509-2.941v-9.774C95.666,43.49,94.229,42.59,92.684,42.156z    M50,74.567c-13.568,0-24.567-10.999-24.567-24.567c0-13.567,10.999-24.566,24.567-24.566S74.567,36.433,74.567,50   C74.567,63.568,63.568,74.567,50,74.567z"/>
</g>
</svg>