<svg xmlns="http://www.w3.org/2000/svg" xmlns:xlink="http://www.w3.org/1999/xlink" version="1.1" id="Your_Icon" x="0px" y="0px" width="100px" height="100px" viewBox="0 0 100 100" enable-background="new 0 0 100 100" xml:space="preserve">
<path d="M29.302,5.134c0.89-0.753,1.896-1.417,3.036-1.962c0.639-0.307,0.92-1.099,0.629-1.77c-0.292-0.672-1.046-0.967-1.685-0.661  c-5.451,2.609-9.087,7.907-10.517,15.318c-0.732,3.801-0.711,7.211-0.623,9.009c-4.705,0.685-8.328,4.922-8.328,10.05  c0,5.604,4.328,10.148,9.666,10.148s9.666-4.544,9.666-10.148c0-5.174-3.687-9.439-8.453-10.066c-0.146-2.87-0.15-11.1,3.978-17.016  c1.255,4.075,4.897,7.022,9.196,7.022c0.073,0,0.146-0.005,0.218-0.006c0.001-0.076,0.005-0.152,0.005-0.228  C36.09,10.273,33.234,6.421,29.302,5.134z"/>
<path d="M34.485,31.062c0.359,1.216,0.555,2.5,0.555,3.831c0,7.457-6.045,13.5-13.501,13.5c-7.455,0-13.5-6.043-13.5-13.5  c0-1,0.112-1.974,0.319-2.911C3.205,34.542,0,38.914,0,42.501v44.77C0,94.302,12.293,100,27.46,100c1.57,0,3.11-0.062,4.607-0.179  l59.967-22.314h0.01v-0.005V62.397V47.392V30.917L34.485,31.062z M89.439,75.691L35.201,95.875V83.55l54.238-20.184V75.691z   M89.439,48.361L35.201,68.543V55.378v-0.164l54.238-20.182V48.361z"/>
</svg>