<svg xmlns="http://www.w3.org/2000/svg" xmlns:xlink="http://www.w3.org/1999/xlink" version="1.1" id="Layer_1" x="0px" y="0px" width="100px" height="100px" viewBox="0 0 100 100" enable-background="new 0 0 100 100" xml:space="preserve">
<path fill="#000000" d="M99.444,22.717c-0.084-0.569-1.049-6.155-6.959-9.073c-8.242-4.071-21.535-0.903-39.504,9.403  c-3.237-1.4-6.602-1.963-9.295-1.512l-0.038,0.006l-0.035,0.009C36.359,23.477,9.631,54.583,8.322,56.11  C7.811,56.612,0,64.456,0,72.784c0,0.15,0.003,0.301,0.009,0.455c0.122,3.549,1.702,6.641,4.714,9.203  c22.286,17.635,44.284,10.75,56.352-0.502l0.016-0.012l0.012-0.014c1.814-1.869,4.08-5.307,6.479-8.947  c1.896-2.877,3.859-5.85,5.572-7.984c2.455-3.057,3.314-2.99,3.465-2.945l0.045,0.014l0.049,0.01  c4.307,0.73,8.652-1.348,12.57-6.012C95.743,48.357,100,34.94,100,26.889C100,25.238,99.819,23.82,99.444,22.717z M76.823,38.437  c-8.893-3.511-11.289-8.334-20.52-13.04C101.118-1.17,100.02,34.116,76.823,38.437z"/>
</svg>