<svg xmlns="http://www.w3.org/2000/svg" xmlns:xlink="http://www.w3.org/1999/xlink" version="1.1" id="Camada_1" x="0px" y="0px" width="100px" height="85.5855855856px" viewBox="0 0 111 95" enable-background="new 0 0 111 95" xml:space="preserve">
<g>
	<g>
		<path fill="#000000" d="M104.343,59.979h-0.009c4.685-6.157,7.313-13.35,7.16-20.989C111.063,17.007,87.805-0.362,59.553,0.194    C31.301,0.749,8.751,19.021,9.183,40.999c0.008,0.403,0.023,0.804,0.048,1.204l1.382-0.889c-0.006-0.122,7.458-3.969,7.458-4.091    c0-15.986,23.184-31.354,41.478-31.354c16.493,0,44.731,9.461,44.731,33.198c-0.001,7.173-4.12,14.362-8.574,20.141    c-3.728,5.777,0.721,18.79,0.721,18.79l-14.634-7.79c-3.827,1.192-9.75,1.75-11.375,2.209c-1.959,4.583-5.001,7.155-5.001,7.155    c5.152-0.36,9.128-1.237,13.731-2.69l25.925,11.143C105.072,88.024,96.293,70.293,104.343,59.979z M35.457,36.076    C16.445,35.702,0.795,47.391,0.504,62.185c-0.103,5.14,1.667,9.98,4.817,14.123H5.316c5.416,6.94-0.491,18.873-0.491,18.873    l17.446-7.498c3.76,1.187,7.846,1.876,12.127,1.961c19.012,0.374,34.662-11.314,34.954-26.108    C69.644,48.745,54.469,36.45,35.457,36.076z"/>
	</g>
</g>
</svg>