<svg xmlns="http://www.w3.org/2000/svg" xmlns:xlink="http://www.w3.org/1999/xlink" version="1.1" id="Layer_1" x="0px" y="0px" width="100px" height="100px" viewBox="-14.267 -14.268 100 100" enable-background="new -14.267 -14.268 100 100" xml:space="preserve">
<path fill="#000000" d="M27.604,52.159h13.619V38.54C38.238,44.392,33.455,49.174,27.604,52.159z"/>
<path fill="#000000" d="M23.727-1.272c-0.556-0.22-1.118-0.425-1.691-0.61c-0.556-0.18-1.119-0.344-1.691-0.489  c-2.179-0.552-4.459-0.847-6.81-0.847c-15.292,0-27.688,12.396-27.688,27.688c0,15.292,12.396,27.688,27.688,27.688  c2.351,0,4.631-0.296,6.81-0.847c0.572-0.145,1.135-0.31,1.691-0.489c0.573-0.185,1.135-0.39,1.691-0.609  c10.246-4.06,17.496-14.051,17.496-25.743S33.973,2.789,23.727-1.272z M23.727,27.263c-0.348,1.273-0.927,2.451-1.691,3.484  c-0.491,0.665-1.06,1.27-1.691,1.802c-1.839,1.552-4.215,2.49-6.81,2.49c-5.837,0-10.568-4.732-10.568-10.568  c0-5.836,4.731-10.568,10.568-10.568c2.595,0,4.971,0.937,6.81,2.489c0.631,0.533,1.2,1.138,1.691,1.802  c0.765,1.033,1.343,2.21,1.691,3.484c0.243,0.89,0.375,1.825,0.375,2.792C24.103,25.438,23.97,26.373,23.727,27.263z"/>
<path fill="#000000" d="M58.158-3.217H27.604c10.078,5.143,17,15.619,17,27.688v52.49h41.242v-52.49  C85.847,9.179,73.45-3.217,58.158-3.217z"/>
</svg>