<svg xmlns="http://www.w3.org/2000/svg" xmlns:xlink="http://www.w3.org/1999/xlink" version="1.1" id="Layer_1" x="0px" y="0px" width="34.25px" height="47.563px" viewBox="0 0 34.25 47.563" enable-background="new 0 0 34.25 47.563" xml:space="preserve">
<path d="M6.951,19.502 M6.951,19.502H2.56v23.114c0,1.236,0.815,2.236,1.816,2.236H29.5c1,0,1.815-1,1.815-2.236V19.502h-4.391   M12.582,39.612l2.051-7.094l0.6-2.068c-0.327-0.197-0.608-0.452-0.839-0.746c-0.413-0.527-0.659-1.185-0.659-1.9  c0-1.724,1.425-3.123,3.185-3.123c1.758,0,3.183,1.398,3.183,3.123c0,1.117-0.596,2.096-1.499,2.646l0.588,2.035l2.061,7.127H12.582  z M24.888,19.502H8.989"/>
<path d="M30.182,12.159l-3.754,1.469c-2.086-5.333-8.099-7.964-13.432-5.878c-5.332,2.086-7.965,8.099-5.878,13.432l-3.755,1.468  C0.466,15.244,4.121,6.892,11.527,3.995C18.933,1.098,27.285,4.753,30.182,12.159z"/>
</svg>