<svg xmlns="http://www.w3.org/2000/svg" xmlns:xlink="http://www.w3.org/1999/xlink" version="1.1" id="Layer_1" x="0px" y="0px" width="100px" height="100px" viewBox="-14.267 -14.268 100 100" enable-background="new -14.267 -14.268 100 100" xml:space="preserve">
<path fill="#000000" d="M-14.267,36.002c4.249,7.34,10.075,13.645,17,18.484V17.515C-4.192,22.355-10.019,28.661-14.267,36.002z"/>
<path fill="#000000" d="M13.91,34.178v-4.489c0-0.774,0.628-1.402,1.403-1.402c0.774,0,1.403,0.627,1.403,1.402v4.489h7.405v-4.489  c0-0.774,0.628-1.402,1.403-1.402s1.403,0.627,1.403,1.402v4.489h7.405v-4.489c0-0.774,0.628-1.402,1.403-1.402  c0.775,0,1.402,0.627,1.402,1.402v4.489h7.405v-4.489c0-0.774,0.628-1.402,1.403-1.402c0.774,0,1.402,0.627,1.402,1.402v4.489h7.405  v-4.489c0-0.774,0.628-1.402,1.402-1.402s1.402,0.627,1.402,1.402v4.489h5.566V14.066c-8.153-4.409-17.47-6.938-27.39-6.938  c-9.92,0-19.238,2.53-27.39,6.938v20.111H13.91z"/>
<path fill="#000000" d="M85.733,36c-4.249-7.34-10.075-13.645-17-18.485v36.969C75.658,49.645,81.484,43.34,85.733,36z"/>
<path fill="#000000" d="M57.557,36.982v4.488c0,0.774-0.628,1.402-1.402,1.402s-1.402-0.628-1.402-1.402v-4.488h-7.405v4.488  c0,0.774-0.628,1.402-1.402,1.402c-0.775,0-1.403-0.628-1.403-1.402v-4.488h-7.405v4.488c0,0.774-0.627,1.402-1.402,1.402  c-0.775,0-1.403-0.628-1.403-1.402v-4.488h-7.405v4.488c0,0.774-0.628,1.402-1.403,1.402s-1.403-0.628-1.403-1.402v-4.488h-7.405  v4.488c0,0.774-0.628,1.402-1.403,1.402c-0.775,0-1.403-0.628-1.403-1.402v-4.488H8.343v20.953c8.153,4.408,17.47,6.937,27.39,6.937  c9.92,0,19.236-2.53,27.39-6.938V36.982H57.557z"/>
</svg>