<svg xmlns="http://www.w3.org/2000/svg" xmlns:xlink="http://www.w3.org/1999/xlink" version="1.1" id="Layer_1" x="0px" y="0px" width="100px" height="100px" viewBox="-14.267 -14.268 100 100" enable-background="new -14.267 -14.268 100 100" xml:space="preserve">
<path fill="#000000" d="M78.697,56.319H-7.425c-3.833,0-6.939,3.108-6.939,6.939c0,3.832,3.106,6.938,6.939,6.938h86.123  c3.832,0,6.938-3.106,6.938-6.938C85.636,59.428,82.529,56.319,78.697,56.319z"/>
<path fill="#000000" d="M78.697,39.73H-7.425c-3.833,0-6.939,3.106-6.939,6.938s3.106,6.938,6.939,6.938h86.123  c3.832,0,6.938-3.106,6.938-6.938S82.529,39.73,78.697,39.73z"/>
<path fill="#000000" d="M85.636,29.983c0-14.146-22.386-25.614-50-25.614c-27.614,0-50,11.468-50,25.614h0.006  c-0.003,0.084-0.006,0.167-0.006,0.252c0,3.832,3.106,6.937,6.939,6.937h86.123c3.832,0,6.938-3.105,6.938-6.937  c0-0.085-0.003-0.168-0.006-0.252H85.636z M5.498,26.87c-1.519,0-2.749-1.231-2.749-2.749c0-1.519,1.23-2.75,2.749-2.75  c1.518,0,2.749,1.23,2.749,2.75C8.247,25.639,7.016,26.87,5.498,26.87z M11.766,20.054h-0.001c0,0-0.001,0-0.001,0  c-1.519,0-2.749-1.23-2.749-2.749c0-1.519,1.23-2.75,2.749-2.75c0,0,0.001,0,0.001,0h0.001c1.517,0,2.749,1.23,2.749,2.75  C14.515,18.824,13.283,20.054,11.766,20.054z M18.028,26.87c-1.518,0-2.75-1.231-2.75-2.749c0-1.519,1.231-2.75,2.75-2.75  c1.519,0,2.749,1.23,2.749,2.75C20.777,25.639,19.547,26.87,18.028,26.87z M24.296,20.054c0,0-0.001,0-0.001,0s-0.001,0-0.001,0  c-1.518,0-2.749-1.23-2.749-2.749c0-1.519,1.23-2.75,2.749-2.75c0,0,0.001,0,0.001,0s0.001,0,0.001,0c1.518,0,2.749,1.23,2.749,2.75  C27.045,18.824,25.814,20.054,24.296,20.054z M30.559,26.87c0,0-0.002,0-0.002,0c-0.001,0-0.002,0-0.003,0  c-1.518,0-2.75-1.231-2.75-2.749c0-1.519,1.232-2.75,2.75-2.75c0,0,0.002,0,0.003,0c0,0,0.001,0,0.002,0  c1.519,0,2.749,1.23,2.749,2.75C33.308,25.639,32.078,26.87,30.559,26.87z M36.827,20.054c-0.001,0-0.001,0-0.002,0c0,0,0,0-0.001,0  c-1.518,0-2.749-1.23-2.749-2.749c0-1.519,1.23-2.75,2.749-2.75c0.001,0,0.001,0,0.001,0c0.001,0,0.001,0,0.002,0  c1.519,0,2.749,1.23,2.749,2.75C39.576,18.824,38.346,20.054,36.827,20.054z M43.09,26.87c0,0-0.001,0-0.002,0s-0.002,0-0.002,0  c-1.52,0-2.75-1.231-2.75-2.749c0-1.519,1.23-2.75,2.75-2.75c0,0,0.001,0,0.002,0s0.002,0,0.002,0c1.519,0,2.749,1.23,2.749,2.75  C45.839,25.639,44.608,26.87,43.09,26.87z M49.357,20.054c-0.001,0-0.002,0-0.003,0c-0.002,0-0.003,0-0.004,0  c-1.519,0-2.749-1.23-2.749-2.749c0-1.519,1.23-2.75,2.749-2.75c0.001,0,0.002,0,0.004,0c0.001,0,0.002,0,0.003,0  c1.519,0,2.75,1.23,2.75,2.75C52.107,18.824,50.876,20.054,49.357,20.054z M55.615,26.87c-1.518,0-2.748-1.231-2.748-2.749  c0-1.519,1.23-2.75,2.748-2.75c1.52,0,2.75,1.23,2.75,2.75C58.365,25.639,57.135,26.87,55.615,26.87z M61.914,20.087  c-1.518,0-2.749-1.23-2.749-2.749c0-1.519,1.231-2.749,2.749-2.749c1.52,0,2.749,1.23,2.749,2.749  C64.663,18.857,63.434,20.087,61.914,20.087z M68.147,26.87c-1.519,0-2.749-1.231-2.749-2.749c0-1.519,1.23-2.75,2.749-2.75  c1.518,0,2.749,1.23,2.749,2.75C70.896,25.639,69.665,26.87,68.147,26.87z"/>
<path fill="#000000" d="M27.81,24.122c0-1.518,1.229-2.748,2.748-2.75c-0.001,0-0.002,0-0.003,0c-1.518,0-2.75,1.23-2.75,2.75  c0,1.518,1.232,2.749,2.75,2.749c0,0,0.002,0,0.003,0C29.039,26.869,27.81,25.639,27.81,24.122z"/>
<path fill="#000000" d="M40.341,24.122c0-1.518,1.229-2.748,2.747-2.75c-0.001,0-0.002,0-0.002,0c-1.52,0-2.75,1.23-2.75,2.75  c0,1.518,1.23,2.749,2.75,2.749c0,0,0.001,0,0.002,0C41.57,26.869,40.341,25.639,40.341,24.122z"/>
<path fill="#000000" d="M46.609,17.306c0-1.518,1.229-2.748,2.745-2.749c-0.002,0-0.003,0-0.004,0c-1.519,0-2.749,1.23-2.749,2.75  c0,1.518,1.23,2.749,2.749,2.749c0.001,0,0.002,0,0.004,0C47.838,20.052,46.609,18.822,46.609,17.306z"/>
<path fill="#000000" d="M30.559,21.372c0,0-0.002,0-0.002,0c1.517,0.001,2.747,1.232,2.747,2.75s-1.229,2.748-2.747,2.749  c0,0,0.001,0,0.002,0c1.519,0,2.749-1.231,2.749-2.749C33.308,22.603,32.078,21.372,30.559,21.372z"/>
<path fill="#000000" d="M43.09,21.372c0,0-0.001,0-0.002,0c1.518,0.001,2.746,1.232,2.746,2.75s-1.229,2.748-2.746,2.749  c0.001,0,0.002,0,0.002,0c1.519,0,2.749-1.231,2.749-2.749C45.839,22.603,44.608,21.372,43.09,21.372z"/>
<path fill="#000000" d="M9.016,17.306c0-1.519,1.231-2.749,2.749-2.75c0,0-0.001,0-0.001,0c-1.519,0-2.749,1.23-2.749,2.75  c0,1.518,1.23,2.749,2.749,2.749c0,0,0.001,0,0.001,0C10.247,20.053,9.016,18.823,9.016,17.306z"/>
<path fill="#000000" d="M21.547,17.306c0-1.519,1.229-2.749,2.748-2.75c0,0-0.001,0-0.001,0c-1.518,0-2.749,1.23-2.749,2.75  c0,1.518,1.23,2.749,2.749,2.749c0,0,0.001,0,0.001,0C22.776,20.053,21.547,18.823,21.547,17.306z"/>
<path fill="#000000" d="M34.078,17.306c0-1.519,1.229-2.749,2.748-2.75c0,0,0,0-0.001,0c-1.518,0-2.749,1.23-2.749,2.75  c0,1.518,1.23,2.749,2.749,2.749c0.001,0,0.001,0,0.001,0C35.307,20.053,34.078,18.823,34.078,17.306z"/>
<path fill="#000000" d="M11.766,14.556h-0.001c1.517,0.001,2.748,1.231,2.748,2.75c0,1.518-1.231,2.748-2.748,2.749h0.001  c1.517,0,2.749-1.23,2.749-2.749C14.515,15.787,13.283,14.556,11.766,14.556z"/>
<path fill="#000000" d="M24.296,14.556c0,0-0.001,0-0.001,0c1.518,0.001,2.747,1.231,2.747,2.75c0,1.518-1.229,2.748-2.747,2.749  c0,0,0.001,0,0.001,0c1.518,0,2.749-1.23,2.749-2.749C27.045,15.787,25.814,14.556,24.296,14.556z"/>
<path fill="#000000" d="M36.827,14.556c-0.001,0-0.001,0-0.002,0c1.519,0.001,2.749,1.231,2.749,2.75  c0,1.518-1.23,2.748-2.749,2.749c0.001,0,0.001,0,0.002,0c1.519,0,2.749-1.23,2.749-2.749  C39.576,15.787,38.346,14.556,36.827,14.556z"/>
<path fill="#000000" d="M49.357,14.556c-0.001,0-0.002,0-0.003,0c1.516,0.001,2.746,1.231,2.746,2.749  c0,1.516-1.23,2.746-2.746,2.749c0.001,0,0.002,0,0.003,0c1.519,0,2.75-1.23,2.75-2.749C52.107,15.787,50.876,14.556,49.357,14.556z  "/>
</svg>