<svg xmlns="http://www.w3.org/2000/svg" xmlns:xlink="http://www.w3.org/1999/xlink" version="1.1" id="Layer_1" x="0px" y="0px" width="100px" height="100px" viewBox="-14.267 -14.268 100 100" enable-background="new -14.267 -14.268 100 100" xml:space="preserve">
<path fill="none" d="M58.349,160.507c-0.911,0-1.65,0.734-1.65,1.646c0,0.91,0.739,1.646,1.65,1.646  c0.909,0,1.646-0.736,1.646-1.646C59.994,161.241,59.258,160.507,58.349,160.507z"/>
<path fill="#000000" d="M63.574,42.99l-0.003,0.008l-6.156-6.156h-0.002c2.066-2.021,3.241-4.941,3.084-8.327  c-0.008-0.207-0.024-0.412-0.043-0.623c-0.34-3.604-2.106-7.003-4.688-9.588l-8.478,8.478l-3.814,3.814L-8.297-14.268l44.863,51.773  L21.166,52.904l-8.458,8.457l-0.48,0.481l0.013,0.013c-5.102,5.602-4.945,14.282,0.467,19.697  c5.416,5.412,14.096,5.568,19.699,0.469l0.012,0.012l3.039-3.039l1.547-1.547c5.922-5.154,14.805-5.11,20.744,0.108l1.469,1.469  c-0.038-0.044-0.079-0.088-0.119-0.131l6.418,6.472l20.217-20.217L63.574,42.99z M42.902,53.158c-1.324,0-2.399-1.071-2.399-2.395  c0-1.326,1.075-2.395,2.399-2.395c1.322,0,2.446,1.124,2.446,2.449C45.349,52.142,44.225,53.158,42.902,53.158z"/>
</svg>