<svg xmlns="http://www.w3.org/2000/svg" xmlns:xlink="http://www.w3.org/1999/xlink" version="1.1" x="0px" y="0px" width="100px" height="100px" viewBox="0 0 100 100" enable-background="new 0 0 100 100" xml:space="preserve">
<g id="Captions">
	<rect x="-192" width="185" height="99"/>
	<rect y="-36" width="100" height="30"/>
	<text transform="matrix(1 0 0 1 66 -19.5)" fill="#000000" font-family="'Helvetica'" font-size="2.4">http://thenounproject.com</text>
	<text transform="matrix(1 0 0 1 7.166 -24.5)"><tspan x="0" y="0" fill="#000000" font-family="'Helvetica-Bold'" font-size="6.1578">The Noun Project</tspan><tspan x="1.12" y="4.8" fill="#000000" font-family="'Helvetica-Bold'" font-size="4">Icon Template</tspan></text>
	<text transform="matrix(1 0 0 1 -178.5 10.5)" fill="#000000" font-family="'Helvetica-Bold'" font-size="6.1578">Reminders</text>
	<line fill="#000000" stroke="#FFFFFF" stroke-miterlimit="10" x1="8" y1="-14.5" x2="18" y2="-14.5"/>
	<line fill="#000000" stroke="#FFFFFF" stroke-miterlimit="10" x1="-179" y1="16.5" x2="-162" y2="16.5"/>
	<g>
		<g>
			<g>
				<rect x="-170.802" y="31.318" fill="#000000" width="8.721" height="8.642"/>
				<path fill="#000000" d="M-164.455,42.312h4.747v-4.703h-4.747V42.312z M-159.266,42.749h-5.63V37.17h5.63V42.749      L-159.266,42.749z M-166.221,44.062h8.279v-8.203h-8.279V44.062L-166.221,44.062z M-157.5,44.5h-9.163v-9.079h9.163V44.5      L-157.5,44.5z"/>
				<polygon fill="#000000" points="-166.149,44.133 -166.292,43.991 -158.013,35.787 -157.871,35.929     "/>
			</g>
		</g>
	</g>
	<rect x="-179" y="58" fill="none" width="35" height="32.5"/>
	<text transform="matrix(1 0 0 1 -179 60.1572)"><tspan x="0" y="0" fill="#000000" font-family="'Helvetica-Bold'" font-size="3">Strokes</tspan><tspan x="0" y="5" fill="#000000" font-family="'Helvetica'" font-size="2.4">Try to keep strokes at 4px</tspan><tspan x="0" y="10" fill="#000000" font-family="'Helvetica'" font-size="2.4">Minimum stroke weight is 2px</tspan><tspan x="0" y="14.5" fill="#000000" font-family="'Helvetica'" font-size="2.4">For thicker strokes use even </tspan><tspan x="0" y="17.5" fill="#000000" font-family="'Helvetica'" font-size="2.4">numbers: 6px, 8px etc.</tspan><tspan x="0" y="22" fill="#000000" font-family="'Helvetica-Bold'" font-size="2.4">Remember to expand strokes </tspan><tspan x="0" y="25" fill="#000000" font-family="'Helvetica-Bold'" font-size="2.4">before saving as an SVG </tspan></text>
	<rect x="-136.5" y="58" fill="none" width="35" height="32.5"/>
	<text transform="matrix(1 0 0 1 -136.5 60.1572)"><tspan x="0" y="0" fill="#000000" font-family="'Helvetica-Bold'" font-size="3">Size</tspan><tspan x="0" y="5" fill="#000000" font-family="'Helvetica'" font-size="2.4">Cannot be wider or taller than </tspan><tspan x="0" y="8.5" fill="#000000" font-family="'Helvetica'" font-size="2.4">100px (artboard size)</tspan><tspan x="0" y="13.5" fill="#000000" font-family="'Helvetica'" font-size="2.4">Scale your icon to fill as much of </tspan><tspan x="0" y="16.5" fill="#000000" font-family="'Helvetica'" font-size="2.4">the artboard as possible</tspan></text>
	<rect x="-94" y="58" fill="none" width="35" height="32.5"/>
	<text transform="matrix(1 0 0 1 -94 60.1572)"><tspan x="0" y="0" fill="#000000" font-family="'Helvetica-Bold'" font-size="3">Ungroup</tspan><tspan x="0" y="5" fill="#000000" font-family="'Helvetica'" font-size="2.4">If your design has more than one </tspan><tspan x="0" y="8" fill="#000000" font-family="'Helvetica'" font-size="2.4">shape, make sure to ungroup</tspan></text>
	<rect x="-50" y="58" fill="none" width="35" height="32.5"/>
	<text transform="matrix(1 0 0 1 -50 60.1572)"><tspan x="0" y="0" fill="#000000" font-family="'Helvetica-Bold'" font-size="3">Save as</tspan><tspan x="0" y="5" fill="#000000" font-family="'Helvetica'" font-size="2.4">Save as .SVG and make sure </tspan><tspan x="0" y="8" fill="#000000" font-family="'Helvetica'" font-size="2.4">&#8220;Use Artboards&#8221; is checked</tspan></text>
	<text transform="matrix(1.0074 0 0 1 -125.542 30.5933)" fill="#000000" font-family="'Helvetica'" font-size="2.5731">100px</text>
	<text transform="matrix(1.0074 0 0 1 -41 39)" fill="#000000" font-family="'Helvetica-Bold'" font-size="5.1462">.SVG</text>
	<rect x="-126.514" y="34.815" fill="#000000" width="10.261" height="10.185"/>
	<rect x="-126.477" y="31.766" fill="#000000" width="0.522" height="2.337"/>
	<rect x="-116.812" y="31.766" fill="#000000" width="0.523" height="2.337"/>
	<rect x="-127" y="32.337" fill="#000000" width="11.233" height="0.572"/>
	<g>
		<rect x="-83.805" y="33.844" fill="#000000" width="10.305" height="10.156"/>
		<rect x="-76.809" y="28.707" fill="#000000" width="3.308" height="3.261"/>
	</g>
	<rect x="-178.5" y="22.5" fill="#000000" stroke="#FFFFFF" stroke-miterlimit="10" width="30" height="30"/>
	<rect x="-136.5" y="22.5" fill="#000000" stroke="#FFFFFF" stroke-miterlimit="10" width="30" height="30"/>
	<rect x="-93.5" y="22.5" fill="#000000" stroke="#FFFFFF" stroke-miterlimit="10" width="30" height="30"/>
	<rect x="-49.5" y="22.5" fill="#000000" stroke="#FFFFFF" stroke-miterlimit="10" width="30" height="30"/>
</g>
<g id="Your_Icon">
	<path d="M77.5,39.852c0.634,0.632,1.491,0.987,2.385,0.987s1.751-0.355,2.384-0.987l3.896-3.897c1.316-1.316,1.316-3.45,0-4.767   l-5.069-5.07c-0.658-0.658-1.521-0.987-2.385-0.987c-0.862,0-1.725,0.329-2.383,0.987l-3.896,3.896   c-0.633,0.632-0.987,1.489-0.987,2.384c0,0.894,0.354,1.751,0.987,2.383l-2.443,2.443c-4.776-3.806-10.554-6.399-16.872-7.309   v-1.056c7.504-1.785,13.005-7.444,13.005-14.135C66.12,6.604,58.024,0,48.074,0c-9.95,0-18.045,6.604-18.045,14.725   c0,6.691,5.5,12.35,13.004,14.135v1.056C25.99,32.369,12.849,47.063,12.849,64.774C12.849,84.196,28.651,100,48.074,100   C67.498,100,83.3,84.196,83.3,64.774c0-8.568-3.078-16.428-8.183-22.541L77.5,39.852L77.5,39.852z M33.399,14.725   c0-6.261,6.583-11.354,14.675-11.354c8.092,0,14.675,5.093,14.675,11.354c0,4.891-4.017,9.069-9.634,10.663v-2.866   c1.861,0,3.371-1.509,3.371-3.371v-7.748c0-1.861-1.51-3.371-3.371-3.371H43.034c-1.862,0-3.371,1.509-3.371,3.371v7.748   c0,1.862,1.509,3.371,3.37,3.371v2.866C37.417,23.793,33.399,19.615,33.399,14.725z M48.074,90.562   c-14.219,0-25.788-11.569-25.788-25.788c0-14.22,11.569-25.788,25.788-25.788c14.22,0,25.788,11.568,25.788,25.788   C73.861,78.993,62.294,90.562,48.074,90.562z"/>
	<path d="M48.074,81.34c-0.558,0-1.011,0.452-1.011,1.011v6.066c0,0.559,0.453,1.013,1.011,1.013c0.559,0,1.011-0.454,1.011-1.013   v-6.066C49.085,81.792,48.633,81.34,48.074,81.34z"/>
	<path d="M64.478,64.938c0,0.558,0.452,1.011,1.011,1.011h6.067c0.559,0,1.01-0.453,1.01-1.011c0-0.56-0.451-1.011-1.01-1.011   h-6.067C64.93,63.927,64.478,64.378,64.478,64.938z"/>
	<path d="M31.671,64.938c0-0.56-0.452-1.011-1.011-1.011h-6.066c-0.559,0-1.011,0.451-1.011,1.011c0,0.558,0.452,1.011,1.011,1.011   h6.066C31.219,65.948,31.671,65.495,31.671,64.938z"/>
	<path d="M57.656,79.513c-0.277-0.483-0.896-0.65-1.38-0.37c-0.484,0.279-0.649,0.897-0.371,1.381l3.034,5.255   c0.187,0.323,0.526,0.506,0.877,0.506c0.171,0,0.344-0.044,0.504-0.136c0.483-0.279,0.65-0.897,0.371-1.381L57.656,79.513z"/>
	<path d="M62.279,56.736c0.188,0.323,0.528,0.506,0.877,0.506c0.172,0,0.346-0.045,0.504-0.136l5.255-3.035   c0.483-0.279,0.649-0.897,0.37-1.381s-0.897-0.649-1.381-0.37l-5.254,3.033C62.167,55.633,62,56.252,62.279,56.736z"/>
	<path d="M32.488,72.769l-5.254,3.033c-0.483,0.279-0.649,0.897-0.37,1.382c0.188,0.323,0.527,0.505,0.877,0.505   c0.171,0,0.345-0.043,0.504-0.136l5.253-3.033c0.484-0.279,0.649-0.897,0.37-1.381C33.59,72.655,32.972,72.489,32.488,72.769z"/>
	<path d="M33.499,55.355l-5.254-3.033c-0.484-0.281-1.103-0.113-1.381,0.369c-0.279,0.484-0.113,1.103,0.37,1.381l5.254,3.034   c0.159,0.092,0.333,0.136,0.504,0.136c0.35,0,0.689-0.181,0.876-0.506C34.148,56.252,33.982,55.634,33.499,55.355z"/>
	<path d="M68.915,75.802l-5.254-3.033c-0.483-0.279-1.104-0.113-1.381,0.37c-0.279,0.483-0.113,1.102,0.37,1.381l5.254,3.033   c0.159,0.093,0.333,0.136,0.504,0.136c0.35,0,0.69-0.182,0.877-0.505C69.564,76.699,69.398,76.081,68.915,75.802z"/>
	<path d="M39.873,79.143c-0.483-0.28-1.102-0.113-1.381,0.37l-3.034,5.253c-0.279,0.485-0.114,1.104,0.37,1.383   c0.159,0.092,0.333,0.136,0.504,0.136c0.35,0,0.689-0.183,0.877-0.506l3.033-5.255C40.522,80.04,40.356,79.422,39.873,79.143z"/>
	<path d="M65.488,47.523l-0.36,0.309c-1.301-1.253-2.753-2.359-4.305-3.293c-0.02-0.327-0.198-0.637-0.503-0.812   c-0.312-0.181-0.681-0.172-0.978-0.015c-0.682-0.347-1.378-0.662-2.086-0.939c-2.627-1.034-5.429-1.586-8.231-1.647   c-0.138-0.395-0.51-0.68-0.952-0.68c-0.454,0-0.834,0.302-0.961,0.715c-2.79,0.163-5.544,0.813-8.09,1.923   c-0.641,0.278-1.266,0.589-1.878,0.923c-0.3-0.411-0.865-0.541-1.317-0.28c-0.463,0.268-0.63,0.845-0.398,1.318   c-1.436,0.952-2.768,2.054-3.959,3.289c1.231-1.188,2.594-2.232,4.047-3.122l1.566,2.712c-1.184,0.803-2.284,1.725-3.269,2.754   c1.026-0.984,2.157-1.853,3.36-2.596l1.317,2.281c0.141,0.244,0.368,0.406,0.62,0.472c-1.014,0.683-1.958,1.464-2.795,2.345   c0.94-0.893,1.983-1.67,3.097-2.317c0.156-0.008,0.314-0.046,0.458-0.131c0.132-0.076,0.238-0.179,0.32-0.296   c0.516-0.264,1.043-0.501,1.582-0.708c2.013-0.773,4.167-1.138,6.3-1.081c2.133,0.056,4.244,0.533,6.171,1.393   c1.726,0.768,3.279,1.847,4.628,3.157l-1.463,1.255c-1.199-1.002-2.56-1.822-4.013-2.369c-1.704-0.646-3.524-0.945-5.324-0.889   s-3.576,0.468-5.196,1.199c-1.622,0.732-3.083,1.783-4.284,3.064c1.28-1.201,2.789-2.144,4.412-2.752   c1.623-0.611,3.356-0.895,5.067-0.837c1.711,0.056,3.4,0.45,4.937,1.147c1.262,0.572,2.403,1.349,3.411,2.283l-1.671,1.432   c-0.815-0.607-1.729-1.112-2.675-1.455c-1.287-0.473-2.656-0.683-4.002-0.627c-2.699,0.101-5.282,1.319-7.037,3.253   c1.918-1.776,4.517-2.702,7.037-2.579c1.259,0.057,2.495,0.363,3.615,0.888c0.766,0.36,1.457,0.815,2.09,1.354l-4.116,3.533   c-0.491-0.204-1.026-0.317-1.59-0.317c-2.292,0-4.157,1.865-4.157,4.157s1.865,4.157,4.157,4.157c2.292,0,4.158-1.865,4.158-4.157   c0-0.563-0.114-1.1-0.317-1.589L65.488,47.523z M62.596,50.004c-1.006-0.94-2.108-1.782-3.285-2.507l1.076-1.864   c1.342,0.893,2.588,1.923,3.716,3.079L62.596,50.004z M58.657,44.586l-1.117,1.935c-0.51-0.249-1.026-0.481-1.554-0.686   c-2.205-0.861-4.552-1.331-6.901-1.397v-2.6c2.686,0.167,5.334,0.8,7.784,1.87C57.479,43.972,58.074,44.269,58.657,44.586z    M37.285,44.228c0.61-0.304,1.231-0.585,1.866-0.833c2.525-0.992,5.217-1.528,7.912-1.595v2.681   c-2.338,0.165-4.641,0.729-6.772,1.666c-0.504,0.221-0.996,0.467-1.479,0.728L37.285,44.228z M41.646,49.417   c-0.443,0.195-0.872,0.418-1.294,0.652c0.051-0.237,0.022-0.492-0.109-0.719l-1.296-2.244c0.483-0.235,0.973-0.455,1.473-0.649   c2.125-0.827,4.382-1.279,6.644-1.345v2.411c0,0.181,0.051,0.348,0.135,0.495C45.277,48.167,43.391,48.641,41.646,49.417z    M48.974,47.975c0.069-0.137,0.111-0.289,0.111-0.452v-2.368c2.251,0.164,4.466,0.711,6.516,1.613   c0.478,0.209,0.94,0.442,1.398,0.689l-1.094,1.892c-0.047,0.084-0.079,0.173-0.101,0.262c-0.385-0.183-0.775-0.355-1.173-0.507   C52.82,48.407,50.898,48.028,48.974,47.975z M57.516,50.544c0.053-0.055,0.103-0.114,0.141-0.182l1.071-1.854   c1.021,0.696,1.977,1.489,2.851,2.369l-1.687,1.447C59.153,51.666,58.358,51.068,57.516,50.544z M48.074,67.072   c-1.176,0-2.135-0.959-2.135-2.135c0-1.178,0.958-2.135,2.135-2.135c1.177,0,2.135,0.957,2.135,2.135   C50.209,66.113,49.251,67.072,48.074,67.072z"/>
</g>
</svg>