<svg xmlns="http://www.w3.org/2000/svg" xmlns:xlink="http://www.w3.org/1999/xlink" version="1.1" id="Layer_1" x="0px" y="0px" width="100px" height="100px" viewBox="0 0 100 100" enable-background="new 0 0 100 100" xml:space="preserve">
<path d="M66.066,92.6c-4.947,1.151-9.488,1.68-13.621,1.578c-12.106-0.293-22.074-4.194-29.928-11.726  c-8.274-7.972-12.277-18.274-12-30.931c0.299-13.589,5.609-24.971,15.905-34.128c9.512-8.472,20.114-12.569,31.826-12.29  c9.361,0.222,15.939,2.691,23.627,8.781c18.746,14.848,13.688,49.073-12.064,56.867c-10.902,3.293-23.983,3.041-31.282-9.331  c-2.613-4.412-3.345-8.457-3.074-12.147l40.493,0.854c1-6.499-0.445-14.622-3.201-18.898c-2.207-3.435-5.77-6.871-10.324-8.642  c-13.632-5.321-28.383,2.961-33.346,20.04c-1.92,6.604-2.369,15.304,0.977,22.673c7.196,15.891,27.342,17.062,42.346,11.701  c17.68-6.322,30.879-30.047,23.029-51.121c-1.871-5.047-5.945-10.442-9.895-13.981C77.195,4.533,68.459,1.718,57.678,1.467  c-15.189-0.374-28.253,4.332-39.18,14.08C7.48,25.333,1.82,37.356,1.512,51.587C1.227,64.15,5.912,74.928,15.565,83.934  c9.558,8.884,21.198,13.49,34.905,13.82c6.793,0.16,13.098-0.419,18.918-1.746c5.822-1.312,12.049-4.068,18.666-8.29l-2.393-3.937  C80.172,87.921,73.643,90.863,66.066,92.6z M60.033,27.298c3.367,1.377,4.199,3.365,5.533,5.973  c0.951,1.873,1.896,8.061,1.512,11.967L36.59,44.612C38.543,35.866,48.564,22.582,60.033,27.298z"/>
</svg>