<?xml version="1.0" encoding="utf-8"?>
<!-- Generator: Adobe Illustrator 14.0.0, SVG Export Plug-In . SVG Version: 6.00 Build 43363)  -->
<!DOCTYPE svg PUBLIC "-//W3C//DTD SVG 1.0//EN" "http://www.w3.org/TR/2001/REC-SVG-20010904/DTD/svg10.dtd">
<svg version="1.0" id="Layer_1" xmlns="http://www.w3.org/2000/svg" xmlns:xlink="http://www.w3.org/1999/xlink" x="0px" y="0px"
	 width="71.4px" height="100px" viewBox="0 0 71.4 100" enable-background="new 0 0 71.4 100" xml:space="preserve">
<g>
	<path d="M35.565,27.483c7.596,0,13.75-6.154,13.75-13.74C49.315,6.15,43.161,0,35.565,0c-7.589,0-13.746,6.15-13.746,13.743
		C21.819,21.33,27.976,27.483,35.565,27.483z"/>
</g>
<path d="M53.703,31.67c9.731,0,17.697,7.885,17.697,17.607c0,4.95,0,39.302,0,42.624c0,3.326-2.616,6.022-5.942,6.022
	c-3.322,0-6.016-2.696-6.016-6.022c0-3.873,0-38.428,0-38.428h-5.033V100H16.934V53.474H11.95c0,0,0,34.555,0,38.428
	c0,3.326-2.687,6.022-6.012,6.022C2.62,97.924,0,95.228,0,91.901c0-3.322,0-37.674,0-42.624C0,39.556,8.675,31.67,18.403,31.67
	C23.107,31.67,48.877,31.67,53.703,31.67z M30.609,81.471c-0.464-0.487-0.713-1.046-0.669-2.074c0.04-0.922,0.373-1.362,0.844-1.786
	c0.915-0.827,1.23-2.394,1.23-3.679c0-2.531-2.172-4.572-4.875-4.572c-2.276,0-4.354,2.047-5.043,3.365
	c-0.528,1.056-1.231,3.178-1.312,5.663c-0.077,2.344,0.346,4.239,0.901,6.16c0.757,2.088,2.798,4.466,5.454,4.466
	c2.704,0,4.875-2.048,4.875-4.574c0-0.43-0.03-0.8-0.195-1.23C31.671,82.775,31.039,81.928,30.609,81.471z M39.577,83.209
	c-0.158,0.431-0.205,0.801-0.205,1.23c0,2.526,2.192,4.574,4.893,4.574c2.643,0,4.697-2.378,5.461-4.466
	c0.555-1.921,0.972-3.816,0.888-6.16c-0.074-2.485-0.791-4.607-1.309-5.663c-0.686-1.318-2.771-3.365-5.04-3.365
	c-2.7,0-4.893,2.041-4.893,4.572c0,1.285,0.34,2.852,1.251,3.679c0.467,0.424,0.8,0.864,0.844,1.786
	c0.033,1.028-0.219,1.587-0.669,2.074C40.357,81.928,39.735,82.775,39.577,83.209z"/>
</svg>
