<svg xmlns="http://www.w3.org/2000/svg" xmlns:xlink="http://www.w3.org/1999/xlink" version="1.1" id="Livello_1" x="0px" y="0px" width="100px" height="100px" viewBox="0 0 100 100" enable-background="new 0 0 100 100" xml:space="preserve">
<path d="M99.316,65.122c-5.84,0-9.57-9.863-13.516-20.308c-4.36-11.533-8.867-23.462-17.007-23.462  c-7.603,0-12.075,12.93-16.812,26.616c-0.301,0.869-0.601,1.733-0.903,2.603c-4.609,5.63-9.624,10.967-17.859,10.967  c-8.853,0-12.993-7.07-16.997-13.906c-2.988-5.112-8.598-13.55-15.537-13.55C0.305,34.082,0,34.443,0,34.883  s0.305,0.791,0.686,0.791c7.207,0,10.811,9.775,14.626,20.122c4.138,11.235,8.423,22.852,17.908,22.852  c9.434,0,14.707-14.707,19.737-29.229c4.563-5.649,8.894-10.957,15.837-10.957c7.515,0,11.88,7.319,16.099,14.395  c3.086,5.171,8.857,13.857,14.424,13.857c0.376,0,0.684-0.356,0.684-0.796S99.692,65.122,99.316,65.122z M84.863,47.197  c0.298,0.713,0.591,1.421,0.889,2.124c-0.093-0.2-0.186-0.396-0.278-0.596c-4.316-9.351-8.784-19.019-16.68-19.019  c-5.396,0-9.224,4.956-12.739,11.431c3.584-8.179,7.393-14.614,12.739-14.614C76.27,26.523,80.64,37.036,84.863,47.197z   M16.25,53.403c-0.271-0.669-0.542-1.328-0.811-1.987c0.066,0.146,0.132,0.293,0.198,0.435c4.102,9.067,8.342,18.442,17.583,18.442  c6.453,0,10.957-5.161,14.797-11.807c-3.87,8.345-8.352,14.99-14.797,14.99C24.404,73.477,20.256,63.271,16.25,53.403z   M14.758,48.228c0.295,0.576,0.591,1.152,0.886,1.738c4.104,8.037,8.347,16.348,17.576,16.348c6.721,0,11.331-4.502,15.281-10.156  c-3.975,7.344-8.56,13.34-15.281,13.34c-8.826,0-12.971-9.155-16.975-18.013C15.747,50.386,15.254,49.297,14.758,48.228z   M68.794,30.508c7.485,0,11.851,9.453,16.079,18.594c0.513,1.113,1.021,2.217,1.533,3.301c-0.313-0.596-0.625-1.201-0.938-1.802  c-4.321-8.315-8.789-16.914-16.675-16.914c-5.654,0-9.585,4.385-13.257,9.956C59.268,36.377,63.184,30.508,68.794,30.508z   M68.794,22.944c5.718,0,9.614,7.124,13.057,15.562c-3.374-7.095-7.305-12.773-13.057-12.773c-4.185,0-7.422,3.555-10.308,8.765  C61.431,27.729,64.658,22.944,68.794,22.944z M33.22,62.334c6.99,0,11.697-3.672,15.759-8.169  c-4.082,6.182-8.757,11.353-15.759,11.353c-8.838,0-12.981-8.115-16.985-15.957c-0.74-1.455-1.487-2.915-2.268-4.326  c0.569,0.928,1.128,1.88,1.692,2.842C19.763,55.088,24.006,62.334,33.22,62.334z M33.22,77.061c-6.79,0-10.774-6.973-14.106-15.21  c3.301,6.895,7.375,12.422,14.106,12.422c5.142,0,9.043-3.921,12.356-9.531C42.236,71.904,38.35,77.061,33.22,77.061z   M68.794,37.666c-5.884,0-9.917,3.594-13.726,8.042c3.862-6.138,7.861-11.226,13.726-11.226c7.5,0,11.86,8.403,16.084,16.528  c0.63,1.206,1.255,2.407,1.885,3.569c-0.435-0.718-0.874-1.445-1.309-2.178C81.133,45.156,76.665,37.666,68.794,37.666z"/>
</svg>