<svg xmlns="http://www.w3.org/2000/svg" xmlns:xlink="http://www.w3.org/1999/xlink" version="1.1" id="Layer_1" x="0px" y="0px" width="100px" height="100px" viewBox="-14.267 -14.268 100 100" enable-background="new -14.267 -14.268 100 100" xml:space="preserve">
<path fill="#000000" d="M85.48-2.734c-10.806-5.25-24.195-3.398-33.169,5.576L33.759,21.395l-6.86-6.859  c2.264-7.242,0.534-15.462-5.204-21.201c-8.228-8.226-21.565-8.226-29.792,0c-8.226,8.227-8.226,21.566,0,29.792  c5.736,5.737,13.958,7.469,21.2,5.205l6.859,6.861l-6.859,6.859c-7.242-2.263-15.463-0.532-21.2,5.205  c-8.226,8.228-8.226,21.564,0,29.791c8.228,8.229,21.565,8.227,29.792,0c5.737-5.735,7.467-13.957,5.204-21.199l33.204-33.202  L85.48-2.734z M15.169,16.602c-4.625,4.622-12.117,4.623-16.739,0.001c-4.624-4.623-4.622-12.119,0-16.741  c4.622-4.621,12.117-4.623,16.74,0C19.792,4.483,19.79,11.979,15.169,16.602z M15.17,70.522c-4.623,4.622-12.118,4.622-16.74,0  c-4.622-4.623-4.624-12.116,0-16.741c4.622-4.622,12.114-4.619,16.739,0.002C19.79,58.406,19.792,65.899,15.17,70.522z   M32.764,38.669c-1.92,0-3.476-1.559-3.476-3.477c0-1.922,1.556-3.479,3.476-3.479c1.92,0,3.478,1.557,3.478,3.479  C36.241,37.11,34.684,38.669,32.764,38.669z"/>
<path fill="#000000" d="M60.104,46.924l-6.177-6.177L40.131,54.545l12.182,12.182c8.973,8.975,22.364,10.828,33.168,5.576  L60.104,46.924z"/>
</svg>