<svg xmlns="http://www.w3.org/2000/svg" xmlns:xlink="http://www.w3.org/1999/xlink" version="1.1" x="0px" y="0px" width="100px" height="100px" viewBox="0 0 100 100" enable-background="new 0 0 100 100" xml:space="preserve">
<g id="Captions">
</g>
<g id="Your_Icon">
	<path d="M89.691,49.851c0.056-0.609-0.127-1.217-0.523-1.688L55.216,7.299c-0.813-0.983-2.271-1.114-3.256-0.302l-6.685,5.56   c-13.468-2.367-24.385,1.029-26.057,8.193c-0.782,3.392,0.74,6.969,3.922,10.195L1.917,48.582   c-0.985,0.817-1.114,2.271-0.301,3.254L35.568,92.7c0.396,0.478,0.963,0.765,1.575,0.823c0.064,0.006,0.139,0.012,0.203,0.012   c0.547,0,1.061-0.188,1.479-0.531l50.045-41.585C89.337,51.022,89.64,50.46,89.691,49.851z M23.718,21.793   c0.804-3.431,7.467-5.982,16.713-5.22l-13.723,11.41C24.436,25.793,23.311,23.581,23.718,21.793z M83.342,50.004L7.38,50.049   l19.381-16.103c3.889,2.722,9.021,4.992,14.944,6.363c3.718,0.869,7.406,1.289,10.832,1.289c3.439,0,6.567-0.466,9.269-1.302   c0.419,0.316,0.87,0.597,1.402,0.757c2.42,0.738,4.982-0.631,5.724-3.052c0.737-2.423-0.621-4.987-3.056-5.725   c-2.421-0.736-4.982,0.63-5.72,3.054c-0.077,0.229-0.033,0.46-0.064,0.693c-4.554,1.306-10.907,1.281-17.346-0.211   c-4.972-1.155-9.116-2.944-12.29-4.936l22.682-18.848l31.004,37.311L83.342,50.004z M90.263,50.445c0,0-8.66,19.28-8.66,24.057   c0,4.779,3.879,8.657,8.66,8.657c4.785,0,8.655-3.878,8.655-8.657C98.918,69.725,90.263,50.445,90.263,50.445z"/>
</g>
</svg>