<svg xmlns="http://www.w3.org/2000/svg" xmlns:xlink="http://www.w3.org/1999/xlink" version="1.0" id="Layer_1" x="0px" y="0px" width="100px" height="73.763px" viewBox="0 0 100 73.763" enable-background="new 0 0 100 73.763" xml:space="preserve">
<rect x="88.043" y="29.605" width="11.957" height="30.98"/>
<path d="M51.258,39.671H14.785c-3.016,0-5.471,2.454-5.471,5.471v15.416c0,3.016,2.455,5.471,5.471,5.471h36.473  c3.016,0,5.471-2.455,5.471-5.471V45.142C56.729,42.125,54.273,39.671,51.258,39.671z"/>
<path d="M76.983,34.146v-9.003c0-4.813-3.9-8.713-8.712-8.713h-2.221V5.673C66.049,2.54,63.509,0,60.376,0h-41.29  c-3.134,0-5.674,2.54-5.674,5.673c0,3.134,2.54,5.674,5.674,5.674h35.618v5.083H8.713C3.9,16.43,0,20.331,0,25.143V65.05  c0,4.812,3.9,8.713,8.713,8.713h59.558c4.812,0,8.712-3.901,8.712-8.713v-9.004h7.25V34.146H76.983z M59.971,60.557  c0,4.812-3.901,8.713-8.713,8.713H14.785c-4.813,0-8.713-3.901-8.713-8.713V45.142c0-4.812,3.9-8.712,8.713-8.712h36.473  c4.812,0,8.713,3.9,8.713,8.712V60.557z M66.049,32.525c-2.848,0-5.159-2.31-5.159-5.158s2.311-5.158,5.159-5.158  s5.159,2.31,5.159,5.158S68.897,32.525,66.049,32.525z"/>
</svg>