<svg xmlns="http://www.w3.org/2000/svg" xmlns:xlink="http://www.w3.org/1999/xlink" version="1.1" id="Layer_1" x="0px" y="0px" width="100px" height="100px" viewBox="0 0 100 100" enable-background="new 0 0 100 100" xml:space="preserve">
<path d="M79.125,62.773c-0.687,3.135-8.826,11.306-17.063,12.075c-13.124,1.225-29.399-10.5-31.587-15.619  c-0.806-1.887,0.365-6.672,1.436-10.173l32.383,6.147l10.914-7.329C77.84,53.017,79.598,60.618,79.125,62.773z"/>
<path d="M43.776,25.062L2.738,42.255l16.224,3.081c-2.465,5.596-3.662,15.133-2.115,22.512c0.759,3.617,7.809,2.969,7.642,2.334  c-2.392-9.1-2.333-17.208,0.427-23.716l39.116,7.426l32.901-22.093L43.776,25.062z M48.754,36.231  c-0.028-0.777,1.419-1.722,3.232-1.786c1.814-0.065,3.308,0.774,3.335,1.551S48.782,37.008,48.754,36.231z"/>
</svg>