<svg xmlns:dc="http://purl.org/dc/elements/1.1/" xmlns:cc="http://creativecommons.org/ns#" xmlns:rdf="http://www.w3.org/1999/02/22-rdf-syntax-ns#" xmlns:svg="http://www.w3.org/2000/svg" xmlns="http://www.w3.org/2000/svg" xmlns:sodipodi="http://sodipodi.sourceforge.net/DTD/sodipodi-0.dtd" xmlns:inkscape="http://www.inkscape.org/namespaces/inkscape" width="100" height="100" viewBox="0 0 80 80" version="1.1" id="svg2" inkscape:version="0.48.2 r9819" sodipodi:docname="fly swatter.svg">
  <metadata id="metadata12">
    <rdf:RDF>
      <cc:Work rdf:about="">
        <dc:format>image/svg+xml</dc:format>
        <dc:type rdf:resource="http://purl.org/dc/dcmitype/StillImage"/>
      </cc:Work>
    </rdf:RDF>
  </metadata>
  <defs id="defs10"/>
  <sodipodi:namedview pagecolor="#ffffff" bordercolor="#666666" borderopacity="1" objecttolerance="10" gridtolerance="10" guidetolerance="10" inkscape:pageopacity="0" inkscape:pageshadow="2" inkscape:window-width="1018" inkscape:window-height="480" id="namedview8" showgrid="false" inkscape:zoom="1.5063668" inkscape:cx="74.797855" inkscape:cy="62.041822" inkscape:window-x="157" inkscape:window-y="194" inkscape:window-maximized="0" inkscape:current-layer="svg2"/>
  <path style="fill:#020202;stroke:#020202;stroke-width:0.01261883" d="m 59.773571,2.3551229 c -0.0797,0.003 -0.159,0.009 -0.23891,0.0202 -2.23438,0.39034 -4.37453,1.14411 -6.56853,1.66905 -5.88206,1.66905 -11.87179,2.9343 -17.686553,4.81871 -1.049887,0.34997 -1.682511,1.5882901 -1.467149,2.6516401 1.58829,6.0705 3.243881,12.11408 4.805252,18.18458 0.24228,0.84798 0.57878,1.84403 1.45369,2.22091 0.76722,0.40381 1.69597,0.25574 2.53049,0.12114 3.43233,-0.82106 6.81081,-1.83057 10.24313,-2.66509 2.08632,7.80685 4.10533,15.62716 6.19164,23.42055 0.25574,1.17103 -0.82106,2.20745 -0.43072,3.39194 1.83057,6.89157 3.6746,13.79659 5.58594,20.6747 0.34996,1.61521 2.62471,1.93825 3.6746,0.8076 0.55186,-0.7403 0.4711,-1.74981 0.2692,-2.5978 -1.76327,-6.51468 -3.54,-13.00244 -5.26289,-19.51712 -0.21536,-0.59225 -0.2692,-1.34601 -0.86145,-1.69597 -0.43072,-0.41727 -1.18449,-0.61917 -1.21141,-1.34601 -1.06334,-3.82267 -2.14015,-7.63187 -3.23042,-11.45454 -0.99604,-4.03802 -2.20745,-8.02221 -3.14966,-12.0737 3.58039,-1.03642 7.21461,-1.85749 10.79499,-2.88045 1.29217,-0.41727 2.28822,-1.83058 1.89787,-3.19005 -1.57483,-6.17818 -3.09582,-12.38328 -4.73795,-18.5480001 -0.26499,-1.17355 -1.40602,-2.05132 -2.60116,-2.01228 z M 23.421241,22.901943 c 0.107681,1.46715 0.148061,2.98814 -0.363423,4.40145 -0.484563,1.44023 -1.022966,2.96122 -2.207454,3.98419 -0.565324,0.51148 -1.022967,1.11719 -1.669051,1.53445 0.242282,-0.6057 0.538404,-1.19795 0.821066,-1.79019 -1.157568,-1.09027 -2.032474,-2.4632 -3.324642,-3.43233 -0.05384,0.13461 -0.107681,0.28267 -0.174981,0.41727 1.009506,0.78068 1.924792,1.68251 2.638177,2.74586 0.349962,0.48456 -0.09422,1.09026 -0.201901,1.57483 -0.0673,0.64608 -0.699925,0.90182 -1.022967,1.38638 -0.444183,0.65955 -0.699925,1.41331 -1.184488,2.04594 -1.211408,0.29612 -2.517036,0.22882 -3.714984,-0.1346 -0.09422,0.16152 -0.201901,0.32304 -0.296122,0.49802 1.197948,0.18844 2.422816,0.21536 3.634224,0.1346 -0.955666,1.25179 -2.126694,2.4632 -2.490116,4.03803 -0.121141,0.79414 -0.01346,2.11323 0.969126,2.30167 1.52099,-0.0269 2.678557,-1.15756 3.970726,-1.80365 0.565323,-0.2692 1.157567,0.32304 1.117187,0.90183 -0.01346,1.22486 0.05384,2.47665 0.538404,3.63422 0.605703,1.09027 1.924792,0.36342 2.638177,-0.22882 1.117187,-1.15757 1.372929,-2.88046 1.857492,-4.36107 0.565324,1.04989 1.278708,1.99209 2.193994,2.77278 l 0.323042,-0.44418 c -1.157567,-0.57879 -1.857492,-1.7902 -2.261294,-2.98814 0.01346,-0.69993 0.578783,-1.21141 0.888365,-1.7902 0.242282,-0.41726 0.107681,-0.90182 0.09422,-1.35946 0.524943,-0.49803 0.955666,-1.07681 1.386389,-1.65559 1.399849,-0.0404 2.799698,0.18844 4.132247,0.6057 0.04038,-0.14806 0.09422,-0.29612 0.148061,-0.44418 -1.54791,-0.36343 -3.136201,-0.52495 -4.711031,-0.64609 -0.403802,0.47111 -0.619164,1.07681 -0.969126,1.60175 0.174981,-1.29217 0.363422,-2.61125 0.767225,-3.86304 1.049887,-2.14016 2.597797,-4.19955 4.872552,-5.16868 -0.04038,-0.14806 -0.09422,-0.29612 -0.134601,-0.44418 -1.103727,0.69993 -2.220915,1.42677 -3.190041,2.30168 -0.686465,0.82106 -0.928746,2.01901 -1.911333,2.58433 -0.201901,-0.3365 -0.417262,-0.65954 -0.646084,-0.96912 0.376883,0.17498 0.753765,0.3365 1.157568,0.45764 0.255741,-0.6057 0.686464,-1.18449 0.646084,-1.88441 -0.242282,-0.53841 -0.699925,-0.95567 -1.063347,-1.42677 0.282662,-0.28266 0.565324,-0.55187 0.847986,-0.80761 -0.349963,0.0942 -0.713385,0.2019 -1.076807,0.30958 -0.148061,-0.32304 -0.309582,-0.63262 -0.457643,-0.9422 -0.04038,0.3365 -0.121141,0.65954 -0.188442,0.99604 -0.740304,0.0808 -2.072853,-0.43072 -2.395895,0.52495 -0.363423,0.61916 0.148061,1.11719 0.471103,1.57483 -0.323042,-0.0673 -0.659544,-0.1346 -0.982587,-0.2019 0.188442,-0.75377 0.417263,-1.50753 0.659545,-2.2613 0.403802,-1.38639 0.336502,-2.84008 0.228821,-4.26685 -0.09422,0 -0.269202,-0.0135 -0.363422,-0.0135 z m 42.78962,51.98623 c 0.67437,-0.0149 1.36115,0.59729 1.18449,1.32918 0,0.96913 -1.42677,1.38639 -2.00556,0.63263 -0.63262,-0.64609 -0.2019,-1.84404 0.68647,-1.95172 0.0446,-0.007 0.0896,-0.009 0.1346,-0.0101 z" id="path4" inkscape:connector-curvature="0"/>
</svg>