<svg xmlns:dc="http://purl.org/dc/elements/1.1/" xmlns:cc="http://creativecommons.org/ns#" xmlns:rdf="http://www.w3.org/1999/02/22-rdf-syntax-ns#" xmlns:svg="http://www.w3.org/2000/svg" xmlns="http://www.w3.org/2000/svg" xmlns:sodipodi="http://sodipodi.sourceforge.net/DTD/sodipodi-0.dtd" xmlns:inkscape="http://www.inkscape.org/namespaces/inkscape" width="100" height="100" viewBox="0 0 80 80" version="1.1" id="svg2" inkscape:version="0.48.2 r9819" sodipodi:docname="fly swatter2.svg">
  <metadata id="metadata12">
    <rdf:RDF>
      <cc:Work rdf:about="">
        <dc:format>image/svg+xml</dc:format>
        <dc:type rdf:resource="http://purl.org/dc/dcmitype/StillImage"/>
      </cc:Work>
    </rdf:RDF>
  </metadata>
  <defs id="defs10"/>
  <sodipodi:namedview pagecolor="#ffffff" bordercolor="#666666" borderopacity="1" objecttolerance="10" gridtolerance="10" guidetolerance="10" inkscape:pageopacity="0" inkscape:pageshadow="2" inkscape:window-width="952" inkscape:window-height="630" id="namedview8" showgrid="false" inkscape:zoom="3.0127337" inkscape:cx="75.905145" inkscape:cy="58.919248" inkscape:window-x="0" inkscape:window-y="0" inkscape:window-maximized="0" inkscape:current-layer="svg2"/>
  <path style="fill:#000000;stroke:#000000;stroke-width:0.01423043" d="M 29.6349,3.1172415 C 27.12246,5.0413479 24.787554,7.1844716 22.361399,9.2187543 17.637091,13.343908 12.665012,17.183488 8.1406826,21.515895 c -0.6068341,0.525534 -0.718872,1.353648 -0.7184929,2.093698 0.1514109,1.408103 1.4165276,2.254442 2.199134,3.293601 3.9691693,4.714737 8.0103773,9.359632 11.9587003,14.101156 0.652315,0.731311 1.4403,1.634437 2.506015,1.646657 1.254428,0.09026 2.312495,-0.756635 3.255786,-1.493432 2.88767,-2.406254 5.719067,-4.895024 8.60674,-7.301278 5.932664,6.922363 11.810676,13.884842 17.729642,20.813751 0.829641,1.067151 0.21046,2.638506 1.183599,3.653902 4.926801,5.838487 9.973937,11.576307 14.914426,17.40825 0.666623,0.690827 1.377566,1.779793 2.492729,1.684263 1.071052,0.09379 2.007671,-0.704899 2.438395,-1.63415 0.270018,-1.054331 -0.339481,-2.08862 -0.970342,-2.880654 C 68.97505,67.33769 64.185907,61.832691 59.465031,56.249085 58.979979,55.656544 58.428958,55.082534 57.868274,54.542962 57.090279,54.006302 55.881131,54.419836 55.313409,53.513511 49.278324,46.623273 43.178298,39.759635 37.357014,32.683103 c 3.132487,-2.809247 6.466989,-5.423255 9.619111,-8.191417 1.194651,-1.126098 1.452442,-3.178465 0.203695,-4.348147 C 42.633349,14.678463 38.123931,9.1649833 33.508385,3.7665679 32.612085,2.6303325 30.850886,2.3174139 29.6349,3.1172415 z M 23.453625,15.166747 c 1.41602,1.308447 1.506686,3.28388 1.90329,5.029036 0.102413,-0.03213 0.266418,-0.08164 0.3551,-0.107186 -0.27792,-0.405531 -0.697967,-0.902417 -0.491813,-1.421523 0.762212,-0.482029 1.385068,-1.202842 2.259157,-1.485982 0.217093,0.77107 1.013199,1.088496 1.561401,1.566739 0.409386,-1.255521 0.956175,-2.558448 2.003093,-3.395241 -0.962662,1.822755 -1.839944,3.772545 -1.6941,5.873069 0.159278,0.966934 0.389062,1.911036 0.719269,2.813106 0.07695,-0.507833 0.08137,-0.971955 0.07675,-1.474452 1.241455,-0.32412 2.447583,-0.816152 3.715826,-1.119426 l 0.118227,0.443593 c -1.108621,0.109216 -2.24942,0.375418 -3.183739,0.990163 -0.637982,1.129241 -0.02888,2.324785 -0.138186,3.504189 0.01506,1.439619 1.62261,1.915298 2.79898,2.194278 -0.07744,0.154773 -0.139411,0.307109 -0.210303,0.475577 -0.842353,-0.354495 -1.645178,-0.750435 -2.438678,-1.178745 0.100858,1.196733 0.389397,2.425403 0.137207,3.622624 -0.24372,0.722119 -1.200728,1.804419 -1.962608,1.12547 -0.922555,-0.804045 -1.322863,-2.008249 -1.97688,-3.024745 -1.363605,0.702138 -1.722523,2.484535 -3.145641,3.097358 -0.726906,0.02775 -1.073634,-0.847996 -1.363467,-1.348776 -0.453314,-1.230175 0.133024,-2.559692 0.256623,-3.779578 -0.796158,0.481426 -1.665332,0.812599 -2.578693,1.013569 -0.0041,-0.149444 -0.01343,-0.279757 -0.01757,-0.429185 1.027653,-0.137826 2.272096,-0.45859 2.825476,-1.412811 0.227826,-1.353813 0.471916,-2.745823 0.22464,-4.108112 -0.986345,-0.655792 -2.253261,-0.825423 -3.252695,-1.508608 1.385437,-0.02281 2.564707,0.777523 3.812477,1.241089 0.01831,0.495951 0.0056,0.992909 0.0239,1.488861 0.274735,-0.93882 0.674009,-1.82513 0.894567,-2.771706 0.233392,-2.046234 -0.395684,-4.057789 -1.23161,-5.912639 z m 48.111812,58.553922 c 0.673502,-0.456454 1.805158,-0.181885 1.993045,0.704084 0.471247,0.986076 -0.776132,2.094423 -1.731569,1.608915 -0.957853,-0.349764 -1.11302,-1.771457 -0.261476,-2.312999 z" id="path4" inkscape:connector-curvature="0"/>
  <path d="m 389.7,-441.8 c 1.9,0.4 3.7,0.9 5.6,1.4 -1.4,0.6 -2.7,1.2 -4.1,1.7 -0.5,-1 -1,-2.1 -1.5,-3.1 z" id="path6" inkscape:connector-curvature="0" style="fill:#000000;stroke:#000000;stroke-width:0.09375"/>
</svg>