<svg xmlns="http://www.w3.org/2000/svg" xmlns:xlink="http://www.w3.org/1999/xlink" xmlns:a="http://ns.adobe.com/AdobeSVGViewerExtensions/3.0/" version="1.1" x="0px" y="0px" width="100px" height="100px" viewBox="-5 0 100 100" overflow="visible" enable-background="new -5 0 100 100" xml:space="preserve">
<defs>
</defs>
<path fill="#000000" d="M45.07,0c13.99,0,25.335,11.345,25.335,25.339c0,13.99-11.345,25.335-25.335,25.335  c-13.994,0-25.34-11.345-25.34-25.335C19.73,11.345,31.076,0,45.07,0z"/>
<path fill="#000000" d="M70.713,55H19.426C8.492,55,0,63.59,0,74.523V100h91V74.523C91,63.59,81.643,55,70.713,55z M48.267,61.553  c1.225,0.782,2.227,1.785,3.01,3.011c-1.136,0.753-1.728,2.049-3.01,2.655c-0.753-1.136-2.05-1.728-2.655-3.01  C46.57,63.397,47.455,62.513,48.267,61.553z M54.463,65.625c1.194,0.637,1.936,1.725,2.833,2.656  c-3.851,5.798-14.37,1.935-15.935-3.364C43.944,68.32,51.974,70.748,54.463,65.625z M33.571,89.881  c-3.073-2.985-5.001-7.398-5.667-11.508c0.897,0.656,1.069,1.959,1.594,3.011c1.51,3.025,4.287,7.674,8.498,7.967  c2.648,0.184,5.092-1.06,5.844-3.187c1.168-3.304-1.264-5.663-2.479-7.613c-0.634,0.842-1.289,1.662-1.948,2.478  c-1.154-1.028-2.247-2.119-3.363-3.186c0.807-1.195,1.923-1.517,2.833-2.479c1.12-1.186,2.536-4.563-0.354-5.135  c-1.931-0.382-3.635,0.91-4.957,1.947c-0.583,0.457-2.015,2.29-2.303,2.303c-0.985,0.041-2.45-2.828-3.01-3.188  c2.59-1.821,4.602-5.034,8.853-4.25c4.248,0.784,7.136,6.238,4.604,10.624c2.101,2.196,4.98,4.927,4.959,9.206  C46.636,94.221,37.376,93.581,33.571,89.881z M58.713,83.685c-2.425,0.108-5.34-2.614-6.02-4.604  c3.034,3.507,9.638-0.566,7.082-4.603c-4.843-1.106-10.905,9.698-15.404,2.301c4.932,1.611,6.513-3.805,11.863-4.958  c1.517-0.327,4.419,0.812,5.135,2.125C62.835,76.636,62.416,83.521,58.713,83.685z"/>
</svg>