<svg xmlns="http://www.w3.org/2000/svg" xmlns:xlink="http://www.w3.org/1999/xlink" xmlns:a="http://ns.adobe.com/AdobeSVGViewerExtensions/3.0/" version="1.1" x="0px" y="0px" width="100px" height="100px" viewBox="-5 0 100 100" overflow="visible" enable-background="new -5 0 100 100" xml:space="preserve">
<defs>
</defs>
<path fill="#000000" d="M44.987,0c13.99,0,25.335,11.345,25.335,25.339c0,13.99-11.345,25.335-25.335,25.335  c-13.994,0-25.34-11.345-25.34-25.335C19.647,11.345,30.993,0,44.987,0z"/>
<path fill="#000000" d="M70.63,55H19.343C8.409,55,0,63.59,0,74.523V100h90V74.523C90,63.59,81.56,55,70.63,55z M54.778,76H48  v16.583c0,1.616-1.385,2.917-3,2.917s-3-1.301-3-2.917V76h-6.667c-1.616,0-2.917-1.385-2.917-3c0.001-1.615,1.301-3,2.917-3H42  v-6.583c0-1.616,1.385-2.917,3-2.917c1.617,0,3,1.301,3,2.917V70h6.778c1.615,0,2.916,1.385,2.916,3S56.394,76,54.778,76z"/>
</svg>