<svg xmlns="http://www.w3.org/2000/svg" xmlns:xlink="http://www.w3.org/1999/xlink" xmlns:a="http://ns.adobe.com/AdobeSVGViewerExtensions/3.0/" version="1.1" x="0px" y="0px" width="100px" height="100px" viewBox="-5 0 100 100" overflow="visible" enable-background="new -5 0 100 100" xml:space="preserve">
<defs>
</defs>
<path fill="#000000" d="M44.987,0c13.99,0,25.335,11.345,25.335,25.339c0,13.99-11.345,25.335-25.335,25.335  c-13.994,0-25.34-11.345-25.34-25.335C19.647,11.345,30.993,0,44.987,0z"/>
<path fill="#000000" d="M70.63,55H19.343C8.409,55,0,63.59,0,74.523V100h90V74.523C90,63.59,81.56,55,70.63,55z M60.056,87h-9.263  l-5.557,7.41L39.679,87h-9.263l5.558-9.5L30.416,68h9.263l5.558-7.409L50.793,68h9.263l-5.558,9.5L60.056,87z"/>
</svg>