<?xml version="1.0" encoding="utf-8"?>
<!-- Generator: Adobe Illustrator 14.0.0, SVG Export Plug-In . SVG Version: 6.00 Build 43363)  -->
<!DOCTYPE svg PUBLIC "-//W3C//DTD SVG 1.0//EN" "http://www.w3.org/TR/2001/REC-SVG-20010904/DTD/svg10.dtd">
<svg version="1.0" id="Layer_1" xmlns="http://www.w3.org/2000/svg" xmlns:xlink="http://www.w3.org/1999/xlink" x="0px" y="0px"
	 width="100px" height="87.398px" viewBox="0 0 100 87.398" enable-background="new 0 0 100 87.398" xml:space="preserve">
<path d="M94.182,68.483c-3.254-2.157-6.46-8.33-7.579-10.884c-0.126-1.835-0.748-10.194-1.854-13.211
	c-1.028-2.802-5.305-8.804-6.871-10.952l1.608-3.735c3.57-0.47,6.328-3.517,6.328-7.214c0-4.023-3.261-7.284-7.284-7.284
	c-4.023,0-7.284,3.261-7.284,7.284c0,1.824,0.675,3.488,1.784,4.766l-1.942,3.292H54.763c-0.553-1.975-1.286-3.913-2.247-5.767
	c-1.416-2.732-8.504-4.753-11.938-9.814C34.812,6.465,27.224-0.617,19.305,0.042C15.129,0.39,11.717,3.44,11.717,7.63
	c0,0.549,0.065,1.083,0.176,1.599h-0.005c0.102,1.253-0.22,2.227-0.983,2.976c-2.18,2.141-7.406,2.139-9.234,1.958L0,13.994v1.679
	c0,2.038,0.75,3.793,2.229,5.215c3.074,2.956,8.708,3.693,11.988,3.863c-3.508,4.467-5.608,10.092-5.608,16.214
	c0,13.325,9.91,24.328,22.76,26.06l0.374,5.342c-1.718,0.92-2.887,2.732-2.887,4.817c0,2.355,1.493,4.356,3.582,5.124l0.356,5.091
	h1.525h1.525l0.356-5.091c2.089-0.767,3.582-2.768,3.582-5.124c0-2.085-1.169-3.897-2.887-4.817l0.364-5.208
	c6.367-0.563,12.082-3.39,16.332-7.676c0.585-2.049,1.379-5.227,1.936-9.008h11.337c0.75,4.99,4.524,10.741,7.75,12.811
	c4.136,2.654,8.936,6.73,11.516,9.24c-0.442,0.94-0.696,1.986-0.696,3.094c0,3.38,2.305,6.214,5.428,7.037l0.332,4.743h1.525h1.524
	l0.332-4.743c3.122-0.822,5.428-3.656,5.428-7.036C100,72.099,97.502,69.162,94.182,68.483z M16.27,21.763
	C13.562,21.811,7.1,21.36,4.333,18.7c-0.45-0.432-0.78-0.904-0.995-1.424c2.633,0.023,7.108-0.371,9.689-2.901
	c0.401-0.393,0.734-0.83,1.01-1.296c0.175,0.169,0.355,0.334,0.546,0.486l-0.002,0.004l4.347,4.229L16.27,21.763z M87.982,70.089
	c-2.854-2.747-7.613-6.717-11.73-9.358c-2.786-1.788-6.398-7.705-6.485-11.806l-0.032-1.485H55.9
	c0.427-4.294,0.459-9.116-0.431-13.86H72.82l2.649-4.489c0.27,0.126,0.546,0.239,0.833,0.331l-1.901,4.415l0.521,0.702
	c1.642,2.214,6.095,8.489,6.977,10.895c0.868,2.366,1.517,9.917,1.693,12.627l0.017,0.257l0.101,0.237
	c0.135,0.318,2.731,6.366,6.332,10.294C89.284,69.148,88.589,69.569,87.982,70.089z"/>
</svg>
