<svg xmlns="http://www.w3.org/2000/svg" xmlns:xlink="http://www.w3.org/1999/xlink" version="1.1" id="Your_Icon" x="0px" y="0px" width="100px" height="100px" viewBox="0 0 100 100" enable-background="new 0 0 100 100" xml:space="preserve">
<path d="M99.284,53.229L90,27.704c-0.104-0.399-0.369-0.738-0.73-0.936c-0.362-0.198-0.791-0.237-1.183-0.111l-17.101,6.717  c-2.899-1.623-13.879-7.679-17.322-8.252c-0.569-0.095-1.18-0.143-1.814-0.143c-2.993,0-5.866,1.06-6.628,1.363  c-1.768,0.208-11.123,1.425-17.421,4.574c-5.487-2.828-9.85-6.082-9.895-6.115c-0.332-0.248-0.752-0.351-1.158-0.277  c-0.408,0.071-0.768,0.308-0.995,0.653L0.747,47.983c-0.443,0.673-0.275,1.576,0.381,2.045l18.934,13.523  c-0.654,1.523-0.688,3.053-0.079,4.438c1.046,2.381,3.656,3.726,5.039,4.293c1.061,4.283,3.776,4.951,5.363,4.951  c0.532,0,1.03-0.074,1.464-0.176c1.515,3.354,3.603,4.107,5.172,4.106c0,0,0,0,0.001,0c0.807,0,1.527-0.204,2.1-0.448  c0.935,1.046,2.598,2.436,5.017,2.738c0.253,0.032,0.492,0.046,0.715,0.046c1.465,0,2.37-0.62,2.871-1.141  c0.683-0.71,0.971-1.587,1.091-2.255l3.341,2.343l0.09,0.058c0.294,0.177,2.397,1.39,4.634,1.39c0.67,0,1.353-0.108,2.001-0.388  c0.782-0.336,1.75-1.027,2.38-2.45c1.275,0.065,3.223-0.069,4.866-1.211c1.248-0.866,2.098-2.126,2.534-3.753  c1.269-0.11,3.175-0.52,4.672-1.887c1.113-1.017,1.807-2.357,2.071-3.999c1.336-0.02,3.221-0.317,4.658-1.613  c1.373-1.237,2.017-3.054,1.937-5.39l16.505-8.253C99.139,54.634,99.464,53.915,99.284,53.229z M22.727,66.777  c-0.29-0.663-0.244-1.355,0.145-2.178c0.937-1.983,2.057-3.168,2.997-3.168c0.564,0,1.247,0.414,1.976,1.176  c-1.148,1.428-2.618,3.688-3.012,6.229C23.967,68.323,23.098,67.627,22.727,66.777z M27.794,70.9l-0.001-0.009  c-0.406-2.232,0.978-4.573,2.13-6.074l1.028-0.971c0.656-0.619,2.065-1.601,3.055-1.601c0.859,0,1.315,1.138,1.561,2.304  c-1.279,1.521-4.335,5.582-4.371,9.577c-0.245,0.06-0.522,0.106-0.812,0.106C29.889,74.233,28.382,74.233,27.794,70.9z   M37.021,78.164c-1.346,0.001-2.245-1.69-2.786-3.217l0.01-0.002c-0.542-2.979,2.458-7.148,3.86-8.747  c0.235-0.105,0.713-0.282,1.273-0.282c0.902,0,1.688,0.502,2.354,1.473c-0.644,0.329-1.235,0.808-1.756,1.432  c-1.745,2.092-2.546,5.694-2.1,9.156C37.616,78.079,37.323,78.164,37.021,78.164z M46,79.201c0,0.236-0.126,0.811-0.394,1.084  c-0.053,0.053-0.238,0.215-0.729,0.215c-0.107,0-0.234-0.008-0.355-0.022c-2.03-0.254-3.264-1.832-3.594-2.311  c-0.502-2.759,0.065-5.881,1.354-7.425c0.494-0.593,1.03-0.881,1.641-0.882c0.201,0.009,1.765,0.162,2.56,2.835l-0.525,6.328  L46,79.121V79.201z M78.062,66.358c-0.86,0.78-2.26,0.889-3.15,0.844l-11.433-10.37c-0.612-0.554-1.562-0.51-2.119,0.104  c-0.557,0.613-0.51,1.563,0.104,2.119l11.03,10.006c-0.076,1.269-0.456,2.261-1.171,2.919c-0.95,0.875-2.28,1.09-3.078,1.137  L57.505,62.859c-0.6-0.571-1.548-0.55-2.121,0.049c-0.572,0.6-0.55,1.549,0.049,2.121l10.396,9.93  c-0.229,1.102-0.679,1.908-1.4,2.414c-0.707,0.495-1.562,0.653-2.291,0.688c-0.039-0.048-0.059-0.105-0.104-0.148l-9.352-8.872  c-0.6-0.569-1.55-0.546-2.121,0.056c-0.57,0.601-0.545,1.55,0.056,2.12l8.168,7.749l-0.028,0.129  c-0.295,1.326-0.867,1.574-1.056,1.655c-1.17,0.51-3.195-0.404-3.871-0.793l-4.697-3.293l0.385-4.234l-0.067-0.256  c-0.887-3.354-2.908-4.74-4.482-5.162c-1.709-3.541-4.2-4.095-5.59-4.095c-0.397,0-0.771,0.042-1.11,0.107  c-0.996-3.242-3.03-3.777-4.263-3.777c-1.47,0-2.89,0.751-3.865,1.422c-1.376-1.485-2.809-2.236-4.271-2.236  c-1.584,0-3.037,0.872-4.29,2.518L4.046,48.426L17.4,28.128c1.846,1.286,5.476,3.685,9.738,5.815  c0.439,0.22,0.958,0.211,1.389-0.025c3.252-1.774,7.764-2.949,11.365-3.672c-0.918,0.847-1.964,1.867-3.164,3.119  c-4.901,5.116-2.766,8.218-2.454,8.619c1.205,1.398,2.855,2.137,4.772,2.136c4.205,0,8.849-3.568,10.189-4.676l3.631-0.403  c2.471,8.528,12.086,12.189,14.149,12.883l11.749,11.748c0.068,0.068,0.155,0.103,0.232,0.154  C78.958,64.965,78.652,65.821,78.062,66.358z M80.123,60.787l-11.24-11.239c-0.176-0.176-0.392-0.305-0.63-0.376  c-0.111-0.034-11.147-3.439-12.76-12.044c-0.135-0.716-0.76-1.224-1.474-1.224c-0.055,0-0.11,0.003-0.167,0.009l-5.402,0.6  c-0.307,0.034-0.597,0.163-0.829,0.367c-1.335,1.179-5.479,4.24-8.575,4.24c-1.015,0-1.786-0.318-2.415-1  c-0.105-0.265-0.516-1.78,2.263-4.68c5.07-5.291,7.218-6.224,7.213-6.224c0.033-0.011,0.065-0.024,0.097-0.038  c0.028-0.012,2.836-1.201,5.644-1.201c0.47,0,0.914,0.034,1.321,0.102c2.449,0.408,11.457,5.145,16.914,8.229  c0.365,0.208,0.802,0.251,1.2,0.122L87.5,30l8.573,22.813L80.123,60.787z"/>
</svg>