<svg xmlns="http://www.w3.org/2000/svg" xmlns:xlink="http://www.w3.org/1999/xlink" version="1.1" id="Layer_1" x="0px" y="0px" width="100px" height="100px" viewBox="0 0 100 100" enable-background="new 0 0 100 100" xml:space="preserve">
<g>
	<path d="M57.873,66.729c-1.812-0.904-4.014-0.17-4.919,1.642l-7.333,14.666c-0.904,1.812-0.171,4.014,1.64,4.919   c0.527,0.264,1.087,0.388,1.638,0.388c1.345,0,2.64-0.741,3.283-2.028l7.332-14.664C60.419,69.837,59.686,67.636,57.873,66.729z"/>
	<path d="M72.482,66.703c-1.826-0.876-4.017-0.104-4.892,1.722l-2.933,6.12c-0.874,1.826-0.104,4.018,1.723,4.891   c0.512,0.246,1.051,0.361,1.582,0.361c1.366,0,2.68-0.77,3.309-2.084l2.934-6.12C75.08,69.768,74.309,67.577,72.482,66.703z"/>
	<path d="M43.15,66.703c-1.825-0.876-4.015-0.104-4.891,1.722l-2.932,6.12c-0.875,1.826-0.104,4.018,1.723,4.891   c0.511,0.246,1.05,0.361,1.581,0.361c1.366,0,2.678-0.77,3.31-2.084l2.931-6.12C45.748,69.768,44.977,67.577,43.15,66.703z"/>
	<path d="M97.293,40.645c-0.066-9.538-3.396-18.538-9.387-25.35C81.652,8.183,73.27,4.267,64.299,4.267   c-7.342,0-14.288,2.614-20.088,7.559c-1.854,1.581-3.522,3.362-5.013,5.297l-1.925,1.925c-1.164-0.687-2.43-1.215-3.771-1.561   v-9.28c0-2.025-1.642-3.667-3.667-3.667s-3.667,1.642-3.667,3.667v9.281c-1.342,0.346-2.607,0.874-3.771,1.561l-6.562-6.562   c-1.433-1.432-3.754-1.432-5.186,0c-1.432,1.432-1.432,3.753,0,5.185l6.562,6.562c-0.688,1.165-1.216,2.43-1.562,3.772h-9.28   c-2.024,0-3.667,1.642-3.667,3.666c0,2.025,1.643,3.667,3.667,3.667h9.281c0.346,1.343,0.873,2.607,1.561,3.771l-6.562,6.562   c-1.432,1.431-1.432,3.753,0,5.186c0.717,0.717,1.654,1.074,2.593,1.074s1.877-0.357,2.593-1.074l5.28-5.28   c0.869,9.711,9.05,17.353,18.984,17.353h35.199c12.13,0,21.999-9.869,21.999-21.999C97.298,40.835,97.296,40.74,97.293,40.645z    M29.835,22.873c1.854,0,3.573,0.577,4.992,1.558c-0.191,0.425-0.389,0.847-0.566,1.281c-2.923,0.937-5.593,2.578-7.796,4.83   c-1.712,1.751-3.046,3.779-3.964,5.979c-0.923-1.391-1.466-3.054-1.466-4.849C21.035,26.812,24.976,22.873,29.835,22.873z    M75.3,55.598L75.3,55.598H40.1c-3.69,0-6.978-1.707-9.128-4.371c-0.307-0.381-0.584-0.785-0.843-1.202   c-0.092-0.148-0.186-0.293-0.271-0.446c-0.086-0.152-0.162-0.31-0.24-0.466c-0.082-0.164-0.164-0.327-0.238-0.495   c-0.069-0.154-0.132-0.312-0.194-0.471c-0.07-0.18-0.138-0.361-0.199-0.546c-0.052-0.155-0.102-0.309-0.146-0.465   c-0.059-0.201-0.109-0.405-0.157-0.61c-0.034-0.147-0.07-0.294-0.099-0.443c-0.045-0.236-0.079-0.477-0.109-0.717   c-0.017-0.125-0.038-0.249-0.05-0.376c-0.035-0.37-0.057-0.745-0.057-1.125c0-0.359,0.021-0.714,0.053-1.064   c0.01-0.106,0.023-0.212,0.036-0.318c0.029-0.251,0.067-0.501,0.112-0.749c0.02-0.106,0.038-0.214,0.061-0.321   c0.066-0.311,0.143-0.619,0.233-0.919c0.007-0.025,0.012-0.05,0.02-0.075l0,0c1.331-4.337,5.109-7.6,9.725-8.187   c0.395-0.05,0.795-0.082,1.2-0.092c0.163-0.593,0.347-1.176,0.54-1.752c0.029-0.083,0.056-0.168,0.084-0.251   c0.19-0.549,0.396-1.089,0.615-1.621c0.038-0.094,0.076-0.187,0.115-0.279c0.225-0.534,0.462-1.061,0.714-1.576   c0.03-0.063,0.062-0.125,0.094-0.187c0.269-0.54,0.548-1.07,0.844-1.587l0,0c0.584-1.021,1.225-1.996,1.913-2.922   c0.35-0.472,0.714-0.931,1.089-1.375c0.008-0.009,0.014-0.018,0.021-0.026c0.368-0.435,0.748-0.856,1.139-1.264   c0.028-0.03,0.057-0.059,0.085-0.089c0.8-0.829,1.645-1.602,2.53-2.312c4.166-3.336,9.235-5.296,14.708-5.296   c14.128,0,25.587,13.045,25.662,29.169c0,0.054,0.004,0.108,0.004,0.162C89.965,49.03,83.396,55.598,75.3,55.598z"/>
</g>
</svg>