<svg xmlns="http://www.w3.org/2000/svg" xmlns:xlink="http://www.w3.org/1999/xlink" version="1.1" id="Layer_1" x="0px" y="0px" width="100px" height="100px" viewBox="0 0 100 100" enable-background="new 0 0 100 100" xml:space="preserve">
<g>
	<path d="M55.133,11.345c14.129,0,25.585,13.045,25.66,29.169c0,0.055,0.005,0.107,0.005,0.162c0,8.101-6.565,14.667-14.665,14.667   h-0.001H30.934c-6.479,0-11.732-5.254-11.732-11.733c0-6.381,5.096-11.569,11.439-11.725C33.91,19.982,43.637,11.345,55.133,11.345    M55.133,4.012c-7.344,0-14.289,2.614-20.089,7.56c-4.338,3.698-7.725,8.44-9.95,13.885c-2.924,0.937-5.594,2.578-7.795,4.829   c-3.502,3.581-5.431,8.313-5.431,13.324c0,10.512,8.553,19.065,19.065,19.066h35.198c12.13,0,22-9.867,22-22   c0-0.096-0.003-0.19-0.006-0.285c-0.064-9.538-3.396-18.538-9.387-25.35C72.484,7.93,64.102,4.012,55.133,4.012L55.133,4.012z"/>
</g>
</svg>