<svg xmlns="http://www.w3.org/2000/svg" xmlns:xlink="http://www.w3.org/1999/xlink" version="1.1" id="Layer_1" x="0px" y="0px" width="100px" height="100px" viewBox="0 0 100 100" enable-background="new 0 0 100 100" xml:space="preserve">
<g>
	<path d="M25.241,66.477c-1.811-0.906-4.014-0.172-4.919,1.641l-7.334,14.665c-0.905,1.811-0.172,4.014,1.639,4.919   c0.527,0.263,1.087,0.388,1.638,0.388c1.345,0,2.641-0.743,3.282-2.026l7.333-14.666C27.785,69.584,27.052,67.382,25.241,66.477z"/>
	<path d="M39.905,66.477c-1.811-0.904-4.013-0.172-4.918,1.641l-7.334,14.665c-0.905,1.811-0.171,4.014,1.641,4.919   c0.527,0.263,1.086,0.388,1.637,0.388c1.346,0,2.64-0.743,3.282-2.026l7.334-14.666C42.451,69.584,41.718,67.382,39.905,66.477z"/>
	<path d="M54.572,66.477c-1.812-0.906-4.014-0.172-4.919,1.641l-7.332,14.665c-0.905,1.811-0.171,4.014,1.64,4.919   c0.526,0.263,1.086,0.388,1.637,0.388c1.345,0,2.641-0.743,3.282-2.026l7.333-14.666C57.117,69.584,56.385,67.382,54.572,66.477z"/>
	<path d="M69.238,66.477c-1.809-0.906-4.012-0.172-4.918,1.641l-7.334,14.665c-0.906,1.811-0.172,4.014,1.641,4.919   c0.525,0.263,1.085,0.388,1.637,0.388c1.346,0,2.639-0.743,3.282-2.026l7.333-14.666C71.783,69.584,71.051,67.382,69.238,66.477z"/>
	<path d="M88.127,40.391c-0.066-9.538-3.396-18.538-9.387-25.349c-6.254-7.113-14.639-11.03-23.607-11.03   c-7.342,0-14.289,2.614-20.089,7.559c-4.337,3.699-7.725,8.441-9.949,13.887c-2.923,0.937-5.594,2.578-7.795,4.828   c-3.502,3.583-5.432,8.315-5.432,13.324c0,10.513,8.554,19.066,19.065,19.067h35.199c12.13,0,21.998-9.868,21.998-22   C88.131,40.581,88.129,40.487,88.127,40.391z M66.133,55.344L66.133,55.344H30.935c-6.48-0.001-11.732-5.255-11.732-11.734   c0-6.381,5.095-11.569,11.439-11.724c3.269-11.904,12.996-20.54,24.491-20.54c14.127,0,25.586,13.045,25.661,29.17   c0,0.054,0.005,0.106,0.005,0.161C80.799,48.777,74.232,55.344,66.133,55.344z"/>
</g>
</svg>