<svg xmlns="http://www.w3.org/2000/svg" xmlns:xlink="http://www.w3.org/1999/xlink" version="1.1" id="Layer_1" x="0px" y="0px" width="100px" height="100px" viewBox="0 0 100 100" enable-background="new 0 0 100 100" xml:space="preserve">
<g>
	<circle cx="25.801" cy="72.409" r="3.667"/>
	<circle cx="39" cy="72.409" r="3.667"/>
	<circle cx="52.2" cy="72.409" r="3.667"/>
	<circle cx="65.398" cy="72.409" r="3.667"/>
	<circle cx="17.002" cy="84.396" r="3.667"/>
	<circle cx="30.202" cy="84.396" r="3.667"/>
	<circle cx="43.401" cy="84.396" r="3.667"/>
	<circle cx="56.6" cy="84.396" r="3.667"/>
	<path d="M88.128,40.845c-0.065-9.538-3.397-18.537-9.388-25.349c-6.254-7.113-14.639-11.03-23.608-11.03   c-7.341,0-14.287,2.614-20.088,7.56c-4.338,3.699-7.725,8.441-9.948,13.885c-2.924,0.937-5.595,2.579-7.797,4.83   c-3.501,3.582-5.43,8.313-5.43,13.324c0,10.513,8.553,19.064,19.063,19.066h35.199c12.131,0,22-9.869,22-22   C88.132,41.035,88.13,40.94,88.128,40.845z M66.134,55.798h-0.002H30.935c-6.48-0.001-11.733-5.254-11.733-11.733   c0-6.382,5.097-11.569,11.441-11.725C33.909,20.436,43.638,11.8,55.132,11.8c14.13,0,25.586,13.045,25.662,29.169   c0.002,0.054,0.004,0.107,0.004,0.161C80.798,49.231,74.23,55.798,66.134,55.798z"/>
</g>
</svg>