<?xml version="1.0" encoding="utf-8"?>
<!-- Generator: Adobe Illustrator 14.0.0, SVG Export Plug-In . SVG Version: 6.00 Build 43363)  -->
<!DOCTYPE svg PUBLIC "-//W3C//DTD SVG 1.0//EN" "http://www.w3.org/TR/2001/REC-SVG-20010904/DTD/svg10.dtd">
<svg version="1.0" id="Layer_1" xmlns="http://www.w3.org/2000/svg" xmlns:xlink="http://www.w3.org/1999/xlink" x="0px" y="0px"
	 width="100px" height="97.083px" viewBox="0 0 100 97.083" enable-background="new 0 0 100 97.083" xml:space="preserve">
<path d="M48.234,77.898c-1.104-1.104-2.897-1.104-4.002,0L30.906,91.214l-1.658-1.658l17.869-17.845
	c1.104-1.104,1.104-2.896,0-4.001c-1.101-1.107-2.894-1.107-4.002-0.003L25.25,85.555L23.595,83.9l20.782-20.765
	c1.104-1.104,1.108-2.897,0.003-4.002c-1.104-1.107-2.897-1.107-4.001-0.003L19.594,79.895l-1.655-1.658L34.25,61.94
	c1.104-1.104,1.104-2.894,0-4.001c-1.101-1.104-2.894-1.108-4.001,0L9.265,78.881c-0.014-2.027-0.03-5.677-0.03-8.97
	c0-4.574-5.78-5.253-6.069-4.934C2.883,65.311,0,97.083,0,97.083h16.572h16.513l0,0l0,0l1.843-1.844l-0.024-0.02l13.331-13.32
	C49.339,80.794,49.339,79.005,48.234,77.898z"/>
<path d="M63.121,0C46.392,0,30.977,12.551,27.765,26.371c-0.719,3.082-1.524,11.104-1.524,11.104l-7.688,19.373
	c-0.151,0.355-0.231,0.742-0.231,1.161c0,1.632,1.329,2.964,2.971,2.964h2.625l4.687-4.683c2.018-2.011,5.28-2.011,7.294,0.003
	c0.742,0.746,1.208,1.662,1.403,2.625l1.434-1.433c2.014-2.015,5.277-2.015,7.291,0.003c1.974,1.975,1.998,5.146,0.101,7.167
	c0.967,0.191,1.89,0.661,2.638,1.41c2.011,2.014,2.011,5.279-0.003,7.29l-1.497,1.494c0.96,0.193,1.873,0.66,2.615,1.402
	c2.014,2.015,2.014,5.281,0,7.295l-3.323,3.32v10.215h39.356V65.807C94.479,59.07,100,48.597,100,36.848
	C100,16.492,83.498,0,63.121,0z M35.32,44.833c-2.276,0-4.119-1.846-4.119-4.112c0-2.276,1.843-4.115,4.119-4.115
	c2.272,0,4.109,1.839,4.109,4.115C39.429,42.987,37.593,44.833,35.32,44.833z M54.568,54.417c1.027,0,1.877,0.843,1.877,1.866
	c0,1.037-0.85,1.873-1.877,1.873c-1.034,0-1.873-0.836-1.873-1.873C52.695,55.26,53.534,54.417,54.568,54.417z M53.451,66.12
	c-1.031,0-1.87-0.84-1.87-1.873c0-1.031,0.839-1.877,1.87-1.877c1.033,0,1.875,0.846,1.875,1.877
	C55.326,65.28,54.484,66.12,53.451,66.12z M57.449,74.178c-1.559-0.135-2.696-1.49-2.572-3.038c0.138-1.544,1.498-2.685,3.042-2.554
	c1.54,0.131,2.688,1.493,2.551,3.031C60.336,73.168,58.979,74.313,57.449,74.178z M60.147,62.954c-1.567,0-2.812-1.256-2.812-2.803
	s1.245-2.799,2.812-2.799c1.538,0,2.79,1.252,2.79,2.799S61.686,62.954,60.147,62.954z M64.129,68.828
	c-1.041,0-1.883-0.835-1.883-1.876c0-1.023,0.842-1.866,1.883-1.866c1.034,0,1.869,0.843,1.869,1.866
	C65.998,67.993,65.163,68.828,64.129,68.828z M68.314,57.942H67.66v-3.343l0.648-0.007c4.172-0.007,7.576-3.404,7.59-7.573
	c-0.014-4.169-3.418-7.566-7.587-7.573l-0.651-0.003v-3.34h0.654c6.029,0,10.93,4.894,10.93,10.917S74.344,57.942,68.314,57.942z"/>
</svg>
