<svg xmlns="http://www.w3.org/2000/svg" xmlns:xlink="http://www.w3.org/1999/xlink" version="1.1" id="Layer_1" x="0px" y="0px" width="100px" height="100px" viewBox="0 0 100 100" enable-background="new 0 0 100 100" xml:space="preserve">
<g>
	<path d="M49.44,65.463c-1.812-0.906-4.016-0.171-4.92,1.641L37.188,81.77c-0.906,1.812-0.172,4.014,1.641,4.92   c0.525,0.262,1.084,0.387,1.635,0.387c1.346,0,2.641-0.742,3.283-2.027l7.334-14.665C51.984,68.57,51.251,66.369,49.44,65.463z"/>
	<path d="M64.048,65.438c-1.823-0.877-4.016-0.104-4.889,1.723l-2.933,6.119c-0.877,1.826-0.104,4.017,1.722,4.891   c0.512,0.246,1.051,0.361,1.581,0.361c1.367,0,2.681-0.77,3.31-2.084l2.933-6.119C66.646,68.501,65.874,66.311,64.048,65.438z"/>
	<path d="M34.716,65.438c-1.824-0.877-4.014-0.104-4.889,1.723l-2.932,6.119c-0.877,1.826-0.105,4.017,1.721,4.891   c0.512,0.246,1.051,0.361,1.582,0.361c1.369,0,2.68-0.77,3.309-2.084l2.934-6.119C37.313,68.501,36.544,66.311,34.716,65.438z"/>
	<path d="M82.999,40.144H59.534c-4.449,0-8.066-3.618-8.066-8.065c0-4.447,3.617-8.067,8.066-8.067c3.682,0,6.893,2.486,7.809,6.044   c0.507,1.961,2.505,3.142,4.468,2.636c1.961-0.505,3.139-2.503,2.635-4.464c-1.752-6.799-7.883-11.549-14.91-11.549   c-8.492,0-15.402,6.909-15.402,15.4c0,8.491,6.91,15.398,15.402,15.398H83c2.025,0,3.666-1.641,3.666-3.666   C86.665,41.786,85.023,40.144,82.999,40.144z"/>
	<path d="M75.665,53.343H27.204c-3.604,0-6.537-2.932-6.537-6.535s2.934-6.536,6.537-6.536c3.605,0,6.535,2.932,6.535,6.536   c0,2.025,1.643,3.667,3.668,3.667c2.023,0,3.666-1.642,3.666-3.667c0-7.646-6.223-13.869-13.869-13.869   c-7.648,0-13.869,6.222-13.869,13.869s6.221,13.869,13.869,13.869h48.461c2.024,0,3.666-1.642,3.666-3.667   S77.689,53.343,75.665,53.343z"/>
	<path d="M36.474,30.107c0.994,0,1.984-0.402,2.707-1.194c1.367-1.495,1.262-3.814-0.234-5.18c-2.684-2.455-2.873-6.637-0.418-9.323   c1.172-1.283,2.773-2.042,4.508-2.138c2.021-0.111,3.57-1.841,3.459-3.863c-0.111-2.022-1.834-3.572-3.863-3.46   c-3.662,0.204-7.041,1.806-9.518,4.514c-5.184,5.671-4.783,14.501,0.887,19.684C34.706,29.789,35.591,30.107,36.474,30.107z"/>
</g>
</svg>