<svg xmlns="http://www.w3.org/2000/svg" xmlns:xlink="http://www.w3.org/1999/xlink" version="1.1" id="Layer_1" x="0px" y="0px" width="100px" height="100px" viewBox="0 0 100 100" enable-background="new 0 0 100 100" xml:space="preserve">
<path d="M8.314,91.02c6.652,0,12.199-4.696,13.529-9.949c1.332,5.253,6.88,9.223,13.53,9.223c6.675,0,12.243-3.926,13.545-9.207  c1.308,5.281,6.873,9.35,13.548,9.35c6.638,0,12.182-3.742,13.522-8.98c1.339,5.238,6.884,9.557,13.521,9.557  c3.235,0,6.204-0.986,8.557-2.518c-20.04-31.113-7.604-81.271-7.604-81.271C33.538,19.207,8.562,72.522,1.908,89.665  C3.823,90.513,6.001,91.02,8.314,91.02z"/>
</svg>