<svg xmlns="http://www.w3.org/2000/svg" xmlns:xlink="http://www.w3.org/1999/xlink" version="1.1" id="Layer_1" x="0px" y="0px" width="77.2727272727px" height="100px" viewBox="0 0 612 792" enable-background="new 0 0 612 792" xml:space="preserve">
<path d="M373.228,162.5H126.5v468h360V275.771L373.228,162.5z M378.5,193.227l77.272,77.273H378.5V193.227z M144.5,612.5v-432h216  v108h108v324H144.5z"/>
<path d="M436.125,503.49l-25.092-29.314l-0.705,11.383L383,471.896v-96.219c0-0.044-0.012-0.085-0.013-0.129  c-0.003-0.103-0.01-0.204-0.02-0.307c-0.011-0.105-0.025-0.208-0.043-0.312c-0.017-0.094-0.032-0.188-0.054-0.28  c-0.021-0.088-0.045-0.174-0.071-0.261c-0.029-0.099-0.064-0.194-0.101-0.291c-0.039-0.104-0.079-0.205-0.125-0.305  c-0.02-0.042-0.028-0.085-0.049-0.127c-0.017-0.033-0.041-0.06-0.059-0.092c-0.046-0.087-0.099-0.17-0.15-0.255  c-0.061-0.098-0.124-0.193-0.191-0.286c-0.05-0.068-0.097-0.138-0.15-0.203c-0.058-0.071-0.122-0.135-0.185-0.203  c-0.077-0.083-0.155-0.162-0.238-0.239c-0.067-0.063-0.133-0.127-0.204-0.186c-0.064-0.053-0.134-0.1-0.201-0.149  c-0.093-0.068-0.188-0.131-0.285-0.191c-0.086-0.053-0.17-0.106-0.259-0.153c-0.032-0.017-0.058-0.041-0.09-0.057L311,336.896  v-26.304l10.498,4.46L306.5,279.5l-14.998,35.552l10.498-4.46v26.304l-69.513,34.756c-0.03,0.015-0.054,0.038-0.084,0.053  c-0.093,0.049-0.181,0.104-0.27,0.159c-0.096,0.06-0.188,0.122-0.279,0.188c-0.066,0.048-0.135,0.094-0.198,0.146  c-0.074,0.06-0.141,0.127-0.211,0.192c-0.082,0.076-0.159,0.154-0.235,0.236c-0.062,0.067-0.126,0.131-0.184,0.201  c-0.054,0.065-0.101,0.136-0.151,0.205c-0.068,0.093-0.131,0.188-0.192,0.286c-0.052,0.084-0.104,0.167-0.15,0.255  c-0.017,0.032-0.041,0.059-0.058,0.091c-0.02,0.041-0.028,0.083-0.047,0.124c-0.047,0.102-0.088,0.205-0.128,0.31  c-0.036,0.096-0.07,0.191-0.1,0.29c-0.026,0.086-0.049,0.171-0.07,0.257c-0.022,0.094-0.039,0.189-0.055,0.286  c-0.018,0.103-0.032,0.206-0.043,0.31c-0.01,0.102-0.016,0.202-0.019,0.304c-0.001,0.045-0.013,0.087-0.013,0.132v96.219  l-27.328,13.662l-0.706-11.383l-25.092,29.314l38.506-2.486l-8.683-7.395l27.802-13.9l69.987,34.994  c0.059,0.029,0.121,0.051,0.181,0.076c0.053,0.023,0.105,0.047,0.158,0.068c0.236,0.094,0.476,0.17,0.721,0.225  c0.043,0.008,0.088,0.014,0.132,0.021c0.271,0.051,0.546,0.084,0.821,0.084s0.55-0.033,0.821-0.084  c0.044-0.008,0.088-0.014,0.132-0.021c0.245-0.055,0.484-0.131,0.721-0.225c0.054-0.021,0.105-0.045,0.158-0.068  c0.06-0.025,0.121-0.047,0.181-0.076l69.987-34.994l27.803,13.9l-8.684,7.395L436.125,503.49z M311,414.459l63-31.5v84.438l-63-31.5  V414.459z M368.438,375.677L311,404.396v-57.438L368.438,375.677z M302,404.396l-57.438-28.719L302,346.958V404.396z M239,382.958  l63,31.5v21.438l-63,31.5V382.958z M302,445.959v57.438l-57.437-28.719L302,445.959z M311,503.396v-57.438l57.437,28.719  L311,503.396z"/>
</svg>