<?xml version="1.0" encoding="utf-8"?>
<!-- Generator: Adobe Illustrator 14.0.0, SVG Export Plug-In . SVG Version: 6.00 Build 43363)  -->
<!DOCTYPE svg PUBLIC "-//W3C//DTD SVG 1.0//EN" "http://www.w3.org/TR/2001/REC-SVG-20010904/DTD/svg10.dtd">
<svg version="1.0" id="Layer_1" xmlns="http://www.w3.org/2000/svg" xmlns:xlink="http://www.w3.org/1999/xlink" x="0px" y="0px"
	 width="28.406px" height="100px" viewBox="0 0 28.406 100" enable-background="new 0 0 28.406 100" xml:space="preserve">
<path d="M9.208,96.268c-0.007-0.017-0.013-0.035-0.021-0.051c-0.012-0.028-0.023-0.056-0.035-0.082
	c-2.725-6.13-4.073-15.17-3.52-23.646c0.562-8.615,3.181-15.866,6.966-19.964l-3.831-4.016C3.862,53.52,0.81,61.847,0.138,72.129
	c-0.623,9.524,0.892,19.394,4.05,26.401L4.21,98.52C4.671,99.397,5.579,100,6.638,100c1.52,0,2.754-1.233,2.754-2.753
	c0-0.346-0.071-0.673-0.188-0.979L9.208,96.268z"/>
<path d="M24.394,98.441c0.04-0.08,0.074-0.162,0.106-0.248c3.058-6.984,4.519-16.688,3.906-26.063
	c-0.699-10.711-3.983-19.299-9.254-24.229v-8.359l-0.033-6.292C18.794,19.902,16.185,0,16.185,0h-0.928v30.702h-1.971V0h-0.928
	c0,0-2.609,19.902-2.935,33.25l-0.032,6.292v6.961l4.895,5.133c4.263,3.878,8.018,11.575,8.624,20.854
	c0.559,8.536-0.812,17.647-3.575,23.779l0.02,0.008c-0.114,0.304-0.185,0.628-0.185,0.972c0,1.52,1.232,2.753,2.753,2.753
	c1.057,0,1.963-0.602,2.425-1.474l0.008,0.004C24.369,98.501,24.381,98.47,24.394,98.441z"/>
</svg>
