<svg xmlns="http://www.w3.org/2000/svg" xmlns:xlink="http://www.w3.org/1999/xlink" version="1.1" id="Layer_1" x="0px" y="0px" width="77.2727272727px" height="100px" viewBox="0 0 612 792" enable-background="new 0 0 612 792" xml:space="preserve">
<path d="M373.228,162.5H126.5v468h360V275.771L373.228,162.5z M378.5,193.227l77.272,77.273H378.5V193.227z M144.5,612.5v-432h216  v108h108v324H144.5z"/>
<path d="M194,324.5v18v18v144h225v-144v-18v-18H194z M203.001,396.5H248v27h-44.999V396.5z M302,396.5v27h-45v-27H302z M257,387.5  v-27h45v27H257z M203.001,432.5H248v27h-44.999V432.5z M257,432.5h45v27h-45V432.5z M302,468.5v27h-45v-27H302z M311,468.5h45v27  h-45V468.5z M311,459.5v-27h45v27H311z M365,432.5h45.001v27H365V432.5z M365,423.5v-27h45v27H365z M356,423.5h-45v-27h45V423.5z   M311,387.5v-27h45v27H311z M248,360.5v27h-44.999v-27H248z M203.001,468.5H248v27h-44.999V468.5z M365,495.5v-27h45.001v27H365z   M410,387.5h-45v-27h45V387.5z"/>
</svg>