<svg xmlns="http://www.w3.org/2000/svg" xmlns:xlink="http://www.w3.org/1999/xlink" version="1.1" id="Layer_1" x="0px" y="0px" width="77.2727272727px" height="100px" viewBox="0 0 612 792" enable-background="new 0 0 612 792" xml:space="preserve">
<path d="M373.228,162.5H126.5v468h360V275.771L373.228,162.5z M378.5,193.227l77.272,77.273H378.5V193.227z M144.5,612.5v-432h216  v108h108v324H144.5z"/>
<path fill="#000000" d="M198.5,342.5v144h216v-144H198.5z M317.582,417.619c-6.008,4.914-16.157,4.914-22.164,0L214.606,351.5  h183.787L317.582,417.619z M289.719,424.584c4.627,3.786,10.703,5.679,16.781,5.679c6.077,0,12.155-1.894,16.781-5.679  l12.617-10.322l63.238,63.238H213.864l63.239-63.238L289.719,424.584z M405.5,471.137l-62.603-62.603l62.603-51.22V471.137z   M270.103,408.534L207.5,471.137V357.314L270.103,408.534z"/>
</svg>