<svg xmlns="http://www.w3.org/2000/svg" xmlns:xlink="http://www.w3.org/1999/xlink" version="1.1" id="Layer_1" x="0px" y="0px" width="77.2727272727px" height="100px" viewBox="0 0 612 792" enable-background="new 0 0 612 792" xml:space="preserve">
<path d="M373.228,162.5H126.5v468h360V275.771L373.228,162.5z M378.5,193.227l77.272,77.273H378.5V193.227z M144.5,612.5v-432h216  v108h108v324H144.5z"/>
<path d="M410,428c-2.083,0-4.048,0.485-5.809,1.328l-42.919-42.918c2.424-3.649,3.728-7.929,3.728-12.41  c0-12.406-10.094-22.5-22.5-22.5c-4.58,0-8.842,1.379-12.399,3.738l-42.929-42.93c0.843-1.761,1.328-3.726,1.328-5.809  c0-7.456-6.044-13.5-13.5-13.5s-13.5,6.044-13.5,13.5s6.044,13.5,13.5,13.5c2.083,0,4.047-0.485,5.809-1.328l30.86,30.861  C300.08,344.911,287.667,342.5,275,342.5c-18.593,0-36.611,5.165-52.29,14.938c-4.008-3.684-9.351-5.938-15.21-5.938  c-12.406,0-22.5,10.094-22.5,22.5s10.094,22.5,22.5,22.5c12.406,0,22.5-10.094,22.5-22.5c0-3.3-0.72-6.434-2.002-9.26  c14.123-8.668,30.309-13.24,47.002-13.24c16.681,0,32.878,4.581,46.999,13.246c-1.28,2.825-1.999,5.956-1.999,9.254  c0,12.406,10.094,22.5,22.5,22.5c3.249,0,6.383-0.705,9.258-2.005C360.427,408.618,365,424.805,365,441.5  c0,12.852-2.628,25.184-7.812,36.73c-1.816-0.477-3.723-0.73-5.688-0.73c-12.406,0-22.5,10.094-22.5,22.5s10.094,22.5,22.5,22.5  S374,512.406,374,500c0-7.229-3.431-13.668-8.745-17.787C370.984,469.498,374,455.532,374,441.5c0-12.676-2.41-25.084-7.032-36.668  l30.86,30.859c-0.843,1.761-1.328,3.726-1.328,5.809c0,7.456,6.044,13.5,13.5,13.5s13.5-6.044,13.5-13.5S417.456,428,410,428z   M207.5,387.5c-7.444,0-13.5-6.056-13.5-13.5s6.056-13.5,13.5-13.5S221,366.556,221,374S214.944,387.5,207.5,387.5z M351.5,513.5  c-7.444,0-13.5-6.056-13.5-13.5s6.056-13.5,13.5-13.5S365,492.556,365,500S358.944,513.5,351.5,513.5z M329,374  c0-7.444,6.056-13.5,13.5-13.5S356,366.556,356,374c0,3.606-1.404,6.997-3.953,9.546c-2.551,2.55-5.939,3.954-9.547,3.954  C335.056,387.5,329,381.444,329,374z"/>
</svg>