<svg xmlns="http://www.w3.org/2000/svg" xmlns:xlink="http://www.w3.org/1999/xlink" version="1.1" id="Layer_1" x="0px" y="0px" width="100px" height="100px" viewBox="0 0 100 100" enable-background="new 0 0 100 100" xml:space="preserve">
<g>
	<path d="M45.936,57.943l-4.062,5.363c0.512,0.62,1.059,1.184,1.631,1.698L45.936,57.943z"/>
	<path d="M58.062,76.095L55.4,68.363c-1.667,0.942-3.484,1.488-5.4,1.488s-3.732-0.546-5.4-1.488l-2.661,7.731   c2.479,1.448,5.194,2.293,8.062,2.293S55.582,77.543,58.062,76.095z"/>
	<path d="M32.281,33.597l5.487,5.525c1.133-1.811,2.579-3.286,4.302-4.375l-2.777-8.122C36.297,28.319,33.991,30.741,32.281,33.597z   "/>
	<path d="M56.496,65.004c0.572-0.515,1.12-1.077,1.631-1.697l-4.062-5.362L56.496,65.004z"/>
	<path d="M50,34.62c-2.072,0-3.838,0.397-5.357,1.068l5.326,15.581L50,51.285l0.031-0.016l5.327-15.581   C53.838,35.018,52.072,34.62,50,34.62z"/>
	<path d="M49.504,54l-4.213,12.296C46.75,67.199,48.335,67.77,50,67.77s3.25-0.585,4.709-1.488L50.496,54H49.504z"/>
	<path d="M63.979,71.031l-4.552-6.011c-0.686,0.779-1.42,1.49-2.199,2.11l2.67,7.752C61.364,73.795,62.733,72.497,63.979,71.031z"/>
	<path d="M72.211,78.411l3.179,4.194c3.435-3.653,6.509-7.887,8.783-12.584l-4.957-2.382C77.357,71.558,74.988,75.228,72.211,78.411   z"/>
	<path d="M83.369,54c-0.578,4-1.708,7.927-3.306,11.692l4.967,2.358C86.879,63.711,88.02,59,88.132,54H83.369z"/>
	<path d="M40.574,65.021l-4.553,6.011c1.245,1.466,2.615,2.764,4.082,3.852l2.669-7.752C41.992,66.511,41.26,65.8,40.574,65.021z"/>
	<path d="M84.279,35.97c0.006-0.83,0-1.606-0.008-2.327l1.736-0.894c-0.9-3.843-2.112-7.502-3.704-10.863l-3.816,3.843   c0.777,1.392,1.462,2.843,2.061,4.338c-0.664,0.297-1.317,0.606-1.965,0.922c-0.498-1.256-1.052-2.483-1.684-3.661l-6.624,6.668   c0.229,0.441,0.444,0.889,0.65,1.343c-0.598,0.388-1.182,0.781-1.757,1.176c-0.142-0.328-0.261-0.668-0.414-0.989l-4.948,4.984   c-7.595,6.113-12.162,11.763-12.162,11.763s3.798,8.016,10.463,12.795l3.216,4.247c0.428-0.588,0.833-1.2,1.223-1.822   c0.655,0.249,1.325,0.463,2.016,0.63c-0.611,0.997-1.258,1.969-1.957,2.884l4.349,5.739c2.523-2.97,4.684-6.375,6.389-10.009   l-0.096-0.046c4.011-3.595,5.787-11.929,6.534-19.899c0.012,0.481,0.036,0.934,0.036,1.415c0,1.263-0.067,2.792-0.193,3.792h4.522   c-0.062-6-0.565-11.674-1.68-17.186L84.279,35.97z M76.33,61.178c-0.993,1.121-2.106,1.707-3.403,1.794   c-0.318,0.021-0.636,0.032-0.945,0.032c-8.741,0-11.764-8.986-12.46-11.619c1.504-2.62,7.906-12.555,21.359-18.28   C81.309,41.151,81.045,55.854,76.33,61.178z"/>
	<path d="M27.787,78.411c-2.775-3.184-5.145-6.853-7.004-10.771l-4.955,2.382c2.273,4.697,5.348,8.931,8.782,12.584L27.787,78.411z"/>
	<path d="M33.395,71.008c-0.699-0.915-1.346-1.887-1.957-2.884c0.691-0.167,1.361-0.381,2.016-0.63   c0.391,0.622,0.795,1.234,1.223,1.822l3.217-4.248c6.666-4.779,10.464-12.794,10.464-12.794s-4.567-5.649-12.163-11.763   l-4.948-4.983c-0.153,0.32-0.272,0.661-0.413,0.989c-0.576-0.396-1.159-0.789-1.757-1.177c0.204-0.454,0.421-0.902,0.649-1.343   l-6.623-6.669c-0.633,1.179-1.187,2.406-1.685,3.662c-0.647-0.316-1.302-0.625-1.966-0.922c0.599-1.495,1.283-2.946,2.062-4.338   l-3.818-3.843c-1.59,3.361-2.803,7.021-3.703,10.863l1.734,0.894c-0.008,0.72-0.011,1.496-0.008,2.326l-2.186-1.155   C12.42,40.326,11.916,46,11.854,52h4.522c-0.126-1-0.192-2.529-0.192-3.792c0-0.481,0.023-0.95,0.037-1.433   c0.744,7.971,2.521,16.314,6.533,19.909l-0.096,0.05c1.704,3.634,3.864,7.041,6.389,10.012L33.395,71.008z M28.018,63.004   c-0.309,0-0.626-0.011-0.944-0.032c-1.298-0.087-2.411-0.673-3.403-1.794c-4.715-5.324-4.978-20.026-4.551-28.073   c13.459,5.728,19.859,15.667,21.361,18.286C39.795,54.052,36.828,63.004,28.018,63.004C28.018,63.004,28.019,63.004,28.018,63.004z   "/>
	<path d="M11.868,54c0.112,5,1.253,9.739,3.102,14.079l4.966-2.415C18.338,61.898,17.207,58,16.631,54H11.868z"/>
	<path d="M75.808,25.451c-2.674-4.271-6.351-7.851-11.206-10.216l-3.222,9.419c3.324,1.804,5.897,4.403,7.818,7.452L75.808,25.451z"/>
	<path d="M36.677,12.388c3.815-1.467,8.229-2.301,13.323-2.301c5.095,0,9.509,0.834,13.325,2.301l2.452-7.177   C61.351,3.286,56.139,2.198,50,2.198S38.65,3.286,34.223,5.21L36.677,12.388z"/>
	<path d="M65.289,13.221c5.222,2.448,9.191,6.176,12.086,10.652l3.933-3.958C78.156,14.06,73.733,9.257,67.713,6.132L65.289,13.221z   "/>
	<path d="M22.625,23.873c2.895-4.476,6.863-8.204,12.086-10.652l-2.424-7.089c-6.02,3.125-10.443,7.928-13.594,13.783L22.625,23.873   z"/>
	<path d="M70.764,79.989c-2.173,2.245-4.563,4.195-7.13,5.748l1.833,5.325c2.847-1.921,5.724-4.251,8.435-6.931L70.764,79.989z"/>
	<path d="M50,32.566c2.211,0,4.229,0.412,6.024,1.174l2.756-8.061c-2.502-1.052-5.41-1.65-8.78-1.65   c-3.369,0-6.279,0.599-8.779,1.65l2.756,8.061C45.771,32.978,47.789,32.566,50,32.566z"/>
	<path d="M36.367,85.737c-2.568-1.552-4.957-3.501-7.131-5.748l-3.139,4.143c2.711,2.68,5.589,5.01,8.436,6.931L36.367,85.737z"/>
	<path d="M61.746,86.796c-3.64,1.859-7.592,2.922-11.746,2.922c-4.155,0-8.106-1.062-11.746-2.922l-1.879,5.46   C41.637,95.504,46.623,97.3,50,97.3s8.363-1.796,13.625-5.044L61.746,86.796z"/>
	<path d="M69.519,78.345l-4.285-5.657c-1.417,1.608-2.973,3.029-4.646,4.202l2.367,6.874C65.316,82.291,67.516,80.456,69.519,78.345   z"/>
	<path d="M57.249,36.736l-3.857,11.288l7.313-7.365C59.843,39.114,58.705,37.766,57.249,36.736z"/>
	<path d="M42.75,36.736c-1.455,1.029-2.594,2.378-3.455,3.923l7.314,7.364L42.75,36.736z"/>
	<path d="M61.075,84.849l-2.34-6.798c-2.692,1.513-5.632,2.391-8.735,2.391s-6.044-0.878-8.734-2.391l-2.341,6.799   c3.429,1.789,7.155,2.814,11.075,2.814S57.646,86.639,61.075,84.849z"/>
	<path d="M67.718,33.597c-1.708-2.856-4.015-5.278-7.011-6.971l-2.777,8.122c1.723,1.089,3.169,2.564,4.302,4.375L67.718,33.597z"/>
	<path d="M37.357,14.38l3.199,9.357c2.701-1.12,5.83-1.762,9.443-1.762c3.612,0,6.741,0.642,9.443,1.762l3.199-9.356   c-3.609-1.427-7.799-2.239-12.643-2.239S40.969,12.953,37.357,14.38z"/>
	<path d="M37.047,83.765l2.365-6.875c-1.672-1.173-3.229-2.593-4.646-4.202l-4.285,5.658C32.484,80.456,34.685,82.291,37.047,83.765   z"/>
	<path d="M24.191,25.451l6.609,6.655c1.922-3.049,4.496-5.648,7.818-7.452l-3.221-9.42C30.542,17.6,26.867,21.179,24.191,25.451z"/>
</g>
</svg>