<svg xmlns="http://www.w3.org/2000/svg" xmlns:xlink="http://www.w3.org/1999/xlink" version="1.1" id="Layer_1" x="0px" y="0px" width="100px" height="100px" viewBox="0 0 100 100" enable-background="new 0 0 100 100" xml:space="preserve">
<g>
	<g>
		<path d="M21.829,63.426C21.292,61.203,21,58.886,21,56.5C21,40.233,34.233,27,50.5,27c16.246,0,29.465,13.2,29.498,29.439    c1.981,0.615,3.951,1.462,5.906,2.527C85.961,58.151,86,57.33,86,56.5C86,36.925,70.075,21,50.5,21S15,36.925,15,56.5    c0,3.383,0.485,6.651,1.373,9.752C18.06,65.124,19.883,64.153,21.829,63.426z"/>
	</g>
</g>
<g>
	<g>
		<path d="M4.997,91.712c-0.463,0-0.934-0.108-1.373-0.335c-1.471-0.76-2.049-2.566-1.291-4.038    c0.374-0.726,9.32-17.795,23.768-20.051c6.681-1.041,13.29,1.213,19.686,6.708c3.714-4.398,12.062-12.585,23.491-13.695    c9.341-0.906,18.548,3.092,27.344,11.889c1.172,1.171,1.172,3.07,0,4.242s-3.07,1.172-4.242,0    c-7.456-7.455-15.016-10.875-22.486-10.162c-12.565,1.199-21.171,13.708-21.256,13.834L46.6,83.111l-2.571-2.564    c-5.725-5.725-11.442-8.192-16.985-7.333c-11.43,1.771-19.3,16.726-19.378,16.876C7.132,91.12,6.083,91.712,4.997,91.712z"/>
	</g>
</g>
<g>
	<path d="M84.003,37.334c-0.694,0-1.369-0.362-1.738-1.008c-0.548-0.959-0.215-2.181,0.744-2.729l4.666-2.667   c0.959-0.549,2.182-0.214,2.729,0.744c0.548,0.959,0.215,2.181-0.744,2.729l-4.666,2.667C84.681,37.25,84.339,37.334,84.003,37.334   z"/>
</g>
<g>
	<path d="M67.17,22.423c-0.291,0-0.586-0.063-0.864-0.198c-0.996-0.478-1.416-1.673-0.938-2.668l2.326-4.845   c0.479-0.996,1.679-1.414,2.668-0.937c0.996,0.478,1.416,1.673,0.938,2.668l-2.326,4.845C68.63,22.005,67.914,22.423,67.17,22.423z   "/>
</g>
<g>
	<path d="M45.628,18.671c-1.005,0-1.872-0.756-1.985-1.779l-0.595-5.341c-0.122-1.098,0.668-2.086,1.767-2.209   c1.107-0.117,2.087,0.669,2.209,1.767l0.595,5.341c0.122,1.098-0.668,2.086-1.767,2.209C45.777,18.667,45.702,18.671,45.628,18.671   z"/>
</g>
<g>
	<path d="M24.139,27.991c-0.544,0-1.087-0.221-1.482-0.657l-3.609-3.98c-0.742-0.818-0.68-2.083,0.138-2.825   c0.818-0.741,2.083-0.681,2.825,0.138l3.609,3.98c0.742,0.818,0.68,2.083-0.138,2.825C25.099,27.82,24.619,27.991,24.139,27.991z"/>
</g>
<g>
	<path d="M11.945,46.639c-0.157,0-0.317-0.019-0.476-0.058l-5.22-1.275c-1.073-0.262-1.73-1.345-1.468-2.417   c0.262-1.073,1.347-1.73,2.417-1.468l5.22,1.275c1.073,0.262,1.73,1.345,1.468,2.417C13.663,46.027,12.845,46.639,11.945,46.639z"/>
</g>
</svg>