<svg xmlns:dc="http://purl.org/dc/elements/1.1/" xmlns:cc="http://creativecommons.org/ns#" xmlns:rdf="http://www.w3.org/1999/02/22-rdf-syntax-ns#" xmlns:svg="http://www.w3.org/2000/svg" xmlns="http://www.w3.org/2000/svg" xmlns:sodipodi="http://sodipodi.sourceforge.net/DTD/sodipodi-0.dtd" xmlns:inkscape="http://www.inkscape.org/namespaces/inkscape" width="99.220001" height="100" id="svg2" version="1.1" inkscape:version="0.48.3.1 r9886" sodipodi:docname="oriental_pearl.svg">
  <defs id="defs4"/>
  <sodipodi:namedview id="base" pagecolor="#ffffff" bordercolor="#666666" borderopacity="1.0" inkscape:pageopacity="0.0" inkscape:pageshadow="2" inkscape:zoom="4.0168406" inkscape:cx="30.861611" inkscape:cy="51.962987" inkscape:document-units="px" inkscape:current-layer="svg2" showgrid="false" inkscape:window-width="1366" inkscape:window-height="744" inkscape:window-x="0" inkscape:window-y="24" inkscape:window-maximized="1" fit-margin-top="0" fit-margin-left="0" fit-margin-right="0" fit-margin-bottom="0"/>
  <metadata id="metadata7">
    <rdf:RDF>
      <cc:Work rdf:about="">
        <dc:format>image/svg+xml</dc:format>
        <dc:type rdf:resource="http://purl.org/dc/dcmitype/StillImage"/>
        <dc:title/>
      </cc:Work>
    </rdf:RDF>
  </metadata>
  <g inkscape:groupmode="layer" id="layer2" inkscape:label="tour" transform="translate(-307.14834,-704.29019)">
    <path style="color:#000000;fill:#000000;fill-opacity:1;fill-rule:nonzero;stroke:none;stroke-width:0.1;marker:none;visibility:visible;display:inline;overflow:visible;enable-background:accumulate" d="m 356.23023,735.62445 1.93734,0 0.14446,2.57198 -2.23428,0 z" id="rect4032" inkscape:connector-curvature="0" sodipodi:nodetypes="ccccc"/>
    <rect style="color:#000000;fill:#000000;fill-opacity:1;fill-rule:nonzero;stroke:none;stroke-width:0.1;marker:none;visibility:visible;display:inline;overflow:visible;enable-background:accumulate" id="rect4037" width="1.8321234" height="4.569901" x="356.27884" y="730.66162"/>
    <path sodipodi:type="arc" style="color:#000000;fill:#000000;fill-opacity:1;fill-rule:nonzero;stroke:none;stroke-width:0.1;marker:none;visibility:visible;display:inline;overflow:visible;enable-background:accumulate" id="path4039" sodipodi:cx="781.19659" sodipodi:cy="376.49545" sodipodi:rx="9.9174242" sodipodi:ry="9.9174242" d="m 791.11402,376.49545 a 9.9174242,9.9174242 0 1 1 -19.83485,0 9.9174242,9.9174242 0 1 1 19.83485,0 z" transform="matrix(0.16072192,0,0,0.17495901,231.63947,663.53387)"/>
    <rect style="color:#000000;fill:#000000;fill-opacity:1;fill-rule:nonzero;stroke:none;stroke-width:0.1;marker:none;visibility:visible;display:inline;overflow:visible;enable-background:accumulate" id="rect4041" width="1.6855537" height="0.62046045" x="356.35211" y="727.38397"/>
    <rect style="color:#000000;fill:#000000;fill-opacity:1;fill-rule:nonzero;stroke:none;stroke-width:0.1;marker:none;visibility:visible;display:inline;overflow:visible;enable-background:accumulate" id="rect4043" width="0.86116266" height="5.4768615" x="356.76431" y="721.88184"/>
    <rect style="color:#000000;fill:#000000;fill-opacity:1;fill-rule:nonzero;stroke:none;stroke-width:0.1;marker:none;visibility:visible;display:inline;overflow:visible;enable-background:accumulate" id="rect4045" width="1.2043898" height="0.52986097" x="356.59271" y="721.43347"/>
    <rect style="color:#000000;fill:#000000;fill-opacity:1;fill-rule:nonzero;stroke:none;stroke-width:0.1;marker:none;visibility:visible;display:inline;overflow:visible;enable-background:accumulate" id="rect4043-0" width="0.58153206" height="5.834166" x="356.90414" y="715.534"/>
    <rect style="color:#000000;fill:#000000;fill-opacity:1;fill-rule:nonzero;stroke:none;stroke-width:0.1;marker:none;visibility:visible;display:inline;overflow:visible;enable-background:accumulate" id="rect4045-8" width="1.2043898" height="0.52986097" x="356.59271" y="715.27112"/>
    <rect style="color:#000000;fill:#000000;fill-opacity:1;fill-rule:nonzero;stroke:none;stroke-width:0.1;marker:none;visibility:visible;display:inline;overflow:visible;enable-background:accumulate" id="rect4043-0-0" width="0.72134733" height="6.3751111" x="356.83423" y="708.8562"/>
    <rect style="color:#000000;fill:#000000;fill-opacity:1;fill-rule:nonzero;stroke:none;stroke-width:0.1;marker:none;visibility:visible;display:inline;overflow:visible;enable-background:accumulate" id="rect4043-0-0-1" width="0.52102846" height="4.527144" x="356.93439" y="704.29016"/>
  </g>
  <path transform="matrix(0.15158999,0,0,0.16501815,-36.468031,-61.070048)" d="m 602.14287,605.2193 a 31.428572,31.428572 0 1 1 -62.85715,0 31.428572,31.428572 0 1 1 62.85715,0 z" sodipodi:ry="31.428572" sodipodi:rx="31.428572" sodipodi:cy="605.2193" sodipodi:cx="570.71429" id="use3767" style="color:#000000;fill:#000000;fill-opacity:1;stroke:none;stroke-width:1;marker:none;visibility:visible;display:inline;overflow:visible;enable-background:accumulate" sodipodi:type="arc"/>
  <path style="color:#000000;fill:#000000;fill-opacity:1;stroke:none;stroke-width:1;marker:none;visibility:visible;display:inline;overflow:visible;enable-background:accumulate" d="m 50.044029,73.90601 c -2.959522,0 -5.387818,2.464001 -5.655402,5.609624 l 11.315828,0 C 55.436895,76.369983 53.00357,73.90601 50.044029,73.90601 z m -5.655402,6.76326 c 0.267584,3.145623 2.69588,5.609624 5.655402,5.609624 2.959541,0 5.392866,-2.463973 5.660426,-5.609624 l -11.315828,0 z" id="path3785" inkscape:connector-curvature="0"/>
  <path sodipodi:type="arc" style="color:#000000;fill:#000000;fill-opacity:1;stroke:none;stroke-width:1;marker:none;visibility:visible;display:inline;overflow:visible;enable-background:accumulate" id="path2997" sodipodi:cx="570.71429" sodipodi:cy="605.2193" sodipodi:rx="31.428572" sodipodi:ry="31.428572" d="m 602.14287,605.2193 a 31.428572,31.428572 0 1 1 -62.85715,0 31.428572,31.428572 0 1 1 62.85715,0 z" transform="matrix(0.17116222,0,0,0.18527365,-47.638182,-32.038739)"/>
  <rect style="color:#000000;fill:#000000;fill-opacity:1;fill-rule:nonzero;stroke:none;stroke-width:0.1;marker:none;visibility:visible;display:inline;overflow:visible;enable-background:accumulate" id="rect3812" width="1.6298519" height="17.439114" x="47.387314" y="82.56086"/>
  <rect y="82.56086" x="51.075924" height="17.439114" width="1.6298519" id="rect3814" style="color:#000000;fill:#000000;fill-opacity:1;fill-rule:nonzero;stroke:none;stroke-width:0.1;marker:none;visibility:visible;display:inline;overflow:visible;enable-background:accumulate"/>
  <rect style="color:#000000;fill:#000000;fill-opacity:1;fill-rule:nonzero;stroke:none;stroke-width:0.1;marker:none;visibility:visible;display:inline;overflow:visible;enable-background:accumulate" id="rect3850" width="3.688612" height="1.4361567" x="48.111664" y="72.273888"/>
  <path style="color:#000000;fill:#000000;fill-opacity:1;fill-rule:nonzero;stroke:none;stroke-width:0.1;marker:none;visibility:visible;display:inline;overflow:visible;enable-background:accumulate" d="m 46.241591,83.316601 -1.803099,7.151449 c -0.478171,0.129519 -0.882541,0.52204 -1.03967,1.071625 -0.167528,0.585964 -0.0083,1.198253 0.366647,1.601968 l -1.692602,6.724987 1.692602,0 1.612242,-6.402406 c 0.02273,-0.01089 0.04311,-0.02615 0.06529,-0.03827 l 4.113477,6.440679 0.974376,0 4.1185,-6.440679 c 0.02219,0.01213 0.04256,0.02739 0.06529,0.03827 l 1.612241,6.402406 1.692603,0 -1.692603,-6.724987 c 0.375289,-0.403709 0.534258,-1.015718 0.366647,-1.601968 -0.157128,-0.549585 -0.561498,-0.942106 -1.03967,-1.071625 l -1.803099,-7.151449 -1.572061,0.464735 1.838257,7.310006 c -0.254907,0.390061 -0.346687,0.901864 -0.205925,1.394205 0.04937,0.172696 0.122891,0.326652 0.21597,0.464734 l -4.078315,6.380537 -4.083341,-6.380537 c 0.09308,-0.138082 0.166596,-0.292038 0.21597,-0.464734 0.140762,-0.492341 0.04898,-1.004144 -0.205925,-1.394205 l 1.838257,-7.310006 -1.572062,-0.464735 z" id="path3858" inkscape:connector-curvature="0"/>
  <rect y="42.516201" x="47.387314" height="32.397968" width="1.6298519" id="rect3930" style="color:#000000;fill:#000000;fill-opacity:1;fill-rule:nonzero;stroke:none;stroke-width:0.1;marker:none;visibility:visible;display:inline;overflow:visible;enable-background:accumulate"/>
  <rect style="color:#000000;fill:#000000;fill-opacity:1;fill-rule:nonzero;stroke:none;stroke-width:0.1;marker:none;visibility:visible;display:inline;overflow:visible;enable-background:accumulate" id="rect3932" width="1.6298519" height="32.397968" x="51.075924" y="42.516201"/>
  <path sodipodi:type="arc" style="color:#000000;fill:#000000;fill-opacity:1;fill-rule:nonzero;stroke:none;stroke-width:0.1;marker:none;visibility:visible;display:inline;overflow:visible;enable-background:accumulate" id="path3858-3" sodipodi:cx="636.20294" sodipodi:cy="692.63" sodipodi:rx="9.0733633" sodipodi:ry="9.0733633" d="m 645.27631,692.63 a 9.0733633,9.0733633 0 1 1 -18.14673,0 9.0733633,9.0733633 0 1 1 18.14673,0 z" transform="matrix(0.11111652,0.03764601,-0.03458261,0.12095946,3.3068457,-39.887645)"/>
  <rect y="67.047592" x="48.11166" height="1.4361567" width="3.688612" id="rect3936" style="color:#000000;fill:#000000;fill-opacity:1;fill-rule:nonzero;stroke:none;stroke-width:0.1;marker:none;visibility:visible;display:inline;overflow:visible;enable-background:accumulate"/>
  <path transform="matrix(0.11111652,0.03764601,-0.03458261,0.12095946,3.3068457,-45.061608)" d="m 645.27631,692.63 a 9.0733633,9.0733633 0 1 1 -18.14673,0 9.0733633,9.0733633 0 1 1 18.14673,0 z" sodipodi:ry="9.0733633" sodipodi:rx="9.0733633" sodipodi:cy="692.63" sodipodi:cx="636.20294" id="path3981" style="color:#000000;fill:#000000;fill-opacity:1;fill-rule:nonzero;stroke:none;stroke-width:0.1;marker:none;visibility:visible;display:inline;overflow:visible;enable-background:accumulate" sodipodi:type="arc"/>
  <rect style="color:#000000;fill:#000000;fill-opacity:1;fill-rule:nonzero;stroke:none;stroke-width:0.1;marker:none;visibility:visible;display:inline;overflow:visible;enable-background:accumulate" id="rect3983" width="3.688612" height="1.4361567" x="48.11166" y="61.873631"/>
  <path sodipodi:type="arc" style="color:#000000;fill:#000000;fill-opacity:1;fill-rule:nonzero;stroke:none;stroke-width:0.1;marker:none;visibility:visible;display:inline;overflow:visible;enable-background:accumulate" id="path3987" sodipodi:cx="636.20294" sodipodi:cy="692.63" sodipodi:rx="9.0733633" sodipodi:ry="9.0733633" d="m 645.27631,692.63 a 9.0733633,9.0733633 0 1 1 -18.14673,0 9.0733633,9.0733633 0 1 1 18.14673,0 z" transform="matrix(0.11111652,0.03764601,-0.03458261,0.12095946,3.3068457,-50.235566)"/>
  <rect y="56.699669" x="48.11166" height="1.4361567" width="3.688612" id="rect3989" style="color:#000000;fill:#000000;fill-opacity:1;fill-rule:nonzero;stroke:none;stroke-width:0.1;marker:none;visibility:visible;display:inline;overflow:visible;enable-background:accumulate"/>
  <path transform="matrix(0.11111652,0.03764601,-0.03458261,0.12095946,3.3068457,-55.40953)" d="m 645.27631,692.63 a 9.0733633,9.0733633 0 1 1 -18.14673,0 9.0733633,9.0733633 0 1 1 18.14673,0 z" sodipodi:ry="9.0733633" sodipodi:rx="9.0733633" sodipodi:cy="692.63" sodipodi:cx="636.20294" id="path3993" style="color:#000000;fill:#000000;fill-opacity:1;fill-rule:nonzero;stroke:none;stroke-width:0.1;marker:none;visibility:visible;display:inline;overflow:visible;enable-background:accumulate" sodipodi:type="arc"/>
  <rect style="color:#000000;fill:#000000;fill-opacity:1;fill-rule:nonzero;stroke:none;stroke-width:0.1;marker:none;visibility:visible;display:inline;overflow:visible;enable-background:accumulate" id="rect3995" width="3.688612" height="1.4361567" x="48.11166" y="51.525703"/>
  <path sodipodi:type="arc" style="color:#000000;fill:#000000;fill-opacity:1;fill-rule:nonzero;stroke:none;stroke-width:0.1;marker:none;visibility:visible;display:inline;overflow:visible;enable-background:accumulate" id="path3999" sodipodi:cx="636.20294" sodipodi:cy="692.63" sodipodi:rx="9.0733633" sodipodi:ry="9.0733633" d="m 645.27631,692.63 a 9.0733633,9.0733633 0 1 1 -18.14673,0 9.0733633,9.0733633 0 1 1 18.14673,0 z" transform="matrix(0.11111652,0.03764601,-0.03458261,0.12095946,3.3068457,-60.583485)"/>
  <rect y="46.351749" x="48.11166" height="1.4361567" width="3.688612" id="rect4001" style="color:#000000;fill:#000000;fill-opacity:1;fill-rule:nonzero;stroke:none;stroke-width:0.1;marker:none;visibility:visible;display:inline;overflow:visible;enable-background:accumulate"/>
  <rect style="color:#000000;fill:#000000;fill-opacity:1;fill-rule:nonzero;stroke:none;stroke-width:0.1;marker:none;visibility:visible;display:inline;overflow:visible;enable-background:accumulate" id="rect4035" width="2.3817604" height="0.51854837" x="48.855667" y="30.958588"/>
</svg>