<svg xmlns="http://www.w3.org/2000/svg" xmlns:xlink="http://www.w3.org/1999/xlink" version="1.1" id="Layer_1" x="0px" y="0px" width="100px" height="100px" viewBox="0 0 100 100" enable-background="new 0 0 100 100" xml:space="preserve">
<path d="M91.547,57.615V42.387l-9.308-1.56c-0.714-2.511-1.709-4.902-2.955-7.136l5.479-7.685L73.995,15.238l-7.687,5.48  c-2.232-1.247-4.623-2.242-7.135-2.955l-1.56-9.311H42.386l-1.56,9.311c-2.511,0.713-4.901,1.707-7.133,2.954l-7.688-5.48  L15.238,26.005l5.479,7.685c-1.246,2.234-2.241,4.625-2.956,7.137l-9.308,1.56v15.228l9.308,1.56  c0.714,2.512,1.709,4.902,2.955,7.136l-5.479,7.685l10.769,10.769l7.686-5.48c2.233,1.247,4.624,2.242,7.135,2.955l1.56,9.311  h15.229l1.56-9.311c2.511-0.712,4.901-1.707,7.134-2.953l7.687,5.48l10.769-10.769l-5.479-7.684  c1.248-2.235,2.242-4.625,2.957-7.137L91.547,57.615z M50,70.203c-11.157,0-20.206-9.046-20.206-20.203S38.843,29.797,50,29.797  S70.206,38.843,70.206,50S61.157,70.203,50,70.203z"/>
</svg>