<svg xmlns="http://www.w3.org/2000/svg" xmlns:xlink="http://www.w3.org/1999/xlink" version="1.1" id="Your_Icon" x="0px" y="0px" width="100px" height="100px" viewBox="0 0 100 100" enable-background="new 0 0 100 100" xml:space="preserve">
<path d="M89.637,45.443c-1.113-0.084-2.32,0.692-2.54,2.52c-0.624,5.148-10.195,7.5-11.999-1.362  c-0.893-4.39-2.747-8.233-7.814-13.462c-5.228-5.066-9.07-6.921-13.462-7.815c-8.863-1.804-6.51-11.374-1.361-11.997  c1.827-0.222,2.604-1.429,2.52-2.54c-13.822-2.68-28.683,1.333-39.387,12.038c-17.123,17.122-17.123,44.883,0,62.006  c17.122,17.124,44.884,17.124,62.005,0C88.304,74.126,92.314,59.265,89.637,45.443z M27.395,73.028  c-10.604-10.604-10.604-27.797,0-38.402c10.604-10.604,27.797-10.604,38.402,0c10.604,10.604,10.604,27.798,0,38.402  C55.191,83.633,38,83.633,27.395,73.028z"/>
<path d="M63.913,36.509c-9.564-9.565-25.071-9.565-34.636,0c-9.564,9.564-9.565,25.072,0,34.635c9.565,9.565,25.071,9.565,34.636,0  C73.478,61.581,73.479,46.074,63.913,36.509z M60.892,39.532c1.268,1.267,1.268,3.321,0,4.588c-1.267,1.267-3.322,1.268-4.589,0  c-1.268-1.268-1.268-3.321,0-4.588C57.569,38.265,59.625,38.265,60.892,39.532z M35.799,41.641c-1.267-1.266-1.268-3.321,0-4.588  c1.267-1.267,3.321-1.267,4.588,0c1.267,1.267,1.267,3.322,0,4.588C39.12,42.909,37.066,42.909,35.799,41.641z M27.759,58.859  c-1.267-1.269-1.267-3.321,0-4.59s3.321-1.269,4.588,0c1.268,1.269,1.267,3.321,0,4.59C31.08,60.125,29.026,60.125,27.759,58.859z   M39.749,60.674c-3.781-3.781-3.781-9.913,0-13.693c3.781-3.782,9.912-3.782,13.693,0c3.78,3.78,3.78,9.912,0,13.693  C49.661,64.454,43.53,64.454,39.749,60.674z M42.251,73.352c-1.267-1.27-1.268-3.322,0-4.591c1.268-1.266,3.322-1.266,4.589,0  c1.267,1.269,1.267,3.321,0,4.591C45.572,74.616,43.518,74.616,42.251,73.352z M63.587,64.84c-1.268,1.267-3.322,1.267-4.59,0  c-1.269-1.266-1.269-3.32,0-4.588c1.268-1.269,3.322-1.269,4.59,0C64.853,61.518,64.853,63.574,63.587,64.84z"/>
<path d="M53.619,8.639c0,0,4.126,0.331,3.042,3.624c-0.531,1.613-2.041,2.703-3.976,2.937c-1.146,0.139-2.192,1.119-2.669,2.498  c-0.534,1.548-0.21,3.114,0.866,4.19c0.761,0.761,1.876,1.295,3.315,1.588c5.229,1.063,9.396,3.466,14.42,8.33  c4.863,5.023,7.267,9.191,8.33,14.42c0.293,1.439,0.828,2.555,1.588,3.316c1.076,1.075,2.643,1.398,4.19,0.864  c1.378-0.476,2.359-1.524,2.498-2.669c0.232-1.934,1.324-3.443,2.937-3.973c3.294-1.084,3.623,3.04,3.623,3.04  c0.757,4.354,0.491,7.189,0.491,7.189s4.09-2.043,4.723-4.583c1.046-4.21-0.018-11.981-1.233-16.552  c-1.572-5.904-5.634-12.352-10.739-17.458C79.917,10.292,73.471,6.232,67.565,4.66c-4.57-1.218-12.34-2.281-16.551-1.234  c-2.541,0.632-4.584,4.722-4.584,4.722S49.266,7.881,53.619,8.639z"/>
</svg>