<svg xmlns="http://www.w3.org/2000/svg" xmlns:xlink="http://www.w3.org/1999/xlink" version="1.1" id="Your_Icon" x="0px" y="0px" width="100px" height="100px" viewBox="0 0 100 100" enable-background="new 0 0 100 100" xml:space="preserve">
<circle cx="67.761" cy="45.825" r="17.834"/>
<path d="M84.858,66.454H50.663c-6.317,0-11.437,5.12-11.437,11.437V99h8.961V84.511c0-0.984,0.798-1.784,1.783-1.784  c0.985,0,1.783,0.8,1.783,1.784V99h32.012V84.511c0-0.984,0.799-1.784,1.783-1.784c0.985,0,1.784,0.8,1.784,1.784V99h8.961V77.891  C96.294,71.574,91.174,66.454,84.858,66.454z"/>
<circle cx="25.629" cy="24.706" r="12.595"/>
<rect x="23.846" y="39.122" width="2.757" height="8.862"/>
<rect x="23.846" y="1.535" width="2.757" height="8.86"/>
<rect x="2" y="23.38" width="8.861" height="2.758"/>
<rect x="39.587" y="23.38" width="8.86" height="2.758"/>
<rect x="7.504" y="10.092" transform="matrix(0.707 0.7072 -0.7072 0.707 11.6083 -5.0799)" width="8.861" height="2.757"/>
<rect x="34.083" y="36.669" transform="matrix(0.7071 0.7071 -0.7071 0.7071 38.184 -16.0886)" width="8.86" height="2.757"/>
<rect x="10.556" y="33.618" transform="matrix(-0.7071 -0.7071 0.7071 -0.7071 -6.5295 73.3911)" width="2.757" height="8.86"/>
<rect x="37.134" y="7.039" transform="matrix(0.7071 0.7071 -0.7071 0.7071 19.3903 -23.8733)" width="2.757" height="8.861"/>
</svg>