<svg xmlns="http://www.w3.org/2000/svg" xmlns:xlink="http://www.w3.org/1999/xlink" version="1.1" id="Your_Icon" x="0px" y="0px" width="100px" height="100px" viewBox="0 0 100 100" enable-background="new 0 0 100 100" xml:space="preserve">
<path d="M98.746,75.69H67.418v-4.27v-2.543v-0.28H46.229l-3.174-8.805l-2.656,0.959l3.157,8.757v1.912v4.27H31.556V38.009  c3.126,0.487,4.692,2.92,4.692,2.92s1.612-3.167,5.428-3.167c3.818,0,5.345,3.167,5.345,3.167s1.696-3.167,5.429-3.082  c3.732,0.085,5.837,3.082,5.837,3.082c-0.403-14.721-12.093-26.623-26.731-27.345V12.87c0,0-0.256-1.094-1.412-1.094  c-1.155,0-1.412,1.094-1.412,1.094v0.714C14.094,14.307,2.402,26.208,2,40.929c0,0,2.104-2.997,5.837-3.082  c3.732-0.085,5.429,3.082,5.429,3.082s1.527-3.167,5.344-3.167s5.429,3.167,5.429,3.167s1.565-2.434,4.692-2.92V75.69H2v5.646h8.152  V94h5.646V81.336h69.229V94h5.646V81.336h8.072V75.69z M46.38,71.421h18.214v4.27H46.38V71.421z"/>
</svg>