<svg xmlns="http://www.w3.org/2000/svg" xmlns:xlink="http://www.w3.org/1999/xlink" version="1.1" id="Preisschild" x="0px" y="0px" width="100px" height="100px" viewBox="0 0 100 100" enable-background="new 0 0 100 100" xml:space="preserve">
<g>
	<g>
		<path fill="#000000" d="M98.326,63.758L36.243,1.671c-1.157-1.156-2.684-1.713-4.199-1.669L5.842,0.008    c-1.61,0-3.062,0.664-4.101,1.732C0.672,2.779,0.01,4.233,0.01,5.841L0.002,32.042c-0.042,1.515,0.515,3.043,1.67,4.199    l62.086,62.086c2.231,2.23,5.851,2.23,8.083,0l13.243-13.243l13.243-13.245C100.56,69.608,100.56,65.988,98.326,63.758z     M21.35,21.348c-2.232,2.232-5.851,2.232-8.083,0c-2.232-2.231-2.232-5.851,0-8.082c2.232-2.234,5.852-2.234,8.083,0    C23.581,15.497,23.581,19.117,21.35,21.348z"/>
	</g>
</g>
</svg>