<svg xmlns="http://www.w3.org/2000/svg" xmlns:xlink="http://www.w3.org/1999/xlink" version="1.1" id="Your_Icon" x="0px" y="0px" width="100px" height="100px" viewBox="0 0 100 100" enable-background="new 0 0 100 100" xml:space="preserve">
<circle cx="53.5" cy="28.5" r="5.5"/>
<path d="M63,38c0-1.657-1.344-3-3-3H47c-1.657,0-3,1.343-3,3c0,0.085,0.018,0.166,0.025,0.25C44.011,38.332,44,38.415,44,38.5v16  c0,0.828,0.671,1.5,1.5,1.5s1.5-0.672,1.5-1.5V41h1v13.5V56v19.5c0,1.381,1.119,2.5,2.5,2.5s2.5-1.119,2.5-2.5V56h1v19.5  c0,1.381,1.119,2.5,2.5,2.5s2.5-1.119,2.5-2.5V56v-1.5V41h1v13.5c0,0.828,0.672,1.5,1.5,1.5s1.5-0.672,1.5-1.5v-16  c0-0.085-0.012-0.168-0.025-0.25C62.982,38.166,63,38.085,63,38z"/>
<polygon points="70,45 70,80 35,80 35,2 22,2 22,97 35,97 35,86 70,86 76,86 76,80 76,45 "/>
</svg>