<svg xmlns="http://www.w3.org/2000/svg" xmlns:xlink="http://www.w3.org/1999/xlink" version="1.1" id="Ebene_1" x="0px" y="0px" width="100px" height="100px" viewBox="0 0 100 100" enable-background="new 0 0 100 100" xml:space="preserve">
<path d="M94.16,33.73c-10.471-2.51-21.28-2.94-31.469-1.02c-3.521,0.66-6.98,1.99-10.41,2.29c-5.52,0.47-9.15-1.37-13.7-2.29  c-10.19-2.05-22.13-2.02-31.98,0.51c0,1.94,0.15,3.74,0.51,5.33c0.17,0.67,0.93,0.74,1.27,1.01c1.93,1.58,2.07,6.33,2.79,9.14  c1.1,4.36,2.8,7.979,6.12,9.97c6.12,3.65,21.65,1.79,25.92-7.09c0.44-1.24,3.16-8.85,5.01-11c0.71-0.83,3.71-0.72,4.44-0.05  c2.479,3.92,2.88,8.38,5.46,11.72c5.05,6.54,11.52,8.391,16.75,8.38c3.309-0.009,7.58-0.53,9.898-2.03  C90.02,55.2,89.02,46.7,91.62,40.58c0.29-0.81,1.8-0.41,2.04-1.27C94,37.68,94.35,35.08,94.16,33.73z M11.082,36.828  c-1.133,0-2.051-0.367-2.051-0.82c0-0.453,0.918-0.82,2.051-0.82s2.051,0.367,2.051,0.82C13.133,36.461,12.215,36.828,11.082,36.828  z M83.5,56.82c-2.41,1.58-7.529,1.85-11.42,1.529c-3.87-0.32-6.13-2.039-8.391-3.471l-3.029-3.641c-1.09-1.689-1.7-3.519-2.28-5.839  c-0.688-2.72-1.56-6.7,0.5-8.63c1.649-1.54,7.42-2.77,11.17-3.04c7.54-0.56,16.46,0.28,17.511,6.09  C88.561,45.31,86.689,54.75,83.5,56.82z M40.12,51.33c-1.48,2.46-7.07,6.34-11.19,6.76c-4.56,0.471-10.083-0.537-12.093-3.007  c-1.994-1.228-3.978-9.093-3.897-12.723c0.17-7.38,4.31-7.523,11.93-8.443c5.76-0.69,16.21,0.713,17.77,3.613  C44.8,41.56,40.12,51.33,40.12,51.33z M90.082,37.828c-1.133,0-2.051-0.367-2.051-0.82c0-0.453,0.918-0.82,2.051-0.82  s2.051,0.367,2.051,0.82C92.133,37.461,91.215,37.828,90.082,37.828z M40.12,51.33c-1.48,2.46-7.07,6.34-11.19,6.76  c-4.56,0.471-10.083-0.537-12.093-3.007c-0.842-1.032-3.324-10.125-0.671-15.75c2.18-4.621,8.386-5.379,8.704-5.417  c5.76-0.69,16.21,0.713,17.77,3.613C44.8,41.56,40.12,51.33,40.12,51.33z M83.5,56.82c-2.41,1.58-7.529,1.85-11.42,1.529  c-3.87-0.32-6.13-2.039-8.391-3.471l-3.029-3.641c-1.09-1.689-1.7-3.519-2.28-5.839c-0.688-2.72-1.56-6.7,0.5-8.63  c1.649-1.54,7.42-2.77,11.17-3.04c7.54-0.56,16.46,0.28,17.511,6.09C88.561,45.31,86.689,54.75,83.5,56.82z"/>
</svg>