<?xml version="1.0" encoding="utf-8"?>
<!-- Generator: Adobe Illustrator 14.0.0, SVG Export Plug-In . SVG Version: 6.00 Build 43363)  -->
<!DOCTYPE svg PUBLIC "-//W3C//DTD SVG 1.0//EN" "http://www.w3.org/TR/2001/REC-SVG-20010904/DTD/svg10.dtd">
<svg version="1.0" id="Layer_1" xmlns="http://www.w3.org/2000/svg" xmlns:xlink="http://www.w3.org/1999/xlink" x="0px" y="0px"
	 width="100px" height="62.188px" viewBox="0 0 100 62.188" enable-background="new 0 0 100 62.188" xml:space="preserve">
<path d="M88.051,58.042c2.362-1.581,3.919-4.271,3.919-7.327c0-1.903-0.609-3.659-1.635-5.1h5.074V16.59h-9.584V4.154H77.51V16.59
	H62.118v-6.415c0-0.449-2.368-3.845-6.235-3.846c-3.866,0.001-6.235,3.396-6.235,3.846v6.415H26.765V6.227V0H5.952v6.227H20.52
	v22.225H8.024v-7.717H1.841v7.717v17.164h11.764c-1.025,1.44-1.635,3.196-1.635,5.1c0,3.056,1.557,5.746,3.919,7.327H0v4.146h100
	v-4.146H88.051z M59.146,45.616h16.838c-1.025,1.44-1.636,3.196-1.636,5.1c0,3.056,1.557,5.746,3.92,7.327H56.86
	c2.363-1.581,3.92-4.271,3.92-7.327C60.78,48.812,60.171,47.056,59.146,45.616z M29.591,50.715c0-1.903-0.609-3.659-1.634-5.1
	h16.836c-1.025,1.44-1.634,3.196-1.634,5.1c0,3.056,1.557,5.746,3.919,7.327H25.672C28.035,56.461,29.591,53.771,29.591,50.715z"/>
</svg>
