<svg xmlns="http://www.w3.org/2000/svg" xmlns:xlink="http://www.w3.org/1999/xlink" version="1.1" x="0px" y="0px" width="100px" height="100px" viewBox="0 0 100 100" enable-background="new 0 0 100 100" xml:space="preserve">
<g id="Captions">
</g>
<g id="Cookies">
	<path d="M98.723,33.989c-1.355-0.95-3.225-0.619-4.174,0.737c0.949-1.356,0.621-3.224-0.732-4.173   c-1.357-0.948-3.223-0.619-4.172,0.735c0.949-1.354,0.619-3.222-0.734-4.169c-1.357-0.95-3.225-0.621-4.174,0.733   c0.949-1.354,0.619-3.222-0.734-4.171c-1.355-0.948-3.223-0.618-4.17,0.737c0.947-1.355,0.619-3.223-0.738-4.172   c-1.354-0.949-3.223-0.62-4.17,0.735c0.947-1.355,0.621-3.221-0.734-4.17s-3.223-0.621-4.172,0.734   c0.949-1.355,0.621-3.222-0.736-4.171c-1.355-0.948-3.221-0.618-4.17,0.735c-0.949,1.355-0.621,3.223,0.736,4.17   c-1.357-0.948-3.225-0.619-4.172,0.738c-0.949,1.354-0.621,3.222,0.736,4.169c-1.357-0.949-3.223-0.618-4.172,0.735   c-0.949,1.355-0.621,3.223,0.734,4.171c-1.355-0.948-3.223-0.619-4.172,0.736c-0.947,1.355-0.619,3.223,0.736,4.172   c-1.355-0.949-3.221-0.621-4.172,0.734c-0.949,1.354-0.618,3.222,0.738,4.17c-1.356-0.949-3.223-0.618-4.173,0.737   c-0.164,0.234-0.276,0.486-0.365,0.743c0.685-0.076,1.395-0.03,2.069,0.183c1.043,0.329,1.931,0.975,2.556,1.849   c0.979-0.341,2.116-0.375,3.158-0.047c1.068,0.337,1.943,1.002,2.552,1.849c0.979-0.342,2.118-0.376,3.16-0.048   c1.067,0.337,1.943,1.002,2.552,1.85c0.979-0.343,2.118-0.377,3.162-0.047c0.312,0.098,0.604,0.229,0.88,0.378   c0.027-0.064,0.042-0.132,0.084-0.192c0.318-0.453,0.941-0.564,1.395-0.246c0.451,0.316,0.563,0.939,0.246,1.391   c-0.073,0.105-0.166,0.188-0.267,0.254c1.04,1.262,1.449,3.005,0.924,4.678c-0.336,1.063-0.996,1.948-1.851,2.562   c0.357,1.014,0.377,2.11,0.048,3.153c-0.335,1.062-0.994,1.946-1.849,2.56c0.356,1.013,0.377,2.109,0.048,3.152   c-0.335,1.062-0.994,1.947-1.849,2.561c0.356,1.014,0.376,2.109,0.047,3.152c-0.334,1.062-0.993,1.947-1.849,2.561   c0.357,1.014,0.377,2.109,0.048,3.152c-0.334,1.062-0.993,1.946-1.849,2.56c0.356,1.014,0.377,2.11,0.048,3.152   c-0.036,0.116-0.091,0.221-0.135,0.332c1.036,0.097,2.094-0.339,2.732-1.253c-0.947,1.355-0.619,3.225,0.736,4.174   c1.355,0.947,3.223,0.617,4.172-0.736c0.947-1.354,0.617-3.223-0.736-4.17c1.354,0.947,3.221,0.619,4.172-0.736   c0.947-1.354,0.619-3.223-0.734-4.17c1.354,0.947,3.221,0.617,4.17-0.736c0.947-1.355,0.619-3.221-0.736-4.17   c1.355,0.949,3.223,0.618,4.172-0.738c0.947-1.355,0.619-3.223-0.734-4.171c1.354,0.948,3.221,0.62,4.17-0.733   c0.947-1.357,0.619-3.223-0.734-4.172c1.354,0.949,3.221,0.619,4.17-0.736c0.947-1.354,0.619-3.223-0.734-4.17   c1.354,0.947,3.221,0.618,4.17-0.735c0.947-1.356,0.619-3.224-0.734-4.172c1.354,0.948,3.221,0.618,4.168-0.735   c0.951-1.355,0.621-3.223-0.732-4.172c1.354,0.949,3.221,0.621,4.17-0.734s0.619-3.223-0.736-4.172   c1.355,0.949,3.223,0.62,4.172-0.735C100.406,36.806,100.078,34.938,98.723,33.989z M59.566,39.435   c-0.314,0.453-0.939,0.563-1.393,0.247s-0.563-0.941-0.246-1.394c0.318-0.452,0.941-0.563,1.395-0.246   C59.773,38.359,59.883,38.984,59.566,39.435z M65.432,72.831c-0.318,0.455-0.939,0.564-1.395,0.248   c-0.451-0.318-0.561-0.938-0.244-1.393c0.318-0.455,0.939-0.563,1.393-0.243C65.637,71.761,65.748,72.378,65.432,72.831z    M78.027,30.469c0.318-0.454,0.939-0.563,1.395-0.246c0.453,0.317,0.563,0.939,0.246,1.393c-0.318,0.452-0.941,0.563-1.393,0.246   C77.82,31.543,77.713,30.92,78.027,30.469z M75.986,35.13c0.453,0.316,0.563,0.938,0.246,1.392   c-0.316,0.452-0.939,0.563-1.393,0.245c-0.453-0.316-0.561-0.939-0.246-1.392C74.91,34.921,75.533,34.811,75.986,35.13z    M73.123,27.032c0.316-0.451,0.939-0.559,1.393-0.243c0.453,0.316,0.561,0.938,0.246,1.39c-0.318,0.454-0.941,0.565-1.393,0.247   C72.916,28.108,72.807,27.486,73.123,27.032z M72.553,40.037c0.449,0.317,0.561,0.939,0.244,1.392   c-0.318,0.453-0.941,0.561-1.395,0.245c-0.453-0.317-0.563-0.939-0.244-1.392C71.475,39.829,72.098,39.719,72.553,40.037z    M61.592,34.801c-0.453-0.315-0.563-0.938-0.248-1.392c0.316-0.452,0.943-0.56,1.395-0.244s0.561,0.939,0.244,1.391   C62.666,35.009,62.045,35.119,61.592,34.801z M64.475,42.871c-0.316,0.452-0.939,0.563-1.393,0.246s-0.564-0.941-0.248-1.394   c0.316-0.452,0.941-0.561,1.395-0.244C64.682,41.795,64.791,42.419,64.475,42.871z M65.027,29.895   c-0.453-0.315-0.563-0.939-0.246-1.391c0.316-0.453,0.941-0.561,1.393-0.245c0.451,0.317,0.561,0.939,0.244,1.392   S65.479,30.211,65.027,29.895z M67.891,37.992c-0.32,0.453-0.941,0.562-1.395,0.246c-0.449-0.315-0.563-0.939-0.246-1.393   c0.316-0.452,0.941-0.561,1.395-0.243C68.098,36.918,68.207,37.54,67.891,37.992z M68.461,24.99   c-0.449-0.316-0.561-0.941-0.244-1.393s0.939-0.56,1.391-0.244c0.453,0.317,0.563,0.939,0.246,1.392   C69.535,25.195,68.914,25.306,68.461,24.99z M69.934,33.331c-0.451-0.315-0.564-0.94-0.248-1.392   c0.318-0.452,0.941-0.561,1.393-0.243c0.453,0.315,0.564,0.938,0.248,1.389C71.008,33.537,70.387,33.648,69.934,33.331z    M68.865,67.927c-0.316,0.455-0.938,0.563-1.389,0.244c-0.453-0.316-0.564-0.939-0.248-1.395c0.316-0.45,0.941-0.559,1.395-0.242   C69.076,66.852,69.184,67.474,68.865,67.927z M69.439,54.923c-0.453-0.316-0.563-0.941-0.244-1.395   c0.313-0.449,0.938-0.559,1.393-0.242c0.451,0.316,0.561,0.939,0.244,1.391C70.516,55.13,69.893,55.239,69.439,54.923z    M72.301,63.021c-0.314,0.451-0.939,0.561-1.391,0.244c-0.453-0.316-0.563-0.939-0.246-1.393s0.939-0.563,1.393-0.244   C72.51,61.944,72.617,62.567,72.301,63.021z M72.893,49.989c-0.453-0.316-0.559-0.939-0.242-1.394   c0.314-0.452,0.938-0.563,1.391-0.245c0.451,0.316,0.561,0.939,0.246,1.393C73.969,50.196,73.346,50.306,72.893,49.989z    M75.738,58.11c-0.318,0.453-0.941,0.566-1.391,0.248c-0.455-0.316-0.564-0.94-0.248-1.394c0.316-0.451,0.939-0.561,1.395-0.243   C75.945,57.038,76.053,57.661,75.738,58.11z M76.311,45.11c-0.453-0.318-0.563-0.939-0.246-1.393s0.939-0.563,1.391-0.246   c0.455,0.316,0.564,0.939,0.248,1.393C77.385,45.317,76.762,45.426,76.311,45.11z M79.193,53.178   c-0.318,0.453-0.939,0.563-1.393,0.247c-0.453-0.318-0.563-0.941-0.244-1.395c0.316-0.451,0.939-0.563,1.393-0.244   C79.4,52.103,79.508,52.726,79.193,53.178z M79.746,40.204c-0.451-0.318-0.564-0.941-0.244-1.394   c0.316-0.453,0.938-0.562,1.393-0.245c0.451,0.317,0.561,0.939,0.244,1.392C80.822,40.41,80.199,40.521,79.746,40.204z    M82.607,48.3c-0.314,0.453-0.938,0.564-1.389,0.246c-0.455-0.318-0.564-0.941-0.248-1.395c0.316-0.451,0.939-0.561,1.393-0.243   C82.816,47.224,82.926,47.847,82.607,48.3z M83.184,35.298c-0.455-0.317-0.564-0.942-0.248-1.394s0.939-0.561,1.393-0.244   c0.451,0.316,0.563,0.938,0.246,1.391C84.258,35.503,83.633,35.614,83.184,35.298z M86.045,43.393   c-0.316,0.452-0.939,0.563-1.393,0.247c-0.453-0.317-0.563-0.941-0.244-1.395c0.316-0.451,0.939-0.562,1.393-0.244   C86.254,42.317,86.361,42.94,86.045,43.393z M89.48,38.486c-0.318,0.452-0.939,0.564-1.391,0.247   c-0.455-0.317-0.564-0.941-0.248-1.393c0.318-0.453,0.939-0.562,1.393-0.246C89.688,37.411,89.797,38.034,89.48,38.486z"/>
	<path d="M66.174,46.882c-1.577-0.498-3.26,0.377-3.756,1.955c0.496-1.577-0.38-3.258-1.957-3.756   c-1.577-0.497-3.26,0.378-3.756,1.955c0.496-1.577-0.379-3.258-1.956-3.755s-3.26,0.377-3.757,1.955   c0.498-1.577-0.378-3.259-1.957-3.756c-1.577-0.497-3.26,0.378-3.757,1.955c0.497-1.576-0.377-3.258-1.956-3.755   c-1.577-0.498-3.26,0.377-3.757,1.955c0.497-1.577-0.378-3.258-1.956-3.756c-1.578-0.497-3.259,0.378-3.756,1.955   c0.497-1.577-0.379-3.258-1.957-3.756c-1.577-0.497-3.26,0.378-3.757,1.955c0.497-1.577-0.378-3.258-1.956-3.756   c-1.577-0.497-3.26,0.378-3.757,1.955c0.498-1.577-0.377-3.259-1.956-3.756c-1.577-0.497-3.26,0.378-3.757,1.955   c0.498-1.577-0.378-3.258-1.955-3.756c-1.578-0.497-3.259,0.378-3.756,1.956c-0.498,1.578,0.378,3.26,1.956,3.757   c-1.578-0.497-3.26,0.378-3.757,1.956c-0.497,1.578,0.378,3.26,1.956,3.757c-1.577-0.498-3.259,0.379-3.756,1.955   c-0.498,1.578,0.378,3.26,1.955,3.757C7.78,47.311,6.097,48.186,5.6,49.764c-0.498,1.578,0.379,3.259,1.956,3.756   c-1.577-0.497-3.259,0.378-3.756,1.956c-0.498,1.577,0.378,3.26,1.955,3.757c-1.577-0.497-3.259,0.378-3.756,1.956   s0.378,3.26,1.955,3.757c-1.577-0.497-3.259,0.378-3.756,1.956c-0.498,1.578,0.378,3.259,1.955,3.756   c1.578,0.498,3.26-0.377,3.757-1.955c-0.497,1.578,0.378,3.26,1.957,3.757c1.578,0.497,3.259-0.378,3.756-1.956   c-0.497,1.578,0.379,3.26,1.956,3.757c1.578,0.498,3.26-0.378,3.757-1.956c-0.497,1.578,0.378,3.261,1.956,3.758   c1.578,0.497,3.26-0.378,3.758-1.956c-0.498,1.578,0.377,3.26,1.955,3.757c1.578,0.498,3.259-0.378,3.756-1.956   c-0.497,1.578,0.379,3.26,1.956,3.758c1.578,0.497,3.259-0.379,3.757-1.956c-0.498,1.577,0.379,3.26,1.956,3.757   c1.578,0.497,3.26-0.379,3.757-1.956c-0.498,1.577,0.378,3.26,1.955,3.758c1.578,0.497,3.259-0.379,3.757-1.956   c-0.498,1.577,0.378,3.259,1.956,3.757c1.578,0.497,3.259-0.379,3.757-1.956c-0.498,1.577,0.379,3.259,1.956,3.757   c1.577,0.497,3.261-0.378,3.757-1.955c0.498-1.578-0.378-3.259-1.957-3.757c1.579,0.498,3.261-0.378,3.759-1.956   s-0.38-3.261-1.957-3.758c1.577,0.497,3.261-0.377,3.758-1.955c0.498-1.577-0.379-3.259-1.956-3.757   c1.577,0.498,3.26-0.377,3.757-1.956c0.498-1.577-0.378-3.259-1.955-3.756c1.577,0.497,3.26-0.379,3.757-1.956   s-0.378-3.261-1.957-3.758c1.579,0.497,3.26-0.377,3.758-1.955c0.498-1.577-0.379-3.26-1.956-3.757   c1.577,0.497,3.26-0.379,3.758-1.956C68.626,49.061,67.751,47.379,66.174,46.882z M51.094,51.547   c0.166-0.527,0.726-0.817,1.253-0.652c0.529,0.166,0.819,0.726,0.653,1.253c-0.165,0.526-0.726,0.819-1.255,0.653   C51.218,52.635,50.926,52.074,51.094,51.547z M49.292,57.259c0.166-0.526,0.728-0.817,1.253-0.651   c0.529,0.167,0.82,0.727,0.654,1.253c-0.167,0.528-0.727,0.819-1.255,0.653C49.418,58.348,49.125,57.787,49.292,57.259z    M45.381,49.746c0.166-0.527,0.727-0.818,1.254-0.652c0.526,0.166,0.819,0.727,0.653,1.254S46.56,51.166,46.033,51   C45.506,50.834,45.215,50.273,45.381,49.746z M43.58,55.458c0.166-0.526,0.727-0.818,1.253-0.652   c0.527,0.166,0.82,0.728,0.654,1.254c-0.167,0.527-0.729,0.819-1.256,0.653C43.705,56.548,43.413,55.985,43.58,55.458z    M39.668,47.944c0.166-0.527,0.727-0.817,1.252-0.652c0.527,0.167,0.821,0.727,0.655,1.253c-0.167,0.528-0.729,0.82-1.256,0.655   C39.794,49.034,39.502,48.472,39.668,47.944z M37.867,53.656c0.166-0.525,0.727-0.817,1.252-0.651   c0.527,0.166,0.82,0.727,0.655,1.253c-0.166,0.528-0.729,0.819-1.256,0.653C37.993,54.746,37.701,54.185,37.867,53.656z    M33.922,46.133c0.166-0.527,0.728-0.818,1.254-0.652c0.527,0.166,0.82,0.727,0.654,1.254c-0.167,0.527-0.728,0.819-1.255,0.653   C34.049,47.222,33.756,46.66,33.922,46.133z M32.122,51.846c0.166-0.525,0.728-0.818,1.254-0.653   c0.526,0.167,0.819,0.729,0.653,1.255c-0.166,0.527-0.728,0.818-1.254,0.652C32.248,52.934,31.955,52.373,32.122,51.846z    M28.243,44.342c0.166-0.527,0.727-0.818,1.253-0.652c0.528,0.166,0.82,0.726,0.654,1.252c-0.167,0.528-0.728,0.82-1.255,0.654   C28.368,45.43,28.076,44.87,28.243,44.342z M26.442,50.056c0.166-0.527,0.727-0.819,1.253-0.653   c0.528,0.167,0.819,0.727,0.653,1.253c-0.166,0.528-0.727,0.819-1.254,0.653C26.567,51.143,26.276,50.582,26.442,50.056z    M22.53,42.541c0.166-0.527,0.727-0.818,1.254-0.652c0.526,0.166,0.82,0.727,0.654,1.254c-0.166,0.527-0.728,0.82-1.255,0.653   C22.655,43.629,22.364,43.068,22.53,42.541z M20.729,48.253c0.166-0.526,0.727-0.818,1.254-0.652   c0.526,0.166,0.82,0.728,0.654,1.254c-0.167,0.527-0.729,0.82-1.256,0.653C20.854,49.342,20.562,48.781,20.729,48.253z    M16.818,40.74c0.166-0.527,0.727-0.818,1.254-0.652c0.526,0.166,0.819,0.725,0.653,1.252c-0.166,0.529-0.728,0.82-1.254,0.654   C16.943,41.829,16.652,41.267,16.818,40.74z M15.017,46.453c0.166-0.526,0.727-0.819,1.253-0.653   c0.526,0.166,0.819,0.728,0.653,1.253c-0.167,0.528-0.729,0.82-1.255,0.654S14.851,46.98,15.017,46.453z M11.52,64.192   c-0.166,0.524-0.728,0.818-1.254,0.652c-0.527-0.166-0.817-0.729-0.652-1.254c0.166-0.526,0.727-0.818,1.254-0.652   C11.393,63.104,11.686,63.665,11.52,64.192z M13.32,58.479c-0.166,0.526-0.728,0.818-1.254,0.652s-0.817-0.728-0.651-1.254   c0.165-0.527,0.726-0.818,1.252-0.652S13.487,57.952,13.32,58.479z M15.123,52.767c-0.167,0.528-0.729,0.817-1.255,0.653   c-0.527-0.166-0.819-0.727-0.652-1.255c0.166-0.527,0.727-0.819,1.254-0.653C14.995,51.678,15.289,52.239,15.123,52.767z    M17.231,65.992c-0.166,0.525-0.727,0.819-1.254,0.653s-0.817-0.729-0.652-1.254c0.166-0.526,0.727-0.818,1.253-0.652   C17.105,64.905,17.397,65.467,17.231,65.992z M19.033,60.28c-0.166,0.524-0.728,0.819-1.254,0.653s-0.816-0.729-0.65-1.254   c0.166-0.526,0.725-0.819,1.251-0.653C18.906,59.192,19.198,59.753,19.033,60.28z M20.834,54.567   c-0.167,0.528-0.728,0.819-1.254,0.653s-0.819-0.726-0.652-1.255c0.167-0.527,0.727-0.818,1.254-0.652   C20.708,53.479,21.001,54.04,20.834,54.567z M22.944,67.794c-0.166,0.526-0.727,0.818-1.254,0.654   c-0.526-0.166-0.817-0.73-0.652-1.256c0.166-0.525,0.727-0.818,1.253-0.652C22.819,66.707,23.11,67.268,22.944,67.794z    M24.745,62.082c-0.166,0.524-0.727,0.819-1.254,0.652c-0.526-0.166-0.817-0.729-0.651-1.254c0.166-0.527,0.726-0.818,1.252-0.652   C24.62,60.994,24.911,61.555,24.745,62.082z M26.547,56.369c-0.167,0.528-0.727,0.818-1.254,0.652s-0.819-0.726-0.653-1.254   c0.167-0.527,0.727-0.819,1.254-0.653C26.422,55.282,26.712,55.842,26.547,56.369z M28.625,69.586   c-0.166,0.525-0.728,0.818-1.255,0.652c-0.526-0.166-0.818-0.729-0.653-1.254c0.166-0.526,0.728-0.819,1.254-0.653   C28.499,68.496,28.791,69.059,28.625,69.586z M30.426,63.872c-0.166,0.526-0.728,0.82-1.255,0.653   c-0.526-0.165-0.818-0.729-0.652-1.255c0.166-0.527,0.727-0.818,1.253-0.652C30.299,62.784,30.592,63.345,30.426,63.872z    M32.227,58.16c-0.167,0.526-0.727,0.818-1.253,0.652c-0.526-0.166-0.82-0.727-0.653-1.254c0.166-0.526,0.728-0.818,1.253-0.653   C32.101,57.072,32.393,57.633,32.227,58.16z M34.37,71.396c-0.166,0.525-0.728,0.819-1.255,0.653   c-0.526-0.166-0.817-0.729-0.652-1.254c0.166-0.527,0.728-0.818,1.253-0.654C34.244,70.31,34.536,70.87,34.37,71.396z    M36.171,65.685c-0.166,0.524-0.729,0.818-1.255,0.652c-0.526-0.166-0.817-0.728-0.651-1.255c0.166-0.525,0.726-0.817,1.252-0.652   C36.045,64.597,36.337,65.157,36.171,65.685z M37.973,59.972c-0.167,0.528-0.728,0.818-1.255,0.652   c-0.526-0.166-0.819-0.726-0.652-1.254c0.167-0.527,0.728-0.819,1.254-0.653C37.846,58.883,38.14,59.444,37.973,59.972z    M40.083,73.198c-0.166,0.525-0.729,0.818-1.255,0.652s-0.818-0.729-0.652-1.254c0.167-0.526,0.728-0.819,1.254-0.653   S40.249,72.672,40.083,73.198z M41.884,67.485c-0.166,0.525-0.729,0.819-1.254,0.653s-0.817-0.729-0.651-1.256   c0.167-0.525,0.726-0.817,1.252-0.651S42.05,66.958,41.884,67.485z M43.686,61.772c-0.167,0.528-0.729,0.819-1.255,0.653   c-0.526-0.167-0.819-0.727-0.653-1.255c0.167-0.527,0.728-0.818,1.254-0.652C43.559,60.684,43.853,61.245,43.686,61.772z    M45.795,74.999c-0.166,0.525-0.726,0.819-1.254,0.653c-0.526-0.166-0.818-0.729-0.652-1.255c0.166-0.525,0.729-0.818,1.254-0.652   C45.671,73.911,45.961,74.473,45.795,74.999z M47.596,69.286c-0.166,0.525-0.727,0.819-1.254,0.653   c-0.526-0.166-0.818-0.729-0.652-1.255c0.166-0.527,0.728-0.817,1.252-0.651C47.471,68.199,47.762,68.759,47.596,69.286z    M49.397,63.574c-0.166,0.527-0.726,0.819-1.254,0.651c-0.526-0.166-0.819-0.725-0.653-1.253c0.167-0.527,0.728-0.819,1.254-0.653   C49.273,62.485,49.563,63.047,49.397,63.574z M51.508,76.801c-0.165,0.525-0.728,0.818-1.255,0.652s-0.817-0.729-0.651-1.254   c0.167-0.526,0.725-0.819,1.253-0.653C51.382,75.712,51.674,76.273,51.508,76.801z M53.308,71.087   c-0.165,0.525-0.726,0.819-1.253,0.653s-0.816-0.729-0.65-1.254c0.166-0.527,0.725-0.818,1.252-0.652S53.474,70.561,53.308,71.087z    M55.109,65.375c-0.166,0.528-0.726,0.818-1.253,0.652c-0.527-0.167-0.817-0.726-0.651-1.253s0.726-0.819,1.253-0.653   S55.277,64.848,55.109,65.375z M56.911,59.662c-0.166,0.527-0.726,0.818-1.255,0.652c-0.527-0.166-0.815-0.726-0.649-1.254   c0.165-0.526,0.724-0.818,1.251-0.652C56.787,58.575,57.077,59.136,56.911,59.662z M58.713,53.949   c-0.166,0.527-0.726,0.819-1.255,0.653c-0.527-0.166-0.817-0.727-0.65-1.255c0.166-0.526,0.725-0.817,1.252-0.651   C58.589,52.863,58.879,53.423,58.713,53.949z"/>
</g>
</svg>