<svg xmlns:dc="http://purl.org/dc/elements/1.1/" xmlns:cc="http://creativecommons.org/ns#" xmlns:rdf="http://www.w3.org/1999/02/22-rdf-syntax-ns#" xmlns:svg="http://www.w3.org/2000/svg" xmlns="http://www.w3.org/2000/svg" xmlns:sodipodi="http://sodipodi.sourceforge.net/DTD/sodipodi-0.dtd" xmlns:inkscape="http://www.inkscape.org/namespaces/inkscape" width="100" height="100" viewBox="0 0 80 80" version="1.1" id="svg2" inkscape:version="0.48.2 r9819" sodipodi:docname="bee.svg">
  <metadata id="metadata12">
    <rdf:RDF>
      <cc:Work rdf:about="">
        <dc:format>image/svg+xml</dc:format>
        <dc:type rdf:resource="http://purl.org/dc/dcmitype/StillImage"/>
      </cc:Work>
    </rdf:RDF>
  </metadata>
  <defs id="defs10"/>
  <sodipodi:namedview pagecolor="#ffffff" bordercolor="#666666" borderopacity="1" objecttolerance="10" gridtolerance="10" guidetolerance="10" inkscape:pageopacity="0" inkscape:pageshadow="2" inkscape:window-width="1342" inkscape:window-height="480" id="namedview8" showgrid="false" inkscape:zoom="2.1321989" inkscape:cx="175.54449" inkscape:cy="32.789635" inkscape:window-x="0" inkscape:window-y="0" inkscape:window-maximized="0" inkscape:current-layer="svg2"/>
  <path style="fill:#010101;stroke:#010101;stroke-width:0.01150807" d="m 50.239624,13.4773 c -1.190702,0.429635 -2.39368,0.896095 -3.326601,1.779916 -1.399381,0.90837 -2.393678,2.344577 -3.952639,3.007442 -0.638314,0.18413 -1.092499,0.687416 -1.681713,0.969748 -0.920645,-0.110478 -1.841292,-0.294607 -2.761938,-0.282332 -0.626038,0.03683 -1.031123,0.687416 -1.608061,0.822444 -1.055674,-0.405084 -2.025421,-0.994297 -3.081094,-1.411657 -1.374832,-0.503286 -2.418231,-1.608062 -3.658034,-2.344578 -1.018848,-0.675141 -2.123622,-1.546686 -3.424802,-1.252079 0.159579,0.41736 0.282332,0.908371 0.687415,1.166152 0.785618,0.540112 1.706264,0.871545 2.467331,1.460759 0.945197,0.724241 1.927219,1.411656 3.019718,1.902667 0.478736,0.282331 1.104776,0.41736 1.423933,0.920646 -0.392809,0.491011 -0.810168,0.957472 -0.945197,1.595786 -0.282331,0.0982 -0.564662,0.196405 -0.859269,0.294607 -0.0491,0.797893 -0.491011,1.620337 -0.306881,2.430505 0.454185,0.88382 0.797892,1.829017 0.662865,2.835589 -0.576939,-0.245505 -1.190703,-0.46646 -1.681714,-0.871545 -0.23323,0.159579 -0.466461,0.306882 -0.69969,0.466461 -0.171854,-0.368259 -0.331433,-0.724241 -0.478736,-1.0925 -0.785618,-0.343708 -1.460759,-0.932921 -1.97632,-1.620337 0.110477,-0.184129 0.245505,-0.331432 0.392809,-0.491011 -0.01227,-0.0982 -0.02455,-0.20868 -0.02455,-0.306882 -0.711966,0.08593 -1.423932,0.06138 -2.135899,0.01228 -0.343707,-0.920645 -0.613763,-1.878117 -1.092499,-2.749662 -0.564663,-0.65059 -1.276629,-1.153876 -1.988595,-1.644887 -1.399382,-0.552388 -2.565533,-1.571236 -3.97719,-2.123623 0.02455,0.306882 0.06138,0.613763 0.0982,0.920645 -0.282331,0.135029 -0.552387,0.282332 -0.822443,0.41736 0,0.07365 -0.01228,0.220955 -0.01228,0.294607 0.846994,0.196405 1.55896,0.736517 2.369129,1.067949 0.748792,0.257781 1.288904,0.846994 1.914944,1.30118 0.883819,1.178426 1.411657,2.577807 1.534409,4.038566 1.006573,0.552387 1.620336,1.546685 2.381404,2.356853 0.576938,0.491012 1.374831,0.626039 1.902668,1.166152 0.343707,0.380534 0.871545,0.355983 1.32573,0.515561 0.552387,0.135029 0.626039,0.810169 0.761067,1.27663 -2.786485,-0.306888 -5.376568,-1.448489 -8.089406,-2.049977 -1.902667,-0.589213 -3.805335,-1.276629 -5.806205,-1.423932 -2.074522,-0.46646 -4.16132,-0.994298 -6.297218,-1.0925 -1.779916,-0.171854 -3.5843818,-0.270056 -5.3520215,0.03683 -1.0433987,0.171854 -2.0622467,0.613763 -2.8478645,1.32573 -0.1964046,0.208679 -0.5401123,0.380534 -0.5155618,0.724241 -0.1595786,1.313455 0.306882,2.577809 0.9083706,3.71941 1.0311234,1.067948 1.9640445,2.258651 3.2038476,3.105645 1.0925,0.69969 2.1481738,1.53441 3.4370786,1.841291 0.945196,0.270057 1.927218,0.06138 2.872414,-0.07365 0.07365,0.417359 0.02455,0.88382 0.233231,1.264354 0.785618,0.748792 1.829017,1.11705 2.774213,1.620336 0.822443,0.355983 1.571235,0.957471 2.504156,0.994297 0.44191,0.06138 0.748792,0.454186 1.153877,0.613765 1.1416,0.392808 2.356853,0.797892 3.572105,0.49101 1.951769,-0.441909 3.71941,-1.399381 5.572976,-2.111347 0.810169,-0.761067 1.76764,-1.374832 2.847865,-1.693988 1.018848,-0.491012 2.025421,-1.006574 3.105645,-1.313455 0.196405,0.392808 0.380534,0.810168 0.540113,1.215253 -0.638315,0.196404 -1.313456,0.306881 -1.939494,0.552387 -0.540112,0.282331 -0.662865,0.920645 -1.006573,1.374831 -0.88382,0.282331 -1.841292,0.343708 -2.712837,0.736516 -1.166151,0.478736 -2.418229,0.896096 -3.363426,1.792192 -0.282331,0.208678 -0.110477,0.564662 -0.06138,0.834718 -1.031123,0.638314 -1.362556,1.865842 -1.865843,2.88469 -0.343707,0.662865 -0.245505,1.571236 -0.896094,2.049972 -0.466461,0.380534 -1.092501,0.601488 -1.399382,1.166151 -0.982023,0.171854 -1.669438,0.957472 -2.540982,1.374832 -0.392809,0.147303 -0.83472,0.135027 -1.252079,0.184129 0.392809,0.540112 0.797893,1.055674 1.031123,1.681713 0.527837,-0.405085 1.104775,-0.736517 1.743089,-0.908371 1.080225,-0.282331 1.865843,-1.104775 2.81104,-1.644887 0.589213,-0.331433 0.846994,-1.031123 1.399381,-1.411657 0.343707,-0.245506 0.675141,-0.515562 0.85927,-0.908371 0.294606,-0.601488 0.687415,-1.166151 0.736516,-1.853567 0.07365,-0.355983 0.0982,-0.834719 0.429635,-1.055674 1.399382,-0.20868 2.590083,-1.043399 3.645757,-1.939493 0.626039,-0.41736 1.153877,-1.141601 2.000871,-1.043399 0.135027,0.270056 -0.01227,0.564663 -0.122753,0.822443 -0.20868,0.478736 -0.23323,1.031124 -0.503287,1.485309 -0.49101,0.822444 -1.202977,1.497584 -1.706263,2.307752 -0.589213,0.932921 -0.945196,2.000871 -1.50986,2.946067 -0.331432,0.564663 -0.380533,1.227528 -0.650589,1.804466 -0.773342,1.399382 -2.234101,2.44278 -2.491881,4.087668 -0.08593,0.478735 -0.576938,0.675139 -0.85927,1.006572 -0.810169,0.932921 -1.939494,1.50986 -2.88469,2.283202 0.282331,0.392809 0.564662,0.810168 0.761067,1.252079 l 1.031123,-0.810173 c 0.110478,0.20868 0.233231,0.405084 0.355984,0.601489 0.135027,-0.343708 0.208679,-0.711967 0.392808,-1.031123 0.282331,-0.147304 0.62604,-0.122753 0.908371,-0.257781 0.135028,-0.233231 0.135028,-0.515562 0.147303,-0.785618 0.540113,-0.355983 0.957472,-0.85927 1.362556,-1.362556 0.147303,0.110477 0.306882,0.220955 0.466461,0.331433 0.02455,-0.184129 0.06138,-0.564663 0.08593,-0.748792 1.080224,-0.675141 1.595786,-1.902668 2.258651,-2.933792 0.355982,-0.576938 1.141601,-0.797893 1.264354,-1.53441 0.282331,-0.785618 0.650589,-1.58351 1.32573,-2.099072 0.135027,0.945196 0.355983,1.890392 0.736516,2.774213 0.503287,1.252078 0.761067,2.602358 1.338006,3.829886 1.252077,2.123624 2.553257,4.406825 4.799633,5.622078 0.85927,0.601488 2.099073,0.503287 2.933792,-0.0982 0.859269,-0.466461 1.595786,-1.117051 2.123623,-1.939495 0.503286,-0.797892 1.239802,-1.399381 1.718538,-2.209549 0.687416,-1.153877 1.595786,-2.221826 1.829017,-3.584381 0.41736,-1.202978 0.626039,-2.442781 0.85927,-3.694859 -0.171854,-0.675141 0.601489,-0.527838 0.932921,-0.699691 0.294606,0.822443 0.90837,1.460758 1.374831,2.184999 0.294606,0.515562 1.104775,0.257781 1.35028,0.822444 0.319158,0.724242 0.662865,1.436207 1.153876,2.062247 0.319158,0.515561 0.969748,0.662865 1.53441,0.748792 0.245506,0.515561 0.478736,1.031123 0.711966,1.55896 0.135028,-0.122753 0.257782,-0.257781 0.392809,-0.380534 0.601489,0.527838 1.141601,1.153876 1.878117,1.509859 0.18413,0.08593 0.368259,-0.07365 0.552388,-0.110477 0.294607,0.306882 0.576938,0.626039 0.871545,0.932921 l -0.03683,-0.699691 c 0.454185,-0.319157 0.883819,-0.687415 1.153876,-1.190702 -0.392809,-0.08593 -0.810169,-0.135028 -1.190703,-0.282332 -0.601488,-0.282331 -0.969747,-0.896094 -1.595786,-1.129325 -0.797892,-0.331432 -1.53441,-0.871544 -2.037695,-1.583511 -0.135029,-0.429634 0.03683,-0.945196 -0.270057,-1.32573 -0.343708,-0.441909 -0.711966,-0.88382 -1.215253,-1.129325 -0.343707,-0.20868 -0.883819,-0.306882 -0.896095,-0.810168 -0.147303,-0.908371 -0.491011,-1.779916 -1.0925,-2.479607 -0.589212,-0.613764 -0.957472,-1.399381 -1.497584,-2.062246 -0.46646,-0.699691 -1.153876,-1.227528 -1.644886,-1.914944 -0.797894,-0.945196 -1.252079,-2.111348 -1.583512,-3.277499 1.30118,0.18413 2.504157,0.88382 3.400252,1.829016 0.368258,0.405085 0.932922,0.503287 1.374832,0.797894 0.576938,0.282331 1.080224,0.920645 1.79219,0.687416 0.65059,1.423931 1.080224,3.068818 2.332303,4.124493 1.816741,1.031123 3.547556,2.614633 5.757105,2.614633 0.159579,-0.478735 0.355984,-0.945196 0.552388,-1.399381 -0.282331,-0.03683 -0.564663,-0.07365 -0.834719,-0.110478 -0.08593,-0.233229 -0.159579,-0.454185 -0.23323,-0.687415 -0.515562,-0.01227 -1.0925,0.07365 -1.53441,-0.245506 -0.576938,-0.405084 -1.264354,-0.601489 -1.853567,-0.994297 -0.331433,-0.44191 -0.478735,-0.994298 -0.797893,-1.436207 0.171854,-1.30118 -1.448483,-2.025422 -1.178426,-3.351152 -0.257782,-0.110477 -0.503287,-0.220954 -0.761068,-0.331432 0.02455,-0.270056 0.03683,-0.540113 0.06138,-0.810169 -2.320029,-0.896095 -4.811909,-1.313454 -7.058286,-2.381404 -0.871544,-0.662865 -1.718538,-1.399381 -2.823314,-1.632611 0.368258,-0.01228 0.748792,-0.02455 1.11705,0 -0.02455,-0.06138 -0.06138,-0.171854 -0.08593,-0.233231 -0.220955,-0.06138 -0.67514,-0.171854 -0.896095,-0.23323 0.392809,-0.196404 0.834718,-0.417359 1.252078,-0.110477 1.53441,0.626039 2.933792,1.546684 4.517302,2.049971 1.706264,0.859269 3.584381,1.313454 5.425674,1.841292 1.239802,0.171854 2.565532,-0.01227 3.707133,-0.552387 1.374831,-0.527838 2.430506,-1.632613 3.780785,-2.197275 0.846995,-0.491012 1.669439,-1.080225 2.283202,-1.853568 0.306882,-0.515561 0.478736,-1.104775 0.687416,-1.669437 1.141601,0.0491 2.344578,0.147303 3.412527,-0.343708 1.018848,-0.319157 1.779916,-1.080225 2.590085,-1.730814 0.896094,-0.994298 1.927218,-1.865842 2.639184,-3.007443 0.662865,-1.018848 1.436207,-2.062247 1.460758,-3.326601 0.0491,-0.441909 -0.02455,-0.982022 -0.429635,-1.239803 -2.381404,-0.945196 -4.971488,-1.178427 -7.51247,-1.227528 -1.571235,0.220956 -3.117921,0.613764 -4.689156,0.810168 0.07365,0.0491 0.159578,0.0982 0.23323,0.147304 -1.669438,0.270056 -3.142471,1.141601 -4.775083,1.522135 -2.356853,0.601488 -4.44365,1.890392 -6.800504,2.455055 -0.564662,0.110478 -1.080225,0.417359 -1.632612,0.564663 -0.638314,0.184129 -1.202977,0.589214 -1.878117,0.687416 -0.601489,0.08593 -1.055674,0.601488 -1.681713,0.589212 -0.171855,-0.233229 -0.392809,-0.527836 -0.257782,-0.822443 0.171854,-0.454185 0.20868,-1.067949 0.724242,-1.239803 1.067949,-0.417359 2.037696,-1.055674 2.982892,-1.706264 0.429636,-0.527836 0.969748,-0.945196 1.558961,-1.276628 0.355983,-0.466461 0.380534,-1.104776 0.67514,-1.608062 0.466461,-0.859269 0.527837,-1.841292 0.773342,-2.774213 0.0491,-0.25778 -0.08593,-0.503287 -0.147303,-0.761067 1.53441,-0.945196 3.117921,-1.841291 4.394549,-3.142471 -0.441909,-0.257781 -0.822443,-0.589213 -1.264353,-0.846995 -0.44191,0.441911 -0.969747,0.773343 -1.546685,1.018848 -0.773343,0.576938 -1.841291,0.748793 -2.418229,1.571236 -0.220956,0.613764 -0.761068,0.969748 -1.141601,1.460758 -0.478736,0.871545 -0.429636,1.902668 -0.491012,2.86014 -0.699691,0.245506 -1.546685,0.270056 -2.037696,0.88382 -0.552388,0.675141 -1.227528,1.215253 -1.853567,1.816742 -0.23323,0.319156 -0.355983,0.69969 -0.527836,1.055673 -0.724242,-0.294606 -1.497584,-0.147303 -2.160449,0.220955 l -0.368259,-0.294607 c 0.405084,-0.626038 0.957471,-1.301179 0.834719,-2.099072 -0.0982,-0.67514 0.23323,-1.448483 -0.245506,-2.025421 -0.773343,-0.945196 -2.037696,-1.153876 -3.105645,-1.608061 0.638314,-0.454185 1.264354,-0.920646 1.927219,-1.350281 1.485308,-0.969747 2.737387,-2.246376 4.198144,-3.277499 0.748792,-0.62604 1.914944,-1.239803 1.878118,-2.369129 z M 77.65032,23.997214 c -0.0491,0.135027 -0.0982,0.25778 -0.147303,0.392809 0.0491,0.135027 0.0982,0.257781 0.147303,0.392808 l 0,-0.785617 z M 42.81615,41.440383 c 1.021917,-0.0015 2.043833,0.003 3.06575,0.01228 0.20868,0.552387 0.576938,1.080225 0.576938,1.681713 -0.392809,0.540112 -1.153876,0.319157 -1.706263,0.405084 -3.903539,0.110478 -7.819352,0.245505 -11.722891,0.02455 0.171854,-0.662865 0.392809,-1.313455 0.589214,-1.964045 3.06575,-0.10127 6.131501,-0.154974 9.197252,-0.159579 z m 1.795259,3.799199 c 0.906837,-0.0042 1.812137,0 2.718974,0.01841 0.03683,0.675141 0.08593,1.350281 0.110478,2.025422 -4.861011,0.343707 -9.746571,0.122752 -14.619857,0.184129 -0.02455,-0.699692 -0.02455,-1.387107 0,-2.086798 3.929623,0.05984 7.860782,-0.12301 11.790405,-0.141166 z m -0.932921,3.92809 c 0.562745,-0.0015 1.126257,0.003 1.687851,0.01841 0.540112,-0.0491 1.055674,0.122752 1.534409,0.331432 -0.147303,0.576938 -0.319157,1.129325 -0.478735,1.706263 -1.939494,0.159579 -3.891263,0.171854 -5.843033,0.20868 -2.246376,0.0982 -4.505027,0.184129 -6.739127,-0.02455 -0.196404,-0.638315 -0.368259,-1.276629 -0.540113,-1.914944 1.755365,-0.294607 3.547556,-0.147303 5.315196,-0.208679 1.684781,-0.04604 3.375317,-0.112013 5.063552,-0.116615 z m -0.782549,4.047772 c 0.896095,0.003 1.789122,0.05217 2.666805,0.217887 -0.245507,0.638314 -0.552389,1.239802 -0.83472,1.865842 -3.068819,0.159578 -6.137639,0.147303 -9.194183,0.294607 -0.294606,-0.62604 -0.576938,-1.252079 -0.785618,-1.902669 1.792191,-0.417359 3.645757,-0.319157 5.462499,-0.417359 0.889958,-0.01841 1.789121,-0.06138 2.685217,-0.0583 z m -2.62384,3.789993 c 0.69969,0.0015 1.399381,0.03683 2.099071,0.0982 0.343709,0.0491 0.687416,0.392809 0.491012,0.748792 -0.306882,0.454185 -0.638314,0.932921 -1.11705,1.215252 -1.104775,0.08593 -2.246376,0.184129 -3.351152,0.02455 -0.46646,-0.270056 -1.264353,-0.908371 -0.846994,-1.522135 0.147304,-0.220955 0.355984,-0.405084 0.62604,-0.46646 0.69969,-0.06752 1.399381,-0.09974 2.099073,-0.0982 z" id="path4" inkscape:connector-curvature="0"/>
</svg>