<svg xmlns="http://www.w3.org/2000/svg" xmlns:xlink="http://www.w3.org/1999/xlink" version="1.1" id="Layer_1" x="0px" y="0px" width="100px" height="73.473px" viewBox="0 0 100 73.473" enable-background="new 0 0 100 73.473" xml:space="preserve">
<polygon points="63.889,73.472 36.112,73.472 50,55.459 "/>
<path d="M79.503,49.902H20.727L22.62,29.86c0,0,3.19-0.198,3.19-3.625V14.583c0-2.083-1.388-4.859-4.859-4.859h-4.516h-4.516  c-3.472,0-4.861,2.776-4.861,4.859v11.652c0,3.427,3.191,3.625,3.191,3.625l1.895,20.042H0v5.558h100v-5.558H88.087v0.003"/>
<circle cx="16.435" cy="4.167" r="4.167"/>
<path d="M84.965,9.948c3.14,0,4.415,2.588,4.89,4.015l3.858,12.683c0.77,2.728-2.7,3.858-3.528,1.2l-3.472-11.646h-1.01  l6.018,20.715h-5.543v16.149c0,2.754-4.143,2.741-4.143,0V36.81h-1.689l0.002,16.233c0,2.776-4.159,2.776-4.159,0l-0.001-16.127  h-5.562l5.972-20.715h-0.936L72.19,27.887c-0.827,2.547-4.327,1.501-3.526-1.228l3.855-12.696c0.412-1.446,1.678-4.015,4.848-4.015  H84.965z"/>
<circle cx="81.188" cy="4.5" r="4.5"/>
</svg>