<svg xmlns="http://www.w3.org/2000/svg" xmlns:xlink="http://www.w3.org/1999/xlink" version="1.1" x="0px" y="0px" width="100px" height="100px" viewBox="0 0 100 100" enable-background="new 0 0 100 100" xml:space="preserve">
<g id="Captions">
	<rect x="-192" width="185" height="99"/>
	<rect y="-36" width="100" height="30"/>
	<text transform="matrix(1 0 0 1 66 -19.5)" fill="#000000" font-family="'Helvetica'" font-size="2.4">http://thenounproject.com</text>
	<text transform="matrix(1 0 0 1 7.166 -24.5)"><tspan x="0" y="0" fill="#000000" font-family="'Helvetica-Bold'" font-size="6.1578">The Noun Project</tspan><tspan x="1.12" y="4.8" fill="#000000" font-family="'Helvetica-Bold'" font-size="4">Icon Template</tspan></text>
	<text transform="matrix(1 0 0 1 -178.5 10.5)" fill="#000000" font-family="'Helvetica-Bold'" font-size="6.1578">Reminders</text>
	<line fill="#000000" stroke="#FFFFFF" stroke-miterlimit="10" x1="8" y1="-14.5" x2="18" y2="-14.5"/>
	<line fill="#000000" stroke="#FFFFFF" stroke-miterlimit="10" x1="-179" y1="16.5" x2="-162" y2="16.5"/>
	<g>
		<g>
			<g>
				<rect x="-170.802" y="31.318" fill="#000000" width="8.721" height="8.642"/>
				<path fill="#000000" d="M-164.455,42.312h4.747v-4.703h-4.747V42.312z M-159.266,42.749h-5.63V37.17h5.63V42.749      L-159.266,42.749z M-166.221,44.062h8.279v-8.203h-8.279V44.062L-166.221,44.062z M-157.5,44.5h-9.163v-9.079h9.163V44.5      L-157.5,44.5z"/>
				<polygon fill="#000000" points="-166.149,44.133 -166.292,43.991 -158.013,35.787 -157.871,35.929     "/>
			</g>
		</g>
	</g>
	<rect x="-179" y="58" fill="none" width="35" height="32.5"/>
	<text transform="matrix(1 0 0 1 -179 60.1572)"><tspan x="0" y="0" fill="#000000" font-family="'Helvetica-Bold'" font-size="3">Strokes</tspan><tspan x="0" y="5" fill="#000000" font-family="'Helvetica'" font-size="2.4">Try to keep strokes at 4px</tspan><tspan x="0" y="10" fill="#000000" font-family="'Helvetica'" font-size="2.4">Minimum stroke weight is 2px</tspan><tspan x="0" y="14.5" fill="#000000" font-family="'Helvetica'" font-size="2.4">For thicker strokes use even </tspan><tspan x="0" y="17.5" fill="#000000" font-family="'Helvetica'" font-size="2.4">numbers: 6px, 8px etc.</tspan><tspan x="0" y="22" fill="#000000" font-family="'Helvetica-Bold'" font-size="2.4">Remember to expand strokes </tspan><tspan x="0" y="25" fill="#000000" font-family="'Helvetica-Bold'" font-size="2.4">before saving as an SVG </tspan></text>
	<rect x="-136.5" y="58" fill="none" width="35" height="32.5"/>
	<text transform="matrix(1 0 0 1 -136.5 60.1572)"><tspan x="0" y="0" fill="#000000" font-family="'Helvetica-Bold'" font-size="3">Size</tspan><tspan x="0" y="5" fill="#000000" font-family="'Helvetica'" font-size="2.4">Cannot be wider or taller than </tspan><tspan x="0" y="8.5" fill="#000000" font-family="'Helvetica'" font-size="2.4">100px (artboard size)</tspan><tspan x="0" y="13.5" fill="#000000" font-family="'Helvetica'" font-size="2.4">Scale your icon to fill as much of </tspan><tspan x="0" y="16.5" fill="#000000" font-family="'Helvetica'" font-size="2.4">the artboard as possible</tspan></text>
	<rect x="-94" y="58" fill="none" width="35" height="32.5"/>
	<text transform="matrix(1 0 0 1 -94 60.1572)"><tspan x="0" y="0" fill="#000000" font-family="'Helvetica-Bold'" font-size="3">Ungroup</tspan><tspan x="0" y="5" fill="#000000" font-family="'Helvetica'" font-size="2.4">If your design has more than one </tspan><tspan x="0" y="8" fill="#000000" font-family="'Helvetica'" font-size="2.4">shape, make sure to ungroup</tspan></text>
	<rect x="-50" y="58" fill="none" width="35" height="32.5"/>
	<text transform="matrix(1 0 0 1 -50 60.1572)"><tspan x="0" y="0" fill="#000000" font-family="'Helvetica-Bold'" font-size="3">Save as</tspan><tspan x="0" y="5" fill="#000000" font-family="'Helvetica'" font-size="2.4">Save as .SVG and make sure </tspan><tspan x="0" y="8" fill="#000000" font-family="'Helvetica'" font-size="2.4">&#8220;Use Artboards&#8221; is checked</tspan></text>
	<text transform="matrix(1.0074 0 0 1 -125.542 30.5933)" fill="#000000" font-family="'Helvetica'" font-size="2.5731">100px</text>
	<text transform="matrix(1.0074 0 0 1 -41 39)" fill="#000000" font-family="'Helvetica-Bold'" font-size="5.1462">.SVG</text>
	<rect x="-126.514" y="34.815" fill="#000000" width="10.261" height="10.185"/>
	<rect x="-126.477" y="31.766" fill="#000000" width="0.522" height="2.337"/>
	<rect x="-116.812" y="31.766" fill="#000000" width="0.523" height="2.337"/>
	<rect x="-127" y="32.337" fill="#000000" width="11.233" height="0.572"/>
	<g>
		<rect x="-83.805" y="33.844" fill="#000000" width="10.305" height="10.156"/>
		<rect x="-76.809" y="28.707" fill="#000000" width="3.308" height="3.261"/>
	</g>
	<rect x="-178.5" y="22.5" fill="#000000" stroke="#FFFFFF" stroke-miterlimit="10" width="30" height="30"/>
	<rect x="-136.5" y="22.5" fill="#000000" stroke="#FFFFFF" stroke-miterlimit="10" width="30" height="30"/>
	<rect x="-93.5" y="22.5" fill="#000000" stroke="#FFFFFF" stroke-miterlimit="10" width="30" height="30"/>
	<rect x="-49.5" y="22.5" fill="#000000" stroke="#FFFFFF" stroke-miterlimit="10" width="30" height="30"/>
</g>
<g id="Your_Icon">
	<path fill="#000000" d="M933.41,252.733c-3.417,0-6.441,1.218-8.352,3.094c2.014,1.239,3.375,3.097,3.66,5.287   c0.256,1.967-0.39,3.896-1.704,5.511c1.155,0.662,2.5,1.15,3.968,1.408c0.431,0.076-0.117,1.017-0.725,1.976   c-0.492,0.774-1.147,0.997-0.883,1.261c0.629,0.63,3.814-0.204,5.8-2.521c0.757-0.883,2.791-1.26,3.36-1.497   c3.188-1.329,5.34-3.859,5.34-6.763C943.875,256.205,939.189,252.733,933.41,252.733z"/>
	<g>
		<path fill="#000000" d="M932.4,263.386l2.065,0.376l-0.363,1.995l-2.065-0.376L932.4,263.386z M933.833,255.229l2.162,0.393    l-0.47,2.58l-1.423,4.645l-1.028-0.186l0.29-4.852L933.833,255.229z"/>
	</g>
	<g>
		<path fill="#000000" d="M918.797,255.547c4.297,0,7.864,2.315,8.292,5.604c0.409,3.152-2.197,6.176-6.072,7.39    c-0.362,0.112,0.214,0.861,0.845,1.618c0.51,0.611,1.099,0.729,0.901,0.985c-0.141,0.181-0.484,0.276-0.951,0.276    c-1.117,0-2.935-0.548-4.321-1.797c-0.749-0.675-2.542-0.771-3.058-0.912c-2.891-0.786-5.026-2.723-5.351-5.221    c-0.479-3.684,3.164-7.193,8.136-7.84C917.753,255.58,918.279,255.547,918.797,255.547"/>
	</g>
	<g>
		<path fill="#000000" d="M916.26,259.352c0.383-0.324,0.878-0.525,1.488-0.604c0.8-0.104,1.49,0.001,2.068,0.314    c0.579,0.313,0.918,0.846,1.016,1.597c0.06,0.46-0.005,0.863-0.193,1.208c-0.109,0.208-0.336,0.486-0.679,0.833l-0.337,0.342    c-0.186,0.186-0.297,0.389-0.336,0.61c-0.025,0.14-0.021,0.353,0.013,0.636l-1.439,0.188c-0.057-0.602-0.054-1.021,0.008-1.263    c0.062-0.24,0.265-0.534,0.606-0.882l0.348-0.352c0.114-0.113,0.204-0.23,0.267-0.354c0.116-0.215,0.159-0.438,0.129-0.67    c-0.035-0.27-0.146-0.506-0.331-0.706c-0.187-0.2-0.488-0.274-0.905-0.22c-0.409,0.053-0.683,0.228-0.819,0.522    c-0.135,0.295-0.184,0.589-0.146,0.884l-1.534,0.199C915.393,260.619,915.652,259.859,916.26,259.352z M917.918,265.207    l1.588-0.207l0.199,1.535l-1.588,0.207L917.918,265.207z"/>
	</g>
	<g>
		<path d="M50,99c0-0.011,0.046-0.027,0-0.038C49.954,98.973,50,98.989,50,99z"/>
		<path d="M50.004,1.025L11,11.074c0,0,0,8.77,0,26.735c0,35.663,26,58.018,39,61.116c13-3.098,39-25.453,39-61.116    c0-17.966,0-26.735,0-26.735L50.004,1.025z M61.709,48.592l5.771,19.1l-1.42,0.969L49.728,57.29L33.156,68.83l-1.266-0.873    l5.864-19.365L21.342,36.153l0.286-1.218l20.699-0.197L48.914,16h1.628l6.589,18.738l20.619,0.305l0.506,1.059L61.709,48.592z"/>
	</g>
</g>
</svg>