<svg xmlns="http://www.w3.org/2000/svg" xmlns:xlink="http://www.w3.org/1999/xlink" version="1.1" id="Layer_1" x="0px" y="0px" width="100px" height="79.704797048px" viewBox="0 0 271.5 216" enable-background="new 0 0 271.5 216" xml:space="preserve">
<g>
	<path d="M696.313,218.906c0.473-0.986,0.737-2.062,0.737-3.188c0-4.688-4.504-8.524-10.008-8.524h-0.646v-14.666h-12v0.125h-29.655   c-0.661-4.875-4.857-8.666-9.906-8.666h-69.984c-5.049,0-9.244,3.791-9.905,8.666h-29.317l-2.118-8.666h-7.999l-1.674,8.666h-10.66   v1.807c-10.155-0.075-18,2.297-22.745,6.893c-3.361,3.254-5.138,7.625-5.138,12.635c0,5.584,1.702,11.312,3.674,17.943   c2.138,7.194,4.562,15.35,5.337,25.242c0.549,7.029-2.404,12.682-5.531,18.664c-4.727,9.04-10.082,19.286-2.029,34.745   c8.298,15.933,30.253,18.989,45.881,18.989c2.078,0,4.035-0.057,5.843-0.142v10.054c0,1.905-5.788,7.731-5.788,10.008   c0,2.75,4.504,5,10.008,5h132.482c5.504,0,10.008-2.25,10.008-5c0-2.275-5.789-8.103-5.789-10.008v-54.275   c0-1.316-0.264-2.573-0.73-3.729c3.795-0.711,6.521-2.541,6.521-4.679c0-2.75-4.504-5-10.008-5h-49.181   c-0.573-0.726-4.229-1.769-5.479-5.476c-1.25-3.709-3.875-17.672-3.875-17.672h-2.791v-12.146h4.312v-3.272h23.688V229.9h-1.083   v-20.582h4.075c4.817,0,8.868-3.448,9.804-8H674.4v5.875h-0.646c-5.504,0-10.008,3.836-10.008,8.523   c0,1.127,0.266,2.202,0.737,3.189c-2.374,0.916-3.916,2.348-3.916,3.953c0,2.75,4.503,5,10.008,5h19.649   c5.506,0,10.009-2.25,10.009-5C700.231,221.255,698.688,219.822,696.313,218.906z M624.177,313.324   c0,12.888-10.445,23.334-23.333,23.334c-12.887,0-23.334-10.446-23.334-23.334c0-12.887,10.447-23.334,23.334-23.334   S624.177,300.439,624.177,313.324z M595.844,236.509v12.146h-3.209c0,0-2.792,13.34-4.792,18.006s-5.401,4.416-5.976,5.142h-49.183   c-5.504,0-10.008,2.25-10.008,5c0,2.138,2.725,3.968,6.521,4.679c-0.469,1.154-0.731,2.412-0.731,3.729v39.181   c-14.272,0.673-39.187-0.559-47.29-16.116c-6.846-13.146-2.535-21.39,2.026-30.119c3.317-6.346,6.747-12.907,6.085-21.369   c-0.814-10.422-3.319-18.846-5.528-26.276c-1.86-6.259-3.466-11.663-3.466-16.521c0-3.676,1.217-6.719,3.615-9.043   c3.795-3.672,10.443-5.551,19.268-5.484v1.861h8.986l-1.887,9.77c-1.59,0.666-2.937,1.668-3.901,2.896h-2.265   c-1.979,0-3.601,1.351-3.601,3c0,1.65,1.62,3,3.601,3h0.826c0.76,3.349,3.977,5.998,8.03,6.613   c-0.196,8.606,0.642,21.523,6.876,26.652c8.237,6.775,14.809,8.098,21.237,7.652c0.899,1.895,2.161,3.082,3.555,3.082   c2.718,0,4.941-4.504,4.941-10.008v-10.65c0-5.504-2.226-10.008-4.941-10.008c-1.089,0-2.095,0.729-2.914,1.951   c-5.396-0.992-10.048-2.808-13.303-7.871c-0.231-0.361-0.459-0.703-0.674-1.039c3.483-0.91,6.153-3.362,6.837-6.375h0.994   c1.979,0,3.601-1.351,3.601-3c0-1.65-1.62-3-3.601-3h-2.432c-0.755-0.961-1.738-1.784-2.893-2.418l-2.506-10.25h27.301   c0.936,4.552,4.986,8,9.804,8h3.878v20.582h-0.886v3.334h23.562v3.273L595.844,236.509L595.844,236.509z M627.093,229.9h-18.937   v-3.158h-16.75v3.158h-18.465v-20.582h54.15L627.093,229.9L627.093,229.9z"/>
	<circle cx="600.844" cy="313.325" r="14.667"/>
</g>
<g>
	<path d="M812.538,39.173c0,0,1.666-10.001,1.5-12.668c-0.167-2.666-23.334-4.332-39-5.666c-8.607-0.732-15.601-0.66-20.158-0.445   c0.056,0.03,0.114,0.064,0.156,0.086c0.085,0.015,0.148,0.033,0.168,0.059c0.025,0.033-0.035,0.011-0.168-0.059   c-0.266-0.047-0.828-0.047-1.592-0.011c-2.835,0.169-4.406,0.37-4.406,0.37l-0.045-0.023c-4.202,0.399-8.988,0.973-8.988,0.973   l-22.926-15.75l0.566-1.357l-2.607-1.342c0,0-5.667-3.5-23.666-3.334c-18,0.168-31.334,4.5-31.334,4.5s-46.166,15.668-46.666,16   c-0.5,0.334-25,2.668-25,2.668s-8,19.999,3.166,27.832l24.166,2.5l2.291,0.154c-0.24-1.191-0.369-2.422-0.369-3.684   c0-10.218,8.283-18.5,18.5-18.5c10.219,0,18.5,8.282,18.5,18.5c0,2.127-0.377,4.162-1.037,6.064l4.449,0.299l98.833-0.85   c0,0,2.089-0.082,5.36-0.221c-0.501-1.678-0.779-3.453-0.779-5.293c0-10.218,8.283-18.5,18.5-18.5c10.218,0,18.5,8.282,18.5,18.5   c0,1.129-0.117,2.23-0.311,3.305c0.381-0.037,0.741-0.072,1.062-0.107c9-1,12.5-3.834,12.5-3.834v-5.5l3.167-0.334v-4.174   L812.538,39.173z M636.136,19.684v-1.332l3.931-1.188l0.403,2.52H636.136z M644.214,19.966l-0.646-3.859l2.898-0.876l0.685,4.735   H644.214z M709.038,5.505l21.166,16.5h-57.332l-4.168-13.333C668.704,8.672,689.204,3.172,709.038,5.505z M659.302,11.352l3,9   l-4.463-0.114l-1.951-7.854L659.302,11.352z M649.636,14.272l3.283-0.992l1.383,6.867l-3.338-0.084L649.636,14.272z    M724.954,48.137l-21.417,0.275c-3.568,0.037-7.139,0.105-10.708,0.107l-10.707,0.043l-21.418,0.088l-0.947,0.004l-0.039-0.997   c-0.021-0.548-0.025-1.097-0.061-1.643c-0.062-0.542-0.081-1.092-0.175-1.628c-0.076-0.54-0.159-1.078-0.287-1.607   c-0.099-0.535-0.271-1.05-0.409-1.574c-0.18-0.51-0.345-1.026-0.563-1.52c-0.2-0.5-0.44-0.984-0.697-1.454   c-0.252-0.474-0.538-0.927-0.842-1.36c-0.152-0.217-0.312-0.429-0.478-0.629c-0.156-0.194-0.352-0.409-0.482-0.54l-1.656-1.644   l2.292-0.02l19.709-0.168l9.854-0.072l9.855-0.002l9.855-0.004c3.285,0.004,6.569-0.014,9.855,0.022   c6.571,0.06,13.143,0.072,19.714,0.188c-6.566,0.281-13.136,0.46-19.703,0.685c-3.282,0.119-6.567,0.185-9.853,0.271l-9.854,0.244   l-9.853,0.246l-9.854,0.176l-17.723,0.295c0.311,0.445,0.602,0.9,0.857,1.372c0.295,0.528,0.566,1.07,0.797,1.627   c0.249,0.55,0.438,1.121,0.641,1.688c0.163,0.576,0.354,1.148,0.469,1.736c0.146,0.582,0.24,1.172,0.33,1.763   c0.106,0.589,0.118,1.187,0.183,1.779c0.015,0.265,0.016,0.528,0.021,0.793l20.457,0.084l10.708,0.044   c3.569,0,7.14,0.07,10.708,0.107l21.417,0.275c7.14,0.158,14.277,0.255,21.416,0.473C739.231,47.882,732.093,47.977,724.954,48.137   z"/>
	<path d="M635.872,34.13c-8.744,0-15.834,7.089-15.834,15.834c0,8.744,7.09,15.832,15.834,15.832s15.834-7.088,15.834-15.832   C651.706,41.218,644.616,34.13,635.872,34.13z M635.872,56.622c-3.683,0-6.668-2.984-6.668-6.666c0-3.683,2.985-6.668,6.668-6.668   c3.682,0,6.666,2.985,6.666,6.668C642.538,53.637,639.554,56.622,635.872,56.622z"/>
	<path d="M779.705,34.13c-8.745,0-15.833,7.089-15.833,15.834c0,8.744,7.088,15.832,15.833,15.832s15.833-7.088,15.833-15.832   C795.538,41.218,788.45,34.13,779.705,34.13z M779.706,56.63c-3.683,0-6.668-2.984-6.668-6.666c0-3.683,2.985-6.668,6.668-6.668   s6.666,2.985,6.666,6.668C786.372,53.645,783.388,56.63,779.706,56.63z"/>
</g>
<path d="M-285.729,132.992H-364l-12.682-31.784h57.399c4.365,0,7.903-3.538,7.903-7.903c0-4.365-3.538-7.904-7.903-7.904h-62.891  c-0.271,0-0.537,0.014-0.801,0.04l-0.012-0.029l-0.122,0.049c-1.405,0.166-2.693,0.702-3.773,1.506l-33.165,13.231l0.044,0.111  l-15.653,5.705l-11.469-20.237c-2.153-3.798-6.976-5.133-10.774-2.979c-3.798,2.152-5.132,6.977-2.979,10.773l14.769,26.06  c1.438,2.535,4.099,4.008,6.878,4.008c0.902,0,1.817-0.155,2.705-0.479l22.386-8.16l7.426,18.61  c-6.278,1.49-13.751,1.425-19.568,2.761c-2.522,0.578-3.026,0.446-4.223,2.684c-0.818,1.529-1.899,3.725-2.453,5.234  c3.07,0.121,7.126-1.506,10.178-2.232c4.153-0.986,8.294-2.203,12.474-3.203c0.904-0.217,2.417-0.4,4.051-0.627  c-3.984,3.143-8.931,5.143-12.941,8.15c-3.605,2.703-1.94,5.44-0.547,9.215c3.368-0.766,7.086-6.232,9.879-8.484  c1.91-1.541,4.4-3.088,6.641-4.75l3.25,8.145l-6.588,17.74c-0.972,2.617-0.491,5.553,1.265,7.723  c1.513,1.869,3.779,2.935,6.145,2.935c0.379,0,0.761-0.026,1.143-0.084l51.308-7.487c4.319-0.629,7.311-4.644,6.68-8.963  c-0.629-4.318-4.641-7.31-8.963-6.681l-38.115,5.563l4.621-12.444h96.753c4.365,0,7.904-3.539,7.904-7.904  C-277.818,136.535-281.363,132.992-285.729,132.992z"/>
<path d="M-409.807,59.087c-6.903,0-12.69,4.77-14.253,11.191l21.574-9.232C-404.641,59.804-407.14,59.087-409.807,59.087z"/>
<path d="M-409.807,88.433c8.103,0,14.672-6.569,14.672-14.672c0-2.975-0.888-5.741-2.409-8.054l-26.621,11.081  C-422.77,83.438-416.872,88.433-409.807,88.433z"/>
<path d="M-244.533-107.071l-10.719,3.387l0.656-4.573c0.433-3.035-1.719-5.515-4.781-5.515h-7.785v-1.518  c14.871-4.454,25.712-18.237,25.712-34.558c0-19.923-16.151-36.07-36.075-36.07c-14.66,0-27.269,8.746-32.906,21.305  c-3.422-20.131-20.938-35.462-42.043-35.462c-23.56,0-42.658,19.097-42.658,42.658c0,17.633,10.7,32.769,25.965,39.267v4.378h-10.01  c-2.276,0-4.239,1.386-5.1,3.351l-34.71-8.495c-4.37-1.07-7.943,1.735-7.943,6.231v44.973c0,4.496,3.573,7.303,7.943,6.23  l34.24-8.383v8.597v9.271c0,3.063,2.507,5.57,5.57,5.57h110.161c3.061,0,5.924-2.482,6.355-5.514l5.081-35.49l5.146,1.641  c2.916,0.928,6.067-0.697,7.008-3.615l4.504-14.039C-239.99-106.36-241.617-107.993-244.533-107.071z M-352.166-144.358  c-7.172,0-12.985-5.811-12.985-12.982s5.813-12.98,12.985-12.98c7.168,0,12.982,5.809,12.982,12.98  S-344.998-144.358-352.166-144.358z M-292.604-113.772h-48.15c-1.014-0.551-1.704-1.621-1.704-2.855c0-1.791,1.45-3.246,3.245-3.246  h45.068c1.793,0,3.246,1.455,3.246,3.246C-290.898-115.394-291.587-114.323-292.604-113.772z M-275.762-138.793  c-5.121,0-9.272-4.152-9.272-9.276c0-5.119,4.151-9.271,9.272-9.271c5.123,0,9.271,4.152,9.271,9.271  C-266.49-142.946-270.639-138.793-275.762-138.793z"/>
<path d="M-291.505,244.695c-32.757,0-55.36,10.434-55.36,17.794c0,0.81,0,2.503,0,4.877c0,3.732,0,9.161,0,15.461  c-7.478,4.966-14.769,10.339-20.585,15.234c-13.442,11.315-14.949,16.183-13.073,20.01c1.458,2.974,4.619,4.454,9.802,4.454  c4.545,0,10.646-1.141,18.523-3.412c11.621-3.354,25.855-8.895,40.735-15.806c1.145,0.541,2.409,0.866,3.758,0.866  c4.881,0,8.839-3.957,8.839-8.838c0-4.883-3.958-8.84-8.839-8.84c-4.88,0-8.838,3.957-8.838,8.84c0,0.24,0.052,0.472,0.072,0.709  c-1.419,0.651-2.793,1.269-4.162,1.877c-0.156-0.804-0.258-1.629-0.258-2.479c0-7.27,5.913-13.188,13.185-13.188  s13.187,5.918,13.187,13.188c0,7.271-5.915,13.186-13.187,13.186c-1.877,0-3.659-0.398-5.276-1.108  c-11.247,5.976-23.064,11.228-33.881,14.846c0,15.587,0,28.074,0,28.074c0,14.783,0,26.382,0,29.058  c0,8.723,22.604,17.793,55.361,17.793c32.759,0,55.361-10.432,55.361-17.793c0-2.902,0-21.236,0-42.373c0,0,0-55.812,0-71.498  c0-1.354,0-2.444,0-3.138C-236.143,253.768-258.748,244.695-291.505,244.695z M-371.327,313.896  c3.177-4.105,12.39-12.146,24.462-20.566c0,4.844,0,9.91,0,14.944C-359.118,312.379-367.495,313.978-371.327,313.896z   M-243.098,266.451c-1.26,0.736-2.692,1.456-4.258,2.156c0.307,0.879,0.555,1.756,0.69,2.619c0.585,3.676-0.915,50.753-0.435,55.021  c0.285,2.533,0.027,4.536-2.393,5.668c-2.318,1.082-5.582,1.643-7.949,0.385c-2.717-1.442-3.344-5.11-4.447-7.713  c-1.199-2.824-2.74-5.56-3.859-8.371c-0.881-2.213,0.159-4.362-1.783-6.092c-2.984-2.656-4.928-0.367-7.844,0.897  c-5.716,2.479-8.172-3.2-9.286-7.903c-1.206-5.082-0.653-12.713-4.621-16.52c-1.395-1.342-3.361-2.1-5.181-2.5  c-2.655-0.586-4.326-1.781-6.751-3.146c-2.332-1.313-4.999-2.867-7.4-3.914c-3.62-1.574-7.355-0.416-10.99-2.498  c-0.473-0.271-1.014-0.594-1.57-0.934c-7.918-1.67-14.315-3.954-18.737-6.536v-3.794c2.804-3.592,19.961-11.625,48.405-11.625  c13.186,0,25.695,1.581,35.23,4.45c0.883,0.266,1.695,0.534,2.475,0.803c0.111-0.006,0.223-0.015,0.336-0.021  c0.015,0.052,0.035,0.103,0.053,0.154c6.941,2.445,9.717,4.894,10.312,5.825v3.587H-243.098z"/>
<path d="M113.797,186.219c-2.912,0.148-4.187-1.27-4.187-1.27l-14.479-14.479l30.162-32.256l-32.482,29.935l-26.572-26.573  l13.663-15.455l-16.049,13.067l-4.147-4.146c0,0-2.498-2.059-2.273-4.932c0.224-2.873,1.796-4.511,1.796-4.511l39.17-39.174  l58.862,58.865l-39.469,39.469C117.791,184.76,116.707,186.068,113.797,186.219z"/>
<rect x="94.342" y="102.119" transform="matrix(-0.7071 -0.7071 0.7071 -0.7071 155.7809 280.4095)" width="83.245" height="11.645"/>
<path d="M164.834,94.286c0.176-7.211,16.354-5.227,24.732-13.604c8.377-8.378,23.84-28.721,24.109-31.107  c0.269-2.386,1.957-8.417-4.314-14.912s-15.246-4.649-15.246-4.649S172.768,44,162.467,54.299  c-9.293,9.293-5.476,25.156-11.992,25.27c-6.518,0.114-25.943-19.273-30.246-14.973c-4.303,4.3-6.654,6.651-6.654,6.651  l58.861,58.864c0,0,0.766-0.762,6.654-6.65C184.98,117.57,164.656,101.496,164.834,94.286z"/>
<g>
	<path d="M424.454,357.012c-11.471-2.553-22.84,4.68-25.395,16.15c-0.017,0.082-0.033,0.164-0.052,0.248   c-2.655,4.836-6.512,11.269-9.832,14.541c-5.735,5.652-13.506,4.535-19.938,0.5c4.271,14.467,28.068,22.246,44.107,18.488   c11.25-2.636,18.963-10.658,22.566-15.215c0.869-1,1.646-2.088,2.324-3.25c1.07-1.846,1.881-3.881,2.369-6.072   C443.157,370.932,435.926,359.562,424.454,357.012z M415.569,396.273c0.619,0.633,1.608,0.486,2.408,0.422   c0.549-0.045,4.465,1.119,4.991,1.022c-1.968,1.377-7.391,6.562-19.1,6.062c-11.709-0.498-19.41-3.056-24.892-8.369   c7.203,1.229,14.537-2.928,18.414-9.981c0.641-1.168,1.174-3.165,1.744-4.733c0.15-0.078,1.354,1.59,1.501,1.492   c1.009-0.666,2.011-1.836,3.076-0.574c0.729,0.869,0.583,2.062,0.468,3.102c-0.068,0.637-0.061,1.537,0.695,1.77   c1.105,0.34,2.445-0.354,3.448-0.746c2.122-0.828,4.12-1.995,6.081-3.143c3.602-2.111,7.14-4.516,11.119-5.863   c0.09,3.321-1.844,6.414-3.681,9.045c-1.94,2.783-4.452,5.293-6.049,8.301C415.489,394.654,414.994,395.683,415.569,396.273z"/>
	<path d="M504.653,294.744c-1.135-1.979-3.656-2.666-5.637-1.531c0,0-0.99,0.566-2.725,1.559c-1.716,1.01-4.165,2.455-7.033,4.256   c-2.902,1.771-6.191,3.936-9.738,6.228c-3.485,2.354-7.265,4.81-10.91,7.392c-3.683,2.547-7.344,5.113-10.729,7.568   c-1.688,1.23-3.321,2.423-4.869,3.553c-1.552,1.125-2.973,2.234-4.208,3.336c-2.498,2.174-4.304,4.26-5.472,5.817   c-1.149,1.577-1.67,2.614-1.67,2.612c-1.626,3.295-2.065,7.179-1.089,10.873l-2.863-3c-1.091-1.143-2.904-1.186-4.045-0.094   l-5.521,5.271c-1.144,1.092-1.183,2.901-0.093,4.047l16.576,17.358c1.092,1.144,2.901,1.185,4.046,0.095l5.518-5.271   c1.144-1.09,1.187-2.9,0.094-4.045l-3.483-3.648c3.685,1.16,7.804,0.955,11.53-0.915c0-0.001,1.038-0.521,2.613-1.671   c1.557-1.168,3.646-2.973,5.82-5.471c1.1-1.236,2.211-2.656,3.334-4.209c1.129-1.547,2.32-3.179,3.553-4.867   c2.455-3.387,5.02-7.051,7.567-10.731c2.584-3.646,5.037-7.424,7.394-10.908c2.291-3.549,4.453-6.837,6.224-9.739   c1.804-2.869,3.249-5.318,4.258-7.031c0.992-1.734,1.56-2.725,1.56-2.725C505.353,297.621,505.405,296.059,504.653,294.744z"/>
</g>
<g>
	<path d="M723.362-151.488c0.643,0.033,1.252,0.066,1.838,0.1v-7.387h-1.838V-151.488z"/>
	<path d="M728.274-192.833h-83.296c-5.009,0-9.107,4.095-9.107,9.103v116.681c0,5.009,4.099,9.105,9.107,9.105h83.296   c5.006,0,9.104-4.098,9.104-9.105v-116.682C737.379-188.739,733.28-192.833,728.274-192.833z M690.387-186.767h15.556v11.701   h-15.556V-186.767z M727.637-149.935v24.61h-2.438v-24.458c-1.225,0.07-2.562,0.14-4.047,0.205   c-4.756,0.228-10.302,0.417-16.246,0.538c-1.027,0.015-2.084,0.041-3.133,0.063v22.579h-7.217v-22.484   c-2.738,0.018-5.503,0.033-8.271,0.051c-3.169-0.021-6.339-0.041-9.46-0.061c-3.119-0.006-6.188-0.104-9.16-0.153   c-2.973-0.041-5.844-0.151-8.567-0.234c-1.67-0.045-3.257-0.109-4.801-0.176v23.056h-2.729v-23.176   c-0.045-0.002-0.099-0.004-0.145-0.006c-9.51-0.417-13.465-1.004-13.465-1.004s2.857-0.423,9.512-0.805v-33.371   c0-1.156,0.945-2.102,2.102-2.102h7.111c1.154,0,2.102,0.946,2.102,2.102v32.878c0.106-0.003,0.205-0.008,0.313-0.011   c2.726-0.082,5.597-0.191,8.567-0.234c0.463-0.006,0.943-0.019,1.412-0.028v-22.91l5.654-13.163l5.658,13.163v22.764   c1.963-0.013,3.92-0.025,5.896-0.039c1.492,0.01,2.97,0.018,4.459,0.027v-20.7h15.199v20.906c2.496,0.056,4.924,0.121,7.238,0.197   v-18.771c0-1.39,0.566-3.516,1.264-4.72l0.226-0.396c0.461-0.797,1.289-1.493,2.139-1.876v-3.242c0-0.647,0.521-1.17,1.169-1.17   c0.651,0,1.174,0.523,1.174,1.17v3.146c0.94,0.343,1.912,1.059,2.459,1.893l0.359,0.555c0.764,1.156,1.393,3.25,1.393,4.64v4.881   h1.838h1.217h1.221v14.563c4.903,0.333,7.104,0.651,7.104,0.651S732.54-150.269,727.637-149.935z"/>
</g>
</svg>