<?xml version="1.0" encoding="utf-8"?>
<!-- Generator: Adobe Illustrator 14.0.0, SVG Export Plug-In . SVG Version: 6.00 Build 43363)  -->
<!DOCTYPE svg PUBLIC "-//W3C//DTD SVG 1.0//EN" "http://www.w3.org/TR/2001/REC-SVG-20010904/DTD/svg10.dtd">
<svg version="1.0" id="Layer_1" xmlns="http://www.w3.org/2000/svg" xmlns:xlink="http://www.w3.org/1999/xlink" x="0px" y="0px"
	 width="100px" height="99.387px" viewBox="0 0 100 99.387" enable-background="new 0 0 100 99.387" xml:space="preserve">
<path d="M2.104,0C2.104,0,2.103,0,2.102,0C2.101,0,2.1,0,2.099,0H2.082v0.001C1.127,0.012,0.356,0.788,0.356,1.745
	s0.771,1.733,1.725,1.744V3.49L100,12.454V0H2.104z"/>
<path d="M11.882,10.335c-6.365,0-11.525,5.16-11.525,11.525s5.16,11.525,11.525,11.525c6.366,0,11.526-5.16,11.526-11.525
	S18.248,10.335,11.882,10.335z M11.882,30.929c-5.008,0-9.068-4.06-9.068-9.068c0-5.008,4.06-9.068,9.068-9.068
	c5.009,0,9.068,4.06,9.068,9.068C20.95,26.869,16.891,30.929,11.882,30.929z"/>
<path d="M11.917,95.253H0v4.134h99.727v-4.134H83.881c2.355-1.577,3.908-4.26,3.908-7.307c0-1.899-0.608-3.65-1.631-5.086h11.732
	V65.743v-7.696h-6.165v7.696H79.263V43.578h14.528v-6.209H73.035v6.209v10.335h-22.82v-6.398c0-0.449-2.363-3.834-6.217-3.835
	c-3.857,0.001-6.219,3.388-6.219,3.835v6.398h-15.35V41.511h-8.293v12.403H4.578v28.945h5.061c-1.023,1.438-1.631,3.188-1.631,5.086
	C8.007,90.993,9.561,93.675,11.917,95.253L11.917,95.253z M39.114,87.947c0,3.047,1.552,5.729,3.909,7.307h-21.35
	c2.357-1.577,3.91-4.26,3.91-7.307c0-1.899-0.61-3.65-1.632-5.086h16.792C39.72,84.296,39.114,86.047,39.114,87.947z M74.125,95.252
	H52.778c2.355-1.577,3.908-4.26,3.908-7.308c0-1.898-0.607-3.65-1.63-5.086h16.79c-1.022,1.438-1.629,3.188-1.629,5.086
	C70.217,90.993,71.768,93.675,74.125,95.252z"/>
<path d="M14.641,18.662c-0.578,0.571-1.155,1.143-1.733,1.713c0-1.318,0-2.637,0-3.955c0-1.323-2.051-1.323-2.051,0
	c0,2.118,0,4.237,0,6.355c-0.001,0.05,0.002,0.1,0.009,0.149c0.036,0.446,0.312,0.728,0.656,0.84
	c0.323,0.144,0.71,0.125,1.042-0.174c0.011-0.009,0.022-0.017,0.033-0.027c0.003-0.003,0.007-0.004,0.01-0.008
	c1.161-1.148,2.323-2.295,3.484-3.443C17.034,19.182,15.583,17.732,14.641,18.662z"/>
</svg>
