<svg xmlns="http://www.w3.org/2000/svg" xmlns:xlink="http://www.w3.org/1999/xlink" version="1.1" id="Layer_1" x="0px" y="0px" width="91.852px" height="100px" viewBox="0 0 91.852 100" enable-background="new 0 0 91.852 100" xml:space="preserve">
<path d="M91.698,28.268l-7.402-7.4L65.942,39.223v-9.091c0,0,0-10.413-10.413-10.413c0,0-4.95,0-10.935,0  c0.184-0.828,0.29-1.683,0.29-2.565c0-6.569-5.344-11.914-11.914-11.914s-11.914,5.345-11.914,11.914  c0,0.881,0.102,1.738,0.285,2.565c-3.881,0-10.929,0-10.929,0S0,19.719,0,30.132v59.455C0,89.587,0,100,10.412,100h45.117  c0,0,10.413,0,10.413-10.413V54.023L91.698,28.268z M32.97,13.011c2.284,0,4.143,1.859,4.143,4.144s-1.859,4.143-4.143,4.143  c-2.285,0-4.144-1.858-4.144-4.143S30.685,13.011,32.97,13.011z M54.975,89.897H10.964v-60.5h44.011v20.792L39.83,65.335  l7.399,7.399l7.746-7.746V89.897z"/>
<polygon points="35.26,67.61 44.823,77.174 30.671,81.409 "/>
</svg>