<svg xmlns="http://www.w3.org/2000/svg" xmlns:xlink="http://www.w3.org/1999/xlink" version="1.1" id="Layer_1" x="0px" y="0px" width="91.852px" height="100px" viewBox="0 0 91.852 100" enable-background="new 0 0 91.852 100" xml:space="preserve">
<path d="M91.907,21.197l-6.754-6.754L68.237,31.359v-16.63H8.234v19.933H0v6.889h8.234v6.37H0v6.89h8.234v6.369H0v6.889h8.234V88  h60.003V44.868L91.907,21.197z M58.208,79.406h-40.17V68.068h7.927V61.18h-7.927v-6.369h7.927v-6.89h-7.927v-6.37h7.927v-6.889  h-7.927V24.186h40.17v17.204l-13.64,13.64l6.752,6.754l6.888-6.887V79.406z"/>
<polygon points="40.397,57.105 49.126,65.834 36.209,69.699 "/>
</svg>