<svg xmlns="http://www.w3.org/2000/svg" xmlns:xlink="http://www.w3.org/1999/xlink" version="1.1" id="Layer_1" x="0px" y="0px" width="91.852px" height="100px" viewBox="0 0 91.852 100" enable-background="new 0 0 91.852 100" xml:space="preserve">
<path d="M66.028,52.918v-5.651c0,0,0-9.041-9.041-9.041h-4.378V31.39c0-3.123-2.259-6.442-6.441-6.442H20.061  c-3.123,0-6.441,2.257-6.441,6.442v6.837H9.24c0,0-9.042,0-9.042,9.041v29.101c0,0,0,9.04,9.042,9.04h47.747c0,0,9.041,0,9.041-9.04  v-4.803h9.324V52.918H66.028z M20.4,31.729h25.428v6.498H20.4V31.729z M55.01,61.704c0,3.052-3.053,3.052-3.053,3.052H38.312  c-3.05,0-3.05-3.052-3.05-3.052v-8.051c0-3.051,3.05-3.051,3.05-3.051h13.646c3.053,0,3.053,3.051,3.053,3.051V61.704z"/>
<polygon points="91.873,40.205 91.873,82.998 78.041,76.083 78.041,48.683 "/>
</svg>