<svg xmlns="http://www.w3.org/2000/svg" xmlns:xlink="http://www.w3.org/1999/xlink" version="1.1" id="Layer_1" x="0px" y="0px" width="100px" height="100px" viewBox="0 0 100 100" enable-background="new 0 0 100 100" xml:space="preserve">
<path d="M50,5C25.15,5,5,25.15,5,50c0,24.85,20.15,45,45,45c24.85,0,45-20.15,45-45C95,25.15,74.85,5,50,5z M50,90  c-22.09,0-40-17.91-40-40s17.91-40,40-40s40,17.91,40,40S72.09,90,50,90z"/>
<path d="M52.5,15v10c0,1.38-1.12,2.5-2.5,2.5s-2.5-1.12-2.5-2.5V15c0-1.38,1.12-2.5,2.5-2.5S52.5,13.62,52.5,15z"/>
<path d="M52.5,79.5v5c0,1.38-1.12,2.5-2.5,2.5s-2.5-1.12-2.5-2.5v-5c0-1.38,1.12-2.5,2.5-2.5S52.5,78.12,52.5,79.5z"/>
<path d="M84.5,52.5h-5c-1.38,0-2.5-1.12-2.5-2.5s1.12-2.5,2.5-2.5h5c1.38,0,2.5,1.12,2.5,2.5S85.88,52.5,84.5,52.5z"/>
<path d="M19.5,52.5h-5c-1.38,0-2.5-1.12-2.5-2.5s1.12-2.5,2.5-2.5h5c1.38,0,2.5,1.12,2.5,2.5S20.88,52.5,19.5,52.5z"/>
<circle cx="75.481" cy="35.001" r="2.5"/>
<circle cx="23.52" cy="65.001" r="2.5"/>
<circle cx="64.5" cy="24.02" r="2.5"/>
<circle cx="34.5" cy="75.981" r="2.5"/>
<circle cx="34.5" cy="24.021" r="2.5"/>
<circle cx="64.5" cy="75.981" r="2.5"/>
<circle cx="23.52" cy="35.001" r="2.5"/>
<circle cx="75.48" cy="65" r="2.5"/>
<path d="M60.31,49.91L50.7,52.4c-0.966,0.283-2.301-0.09-2.8-1.04L37.03,34.57c-0.75-1.16-0.41-2.71,0.74-3.46  c1.16-0.75,2.71-0.42,3.46,0.74l9.89,15.28l7.93-2.06c1.34-0.34,2.71,0.46,3.05,1.79C62.45,48.2,61.64,49.57,60.31,49.91  C60.31,49.91,61.64,49.57,60.31,49.91z"/>
</svg>