<svg xmlns="http://www.w3.org/2000/svg" xmlns:xlink="http://www.w3.org/1999/xlink" version="1.1" id="Your_Icon" x="0px" y="0px" width="100px" height="100px" viewBox="0 0 100 100" enable-background="new 0 0 100 100" xml:space="preserve">
<path d="M50,14c19.851,0,36,16.149,36,36S69.851,86,50,86S14,69.851,14,50S30.149,14,50,14 M50,10c-22.092,0-40,17.909-40,40  c0,22.092,17.908,40,40,40s40-17.908,40-40C90,27.909,72.092,10,50,10L50,10z"/>
<path d="M50,44c3.309,0,6,2.691,6,6s-2.691,6-6,6s-6-2.691-6-6S46.691,44,50,44 M50,40c-5.523,0-10,4.477-10,10  c0,5.522,4.477,10,10,10c5.522,0,10-4.478,10-10C60,44.477,55.522,40,50,40L50,40z"/>
<path d="M72.63,27.37L59.9,40.1C62.43,42.64,64,46.14,64,50h18C82,41.16,78.42,33.16,72.63,27.37z"/>
<path d="M64.31,21.37l-8.05,16.11c0.75,0.38,1.471,0.82,2.141,1.32l10.8-14.4C67.67,23.24,66.03,22.23,64.31,21.37z"/>
</svg>