<svg xmlns="http://www.w3.org/2000/svg" xmlns:xlink="http://www.w3.org/1999/xlink" version="1.1" id="Your_Icon" x="0px" y="0px" width="100px" height="100px" viewBox="0 0 100 100" enable-background="new 0 0 100 100" xml:space="preserve">
<path d="M66,34.79l14.029-14.03C76.419,17.2,70.998,15,65.998,15c-11,0-19.96,8.96-19.96,20h-0.04c-11,0-19.96,8.96-19.96,20h-0.04  c-6,0-9.96,4-9.96,10H26v10h19.998c11,0,20.041-8.96,20.041-20H66V34.79z M71.038,20c1.1,0,2,0.9,2,2s-0.9,2-2,2c-1.11,0-2-0.9-2-2  S69.928,20,71.038,20z"/>
<path d="M81.033,21.929c3.906,3.905,3.905,10.237,0,14.142L73.962,29L81.033,21.929z"/>
<path d="M56.038,85h-20c0-5.52,4.96-10,9.96-10C51.998,75,56.038,79.48,56.038,85z"/>
</svg>