<svg xmlns="http://www.w3.org/2000/svg" xmlns:xlink="http://www.w3.org/1999/xlink" version="1.1" id="Your_Icon" x="0px" y="0px" width="100px" height="100px" viewBox="0 0 100 100" enable-background="new 0 0 100 100" xml:space="preserve">
<g>
	<path d="M80,12H20c-1.104,0-2-0.896-2-2s0.896-2,2-2h60c1.104,0,2,0.896,2,2S81.104,12,80,12z"/>
</g>
<g>
	<path d="M76,18H24c-1.104,0-2-0.896-2-2s0.896-2,2-2h52c1.104,0,2,0.896,2,2S77.104,18,76,18z"/>
</g>
<g>
	<path d="M72,24H28c-1.104,0-2-0.896-2-2s0.896-2,2-2h44c1.104,0,2,0.896,2,2S73.104,24,72,24z"/>
</g>
<g>
	<path d="M68,92c-1.104,0-2-0.896-2-2V30H34v60c0,1.104-0.896,2-2,2s-2-0.896-2-2V28c0-1.104,0.896-2,2-2h36c1.104,0,2,0.896,2,2v62   C70,91.104,69.104,92,68,92z"/>
</g>
<g>
	<path d="M50,92c-1.104,0-2-0.896-2-2V36c0-1.104,0.896-2,2-2s2,0.896,2,2v54C52,91.104,51.104,92,50,92z"/>
</g>
<g>
	<path d="M59,92c-1.104,0-2-0.896-2-2V36c0-1.104,0.896-2,2-2s2,0.896,2,2v54C61,91.104,60.104,92,59,92z"/>
</g>
<g>
	<path d="M41,92c-1.104,0-2-0.896-2-2V36c0-1.104,0.896-2,2-2s2,0.896,2,2v54C43,91.104,42.104,92,41,92z"/>
</g>
</svg>