<svg xmlns="http://www.w3.org/2000/svg" xmlns:xlink="http://www.w3.org/1999/xlink" version="1.1" id="Your_Icon" x="0px" y="0px" width="100px" height="100px" viewBox="0 0 100 100" enable-background="new 0 0 100 100" xml:space="preserve">
<g>
	<path d="M91.93,29.49c-0.14-0.56-0.52-1.02-1.04-1.28l-20-10C70.62,18.07,70.31,18,70,18H59c-1.1,0-2,0.9-2,2c0,3.86-3.14,7-7,7   c-3.86,0-7-3.14-7-7c0-1.1-0.9-2-2-2H30c-0.31,0-0.62,0.07-0.89,0.21l-20,10c-0.52,0.26-0.9,0.72-1.04,1.28   c-0.15,0.55-0.05,1.14,0.27,1.62l10,15c0.48,0.73,1.39,1.06,2.23,0.81L28,44.69V80c0,1.1,0.9,2,2,2h40c1.1,0,2-0.9,2-2V44.69   l7.43,2.23C79.62,46.97,79.81,47,80,47c0.66,0,1.29-0.32,1.66-0.89l10-15C91.98,30.63,92.08,30.04,91.93,29.49z M79.16,42.66   L72,40.51V38c0-1.1-0.9-2-2-2s-2,0.9-2,2v40H32V38c0-1.1-0.9-2-2-2s-2,0.9-2,2v2.51l-7.16,2.15l-7.92-11.88L30.47,22h8.71   c0.94,5.11,5.44,9,10.82,9s9.88-3.89,10.82-9h8.71l17.55,8.78L79.16,42.66z"/>
</g>
</svg>