<svg xmlns="http://www.w3.org/2000/svg" xmlns:xlink="http://www.w3.org/1999/xlink" version="1.1" id="Your_Icon" x="0px" y="0px" width="100px" height="100px" viewBox="0 0 100 100" enable-background="new 0 0 100 100" xml:space="preserve">
<path d="M50,85c-12.131,0-22-9.869-22-22V22c0-3.86,3.14-7,7-7s7,3.14,7,7v17.676C42.91,39.243,43.927,39,45,39  c2.801,0,5.222,1.653,6.341,4.035C52.406,42.378,53.659,42,55,42c2.801,0,5.223,1.653,6.341,4.035C62.406,45.378,63.659,45,65,45  c3.859,0,7,3.14,7,7v11C72,75.131,62.131,85,50,85z M35,19c-1.654,0-3,1.346-3,3v41c0,9.925,8.075,18,18,18c9.925,0,18-8.075,18-18  V52c0-1.654-1.346-3-3-3s-3,1.346-3,3c0,1.104-0.896,2-2,2s-2-0.896-2-2v-3c0-1.654-1.346-3-3-3s-3,1.346-3,3c0,1.104-0.896,2-2,2  s-2-0.896-2-2v-3c0-1.654-1.346-3-3-3s-3,1.346-3,3c0,1.104-0.896,2-2,2s-2-0.896-2-2V22C38,20.346,36.654,19,35,19z"/>
</svg>