<?xml version="1.0" encoding="utf-8"?>
<!-- Generator: Adobe Illustrator 14.0.0, SVG Export Plug-In . SVG Version: 6.00 Build 43363)  -->
<!DOCTYPE svg PUBLIC "-//W3C//DTD SVG 1.0//EN" "http://www.w3.org/TR/2001/REC-SVG-20010904/DTD/svg10.dtd">
<svg version="1.0" id="Layer_1" xmlns="http://www.w3.org/2000/svg" xmlns:xlink="http://www.w3.org/1999/xlink" x="0px" y="0px"
	 width="100px" height="33.285px" viewBox="0 0 100 33.285" enable-background="new 0 0 100 33.285" xml:space="preserve">
<path d="M22.481,33.285L22.481,33.285c-0.003,0-0.008,0-0.011,0l0,0c-3.109-0.008-5.623-2.526-5.625-5.635l0,0
	c0-0.024,0-0.044,0-0.062l0,0c0.031-3.088,2.541-5.579,5.635-5.58l0,0c3.112,0.001,5.634,2.523,5.635,5.636l0,0
	c0,0.005,0,0.009,0,0.019l0,0C28.108,30.77,25.589,33.285,22.481,33.285L22.481,33.285L22.481,33.285z M22.474,29.587
	c0.003,0,0.004,0,0.008,0l0,0c1.066,0,1.934-0.866,1.936-1.928l0,0c0-0.007,0-0.011,0-0.016l0,0
	c-0.001-1.068-0.868-1.935-1.936-1.936l0,0c-1.068,0.001-1.934,0.867-1.935,1.936l0,0v0.046v0.003
	C20.567,28.74,21.424,29.585,22.474,29.587L22.474,29.587L22.474,29.587L22.474,29.587z"/>
<path d="M72.668,33.285L72.668,33.285c-0.005,0-0.008,0-0.012,0l0,0c-3.109-0.006-5.623-2.526-5.624-5.635l0,0
	c0-0.001,0-0.003,0-0.006l0,0l0,0c0.001-3.114,2.523-5.635,5.637-5.636l0,0c3.112,0.001,5.632,2.521,5.635,5.634l0,0l0,0v0.002
	c0,0.005,0,0.009,0,0.019l0,0C78.295,30.772,75.775,33.285,72.668,33.285L72.668,33.285L72.668,33.285z M72.66,29.585
	c0.002,0,0.006,0,0.008,0l0,0c1.065,0.002,1.935-0.864,1.936-1.926l0,0c0-0.007,0-0.011,0-0.016l0,0
	c-0.001-1.068-0.867-1.935-1.935-1.938l0,0c-1.068,0.003-1.935,0.869-1.937,1.938l0,0v0.055
	C70.757,28.743,71.612,29.584,72.66,29.585L72.66,29.585L72.66,29.585L72.66,29.585z"/>
<path d="M94.777,0.001l-19.233,0.03L63.291,0.061L51.03,0.083L38.77,0.113L26.516,0.136L3.368,0.047
	c-0.788,0.057-1.42,0.565-1.455,1.3l-0.59,13.303L0,15.668v6.506l0.023,4.994c-0.024,1.325,0.976,2.032,1.972,2.06h14.321
	c-0.128-0.504-0.197-1.031-0.197-1.576c0-0.029,0-0.053,0.001-0.069c0.034-3.487,2.868-6.302,6.361-6.303
	c3.515,0.001,6.361,2.85,6.363,6.362v0.023c-0.001,0.538-0.07,1.062-0.198,1.562h21.129l16.739,0.043
	c-0.135-0.518-0.208-1.061-0.208-1.619v-0.01c0.001-3.513,2.848-6.361,6.363-6.361c3.514,0,6.359,2.847,6.361,6.361v0.023
	c-0.002,0.57-0.079,1.123-0.222,1.647l21.072-4.187L100,4.574C100.033,2.24,97.12-0.069,94.777,0.001z M12.365,24.37
	c0,0.784-0.633,1.417-1.418,1.417H7.408c-0.786,0-1.418-0.633-1.418-1.417V6.51c0-0.787,0.633-1.418,1.418-1.418h3.538
	c0.786,0,1.418,0.632,1.418,1.418V24.37z M34.079,12.27c0,0.786-0.632,1.418-1.418,1.418h-14.61c-0.785,0-1.417-0.632-1.417-1.418
	V6.45c0-0.786,0.632-1.418,1.417-1.418h14.61c0.786,0,1.418,0.633,1.418,1.418V12.27z M54.953,12.27
	c0,0.786-0.633,1.418-1.419,1.418H38.925c-0.786,0-1.418-0.632-1.418-1.418V6.45c0-0.786,0.632-1.418,1.418-1.418h14.609
	c0.786,0,1.419,0.633,1.419,1.418V12.27z M75.759,12.27c0,0.786-0.632,1.418-1.418,1.418H59.738c-0.784,0-1.418-0.632-1.418-1.418
	V6.45c0-0.786,0.634-1.418,1.418-1.418h14.603c0.786,0,1.418,0.633,1.418,1.418V12.27z M96.456,12.27
	c0,0.786-0.634,1.418-1.419,1.418H80.428c-0.786,0-1.419-0.632-1.419-1.418V6.45c0-0.786,0.633-1.418,1.419-1.418h11.93
	c2.401,0,4.099,1.483,4.099,2.992V12.27z"/>
</svg>
