<?xml version="1.0" encoding="utf-8"?>
<!-- Generator: Adobe Illustrator 14.0.0, SVG Export Plug-In . SVG Version: 6.00 Build 43363)  -->
<!DOCTYPE svg PUBLIC "-//W3C//DTD SVG 1.0//EN" "http://www.w3.org/TR/2001/REC-SVG-20010904/DTD/svg10.dtd">
<svg version="1.0" id="Layer_1" xmlns="http://www.w3.org/2000/svg" xmlns:xlink="http://www.w3.org/1999/xlink" x="0px" y="0px"
	 width="68.906px" height="100px" viewBox="0 0 68.906 100" enable-background="new 0 0 68.906 100" xml:space="preserve">
<path d="M0.018,64.903c-0.336-8.457,4.174-15.476,8.626-21.229l0.614-0.817c1.459-1.979,2.42-3.287,6.861-2.978
	c3.4,0.242,6.834,2.778,6.834,7.17c0,0.011,0,0.021,0,0.035c-0.014,2.642-1.74,5.013-3.564,7.514
	c-2.221,3.041-4.736,6.482-4.736,11.166c0,1.34,0.295,2.378,0.583,3.371c0.277,0.979,0.54,1.897,0.54,3.083
	c0,4.034-3.41,7.318-7.598,7.318C3.146,79.536,0.404,74.61,0.018,64.903z"/>
<path d="M22.15,100c-5.561,0-10.086-4.518-10.086-10.077c0-5.561,4.525-10.078,10.086-10.078c5.556,0,10.078,4.518,10.078,10.078
	C32.228,95.482,27.706,100,22.15,100z"/>
<path d="M46.929,100c-5.561,0-10.085-4.518-10.085-10.077c0-5.561,4.524-10.078,10.085-10.078c5.56,0,10.085,4.518,10.085,10.078
	C57.014,95.482,52.489,100,46.929,100z"/>
<path d="M60.725,79.536c-4.188,0-7.598-3.284-7.598-7.318c0-1.186,0.264-2.104,0.54-3.083c0.291-0.993,0.583-2.031,0.583-3.371
	c0-4.684-2.512-8.125-4.733-11.166c-1.827-2.505-3.55-4.872-3.563-7.514c0-0.014,0-0.024,0-0.035c0-4.392,3.431-6.928,6.834-7.17
	c4.434-0.309,5.398,1,6.857,2.978l0.617,0.817c4.452,5.753,8.953,12.772,8.627,21.229C68.5,74.61,65.752,79.536,60.725,79.536z"/>
<path d="M52.938,0.018c-7.767-0.379-9.261,5.371-9.261,5.371s-3.6-2.203-9.222-2.203c-5.626,0-9.229,2.203-9.229,2.203
	s-1.491-5.75-9.258-5.371c-4.525,0.217-8.215,3.999-8.215,8.531c0,4.244,2.789,9.941,7.338,10.085l0.586,0.018
	c-0.137,0.772-0.183,2.922-0.183,3.49c0,10.457,8.507,18.971,18.96,18.971c10.45,0,18.957-8.514,18.957-18.971
	c0-0.568-0.049-2.718-0.179-3.49l0.579-0.018c4.553-0.144,7.345-5.841,7.345-10.085C61.157,4.017,57.463,0.235,52.938,0.018z
	 M24.248,21.083c0-1.386,1.129-2.515,2.519-2.515c1.389,0,2.519,1.129,2.519,2.515c0,1.396-1.13,2.519-2.519,2.519
	C25.377,23.602,24.248,22.479,24.248,21.083z M42.867,32.284c-0.066,0.147-1.624,3.582-4.925,3.582
	c-1.428,0-2.592-0.337-3.494-0.958c-0.943,0.572-2.119,0.874-3.532,0.874c-3.606,0-5.3-3.284-5.367-3.417
	c-0.382-0.75-0.084-1.67,0.659-2.056c0.748-0.393,1.673-0.102,2.066,0.649c0.007,0.018,0.933,1.754,2.641,1.754
	c1.203,0,1.813-0.294,2.087-0.495c0-0.358,0-1.796,0-2.413c-1.049-0.239-1.828-1.179-1.828-2.287c0-1.288,1.049-2.343,2.34-2.343
	l2.136-0.018c1.218,0,2.252,1.084,2.252,2.361c0,1.105-0.803,2.017-1.831,2.213c0,0.652,0,2.276,0,2.592
	c0.214,0.186,0.723,0.477,1.87,0.477c1.298,0,2.118-1.744,2.122-1.758c0.168-0.375,0.474-0.67,0.855-0.81
	c0.383-0.147,0.8-0.13,1.172,0.039C42.656,30.519,43,31.081,43,31.669C43,31.876,42.955,32.083,42.867,32.284z M42.175,23.602
	c-1.385,0-2.515-1.123-2.515-2.519c0-1.386,1.13-2.515,2.515-2.515c1.393,0,2.522,1.129,2.522,2.515
	C44.698,22.479,43.568,23.602,42.175,23.602z"/>
</svg>
