<svg xmlns="http://www.w3.org/2000/svg" xmlns:xlink="http://www.w3.org/1999/xlink" version="1.1" id="Layer_1" x="0px" y="0px" width="100px" height="100px" viewBox="0 0 100 100" enable-background="new 0 0 100 100" xml:space="preserve">
<path d="M85.078,60.037c-1.183-0.92-4.85-3.4-11.201-7.655c-1.156-0.774-2.06-1.38-2.461-1.653  c-1.889-1.288-3.901-1.942-5.977-1.942c-1.58,0-5.24,0.45-8.017,4.232c-1.788-1.733-3.806-3.746-5.585-5.568l-0.066-0.069  l-0.07-0.067c-1.822-1.779-3.834-3.797-5.568-5.585c2.508-1.841,3.536-4.051,3.949-5.708c0.399-1.599,0.714-4.801-1.66-8.286  c-0.271-0.397-0.873-1.297-1.644-2.448c-4.26-6.358-6.743-10.029-7.666-11.216c-2.708-3.487-5.865-4.221-8.037-4.221  c-1.774,0-3.199,0.484-4.239,0.837l-0.342,0.116c-2.523,0.839-5.117,1.917-9.02,5.821c-7.533,7.536-8.745,16.4-3.818,27.899  c4.714,10.999,15.983,22.45,17.253,23.719S43.63,80.781,54.629,85.496c4.646,1.99,8.756,2.959,12.564,2.959  c5.758,0,10.773-2.217,15.335-6.777c3.9-3.9,4.979-6.493,5.822-9.023l0.114-0.339C89.106,70.427,91.059,64.681,85.078,60.037z   M80.761,70.126c-0.53,1.592-1.061,3.066-3.889,5.895c-2.622,2.622-5.515,4.435-9.679,4.435c-2.574,0-5.633-0.692-9.413-2.312  c-9.9-4.243-21.214-15.558-21.214-15.558S25.253,51.271,21.01,41.372c-4.242-9.9-2.121-14.848,2.122-19.092  c2.828-2.828,4.303-3.359,5.895-3.889c0.901-0.3,1.518-0.542,2.049-0.542c0.588,0,1.073,0.295,1.722,1.131  c1.227,1.578,7.888,11.604,9.014,13.258c1.003,1.473,0.653,2.547-1.118,3.477c-2.474,1.295-6.497,3.898-5.541,5.656  c1.122,2.062,10.961,11.666,10.961,11.666S55.718,62.879,57.78,64c0.181,0.099,0.37,0.145,0.567,0.145  c1.711,0,3.926-3.467,5.089-5.686c0.588-1.121,1.233-1.673,2.003-1.673c0.445,0,0.933,0.186,1.474,0.555  c1.653,1.126,11.68,7.787,13.259,9.015C81.763,67.591,81.394,68.229,80.761,70.126z"/>
</svg>