<svg xmlns="http://www.w3.org/2000/svg" xmlns:xlink="http://www.w3.org/1999/xlink" version="1.1" id="Layer_1" x="0px" y="0px" width="100px" height="100px" viewBox="0 0 100 100" enable-background="new 0 0 100 100" xml:space="preserve">
<path d="M87.895,29.135c-1.434-0.646-3.112-0.394-4.291,0.647l-14.629,12.91v-9.157c0-4.418-3.582-8-8-8H17.75c-4.418,0-8,3.582-8,8  V66.8c0,4.418,3.582,8,8,8h43.225c4.418,0,8-3.582,8-8v-9.427L83.533,70.85c0.754,0.698,1.729,1.064,2.718,1.064  c0.54,0,1.085-0.109,1.601-0.335c1.457-0.637,2.398-2.075,2.398-3.665V32.781C90.25,31.208,89.328,29.781,87.895,29.135z   M60.975,66.8H17.75V33.535h43.225V66.8z M82.25,58.761l-9.465-8.762l9.465-8.353V58.761z"/>
</svg>