<svg xmlns="http://www.w3.org/2000/svg" xmlns:xlink="http://www.w3.org/1999/xlink" version="1.1" id="Layer_1" x="0px" y="0px" width="100px" height="100px" viewBox="0 0 100 100" enable-background="new 0 0 100 100" xml:space="preserve">
<path d="M50,21.25c18.514,0,33.523,11.328,33.523,25.301c0,6.326-3.076,12.11-8.162,16.546c-2.402,2.096,0.807,12.168-2.381,13.577  c-0.191,0.085-0.416,0.124-0.67,0.124c-3.086,0-10.432-5.788-13.496-5.788c-0.134,0-0.258,0.011-0.375,0.033  c-2.695,0.527-5.524,0.809-8.439,0.809c-18.516,0-33.523-11.327-33.523-25.301C16.477,32.578,31.484,21.25,50,21.25 M50,13.25  c-10.684,0-20.812,3.205-28.524,9.025C13.215,28.51,8.477,37.358,8.477,46.551s4.738,18.041,12.999,24.276  c7.711,5.819,17.841,9.024,28.524,9.024c2.837,0,5.664-0.229,8.424-0.679c0.922,0.434,2.313,1.206,3.232,1.717  c3.619,2.01,7.036,3.908,10.654,3.908c1.381,0,2.695-0.272,3.906-0.808c6.66-2.944,6.385-10.326,6.222-14.736  c-0.02-0.523-0.044-1.189-0.052-1.774c5.91-5.888,9.137-13.238,9.137-20.929c0-9.192-4.738-18.041-13-24.275  C70.812,16.455,60.682,13.25,50,13.25L50,13.25z"/>
</svg>