<svg xmlns="http://www.w3.org/2000/svg" xmlns:xlink="http://www.w3.org/1999/xlink" version="1.1" id="Layer_1" x="0px" y="0px" width="100px" height="100px" viewBox="0 0 100 100" enable-background="new 0 0 100 100" xml:space="preserve">
<path d="M82.75,9.277h-53.5c-4.418,0-8,3.582-8,8v5.667h-3.667c-4.418,0-8,3.582-8,8v42.125c0,4.418,3.582,8,8,8h22.009l6.322,6.639  c1.486,1.561,3.54,2.455,5.695,2.481c0.032,0.001,0.065,0.001,0.098,0.001c2.12,0,4.155-0.842,5.656-2.343l6.779-6.778h4.94  c4.418,0,8-3.582,8-8v-5.667h5.666c4.419,0,8-3.582,8-8V17.277C90.75,12.858,87.169,9.277,82.75,9.277z M69.084,73.069H60.83  l-9.122,9.121l-8.687-9.121H17.583V30.944h3.667h8h39.834v28.458v8V73.069z M82.75,59.402h-5.666V30.944c0-4.418-3.582-8-8-8H29.25  v-5.667h53.5V59.402z"/>
</svg>