<svg xmlns="http://www.w3.org/2000/svg" xmlns:xlink="http://www.w3.org/1999/xlink" version="1.1" id="Layer_1" x="0px" y="0px" width="100px" height="100px" viewBox="0 0 100 100" enable-background="new 0 0 100 100" xml:space="preserve">
<g>
	<path d="M81.417,18.943h-63.5c-4.418,0-8,3.582-8,8v42.125c0,4.418,3.582,8,8,8h36.009l6.323,6.639   c1.486,1.561,3.54,2.455,5.695,2.481c0.032,0.001,0.065,0.001,0.098,0.001c2.12,0,4.155-0.842,5.656-2.343l6.779-6.778h2.939   c4.418,0,8-3.582,8-8V26.943C89.417,22.525,85.835,18.943,81.417,18.943z M81.417,69.068h-6.253l-9.122,9.121l-8.688-9.121H17.917   V26.943h63.5V69.068z"/>
	<path d="M39.332,52H46v6.668c0,2.209,1.791,4,4,4s4-1.791,4-4V52h6.668c2.209,0,4-1.791,4-4s-1.791-4-4-4H54v-6.667   c0-2.209-1.791-4-4-4s-4,1.791-4,4V44h-6.668c-2.209,0-4,1.791-4,4S37.123,52,39.332,52z"/>
</g>
</svg>