<svg xmlns="http://www.w3.org/2000/svg" xmlns:xlink="http://www.w3.org/1999/xlink" version="1.1" id="Layer_1" x="0px" y="0px" width="100px" height="100px" viewBox="0 0 100 100" enable-background="new 0 0 100 100" xml:space="preserve">
<g>
	<path d="M50.333,24.866l5.902,18.164h19.099L59.883,54.255l5.901,18.163L50.333,61.192L34.883,72.418l5.901-18.163L25.333,43.029   h19.098L50.333,24.866 M75.334,43.029h0.004 M50.333,16.866c-3.466,0-6.538,2.231-7.608,5.528l-4.106,12.636H25.333   c-3.466,0-6.538,2.231-7.608,5.528s0.102,6.907,2.906,8.944l10.749,7.809l-4.105,12.636c-1.071,3.296,0.103,6.906,2.906,8.944   c1.402,1.018,3.052,1.527,4.702,1.527c1.65,0,3.3-0.509,4.702-1.528l10.749-7.809l10.749,7.809   c1.402,1.019,3.052,1.528,4.702,1.528s3.3-0.509,4.702-1.527c2.804-2.038,3.978-5.648,2.906-8.944l-4.105-12.636l10.639-7.729   c2.062-1.447,3.41-3.842,3.41-6.552c0-4.418-3.579-8-7.998-8h-0.004H62.048l-4.106-12.636   C56.871,19.097,53.799,16.866,50.333,16.866L50.333,16.866z"/>
</g>
</svg>