<svg xmlns="http://www.w3.org/2000/svg" xmlns:xlink="http://www.w3.org/1999/xlink" version="1.1" id="Layer_1" x="0px" y="0px" width="100px" height="100px" viewBox="0 0 100 100" enable-background="new 0 0 100 100" xml:space="preserve">
<g>
	<path d="M77.5,10.655H29.333c-3.354,0-6.272,1.151-8.438,3.328c-2.074,2.085-3.277,5.034-3.357,8.137   c-0.012,0.123-0.037,0.242-0.037,0.368v54c0,0.112,0.024,0.219,0.033,0.328c-0.002,0.098-0.013,0.194-0.013,0.292   c0,5.759,4.14,11.88,11.812,11.88H77.5c2.209,0,4-1.791,4-4V14.655C81.5,12.446,79.709,10.655,77.5,10.655z M73.5,80.988H29.333   c-3.629,0-3.812-3.232-3.812-3.88c0-0.889,0.275-3.786,3.812-3.786H73.5V80.988z M73.5,65.322H29.333   c-1.4,0-2.676,0.199-3.833,0.551V22.682c0.004-0.073,0.021-0.141,0.021-0.215c-0.006-1.132,0.375-2.167,1.046-2.842   c0.641-0.644,1.571-0.97,2.767-0.97H73.5V65.322z"/>
	<path d="M35.833,33.989h26.5c2.209,0,4-1.791,4-4s-1.791-4-4-4h-26.5c-2.209,0-4,1.791-4,4S33.624,33.989,35.833,33.989z"/>
	<path d="M35.833,47.989h26.5c2.209,0,4-1.791,4-4s-1.791-4-4-4h-26.5c-2.209,0-4,1.791-4,4S33.624,47.989,35.833,47.989z"/>
</g>
</svg>