<svg xmlns="http://www.w3.org/2000/svg" xmlns:xlink="http://www.w3.org/1999/xlink" version="1.1" id="Layer_1" x="0px" y="0px" width="100px" height="100px" viewBox="0 0 100 100" enable-background="new 0 0 100 100" xml:space="preserve">
<path d="M82,18.499c0-0.126-0.025-0.245-0.037-0.368c-0.08-3.104-1.283-6.052-3.357-8.137c-2.166-2.177-5.084-3.328-8.438-3.328  H63.25c-2.209,0-4,1.791-4,4v4.584H22c-2.209,0-4,1.791-4,4V86c0,2.209,1.791,4,4,4h48.167c3.534,0,6.678-1.356,8.851-3.819  c1.91-2.164,2.962-5.027,2.962-8.062c0-0.098-0.011-0.194-0.013-0.292C81.976,77.718,82,77.611,82,77.499V18.499z M67.25,14.666  h2.917c1.195,0,2.126,0.326,2.767,0.97c0.671,0.674,1.052,1.71,1.046,2.842c0,0.074,0.017,0.142,0.021,0.215v48.191  c-1.157-0.352-2.433-0.551-3.833-0.551H67.25V14.666z M70.167,82H26V23.25h33.25v6.25H36.168c-2.209,0-4,1.791-4,4s1.791,4,4,4  H59.25v6.333H36.168c-2.209,0-4,1.791-4,4s1.791,4,4,4H59.25v18.501c0,2.209,1.899,4,4.108,4h6.809c3.537,0,3.812,2.898,3.812,3.786  C73.979,78.768,73.796,82,70.167,82z"/>
</svg>