<svg xmlns="http://www.w3.org/2000/svg" xmlns:xlink="http://www.w3.org/1999/xlink" version="1.1" id="Layer_1" x="0px" y="0px" width="100px" height="100px" viewBox="0 0 100 100" enable-background="new 0 0 100 100" xml:space="preserve">
<g>
	<circle cx="74.161" cy="51.268" r="4"/>
	<path d="M82.111,36.287H76.09c0.008-0.144,0.021-0.286,0.021-0.432V20.353c0-4.418-3.582-8-8-8H32.084c-4.418,0-8,3.582-8,8v15.502   c0,0.146,0.014,0.288,0.021,0.432h-6.021c-4.418,0-8,3.582-8,8v24.898c0,4.418,3.582,8,8,8h6v3.67c0,4.418,3.582,8,8,8h36.027   c4.418,0,8-3.582,8-8v-3.67h6c4.418,0,8-3.582,8-8V44.287C90.111,39.868,86.529,36.287,82.111,36.287z M32.084,20.353h36.027   v15.502H32.084V20.353z M68.111,69.185v8v3.67H32.084v-3.67v-8v-3.832h36.027V69.185z M82.111,69.185h-6V58.353h-8H32.084h-8   v10.832h-6V44.287h64.027V69.185z"/>
</g>
</svg>