<svg xmlns="http://www.w3.org/2000/svg" xmlns:xlink="http://www.w3.org/1999/xlink" version="1.1" id="Layer_1" x="0px" y="0px" width="100px" height="100px" viewBox="0 0 100 100" enable-background="new 0 0 100 100" xml:space="preserve">
<g>
	<path d="M73.4,9.065H25.775c-4.418,0-8,3.582-8,8v63.501c0,4.418,3.582,8,8,8H73.4c4.418,0,8-3.582,8-8V17.065   C81.4,12.647,77.818,9.065,73.4,9.065z M73.4,80.566H25.775V17.065H73.4V80.566z"/>
	<path d="M35.833,31.989h26.5c2.209,0,4-1.791,4-4s-1.791-4-4-4h-26.5c-2.209,0-4,1.791-4,4S33.624,31.989,35.833,31.989z"/>
	<path d="M35.833,45.989h26.5c2.209,0,4-1.791,4-4s-1.791-4-4-4h-26.5c-2.209,0-4,1.791-4,4S33.624,45.989,35.833,45.989z"/>
	<path d="M35.833,60.489h9.5c2.209,0,4-1.791,4-4s-1.791-4-4-4h-9.5c-2.209,0-4,1.791-4,4S33.624,60.489,35.833,60.489z"/>
</g>
</svg>