<?xml version="1.0" encoding="utf-8"?>
<!-- Generator: Adobe Illustrator 14.0.0, SVG Export Plug-In . SVG Version: 6.00 Build 43363)  -->
<!DOCTYPE svg PUBLIC "-//W3C//DTD SVG 1.0//EN" "http://www.w3.org/TR/2001/REC-SVG-20010904/DTD/svg10.dtd">
<svg version="1.0" id="Layer_1" xmlns="http://www.w3.org/2000/svg" xmlns:xlink="http://www.w3.org/1999/xlink" x="0px" y="0px"
	 width="100px" height="90.481px" viewBox="0 0 100 90.481" enable-background="new 0 0 100 90.481" xml:space="preserve">
<path id="path3134_2_" d="M80.775,57.361h15.291v-10.25h-9.919L80.775,57.361"/>
<path id="path3136_2_" d="M68.805,42.02V31.748H50.367V42.02H68.805z"/>
<path id="path3138_2_" d="M60.612,29.696V17.392h-2.052v12.304H60.612z"/>
<path id="path3140_2_" d="M26.119,51.219L40.295,7.25l20.317,8.129v-2.05L33.96,0L8.686,51.222h17.433"/>
<path d="M87.603,86.132c-3.027,0-5.905-0.649-8.506-1.808c-1.429-0.637-2.775-1.423-4.015-2.349
	c-1.239,0.926-2.586,1.712-4.015,2.349c-2.602,1.158-5.478,1.808-8.505,1.808s-5.903-0.649-8.505-1.808
	c-1.429-0.637-2.775-1.423-4.015-2.349c-1.24,0.926-2.586,1.712-4.014,2.349c-2.602,1.158-5.479,1.808-8.505,1.808
	c-3.027,0-5.904-0.649-8.505-1.808c-1.428-0.637-2.775-1.423-4.015-2.349c-1.239,0.926-2.586,1.712-4.014,2.349
	c-2.602,1.158-5.478,1.808-8.505,1.808c-4.673,0-8.993-1.537-12.484-4.13v5.182c3.687,2.098,7.948,3.298,12.484,3.298
	c4.551,0,8.825-1.207,12.52-3.318c3.695,2.111,7.969,3.318,12.52,3.318c4.55,0,8.825-1.207,12.52-3.318
	c3.694,2.111,7.969,3.318,12.52,3.318s8.825-1.207,12.52-3.318c3.695,2.111,7.969,3.318,12.521,3.318
	c4.501,0,8.73-1.182,12.397-3.25v-5.169C96.524,84.618,92.237,86.132,87.603,86.132z"/>
<path d="M78.612,61.47l-3.211,6.141H34.529l-8.41-6.141H0l12.91,20.398c2.871-0.058,5.6-0.692,8.08-1.797
	c1.428-0.637,2.775-1.423,4.014-2.348c1.239,0.925,2.586,1.711,4.015,2.348c2.601,1.159,5.478,1.809,8.505,1.809
	c3.027,0,5.903-0.649,8.505-1.809c1.428-0.637,2.774-1.423,4.014-2.348c1.239,0.925,2.586,1.711,4.015,2.348
	c2.602,1.159,5.478,1.809,8.505,1.809s5.903-0.649,8.505-1.809c1.429-0.637,2.775-1.423,4.015-2.348
	c1.239,0.925,2.586,1.711,4.015,2.348c2.601,1.159,5.479,1.809,8.506,1.809c4.635,0,8.922-1.514,12.397-4.069v-2.477V61.47H78.612z"
	/>
</svg>
