<svg xmlns="http://www.w3.org/2000/svg" xmlns:xlink="http://www.w3.org/1999/xlink" version="1.1" id="Layer_1" x="0px" y="0px" width="100px" height="100px" viewBox="0 0 100 100" enable-background="new 0 0 100 100" xml:space="preserve">
<path d="M88.898,20.725l-9.31-9.311c-0.75-0.75-1.768-1.171-2.828-1.171c-1.062,0-2.079,0.421-2.828,1.171l-2.257,2.257  c-1.454-1.98-3.795-3.266-6.441-3.266H17.609c-4.418,0-8,3.582-8,8v63.501c0,4.418,3.582,8,8,8h47.625c4.418,0,8-3.582,8-8V42.047  l15.664-15.665C90.462,24.819,90.462,22.287,88.898,20.725z M67.629,29.031l3.654,3.654L43.258,60.71l-6.867,3.214l3.214-6.867  L67.629,29.031z M65.234,81.906H17.609V18.405h47.625v1.708L33.451,51.896c-0.329,0.328-0.598,0.712-0.795,1.133l-8.189,17.5  c-0.714,1.524-0.396,3.333,0.795,4.523c0.767,0.768,1.79,1.172,2.829,1.172c0.573,0,1.152-0.123,1.694-0.377l17.5-8.189  c0.421-0.197,0.805-0.466,1.133-0.795l16.816-16.816V81.906z M76.939,27.027l-3.654-3.653l3.476-3.475l3.653,3.654L76.939,27.027z"/>
</svg>