<svg xmlns="http://www.w3.org/2000/svg" xmlns:xlink="http://www.w3.org/1999/xlink" version="1.1" id="Layer_1" x="0px" y="0px" width="100px" height="100px" viewBox="0 0 100 100" enable-background="new 0 0 100 100" xml:space="preserve">
<g>
	<path d="M82.5,39h-6.44c-0.045-0.032-0.081-0.072-0.127-0.102L31.516,9.981c-1.852-1.206-4.33-0.681-5.535,1.169   c-1.206,1.852-0.682,4.33,1.169,5.535L61.427,39H18.275c-4.418,0-8,3.582-8,8v34.066c0,4.418,3.582,8,8,8H82.5c4.418,0,8-3.582,8-8   V47C90.5,42.582,86.918,39,82.5,39z M82.5,81.066H18.275V47H82.5V81.066z"/>
	<circle cx="72.167" cy="57.583" r="4"/>
	<path d="M28.5,61.583H61c2.209,0,4-1.791,4-4s-1.791-4-4-4H28.5c-2.209,0-4,1.791-4,4S26.291,61.583,28.5,61.583z"/>
</g>
</svg>