<svg xmlns="http://www.w3.org/2000/svg" xmlns:xlink="http://www.w3.org/1999/xlink" version="1.1" id="Layer_1" x="0px" y="0px" width="100px" height="100px" viewBox="0 0 100 100" enable-background="new 0 0 100 100" xml:space="preserve">
<path d="M82.112,16.166H17.888c-4.418,0-8,3.582-8,8V67.15c0,4.418,3.582,8,8,8h20.754l-3.524,8.362  c-0.521,1.235-0.388,2.649,0.354,3.766c0.741,1.117,1.992,1.788,3.333,1.788h23c1.335,0,2.583-0.667,3.325-1.777  c0.742-1.111,0.881-2.519,0.37-3.753l-3.473-8.386h20.085c4.419,0,8-3.582,8-8V24.166C90.112,19.748,86.531,16.166,82.112,16.166z   M55.818,81.066H44.83l2.493-5.916h6.046L55.818,81.066z M82.112,67.15H17.888V24.166h64.225V67.15z"/>
</svg>