<svg xmlns="http://www.w3.org/2000/svg" xmlns:xlink="http://www.w3.org/1999/xlink" version="1.1" id="Layer_1" x="0px" y="0px" width="100px" height="100px" viewBox="0 0 100 100" enable-background="new 0 0 100 100" xml:space="preserve">
<g>
	<path d="M82.062,15.125H17.838c-4.418,0-8,3.582-8,8v42.983c0,4.418,3.582,8,8,8h64.225c4.418,0,8-3.582,8-8V23.125   C90.062,18.707,86.48,15.125,82.062,15.125z M82.062,66.108H17.838V23.125h64.225V66.108z"/>
	<path d="M85.799,76.875H14.102c-2.209,0-4,1.791-4,4s1.791,4,4,4h71.697c2.209,0,4-1.791,4-4S88.008,76.875,85.799,76.875z"/>
</g>
</svg>