<svg xmlns="http://www.w3.org/2000/svg" xmlns:xlink="http://www.w3.org/1999/xlink" version="1.1" id="Layer_1" x="0px" y="0px" width="100px" height="100px" viewBox="0 0 100 100" enable-background="new 0 0 100 100" xml:space="preserve">
<g>
	<path d="M77.277,16.583H22.32c-4.418,0-8,3.582-8,8v50.5c0,4.418,3.582,8,8,8h54.958c4.419,0,8-3.582,8-8v-50.5   C85.277,20.165,81.696,16.583,77.277,16.583z M77.277,24.583v25.499H60.754c1.797-2.334,2.879-5.247,2.879-8.414   c0-7.627-6.207-13.833-13.834-13.833c-7.628,0-13.833,6.206-13.833,13.833c0,3.167,1.081,6.08,2.878,8.414H22.32V24.583H77.277z    M43.965,41.668c0-3.216,2.617-5.833,5.833-5.833c3.217,0,5.834,2.617,5.834,5.833s-2.617,5.833-5.834,5.833   C46.582,47.501,43.965,44.884,43.965,41.668z M22.32,75.083V58.082h54.958v17.001H22.32z"/>
	<circle cx="69.659" cy="31.833" r="4"/>
	<path d="M69.381,62.416H30.216c-2.209,0-4,1.791-4,4s1.791,4,4,4h39.165c2.209,0,4-1.791,4-4S71.59,62.416,69.381,62.416z"/>
</g>
</svg>