<svg xmlns="http://www.w3.org/2000/svg" xmlns:xlink="http://www.w3.org/1999/xlink" version="1.1" id="Layer_1" x="0px" y="0px" width="100px" height="100px" viewBox="0 0 100 100" enable-background="new 0 0 100 100" xml:space="preserve">
<g>
	<path d="M77.472,27.242H33.476C33.48,27.16,33.5,27.083,33.5,27c0-2.209-1.791-4-4-4c-2.21,0-4,1.791-4,4   c0,0.083,0.02,0.161,0.024,0.243h-3.011c-4.418,0-8,3.582-8,8v29.5c0,4.418,3.582,8,8,8h54.958c4.418,0,8-3.582,8-8v-29.5   C85.472,30.824,81.89,27.242,77.472,27.242z M32.962,64.742H22.514v-29.5h10.449c-4.794,3.162-7.969,8.59-7.969,14.75   S28.168,61.58,32.962,64.742z M42.66,59.658c-5.33,0-9.667-4.336-9.667-9.666s4.336-9.666,9.667-9.666s9.666,4.336,9.666,9.666   S47.99,59.658,42.66,59.658z M77.472,64.742H52.357c4.795-3.162,7.969-8.59,7.969-14.75s-3.174-11.588-7.969-14.75h25.114V64.742z"/>
	<circle cx="69.326" cy="42.824" r="4"/>
</g>
</svg>