<svg xmlns="http://www.w3.org/2000/svg" xmlns:xlink="http://www.w3.org/1999/xlink" version="1.1" id="Layer_1" x="0px" y="0px" width="100px" height="100px" viewBox="0 0 100 100" enable-background="new 0 0 100 100" xml:space="preserve">
<g>
	<path d="M80,20.001H69.748C68.86,16.55,65.729,14,62,14H38.375c-3.728,0-6.86,2.55-7.748,6.001H20.375c-4.419,0-8,3.582-8,8V36   c0,4.418,3.581,8,8,8h2v35.998c0,4.418,3.581,8,8,8H70c4.418,0,8-3.582,8-8V44h2c4.418,0,8-3.582,8-8v-7.999   C88,23.583,84.418,20.001,80,20.001z M80,36H70v43.998H30.375V36h-10v-7.999h18V22H62v6.001h18V36z"/>
	<path d="M38.375,42c-2.209,0-4,1.791-4,4v26c0,2.209,1.791,4,4,4s4-1.791,4-4V46C42.375,43.791,40.584,42,38.375,42z"/>
	<path d="M50.375,42c-2.209,0-4,1.791-4,4v26c0,2.209,1.791,4,4,4s4-1.791,4-4V46C54.375,43.791,52.584,42,50.375,42z"/>
	<path d="M58.375,46v26c0,2.209,1.791,4,4,4s4-1.791,4-4V46c0-2.209-1.791-4-4-4S58.375,43.791,58.375,46z"/>
</g>
</svg>