<svg xmlns="http://www.w3.org/2000/svg" xmlns:xlink="http://www.w3.org/1999/xlink" version="1.1" id="Layer_1" x="0px" y="0px" width="100px" height="100px" viewBox="0 0 100 100" enable-background="new 0 0 100 100" xml:space="preserve">
<g>
	<path d="M49.668,9.333C27.245,9.333,9.002,27.576,9.002,50s18.243,40.667,40.666,40.667S90.334,72.423,90.334,50   S72.091,9.333,49.668,9.333z M49.668,82.666c-18.012,0-32.666-14.654-32.666-32.667s14.654-32.667,32.666-32.667   S82.334,31.987,82.334,50S67.68,82.666,49.668,82.666z"/>
	<path d="M49.668,38.666c-6.25,0-11.334,5.084-11.334,11.334s5.084,11.334,11.334,11.334S61.002,56.249,61.002,50   S55.918,38.666,49.668,38.666z M49.668,53.334c-1.838,0-3.334-1.496-3.334-3.334s1.496-3.334,3.334-3.334s3.334,1.496,3.334,3.334   S51.506,53.334,49.668,53.334z"/>
</g>
</svg>