<svg xmlns="http://www.w3.org/2000/svg" xmlns:xlink="http://www.w3.org/1999/xlink" version="1.1" id="Layer_1" x="0px" y="0px" width="100px" height="100px" viewBox="0 0 100 100" enable-background="new 0 0 100 100" xml:space="preserve">
<g>
	<path d="M8.934,71.303l19.633,19.633c1.5,1.5,3.535,2.343,5.656,2.343c2.122,0,4.156-0.843,5.656-2.343L58.32,72.493l32.424-32.426   c3.125-3.124,3.125-8.188,0.001-11.312L71.114,9.123c-1.501-1.501-3.535-2.344-5.657-2.344c-2.121,0-4.156,0.843-5.656,2.343   L27.375,41.546c-0.035,0.035-0.068,0.07-0.104,0.105L8.934,59.989c-1.501,1.5-2.344,3.535-2.344,5.657   C6.59,67.768,7.433,69.803,8.934,71.303z M65.457,14.779l19.631,19.632L59.014,60.487L39.381,40.854L65.457,14.779z M33.033,47.204   l-0.002-0.001l0.693-0.692l19.633,19.633l-0.693,0.693v-0.001L34.223,85.278L14.59,65.646L33.033,47.204z"/>
	<path d="M40.285,72.849c1.562-1.562,1.562-4.095,0.001-5.657c-0.781-0.781-1.805-1.172-2.829-1.172   c-1.023,0-2.047,0.391-2.828,1.172l-4.311,4.31c-1.562,1.562-1.562,4.094-0.001,5.656c1.562,1.562,4.094,1.563,5.657,0.001   L40.285,72.849z"/>
	<path d="M32.677,59.583c-0.78-0.781-1.805-1.172-2.828-1.172s-2.048,0.391-2.828,1.172l-4.31,4.31   c-1.562,1.562-1.562,4.095,0,5.657c1.561,1.562,4.096,1.562,5.656,0l4.31-4.31C34.239,63.678,34.239,61.146,32.677,59.583z"/>
</g>
</svg>