<svg xmlns="http://www.w3.org/2000/svg" xmlns:xlink="http://www.w3.org/1999/xlink" version="1.1" id="Layer_1" x="0px" y="0px" width="100px" height="100px" viewBox="0 0 100 100" enable-background="new 0 0 100 100" xml:space="preserve">
<g>
	<path d="M79.252,11.999h-56c-0.015,0-0.027,0.004-0.043,0.004c-0.014,0-0.027-0.004-0.042-0.004c-2.209,0-4,1.791-4,4v61.833   c0,0.28,0.03,0.554,0.085,0.818v7.682c0,2.209,1.791,4,4,4h56c2.209,0,4-1.791,4-4V65.666v-0.001V15.999   C83.252,13.79,81.461,11.999,79.252,11.999z M75.252,82.332h-48V69.666h48V82.332z M75.252,61.666H27.167V19.999h48.085V61.666z"/>
	<circle cx="68.417" cy="76.094" r="4"/>
	<circle cx="57" cy="76.094" r="4"/>
</g>
</svg>