<svg xmlns="http://www.w3.org/2000/svg" xmlns:xlink="http://www.w3.org/1999/xlink" version="1.1" id="Layer_1" x="0px" y="0px" width="100px" height="100px" viewBox="0 0 100 100" enable-background="new 0 0 100 100" xml:space="preserve">
<g>
	<path d="M34.204,62.249c-1.562,1.562-1.562,4.095,0,5.656c1.561,1.562,4.096,1.562,5.656,0c6.042-6.042,15.876-6.044,21.922,0   c0.781,0.781,1.805,1.172,2.828,1.172s2.048-0.391,2.828-1.172c1.562-1.562,1.562-4.095,0-5.656   C58.273,53.085,43.365,53.088,34.204,62.249z"/>
	<path d="M23.774,51.819c-1.562,1.562-1.562,4.095,0,5.656c0.781,0.781,1.805,1.172,2.828,1.172s2.048-0.391,2.828-1.172   c11.794-11.792,30.985-11.793,42.781,0c1.562,1.562,4.096,1.562,5.656,0c1.562-1.562,1.562-4.095,0-5.656   C62.954,36.905,38.687,36.905,23.774,51.819z"/>
	<path d="M88.828,40.859c-20.957-20.957-55.058-20.956-76.013,0c-1.562,1.562-1.562,4.095,0,5.657c1.562,1.562,4.096,1.562,5.656,0   c17.837-17.836,46.859-17.838,64.7,0c0.781,0.781,1.805,1.171,2.828,1.171s2.048-0.391,2.828-1.172   C90.391,44.954,90.391,42.421,88.828,40.859z"/>
	<circle cx="50.821" cy="76" r="4"/>
</g>
</svg>