<svg xmlns="http://www.w3.org/2000/svg" xmlns:xlink="http://www.w3.org/1999/xlink" version="1.1" id="Layer_1" x="0px" y="0px" width="100px" height="100px" viewBox="0 0 100 100" enable-background="new 0 0 100 100" xml:space="preserve">
<g>
	<path d="M81.842,18.16c-3.021-3.022-7.038-4.686-11.312-4.686c-4.272,0-8.29,1.664-11.312,4.686l-14.75,14.752   c-1.562,1.562-1.562,4.095,0,5.657c1.562,1.562,4.096,1.562,5.656,0l14.752-14.752c1.51-1.51,3.518-2.342,5.653-2.342   s4.144,0.832,5.654,2.343c1.51,1.51,2.342,3.517,2.342,5.653s-0.832,4.144-2.342,5.654L61.433,49.875   c-1.562,1.562-1.562,4.095,0,5.657c0.781,0.781,1.805,1.172,2.828,1.172c1.022,0,2.048-0.391,2.828-1.172L81.841,40.78   c3.021-3.021,4.686-7.038,4.686-11.311C86.526,25.196,84.862,21.18,81.842,18.16z"/>
	<path d="M49.875,61.433L35.122,76.185c-1.51,1.51-3.517,2.342-5.653,2.342c-2.135,0-4.143-0.832-5.654-2.342   c-3.116-3.117-3.116-8.19,0-11.309l14.752-14.751c1.563-1.562,1.563-4.095,0-5.657c-1.56-1.562-4.095-1.562-5.655,0L18.158,59.22   c-6.235,6.237-6.235,16.385,0.001,22.621c3.021,3.021,7.038,4.686,11.31,4.686c4.273,0,8.29-1.664,11.311-4.686l14.752-14.752   c1.562-1.562,1.562-4.095,0-5.656C53.971,59.87,51.436,59.87,49.875,61.433z"/>
	<path d="M35.985,64.016c0.78,0.781,1.805,1.172,2.828,1.172s2.048-0.391,2.828-1.172l22.374-22.374   c1.562-1.562,1.562-4.095,0-5.657c-1.561-1.562-4.096-1.562-5.656,0L35.985,58.359C34.423,59.921,34.423,62.454,35.985,64.016z"/>
</g>
</svg>