<svg xmlns="http://www.w3.org/2000/svg" xmlns:xlink="http://www.w3.org/1999/xlink" version="1.1" id="Layer_1" x="0px" y="0px" width="100px" height="100px" viewBox="0 0 100 100" enable-background="new 0 0 100 100" xml:space="preserve">
<path d="M70.53,86.519c-4.097,0-8.192-1.56-11.312-4.677l-41.06-41.061c-3.022-3.021-4.687-7.039-4.686-11.312  c0-4.272,1.664-8.29,4.686-11.311c6.235-6.237,16.385-6.236,22.62,0c1.562,1.562,1.562,4.095,0.001,5.657  c-1.563,1.562-4.095,1.562-5.657,0c-3.117-3.115-8.189-3.118-11.309,0c-1.509,1.511-2.341,3.519-2.341,5.654  c-0.001,2.136,0.831,4.144,2.341,5.653l41.062,41.061c3.116,3.117,8.189,3.117,11.308,0c1.51-1.511,2.342-3.519,2.342-5.654  s-0.832-4.144-2.342-5.654L46.59,35.284c-0.51-0.509-1.104-0.585-1.412-0.585l0,0c-0.309,0-0.902,0.076-1.412,0.584  c-0.779,0.78-0.779,2.047-0.001,2.826l20.251,20.25c1.562,1.562,1.562,4.095,0,5.656c-1.561,1.562-4.094,1.562-5.656,0  l-20.252-20.25c-3.897-3.9-3.896-10.242,0.002-14.139c1.887-1.888,4.397-2.928,7.068-2.928l0,0c2.67,0,5.181,1.04,7.069,2.929  L81.841,59.22c6.237,6.236,6.237,16.385,0,22.621C78.724,84.959,74.627,86.518,70.53,86.519z"/>
</svg>