<svg xmlns="http://www.w3.org/2000/svg" xmlns:xlink="http://www.w3.org/1999/xlink" version="1.1" id="Layer_1" x="0px" y="0px" width="100px" height="100px" viewBox="0 0 100 100" enable-background="new 0 0 100 100" xml:space="preserve">
<g>
	<path d="M50,90c22.057,0,40-17.943,40-40c0-22.056-17.943-40-40-40c-22.056,0-40,17.944-40,40C10,72.057,27.944,90,50,90z M50,18   c17.645,0,32,14.355,32,32c0,17.646-14.355,32-32,32S18,67.645,18,50S32.355,18,50,18z"/>
	<path d="M46.079,50.784c0.022,0.113,0.065,0.219,0.098,0.329c0.04,0.14,0.073,0.282,0.129,0.418   c0.053,0.128,0.126,0.244,0.192,0.364c0.059,0.108,0.106,0.221,0.176,0.324c0.134,0.2,0.288,0.385,0.455,0.557   c0.016,0.017,0.026,0.036,0.042,0.053l16,16c1.562,1.562,4.094,1.562,5.656,0c1.562-1.563,1.562-4.095,0-5.657L54,48.343V32.25   c0-2.209-1.791-4-4-4s-4,1.791-4,4v17.749C46,50.262,46.027,50.525,46.079,50.784z"/>
</g>
</svg>