<svg xmlns="http://www.w3.org/2000/svg" xmlns:xlink="http://www.w3.org/1999/xlink" version="1.1" id="Layer_1" x="0px" y="0px" width="100px" height="100px" viewBox="0 0 100 100" enable-background="new 0 0 100 100" xml:space="preserve">
<path fill="#000000" d="M64.548,10.429H35.937c-4.418,0-8,3.582-8,8v63.625c0,3.484,2.255,6.567,5.575,7.624  c0.799,0.254,1.616,0.377,2.424,0.377c2.547,0,5.003-1.221,6.531-3.38l7.714-10.899l7.872,10.948  c1.531,2.131,3.97,3.331,6.496,3.331c0.817,0,1.645-0.126,2.452-0.387c3.306-1.064,5.547-4.142,5.547-7.614V18.429  C72.548,14.011,68.966,10.429,64.548,10.429z M64.548,82.054L50.129,61.999L35.937,82.054V18.429h28.611V82.054z"/>
</svg>