<svg xmlns="http://www.w3.org/2000/svg" xmlns:xlink="http://www.w3.org/1999/xlink" version="1.1" id="Layer_1" x="0px" y="0px" width="100px" height="100px" viewBox="0 0 100 100" enable-background="new 0 0 100 100" xml:space="preserve">
<g>
	<path d="M88.249,31.964h-0.226c-0.59-3.477-1.947-6.753-3.988-9.629l0.16-0.16c1.562-1.562,1.562-4.095,0-5.657   c-1.562-1.562-4.096-1.562-5.658,0l-0.159,0.16c-2.876-2.041-6.152-3.398-9.629-3.988v-0.225c0-2.209-1.791-4-4-4s-4,1.791-4,4   v0.225c-3.477,0.59-6.753,1.947-9.629,3.988l-0.159-0.159c-1.561-1.562-4.094-1.562-5.656,0c-1.562,1.562-1.562,4.095,0,5.657   l0.175,0.175c-2.069,2.927-3.398,6.213-3.979,9.612h-0.252c-2.209,0-4,1.791-4,4s1.791,4,4,4h0.252   c0.58,3.4,1.909,6.687,3.979,9.614l-0.176,0.176c-1.562,1.562-1.562,4.095,0,5.657c0.781,0.781,1.805,1.172,2.829,1.172   s2.047-0.391,2.829-1.172l0.159-0.159c2.876,2.041,6.152,3.398,9.63,3.989v0.225c0,2.209,1.791,4,4,4s4-1.791,4-4v-0.226   c3.476-0.59,6.752-1.947,9.627-3.988l0.16,0.16c0.781,0.781,1.805,1.172,2.829,1.172c1.023,0,2.048-0.391,2.828-1.172   c1.562-1.562,1.562-4.095,0.001-5.656l-0.161-0.161c2.042-2.876,3.399-6.152,3.989-9.629h0.226c2.209,0,4-1.791,4-4   S90.458,31.964,88.249,31.964z M75.792,47.006c-2.951,2.95-6.872,4.575-11.044,4.575c-4.17,0-8.092-1.625-11.042-4.574   c-6.089-6.09-6.089-15.998,0-22.086c2.95-2.949,6.87-4.574,11.042-4.574c4.171,0,8.093,1.625,11.044,4.575   c2.949,2.949,4.574,6.871,4.574,11.041C80.366,40.134,78.741,44.056,75.792,47.006z"/>
	<path d="M47.746,62.655c-0.845-2.042-3.185-3.012-5.226-2.165l-0.447,0.186c-0.875-1.157-1.894-2.181-3.033-3.046l0.182-0.438   c0.846-2.04-0.124-4.381-2.165-5.226c-2.039-0.847-4.381,0.123-5.226,2.165l-0.184,0.443c-0.707-0.097-1.425-0.152-2.153-0.152   c-0.72,0-1.431,0.066-2.138,0.163l-0.188-0.455c-0.845-2.041-3.185-3.007-5.226-2.164c-2.042,0.846-3.01,3.186-2.165,5.227   l0.187,0.451c-1.148,0.867-2.166,1.886-3.034,3.033l-0.453-0.188c-2.039-0.847-4.381,0.123-5.226,2.165   c-0.846,2.04,0.124,4.381,2.164,5.226l0.454,0.188c-0.198,1.426-0.198,2.864,0,4.289l-0.454,0.188   c-2.041,0.845-3.01,3.185-2.164,5.226c0.638,1.541,2.127,2.471,3.697,2.471c0.51,0,1.029-0.098,1.529-0.306l0.447-0.186   c0.875,1.157,1.894,2.182,3.033,3.046l-0.182,0.438c-0.846,2.04,0.124,4.381,2.164,5.226c0.501,0.208,1.02,0.306,1.53,0.306   c1.569,0,3.059-0.93,3.697-2.471l0.184-0.443c0.707,0.097,1.424,0.152,2.152,0.152c0.721,0,1.433-0.066,2.141-0.164l0.188,0.455   c0.638,1.54,2.127,2.47,3.697,2.47c0.51,0,1.029-0.099,1.529-0.306c2.042-0.846,3.011-3.186,2.165-5.227l-0.19-0.458   c1.157-0.879,2.17-1.897,3.026-3.029l0.46,0.19c0.5,0.208,1.019,0.306,1.529,0.306c1.569,0,3.059-0.93,3.697-2.471   c0.846-2.04-0.124-4.381-2.165-5.226l-0.46-0.19c0.195-1.406,0.199-2.845,0.002-4.283l0.458-0.19   C47.623,67.036,48.592,64.696,47.746,62.655z M32.861,78.331c-1.077,0.446-2.207,0.673-3.359,0.673   c-3.568,0-6.756-2.131-8.122-5.427c-0.898-2.169-0.898-4.559,0-6.728c0.898-2.168,2.586-3.856,4.755-4.755   c1.077-0.446,2.207-0.672,3.358-0.672c3.569,0,6.757,2.131,8.124,5.428C39.472,71.327,37.338,76.477,32.861,78.331z"/>
</g>
</svg>