<svg xmlns="http://www.w3.org/2000/svg" xmlns:xlink="http://www.w3.org/1999/xlink" version="1.1" id="Layer_1" x="0px" y="0px" width="100px" height="100px" viewBox="0 0 100 100" enable-background="new 0 0 100 100" xml:space="preserve">
<g>
	<path d="M53.633,17.571c-4.815-4.816-11.219-7.468-18.029-7.468s-13.216,2.653-18.031,7.469c-4.816,4.816-7.469,11.22-7.469,18.031   s2.652,13.215,7.469,18.03c4.815,4.816,11.219,7.47,18.031,7.47c6.811,0,13.214-2.652,18.029-7.469   C63.575,43.691,63.575,27.514,53.633,17.571z M47.978,47.977c-3.306,3.305-7.7,5.125-12.374,5.125   c-4.675,0-9.069-1.82-12.375-5.126c-3.306-3.305-5.125-7.699-5.125-12.374s1.82-9.069,5.125-12.375   c3.306-3.305,7.7-5.125,12.375-5.125c4.674,0,9.068,1.82,12.374,5.125C54.8,30.051,54.8,41.154,47.978,47.977z"/>
	<path d="M88.703,83.047L61.412,55.756c-1.561-1.562-4.096-1.562-5.656,0c-1.562,1.562-1.562,4.095,0,5.656l27.291,27.291   c0.78,0.781,1.805,1.172,2.828,1.172s2.048-0.391,2.828-1.172C90.266,87.142,90.266,84.608,88.703,83.047z"/>
</g>
</svg>