<svg xmlns="http://www.w3.org/2000/svg" xmlns:xlink="http://www.w3.org/1999/xlink" version="1.1" id="Layer_1" x="0px" y="0px" width="100px" height="100px" viewBox="0 0 100 100" enable-background="new 0 0 100 100" xml:space="preserve">
<g>
	<path d="M89.396,57.653L43.412,11.667c-0.75-0.75-1.768-1.172-2.828-1.172l-25.923,0c-2.202,0-3.991,1.781-4,3.983L10.553,40.51   c-0.005,1.066,0.416,2.091,1.172,2.845l45.986,45.986c0.75,0.75,1.768,1.172,2.828,1.172s2.078-0.422,2.828-1.172L89.396,63.31   C90.959,61.748,90.959,59.215,89.396,57.653z M60.539,80.855L18.56,38.876l0.085-20.381l20.282,0l41.985,41.986L60.539,80.855z"/>
	<circle cx="27.25" cy="26.844" r="4"/>
</g>
</svg>