<svg xmlns="http://www.w3.org/2000/svg" xmlns:xlink="http://www.w3.org/1999/xlink" version="1.1" id="Layer_1" x="0px" y="0px" width="100px" height="100px" viewBox="0 0 100 100" enable-background="new 0 0 100 100" xml:space="preserve">
<path d="M85.995,47.667l-33.352-33.01c-0.749-0.742-1.76-1.157-2.813-1.157c-0.008,0-0.016,0-0.022,0  c-1.062,0.006-2.078,0.434-2.825,1.189l-32.595,33.01c-1.552,1.572-1.536,4.104,0.036,5.657c0.779,0.77,1.795,1.153,2.811,1.153  c1.031,0,2.063-0.397,2.847-1.189l4.169-4.222V79.5c0,2.209,1.791,4,4,4h14.688c2.209,0,4-1.791,4-4v-16h6.125v16  c0,2.209,1.791,4,4,4H71.75c2.209,0,4-1.791,4-4V48.782l4.617,4.571c1.57,1.556,4.104,1.542,5.657-0.029  C87.579,51.754,87.565,49.221,85.995,47.667z M67.75,75.5h-6.688v-16c0-2.209-1.791-4-4-4H42.938c-2.209,0-4,1.791-4,4v16H32.25  V40.997L49.862,23.16L67.75,40.864V75.5z"/>
</svg>