<svg xmlns="http://www.w3.org/2000/svg" xmlns:xlink="http://www.w3.org/1999/xlink" version="1.1" id="Layer_1" x="0px" y="0px" width="100px" height="100px" viewBox="0 0 100 100" enable-background="new 0 0 100 100" xml:space="preserve">
<g>
	<path d="M82,20H18c-4.418,0-8,3.582-8,8v42.125c0,4.418,3.582,8,8,8h64c4.418,0,8-3.582,8-8V28C90,23.582,86.418,20,82,20z    M82,70.125H18V28h64V70.125z"/>
	<path d="M56,40h18c2.209,0,4-1.791,4-4s-1.791-4-4-4H56c-2.209,0-4,1.791-4,4S53.791,40,56,40z"/>
	<path d="M56,52h18c2.209,0,4-1.791,4-4s-1.791-4-4-4H56c-2.209,0-4,1.791-4,4S53.791,52,56,52z"/>
	<path d="M56,64h10c2.209,0,4-1.791,4-4s-1.791-4-4-4H56c-2.209,0-4,1.791-4,4S53.791,64,56,64z"/>
	<path d="M29.917,64H40c4.418,0,8-3.582,8-8V40c0-4.418-3.582-8-8-8H29.917c-4.418,0-8,3.582-8,8v16   C21.917,60.418,25.499,64,29.917,64z M29.917,40H40v16H29.917V40z"/>
</g>
</svg>