<svg xmlns="http://www.w3.org/2000/svg" xmlns:xlink="http://www.w3.org/1999/xlink" version="1.1" id="Layer_1" x="0px" y="0px" width="100px" height="100px" viewBox="0 0 100 100" enable-background="new 0 0 100 100" xml:space="preserve">
<g>
	<path d="M82,20H72v-4c0-2.209-1.791-4-4-4s-4,1.791-4,4v4H54v-4c0-2.209-1.791-4-4-4s-4,1.791-4,4v4H36v-4c0-2.209-1.791-4-4-4   s-4,1.791-4,4v4H18c-4.418,0-8,3.582-8,8v50c0,4.418,3.582,8,8,8h64c4.418,0,8-3.582,8-8V28C90,23.582,86.418,20,82,20z M82,78H18   V28h10v2c0,2.209,1.791,4,4,4s4-1.791,4-4v-2h10v2c0,2.209,1.791,4,4,4s4-1.791,4-4v-2h10v2c0,2.209,1.791,4,4,4s4-1.791,4-4v-2h10   V78z"/>
	<path d="M72,64H28c-2.209,0-4,1.791-4,4s1.791,4,4,4h44c2.209,0,4-1.791,4-4S74.209,64,72,64z"/>
	<path d="M72,52H28c-2.209,0-4,1.791-4,4s1.791,4,4,4h44c2.209,0,4-1.791,4-4S74.209,52,72,52z"/>
	<path d="M72,40H28c-2.209,0-4,1.791-4,4s1.791,4,4,4h44c2.209,0,4-1.791,4-4S74.209,40,72,40z"/>
</g>
</svg>