<svg xmlns="http://www.w3.org/2000/svg" xmlns:xlink="http://www.w3.org/1999/xlink" version="1.1" id="Layer_1" x="0px" y="0px" width="100px" height="100px" viewBox="0 0 100 100" enable-background="new 0 0 100 100" xml:space="preserve">
<g>
	<path d="M82,18H18c-4.418,0-8,3.582-8,8v50c0,4.418,3.582,8,8,8h64c4.418,0,8-3.582,8-8V26C90,21.582,86.418,18,82,18z M18,26h64   v29.036L64.016,44.545c-1.656-0.966-3.765-0.622-5.026,0.821L32.185,76H18V26z M42.814,76l20.021-22.882L82,64.298V76H42.814z"/>
	<path d="M35,56c7.168,0,13-5.832,13-13s-5.832-13-13-13s-13,5.832-13,13S27.832,56,35,56z M35,38c2.757,0,5,2.243,5,5s-2.243,5-5,5   s-5-2.243-5-5S32.243,38,35,38z"/>
</g>
</svg>