<svg xmlns="http://www.w3.org/2000/svg" xmlns:xlink="http://www.w3.org/1999/xlink" version="1.1" id="Layer_1" x="0px" y="0px" width="100px" height="100px" viewBox="0 0 100 100" enable-background="new 0 0 100 100" xml:space="preserve">
<path d="M50,23.999c-14.337,0-26,11.664-26,26.001s11.664,26.001,26,26.001S76,64.337,76,50S64.337,23.999,50,23.999z M50,31.999  c3.668,0,7.08,1.108,9.928,3L34.999,59.928c-1.891-2.849-3-6.26-3-9.928C32,40.074,40.075,31.999,50,31.999z M50,68.001  c-3.364,0-6.505-0.945-9.202-2.559l24.645-24.644C67.056,43.495,68,46.636,68,50C68,59.926,59.926,68.001,50,68.001z"/>
</svg>