<?xml version="1.0" encoding="utf-8"?>
<!-- Generator: Adobe Illustrator 14.0.0, SVG Export Plug-In . SVG Version: 6.00 Build 43363)  -->
<!DOCTYPE svg PUBLIC "-//W3C//DTD SVG 1.0//EN" "http://www.w3.org/TR/2001/REC-SVG-20010904/DTD/svg10.dtd">
<svg version="1.0" id="Layer_1" xmlns="http://www.w3.org/2000/svg" xmlns:xlink="http://www.w3.org/1999/xlink" x="0px" y="0px"
	 width="100px" height="89.2px" viewBox="0 0 100 89.2" enable-background="new 0 0 100 89.2" xml:space="preserve">
<path d="M47.71,18.554c5.137,0,9.296-4.155,9.296-9.279S52.848,0,47.71,0c-5.134,0-9.296,4.151-9.296,9.275
	S42.576,18.554,47.71,18.554z"/>
<path d="M76.036,81.279c0,0-72.268,0-74.112,0c-2.086,0-1.872,1.642-1.872,1.642v2.73c0,0-0.189,3.549,3.455,3.549
	c2.782,0,92.797,0,92.797,0c3.669,0,3.469-3.466,3.469-3.466v-7.562c0,0-0.311-2.393-3.124-2.393h-9.044
	C84.505,75.78,81.942,81.279,76.036,81.279z"/>
<path d="M83.242,64.522c0,4.609,3.752,8.354,8.376,8.354c4.62,0,8.382-3.745,8.382-8.354c0-4.628-3.762-8.359-8.382-8.359
	C86.994,56.163,83.242,59.894,83.242,64.522z"/>
<path d="M55.868,48.581c-0.555,1.662-1.81,3.065-3.579,3.724l-7.458,2.766l2.751,2.731h12.589l-0.007-19.272l-4.214,9.934
	C55.931,48.512,55.893,48.54,55.868,48.581z"/>
<path d="M73.95,62.38H47.917l-6.275-6.128l-4.369,1.61c-3.241,1.158-7.186-0.61-8.403-3.831c-0.717-1.999-0.617-4.23,0.579-5.857
	c-0.535-0.024-15.789,0-15.789,0c-2.538,0-4.6,2.041-4.6,4.571c0,2.535,2.062,4.518,4.6,4.518h15.53l6.158,9.32L3.555,69.138
	C1.521,69.608,0,71.428,0,73.607c0,2.538,2.052,4.597,4.583,4.597l35.67,0.003c-0.618-1.003-0.994-2.172-0.994-3.434
	c0-3.631,2.952-6.583,6.583-6.583h14.271l11.568-2.417l0.641,3.072l-11.885,2.482H45.842c-1.903,0-3.445,1.542-3.445,3.445
	c0,1.875,1.503,3.396,3.375,3.434l28.239,0.004c4.369-0.034,7.875-3.555,7.875-7.91C81.887,65.932,78.35,62.38,73.95,62.38z"/>
<path d="M36.722,54.987c-1.841,0.804-3.989-0.03-4.793-1.868c-0.81-1.845,0.028-3.989,1.873-4.797l13.254-4.976l4.096-9.769
	l-2.668-0.986L45,40.957l-10.089,3.716V34.447L25.05,45.218l-11.161-0.011c0,0,19.53-21.409,20.14-22.05
	c0.81-0.804,2.662-2.135,6.151-2.135h12.541c7.124,0,8.496,7.104,7.038,10.779L53.2,47.708c-0.404,0.914-1.162,1.648-2.11,1.989
	L36.722,54.987z"/>
</svg>
