<svg xmlns="http://www.w3.org/2000/svg" xmlns:xlink="http://www.w3.org/1999/xlink" version="1.1" id="Layer_1" x="0px" y="0px" width="100px" height="100px" viewBox="0 0 100 100" enable-background="new 0 0 100 100" xml:space="preserve">
<g>
	<path d="M80.334,87.833h-59c-0.143,0-0.283-0.008-0.423-0.022c-3.12,0.027-6.049-1.009-8.259-2.96   C10.189,82.678,8.833,79.534,8.833,76V17.187c0-2.209,1.791-4,4-4H42.73c2.209,0,4,1.791,4,4v7.646h41.437c2.209,0,4,1.791,4,4V76   c0,3.354-1.15,6.272-3.328,8.438c-2.063,2.052-4.97,3.265-8.036,3.367C80.648,87.823,80.492,87.833,80.334,87.833z M31.957,79.833   h47.977c0.14-0.014,0.283-0.014,0.421-0.021c1.159,0.033,2.168-0.376,2.843-1.046c0.644-0.641,0.97-1.571,0.97-2.767V32.833H32.5   V76C32.5,77.398,32.308,78.677,31.957,79.833z M16.833,21.187V76c0,3.629,3.232,3.812,3.881,3.812c0.888,0,3.786-0.275,3.786-3.812   V28.833c0-2.209,1.791-4,4-4h10.23v-3.646H16.833z"/>
</g>
</svg>