<?xml version="1.0" encoding="utf-8"?>
<!-- Generator: Adobe Illustrator 14.0.0, SVG Export Plug-In . SVG Version: 6.00 Build 43363)  -->
<!DOCTYPE svg PUBLIC "-//W3C//DTD SVG 1.0//EN" "http://www.w3.org/TR/2001/REC-SVG-20010904/DTD/svg10.dtd">
<svg version="1.0" id="Layer_1" xmlns="http://www.w3.org/2000/svg" xmlns:xlink="http://www.w3.org/1999/xlink" x="0px" y="0px"
	 width="80.284px" height="100px" viewBox="0 0 80.284 100" enable-background="new 0 0 80.284 100" xml:space="preserve">
<polygon fill="#010101" points="78.623,63.964 80.284,56.146 54.698,45.999 44.656,49.071 42.37,49.074 42.37,25.749 76.807,25.749 
	76.807,15.262 40.143,0 3.479,15.262 3.479,25.749 37.915,25.749 37.915,49.081 33.104,49.087 19.511,35.854 10.554,35.854 
	8.681,32.929 5.242,32.929 7.494,36.444 0.001,48.331 3.345,51.371 12.63,46.455 21.093,59.661 15.163,64.71 19.78,85.19 
	26.261,83.556 22.853,68.438 33.104,65.64 37.915,65.64 37.915,89.513 3.479,89.513 3.479,100 76.807,100 76.807,89.513 
	42.37,89.513 42.37,65.64 48.667,65.64 58.919,68.438 55.511,83.556 61.993,85.19 66.62,64.71 63.661,62.191 65.19,55.425 "/>
</svg>
