<svg xmlns="http://www.w3.org/2000/svg" xmlns:xlink="http://www.w3.org/1999/xlink" version="1.1" id="Layer_1" x="0px" y="0px" width="100px" height="100px" viewBox="0 0 100 100" enable-background="new 0 0 100 100" xml:space="preserve">
<path fill="#000000" d="M73.57,26.43c-6.297-6.296-14.667-9.763-23.57-9.763s-17.273,3.467-23.569,9.763  c-6.298,6.296-9.764,14.667-9.764,23.57s3.466,17.274,9.764,23.569c6.296,6.297,14.666,9.764,23.569,9.764s17.273-3.467,23.57-9.764  C86.566,60.573,86.566,39.427,73.57,26.43z M70.517,64.86l-9.448-9.448c4.131-2.991,9.098-4.677,14.238-4.803  C75.188,55.628,73.594,60.617,70.517,64.86z M55.412,61.068l9.449,9.449c-4.137,3.009-9.066,4.681-14.26,4.801  C50.724,70.173,52.405,65.213,55.412,61.068z M74.234,42.643c-6.869,0.353-13.469,2.833-18.871,7.064l-5.067-5.067  c4.258-5.424,6.714-12.014,7.056-18.895c3.947,1.191,7.564,3.344,10.562,6.341C70.963,35.136,73.068,38.777,74.234,42.643z   M29.482,35.139l9.449,9.449c-4.137,2.992-9.114,4.677-14.25,4.803C24.804,44.201,26.476,39.273,29.482,35.139z M35.139,29.482  c4.137-3.009,9.067-4.681,14.26-4.801c-0.123,5.145-1.805,10.104-4.811,14.25L35.139,29.482z M25.748,57.361  c6.871-0.351,13.482-2.835,18.889-7.069l5.066,5.068c-4.258,5.422-6.713,12.012-7.056,18.895c-3.946-1.191-7.563-3.345-10.561-6.342  C29.092,64.918,26.939,61.305,25.748,57.361z"/>
</svg>