<svg xmlns="http://www.w3.org/2000/svg" xmlns:xlink="http://www.w3.org/1999/xlink" version="1.1" id="Layer_1" x="0px" y="0px" width="100px" height="100px" viewBox="0 0 100 100" enable-background="new 0 0 100 100" xml:space="preserve">
<g>
	<path d="M65.059,68.895l-5.133,5.132v-30.34c0-2.209-1.791-4-4-4s-4,1.791-4,4v30.342l-5.135-5.134   c-1.562-1.562-4.096-1.562-5.656,0c-1.562,1.562-1.562,4.095,0,5.656L53.09,86.506c0.189,0.19,0.398,0.36,0.623,0.51   c0.064,0.043,0.136,0.07,0.203,0.109c0.158,0.093,0.316,0.187,0.486,0.257c0.091,0.037,0.186,0.056,0.277,0.086   c0.156,0.051,0.309,0.107,0.471,0.14c0.133,0.025,0.268,0.027,0.4,0.04c0.125,0.012,0.246,0.038,0.375,0.038   c0.141,0,0.275-0.027,0.412-0.042c0.121-0.012,0.241-0.013,0.359-0.036c0.18-0.035,0.348-0.095,0.518-0.153   c0.075-0.025,0.154-0.04,0.229-0.071c0.195-0.08,0.377-0.184,0.557-0.292c0.043-0.026,0.09-0.044,0.133-0.072   c0.23-0.153,0.443-0.328,0.638-0.524l11.944-11.943c1.562-1.562,1.562-4.095,0-5.656C69.154,67.332,66.621,67.332,65.059,68.895z"/>
	<path d="M59.119,16.518c-11.967,0-22.84,6.983-27.907,17.646c-11.696,0.537-21.044,10.221-21.044,22.048   c0,12.169,9.898,22.069,22.068,22.069c2.209,0,4-1.791,4-4s-1.791-4-4-4c-7.758,0-14.068-6.312-14.068-14.069   c0-7.759,6.311-14.071,14.068-14.071c0.355,0,0.744,0.02,1.258,0.065l3.062,0.271l1.05-2.889   c3.274-9.014,11.921-15.07,21.514-15.07c12.617,0,22.883,10.265,22.883,22.882c0,6.129-2.395,11.888-6.74,16.216   c-1.564,1.559-1.569,4.092-0.01,5.657c1.558,1.565,4.09,1.569,5.656,0.011c5.863-5.841,9.094-13.612,9.094-21.884   C90.002,30.371,76.147,16.518,59.119,16.518z"/>
</g>
</svg>