<svg xmlns="http://www.w3.org/2000/svg" xmlns:xlink="http://www.w3.org/1999/xlink" version="1.1" id="Layer_1" x="0px" y="0px" width="100px" height="100px" viewBox="0 0 100 100" enable-background="new 0 0 100 100" xml:space="preserve">
<g>
	<path d="M90.236,36.137h-6.43c-0.006,0-0.012,0.001-0.019,0.001v-2.043c0-4.418-3.581-8-8-8H8.038c-4.418,0-8,3.582-8,8v34.084   c0,4.418,3.582,8,8,8h67.75c4.419,0,8-3.582,8-8v-2.043c0.007,0,0.013,0.001,0.019,0.001h6.43c4.418,0,8-3.582,8-8v-14   C98.236,39.718,94.654,36.137,90.236,36.137z M75.788,68.179H8.038V34.094h67.75V68.179z M90.236,58.137h-6.43v-14h6.43V58.137z"/>
	<path d="M64.051,64.108h8v-8V46v-8h-8H20.689h-8v8v10.108v8h8H64.051z M20.689,46h43.361v10.108H20.689V46z"/>
</g>
</svg>