<svg xmlns="http://www.w3.org/2000/svg" xmlns:xlink="http://www.w3.org/1999/xlink" version="1.1" id="Layer_1" x="0px" y="0px" width="100px" height="100px" viewBox="0 0 100 100" enable-background="new 0 0 100 100" xml:space="preserve">
<path d="M76.359,35.581c-1.334-2.74-4.109-4.483-7.156-4.497l-7.498-0.033l3.84-10.003c0.402-0.954,0.625-2.003,0.625-3.104  c0-4.418-3.579-8-7.998-8h-0.004H41.761c-3.358,0-6.359,2.097-7.513,5.251l-11.76,32.14c-0.896,2.447-0.543,5.177,0.944,7.316  c1.488,2.139,3.924,3.42,6.529,3.433l5.865,0.028L28.45,79.191c-1.295,3.701,0.283,7.796,3.728,9.67  c1.208,0.657,2.521,0.974,3.819,0.974c2.406,0,4.764-1.085,6.325-3.097l33.167-42.75C77.356,41.58,77.694,38.32,76.359,35.581z   M36.001,81.834l11.083-31.667l-17.083-0.083l11.76-32.14h16.407L50.084,39l19.084,0.083L36.001,81.834z"/>
</svg>