<svg xmlns="http://www.w3.org/2000/svg" xmlns:xlink="http://www.w3.org/1999/xlink" version="1.1" id="Layer_1" x="0px" y="0px" width="100px" height="100px" viewBox="0 0 100 100" enable-background="new 0 0 100 100" xml:space="preserve">
<g>
	<path d="M38.367,10.725c-1.244-1.077-3.021-1.281-4.476-0.516c-1.457,0.765-2.296,2.343-2.117,3.978   c1.646,15.003-2.253,21.302-6.382,27.971c-2.784,4.498-5.663,9.148-6.683,16.095C15.746,78.44,32.191,85.795,40.095,89.329   l1.247,0.562c0.529,0.24,1.094,0.359,1.658,0.359c0.756,0,1.509-0.214,2.165-0.636C46.309,88.878,47,87.61,47,86.25   c0-5.238,3.056-10.256,6.292-15.567c2.764-4.537,5.622-9.229,6.854-14.526C62.069,47.887,61.797,30.989,38.367,10.725z    M52.354,54.344c-0.94,4.046-3.347,7.996-5.894,12.178c-2.66,4.367-5.387,8.843-6.683,13.828   c-8.32-4.125-14.84-9.436-13.152-20.935c0.779-5.308,3-8.894,5.57-13.046c3.497-5.649,7.361-11.892,7.899-22.944   C53.477,37.706,53.671,48.682,52.354,54.344z"/>
	<path d="M64.648,75.238c4.525-6.703,6.95-13.856,7.711-18.315c2.021-11.846-1.883-25.109-10.709-36.388   c-1.361-1.738-3.875-2.047-5.615-0.685c-1.74,1.361-2.047,3.875-0.686,5.615c7.441,9.508,10.767,20.483,9.124,30.112   c-0.593,3.471-2.638,9.53-6.456,15.185c-1.235,1.831-0.753,4.317,1.078,5.554C59.781,76.778,60.56,77,61.33,77   C62.614,77,63.876,76.383,64.648,75.238z"/>
	<path d="M77.219,65.19c-2.104-0.674-4.355,0.486-5.028,2.591c-2.346,7.329-7.161,12.013-11.562,15.628   c-1.708,1.401-1.954,3.923-0.553,5.63c0.791,0.963,1.938,1.461,3.094,1.461c0.894,0,1.792-0.298,2.536-0.909   c4.993-4.101,11.108-10.008,14.104-19.372C80.482,68.115,79.323,65.863,77.219,65.19z"/>
</g>
</svg>