<?xml version="1.0" encoding="utf-8"?>
<!-- Generator: Adobe Illustrator 14.0.0, SVG Export Plug-In . SVG Version: 6.00 Build 43363)  -->
<!DOCTYPE svg PUBLIC "-//W3C//DTD SVG 1.0//EN" "http://www.w3.org/TR/2001/REC-SVG-20010904/DTD/svg10.dtd">
<svg version="1.0" id="Layer_1" xmlns="http://www.w3.org/2000/svg" xmlns:xlink="http://www.w3.org/1999/xlink" x="0px" y="0px"
	 width="94.462px" height="100px" viewBox="0 0 94.462 100" enable-background="new 0 0 94.462 100" xml:space="preserve">
<path d="M13.216,76.2c-3.623,0-6.561-2.938-6.561-6.56c0-3.625,2.938-6.562,6.561-6.562c3.626,0,6.562,2.938,6.562,6.562
	C19.778,73.262,16.843,76.2,13.216,76.2z"/>
<path d="M0,100c0-1.592,0-10.491,0-12.859c0-4.636,3.809-8.404,8.451-8.404c2.306,0,6.819,0,9.062,0
	c4.643,0,8.788,3.769,8.788,8.404c0,2.368,0,11.268,0,12.859H0z"/>
<path d="M81.253,75.643c3.622,0,6.561-2.945,6.561-6.564c0-3.629-2.938-6.565-6.561-6.565c-3.627,0-6.562,2.937-6.562,6.565
	C74.69,72.697,77.626,75.643,81.253,75.643z"/>
<path d="M94.462,100c0-1.592,0-10.491,0-12.859c0-4.636-3.809-8.404-8.455-8.404c-2.302,0-6.809,0-9.052,0
	c-4.649,0-8.789,3.769-8.789,8.404c0,2.368,0,11.268,0,12.859H94.462z"/>
<ellipse cx="47.223" cy="69.582" rx="6.638" ry="6.583"/>
<path d="M31.236,100l5.224-14.231c2.092-7.27,8.185-7.046,8.185-7.046h2.588h2.584c0,0,6.089-0.224,8.185,7.046L63.226,100H31.236z"
	/>
<g>
	<polygon points="47.223,54.688 47.223,39.117 44.638,36.532 44.638,52.096 5.533,52.096 5.533,2.587 44.638,2.587 44.638,28.021 
		47.223,30.605 47.223,0 2.959,0 2.959,54.688 	"/>
</g>
<path d="M24.706,13.228c1.926,0,3.489-1.564,3.489-3.489c0-1.923-1.562-3.489-3.489-3.489c-1.923,0-3.485,1.566-3.485,3.489
	C21.22,11.664,22.782,13.228,24.706,13.228z"/>
<path d="M36.226,27.729c0,0-2.863-9.723-2.866-9.731c-1.139-3.783-4.333-3.67-4.333-3.67h-8.636c0,0-3.197-0.113-4.336,3.67
	c-0.003,0.009-2.862,9.731-2.862,9.731c-0.234,0.79,0.22,1.615,1.008,1.848c0.141,0.04,0.282,0.06,0.42,0.06
	c0.644,0,1.235-0.42,1.428-1.07l2.733-9.305l0.007,0.003l1.218-0.003V29.85l-4.811,16.51c-0.317,1.084,0.303,2.216,1.387,2.533
	c0.192,0.055,0.382,0.083,0.571,0.083c0.885,0,1.701-0.578,1.962-1.469l4.752-16.303h1.683L30.3,47.505
	c0.258,0.891,1.074,1.469,1.958,1.469c0.189,0,0.382-0.027,0.575-0.083c1.081-0.316,1.704-1.449,1.387-2.533l-4.811-16.503V19.262
	l1.218,0.003l0.007-0.003l2.736,9.305c0.189,0.65,0.785,1.07,1.425,1.07c0.141,0,0.282-0.021,0.419-0.06
	C36.005,29.344,36.456,28.518,36.226,27.729z"/>
<path d="M81.222,26.262c-3.609,0-6.549-2.932-6.549-6.548c0-3.62,2.939-6.555,6.549-6.555c3.63,0,6.547,2.935,6.547,6.555
	C87.769,23.33,84.852,26.262,81.222,26.262z"/>
<g>
	<path d="M81.222,36.006c0,0,1.589,0.205,2.562-1.142c0.881-1.232,0.946-5.31,0.953-6.049h-7.036
		c-0.023,2.936,0.317,5.075,1.019,6.152C79.429,36.068,81.222,36.006,81.222,36.006z"/>
</g>
<path d="M52.673,41.784c-0.241,0.396-0.616,1.199-0.616,1.707c0,1.531,1.235,2.76,2.763,2.76h9.085c1.032,0,2.388-0.416,2.966-1.284
	c1.953-2.901,4.019-5.957,4.627-6.872v17.178h22.879V37.658c0-4.607-3.6-8.754-7.856-8.754c0.011,2.163-0.278,5.753-1.545,7.326
	c-1.321,1.605-2.879,1.466-2.879,1.466v6.701c0.828,0.343,1.413,1.156,1.413,2.106c0,1.263-1.021,2.285-2.287,2.285
	c-1.263,0-2.281-1.022-2.281-2.285c0-0.948,0.578-1.762,1.403-2.106v-6.732c0,0-1.358,0.112-2.643-1.175
	c-1.713-1.786-1.778-6.848-1.775-7.675H75.51c-2.932,0-5.506,1.505-6.992,3.74l-5.439,8.207l-8.252-0.003L43.172,29.104
	c-0.437-0.44-1.149-0.44-1.586,0c-0.44,0.438-0.444,1.149-0.003,1.59L52.673,41.784z"/>
</svg>
