<svg xmlns="http://www.w3.org/2000/svg" xmlns:xlink="http://www.w3.org/1999/xlink" version="1.1" id="Layer_1" x="0px" y="0px" width="100px" height="100px" viewBox="0 0 100 100" enable-background="new 0 0 100 100" xml:space="preserve">
<g>
	<path fill="#000000" d="M82.891,29.558c-1.52-1.793-3.752-2.827-6.103-2.827h-46.75c-0.53,0-1.052,0.061-1.563,0.163l-1.296-6.76   c-0.361-1.884-2.01-3.247-3.928-3.247H14.5c-2.209,0-4,1.791-4,4s1.791,4,4,4h5.444l2.877,15.003   c0.046,0.24,0.113,0.471,0.198,0.692l5.164,26.75c0.738,3.824,4.088,6.484,7.846,6.484c0.497,0,1-0.046,1.506-0.143l36.75-7   c3.293-0.627,5.846-3.241,6.395-6.548l4-24.084C85.065,33.723,84.41,31.352,82.891,29.558z M72.788,58.815l-36.75,7l-6-31.084   h46.75L72.788,58.815z"/>
	<circle fill="#000000" cx="29.833" cy="79.401" r="4"/>
	<circle fill="#000000" cx="70.667" cy="79.401" r="4"/>
</g>
</svg>