<svg xmlns="http://www.w3.org/2000/svg" xmlns:xlink="http://www.w3.org/1999/xlink" version="1.1" id="Layer_1" x="0px" y="0px" width="100px" height="100px" viewBox="0 0 100 100" enable-background="new 0 0 100 100" xml:space="preserve">
<path d="M78.125,42.125H75V35.25C75,21.603,63.896,10.5,50.25,10.5c-10.56,0-19.966,6.705-23.405,16.683  c-0.72,2.088,0.39,4.365,2.479,5.085c2.089,0.72,4.365-0.39,5.085-2.479c2.327-6.752,8.693-11.29,15.841-11.29  C59.486,18.5,67,26.014,67,35.25v6.875H22.168c-2.209,0-4,1.791-4,4v39.959c0,2.209,1.791,4,4,4h55.957c2.209,0,4-1.791,4-4V46.125  C82.125,43.916,80.334,42.125,78.125,42.125z M74.125,82.084H26.168V50.125h47.957V82.084z"/>
</svg>