<svg xmlns="http://www.w3.org/2000/svg" xmlns:xlink="http://www.w3.org/1999/xlink" version="1.1" id="Layer_1" x="0px" y="0px" width="100px" height="100px" viewBox="0 0 100 100" enable-background="new 0 0 100 100" xml:space="preserve">
<g>
	<path d="M82.977,26.701L68.91,12.6c-1.501-1.504-3.539-2.35-5.664-2.35H22.688c-4.418,0-8,3.582-8,8v63.5c0,4.418,3.582,8,8,8   h54.625c4.418,0,8-3.582,8-8V32.351C85.312,30.233,84.473,28.201,82.977,26.701z M77.312,81.75H22.688v-63.5h40.559l14.066,14.102   V81.75z"/>
	<path d="M30.914,21.517c-2.209,0-4,1.791-4,4v10.5c0,2.209,1.791,4,4,4s4-1.791,4-4v-10.5   C34.914,23.308,33.123,21.517,30.914,21.517z"/>
	<path d="M43.081,21.517c-2.209,0-4,1.791-4,4v10.5c0,2.209,1.791,4,4,4s4-1.791,4-4v-10.5   C47.081,23.308,45.29,21.517,43.081,21.517z"/>
	<path d="M55.247,21.517c-2.209,0-4,1.791-4,4v10.5c0,2.209,1.791,4,4,4s4-1.791,4-4v-10.5   C59.247,23.308,57.456,21.517,55.247,21.517z"/>
	<path d="M67.414,40.018c2.209,0,4-1.791,4-4v-3.5c0-2.209-1.791-4-4-4s-4,1.791-4,4v3.5C63.414,38.227,65.205,40.018,67.414,40.018   z"/>
</g>
</svg>