<svg xmlns="http://www.w3.org/2000/svg" xmlns:xlink="http://www.w3.org/1999/xlink" version="1.1" id="Layer_1" x="0px" y="0px" width="100px" height="100px" viewBox="0 0 100 100" enable-background="new 0 0 100 100" xml:space="preserve">
<path d="M67.812,15.176c-6.841,0-13.039,3.193-17.312,8.657c-4.272-5.463-10.47-8.657-17.312-8.657  c-11.275,0-22.688,9.153-22.688,26.648c0,18.193,19.553,31.938,37.88,43.392c0.648,0.405,1.384,0.608,2.12,0.608  c0.736,0,1.472-0.203,2.12-0.608C70.947,73.762,90.5,60.018,90.5,41.824C90.5,24.329,79.086,15.176,67.812,15.176z M50.5,77.104  c-12.249-7.701-32-20.863-32-35.28c0-12.813,7.614-18.648,14.688-18.648c5.526,0,10.285,3.245,12.978,8.751l-4.726,12.12  c-0.787,2.018,0.175,4.295,2.169,5.138l8.101,3.423l-4.209,9.622c-0.886,2.024,0.037,4.383,2.061,5.268  c0.521,0.229,1.066,0.337,1.602,0.337c1.541,0,3.009-0.896,3.666-2.397l5.834-13.333c0.43-0.98,0.447-2.091,0.052-3.084  s-1.174-1.787-2.159-2.204l-8.25-3.486l3.908-10.023c2.539-6.344,7.621-10.131,13.597-10.131c7.075,0,14.688,5.835,14.688,18.648  C82.5,56.241,62.748,69.403,50.5,77.104z"/>
</svg>