<svg xmlns="http://www.w3.org/2000/svg" xmlns:xlink="http://www.w3.org/1999/xlink" version="1.1" id="Layer_1" x="0px" y="0px" width="100px" height="100px" viewBox="0 0 100 100" enable-background="new 0 0 100 100" xml:space="preserve">
<path d="M79.697,69.451L64.235,26.155v-8.114c0-0.013-0.002-0.026-0.002-0.04H66c2.209,0,4-1.791,4-4s-1.791-4-4-4H34  c-2.209,0-4,1.791-4,4s1.791,4,4,4h2.152c0,0.013-0.002,0.026-0.002,0.04v8.116L20.713,69.455c-0.3,0.841-0.457,1.727-0.465,2.619  l-0.085,10.149c-0.018,2.134,0.817,4.186,2.319,5.7s3.547,2.367,5.681,2.367h44c4.418,0,8-3.582,8-8V72.142  C80.163,71.225,80.006,70.314,79.697,69.451z M58.186,33.001H42.204l1.947-5.46v-9.5h12.085v9.5L58.186,33.001z M72.163,82.291h-44  l0.085-10.149l11.103-31.14h21.691l1.667,4.667h-3.626c-2.209,0-4,1.791-4,4s1.791,4,4,4h6.483l1.666,4.666h-4.149  c-2.209,0-4,1.791-4,4s1.791,4,4,4h7.001c0.002,0,0.003-0.001,0.005-0.001l2.074,5.809V82.291z"/>
</svg>