<svg xmlns="http://www.w3.org/2000/svg" xmlns:xlink="http://www.w3.org/1999/xlink" version="1.1" id="Layer_1" x="0px" y="0px" width="100px" height="100px" viewBox="0 0 100 100" enable-background="new 0 0 100 100" xml:space="preserve">
<g>
	<path d="M53.634,17.912c-4.816-4.816-11.22-7.468-18.031-7.468c-6.812,0-13.215,2.653-18.031,7.469   c-4.817,4.816-7.469,11.22-7.469,18.031s2.652,13.215,7.469,18.03c4.816,4.816,11.22,7.47,18.031,7.47   c6.811,0,13.214-2.652,18.032-7.469C63.575,44.032,63.575,27.854,53.634,17.912z M47.978,48.318   c-3.306,3.305-7.7,5.125-12.375,5.125s-9.069-1.82-12.375-5.126c-3.306-3.305-5.125-7.699-5.125-12.374s1.82-9.069,5.126-12.375   c3.305-3.305,7.699-5.125,12.374-5.125s9.069,1.82,12.374,5.125C54.8,30.392,54.8,41.495,47.978,48.318z"/>
	<path d="M88.703,83.388L61.412,56.097c-1.562-1.562-4.094-1.562-5.656,0c-1.562,1.562-1.562,4.095,0,5.656l27.291,27.291   c0.781,0.781,1.805,1.172,2.828,1.172s2.047-0.391,2.828-1.172C90.266,87.482,90.266,84.949,88.703,83.388z"/>
	<path d="M24.75,32.021c-2.208,0-4,1.791-4,4s1.792,4,4,4h20.502c2.209,0,4-1.791,4-4s-1.791-4-4-4H24.75z"/>
</g>
</svg>