<svg xmlns="http://www.w3.org/2000/svg" xmlns:xlink="http://www.w3.org/1999/xlink" version="1.1" id="Layer_1" x="0px" y="0px" width="100px" height="100px" viewBox="0 0 100 100" enable-background="new 0 0 100 100" xml:space="preserve">
<g>
	<path d="M35.181,16.676c0.923-1.209,1.08-2.837,0.404-4.2C34.911,11.113,33.521,10.25,32,10.25H6.25   c-1.546,0-2.955,0.892-3.616,2.291c-0.661,1.398-0.456,3.053,0.526,4.249l12.442,15.143V86.5c0,2.209,1.791,4,4,4s4-1.791,4-4   V31.852L35.181,16.676z M23.917,18.25l-4.431,5.808l-4.772-5.808H23.917z"/>
	<path d="M64.721,40.188h-4.945c-4.418,0-8,3.582-8,8v33.625c0,4.418,3.582,8,8,8h4.945c4.418,0,8-3.582,8-8V48.188   C72.721,43.769,69.139,40.188,64.721,40.188z M64.721,81.812h-4.945V48.188h4.945V81.812z"/>
	<path d="M89.945,20.188h-4.944c-4.418,0-8,3.582-8,8v53.625c0,4.418,3.582,8,8,8h4.944c4.418,0,8-3.582,8-8V28.188   C97.945,23.769,94.363,20.188,89.945,20.188z M89.945,81.812h-4.944V28.188h4.944V81.812z"/>
	<path d="M40,60.188h-4.945c-4.418,0-8,3.582-8,8v13.625c0,4.418,3.582,8,8,8H40c4.418,0,8-3.582,8-8V68.188   C48,63.77,44.418,60.188,40,60.188z M40,81.812h-4.945V68.188H40V81.812z"/>
</g>
</svg>