<svg xmlns="http://www.w3.org/2000/svg" xmlns:xlink="http://www.w3.org/1999/xlink" version="1.1" id="Layer_1" x="0px" y="0px" width="100px" height="100px" viewBox="0 0 100 100" enable-background="new 0 0 100 100" xml:space="preserve">
<g>
	<path d="M50,10c-15.904,0-28.843,12.939-28.843,28.843c0,15.838,7.6,21.828,12.629,25.792c3.404,2.683,4.596,3.81,4.596,5.917   v4.652c0,2.209,1.791,4,4,4h15.714c2.208,0,4-1.791,4-4v-4.652c0-2.21,1.174-3.364,4.529-6.1   c5.156-4.202,12.218-9.958,12.218-25.609C78.843,22.939,65.904,10,50,10z M61.57,58.251c-3.504,2.855-7.475,6.093-7.475,12.301   v0.652h-7.714v-0.652c0-6.176-4.061-9.376-7.643-12.2c-4.71-3.713-9.582-7.552-9.582-19.509C29.157,27.35,38.507,18,50,18   c11.492,0,20.843,9.35,20.843,20.843C70.843,50.694,66.129,54.536,61.57,58.251z"/>
	<path d="M53.176,47.054h-5.999c-2.209,0-4,1.791-4,4s1.791,4,4,4h5.999c2.209,0,4-1.791,4-4S55.385,47.054,53.176,47.054z"/>
	<path d="M56.705,82.167H43.648c-2.208,0-4,1.791-4,4s1.792,4,4,4h13.057c2.209,0,4-1.791,4-4S58.914,82.167,56.705,82.167z"/>
</g>
</svg>