<svg xmlns="http://www.w3.org/2000/svg" xmlns:xlink="http://www.w3.org/1999/xlink" version="1.1" id="Layer_1" x="0px" y="0px" width="100px" height="100px" viewBox="0 0 100 100" enable-background="new 0 0 100 100" xml:space="preserve">
<path fill="#000000" d="M50.024,10.667c-0.008,0-0.016-0.001-0.024-0.001c-0.009,0-0.017,0.001-0.024,0.001  C28.298,10.681,10.667,28.32,10.667,50c0,21.688,17.645,39.333,39.333,39.333S89.333,71.688,89.333,50  C89.333,28.32,71.702,10.681,50.024,10.667z M82.141,46.5H71.248c-0.132-2.885-0.421-5.674-0.86-8.333h9.693  C81.118,40.796,81.825,43.589,82.141,46.5z M64.247,46.5H53.5v-8.333h9.79C63.769,40.762,64.101,43.548,64.247,46.5z M53.5,31.167  V18.8c3.051,1.937,5.969,6.281,8.007,12.367H53.5z M46.5,18.8v12.367h-8.008C40.531,25.081,43.45,20.736,46.5,18.8z M46.5,38.167  V46.5H35.752c0.146-2.952,0.479-5.738,0.956-8.333H46.5z M28.75,46.5H17.859c0.315-2.911,1.022-5.704,2.06-8.333h9.692  C29.172,40.826,28.883,43.615,28.75,46.5z M17.859,53.5H28.75c0.127,2.766,0.4,5.441,0.812,8h-9.773  C18.821,58.969,18.161,56.288,17.859,53.5z M35.752,53.5H46.5v8h-9.853C36.201,59,35.893,56.325,35.752,53.5z M46.5,68.5v12.699  c-3.105-1.971-6.076-6.438-8.119-12.699H46.5z M53.5,81.199V68.5h8.118C59.576,74.761,56.606,79.228,53.5,81.199z M53.5,61.5v-8  h10.747c-0.141,2.825-0.449,5.5-0.895,8H53.5z M71.248,53.5h10.893c-0.302,2.788-0.962,5.469-1.929,8h-9.773  C70.848,58.941,71.121,56.266,71.248,53.5z M76.257,31.167h-7.444c-1.085-3.745-2.492-7.103-4.153-9.971  C69.275,23.555,73.251,26.988,76.257,31.167z M35.34,21.196c-1.661,2.868-3.067,6.226-4.153,9.971h-7.443  C26.749,26.988,30.724,23.555,35.34,21.196z M23.506,68.5h7.59c1.098,3.877,2.535,7.352,4.244,10.304  C30.603,76.383,26.538,72.83,23.506,68.5z M64.659,78.805c1.709-2.952,3.146-6.428,4.244-10.305h7.591  C73.461,72.83,69.397,76.383,64.659,78.805z"/>
</svg>