<svg xmlns="http://www.w3.org/2000/svg" xmlns:xlink="http://www.w3.org/1999/xlink" version="1.1" id="Layer_1" x="0px" y="0px" width="100px" height="100px" viewBox="0 0 100 100" enable-background="new 0 0 100 100" xml:space="preserve">
<g>
	<path d="M39.901,96.78c-0.685,0-1.378-0.043-2.079-0.128c-10.77-1.316-13.746-11.088-13.814-16.07   c-0.027-1.934,1.518-3.521,3.451-3.549c1.92-0.003,3.521,1.519,3.548,3.451c0.022,0.832,0.427,8.335,7.663,9.219   c9,1.112,13.294-10.578,14.395-14.184c2.865-9.391,7.273-15.618,11.163-21.112c2.917-4.121,5.673-8.014,7.418-12.761   c2.106-5.728,2.22-15.277-2.509-22.707c-3.697-5.809-9.57-9.095-17.456-9.766C29.17,7.261,26.645,24.042,26.548,24.757   c-0.26,1.915-2.032,3.255-3.938,2.998c-1.916-0.259-3.258-2.023-2.999-3.938c0.033-0.241,3.593-24.091,32.663-21.618   c12.675,1.079,19.377,7.655,22.768,12.982c6.039,9.489,5.945,21.342,3.174,28.881c-2.065,5.617-5.082,9.879-8.275,14.39   c-3.759,5.31-7.646,10.799-10.181,19.11C56.039,89.756,48.709,96.779,39.901,96.78z"/>
</g>
<g>
	<path d="M40.18,74.641c-0.845,0-1.724-0.124-2.598-0.422c-1.547-0.526-3.628-1.795-4.76-4.851   c-1.694-4.573,0.434-7.719,2.145-10.246c0.99-1.463,1.925-2.845,2.146-4.433c0.457-3.271-0.677-4.177-2.736-5.821   c-1.499-1.197-3.365-2.688-4.263-5.302c-1.979-5.759-1.095-15.384,3.81-21.521c2.683-3.356,7.72-7.155,16.515-6.197   c6.241,0.681,10.749,3.104,13.397,7.201c4.544,7.027,1.63,16.234,1.504,16.623c-0.428,1.314-1.841,2.031-3.15,1.605   c-1.312-0.427-2.03-1.834-1.606-3.146c0.036-0.114,2.29-7.391-0.958-12.387c-1.795-2.76-5.067-4.417-9.729-4.926   c-5.245-0.574-9.304,0.891-12.066,4.348c-3.993,4.996-4.301,12.952-2.987,16.774c0.405,1.18,1.272,1.916,2.655,3.02   c2.287,1.827,5.42,4.329,4.567,10.422c-0.383,2.735-1.751,4.758-2.958,6.541c-1.619,2.394-2.364,3.636-1.597,5.708   c0.366,0.986,0.916,1.593,1.683,1.854c1.009,0.341,2.303,0.058,3.008-0.383c1.861-1.167,3.443-3.68,3.896-4.549   c0.636-1.223,2.143-1.702,3.368-1.069c1.225,0.633,1.706,2.136,1.075,3.361c-0.228,0.442-2.321,4.386-5.685,6.493   C43.754,74.031,42.051,74.641,40.18,74.641z"/>
</g>
</svg>