<svg xmlns="http://www.w3.org/2000/svg" xmlns:xlink="http://www.w3.org/1999/xlink" version="1.1" x="0px" y="0px" width="100px" height="100px" viewBox="0 0 100 100" enable-background="new 0 0 100 100" xml:space="preserve">
<g id="Captions">
</g>
<g id="Your_Icon">
	<path d="M77.368,40.187c0,0-0.989-2.711-2.282-4.138c-0.001-0.017-0.001-0.033-0.001-0.049c-0.017-0.35-0.026-0.781-0.06-1.285   c-0.035-0.506-0.075-1.085-0.12-1.737c-0.051-0.65-0.136-1.367-0.21-2.151c-0.045-0.392-0.106-0.797-0.162-1.217   c-0.062-0.422-0.11-0.858-0.195-1.306c-0.079-0.448-0.159-0.913-0.243-1.388c-0.092-0.476-0.202-0.962-0.308-1.461   c-0.098-0.502-0.234-1.011-0.362-1.532c-0.067-0.26-0.132-0.523-0.197-0.79c-0.078-0.265-0.155-0.533-0.235-0.802   c-0.63-2.157-1.482-4.456-2.641-6.771c-0.139-0.296-0.308-0.575-0.46-0.865c-0.159-0.286-0.308-0.584-0.482-0.868   c-0.347-0.568-0.685-1.151-1.079-1.709c-0.37-0.572-0.795-1.122-1.212-1.68c-0.212-0.276-0.443-0.542-0.667-0.816   c-0.111-0.134-0.223-0.274-0.34-0.406l-0.36-0.392c-1.902-2.121-4.288-3.961-6.994-5.298c-2.709-1.33-5.781-2.071-8.861-2.035   c-3.078,0.007-6.138,0.781-8.833,2.118c-1.352,0.668-2.62,1.465-3.795,2.352c-1.175,0.889-2.23,1.888-3.201,2.929   c-1.942,2.087-3.45,4.402-4.658,6.693c-1.184,2.303-2.054,4.596-2.704,6.749c-0.333,1.074-0.584,2.123-0.821,3.116   c-0.108,0.5-0.214,0.988-0.317,1.461c-0.084,0.476-0.169,0.941-0.249,1.389c-0.084,0.447-0.146,0.884-0.202,1.306   c-0.059,0.419-0.117,0.825-0.171,1.217c-0.078,0.783-0.16,1.501-0.216,2.153c-0.047,0.659-0.09,1.248-0.125,1.759   c-0.034,0.51-0.042,0.92-0.058,1.265c0,0.019-0.002,0.035-0.002,0.051c-1.292,1.427-2.284,4.138-2.284,4.138   s-0.096,3.154,2.884,4.645h0.005c3.213-0.896,3.719-4.01,3.719-4.01s-0.424-2.655-1.35-4.32c0-0.131-0.002-0.281-0.002-0.455   c0-0.337-0.014-0.769-0.005-1.25c0.014-0.478,0.028-1.025,0.047-1.639c0.03-0.619,0.084-1.306,0.131-2.054   c0.038-0.373,0.075-0.76,0.117-1.161c0.038-0.403,0.083-0.82,0.147-1.248c0.209-1.716,0.57-3.635,1.126-5.683   c0.556-2.044,1.316-4.219,2.385-6.388c1.083-2.155,2.439-4.334,4.207-6.267c1.745-1.941,3.875-3.665,6.315-4.873   c2.432-1.217,5.166-1.917,7.919-1.935s5.496,0.65,7.927,1.86c1.22,0.598,2.364,1.33,3.418,2.155   c0.257,0.214,0.527,0.409,0.773,0.634c0.248,0.223,0.495,0.443,0.74,0.664c0.471,0.469,0.943,0.924,1.367,1.421l0.329,0.364   c0.105,0.122,0.206,0.25,0.308,0.377c0.203,0.253,0.412,0.497,0.605,0.755c0.379,0.521,0.762,1.03,1.094,1.568   c0.354,0.523,0.657,1.072,0.97,1.604c0.158,0.268,0.29,0.547,0.434,0.816c0.136,0.272,0.291,0.535,0.412,0.812   c1.046,2.181,1.789,4.362,2.327,6.412c0.536,2.055,0.883,3.975,1.088,5.694c0.068,0.427,0.096,0.847,0.141,1.248   c0.037,0.403,0.082,0.79,0.11,1.163c0.045,0.751,0.102,1.436,0.127,2.059c0.017,0.622,0.03,1.178,0.045,1.661   c0.004,0.483-0.008,0.896-0.008,1.231c-0.003,0.174-0.003,0.324-0.006,0.455c-0.923,1.665-1.348,4.32-1.348,4.32   s0.507,3.114,3.718,4.01h0.006C77.467,43.341,77.368,40.187,77.368,40.187z"/>
	<path d="M92.676,42.062c-0.558-0.656-6.735-1.038-14.59-1.258c-0.132,1.119-0.715,3.431-3.263,4.703l-0.181,0.089l-0.196-0.009   l-0.086-0.004l-0.083-0.024c-3.635-1.012-4.237-4.468-4.262-4.614l-0.018-0.121l0.018-0.12c0.003-0.021,0.008-0.043,0.013-0.069   c-1.963-0.028-3.947-0.052-5.903-0.069l0.432,10.745v0.014v0.015c0,1.133-0.922,2.055-2.055,2.055H37.129   c-1.133,0-2.055-0.922-2.055-2.055v-0.015v-0.014l0.432-10.745c-1.956,0.017-3.94,0.041-5.903,0.069   c0.002,0.026,0.007,0.049,0.011,0.069l0.02,0.12l-0.021,0.121c-0.024,0.146-0.624,3.602-4.259,4.614l-0.089,0.024l-0.084,0.004   l-0.197,0.009l-0.175-0.089c-2.55-1.272-3.134-3.584-3.265-4.703c-7.852,0.22-14.029,0.602-14.587,1.258   c-1.625,1.909,5.41,2.519,5.41,4.281c0,1.762,5.289,36.628,8.056,43.301c4.909,11.822,53.879,11.822,58.785,0   c2.77-6.673,8.056-41.539,8.056-43.301C87.263,44.581,94.299,43.971,92.676,42.062C92.118,41.406,94.299,43.971,92.676,42.062z"/>
	<path d="M63.297,38.826H36.332L35.83,51.339c0,0.717,0.581,1.299,1.299,1.299h25.373c0.718,0,1.3-0.582,1.3-1.299L63.297,38.826z    M49.814,49.511c-1.037,0-1.876-0.842-1.876-1.879c0-1.035,0.84-1.877,1.876-1.877c1.037,0,1.879,0.842,1.879,1.877   C51.693,48.668,50.851,49.511,49.814,49.511z"/>
</g>
</svg>