<svg xmlns="http://www.w3.org/2000/svg" xmlns:xlink="http://www.w3.org/1999/xlink" version="1.1" id="Layer_1" x="0px" y="0px" width="75px" height="75px" viewBox="0 0 75 75" enable-background="new 0 0 75 75" xml:space="preserve">
<g>
	<path d="M37.5,33.175l-1.34,0.17C36.51,33.255,36.94,33.175,37.5,33.175z"/>
	<path d="M37.5,41.825c-0.56,0-0.99-0.08-1.34-0.17L37.5,41.825z"/>
	<path d="M70.261,37.505c0,7.67-4.99,18.021-8.19,18.26c-3.19,0.25-18.58-9.859-20.37-12.67c-0.67-1.04-1.09-1.479-1.479-1.63   c-0.41-0.149-0.79,0.03-1.381,0.19l-1.34,0.17l-1.34-0.17c-0.59-0.16-0.97-0.34-1.38-0.19c-0.38,0.15-0.8,0.59-1.47,1.63   c-1.801,2.811-17.19,12.92-20.37,12.67c-3.2-0.239-8.2-10.59-8.2-18.26c0-7.68,5-18.02,8.2-18.27   c3.18-0.24,18.569,9.87,20.37,12.67c0.67,1.04,1.09,1.48,1.47,1.63c0.41,0.15,0.79-0.03,1.38-0.19l1.34-0.17l1.34,0.17   c0.591,0.16,0.971,0.34,1.381,0.19c0.39-0.15,0.81-0.59,1.479-1.63c1.79-2.8,17.18-12.91,20.37-12.67   C65.271,19.485,70.261,29.825,70.261,37.505z"/>
</g>
<g>
	<path d="M38.84,33.345l-1.34-0.17C38.061,33.175,38.49,33.255,38.84,33.345z"/>
	<path d="M38.84,41.655c-0.35,0.09-0.779,0.17-1.34,0.17L38.84,41.655z"/>
</g>
</svg>