<svg xmlns="http://www.w3.org/2000/svg" xmlns:xlink="http://www.w3.org/1999/xlink" version="1.1" id="Layer_1" x="0px" y="0px" width="100px" height="34.13px" viewBox="0 0 100 34.13" enable-background="new 0 0 100 34.13" xml:space="preserve">
<path d="M98.209,0.597l1.194,1.194l-7.338,7.338L100,17.064L92.065,25l7.338,7.338l-1.194,1.194l-7.338-7.338l-7.936,7.936  L75,26.194l-7.338,7.338l-1.194-1.194L73.806,25l-7.935-7.936l7.935-7.935l-7.338-7.338l1.194-1.194L75,7.935L82.936,0l7.936,7.935  L98.209,0.597z M89.677,9.129l-6.741-6.741l-6.741,6.741l6.741,6.741L89.677,9.129z M97.611,17.064l-6.74-6.741l-6.741,6.741  l6.741,6.741L97.611,17.064z M81.741,17.064L75,10.324l-6.741,6.741L75,23.806L81.741,17.064z M89.676,25l-6.74-6.741L76.194,25  l6.741,6.741L89.676,25z"/>
<path d="M32.338,0.597l1.194,1.194l-7.338,7.338l7.935,7.935L26.195,25l7.338,7.338l-1.194,1.194L25,26.194l-7.935,7.936  L9.13,26.194l-7.338,7.338l-1.194-1.194L7.936,25L0,17.064l7.936-7.935L0.597,1.792l1.194-1.194L9.13,7.935L17.065,0L25,7.935  L32.338,0.597z M23.806,9.129l-6.741-6.741l-6.741,6.741l6.741,6.741L23.806,9.129z M31.741,17.064L25,10.324l-6.741,6.741  L25,23.806L31.741,17.064z M15.871,17.064L9.13,10.324l-6.741,6.741l6.741,6.741L15.871,17.064z M23.806,25l-6.741-6.741L10.324,25  l6.741,6.741L23.806,25z"/>
<rect x="36.269" y="11.9" transform="matrix(0.7071 -0.7071 0.7071 0.7071 0.0689 34.2958)" width="10.328" height="10.329"/>
<rect x="53.403" y="11.9" transform="matrix(-0.7071 0.7071 -0.7071 -0.7071 112.0473 -12.2821)" width="10.329" height="10.329"/>
<rect x="44.836" y="3.333" transform="matrix(0.7071 0.7071 -0.7071 0.7071 20.6535 -32.8668)" width="10.328" height="10.328"/>
<rect x="44.836" y="20.468" transform="matrix(-0.7071 -0.7071 0.7071 -0.7071 67.2299 79.1125)" width="10.329" height="10.329"/>
</svg>