<svg xmlns="http://www.w3.org/2000/svg" xmlns:xlink="http://www.w3.org/1999/xlink" version="1.1" id="Layer_1" x="0px" y="0px" width="100px" height="34.964px" viewBox="0 0 100 34.964" enable-background="new 0 0 100 34.964" xml:space="preserve">
<path d="M50,0l-8.129,8.129L50,16.259l8.13-8.129L50,0z M44.465,8.129L50,2.594l5.535,5.536L50,13.664L44.465,8.129z"/>
<path d="M40.647,9.353l-8.13,8.129l8.13,8.129l8.129-8.129L40.647,9.353z M35.112,17.482l5.535-5.536l5.535,5.536l-5.535,5.535  L35.112,17.482z"/>
<path d="M50,18.706l-8.129,8.129L50,34.964l8.13-8.129L50,18.706z M44.465,26.835L50,21.3l5.535,5.535L50,32.37L44.465,26.835z"/>
<path d="M59.354,9.353l-8.13,8.129l8.13,8.129l8.129-8.129L59.354,9.353z M53.818,17.482l5.535-5.536l5.535,5.536l-5.535,5.535  L53.818,17.482z"/>
<rect x="2.191" y="12.192" transform="matrix(0.7071 -0.7071 0.7071 0.7071 -10.1704 10.4109)" width="10.581" height="10.581"/>
<rect x="19.746" y="12.192" transform="matrix(-0.7071 0.7071 -0.7071 -0.7071 55.1011 12.1407)" width="10.58" height="10.581"/>
<rect x="10.969" y="3.415" transform="matrix(0.7071 0.7071 -0.7071 0.7071 10.9174 -8.9471)" width="10.581" height="10.581"/>
<rect x="10.969" y="20.969" transform="matrix(-0.7071 -0.7071 0.7071 -0.7071 9.1872 56.3242)" width="10.581" height="10.581"/>
<rect x="69.674" y="12.192" transform="matrix(0.7071 -0.7071 0.7071 0.7071 9.5936 58.1264)" width="10.581" height="10.581"/>
<rect x="87.227" y="12.191" transform="matrix(-0.7072 0.7071 -0.7071 -0.7072 170.3026 -35.5708)" width="10.581" height="10.581"/>
<rect x="78.451" y="3.415" transform="matrix(0.7071 0.7071 -0.7071 0.7071 30.681 -56.6628)" width="10.581" height="10.581"/>
<rect x="78.451" y="20.969" transform="matrix(-0.7071 -0.7071 0.7071 -0.7071 124.3854 104.043)" width="10.581" height="10.581"/>
</svg>