<svg xmlns:dc="http://purl.org/dc/elements/1.1/" xmlns:cc="http://creativecommons.org/ns#" xmlns:rdf="http://www.w3.org/1999/02/22-rdf-syntax-ns#" xmlns:svg="http://www.w3.org/2000/svg" xmlns="http://www.w3.org/2000/svg" xmlns:sodipodi="http://sodipodi.sourceforge.net/DTD/sodipodi-0.dtd" xmlns:inkscape="http://www.inkscape.org/namespaces/inkscape" width="100" height="43.34" id="svg2" version="1.1" inkscape:version="0.48.2 r9819" sodipodi:docname="PanoramaIcon.svg">
  <defs id="defs4"/>
  <sodipodi:namedview id="base" pagecolor="#ffffff" bordercolor="#666666" borderopacity="1.0" inkscape:pageopacity="0.0" inkscape:pageshadow="2" inkscape:zoom="3.959798" inkscape:cx="124.06139" inkscape:cy="16.836046" inkscape:document-units="px" inkscape:current-layer="layer1" showgrid="false" fit-margin-top="0" fit-margin-left="0" fit-margin-right="0" fit-margin-bottom="0"/>
  <metadata id="metadata7">
    <rdf:RDF>
      <cc:Work rdf:about="">
        <dc:format>image/svg+xml</dc:format>
        <dc:type rdf:resource="http://purl.org/dc/dcmitype/StillImage"/>
        <dc:title/>
      </cc:Work>
    </rdf:RDF>
  </metadata>
  <g inkscape:label="Layer 1" inkscape:groupmode="layer" id="layer1" transform="translate(-291.11836,-156.40714)">
    <path style="font-size:medium;font-style:normal;font-variant:normal;font-weight:normal;font-stretch:normal;text-indent:0;text-align:start;text-decoration:none;line-height:normal;letter-spacing:normal;word-spacing:normal;text-transform:none;direction:ltr;block-progression:tb;writing-mode:lr-tb;text-anchor:start;baseline-shift:baseline;color:#000000;fill:#000000;fill-opacity:1;stroke:none;stroke-width:17.89999962;marker:none;visibility:visible;display:inline;overflow:visible;enable-background:accumulate;font-family:Sans;-inkscape-font-specification:Sans" d="m 387.15624,156.40814 -3.46593,0.75689 c -14.81126,3.24585 -27.52726,4.95995 -42.51482,5.20086 -0.0153,-2.4e-4 -0.0323,2.4e-4 -0.0476,0 -12.48242,-0.21355 -28.79503,-2.95522 -42.77191,-5.23083 l -3.2755,-0.53957 0,2.6379 0,37.6875 0,2.82525 3.45642,-0.7569 c 14.82985,-3.24992 27.53601,-4.9142 42.56243,-5.20086 0.0248,1e-4 0.0514,-1.1e-4 0.0762,0 12.97439,0.0603 28.6334,2.16581 42.52434,5.20086 l 3.45641,0.74941 0,-2.81776 0,-37.6875 0,-2.82525 z m -86.6293,5.46315 c 13.22492,2.16152 28.15924,4.57546 40.53429,4.78119 l 0.0476,0.007 0.0571,0 c 14.29681,-0.22239 26.80204,-1.82677 40.53429,-4.66877 l 0,32.14941 c -13.39552,-2.73118 -27.95451,-4.59521 -40.57238,-4.6463 l -0.0381,0 -0.0381,0 c -14.30548,0.26827 -26.76455,1.7874 -40.52477,4.63131 l 0,-32.25432 z" id="rect2985" inkscape:connector-curvature="0"/>
    <path style="fill:#000000;stroke:#000000;stroke-width:0.2703132px;stroke-linecap:butt;stroke-linejoin:miter;stroke-opacity:1" d="m 304.1368,191.41453 9.81357,-20.36317 14.12651,16.94578 c 0,0 -7.78587,0.60916 -12.02638,1.42318 -4.2405,0.81403 -11.9137,1.99421 -11.9137,1.99421 z" id="path3756" inkscape:connector-curvature="0" sodipodi:nodetypes="ccczc"/>
    <path style="fill:#000000;stroke:#000000;stroke-width:0.2703132px;stroke-linecap:butt;stroke-linejoin:miter;stroke-opacity:1" d="m 324.18442,182.37625 6.9253,-6.96451 8.3823,11.97585 c 0,0 -2.87371,0.0692 -4.87024,0.18689 -1.99654,0.11766 -5.77382,0.33916 -5.77382,0.33916 z" id="path3758" inkscape:connector-curvature="0" sodipodi:nodetypes="ccczcc"/>
    <path style="fill:#000000;stroke:#000000;stroke-width:0.2703132px;stroke-linecap:butt;stroke-linejoin:miter;stroke-opacity:1" d="m 335.95743,181.40728 5.23244,-5.87441 11.00353,5.63216 -6.81581,6.28743 c 0,0 -1.53627,-0.0927 -2.39535,-0.11536 -0.85908,-0.0227 -2.75921,-0.0101 -2.75921,-0.0101 z" id="path3760" inkscape:connector-curvature="0" sodipodi:nodetypes="cccczcc"/>
    <path style="fill:#000000;stroke:#000000;stroke-width:0.2703132px;stroke-linecap:butt;stroke-linejoin:miter;stroke-opacity:1" d="m 378.13412,191.38514 -3.85672,-22.02949 -10.09496,19.82369 c 0,0 3.73508,0.62413 6.86315,1.06805 3.12807,0.44393 7.08853,1.13775 7.08853,1.13775 z" id="path3762" inkscape:connector-curvature="0" sodipodi:nodetypes="ccczc"/>
    <path style="fill:#000000;stroke:#000000;stroke-width:0.2703132px;stroke-linecap:butt;stroke-linejoin:miter;stroke-opacity:1" d="m 367.19821,182.01289 -6.00193,-8.5391 -15.10363,14.03923 c 0,0 5.5773,0.26845 9.69339,0.65587 4.11609,0.38743 7.78082,0.93215 7.78082,0.93215 z" id="path3764" inkscape:connector-curvature="0" sodipodi:nodetypes="ccczcc"/>
    <path inkscape:connector-curvature="0" style="color:#000000;fill:#000000;fill-opacity:1;fill-rule:nonzero;stroke:none;stroke-width:17.89999962;marker:none;visibility:visible;display:inline;overflow:visible;enable-background:accumulate" d="m 355.55873,173.23777 c 0,1.63185 -1.65008,2.95476 -3.68557,2.95476 -2.03549,0 -3.68557,-1.32291 -3.68557,-2.95476 0,-1.63193 1.65008,-2.95477 3.68557,-2.95477 2.03549,0 3.68557,1.32284 3.68557,2.95477 z" id="path3766"/>
  </g>
</svg>