<svg xmlns="http://www.w3.org/2000/svg" xmlns:xlink="http://www.w3.org/1999/xlink" version="1.1" id="Layer_1" x="0px" y="0px" width="100px" height="68.05px" viewBox="0 0 100 68.05" enable-background="new 0 0 100 68.05" xml:space="preserve">
<path d="M50,0C31.239,0,15.975,15.264,15.975,34.025S31.239,68.05,50,68.05c18.762,0,34.025-15.264,34.025-34.025S68.762,0,50,0z   M71.15,53.826l-3.857-3.086l-4.734,3.847l2.193,4.384c-4.325,2.567-9.368,4.048-14.752,4.048s-10.426-1.48-14.751-4.048  l2.192-4.384l-4.734-3.846l-3.857,3.085c-3.255-3.475-5.67-7.746-6.908-12.488l2.777-1.543l-0.888-7.397h-2.777  C21.902,17.165,34.559,5.032,50,5.032c15.44,0,28.099,12.133,28.945,27.366h-2.776l-0.888,7.397l2.776,1.543  C76.82,46.08,74.406,50.352,71.15,53.826z"/>
<path d="M50,24.409c-13.333,0-24.142,3.928-24.142,8.773c0,10.841,10.809,19.629,24.142,19.629c13.334,0,24.143-8.788,24.143-19.629  C74.143,28.337,63.334,24.409,50,24.409z M50,39.203c-2.941,0-5.326-2.385-5.326-5.326s2.385-5.325,5.326-5.325  c2.941,0,5.325,2.384,5.325,5.325S52.941,39.203,50,39.203z"/>
<path d="M91.991,29.939v8.17c3.486-0.372,7.286-1.052,8.009-2.281v-3.607C99.277,30.993,95.478,30.311,91.991,29.939z"/>
<path d="M91.216,29.861c-2.913-0.278-5.417-0.344-5.417-0.344v9.016c0,0,2.504-0.065,5.417-0.345V29.861z"/>
<path d="M8.009,29.939v8.17C4.522,37.737,0.723,37.058,0,35.828v-3.607C0.723,30.993,4.522,30.311,8.009,29.939z"/>
<path d="M8.784,29.861c2.914-0.278,5.417-0.344,5.417-0.344v9.016c0,0-2.503-0.065-5.417-0.345V29.861z"/>
</svg>