<svg xmlns="http://www.w3.org/2000/svg" xmlns:xlink="http://www.w3.org/1999/xlink" version="1.1" x="0px" y="0px" width="100px" height="100px" viewBox="0 0 100 100" enable-background="new 0 0 100 100" xml:space="preserve">
<g id="Captions">
	<rect x="-468" width="185" height="99"/>
	<rect x="-276" y="-36" width="100" height="30"/>
	<text transform="matrix(1 0 0 1 -210 -19.5)" fill="#000000" font-family="'Helvetica'" font-size="2.4">http://thenounproject.com</text>
	<text transform="matrix(1 0 0 1 -268.834 -24.5)"><tspan x="0" y="0" fill="#000000" font-family="'Helvetica-Bold'" font-size="6.1578">The Noun Project</tspan><tspan x="1.12" y="4.8" fill="#000000" font-family="'Helvetica-Bold'" font-size="4">Icon Template</tspan></text>
	<text transform="matrix(1 0 0 1 -454.5 10.5)" fill="#000000" font-family="'Helvetica-Bold'" font-size="6.1578">Reminders</text>
	<line fill="#000000" stroke="#FFFFFF" stroke-miterlimit="10" x1="-268" y1="-14.5" x2="-258" y2="-14.5"/>
	<line fill="#000000" stroke="#FFFFFF" stroke-miterlimit="10" x1="-455" y1="16.5" x2="-438" y2="16.5"/>
	<g>
		<g>
			<g>
				<rect x="-446.802" y="31.318" fill="#000000" width="8.721" height="8.642"/>
				<path fill="#000000" d="M-440.455,42.312h4.747v-4.703h-4.747V42.312z M-435.266,42.749h-5.63V37.17h5.63V42.749      L-435.266,42.749z M-442.221,44.062h8.279v-8.203h-8.279V44.062L-442.221,44.062z M-433.5,44.5h-9.163v-9.079h9.163V44.5      L-433.5,44.5z"/>
				<polygon fill="#000000" points="-442.149,44.133 -442.292,43.991 -434.013,35.787 -433.871,35.929     "/>
			</g>
		</g>
	</g>
	<rect x="-455" y="58" fill="none" width="35" height="32.5"/>
	<text transform="matrix(1 0 0 1 -455 60.1572)"><tspan x="0" y="0" fill="#000000" font-family="'Helvetica-Bold'" font-size="3">Strokes</tspan><tspan x="0" y="5" fill="#000000" font-family="'Helvetica'" font-size="2.4">Try to keep strokes at 4px</tspan><tspan x="0" y="10" fill="#000000" font-family="'Helvetica'" font-size="2.4">Minimum stroke weight is 2px</tspan><tspan x="0" y="14.5" fill="#000000" font-family="'Helvetica'" font-size="2.4">For thicker strokes use even </tspan><tspan x="0" y="17.5" fill="#000000" font-family="'Helvetica'" font-size="2.4">numbers: 6px, 8px etc.</tspan><tspan x="0" y="22" fill="#000000" font-family="'Helvetica-Bold'" font-size="2.4">Remember to expand strokes </tspan><tspan x="0" y="25" fill="#000000" font-family="'Helvetica-Bold'" font-size="2.4">before saving as an SVG </tspan></text>
	<rect x="-412.5" y="58" fill="none" width="35" height="32.5"/>
	<text transform="matrix(1 0 0 1 -412.5 60.1572)"><tspan x="0" y="0" fill="#000000" font-family="'Helvetica-Bold'" font-size="3">Size</tspan><tspan x="0" y="5" fill="#000000" font-family="'Helvetica'" font-size="2.4">Cannot be wider or taller than </tspan><tspan x="0" y="8.5" fill="#000000" font-family="'Helvetica'" font-size="2.4">100px (artboard size)</tspan><tspan x="0" y="13.5" fill="#000000" font-family="'Helvetica'" font-size="2.4">Scale your icon to fill as much of </tspan><tspan x="0" y="16.5" fill="#000000" font-family="'Helvetica'" font-size="2.4">the artboard as possible</tspan></text>
	<rect x="-370" y="58" fill="none" width="35" height="32.5"/>
	<text transform="matrix(1 0 0 1 -370 60.1572)"><tspan x="0" y="0" fill="#000000" font-family="'Helvetica-Bold'" font-size="3">Ungroup</tspan><tspan x="0" y="5" fill="#000000" font-family="'Helvetica'" font-size="2.4">If your design has more than one </tspan><tspan x="0" y="8" fill="#000000" font-family="'Helvetica'" font-size="2.4">shape, make sure to ungroup</tspan></text>
	<rect x="-326" y="58" fill="none" width="35" height="32.5"/>
	<text transform="matrix(1 0 0 1 -326 60.1572)"><tspan x="0" y="0" fill="#000000" font-family="'Helvetica-Bold'" font-size="3">Save as</tspan><tspan x="0" y="5" fill="#000000" font-family="'Helvetica'" font-size="2.4">Save as .SVG and make sure </tspan><tspan x="0" y="8" fill="#000000" font-family="'Helvetica'" font-size="2.4">&#8220;Use Artboards&#8221; is checked</tspan></text>
	<text transform="matrix(1.0074 0 0 1 -401.542 30.5933)" fill="#000000" font-family="'Helvetica'" font-size="2.5731">100px</text>
	<text transform="matrix(1.0074 0 0 1 -317 39)" fill="#000000" font-family="'Helvetica-Bold'" font-size="5.1462">.SVG</text>
	<rect x="-402.514" y="34.815" fill="#000000" width="10.261" height="10.185"/>
	<rect x="-402.477" y="31.766" fill="#000000" width="0.522" height="2.337"/>
	<rect x="-392.812" y="31.766" fill="#000000" width="0.523" height="2.337"/>
	<rect x="-403" y="32.337" fill="#000000" width="11.233" height="0.572"/>
	<g>
		<rect x="-359.805" y="33.844" fill="#000000" width="10.305" height="10.156"/>
		<rect x="-352.809" y="28.707" fill="#000000" width="3.308" height="3.261"/>
	</g>
	<rect x="-454.5" y="22.5" fill="#000000" stroke="#FFFFFF" stroke-miterlimit="10" width="30" height="30"/>
	<rect x="-412.5" y="22.5" fill="#000000" stroke="#FFFFFF" stroke-miterlimit="10" width="30" height="30"/>
	<rect x="-369.5" y="22.5" fill="#000000" stroke="#FFFFFF" stroke-miterlimit="10" width="30" height="30"/>
	<rect x="-325.5" y="22.5" fill="#000000" stroke="#FFFFFF" stroke-miterlimit="10" width="30" height="30"/>
</g>
<g id="Your_Icon">
	<path fill="#000000" d="M-226,36.166c-25.705,0-28.524,4.287-28.524,4.287c-3.743,4.81-3.709,18.319-3.709,18.319   s12.581-16.93,32.233-16.93s32.491,16.926,32.491,16.926s0.13-12.096-4.05-18.232C-197.559,40.536-200.295,36.166-226,36.166z"/>
	<path fill="#000000" d="M-211.286,77.039c-1.372-0.023-3.743,1.533-3.743,3.312c0,1.78,2.938,2.332,4.05,2.332   c2.087,0,4.233-1.656,4.233-1.656c4.599,0,8.827-1.083,11.717-2.064l0.629-3.292c-3.176,1.571-7.676,3.401-12.468,3.331   C-206.868,79.002-207.728,77.1-211.286,77.039z"/>
	<path fill="#000000" d="M-247.188,18.422c0,5.182,0.664,11.197,0.799,12.371c4.691-0.544,11.104-0.954,19.46-0.954   c7.29,0,13.392,0.368,18.245,0.884c0.211-1.178,1.303-7.505,1.303-12.165c0-4.529-1.286-10.433-1.601-11.806   c-4.616-1.49-10.003-2.303-16.272-2.303c-7.889,0-14.472,1.286-19.922,3.591C-245.65,9.251-247.188,13.544-247.188,18.422z"/>
	<path fill="none" d="M-191.28,61.363c0.13-8.135-0.899-16.607-3.288-20.975c-0.338-0.666-0.701-1.207-1.088-1.594   c-0.02-0.019-0.041-0.038-0.061-0.056c-0.06-0.065-0.118-0.132-0.179-0.192c-3.649-3.649-16.896-4.893-30.104-4.619   c-13.209-0.274-26.455,0.97-30.104,4.619c-0.061,0.061-0.119,0.127-0.179,0.192c-0.02,0.019-0.041,0.038-0.061,0.056   c-0.387,0.388-0.75,0.929-1.088,1.594c-2.389,4.368-3.418,12.84-3.289,20.977c-0.139,9.245,0.937,18.316,3.383,20.961   c6.242,6.754,18.771,9.764,31.338,9.268c12.565,0.496,25.096-2.514,31.338-9.268c0.426-0.459,1.156-1.949,1.156-1.949   c0.24-0.572,1.64-7.008,1.727-7.748v-0.002l0,0C-191.384,69.229-191.221,65.313-191.28,61.363z"/>
	<path fill="#000000" d="M-178.487,26.729h-5.224c-2.405,0-2.488,5.231-2.488,5.231c-0.316-1.181,0.394,1.128,0,0   c-1.99-3.78,0.688-6.27,0.688-6.27c2.396-0.43,6.146,0.003,6.146,0.003l-10.157-2.507c-3.315-6.471-8.326-11.687-15.592-14.955   c0.382,1.464,1.547,6.312,1.594,11.164c0.049,5.082-0.92,10.537-1.162,11.821c5.354,0.764,8.541,1.669,9.405,2.23   c2.487,1.617,2.019,5.473,2.019,5.473s-1.362-2.523-2.807-3.866c-1.326-1.233-14.207-3.116-30.553-3.116   c-16.347,0-27.49,1.758-28.982,3.002c-0.941,0.784-3.482,3.358-3.482,3.358s1.243-4.354,2.729-5.349   c0.65-0.435,2.731-1.084,6.455-1.677c-0.188-1.685-0.797-7.516-0.797-11.874c0-4.17,1.32-8.172,1.822-9.541   c-5.279,2.981-9.293,7.068-12.25,11.942c-0.237,0.391-0.465,0.787-0.688,1.188c0.005-0.012,0.009-0.02,0.009-0.02l-11.045,2.727   c0,0,3.749-0.433,6.145-0.003c0,0,3.143,2.324,0.904,7.238c0.053-0.159,0.362-1.323,0,0c0,0-0.249-6.199-2.488-6.199h-5.224   c-2.487,0-2.487,8.998-2.487,8.998s0,9.659,2.487,9.659h5.224c0.156,0,0.308-0.016,0.455-0.043   c-0.057,0.797-0.101,2.346-0.133,3.154l2.425,1.568l-0.011,0.919l-2.254-0.781c0,0-0.606,0.603-1.477,2.434   c0.08-1.737,0.497-2.572,0.497-2.572h-2.192c0,0-1.824,4.395-1.658,8.209s2.322,9.204,2.322,9.204h3.934l2.404-1.071l0.018,1.071   l-2.277,1.361c1.945,7.265,5.688,13.886,11.418,18.353l1.009,4.336l2.312-2.443l-1.358,3.486l8.768,2.975l0.841-3.611l0.275,3.617   l4.784-1.373c3.839,0.712,8.135,1.086,12.934,1.086c25.333,0,36.068-10.905,39.783-26.604l-2.369-1.183l0.065-1.237l2.404,1.237   h3.934c0,0,2.155-5.39,2.321-9.204s-1.658-8.209-1.658-8.209h-2.523c0,0,0.759,1.551,0.456,2.494c-1.014-1.741-1.4-2.292-1.4-2.292   l-2.127,0.962l-0.088-1.164l2.438-1.487c-0.027-0.833-0.066-2.407-0.117-3.229c0.139,0.023,0.279,0.039,0.424,0.039h5.224   c2.487,0,2.487-9.744,2.487-9.744S-176,26.729-178.487,26.729z M-270.9,43.769c-1.924,0-3.482-1.559-3.482-3.482   s1.559-3.482,3.482-3.482s3.482,1.559,3.482,3.482S-268.977,43.769-270.9,43.769z M-270.9,35.063c-1.924,0-3.482-1.559-3.482-3.483   c0-1.923,1.559-3.482,3.482-3.482s3.482,1.559,3.482,3.482C-267.418,33.504-268.977,35.063-270.9,35.063z M-266.63,62.178   c-0.791,0-1.433-1.855-1.433-4.146c0-2.289,0.642-4.146,1.433-4.146c0.79,0,1.432,1.857,1.432,4.146   C-265.198,60.322-265.84,62.178-266.63,62.178z M-191.779,72.627v0.002c-0.087,0.74-1.486,7.176-1.727,7.748   c0,0-0.73,1.49-1.156,1.949c-6.242,6.754-18.772,9.764-31.338,9.268c-12.566,0.496-25.096-2.514-31.338-9.268   c-2.446-2.645-3.521-11.716-3.383-20.961c-0.129-8.137,0.9-16.609,3.289-20.977c0.338-0.666,0.701-1.207,1.088-1.594   c0.02-0.019,0.041-0.038,0.061-0.056c0.06-0.065,0.118-0.132,0.179-0.192c3.649-3.649,16.896-4.893,30.104-4.619   c13.209-0.274,26.455,0.97,30.104,4.619c0.061,0.061,0.119,0.127,0.179,0.192c0.02,0.019,0.041,0.038,0.061,0.056   c0.387,0.388,0.75,0.929,1.088,1.594c2.389,4.368,3.418,12.84,3.288,20.975C-191.221,65.313-191.384,69.229-191.779,72.627   L-191.779,72.627z M-185.038,53.885c0.791,0,1.433,1.857,1.433,4.146c0,2.291-0.642,4.146-1.433,4.146   c-0.79,0-1.433-1.855-1.433-4.146C-186.471,55.742-185.828,53.885-185.038,53.885z M-181.1,28.098c1.924,0,3.482,1.559,3.482,3.482   c0,1.924-1.559,3.483-3.482,3.483s-3.482-1.559-3.482-3.483C-184.582,29.657-183.023,28.098-181.1,28.098z M-181.1,43.769   c-1.719,0-3.144-1.247-3.428-2.884c-0.014-0.115-0.028-0.229-0.042-0.344c-0.006-0.084-0.013-0.168-0.013-0.254   c0-1.923,1.559-3.482,3.482-3.482s3.482,1.559,3.482,3.482S-179.176,43.769-181.1,43.769z"/>
	<path fill="#000000" d="M-59.67,32.757c-0.923-3.518-2.963-4.984-4.59-5.765c-1.525-0.73-3.268-1.161-5.633-0.908   c0,0,8.905,26.042,12.875,28.15C-51.684,56.901-59.67,32.757-59.67,32.757z"/>
	<path fill="#000000" d="M-42.309,76.09l-0.05-5.159l-8.686-0.295l0.68,5.524l-4.664,0.059l-0.579-7.218l11.471,0.255   c-0.61-14.324-4.618-28.825-13.39-35.031c0,0,8.185,25.111,0.634,22.53c-5.195-2.07-15.328-31.54-15.328-31.54   c-2.444-0.7-5.097-0.982-7.509-1.57c0,0,0.661,27.551-8.643,27.551s-8.205-27.507-8.205-27.507   c-2.328,0.462-5.98,1.454-8.434,2.303c0,0-9.411,27.669-13.826,30.622c-7.447,5.328-0.463-21.246-0.463-21.246   c-7.484,8.683-11.369,21.286-12.032,34.481l12.682,0.157l-0.688,6.891l-4.095-0.122l1.078-5.068l-11.161-0.126l0.042,5.653   L-138,77.154c-0.087,4.943,13.951,2.506,49.276,3.131c39.122,0.691,50.67-1.082,50.724-4.119L-42.309,76.09z"/>
	<path fill="#000000" d="M-112.717,27.617c-3.196,1.492-4.499,6.8-4.499,6.8s-6.685,23.727-1.827,20.376   c4.198-3.93,11.934-27.956,11.934-27.956S-109.229,25.988-112.717,27.617z"/>
	<path fill="#000000" d="M-85.92,49.098c-0.048,0.043-0.087,0.088-0.123,0.135C-85.939,49.142-85.882,49.087-85.92,49.098z"/>
	<path fill="#000000" d="M-82.004,22.813c0,0-2.6-3.182-6.266-3.246c-3.679-0.065-6.369,3.406-6.369,3.406   s-0.935,26.124,6.322,26.124S-82.004,22.813-82.004,22.813z"/>
	<path fill="#000000" d="M82.062,86.428C77.605,70.535,58.804,0.312,45.933,0.005c-8.728-0.208-13.122,5.832-17.259,9.148   c-5.557,4.454-10.694,4.17-10.472,6.991c0,0,4.945,4.793,13.057,2.304c0,0,2.577-3.598,2.671-3.635c0,0-2.161,5.696-1.937,6.148   c0.237,0.479,0.271,0.818,0.954,0.944l2.433-3.134L23.174,65.884l3.551-0.388l3.757-6.977l3.252,7.226l7.795,1.417l-5.866,5.325   l1.061,7.852l-6.878-3.934l-7.139,3.435l1.616-7.756l-2.171-2.272l-4.248,15.974c-3.968,0.608-1.878,4.828-1.878,4.828   s2.664,8.942,35.182,9.375c32.518,0.432,33.31-10.554,33.31-10.554S84.798,86.798,82.062,86.428z M34.05,49.009l-2.747,1.322   l0.622-2.985l-2.106-2.205l3.031-0.331l1.446-2.685l1.251,2.78l2.999,0.545l-2.257,2.05l0.408,3.021L34.05,49.009z M39.561,62.189   l0.927-4.448l-3.139-3.285l4.517-0.493l2.155-4.002l1.863,4.146l4.471,0.812l-3.363,3.054l0.608,4.503l-3.944-2.257L39.561,62.189z    M55.85,90.477c-7.057,0.481-13.166-4.85-13.646-11.906c-0.48-7.056,4.85-13.166,11.906-13.646   c3.458-0.235,6.686,0.927,9.138,3.001c-1.546-0.717-3.289-1.065-5.108-0.941c-5.773,0.393-10.134,5.392-9.74,11.166   c0.394,5.773,5.392,10.135,11.165,9.741c1.819-0.124,3.498-0.706,4.933-1.626C62.348,88.652,59.307,90.242,55.85,90.477z"/>
</g>
</svg>