<svg xmlns="http://www.w3.org/2000/svg" xmlns:xlink="http://www.w3.org/1999/xlink" version="1.1" id="Layer_1" x="0px" y="0px" width="100px" height="100px" viewBox="0 0 100 100" enable-background="new 0 0 100 100" xml:space="preserve">
<path fill="#000000" d="M63.341,33.291c0.37,0.807,0.905,1.988,1.123,2.523v11.018l-1.416,2.679H36.651  c-0.37-0.806-0.905-1.989-1.122-2.523V35.969l1.415-2.678H63.341 M63.961,32.323H36.36l-1.799,3.406v11.439  c0.251,0.679,1.47,3.311,1.47,3.311h27.601l1.8-3.406V35.633C65.182,34.956,63.961,32.323,63.961,32.323L63.961,32.323z"/>
<path fill="#000000" d="M63.341,52.897c0.37,0.806,0.907,1.988,1.123,2.523v35.618l-1.416,2.679H36.651  c-0.37-0.806-0.905-1.989-1.122-2.523v-4.348l-0.02-0.968V60.891h0.02v-0.968v-4.364l1.413-2.661H63.341 M63.961,51.93H36.36  l-1.799,3.387v4.606h-0.02v26.924h0.02v4.528c0.251,0.679,1.47,3.311,1.47,3.311h27.601l1.8-3.406v-36.04  C65.182,54.561,63.961,51.93,63.961,51.93L63.961,51.93z"/>
<path fill="#000000" d="M55.734,14.806c4.82,5.008,8.204,11.185,8.729,12.172c0.183,1.421-0.675,2.605-1.106,3.099H36.659  c-0.433-0.495-1.297-1.682-1.125-3.103c0.531-0.997,3.907-7.161,8.728-12.169H55.734 M56.143,13.838H43.854  c-5.556,5.651-9.253,12.832-9.253,12.832c-0.425,2.517,1.646,4.375,1.646,4.375H63.77c0,0,2.07-1.858,1.626-4.375  C65.396,26.67,61.698,19.49,56.143,13.838L56.143,13.838z"/>
<path fill="#000000" d="M55.077,8.283v3.156v0.425H45.014v-0.425V8.283H55.077 M56.045,7.315H44.046v4.124  c-0.39,0-0.697,0.309-0.697,0.696c0,0.388,0.308,0.697,0.697,0.697h11.999c0.388,0,0.697-0.309,0.697-0.697  c0-0.387-0.31-0.696-0.697-0.696V7.315L56.045,7.315z"/>
</svg>