<svg xmlns="http://www.w3.org/2000/svg" xmlns:xlink="http://www.w3.org/1999/xlink" version="1.1" id="Layer_2" x="0px" y="0px" width="100px" height="100px" viewBox="0 0 100 100" enable-background="new 0 0 100 100" xml:space="preserve">
<path fill="none" stroke="#000000" stroke-width="2" stroke-linejoin="round" stroke-miterlimit="10" d="M15.616,37.193  c-1.758,0.655-3.517,1.311-5.275,1.966c-0.573,0.213-1.165,0.498-1.755,0.654c-2.918,0.771-6.293,9.277-6.314,9.523  C0.667,67.917,15.666,68.732,17.882,69.384c1.2,0.353,28.676,0.108,30.307,0.23c-0.045-0.181,8.819-0.138,13.305-1.517  c4.161-1.279,9.767-6.083,10.092-7.504c0.929-4.062,3.15-12.417-7.06-20.464c-0.679-0.535-10.819,8.196-13.216,10.331  c-1.706,1.52-3.069,3.359-4.717,4.933c-0.791,0.756-1.457,1.952-2.345,2.515c-0.756-1.857,4.699-9.046,5.078-10.405  c0.003-0.01,0.034-0.076,0.089-0.188c0.647-1.33,4.625-9.214,5.091-10.035c-0.596-0.458-2.228-0.863-3.006-1.057  c-1.464-0.364-5.387-0.913-6.059-0.976c-0.699-0.065-2.83-0.73-3.414-0.606c-2.438,0.516-12.794,14.891-13.942,17.276  c-0.262,0.544,1.864-5.658,2.138-6.543c0.703-2.279,2.828-9.374,2.615-11.009c-0.07,0.469-7.552,0.301-8.581,1.482  c-2.228,2.558-3.998,5.569-5.92,8.349c-1.584,2.29-2.91,4.692-4.536,6.962c-0.996,1.39-1.854,2.827-2.534,4.381  c-0.288,0.657-0.775,1.539-0.849,2.255c-0.025-1.354,0.011-2.747,0.583-3.999c0.279-0.609,0.686-1.063,0.981-1.624  c0.025-0.049,0.054-0.109,0.086-0.181c0.604-1.382,2.244-6.896,2.605-8.611c0.167-0.797,0.75-4.88,0.88-5.712  c0.215-1.363,0.028,0.788,0.028-0.583"/>
<path fill="none" stroke="#000000" stroke-width="2" stroke-miterlimit="10" d="M24.769,70.677"/>
<path fill="none" stroke="#000000" stroke-width="2" stroke-linejoin="round" stroke-miterlimit="10" d="M30.819,47.012"/>
<path fill="none" stroke="#000000" stroke-width="2" stroke-linejoin="round" stroke-miterlimit="10" d="M49.363,47.374"/>
<path fill="none" stroke="#000000" stroke-width="2" stroke-linejoin="round" stroke-miterlimit="10" d="M15.75,38.75  c1.367,0.051,2.738-0.202,3.998-0.669c0.847-0.315,2.926-0.875,3.691-1.25"/>
<path fill="none" stroke="#000000" stroke-width="2" stroke-linejoin="round" stroke-miterlimit="10" d="M32.75,35.917  c2.46,0.002,4.875,0.167,7.333,0.167"/>
<path fill="none" stroke="#000000" stroke-width="2" stroke-linejoin="round" stroke-miterlimit="10" d="M54.515,37.962  c1.263,1.023,3.345,0.812,4.834,1.163c0.996,0.234,1.968,1.061,2.763,1.59"/>
<path fill="none" stroke="#000000" stroke-width="2" stroke-linejoin="round" stroke-miterlimit="10" d="M58.907,17.908  c0,0-0.729,0.9-0.595,2.184c0.174,1.667,2.116,2.907,3.108,2.992C62.764,23.2,89.469,23.141,92.166,23  c2.431-0.126,4.564-1.262,4.334-3.981c-0.091-1.07-0.345-1.457-1.356-1.75C95.144,17.27,59.062,17.5,58.907,17.908z"/>
<path fill="none" stroke="#000000" stroke-width="2" stroke-linejoin="round" stroke-miterlimit="10" d="M62.499,23.75  c-0.034,0.613,1.631,8.389,1.86,9.016c0.474,1.292,3.802,4.599,4.973,5.588c1.021,0.863,3.328,0.837,4.681,0.896  c1.735,0.077,9.257,0.087,9.82-0.288c0.408-0.271,5.938-5.887,6.286-6.745c0.851-2.094,0.982-6.05,1.047-9.051"/>
<path fill="none" stroke="#000000" stroke-width="2" stroke-linejoin="round" stroke-miterlimit="10" d="M70.457,39.25l5.195,9.739  l-0.027,16.917c-0.448,0.679-14.875,4.937-14.875,5.511c0,0.553,33.461,0.208,33.559-0.605c-0.641-0.242-14.446-4.031-15.121-4.749  V49.219c0.056-0.267,4.562-9.968,4.562-9.968"/>
<path fill="none" stroke="#000000" stroke-width="2" stroke-linejoin="round" stroke-miterlimit="10" d="M81.609,72.588"/>
</svg>