<svg xmlns="http://www.w3.org/2000/svg" xmlns:xlink="http://www.w3.org/1999/xlink" version="1.1" x="0px" y="0px" width="100px" height="100px" viewBox="0 0 100 100" enable-background="new 0 0 100 100" xml:space="preserve">
<g id="Captions">
	<rect x="-192" width="185" height="99"/>
	<rect y="-36" width="100" height="30"/>
	<text transform="matrix(1 0 0 1 66 -19.5)" fill="#000000" font-family="'Helvetica'" font-size="2.4">http://thenounproject.com</text>
	<text transform="matrix(1 0 0 1 7.166 -24.5)"><tspan x="0" y="0" fill="#000000" font-family="'Helvetica-Bold'" font-size="6.1578">The Noun Project</tspan><tspan x="1.12" y="4.8" fill="#000000" font-family="'Helvetica-Bold'" font-size="4">Icon Template</tspan></text>
	<text transform="matrix(1 0 0 1 -178.5 10.5)" fill="#000000" font-family="'Helvetica-Bold'" font-size="6.1578">Reminders</text>
	<line fill="#000000" stroke="#FFFFFF" stroke-miterlimit="10" x1="8" y1="-14.5" x2="18" y2="-14.5"/>
	<line fill="#000000" stroke="#FFFFFF" stroke-miterlimit="10" x1="-179" y1="16.5" x2="-162" y2="16.5"/>
	<g>
		<g>
			<g>
				<rect x="-170.802" y="31.318" fill="#000000" width="8.721" height="8.642"/>
				<path fill="#000000" d="M-164.455,42.312h4.747v-4.703h-4.747V42.312z M-159.266,42.749h-5.63V37.17h5.63V42.749      L-159.266,42.749z M-166.221,44.062h8.279v-8.203h-8.279V44.062L-166.221,44.062z M-157.5,44.5h-9.163v-9.079h9.163V44.5      L-157.5,44.5z"/>
				<polygon fill="#000000" points="-166.149,44.133 -166.292,43.991 -158.013,35.787 -157.871,35.929     "/>
			</g>
		</g>
	</g>
	<rect x="-179" y="58" fill="none" width="35" height="32.5"/>
	<text transform="matrix(1 0 0 1 -179 60.1299)"><tspan x="0" y="0" fill="#000000" font-family="'Helvetica-Bold'" font-size="3">Strokes</tspan><tspan x="0" y="5" fill="#000000" font-family="'Helvetica'" font-size="2.4">Try to keep strokes at 4px</tspan><tspan x="0" y="10" fill="#000000" font-family="'Helvetica'" font-size="2.4">Minimum stroke weight is 2px</tspan><tspan x="0" y="14.5" fill="#000000" font-family="'Helvetica'" font-size="2.4">For thicker strokes use even </tspan><tspan x="0" y="17.5" fill="#000000" font-family="'Helvetica'" font-size="2.4">numbers: 6px, 8px etc.</tspan><tspan x="0" y="22" fill="#000000" font-family="'Helvetica-Bold'" font-size="2.4">Remember to expand strokes </tspan><tspan x="0" y="25" fill="#000000" font-family="'Helvetica-Bold'" font-size="2.4">before saving as an SVG </tspan></text>
	<rect x="-136.5" y="58" fill="none" width="35" height="32.5"/>
	<text transform="matrix(1 0 0 1 -136.5 60.1299)"><tspan x="0" y="0" fill="#000000" font-family="'Helvetica-Bold'" font-size="3">Size</tspan><tspan x="0" y="5" fill="#000000" font-family="'Helvetica'" font-size="2.4">Cannot be wider or taller than </tspan><tspan x="0" y="8.5" fill="#000000" font-family="'Helvetica'" font-size="2.4">100px (artboard size)</tspan><tspan x="0" y="13.5" fill="#000000" font-family="'Helvetica'" font-size="2.4">Scale your icon to fill as much of </tspan><tspan x="0" y="16.5" fill="#000000" font-family="'Helvetica'" font-size="2.4">the artboard as possible</tspan></text>
	<rect x="-94" y="58" fill="none" width="35" height="32.5"/>
	<text transform="matrix(1 0 0 1 -94 60.1299)"><tspan x="0" y="0" fill="#000000" font-family="'Helvetica-Bold'" font-size="3">Ungroup</tspan><tspan x="0" y="5" fill="#000000" font-family="'Helvetica'" font-size="2.4">If your design has more than one </tspan><tspan x="0" y="8" fill="#000000" font-family="'Helvetica'" font-size="2.4">shape, make sure to ungroup</tspan></text>
	<rect x="-50" y="58" fill="none" width="35" height="32.5"/>
	<text transform="matrix(1 0 0 1 -50 60.1299)"><tspan x="0" y="0" fill="#000000" font-family="'Helvetica-Bold'" font-size="3">Save as</tspan><tspan x="0" y="5" fill="#000000" font-family="'Helvetica'" font-size="2.4">Save as .SVG and make sure &#8220;Use </tspan><tspan x="0" y="8" fill="#000000" font-family="'Helvetica'" font-size="2.4">Artboards&#8221; is checked</tspan></text>
	<text transform="matrix(1.0074 0 0 1 -125.542 30.5933)" fill="#000000" font-family="'Helvetica'" font-size="2.5731">100px</text>
	<text transform="matrix(1.0074 0 0 1 -41 39)" fill="#000000" font-family="'Helvetica-Bold'" font-size="5.1462">.SVG</text>
	<rect x="-126.514" y="34.815" fill="#000000" width="10.261" height="10.185"/>
	<rect x="-126.477" y="31.766" fill="#000000" width="0.522" height="2.337"/>
	<rect x="-116.813" y="31.766" fill="#000000" width="0.523" height="2.337"/>
	<rect x="-127" y="32.337" fill="#000000" width="11.233" height="0.572"/>
	<g>
		<rect x="-83.805" y="33.844" fill="#000000" width="10.305" height="10.156"/>
		<rect x="-76.809" y="28.707" fill="#000000" width="3.308" height="3.261"/>
	</g>
	<rect x="-178.5" y="22.5" fill="#000000" stroke="#FFFFFF" stroke-miterlimit="10" width="30" height="30"/>
	<rect x="-136.5" y="22.5" fill="#000000" stroke="#FFFFFF" stroke-miterlimit="10" width="30" height="30"/>
	<rect x="-93.5" y="22.5" fill="#000000" stroke="#FFFFFF" stroke-miterlimit="10" width="30" height="30"/>
	<rect x="-49.5" y="22.5" fill="#000000" stroke="#FFFFFF" stroke-miterlimit="10" width="30" height="30"/>
</g>
<g id="Your_Icon">
	<path d="M79.934,0H20.067c-5.27,0-9.541,4.272-9.541,9.541v80.918c0,5.271,4.271,9.541,9.541,9.541h59.866   c5.271,0,9.54-4.27,9.54-9.541V9.541C89.474,4.272,85.205,0,79.934,0z M15.153,9.541c0-2.709,2.204-4.914,4.914-4.914h36.281   c2.709,0,4.912,2.205,4.912,4.914v29.083c0,2.709-2.203,4.914-4.912,4.914H20.067c-2.71,0-4.914-2.205-4.914-4.914V9.541z    M58.597,55.23H46.378c-1.47,0-2.665-1.196-2.665-2.666V51.85c0-1.47,1.195-2.665,2.665-2.665h12.219   c1.47,0,2.664,1.195,2.664,2.665v0.715C61.261,54.034,60.066,55.23,58.597,55.23z M61.261,61.143v0.717   c0,1.469-1.194,2.664-2.664,2.664H46.378c-1.47,0-2.665-1.195-2.665-2.664v-0.717c0-1.469,1.195-2.664,2.665-2.664h12.219   C60.066,58.479,61.261,59.674,61.261,61.143z M37.674,64.523h-0.958c-1.47,0-2.665-1.195-2.665-2.664v-0.717   c0-1.469,1.195-2.664,2.665-2.664h0.958c1.47,0,2.665,1.195,2.665,2.664v0.717C40.339,63.328,39.144,64.523,37.674,64.523z    M40.339,70.172v0.715c0,1.47-1.195,2.666-2.665,2.666h-0.958c-1.47,0-2.665-1.196-2.665-2.666v-0.715   c0-1.47,1.195-2.665,2.665-2.665h0.958C39.144,67.507,40.339,68.702,40.339,70.172z M37.674,55.23h-0.958   c-1.47,0-2.665-1.196-2.665-2.666V51.85c0-1.47,1.195-2.665,2.665-2.665h0.958c1.47,0,2.665,1.195,2.665,2.665v0.715   C40.339,54.034,39.144,55.23,37.674,55.23z M28.135,64.523h-0.958c-1.47,0-2.665-1.195-2.665-2.664v-0.717   c0-1.469,1.195-2.664,2.665-2.664h0.958c1.47,0,2.665,1.195,2.665,2.664v0.717C30.8,63.328,29.604,64.523,28.135,64.523z    M30.8,70.172v0.715c0,1.47-1.195,2.666-2.665,2.666h-0.958c-1.47,0-2.665-1.196-2.665-2.666v-0.715   c0-1.47,1.195-2.665,2.665-2.665h0.958C29.604,67.507,30.8,68.702,30.8,70.172z M28.135,55.23h-0.958   c-1.47,0-2.665-1.196-2.665-2.666V51.85c0-1.47,1.195-2.665,2.665-2.665h0.958c1.47,0,2.665,1.195,2.665,2.665v0.715   C30.8,54.034,29.604,55.23,28.135,55.23z M15.153,51.85c0-1.47,1.195-2.665,2.665-2.665h0.958c1.469,0,2.664,1.195,2.664,2.665   v0.715c0,1.47-1.195,2.666-2.664,2.666h-0.958c-1.47,0-2.665-1.196-2.665-2.666V51.85z M15.153,61.143   c0-1.469,1.195-2.664,2.665-2.664h0.958c1.469,0,2.664,1.195,2.664,2.664v0.717c0,1.469-1.195,2.664-2.664,2.664h-0.958   c-1.47,0-2.665-1.195-2.665-2.664V61.143z M15.153,70.172c0-1.47,1.195-2.665,2.665-2.665h0.958c1.469,0,2.664,1.195,2.664,2.665   v0.715c0,1.47-1.195,2.666-2.664,2.666h-0.958c-1.47,0-2.665-1.196-2.665-2.666V70.172z M61.261,91.588H15.153   c-0.586,0-1.062-0.476-1.062-1.062s0.476-1.061,1.062-1.061h46.107c0.586,0,1.062,0.475,1.062,1.061S61.847,91.588,61.261,91.588z    M61.261,87.344H15.153c-0.586,0-1.062-0.475-1.062-1.061s0.476-1.061,1.062-1.061h46.107c0.586,0,1.062,0.475,1.062,1.061   S61.847,87.344,61.261,87.344z M85.58,51.437h-1.877v24.835c0,0.256-0.207,0.463-0.462,0.463H68.177   c-0.256,0-0.463-0.207-0.463-0.463V51.437h-1.801c-0.586,0-1.061-0.475-1.061-1.061s0.475-1.061,1.061-1.061H85.58   c0.586,0,1.062,0.475,1.062,1.061S86.166,51.437,85.58,51.437z M85.58,33.646H65.913c-0.586,0-1.061-0.475-1.061-1.061   s0.475-1.061,1.061-1.061H85.58c0.586,0,1.062,0.475,1.062,1.061S86.166,33.646,85.58,33.646z M85.58,29.076H65.913   c-0.586,0-1.061-0.475-1.061-1.061s0.475-1.061,1.061-1.061H85.58c0.586,0,1.062,0.475,1.062,1.061S86.166,29.076,85.58,29.076z"/>
	<path d="M76.966,62.348c-0.258-0.071-0.502-0.129-0.731-0.186v-2.537c0.646,0,1.176,0.616,1.19,1.376h2.035   c-0.115-1.978-1.52-2.866-3.226-3.054v-1.104H75.39v1.104c-1.721,0.102-3.325,1.104-3.325,3.068c0,1.906,1.433,2.465,2.866,2.852   c0.187,0.043,0.358,0.086,0.459,0.129v2.996c-0.875-0.172-1.549-0.832-1.534-1.893H71.82c0.215,2.25,1.447,3.412,3.569,3.569v1.218   h0.845v-1.218c2.853-0.187,3.584-2.179,3.584-2.995C79.818,64.713,79.761,63.122,76.966,62.348z M75.39,61.961   c-0.918-0.215-1.29-0.516-1.29-1.146c0-0.788,0.645-1.189,1.29-1.189V61.961z M76.234,66.992V64.24   c1.133,0.314,1.549,0.588,1.549,1.348C77.783,66.504,76.938,66.92,76.234,66.992z"/>
</g>
</svg>