<svg xmlns="http://www.w3.org/2000/svg" xmlns:xlink="http://www.w3.org/1999/xlink" version="1.1" id="Layer_1" x="0px" y="0px" width="75px" height="75px" viewBox="0 0 75 75" enable-background="new 0 0 75 75" xml:space="preserve">
<path fill="#000000" d="M64.54,19.978v7.599H52.043c0,0,0.192-9.399-7.106-9.399c-7.298,0-8.606,0-8.606,0s-1.296,0-8.595,0  c-7.31,0-7.106,9.399-7.106,9.399H8.121v-7.599h2.604V3.268h51.221v16.71H64.54z"/>
<g>
	<path fill="#000000" d="M62.235,62.592c-0.199-2.602-4.202-5.102-5.203-5.601c-0.998-0.5-3.901-6.203-4.6-9.604   c-0.701-3.401-0.9-16.907-1.402-19.308c-0.499-2.401-13.805-4.201-13.805-4.201h-1.792c0,0-13.305,1.8-13.805,4.201   s-0.7,15.906-1.4,19.308c-0.701,3.4-3.601,9.104-4.602,9.604c-1,0.499-5.002,2.999-5.202,5.601c-0.2,2.602,0.7,5.603,4.902,7.103   c4.201,1.501,10.896,3.202,21.003,3.202c0.53,0,1.044-0.007,1.556-0.017c0.113-0.341,0.306-1.013,0.499-2.111   c0.301-1.701-6.001-14.505-6.001-14.505V42.96l1.401,13.104l6.702,13.805l2.559,2.757c6.466-0.538,11.098-1.791,14.288-2.931   C61.534,68.194,62.435,65.193,62.235,62.592z"/>
</g>
</svg>