<svg xmlns="http://www.w3.org/2000/svg" xmlns:xlink="http://www.w3.org/1999/xlink" version="1.1" id="Layer_1" x="0px" y="0px" width="100px" height="87.5530410184px" viewBox="0 0 707.965 619.469" enable-background="new 0 0 707.965 619.469" xml:space="preserve">
<path stroke="#FFFFFF" stroke-miterlimit="10" d="M460.144,332.715c11.17,12.385,24.277,18.764,29.275,14.254l5.658-5.102  c5-4.514-0.002-18.204-11.172-30.587l-80.891-89.668c-11.168-12.38-24.277-18.763-29.277-14.253l-5.656,5.104  c-5,4.511,0.004,18.205,11.17,30.585L460.144,332.715z" fill="#000000"/>
<circle stroke="#000000" stroke-miterlimit="10" cx="363.723" cy="134.208" r="54.891"/>
<circle stroke="#000000" stroke-miterlimit="10" cx="321.25" cy="87.224" r="12.418"/>
<circle stroke="#000000" stroke-miterlimit="10" cx="308.832" cy="112.06" r="12.418"/>
<circle stroke="#000000" stroke-miterlimit="10" cx="347.086" cy="75.317" r="12.418"/>
<circle stroke="#000000" stroke-miterlimit="10" cx="376.141" cy="74.806" r="12.418"/>
<circle stroke="#000000" stroke-miterlimit="10" cx="400.978" cy="87.224" r="12.418"/>
<circle stroke="#000000" stroke-miterlimit="10" cx="418.614" cy="111.06" r="12.418"/>
<g>
	<path stroke="#000000" stroke-miterlimit="10" d="M406.416,454.407c0,6.628-6.396,12-14.286,12h-8.927   c-7.89,0-14.285-5.372-14.285-12V406.41c0-6.627,6.396-12,14.285-12h8.927c7.89,0,14.286,5.373,14.286,12V454.407z"/>
	<path stroke="#000000" stroke-miterlimit="10" d="M358.528,454.407c0,6.628-6.396,12-14.286,12h-8.927   c-7.89,0-14.286-5.372-14.286-12V406.41c0-6.627,6.396-12,14.286-12h8.927c7.89,0,14.286,5.373,14.286,12V454.407z"/>
</g>
<circle stroke="#000000" stroke-miterlimit="10" cx="125.375" cy="173.208" r="54.891"/>
<circle stroke="#000000" stroke-miterlimit="10" cx="84.615" cy="128.101" r="21.739"/>
<g>
	<path stroke="#000000" stroke-miterlimit="10" d="M167.529,503.972c0,6.628-6.396,12-14.285,12h-8.927   c-7.89,0-14.286-5.372-14.286-12v-47.997c0-6.627,6.396-12,14.286-12h8.927c7.89,0,14.285,5.373,14.285,12V503.972z"/>
	<path stroke="#000000" stroke-miterlimit="10" d="M119.643,503.972c0,6.628-6.396,12-14.286,12H96.43   c-7.89,0-14.286-5.372-14.286-12v-47.997c0-6.627,6.396-12,14.286-12h8.927c7.89,0,14.286,5.373,14.286,12V503.972z"/>
</g>
<path stroke="#FFFFFF" stroke-miterlimit="10" d="M485.905,312.221c-11.873,7.798-18.254,19.053-14.256,25.141l4.525,6.889  c3.998,6.088,16.861,4.703,28.734-3.094l85.979-56.464c11.871-7.796,18.254-19.053,14.256-25.141l-4.523-6.889  c-3.998-6.088-16.865-4.704-28.736,3.093L485.905,312.221z" fill="#000000"/>
<path stroke="#FFFFFF" stroke-miterlimit="10" d="M259.712,330.668c-11.171,12.384-24.277,18.764-29.277,14.254l-5.657-5.103  c-5-4.513,0.001-18.203,11.171-30.587l80.892-89.668c11.168-12.38,24.276-18.763,29.276-14.253l5.657,5.104  c5,4.511-0.003,18.205-11.17,30.585L259.712,330.668z" fill="#000000"/>
<path stroke="#000000" stroke-miterlimit="10" d="M359.505,190.099c-62.957,5.826-71.352,196.616-94.669,240.31h189.338  C430.856,386.715,422.462,195.925,359.505,190.099z"/>
<g>
	<circle stroke="#000000" stroke-miterlimit="10" cx="586.602" cy="186.158" r="54.891"/>
	<circle stroke="#000000" stroke-miterlimit="10" cx="630.539" cy="209.898" r="21.739"/>
	<path stroke="#000000" stroke-miterlimit="10" d="M586.603,241.712c-62.957,5.826-71.352,196.616-94.669,240.31h189.338   C657.954,438.329,649.56,247.538,586.603,241.712z"/>
	<g>
		<path stroke="#000000" stroke-miterlimit="10" d="M629.296,516.52c0,6.628-6.396,12-14.286,12h-8.927    c-7.89,0-14.285-5.372-14.285-12v-47.997c0-6.627,6.396-12,14.285-12h8.927c7.89,0,14.286,5.373,14.286,12V516.52z"/>
		<path stroke="#000000" stroke-miterlimit="10" d="M581.408,516.52c0,6.628-6.396,12-14.286,12h-8.927    c-7.89,0-14.285-5.372-14.285-12v-47.997c0-6.627,6.396-12,14.285-12h8.927c7.89,0,14.286,5.373,14.286,12V516.52z"/>
	</g>
</g>
<path stroke="#FFFFFF" stroke-miterlimit="10" d="M233.821,310.656c11.801,7.906,18.077,19.22,14.023,25.272l-4.587,6.846  c-4.054,6.051-16.905,4.549-28.705-3.358l-85.456-57.254c-11.798-7.905-18.078-19.22-14.023-25.271l4.587-6.847  c4.054-6.051,16.908-4.548,28.706,3.357L233.821,310.656z" fill="#000000"/>
<path stroke="#000000" stroke-miterlimit="10" d="M124.837,229.165c-62.957,5.826-71.352,196.616-94.669,240.31h189.338  C196.188,425.781,187.794,234.99,124.837,229.165z"/>
</svg>