<svg xmlns="http://www.w3.org/2000/svg" xmlns:xlink="http://www.w3.org/1999/xlink" version="1.1" x="0px" y="0px" width="100px" height="100px" viewBox="0 0 100 100" enable-background="new 0 0 100 100" xml:space="preserve">
<g id="Captions">
</g>
<g id="Your_Icon">
	<path fill="#000000" d="M38.346,7.361c5.948,0,11.682,0,17.704,0c-0.424,0.686-0.701,1.152-0.995,1.607   c-1.271,1.973-1.435,4.027-0.356,6.116c1.112,2.155,2.675,3.638,5.16,4.387c14.231,4.29,23.356,13.652,26.608,28.191   c4.451,19.9-8.217,39.671-28.357,44.094c-20.055,4.403-39.957-8.062-44.395-28.746c-3.797-17.7,5.817-35.062,21.87-41.897   c0.652-0.278,1.333-0.488,1.979-0.721c1.373,1.874,2.595,3.726,4.008,5.419c1.409,1.689,3.01,3.218,4.599,4.894   c-0.455,0.143-0.869,0.319-1.302,0.403c-9.437,1.842-17.414,9.238-19.403,19.651c-2.522,13.202,6.146,26.416,20.045,28.851   c13.799,2.419,26.091-7.008,28.472-19.832c2.342-12.618-5.419-24.349-16.484-27.902c-3.17-1.019-6.152-2.364-8.953-4.226   c-5.195-3.453-8.174-8.28-9.457-14.265C38.668,11.429,38.192,9.465,38.346,7.361z"/>
	<path fill="#000000" d="M85.639,73.526c3.175,4.685,7.525,7.233,13.484,7.038c-1.695,4.46-4.299,8.132-7.251,11.737   c-5.388-1.372-9.899-4.129-13.729-8.076c0,0,2.002-2.354,3.961-4.9C83.798,77.121,85.639,73.526,85.639,73.526z"/>
	<path fill="#000000" d="M7.479,91.52C5.29,87.803,3.16,84.188,0.877,80.312c5.979-0.04,10.307-2.569,13.372-7.684   c1.639,4.083,4.077,7.455,7.002,10.582C17.495,87.44,13.454,90.855,7.479,91.52z"/>
</g>
</svg>