<svg xmlns="http://www.w3.org/2000/svg" xmlns:xlink="http://www.w3.org/1999/xlink" version="1.1" id="Layer_1" x="0px" y="0px" width="100px" height="100px" viewBox="0 0 100 100" enable-background="new 0 0 100 100" xml:space="preserve">
<g>
	<g>
		<path fill="none" d="M50.84,9.677c15.901,0,31.802,0.004,47.703-0.015c0.662-0.001,0.871,0.081,0.87,0.832    c-0.026,26.643-0.025,53.286-0.002,79.929c0.001,0.693-0.167,0.79-0.814,0.79c-31.867-0.02-63.734-0.02-95.601-0.001    c-0.636,0.001-0.821-0.08-0.82-0.784C2.2,63.785,2.2,37.143,2.175,10.5C2.174,9.763,2.362,9.66,3.039,9.661    C18.973,9.682,34.906,9.677,50.84,9.677z M88.222,88.218c0.718,0.062,1.435,0.114,2.146-0.053    c1.748-0.409,2.511-1.521,2.257-3.306c-0.031-0.226-0.092-0.448-0.117-0.675c-0.134-1.197-0.365-2.396-0.367-3.595    c-0.004-2.001-0.133-3.958-0.667-5.908c-0.489-1.788-1.298-3.348-2.699-4.536c-1.274-1.08-2.393-2.312-3.604-3.45    c-0.938-0.882-1.402-1.921-1.302-3.232c0.067-0.88-0.006-1.777-0.336-2.605c-0.556-1.394-0.566-2.838-0.247-4.237    c0.353-1.546,0.498-3.036,0.306-4.635c-0.202-1.683-0.602-3.224-1.741-4.469c-0.939-1.028-1.205-2.176-1.109-3.509    c0.053-0.751,0.294-1.325,0.962-1.692c0.753-0.416,1.193-1.07,1.512-1.855c0.676-1.662,1.394-3.308,2.096-4.959    c1.492-3.511,1.015-6.858-0.794-10.117c-1.089-1.964-2.815-3.318-4.431-4.784c-0.83-0.753-1.715-1.385-2.851-1.633    c-2.914-0.635-5.687-1.633-8.178-3.323c-0.402-0.274-0.842-0.503-1.285-0.706c-0.414-0.189-0.894-0.401-1.278-0.007    c-0.42,0.43-0.152,0.916,0.045,1.365c0.053,0.118,0.119,0.238,0.207,0.331c1.509,1.598,3.104,3.091,5.164,3.965    c2.858,1.211,5.61,2.547,7.996,4.63c1.384,1.208,1.914,2.725,2.202,4.324c0.307,1.708,0.106,3.454-0.932,4.985    c-0.235,0.348-0.372,0.762-0.564,1.14c-0.978,1.915-2.539,3.272-4.29,4.436c-0.434,0.289-0.948,0.434-1.474,0.503    c-1.035,0.137-2.072,0.224-3.119,0.258c-1.516,0.05-2.99-0.344-4.479-0.366c-2.871-0.041-5.733-0.349-8.609-0.246    c-1.271,0.045-2.54-0.021-3.812-0.152c-1.198-0.125-2.393-0.392-3.606-0.298c-0.881,0.068-1.617-0.218-2.209-0.837    c-0.698-0.729-1.533-1.064-2.532-1.09c-1.113-0.029-2.109-0.372-2.919-1.186c-0.324-0.326-0.754-0.494-1.179-0.678    c-1.58-0.683-3.123-1.382-4.529-2.455c-1.955-1.491-3.294-3.324-4.03-5.622c-0.29-0.905-0.802-1.611-1.453-2.279    c-1.707-1.751-3.572-3.353-5.039-5.333c-0.627-0.846-1.552-1.097-2.531-0.992c-2.937,0.315-5.799,0.89-8.355,2.517    c-0.714,0.455-1.084,0.958-1.011,1.825c0.087,1.044-0.602,1.971-1.617,2.07c-1.812,0.177-3.21,1.234-4.699,2.09    c-0.722,0.415-0.873,1.054-0.46,1.769c0.382,0.662,0.599,1.372,0.835,2.083c0.186,0.56,0.39,1.109,0.854,1.517    c0.552,0.483,0.91,1.101,1.217,1.758c0.431,0.922,1.122,1.662,2.043,2.025c1.479,0.584,2.972,1.165,4.632,1.104    c1.284-0.046,1.613,0.256,1.87,1.515c0.215,1.054,0.712,1.938,1.347,2.79c0.605,0.812,1.099,1.714,1.06,2.774    c-0.059,1.563-0.587,3.055-0.743,4.609c-0.05,0.495-0.083,0.948,0.032,1.438c0.677,2.895,2.646,5.028,4.298,7.346    c0.917,1.286,2.186,2.233,3.336,3.289c0.574,0.526,0.851,1.118,0.818,1.896c-0.033,0.782-0.038,1.572,0.164,2.338    c0.531,2.016,0.416,4.084,0.502,6.134c0.078,1.854,0.039,3.713,0.398,5.55c0.231,1.178-0.121,2.248-0.682,3.285    c-0.443,0.818-1.2,0.896-1.979,1.045c-0.783,0.148-1.771,1.135-1.833,1.733c-0.066,0.631,1.467,2.852,2.103,3.016    c1.002,0.258,1.997,0.283,2.98-0.117c0.543-0.222,1.09-0.478,1.66-0.586c1.797-0.342,2.386-1.896,3.15-3.196    c0.334-0.569,0.466-1.251,1.02-1.717c0.385-0.324,0.41-0.808,0.333-1.272c-0.415-2.517-0.03-5.003,0.317-7.483    c0.222-1.582,0.691-3.136,0.827-4.721c0.124-1.447,0.971-1.96,2.393-2.229c0.348-0.066,0.716-0.025,1.076-0.025    c3.494-0.004,6.987-0.007,10.481-0.007c0.524,0,1.057,0.015,1.547-0.187c1.995-0.819,4.078-1.318,6.178-1.78    c0.805-0.177,1.487-0.169,2.228,0.306c1.225,0.785,3.081,0.391,3.887-0.709c0.75-1.023,0.749-1.02,1.963-0.731    c0.646,0.153,1.264,0.405,1.745,0.848c0.75,0.69,1.517,1.319,2.477,1.709c0.385,0.155,0.684,0.497,0.922,0.858    c0.82,1.245,1.873,2.277,3.102,3.091c2.053,1.361,3.706,3.184,5.618,4.704c0.301,0.239,0.539,0.565,0.778,0.873    c0.385,0.492,0.825,0.921,1.309,1.314c0.856,0.697,1.796,1.337,1.897,2.599c0.015,0.178,0.156,0.359,0.275,0.511    c0.706,0.907,0.383,1.874,0.138,2.812c-0.199,0.765-0.97,0.661-1.533,0.843c-0.472,0.153-0.907,0.36-1.315,0.639    c-0.461,0.314-0.701,0.759-0.786,1.301c-0.079,0.508-0.021,0.923,0.61,0.999c0.573,0.07,0.845,0.41,0.906,0.977    c0.108,1.011,0.973,1.936,2.037,1.756C87.495,88.168,87.862,88.218,88.222,88.218z"/>
		<path fill-rule="evenodd" clip-rule="evenodd" d="M88.222,88.218c-0.359,0-0.727-0.05-1.075,0.01    c-1.064,0.18-1.929-0.745-2.037-1.756c-0.062-0.566-0.333-0.906-0.906-0.977c-0.631-0.076-0.689-0.491-0.61-0.999    c0.085-0.542,0.325-0.986,0.786-1.301c0.408-0.278,0.844-0.485,1.315-0.639c0.563-0.182,1.334-0.078,1.533-0.843    c0.245-0.938,0.568-1.905-0.138-2.812c-0.119-0.151-0.261-0.333-0.275-0.511c-0.102-1.262-1.041-1.901-1.897-2.599    c-0.483-0.394-0.924-0.822-1.309-1.314c-0.239-0.308-0.478-0.634-0.778-0.873c-1.912-1.521-3.565-3.343-5.618-4.704    c-1.229-0.813-2.281-1.846-3.102-3.091c-0.238-0.361-0.537-0.703-0.922-0.858c-0.96-0.39-1.727-1.019-2.477-1.709    c-0.481-0.442-1.099-0.694-1.745-0.848c-1.214-0.288-1.213-0.292-1.963,0.731c-0.806,1.1-2.662,1.494-3.887,0.709    c-0.74-0.475-1.423-0.482-2.228-0.306c-2.1,0.462-4.183,0.961-6.178,1.78c-0.49,0.201-1.022,0.187-1.547,0.187    c-3.494,0-6.988,0.003-10.481,0.007c-0.359,0-0.728-0.041-1.076,0.025c-1.421,0.269-2.269,0.781-2.393,2.229    c-0.135,1.585-0.604,3.139-0.827,4.721c-0.348,2.48-0.732,4.967-0.317,7.483c0.077,0.465,0.052,0.948-0.333,1.272    c-0.554,0.466-0.685,1.147-1.02,1.717c-0.764,1.3-1.353,2.854-3.15,3.196c-0.57,0.108-1.117,0.364-1.66,0.586    c-0.983,0.4-1.978,0.375-2.98,0.117c-0.636-0.164-2.168-2.385-2.103-3.016c0.062-0.599,1.05-1.585,1.833-1.733    c0.778-0.148,1.536-0.227,1.979-1.045c0.561-1.037,0.913-2.107,0.682-3.285c-0.359-1.837-0.32-3.695-0.398-5.55    c-0.087-2.05,0.029-4.118-0.502-6.134c-0.202-0.766-0.197-1.556-0.164-2.338c0.033-0.778-0.244-1.37-0.818-1.896    c-1.151-1.056-2.42-2.003-3.336-3.289c-1.652-2.317-3.621-4.451-4.298-7.346c-0.115-0.49-0.082-0.943-0.032-1.438    c0.155-1.555,0.684-3.046,0.743-4.609c0.04-1.06-0.455-1.962-1.06-2.774c-0.635-0.852-1.131-1.735-1.347-2.79    c-0.257-1.259-0.586-1.561-1.87-1.515c-1.66,0.06-3.152-0.521-4.632-1.104c-0.921-0.363-1.612-1.104-2.043-2.025    c-0.307-0.658-0.665-1.275-1.217-1.758c-0.464-0.407-0.668-0.957-0.854-1.517c-0.236-0.711-0.453-1.421-0.835-2.083    c-0.412-0.714-0.262-1.354,0.46-1.769c1.489-0.855,2.887-1.913,4.699-2.09c1.015-0.099,1.704-1.026,1.617-2.07    c-0.073-0.867,0.297-1.37,1.011-1.825c2.556-1.627,5.418-2.201,8.355-2.517c0.979-0.105,1.904,0.146,2.531,0.992    c1.467,1.98,3.332,3.583,5.039,5.333c0.651,0.667,1.164,1.374,1.453,2.279c0.736,2.298,2.075,4.131,4.03,5.622    c1.406,1.072,2.95,1.771,4.529,2.455c0.425,0.184,0.855,0.352,1.179,0.678c0.81,0.814,1.806,1.157,2.919,1.186    c0.999,0.026,1.834,0.361,2.532,1.09c0.592,0.619,1.328,0.905,2.209,0.837c1.214-0.093,2.408,0.174,3.606,0.298    c1.272,0.132,2.541,0.198,3.812,0.152c2.876-0.103,5.738,0.205,8.609,0.246c1.489,0.021,2.964,0.416,4.479,0.366    c1.047-0.034,2.084-0.121,3.119-0.258c0.525-0.069,1.04-0.215,1.474-0.503c1.751-1.163,3.312-2.521,4.29-4.436    c0.192-0.378,0.329-0.792,0.564-1.14c1.038-1.531,1.238-3.277,0.932-4.985c-0.288-1.599-0.818-3.116-2.202-4.324    c-2.386-2.083-5.138-3.419-7.996-4.63c-2.061-0.874-3.655-2.367-5.164-3.965c-0.088-0.093-0.154-0.213-0.207-0.331    c-0.197-0.449-0.465-0.936-0.045-1.365c0.385-0.394,0.864-0.183,1.278,0.007c0.443,0.203,0.883,0.432,1.285,0.706    c2.491,1.69,5.264,2.688,8.178,3.323c1.136,0.248,2.021,0.879,2.851,1.633c1.615,1.466,3.342,2.82,4.431,4.784    c1.809,3.259,2.286,6.606,0.794,10.117c-0.702,1.651-1.42,3.297-2.096,4.959c-0.318,0.785-0.759,1.439-1.512,1.855    c-0.668,0.368-0.909,0.941-0.962,1.692c-0.096,1.333,0.17,2.481,1.109,3.509c1.14,1.245,1.539,2.787,1.741,4.469    c0.192,1.599,0.047,3.089-0.306,4.635c-0.319,1.399-0.309,2.844,0.247,4.237c0.33,0.828,0.403,1.726,0.336,2.605    c-0.101,1.312,0.364,2.351,1.302,3.232c1.212,1.139,2.33,2.37,3.604,3.45c1.401,1.188,2.21,2.748,2.699,4.536    c0.534,1.95,0.663,3.907,0.667,5.908c0.002,1.199,0.233,2.397,0.367,3.595c0.025,0.227,0.086,0.449,0.117,0.675    c0.254,1.784-0.509,2.896-2.257,3.306C89.656,88.332,88.939,88.28,88.222,88.218z"/>
	</g>
</g>
</svg>