<svg xmlns="http://www.w3.org/2000/svg" xmlns:xlink="http://www.w3.org/1999/xlink" version="1.1" id="Layer_1" x="0px" y="0px" width="100px" height="100px" viewBox="0 0 100 100" enable-background="new 0 0 100 100" xml:space="preserve">
<g>
	<g>
		<path fill="none" d="M51.001,97.508c-15.741,0-31.482-0.015-47.224,0.031c-1.09,0.004-1.302-0.211-1.3-1.301    c0.038-30.467,0.038-60.934,0-91.4c-0.001-1.09,0.21-1.302,1.3-1.3c31.482,0.038,62.965,0.038,94.447,0    c1.09-0.001,1.302,0.21,1.3,1.3c-0.038,30.467-0.038,60.934,0,91.4c0.002,1.09-0.21,1.305-1.3,1.301    C82.483,97.493,66.742,97.508,51.001,97.508z M45.219,74.592c0-2.283,0.048-4.568-0.013-6.851    c-0.063-2.343,0.976-3.835,3.175-4.591c1.596-0.547,3.181-1.128,4.757-1.729c0.971-0.37,1.974-0.39,2.986-0.465    c1.22-0.091,1.889,0.407,2.189,1.578c0.299,1.162,0.7,2.334,2.053,2.657c1.785,0.428,2.802,1.793,3.853,3.083    c0.647,0.796,1.396,1.44,2.145,2.124c1.393,1.271,3.167,1.941,4.585,3.155c1.527,1.307,2.158,2.915,1.815,4.896    c-0.467,2.693-1.09,5.239-3.98,6.523c-0.983,0.437-0.796,1.332,0.238,1.896c1.259,0.686,2.632,0.596,3.973,0.482    c1.922-0.162,3.402-1.436,3.579-3.349c0.2-2.182,0.781-4.32,0.649-6.545c-0.08-1.342-0.146-2.757,0.188-4.033    c0.465-1.778-0.112-2.866-1.468-3.916c-1.058-0.818-2.134-1.723-2.752-2.945c-0.429-0.847-1.366-1.602-0.826-2.759    c0.869,0.38,1.472,1.047,2.092,1.752c1.496,1.7,2.928,3.457,4.715,4.897c2.345,1.89,5.16,2.854,7.775,4.212    c3.132,1.626,5.3,3.866,4.966,7.726c-0.05,0.588-0.044,1.188,0.006,1.775c0.087,0.991-0.262,1.826-0.837,2.588    c-0.305,0.404-0.711,0.744-0.959,1.178c-0.662,1.157-0.159,2.277,1.15,2.417c1.171,0.124,2.373,0.152,3.544,0.039    c1.686-0.162,2.837-1.594,2.535-3.139c-0.764-3.896-1.318-7.805-1.465-11.783c-0.085-2.289-0.899-4.281-3.223-5.336    c-1.092-0.495-1.853-1.401-2.533-2.405c-1.86-2.747-3.121-5.776-4.296-8.849c-1.24-3.239-1.328-6.776-2.547-10.025    c-1.313-3.502-2.887-6.811-5.898-9.264c-2.122-1.729-4.443-3.053-6.939-4.121c-3.04-1.301-6.167-2.324-9.482-2.495    c-5.138-0.265-10.203-0.736-15.239-2.018c-4.151-1.057-7.317-3.358-10.048-6.347c-1.652-1.809-3.296-3.611-5.123-5.232    c-1.668-1.481-3.103-3.052-3.541-5.343c-0.494-2.589-1.801-4.904-2.597-7.395c-0.4-1.252-1.138-1.383-1.976-0.43    c-0.907,1.031-1.341,2.337-1.931,3.549c-0.325,0.667-0.588,0.912-1.209,0.193c-1.229-1.42-2.049-3.087-3.014-4.667    c-0.182-0.297-0.401-0.61-0.773-0.413c-0.176,0.093-0.313,0.424-0.318,0.65c-0.032,1.352-0.092,2.709-0.002,4.055    c0.096,1.439-0.319,2.475-1.759,2.952c-0.079,0.026-0.152,0.07-0.228,0.108c-3.449,1.732-6.656,3.657-6.952,8.116    c-0.03,0.456-0.475,0.877-0.692,1.331c-0.912,1.906-1.66,3.854-1.583,6.024c0.053,1.497,0.723,2.497,2.093,3.175    c2.399,1.189,4.92,2.143,7.117,3.744c0.952,0.693,2.092,1.019,3.331,1.07c1.708,0.07,2.269,0.516,2.666,2.122    c0.506,2.049,0.698,4.105,0.31,6.251c-0.371,2.051-0.685,4.208-0.439,6.249c0.35,2.905,1.102,5.781,2.567,8.404    c0.448,0.802,0.815,1.692,1.005,2.587c1.106,5.214,3.2,10.09,4.965,15.083c0.802,2.269,1.567,4.651,1.304,7.151    c-0.228,2.161-0.362,4.39-2.769,5.488c-0.355,0.162-0.633,0.562-0.873,0.902c-1.107,1.584-0.833,2.246,1.042,2.724    c0.819,0.208,1.619,0.435,2.48,0.442c3.039,0.025,4.154-1.097,4.518-4.168c0.187-1.577-0.159-3.222,0.541-4.737    c0.448-0.97,0.338-1.934,0.105-2.949c-0.469-2.045-0.879-4.09-1.138-6.192c-0.296-2.406-0.065-4.895-0.979-7.255    c-0.467-1.208-0.81-2.548-0.626-3.914c1.536-0.452,2.648,0.702,3.977,1.027c1.496,0.367,2.077,1.355,2.101,2.735    c0.06,3.469,1.26,6.743,1.667,10.147c0.259,2.172,0.619,4.369,0.524,6.537c-0.117,2.688-0.566,5.378-2.399,7.592    c-0.367,0.443-0.59,1.027-0.797,1.578c-0.553,1.474-0.126,2.31,1.441,2.519c1.163,0.156,2.363,0.085,3.543,0.042    c0.831-0.03,1.39-0.569,1.778-1.266c0.419-0.751,0.621-1.55,0.587-2.429c-0.054-1.462,0.151-3.061,1.065-4.073    c1.224-1.358,1.254-2.829,0.944-4.255C44.928,81.161,45.357,77.869,45.219,74.592z"/>
		<path fill-rule="evenodd" clip-rule="evenodd" d="M45.219,74.592c0.138,3.277-0.291,6.569,0.42,9.846    c0.31,1.426,0.279,2.896-0.944,4.255c-0.914,1.013-1.119,2.611-1.065,4.073c0.033,0.879-0.168,1.678-0.587,2.429    c-0.388,0.696-0.947,1.235-1.778,1.266c-1.181,0.043-2.381,0.114-3.543-0.042c-1.568-0.209-1.995-1.045-1.441-2.519    c0.207-0.551,0.43-1.135,0.797-1.578c1.833-2.214,2.282-4.903,2.399-7.592c0.094-2.168-0.266-4.365-0.524-6.537    c-0.406-3.404-1.606-6.679-1.667-10.147c-0.023-1.38-0.605-2.368-2.101-2.735c-1.328-0.325-2.441-1.479-3.977-1.027    c-0.184,1.366,0.159,2.706,0.626,3.914c0.914,2.36,0.683,4.849,0.979,7.255c0.258,2.103,0.668,4.147,1.138,6.192    c0.233,1.016,0.343,1.979-0.105,2.949c-0.7,1.516-0.354,3.16-0.541,4.737c-0.364,3.071-1.479,4.193-4.518,4.168    c-0.862-0.008-1.662-0.234-2.48-0.442c-1.876-0.478-2.15-1.14-1.042-2.724c0.239-0.341,0.517-0.74,0.873-0.902    c2.407-1.099,2.541-3.327,2.769-5.488c0.263-2.5-0.502-4.883-1.304-7.151c-1.765-4.993-3.859-9.869-4.965-15.083    c-0.19-0.895-0.557-1.785-1.005-2.587c-1.466-2.623-2.218-5.499-2.567-8.404c-0.245-2.041,0.069-4.198,0.439-6.249    c0.388-2.146,0.196-4.202-0.31-6.251c-0.397-1.606-0.958-2.052-2.666-2.122c-1.239-0.051-2.379-0.376-3.331-1.07    c-2.197-1.601-4.717-2.555-7.117-3.744c-1.37-0.679-2.041-1.678-2.093-3.175c-0.077-2.171,0.671-4.119,1.583-6.024    c0.217-0.454,0.662-0.875,0.692-1.331c0.295-4.459,3.503-6.383,6.952-8.116c0.075-0.038,0.148-0.082,0.228-0.108    c1.44-0.477,1.854-1.513,1.759-2.952c-0.089-1.346-0.029-2.704,0.002-4.055c0.005-0.227,0.142-0.557,0.318-0.65    c0.372-0.197,0.591,0.116,0.773,0.413c0.965,1.58,1.786,3.247,3.014,4.667c0.621,0.719,0.885,0.474,1.209-0.193    c0.59-1.212,1.024-2.518,1.931-3.549c0.837-0.953,1.576-0.822,1.976,0.43c0.796,2.491,2.103,4.806,2.597,7.395    c0.438,2.291,1.872,3.862,3.541,5.343c1.827,1.621,3.471,3.423,5.123,5.232c2.73,2.989,5.896,5.29,10.048,6.347    c5.036,1.282,10.101,1.753,15.239,2.018c3.315,0.17,6.442,1.194,9.482,2.495c2.496,1.068,4.817,2.393,6.939,4.121    c3.012,2.454,4.585,5.762,5.898,9.264c1.219,3.249,1.307,6.786,2.547,10.025c1.175,3.072,2.436,6.102,4.296,8.849    c0.681,1.004,1.441,1.91,2.533,2.405c2.323,1.055,3.138,3.047,3.223,5.336c0.146,3.979,0.701,7.887,1.465,11.783    c0.302,1.545-0.85,2.977-2.535,3.139c-1.171,0.113-2.373,0.085-3.544-0.039c-1.31-0.14-1.812-1.26-1.15-2.417    c0.248-0.434,0.654-0.773,0.959-1.178c0.575-0.762,0.924-1.597,0.837-2.588c-0.05-0.588-0.056-1.188-0.006-1.775    c0.334-3.859-1.834-6.1-4.966-7.726c-2.615-1.357-5.431-2.322-7.775-4.212c-1.787-1.44-3.219-3.197-4.715-4.897    c-0.62-0.705-1.223-1.372-2.092-1.752c-0.54,1.157,0.397,1.912,0.826,2.759c0.618,1.223,1.694,2.127,2.752,2.945    c1.355,1.05,1.933,2.138,1.468,3.916c-0.334,1.276-0.269,2.691-0.188,4.033c0.132,2.225-0.449,4.363-0.649,6.545    c-0.177,1.913-1.657,3.187-3.579,3.349c-1.341,0.113-2.714,0.203-3.973-0.482c-1.034-0.564-1.222-1.46-0.238-1.896    c2.891-1.284,3.514-3.83,3.98-6.523c0.343-1.981-0.288-3.59-1.815-4.896c-1.418-1.214-3.192-1.885-4.585-3.155    c-0.748-0.684-1.497-1.328-2.145-2.124c-1.051-1.29-2.067-2.655-3.853-3.083c-1.353-0.323-1.754-1.495-2.053-2.657    c-0.301-1.171-0.97-1.669-2.189-1.578c-1.013,0.075-2.016,0.095-2.986,0.465c-1.576,0.601-3.162,1.182-4.757,1.729    c-2.2,0.756-3.238,2.248-3.175,4.591C45.268,70.023,45.219,72.309,45.219,74.592z"/>
	</g>
</g>
</svg>