<svg xmlns="http://www.w3.org/2000/svg" xmlns:xlink="http://www.w3.org/1999/xlink" version="1.1" id="Layer_1" x="0px" y="0px" width="100px" height="100px" viewBox="0 0 100 100" enable-background="new 0 0 100 100" xml:space="preserve">
<path fill-rule="evenodd" clip-rule="evenodd" d="M93.093,81.908c0.013-0.231-0.007-0.469,0-0.703  c0.05-1.596,0.113-3.191-1.914-3.727c-0.201-0.054-0.368-0.295-0.512-0.476c-1.87-2.325-3.988-4.373-5.109-7.357  c-0.843-2.248-1.586-4.55-2.142-6.839c-0.381-1.556-1.037-3.051-1.234-4.707c-0.234-1.987-0.328-4.012-0.812-5.982  c-0.415-1.696-0.903-3.269-2.249-4.514c-1.663-1.535-3.212-3.185-4.728-4.704c0.68-2.951,0.265-5.922,1.73-8.535  c0.257-0.455-0.007-1.084-0.543-1.419c-0.555-0.354-1.061-0.197-1.485,0.225c-0.659,0.659-1.408,1.234-1.807,2.131  c-0.341,0.79-0.749,1.55-1.161,2.306c-1.174,2.138-2.312,2.623-4.366,1.753c-2.161-0.916-4.496-1.16-6.802-1.488  c-2.379-0.338-4.758-0.676-7.116-1.118c-4.845-0.903-8.575-3.911-12.399-6.722c-0.121-0.087-0.221-0.224-0.295-0.361  c-1.234-2.255-3.081-4.111-4.195-6.453c-1.837-3.858-4.125-7.354-8.15-9.583c0.241-1.385-0.381-2.572-1.084-3.693  c-1.489-2.379-2.854-4.812-3.754-7.484c-0.101-0.295-0.314-0.536-0.85-0.432c-0.556,0.923-1.011,1.994-0.887,3.182  c0.141,1.368-0.535,2.59-0.559,3.921c-0.007,0.506-0.389,0.914-0.884,0.961c-1.228,0.113-2.606,0.451-3.433-0.83  c-1.191-1.844-3.186-3.078-3.841-5.57c-0.87,3.154,1.295,5.34,1.636,7.933c-0.505,0.732-0.856,1.599-1.495,2.111  c-1.315,1.047-1.619,2.633-2.365,3.975c-0.291,0.521,0.16,1.361-0.569,1.85c-1.11,0.746-1.284,1.864-1.204,3.102  c0.043,0.696-0.03,1.382-0.197,2.085c-0.71,2.957-0.134,3.663,1.917,4.861c0.458,0.271,0.793,0.789,1.619,0.716  c1.234-1.021,2.867-0.636,4.299-0.244c1.56,0.429,2.878,0.358,4.103-0.556c1.251,0.98,1.539,2.205,1.438,3.604  c-0.101,1.469,0.141,2.951-0.388,4.41c-0.255,0.699-0.268,8.568-0.522,10.803c-0.448,3.988,0.565,7.739,2.365,11.286  c1.259,2.476,2.021,5.042,1.837,7.865c-0.094,1.402-0.214,2.871,0.094,4.209c0.813,3.517,0.004,23.454,0.014,22.297  c-2.255,0.917-3.566,2.473-3.54,5.37c2.423,0.1,4.865,0.11,7.214-0.007c0.538-0.485,0.92-0.994,0.84-1.516  c-0.345-2.205,0.913-4.253,0.565-6.447c-0.044-0.281,0.07-0.646,0.234-0.891c0.796-1.194,0.639-2.532,0.688-3.86  c0.098-2.641-0.401-5.323,0.472-7.91c0.462-1.364,0.56-2.76,0.445-4.155c-0.221-2.75,0.425-5.43,0.522-8.15  c0.036-0.963,0.676-1.435,1.603-1.231c0.812,0.178,1.689,0.321,2.569,1.161c-0.067,5.865,0.197,11.928-0.188,18.071  c0.017,0.01,0.03,0.02,0.047,0.026c-0.003,0-0.017,0-0.017,0s1.15,7.348-3.503,12.991c-0.117,0.084-0.248,0.154-0.392,0.185  c-0.389,0.378-0.716,0.793-0.609,1.513c1.801,0.438,3.66,0.144,5.497,0.203c0.693,0.023,1.412,0.128,2.081-0.153  c0.335-0.141,1.857-6.946,1.536-9.188c0.418-1.797,0.241-3.684,0.258-5.541c0.014-1.331-0.138-2.687,0.06-3.988  c0.412-2.687,0.9-5.353,0.904-8.086c0-0.379,0.123-0.764,0.217-1.138c0.358-1.429,0.663-4.326,0.773-4.514  c0.11-0.19,1.476-0.82,2.291-1.054c3.296-0.94,6.351-2.419,9.346-4.042c1.101-0.596,2.255-1.084,3.52-1.185  c0.883-0.066,1.549,0.248,1.649,1.241c0.224,2.168,1.061,4.143,1.753,6.184c1.018,2.984,2.442,5.627,4.474,8.057  c1.107,1.321,2.292,2.546,3.47,3.79c0.863,0.914,1.686,1.871,2.061,3.075c0.856,2.75,1.513,5.514,1.473,8.461  c-0.03,2.209-1.229,2.383-2.467,3.812c-1.254,0.997-1.188,0.967-1.903,2.188c2.238,1.629,4.517,1.264,6.738,1.107  c0.539-0.041,1.111-0.56,1.145-1.067c0.094-1.476,0.87-2.885,0.592-4.36c-0.589-3.145-0.602-6.337-0.806-9.502  c-0.188-2.827-0.689-5.353-2.901-7.351c-0.903-0.819-1.79-1.803-1.83-3.148c-0.05-1.72-0.01-3.446,0.01-5.165  c0.004-0.402,0.145-0.77,0.646-0.984c1.462,2.266,3.158,4.359,5.092,6.264c0.896,0.876,2.015,1.448,2.895,2.362  c2.8,2.914,5.838,5.607,7.755,9.181c0.562-0.094,0.412,7.802,0.459,8.749c0.007-0.01,0.017-0.023,0.026-0.033  c-0.014,0.167-0.023,0.16-0.026,0.033c-0.938,0.957-1.572,2.205-3.082,2.573c-0.766,0.188-0.846,1.188-0.247,1.716  c0.599,0.525,1.308,0.847,2.131,0.843c0.863-0.003,1.724,0.007,2.583,0.004c2.721-0.01,3.195-0.472,3.339-3.262  c0.021-0.469-0.013-0.938,0.007-1.409C93.748,89.834,92.751,85.899,93.093,81.908z"/>
</svg>