<svg xmlns="http://www.w3.org/2000/svg" xmlns:xlink="http://www.w3.org/1999/xlink" version="1.1" id="Layer_1" x="0px" y="0px" width="100px" height="100px" viewBox="0 0 100 100" enable-background="new 0 0 100 100" xml:space="preserve">
<g>
	<g>
		<path fill="none" d="M3.499,99.498c0-32.667,0-65.333,0-98c31.672,0,63.344,0,95.016,0c0,32.667,0,65.333,0,98    C66.843,99.498,35.171,99.498,3.499,99.498z M86.231,69.344c3.127,2.989,4.304,6.273,4.271,10.192    c-0.02,2.33-1.265,4.054-2.341,5.904c-0.5,0.86-1.177,1.836-0.164,2.679c1.526,1.27,3.434,1.106,5.232,0.897    c1.552-0.181,2.013-1.484,2.39-2.832c0.523-1.871,0.676-3.785,0.448-5.668c-0.59-4.878,0.912-10.141-2.591-14.513    c-0.281-0.351-0.289-0.939-0.373-1.427c-0.674-3.915-1.128-7.882-2.054-11.736c-1.094-4.556-1.446-9.353-4.029-13.491    c-0.542-0.869-1.469-1.603-1.456-2.89c1.911-1.469,3.136-3.589,4.488-5.535c1.519-2.185,4.105-2.504,6.041-3.873    c-0.544-1.246-1.456-1.246-2.229-1.242c-2.201,0.011-4.353,0.411-5.857,2.186c-3.076,3.626-6.753,5.116-11.479,3.794    c-1.744-0.488-3.593-0.65-5.426-0.459c-4.032,0.42-8.064,0.849-12.092,1.313c-2.875,0.332-5.791,1.248-8.603,0.983    c-6.009-0.565-11.1-3.083-14.264-8.637c-0.697-1.225-0.74-2.054,0.362-2.993c0.888-0.758,1.226-1.808,1.582-2.969    c0.987-3.216,0.651-6.38,0.25-9.585c-0.118-0.944,0.39-2.216-0.717-2.696c-1.231-0.533-2.166,0.47-3.027,1.237    c-0.492,0.438-0.902,0.968-1.344,1.46c-0.942,1.048-1.819,2.163-2.833,3.135c-2.391,2.291-6.194,1.335-7.162-1.812    c-0.728-2.366-1.559-4.717-1.683-7.232c-0.023-0.484-0.138-1.016-0.845-1.091c-0.884,0.427-1.115,1.33-1.458,2.16    c-0.741,1.796-1.004,3.663-0.878,5.597c0.147,2.262-0.562,4.037-2.758,5.064c-0.893,0.418-1.837,0.982-2.162,1.967    c-0.699,2.122-2.124,3.75-3.547,5.343c-1.82,2.035-2.76,4.485-3.762,6.935c-0.471,1.15-0.38,2.12,0.732,2.808    c1.301,0.807,1.622,1.974,1.456,3.413c-0.096,0.833-0.079,1.946,0.72,2.237c2.264,0.825,4.495,2.288,7.081,1.041    c0.747-0.36,1.518-0.675,2.239-1.079c1.341-0.752,1.983-0.199,2.301,1.123c0.737,3.066,1.373,6.142,1.154,9.327    c-0.219,3.184,0.131,6.258,1.424,9.237c0.722,1.663,1.082,3.466,1.246,5.303c0.245,2.729,0.86,5.393,1.705,8    c1.118,3.446,1.329,7.001,1.03,10.565c-0.18,2.145-0.654,4.273-2.655,5.645c-0.688,0.472-1.131,1.196-1.527,1.936    c-0.653,1.221-0.316,2.04,0.94,2.563c1.427,0.595,2.978,0.257,4.399,0.565c1.949,0.424,2.613-0.516,3.201-2.042    c1.234-3.203,1.681-6.562,1.831-9.933c0.176-3.967,0.026-7.948,0.073-11.922c0.011-0.945-0.251-2.017,0.731-2.796    c1.225,0.452,2.427,1.03,3.694,1.334c2.144,0.514,3.126,1.928,3.622,3.937c0.772,3.13,1.638,6.226,1.87,9.473    c0.324,4.532,1.221,9.121-2.146,13.032c-0.106,0.123-0.178,0.281-0.242,0.434c-0.836,2.004-0.252,3.355,1.797,4.106    c1.676,0.615,3.443,0.545,5.141,0.323c2.086-0.272,2.649-1.466,2.428-3.63c-0.252-2.459-0.531-4.962,0.52-7.345    c0.355-0.807,0.198-1.595,0.068-2.429c-0.797-5.16-1.077-10.364-1.135-15.579c-0.01-0.849-0.341-2.011,0.829-2.354    c1.213-0.355,2.108-1.228,3.285-1.665c1.549-0.575,3.537-0.473,4.617-1.206c2.614-1.774,5.279-2.876,8.365-3.129    c0.363-0.03,0.557-0.216,0.79-0.478c1.369-1.534,1.409-1.547,2.767,0.081c1.803,2.162,3.349,4.597,5.567,6.332    c2.796,2.187,4.487,5.049,5.857,8.19c0.798,1.827,0.638,3.568-0.741,5.057c-0.591,0.637-0.83,1.415-1.229,2.132    c-0.63,1.128-0.213,2.01,0.723,2.535c1.683,0.945,3.538,0.775,5.27,0.17c1.59-0.556,1.733-2.014,1.732-3.505    C87.688,77.286,88.136,73.212,86.231,69.344z"/>
		<path fill-rule="evenodd" clip-rule="evenodd" d="M86.231,69.344c1.904,3.868,1.456,7.942,1.459,11.974    c0.001,1.491-0.143,2.949-1.732,3.505c-1.731,0.605-3.587,0.775-5.27-0.17c-0.936-0.525-1.353-1.407-0.723-2.535    c0.399-0.717,0.639-1.495,1.229-2.132c1.379-1.488,1.539-3.229,0.741-5.057c-1.37-3.142-3.062-6.004-5.857-8.19    c-2.219-1.735-3.765-4.17-5.567-6.332c-1.357-1.628-1.397-1.615-2.767-0.081c-0.233,0.262-0.427,0.447-0.79,0.478    c-3.086,0.253-5.751,1.354-8.365,3.129c-1.08,0.733-3.068,0.631-4.617,1.206c-1.177,0.438-2.071,1.31-3.285,1.665    c-1.17,0.344-0.838,1.506-0.829,2.354c0.058,5.215,0.338,10.419,1.135,15.579c0.13,0.834,0.287,1.622-0.068,2.429    c-1.05,2.383-0.771,4.886-0.52,7.345c0.221,2.164-0.342,3.357-2.428,3.63c-1.697,0.222-3.464,0.292-5.141-0.323    c-2.049-0.751-2.634-2.103-1.797-4.106c0.063-0.152,0.136-0.311,0.242-0.434c3.367-3.911,2.47-8.5,2.146-13.032    c-0.232-3.247-1.098-6.343-1.87-9.473c-0.496-2.009-1.478-3.423-3.622-3.937c-1.267-0.304-2.469-0.882-3.694-1.334    c-0.982,0.779-0.72,1.851-0.731,2.796c-0.046,3.974,0.103,7.955-0.073,11.922c-0.15,3.371-0.597,6.729-1.831,9.933    c-0.588,1.526-1.252,2.466-3.201,2.042c-1.421-0.309-2.972,0.029-4.399-0.565c-1.256-0.523-1.593-1.343-0.94-2.563    c0.396-0.739,0.839-1.464,1.527-1.936c2.001-1.371,2.475-3.5,2.655-5.645c0.298-3.564,0.087-7.119-1.03-10.565    c-0.845-2.607-1.46-5.271-1.705-8c-0.165-1.837-0.524-3.64-1.246-5.303c-1.292-2.979-1.643-6.053-1.424-9.237    c0.219-3.185-0.417-6.261-1.154-9.327c-0.318-1.322-0.96-1.875-2.301-1.123c-0.721,0.404-1.493,0.719-2.239,1.079    c-2.586,1.247-4.817-0.216-7.081-1.041c-0.799-0.291-0.816-1.404-0.72-2.237c0.166-1.439-0.155-2.606-1.456-3.413    c-1.112-0.688-1.203-1.658-0.732-2.808c1.001-2.45,1.942-4.9,3.762-6.935c1.423-1.593,2.848-3.221,3.547-5.343    c0.325-0.985,1.269-1.549,2.162-1.967c2.196-1.027,2.905-2.803,2.758-5.064c-0.126-1.934,0.137-3.801,0.878-5.597    c0.342-0.83,0.574-1.733,1.458-2.16c0.707,0.075,0.822,0.606,0.845,1.091c0.124,2.515,0.955,4.866,1.683,7.232    c0.968,3.147,4.771,4.103,7.162,1.812c1.015-0.972,1.891-2.087,2.833-3.135c0.442-0.492,0.853-1.022,1.344-1.46    c0.861-0.767,1.796-1.77,3.027-1.237c1.107,0.479,0.599,1.751,0.717,2.696c0.4,3.205,0.736,6.369-0.25,9.585    c-0.356,1.162-0.694,2.211-1.582,2.969c-1.102,0.939-1.059,1.768-0.362,2.993c3.164,5.555,8.255,8.072,14.264,8.637    c2.812,0.264,5.728-0.652,8.603-0.983c4.027-0.464,8.06-0.893,12.092-1.313c1.833-0.191,3.682-0.029,5.426,0.459    c4.726,1.322,8.402-0.167,11.479-3.794c1.505-1.775,3.656-2.174,5.857-2.186c0.773-0.004,1.686-0.003,2.229,1.242    c-1.936,1.369-4.522,1.688-6.041,3.873c-1.353,1.946-2.577,4.066-4.488,5.535c-0.013,1.287,0.914,2.021,1.456,2.89    c2.583,4.139,2.936,8.935,4.029,13.491c0.926,3.854,1.38,7.821,2.054,11.736c0.084,0.487,0.092,1.076,0.373,1.427    c3.503,4.372,2.001,9.635,2.591,14.513c0.228,1.883,0.075,3.797-0.448,5.668c-0.377,1.348-0.838,2.651-2.39,2.832    c-1.799,0.209-3.706,0.372-5.232-0.897c-1.013-0.843-0.336-1.818,0.164-2.679c1.076-1.851,2.321-3.574,2.341-5.904    C90.535,75.617,89.358,72.333,86.231,69.344z"/>
	</g>
</g>
</svg>