<svg xmlns="http://www.w3.org/2000/svg" xmlns:xlink="http://www.w3.org/1999/xlink" version="1.1" id="Layer_1" x="0px" y="0px" width="100px" height="100px" viewBox="0 0 100 100" enable-background="new 0 0 100 100" xml:space="preserve">
<g>
	<g>
		<path fill="none" d="M5.308,50.485c0-15.849,0.016-31.697-0.031-47.545C5.272,1.728,5.55,1.453,6.763,1.455    c29.918,0.039,59.835,0.039,89.753,0c1.212-0.001,1.487,0.273,1.486,1.486c-0.039,31.696-0.039,63.393,0,95.089    c0.001,1.213-0.273,1.488-1.486,1.486c-29.918-0.039-59.835-0.039-89.753,0c-1.212,0.002-1.49-0.273-1.486-1.486    C5.323,82.182,5.308,66.333,5.308,50.485z M57.237,42.162c-5.104,0.4-10.724-0.089-16.152-1.909    c-6.123-2.054-8.798-5.502-8.578-10.295c0.037-0.793-0.111-1.613-0.286-2.396c-0.4-1.788-0.031-3.125,1.743-4.024    c2.065-1.048,3.058-2.799,3.621-5.118c0.687-2.831,0.702-5.563,0.292-8.379c-0.192-1.32,0.316-3.161-1.1-3.697    c-1.425-0.541-2.574,1.005-3.745,1.811c-0.383,0.264-0.601,0.756-0.937,1.102c-1.237,1.276-2.46,2.568-3.749,3.791    c-1.239,1.175-2.625,1.751-4.416,1.146c-1.131-0.382-2.398-0.663-3.569-0.565c-2.443,0.204-3.748-0.885-4.526-3.074    c-1.087-3.056-3.188-5.368-5.637-7.435C8.996,2.103,8.571,2.395,7.983,3.723C5.623,9.057,7.228,14.002,9.417,18.845    c0.589,1.304,1.203,2.432,0.694,3.871c-0.507,1.435-0.254,2.778,0.206,4.232c0.492,1.558,1.505,3.124,0.433,4.969    c-0.479,0.825,0.004,1.879,0.843,2.58c1.768,1.478,2.506,3.44,2.875,5.677c0.433,2.624,0.791,5.284,1.733,7.793    c0.717,1.911,1.102,3.865,1.235,5.898c0.179,2.719,1.027,5.236,2.768,7.362c0.746,0.912,1.162,1.925,1.469,3.017    c1.582,5.625,2.139,11.397,2.441,17.203c0.093,1.777-0.031,3.545-0.414,5.301c-0.255,1.17-0.643,2.127-1.855,2.622    c-0.994,0.405-1.709,1.208-2.349,2.05c-0.429,0.563-0.66,1.187,0.155,1.62c3.487,1.857,8.71-0.475,8.932-3.644    c0.191-2.723,1.268-5.291,1.177-8.097c-0.048-1.488,0.27-3.04,0.336-4.573c0.017-0.383,0.01-0.919,0.52-0.961    c0.657-0.054,0.684,0.543,0.758,1.006c0.051,0.317,0.029,0.646,0.058,0.967c0.349,3.891-0.49,7.726-0.542,11.601    c-0.023,1.669-0.713,3.122-2.531,3.768c-0.575,0.204-1.092,0.699-1.519,1.167c-1.123,1.229-1.027,1.879,0.432,2.599    c2.297,1.134,4.71,0.97,7.097,0.367c1.115-0.282,1.892-1.215,1.887-2.3c-0.013-3.492,1.272-6.803,1.178-10.321    c-0.125-4.688,0.494-9.333,1.651-13.887c0.236-0.928,0.541-1.886,1.636-2.241c4.89-1.587,9.562-3.946,14.976-3.482    c3.133,0.269,3.151,0.054,2.677,3.145c-0.285,1.852,0.271,2.49,2.083,2.088c1.57-0.35,3.133-0.841,4.607-1.479    c1.038-0.449,1.592-0.305,2.174,0.633c1.707,2.748,4.163,4.659,6.96,6.234c1.54,0.868,2.982,1.94,4.365,3.05    c2.179,1.748,2.764,4.166,2.933,6.875c0.145,2.312-1.455,3.022-2.877,4.047c-0.5,0.359-1.199,0.732-0.915,1.524    c0.251,0.699,0.754,1.322,1.519,1.448c1.679,0.274,3.393,0.432,5.022-0.198c1.392-0.539,2.208-1.533,2.146-3.157    c-0.069-1.775-0.047-3.557-0.005-5.334c0.012-0.507-0.34-1.276,0.353-1.465c0.406-0.111,0.653,0.607,0.965,0.963    c1.853,2.108,2.308,4.707,2.756,7.354c0.237,1.406,0.01,2.367-1.338,2.966c-0.439,0.194-0.867,0.445-1.249,0.737    c-0.518,0.395-1.021,0.851-0.869,1.604c0.151,0.75,0.79,0.945,1.413,1.161c1.521,0.526,3.044,0.22,4.554-0.011    c2.364-0.362,3.392-1.475,2.781-3.812c-0.958-3.666-1.069-7.31-0.698-11.021c0.13-1.304-0.28-2.312-1.404-3.122    c-4.606-3.319-6.13-8.135-6.092-13.505c0.032-4.504,0.733-9.026-0.963-13.401c-0.14-0.359-0.18-0.812-0.108-1.19    c0.667-3.549,1.108-7.17,3.312-10.23c0.37-0.513,0.671-1.127,0.817-1.74c0.75-3.129,1.383-6.288,2.173-9.406    c0.388-1.528,0.193-2.897-0.615-4.176c-2.777-4.393-6.697-7.585-11.037-10.307c-0.59-0.37-1.41-0.823-2.038-0.314    c-0.794,0.643-0.231,1.553,0.078,2.227c0.742,1.61,1.483,3.26,2.505,4.695c1.672,2.349,2.479,5.045,3.61,7.627    c2.046,4.664-3.618,11.939-7.638,12.616c-3.203,0.539-6.446,0.805-9.654,0.427C64.606,42.16,61.223,42.312,57.237,42.162z"/>
		<path fill-rule="evenodd" clip-rule="evenodd" d="M57.237,42.162c3.985,0.15,7.369-0.002,10.763,0.397    c3.208,0.378,6.451,0.112,9.654-0.427c4.02-0.677,9.684-7.952,7.638-12.616c-1.132-2.583-1.938-5.278-3.61-7.627    c-1.021-1.435-1.763-3.084-2.505-4.695c-0.31-0.673-0.872-1.584-0.078-2.227c0.628-0.509,1.448-0.056,2.038,0.314    c4.34,2.722,8.26,5.914,11.037,10.307c0.809,1.279,1.003,2.648,0.615,4.176c-0.79,3.119-1.423,6.277-2.173,9.406    c-0.146,0.612-0.447,1.227-0.817,1.74c-2.204,3.06-2.646,6.682-3.312,10.23c-0.071,0.379-0.031,0.831,0.108,1.19    c1.696,4.375,0.995,8.897,0.963,13.401c-0.038,5.37,1.485,10.186,6.092,13.505c1.124,0.811,1.534,1.818,1.404,3.122    c-0.371,3.712-0.26,7.355,0.698,11.021c0.61,2.338-0.417,3.45-2.781,3.812c-1.51,0.23-3.032,0.537-4.554,0.011    c-0.623-0.216-1.262-0.411-1.413-1.161c-0.152-0.754,0.352-1.21,0.869-1.604c0.382-0.292,0.81-0.543,1.249-0.737    c1.348-0.599,1.575-1.56,1.338-2.966c-0.448-2.647-0.903-5.246-2.756-7.354c-0.312-0.355-0.559-1.074-0.965-0.963    c-0.692,0.188-0.341,0.958-0.353,1.465c-0.042,1.777-0.064,3.559,0.005,5.334c0.062,1.624-0.754,2.618-2.146,3.157    c-1.63,0.63-3.344,0.473-5.022,0.198c-0.765-0.126-1.268-0.749-1.519-1.448c-0.284-0.792,0.415-1.165,0.915-1.524    c1.422-1.024,3.021-1.734,2.877-4.047c-0.169-2.709-0.754-5.127-2.933-6.875c-1.383-1.109-2.825-2.182-4.365-3.05    c-2.797-1.575-5.253-3.486-6.96-6.234c-0.582-0.938-1.136-1.082-2.174-0.633c-1.475,0.639-3.037,1.13-4.607,1.479    c-1.812,0.402-2.368-0.236-2.083-2.088c0.475-3.091,0.456-2.876-2.677-3.145c-5.415-0.464-10.086,1.896-14.976,3.482    c-1.096,0.355-1.4,1.313-1.636,2.241c-1.158,4.554-1.776,9.199-1.651,13.887c0.094,3.519-1.191,6.829-1.178,10.321    c0.004,1.085-0.772,2.018-1.887,2.3c-2.387,0.603-4.8,0.767-7.097-0.367c-1.459-0.72-1.555-1.37-0.432-2.599    c0.427-0.468,0.944-0.963,1.519-1.167c1.817-0.646,2.507-2.099,2.531-3.768c0.053-3.875,0.891-7.71,0.542-11.601    c-0.029-0.32-0.006-0.649-0.058-0.967c-0.074-0.463-0.101-1.06-0.758-1.006c-0.51,0.042-0.503,0.578-0.52,0.961    c-0.067,1.533-0.385,3.085-0.336,4.573c0.091,2.806-0.986,5.374-1.177,8.097c-0.222,3.169-5.445,5.501-8.932,3.644    c-0.815-0.434-0.584-1.057-0.155-1.62c0.64-0.842,1.355-1.645,2.349-2.05c1.212-0.495,1.6-1.452,1.855-2.622    c0.383-1.756,0.507-3.523,0.414-5.301c-0.302-5.806-0.859-11.578-2.441-17.203c-0.307-1.092-0.723-2.104-1.469-3.017    c-1.741-2.126-2.589-4.644-2.768-7.362c-0.133-2.033-0.518-3.987-1.235-5.898c-0.942-2.509-1.3-5.169-1.733-7.793    c-0.369-2.237-1.107-4.2-2.875-5.677c-0.839-0.701-1.323-1.755-0.843-2.58c1.072-1.845,0.059-3.411-0.433-4.969    c-0.459-1.454-0.713-2.797-0.206-4.232c0.509-1.439-0.105-2.567-0.694-3.871C7.228,14.002,5.623,9.057,7.983,3.723    c0.588-1.329,1.013-1.621,2.215-0.605c2.449,2.067,4.55,4.379,5.637,7.435c0.778,2.189,2.083,3.278,4.526,3.074    c1.171-0.098,2.438,0.183,3.569,0.565c1.792,0.605,3.177,0.029,4.416-1.146c1.288-1.223,2.512-2.515,3.749-3.791    c0.336-0.346,0.553-0.838,0.937-1.102c1.171-0.806,2.319-2.352,3.745-1.811c1.416,0.537,0.908,2.377,1.1,3.697    c0.41,2.816,0.396,5.548-0.292,8.379c-0.563,2.319-1.556,4.07-3.621,5.118c-1.774,0.9-2.144,2.237-1.743,4.024    c0.175,0.783,0.323,1.602,0.286,2.396c-0.22,4.793,2.455,8.241,8.578,10.295C46.513,42.073,52.134,42.562,57.237,42.162z"/>
	</g>
</g>
</svg>