<svg xmlns="http://www.w3.org/2000/svg" xmlns:xlink="http://www.w3.org/1999/xlink" version="1.1" id="Layer_1" x="0px" y="0px" width="100px" height="100px" viewBox="0 0 100 100" enable-background="new 0 0 100 100" xml:space="preserve">
<g>
	<g>
		<path fill="none" d="M51.266,84.247c-15.741,0-31.482-0.018-47.224,0.032c-1.277,0.005-1.567-0.287-1.564-1.564    c0.046-21.271,0.046-42.543,0-63.815c-0.003-1.276,0.288-1.565,1.564-1.564c31.483,0.042,62.965,0.042,94.447,0    c1.276-0.001,1.567,0.287,1.564,1.564c-0.046,21.272-0.046,42.544,0,63.815c0.003,1.277-0.287,1.569-1.564,1.564    C82.748,84.229,67.007,84.247,51.266,84.247z M88.85,79.192c0.242,0,0.84,0.032,1.432-0.006c3.176-0.205,4.583-1.642,4.679-4.841    c0.049-1.609,0.108-3.224-0.36-4.81c-0.247-0.836-0.17-1.594,0.587-2.3c1.553-1.45,2.153-3.245,2.085-5.448    c-0.05-1.607-0.332-3.202-0.246-4.815c0.159-2.948-0.901-5.666-2.742-7.71c-3.79-4.209-8.291-7.225-14.461-6.526    c-2.605,0.295-5.265,0.126-7.899,0.173c-2.375,0.042-4.745,0.088-7.123,0.231c-6.457,0.386-12.91,0.185-19.258-1.28    c-2.376-0.548-4.542-1.645-6.151-3.423c-2.899-3.204-5.878-6.335-8.401-9.888c-1.475-2.077-2.6-4.139-2.81-6.674    c-0.082-0.99-0.094-2.096-1.58-1.106c-0.111,0.074-0.377,0.101-0.442,0.031c-1.228-1.335-1.465,0.031-1.563,0.703    c-0.389,2.686-2.305,3.727-4.511,4.607c-2.323,0.927-4.948,1.523-5.636,4.537c-0.114,0.5-0.557,0.804-1.16,0.814    c-1.39,0.023-2.62,0.677-3.921,1.051c-3.166,0.909-3.492,1.841-1.552,4.545c0.343,0.478,0.793,0.881,1.207,1.307    c0.35,0.359,0.932,0.588,0.954,1.142c0.104,2.632,1.977,2.864,3.937,2.91c1.481,0.034,2.844,0.321,4.109,1.139    c0.973,0.629,1.525,1.481,1.21,2.567c-1.05,3.617,0.03,7.069,0.646,10.567c1.064,6.043,4.511,10.474,9.339,14.008    c1.002,0.733,2.166,0.947,3.292,1.308c0.575,0.184,1.211,0.352,1.214,1.101c0.003,0.665-0.599,0.733-1.081,0.856    c-1.106,0.284-1.972,0.99-2.838,1.662c-0.667,0.517-1.361,1.153-1.021,2.143c0.31,0.898,1.072,1.326,1.986,1.339    c1.612,0.021,3.232,0.052,4.835-0.084c1.318-0.111,2.447-0.722,3.046-2.012c1.009-2.173,2.905-2.974,5.098-3.321    c1.005-0.159,2.015-0.292,3.018-0.466c3.836-0.668,7.649-1.515,11.593-1.194c1.619,0.132,3.27-0.044,4.778-0.594    c2.372-0.864,4.791-1.003,7.258-0.95c0.788,0.017,1.531-0.148,2.144-0.667c2.432-2.056,4.871-1.427,7.288-0.008    c0.886,0.52,1.789,0.969,2.768,1.279c3.076,0.976,3.074,0.979,0.977,3.318c-1.502,1.676-1.141,3.343,0.927,4.245    C85.777,79.211,87.121,79.339,88.85,79.192z"/>
		<path fill-rule="evenodd" clip-rule="evenodd" d="M88.85,79.192c-1.729,0.146-3.072,0.019-4.351-0.539    c-2.067-0.902-2.429-2.569-0.927-4.245c2.098-2.339,2.1-2.343-0.977-3.318c-0.979-0.311-1.882-0.76-2.768-1.279    c-2.417-1.419-4.856-2.048-7.288,0.008c-0.612,0.519-1.355,0.684-2.144,0.667c-2.467-0.053-4.886,0.086-7.258,0.95    c-1.509,0.55-3.159,0.726-4.778,0.594c-3.944-0.32-7.757,0.526-11.593,1.194c-1.003,0.174-2.013,0.307-3.018,0.466    c-2.193,0.348-4.089,1.148-5.098,3.321c-0.599,1.29-1.728,1.9-3.046,2.012c-1.603,0.136-3.224,0.105-4.835,0.084    c-0.915-0.013-1.677-0.44-1.986-1.339c-0.341-0.989,0.354-1.626,1.021-2.143c0.866-0.672,1.732-1.378,2.838-1.662    c0.482-0.123,1.084-0.191,1.081-0.856c-0.003-0.749-0.639-0.917-1.214-1.101c-1.126-0.36-2.289-0.574-3.292-1.308    c-4.829-3.534-8.275-7.965-9.339-14.008c-0.616-3.498-1.696-6.95-0.646-10.567c0.315-1.086-0.237-1.938-1.21-2.567    c-1.266-0.818-2.628-1.105-4.109-1.139c-1.959-0.045-3.833-0.277-3.937-2.91c-0.022-0.553-0.604-0.783-0.954-1.142    c-0.414-0.425-0.864-0.829-1.207-1.307c-1.94-2.705-1.614-3.636,1.552-4.545c1.301-0.374,2.531-1.028,3.921-1.051    c0.603-0.01,1.045-0.314,1.16-0.814c0.688-3.014,3.313-3.61,5.636-4.537c2.206-0.881,4.122-1.922,4.511-4.607    c0.098-0.672,0.335-2.039,1.563-0.703c0.064,0.07,0.331,0.043,0.442-0.031c1.486-0.99,1.499,0.116,1.58,1.106    c0.21,2.535,1.335,4.597,2.81,6.674c2.522,3.553,5.502,6.684,8.401,9.888c1.609,1.778,3.775,2.875,6.151,3.423    c6.348,1.464,12.801,1.666,19.258,1.28c2.378-0.143,4.748-0.189,7.123-0.231c2.635-0.047,5.294,0.123,7.899-0.173    c6.17-0.699,10.671,2.316,14.461,6.526c1.841,2.044,2.901,4.762,2.742,7.71c-0.086,1.613,0.196,3.208,0.246,4.815    c0.068,2.203-0.532,3.998-2.085,5.448c-0.757,0.706-0.834,1.464-0.587,2.3c0.469,1.586,0.409,3.2,0.36,4.81    c-0.096,3.199-1.503,4.636-4.679,4.841C89.689,79.225,89.092,79.192,88.85,79.192z"/>
	</g>
</g>
</svg>