<svg xmlns="http://www.w3.org/2000/svg" xmlns:xlink="http://www.w3.org/1999/xlink" version="1.1" id="Layer_1" x="0px" y="0px" width="100px" height="100px" viewBox="0 0 100 100" enable-background="new 0 0 100 100" xml:space="preserve">
<path fill-rule="evenodd" clip-rule="evenodd" d="M65.88,90.72c-0.728-0.047-1.466-0.047-2.184-0.154  c-0.92-0.135-2.151,0.083-2.429-1.152c-0.247-1.103,0.656-1.808,1.476-2.319c2.957-1.845,4.386-4.444,4.174-7.941  c-0.075-1.235-0.198-2.652-1.051-3.433c-3.019-2.774-3.899-6.649-5.566-10.115c-0.572-1.188-1.211-1.427-2.262-0.774  c-2.076,1.286-4.223,2.418-6.57,3.14c-1.203,0.37-1.624,1.296-1.54,2.456c0.492,6.575-1.615,12.656-3.488,18.785  c-0.521,1.713-0.836,3.449-0.992,5.245c-0.255,2.868-1.586,3.824-4.405,3.476c-1.929-0.238-3.87-0.373-5.793-0.634  c-0.717-0.094-1.465-0.384-1.647-1.237c-0.203-0.932,0.35-1.526,1.051-2.018c0.13-0.094,0.264-0.208,0.418-0.251  c3.876-1.066,4.137-4.01,4.144-7.371c0.007-4.282,0.875-8.543,0-12.844c-0.41-2.037-5.326-5.235-7.296-4.544  c-1.133,0.396-0.915,1.384-0.986,2.25c-0.322,4.03-0.744,8.059-0.946,12.103c-0.163,3.347-2.176,6.054-2.897,9.197  c-0.203,0.864-1.104,1.447-2.057,1.517c-2.104,0.154-4.232,0.326-6.298-0.206c-2.079-0.527-2.38-1.808-0.773-3.296  c1.119-1.044,5.535-13.5,3.594-18.947c-0.889-2.49-1.301-5.188-1.464-7.88c-0.045-0.722-0.088-1.552-0.456-2.126  c-3.676-5.789-2.48-12.208-2.356-18.45c0.053-2.692-0.477-4.553-3.368-5.199c-2.545-0.567-3.445-2.702-3.805-4.882  c-0.542-3.26-1.136-6.56-0.379-9.908c0.17-0.76,0.206-1.7-0.085-2.392c-1.95-4.637-2.428-9.5-2.503-14.463  C7.115,4.898,7.037,3.491,8.509,2.76c1.433-0.715,2.927-0.33,4.148,0.552c1.853,1.341,3.374,3.021,4.477,5.065  c1.958,3.619,4.883,5.179,8.812,4.308c2.444-0.542,3.988-2.611,5.561-4.451c1.251-1.469,2.135-3.257,4.059-4.096  c2.194-0.956,3.976-0.493,4.707,1.792c1.502,4.699,1.191,9.412-0.633,14.003c-0.235,0.597-0.652,1.152-0.76,1.769  c-0.353,1.984,3.403,8.769,5.156,9.813c3.044,1.811,5.994,2.298,9.637,1.433c6.242-1.479,12.648-1.935,18.999,0.069  c1.883,0.594,3.949,0.225,5.782,1.508c2.317,1.615,2.265,4.393,3.704,6.432c2.708,3.831,3.427,8.468,4.865,12.834  c2.275,6.902,3.467,13.978,4.4,21.124c0.679,5.217,1.291,10.449,1.787,15.691c0.314,3.288-0.098,3.614-3.433,3.573  c-0.892-0.01-1.785-0.062-2.663-0.193c-1.867-0.273-2.493-1.158-1.654-3.045c1.795-4.049,1.158-8.146-0.408-12.045  c-1.239-3.083-2.676-6.087-3.707-9.259c-0.953-2.934-3.407-4.685-5.574-6.61c-0.842-0.753-1.919-0.52-2.34,0.685  c-0.797,2.298-1.458,4.54-0.708,7.11c0.637,2.19,0.953,4.515,0.457,6.906c-0.489,2.366-0.688,4.811-0.861,7.231  C71.988,89.584,70.405,91.048,65.88,90.72z"/>
</svg>