<svg xmlns="http://www.w3.org/2000/svg" xmlns:xlink="http://www.w3.org/1999/xlink" version="1.1" id="Layer_1" x="0px" y="0px" width="100px" height="100px" viewBox="0 0 100 100" enable-background="new 0 0 100 100" xml:space="preserve">
<g>
	<g>
		<path fill="none" d="M1.889,89.027c0-25.171,0-50.342,0-75.514c32.706,0,65.411,0,98.116,0c0,25.171,0,50.343,0,75.514    C67.3,89.027,34.594,89.027,1.889,89.027z M74.086,72.452c1.018-0.323,1.392,0.488,2,0.394c1.461-0.227,1.777,0.648,1.82,1.814    c0.066,1.807,0.069,3.476-1.497,4.923c-1.381,1.277-1.066,2.453,0.424,3.348c1.63,0.979,4.527,0.32,5.851-1.034    c1.223-1.251,0.893-2.825,1.361-4.211c1.318-3.896,0.5-7.155-2.184-10.156c-2.468-2.759-2.734-6.562-4.387-9.719    c-0.108-0.206-0.048-0.507-0.042-0.763c0.017-0.804,0.457-1.506,1.222-1.283c1.876,0.55,3.244-0.678,4.853-1.055    c2.061-0.483,3.508-1.627,4.743-3.233c1.093-1.42,2.171-2.868,3.408-4.157c2.04-2.125,2.966-4.772,3.656-7.5    c0.487-1.926-0.188-3.315-1.883-4.032c-2.847-1.204-5.742-1.574-8.643-0.001c-1.651,0.895-3.346,1.721-5.066,2.474    c-4.278,1.872-8.624,2.83-13.142,0.732c-0.452-0.209-0.992-0.24-1.497-0.322c-5.316-0.859-10.712-0.981-16.06-1.379    c-4.997-0.372-9.498-1.976-14.05-3.645c-2.488-0.912-4.35-2.589-5.34-5.19c-1.069-2.807-2.745-5.325-4.337-7.843    c-1.071-1.692-2.004-3.716-3.869-4.681c-3.71-1.918-8.985-0.24-11.082,3.458c-0.636,1.122-1.415,1.869-2.571,2.338    c-0.79,0.321-1.545,0.726-2.312,1.103c-0.475,0.234-0.862,0.55-0.943,1.125c-0.169,1.21,1.653,4.242,2.8,4.816    c1.851,0.928,3.869,1.163,5.942,1.395c-0.026,0.586,0.035,1.028-0.077,1.422c-1.48,5.245-0.689,10.472-0.138,15.749    c0.207,1.979,1.418,3.696,1.145,5.698c-0.245,1.794,0.487,2.985,1.792,4.211c3.391,3.188,6.501,6.605,5.995,11.828    c-0.055,0.566,0.354,1.168,0.347,1.75c-0.035,2.942,1.087,6.176-2.562,8.117c-1.387,0.737-1.165,1.799,0.061,2.883    c3.64,3.217,7.8,2.399,11.88,1.379c1.509-0.378,2.219-1.783,1.998-3.472c-0.074-0.565-0.526-1.306,0.061-1.69    c1.396-0.915,1.265-2.399,1.385-3.675c0.161-1.706,0.478-3.379,0.695-5.069c0.122-0.941,0.469-1.607,1.341-2.006    c1.166-0.532,2.108-1.453,3.356-1.863c3.722-1.224,7.457-2.416,11.131-3.773c1.742-0.645,2.981-0.357,4.37,0.875    c1.214,1.077,2.39,2.191,3.576,3.297c1.004,0.937,2.023,2.053,3.452,2.046c3.435-0.017,4.694,2.286,5.698,4.959    c0.509,1.355,0.688,2.645-0.612,3.734c-0.601,0.503-0.853,1.271-1.146,1.982c-0.212,0.513-0.19,0.992,0.29,1.379    c1.541,1.242,5.018,0.142,5.414-1.792C73.11,76.214,73.963,74.42,74.086,72.452z"/>
		<path fill-rule="evenodd" clip-rule="evenodd" d="M74.086,72.452c-0.123,1.968-0.976,3.762-1.371,5.685    c-0.396,1.934-3.873,3.034-5.414,1.792c-0.48-0.387-0.502-0.866-0.29-1.379c0.293-0.711,0.545-1.479,1.146-1.982    c1.301-1.09,1.121-2.379,0.612-3.734c-1.004-2.673-2.264-4.976-5.698-4.959c-1.429,0.007-2.448-1.109-3.452-2.046    c-1.187-1.105-2.362-2.22-3.576-3.297c-1.389-1.232-2.628-1.52-4.37-0.875c-3.674,1.357-7.409,2.55-11.131,3.773    c-1.249,0.41-2.191,1.331-3.356,1.863c-0.872,0.398-1.219,1.064-1.341,2.006c-0.218,1.69-0.535,3.363-0.695,5.069    c-0.12,1.275,0.011,2.76-1.385,3.675c-0.587,0.385-0.135,1.125-0.061,1.69c0.222,1.688-0.488,3.094-1.998,3.472    c-4.081,1.021-8.24,1.838-11.88-1.379c-1.226-1.084-1.448-2.146-0.061-2.883c3.65-1.941,2.528-5.175,2.562-8.117    c0.007-0.582-0.402-1.184-0.347-1.75c0.506-5.223-2.604-8.641-5.995-11.828c-1.304-1.226-2.036-2.417-1.792-4.211    c0.274-2.002-0.938-3.72-1.145-5.698c-0.551-5.277-1.342-10.503,0.138-15.749c0.111-0.394,0.05-0.836,0.077-1.422    c-2.073-0.232-4.092-0.467-5.942-1.395c-1.146-0.575-2.969-3.606-2.8-4.816c0.081-0.574,0.468-0.89,0.943-1.125    c0.766-0.377,1.522-0.782,2.312-1.103c1.156-0.469,1.935-1.217,2.571-2.338c2.097-3.697,7.372-5.375,11.082-3.458    c1.865,0.964,2.798,2.988,3.869,4.681c1.593,2.518,3.269,5.036,4.337,7.843c0.99,2.601,2.853,4.278,5.34,5.19    c4.552,1.669,9.053,3.273,14.05,3.645c5.348,0.397,10.743,0.52,16.06,1.379c0.505,0.082,1.045,0.112,1.497,0.322    c4.518,2.098,8.863,1.14,13.142-0.732c1.721-0.753,3.415-1.579,5.066-2.474c2.9-1.572,5.796-1.202,8.643,0.001    c1.694,0.717,2.37,2.106,1.883,4.032c-0.69,2.729-1.616,5.375-3.656,7.5c-1.237,1.289-2.315,2.737-3.408,4.157    c-1.235,1.606-2.683,2.75-4.743,3.233c-1.608,0.377-2.977,1.604-4.853,1.055c-0.765-0.223-1.205,0.479-1.222,1.283    c-0.006,0.256-0.066,0.557,0.042,0.763c1.652,3.156,1.919,6.96,4.387,9.719c2.684,3.001,3.502,6.261,2.184,10.156    c-0.469,1.386-0.139,2.96-1.361,4.211c-1.323,1.354-4.221,2.013-5.851,1.034c-1.49-0.895-1.805-2.07-0.424-3.348    c1.566-1.447,1.563-3.116,1.497-4.923c-0.043-1.166-0.359-2.041-1.82-1.814C75.478,72.94,75.104,72.129,74.086,72.452z"/>
	</g>
</g>
</svg>