<svg xmlns="http://www.w3.org/2000/svg" xmlns:xlink="http://www.w3.org/1999/xlink" version="1.1" id="Layer_1" x="0px" y="0px" width="100px" height="100px" viewBox="0 0 100 100" enable-background="new 0 0 100 100" xml:space="preserve">
<path fill-rule="evenodd" clip-rule="evenodd" d="M23.635,15.039c3.364,2.203,6.198,5.201,9.308,7.799  c2.278,1.9,3.755,4.597,6.293,6.224c2.242,1.44,4.85,0.888,7.272,1.213c4.521,0.603,9.1,1.161,13.645,1.085  c4.366-0.075,8.677-0.056,12.961,0.773c5.302,1.028,10.902,1.778,14.216,6.681c1.973,2.916,2.702,6.549,2.729,10.094  c0.039,5.51,0.885,10.658,4.781,14.877c0.296,0.326,0.602,0.681,0.976,0.898c2.591,1.489,3.107,3.669,2.746,6.532  c-0.487,3.84,0.395,7.753-0.297,11.623c-0.124,0.687-0.403,0.982-1.052,0.989c-0.867,0.014-1.735,0.025-2.604,0.007  c-0.914-0.017-2.437,0.056-2.229-0.938c0.184-0.849,0.244-2.562,1.973-2.683c0.665-0.046,1.161-0.602,1.19-1.305  c0.185-3.973,0.185-7.911-3.084-10.907c-0.275-0.253-0.645-0.407-0.97-0.607c-0.158,0.303-0.378,0.592-0.464,0.914  c-0.69,2.548-1.056,5.241-2.13,7.607c-0.849,1.861-2.969,0.711-4.544,0.737c-0.507,0.009-1.019-0.31-0.809-0.872  c0.428-1.131,1.256-1.703,2.541-1.903c2.331-0.361,1.723-2.476,1.93-3.929c0.474-3.304-1.867-5.3-3.846-7.401  c-0.382-0.407-0.645,0.062-0.839,0.411c-1.657,2.962-2.683,6.343-5.586,8.493c-0.395,0.295-0.763,0.93-1.253,0.546  c-0.52-0.404-0.003-0.935,0.329-1.221c2.62-2.249,3.699-5.432,5.139-8.4c0.848-1.756-0.772-2.463-1.684-3.091  c-3.998-2.759-5.895-6.625-6.595-11.268c-0.204-1.331-0.783-1.769-2.342-1.345c-5.79,1.586-11.096,4.334-16.558,6.682  c-2.959,1.27-5.964,1.92-9.081,2.469c-1.979,0.346-1.854,2.503-2.13,3.876c-1.052,5.202-1.667,10.477-1.483,15.809  c0.043,1.157-0.003,2.153-1.102,3.008c-1.815,1.414-1.223,3.838-1.996,5.729c-0.45,1.091-0.891,1.9-2.088,2.038  c-1.539,0.174-3.084,0.293-4.524-0.47c-0.083-0.043-0.125-0.402-0.062-0.444c0.97-0.693,0.664-2.394,2.177-2.689  c0.536-0.103,1.016-0.49,1.522-0.749c-0.404-0.017-0.822,0.028-1.207-0.062c-0.891-0.221-2.361-0.04-2.41-1.065  c-0.052-1.03,0.667-2.107,2.075-2.463c2.002-0.5,1.871-2.581,1.923-3.903c0.26-6.625-0.181-13.266-2.413-19.542  c-1.104-3.104-3.492-5.731-4.774-8.792c-0.888-2.114-0.428-4.813-1.381-6.875c-1.486-3.212-3.222-6.336-5.136-9.384  c-3.038-4.833-7.056-3.57-11.225-2.952c-2.712,0.404-5.412,0.388-7.838-1.2c-0.542-0.354-1.236-0.667-1.216-1.41  c0.02-0.892,0.71-1.345,1.46-1.664c0.559-0.236,3.984-1.719,6.322-3.429s3.817-3.824,4.827-3.966  C15.021,15.223,21.015,13.322,23.635,15.039z M13.396,16.045"/>
</svg>