<svg xmlns="http://www.w3.org/2000/svg" xmlns:xlink="http://www.w3.org/1999/xlink" version="1.1" id="Layer_1" x="0px" y="0px" width="100px" height="100px" viewBox="0 0 100 100" enable-background="new 0 0 100 100" xml:space="preserve">
<g>
	<g>
		<path fill="none" d="M2.511,96.644c0-30.461,0-60.922,0-91.384c32.333,0,64.667,0,97,0c0,30.461,0,60.923,0,91.384    C67.178,96.644,34.844,96.644,2.511,96.644z M72.894,67.942c2.69,0.746,8.097,4.478,9.253,6.427    c1.018,1.715,1.144,3.699,1.385,5.631c0.184,1.472-1.242,1.66-1.938,2.43c-0.491,0.543-0.762,1.141-0.438,1.851    c0.297,0.655,0.938,0.659,1.532,0.683c0.594,0.024,1.191,0.036,1.784,0.003c2.659-0.149,3.952-1.789,3.538-4.384    c-0.44-2.764-1.23-5.466-1.324-8.296c-0.05-1.482-0.647-2.785-2.004-3.656c-1.014-0.651-1.692-1.599-2.277-2.682    c-2.026-3.756-2.368-8.027-4.165-12.094c7.97,2.953,14.919,3.401,19.113,1.332c0.187-0.924-0.41-1.441-1.089-1.796    c-1.658-0.867-3.347-1.654-5.279-1.755c-1.271-0.066-2.563-0.138-3.794-0.431c-3.894-0.925-7.812-1.833-10.446-5.299    c-0.662-0.872-1.501-1.615-2.299-2.375c-2.825-2.69-6.136-4.598-9.922-5.451c-2.556-0.576-5.212-0.728-7.829-1.013    c-4.126-0.45-8.215-0.787-12.208-2.28c-7.104-2.657-10.7-8.447-13.619-14.737c-0.987-2.127-2.013-3.841-3.958-5.037    c-2.606-1.603-5.293-2.157-8.467-1.911c-3.318,0.257-5.479,2.121-6.393,4.521c-0.868,2.279-2.211,3.16-4.067,3.974    c-0.544,0.239-1.068,0.527-1.592,0.809c-1.688,0.907-1.801,1.201-1.172,3.009c0.397,1.14,1.028,2.13,1.849,3.019    c1.779,1.924,4.185,2.07,6.544,2.377c0.988,0.128,2.062-0.235,2.983,0.519c0.334,1.633,0.41,3.405,1.061,4.932    c2.716,6.358,2.937,13.252,4.071,19.892c1.021,5.979,2.051,12.034,2.402,18.151c0.188,3.274-0.009,6.112-3.31,7.798    c-0.457,0.232-0.777,0.682-0.694,1.261c0.084,0.586,0.521,0.895,1.038,0.981c1.9,0.315,3.822,0.942,6.027-0.38    c2.007-6.818,1.65-14.305,3.452-21.502c2.966,0.422,3.411,2.93,3.858,5.023c0.981,4.59,0.786,9.293,0.64,13.964    c-0.041,1.305-0.429,2.53-1.655,3.263c-0.959,0.572-2.157,1.123-1.784,2.446c0.378,1.343,1.837,1.059,2.856,1.197    c2.316,0.314,3.792-0.736,4.793-2.817c1.102-2.287,1.521-4.669,1.492-7.169c-0.019-1.616-0.146-3.242-0.013-4.847    c0.244-2.934,0.159-5.928,1.17-8.826c0.716-0.193,1.355-0.47,2.013-0.527c2.999-0.269,5.887-1.079,8.616-2.223    c3.175-1.331,5.427,0.339,7.52,2.038c1.56,1.266,2.91,2.853,4.51,4.115c2.164,1.708,3.41,4.041,4.281,6.519    c0.651,1.854,1.334,3.938-0.822,5.543c-0.495,0.369-0.378,1.118,0.153,1.577c1.101,0.952,2.414,0.726,3.655,0.486    c1.207-0.232,1.542-1.276,1.587-2.338c0.052-1.185-0.086-2.364-0.268-3.55C72.819,73.576,72.888,70.793,72.894,67.942z"/>
		<path fill-rule="evenodd" clip-rule="evenodd" d="M72.894,67.942c-0.006,2.851-0.074,5.634,0.35,8.396    c0.182,1.186,0.319,2.365,0.268,3.55c-0.045,1.062-0.38,2.105-1.587,2.338c-1.241,0.239-2.555,0.466-3.655-0.486    c-0.531-0.459-0.648-1.208-0.153-1.577c2.156-1.605,1.474-3.689,0.822-5.543c-0.871-2.478-2.117-4.811-4.281-6.519    c-1.6-1.263-2.95-2.85-4.51-4.115c-2.093-1.699-4.345-3.369-7.52-2.038c-2.729,1.144-5.617,1.954-8.616,2.223    c-0.658,0.058-1.297,0.334-2.013,0.527c-1.011,2.898-0.926,5.893-1.17,8.826c-0.133,1.604-0.005,3.23,0.013,4.847    c0.029,2.5-0.39,4.882-1.492,7.169c-1.001,2.081-2.477,3.132-4.793,2.817c-1.019-0.139-2.478,0.146-2.856-1.197    c-0.373-1.323,0.824-1.874,1.784-2.446c1.226-0.732,1.614-1.958,1.655-3.263c0.146-4.671,0.342-9.374-0.64-13.964    c-0.447-2.094-0.892-4.602-3.858-5.023c-1.802,7.197-1.445,14.684-3.452,21.502c-2.205,1.322-4.127,0.695-6.027,0.38    c-0.517-0.087-0.954-0.396-1.038-0.981c-0.083-0.579,0.237-1.028,0.694-1.261c3.301-1.686,3.499-4.523,3.31-7.798    c-0.351-6.117-1.381-12.173-2.402-18.151c-1.134-6.64-1.354-13.534-4.071-19.892c-0.651-1.526-0.727-3.298-1.061-4.932    c-0.922-0.754-1.996-0.391-2.983-0.519c-2.359-0.307-4.765-0.453-6.544-2.377c-0.821-0.888-1.452-1.878-1.849-3.019    c-0.629-1.809-0.517-2.102,1.172-3.009c0.524-0.282,1.048-0.57,1.592-0.809c1.856-0.814,3.199-1.695,4.067-3.974    c0.914-2.4,3.074-4.264,6.393-4.521c3.174-0.246,5.861,0.308,8.467,1.911c1.945,1.195,2.971,2.91,3.958,5.037    c2.919,6.29,6.514,12.08,13.619,14.737c3.993,1.493,8.082,1.83,12.208,2.28c2.617,0.285,5.273,0.437,7.829,1.013    c3.786,0.853,7.097,2.761,9.922,5.451c0.798,0.76,1.637,1.504,2.299,2.375c2.635,3.466,6.553,4.374,10.446,5.299    c1.23,0.293,2.523,0.364,3.794,0.431c1.933,0.101,3.621,0.888,5.279,1.755c0.679,0.354,1.275,0.872,1.089,1.796    c-4.194,2.069-11.144,1.621-19.113-1.332c1.797,4.066,2.139,8.338,4.165,12.094c0.585,1.083,1.264,2.03,2.277,2.682    c1.356,0.871,1.954,2.174,2.004,3.656c0.094,2.83,0.884,5.532,1.324,8.296c0.414,2.595-0.879,4.234-3.538,4.384    c-0.593,0.033-1.19,0.021-1.784-0.003c-0.595-0.023-1.235-0.027-1.532-0.683c-0.323-0.71-0.053-1.308,0.438-1.851    c0.696-0.77,2.122-0.958,1.938-2.43c-0.241-1.932-0.367-3.916-1.385-5.631C80.99,72.42,75.584,68.688,72.894,67.942z"/>
	</g>
</g>
</svg>