<svg xmlns="http://www.w3.org/2000/svg" xmlns:xlink="http://www.w3.org/1999/xlink" version="1.1" id="Layer_1" x="0px" y="0px" width="100px" height="100px" viewBox="0 0 100 100" enable-background="new 0 0 100 100" xml:space="preserve">
<g>
	<g>
		<path fill="none" d="M51.587,96.619c-15.724,0-31.448-0.014-47.172,0.029c-1.033,0.003-1.233-0.199-1.232-1.232    c0.036-30.004,0.036-60.008,0-90.012c-0.001-1.033,0.2-1.233,1.232-1.232c31.448,0.036,62.896,0.036,94.344,0    c1.033-0.001,1.233,0.199,1.232,1.232c-0.036,30.004-0.036,60.008,0,90.012c0.001,1.033-0.199,1.235-1.232,1.232    C83.034,96.605,67.311,96.619,51.587,96.619z M36.891,94.655c0.001-0.041,0.001-0.081,0.002-0.122    c0.641,0,1.286,0.044,1.923-0.009c1.815-0.151,2.355-0.812,2.209-2.663c-0.042-0.538-0.229-1.013-0.081-1.622    c0.468-1.937,1.609-3.701,1.462-5.806c-0.028-0.404,0.021-1.005,0.567-1.229c0.24-0.099,0.527-0.234,0.421-0.471    c-0.804-1.789,0.447-3.826-0.687-5.562c-0.199-0.304-0.687-0.593,0.037-0.841c1.34-0.46,1.212-1.266,0.55-2.229    c-0.173-0.253-0.421-0.766-0.351-0.827c1.455-1.246,0.089-2.558-0.271-3.441c-0.608-1.494-1.385-2.58,0.568-3.497    c0.515-2.135,2.629-1.983,4.044-2.832c0.933,0.611,1.23-1.204,2.034-0.598c0.904,0.683,1.578,0.063,2.185-0.29    c1.917-1.116,4.048-1.743,5.987-2.868c2.063-1.198,4.48-1.844,6.996-1.964c1.18-0.058,1.89,0.088,2.58,1.102    c1.196,1.756,2.564,3.396,3.885,5.067c0.342,0.433,1.069,2.075,1.096,2.631c0.011,0.236,0.002,0.556,0.143,0.688    c1.366,1.283,1.913,3.117,3.086,4.53c0.409,0.493,0.779,0.622,1.438,0.48c1.102-0.235,1.182-0.127,0.68,1.031    c-0.227,0.524-0.136,0.875,0.059,1.334c0.362,0.855,0.911,1.497,1.777,1.85c1.955,0.794,2.958,2.656,3.972,4.206    c2.085,3.189,3.31,6.716,1.332,10.58c-0.548,1.072,0.135,2.137,1.342,2.3c1.427,0.193,2.883,0.179,4.288-0.234    c0.812-0.239,1.24-0.7,1.436-1.666c0.441-2.186,0.917-4.352,1.2-6.573c0.107-0.849,0.187-1.642-0.223-2.291    c-1.071-1.7-0.303-3.102,0.551-4.505c0.325-0.534,0.979-0.936,1.128-1.493c0.215-0.804-0.88-1.1-1.064-1.734    c-0.233-0.806-0.894-1.094-1.382-1.594c-0.391-0.4-1.018-0.764-0.991-1.309c0.058-1.159-0.813-1.812-1.203-2.716    c-0.294-0.683-1.26-1.382-0.157-2.228c0.111-0.086-0.042-0.604-0.158-0.887c-1.02-2.49-1.979-5.009-2.034-7.732    c-0.047-2.301-0.097-4.63,0.212-6.897c0.142-1.039,0.246-2.005,0.108-3.035c-0.23-1.728-0.243-3.507-1.532-4.908    c-0.141-0.153-0.132-0.448-0.179-0.68c-0.187-0.916-0.366-1.833-0.549-2.749c1.273-0.341,0.422-1.414,0.71-2.101    c0.396-0.946,0.441-2.185,1.096-2.837c0.639-0.637,0.878-1,0.481-1.766c-0.296-0.572,0.418-1.521-0.594-1.809    c-0.858-0.245-1.176-0.554-0.356-1.21c0.275-0.221,0.521-0.429,0.324-0.766c-0.462-0.792-0.479-1.668-0.632-2.535    c-0.197-1.115-2.101-2.354-2.895-1.793c-0.929,0.658-1.552,0.334-2.374,0.021c-0.511-0.194-1.143-0.243-0.976,0.755    c0.145,0.867-0.246,1.256-1.044,0.616c-0.484-0.389-0.918-0.615-1.506-0.258c-0.797,0.484-1.535,0.34-2.196-0.271    c-0.938-0.869-0.492,0.052-0.614,0.425c-0.793,2.415-2.446,3.792-4.761,3.353c-1.845-0.35-2.15,1.55-3.48,1.739    c0.239,1.991-1.349,1.381-2.184,1.316c-0.854-0.065-1.797-0.408-2.597-0.258c-1.391,0.26-2.685-0.064-4.024-0.12    c-1.924-0.078-3.822-0.624-5.724-0.485c-3.49,0.255-6.553-0.916-9.513-2.494c-0.853-0.455-1.597-1.025-2.636-0.979    c-0.553,0.025-1.216-0.034-1.436-0.657c-0.527-1.495-1.815-2.149-2.993-2.978c-1.109-0.779-2.054-1.777-2.842-2.884    c-0.878-1.233-0.723-1.866,0.726-2.235c1.197-0.305,1.958-0.911,2.535-1.948c1.526-2.747,0.313-5.128-2.838-5.401    c-1.027-0.089-1.778-0.667-2.546-1.191c-0.733-0.5-1.421-1.269-2.339-0.875c-1.139,0.489-2.853,0.121-3.209,1.944    c-0.042,0.214-0.241,0.413-0.404,0.584c-0.589,0.62-1.164,0.579-1.495-0.324c-0.308-0.838-0.847-0.831-1.488-0.831    c-0.387,0-0.751,0.12-1.018-0.363c-0.915-1.656-2.772-2.146-4.172-3.198c-0.488-0.366-1.363-0.253-2.065-0.29    c-0.89-0.045-0.427,0.884-0.829,1.236c-0.529,0.463-0.9,1.272-1.492,1.466c-1.412,0.464-1.594,0.94-1.217,2.489    c0.268,1.099,0.399,1.756,1.391,2.384c1.542,0.978,1.821,2.452,1.156,4.359c-0.104,0.298-0.221,0.617-0.212,0.923    c0.039,1.362-0.476,2.45-1.405,3.438c-2.5,2.658,0.374,7.891,3.585,7.956c2.625,0.053,2.806,0.331,2.597,2.871    c-0.125,1.531,0.552,2.517,1.607,3.102c1.591,0.883,1.971,2.478,1.944,3.791c-0.03,1.409,0.252,2.812,0.125,4.143    c-0.168,1.756,0.053,3.283,0.786,4.826c0.306,0.644,0.581,1.337,0.685,2.036c0.459,3.077,2.314,5.693,2.849,8.744    c0.079,0.449,0.367,0.85,0.743,1.2c1.683,1.563,2.398,3.484,1.933,5.777c-0.092,0.451,0.016,0.707,0.424,0.974    c1.577,1.03,0.941,3.013,1.812,4.358c-0.714,2.45,0.101,4.648,1.135,6.804c0.224,0.466,0.188,0.882,0.078,1.378    c-0.269,1.211-1.011,1.953-2.083,2.462c-0.907,0.431-1.28,1.275-1.232,2.171c0.045,0.844,0.913,1.025,1.583,1.259    c0.523,0.183,1.074,0.288,1.615,0.422c2.285,0.564,2.285,0.563,1.359,2.819c-0.031,0.074-0.076,0.143-0.104,0.217    c-0.525,1.414-0.062,2.354,1.421,2.654C35.276,94.664,36.093,94.613,36.891,94.655z"/>
		<path fill-rule="evenodd" clip-rule="evenodd" d="M36.891,94.655c-0.797-0.042-1.614,0.009-2.389-0.148    c-1.483-0.301-1.946-1.24-1.421-2.654c0.028-0.074,0.073-0.143,0.104-0.217c0.926-2.256,0.926-2.255-1.359-2.819    c-0.541-0.134-1.091-0.239-1.615-0.422c-0.67-0.233-1.538-0.415-1.583-1.259c-0.048-0.896,0.326-1.74,1.232-2.171    c1.071-0.509,1.814-1.251,2.083-2.462c0.11-0.496,0.146-0.912-0.078-1.378c-1.035-2.155-1.849-4.354-1.135-6.804    c-0.871-1.346-0.235-3.328-1.812-4.358c-0.408-0.267-0.516-0.522-0.424-0.974c0.465-2.293-0.25-4.214-1.933-5.777    c-0.376-0.351-0.664-0.751-0.743-1.2c-0.535-3.051-2.39-5.667-2.849-8.744c-0.104-0.699-0.379-1.393-0.685-2.036    c-0.733-1.543-0.954-3.07-0.786-4.826c0.127-1.33-0.155-2.734-0.125-4.143c0.027-1.313-0.353-2.908-1.944-3.791    c-1.056-0.585-1.733-1.571-1.607-3.102c0.208-2.54,0.028-2.818-2.597-2.871c-3.211-0.065-6.085-5.297-3.585-7.956    c0.929-0.988,1.444-2.076,1.405-3.438c-0.009-0.306,0.108-0.625,0.212-0.923c0.665-1.907,0.386-3.381-1.156-4.359    c-0.991-0.628-1.123-1.285-1.391-2.384c-0.377-1.548-0.195-2.024,1.217-2.489c0.592-0.194,0.962-1.003,1.492-1.466    c0.402-0.352-0.061-1.281,0.829-1.236c0.702,0.037,1.577-0.077,2.065,0.29c1.4,1.053,3.257,1.542,4.172,3.198    c0.267,0.483,0.631,0.363,1.018,0.363c0.641,0,1.181-0.007,1.488,0.831c0.332,0.902,0.906,0.943,1.495,0.324    c0.163-0.171,0.362-0.371,0.404-0.584c0.357-1.823,2.071-1.455,3.209-1.944c0.918-0.394,1.606,0.375,2.339,0.875    c0.769,0.524,1.52,1.103,2.546,1.191c3.151,0.273,4.364,2.654,2.838,5.401c-0.577,1.037-1.338,1.644-2.535,1.948    c-1.449,0.37-1.604,1.002-0.726,2.235c0.788,1.107,1.733,2.105,2.842,2.884c1.178,0.829,2.466,1.483,2.993,2.978    c0.219,0.623,0.883,0.682,1.436,0.657c1.039-0.046,1.783,0.523,2.636,0.979c2.96,1.578,6.023,2.749,9.513,2.494    c1.901-0.139,3.8,0.407,5.724,0.485c1.34,0.055,2.634,0.38,4.024,0.12c0.8-0.15,1.743,0.193,2.597,0.258    c0.835,0.064,2.423,0.675,2.184-1.316c1.33-0.189,1.636-2.088,3.48-1.739c2.314,0.439,3.968-0.938,4.761-3.353    c0.122-0.373-0.324-1.294,0.614-0.425c0.661,0.611,1.399,0.755,2.196,0.271c0.588-0.357,1.021-0.131,1.506,0.258    c0.798,0.64,1.188,0.25,1.044-0.616c-0.167-0.999,0.465-0.949,0.976-0.755c0.822,0.313,1.445,0.636,2.374-0.021    c0.794-0.561,2.697,0.678,2.895,1.793c0.152,0.867,0.17,1.743,0.632,2.535c0.197,0.337-0.049,0.545-0.324,0.766    c-0.819,0.656-0.502,0.966,0.356,1.21c1.012,0.288,0.298,1.237,0.594,1.809c0.396,0.766,0.157,1.129-0.481,1.766    c-0.654,0.652-0.699,1.891-1.096,2.837c-0.288,0.688,0.563,1.76-0.71,2.101c0.183,0.916,0.362,1.833,0.549,2.749    c0.047,0.231,0.038,0.527,0.179,0.68c1.289,1.401,1.302,3.18,1.532,4.908c0.138,1.03,0.033,1.996-0.108,3.035    c-0.309,2.268-0.259,4.597-0.212,6.897c0.056,2.724,1.015,5.242,2.034,7.732c0.116,0.282,0.27,0.801,0.158,0.887    c-1.103,0.846-0.137,1.545,0.157,2.228c0.39,0.904,1.261,1.557,1.203,2.716c-0.026,0.545,0.601,0.908,0.991,1.309    c0.488,0.5,1.148,0.788,1.382,1.594c0.185,0.635,1.279,0.931,1.064,1.734c-0.149,0.558-0.803,0.959-1.128,1.493    c-0.854,1.403-1.622,2.805-0.551,4.505c0.409,0.649,0.33,1.442,0.223,2.291c-0.283,2.222-0.759,4.388-1.2,6.573    c-0.195,0.966-0.623,1.427-1.436,1.666c-1.405,0.413-2.861,0.428-4.288,0.234c-1.207-0.163-1.89-1.228-1.342-2.3    c1.978-3.864,0.753-7.391-1.332-10.58c-1.014-1.55-2.017-3.412-3.972-4.206c-0.866-0.353-1.415-0.994-1.777-1.85    c-0.194-0.459-0.285-0.81-0.059-1.334c0.502-1.158,0.422-1.267-0.68-1.031c-0.658,0.142-1.028,0.013-1.438-0.48    c-1.173-1.413-1.72-3.247-3.086-4.53c-0.141-0.133-0.132-0.452-0.143-0.688c-0.026-0.556-0.754-2.198-1.096-2.631    c-1.32-1.671-2.688-3.312-3.885-5.067c-0.69-1.014-1.4-1.159-2.58-1.102c-2.516,0.12-4.933,0.766-6.996,1.964    c-1.939,1.125-4.07,1.752-5.987,2.868c-0.607,0.354-1.281,0.973-2.185,0.29c-0.803-0.606-1.101,1.209-2.034,0.598    c-1.415,0.849-3.53,0.697-4.044,2.832c-1.953,0.917-1.176,2.003-0.568,3.497c0.361,0.884,1.726,2.195,0.271,3.441    c-0.071,0.062,0.177,0.574,0.351,0.827c0.663,0.964,0.79,1.77-0.55,2.229c-0.724,0.248-0.236,0.537-0.037,0.841    c1.134,1.735-0.117,3.772,0.687,5.562c0.106,0.236-0.181,0.372-0.421,0.471c-0.547,0.225-0.596,0.825-0.567,1.229    c0.147,2.104-0.994,3.869-1.462,5.806c-0.148,0.609,0.039,1.084,0.081,1.622c0.146,1.851-0.394,2.512-2.209,2.663    c-0.637,0.053-1.282,0.009-1.923,0.009C36.892,94.574,36.892,94.614,36.891,94.655z"/>
	</g>
</g>
</svg>