<svg xmlns="http://www.w3.org/2000/svg" xmlns:xlink="http://www.w3.org/1999/xlink" version="1.1" id="Layer_1" x="0px" y="0px" width="100px" height="100px" viewBox="0 0 100 100" enable-background="new 0 0 100 100" xml:space="preserve">
<g>
	<g>
		<path fill="none" d="M45.154,85.45c-17.681,0-35.362,0-53.043,0c-0.225,0-0.451-0.012-0.676,0.003    c-0.243,0.017-0.425,0.018-0.363-0.324c0.04-0.219,0.007-0.449,0.007-0.675c0-25.264,0-50.527,0-75.792    c0-0.941,0-0.941,0.972-0.941c35.399,0,70.799,0,106.199,0c0.188,0,0.377,0.016,0.562-0.003c0.293-0.03,0.479,0.009,0.418,0.381    c-0.035,0.219-0.006,0.449-0.006,0.675c0,25.188,0,50.378,0,75.566c0,0.263-0.034,0.531,0.008,0.787    c0.056,0.34-0.114,0.345-0.361,0.327c-0.225-0.017-0.45-0.004-0.676-0.004C80.516,85.45,62.834,85.45,45.154,85.45z     M40.866,68.724c0.042-2.597-0.281-2.131,1.056-4.333c0.178-0.293,0.345-0.609,0.298-0.951c-0.116-0.851,0.243-1.582,0.709-2.187    c0.409-0.529,0.142-1.495,0.97-1.653c0.688-0.132,1.42-0.049,2.132-0.039c0.259,0.004,0.521,0.057,0.775,0.118    c0.483,0.117,0.994,0.173,1.452,0.054c1.028-0.267,2.084-0.171,3.123-0.34c0.874-0.143,1.773-0.278,2.673-0.294    c1.84-0.032,3.667-0.194,5.437-0.72c1.201-0.356,2.434-0.199,3.647-0.316c0.126-0.012,0.296,0.077,0.394,0.173    c0.457,0.444,0.987,0.848,1.324,1.374c1.131,1.768,2.652,3.148,4.275,4.417c1.391,1.087,2.737,2.21,3.957,3.49    c0.63,0.66,1.081,1.436,1.577,2.184c0.193,0.291,0.203,0.619,0.162,0.973c-0.141,1.21-0.682,2.167-1.555,3.027    c-1.037,1.022-0.76,2.032,0.638,2.43c1.222,0.348,2.478,0.569,3.766,0.555c0.735-0.009,1.221-0.334,1.478-0.991    c0.383-0.981,0.679-2,0.681-3.057c0.003-1.239,0.359-2.449,0.245-3.695c-0.039-0.433,0.214-0.579,0.546-0.31    c1.19,0.967,2.743,1.637,2.929,3.459c0.007,0.071,0.065,0.136,0.086,0.207c0.42,1.455,1.078,2.859,0.94,4.435    c-0.047,0.535,0.171,1.034,0.287,1.543c0.132,0.572,0.492,0.896,1.13,0.872c0.75-0.026,1.505,0.029,2.252-0.024    c0.711-0.05,1.399-0.237,2.042-0.576c0.362-0.19,0.587-0.44,0.604-0.869c0.054-1.327-0.057-2.612-0.731-3.809    c-1.239-2.196-2.311-4.457-2.435-7.043c-0.027-0.561-0.304-1.006-0.722-1.352c-0.403-0.335-0.792-0.775-1.263-0.922    c-1.586-0.49-2.185-1.676-2.467-3.15c-0.049-0.256-0.159-0.5-0.243-0.749c-0.277-0.817-0.401-1.657-0.53-2.514    c-0.191-1.262-0.019-2.554-0.383-3.791c-0.466-1.579-0.631-3.221-1.003-4.818c-0.378-1.625-1.22-2.964-2.64-3.905    c-0.247-0.163-0.433-0.416-0.657-0.614c-0.447-0.394-0.572-0.91-0.4-1.435c0.414-1.263,0.947-2.453,2.304-3.021    c0.411-0.172,0.858-0.362,1.16-0.67c0.796-0.817,1.741-1.418,2.677-2.041c0.381-0.253,0.667-0.578,0.829-1.03    c0.543-1.511-0.216-3.078-1.722-3.65c-1.156-0.439-2.208-0.131-3.084,0.526c-1.166,0.875-2.463,1.554-3.567,2.52    c-2.206,1.931-4.834,2.242-7.607,1.816c-1.186-0.182-2.361-0.403-3.569-0.349c-0.412,0.018-0.83,0.024-1.237-0.023    c-2.382-0.273-4.768-0.438-7.167-0.423c-1.583,0.01-3.139-0.228-4.636-0.751c-1.171-0.41-2.385-0.662-3.564-1.03    c-1.963-0.613-3.957-1.17-5.6-2.514c-0.724-0.592-1.488-1.135-2.223-1.714c-1.448-1.142-2.82-2.356-3.742-3.993    c-0.319-0.567-0.784-1.007-1.292-1.396c-1.051-0.804-2.019-1.67-2.58-2.911c-0.12-0.265-0.347-0.484-0.534-0.716    c-0.771-0.957-1.857-1.491-2.889-2.083c-0.613-0.353-1.23-0.757-1.939-0.882c-1.436-0.252-2.869-0.543-4.343-0.483    c-0.634,0.026-1.266,0.018-1.903-0.12c-1.341-0.291-2.505,0.042-3.474,1.072c-0.822,0.874-1.639,1.777-2.585,2.502    c-0.658,0.504-0.965,1.029-0.842,1.796c0.195,1.211-0.414,1.965-1.321,2.629c-1.177,0.862-2.317,1.774-3.462,2.68    c-0.519,0.41-0.979,0.942-0.812,1.626c0.188,0.774,0.142,1.562,0.31,2.335c0.176,0.812,0.482,1.497,1.217,1.931    c0.388,0.229,0.58,0.587,0.648,1.006c0.065,0.395,0.214,0.732,0.568,0.922c0.668,0.359,1.061,0.938,1.344,1.608    c0.223,0.529,0.61,0.861,1.167,0.95c0.907,0.146,1.678,0.548,2.454,1.036c1.626,1.022,3.512,0.345,4.217-1.421    c0.125-0.312,0.262-0.625,0.442-0.907c0.17-0.266,0.405-0.177,0.53,0.049c0.105,0.191,0.125,0.428,0.185,0.645    c0.455,1.663,0.882,3.333,1.376,4.985c0.236,0.786,0.499,1.596,0.923,2.288c1.142,1.861,2.149,3.777,2.879,5.839    c0.212,0.599,0.443,1.206,0.769,1.747c1.458,2.423,1.752,5.148,2.104,7.861c0.129,1.001,0.407,2.019,0.174,3.014    c-0.44,1.888-0.439,3.795-0.379,5.702c0.032,1-0.234,1.687-1.122,2.245c-0.862,0.543-1.793,1.044-2.247,2.11    c-0.299,0.703-0.321,1.289,0.062,1.908c0.387,0.626,0.984,0.619,1.596,0.463c0.408-0.105,0.831-0.229,1.208-0.02    c1.046,0.578,2.185,0.669,3.335,0.866c1.417,0.243,2.765,0.016,4.128-0.152c0.827-0.103,1.509-0.543,2.045-1.264    c0.844-1.133,1.278-2.447,1.847-3.705c0.076-0.169,0.14-0.359,0.144-0.541C40.653,71.133,41.06,69.848,40.866,68.724z"/>
		<path fill-rule="evenodd" clip-rule="evenodd" d="M40.866,68.724c0.194,1.124-0.212,2.409-0.245,3.719    c-0.004,0.182-0.068,0.372-0.144,0.541c-0.568,1.258-1.002,2.572-1.847,3.705c-0.537,0.721-1.219,1.161-2.045,1.264    c-1.363,0.168-2.711,0.396-4.128,0.152c-1.15-0.197-2.29-0.288-3.335-0.866c-0.378-0.209-0.8-0.086-1.208,0.02    c-0.612,0.156-1.209,0.163-1.596-0.463c-0.383-0.619-0.361-1.205-0.062-1.908c0.454-1.066,1.384-1.567,2.247-2.11    c0.888-0.559,1.154-1.245,1.122-2.245c-0.06-1.907-0.061-3.814,0.379-5.702c0.232-0.995-0.045-2.013-0.174-3.014    c-0.351-2.713-0.646-5.438-2.104-7.861c-0.326-0.541-0.557-1.148-0.769-1.747c-0.729-2.062-1.737-3.978-2.879-5.839    c-0.424-0.692-0.688-1.502-0.923-2.288c-0.494-1.651-0.921-3.322-1.376-4.985c-0.059-0.216-0.079-0.454-0.185-0.645    c-0.125-0.226-0.36-0.315-0.53-0.049c-0.18,0.282-0.318,0.595-0.442,0.907c-0.706,1.766-2.591,2.444-4.217,1.421    c-0.776-0.488-1.547-0.89-2.454-1.036c-0.557-0.089-0.943-0.421-1.167-0.95c-0.283-0.67-0.675-1.249-1.344-1.608    c-0.354-0.189-0.503-0.527-0.568-0.922c-0.068-0.419-0.261-0.777-0.648-1.006c-0.735-0.435-1.042-1.119-1.217-1.931    c-0.167-0.772-0.121-1.561-0.31-2.335c-0.167-0.684,0.294-1.216,0.812-1.626c1.145-0.906,2.285-1.818,3.462-2.68    c0.907-0.664,1.516-1.418,1.321-2.629c-0.123-0.767,0.184-1.292,0.842-1.796c0.946-0.725,1.763-1.628,2.585-2.502    c0.969-1.03,2.133-1.362,3.474-1.072c0.637,0.138,1.269,0.146,1.903,0.12c1.475-0.06,2.908,0.231,4.343,0.483    c0.709,0.125,1.326,0.529,1.939,0.882c1.032,0.592,2.117,1.126,2.889,2.083c0.188,0.232,0.415,0.451,0.534,0.716    c0.562,1.241,1.529,2.107,2.58,2.911c0.507,0.389,0.973,0.829,1.292,1.396c0.922,1.637,2.294,2.851,3.742,3.993    c0.735,0.579,1.499,1.122,2.223,1.714c1.643,1.344,3.636,1.901,5.6,2.514c1.18,0.369,2.394,0.621,3.564,1.03    c1.497,0.523,3.053,0.761,4.636,0.751c2.399-0.015,4.785,0.15,7.167,0.423c0.407,0.047,0.825,0.041,1.237,0.023    c1.208-0.054,2.384,0.167,3.569,0.349c2.773,0.426,5.401,0.115,7.607-1.816c1.104-0.966,2.401-1.645,3.567-2.52    c0.876-0.657,1.928-0.965,3.084-0.526c1.506,0.572,2.265,2.139,1.722,3.65c-0.162,0.453-0.448,0.777-0.829,1.03    c-0.936,0.622-1.881,1.223-2.677,2.041c-0.302,0.309-0.749,0.499-1.16,0.67c-1.356,0.568-1.89,1.757-2.304,3.021    c-0.172,0.525-0.047,1.041,0.4,1.435c0.225,0.198,0.41,0.451,0.657,0.614c1.42,0.94,2.262,2.28,2.64,3.905    c0.372,1.597,0.537,3.239,1.003,4.818c0.364,1.237,0.191,2.529,0.383,3.791c0.129,0.856,0.253,1.696,0.53,2.514    c0.084,0.249,0.194,0.493,0.243,0.749c0.282,1.475,0.881,2.66,2.467,3.15c0.471,0.146,0.859,0.587,1.263,0.922    c0.418,0.346,0.694,0.791,0.722,1.352c0.124,2.586,1.195,4.847,2.435,7.043c0.675,1.196,0.785,2.481,0.731,3.809    c-0.017,0.429-0.241,0.679-0.604,0.869c-0.643,0.339-1.331,0.526-2.042,0.576c-0.747,0.054-1.502-0.002-2.252,0.024    c-0.638,0.023-0.998-0.3-1.13-0.872c-0.116-0.509-0.334-1.008-0.287-1.543c0.138-1.575-0.521-2.979-0.94-4.435    c-0.021-0.071-0.079-0.136-0.086-0.207c-0.186-1.822-1.738-2.492-2.929-3.459c-0.332-0.27-0.585-0.123-0.546,0.31    c0.114,1.246-0.242,2.456-0.245,3.695c-0.002,1.057-0.298,2.075-0.681,3.057c-0.257,0.657-0.742,0.982-1.478,0.991    c-1.288,0.015-2.544-0.207-3.766-0.555c-1.397-0.397-1.675-1.407-0.638-2.43c0.873-0.86,1.414-1.817,1.555-3.027    c0.041-0.354,0.031-0.682-0.162-0.973c-0.496-0.748-0.947-1.523-1.577-2.184c-1.22-1.28-2.566-2.403-3.957-3.49    c-1.623-1.269-3.145-2.649-4.275-4.417c-0.337-0.526-0.867-0.93-1.324-1.374c-0.098-0.096-0.268-0.185-0.394-0.173    c-1.214,0.117-2.446-0.04-3.647,0.316c-1.77,0.525-3.597,0.688-5.437,0.72c-0.899,0.016-1.799,0.151-2.673,0.294    c-1.039,0.169-2.095,0.073-3.123,0.34c-0.458,0.119-0.969,0.063-1.452-0.054c-0.253-0.062-0.516-0.114-0.775-0.118    c-0.712-0.01-1.444-0.093-2.132,0.039c-0.829,0.158-0.562,1.124-0.97,1.653c-0.466,0.604-0.825,1.336-0.709,2.187    c0.047,0.342-0.12,0.658-0.298,0.951C40.585,66.593,40.908,66.127,40.866,68.724z"/>
	</g>
</g>
</svg>