<svg xmlns="http://www.w3.org/2000/svg" xmlns:xlink="http://www.w3.org/1999/xlink" version="1.1" id="Layer_1" x="0px" y="0px" width="100px" height="100px" viewBox="0 0 100 100" enable-background="new 0 0 100 100" xml:space="preserve">
<g>
	<g>
		<path fill="none" d="M50.905,91.034c-15.859,0-31.719-0.027-47.578,0.044c-1.543,0.007-1.857-0.312-1.854-1.854    c0.061-25.513,0.061-51.026,0-76.539c-0.004-1.542,0.311-1.855,1.853-1.853c31.719,0.057,63.438,0.057,95.156,0    c1.542-0.003,1.856,0.31,1.853,1.853c-0.061,25.513-0.061,51.026,0,76.539c0.004,1.542-0.31,1.86-1.853,1.854    C82.624,91.007,66.765,91.034,50.905,91.034z M23.695,78.482c0,0.603-0.005,1.205,0.001,1.808    c0.043,3.973,0.426,4.363,4.357,4.732c1.197,0.112,2.431,0.225,3.561,0.6c4.837,1.609,9.702,0.944,14.573,0.328    c0.955-0.121,1.985-0.369,2.545-1.138c1.475-2.024,3.501-2.178,5.731-2.137c1.275,0.023,2.554-0.349,3.835-0.505    c4.15-0.507,8.259-1.653,12.448,0.162c2.024,0.876,4.267,0.209,6.341-0.392c2.85-0.825,6.141,0.146,7.976,2.535    c0.556,0.723,1.293,0.842,2.062,0.815c1.461-0.052,2.917-0.215,4.377-0.301c4.071-0.238,5.771-2.036,5.778-6.223    c0.004-2.138,0.007-4.283-0.171-6.41c-0.087-1.046,0.659-1.854,0.334-3.001c-1.15-4.056-2.968-7.771-5.056-11.409    c-1.417-2.471-2.77-4.916-4.795-6.993c-2.435-2.497-5.049-4.971-4.741-8.998c0.52-6.801-3.119-12.176-6.241-17.71    c-0.325-0.577-0.781-1.287-1.597-1.056c-0.95,0.269-0.884,1.204-0.88,1.948c0.011,2.075,0.315,4.122,0.883,6.118    c0.811,2.85,1.089,5.742,0.793,8.689c-0.196,1.955-0.85,3.548-3.114,3.797c-6.092,0.667-12.176,0.611-18.259-0.162    c-2.485-0.316-4.458-1.476-6.406-3.043c-6.157-4.954-10.294-11.546-14.72-17.878c-1.652-2.363-3.996-4.344-4.687-7.352    c-0.167-0.728-0.304-1.818-1.122-1.875c-1.138-0.079-0.602,1.187-0.952,1.788c-0.552,0.945-0.668,2.497-1.772,2.671    c-1.103,0.174-1.787-1.094-2.383-2.042c-0.48-0.763-0.757-2.083-1.913-1.691c-0.927,0.315-0.881,1.57-0.979,2.502    c-0.062,0.598-0.04,1.205-0.041,1.808c-0.008,3.649-1.523,5.922-5.024,7.224c-1.497,0.557-2.663,1.567-3.958,2.403    c-0.439,0.284-0.866,0.668-0.791,1.239c0.082,0.627,0.628,0.729,1.168,0.778c2.642,0.242,1.735,1.503,0.695,2.646    c-2.082,2.289-4.178,4.571-6.372,6.751c-2.417,2.403-1.755,5.495-1.41,8.168c0.146,1.135,0.746,3.526,2.196,4.044    c2.945,1.053,4.7,3.377,6.882,5.272c2.283,1.983,6.25,1.166,7.368-1.674c1.125-2.857,2.349-5.766,1.759-9.009    c-0.141-0.77-0.497-1.946,0.812-2.027c1.121-0.069,1.233,1.015,1.324,1.875c0.612,5.796,1.747,11.539,0.068,17.411    C22.789,68.437,23.873,73.507,23.695,78.482z"/>
		<path fill-rule="evenodd" clip-rule="evenodd" d="M23.695,78.482c0.177-4.976-0.906-10.046,0.483-14.911    c1.678-5.872,0.544-11.614-0.068-17.411c-0.091-0.86-0.203-1.944-1.324-1.875c-1.309,0.081-0.953,1.257-0.812,2.027    c0.59,3.244-0.634,6.152-1.759,9.009c-1.118,2.84-5.085,3.657-7.368,1.674c-2.182-1.896-3.937-4.22-6.882-5.272    c-1.45-0.518-2.05-2.909-2.196-4.044c-0.345-2.674-1.007-5.765,1.41-8.168c2.194-2.18,4.29-4.462,6.372-6.751    c1.04-1.143,1.946-2.404-0.695-2.646c-0.54-0.049-1.086-0.151-1.168-0.778c-0.075-0.571,0.352-0.956,0.791-1.239    c1.296-0.836,2.462-1.847,3.958-2.403c3.5-1.302,5.016-3.575,5.024-7.224c0.001-0.603-0.021-1.21,0.041-1.808    c0.097-0.933,0.051-2.188,0.979-2.502c1.156-0.393,1.433,0.928,1.913,1.691c0.597,0.948,1.28,2.217,2.383,2.042    c1.104-0.175,1.221-1.726,1.772-2.671c0.35-0.601-0.186-1.866,0.952-1.788c0.818,0.057,0.955,1.147,1.122,1.875    c0.691,3.008,3.035,4.989,4.687,7.352c4.426,6.332,8.562,12.924,14.72,17.878c1.949,1.568,3.921,2.727,6.406,3.043    c6.083,0.773,12.167,0.829,18.259,0.162c2.265-0.249,2.918-1.842,3.114-3.797c0.296-2.947,0.018-5.839-0.793-8.689    c-0.567-1.996-0.872-4.043-0.883-6.118c-0.004-0.744-0.07-1.679,0.88-1.948c0.815-0.231,1.271,0.479,1.597,1.056    c3.122,5.534,6.761,10.909,6.241,17.71c-0.308,4.027,2.307,6.501,4.741,8.998c2.025,2.077,3.378,4.522,4.795,6.993    c2.088,3.639,3.905,7.354,5.056,11.409c0.325,1.147-0.421,1.955-0.334,3.001c0.178,2.127,0.175,4.272,0.171,6.41    c-0.007,4.187-1.707,5.984-5.778,6.223c-1.46,0.086-2.916,0.249-4.377,0.301c-0.769,0.026-1.506-0.093-2.062-0.815    c-1.835-2.39-5.126-3.36-7.976-2.535c-2.074,0.601-4.316,1.268-6.341,0.392c-4.189-1.815-8.298-0.669-12.448-0.162    c-1.281,0.156-2.56,0.528-3.835,0.505c-2.23-0.041-4.256,0.112-5.731,2.137c-0.56,0.769-1.59,1.017-2.545,1.138    c-4.871,0.616-9.736,1.281-14.573-0.328c-1.13-0.375-2.364-0.487-3.561-0.6c-3.931-0.369-4.314-0.76-4.357-4.732    C23.69,79.688,23.695,79.085,23.695,78.482z"/>
	</g>
</g>
</svg>