<svg xmlns="http://www.w3.org/2000/svg" xmlns:xlink="http://www.w3.org/1999/xlink" version="1.1" id="Layer_1" x="0px" y="0px" width="100px" height="100px" viewBox="0 0 100 100" enable-background="new 0 0 100 100" xml:space="preserve">
<path fill-rule="evenodd" clip-rule="evenodd" d="M97.745,89.188c-1.17-5.812-1.44-11.804-4.854-17.091  c-1.493-2.312-1.718-5.432-2.582-8.163c-0.975-3.097-1.271-6.226-0.936-9.47c0.222-2.115,1.079-4.271,0-6.405  c-1.213-2.399-2.2-4.942-4.29-6.78c-0.965-0.852-1.203-1.761-0.724-3.016c0.678-1.79,1.128-3.664,0.984-5.607  c-0.071-1.033-0.032-2.161-1.705-1.852c-1.026,0.189-1.493-0.414-1.679-1.479c-0.365-2.067-1.503-3.459-3.778-3.671  c-0.563-0.052-1.177-0.283-1.626-0.623c-0.818-0.612-1.871-1.177-1.507-2.513c0.108-0.392,1.493,0.326,0.782-0.841  c-0.403-0.669-1.004-0.63-1.577-0.242c-0.812,0.555-1.663,0.203-2.507,0.238c-1.525,0.062-3.152,0.137-4.492,0.743  c-0.434,0.199-0.838,1.22-1.718,1.715c-3.866,2.181-4.512,3.851-3.423,8.28c0.225,0.929,0.052,1.489-0.789,1.457  c-4.883-0.186-9.955,1.138-14.503-1.803c-1.262-0.812-2.657-1.291-4.189-1.258c-2.281,0.049-3.999-0.92-5.192-2.866  c-2.083-3.399-4.225-6.767-6.263-10.196c-2.164-3.639-4.753-6.85-8.43-9.069c-1.082-0.651-2.562-1.46-3.357-0.531  c-1.663,1.939-2.843,0.665-4.222-0.095c-1.066-0.586-2.112-1.229-3.224-1.711c-1.376-0.6-2.55-0.068-2.054,1.431  c0.958,2.921-0.229,5.278-1.033,7.935c-0.91,2.993-2.325,5.154-5.135,6.448c-1.659,0.763-1.643,1.9-0.89,3.426  c1.346,2.726,3.706,3.7,6.441,4.307c1.522,0.339,3.504,0.358,3.514,2.692c0.023,5.5,2.781,10.327,3.798,15.599  c1.018,5.255,2.843,10.35,3.918,15.599c1.047,5.095,1.513,10.308,2.399,15.441c0.358,2.097,0.3,4.111,0.124,6.21  c-0.229,2.811-2.314,3.378-4.312,4.222c-0.678,0.287-1.105,0.88-1.014,1.666c0.091,0.812,3.872,2.158,5.114,2.539  c5.506,1.695,8.965-0.055,10.631-5.489c1.867-6.083,2.197-12.437,3.143-18.679c0.527-3.495,0.681-3.674,4.101-3.527  c5.682,0.244,10.91-1.379,16.143-3.371c1.812-0.688,3.668-2.458,5.858-1.307c2.897,1.521,5.496,3.429,6.992,6.52  c1.46,3.019,3.862,5.287,6.135,7.687c2.106,2.227,3.771,4.736,3.814,8.059c0.035,2.745-1.093,4.577-3.452,5.896  c-0.76,0.428-1.21,1.624-0.219,2.188c1.91,1.086,4.059,0.77,6.109,0.313c1.626-0.365,2.164-1.709,2.203-3.172  c0.156-5.725,1.669-11.645-2.236-16.838c-0.137-0.182-0.124-0.485-0.234-0.978c0.997-0.013,1.711,0.401,2.034,0.899  c2.275,3.473,5.698,6.047,7.455,9.963c1.503,3.348,2.151,6.415-0.655,9.362c-0.873,0.922-1.121,2.037,0.241,2.48  c1.895,0.616,4.049,0.851,5.815-0.163C98.361,92.742,98.078,90.842,97.745,89.188z M28.598,77.036  c-0.078,4.994-0.613,9.114-1.22,10.291c0,0,1.147-5.594,0.121-11.875c-1.027-6.278,0.877-9.666,0.877-9.666  S28.672,72.039,28.598,77.036z"/>
</svg>