<svg xmlns="http://www.w3.org/2000/svg" xmlns:xlink="http://www.w3.org/1999/xlink" version="1.1" id="Layer_1" x="0px" y="0px" width="100px" height="100px" viewBox="0 0 100 100" enable-background="new 0 0 100 100" xml:space="preserve">
<g>
	<g>
		<path fill="none" d="M51.266,92.511c-15.741,0-31.482-0.018-47.224,0.032c-1.277,0.005-1.566-0.287-1.564-1.564    c0.043-26.377,0.043-52.753,0-79.131c-0.002-1.276,0.288-1.565,1.564-1.564c31.482,0.042,62.965,0.042,94.447,0    c1.276-0.001,1.565,0.288,1.563,1.564c-0.043,26.377-0.043,52.754,0,79.131c0.002,1.277-0.287,1.569-1.563,1.564    C82.748,92.493,67.007,92.511,51.266,92.511z M40.366,74.811c-0.16-1.887-0.187-4.086-0.01-6.293    c0.091-1.138,0.404-1.829,1.659-2.174c2.854-0.781,5.625-1.86,8.48-2.635c2.53-0.686,5.055-1.496,7.75-1.371    c1.34,0.063,2.653,0.369,3.479,1.344c2.325,2.744,4.505,5.612,6.714,8.454c1.7,2.188,3.144,4.58,6.205,5.257    c1.273,0.281,2.504,1,3.511,1.951c0.85,0.803,1.269,1.66,0.936,2.912c-0.496,1.859,0.144,2.764,2.006,3.347    c1.361,0.426,2.676,0.336,3.992-0.151c0.701-0.26,1.405-0.687,2.057,0.147c0.551,0.705,0.399,1.337,0.104,2.123    c-0.685,1.825-0.028,3.019,1.891,3.223c2.365,0.251,4.816,0.489,6.479-1.88c0.233-0.334,0.641-0.55,0.979-0.804    c2.081-1.559,2.479-3.226,1.149-5.439c-0.402-0.669-0.525-1.452-0.879-2.044c-1.206-2.021-1.682-4.372-3.949-5.938    c-1.946-1.344-4.103-2.774-5.444-4.905c-2.815-4.478-5.086-9.258-6.391-14.356c-0.846-3.311-1.942-6.293-4.363-8.732    c-0.96-0.967-1.256-2.121-1-3.505c0.434-2.344-0.537-3.264-2.962-2.755c-1.363,0.287-2.701,0.317-4.053,0.168    c-5.814-0.643-11.646-1.172-17.433-2.012c-6.567-0.953-12.35-3.425-16.265-9.229c-1.89-2.801-4.001-5.461-6.132-8.087    c-0.841-1.037-1.713-2.147-2.953-2.777c-1.352-0.687-2.198-1.824-3.007-3.035c-0.517-0.773-1.065-1.54-1.704-2.212    c-0.487-0.513-0.919-1.451-1.813-1.062c-0.701,0.305-0.248,1.042-0.176,1.605c0.019,0.151-0.071,0.455-0.115,0.456    c-2.435,0.041-0.953,1.421-0.72,2.255c0.208,0.743,0.25,1.301-0.466,1.761c-1.426,0.916-2.746,2.065-4.277,2.732    c-2.03,0.885-3.4,2.298-4.132,4.262c-0.575,1.543-1.521,2.626-2.912,3.362C4.96,29.641,4.09,30.72,5.027,32.664    c0.227,0.471-0.024,1.16-0.006,1.748c0.028,0.933-0.14,1.963,0.197,2.778c0.91,2.205,1.467,4.447,1.505,6.827    c0.017,1.058,0.69,1.711,1.511,2.217c0.646,0.398,1.326,0.749,2.012,1.075c2.124,1.013,2.964,0.812,4.144-1.248    c1.827-3.191,3.866-6.315,3.687-10.256c-0.032-0.699,0.735-1.106,1.242-1.54c0.419-0.36,0.752-0.194,0.954,0.316    c1.146,2.909,2.728,5.63,3.132,8.842c0.351,2.79,0.201,5.626,0.664,8.363c0.847,4.999,2.351,9.872,2.989,14.931    c0.235,1.866,0.413,3.662,0.162,5.546c-0.348,2.602-0.497,5.235,0.096,7.844c0.273,1.205,0.251,2.218-0.863,3.194    c-1.247,1.094-1.067,2.364-0.496,3.938c0.771,2.124,2.559,2.395,4.287,2.564c5.19,0.508,8.146-0.504,9.4-5.362    C40.453,81.307,40.286,78.242,40.366,74.811z"/>
		<path fill-rule="evenodd" clip-rule="evenodd" d="M40.366,74.811c-0.08,3.432,0.087,6.496-0.722,9.632    c-1.255,4.858-4.21,5.87-9.4,5.362c-1.728-0.17-3.515-0.44-4.287-2.564c-0.572-1.574-0.751-2.845,0.496-3.938    c1.114-0.977,1.137-1.989,0.863-3.194c-0.593-2.608-0.444-5.242-0.096-7.844c0.251-1.884,0.074-3.68-0.162-5.546    c-0.638-5.059-2.142-9.932-2.989-14.931c-0.463-2.737-0.313-5.573-0.664-8.363c-0.404-3.212-1.986-5.933-3.132-8.842    c-0.201-0.51-0.534-0.676-0.954-0.316c-0.507,0.434-1.273,0.841-1.242,1.54c0.179,3.941-1.86,7.065-3.687,10.256    c-1.18,2.06-2.021,2.26-4.144,1.248c-0.686-0.327-1.366-0.677-2.012-1.075c-0.821-0.506-1.495-1.159-1.511-2.217    c-0.038-2.38-0.595-4.623-1.505-6.827c-0.336-0.815-0.168-1.845-0.197-2.778c-0.019-0.588,0.233-1.277,0.006-1.748    C4.09,30.72,4.96,29.641,6.603,28.773c1.391-0.735,2.337-1.818,2.912-3.362c0.731-1.964,2.102-3.377,4.132-4.262    c1.531-0.667,2.851-1.817,4.277-2.732c0.716-0.459,0.674-1.018,0.466-1.761c-0.232-0.834-1.714-2.214,0.72-2.255    c0.044,0,0.134-0.304,0.115-0.456c-0.072-0.563-0.525-1.3,0.176-1.605c0.895-0.389,1.326,0.549,1.813,1.062    c0.638,0.672,1.187,1.438,1.704,2.212c0.809,1.211,1.655,2.348,3.007,3.035c1.24,0.63,2.112,1.74,2.953,2.777    c2.131,2.626,4.243,5.286,6.132,8.087c3.915,5.805,9.698,8.277,16.265,9.229c5.787,0.839,11.618,1.369,17.433,2.012    c1.352,0.149,2.689,0.118,4.053-0.168c2.425-0.509,3.396,0.411,2.962,2.755c-0.256,1.384,0.04,2.538,1,3.505    c2.421,2.439,3.518,5.421,4.363,8.732c1.305,5.099,3.575,9.879,6.391,14.356c1.342,2.131,3.498,3.562,5.444,4.905    c2.268,1.565,2.743,3.916,3.949,5.938c0.354,0.592,0.477,1.375,0.879,2.044c1.329,2.214,0.932,3.881-1.149,5.439    c-0.339,0.254-0.746,0.47-0.979,0.804c-1.663,2.369-4.114,2.131-6.479,1.88c-1.919-0.204-2.575-1.397-1.891-3.223    c0.295-0.786,0.446-1.418-0.104-2.123c-0.651-0.834-1.355-0.407-2.057-0.147c-1.316,0.487-2.631,0.577-3.992,0.151    c-1.862-0.583-2.502-1.487-2.006-3.347c0.333-1.252-0.086-2.109-0.936-2.912c-1.007-0.951-2.237-1.67-3.511-1.951    c-3.062-0.677-4.505-3.068-6.205-5.257c-2.209-2.842-4.389-5.71-6.714-8.454c-0.825-0.975-2.139-1.28-3.479-1.344    c-2.695-0.125-5.221,0.686-7.75,1.371c-2.855,0.774-5.627,1.854-8.48,2.635c-1.255,0.345-1.568,1.036-1.659,2.174    C40.179,70.725,40.206,72.924,40.366,74.811z"/>
	</g>
</g>
</svg>