<svg xmlns="http://www.w3.org/2000/svg" xmlns:xlink="http://www.w3.org/1999/xlink" version="1.1" x="0px" y="0px" width="100px" height="100px" viewBox="0 0 100 100" enable-background="new 0 0 100 100" xml:space="preserve">
<g id="Captions">
	<rect x="-192" width="185" height="99"/>
	<rect y="-36" width="100" height="30"/>
	<text transform="matrix(1 0 0 1 66 -19.5)" fill="#000000" font-family="'Helvetica'" font-size="2.4">http://thenounproject.com</text>
	<text transform="matrix(1 0 0 1 7.166 -24.5)"><tspan x="0" y="0" fill="#000000" font-family="'Helvetica-Bold'" font-size="6.1578">The Noun Project</tspan><tspan x="1.12" y="4.8" fill="#000000" font-family="'Helvetica-Bold'" font-size="4">Icon Template</tspan></text>
	<text transform="matrix(1 0 0 1 -178.5 10.5)" fill="#000000" font-family="'Helvetica-Bold'" font-size="6.1578">Reminders</text>
	<line fill="#000000" stroke="#FFFFFF" stroke-miterlimit="10" x1="8" y1="-14.5" x2="18" y2="-14.5"/>
	<line fill="#000000" stroke="#FFFFFF" stroke-miterlimit="10" x1="-179" y1="16.5" x2="-162" y2="16.5"/>
	<g>
		<g>
			<g>
				<rect x="-170.802" y="31.318" fill="#000000" width="8.721" height="8.642"/>
				<path fill="#000000" d="M-164.455,42.312h4.747v-4.703h-4.747V42.312z M-159.266,42.749h-5.63V37.17h5.63V42.749      L-159.266,42.749z M-166.221,44.062h8.279v-8.203h-8.279V44.062L-166.221,44.062z M-157.5,44.5h-9.163v-9.079h9.163V44.5      L-157.5,44.5z"/>
				<polygon fill="#000000" points="-166.149,44.133 -166.292,43.991 -158.013,35.787 -157.871,35.929     "/>
			</g>
		</g>
	</g>
	<rect x="-179" y="58" fill="none" width="35" height="32.5"/>
	<text transform="matrix(1 0 0 1 -179 60.1299)"><tspan x="0" y="0" fill="#000000" font-family="'Helvetica-Bold'" font-size="3">Strokes</tspan><tspan x="0" y="5" fill="#000000" font-family="'Helvetica'" font-size="2.4">Try to keep strokes at 4px</tspan><tspan x="0" y="10" fill="#000000" font-family="'Helvetica'" font-size="2.4">Minimum stroke weight is 2px</tspan><tspan x="0" y="14.5" fill="#000000" font-family="'Helvetica'" font-size="2.4">For thicker strokes use even </tspan><tspan x="0" y="17.5" fill="#000000" font-family="'Helvetica'" font-size="2.4">numbers: 6px, 8px etc.</tspan><tspan x="0" y="22" fill="#000000" font-family="'Helvetica-Bold'" font-size="2.4">Remember to expand strokes </tspan><tspan x="0" y="25" fill="#000000" font-family="'Helvetica-Bold'" font-size="2.4">before saving as an SVG </tspan></text>
	<rect x="-136.5" y="58" fill="none" width="35" height="32.5"/>
	<text transform="matrix(1 0 0 1 -136.5 60.1299)"><tspan x="0" y="0" fill="#000000" font-family="'Helvetica-Bold'" font-size="3">Size</tspan><tspan x="0" y="5" fill="#000000" font-family="'Helvetica'" font-size="2.4">Cannot be wider or taller than </tspan><tspan x="0" y="8.5" fill="#000000" font-family="'Helvetica'" font-size="2.4">100px (artboard size)</tspan><tspan x="0" y="13.5" fill="#000000" font-family="'Helvetica'" font-size="2.4">Scale your icon to fill as much of </tspan><tspan x="0" y="16.5" fill="#000000" font-family="'Helvetica'" font-size="2.4">the artboard as possible</tspan></text>
	<rect x="-94" y="58" fill="none" width="35" height="32.5"/>
	<text transform="matrix(1 0 0 1 -94 60.1299)"><tspan x="0" y="0" fill="#000000" font-family="'Helvetica-Bold'" font-size="3">Ungroup</tspan><tspan x="0" y="5" fill="#000000" font-family="'Helvetica'" font-size="2.4">If your design has more than one </tspan><tspan x="0" y="8" fill="#000000" font-family="'Helvetica'" font-size="2.4">shape, make sure to ungroup</tspan></text>
	<rect x="-50" y="58" fill="none" width="35" height="32.5"/>
	<text transform="matrix(1 0 0 1 -50 60.1299)"><tspan x="0" y="0" fill="#000000" font-family="'Helvetica-Bold'" font-size="3">Save as</tspan><tspan x="0" y="5" fill="#000000" font-family="'Helvetica'" font-size="2.4">Save as .SVG and make sure </tspan><tspan x="0" y="8" fill="#000000" font-family="'Helvetica'" font-size="2.4">&#8220;Use Artboards&#8221; is checked</tspan></text>
	<text transform="matrix(1.0074 0 0 1 -125.542 30.5933)" fill="#000000" font-family="'Helvetica'" font-size="2.5731">100px</text>
	<text transform="matrix(1.0074 0 0 1 -41 39)" fill="#000000" font-family="'Helvetica-Bold'" font-size="5.1462">.SVG</text>
	<rect x="-126.514" y="34.815" fill="#000000" width="10.261" height="10.185"/>
	<rect x="-126.477" y="31.766" fill="#000000" width="0.522" height="2.337"/>
	<rect x="-116.813" y="31.766" fill="#000000" width="0.523" height="2.337"/>
	<rect x="-127" y="32.337" fill="#000000" width="11.233" height="0.572"/>
	<g>
		<rect x="-83.805" y="33.844" fill="#000000" width="10.305" height="10.156"/>
		<rect x="-76.809" y="28.707" fill="#000000" width="3.308" height="3.261"/>
	</g>
	<rect x="-178.5" y="22.5" fill="#000000" stroke="#FFFFFF" stroke-miterlimit="10" width="30" height="30"/>
	<rect x="-136.5" y="22.5" fill="#000000" stroke="#FFFFFF" stroke-miterlimit="10" width="30" height="30"/>
	<rect x="-93.5" y="22.5" fill="#000000" stroke="#FFFFFF" stroke-miterlimit="10" width="30" height="30"/>
	<rect x="-49.5" y="22.5" fill="#000000" stroke="#FFFFFF" stroke-miterlimit="10" width="30" height="30"/>
</g>
<g id="Your_Icon">
	<path d="M56.055,61.534l-1.306-1.047l-4.467-3.582c-2.237,0.663-4.551,0.998-6.908,0.998c-5.477,0-10.85-1.889-15.13-5.319   c-5.052-4.049-8.225-9.822-8.933-16.256c-0.304-2.758-0.136-5.496,0.47-8.122c-4.141,5.671-5.225,13.332-2.153,20.201   c3.107,6.947,9.646,11.27,16.722,11.891l3.243,7.25l8.388,3.148l-2.499,6.422l6.45,2.418l-2.499,6.426l6.562,2.459l-2.605,6.688   l0.083,0.098l11.3,4.23c1.289,0.488,2.155,0.16,2.706-1.254l3.525-9.043l-12.37-27.672L56.055,61.534z"/>
	<path fill="#000000" stroke="#000000" stroke-width="0.238" stroke-miterlimit="10" d="M36.694,27.896"/>
	<path d="M20.919,1C14.8,1,9.327,3.903,5.717,8.447c-2.79,3.508-4.467,7.996-4.467,12.88c0,7.834,4.32,14.636,10.622,18.027   c0.062-1.849,0.334-3.696,0.827-5.51c-3.81-2.742-6.316-7.328-6.316-12.517c0-3.548,1.22-6.776,3.178-9.365   c2.665-3.524,6.741-5.83,11.359-5.83c8.015,0,14.538,6.816,14.538,15.195c0,2.014-0.582,3.901-1.118,5.659   c-0.372,1.219,0.002,0.001,0.002,0.001c-0.415,1.038-0.139,2.267,0.776,3.001c0.589,0.472,1.207,0.57,1.62,0.57   c0.801,0,1.546-0.355,2.042-0.974c0.255-0.318,0.414-0.679,0.499-1.052c0.832-2.242,1.31-4.665,1.31-7.206   C40.588,10.118,31.764,1,20.919,1z"/>
	<g>
		<path d="M96.056,71.865l-1-9.656l-31.68-25.393c1.083-6.93-1.453-14.229-7.32-18.934c-3.764-3.017-8.275-4.461-12.75-4.438    c0.827,2.474,1.282,5.124,1.282,7.882c0,2.845-0.499,5.667-1.484,8.392c-0.24,0.874-0.644,1.668-1.203,2.367    c-1.259,1.572-3.141,2.473-5.164,2.473c-1.512,0-2.937-0.5-4.123-1.45c-1.799-1.443-2.692-3.671-2.415-5.935    c0.022-0.24,0.066-0.492,0.135-0.756l0.009-0.043l0.011-0.036c0.051-0.199,0.11-0.397,0.179-0.591    c0.475-1.558,0.922-3.03,0.922-4.421c0-1.242-0.199-2.433-0.552-3.55c-1.19,0.938-2.303,2.007-3.291,3.24    c-6.993,8.723-5.588,21.457,3.132,28.446c5.937,4.758,13.73,5.62,20.311,2.936l6.195,4.969l8.9-1.039l0.708,6.855l6.847-0.797    l0.711,6.855l6.963-0.813l0.738,7.145l0.121,0.043l11.98-1.4C95.592,74.057,96.212,73.379,96.056,71.865z"/>
	</g>
</g>
</svg>