<svg xmlns="http://www.w3.org/2000/svg" xmlns:xlink="http://www.w3.org/1999/xlink" version="1.1" id="Layer_1" x="0px" y="0px" width="100px" height="100px" viewBox="0 0 100 100" enable-background="new 0 0 100 100" xml:space="preserve">
<path d="M49.8,0C22.297,0,0,22.296,0,49.8c0,27.503,22.297,49.8,49.8,49.8c27.501,0,49.801-22.297,49.801-49.8  C99.602,22.296,77.302,0,49.8,0z M56.806,55.437c-11.968,0-21.669-9.699-21.669-21.667c0-11.966,9.702-21.667,21.669-21.667  c11.965,0,21.668,9.701,21.668,21.667C78.474,45.737,68.771,55.437,56.806,55.437z"/>
<g>
	<path d="M46.883,22.33c0.585-1.163,1.375-2.152,2.372-2.967c0.997-0.813,2.139-1.449,3.425-1.906   c1.282-0.457,2.596-0.727,3.938-0.812c2.027-0.128,3.759,0.076,5.202,0.61c1.44,0.535,2.618,1.219,3.534,2.053   c0.91,0.833,1.588,1.747,2.024,2.736c0.439,0.989,0.684,1.888,0.735,2.699c0.102,1.621-0.207,3.064-0.923,4.329   c-0.719,1.265-1.855,2.214-3.413,2.845l0.007,0.094c1.99,0.313,3.562,1.144,4.713,2.494c1.148,1.354,1.787,3.058,1.917,5.114   c0.109,1.747-0.143,3.279-0.765,4.602c-0.622,1.323-1.479,2.44-2.58,3.355c-1.101,0.914-2.369,1.629-3.81,2.143   c-1.44,0.513-2.92,0.818-4.446,0.914c-1.592,0.101-3.139,0.004-4.644-0.292c-1.506-0.296-2.869-0.829-4.09-1.596   c-1.222-0.768-2.226-1.767-3.008-3.002c-0.78-1.233-1.229-2.738-1.341-4.516c-0.132-2.088,0.293-3.867,1.281-5.338   s2.447-2.502,4.38-3.094L51.39,32.7c-1.618-0.335-2.871-1.086-3.757-2.251c-0.89-1.164-1.384-2.556-1.484-4.176   C46.055,24.807,46.299,23.493,46.883,22.33z M53.917,29.606c1.043,0.67,2.235,0.963,3.575,0.877   c1.402-0.088,2.549-0.528,3.438-1.32c0.891-0.792,1.289-1.89,1.199-3.292c-0.027-0.437-0.118-0.908-0.278-1.415   c-0.153-0.506-0.429-0.981-0.814-1.426c-0.389-0.445-0.911-0.803-1.572-1.075c-0.658-0.271-1.502-0.374-2.529-0.31   c-0.656,0.042-1.28,0.183-1.876,0.425c-0.595,0.241-1.114,0.563-1.558,0.966c-0.444,0.403-0.78,0.894-1.009,1.472   c-0.231,0.579-0.323,1.24-0.274,1.989C52.307,27.901,52.874,28.938,53.917,29.606z M52.964,42.74   c0.354,0.666,0.804,1.224,1.349,1.676c0.545,0.451,1.184,0.787,1.917,1.005c0.734,0.22,1.491,0.306,2.271,0.256   c0.81-0.051,1.542-0.231,2.194-0.539c0.651-0.306,1.222-0.719,1.706-1.234c0.485-0.517,0.845-1.126,1.082-1.829   c0.237-0.704,0.329-1.46,0.279-2.272c-0.05-0.778-0.242-1.478-0.581-2.099c-0.335-0.62-0.775-1.148-1.318-1.583   c-0.544-0.435-1.16-0.755-1.848-0.961c-0.684-0.208-1.418-0.287-2.196-0.238c-1.62,0.102-2.964,0.633-4.03,1.592   c-1.066,0.961-1.545,2.281-1.439,3.963C52.404,41.321,52.606,42.076,52.964,42.74z"/>
</g>
</svg>