<svg xmlns="http://www.w3.org/2000/svg" xmlns:xlink="http://www.w3.org/1999/xlink" version="1.1" id="Layer_1" x="0px" y="0px" width="100px" height="100px" viewBox="0 0 100 100" enable-background="new 0 0 100 100" xml:space="preserve">
<path fill="none" stroke="#000000" stroke-width="2" stroke-miterlimit="10" d="M39.52,22.553  c-0.031-0.564-3.486-7.033-2.647-13.571c0.302-2.358,1.676-7.687,5.56-6.152c0,0,0.53,0.14,1.413,0.069  c0.882-0.069,6.473,0.991,7.326,4.784c1.72,7.646-2.736,14.033-3.266,14.661c-0.531,0.627,2.23,0.541-3.443,0.139  C39.88,22.159,39.549,23.118,39.52,22.553z"/>
<path d="M37.433,18.429c0,0-0.718-0.066-2.679,0.98c-0.905,0.483-2.396,4.495-2.638,8.071c-0.208,3.07,0.264,5.156,0.264,5.72  c0,2.509,1.718,11.899,3.849,13.154c2.132,1.254,2.812-2.37,2.812-2.37s-1.188-4.155-2.078-7.137  c-0.244-0.817-0.843-2.824-0.934-3.091c-0.106-0.316-0.011-2.472,0.01-3.121c0.104-3.229,1.394-7.978,1.394-7.978V18.429z"/>
<path d="M42.095,13.108c0,0-0.209,1.674-0.608,3.66c-0.187,0.934-2.698,1.405-4.196,1.552c-3.595,0.352,0.642,14.604,2.067,17.545  c0,0,1.062,3.345-2.882,7.945s-3.026,10.824-0.91,13.892c0.833,1.207,2.478,9.517,2.881,10.779  c0.301,0.941,1.55,25.887,1.322,27.161c-0.759,4.239-2.197,3.29-0.798,3.507c1.82,0.277,5.955,0,5.955,0l0.105-4.81l-0.346-19.234  l0.265-14.433l-0.15-4.876l0.017-0.355l-0.22-42.228L42.095,13.108z"/>
<path d="M50.6,18.429c0,0,0.718-0.066,2.677,0.98c0.906,0.483,2.397,4.495,2.64,8.071c0.208,3.07-0.265,5.156-0.265,5.72  c0,2.509-1.717,11.899-3.85,13.154c-2.131,1.254-2.812-2.37-2.812-2.37s1.188-4.155,2.078-7.137  c0.243-0.817,0.844-2.824,0.934-3.091c0.107-0.316,0.011-2.472-0.009-3.121c-0.106-3.229-1.394-7.978-1.394-7.978V18.429z"/>
<path d="M45.937,13.108c0,0,0.209,1.674,0.607,3.66c0.188,0.934,2.698,1.405,4.196,1.552c3.595,0.352-0.641,14.604-2.065,17.545  c0,0-1.062,3.345,2.88,7.945c3.943,4.6,3.028,10.824,0.91,13.892c-0.833,1.207-2.477,9.517-2.88,10.779  c-0.3,0.941-1.55,25.887-1.323,27.161c0.761,4.239,2.198,3.29,0.798,3.507c-1.82,0.277-5.956,0-5.956,0L43,94.34l0.346-19.234  l-0.265-14.433l0.15-4.876l-0.016-0.355l0.22-42.228L45.937,13.108z"/>
<path fill="#000000" d="M43.363,24.086"/>
<path d="M54.214,46.354"/>
<path d="M53.012,17.918"/>
<path fill="#000000" d="M45.04,24.086"/>
<path d="M42.539,4.619c-2.182,0.723-3.767,2.894-3.767,5.459c0,3.157,2.398,5.716,5.356,5.716s5.357-2.559,5.357-5.716  c0-0.214-0.013-0.425-0.035-0.633C47.405,9.19,43.877,5.924,42.539,4.619z"/>
<path d="M20.576,46.354"/>
<path d="M67.818,46.354"/>
<path d="M67.737,46.354"/>
<path d="M66.409,46.354"/>
<path d="M66.409,46.354"/>
<path fill="#000000" d="M44.95,24.086"/>
<path fill="#000000" d="M43.651,24.086"/>
<path fill="#000000" d="M41.975,24.086"/>
<path fill="#000000" d="M42.064,24.086"/>
<path d="M67.737,46.354"/>
</svg>