<svg xmlns="http://www.w3.org/2000/svg" xmlns:xlink="http://www.w3.org/1999/xlink" version="1.1" id="Calque_1" x="0px" y="0px" width="100px" height="100px" viewBox="0 0 100 100" enable-background="new 0 0 100 100" xml:space="preserve">
<path fill="#000000" d="M99.352,57.495c0-1.565-2.105-3.297-3.809-3.318L92.69,42.195c-0.771-2.901-2.638-5.412-5.652-5.435H54.671  c-2.451,0.059-4.903,2.57-5.559,5.412l-1.993,8.392H37.093c-1.073,0-1.943,0.869-1.943,1.942c0,1.072,0.87,1.942,1.943,1.942h7.957  c-1.329,0.551-2.556,1.846-2.578,3.046L42.45,69.313c0.049,1.588,1.705,3.211,3.366,3.253v10.955  c-0.022,0.763,0.888,1.813,1.657,1.813h5.098c0.747,0,1.471-1.293,1.471-2.078V72.565h33.555l-0.043,10.75  c0,0.74,0.958,2.056,1.727,2.018h5.093c0.773,0.038,1.613-1.087,1.613-1.813V72.565c1.662-0.042,3.315-1.665,3.387-3.253  L99.352,57.495z M89.957,54.22l-23.009,0.013c0.004-0.708,0.009-1.427,0.009-1.726c0-1.073-0.869-1.942-1.942-1.942h-4.678v-1.454  c1.271-0.556,2.158-1.822,2.158-3.297c0-1.987-1.611-3.598-3.597-3.598c-1.988,0-3.6,1.611-3.6,3.598  c0,1.475,0.89,2.742,2.159,3.297v1.453h-6.209l1.977-8.062c0.185-0.741,1.169-1.688,1.796-1.688h31.85  c0.633,0,1.641,0.968,1.802,1.688l2.271,9.823C91.105,53.089,90.661,54.22,89.957,54.22z"/>
<rect x="24.211" y="50.235" fill="#000000" width="9.067" height="4.317"/>
<path fill="#000000" d="M0.463,12.22v73.114h22.165V12.22H0.463z M5.454,61.781V45.719l12.137,8.031L5.454,61.781z M5.454,35.587  V19.524l12.137,8.032L5.454,35.587z"/>
</svg>