<svg xmlns="http://www.w3.org/2000/svg" xmlns:xlink="http://www.w3.org/1999/xlink" version="1.1" id="Layer_1" x="0px" y="0px" width="43.125px" height="100px" viewBox="0 0 43.125 100" enable-background="new 0 0 43.125 100" xml:space="preserve">
<path d="M40.07,73.681c0.061-0.731-0.19-2.737-1.334-7.662c-2.48-10.687-12.212-12.976-12.212-12.976l-2.845-0.126l-0.399-1.4  l-1.717-0.382l-1.717,0.382l-0.399,1.4l-2.845,0.126c0,0-9.731,2.289-12.212,12.976c-1.143,4.925-1.395,6.931-1.333,7.662L0,73.842  l0.191,2.1c0,0,2.87-0.453,4.578,0.254c0.063,3.952,0.781,9.488,3.536,15.213C11.902,98.884,17.588,100,20.657,100  c0.303,0,0.607-0.011,0.906-0.032C21.861,99.99,22.166,100,22.468,100l0,0c3.069,0,8.755-1.117,12.353-8.592  c2.754-5.725,3.472-11.261,3.535-15.213c1.708-0.707,4.578-0.254,4.578-0.254l0.19-2.1L40.07,73.681z M26.12,56.322  c1.021-1.105,3.436-0.537,5.394,1.271c1.957,1.807,2.717,4.169,1.696,5.274c-1.021,1.105-3.436,0.537-5.394-1.271  C25.859,59.789,25.099,57.427,26.12,56.322z M33.665,90.853c-3.292,6.844-8.428,7.865-11.196,7.865  c-0.287,0-0.576-0.011-0.858-0.031l-0.047-0.004l-0.047,0.004c-0.282,0.021-0.571,0.031-0.858,0.031  c-2.768,0-7.904-1.022-11.197-7.865c-2.292-4.765-3.109-9.457-3.326-13.118c0.446,0.388,1.141,0.809,2.228,1.17  c2.311,1.378,7.352,2.334,13.201,2.334c5.848,0,10.889-0.956,13.201-2.334c1.087-0.361,1.782-0.782,2.228-1.17  C36.774,81.396,35.958,86.088,33.665,90.853z"/>
<path d="M11.761,82.746c0,0,6.633,0,7.99,1.658l1.356,7.085l-2.261,1.357l-0.904-6.482C17.941,86.364,12.364,87.118,11.761,82.746z"/>
<path d="M34.861,25.288l-2.504,1.113l-1.381-1.447l-0.181-0.16l-0.018-0.24l-0.312-1.976l2.405-1.314  c1.336-0.485,1.067-0.831-1.677-1.055c-2.744-0.224-2.715,2.805-3.151,3.976c-0.125,0.336-0.336,0.614-0.522,0.845l-6.302,3.769  l-7.144,4.185c-1.231-0.445-3.507-2.102-4.943,0.135c-1.488,2.317-1.376,2.741-0.179,1.972l2.504-1.113l1.381,1.448l0.18,0.159  l0.018,0.24l0.312,1.976l-2.404,1.315c-1.337,0.484-1.068,0.83,1.676,1.054c2.745,0.224,2.715-2.804,3.151-3.976  c0.125-0.336,0.337-0.614,0.523-0.845l6.302-3.769l7.144-4.186c1.232,0.445,3.508,2.102,4.944-0.135  C36.169,24.943,36.057,24.52,34.861,25.288z"/>
<rect x="13.887" y="8.818" width="1.356" height="18.088"/>
<rect x="22.479" y="4.974" width="1.357" height="18.089"/>
<rect x="18.184" width="1.356" height="18.088"/>
</svg>