<svg xmlns="http://www.w3.org/2000/svg" xmlns:xlink="http://www.w3.org/1999/xlink" version="1.1" id="Your_Icon" x="0px" y="0px" width="100px" height="100px" viewBox="0 0 100 100" enable-background="new 0 0 100 100" xml:space="preserve">
<g>
	<path fill="#000000" d="M66.625,47.875c-4.277-6.95-6.732-45.667-15.957-47.78C50.418,0.036,50.218,0,49.938,0   c-0.279,0-0.509,0.036-0.757,0.094c-9.229,2.102-12.043,40.83-16.321,47.781c-4,6.5-20.859,14.5-20.859,21.375v9.125l27,4.375V86   h1.875c0,0-0.5,4.938,6.125,4.938l3,9.031l3-9.047c6.624,0,6.126-4.922,6.126-4.922H61v-3.25l26-4.375V69.25   C87,62.375,70.625,54.375,66.625,47.875z M85,75H59v5.634v2.116V84h-2.645l0.282,2.567c0.001,0.007,0.001,0.857-0.454,1.362   C55.651,88.519,54.52,89,53,89h-1.844L50,70.5L48.844,89H47c-1.492,0-2.612-0.563-3.154-1.133c-0.457-0.48-0.48-1.054-0.479-1.202   L43.789,84H41v-1.25v-2.116V75H15v-5.75c0-2.807,5.948-7.4,10.291-10.755c4.151-3.207,8.071-6.235,9.964-9.31   c1.71-2.779,2.912-8.575,4.731-17.8c1.345-6.819,2.87-14.547,4.797-20.381c0.117-0.355,0.232-0.678,0.348-1.004h9.738   c0.115,0.326,0.23,0.648,0.348,1.004c1.928,5.834,3.452,13.562,4.797,20.381c1.82,9.226,3.021,15.021,4.732,17.8   c1.893,3.074,5.813,6.103,9.964,9.31C79.052,61.85,85,66.443,85,69.25V75z"/>
	<polygon fill="#000000" points="50,15 45,17.75 43.25,22.75 50,20 56.75,22.75 55,17.75  "/>
</g>
</svg>