<svg xmlns="http://www.w3.org/2000/svg" xmlns:xlink="http://www.w3.org/1999/xlink" version="1.1" id="Layer_1" x="0px" y="0px" width="100px" height="99.645px" viewBox="0 0 100 99.645" enable-background="new 0 0 100 99.645" xml:space="preserve">
<path d="M75.255,50.362c-3.749,11.203-6.814,23.099-8.74,31.175c1.786,0.714,3.563,1.449,5.708,1.449  c4.166,0,6.944-2.778,11.11-2.778c0.202,0,0.389,0.034,0.584,0.047c4.088-12.412,8.33-29.213,15.389-29.213  c0.384,0,0.694-0.311,0.694-0.695c0-0.384-0.311-0.694-0.694-0.694c-8.486,0-17.781,10.918-25.554,23.143  c1.801-6.797,3.934-14.193,6.248-21.127c2.386-0.322,4.473-2.004,5.175-4.466c0.941-3.293,3.294-9.125,5.355-11.187  c2.316-2.315,2.431-5.994,0.352-8.449c0.764-0.986,1.523-1.798,2.276-2.384c1.062-0.825,1.251-2.352,0.427-3.411  c-0.822-1.058-2.35-1.25-3.41-0.427c-1.237,0.962-2.463,2.333-3.669,4.021c-1.729-0.109-3.492,0.491-4.813,1.812  c-5.057,5.055-7.997,14.707-8.534,16.591C72.445,46.262,73.353,48.834,75.255,50.362z"/>
<path d="M83.333,88.533c-4.166,0-6.944,2.778-11.11,2.778c-4.167,0-6.945-2.778-11.111-2.778c-4.167,0-6.944,2.778-11.111,2.778  c-4.167,0-6.944-2.778-11.111-2.778c-4.167,0-6.944,2.778-11.111,2.778s-6.944-2.778-11.111-2.778  c-4.167,0-6.944,2.778-11.111,2.778c-2.083,0-3.819-0.692-5.556-1.387v8.334c1.736,0.694,3.472,1.386,5.556,1.386  c4.167,0,6.944-2.777,11.111-2.777c4.167,0,6.945,2.777,11.111,2.777s6.944-2.777,11.111-2.777c4.167,0,6.945,2.777,11.111,2.777  c4.167,0,6.944-2.777,11.111-2.777c4.166,0,6.944,2.777,11.111,2.777c4.166,0,6.944-2.777,11.11-2.777  c4.167,0,6.944,2.777,11.111,2.777c2.083,0,3.819-0.694,5.556-1.389v-8.333c-1.736,0.694-3.473,1.389-5.556,1.389  C90.277,91.312,87.5,88.533,83.333,88.533z"/>
<path d="M0.694,62.152c5.071,0.846,9.46,10.104,13.63,18.364c0.743-0.178,1.51-0.309,2.342-0.309c4.167,0,6.945,2.778,11.111,2.778  c2.274,0,4.136-0.825,6.034-1.576c-1.599-7.267-4.135-17.503-7.531-27.239c1.656-1.582,2.382-4.014,1.665-6.352  c-0.767-2.498-3.558-10.943-7.276-14.662c-1.554-1.557-3.724-2.118-5.727-1.693c-1.719-2.092-3.535-3.735-5.446-4.778  c-1.178-0.643-2.654-0.208-3.297,0.97c-0.643,1.179-0.209,2.654,0.97,3.297c1.296,0.707,2.563,1.835,3.798,3.281  c-1.531,2.415-1.249,5.648,0.857,7.755c0.965,1.016,2.953,5.545,4.17,9.497c0.793,2.582,3.109,4.262,5.659,4.393  c2.631,7.606,4.852,15.776,6.528,22.832C19.485,68.376,8.536,60.764,0.694,60.764C0.311,60.764,0,61.074,0,61.458  S0.311,62.152,0.694,62.152z"/>
<path d="M34.028,26.042c10.019,2.227,0.867,33.884,3.985,54.236c0.29-0.027,0.573-0.069,0.875-0.069  c4.167,0,6.945,2.778,11.111,2.778c2.406,0,4.352-0.923,6.366-1.705c0.218-16.757,2.952-32.607,6.146-45.581  c2.388-0.374,4.444-2.117,5.088-4.606c0.021-0.086,2.288-8.804,5.038-16.109c0.912-2.426,0.219-5.063-1.553-6.741  c1.169-3.021,1.927-4.731,1.965-4.814c0.551-1.224,0.007-2.663-1.217-3.214c-1.224-0.552-2.662-0.008-3.215,1.214  c-0.039,0.087-0.847,1.907-2.083,5.109c-2.432,0.101-4.686,1.623-5.598,4.043c-2.981,7.924-5.34,16.999-5.438,17.381  c-0.655,2.527,0.335,5.09,2.302,6.565c-2.774,11.259-5.211,24.625-6.028,38.895C47.4,48.998,48.2,23.562,34.028,24.653  c-0.384,0-0.694,0.311-0.694,0.694S33.644,26.042,34.028,26.042z"/>
</svg>