<svg xmlns="http://www.w3.org/2000/svg" xmlns:xlink="http://www.w3.org/1999/xlink" version="1.1" id="Layer_1" x="0px" y="0px" width="100px" height="100px" viewBox="0 0 100 100" enable-background="new 0 0 100 100" xml:space="preserve">
<g>
	<path d="M68.182,56.818c-5.015,0-9.092,4.077-9.092,9.092c0,5.013,4.077,9.09,9.092,9.09s9.092-4.077,9.092-9.09   C77.273,60.896,73.196,56.818,68.182,56.818z"/>
	<path d="M29.546,56.818c-5.014,0-9.091,4.077-9.091,9.092c0,5.013,4.077,9.09,9.091,9.09s9.091-4.077,9.091-9.09   C38.637,60.896,34.56,56.818,29.546,56.818z"/>
	<path d="M49.999,0C22.39,0,0,22.385,0,50c0,27.609,22.39,50,49.999,50C77.609,100,100,77.609,100,50C100,22.385,77.609,0,49.999,0z    M43.182,20.455c2.511,0,4.546,2.036,4.546,4.545c0,2.511-2.035,4.546-4.546,4.546c-2.51,0-4.545-2.036-4.545-4.546   C38.637,22.491,40.672,20.455,43.182,20.455z M29.546,79.547c-7.52,0-13.637-6.117-13.637-13.637s6.117-13.637,13.637-13.637   s13.636,6.117,13.636,13.637S37.065,79.547,29.546,79.547z M52.273,67.047c0,1.881-1.527,3.408-3.41,3.408   c-1.882,0-3.408-1.527-3.408-3.408v-15.91c0-1.28,0.714-2.385,1.758-2.965l-0.007-0.014l7.604-4.234l-5.948-6.174l-3.394,4.761   c-0.515,0.732-1.322,1.24-2.286,1.24H31.818c-1.569,0-2.841-1.27-2.841-2.84c0-1.572,1.271-2.841,2.841-2.841h9.896l5.586-7.879   c0.833-0.969,2.054-1.595,3.432-1.595c1.287,0,2.441,0.539,3.269,1.396l0.006-0.004l10.631,11.037l-0.007,0.007   c0.788,0.816,1.279,1.922,1.279,3.146c0,1.899-1.167,3.521-2.818,4.202l-10.818,6.023V67.047z M68.182,79.547   c-7.52,0-13.635-6.117-13.635-13.637s6.115-13.637,13.635-13.637s13.637,6.117,13.637,13.637S75.701,79.547,68.182,79.547z"/>
</g>
</svg>