<svg xmlns="http://www.w3.org/2000/svg" xmlns:xlink="http://www.w3.org/1999/xlink" version="1.1" id="Layer_1" x="0px" y="0px" width="100px" height="72.223px" viewBox="0 0 100 72.223" enable-background="new 0 0 100 72.223" xml:space="preserve">
<path d="M100,48.611l-13.889-6.944v4.167c0,0,0,0-2.778,0c-2.777,0-5.556-2.778-5.556-2.778S75,45.834,72.223,45.834  c-2.778,0-5.556-2.778-5.556-2.778s-2.778,2.778-5.556,2.778c-2.778,0-5.556-2.778-5.556-2.778S52.777,45.834,50,45.834  c-2.778,0-5.556-2.778-5.556-2.778s-2.778,2.778-5.556,2.778c-2.777,0-5.555-2.778-5.555-2.778s-2.778,2.778-5.556,2.778  s-5.556-2.778-5.556-2.778s-2.778,2.778-5.556,2.778s-5.555-2.778-5.555-2.778s-2.778,2.778-5.556,2.778S0,43.056,0,43.056v5.556  c0,0,2.778,2.777,5.556,2.777s5.556-2.777,5.556-2.777s2.777,2.777,5.555,2.777s5.556-2.777,5.556-2.777s2.778,2.777,5.556,2.777  s5.556-2.777,5.556-2.777s2.778,2.777,5.555,2.777c2.778,0,5.556-2.777,5.556-2.777s2.778,2.777,5.556,2.777  c2.777,0,5.556-2.777,5.556-2.777s2.777,2.777,5.556,2.777c2.777,0,5.556-2.777,5.556-2.777s2.777,2.777,5.556,2.777  c2.777,0,5.555-2.777,5.555-2.777s2.778,2.777,5.556,2.777c2.778,0,2.778,0,2.778,0v4.167L100,48.611z"/>
<path d="M77.777,65.278l-13.889-6.944V62.5c0,0,0,0-2.777,0c-2.778,0-5.556-2.777-5.556-2.777S52.777,62.5,50,62.5  c-2.778,0-5.556-2.777-5.556-2.777S41.667,62.5,38.889,62.5c-2.777,0-5.555-2.777-5.555-2.777S30.556,62.5,27.778,62.5  s-5.556-2.777-5.556-2.777S19.444,62.5,16.667,62.5s-5.555-2.777-5.555-2.777S8.333,62.5,5.556,62.5S0,59.723,0,59.723v5.556  c0,0,2.778,2.777,5.556,2.777s5.556-2.777,5.556-2.777s2.777,2.777,5.555,2.777s5.556-2.777,5.556-2.777s2.778,2.777,5.556,2.777  s5.556-2.777,5.556-2.777s2.778,2.777,5.555,2.777c2.778,0,5.556-2.777,5.556-2.777s2.778,2.777,5.556,2.777  c2.777,0,5.556-2.777,5.556-2.777s2.777,2.777,5.556,2.777c2.777,0,2.777,0,2.777,0v4.167L77.777,65.278z"/>
<circle cx="51.389" cy="16.667" r="6.944"/>
<path d="M22.347,5.177l4.167,16.667l0.012-0.003c0.289,1.16,1.063,2.117,2.097,2.663l-0.008,0.016l6.635,3.493L33.333,37.5  c0,0,2.778,2.778,5.555,2.778c2.778,0,5.556-2.778,5.556-2.778s2.778,2.778,5.556,2.778c2.777,0,5.556-2.778,5.556-2.778  s1.752,1.729,3.86,2.452L71.17,24.991l-0.013-0.011c0.655-0.737,1.065-1.694,1.065-2.757c0-0.38-0.068-0.742-0.163-1.092  l0.017-0.004L67.909,5.849l-0.017,0.004c-0.481-1.768-2.082-3.075-4.004-3.075c-2.302,0-4.166,1.865-4.166,4.167  c0,0.379,0.067,0.742,0.162,1.092l-0.016,0.004l3.572,13.101l-7.443,8.375L34.146,18.015L30.431,3.156l-0.012,0.003  C29.967,1.347,28.341,0,26.389,0c-2.301,0-4.167,1.865-4.167,4.167c0,0.35,0.056,0.684,0.137,1.008L22.347,5.177z"/>
</svg>