<svg xmlns="http://www.w3.org/2000/svg" xmlns:xlink="http://www.w3.org/1999/xlink" version="1.1" id="Layer_1" x="0px" y="0px" width="100px" height="98.611px" viewBox="0 0 100 98.611" enable-background="new 0 0 100 98.611" xml:space="preserve">
<path d="M83.333,81.944c-5.563,0-6.435-7.966-5.556-9.722c1.39-2.778,4.167-1.39,4.167-1.39c-9.722-11.11-12.5,11.111-19.444,11.111  c-5.563,0-6.435-7.966-5.556-9.722c1.389-2.778,4.167-1.39,4.167-1.39c-9.723-11.11-12.5,11.111-19.445,11.111  c-5.563,0-6.434-7.966-5.555-9.722c1.389-2.778,4.167-1.39,4.167-1.39c-9.722-11.11-12.5,11.111-19.444,11.111  c-5.564,0-6.434-7.966-5.556-9.722c1.389-2.778,4.167-1.39,4.167-1.39C9.722,59.723,6.944,81.944,0,81.944v16.667h100V81.944H83.333  z"/>
<path d="M97.917,8.333c-0.575,0-1.097,0.233-1.474,0.61l-5.473,5.473l-6.883-6.864l0,0c-0.378-0.375-0.896-0.608-1.471-0.608h-9.505  c-0.633,0-1.194,0.289-1.576,0.735L71.53,7.673l-7.14,8.333l0.006,0.007c-0.312,0.363-0.508,0.83-0.508,1.348  c0,1.15,0.934,2.083,2.084,2.083c0.632,0,1.193-0.289,1.575-0.735l0.006,0.007l6.516-7.605h2.992L62.776,27.778h-8.609  c-1.534,0-2.778,1.244-2.778,2.778s1.244,2.778,2.778,2.778h11.11c0.844,0,1.59-0.384,2.1-0.978l0.01,0.008l6.139-7.162l6.474,6.474  l-2.163,10.813c0,0-0.001,0.009-0.003,0.014l-0.001,0.008l0,0c-0.035,0.176-0.055,0.358-0.055,0.545  c0,1.534,1.244,2.778,2.778,2.778c1.348,0,2.469-0.96,2.724-2.232l0,0l2.773-13.867c0.001-0.005,0.001-0.01,0.003-0.014l0.001-0.008  l0,0c0.035-0.176,0.055-0.358,0.055-0.545c0-0.768-0.312-1.462-0.816-1.965l-5.656-5.658l5.796-6.763l4.067,4.056l0,0  c0.377,0.375,0.896,0.607,1.471,0.607s1.096-0.233,1.473-0.61l6.944-6.944c0.377-0.377,0.61-0.898,0.61-1.473  C100,9.267,99.066,8.333,97.917,8.333z"/>
<circle cx="88.889" cy="4.167" r="4.167"/>
<path d="M38.889,45.833C27.93,45.654,25,31.944,27.778,26.389c2.778-5.556,11.111-2.762,11.111-2.762  C25-1.389,13.767,20.481,0,20.833v25v9.722v4.167v4.166c6.944,0,9.722-22.222,19.444-11.11c0,0-2.778-1.39-4.167,1.389  c-0.878,1.756-0.008,9.722,5.556,9.722c6.944,0,9.722-22.222,19.444-11.11c0,0-2.778-1.39-4.167,1.389  c-0.878,1.756-0.008,9.722,5.555,9.722c6.945,0,9.722-22.222,19.445-11.11c0,0-2.778-1.39-4.167,1.389  c-0.879,1.756-0.008,9.722,5.556,9.722H100V45.833H38.889z"/>
</svg>