<svg xmlns="http://www.w3.org/2000/svg" xmlns:xlink="http://www.w3.org/1999/xlink" version="1.1" id="Layer_1" x="0px" y="0px" width="94.445px" height="100px" viewBox="0 0 94.445 100" enable-background="new 0 0 94.445 100" xml:space="preserve">
<path d="M36.806,17.708c0,0-0.695,0-0.695-1.389c0-1.476-1.244-2.778-2.777-2.778c-1.534,0-2.778,1.237-2.778,2.778  c0,1.389-0.695,1.389-0.695,1.389c-0.384,0-0.694,0.311-0.694,0.694s0.311,0.694,0.694,0.694h6.945c0.384,0,0.694-0.311,0.694-0.694  S37.189,17.708,36.806,17.708z"/>
<circle cx="33.333" cy="21.18" r="1.389"/>
<circle cx="33.333" cy="2.083" r="2.083"/>
<path d="M55.555,59.723H50V40.278h2.778v-4.167h-6.944l-4.167-12.5V12.5c0.768,0,1.389-0.621,1.389-1.389  c0-0.768-0.622-1.389-1.389-1.389h-2.778c0-3.068-2.487-5.556-5.555-5.556c-3.068,0-5.556,2.488-5.556,5.556H25  c-0.768,0-1.389,0.621-1.389,1.389c0,0.768,0.622,1.389,1.389,1.389v11.111l-4.167,12.5h-6.945v4.167h2.778v19.445H0V100h12.572  C14.963,75.046,81.472,76.091,55.555,59.723z M27.778,12.5h11.111v11.111H27.778V12.5z M30.556,59.723v4.166h-8.333v-4.166V48.611  c0-2.301,1.866-4.167,4.167-4.167s4.167,1.866,4.167,4.167V59.723z M44.444,59.723v4.166h-8.333v-4.166V48.611  c0-2.301,1.867-4.167,4.167-4.167s4.167,1.866,4.167,4.167V59.723z"/>
<path d="M62.5,59.723C90.707,67.781,43.579,86.231,78.133,100h16.312V59.723H62.5z"/>
</svg>