<svg xmlns="http://www.w3.org/2000/svg" xmlns:xlink="http://www.w3.org/1999/xlink" version="1.1" id="Layer_1" x="0px" y="0px" width="100px" height="92.877px" viewBox="0 0 100 92.877" enable-background="new 0 0 100 92.877" xml:space="preserve">
<path d="M100,83.154c-1.736,0.694-3.473,1.389-5.556,1.389c-4.167,0-6.944-2.777-11.111-2.777c-4.166,0-6.944,2.777-11.11,2.777  c-4.167,0-6.945-2.777-11.111-2.777c-4.167,0-6.944,2.777-11.111,2.777c-4.167,0-6.944-2.777-11.111-2.777  c-4.167,0-6.944,2.777-11.111,2.777s-6.944-2.777-11.111-2.777c-4.167,0-6.944,2.777-11.111,2.777c-2.083,0-3.819-0.691-5.556-1.386  v8.333c1.736,0.694,3.472,1.387,5.556,1.387c4.167,0,6.944-2.778,11.111-2.778c4.167,0,6.945,2.778,11.111,2.778  s6.944-2.778,11.111-2.778c4.167,0,6.945,2.778,11.111,2.778c4.167,0,6.944-2.778,11.111-2.778c4.166,0,6.944,2.778,11.111,2.778  c4.166,0,6.944-2.778,11.11-2.778c4.167,0,6.944,2.778,11.111,2.778c2.083,0,3.819-0.694,5.556-1.389V83.154z"/>
<path d="M100,66.488c-1.736,0.694-3.473,1.389-5.556,1.389c-4.167,0-6.944-2.778-11.111-2.778c-4.166,0-6.944,2.778-11.11,2.778  c-4.167,0-6.945-2.778-11.111-2.778c-4.167,0-6.944,2.778-11.111,2.778c-4.167,0-6.944-2.778-11.111-2.778  c-4.167,0-6.944,2.778-11.111,2.778s-6.944-2.778-11.111-2.778c-4.167,0-6.944,2.778-11.111,2.778c-2.083,0-3.819-0.692-5.556-1.387  v8.334c1.736,0.694,3.472,1.386,5.556,1.386c4.167,0,6.944-2.777,11.111-2.777c4.167,0,6.945,2.777,11.111,2.777  s6.944-2.777,11.111-2.777c4.167,0,6.945,2.777,11.111,2.777c4.167,0,6.944-2.777,11.111-2.777c4.166,0,6.944,2.777,11.111,2.777  c4.166,0,6.944-2.777,11.11-2.777c4.167,0,6.944,2.777,11.111,2.777c2.083,0,3.819-0.694,5.556-1.389V66.488z"/>
<polygon points="50,0 57.213,22.201 80.556,22.201 61.671,35.921 68.885,58.122 50,44.398 31.115,58.122 38.329,35.921   19.444,22.201 42.786,22.201 "/>
</svg>