<svg xmlns="http://www.w3.org/2000/svg" xmlns:xlink="http://www.w3.org/1999/xlink" version="1.1" id="Layer_1" x="0px" y="0px" width="75px" height="100px" viewBox="0 0 75 100" enable-background="new 0 0 75 100" xml:space="preserve">
<path d="M63.889,0v36.111c0,5.973-1.985,8.307-5.653,10.523c-1.723,1.042-3.636,2.086-5.661,3.191  c-5.117,2.792-10.927,5.967-15.074,10.152c-4.148-4.186-9.957-7.36-15.074-10.152c-2.026-1.105-3.939-2.149-5.662-3.191  c-3.666-2.217-5.653-4.55-5.653-10.523V0H0v36.111c0,11.984,6.286,17.172,11.014,20.031c1.934,1.17,4.046,2.322,6.09,3.438  c6.611,3.607,14.84,8.097,14.84,12.643v12.5H25L37.5,100L50,84.723h-6.944v-12.5c0-4.546,8.228-9.035,14.84-12.643  c2.044-1.115,4.155-2.268,6.091-3.438C68.715,53.283,75,48.096,75,36.111V0H63.889z"/>
<path d="M58.333,0.008c-2.777,0-4.166,2.778-6.944,2.778c-2.777,0-4.166-2.778-6.944-2.778c-2.777,0-4.167,2.778-6.944,2.778  c-2.778,0-4.167-2.778-6.944-2.778s-4.167,2.778-6.944,2.778c-2.778,0-4.167-2.778-6.945-2.778v5.555  c2.778,0,4.167,2.778,6.945,2.778c2.777,0,4.167-2.778,6.944-2.778s4.167,2.778,6.944,2.778c2.777,0,4.167-2.778,6.944-2.778  c2.778,0,4.167,2.778,6.944,2.778c2.778,0,4.167-2.778,6.944-2.778V0.008z"/>
<path d="M58.333,11.119c-2.777,0-4.166,2.778-6.944,2.778c-2.777,0-4.166-2.778-6.944-2.778c-2.777,0-4.167,2.778-6.944,2.778  c-2.778,0-4.167-2.778-6.944-2.778s-4.167,2.778-6.944,2.778c-2.778,0-4.167-2.778-6.945-2.778v5.556  c2.778,0,4.167,2.778,6.945,2.778c2.777,0,4.167-2.778,6.944-2.778s4.167,2.778,6.944,2.778c2.777,0,4.167-2.778,6.944-2.778  c2.778,0,4.167,2.778,6.944,2.778c2.778,0,4.167-2.778,6.944-2.778V11.119z"/>
<path d="M58.333,22.23c-2.777,0-4.166,2.778-6.944,2.778c-2.777,0-4.166-2.778-6.944-2.778c-2.777,0-4.167,2.778-6.944,2.778  c-2.778,0-4.167-2.778-6.944-2.778s-4.167,2.778-6.944,2.778c-2.778,0-4.167-2.778-6.945-2.778v5.556  c2.778,0,4.167,2.777,6.945,2.777c2.777,0,4.167-2.777,6.944-2.777s4.167,2.777,6.944,2.777c2.777,0,4.167-2.777,6.944-2.777  c2.778,0,4.167,2.777,6.944,2.777c2.778,0,4.167-2.777,6.944-2.777V22.23z"/>
<path d="M58.333,33.341c-2.777,0-4.166,2.778-6.944,2.778c-2.777,0-4.166-2.778-6.944-2.778c-2.777,0-4.167,2.778-6.944,2.778  c-2.778,0-4.167-2.778-6.944-2.778s-4.167,2.778-6.944,2.778c-2.778,0-4.167-2.778-6.945-2.778v5.556  c2.778,0,4.167,2.778,6.945,2.778c2.777,0,4.167-2.778,6.944-2.778s4.167,2.778,6.944,2.778c2.777,0,4.167-2.778,6.944-2.778  c2.778,0,4.167,2.778,6.944,2.778c2.778,0,4.167-2.778,6.944-2.778V33.341z"/>
</svg>