<svg xmlns="http://www.w3.org/2000/svg" xmlns:xlink="http://www.w3.org/1999/xlink" version="1.1" id="Layer_1" x="0px" y="0px" width="100px" height="69.445px" viewBox="0 0 100 69.445" enable-background="new 0 0 100 69.445" xml:space="preserve">
<polygon points="0,34.722 0,69.445 27.778,69.445 8.333,34.722 "/>
<polygon points="72.223,69.445 100,69.445 100,34.722 91.667,34.722 "/>
<path d="M70.603,60.966c-3.321-0.563-5.889-2.633-9.491-2.633c-4.167,0-6.944,2.777-11.111,2.777c-4.167,0-6.944-2.777-11.111-2.777  c-3.602,0-6.17,2.069-9.491,2.633l3.228,5.764l0.736,1.314c1.727-0.69,3.455-1.378,5.527-1.378c4.167,0,6.945,2.778,11.111,2.778  c4.167,0,6.944-2.778,11.111-2.778c2.072,0,3.8,0.688,5.528,1.378l0.735-1.314L70.603,60.966z"/>
<path d="M27.778,52.778c4.167,0,6.944-2.778,11.111-2.778c4.167,0,6.945,2.778,11.111,2.778c4.167,0,6.944-2.778,11.111-2.778  c4.166,0,6.944,2.778,11.111,2.778c1.185,0,2.252-0.234,3.276-0.557l5.775-10.311c-3.11,0.661-5.612,2.534-9.052,2.534  c-4.167,0-6.945-2.778-11.111-2.778c-4.167,0-6.944,2.778-11.111,2.778c-4.167,0-6.944-2.778-11.111-2.778  c-4.167,0-6.944,2.778-11.111,2.778c-3.44,0-5.942-1.873-9.052-2.534L24.5,52.221C25.525,52.543,26.592,52.778,27.778,52.778z"/>
<polygon points="100,12.5 84.723,0 84.723,6.944 15.278,6.944 15.278,0 0,12.5 15.278,25 15.278,16.667 84.723,16.667 84.723,25 "/>
</svg>