<svg xmlns="http://www.w3.org/2000/svg" xmlns:xlink="http://www.w3.org/1999/xlink" version="1.1" id="Layer_1" x="0px" y="0px" width="100px" height="100px" viewBox="0 0 100 100" enable-background="new 0 0 100 100" xml:space="preserve">
<path d="M79.167,68.056c-9.723,0-36.547-13.769-37.5-18.056c-2.778-12.5,2.778-50,2.778-50H12.5c0,0,9.954,40.511,6.944,55.556  C18.056,62.5,12.5,75,20.833,76.389c0,0,9.722,0,12.5,0s7.114-1.305,11.11-1.389c6.83-0.144,13.889,1.389,18.056,1.389h16.667  c2.302,0,4.166-1.865,4.166-4.166C83.333,69.921,81.469,68.056,79.167,68.056z"/>
<path d="M10.322,16.077c-1.054,0.338-2.153,0.59-3.378,0.59c-2.637,0-4.717-1.109-6.944-1.926v8.333C2.227,23.891,4.308,25,6.944,25  c1.792,0,3.325-0.518,4.824-1.104C11.306,21.219,10.815,18.584,10.322,16.077z"/>
<path d="M95.833,16.667c-4.166,0-6.944-2.778-11.11-2.778c-4.167,0-6.945,2.778-11.111,2.778c-4.167,0-6.944-2.778-11.111-2.778  s-6.944,2.778-11.111,2.778c-1.219,0-2.313-0.25-3.366-0.586c-0.28,2.615-0.547,5.341-0.78,8.074C48.53,24.625,49.866,25,51.389,25  c4.167,0,6.944-2.778,11.111-2.778S69.444,25,73.611,25c4.166,0,6.944-2.778,11.111-2.778c4.166,0,6.944,2.778,11.11,2.778  c1.53,0,2.873-0.377,4.167-0.852v-8.333C98.706,16.29,97.363,16.667,95.833,16.667z"/>
<path d="M95.833,70.833c-2.777,0-6.944,1.39-6.944,5.556c0,1.389-2.777,5.556-9.722,5.556H62.5c-2.075,0-4.442-0.282-7.184-0.608  c-3.099-0.371-6.612-0.79-9.954-0.79c-0.267,0-0.535,0.003-0.802,0.009c-1.692,0.035-3.634,0.375-5.511,0.703  c-2.02,0.353-3.927,0.687-5.716,0.687h-12.5h-0.46l-0.454-0.076c-4.03-0.671-6.201-2.883-7.312-4.622  c-1.234-1.929-5.664-6.413-8.441-6.413H0V100h100V70.833H95.833z"/>
</svg>