<svg xmlns="http://www.w3.org/2000/svg" xmlns:xlink="http://www.w3.org/1999/xlink" version="1.1" id="Layer_1" x="0px" y="0px" width="100px" height="70.833px" viewBox="0 0 100 70.833" enable-background="new 0 0 100 70.833" xml:space="preserve">
<path d="M100,45.833c0-2.778,0-5.556-1.389-5.556c-5.556,0-12.5,6.944-16.667,6.944h-4.167c-5.613-2.658-12.048-4.684-18.762-6.072  c-4.065-3.164-9.093-10.595-10.404-10.595c-0.94,0-6.33,5.086-9.718,8.377C20.554,38.627,4.013,43.146,0,52.778  c4.285,9.427,23.379,12.503,43.247,11.521c2.808,2.835,6.961,6.534,9.531,6.534c1.89,0,1.209-4.492,0.581-7.369  c3.654-0.425,7.248-0.979,10.703-1.64c4.323,2.044,10.564,4.842,12.327,4.842c1.704,0,1.84-4.697,1.688-8.333h3.867  c4.167,0,11.111,6.944,16.667,6.944C100,65.278,100,62.5,100,59.722c0-4.422-2.777-5.556-2.777-6.944S100,50.254,100,45.833z   M11.111,52.778c-1.534,0-2.778-1.244-2.778-2.778s1.244-2.777,2.778-2.777c1.534,0,2.777,1.243,2.777,2.777  S12.645,52.778,11.111,52.778z"/>
<path d="M100,1.389c-1.736,0.694-3.473,1.389-5.556,1.389C90.277,2.778,87.5,0,83.333,0c-4.166,0-6.944,2.778-11.11,2.778  C68.056,2.778,65.277,0,61.111,0C56.944,0,54.167,2.778,50,2.778C45.833,2.778,43.056,0,38.889,0c-4.167,0-6.944,2.778-11.111,2.778  S20.833,0,16.667,0C12.5,0,9.722,2.778,5.556,2.778C3.472,2.778,1.736,2.086,0,1.392v8.333c1.736,0.695,3.472,1.386,5.556,1.386  c4.167,0,6.944-2.778,11.111-2.778c4.167,0,6.945,2.778,11.111,2.778s6.944-2.778,11.111-2.778c4.167,0,6.945,2.778,11.111,2.778  c4.167,0,6.944-2.778,11.111-2.778c4.166,0,6.944,2.778,11.111,2.778c4.166,0,6.944-2.778,11.11-2.778  c4.167,0,6.944,2.778,11.111,2.778c2.083,0,3.819-0.694,5.556-1.389V1.389z"/>
</svg>