<svg xmlns="http://www.w3.org/2000/svg" xmlns:xlink="http://www.w3.org/1999/xlink" version="1.1" id="Layer_1" x="0px" y="0px" width="100px" height="100px" viewBox="0 0 100 100" enable-background="new 0 0 100 100" xml:space="preserve">
<path d="M56.944,69.443c0-3.836-6.944-15.276-6.944-15.276s-6.944,11.44-6.944,15.276s3.108,6.944,6.944,6.944  S56.944,73.279,56.944,69.443z"/>
<path d="M80.556,25c-1.003,0-1.968,0.152-2.877,0.434C76.858,18.157,70.689,12.5,63.194,12.5c-1.346,0-2.644,0.197-3.88,0.539  C57.656,5.58,51.012,0,43.056,0c-9.204,0-16.667,7.461-16.667,16.667c0,1.257,0.151,2.478,0.415,3.656  c-1.42-0.56-2.962-0.878-4.582-0.878c-6.904,0-12.5,5.596-12.5,12.5s5.596,12.5,12.5,12.5h58.333c5.37,0,9.722-4.353,9.722-9.722  S85.926,25,80.556,25z"/>
<polygon points="61.111,86.111 61.111,94.444 38.889,94.444 38.889,86.111 0,86.111 0,100 100,100 100,86.111 "/>
</svg>