<svg xmlns="http://www.w3.org/2000/svg" xmlns:xlink="http://www.w3.org/1999/xlink" version="1.1" id="Layer_1" x="0px" y="0px" width="100px" height="100px" viewBox="0 0 100 100" enable-background="new 0 0 100 100" xml:space="preserve">
<path d="M100,90.277c-1.736,0.695-3.473,1.39-5.556,1.39c-4.167,0-6.944-2.778-11.111-2.778c-4.166,0-6.944,2.778-11.11,2.778  c-4.167,0-6.945-2.778-11.111-2.778c-4.167,0-6.944,2.778-11.111,2.778c-4.167,0-6.944-2.778-11.111-2.778  c-4.167,0-6.944,2.778-11.111,2.778s-6.944-2.778-11.111-2.778c-4.167,0-6.944,2.778-11.111,2.778c-2.083,0-3.819-0.692-5.556-1.387  v8.334C1.736,99.309,3.472,100,5.556,100c4.167,0,6.944-2.777,11.111-2.777c4.167,0,6.945,2.777,11.111,2.777  s6.944-2.777,11.111-2.777C43.056,97.223,45.833,100,50,100c4.167,0,6.944-2.777,11.111-2.777c4.166,0,6.944,2.777,11.111,2.777  c4.166,0,6.944-2.777,11.11-2.777c4.167,0,6.944,2.777,11.111,2.777c2.083,0,3.819-0.694,5.556-1.389V90.277z"/>
<path d="M100,73.611C98.264,74.306,96.527,75,94.444,75c-4.167,0-6.944-2.777-11.111-2.777c-4.166,0-6.944,2.777-11.11,2.777  c-4.167,0-6.945-2.777-11.111-2.777C56.944,72.223,54.167,75,50,75c-4.167,0-6.944-2.777-11.111-2.777  c-4.167,0-6.944,2.777-11.111,2.777s-6.944-2.777-11.111-2.777C12.5,72.223,9.722,75,5.556,75C3.472,75,1.736,74.309,0,73.614v8.333  c1.736,0.694,3.472,1.386,5.556,1.386c4.167,0,6.944-2.777,11.111-2.777c4.167,0,6.945,2.777,11.111,2.777s6.944-2.777,11.111-2.777  c4.167,0,6.945,2.777,11.111,2.777c4.167,0,6.944-2.777,11.111-2.777c4.166,0,6.944,2.777,11.111,2.777  c4.166,0,6.944-2.777,11.11-2.777c4.167,0,6.944,2.777,11.111,2.777c2.083,0,3.819-0.694,5.556-1.389V73.611z"/>
<path d="M50,0c0,0-20.833,30.556-20.833,45.833c0,11.507,9.326,20.833,20.833,20.833c11.507,0,20.833-9.326,20.833-20.833  C70.833,30.556,50,0,50,0z M59.723,52.777H40.278v-5.555h19.445V52.777z M59.724,33.333h-6.946v6.944h-5.555v-6.944h-6.943v-5.556  h6.943v-6.944h5.555v6.944h6.946V33.333z"/>
</svg>