<svg xmlns="http://www.w3.org/2000/svg" xmlns:xlink="http://www.w3.org/1999/xlink" version="1.1" id="Layer_1" width="100px" height="71.1711711712px" viewBox="0 0 222 158" overflow="visible" enable-background="new 0 0 222 158" xml:space="preserve">
<g>
	<g>
		<defs>
			<polyline id="XMLID_94_" points="221.57,157.828 221.57,0.008 0.214,0.008 0.214,157.828 221.57,157.828    "/>
		</defs>
		<clipPath id="XMLID_124_">
			<use xlink:href="#XMLID_94_"/>
		</clipPath>
		<polygon clip-path="url(#XMLID_124_)" fill="#000000" points="141.16,83.029 155.109,142.07 153.811,141.18   "/>
	</g>
</g>
<g>
	<g>
		<defs>
			<polyline id="XMLID_96_" points="221.57,157.828 221.57,0.008 0.214,0.008 0.214,157.828 221.57,157.828    "/>
		</defs>
		<clipPath id="XMLID_125_">
			<use xlink:href="#XMLID_96_"/>
		</clipPath>
		<polygon clip-path="url(#XMLID_125_)" fill="#000000" points="136.971,78.3 151,141.34 149.42,142.221 145.65,122.85   "/>
	</g>
</g>
<g>
	<g>
		<defs>
			<polyline id="XMLID_98_" points="221.57,157.828 221.57,0.008 0.214,0.008 0.214,157.828 221.57,157.828    "/>
		</defs>
		<clipPath id="XMLID_126_">
			<use xlink:href="#XMLID_98_"/>
		</clipPath>
		<polygon clip-path="url(#XMLID_126_)" fill="#000000" points="136.279,85.721 145.04,122.971 143.93,121.891   "/>
	</g>
</g>
<g>
	<g>
		<defs>
			<polyline id="XMLID_100_" points="221.57,157.828 221.57,0.008 0.214,0.008 0.214,157.828 221.57,157.828    "/>
		</defs>
		<clipPath id="XMLID_127_">
			<use xlink:href="#XMLID_100_"/>
		</clipPath>
		<polygon clip-path="url(#XMLID_127_)" fill="#000000" points="133.32,84.91 141.279,122.27 140.32,122.85   "/>
	</g>
</g>
<g>
	<g>
		<defs>
			<polyline id="XMLID_102_" points="221.57,157.828 221.57,0.008 0.214,0.008 0.214,157.828 221.57,157.828    "/>
		</defs>
		<clipPath id="XMLID_128_">
			<use xlink:href="#XMLID_102_"/>
		</clipPath>
		<polygon clip-path="url(#XMLID_128_)" fill="#000000" points="136.59,76.77 136.971,78.3 134.471,72.58 134.971,73.19     135.43,73.81 135.63,74.15 135.82,74.5 135.971,74.88 136.13,75.23 136.391,76   "/>
	</g>
</g>
<g>
	<g>
		<defs>
			<polyline id="XMLID_104_" points="221.57,157.828 221.57,0.008 0.214,0.008 0.214,157.828 221.57,157.828    "/>
		</defs>
		<clipPath id="XMLID_129_">
			<use xlink:href="#XMLID_104_"/>
		</clipPath>
		<polygon clip-path="url(#XMLID_129_)" fill="#000000" points="134.471,72.58 131.4,72.77 129.859,72.84 128.32,72.92     126.79,72.92 125.25,72.92 122.13,72.92 120.6,72.92 119.061,72.96 115.98,73.04 112.91,73.11 111.37,73.15 109.83,73.15   "/>
	</g>
</g>
<g>
	<g>
		<defs>
			<polyline id="XMLID_106_" points="221.57,157.828 221.57,0.008 0.214,0.008 0.214,157.828 221.57,157.828    "/>
		</defs>
		<clipPath id="XMLID_130_">
			<use xlink:href="#XMLID_106_"/>
		</clipPath>
		<polygon clip-path="url(#XMLID_130_)" fill="#000000" points="132.859,84.07 133.32,84.91 127.4,80.8 128.359,80.92     128.859,81.029 129.32,81.109 129.779,81.26 130.21,81.42 130.63,81.609 131.01,81.88 131.4,82.15 131.74,82.49 132.05,82.88     132.359,83.26 132.63,83.65   "/>
	</g>
</g>
<g>
	<g>
		<defs>
			<polyline id="XMLID_108_" points="221.57,157.828 221.57,0.008 0.214,0.008 0.214,157.828 221.57,157.828    "/>
		</defs>
		<clipPath id="XMLID_131_">
			<use xlink:href="#XMLID_108_"/>
		</clipPath>
		<polygon clip-path="url(#XMLID_131_)" fill="#000000" points="128.29,78.07 109.83,78.07 109.83,73.15   "/>
	</g>
</g>
<polyline fill="none" points="221.57,157.828 221.57,0.008 0.214,0.008 0.214,157.828 221.57,157.828 "/>
<g>
	<g>
		<defs>
			<polyline id="XMLID_110_" points="221.57,157.828 221.57,0.008 0.214,0.008 0.214,157.828 221.57,157.828    "/>
		</defs>
		<clipPath id="XMLID_132_">
			<use xlink:href="#XMLID_110_"/>
		</clipPath>
		<polygon clip-path="url(#XMLID_132_)" fill="#000000" points="106.61,73.15 106.61,78.07 88.12,78.07   "/>
	</g>
</g>
<g>
	<g>
		<defs>
			<polyline id="XMLID_112_" points="221.57,157.828 221.57,0.008 0.214,0.008 0.214,157.828 221.57,157.828    "/>
		</defs>
		<clipPath id="XMLID_133_">
			<use xlink:href="#XMLID_112_"/>
		</clipPath>
		<polygon clip-path="url(#XMLID_133_)" fill="#000000" points="106.61,73.15 105.07,73.15 103.53,73.11 100.46,73.04 97.38,72.96     95.81,72.92 94.27,72.92 91.19,72.92 89.66,72.92 88.12,72.92 86.58,72.84 85.04,72.77 81.97,72.58   "/>
	</g>
</g>
<g>
	<g>
		<defs>
			<polyline id="XMLID_114_" points="221.57,157.828 221.57,0.008 0.214,0.008 0.214,157.828 221.57,157.828    "/>
		</defs>
		<clipPath id="XMLID_134_">
			<use xlink:href="#XMLID_114_"/>
		</clipPath>
		<polygon clip-path="url(#XMLID_134_)" fill="#000000" points="89.04,80.8 83.12,84.91 83.58,84.07 83.81,83.65 84.08,83.26     84.39,82.88 84.7,82.49 85.04,82.15 85.39,81.88 85.81,81.609 86.24,81.42 86.66,81.26 87.12,81.109 87.58,81.029 88.08,80.92       "/>
	</g>
</g>
<g>
	<g>
		<defs>
			<polyline id="XMLID_116_" points="221.57,157.828 221.57,0.008 0.214,0.008 0.214,157.828 221.57,157.828    "/>
		</defs>
		<clipPath id="XMLID_135_">
			<use xlink:href="#XMLID_116_"/>
		</clipPath>
		<polygon clip-path="url(#XMLID_135_)" fill="#000000" points="83.12,84.91 76.13,122.85 75.17,122.27   "/>
	</g>
</g>
<g>
	<g>
		<defs>
			<polyline id="XMLID_118_" points="221.57,157.828 221.57,0.008 0.214,0.008 0.214,157.828 221.57,157.828    "/>
		</defs>
		<clipPath id="XMLID_136_">
			<use xlink:href="#XMLID_118_"/>
		</clipPath>
		<polygon clip-path="url(#XMLID_136_)" fill="#000000" points="80.16,85.721 72.51,121.891 71.4,122.971   "/>
	</g>
</g>
<g>
	<g>
		<defs>
			<polyline id="XMLID_120_" points="221.57,157.828 221.57,0.008 0.214,0.008 0.214,157.828 221.57,157.828    "/>
		</defs>
		<clipPath id="XMLID_137_">
			<use xlink:href="#XMLID_120_"/>
		</clipPath>
		<polygon clip-path="url(#XMLID_137_)" fill="#000000" points="79.47,78.3 70.79,122.85 67.02,142.221 65.44,141.34   "/>
	</g>
</g>
<g>
	<g>
		<defs>
			<polyline id="XMLID_122_" points="221.57,157.828 221.57,0.008 0.214,0.008 0.214,157.828 221.57,157.828    "/>
		</defs>
		<clipPath id="XMLID_138_">
			<use xlink:href="#XMLID_122_"/>
		</clipPath>
		<polygon clip-path="url(#XMLID_138_)" fill="#000000" points="75.28,83.029 62.63,141.18 61.33,142.07   "/>
	</g>
</g>
<g>
	<polygon fill="none" points="134.896,71.356 134.471,72.58 134.896,71.356  "/>
	<polygon points="141.16,83.029 140.55,80.221 139.891,77.42 139.55,76.04 139.391,75.34 139.16,74.65 138.891,74 138.779,73.65    138.59,73.34 138.391,73.04 138.16,72.77 137.93,72.5 137.66,72.23 137.65,72.23 137.636,72.225 139.588,72.012 140.618,71.862    141.658,71.702 143.738,71.322 144.777,71.092 145.809,70.822 146.309,70.662 146.818,70.472 147.277,70.282 147.777,70.052    148.709,69.512 149.588,68.932 150.469,68.362 150.857,68.012 151.277,67.672 151.668,67.322 152.008,66.942 152.398,66.552    152.698,66.132 153.357,65.282 153.969,64.442 154.238,63.982 154.318,63.712 154.428,63.482 154.469,63.212 154.469,62.942    154.469,62.672 154.428,62.402 154.357,62.172 154.238,61.942 154.088,61.712 153.928,61.482 153.738,61.322 153.508,61.132    153.318,60.982 153.088,60.862 152.588,60.632 152.088,60.442 151.088,60.092 150.549,59.942 150.049,59.792 149.549,59.672    149.008,59.592 148.508,59.521 147.979,59.482 146.938,59.442 145.848,59.482 144.777,59.521 143.738,59.592 142.698,59.712    141.618,59.822 140.588,59.982 139.549,60.212 139.049,60.362 138.549,60.521 138.049,60.712 137.549,60.902 136.588,61.362    136.129,61.592 135.629,61.792 135.129,61.982 134.629,62.092 134.088,62.172 133.588,62.212 132.498,62.282 130.348,62.362    126.158,62.552 124.049,62.592 121.928,62.592 117.698,62.552 113.469,62.521 109.483,62.521 109.45,62.51 109.45,49.01    109.45,48.995 114.688,48.89 117.447,48.85 120.218,48.89 122.986,48.97 125.787,49.12 127.177,49.16 128.598,49.2 129.287,49.16    129.986,49.12 130.639,49.08 131.327,49 132.018,48.89 132.677,48.77 133.367,48.58 134.018,48.39 134.667,48.16 135.287,47.85    135.896,47.54 136.518,47.16 137.059,46.78 137.598,46.31 138.087,45.81 138.518,45.28 138.896,44.66 139.208,44.05 139.479,43.39    139.667,42.74 139.816,42.05 139.896,41.36 139.896,40.66 139.896,39.97 139.787,38.59 139.667,37.2 139.479,35.86 139.287,34.48    138.857,31.75 138.327,29.02 137.747,26.33 137.128,23.64 136.787,22.29 136.396,20.98 136.018,19.64 135.598,18.29 135.367,17.64    135.098,17.03 134.787,16.41 134.438,15.79 134.018,15.26 133.559,14.72 133.059,14.26 132.518,13.8 131.947,13.41 131.327,13.1    130.718,12.84 130.059,12.57 129.367,12.37 128.677,12.22 127.986,12.11 127.287,12.03 126.598,11.95 125.907,11.95 124.527,11.95    123.139,11.99 121.757,12.07 119.027,12.18 116.257,12.3 113.497,12.34 110.728,12.34 107.958,12.34 107.958,12.35 105.507,12.35    102.742,12.35 99.966,12.31 97.191,12.19 94.416,12.08 93.033,12 91.68,11.96 90.297,11.96 89.606,11.96 88.915,12.04    88.224,12.12 87.522,12.23 86.831,12.38 86.14,12.58 85.488,12.85 84.867,13.11 84.256,13.42 83.675,13.81 83.134,14.27    82.592,14.73 82.172,15.27 81.751,15.8 81.4,16.42 81.089,17.04 80.829,17.65 80.558,18.3 80.128,19.65 79.747,20.99 79.396,22.3    79.055,23.65 78.395,26.34 77.863,29.03 77.322,31.76 76.892,34.49 76.701,35.87 76.51,37.21 76.36,38.6 76.28,39.98 76.24,40.67    76.28,41.37 76.36,42.06 76.51,42.75 76.701,43.4 76.972,44.06 77.282,44.67 77.663,45.29 78.093,45.82 78.594,46.32 79.095,46.79    79.667,47.17 80.248,47.55 80.859,47.86 81.52,48.17 82.172,48.4 82.823,48.59 83.484,48.78 84.176,48.9 84.867,49.01    85.518,49.09 86.22,49.13 86.911,49.17 87.602,49.21 88.985,49.17 90.418,49.13 93.223,48.98 95.999,48.9 98.774,48.86    101.54,48.9 106.99,49.009 106.99,49.01 106.99,62.51 102.838,62.51 98.608,62.54 94.388,62.58 92.268,62.58 90.158,62.54    85.928,62.35 83.818,62.27 82.738,62.2 82.198,62.16 81.698,62.08 81.198,61.97 80.698,61.78 80.198,61.58 79.738,61.35    78.778,60.89 78.278,60.7 77.778,60.51 77.278,60.35 76.778,60.2 75.748,59.97 74.708,59.81 73.628,59.7 72.588,59.58    71.518,59.51 70.478,59.47 69.398,59.43 68.368,59.47 67.828,59.51 67.328,59.58 66.788,59.66 66.288,59.78 65.748,59.93    65.248,60.08 64.248,60.43 63.748,60.62 63.248,60.85 63.018,60.97 62.788,61.12 62.598,61.31 62.408,61.47 62.248,61.7    62.098,61.93 61.978,62.16 61.908,62.39 61.868,62.66 61.828,62.93 61.868,63.2 61.908,63.47 61.978,63.7 62.098,63.97    62.368,64.43 62.978,65.27 63.638,66.12 63.948,66.54 64.288,66.93 64.668,67.31 65.058,67.66 65.438,68 65.868,68.35    66.748,68.92 67.628,69.5 68.558,70.04 69.018,70.27 69.518,70.46 70.018,70.65 70.518,70.81 71.558,71.08 72.588,71.31    74.668,71.69 75.708,71.85 76.738,72 78.799,72.224 78.78,72.23 78.51,72.5 78.28,72.77 78.05,73.04 77.86,73.34 77.66,73.65    77.51,74 77.28,74.65 77.05,75.34 76.89,76.04 76.55,77.42 75.9,80.221 75.28,83.029 62.63,141.18 61.33,142.07 61.52,142.45    61.64,142.65 61.75,142.8 61.87,142.95 62.02,143.07 62.21,143.18 62.4,143.26 62.83,143.38 63.25,143.41 63.67,143.45    64.06,143.41 64.86,143.26 65.29,143.221 65.67,143.109 66.06,142.99 66.25,142.88 66.4,142.76 66.75,142.529 67.02,142.221    65.44,141.34 79.47,78.3 79.82,76.77 80.05,76 80.32,75.23 80.43,74.88 80.62,74.5 80.78,74.15 81.01,73.81 81.47,73.19    81.97,72.58 106.61,73.15 106.61,78.07 88.12,78.07 87.39,78.15 87,78.19 86.66,78.26 86.31,78.38 85.97,78.5 85.62,78.65    85.27,78.84 84.04,79.65 83.43,80.07 82.81,80.529 82.28,81.029 82.01,81.3 81.78,81.57 81.55,81.88 81.35,82.18 81.16,82.529    81.01,82.84 80.85,83.18 80.7,83.529 80.51,84.26 80.32,84.99 80.16,85.721 72.51,121.891 71.4,122.971 71.9,123.391 72.21,123.62    72.47,123.77 72.78,123.93 73.09,124.04 73.44,124.08 73.78,124.12 74.13,124.08 74.47,124 74.82,123.891 75.09,123.73    75.4,123.54 75.63,123.311 76.13,122.85 75.17,122.27 83.12,84.91 83.58,84.07 83.81,83.65 84.08,83.26 84.39,82.88 84.7,82.49    85.04,82.15 85.39,81.88 85.81,81.609 86.24,81.42 86.66,81.26 87.12,81.109 87.58,81.029 88.08,80.92 89.04,80.8 108.22,80.8    127.4,80.8 128.359,80.92 128.859,81.029 129.32,81.109 129.779,81.26 130.21,81.42 130.63,81.609 131.01,81.88 131.4,82.15    131.74,82.49 132.05,82.88 132.359,83.26 132.63,83.65 132.859,84.07 133.32,84.91 141.279,122.27 140.32,122.85 140.779,123.311    141.05,123.54 141.311,123.73 141.62,123.891 141.971,124 142.279,124.08 142.62,124.12 143.01,124.08 143.311,124.04    143.66,123.93 143.971,123.77 144.24,123.62 144.5,123.391 145.04,122.971 143.93,121.891 136.279,85.721 136.13,84.99    135.93,84.26 135.74,83.529 135.59,83.18 135.43,82.84 135.279,82.529 135.09,82.18 134.9,81.88 134.67,81.57 134.4,81.3    134.17,81.029 133.59,80.529 133.01,80.07 132.4,79.65 131.13,78.84 130.82,78.65 130.48,78.5 130.13,78.38 129.779,78.26    129.439,78.19 129.05,78.15 128.29,78.07 109.83,78.07 109.83,73.15 134.471,72.58 134.896,71.356 134.896,71.356 134.471,72.58    134.971,73.19 135.43,73.81 135.63,74.15 135.82,74.5 135.971,74.88 136.13,75.23 136.391,76 136.59,76.77 136.971,78.3    151,141.34 149.42,142.221 149.689,142.529 150,142.76 150.189,142.88 150.35,142.99 150.73,143.109 151.15,143.221 151.58,143.26    152.38,143.41 152.77,143.45 153.189,143.41 153.609,143.38 154.04,143.26 154.23,143.18 154.38,143.07 154.58,142.95    154.689,142.8 154.811,142.65 154.92,142.45 155.109,142.07 153.811,141.18  "/>
</g>
<rect id="_x3C_Slice_x3E_" fill="none" width="222" height="158"/>
</svg>