<svg xmlns="http://www.w3.org/2000/svg" xmlns:xlink="http://www.w3.org/1999/xlink" version="1.1" id="Layer_1" x="0px" y="0px" width="100px" height="54.64px" viewBox="-47.866 3.146 100 54.64" enable-background="new -47.866 3.146 100 54.64" xml:space="preserve">
<g>
	<path d="M50.985,3.146h-97.703c-0.634,0-1.149,0.514-1.149,1.148v52.343c0,0.635,0.515,1.148,1.149,1.148h97.703   c0.635,0,1.148-0.514,1.148-1.148V4.294C52.134,3.66,51.62,3.146,50.985,3.146z M49.837,55.488h-95.406V5.442h95.406V55.488z"/>
	<rect x="-42.684" y="9.517" width="10.02" height="3.445"/>
	<rect x="-42.684" y="22.358" width="10.02" height="3.446"/>
	<rect x="-42.684" y="35.199" width="10.02" height="3.446"/>
	<rect x="-42.684" y="48.04" width="10.02" height="3.445"/>
	<rect x="-30.611" y="9.517" width="4.522" height="3.445"/>
	<rect x="-30.611" y="22.358" width="4.522" height="3.446"/>
	<rect x="-30.611" y="35.199" width="4.522" height="3.446"/>
	<rect x="-30.611" y="48.04" width="4.522" height="3.445"/>
	<polygon points="-0.931,12.567 -0.103,12.567 -0.072,21.784 -2.491,21.784 -2.491,26.378 11.689,26.378 11.689,25.344    12.531,25.344 12.561,34.43 9.959,34.407 9.919,39.001 34.916,39.219 34.926,38.07 35.726,38.07 35.756,47.465 33.317,47.465    33.317,52.06 47.496,52.06 47.496,47.465 38.053,47.465 38.022,38.07 38.057,38.07 38.057,35.773 34.946,35.773 34.956,34.625    14.858,34.45 14.828,25.344 14.862,25.344 14.862,23.047 11.689,23.047 11.689,21.784 2.225,21.784 2.195,12.567 2.229,12.567    2.229,10.271 -0.931,10.271 -0.931,8.942 -15.11,8.942 -15.11,13.536 -0.931,13.536  "/>
	<rect x="-25.434" y="9.517" width="4.522" height="3.445"/>
	<rect x="-25.434" y="22.358" width="4.522" height="3.446"/>
	<rect x="-25.434" y="35.199" width="4.522" height="3.446"/>
	<rect x="-25.434" y="48.04" width="4.522" height="3.445"/>
</g>
</svg>