<svg xmlns="http://www.w3.org/2000/svg" xmlns:xlink="http://www.w3.org/1999/xlink" version="1.1" x="0px" y="0px" width="100px" height="100px" viewBox="0 0 100 100" enable-background="new 0 0 100 100" xml:space="preserve">
<g id="Captions">
</g>
<g id="Your_Icon">
	<path d="M50,7.574c5.73,0,11.286,1.121,16.513,3.332c5.051,2.136,9.589,5.197,13.486,9.095c3.899,3.898,6.96,8.437,9.096,13.487   C91.306,38.714,92.427,44.27,92.427,50s-1.121,11.286-3.332,16.513c-2.136,5.051-5.196,9.589-9.096,13.486   c-3.897,3.899-8.436,6.96-13.486,9.096C61.286,91.306,55.73,92.427,50,92.427s-11.286-1.121-16.513-3.332   c-5.051-2.136-9.589-5.196-13.487-9.096c-3.898-3.897-6.959-8.436-9.095-13.486C8.694,61.286,7.574,55.73,7.574,50   s1.12-11.286,3.332-16.513C13.041,28.437,16.102,23.898,20,20c3.898-3.898,8.436-6.958,13.487-9.095   C38.714,8.694,44.27,7.574,50,7.574 M50,1.084C22.984,1.084,1.084,22.984,1.084,50S22.984,98.916,50,98.916   c27.016,0,48.916-21.9,48.916-48.916S77.016,1.084,50,1.084L50,1.084z"/>
	<polygon points="78.094,30.044 78.094,21.446 65.9,21.446 65.9,15.605 57.301,15.605 57.301,21.446 53.649,21.446 45.051,21.446    45.051,30.044 45.051,70.28 29.152,70.28 29.152,30.044 33.045,30.044 33.045,66.711 41.645,66.711 41.645,30.044 41.645,21.446    33.045,21.446 29.152,21.446 20.554,21.446 20.554,30.044 20.554,70.28 20.554,78.879 29.152,78.879 45.051,78.879 53.649,78.879    53.649,70.28 53.649,30.044 57.301,30.044 57.301,33.776 57.301,42.375 65.9,42.375 69.495,42.375 69.495,70.28 65.9,70.28    65.9,46.106 57.301,46.106 57.301,70.28 57.301,78.879 65.9,78.879 69.495,78.879 77.825,78.879 78.094,78.879 78.094,33.776    77.825,33.776 69.495,33.776 65.9,33.776 65.9,30.044  "/>
</g>
</svg>