<svg xmlns="http://www.w3.org/2000/svg" xmlns:xlink="http://www.w3.org/1999/xlink" version="1.1" x="0px" y="0px" width="100px" height="100px" viewBox="0 0 100 100" enable-background="new 0 0 100 100" xml:space="preserve">
<g id="Captions">
</g>
<g id="Your_Icon">
	<path fill="none" d="M0.559,88.169c0-29.203,0-58.406,0-87.609c32.961,0,65.922,0,98.883,0c0,29.203,0,58.406,0,87.609   c-0.062-0.069-0.136-0.132-0.181-0.21c-4.088-7.073-8.173-14.147-12.256-21.223c-0.044-0.076-0.062-0.166-0.109-0.3   c3.491,0,6.924,0,10.44,0c-4.536-7.858-9.037-15.652-13.551-23.472c-0.759,0.438-1.496,0.863-2.232,1.289   c-0.75,0.433-1.498,0.865-2.199,1.27c4.55,10.394,4.477,20.606-1.204,30.429c-5.687,9.833-14.48,15.062-25.748,16.275   c0,1.685,0,3.389,0,5.104c9.027,0,18.039,0,27.095,0c-1.747-3.029-3.467-6.011-5.228-9.062c8.446,0,16.81,0,25.173,0   c0,3.723,0,7.446,0,11.172c-32.961,0-65.922,0-98.883,0c0-3.726,0-7.449,0-11.172c8.364,0,16.727,0,25.174,0   c-1.768,3.062-3.493,6.054-5.236,9.074c9.075,0,18.081,0,27.101,0c0-1.729,0-3.434,0-5.115   c-11.253-1.209-20.041-6.427-25.728-16.234c-5.7-9.83-5.784-20.062-1.232-30.455c-1.451-0.838-2.934-1.695-4.438-2.564   C11.677,50.805,7.18,58.597,2.624,66.488c3.554,0,6.995,0,10.503,0c-0.091,0.163-0.137,0.246-0.185,0.329   C8.891,73.836,4.84,80.854,0.787,87.872C0.724,87.979,0.635,88.07,0.559,88.169z M23.038,41.407   c6.686-9.136,15.583-14.172,26.932-14.182c11.37-0.01,20.285,5.025,26.985,14.169c1.465-0.848,2.949-1.706,4.44-2.569   c-4.533-7.852-9.032-15.644-13.562-23.49c-1.765,3.052-3.491,6.043-5.254,9.091C58.373,17.142,54.203,9.921,50,2.641   c-4.22,7.31-8.394,14.537-12.59,21.806c-1.764-3.054-3.498-6.055-5.259-9.102c-4.532,7.849-9.039,15.656-13.563,23.493   C20.106,39.715,21.582,40.566,23.038,41.407z M75.055,49.809c-0.234,0.124-0.391,0.205-0.546,0.288   c-1.9,1.023-3.865,1.892-5.966,2.419c-2.905,0.729-5.768,0.744-8.544-0.539c-1.209-0.559-2.289-1.308-3.286-2.267   c0.154-0.05,0.246-0.082,0.338-0.108c3.306-0.903,6.327-2.386,9.064-4.442c2.481-1.863,2.506-5.067,0.039-6.924   c-4.139-3.113-8.795-4.924-13.957-5.315c-6.747-0.513-12.866,1.255-18.31,5.295c-0.666,0.495-1.29,1.045-2,1.623   c0.155,0.034,0.197,0.051,0.238,0.051c1.813,0.001,3.625,0.008,5.438-0.007c0.199-0.002,0.417-0.086,0.592-0.19   c1.876-1.116,3.864-1.977,5.983-2.493c1.298-0.315,2.625-0.51,4.045-0.778c-0.115,1.222-0.215,2.279-0.318,3.364   c-2.123,0-4.176,0-6.249,0c0,1.212,0,2.39,0,3.606c1.808,0,3.592,0,5.479,0c-0.456,1.093-0.883,2.117-1.31,3.141   c-2.161-0.394-4.206-0.964-6.019-2.032c-1.452-0.855-2.916-1.13-4.542-1.029c-1.075,0.066-2.158,0.013-3.359,0.013   c3.355,3.039,7.125,5.062,11.437,6.214c-2.08,1.927-4.408,3.073-7.163,3.274c-3.025,0.222-5.83-0.603-8.544-1.826   c-0.876-0.395-1.728-0.845-2.667-1.307c-0.373,1.179-0.736,2.326-1.1,3.477c4.837,2.499,9.74,4.153,15.153,2.886   c2.287,4.531,5.854,7.143,10.927,7.175c5.158,0.033,8.788-2.587,11.104-7.17c5.447,1.257,10.354-0.405,15.159-2.902   C75.794,52.119,75.431,50.982,75.055,49.809z M27.923,75.151c6.794,0,13.513,0,20.252,0c0,0.978,0,1.924,0,2.923   c-5.926,0-11.828,0-17.73,0c-0.032,0.054-0.064,0.108-0.097,0.163c1.235,1.047,2.459,2.108,3.713,3.132   c0.218,0.179,0.559,0.285,0.843,0.286c4.235,0.019,8.471,0.014,12.706,0.014c0.189,0,0.378,0,0.602,0c0,1.391,0,2.704,0,4.023   c1.209,0,2.383,0,3.609,0c0-1.355,0-2.68,0-4.023c0.232,0,0.413,0,0.593,0c3.774,0,7.548,0,11.321,0   c1.942,0,1.954,0.014,3.433-1.252c0.841-0.718,1.636-1.489,2.45-2.237c-0.025-0.042-0.05-0.083-0.075-0.124   c-5.904,0-11.81,0-17.721,0c0-0.993,0-1.94,0-2.926c6.762,0,13.495,0,20.284,0c0.694-1.172,1.385-2.338,2.112-3.569   c-16.187,0-32.256,0-48.386,0c0.205,0.392,0.37,0.747,0.568,1.083C26.897,73.477,27.406,74.3,27.923,75.151z M63.098,58.225   c-5.749,10.649-20.559,10.566-26.196,0.013c-1.296,0-2.589,0-3.931,0c0.681,1.768,1.654,3.323,2.85,4.856   c-4.243,0-8.369,0-12.559,0c0.243,1.232,0.475,2.417,0.707,3.594c0.28,0,0.461,0,0.642,0c4.91,0,9.82-0.005,14.73,0.011   c0.275,0,0.581,0.095,0.82,0.234c6.559,3.87,13.109,3.869,19.67,0.007c0.252-0.148,0.577-0.241,0.868-0.241   c4.91-0.016,9.82-0.011,14.729-0.011c0.182,0,0.361,0,0.609,0c0.232-1.196,0.462-2.383,0.703-3.624c-4.209,0-8.335,0-12.549,0   c1.2-1.515,2.162-3.075,2.838-4.839C65.679,58.225,64.396,58.225,63.098,58.225z"/>
	<path fill-rule="evenodd" clip-rule="evenodd" fill="#000000" d="M0.559,88.169c0.076-0.099,0.165-0.19,0.228-0.297   c4.053-7.018,8.104-14.036,12.155-21.055c0.047-0.083,0.093-0.166,0.185-0.329c-3.508,0-6.949,0-10.503,0   c4.556-7.892,9.054-15.684,13.575-23.515c1.505,0.869,2.988,1.727,4.438,2.564c-4.552,10.393-4.468,20.625,1.232,30.455   c5.687,9.808,14.475,15.025,25.728,16.234c0,1.682,0,3.386,0,5.115c-9.02,0-18.025,0-27.101,0c1.743-3.021,3.468-6.012,5.236-9.074   c-8.447,0-16.81,0-25.174,0C0.559,88.235,0.559,88.203,0.559,88.169z"/>
	<path fill-rule="evenodd" clip-rule="evenodd" fill="#000000" d="M99.441,88.269c-8.363,0-16.727,0-25.173,0   c1.761,3.052,3.48,6.033,5.228,9.062c-9.056,0-18.067,0-27.095,0c0-1.715,0-3.419,0-5.104c11.268-1.214,20.062-6.442,25.748-16.275   c5.681-9.822,5.754-20.035,1.204-30.429c0.701-0.404,1.449-0.837,2.199-1.27c0.736-0.426,1.474-0.852,2.232-1.289   c4.514,7.819,9.015,15.613,13.551,23.472c-3.517,0-6.949,0-10.44,0c0.048,0.134,0.065,0.224,0.109,0.3   c4.083,7.075,8.168,14.149,12.256,21.223c0.045,0.078,0.119,0.141,0.181,0.21C99.441,88.203,99.441,88.235,99.441,88.269z"/>
	<path fill-rule="evenodd" clip-rule="evenodd" fill="#000000" d="M23.038,41.407c-1.456-0.841-2.931-1.692-4.451-2.569   c4.524-7.837,9.032-15.645,13.563-23.493c1.761,3.047,3.495,6.048,5.259,9.102C41.606,17.178,45.779,9.95,50,2.641   c4.204,7.28,8.374,14.501,12.579,21.785c1.763-3.048,3.489-6.039,5.254-9.091c4.53,7.847,9.029,15.639,13.562,23.49   c-1.491,0.863-2.976,1.722-4.44,2.569c-6.7-9.144-15.615-14.179-26.985-14.169C38.621,27.235,29.723,32.271,23.038,41.407z"/>
	<path fill-rule="evenodd" clip-rule="evenodd" fill="#000000" d="M75.055,49.809c0.376,1.174,0.739,2.311,1.119,3.494   c-4.806,2.497-9.712,4.159-15.159,2.902c-2.316,4.583-5.946,7.203-11.104,7.17c-5.073-0.032-8.641-2.644-10.927-7.175   c-5.414,1.268-10.316-0.387-15.153-2.886c0.364-1.15,0.728-2.298,1.1-3.477c0.939,0.462,1.79,0.912,2.667,1.307   c2.714,1.224,5.519,2.048,8.544,1.826c2.755-0.201,5.083-1.348,7.163-3.274c-4.311-1.151-8.082-3.175-11.437-6.214   c1.201,0,2.284,0.054,3.359-0.013c1.626-0.101,3.09,0.174,4.542,1.029c1.813,1.068,3.857,1.639,6.019,2.032   c0.427-1.023,0.854-2.048,1.31-3.141c-1.886,0-3.671,0-5.479,0c0-1.217,0-2.395,0-3.606c2.072,0,4.126,0,6.249,0   c0.103-1.085,0.203-2.143,0.318-3.364c-1.42,0.269-2.748,0.463-4.045,0.778c-2.119,0.517-4.107,1.377-5.983,2.493   c-0.175,0.104-0.394,0.188-0.592,0.19c-1.813,0.015-3.625,0.008-5.438,0.007c-0.042,0-0.083-0.017-0.238-0.051   c0.71-0.578,1.334-1.128,2-1.623c5.444-4.04,11.563-5.808,18.31-5.295c5.162,0.392,9.818,2.202,13.957,5.315   c2.467,1.856,2.442,5.061-0.039,6.924c-2.737,2.057-5.759,3.539-9.064,4.442c-0.092,0.026-0.184,0.059-0.338,0.108   c0.997,0.959,2.077,1.708,3.286,2.267c2.776,1.283,5.639,1.268,8.544,0.539c2.101-0.527,4.065-1.396,5.966-2.419   C74.664,50.014,74.82,49.933,75.055,49.809z M58.372,39.785c0,1.216,0,2.392,0,3.61c-1.81,0-3.594,0-5.484,0   c0.467,1.106,0.901,2.139,1.326,3.148c3.595-0.685,6.76-2.072,9.609-4.177c0.669-0.494,0.662-0.876-0.015-1.378   c-2.527-1.877-5.321-3.197-8.385-3.912c-1.158-0.271-2.345-0.419-3.616-0.64c0.112,1.204,0.211,2.26,0.312,3.348   C54.246,39.785,56.301,39.785,58.372,39.785z M44.03,53.915c3.952,0,7.981,0,11.925,0c-1.174-1.126-2.378-2.279-3.588-3.439   c-1.583,0-3.225,0-4.741,0C46.381,51.666,45.188,52.807,44.03,53.915z M44.421,57.556c2.904,3.02,8.387,2.933,11.143,0   C51.85,57.556,48.146,57.556,44.421,57.556z"/>
	<path fill-rule="evenodd" clip-rule="evenodd" fill="#000000" d="M27.923,75.151c-0.517-0.852-1.026-1.675-1.521-2.508   c-0.198-0.336-0.363-0.691-0.568-1.083c16.129,0,32.199,0,48.386,0c-0.728,1.231-1.418,2.397-2.112,3.569   c-6.789,0-13.522,0-20.284,0c0,0.985,0,1.933,0,2.926c5.911,0,11.816,0,17.721,0c0.025,0.041,0.05,0.082,0.075,0.124   c-0.814,0.748-1.609,1.52-2.45,2.237c-1.479,1.266-1.49,1.252-3.433,1.252c-3.773,0-7.547,0-11.321,0c-0.18,0-0.36,0-0.593,0   c0,1.344,0,2.668,0,4.023c-1.226,0-2.4,0-3.609,0c0-1.319,0-2.633,0-4.023c-0.223,0-0.412,0-0.602,0   c-4.235,0-8.471,0.005-12.706-0.014c-0.285-0.001-0.625-0.107-0.843-0.286c-1.254-1.023-2.479-2.085-3.713-3.132   c0.033-0.055,0.064-0.109,0.097-0.163c5.902,0,11.804,0,17.73,0c0-0.999,0-1.945,0-2.923   C41.436,75.151,34.718,75.151,27.923,75.151z"/>
	<path fill-rule="evenodd" clip-rule="evenodd" fill="#000000" d="M63.098,58.225c1.298,0,2.581,0,3.932,0   c-0.676,1.764-1.638,3.324-2.838,4.839c4.214,0,8.34,0,12.549,0c-0.241,1.241-0.471,2.428-0.703,3.624c-0.248,0-0.428,0-0.609,0   c-4.909,0-9.819-0.005-14.729,0.011c-0.291,0-0.616,0.093-0.868,0.241c-6.561,3.862-13.111,3.863-19.67-0.007   c-0.239-0.14-0.545-0.234-0.82-0.234c-4.91-0.016-9.82-0.011-14.73-0.011c-0.181,0-0.362,0-0.642,0   c-0.231-1.177-0.464-2.361-0.707-3.594c4.189,0,8.315,0,12.559,0c-1.196-1.533-2.169-3.089-2.85-4.856c1.341,0,2.635,0,3.931,0   C42.539,68.791,57.349,68.874,63.098,58.225z"/>
	<path fill-rule="evenodd" clip-rule="evenodd" fill="none" d="M58.372,39.785c-2.071,0-4.126,0-6.252,0   c-0.102-1.088-0.2-2.144-0.312-3.348c1.271,0.221,2.458,0.369,3.616,0.64c3.063,0.715,5.857,2.035,8.385,3.912   c0.677,0.502,0.684,0.884,0.015,1.378c-2.85,2.104-6.015,3.492-9.609,4.177c-0.425-1.01-0.859-2.042-1.326-3.148   c1.891,0,3.675,0,5.484,0C58.372,42.177,58.372,41.001,58.372,39.785z"/>
	<path fill-rule="evenodd" clip-rule="evenodd" fill="none" d="M44.03,53.915c1.159-1.108,2.351-2.249,3.596-3.439   c1.517,0,3.158,0,4.741,0c1.21,1.16,2.414,2.313,3.588,3.439C52.011,53.915,47.982,53.915,44.03,53.915z"/>
	<path fill-rule="evenodd" clip-rule="evenodd" fill="none" d="M44.421,57.556c3.724,0,7.428,0,11.143,0   C52.809,60.488,47.325,60.575,44.421,57.556z"/>
</g>
</svg>