<svg xmlns="http://www.w3.org/2000/svg" xmlns:xlink="http://www.w3.org/1999/xlink" version="1.1" x="0px" y="0px" width="100px" height="100px" viewBox="0 0 100 100" enable-background="new 0 0 100 100" xml:space="preserve">
<g id="Captions">
</g>
<g id="Your_Icon">
	<path fill="#000000" d="M29.772,64.106c0,0,13.228,9.888,30.145,4.558c16.724-5.27,28.365-18.893,28.365-41.159   c0,0-0.457,15.657-15.301,22.368c-5.929,2.679-19.826,5.694-31.62-7.93C33.361,32.7,31.806,8.902,53.51,1.113   C52.419,1.041,51.319,1,50.21,1c-27.062,0-49,21.938-49,49c0,27.062,21.938,49,49,49c24.885,0,45.435-18.552,48.58-42.578   c-3.396,9.219-17.167,23.138-34.553,24.257C53.687,81.357,39.837,77.628,29.772,64.106z"/>
</g>
</svg>