<svg xmlns="http://www.w3.org/2000/svg" xmlns:xlink="http://www.w3.org/1999/xlink" version="1.1" id="Layer_1" x="0px" y="0px" width="100px" height="100px" viewBox="0 0 100 100" enable-background="new 0 0 100 100" xml:space="preserve">
<g id="Captions">
</g>
<g id="Your_Icon">
	<path d="M99.4,49.287l-3.782-0.85l-20.132-4.521l16.088-12.89l2.978-2.385l-3.423-1.688l-7.74-3.817l-2.117-8.259l-0.931-3.626   l-2.933,2.328L61.589,26.14V5.782V2.045l-3.415,1.518L50,7.196l-8.174-3.633l-3.414-1.518v3.737V26.14l-15.82-12.56l-2.933-2.328   l-0.93,3.626l-2.118,8.259L8.87,26.954l-3.422,1.688l2.978,2.385l16.086,12.89l-20.13,4.521l-3.784,0.85l2.417,3.032l5.365,6.732   l-1.994,8.184l-0.912,3.742l3.769-0.789l20.244-4.242l-9.265,18.626l-1.843,3.702l4.132-0.195l8.759-0.417l5.216,7.093l2.352,3.2   l1.776-3.552L50,75.636l9.384,18.769l1.775,3.552l2.353-3.2l5.217-7.093l8.758,0.417l4.133,0.195l-1.842-3.702l-9.266-18.626   l20.244,4.242l3.768,0.789l-0.91-3.742l-1.993-8.184l5.364-6.732L99.4,49.287z M57.064,55.118l10.059,29.817L50,58.982   L32.876,84.936l10.059-29.816L12.04,58.23l29.099-10.657L19.225,25.061l27.063,16.885L50,10.212l3.712,31.733L80.773,25.06   L58.861,47.574l29.098,10.658L57.064,55.118z"/>
</g>
</svg>