<svg xmlns="http://www.w3.org/2000/svg" xmlns:xlink="http://www.w3.org/1999/xlink" version="1.1" x="0px" y="0px" width="100px" height="100px" viewBox="0 0 100 100" enable-background="new 0 0 100 100" xml:space="preserve">
<g id="Captions">
</g>
<g id="Your_Icon">
	<path d="M50,2.173c-27.122,0-49.109,21.987-49.109,49.11c0,21.629,13.984,39.994,33.404,46.543L25.37,74.033   c-1.408-3.258-2.19-6.85-2.19-10.625c0-14.813,12.008-26.821,26.82-26.821c14.813,0,26.82,12.008,26.82,26.821   c0,3.775-0.781,7.367-2.189,10.625L65.707,97.82c9.874-3.33,18.344-9.711,24.282-18.027c-1.694-0.732-2.882-2.418-2.882-4.385   c0-2.637,2.139-4.775,4.776-4.775c1.068,0,2.051,0.355,2.848,0.947c2.811-6.186,4.378-13.059,4.378-20.297   C99.109,24.161,77.122,2.173,50,2.173z"/>
	<circle cx="50" cy="63.652" r="19.717"/>
</g>
</svg>