<svg xmlns="http://www.w3.org/2000/svg" xmlns:xlink="http://www.w3.org/1999/xlink" version="1.1" x="0px" y="0px" width="100px" height="100px" viewBox="0 0 100 100" enable-background="new 0 0 100 100" xml:space="preserve">
<g id="Captions">
</g>
<g id="Your_Icon">
	<path id="Kanagawa" d="M78.156,72.524V59.48c9.052-4.537,15.284-13.902,15.284-24.698c0-13.58-9.855-24.893-22.787-27.184V2h-8.047   v5.361c-4.664,0.544-8.977,2.257-12.64,4.835c-3.45-2.429-7.476-4.094-11.833-4.733V2h-8.044v5.463   C16.762,9.418,6.497,20.921,6.497,34.782c0,10.822,6.261,20.204,15.347,24.731v13.011c0,12.97-8.981,16.649-16.516,17.453   l0.853,7.999c14.091-1.502,22.786-10.153,23.633-23.307h0.074V62.075V53.89V26.336h-8.044v23.679   c-4.449-3.59-7.303-9.084-7.303-15.232c0-10.791,8.779-19.57,19.571-19.57c3.604,0,6.981,0.984,9.884,2.69   C40.818,22,38.764,27.01,38.308,32.47h-0.035v0.549c-0.037,0.583-0.062,1.171-0.062,1.763c0,0.593,0.025,1.18,0.062,1.764v17.353   v8.179v19.428c0,0-0.206,9.255,3.193,12.844C42.986,95.952,45.578,98,50,98c3.258,0,6.062-1.188,8.107-3.433   c4.029-4.423,3.732-11.498,3.62-12.989V62.086v-8.172V34.782V32.47H61.63C61.173,27.01,59.12,22,55.942,17.901   c2.902-1.706,6.279-2.689,9.884-2.689c10.791,0,19.569,8.78,19.569,19.57c0,6.121-2.826,11.592-7.239,15.184v-23.63h-8.045v27.539   v8.188V74.67h0.073c0.848,13.153,9.543,21.805,23.634,23.307l0.854-7.999C87.136,89.174,78.156,85.494,78.156,72.524z    M52.159,89.149c-0.362,0.399-0.902,0.807-2.16,0.807c-1.493,0-2.1-0.475-2.463-0.887c-1.326-1.508-1.219-6.522-1.219-6.522V59.539   V36.324v-3.083c0.289-3.681,1.601-7.078,3.651-9.908c2.333,3.222,3.712,7.176,3.712,11.449v24.785v22.979   C53.681,82.547,53.527,87.648,52.159,89.149z"/>
</g>
</svg>