<svg xmlns="http://www.w3.org/2000/svg" xmlns:xlink="http://www.w3.org/1999/xlink" version="1.1" x="0px" y="0px" width="100px" height="100px" viewBox="0 0 100 100" enable-background="new 0 0 100 100" xml:space="preserve">
<g id="Captions">
</g>
<g id="Your_Icon">
	<path d="M98.696,16.896L84.9,20.132L58.737,57.876l-1.79-1.77l24.352-35.13L31.773,32.594l0.011,0.105   c7.063,2.457,11.899,5.653,15.224,10.997h-2.509l0,0c-4.445-5.549-11.277-9.103-18.939-9.103   c-13.396,0-24.256,10.859-24.256,24.255c0,13.396,10.86,24.256,24.256,24.256c9.636,0,17.959-5.619,21.873-13.761l2.033,1.65   c-4.396,7.444-12.405,12.11-12.405,12.11h15.863l3.582-5.181l4.846,5.181l9.088-13.661l-4.795-4.738L98.696,16.896z M25.56,67.571   c-4.81,0-8.723-3.913-8.723-8.724c0-4.81,3.913-8.722,8.723-8.722c4.809,0,8.722,3.913,8.722,8.722   C34.282,63.658,30.369,67.571,25.56,67.571z"/>
</g>
</svg>