<svg xmlns="http://www.w3.org/2000/svg" xmlns:xlink="http://www.w3.org/1999/xlink" version="1.1" x="0px" y="0px" width="100px" height="100px" viewBox="0 0 100 100" enable-background="new 0 0 100 100" xml:space="preserve">
<g id="Captions">
</g>
<g id="Your_Icon">
	<path fill-rule="evenodd" clip-rule="evenodd" d="M51.251,43.001c-1.419,2.734-4.541,7.205-6.667,10.597   c-4.062-1.833-6.457-4.832-7.931-8.616c-2.136-5.481-2.336-11.205-1.897-16.977c0.215-2.82,0.836-5.563,2.008-8.155   c2.517-5.564,6.739-8.768,12.924-8.94c5.956-0.166,10.092,2.927,12.96,7.887c2.109,3.646,2.808,7.696,2.917,11.851   c0.251,9.616-3.077,18.139-8.152,26.088c-1.414,2.212-3.041,4.288-4.607,6.479c0.466,0.214,0.986,0.453,1.604,0.737   c0.32-0.479,0.643-0.963,0.966-1.446c4.215-6.336,8.982-12.18,15.142-16.754c3.516-2.612,7.328-4.623,11.725-5.288   c9.325-1.411,14.914,3.912,16.512,11.798c0.681,3.354-0.202,6.431-1.814,9.283c-4.861,8.602-12.243,13.693-21.982,15.314   c-4.812,0.799-15.492-0.672-15.492-0.672s-3.341,8.367-4.231,12.912c-3.474,0-7.792,0-11.766,0   c1.247-5.49,3.472-10.805,5.865-15.902c0,0-3.377-1.225-4.565-2.412c0,0-0.828,0.568-1.162,0.803   c-2.898,2.039-5.957,3.762-9.431,4.576c-4.697,1.1-9.308,0.418-13.776-1.117C12.479,72.322,6.33,67.43,2.453,59.881   C-1.862,51.479,4.18,42.304,11.96,40.89c4.571-0.83,8.988,0.259,13.166,2.223c3.97,1.869,7.296,4.653,10.556,7.525   c2.473,2.182,4.945,4.363,7.462,6.583c3.299-3.627,5.996-7.507,8.215-11.722c1.958-3.717,3.59-7.562,4.089-11.777   c0.366-3.104,0.007-6.143-1.273-9.024c-0.269-0.601-0.649-1.171-1.067-1.681c-1.6-1.95-3.998-1.94-5.616,0.01   c-1.275,1.538-1.746,3.406-2.068,5.316c-0.671,3.958-0.45,7.828,1.238,11.533c0.26,0.57,0.516,1.166,0.914,1.648   C49.471,43.818,51.185,42.886,51.251,43.001z M64.907,66.26c0.031,0.15,0.062,0.299,0.093,0.449c1.912,0,3.833,0.125,5.734-0.025   c4.876-0.381,9.09-2.467,12.941-5.356c1.695-1.274,3.264-2.699,4.209-4.656c1.373-2.841-0.325-5.513-3.462-5.489   c-2.401,0.019-4.576,0.814-6.618,1.993C72.299,56.35,68.422,61.131,64.907,66.26z M35.063,63.998   c-3.718-3.188-7.218-6.337-10.881-9.282c-2.488-1.999-5.381-3.243-8.67-3.276c-2.065-0.02-3.613,1.313-3.571,3.387   c0.021,1.041,0.383,2.223,0.97,3.082c2.851,4.168,6.806,6.824,11.71,8.043C28.292,66.865,31.643,65.984,35.063,63.998z"/>
</g>
</svg>