<svg xmlns="http://www.w3.org/2000/svg" xmlns:xlink="http://www.w3.org/1999/xlink" version="1.1" x="0px" y="0px" width="100px" height="100px" viewBox="0 0 100 100" enable-background="new 0 0 100 100" xml:space="preserve">
<g id="Captions">
</g>
<g id="Your_Icon">
	<path fill-rule="evenodd" clip-rule="evenodd" d="M63.168,58.386c2.207-1.901,3.819-3.956,5.388-6.037   c3.807-5.049,7.371-10.247,8.943-16.496c0.996-3.969,0.681-7.705-2.862-10.398c-2.656-2.018-5.778-1.734-8.856-1.316   c-0.739,0.101-1.466,0.297-2.215,0.341c7.915-4.105,16.085-7.069,25.15-4.488c6.38,1.816,10.471,7.434,10.641,14.078   c0.21,8.062-2.675,15.172-7.137,21.634c-7.747,11.219-17.801,19.577-30.999,23.71c-4.979,1.56-10.058,2.142-15.222,0.858   c-6.742-1.672-11.246-7.328-11.493-14.265c-0.183-5.096,1.102-9.992,1.825-14.966c0.591-4.062,1.465-8.156,0.56-12.239   c-1.322-5.964-5.051-9.675-11.103-10.936c-0.311-0.064-0.608-0.19-1.102-0.348c6.062-4.11,12.393-7.066,19.524-8.125   c3.28-0.487,6.541-0.524,9.783,0.29c6.822,1.71,11.281,7.183,11.456,14.26c0.192,7.81-0.925,15.511-2.119,23.2   C63.281,57.454,63.247,57.769,63.168,58.386z"/>
	<path fill-rule="evenodd" clip-rule="evenodd" d="M36.352,75.47c-6.91,3.758-14.134,6.31-22.228,5.195   C6.228,79.577,0.898,73.73,0.647,65.733C0.39,57.535,3.594,50.472,7.995,43.841c2.28-3.437,5.028-6.496,7.998-9.357   c3.803-3.666,9.817-4.031,13.615-0.809c4.22,3.581,5.083,9.374,1.88,13.872c-2.672,3.755-5.356,7.479-7.243,11.715   c-1.054,2.367-1.793,4.812-2.139,7.379c-0.761,5.663,4.056,10.346,9.891,9.579C33.456,76.028,34.9,75.722,36.352,75.47z"/>
</g>
</svg>