<svg xmlns="http://www.w3.org/2000/svg" xmlns:xlink="http://www.w3.org/1999/xlink" version="1.1" x="0px" y="0px" width="100px" height="100px" viewBox="0 0 100 100" enable-background="new 0 0 100 100" xml:space="preserve">
<g id="Captions">
</g>
<g id="Your_Icon">
	<path fill-rule="evenodd" clip-rule="evenodd" d="M50.489,5.288c-1.521,0.432-2.903,0.824-4.386,1.244   c-0.412-1.118-0.813-2.207-1.275-3.46c1.747-0.487,3.395-0.945,5.195-1.447C50.2,3.017,50.347,4.168,50.489,5.288z"/>
	<path fill-rule="evenodd" clip-rule="evenodd" d="M59.851,17.454c-1.546-0.083-3.113,0.263-4.685,0.415c0-0.627,0-1.366,0-1.957   c1.835-1.03,3.705-1.843,5.282-3.043c1.195-0.909,2.311-2.172,2.945-3.521c1.531-3.245-0.146-6.391-3.489-6.737   c-2.653-0.274-5.074,0.524-7.112,2.301c-0.982,0.856-1.414,1.966-1.401,3.271c0.018,1.668,0.005,3.338,0.005,5.072   c-0.994,0.373-1.915,0.716-2.967,1.11c0-1.892,0-3.627,0-5.404c-1.23,0-2.37,0-3.634,0c0,1.197,0,2.335,0,3.622   c-2.083-0.321-4.115-0.205-5.915-1.596c1.03-2.118,3.04-2.808,4.913-3.743c-0.417-1.153-0.815-2.26-1.226-3.399   c-2.447,0.929-4.615,2.107-6.204,4.142c-1.834,2.347-1.349,5.027,1.2,6.564c0.504,0.304,1.052,0.581,1.616,0.728   c1.455,0.378,2.929,0.678,4.461,1.024c-0.98,0.572-1.97,1.118-2.927,1.718c-1.962,1.232-3.582,2.776-4.396,5.021   c-0.899,2.48-0.253,4.648,1.805,5.821c3.514,2.002,10.028,0.055,10.307-5.676c0.079-1.589,0.013-3.187,0.013-4.854   c0.985-0.374,1.906-0.725,3.001-1.141c0,2.483,0,4.8,0,7.266c1.309-0.785,2.437-1.496,3.595-2.149   c1.372-0.774,2.811-1.389,4.436-1.26c1.456,0.114,2.065,1.146,1.199,2.297c-0.759,1.01-1.725,2.015-2.828,2.582   c-1.544,0.795-3.299,1.183-5.072,1.782c0,0.932,0,2.1,0,3.434c1.148-0.181,2.222-0.263,3.251-0.526   c3.396-0.868,6.319-2.51,8.021-5.708C65.924,21.374,63.845,17.668,59.851,17.454z M55.189,7.673   c1.372-1.134,2.949-1.578,4.767-1.343c0.597,1.145,0.12,2.105-0.687,2.771c-1.205,0.995-2.569,1.8-4.08,2.833   C55.189,10.276,55.189,8.998,55.189,7.673z M43.167,25.462c-1.292,0.713-2.6,0.646-3.49-0.122c0.023-2.049,2.285-4.417,5.136-5.234   C44.706,22.111,45.394,24.229,43.167,25.462z"/>
	<path d="M12.964,49.692c0-8.003,2.488-15.62,7.092-21.96c0.691-0.951,1.43-1.873,2.216-2.764l-2.859-2.497l-3.592-3.137   c0.71-0.825,1.453-1.627,2.225-2.405c3.135-3.155,6.66-5.798,10.513-7.889L26.77,5.695c-5.252,2.851-9.93,6.639-13.809,11.142   l-1.229-1.073L9.185,18.68l1.365,1.192C4.549,28.056,1,38.172,1,49.124C1,75.507,21.583,97.05,47.468,98.376V94.57   c-5.206-0.287-10.259-1.459-15.054-3.501c-5.381-2.29-10.215-5.57-14.369-9.751c-4.154-4.181-7.416-9.049-9.694-14.47   c-2.358-5.611-3.553-11.574-3.553-17.725c0-6.149,1.195-12.113,3.553-17.723c1.35-3.211,3.047-6.227,5.067-9.022l3.573,3.12   c-4.919,6.788-7.826,15.149-7.826,24.193c0,21.841,16.93,39.7,38.302,41.018v-3.806c-8.935-0.602-17.253-4.394-23.647-10.827   C16.82,69.03,12.964,59.66,12.964,49.692z"/>
	<path d="M20.901,20.641l2.737,2.773c1.128-1.135,2.331-2.185,3.588-3.157l-2.495-3.038C23.38,18.274,22.1,19.416,20.901,20.641z"/>
	<path d="M28.479,19.331c1.345-0.952,2.747-1.817,4.201-2.583l-1.848-3.456c-1.616,0.843-3.167,1.791-4.643,2.837L28.479,19.331z"/>
	<path d="M77.898,8.58c-0.97-0.676-1.965-1.318-2.981-1.925l-1.945,3.258l-2.456,4.114l-1.942,3.251   c1.024,0.589,2.021,1.229,2.988,1.918c1.71,1.219,3.329,2.593,4.842,4.114c7.001,7.046,10.856,16.416,10.856,26.383   c0,9.968-3.855,19.338-10.856,26.385c-6.393,6.434-14.714,10.224-23.646,10.827v3.806c21.371-1.318,38.3-19.177,38.3-41.018   c0-9.14-2.966-17.583-7.981-24.409l3.473-2.951c2.034,2.808,3.743,5.839,5.101,9.068c2.359,5.61,3.555,11.574,3.555,17.723   c0,6.151-1.195,12.114-3.555,17.725c-2.278,5.421-5.54,10.289-9.694,14.47c-4.152,4.181-8.987,7.461-14.367,9.751   c-4.797,2.042-9.849,3.214-15.056,3.501v3.806C78.418,97.05,99,75.507,99,49.124C99,32.322,90.647,17.484,77.898,8.58z    M80.854,22.517c-2.174-2.48-4.642-4.69-7.346-6.584l2.44-4.088c2.131,1.509,4.138,3.205,6.006,5.084   c0.837,0.843,1.638,1.714,2.401,2.612L80.854,22.517z"/>
</g>
</svg>