<svg xmlns="http://www.w3.org/2000/svg" xmlns:xlink="http://www.w3.org/1999/xlink" version="1.1" id="Layer_1" x="0px" y="0px" width="100px" height="100px" viewBox="0 0 100 100" enable-background="new 0 0 100 100" xml:space="preserve">
<g id="Captions">
</g>
<g id="Your_Icon">
	<path d="M99.235,46.822c-0.666-4.092-2.719-7.799-5.777-10.439c-3.062-2.642-7.018-4.115-11.139-4.149h-0.141   c-1.307,0-2.492,0.13-3.63,0.398c-8.255,1.944-13.651,8.954-13.43,17.443c0.03,1.112-0.247,2.021-0.845,2.782   c-0.836,1.061-2.156,1.694-3.531,1.694c-0.001,0-0.001,0-0.001,0c-0.404,0-0.806-0.056-1.19-0.165   c-1.834-0.52-3.258-2.031-3.457-3.677c-0.261-2.133,0.442-3.55,2.28-4.592c6.526-3.703,9.927-11.048,8.464-18.28   C65.19,19.69,58.245,14,49.95,14c-0.901,0-1.817,0.069-2.721,0.207c-4.367,0.662-8.414,3.153-11.103,6.837   c-2.714,3.718-3.821,8.185-3.118,12.575c0.886,5.521,3.825,9.754,8.738,12.579c1.334,0.767,2.028,1.806,2.183,3.269   c0.132,1.26-0.262,2.485-1.111,3.452c-0.884,1.008-2.177,1.606-3.548,1.64c-1.198,0.029-2.48-0.514-3.317-1.406   c-0.786-0.838-1.16-1.946-1.078-3.199c0.076-1.18-0.021-2.428-0.296-3.81c-0.788-3.97-2.917-7.54-5.995-10.049   c-3.041-2.481-6.898-3.847-10.861-3.847c-1.052,0-2.121,0.096-3.172,0.284c-4.447,0.799-8.48,3.463-11.065,7.309   c-2.579,3.837-3.52,8.565-2.582,12.971c1.725,8.115,8.67,13.783,16.885,13.783c0.001,0,0.001,0,0.002,0   c3.065,0,6.06-0.836,8.658-2.412c0.755-0.459,1.546-0.646,2.348-0.558c2.446,0.276,4.11,2.196,4.047,4.667   c-0.029,1.111,0.025,2.104,0.163,3.025c0.613,4.092,2.649,7.826,5.732,10.518C41.818,84.521,45.746,86,49.8,86   c0.578,0,1.162-0.03,1.74-0.089c3.566-0.367,6.631-1.55,9.104-3.517c2.429-1.931,4.304-4.625,5.574-8.017   c0.793-2.112,0.896-4.228,0.943-6.571c0.042-2.011,1.715-4.181,4.347-4.181c0.72,0,1.402,0.187,2.027,0.552   c2.717,1.586,5.629,2.393,8.659,2.393c0.939,0,1.906-0.076,2.875-0.23c4.445-0.701,8.386-3.15,11.096-6.896   C98.862,55.712,99.953,51.23,99.235,46.822z M82.263,43.263l0.008,1.224c1.321,0.001,2.555,0.512,3.476,1.437   c0.93,0.935,1.438,2.19,1.435,3.535c-0.011,2.68-2.215,4.871-4.91,4.883h-0.021c-1.299,0-2.533-0.521-3.473-1.467   c-0.941-0.948-1.455-2.191-1.447-3.498c0.016-2.698,2.229-4.891,4.934-4.891V43.263L82.263,43.263z M49.997,63.932h0.019   c2.709,0.01,4.911,2.215,4.904,4.918c-0.006,2.715-2.215,4.926-4.93,4.931c-1.304,0-2.537-0.517-3.471-1.455   c-0.942-0.944-1.458-2.195-1.452-3.519C45.08,66.118,47.291,63.932,49.997,63.932z M54.92,31.21   c-0.022,2.678-2.233,4.855-4.93,4.855h-0.041c-2.708-0.021-4.898-2.239-4.882-4.944c0.017-2.705,2.218-4.905,4.908-4.905h0.031   c1.319,0.009,2.556,0.534,3.486,1.478C54.426,28.639,54.931,29.888,54.92,31.21z M22.662,49.413   c-0.01,2.671-2.267,4.929-4.932,4.929c-2.714-0.001-4.921-2.211-4.92-4.925c0-2.765,2.165-4.93,4.928-4.93h0.02   C20.471,44.496,22.671,46.707,22.662,49.413z"/>
</g>
</svg>