<svg xmlns="http://www.w3.org/2000/svg" xmlns:xlink="http://www.w3.org/1999/xlink" version="1.1" x="0px" y="0px" width="100px" height="100px" viewBox="0 0 100 100" enable-background="new 0 0 100 100" xml:space="preserve">
<g id="Captions">
</g>
<g id="Your_Icon">
	<path fill-rule="evenodd" clip-rule="evenodd" d="M0.5,43.02c2.964-6.913,11.122-9.53,17.861-5.736   c1.654,0.932,3.077,2.146,4.29,3.59c3.083,3.673,0.862,9.831-3.866,10.683c-0.807,0.146-1.676,0.117-2.493-0.001   c-1.297-0.186-2.426-0.779-3.125-1.947c-0.689-1.151-1.312-2.343-1.967-3.515c-0.39-0.697-0.732-1.427-1.187-2.079   c-1.562-2.239-3.527-2.761-6.027-1.667c-0.855,0.375-1.718,0.732-2.586,1.076c-0.355,0.141-0.691,0.097-0.9-0.285   C0.5,43.099,0.5,43.06,0.5,43.02z"/>
	<path fill-rule="evenodd" clip-rule="evenodd" d="M99.5,56.861c-1.107,1.807-2.408,3.456-4.073,4.777   c-3.891,3.083-8.145,3.349-12.62,1.513c-2.235-0.916-4.233-2.189-5.651-4.213c-1.872-2.672-1.794-6.367,0.165-8.606   c1.668-1.906,4.545-2.741,6.623-1.896c1.393,0.565,2.398,1.602,3.2,2.829c0.531,0.814,0.96,1.695,1.445,2.541   c0.36,0.625,0.692,1.272,1.113,1.853c1.554,2.134,3.354,2.693,5.846,1.821c0.846-0.295,1.644-0.724,2.491-1.01   c0.457-0.153,0.972-0.136,1.461-0.194C99.5,56.471,99.5,56.666,99.5,56.861z"/>
	<path fill-rule="evenodd" clip-rule="evenodd" d="M57.271,0.675c3.906,1.88,6.078,5.065,6.682,9.27   c0.72,5.007-0.902,9.205-4.863,12.4c-1.795,1.448-3.839,2.173-6.17,1.479c-2.788-0.829-4.631-3.21-4.717-6.034   c-0.084-2.767,1.552-5.087,4.249-6.181c1.094-0.444,2.203-0.939,3.16-1.617c2.317-1.64,2.872-3.952,1.733-6.557   c-0.272-0.624-0.583-1.237-0.773-1.885c-0.073-0.249,0.146-0.582,0.231-0.876C56.959,0.675,57.116,0.675,57.271,0.675z"/>
	<path fill-rule="evenodd" clip-rule="evenodd" d="M35.558,87.043c0.082-3.318,1.716-6.796,4.823-9.547   c2.649-2.346,6.838-2.174,9.412,0.242c2.487,2.332,2.572,7.186-0.695,9.456c-0.815,0.565-1.686,1.054-2.548,1.547   c-0.609,0.349-1.239,0.661-1.874,0.96c-1.701,0.8-2.421,2.188-2.413,4.004c0.006,1.417,0.198,2.798,0.879,4.075   c0.182,0.34,0.309,0.716,0.406,1.09c0.096,0.368-0.117,0.519-0.462,0.43c-0.243-0.063-0.477-0.173-0.702-0.288   C38.062,96.806,35.562,92.734,35.558,87.043z"/>
	<path fill-rule="evenodd" clip-rule="evenodd" d="M31.97,31.993c-0.32,0.346-0.6,0.744-0.966,1.029   c-1.96,1.516-4.203,2.448-6.582,3.069c-1.032,0.269-2.059,0.743-3.147,0.47c-4.915-1.232-9.091-3.488-11.162-8.453   c-1.032-2.474-1.082-4.964,0.533-7.251c1.058-1.498,2.5-2.539,4.345-2.841c0.65-0.106,1.41-0.105,2.01,0.129   c2.772,1.08,4.781,2.929,5.365,5.976c0.168,0.875,0.058,1.8,0.191,2.685c0.125,0.84,0.295,1.702,0.63,2.475   c0.817,1.885,2.858,2.841,5.128,2.566c0.909-0.111,1.828-0.147,2.744-0.19c0.26-0.011,0.525,0.075,0.788,0.117   C31.888,31.847,31.929,31.919,31.97,31.993z"/>
	<path fill-rule="evenodd" clip-rule="evenodd" d="M90.612,23.938c-0.029,6.589-4.653,12.044-11.204,13.216   c-2.05,0.367-4.04,0.303-5.95-0.598c-2.401-1.133-3.851-3.624-3.669-6.282c0.196-2.863,1.765-5.047,4.22-5.823   c1.637-0.517,3.285-0.404,4.893,0.111c0.67,0.214,1.258,0.785,1.927,0.877c1.344,0.184,2.717,0.202,4.077,0.189   c0.854-0.008,1.516-0.498,1.902-1.272c0.393-0.784,0.723-1.598,1.112-2.383c0.355-0.715,0.722-1.428,1.141-2.106   c0.369-0.6,0.693-0.567,0.948,0.104c0.205,0.541,0.346,1.119,0.425,1.693C90.54,22.415,90.557,23.178,90.612,23.938z"/>
	<path fill-rule="evenodd" clip-rule="evenodd" d="M24.015,9.249c6.38-0.15,11.938,4.593,12.852,10.905   c0.22,1.519,0.244,3.023,0.041,4.549c-0.372,2.789-2.034,4.335-4.625,5.125c-4.476,1.364-7.581-1.803-8.139-4.661   c-0.375-1.926,0.149-3.7,0.911-5.449c0.376-0.867,0.735-1.771,0.899-2.694c0.251-1.414-0.298-2.655-1.399-3.534   c-0.828-0.66-1.808-1.131-2.723-1.681c-0.533-0.32-1.111-0.579-1.599-0.956c-0.528-0.409-0.465-0.892,0.163-1.104   c0.73-0.247,1.508-0.373,2.273-0.489C23.108,9.194,23.566,9.249,24.015,9.249z"/>
	<path fill-rule="evenodd" clip-rule="evenodd" d="M75.268,9.396c3.643,0.067,6.287,2.731,6.412,6.37   c0.144,4.132-2.438,5.76-5.459,6.366c-1.488,0.299-3.015,0.443-4.479,0.828c-2.438,0.641-3.489,2.103-3.586,4.63   c-0.033,0.876-0.098,1.755-0.229,2.62c-0.047,0.304-0.311,0.781-0.516,0.802c-0.286,0.032-0.708-0.216-0.9-0.473   c-1.333-1.773-2.203-3.776-2.629-5.943c-1.587-8.07,4.546-13.692,9.48-14.915C73.983,9.529,74.633,9.489,75.268,9.396z"/>
	<path fill-rule="evenodd" clip-rule="evenodd" d="M75.206,50.469c0.124-3.9,1.179-7.372,3.674-10.334   c1.852-2.196,4.24-3.237,7.029-3.526c2.452-0.254,4.877-0.153,7.252,0.556c2.854,0.852,5.148,3.688,5.288,6.508   c0.153,3.075-2.822,6.276-5.903,6.385c-1.996,0.071-3.699-0.646-5.249-1.827c-0.746-0.568-1.451-1.196-2.234-1.706   c-2.384-1.551-4.515-1.4-6.622,0.507c-1.013,0.916-1.922,1.944-2.871,2.93C75.427,50.11,75.326,50.299,75.206,50.469z"/>
	<path fill-rule="evenodd" clip-rule="evenodd" d="M10.132,80.832c-0.236-0.894-0.561-1.771-0.691-2.679   c-0.532-3.674,0.242-7.111,2.149-10.266c0.46-0.762,1.173-1.434,1.905-1.956c2.895-2.069,6.095-3.296,9.716-3.2   c1.476,0.039,2.828,0.45,3.913,1.469c0.779,0.731,1.553,1.5,2.172,2.364c1.344,1.872,1.362,3.853-0.012,5.706   c-0.771,1.039-1.736,1.951-2.697,2.829c-1.091,0.997-2.426,1.112-3.793,0.675c-1.335-0.428-2.639-0.957-3.978-1.369   c-0.72-0.224-1.479-0.356-2.231-0.425c-1.695-0.155-2.979,0.597-3.789,2.042c-0.656,1.17-1.159,2.424-1.743,3.636   c-0.192,0.397-0.428,0.774-0.644,1.16C10.316,80.823,10.224,80.827,10.132,80.832z"/>
	<path fill-rule="evenodd" clip-rule="evenodd" d="M11.702,63.533c-3.166-0.043-5.817-0.81-8.01-2.796   c-0.544-0.493-1.048-1.062-1.449-1.676c-1.13-1.727-1.214-3.551-0.258-5.384c0.836-1.602,2.094-2.82,3.664-3.69   c1.592-0.881,3.196-0.645,4.68,0.245c1.133,0.68,2.152,1.545,3.245,2.295c0.914,0.627,1.822,1.282,2.803,1.788   c1.227,0.632,2.483,0.492,3.583-0.35c0.71-0.543,1.332-1.2,2.004-1.793c0.643-0.568,1.272-1.155,1.957-1.668   c0.512-0.383,0.826-0.224,0.717,0.389c-0.237,1.335-0.5,2.68-0.93,3.961c-0.646,1.929-1.473,3.793-2.995,5.232   c-2.127,2.01-4.724,2.973-7.579,3.332C12.574,63.488,12.006,63.51,11.702,63.533z"/>
	<path fill-rule="evenodd" clip-rule="evenodd" d="M36.257,11.411c0.086-2.935,0.773-5.491,2.635-7.579   c1.681-1.885,3.811-2.826,6.352-2.214c2.502,0.602,4.089,2.269,4.78,4.736c0.509,1.815,0.123,3.551-0.845,5.106   c-0.612,0.983-1.421,1.852-2.194,2.724c-0.724,0.817-1.346,1.672-1.566,2.761c-0.345,1.709,0.309,3.106,1.434,4.317   c0.61,0.656,1.33,1.21,1.941,1.866c0.269,0.288,0.388,0.714,0.575,1.078c-0.422,0.082-0.855,0.272-1.264,0.23   c-7.333-0.746-10.896-6.285-11.675-11.167C36.321,12.597,36.302,11.911,36.257,11.411z"/>
	<path fill-rule="evenodd" clip-rule="evenodd" d="M75.524,90.558c-3.856,0.19-6.814-1.55-9.302-4.294   c-1.497-1.65-2.764-3.453-3.241-5.678c-0.46-2.133-0.404-4.272,0.194-6.376c0.852-3,2.79-4.384,6.164-4.395   c1.836-0.005,3.44,0.698,4.807,1.981c1.617,1.521,2.149,3.297,1.484,5.415c-0.496,1.58-0.971,3.168-1.545,4.721   c-0.655,1.771-0.133,3.213,1.09,4.488c0.896,0.933,1.988,1.556,3.245,1.896c0.504,0.136,1.011,0.306,1.474,0.541   c0.523,0.265,0.533,0.595,0.001,0.815c-0.73,0.302-1.5,0.541-2.275,0.699C76.938,90.512,76.224,90.502,75.524,90.558z"/>
	<path fill-rule="evenodd" clip-rule="evenodd" d="M77.591,63.515c5.717,0.12,11.127,4.247,12.469,9.626   c0.813,3.261-0.423,6.353-3.13,7.801c-3.101,1.658-7.922,0.909-9.107-4.429c-0.23-1.038-0.227-2.129-0.34-3.194   c-0.37-3.456-1.956-4.937-5.445-5.067c-0.841-0.032-1.682-0.017-2.521-0.026c-0.137-0.001-0.275-0.011-0.41-0.032   c-0.768-0.12-0.836-0.308-0.358-0.919c1.3-1.659,3.07-2.582,5.052-3.094C75.038,63.86,76.326,63.729,77.591,63.515z"/>
	<path fill-rule="evenodd" clip-rule="evenodd" d="M24.884,90.316c-1.484,0.027-2.809-0.428-3.962-1.348   c-1.13-0.899-1.999-2.027-2.689-3.288c-0.496-0.907-0.567-1.892-0.189-2.83c0.419-1.045,0.91-2.071,1.486-3.036   c0.899-1.507,2.408-1.952,4.048-2.064c1.227-0.084,2.465-0.061,3.679-0.227c3.292-0.448,4.728-2.707,4.521-5.921   c-0.048-0.759-0.077-1.523-0.033-2.28c0.016-0.289,0.259-0.565,0.398-0.848c0.253,0.16,0.519,0.305,0.754,0.487   c0.136,0.104,0.233,0.264,0.33,0.409c1.522,2.292,2.68,4.748,3.306,7.438c0.267,1.146-0.002,2.253-0.377,3.325   c-1.101,3.157-2.78,5.947-5.455,8.014C29.007,89.455,27.083,90.293,24.884,90.316z"/>
	<path fill-rule="evenodd" clip-rule="evenodd" d="M63.4,88c-0.003,2.214-0.428,4.336-1.341,6.362   c-1.079,2.398-2.907,3.669-5.547,3.657c-1.145-0.004-2.297-0.085-3.428-0.251c-0.439-0.063-0.927-0.369-1.228-0.711   c-1.255-1.424-2.158-3.063-2.542-4.936c-0.089-0.434-0.014-1.012,0.216-1.38c0.812-1.305,1.693-2.571,2.608-3.808   c0.932-1.256,1.932-2.46,2.337-4.017c0.27-1.039,0.149-2.045-0.495-2.899c-0.536-0.711-1.192-1.332-1.811-1.979   c-0.513-0.535-1.068-1.03-1.558-1.586c-0.157-0.179-0.298-0.58-0.205-0.723c0.125-0.191,0.481-0.314,0.743-0.319   c2.491-0.046,4.713,0.777,6.707,2.226c2.219,1.61,4.128,3.514,4.936,6.217c0.397,1.33,0.521,2.741,0.771,4.116   C63.51,87.979,63.455,87.989,63.4,88z"/>
</g>
</svg>