<svg xmlns="http://www.w3.org/2000/svg" xmlns:xlink="http://www.w3.org/1999/xlink" version="1.1" x="0px" y="0px" width="100px" height="100px" viewBox="0 0 100 100" enable-background="new 0 0 100 100" xml:space="preserve">
<g id="Captions">
</g>
<g id="Your_Icon">
	<path fill-rule="evenodd" clip-rule="evenodd" d="M18.444,91.67c-5.411,0-10.823,0-16.234,0c-0.887,0-0.935-0.045-0.936-0.904   C1.273,82.9,1.167,75.037,1.301,67.172c0.133-7.748,4.306-16.039,14.643-18.884c3.137-0.864,6.324-1.008,9.556-0.958   c5.821,0.089,11.645,0.064,17.468,0.122c2.511,0.024,5.012,0.031,7.487-0.497c3.601-0.769,6.936-2.09,9.729-4.562   c2.936-2.598,4.626-5.901,4.97-9.757c0.288-3.255,0.228-6.543,0.273-9.816c0.063-4.587,0.083-9.173,0.113-13.761   c0.005-0.462,0.185-0.681,0.667-0.681c10.544,0.006,21.086,0.01,31.628,0.001c0.526,0,0.686,0.224,0.686,0.708   c-0.005,8.482,0.038,16.965-0.033,25.447c-0.018,2.16-0.783,4.218-1.626,6.201c-2.174,5.122-5.651,8.978-10.903,11.076   c-2.474,0.988-5.05,1.512-7.709,1.531c-7.473,0.055-14.943,0.029-22.412,0.154c-1.56,0.027-3.133,0.48-4.661,0.883   c-3.619,0.949-7.042,2.365-10.062,4.635c-2.523,1.896-4.435,4.236-5.151,7.381c-0.21,0.92-0.303,1.887-0.306,2.834   c-0.024,7.191-0.013,14.381-0.013,21.57c0,0.809-0.062,0.871-0.853,0.871C29.342,91.67,23.893,91.67,18.444,91.67z"/>
	<path fill-rule="evenodd" clip-rule="evenodd" d="M76.885,56.721c7.021,0,14.041,0,21.062,0c0.356,0,0.793-0.045,0.819,0.447   c0.025,0.488-0.419,0.498-0.768,0.547c-3.497,0.496-7.01,0.904-10.491,1.498c-4.868,0.828-9.637,2.074-14.23,3.92   c-3.238,1.303-6.334,2.869-8.992,5.178c-1.98,1.717-3.615,3.688-4.277,6.299c-0.122,0.486-0.193,0.998-0.194,1.496   c-0.012,4.906-0.004,9.811-0.002,14.719c0,0.84-0.034,0.875-0.897,0.875c-6.291,0-12.583,0-18.874,0   c-0.84,0-0.892-0.051-0.892-0.895c0-6.908,0.032-13.818-0.012-20.727c-0.025-3.9,1.627-6.867,4.748-9.092   c2.888-2.061,6.181-3.098,9.604-3.828c2.358-0.502,4.737-0.305,7.107-0.32c5.43-0.035,10.859-0.01,16.289-0.01   C76.885,56.791,76.885,56.754,76.885,56.721z"/>
	<path fill-rule="evenodd" clip-rule="evenodd" d="M65.849,77.564c0.015-5.15,3.257-9.684,8.271-11.561   c5.237-1.959,11.293-0.391,14.776,3.828c4.489,5.436,3.532,13.266-2.141,17.525c-6.631,4.979-16.349,2.65-19.802-4.742   C66.207,81.02,65.845,79.355,65.849,77.564z"/>
	<path fill-rule="evenodd" clip-rule="evenodd" d="M50.136,8.32c0,5.231,0,10.445,0,15.762C43.443,18.816,36.811,13.598,30.103,8.32   C36.821,8.32,43.45,8.32,50.136,8.32z"/>
	<path fill-rule="evenodd" clip-rule="evenodd" d="M8.807,23.852c0-5.247,0-10.388,0-15.551c6.624,0,13.223,0,19.984,0   C22.085,13.52,15.479,18.661,8.807,23.852z"/>
	<path fill-rule="evenodd" clip-rule="evenodd" d="M50.153,32.626c-2.311-1.817-4.528-3.561-6.743-5.305   c-4.322-3.401-8.646-6.799-12.956-10.214c-0.199-0.157-0.38-0.473-0.384-0.715c-0.029-2.265-0.018-4.53-0.018-6.879   c0.155,0.097,0.274,0.157,0.378,0.239c6.455,5.075,12.909,10.151,19.356,15.237c0.168,0.132,0.35,0.374,0.352,0.566   C50.161,27.873,50.153,30.191,50.153,32.626z"/>
	<path fill-rule="evenodd" clip-rule="evenodd" d="M28.661,41.341c-6.415,0-12.789,0-19.297,0   c6.48-5.042,12.859-10.005,19.297-15.013C28.661,31.381,28.661,36.348,28.661,41.341z"/>
	<path fill-rule="evenodd" clip-rule="evenodd" d="M50.153,40.99c-2.442-1.92-4.777-3.757-7.112-5.594   c-4.163-3.274-8.321-6.553-12.492-9.816c-0.357-0.279-0.513-0.561-0.508-1.025c0.026-2.147,0.011-4.294,0.011-6.529   c0.196,0.132,0.331,0.213,0.454,0.31c6.413,5.043,12.824,10.089,19.241,15.128c0.288,0.227,0.419,0.456,0.416,0.837   C50.143,36.487,50.153,38.672,50.153,40.99z"/>
	<path fill-rule="evenodd" clip-rule="evenodd" d="M8.782,32.241c0-2.365-0.01-4.629,0.017-6.894   c0.002-0.207,0.196-0.468,0.375-0.608c4.096-3.203,8.201-6.394,12.305-9.585c2.273-1.769,4.548-3.535,6.822-5.303   C28.4,9.775,28.5,9.7,28.688,9.556c0,0.535,0,0.974,0,1.412c0,1.797,0.011,3.594-0.013,5.391c-0.003,0.219-0.132,0.509-0.299,0.641   c-6.396,4.997-12.805,9.98-19.211,14.964C9.065,32.041,8.961,32.111,8.782,32.241z"/>
	<path fill-rule="evenodd" clip-rule="evenodd" d="M28.688,18.013c0,2.292,0.011,4.539-0.018,6.784   c-0.002,0.223-0.202,0.506-0.393,0.656c-4.776,3.731-9.563,7.448-14.348,11.168c-1.682,1.308-3.361,2.618-5.097,3.969   c-0.022-0.169-0.049-0.285-0.049-0.4c-0.003-2.115-0.009-4.23,0.009-6.346c0.002-0.207,0.101-0.488,0.254-0.608   c6.486-5.066,12.983-10.119,19.48-15.172C28.552,18.045,28.591,18.043,28.688,18.013z"/>
	<path fill-rule="evenodd" clip-rule="evenodd" d="M49.129,41.353c-6.437,0-12.72,0-19.04,0c0-4.968,0-9.92,0-14.979   C36.421,31.354,42.714,36.305,49.129,41.353z"/>
</g>
</svg>