<svg xmlns="http://www.w3.org/2000/svg" xmlns:xlink="http://www.w3.org/1999/xlink" version="1.1" id="Layer_1" x="0px" y="0px" width="100px" height="100px" viewBox="0 0 100 100" enable-background="new 0 0 100 100" xml:space="preserve">
<g id="Captions">
</g>
<g id="Your_Icon">
	<g id="Tokyo">
		<path d="M92.089,73.322c-0.506-1.879-0.989-3.664-1.452-5.381l-0.129-0.479L73.611,57.7c0.824-2.556,1.228-5.095,1.229-7.728    c0.002-2.515-0.409-5.094-1.228-7.679l16.9-9.766l1.883-7.017l-7.013-1.88l-16.926,9.766c-1.772-1.959-3.763-3.571-6.054-4.909    c-2.172-1.269-4.555-2.187-7.252-2.794V6.505l-5.241-5.201L44.82,6.366v19.34c-2.574,0.555-5.015,1.496-7.271,2.803    c-2.191,1.271-4.211,2.911-6.021,4.883l-16.921-9.766l-7.01,1.895l1.895,7.01l16.897,9.767    c-1.622,5.099-1.624,10.271-0.004,15.405L9.486,67.469L7.604,74.49l7.013,1.877l16.917-9.764    c3.616,3.951,8.087,6.537,13.315,7.703v19.155l5.236,5.233l5.099-5.062V74.295c5.205-1.158,9.668-3.738,13.289-7.689l16.922,9.766    l7.008-1.893L92.089,73.322z M64.574,50.027c-0.012,8-6.545,14.513-14.562,14.513h-0.04c-8.031-0.022-14.556-6.56-14.546-14.571    c0.012-8.001,6.546-14.51,14.565-14.51h0.036C58.061,35.479,64.586,42.014,64.574,50.027z"/>
		<path d="M50.014,40.942h-0.071c-2.447,0.02-4.73,0.981-6.43,2.712c-1.696,1.724-2.617,4.017-2.594,6.454    c0.046,4.933,4.114,8.947,9.066,8.947h0.07c2.443-0.018,4.727-0.984,6.431-2.718c1.697-1.729,2.619-4.019,2.596-6.451    C59.031,44.954,54.964,40.942,50.014,40.942z"/>
	</g>
</g>
</svg>