<svg xmlns="http://www.w3.org/2000/svg" xmlns:xlink="http://www.w3.org/1999/xlink" version="1.1" id="Layer_1" x="0px" y="0px" width="100px" height="94.445px" viewBox="0 0 100 94.445" enable-background="new 0 0 100 94.445" xml:space="preserve">
<rect x="47.917" y="67.567" width="4.167" height="26.878"/>
<path d="M83.333,29.629V4.169H65.277v9.412L50,0L0,44.442h11.111v50.003h30.555V51.39h-2.778v13.888  c0,1.534-1.244,2.777-2.777,2.777c-1.534,0-2.778-1.243-2.778-2.777V48.611c0,0,0-5.555,5.555-5.555v0.001h19.443l0.001-0.001  l6.944-2.748V26.389c0-1.534,1.244-2.778,2.778-2.778s2.777,1.244,2.777,2.778v15.278c0,0.857-0.396,1.667-1.071,2.193  l-11.429,8.888v41.697h30.556V44.442H100L83.333,29.629z M50,40.278c-3.452,0-6.25-2.798-6.25-6.25c0-3.452,2.798-6.25,6.25-6.25  c3.452,0,6.25,2.798,6.25,6.25C56.25,37.479,53.452,40.278,50,40.278z"/>
</svg>