<svg xmlns="http://www.w3.org/2000/svg" xmlns:xlink="http://www.w3.org/1999/xlink" version="1.1" id="Layer_1" x="0px" y="0px" width="100px" height="87.5px" viewBox="0 0 100 87.5" enable-background="new 0 0 100 87.5" xml:space="preserve">
<path d="M100,77.777c-1.736,0.695-3.473,1.39-5.556,1.39c-4.167,0-6.944-2.778-11.111-2.778c-4.166,0-6.944,2.778-11.11,2.778  c-4.167,0-6.945-2.778-11.111-2.778c-4.167,0-6.944,2.778-11.111,2.778c-4.167,0-6.944-2.778-11.111-2.778  c-4.167,0-6.944,2.778-11.111,2.778s-6.944-2.778-11.111-2.778c-4.167,0-6.944,2.778-11.111,2.778c-2.083,0-3.819-0.692-5.556-1.387  v8.334C1.736,86.809,3.472,87.5,5.556,87.5c4.167,0,6.944-2.777,11.111-2.777c4.167,0,6.945,2.777,11.111,2.777  s6.944-2.777,11.111-2.777c4.167,0,6.945,2.777,11.111,2.777c4.167,0,6.944-2.777,11.111-2.777c4.166,0,6.944,2.777,11.111,2.777  c4.166,0,6.944-2.777,11.11-2.777c4.167,0,6.944,2.777,11.111,2.777c2.083,0,3.819-0.694,5.556-1.389V77.777z"/>
<path d="M100,61.111c-1.736,0.694-3.473,1.389-5.556,1.389c-4.167,0-6.944-2.777-11.111-2.777c-4.166,0-6.944,2.777-11.11,2.777  c-4.167,0-6.945-2.777-11.111-2.777c-4.167,0-6.944,2.777-11.111,2.777c-4.167,0-6.944-2.777-11.111-2.777  c-4.167,0-6.944,2.777-11.111,2.777s-6.944-2.777-11.111-2.777c-4.167,0-6.944,2.777-11.111,2.777c-2.083,0-3.819-0.691-5.556-1.386  v8.333c1.736,0.694,3.472,1.386,5.556,1.386c4.167,0,6.944-2.777,11.111-2.777c4.167,0,6.945,2.777,11.111,2.777  s6.944-2.777,11.111-2.777c4.167,0,6.945,2.777,11.111,2.777c4.167,0,6.944-2.777,11.111-2.777c4.166,0,6.944,2.777,11.111,2.777  c4.166,0,6.944-2.777,11.11-2.777c4.167,0,6.944,2.777,11.111,2.777c2.083,0,3.819-0.694,5.556-1.389V61.111z"/>
<path d="M16.667,54.167v-2.778h27.778v4.167c1.736,0.694,3.472,1.389,5.556,1.389c0.994,0,1.904-0.164,2.777-0.404V27.778  c0-10.722,8.723-19.444,19.445-19.444c10.722,0,19.444,8.723,19.444,19.444c0,2.302,1.864,4.167,4.166,4.167S100,30.08,100,27.778  C100,12.46,87.538,0,72.223,0C57.374,0,45.245,11.719,44.515,26.389H16.737c0.717-10.073,9.121-18.055,19.374-18.055  c3.316,0,6.432,0.849,9.165,2.322c1.523-2.388,3.348-4.565,5.432-6.468C46.46,1.547,41.469,0,36.111,0  C20.795,0,8.333,12.46,8.333,27.778V56.54C11.123,55.771,13.494,54.167,16.667,54.167z M16.667,34.722h27.778v8.333H16.667V34.722z"/>
</svg>