<svg xmlns="http://www.w3.org/2000/svg" xmlns:xlink="http://www.w3.org/1999/xlink" version="1.1" id="Layer_1" x="0px" y="0px" width="100px" height="100px" viewBox="0 0 100 100" enable-background="new 0 0 100 100" xml:space="preserve">
<ellipse transform="matrix(0.8341 0.5517 -0.5517 0.8341 81.9121 -175.8154)" cx="333.209" cy="48.252" rx="28.435" ry="34.694"/>
<path d="M324.824,84.324v19.069c0,0,1.109,5.69,11.973,9.382c0,0,2.258,2.44,30.059,2.568c0,0,20.525-3.197,21.791-13.941  c0.025-0.212,0.043-0.427,0.053-0.646c0.496-11.263,0-18.049,0-18.049s-0.496-15.885-34.752-13.9  C353.947,68.807,323.004,75.021,324.824,84.324z"/>
<ellipse transform="matrix(-0.8607 -0.5091 0.5091 -0.8607 595.3552 259.5065)" fill="#000000" cx="333.176" cy="48.314" rx="17.094" ry="21.819"/>
<path fill="#000000" d="M379.287,84.592c0.084-4.271-9.033-7.916-20.359-8.137c-11.328-0.222-20.578,3.067-20.662,7.338  c-0.082,4.27,9.033,7.914,20.357,8.133C369.953,92.147,379.203,88.861,379.287,84.592z"/>
<ellipse transform="matrix(0.8341 0.5517 -0.5517 0.8341 81.9121 -175.8154)" cx="333.209" cy="48.252" rx="28.435" ry="34.694"/>
<path d="M324.824,84.324v19.069c0,0,1.109,5.69,11.973,9.382c0,0,2.258,2.44,30.059,2.568c0,0,20.525-3.197,21.791-13.941  c0.025-0.212,0.043-0.427,0.053-0.646c0.496-11.263,0-18.049,0-18.049s-0.496-15.885-34.752-13.9  C353.947,68.807,323.004,75.021,324.824,84.324z"/>
<ellipse transform="matrix(-0.8607 -0.5091 0.5091 -0.8607 595.3552 259.5065)" fill="#000000" cx="333.176" cy="48.314" rx="17.094" ry="21.819"/>
<path fill="#000000" d="M379.287,84.592c0.084-4.271-9.033-7.916-20.359-8.137c-11.328-0.222-20.578,3.067-20.662,7.338  c-0.082,4.27,9.033,7.914,20.357,8.133C369.953,92.147,379.203,88.861,379.287,84.592z"/>
<path stroke="#000000" stroke-width="2.2273" stroke-miterlimit="10" d="M92.964,29.269L31.08,67.244l-0.735-0.643l-1.932,1.379  l-1.655,0.461l-8.735,4.229l-3.127,1.104h-0.368l-5.517,2.301l4.781-3.771v-0.551l2.116-1.656L16,69.545l9.195-6.621l1.931-1.104  v-1.195l61.334-36.69C88.46,23.935,92.413,23.475,92.964,29.269z"/>
</svg>