<svg xmlns="http://www.w3.org/2000/svg" xmlns:xlink="http://www.w3.org/1999/xlink" version="1.1" id="Layer_1" x="0px" y="0px" width="100px" height="100px" viewBox="0 0 100 100" enable-background="new 0 0 100 100" xml:space="preserve">
<path d="M91.645,47.445C83.31,33.227,67.354,24.395,50,24.395c-17.353,0-33.311,8.832-41.644,23.05L6.858,50l1.498,2.556  C16.69,66.774,32.647,75.607,50,75.607c17.354,0,33.31-8.833,41.645-23.051L93.142,50L91.645,47.445z M18.732,50  c5.434-7.617,13.896-12.878,23.479-14.746c-5.285,2.797-8.888,8.349-8.888,14.746s3.603,11.948,8.888,14.746  C32.629,62.879,24.166,57.618,18.732,50z M44.129,47.41c-2.218,0-4.016-1.798-4.016-4.016c0-2.217,1.798-4.015,4.016-4.015  c2.217,0,4.015,1.798,4.015,4.015C48.144,45.611,46.346,47.41,44.129,47.41z M57.79,64.747c5.285-2.798,8.887-8.35,8.887-14.746  s-3.602-11.948-8.887-14.746C67.372,37.122,75.834,42.383,81.268,50C75.834,57.618,67.372,62.879,57.79,64.747z"/>
</svg>