<svg xmlns="http://www.w3.org/2000/svg" xmlns:xlink="http://www.w3.org/1999/xlink" version="1.1" id="Layer_1" x="0px" y="0px" width="100px" height="100px" viewBox="0 0 100 100" enable-background="new 0 0 100 100" xml:space="preserve">
<path fill-rule="evenodd" clip-rule="evenodd" fill="#000000" d="M72.899,68.92L74.57,100l-24.954-6.899L25.987,100l1.115-31.08  c6.404,4.729,14.324,7.526,22.898,7.526C58.574,76.446,66.494,73.649,72.899,68.92z"/>
<path fill-rule="evenodd" clip-rule="evenodd" fill="#000000" d="M82.026,37.307l5.281-2.936l-5.675-2.074l4.757-3.727l-5.931-1.161  l4.116-4.424l-6.039-0.218l3.373-5.014l-5.998,0.729l2.545-5.479l-5.81,1.658l1.658-5.811l-5.479,2.546l0.729-5.998L64.54,8.771  l-0.219-6.038l-4.425,4.115l-1.16-5.93l-3.726,4.757L52.937,0L50,5.281L47.064,0L44.99,5.675l-3.727-4.757l-1.161,5.93l-4.424-4.115  L35.46,8.771l-5.013-3.372l0.728,5.998l-5.479-2.546l1.658,5.811l-5.811-1.658l2.547,5.479l-5.998-0.729l3.371,5.013l-6.037,0.22  l4.114,4.424l-5.929,1.161l4.756,3.726l-5.676,2.074l5.281,2.936l-5.281,2.936l5.676,2.074l-4.757,3.727l5.931,1.16l-4.115,4.425  l6.037,0.219l-3.371,5.014l5.998-0.729l-2.547,5.479l5.811-1.657l-1.658,5.81l5.479-2.546l-0.729,5.998l5.013-3.373l0.221,6.039  l4.424-4.114l1.16,5.929l3.727-4.757l2.073,5.676l2.937-5.281l2.936,5.281l2.074-5.676l3.727,4.757l1.16-5.931l4.425,4.116  l0.218-6.038l5.014,3.371l-0.729-5.997l5.479,2.546l-1.658-5.811l5.811,1.658l-2.546-5.479l5.998,0.729l-3.373-5.015l6.039-0.219  l-4.115-4.424l5.929-1.161l-4.756-3.726l5.675-2.074L82.026,37.307z M50.833,10.8c-14.977,0-27.119,12.141-27.119,27.119  c0,7.215,2.824,13.768,7.419,18.626c-5.228-4.943-8.493-11.938-8.493-19.701c0-14.978,12.142-27.119,27.119-27.119  c7.762,0,14.757,3.266,19.701,8.493C64.601,13.624,58.049,10.8,50.833,10.8z"/>
</svg>