<svg xmlns="http://www.w3.org/2000/svg" xmlns:xlink="http://www.w3.org/1999/xlink" version="1.1" id="Layer_1" x="0px" y="0px" width="100px" height="100px" viewBox="0 0 100 100" enable-background="new 0 0 100 100" xml:space="preserve">
<path fill="#000000" d="M16.458,39.898c3.348-0.197,6.033-2.858,6.267-6.195V7.141C22.725,3.197,25.922,0,29.866,0h40.251  c3.944,0,7.141,3.197,7.141,7.141v26.327c0.123,3.442,2.848,6.222,6.267,6.429h4.621l0.384,0.001  c4.988,0.203,8.972,4.317,8.972,9.354c0,2.807-1.237,5.325-3.194,7.04l-36.17,38.959C56.529,98.088,53.483,100,49.99,100  c-3.42,0-6.411-1.834-8.043-4.574L5.132,55.768c-1.631-1.684-2.633-3.984-2.633-6.514c0-5.167,4.189-9.355,9.355-9.355H16.458z"/>
</svg>