<svg xmlns="http://www.w3.org/2000/svg" xmlns:xlink="http://www.w3.org/1999/xlink" version="1.1" id="Layer_1" x="0px" y="0px" width="100px" height="100px" viewBox="-346 256 100 100" enable-background="new -346 256 100 100" xml:space="preserve">
<path d="M-264.428,295.708c9.788,0,17.717,7.93,17.717,17.71c0,9.778-7.929,17.717-17.717,17.717  c-9.782,0-17.714-7.938-17.714-17.717C-282.142,303.638-274.21,295.708-264.428,295.708z"/>
<path d="M-283.435,296.011c-1.786-1.557-4.497-1.37-6.054,0.417l-11.033,12.668c-1.44,1.653-1.401,4.128,0.092,5.736l2.529,2.955  l-12.973-1.992c0,0,5.787-7.55,6.397-10.449c1.304-6.193-3.708-7.963-7.734-9.385c-2.503-0.885-5.092-1.799-6.524-3.586  c-3.804-4.745-0.984-8.398-0.03-9.406c1.91-2.016,5.273-3.205,7.739-1.435c1.876,1.346,1.608,2,0.813,3.942  c-0.688,1.679-1.63,3.977-0.091,6.542c0.619,1.033,1.905,2.36,4.515,2.821c4.579,0.809,11.538-1.426,16.197-5.198  c9.073-7.345,10.82-23.839,10.89-24.538c0.102-1.01-0.636-1.912-1.646-2.013c-1.021-0.101-1.911,0.636-2.012,1.646  c-0.016,0.156-1.65,15.656-9.545,22.045c-3.788,3.067-9.735,5.055-13.243,4.435c-1-0.176-1.674-0.543-2.002-1.09  c-0.537-0.896-0.321-1.643,0.34-3.257c0.811-1.976,2.166-5.284-2.069-8.325c-4.206-3.017-9.497-1.33-12.553,1.893  c-2.896,3.054-4.678,8.615-0.17,14.236c2.088,2.604,5.318,3.746,8.168,4.752c4.722,1.668,5.921,2.499,5.361,5.159  c-0.505,2.401-4.853,8.213-7.897,11.854c-0.039,0-5.14,5.398-5.14,5.398c-0.24,0.259-0.568,0.391-0.896,0.391  c-0.299,0-0.599-0.108-0.836-0.328c-0.496-0.462-0.523-1.238-0.061-1.733l8.271-8.886c1.581-2.473,1.659-4.752,0.626-6.734  c-0.539-1.033-1.843-2.107-3.141-2.856c-6.262-3.624-12.291-7.403-18.55-11.028c-6.447-3.732-11.125,3.859-4.688,7.582  c3.25,1.884,7.715,4.495,11.526,6.713l-12.308-2.003c-2.242-0.361-4.348,1.153-4.713,3.393c-0.364,2.238,1.155,4.349,3.394,4.714  l11.548,1.88c-2.217,2.344-4.475,4.702-5.808,6.708c-0.183,0.29-3.609,4.06-3.3,8.33c0.672,9.267,13.383,15.116,35.404,13.251  c18.081-1.534,21.452-13.792,21.452-13.792s2.044-4.393-0.767-7.509l-7.56-8.11l8.499-9.758  C-281.461,300.277-281.646,297.567-283.435,296.011z"/>
</svg>