<svg xmlns="http://www.w3.org/2000/svg" xmlns:xlink="http://www.w3.org/1999/xlink" version="1.1" id="Layer_1" x="0px" y="0px" width="100px" height="100px" viewBox="0 0 100 100" enable-background="new 0 0 100 100" xml:space="preserve">
<path d="M68.819,46.359c-5.61-5.902-14.083-7.62-18.819-0.078c-4.736-7.542-13.21-5.824-18.82,0.078  c-5.071,5.335-12.49,9.419-21.664,5.559c8.663,12.39,36.76,4.349,40.484,3.216c3.725,1.133,31.821,9.174,40.484-3.216  C81.31,55.778,73.892,51.694,68.819,46.359z M40.624,44.208c-2.092,0.051-5.188,1.011-7.499,2.732  c-1.261,0.939,3.729-3.842,7.413-4.006C41.631,42.865,41.93,44.175,40.624,44.208z"/>
</svg>