<svg xmlns="http://www.w3.org/2000/svg" xmlns:xlink="http://www.w3.org/1999/xlink" version="1.1" id="disk-player" x="0px" y="0px" width="100px" height="100px" viewBox="0 0 100 100" enable-background="new 0 0 100 100" xml:space="preserve">
<path fill="#000000" d="M40,80c22.056,0,40-17.944,40-40c0-3.499-0.455-6.894-1.303-10.131l-4.614,10.382l-6.774,6.814l1.249,1.31  l-7.553,5.13l-2.071-2.172l5.48-7.302L66,45.694l6.167-6.277l5.611-12.538C72.334,11.25,57.461,0,40,0C17.944,0,0,17.944,0,40  S17.944,80,40,80z M40,23c9.374,0,17,7.626,17,17s-7.626,17-17,17s-17-7.626-17-17S30.626,23,40,23z"/>
<path fill="#000000" d="M40,52c6.628,0,12-5.372,12-12s-5.372-12-12-12s-12,5.372-12,12S33.372,52,40,52z M40,38  c1.104,0,2,0.896,2,2s-0.896,2-2,2s-2-0.896-2-2S38.896,38,40,38z"/>
<path fill="#000000" d="M27.18,0H6C2,0,0,2,0,6v21.18C4.126,14.298,14.298,4.126,27.18,0z"/>
<path fill="#000000" d="M87,79c-4.411,0-8,3.589-8,8s3.589,8,8,8s8-3.589,8-8S91.411,79,87,79z"/>
<path fill="#000000" d="M94,0H52.829c11.89,3.812,21.47,12.78,26.115,24.273l2.913-6.507c-1.548-1.023-2.571-2.777-2.571-4.767  c0-3.15,2.563-5.714,5.714-5.714S90.714,9.85,90.714,13S88.15,18.714,85,18.714c-0.44,0-0.867-0.055-1.279-0.149l-3.768,8.478  C81.276,31.124,82,35.477,82,40c0,23.196-18.804,42-42,42C21.275,82,5.42,69.745,0,52.82V94c0,4,2,6,6,6h88c4,0,6-2,6-6V6  C100,2,98,0,94,0z M8,97c-2.209,0-4-1.791-4-4s1.791-4,4-4s4,1.791,4,4S10.209,97,8,97z M20,97c-2.209,0-4-1.791-4-4s1.791-4,4-4  s4,1.791,4,4S22.209,97,20,97z M32,97c-2.209,0-4-1.791-4-4s1.791-4,4-4s4,1.791,4,4S34.209,97,32,97z M87,97  c-5.514,0-10-4.486-10-10s4.486-10,10-10s10,4.486,10,10S92.514,97,87,97z"/>
</svg>