<svg xmlns="http://www.w3.org/2000/svg" xmlns:xlink="http://www.w3.org/1999/xlink" version="1.1" id="video-recorder" x="0px" y="0px" width="100px" height="100px" viewBox="0 0 100 100" enable-background="new 0 0 100 100" xml:space="preserve">
<circle fill="#000000" cx="55.597" cy="72.885" r="1.865"/>
<circle fill="#000000" cx="29.48" cy="72.885" r="1.865"/>
<path fill="#000000" d="M76,63.558V52H65v0.277c10-0.943,18.615-9.728,18.615-20.432c0-11.333-9.205-20.52-20.539-20.52  c-11.332,0-20.528,9.235-20.528,20.567c0,4.961,1.751,9.106,4.681,13.106h-9.381c2.93-4,4.69-8.146,4.69-13.106  c0-11.332-9.187-20.543-20.52-20.543S1.422,20.525,1.422,31.858C1.422,42.562,10,51.334,20,52.277V52H9v38h67V74.75l22,7.462V56.097  L76,63.558z M63.058,22.519c5.151,0,9.327,4.176,9.327,9.327s-4.176,9.327-9.327,9.327c-5.15,0-9.327-4.176-9.327-9.327  S57.907,22.519,63.058,22.519z M8.961,31.846c0-7.212,5.846-13.058,13.058-13.058c7.212,0,13.058,5.846,13.058,13.058  S29.23,44.904,22.019,44.904C14.807,44.904,8.961,39.058,8.961,31.846z M29.48,82.212c-5.152,0-9.327-4.175-9.327-9.327  c0-5.151,4.175-9.327,9.327-9.327s9.327,4.176,9.327,9.327C38.808,78.037,34.632,82.212,29.48,82.212z M55.597,82.212  c-5.152,0-9.328-4.175-9.328-9.327c0-5.151,4.175-9.327,9.328-9.327c5.151,0,9.327,4.176,9.327,9.327  C64.924,78.037,60.748,82.212,55.597,82.212z"/>
</svg>