<svg xmlns="http://www.w3.org/2000/svg" xmlns:xlink="http://www.w3.org/1999/xlink" version="1.1" id="Layer_1" x="0px" y="0px" width="100px" height="100px" viewBox="0 0 100 100" enable-background="new 0 0 100 100" xml:space="preserve">
<g>
	<path fill="#000000" d="M73.791,6.667c-11.39,0-20.903,8.004-23.238,18.693h-1.106C47.112,14.671,37.599,6.667,26.209,6.667   c-13.14,0-23.791,10.651-23.791,23.791c0,9.491,5.558,17.681,13.595,21.499v37.979c0,1.877,1.522,3.398,3.399,3.398h61.176   c1.877,0,3.398-1.521,3.398-3.398V51.956c8.037-3.818,13.595-12.008,13.595-21.499C97.581,17.318,86.931,6.667,73.791,6.667z    M44.366,33.267c0,2.403-7.21,9.612-9.613,9.612c-2.404,0-6.008-8.411-4.807-9.612c1.201-1.202,3.605-3.605,4.807-4.807   C35.955,27.258,44.366,30.863,44.366,33.267z M19.412,13.464c1.699-1.699,11.895-1.699,13.595,0   c1.699,1.699-1.7,10.196-3.399,10.196s-5.098,0-6.797,0S17.713,15.164,19.412,13.464z M8.052,33.267   c0-2.404,8.411-6.008,9.613-4.807c1.202,1.202,3.605,3.605,4.807,4.807c1.202,1.201-2.403,9.612-4.807,9.612   C15.262,42.879,8.052,35.669,8.052,33.267z M27.909,89.935h-6.797V78.039h6.797V89.935z M36.405,89.935h-6.797V78.039h6.797V89.935   z M44.902,89.935h-6.797V78.039h6.797V89.935z M60.196,59.347v3.398H38.104v-3.682l-5.317-0.887   c0.134,0.366,0.219,0.757,0.219,1.17c0,1.877-1.522,3.398-3.399,3.398c-1.421,0-2.635-0.874-3.143-2.112l-4.238,4.025l-4.12-11.827   c0.503,0.182,1.015,0.343,1.532,0.491l3.171,9.423l3.399-3.398c0-1.877,1.521-3.399,3.398-3.399c0.46,0,0.899,0.094,1.3,0.26   l7.196,1.44v-3.399h22.092v3.399l6.647-4.433c0.463,0.142,0.933,0.266,1.406,0.378L60.196,59.347z M65.246,42.879   c-2.403,0-9.613-7.209-9.613-9.612c0-2.404,8.411-6.008,9.613-4.807c1.201,1.202,3.605,3.605,4.807,4.807   C71.254,34.468,67.649,42.879,65.246,42.879z M70.392,23.66c-1.699,0-5.098-8.497-3.398-10.196s11.896-1.699,13.595,0   S78.889,23.66,77.189,23.66S72.092,23.66,70.392,23.66z M82.335,42.879c-2.404,0-6.009-8.411-4.807-9.612   c1.201-1.202,3.604-3.605,4.807-4.807c1.201-1.201,9.612,2.403,9.612,4.807C91.947,35.669,84.737,42.879,82.335,42.879z"/>
</g>
</svg>