<svg xmlns="http://www.w3.org/2000/svg" xmlns:xlink="http://www.w3.org/1999/xlink" version="1.1" id="Capa_1" x="0px" y="0px" width="87.719px" height="100px" viewBox="0 0 87.719 100" enable-background="new 0 0 87.719 100" xml:space="preserve">
<g>
	<path fill="#000000" d="M23.794,42.236c4.962,2.364,9.212,3.966,12.522,4.303l2.131,0.548l1.375-0.791   c0.776-0.238,1.452-0.623,2.022-1.161l5.215-2.996l-3.299-3.977c-0.616-3.653-3.521-8.218-10.961-14.233   c-8.285-6.69-23.686-2.524-26.571,0.984C1.781,30.312,13.529,37.346,23.794,42.236z M17.515,28.952   c1.367-1.651,8.641-3.621,12.554-0.46c5.108,4.131,5.69,6.798,5.012,8.824c-0.996,2.93-4.414,2.138-9.266-0.176   C20.963,34.828,15.413,31.517,17.515,28.952z M83.335,28.174L33.218,52.632c-2.898,0.321-6.369,1.207-10.299,2.462   C12.096,58.565-0.49,63.953,3.196,69.904c2.395,3.852,17.098,10.062,26.202,4.526c10.91-6.61,13.468-11.754,13.15-15.983   c10.864-6.253,39.519-22.867,41.113-25.062C85.632,30.673,83.335,28.174,83.335,28.174z M27.311,69.557   c-4.309,2.604-11.257-0.329-12.379-2.147c-1.747-2.812,4.195-5.367,9.317-6.997c5.119-1.641,8.623-1.978,9.209,1.071   C33.851,63.582,32.909,66.146,27.311,69.557z M49.104,51.234c-1.303-0.089-2.289-0.948-2.222-1.913   c0.063-0.966,1.172-1.681,2.45-1.59c1.298,0.085,2.286,0.941,2.226,1.91C51.491,50.601,50.4,51.323,49.104,51.234z M61.208,53.12   l-8.345,4.516l27.228,18.876c0,0,2.604-2.168,1.012-5.127C80.298,69.884,61.208,53.12,61.208,53.12z"/>
</g>
</svg>