<svg xmlns="http://www.w3.org/2000/svg" xmlns:xlink="http://www.w3.org/1999/xlink" version="1.1" id="Layer_1" x="0px" y="0px" width="100px" height="100px" viewBox="0 0 100 100" enable-background="new 0 0 100 100" xml:space="preserve">
<g>
	<path d="M23.845,9.546c0.126-0.125,0.264-0.222,0.41-0.298c-0.444-1.173-0.8-2.25-1.123-3.237C22.371,3.693,21.714,1.691,20.345,0   h-2.598c1.133,1.398,2.706,4.439,3.432,6.651c0.401,1.224,0.85,2.583,1.458,4.103L23.845,9.546z"/>
</g>
<g>
	<circle cx="44.023" cy="27.311" r="1.327"/>
	<circle cx="44.023" cy="35.873" r="1.327"/>
</g>
<g>
	<circle cx="63.369" cy="46.685" r="1.327"/>
	<circle cx="63.369" cy="55.247" r="1.327"/>
</g>
<g>
	<circle cx="82.658" cy="66.06" r="1.327"/>
	<circle cx="82.658" cy="74.621" r="1.327"/>
</g>
<g>
	<circle cx="29.251" cy="42.084" r="1.327"/>
	<circle cx="29.251" cy="50.646" r="1.327"/>
</g>
<g>
	<circle cx="48.597" cy="61.458" r="1.327"/>
	<circle cx="48.597" cy="70.021" r="1.327"/>
</g>
<g>
	<circle cx="67.885" cy="80.832" r="1.328"/>
	<circle cx="67.885" cy="89.395" r="1.328"/>
</g>
<rect x="30.588" y="15.704" transform="matrix(-0.7071 0.7071 -0.7071 -0.7071 66.8714 7.1349)" width="2.74" height="3.425"/>
<rect x="27.945" y="18.177" transform="matrix(-0.7071 -0.7071 0.7071 -0.7071 36.6855 54.6312)" width="3.425" height="3.083"/>
<g>
	<path d="M34.017,15.358c-0.401-0.4-0.401-1.053,0-1.453c0.4-0.4,1.052-0.4,1.452,0c0.401,0.4,0.401,1.053,0,1.453   C35.068,15.76,34.417,15.76,34.017,15.358z M35.227,14.147c-0.267-0.267-0.701-0.267-0.968,0c-0.268,0.268-0.268,0.702,0,0.969   c0.267,0.268,0.701,0.268,0.968,0C35.494,14.85,35.494,14.415,35.227,14.147z"/>
</g>
<rect x="26.943" y="21.162" transform="matrix(0.7071 0.7071 -0.7071 0.7071 23.5111 -12.7236)" width="0.343" height="1.713"/>
<path d="M31.958,4.823l-5.328,5.328c-0.669-0.669-1.753-0.669-2.422,0l-1.453,1.453c-0.669,0.669-0.669,1.753,0,2.422l-5.57,5.57  l-5.812,5.812c-0.267-0.268-0.701-0.268-0.969,0l-2.422,2.422c-0.267,0.268-0.267,0.701,0,0.969l-5.569,5.569L68.042,100  l14.773-14.773l14.772-14.772L31.958,4.823z M32.926,11.12c0.268-0.267,0.702-0.267,0.97,0l4.116,4.117  c0.268,0.268,0.268,0.701,0,0.969l-9.444,9.445c-0.268,0.268-0.701,0.268-0.969,0l-4.117-4.117c-0.268-0.268-0.268-0.701,0-0.969  L32.926,11.12z M35.268,52.441C34.711,52.998,34.096,54,33.443,54H31v0.621c-1,0.12-2,0.126-3,0.021V54h-3.014  c-0.654,0-1.271-1.032-1.828-1.591c-3.344-3.342-3.344-8.8,0-12.144C23.637,39.786,24.159,40,24.711,39H28v-1.332  c1-0.104,2-0.098,3,0.022V39h2.714c0.553,1,1.074,0.687,1.554,1.165C38.611,43.509,38.611,49.098,35.268,52.441z M37.932,37.524  c-3.344-3.346-3.344-8.859,0-12.203C38.41,24.843,38.933,25,39.484,24H43v-1.104c1-0.104,2-0.098,3,0.021V24h2.487  c0.552,1,1.074,0.8,1.553,1.278c3.344,3.345,3.344,8.877,0,12.221c-0.557,0.557-1.172,0.5-1.824,1.5H46v0.849  c-1,0.119-2,0.126-3,0.021V39h-3.24C39.105,38,38.488,38.081,37.932,37.524z M54.702,71.596C54.175,72.123,53.595,73,52.98,73H50  v1.064c0,0.114-1,0.116-2,0.006V73h-3.69c-0.613,0-1.19-0.815-1.717-1.343c-3.344-3.344-3.343-8.896,0-12.239  C43.101,58.912,43.655,59,44.243,58H48v-0.89c1-0.109,2-0.107,2,0.006V58h3.052c0.588,1,1.144,0.905,1.65,1.413  C58.046,62.757,58.046,68.252,54.702,71.596z M57.366,56.771c-3.344-3.344-3.344-8.452,0-11.794C57.873,44.469,58.428,44,59.017,44  H63v-1.663c1-0.109,1-0.107,2,0.007V44h2.824c0.589,0,1.144,0.52,1.651,1.026c3.344,3.344,3.344,8.532,0,11.876  C68.948,57.43,68.368,58,67.754,58H65v1.292c-1,0.113-1,0.115-2,0.006V58h-3.918C58.47,58,57.893,57.298,57.366,56.771z   M74.016,91.379C73.459,91.938,72.842,92,72.188,93H70v0.369c-1,0.119-2,0.127-3,0.022V93h-3.269c-0.652-1-1.268-1.159-1.824-1.716  c-3.344-3.344-3.344-8.737,0-12.081C62.386,78.723,62.908,78,63.461,78H67v-1.583c1-0.104,2-0.097,3,0.021V78h2.465  c0.552,0,1.073,0.562,1.551,1.04C77.36,82.384,77.359,88.035,74.016,91.379z M86.961,78H85v0.597c-1,0.119-2,0.126-3,0.022V78  h-3.495c-0.653,0-1.268-1.046-1.825-1.603c-3.344-3.344-3.344-8.796,0-12.14C77.159,63.779,77.682,63,78.233,63H82v-1.356  c1-0.104,2-0.097,3,0.022V63h2.237c0.552,0,1.073,0.675,1.552,1.153c3.344,3.344,3.344,8.938,0,12.282  C88.231,76.994,87.615,78,86.961,78z"/>
<rect x="7.247" y="23.818" transform="matrix(0.7068 0.7074 -0.7074 0.7068 20.4355 1.7529)" width="1.712" height="3.425"/>
</svg>