<svg xmlns="http://www.w3.org/2000/svg" xmlns:xlink="http://www.w3.org/1999/xlink" version="1.1" x="0px" y="0px" width="100px" height="100px" viewBox="0 0 100 100" enable-background="new 0 0 100 100" xml:space="preserve">
<g id="Captions">
	<rect x="-192" width="185" height="99"/>
	<rect y="-36" width="100" height="30"/>
	<text transform="matrix(1 0 0 1 66 -19.5)" fill="#000000" font-family="'Helvetica'" font-size="2.4">http://thenounproject.com</text>
	<text transform="matrix(1 0 0 1 7.166 -24.5)"><tspan x="0" y="0" fill="#000000" font-family="'Helvetica-Bold'" font-size="6.1578">The Noun Project</tspan><tspan x="1.12" y="4.8" fill="#000000" font-family="'Helvetica-Bold'" font-size="4">Icon Template</tspan></text>
	<text transform="matrix(1 0 0 1 -178.5 10.5)" fill="#000000" font-family="'Helvetica-Bold'" font-size="6.1578">Reminders</text>
	<line fill="#000000" stroke="#FFFFFF" stroke-miterlimit="10" x1="8" y1="-14.5" x2="18" y2="-14.5"/>
	<line fill="#000000" stroke="#FFFFFF" stroke-miterlimit="10" x1="-179" y1="16.5" x2="-162" y2="16.5"/>
	<g>
		<g>
			<g>
				<rect x="-170.802" y="31.318" fill="#000000" width="8.721" height="8.642"/>
				<path fill="#000000" d="M-164.455,42.312h4.747v-4.703h-4.747V42.312z M-159.266,42.749h-5.63V37.17h5.63V42.749      L-159.266,42.749z M-166.221,44.062h8.279v-8.203h-8.279V44.062L-166.221,44.062z M-157.5,44.5h-9.163v-9.079h9.163V44.5      L-157.5,44.5z"/>
				<polygon fill="#000000" points="-166.149,44.133 -166.292,43.991 -158.013,35.787 -157.871,35.929     "/>
			</g>
		</g>
	</g>
	<rect x="-179" y="58" fill="none" width="35" height="32.5"/>
	<text transform="matrix(1 0 0 1 -179 60.1572)"><tspan x="0" y="0" fill="#000000" font-family="'Helvetica-Bold'" font-size="3">Strokes</tspan><tspan x="0" y="5" fill="#000000" font-family="'Helvetica'" font-size="2.4">Try to keep strokes at 4px</tspan><tspan x="0" y="10" fill="#000000" font-family="'Helvetica'" font-size="2.4">Minimum stroke weight is 2px</tspan><tspan x="0" y="14.5" fill="#000000" font-family="'Helvetica'" font-size="2.4">For thicker strokes use even </tspan><tspan x="0" y="17.5" fill="#000000" font-family="'Helvetica'" font-size="2.4">numbers: 6px, 8px etc.</tspan><tspan x="0" y="22" fill="#000000" font-family="'Helvetica-Bold'" font-size="2.4">Remember to expand strokes </tspan><tspan x="0" y="25" fill="#000000" font-family="'Helvetica-Bold'" font-size="2.4">before saving as an SVG </tspan></text>
	<rect x="-136.5" y="58" fill="none" width="35" height="32.5"/>
	<text transform="matrix(1 0 0 1 -136.5 60.1572)"><tspan x="0" y="0" fill="#000000" font-family="'Helvetica-Bold'" font-size="3">Size</tspan><tspan x="0" y="5" fill="#000000" font-family="'Helvetica'" font-size="2.4">Cannot be wider or taller than </tspan><tspan x="0" y="8.5" fill="#000000" font-family="'Helvetica'" font-size="2.4">100px (artboard size)</tspan><tspan x="0" y="13.5" fill="#000000" font-family="'Helvetica'" font-size="2.4">Scale your icon to fill as much of </tspan><tspan x="0" y="16.5" fill="#000000" font-family="'Helvetica'" font-size="2.4">the artboard as possible</tspan></text>
	<rect x="-94" y="58" fill="none" width="35" height="32.5"/>
	<text transform="matrix(1 0 0 1 -94 60.1572)"><tspan x="0" y="0" fill="#000000" font-family="'Helvetica-Bold'" font-size="3">Ungroup</tspan><tspan x="0" y="5" fill="#000000" font-family="'Helvetica'" font-size="2.4">If your design has more than one </tspan><tspan x="0" y="8" fill="#000000" font-family="'Helvetica'" font-size="2.4">shape, make sure to ungroup</tspan></text>
	<rect x="-50" y="58" fill="none" width="35" height="32.5"/>
	<text transform="matrix(1 0 0 1 -50 60.1572)"><tspan x="0" y="0" fill="#000000" font-family="'Helvetica-Bold'" font-size="3">Save as</tspan><tspan x="0" y="5" fill="#000000" font-family="'Helvetica'" font-size="2.4">Save as .SVG and make sure </tspan><tspan x="0" y="8" fill="#000000" font-family="'Helvetica'" font-size="2.4">&#8220;Use Artboards&#8221; is checked</tspan></text>
	<text transform="matrix(1.0074 0 0 1 -125.542 30.5933)" fill="#000000" font-family="'Helvetica'" font-size="2.5731">100px</text>
	<text transform="matrix(1.0074 0 0 1 -41 39)" fill="#000000" font-family="'Helvetica-Bold'" font-size="5.1462">.SVG</text>
	<rect x="-126.514" y="34.815" fill="#000000" width="10.261" height="10.185"/>
	<rect x="-126.477" y="31.766" fill="#000000" width="0.522" height="2.337"/>
	<rect x="-116.812" y="31.766" fill="#000000" width="0.523" height="2.337"/>
	<rect x="-127" y="32.337" fill="#000000" width="11.233" height="0.572"/>
	<g>
		<rect x="-83.805" y="33.844" fill="#000000" width="10.305" height="10.156"/>
		<rect x="-76.809" y="28.707" fill="#000000" width="3.308" height="3.261"/>
	</g>
	<rect x="-178.5" y="22.5" fill="#000000" stroke="#FFFFFF" stroke-miterlimit="10" width="30" height="30"/>
	<rect x="-136.5" y="22.5" fill="#000000" stroke="#FFFFFF" stroke-miterlimit="10" width="30" height="30"/>
	<rect x="-93.5" y="22.5" fill="#000000" stroke="#FFFFFF" stroke-miterlimit="10" width="30" height="30"/>
	<rect x="-49.5" y="22.5" fill="#000000" stroke="#FFFFFF" stroke-miterlimit="10" width="30" height="30"/>
</g>
<g id="Your_Icon">
	<path fill-rule="evenodd" clip-rule="evenodd" fill="#000000" d="M78.333,50.684v0.149H78.3L78.333,50.684z M78.333,50.833h8.334   v15.834h-8.334V50.833z M67.5,50.684l0.033,0.149H67.5V50.684z M67.533,50.833h8.3v15.834H67.5V50.833H67.533z M56.666,50.684   l0.101,0.149H65v15.834h-8.334V50.833V50.684z M45.833,50.684L46,50.833h8.166v15.834h-8.333V50.833V50.684z M35,50.684   l0.233,0.149h8.1v15.834H35V50.833V50.684z M24.167,50.684l0.3,0.149H32.5v15.834h-8.333V50.833V50.684z M13.333,50.684   l0.367,0.149h7.966v15.834h-8.333V50.833V50.684z M13.333,45.833v-2.5c0-2.083-2.083-4.167-4.167-4.167   C7.083,39.167,5,41.25,5,43.333V85c0,2.083,2.083,4.167,4.167,4.167c2.083,0,4.167-2.084,4.167-4.167v-6.667h73.333V85   c0,2.083,2.083,4.167,4.166,4.167C92.917,89.167,95,87.083,95,85V43.333c0-2.083-2.083-4.167-4.167-4.167   c-2.083,0-4.166,2.083-4.166,4.167v2.5H13.333z M34.792,17.091c-0.292-0.5-0.683-0.5-0.958,0l-1.983,3.967L27.417,21.8   c-0.608,0.091-0.692,0.558-0.3,0.95l3.192,3.017l-0.725,4.392c-0.108,0.625,0.275,0.941,0.867,0.625l3.858-2.1l3.858,2.1   c0.6,0.316,0.983,0,0.867-0.625l-0.717-4.392L41.5,22.75c0.4-0.392,0.317-0.858-0.292-0.95l-4.434-0.742L34.792,17.091z    M33.333,15.692l-0.092,0.142H35V12.5h14.167v13.333h1.667V12.5h15.833v8.333h1.666V12.5h10V10H21.667v2.5h11.667V15.692z    M50.625,27.091c-0.292-0.5-0.683-0.5-0.958,0l-1.983,3.967L43.25,31.8c-0.608,0.091-0.692,0.558-0.3,0.95l3.191,3.017   l-0.725,4.392c-0.108,0.625,0.275,0.941,0.867,0.625l3.858-2.1l3.858,2.1c0.6,0.316,0.984,0,0.867-0.625l-0.717-4.392l3.183-3.017   c0.399-0.392,0.317-0.858-0.291-0.95l-4.434-0.742L50.625,27.091z M68.125,22.091c-0.291-0.5-0.684-0.5-0.959,0l-1.982,3.967   L60.75,26.8c-0.608,0.091-0.691,0.558-0.3,0.95l3.191,3.017l-0.725,4.392c-0.108,0.625,0.274,0.941,0.866,0.625l3.858-2.1   l3.858,2.1c0.6,0.316,0.983,0,0.866-0.625l-0.716-4.392l3.183-3.017c0.399-0.392,0.316-0.858-0.291-0.95l-4.434-0.742   L68.125,22.091z"/>
</g>
</svg>