<svg xmlns:dc="http://purl.org/dc/elements/1.1/" xmlns:cc="http://creativecommons.org/ns#" xmlns:rdf="http://www.w3.org/1999/02/22-rdf-syntax-ns#" xmlns:svg="http://www.w3.org/2000/svg" xmlns="http://www.w3.org/2000/svg" xmlns:sodipodi="http://sodipodi.sourceforge.net/DTD/sodipodi-0.dtd" xmlns:inkscape="http://www.inkscape.org/namespaces/inkscape" width="100" height="100" viewBox="0 0 80 80" version="1.1" id="svg2" inkscape:version="0.48.2 r9819" sodipodi:docname="cow spotted.svg">
  <metadata id="metadata26">
    <rdf:RDF>
      <cc:Work rdf:about="">
        <dc:format>image/svg+xml</dc:format>
        <dc:type rdf:resource="http://purl.org/dc/dcmitype/StillImage"/>
      </cc:Work>
    </rdf:RDF>
  </metadata>
  <defs id="defs24"/>
  <sodipodi:namedview pagecolor="#ffffff" bordercolor="#666666" borderopacity="1" objecttolerance="10" gridtolerance="10" guidetolerance="10" inkscape:pageopacity="0" inkscape:pageshadow="2" inkscape:window-width="1392" inkscape:window-height="480" id="namedview22" showgrid="false" inkscape:zoom="2.352648" inkscape:cx="243.10229" inkscape:cy="51.416381" inkscape:window-x="0" inkscape:window-y="0" inkscape:window-maximized="0" inkscape:current-layer="svg2"/>
  <path style="fill:#020101;stroke:#020101;stroke-width:0.01063429" d="m 21.7653,3.771249 c 1.043579,0.99821 2.177903,1.92836 2.858498,3.21014 0.397014,0.79403 0.986863,1.61074 0.884774,2.54089 -0.204179,0.54448 -0.839401,0.6806 -1.293131,0.93015 0.476417,1.28178 0.952833,2.57491 1.293131,3.91342 1.406562,-0.95284 2.631633,-2.38208 2.858498,-4.12895 0.0794,-1.4973 -0.8394,-2.79043 -1.724174,-3.90207 -1.29313,-1.33851 -2.926558,-2.52955 -4.877596,-2.56358 z M 8.0966864,4.066179 c -1.179698,0.53313 -1.497309,1.86029 -1.724174,3.0173 -0.487759,1.71283 -0.02269,3.65253 1.145668,4.99103 0.794028,1.04358 2.030442,1.58806 3.1761096,2.15522 0.38567,-1.13433 0.862087,-2.23462 1.270444,-3.3576 -1.122982,-0.49911 -2.3480526,-0.82806 -3.2781986,-1.66746 -0.623879,-0.56716 -1.122982,-1.37253 -1.054922,-2.23462 -0.04537,-0.99821 0.306268,-1.9397 0.465073,-2.90387 z m 14.6214466,5.63759 c -2.155217,0.0113 -4.299091,0.35164 -6.465652,0.17015 -1.202384,-0.0567 -2.688349,-0.0908 -3.482377,0.98686 -1.622084,2.13253 -2.041784,4.94566 -1.973725,7.56595 -0.04537,1.82626 -0.0794,3.68656 -0.635222,5.44476 1.191041,0.11343 2.404769,0.0567 3.56178,0.37433 1.032236,0.31761 1.372533,1.47462 1.690144,2.38208 0.48776,1.32716 0.113432,2.72238 0.03403,4.07222 2.098501,-1.03223 2.824468,-3.47103 4.594015,-4.85491 2.177904,-1.51999 4.764164,-2.85849 6.011922,-5.33132 0.147462,-0.88478 -0.226865,-1.74686 -0.397014,-2.60895 1.213727,0.0567 1.74686,1.24776 2.631633,1.87164 0.725968,0.58985 1.656115,0.93014 2.597604,0.90746 1.508652,0.18149 2.915215,-0.71463 3.777302,-1.88298 0.294924,-0.38567 0.272238,-0.99821 -0.0794,-1.33851 -0.521789,-0.54447 -1.225071,-0.85074 -1.882979,-1.20238 -1.225071,-0.62388 -2.62029,-1.1003 -4.01551,-0.81671 -1.145668,0.24955 -2.302679,0.44238 -3.482377,0.34029 -0.215522,-1.61074 -0.623879,-3.22148 -1.247757,-4.73013 -0.294925,-0.51045 -0.544476,-1.30447 -1.236414,-1.34985 z m 45.390006,4.80387 c -0.675876,0.007 -1.355518,0.0752 -2.002083,0.13045 -4.197002,0.24955 -8.280571,1.23641 -12.420856,1.84894 -1.769547,0.23821 -3.56178,0.29493 -5.331327,0.45373 -4.548642,0.61254 -9.085942,-0.32895 -13.623241,-0.43104 0.238208,0.56716 0.612536,1.08895 0.771341,1.6788 -0.782684,2.18925 -3.391631,3.59581 -5.637594,2.84716 -1.383876,-0.24955 -2.438798,-1.29313 -3.368945,-2.28 0.04537,0.8394 0.215522,1.76955 -0.272238,2.49552 -1.236414,1.81492 -3.017304,3.17611 -4.877596,4.31043 -2.075815,1.15701 -2.983275,3.50507 -4.639389,5.11581 0.544476,1.06626 1.111639,2.13253 1.701487,3.17611 2.336709,4.08357 4.389837,8.33728 6.125354,12.70443 0.431044,1.4406 0.192836,2.98328 0.4197,4.4579 0.238209,2.30268 0.918804,4.55999 0.828058,6.88535 0.04537,2.68835 -0.714625,5.2973 -1.42925,7.86087 -0.669251,2.31403 -1.894322,4.40118 -3.153423,6.42028 1.939696,0.55582 4.04954,0.51045 5.943862,-0.22686 0,-1.23642 -0.02269,-2.48417 0.02269,-3.73193 0.04537,-0.32896 -0.04537,-0.81672 0.294924,-1.03224 0.317611,-0.21552 0.691938,-0.32895 1.054922,-0.46507 -0.158805,-1.05492 -0.362984,-2.12119 -0.294924,-3.1988 0.192835,-2.83581 0.442387,-5.67162 1.111638,-8.43937 0.397014,-1.42925 0.05672,-2.91522 -0.05672,-4.36715 1.066265,-0.0454 2.132531,0.0681 3.198796,-0.0681 1.225071,-0.11344 2.382082,-0.56717 3.516407,-1.02089 0.952833,1.40656 1.803576,2.86984 2.722379,4.29909 1.701487,2.677 3.414318,5.5355 3.697899,8.76833 -0.01134,1.95104 0.03403,3.94745 -0.589849,5.81908 -0.226865,0.61254 -0.567162,1.19104 -0.737311,1.82627 -0.136119,0.44238 -0.181492,0.95283 -0.521789,1.31581 -0.669252,0.74866 -1.315817,1.53134 -1.803577,2.42746 2.007755,0.85074 4.265061,0.38567 6.261473,-0.23821 0.442387,-0.36298 0.589849,-0.94149 0.850744,-1.42925 0.657908,-1.1797 -0.09075,-2.49551 -0.158806,-3.74327 0.510446,-0.12478 1.054922,-0.21552 1.531339,-0.44239 0.442386,-0.64656 -0.0794,-1.47462 -0.147463,-2.15522 -1.22507,-4.41252 -2.450141,-8.8137 -3.391631,-13.29428 -0.272238,-1.11164 -0.521789,-2.22328 -0.601192,-3.36895 2.983274,-0.0681 6.000578,-0.28358 8.859077,-1.20238 3.516407,-1.14567 6.624457,-3.2782 9.505642,-5.55819 1.100295,-0.87343 2.245963,-1.66746 3.266855,-2.62029 0.771341,0.68059 1.372533,1.51999 1.996412,2.32536 1.588054,2.26865 2.075814,5.10446 2.20059,7.8155 0.328954,4.77551 -0.48776,9.56236 -1.951039,14.08831 -0.4197,0.97552 -1.168354,1.74687 -1.871636,2.50686 0.238208,0.13612 0.476417,0.24955 0.714625,0.37433 -0.94149,0.69194 -1.905666,1.49731 -2.325366,2.62029 1.826263,0.89612 4.01551,0.80537 5.830429,-0.0794 -0.601192,-1.22507 -0.102089,-2.59761 0.283582,-3.81133 0.317611,-0.71463 0.964176,-1.23642 1.372533,-1.89433 0.05672,-0.77134 -0.238209,-1.49731 -0.351641,-2.24596 -0.238208,-1.13432 -0.02269,-2.29134 0.136119,-3.41432 0.283581,-1.88298 0.657908,-3.75461 1.247757,-5.56953 0.45373,-1.27045 1.383876,-2.3594 1.599398,-3.72059 -0.01134,-1.3385 -1.088952,-2.45014 -0.941489,-3.82267 0.124775,-2.71104 0.8394,-5.34267 1.406562,-7.96296 0.465074,-2.12119 0.998206,-4.26506 0.94149,-6.45431 0.02269,-1.98507 -0.0794,-3.98148 -0.306268,-5.9552 -0.260894,-2.32537 -0.555819,-4.66208 -1.417906,-6.85133 -0.442386,-1.02089 -1.020892,-2.06447 -2.019098,-2.63163 -0.928729,-0.69477 -2.043978,-0.85648 -3.170438,-0.84507 z m -60.5757796,0.52462 c -0.139752,0.006 -0.280745,0.0213 -0.422536,0.0482 -1.406562,0.15881 -2.58626,1.05492 -3.686555,1.86029 -0.680595,0.63523 -1.417906,1.39522 -1.429249,2.38209 2.268649,1.19104 4.979685,1.47462 7.44117,0.78268 0.294925,-0.0454 0.6352216,-0.18149 0.7486546,-0.47642 0.226865,-1.29313 0.158805,-2.60894 0.170148,-3.90207 -0.9131306,-0.29776 -1.8433656,-0.73463 -2.8216326,-0.69478 z m 11.0965326,2.24313 c 0.918939,-0.033 1.856038,0.25168 2.501186,0.92447 0.737311,0.49911 0.862087,1.55403 0.48776,2.30268 -0.589849,0.94149 -1.32716,1.79224 -2.279993,2.39343 -0.703282,0.43104 -1.281787,1.37253 -2.257307,1.00955 -0.998205,-0.2609 -2.16656,-0.46507 -2.801782,-1.36119 -0.362984,-1.46328 0.714625,-2.67701 1.576712,-3.70924 0.476416,-0.76 1.270443,-1.30448 2.143873,-1.48597 0.206306,-0.0404 0.417488,-0.0661 0.629551,-0.0737 z m 55.122513,0.19851 c 0.158806,1.12298 0.555819,2.20059 1.009549,3.24417 1.077609,2.56357 1.451936,5.34267 1.678801,8.08773 0.306268,3.94745 -0.442387,7.83819 -0.862087,11.74026 -0.113432,1.1797 -0.533133,2.29134 -0.87343,3.41432 -0.306268,1.6788 -0.06806,3.74327 1.372533,4.84357 0.896117,-0.0794 1.576711,-1.00955 1.848949,-1.82626 0.442387,-2.12119 -1.848949,-3.58447 -1.485965,-5.67163 0.238208,-1.88298 0.635222,-3.74327 0.703281,-5.63759 0.03403,-4.73014 0.294925,-9.58505 -1.111638,-14.17906 -0.499103,-1.46328 -1.145668,-2.9379 -2.279993,-4.01551 z m -24.637534,1.38104 c 0.434078,-0.009 0.762833,0.30627 1.100295,0.52462 0.646565,0.44239 1.417906,0.63522 2.13253,0.94149 1.066266,0.37433 2.223277,0.46508 3.244169,0.96418 0.87343,0.40836 1.951039,0.81671 2.279993,1.81492 0.362984,1.1797 -0.521789,2.22327 -1.179698,3.08536 -0.408357,0.38567 -0.771341,0.95283 -1.383876,0.98686 -0.725968,-0.0227 -1.054922,0.94149 -1.848949,0.81672 -1.565369,0.12477 -3.153423,-0.15881 -4.684762,-0.45373 -1.145668,-0.40836 -2.472828,-1.12298 -2.68835,-2.4388 -0.328954,-1.19104 0.839401,-2.16656 0.782685,-3.34626 -0.544476,-0.64656 -1.406563,-0.85074 -2.155218,-1.14567 -0.998205,-0.34029 -1.894322,-0.95283 -2.62029,-1.71283 2.279993,-0.0113 4.559986,-0.0454 6.828635,-0.0113 0.06664,-0.0156 0.130824,-0.0243 0.192836,-0.0255 z m -11.034145,4.21118 c 0.558899,0.002 1.115892,0.0425 1.664622,0.10209 0.918803,0.18149 2.053128,0.43104 2.472828,1.39522 0.499103,0.85074 0.283581,1.88298 0.328954,2.82447 -0.03403,0.52179 0.05672,1.13432 -0.362984,1.54268 -0.521789,0.4991 -1.054922,0.9982 -1.644771,1.42925 -0.918803,0.71462 -2.189247,0.74865 -3.051334,1.58805 -1.157011,1.04358 -2.325365,2.24596 -2.65432,3.82268 -0.374327,2.06447 0.510447,4.12894 1.860293,5.66028 0.964176,1.10029 1.81492,2.46148 1.690144,3.99282 0.170149,1.12298 -0.431043,2.08716 -1.066265,2.94924 -0.431044,-0.2382 -0.90746,-0.77134 -1.42925,-0.44238 -1.622084,0.65791 -3.334914,1.28178 -5.104461,1.07761 -0.691938,-0.034 -1.36119,-0.23821 -2.041785,-0.24956 -0.748654,0.17015 -1.451935,0.47642 -2.155217,0.74866 -0.124776,-1.16836 -0.158805,-2.33671 -0.408357,-3.48238 -1.043579,-3.28954 -2.892528,-6.23878 -4.36715,-9.33549 -0.90746,-1.7582 -2.007755,-3.42566 -2.813126,-5.22924 -0.0794,-0.22686 -0.192835,-0.48776 -0.05672,-0.70328 0.521789,-0.81671 1.157011,-1.56537 1.724174,-2.3594 0.691938,-1.03223 1.871636,-1.55402 2.835812,-2.27999 1.191041,-0.78268 2.121187,-1.91701 3.334915,-2.66566 0.862086,-0.14746 1.690144,0.19283 2.472828,0.51044 0.601192,0.24956 0.986862,0.80538 1.508652,1.16836 0.862087,0.27224 1.735517,-0.20418 2.529544,-0.4991 0.737311,-0.2609 1.213727,-0.95284 1.973725,-1.16836 0.893281,-0.29776 1.827748,-0.40056 2.759245,-0.39701 z m -27.462003,1.2591 c -0.45803,7.7e-4 -0.9046236,0.0695 -1.2619356,0.36298 -1.247758,1.34985 -1.372533,3.32357 -1.179698,5.05909 1.122981,0.51045 2.0871566,1.37253 3.3235706,1.58806 0.918803,0.034 1.88298,0.0567 2.75641,-0.28359 0.759997,-0.4197 0.771341,-1.47462 0.941489,-2.22327 0,-1.04358 -0.113432,-2.15522 -0.578505,-3.10805 -0.612536,-1.00955 -1.871636,-1.22507 -2.949245,-1.34985 -0.332499,-0.005 -0.69584,-0.046 -1.052086,-0.0454 z m 52.419984,0.39134 c 1.151961,0.0124 2.142457,0.88477 3.125065,1.40089 1.202385,0.20418 2.416112,0.38567 3.618496,0.61254 0.669252,0.11343 1.122982,0.69194 1.531339,1.19104 0.362984,1.70149 -0.964176,3.05133 -2.189247,4.02685 -0.794027,0.57851 -1.383876,1.54268 -1.202384,2.56358 0.283581,2.03044 0.260894,4.09491 -0.204179,6.09132 -0.862087,-0.72597 -1.588054,-1.5994 -2.279993,-2.48417 -0.487759,0.034 -1.020892,0.0794 -1.406562,0.40836 -1.531339,1.22507 -2.971931,2.5976 -4.673418,3.58446 -0.09075,-1.03223 -0.204179,-2.15522 0.260894,-3.11939 0.94149,-1.07761 2.631634,-1.24776 3.323572,-2.57492 0.48776,-1.27044 0.102089,-2.64298 -0.170149,-3.92476 -0.09075,-0.82806 -1.032235,-1.13433 -1.451936,-1.78089 -0.8394,-0.18149 -0.850743,-1.16836 -0.941489,-1.84895 -0.226865,-1.61074 0.612535,-3.45969 2.155217,-4.09491 0.171566,-0.0369 0.340208,-0.0528 0.504774,-0.0511 z m -15.826666,14.20742 c 1.430866,0.006 2.865588,0.58701 3.808495,1.6788 0.771341,0.96418 1.599398,1.89432 2.279993,2.92656 0.351641,0.58985 0.499103,1.2591 0.737311,1.88298 -3.834018,2.01909 -8.269228,2.54088 -12.556975,2.39342 -0.0794,-0.9188 -0.283581,-1.81492 -0.351641,-2.72238 -0.02269,-0.95283 0.38567,-1.8376 0.703281,-2.71103 0.476417,-1.33851 1.769547,-2.12119 2.915215,-2.82447 0.748655,-0.42537 1.605801,-0.6276 2.464321,-0.62388 z m 17.567855,1.72417 c -1.32716,1.05492 -2.608947,2.16656 -3.958794,3.17611 -1.599397,1.24776 -3.334914,2.29134 -5.036402,3.36895 0.930147,1.03223 2.223277,1.66745 3.300886,2.54088 0.05672,0.46508 0.124775,0.94149 0.192835,1.40657 0.260894,-0.58985 0.487759,-1.1797 0.714624,-1.78089 0.442387,0.52179 0.862087,1.06626 1.338504,1.54268 0.05672,-0.70328 0.06806,-1.41791 0.113432,-2.13253 1.054922,0.10209 1.962382,0.70328 2.767753,1.36119 -0.05672,-0.70328 -0.124776,-1.40656 -0.204179,-2.10985 1.36119,-0.93014 2.552231,-2.18924 3.17611,-3.73192 -0.533133,-1.37254 -1.531339,-2.48418 -2.404769,-3.64119 z m 2.801782,4.49193 c -0.465073,0.48776 -0.918803,0.98686 -1.270444,1.57671 -0.0794,0.14746 -0.158805,0.35164 0,0.4991 0.703282,1.48597 1.542682,2.98328 1.554025,4.67342 0,1.83761 -0.226864,3.67521 -0.533132,5.49013 -0.260895,1.63343 -0.90746,3.16477 -1.554025,4.68476 -0.306268,0.80538 -0.930146,1.4406 -1.383876,2.15522 0.646565,0.14746 1.29313,0.28358 1.962381,0.29493 0.578506,-1.58806 0.998206,-3.22149 1.338504,-4.86626 0.510446,-2.0985 0.896116,-4.23103 0.862087,-6.39759 -0.0794,-2.72238 -0.170149,-5.49013 -0.97552,-8.11042 z" id="path4" inkscape:connector-curvature="0"/>
</svg>