<svg xmlns:dc="http://purl.org/dc/elements/1.1/" xmlns:cc="http://creativecommons.org/ns#" xmlns:rdf="http://www.w3.org/1999/02/22-rdf-syntax-ns#" xmlns:svg="http://www.w3.org/2000/svg" xmlns="http://www.w3.org/2000/svg" xmlns:sodipodi="http://sodipodi.sourceforge.net/DTD/sodipodi-0.dtd" xmlns:inkscape="http://www.inkscape.org/namespaces/inkscape" width="100" height="100" viewBox="0 0 80 80" version="1.1" id="svg2" inkscape:version="0.48.2 r9819" sodipodi:docname="cow no udder no horns.svg">
  <metadata id="metadata20">
    <rdf:RDF>
      <cc:Work rdf:about="">
        <dc:format>image/svg+xml</dc:format>
        <dc:type rdf:resource="http://purl.org/dc/dcmitype/StillImage"/>
      </cc:Work>
    </rdf:RDF>
  </metadata>
  <defs id="defs18"/>
  <sodipodi:namedview pagecolor="#ffffff" bordercolor="#666666" borderopacity="1" objecttolerance="10" gridtolerance="10" guidetolerance="10" inkscape:pageopacity="0" inkscape:pageshadow="2" inkscape:window-width="1019" inkscape:window-height="480" id="namedview16" showgrid="false" inkscape:zoom="1.176324" inkscape:cx="289.36907" inkscape:cy="117.86443" inkscape:window-x="0" inkscape:window-y="0" inkscape:window-maximized="0" inkscape:current-layer="svg2"/>
  <path style="fill:#010100;stroke:#010100;stroke-width:0.0106322" d="m 22.876784,9.697419 c -2.154794,0.0113 -4.298246,0.34023 -6.464381,0.17012 -1.202148,-0.0454 -2.687821,-0.0907 -3.481693,0.98666 -1.633106,2.13212 -2.041383,4.94469 -1.973337,7.56446 -0.04536,1.82591 -0.07939,3.68583 -0.635097,5.44369 1.134102,0.0907 2.279545,0.0794 3.379624,0.31755 0.533028,0.11341 0.975327,0.46498 1.236171,0.92996 0.453641,0.80522 0.759848,1.70116 0.873258,2.61978 0.04536,0.99801 -0.136092,1.98468 -0.204138,2.97135 2.358932,-1.20215 3.028052,-4.12813 5.330279,-5.37565 1.825904,-1.20214 3.799241,-2.40429 4.990048,-4.30958 0.646438,-0.74851 0.204138,-1.81457 -0.01134,-2.63112 -0.283525,-0.034 -0.827894,-0.10207 -1.100079,-0.13609 0,-0.0794 -0.01134,-0.22682 -0.01134,-0.30621 0.737166,0.0794 1.621766,-0.15877 2.188817,0.4423 0.589733,0.54437 1.088738,1.19081 1.78054,1.61043 1.00935,0.73716 2.347591,0.79387 3.527057,0.60107 1.020691,-0.28353 1.89395,-0.96399 2.517706,-1.80322 0.294866,-0.3856 0.260843,-0.99801 -0.07939,-1.33824 -0.521687,-0.54437 -1.22483,-0.85058 -1.882609,-1.20215 -1.224831,-0.62376 -2.619776,-1.10008 -4.014721,-0.80521 -1.372263,0.29486 -2.823914,0.52168 -4.207518,0.11341 l 0.612415,-0.54437 c -0.351572,-1.49702 -0.612415,-3.05074 -1.360922,-4.41166 -0.238162,-0.37425 -0.499005,-0.90728 -1.009351,-0.90728 z m 45.531355,4.80009 c -0.727818,0.002 -1.4637,0.0836 -2.163299,0.13325 -4.150813,0.24951 -8.210898,1.21349 -12.305005,1.83725 -1.848587,0.2495 -3.697173,0.30621 -5.545759,0.47632 -4.502384,0.58973 -9.004769,-0.34023 -13.507153,-0.4423 0.215479,0.58973 0.714484,1.12276 0.748507,1.75786 -0.78253,1.97334 -3.039393,3.3456 -5.148822,2.85794 -1.576402,-0.15878 -2.812573,-1.23618 -3.833265,-2.37028 0.04536,0.86192 0.21548,1.82591 -0.317548,2.56307 -1.009351,1.42897 -2.33625,2.60844 -3.799242,3.57242 -1.043373,0.70315 -2.23418,1.29288 -2.971347,2.35894 -0.873258,1.16812 -1.701152,2.37027 -2.710503,3.42498 0.510346,0.99801 1.054715,1.97334 1.599084,2.94867 2.143452,3.7879 4.082766,7.68921 5.749896,11.71527 0.238162,0.60108 0.544369,1.17947 0.646438,1.82591 0.124751,1.37226 0.124751,2.7672 0.294867,4.15081 0.260843,2.18881 0.884599,4.34361 0.793871,6.57779 0.04536,2.68782 -0.714484,5.29625 -1.428968,7.85933 -0.66912,2.31356 -1.882609,4.40031 -3.164145,6.41901 1.950656,0.54437 4.048744,0.49901 5.954035,-0.21548 0.01134,-1.45165 -0.07939,-2.9033 0.06805,-4.35495 0.124752,-0.58973 0.839236,-0.66912 1.304218,-0.8846 -0.170116,-1.05471 -0.362913,-2.12077 -0.294867,-3.19817 0.192797,-2.83525 0.453641,-5.67051 1.11142,-8.43771 0.408277,-1.49702 0.02268,-3.0394 -0.06805,-4.55909 2.268204,0.499 4.649818,0.0794 6.702542,-0.94131 0.66912,1.02069 1.315558,2.05273 1.961996,3.0961 1.723835,2.74453 3.617785,5.51174 4.286905,8.73258 0.272185,1.05472 0.181457,2.1548 0.170116,3.24354 -0.04536,1.59908 -0.192798,3.25487 -0.929964,4.70652 -0.351572,0.6351 -0.419618,1.37226 -0.714484,2.03004 -0.680461,0.8846 -1.451651,1.70115 -1.996019,2.68782 2.018701,0.83924 4.275564,0.39694 6.271583,-0.2495 0.4423,-0.34023 0.601074,-0.92996 0.850576,-1.41763 0.646438,-1.1908 -0.11341,-2.5177 -0.11341,-3.76522 0.476323,-0.10206 0.963987,-0.21547 1.428969,-0.36291 0.464981,-0.48766 0.09073,-1.21349 0.02268,-1.7692 -1.179466,-4.41165 -2.472342,-8.78929 -3.390965,-13.26899 -0.306208,-1.27019 -0.612415,-2.52905 -0.714484,-3.83326 3.3456,-0.0681 6.770588,-0.35157 9.923391,-1.5764 4.400316,-1.72384 8.018101,-4.8653 11.68125,-7.74592 0.612415,0.30621 0.929963,0.96399 1.372263,1.44031 1.939314,2.22284 2.653798,5.20553 2.801232,8.08615 0.419617,4.95602 -0.374254,9.93473 -1.916633,14.64125 -0.419617,0.97533 -1.156783,1.75786 -1.871268,2.51771 0.249503,0.12475 0.487664,0.23816 0.725826,0.35157 -0.963987,0.6918 -1.859928,1.53104 -2.347591,2.63111 1.837245,0.8846 4.026061,0.81656 5.851965,-0.0794 -0.589733,-1.22483 -0.102069,-2.5971 0.283526,-3.81058 0.328889,-0.71449 0.963986,-1.23618 1.372263,-1.89395 0.05671,-0.77119 -0.238161,-1.49702 -0.351571,-2.24553 -0.226821,-1.1341 -0.03402,-2.29088 0.136092,-3.41364 0.272184,-1.85993 0.646438,-3.69718 1.22483,-5.48906 0.430958,-1.30421 1.406286,-2.40429 1.621765,-3.79924 -0.01134,-1.33824 -1.088737,-2.44966 -0.941304,-3.82192 0.215479,-4.41166 1.859927,-8.58515 2.313568,-12.95144 0.147433,-3.86729 -0.147434,-7.75726 -0.8846,-11.54516 -0.487664,-2.07541 -1.122761,-4.50239 -3.175485,-5.56844 -0.810174,-0.50397 -1.732208,-0.63448 -2.667975,-0.63226 z m -60.5837222,0.52168 c -0.213135,-0.002 -0.426706,0.0184 -0.643603,0.0652 -1.213489,0.14744 -2.234181,0.8846 -3.209508,1.55372 -0.8846,0.64644 -1.712494,1.54238 -1.837245,2.67648 2.290885,1.16813 4.990048,1.49702 7.473731,0.78253 0.283525,-0.0454 0.6237562,-0.18145 0.7371662,-0.47632 0.21548,-1.29287 0.170115,-2.60843 0.170115,-3.91265 -0.8753852,-0.27644 -1.7670752,-0.68112 -2.6906562,-0.68897 z m 66.0756112,2.43549 c 0.158774,1.03203 0.476322,2.05272 0.907281,3.00537 1.156784,2.66514 1.565061,5.56844 1.791881,8.42637 0.204139,3.13013 -0.181456,6.23756 -0.601074,9.32232 -0.192797,1.38361 -0.22682,2.78989 -0.646438,4.12813 -0.192797,0.70315 -0.499005,1.38361 -0.589733,2.12077 -0.170115,1.61043 0.22682,3.39097 1.531038,4.44568 0.839235,-0.53303 1.837245,-1.25885 1.825904,-2.35893 0.102069,-1.93931 -1.871268,-3.2889 -1.531038,-5.25089 0.260844,-2.06407 0.714484,-4.11679 0.725825,-6.20354 -0.01134,-3.68583 0.192798,-7.40568 -0.521687,-11.04615 -0.442299,-2.35893 -1.145442,-4.84262 -2.891959,-6.58913 z m -63.073077,6.87265 c -0.497056,0.002 -1.0178562,0.0425 -1.3665922,0.40828 -1.202148,1.34958 -1.292876,3.2889 -1.122761,5.00139 1.281535,0.56705 2.3816142,1.66713 3.8786282,1.61042 0.827895,-0.0907 1.939314,0.0907 2.563071,-0.60107 0.533027,-0.89594 0.691802,-2.00736 0.521686,-3.02805 -0.136092,-0.77119 -0.192797,-1.63311 -0.703143,-2.2682 -0.827894,-0.91863 -2.143452,-1.03204 -3.288895,-1.12277 -0.153104,0.003 -0.316309,-7e-4 -0.481994,0 z m 54.193059,16.37644 c -0.941305,0.55571 -1.723835,1.32689 -2.381614,2.17747 0.839235,0.74851 1.565061,1.59908 2.211499,2.51771 0.635097,0.90728 1.542378,1.61042 2.018701,2.61977 0.66912,1.38361 1.247512,2.85794 1.134102,4.423 -0.102069,2.2682 -0.317549,4.54775 -0.963987,6.73657 -0.612415,1.76919 -1.247512,3.58376 -2.506365,5.02407 0.657779,0.13609 1.315558,0.26084 1.973337,0.3062 0.816554,-2.24552 1.270195,-4.59311 1.78054,-6.91802 0.578392,-2.84659 0.453641,-5.78392 0.170116,-8.66454 -0.181457,-1.58774 -0.385595,-3.2095 -1.088738,-4.6725 -0.567051,-1.31555 -1.497015,-2.41563 -2.347591,-3.54973 z" id="path4" inkscape:connector-curvature="0"/>
</svg>