<svg xmlns:dc="http://purl.org/dc/elements/1.1/" xmlns:cc="http://creativecommons.org/ns#" xmlns:rdf="http://www.w3.org/1999/02/22-rdf-syntax-ns#" xmlns:svg="http://www.w3.org/2000/svg" xmlns="http://www.w3.org/2000/svg" xmlns:sodipodi="http://sodipodi.sourceforge.net/DTD/sodipodi-0.dtd" xmlns:inkscape="http://www.inkscape.org/namespaces/inkscape" width="100" height="100" viewBox="0 0 80 80" version="1.1" id="svg2" inkscape:version="0.48.2 r9819" sodipodi:docname="cow no udder.svg">
  <metadata id="metadata24">
    <rdf:RDF>
      <cc:Work rdf:about="">
        <dc:format>image/svg+xml</dc:format>
        <dc:type rdf:resource="http://purl.org/dc/dcmitype/StillImage"/>
      </cc:Work>
    </rdf:RDF>
  </metadata>
  <defs id="defs22"/>
  <sodipodi:namedview pagecolor="#ffffff" bordercolor="#666666" borderopacity="1" objecttolerance="10" gridtolerance="10" guidetolerance="10" inkscape:pageopacity="0" inkscape:pageshadow="2" inkscape:window-width="1600" inkscape:window-height="853" id="namedview20" showgrid="false" inkscape:zoom="1.6635733" inkscape:cx="285.79596" inkscape:cy="68.48002" inkscape:window-x="-4" inkscape:window-y="-4" inkscape:window-maximized="1" inkscape:current-layer="svg2"/>
  <path style="fill:#010100;stroke:#010100;stroke-width:0.0106314" d="m 22.821942,4.9231503 c 1.043295,0.9866 2.165971,1.92783 2.869061,3.20927 0.396906,0.79381 0.963914,1.6103 0.873193,2.5515297 -0.204123,0.54433 -0.839172,0.66907 -1.304119,0.91856 0.498967,1.29278 0.963914,2.58555 1.304119,3.92369 1.39484,-0.97525 2.653598,-2.38143 2.857721,-4.12782 0.07938,-1.5082397 -0.827832,-2.8010197 -1.723705,-3.9123497 -1.292779,-1.34948 -2.937102,-2.51752 -4.87627,-2.56288 z m -13.6648974,0.28351 c -0.975254,0.49896 -1.440201,1.53092 -1.610303,2.57421 -0.567008,1.67835 -0.317525,3.6288497 0.737111,5.0577197 0.805151,1.25875 2.1773114,1.90514 3.4700904,2.55153 0.396905,-1.13401 0.839172,-2.25669 1.281438,-3.37937 -1.134016,-0.47628 -2.358754,-0.81649 -3.2886474,-1.667 -0.623709,-0.5556697 -1.134017,-1.3494797 -1.054636,-2.2226697 -0.04536,-0.99794 0.294845,-1.93917 0.464947,-2.91442 z M 23.774515,10.85406 c -2.154631,0.0113 -4.297921,0.3402 -6.463893,0.1701 -1.202057,-0.0454 -2.687618,-0.0907 -3.48143,0.98659 -1.632983,2.13195 -2.041229,4.94431 -1.973188,7.56389 -0.04536,1.82577 -0.07938,3.68556 -0.635049,5.44328 1.134016,0.0907 2.279373,0.0794 3.379368,0.31753 0.532988,0.1134 0.975255,0.46494 1.236078,0.92989 0.453607,0.80515 0.759791,1.70102 0.873193,2.61958 0.04536,0.99793 -0.136082,1.98452 -0.204123,2.97112 2.358754,-1.20206 3.027823,-4.12782 5.329877,-5.37524 1.825766,-1.20206 3.798954,-2.40411 4.989671,-4.30926 0.64639,-0.74845 0.204123,-1.81443 -0.01134,-2.63092 -0.283504,-0.034 -0.827832,-0.10206 -1.099996,-0.13608 -0.01134,-0.0794 -0.01134,-0.2268 -0.01134,-0.30618 0.737111,0.0794 1.621644,-0.15877 2.188652,0.44226 0.589688,0.54433 1.088655,1.19072 1.780405,1.61031 1.009275,0.73711 2.347414,0.79381 3.526791,0.60102 1.020615,-0.2835 1.893807,-0.96391 2.517516,-1.80308 0.294844,-0.38557 0.260824,-0.99794 -0.07938,-1.33814 -0.521647,-0.54433 -1.224738,-0.85051 -1.882467,-1.20206 -1.224738,-0.62371 -2.619578,-1.09999 -4.014418,-0.80515 -1.372159,0.29484 -2.8237,0.52165 -4.2072,0.1134 l 0.612369,-0.54433 c -0.351546,-1.4969 -0.612369,-3.0505 -1.36082,-4.41132 -0.238143,-0.37423 -0.498967,-0.90721 -1.009275,-0.90721 z m 45.323797,4.79689 c -0.71443,0.01 -1.431695,0.0907 -2.129115,0.14742 -3.798955,0.23814 -7.529868,1.08865 -11.272122,1.68968 -2.08659,0.36289 -4.195861,0.40825 -6.293791,0.60103 -4.547405,0.60103 -9.083471,-0.31752 -13.619536,-0.43093 0.215463,0.58969 0.71443,1.12268 0.748451,1.75773 -0.782471,1.97319 -3.039164,3.34535 -5.148434,2.85772 -1.576283,-0.15876 -2.812361,-1.23608 -3.832975,-2.37009 0.04536,0.82783 0.215463,1.75772 -0.272164,2.49483 -1.236078,1.81443 -3.016484,3.17525 -4.87627,4.30926 -2.07525,1.1567 -2.982463,3.50412 -4.649467,5.11442 0.907213,1.76906 1.916487,3.47009 2.846381,5.21647 1.825766,3.34535 3.436069,6.8041 4.86493,10.33089 0.136082,0.32887 0.260824,0.66907 0.294844,1.03196 0.124742,1.5536 0.124742,3.11854 0.362885,4.6608 0.283504,1.98453 0.793812,3.95772 0.714431,5.97627 0.04536,2.68762 -0.714431,5.29586 -1.428861,7.85873 -0.66907,2.3134 -1.882467,4.39999 -3.163906,6.41854 1.950508,0.54432 4.048439,0.49896 5.953586,-0.21547 -0.01134,-1.24742 -0.03402,-2.49483 0.01134,-3.74225 0.0567,-0.32887 -0.02268,-0.81649 0.306185,-1.03196 0.317524,-0.21546 0.69175,-0.31752 1.054635,-0.46494 -0.170103,-1.05464 -0.362885,-2.12061 -0.294844,-3.19793 0.192782,-2.83504 0.453606,-5.67008 1.111336,-8.43708 0.408245,-1.4969 0.02268,-3.03916 -0.06804,-4.55875 2.268032,0.49897 4.649466,0.0794 6.702036,-0.94123 1.065975,1.6103 2.05257,3.27731 3.095865,4.89895 1.099995,1.70103 2.063909,3.50411 2.755659,5.40926 0.850512,2.32473 0.623709,4.85359 0.351545,7.2577 -0.181442,1.45154 -1.077315,2.67628 -1.360819,4.10514 -0.635049,0.96392 -1.519582,1.78041 -2.06391,2.8237 2.018549,0.83917 4.275241,0.40825 6.27111,-0.24948 0.442267,-0.34021 0.601029,-0.92989 0.850512,-1.41752 0.64639,-1.19072 -0.102061,-2.51752 -0.113401,-3.76494 0.476287,-0.10206 0.963914,-0.21546 1.42886,-0.36288 0.464947,-0.48763 0.09072,-1.2134 0.02268,-1.76907 -1.179377,-4.41132 -2.472156,-8.78862 -3.390709,-13.26799 -0.306185,-1.2701 -0.612369,-2.52885 -0.725771,-3.83297 3.356689,-0.068 6.781418,-0.35155 9.933983,-1.57628 4.399984,-1.72371 8.017496,-4.86493 11.680368,-7.74534 0.612369,0.30619 0.929894,0.96392 1.37216,1.4402 1.939168,2.22268 2.653598,5.20514 2.80102,8.08554 0.419586,4.95565 -0.374225,9.93398 -1.916487,14.64015 -0.419586,0.97526 -1.156697,1.75773 -1.871127,2.51752 0.249484,0.12474 0.487627,0.23814 0.72577,0.35154 -0.963913,0.69175 -1.859786,1.53092 -2.347413,2.63092 1.837106,0.88453 4.025758,0.81649 5.851524,-0.0794 -0.589689,-1.22474 -0.102062,-2.5969 0.283504,-3.8103 0.328865,-0.71443 0.963914,-1.23607 1.37216,-1.8938 0.0567,-0.70309 -0.204123,-1.3835 -0.317525,-2.07525 -0.351545,-1.67835 0.102062,-3.37937 0.340205,-5.04637 0.396906,-1.83711 0.66907,-3.76494 1.632983,-5.4206 0.385566,-0.75979 0.861853,-1.53092 0.975254,-2.40412 -0.01134,-1.33814 -1.088655,-2.44947 -0.941233,-3.82163 0.215463,-4.41133 1.859787,-8.58451 2.313393,-12.95047 0.158762,-3.77627 -0.147422,-7.56389 -0.827832,-11.28346 -0.317524,-1.41752 -0.657729,-2.86906 -1.4402,-4.11648 -0.532988,-0.99793 -1.530922,-1.65566 -2.551537,-2.07525 -0.68608,-0.22113 -1.397675,-0.28209 -2.112106,-0.27216 z M 8.6495726,16.18393 c -1.610887,0.0299 -2.991323,1.01672 -4.232716,1.95051 -0.657729,0.62371 -1.292779,1.39484 -1.3835,2.33608 2.290713,1.15669 4.989672,1.4969 7.4731684,0.78247 0.283504,-0.0454 0.623709,-0.18145 0.73711,-0.47629 0.215463,-1.29278 0.170103,-2.60824 0.170103,-3.91236 -0.850513,-0.27216 -1.7010254,-0.63505 -2.6082384,-0.68041 -0.05245,-0.001 -0.103963,-9.6e-4 -0.155927,0 z m 66.1443364,2.4268 c 0.158763,0.95257 0.419586,1.88247 0.816492,2.77834 1.270098,2.84638 1.701025,5.97626 1.905148,9.07213 0.215463,3.69689 -0.476287,7.34842 -0.861853,11.02264 -0.113401,1.24742 -0.544328,2.42679 -0.895873,3.61751 -0.317524,1.67834 -0.07938,3.74225 1.36082,4.84225 0.895873,-0.0907 1.576283,-1.00928 1.848446,-1.82577 0.430927,-2.10927 -1.825766,-3.58349 -1.485561,-5.67008 0.260824,-2.06391 0.71443,-4.11648 0.725771,-6.20307 -0.01134,-3.68555 0.192782,-7.40512 -0.521648,-11.04532 -0.442266,-2.35875 -1.145356,-4.84225 -2.891742,-6.58863 z m -63.068317,6.87214 c -0.497018,0.002 -1.01778,0.0425 -1.36649,0.40824 -1.2020574,1.34948 -1.2927784,3.28865 -1.1340164,5.00102 1.2927794,0.567 2.3927754,1.667 3.8896764,1.6103 0.827832,-0.0907 1.939168,0.0907 2.562877,-0.60103 0.532988,-0.89587 0.69175,-2.00721 0.521647,-3.02782 -0.136081,-0.77113 -0.192782,-1.63299 -0.70309,-2.26804 -0.827832,-0.91855 -2.14329,-1.03195 -3.288647,-1.12267 -0.153092,0.003 -0.316284,-7.1e-4 -0.481957,0 z m 54.17763,16.37519 c -0.918554,0.55567 -1.701025,1.3268 -2.370095,2.17731 0.839172,0.74845 1.564943,1.59897 2.211332,2.51752 0.635049,0.90721 1.542262,1.6103 2.018549,2.61958 0.66907,1.37216 1.247418,2.85772 1.134017,4.42266 -0.136082,3.05051 -0.487627,6.15771 -1.803086,8.94739 -0.328865,1.06598 -1.009275,1.93917 -1.667004,2.81236 0.657729,0.13608 1.315459,0.26082 1.973188,0.30619 0.816492,-2.24536 1.270098,-4.59277 1.780406,-6.9175 0.578348,-2.84639 0.453606,-5.78349 0.170102,-8.66389 -0.181443,-1.58762 -0.385565,-3.20926 -1.088656,-4.67215 -0.567008,-1.31545 -1.496901,-2.42679 -2.358753,-3.54947 z" id="path4" inkscape:connector-curvature="0"/>
</svg>