<svg xmlns:dc="http://purl.org/dc/elements/1.1/" xmlns:cc="http://creativecommons.org/ns#" xmlns:rdf="http://www.w3.org/1999/02/22-rdf-syntax-ns#" xmlns:svg="http://www.w3.org/2000/svg" xmlns="http://www.w3.org/2000/svg" xmlns:sodipodi="http://sodipodi.sourceforge.net/DTD/sodipodi-0.dtd" xmlns:inkscape="http://www.inkscape.org/namespaces/inkscape" width="100" height="100" viewBox="0 0 80 80" version="1.1" id="svg2" inkscape:version="0.48.2 r9819" sodipodi:docname="cow.svg">
  <metadata id="metadata26">
    <rdf:RDF>
      <cc:Work rdf:about="">
        <dc:format>image/svg+xml</dc:format>
        <dc:type rdf:resource="http://purl.org/dc/dcmitype/StillImage"/>
      </cc:Work>
    </rdf:RDF>
  </metadata>
  <defs id="defs24"/>
  <sodipodi:namedview pagecolor="#ffffff" bordercolor="#666666" borderopacity="1" objecttolerance="10" gridtolerance="10" guidetolerance="10" inkscape:pageopacity="0" inkscape:pageshadow="2" inkscape:window-width="1189" inkscape:window-height="480" id="namedview22" showgrid="false" inkscape:zoom="0.83178667" inkscape:cx="332.67283" inkscape:cy="22.42513" inkscape:window-x="0" inkscape:window-y="0" inkscape:window-maximized="0" inkscape:current-layer="svg2"/>
  <path style="fill:#020100;stroke:#020100;stroke-width:0.01063141" d="m 22.038876,4.9507977 c 1.043297,0.9865898 2.165975,1.9278198 2.869066,3.2092598 0.396907,0.79381 0.963916,1.61031 0.873194,2.5515405 -0.204123,0.54433 -0.839173,0.66907 -1.304121,0.91855 0.498968,1.29278 0.963916,2.58556 1.304121,3.9237 1.394843,-0.97525 2.642263,-2.38143 2.857727,-4.12782 0.07938,-1.5082405 -0.827834,-2.8010205 -1.723708,-3.9123605 -1.292782,-1.34948 -2.937108,-2.5175098 -4.876279,-2.5628698 z m -13.6649224,0.2835 c -0.9752558,0.49897 -1.4402037,1.5309198 -1.610306,2.5742198 -0.567009,1.67834 -0.3175256,3.6288505 0.7371124,5.0577105 0.8051525,1.25876 2.177315,1.90515 3.470096,2.55154 0.396906,-1.14536 0.850514,-2.2567 1.281441,-3.37937 -1.134019,-0.47629 -2.3587586,-0.81649 -3.2886533,-1.66701 C 8.3399335,9.8157275 7.8296246,9.0219175 7.9090057,8.1487175 7.8636457,7.1507875 8.2038513,6.2095475 8.3739536,5.2342977 z M 22.99145,10.881698 c -2.154635,0.0113 -4.297929,0.34021 -6.463905,0.1701 -1.202059,-0.0454 -2.687623,-0.0907 -3.481436,0.9866 -1.632986,2.13195 -2.041233,4.94431 -1.973192,7.56389 -0.04536,1.82576 -0.07938,3.68555 -0.63505,5.44328 1.134018,0.0907 2.279377,0.0794 3.379374,0.31752 0.532989,0.1134 0.975257,0.46495 1.236081,0.92989 0.453608,0.80516 0.759792,1.70103 0.873194,2.61958 0.04536,0.99794 -0.136082,1.98453 -0.204123,2.97112 2.358758,-1.20205 3.027829,-4.12782 5.329887,-5.37523 1.825769,-1.20206 3.798961,-2.40412 4.98968,-4.30927 0.646391,-0.74845 0.204123,-1.81442 -0.01134,-2.63091 -0.283505,-0.034 -0.827834,-0.10206 -1.099998,-0.13608 0,-0.0794 -0.01134,-0.22681 -0.01134,-0.30619 0.737112,0.0794 1.621647,-0.15876 2.188656,0.44227 0.589689,0.54432 1.088657,1.19071 1.780408,1.6103 1.009277,0.73711 2.347419,0.79381 3.526798,0.60103 1.020617,-0.28351 1.89381,-0.96391 2.51752,-1.80309 0.294845,-0.38556 0.260825,-0.99793 -0.07938,-1.33814 -0.521648,-0.54432 -1.22474,-0.85051 -1.88247,-1.20205 -1.224741,-0.62371 -2.619583,-1.1 -4.014426,-0.80516 -1.372161,0.29485 -2.823705,0.52165 -4.207207,0.11341 l 0.61237,-0.54433 c -0.351547,-1.4969 -0.61237,-3.05051 -1.360823,-4.41132 -0.238143,-0.37423 -0.498968,-0.90722 -1.009277,-0.90722 z m 45.369242,4.80256 c -0.677686,0.007 -1.357986,0.0751 -2.004378,0.13041 -3.912363,0.23815 -7.756685,1.11134 -11.623688,1.72371 -2.063914,0.35154 -4.150508,0.3969 -6.225761,0.58969 -4.502053,0.58968 -9.004106,-0.34021 -13.50616,-0.44227 0.215464,0.58969 0.714432,1.12268 0.748453,1.75773 -0.782473,1.97318 -3.03917,3.34534 -5.148444,2.85772 -1.576286,-0.15877 -2.812366,-1.23608 -3.832982,-2.3701 0.04536,0.82783 0.215464,1.75773 -0.272164,2.49484 -1.23608,1.81442 -3.01649,3.17524 -4.876279,4.30926 -2.075254,1.1567 -2.982469,3.50411 -4.649476,5.11441 0.907215,1.76907 1.916491,3.47009 2.846386,5.21648 1.82577,3.34535 3.436076,6.8041 4.864939,10.33089 0.136083,0.32886 0.260825,0.66907 0.294845,1.03195 0.124742,1.5536 0.124742,3.11855 0.362886,4.66081 0.283504,1.98453 0.793813,3.95772 0.714432,5.97627 0.04536,2.68761 -0.714432,5.29585 -1.428864,7.85873 -0.669071,2.31339 -1.89381,4.39998 -3.163911,6.41853 1.950511,0.54433 4.048446,0.49897 5.953597,-0.21546 0.01134,-1.45154 -0.07938,-2.90308 0.06804,-4.35463 0.124742,-0.58968 0.839173,-0.66906 1.304121,-0.88453 -0.170103,-1.05463 -0.362886,-2.12061 -0.294845,-3.19792 0.192783,-2.83504 0.453607,-5.67009 1.111339,-8.43709 0.408245,-1.4969 0.02268,-3.03916 -0.06804,-4.55874 2.268037,0.49897 4.649475,0.0794 6.702049,-0.94123 0.816493,1.24741 1.598966,2.51751 2.392778,3.78761 1.678348,2.63092 3.413396,5.37524 3.957724,8.50512 0.136083,0.74845 0.07938,1.4969 0.07938,2.2567 -0.03402,1.76906 -0.113403,3.61751 -0.941236,5.22781 -0.351546,0.63505 -0.419587,1.37216 -0.714431,2.02989 -0.680412,0.88453 -1.451544,1.70102 -1.995873,2.68762 2.018553,0.83917 4.275249,0.3969 6.271121,-0.24949 0.442268,-0.3402 0.601031,-0.92989 0.850514,-1.41752 0.646391,-1.19071 -0.102061,-2.51751 -0.113401,-3.76493 0.476288,-0.10206 0.963916,-0.21546 1.428862,-0.36289 0.464948,-0.48762 0.09072,-1.21339 0.02268,-1.76906 -1.17938,-4.41132 -2.472161,-8.78863 -3.390716,-13.26799 -0.306185,-1.2701 -0.61237,-2.52886 -0.725772,-3.83298 3.390715,-0.068 6.849472,-0.35154 10.024723,-1.6103 4.388652,-1.74639 8.00617,-4.88761 11.68039,-7.79069 1.043297,1.22474 2.177315,2.43813 2.823705,3.93503 1.23608,2.68762 1.338143,5.71545 1.372163,8.61853 -0.01134,3.94638 -0.805154,7.85873 -1.995873,11.61233 -0.396906,1.00927 -1.179379,1.81442 -1.905151,2.59689 0.249485,0.12474 0.487628,0.23815 0.725772,0.35155 -0.963915,0.69175 -1.85979,1.53092 -2.347417,2.63092 1.837109,0.88453 4.025765,0.81649 5.851534,-0.0794 -0.58969,-1.22473 -0.102062,-2.59689 0.283505,-3.81029 0.328865,-0.71443 0.963916,-1.23608 1.372162,-1.89381 0.0567,-0.70309 -0.204123,-1.3835 -0.317525,-2.07525 -0.351546,-1.67834 0.102062,-3.37937 0.340205,-5.04637 0.396907,-1.83711 0.669072,-3.76493 1.632986,-5.4206 0.385567,-0.75979 0.861855,-1.53092 0.975256,-2.40411 -0.01134,-1.33814 -1.088657,-2.44948 -0.941235,-3.82164 0.215464,-4.41132 1.859791,-8.5845 2.313398,-12.95046 0.124742,-2.91443 -0.03402,-5.82885 -0.419587,-8.72059 -0.238143,-1.88247 -0.578349,-3.77627 -1.2701,-5.54534 -0.442267,-1.02061 -1.020617,-2.06391 -2.018553,-2.63092 -0.928478,-0.69458 -2.048609,-0.85625 -3.178087,-0.84484 z m -60.4205002,0.51881 c -0.2131184,-0.002 -0.4266748,0.0184 -0.6435552,0.0652 -1.2134002,0.14742 -2.2340161,0.88453 -3.2092719,1.5536 -0.8845347,0.64639 -1.7123681,1.54226 -1.8371104,2.67628 2.2907172,1.16804 4.9896812,1.4969 7.4731818,0.78247 0.2835049,-0.0454 0.6237099,-0.18144 0.7371109,-0.47629 0.215463,-1.29277 0.170103,-2.60823 0.170103,-3.91235 -0.8753199,-0.27642 -1.7669445,-0.68107 -2.6904582,-0.68892 z m 66.0707462,2.4353 c 0.158764,0.95258 0.419587,1.88247 0.816494,2.77834 1.2701,2.84638 1.701028,5.97627 1.905151,9.07213 0.215464,3.6969 -0.476287,7.34843 -0.861854,11.02264 -0.113401,1.24742 -0.544329,2.4268 -0.895875,3.61751 -0.317524,1.67835 -0.07938,3.74226 1.360823,4.85359 0.895874,-0.10206 1.576286,-1.02061 1.848449,-1.8371 0.430928,-2.10927 -1.825769,-3.58349 -1.485564,-5.67008 0.260825,-2.06391 0.714432,-4.11648 0.725773,-6.20307 -0.01134,-3.68556 0.192782,-7.40513 -0.521649,-11.04532 -0.442267,-2.35876 -1.145358,-4.84225 -2.891748,-6.58864 z m -63.068433,6.87214 c -0.497019,0.002 -1.0177816,0.0425 -1.3664922,0.40825 -1.2020592,1.34948 -1.2927804,3.28865 -1.1226781,5.00101 1.2814414,0.56701 2.3814393,1.667 3.8783433,1.6103 0.827833,-0.0907 1.939171,0.0907 2.562881,-0.60103 0.532989,-0.89587 0.691752,-2.0072 0.521648,-3.02782 -0.136081,-0.77113 -0.192782,-1.63298 -0.703091,-2.26803 -0.827833,-0.91855 -2.143294,-1.03196 -3.288653,-1.12268 -0.153092,0.003 -0.316285,-7.1e-4 -0.481958,0 z m 54.098348,16.29582 c -2.846386,2.40411 -5.794834,4.67214 -9.004106,6.55461 0.986596,0.99794 2.211336,1.71237 3.334014,2.52886 0.04536,0.46494 0.102062,0.94123 0.170103,1.40618 0.260824,-0.57835 0.498968,-1.16804 0.714432,-1.75773 0.442267,0.51031 0.861854,1.03196 1.326802,1.53092 0.0567,-0.71443 0.07938,-1.4402 0.124741,-2.15463 1.043297,0.17011 1.961852,0.71443 2.767005,1.3835 -0.0567,-0.70309 -0.124742,-1.40618 -0.204124,-2.10927 1.360823,-0.92989 2.551542,-2.18865 3.175252,-3.73091 -0.521649,-1.37216 -1.542264,-2.47216 -2.404119,-3.65153 z m 2.789686,4.4907 c -0.521649,0.57835 -0.975257,1.2134 -1.428864,1.84845 0.929895,1.67834 1.83711,3.50411 1.712369,5.4773 -0.136083,3.0505 -0.487628,6.15771 -1.80309,8.94739 -0.328865,1.06597 -1.009277,1.92782 -1.667007,2.81236 0.65773,0.13608 1.315462,0.26082 1.973192,0.30618 0.61237,-1.71236 1.054637,-3.47009 1.417522,-5.25049 0.589691,-2.33608 0.873195,-4.74019 0.759793,-7.15565 -0.124741,-2.34741 -0.249484,-4.72885 -0.963915,-6.98554 z" id="path4" inkscape:connector-curvature="0"/>
</svg>