<?xml version="1.0" encoding="utf-8"?>
<!-- Generator: Adobe Illustrator 14.0.0, SVG Export Plug-In . SVG Version: 6.00 Build 43363)  -->
<!DOCTYPE svg PUBLIC "-//W3C//DTD SVG 1.0//EN" "http://www.w3.org/TR/2001/REC-SVG-20010904/DTD/svg10.dtd">
<svg version="1.0" id="Layer_1" xmlns="http://www.w3.org/2000/svg" xmlns:xlink="http://www.w3.org/1999/xlink" x="0px" y="0px"
	 width="100px" height="53.037px" viewBox="0 0 100 53.037" enable-background="new 0 0 100 53.037" xml:space="preserve">
<path d="M100,30.08c0-9.142-15.332-18.619-28.749-23.267c-3.632-3.661-9.089-7.459-10.42-6.72c-0.937,0.521,0.405,2.413,1.405,4.294
	c-1.832-0.328-3.516-0.503-4.977-0.503c-29.213,0-40.689,16.579-43.597,16.655C10.901,20.611,4.437,3.069,0.104,5.797
	c-1.026,0.646,5.888,8.992,5.888,18.037c0,1.332,1.404,2.262,2.075,2.408c-0.67,0.146-2.075,1.076-2.075,2.409
	c0,9.045-6.914,17.392-5.888,18.037C4.437,49.415,10.9,31.873,13.663,31.945c0.126,0.002,0.271,0.039,0.43,0.103
	c4.858,3.978,22.921,16.004,45.017,16.828c0.361,0.013,0.81-0.001,1.328-0.039c-1.664,1.771-3.916,3.358-3.73,3.769
	c0.809,1.799,9.881-2.416,13.658-5.438c8.32-1.807,18.763-4.741,24.328-7.332c2.584-1.203-0.553-3.219-0.145-5.883
	C94.799,32.322,100,32.537,100,30.08z M80.395,22.978c-1.367,0-2.476-1.108-2.476-2.475c0-1.367,1.108-2.475,2.476-2.475
	s2.475,1.108,2.475,2.475C82.869,21.87,81.762,22.978,80.395,22.978z"/>
</svg>
