<svg xmlns="http://www.w3.org/2000/svg" xmlns:xlink="http://www.w3.org/1999/xlink" version="1.1" id="Contact_Card" x="0px" y="0px" width="100px" height="100px" viewBox="0 0 100 100" enable-background="new 0 0 100 100" xml:space="preserve">
<path id="Card" d="M93.861,93.259H78.035c-0.932,0-1.686-0.755-1.686-1.686V85.63c0-0.93,0.754-1.685,1.686-1.685h3.436  c1.909,0,3.465-1.541,3.465-3.436v-0.429c0-1.894-1.556-3.435-3.465-3.435H66.195c-1.91,0-3.465,1.541-3.465,3.435v0.429  c0,1.895,1.555,3.436,3.465,3.436h3.434c0.932,0,1.686,0.755,1.686,1.685v5.943c0,0.931-0.754,1.686-1.686,1.686H30.372  c-0.931,0-1.685-0.755-1.685-1.686V85.63c0-0.93,0.754-1.685,1.685-1.685h3.435c1.911,0,3.465-1.541,3.465-3.436v-0.429  c0-1.894-1.555-3.435-3.465-3.435H18.533c-1.911,0-3.465,1.541-3.465,3.435v0.429c0,1.895,1.555,3.436,3.465,3.436h3.434  c0.931,0,1.685,0.755,1.685,1.685v5.943c0,0.931-0.754,1.686-1.685,1.686H6.139C2.754,93.259,0,90.518,0,87.146V12.853  c0-3.37,2.754-6.111,6.139-6.111h87.722c3.386,0,6.139,2.741,6.139,6.111v74.293C100,90.518,97.247,93.259,93.861,93.259z   M79.721,89.889h14.143c1.525,0,2.767-1.23,2.767-2.742V12.853c0-1.511-1.239-2.74-2.767-2.74H6.139  c-1.526,0-2.769,1.229-2.769,2.74v74.293c0,1.512,1.242,2.742,2.769,2.742h14.142v-2.572h-1.748c-3.769,0-6.836-3.053-6.836-6.806  v-0.429c0-3.752,3.067-6.805,6.836-6.805h15.274c3.769,0,6.836,3.053,6.836,6.805v0.429c0,3.753-3.067,6.806-6.836,6.806h-1.749  v2.572h35.885v-2.572h-1.748c-3.769,0-6.836-3.053-6.836-6.806v-0.429c0-3.752,3.067-6.805,6.836-6.805h15.275  c3.768,0,6.836,3.053,6.836,6.805v0.429c0,3.753-3.068,6.806-6.836,6.806h-1.75V89.889z"/>
<rect id="Phone" x="61" y="46.067" width="25.469" height="3.37"/>
<rect id="Email" x="61" y="53.934" width="13.532" height="3.371"/>
<rect id="Country" x="61" y="18.164" width="25.469" height="3.371"/>
<rect id="Street_Address" x="61" y="25.28" width="25.469" height="3.371"/>
<rect id="Name" x="61" y="33.146" width="25.469" height="3.371"/>
<path d="M11.847,18.164v39.141h37.827V18.164H11.847z M25.103,35.316c0-3.12,2.539-5.657,5.659-5.657  c3.119,0,5.656,2.537,5.656,5.657s-2.537,5.658-5.656,5.658C27.642,40.974,25.103,38.436,25.103,35.316z M42.535,53.934H18.986  c1.096-4.045,5.957-7.104,11.774-7.104C36.577,46.83,41.439,49.888,42.535,53.934z M46.303,53.934h-0.335  c-0.911-5.062-5.738-9.133-11.972-10.197c3.382-1.305,5.793-4.582,5.793-8.419c0-4.977-4.049-9.028-9.027-9.028  c-4.979,0-9.029,4.05-9.029,9.028c0,3.836,2.41,7.114,5.793,8.418c-6.235,1.063-11.062,5.134-11.973,10.198h-0.335V21.535h31.085  V53.934z"/>
</svg>