<svg xmlns="http://www.w3.org/2000/svg" xmlns:xlink="http://www.w3.org/1999/xlink" version="1.1" id="Warstwa_1" x="0px" y="0px" width="100.0px" height="100px" viewBox="0 0 283.46 283.46" enable-background="new 0 0 283.46 283.46" xml:space="preserve">
<g>
	<path d="M218.931,208.918c-23.597,0-42.796-19.192-42.796-42.782c0-23.593,19.199-42.789,42.796-42.789   s42.796,19.196,42.796,42.789C261.727,189.726,242.527,208.918,218.931,208.918z M218.931,130.284   c-19.775,0-35.858,16.083-35.858,35.852c0,19.762,16.083,35.845,35.858,35.845s35.858-16.083,35.858-35.845   C254.789,146.367,238.706,130.284,218.931,130.284z"/>
</g>
<g>
	<path d="M66.269,208.925c-23.596,0-42.796-19.192-42.796-42.789s19.2-42.796,42.796-42.796c23.597,0,42.796,19.199,42.796,42.796   S89.865,208.925,66.269,208.925z M66.269,130.277c-19.772,0-35.858,16.086-35.858,35.859c0,19.769,16.086,35.852,35.858,35.852   s35.859-16.083,35.859-35.852C102.127,146.363,86.041,130.277,66.269,130.277z"/>
</g>
<g>
	<path d="M218.931,170.295h-68.972c0,0-4.403-0.052-3.729-1.613s34.972-80.94,34.972-80.94l7.642,3.299l-30.642,70.935h60.729   V170.295z"/>
</g>
<g>
	<path d="M218.931,170.295c-1.084,0-2.147-0.42-2.94-1.219l-45.668-45.672l5.88-5.888l38.568,38.572v-37.573h8.319v47.62   c0,1.687-1.009,3.204-2.567,3.848C220.008,170.193,219.466,170.295,218.931,170.295z"/>
</g>
<g>
	<path stroke="#1E1E1C" stroke-linejoin="round" stroke-miterlimit="10" d="M179.617,121.328" fill="#000000"/>
</g>
<g>
	<g>
		<path d="M182.544,132.696l-5.895-5.881c3.672-3.672,7.717-6.822,12.059-9.417c9.438-5.637,20.264-8.651,31.558-8.651v8.319    C206.011,117.066,192.61,122.622,182.544,132.696z"/>
	</g>
</g>
<g>
	<path d="M178.262,170.295h-26.395c-11.832,0-19.894-1.07-35.801-22.268L87.85,114.753l6.348-5.386l28.373,33.467   c14.373,19.142,19.992,19.142,29.297,19.142h26.395V170.295z"/>
</g>
<g>
	<path stroke="#1E1E1C" stroke-miterlimit="10" d="M66.275,166.136" fill="#000000"/>
</g>
<g>
	<path d="M65.331,169.604c-1.288,0-2.524-0.718-3.124-1.951c-0.819-1.693-0.146-3.72,1.508-4.587   c0.362-0.224,9.136-5.941,18.654-36.102c12.33-39.074,13.706-46.966,13.76-47.281c0.312-1.883,2.121-3.188,3.97-2.866   c1.883,0.302,3.174,2.056,2.883,3.943c-0.047,0.315-1.331,8.156-13.993,48.29c-10.67,33.806-21.001,39.652-22.146,40.208   C66.354,169.496,65.838,169.604,65.331,169.604z"/>
</g>
<g>
	<path d="M189.358,93.555h-16.097c-2.296,0-4.159-1.863-4.159-4.163c0-2.3,1.863-4.163,4.159-4.163h16.097   c2.297,0,4.16,1.863,4.16,4.163C193.519,91.691,191.655,93.555,189.358,93.555z"/>
</g>
<g>
	<path d="M118.217,81.851H92.988c-1.917,0-3.469-1.551-3.469-3.468c0-1.917,1.551-3.469,3.469-3.469h25.229   c1.917,0,3.469,1.551,3.469,3.469C121.686,80.3,120.135,81.851,118.217,81.851z"/>
</g>
<path d="M66.488,115.243v-0.005c-0.041,0-0.082,0.002-0.123,0.002c-0.03,0-0.06-0.002-0.09-0.002v0.004  c-5.092,0.021-10.115,0.786-14.928,2.282l1.03,3.313c4.51-1.4,9.214-2.117,13.989-2.128c26.112,0.049,47.34,21.304,47.34,47.428  h3.468C117.174,138.143,94.455,115.358,66.488,115.243z"/>
<g>
	<path d="M171.501,167.681h-3.469c0-28.064,22.831-50.899,50.898-50.899v3.469C192.78,120.25,171.501,141.526,171.501,167.681z"/>
</g>
<polygon points="228.232,106.904 216.952,106.904 199.135,106.904 194.474,108.869 194.474,120.277 216.952,120.277   228.232,120.277 245.406,125.467 245.406,114.024 "/>
<g>
	<polygon points="86.539,121.328 97.975,126.809 89.655,115.264  "/>
</g>
</svg>