<svg xmlns="http://www.w3.org/2000/svg" xmlns:xlink="http://www.w3.org/1999/xlink" version="1.1" x="0px" y="0px" width="100px" height="100px" viewBox="0 0 100 100" enable-background="new 0 0 100 100" xml:space="preserve">
<g id="Captions">
</g>
<g id="Your_Icon">
	<path fill-rule="evenodd" clip-rule="evenodd" fill="#000000" d="M4.99,31.871c0,0-1.975,6.729-1.99,12.217   c-0.02,6.28,1.311,12.486,1.311,12.486l13.501,2.755c-0.127,3.96,0.163,8.838,2.207,10.083c3.577,2.191,20.147,5.379,27.152,2.906   c2.601-0.916,4.822-3.207,6.566-5.66L92.194,74.5c0,0,4.399-14.632,4.399-31.034C96.594,27.063,92.194,8,92.194,8L4.99,31.871z    M21.635,60.111l28.26,5.762c-1.109,1.879-2.172,3.534-3.448,4.086c-5.054,2.188-22.945,0.003-24.802-2.548   C20.679,66.087,21.108,62.697,21.635,60.111z"/>
</g>
</svg>