<svg xmlns="http://www.w3.org/2000/svg" xmlns:xlink="http://www.w3.org/1999/xlink" version="1.1" id="Capa_1" x="0px" y="0px" width="100px" height="100px" viewBox="0 0 100 100" enable-background="new 0 0 100 100" xml:space="preserve">
<path d="M7.146,61.698c0,0,1.863-8.165,12.375-5.729c7.727,1.498,14.093-3.666,14.093-3.666s1.99,7.285,2.318,8.367  c21.047,0.434,21.972,6.298,21.972,6.298s-10.238,4.381-29.102,2.864C10.352,68.245,7.146,61.698,7.146,61.698z"/>
<path d="M35.443,51.22l2.072,7.209c0,0,17.777-0.789,22.714,8.196c7.29-0.771,27.947-2.962,27.947-2.962s2.864-0.099,4.346-1.877  c1.481-1.776-1.57-17.72-1.777-19.059c-0.032-0.81-0.032-0.81-0.083-2.931s1.86-12.574,1.86-12.574s-0.593-3.259-2.567-2.37  s-19.948-1.186-19.948-1.186l-2.863-2.468c0,0-2.864,1.875-6.52,1.875C56.477,38.875,35.443,51.22,35.443,51.22z"/>
<path d="M5.882,63.663L4.96,64.322c0,0-0.877,2.834-1.185,4.477s1.054,2.238,1.054,2.238s1.876,1.358,7.769,3.229  c0-0.447,0-1.385,0-1.385l3.012,0.882v1.752l3.153,0.371l0.053-0.992l2.016,0.18l0.632,1.626l2.317,0.24l0.571-1.264l2.348,0.422  v1.293l2.979,0.451v-1.173l2.137-0.211l0.15,1.384h3.279l0.542-1.053l1.835-0.06l0.452,1.264l2.167,0.18l1.023-1.354l1.896-0.24  l0.721,1.294l2.288-0.092l1.082-1.805l2.045-0.12l0.393,1.294l2.437-0.091l1.324-2.226l14.384-2.438l5.206,6.318l2.437-0.301  l0.211-1.835l1.896-0.061l0.601,1.265l2.95-0.121l0.512-2.166l1.595,0.15l0.812,1.413l2.949,0.091l0.241-1.293l0.992-0.361  l0.663,1.323l7.282-3.61l-0.332-8.005c0,0-0.619-1.492-1.461-1.492c-1.379,0.127-3.262,1.908-5.443,2.252  c-0.673,0.062-23.21,2.316-29.208,2.571C20.264,79.246,5.882,63.663,5.882,63.663z"/>
</svg>