<svg xmlns="http://www.w3.org/2000/svg" xmlns:xlink="http://www.w3.org/1999/xlink" version="1.1" id="Capa_1" x="0px" y="0px" width="100px" height="100px" viewBox="0 0 100 100" enable-background="new 0 0 100 100" xml:space="preserve">
<path d="M81.462,50.68c0,3.245-2.579,5.877-5.762,5.877H22.799c-3.184,0-5.762-2.632-5.762-5.877l0,0  c0-3.25,2.578-5.881,5.762-5.881H75.7C78.883,44.799,81.462,47.43,81.462,50.68L81.462,50.68z"/>
<path d="M79.334,58.905c-0.352,9.929-10.188,17.89-22.278,17.89H41.443c-12.09,0-21.926-7.961-22.279-17.89H79.334z"/>
<path d="M57.056,24.562H41.443c-12.09,0-21.926,7.96-22.279,17.89h60.17C78.982,32.521,69.146,24.562,57.056,24.562z M27.906,38.511  c-0.496,0-0.898-0.402-0.898-0.898s0.402-0.898,0.898-0.898s0.898,0.402,0.898,0.898S28.402,38.511,27.906,38.511z M35.077,35.782  c-0.497,0-0.899-0.401-0.899-0.897s0.402-0.898,0.899-0.898c0.496,0,0.897,0.402,0.897,0.898S35.573,35.782,35.077,35.782z   M41.75,29.912c0-0.496,0.4-0.897,0.897-0.897s0.899,0.401,0.899,0.897c0,0.497-0.402,0.898-0.899,0.898S41.75,30.409,41.75,29.912z   M43.547,38.511c-0.497,0-0.899-0.402-0.899-0.898s0.402-0.898,0.899-0.898c0.494,0,0.897,0.402,0.897,0.898  S44.041,38.511,43.547,38.511z M51.116,34.404c-0.497,0-0.898-0.4-0.898-0.897c0-0.496,0.401-0.898,0.898-0.898  c0.495,0,0.897,0.402,0.897,0.898C52.014,34.004,51.611,34.404,51.116,34.404z M56.302,38.511c-0.496,0-0.898-0.402-0.898-0.898  s0.402-0.898,0.898-0.898c0.495,0,0.898,0.402,0.898,0.898S56.797,38.511,56.302,38.511z M57.2,29.912  c-0.496,0-0.898-0.4-0.898-0.897c0-0.496,0.402-0.897,0.898-0.897c0.495,0,0.899,0.401,0.899,0.897  C58.1,29.512,57.695,29.912,57.2,29.912z M65.874,38.511c-0.497,0-0.899-0.402-0.899-0.898s0.402-0.898,0.899-0.898  c0.495,0,0.897,0.402,0.897,0.898S66.369,38.511,65.874,38.511z M71.029,35.782c-0.496,0-0.899-0.401-0.899-0.897  s0.403-0.898,0.899-0.898s0.898,0.402,0.898,0.898S71.525,35.782,71.029,35.782z"/>
</svg>