<svg xmlns="http://www.w3.org/2000/svg" xmlns:xlink="http://www.w3.org/1999/xlink" version="1.1" id="Capa_1" x="0px" y="0px" width="100px" height="100px" viewBox="0 0 100 100" enable-background="new 0 0 100 100" xml:space="preserve">
<path d="M15.474,74.819c0.566-0.01,23.272-0.423,23.272-0.423l18.821,0.142c0.974,0.007,2.204,0.054,3.426,0.002  c0.07-0.009,6.547,0.079,8.575-0.276c2.026-0.354,9.261-13.562,9.261-13.562l9.249,12.827c1.975,2.689,4.47,4.187,6.743,2.518  c2.285-1.677,1.64-4.532-0.334-7.221c0,0-11.103-16.985-11.315-17.21c-1.828-3.558-5.24-3.062-6.513-2.056  c0,0-11.263,14.625-11.133,13.546l2.749-15.382c0.028-0.02,2.418,0.22,2.459,0.189l17.803,1.586  c3.257-0.214,2.903-3.803,2.236-5.181c-0.666-1.378-1.995-1.476-4.269-1.92l-19.721-2.466c-4.741,0-5.863,4.016-5.862,4.125  c0,0-6.338,18.079-6.313,18.534L37.616,62.72c0,0-8.062,0.271-9.196,2.754c-0.45,0.885-1.024,1.678-1.153,2.967  c0,0-0.269,0.457-0.897,0.505c-3.259-0.164-7.181,0.176-10.628-0.069c0,0-2.608-0.793-8.872-3.38  c-2.246-0.077-4.065,4.338-0.659,5.999C6.211,71.495,13.201,74.361,15.474,74.819z"/>
<path d="M26.367,68.562c0.013-0.001,0.02-0.007,0.032-0.008c1.641-3.106,1.151-7.034-1.469-9.653  c-3.211-3.212-8.415-3.218-11.633-0.001c-2.159,2.159-2.864,5.195-2.144,7.933c3.187,1.233,4.585,1.66,4.585,1.66  C19.186,68.737,23.108,68.397,26.367,68.562z"/>
<path d="M7.208,65.274c0.466,0.181,3.428,1.328,3.428,1.328s-0.374-1.817,0-3.275C10.829,63.281,8.041,62.378,7.208,65.274z"/>
<path fill="#000000" d="M27.795,46.947h6.064l-0.3,1.312l-5.554,5.926h4.356l-0.294,1.277h-6.226l0.306-1.486l5.351-5.776h-3.961  L27.795,46.947z"/>
<path fill="#000000" d="M37.812,41.506h5.171l-0.255,1.119l-4.736,5.053h3.715l-0.251,1.088h-5.309l0.261-1.267l4.561-4.926h-3.376  L37.812,41.506z"/>
<path fill="#000000" d="M34.565,32.999h4.665L39,34.007l-4.273,4.56h3.352l-0.226,0.981h-4.79l0.235-1.143l4.116-4.443h-3.047  L34.565,32.999z"/>
<path fill="#000000" d="M41.727,26.934h3.705l-0.183,0.802l-3.394,3.621h2.662l-0.18,0.78h-3.804l0.187-0.909l3.269-3.529h-2.42  L41.727,26.934z"/>
<path fill="#000000" d="M48.496,23.841h3.006l-0.148,0.65L48.6,27.429h2.159l-0.146,0.633h-3.086l0.152-0.737l2.652-2.863h-1.964  L48.496,23.841z"/>
</svg>