<svg xmlns="http://www.w3.org/2000/svg" xmlns:xlink="http://www.w3.org/1999/xlink" version="1.1" id="Capa_1" x="0px" y="0px" width="100px" height="100px" viewBox="0 0 100 100" enable-background="new 0 0 100 100" xml:space="preserve">
<path d="M74.514,50.219c0,0.559-0.451,1.01-1.011,1.01H40.069c-0.558,0-1.01-0.452-1.01-1.01l0,0c0-0.558,0.452-1.01,1.01-1.01  h33.434C74.063,49.209,74.514,49.661,74.514,50.219L74.514,50.219z"/>
<path d="M74.929,46.982c0,0.558-0.452,1.011-1.01,1.011H39.654c-0.557,0-1.009-0.453-1.009-1.011l0,0c0-0.557,0.452-1.01,1.009-1.01  h34.265C74.477,45.972,74.929,46.425,74.929,46.982L74.929,46.982z"/>
<path d="M75.344,43.747c0,0.558-0.452,1.01-1.01,1.01H39.24c-0.558,0-1.011-0.452-1.011-1.01l0,0c0-0.559,0.453-1.01,1.011-1.01  h35.094C74.892,42.737,75.344,43.188,75.344,43.747L75.344,43.747z"/>
<path d="M75.76,40.509c0,0.558-0.453,1.01-1.013,1.01H38.825c-0.558,0-1.011-0.453-1.011-1.01l0,0c0-0.558,0.453-1.01,1.011-1.01  h35.922C75.307,39.499,75.76,39.952,75.76,40.509L75.76,40.509z"/>
<path d="M75.164,36.263H49.515l-3.204-17.028c-0.03-0.162-0.244-0.258-0.476-0.214l-3.602,0.677  c-0.231,0.044-0.394,0.21-0.363,0.373l3.046,16.192H38.41c-0.558,0-1.01,0.452-1.01,1.009c0,0.559,0.453,1.011,1.01,1.011h36.754  c0.558,0,1.01-0.453,1.01-1.011C76.174,36.715,75.722,36.263,75.164,36.263z"/>
<path d="M72.674,52.652c-0.312,0-25.477,0-31.775,0c-1.034,0-1.01,1.01-1.01,1.01l4.15,33.456c0,2.569,2.083,4.653,4.653,4.653  H64.88c2.571,0,4.654-2.084,4.654-4.653c0,0,4.149-32.549,4.149-33.456S73.018,52.652,72.674,52.652z"/>
<path d="M34.908,13.618c-0.236,0-0.446-0.167-0.491-0.408l-0.734-3.908c-0.051-0.271,0.127-0.533,0.399-0.583  c0.272-0.048,0.533,0.127,0.583,0.399l0.734,3.908c0.051,0.271-0.127,0.533-0.399,0.583C34.969,13.615,34.938,13.618,34.908,13.618  L34.908,13.618z"/>
<path d="M36.735,13.567c-0.021,0-0.042-0.001-0.064-0.004c-0.274-0.036-0.467-0.286-0.432-0.56l0.508-3.944  c0.036-0.273,0.283-0.459,0.56-0.432c0.274,0.036,0.467,0.286,0.432,0.56l-0.508,3.944C37.198,13.383,36.983,13.567,36.735,13.567  L36.735,13.567z"/>
<path d="M38.487,14.081c-0.072,0-0.145-0.016-0.214-0.048c-0.25-0.118-0.356-0.417-0.237-0.666l1.703-3.593  c0.119-0.249,0.415-0.356,0.666-0.237c0.25,0.118,0.356,0.417,0.237,0.666l-1.703,3.593C38.854,13.975,38.675,14.081,38.487,14.081  L38.487,14.081z"/>
<path d="M39.998,15.112c-0.123,0-0.247-0.045-0.343-0.136c-0.201-0.19-0.21-0.506-0.021-0.707l2.73-2.892  c0.19-0.2,0.505-0.209,0.707-0.021c0.201,0.19,0.21,0.506,0.021,0.707l-2.73,2.892C40.263,15.059,40.13,15.112,39.998,15.112  L39.998,15.112z"/>
<path d="M41.115,16.559c-0.177,0-0.349-0.094-0.439-0.26c-0.132-0.242-0.043-0.546,0.199-0.679l3.489-1.907  c0.242-0.131,0.546-0.043,0.679,0.199c0.132,0.242,0.043,0.546-0.199,0.679l-3.489,1.907C41.278,16.539,41.196,16.559,41.115,16.559  L41.115,16.559z"/>
<path d="M41.728,18.28c-0.236,0-0.446-0.167-0.491-0.408c-0.051-0.271,0.127-0.533,0.399-0.583l3.908-0.735  c0.273-0.05,0.533,0.127,0.583,0.399c0.051,0.271-0.127,0.533-0.399,0.583l-3.908,0.735C41.79,18.277,41.759,18.28,41.728,18.28  L41.728,18.28z"/>
<path d="M32.656,13.818c0.208-0.04,0.341-0.258,0.297-0.49l-0.677-3.602c-0.044-0.232-0.248-0.389-0.455-0.349l-7.784,1.464  c-0.207,0.039-0.339,0.258-0.296,0.491l0.677,3.601c0.043,0.232,0.247,0.389,0.456,0.349L32.656,13.818z"/>
</svg>