<svg xmlns="http://www.w3.org/2000/svg" xmlns:xlink="http://www.w3.org/1999/xlink" version="1.1" id="Layer_1" x="0px" y="0px" width="100px" height="100px" viewBox="0 0 100 100" enable-background="new 0 0 100 100" xml:space="preserve">
<g>
	<path fill="#000000" d="M32.33,20.587c1.73,0,3.135-1.404,3.135-3.135S32.482,6.564,32.33,8.29   c-0.477,5.372-3.135,7.431-3.135,9.162S30.598,20.587,32.33,20.587z"/>
	<path fill="#000000" d="M44.137,20.587c1.732,0,3.137-1.404,3.137-3.135S44.291,6.564,44.137,8.29   c-0.477,5.372-3.135,7.431-3.135,9.162S42.406,20.587,44.137,20.587z"/>
	<path fill="#000000" d="M55.945,20.587c1.732,0,3.135-1.404,3.135-3.135S56.1,6.564,55.945,8.29   c-0.477,5.372-3.135,7.431-3.135,9.162S54.215,20.587,55.945,20.587z"/>
	<path fill="#000000" d="M67.754,20.587c1.73,0,3.135-1.404,3.135-3.135S67.906,6.564,67.754,8.29   c-0.479,5.372-3.135,7.431-3.135,9.162S66.021,20.587,67.754,20.587z"/>
	<path fill="#000000" d="M89.459,84.054V46.087c0-5.968-4.855-10.824-10.824-10.824H71.77c0.143-0.271,0.229-0.574,0.229-0.9V24.156   c0-1.087-0.881-1.968-1.969-1.968h-3.936c-1.086,0-1.967,0.881-1.967,1.968v10.207c0,0.326,0.086,0.629,0.227,0.9h-4.391   c0.141-0.271,0.227-0.574,0.227-0.9V24.156c0-1.087-0.881-1.968-1.967-1.968h-3.936c-1.088,0-1.969,0.881-1.969,1.968v10.207   c0,0.326,0.088,0.629,0.229,0.9h-4.393c0.141-0.271,0.229-0.574,0.229-0.9V24.156c0-1.087-0.881-1.968-1.969-1.968h-3.936   c-1.086,0-1.969,0.881-1.969,1.968v10.207c0,0.326,0.088,0.629,0.229,0.9h-4.391c0.141-0.271,0.227-0.574,0.227-0.9V24.156   c0-1.087-0.881-1.968-1.967-1.968H30.67c-1.086,0-1.967,0.881-1.967,1.968v10.207c0,0.326,0.086,0.629,0.227,0.9h-5.764   c-5.969,0-10.824,4.855-10.824,10.824v37.967H0v7.872h100v-7.872H89.459z M81.588,83.992c-1.039,0.002-2.359,0.002-4.033,0.002   c-6.662,0-16.654-0.012-26.646-0.023c-9.998-0.012-19.994-0.024-26.66-0.024c-1.535,0-2.893,0.001-4.035,0.002v-8.3h61.375V83.992z    M81.588,67.776H20.213v-8.364h61.375V67.776z M81.588,51.541H20.213v-5.454c0-1.628,1.324-2.952,2.953-2.952h55.469   c1.629,0,2.953,1.324,2.953,2.952V51.541z"/>
</g>
</svg>