<svg xmlns="http://www.w3.org/2000/svg" xmlns:xlink="http://www.w3.org/1999/xlink" version="1.1" id="Layer_1" x="0px" y="0px" width="100px" height="100px" viewBox="0 0 100 100" enable-background="new 0 0 100 100" xml:space="preserve">
<path fill="#000000" d="M98.28,60.757c-8.314-11.633-19.59-24.044-48.306-24.044c-31.361,0-42.371,15.66-48.286,24.072L0,63.188  l1.52,2.512c3.819,6.311,18.929,26.9,52.991,26.9c28.285,0,37.785-16.316,42.889-25.084c0.376-0.645,0.731-1.254,1.072-1.821  L100,63.162L98.28,60.757z M62.813,55.203c0,4.126-3.344,7.471-7.47,7.471c-4.125,0-7.47-3.345-7.47-7.471  c0-4.125,3.345-7.47,7.47-7.47C59.47,47.733,62.813,51.078,62.813,55.203z M54.511,83.606c-25.753,0-38.715-13.289-43.673-20.126  c5.049-6.738,11.421-13.02,23.111-15.985c-0.868,2.409-1.355,5.001-1.355,7.708c0,12.564,10.186,22.75,22.75,22.75  s22.751-10.186,22.751-22.75c0-0.869-0.054-1.725-0.148-2.568c5.214,3.338,8.637,7.387,11.311,10.993  C84.469,71.826,77.035,83.606,54.511,83.606z"/>
<path fill="#000000" d="M49.962,23.503c1.994,0,3.93,0.04,5.812,0.119V7.4H45.496v16.178C46.953,23.529,48.44,23.503,49.962,23.503z  "/>
<path fill="#000000" d="M81.987,28.021l6.586-12.926l-9.158-4.666l-7.558,14.832l0.544,0.277  C75.821,26.217,79.007,27.052,81.987,28.021z"/>
<path fill="#000000" d="M29.073,25.306l-9.021-11.87l-8.184,6.221l6.36,8.367C21.565,26.948,25.173,26.028,29.073,25.306z"/>
</svg>