<svg xmlns="http://www.w3.org/2000/svg" xmlns:xlink="http://www.w3.org/1999/xlink" version="1.1" id="Layer_1" x="0px" y="0px" width="100px" height="100px" viewBox="0 0 100 100" enable-background="new 0 0 100 100" xml:space="preserve">
<path fill-rule="evenodd" clip-rule="evenodd" fill="#000000" d="M23.057,63.103c0-2.567,2.082-4.649,4.65-4.649  c1.708,0,3.21,0.915,4.018,2.288l0.135,0.247c3.54,6.367,10.326,10.658,18.108,10.658c7.889,0,14.792-4.41,18.31-10.913  c0.809-1.37,2.315-2.28,4.022-2.28c2.568,0,4.648,2.082,4.648,4.649c0,0.74-0.165,1.444-0.473,2.065  c-5.084,9.398-15.068,15.799-26.508,15.799c-11.446,0-21.389-6.405-26.45-15.807C23.214,64.541,23.057,63.839,23.057,63.103z   M64.263,23.692c3.677,0,6.658,2.981,6.658,6.658v10.653c0,3.678-2.981,6.658-6.658,6.658c-3.678,0-6.658-2.98-6.658-6.658V30.35  C57.604,26.673,60.585,23.692,64.263,23.692z M35.737,23.692c3.678,0,6.658,2.981,6.658,6.658v10.653  c0,3.678-2.98,6.658-6.658,6.658c-3.676,0-6.658-2.98-6.658-6.658V30.35C29.079,26.673,32.061,23.692,35.737,23.692z M0,50  C0,22.385,22.385,0,50,0s50,22.385,50,50s-22.385,50-50,50S0,77.615,0,50z"/>
</svg>