<svg xmlns="http://www.w3.org/2000/svg" xmlns:xlink="http://www.w3.org/1999/xlink" version="1.1" id="Layer_1" x="0px" y="0px" width="100px" height="100px" viewBox="0 0 100 100" enable-background="new 0 0 100 100" xml:space="preserve">
<path fill-rule="evenodd" clip-rule="evenodd" fill="#000000" d="M82.42,25.556C78.568,15.289,68.668,7.979,57.055,7.979  c-9.67,0-18.151,5.071-22.943,12.696c-1.124-0.142-2.266-0.224-3.428-0.224c-14.958,0-27.084,12.126-27.084,27.085  c0,6.071,1.998,11.676,5.371,16.192c-2.125,2.404-3.418,5.562-3.418,9.024c0,2.506,0.679,4.853,1.858,6.87  c-0.375-0.07-0.761-0.111-1.156-0.111C2.8,79.513,0,82.312,0,85.767s2.8,6.254,6.254,6.254s6.254-2.8,6.254-6.254  c0-0.408-0.042-0.807-0.117-1.193c2.001,1.152,4.32,1.815,6.795,1.815c4,0,7.598-1.723,10.092-4.467  c4.422,3.142,9.824,4.994,15.661,4.994c8.412,0,15.927-3.834,20.896-9.851c2.257,0.61,4.629,0.941,7.08,0.941  C87.874,78.007,100,65.881,100,50.922C100,39.309,92.689,29.406,82.42,25.556z"/>
</svg>