<svg xmlns="http://www.w3.org/2000/svg" xmlns:xlink="http://www.w3.org/1999/xlink" version="1.1" id="Layer_1" x="0px" y="0px" width="100px" height="100px" viewBox="0 0 100 100" enable-background="new 0 0 100 100" xml:space="preserve">
<path opacity="0.54" d="M46.885,25.308"/>
<polygon points="49.657,29.948 52.244,29.948 52.471,29.745 52.453,25.958 52.23,25.698 49.657,25.698 49.51,25.698 46.937,25.698   46.713,25.964 46.713,29.698 46.823,29.948 49.51,29.948 "/>
<polygon points="49.578,35.479 54.881,35.479 54.881,33.979 54.256,33.979 54.256,32.854 53.693,32.854 53.693,32.354   53.131,32.354 53.131,31.667 52.527,31.667 52.527,30.917 52.256,30.917 52.256,30.354 49.578,30.354 49.443,30.354 46.765,30.354   46.765,30.917 46.494,30.917 46.494,31.667 45.89,31.667 45.89,32.354 45.328,32.354 45.328,32.854 44.765,32.854 44.765,33.979   44.14,33.979 44.14,35.479 49.443,35.479 "/>
<polygon points="49.671,35.901 54.975,35.901 55.662,36.901 55.662,37.714 49.671,37.714 49.563,37.714 43.573,37.714   43.573,36.901 44.26,35.901 49.563,35.901 "/>
<polygon points="49.687,48.276 55.303,48.276 55.678,47.058 49.687,47.058 49.563,47.058 43.573,47.058 43.948,48.276   49.563,48.276 "/>
<polygon points="49.857,72.35 54.711,72.35 54.711,48.683 49.857,48.683 49.639,48.683 44.524,48.683 44.524,72.35 49.639,72.35 "/>
<polygon points="49.671,85.683 55.678,85.683 55.678,73.517 54.787,72.767 49.671,72.767 49.563,72.767 44.448,72.767   43.573,73.517 43.573,85.683 49.563,85.683 "/>
<polygon points="52.119,25.308 47.026,25.308 49.229,18.62 49.229,13.567 49.917,13.567 49.917,18.636 "/>
<path d="M49.776,38.213l5.808-0.015v8.594l-5.792,0.016h-0.229h-5.99v-8.594h5.594L49.776,38.213z M49.625,39.003  c-1.933,0-3.5,1.567-3.5,3.5s1.567,3.5,3.5,3.5c1.933,0,3.5-1.567,3.5-3.5S51.559,39.003,49.625,39.003z"/>
<circle cx="49.625" cy="42.503" r="0.5"/>
<rect x="49.417" y="39.386" width="0.359" height="2.547"/>
<rect x="50.698" y="42.45" transform="matrix(0.5008 -0.8656 0.8656 0.5008 -12.007 65.6082)" width="0.359" height="1.529"/>
</svg>