<svg xmlns="http://www.w3.org/2000/svg" xmlns:xlink="http://www.w3.org/1999/xlink" version="1.1" id="Layer_3" x="0px" y="0px" width="100px" height="100px" viewBox="0 0 100 100" enable-background="new 0 0 100 100" xml:space="preserve">
<path d="M43.25,93.812L50,88.938h1.062V88.25l1.562-0.312v-0.75c0,0-0.938-1.75,0-2.625s2-1.625,2-1.625s1.062-0.938-0.812-2.25  S50,77.562,50,77.562S49,77.438,48.625,78s-1.375,0.938-1.375,0.938H46l-0.75-0.875l-2-0.25l-1.062-0.262l-1.062-0.863l-0.562-1.062  c0,0-1.625-1.375,1.125,0s1.75,1.062,1.75,1.062l1.5,0.188l1.438-1.062l1.13-1.062h0.932l0.375,0.75h0.875c0,0,3-0.75-0.375-2.5  c0,0-0.562-0.5,0.188-0.75s0.5-0.312,0.5-0.312l-0.875-0.688l-2.5,1.188l-0.5,0.062l-1.062-0.688l2.443-1.188H51l1.5-1.062  c0,0,1.062-1.625,0.438-1.625s0.938-1.062,0.938-1.062l3.75-4.562l0.688-0.812v-1.188l2.875-3.438c0,0,1.125-3.5-2.25-4.375  l-0.875,0.312L56.938,52.5h-1.5l-1.812-0.812h-1h-0.688H51c0,0-1.562-0.812-1.438-1.188s-1.125,0-1.125,0s-0.75,0.562-1.5,0.562  s-0.875-0.375-1.062-0.375s-0.812,0.688-0.812,0.688s-0.375,0.562-1.625,0.062s-0.562,0.125-0.562,0.125s-1,2.75-3.812,0.938  c0,0-0.188-0.438,0.938-0.625s3.75-1.208,3.188-1.542S41.875,50,41.875,50s-3.688,2.438-1-0.688h0.875l1.438-0.5l0.688,0.875l2-2  h-0.562h-0.5h-1.625c0,0-1.562-0.562-2.188-1.75s2.312,0.875,2.312,0.875h1.062l-0.5-1.244l1.562-0.319l8.125-6.062L53.5,38.5L53,38  l1.438-1.688l-0.688-0.688h-1.438c0,0-1.375,1-2.312,0h-0.812L48.938,36L47,35.625l-0.625-0.375L46.062,36h-0.688L45,35.25  l-0.812,0.312c0,0-1.188,1.125-1.438,1.312s-0.812-0.25-0.375-0.875s0-1.062,0-1.062l-1.438,1.125l-0.625,0.312l-0.125-0.688  l0.75-0.75h-0.562h-0.438l-0.062-1.312l-0.824-0.5l-0.863,1.125c0,0-0.875,0.875,0,1.812s-0.75,0.688-1.438,0.688  s0.188,1.938,0.688,1.875s-0.5,1-0.5,1l-2.5-1.188l-0.312,0.75L35.25,40l-0.812,1.438c0,0-2.688-1.375-0.312,0.812  s1.562,2.5,1.562,2.5v1.312l-1.562-1.625h-1.312H32l-0.5-1.25L31,43.5l0.438,1.562c0,0-0.312,0.938-1.5-1.062  s-0.25,2.25,0.312,2.688s-0.625,0.062-0.625,0.062l-0.261,0.188v1l0.698,0.812l1.188,0.562l-0.125,0.312l-2.062-0.188L28.375,48.5  h-0.438l-0.5,1.5L28,51.312l0.438,0.625l0.75-0.25l0.375-0.375c0,0,2.812,0.5,1.125,1.062s-1.938,0.062-1.938,0.062L28.625,53  c0,0,2.312,0.438,2.125,0.688S30.562,55,30.562,55l-1.438-0.812l-0.938,0.625l2.125,1.438l-1,0.75l-1.875-1.25v1.188l2.062,1.125  l-0.875,0.562L26.75,57.5c0,0-1.562,1.062-0.5,1.25s1.125,0.688,1.125,0.688l-2.188,1.688l-2.125-0.562l-1.125,0.5l2.25,0.5  l1.875,0.188l1.688,1.125l-0.562,0.25l-1.312-0.562l-1.125,0.125l-1.062-0.125l0.812,1.875l1.812,0.625l1.562-0.688l1.375-0.906  l1-1.406c0,0-0.875-1.375-0.562-1.375s2,0.125,2,0.125L32,62.125l-1.312,0.625l2,0.719l-0.938,0.406h-1l-2.062,1.25l1,0.562  l-0.312,0.438h-1.25c0,0-1.688,2.5-2.188,2.5s1.188,0.75,1.188,0.75l-0.062,0.5l-1.312,2.562l-1,0.938l-0.312,0.688L23.812,74.5  l0.625,0.812l-1.062,0.312l0.062,1.062l1.938-0.625L26,75.375c0,0,0.25-2.5,1-2.562s3.375-2.438,3.375-2.438l1.25,0.125  l-0.688,0.625l-1.312,0.688l-1.688,1.625L27,74.5l0.062,1.625L27.688,76l1.062-2.125L29.188,74l-0.062,2.375h0.75l0.375-0.812  l0.812-3.125l1.688-0.75v0.562L32,73.125l-0.5,0.438l2.438,2.938L33,76.625l-1.25-0.938h-0.688l-0.5,1.375v1.875L29.812,79  l0.062,0.75l1.562,1.375l0.188,2.312l-2,1.875c0,0-2.625,3.625-3.062,3.625S26.688,90,26.688,90l0.562,1.125  c0,0-1.062,0.75-1.5-0.938s-1.188,0.562-1.188,0.938s1.5,2.25,1.5,2.25l1.688-1.062l2.75,3.625l1.312-1.188l-0.688-1.625  l0.562-0.938l0.5,1.312l1.25,0.875l0.688,0.438l0.438-0.688L35,94.438v0.75l0.625,0.75l0.875-1.875c0,0,0.438-0.125,1.562,0.562  s0.625-1.188,0.625-1.188v-1.312C38.688,92.125,42.061,94.671,43.25,93.812z"/>
<path d="M26.729,78.501c0,0-1.021-0.126-1.042,1.916s0.229,2.292,0.521,2.542s1.854-0.396,1.583-0.938l0.031-0.271h-0.761  l-0.021-0.994l0.438-0.09c0,0,0.146-1.583-0.229-1.583l-0.021-0.292L27.062,78.5L26.729,78.501z"/>
<path d="M26.208,76.376h-0.354l-0.625,0.396l-0.646,0.521H24.25l-0.312,0.479L23.5,78.292v0.604h-0.458l-0.312,0.583l-0.146,0.459  v0.646l-0.646,0.979l-0.521,0.208l-0.083,0.521h-0.521c0,0-0.271,1.376,0.333,1.459l0.021,0.208l1.542,0.104l0.271-0.542  l0.375-0.021l-0.042-0.486l-0.375-0.264l0.396-0.854l0.438-0.688l0.021-0.542l0.312-0.083c0,0,0.167-1.063,0.375-1.167  s0.375-0.5,0.375-0.5s-0.104-0.666,0.188-0.666s0.5-0.334,0.5-0.334l0.375-0.312l0.417-0.354v-0.875H26.208z"/>
<path d="M24.417,70.708h-0.271v0.334c0,0-0.581-0.291-0.603,0s-0.584,0.479-0.584,0.479l-0.521,0.459l-0.5,0.312v0.583  c0,0-0.271,0.854-0.854,0.812s-0.479,0.229-0.479,0.229l-0.188,0.688l0.125,0.521l0.417,0.458l0.354-0.229l-0.021-0.459l0.562,0.042  v-0.583c0,0,0.75-0.708,0.833-0.688s0.188-0.625,0.188-0.625l0.562-0.417c0,0,0.104-0.666,0.229-0.646s0.479-0.125,0.479-0.125  l0.396-0.271L24.417,70.708z"/>
<path d="M19.146,71.521h0.063h0.854c0,0-0.229-0.375,0-0.396S20.752,71,20.752,71l-0.231-0.958c0,0-0.083,0.438-0.312,0.375  s-0.479-0.042-0.479-0.042l-0.021,0.406l-0.562,0.177"/>
<path d="M19.949,73.375v0.438l-0.282,0.084v1.687l0.479,0.646c0,0-0.521,1.937-2.333,2.271l-0.896-0.104v-0.479l0.688-0.021  l0.562-1.188l-0.021-0.542l0.385-0.021c0,0,0.073-1.604-1.156-0.75S16.333,76.5,16.333,76.5l-0.5-0.208l0.438-0.709l0.438-0.708  l0.167-0.791l1.292-0.104C18.167,73.979,18.898,73.562,19.949,73.375z"/>
<path d="M25.734,66.281l-0.812,1.203l-0.703,0.109v-0.312c0,0-1.438-0.312-1.578,0.109s-2.984,0.688-3.078,0.016s0-0.781,0-0.781  h0.672l0.518,0.484c0,0,2.982,0.031,1.732-0.688l-1.297,0.016l0.047-0.406c0,0,2.859-0.438,0.828-1.328s-1-2.484-0.125-2.469  s0.859-0.094,0.859-0.094L22.922,63l0.109,0.781l0.5,0.203c0,0-0.094,1.266,0.844,1.281s0.719,0.25,0.719,0.25l0.141,0.406  L25.734,66.281z"/>
<path d="M15.156,63.375c-0.812-0.328,0-0.766,0-0.766v-0.469h0.203l0.031,0.125l0.188,0.078l0.188,0.328l1.5,0.047l0.109,0.516  c0,0-0.703,0.078-1.156,0.078c0,0-0.625,0.281-0.5,0.297s-0.297,0.109-0.297,0.109l-0.047-0.266L15.156,63.375z"/>
<path d="M18.016,61.578c0,0,0.234,0.469,0.297,0.562s0,0.312,0,0.312h0.484l0.141-0.312c0,0,0.531-0.516,0.969-0.562  s0.109-0.562,0.109-0.562l-0.941-0.078v0.453c0,0-1.059,0.172-1.059,0.125S18.016,61.578,18.016,61.578z"/>
<polygon points="23.484,57.906 23.031,57.906 22.953,58.406 22.5,58.5 22.5,58.734 23.484,58.562 23.859,58.32 23.859,58.062 "/>
<path d="M21.938,57.547l0.984-0.703v-0.953c0,0-0.422-0.312-0.422-0.484s-0.562-0.109-0.562-0.109s-0.297,0.656-0.406,0.672  s-0.109,0.447-0.109,0.447l0.297,0.834l0.219,0.219V57.547z"/>
<polygon points="20.094,54.828 20.234,55.469 20.516,55.469 20.797,55.469 21.022,55.286 21.156,54.828 20.531,54.688 "/>
<path d="M25.188,56.896l1.25-1.25l1.979-1.792l-0.688-0.729c0,0-0.875,0.834-1.021,0.5s-0.625-0.916-0.521-1.271  s-0.125-0.375-0.125-0.375l-0.667,0.479c0,0-0.979-1.875,0.188-2.854l-0.146-0.688l0.667-0.542l-0.167-1.417  c0,0-0.999-1.292-0.926-1.5s-0.324-0.208-0.324-0.208l-0.75,1.062c0,0,0.333,1.292,0.271,1.375s-0.062,1.479-0.062,1.479  l-0.625-0.042l-0.083-0.521c0,0-0.917-0.958-1.062-1.292s-0.438-0.125-0.438-0.125v1.271l-0.167,0.562c0,0-0.563-0.396-0.615-0.812  s-0.531-0.271-0.531-0.271l-0.146,1.479l0.396,0.333l-0.062,0.375l0.609,0.146V49.71l1.016-0.042c0,0,2.104,1.876,1.208,2.084  s-0.625,0.146-0.625,0.146l0.021-0.458c0,0-1.354-0.625-0.667,0.688s0.645,0.583,0.645,0.583l1.312,0.979l0.604,0.459l0.375-0.5  l0.604,0.146l0.104,0.604l0.75-0.021l-0.146,0.396l-0.688,0.146l-0.625,0.667l-0.354,0.25l-0.188,0.791L25.188,56.896z"/>
<polygon points="10.667,56.625 10.667,56.896 11.125,56.896 11.333,56.625 11,56.416 "/>
<path d="M12.75,53.708c0,0-0.25,0.834-0.667,0.667s0,0.312,0,0.312l0.667,0.391l0.875-0.391l-0.208-0.812L12.75,53.708z"/>
<path d="M14.042,52.417v-2.25c0,0,0.632-0.292,0.753-0.167s0.247-1.25,0.247-1.25L16.458,50v0.333h-0.625l-0.583,0.741h0.375  l-0.042,0.551c0,0-0.952-0.083-0.789,0.625s-0.586,0.167-0.586,0.167"/>
<polygon points="15.25,46.958 15.25,47.25 15.708,47.625 16.167,47.625 16.458,46.958 15.854,46.625 15.25,46.792 "/>
<polygon points="13.25,45.251 13.625,45.251 13.625,45.583 13.25,45.792 12.762,45.792 "/>
<polygon points="15.25,43.75 14.667,44.416 15.854,45.251 16.458,45.792 16.458,46.125 16.708,46.125 16.875,45.792 17.417,45.251   17.75,43.917 17.75,43.333 16.833,44.167 "/>
<path d="M19.792,43.083L19.208,42.5l1.417-1.083l0.531-0.167c0,0,0.385,0.833,0.781,0.917s-0.781,0.208-0.781,0.208l-0.677,0.542  L19.792,43.083z"/>
<path d="M20.094,39.5l2.282,1.958v-0.542V39.5h0.546v-0.708l1.526-0.167c0,0,4.385-3.583,4.385-4.583s-0.625-1.375-0.625-1.375  l-3.042,1.708l-1.5,0.083l-0.25,1.708l-0.75,0.625l-0.25,0.458l-0.479-0.188v-1.188L21.156,36l-0.864,0.75l-0.198,0.75l0.698,0.167  l-0.698,0.958V39.5z"/>
<polygon points="25.292,39.292 24.448,39.292 23.167,40 23.375,40.833 24.229,40.833 24.464,40.833 25.458,40.062 "/>
<path d="M56.959,32.332l-3.375-0.5l-0.709-2.583l0.834-1.333c0,0,2.666-2.042,2.583,0s0.376,3.167,1.417,3.167  S57.392,32.396,56.959,32.332z"/>
<path d="M71.043,17.581l1.459-3.833l-0.167-1.792l-1.042,0.625L69.71,11.29v-2c0,0,2.666,2.167,2.333-2.25l1.167-1.333l0.333,2.042  l4.042-5.708h0.583l-3.5,6.875l-0.458,2.167l-0.271,2.25l-2.188,4.25C71.752,17.581,70.829,18.143,71.043,17.581z"/>
<path d="M53.5,32.334l-1.208-1.293l-0.625,0.875c0,0,0.793,1.584,0.917,1.417S53.5,32.334,53.5,32.334z"/>
<path d="M55.708,24.25l1.458,1.917l1.125-0.958l-0.916-0.958C57.375,24.25,55.411,23.86,55.708,24.25z"/>
<polygon points="66.125,12.167 66.459,13.292 67.084,13.292 66.604,11.833 "/>
<polygon points="76.625,9.935 75.25,9.935 75.709,10.958 76.834,10.584 77.232,9.935 "/>
<polygon points="58.917,28.5 58.917,29.5 60.417,29.208 59.667,28.625 "/>
</svg>