<svg xmlns="http://www.w3.org/2000/svg" xmlns:xlink="http://www.w3.org/1999/xlink" version="1.1" id="Layer_2" x="0px" y="0px" width="100px" height="100px" viewBox="0 0 100 100" enable-background="new 0 0 100 100" xml:space="preserve">
<path d="M73.25,19.25h-2.125l-5.25-6.375h-2.25l-1.5,1L57.75,14l-3-2.5H54l0.875,2.625l-1.5,1.25l-0.875-2.5L48.75,14l-3.25,0.125  l-3.5,2.75l-2.25,3.25L35.5,22.25c0,0-7.5,4-7.5,5.375v0.75h2.5l0.375-1.125l0.875-0.125l1,1.875l2.125-2.125l3.625-1.568  c0,0,6.875,0.443,6.625,1.193s-2,1.375-2,1.375L43.875,29L43,30.625V32.5c0,0,1,1.25,1.5,1.375s2.625,0,2.625,0  s-7.25,2.5-4.875,6.375l3.25,1v1.25h-1.75l-1.5,2.125c0,0-2.958,9.958-13.958,10.708l-1.125,0.833H25.75v-0.75l-0.875-0.041  l-5.188,3.562c0,0-3.375,0.688-4.812-1.125S14,57.375,14,57.375s-0.625,1.438-1.5,2.438s-3.688,0.812-3.688,0.812  s-5.188,1.312,1.062,2.438l1.625,0.312L11.562,67l-3.25,1.188c0,0-1.75,0.875,0,1.062S13,70.188,13,70.188s1.625-0.312,1.562,1.125  s-2,0.375-2,0.375s-1.625-1.062-1.625-0.188s1.375,3.5,2,3.5s2.562-1.5,2.562-1.5l1.562,0.125l0.625,0.812c0,0,2.875-1,3-2.938  l4-0.188l1.438,0.812l0.062-1.688c0,0,1.938-0.375,2.062,0.062s0.875-1.125,0.875-1.125s1.625,0.125,0.938,1.562  s-2.688,4.25,1.625,4.5s4.438,1.938,4.438,1.938l-0.25,0.875H32.25c0,0-4.25-0.688-2.188,2.625c0,0,2.438,0.062,2.625-0.5  S34.5,80.5,34.5,80.5s2.188,0.25,2.25-0.312s6.625-3.062,6.375,5.312c0,0,5.375,6.25,7.688,6.188s5.312-0.312,5.312-0.312L61.438,87  c0,0,0.875-1.688,1.188,0.062s7.312-0.125,7.438-2.125S70.75,80.5,70.75,80.5L70.5,77l-7.188-5.625c0,0-1.812-3.375-1.75-5.625  s3.062-9.062,4.25-9.25s-0.062-2.062-0.062-2.062L61.562,50l3.938-3.312c0,0,0.062-3.812,0.625-3.875S69,38.438,69,38.438  l-3.562-3.188l3.25-4.75c0,0,1.688-1.375,3.625-1.062s3.812,2.25,3.812,2.25l0.812-0.75c0,0-3-2.875-3.25-2.875  s0.062-3.75,0.062-3.75s-2.062-1.5-0.688-3S73.25,19.25,73.25,19.25z"/>
<path d="M47.375,11.5c0,0-7,3.125-7,4.25s-0.5-2.125-0.5-2.125l-1.125,0.118H37c0,0-0.25-3.368-0.75-3.493s-0.5-2.25,0-2.875  s-1.125-3,5.375-2.125l1.625,2.875c0,0,2.25,2.921,2.875,2.398S47.375,11.5,47.375,11.5z"/>
</svg>