<?xml version="1.0" encoding="utf-8"?>
<!-- Generator: Adobe Illustrator 15.1.0, SVG Export Plug-In . SVG Version: 6.00 Build 0)  -->
<!DOCTYPE svg PUBLIC "-//W3C//DTD SVG 1.1//EN" "http://www.w3.org/Graphics/SVG/1.1/DTD/svg11.dtd">
<svg version="1.1" id="Layer_1" xmlns="http://www.w3.org/2000/svg" xmlns:xlink="http://www.w3.org/1999/xlink" x="0px" y="0px"
	 width="60.773px" height="100px" viewBox="0 0 60.773 100" enable-background="new 0 0 60.773 100" xml:space="preserve">
<path d="M59.297,0C37.962,0,20.604,22.317,20.604,49.749v0.414C8.887,52.294,0,62.543,0,74.874C0,88.75,11.25,100,25.126,100
	s25.126-11.25,25.126-25.126c0-13.027-9.917-23.739-22.613-25v-0.125c0-19.935,10.175-36.725,23.884-41.411
	c2.431-0.832,4.714,2.943,7.57,3.121c0.066,0.01,0.135,0.021,0.204,0.021c0.815,0,1.477-0.661,1.477-1.477V1.477
	C60.773,0.66,60.112,0,59.297,0z"/>
</svg>
