<?xml version="1.0" encoding="utf-8"?>
<!-- Generator: Adobe Illustrator 14.0.0, SVG Export Plug-In . SVG Version: 6.00 Build 43363)  -->
<!DOCTYPE svg PUBLIC "-//W3C//DTD SVG 1.0//EN" "http://www.w3.org/TR/2001/REC-SVG-20010904/DTD/svg10.dtd">
<svg version="1.0" id="Layer_1" xmlns="http://www.w3.org/2000/svg" xmlns:xlink="http://www.w3.org/1999/xlink" x="0px" y="0px"
	 width="91.021px" height="100px" viewBox="0 0 91.021 100" enable-background="new 0 0 91.021 100" xml:space="preserve">
<path d="M68.763,48.568H57.222V35.061c4.564-3.592,7.504-9.171,7.504-15.43C64.726,8.787,55.939,0,45.099,0
	C36.191,0,27.98,6.685,26.276,14.052c-0.381,1.633-0.81,5.913-0.81,5.913l-4.092,10.327c-0.082,0.184-0.123,0.395-0.123,0.616
	c0,0.868,0.697,1.568,1.568,1.578c0.438-0.884,1.415-1.428,2.449-1.224c1.221,0.224,2.021,1.408,1.779,2.629
	c-0.153,0.844-0.786,1.483-1.582,1.718v2.364c0,4.275,3.466,7.739,7.738,7.739h3.075v2.857H23.776C9.405,48.558,0,59.113,0,69.899
	V100l15.82-0.007v-26.06h4.555v26.06L70.861,100V73.934h4.67V100l15.479-0.007l0.011-32.938
	C91.021,58.852,82.896,48.558,68.763,48.568z M30.218,28.196c-0.384,0.313-0.891,0.486-1.378,0.486
	c-0.697,0-1.357-0.312-1.775-0.872c-0.384-0.469-0.541-1.061-0.469-1.653c0.068-0.612,0.381-1.133,0.85-1.5
	c0.942-0.749,2.422-0.575,3.153,0.367c0.384,0.486,0.541,1.078,0.469,1.67C31,27.288,30.705,27.828,30.218,28.196z M36.922,26.627
	v0.051l-0.49-0.034c-1.235-0.105-2.16-1.201-2.055-2.439c0.105-1.149,1.082-2.071,2.249-2.071l0.19,0.017
	c0.592,0.051,1.149,0.33,1.534,0.782c0.381,0.473,0.575,1.048,0.521,1.656C38.786,25.651,37.949,26.505,36.922,26.627z
	 M41.813,29.465c-0.347-0.487-0.486-1.079-0.381-1.671c0.105-0.592,0.418-1.115,0.922-1.462c0.976-0.697,2.438-0.435,3.136,0.538
	c0.714,1.03,0.47,2.439-0.541,3.154c-0.385,0.262-0.837,0.401-1.306,0.401C42.912,30.424,42.232,30.077,41.813,29.465z
	 M45.698,46.551c-1.235,0-2.245-1.01-2.245-2.245c0-1.239,1.01-2.249,2.245-2.249c1.255,0,2.265,1.01,2.265,2.249
	C47.963,45.541,46.953,46.551,45.698,46.551z M45.698,38.295c-1.235,0-2.245-1.01-2.245-2.262c0-1.238,1.01-2.248,2.245-2.248
	c1.255,0,2.265,1.01,2.265,2.248C47.963,37.285,46.953,38.295,45.698,38.295z M55.171,57.933
	c8.193-0.285,12.871,18.109,10.051,35.283c-1.66,7.287-6.007-0.19-9.826-0.833c-4.229-0.714-6.609-1.207-6.81-3.422
	C47.851,80.937,50.926,58.09,55.171,57.933z M42.776,88.899c-0.201,2.208-2.578,2.701-6.806,3.412
	c-3.82,0.646-8.381,8.559-9.827,0.837c-2.816-17.178,1.864-35.572,10.044-35.28C40.439,58.024,43.511,80.868,42.776,88.899z
	 M48.678,62.521c-0.837,0-1.603-0.47-2.004-1.218c-0.575-1.099-0.139-2.456,0.959-3.03c1.079-0.558,2.49-0.105,3.048,0.959
	c0.275,0.521,0.33,1.129,0.137,1.704c-0.174,0.575-0.555,1.048-1.096,1.326C49.409,62.437,49.041,62.521,48.678,62.521
	L48.678,62.521z M45.698,54.823c-1.044,0-1.932-0.714-2.194-1.725c-0.14-0.592-0.034-1.2,0.279-1.704
	c0.313-0.524,0.803-0.871,1.395-1.01c1.184-0.296,2.418,0.469,2.714,1.653c0.296,1.2-0.452,2.422-1.653,2.718
	C46.065,54.79,45.871,54.823,45.698,54.823L45.698,54.823z M42.722,62.521c-0.351,0-0.714-0.085-1.048-0.259
	c-1.095-0.574-1.514-1.936-0.938-3.03c0.558-1.064,1.969-1.517,3.03-0.959c0.541,0.278,0.922,0.748,1.116,1.323
	c0.174,0.574,0.119,1.184-0.16,1.725C44.341,62.069,43.575,62.521,42.722,62.521L42.722,62.521z"/>
<path d="M59.685,91.832c0.782,0,1.53-0.419,1.932-1.078c0.643-1.082,0.296-2.456-0.766-3.103c-1.026-0.626-2.473-0.241-3.102,0.769
	c-0.296,0.521-0.401,1.112-0.241,1.708c0.139,0.592,0.503,1.078,1.026,1.391C58.882,91.729,59.283,91.832,59.685,91.832
	L59.685,91.832z"/>
<path d="M62.035,84.012c1.2,0,2.193-0.956,2.244-2.156c0.055-1.256-0.922-2.3-2.244-2.354c-1.222,0-2.211,0.96-2.266,2.16
	c-0.018,0.609,0.19,1.184,0.592,1.619c0.418,0.436,0.976,0.697,1.585,0.731H62.035L62.035,84.012z"/>
<path d="M60.327,76.019c0.367,0,0.697-0.085,1.01-0.242c1.116-0.558,1.568-1.897,1.011-3.014c-0.523-1.081-1.915-1.568-3.014-1.026
	c-0.541,0.278-0.938,0.73-1.133,1.306c-0.19,0.575-0.156,1.184,0.123,1.725C58.708,75.532,59.474,76.019,60.327,76.019
	L60.327,76.019z"/>
<path d="M55.015,69.801c0.73,0,1.411-0.348,1.847-0.956c0.697-1.01,0.452-2.422-0.558-3.136c-0.973-0.697-2.439-0.436-3.133,0.54
	c-0.715,1.027-0.473,2.439,0.537,3.153C54.093,69.664,54.545,69.801,55.015,69.801L55.015,69.801z"/>
<path d="M31.715,91.832c0.418,0,0.816-0.103,1.167-0.313c0.503-0.312,0.871-0.799,1.027-1.391c0.139-0.575,0.051-1.188-0.262-1.69
	c-0.625-1.027-2.071-1.395-3.099-0.786c-0.507,0.316-0.871,0.803-1.027,1.395c-0.14,0.575-0.055,1.184,0.262,1.708
	C30.181,91.434,30.929,91.832,31.715,91.832L31.715,91.832z"/>
<path d="M29.381,84.012h0.085c1.238-0.051,2.194-1.096,2.16-2.351c-0.051-1.2-1.01-2.16-2.351-2.16
	c-0.592,0.038-1.15,0.279-1.568,0.731c-0.401,0.436-0.609,1.011-0.592,1.623C27.17,83.056,28.16,84.012,29.381,84.012L29.381,84.012
	z"/>
<path d="M31.051,76.019c0.871,0,1.657-0.486,2.038-1.252c0.262-0.541,0.296-1.149,0.105-1.725s-0.592-1.027-1.133-1.306
	c-1.095-0.542-2.49-0.055-3.014,1.026c-0.275,0.541-0.312,1.15-0.119,1.725c0.191,0.559,0.592,1.027,1.129,1.289
	C30.375,75.934,30.722,76.019,31.051,76.019L31.051,76.019z"/>
<path d="M36.381,69.801c0.469,0,0.922-0.137,1.306-0.398c1.01-0.714,1.255-2.126,0.541-3.153c-0.697-0.976-2.16-1.237-3.136-0.54
	c-0.503,0.35-0.82,0.87-0.922,1.462c-0.105,0.592,0.017,1.188,0.364,1.674C34.97,69.453,35.65,69.801,36.381,69.801L36.381,69.801z"
	/>
</svg>
