<?xml version="1.0" encoding="utf-8"?>
<!-- Generator: Adobe Illustrator 14.0.0, SVG Export Plug-In . SVG Version: 6.00 Build 43363)  -->
<!DOCTYPE svg PUBLIC "-//W3C//DTD SVG 1.0//EN" "http://www.w3.org/TR/2001/REC-SVG-20010904/DTD/svg10.dtd">
<svg version="1.0" id="Layer_1" xmlns="http://www.w3.org/2000/svg" xmlns:xlink="http://www.w3.org/1999/xlink" x="0px" y="0px"
	 width="50.679px" height="100px" viewBox="0 0 50.679 100" enable-background="new 0 0 50.679 100" xml:space="preserve">
<path d="M49.862,12.723c-4.063-1.745-8.127-3.495-12.19-5.241c-2.716-1.168-5.372-2.851-8.415-2.851c-1.485,0-2.972,0-4.458,0
	c-0.001,0-0.002,0-0.004,0c-0.017-1.204-0.033-2.408-0.051-3.612C24.736,0.463,24.287,0,23.726,0c-2.125,0-4.251,0-6.375,0
	c-0.562,0-1.011,0.463-1.02,1.019c-0.017,1.204-0.034,2.408-0.051,3.612c-0.001,0-0.002,0-0.003,0c-4.895,0-9.79,0-14.685,0
	C0.724,4.631,0,5.296,0,6.092c0,5.262,0,10.524,0,15.786c0,0.797,0.724,1.462,1.591,1.462c4.79,0,9.579,0,14.368,0
	c-0.077,4.418-0.155,9.313-0.232,13.216c-0.236,11.878-0.472,23.756-0.708,35.634c-0.164,8.236-0.327,16.474-0.491,24.71
	c-0.008,0.385-0.016,0.77-0.023,1.154c-0.021,1.062,0.9,1.945,1.945,1.945c1.665,0,2.423,0,4.088,0c1.664,0,2.423,0,4.088,0
	c1.044,0,1.966-0.884,1.944-1.945c-0.007-0.385-0.015-0.77-0.022-1.154c-0.164-8.236-0.328-16.474-0.491-24.71
	c-0.236-11.878-0.472-23.756-0.708-35.634c-0.078-3.903-0.154-8.798-0.232-13.216c1.38,0,2.76,0,4.141,0
	c2.822,0,5.165-1.457,7.698-2.544c4.303-1.849,8.604-3.698,12.907-5.547c0.654-0.281,0.87-0.775,0.806-1.263
	C50.732,13.498,50.517,13.004,49.862,12.723z"/>
</svg>
