<?xml version="1.0" encoding="utf-8"?>
<!-- Generator: Adobe Illustrator 14.0.0, SVG Export Plug-In . SVG Version: 6.00 Build 43363)  -->
<!DOCTYPE svg PUBLIC "-//W3C//DTD SVG 1.0//EN" "http://www.w3.org/TR/2001/REC-SVG-20010904/DTD/svg10.dtd">
<svg version="1.0" id="Layer_1" xmlns="http://www.w3.org/2000/svg" xmlns:xlink="http://www.w3.org/1999/xlink" x="0px" y="0px"
	 width="100px" height="35.316px" viewBox="0 0 100 35.316" enable-background="new 0 0 100 35.316" xml:space="preserve">
<circle cx="14.168" cy="28.868" r="6.448"/>
<circle cx="79.074" cy="28.868" r="6.448"/>
<path d="M98.567,0H39.82c-0.734,0-1.754,0.42-2.276,0.936L26.965,11.414c-0.463,0.458-1.398,0.931-2.042,1.031L1.392,16.119
	C0.625,16.239,0,16.968,0,17.745v9.69c0,0.79,0.643,1.434,1.434,1.434h4.43c0-4.587,3.718-8.305,8.305-8.305
	s8.304,3.718,8.304,8.305H70.77c0-4.587,3.719-8.305,8.305-8.305c4.587,0,8.305,3.718,8.305,8.305h11.188
	c0.79,0,1.433-0.644,1.433-1.434V1.433C100,0.643,99.357,0,98.567,0z M55.631,11.847c0,0.79-0.644,1.433-1.434,1.433H31.283
	c-0.553,0-0.731-0.231-0.788-0.369c-0.057-0.138-0.093-0.427,0.3-0.817l8.137-8.075c0.521-0.517,1.541-0.938,2.274-0.938h12.991
	c0.79,0,1.434,0.643,1.434,1.433V11.847z"/>
</svg>
