<?xml version="1.0" encoding="utf-8"?>
<!-- Generator: Adobe Illustrator 14.0.0, SVG Export Plug-In . SVG Version: 6.00 Build 43363)  -->
<!DOCTYPE svg PUBLIC "-//W3C//DTD SVG 1.0//EN" "http://www.w3.org/TR/2001/REC-SVG-20010904/DTD/svg10.dtd">
<svg version="1.0" id="Layer_1" xmlns="http://www.w3.org/2000/svg" xmlns:xlink="http://www.w3.org/1999/xlink" x="0px" y="0px"
	 width="99.999px" height="100px" viewBox="0 0 99.999 100" enable-background="new 0 0 99.999 100" xml:space="preserve">
<path d="M0,50.002C0,77.571,22.43,100,50,100c27.569,0,49.999-22.43,49.999-49.999C99.999,22.43,77.569,0,50,0
	C22.43,0,0,22.43,0,50.002L0,50.002z M8.8,50.002C8.8,27.283,27.282,8.8,50,8.8c22.718,0,41.199,18.483,41.199,41.202
	c0,22.716-18.48,41.199-41.199,41.199C27.282,91.201,8.8,72.718,8.8,50.002L8.8,50.002z"/>
<path d="M65.181,36.761c-1.319-2.011-2.955-3.317-4.909-3.917c-1.272-0.399-4.003-0.601-8.189-0.601H41.029v40.022h6.836V57.162
	h4.503c3.126,0,5.513-0.191,7.161-0.574c1.214-0.309,2.406-0.94,3.581-1.896c1.177-0.953,2.144-2.269,2.905-3.943
	c0.763-1.674,1.144-3.74,1.144-6.196C67.16,41.37,66.5,38.771,65.181,36.761z M59.317,47.817c-0.522,0.901-1.245,1.562-2.169,1.984
	c-0.923,0.423-2.75,0.634-5.484,0.634h-3.798V38.969h3.353c2.501,0,4.164,0.093,4.994,0.276c1.124,0.239,2.055,0.838,2.788,1.792
	c0.734,0.956,1.103,2.168,1.103,3.639C60.103,45.871,59.842,46.917,59.317,47.817z"/>
</svg>
