<?xml version="1.0" encoding="utf-8"?>
<!-- Generator: Adobe Illustrator 14.0.0, SVG Export Plug-In . SVG Version: 6.00 Build 43363)  -->
<!DOCTYPE svg PUBLIC "-//W3C//DTD SVG 1.0//EN" "http://www.w3.org/TR/2001/REC-SVG-20010904/DTD/svg10.dtd">
<svg version="1.0" id="Layer_1" xmlns="http://www.w3.org/2000/svg" xmlns:xlink="http://www.w3.org/1999/xlink" x="0px" y="0px"
	 width="30.402px" height="100px" viewBox="0 0 30.402 100" enable-background="new 0 0 30.402 100" xml:space="preserve">
<path d="M21.737,22.787C23.065,11.455,24.592,0,15.201,0C5.809,0,7.336,11.455,8.664,22.787H21.737z"/>
<path d="M20.896,32.655c0.033-1.656,0.159-3.407,0.331-5.203H9.174C9.346,29.249,9.472,31,9.505,32.655H20.896z"/>
<path d="M21.13,37.321H9.271c-0.237,1.659-0.667,3.121-1.369,4.302c-17.43,29.367-0.895,54.357,1.2,57.061
	C9.959,99.791,13.657,100,15.201,100c1.543,0,5.241-0.21,6.099-1.316c2.095-2.704,18.63-27.694,1.2-57.061
	C21.797,40.441,21.368,38.979,21.13,37.321z"/>
</svg>
