<?xml version="1.0" encoding="utf-8"?>
<!-- Generator: Adobe Illustrator 14.0.0, SVG Export Plug-In . SVG Version: 6.00 Build 43363)  -->
<!DOCTYPE svg PUBLIC "-//W3C//DTD SVG 1.0//EN" "http://www.w3.org/TR/2001/REC-SVG-20010904/DTD/svg10.dtd">
<svg version="1.0" id="Layer_1" xmlns="http://www.w3.org/2000/svg" xmlns:xlink="http://www.w3.org/1999/xlink" x="0px" y="0px"
	 width="85.527px" height="100px" viewBox="0 0 85.527 100" enable-background="new 0 0 85.527 100" xml:space="preserve">
<path d="M58.803,42.763L58.803,42.763l-4.788-4.788l31.513-26.238l-5.869-5.869L73.789,0L47.552,31.512l-4.788-4.788l-4.788,4.788
	L11.738,0L5.869,5.869L0,11.738l31.512,26.238l-4.788,4.788l-1.464,9.994L0,73.789l5.869,5.869l5.869,5.869l10.584-12.712L18.34,100
	h18.469V87.562h0l0,0c0-3.288,2.666-5.954,5.954-5.954c3.289,0,5.954,2.666,5.954,5.954c0,0.001,0,0.002,0,0.002V100h18.47
	l-3.982-27.185l10.584,12.712l5.869-5.869l5.869-5.869L60.267,52.757L58.803,42.763z"/>
</svg>
