<?xml version="1.0" encoding="utf-8"?>
<!-- Generator: Adobe Illustrator 15.1.0, SVG Export Plug-In . SVG Version: 6.00 Build 0)  -->
<!DOCTYPE svg PUBLIC "-//W3C//DTD SVG 1.1//EN" "http://www.w3.org/Graphics/SVG/1.1/DTD/svg11.dtd">
<svg version="1.1" id="Layer_1" xmlns="http://www.w3.org/2000/svg" xmlns:xlink="http://www.w3.org/1999/xlink" x="0px" y="0px"
	 width="70px" height="100px" viewBox="0 0 70 100" enable-background="new 0 0 70 100" xml:space="preserve">
<circle cx="21" cy="3" r="3"/>
<circle cx="49" cy="3" r="3"/>
<path d="M43,5.18V2.5C43,1.671,42.328,1,41.5,1h-13C27.672,1,27,1.671,27,2.5v2.68c-7.872,1.694-18.794,5.115-24,9.616v18
	C10.562,26.258,30.184,22,35,22s24.438,4.258,32,10.796v-18C61.794,10.294,50.872,6.874,43,5.18z M32,18.183
	C25.928,19.037,14.432,21.876,7,26v-9.796c7.432-4.124,18.928-6.963,25-7.817V18.183z M63,26c-7.432-4.124-18.928-6.963-25-7.817
	V8.387c6.072,0.854,17.568,3.693,25,7.817V26z"/>
<path d="M67,36.796C59.438,30.258,39.816,26,35,26S10.562,30.258,3,36.796C1.141,38.403,0,40.146,0,42c0,2.197,0,18.223,0,26.5
	C0,70.985,2.015,73,4.5,73h61c2.485,0,4.5-2.015,4.5-4.5c0-8.277,0-24.303,0-26.5C70,40.146,68.859,38.403,67,36.796z M35,42
	c-3.313,0-6-2.687-6-6s2.687-6,6-6s6,2.687,6,6S38.313,42,35,42z"/>
<path d="M6,77v15c0,1.996,1.467,3.637,3.378,3.938l-0.022,0.01l6.859,1.084L21.559,81h26.883l5.344,16.031l6.859-1.084l-0.022-0.01
	C62.533,95.637,64,93.996,64,92V77H6z"/>
<polygon points="45.559,85 24.441,85 20.221,97.664 35,100 49.779,97.664 "/>
</svg>
