<?xml version="1.0" encoding="utf-8"?>
<!-- Generator: Adobe Illustrator 14.0.0, SVG Export Plug-In . SVG Version: 6.00 Build 43363)  -->
<!DOCTYPE svg PUBLIC "-//W3C//DTD SVG 1.0//EN" "http://www.w3.org/TR/2001/REC-SVG-20010904/DTD/svg10.dtd">
<svg version="1.0" id="Layer_1" xmlns="http://www.w3.org/2000/svg" xmlns:xlink="http://www.w3.org/1999/xlink" x="0px" y="0px"
	 width="100px" height="20.826px" viewBox="0 0 100 20.826" enable-background="new 0 0 100 20.826" xml:space="preserve">
<path d="M86.426,7.219H73.041V0.716C69.159-1.117,59.67,1.147,59.67,1.147l-1.888,6.071H44.057v0.004
	C35.539,7.25,27.726,7.438,22.891,7.918C18.577,8.348,7.07,11.188,5.717,11.523l-0.012-0.065L4.776,6.627H3.07H1.365L0,13.727
	l1.365,7.1H3.07h1.706l0.928-4.831l0.012-0.065c1.353,0.336,12.86,3.176,17.174,3.605c4.835,0.48,12.648,0.668,21.167,0.695v0.004
	h42.369c7.497,0,13.574-2.914,13.574-6.508C100,10.132,93.923,7.219,86.426,7.219z"/>
</svg>
