<?xml version="1.0" encoding="utf-8"?>
<!-- Generator: Adobe Illustrator 14.0.0, SVG Export Plug-In . SVG Version: 6.00 Build 43363)  -->
<!DOCTYPE svg PUBLIC "-//W3C//DTD SVG 1.0//EN" "http://www.w3.org/TR/2001/REC-SVG-20010904/DTD/svg10.dtd">
<svg version="1.0" id="Layer_1" xmlns="http://www.w3.org/2000/svg" xmlns:xlink="http://www.w3.org/1999/xlink" x="0px" y="0px"
	 width="99.999px" height="90.895px" viewBox="0 0 99.999 90.895" enable-background="new 0 0 99.999 90.895" xml:space="preserve">
<path d="M12.954,66.427c-6.757,0-12.234,5.477-12.234,12.232c0,6.758,5.477,12.235,12.234,12.235
	c6.755,0,12.232-5.478,12.232-12.235C25.186,71.903,19.709,66.427,12.954,66.427z M12.954,82.775c-2.274,0-4.116-1.842-4.116-4.116
	c0-2.272,1.842-4.116,4.116-4.116c2.273,0,4.116,1.844,4.116,4.116C17.069,80.934,15.227,82.775,12.954,82.775z"/>
<path d="M81.867,66.427c-6.758,0-12.235,5.477-12.235,12.232c0,6.758,5.478,12.235,12.235,12.235
	c6.753,0,12.229-5.478,12.229-12.235C94.097,71.903,88.62,66.427,81.867,66.427z M81.867,82.775c-2.275,0-4.116-1.842-4.116-4.116
	c0-2.272,1.841-4.116,4.116-4.116c2.272,0,4.115,1.844,4.115,4.116C85.982,80.934,84.14,82.775,81.867,82.775z"/>
<path d="M58.721,31.555C49.116,21.78,48.259,0,48.259,0c-61.054,0-46.82,64.141-46.82,64.141h22.637c0,0-1.789-9.834,8.232-9.261
	c0,0,13.548,0.172,31.557,9.261h35.671C104.108,46.761,73.678,46.782,58.721,31.555z M40.995,10.489
	c0-1.231,0.998-2.229,2.229-2.229c1.231,0,2.229,0.998,2.229,2.229s-0.999,2.229-2.229,2.229
	C41.993,12.719,40.995,11.721,40.995,10.489z M46.311,24.524c-1.231,0-2.229-0.999-2.229-2.229c0-1.231,0.998-2.229,2.229-2.229
	c1.23,0,2.229,0.998,2.229,2.229C48.541,23.525,47.541,24.524,46.311,24.524z M52.796,36.072c-1.23,0-2.229-0.999-2.229-2.229
	c0-1.231,0.999-2.229,2.229-2.229c1.229,0,2.229,0.998,2.229,2.229C55.025,35.073,54.025,36.072,52.796,36.072z"/>
</svg>
