<?xml version="1.0" encoding="utf-8"?>
<!-- Generator: Adobe Illustrator 14.0.0, SVG Export Plug-In . SVG Version: 6.00 Build 43363)  -->
<!DOCTYPE svg PUBLIC "-//W3C//DTD SVG 1.0//EN" "http://www.w3.org/TR/2001/REC-SVG-20010904/DTD/svg10.dtd">
<svg version="1.0" id="Layer_1" xmlns="http://www.w3.org/2000/svg" xmlns:xlink="http://www.w3.org/1999/xlink" x="0px" y="0px"
	 width="100px" height="33.718px" viewBox="0 0 100 33.718" enable-background="new 0 0 100 33.718" xml:space="preserve">
<path d="M93.123,0c-4.092,15.371-21.866,26.974-43.124,26.974C28.744,26.974,10.969,15.371,6.877,0H0
	c4.048,19.104,24.897,33.718,49.999,33.718C75.104,33.718,95.952,19.104,100,0H93.123z"/>
<path d="M10.363,0c4.118,13.498,20.327,23.603,39.636,23.603C69.311,23.603,85.52,13.498,89.637,0H10.363z M18.25,3.729
	c-0.48,1.179-1.299,1.963-1.826,1.748c-0.523-0.215-0.562-1.348-0.078-2.524c0.48-1.179,1.299-1.962,1.826-1.748
	C18.699,1.42,18.733,2.553,18.25,3.729z M23.91,7.571c-1.273,0-2.308-0.461-2.308-1.03c0-0.568,1.034-1.03,2.308-1.03
	s2.307,0.461,2.307,1.03C26.217,7.11,25.184,7.571,23.91,7.571z M33.772,15.73c-1.036,0.742-2.142,0.97-2.476,0.509
	c-0.332-0.461,0.238-1.44,1.273-2.182c1.033-0.742,2.142-0.97,2.476-0.509C35.377,14.01,34.807,14.988,33.772,15.73z M36.562,4.992
	c-1.036,0.742-2.143,0.97-2.477,0.509c-0.331-0.461,0.24-1.44,1.273-2.182c1.034-0.742,2.143-0.971,2.477-0.51
	C38.168,3.271,37.597,4.25,36.562,4.992z M45.429,19.098c-0.551,0.139-1.247-0.757-1.552-1.991
	c-0.305-1.236-0.107-2.351,0.445-2.489c0.549-0.136,1.247,0.757,1.555,1.993C46.18,17.847,45.982,18.96,45.429,19.098z
	 M54.49,10.798c-0.373,0.428-1.455,0.092-2.412-0.746c-0.957-0.839-1.432-1.866-1.059-2.296c0.373-0.426,1.458-0.093,2.415,0.746
	C54.392,9.343,54.863,10.368,54.49,10.798z M52.756,3.341c-1.273,0-2.307-0.461-2.307-1.029s1.033-1.029,2.307-1.029
	s2.308,0.461,2.308,1.029S54.029,3.341,52.756,3.341z M61.434,17.889c-1.273,0-2.307-0.461-2.307-1.03
	c0-0.569,1.033-1.03,2.307-1.03s2.307,0.461,2.307,1.03C63.74,17.427,62.707,17.889,61.434,17.889z M67.824,8.267
	c-0.621,1.111-1.528,1.789-2.026,1.512c-0.494-0.276-0.394-1.407,0.228-2.518c0.624-1.111,1.528-1.785,2.027-1.51
	C68.549,6.028,68.445,7.156,67.824,8.267z M81.34,5.677c-0.373,0.428-1.456,0.092-2.413-0.746c-0.957-0.839-1.431-1.866-1.058-2.296
	c0.373-0.426,1.457-0.092,2.414,0.747C81.24,4.222,81.713,5.247,81.34,5.677z"/>
</svg>
