<?xml version="1.0" encoding="utf-8"?>
<!-- Generator: Adobe Illustrator 14.0.0, SVG Export Plug-In . SVG Version: 6.00 Build 43363)  -->
<!DOCTYPE svg PUBLIC "-//W3C//DTD SVG 1.0//EN" "http://www.w3.org/TR/2001/REC-SVG-20010904/DTD/svg10.dtd">
<svg version="1.0" id="Layer_1" xmlns="http://www.w3.org/2000/svg" xmlns:xlink="http://www.w3.org/1999/xlink" x="0px" y="0px"
	 width="100px" height="58.947px" viewBox="0 0 100 58.947" enable-background="new 0 0 100 58.947" xml:space="preserve">
<rect width="21.353" height="13.534"/>
<rect x="52.632" width="27.067" height="13.534"/>
<path d="M0,14.737v44.21h100v-44.21H0z M49.925,55.038c-10.132,0-18.346-8.214-18.346-18.347c0-10.132,8.214-18.346,18.346-18.346
	c10.132,0,18.346,8.214,18.346,18.346C68.271,46.824,60.057,55.038,49.925,55.038z"/>
<path d="M49.925,20.752c8.803,0,15.939,7.137,15.939,15.939c0,8.804-7.137,15.94-15.939,15.94c-8.804,0-15.94-7.137-15.94-15.94
	C33.985,27.889,41.121,20.752,49.925,20.752"/>
<path d="M81.418,0.065v13.403h18.517V0.065H81.418z M97.96,11.494H83.393V2.04H97.96V11.494z"/>
<path d="M23.374,0.065v13.403h27.238V0.065H23.374z M48.637,11.494H25.348V2.04h23.289V11.494z"/>
</svg>
