<?xml version="1.0" encoding="utf-8"?>
<!-- Generator: Adobe Illustrator 14.0.0, SVG Export Plug-In . SVG Version: 6.00 Build 43363)  -->
<!DOCTYPE svg PUBLIC "-//W3C//DTD SVG 1.0//EN" "http://www.w3.org/TR/2001/REC-SVG-20010904/DTD/svg10.dtd">
<svg version="1.0" id="Layer_1" xmlns="http://www.w3.org/2000/svg" xmlns:xlink="http://www.w3.org/1999/xlink" x="0px" y="0px"
	 width="100px" height="42.355px" viewBox="0 0 100 42.355" enable-background="new 0 0 100 42.355" xml:space="preserve">
<polygon points="88.313,23.372 88.313,23.372 88.313,23.372 "/>
<path d="M88.313,0H64.75c0.209,0.394,0.415,0.776,0.619,1.149H40.325c-25.689,0-33.523,2.858-35.018,3.535
	C2.249,5.548,0,8.356,0,11.686c0,3.148,2.012,5.828,4.813,6.842c1.353,1.176,8.133,6.187,32.355,13.68l32.805,10.148l5.536-0.393
	l-4.347-3.45L38.357,28.364c-15.004-4.642-23.085-8.309-27.188-10.535c2.034-1.293,3.39-3.561,3.39-6.144
	c0-1.823-0.68-3.489-1.792-4.768c4.909-0.846,13.448-1.745,27.558-1.746l27.455,0.001c5.162,7.788,9.656,8.907,17.469,8.907
	l2.702-8.121c0.12-0.008,0.24-0.021,0.363-0.021c3.175,0,5.747,2.573,5.747,5.748c0,3.174-2.572,5.748-5.747,5.748h-2.396H74.161
	c-9.626,0-9.411,5.171-9.411,5.938h23.563l0,0c6.454,0,11.687-5.231,11.687-11.687C100,5.232,94.768,0,88.313,0z M7.279,8.43
	c1.796,0,3.257,1.46,3.257,3.256c0,1.797-1.461,3.258-3.257,3.258s-3.257-1.461-3.256-3.258C4.022,9.891,5.483,8.43,7.279,8.43z"/>
</svg>
