<?xml version="1.0" encoding="utf-8"?>
<!-- Generator: Adobe Illustrator 14.0.0, SVG Export Plug-In . SVG Version: 6.00 Build 43363)  -->
<!DOCTYPE svg PUBLIC "-//W3C//DTD SVG 1.0//EN" "http://www.w3.org/TR/2001/REC-SVG-20010904/DTD/svg10.dtd">
<svg version="1.0" id="Layer_1" xmlns="http://www.w3.org/2000/svg" xmlns:xlink="http://www.w3.org/1999/xlink" x="0px" y="0px"
	 width="100px" height="93.385px" viewBox="0 0 100 93.385" enable-background="new 0 0 100 93.385" xml:space="preserve">
<path d="M85.228,26.771H64.807c1.693-2.693,2.688-5.868,2.688-9.277C67.495,7.848,59.647,0,50,0
	c-9.646,0-17.494,7.848-17.494,17.495c0,3.409,0.995,6.584,2.688,9.277H14.773L0,93.385h100L85.228,26.771z M40.58,17.495
	c0-5.194,4.226-9.42,9.42-9.42s9.421,4.226,9.421,9.42c0,4.709-3.487,8.588-8.008,9.277H50h-1.414
	C44.065,26.083,40.58,22.204,40.58,17.495z"/>
</svg>
