<?xml version="1.0" encoding="utf-8"?>
<!-- Generator: Adobe Illustrator 14.0.0, SVG Export Plug-In . SVG Version: 6.00 Build 43363)  -->
<!DOCTYPE svg PUBLIC "-//W3C//DTD SVG 1.0//EN" "http://www.w3.org/TR/2001/REC-SVG-20010904/DTD/svg10.dtd">
<svg version="1.0" id="Layer_1" xmlns="http://www.w3.org/2000/svg" xmlns:xlink="http://www.w3.org/1999/xlink" x="0px" y="0px"
	 width="69.938px" height="100px" viewBox="-0.116 0 69.938 100" enable-background="new -0.116 0 69.938 100" xml:space="preserve"
	>
<polygon id="rect3074_1_" points="5.242,85.721 24.511,85.721 25.837,100 6.568,100 "/>
<polygon id="rect3074_2_" points="63.139,100 43.87,100 45.196,85.721 64.464,85.721 "/>
<path d="M34.916,0.001c-0.021,0-0.042,0-0.062,0s-0.04,0-0.062,0C19.221-0.138-2.174,8.982,0.043,29.5l5.098,54.671l19.167-0.041
	l-5.304-53.406c-0.344-9.466,6.577-12.831,15.608-13.04c0.08,0.001,0.16,0.001,0.24,0c0.081,0.001,0.161,0.001,0.241,0
	c9.031,0.209,15.952,3.574,15.608,13.04L45.399,84.13l19.167,0.041L69.664,29.5C71.881,8.982,50.486-0.138,34.916,0.001z"/>
</svg>
