<?xml version="1.0" encoding="utf-8"?>
<!-- Generator: Adobe Illustrator 14.0.0, SVG Export Plug-In . SVG Version: 6.00 Build 43363)  -->
<!DOCTYPE svg PUBLIC "-//W3C//DTD SVG 1.0//EN" "http://www.w3.org/TR/2001/REC-SVG-20010904/DTD/svg10.dtd">
<svg version="1.0" id="Layer_1" xmlns="http://www.w3.org/2000/svg" xmlns:xlink="http://www.w3.org/1999/xlink" x="0px" y="0px"
	 width="99.996px" height="100px" viewBox="0 0 99.996 100" enable-background="new 0 0 99.996 100" xml:space="preserve">
<path d="M94.043,5.953c-9.443-9.445-26.828-7.433-38.748,4.49c-11.242,11.24-13.673,27.333-6.002,37.055L17.94,78.85l-3.575,1.603
	L0,94.819l2.59,2.589L5.179,100l14.366-14.366l1.604-3.575l31.356-31.359c9.72,7.672,25.813,5.241,37.053-6
	C101.475,32.781,103.489,15.398,94.043,5.953z M95.028,16.921l-2.969-2.969l1.35-1.349C94.145,13.944,94.684,15.393,95.028,16.921z
	 M83.46,16.539l2.021,2.023l-3.621,3.619l-2.022-2.021l-2.021-2.022l3.623-3.622L83.46,16.539z M82.425,13.53l3.621-3.62
	l2.023,2.021l2.023,2.023l-3.623,3.62l-2.022-2.021L82.425,13.53z M66.619,27.364l-3.633,3.633l-3.628-3.632l3.63-3.633
	L66.619,27.364z M63.973,22.745l3.621-3.623l3.63,3.633l-3.618,3.622L63.973,22.745z M67.605,28.35l2.021,2.023l2.021,2.021
	l-3.63,3.633l-2.023-2.022l-2.021-2.021L67.605,28.35z M70.613,29.383l-2.021-2.021l3.62-3.622l2.023,2.023l2.022,2.021
	l-3.622,3.622L70.613,29.383z M73.2,22.757l3.631-3.633l2.022,2.023l2.022,2.021l-3.634,3.633l-2.02-2.021L73.2,22.757z
	 M77.24,28.772l3.632,3.629l-3.62,3.623l-3.632-3.632L77.24,28.772z M78.229,27.784l3.632-3.631l3.632,3.629l-3.633,3.634
	L78.229,27.784z M76.831,17.151L73.2,13.52l3.622-3.62l3.631,3.629L76.831,17.151z M75.846,18.137l-3.634,3.634l-3.631-3.632
	l3.632-3.634L75.846,18.137z M67.594,17.152l-3.631-3.632l3.633-3.631l3.632,3.63L67.594,17.152z M66.607,18.139l-3.621,3.622
	l-3.633-3.632l3.623-3.62L66.607,18.139z M62,22.745l-3.63,3.634l-3.631-3.633l3.631-3.633L62,22.745z M62,31.983l-3.622,3.619
	l-3.631-3.629l3.623-3.623L62,31.983z M57.394,36.59l-3.621,3.62l-3.631-3.632l3.62-3.62L57.394,36.59z M58.378,37.575l2.023,2.021
	l2.021,2.023l-3.62,3.62l-2.022-2.021l-2.022-2.023L58.378,37.575z M61.387,38.61l-2.023-2.021l3.623-3.623l2.021,2.023l2.022,2.021
	l-3.623,3.62L61.387,38.61z M68.018,37.995l3.629,3.632l-3.621,3.62l-3.631-3.629L68.018,37.995z M69.001,37.011l3.632-3.633
	l3.631,3.632l-3.631,3.633L69.001,37.011z M77.252,37.997l3.633,3.632l-3.633,3.633L73.62,41.63L77.252,37.997z M78.239,37.01
	l3.62-3.623l3.632,3.633l-3.623,3.622L78.239,37.01z M82.848,32.403l3.631-3.634l3.63,3.632l-3.63,3.632L82.848,32.403z
	 M82.848,23.165l3.622-3.62l3.631,3.63l-3.622,3.622L82.848,23.165z M87.454,18.56l3.62-3.623l3.632,3.632l-3.621,3.62L87.454,18.56
	z M90.839,9.158c0.687,0.687,1.285,1.434,1.818,2.225l-1.583,1.584l-2.023-2.023l-2.023-2.021l1.584-1.584
	C89.405,7.871,90.154,8.473,90.839,9.158z M87.395,6.588l-1.349,1.347l-2.969-2.969C84.604,5.312,86.051,5.855,87.395,6.588z
	 M85.059,8.925l-3.619,3.62l-3.633-3.633l3.621-3.619L85.059,8.925z M80.188,4.559L76.82,7.926l-2.907-2.907
	C76.051,4.569,78.164,4.418,80.188,4.559z M72.322,5.399l3.51,3.511l-3.621,3.622L68.584,8.9l3.399-3.4
	C72.098,5.467,72.209,5.431,72.322,5.399z M68.939,6.568l-1.344,1.345L67.1,7.417C67.709,7.114,68.323,6.828,68.939,6.568z
	 M65.807,8.1l0.803,0.802l-3.633,3.634l-1.515-1.517C62.861,9.907,64.318,8.932,65.807,8.1z M58.498,13.651
	c0.613-0.61,1.238-1.191,1.881-1.742l1.611,1.611l-3.623,3.621l-1.609-1.612C57.31,14.889,57.89,14.262,58.498,13.651z
	 M55.867,16.611l1.514,1.517l-3.633,3.633l-0.803-0.801C53.78,19.468,54.756,18.014,55.867,16.611z M52.27,22.249l0.493,0.496
	l-1.344,1.344C51.677,23.476,51.963,22.861,52.27,22.249z M50.348,27.136l3.4-3.402l3.631,3.632l-3.623,3.62l-3.51-3.511
	C50.279,27.36,50.316,27.248,50.348,27.136z M49.867,29.063l2.908,2.909L49.4,35.345C49.26,33.319,49.418,31.203,49.867,29.063z
	 M49.828,38.236l2.957,2.959l-1.346,1.347C50.707,41.206,50.172,39.761,49.828,38.236z M54.008,45.988
	c-0.688-0.687-1.287-1.434-1.818-2.223l1.583-1.582l2.022,2.021l2.021,2.021l-1.582,1.584
	C55.443,47.277,54.695,46.676,54.008,45.988z M57.455,48.557l1.347-1.344l2.958,2.96C60.238,49.822,58.791,49.29,57.455,48.557z
	 M59.787,46.225l3.619-3.62l3.632,3.633l-3.621,3.619L59.787,46.225z M64.652,50.597l3.373-3.374l2.906,2.907
	C68.794,50.579,66.678,50.738,64.652,50.597z M72.523,49.75l-3.509-3.511l3.621-3.622l3.631,3.632l-3.401,3.4
	C72.751,49.683,72.639,49.718,72.523,49.75z M75.905,48.58l1.345-1.346l0.496,0.496C77.137,48.035,76.521,48.321,75.905,48.58z
	 M79.039,47.05l-0.803-0.803l3.632-3.633l1.515,1.517C81.986,45.242,80.528,46.216,79.039,47.05z M86.347,41.498
	c-0.61,0.608-1.238,1.188-1.879,1.739l-1.612-1.611l3.623-3.623l1.611,1.613C87.535,40.26,86.958,40.887,86.347,41.498z
	 M88.98,38.538l-1.518-1.517l3.634-3.633l0.803,0.801C91.066,35.679,90.093,37.136,88.98,38.538z M92.578,32.899l-0.496-0.496
	l1.348-1.345C93.171,31.673,92.885,32.288,92.578,32.899z M94.498,28.013l-3.401,3.402l-3.63-3.633l3.621-3.619l3.512,3.51
	C94.566,27.788,94.531,27.9,94.498,28.013z M92.072,23.176l3.368-3.367c0.14,2.025-0.014,4.138-0.462,6.275L92.072,23.176z"/>
</svg>
