<?xml version="1.0" encoding="utf-8"?>
<!-- Generator: Adobe Illustrator 14.0.0, SVG Export Plug-In . SVG Version: 6.00 Build 43363)  -->
<!DOCTYPE svg PUBLIC "-//W3C//DTD SVG 1.0//EN" "http://www.w3.org/TR/2001/REC-SVG-20010904/DTD/svg10.dtd">
<svg version="1.0" id="Layer_1" xmlns="http://www.w3.org/2000/svg" xmlns:xlink="http://www.w3.org/1999/xlink" x="0px" y="0px"
	 width="73.437px" height="100px" viewBox="0 0 73.437 100" enable-background="new 0 0 73.437 100" xml:space="preserve">
<path d="M67.644,55.638l5.793-8.273L45.521,27.819L73.437,8.273L67.644,0L41.768,18.118v-3.769h-10.1v3.769L5.793,0L0,8.273
	l27.914,19.545L0,47.364l5.793,8.273l25.875-18.119v21.787H13.145C5.885,59.306,0,65.189,0,72.449s5.885,13.145,13.145,13.145
	c7.259,0,13.144-5.885,13.144-13.145c0-3.189-1.138-6.112-3.026-8.389h8.406V100h10.1V64.061h8.408
	c-1.89,2.276-3.027,5.199-3.027,8.389c0,7.26,5.886,13.145,13.144,13.145c7.259,0,13.145-5.885,13.145-13.145
	s-5.886-13.144-13.145-13.144H41.768V37.519L67.644,55.638z M13.145,77.499c-2.789,0-5.051-2.261-5.051-5.05s2.262-5.05,5.051-5.05
	s5.05,2.261,5.05,5.05S15.934,77.499,13.145,77.499z M60.292,67.399c2.789,0,5.05,2.261,5.05,5.05s-2.261,5.05-5.05,5.05
	s-5.05-2.261-5.05-5.05S57.503,67.399,60.292,67.399z"/>
</svg>
