<?xml version="1.0" encoding="utf-8"?>
<!-- Generator: Adobe Illustrator 14.0.0, SVG Export Plug-In . SVG Version: 6.00 Build 43363)  -->
<!DOCTYPE svg PUBLIC "-//W3C//DTD SVG 1.0//EN" "http://www.w3.org/TR/2001/REC-SVG-20010904/DTD/svg10.dtd">
<svg version="1.0" id="Layer_1" xmlns="http://www.w3.org/2000/svg" xmlns:xlink="http://www.w3.org/1999/xlink" x="0px" y="0px"
	 width="100px" height="26.152px" viewBox="0 0 100 26.152" enable-background="new 0 0 100 26.152" xml:space="preserve">
<path d="M99.975,16.102C99.452,8.53,91.986,3.43,78.041,1.541c-4.823,2.326-10.016,5.583-13.337,9.173
	c-0.492,0.532-1.083,0.622-1.6,0.448c-1.04-0.349-1.777-1.771-0.79-2.838l0,0c2.574-2.782,5.398-5.403,8.507-7.6
	c0,0-2.343-0.725-4.802-0.725c-2.627,0-4.696,0.725-4.696,0.725c-5.277,2.344-11.367,5.958-15.098,9.99
	c-0.492,0.532-1.083,0.622-1.6,0.448c-1.04-0.35-1.777-1.771-0.79-2.838c2.575-2.782,5.398-5.403,8.506-7.6
	C52.342,0.725,50,0,47.54,0c-2.626,0-4.696,0.725-4.696,0.725c-5.277,2.344-11.367,5.958-15.098,9.99
	c-1.483,1.603-3.868-0.793-2.39-2.39c2.57-2.777,5.388-5.393,8.489-7.587C12.259,0.997,0.681,6.605,0.025,16.102
	c-0.31,4.49,2.11,10.051,16.907,10.051h60.611h5.525C97.865,26.152,100.285,20.592,99.975,16.102z"/>
</svg>
