<?xml version="1.0" encoding="utf-8"?>
<!-- Generator: Adobe Illustrator 14.0.0, SVG Export Plug-In . SVG Version: 6.00 Build 43363)  -->
<!DOCTYPE svg PUBLIC "-//W3C//DTD SVG 1.0//EN" "http://www.w3.org/TR/2001/REC-SVG-20010904/DTD/svg10.dtd">
<svg version="1.0" id="Layer_1" xmlns="http://www.w3.org/2000/svg" xmlns:xlink="http://www.w3.org/1999/xlink" x="0px" y="0px"
	 width="35.289px" height="100px" viewBox="0 0 35.289 100" enable-background="new 0 0 35.289 100" xml:space="preserve">
<path d="M22.842,29.594c3.158-3.479-1.855-8.61-5.198-5.499c-3.343-3.112-8.356,2.02-5.198,5.499
	c-2.477,2.629-4.954,5.258-7.43,7.888c-2.324,2.467-0.454,5.807,2.03,6.426l3.115,48.608c0,4.134,3.35,7.483,7.483,7.483
	s7.483-3.35,7.483-7.483l3.115-48.608c2.483-0.619,4.354-3.959,2.029-6.426C27.795,34.853,25.319,32.224,22.842,29.594z"/>
<path d="M35.289,21.625c0-2.109-1.711-3.82-3.82-3.82H17.644H3.82c-2.109,0-3.82,1.71-3.82,3.82c0,0.292,0.035,0.575,0.098,0.848
	l-0.002,0.001l3.581,14.136c0.062-0.073,0.114-0.149,0.181-0.22l6.552-6.957c-0.698-1.369-0.755-2.939-0.115-4.42
	c0.898-2.08,2.924-3.477,5.041-3.477c0.817,0,1.595,0.208,2.31,0.602c0.715-0.394,1.492-0.602,2.31-0.602
	c2.117,0,4.143,1.397,5.041,3.477c0.64,1.481,0.583,3.051-0.115,4.42l6.552,6.957c0.066,0.07,0.119,0.147,0.181,0.22l3.581-14.136
	l-0.002-0.001C35.252,22.201,35.289,21.918,35.289,21.625z"/>
<circle cx="17.644" cy="8.065" r="8.065"/>
</svg>
