<?xml version="1.0" encoding="utf-8"?>
<!-- Generator: Adobe Illustrator 14.0.0, SVG Export Plug-In . SVG Version: 6.00 Build 43363)  -->
<!DOCTYPE svg PUBLIC "-//W3C//DTD SVG 1.0//EN" "http://www.w3.org/TR/2001/REC-SVG-20010904/DTD/svg10.dtd">
<svg version="1.0" id="Layer_1" xmlns="http://www.w3.org/2000/svg" xmlns:xlink="http://www.w3.org/1999/xlink" x="0px" y="0px"
	 width="83.529px" height="100px" viewBox="0 0 83.529 100" enable-background="new 0 0 83.529 100" xml:space="preserve">
<path d="M74.062,26.567c-1.081-1.958-2.193-3.902-3.212-5.894c-0.386-0.753-0.763-1.512-1.117-2.28
	c-0.095-0.255-0.529-1.309-0.598-1.515c-0.252-0.765-0.491-1.538-0.663-2.325c1.122,0,5.427,0,5.427,0
	c1.066,0,1.93-0.795,1.93-1.776v-11c0-0.98-0.863-1.776-1.93-1.776c0,0-8.5,0-11.719,0c-3.496,0-5.818,2.28-7.017,5.342
	c-3.488,8.913,0.356,17.745,4.669,25.562c2.115,3.834,4.956,8.92,6.139,12.062c1.965,5.225,2.95,9.88,3.006,15.27
	c-0.19,15.017-12.195,27.021-27.212,27.211c-15.017-0.189-27.022-12.194-27.211-27.211c0.055-5.39,1.04-10.045,3.005-15.27
	c1.182-3.142,4.023-8.228,6.139-12.062c4.312-7.817,8.157-16.649,4.668-25.562C27.167,2.28,24.844,0,21.349,0C18.13,0,9.63,0,9.63,0
	C8.564,0,7.7,0.796,7.7,1.776v11c0,0.981,0.864,1.776,1.93,1.776c0,0,4.305,0,5.427,0c-0.173,0.788-0.412,1.561-0.664,2.325
	c-0.068,0.206-0.502,1.259-0.597,1.515c-0.354,0.769-0.731,1.527-1.117,2.28c-1.019,1.992-2.131,3.936-3.212,5.894
	C3.99,36.487,0.117,46.765,0,58.236C0.29,81.188,18.812,99.71,41.764,100c22.953-0.29,41.475-18.812,41.765-41.764
	C83.411,46.765,79.538,36.487,74.062,26.567z M63.086,22.244c-1.132,0-2.049-0.917-2.049-2.049c0-1.132,0.917-2.049,2.049-2.049
	s2.049,0.917,2.049,2.049C65.135,21.327,64.218,22.244,63.086,22.244z M20.442,18.146c1.132,0,2.049,0.917,2.049,2.049
	c0,1.131-0.917,2.049-2.049,2.049c-1.131,0-2.049-0.917-2.049-2.049C18.394,19.063,19.312,18.146,20.442,18.146z M8.449,51.14
	c-1.131,0-2.049-0.917-2.049-2.049s0.917-2.049,2.049-2.049c1.132,0,2.049,0.917,2.049,2.049S9.581,51.14,8.449,51.14z
	 M13.62,80.394c-1.131,0-2.049-0.917-2.049-2.049s0.917-2.049,2.049-2.049c1.132,0,2.049,0.917,2.049,2.049
	S14.752,80.394,13.62,80.394z M41.764,94.772c-1.131,0-2.049-0.917-2.049-2.049s0.917-2.049,2.049-2.049s2.048,0.917,2.048,2.049
	S42.896,94.772,41.764,94.772z M69.908,80.394c-1.132,0-2.049-0.917-2.049-2.049s0.917-2.049,2.049-2.049s2.049,0.917,2.049,2.049
	S71.04,80.394,69.908,80.394z M75.079,51.14c-1.132,0-2.049-0.917-2.049-2.049s0.917-2.049,2.049-2.049s2.05,0.917,2.05,2.049
	S76.211,51.14,75.079,51.14z"/>
</svg>
