<?xml version="1.0" encoding="utf-8"?>
<!-- Generator: Adobe Illustrator 14.0.0, SVG Export Plug-In . SVG Version: 6.00 Build 43363)  -->
<!DOCTYPE svg PUBLIC "-//W3C//DTD SVG 1.0//EN" "http://www.w3.org/TR/2001/REC-SVG-20010904/DTD/svg10.dtd">
<svg version="1.0" id="Layer_1" xmlns="http://www.w3.org/2000/svg" xmlns:xlink="http://www.w3.org/1999/xlink" x="0px" y="0px"
	 width="100px" height="94.663px" viewBox="0 0 100 94.663" enable-background="new 0 0 100 94.663" xml:space="preserve">
<path d="M92.504,7.497c-8.438-8.438-23.096-7.462-23.096-7.462s0,0.005,0,0.005C56.062,0.151,43.592,5.406,34.256,14.88
	c-8.75,8.879-13.861,20.603-14.597,33.29C8.514,49.96,0,59.617,0,71.266c0,12.922,10.475,23.396,23.396,23.396
	c6.28,0,11.977-2.479,16.179-6.506c4.203,4.026,9.9,6.506,16.18,6.506c12.922,0,23.396-10.475,23.396-23.396
	c0-11.609-8.456-21.237-19.544-23.075c-0.005-16.953,0.786-33.411,6.103-38.784c1.128-1.14,2.513-1.675,4.151-1.69
	c0.744,4.838,2.578,10.982,7.009,15.413c8.437,8.438,23.095,7.462,23.095,7.462S100.941,15.934,92.504,7.497z M27.349,48.209
	c1.215-18.228,12.893-33.041,29.098-38.366c-3.917,8.853-4.54,22.865-4.524,38.346c-4.75,0.785-9.019,2.997-12.347,6.187
	C36.275,51.213,32.051,49.012,27.349,48.209z"/>
</svg>
