<?xml version="1.0" encoding="utf-8"?>
<!-- Generator: Adobe Illustrator 15.1.0, SVG Export Plug-In . SVG Version: 6.00 Build 0)  -->
<!DOCTYPE svg PUBLIC "-//W3C//DTD SVG 1.1//EN" "http://www.w3.org/Graphics/SVG/1.1/DTD/svg11.dtd">
<svg version="1.1" id="Layer_1" xmlns="http://www.w3.org/2000/svg" xmlns:xlink="http://www.w3.org/1999/xlink" x="0px" y="0px"
	 width="56.219px" height="100px" viewBox="0 0 56.219 100" enable-background="new 0 0 56.219 100" xml:space="preserve">
<path d="M36.457,22.706c0,1.317-1.067,2.385-2.385,2.385H22.146c-1.317,0-2.385-1.068-2.385-2.385v-5.301
	c0-1.317,1.068-2.384,2.385-2.384h11.926c1.317,0,2.385,1.067,2.385,2.384V22.706z"/>
<path d="M56.219,28.109C56.219,12.609,43.609,0,28.11,0C12.609,0,0,12.609,0,28.109l10.975,32.954
	c-1.68,2.908-2.646,6.279-2.646,9.88c0,8.304,5.12,15.408,12.373,18.342V100h14.817V89.283c7.253-2.933,12.372-10.036,12.372-18.34
	c0-3.601-0.966-6.972-2.646-9.879L56.219,28.109z M39.553,50.529H28.11V38.185h11.442V50.529z M28.11,28.109H9.816
	c0-10.087,8.207-18.294,18.294-18.294c10.086,0,18.292,8.207,18.292,18.294H28.11z"/>
<rect x="32.923" y="39.486" width="1.815" height="9.741"/>
</svg>
