<?xml version="1.0" encoding="utf-8"?>
<!-- Generator: Adobe Illustrator 15.1.0, SVG Export Plug-In . SVG Version: 6.00 Build 0)  -->
<!DOCTYPE svg PUBLIC "-//W3C//DTD SVG 1.1//EN" "http://www.w3.org/Graphics/SVG/1.1/DTD/svg11.dtd">
<svg version="1.1" id="Layer_1" xmlns="http://www.w3.org/2000/svg" xmlns:xlink="http://www.w3.org/1999/xlink" x="0px" y="0px"
	 width="49.024px" height="100px" viewBox="0 0 49.024 100" enable-background="new 0 0 49.024 100" xml:space="preserve">
<path d="M34.347,21.624l-0.022-0.051c-0.384-0.874-1.168-1.53-2.121-1.737c-0.108-0.018-8.336-1.567-13.633-1.567
	c-19.561,0-18.562,7.826-18.562,15.141l2.108,25.417h4.047l0.001-0.001L9.579,100h7.564V59.752h2.854V100h7.563l5.043-60.799
	l9.182,15.01l5.947-2.783L34.347,21.624z"/>
<circle cx="18.571" cy="8.087" r="8.087"/>
<path d="M42.41,54.181c-3.647,0-6.615,2.968-6.615,6.614h4.282c0-1.286,1.047-2.332,2.333-2.332s2.333,1.046,2.333,2.332V100h4.281
	V60.795C49.024,57.149,46.058,54.181,42.41,54.181z"/>
</svg>
