<?xml version="1.0" encoding="utf-8"?>
<!-- Generator: Adobe Illustrator 15.1.0, SVG Export Plug-In . SVG Version: 6.00 Build 0)  -->
<!DOCTYPE svg PUBLIC "-//W3C//DTD SVG 1.1//EN" "http://www.w3.org/Graphics/SVG/1.1/DTD/svg11.dtd">
<svg version="1.1" id="Layer_1" xmlns="http://www.w3.org/2000/svg" xmlns:xlink="http://www.w3.org/1999/xlink" x="0px" y="0px"
	 width="100px" height="100px" viewBox="0 0 100 100" enable-background="new 0 0 100 100" xml:space="preserve">
<circle cx="63.931" cy="49.479" r="11.389"/>
<path d="M55.918,37.466l-7.34-3.544l0.425,0.913l3.018,6.482C53.063,39.798,54.386,38.49,55.918,37.466z"/>
<path d="M49.758,46.728l-0.192,0.07l-7.376,2.649l7.557,2.712c-0.161-0.872-0.258-1.766-0.258-2.681
	C49.488,48.538,49.586,47.62,49.758,46.728z"/>
<path d="M66.672,35.303l-2.741-7.799l-0.333,0.947l-2.409,6.853c0.887-0.17,1.804-0.266,2.742-0.266
	C64.868,35.038,65.784,35.133,66.672,35.303z"/>
<path d="M75.839,41.314l3.481-7.395l-0.906,0.435l-6.468,3.117C73.477,38.49,74.797,39.798,75.839,41.314z"/>
<path d="M78.109,52.192l7.562-2.716l-7.562-2.711c0.168,0.879,0.262,1.783,0.262,2.713C78.371,50.408,78.277,51.312,78.109,52.192z"
	/>
<path d="M61.191,63.651l0.122,0.346l2.617,7.457l2.738-7.803c-0.888,0.174-1.802,0.27-2.738,0.27
	C62.992,63.921,62.081,63.825,61.191,63.651z"/>
<path d="M71.993,61.462l7.331,3.545l-3.484-7.362C74.806,59.147,73.503,60.442,71.993,61.462z"/>
<path d="M52.022,57.642l-0.104,0.218l-3.342,7.138l7.338-3.508C54.386,60.465,53.063,59.157,52.022,57.642z"/>
<path d="M23.833,49.479c0-8.492,6.629-15.418,14.989-15.934c-2.252-1.048-4.751-1.646-7.398-1.646
	c-9.709,0-17.582,7.867-17.582,17.579c0,9.708,7.873,17.58,17.582,17.58c2.647,0,5.146-0.602,7.398-1.648
	C30.462,64.897,23.833,57.969,23.833,49.479z"/>
<path d="M85.328,14.672C76.276,5.616,63.784,0,50,0C22.43,0,0,22.43,0,50.001c0,7.186,1.535,14.017,4.276,20.195l5.195-2.385
	C7.065,62.358,5.72,56.336,5.72,50.001C5.72,25.584,25.584,5.72,50,5.72c12.208,0,23.271,4.974,31.288,12.992l-6.938,6.938h12.61
	h3.595v-4.809V9.444L85.328,14.672z"/>
<path d="M95.704,29.763l-5.195,2.388c2.418,5.465,3.771,11.5,3.771,17.851C94.28,74.417,74.415,94.28,50,94.28
	c-12.208,0-23.271-4.975-31.288-12.992l7.024-7.025H12.984H9.531v5.018v11.188l5.139-5.138C23.724,94.383,36.213,100,50,100
	c27.57,0,50-22.429,50-49.999C100,42.799,98.458,35.955,95.704,29.763z"/>
</svg>
