<?xml version="1.0" encoding="utf-8"?>
<!-- Generator: Adobe Illustrator 15.1.0, SVG Export Plug-In . SVG Version: 6.00 Build 0)  -->
<!DOCTYPE svg PUBLIC "-//W3C//DTD SVG 1.1//EN" "http://www.w3.org/Graphics/SVG/1.1/DTD/svg11.dtd">
<svg version="1.1" id="Layer_1" xmlns="http://www.w3.org/2000/svg" xmlns:xlink="http://www.w3.org/1999/xlink" x="0px" y="0px"
	 width="100px" height="99.305px" viewBox="0 0 100 99.305" enable-background="new 0 0 100 99.305" xml:space="preserve">
<path d="M80.556,21.527c-2.133,0-4.181,0.355-6.1,0.99l-5.604-12.328l0.906-2.52c2.616,0.014,5.125,0.027,5.125,0.027V4.168h-17.2
	c-2.127,2.082,4.848,3.529,6.236,3.47c0,0,0.566,0.002,1.42,0.009l-0.996,2.77h-32.89c0.689-2.143,1.124-3.5,1.134-3.531
	c0.831-2.579,3.272-2.712,3.523-2.719h6.945V0h-6.945c-1.966,0-6.062,1.173-7.49,5.607c-0.006,0.022-2.574,8.01-5.244,16.319
	c-1.271-0.26-2.584-0.398-3.934-0.398C8.705,21.527,0,30.232,0,40.971c0,10.74,8.705,19.446,19.444,19.446
	c10.74,0,19.445-8.706,19.445-19.446c0-7.924-4.749-14.729-11.548-17.758c0.477-1.485,0.949-2.959,1.406-4.38
	C46.98,39.506,47.081,39.608,47.138,39.667c3.388,3.388,6.833,3.388,11.195,3.388h2.894c1.04,9.759,9.294,17.362,19.329,17.362
	c10.74,0,19.444-8.706,19.444-19.446C100,30.232,91.296,21.527,80.556,21.527z M34.723,40.971c0,8.437-6.84,15.279-15.279,15.279
	c-8.438,0-15.277-6.842-15.277-15.279c0-8.436,6.84-15.277,15.277-15.277c0.904,0,1.783,0.094,2.645,0.245
	c-2.438,7.587-4.627,14.396-4.627,14.396l0.009,0.003c-0.065,0.2-0.109,0.411-0.109,0.634c0,1.151,0.934,2.083,2.083,2.083
	c0.929,0,1.706-0.609,1.976-1.448l0.008,0.002c0,0,2.19-6.809,4.626-14.395C31.177,29.681,34.723,34.906,34.723,40.971z
	 M77.319,38.888H65.437c0.622-4.556,3.246-8.465,6.965-10.82L77.319,38.888z M54.153,38.72c-1.646-0.22-2.798-0.727-4.005-1.933
	c-0.359-0.397-12.344-13.984-19.592-22.204h32.285L54.153,38.72z M58.52,38.888l8.309-23.081l3.839,8.444
	c-5.148,3.051-8.776,8.396-9.44,14.637H58.52z M80.556,56.25c-7.729,0-14.1-5.746-15.119-13.195h15.119
	c1.15,0,2.084-0.932,2.084-2.083c0-0.307-0.072-0.598-0.191-0.859l0.004-0.002l-6.261-13.775c1.383-0.411,2.847-0.641,4.364-0.641
	c8.438,0,15.277,6.841,15.277,15.277C95.833,49.408,88.993,56.25,80.556,56.25z"/>
<path d="M86.11,71.527c-2.646,0-5.045,1.062-6.798,2.777H33.863c-2.881-4.978-8.252-8.333-14.419-8.333
	c-6.165,0-11.536,3.355-14.419,8.333h14.419l6.945,8.333l-6.945,8.334H5.025c2.883,4.978,8.254,8.333,14.419,8.333
	c7.254,0,13.409-4.641,15.699-11.11h44.169c1.753,1.717,4.151,2.777,6.798,2.777c5.37,0,9.723-4.352,9.723-9.722
	S91.48,71.527,86.11,71.527z M86.11,86.805c-3.067,0-5.555-2.484-5.555-5.555c0-3.069,2.487-5.556,5.555-5.556
	c3.07,0,5.557,2.486,5.557,5.556C91.667,84.32,89.181,86.805,86.11,86.805z"/>
</svg>
