<?xml version="1.0" encoding="utf-8"?>
<!-- Generator: Adobe Illustrator 15.1.0, SVG Export Plug-In . SVG Version: 6.00 Build 0)  -->
<!DOCTYPE svg PUBLIC "-//W3C//DTD SVG 1.1//EN" "http://www.w3.org/Graphics/SVG/1.1/DTD/svg11.dtd">
<svg version="1.1" id="Layer_1" xmlns="http://www.w3.org/2000/svg" xmlns:xlink="http://www.w3.org/1999/xlink" x="0px" y="0px"
	 width="100px" height="48.961px" viewBox="0 0 100 48.961" enable-background="new 0 0 100 48.961" xml:space="preserve">
<path d="M94.688,16.797L89.891,4.406C88.995,2.035,87.034,0.017,83.321,0h-6.767H64.989h-6.881c-3.694,0.017-5.656,2.035-6.57,4.406
	L46.74,16.797c-1.723,0.224-4.642,2.083-5.176,5.577h-2.026c-0.798,0-1.384-1.018-1.389-1.342l-0.001-9.026
	c0.035-1.538-0.491-2.943-1.483-3.957c-1.009-1.031-2.439-1.601-4.025-1.601c-3.22,0-5.556,2.316-5.556,5.509v12.5v0.047v12.5
	c0,0.891-0.466,1.343-1.39,1.343c-0.323,0-0.764-0.061-1.044-0.347c-0.258-0.263-0.305-0.661-0.298-0.996V27.93
	c0-2.6-2.375-5.509-5.556-5.509h-2.487c-0.908-3.206-3.848-5.556-7.344-5.556H6.418v2.777H1.389l0,0C0.621,19.642,0,20.264,0,21.031
	c0,0.768,0.621,1.389,1.389,1.389l0,0h5.029v4.167H1.389l0,0C0.621,26.587,0,27.208,0,27.976s0.621,1.389,1.389,1.389l0,0h5.029
	v2.777h2.547c3.496,0,6.438-2.35,7.345-5.555h2.485c0.798,0,1.384,1.019,1.39,1.343l0.001,9.026
	c-0.035,1.537,0.491,2.942,1.483,3.957c1.009,1.031,2.438,1.6,4.024,1.6c3.22,0,5.556-2.316,5.556-5.509v-12.5v-0.047v-12.5
	c0-0.891,0.466-1.342,1.389-1.342c0.323,0,0.765,0.06,1.044,0.346c0.258,0.263,0.305,0.662,0.298,0.996v9.074
	c0,2.6,2.375,5.509,5.556,5.509h1.931v12.758h4.682v5.035c-0.013,6.209,8.772,6.133,8.77,0v-5.035h15.813h15.773v5.035
	c0.019,6.133,8.805,6.209,8.81,0v-5.035H100V23.523C99.985,19.281,96.609,17.043,94.688,16.797z M50.673,29.778
	c-2.243,0.004-4.06-1.867-4.05-4.169c-0.009-2.319,1.807-4.191,4.05-4.169c2.237-0.022,4.055,1.851,4.053,4.169
	C54.728,27.911,52.91,29.782,50.673,29.778z M70.734,16.68h-0.039h-18.96l3.619-9.755c0.438-1.384,1.113-2.375,2.715-2.401h12.626
	h0.039h12.667c1.575,0.026,2.255,1.016,2.712,2.401l3.62,9.755H70.734z M90.796,29.778c-2.26,0.004-4.077-1.867-4.09-4.169
	c0.013-2.319,1.83-4.191,4.09-4.169c2.22-0.022,4.037,1.851,4.051,4.169C94.833,27.911,93.016,29.782,90.796,29.778z"/>
</svg>
