<?xml version="1.0" encoding="utf-8"?>
<!-- Generator: Adobe Illustrator 15.1.0, SVG Export Plug-In . SVG Version: 6.00 Build 0)  -->
<!DOCTYPE svg PUBLIC "-//W3C//DTD SVG 1.1//EN" "http://www.w3.org/Graphics/SVG/1.1/DTD/svg11.dtd">
<svg version="1.1" id="Layer_1" xmlns="http://www.w3.org/2000/svg" xmlns:xlink="http://www.w3.org/1999/xlink" x="0px" y="0px"
	 width="82.162px" height="100px" viewBox="0 0 82.162 100" enable-background="new 0 0 82.162 100" xml:space="preserve">
<path d="M42.198,0.001c-7.512,0-32.837-0.669-40.185,31.422h7.404H27.34c2.216,0,4.012,1.795,4.012,4.012v1.338
	c0,2.215,1.796,4.01,4.011,4.01c1.999,0,8.673,0,14.04,0c4.061,0,7.354,3.293,7.354,7.354v5.347c0,4.062,3.293,7.354,7.353,7.354
	h8.148h5.637C92.938,18.22,65.141,0.001,42.198,0.001z"/>
<path d="M64.109,66.396c-7.117,0-12.908-5.791-12.908-12.91v-5.347c0-0.992-0.808-1.8-1.799-1.8h-3.771v22.818L26.636,89.341h0.041
	V100h37.167V70.434c1.554-1.222,2.998-2.574,4.322-4.038H64.109z"/>
<path d="M40.076,66.954V46.338h-4.713c-5.206,0-9.454-4.18-9.563-9.359H8.271c-0.437,3.158-0.784,6.656-0.784,6.656L0.209,61.964
	C0.07,62.293,0,62.663,0,63.054c0,1.545,1.267,2.807,2.814,2.807h4.673v9.738c0,6.889,5.073,12.577,11.678,13.57L40.076,66.954z
	 M12.167,46.685c0-2.142,1.742-3.882,3.875-3.882c2.15,0,3.902,1.74,3.902,3.882c0,2.155-1.752,3.896-3.902,3.896
	C13.912,50.581,12.167,48.838,12.167,46.685z"/>
</svg>
