<?xml version="1.0" encoding="utf-8"?>
<!-- Generator: Adobe Illustrator 14.0.0, SVG Export Plug-In . SVG Version: 6.00 Build 43363)  -->
<!DOCTYPE svg PUBLIC "-//W3C//DTD SVG 1.0//EN" "http://www.w3.org/TR/2001/REC-SVG-20010904/DTD/svg10.dtd">
<svg version="1.0" id="Layer_1" xmlns="http://www.w3.org/2000/svg" xmlns:xlink="http://www.w3.org/1999/xlink" x="0px" y="0px"
	 width="83.396px" height="100px" viewBox="0 0 83.396 100" enable-background="new 0 0 83.396 100" xml:space="preserve">
<path d="M39.226,60.69c0,0-0.007,25.313-0.007,29.135c0,4.292-4.609,5.88-6.361,5.88c-1.746,0-5.325-1.432-5.721-6.279
	c0-1.228-0.997-2.226-2.229-2.226c-1.226,0-2.222,0.998-2.222,2.226C22.843,93.083,25.306,100,32.858,100
	c8.428,0,10.973-6.521,10.973-10.892V60.772L39.226,60.69L39.226,60.69z"/>
<path d="M41.759,59.137c2.199-3.177,6.341-5.255,10.502-5.255c4.126,0,7.766,2.046,9.976,5.181c2.204-3.164,5.753-5.181,9.897-5.181
	c4.151,0,7.813,2.068,10.016,5.231c-1.745-12.012-16.565-28.853-40.16-28.853c-23.59,0-38.414,16.841-40.159,28.853
	c2.203-3.163,5.871-5.231,10.015-5.231c4.151,0,7.694,2.017,9.897,5.181c2.21-3.135,5.858-5.181,9.982-5.181
	C35.885,53.882,39.555,55.96,41.759,59.137"/>
<path d="M43.628,28.187v-7.211c0-1.265-1.026-2.291-2.292-2.291c-1.268,0-2.294,1.026-2.294,2.291v7.211H43.628L43.628,28.187z"/>
<path d="M20.044,13.615c0.025,0.705-0.143,1.428-0.52,2.085c-1.082,1.87-3.467,2.511-5.338,1.428
	c-1.869-1.078-2.51-3.467-1.431-5.337c0.375-0.651,0.912-1.154,1.53-1.484l5.756-3.317L20.044,13.615L20.044,13.615z"/>
<path d="M7.813,34.803c0.026,0.706-0.145,1.428-0.523,2.085c-1.079,1.869-3.468,2.511-5.334,1.428
	c-1.871-1.078-2.51-3.467-1.432-5.337c0.375-0.65,0.912-1.154,1.529-1.484l5.753-3.318L7.813,34.803L7.813,34.803z"/>
<path d="M30.312,25.189c0.022,0.708-0.142,1.431-0.521,2.088c-1.078,1.867-3.471,2.507-5.34,1.429
	c-1.869-1.079-2.51-3.469-1.432-5.338c0.379-0.651,0.916-1.154,1.529-1.488l5.76-3.314L30.312,25.189L30.312,25.189z"/>
<path d="M46.695,6.623c0.021,0.708-0.141,1.429-0.521,2.088c-1.08,1.866-3.471,2.507-5.34,1.429
	c-1.869-1.08-2.509-3.468-1.431-5.338c0.378-0.651,0.915-1.154,1.529-1.488L46.691,0L46.695,6.623L46.695,6.623z"/>
<path d="M60.89,23.662c0.025,0.706-0.137,1.429-0.517,2.086c-1.085,1.87-3.472,2.51-5.341,1.429
	c-1.869-1.079-2.51-3.468-1.432-5.338c0.379-0.65,0.915-1.154,1.53-1.487l5.759-3.314V23.662L60.89,23.662z"/>
<path d="M75.744,10.774c0.026,0.706-0.138,1.428-0.517,2.085c-1.079,1.87-3.472,2.511-5.342,1.432
	c-1.869-1.079-2.51-3.468-1.431-5.338c0.379-0.654,0.914-1.157,1.529-1.487l5.76-3.317V10.774L75.744,10.774z"/>
<path d="M83.393,32.4c0.025,0.706-0.145,1.425-0.523,2.086c-1.08,1.87-3.472,2.509-5.342,1.428c-1.87-1.079-2.511-3.468-1.431-5.338
	c0.379-0.649,0.915-1.153,1.536-1.486l5.753-3.314L83.393,32.4L83.393,32.4z"/>
</svg>
