<?xml version="1.0" encoding="utf-8"?>
<!-- Generator: Adobe Illustrator 15.1.0, SVG Export Plug-In . SVG Version: 6.00 Build 0)  -->
<!DOCTYPE svg PUBLIC "-//W3C//DTD SVG 1.1//EN" "http://www.w3.org/Graphics/SVG/1.1/DTD/svg11.dtd">
<svg version="1.1" id="Layer_1" xmlns="http://www.w3.org/2000/svg" xmlns:xlink="http://www.w3.org/1999/xlink" x="0px" y="0px"
	 width="100px" height="77.788px" viewBox="0 0 100 77.788" enable-background="new 0 0 100 77.788" xml:space="preserve">
<path d="M24.625,28.022h-0.029l-0.002,3.923c0.901-0.604,5.651-3.6,6.258-3.889h6.917c2.387,0,4.324-1.934,4.324-4.322v-8.983
	c0-2.385-1.938-4.319-4.324-4.319h-12.61c-2.387,0-4.324,1.934-4.324,4.319v8.983C20.833,25.941,22.491,27.757,24.625,28.022z"/>
<path d="M58.067,17.626h6.305c0.607,0.288,5.948,4.041,6.852,4.642l0.02-4.68h-0.032C73.347,17.328,75,15.508,75,13.305V4.323
	C75,1.935,73.066,0,70.676,0H58.067c-2.389,0-4.324,1.935-4.324,4.323v8.981C53.743,15.689,55.679,17.626,58.067,17.626z"/>
<circle cx="83.333" cy="20.843" r="6.945"/>
<circle cx="15.973" cy="32.649" r="4.861"/>
<path d="M95.788,35.453l-2.386,22.891h-5.887c1.938,0,3.595-1.141,4.376-2.778c0.28-0.586,0.447-1.234,0.469-1.922V36.121
	c0-3.452-2.798-6.25-6.25-6.25c-2.633,0-4.873,1.632-5.795,3.937l-2.792,5.091h-9.468c-1.535,0-2.778,1.243-2.778,2.778
	c0,1.534,1.243,2.777,2.778,2.777h8.334h3.471h1.492l4.93-9.001h3.171l-6.454,11.778H79.86v1.39c0,1.91-1.73,2.454-1.73,2.454
	l-5.907,1.655v-5.499h-5.556H33.333h-5.556v6.896l-5.326-1.167c-2.629-0.534-2.747-1.565-3.008-2.585v-0.271l-2.389,0.625
	c-0.418,0.105-0.924,0.208-1.438,0.208c-0.542,0-1.087-0.115-1.538-0.466c-0.55-0.429-0.828-1.104-0.828-2.011v-5.404h2.083
	c0,0,0.005,5.466,0.008,5.501c0.001,0.007,0.008,0.009,0.009,0.016c0,0.012-0.012,0.017-0.012,0.027c0,0.198,0.16,0.359,0.359,0.359
	l9.341-2.512l2.573-0.684l-0.001-0.007c0.894-0.234,1.555-1.04,1.555-2.008c0-1.149-0.934-2.083-2.083-2.083
	c-0.185,0-0.358,0.031-0.529,0.077l-0.001-0.008l-7.109,1.871v-0.543c0-1.072-0.415-2.039-1.081-2.777
	c-0.763-0.847-1.857-1.39-3.086-1.39s-2.323,0.543-3.086,1.39c-0.664,0.738-1.081,1.705-1.081,2.777v11.806
	c0,1.918,1.555,3.473,3.473,3.473c0.133,0,0.26-0.024,0.389-0.04l-0.001,0.021l0.159,0.019h-0.547H6.598L4.212,35.453H0l2.777,26.44
	v0.617v15.277h4.167V62.511h13.89v15.277H25V62.511v-3.072l1.135,0.127l1.642,2.629v15.594h5.556v-7.324
	c0.409,0.238,0.88,0.38,1.389,0.38c1.534,0,2.777-1.245,2.777-2.778c0-0.542-0.162-1.041-0.428-1.468l0.005-0.004l-3.743-5.989
	v-7.816h33.333v1.485c-0.875,0.179-1.635,0.668-2.135,1.372l-0.005-0.005L52.723,72.308l0.005,0.005
	c-0.403,0.566-0.645,1.254-0.645,2.003c0,1.918,1.555,3.473,3.473,3.473c1.17,0,2.198-0.582,2.828-1.469l0.006,0.004l8.277-11.687
	v13.151h5.556V60.419L75,59.995v2.516v15.277h4.167V62.511h13.889v15.277h4.167V62.511v-0.617L100,35.453H95.788z"/>
</svg>
