<?xml version="1.0" encoding="utf-8"?>
<!-- Generator: Adobe Illustrator 15.1.0, SVG Export Plug-In . SVG Version: 6.00 Build 0)  -->
<!DOCTYPE svg PUBLIC "-//W3C//DTD SVG 1.1//EN" "http://www.w3.org/Graphics/SVG/1.1/DTD/svg11.dtd">
<svg version="1.1" id="Layer_1" xmlns="http://www.w3.org/2000/svg" xmlns:xlink="http://www.w3.org/1999/xlink" x="0px" y="0px"
	 width="83.34px" height="100px" viewBox="0 0 83.34 100" enable-background="new 0 0 83.34 100" xml:space="preserve">
<circle cx="41.67" cy="15.28" r="15.279"/>
<path d="M79.014,88.159l0.008,0.001l0.023-0.097v-0.001l4.146-18.653l-0.011-0.002c0.099-0.438,0.159-0.888,0.159-1.355
	c0-0.883-0.188-1.719-0.519-2.48l0.003-0.001L71.993,40.577l-0.003,0.001c-1.494-3.447-4.924-5.861-8.922-5.861H20.271
	c-3.998,0-7.428,2.414-8.923,5.861l-0.002-0.001L0.515,65.57l0.004,0.001C0.188,66.333,0,67.169,0,68.052
	c0,0.468,0.06,0.918,0.158,1.355l-0.009,0.002l4.146,18.653v0.001l0.022,0.097l0.008-0.001c0.358,1.619,1.355,2.988,2.699,3.867
	l-1.467,1.028C0,97.222,4.167,100,6.945,100c4.134,0,65.274,0,69.449,0c2.778,0,6.945-2.778,1.388-6.945l-1.466-1.028
	C77.66,91.147,78.657,89.778,79.014,88.159z M53.615,69.501c2.164-1.785,5.545-1.271,5.545-1.271s-0.141,3.414-2.311,5.202
	c-2.169,1.786-5.547,1.271-5.547,1.271S51.443,71.292,53.615,69.501z M66.826,85.423c-3.302-2.105-5.161-2.091-7.099-2.091
	c-0.062,0-0.156,0-0.242,0c0.039,0.323,0.065,0.649,0.065,0.983c0,4.553-3.69,8.247-8.245,8.247s-8.247-3.694-8.247-8.247
	c0-0.334,0.025-0.66,0.064-0.983c-0.765,0-1.529,0-2.295,0l-1.07,8.798H28.059l-1.07-8.798c-1.688,0-2.897,0-3.376,0
	c-1.938,0-3.797-0.015-7.099,2.091l-3.723-16.748l6.281-14.512h3.152v26.391h4.427l-1.892-15.562h18.299l-1.892,15.562h2.806
	c1.369-2.659,4.135-4.483,7.333-4.483c3.195,0,5.964,1.824,7.331,4.483h2.479V54.163h3.151l6.281,14.512L66.826,85.423z"/>
</svg>
