<?xml version="1.0" encoding="utf-8"?>
<!-- Generator: Adobe Illustrator 15.1.0, SVG Export Plug-In . SVG Version: 6.00 Build 0)  -->
<!DOCTYPE svg PUBLIC "-//W3C//DTD SVG 1.1//EN" "http://www.w3.org/Graphics/SVG/1.1/DTD/svg11.dtd">
<svg version="1.1" id="Layer_1" xmlns="http://www.w3.org/2000/svg" xmlns:xlink="http://www.w3.org/1999/xlink" x="0px" y="0px"
	 width="87.5px" height="100px" viewBox="0 0 87.5 100" enable-background="new 0 0 87.5 100" xml:space="preserve">
<rect y="81.944" width="26.389" height="18.056"/>
<path d="M84.688,88.89c0.016,0.23,0.035,0.459,0.035,0.693V88.89H84.688z"/>
<path d="M73.61,79.167v0.035c0.23-0.015,0.46-0.035,0.695-0.035H73.61z"/>
<path d="M73.61,100h0.695c-0.235,0-0.465-0.021-0.695-0.035V100z"/>
<path d="M75,79.167h-0.694c0.234,0,0.464,0.021,0.694,0.035V79.167z"/>
<path d="M75,100v-0.035C74.77,99.979,74.54,100,74.306,100H75z"/>
<path d="M84.723,89.583c0,0.234-0.02,0.464-0.035,0.694h0.035V89.583z"/>
<path d="M63.925,90.277c-0.018-0.23-0.035-0.46-0.035-0.694v0.694H63.925z"/>
<path d="M63.89,89.583c0-0.234,0.018-0.463,0.035-0.693H63.89V89.583z"/>
<path d="M0,0v77.777h18.02c-3.797-0.001-6.008-2.812-6.621-5.815L7.43,52.086c-1.355-8.725,11.236-11.376,13.251-2.435l3.444,17.108
	h2.264V0H0z M13.194,41.668c-4.207-0.012-7.622-3.428-7.638-7.638c0.016-4.216,3.431-7.63,7.638-7.641
	c4.222,0.011,7.637,3.425,7.64,7.641C20.831,38.24,17.416,41.656,13.194,41.668z M22.223,18.056H4.167v-2.779h18.056V18.056z
	 M22.223,12.5H4.167V9.723h18.056V12.5z M22.223,6.944H4.167V4.167h18.056V6.944z"/>
<path d="M61.11,0v100h13.195c-5.754,0-10.416-4.663-10.416-10.417s4.662-10.416,10.416-10.416c5.753,0,10.417,4.662,10.417,10.416
	S80.059,100,74.306,100H87.5V0H61.11z M65.277,4.167h18.056v2.777H65.277V4.167z M65.277,9.723h18.056V12.5H65.277V9.723z
	 M65.277,18.056v-2.779h18.056v2.779H65.277z M83.333,57.347v3.764h-2.777v-3.764c-1.227-0.537-2.083-1.757-2.083-3.18
	c0-1.424,0.856-2.644,2.083-3.18v-3.765h2.777v3.765c1.227,0.536,2.084,1.756,2.084,3.18C85.417,55.59,84.56,56.81,83.333,57.347z"
	/>
<g>
	<path d="M34.745,95.841c-0.002-5.316,0-18.063,0-18.063h-4.188V100h7.418C36.248,99.645,34.744,98.27,34.745,95.841z"/>
	<path d="M30.556,0v66.759h6.371c3.738,0.012,6.118,3.003,6.129,5.768v23.307c-0.004,2.42-1.525,3.808-3.263,4.167h17.151V0H30.556z
		 M34.723,4.167h18.055v2.777H34.723V4.167z M34.723,9.723h18.055V12.5H34.723V9.723z M34.723,18.056v-2.779h18.055v2.779H34.723z
		 M52.777,57.347v3.764H50v-3.764c-1.227-0.537-2.083-1.757-2.083-3.18c0-1.424,0.856-2.644,2.083-3.18v-3.765h2.777v3.765
		c1.227,0.536,2.083,1.756,2.083,3.18C54.86,55.59,54.004,56.81,52.777,57.347z"/>
</g>
</svg>
