<?xml version="1.0" encoding="utf-8"?>
<!-- Generator: Adobe Illustrator 15.1.0, SVG Export Plug-In . SVG Version: 6.00 Build 0)  -->
<!DOCTYPE svg PUBLIC "-//W3C//DTD SVG 1.1//EN" "http://www.w3.org/Graphics/SVG/1.1/DTD/svg11.dtd">
<svg version="1.1" id="Layer_1" xmlns="http://www.w3.org/2000/svg" xmlns:xlink="http://www.w3.org/1999/xlink" x="0px" y="0px"
	 width="100px" height="52.013px" viewBox="0 0 100 52.013" enable-background="new 0 0 100 52.013" xml:space="preserve">
<circle cx="30.065" cy="3.241" r="3.241"/>
<circle cx="15.163" cy="16.915" r="2.142"/>
<path d="M12.062,20.114c0.754,0,5.049,0,5.78,0c0.025,0,1.607-0.143,1.879-0.168c0.354-1.104,2.625-8.174,3.421-10.649
	c0.047-0.147,0.127-0.253,0.202-0.362c0.056-0.073,0.109-0.147,0.171-0.215c0.609-0.673,1.502-1.159,2.77-1.159h8.102
	c2.701,0,3.781,2.162,3.781,3.783v9.992c0,0.745-0.604,1.349-1.351,1.349s-1.35-0.604-1.35-1.349v-9.453h-1.08v25.116
	c0,1.044-0.846,1.891-1.891,1.891s-1.891-0.847-1.891-1.891V22.685h-1.08v14.314c0,1.044-0.846,1.891-1.891,1.891
	c-1.043,0-1.89-0.847-1.89-1.891V11.883h-0.592c-0.941,2.932-1.883,5.863-2.825,8.794c-0.146,0.456-0.455,0.718-0.808,0.845
	l0.01,0.009l-3.459,0.993c0,2.237,0,14.107,0,15.041c0,0.694-0.567,1.258-1.262,1.258c-0.693,0-1.258-0.563-1.258-1.258
	c0-1.028,0-7.513,0-7.513h-0.986c0,0,0,6.484,0,7.513c0,0.694-0.564,1.258-1.256,1.258c-0.695,0-1.265-0.563-1.265-1.258
	c0-1.028,0-14.051,0-14.051h-0.969c0,0,0,4.161,0,4.761c0,0.521-0.422,0.943-0.939,0.943c-0.518,0-0.926-0.422-0.926-0.943
	c0-0.515,0-4.641,0-5.416C9.209,21.344,10.544,20.114,12.062,20.114z"/>
<path d="M50,26.536v12.353h3.667v3.942c0.004,4.862,6.883,4.804,6.898,0v-3.942h12.352H85.3v3.942c-0.003,4.804,6.876,4.862,6.867,0
	v-3.942h3.666V26.536c0.004-3.32-2.637-5.074-4.129-5.266l-3.756-9.703c-0.717-1.856-2.253-3.436-5.144-3.45h-5.391h-9.056H63.06
	c-2.906,0.014-4.441,1.594-5.146,3.45l-3.755,9.703C52.653,21.462,50.011,23.216,50,26.536z M85.452,28.171
	c-0.002-1.815,1.422-3.282,3.173-3.268c1.758-0.014,3.18,1.453,3.172,3.268c0.008,1.804-1.414,3.268-3.172,3.265
	C86.874,31.439,85.45,29.975,85.452,28.171z M58.039,21.18l2.835-7.64c0.357-1.084,0.889-1.86,2.123-1.881h9.92h0.031h9.885
	c1.253,0.021,1.784,0.797,2.127,1.881l2.834,7.64h-14.36c-0.384-1.371-1.441-2.353-2.954-2.353l-6.076,0.004
	c-1.622,0-2.615,1.047-2.989,2.349H58.039z M54.035,28.171c0.012-1.815,1.434-3.282,3.172-3.268c1.77-0.014,3.194,1.453,3.203,3.268
	c-0.009,1.804-1.434,3.268-3.203,3.265C55.469,31.439,54.047,29.975,54.035,28.171z"/>
<circle cx="67.581" cy="15.554" r="2.71"/>
<polygon points="44.445,46.457 44.445,38.889 0,38.889 0,52.013 38.889,52.013 100,52.013 100,46.457 "/>
</svg>
