<?xml version="1.0" encoding="utf-8"?>
<!-- Generator: Adobe Illustrator 15.1.0, SVG Export Plug-In . SVG Version: 6.00 Build 0)  -->
<!DOCTYPE svg PUBLIC "-//W3C//DTD SVG 1.1//EN" "http://www.w3.org/Graphics/SVG/1.1/DTD/svg11.dtd">
<svg version="1.1" id="Layer_1" xmlns="http://www.w3.org/2000/svg" xmlns:xlink="http://www.w3.org/1999/xlink" x="0px" y="0px"
	 width="95.675px" height="100px" viewBox="0 0 95.675 100" enable-background="new 0 0 95.675 100" xml:space="preserve">
<g>
	<path d="M46.379,22.32c6.163-0.121,11.061-5.218,10.942-11.376C57.201,4.78,52.104-0.12,45.944,0.002
		c-6.163,0.12-11.059,5.215-10.939,11.379C35.125,17.54,40.219,22.44,46.379,22.32z"/>
</g>
<path d="M37.543,34.345L37.543,34.345c1.105-1.668,1.754-3.667,1.754-5.817c0-1.827-0.466-3.547-1.285-5.042
	c-1.786-3.264-5.256-5.481-9.241-5.481c-0.189,0-0.374,0.018-0.56,0.028L4.576,17.014C2.049,17.014,0,19.063,0,21.587
	c0,0.398,0.068,0.779,0.164,1.147l-0.013,0.017l0.109,0.297c0.051,0.147,0.099,0.294,0.162,0.434l6.441,17.33l-4.12,5.599
	L2.74,46.426c-1.394,1.76-2.232,3.982-2.232,6.401c0,0.855,0.117,1.685,0.312,2.479l-0.002,0.016L4.594,69.62l1.677,23.697
	c0,3.498,2.837,6.334,6.334,6.334c3.499,0,6.334-2.836,6.334-6.334l1.633-36.985L36.706,35.43c0.295-0.34,0.574-0.693,0.825-1.069
	L37.543,34.345z M11.021,27.399L16,28.393l-3.126,4.25L11.021,27.399z"/>
<path d="M72.938,59.645c5.494,0,9.95-4.453,9.95-9.956c0-5.49-4.456-9.944-9.95-9.944c-5.492,0-9.948,4.455-9.948,9.944
	C62.99,55.191,67.446,59.645,72.938,59.645z"/>
<path d="M94.008,90.297L76.958,73.246c-1.027-1.024-2.448-1.663-4.019-1.663c-1.571,0-2.991,0.639-4.017,1.663l-9.378,6.983
	l2.583-8.608l0.038-0.038h10.773H85.93c2.691,0,4.872-2.182,4.872-4.871c0-2.691-2.181-4.873-4.872-4.873H68.682
	c0,0-7.682-6.16-7.672-6.145c-0.957-0.745-2.138-1.214-3.447-1.214c-16.287,0-19.954,34.679-19.954,34.679l-0.03,0.398
	c-0.018,0.231-0.037,0.465-0.037,0.701c0,1.455,0.348,2.82,0.921,4.059c1.2,2.6,3.488,4.588,6.307,5.343
	c0.802,0.212,1.646,0.34,2.516,0.34h6.977c2.386,0,4.565-0.856,6.257-2.285l12.419-12.411l13.032,13.033
	C87,99.36,88.422,100,89.99,100c3.14,0,5.686-2.542,5.686-5.683C95.675,92.747,95.037,91.328,94.008,90.297z"/>
</svg>
