<?xml version="1.0" encoding="utf-8"?>
<!-- Generator: Adobe Illustrator 15.1.0, SVG Export Plug-In . SVG Version: 6.00 Build 0)  -->
<!DOCTYPE svg PUBLIC "-//W3C//DTD SVG 1.1//EN" "http://www.w3.org/Graphics/SVG/1.1/DTD/svg11.dtd">
<svg version="1.1" id="Layer_1" xmlns="http://www.w3.org/2000/svg" xmlns:xlink="http://www.w3.org/1999/xlink" x="0px" y="0px"
	 width="100px" height="99.996px" viewBox="0 0 100 99.996" enable-background="new 0 0 100 99.996" xml:space="preserve">
<path d="M68.999,28.076C67.788,31.104,68,36.118,68,37.619v0.1c3.535,0.561,6.233,3.488,6.233,7.013
	c0,5.048,4.528,12.543,5.18,16.767H79.41c0.204,0.867,0.312,1.765,0.312,2.69c0,6.816-5.805,12.342-12.961,12.342
	c-7.157,0-12.964-5.525-12.964-12.342c0-0.926,0.111-1.823,0.312-2.69h-0.001c0.649-4.224,5.181-11.72,5.181-16.767
	c0-3.525,2.694-6.452,6.23-7.013c0,0-4.217,0.168-6.715-2.331c-2.496-2.495-2.329-6.714-2.329-6.714s4.218-0.168,6.714,2.331
	c2.228,2.227,2.337,5.82,2.332,6.569c0.016-2.455-0.249-7.303,0.747-10.095l-41.32-9.014c-0.05,2.137-0.528,7.432-3.933,10.833
	c-4.333,4.336-11.782,3.927-11.782,3.927s-0.41-7.448,3.928-11.782c2.43-2.431,5.829-3.37,8.352-3.728l-3.326-0.724
	c-1.81-0.002-7.585-0.312-11.209-3.938C2.641,8.718,3.051,1.27,3.051,1.27S10.5,0.86,14.834,5.198
	c1.755,1.755,2.727,4.016,3.27,6.09l35.09,7.688l-5.891-8.307c-0.936,0.819-2.756,2.137-4.878,2.137
	c-3.067,0-5.558-2.777-5.558-2.777s2.49-2.777,5.558-2.777c1.13,0,2.183,0.379,3.06,0.857l-4.193-5.914
	c-0.444-0.626-0.296-1.492,0.329-1.937c0.626-0.445,1.495-0.295,1.935,0.33l5.992,8.449c-0.114-0.445-0.197-0.901-0.197-1.381
	c0-3.068,2.778-5.555,2.778-5.555s2.778,2.487,2.776,5.555c0,2.556-1.909,4.688-2.553,5.333l4.874,6.871l30.992,6.791l-7.696-10.853
	c-0.937,0.819-2.757,2.137-4.879,2.137c-3.066,0-5.557-2.777-5.557-2.777s2.49-2.778,5.557-2.778c1.131,0,2.184,0.38,3.061,0.859
	l-4.195-5.916c-0.442-0.625-0.295-1.492,0.33-1.935c0.626-0.446,1.493-0.297,1.936,0.33l5.992,8.448
	c-0.115-0.444-0.197-0.902-0.197-1.381c0-3.068,2.777-5.556,2.777-5.556s2.778,2.488,2.777,5.556c0,2.556-1.909,4.688-2.553,5.333
	l6.68,9.419L100,29.229v5.608L68.999,28.076z"/>
<path d="M25.124,71.633C25.146,71.352,25.079,71.92,25.124,71.633L25.124,71.633z"/>
<path d="M43.129,55.934c-0.001,0.003-0.001,0.008-0.003,0.011c0.516,0.348,0.925,0.855,1.144,1.477
	c0.55,1.554-0.271,3.263-1.835,3.816c-0.115,0.043-11.137,4.897-16.654,7.704c0.896-2.008,3.266-3.516,4.172-4.031
	c3.887-2.216,6.213-3.57,8.044-4.635c0.87-0.508,1.625-0.948,2.386-1.387C41.694,58.135,42.63,57.09,43.129,55.934z"/>
<path d="M25.782,68.941C25.733,69.034,25.825,68.847,25.782,68.941L25.782,68.941z"/>
<path d="M41.324,53.225c0.536,1.568-0.606,3.067-1.979,3.857c-0.766,0.439-1.523,0.882-2.398,1.391
	c-1.825,1.064-4.146,2.417-8.023,4.625c-0.048,0.027-4.685,2.706-5.552,6.322c-0.765,3.189-0.349,6.021,1.234,8.423
	c1.163,1.766,2.656,2.704,4.565,2.875c1.418,0.114,3.846-0.985,7.424-2.746c1.984-0.977,4.035-1.984,4.975-2.14
	c2.105-0.353,3.88,1.57,5.014,3.651c-2.143,1.289-8.09,4.918-14.009,8.948c-2.354,1.603-4.292,3.188-6.003,4.586
	c-2.095,1.712-3.904,3.189-5.814,4.166c-4.079,2.084-10.245,2.655-12.71,2.805l-0.121,0.008L0,87.396
	c1.314-0.741,4.968-3.135,8.924-8.631c1.509-2.095,2.952-4.824,4.478-7.715c1.969-3.727,4.007-7.578,6.074-9.809
	c1.118-0.938,17.246-9.52,18.048-9.876C39.065,50.84,40.804,51.705,41.324,53.225z"/>
<path d="M25.124,71.633c3.016-1.676,11.763-5.652,15.927-7.51c0.422,1.469-0.328,3.049-1.789,3.611
	c-0.808,0.308-7.567,2.9-14.008,6.276C25.054,73.003,24.938,72.777,25.124,71.633z"/>
<path d="M26.345,76.699c-0.149-0.228-0.283-0.461-0.407-0.696c4.452-2.353,9.099-4.332,11.809-5.431
	c0.398,1.533-0.273,2.805-1.875,3.439c-0.031,0.012-4.031,1.711-8.503,3.826C27.64,78.059,26.905,77.546,26.345,76.699z"/>
</svg>
