<?xml version="1.0" encoding="utf-8"?>
<!-- Generator: Adobe Illustrator 15.1.0, SVG Export Plug-In . SVG Version: 6.00 Build 0)  -->
<!DOCTYPE svg PUBLIC "-//W3C//DTD SVG 1.1//EN" "http://www.w3.org/Graphics/SVG/1.1/DTD/svg11.dtd">
<svg version="1.1" id="Layer_1" xmlns="http://www.w3.org/2000/svg" xmlns:xlink="http://www.w3.org/1999/xlink" x="0px" y="0px"
	 width="88.891px" height="100px" viewBox="0 0 88.891 100" enable-background="new 0 0 88.891 100" xml:space="preserve">
<path d="M88.891,94.443L58.333,63.89C61.11,61.111,61.11,61.111,61.11,50l-8.333,8.333L50,55.556l11.11-11.112l27.777-27.777h-11.11
	L61.11,33.333L47.221,47.223L44.444,50L11.111,16.667H0l27.777,27.777l0,0l11.111,11.112l-2.777,2.777L27.777,50
	c0,11.111,0,11.111,2.777,13.89L0,94.443h11.111L28.26,77.294c0.383,1.344,1.065,2.031,2.294,3.261l11.112,11.112V100h5.555v-8.333
	l11.112-11.112c1.229-1.229,1.913-1.917,2.295-3.263l17.15,17.15H88.891z M50,77.777l-2.779,2.778l-2.777,2.778l-2.777-2.778
	l-2.778-2.778l-5.555-5.555l2.777-2.779L41.667,75c0-3.362-0.002-5.698-0.078-7.409l0,0v-3.626l2.857-2.854l2.82,2.82v4.588l0,0
	c-0.044,1.606-0.044,3.692-0.044,6.481l5.557-5.558l2.777,2.779L50,77.777z"/>
<path d="M61.11,16.667L50,27.777c-2.779,2.779-2.779,2.779-2.779,13.889l11.112-11.11C61.11,27.777,61.11,27.777,61.11,16.667z"/>
<path d="M61.11,0L50,11.111c-2.779,2.778-2.779,2.778-2.779,13.889l11.112-11.111C61.11,11.111,61.11,11.111,61.11,0z"/>
<path d="M41.667,41.667c0-11.11,0-11.11-2.778-13.889L27.777,16.667c0,11.111,0,11.111,2.777,13.89L41.667,41.667z"/>
<path d="M41.667,25c0-11.111,0-11.111-2.778-13.889L27.777,0c0,11.111,0,11.111,2.777,13.889L41.667,25z"/>
</svg>
