<?xml version="1.0" encoding="utf-8"?>
<!-- Generator: Adobe Illustrator 15.1.0, SVG Export Plug-In . SVG Version: 6.00 Build 0)  -->
<!DOCTYPE svg PUBLIC "-//W3C//DTD SVG 1.1//EN" "http://www.w3.org/Graphics/SVG/1.1/DTD/svg11.dtd">
<svg version="1.1" id="Layer_1" xmlns="http://www.w3.org/2000/svg" xmlns:xlink="http://www.w3.org/1999/xlink" x="0px" y="0px"
	 width="100px" height="50px" viewBox="0 0 100 50" enable-background="new 0 0 100 50" xml:space="preserve">
<circle cx="27.952" cy="15.972" r="7.639"/>
<path d="M90.277,20.833L84.723,4.167V0H2.777v36.11H0v6.25h17.535c0-5.752,4.663-10.416,10.417-10.416
	c5.753,0,10.417,4.664,10.417,10.416h32.464c0-5.752,4.663-10.416,10.417-10.416c4.047,0,7.548,2.312,9.272,5.685
	c0.619,1.212,1.006,2.562,1.106,3.992c0.017,0.245,0.038,0.491,0.038,0.739H100V25.001L90.277,20.833z M15.625,12.5
	c0,0.768-0.621,1.389-1.389,1.389h-0.867V25c0,0.768-0.621,1.39-1.39,1.39c-0.768,0-1.389-0.622-1.389-1.39V13.889H9.723
	c-0.768,0-1.389-0.621-1.389-1.389V6.077c0-0.288,0.233-0.521,0.521-0.521c0.288,0,0.521,0.233,0.521,0.521v5.034h1.042V6.077
	c0-0.288,0.233-0.521,0.521-0.521s0.521,0.233,0.521,0.521v5.034H12.5V6.077c0-0.288,0.233-0.521,0.521-0.521
	c0.288,0,0.521,0.233,0.521,0.521v5.034h1.042V6.077c0-0.288,0.233-0.521,0.521-0.521c0.288,0,0.521,0.233,0.521,0.521V12.5z
	 M27.952,26.39c-5.754,0-10.417-4.665-10.417-10.417c0-5.754,4.663-10.417,10.417-10.417c5.753,0,10.417,4.663,10.417,10.417
	C38.369,21.725,33.705,26.39,27.952,26.39z M45.312,25c0,0.768-0.621,1.39-1.389,1.39c-0.767,0-1.388-0.622-1.388-1.39v-6.944
	h-1.389V7.639c0-1.151,0.934-2.083,2.083-2.083c1.15,0,2.083,0.932,2.083,2.083V25z M72.223,20.833v-12.5h9.722l4.166,12.5H72.223z"
	/>
<path d="M27.952,34.723c-4.219,0-7.639,3.421-7.639,7.638c0,4.219,3.42,7.64,7.639,7.64c4.218,0,7.638-3.421,7.638-7.64
	C35.59,38.144,32.169,34.723,27.952,34.723z M27.952,46.527c-2.301,0-4.167-1.864-4.167-4.167c0-2.301,1.866-4.166,4.167-4.166
	c2.3,0,4.167,1.865,4.167,4.166C32.119,44.663,30.251,46.527,27.952,46.527z"/>
<path d="M81.25,34.723c-4.219,0-7.64,3.421-7.64,7.638c0,4.219,3.421,7.64,7.64,7.64s7.64-3.421,7.64-7.64
	C88.89,38.144,85.469,34.723,81.25,34.723z M81.25,46.527c-2.301,0-4.167-1.864-4.167-4.167c0-2.301,1.866-4.166,4.167-4.166
	s4.167,1.865,4.167,4.166C85.417,44.663,83.551,46.527,81.25,46.527z"/>
</svg>
