<?xml version="1.0" encoding="utf-8"?>
<!-- Generator: Adobe Illustrator 15.1.0, SVG Export Plug-In . SVG Version: 6.00 Build 0)  -->
<!DOCTYPE svg PUBLIC "-//W3C//DTD SVG 1.1//EN" "http://www.w3.org/Graphics/SVG/1.1/DTD/svg11.dtd">
<svg version="1.1" id="Layer_1" xmlns="http://www.w3.org/2000/svg" xmlns:xlink="http://www.w3.org/1999/xlink" x="0px" y="0px"
	 width="100px" height="88.894px" viewBox="0 0 100 88.894" enable-background="new 0 0 100 88.894" xml:space="preserve">
<rect x="54.862" y="62.97" width="6.479" height="6.478"/>
<polygon points="51.62,75.931 51.62,88.894 52.925,88.894 63.949,88.894 64.582,88.894 64.582,75.931 "/>
<path d="M91.667,52.777l-0.002-38.889L73.61,25v16.667h-6.906V19.385h-8.372V0H36.111v31.732H25V20.833l-9.027-5.556l-9.028,5.556
	v19.444H0v48.617h20.833V51.623c0-5.366,4.354-9.72,9.721-9.72c5.372,0,9.726,4.354,9.726,9.72v7.665L32.96,77.897h4.542v10.997
	h1.336h1.441V75.12h-3.242l5.465-13.899l15.596-6.355L73.7,61.22l5.467,13.899h-3.241v13.774h5.479l18.594-0.006L100,52.777H91.667z
	"/>
</svg>
