<?xml version="1.0" encoding="utf-8"?>
<!-- Generator: Adobe Illustrator 15.1.0, SVG Export Plug-In . SVG Version: 6.00 Build 0)  -->
<!DOCTYPE svg PUBLIC "-//W3C//DTD SVG 1.1//EN" "http://www.w3.org/Graphics/SVG/1.1/DTD/svg11.dtd">
<svg version="1.1" id="Layer_1" xmlns="http://www.w3.org/2000/svg" xmlns:xlink="http://www.w3.org/1999/xlink" x="0px" y="0px"
	 width="100px" height="99.422px" viewBox="0 0 100 99.422" enable-background="new 0 0 100 99.422" xml:space="preserve">
<path d="M58.994,62.688l6.616-13.453l-0.018-0.004c6.963-4.9,11.525-12.986,11.525-22.148C77.118,12.125,64.993,0,50.036,0
	S22.953,12.125,22.953,27.083c0,9.16,4.559,17.242,11.52,22.143l-0.047,0.009l6.616,13.451C17.705,64.251,0,71.81,0,80.902
	c0,10.229,22.387,18.52,50,18.52s50-8.29,50-18.52C100,71.813,82.313,64.258,58.994,62.688z M54.657,21.061l8.92,3.634l3.125,7.948
	h-1.854v7.876h-6.485v-7.414h-7.411v7.414h-6.486v-7.876h-1.854l3.125-7.948L54.657,21.061z M36.927,40.52h-3.558V19.208
	c0-3.072,2.489-5.559,5.559-5.559c3.07,0,5.56,2.487,5.56,5.559v1.122l-5.933,15.091h3.153v5.098h-2.779H36.927z M50,92.391
	c-17.13,0-31.017-5.144-31.017-11.488c0-5.642,10.982-10.33,25.458-11.301L50,80.902h0.035l5.557-11.299
	c14.46,0.976,25.424,5.661,25.424,11.299C81.017,87.247,67.132,92.391,50,92.391z"/>
<rect x="52.805" y="25.694" width="3.706" height="3.706"/>
</svg>
