<?xml version="1.0" encoding="utf-8"?>
<!-- Generator: Adobe Illustrator 15.1.0, SVG Export Plug-In . SVG Version: 6.00 Build 0)  -->
<!DOCTYPE svg PUBLIC "-//W3C//DTD SVG 1.1//EN" "http://www.w3.org/Graphics/SVG/1.1/DTD/svg11.dtd">
<svg version="1.1" id="Layer_1" xmlns="http://www.w3.org/2000/svg" xmlns:xlink="http://www.w3.org/1999/xlink" x="0px" y="0px"
	 width="100px" height="100px" viewBox="0 0 100 100" enable-background="new 0 0 100 100" xml:space="preserve">
<path d="M23.725,22.222c-6.137,0-11.11-4.975-11.11-11.111c0-5.404,3.859-9.897,8.97-10.896C20.883,0.105,20.178,0,19.444,0
	C11.773,0,5.556,6.219,5.556,13.889c0,7.67,6.217,13.889,13.888,13.889c6.418,0,11.766-4.375,13.359-10.291
	C30.792,20.344,27.483,22.222,23.725,22.222z"/>
<path d="M39.609,48.477c3.662,0,6.637-2.974,6.654-6.65c-0.017-3.665-2.992-6.639-6.654-6.653c-3.678,0.014-6.654,2.988-6.651,6.653
	C32.956,45.502,35.931,48.477,39.609,48.477z"/>
<path d="M15.349,83.429V63.026l11.883-6.405v6.05c-0.008,1.15,0.309,1.646,0.747,2.062l6.793,7.505
	c3.051,3.09,7.423-1.172,4.66-4.267l-6.013-6.651V48.656c-0.043-3.896-5.306-7.453-9.069-5.513L8.451,51.715
	c-2.104,1.21-2.945,3.278-2.953,5.403v26.381C5.505,90.696,15.353,90.698,15.349,83.429z"/>
<path d="M60.903,48.477c3.68,0,6.652-2.974,6.651-6.65c0.001-3.665-2.972-6.639-6.651-6.653c-3.661,0.014-6.637,2.988-6.65,6.653
	C54.267,45.502,57.242,48.477,60.903,48.477z"/>
<path d="M67.093,61.32l-6.012,6.651c-2.764,3.095,1.609,7.356,4.661,4.267l6.792-7.505c0.441-0.417,0.755-0.912,0.746-2.062v-6.05
	l11.883,6.405v20.402c-0.004,7.27,9.848,7.268,9.853,0.07V57.118c-0.005-2.125-0.851-4.193-2.952-5.403l-15.899-8.572
	c-3.765-1.939-9.026,1.618-9.071,5.513V61.32z"/>
<path d="M33.875,85.368l0.264,0.316C34.062,85.566,33.982,85.46,33.875,85.368z"/>
<path d="M32.266,85.257l0.284-0.144C32.447,85.148,32.357,85.199,32.266,85.257z"/>
<path d="M75,88.89l-7.266-3.633l-0.284-0.144c-0.139-0.047-0.282-0.087-0.436-0.087c-0.344,0-0.646,0.137-0.89,0.342l-0.265,0.316
	L55.556,97.223h-2.301l3.405-8.333h-5.285c0-2.94,0-5.883,0-8.823c1.239-0.081,3.485-0.442,4.989-1.946
	c2.168-2.168,1.964-5.893,1.964-5.893s-3.726-0.205-5.892,1.964c-0.449,0.449-0.793,0.966-1.062,1.503c0-3.172,0-6.344,0-9.516
	c1.239-0.082,3.485-0.444,4.989-1.948c2.168-2.167,1.964-5.892,1.964-5.892s-3.726-0.205-5.892,1.965
	c-0.449,0.447-0.793,0.965-1.062,1.5c0-2.084,0-4.166,0-6.248c0-1.773-2.75-1.773-2.75,0c0,3.936,0,7.87,0,11.805
	c-0.268-0.536-0.612-1.053-1.061-1.502c-2.167-2.17-5.892-1.964-5.892-1.964s-0.205,3.724,1.963,5.892
	c1.504,1.504,3.75,1.866,4.99,1.947c0,3.172,0,6.344,0,9.516c-0.268-0.537-0.612-1.053-1.061-1.502
	c-2.167-2.169-5.892-1.965-5.892-1.965s-0.205,3.726,1.963,5.894c1.504,1.503,3.75,1.864,4.99,1.946c0,1.089,0,2.178,0,3.268H43.34
	l3.405,8.333h-2.301L34.139,85.685l-0.264-0.316c-0.244-0.205-0.545-0.342-0.889-0.342c-0.154,0-0.297,0.04-0.437,0.087
	l-0.284,0.144L25,88.89H0V100h50h50V88.89H75z"/>
</svg>
