<?xml version="1.0" encoding="utf-8"?>
<!-- Generator: Adobe Illustrator 15.1.0, SVG Export Plug-In . SVG Version: 6.00 Build 0)  -->
<!DOCTYPE svg PUBLIC "-//W3C//DTD SVG 1.1//EN" "http://www.w3.org/Graphics/SVG/1.1/DTD/svg11.dtd">
<svg version="1.1" id="Layer_1" xmlns="http://www.w3.org/2000/svg" xmlns:xlink="http://www.w3.org/1999/xlink" x="0px" y="0px"
	 width="98.898px" height="100px" viewBox="0 0 98.898 100" enable-background="new 0 0 98.898 100" xml:space="preserve">
<path d="M65.401,61.239H33.562c-1.146,0-2.076,0.93-2.076,2.078v2.109c-1.384,0-2.769,0-4.153,0c-0.736,0-1.35,0.615-1.35,1.351
	c0,3.23,0,6.46,0,9.69c0,0.735,0.614,1.35,1.35,1.35c6.933,0,13.866,0,20.799,0c0,1.856,0,3.714,0,5.57h-1.419v13.844
	c0,1.529,1.24,2.769,2.769,2.769c1.529,0,2.768-1.239,2.768-2.769V83.388h-1.418c0-2.307,0-4.612,0-6.92
	c0-0.736-0.615-1.351-1.35-1.351c-6.933,0-13.866,0-20.799,0c0-2.33,0-4.659,0-6.989c0.935,0,1.869,0,2.803,0v2.11
	c0,1.147,0.93,2.077,2.076,2.077h31.839c1.146,0,2.076-0.93,2.076-2.077v-6.921C67.478,62.169,66.547,61.239,65.401,61.239z"/>
<path d="M94.476,49.723c-2.992-3.405-5.312-6.815-6.206-9.12c-1.886-4.866-3.425-10.435-4.5-16.212
	c1.271-0.39,2.659-0.906,3.789-1.76l5.728-4.33l-7.152-0.637c-1.141-0.101-2.287-0.215-3.436-0.336
	c-0.057-0.477-0.108-0.953-0.158-1.429l-0.062-0.609c-0.346-3.353-1.158-11.205-1.158-14.957h-5.537
	c0,4.038,0.832,12.088,1.188,15.525l0.062,0.607c0.008,0.07,0.016,0.141,0.022,0.211c-1.473-0.182-2.938-0.367-4.387-0.551
	c-2.163-0.275-4.362-0.553-6.575-0.815V0.333H32.871v6.189c-0.231-0.087-0.466-0.176-0.694-0.262
	c-4.678-1.766-9.096-3.433-12.341-4.423L13.814,0l2.716,5.68c0.972,2.033,3.947,5.362,8.73,10.604
	c2.835,3.107,6.363,6.973,7.103,8.322c0.165,0.3,0.337,0.631,0.508,0.952v11.889c-1.789-0.91-3.505-1.882-4.953-2.702
	c-0.882-0.5-1.701-0.963-2.433-1.359c-6.556-3.548-12.997-7.762-19.143-12.525l-0.33-0.255l-0.39-0.148
	c-0.438-0.165-0.528-0.345-0.577-0.442L0,22.284c0.655,1.63,1.661,2.931,2.547,4.08c0.192,0.249,0.385,0.498,0.574,0.75
	c1.272,1.705,2.27,3.582,3.325,5.57c0.392,0.738,0.785,1.479,1.195,2.217c1.019,1.831,2.148,3.578,3.241,5.266
	c0.888,1.373,1.727,2.669,2.516,4.017c0.289,0.491,0.619,1.008,0.963,1.547c1.008,1.575,2.263,3.533,2.244,4.918l5.537,0.074
	c0.041-3.045-1.71-5.781-3.117-7.978c-0.304-0.475-0.596-0.932-0.851-1.363c-0.851-1.451-1.762-2.86-2.643-4.223
	c-1.092-1.686-2.122-3.279-3.05-4.948c-0.047-0.084-0.093-0.168-0.139-0.252c3.452,2.274,6.962,4.378,10.508,6.297
	c0.703,0.381,1.49,0.827,2.338,1.307c2.266,1.283,4.931,2.79,7.683,4.029v12.103h33.222V41.856c1.832,0.846,3.66,1.732,5.471,2.704
	c3.784,2.029,8.842,4.641,14.426,6.838c0.249,0.099,1.019,0.56,1.527,0.864c1.972,1.18,3.363,1.961,4.693,2.05l6.688,0.448
	L94.476,49.723z M71.734,21.587c-1.875,0.33-3.76,0.612-5.642,0.877v-1.577C67.987,21.115,69.875,21.351,71.734,21.587z
	 M29.35,12.551c-0.629-0.689-1.307-1.432-1.991-2.188c0.936,0.352,1.894,0.713,2.862,1.078c0.874,0.33,1.759,0.664,2.649,0.998
	v4.007C31.852,15.3,30.69,14.019,29.35,12.551z M74.184,39.681c-2.681-1.438-5.389-2.73-8.091-3.909v-7.714
	c4.096-0.568,8.242-1.214,12.32-2.191c1.137,5.951,2.739,11.693,4.695,16.737c0.247,0.642,0.552,1.297,0.892,1.953
	C80.267,42.891,76.89,41.133,74.184,39.681z"/>
</svg>
