<?xml version="1.0" encoding="utf-8"?>
<!-- Generator: Adobe Illustrator 15.1.0, SVG Export Plug-In . SVG Version: 6.00 Build 0)  -->
<!DOCTYPE svg PUBLIC "-//W3C//DTD SVG 1.1//EN" "http://www.w3.org/Graphics/SVG/1.1/DTD/svg11.dtd">
<svg version="1.1" id="Layer_1" xmlns="http://www.w3.org/2000/svg" xmlns:xlink="http://www.w3.org/1999/xlink" x="0px" y="0px"
	 width="100px" height="81.64px" viewBox="0 0 100 81.64" enable-background="new 0 0 100 81.64" xml:space="preserve">
<path d="M25.361,38.376"/>
<path d="M79.785,45.104"/>
<polygon points="0,81.64 100,81.64 100,70.546 90.771,70.546 88.89,76.085 72.223,78.862 65.277,70.528 0,70.546 "/>
<circle cx="63.875" cy="17.589" r="5.154"/>
<path d="M87.722,31.349l-4.789-19.031c-0.886-3.64-3.394-6.953-8.831-7.651l-9.915-1.226L47.233,1.345L37.142,0.099
	c-5.421-0.646-8.659,1.958-10.429,5.27l-9.278,17.293c-2.84,0.015-8.188,2.684-8.947,8.904L5.629,54.69l6.863,0.848l-0.912,7.381
	c-1.143,9.1,11.749,10.584,12.858,1.589l0.911-7.38l23.18,2.864l23.123,2.859l-0.911,7.38c-1.088,8.998,11.781,10.697,12.912,1.598
	l0.913-7.381l6.864,0.848l2.859-23.124C95.036,35.951,90.495,32.058,87.722,31.349z M27.542,37.027
	c-0.413,3.375-3.417,5.79-6.695,5.375c-3.29-0.398-5.612-3.47-5.184-6.844c0.409-3.4,3.41-5.817,6.695-5.382
	C25.642,30.555,27.965,33.63,27.542,37.027z M74.188,29.503c-0.442-2.486-2.078-4.619-5.08-4.989l-11.465-1.422
	c-2.812-0.348-5.023,1.188-6.089,3.613l-26.779-3.309l7.073-13.647c0.891-1.951,2.065-3.28,4.414-3.026l18.511,2.291l0.055,0.006
	l18.57,2.295c2.307,0.321,3.123,1.895,3.542,4.008l3.536,14.958L74.188,29.503z M86.358,44.299
	c-0.438,3.372-3.441,5.783-6.695,5.373c-3.314-0.399-5.641-3.474-5.241-6.85c0.438-3.396,3.442-5.813,6.753-5.375
	C84.434,37.822,86.757,40.896,86.358,44.299z"/>
</svg>
