<?xml version="1.0" encoding="utf-8"?>
<!-- Generator: Adobe Illustrator 15.1.0, SVG Export Plug-In . SVG Version: 6.00 Build 0)  -->
<!DOCTYPE svg PUBLIC "-//W3C//DTD SVG 1.1//EN" "http://www.w3.org/Graphics/SVG/1.1/DTD/svg11.dtd">
<svg version="1.1" id="Layer_1" xmlns="http://www.w3.org/2000/svg" xmlns:xlink="http://www.w3.org/1999/xlink" x="0px" y="0px"
	 width="61.11px" height="100px" viewBox="0 0 61.11 100" enable-background="new 0 0 61.11 100" xml:space="preserve">
<path d="M30.555,0c-1.543,0-3.06,0.117-4.542,0.338c-0.055,0.008-0.11,0.016-0.165,0.023C11.208,2.625,0,15.281,0,30.555
	c0,8.828,3.747,16.775,9.733,22.354l1.377,16.536l12.5,15.276V100H37.5V84.722L50,69.445l1.378-16.536
	c5.984-5.579,9.731-13.526,9.731-22.354C61.11,13.68,47.43,0,30.555,0z M23.61,52.778h-8.333V37.5h8.333V52.778z M29.674,30.555
	H6.944c0-10.495,6.853-19.379,16.324-22.451l-4.049,12.148l12.5,4.167L29.674,30.555z M41.667,54.449v6.663H37.5v-6.664
	c-2.035-0.823-3.474-2.812-3.474-5.143c0-2.331,1.438-4.318,3.474-5.143V37.5h4.167v6.662c2.033,0.825,3.471,2.813,3.471,5.144
	C45.138,51.637,43.701,53.625,41.667,54.449z M36.993,30.555l3.511-10.529l-12.501-4.167l2.965-8.894
	c12.849,0.223,23.2,10.689,23.2,23.589H36.993z"/>
<rect x="18.402" y="38.889" width="2.083" height="12.499"/>
</svg>
