<?xml version="1.0" encoding="utf-8"?>
<!-- Generator: Adobe Illustrator 15.1.0, SVG Export Plug-In . SVG Version: 6.00 Build 0)  -->
<!DOCTYPE svg PUBLIC "-//W3C//DTD SVG 1.1//EN" "http://www.w3.org/Graphics/SVG/1.1/DTD/svg11.dtd">
<svg version="1.1" id="Layer_1" xmlns="http://www.w3.org/2000/svg" xmlns:xlink="http://www.w3.org/1999/xlink" x="0px" y="0px"
	 width="61.111px" height="100px" viewBox="0 0 61.111 100" enable-background="new 0 0 61.111 100" xml:space="preserve">
<path d="M30.555,0C13.68,0,0,13.68,0,30.555c0,8.828,3.747,16.775,9.733,22.354l1.377,16.536l12.5,15.276V100H37.5V84.722L50,69.445
	l1.377-16.536c5.987-5.579,9.734-13.526,9.734-22.354C61.111,13.68,47.431,0,30.555,0z M23.61,52.778h-8.333V37.5h8.333V52.778z
	 M41.666,54.449v6.663H37.5v-6.664c-2.034-0.823-3.472-2.812-3.472-5.143c0-2.331,1.438-4.318,3.472-5.143V37.5h4.166v6.662
	c2.035,0.825,3.473,2.813,3.473,5.144C45.138,51.637,43.701,53.625,41.666,54.449z M31.945,30.555v-2.777h4.166l-5.556-9.723
	L25,27.778h4.167v2.777H6.944c0-13.039,10.572-23.61,23.611-23.61c13.04,0,23.61,10.571,23.61,23.61H31.945z"/>
<rect x="18.402" y="38.889" width="2.083" height="12.499"/>
<rect x="29.167" y="11.111" width="2.778" height="4.167"/>
<rect x="19.791" y="14.13" transform="matrix(0.4994 0.8663 -0.8663 0.4994 24.3941 -11.1829)" width="4.167" height="2.778"/>
<rect x="13.435" y="20.486" transform="matrix(0.866 0.5 -0.5 0.866 13.0153 -4.8279)" width="4.165" height="2.778"/>
<rect x="37.845" y="13.434" transform="matrix(0.8661 0.4998 -0.4998 0.8661 13.0097 -17.5334)" width="2.778" height="4.169"/>
<rect x="44.203" y="19.792" transform="matrix(0.4998 0.8661 -0.8661 0.4998 41.7497 -28.5471)" width="2.778" height="4.167"/>
</svg>
