<?xml version="1.0" encoding="utf-8"?>
<!-- Generator: Adobe Illustrator 15.1.0, SVG Export Plug-In . SVG Version: 6.00 Build 0)  -->
<!DOCTYPE svg PUBLIC "-//W3C//DTD SVG 1.1//EN" "http://www.w3.org/Graphics/SVG/1.1/DTD/svg11.dtd">
<svg version="1.1" id="Layer_1" xmlns="http://www.w3.org/2000/svg" xmlns:xlink="http://www.w3.org/1999/xlink" x="0px" y="0px"
	 width="65.18px" height="100px" viewBox="0 0 65.18 100" enable-background="new 0 0 65.18 100" xml:space="preserve">
<path d="M35.478,39.365c-0.168,0.449-0.277,0.91-0.324,1.379c-0.052,0.518-0.039,1.039,0.058,1.555
	c0.059,0.309,0.13,0.617,0.242,0.918c0.513,1.392,1.539,2.499,2.887,3.119c0.735,0.338,1.515,0.508,2.316,0.508
	c0.995,0,1.948-0.279,2.78-0.764c0.451-0.262,0.863-0.584,1.228-0.964c0.325-0.339,0.605-0.725,0.839-1.145
	c0.067-0.121,0.142-0.237,0.2-0.365c0,0,11.078-24.098,11.102-24.147c0.023-0.052,0.333-0.974,0.401-1.345
	c0.434-2.428-0.784-4.941-3.127-6.02c-0.734-0.338-1.513-0.508-2.314-0.508c-1.689,0-3.257,0.78-4.299,2.052
	c-0.293,0.359-0.552,0.75-0.75,1.183c0.003-0.004,0.003-0.008,0.006-0.011l-0.006,0.012c-0.001,0.001-0.002,0.004-0.004,0.006
	L35.614,38.97C35.556,39.099,35.526,39.233,35.478,39.365z"/>
<path d="M40.474,12.83c0.237,0.236,0.389,0.544,0.5,0.881c0.264,0.799,0.221,1.822,0.002,2.859
	c-0.111,0.529-0.262,1.054-0.441,1.551c-0.068,0.191-0.139,0.384-0.214,0.564c-0.113,0.275-0.262,0.595-0.434,0.933
	c-1.504,2.975-5.374,7.975-14.465,8.285c-0.006,0-0.01,0.001-0.016,0.001l-3.788,7.885c2.366,0.559,6.577,1.881,10.227,4.73
	l12.346-26.859c0.202-0.438,0.319-0.889,0.399-1.344c0.433-2.431-0.783-4.945-3.126-6.022c-0.733-0.336-1.513-0.508-2.313-0.508
	c-1.688,0-3.257,0.779-4.299,2.052C34.559,8.198,34.3,8.59,34.102,9.022c0-0.004,0.003-0.006,0.003-0.01l-0.004,0.01l-0.003,0.007
	l-1.561,3.395h7.53L40.474,12.83z"/>
<path d="M25.861,12.424h1.351h2.269l2.086-4.549c0.201-0.438,0.32-0.89,0.4-1.344c0.432-2.429-0.783-4.943-3.127-6.021
	C28.105,0.174,27.327,0,26.526,0c-1.688,0-3.257,0.781-4.299,2.053c-0.293,0.359-0.553,0.751-0.751,1.185
	c-0.001,0.002-0.003,0.004-0.003,0.006l-4.214,9.18h4.615H25.861z"/>
<polygon points="31.578,7.861 31.581,7.853 31.577,7.861 31.572,7.874 "/>
<polygon points="55.551,28.84 55.55,28.84 55.55,28.841 "/>
<polygon points="44.948,45.252 44.95,45.248 44.949,45.249 "/>
<polygon points="44.954,45.241 44.95,45.245 44.95,45.246 "/>
<g>
	<path d="M37.472,72.226c-2.373,0-4.554,0.805-6.307,2.146l14.578,14.578c1.341-1.753,2.146-3.935,2.146-6.308
		C47.888,76.897,43.216,72.226,37.472,72.226z"/>
	<path d="M65.18,33.276c0-0.624-0.348-1.915-0.362-1.927c-0.786-2.115-2.805-3.628-5.192-3.628c-0.501,0-0.978,0.088-1.44,0.213
		c-0.805,0.216-1.528,0.607-2.146,1.131c-0.723,0.617-1.282,1.405-1.614,2.315c-0.006,0.012-0.007,0.026-0.011,0.038l-6.94,14.99
		h0.002c-0.206,0.447-0.309,0.913-0.332,1.377c-0.008,0.166-0.002,0.33,0.013,0.492c0.106,1.305,0.887,2.518,2.159,3.104
		c0.604,0.277,1.255,0.359,1.891,0.294c0.828-0.085,1.627-0.431,2.239-0.995c0.297-0.271,0.542-0.6,0.734-0.962l3.604-7.787
		l2.521,1.163l0.249-0.543l-3.742,8.143l-0.005,0.012c-0.062,0.135-0.139,0.259-0.211,0.386c-0.156,0.278-0.327,0.547-0.519,0.799
		c-0.391,0.519-0.859,0.967-1.378,1.342c-1.005,0.734-2.213,1.182-3.494,1.247c-0.109,0.008-0.219,0.021-0.328,0.021l0,0
		c-0.944,0-1.859-0.2-2.723-0.596c-1.292-0.594-2.284-1.566-2.937-2.719c-0.313-0.558-0.536-1.158-0.677-1.782
		c-0.054-0.233-0.094-0.466-0.123-0.705c-0.43,0.22-0.873,0.412-1.338,0.555c-0.776,0.238-1.592,0.368-2.425,0.368l0,0
		c-0.965,0-1.609-0.172-2.513-0.497c0.513,1.676,0.833,3.53,0.833,5.63V65.28h-2.778V54.755c0-2.52-0.789-4.656-1.597-6.478
		c-3.795-8.545-14.628-10.023-15.183-10.092l-1.915-0.24l6.148-12.802h0.874c0.231,0,0.429-0.029,0.653-0.035
		c0.537-0.016,1.073-0.033,1.566-0.084c5.297-0.549,8.204-3.018,9.739-5.135c0.133-0.183,0.25-0.367,0.367-0.548
		c0.272-0.426,0.5-0.842,0.69-1.248c0.219-0.463,0.389-0.906,0.517-1.313c0.195-0.628,0.298-1.174,0.327-1.578H15.407
		c-2.75,0-5.153,1.458-6.499,3.64c-0.314,0.51-0.574,1.056-0.763,1.635l-7.217,15.48l-0.372,0.796C0.201,37.635,0,38.597,0,39.608
		c0,1.382,0.373,2.675,1.014,3.794l0.78,1.12l17.738,23.493v31.982h33.332V100h2.777l0.002-23.61l8.82-17.956
		c0.125-0.223,0.243-0.445,0.337-0.687c0.231-0.594,0.367-1.235,0.379-1.91C65.18,55.804,65.18,33.276,65.18,33.276z M37.472,95.836
		c-7.275,0-13.194-5.919-13.194-13.194s5.919-13.195,13.194-13.195c7.275,0,13.195,5.92,13.195,13.195S44.747,95.836,37.472,95.836z
		"/>
	<path d="M27.055,82.642c0,5.744,4.673,10.417,10.417,10.417c2.372,0,4.555-0.806,6.307-2.146L29.201,76.335
		C27.861,78.087,27.055,80.27,27.055,82.642z"/>
</g>
</svg>
