<?xml version="1.0" encoding="utf-8"?>
<!-- Generator: Adobe Illustrator 15.1.0, SVG Export Plug-In . SVG Version: 6.00 Build 0)  -->
<!DOCTYPE svg PUBLIC "-//W3C//DTD SVG 1.1//EN" "http://www.w3.org/Graphics/SVG/1.1/DTD/svg11.dtd">
<svg version="1.1" id="Layer_1" xmlns="http://www.w3.org/2000/svg" xmlns:xlink="http://www.w3.org/1999/xlink" x="0px" y="0px"
	 width="100px" height="73.472px" viewBox="0 0 100 73.472" enable-background="new 0 0 100 73.472" xml:space="preserve">
<polygon points="63.888,73.472 36.112,73.472 50,55.459 "/>
<path d="M88.087,49.905l1.894-20.042c0,0,3.19-0.199,3.19-3.625V14.583c0-2.083-1.389-4.86-4.861-4.86h-4.514h-4.518
	c-3.47,0-4.859,2.777-4.859,4.86v11.652c0,3.427,3.193,3.625,3.193,3.625l1.891,20.042H20.727L22.62,29.86
	c0,0,3.19-0.198,3.19-3.625V14.583c0-2.083-1.388-4.86-4.859-4.86h-4.516h-4.516c-3.472,0-4.861,2.777-4.861,4.86v11.652
	c0,3.427,3.191,3.625,3.191,3.625l1.895,20.042H0v5.558h100v-5.558H88.087V49.905z"/>
<circle cx="16.435" cy="4.167" r="4.167"/>
<circle cx="83.796" cy="4.167" r="4.167"/>
</svg>
