<?xml version="1.0" encoding="utf-8"?>
<!-- Generator: Adobe Illustrator 15.1.0, SVG Export Plug-In . SVG Version: 6.00 Build 0)  -->
<!DOCTYPE svg PUBLIC "-//W3C//DTD SVG 1.1//EN" "http://www.w3.org/Graphics/SVG/1.1/DTD/svg11.dtd">
<svg version="1.1" id="Layer_1" xmlns="http://www.w3.org/2000/svg" xmlns:xlink="http://www.w3.org/1999/xlink" x="0px" y="0px"
	 width="64.836px" height="100px" viewBox="0 0 64.836 100" enable-background="new 0 0 64.836 100" xml:space="preserve">
<path d="M63.336,96c-3.163,0-3.865-1.6-5.001-3c-1.113-1.373-3-4-6-4c-0.783,0-1.819,0-2.999,0V36l-3.554-6.217
	C52.901,28.612,58.335,22.448,58.335,15c0-8.283-6.717-15-15-15s-15,6.717-15,15c0,7.448,5.436,13.612,12.553,14.783L37.335,36v8h-7
	c0-0.88,0-1.655,0-2.277c0.596-0.347,1-0.984,1-1.723c0-1.104-0.896-2-2-2h-3.5c0-6.659-6.075-12.5-13-12.5
	c-4.289,0-7.6,1.449-9.838,4.309C1.009,32.35,0,35.856,0,40.232c0,10.874,6.322,25.585,15.892,35.692
	C15.564,76.613,15.336,77,15.336,77c-2,0-2,1.396-2,2.5s0,2.5,2,2.5h1c0,0.829,0.671,1.5,1.5,1.5h7.393
	c3.809,2.242,7.883,3.66,12.107,3.936V89c-1.179,0-2.215,0-3,0c-3,0-4.886,2.627-6,4c-1.136,1.4-1.838,3-5,3c-2,0-2,4,0,4
	c3.871,0,11.996,0,20,0s16.129,0,20.001,0C65.336,100,65.336,96,63.336,96z M37.335,15c0-3.314,2.687-6,6-6
	c3.315,0,6.001,2.686,6.001,6s-2.686,6-6.001,6C40.022,21,37.335,18.314,37.335,15z M3,40.232c0-3.638,0.816-6.603,2.36-8.574
	c1.641-2.096,4.156-3.158,7.476-3.158c5.327,0,10,4.439,10,9.5h-3.5c-1.104,0-2,0.896-2,2c0,0.738,0.404,1.376,1,1.723
	c0,0.53,0,1.167,0,1.887C17.41,41.487,15.295,40,12.836,40c-3.309,0-6,2.691-6,6s2.691,6,6,6c2.459,0,4.574-1.487,5.5-3.609
	c0,6.104,0,13.771,0,16.609c0,3.054-0.571,5.727-1.215,7.771C8.65,63.266,3,49.914,3,40.232z M15.836,46c0,1.654-1.346,3-3,3
	s-3-1.346-3-3s1.346-3,3-3S15.836,44.346,15.836,46z M31.688,83.232c0.391-0.271,0.647-0.721,0.647-1.232h1c2,0,2-1.396,2-2.5
	s0-2.5-2-2.5c0,0-3-5-3-12c0-3.917,0-11.275,0-17h7v36.433C35.42,84.289,33.533,83.88,31.688,83.232z"/>
<circle cx="40.836" cy="12" r="1"/>
<circle cx="43.335" cy="15" r="1"/>
<circle cx="45.835" cy="12" r="1"/>
<circle cx="40.836" cy="18" r="1"/>
<circle cx="45.835" cy="18" r="1"/>
</svg>
