<?xml version="1.0" encoding="utf-8"?>
<!-- Generator: Adobe Illustrator 15.1.0, SVG Export Plug-In . SVG Version: 6.00 Build 0)  -->
<!DOCTYPE svg PUBLIC "-//W3C//DTD SVG 1.1//EN" "http://www.w3.org/Graphics/SVG/1.1/DTD/svg11.dtd">
<svg version="1.1" id="Layer_1" xmlns="http://www.w3.org/2000/svg" xmlns:xlink="http://www.w3.org/1999/xlink" x="0px" y="0px"
	 width="100px" height="53px" viewBox="0 0 100 53" enable-background="new 0 0 100 53" xml:space="preserve">
<path d="M98,41.431H86c0,0,2.343-4.75-0.785-10.758c2.037-2.718,3.481-5.889,2.896-8.918l4.611-3.227
	c1.268,1.811,3.76,2.251,5.57,0.983c1.812-1.267,2.25-3.76,0.985-5.569c-0.69-0.984-1.743-1.548-2.851-1.667
	c0.268-1.082,0.099-2.264-0.59-3.249c-1.266-1.81-3.762-2.251-5.572-0.984c-1.811,1.268-2.248,3.761-0.982,5.57l-4.613,3.229
	c-3.618-2.17-8.784-0.874-12.807,0.983c0.265-1.129,0.328-2.269,0.112-3.389l4.612-3.227c1.266,1.811,3.76,2.251,5.57,0.983
	c1.811-1.267,2.25-3.76,0.984-5.569c-0.689-0.984-1.742-1.548-2.85-1.667c0.267-1.082,0.098-2.264-0.591-3.249
	c-1.266-1.81-3.761-2.251-5.571-0.984c-1.811,1.268-2.248,3.761-0.982,5.57l-4.613,3.229c-4.852-2.91-12.489,0.405-16.411,2.959
	C51.43,12.319,50.722,12.159,50,12C18,5,14,41.431,14,41.431H2c-1.105,0-2,0.896-2,2s0.895,2,2,2c3.094,0,5.299,3.519,6,5.569
	c0.205,0.602,1,2,3,2h78c2,0,2.795-1.398,3-2c0.701-2.051,2.906-5.569,6-5.569c1.104,0,2-0.896,2-2S99.104,41.431,98,41.431z"/>
</svg>
