<?xml version="1.0" encoding="utf-8"?>
<!-- Generator: Adobe Illustrator 15.1.0, SVG Export Plug-In . SVG Version: 6.00 Build 0)  -->
<!DOCTYPE svg PUBLIC "-//W3C//DTD SVG 1.1//EN" "http://www.w3.org/Graphics/SVG/1.1/DTD/svg11.dtd">
<svg version="1.1" id="Layer_1" xmlns="http://www.w3.org/2000/svg" xmlns:xlink="http://www.w3.org/1999/xlink" x="0px" y="0px"
	 width="100px" height="53.146px" viewBox="0 0 100 53.146" enable-background="new 0 0 100 53.146" xml:space="preserve">
<path d="M14.5,24.146c-8.008,0-14.5,6.491-14.5,14.5s6.492,14.5,14.5,14.5S29,46.654,29,38.646S22.508,24.146,14.5,24.146z
	 M14.5,47.146c-4.694,0-8.5-3.806-8.5-8.5s3.806-8.5,8.5-8.5s8.5,3.806,8.5,8.5S19.194,47.146,14.5,47.146z"/>
<path d="M68,27.146c0-1.104-0.896-2-2-2H39c-1.104,0-2,0.896-2,2s0.896,2,2,2h24.076l-5.444,14H37.473l-3.578-1.789l-0.004,0.007
	c-0.269-0.135-0.569-0.218-0.891-0.218c-1.104,0-2,0.896-2,2c0,0.782,0.454,1.453,1.109,1.782l-0.004,0.007l4,2l0.004-0.007
	c0.269,0.135,0.569,0.218,0.891,0.218h22c0.849,0,1.569-0.53,1.859-1.276l0.004,0.002l7-18l-0.004-0.001
	C67.947,27.644,68,27.401,68,27.146z"/>
<path d="M36,15.146H21.229L8.456,13.18l-0.002,0.011C8.305,13.168,8.156,13.146,8,13.146c-1.657,0-3,1.343-3,3
	c0,1.501,1.106,2.734,2.546,2.954l-0.002,0.011l13,2L36,21.146c1.657,0,3-1.343,3-3S37.657,15.146,36,15.146z"/>
<path d="M42,21.146c0,0,14,0,18,0c3,0,6-5.642,6-8c0-1-1-5-10-5c-10,0-17,4.938-17,10C39,21.146,42,21.146,42,21.146z"/>
<path d="M84,21.146c-2.176,0-4.248,0.438-6.14,1.225L69.736,8.153l-0.008,0.004C69.385,7.556,68.743,7.146,68,7.146
	c-1.104,0-2,0.896-2,2c0,0.361,0.104,0.695,0.271,0.988l-0.008,0.004l8.133,14.232C70.519,27.29,68,31.918,68,37.146
	c0,8.837,7.164,16,16,16s16-7.163,16-16S92.836,21.146,84,21.146z M84,47.146c-5.523,0-10-4.478-10-10
	c0-2.994,1.322-5.674,3.407-7.506l4.856,8.498l0.008-0.005c0.344,0.603,0.985,1.013,1.729,1.013c1.104,0,2-0.896,2-2
	c0-0.361-0.104-0.695-0.271-0.987l0.008-0.005l-4.859-8.504c0.983-0.323,2.031-0.504,3.123-0.504c5.523,0,10,4.478,10,10
	S89.523,47.146,84,47.146z"/>
<path d="M67.312,5.557l0.013-0.007l-2.844-5.041l-0.013,0.007C64.297,0.213,63.983,0,63.61,0c-0.081,0-0.154,0.028-0.23,0.046
	l-0.005-0.019l-6.297,1.521l0.004,0.019c-0.438,0.106-0.77,0.483-0.77,0.954c0,0.552,0.447,1,1,1c0.082,0,0.154-0.028,0.23-0.046
	l0.004,0.019l5.563-1.343l2.473,4.383l0.013-0.007c0.172,0.303,0.485,0.516,0.858,0.516c0.552,0,1-0.448,1-1
	C67.454,5.862,67.395,5.703,67.312,5.557z"/>
<path d="M78.873,5.233"/>
<path d="M78.873,5.233C75.451,5.724,73,8.339,73,10.146s2.451,4.422,5.873,4.912c0.051,0.007,1.127,0,1.127-0.975V6.208
	C80,5.233,78.924,5.227,78.873,5.233z"/>
</svg>
