<svg xmlns="http://www.w3.org/2000/svg" xmlns:xlink="http://www.w3.org/1999/xlink" version="1.1" id="Layer_1" x="0px" y="0px" width="100px" height="100px" viewBox="0 0 100 100" enable-background="new 0 0 100 100" xml:space="preserve">
<path fill="#000000" d="M90.129,54.778c-2.018-2.314-4.418-4.167-7.074-5.52c2.048-8.299,1.894-19.114-4.016-27.677  c0.671-1.838,0.258-3.976-1.239-5.425C71.468,10.028,62.131,6.92,50.704,6.92l0,0c-11.427,0-20.764,3.108-27.096,9.237  c-1.497,1.449-1.91,3.587-1.239,5.425c-5.909,8.563-6.062,19.378-4.015,27.677c-2.656,1.352-5.057,3.205-7.074,5.52  c-4.137,4.746-6.179,10.818-5.748,17.099c0.842,12.312,11.164,21.959,23.492,21.959c0.541,0,1.083-0.02,1.63-0.056  c0.81-0.056,1.566-0.431,2.102-1.046c0.533-0.61,0.802-1.412,0.746-2.223L30.7,49.601c-0.116-1.689-1.59-2.953-3.267-2.849  c-1.108,0.076-2.191,0.254-3.259,0.477c-1.517-6.714-1.381-15.607,3.342-22.328c1.158-0.081,2.295-0.532,3.195-1.403  c4.362-4.221,11.309-6.361,19.992-6.361l0,0c8.683,0,15.63,2.14,19.992,6.361c0.899,0.87,2.037,1.323,3.194,1.404  c4.724,6.72,4.859,15.614,3.343,22.327c-1.067-0.223-2.151-0.401-3.259-0.477c-1.676-0.106-3.151,1.159-3.267,2.849l-2.802,40.911  c-0.056,0.811,0.213,1.612,0.746,2.223c0.535,0.615,1.291,0.99,2.102,1.046c0.547,0.036,1.09,0.056,1.63,0.056  c12.329,0,22.65-9.646,23.492-21.959C96.308,65.597,94.266,59.524,90.129,54.778z"/>
<g>
	<path fill="#000000" d="M35.773,48.743c-1.688,0.116-2.963,1.579-2.848,3.268l2.53,36.929c0.11,1.618,1.457,2.857,3.053,2.857   c0.072,0,0.142-0.004,0.214-0.008c1.688-0.116,2.963-1.579,2.848-3.27L39.04,51.592C38.926,49.902,37.453,48.641,35.773,48.743z"/>
</g>
<g>
	<path fill="#000000" d="M65.633,48.743c-1.658-0.104-3.152,1.16-3.267,2.849l-2.53,36.928c-0.116,1.69,1.159,3.153,2.848,3.27   c0.072,0.004,0.142,0.008,0.214,0.008c1.596,0,2.943-1.239,3.053-2.857l2.53-36.929C68.597,50.321,67.321,48.858,65.633,48.743z"/>
</g>
</svg>