<svg xmlns="http://www.w3.org/2000/svg" xmlns:xlink="http://www.w3.org/1999/xlink" version="1.0" x="0px" y="0px" width="76.11px" height="100px" viewBox="0 0 76.11 100" overflow="visible" enable-background="new 0 0 76.11 100" xml:space="preserve">
    <path d="M72.066,88.75c-1.432,0-2.691,0.754-3.412,1.889H58.203v-4.416c0-0.324-0.26-0.586-0.576-0.586h-0.87v-2.49h3.181 c0.474,0,0.869-0.389,0.869-0.869V71.488c0-0.482-0.396-0.877-0.869-0.877h-3.181v-1.904h1.046l0.874-3.207h1.26 c0.474,0,0.87-0.393,0.87-0.875v-2.689c0-0.477-0.396-0.871-0.87-0.871H46.014c-0.48,0-0.866,0.395-0.866,0.871v2.689 c0,0.482,0.386,0.875,0.866,0.875h1.259l0.869,3.207h1.102v1.904H26.137c-1.433,0-2.599-1.174-2.599-2.609V19.613 c0-1.439,1.167-2.616,2.599-2.616h19.01v2.009c0,0.477,0.386,0.869,0.866,0.869h13.923c0.474,0,0.87-0.393,0.87-0.869v-2.69 c0-0.481-0.396-0.87-0.87-0.87h-1.655C43.953,1.179,23.575,0.033,23.575,0.033C23.181,0.011,22.785,0,22.39,0 C10.023,0,0,10.084,0,22.527v44.282c0,12.439,10.023,20.23,22.39,20.23c0.395,0,0.791-0.01,1.185-0.027 c0,0,10.405-0.582,21.572-6.123v1.389c0,0.48,0.386,0.869,0.866,0.869h3.229v2.49h-0.92c-0.32,0-0.576,0.262-0.576,0.586v4.416 H37.249c-0.721-1.135-1.981-1.889-3.413-1.889c-2.236,0-4.045,1.826-4.045,4.07s1.809,4.066,4.045,4.066 c1.432,0,2.691-0.754,3.413-1.891h10.499v4.42c0,0.326,0.256,0.584,0.576,0.584h9.304c0.315,0,0.576-0.258,0.576-0.584v-4.42 h10.451c0.721,1.137,1.98,1.891,3.412,1.891c2.236,0,4.044-1.822,4.044-4.066S74.303,88.75,72.066,88.75z"/>
    <path d="M32.404,27.75v24.915l0,0c0,1.864,1.516,3.385,3.39,3.385h34.474c1.868,0,3.39-1.521,3.39-3.385l0,0V27.75 c0-1.873-1.521-3.389-3.39-3.389H35.793C33.92,24.361,32.404,25.877,32.404,27.75z"/>
</svg>