<svg xmlns="http://www.w3.org/2000/svg" xmlns:xlink="http://www.w3.org/1999/xlink" version="1.0" x="0px" y="0px" width="100px" height="80.645px" viewBox="0 0 100.004 80.645" overflow="visible" enable-background="new 0 0 100.004 80.645" xml:space="preserve">
    <path d="M89.615,14.304c-3.049,0-5.928,0.688-8.504,1.927c-0.547,0.265-1.082,0.563-1.609,0.879h-0.023L55.008,30.662 l-12.199-8.568c-0.188-0.134-0.375-0.263-0.567-0.392l-0.196-0.139l0.009,0.022c-2.415-1.54-5.231-2.482-8.264-2.652 c0.213-1.036,0.333-2.107,0.333-3.207C34.123,7.046,27.08,0,18.396,0C9.713,0,2.674,7.046,2.674,15.727 c0,8.678,7.039,15.723,15.722,15.723c0.205,0,0.405-0.027,0.614-0.035h13.841c1.268,0,2.415,0.521,3.25,1.343l6.99,6.998 l-6.99,6.997c-0.835,0.826-1.983,1.336-3.25,1.336H19.01c-0.209-0.006-0.409-0.031-0.614-0.031 c-8.683,0-15.722,7.057-15.722,15.734c0,1.689,0.267,3.311,0.765,4.832C1.397,69.686,0,71.82,0,74.273 c0,3.525,2.857,6.371,6.376,6.371c1.444,0,2.771-0.475,3.839-1.285v0.006c0.631-0.484,1.429-0.779,2.291-0.779 c0.463,0,0.903,0.084,1.309,0.23l0.009-0.006c1.446,0.453,2.98,0.695,4.573,0.695c8.684,0,15.727-7.035,15.727-15.715 c0-1.098-0.12-2.176-0.333-3.213c3.033-0.154,5.849-1.098,8.26-2.641l-0.005,0.023l0.213-0.148 c0.175-0.121,0.345-0.24,0.509-0.367l57.236-40.18C96.982,15.385,93.422,14.304,89.615,14.304z M18.396,22.686 c-3.879,0-7.025-3.142-7.025-7.025c0-3.875,3.146-7.021,7.025-7.021c3.88,0,7.021,3.146,7.021,7.021 C25.417,19.544,22.276,22.686,18.396,22.686z M18.396,70.76c-3.879,0-7.025-3.143-7.025-7.018c0-3.877,3.146-7.021,7.025-7.021 c3.88,0,7.021,3.145,7.021,7.021C25.417,67.617,22.276,70.76,18.396,70.76z M55.061,43.604 c-1.939,0.402-3.875-1.25-4.334-3.667c-0.33-1.744,0.213-3.397,1.258-4.354c-0.051,0.009-0.092,0.009-0.139,0.013 c-2.485,0.511-4.194,2.643-4.119,4.921c-0.075-0.201-0.142-0.397-0.182-0.61c-0.472-2.515,1.353-5.003,4.062-5.565 c1.738-0.352,3.422,0.179,4.529,1.259c0.789,0.667,1.389,1.681,1.607,2.9C58.201,40.924,56.996,43.201,55.061,43.604z"/>
    <path d="M61.66,53l16.484,8.859h0.018c0.512,0.303,1.033,0.598,1.568,0.857c2.521,1.203,5.332,1.871,8.307,1.871 c3.717,0,7.191-1.051,10.135-2.875l-24.76-16.975L61.66,53z"/>
</svg>