<svg xmlns="http://www.w3.org/2000/svg" xmlns:xlink="http://www.w3.org/1999/xlink" version="1.0" x="0px" y="0px" width="56.724px" height="100px" viewBox="0 0 56.724 100" overflow="visible" enable-background="new 0 0 56.724 100" xml:space="preserve">
    <path d="M52.624,31.423l4.1-3.218l-4.137-3.173l3.135-4.167l-4.805-1.989l1.93-4.836l-5.154-0.679l0.617-5.176L43.151,8.88 l-0.723-5.161l-4.838,2.001l-2.031-4.8l-4.131,3.17L28.212,0l-3.154,4.131L20.879,1l-1.991,4.821l-4.837-1.948l-0.675,5.168 L8.202,8.416l0.686,5.173l-5.171,0.716l2.004,4.821l-4.795,2.045l3.183,4.134L0,28.518l4.139,3.172l-3.125,4.167l4.819,1.995 l-1.95,4.821l5.168,0.684l-0.631,5.185l5.169-0.702l0.042,0.285l-0.105-0.018L1.915,95.232l13.408-8.9l8.504,13.672 l7.068-40.058c0.105-0.626,0.693-1.044,1.316-0.94c0.623,0.102,1.043,0.693,0.943,1.332c0,0.004-0.004,0.012-0.004,0.012 l-3.947,22.164l3.619,17.49l8.494-13.672l13.434,8.9l-11.186-47.53l4.971,0.614l-0.684-5.177l5.152-0.727l-1.98-4.825 l4.785-2.045L52.624,31.423z M28.432,43.914c-8.592,0-15.561-6.969-15.561-15.557c0-8.601,6.969-15.567,15.561-15.567 c8.59,0,15.561,6.966,15.561,15.567C43.993,36.945,37.022,43.914,28.432,43.914z"/>
    <path d="M17.728,24.622c0-4.83,4.777-8.742,10.662-8.742c2.946,0,5.631,0.979,7.538,2.564c3.062,2.179,5.092,5.972,5.092,10.301 c0,6.774-4.945,12.262-11.029,12.262c-0.555,0-1.039-0.086-1.544-0.172c5.394-0.825,9.558-5.903,9.558-12.09 c0-0.109-0.018-0.214-0.031-0.33c-1.736,2.924-5.365,4.969-9.583,4.969C22.505,33.384,17.728,29.463,17.728,24.622z"/>
</svg>