<svg xmlns:x="http://ns.adobe.com/Extensibility/1.0/" xmlns:i="http://ns.adobe.com/AdobeIllustrator/10.0/" xmlns:graph="http://ns.adobe.com/Graphs/1.0/" xmlns="http://www.w3.org/2000/svg" xmlns:xlink="http://www.w3.org/1999/xlink" version="1.1" id="Layer_1" x="0px" y="0px" width="69.162px" height="67.667px" viewBox="0 27.167 69.162 67.667" enable-background="new 0 27.167 69.162 67.667" xml:space="preserve">

	<g>
		<path d="M36.642,92.931c0,0-1.043-0.102-1.043-2.18v-0.189c0-2.046,1.043-2.185,1.043-2.185h21.284c0,0,1.047,0.189,1.047,2.185    v0.189c0,1.995-1.047,2.18-1.047,2.18H36.642z"/>
		<path d="M51.43,45.079c2.6,0,4.714-2.139,4.714-4.772c0-2.629-2.114-4.753-4.714-4.753c-2.601,0-4.716,2.124-4.716,4.753    C46.714,42.939,48.83,45.079,51.43,45.079z"/>
		<path d="M25.849,86.744c-0.223,0.423-0.347,0.899-0.347,1.417c0,1.675,1.349,3.04,3.02,3.04c1.197,0,2.226-0.703,2.716-1.715    l10.29-17.882l-4.273-4.315L25.849,86.744z"/>
		<path d="M46.512,85.941c-0.446,1.015-1.394,1.718-2.498,1.718c-1.526,0-2.77-1.365-2.77-3.039c0-0.522,0.116-1.001,0.319-1.424    l4.129-7.957l-8.051-8.779c-3.09-3.408-0.888-7.091-0.888-7.091l4.334-8.398l-11.495,0.014c-1.271,0-2.282-1.126-2.282-2.503    c0-1.364,1.01-2.49,2.282-2.49h34.793c1.256,0,2.27,1.126,2.27,2.504c0,1.377-1.014,2.489-2.27,2.489H51.114l-6.333,12.168    l6.446,6.991c2.257,2.377,0.796,5.052,0.796,5.052L46.512,85.941z"/>

			<path d="M13.111,76.771c0,0-0.844-0.082-0.844-1.766v-0.153c0-1.656,0.844-1.77,0.844-1.77h17.24c0,0,0.847,0.154,0.847,1.77     v0.153c0,1.616-0.847,1.766-0.847,1.766H13.111z"/>
			<path d="M25.089,38.013c2.105,0,3.818-1.733,3.818-3.866c0-2.13-1.712-3.85-3.818-3.85c-2.106,0-3.82,1.72-3.82,3.85     C21.27,36.279,22.983,38.013,25.089,38.013z"/>
			<path d="M4.369,71.76c-0.18,0.343-0.281,0.729-0.281,1.148c0,1.356,1.092,2.461,2.445,2.461c0.969,0,1.803-0.569,2.2-1.388     l8.334-14.484l-3.461-3.495L4.369,71.76z"/>
			<path d="M21.106,71.11c-0.361,0.821-1.129,1.392-2.023,1.392c-1.236,0-2.244-1.106-2.244-2.463c0-0.423,0.094-0.811,0.259-1.152     l3.344-6.444l-6.521-7.113c-2.502-2.759-0.719-5.742-0.719-5.742l3.51-6.803l-9.31,0.012c-1.029,0-1.848-0.913-1.848-2.028     c0-1.104,0.818-2.017,1.848-2.017h28.182c1.017,0,1.838,0.912,1.838,2.028c0,1.115-0.821,2.017-1.838,2.017H24.833l-5.129,9.855     l5.221,5.662c1.828,1.925,0.645,4.093,0.645,4.093L21.106,71.11z"/>

	</g>


</svg>