<svg xmlns="http://www.w3.org/2000/svg" xmlns:xlink="http://www.w3.org/1999/xlink" version="1.1" id="Layer_1" x="0px" y="0px" width="97.0873786408px" height="100px" viewBox="0 0 100 103.833" enable-background="new 0 0 100 103.833" xml:space="preserve">
<path d="M79.777,57.569l-9.155-9.185c-0.295-0.295-0.771-0.295-1.065,0c-0.294,0.293-0.294,0.771,0.001,1.064l0.017,0.019  l-4.253,10.104c0,0-2.521,0.47-2.803,2.306c-0.167,0.671-1.207,0.606-1.338,0.735c-0.129,0.129-0.239,0.514-0.239,0.514  l-0.309-0.285c-0.422-0.423-1.108-0.423-1.532,0c-0.345,0.346-0.403,0.862-0.185,1.273l-1.682,1.68  c-0.174,0.096-0.41,0.137-0.637-0.106l-2.269-4.028V4.278H54.32c1.135,0,2.055-0.919,2.055-2.054c0-1.136-0.92-2.055-2.055-2.055  H37.539c-1.135,0-2.055,0.919-2.055,2.055c0,1.135,0.919,2.054,2.055,2.054h-0.01v57.429c-4.721,7.606-15.456,27.478-15.457,27.478  c0,0-3.679,5.398-1.226,10.111c2.454,4.712,7.337,4.362,7.337,4.362l35.493-0.011c0,0,4.883,0.293,7.338-4.418  c2.453-4.712-1.228-10.111-1.228-10.111l-8.646-15.359c-0.006-0.047-0.021-0.105-0.057-0.179c-0.353-0.74-0.098-1.35,0.052-1.608  l2.818-2.817c0.41,0.218,0.929,0.159,1.274-0.186c0.423-0.424,0.423-1.109,0-1.533l-0.218-0.218c0,0,0.438-0.03,0.588-0.188  c0.051-0.1,0.063-1.167,0.734-1.336c1.837-0.282,2.309-2.803,2.309-2.803l10.084-4.245c0.293,0.282,0.762,0.278,1.052-0.011  C80.071,58.339,80.071,57.863,79.777,57.569z"/>
</svg>