<svg xmlns="http://www.w3.org/2000/svg" xmlns:xlink="http://www.w3.org/1999/xlink" version="1.1" id="Layer_1" x="0px" y="0px" width="100px" height="100px" viewBox="0 0 100 100" enable-background="new 0 0 100 100" xml:space="preserve">
<path d="M36.64,52.447v3.365c0,3.729,1.878,5.528,4.605,6.913c2.798,1.423,5.875,2.034,9.102,2.034c3.228,0,6.304-0.611,9.102-2.034  c2.727-1.385,4.606-3.185,4.606-6.913l-0.001-3.365l-0.602,0.001c-0.833,2.257-1.814,4.059-4.004,5.171  c-2.798,1.421-5.874,2.032-9.102,2.032c-3.227,0-6.304-0.611-9.102-2.032c-2.19-1.113-3.172-2.916-4.005-5.175L36.64,52.447z"/>
<path d="M71.599,15.649c-1.168-2.759-2.856-5.245-4.942-7.331c-2.087-2.087-4.572-3.776-7.332-4.943  c-2.759-1.167-5.792-1.812-8.977-1.812c-3.184,0-6.217,0.646-8.977,1.812c-2.759,1.167-5.245,2.856-7.332,4.943  c-2.087,2.086-3.775,4.572-4.942,7.331c-1.168,2.76-1.812,5.793-1.812,8.978c0,3.184,0.958,10.275,1.812,13.146  c0.761,2.554,2.208,5.842,4.248,7.331c0.688,0.501,2.63,1.167,3.295,1.699c1.988,2.432,1.878,5.529,4.605,6.914  c2.798,1.422,5.875,2.033,9.102,2.033c3.228,0,6.304-0.611,9.102-2.033c2.728-1.385,2.617-4.482,4.605-6.914  c0.665-0.532,2.609-1.198,3.296-1.699c2.04-1.489,3.487-4.777,4.248-7.331c0.854-2.871,1.812-9.962,1.812-13.146  C73.411,21.442,72.766,18.409,71.599,15.649z M45.83,34.453c0,2.908-2.357,5.265-5.265,5.265c-2.907,0-5.265,0.423-5.265-2.485  V35.36c0-2.908,2.357-5.266,5.265-5.266c2.908,0,5.265-0.422,5.265,2.486V34.453z M53.078,45.672  c-0.189,0.327-0.594,0.53-1.167,0.53c0,0-0.934-0.217-1.564-0.217s-1.563,0.217-1.563,0.217c-0.573,0-0.978-0.203-1.166-0.53  c-0.189-0.328-0.164-0.778,0.124-1.275l0.782-2.049l0.782-2.049c0.286-0.497,0.665-0.744,1.042-0.744  c0.378,0,0.756,0.248,1.042,0.744l0.782,2.049l0.782,2.049C53.24,44.894,53.267,45.344,53.078,45.672z M65.396,37.232  c0,2.908-2.358,2.485-5.266,2.485s-5.266-2.356-5.266-5.265v-1.872c0-2.909,2.358-2.486,5.266-2.486s5.266,2.358,5.266,5.266V37.232  z"/>
<path d="M76.893,86.874c-1.38-0.701-3.069-0.151-3.769,1.229l-16.696-8.485l13.851-7.038c1.238,1.844,3.673,2.534,5.707,1.501  c2.197-1.116,3.073-3.804,1.955-6.001c-0.77-1.514-2.285-2.38-3.871-2.42c0.021-0.467-0.062-0.943-0.29-1.392  c-0.699-1.381-2.388-1.929-3.769-1.229c-1.38,0.701-1.931,2.389-1.227,3.768l-18.783,9.545l-18.783-9.545  c0.701-1.379,0.152-3.066-1.228-3.768c-1.38-0.7-3.068-0.152-3.77,1.229c-0.227,0.448-0.31,0.925-0.289,1.392  c-1.585,0.04-3.101,0.906-3.873,2.42c-1.116,2.197-0.239,4.885,1.957,6.001c2.033,1.033,4.468,0.343,5.708-1.501l13.851,7.039  l-16.696,8.484c-0.703-1.38-2.388-1.93-3.77-1.229c-1.381,0.701-1.93,2.388-1.229,3.769c0.281,0.552,0.723,0.964,1.238,1.223  c-0.647,1.239-0.715,2.753-0.036,4.092c1.116,2.197,3.804,3.072,6,1.957c2.031-1.034,2.913-3.405,2.154-5.495L50,82.883  l18.765,9.536c-0.76,2.09,0.122,4.461,2.153,5.495c2.197,1.115,4.885,0.24,6-1.957c0.68-1.339,0.613-2.853-0.034-4.092  c0.514-0.259,0.956-0.671,1.236-1.223C78.823,89.262,78.273,87.575,76.893,86.874z"/>
</svg>