<svg xmlns="http://www.w3.org/2000/svg" xmlns:xlink="http://www.w3.org/1999/xlink" version="1.1" id="Layer_1" x="0px" y="0px" width="100px" height="100px" viewBox="0 0 100 100" enable-background="new 0 0 100 100" xml:space="preserve">
<path fill="#000000" d="M89.437,36.216L86.253,47.68c-2.004,0.526-3.212,1.952-4.209,3.158c-1.21,1.463-1.971,2.291-3.532,2.291  c-1.562,0-2.323-0.828-3.533-2.291l-1.938,2.361c1.188,1.404,2.718,2.93,5.471,2.93c3.05,0,4.6-1.873,5.844-3.379  c0.258-0.312,0.494-0.589,0.724-0.842l-5.804,20.898H21.727l-5.71-20.562c0.136,0.159,0.276,0.327,0.424,0.506  c1.244,1.505,2.792,3.379,5.841,3.379c3.048,0,4.597-1.874,5.84-3.379c1.208-1.463,1.968-2.291,3.528-2.291s2.319,0.828,3.528,2.291  l1.818-2.502c-1.17-1.363-2.687-2.788-5.346-2.788c-3.048,0-4.597,1.874-5.84,3.379c-1.208,1.462-1.968,2.291-3.528,2.291  c-1.56,0-2.32-0.828-3.529-2.291c-0.961-1.163-2.113-2.536-3.989-3.104l-3.198-11.518l-4.817,1.338l10.669,38.42  c0.3,1.082,1.286,1.832,2.409,1.832h61.349c1.123,0,2.109-0.75,2.409-1.832l10.669-38.42L89.437,36.216z"/>
<path fill="#000000" d="M40.479,59.076c0.045,0.039,0.092,0.078,0.14,0.115c-0.474,0.668-0.7,1.475-0.64,2.304  c0.066,0.946,0.499,1.811,1.217,2.433l0.76,0.659c0.636,0.55,1.458,0.851,2.319,0.851c0.647,0,1.269-0.168,1.806-0.477  c0.081,0.085,0.167,0.168,0.257,0.246l0.762,0.66c0.631,0.549,1.455,0.852,2.318,0.852c1.047,0,2.03-0.441,2.696-1.209l1.123-1.297  c0.04,0.038,0.081,0.075,0.123,0.111l0.76,0.659c0.633,0.549,1.457,0.851,2.318,0.851c1.049,0,2.031-0.439,2.696-1.209l20.23-23.478  l0.64-0.743l-0.195-0.961l-0.992-4.878l-0.14-0.686l-0.537-0.449L66.028,23.297l-1.102-0.921l-1.226,0.75l-8.775,5.367l-0.27,0.165  l-0.205,0.24l-8.785,10.252c-0.615,0.708-0.921,1.626-0.853,2.574c0.066,0.946,0.499,1.811,1.217,2.433l0.643,0.557  c0.042,0.036,0.084,0.071,0.127,0.105l-7.441,8.584c-1.283,1.481-1.123,3.73,0.357,5.014L40.479,59.076z M40.871,54.712  l14.373-16.581l0.125-1.077l-5.193,5.991c-0.294,0.34-0.723,0.535-1.175,0.535c-0.374,0-0.735-0.135-1.017-0.379l-0.644-0.559  c-0.313-0.271-0.502-0.649-0.531-1.063c-0.03-0.415,0.104-0.815,0.376-1.13l8.784-10.252l8.776-5.367l12.111,10.132l0.993,4.878  L57.621,63.316c-0.295,0.342-0.739,0.518-1.184,0.518c-0.363,0-0.727-0.118-1.008-0.361l-0.761-0.66  c-0.647-0.561-0.718-1.545-0.157-2.193l8.535-9.845l-0.488-0.368L50.602,64.2c-0.296,0.342-0.741,0.519-1.184,0.519  c-0.364,0-0.728-0.119-1.008-0.363l-0.761-0.659c-0.647-0.562-0.717-1.544-0.156-2.192l11.771-13.579l-0.488-0.368L45.458,62.919  c-0.295,0.342-0.74,0.519-1.184,0.519c-0.364,0-0.728-0.119-1.009-0.361l-0.761-0.66c-0.313-0.271-0.502-0.649-0.532-1.064  c-0.03-0.414,0.104-0.815,0.375-1.129l13.131-15.147l-0.488-0.368L43.981,57.408c-0.296,0.342-0.741,0.518-1.186,0.518  c-0.364,0-0.727-0.118-1.007-0.361l-0.761-0.66C40.38,56.344,40.31,55.359,40.871,54.712z"/>
</svg>