<?xml version="1.0" encoding="utf-8"?>
<!-- Generator: Adobe Illustrator 14.0.0, SVG Export Plug-In . SVG Version: 6.00 Build 43363)  -->
<!DOCTYPE svg PUBLIC "-//W3C//DTD SVG 1.0//EN" "http://www.w3.org/TR/2001/REC-SVG-20010904/DTD/svg10.dtd">
<svg version="1.0" id="Layer_1" xmlns="http://www.w3.org/2000/svg" xmlns:xlink="http://www.w3.org/1999/xlink" x="0px" y="0px"
	 width="100px" height="54.085px" viewBox="0 0 100 54.085" enable-background="new 0 0 100 54.085" xml:space="preserve">
<path d="M82.383,18.853c-3.079,0-5.974,0.799-8.495,2.193c-1.587-2.38-3.173-4.76-4.76-7.14c0.711-1.222,1.423-2.443,2.134-3.665
	c1.024,0.452,2.049,0.903,3.074,1.354c0.748,0.33,1.68-0.045,1.68-0.964c0-1.722,0-3.443,0-5.165c0-0.306-0.114-0.533-0.273-0.708
	c-0.02-0.026-0.035-0.053-0.058-0.078c-0.023-0.021-0.05-0.037-0.075-0.056c-0.176-0.16-0.403-0.274-0.71-0.274
	c-3.909,0-7.817,0-11.727,0c-1.038,0-1.622,1.614-0.564,2.08c1.972,0.868,3.94,1.736,5.91,2.604
	c-0.726,1.247-1.451,2.494-2.178,3.741c-11.118,0-22.234,0-33.351,0c1.011-1.507,2.104-3.275,1.281-4.771
	c-0.469-0.853-0.898-1.725-1.32-2.602c-0.325-0.672-0.607-1.36-0.845-2.067c-0.056-0.153-0.074-0.268-0.067-0.359h2.326
	c1.954,0,3.908,0,5.862,0c0.806,0,1.612,0,2.419,0c1.919,0,1.919-2.977,0-2.977c-3.325,0-6.649,0-9.975,0
	c-2.041,0-3.713-0.002-3.803,2.397c-0.081,2.159,1.614,4.789,2.574,6.628c0.028,0.053,0.051,0.091,0.077,0.136
	c-0.246,0.431-0.493,0.861-0.738,1.291c-1.917,3.353-3.835,6.706-5.752,10.058c-2.256-1.052-4.762-1.657-7.412-1.657
	C7.903,18.853,0,26.756,0,36.469c0,9.713,7.903,17.616,17.617,17.616c9.713,0,17.616-7.903,17.616-17.616
	c0-6-3.021-11.304-7.617-14.486c0.779-1.362,1.558-2.725,2.336-4.086c6.568,5.317,13.135,10.636,19.703,15.953
	c-0.682,0.899-1.102,2.009-1.102,3.224c0,2.963,2.402,5.366,5.365,5.366c0.172,0,0.336-0.035,0.504-0.052l0.002,0.027l10.993-1.265
	c2.058,7.444,8.875,12.935,16.965,12.935c9.715,0,17.617-7.903,17.617-17.616C100,26.756,92.098,18.853,82.383,18.853z
	 M32.256,36.469c0,8.071-6.567,14.64-14.64,14.64c-8.073,0-14.64-6.568-14.64-14.64c0-8.072,6.567-14.64,14.64-14.64
	c2.112,0,4.117,0.459,5.932,1.268c-2.032,3.553-4.064,7.106-6.097,10.66c-1.429,0.087-2.564,1.262-2.564,2.712
	c0,1.508,1.222,2.729,2.729,2.729c1.506,0,2.729-1.221,2.729-2.729c0-0.446-0.118-0.861-0.308-1.233
	c2.03-3.552,4.061-7.103,6.091-10.653C29.832,27.242,32.256,31.574,32.256,36.469z M73.073,25.181
	c1.841,2.763,3.684,5.526,5.525,8.29l-10.353-0.739C69.04,29.732,70.747,27.103,73.073,25.181z M65.23,32.516l-6.657-0.476
	c2.963-5.091,5.926-10.182,8.891-15.273c1.319,1.979,2.638,3.958,3.958,5.937C68.361,25.145,66.138,28.58,65.23,32.516z
	 M55.264,31.805l-1.345-0.096c-0.632,0-1.231,0.13-1.795,0.33c-6.705-5.429-13.411-10.858-20.116-16.288c10.867,0,21.732,0,32.6,0
	C61.493,21.104,58.378,26.454,55.264,31.805z M82.383,51.109c-6.562,0-12.13-4.342-13.983-10.302l13.983-1.609
	c1.507,0,2.729-1.221,2.729-2.729c0-1.506-1.222-2.729-2.729-2.729l-0.033-0.002c-2.268-3.4-4.535-6.802-6.803-10.204
	c2.043-1.084,4.367-1.704,6.836-1.704c8.073,0,14.64,6.567,14.64,14.64C97.023,44.541,90.457,51.109,82.383,51.109z"/>
</svg>
