<svg xmlns="http://www.w3.org/2000/svg" xmlns:xlink="http://www.w3.org/1999/xlink" version="1.1" id="Layer_1" x="0px" y="0px" width="45.283px" height="100px" viewBox="0 0 45.283 100" enable-background="new 0 0 45.283 100" xml:space="preserve">
<path fill="#000000" d="M33.345,57.404V10.703C33.345,4.792,28.553,0,22.643,0C16.73,0,11.938,4.792,11.938,10.703v46.7  C4.833,61.223,0,68.726,0,77.357C0,89.862,10.137,100,22.642,100s22.642-10.138,22.642-22.643  C45.283,68.726,40.451,61.224,33.345,57.404z M17.141,35.86c-0.828,0-1.5-0.671-1.5-1.5s0.672-1.5,1.5-1.5h4.001v-6.5h-4.001  c-0.828,0-1.5-0.671-1.5-1.5s0.672-1.5,1.5-1.5h4.001v-6.5h-4.001c-0.828,0-1.5-0.671-1.5-1.5s0.672-1.5,1.5-1.5h4.001v-4  c0-0.829,0.672-1.5,1.5-1.5s1.5,0.671,1.5,1.5v4h4.001c0.828,0,1.5,0.671,1.5,1.5s-0.672,1.5-1.5,1.5h-4.001v6.5h4.001  c0.828,0,1.5,0.671,1.5,1.5s-0.672,1.5-1.5,1.5h-4.001v6.5h4.001c0.828,0,1.5,0.671,1.5,1.5s-0.672,1.5-1.5,1.5h-4.001v6.5h4.001  c0.828,0,1.5,0.671,1.5,1.5s-0.672,1.5-1.5,1.5h-4.001V50c0,0.829-0.672,1.5-1.5,1.5s-1.5-0.671-1.5-1.5v-4.64h-4.001  c-0.828,0-1.5-0.671-1.5-1.5s0.672-1.5,1.5-1.5h4.001v-6.5H17.141z M36.477,88.229c-5.458,6.994-15.552,8.239-22.546,2.78  c-0.8-0.624-0.8-0.624-0.8-0.624c-0.75-0.784,1.316-1.106,4.594-0.716c0,0,9.239,1.102,14.073-5.092  c4.833-6.193,1.521-14.889,1.521-14.889c-1.176-3.083-1.365-5.167-0.422-4.631c0,0,0,0,0.8,0.625  C40.691,71.142,41.936,81.234,36.477,88.229z"/>
</svg>