<svg xmlns="http://www.w3.org/2000/svg" xmlns:xlink="http://www.w3.org/1999/xlink" version="1.1" id="Layer_1" x="0px" y="0px" width="95.574px" height="100px" viewBox="0 0 95.574 100" enable-background="new 0 0 95.574 100" xml:space="preserve">
<path fill="#000000" d="M50.644,2.894V2.857C50.644,1.279,49.365,0,47.787,0S44.93,1.279,44.93,2.857v0.04  C21.211,4.301,2.131,22.916,0,46.433c2.26-4.089,6.613-6.862,11.616-6.862c5.404,0,10.043,3.236,12.112,7.872  c2.068-4.636,6.708-7.872,12.112-7.872c3.524,0,6.717,1.382,9.09,3.624v41.092c0,5.514-4.486,10-10,10c-5.514,0-10-4.486-10-10  c0-1.579-1.279-2.857-2.857-2.857c-1.578,0-2.857,1.278-2.857,2.857C19.216,92.95,26.265,100,34.93,100  c8.665,0,15.714-7.05,15.714-15.714V43.511c2.402-2.431,5.732-3.94,9.421-3.94c5.404,0,10.044,3.236,12.112,7.872  c2.069-4.636,6.709-7.872,12.112-7.872c4.775,0,8.949,2.531,11.285,6.318C93.2,22.613,74.201,4.267,50.644,2.894z"/>
</svg>