<?xml version="1.0" encoding="utf-8"?>
<!-- Generator: Adobe Illustrator 14.0.0, SVG Export Plug-In . SVG Version: 6.00 Build 43363)  -->
<!DOCTYPE svg PUBLIC "-//W3C//DTD SVG 1.0//EN" "http://www.w3.org/TR/2001/REC-SVG-20010904/DTD/svg10.dtd">
<svg version="1.0" id="Layer_1" xmlns="http://www.w3.org/2000/svg" xmlns:xlink="http://www.w3.org/1999/xlink" x="0px" y="0px"
	 width="100px" height="54.655px" viewBox="0 0 100 54.655" enable-background="new 0 0 100 54.655" xml:space="preserve">
<path d="M71.168,21.286c3.511-2.633,7.151-3.069,10.786-3.61l14.305-0.048l-0.097-4.989H64.325
	c-1.202,0.466-2.062,1.229-1.378,3.326L71.168,21.286z"/>
<path d="M82.366,19.385c-9.141,0.001-16.655,6.952-17.548,15.858l-11.424,0.668c-4.157,0.168-6.82-3.96-6.15-6.276
	c0.581-2.006,1.04-3.899,0.486-6.241l-6.643-9.456c-0.736-0.911-1.471-1.021-2.206-1.245l-8.494-0.008l2.167-5.292
	c0.635-1.797,1.397-2.437,2.411-2.34h8.294L43.307,0h-8.602c-2.791,0.198-4.928,1.703-6.451,4.435c0,0-3.146,7.667-6.32,15.42
	c-1.376-0.345-2.816-0.529-4.298-0.529C7.895,19.328,0.002,27.221,0,36.962c0.002,9.741,7.895,17.634,17.636,17.636
	c9.74-0.002,17.634-7.895,17.635-17.636c-0.001-6.446-3.459-12.082-8.62-15.159l2.424-5.917c1.309,2.622,3.349,4.774,8.916,12.813
	c4.298,6.208,8.254,11.942,15.175,12.153l11.988,0.014c1.755,7.89,8.793,13.786,17.213,13.788
	c9.74-0.002,17.633-7.895,17.634-17.635C99.999,27.279,92.106,19.387,82.366,19.385z M30.331,36.962
	c-0.001,3.513-1.417,6.672-3.718,8.977c-2.306,2.302-5.464,3.718-8.978,3.719c-3.514-0.001-6.672-1.417-8.977-3.719
	c-2.301-2.305-3.718-5.464-3.719-8.977c0.001-3.514,1.418-6.672,3.719-8.978c2.305-2.301,5.463-3.717,8.977-3.718
	c0.822,0,1.624,0.08,2.401,0.229c-2.431,5.946-4.484,10.984-4.591,11.304c-1.224,3.943,3.394,4.941,4.61,2.104l4.694-11.458
	c0.668,0.454,1.292,0.968,1.864,1.539C28.915,30.29,30.33,33.448,30.331,36.962z M91.344,45.997
	c-2.307,2.302-5.465,3.718-8.978,3.719c-3.515-0.001-6.673-1.417-8.978-3.719c-1.42-1.422-2.501-3.17-3.123-5.124l16.041,0.02
	l0.078-6.91l-16.544,0.967c0.438-2.678,1.708-5.064,3.548-6.906c2.305-2.302,5.463-3.717,8.978-3.719
	c3.513,0.001,6.671,1.417,8.978,3.719c2.301,2.305,3.716,5.464,3.718,8.978C95.06,40.533,93.645,43.692,91.344,45.997z"/>
</svg>
