<svg xmlns="http://www.w3.org/2000/svg" xmlns:xlink="http://www.w3.org/1999/xlink" version="1.0" x="0px" y="0px" width="85.039px" height="100px" viewBox="0 0 85.039 100" overflow="visible" enable-background="new 0 0 85.039 100" xml:space="preserve">
    <path d="M71.018,0H14.017C6.275,0,0,6.27,0,14.017v71.996v0.005c0,7.741,6.275,14.017,14.017,14.017h57.001 c7.747,0,14.021-6.275,14.021-14.017v-0.005V14.017C85.039,6.27,78.765,0,71.018,0z M26.545,85.539 c0,1.918-1.558,3.477-3.481,3.477H13.2c-1.923,0-3.481-1.559-3.481-3.477v-3.486c0-1.918,1.558-3.476,3.481-3.476h9.864 c1.923,0,3.481,1.558,3.481,3.476V85.539z M26.545,67.327c0,1.923-1.558,3.481-3.481,3.481H13.2 c-1.923,0-3.481-1.559-3.481-3.481v-3.481c0-1.918,1.558-3.481,3.481-3.481h9.864c1.923,0,3.481,1.563,3.481,3.481V67.327z M26.545,49.114c0,1.923-1.558,3.487-3.481,3.487H13.2c-1.923,0-3.481-1.563-3.481-3.487v-3.476 c0-1.923,1.558-3.481,3.481-3.481h9.864c1.923,0,3.481,1.558,3.481,3.481V49.114z M50.699,85.539 c0,1.918-1.563,3.477-3.481,3.477h-9.858c-1.929,0-3.487-1.559-3.487-3.477v-3.486c0-1.918,1.558-3.476,3.487-3.476h9.858 c1.918,0,3.481,1.558,3.481,3.476V85.539z M50.699,67.327c0,1.923-1.563,3.481-3.481,3.481h-9.858 c-1.929,0-3.487-1.559-3.487-3.481v-3.481c0-1.918,1.558-3.481,3.487-3.481h9.858c1.918,0,3.481,1.563,3.481,3.481V67.327z M50.699,49.114c0,1.923-1.563,3.487-3.481,3.487h-9.858c-1.929,0-3.487-1.563-3.487-3.487v-3.476 c0-1.923,1.558-3.481,3.487-3.481h9.858c1.918,0,3.481,1.558,3.481,3.481V49.114z M74.854,85.539 c0,1.918-1.559,3.477-3.481,3.477h-9.858c-1.924,0-3.481-1.559-3.481-3.477v-3.486c0-1.918,1.558-3.476,3.481-3.476h9.858 c1.923,0,3.481,1.558,3.481,3.476V85.539z M74.854,67.327c0,1.923-1.559,3.481-3.481,3.481h-9.858 c-1.924,0-3.481-1.559-3.481-3.481v-3.481c0-1.918,1.558-3.481,3.481-3.481h9.858c1.923,0,3.481,1.563,3.481,3.481V67.327z M74.854,49.114c0,1.923-1.559,3.487-3.481,3.487h-9.858c-1.924,0-3.481-1.563-3.481-3.487v-3.476 c0-1.923,1.558-3.481,3.481-3.481h9.858c1.923,0,3.481,1.558,3.481,3.481V49.114z M74.982,30.263 c0,1.923-1.559,3.481-3.481,3.481H13.2c-1.923,0-3.481-1.558-3.481-3.481V14.892c0-1.923,1.558-3.481,3.481-3.481h58.301 c1.923,0,3.481,1.558,3.481,3.481V30.263z"/>
</svg>