<svg xmlns="http://www.w3.org/2000/svg" xmlns:xlink="http://www.w3.org/1999/xlink" version="1.0" x="0px" y="0px" width="33.728px" height="100px" viewBox="0 0 33.728 100" overflow="visible" enable-background="new 0 0 33.728 100" xml:space="preserve">
    <path d="M24.788,0l-0.004,12.807l-7.922,4.574L8.941,12.81V0C3.621,2.836,0,8.438,0,14.892c0,2.887,0.728,5.399,2.013,7.494 c1.415,2.435,3.837,4.459,6.874,5.762v63.728c0,4.403,3.571,7.976,7.975,7.976c4.408,0,7.976-3.572,7.976-7.976V28.147 c2.998-1.285,5.403-3.282,6.827-5.685c1.314-2.107,2.062-4.648,2.062-7.574C33.728,8.438,30.102,2.836,24.788,0z M15.683,95.574c-1.69-0.767-2.425-2.761-1.668-4.448c0.767-1.685,2.76-2.434,4.45-1.667c1.688,0.783,2.436,2.761,1.666,4.448 C19.366,95.604,17.368,96.349,15.683,95.574z"/>
</svg>