<svg xmlns="http://www.w3.org/2000/svg" xmlns:xlink="http://www.w3.org/1999/xlink" version="1.1" id="Layer_2" x="0px" y="0px" width="59.880239521px" height="100px" viewBox="0 0 100 167.876" enable-background="new 0 0 100 167.876" xml:space="preserve">
<path d="M88.638,15.523c-0.345-0.938-1.066-1.653-1.953-2.019V10.91c0-6.273-9.749-10.083-14.037-10.083H22.626  c-4.563,0-13.291,3.926-13.291,10.083v3.381c-0.333,0.342-0.605,0.75-0.78,1.216C8.153,16.586-1.215,42.295,5.37,74.355  c3.472,16.904,6.651,26.774,8.972,33.98c2.074,6.439,3.445,10.694,4.01,16.396c1.244,12.519,0,36.192-0.012,36.431  c-0.051,0.959,0.294,1.897,0.955,2.595s1.58,1.092,2.54,1.092h53.518c0.961,0,1.879-0.395,2.54-1.092s1.006-1.636,0.955-2.595  c-0.013-0.237-1.254-23.912-0.013-36.431c0.563-5.671,2.045-10.255,4.096-16.599c2.354-7.286,5.579-17.265,8.893-33.795  C98.252,42.267,89.033,16.6,88.638,15.523z M14.335,10.91c0-2.145,5.289-5.083,8.291-5.083h50.021c3.112,0,9.037,3.038,9.037,5.083  v2.32h-67.35V10.91z M25.502,157.85c0.033-0.792,0.069-1.695,0.104-2.684h45.976c0.035,0.988,0.071,1.892,0.104,2.684H25.502z   M25.796,68.905v-3h8.548c0.095,1.032,0.262,2.035,0.496,3H25.796z M39.245,63.9c0-6.784,4.186-12.285,9.35-12.285  c5.162,0,9.348,5.501,9.348,12.285c0,6.785-4.186,12.286-9.348,12.286C43.431,76.187,39.245,70.686,39.245,63.9z M72.774,68.905  h-10.45c0.243-0.967,0.414-1.971,0.514-3h9.937V68.905z M11.319,34.354c0.963-6.506,2.259-11.44,3.061-14.124H82.8  c0.795,2.687,2.076,7.617,3.028,14.124H11.319z"/>
</svg>