<svg xmlns="http://www.w3.org/2000/svg" xmlns:xlink="http://www.w3.org/1999/xlink" version="1.1" id="Layer_1" x="0px" y="0px" width="22px" height="23px" viewBox="0 0 22 23" enable-background="new 0 0 22 23" xml:space="preserve">
<g>
	<path d="M14,11c0-1.654-1.346-3-3-3s-3,1.346-3,3s1.346,3,3,3S14,12.654,14,11z M10,11c0-0.552,0.449-1,1-1s1,0.448,1,1   s-0.449,1-1,1S10,11.552,10,11z"/>
	<path d="M11,0C4.935,0,0,4.935,0,11c0,3.44,1.565,6.618,4.293,8.719c0.182,0.141,0.396,0.208,0.61,0.208   c0.299,0,0.596-0.134,0.793-0.39c0.337-0.438,0.255-1.065-0.182-1.402C3.281,16.415,2,13.814,2,11c0-4.963,4.038-9,9-9   c4.963,0,9,4.037,9,9c0,2.813-1.28,5.414-3.513,7.135c-0.438,0.337-0.519,0.965-0.182,1.402c0.337,0.438,0.966,0.52,1.402,0.182   C20.436,17.616,22,14.438,22,11C22,4.935,17.065,0,11,0z"/>
	<path d="M11,4.25c-3.722,0-6.75,3.028-6.75,6.75c0,2.11,0.96,4.061,2.634,5.351c0.329,0.254,0.799,0.192,1.052-0.136   c0.252-0.328,0.192-0.799-0.136-1.052C6.497,14.159,5.75,12.642,5.75,11c0-2.895,2.355-5.25,5.25-5.25   c2.895,0,5.25,2.355,5.25,5.25c0,1.642-0.747,3.159-2.049,4.163c-0.328,0.253-0.389,0.724-0.137,1.052   c0.148,0.191,0.37,0.292,0.595,0.292c0.159,0,0.321-0.051,0.458-0.156c1.673-1.29,2.633-3.24,2.633-5.351   C17.75,7.278,14.723,4.25,11,4.25z"/>
	<path d="M12,16c-0.226-0.604-0.448-1-1-1s-0.85,0.472-1,1l-2,6c-0.234,0.531,0.448,1,1,1h4c0.553,0,1.219-0.516,1-1L12,16z"/>
</g>
</svg>