<?xml version="1.0" encoding="utf-8"?>
<!-- Generator: Adobe Illustrator 14.0.0, SVG Export Plug-In . SVG Version: 6.00 Build 43363)  -->
<!DOCTYPE svg PUBLIC "-//W3C//DTD SVG 1.0//EN" "http://www.w3.org/TR/2001/REC-SVG-20010904/DTD/svg10.dtd">
<svg version="1.0" id="Layer_1" xmlns="http://www.w3.org/2000/svg" xmlns:xlink="http://www.w3.org/1999/xlink" x="0px" y="0px"
	 width="99.828px" height="41.205px" viewBox="0 0 99.828 41.205" enable-background="new 0 0 99.828 41.205" xml:space="preserve">
<path id="path2003" d="M74.303,25.115c-4.128,0-7.843,6.604-7.843,10.267h2.723c0.482-8.412,9.822-9.364,12.7-5.619l-0.01,0.342
	h2.723l-0.009-0.342c2.877-3.745,12.218-2.793,12.699,5.619H100c0-3.662-3.715-10.267-7.843-10.267H74.303z"/>
<path id="path2010" d="M82.438,35.158c0,3.334-2.697,6.039-6.031,6.047c-3.333,0.009-6.044-2.683-6.061-6.016s2.667-6.052,6-6.076
	c3.333-0.026,6.058,2.651,6.092,5.985"/>
<path id="path2012" d="M95.781,35.158c0,3.334-2.698,6.039-6.031,6.047c-3.334,0.009-6.046-2.683-6.062-6.016
	s2.668-6.052,6.001-6.076c3.334-0.026,6.059,2.651,6.093,5.985"/>
<path id="path2014" d="M18.652,35.158c0,3.334-2.698,6.039-6.031,6.047c-3.333,0.009-6.045-2.683-6.062-6.016
	s2.668-6.052,6.001-6.076c3.333-0.026,6.058,2.651,6.092,5.985"/>
<path id="path2016" d="M42.487,35.158c0,3.334-2.697,6.039-6.031,6.047c-3.333,0.009-6.044-2.683-6.061-6.016s2.667-6.052,6-6.076
	c3.334-0.026,6.059,2.651,6.092,5.985"/>
<path id="path2018" d="M26.633,0l-0.017,23.283l73.212-0.018V0.08L26.633,0z"/>
<path d="M38.909,25.08H20.008l0.097-19.255L5.329,5.775L0,20.052v13.573c0,0.945,0.613,1.81,1.71,1.81h3.015
	c2.289-9.117,11.077-10.472,14.981-2.815h9.652c4.303-7.276,14.184-5.93,14.68,2.727h2.714C46.752,31.685,43.038,25.08,38.909,25.08
	z M1.784,19.209L5.374,9.13l9.072-0.028l0.028,8.766L1.784,19.209z"/>
</svg>
