<svg xmlns="http://www.w3.org/2000/svg" xmlns:xlink="http://www.w3.org/1999/xlink" version="1.1" id="Layer_1" x="0px" y="0px" width="45.097px" height="67.184px" viewBox="0 0 45.097 67.184" enable-background="new 0 0 45.097 67.184" xml:space="preserve">
<g>
	<path fill-rule="evenodd" clip-rule="evenodd" d="M45.097,37.42h-7.936V20.13l-3.12-3.12v-3.404L14.877,32.713   c-0.77,0.77-1.246,1.833-1.246,3.006l-0.025,27.213c0,2.348,1.904,4.252,4.252,4.252h27.238V37.42L45.097,37.42z M34.835,37.42   l-0.079-16.294l-2.405-2.405L16.681,34.517c-0.308,0.308-0.499,0.733-0.499,1.203c0,0.939,0.762,1.701,1.701,1.701H34.835   L34.835,37.42z M27.952,14.324l-2.408-2.409L9.878,27.713C9.57,28.021,9.38,28.446,9.38,28.916c0,0.939,0.762,1.701,1.701,1.701   c0.47,0,0.895-0.19,1.203-0.498L27.952,14.324L27.952,14.324z M29.646,12.616l-2.408-2.408V6.803L8.074,25.91   c-0.77,0.77-1.246,1.833-1.246,3.006L6.803,56.128c0,2.348,1.904,4.252,4.252,4.252c0.292,0,0.578-0.029,0.853-0.085l0.023-24.576   c0-1.644,0.667-3.132,1.744-4.209l17.666-17.613v-2.989L29.646,12.616L29.646,12.616z M21.149,7.521l-2.408-2.409L3.075,20.91   c-0.308,0.308-0.498,0.733-0.498,1.203c0,0.939,0.762,1.701,1.701,1.701c0.47,0,0.895-0.19,1.203-0.498L21.149,7.521L21.149,7.521z    M22.843,5.813l-2.409-2.409V0L1.271,19.106c-0.77,0.77-1.246,1.833-1.246,3.006L0,49.326c0,2.348,1.904,4.252,4.252,4.252   c0.292,0,0.578-0.029,0.853-0.086l0.023-24.576c0-1.644,0.666-3.132,1.744-4.209L24.537,7.094V4.105L22.843,5.813L22.843,5.813z    M39.144,50.176c-1.409,0-2.551,1.142-2.551,2.551s1.142,2.551,2.551,2.551s2.551-1.142,2.551-2.551S40.553,50.176,39.144,50.176   L39.144,50.176z"/>
</g>
</svg>