<svg xmlns="http://www.w3.org/2000/svg" xmlns:xlink="http://www.w3.org/1999/xlink" version="1.1" id="Layer_1" x="0px" y="0px" width="100.0px" height="100px" viewBox="559 205 110 110" enable-background="new 559 205 110 110" xml:space="preserve">
<path d="M639.772,264.472c0.004,0,0.01-0.005,0.014-0.005c4.791-1.438,9.77-3.389,14.545-5.995c7.666-4.46,11.586,0.169,8.744,7.176  c-2.424,6.631-15.322,18.969-26.562,21.781c-4.307-3.039-12.758-5.118-22.512-5.156c-9.755,0.038-18.21,2.117-22.511,5.158  c-11.242-2.814-24.14-15.152-26.563-21.783c-2.842-7.006,1.078-11.636,8.743-7.176c4.794,2.617,9.769,4.568,14.554,6.014  c10.296,3.101,19.735,3.863,24.681,3.868l2.715-0.005C620.559,268.293,629.764,267.478,639.772,264.472z"/>
<g id="XMLID_1_">
	<path d="M625.877,233.302c4.008,2.006,10.529,20.86,13.062,28.592c-9.684,2.809-18.522,3.575-23.322,3.632l-2.713,0.005   c-4.815-0.005-13.876-0.725-23.849-3.623c2.528-7.722,9.054-26.596,13.067-28.605c4.598-2.301,8.541,1.505,11.718,1.883h-0.612   c0.249,0.033,0.508,0.037,0.77,0.013c0.264,0.023,0.524,0.02,0.773-0.013h-0.613C617.336,234.807,621.274,231.001,625.877,233.302z    M624.309,247.939c0-0.836-0.678-1.515-1.514-1.515c-0.77,0-1.402,0.571-1.502,1.312l-4.667-0.679l-2.058-4.166   c0.553-0.225,0.943-0.769,0.943-1.404c0-0.836-0.679-1.515-1.515-1.515s-1.515,0.679-1.515,1.515c0,0.64,0.397,1.187,0.957,1.409   l-2.055,4.161l-4.682,0.68c-0.098-0.741-0.733-1.314-1.501-1.314c-0.836,0-1.515,0.679-1.515,1.515   c0,0.837,0.679,1.515,1.515,1.515c0.514,0,0.97-0.256,1.243-0.648l3.322,3.239l-0.835,4.867c-0.186-0.08-0.389-0.125-0.602-0.125   c-0.837,0-1.515,0.679-1.515,1.515s0.678,1.515,1.515,1.515c0.836,0,1.515-0.679,1.515-1.515c0-0.314-0.096-0.607-0.263-0.851   l4.425-2.328l4.412,2.322c-0.168,0.243-0.266,0.538-0.266,0.856c0,0.836,0.679,1.515,1.516,1.515c0.836,0,1.516-0.679,1.516-1.515   s-0.68-1.515-1.516-1.515c-0.209,0-0.406,0.043-0.589,0.119l-0.835-4.86l3.314-3.231c0.272,0.389,0.727,0.641,1.236,0.641   C623.631,249.454,624.309,248.776,624.309,247.939z"/>
</g>
</svg>