<svg xmlns="http://www.w3.org/2000/svg" xmlns:xlink="http://www.w3.org/1999/xlink" version="1.1" id="Ebene_2" x="0px" y="0px" width="89.516px" height="82.111px" viewBox="0 0 89.516 82.111" enable-background="new 0 0 89.516 82.111" xml:space="preserve">
<path fill="#000000" d="M89.515,79.417V27.232c0-1.487-1.27-2.693-2.834-2.693H72.062L23.606,6.955  c0.071-0.363,0.11-0.738,0.11-1.122C23.716,2.612,21.105,0,17.883,0S12.05,2.612,12.05,5.833s2.611,5.833,5.833,5.833  c2.004,0,3.772-1.012,4.822-2.552l40.401,15.424H2.834C1.269,24.538,0,25.744,0,27.232v52.186c0,1.488,1.269,2.694,2.834,2.693  h83.848C88.246,82.111,89.516,80.905,89.515,79.417L89.515,79.417z M78.193,67.786h-43c-0.829,0-1.5-0.896-1.5-1.999  c0-1.104,0.671-1.998,1.5-1.998h43c0.828,0,1.5,0.894,1.5,1.998C79.693,66.891,79.021,67.786,78.193,67.786z M78.193,58.797h-43  c-0.829,0-1.5-0.896-1.5-1.999c0-1.104,0.671-1.998,1.5-1.998h43c0.828,0,1.5,0.895,1.5,1.998S79.021,58.797,78.193,58.797z   M78.193,49.811h-43c-0.829,0-1.5-0.895-1.5-2c0-1.104,0.671-1.998,1.5-1.998h43c0.828-0.001,1.5,0.895,1.5,1.998  C79.693,48.916,79.021,49.811,78.193,49.811z"/>
</svg>