<svg xmlns="http://www.w3.org/2000/svg" xmlns:xlink="http://www.w3.org/1999/xlink" xml:space="preserve" width="99px" height="57px" style="shape-rendering:geometricPrecision; text-rendering:geometricPrecision; image-rendering:optimizeQuality; fill-rule:evenodd; clip-rule:evenodd" viewBox="0 0 65.4087 37.5627">
 <defs>
  <style type="text/css">
   
    .fil0 {fill:black}
   
  </style>
 </defs>
 <g id="Layer_x0020_1">
  <metadata id="CorelCorpID_0Corel-Layer"/>
  <path class="fil0" d="M2.84696 3.07074c0.0918496,0.553889 0.180623,1.11175 0.263435,1.67241 0.643704,4.35682 0.929379,8.88371 -0.487593,13.0439 -1.26758,3.72168 -2.42694,7.31498 -2.19871,11.2255 -0.0362004,0.811219 -0.28894,1.23715 -0.346104,2.07402 -0.0346388,0.507231 -0.0562644,1.00381 -0.0687097,1.40405 -0.0343075,1.06628 0.0254586,1.35356 0.206034,2.15366 0.0771801,0.346435 0.225625,0.476993 0.446424,0.594585 2.31616,1.30052 7.56678,1.88867 11.1193,1.74235 0.863414,-0.0355852 1.62537,-0.0670062 2.20013,-0.071407 0.00742936,0.000141962 0.0149534,0.000189283 0.0224774,-9.46415e-005 2.85604,-0.106424 6.9394,-0.16832 10.8813,-0.136662 3.22278,0.0259318 6.35877,0.114942 8.65936,0.294146l4.73207e-005 -0.000567849c2.42221,0.24479 4.32308,0.379418 6.21123,0.44472 1.88228,0.0651133 3.75041,0.0609491 6.11233,0.0284398 3.19571,0.0391816 6.85867,-0.460336 10.1593,-1.16783 3.73744,-0.80114 7.02964,-1.87542 8.66911,-2.7412 0.472781,-0.233197 0.563069,-0.566997 0.624634,-0.906523 0.0820542,-0.721641 0.119012,-1.47967 0.0555072,-2.30996 -0.065208,-0.851584 -0.235799,-1.77822 -0.571303,-2.8179 -0.100509,-0.298026 -0.294382,-0.725758 -0.725332,-1.02123 -2.3207,-1.67269 -5.45599,-1.30421 -8.15871,-1.26389 -0.457875,0.0124927 -0.97741,0.0688044 -1.47343,0.086313l-0.00529992 -0.00823381c-0.0953513,0.0036437 -0.190655,0.00705079 -0.286007,0.0100793 -0.452008,-0.0954459 -1.41536,-0.313878 -2.23264,-0.500038 -0.749229,-0.170639 -1.18979,0.550482 -1.3175,1.23602 -0.00496868,0.0440556 -0.0132025,0.0870702 -0.0208684,0.130653 -0.154502,0.753299 -0.857121,1.26663 -1.64279,1.15335 -0.785666,-0.113286 -1.31651,-0.856079 -1.21482,-1.65802 0.120289,-0.94826 -0.0484091,-1.93972 -1.51251,-2.42661 -0.439704,-0.146174 -0.833129,-0.30943 -1.2266,-0.478555 -1.20952,-0.51996 -1.98061,-0.324005 -2.69387,1.4005 -0.0166096,0.0411217 -0.0361057,0.0803506 -0.055176,0.120242 -0.351262,0.684069 -1.16598,0.989761 -1.89231,0.669494 -0.726326,-0.320267 -1.08738,-1.1965 -0.748709,-1.93021 0.593213,-1.28495 0.932455,-2.29368 -0.521427,-3.11446 -0.325141,-0.18351 -0.620659,-0.390585 -0.927865,-0.574994 -1.05667,-0.634334 -1.88644,-1.1913 -3.21644,0.323721l-0.600926 0.741374c-0.0270201,0.0351593 -0.0563117,0.067716 -0.0853666,0.10103 -0.521711,0.564962 -1.39994,0.631874 -2.00252,0.138035 -0.625391,-0.512484 -0.716767,-1.43481 -0.204189,-2.0602 0.161032,-0.196476 0.320125,-0.39456 0.482719,-0.589806 0.788837,-0.947314 1.36383,-2.08434 -0.327507,-3.69655 -1.13939,-1.08611 -1.8793,-1.56669 -3.76957,0.00160891l-0.628798 0.528289c-0.0331718,0.0293862 -0.0680945,0.0557912 -0.10297,0.0830006 -0.619428,0.455699 -1.49439,0.354764 -1.99235,-0.244412 -0.51679,-0.621842 -0.431518,-1.54474 0.190419,-2.06153 0.321166,-0.266889 0.631968,-0.546744 0.962693,-0.801803 1.96693,-1.5171 0.893605,-2.74986 0.122892,-3.59595 -0.903921,-0.992316 -1.55212,-1.80178 -3.56055,-0.288704l-0.745869 0.603529c-0.0336924,0.028771 -0.0691356,0.0545608 -0.104484,0.0811077 -0.62771,0.4442 -1.50068,0.327128 -1.98752,-0.281133 -0.505196,-0.631259 -0.402936,-1.5524 0.228417,-2.05765 0.448648,-0.359022 0.877279,-0.744592 1.34452,-1.07929 1.52288,-1.09084 0.226146,-3.50486 -0.641291,-4.52448 -0.81103,-0.953276 -1.30809,-0.886649 -2.37086,-0.397589 -0.838476,0.385853 -1.88124,1.20015 -2.44681,2.12839 -2.06583,2.98622 -5.12379,-0.214552 -8.1068,-0.630454 -1.74311,-0.243087 -6.71997,-1.56225 -5.7392,1.22348zm-0.778994 27.1581c1.69091,0.31615 4.38124,1.66238 8.61777,1.57266 6.63385,-0.140448 13.799,-1.07058 21.0342,-0.100131 11.4616,1.53731 18.0553,0.86649 23.4683,-1.579 0.535103,-0.0788363 0.855038,-0.952188 0.741942,-1.3617 -0.209584,-0.790446 -0.510827,-1.61435 -0.830479,-2.23732 -0.0569742,-0.363613 0.415098,-0.349274 0.892611,-0.369433 3.68207,-0.100509 5.56922,-0.219237 7.31427,0.945942 0.402179,0.268498 0.566335,0.474296 0.671103,0.812734 0.292064,0.943055 0.44931,1.78319 0.508556,2.55735 0.151048,1.97375 -0.130653,2.41629 -1.61392,3.00984 -1.70591,0.682649 -4.17208,1.4103 -7.00063,2.01657 -3.25983,0.698738 -6.86832,1.19206 -10.0002,1.15311l-0.00880166 0 -0.00160891 0c-2.34853,0.0323201 -4.20667,-0.105431 -6.08209,-0.170355 -5.03592,-0.174377 -9.66223,-0.554315 -14.8882,-0.596336 -4.33936,-0.0348281 -8.81623,0.030238 -13.1391,0.208164 -2.97155,0.122371 -6.91829,-0.276874 -9.33908,-1.08913 -1.14762,-0.385049 -1.22192,-0.4592 -1.29933,-1.60394 -0.062558,-0.923653 -0.0683311,-2.31777 0.165765,-2.7323 0.217486,-0.385333 0.557012,-0.449026 0.788931,-0.436723zm11.5734 -20.2554c-3.6516,0 -6.61175,2.96015 -6.61175,6.61175 0,3.65155 2.96015,6.6117 6.61175,6.6117 3.65155,0 6.6117,-2.96015 6.6117,-6.6117 0,-3.6516 -2.96015,-6.61175 -6.6117,-6.61175z"/>
 </g>
</svg>