<svg xmlns="http://www.w3.org/2000/svg" xmlns:xlink="http://www.w3.org/1999/xlink" xml:space="preserve" width="100px" height="65.3465346535px" style="shape-rendering:geometricPrecision; text-rendering:geometricPrecision; image-rendering:optimizeQuality; fill-rule:evenodd; clip-rule:evenodd" viewBox="0 0 86.7252 56.8668">
 <defs>
  <style type="text/css">
   
    .fil0 {fill:black}
   
  </style>
 </defs>
 <g id="Layer_x0020_1">
  <metadata id="CorelCorpID_0Corel-Layer"/>
  <path class="fil0" d="M56.3183 30.2412l-22.578 -13.0509c-0.820368,-0.474217 -1.83807,-0.16719 -2.26184,0.682408l-2.69671 5.40552c-0.423775,0.849484 -0.0992903,1.93241 0.720964,2.40662l22.578 13.051c0.820311,0.474103 1.83812,0.167076 2.2619,-0.682351l2.69665 -5.40569c0.423775,-0.849484 0.0993472,-1.93247 -0.721021,-2.40657zm16.5014 -2.08032l10.9396 -6.07474c0.389598,-0.315386 0.642544,-0.622583 0.788636,-0.915166 0.157295,-0.315443 0.186809,-0.620024 0.133411,-0.898731 -0.0598244,-0.311633 -0.22002,-0.611096 -0.426277,-0.873198 -0.265855,-0.337849 -0.59432,-0.598472 -0.887187,-0.744621 -0.0361676,-0.0179701 -0.0707429,-0.0379874 -0.103726,-0.0594832l-9.32397 -5.27717c-0.0628384,-0.0355989 -0.120331,-0.0771121 -0.172308,-0.123175 -0.141258,0.929781 0.211433,1.8367 0.974592,2.27702 0.489912,0.282687 1.06171,0.322779 1.60263,0.159797l3.96399 2.26457c-2.12371,2.24023 -5.33996,2.95448 -7.83023,1.4968l-8.00578 -4.68632c1.00695,-1.60929 2.78166,-2.36796 -0.425595,-2.51189 -2.37194,-0.0868933 -1.85558,-0.149845 -2.25689,-1.96624 -0.217688,-0.815364 -0.842831,-0.902939 -1.57056,-0.716699 -1.48748,0.425026 -1.71944,-0.517322 -1.77534,-1.57471 -0.0686957,-1.38489 0.264262,-2.84934 1.03993,-4.19351 1.94873,-3.37684 5.95259,-4.71555 8.94278,-2.98991 3.7028,2.1369 7.4056,4.27381 11.1083,6.4106 2.48965,1.4367 3.49131,4.54461 2.63216,7.49386l-3.95302 -2.25849c-0.128577,-0.552466 -0.449934,-1.02975 -0.941552,-1.31352 -0.800464,-0.461876 -1.81924,-0.276091 -2.56506,0.384935 0.0773964,0.0217233 0.153428,0.0529435 0.226446,0.0943429l9.32311 5.2766 0.0100086 0.00483372c0.531539,0.265229 1.11613,0.723466 1.57386,1.30516 0.388176,0.493267 0.695089,1.08509 0.820937,1.7415 0.132273,0.689459 0.0660798,1.43004 -0.30697,2.17768 -0.278991,0.559176 -0.729551,1.11483 -1.3999,1.64227l-0.00113735 -0.00142168c-0.0412288,0.0323575 -0.0856422,0.0619854 -0.133013,0.0883149l-10.6033 5.88793 -1.42572 7.89648c-0.218769,1.00394 -0.476491,1.35344 -1.34434,1.70312l-38.9564 17.0075c-1.86775,0.763614 -3.28147,0.813487 -5.31931,-0.165825l-25.5726 -14.6163c-1.52228,-0.814454 -1.67116,-1.6226 -1.57824,-2.71735 0.111289,-1.30982 0.708396,-1.53223 1.35765,-1.87457l23.8067 -12.6073c0.246349,-0.129657 0.551272,-0.0352009 0.680929,0.211148 0.129657,0.246349 0.035144,0.551215 -0.211205,0.680929l-23.4028 12.3933c-0.349905,0.275238 -0.851872,0.512602 -0.0228607,0.940131l25.7206 14.6665c1.79832,1.02299 3.00697,0.990515 4.04247,0.42042l22.3605 -11.9848c0.921364,-0.379362 1.62726,-1.06035 2.04165,-2.14976l3.64605 -7.39935c0.47325,-1.11306 1.25085,-1.6177 2.44666,-1.97005l10.3315 -1.96147zm-28.0097 10.2306c-0.39773,-0.229915 -0.796711,-0.461194 -1.19757,-0.692644 -0.904361,-0.522326 -2.45127,-0.526535 -3.43166,-0.00898504 -0.435831,0.230085 -0.871378,0.459374 -1.30402,0.687355 -0.977151,0.514706 -1.02827,1.35651 -0.119763,1.87099 0.401199,0.227242 0.802284,0.45454 1.20343,0.681555 0.8993,0.508963 2.42875,0.512545 3.40112,0.00562986 0.431054,-0.22474 0.864383,-0.449934 1.29834,-0.676266 0.975957,-0.509247 1.04647,-1.34963 0.15013,-1.86764zm-7.07657 3.70411c-0.401938,-0.224967 -0.803876,-0.450958 -1.20604,-0.676437 -0.910446,-0.510555 -2.44871,-0.513341 -3.41346,-0.00449252 -0.428325,0.225991 -0.856081,0.45147 -1.28111,0.67547 -0.95975,0.505892 -0.990003,1.33081 -0.0753492,1.83312 0.403985,0.221953 0.807687,0.444191 1.20962,0.664495 0.907261,0.497362 2.42812,0.498044 3.38332,0.000568673 0.423718,-0.220588 0.849598,-0.442541 1.27565,-0.664552 0.960944,-0.500944 1.00866,-1.3237 0.107366,-1.82817zm-6.95425 3.63752c-0.403076,-0.21911 -0.807345,-0.440324 -1.21207,-0.660514 -0.916587,-0.498556 -2.44535,-0.497362 -3.39367,0.00159228 -0.422126,0.222067 -0.842603,0.443394 -1.26063,0.663642 -0.940585,0.495769 -0.952983,1.30283 -0.0323575,1.79274 0.408194,0.217119 0.814397,0.434182 1.21918,0.649823 0.912664,0.486102 2.42505,0.484453 3.36171,-0.00324144 0.416439,-0.216778 0.834926,-0.434808 1.25353,-0.652894 0.944225,-0.492244 0.97317,-1.29703 0.0643169,-1.79115zm7.18701 -11.2999c-0.413994,-0.238956 -0.826282,-0.477401 -1.2384,-0.715846 -0.932055,-0.5395 -2.51052,-0.544846 -3.49808,-0.0147855 -0.438618,0.235431 -0.877235,0.470577 -1.31324,0.70487 -0.983463,0.528297 -1.01656,1.39433 -0.079728,1.92445 0.4157,0.235203 0.830035,0.469724 1.24454,0.704302 0.928814,0.525795 2.48266,0.530629 3.46168,0.0109754 0.434011,-0.23037 0.869956,-0.462729 1.30715,-0.694236 0.984316,-0.521416 1.04067,-1.38591 0.116066,-1.91973zm-7.1269 3.79714c-0.415359,-0.232815 -0.83032,-0.4658 -1.24721,-0.699013 -0.938766,-0.52534 -2.50455,-0.531425 -3.47579,-0.00966744 -0.431225,0.231734 -0.862109,0.462445 -1.29163,0.692644 -0.96629,0.518118 -0.978857,1.36607 -0.0341204,1.8843 0.417122,0.228834 0.83413,0.457725 1.25284,0.687526 0.933705,0.512488 2.47828,0.515502 3.4415,0.00534553 0.426562,-0.22582 0.855114,-0.453631 1.28401,-0.68127 0.96737,-0.513398 1.00121,-1.35805 0.0704017,-1.87986zm-6.99991 3.72885c-0.417804,-0.226844 -0.83595,-0.453346 -1.2554,-0.681327 -0.945078,-0.513512 -2.50171,-0.517663 -3.4556,-0.00506119 -0.423491,0.227697 -0.846413,0.455052 -1.26672,0.680474 -0.946898,0.507768 -0.942803,1.33746 0.00773396,1.84335 0.419851,0.223432 0.839532,0.446807 1.26081,0.671148 0.939619,0.500262 2.47703,0.501001 3.41972,0.00113735 0.418885,-0.222124 0.839873,-0.44584 1.26137,-0.669215 0.950025,-0.503731 0.965436,-1.33166 0.0280925,-1.84051zm7.06013 -11.6129c-0.425026,-0.245894 -0.850166,-0.49213 -1.27553,-0.738195 -0.963389,-0.557186 -2.57052,-0.566057 -3.5649,-0.0217233 -0.442087,0.24197 -0.883377,0.483998 -1.32256,0.724035 -0.990401,0.541093 -1.00456,1.43237 -0.036452,1.98046 0.427415,0.24197 0.854716,0.484168 1.28185,0.726025 0.957248,0.542002 2.54203,0.548883 3.52816,0.0165484 0.436798,-0.235715 0.876667,-0.473364 1.31642,-0.710785 0.989833,-0.534723 1.02566,-1.42544 0.0730176,-1.97637zm-7.17506 3.89524c-0.429576,-0.240492 -0.856251,-0.480245 -1.28452,-0.720452 -0.970327,-0.543879 -2.56602,-0.550874 -3.5442,-0.0162641 -0.433841,0.237137 -0.867283,0.474558 -1.29845,0.7105 -0.972261,0.531823 -0.966517,1.40405 0.00642601,1.93878 0.430201,0.236454 0.860459,0.472567 1.29049,0.708567 0.96373,0.529094 2.5393,0.533643 3.50763,0.0105773 0.428836,-0.231734 0.860403,-0.465061 1.29259,-0.698672 0.973512,-0.526193 0.989662,-1.39575 0.0300259,-1.93303zm-7.04694 3.82427c-0.430884,-0.234293 -0.862052,-0.468587 -1.29311,-0.703164 -0.974933,-0.530572 -2.56119,-0.535349 -3.52168,-0.0100655 -0.425993,0.232985 -0.851588,0.466312 -1.27497,0.697989 -0.952755,0.521416 -0.927677,1.37374 0.0513512,1.8955 0.432874,0.230768 0.865577,0.461706 1.29669,0.691507 0.969531,0.516696 2.53696,0.519654 3.48545,0.00784769 0.421785,-0.227697 0.845276,-0.457611 1.26951,-0.686389 0.958044,-0.516753 0.952357,-1.3684 -0.0132501,-1.89323zm33.6953 -32.1555c-3.18974,2.56364 -5.78898,6.85109 -5.38516,11.0271l12.9009 7.5012c-0.346834,-3.58679 2.02908,-8.47909 4.87478,-10.6775l-2.18985 -0.00130795c-0.0597107,-0.430486 -0.290251,-2.38018 -0.384707,-2.77456l-2.912 0.831912c-0.0847892,-0.594605 -0.275807,-2.41385 -0.396763,-2.78172l-2.912 0.831969 -0.396877 -2.78166 -2.91189 0.831969 -0.286441 -2.00742zm5.04379 25.8775l-22.4156 -12.9572 -2.61595 5.24339c-0.00346891,0.0160366 0.00767709,0.0496452 0.0194486,0.0640895l22.4156 12.9572 2.61595 -5.24339c0.00346891,-0.0161503 -0.00773396,-0.0496452 -0.0195055,-0.0640895z"/>
 </g>
</svg>