<svg xmlns="http://www.w3.org/2000/svg" xmlns:xlink="http://www.w3.org/1999/xlink" version="1.0" x="0px" y="0px" width="98.465px" height="99.922px" viewBox="0 0 98.465 99.922" overflow="visible" enable-background="new 0 0 98.465 99.922" xml:space="preserve">
    <path d="M97.817,20.188l-2.004-1.361c-0.678-0.459-1.598-0.284-2.059,0.394L83.496,34.332 c-0.459,0.676-0.283,1.597,0.393,2.057l2.006,1.36c0.676,0.459,1.598,0.283,2.056-0.392l10.262-15.111 C98.669,21.569,98.495,20.648,97.817,20.188z"/>
    <path d="M5.135,30.409c-0.288-0.766-1.142-1.153-1.908-0.865l-2.268,0.854c-0.765,0.288-1.152,1.142-0.864,1.908l6.433,17.093 c0.288,0.766,1.143,1.153,1.908,0.866l2.268-0.854c0.765-0.287,1.153-1.142,0.863-1.907L5.135,30.409z"/>
    <path d="M73.898,1.28c-0.384-1.021-1.522-1.537-2.543-1.153L68.33,1.265c-1.018,0.384-1.535,1.523-1.15,2.543l3.57,9.49 l-21.543,8.107c-1.228-1.228-2.922-1.988-4.796-1.988c-3.598,0-6.525,2.797-6.754,6.335l-8.261,3.109l-0.284-0.349 c-1.535-1.843-4.275-2.089-6.121-0.551c-1.181,0.985-1.702,2.462-1.524,3.882l-4.831,1.818l-3.571-9.49 c-0.384-1.02-1.522-1.537-2.543-1.151l-3.023,1.137c-1.021,0.384-1.538,1.523-1.152,2.543l8.577,22.792 c0.384,1.02,1.521,1.537,2.543,1.153l3.023-1.138c1.021-0.384,1.536-1.523,1.152-2.543l-3.571-9.49l5.477-2.061l4.906,5.873 l6.629,1.629v14.492c0,0.402-1.813,37.77-1.813,37.77c-0.176,2.444,1.671,4.564,4.113,4.735 c2.443,0.166,4.558-1.668,4.727-4.114l1.509-29.1c0.27,0.018,1.438,0.026,1.753-0.012l1.994,29.111 c0.164,2.446,2.288,4.28,4.734,4.114c2.437-0.171,4.289-2.291,4.114-4.735c0,0-2.474-37.442-2.474-37.77V42.182l8.74-10.467 l3.059-3.65c1.536-1.842,1.291-4.589-0.555-6.127c-0.865-0.72-1.926-1.044-2.966-1.001l10.168-3.826l3.571,9.49 c0.384,1.021,1.521,1.536,2.542,1.152l3.025-1.138c1.02-0.385,1.535-1.523,1.152-2.544L73.898,1.28z M58.86,22.488 c0,0-9.09,10.787-9.11,10.773c-1.514,1.337-3.496,2.154-5.668,2.154c-2.034,0-3.896-0.71-5.363-1.892l-5.47,0.065 l-1.139-1.396l6.527-2.456c1.191,1.94,3.325,3.24,5.774,3.24c3.747,0,6.776-3.035,6.776-6.776c0-0.393-0.04-0.774-0.104-1.148 l8.375-3.152C59.246,22.072,59.043,22.268,58.86,22.488z"/>
</svg>