<svg xmlns="http://www.w3.org/2000/svg" xmlns:xlink="http://www.w3.org/1999/xlink" version="1.1" id="Layer_1" x="0px" y="0px" width="100px" height="92px" viewBox="0 0 100 92" enable-background="new 0 0 100 92" xml:space="preserve">
<path d="M50.53,57.124c-2.454-5.812,0.387-6.731,4.004-11.754c3.616-5.022,2.324-13.172-7.104-14.592  c1.162,2.195,3.488,5.94-4.237,12.268c-3.47,3.21-3.116,6.991-1.009,9.826C44.062,55.398,47.723,55.896,50.53,57.124z"/>
<path d="M52.47,56.448c0.843-2.636,10.28-0.448,5.267-13.102c-0.845,2.972-3.092,5.013-4.842,7.284  C51.144,52.903,51.643,54.292,52.47,56.448z"/>
<path d="M93,81V16l-8-7V0H16v9l-9,7v65H0v11h100V81H93z M85,73H16V25c0,0,14.166-4.75,34.583-4.75S85,25,85,25V73z"/>
<path d="M67.374,70c-0.43,0-33.352,0-33.811,0s-0.607-0.349-0.645-0.666c-0.106-0.914-0.294-2.778-0.294-4.752  c0-2.369,0.375-4.655,0.375-4.832c0-0.375,0.292-0.75,0.791-0.75s21.334,0,21.334,0l4.25-4l2.125,1.625L59.196,59  c0,0,7.262,0,7.887,0S68,59.5,68,59.875c0.064,0.368,0.541,2.312,0.541,4.582c0,2.032-0.414,4.789-0.462,5.082S67.832,70,67.374,70z  "/>
</svg>