<svg xmlns="http://www.w3.org/2000/svg" xmlns:xlink="http://www.w3.org/1999/xlink" version="1.1" id="Layer_1" x="0px" y="0px" width="100px" height="92px" viewBox="0 0 100 92" enable-background="new 0 0 100 92" xml:space="preserve">
<path d="M50.53,57.124c-2.454-5.812,0.387-6.731,4.004-11.754c3.616-5.022,2.324-13.172-7.104-14.592  c1.162,2.195,3.488,5.94-4.237,12.268c-3.47,3.21-3.116,6.991-1.009,9.826C44.062,55.398,47.723,55.896,50.53,57.124z"/>
<path d="M52.47,56.448c0.843-2.636,10.28-0.448,5.267-13.102c-0.845,2.972-3.092,5.013-4.842,7.284  C51.144,52.903,51.643,54.292,52.47,56.448z"/>
<path d="M93,81V16l-8-7V0H16v9l-9,7v65H0v11h100V81H93z M85,73H16V25c0,0,14.166-4.75,34.583-4.75S85,25,85,25V73z"/>
<polygon points="39.003,68.5 42.193,68.5 58.145,68.5 61.334,68.5 77.285,68.5 80.5,68.5 80.5,65.086 80.5,58.5 77.5,58.5   77.5,65.5 61.5,65.5 61.5,58.5 58.5,58.5 58.5,65.5 42.5,65.5 42.5,58.5 39.5,58.5 39.5,65.5 23.5,65.5 23.5,58.5 20.5,58.5   20.5,65.086 20.5,68.5 23.053,68.5 "/>
</svg>