<svg xmlns="http://www.w3.org/2000/svg" xmlns:xlink="http://www.w3.org/1999/xlink" version="1.1" id="Layer_1" x="0px" y="0px" width="85px" height="100px" viewBox="0 0 85 100" enable-background="new 0 0 85 100" xml:space="preserve">
<g>
	<polygon points="40.928,87 0,87 0,100 40.928,100 44.509,100 85,100 85,87 44.193,87  "/>
	<polygon points="44.193,0 40.928,0 0,0 0,14 40.928,14 44.509,14 85,14 85,0  "/>
	<path d="M57.837,62C65.095,62,71,56.095,71,48.836V33.164C71,25.905,65.095,20,57.837,20H27.163C19.905,20,14,25.905,14,33.164   v15.673C14,56.095,19.905,62,27.163,62H57.837z M19,48.836V33.164C19,28.662,22.662,25,27.163,25h30.674   C62.338,25,66,28.662,66,33.164v15.673C66,53.338,62.338,57,57.837,57H27.163C22.662,57,19,53.338,19,48.836z"/>
	<polygon points="77.305,68 47.57,68 43.854,73 41.375,73 37.658,68 7.922,68 4.205,73 0,73 0,81 85,81 85,73 81.021,73  "/>
</g>
</svg>