<svg xmlns="http://www.w3.org/2000/svg" xmlns:xlink="http://www.w3.org/1999/xlink" version="1.1" id="Layer_1" x="0px" y="0px" width="100px" height="100px" viewBox="0 0 100 100" enable-background="new 0 0 100 100" xml:space="preserve">
<path d="M49.449,90.719c6.33,0,15.844-2.797,15.844-19.293c0-3.65-0.089-9.242-0.646-14.662c-0.016-0.145-9.808-0.998-15.389-0.998  h0.376c-5.581,0-15.373,0.854-15.388,0.998c-0.558,5.42-0.646,11.012-0.646,14.662c0,16.496,9.512,19.293,15.843,19.293"/>
<path d="M47.996,53.051c-5.379-0.031-9.557,0.271-13.635,0.814c0.532-3.786,1.332-7.208,2.545-9.402  c2.21-3.988,7.188-4.099,11.097-4.008L47.996,53.051z"/>
<path d="M50.866,52.991c5.379-0.027,9.558,0.272,13.634,0.815c-0.531-3.787-1.33-7.208-2.544-9.402  c-2.21-3.988-7.188-4.099-11.097-4.008L50.866,52.991z"/>
<path fill="none" d="M33.366,71.426c0,16.496,9.514,19.293,15.844,19.293"/>
<g>
	<g>
		<path d="M50.859,40.417l-2.856,0.038l0.001-0.993c-0.005-1.584-0.01-3.221,0.246-4.866c0.441-2.85,1.749-5.441,3.887-7.7    c0.727-0.77,1.508-1.398,2.264-2.005c0.469-0.374,0.906-0.728,1.328-1.107c0.959-0.863,1.703-1.597,1.852-2.533    c0.281-1.809-0.469-3.369-2.232-4.635c-0.593-0.423-1.289-0.775-2.027-1.146c-1.844-0.93-3.933-1.984-4.885-4.501    C47.581,8.721,48.109,5.986,49.777,4l2.141,1.798c-1.011,1.205-1.361,2.884-0.872,4.178c0.569,1.5,1.94,2.193,3.531,2.996    c0.802,0.404,1.63,0.822,2.396,1.372c2.618,1.877,3.814,4.485,3.367,7.339c-0.311,1.992-1.716,3.256-2.74,4.18    c-0.479,0.433-0.974,0.828-1.447,1.209c-0.713,0.574-1.389,1.116-1.984,1.746c-1.736,1.84-2.799,3.929-3.15,6.209    c-0.226,1.427-0.16,2.894-0.154,4.436v0.954H50.859z"/>
	</g>
</g>
</svg>