<?xml version="1.0" encoding="utf-8"?>
<!-- Generator: Adobe Illustrator 15.0.0, SVG Export Plug-In . SVG Version: 6.00 Build 0)  -->
<!DOCTYPE svg PUBLIC "-//W3C//DTD SVG 1.1//EN" "http://www.w3.org/Graphics/SVG/1.1/DTD/svg11.dtd">
<svg version="1.1" id="Layer_1" xmlns="http://www.w3.org/2000/svg" xmlns:xlink="http://www.w3.org/1999/xlink" x="0px" y="0px"
	 width="100px" height="53.274px" viewBox="0 0 100 53.274" enable-background="new 0 0 100 53.274" xml:space="preserve">
<path fill="#010101" d="M99.925,38.815V14.461h-0.001c0,0,0.247-3.349-3.404-3.349h-4.242c0,0-1.961-0.038-1.961-1.979
	s1.901-1.96,1.901-1.96h0.914v-4.49c0,0,0.134-2.683-3.312-2.683H10.178C6.735,0,6.867,2.683,6.867,2.683v4.49H7.78
	c0,0,1.903,0.02,1.903,1.96s-1.959,1.979-1.959,1.979H3.481c-3.653,0-3.405,3.349-3.405,3.349v24.354c0,0-0.248,3.349,3.405,3.349
	h4.243c0,0,1.959,0.037,1.959,1.979c0,1.939-1.903,1.959-1.903,1.959H6.868v4.49c0,0-0.133,2.683,3.311,2.683h79.643
	c3.443,0,3.311-2.683,3.311-2.683v-4.49h-0.914c0,0-1.902-0.02-1.902-1.959c0-1.941,1.961-1.979,1.961-1.979h4.242
	C100.172,42.164,99.925,38.815,99.925,38.815z M92.184,32.232c0,1.135-0.92,2.057-2.056,2.057c-1.135,0-2.055-0.922-2.055-2.057
	v-2.931h-3.199l-3.919,4.054c0,0-0.268,0.305-1.123,0.305s-1.122-0.305-1.122-0.305l-3.919-4.054h-2.702c0,0,0.134,5.29-2.341,5.29
	c-2.473,0-2.34-5.29-2.34-5.29H55.688c-1.002,2.137-3.172,3.614-5.688,3.614c-2.516,0-4.685-1.479-5.688-3.614H32.591
	c0,0,0.133,5.29-2.34,5.29c-2.474,0-2.34-5.29-2.34-5.29h-2.702l-3.919,4.054c0,0-0.266,0.305-1.123,0.305
	c-0.856,0-1.123-0.305-1.123-0.305l-3.919-4.054h-3.199v2.931c0,1.135-0.92,2.057-2.055,2.057c-1.134,0-2.054-0.922-2.054-2.057
	V21.044c0-1.135,0.92-2.055,2.054-2.055c1.135,0,2.055,0.92,2.055,2.055v2.93h3.199l3.919-4.053c0,0,0.267-0.304,1.123-0.304
	s1.123,0.304,1.123,0.304l3.919,4.053h2.702c0,0-0.133-5.289,2.34-5.289s2.34,5.289,2.34,5.289h11.721
	c1.002-2.136,3.172-3.614,5.688-3.614c2.516,0,4.686,1.479,5.688,3.614h11.722c0,0-0.134-5.289,2.34-5.289
	c2.476,0,2.341,5.289,2.341,5.289h2.702l3.919-4.053c0,0,0.268-0.304,1.122-0.304c0.856,0,1.123,0.304,1.123,0.304l3.919,4.053
	h3.199v-2.93c0-1.135,0.92-2.055,2.055-2.055c1.137,0,2.055,0.92,2.055,2.055V32.232z"/>
</svg>
