<svg xmlns="http://www.w3.org/2000/svg" xmlns:xlink="http://www.w3.org/1999/xlink" version="1.1" id="Layer_1" x="0px" y="0px" width="100px" height="100px" viewBox="0 0 100 100" enable-background="new 0 0 100 100" xml:space="preserve">
<path d="M91.934,5.472c-0.482-0.364-1.159-0.317-1.586,0.11L33.315,62.615L14.672,81.258l-5.305,5.305  c-1.981,1.982-2.371,4.807-0.868,6.309l0.989,0.988c1.502,1.502,4.326,1.113,6.308-0.869l21.59-23.09l8.786,8.785  c0.269,0.27,0.649,0.396,1.026,0.344c0.264-0.037,0.504-0.158,0.689-0.344c0.079-0.078,0.147-0.168,0.203-0.269L92.264,7.028  C92.557,6.5,92.416,5.836,91.934,5.472z M13.118,91.277c-0.503,0.504-1.318,0.504-1.821,0c-0.503-0.503-0.503-1.318,0-1.821  c0.503-0.503,1.318-0.503,1.821,0S13.621,90.774,13.118,91.277z M74.771,24.588L43.241,72.385l-8.211-8.056L74.771,24.588z   M46.75,75.835l-1.719-1.69l36.084-55.856l-0.029-0.016l4.867-4.867L46.75,75.835z"/>
</svg>