<svg xmlns="http://www.w3.org/2000/svg" xmlns:xlink="http://www.w3.org/1999/xlink" version="1.1" id="Layer_1" x="0px" y="0px" width="100px" height="100px" viewBox="0 0 100 100" enable-background="new 0 0 100 100" xml:space="preserve">
<path d="M88.205,5.582L31.174,62.614L12.53,81.257l-5.304,5.306c-1.981,1.981-2.37,4.806-0.868,6.308l0.989,0.989  c1.502,1.502,4.327,1.113,6.308-0.868L35.245,69.9l8.786,8.785c0.066,0.067,0.141,0.126,0.219,0.174  c0.003,0.006,0.006,0.013,0.009,0.019c0.289,0.595,1.004,0.867,1.599,0.607c0.594-0.258,0.841-0.949,0.553-1.544  c-0.024-0.05-0.049-0.102-0.074-0.154l0.044-0.07l-0.139-0.139c-0.442-1.003-0.779-2.219-0.291-2.973  c0.004-0.007,0.009-0.014,0.014-0.021c0.65-0.962,2.593-1.058,3.219-1.016c0.004,0.001,0.009,0,0.013,0.001  c0.044,0.003,0.087,0.003,0.13,0.001c0.014-0.001,0.026-0.002,0.04-0.003c0.039-0.003,0.078-0.008,0.116-0.015  c0.011-0.001,0.021-0.003,0.029-0.005c0.044-0.009,0.088-0.021,0.131-0.035c0.016-0.005,0.031-0.011,0.047-0.018  c0.018-0.007,0.038-0.013,0.056-0.021c0.01-0.005,0.019-0.009,0.027-0.014c0.017-0.008,0.033-0.016,0.047-0.023  c0.029-0.016,0.057-0.031,0.084-0.049c0.01-0.007,0.022-0.014,0.032-0.021c0.038-0.026,0.075-0.055,0.109-0.085  c0.001-0.001,0.002-0.002,0.002-0.002c0.034-0.029,0.064-0.062,0.093-0.095c0.008-0.01,0.016-0.019,0.023-0.028  c0.021-0.025,0.042-0.053,0.061-0.081c0.004-0.007,0.011-0.014,0.016-0.021c0.002-0.004,0.004-0.009,0.007-0.012  c0.021-0.035,0.042-0.071,0.06-0.108c0.005-0.01,0.01-0.021,0.014-0.033c0.014-0.03,0.026-0.062,0.037-0.094  c0.005-0.016,0.01-0.031,0.015-0.047c0.009-0.031,0.016-0.062,0.022-0.094c0.002-0.013,0.006-0.025,0.008-0.038  c0.008-0.047,0.012-0.093,0.014-0.14c0-0.001,0-0.003,0-0.004c0.001-0.009,0-0.017,0-0.025c0-0.028,0-0.058-0.002-0.088  c-0.001-0.014-0.002-0.026-0.004-0.041c-0.002-0.024-0.004-0.048-0.009-0.072c-0.002-0.02-0.008-0.038-0.011-0.057  c-0.004-0.019-0.008-0.037-0.012-0.056c-0.006-0.024-0.015-0.048-0.022-0.071c-0.004-0.014-0.009-0.026-0.014-0.04  c-0.011-0.028-0.023-0.056-0.035-0.084c-0.003-0.007-0.006-0.014-0.01-0.021c-0.001-0.004-0.003-0.008-0.006-0.012  c0-0.001,0-0.001,0-0.001c-0.512-1.056-1-2.479-0.454-3.324c0.005-0.007,0.01-0.014,0.014-0.021c0.651-0.963,2.594-1.059,3.22-1.017  c0.005,0.001,0.009,0,0.013,0.001c0.043,0.003,0.088,0.003,0.131,0c0.014,0,0.026-0.001,0.039-0.001  c0.039-0.003,0.078-0.009,0.116-0.016c0.01-0.002,0.02-0.002,0.029-0.004c0.044-0.009,0.087-0.021,0.132-0.035  c0.016-0.006,0.03-0.012,0.046-0.018c0.019-0.007,0.037-0.014,0.056-0.021c0.01-0.004,0.018-0.01,0.027-0.013  c0.016-0.008,0.032-0.016,0.048-0.023c0.028-0.017,0.058-0.032,0.085-0.05c0.01-0.007,0.021-0.013,0.031-0.02  c0.038-0.026,0.075-0.055,0.109-0.086c0.001,0,0.001-0.001,0.002-0.001c0.033-0.03,0.064-0.063,0.093-0.096  c0.008-0.009,0.016-0.019,0.023-0.027c0.022-0.026,0.042-0.054,0.061-0.082c0.005-0.007,0.012-0.014,0.017-0.021  c0.002-0.005,0.004-0.009,0.006-0.014c0.022-0.034,0.043-0.07,0.061-0.106c0.005-0.011,0.01-0.022,0.015-0.033  c0.013-0.031,0.025-0.063,0.036-0.095c0.006-0.016,0.01-0.031,0.015-0.048c0.009-0.03,0.017-0.061,0.022-0.092  c0.002-0.014,0.006-0.025,0.008-0.04c0.008-0.045,0.013-0.092,0.015-0.139c0-0.001,0-0.002,0-0.003c0-0.009-0.001-0.018-0.001-0.025  c0.001-0.03,0.001-0.059-0.001-0.088c-0.001-0.015-0.003-0.028-0.005-0.041c-0.002-0.025-0.005-0.05-0.008-0.074  c-0.004-0.019-0.008-0.037-0.012-0.055c-0.004-0.019-0.008-0.038-0.014-0.057c-0.006-0.024-0.014-0.047-0.021-0.071  c-0.004-0.013-0.008-0.026-0.014-0.04c-0.01-0.028-0.022-0.056-0.035-0.083c-0.004-0.008-0.006-0.016-0.01-0.022  c-0.002-0.003-0.004-0.008-0.006-0.011c0-0.001,0-0.001,0-0.002c-0.512-1.056-0.999-2.48-0.453-3.323  c0.004-0.007,0.009-0.015,0.014-0.021c0.65-0.963,2.594-1.058,3.219-1.016c0.005,0,0.01,0,0.015,0  c0.043,0.003,0.087,0.003,0.13,0.002c0.014-0.001,0.025-0.002,0.039-0.003c0.039-0.004,0.078-0.008,0.115-0.015  c0.012-0.002,0.021-0.003,0.031-0.005c0.043-0.009,0.087-0.021,0.131-0.035c0.016-0.005,0.029-0.011,0.046-0.018  c0.019-0.007,0.038-0.013,0.056-0.021c0.01-0.005,0.019-0.01,0.027-0.015c0.016-0.007,0.033-0.015,0.047-0.022  c0.029-0.016,0.058-0.032,0.085-0.049c0.011-0.008,0.022-0.014,0.031-0.021c0.04-0.026,0.075-0.055,0.11-0.085  c0,0,0-0.001,0.002-0.001c0.033-0.029,0.064-0.063,0.094-0.095c0.008-0.01,0.014-0.02,0.022-0.029  c0.021-0.025,0.042-0.052,0.062-0.08c0.004-0.007,0.01-0.015,0.016-0.021c0.002-0.004,0.004-0.009,0.007-0.013  c0.021-0.034,0.041-0.07,0.06-0.107c0.006-0.011,0.009-0.022,0.014-0.033c0.015-0.03,0.027-0.063,0.037-0.094  c0.006-0.016,0.01-0.031,0.016-0.048c0.008-0.03,0.016-0.062,0.021-0.093c0.002-0.013,0.006-0.026,0.008-0.039  c0.008-0.046,0.012-0.093,0.014-0.139c0-0.002,0.002-0.003,0-0.004c0.002-0.009,0-0.018,0-0.025c0-0.029,0-0.059-0.002-0.088  c0-0.014-0.002-0.027-0.004-0.042c-0.002-0.023-0.004-0.048-0.009-0.072c-0.003-0.019-0.008-0.037-0.011-0.056  c-0.004-0.02-0.008-0.038-0.013-0.057c-0.007-0.024-0.015-0.047-0.022-0.07c-0.005-0.014-0.008-0.026-0.014-0.04  c-0.011-0.028-0.023-0.057-0.035-0.084c-0.004-0.007-0.006-0.015-0.01-0.021c-0.002-0.004-0.004-0.008-0.006-0.013c0,0,0,0,0-0.001  c-0.512-1.056-1-2.48-0.453-3.323c0.004-0.007,0.01-0.015,0.014-0.021c0.65-0.963,2.594-1.058,3.22-1.016  c0.005,0.001,0.009,0,0.013,0c0.043,0.003,0.088,0.004,0.131,0.001c0.014,0,0.026-0.001,0.039-0.002  c0.039-0.003,0.078-0.008,0.116-0.015c0.01-0.002,0.02-0.003,0.029-0.004c0.044-0.01,0.087-0.021,0.132-0.035  c0.016-0.006,0.03-0.013,0.045-0.018c0.02-0.008,0.038-0.014,0.057-0.021c0.01-0.004,0.018-0.01,0.027-0.014  c0.016-0.007,0.032-0.016,0.048-0.024c0.028-0.015,0.058-0.031,0.085-0.048c0.01-0.007,0.021-0.013,0.031-0.021  c0.038-0.026,0.075-0.055,0.109-0.086c0.001,0,0.001-0.001,0.002-0.001c0.033-0.029,0.064-0.062,0.093-0.095  c0.008-0.009,0.016-0.019,0.023-0.028c0.021-0.025,0.042-0.053,0.061-0.081c0.005-0.008,0.012-0.014,0.017-0.021  c0.002-0.005,0.004-0.009,0.006-0.014c0.022-0.035,0.043-0.07,0.061-0.106c0.005-0.012,0.01-0.023,0.015-0.034  c0.013-0.03,0.025-0.062,0.036-0.094c0.006-0.016,0.01-0.031,0.015-0.048c0.009-0.031,0.016-0.061,0.022-0.092  c0.003-0.014,0.006-0.026,0.008-0.04c0.008-0.046,0.013-0.092,0.015-0.14c0-0.001,0-0.002,0-0.002c0-0.009-0.001-0.018,0-0.026  c0-0.029,0-0.059-0.002-0.087c-0.001-0.015-0.003-0.028-0.005-0.042c-0.002-0.024-0.005-0.049-0.01-0.073  c-0.002-0.019-0.006-0.037-0.01-0.056s-0.008-0.037-0.014-0.057c-0.006-0.023-0.014-0.047-0.021-0.07  c-0.004-0.013-0.008-0.026-0.014-0.04c-0.01-0.028-0.022-0.057-0.035-0.084c-0.004-0.007-0.006-0.015-0.01-0.021  c-0.002-0.004-0.004-0.008-0.006-0.012c0-0.001,0-0.001,0-0.001c-0.512-1.056-0.999-2.48-0.453-3.323  c0.004-0.008,0.009-0.015,0.014-0.022c0.65-0.962,2.594-1.057,3.219-1.015c0.005,0,0.01,0,0.015,0  c0.043,0.002,0.087,0.002,0.13,0.001c0.014-0.001,0.025-0.001,0.039-0.002c0.039-0.004,0.078-0.008,0.117-0.016  c0.01-0.001,0.02-0.003,0.029-0.004c0.043-0.01,0.087-0.021,0.13-0.035c0.017-0.005,0.03-0.013,0.047-0.018  c0.019-0.007,0.038-0.013,0.056-0.021c0.01-0.005,0.019-0.01,0.027-0.015c0.017-0.008,0.033-0.015,0.047-0.023  c0.03-0.015,0.058-0.031,0.085-0.049c0.011-0.007,0.022-0.014,0.032-0.021c0.039-0.026,0.074-0.055,0.109-0.085  c0,0,0.002-0.001,0.002-0.002c0.033-0.03,0.064-0.062,0.094-0.095c0.008-0.009,0.016-0.019,0.022-0.028  c0.021-0.026,0.042-0.054,0.062-0.08c0.004-0.009,0.01-0.015,0.016-0.022c0.002-0.003,0.004-0.008,0.007-0.012  c0.022-0.035,0.042-0.07,0.06-0.108c0.006-0.011,0.01-0.021,0.014-0.031c0.014-0.032,0.027-0.063,0.037-0.096  c0.006-0.016,0.011-0.032,0.016-0.048c0.008-0.029,0.016-0.062,0.022-0.092c0.001-0.014,0.005-0.026,0.007-0.039  c0.007-0.046,0.012-0.093,0.014-0.14c0-0.001,0.002-0.002,0.002-0.004c0-0.008-0.002-0.017-0.002-0.024c0-0.03,0-0.059-0.002-0.088  c0-0.015-0.003-0.028-0.004-0.042c-0.002-0.024-0.004-0.048-0.009-0.073c-0.003-0.018-0.007-0.036-0.011-0.056  c-0.005-0.019-0.008-0.038-0.013-0.057c-0.007-0.023-0.015-0.047-0.022-0.069c-0.005-0.015-0.008-0.027-0.013-0.041  c-0.012-0.028-0.024-0.056-0.036-0.083c-0.004-0.008-0.006-0.015-0.01-0.022c-0.002-0.004-0.004-0.008-0.005-0.012  c0,0,0,0-0.001-0.001c-0.512-1.056-1-2.48-0.453-3.323c0.004-0.008,0.01-0.015,0.014-0.022c0.65-0.962,2.594-1.058,3.22-1.015  c0.005,0,0.009,0,0.013,0c0.044,0.003,0.088,0.003,0.131,0.001c0.014-0.001,0.025-0.001,0.039-0.002  c0.038-0.003,0.078-0.009,0.116-0.016c0.01-0.001,0.02-0.002,0.029-0.004c0.044-0.009,0.087-0.02,0.132-0.035  c0.016-0.005,0.03-0.011,0.046-0.017c0.019-0.007,0.037-0.013,0.056-0.021c0.01-0.004,0.018-0.01,0.027-0.014  c0.016-0.007,0.032-0.015,0.048-0.023c0.028-0.015,0.058-0.032,0.083-0.049c0.012-0.006,0.022-0.012,0.033-0.02  c0.038-0.026,0.075-0.055,0.109-0.085c0.001,0,0.002,0,0.002-0.001c0.033-0.03,0.064-0.062,0.093-0.095  c0.009-0.009,0.016-0.019,0.023-0.028c0.022-0.026,0.042-0.053,0.061-0.081c0.005-0.008,0.012-0.014,0.017-0.022  c0.002-0.003,0.004-0.008,0.006-0.012c0.022-0.035,0.043-0.071,0.061-0.108c0.005-0.011,0.01-0.021,0.014-0.033  c0.014-0.03,0.027-0.062,0.037-0.095c0.006-0.016,0.01-0.031,0.015-0.047c0.009-0.031,0.017-0.061,0.022-0.093  c0.003-0.012,0.006-0.025,0.008-0.039c0.008-0.046,0.013-0.092,0.014-0.14c0.001-0.001,0.001-0.001,0.001-0.003  c0-0.008-0.001-0.017-0.001-0.024c0.001-0.03,0.001-0.059-0.002-0.089c0-0.014-0.002-0.027-0.004-0.041  c-0.002-0.025-0.005-0.048-0.008-0.073c-0.004-0.02-0.008-0.038-0.013-0.056c-0.003-0.019-0.007-0.038-0.013-0.056  c-0.006-0.024-0.014-0.047-0.021-0.07c-0.004-0.014-0.008-0.027-0.014-0.041c-0.01-0.028-0.022-0.056-0.035-0.083  c-0.004-0.008-0.006-0.015-0.01-0.023c-0.002-0.003-0.004-0.008-0.006-0.012c0,0,0,0,0,0c-0.512-1.057-0.999-2.48-0.453-3.323  c0.004-0.008,0.009-0.015,0.014-0.022c0.65-0.962,2.594-1.058,3.219-1.015c0.005,0,0.01,0,0.015,0  c0.043,0.002,0.087,0.002,0.13,0.001c0.014-0.001,0.025-0.002,0.039-0.003c0.039-0.002,0.078-0.008,0.117-0.014  c0.01-0.002,0.02-0.004,0.029-0.005c0.043-0.009,0.087-0.021,0.131-0.035c0.016-0.005,0.031-0.011,0.046-0.017  c0.019-0.007,0.038-0.013,0.056-0.022c0.01-0.003,0.019-0.009,0.027-0.013c0.017-0.008,0.031-0.016,0.049-0.024  c0.027-0.015,0.056-0.031,0.083-0.049c0.011-0.006,0.022-0.013,0.032-0.021c0.037-0.026,0.074-0.054,0.109-0.085  c0-0.001,0.002-0.001,0.002-0.002c0.033-0.029,0.064-0.062,0.094-0.094c0.008-0.01,0.016-0.019,0.022-0.028  c0.021-0.026,0.042-0.054,0.062-0.081c0.004-0.008,0.01-0.014,0.016-0.022c0.002-0.003,0.004-0.009,0.007-0.012  c0.022-0.035,0.042-0.071,0.06-0.108c0.006-0.011,0.009-0.021,0.014-0.033c0.014-0.031,0.027-0.062,0.037-0.095  c0.006-0.016,0.01-0.032,0.014-0.047c0.01-0.031,0.018-0.062,0.023-0.093c0.002-0.013,0.006-0.025,0.008-0.039  c0.008-0.046,0.012-0.092,0.014-0.14c0-0.001,0-0.002,0-0.003c0.002-0.009,0-0.017,0-0.025c0-0.03,0-0.059-0.002-0.088  c0-0.013-0.002-0.027-0.004-0.041c-0.002-0.025-0.004-0.048-0.009-0.073c-0.003-0.019-0.007-0.038-0.011-0.056  c-0.005-0.019-0.008-0.038-0.013-0.056c-0.007-0.023-0.015-0.047-0.022-0.07c-0.005-0.014-0.008-0.027-0.013-0.041  c-0.011-0.028-0.022-0.056-0.036-0.083c-0.004-0.008-0.006-0.015-0.01-0.022c-0.002-0.004-0.004-0.008-0.005-0.012  c-0.001,0-0.001,0-0.001,0c-0.512-1.057-1-2.48-0.453-3.324c0.005-0.008,0.01-0.015,0.014-0.021  c0.611-0.905,2.363-1.043,3.092-1.021c0.227,0.04,0.464,0.017,0.684-0.079c0.209-0.091,0.373-0.236,0.488-0.41  c0.004-0.006,0.01-0.012,0.014-0.018c0.002-0.004,0.004-0.007,0.006-0.011c0.01-0.018,0.02-0.035,0.029-0.053  c0.084-0.15,0.135-0.321,0.142-0.506c0.008-0.246-0.062-0.479-0.187-0.677c-0.49-1.042-0.924-2.393-0.398-3.207  c0.004-0.007,0.01-0.015,0.014-0.021c0.65-0.963,2.594-1.058,3.22-1.016c0.003,0,0.008,0,0.013,0c0.043,0.002,0.088,0.003,0.131,0  c0.014,0,0.025,0,0.039-0.001c0.039-0.003,0.078-0.009,0.117-0.015c0.009-0.001,0.019-0.002,0.028-0.005  c0.044-0.009,0.088-0.02,0.132-0.034c0.016-0.005,0.03-0.012,0.045-0.018c0.02-0.007,0.038-0.013,0.057-0.021  c0.01-0.004,0.019-0.009,0.027-0.014c0.017-0.008,0.032-0.015,0.047-0.024c0.03-0.015,0.057-0.032,0.086-0.049  c0.01-0.006,0.021-0.012,0.031-0.019c0.039-0.027,0.075-0.055,0.109-0.086c0,0,0.001-0.001,0.002-0.002  c0.033-0.03,0.064-0.062,0.093-0.095c0.008-0.009,0.017-0.019,0.022-0.028c0.022-0.026,0.043-0.053,0.063-0.081  c0.005-0.008,0.011-0.014,0.016-0.021c0.002-0.004,0.004-0.009,0.006-0.013c0.022-0.035,0.043-0.07,0.061-0.107  c0.005-0.011,0.01-0.022,0.014-0.033c0.014-0.031,0.026-0.063,0.037-0.094c0.006-0.016,0.01-0.032,0.015-0.048  c0.009-0.03,0.017-0.062,0.022-0.092c0.002-0.013,0.006-0.026,0.008-0.04c0.008-0.045,0.012-0.092,0.014-0.139  c0-0.001,0.001-0.002,0.001-0.004c0-0.008-0.001-0.016-0.001-0.024c0.001-0.029,0.001-0.059-0.001-0.088  c-0.001-0.014-0.003-0.028-0.005-0.042c-0.002-0.023-0.004-0.048-0.009-0.073c-0.003-0.019-0.007-0.037-0.012-0.055  c-0.003-0.02-0.008-0.038-0.013-0.057c-0.006-0.023-0.014-0.046-0.021-0.07c-0.004-0.013-0.009-0.026-0.014-0.04  c-0.011-0.028-0.021-0.056-0.035-0.083c-0.004-0.007-0.006-0.015-0.01-0.022c-0.002-0.004-0.004-0.008-0.006-0.011  c0-0.001,0-0.001,0-0.002c-0.512-1.055-0.998-2.48-0.453-3.323c0.004-0.007,0.009-0.015,0.014-0.022  c0.65-0.962,2.594-1.057,3.219-1.015c0.005,0,0.01,0,0.014,0c0.044,0.003,0.087,0.003,0.131,0.001  c0.014-0.001,0.026-0.001,0.039-0.002c0.039-0.003,0.078-0.007,0.116-0.014c0.01-0.002,0.019-0.002,0.028-0.005  c0.045-0.009,0.088-0.02,0.133-0.035c0.016-0.005,0.029-0.011,0.046-0.017c0.019-0.007,0.038-0.013,0.056-0.021  c0.01-0.004,0.02-0.01,0.027-0.014c0.018-0.008,0.031-0.015,0.048-0.023c0.028-0.015,0.057-0.032,0.084-0.049  c0.011-0.006,0.022-0.012,0.032-0.02c0.038-0.026,0.074-0.054,0.109-0.085c0,0,0-0.001,0.002-0.002  c0.033-0.03,0.063-0.062,0.092-0.095c0.01-0.009,0.017-0.019,0.024-0.028c0.022-0.026,0.042-0.053,0.062-0.082  c0.004-0.007,0.01-0.013,0.016-0.021c0.002-0.003,0.004-0.008,0.007-0.012c0.021-0.035,0.042-0.07,0.06-0.107  c0.006-0.011,0.009-0.023,0.014-0.033c0.014-0.031,0.025-0.063,0.037-0.095c0.006-0.015,0.01-0.032,0.014-0.047  c0.01-0.031,0.018-0.062,0.023-0.092c0.003-0.013,0.006-0.026,0.008-0.04c0.008-0.045,0.013-0.092,0.014-0.14c0,0,0-0.001,0-0.003  c0-0.008,0-0.017,0-0.025c0-0.029,0-0.058-0.001-0.087c-0.001-0.015-0.003-0.028-0.005-0.042c-0.002-0.024-0.004-0.048-0.008-0.073  c-0.004-0.019-0.008-0.037-0.012-0.055c-0.005-0.02-0.008-0.038-0.014-0.057c-0.006-0.024-0.014-0.046-0.021-0.07  c-0.005-0.013-0.008-0.027-0.014-0.041c-0.01-0.028-0.022-0.056-0.035-0.083c-0.004-0.008-0.006-0.015-0.01-0.022  c-0.002-0.004-0.004-0.008-0.006-0.012c0,0,0,0,0-0.001c-0.512-1.056-0.999-2.48-0.453-3.323c0.004-0.007,0.008-0.015,0.014-0.022  c0.65-0.962,2.165-1.272,2.791-1.229c0.004,0,0.008-0.001,0.013,0c0.044,0.002,0.087,0.002,0.131,0.001  c0.013-0.001,0.026-0.002,0.04-0.003c0.038-0.002,0.076-0.008,0.115-0.015c0.01-0.001,0.02-0.003,0.029-0.004  c0.045-0.009,0.088-0.021,0.131-0.035c0.016-0.005,0.032-0.012,0.047-0.018c0.019-0.007,0.037-0.012,0.057-0.021  c0.008-0.003,0.018-0.009,0.027-0.013c0.016-0.008,0.031-0.016,0.047-0.024c0.029-0.016,0.057-0.031,0.084-0.049  c0.011-0.007,0.021-0.013,0.031-0.021c0.039-0.026,0.076-0.054,0.11-0.085c0.001-0.001,0.001-0.001,0.001-0.002  c0.033-0.03,0.064-0.061,0.094-0.095c0.009-0.009,0.016-0.018,0.023-0.028c0.021-0.026,0.042-0.054,0.062-0.082  c0.005-0.007,0.011-0.013,0.016-0.021c0.003-0.004,0.005-0.009,0.007-0.012c0.021-0.035,0.043-0.071,0.059-0.108  c0.007-0.011,0.01-0.022,0.016-0.034c0.014-0.031,0.025-0.062,0.037-0.094c0.005-0.016,0.01-0.032,0.014-0.047  c0.009-0.031,0.017-0.062,0.022-0.093c0.003-0.013,0.005-0.026,0.009-0.039c0.008-0.045,0.012-0.093,0.014-0.139  c0-0.001,0-0.003,0-0.003c0-0.009,0-0.017,0-0.025c0-0.029,0-0.058-0.002-0.088c-0.001-0.014-0.003-0.028-0.004-0.042  c-0.004-0.024-0.006-0.048-0.01-0.073c-0.003-0.019-0.008-0.038-0.012-0.056c-0.004-0.018-0.008-0.038-0.012-0.056  c-0.007-0.023-0.015-0.047-0.022-0.07c-0.005-0.014-0.009-0.027-0.013-0.041c-0.012-0.028-0.023-0.056-0.035-0.083  c-0.004-0.008-0.007-0.015-0.01-0.023c-0.002-0.003-0.004-0.008-0.007-0.011c0-0.001,0-0.001,0-0.001  c-0.511-1.056-0.569-2.266-0.024-3.11c0.004-0.007,1.884-2.229,1.071-3.017C89.31,5.107,88.633,5.155,88.205,5.582z M11.041,91.467  c-0.508,0.509-1.332,0.509-1.839,0c-0.508-0.508-0.508-1.331,0-1.839c0.508-0.509,1.332-0.509,1.839,0  C11.549,90.136,11.549,90.959,11.041,91.467z M82.514,17.208c-1.191,0.17-2.695,0.646-3.561,1.918  c-0.73,1.074-0.838,2.445-0.328,4.093c-1.191,0.17-2.694,0.646-3.562,1.918c-0.728,1.07-0.836,2.44-0.329,4.085  c-1.189,0.171-2.688,0.647-3.553,1.917c-0.73,1.073-0.837,2.445-0.328,4.092c-1.191,0.17-2.695,0.647-3.561,1.92  c-0.73,1.072-0.836,2.444-0.328,4.092c-1.191,0.17-2.695,0.646-3.562,1.919c-0.729,1.074-0.836,2.445-0.328,4.093  c-1.19,0.17-2.694,0.645-3.56,1.918c-0.73,1.072-0.836,2.444-0.328,4.093c-1.191,0.17-2.695,0.646-3.562,1.919  c-0.729,1.073-0.836,2.444-0.328,4.092c-1.19,0.171-2.693,0.647-3.56,1.919c-0.73,1.072-0.836,2.444-0.328,4.093  c-1.191,0.17-2.695,0.646-3.562,1.919c-0.73,1.073-0.836,2.445-0.328,4.093c-1.19,0.17-2.694,0.646-3.56,1.919  c-0.303,0.445-0.498,0.942-0.587,1.489l-4.979-4.979c-2.717-2.666-5.507-5.403-5.507-5.403l0.052-0.052l-0.211-0.212L82.27,14.523  C82.125,15.313,82.205,16.209,82.514,17.208z M86.402,11.196c-0.324,0.046-0.674,0.117-1.025,0.219l0.856-0.856  C86.279,10.766,86.334,10.979,86.402,11.196z"/>
</svg>