<svg xmlns="http://www.w3.org/2000/svg" xmlns:xlink="http://www.w3.org/1999/xlink" version="1.1" id="Layer_1" x="0px" y="0px" width="100px" height="100px" viewBox="0 0 100 100" enable-background="new 0 0 100 100" xml:space="preserve">
<path d="M13.939,92.991L35.53,69.9l8.786,8.786c0.269,0.269,0.649,0.396,1.026,0.343c0.263-0.036,0.504-0.159,0.688-0.343  c0.079-0.079,0.147-0.169,0.203-0.27l0.433-0.7l-0.087-0.087c0.3-0.882,3.648-10.575,10.396-23.606  c6.501-12.56,17.567-30.845,33.361-46.638c0.473-0.474,0.473-1.241,0-1.715c-0.076-0.076-0.161-0.138-0.249-0.19  c-0.003-0.002-0.007-0.006-0.011-0.008c-0.482-0.364-1.158-0.317-1.586,0.111L31.458,62.614L12.815,81.258L7.51,86.563  c-1.981,1.981-2.37,4.807-0.868,6.309l0.989,0.988C9.133,95.361,11.958,94.973,13.939,92.991z M33.225,64.277l-0.212-0.213  l39.185-39.185C64.637,35.128,58.858,45.11,54.82,52.908c-5.713,11.035-9.031,19.743-10.142,22.822l-5.999-5.999  c-2.717-2.665-5.507-5.403-5.507-5.403L33.225,64.277z M9.439,89.456c0.503-0.503,1.319-0.503,1.821,0  c0.503,0.503,0.503,1.319,0,1.821c-0.502,0.503-1.318,0.503-1.821,0C8.936,90.775,8.936,89.959,9.439,89.456z"/>
</svg>