<svg xmlns="http://www.w3.org/2000/svg" xmlns:xlink="http://www.w3.org/1999/xlink" version="1.1" id="Ebene_1" x="0px" y="0px" width="100px" height="100px" viewBox="0 0 100 100" enable-background="new 0 0 100 100" xml:space="preserve">
<g>
	<path d="M79.549,69.826l2.61,13.425H17.841l2.61-13.425H79.549 M63.756,80.75c1.599,0,2.896-1.299,2.896-2.896   c0-1.595-1.298-2.895-2.896-2.895c-1.596,0-2.895,1.3-2.895,2.895C60.861,79.451,62.16,80.75,63.756,80.75 M36.548,80.75   c1.597,0,2.896-1.299,2.896-2.896c0-1.595-1.299-2.895-2.896-2.895s-2.896,1.3-2.896,2.895   C33.652,79.451,34.951,80.75,36.548,80.75 M73.322,82.067c1.598,0,2.896-1.3,2.896-2.896s-1.299-2.895-2.896-2.895   c-1.596,0-2.896,1.298-2.896,2.895S71.727,82.067,73.322,82.067 M26.677,82.067c1.597,0,2.896-1.3,2.896-2.896   s-1.3-2.895-2.896-2.895c-1.596,0-2.895,1.298-2.895,2.895S25.081,82.067,26.677,82.067"/>
</g>
<path d="M98.167,60.977V24.16c0-1.745-1.413-3.159-3.157-3.159H4.991c-1.745,0-3.159,1.414-3.159,3.159v36.817H0.943v15.991h0.889  v2.335c0,1.745,1.414,3.159,3.159,3.159h11.395l2.577-13.255l0.187-0.958h0.977h59.748h0.978l0.187,0.958l2.576,13.255H95.01  c1.744,0,3.157-1.414,3.157-3.159v-2.335h0.89V60.977H98.167z M29.732,54.166c-3.343,0-6.054-2.711-6.054-6.054  c0-3.344,2.711-6.054,6.054-6.054c3.344,0,6.055,2.71,6.055,6.054C35.787,51.455,33.076,54.166,29.732,54.166z M61.104,52.981  H38.896v-9.739h22.207V52.981z M70.456,54.166c-3.344,0-6.054-2.711-6.054-6.054c0-3.344,2.71-6.054,6.054-6.054  c3.343,0,6.054,2.71,6.054,6.054C76.51,51.455,73.799,54.166,70.456,54.166z M92.115,37.32c0,0.872-0.708,1.579-1.581,1.579H9.466  c-0.872,0-1.579-0.707-1.579-1.579v-8.95c0-0.872,0.707-1.579,1.579-1.579h81.068c0.873,0,1.581,0.707,1.581,1.579V37.32z"/>
</svg>