<svg xmlns="http://www.w3.org/2000/svg" xmlns:xlink="http://www.w3.org/1999/xlink" version="1.1" id="Layer_1" x="0px" y="0px" width="99.999px" height="88.002px" viewBox="545.29 377.089 99.999 88.002" enable-background="new 545.29 377.089 99.999 88.002" xml:space="preserve">
<path d="M641.036,409.246h-8.828c-0.909-2.266-2.047-4.43-3.401-6.465v-25.692l-16.763,11.625  c-5.668-2.594-12.074-4.086-18.88-4.086c-20.082,0-36.829,12.743-40.663,29.669c-4.002,0.125-7.211,3.371-7.211,7.387  c0,4.013,3.209,7.263,7.211,7.388c1.752,7.729,6.226,14.559,12.453,19.73l-2.289,16.289h17.731l0.24-8.078  c3.95,1.117,8.159,1.727,12.526,1.727s8.574-0.609,12.527-1.727l0.238,8.078h17.728l-2.281-16.289  c4.828-4.01,8.57-9.021,10.832-14.682h8.828c2.34,0,4.254-1.906,4.254-4.234V413.48C645.29,411.148,643.376,409.246,641.036,409.246  z M608.746,399.719c-0.629,1.723-2.262,2.793-4,2.793c-0.479,0-0.973-0.086-1.448-0.258c-6.414-2.312-13.855-2.312-20.265,0  c-2.209,0.801-4.652-0.336-5.453-2.535c-0.803-2.199,0.338-4.629,2.547-5.426c8.277-2.993,17.796-2.993,26.072,0  C608.41,395.09,609.548,397.52,608.746,399.719z"/>
</svg>