<svg xmlns="http://www.w3.org/2000/svg" xmlns:xlink="http://www.w3.org/1999/xlink" version="1.1" id="Layer_1" x="0px" y="0px" width="100px" height="100px" viewBox="0 0 100 100" enable-background="new 0 0 100 100" xml:space="preserve">
<path fill="#000000" d="M24.559,25.831c4.258,1.021,11.009,2.237,18.979,2.237c17.961,0,31.381-3.482,31.381-6.595  c0-3.244-13.969-7.162-31.318-7.162c-14.594,0-25.271,2.875-28.56,7.688c-0.458,0.671-3.917,6.15-6.125,9.654  C13.716,29.194,22.023,25.226,24.559,25.831z"/>
<path fill="#000000" d="M98.465,29.542c0.006-0.377-0.067-0.854-0.371-1.4c-0.519-0.935-2.11-3.73-17.149-7.236  c-0.542-7.171-18.15-10.929-35.583-10.929c-13.992,0-31.501,1.819-35.463,10.487c-0.407,0.89-4.51,8.102-7.002,12.438l-2.801,4.744  L0,37.695l0.058,0.013l-0.022,0.041l0.119-0.019l4.95,1.092l7.037,1.553l8.827,41.595l0.12,0.567l0.422,0.398  c0.251,0.238,6.38,5.851,23.869,5.72c18.212-0.137,21.792-3.213,25.58-6.471l0.289-0.247l0.521-0.448  c0.002,0,0.107-0.677,0.107-0.677l7.229-45.623l7.032,1.652c0.419,1.996,1.536,7.923,4.075,24.437  c0.017,0.607,0.184,2.125,1.432,3.286c1.115,1.036,2.686,1.438,4.665,1.189C97.948,65.55,102.296,65.003,98.465,29.542z   M3.609,36.59l1.886-3c0.296-0.474,7.31-11.623,8.006-12.644c3.693-5.401,14.663-8.499,30.099-8.499  c13.382,0,33.182,2.868,33.182,9.025c0,6.162-20.392,8.458-33.244,8.458c-8.151,0-15.055-1.245-19.412-2.288  c-1.892-0.451-11.313,3.976-17.4,7.263L3.609,36.59z M95.391,62.092c-0.561,0.021-0.988-0.061-1.197-0.246  c-0.251-0.222-0.259-0.665-0.259-0.669v-0.142c0.002-0.055-0.02-0.197-0.02-0.197c-3.557-23.141-4.386-25.915-4.47-26.155  l-0.335-0.971l-1-0.235l-10.104-2.373l-1.951-0.458l-0.313,1.981l-7.437,46.927c-3.18,2.726-6.494,5.254-22.954,5.376  c-13.42,0.101-19.369-3.342-20.879-4.4l-8.934-42.103l-0.25-1.174l-1.171-0.259l-3.104-0.685l12.074-6.094  c1.183,0.279,2.434,0.53,3.726,0.761c5.215,1.167,10.855,1.777,16.858,1.777c2.822,0,5.445-0.153,7.889-0.416  c12.719-0.654,24.391-3.335,28.145-7.898c12.079,2.781,14.609,4.915,15.048,5.405C96.222,43.452,96.852,59.296,95.391,62.092z"/>
<path fill="#000000" d="M37.85,49.051c2.501,0,5.319-0.303,8.339-1.13c0.497-0.137,0.79-0.648,0.653-1.145  c-0.137-0.496-0.651-0.783-1.145-0.652c-4.042,1.108-7.709,1.194-10.693,0.896l-0.662-9.461c-0.036-0.514-0.504-0.897-0.995-0.865  c-0.513,0.037-0.898,0.481-0.864,0.994l0.635,9.083c-3.519-0.586-5.698-1.609-5.74-1.628c-0.462-0.226-1.019-0.033-1.244,0.429  c-0.226,0.461-0.035,1.018,0.427,1.245c0.188,0.091,2.694,1.286,6.693,1.89l0.604,8.625c-3.958-0.553-6.436-1.725-6.48-1.744  c-0.462-0.225-1.019-0.033-1.244,0.429s-0.035,1.019,0.427,1.244c0.199,0.099,3.017,1.419,7.43,1.979l0.788,11.257  c-4.484-0.483-7.353-1.831-7.398-1.855c-0.469-0.224-1.021-0.032-1.246,0.43s-0.035,1.019,0.427,1.244  c0.211,0.104,3.406,1.608,8.35,2.085l0.531,7.59c0.035,0.491,0.444,0.865,0.928,0.865c0.022,0,0.045,0,0.067-0.001  c0.513-0.037,0.899-0.482,0.864-0.995l-0.515-7.345c0.356,0.011,0.693,0.04,1.064,0.04c2.501,0,5.317-0.304,8.337-1.131  c0.497-0.137,0.79-0.649,0.653-1.145c-0.137-0.499-0.651-0.784-1.145-0.653c-3.321,0.913-6.392,1.132-9.041,1.017l-0.784-11.221  c0.64,0.042,1.292,0.077,1.981,0.077c2.501,0,5.315-0.303,8.335-1.13c0.497-0.137,0.79-0.649,0.653-1.145s-0.644-0.787-1.145-0.653  c-3.714,1.018-7.114,1.172-9.958,0.959l-0.603-8.605C35.998,48.998,36.893,49.051,37.85,49.051z"/>
</svg>