<svg xmlns="http://www.w3.org/2000/svg" xmlns:xlink="http://www.w3.org/1999/xlink" version="1.1" id="Layer_1" x="0px" y="0px" width="28.66px" height="99.912px" viewBox="0 0 28.66 99.912" enable-background="new 0 0 28.66 99.912" xml:space="preserve">
<path fill="#000000" d="M12.77,41.32c0-2.544-1.786-20.612-2.031-23.321c-0.246-2.708-0.734-1.395-0.734,0  c0,1.396,0.399,18.04,0.399,20.37c0,2.332-1.023,2.659-1.061,1.183C9.28,37.008,8.334,20.708,8.089,17.999  c-0.245-2.708-0.733-1.395-0.733,0c0,1.396-0.376,21.117-0.377,22.138c0,0.953-1.155,0.936-1.155,0  c-0.001-1.021-0.376-20.742-0.376-22.138c0-1.395-0.49-2.708-0.734,0c-0.245,2.708-1.19,19.009-1.254,21.553  c-0.037,1.476-1.06,1.149-1.06-1.183c0-2.33,0.399-18.973,0.399-20.37c0-1.395-0.489-2.708-0.733,0  C1.82,20.708,0.034,38.775,0.034,41.32L0,42.939c0,5.71,4.277,5.783,4.277,10.028c0,3.6-0.36,26.795-0.388,27.347  c-0.26,5.122-1.687,10.812-1.687,15.57c0,4.027,4.199,4.027,4.199,4.027h0c0,0,4.199,0,4.199-4.027  c0-4.759-1.428-10.448-1.687-15.57c-0.028-0.552-0.388-23.747-0.388-27.347c0-4.245,4.276-4.317,4.276-10.028L12.77,41.32z"/>
<path fill="#000000" d="M26.532,1.554c0-1.295,0.196-1.538-1.036-1.554c-3.883-0.051-6.084,15.662-6.569,19.513  c-0.339,2.699-1.45,17.746-1.45,20.29v2.165c0,5.71,4.472,6.754,4.472,11c0,3.6-1.331,26.795-1.359,27.347  c-0.26,5.122-0.717,10.812-0.717,15.571c0,4.026,4.199,4.026,4.199,4.026h0.001c0,0,4.586,0,4.586-4.026  c0-4.76-1.039-10.449-1.298-15.571c-0.027-0.552-1.165-23.747-1.165-27.347C26.145,50.661,26.532,2.848,26.532,1.554z"/>
</svg>