<svg xmlns="http://www.w3.org/2000/svg" xmlns:xlink="http://www.w3.org/1999/xlink" version="1.1" id="Layer_1" x="0px" y="0px" width="100px" height="100px" viewBox="0 0 100 100" enable-background="new 0 0 100 100" xml:space="preserve">
<g>
	<path d="M58.199,37.5c0,0.255-0.029,0.512-0.086,0.764l-0.723,5.418l8.778-3.182h33.422l0.409-3H58.199z"/>
</g>
<path d="M28.008,30.75C12.54,30.75,0,33.771,0,37.5l3.311,24.798c1.546,3.169,11.057,6.952,24.698,6.952s23.077-3.508,24.698-6.952  l3.31-24.798C56.016,33.771,43.476,30.75,28.008,30.75z M53.707,37.532c-0.295,1.29-8.644,4.739-25.699,4.739  c-17.056,0-25.404-3.449-25.7-4.761c0.295-1.312,8.644-4.761,25.7-4.761c17.055,0,25.404,3.449,25.699,4.739V37.532z"/>
</svg>