<svg xmlns="http://www.w3.org/2000/svg" xmlns:xlink="http://www.w3.org/1999/xlink" version="1.1" id="Layer_1" x="0px" y="0px" width="100px" height="100px" viewBox="0 0 100 100" enable-background="new 0 0 100 100" xml:space="preserve">
<path d="M50,0C22.386,0,0,22.386,0,50s22.386,50,50,50s50-22.386,50-50S77.614,0,50,0z M47.557,89.203  c-1.431,0.826-2.766,1.24-4.006,1.24c-1.016,0-1.89-0.451-2.622-1.354c-0.733-0.902-1.1-2.199-1.1-3.891  c0-2.443,0.995-7.367,2.988-14.773c3.931-14.51,5.897-23.25,5.897-26.221c0-1.428-0.545-2.143-1.635-2.143  c-1.204,0-4.192,1.635-8.966,4.905l-1.128-2.255c9.288-6.954,15.394-10.432,18.316-10.432c0.898,0,1.59,0.253,2.078,0.761  c0.486,0.507,0.73,1.25,0.73,2.227c0,2.368-0.865,6.805-2.594,13.309c-4.404,16.578-6.605,26.633-6.605,30.166  c0,1.279,0.583,1.918,1.749,1.918c1.354,0,4.38-1.691,9.081-5.076l1.127,2.199C55.492,84.109,51.054,87.248,47.557,89.203z   M61.127,22.37c-1.26,1.429-2.697,2.143-4.312,2.143c-1.316,0-2.406-0.441-3.271-1.325c-0.865-0.883-1.297-2.095-1.297-3.637  c0-1.917,0.678-3.609,2.029-5.075c1.354-1.466,2.857-2.199,4.512-2.199c1.316,0,2.35,0.414,3.102,1.241  c0.752,0.827,1.127,2.011,1.127,3.552C63.016,19.175,62.387,20.942,61.127,22.37z"/>
</svg>