<svg xmlns="http://www.w3.org/2000/svg" xmlns:xlink="http://www.w3.org/1999/xlink" version="1.1" id="Layer_1" x="0px" y="0px" width="100px" height="100px" viewBox="0 0 100 100" enable-background="new 0 0 100 100" xml:space="preserve">
<path d="M60.734,17.315v-4.927c0-1.672-1.008-3.105-2.444-3.738c0.004-0.117,0.018-0.231,0.018-0.35C58.308,3.717,54.59,0,50.005,0  c-4.585,0-8.302,3.717-8.302,8.301c0,0.118,0.013,0.233,0.018,0.35c-1.438,0.633-2.444,2.066-2.444,3.738v4.927  c3.431-0.883,7.025-1.354,10.728-1.354S57.302,16.432,60.734,17.315z M50.005,3.065c2.888,0,5.237,2.349,5.237,5.236H44.769  C44.769,5.414,47.118,3.065,50.005,3.065z"/>
<path d="M64.516,56.468L50.415,80.894L36.313,56.468L22.212,80.892L9.032,58.062c-0.007,0.313-0.024,0.624-0.024,0.939  C9.008,81.645,27.363,100,50.005,100c22.489,0,40.741-18.112,40.986-40.543L78.617,80.894L64.516,56.468z"/>
<path d="M79.501,58.925l-0.884,1.532l-0.887-1.532L64.516,36.032L51.299,58.925l-0.884,1.532l-0.885-1.532L36.313,36.032  L23.097,58.925l-0.885,1.532l-0.885-1.532l-9.126-15.808c-1.707,4.057-2.77,8.45-3.084,13.047l13.096,22.685l13.216-22.892  l0.885-1.533l0.885,1.533l13.216,22.894L63.63,55.957l0.886-1.533l0.885,1.533l13.217,22.894L90.964,57.46  c-0.176-4.752-1.161-9.296-2.822-13.502L79.501,58.925z"/>
<path d="M36.313,33.988l14.101,24.425l14.101-24.425l14.102,24.425l9.036-15.653c-6.292-14.561-20.776-24.755-37.648-24.755  c-16.562,0-30.819,9.827-37.288,23.961l9.495,16.447L36.313,33.988z"/>
</svg>