<svg xmlns="http://www.w3.org/2000/svg" xmlns:xlink="http://www.w3.org/1999/xlink" version="1.1" id="Layer_1" x="0px" y="0px" width="88.391px" height="100px" viewBox="0 0 88.391 100" enable-background="new 0 0 88.391 100" xml:space="preserve">
<g>
	<path fill="#000000" d="M79.063,21.562C78.721,9.599,63.241-0.031,44.196-0.031c-19.048,0-34.523,9.63-34.867,21.594H9.32v61.841   l17.036,16.628h35.28l17.437-17.437V21.562H79.063z M73.391,80.24l-14.11,14.112H28.668L15,81.01V21.94l0.005-0.215   c0.148-5.156,4.911-8.867,7.736-10.621c5.674-3.52,13.294-5.459,21.454-5.459s15.78,1.939,21.454,5.459   c2.826,1.754,7.591,5.465,7.736,10.621l0.005,0.192V80.24z"/>
	<polygon fill="#000000" points="48.726,47.491 56.662,47.491 38.448,66.274 66.195,66.274 66.195,34.641 55.151,34.641  "/>
	<polygon fill="#000000" points="32.957,52.492 41.884,34.641 22.197,34.641 22.197,66.274 34.005,66.274 40.896,52.492  "/>
</g>
</svg>