<svg xmlns="http://www.w3.org/2000/svg" xmlns:xlink="http://www.w3.org/1999/xlink" version="1.1" id="icon" x="0px" y="0px" width="70px" height="70px" viewBox="0 0 60.22 99.6" enable-background="new 0 0 60.22 99.6" xml:space="preserve">
<path d="M5.08,59.6h50c0,0,4.189,8.224,5,14c1.333,9.5-6.667,26-30,26c-22.667,0-31-16-30-26C0.677,67.627,5.08,59.6,5.08,59.6z"/>
<path d="M14.08,40.6h32c0.877,0.212,2.469,2.272,3,3c2.146,2.94,4,13,4,13h-46c0,0,1.854-10.06,4-13  C11.611,42.872,13.204,40.813,14.08,40.6z"/>
<path d="M35.664,37.6l8.416-23c0,0-2.063-0.813-1.25-3.063c0.788-2.184,2.917-1.937,2.917-1.937L51.08,0l1.667,0.6l-2.5,10.833  c0,0,1.833,1.042,1.083,3.167c-0.762,2.159-2.917,1.667-2.917,1.667L40.664,37.6H35.664z"/>
</svg>