<svg xmlns="http://www.w3.org/2000/svg" xmlns:xlink="http://www.w3.org/1999/xlink" version="1.1" id="Layer_1" x="0px" y="0px" width="100px" height="100px" viewBox="0 0 100 100" enable-background="new 0 0 100 100" xml:space="preserve">
<path fill="#000000" d="M18.906,89.141C27.443,95.932,38.244,100,50,100c11.645,0,22.35-3.991,30.849-10.666L49.781,58.267  L18.906,89.141z"/>
<path fill="#000000" d="M10.666,19.151C3.992,27.65,0,38.355,0,50c0,11.557,3.931,22.188,10.515,30.656l30.828-30.828L10.666,19.151  z"/>
<path fill="#000000" d="M80.656,10.515C72.188,3.931,61.557,0,50,0C38.355,0,27.65,3.992,19.151,10.666l30.677,30.677L80.656,10.515  z"/>
<path fill="#000000" d="M89.334,80.849C96.009,72.35,100,61.645,100,50c0-11.756-4.068-22.557-10.859-31.094L58.267,49.781  L89.334,80.849z"/>
</svg>