<svg xmlns="http://www.w3.org/2000/svg" xmlns:xlink="http://www.w3.org/1999/xlink" version="1.1" id="Layer_1" x="0px" y="0px" width="100px" height="100px" viewBox="0 0 100 100" enable-background="new 0 0 100 100" xml:space="preserve">
<path fill="#000000" d="M50,0C22.386,0,0,22.386,0,50s22.386,50,50,50c27.613,0,50-22.386,50-50S77.613,0,50,0z M56.363,50  l29.886-29.885C92.963,28.244,97,38.659,97,50s-4.038,21.757-10.751,29.885L56.363,50z M79.885,13.75L50,43.636L20.116,13.75  C28.244,7.038,38.659,3,50,3S71.756,7.038,79.885,13.75z M13.75,20.115L43.636,50L13.751,79.885C7.038,71.757,3,61.341,3,50  S7.038,28.244,13.75,20.115z M20.115,86.249L50,56.364l29.885,29.885C71.757,92.962,61.341,97,50,97S28.243,92.962,20.115,86.249z"/>
</svg>