<svg xmlns="http://www.w3.org/2000/svg" xmlns:xlink="http://www.w3.org/1999/xlink" version="1.1" id="Layer_1" x="0px" y="0px" width="100px" height="100px" viewBox="0 0 100 100" enable-background="new 0 0 100 100" xml:space="preserve">
<path d="M11.163,74.134C17.481,83.271,26.702,90.904,37.764,96c2.93,1.35,9.174,4.003,12.236,4c3.061,0.003,9.306-2.65,12.236-4  c11.062-5.096,20.282-12.729,26.602-21.866c8.409-12.162,14.087-31.431,9.55-50.467H1.612C-2.925,42.703,2.753,61.972,11.163,74.134  z"/>
<path d="M87.241,0c-8.742,2.557-18.129,3.251-28.197,1.867C55.927,1.438,52.806,0,50,0c-2.806,0-5.927,1.438-9.044,1.867  C30.888,3.251,21.501,2.557,12.759,0C8.77,5.127,5.432,10.907,3.404,18h93.191C94.568,10.907,91.231,5.127,87.241,0z"/>
</svg>