<svg xmlns="http://www.w3.org/2000/svg" xmlns:xlink="http://www.w3.org/1999/xlink" version="1.0" x="0px" y="0px" width="32.957px" height="99.85px" viewBox="0 0 32.957 99.85" overflow="visible" enable-background="new 0 0 32.957 99.85" xml:space="preserve">
    <path d="M32.079,42.206h-0.105v-6.391h0.105c0.486,0,0.878-0.391,0.878-0.874c0-0.485-0.392-0.875-0.878-0.875h-0.105v-3.91 h-0.847V0H1.824v30.156H0.976v2.158h15.504c0.483,0,0.872,0.391,0.872,0.875c0,0.483-0.389,0.876-0.872,0.876H0.976h-0.1 C0.394,34.066,0,34.457,0,34.941c0,0.482,0.394,0.874,0.875,0.874h0.1v4.638h15.504c0.483,0,0.872,0.392,0.872,0.875 c0,0.484-0.389,0.878-0.872,0.878H0.976h-0.1C0.394,42.206,0,42.595,0,43.078c0,0.483,0.394,0.875,0.875,0.875h0.1v2.746h0.85 c0.004,0.795,0.499,1.471,1.2,1.74c6.192,2.368,10.591,8.366,10.591,15.389c0,3.01-1.608,9.688-2.056,13.643 c-0.245,2.168-0.36,4.535-0.36,7.012c0,4.953,0.516,9.473,1.358,12.881c0.403,1.424,2.002,2.486,3.917,2.486 c1.911,0,3.515-1.062,3.914-2.486c0.845-3.408,1.36-7.928,1.36-12.881c0-2.477-0.119-4.844-0.362-7.012 c-0.444-3.955-2.053-10.633-2.053-13.643c0-7.023,4.397-13.021,10.59-15.389c0.698-0.269,1.194-0.945,1.199-1.74h0.85v-2.746 h0.105c0.486,0,0.878-0.393,0.878-0.875C32.957,42.595,32.565,42.206,32.079,42.206z M16.479,95.613 c-1.108,0-2.008-0.896-2.008-2.002c0-1.109,0.9-2.006,2.008-2.006c1.106,0,2.006,0.896,2.006,2.006 C18.485,94.717,17.586,95.613,16.479,95.613z M20.074,42.206c-0.486,0-0.877-0.394-0.877-0.878 c0-0.483,0.391-0.875,0.877-0.875c0.482,0,0.875,0.392,0.875,0.875C20.949,41.812,20.557,42.206,20.074,42.206z M20.074,34.066 c-0.486,0-0.877-0.394-0.877-0.876c0-0.484,0.391-0.875,0.877-0.875c0.482,0,0.875,0.391,0.875,0.875 C20.949,33.672,20.557,34.066,20.074,34.066z"/>
</svg>