<?xml version="1.0" encoding="utf-8"?>
<!-- Generator: Adobe Illustrator 14.0.0, SVG Export Plug-In . SVG Version: 6.00 Build 43363)  -->
<!DOCTYPE svg PUBLIC "-//W3C//DTD SVG 1.0//EN" "http://www.w3.org/TR/2001/REC-SVG-20010904/DTD/svg10.dtd">
<svg version="1.0" id="Layer_1" xmlns="http://www.w3.org/2000/svg" xmlns:xlink="http://www.w3.org/1999/xlink" x="0px" y="0px"
	 width="95.29px" height="100px" viewBox="0 0 95.29 100" enable-background="new 0 0 95.29 100" xml:space="preserve">
<path d="M44.351,26.687l-2.163,17.592l5.446,5.717V0L45.51,17.275c-15.397,1.281-27.657,14.249-28.717,30.451l8.934-1.21
	C27.16,36.372,34.732,28.339,44.351,26.687z M50.907,73.468l2.185-17.747l-5.443-5.713H95.29L79.25,47.834
	c-1.031-16.523-13.704-29.711-29.497-30.619l1.15,9.351c10.024,1.343,17.988,9.595,19.417,20.06l-17.229-2.334l-5.444,5.715
	l-0.004-0.003l0.001-0.001H0l16.79,2.275c1.05,16.218,13.323,29.207,28.732,30.48l-1.157-9.407
	c-9.635-1.647-17.214-9.704-18.64-19.865l16.471,2.235l5.446-5.718V100l2.116-17.188C65.551,81.902,78.224,68.71,79.25,52.181
	l-8.93,1.21C68.893,63.863,60.932,72.118,50.907,73.468z"/>
</svg>
