<svg xmlns="http://www.w3.org/2000/svg" xmlns:xlink="http://www.w3.org/1999/xlink" version="1.1" x="0px" y="0px" width="100px" height="100px" viewBox="0 0 100 100" enable-background="new 0 0 100 100" xml:space="preserve">
<g id="Layer_1">
</g>
<g id="Layer_2">
	<g>
		<path d="M37.467,85.189c0,5.683,4.568,10.311,10.185,10.311h8.668c5.617,0,10.187-4.628,10.187-10.311V14.888    c0-5.686-4.569-10.311-10.187-10.312l-8.668,0c-5.617,0-10.185,4.625-10.185,10.311V85.189z M56.319,93.915h-8.668    c-4.753,0-8.617-3.914-8.617-8.726V14.888c0-4.812,3.864-8.725,8.617-8.725h8.668c4.753,0,8.617,3.913,8.617,8.725v70.302    C64.937,89.998,61.072,93.915,56.319,93.915z"/>
		<path d="M41.246,38.938v22.2c0,2.831,2.266,5.126,5.061,5.126h11.354c2.798,0,5.063-2.297,5.063-5.126v-22.2    c0.002-2.83-2.266-5.123-5.063-5.123H46.307C43.512,33.814,41.246,36.108,41.246,38.938z M59.419,60.828    c0,0.974-0.781,1.764-1.74,1.764c-0.963,0-1.742-0.79-1.742-1.764c0-0.975,0.779-1.763,1.742-1.763    C58.638,59.065,59.419,59.854,59.419,60.828z M53.76,60.828c0,0.974-0.777,1.764-1.74,1.764c-0.96,0-1.741-0.79-1.741-1.764    c0-0.975,0.781-1.763,1.741-1.763C52.982,59.065,53.76,59.854,53.76,60.828z M48.103,60.828c0,0.974-0.778,1.764-1.743,1.764    c-0.96,0-1.739-0.79-1.739-1.764c0-0.975,0.779-1.763,1.739-1.763C47.325,59.065,48.103,59.854,48.103,60.828z M56.808,55.1    c0,0.973-0.781,1.763-1.739,1.763c-0.964,0-1.743-0.79-1.743-1.763c0-0.974,0.779-1.764,1.743-1.761    C56.026,53.339,56.808,54.126,56.808,55.1z M51.15,55.1c-0.002,0.973-0.781,1.763-1.743,1.763c-0.958,0-1.74-0.79-1.74-1.763    c0-0.974,0.781-1.764,1.74-1.761C50.369,53.339,51.148,54.126,51.15,55.1z M59.419,49.812c0,0.975-0.781,1.762-1.74,1.762    c-0.963,0-1.742-0.787-1.742-1.762c0-0.972,0.779-1.763,1.742-1.763C58.638,48.048,59.419,48.838,59.419,49.812z M53.76,49.812    c0,0.975-0.777,1.762-1.74,1.762c-0.96,0-1.741-0.787-1.741-1.762c0-0.972,0.781-1.763,1.741-1.763    C52.982,48.048,53.76,48.838,53.76,49.812z M48.103,49.812c0,0.975-0.778,1.762-1.743,1.762c-0.96,0-1.739-0.789-1.739-1.762    c0-0.972,0.779-1.763,1.742-1.763C47.325,48.048,48.103,48.84,48.103,49.812z M56.808,44.524c0,0.973-0.781,1.763-1.739,1.763    c-0.964,0-1.743-0.79-1.743-1.763c0-0.974,0.779-1.763,1.743-1.763C56.026,42.761,56.808,43.55,56.808,44.524z M51.15,44.524    c-0.002,0.973-0.781,1.763-1.743,1.763c-0.958,0-1.74-0.79-1.74-1.763c0-0.974,0.781-1.763,1.74-1.763    C50.369,42.761,51.15,43.55,51.15,44.524z M59.419,39.236c0,0.975-0.781,1.761-1.74,1.761c-0.963,0-1.742-0.787-1.742-1.761    c0-0.975,0.779-1.763,1.742-1.763C58.638,37.473,59.419,38.261,59.419,39.236z M53.76,39.236c0,0.975-0.777,1.761-1.74,1.761    c-0.96,0-1.741-0.787-1.741-1.761c0-0.975,0.781-1.763,1.741-1.763C52.982,37.473,53.76,38.261,53.76,39.236z M48.103,39.236    c0,0.975-0.778,1.761-1.74,1.761c-0.963,0-1.742-0.787-1.742-1.761c0-0.975,0.779-1.763,1.739-1.763    C47.325,37.475,48.103,38.261,48.103,39.236z"/>
		<ellipse cx="45.671" cy="70.958" rx="1.954" ry="1.979"/>
		<ellipse cx="58.369" cy="70.958" rx="1.956" ry="1.979"/>
		<ellipse cx="52.02" cy="70.958" rx="1.953" ry="1.979"/>
		<ellipse cx="49.09" cy="77.387" rx="1.952" ry="1.977"/>
		<ellipse cx="55.438" cy="77.387" rx="1.955" ry="1.977"/>
		<ellipse cx="49.09" cy="89.255" rx="1.952" ry="1.979"/>
		<ellipse cx="55.438" cy="89.255" rx="1.955" ry="1.979"/>
		<ellipse cx="45.671" cy="83.32" rx="1.954" ry="1.978"/>
		<ellipse cx="58.37" cy="83.32" rx="1.955" ry="1.978"/>
		<ellipse cx="52.02" cy="83.32" rx="1.953" ry="1.978"/>
		<ellipse cx="45.671" cy="29.547" rx="1.954" ry="1.977"/>
		<ellipse cx="58.37" cy="29.547" rx="1.955" ry="1.977"/>
		<ellipse cx="52.02" cy="29.547" rx="1.953" ry="1.977"/>
		<ellipse cx="49.09" cy="23.117" rx="1.952" ry="1.978"/>
		<ellipse cx="55.438" cy="23.117" rx="1.955" ry="1.978"/>
		<ellipse cx="49.09" cy="11.25" rx="1.952" ry="1.978"/>
		<ellipse cx="55.438" cy="11.25" rx="1.955" ry="1.978"/>
		<ellipse cx="45.671" cy="17.183" rx="1.954" ry="1.977"/>
		<ellipse cx="58.368" cy="17.183" rx="1.957" ry="1.977"/>
		<ellipse cx="52.02" cy="17.183" rx="1.953" ry="1.977"/>
	</g>
</g>
</svg>