<svg xmlns="http://www.w3.org/2000/svg" xmlns:xlink="http://www.w3.org/1999/xlink" version="1.1" x="0px" y="0px" width="100px" height="100px" viewBox="0 0 100 100" enable-background="new 0 0 100 100" xml:space="preserve">
<g id="Layer_1">
</g>
<g id="Layer_2">
	<path d="M66.522,29.699c0.059-0.039,0.094-0.078,0.094-0.119c0-0.609-6.99-1.104-15.615-1.104c-8.627,0-15.618,0.494-15.618,1.104   c0,0.041,0.034,0.08,0.094,0.119c-0.081,0.041-0.138,0.106-0.138,0.185v61.197c0,0.078,0.057,0.143,0.138,0.183   c-0.06,0.04-0.094,0.08-0.094,0.121c0,0.61,6.991,1.103,15.618,1.103c8.625,0,15.615-0.492,15.615-1.103   c0-0.041-0.033-0.081-0.094-0.119c0.082-0.042,0.139-0.106,0.139-0.185V29.884C66.661,29.806,66.604,29.74,66.522,29.699z    M62.296,68.5c0,1.703-1.381,3.085-3.084,3.085H42.788c-1.705,0-3.085-1.382-3.085-3.085V38.832c0-1.703,1.381-3.084,3.085-3.084   h16.424c1.703,0,3.084,1.381,3.084,3.084V68.5z"/>
	<path d="M60.812,27.762c0.107,0,0.195-0.009,0.195-0.021v-5.759c0-0.007-0.027-0.012-0.068-0.017   c0.021-0.018,0.039-0.036,0.039-0.055c0-0.391-4.467-0.705-9.977-0.705c-5.512,0-9.979,0.314-9.979,0.705   c0,0.019,0.02,0.037,0.039,0.055c-0.041,0.005-0.067,0.01-0.067,0.017v5.759c0,0.013,0.088,0.021,0.194,0.021H60.812z"/>
	<path d="M57.728,20.58c0.074,0,0.135-0.012,0.135-0.027v-3.179h2.904c0.012,0,0.021-0.01,0.024-0.021   c-0.477-0.049-0.856-0.57-0.856-1.224s0.38-1.175,0.856-1.224c-0.002-0.011-0.012-0.022-0.024-0.022h-2.904v-1.865   c0-0.009-0.02-0.016-0.047-0.021c0.014-0.023,0.027-0.048,0.027-0.072c0-0.509-3.064-0.923-6.844-0.923   c-3.777,0-6.844,0.414-6.844,0.923c0,0.024,0.016,0.049,0.029,0.073c-0.029,0.004-0.047,0.011-0.047,0.02v7.535   c0,0.016,0.061,0.027,0.135,0.027H57.728z"/>
	<path d="M60.794,17.35c0,0.002-0.003,0.001-0.003,0.003c0.023,0.002,0.043,0.019,0.067,0.019c0.51,0,0.924-0.557,0.924-1.242   s-0.414-1.242-0.924-1.242c-0.023,0-0.044,0.016-0.067,0.018c0.001,0.001,0.003,0.001,0.003,0.002V17.35z"/>
	<path d="M59.935,16.129c0,0.653,0.38,1.175,0.856,1.224c0-0.001,0.003-0.001,0.003-0.003v-2.442c0-0.001-0.002-0.001-0.003-0.002   C60.314,14.954,59.935,15.476,59.935,16.129z"/>
	<path d="M53.767,44.122l-0.002-0.005l-2.752-2.764l-2.766,2.777l-0.002,0.004c-0.732,0.717-1.191,1.713-1.197,2.817   c0,0.003,0,0.007,0,0.01c-0.002,1.092,0.438,2.078,1.15,2.792c0.713,0.713,1.701,1.154,2.793,1.151   c2.182-0.005,3.957-1.778,3.961-3.961c0-0.005-0.002-0.008-0.002-0.011C54.95,45.83,54.497,44.836,53.767,44.122z"/>
</g>
</svg>