<svg xmlns="http://www.w3.org/2000/svg" xmlns:xlink="http://www.w3.org/1999/xlink" version="1.1" x="0px" y="0px" width="100px" height="100px" viewBox="0 0 100 100" enable-background="new 0 0 100 100" xml:space="preserve">
<g id="Layer_1">
</g>
<g id="Layer_2">
	<path d="M61.407,23.336c0.021-0.019,0.042-0.038,0.042-0.058c0-0.413-4.734-0.747-10.572-0.747c-5.843,0-10.575,0.333-10.575,0.747   c0,0.02,0.019,0.04,0.042,0.058c-0.042,0.005-0.072,0.011-0.072,0.017v6.104c0,0.012,0.093,0.023,0.208,0.023h20.793   c0.114,0,0.205-0.012,0.205-0.023v-6.104C61.478,23.347,61.449,23.341,61.407,23.336z"/>
	<path d="M67.075,18.225c0.017,0,0.03-0.01,0.03-0.025v-2.588c0-0.014-0.014-0.026-0.03-0.026h-7.983   c-0.017,0-0.03,0.012-0.03,0.026v2.588c0,0.015,0.014,0.025,0.03,0.025H67.075z"/>
	<path d="M84.68,29.91c-9.238,0-16.728-5.823-16.728-13.005C67.952,9.722,75.441,3.9,84.68,3.9c9.228,0,10.104,5.822,10.104,13.004   C94.784,24.087,93.907,29.91,84.68,29.91z"/>
	<path d="M58.096,13.405c0.017-0.025,0.03-0.051,0.03-0.077c0-0.539-3.247-0.978-7.251-0.978s-7.251,0.438-7.251,0.978   c0,0.027,0.014,0.051,0.03,0.077c-0.03,0.005-0.049,0.014-0.049,0.021v1.101c0.823,0.166,1.458,1.114,1.458,2.27   c0,1.154-0.635,2.104-1.458,2.271v2.345c0,0.016,0.063,0.028,0.143,0.028h14.258c0.079,0,0.14-0.012,0.14-0.028v-7.986   C58.145,13.419,58.126,13.41,58.096,13.405z"/>
	<path d="M74.032,42.851l-5.161-11.027h-0.175c0.187-0.068,0.287-0.137,0.287-0.208c0-0.644-8.084-1.167-18.058-1.167   c-9.976,0-18.06,0.522-18.06,1.167c0,0.071,0.103,0.14,0.287,0.208h-0.275l-5.159,11.027l-3.055,6.528v6.246V91.98   c0,1.806,1.465,3.27,3.27,3.27h45.882c1.806,0,3.271-1.464,3.271-3.27V55.625v-6.248L74.032,42.851z M50.877,69.624   c-11.032,0-19.972-5.844-19.972-13.053c0-7.21,8.94-13.053,19.972-13.053c11.027,0,19.97,5.843,19.97,13.053   C70.847,63.78,61.904,69.624,50.877,69.624z"/>
</g>
</svg>