<svg xmlns="http://www.w3.org/2000/svg" xmlns:xlink="http://www.w3.org/1999/xlink" version="1.0" x="0px" y="0px" width="80.146px" height="99.757px" viewBox="0 0 80.146 99.757" overflow="visible" enable-background="new 0 0 80.146 99.757" xml:space="preserve">
    <path d="M80.145,0.77c0-0.424-0.344-0.77-0.77-0.77H0.769C0.345,0,0,0.345,0,0.77l0,0c0.242,27.133,13.308,49.78,30.816,55.779 v33.953c0,5.112,4.145,9.255,9.255,9.255s9.256-4.143,9.256-9.255V56.549C66.834,50.55,79.902,27.903,80.146,0.77H80.145z M43.622,94.049c-1.961,1.959-5.137,1.959-7.097,0l0,0c-0.978-0.979-1.47-2.266-1.47-3.55V43.482l0,0 c0-1.286,0.49-2.566,1.467-3.548c0.341-0.339,0.893-0.339,1.229,0c0.341,0.341,0.341,0.889,0,1.229l0,0 c-1.28,1.282-1.28,3.357,0,4.64c1.282,1.282,3.359,1.282,4.641,0c0.341-0.339,0.888-0.339,1.228,0 c0.339,0.338,0.339,0.89,0.002,1.229c-0.688,0.684-1.522,1.123-2.399,1.33c-0.66,0.155-1.151,0.75-1.151,1.458V85.98 c0,0.613-0.369,1.141-0.9,1.372c-1.372,0.391-2.379,1.65-2.379,3.149c0,0.839,0.321,1.679,0.962,2.321 c1.278,1.275,3.35,1.276,4.63,0.003c0.002-0.001,0.002-0.002,0.007-0.003c0.341-0.341,0.888-0.341,1.228,0 C43.959,93.16,43.959,93.71,43.622,94.049L43.622,94.049z M38.576,43.482c0-0.826,0.669-1.496,1.496-1.496 s1.499,0.67,1.499,1.496s-0.672,1.496-1.499,1.496S38.576,44.308,38.576,43.482z M41.57,90.502 c0,0.827-0.672,1.498-1.499,1.498s-1.496-0.671-1.496-1.498c0-0.828,0.669-1.497,1.496-1.497S41.57,89.674,41.57,90.502z M44.222,91.371c-0.48,0-0.87-0.39-0.87-0.869c0-0.479,0.39-0.868,0.87-0.868c0.479,0,0.866,0.39,0.866,0.868 C45.088,90.981,44.7,91.371,44.222,91.371z M44.222,44.353c-0.48,0-0.87-0.39-0.87-0.871c0-0.48,0.39-0.868,0.87-0.868 c0.479,0,0.866,0.388,0.866,0.868C45.088,43.963,44.7,44.353,44.222,44.353z M74.875,8.284C74.801,8.635,74.49,8.9,74.12,8.9 H6.023c-0.37,0-0.681-0.266-0.754-0.617C5.193,7.031,5.143,5.765,5.128,4.486L5.13,4.488c0-0.425,0.345-0.769,0.771-0.769 h68.341c0.426,0,0.772,0.344,0.772,0.769V4.486C75.002,5.765,74.95,7.031,74.875,8.284z"/>
</svg>