<svg xmlns="http://www.w3.org/2000/svg" xmlns:xlink="http://www.w3.org/1999/xlink" version="1.0" x="0px" y="0px" width="68.268px" height="99.224px" viewBox="0 0 68.268 99.224" overflow="visible" enable-background="new 0 0 68.268 99.224" xml:space="preserve">
    <path d="M64.643,89.132c-1.287,0-2.416,0.677-3.064,1.697h-9.372v-3.961c0-0.293-0.233-0.528-0.519-0.528h-0.78v-0.688 l0.367-0.056c0.383-0.056,0.652-0.411,0.596-0.795c-0.055-0.384-0.414-0.65-0.797-0.595l-0.166,0.027v-1.127l0.367-0.056 c0.383-0.058,0.652-0.414,0.596-0.798c-0.055-0.383-0.414-0.648-0.797-0.592l-0.166,0.023v-1.128l0.367-0.054 c0.383-0.057,0.652-0.413,0.596-0.797c-0.055-0.383-0.414-0.65-0.797-0.594l-0.166,0.026v-1.127l0.367-0.056 c0.383-0.057,0.652-0.413,0.596-0.796c-0.055-0.386-0.414-0.652-0.797-0.596l-0.166,0.026v-1.128l0.367-0.056 c0.383-0.057,0.652-0.413,0.596-0.796c-0.003-0.011-0.005-0.022-0.011-0.033h1.904c0.423,0,0.777-0.348,0.777-0.78v-9.675 c0-0.434-0.354-0.787-0.777-0.787h-2.856v-0.609l0.367-0.056c0.383-0.057,0.652-0.411,0.596-0.795 c-0.055-0.383-0.414-0.651-0.797-0.595l-0.166,0.024v-1.126l0.367-0.054c0.383-0.057,0.652-0.413,0.596-0.799 c-0.055-0.383-0.414-0.649-0.797-0.595l-0.166,0.028v-1.129l0.367-0.055c0.383-0.057,0.652-0.414,0.596-0.797 c-0.055-0.385-0.414-0.649-0.797-0.593l-0.166,0.024v-1.127l0.367-0.057c0.383-0.055,0.652-0.412,0.596-0.795 c-0.055-0.383-0.414-0.649-0.797-0.595l-0.166,0.026v-1.125l0.367-0.058c0.383-0.056,0.652-0.412,0.596-0.796 c-0.055-0.385-0.414-0.649-0.797-0.593l-0.166,0.022v-1.126l0.367-0.056c0.383-0.056,0.652-0.411,0.596-0.794 c-0.055-0.383-0.414-0.651-0.797-0.595l-0.166,0.026v-1.127l0.367-0.057c0.383-0.054,0.652-0.412,0.596-0.796 c-0.055-0.383-0.414-0.649-0.797-0.591l-0.166,0.024v-1.127l0.367-0.056c0.383-0.057,0.652-0.412,0.596-0.799 c-0.055-0.383-0.414-0.647-0.797-0.591l-0.166,0.024v-1.125l0.367-0.058c0.383-0.053,0.652-0.412,0.596-0.795 c-0.055-0.383-0.414-0.651-0.797-0.593l-0.166,0.024v-1.125l0.367-0.059c0.383-0.055,0.652-0.411,0.596-0.795 c-0.055-0.385-0.414-0.649-0.797-0.592l-0.166,0.024v-0.408h0.94l0.784-2.877h1.132c0.423,0,0.777-0.354,0.777-0.785v-2.412 c0-0.428-0.354-0.783-0.777-0.783H41.272c-0.43,0-0.776,0.357-0.776,0.783v2.412c0,0.431,0.347,0.785,0.776,0.785h1.129 l0.78,2.877h0.988v1.44l-0.401,0.06c-0.383,0.057-0.651,0.414-0.595,0.799c0.059,0.383,0.414,0.647,0.797,0.591l0.199-0.029 v1.125l-0.401,0.062c-0.383,0.057-0.651,0.412-0.595,0.794c0.059,0.384,0.414,0.652,0.797,0.595l0.199-0.032v1.127 l-0.401,0.062c-0.383,0.055-0.651,0.411-0.595,0.797c0.059,0.383,0.414,0.647,0.797,0.594l0.199-0.032v1.125l-0.401,0.063 c-0.383,0.057-0.651,0.411-0.595,0.794c0.059,0.383,0.414,0.651,0.797,0.595l0.199-0.03v1.127l-0.401,0.061 c-0.383,0.058-0.651,0.414-0.595,0.796c0.059,0.383,0.414,0.65,0.797,0.595l0.199-0.032v1.127l-0.401,0.062 c-0.383,0.055-0.651,0.411-0.595,0.794c0.059,0.386,0.414,0.65,0.797,0.594l0.198-0.028v1.125l-0.4,0.062 c-0.383,0.057-0.651,0.411-0.595,0.795c0.059,0.383,0.414,0.651,0.797,0.595l0.198-0.03v1.127l-0.4,0.061 c-0.383,0.055-0.651,0.413-0.595,0.797c0.059,0.383,0.414,0.646,0.797,0.591l0.198-0.028v1.125l-0.4,0.062 c-0.383,0.057-0.651,0.411-0.595,0.795c0.059,0.385,0.414,0.651,0.797,0.595l0.198-0.03v1.127l-0.4,0.061 c-0.383,0.055-0.651,0.414-0.595,0.797c0.008,0.048,0.019,0.093,0.034,0.139H23.442c-1.284,0-2.331-1.054-2.331-2.343V17.593 c0-1.291,1.049-2.348,2.331-2.348h17.054v1.803c0,0.429,0.343,0.78,0.776,0.78h12.486c0.428,0,0.78-0.355,0.78-0.78v-2.414 c0-0.432-0.353-0.781-0.78-0.781h-1.483C39.423,1.059,21.145,0.03,21.145,0.03C20.792,0.012,20.436,0,20.083,0 C8.989,0,0,9.046,0,20.206v39.721C0,71.083,8.989,78.07,20.083,78.07c0.353,0,0.71-0.009,1.062-0.021 c0,0,9.335-0.523,19.351-5.494v1.244c0,0.433,0.343,0.78,0.776,0.78h2.896v0.498l-0.4,0.061 c-0.383,0.057-0.651,0.413-0.595,0.797c0.059,0.383,0.414,0.646,0.797,0.593l0.198-0.028v1.123l-0.4,0.064 c-0.383,0.055-0.651,0.412-0.595,0.793c0.059,0.385,0.414,0.65,0.797,0.594l0.198-0.029v1.127l-0.4,0.061 c-0.383,0.057-0.651,0.414-0.595,0.797c0.059,0.386,0.414,0.647,0.797,0.596l0.198-0.031v1.127l-0.4,0.059 c-0.383,0.057-0.651,0.416-0.595,0.799c0.059,0.383,0.414,0.649,0.797,0.593l0.198-0.031v1.126l-0.4,0.062 c-0.383,0.058-0.651,0.413-0.595,0.799c0.012,0.082,0.043,0.157,0.078,0.227c-0.243,0.043-0.427,0.257-0.427,0.517v3.961H33.41 c-0.646-1.021-1.776-1.697-3.062-1.697c-2.004,0-3.627,1.638-3.627,3.653c0,2.01,1.623,3.646,3.627,3.646 c1.285,0,2.414-0.676,3.062-1.696h9.417V98.7c0,0.292,0.229,0.524,0.519,0.524h8.345c0.282,0,0.516-0.232,0.516-0.524v-3.965 h9.375c0.646,1.021,1.774,1.696,3.062,1.696c2.006,0,3.625-1.636,3.625-3.646C68.268,90.77,66.648,89.132,64.643,89.132z"/>
</svg>