<svg xmlns="http://www.w3.org/2000/svg" xmlns:xlink="http://www.w3.org/1999/xlink" version="1.0" x="0px" y="0px" width="99.803px" height="20.061px" viewBox="0 0 99.803 20.061" overflow="visible" enable-background="new 0 0 99.803 20.061" xml:space="preserve">
    <path d="M95.188,5.42c-2.621,0-5.048,0.328-7.031,0.864c-1.439,0.39-3.112,0.612-4.894,0.612c-0.284,0-0.565-0.006-0.844-0.019 c-0.006-0.519-0.428-0.936-0.949-0.936h-0.727V0.79c0-0.437-0.353-0.79-0.787-0.79h-60.11c-0.436,0-0.788,0.354-0.788,0.79 v5.151h-0.729c-0.52,0-0.941,0.417-0.947,0.936c-0.279,0.013-0.561,0.019-0.845,0.019c-1.783,0-3.453-0.223-4.895-0.612 C9.662,5.748,7.237,5.42,4.613,5.42C2.065,5.42,0,7.484,0,10.031c0,2.546,2.065,4.611,4.613,4.611 c2.624,0,5.049-0.329,7.031-0.864c1.442-0.39,3.112-0.612,4.895-0.612c0.284,0,0.565,0.007,0.845,0.019 c0.006,0.519,0.427,0.937,0.947,0.937h0.729v5.151c0,0.437,0.352,0.789,0.788,0.789h60.11c0.435,0,0.787-0.353,0.787-0.789 v-5.151h0.727c0.521,0,0.941-0.418,0.949-0.937c0.278-0.012,0.56-0.019,0.844-0.019c1.781,0,3.454,0.223,4.894,0.612 c1.983,0.535,4.41,0.864,7.031,0.864c2.549,0,4.614-2.065,4.614-4.611C99.803,7.484,97.737,5.42,95.188,5.42z M77.507,5.933 c0,0.436-0.354,0.79-0.787,0.79H23.084c-0.435,0-0.788-0.354-0.788-0.79V4.026c0-0.435,0.353-0.788,0.788-0.788H76.72 c0.434,0,0.787,0.353,0.787,0.788V5.933z"/>
</svg>