<svg xmlns="http://www.w3.org/2000/svg" xmlns:xlink="http://www.w3.org/1999/xlink" version="1.0" x="0px" y="0px" width="89.076px" height="99.602px" viewBox="0 0 89.076 99.602" overflow="visible" enable-background="new 0 0 89.076 99.602" xml:space="preserve">
    <path d="M76.71,1.508c-0.086-0.061-0.152-0.092-0.152-0.092s-2.669-1.13-3.45-1.328c-0.624-0.162-1.306-0.085-1.955,0.13 c-0.043,0.012-0.083,0.026-0.125,0.041c-0.023,0.008-0.052,0.016-0.072,0.026c-0.008,0.002-0.016,0.008-0.023,0.008 c-1.554,0.573-2.661,2.063-2.661,3.812c0,1.903,1.309,3.495,3.076,3.935c0.791,0.212,1.654,0.196,2.482-0.116 c0,0,2.037-0.86,2.538-1.008c0.125-0.037,0.23-0.081,0.319-0.13c4.123,0.948,7.203,4.635,7.203,9.048v12.582 c0,2.568-1.039,4.889-2.724,6.572l-2.333,2.335l-0.014-0.016c-5.408,4.378-12.303,7.002-19.808,7.002 c-7.565,0-14.512-2.667-19.943-7.116l-0.002,0.006l-2.209-2.212c-1.683-1.683-2.723-4.004-2.723-6.572V15.833 c0-4.413,3.08-8.1,7.204-9.048c0.088,0.049,0.192,0.093,0.319,0.13c0.501,0.148,2.539,1.008,2.539,1.008 c0.827,0.312,1.69,0.328,2.483,0.116c1.766-0.44,3.075-2.031,3.075-3.935c0-1.749-1.108-3.238-2.658-3.812 c-0.009,0-0.019-0.006-0.026-0.008c-0.024-0.01-0.051-0.018-0.072-0.026c-0.041-0.015-0.084-0.029-0.124-0.041 c-0.653-0.215-1.333-0.292-1.959-0.13c-0.778,0.198-3.446,1.328-3.446,1.328s-0.067,0.031-0.152,0.092 C34.32,2.53,28.947,8.555,28.947,15.833v12.582c0,3.842,1.498,7.339,3.94,9.93l22.597,22.598 c0.513,0.567,0.851,1.294,0.928,2.094v22.082c0,5.134-4.164,9.298-9.295,9.298c-5.135,0-9.296-4.164-9.296-9.298v-16.36 c0-7.998-6.483-14.479-14.481-14.479c-6.504,0-12.006,4.282-13.835,10.188C4.097,65.463,0,70.201,0,75.896 c0,6.419,5.206,11.625,11.625,11.625S23.25,82.315,23.25,75.896c0-5.26-3.496-9.705-8.292-11.141 c1.497-3.127,4.68-5.294,8.379-5.294c5.134,0,9.295,4.161,9.295,9.296v16.36c0,7.999,6.483,14.483,14.483,14.483 c7.999,0,14.48-6.484,14.48-14.483V63.38c0-0.938,0.359-1.794,0.944-2.438l22.598-22.598c2.443-2.59,3.938-6.087,3.938-9.93 V15.833C89.076,8.555,83.703,2.53,76.71,1.508z M30.594,28.378V16.003c0-6.207,4.438-11.379,10.315-12.515v1.725 c-4.936,1.114-8.624,5.521-8.624,10.791v12.375c0,0.466-0.378,0.847-0.845,0.847S30.594,28.844,30.594,28.378z M32.044,32.561 c-0.499,0-0.904-0.403-0.904-0.905c0-0.499,0.405-0.905,0.904-0.905c0.501,0,0.905,0.407,0.905,0.905 C32.949,32.158,32.545,32.561,32.044,32.561z M11.625,85.516c-5.312,0-9.619-4.309-9.619-9.619 c0-4.407,2.965-8.113,7.006-9.251c-0.101,0.69-0.155,1.393-0.155,2.112v1.146c-0.688,0.317-1.336,0.751-1.903,1.322 c-2.579,2.58-2.579,6.76,0,9.343l4.937,4.933C11.799,85.505,11.713,85.516,11.625,85.516z M16.147,76.488 c-0.215,1.298-1.113,2.554-2.517,3.302c-1.815,0.958-3.9,0.729-5.108-0.438l0.004-0.008c-0.061-0.043-0.102-0.108-0.102-0.188 c0-0.128,0.104-0.233,0.233-0.233c0.059,0,0.104,0.021,0.146,0.054l0.002-0.005c0.678,0.369,1.492,0.541,2.335,0.48 c0.355-0.009,0.642-0.296,0.642-0.65c0-0.228-0.115-0.42-0.283-0.536l0.004-0.005c-0.554-0.351-1.042-0.858-1.379-1.505 c-0.943-1.782-0.439-3.895,1.122-4.722c1.562-0.817,3.588-0.047,4.525,1.738C16.243,74.663,16.351,75.63,16.147,76.488z M21.245,75.896c0,0.088-0.012,0.174-0.014,0.26l-4.934-4.931c-0.664-0.665-1.432-1.154-2.254-1.477v-0.991 c0-0.724,0.093-1.422,0.249-2.1C18.305,67.815,21.245,71.508,21.245,75.896z M23.338,57.696 c-6.106,0-11.059,4.948-11.063,11.055c0,0.004,0.001,0.007,0.001,0.007c0,0.465-0.379,0.844-0.846,0.844 s-0.846-0.379-0.846-0.844c0-7.045,5.71-12.755,12.754-12.755c0.467,0,0.845,0.383,0.845,0.85 C24.184,57.315,23.805,57.696,23.338,57.696z M26.551,58.15c-0.501,0-0.905-0.406-0.905-0.906 c0-0.498,0.404-0.905,0.905-0.905c0.499,0,0.905,0.407,0.905,0.905C27.457,57.744,27.05,58.15,26.551,58.15z M44.475,96.935 c-0.428,0-0.774-0.347-0.774-0.775c0-0.428,0.346-0.777,0.774-0.777c0.429,0,0.775,0.35,0.775,0.777 C45.25,96.588,44.904,96.935,44.475,96.935z M59.129,85.59c0,6.464-5.241,11.701-11.701,11.701 c-0.429,0-0.775-0.348-0.775-0.775c0-0.431,0.347-0.776,0.775-0.776c5.605,0,10.148-4.541,10.148-10.149V65.665 c0-0.005,0-0.007,0-0.011c0-0.427,0.346-0.773,0.775-0.773c0.429,0,0.777,0.347,0.777,0.773V85.59z M57.578,62.64 c0-0.43,0.344-0.778,0.773-0.778c0.429,0,0.777,0.349,0.777,0.778c0,0.429-0.349,0.771-0.777,0.771 C57.922,63.411,57.578,63.068,57.578,62.64z M61.545,54.61c-0.652,0.634-1.546,1.032-2.533,1.032 c-0.988,0-1.884-0.4-2.543-1.039l-7.777-7.78c3.266,0.992,6.726,1.535,10.318,1.535c3.59,0,7.058-0.542,10.325-1.535 L61.545,54.61z"/>
    <path d="M11.625,74.758c-0.626,0-1.138,0.508-1.138,1.139c0,0.627,0.512,1.136,1.138,1.136c0.627,0,1.138-0.509,1.138-1.136 C12.763,75.266,12.252,74.758,11.625,74.758z"/>
</svg>