<svg xmlns="http://www.w3.org/2000/svg" xmlns:xlink="http://www.w3.org/1999/xlink" version="1.1" id="Layer_1" x="0px" y="0px" width="100px" height="100px" viewBox="0 0 100 100" enable-background="new 0 0 100 100" xml:space="preserve">
<g id="Layer_1_1_">
</g>
<path fill="#000000" d="M88.166,21.307H13.827c-3.566,0-6.482,2.913-6.479,6.49v43.215c-0.003,3.579,2.91,6.488,6.479,6.488h74.339  c3.575,0,6.482-2.909,6.482-6.488l0.004-43.215C94.648,24.219,91.741,21.307,88.166,21.307z M11.28,27.796  c-0.001-1.416,1.146-2.559,2.547-2.559h74.339c1.408,0,2.557,1.143,2.553,2.559v7.269H11.28V27.796z M88.166,73.572H13.827  c-1.399,0-2.547-1.147-2.547-2.563V49.403h4.533c0.316-0.754,0.693-1.424,1.105-1.91c2.641-3.118,11.216-3.77,17.95-3.77  c0.474,0,0.785,0.003,0.893,0.006c0.109-0.003,0.423-0.006,0.896-0.006c6.73,0,15.309,0.652,17.948,3.77  c0.412,0.486,0.787,1.156,1.103,1.91h35.011l0.004,21.608C90.719,72.425,89.578,73.572,88.166,73.572z"/>
<path fill="#000000" d="M24.912,56.509c0.7-0.374,1.019-1.028,1.237-1.727c0.002-0.009,0.006-0.017,0.008-0.023l-9.154,0.002  c0.001,0.007,0.005,0.015,0.006,0.021c0.083,0.382,0.223,0.724,0.424,1.01c0.226,0.319,0.529,0.571,0.935,0.716l6.461,0.002  L24.912,56.509L24.912,56.509z"/>
<path fill="#000000" d="M45.376,54.785c0.214,0.697,0.535,1.351,1.234,1.724h0.082h6.462c0.404-0.143,0.707-0.395,0.934-0.715  c0.202-0.286,0.342-0.628,0.424-1.009c0.002-0.01,0.006-0.016,0.008-0.024l-9.151-0.002C45.37,54.768,45.374,54.775,45.376,54.785z"/>
<path fill="#000000" d="M45.083,57.912l-0.58-1.43l-1.107-1.266l-1.478-1.689v-1.92c1.061,0.158,1.956,0.367,2.36,0.642  c0.181,0.122,0.312,0.296,0.426,0.489c0.169,0.287,0.287,0.634,0.391,1.012c0.002,0.009,0.005,0.018,0.007,0.025h9.515  c0-0.008-0.001-0.019-0.001-0.025c0-0.328-0.031-0.668-0.077-1.01c-0.168-1.246-0.604-2.503-1.074-3.337  c-0.133-0.237-0.268-0.451-0.398-0.606c-0.139-0.162-0.311-0.313-0.498-0.458c-0.03-0.023-0.06-0.047-0.09-0.069  c-0.189-0.138-0.401-0.268-0.633-0.391c-0.039-0.021-0.078-0.041-0.119-0.061c-0.244-0.125-0.506-0.244-0.789-0.354  c-0.008-0.003-0.02-0.007-0.028-0.011c-0.292-0.112-0.602-0.217-0.926-0.315c-0.025-0.008-0.049-0.016-0.074-0.023  c-0.325-0.097-0.667-0.186-1.018-0.27c-0.039-0.009-0.077-0.018-0.116-0.027c-0.359-0.083-0.729-0.162-1.107-0.233  c-0.009-0.001-0.018-0.003-0.027-0.005c-0.791-0.147-1.617-0.27-2.45-0.37c-0.02-0.002-0.04-0.005-0.06-0.007  c-3.392-0.405-6.876-0.459-8.472-0.459c-0.566,0-0.896,0.006-0.896,0.006s-0.327-0.006-0.893-0.006  c-0.798,0-2.069,0.013-3.565,0.077c-0.006,0-0.012,0-0.018,0.001c-0.367,0.016-0.747,0.035-1.137,0.057  c-0.016,0.001-0.032,0.002-0.047,0.003c-0.77,0.044-1.577,0.104-2.394,0.181c-0.033,0.003-0.066,0.006-0.1,0.009  c-0.389,0.037-0.778,0.079-1.167,0.125c-0.052,0.006-0.104,0.012-0.156,0.019c-0.392,0.047-0.783,0.099-1.169,0.157  c-0.019,0.002-0.037,0.006-0.055,0.008c-0.375,0.057-0.746,0.12-1.109,0.187c-0.041,0.007-0.082,0.014-0.122,0.022  c-0.358,0.067-0.708,0.142-1.048,0.22c-0.059,0.014-0.117,0.027-0.175,0.042c-0.336,0.081-0.663,0.166-0.975,0.259  c-0.041,0.012-0.079,0.025-0.118,0.037c-0.303,0.092-0.594,0.19-0.868,0.296c-0.022,0.008-0.046,0.016-0.068,0.024  c-0.276,0.108-0.53,0.224-0.771,0.346c-0.045,0.023-0.09,0.046-0.134,0.069c-0.229,0.122-0.438,0.25-0.625,0.387  c-0.033,0.024-0.062,0.049-0.094,0.073c-0.188,0.145-0.359,0.295-0.496,0.457c-0.132,0.155-0.266,0.369-0.399,0.604  c-0.47,0.833-0.905,2.091-1.073,3.337c-0.046,0.342-0.078,0.682-0.077,1.01c0,0.007-0.001,0.015-0.001,0.021h9.513  c0.002-0.008,0.004-0.014,0.006-0.021c0.103-0.378,0.222-0.724,0.39-1.013c0.114-0.193,0.246-0.366,0.427-0.488  c0.407-0.273,1.297-0.48,2.36-0.645v1.924l-1.476,1.687l-1.107,1.267l-0.581,1.432l-3.185,7.846l-0.001,1.883l0.001,1.105  c0,0.595,0.481,1.076,1.075,1.079H35.76l11.432-0.003c0.592,0,1.077-0.481,1.074-1.076l0.003-1.107l-0.003-1.881L45.083,57.912z   M35.761,53.254l-4.091-0.002l-0.841-1.805c2.355-0.254,4.932-0.321,4.932-0.321s2.575,0.067,4.932,0.324l-0.837,1.802  L35.761,53.254z M35.761,65.662c-2.788-0.002-5.05-2.264-5.05-5.049c0-2.793,2.263-5.051,5.05-5.049  c0.159,0,0.309,0.031,0.464,0.047c0.186,0.017,0.376,0.019,0.556,0.056c0.035,0.007,0.065,0.022,0.1,0.031  c2.25,0.509,3.931,2.512,3.931,4.915C40.811,63.398,38.551,65.662,35.761,65.662z"/>
<path fill="#000000" d="M19.047,48.269c0.188-0.136,0.397-0.265,0.625-0.387C19.444,48.004,19.235,48.133,19.047,48.269z"/>
<path fill="#000000" d="M18.458,48.799c0.137-0.162,0.308-0.312,0.496-0.457C18.766,48.487,18.594,48.637,18.458,48.799z"/>
<path fill="#000000" d="M52.566,48.338c0.188,0.146,0.359,0.296,0.498,0.458C52.927,48.635,52.755,48.484,52.566,48.338z"/>
<path fill="#000000" d="M49.981,47.138c0.324,0.098,0.635,0.203,0.926,0.315C50.616,47.34,50.306,47.236,49.981,47.138z"/>
<path fill="#000000" d="M50.938,47.463c0.283,0.11,0.543,0.229,0.789,0.354C51.48,47.692,51.221,47.574,50.938,47.463z"/>
<path fill="#000000" d="M48.89,46.844c0.352,0.084,0.693,0.173,1.018,0.271C49.583,47.018,49.241,46.928,48.89,46.844z"/>
<path fill="#000000" d="M47.666,46.584c0.379,0.071,0.748,0.149,1.107,0.233C48.414,46.733,48.045,46.655,47.666,46.584z"/>
<path fill="#000000" d="M45.129,46.202c-4.599-0.549-9.368-0.453-9.368-0.453s0.33-0.006,0.896-0.006  C38.252,45.743,41.737,45.796,45.129,46.202z"/>
<path fill="#000000" d="M45.189,46.209c0.833,0.101,1.659,0.223,2.45,0.37C46.848,46.432,46.022,46.31,45.189,46.209z"/>
<path fill="#000000" d="M51.844,47.878c0.231,0.123,0.443,0.253,0.633,0.391C52.287,48.131,52.075,48.001,51.844,47.878z"/>
<path fill="#000000" d="M35.761,45.749c0,0-1.902-0.038-4.458,0.071c1.496-0.064,2.767-0.077,3.565-0.077  C35.434,45.743,35.761,45.749,35.761,45.749z"/>
<path fill="#000000" d="M25.115,46.373c0.386-0.058,0.777-0.11,1.169-0.157C25.892,46.263,25.501,46.315,25.115,46.373z"/>
<path fill="#000000" d="M22.782,46.81c0.34-0.079,0.689-0.153,1.048-0.22C23.471,46.657,23.123,46.731,22.782,46.81z"/>
<path fill="#000000" d="M30.148,45.878c0.39-0.022,0.77-0.042,1.137-0.057C30.918,45.836,30.539,45.855,30.148,45.878z"/>
<path fill="#000000" d="M21.631,47.11c0.312-0.093,0.639-0.178,0.975-0.259C22.271,46.932,21.943,47.018,21.631,47.11z"/>
<path fill="#000000" d="M20.645,47.443c0.274-0.105,0.565-0.204,0.868-0.296C21.21,47.24,20.919,47.338,20.645,47.443z"/>
<path fill="#000000" d="M23.951,46.568c0.363-0.067,0.733-0.129,1.109-0.187C24.685,46.438,24.314,46.5,23.951,46.568z"/>
<path fill="#000000" d="M26.44,46.197c0.389-0.046,0.779-0.088,1.167-0.125C27.219,46.108,26.829,46.15,26.44,46.197z"/>
<path fill="#000000" d="M27.707,46.062c0.817-0.077,1.624-0.137,2.394-0.181C29.331,45.925,28.524,45.985,27.707,46.062z"/>
<path fill="#000000" d="M19.807,47.813c0.24-0.122,0.495-0.238,0.771-0.346C20.301,47.576,20.047,47.692,19.807,47.813z"/>
</svg>