<svg xmlns="http://www.w3.org/2000/svg" xmlns:xlink="http://www.w3.org/1999/xlink" version="1.0" x="0px" y="0px" width="77.485px" height="99.346px" viewBox="0 0 77.485 99.346" overflow="visible" enable-background="new 0 0 77.485 99.346" xml:space="preserve">
    <path d="M65.341,4.182l-0.004,89.031c0,3.354,2.718,6.074,6.074,6.074s6.074-2.72,6.074-6.074L74.12,57.157 c0-1.587,0.607-3.033,1.605-4.117c1.044-1.132,1.751-2.602,1.751-4.266V23.789c0,0,0.551-23.645-8.1-23.645 C67.148,0.144,65.341,1.953,65.341,4.182z"/>
    <path d="M54.54,30.534L51.858,0.805C51.81,0.354,51.43,0,50.965,0c-0.497,0-0.897,0.402-0.897,0.9l0.222,27.788 c0,0.683-0.554,1.237-1.237,1.237s-1.237-0.554-1.237-1.237L47.365,0.9c0-0.498-0.404-0.9-0.901-0.9 c-0.496,0-0.898,0.402-0.898,0.9v27.788c0,0.683-0.555,1.237-1.238,1.237c-0.683,0-1.237-0.554-1.237-1.237V0.9 c0-0.498-0.402-0.9-0.901-0.9c-0.496,0-0.898,0.402-0.898,0.9l-0.45,27.788c0,0.683-0.554,1.237-1.237,1.237 c-0.683,0-1.238-0.554-1.238-1.237L38.59,0.9c0-0.498-0.403-0.9-0.901-0.9c-0.463,0-0.844,0.354-0.892,0.805l-2.68,29.729 c-0.057,0.439-0.087,0.89-0.087,1.347c0,2.008,0.578,3.882,1.573,5.467l0.001,0.004l3.994,6.385 c0.859,1.494,1.348,3.225,1.348,5.073l-2.694,44.461c0,3.354,2.719,6.074,6.075,6.074c3.354,0,6.075-2.72,6.075-6.074 l-2.701-44.461c0-1.848,0.497-3.579,1.354-5.073l3.996-6.385v-0.004c0.994-1.585,1.573-3.459,1.573-5.467 C54.625,31.423,54.592,30.973,54.54,30.534z"/>
    <path d="M19.452,2.709c-1.591-1.604-3.797-2.596-6.234-2.596S8.576,1.106,6.984,2.709C2.667,7.077,0,13.078,0,19.702 c0,3.925,0.612,7.815,2.595,10.906c0.967,1.509,1.722,2.342,2.735,3.545c2.834,3.364,4.642,8.217,4.294,13.745L7.143,93.223 c0,3.359,2.721,6.078,6.075,6.078l0,0c3.356,0,6.076-2.719,6.076-6.078l-2.481-45.324c-0.349-5.528,1.459-10.381,4.295-13.745 c1.013-1.203,1.767-2.036,2.734-3.545c1.983-3.091,2.595-6.981,2.595-10.906C26.437,13.078,23.769,7.077,19.452,2.709z"/>
</svg>