<svg xmlns="http://www.w3.org/2000/svg" xmlns:xlink="http://www.w3.org/1999/xlink" version="1.0" x="0px" y="0px" width="100.004px" height="65.265px" viewBox="0 0 100.004 65.265" overflow="visible" enable-background="new 0 0 100.004 65.265" xml:space="preserve">
    <path d="M100,2.755l0.004,58.516c0,2.205-1.788,3.993-3.993,3.993s-3.992-1.788-3.992-3.993l2.212-23.697 c0-1.043-0.4-1.993-1.056-2.705c-0.687-0.744-1.152-1.711-1.152-2.805V15.643c0,0-0.361-15.541,5.324-15.541 C98.812,0.102,100,1.29,100,2.755z"/>
    <path d="M13.44,20.036L11.685,0.552c-0.031-0.296-0.281-0.527-0.585-0.527c-0.326,0-0.59,0.264-0.59,0.59l0.147,18.212 c0,0.448-0.363,0.812-0.811,0.812s-0.811-0.363-0.811-0.812L8.74,0.614c0-0.326-0.264-0.59-0.59-0.59s-0.589,0.264-0.589,0.59 v18.212c0,0.448-0.364,0.812-0.812,0.812s-0.811-0.363-0.811-0.812V0.614c0-0.326-0.264-0.59-0.59-0.59s-0.59,0.264-0.59,0.59 L4.463,18.826c0,0.448-0.363,0.812-0.811,0.812c-0.448,0-0.812-0.363-0.812-0.812L2.988,0.614c0-0.326-0.264-0.59-0.59-0.59 c-0.304,0-0.554,0.231-0.585,0.527L0.058,20.036C0.02,20.324,0,20.619,0,20.919c0,1.317,0.379,2.546,1.031,3.584l0.001,0.003 L3.65,28.69c0.562,0.979,0.884,2.114,0.884,3.325L2.768,61.156c0,2.199,1.782,3.981,3.981,3.981s3.982-1.782,3.982-3.981 l-1.77-29.141c0-1.211,0.324-2.346,0.887-3.325l2.618-4.185l0.001-0.003c0.652-1.038,1.031-2.267,1.031-3.584 C13.498,20.619,13.478,20.324,13.44,20.036z"/>
    <path d="M51.8,0C33.799,0,19.206,14.593,19.206,32.595c0,18.002,14.593,32.595,32.594,32.595 c18.002,0,32.595-14.593,32.595-32.595C84.395,14.593,69.802,0,51.8,0z M63.94,20.455c0.756-0.613,1.866-0.499,2.479,0.256 c0.614,0.756,0.5,1.866-0.256,2.48c-0.755,0.613-1.865,0.499-2.479-0.257C63.07,22.18,63.186,21.069,63.94,20.455z M65.122,45.94l-0.01-0.011c-6.741,6.769-17.647,7.463-25.219,1.309c-0.755-0.614-0.87-1.725-0.256-2.479 c0.614-0.756,1.725-0.87,2.48-0.256c6.156,5.003,15.022,4.438,20.501-1.066l0.011,0.011c3.851-3.851,5.521-9.637,3.854-15.221 c-0.278-0.933,0.252-1.914,1.186-2.193c0.933-0.277,1.914,0.253,2.192,1.186C71.91,34.087,69.857,41.203,65.122,45.94z"/>
</svg>