<?xml version="1.0" encoding="utf-8"?>
<!-- Generator: Adobe Illustrator 15.1.0, SVG Export Plug-In . SVG Version: 6.00 Build 0)  -->
<!DOCTYPE svg PUBLIC "-//W3C//DTD SVG 1.1//EN" "http://www.w3.org/Graphics/SVG/1.1/DTD/svg11.dtd">
<svg version="1.1" id="Layer_1" xmlns="http://www.w3.org/2000/svg" xmlns:xlink="http://www.w3.org/1999/xlink" x="0px" y="0px"
	 width="100px" height="66.53px" viewBox="0 16.734 100 66.53" enable-background="new 0 16.734 100 66.53" xml:space="preserve">
<path fill="#231F20" d="M100,52.655c0-1.889,0-3.841-24.262-17.179c-9.046-4.972-18.184-9.695-21.636-11.466
	c0.001-0.071,0.001-0.143,0.001-0.214c0-4.29-1.609-7.062-4.103-7.062c-2.495,0-4.107,2.772-4.107,7.062
	c0,0.071,0,0.143,0.001,0.214c-3.452,1.771-12.59,6.495-21.634,11.466C0,48.814,0,50.767,0,52.655c0,1.014,0.005,3.985,9.415,7.273
	c-0.45,16.514,0.144,16.979,1.282,17.862c2.082,1.632,23.995,5.474,39.504,5.474c13.853,0,37.93-3.95,39.635-5.634
	c0.91-0.906,1.013-1.011,0.84-17.733C99.993,56.622,100,53.664,100,52.655z M85.824,74.032c-4.144,0.958-16.625,3.364-28.631,4.133
	c-1.082-6.594-3.881-11.306-7.177-11.306c-3.292,0-6.097,4.707-7.175,11.308c-12.369-0.754-24.873-3.091-28.567-4.112
	c-0.111-1.356-0.228-4.67-0.036-12.652c0.164,0.043,0.335,0.084,0.501,0.127c0.258,0.067,0.519,0.134,0.782,0.2
	c0.405,0.101,0.815,0.2,1.23,0.298c0.266,0.062,0.532,0.124,0.801,0.185c0.429,0.098,0.865,0.192,1.303,0.285
	c0.265,0.057,0.528,0.113,0.796,0.168c0.467,0.094,0.942,0.186,1.419,0.277c0.25,0.048,0.496,0.096,0.748,0.142
	c0.551,0.102,1.11,0.197,1.673,0.293c0.186,0.03,0.367,0.064,0.554,0.094c1.516,0.249,3.072,0.476,4.663,0.681
	c0.235,0.029,0.474,0.057,0.71,0.085c0.558,0.07,1.116,0.138,1.682,0.2c0.298,0.034,0.6,0.063,0.9,0.096
	c0.512,0.055,1.025,0.107,1.543,0.157c0.325,0.031,0.652,0.061,0.979,0.089c0.501,0.045,1.003,0.089,1.509,0.13
	c0.341,0.026,0.684,0.053,1.027,0.078c0.499,0.037,0.999,0.071,1.501,0.104c0.349,0.022,0.698,0.046,1.049,0.065
	c0.507,0.03,1.017,0.057,1.527,0.083c0.349,0.017,0.697,0.034,1.047,0.051c0.527,0.022,1.056,0.041,1.586,0.061
	c0.334,0.011,0.668,0.024,1.004,0.034c0.58,0.018,1.163,0.028,1.746,0.04c0.288,0.006,0.576,0.014,0.864,0.018
	c0.871,0.014,1.744,0.021,2.619,0.021c0.88,0,1.757-0.007,2.631-0.021c0.286-0.005,0.571-0.013,0.855-0.018
	c0.589-0.012,1.177-0.023,1.763-0.041c0.338-0.01,0.675-0.022,1.013-0.034c0.528-0.02,1.058-0.038,1.584-0.061
	c0.354-0.017,0.707-0.034,1.062-0.052c0.508-0.026,1.015-0.053,1.519-0.082c0.356-0.021,0.712-0.044,1.067-0.066
	c0.497-0.033,0.992-0.067,1.486-0.104c0.352-0.025,0.702-0.053,1.053-0.08c0.499-0.04,0.996-0.084,1.491-0.128
	c0.333-0.03,0.666-0.06,0.997-0.091c0.516-0.05,1.026-0.104,1.536-0.157c0.306-0.033,0.611-0.063,0.915-0.098
	c0.564-0.063,1.123-0.131,1.681-0.201c0.238-0.028,0.48-0.057,0.718-0.087c1.588-0.204,3.141-0.432,4.654-0.682
	c0.229-0.037,0.453-0.078,0.681-0.117c0.52-0.089,1.037-0.178,1.548-0.271c0.276-0.051,0.547-0.104,0.82-0.157
	c0.453-0.086,0.904-0.174,1.35-0.266c0.284-0.058,0.563-0.118,0.845-0.178c0.424-0.091,0.844-0.182,1.26-0.276
	c0.281-0.063,0.559-0.129,0.836-0.195c0.403-0.095,0.802-0.191,1.195-0.291c0.273-0.068,0.546-0.138,0.815-0.209
	c0.149-0.038,0.305-0.075,0.452-0.115C85.895,68.886,85.865,72.394,85.824,74.032z"/>
</svg>
