<svg xmlns="http://www.w3.org/2000/svg" xmlns:xlink="http://www.w3.org/1999/xlink" version="1.1" id="Layer_1" x="0px" y="0px" width="100px" height="85.2631578947px" viewBox="0 0 285.092 243.098" enable-background="new 0 0 285.092 243.098" xml:space="preserve">
<g>
	<path d="M93.5,56.677c2.735,0,4.812-1.175,5.848-3.31c1.275-2.627,0.759-6.365-1.228-8.887c-2.599-3.3-3.636-7.673-3.646-7.717   L93.5,32.569l-0.974,4.194c-0.01,0.044-1.047,4.417-3.646,7.717c-1.986,2.522-2.503,6.259-1.228,8.887   C88.688,55.501,90.765,56.677,93.5,56.677z M90.451,45.717c1.421-1.805,2.408-3.85,3.049-5.483   c0.641,1.633,1.627,3.678,3.049,5.483c1.488,1.889,1.927,4.866,1,6.777c-0.703,1.448-2.065,2.183-4.048,2.183   s-3.346-0.734-4.049-2.183C88.524,50.583,88.963,47.606,90.451,45.717z"/>
	<path d="M116.5,56.677c2.735,0,4.812-1.175,5.848-3.31c1.275-2.627,0.759-6.365-1.228-8.887c-2.599-3.3-3.636-7.673-3.646-7.717   l-0.974-4.194l-0.974,4.194c-0.01,0.044-1.047,4.417-3.646,7.717c-1.986,2.522-2.503,6.259-1.228,8.887   C111.688,55.501,113.765,56.677,116.5,56.677z M113.451,45.717c1.421-1.805,2.408-3.85,3.049-5.483   c0.641,1.633,1.627,3.678,3.049,5.483c1.488,1.889,1.927,4.866,1,6.777c-0.703,1.448-2.065,2.183-4.048,2.183   s-3.346-0.734-4.049-2.183C111.524,50.583,111.963,47.606,113.451,45.717z"/>
	<path d="M139.5,56.677c2.735,0,4.812-1.175,5.848-3.31c1.275-2.627,0.758-6.365-1.229-8.887c-2.598-3.3-3.635-7.673-3.646-7.717   l-0.974-4.194l-0.974,4.194c-0.01,0.044-1.047,4.417-3.646,7.717c-1.986,2.522-2.503,6.259-1.228,8.887   C134.688,55.501,136.765,56.677,139.5,56.677z M136.451,45.717c1.421-1.805,2.408-3.85,3.049-5.483   c0.641,1.633,1.627,3.678,3.048,5.483c1.488,1.889,1.928,4.866,1,6.777c-0.703,1.448-2.065,2.183-4.049,2.183   s-3.346-0.734-4.049-2.183C134.524,50.583,134.963,47.606,136.451,45.717z"/>
	<path d="M162.5,56.677c2.735,0,4.812-1.175,5.848-3.31c1.275-2.627,0.758-6.365-1.229-8.887c-2.598-3.3-3.635-7.673-3.646-7.717   l-0.974-4.194l-0.974,4.194c-0.01,0.044-1.047,4.417-3.646,7.717c-1.987,2.522-2.503,6.26-1.229,8.887   C157.688,55.501,159.765,56.677,162.5,56.677z M159.452,45.717c1.421-1.805,2.408-3.85,3.048-5.482   c0.641,1.633,1.627,3.678,3.048,5.482c1.488,1.889,1.928,4.866,1,6.777c-0.703,1.448-2.065,2.183-4.049,2.183   s-3.346-0.734-4.049-2.183C157.524,50.583,157.963,47.606,159.452,45.717z"/>
	<path d="M185.5,56.677c2.735,0,4.812-1.175,5.848-3.31c1.275-2.627,0.758-6.365-1.229-8.887c-2.598-3.3-3.635-7.673-3.646-7.717   l-0.974-4.194l-0.974,4.194c-0.01,0.044-1.047,4.417-3.646,7.717c-1.987,2.522-2.503,6.26-1.229,8.887   C180.688,55.501,182.765,56.677,185.5,56.677z M182.452,45.717c1.421-1.805,2.408-3.85,3.048-5.482   c0.641,1.633,1.627,3.678,3.048,5.482c1.488,1.889,1.928,4.866,1,6.777c-0.703,1.448-2.065,2.183-4.049,2.183   s-3.346-0.734-4.049-2.183C180.524,50.583,180.963,47.606,182.452,45.717z"/>
	<path d="M231.808,189.491c-0.001-0.001-0.003-0.001-0.005-0.002c-0.424-0.186-0.866-0.349-1.32-0.493   c-0.074-0.023-0.148-0.045-0.223-0.067c-0.384-0.116-0.778-0.217-1.183-0.304c-0.117-0.025-0.234-0.051-0.353-0.073   c-0.38-0.072-0.77-0.128-1.167-0.174c-0.131-0.015-0.259-0.035-0.392-0.048c-0.519-0.047-1.047-0.076-1.591-0.076   c-3.793,0-7.428,0.897-9.975,2.462l-0.785,0.482l-0.786-0.482c-2.545-1.564-6.18-2.462-9.973-2.462s-7.428,0.897-9.973,2.462   l-0.786,0.482l-0.785-0.482c-2.546-1.564-6.182-2.462-9.975-2.462s-7.428,0.897-9.975,2.462l-0.785,0.482l-0.786-0.482   c-2.545-1.564-6.18-2.462-9.973-2.462s-7.428,0.897-9.973,2.462l-0.786,0.482l-0.785-0.482c-2.546-1.564-6.182-2.462-9.975-2.462   s-7.428,0.897-9.974,2.462l-0.785,0.482l-0.785-0.482c-2.546-1.564-6.181-2.462-9.974-2.462s-7.428,0.897-9.974,2.462l-0.785,0.482   l-0.785-0.482c-2.546-1.564-6.181-2.462-9.974-2.462s-7.428,0.897-9.974,2.462l-0.785,0.482l-0.785-0.482   c-2.546-1.564-6.181-2.462-9.974-2.462s-7.428,0.897-9.974,2.462l-0.785,0.482l-0.785-0.482c-2.546-1.564-6.181-2.462-9.974-2.462   c-0.543,0-1.072,0.029-1.591,0.076c-0.132,0.013-0.26,0.033-0.391,0.048c-0.397,0.046-0.787,0.102-1.168,0.174   c-0.118,0.022-0.234,0.048-0.351,0.073c-0.405,0.087-0.8,0.188-1.186,0.304c-0.073,0.022-0.147,0.044-0.22,0.066   c-0.457,0.146-0.9,0.31-1.327,0.496c-4.265,1.866-6.934,5.71-6.934,10.596H238.74C238.74,195.201,236.071,191.357,231.808,189.491z   "/>
	<path d="M64.185,187.708c2.95-1.587,6.73-2.454,10.759-2.454s7.809,0.867,10.759,2.454c2.95-1.587,6.73-2.454,10.759-2.454   s7.809,0.867,10.759,2.454c2.95-1.587,6.73-2.454,10.759-2.454s7.809,0.867,10.759,2.454c2.95-1.587,6.73-2.454,10.759-2.454   c4.028,0,7.809,0.867,10.76,2.454c2.95-1.588,6.73-2.454,10.759-2.454s7.809,0.866,10.759,2.454   c2.951-1.587,6.731-2.454,10.76-2.454s7.809,0.867,10.76,2.454c2.95-1.588,6.73-2.454,10.759-2.454s7.809,0.866,10.759,2.454   c2.951-1.587,6.731-2.454,10.76-2.454c2.247,0,4.34,0.367,6.233,1.031v-66.574c0-7.179-5.82-13-13-13h-28.484V60.112h-9.647v46.599   h-13.353V60.112h-9.647v46.599h-13.353V60.112h-9.647v46.599h-13.353V60.112h-9.647v46.599H98.323V60.112h-9.647v46.599H60.192   c-7.18,0-13,5.82-13,13v66.574c1.893-0.664,3.986-1.031,6.233-1.031C57.455,185.254,61.235,186.121,64.185,187.708z"/>
</g>
</svg>