<svg xmlns="http://www.w3.org/2000/svg" xmlns:xlink="http://www.w3.org/1999/xlink" version="1.1" id="Layer_1" x="0px" y="0px" width="100px" height="23.117px" viewBox="0 1.732 100 23.117" enable-background="new 0 1.732 100 23.117" xml:space="preserve">
<g id="Layer_1_1_" display="none">
	<g id="St9YL3_1_" display="inline" opacity="0.39">
		
			</g>
</g>
<path d="M28.703,15.231c-2.657,0-4.81,2.154-4.81,4.81c0,2.656,2.154,4.81,4.81,4.81c2.658,0,4.811-2.154,4.811-4.81  C33.514,17.385,31.36,15.231,28.703,15.231z M28.703,22.059c-1.121,0-2.029-0.908-2.029-2.029s0.908-2.031,2.029-2.031  s2.029,0.91,2.029,2.031C30.732,21.15,29.824,22.059,28.703,22.059z"/>
<path d="M70.945,15.23c-2.657,0-4.812,2.154-4.812,4.809c0,2.657,2.155,4.811,4.812,4.811s4.811-2.155,4.811-4.811  S73.6,15.23,70.945,15.23z M70.945,22.059c-1.121,0-2.031-0.908-2.031-2.029s0.91-2.031,2.031-2.031s2.031,0.91,2.031,2.031  S72.066,22.059,70.945,22.059z"/>
<path d="M68.234,8.394c0,0-11.829-5.516-15.604-6.314C48.855,1.28,35.862,2.006,34.628,2.804l-7.26,3.557l-7.113,3.483l-1.152,6.715  c0,0-0.032,3.983,0.244,4.899h3.485l0.044-1.418c0-3.217,2.609-5.825,5.828-5.825c3.217,0,5.824,2.608,5.824,5.825l0.099,1.418  h30.486l0.006-1.783c0-3.218,2.431-5.592,5.646-5.592c3.218,0,6.005,2.373,6.005,5.592l0.12,1.648c0,0,3.684,0.208,4.847-0.229  c0,0,0.435-6.17-1.815-8.42C77.926,10.785,73.897,9.609,68.234,8.394z M35.28,9.265c0,0,1.489-3.157,3.116-4.365  c1.205-1.025,7.846-0.997,7.846-0.997l0.246,6.125L35.28,9.265z M64.063,10.717l-15.57-0.617L48.13,3.893  C53.9,3.677,60.471,6.762,64.245,8.975S64.063,10.717,64.063,10.717z"/>
<path d="M92.606,15.231c-2.657,0-4.811,2.154-4.811,4.81c0,2.656,2.154,4.81,4.811,4.81s4.81-2.154,4.81-4.81  C97.416,17.385,95.263,15.231,92.606,15.231z M92.606,22.059c-1.121,0-2.031-0.908-2.031-2.029s0.91-2.031,2.031-2.031  c1.12,0,2.029,0.91,2.029,2.031C94.634,21.15,93.727,22.059,92.606,22.059z"/>
<path d="M100,2.495l-8.729,3.866l-7.112,3.483l-1.152,6.715c0,0-0.032,3.983,0.245,4.899h3.483l0.046-1.418  c0-3.217,2.608-5.825,5.826-5.825s5.825,2.608,5.825,5.825l0.099,1.418H100V2.495z"/>
<path d="M7.26,15.23c-2.657,0-4.811,2.154-4.811,4.809c0,2.657,2.155,4.811,4.811,4.811s4.81-2.155,4.81-4.811  S9.915,15.23,7.26,15.23z M7.26,22.059c-1.121,0-2.031-0.908-2.031-2.029s0.91-2.031,2.031-2.031s2.031,0.91,2.031,2.031  S8.381,22.059,7.26,22.059z"/>
<path d="M1.43,21.459l0.005-1.783c0-3.218,2.43-5.592,5.647-5.592s6.004,2.373,6.004,5.592l0.121,1.648c0,0,3.685,0.208,4.847-0.229  c0,0,0.435-6.17-1.815-8.42c-1.998-1.89-6.026-3.066-11.688-4.282L0,7.096v14.363H1.43z"/>
</svg>