<svg xmlns="http://www.w3.org/2000/svg" xmlns:xlink="http://www.w3.org/1999/xlink" version="1.1" id="Layer_1" x="0px" y="0px" width="100px" height="100px" viewBox="0 0 100 100" enable-background="new 0 0 100 100" xml:space="preserve">
<path d="M72.496,26.211c0.066,0.263,0.462,0.263,1.348-0.212c1.492-0.766,2.787-1.994,4.068-3.039  c1.269-1.043,2.656-2.073,3.688-3.369c0.911-1.188,0.395-2.205-1.045-1.836c-1.876,0.477-3.949,2.881-5.271,4.162  C74.794,22.379,72.271,25.457,72.496,26.211z"/>
<path d="M23.242,36.859c0-0.106-4.387-2.853-5.575-3.434c-1.507-0.754-5.219-3.568-6.804-1.929  c-1.031,1.083,0.462,1.994,1.348,2.734C13.161,35.022,23.123,38.867,23.242,36.859z"/>
<path d="M82.749,58.316c-0.04,0.08-0.054,0.17-0.067,0.252c-0.542,2.205,8.008,5.414,9.579,6.459  c2.021,1.32,5.721,1.203,4.399-2.152C95.524,60.033,83.409,57.338,82.749,58.316z"/>
<path d="M67.62,69.613c0.371,2.562,1.797,5.27,3.422,7.516c1.996,2.723,6.646,7.188,5.615,11.018  c-1.004,3.713-4.821,1.348-6.301-0.633c-2.551-3.449-2.829-7.967-4.942-11.625c-1.017-1.771-2.417-3.066-4.281-3.926  c-3.699-1.666-7.676-2.734-9.882,1.588c-1.77,3.461-1.44,8.309-4.096,11.348c-1.281,1.453-4.082,2.352-5.153,0.156  c-1.413-2.865,1.19-7.238,0.503-10.385c-1.717-7.791-11.996,4.031-14.07,5.498c-5.827,4.082-3.224-3.463-2.114-6.367  c1.505-3.963,7.98-11.295,6.5-15.143c-0.674-1.729-4.188-1.229-5.55-1.123c-1.691,0.121-3.316,0.648-5.021,0.621  c-0.792,0-1.505,0.016-1.81-0.791c-0.344-0.887,0.595-1.811,0.12-2.67c-0.476-0.873-1.917-0.936-2.762-1.082  c-2.259-0.357-4.717-0.346-6.976,0c-1.836,0.275-3.738,1.203-5.627,1.043c-2.55-0.197-2.788-3.463-0.859-4.834  c1.137-0.82,3.185-1.006,4.532-0.833c6.5,1.294,19.145,3.607,23.068-3.436c2.788-4.98-1.467-4.069-4.016-5.615  c-2.273-1.387-2.921-2.603-0.385-2.88c2.339-0.263,5.337,0.713,7.742,0.806c1.823,0.066,2.788-1.532,3.409-3.025  c1.546-3.778,1.137-8.508-1.097-11.917c-1.756-2.682-4.385-4.769-5.296-7.993c-0.793-2.814,0.342-5.562,3.686-4.941  c6.448,1.176,4.743,9.525,5.998,14.083c2.259,8.257,9.42,0.846,13.925-4.36c1.031-1.188,2.775-2.959,4.439-3.197  c1.771-0.277,3.501,1.427,3.118,3.329c-0.462,2.22-3.686,3.224-4.558,5.22c-0.951,2.206,1.029,4.122,3.302,4.175  c2.472,0.065,4.678-1.705,7.096-2.008c4.703-0.582,2.602,5.707,4.002,8.56c2.273,4.599,7.241,0.397,10.214-1.083  c1.586-0.806,4.505-2.298,6.235-1.031c1.52,1.098,0.965,2.829-0.29,3.898c-2.075,1.784-5.206,1.4-7.756,1.758  c-3.699,0.501-8.06,1.862-9.751,5.548c-1.148,2.524-0.54,6.158,1.521,8.059c1.757,1.588,4.558,1.428,6.183,3.105  c3.171,3.248-2.352,5.049-4.756,5.814C70.896,63.1,66.854,64.379,67.62,69.613z"/>
</svg>